<svg id="fnt-Lalezar" viewBox="0 0 1532 1000" xmlns="http://www.w3.org/2000/svg"><path id="lalezar" class="f" d="M24 667v-285h90v219h117v66h-207m448 0h-71l-8-32q-23 38-64 38-34 0-55-19t-21-53q0-21 12-37t34-22q28-8 86-9 0-33-3-35-2-2-16-2-8 0-23 1-24 1-65 6-4-27-6-58 26-6 55-10t52-3q40 0 60 13t26 35 6 54l-1 74 2 59m-114-50q13 0 27-5v-37h-4q-37 0-41 4-2 2-4 7t-1 10q0 12 6 16t17 5m153 50v-300l85-4v304h-85m267-60q13 0 47-3 4 0 16-1l8 52q-39 18-100 18-58 0-89-29t-30-88q0-30 7-58t18-39q11-11 39-19t57-8q45 0 67 16t30 44 7 76q-34 2-67 2h-71q0 16 7 24t19 10 35 3m-56-115q-3 1-4 13t-2 26h26q23 0 34-1 0-24-7-34t-23-10q-14 0-24 6m249 119h113v56h-206v-58l111-118h-108v-54h201v57l-111 117m355 56h-71l-8-32q-23 38-64 38-33 0-55-19t-21-53q0-21 12-37t34-22q28-8 87-9 0-33-3-35-3-2-16-2-9 0-24 1-24 1-65 6-4-27-6-58 27-6 56-10t52-3q40 0 60 13t26 35 5 54l0 74 1 59m-114-50q13 0 28-5v-37h-4q-37 0-41 4-3 2-4 7t-1 10q0 12 5 16t17 5m294-185q7 0 14 1t11 4q0 11-3 36t-4 36q-5-1-19-1-31 0-56 4v155h-85v-230h71l10 37h1q14-19 31-31t29-11" />
</svg>