<svg id="fnt-Langar" viewBox="0 0 1554 1000" xmlns="http://www.w3.org/2000/svg"><path id="langar" class="f" d="M87 614l143-20 12 25q-7 15-19 29t-26 27l-128-13-21 13q-21-8-32-23l19-153-6-182 15-10q5 1 15 5t19 10 14 11l-5 172v109m374-1l43-11q5 6 9 17t6 23l-68 33q-12-4-26-12t-20-14l2-37q-25 28-51 44t-44 19q-8-4-19-15t-20-23-12-24l11-138q7-16 21-32t28-26q36-7 70-8t75 12q6 6 10 14t8 16 4 12q-5 22-14 43t-19 40l6 67m-131 1q18-7 40-28t40-51l2-76q-21 0-40 2t-36 8q-9 25-13 50t-3 48 3 35 7 12m429-1l40-11q5 6 9 17t6 23l-68 33q-13-7-27-17t-23-23q9-32 12-64t1-60-5-45q-13 6-27 19t-28 33-26 41l-3 108q-11 3-26 3t-26-3q-15-17-25-38 4-22 12-43t17-40l1-7-6-69-44 11q-3-6-8-17t-6-22l67-33q5 0 14 5t19 11 14 10l-2 42q28-32 56-50t47-18q7 4 16 14t17 22 10 24l-8 144m296-150q-8 37-25 69l12 165q-5 11-15 25t-22 28-23 22q-21 6-47 8t-51 1-47-6q0-8 1-20t3-23 6-18q16 6 36 9t43 3 41-2q11-27 15-56t4-69q-28 33-57 53t-50 23q-7-4-18-15t-20-23-12-24l10-138q8-16 22-32t28-26q36-7 70-8t75 12q5 6 10 14t7 16 4 12m-157 151q19-7 42-31t41-55l0-69q-21 0-40 2t-37 8q-9 25-13 50t-4 48 4 35 7 12m379-1l44-11q4 6 9 17t5 23l-67 33q-12-4-26-12t-21-14l2-37q-25 28-50 44t-45 19q-7-4-18-15t-20-23-12-24l10-138q8-16 22-32t28-26q36-7 70-8t75 12q5 6 10 14t7 16 4 12q-5 22-13 43t-20 40l6 67m-130 1q18-7 39-28t40-51l2-76q-20 0-39 2t-36 8q-9 25-13 50t-4 48 4 35 7 12m368-205q12 6 22 22t16 34l-5 62q-8 6-21 9t-24 3l-12-11q2-19 3-33t-1-25q-16 11-29 33t-24 48l1 116q-11 3-25 3t-26-3q-16-17-26-38 4-16 10-35t15-37v-18l-6-69-43 11q-4-6-9-17t-6-22l68-33q5 0 14 5t18 11 14 10l-2 39q21-28 42-47t36-18" />
</svg>