<svg id="fnt-Lateef" viewBox="0 0 1032 1000" xmlns="http://www.w3.org/2000/svg"><path id="lateef" class="f" d="M204 606l-17 63q-11-1-24-2t-22 0h-123l-1-17 25-5q1-8 1-59v-68q0-25 0-41t-1-18l-25-6 1-16h99l1 17-33 5q-1 2-1 17t-1 42v68q0 21 0 36t1 19q11 2 27 2h24q10 0 16-1t12-1l21-40 20 5m76 64q-17 0-29-7t-19-17-7-20q0-14 8-23t28-15l61-19v-18q0-14-13-24t-29-10q-9 0-12 4t-4 14l-1 19q-16 4-27-1t-10-15q0-9 10-18t27-17 29-9q30 0 49 16t19 40l-2 62q0 9 1 16t2 10l25 5v14l-21 8q-6 2-11 3t-9 2q-13 0-18-14l-4-17 6 1q-25 30-49 30m13-27q16 0 29-14v-41l-39 10q-17 4-17 20 0 10 8 17t19 8m231-13l7 10q-7 14-20 22t-30 8q-24 0-40-15t-16-45l1-91h-28v-10l56-48h9l-1 48 0 96q0 37 32 37 17 0 30-12m-4-111h-75v-22h75v22m107 151q-23 0-42-11t-29-29-11-45q0-28 12-48t30-32 41-11q32 0 50 21t17 56v8h-118v-19h89l-6 7v-10q0-21-9-33t-26-12q-16 0-29 14t-12 43v5q0 31 15 48t41 18q14 0 25-5t21-18l10 10q-11 22-29 32t-40 11m180 0q-24 0-42-11t-30-29-11-45q0-28 12-48t31-32 40-11q33 0 50 21t18 56v8h-119v-19h89l-5 7v-10q0-21-10-33t-26-12q-16 0-28 14t-13 43v5q0 31 16 48t41 18q13 0 24-5t21-18l10 10q-11 22-28 32t-40 11m188-19l-2 16h-93l-1-15 24-7q1-9 1-21t0-42l0-63v-42q0-38 18-61t48-23q17 0 29 8t11 18q0 6-4 10t-11 4q-10 0-20-9l-19-19 12 3q-28 0-28 56v34l0 21 1 61q0 18 0 36t1 29l33 6m8-132h-107v-14l28-8 27 1h52v21" />
</svg>