<svg id="fnt-Lavishly Yours" viewBox="0 0 2651 1000" xmlns="http://www.w3.org/2000/svg"><path id="lavishly-yours" class="f" d="M277 734q-2 0-2-4 0-2 0-7t2-11q3-19 7-39t10-41q-7-5-13-10t-12-8q-44 73-105 73-10 0-20-2t-22-5q-8-3-8-6 0-2 3-2 1 0 5 1 20 6 38 6 57 0 95-75-48-33-85-51-30-14-62-14-68 0-85 50-4 10-4 20 0 29 24 56 22 24 44 28 6 1 6 4 0 3-7 3-1 0-3 0t-3 0q-25-5-46-26-23-24-23-56 0-16 6-33 12-33 41-50 28-18 64-18 29 0 56 12 39 15 87 52 3-5 6-13t7-18l7-16q-31-7-59-25-46-32-46-78 0-21 10-35t29-14q13 0 23 7t10 20v1q0 8-7 8-10 0-11-10-4-7-14-7-2 0-4 0t-3 1q-26 5-26 29 0 43 42 72 25 19 59 23 61-146 113-187 30-24 58-24 25 0 41 19t16 47q0 40-31 76-60 72-150 79l-11 27q3 1 8 3t6 5q0 1-23 20l-1 0q-2 5-4 11t-3 12q36 29 64 48t50 30q17 8 38 8 14 0 26-4t23-10q21-13 21-35 0-2-1-7t-1-7q0-4 2-4 6 0 6 21 0 26-23 42t-57 17q-32 0-62-16-13-6-36-22t-57-39q-8 27-13 50t-8 44q-1 4-2 4m33-207q6-1 11-1t11-1q10-23 21-48t24-49q41-79 56-80 3 0 3 4 0 2-2 3-17 14-41 56t-53 112q83-16 134-80 28-36 28-70 0-22-11-36t-30-14q-25 0-53 24t-55 79q-5 10-16 35t-27 66m-9 82l8-23q-3-3-4-6t-2-5q0-4 5-12t11-8h1q2-4 3-9t4-10q-11 1-21 0-7 17-13 31t-12 26q4 3 9 7t11 9m193 61q-20 0-20-20 0-19 27-53 25-32 44-44t34-12q19 0 19 11 0 3-5 7t-5 6q-10 16-10 63 0 28 12 28 11 0 26-13t27-29q1-2 2-2 2 0 2 3 0 1-1 3t-1 4q-21 28-36 37t-28 10q-23 0-22-48-10 17-28 32-21 17-37 17m14-14q8 0 18-7 29-23 38-88-1 0-2 0-10 0-26 12-14 9-23 20-20 26-20 45 0 18 15 18m167 12q-22 0-22-35 0-16 6-31 0 0-4 6t-10 14q-1 2-4 2-1 0-1-2t-1-2q0-2 4-6 11-15 19-26t17-20q5-5 10-5 7 0 7 6 0-1-4 6t-11 22q-14 31-14 47 0 13 11 13 11 0 22-10t19-24 13-29q0-2-1-6t-1-10q-2-9-2-15 0-22 18-28 4-2 6-2 8 0 8 13 0 22-13 47 0 20 9 34t24 14q10 0 21-7t21-20q1-1 3-1 2 0 2 3t-3 6q-6 9-19 18t-27 9q-14 0-26-12t-16-29q-2 7-8 18t-16 21q-11 11-20 16t-17 5m193-153q-6 0-11-6t-5-11q0-14 16-14 15 0 15 14 0 17-15 17m-6 156q-17 0-29-12t-11-34q0-28 15-56 6-11 19-11 8 0 8 5 0 2-1 5-18 33-18 57 0 18 6 26t18 8q17 0 35-14t34-32q1-2 4-2 2 0 2 2 0 1-2 4t-3 5q-6 9-15 18t-21 17q-10 6-21 10t-20 4m123-3q-5 0-11-1-15-4-33-20-20-19-20-32 0-11 8-11 7 0 13 8 17-14 33-32t28-40l11-19q1-2 3-2 5 0 10 6t6 11q0 4-6 13-7 8-7 17 0 3 1 10t0 12q0 46-15 68 3 0 7 0t7 1q20 0 33-4t23-13 23-26q2-2 4-2t2 3q0 1-2 4t-2 3q-18 25-37 35t-49 10q-9 0-18-2-5 3-12 3m0-18q16-3 16-42 0-10-1-21t-2-21q-18 27-51 54 15 20 38 30m124 27q-6 0-13-5t-6-10q0-16 13-57 19-63 48-117 43-82 81-82 24 0 24 39 0 29-42 72l-65 60q-3 3-8 8t-9 11q-4 6-11 24-6 18-6 25 0 5 3 9 1-1 5-5t13-10q48-41 71-41 4 0 7 8t7 22q9 31 27 31 16 0 42-25 5-5 9-10t9-10q3-4 5-4 3 0 2 4-1 2-2 4t-3 4q-10 14-20 25-12 12-25 19t-24 7q-10 0-20-7t-16-19q-14-27-21-27-9 0-24 10t-33 32l-12 14q-3 1-6 1m27-101q17-12 34-28t35-34q43-49 43-76 0-16-12-16-34 0-89 127-11 23-11 27m223 97q-51 0-51-75 0-73 48-158 47-85 89-85 15 0 20 20v7q0 36-55 121-24 37-45 65t-38 46q6 45 41 45 22 0 37-12t32-33q3-3 4-3 1 0 1 2 0 4-3 9-22 28-41 39t-39 12m-32-71q27-27 71-105 46-84 46-115 0-14-8-14-31 0-71 89-18 44-28 80t-10 65m2 292q-33 0-51-16-20-17-20-48 0-100 267-168 3-24 4-45t2-37q-4 10-8 20t-10 18q-7 14-24 29-20 16-32 16-10 0-17-11-5-9-5-20 0-17 8-38 9-27 23-27 5 0 6 6-20 32-20 58 0 15 12 15 22 0 46-41 22-36 22-61 0-8 12-8 9 0 9 10 0 18-2 46t-5 67q6-2 15-3t17-2q19 0 19 6 0 2-3 2-2 0-7 0t-10 0q-5 0-16 2t-17 4q-19 144-125 202-23 12-45 18t-45 6m15-14q45 0 72-16 91-52 108-193-252 67-252 154 0 55 72 55m485-143q-44 0-85-25-36-23-56-55-22-37-22-50 0-10 8-10 4 0 6 3 16 38 41 60 34 31 76 31 14 0 25-6 2-2 3 1 1 2-2 4-13 7-32 7-9 0-20-2-44-6-69-42 54 76 120 76 64 0 129-73 29-32 87-154 57-121 83-151 25-30 52-30 15 0 24 12 2 3 2 6 0 8-6 8-3 0-4-3-7-14-18-14-19 0-39 32-3 5-22 42t-51 106q-56 115-94 157-63 70-136 70m131-123q-2-10-10-17l-14-7q-3-3-5-9t-2-10q1-1 1-2t1-2q12 6 27 18l2 15q1-6 1-13t1-13q0-49-27-96-25-44-66-74-46 11-61 49 1 4 2 8t3 11q0 22-13 77-4 2-6 2-9 0-14-18l12-32q8-22 8-43 0-13-3-25h1q2 0 7 11 16-33 46-51-20-12-40-16t-38-4h-2q-7 0-7-4 0-6 9-7 2 0 5 0t4 0q39 0 79 26 11-5 20-6 2 0 4 0t5 0q33 0 59 24 46 44 50 163 0 3-7 6t-11 4q-1 0-1-1-2-95-40-143-14-18-29-25t-29-8h-1q19 16 34 35t27 42q25 46 25 91 0 22-7 44m107 62q-18 0-18-27 0-7 1-16t4-18q5-17 15-39 15-31 25-31 10 0 16 10 4-1 6-1 14 0 14 21 0 9-3 21t-12 30q12 11 24 11 10 0 18-5t19-18q1-1 3-1 2 0 2 3t-3 6q-6 9-16 15t-24 7-26-10q-19 42-45 42m42-57q4-9 6-18t2-21q0-17-10-17-10 0-10 19 0 8 4 19t8 18m-33 43q7 0 18-14 4-5 7-11t4-8q-7-8-13-18t-6-19q-6 5-13 26t-6 30q0 14 9 14m202 7q-14 0-20-11t-5-30q0-2 0-5t0-5q-7 14-24 28-19 17-33 17-9 0-16-11-5-10-5-20 0-17 8-38 9-27 23-27 5 0 6 6-20 34-20 54 0 19 12 19 26 0 56-55 1-3 3-7t5-9q2-5 14-5 4 0 4 3l-6 16q-4 11-5 21t-2 18q0 28 13 28 10 0 25-13t27-29q2-2 3-2 2 0 2 4t-3 6q-20 27-35 37t-27 10m140 0q-18 0-18-22 0-12 9-30 9-20 9-29 0-7-5-10t-12-7q-5-2-10-6t-9-7q-4 8-16 26t-26 38q-2 3-4 3t-2-4 4-7q4-5 12-17t15-24 11-23q-2-9-4-15t-1-12q0-10 6-19t15-8q14 0 14 16 0 17-14 36 2 3 5 5t10 5q3 1 6 2t6 0q4 0 7 0t5-1q3 0 7 3t4 10q0 4 0 5t-3 8-8 20q-10 26-10 37 0 14 10 14 10 0 25-13t27-29q2-2 3-2 2 0 2 4t-3 6q-20 27-36 37t-31 10m112-1q-5 0-10-1-15-4-34-20-20-19-20-32 0-11 9-11 6 0 12 8 18-14 33-32t29-40l11-19q0-2 3-2 5 0 10 6t5 11q0 4-6 13-6 8-6 17 0 3 0 10t1 12q0 46-15 68 3 0 6 0t8 1q20 0 32-4t24-13 23-26q1-2 3-2t2 3q0 1-1 4t-2 3q-18 25-37 35t-49 10q-10 0-19-2-5 3-12 3m1-18q16-3 16-42 0-10-1-21t-3-21q-18 27-50 54 15 20 38 30" />
</svg>