<svg id="fnt-Lemonada" viewBox="0 0 2979 1000" xmlns="http://www.w3.org/2000/svg"><path id="lemonada" class="f" d="M90 680q-19 0-27-10t-9-31q0-14 2-35t6-52 12-80 19-117l-16-30q16-10 32-16t28-5q22 0 22 26 0 4-3 20t-6 38-8 51-9 55-9 54-6 45-2 30q0 12 6 21t18 17q-26 19-50 19m95-1q-29 0-56-7t-45-17l17-26h95q16-2 29-5t25-8q3 8 4 12t1 10q0 21-17 31t-53 10m239 0q-53 0-83-32t-30-90q0-41 13-76t38-60 58-40 72-14q39 0 61 18t23 53q0 36-26 61t-74 38-118 14l6-28q75 0 116-23t41-63q0-18-10-28t-28-11q-22 0-42 13t-36 34-24 52-8 63q0 40 15 63t41 23q32 0 53-21t22-54q19 0 30 7t11 23q0 20-16 38t-44 29-61 11m259 0q-18 0-26-9t-8-26q0-11 2-31t8-44 10-53 12-53 11-46l-22-25q12-11 28-18t29-6q15 0 21 6t6 22q0 13-4 29t-11 31l5 2q26-50 57-71t66-20q32 0 46 17t14 46q0 5-1 12t-3 14l5 2q28-50 59-71t67-20q33 0 49 16t16 50q0 23-6 48t-12 52-12 53-5 53q0 8 1 15t5 11q-15 14-31 14-18 0-27-9t-8-27q0-21 5-47t11-53 11-52 5-41q0-19-7-30t-24-11q-20 0-43 17t-42 47-32 73-12 93q0 8 1 15t5 11q-14 14-31 14-18 0-26-9t-8-27q0-21 4-47t12-53 11-52 5-41q0-19-8-30t-23-11q-21 0-44 17t-42 47-32 73-12 93q0 8 2 15t4 11q-14 14-31 14m633 0q-37 0-64-16t-42-46-14-69 12-74 37-57 55-37 71-13q10 0 19 0t19 4q4 5 5 10t2 13q-51 0-87 21t-53 55-18 81q0 44 16 69t47 26q30 0 54-17t38-47 20-71q-21-13-30-29t-9-36q0-13 5-23t14-16 21-5q23 0 36 20t13 57q0 42-13 78t-36 64-53 43-65 15m288 0q-17 0-26-8t-8-27q0-11 3-35t10-56 14-68 16-68l-22-25q12-11 28-18t29-6q15 0 21 6t6 22q0 13-4 29t-11 31l5 2q25-44 57-68t74-23q32 0 48 16t16 50q0 23-6 48t-12 52-12 53-5 53q0 18 6 26-15 14-32 14t-25-8-8-27q0-21 4-47t11-54 11-51 5-42q0-21-8-31t-22-10q-22 0-43 13t-37 36-30 52-21 62-7 67q0 19 6 26-15 14-31 14m422 0q-27 0-48-14t-32-41-11-62q0-42 14-77t41-62 61-42 76-14q23 0 47 4 3 5 4 11t2 12q-44 0-78 13t-58 35-36 53-12 65q0 34 14 53t40 19q46 0 76-59t45-179q6-7 14-11t18-4q13 0 20 6t7 17q0 16-6 41t-13 57-14 67-6 72q0 18 9 26-8 8-16 11t-17 3q-17 0-26-10t-9-31q0-6 1-14t2-16l-5-2q-18 35-45 54t-59 19m373 0q-27 0-47-14t-32-41-12-62q0-39 15-72t41-58 61-39 75-14q27 0 47 4 3 5 5 11t1 13q-42 0-76 11t-58 32-37 48-12 62 14 53 39 19q18 0 36-11t34-31 25-48l-4 68-10-4q-18 35-46 54t-59 19m139 0q-15 0-23-10t-8-29q0-9 2-29t6-48 9-59 10-64 11-62 9-52l-22-25q13-10 29-16t29-6q14 0 20 6t6 22q0 12-5 36t-13 56-15 71-13 80-5 85q0 9 3 17t8 13q-8 7-17 10t-21 4m235 0q-27 0-47-14t-32-41-12-62q0-42 15-77t41-62 61-42 75-14q23 0 47 4 3 5 5 11t1 12q-43 0-77 13t-58 35-36 53-12 65q0 34 14 53t39 19q47 0 77-59t45-179q5-7 14-11t18-4q12 0 19 6t8 17q0 16-6 41t-14 57-13 67-6 72q0 18 9 26-8 8-17 11t-17 3q-17 0-26-10t-9-31q0-6 1-14t3-16l-5-2q-18 35-46 54t-59 19" />
</svg>