<svg id="fnt-Libre Baskerville" viewBox="0 0 4291 1000" xmlns="http://www.w3.org/2000/svg"><path id="libre-baskerville" class="f" d="M353 568l-7 99h-323v-19q17-1 28-3t17-9 8-17 2-28v-233q0-18-2-29t-7-17-15-8-26-3v-19h152v19q-16 0-26 3t-15 9-7 18-2 30v216q0 21 4 34t15 20 27 10 43 3q29 0 48-3t33-12 21-23 13-38h19m125-171v190q0 20 1 31t7 19 14 9 24 3v18h-143v-18q15 0 24-3t15-9 7-18 2-28v-64q0-29-1-48t-3-26q-2-11-11-16t-34-4v-17l98-19m-58-102q0-13 9-22t22-9 22 9 9 22-9 22-22 9-22-9-9-22m209 223v44q0 19 5 35t15 27 24 18 30 6q17 0 31-8t25-23 16-35 6-46-6-47-17-37-25-23-32-9q-21 0-37 10t-24 27q-11 22-11 61m-1-266v185h2q16-21 35-31t45-9q27 0 50 10t40 29 27 44 10 54q0 30-10 55t-27 44-41 29-51 10q-28 0-53-10t-41-29l-23 34h-11v-302q0-51-7-65-1-3-3-6t-6-4-11-3-19-3v-12l94-20m344 318v17q0 21 1 33t5 18 13 8 22 3v18h-133v-18q15 0 23-3t13-8 6-17 1-30v-59q0-34-1-53t-5-28-13-11-25-1v-18l88-19 7 62h2q6-15 16-27t21-22 24-13 26-5q16 0 25 7t9 21q0 12-7 19t-22 7q-8 0-13-2t-10-5-8-4-8-2q-14 0-27 17t-21 44q-4 15-7 33t-2 38m368 36l15 14q-42 52-105 52-30 0-54-10t-41-28-27-42-9-55q0-30 10-56t28-45 43-29 56-10q48 0 75 26t26 75q0 7-3 9t-12 1h-165q-1 4-1 10t-1 13q0 26 6 47t18 36 28 23 37 9q21 0 39-10t37-30m-159-121h92q10 0 16 0t9-2 4-5 1-7q0-23-15-37t-40-13q-54 0-67 64m542 182h-180v-19q20-1 31-3t18-9 9-17 2-28v-233q0-18-2-29t-7-17-15-8-26-3v-19h150q67 0 105 24t37 67q0 33-21 54t-65 35v2q15 1 27 3t20 5 17 7 15 9q45 31 45 79 0 26-15 49t-41 36q-9 4-18 7t-21 4-28 3-37 1m2-22q90 0 90-77 0-57-46-79-8-4-16-6t-17-4-24-2-34 0h-22v111q0 31 16 44t53 13m-69-193h28q15 0 26-1t18-2 13-3 12-6q16-10 22-24t7-37q0-39-19-57t-60-17h-39q-8 0-8 9v138m426 106v-39q-28 11-48 21t-32 21-17 21-5 22q0 16 11 27t29 10q13 0 24-6t20-18 13-27 5-32m-72-29l72-32v-20q0-61-52-61-8 0-14 1t-10 5-8 10-6 16q-5 15-11 19t-15 5q-25 0-25-25 0-24 26-37t72-13q50 0 71 17t21 61v112q0 57 23 57 7 0 13-2t11-9l7 12q-6 11-22 19t-33 8q-22 0-33-14t-11-40h-2q-13 25-36 39t-51 14q-32 0-50-16t-18-43q0-12 4-23t14-21 25-20 38-19m228 120l-10 18h-11v-86h12q20 70 71 70 20 0 32-10t12-29q0-8-3-13t-8-11-18-13-29-19q-17-11-30-20t-21-18-13-20-4-24q0-17 6-32t16-24 23-16 30-5q13 0 28 4t25 11l10-10h10v72h-13q-11-31-24-44t-32-13q-17 0-28 9t-10 25q0 9 3 15t9 12 15 12 22 15q22 13 37 24t25 20 14 22 4 25q0 35-23 55t-60 21q-39 0-67-23m348 18v-18q16 0 22-1t7-4q-1-4-8-15t-20-25l-53-64-18 18v29q0 20 1 31t7 19 14 9 24 3v18h-142v-18q15 0 24-3t15-9 7-17 2-29v-210q0-38-1-57t-5-27-15-8-28-1v-17l97-19v274l46-45q23-23 34-34t11-16-11-9-30-3v-17h130v17q-9 0-16 1t-14 4-13 8-16 14l-72 64 99 112q7 8 13 13t11 9 13 4 16 1v18h-131m361-61l15 14q-42 52-105 52-30 0-54-10t-41-28-27-42-9-55q0-30 10-56t28-45 43-29 56-10q48 0 75 26t26 75q0 7-3 9t-12 1h-165q-1 4-1 10t-1 13q0 26 6 47t18 36 28 23 37 9q21 0 39-10t37-30m-159-121h92q10 0 16 0t9-2 4-5 1-7q0-23-15-37t-40-13q-54 0-67 64m311 85v17q0 21 1 33t5 18 12 8 23 3v18h-133v-18q14 0 23-3t13-8 5-17 2-30v-59q0-34-1-53t-5-28-13-11-25-1v-18l87-19 7 62h2q7-15 16-27t22-22 24-13 25-5q16 0 25 7t10 21q0 12-8 19t-21 7q-8 0-14-2t-10-5-8-4-8-2q-13 0-27 17t-21 44q-4 15-6 33t-2 38m264 102l-85-208q-6-15-11-24t-10-13-12-6-16-2v-17h132v17q-10 1-16 1t-11 2-5 5-1 10q0 8 2 16t5 15l53 145h2l45-108q11-25 15-40t5-26-6-16-26-4v-17h99v17q-8 0-14 4t-12 10q-4 6-8 15t-9 19-7 20-7 16l-73 169h-29m282-275v190q0 20 2 31t7 19 14 9 24 3v18h-144v-18q15 0 25-3t14-9 7-18 2-28v-64q0-29-1-48t-2-26q-3-11-12-16t-34-4v-17l98-19m-57-102q0-13 9-22t22-9 22 9 9 22-9 22-22 9-22-9-9-22m218-43v337q0 19 2 30t6 18 13 9 24 3v18h-138v-18q15 0 24-3t14-9 7-17 2-28v-215q0-27-1-46t-2-24q-3-12-12-16t-33-4v-17l94-18m163 0v337q0 19 1 30t6 18 14 9 23 3v18h-138v-18q15 0 24-3t14-9 7-17 2-28v-215q0-27-1-46t-2-24q-2-12-12-16t-33-4v-17l95-18m303 354l16 14q-43 52-106 52-29 0-53-10t-42-28-26-42-10-55q0-30 10-56t28-45 44-29 55-10q49 0 75 26t27 75q0 7-3 9t-13 1h-164q-1 4-2 10t0 13q0 26 6 47t18 36 28 23 36 9q21 0 39-10t37-30m-159-121h92q10 0 16 0t9-2 4-5 1-7q0-23-15-37t-40-13q-54 0-67 64" />
</svg>