<svg id="fnt-Libre Franklin" viewBox="0 0 3108 1000" xmlns="http://www.w3.org/2000/svg"><path id="libre-franklin" class="f" d="M49 303q0-7 6-7h36q6 0 6 6v323q0 5 5 5h173q6 0 6 5v26q0 3-2 4t-4 2h-219q-4 0-6-2t-1-5v-357m333 105v250q0 5-2 7t-7 2h-26q-4 0-6-2t-1-5v-251q0-7 6-7h30q6 0 6 6m2-105v42q0 9-9 9h-29q-5 0-6-2t-2-6v-42q0-8 7-8h32q7 0 7 7m99 364h-16q-4 0-6-2t-2-6v-356q0-7 6-7h31q5 0 5 7v122q0 6 2 6t6-3q4-4 14-12t27-13 39-6q36 0 60 18t35 48 12 70q0 64-30 101t-84 38q-23 0-40-7t-26-17-16-16q-2-2-3-2t-2 4l-3 25q-1 8-9 8m18-203v113q0 18 10 33t27 23 35 9q22 0 40-12t29-35 10-61q0-51-19-79t-57-28q-23 0-43 11t-32 26m265 203q-4 0-6-2t-1-5v-252q0-6 5-6h29q6 0 6 5v33q0 3 1 3t4-2q13-15 26-25t26-15 26-4q17 0 17 6v30q0 5-4 4-5 0-11-1t-12 0q-11 0-23 4t-24 14-17 19-7 21v165q0 8-8 8h-27m206-116q0 24 11 44t32 33 44 12q25 0 45-11t33-31q2-2 3-2t4 1l21 10q5 3 1 7-13 20-30 33t-36 19-45 6q-37 0-65-17t-45-48-17-70q0-44 17-75t45-48 65-17q36 0 63 16t42 46 15 74q0 3-1 7t-6 3h-192q-2 0-3 2t-1 6m1-35h152q5 0 7-2t1-5q0-22-9-41t-27-30-41-11q-27 0-46 12t-28 34-9 43m378-213q0-7 6-7h220q5 0 5 5v26q0 6-6 6h-170q-7 0-7 6v123q0 5 6 5h133q6 0 6 5v27q0 4-6 4h-133q-6 0-6 6v151q0 7-7 7h-34q-4 0-5-2t-2-5v-357m270 364q-4 0-6-2t-1-5v-252q0-6 5-6h29q6 0 6 5v33q0 3 1 3t4-2q13-15 26-25t26-15 26-4q17 0 17 6v30q0 5-4 4-5 0-11-1t-12 0q-11 0-23 4t-24 14-17 19-7 21v165q0 8-8 8h-27m334-32q-19 18-41 27t-48 10q-39 0-62-20t-22-53q0-26 15-46t45-30 72-14l39-3q3 0 6-2t2-5v-14q0-27-17-43t-45-15q-22 0-40 10t-31 30q-2 2-4 3t-4 0l-27-9q-1-1-2-3t1-5q15-26 42-41t67-15q34 0 56 10t33 29 12 46v177q0 5-2 6t-5 2h-25q-4 0-5-3t-2-5l-1-23q-1-7-7-1m6-95q0-9-7-8l-33 3q-23 1-41 5t-30 13-19 17-7 24q0 22 15 34t42 13q16 0 30-6t26-15q12-9 18-19t6-20v-41m122 127q-7 0-7-7v-252q0-6 6-6h30q5 0 5 5v29q0 3 1 3t4-1q16-13 30-23t30-14 32-4q39 0 59 21t21 54v187q0 8-7 8h-28q-4 0-5-2t-2-5v-178q0-25-12-39t-40-13q-14 0-27 4t-26 14-29 22v189q0 8-7 8h-28m514-8q2 3 1 5t-5 3h-35q-3 0-6-2t-3-4l-76-130q-1-2-2-3t-4 2l-53 54q-2 2-3 4t0 6v64q0 5-2 7t-7 2h-26q-5 0-6-2t-1-5v-357q0-7 5-7h31q6 0 6 6v232q0 4 1 5t4-3l123-128q6-6 11-6h30q5 0 6 2t-3 7l-79 81q-2 1-2 3t1 5l94 159m96-357v356q0 5-2 7t-7 2h-26q-8 0-8-7l1-357q0-7 6-7h30q6 0 6 6m119 106v250q0 5-2 7t-7 2h-26q-4 0-6-2t-1-5v-251q0-7 6-7h30q6 0 6 6m2-105v42q0 9-9 9h-29q-5 0-6-2t-2-6v-42q0-8 7-8h32q7 0 7 7m82 364q-7 0-7-7v-252q0-6 6-6h30q5 0 5 5v29q0 3 1 3t4-1q16-13 30-23t30-14 32-4q39 0 59 21t21 54v187q0 8-7 8h-28q-4 0-5-2t-2-5v-178q0-25-12-39t-40-13q-14 0-27 4t-26 14-29 22v189q0 8-7 8h-28" />
</svg>