<svg id="fnt-Life Savers" viewBox="0 0 2281 1000" xmlns="http://www.w3.org/2000/svg"><path id="life-savers" class="f" d="M235 667h-214q-8 0-10-2-2-1-2-4 0-8 18-8 10 0 20-1t18-4 8-10q0-19 0-48t0-63 1-68q0-34-1-59t-1-44q0-18-1-34t0-32q0-9-8-13t-17-5-16-1q-6 0-12-1t-7-6q0-6 7-7t12-1h91q16 0 21 2 4 2 4 6 0 5-6 6t-12 1q-4 0-12 1t-15 3-7 9v365h121q8 0 13-4t7-12q1-5 1-16t2-26 1-26 2-19 0-4q0-12 2-18t7-7q3 0 6 2t4 8q0 7-1 23t-3 36-2 38-2 28q-1 9-5 12t-12 3m104-269q-7 0-12-6t-5-15q0-6 5-13t16-8q7 0 12 5t5 14q0 13-7 18t-14 5m58 269h-79q-6 0-12-1t-11 0q-12-1-12-5 0-5 32-7 11-1 16-3 4-3 4-8 2-19 2-42t0-41q0-23 0-44t-2-44q-1-8-7-8-12 0-23 1t-19 1q-4 0-9-1t-5-4 7-7q7-2 25-3 11-1 24-2t20 0q6 0 8 4t1 13v187h31q11 0 18 1 6 2 6 6 0 5-5 6t-10 1m31 0q-4 0-7-1t-5 0q-5-1-5-5t5-5 11-1q10-1 17-2t11-2q8-1 9-7 3-43 3-86 0-12 0-24t-1-24 0-24 0-24q0-7-2-10t-5-3h-33q-9 0-12-3-3-2-3-5 0-5 4-5 2-1 5-1t7 0h32q4 0 5-4t1-10q1-19 4-47t12-56q10-28 30-46t52-18q25 0 38 9t20 22 6 23q0 11-6 18t-14 7q-7 0-12-4t-4-13 7-14q8-5 8-10 0-8-9-17t-31-8q-29 0-46 17t-23 42q-8 27-9 53t-1 46q0 3 0 5t1 3q0 2 3 2h39q5 0 9 2t4 6-4 6-10 1q-10 0-19 0t-14-1q-6 0-8 2t-1 4v197h54q15 0 15 7 0 4-4 5-4 2-17 2-12 0-27 0t-28-1q-11 0-23 0t-21 1-8 1m247 5q-36 0-60-16t-35-43-11-59q0-37 14-65t38-45 55-16q24 0 41 10t28 23 16 29 5 25q0 8-4 14t-13 7q-7 1-15 1t-17 0h-39q-18 0-42 0t-43 0q-1 6-1 11t0 10q0 24 8 46t26 37 48 15q27 0 45-12t28-30 9-41q0-9 9-9t8 9q0 27-13 49t-35 36-50 14m0-228q-25 0-42 12t-26 29-12 37l141-2q9 0 9-9 0-13-8-29t-22-27-40-11m258 231q-5 0-7-4t-3-8q0-4 1-13t1-20 0-17q0-12 0-25t-1-24q0-7 2-12t8-5q7 0 9 9t2 21q0 21 13 40t37 31 59 12q24 0 45-8t36-23 14-35q0-13-10-23t-24-20-33-16-33-14-26-11q-17-8-34-18t-31-25-22-36-8-51q0-28 12-52t30-42 42-28 45-10q37 0 62 20t41 63q-3-32-3-47-1-7-1-11t0-4q0-13 9-13 5 0 8 4t2 8q0 8 0 17t-1 19-1 18 0 19q0 8 0 15t1 12 0 13 0 15q0 7-1 12t-8 5q-7 0-9-10t-2-20q-4-54-29-87t-66-33q-23 0-43 10t-35 27-24 39-8 45q0 34 11 54t31 32 38 21q18 9 39 16t46 22q23 12 39 28t16 37q0 23-11 38t-30 25-37 13-36 5q-21 0-43-6t-41-17-30-31q0 6 0 11t1 10q0 2 0 3t0 4v7q0 4 1 6 0 13-10 13m352-3q-35 0-56-16t-21-42q0-28 23-46t61-18q19 0 37 6t33 17v-16q0-3 0-6t0-7v-9q0-39-14-61t-47-21q-15 0-28 4t-22 12-8 19q0 6 3 7t7 3 8 3 4 10q0 8-5 13t-13 5q-11 0-18-10t-6-22q0-18 11-31t30-21 41-7q40 0 58 23t19 72q0 1 0 14t-1 29 0 30q0 29 4 40t18 11q14 0 17-9t4-19q1-6 5-6t5 3 2 8q0 22-10 30t-24 8q-13 0-24-7t-15-22q-16 14-36 22t-42 7m2-15q20 0 37-7t27-18 11-24q0-19-20-31t-47-12q-28 0-47 13t-19 36q0 20 16 31t42 12m252 17q-7 0-11-12-4-12-7-23t-7-20q-6-18-11-33t-9-29q-5-16-13-40t-17-45q-5-15-17-18t-26-3q-14 0-14-6 0-5 13-5 31 0 50 0t28 0q17 0 17 6 0 4-5 5-3 0-6 1t-7 1q-14 0-14 6 0 7 7 27 8 24 20 61t30 89q16-44 27-75t17-49q11-30 11-36 0-6-6-7-3-1-9-1t-14 0q-11 0-11-6 0-5 10-6 5 0 14-1t24 0q28 0 46 1t18 6q0 4-7 5-4 1-9 1t-11 1q-10 1-14 4t-8 9q-7 11-17 37t-21 59q-13 38-21 58t-8 25q-6 13-12 13m246-2q-36 0-60-16t-35-43-11-59q0-37 14-65t38-45 55-16q24 0 41 10t28 23 16 29 5 25q0 8-4 14t-13 7q-7 1-15 1t-17 0h-39q-18 0-42 0t-43 0q-1 6-1 11t0 10q0 24 8 46t26 37 48 15q27 0 45-12t28-30 9-41q0-9 9-9t8 9q0 27-13 49t-35 36-50 14m0-228q-25 0-42 12t-26 29-12 37l141-2q9 0 9-9 0-13-8-29t-22-27-40-11m138 223q-4 0-8-2t-3-5q0-3 8-5 4-1 9-2t12-2q9 0 11-2t3-11q2-8 3-21t1-32q1-21 1-50t0-71q0-7-7-7h-50q-5 0-7-3t-3-4q0-3 11-5t26-3 30-1q13 0 17 3t5 16v25q24-35 60-35 19 0 30 10t11 32q0 13-5 25t-19 12q-9 0-13-5t-4-11q0-9 5-13t10-7 5-11q0-8-6-13t-17-4q-11 0-26 7t-24 25-10 48v106h22q13 0 22 1t15 2q10 2 10 6 0 3-3 5t-7 2q-11 0-26-1t-28-1-15 0q-6 0-12 0t-11 1q-5 0-11 0t-12 1m200 15q-4 0-6-3t-2-9q0-2 0-6t0-8 1-9 0-7q0-5-1-11t0-11-1-11 0-10q0-16 7-16 7 0 9 18 1 17 4 27t12 18q12 10 26 14t30 5q12 0 26-4t23-14 10-27q0-16-9-24t-26-14-40-10q-32-7-49-22t-18-43q0-24 12-39t29-21 39-7q28 0 42 10t20 23q0-7-1-14t0-11q0-10 2-13t6-4q5 0 7 4t2 9q0 15 0 27t0 23-1 16 0 9q0 5-2 9t-6 4-6-4-2-8q-1-2-1-5t0-5q0-5-3-12-5-18-18-30t-41-12q-25 0-43 11t-17 40q0 17 8 26t23 15 40 11q22 5 38 11t25 17 9 30q0 21-10 33t-22 19-27 9-21 2q-13 0-27-4t-26-10-16-16q0 2 0 4t0 5v7q0 8-1 13t-7 5" />
</svg>