<svg id="fnt-Lily Script One" viewBox="0 0 3125 1000" xmlns="http://www.w3.org/2000/svg"><path id="lily-script-one" class="f" d="M194 623q5 2 12 2t13-1 11-8 9-9 7-15q6-14 14-40 21 20 25 30-24 88-85 88-28 0-72-37-23 37-72 37-21 0-39-15t-17-41 18-45 47-17q5 0 15 1l7-63q-22 7-68 18v-38q38-8 72-19l10-81q11-84 85-84 30 0 47 16t18 46q0 71-91 115l-15 118-1 5q37 33 50 37m20-271q0-21-18-21-21 0-26 50l-5 39q49-29 49-68m-176 258q0 15 17 15 17 0 21-29-10-4-18-4t-14 5-6 13m249-312q11-11 28-11t28 11 12 29-12 28-28 11-28-11-12-28 12-29m-21 147q5-9 19-14t28-4 24 3q-19 151-19 152-3 10-3 17t1 12q2 13 18 13t30-22 21-48q4 2 11 12t9 15q-10 40-34 65t-57 24-50-16-16-43q0-5 0-11l18-155m165 225q-30 0-48-17t-17-47q0-8 27-238 7-59 37-74 14-8 34-8 66 0 66 61 0 5-1 11-5 67-84 136-2 25-5 48-6 51-6 57 0 26 22 26 25 0 46-29t33-72q4 2 12 8t11 12q-8 42-36 80-14 19-35 32-25 14-56 14m21-241l-1 15q46-50 46-90 0-24-18-24-12 1-16 15t-7 45-4 39m151 386q-28 0-49-17t-20-50q0-41 41-79-29-3-47-19t-17-47q0-14 3-42t8-60 8-69q16-6 29-6t19 1 13 8 6 18l-17 128q-1 8-1 11 0 29 27 29 25 0 40-23 2-11 8-66t10-85q4-10 18-15t24-6q16 0 29 4l-24 185q59 10 70 80-2 10-19 30-10-62-55-76l-8 63q-5 45-28 74t-68 29m-30-77q0 17 8 25t21 8 20-11 11-44l7-55q-66 34-67 77m527-323h-37q15-23 15-42t-11-31-29-12-29 9-11 27 26 68 33 62q19 38 19 74 0 44-33 72t-76 28-68-28-25-63q0-68 83-112-34-67-34-93 0-37 30-63t73-26 66 22 23 56q0 23-15 52m-168 195q13 14 32 14t30-11 11-33q0-20-15-49-2-4-8-15t-8-15q-56 29-56 73 0 22 14 36m339-113q0-32-29-32-22 0-39 24-18 27-18 62t16 55 43 19q33 0 70-27t59-67q10 8 20 28-15 29-54 65-21 19-51 32-33 14-66 14-45 0-76-31t-30-79q0-60 40-97t89-37q39 0 61 16t23 42q0 17-12 30-22 22-54 22 8-25 8-39m225-5q0-22-20-22t-32 26q54 42 54 95 0 39-22 59t-54 20-47-21-15-51q0-9 0-14l18-152q18-6 36-6 31 0 31 23v1q20-24 51-24 22 0 35 10t12 28-13 27-33 11q-1 0-2 0 1-5 1-10m-31 97q0-29-30-58-9 72-9 72 0 21 17 21 22 0 22-35m128-291q11-11 28-11t28 11 12 29-12 28-28 11-28-11-12-28 12-29m-21 147q5-9 19-14t28-4 24 3q-19 151-19 152-3 10-3 17t1 12q2 13 18 13t30-22 21-48q4 2 11 12t9 15q-10 40-34 65t-57 24-50-16-16-43q0-5 0-11l18-155m153-19q33 0 38 16 24-16 60-16t62 29 26 69q0 6-1 12-5 65-44 99t-100 35q-14 0-31-4l-16 138h-65q32-276 43-374 10-4 28-4m115 102q0-22-10-39t-31-17q-28 0-43 37-10 74-12 86 0 15 10 22t24 8q26 0 42-23 20-29 20-74m208-209q0 3-14 107h74v39h-79l-1 12q58 49 58 107 0 46-23 66t-56 20-47-18-15-41q0-6 1-12l15-133-2-1h-40q-1-5-1-17t5-22h43l16-136q10-4 28-4 38 0 38 33m5 265q0-35-30-68-9 74-9 86 0 22 14 22 11 0 18-10t7-30m599-148l11 30q-12 12-38 22t-43 10-23-1q-12 74-64 123t-119 50-102-42-34-110q0-44 14-86t37-74 60-52 75-20 64 18 26 49q0 24-17 43t-46 19q-16 0-28-8t-12-25q0-8 4-14t8-7l5-2q0 20 16 20 7 0 13-6t6-11-1-11-4-8q-7-13-29-13-30 0-56 28t-43 72-15 90q0 39 12 69 7 16 21 25t32 9q32 0 56-26t37-64 12-76v-6q-2-6-2-11 0-24 17-36 11-8 28-8 4 0 14 1t14 5q-10 0-16 7t-6 17 10 21q14 13 44 13t62-24m81 175l12-112q0-13-7-22t-24-9-27 14-14 36q-18 137-19 149h-68l28-236q21-5 32-5 33 0 35 24 24-24 58-24t54 17 20 43q0 7-3 27-12 76-12 88 0 23 16 23 34 0 51-71 17 18 21 29-27 88-92 88-31 0-46-19t-15-40m210-56q31-7 46-25t15-36-9-24-20-6q-24 0-42 26t-17 63 17 54 43 18q37 0 72-26t56-68q11 10 20 26-17 37-59 73-21 18-50 29t-59 11q-50 0-79-31-31-33-31-84t39-90 93-39q38 0 62 17t25 45q0 39-31 63t-84 33l-7-29" />
</svg>