<svg id="fnt-Linden Hill" viewBox="0 0 2177 1000" xmlns="http://www.w3.org/2000/svg"><path id="linden-hill" class="f" d="M31 353h-17l0-20h128v20h-22q-14 0-17 2t-3 4q-2 3-2 13v252q0 16 6 18 4 2 11 2 126-1 133-8 3-4 5-12t3-15 2-12 3-15l17 1-16 84h-241l-1-20h14q17 0 19-2t3-3 1-4q0-3 0-10v-258q0-11-5-14t-21-3m275 141l0-15q37-6 70-15v173q0 10 4 11 6 3 27 3h9v16h-109v-16h5q23 0 25-2 4-4 4-10v-133q0-10-2-13t-7-3-26 4m57-102q-5 0-13-8t-7-15 8-13 13-7 13 8 8 13-8 14-14 8m219 143q0-21-8-29t-27-9-52 16v126q0 6 3 8t5 2 5 1q5 1 17 1h7l-1 16h-98l0-16q6 0 11 0t7-1 4 0 3-2 1-2 1-3 0-4v-124q0-16-1-21t-6-4q-1 0-19 4v-16l61-12q-1 19-1 35 2-1 7-4t12-9 15-9q19-10 35-10t24 3 12 6 9 11 5 12 3 16q1 12 1 33v86q0 10 5 12t25 3l0 16h-93l-1-16h12q13 0 14-3 3-5 3-12v-101m244 145l1-37q0-6-1-8-30 38-74 38-37 0-63-27-26-28-26-72 0-22 8-42t23-33q30-30 66-30t65 22v-149q0-14-7-14-4 0-33 7l-1-16q25-4 76-18v331q0 13 1 17t5 4 7-1 11-4 14-4v14q-10 2-32 10t-40 12m-109-175q-8 9-13 23t-5 30 6 32 15 28q22 26 58 26 17 0 26-5 15-8 21-15v-107q-14-20-42-29-11-3-23-3t-23 5-20 15m358 34l-126 15 0 7q0 55 45 73 13 5 27 5t23-2 17-6 12-7q14-8 16-8 5 0 5 4t-4 11-13 13-19 14q-25 15-55 15-41 0-66-26-26-29-26-72 0-48 26-78 25-30 63-30 42 0 69 34 14 17 14 30 0 4-3 6t-5 2m-125-3l86-11q-3-11-10-20t-11-13q-9-8-22-8t-26 14-17 38m313-1q0-21-7-29t-27-9-52 16v126q0 6 3 8t4 2 5 1q5 1 18 1h6l-1 16h-97l-1-16q7 0 11 0t7-1 4 0 3-2 2-2 0-3 1-4v-124q0-16-1-21t-7-4q-1 0-19 4v-16l62-12q-2 19-2 35 2-1 7-4t12-9 15-9q20-10 36-10t23 3 13 6 8 11 5 12 3 16q1 12 1 33v86q0 10 6 12t25 3l-1 16h-93l0-16h11q13 0 15-3 2-5 2-12v-101m193-182h-13v-20h125v20h-13q-19 0-22 3t-5 5q-2 4-2 14v95h163v-99q0-13-3-15t-5-2q-4-1-18-1h-21l-1-20h127v20h-14q-16 0-19 2t-4 5q-2 4-2 14v253q0 14 5 17t25 3h17l0 20h-125l0-20h14q17 0 19-2t4-5q1-4 1-15v-131h-163v131q0 15 6 19 5 3 30 3h15l-1 20h-128l-1-20q11 0 18 0t10 0 5-1 2-2 2-2 1-4 1-6v-262q0-12-6-14-5-3-24-3m348 141l-1-15q37-6 71-15v173q0 10 4 11 6 3 27 3h9v16h-109v-16h5q23 0 25-2 4-4 4-10v-133q0-10-2-13t-7-3-26 4m57-102q-6 0-13-8t-7-15 8-13 12-7 14 8 8 13-8 14-14 8m71-60l-1-17q42-6 73-11v333q0 9 6 11t26 3h9v16h-109v-16h11q13 0 18-3t4-11v-285q0-16-1-20t-7-5-29 5m131 0l-1-17q42-6 73-11v333q0 9 6 11t26 3h9v16h-109v-16h11q13 0 18-3t4-11v-285q0-16-1-20t-7-5-29 5" />
</svg>