<svg id="fnt-Liu Jian Mao Cao" viewBox="0 0 3236 1000" xmlns="http://www.w3.org/2000/svg"><path id="liu-jian-mao-cao" class="f" d="M7 693v-288q0-2 2-3t3-2 5-2 4 0 4 2 5 4 4 4 1 4v225q5-7 17-9t27-3 35-1 38-2 38-7 35-14q15-8 20-9t4 5-9 14-20 17-27 15-31 8q-4 0-12 0t-19 0-22 0-22 0h-18q-8 0-12 0-5 3-10 12t-11 17-13 13-16 0m271-14q-1-1-2-6t-3-11-2-11 0-7v-197q0-4 3-6t8-2 9 0 4 1v218q0 7 5 11t10 7 13 3 11 0q5 8-1 13t-16 6-22-4-17-15m-14-303q0-11 9-15t19 1v22q-1 0-4 0t-7 1-6-1-4 0q-2-1-5-4t-2-4m102 303q-1-1-2-6t-2-8-2-9-1-5v-155q0-4 3-6t6-2 7 0 5 1q-1 6-1 16t0 25 0 29 0 30v25q0 11 1 16 1 23 6 31t13 9 17-9 16-20 13-24 5-22v-106h28q0 10-2 25t-1 32 0 36 4 34 9 27 15 17 22 2 31-18q3 10-3 20t-17 17-23 11-21 1q-1 0-3-3t-4-4q-1-3-5-11t-9-17-8-17-6-11q-2 4-8 13t-13 20-17 20-19 12-18 1-16-17m446 84q-15-10-17-30t5-44 19-51 26-50 26-40 19-24q0-2 0-7t0-7q-1-5-3-17t-4-26-5-25-3-17q-2-4-6-6t-8 0l-112 41q-5 2-9 0t-5-7 0-8 6-6l233-77h21q3 8 1 12t-4 6-9 2-9 1q-4 2-14 4t-22 7-21 6-14 4q-2 23 2 47t13 45l70-36q5-3 11-1t8 7 2 8-7 7q-10 4-23 8t-25 9-23 13-13 20q-2 4-3 19t-3 35-5 46-8 48-12 45-18 33-25 15-32-9m14-22q5 12 12 8t14-15 14-30 11-34 9-31 4-17q0-4 0-13v-43q0-10 0-14-18 18-31 40t-22 48-11 51 0 50m179-62q-1-1-2-6t-3-11-2-11 0-7v-197q0-4 3-6t8-2 9 0 4 1v218q0 7 5 11t10 7 13 3 11 0q5 8-1 13t-16 6-22-4-17-15m-14-303q0-11 9-15t19 1v22q-1 0-4 0t-7 1-6-1-4 0q-2-1-5-4t-2-4m98 317q-8-17-9-34t2-36q1-6 2-17t4-25 4-29 5-30 3-24 3-16q3-17 7-29t11-18 17-7 28 5q2 1 5 3t2 4q1 5 3 16t5 25 6 29 6 29 5 25 4 17q6 28 15 39t19 12 21-7 21-15 20-13 16-2q0 7-4 14t-9 14-11 12-11 9q-23 15-38 15t-26-6-17-21-11-28-10-24-11-14q-1 6-5 18t-8 28-9 28-6 18q0 2-3 7t-7 13-9 13-10 10-11 2-9-10m21-119q0 5-1 18t0 27 0 27 1 19q14-22 25-50t18-60 4-60-11-55q-8 13-14 32t-10 38-8 37-4 27m195 119q1-5 1-18v-55q0-13-1-19 0-2-1-10t-3-19-3-23-3-23-3-19-1-11q-1-6-1-12t3-10 6-7 13 1q0 9 1 20t3 24 4 25 6 23q5-16 10-27t12-21 15-19 19-18q14-12 24-10t15 14 11 30 7 39 7 40 8 34 14 21 20 1q3 11 1 16t-9 5-15-3-17-10-14-16-10-20q-1-7-2-24t-4-36-8-37-14-30l-28 28q-1 2-6 14t-10 30-11 34-8 28q-1 4-2 13t-3 22-1 21-1 14q-3 8-10 8t-11-8m711 0q-14-5-23-17t-16-25-11-29-6-27q-2-7-4-21t-4-31-4-36-4-36l-4-32q-1-13-2-20l-48 197-3 4q-2 4-5 8t-6 9-8 5-7 1-7-6l-105-211-28 211q-1 5-5 6t-7 0-7-5-2-8l35-260q0-2 3-5t6-4 7-2 5 3l111 246 64-246q1-1 5-6t9-10 9-6 6 2l6 28q2 27 3 64t4 75 12 75 24 67q2 2 4 5t6 7 7 5 4 4q4 2 11 0t14-2 14 1 10 8q4 7 1 10t-9 6-14 2-16 0-15-2-10-2m95 0q-8-17-9-34t2-36q0-6 2-17t3-25 5-29 4-30 4-24 3-16q3-17 7-29t10-18 18-7 28 5q2 1 4 3t3 4q1 5 3 16t5 25 6 29 6 29 4 25 4 17q6 28 15 39t19 12 21-7 21-15 20-13 16-2q0 7-3 14t-9 14-11 12-11 9q-23 15-38 15t-26-6-17-21-12-28-9-24-11-14q-2 6-6 18t-8 28-8 28-6 18q-1 2-3 7t-7 13-9 13-11 10-10 2-9-10m21-119q-1 5-1 18t0 27 0 27 1 19q14-22 25-50t17-60 5-60-12-55q-7 13-13 32t-11 38-7 37-4 27m207 105q-10-15-12-33t0-39 6-41 8-40 4-36-6-29q-3-6-9-6t-12 1-12 1-11-7q1-2 3-4t4-3q36-6 61 7t39 36 20 53 4 60-10 54-19 39-27 13-31-26m21-14q1 1 3 3t4 4 4 4 3 3q15-9 22-23t9-33-2-37-8-38-14-34-14-25q0 6-2 16t-2 25-3 29-3 30-3 25-1 16q0 4 0 9t2 10 3 9 2 7m342 28q-17-6-28-23t-14-39-4-49 8-53 16-50 23-42 31-26 38-6q1 4 3 14t4 21 4 21 3 14q1 5-3 10t-9 8-10 3-6-7q-2-4-2-11t-2-17-4-16-5-10-9-2-13 14q-3 3-7 9t-6 11-6 10-2 5l-22 113q-3 18 1 33t13 25 22 16 27 7 29-4 28-14q5-4 13-14t16-23 19-26 18-26 15-18 10-6q6 18-1 38t-21 39-37 35-44 26-46 14-40-4m218 0q-8-17-9-34t2-36q0-6 2-17t3-25 5-29 4-30 4-24 3-16q3-17 7-29t10-18 18-7 28 5q2 1 4 3t3 4q1 5 3 16t5 25 6 29 6 29 4 25 4 17q6 28 15 39t19 12 21-7 21-15 20-13 16-2q0 7-3 14t-9 14-11 12-11 9q-23 15-38 15t-26-6-17-21-12-28-9-24-11-14q-2 6-6 18t-8 28-8 28-6 18q-1 2-3 7t-7 13-9 13-11 10-10 2-9-10m21-119q-1 5-1 18t0 27 0 27 1 19q14-22 25-50t17-60 5-60-12-55q-7 13-13 32t-11 38-7 37-4 27m207 105q-10-15-12-33t0-39 6-41 8-40 4-36-6-29q-3-6-9-6t-12 1-12 1-11-7q1-2 3-4t4-3q36-6 61 7t39 36 20 53 4 60-10 54-19 39-27 13-31-26m21-14q1 1 3 3t4 4 4 4 3 3q15-9 22-23t9-33-2-37-8-38-14-34-14-25q0 6-2 16t-2 25-3 29-3 30-3 25-1 16q0 4 0 9t2 10 3 9 2 7" />
</svg>