<svg id="fnt-Livvic" viewBox="0 0 1192 1000" xmlns="http://www.w3.org/2000/svg"><path id="livvic" class="f" d="M242 667h-201v-355h39v321h166l-4 34m38-249h36v249h-36v-249m19-56q-12 0-19-8t-6-17 6-18 19-7 18 7 7 18-7 17-18 8m179 275l84-219h36l-97 249h-51l-80-249h39l69 219m244 0l84-219h36l-97 249h-51l-80-249h39l69 219m158-219h36v249h-36v-249m19-56q-12 0-18-8t-7-17 7-18 18-7 18 7 7 18-7 17-18 8m198 309q-55 0-86-33t-31-91q0-40 16-70t43-47 64-16q60 0 88 48l-28 21q-20-36-61-36-38 0-61 27t-22 73q0 44 20 67t59 23q21 0 38-9t28-27l27 21q-30 49-94 49" />
</svg>