<svg id="fnt-Londrina Solid" viewBox="0 0 2651 1000" xmlns="http://www.w3.org/2000/svg"><path id="londrina-solid" class="f" d="M229 621q-1-4-1-9t1-10q1-6 1-11-4 0-15 0t-23-1-28-1-28-1-23-1-13 1v-1q1-32 0-66t0-69-1-69 1-66q-7-3-19-5t-23-1-23 1-15 3q0 35 1 64t1 54 0 50 0 51-1 56-3 68v9q61 1 97 1t57 0 29-1 15 0q5 0 8-1t4-4 2-14-1-27m24-182q-1 5-4 14t-4 15q-1 10-2 18t0 18q1 17 0 37t1 39 6 38 18 30q18 18 43 22 14 0 31 1t33 0 30-6 22-17q5-5 8-18t4-31 3-35 1-33q0-17-1-33t-2-29-6-23-11-14q-11-10-25-16t-31-6q-10-1-20 0t-19 0q-12 0-24 1t-22 5-18 10-11 13m63 59q6-8 17-11 19-5 31 3t15 26q3 14 1 30t-3 33q-3 12-11 16-7 4-17 5t-19-1-16-9-6-17q1-18 1-34t2-31q2-8 5-10m223-54q0-7 0-13t-1-14q0-1-4-2t-9 1-10 1-7 1q-6 0-10 0t-7 1-8-1-10 0q-2 66-1 127t2 123q12-1 20 0t14 0 13 0 15-3v-2q2-16 2-33t-1-33-1-34 0-34q1-13 7-20t14-9 15-1 12 3q0 1 1 1t1 0q4 3 6 9t3 12 2 14 1 14q1 13 1 29t0 31 0 30 1 26q18 0 31 0t32-2q-1-17-1-40t1-47 1-48-1-43-3-35-8-18q-10-9-23-13t-27-3-27 5-23 12q-3 2-7 4t-6 4m289-123q0 10-1 15t0 9-1 9 0 14 0 23 1 38q-1-4-11-8t-25-5-31 0-29 7q-11 4-19 13t-13 24-7 30-2 34q1 25 3 50t11 44 25 32 45 15q14 2 27-2t20-19q1-3 2-2t3 4q0 5 0 8t0 8q0 3 1 4 15 2 33 1t34-1q2-72 0-153t-3-165v-33q-8-2-19-2t-21 0-16 1-7 1v6m-77 188q2-17 14-26t33-9q11 0 17 1t9 8 4 17 1 31q0 16-1 29t-5 23-11 15-19 6q-11 0-19-6t-15-15-9-21-3-24q0-7 1-14t3-15m247-75q0-3-1-5t0-3 0-3 0-6q0-1-4-1t-10 0-11 1-7 1q-6 0-10 0t-8 1-7-1-10 0q-2 66-1 127t1 123q12-1 21 0t16 0 15 0 15-3v-2q0-18 0-35t0-32-1-31-1-33q0-14 4-21t13-11 19-4 25 2q1 0 7 1t12 2q3 1 5 2t6 2l4 1q0-7 0-16t0-19 0-23 0-30q0 0-7-1t-18 1-22 2-22 5q-7 2-14 5t-9 4m176-19q-16 1-27 0t-18-1q-3 0-8 0t-6 0v0q-3 30-3 61t1 63 1 65-2 64q3-1 14-1t22 1 22 0 12-3q-3-61-2-124t3-123v-2h-9m-61-109q-1 23 0 39t2 30q9 0 20 0t21 1 17 0 9-4q0-8 0-18t-1-19 0-17 0-10l-68-2m170 138q0-7 0-13t-1-14q0-1-4-2t-9 1-10 1-7 1q-6 0-10 0t-7 1-8-1-10 0q-2 66-1 127t2 123q12-1 20 0t14 0 13 0 15-3v-2q2-16 2-33t-1-33-1-34 0-34q1-13 7-20t14-9 15-1 12 3q0 1 1 1t1 0q4 3 6 9t3 12 2 14 1 14q1 13 1 29t0 31 0 30 1 26q18 0 31 0t32-2q-1-17-1-40t1-47 1-48-1-43-3-35-8-18q-10-9-23-13t-27-3-27 5-23 12q-3 2-7 4t-6 4m360-26q-16-1-28-2t-21-1q-1 0-5 0t-8 0-8 0-3 1q0 6-1 11t-1 14q-3-8-8-13t-12-7-14-3-17 0q-17 1-33 9t-27 24-17 37-7 46q0 20 4 43t14 44 22 33 34 14q17 0 35-9t31-20q0 5-1 8t-1 9q0 4 1 7t5 4q5 0 10-1t11 0q8 0 16 0t17 1h6q6-1 6-7t0-13q4-54 2-106t-1-106v-5q0-3 0-6t-1-6m-145 99q2-12 14-22t32-10q11 0 16 2t7 7 3 15 0 28q0 14 0 25t-3 19-9 12-19 5q-21 0-33-16t-11-38q0-7 0-14t3-13m495-87q7-38-6-62t-37-37q-12-6-26-9t-29-5-29 1-27 7q-24 10-41 31t-22 45 0 52 30 48q7 6 16 11t18 6q11 2 23 4t22 7 18 12 9 19q3 18-7 26t-23 9-25-8-13-24q-17 1-38-1t-38 2v1 2q-2 24 8 42t27 32 39 20 44 8q15 1 30-3t27-10 23-18 16-26q6-13 9-28t2-28-5-27-14-25q-14-21-37-35t-49-17q-11-2-20-6t-13-16q0-3-1-7t1-6q2-14 13-19t24-3 20 12 6 22q17 5 37 4t38-3h0m34 9q-2 5-5 14t-3 15q-2 10-2 18t-1 18q2 17 1 37t0 39 6 38 19 30q17 18 43 22 14 0 31 1t33 0 29-6 23-17q5-5 7-18t5-31 2-35 2-33q-1-17-1-33t-3-29-6-23-11-14q-10-10-25-16t-30-6q-11-1-20 0t-19 0q-12 0-24 1t-22 5-18 10-11 13m62 59q7-8 17-11 20-5 32 3t14 26q3 14 2 30t-3 33q-3 12-12 16-6 4-16 5t-20-1-15-9-6-17q1-18 1-34t2-31q1-8 4-10m159-195q-5 46-5 91t2 91 2 91-2 91q3-1 14-1t22 1 22 0 12-3q-1-20-1-49t-1-62 0-68 1-69 1-62 1-49l-68-2m162 112q-16 1-27 0t-18-1q-3 0-8 0t-6 0v0q-3 30-3 61t1 63 1 65-2 64q3-1 14-1t22 1 22 0 12-3q-3-61-2-124t3-123v-2h-9m-61-109q-1 23 0 39t2 30q9 0 20 0t21 1 17 0 9-4q0-8 0-18t-1-19 0-17 0-10l-68-2m234 15q0 10-1 15t0 9-1 9 0 14 0 23 1 38q-1-4-11-8t-25-5-31 0-29 7q-11 4-19 13t-13 24-7 30-2 34q1 25 3 50t11 44 25 32 45 15q14 2 27-2t20-19q1-3 2-2t3 4q0 5 0 8t0 8q0 3 1 4 15 2 33 1t34-1q2-72 0-153t-3-165v-33q-8-2-19-2t-21 0-16 1-7 1v6m-77 188q2-17 14-26t33-9q11 0 17 1t9 8 4 17 1 31q0 16-1 29t-5 23-11 15-19 6q-11 0-19-6t-15-15-9-21-3-24q0-7 1-14t3-15" />
</svg>