<svg id="fnt-Long Cang" viewBox="0 0 1856 1000" xmlns="http://www.w3.org/2000/svg"><path id="long-cang" class="f" d="M33 604q5-14 6-37t0-56-1-40q0-7 0-10t0-9 2-9 3-7 5-4 7-1q7 1 10 7t3 14-1 16-2 16-2 11l-4 83q1 17 4 20t20 3q14 0 41 2t44 1q11 0 16 4t6 13q0 6-2 8t-7 3-9-1-10-1-8-1q-69-2-104 4-11 2-16-8t-1-21m220 15q-16 11-27 5t-10-28q0-29 34-72t60-57q14-8 19-9t21 1q31 4 30 42-1 20-10 37t-25 31-33 23-37 17q0 0-4 1t-8 4-10 5m-14-26q21 2 50-12t50-37 19-42q-1-9-4-13t-8-4q-7 0-16 5t-21 14-15 10q-14 10-32 35t-23 44m174-150q2 3 6 9t5 8 3 8 2 11q0 3 0 9t0 9 1 8 1 9 2 8q1 0 13-14t22-21 17-6q5 0 9 2t5 6 5 10q4 7 8 41t8 41q2 13 51 20-2 12-16 20t-31 5-24-13q-9-14-11-33-6-56-9-62-54 38-55 115-11-1-17-8t-6-19-1-22 2-25 2-21q0-11-3-35t-1-38 12-22m310 131q-6 3-30 19t-40 24-36 8q-15 1-21-8t-3-24q2-16 10-29t18-22 27-15 29-11 34-9q5 0 12-11t12-9q5 1 9 5t6 10 4 15 1 15 0 16q0 2 0 2 0 18-3 60t0 64q1 12-2 21t-6 16-12 12-16 7-20 4-21 1-23 1q-27 0-45-7t-21-23q1-9 12-16t24-12 26-6l-28 28q22 9 47 8t44-12q13-8 17-32t2-46-7-44m-111 23q23 4 48-5t42-24 21-34q-35-8-70 13t-41 50m458 0q19 0 41-8t40-16 41-14 44-1q-9 14-21 20t-39 14q-2 1-4 1-10 3-42 14t-49 14q-21 5-33-6t-14-29 3-38 13-34q12-20 34-43t41-32q3-1 10-5t13-7 10-2q7 0 10 7t-1 12q-2 3-4 5t-5 4-6 4-8 4-10 5q-16 7-27 16t-24 25q-4 5-8 9t-5 8-4 9-3 7-3 10-3 11q-2 6-3 12t0 12 5 9 11 3m348-71q1-15-3-28t-13-21-23-2q-39 13-67 42-9 8-16 3t-7-16q0-9 9-17t20-14 25-12 20-9q12-7 18-9t14-3 17 4q6 2 10 11 28 50 28 95 0 5 10 29t10 30q0 8-5 16t-10 8q-7-1-12-5t-8-9-5-14q-7 3-23 10t-26 10-23 8-26 7-23 2q-38 0-53-29-2-8-3-14t5-13 10-12 12-9 14-9 14-6q35-16 100-22 7-1 10-2m-134 79q20 6 39 6t39-5 35-13 29-15q-11-17-34-22t-46 1-41 19-21 29m229-162q2 3 6 9t5 8 3 8 2 11q0 3 0 9t0 9 1 8 1 9 2 8q1 0 13-14t22-21 17-6q5 0 9 2t5 6 5 10q4 7 8 41t8 41q2 13 51 20-2 12-16 20t-31 5-24-13q-9-14-11-33-6-56-9-62-54 38-55 115-11-1-17-8t-6-19-1-22 2-25 2-21q0-11-3-35t-1-38 12-22m310 131q-6 3-30 19t-40 24-36 8q-15 1-21-8t-3-24q2-16 10-29t18-22 27-15 29-11 34-9q5 0 12-11t12-9q5 1 9 5t6 10 4 15 1 15 0 16q0 2 0 2 0 18-3 60t0 64q1 12-2 21t-6 16-12 12-16 7-20 4-21 1-23 1q-27 0-45-7t-21-23q1-9 12-16t24-12 26-6l-28 28q22 9 47 8t44-12q13-8 17-32t2-46-7-44m-111 23q23 4 48-5t42-24 21-34q-35-8-70 13t-41 50" />
</svg>