<svg id="fnt-Lora" viewBox="0 0 1045 1000" xmlns="http://www.w3.org/2000/svg"><path id="lora" class="f" d="M276 667h-248v-17q19-1 26-9t7-21 1-31v-216q0-10 1-20t1-16q-9 0-18 1t-18 1v-22h112v16q-18 1-26 9t-8 21 0 32v214q0 14-1 23t-1 16l94-1q31-1 47-20t17-64h17l-3 104m159 8q-35 0-63-17t-46-45-16-65q0-40 16-71t45-50 64-18q35 0 64 16t45 46 17 65q0 38-17 70t-45 50-64 19m4-20q27 0 42-15t22-39 7-51q0-22-4-44t-13-40-24-28-34-10q-26 0-42 15t-25 39-7 51q0 31 8 59t26 45 44 18m165 12v-15q15 0 21-8t7-22 1-31v-114q0-8 0-16t2-17q-9 1-18 1t-17 1v-21h15q22 0 30-4t14-9h14q1 8 2 19t1 30q7-12 20-24t29-20 35-8q14 0 24 7t11 24q0 4-3 10t-8 10-14 4q-11 0-18-9t-5-19q-12 0-26 7t-24 19-21 29l1 123q0 10-1 17t-1 17q8-1 15-1t16-1v21h-102m440 0h-72q-1-9-2-15t-1-14q-17 17-37 27t-42 10q-38 0-56-18t-19-42q0-23 14-40t37-27 50-16 52-5v-31q0-17-3-33t-13-25-32-11q-15 0-30 6t-22 20q4 4 5 9t1 10q0 6-5 14t-17 7q-11 0-16-7t-6-17q0-17 13-31t35-21 51-8q42 0 62 22t20 70q0 19 0 37t-1 38 0 38q0 8 0 16t-2 18q9-1 18-1t18-1v21m-76-123q-17 1-36 4t-35 12-25 19-9 30q1 19 12 28t27 9q20 0 35-8t31-21q-1-6-1-12t0-14q0-2 0-16t1-31" />
</svg>