<svg id="fnt-Love Light" viewBox="0 0 1717 1000" xmlns="http://www.w3.org/2000/svg"><path id="love-light" class="f" d="M413 762q-33 0-80-20-15-7-37-18t-49-26q-28-15-47-25t-30-14q-16 18-31 31t-27 21q-33 22-74 22-22 0-43-15-22-16-22-36 0-29 29-44 23-12 55-12 37 0 94 18 12-16 21-30t15-26q-136 0-136-80 0-42 44-66 3-1 4-1t2 1q0 1-1 2-33 12-33 48 0 41 44 66 36 21 80 21 24-46 24-53 0 0-2-4t-4-11q-5-13-5-23 0-14 6-14 7 0 15 15 4-10 8-28t6-44q2-21 3-40t1-36q0-2 0-3v-4q0-3 1-3l1 1q4 11 4 33 0 28-4 58t-12 62q7-4 11-4 4 0 4 7 0 14-28 40-11 30-21 50h2q3 0 8-1t10-3q4-6 15-32l13-33q35-86 77-127t87-42q19 0 30 13t11 32q0 79-172 166-8 4-16 9t-18 8q-3 2-9 4t-12 6l-13 21q-10 15-19 28t-17 25l135 52q43 17 77 24t61 8q51 0 51-30 0-19-18-47 9 5 16 19 8 14 8 24 0 27-34 45-28 15-59 15m-183-192q25-8 57-28t71-52q88-72 88-112 0-12-10-17t-21-6q-57 0-146 150-7 12-17 28t-22 37m-72 77l10 3q9-10 47-69-1 1-19 5l-38 61m-115 72q28 0 66-20t55-42q-5-3-11-5l-10 12q-9 11-20 18t-23 11q7-5 13-10t12-10q7-7 12-13t9-11q-60-19-88-19-27 0-47 9-28 13-28 35 0 20 21 34 18 11 39 11m293-54q-19 0-19-25 0-30 23-62-8-20-8-42 0-21 8-37 16-32 41-32 31 0 36 53 13 1 19 8t6 20q0 10-2 14t-4 5-2-2q0-3 0-6t1-9q0-7-5-11t-12-3q-6 61-30 93h16q-7 4-12 4-1 0-3 0t-2-1q1 1-18 17-19 16-33 16m9-93q31-41 64-51-10-43-27-43-16 0-30 32-8 21-8 44 0 10 1 18m27 55q12-11 25-43 13-33 13-49-11 2-35 21-23 18-28 29 10 38 25 42m-34 23q14 0 32-21-16-2-27-39-16 27-16 43 0 17 11 17m137 20h-2q-3 0-7-4 0-1 0-3 0-7 6-29 11-37 11-87 0-41-18-41-9 0-23 13-13 13-14 13-2 0-2-2 0-1 1-4 6-11 23-22 16-12 27-12 21 0 21 41 0 30-11 66 23-47 55-81 42-43 84-43 26 0 26 25 0 8-2 8-1 0-2-5-2-13-6-18t-15-4q-33 0-65 29-27 25-44 60-13 27-12 40v2q0 6-11 31-12 27-18 27-1 0-2 0m122 1q-36 0-36-46 0-7 1-15t3-18q-2-1-4-4t-4-7q2 1 4 2t6 2q5-25 30-49 26-27 50-27 5 0 5 1 0 1-7 5-18 10-35 31-16 22-24 42l1 1q24 0 50-23t26-47q0-7-4-13t-11-6q-10 0-22 8-13 7-14 7-1 0-1 0 0-6 17-13 15-6 24-6 11 0 19 6t8 18q0 27-35 52-31 22-60 24-4 12-4 23 0 42 30 42 23 0 48-20 21-17 35-40 5-7 8-7 0 0 0 1 0 2-4 9-15 24-43 45-31 22-57 22m607 91q-33 0-80-20-15-7-37-18t-49-26q-28-15-47-25t-30-14q-16 18-31 31t-27 21q-33 22-74 22-22 0-42-15-23-16-23-36 0-29 29-44 23-12 55-12 37 0 94 18 12-16 21-30t15-26q-136 0-136-80 0-42 44-66 3-1 4-1t2 1q0 1-1 2-33 12-33 48 0 41 44 66 36 21 80 21 24-46 24-53 0 0-2-4t-4-11q-5-13-5-23 0-14 6-14 7 0 15 15 4-10 8-28t6-44q2-21 3-40t1-36q0-2 0-3v-4q0-3 1-3l1 1q4 11 4 33 0 28-4 58t-12 62q7-4 11-4 4 0 4 7 0 14-28 40-11 30-21 50h2q3 0 8-1t10-3q4-6 15-32l13-33q35-86 77-127t87-42q19 0 30 13t11 32q0 79-172 166-8 4-16 9t-18 8q-3 2-9 4t-12 6l-13 21q-10 15-19 28t-17 25l135 52q43 17 77 24t61 8q51 0 51-30 0-19-18-47 9 5 16 19 8 14 8 24 0 27-34 45-28 15-59 15m-183-192q25-8 57-28t71-52q88-72 88-112 0-12-10-17t-21-6q-57 0-146 150-7 12-17 28t-22 37m-72 77l10 3q9-10 47-69-1 1-19 5l-38 61m-115 72q28 0 66-20t55-42q-5-3-11-5l-10 12q-9 11-20 18t-23 11q7-5 13-10t12-10q7-7 12-13t9-11q-60-19-88-19-27 0-47 9-27 13-27 35 0 20 20 34 18 11 39 11m377-226q-10 0-10-10 0-5 6-13t11-9q18-9 22-9 1 0 1 1 0 2-11 15-1 1-8 15-5 10-11 10m-30 161q-26 0-26-26 0-19 10-48l-9 14q-6 11-9 11-1 0-1-1 0-4 3-8 12-16 27-47 1-4 4-10t7-14q2-4 12-4 9 0 9 5 0 5-5 15-5 10-9 11-26 52-26 77 0 16 11 16 18 0 40-26 22-26 22-26 1 0 1 2 0 0-1 3-5 8-12 16t-15 18q-22 22-33 22m-27 235q-92 0-92-56 0-3 0-7t1-6q4-19 27-46 77-90 226-94l-16-41q-25 21-45 21-18 0-18-20 0-36 41-81 0-4-1-9t0-8q0-30 12-52 14-28 42-28 3 0 5 0t6 1q11 2 17 18 6 15 4 27 30-18 30-43 0-9 2-9 5 0 5 17 0 34-38 52-3 26-18 57-17 33-35 48 5 8 11 21t16 29q40 1 62 5 8 1 8 4 0 3-8 3-5 0-12 0t-16-2q-19-1-29-1 17 34 17 59 0 59-75 103-65 38-129 38m132-335q5-5 11-10t16-10l29-17q1-4 1-8t0-8q0-29-14-29-12 0-24 18-10 15-15 29t-5 29q0 4 1 6m19 68q12-11 24-43 12-30 12-48-37 17-55 34 2 13 7 27t12 30m-44 21q18 0 35-14-8-21-10-27-3-9-4-16t-3-13q-28 37-28 55 0 15 10 15m-107 238q54 0 115-43 65-47 65-99 0-15-14-50-40 2-74 9t-64 20q-75 32-98 94-4 9-4 17 0 25 26 40 21 12 48 12m219-199q-6 0-5-4-1-3-7-13-6-8-6-10 0-4 4-5 5-3 10-7t12-10q32-92 105-253 2-5 5-12t8-16q7-12 26-12 8 0 8 4 0 1-1 2l-29 54q-35 65-59 117t-38 92q28-28 46-51t28-39q1-2 4-7t10-5q6 0 6 4 0 3-1 7t-2 12q-1 6-1 11t-1 8q0 31 9 62 13 43 36 43 4 0 10-3t7-2q4 0 4 4 0 5-10 9-11 4-16 4-25 0-46-41-17-36-17-68 0-2 0-4t0-4q-9 13-27 32t-44 44q-3 8-5 16t-4 15l-2 13q-3 13-17 13m-2-15q1-4 2-9t3-10l-10 8q2 4 5 11m232 7q-25 0-25-31 0-22 11-54-2-7-7-12t-13-9l-27-11q-6-3-6-10 0-8 7-10h13q27 0 56-6l0-1 33-73 15-33q4-9 19-9 11 0 11 5 0 2-19 42-18 41-21 44l-8 8-6 12q7-3 25-9t48-16q2-1 3-1t2 0q2 0 2 1 0 8-84 32-10 20-17 33t-11 23q-13 33-13 59 0 17 11 17 14 0 36-19l22-20q2 0 2 2t-2 4q-8 12-25 26-21 16-32 16m-12-92q4-10 8-21t9-21q-12 3-25 5t-25 5q26 13 33 32" />
</svg>