<svg id="fnt-Lumanosimo" viewBox="0 0 3679 1000" xmlns="http://www.w3.org/2000/svg"><path id="lumanosimo" class="f" d="M54 627q0-37 10-73t19-72q6-25 10-49t4-50q0-20-4-39t-16-35q8-4 19-8t20-4q21 0 28 14t7 31q0 35-10 70t-16 70q0 0-1 1t0 0q-6 30-13 61t-7 62q0 9 0 16 31 2 61 2t60 0q8 0 21 0t27 0 26-2 20-3q-3 24-14 35t-27 14-38 3q-28 0-56-2t-57-6q-3 0-6-1t-7 0q-12 8-26 8-20 0-27-13t-7-30m383 46q-37 0-53-18t-16-53q0-23 5-46t10-46 4-46q0-19-5-34t-16-30q8-4 19-8t21-4q17 0 25 9t7 25q0 8-1 16t-2 15q-6 31-14 65t-8 65q0 25 10 33t35 8q21 0 41-12t38-32 31-40 23-37q4-8 9-19t9-23 5-20q0-12-6-22t-11-20q8-4 19-8t20-3q18 0 26 9t8 27q0 20-6 41t-10 42-6 43q0 28 10 54t30 45q-6 5-18 13t-21 8q-19 0-29-12t-14-32-4-40 3-41 4-32q-9 15-24 35t-32 43-37 40-40 31-39 11m346-3q-13 0-20-8t-8-18-1-22q0-26 5-51t10-51 5-52q0-18-4-36t-15-32q8-5 18-9t19-3q20 0 27 13t7 30q0 25-5 50t-8 49q8-12 20-30t26-38 32-38 34-28 33-11q24 0 36 10t18 28 5 37q0 16 0 33t-4 33q8-13 19-31t25-38 31-36 35-26 36-10q23 0 35 9t16 25 5 36q0 29-4 57t-5 57q0 23 7 44t25 36q-7 5-19 13t-21 8q-14 0-22-8t-13-19-5-24-2-23q0-29 5-53t9-42 5-33q-1-18-13-24t-28-6q-16 0-31 9t-29 25-25 34-20 35-14 30q-10 24-10 46t16 46q-10 3-19 5t-19 2q-13 0-19-8t-8-18-2-21q0-25 5-50t10-49 5-50q0-24-9-30t-31-6q-16 0-31 10t-29 25-25 33-21 36-14 29q-10 25-10 46t16 46q-9 3-18 5t-19 2m749-85v-45q-9 14-22 31t-31 35-36 33-41 24-43 10q-31 0-51-15t-29-38-10-53q0-38 13-71t38-59 56-39 72-15q18 0 38 5t37 13 30 17q3-12 10-22t16-9q7 0 14 4t13 7q-17 29-22 66t-5 70q0 24 3 43t11 37 27 35q-7 5-19 13t-21 8q-16 0-25-9t-15-21-6-28-2-27m-216-43q0 21 6 39t22 28 38 11q20 0 40-11t39-29 35-38 29-41 18-36q1-5 2-10t2-10q-12-11-29-16t-35-6-34-1q-37 0-67 13t-48 41-18 66m447-103q0 21-3 42t-8 42q16-24 36-48t43-45 48-33 50-12q36-1 50 20t15 52q0 27-6 54t-6 53q0 25 9 47t28 38q-5 3-12 8t-16 9-14 4q-15 0-23-8t-13-19-6-25-2-24q0-24 5-46t9-42 4-37q0-14-7-20t-18-9-21-2q-22 0-45 13t-45 34-39 45-26 49-7 44q2 11 8 22t14 18q-10 3-20 5t-20 2q-14 0-21-8t-8-19-3-22q0-24 5-49t9-48 5-49q0-21-5-40t-19-35q9-5 20-8t20-4q14 0 22 7t10 20 3 24m425 235q-34 0-61-14t-43-38-16-60q0-37 15-69t40-57 58-39 68-14q34 0 61 14t43 38 15 60q0 37-14 69t-40 57-57 39-69 14m30-41q34 0 57-15t35-43 11-58q0-31-14-52t-37-31-53-10q-32 0-55 15t-34 42-12 56q0 48 28 72t74 24m253 39q-11 0-25-2t-27-8-21-14-8-24q0-10 4-21t14-16q8 25 29 37t46 11q9 0 21-2t22-9 9-18q0-12-9-22t-22-20-21-15q-15-10-30-21t-23-26-10-35q0-31 16-49t41-27 52-8q12 0 25 3t23 11 10 23q0 10-5 21t-14 15q-9-19-26-26t-38-8q-7 0-18 2t-18 7-9 15q0 11 10 22t21 20 21 14q15 10 30 22t25 26 9 36q0 29-15 49t-38 28-51 9m210-254q-7 3-18 7t-21 3-20-8-15-25q28 1 48-3t43-4q13 0 20 5t8 15 1 19-1 18q-2 15-6 37t-10 43q-1 7-4 20t-6 29-1 28 7 23 19 8q10 0 24-1t27-4 21-11l1 0v0q0 22-13 34t-31 17-37 5q-29 0-44-10t-20-28-3-38 8-42 9-39q6-23 10-47t4-51m25-53q-16 0-23-6t-7-22q0-10 2-21t4-20q10-3 20-6t19-3q15 0 24 7t9 23q0 10-4 20t-7 20q-9 4-18 6t-19 2m185 305q-14 0-20-8t-8-18-1-22q0-26 5-51t10-51 5-52q0-18-4-36t-15-32q8-5 18-9t19-3q20 0 27 13t7 30q0 25-5 50t-8 49q7-12 19-30t27-38 32-38 34-28 33-11q24 0 36 10t18 28 5 37q0 16 0 33t-4 33q7-13 19-31t25-38 31-36 35-26 36-10q23 0 35 9t16 25 5 36q0 29-5 57t-4 57q0 23 7 44t25 36q-7 5-19 13t-21 8q-14 0-22-8t-13-19-5-24-2-23q0-29 5-53t9-42 4-33q0-18-12-24t-28-6q-16 0-31 9t-29 25-25 34-21 35-13 30q-10 24-10 46t15 46q-9 3-18 5t-19 2q-13 0-19-8t-8-18-2-21q0-25 5-50t10-49 5-50q0-24-9-30t-31-6q-16 0-31 10t-29 25-25 33-21 36-14 29q-10 25-10 46t16 46q-9 3-18 5t-19 2m606 4q-34 0-61-14t-43-38-16-60q0-37 15-69t40-57 57-39 69-14q34 0 61 14t42 38 16 60q0 37-14 69t-40 57-58 39-68 14m30-41q34 0 57-15t34-43 12-58q0-31-14-52t-37-31-53-10q-32 0-55 15t-35 42-11 56q0 48 28 72t74 24" />
</svg>