<svg id="fnt-Luxurious Roman" viewBox="0 0 4013 1000" xmlns="http://www.w3.org/2000/svg"><path id="luxurious-roman" class="f" d="M244 672q-2 0-15-1t-31-2-38-2-36-2-22-1q-10 0-26 1t-36 2-37 4l7-15q3 0 5 0t6 0q16 0 29-6t17-17q6-19 12-108 6-91 6-135 0-27-3-37t-21-10q-5 0-11 1t-13 1l8-15q5 1 17 2t27 2 24 1q16 0 37-2t39-4l-12 14q-2-1-4-1t-4 0q-17 0-26 11t-13 31q-2 13-4 31t-3 40-2 39-2 31q-1 20-2 39t0 35q0 8 0 15t1 15q2 14 19 18t43 4q31 0 49-4t32-24q8-12 11-19t5-11l11 4q-5 10-10 23t-8 29q-3 12-8 18t-18 5m140 3q-25 0-42-9t-16-32q0-11 1-29t2-41 3-44 1-39q0-7-1-13t0-11q-2-18-31-18-4 0-9 1t-8 1l9-15q17 2 33 3t33 1 31-1 30-3l-8 14q-1 0-3 0t-2 0q-14 0-22 8t-10 23-4 30q-3 34-4 53t-2 27 0 13q0 57 37 57 13 0 27-6t27-13 19-16q4-54 6-86t2-49q0-7-1-12t0-9q-3-21-39-20l9-13q2 2 11 2t23 1 21 1q18 0 36-2t26-2l-6 13q-5-1-9-1-23 0-29 21-3 10-5 27t-4 37-3 40 0 37q0 6 0 12t0 11q1 17 9 24t22 7q6 0 13-1t16-2l-12 18q-8 0-23-1t-33 0q-11 0-20 1t-9 1q-4 0-6-2t-2-5q2-8 3-15t2-11q-22 13-36 21t-24 12-29 4m176-4l9-15q23-1 35-7t24-21q16-21 26-34t17-23 13-19q-20-40-36-66t-29-38q-8-9-35-9-5 0-8 1t-7 1l10-14q15 1 32 1t29 1q24 0 40-1t31-3l-10 15q-3 0-5 0t-5 0q-18 0-18 12 0 5 3 13 4 9 10 23t18 36q17-26 27-43t16-28q2-5-2-8t-11-4-11 0l-3-3 7-12q4 1 13 1t19 2 17 0q12 0 28-1t29-3l-6 14q-17 0-34 7t-28 23q-2 3-9 12t-16 21-17 22-11 16q23 42 38 67t23 34q7 8 18 11t23 3q4 0 8 0t9-1l-10 16q-6-1-19-1t-27-1-20-1q-18 0-35 0t-31 3l9-16q2 1 4 1t4 0q9 0 14-3t6-11q0-6-4-13l-29-60q-6 9-14 21t-15 24-12 20-4 11q0 6 7 9t15 3q6 0 10-2l2 3-8 14q0-1-6-2t-16-1-18-1-13 0q-7 0-18 1t-23 1-20 2m376 4q-25 0-41-9t-17-32q0-11 1-29t3-41 2-44 1-39q0-7 0-13t-1-11q-2-18-30-18-5 0-10 1t-7 1l8-15q17 2 34 3t32 1 31-1 31-3l-9 14q-1 0-2 0t-2 0q-15 0-22 8t-11 23-4 30q-2 34-4 53t-1 27-1 13q0 57 37 57 13 0 28-6t27-13 19-16q4-54 5-86t2-49q0-7 0-12t-1-9q-2-21-38-20l9-13q1 2 11 2t22 1 22 1q17 0 36-2t26-2l-7 13q-4-1-8-1-23 0-29 21-3 10-6 27t-4 37-2 40-1 37q0 6 0 12t1 11q1 17 8 24t23 7q6 0 13-1t15-2l-12 18q-7 0-23-1t-33 0q-11 0-19 1t-10 1q-3 0-6-2t-1-5q1-8 2-15t2-11q-22 13-35 21t-25 12-29 4m189-4l9-16q1 0 3 0t4 0q13 0 26-6t18-18q2-5 3-20t4-33 3-38 2-35 1-24q0-19-2-29t-10-12-27-3q-6 0-10 1t-9 2l9-15q1 0 16 1t39 1q10 0 19-1t11-1q7 0 7 8 0 1-2 11t-4 21q4-4 11-10t16-12q24-18 51-18 25 0 37 11t12 34q0 5-5 11t-11 11-10 8l-7-3q0-2 0-4t0-4q0-8-3-18t-9-16-20-6q-13 0-28 9t-26 25q-8 10-10 18t-3 19-1 28q-1 16-1 32t-1 31q0 7 0 12t1 11q1 13 13 17t29 5q10 0 20-1l-9 15q-13-2-32-3t-45-1-46 1-33 4m328-284q-7 0-17-9-9-9-9-15 0-5 17-18 13-9 17-9 2 0 7 3t12 7 17 4l2 7q-8 7-18 14t-16 11-12 5m-91 284l7-15q49 0 56-22 2-7 4-22t3-34 3-37 2-35 1-24q0-17-2-27t-7-14-18-4q-10 0-22 3l8-14q8 1 22 1t30 1q7 0 17-2t11-1q7 0 7 6 0 2-1 6t-2 8q-2 8-4 24t-4 36-4 40-2 37-1 28q0 21 5 31t17 11 33 3l-8 16q-12-3-26-5t-32-1q-19 0-41 1t-52 5m262 3q-30 0-51-14t-32-38-10-53q0-34 9-60t27-43q3-2 13-11t28-22q16-13 43-13 33 0 54 15t33 39 12 57q0 33-9 57t-26 40q-6 5-16 12t-21 18q-19 16-54 16m17-26q24 0 40-15t25-36 8-46q0-27-10-50t-27-38-40-14q-22 0-37 14t-24 38-7 49q0 25 8 48t24 36 40 14m229 27q-25 0-41-9t-17-32q0-11 1-29t3-41 2-44 1-39q0-7 0-13t-1-11q-2-18-30-18-5 0-10 1t-7 1l8-15q17 2 34 3t32 1 31-1 31-3l-9 14q-1 0-2 0t-2 0q-15 0-22 8t-11 23-4 30q-2 34-4 53t-1 27-1 13q0 57 37 57 13 0 28-6t27-13 19-16q4-54 5-86t2-49q0-7 0-12t-1-9q-2-21-38-20l9-13q1 2 11 2t22 1 22 1q17 0 36-2t26-2l-7 13q-4-1-8-1-23 0-29 21-3 10-6 27t-4 37-2 40-1 37q0 6 0 12t1 11q1 17 8 24t23 7q6 0 13-1t15-2l-12 18q-7 0-23-1t-33 0q-11 0-19 1t-10 1q-3 0-6-2t-1-5q1-8 2-15t2-11q-22 13-35 21t-25 12-29 4m269-1q-30 0-60-10-7-3-4-8 5-19 8-36t3-33l14-5q-2 26-2 36 0 12 9 21t20 14 25 5q20 0 35-14t15-34q0-18-12-29t-27-18q-21-11-36-20t-23-19-7-32q0-18 13-34t35-24 46-9h0q30 0 44 7 4 2 6 4t3 8v1q-3 9-4 21t-1 30l-12 7-3-3q1-1 1-7t1-18q0-17-11-26t-27-8q-13 0-26 5t-21 15-8 23q0 12 8 21t23 16 33 18q21 11 33 24t13 33q0 25-15 42t-38 27-51 9m598-2q-31 0-54-11t-36-34q-22-36-35-57t-19-31-12-17-9-10q-8 1-16 1t-14 1l8-14q41 0 68-21t29-60q2-32-17-49t-47-18q-20 0-32 2t-14 11q-3 15-5 40t-5 55-5 60-3 54-1 39q0 20 4 29t18 11 36 2l-9 15q-14-2-31-4t-34-1q-13 0-38 1t-59 4l7-14q4 1 8 1 9 0 19-3t20-8 10-12q3-11 6-34t5-53 4-59 3-55 1-41q0-26-4-38t-20-11q-5 0-11 1t-13 2l9-15q5 1 15 2t25 2 27 1q8 0 20-1t24-1 23-2 14 0q43 0 68 15t25 54q0 21-10 41t-26 35-34 20q13 27 31 56t40 52 45 38 47 14l-6 11q-11 1-21 2t-19 2m129 2q-30 0-51-14t-32-38-10-53q0-34 9-60t27-43q3-2 13-11t28-22q16-13 43-13 33 0 54 15t33 39 12 57q0 33-9 57t-26 40q-6 5-16 12t-21 18q-19 16-54 16m17-26q24 0 40-15t25-36 8-46q0-27-10-50t-27-38-40-14q-22 0-37 14t-24 38-7 49q0 25 8 48t24 36 40 14m262 6l-11 17q-10-3-25-5t-32-1q-21 0-42 1t-35 5l8-15q3 0 5 0t4 0q16 0 29-6t17-16q2-6 4-21t4-34 3-38 2-36 1-24q0-19-2-29t-10-12-27-3q-6 0-11 1t-8 2l8-15q2 0 17 1t37 1q11 0 20-1t11-1q8 0 8 8 0 2-2 10t-3 14q13-7 27-18 25-19 55-19 20 0 36 9t17 29q12-8 24-17t26-15 33-6q24 0 39 11t15 35q-4 60-6 93t-2 51q0 20 2 28 4 18 46 18 4 0 8 0t7-1l-8 15q-17-2-34-3t-34-1q-36 0-73 5l8-15q14 0 22-6t12-12q2-5 4-18t3-30 2-35 2-32 1-24q0-54-33-54-11 0-23 5t-23 14-20 17q-2 41-4 73t-2 62q0 6 0 11t1 11q1 8 10 13t17 5q3 0 6-1l-7 15q-31-3-56-3-25 0-53 3l8-16q3 1 5 1 8 0 15-6t9-11q3-7 5-25t5-40 3-43 1-31q0-54-33-54-18 0-36 11t-29 24q-1 8-2 23t-3 36-2 39-1 37q0 6 0 11t1 9q2 20 39 19m483 18q-14 0-18-10t-4-32q-11 8-25 17t-30 16-36 7q-24 0-38-18t-15-46q0-19 9-27t18-15q5-4 13-10t18-13 15-9q8-3 22-5t30-2 27-1q2-15 2-27 0-24-8-38t-28-13q-33 0-55 18-11 9-18 18t-6 26l0 15-13 9q0-2 0-5t0-5q0-8-1-16t-3-17q-1-9-2-12t-1-5q0-6 7-13t13-11q18-12 44-17t49-4q33 0 48 14t14 37q0 17-1 38t-3 44-2 41-1 31q0 13 8 18t21 5q4 0 7-1t8 0l3 3-8 13q-4 0-13 0t-19 1-18 1-10 0m-88-34q11 0 23-5t22-9q13-9 17-18t7-24 3-36q-30 1-49 3t-31 7q-16 6-24 18t-8 25q0 15 10 27t30 12m322 33l10-17q8 1 18-4t14-12q3-6 4-17t4-26q2-34 3-53t2-28 1-13q0-56-37-56-12 0-23 3t-20 9q-20 10-31 23l-3 49q-2 29-3 51t-1 36q0 6 0 11t1 8q2 21 38 20l-8 15q-12-5-53-5-4 0-25 1t-57 4l7-14q48 0 55-21 2-8 5-34t7-72q1-13 1-25t1-20q0-21-2-31t-11-13-26-3q-6 0-11 1t-8 2l8-15q2 0 15 1t32 1q11 0 22-1t16-1q8 0 8 8 0 4-3 12t-2 12q9-5 16-10t15-8q26-19 58-19 9 0 17 2 41 6 41 39 0 8-1 19t-1 24q-1 5-2 20t-1 32-1 32-1 18q0 22 2 33t13 13 32 4q10 0 15-1l-8 15q-19-2-37-3t-35-1q-14 0-32 1t-38 4" />
</svg>