<svg id="fnt-LXGW WenKai TC" viewBox="0 0 4106 1000" xmlns="http://www.w3.org/2000/svg"><path id="lxgw-wenkai-tc" class="f" d="M71 671h-1q-9 0-17-14-3-5-3-9t1-7 2-9v-260l-1-53q0-5 9-5t19 4 10 10l-1 45v264q39-2 84-2h56q12 0 19-1h0q7 0 11 10t5 17-5 8h-1q-19-3-51-3h-21q-96 0-115 5m460-2q-5-7-13-20t-29-42-65-96q-69 101-82 120t-17 25-7 11-13 5-18-4-9-9q0-1 3-5 28-32 51-67t72-105q-74-113-104-147-4-4-4-7 0-6 10-11t19-4 11 4q12 23 43 69t48 71q31-43 49-69t28-40 14-19l6-9q2-3 9-3t15 5 9 10-7 12-47 61q-32 44-58 81 57 85 78 113t46 54q2 2 2 4 0 6-10 11t-18 5-12-4m228 6q-98 0-137-65-20-34-20-83 0-93 50-153 51-64 127-64t111 43q2 2 2 7t-6 14-12 9-7-3q-7-11-21-21-25-18-62-18t-62 14-44 38q-41 52-41 126 0 89 57 113 27 12 62 12t64-17 45-46 17-68q0-2-2-2l-57 4q-10 1-37 4h-1q-7 0-13-9t-6-17 6-7h7q22 0 35-1l62-3q4-1 8-2t9 0 10 4q15 12 15 20 0 3-2 6t-2 8v100q0 4 0 13t0 18 1 14q0 7-10 7t-19-4-8-7v-1q2-26 2-54-21 45-75 63-23 8-46 8m524-12q-3 13-14 13t-19-8-14-24q-38-166-67-268-17 55-39 133t-28 102-9 33-6 20-13 11-18-8-13-23q-62-258-88-319-1-1-1-3 0-8 20-8t22 10l7 27q32 108 65 266 17-73 36-137t29-100 12-48q0-10 18-10 9 0 18 3t9 8q1 7 6 24t27 100 39 160q41-149 59-209t27-92q1-5 8-5t14 3q17 7 17 16 0 2-3 9-25 57-93 288-2 8-4 17t-4 19m615 0q-3 13-14 13t-19-8-14-24q-38-166-67-268-17 55-39 133t-28 102-9 33-6 20-13 11-18-8-13-23q-62-258-88-319-1-1-1-3 0-8 20-8t22 10l7 27q32 108 65 266 17-73 36-137t29-100 12-48q0-10 18-10 9 0 18 3t9 8q1 7 6 24t27 100 39 160q41-149 59-209t27-92q1-5 8-5t14 3q17 7 17 16 0 2-3 9-25 57-93 288-2 8-4 17t-4 19m229 13q-26 0-47-13t-32-37-12-57v-7q-11-8-11-16 0-6 10-6l4-1q8-39 43-77t82-38q31 0 50 11 33 19 33 62 0 17-3 27t-12 16-33 13q-50 16-124 16h-7v5q0 32 17 52t45 20q63 0 102-42 7-7 12-7t5 5-8 17-22 25q-36 32-92 32m-55-135h10q56 0 104-13 18-6 23-12t5-20q0-43-50-43-35 0-60 28t-32 60m285 126q0 5-9 5t-18-4-9-10l1-49v-124l-1-54q0-5 8-5t18 4 9 10v7q-1 14-1 32 16-27 42-41t51-14q46 0 63 32 13 23 13 62v96l2 53q0 5-9 5t-18-4-9-9v-1q1-4 1-13l0-36v-89q0-29-8-47t-33-18q-39 0-66 29t-28 102q0 16-1 28v8q0 15 2 45m301-56l2 56q0 5-10 5t-18-4-10-10l1-47v-239l-1-53q0-5 9-5t19 4 9 10l-1 45v88q57-44 104-90t52-51 13-5 18 5 10 12q0 2-5 6t-14 12-42 37-96 81q1 0 9 10t24 26q94 103 148 149 2 2 2 4 0 5-10 9t-21 5-15-5q-9-12-20-24-91-95-142-154l-15 12v111m336 65q-37 0-59-25t-22-72q0-62 39-109 18-22 40-34t45-12q39 0 55 33v-28q0-5 9-5t19 4 10 9v1q-7 45-7 131 0 53 18 80 1 2 1 5t-7 11-15 8q-20 0-27-65-19 35-45 51t-54 17m1-30q22 0 44-16 52-38 52-128 0-13 0-25-4 4-7 4t-5-2q-15-26-45-26t-58 36-29 88q0 69 48 69m261-32l1 53q0 5-9 5t-18-4-10-10l1-44v-131l-1-54q0-4 9-4t18 3 10 10l-1 45v131m-1-286q8 10 8 20t-7 17-17 7-18-10-8-20 6-17 17-7 19 10m386 286l1 53q0 5-10 5t-19-4-9-10l1-45 0-262-63 3q-12 1-24 2t-17 3h-1q-6 0-11-9t-5-18 6-8l36 1 177-9q11-1 23-2t18-2h2q6 0 10 9t5 17-6 8l-40-1-75 4 1 265m305 62q-43 0-78-16t-55-51-20-83 14-88 37-67 57-45 71-16q74 0 110 43 1 2 1 7t-6 14-13 8-8-4q-23-36-84-36t-100 50q-43 50-43 130t58 109q27 13 56 13t55-9 49-24 39-37q6-7 12-7t7 6-7 19q-17 29-52 53-45 31-100 31" />
</svg>