<svg id="fnt-LXGW WenKai Mono TC" viewBox="0 0 4735 1000" xmlns="http://www.w3.org/2000/svg"><path id="lxgw-wenkai-mono-tc" class="f" d="M53 671q-11 0-18-14-3-6-3-9 0-3 2-7t1-9q0-276-1-290t0-23q0-5 11-5 8 0 17 4t10 10-1 19 0 290q36-2 104-2 31 0 37-1 8 0 12 10t4 17q0 8-6 8-18-3-56-3-95 0-113 5m247 1q-9 0-18-5t-9-9q0-1 1-3 21-34 28-48l56-117q-58-127-65-139t-12-20q-1-3-1-4 0-5 9-9t17-5q9 0 11 5 7 18 60 133 53-110 61-130 2-4 9-4 8 0 17 6t9 11l0 3q-12 16-22 37l-56 117 54 116q9 20 28 48l0 2q0 4-9 9t-19 6q-8 0-11-6-8-20-62-136-48 100-51 109-7 17-12 27-2 6-13 6m325 3q-33 0-58-14t-38-48-13-94q0-83 35-145 38-64 89-64 39 0 58 19 18 15 23 24l1 5q0 7-6 16t-13 10q-4 0-6-5-15-37-57-37-37 0-64 54t-27 128q0 45 9 72t27 37 40 10q17 0 33-14t26-42 11-68l0-7q-29 4-58 8-5 0-9-5t-5-11-2-11q0-7 6-7 17 0 73-4 7-2 13-2 4 0 8 4t6 9 3 8q0 3-1 5t0 114l1 45q0 6-13 6-8 0-15-3t-8-8q2-15 2-30-7 15-26 30t-45 15m310 0q-11 0-22-9t-13-22q-15-165-26-255-3 20-9 80t-11 118-6 76q-1 5-5 8t-10 3q-11 0-22-8t-12-22q-16-198-28-279-6-37-9-43 0-8 12-8 8 0 17 4t11 10q0 4 0 7t1 8 0 13q10 87 21 239 11-123 23-228 3-18 3-25t0-11 6-7 13-2q10 0 18 3t9 8q0 2 1 3 0 5 0 9t1 10q17 127 28 243l2-20q9-110 19-199 5-32 5-58 1-7 12-7 8 0 16 4t9 13q-14 60-39 332-1 12-15 12m500 0q-11 0-22-9t-13-22q-15-165-26-255-3 20-9 80t-11 118-6 76q-1 5-5 8t-10 3q-11 0-22-8t-12-22q-16-198-28-279-6-37-9-43 0-8 12-8 8 0 17 4t11 10q0 4 0 7t1 8 0 13q10 87 21 239 11-123 23-228 3-18 3-25t0-11 6-7 13-2q10 0 18 3t9 8q0 2 1 3 0 5 0 9t1 10q17 127 28 243l2-20q9-110 19-199 5-32 5-58 1-7 12-7 8 0 16 4t9 13q-14 60-39 332-1 12-15 12m180 1q-24 0-43-13t-29-37-11-64q-10-8-10-16 0-6 10-6l3-1q7-37 37-75 34-40 77-40 29 0 46 10t23 28 7 35q0 17-2 26-7 27-90 41-28 5-69 5 0 38 15 57t36 20q57 0 94-41 7-8 12-8 6 0 6 6 0 4-7 15-13 26-55 48-21 10-50 10m-47-135h7q33 0 55-5t38-9 19-11 5-20q0-43-43-43-31 0-53 29t-28 59m240 131q-8 0-17-4t-8-10q0-13 1-35v-154q-2-31-2-38 0-5 10-5 8 0 17 4t8 10l-1 34q12-21 35-36t49-14q42 0 57 32 11 24 11 62 0 99 1 110 1 22 1 40 0 4-10 4-8 0-17-4t-8-10q0-4 0-14t1-19v-105q0-30-8-47t-28-18q-34 0-57 28-22 27-24 69-2 23-2 75 0 12 1 41 0 4-10 4m247 0q-8 0-17-4t-9-10 0-20 1-147q0-118-2-172 0-5 11-5 8 0 17 4t9 10-1 19 0 108q36-36 70-77t50-61q3-3 8-3 6 0 13 3t11 7 5 8q0 3-15 15-10 9-22 22-37 45-89 98 102 150 135 180 9 8 9 10 0 4-10 9t-19 5q-12 0-19-12-3-5-7-10-10-13-110-159l-10 10q0 128 0 143t1 24q0 5-10 5m293 4q-34 0-54-25t-20-72q0-63 35-109t78-46q36 0 48 26v-21q0-5 11-5 8 0 17 4t9 10q-3 23-5 76-1 40-1 56 0 51 16 80l1 2q0 5-7 13t-15 8q-8 0-13-11t-8-26-4-23q-14 29-38 46t-50 17m-1-30q21 0 40-15 47-38 47-129 0-13 0-22-1 1-6 1-3 0-5-2-14-26-36-26-27 0-53 35t-26 89q0 69 39 69m230 21l-23 3q-8 0-13-10t-4-16q0-9 7-9l20 1 44-1q1-23 1-182-18 3-30 3t-17 0q-8 0-12-10t-4-16q0-9 6-9 17 3 22 3 35 0 52-5 11 0 18 15 3 5 3 8 0 4-1 7t-2 10q0 143 1 176 47 0 54-1 7 0 11 10t5 17q0 8-7 8-17-3-56-3-47 0-75 1m48-295q-9 0-17-10t-7-20q0-10 6-17t18-7q10 0 17 10t7 21q0 9-6 16t-18 7m407 298q-15 0-15-8l1-16q3-29 5-59 13-230 13-247 0-4 0-10 1-6 11-10t20-5q5 2 6 3 2 5 13 53l35 176q21-92 53-216 2-6 3-13t7-7q5 0 12 3t15 7 7 8q0 5-2 10t-1 13q4 46 9 140l6 128q2 19 5 39 0 5-6 8t-15 3q-16 0-16-9 0-66-8-269-26 99-38 149-4 21-8 37t-3 22-8 10-15 4q-14 0-15-12-5-27-42-200-3 69-5 150l-3 73v36q-1 4-7 7t-14 2m336 6q-46 0-71-31t-25-82q0-22 6-43t16-40 19-29 15-11q6 0 8 3 22-19 53-19 52 0 78 56 10 26 10 64 0 48-27 89-30 43-82 43m0-31q43 0 66-49 10-23 10-52 0-42-14-66t-44-24q-34 0-58 34t-23 75q0 41 17 62t46 20m190 27q-8 0-17-4t-8-10q0-13 1-35v-154q-2-31-2-38 0-5 10-5 8 0 17 4t8 10l-1 34q12-21 35-36t49-14q42 0 57 32 11 24 11 62 0 99 1 110 1 22 1 40 0 4-10 4-8 0-17-4t-8-10q0-4 0-14t1-19v-105q0-30-8-47t-28-18q-34 0-57 28-22 27-24 69-2 23-2 75 0 12 1 41 0 4-10 4m310 4q-46 0-71-31t-25-82q0-22 6-43t16-40 19-29 15-11q6 0 8 3 22-19 53-19 52 0 78 56 10 26 10 64 0 48-27 89-30 43-82 43m0-31q43 0 66-49 10-23 10-52 0-42-14-66t-44-24q-34 0-58 34t-23 75q0 41 17 62t46 20m514 27q-8 0-17-4t-9-10l1-45v-261q-54 3-75 7-8 0-12-10t-5-16q0-9 8-9 3 0 12 1t20 0q7 0 128-8 19-2 39-4 7 0 11 9t4 16q0 9-7 9-28-1-36-1l-52 3q0 281 1 295t1 23q0 5-12 5m242 3q-31 0-55-16t-38-50-13-89q0-87 35-148t87-61q53 0 86 46 1 2 1 5 0 6-5 15t-12 9q-5 0-7-4-21-39-64-39-47 0-76 85-12 41-12 91 0 124 75 124 52 0 89-63 5-7 12-7 7 0 7 9 0 3-4 13-8 22-35 49-30 31-71 31" />
</svg>