<svg id="fnt-Yaldevi" viewBox="0 0 1511 1000" xmlns="http://www.w3.org/2000/svg"><path id="yaldevi" class="f" d="M153 667h-38v-145l-114-239h41l62 131q11 23 19 45t18 43h-11q9-23 18-44t20-43l63-132h40l-118 239v145m279-58l11 3q-8 20-22 33t-30 20-33 7q-24 0-43-10t-30-29-11-47q0-37 32-60t87-24q13 0 26 1t24 3v27q-13-2-24-3t-26-1q-30 0-47 8t-26 20-7 29q0 27 14 41t39 14q13 0 28-7t24-23 10-40v-105q0-30-15-44t-39-13q-17 0-36 6t-38 18l-14-28q21-14 46-21t47-7q25 0 44 10t31 28 12 49v139q0 21 5 30t21 10q2 0 4 0t5-1l1 28q-5 1-10 2t-9 0q-27 0-39-15t-12-48m121 3v-358h37v354q0 17 6 25t18 8q5 0 11-1t13-4l1 30q-8 3-16 4t-16 2q-24 0-39-15t-15-45m292-358h36v358q0 18 5 25t20 5l1 28q-20 4-34-1t-20-18-7-35v-23h15q-12 40-37 60t-56 19q-29 0-52-17t-36-47-13-72q0-33 8-63t24-50 38-34 51-12q23 0 44 6t39 17l-25 22q-13-7-29-11t-27-3q-27 0-46 16t-28 45-10 65q0 35 10 59t25 36 34 12q19 0 34-9t26-30 10-50v-298m224 418q-36 0-64-17t-43-51-15-81q0-44 14-77t40-51 59-18q37 0 59 17t33 49 10 73v14h-194l0-29 157-1q0-18-4-34t-11-30-20-21-31-8q-34 0-54 32t-19 86q0 56 24 86t64 30q18 0 35-5t36-14l11 26q-22 12-44 18t-43 6m225-44l88-246h37l-104 285h-33l-102-285h39l86 246h-11m208 39h-37v-285h37v285m-18-338q-12 0-19-8t-8-21q0-13 8-21t19-8q11 0 19 8t7 21-7 21-19 8" />
</svg>