<svg id="fnt-Yarndings 12" viewBox="0 0 3049 1000" xmlns="http://www.w3.org/2000/svg"><path id="yarndings-12" class="f" d="M49 310l93 175 93-175h48l-119 218v139h-45v-137l-119-220h49m378 84q49 0 73 22t23 68v183h-32l-8-38h-2q-12 14-24 24t-28 14-38 5q-24 0-44-9t-30-26-11-45q0-40 32-62t97-23l45-2v-16q0-33-14-46t-41-13q-21 0-40 6t-36 14l-13-33q17-9 41-16t50-7m53 142l-40 1q-50 2-69 16t-19 40q0 22 13 33t36 10q34 0 56-19t23-57v-24m251-142q8 0 16 0t16 3l-6 40q-6-1-14-2t-15-1q-15 0-29 6t-25 18-18 29-6 37v143h-44v-268h36l5 49h2q9-15 21-28t27-19 34-7m211 0q48 0 72 23t25 75v175h-44v-172q0-32-14-48t-46-16q-44 0-61 25t-17 72v139h-44v-268h35l7 36h2q9-14 22-23t30-14 33-4m275 278q-50 0-80-35t-30-104 30-104 80-35q21 0 37 5t27 14 19 20h3q0-6-2-19t-1-20v-107h44v380h-35l-7-36h-2q-8 11-19 20t-28 15-36 6m7-37q42 0 59-23t18-70v-8q0-50-17-77t-61-27q-35 0-53 28t-18 76q0 48 18 75t54 26m205-236h44v268h-44v-268m23-101q10 0 17 7t8 21q0 14-8 21t-17 7q-11 0-19-7t-7-21q0-14 7-21t19-7m235 96q48 0 73 23t24 75v175h-43v-172q0-32-15-48t-45-16q-45 0-62 25t-17 72v139h-44v-268h36l6 36h3q9-14 22-23t29-14 33-4m275 0q27 0 48 10t36 30h3l6-35h35v272q0 38-13 64t-40 39-67 13q-29 0-54-5t-43-12v-41q19 10 45 16t54 5q35 0 54-20t20-55v-11q0-6 1-17t1-16h-2q-14 21-35 31t-48 10q-52 0-82-37t-29-102q0-64 29-102t81-37m6 37q-22 0-38 12t-24 35-8 56q0 49 18 75t53 27q21 0 35-6t24-16 14-29 5-41v-11q0-36-9-59t-25-33-45-10m381 162q0 26-13 43t-37 27-57 9q-28 0-48-5t-36-12v-40q16 8 39 14t46 7q34 0 49-11t15-28q0-10-6-18t-20-16-40-18q-26-10-45-20t-28-24-10-36q0-34 27-53t73-18q25 0 46 4t40 14l-15 35q-17-7-36-12t-38-5q-27 0-41 8t-14 24q0 11 6 19t22 15 41 17q25 10 43 20t28 24 9 36m330-283v357h-43v-250q0-14 0-24t1-19 1-18q-8 8-14 13t-17 14l-38 31-23-29 97-75h36m369 317v40h-236v-37l93-94q27-27 46-48t28-42 9-44q0-29-17-45t-46-15q-26 0-46 9t-40 25l-23-29q14-12 30-22t37-15 42-5q34 0 58 11t37 33 13 51q0 28-11 52t-32 48-48 51l-75 74v2h181" />
</svg>