<svg id="fnt-Yatra One" viewBox="0 0 2450 1000" xmlns="http://www.w3.org/2000/svg"><path id="yatra-one" class="f" d="M0 333l63 15 86 135 82-149 69 14-108 197 1 136-70-14v-138l-123-196m349 158h0l-27-45q35-9 77-17t54-8 44 33 45 49q4 6 4 40t-2 79 0 59l-62-14 0-26q-40 41-66 41-24-1-61-46t-37-64q0-16 21-29t51-20 54-11 40-6l1-13q0-24-26-26-24-2-101 21h0l-1 1h0-1l0 0h-1 0l-1 1h0-1l0 0h-1 0-1l0 1h-1 0l-1 0m25 126q4 7 17 9t37-7 55-31l1-44q-132 39-110 73m246-154h-26l-15-35h41v-54l61 14v40h61l15 35h-76v63q0 6 0 17 0 13 0 27t1 25 5 22 8 16 15 8 21-3 31-15l13 15q-29 27-48 37-15 9-42-3t-46-31-19-35v-143m197-35l63 14v37q36-58 62-58 12 0 42 13t49 26l-34 50q-31-23-54-25t-36 9-29 36v151l-63-14v-239m268 63h0l-27-45q35-9 77-17t54-8 44 33 45 49q4 6 4 40t-2 79 0 59l-62-14 0-26q-40 41-66 41-24-1-61-46t-37-64q0-16 21-29t51-20 54-11 40-6l1-13q0-24-26-26-24-2-101 21h0l-1 1h0-1l0 0h-1 0l-1 1h0-1l0 0h-1 0-1l0 1h-1 0l-1 0m25 126q4 7 17 9t37-7 55-31l1-44q-132 39-110 73m635-236q-50-33-99 3-39 30-57 87-20 63 4 108 11 23 34 37 50 30 99-7 39-31 56-88 19-63-7-108-11-20-30-32m78 24q19 19 29 44t9 51-9 54-22 50-34 41-43 28-50 8-53-16q-4-3-15-8t-14-8-13-8-14-9-14-11-17-13-18-17q-18-18-27-42t-8-51 9-53 22-50 34-43 41-29 47-11 49 13q65 35 111 80m95 23l65 14v20q44-41 78-39 16 1 56 39t43 53q2 13 2 166l-62-14q3-171-3-181-9-17-30-11t-43 25-41 41v140l-65-14v-239m349 139l114-77q-36-23-62-17t-38 31-14 63m51 20l-39 28q14 17 31 21t37-5 32-17 31-23l10 10q9 10 19 21l10 10q-44 32-74 42t-59 0q-43-16-81-58-23-25-26-59t8-64 38-50 57-21q20 0 59 26t65 50q0 2-40 31t-78 58" />
</svg>