<svg id="fnt-Yeseva One" viewBox="0 0 2801 1000" xmlns="http://www.w3.org/2000/svg"><path id="yeseva-one" class="f" d="M98 667v-8l30-7v-115l-103-205-25-8v-7h63q26 0 41 11t26 31l74 148 76-168-37-15v-7h95v7l-40 15-88 193v120l30 7v8h-142m360 7q-64 0-100-35t-35-97q0-41 15-71t43-46 64-16 63 14 42 36 15 50q0 13-2 22l-3 8q-21 5-46 8-53 7-106 7 0 58 16 83t44 25q19 0 36-10t26-24 10-31h13q0 20-12 38t-34 28-49 11m-50-132q32 0 52-3 8 0 18-2 0-3 2-11 3-13 3-27 0-41-11-61t-27-19q-37 0-37 123m312 132q-31 0-55-13-12-7-20-14-8 11-17 17-5 3-10 5h-13v-85h20q7 21 19 39 27 39 66 39 21 0 32-11t11-29q0-17-15-28t-46-28q-27-13-44-24t-29-27-11-38q0-30 25-49t80-19q26 0 49 14 11 7 19 14 6-9 17-17 9-5 10-6h13v85h-20q-8-21-19-38-25-39-59-39-14 0-23 10t-10 25q0 19 16 31t49 30q26 13 42 23t27 26 11 35q0 72-115 72m288 0q-64 0-100-35t-35-97q0-41 15-71t43-46 64-16 63 14 42 36 15 50q0 13-2 22l-3 8q-21 5-46 8-53 7-106 7 0 58 16 83t44 25q19 0 36-10t26-24 10-31h13q0 20-12 38t-34 28-49 11m-50-132q32 0 52-3 8 0 18-2 0-3 2-11 3-13 3-27 0-41-11-61t-27-19q-37 0-37 123m315 130l-125-240-25-8v-7h62q26 0 41 10t27 32l59 116 56-136-38-15v-7h93v7l-40 15-95 233h-15m237 2q-44 0-68-19t-24-48q0-20 8-39 4-9 9-16 21-5 45-9 54-9 95-11v-15q0-56-13-77t-42-21q-10 0-18 3l-7 2v75l-6 2q-8 1-14 1-17 0-27-11t-10-27q0-23 23-39t69-16q39 0 67 14t43 38 15 56v135l30 7v8h-45q-30 0-46-19-7-7-11-19-7 13-17 23-22 22-56 22m20-17q19 0 34-20 5-8 11-20v-73q-23 0-44 3-15 2-21 2-2 6-5 15-5 19-5 38 0 28 9 41t21 14m490 17q-49 0-86-21t-56-62-20-99 20-99 56-63 86-21 86 21 57 63 20 99-20 99-57 62-86 21m0-10q20 0 36-16t28-55 11-101-11-101-28-55-36-17-36 17-28 55-11 101 11 101 28 55 36 16m205 3v-8l30-7v-220l-30-8v-7h45q30 0 47 19 6 7 11 18 7-13 16-22 23-23 56-23 28 0 50 12t35 31 13 40v160l30 7v8h-65q-45 0-45-45v-130q0-32-12-49t-26-16q-19 0-34 20-6 8-11 20v185l30 7v8h-140m468 7q-64 0-100-35t-35-97q0-41 15-71t43-46 64-16 63 14 42 36 15 50q0 13-2 22l-3 8q-21 5-46 8-53 7-106 7 0 58 16 83t44 25q19 0 36-10t26-24 10-31h13q0 20-12 38t-34 28-49 11m-50-132q32 0 52-3 8 0 18-2 0-3 2-11 3-13 3-27 0-41-11-61t-27-19q-37 0-37 123" />
</svg>