<svg id="fnt-Yrsa" viewBox="0 0 867 1000" xmlns="http://www.w3.org/2000/svg"><path id="yrsa" class="f" d="M150 569h-28l-89-154q-3-6-11-9l-23-5v-19h111v19l-33 7 73 133h-14l69-133-34-7v-19h93v19l-22 5q-4 1-7 3t-5 6l-80 154m51 98h-131v-19l35-6q10-2 10-11v-78h41v78q0 9 10 11l35 6v19m148-148l-2-13q7-12 18-24t27-20 32-8q5 0 12 1t13 4q1 15-1 34t-4 36h-19l-5-29q-2-6-5-8t-8-3q-14 0-30 7t-28 23m2-59l5 46v127q0 11 11 12l36 4v18h-118v-19l22-3q10-2 10-12v-135q0-11-10-13l-25-3v-18q15-4 31-7t32-3l6 6m135 196q-2-15-2-29t2-27h21l8 28q2 11 8 15 5 3 15 6t23 4q19 0 29-9t10-24q0-11-7-19t-19-13-30-13q-25-10-40-23t-16-38q0-30 21-45t56-15q16 0 33 3t28 9q1 13 0 27t-4 26h-19l-6-25q-2-5-4-8t-6-6-11-5-15-2q-16-1-26 7t-11 23q0 12 7 20t18 12 23 9q17 7 32 15t24 20 9 32q0 29-22 45t-59 16q-21 0-40-5t-30-11m247 15q-25 0-42-13t-17-38q0-21 12-33t31-18 38-7l49-4v19l-43 4q-22 2-34 10t-11 26q0 13 7 21t24 7q16 0 32-7t25-19l5 10q-11 18-31 30t-45 12m-43-164l-10-9q8-21 30-32t52-11q36 0 54 18t18 56v103q0 11 11 12l21 2v17q-5 2-16 4t-19 3q-15 0-24-9t-11-25v-102q0-28-11-39t-34-11q-17 0-33 5t-28 18" />
</svg>