<svg id="fnt-Ysabeau SC" viewBox="0 0 2552 1000" xmlns="http://www.w3.org/2000/svg"><path id="ysabeau-sc" class="f" d="M171 521l-24 22-133-205h45l112 183m6 146h-38v-147h38v147m126-329l-133 203-20-20 113-183h40m182 270q0-14-10-23t-25-15-33-12-32-14-25-19-10-31q0-28 22-46t61-17q24 0 45 6t33 16l-14 26q-14-11-32-17t-35-6q-24 0-36 11t-11 24q0 12 9 21t25 14 33 13 32 15 25 21 10 31q0 28-24 46t-66 18q-29 0-51-9t-37-21l14-26q16 14 36 22t43 8q26 0 39-10t14-26m105 59h-36l99-233h40l100 233h-36l-90-219h10l-87 219m149-82h-135l9-25h114l12 25m213 82h-99v-233h94q34 0 54 15t20 41q0 18-10 33t-27 23-41 9l6-20q28 0 48 7t32 23 11 35q0 20-11 35t-29 23-48 9m-67-207v180h68q27 0 40-11t14-29q0-20-16-31t-50-11h-65v-26h71q21 0 32-10t11-26q0-15-11-26t-36-10h-58m257 207h-34v-233h34v233m140 0h-163v-27h163v27m-30-104h-133v-26h133v26m20-103h-153v-26h153v26m81 207h-36l99-233h40l100 233h-36l-90-219h10l-87 219m149-82h-135l9-25h114l12 25m210 85q-31 0-54-13t-36-35-13-53v-135h35v130q0 37 20 58t53 22q32 0 50-21t18-56v-133h35v127q0 33-14 57t-37 38-57 14m468-83q0-18-9-30t-23-22-31-17-34-16-31-19-23-26-8-35q0-28 13-48t36-30 52-11q21 0 43 5t39 16l-13 33q-15-12-36-19t-39-7q-21 0-35 7t-20 19-6 26q0 16 8 27t23 20 32 16 34 16 31 21 23 27 9 38q0 30-14 51t-39 32-55 11-58-10-44-24l19-31q18 17 42 27t48 9q31 0 48-15t18-41m260 84q-50 0-89-21t-59-58-21-86q0-39 13-71t36-55 56-35 69-12q28 0 53 7t48 21l-17 32q-22-16-44-24t-48-8q-38 0-67 17t-44 49-16 73q0 43 18 76t48 50 67 18q28 0 51-9t41-26l16 29q-25 16-52 25t-59 8" />
</svg>