<svg id="fnt-Familjen Grotesk" viewBox="0 0 3531 1000" xmlns="http://www.w3.org/2000/svg"><path id="familjen-grotesk" class="f" d="M84 667h-46v-325h210v39h-164v94h130v37h-130v155m273 6q-32 0-54-16t-35-46-12-69 12-70 35-45 55-17q28 0 45 12t24 27h10v-32h40v250h-40v-33h-10q-7 15-24 27t-46 12m8-38q31 0 50-25t18-68-18-68-50-26q-30 0-47 24t-16 70 16 69 47 24m228 32h-45v-250h40v38h10q6-22 23-33t42-12q27 0 44 12t25 33h10q7-22 24-33t44-12q41 0 60 27t18 69v161h-45v-151q0-33-10-50t-33-17q-28 0-44 24t-15 59v135h-45v-151q0-33-11-50t-33-17q-28 0-43 24t-16 59v135m409 0h-45v-250h45v250m-23-285q-13 0-20-8t-7-20 7-20 20-7q14 0 21 7t7 20-7 20-21 8m162 285h-49q-9-12-15-27t-6-48v-259h45v253q0 34 8 50t17 28v3m71 83h-47v-3q10-12 18-30t7-47v-253h45v258q0 32-7 48t-16 27m1-368q-13 0-21-8t-7-20 7-20 21-7q13 0 20 7t7 20-7 20-20 8m189 291q-55 0-84-36t-28-95q0-40 12-69t38-46 61-17q52 0 78 34t27 96v13h-173q2 37 19 61t50 23q24 0 38-13t21-37h43q-6 25-18 44t-33 31-51 11m-68-152h129q-2-36-18-56t-44-19q-30 0-47 20t-20 55m272 146h-45v-250h40v37h10q7-21 24-32t45-12q44 0 64 27t19 69v161h-45v-151q0-33-11-50t-37-17q-30 0-47 24t-17 59v135m448 6q-46 0-78-22t-47-60-16-88q0-50 16-87t49-59 81-22q39 0 67 14t44 40 21 61h-46q-5-37-27-57t-61-20q-49 0-73 35t-23 94q0 64 25 99t73 35q41 0 64-24t25-67h-106v-38h150v160h-38v-40h-10q-9 18-30 32t-60 14m253-6h-45v-250h40v42h10q2-10 8-21t20-17 39-7h9v43h-13q-37 0-53 19t-15 61v130m224 6q-57 0-85-36t-27-95 27-96 85-36 85 36q28 36 28 96t-28 95-85 36m0-37q35 0 51-25t16-69-16-70-51-25-50 25-16 70 16 69 50 25m248 31h-49q-10-12-15-27t-6-48v-140h-34v-35h35v-63h43v63h43v35h-42v133q0 34 7 51t18 28v3m160 6q-55 0-83-36t-29-95q0-40 13-69t37-46 62-17q51 0 78 34t27 96v13h-173q2 37 19 61t50 23q23 0 38-13t21-37h42q-5 25-18 44t-33 31-51 11m-68-152h129q-1-36-17-56t-45-19q-29 0-46 20t-21 55m309 152q-35 0-57-12t-34-32-12-42h44q1 12 8 24t19 19 33 8q22 0 34-9t13-25q0-14-10-23t-29-16l-29-11q-20-7-36-16t-26-23-10-34q0-32 23-51t63-20q29 0 48 10t29 28 12 39h-43q-2-16-12-29t-36-13q-19 0-30 9t-10 23q0 14 10 23t30 17l29 10q20 8 36 17t25 22 9 34q0 32-23 52t-68 21m188-6h-44v-334h44v186h20l82-102h50v2l-95 115 105 130v3h-55l-87-111h-20v111" />
</svg>