<svg id="fnt-Farro" viewBox="0 0 1295 1000" xmlns="http://www.w3.org/2000/svg"><path id="farro" class="f" d="M250 341h-153v108h137l-8 49h-129v94l3 75h-58l3-75v-228l-3-72h216l-8 49m45 242q0-29 13-53t36-36 52-13q23 0 45 5t35 12v-30q0-30-16-45t-50-14q-31 0-55 11t-38 32l-5-1 7-57q17-16 42-25t56-9q52 0 80 25t29 72v135l4 75h-52l-2-30q-9 15-34 26t-51 12q-45 0-71-25t-25-67m52-4q0 27 11 38t41 12q20 0 43-9t34-19v-57q-12-7-33-12t-44-5q-27 0-40 13t-12 39m381-216q36 0 50 7l-8 44-7 5q-6-5-19-8t-28-3q-37 0-58 31v153l4 75h-57l3-75v-153l-3-72h43l9 34q13-18 31-28t40-10m227 0q36 0 50 7l-8 44-6 5q-6-5-20-8t-27-3q-37 0-58 31v153l3 75h-57l4-75v-153l-4-72h44l9 34q12-18 31-28t39-10m214 312q-65 0-95-40t-30-119 30-119 95-38 94 38 31 119-31 119-94 40m0-49q28 0 44-10t22-34 7-65-7-66-22-33-44-10-45 10-22 33-6 66 6 65 22 34 45 10" />
</svg>