<svg id="fnt-Farsan" viewBox="0 0 1067 1000" xmlns="http://www.w3.org/2000/svg"><path id="farsan" class="f" d="M201 331q9 0 12 2t4 7q0 2-1 7-3 8-7 10t-14 3l-108 3-15 132 99-5q9 0 12 2t4 6q0 2-1 8-3 8-6 10t-15 3l-96 5-14 128q0 9-3 12t-10 5q-7 2-13 2-4 0-6-3t0-8l33-296-17 1q-9 0-12-2t-3-6l1-8q2-9 5-11t14-2l157-5m179 294q5 0 10 7t5 14q0 4-8 9t-17 11-20 4q-12 0-18-11t-6-26q-12 19-26 29t-32 9q-24 0-38-23t-14-64q0-37 11-70t31-53 49-19q19 0 39 16v-2q1-10 3-13t9-4q12-2 13-2 5 0 6 3t1 8q-25 163-25 199 8-5 18-15 7-7 9-7m-46-78q7-48 8-62-8-7-16-11t-17-4q-23 0-37 20t-20 45-6 48q0 59 29 59 21 0 37-27t22-68m124 16l-11 89q-1 10-4 12t-8 5q-10 2-12 2-4 0-6-3t0-8q10-70 15-119t6-82q0-10 2-13t10-4q12-2 13-2 4 0 6 2t1 9l-2 28q26-38 60-38 7 0 9 1t3 8q0 5-1 8-1 9-4 11t-10 4q-26 3-44 24t-23 66m193-80q-11-15-30-15-13 0-21 6t-8 20q0 12 7 21t27 24q25 19 37 34t11 35q0 29-19 46t-48 17q-21 0-38-11t-29-29q-2-3-2-6 0-5 10-11 6-5 9-5t7 6q8 12 19 19t25 8q16 0 26-10t11-23q0-13-9-23t-26-22l-10-8q-19-15-28-29t-10-34q0-24 17-39t43-14q39 0 56 31 2 3 2 5 0 3-3 5t-9 6q-6 2-8 2-5 0-9-6m221 142q4 0 9 7t5 14q0 4-7 9t-18 11-19 4q-13 0-19-11t-5-26q-12 19-26 29t-32 9q-24 0-39-23t-14-64q1-37 11-70t31-53 49-19q20 0 39 16v-2q1-10 3-13t9-4q12-2 13-2 5 0 7 3t0 8q-24 163-24 199 7-5 18-15 6-7 9-7m-46-78q7-48 8-62-8-7-16-11t-18-4q-23 0-37 20t-20 45-6 48q0 59 30 59 21 0 37-27t22-68m83 113q9-70 15-119t5-82q0-10 2-13t10-4q12-2 13-2 5 0 6 2t1 9l-2 28q26-38 61-38 19 0 32 14t14 42q0 23-3 46t-7 64l-5 45q-1 9-4 12t-9 5q-10 2-12 2-5 0-6-3t-1-8l2-12q14-108 14-141 0-19-5-28t-17-9q-13 0-27 13t-23 35-13 45l-11 89q-2 10-4 12t-9 5q-10 2-12 2-4 0-5-3t0-8" />
</svg>