<svg id="fnt-Faustina" viewBox="0 0 1825 1000" xmlns="http://www.w3.org/2000/svg"><path id="faustina" class="f" d="M169 667h-141v-22l41-8v-264l-41-9v-21h231v82h-25l-11-55h-62l-49 3v125h84l7-30h21v86h-21l-7-30h-84v111l57 7v25m168 3q-25 0-41-8t-22-23-6-31q0-21 9-36t30-26 50-13l45-7v-37q0-15-6-24t-16-14-27-4q-12 0-21 1t-10 3l-7 46q-1 0-4 2t-12 1-16-6-7-17q0-15 11-27t29-20 34-12 28-3q21 0 36 7t22 21 7 29v161l36 7v19q-2 0-8 3t-17 4-23 3q-14 0-20-8t-6-15h-2q-7 6-18 11t-22 9-26 4m20-31q19 0 32-5t13-5v-79q-31 2-51 8t-30 16-9 27q0 38 45 38m250 32q-35 0-54-18t-19-51v-147l-42-7v-19l69-14 14 7v159q0 32 11 45t43 13q11 0 24-5t25-10v-169l-41-7v-19l68-14 14 7v209l36 8v19l-69 10-8-25-1 1q-11 12-31 19t-39 8m264 0q-18 0-35-3t-28-8-16-8l5-61h21l7 39q7 5 19 9t29 5q31 0 41-12t11-31q0-15-8-24t-21-13-28-8q-14-4-27-8t-24-12-17-20-7-31q0-24 12-39t33-24 46-7q16 0 31 2t25 5 16 6l-7 63h-21l-7-40q-3-2-15-5t-26-3q-28 0-39 9t-10 28q0 11 7 18t19 12 27 8q14 4 28 9t25 14 19 20 7 33q0 29-13 46t-34 24-45 7m215-2q-21 0-33-7t-16-20-5-29v-167h-39v-21l39-11 12-52h29v57h71v14l-7 13h-64v164q0 15 6 20t19 5q14 0 26-3t14-4l5 16q-12 11-28 18t-29 7m208-2h-120v-21l40-7v-178l-40-7v-20l69-14 12 4v215l39 7v21m-65-284q-12 0-20-9t-8-22q0-13 9-23t22-10q12 0 20 7t8 23q0 13-8 23t-23 11m210 284h-120v-21l40-7v-178l-40-7v-20l74-14 4 19h2q21-10 43-17t37-7q32 0 48 17t17 51v156l40 7v21h-120v-21l39-7v-149q0-22-11-31t-41-9q-13 0-28 1t-23 5v183l39 7v21m244 3q-26 0-41-8t-22-23-7-31q0-21 10-36t30-26 50-13l45-7v-37q0-15-6-24t-17-14-26-4q-13 0-21 1t-10 3l-8 46q0 0-4 2t-12 1-16-6-7-17q0-15 12-27t29-20 34-12 27-3q22 0 36 7t22 21 8 29v161l35 7v19q-1 0-8 3t-16 4-24 3q-14 0-19-8t-6-15h-2q-8 6-18 11t-22 9-26 4m20-31q19 0 32-5t13-5v-79q-31 2-51 8t-30 16-10 27q0 38 46 38" />
</svg>