<svg id="fnt-Felipa" viewBox="0 0 1111 1000" xmlns="http://www.w3.org/2000/svg"><path id="felipa" class="f" d="M215 476l-67-1q-3 19-9 47t-6 35q-10 58-38 86t-69 28q-2 0-3 0l-28 0 24-32q18 4 35 4t24-8 13-33q11-55 21-126t17-107 16-49h-20q-50 0-71 27t-20 94l-35 27q0-57 21-98t70-69q18-10 75-10h78q60 0 76 0l-28 29-116 0q-3 9-5 17l-17 107q4 0 9 0l57 2q26 0 49-5l2 2q-9 13-24 23t-31 10m193-46q-25 0-42 31t-24 79q31-20 55-49t24-45-13-16m-83 68q19-40 47-64t53-24 25 20q0 48-110 122-1 5-1 14 0 56 34 81 50-38 111-123l5 3q-36 53-72 93t-61 52q-25-6-38-34t-12-64 19-76m293-257q14 0 24 3l-20 27q-14-3-30-3t-26 7-16 18-11 27-7 28-4 30-4 32-9 69q-14 119-31 161l2 1q48-35 114-130l5 3q-38 56-77 101t-66 57q-1-12-1-28t7-66 18-118 15-96q6-43 41-83t76-40m-38 431q-1-12-1-29t4-45 13-78 14-80l-35 26 1-6q3-5 9-13t24-21 33-17q-3 20-10 76-15 114-30 154l1 2q43-31 105-117l6 3q-36 53-73 93t-61 52m47-349l26-24q1 4 1 19 0 33-33 50 5-14 6-45m97 408l3 8-107 58-4-6q36-19 45-37t17-59 18-125 20-129l-37 23 1-5q4-5 10-13t24-22 33-16q-6 28-11 63t-8 49l2 0q42-78 98-112 9 14 12 31t4 50-13 74-37 73-48 31q-17 0-32-15-6 21-11 46t-9 35-10 20l1 2q1 0 39-24m23-91q35 0 48-30t13-109q0-37-5-49-16 7-43 41t-35 70-9 69q4 3 15 5t16 3m249-223q36 0 48 2l-3 15q-4 23-12 69-13 84-30 137l1 1q44-32 105-117l5 3q-36 53-72 93t-61 52q-1-6-1-24t3-37 8-45 9-43l-2-1q-31 52-57 87t-60 65q-7-22-7-65t13-91 40-75 73-26m-19 25q-40 0-52 16t-18 64-6 76 3 35q5 0 16-17t12-17q19-23 47-78t29-76q-10-3-31-3" />
</svg>