<svg id="fnt-Fenix" viewBox="0 0 1136 1000" xmlns="http://www.w3.org/2000/svg"><path id="fenix" class="f" d="M170 514h-67v124l44 18-3 11h-124l-3-11 28-12q9-3 12-7t3-12v-255l-43-17 3-11h233v68l-15 4-24-44-98-2q-13 0-13 15v104h80l16-34 11 3v93l-11 3-10-23q-3-9-7-12t-12-3m98 40q0-55 32-86t73-30 64 24 21 68v17l-7 7h-140q1 39 21 62t53 23 62-13l7 13q-6 6-15 12t-27 13-39 7q-47 0-76-31t-29-86m100-84q-24 0-39 7-6 8-12 24t-6 32l107-3q0-60-50-60m301 157v-107q0-25-12-37t-38-11-52 7v161l40 16-3 11h-112l-3-11 22-10q9-3 12-7t4-12v-149l-35-6-3-11 64-23 10 4 1 14 2 1q35-19 71-19 72 0 72 76v126l40 16-3 11h-112l-3-11 22-10q9-3 12-7t4-12m131 0v-149l-35-6-3-11 69-23 10 4v198l39 16-3 11h-112l-3-11 23-10q9-3 12-7t3-12m18-241q-12 0-20-8t-7-20 7-19 20-8 20 8 8 19-8 20-20 8m265 94l-49 68 64 93 37 15-3 11h-65l-63-91-44 64 38 16-3 11h-102l-3-11 24-11q15-6 22-17l53-73-59-86-38-16 3-11h64l58 85 42-58-38-16 3-11h103l3 11-25 10q-14 6-22 17" />
</svg>