<svg id="fnt-Finlandica" viewBox="0 0 2170 1000" xmlns="http://www.w3.org/2000/svg"><path id="finlandica" class="f" d="M87 667h-42v-350h196v39h-154v116h141v39h-141v156m274 0h-40v-215h-35v-35h75v250m0-300h-40v-50h40v50m125 300h-40v-250h40v14q10-8 26-14t37-6q26 0 44 9t29 28 10 40v179h-40v-174q0-21-13-34t-39-12q-26 0-40 12t-14 34v174m306 0h-20q-26 0-42-15t-15-39v-321h40v321q0 8 4 13t13 6h20v35m241-16l-37 22-16-25q-3-4-7-1-12 11-26 18t-35 7q-35 0-56-19t-21-51q0-23 9-38t28-24 42-8h59v-36q0-22-13-35t-39-13q-20 0-35 6t-32 18l-12-35q19-14 38-20t43-6q45 0 66 23t22 57v128l22 32m-119-13q27 0 43-13t16-35v-22q0-10-9-7l-28 6h-19q-20 0-31 8t-11 25q0 17 10 27t29 11m219 29h-40v-250h40v14q10-8 26-14t36-6q26 0 45 9t29 28 10 40v179h-40v-174q0-21-14-34t-39-12q-25 0-39 12t-14 34v174m308 5q-43 0-66-24t-27-62q-1-13-1-24t-1-21q0-10 1-21t1-23q4-38 27-62t66-23q18 0 34 5t26 14v-139h40v375h-40v-9q0-5-4-6t-7 1l-25 16q-6 1-11 2t-13 1m5-34q26 0 40-13t15-32v-102q0-21-15-33t-40-11q-30 0-43 15t-16 38q-2 21-2 42t2 41q2 23 15 39t44 16m237 29h-40v-215h-35v-35h75v250m0-300h-40v-50h40v50m170 307q-43 0-68-25t-29-62q-3-25-3-45 0-10 1-21t2-23q5-38 29-63t68-24q22 0 38 5t33 17l-12 32q-14-9-28-14t-30-4q-28 0-43 15t-17 38q-1 24-2 42t2 42q2 22 17 38t43 16q16 0 31-5t30-13l11 30q-19 12-36 18t-37 6m316-23l-36 22-17-25q-3-4-7-1-12 11-25 18t-35 7q-36 0-57-19t-21-51q0-23 10-38t28-24 42-8h58v-36q0-22-12-35t-40-13q-19 0-35 6t-31 18l-13-35q19-14 39-20t43-6q44 0 66 23t22 57v128l21 32m-118-13q27 0 42-13t16-35v-22q0-10-9-7l-27 6h-19q-20 0-32 8t-11 25q0 17 11 27t29 11" />
</svg>