<svg id="fnt-Fira Sans Condensed" viewBox="0 0 4218 1000" xmlns="http://www.w3.org/2000/svg"><path id="fira-sans-condensed" class="f" d="M89 667h-46v-344h167l-5 36h-116v120h100v36h-100v152m171-263h45v263h-45v-263m22-124q13 0 21 8t9 21-8 21-22 8q-13 0-21-8t-8-21 8-21 21-8m212 118q13 0 22 3l-7 43q-10-3-21-3-22 0-36 18t-21 53v155h-45v-263h39l3 52q20-58 66-58m230 209q0 16 5 23t14 12l-10 31q-19-3-30-12t-16-28q-25 40-71 40-35 0-56-22t-20-58q0-42 27-64t79-22h34v-22q0-28-12-40t-36-12q-28 0-64 14l-11-32q44-18 82-18 85 0 85 86v124m-98 32q35 0 54-41v-62h-29q-65 0-65 55 0 23 10 36t30 12m380-323q31 0 53 10t43 30l-23 27q-17-15-34-23t-36-7q-25 0-41 14t-15 36q0 15 6 26t21 19 41 18q30 11 50 24t30 32 10 49-13 52-39 37-59 13q-63 0-107-45l25-26q18 16 37 25t43 9q30 0 47-17t18-46q0-26-14-41t-52-28q-49-17-70-39t-21-59q0-25 12-46t36-32 52-12m329 291q0 16 4 23t14 12l-9 31q-20-3-31-12t-15-28q-26 40-72 40-35 0-55-22t-21-58q0-42 28-64t78-22h34v-22q0-28-11-40t-37-12q-27 0-64 14l-11-32q44-18 82-18 86 0 86 86v124m-98 32q35 0 53-41v-62h-29q-65 0-65 55 0 23 11 36t30 12m296-242q32 0 49 21t18 57v192h-45v-186q0-26-8-37t-26-11q-33 0-60 47v187h-45v-263h39l3 39q31-46 75-46m214 0q46 0 81 30l-19 27q-16-11-30-17t-29-5q-21 0-33 9t-11 27q0 17 11 26t43 20q39 12 57 30t18 50q0 37-27 58t-67 21q-54 0-91-35l23-25q32 25 67 25 22 0 35-11t14-30q0-14-5-23t-17-15-36-14q-37-13-54-30t-16-45q0-21 11-37t30-26 45-10m379-81q27 0 47 8t40 26l-24 28q-15-12-29-18t-31-6q-39 0-62 33t-23 107q0 72 23 106t62 35q19 0 33-7t31-21l23 28q-37 38-90 38-38 0-68-20t-47-60-16-99q0-58 17-98t47-60 67-20m230 81q50 0 78 36t28 102q0 64-28 101t-79 37q-50 0-79-36t-28-102q0-65 29-102t79-36m0 36q-30 0-45 25t-16 77q0 103 60 103t60-103q0-53-15-77t-44-25m289-36q31 0 49 21t18 57v192h-45v-186q0-26-9-37t-26-11q-33 0-60 47v187h-45v-263h39l4 39q30-46 75-46m288-105l45 5v370h-40l-3-35q-26 41-69 41t-67-36-23-101q0-41 11-73t34-49 49-17q38 0 63 32v-137m-56 346q18 0 31-10t25-30v-132q-23-33-53-33-26 0-42 25t-15 77q0 53 14 78t40 25m366-111q0 11-1 24h-153q2 46 19 66t45 20q18 0 32-5t30-18l20 26q-37 33-84 33-52 0-80-36t-28-100 27-102 75-38q47 0 73 34t25 96m-43-8v-5q0-83-55-83-25 0-39 21t-17 67h111m223-122q32 0 49 21t18 57v192h-45v-186q0-26-8-37t-26-11q-33 0-60 47v187h-45v-263h39l3 39q31-46 75-46m214 0q46 0 81 30l-19 27q-16-11-30-17t-29-5q-21 0-33 9t-11 27q0 17 11 26t43 20q39 12 57 30t18 50q0 37-27 58t-67 21q-54 0-91-35l23-25q32 25 67 25 22 0 35-11t14-30q0-14-5-23t-17-15-36-14q-37-13-54-30t-16-45q0-21 11-37t30-26 45-10m330 130q0 11-1 24h-153q2 46 19 66t45 20q18 0 32-5t30-18l20 26q-37 33-84 33-52 0-80-36t-28-100 27-102 75-38q47 0 73 34t25 96m-43-8v-5q0-83-55-83-25 0-39 21t-17 67h111m248-227l45 5v370h-40l-3-35q-26 41-69 41t-67-36-23-101q0-41 11-73t34-49 49-17q38 0 63 32v-137m-56 346q18 0 31-10t25-30v-132q-23-33-53-33-26 0-42 25t-15 77q0 53 14 78t40 25" />
</svg>