<svg id="fnt-Fira Sans" viewBox="0 0 2039 1000" xmlns="http://www.w3.org/2000/svg"><path id="fira-sans" class="f" d="M98 667h-48v-345h183l-5 38h-130v118h112v37h-112v152m195-264h46v264h-46v-264m23-126q14 0 23 9t9 22-9 22-23 9q-14 0-23-9t-9-22 9-22 23-9m233 120q14 0 26 3l-9 45q-12-3-23-3-24 0-39 18t-24 56v151h-46v-264h40l4 54q11-30 29-45t42-15m256 208q0 16 5 24t17 12l-11 32q-20-3-33-12t-18-28q-27 40-79 40-39 0-61-22t-23-58q0-42 30-64t86-23h41v-19q0-28-14-40t-41-12q-29 0-71 14l-12-34q49-18 91-18 47 0 70 23t23 65v120m-108 33q39 0 62-41v-60h-35q-73 0-73 54 0 23 12 35t34 12m422-322q35 0 59 10t48 30l-26 29q-20-15-39-23t-40-7q-27 0-44 13t-18 36q0 15 6 25t22 19 48 18q32 10 54 22t34 31 14 52q0 30-15 53t-43 36-65 13q-72 0-117-45l26-29q21 17 42 26t48 9q32 0 53-16t21-46q0-17-6-28t-23-20-45-18q-53-16-78-39t-24-61q0-26 13-46t39-32 56-12m363 289q0 16 5 24t17 12l-11 32q-20-3-33-12t-18-28q-27 40-79 40-39 0-61-22t-23-58q0-42 30-64t86-23h41v-19q0-28-14-40t-41-12q-29 0-71 14l-12-34q49-18 91-18 47 0 70 23t23 65v120m-108 33q39 0 62-41v-60h-35q-73 0-73 54 0 23 12 35t34 12m326-241q36 0 56 22t21 59v189h-46v-183q0-28-11-39t-31-12q-21 0-37 12t-30 35v187h-46v-264h40l4 39q14-21 34-33t46-12m241 0q27 0 48 8t41 22l-19 29q-18-11-35-17t-34-5q-22 0-35 9t-13 25 12 25 44 18q44 11 66 30t22 52q0 39-31 59t-73 21q-60 0-100-35l25-28q33 26 74 26 26 0 41-11t15-29q0-14-5-22t-19-15-40-13q-42-11-61-29t-18-47q0-21 12-38t34-26 49-9" />
</svg>