<svg id="fnt-Fjalla One" viewBox="0 0 1842 1000" xmlns="http://www.w3.org/2000/svg"><path id="fjalla-one" class="f" d="M34 667v-417h160v51h-96v123h75v50h-75v193h-64m227-383q-17 0-27-11t-11-30q0-22 11-31t27-9q19 0 29 10t10 30q0 19-10 30t-29 11m-30 411v-365h61v357q0 37-9 56t-24 25-33 7q-7 0-15-1t-15-5v-36q2 1 4 1t4 0q11 0 19-9t8-30m184-215q9-5 20-10t20-8v-40q0-13-2-24t-6-18-19-7-23 11-11 39v14h-47q-4-19-4-33 0-38 24-58t63-19q34 0 52 9t27 29 7 47v255h-47l-5-29q-9 14-26 23t-37 10q-22 0-36-12t-21-29-7-40q0-42 20-67t58-43m13 143q8 0 15-4t12-9v-106q-5 2-10 4t-13 7q-13 8-24 24t-11 41q0 19 7 31t24 12m151 44v-444h61v444h-61m124 0v-444h62v444h-62m184-187q10-5 20-10t20-8v-40q0-13-1-24t-6-18-19-7-24 11-10 39v14h-47q-5-19-5-33 0-38 25-58t63-19q33 0 52 9t26 29 8 47v255h-48l-4-29q-10 14-26 23t-37 10q-22 0-36-12t-21-29-7-40q0-42 19-67t58-43m14 143q8 0 15-4t11-9v-106q-4 2-10 4t-12 7q-13 8-24 24t-12 41q0 19 8 31t24 12m358 47q-15 0-33-4t-34-18-26-42-10-75v-148q0-37 6-62t19-40 25-23 28-10 25-2q12 0 25 2t28 10 25 22 18 40 7 63v148q0 46-11 74t-27 42-34 19-31 4m0-49q19 0 28-14t9-53v-188q0-40-9-55t-28-15q-19 0-28 15t-9 55v188q0 38 9 53t28 14m162 46v-337h48l6 36v1q14-24 32-32t37-8q29 0 46 20t16 62v258h-62v-251q0-22-7-30t-20-9q-9 0-18 6t-16 17v267h-62m239-138v-64q0-38 7-63t17-41 24-22 26-10 24-2q22 0 41 9t30 32 11 64q0 20-2 41t-6 37h-110v34q0 44 7 62t29 18q11 0 21-9t9-37v-15h51v16q0 48-23 69t-66 22q-44 0-67-33t-23-108m62-60h60q1-6 1-17t0-17q0-33-7-48t-22-15q-16 0-24 17t-8 60v20" />
</svg>