<svg id="fnt-Fleur De Leah" viewBox="0 0 2718 1000" xmlns="http://www.w3.org/2000/svg"><path id="fleur-de-leah" class="f" d="M59 762q-11 0-23-4t-18-12-8-22q0-2 0-4t1-5q3-12 15-21t25-7q4-8 13-8 7 0 12 5 2 1 4 1t5 0q4 0 7-1t4-3q2-5 4-1 1 4-1 8t-10 6q-4 0-9-2l1 1q1 4 1 6 0 3-1 6t0 6q0 5 3 8t8 3q-4 7-12 7-6 0-11-5t-6-12q0-10-3-16t-8-6h-1q-9 0-19 8t-12 19q0 2-1 4t0 4q0 14 11 22t25 8q23 0 48-17t51-45 51-62 49-68h-65q-39 0-58 17t-18 37q0 11 5 21t14 18l-1 2q-8-2-15-10t-12-17-4-19q0-23 23-39t66-17h16q-6-2-13-7t-6-11q0-5 4-10t8-5h2q2 0 2 1 0 2-3 4-1 2-1 4 0 6 6 13t10 10q4 0 5 1h40q6-8 12-17t11-17q11-17 26-36t33-38 37-35q-32-7-66-15t-69-14-64-5q-29 0-54 6t-43 23q-17 16-26 33t-9 35q0 24 17 40t51 15q0-1 0-3t0-2q0-13 10-20 7-5 12-7t11-2q5-1 11-5t7-11q0-1-1-4 1 0 3 0t4 5q2 2 2 5t1 6q0 10-6 22t-13 19q-5 5-11 7t-11 2q-10 0-14-5-2-2-3-3-26 1-45-6t-31-20q1 3 2 6t0 7q0 5-1 10 3 2 5 5t1 7q0 6-2 11t-5 9q-4 3-12 9t-17 5q1-2 6-7t4-15q0-5-1-10-2-8 4-12t12-3q1-3 1-5t0-4q0-9-4-20 0-1 0-2-12-18-12-41t13-45 39-37q18-10 39-15t44-4q36 0 76 8t78 19 76 21q20-16 37-22t31-6q6 0 10 0t9 2q11 3 17 10t6 14q0 9-10 16t-31 7q-9 0-20-2-11-1-23-4t-24-5q-15 13-33 36t-35 51-34 53h38q23 0 37-2t17-10l4 1q-4 10-17 14 0 0-1 0-9 2-17 7t-13 10q5 3 7 8t3 11q0 4-2 8-2 7-6 11t-7 7q-2 2-5 7t-2 8q0 6 5 9-2 2-4 2-9 0-15-14t-5-26q0-15 9-24t17-8q7-8 11-12-8 0-17 0t-19 0h-22q-7 12-14 23t-13 20q-45 72-95 114t-102 42m395-342q14 0 20-6t6-11q0-10-10-14t-18-4q-15 0-29 7t-27 16q7 2 19 5t24 5q9 2 15 2m-35 251q-2 0-4 0t-5-1q-15-3-21-13t-6-24q0-11 3-24t8-26q9-22 21-49t29-55 35-55 38-48q11-13 23-23t23-17q20-12 36-12 10 0 16 4t6 15q0 7-3 15t-9 19q-13 21-33 44t-42 44-47 40-43 30q-10 18-19 38t-15 38-5 32q0 10 4 16t12 6q11 0 26-10t30-28 30-40q2-3 5-3 1 0 2 2t0 4q-25 38-48 59t-47 22m28-146q16-9 37-27t44-42 40-45 30-39q5-9 8-16t2-11q0-9-8-9-10 0-28 15-12 10-23 23t-16 19q-23 30-44 66t-42 66m94 146q-13 0-24-6t-17-20q-4-9-4-21 0-14 6-27 7-17 20-33t30-29 33-21 30-7q11 0 17 6 5 4 5 13 0 11-9 25t-23 25q-9 6-22 10t-27 5q-4 0-9-1t-9-1q-4 4-9 12t-8 20-3 20q1 13 7 18t17 5q19 0 36-12t33-30 24-35q2-2 3-2t1 0q2 0 3 1t0 4q-6 11-17 25t-24 28-30 22q-7 3-15 5t-15 1m11-87q23 0 42-13t28-29q3-4 3-8t1-5q0-9-9-9-6 0-14 3t-12 7q-10 7-20 17t-18 20-12 16q2 0 5 0t6 1m178 88q-10 0-17-7t-8-20q0-5 3-14-7 8-17 18t-20 16-21 6q-6 0-11-2-8-3-11-10t-3-14q0-14 5-29t11-24q-1 1-2 1-2 0-4-2t0-4q4-4 11-15t16-23 17-23 12-17q4-1 11-4t15-2q7 0 11 4-6 9-16 23t-22 30-22 34-17 33-7 28q0 8 9 8 11 0 25-13t29-32 30-40q22-34 35-53t12-19q4-1 11-3t14-2q8 0 10 4-4 6-15 21t-24 34-25 40q-4 6-9 15t-9 16q-4 8-6 13t-1 8q0 10 10 10 6 0 14-5t15-11q9-9 19-23t23-36q1-2 4-2 3 0 3 2t0 3q-10 16-19 30t-21 28q-11 12-24 18t-24 6m127 0q-10 0-18-6t-7-17q0-13 6-27t15-27 11-15q9-12 16-25t8-20q0-8-6-10-6-2-12-4t-9-3q-1 3-7 12t-13 21-13 23-10 16q-3 4-5 4t-3-2 1-5q15-23 26-44t15-26q-5-3-8-12t-3-17q0-10 4-18t14-8q6 0 9 6t2 14q0 7-1 14t-3 9l-3 8q6 0 18 2t25 3q7 1 12 6t5 12-5 18-17 24q-6 7-15 18t-16 22-11 17q-6 11-6 19 0 10 10 10 12 0 25-9t25-22 22-26 15-20q2-3 5-3 3 0 3 2t-1 4q-5 8-17 23t-26 30-35 24q-6 2-12 3t-10 2m376 74q-2 0-5-3-5-4-5-14 0-14 7-24 8-9 18-9 4 0 6 1 3-6 12-10-10-2-19-5t-18-7q-33 33-68 50t-72 15q-17-1-31-11t-15-29q0-3 0-5t1-5q3-12 14-20t23-11q2 0 4 0t3 0q3 0 4 0 3 1 5 2 1 1 2 1t2 1q5 1 12-3t7-8v-1q0-3 3-3t4 2 1 7q0 2-1 4t-6 6q-3 2-9 2-3 0-7-1 3 3 5 9t2 15q0 3 3 6t6 3q2 0 4-2-4 10-14 10-7 0-13-6t-8-15q0-8-5-14t-10-5q-3 0-6 1l0 1q-12 8-15 21 0 2-1 4t0 5q0 15 12 24t27 8q25 0 53-20t58-52q-6-5-13-10-7-7-13-14t-11-13q-5-4-10-5t-8-2q0 3-2 6-2 5-7 5t-6 0q-2 0-3 0t-3 0q-5 0-9 2t-5 8q-2-2-2-6 0-6 3-12t6-8q3-4 7-6t7-1q11 0 13 9 7 0 14 2-4-6-7-12t-4-12q-6 1-11 1t-11 1q-29 0-47-19t-17-46q0-12 3-26t12-27q16-28 44-48t62-35 64-20q-11-9-26-15t-37-5q-4 0-8 0t-8 1q-8 1-15 7t-11 24-17 25-24 9q-9 0-13-4t-3-6q8 1 14-4t6-16q1-21 12-33t25-13q-3-4-6-8-1-3-1-4 0-6 4-11t9-6h1q3 0 3 2 0 0-3 4-2 2 0 8t8 12 9 7q3 2 2 3l1 0q5 0 10-1t9 0q24 0 41 6t28 16q31-5 69-5 24 0 49 2t49 8q7-6 14-12t14-10q17-13 33-18t31-5 23 4 12 10l-4 3q-4-5-12-8t-17-3q-12 0-27 5t-34 20q-9 6-20 17 35 10 63 27t46 42 18 62q0 33-15 61t-38 51-56 38-67 25-70 8q-11 0-22-1t-21-2q-2 0-4 0t-5 1q-4 1-7 3t-5 5q4 3 4 9 0 7-4 12-4 4-8 6t-6 3q-3 1-7 4t-3 8q0 2 2 4-1 0-1 0t0 1m72-217l32-47q14-22 36-49t47-51q-21-4-43-7t-44-2q-18 0-35 1t-32 4q7 9 11 19t5 23l0-1q5-9 16-13v-1q1-7 8-13t20-7q8 0 18 4t17 10 8 14v2q0 3-1 4t-1 2q-1-4-5-6t-7-2q-7 0-12 4-4 2-9 5t-14 3q-7 0-13-4t-8-11q-8 3-13 13-3 7-4 14 0 1 0 3t0 2l-1 3q-3 27-17 54l6 3q10 5 19 12t16 15m-178 58q10 0 21-3-1-5-2-10t0-9q0-27 16-48t42-26q5-2 8-6t4-6q-7-1-11-7t-4-12q0-7 2-12t5-8q1-2 2-5t1-6q0-3-2-6t-5-4q3-2 6-2 6 0 10 3t6 6q5 6 7 14t2 15q0 9-5 16t-10 8q-1 3-3 5t-3 6q9-1 19 0t21 5q18-32 18-64 0-14-5-28t-12-23l-16 3q-40 10-69 27t-47 36-27 34q-3 5-5 10t-4 10q2 4 8 9t11 4q2 0 4-1 2-2 4-2 3 0 3 3 0 3-3 7t-9 4q-4 0-8-2-5-2-8-7t-4-9q-5 15-5 30 0 23 12 37t35 14m179 96q38 0 77-13t72-37 55-54 28-67q1-10 1-19 0-30-14-51t-38-35-53-22q-19 21-39 51t-39 60-35 57q5 10 7 20 1 1 1 1 2 8 8 16t17 8q1-9 12-12 2-1 4-1t4 0q3 0 4 0t4 1q5 1 11-1t5-8q1 0 3 2t1 6q0 8-8 16t-15 11q-5 2-9 2-12 0-16-9-1-2-1-3-5 0-12-3t-10-9v5q0 18-11 33t-27 17l-1-2q17-4 24-18t8-30q0-18-8-34l-7 12q-18 28-36 52t-38 44q16 7 34 11t37 3m-139-106q7-3 13-7t14-8q18-12 32-28t24-31q-4-1-9-2t-9-1q-19 0-34 11t-23 28-8 38m43 77q23-27 46-57t44-61q-7-9-16-16t-19-12q-1-1-3-1t-2-1q-10 17-25 33t-32 28q-19 13-35 19 2 15 10 31t23 29q2 2 4 4t5 4m389 17q-13 0-25-6t-17-20q-3-9-3-21 0-14 5-27 7-17 21-33t30-29 33-21 29-7q11 0 18 6 4 4 4 13 0 11-8 25t-23 25q-10 6-23 10t-26 5q-5 0-10-1t-9-1q-3 4-8 12t-8 20-3 20q0 13 7 18t16 5q19 0 37-12t32-30 25-35q1-2 2-2t2 0q1 0 2 1t1 4q-7 11-17 25t-24 28-31 22q-6 3-14 5t-15 1m10-87q24 0 43-13t28-29q2-4 3-8t1-5q0-9-10-9-6 0-13 3t-13 7q-9 7-20 17t-18 20-12 16q3 0 6 0t5 1m441 152q-3 0-7-1-3-2-4-4t3-2q4 0 7-5t4-9-4-11-10-12q-21-9-41-19t-41-19q-26 22-60 35t-69 13q-6 0-11-1t-10-2v1q-4-2-9-2-4 0-8 1t-7 4q-5 3-7 8t-1 7q1 2 1 2 0 2-2 2t-4-2q-7-4-7-11 0-10 13-15 6-2 13-1-18-9-27-25t-9-31q0-21 16-38t52-17q16 0 36 5t44 14q12 5 26 12t29 16l1-1q16-16 28-36t23-38q-12-1-24-3t-23-4q-40-9-66-25t-39-35q-3-2-6-2t-6-1q-2 0-4 0t-3 1q3 5 3 10 0 11-9 19-6 5-12 7t-10 3q-5 2-11 6t-6 11q0 3 2 5h-1q-1 0-3-1t-4-3q-4-5-4-14 0-10 5-22t10-18q6-5 12-8t12-2q8 0 13 4 7-4 18-3-13-23-11-48-4-9-10-13-6-5-12-5-3 0-5 2 0 2-2 2-3 0-1-6 3-10 12-10 8 0 15 8 3 4 4 10 5-21 19-39t36-29 49-11q20 0 43 7 29 10 44 29t15 39q0 20-12 35 1 5-2 11t-10 10q-4 1-9 1-12 0-23-5-1 0-3-1t-3 0q-3 0-7 1t-4 4q-1 2-2 3t-1-1q-1-3-1-4 0-7 6-11 6-5 15-7t14 0q1 0 2 0-2-2-2-6 0-4 3-6 1-1 2-1t0 3q0 1 0 2 0 4 3 6t8 3q3-1 6-3t5-2q9-13 9-29 0-18-14-36t-41-28l-3-1q4 3 8 8 5 6 5 13 0 12-14 13-4 0-5-2t1-3q5-1 5-8 0-4-3-10-1-4-6-8t-10-7q-3 0-6 0t-5 0q-24 0-44 11t-33 28-17 39q4-4 9-8t12-5v-1q2-6 10-11t17-5q3 0 5 0t4 1q9 2 18 9t16 15 7 16q0 6-2 7t-3 3q0-7-6-10t-11-2q-4 0-8 1-5 2-11 3t-15 1q-8-1-14-7t-7-14q-7 2-13 6t-10 14q0 20 10 40t33 35 61 25q13 3 25 4t25 3q11-19 22-40t24-41q14-24 30-48t35-44 46-32q10-6 21-8t20-2q23 0 39 12t17 36q0 12-6 27t-19 33q-38 50-90 79t-113 34q-14 20-28 40t-31 39q-1 2-3 3t-3 4l25 14h1q9 3 19 3 8 0 12-2-1-1-1-3t0-2q0-6 4-11t10-7q6-2 12-2 2 0 4 0t4 1q6 1 13-2t6-10q1 1 3 2t2 8q0 9-9 20t-17 14q-7 3-12 3-11 0-17-8-9 6-20 4 35 20 68 36t61 20q2 1 4 1t4 0q20 0 31-10t12-20q0-12-11-18l3-5q16 10 16 24 0 13-15 24t-36 12q-2 0-4 0t-5-1q-20-2-42-10t-46-16q6 5 9 11t3 12q0 6-4 11t-10 4m-6-190q55-6 103-35t85-75q14-18 20-32t6-26q0-13-8-20t-21-7q-20 0-51 20t-62 66q-18 28-36 55t-36 54m-216 148q2 0 3 0t4 0q-2 0-3-1-5-3-9-5t-6-6q-3-4-3-10 0-4 3-8t8-4q4 0 5 2t-1 2q-4 1-4 8 0 2 1 6 1 4 5 8t10 8q31-3 55-16t45-32q-14-7-27-12-27-12-49-17t-39-4q-30 0-45 12t-15 27q0 16 16 29t46 13m354-23q-13 0-24-6t-17-20q-4-9-4-21 0-14 6-27 7-17 20-33t30-29 33-21 30-7q11 0 17 6 5 4 5 13 0 11-9 25t-23 25q-9 6-22 10t-27 5q-4 0-9-1t-9-1q-4 4-9 12t-8 20-3 20q1 13 7 18t17 5q19 0 36-12t33-30 24-35q2-2 3-2t1 0q2 0 3 1t0 4q-6 11-17 25t-24 28-30 22q-7 3-15 5t-15 1m11-87q23 0 42-13t28-29q3-4 3-8t1-5q0-9-9-9-6 0-14 3t-12 7q-10 7-20 17t-18 20-12 16q2 0 5 0t6 1m100 86q-14 0-22-11t-7-28q0-18 10-43 5-13 16-28t26-26 31-20 34-8q14 0 19 7t5 17q0 10-3 20l28-43q3-2 15-2 9 0 17 2t5 6q-4 5-14 15t-21 24-21 30q-5 8-15 25t-15 31q-3 9-3 15 0 10 9 10 5 0 14-4t16-10q16-13 28-31t22-32q0-1 1-1t3-1 3 2-1 4q-14 21-28 39t-27 30-31 11q-13 0-21-8t-7-21q0-6 1-13t3-12q-8 11-20 23t-24 22-26 9m4-10q10 0 21-8t23-21 21-27q8-12 16-25t13-27 5-23q0-16-11-16-8 0-19 7t-21 18-20 23-15 25q-1 3-7 15t-11 25-5 23q0 11 10 11m244 12q-27 0-27-28 0-10 7-24t19-29 21-26 15-18q15-18 15-25 0-6-6-6-5 0-10 2-18 7-37 24t-37 40-30 46-22 39q0 1-5 2t-10 1q-5 0-9-1t-4-2q0 0 9-17t25-44 35-60 41-66q18-27 36-54t41-51 51-39q11-7 19-9t16-2 11 1q12 3 12 18 0 11-6 26t-16 30-19 26q-27 30-53 46t-47 23-32 9q-4 6-11 17t-17 24q-5 7-5 9 0 0 2-1t5-4q13-13 27-24t29-16q10-4 21-4 10 0 17 3t8 13q0 7-7 18-7 8-19 24t-24 34-20 34-9 24q0 7 7 7 10 0 22-8t25-21 23-25 16-22q2-1 4-1 5 0 2 5-15 24-32 42t-35 29-32 11m10-177q9-2 26-10t39-22 45-40q9-10 20-25t18-28q4-9 6-15t2-10q0-9-8-9t-20 7-22 16q-15 14-32 34t-33 41-26 38-15 23" />
</svg>