<svg id="fnt-Foldit" viewBox="0 0 949 1000" xmlns="http://www.w3.org/2000/svg"><path id="foldit" class="f" d="M159 355h-91v-42h127v0l-36 42m-91 312h-44v-194l44 37v157m97-157h-97l-44-37v0h141v37m-97-37h-44v-160h44v160m288-18h-112v-42h89l23 42v0m-44 212h-89l-23-42v-1h112v43m-68-43h-44v-188l44-23h0v211m69 43h-1v-212h44v189l-43 23m132 0h-1l-43-23v-351h44v374m52 0h-52v-43h52v43m183-213h0l-44-41v-120h44v161m0 1h-104v-42h74l30 42v0m-44 212h-82l-22-42v-1h104v43m-60-43h-44v-188l43-23h1v211m61 43h-1v-212h44v189l-43 23m135 0h-44v-228l43-24h1v252m-44-261h0v-56h44v33l-44 23m91 49h0v-128h44v86l-44 42m109 0h-109l44-42h65v42m-65 212h-1l-43-23v-189h44v212m74 0h-74v-43h85v1l-11 42" />
</svg>