<svg id="fnt-Fondamento" viewBox="0 0 2587 1000" xmlns="http://www.w3.org/2000/svg"><path id="fondamento" class="f" d="M60 349h-46q40-34 48-34h213q-4 1-11 7t-12 10-9 8q-11 9-16 9h-120v132h119q-3 1-10 7t-12 10-10 8q-11 9-16 9h-71v57q0 44-17 61h78q-3 1-10 7t-12 10-10 8q-11 9-15 9h-83q22-35 22-59v-93h-34q17-14 34-27v-139m397 107q12 14 19 32t7 37-5 35-15 34-23 30-29 25q-33 22-67 22-40 0-67-31-27-30-27-70 0-34 20-69 31-52 85-70 17-6 36-6t36 8 30 23m-116 1q-24 0-35 24-9 19-9 42t6 44 19 36q27 35 69 35 25 0 36-25 9-18 9-42 0-47-27-80t-68-34m206 193l0-157q0-16-4-22-8-10-21-10t-24 4q6-2 17-11 18-18 26-21 15-5 26-5t17 3 8 10q3 8 3 29 45-40 85-40 22 0 38 13 17 15 17 36v121q0 18 4 24 7 13 24 13 10 0 19-3-22 18-30 24-19 12-34 12t-20-5-8-13q-3-8-3-35v-91q0-44-29-58-10-4-24-4-36 0-39 52 0 13 0 24v75q0 16 9 21 4 3 9 3t11-3q-6 5-13 11t-15 11q-19 14-30 14-19 0-19-22m332-206q17-9 36-14t32-6 22 2v-80q0-26-9-35-4-3-11-3-7 0-22 3 61-46 90-61v349q0 20 4 26 7 12 25 12 8 0 15-1-7 6-14 12t-15 11q-17 12-30 12t-19-3-9-7q-5-7-5-27-50 38-80 38-45 0-69-30-22-28-22-73 0-38 24-72 22-33 57-53m90 170v-121q-11-18-28-27t-37-9-30 7-18 17q-11 18-11 46t5 47 16 34q23 31 67 31 9 0 19-6 17-10 17-19m281-119v99l0 17q0 20 10 25 5 2 10 2 9 0 18-4-10 4-17 10t-13 12q-18 15-36 15t-19-20q0-6 0-11-44 30-81 30-31 0-43-18-4-7-4-19t7-24 19-22q20-19 48-31 21-9 54-10v-11q0-39-7-52t-19-21-26-6q-26 0-45 10 27-22 39-29 26-15 47-15t31 6 17 16q10 18 10 51m-115 134q6 5 14 7t23 2 31-8v-51h-40q-21 0-37 3-3 10-3 20t3 16 9 11m374-158q54-41 83-41 19 0 30 15 9 14 9 34v117q0 22 3 28 6 13 25 13 9 0 18-3-21 18-30 24-19 12-33 12t-20-5-9-13q-2-8-2-35v-92q0-27-5-38t-13-18-17-5-15 2-10 8q-14 17-14 56v70q0 18 4 24 7 13 24 13 10 0 19-3-22 18-30 24-19 12-34 12t-20-5-8-13q-3-8-3-35v-92q0-27-5-38t-12-18-18-5-16 3-9 11-7 14-4 17q-2 15-2 31v75q0 16 9 21 4 3 9 3t11-3q-28 24-40 30t-18 6q-19 0-19-22v-141q0-8 1-17t-2-15q-5-16-27-16-10 0-21 4 7-2 17-11 19-18 27-21 15-5 26-5t16 4 8 10q3 7 3 29 32-25 61-37 12-4 21-4t16 3 12 9q10 12 11 29m370 150q-33 38-83 47-11 2-28 2t-32-9-24-25q-18-28-18-70 0-27 21-60 20-33 50-55 31-24 60-24 14 0 24 11 10 11 10 24t-6 25-15 22-22 21-25 18q-18 12-45 28 8 29 28 45t51 16q26 0 54-16m-74-97q7-11 7-21t-2-17-7-12q-9-12-24-12-37 0-37 75 0 14 2 27 43-12 61-40m130 126l1-157q0-16-5-22-7-10-21-10t-24 4q7-2 17-11 19-18 26-21 15-5 26-5t17 3 8 10q3 8 3 29 46-40 85-40 22 0 38 13 17 15 17 36v121q0 18 4 24 7 13 24 13 10 0 19-3-22 18-30 24-19 12-33 12t-21-5-8-13q-3-8-3-35v-91q0-44-28-58-11-4-25-4-35 0-38 52-1 13-1 24v75q0 16 9 21 4 3 9 3t11-3q-5 5-12 11t-15 11q-20 14-31 14-19 0-19-22m276-195h-32l32-25v-35q13-9 19-14t10-7 8-4q10-7 11-8v60h78q-3 0-16 11-25 22-31 22h-31v131q0 45 26 52 7 2 14 2 12 0 19-4t13-5q-15 22-41 34-14 6-30 6t-25-5-14-15q-10-17-10-44v-152m349 1q12 14 19 32t7 37-5 35-15 34-23 30-29 25q-33 22-67 22-40 0-68-31-27-30-27-70 0-34 21-69 31-52 85-70 17-6 36-6t36 8 30 23m-116 1q-24 0-36 24-8 19-8 42t6 44 18 36q27 35 70 35 25 0 36-25 8-18 8-42 0-47-26-80t-68-34" />
</svg>