<svg id="fnt-Frank Ruhl Libre" viewBox="0 0 3678 1000" xmlns="http://www.w3.org/2000/svg"><path id="frank-ruhl-libre" class="f" d="M156 667h-131v-15q19 0 27-2t10-9 2-19v-241q0-13-2-19t-10-9-27-2v-14h233v78h-13q-4-24-11-38t-21-18-42-5h-43q-11 0-15 3t-3 15v121h59q20 0 29-4t12-14 6-24h12v103h-12q-2-15-6-25t-12-13-29-4h-59v110q0 13 2 19t13 9 31 2v15m251 0h-115v-15q17 0 24-2t8-8 2-17v-149q0-13-3-17t-11-4h-17v-15l59-10h13v47h2v148q0 12 2 18t10 7 26 2v15m-38-142l-2 1v-46q3-7 8-16t13-17 18-15 24-5q18 0 27 10t10 29q0 14-7 23t-21 9q-13 0-20-7t-6-16q0-8 3-12t6-8 3-6q0-2-2-3t-5-1q-7 0-16 6t-16 17-13 26-4 31m297 147q-9 0-17-3t-11-11-4-26v-136q0-24-10-38t-36-13q-12 0-23 3t-16 8-6 9 3 6 8 7 4 13q0 10-6 16t-17 7q-12 0-19-7t-6-20q0-15 9-28t31-23 52-8q36 0 55 14t19 55v119q0 20 4 27t14 7q4 0 7-1t7-3l3 13q-5 3-16 8t-29 5m-107 0q-26 0-44-12t-18-38q0-24 17-44t50-35 82-20v15q-53 10-79 27t-25 45q0 18 10 26t29 9q13 0 25-5t21-12 18-14v16q-13 12-26 21t-28 15-32 6m435-5h-110v-15q15 0 22-1t9-7 2-18v-121q0-15-4-27t-15-20-27-7q-23 0-38 13t-26 29v-22q12-15 25-25t27-14 33-5q34 0 50 18t17 54v126q0 12 2 17t9 8 24 2v15m-150 0h-109v-15q16 0 23-2t9-8 2-17v-149q0-13-3-17t-12-4h-17v-15l59-10h14v37h1v159q0 12 2 18t9 7 22 1v15m294 0h-111v-15q17 0 24-2t9-8 2-17v-258q0-13-3-17t-12-4h-17v-15l60-10h14v304q0 12 2 17t9 8 23 2v15m130 0h-97v-15h8q6 0 9-1t3-4-3-8-7-10l-62-84 25-31 73 98q13 16 20 25t14 12 12 3h5v15m-85-180l-97 104v-20l87-96q12-14 12-21t-9-7h-9v-14h91v14h-8q-21 0-36 11t-31 29m356 180h-125v-15q18 0 26-2t10-8 2-18v-244q0-12-2-19t-11-8-25-2v-14h134q33 0 56 9t36 27 13 45q0 24-9 41t-25 27-37 16v1q18 5 29 14t17 24 10 38l3 19q3 17 8 29t13 19 21 6v15h-65q-6-7-11-18t-9-28l-12-62q-5-25-18-36t-39-11h-31v112q0 12 3 18t11 8 27 2v15m-41-294v121h31q38 0 56-17t19-53q0-36-19-53t-56-17q-20 0-26 5t-5 14m307 300q-34 0-50-18t-17-54v-126q0-13-3-17t-12-5h-17v-14l61-9h14v163q0 15 4 28t15 20 27 7q16 0 28-7t21-19 17-23v21q-8 13-20 25t-29 20-39 8m158-6h-76v-35h-1l0-157q0-13-3-17t-12-5h-17v-14l61-9h13v195q0 12 2 17t9 8 24 2v15m293 0h-110v-15q15 0 22-2t9-7 2-17v-121q0-15-4-27t-15-20-28-7q-22 0-36 12t-27 31v-23q11-14 24-24t27-15 34-5q34 0 50 18t17 54v126q0 12 2 17t9 8 24 2v15m-150 0h-109v-15q16 0 23-2t9-8 2-17v-258q0-13-3-17t-12-4h-17v-15l61-10h13v305q0 11 2 17t9 7 22 2v15m-30-197h-4v-5h4v5m322 197h-111v-15q17 0 24-2t9-8 2-17v-258q0-13-3-17t-12-4h-17v-15l60-10h14v304q0 12 2 17t9 8 23 2v15m397 0h-238v-15q19 0 27-2t10-8 2-20v-241q0-13-2-19t-10-9-27-2v-14h124v14q-19 0-27 2t-10 9-2 19v229q0 18 4 26t18 11 38 3q28 0 45-6t25-20 15-43h14l-6 86m154 0h-111v-15q16 0 23-2t9-8 2-17v-149q0-13-3-17t-12-4h-17v-15l61-10h13v195q0 12 2 18t9 7 24 2v15m-57-281q-13 0-20-8t-8-19q0-12 8-20t20-8q8 0 14 3t10 10 3 15q0 11-8 19t-19 8m229 287q-23 0-39-7t-27-16-20-15l11-22q5 8 12 15t15 15 19 10 23 4q31 0 47-25t17-80q0-49-15-77t-46-27q-16 0-28 6t-23 14-17 15l1-22q6-6 17-14t27-14 40-6q44 0 67 30t24 88q0 45-14 73t-36 41-55 14m-87-6h-16v-298q0-14-3-19t-14-4h-16v-15l62-10h13v328h-11l-15 18m30-209h-5v-6h5v6m318 209h-114v-15q16 0 23-2t9-8 2-17v-149q0-13-3-17t-12-4h-17v-15l59-10h14v47h1v148q0 12 2 18t11 7 25 2v15m-38-142l-2 1v-46q4-7 9-16t12-17 18-15 24-5q18 0 28 10t10 29q0 14-7 23t-22 9q-13 0-19-7t-7-16q0-8 3-12t6-8 3-6q0-2-1-3t-5-1q-8 0-16 6t-17 17-12 26-5 31m234 147q-55 0-81-32t-25-88q0-39 11-67t36-43 59-15q32 0 51 11t30 28 14 39 4 42v5h-168l1-16h121q0-30-5-51t-16-32-31-10q-21 0-35 11t-19 34-7 55q0 21 3 41t10 35 22 24 38 9q21 0 35-8t23-20 13-25l13 6q-5 17-16 32t-30 25-51 10" />
</svg>