<svg id="fnt-Fredoka" viewBox="0 0 1866 1000" xmlns="http://www.w3.org/2000/svg"><path id="fredoka" class="f" d="M61 672q-10 0-15-3t-6-8-2-12v-304q0-13 5-18t19-4h201q7 0 12 1t7 7 3 15-3 14-8 7-12 1h-179v104h125q7 0 11 1t8 6 2 14q0 9-2 14t-8 5-12 2h-124v135q0 7-1 12t-7 8-14 3m308 0q-9 0-14-3t-6-8-1-12v-197q0-8 1-13t6-7 15-2q9 0 13 2t7 6 2 10l-2 15q3-6 8-13t12-12 17-8 26-4q7 0 14 1t13 4 11 6 7 7 3 9q0 11-7 18t-15 8q-6 0-9-2t-6-3-8-4-16-2q-7 0-16 3t-15 9-13 15-4 21v134q0 7-2 12t-6 7-15 3m295 2q-30 0-53-10t-40-27-25-40-8-48q0-35 16-62t44-43 65-15q25 0 44 7t34 21 22 29 7 32q0 26-12 36t-29 10h-145q0 22 12 38t31 24 38 9q14 0 24-2t17-4 13-5 10-5 8-3q5-1 9 0t7 7q3 4 4 8t1 7q0 7-12 16t-34 14-48 6m-80-139h126q9 0 14-3t5-13q0-14-9-26t-23-18-34-7q-22 0-40 9t-29 24-10 34m341 137q-23 0-43-9t-36-26-24-39-9-48q0-26 9-48t24-39 36-25 43-9q24 0 44 9t34 25 22 39 7 48q1 27-7 49t-22 38-34 26-44 9m6-43q21 0 38-10t26-28 10-40q0-24-10-42t-26-27-38-10-38 10-27 27-9 42q0 23 9 40t27 28 38 10m98 43q-11 0-16-4t-6-14v-313q0-7 1-12t6-8 15-3 14 3 6 8 2 12v308q0 7-2 12t-6 8-14 3m194 3q-25 0-47-10t-40-26-27-39-10-49q0-26 9-49t27-39 39-27 48-9q34 0 62 16t44 44 17 63q0 28-10 50t-27 40-39 25-46 10m-1-44q21 0 39-10t29-29 11-42-11-42-28-28-41-10q-22 0-40 11t-28 28-11 41q0 24 11 42t29 29 40 10m248-84l109 86q10 7 10 14t-7 17q-6 7-11 9t-9 0-12-7l-113-92v75q0 7-2 12t-6 8-14 3q-9 0-14-3t-7-8-1-12v-309q0-7 2-12t6-8 14-2q10 0 15 2t6 8 1 13v177l83-79q5-6 10-8t11-1 11 8q9 10 8 17t-9 15l-81 77m374 124q-11 0-16-4t-6-14l2-25q-5 8-15 18t-28 18-41 8q-24 0-45-10t-37-26-24-39-9-47q0-25 9-47t25-38 36-26 45-9q22 0 37 5t27 15 20 21l-1-21q-1-11 4-16t17-4q10 0 14 3t6 8 1 14v193q0 7-1 12t-6 8-14 3m-97-41q20 0 37-11t26-28 10-41q0-23-10-41t-27-28-37-10q-23 0-41 10t-27 29-10 41q0 23 10 40t28 28 41 11" />
</svg>