<svg id="fnt-Freeman" viewBox="0 0 1701 1000" xmlns="http://www.w3.org/2000/svg"><path id="freeman" class="f" d="M104 667h-74v-375h195l-7 61h-114v96h93l-7 61h-86v157m210 0h-70v-274l67-8v70q6-33 24-54t41-21q20 0 29 10l-15 68q-10-8-25-8-22 0-37 22t-14 59v136m204 6q-37 0-61-19t-34-52-10-73q0-43 12-77t36-52 57-18q34 0 55 15t32 42 10 60q0 23-2 48h-129q0 18 3 35t11 27 21 11q17 0 23-13t9-30l62 13q-7 39-33 61t-62 22m-34-170h66v-7q0-14-2-29t-10-24-19-9q-13 0-20 10t-11 26-4 33m269 170q-37 0-61-19t-34-52-10-73q0-43 12-77t36-52 57-18q34 0 55 15t32 42 10 60q0 23-2 48h-129q0 18 3 35t11 27 21 11q17 0 23-13t9-30l62 13q-7 39-33 61t-62 22m-34-170h66v-7q0-14-2-29t-10-24-19-9q-13 0-20 10t-11 26-4 33m241 164h-70v-274l67-8v62q8-35 27-51t43-16 38 14 19 47q9-32 27-46t42-15q29 0 44 21t15 69v197h-70v-177q0-27-6-37t-16-11q-15 0-25 21t-9 60v144h-70v-177q0-27-6-37t-16-11q-15 0-25 21t-9 60v144m356 6q-30 0-48-22t-18-58q0-33 16-54t45-31 63-9v-26q0-15-6-27t-21-11q-13 0-19 11t-9 27l-62-13q7-40 32-60t60-20q49 0 72 27t23 74v112q0 20 2 38t8 36h-68q-7-18-7-37-8 18-23 30t-40 13m4-90q0 15 6 25t21 9q12 0 20-8t7-22v-51q-26 0-40 13t-14 34m243 84h-70v-274l67-8v62q8-35 28-51t47-16q30 0 47 20t18 65v202h-70v-174q0-30-6-42t-21-11q-18 0-29 24t-11 59v144" />
</svg>