<svg id="fnt-Fresca" viewBox="0 0 1197 1000" xmlns="http://www.w3.org/2000/svg"><path id="fresca" class="f" d="M67 522l-2 143-44 1 4-319 150-5v42l-107-3v101l86-4-2 45-85-1m140 13l-2-103 36-4 5 48 3-1q26-50 69-50 20 0 41 13l-17 38q-18-11-35-11t-30 14-20 40-7 60 2 88l-46 2q1-81 1-134m358 30l-147 1q0 32 18 51t40 19 39-7 23-14l7-8 20 27q-29 35-90 35-49 0-74-29t-26-82 32-91 83-39q41 0 59 28t19 72q0 19-3 37m-36-29q0-36-11-54t-38-19-45 24-18 50l112-1m88 64q14 15 37 24t44 10 30-10 11-22-14-19-34-10-39-9-34-21-14-38q0-36 25-57t59-22q53 0 89 30l-18 33q-12-10-34-19t-42-8-31 10-12 29q0 12 14 18t35 11 41 11 35 20 14 36q0 31-24 51t-56 20-60-11-45-26q6-7 23-31m376-152l-21 32q-9-6-27-12t-31-5q-34 0-50 25t-15 59 17 63 43 28q20 0 41-11t31-23l21 25q-13 16-38 28t-57 12q-49 0-73-31t-25-84 31-89 82-37q33 0 71 20m101 223q-33 0-54-20t-20-51 23-53 56-21 54 21v-19q0-31-12-49t-30-17-32 8-27 26l-23-26q34-44 86-44 81 0 81 92t0 149h-35l-2-22-1-1q-7 10-26 18t-38 9m60-74q-1-18-15-28t-35-10-32 11-12 28 12 27 32 12 35-10 15-30" />
</svg>