<svg id="fnt-Fuggles" viewBox="0 0 808 1000" xmlns="http://www.w3.org/2000/svg"><path id="fuggles" class="f" d="M77 703q-12-25-18-61t-6-75q0-7 0-14t0-14q-5 0-11 1t-10 3q-4 0-12 3t-11 5q-2 2-4 2-4 0-1-8t7-9q3-2 12-5t15-3l16-2q3-27 8-54t14-49q-6 2-13 5t-12 5q-5 3-14 8t-18 10-14 9q-2 2-4 2-2 0-2-2 0-4 4-7 3-3 11-8t15-10 13-7q9-4 19-8t20-7q9-23 24-41 8-9 21-18t26-8q8 0 15 5t14 17q1 3 1 4 0 4-3 4t-5-4q-4-12-16-12-11 0-24 8t-18 15q-4 6-8 12t-8 12q11-3 22-5t22-4q9-1 18-2t19 0q23 0 42 3t32 11q4 2 8 8t5 12q0 4-2 8t-8 9q-5 4-7 4-1 0-1-1t0 0q0-1 3-4 6-5 6-10 0-5-6-10t-9-6q-29-13-72-13-8 0-17 0t-18 2q-11 2-22 4t-21 5q-12 24-19 52t-10 55q3 0 6 0t7 0q23 0 43 2t30 8q6 3 6 8 0 3-5 1-7-4-22-6t-33-2q-17 0-33 1 0 7-1 14t0 15q0 35 6 68t16 64q1 3 1 6 0 4-2 4-3 0-7-5m86-38q-2 1-4 1t-2 0q-7 0-7-6 0-4 3-10l16-36q4-10 9-24t5-27q0-2 0-5t-3-2q-3 0-8 3t-6 4q-2 0-2-1 0-3 5-6t10-5 8-2q7 0 10 5t3 11q0 7-5 18t-11 25-13 25-10 18q-1 3-1 5 0 3 3 3t5-2q8-6 20-19t23-27 14-25q1-5 8-5 3 0 6 1t2 5q0 1-1 4t-2 5q-5 12-11 24t-5 25q0 5 1 6t3 2q4 0 11-7t13-15 9-11q2-3 4-3 2 0 2 1 0 2-4 6t-10 13-14 16-14 8q-8 0-12-5t-4-13q0-6 2-14t5-13q-6 6-15 17t-19 20-17 12m94 151q-21 0-31-11t-9-28q0-9 3-20 7-26 26-45t43-30 49-15q3-19 5-35t4-25q-8 7-19 18t-25 18-25 9q-1 0-2 0t-3-1q-14-3-14-15 0-11 10-27t26-31 32-26 32-10q4 0 6 0 6 1 11 6t4 11q0 3-2 2-2 0-2-3-2-4-8-5l-11-1q-12 0-25 8t-25 21-21 26-10 25q-1 1-1 3t0 3q0 3 2 5t7 3q7 0 16-5t18-14 18-16 11-12q1-5 2-12t5-14q6-7 11-7 7 0 5 10-1 5-7 12t-10 12q0 10-2 28t-4 38q2-1 4-1t3 0q7 0 7 2 0 3-15 6-3 21-7 46t-14 47-26 36-42 14m9-9q19-2 32-17t20-36 12-43 7-37q-23 4-45 15t-38 28-24 42q-3 9-3 18 0 14 9 23t30 7m106 9q-22 0-31-11t-10-28q0-9 3-20 8-26 26-45t43-30 49-15q4-19 6-35t3-25q-7 7-19 18t-24 18-25 9q-1 0-3 0t-2-1q-14-3-14-15 0-11 10-27t25-31 33-26 31-10q5 0 7 0 5 1 11 6t4 11q0 3-3 2-1 0-1-3-2-4-8-5l-12-1q-11 0-25 8t-25 21-20 26-11 25q0 1-1 3t0 3q0 3 2 5t7 3q7 0 16-5t19-14 17-16 12-12q1-5 2-12t5-14q5-7 10-7 8 0 5 10-1 5-7 12t-9 12q0 10-2 28t-5 38q3-1 4-1t4 0q6 0 6 2 0 3-15 6-2 21-7 46t-14 47-25 36-42 14m9-9q19-2 31-17t20-36 13-43 6-37q-22 4-44 15t-39 28-24 42q-3 9-3 18 0 14 9 23t31 7m142-127q-11 0-19-9t-7-27q0-25 9-56t23-61 33-58 39-42q8-6 19-12t20-5q9 0 14 6t6 20q0 17-10 36t-28 38-36 34-38 28-32 17q-1 5-4 19t-3 28q0 13 4 22t15 10q14 1 27-7t26-20 23-27q3-3 5-3t0 4q-6 8-16 19t-21 22-24 17-25 7m-3-100q22-8 44-24t42-38 31-42 11-39q0-12-4-16t-9-4q-6 0-14 4t-13 10q-14 11-27 29t-25 39-21 42-15 39m96 92q-9 1-15-4t-6-15q0-11 5-26t12-28 13-22q-1 0-2-3t-1-5 1-2 6 3q3-6 8-13t12-14 13-5q8 0 10 7t2 13q0 10-7 16t-19 8q-5 0-10-2t-5-2q-4 7-10 21t-11 27-5 24q0 5 3 9t10 4q10-1 21-9t24-19 19-22q1-2 2-2t1 2 0 2q-7 11-19 24t-26 23-26 10m30-96q7-1 10-6t2-12q0-2-1-5t-3-2q-4 1-10 9t-8 13q1 1 5 2t5 1m69 94q-2 0-9 0t-7-3q0 0-1-1l-1-2q0-1 3-1 5 0 9-1t9 0 11-2 11-5 5-9q0-4-3-8t-5-5q-10-7-21-14t-18-18-8-24 9-27 23-25 29-19 28-7q9 0 18 4t10 15q0 3-2 9t-6 6q-1 0-2-2t0-2q0-3 1-6t0-5q0-9-9-9-12 0-26 6t-28 18-22 25-9 27q0 10 9 19t19 16 20 15 9 15q0 8-9 13t-20 6-17 1" />
</svg>