<svg id="fnt-Abhaya Libre" viewBox="0 0 2703 1000" xmlns="http://www.w3.org/2000/svg"><path id="abhaya-libre" class="f" d="M194 667h105q0-11-7-13-3 0-5 0h-17l-112-280h-18l-109 280h-31v13h87q0-11-8-13-2 0-5 0h-24l37-95h102l37 95h-32v13m-56-240l46 118h-92l46-118m311 245q43 0 72-33 27-31 27-79 0-54-29-84-22-22-54-22-53 0-76 48-2 4-4 9v-162h-73v12h37v264q0 23-13 27-7 2-24 2v13h62l4-33q21 34 63 37 4 1 8 1m1-198q40 0 52 49 5 18 5 41 0 68-37 89-12 6-26 6-37 0-52-39-7-20-7-47 0-59 29-86 16-13 36-13m231 180h-24v-105q0-44 31-64 12-9 26-9 30 0 41 28 6 13 6 29v92q0 23-11 27-7 2-23 2v13h107q0-11-7-12-2-1-5-1h-25v-121q0-53-35-72-13-7-29-7-36 0-61 27-10 11-15 25v-157h-74v12h37v264q0 23-13 27-7 2-24 2v13h110q0-11-7-12-2-1-5-1m357 18q37 0 41-46 1-3 1-5l-13-1q-4 36-19 36-13-1-13-25v-103q0-70-70-74-5 0-9 0-55 0-73 26-6 8-6 16 0 15 14 18 3 0 5 0 11 0 17-14 6-18 9-21 9-13 29-13 46 3 47 51v31q-115 0-131 47-3 10-3 20 0 37 32 51 14 6 28 6 36 0 60-25 9-9 14-19 5 43 40 44m-98-20q-29 0-36-30-2-7-2-15 0-33 38-41 20-5 58-5v39q-7 33-36 47-11 5-22 5m192 92q-7 0-11-11-6-15-11-18-4-3-10-3-16 0-18 13 0 2 0 4 0 18 21 27 10 3 21 3 38 0 66-47 12-19 23-45l72-179q5-13 11-15 3-1 8-1 9 0 11-6 1-2 1-7h-74v13h35l-62 156-67-156h33v-13h-96v13h24l88 195q-27 64-51 74-7 3-14 3m377-72q38 0 42-46 0-3 0-5l-12-1q-4 36-19 36-13-1-14-25v-103q0-70-69-74-5 0-9 0-55 0-74 26-5 8-5 16 0 15 14 18 2 0 5 0 11 0 16-14 7-18 10-21 9-13 28-13 46 3 48 51v31q-115 0-132 47-3 10-3 20 0 37 33 51 13 6 28 6 36 0 60-25 9-9 13-19 6 43 40 44m-97-20q-30 0-37-30-1-7-1-15 0-33 38-41 20-5 58-5v39q-8 33-36 47-11 5-22 5m256 15h214l3-98h-10l-8 33q-12 45-39 51-6 1-12 1h-66v-268h41v-12h-123v12h40v268h-40v13m336-13h-24v-195h-76v12h39v154q0 23-15 27-7 2-24 2v13h113q0-11-8-12-2-1-5-1m-18-266q0-17-15-25-6-2-12-2-17 0-24 16-2 5-2 11 0 18 16 25 5 2 10 2 18 0 24-16 3-5 3-11m195 284q43 0 72-33 27-31 27-79 0-54-29-84-22-22-54-22-53 0-76 48-2 4-4 9v-162h-73v12h37v264q0 23-13 27-7 2-24 2v13h61l5-33q21 34 63 37 4 1 8 1m1-198q40 0 52 49 5 18 5 41 0 68-37 89-12 6-26 6-37 0-52-39-7-20-7-47 0-59 29-86 16-13 36-13m242 180h-35v-97q0-44 27-71 11-10 18-11 8 0 15 12 8 14 15 16 3 1 6 1 14 0 18-14 1-3 1-6 0-22-22-27-5-1-9-1-30 0-53 25-10 12-17 26l-2-48h-71v12h37v154q0 23-13 27-7 2-24 2v13h121q0-11-7-12-2-1-5-1m189-188q34 0 46 29 4 10 4 20 0 25-24 30-12 3-35 2l-51-1q2-57 36-74 12-6 24-6m85 154l-12-5q-17 37-55 42-5 1-9 1-52 0-65-61-4-17-4-38l58 1q60 1 77-11 13-10 13-28 0-33-34-53-23-14-55-14-61 0-87 51-14 26-14 60 0 60 44 89 26 18 59 18 53 0 77-39 4-6 7-13" />
</svg>