<svg id="fnt-Aboreto" viewBox="0 0 2376 1000" xmlns="http://www.w3.org/2000/svg"><path id="aboreto" class="f" d="M50 667h-37l135-350h31l134 350h-36l-62-164h-114l-51 164m104-324h-3l-46 148h105l-56-148m321 324h-81v-350h70q54 0 84 22t30 63q0 29-18 50t-49 28v3q43 6 67 30t25 61q0 44-34 68t-94 25m-11-338h-36v150h36q79 0 79-75t-79-75m11 162h-47v164h47q92 0 92-82t-92-82m203 1q0-39 13-72t39-58 58-39 72-13 71 13 58 39 39 58 14 72-14 71-39 58-58 39-71 14-72-14-58-39-39-58-13-71m38 0q0 51 18 89t50 59 76 22 75-22 51-59 18-89-18-89-51-60-75-21-76 21-50 59-18 90m431 175v-350h67q53 0 82 22t29 62q0 31-18 52t-53 27v3q33 7 54 31t32 61q9 33 18 51t21 26 27 12v3h-21q-22 0-36-8t-24-27-19-53q-15-51-39-73t-58-21h-3v-9h3q80 0 80-74 0-73-75-73h-33v338h-34m475 0h-154v-350h152v24l-87-11q-23-3-31-3v152q6 0 31-1l82-5v23l-82-5q-25-2-31-2v168q9 0 31-3l89-12v25m219 0h-34v-340q-8 0-31 3l-98 12v-25h292v25l-98-12q-24-3-31-3v340m170-175q0-39 13-72t39-58 58-39 72-13 71 13 58 39 39 58 14 72-14 71-39 58-58 39-71 14-72-14-58-39-39-58-13-71m38 0q0 51 18 89t50 59 76 22 75-22 51-59 18-89-18-89-51-60-75-21-76 21-50 59-18 90" />
</svg>