<svg id="fnt-Abyssinica SIL" viewBox="0 0 3260 1000" xmlns="http://www.w3.org/2000/svg"><path id="abyssinica-sil" class="f" d="M334 645v22h-118v-22l28-2q2 0 4-3t2-5q0-1 0-1l-35-91h-115l-34 90q0 0 0 1 0 3 3 6t4 3l30 2v22h-101v-22l29-6 117-316h38l116 309q1 5 3 7t7 2l22 4m-226-126h98l-49-131-49 131m489 16q0 37-14 67t-47 47-82 18h-72v-333h-38v-16l64-20h20v140q9-4 28-11t41-7q33 0 55 15t34 43 11 57m-51 10q0-48-20-72t-56-24q-8 0-21 3t-21 5v186t9 0 16 0q44 0 69-22t24-76m329-119v19l-27 3-96 234q-3 8-9 23t-16 31-20 26q-9 9-20 14t-23 5q-18 0-28-9t-9-19q0-17 16-30l47 21q8-8 17-22t15-30 10-26l-85-218-28-3v-19h111v19l-24 2q-8 0-8 8 0 2 0 3l59 147 59-147q1-2 1-4 0-7-8-7l-24-2v-19h90m186 168q0 37-25 58t-70 21q-23 0-43-5t-27-8v-66h26l6 42q8 5 19 10t25 4q22 0 34-12t11-27q0-20-14-30t-40-22l-7-3q-27-13-42-27t-14-37q0-33 23-53t67-19q22 0 39 4t25 7v59h-26l-4-35q-5-4-16-8t-22-3q-21 0-31 9t-10 24q0 17 12 27t44 24q26 12 43 27t17 39m199 0q0 37-25 58t-70 21q-23 0-43-5t-27-8v-66h26l6 42q8 5 19 10t25 4q22 0 34-12t11-27q0-20-14-30t-40-22l-7-3q-27-13-42-27t-14-37q0-33 23-53t67-19q22 0 39 4t25 7v59h-26l-4-35q-5-4-16-8t-22-3q-21 0-31 9t-10 24q0 17 12 27t44 24q26 12 43 27t17 39m126-251q0 13-9 22t-21 9-22-9-9-22q0-13 9-22t22-8 21 8 9 22m26 304v20h-118v-20l25-1q10-1 10-11v-179h-34v-17l61-19h20v215q0 4 3 7t7 4l26 1m290 0v20h-110v-20l21-1q4-1 7-4t4-7v-130q0-24-11-36t-38-13q-14 0-28 4t-26 11v164q0 10 10 11l21 1v20h-113v-20l24-1q11-1 11-11v-174h-35v-16l61-19h21v25q21-12 43-22t39-9q33 0 50 20t17 57v138q0 4 3 7t7 4l22 1m119-304q0 13-8 22t-22 9-22-9-9-22q0-13 9-22t22-8 22 8 8 22m26 304v20h-118v-20l25-1q10-1 10-11v-179h-34v-17l61-19h20v215q0 4 3 7t7 4l26 1m233-27v28q-17 9-38 17t-46 8q-35 0-61-17t-40-44-14-64q0-42 17-71t44-43 59-14q33 0 56 12t22 38q0 14-9 22t-20 7q-9 0-15-3t-11-5v-44q-11-6-21-6-22 0-38 13t-24 35-9 52q0 28 9 51t28 36 46 13q17 0 33-5t32-16m263 27v20h-74l-7-30t-7 5-20 13-27 12-29 6q-27 0-46-18t-19-50q0-14 5-26t20-23 45-21 78-21v-21q0-50-46-50-13 0-23 3t-13 4v43h-36q-7 0-13-2t-6-12q0-21 16-34t40-19 48-6q31 0 49 9t24 27 6 39v140q0 4 3 7t8 4l24 1m-81-27v-87q-33 8-53 17t-30 17-13 17-3 18q0 15 10 28t28 13q10 0 21-3t20-9 15-8 5-3m555-47q0 25-13 48t-43 39-76 15q-27 0-47-5t-31-9-11-5v-88h31l7 56q1 3 3 7t5 4q2 0 15 6t36 6q32 0 53-16t20-43q0-16-8-27t-22-20-29-16-29-14q-20-10-38-21t-28-27-11-42q0-30 15-52t42-34 59-12q27 0 47 5t37 11l4 1v78h-29l-7-48q-1-3-3-5t-5-4q-2-1-12-6t-31-5q-30 0-48 17t-17 42q0 23 18 38t51 28q46 17 71 39t24 59m168 72v22h-131v-22l29-2q6 0 8-4t3-7v-266q0-4-3-7t-8-4l-29-2v-22h131v22l-30 2q-5 0-8 4t-3 7v266q0 4 3 7t8 4l30 2m274-71v93h-244v-22l29-2q6 0 8-4t3-7v-266q0-4-3-8t-8-3l-29-2v-22h128v22l-27 2q-5 0-8 3t-3 8v276h105q4 0 8-2t3-6l8-60h30" />
</svg>