<svg id="fnt-Aclonica" viewBox="0 0 2332 1000" xmlns="http://www.w3.org/2000/svg"><path id="aclonica" class="f" d="M375 498v5q-1 21-5 43t-10 44-17 43-21 41-26 37-28 30l-37-21q9-14 16-31t12-36 10-38 7-38 4-38 1-36q0-13 0-30t-2-34-6-34-12-29-21-21-32-8q-17 0-29 6t-21 15-13 23-8 27-4 28 0 27v68h105v40h-105v86h-97v-179q0-38 12-71t34-58 54-38 70-13q26 0 49 7t42 20 33 31 25 40 15 45 5 47m317-44l-35 15q-9-27-29-42t-48-14q-15 0-27 5t-21 13-15 19-10 24-6 25-1 26q0 13 1 27t5 26 10 24 14 19 22 12 28 5q13 0 25-4t21-11 18-17 12-21l35 13q-8 19-21 33t-30 23-36 14-39 4q-32 0-60-11t-47-30-31-47-11-59q0-32 11-60t31-46 47-30 60-11q20 0 40 4t36 14 30 24 21 34m132-114v327h-83v-412h32l51 85m366 185q0 22-5 41t-17 36-25 29-32 22-37 14-41 5-41-5-37-14-32-22-25-29-16-36-6-41 6-41 16-36 25-29 32-22 37-14 41-5 41 5 37 14 32 22 25 29 17 36 5 41m-84 0q0-12-1-25t-4-25-9-25-14-20-19-14-26-5q-14 0-25 5t-19 15-14 20-9 25-5 25-1 24 1 24 5 26 9 24 14 20 19 15 25 5q15 0 26-5t19-14 14-20 8-25 5-25 1-25m425-20q0 29-7 60t-20 60-29 56-38 46l-31-17q6-12 12-27t11-33 8-35 6-35 4-35 2-31q0-9-1-20t-3-22-6-21-11-18-15-12-22-4q-12 0-22 5t-16 15-13 20-9 23-4 24-2 21v142h-83v-282h32l38 65q7-16 17-29t23-23 29-15 34-5q29 0 51 9t36 27 22 40 7 51m141-188q0 9-4 17t-9 15-15 9-17 4-18-4-14-9-10-15-3-17 3-18 10-14 14-10 18-3 17 3 15 10 9 14 4 18m-4 68v282h-83v-282h83m330 69l-36 15q-9-27-29-42t-48-14q-15 0-27 5t-20 13-16 19-10 24-5 25-2 26q0 13 1 27t5 26 10 24 15 19 21 12 28 5q13 0 25-4t21-11 18-17 12-21l36 13q-8 19-22 33t-30 23-36 14-39 4q-32 0-59-11t-48-30-31-47-11-59q0-32 11-60t31-46 47-30 60-11q20 0 40 4t36 14 30 24 22 34m332-69v282h-82v-34q-15 20-35 30t-46 9q-32 0-57-11t-43-32-27-46-9-58 9-58 27-46 43-32 57-11q17 0 31 5t27 14 22 21 15 28l37-61h31m-83 140q0-11-1-23t-4-24-7-23-12-19-18-14-25-5-24 5-17 14-12 19-8 23-4 24-1 23 1 23 4 24 8 23 12 20 17 13 24 5q13 0 23-5t17-14 13-20 8-24 5-23 1-22" />
</svg>