<svg id="fnt-Acme" viewBox="0 0 1125 1000" xmlns="http://www.w3.org/2000/svg"><path id="acme" class="f" d="M314 658l-72 11-24-97h-120l-26 95-64-5 44-122 67-215 89-6 65 214 41 125m-111-139l-40-135h-6l-43 135h89m234-45q-22 0-34 16t-12 48 12 52 36 20q12 0 23-7t18-15l5-8 25 26q-1 2-4 7t-11 16-18 20-25 16-33 7q-37 0-61-30t-23-80q0-61 35-107t83-46q15 0 29 4t30 14l-35 61q-18-14-40-14m251 66q0-34-6-46t-28-11-50 17v37l6 117-67 13 6-122q-2-67-11-120l60-13q4 29 5 57 8-10 17-20t30-22 42-12 35 13 19 37q41-50 84-50 26 0 42 17t15 49l-3 56 6 120-68 12 6-129q0-34-6-46t-27-11-49 16l-2 38 6 120-68 12 6-129m347 76q14 0 30-8t25-15l9-7 23 28q-5 8-15 19t-22 19-28 14-37 6q-40 0-66-31t-25-79q0-61 35-107t83-46q37 0 57 21t20 57q0 22-7 50l-10 11-125 11q8 57 53 57m0-155q-22 0-37 17t-18 46l85-11q2-11 2-19 0-33-32-33" />
</svg>