<svg id="fnt-Advent Pro" viewBox="0 0 2044 1000" xmlns="http://www.w3.org/2000/svg"><path id="advent-pro" class="f" d="M234 667h30l-114-350h-27l-112 350h30l39-123h114l40 123m-48-150h-98l48-157 50 157m292 150v-350h-28v113q-17-7-37-13t-44-5q-15 0-30 4t-27 12-20 24-7 35v95q0 28 9 46t24 27 37 14 45 3q7 0 17-1t20-1 20-2 15-1 6 0m-28-212v189t-2 0-7 1-11 1-15 1-18 1q-25 0-41-4t-26-12-13-22-4-31v-90q0-17 6-28t14-16 18-8 16-2q24 0 43 6t40 14m97-39h-29l76 251h39l77-251h-29l-67 222-67-222m213 184v-31l152-8v-65q0-28-11-47t-30-28-47-9q-26 0-47 9t-33 29-12 47v103q0 21 6 35t18 22 27 12 35 4 41-7 41-17l-11-21q-19 9-37 15t-36 6q-12 0-23-3t-17-9-12-15-4-22m124-108v44l-124 5v-43q0-20 7-34t23-22 34-7q17 0 31 7t21 20 8 30m225 4v171h28v-173q0-16-4-29t-11-22-18-17-24-11-30-3q-13 0-25 2t-24 8-20 11v-17h-29v251h29v-213q10-6 20-10t21-5 22-2q12 0 24 3t21 9 15 18 5 29m98 105v-158h48l12-26h-60v-100h-28v284q0 29 12 46t40 26l9-21q-11-4-19-11t-11-17-3-23m351-284h-118v350h29v-123h89q25 0 44-6t31-20 18-35 7-53q0-32-7-54t-19-35-31-19-43-5m3 200h-92v-174h92q14 0 27 4t21 13 15 26 5 44q0 28-5 46t-15 26-22 12-26 3m271-81l2-24t-7-1-16 0q-27 1-47 7t-38 15v-17h-28v251h28v-205q7-4 17-9t22-9 23-6 23-2q8-1 14 0t7 0m211 138v-65q0-46-23-72t-68-26q-30 0-51 11t-32 33-11 54v65q0 27 11 49t31 35 53 14q45 0 68-27t22-71m-28-65v70q0 21-7 36t-20 23-35 9q-20 0-35-9t-24-24-8-35v-70q0-24 8-41t22-24 37-8 35 8 21 24 6 41" />
</svg>