<svg id="fnt-Agbalumo" viewBox="0 0 2296 1000" xmlns="http://www.w3.org/2000/svg"><path id="agbalumo" class="f" d="M47 669q-16 0-28-8t-12-25q0-27 12-56t29-56 34-54 29-51 12-44q0-17-8-17-5 0-12 9t-10 26l-6-1q0-29 14-49t34-29 43-10q26 0 48 14t31 46q3 13 5 28t2 27 1 11q1 41 1 69t3 47 6 32q3 12 9 20t15 8q8 0 14-5t9-10l3 3q0 23-9 40t-23 26-31 9q-15 0-30-10t-26-28-14-51q-16-1-31-2t-26 0q-8 0-16 0t-14 1q-4 15-7 31t-3 31q0 11-15 19t-33 9m75-137q12-3 26-5t30-1h11q-1-37-3-76t-12-72q-4 36-20 75t-32 79m350 235q-25 0-41-15t-16-41q0-28 20-67-3 1-7 2t-7 0q-29 0-49-25t-19-70q0-41 15-72t41-48 51-18q18 0 33 9t25 30q0-5 0-9t0-7q0-9 13-14t29-6q15 0 27 6t17 18l1 3q-5 4-8 26t-8 61q-3 25-7 56t-13 63-20 58-31 43-46 17m-17-178q15 0 32-24t29-68q-9-20-19-28t-18-8q-13 0-24 12t-18 32-6 40q0 21 7 32t17 12m-6 120q17 0 35-33t25-94q-38 52-53 79t-15 40q0 8 8 8m311-40q-20 0-36-9t-27-26q-1 10-7 18t-25 8q-20 0-29-11t-10-29q0-11 3-32t7-47 9-54 7-54 3-48q0-14-1-24t-6-17v-3q12-12 24-19t24-6q17 0 29 14t12 43q0 14-3 40t-7 53q18-26 38-39t39-14q26 0 44 24t18 74q0 29-7 57t-20 51-34 36-45 14m-25-51q16 0 27-14t17-36 6-44q0-15-2-29t-8-23-13-8q-14 0-32 32t-27 93q9 29 32 29m340 51q-17 0-30-11t-13-38q0-2 0-5t0-5q-15 30-34 44t-37 15q-18 0-33-13t-25-36-10-58q0-35 10-62t26-47 35-29 37-9q20 0 36 12t22 39q1-9 2-16t1-9q0-14 13-20t30-7q14 0 26 6t17 18l1 3q-6 14-12 33t-11 39-8 41-3 35q0 16 4 22t8 7q9 0 16-12l4 2q0 17-11 31t-28 22-33 8m-81-63q13 0 28-24t28-66q1-5 2-9t1-8q-8-19-17-27t-17-7q-12 0-23 13t-18 33-6 40q0 28 6 41t16 14m238 63q-13 0-26-7t-21-22-8-38q0-21 6-50t13-58 13-60 5-51q0-22-5-31l-1-1q6-16 20-25t29-9q18 0 31 13t14 44q0 17-4 39t-9 49-12 51-9 46-4 34q0 14 4 19t9 6q5 0 10-5t7-7l4 1q-1 18-11 32t-24 22-31 8m163 0q-23 0-38-19t-15-49q0-17 4-37t8-37q3-13 5-24t3-18q0-9-4-13t-9-4-10 3-8 10l-4-2q0-20 10-35t26-22 31-7q13 0 25 5t20 16 8 28q0 10-3 24t-6 29q-4 15-7 31t-3 28q0 11 3 18t11 7q13 0 29-24t26-65q2-8 4-17t1-18q0-8-1-16t-3-15v-4q8-13 21-20t26-7q17 0 31 12t14 35q0 13-5 31t-11 37q-6 18-11 36t-5 32q0 21 15 21 4 0 9-3t11-9l4 1q0 18-10 32t-25 21-31 8q-20 0-37-15t-16-49v-1q-20 35-42 50t-41 15m282 0q-18 0-33-15t-14-41q0-13 4-30t7-34 8-33 4-26q0-8-4-14t-11-5q-8 0-18 10l-3-2q-1-8 3-19t13-21 24-17 34-7q23 0 34 15t11 38q0 3 0 5t0 6q9-16 22-30t29-25 35-9q25 0 34 15t10 36q0 4-1 8t0 7q10-15 23-31t29-25 38-10q27 0 36 15t10 37q0 18-4 42t-9 47-5 39q0 9 3 15t9 6q6 0 10-3t7-8l4 2q0 18-10 32t-27 22-32 8q-19 0-34-13t-15-43q0-19 5-40t9-42 5-33q0-19-13-19-9 0-19 8t-16 20-12 27-4 27q0 12 2 26t3 28q0 26-14 40t-34 14q-18 0-33-12t-14-36q0-11 3-27t7-33 7-33 3-28q0-10-3-15t-11-6q-11 0-22 12t-18 27-10 32q0 3-1 5t0 2q0 16 4 28t3 27q0 24-15 40t-33 17m472 1q-37 0-62-15t-36-40-12-52q0-27 10-53t28-49 46-35 62-13q38 0 62 15t36 41 12 53q0 26-10 52t-28 48-46 35-62 13m14-42q13 0 22-14t14-36 4-44q0-20-4-38t-11-29-19-11q-13 0-23 14t-13 35-5 45q0 20 4 37t11 29 20 12" />
</svg>