<svg id="fnt-Aguafina Script" viewBox="0 0 2476 1000" xmlns="http://www.w3.org/2000/svg"><path id="aguafina-script" class="f" d="M78 426q-35 0-35 66v4q0 6-3 6-8 0-12-18t-3-30q0-21 9-37t29-16q38 0 74 45 30-35 64-71t53-53l19-19q31-46 51-46 5 0 5 4 0 3-2 7-44 87-80 195-46 138-46 212 0 23 5 33 2 3 2 5 0 4-6 4-13 0-22-7t-13-18-5-20-2-17q0-15 6-45t5-43q0-20-9-47t-23-50q-16 22-29 44t-19 33l-5 11q-18 37-35 67t-26 43l-9 11q-5 7-10 7-5 0-5-12 1-70 128-218-25-30-51-30m177-80l-5 2q-55 48-103 112 21 32 32 73 2 5 3 5l2-5q13-42 30-88t30-70l11-24q2-3 2-4t-2-1m38 335l51-98q2-4 2-5l-5 3q-16 18-36 37t-33 30l-12 10q-21 15-31 15-10 0-10-15 0-36 26-85t69-86 80-37q8 0 13 2t7 3 3 2q1 0 3-2 3-4 7-10t17-16 18-10q4 0 4 5 0 7-7 21-54 98-65 119-4 7-19 32t-20 35q32-25 52-44 22-23 52-56 1-2 2-2t1 2q0 10-7 19-22 24-38 41-21 22-75 64l-13 24q-97 177-133 231-4 5-9 13t-18 21-20 13q-12 0-12-34 0-51 36-111 39-64 120-131m117-214q1-1 1-2 0-4-8-4-20 0-52 31t-54 68-23 55q0 7 6 7 5 0 14-7 7-7 20-19t44-50 52-79m-224 344q-4 6-10 15t-15 34-9 40q0 8 3 8 2 0 7-5t9-9l3-5q42-65 106-184-63 55-94 106m329-211l9-17 16-26q0-2-1-2t-3 2q-18 21-38 41t-31 30l-11 10q-39 37-54 37-7 0-7-9 0-10 8-31t17-36l8-16q42-78 62-105 10-13 25-22t22-8q5 0 5 3 0 2-2 6-1 2-20 33t-32 54q-33 60-33 69 0 4 3 4 5 0 16-9 32-28 71-76 22-23 45-60 16-24 43-24 4 0 4 4l-4 9q-7 13-31 55t-28 48q-20 36-20 48 0 4 3 4 5 0 32-25 21-21 55-60 2-2 3-2t1 2q0 10-8 19-37 41-65 68-20 19-44 37t-35 19q-8 0-8-11 0-6 9-26t18-37m227 35q-41 38-57 38-7 0-7-8 0-10 9-30t18-36l9-16q2-3 2-4t-1-1q-2 0-8 5-15 17-34 35t-31 30l-12 10q-19 15-30 15-11 0-11-17 0-9 5-26t7-24q12-28 29-54t41-51 54-39 65-15q28 0 28 8 0 5-12 5-46 0-87 39t-65 91q-7 14-7 23 0 6 4 6 6 0 15-9 6-5 16-14t34-35 36-47q2-4 6-10t17-15 24-9q6 0 6 4 0 1-1 3-2 4-12 20t-17 30-17 31-14 29-5 16q0 3 2 3 8 0 37-29 22-23 51-56 2-2 3-2t1 2q0 10-8 19-49 54-83 85m124-170l-12-3q-3-2-3-4 0-3 5-3h15q52-84 85-123 35-40 69-60t52-19q12 0 12 10 0 23-24 47t-40 31q-3 1-4 1-2 0-2-3 0-1 2-4 29-42 29-56 0-4-3-4-6 0-20 11-34 26-119 169h38q7 0 7 2 0 3-4 6t-5 3h-36q-7 0-7 3 0 2 1 9t1 11q0 46-29 111t-73 126q-26 34-48 57t-33 29-17 8q-7 0-7-10 0-46 96-214 0-1 9-18t28-51 37-62m23 38q0-7-1-13-79 136-110 201-29 59-29 69 0 2 2 2 7 0 34-32 29-34 67-108t37-119m79 115q-58 55-75 55-8 0-8-11t9-34 18-38l9-16q38-67 57-96 9-12 22-21t25-9q4 0 4 4 0 2-4 9-6 11-29 53t-28 50q-21 36-21 48 0 4 3 4 5 0 32-25 21-21 56-60 1-2 2-2t1 2q0 10-7 19-37 41-66 68m67-198q-13 0-13-15 0-14 11-29t23-14q15 0 15 17 0 14-12 27t-24 14m123 198q-59 55-77 55-9 0-9-9 0-5 3-14t6-16 7-15 7-13 4-7q7-13 22-38t24-40 9-19q0-2-2-2l-7 2q-23 17-55 51t-53 62l-20 26q-7 9-12 15t-14 12-19 6q-7 0-7-4t10-24 19-36l9-17 49-86q8-13 12-20t14-17 18-15 21-6q4 0 4 4 0 3-2 5-11 18-35 59t-30 54q-2 3-2 5 0 1 1 1t5-3q10-11 25-28t52-50 60-44q5-3 10-3 7 0 7 8-4 24-38 81-38 62-38 74 0 4 3 4 3 0 6-2t7-5 7-6 7-7 6-5q21-21 55-60 2-2 3-2t1 2q0 10-8 19-37 41-65 68m167 17q-41 38-57 38-7 0-7-8 0-10 9-30t18-36l9-16q2-3 2-4t-1-1q-2 0-8 5-15 17-34 35t-31 30l-12 10q-19 15-30 15-11 0-11-17 0-9 5-26t7-24q12-28 29-54t41-51 54-39 65-15q28 0 28 8 0 5-12 5-46 0-87 39t-65 91q-7 14-7 23 0 6 4 6 6 0 15-9 6-5 16-14t34-35 36-47q2-4 6-10t17-15 24-9q6 0 6 4 0 1-1 3-2 4-12 20t-17 30-17 31-14 29-5 16q0 3 2 3 8 0 37-29 22-23 51-56 2-2 3-2t1 2q0 10-8 19-49 54-83 85m113-3q8-20 22-46t26-43l11-16q7-10 14-10 6 0 6 5l-2 5q-18 46-18 79 0 26 12 43t37 17q37 0 60-33t23-71q0-32-22-93t-22-81q0-47 39-75t88-28q8 0 16 1t19 3 16 7 6 13q0 10-14 34t-24 36q-3 3-6 3-3 0-3-6 0-14 3-38 0-39-30-39-26 0-44 17t-17 43q0 33 23 92t23 91q0 60-47 98t-106 39q-10 0-24-2t-30-6-26-13-11-18q0-4 2-8m362-14q-22 22-51 40t-47 19q-23 0-23-35 0-38 26-84t67-78 78-32q19 0 19 14 0 25-32 57-3 3-13 10t-14 8q-3 0-3-3l2-4q20-36 20-54 0-10-7-10-15 0-39 30t-41 69-18 61q0 18 13 18 23 0 57-32 26-25 76-81 1-2 2-2t1 2q0 10-7 19-37 41-66 68m148-55q-4 0-4-3 0-1 1-4 30-46 30-63 0-4-4-4-15 0-70 68-17 21-31 43t-20 35l-6 11q-6 12-18 22t-26 11q-7 0-7-4 0-3 4-12t10-21 12-23 10-18l5-8 52-91q31-58 64-58 5 0 5 4 0 4-22 37t-25 42q-1 3-1 3 0 1 1 1t3-2q38-43 80-76 2-2 11-7t15-5q9 0 9 17 0 18-12 43t-32 44l-2 2q-2 1-5 3t-5 4-7 4-8 4-7 1m89 55q-58 55-75 55-8 0-8-11t9-34 18-38l9-16q38-67 57-96 9-12 22-21t25-9q4 0 4 4 0 2-4 9-6 11-29 53t-28 50q-21 36-21 48 0 4 3 4 5 0 32-25 21-21 56-60 1-2 2-2t1 2q0 10-7 19-37 41-66 68m67-198q-13 0-13-15 0-14 11-29t23-14q15 0 15 17 0 14-12 27t-24 14m-6 193l-20 36q-3 4-3 9 0 9 14 9 15 0 31-14t28-32 24-37 16-32l6-13q13-33 13-48 0-10-7-10-5 0-9 3-16 10-45 51t-48 78m86-195q4 0 4 4 0 7-9 27t-16 36l-8 16q-1 1-1 2 0 2 1 2t3-2q2-3 5-6t12-14 17-17 19-13 19-6q20 0 20 32 0 26-16 64 0 1-6 14t-18 34-28 39-40 34-49 14q-7 0-13-2t-9-4-4-1l-3 2q-14 20-43 74t-47 90q-3 5-7 12t-15 27-22 34-23 27-20 13q-5 0-5-5 0-13 29-69t59-105l29-49q73-127 113-201 1-2 3-6t8-15 12-20 13-22 14-20 12-15 10-5m130 173q21-21 55-60 2-2 3-2t1 2q0 10-8 19-37 41-65 68-60 58-80 58-7 0-7-9 0-10 8-31t16-37l8-16q12-20 38-70t51-93 47-80h-39q-5 0-5-2t4-5 8-3q11 0 39 0 24-39 42-61 15-20 21-20 4 0 4 5 0 10-19 45l-17 31h51q5 0 5 2 0 8-15 8h-47q-115 219-121 230-21 38-21 50 0 3 2 3 7 0 41-32" />
</svg>