<svg id="fnt-Akronim" viewBox="0 0 1461 1000" xmlns="http://www.w3.org/2000/svg"><path id="akronim" class="f" d="M174 309q-1-2-3-5t-1-4 3 0 3 2q9 7 17 18t14 25 11 29 8 29q8 33 13 65t5 66q0 1 0 6t-1 6q-2-1-4-5t-2-6q-6-18-11-42t-8-43q-3-15-6-29t-6-27-7-26-10-28q-1-2-4-7t-4-10-5-9-2-5m120 370q-6-3-8-4t-7-4q-12-7-22-18t-18-25-15-29-10-30q-10 7-24 8t-25 1q-15 0-29-1t-29-1q-14 26-26 50t-19 46q0 0-1 2t-1 2q-2 0-2-4t0-4q0-20 10-45t22-49l-8 0q-3 7-8 19t-10 26-9 26-3 20q0 2-2 2-2 0-3-4t-2-7-1-8 0-6q0-17 5-37t12-35l-7-1q-4 11-8 22t-7 22q0 1-1 3t-1 1q-1-2-2-5t0-5q0-21 8-40 2-5 5-5 10-3 21-4t22 0q25 0 50 3t49 4q12 0 22-2l-1-8q-6 2-12 2t-12 1q-19 0-40-4t-40-10q-1-1-4-2t-3-2q0-1 3-2t4 0q7-1 14-1t14 0q11 0 23 0t23 0q6 0 13 0t12 0l-1-6h-6q-24 0-48-4t-48-5q-20 0-36 5t-27 12-18 13-10 9q-1 1-1 1-1 0-1-1 0-1 1-1 9-18 22-30t32-17q19-41 39-81t43-79q0-1 2-3t3-2q0 0 0 1v1q0 4 0 6-10 40-28 78t-38 74l9-1q2-3 8-13t13-21 14-19 7-9l1 2q0 2-3 11t-7 18-8 19-5 12q3 0 6 0t6 1q9-18 19-38t18-40 10-42-3-41q0 2-2 10t-3 15-4 15-4 6q-1 0-1-2t0-2q0-13 2-26t2-26q0-17-6-34 0 0-1-4t1-4q1 0 3 3 5 5 10 13t9 18 7 20 6 16q6 21 10 43t8 43 7 44 8 44q4 21 10 41t16 38 20 33 28 27q2 2 1 3t-4-2m-3-48l2 6q0 3-1 2t-2-1-3-4-1-2q-12-22-19-45t-11-46-7-47-6-49-10-50-17-52q0-1-1-3t0-3q1 0 2 1l2 2q11 13 20 35t15 46 10 48 7 42q4 29 9 60t11 60m-147-121q15 1 29 3t29 3q-6-26-10-52t-7-53q-7 26-18 50t-23 49m165 164q-10-5-18-9t-13-12q-8-11-13-23t-8-21q-1-4-2-9t1-5q2 0 5 6t5 11q8 16 19 31t25 26q4 4 3 5t-4 0m-296-96t-1 0h0q0-2 0-3t1-3q4-9 8-13t12-9q5-3 14-6t15-3q1 0 2 0t2 2-5 4-7 3q-19 12-28 18t-13 10m493-145q2 8 0 16t-4 15-7 12-8 9q-12 8-27 15t-29 13q-1 1-4 1t-3 0q-1-1 0-3t2-2q5-6 14-13t15-11q2-2 9-8t16-14 16-17 7-14q0-1 0-2t1 0 0-1q1 1 1 2t1 2m-94-40q-7 30-19 61t-24 59q-1 2-3 6t-3 5q-1-1-1-6t1-5q1-8 4-19t5-25 7-25 6-22q10-34 13-67t-2-62q-1-2-1-3t1-2q2-1 4 3 6 8 10 21t4 27 1 28-3 26m-29-113q10 25 9 52t-8 58-18 59-18 60q-6 19-9 39t-3 42 4 40 13 36q2 3 0 2t-3-1q-12-16-19-36t-7-43 2-46 9-44q9-30 18-59t16-56 10-54 0-49q0-1 0-2t1-1 1 1 2 2m132 374q4 1 3 3t-2 2q-16 4-30 1t-24-9q-13-9-22-24t-18-27q0-1-1-3t-1-3q1-1 3-1t2 2q7 3 16 9t14 12q4 5 11 11t15 12 17 10 17 5m16-11q3 1 1 2t-3 1q-16 3-28-4t-24-16-21-22-21-22q-15-11-36-16t-46 4q-2 1-2 0t2-3q4-3 9-6t10-4q6-26 14-53t17-53q8-26 15-54t5-59q0-3 1-3t1 1 2 3q5 10 5 28t-3 37-8 42-10 38q10-11 22-18t24-14 23-15 17-22q0 0 0-1t1 1q0 0 0 1t1 2q-1 16-10 27t-20 19-26 16-26 17q-15 11-20 26t-8 31q2-4 5-8t5-8 5-6 3-1q0 1-1 3t-1 7-2 7-2 5q3 1 4 1t4 0q11-16 27-28t32-21q12-7 22-15t20-21q0-1 1 0 1 0 0 1t1 2q0 11-6 20t-16 18-20 14-15 11q-8 6-18 11t-18 10q15 5 28 16 12 9 22 20t20 22 20 19 22 10m-157-47q-1 3-3 8t-2 11q-1 2-2 5t-1 2q-1-1-2-4t-1-6q0-4 0-8t1-9 3-6 7-2q6 0 14 4t16 11 16 15 16 17q8 10 18 19t25 14q2 1 2 2t-2 1q-10 0-21-5t-20-10-18-13-14-13q-8-8-17-17t-15-16m-6 70q1 2 0 2t-4-1q-6-6-11-14t-7-23q-2-10-3-21t2-19 9-14 21-6q3 0 8 1t8 2 6 3 1 4q-1 1-6 1t-5-1q-6-1-12-1t-10 1-8 6-2 12q0 17 3 32 2 10 4 19t6 17m222-166q-4 17-11 36t-16 35q0 1-2 3t-3 2q-1 0-1-3t0-4q0-8 2-21t5-22q1-3 3-14t4-26 2-28-3-19v-2q2-2 5 1 6 5 10 13t5 17 2 17-2 15m20-2q5-7 10-10t10-5q1 0 3 0t3 1-1 3-2 3q-4 4-8 8t-8 8q-5 6-8 13t-4 15q8-9 16-17t17-15q11-9 20-22t12-40q1-2 2-3t2 4q1 29-6 46t-23 28q-8 6-16 13t-15 16-13 20-11 26q-3 12-7 22t-7 20q-1 3-3 3-2 0-2-5-2-24 3-48t14-49q4-12 8-25t5-28q0-6 4-12t11-11 14-9 12-5q4-2 4 0t-3 5q-10 10-21 23t-12 27m-44 168q0 1-1 0t-2-1q-15-11-24-24t-12-27-3-28 3-26q4-18 10-35t11-34 7-32 0-30q0-1 2-1 0 0 1 0t1 2q9 16 9 32t-4 34-12 35-10 36q-5 23-1 49t23 47q1 1 2 2t0 1m15 1q-1 0-2-1l-2-1q-7-4-12-10t-10-15q-1-3-2-9t-2-11 1-8 3-3q1 0 3 4t3 8q1 5 2 10t3 9q6 13 15 24 1 3 0 3m82-225q0 11-6 19t-15 13q-1 1-2 0t0-2q0-3 2-7t6-9 6-10 4-9q2-2 3 0t2 5m168 86q1-13 0-28t-6-28-16-21-28-9q-24 0-41 13t-30 31-20 40-9 39q-3 24-1 42t9 28 15 17 20 6q16 0 33-9t32-26 26-41 16-54m-161 35q2-20 10-44t22-45 34-34 47-14q20 0 33 10t20 24 9 32 0 33q-5 36-18 62t-30 44-37 27-38 9q-13 0-24-6t-18-19-10-33 0-46m56 70q-3 0-5-2t-4-4-2-5 2-3q1-1 4 3t5 4q5 0 12-6t13-16 11-17 7-12 4-11 3-12 3-13 2-11q3-22-1-35t-11-12q-6 0-13 4t-12 10-10 13-7 15q-2 8-3 8-2 0-2-8 2-10 7-19t12-17 17-12 18-4 14 6 7 17 2 20-1 16q-2 14-7 26t-10 26q-3 6-9 15t-14 17-16 13-16 6m16 10q0 3-5 5t-11 2q-15-1-24-10t-11-23-3-27 1-23q2-17 8-37t17-39 27-30 38-12q15 0 23 7t13 19 5 23 0 24q-1 11-4 21t-7 21q-1 3-4 8t-5 4q-2-1-1-4t2-9 3-11 2-11q1-8 1-21t-2-25-8-20-18-9q-18 0-33 11t-25 28-18 34-8 31q-1 8-1 20t4 24 11 20 20 9q4 1 8-1t5 1m280-156q1 16-2 30t-7 26q-1 3-4 6t-4 2q-1 0 0-4t0-5q1-5 1-14t0-16-1-17-2-13q-4-16-14-18t-20 6-19 19-12 25q3-5 8-11t11-12 12-10 13-3q7 1 9 7t4 16-1 21-4 20q-3 16-6 32t-2 32 6 31 16 27q1 2 2 3t-3-1q-13-7-21-17t-11-22-5-24 0-25q2-18 6-31t6-31q1-10-1-14t-6-3q-5-1-12 5t-13 16-13 25-10 29q-4 16-10 32t-11 29q-2 5-3 5t-2-2 0-3q-2-25 4-50t15-49q5-16 9-28t4-30q0-8 4-17t12-16 19-12 26-4q24 1 37 11t18 28 5 35-4 38q-3 13-7 24t-9 21-8 18-7 17q0 1-1 3t-1 2-2-2 0-5q-1-17 3-33t10-32 7-35-2-41q-4-24-22-32t-40 1q-3 1-8 4t-10 8-8 12-5 15q6-9 14-17t17-13 18-6 18 4q11 5 15 15t4 18m-102 14q-5 19-15 37t-15 36q0 1-2 3t-3 3q-1-1-1-4t0-4q0-8 2-21t6-22q1-3 4-15t5-27 3-28-3-19q-2-4 0-4 2 0 4 3 6 5 10 13t5 17 2 17-2 15m102 165q-1 1-4 0-1-1-2-1-7-5-12-11t-10-19q-2-5-3-13t0-15 2-13 4-5q1 0 2 5t2 14 3 15 3 11q2 7 5 15t8 13q1 1 2 2t0 2m-135 1q-15-10-24-23t-11-26-2-27 4-28q4-18 10-36t12-34 9-33 1-30q0-2 0-2 1 0 3 2 9 16 8 33t-5 35-13 36-11 37q-2 11-3 24t2 25 8 25 16 21q2 1 1 2t-3 0-2-1m19 2q-1 1-4-1-5-4-11-9t-10-14q-2-4-3-9t-1-11 1-9 2-3q2 0 3 5t3 7q2 5 3 10t4 9q3 7 6 12t7 10q0 1 1 2t-1 1m229-167q1-7 1-15t-1-18-5-17-10-14q-3-2-3-2-2 0 0 3 3 6 2 20t-3 28-6 27-3 14q-3 9-6 23t-3 22q0 1 0 4t1 3q1 0 2-2t3-4q9-16 17-35t14-37m2 75q2-9 6-23t8-30 3-30-6-24q-2-2-3-2t-1 2q0 19-4 35t-9 32q-9 26-16 50t-6 50q0 1 0 3t2 2q1 0 2-1t1-3q5-12 12-29t11-32m-36 90q-9-10-14-23t-7-25-1-25 4-25q4-18 11-36t12-36 6-35-7-33q-2-3-2-3t-1 1 1 1q1 15-2 31t-9 33-13 34-11 37q-3 13-5 27t2 28 11 26 23 23q1 1 3 1t-1-1m4-19q-1-4-3-10t-3-12q-1-2-2-7t-3-6q-2 0-3 4t0 8 0 11 3 10q3 10 7 14t11 7q3 1 5 1 0 0 0-1t-1 0q-3-4-6-9t-5-10m39-259q-2 0-8-1t-5-4q0-2 5-4t10-7 10-11 4-17q0-13-5-19-1-2-2-4t-1-2q1 0 2 1t2 1q10 6 15 14t5 17q0 16-7 26t-25 10m-18-20q-6 3-6-3 0-4 3-8t5-8 4-10-3-14q-1-3-3-6t-2-3 4 0 5 2q8 4 12 12t5 14q0 10-8 16t-16 8m-15-27q0-2 2-6t5-3q2 0 4 3t1 6q0 2-1 5t-4 4q-4 0-5-3t-2-6m184 198q-7 30-9 63t4 63q0 1-1 2t-1-1q-9-17-12-34t-3-34 2-33 7-34q0-2 2-8t2-13 0-9-6 0q-12 8-22 21t-15 25q-1 1-3 5t-3 11-3 10-2 7q-4 16-10 30t-10 26q-2 5-2 4-3 0-3-4-2-25 4-48t15-46q5-16 9-31t4-34q0-13 10-25t31-21q12-5 22-5t20 5 16 11 11 17q3-6 9-12t14-11 19-7 23 0q9 2 15 6t12 10 9 12 4 10q6 17 6 37t-4 37q-8 27-18 48t-14 38q-1 5-2 5-2 0-2-2t-1-4q-1-10 3-27t9-35 9-38 3-36-7-29-24-17q-14-4-24-1t-17 8q-11 7-14 14t-3 15q9-15 23-25t33-3q12 4 17 15t6 25-3 27-7 22q-1 1-3 5t-4 3q-1 0-1-4t1-6q1-6 2-14t0-16-1-17-3-13q-3-7-8-10t-11-1-12 4-10 7q-11 9-13 17t-4 18q6-10 14-19t18-14q4-2 7-2t6 3 3 5 2 6q1 17-2 29t-6 26-6 29 1 41q2 17 10 31t20 18q4 1 2 1t-3 1q-9-1-17-7t-14-15-10-20-5-22q-1-23 3-43t8-35q1-4 2-10t1-11-3-5-10 6q-10 9-17 19t-11 24q-12 41-33 79-1 2-3 4t-2 1q-1 0 0-2t1-5q3-18 7-34t9-34 7-36 4-39q-1-7-3-14t-10-18q-10-11-23-11t-22 2q-6 2-12 6t-12 9-8 13-2 16q6-10 13-20t19-14q3-2 9-3t11-2 12 2 11 8q8 10 8 18t1 16q-1 14-5 27t-9 24q0 2-2 5t-3 3q-1 0-2-4t1-5q1-6 2-17t1-22-1-22-7-13q-4-4-13-2t-16 7-12 10-8 10-5 12-4 15q6-12 14-22t20-17q8-5 12-4t6 5 2 12-1 13q-1 8-2 16t-4 16m143 128t-2 0q-1 0-3-1-7-1-15-6t-13-18q-2-5-3-13t-1-15 1-13 3-5q0 0 1 2t1 5 1 6 1 5q1 7 2 13t4 13q3 7 9 15t13 10q2 1 1 2m-134-1q1 3 0 3-3 0-4-2-3-3-5-9t-2-20q0-5 1-13t2-15 3-11 3-4q1 0 1 2t0 6 1 5 0 4q0 8-1 14t0 14q0 9 0 16t1 10m-74-166q-6 19-15 37t-15 36q-1 1-2 3t-3 3q-1-1-2-4t0-4q0-8 3-21t6-22q1-3 3-15t5-27 3-28-2-19q-2-4 0-4 1 0 4 3 6 5 9 13t6 17 1 17-1 15m-33 166q-16-10-24-23t-11-26-3-27 4-28q4-18 10-36t12-34 9-33 1-30q0-2 1-2 1 0 2 2 9 16 9 33t-6 35-12 36-11 37q-3 11-4 24t2 25 8 25 16 21q2 1 1 2t-2 0-2-1m19 2q-2 1-4-1-6-4-11-9t-10-14q-2-4-3-9t-1-11 0-9 3-3q2 0 3 5t2 7q2 5 4 10t3 9q3 7 6 12t7 10q1 1 1 2t0 1" />
</svg>