<svg id="fnt-Alata" viewBox="0 0 1227 1000" xmlns="http://www.w3.org/2000/svg"><path id="alata" class="f" d="M-8 667l176-368h6l177 368h-65l-31-72h-169l-31 72h-63m180-262h-1l-22 50-40 89h124l-40-88-21-51m264 262h-53v-368h53v368m178 5q-31 0-57-15t-42-41-16-65q0-36 13-63t39-42 61-15q21 0 38 7t29 18 16 20l1-39h51v230h-51l-1-41q-5 11-17 22t-28 17-36 7m9-45q18 0 33-9t25-25 9-38v-3q0-23-9-40t-25-26-33-9q-34 0-51 22t-16 53q0 32 16 53t51 22m271 40h-54v-186h-41v-44h41v-93l54-12v105h53v44h-53v186m199 5q-31 0-57-15t-42-41-16-65q0-36 13-63t39-42 61-15q21 0 38 7t29 18 16 20l1-39h51v230h-51l-1-41q-5 11-17 22t-28 17-36 7m9-45q18 0 33-9t25-25 9-38v-3q0-23-9-40t-25-26-33-9q-34 0-51 22t-16 53q0 32 16 53t51 22" />
</svg>