<svg id="fnt-Alatsi" viewBox="0 0 1188 1000" xmlns="http://www.w3.org/2000/svg"><path id="alatsi" class="f" d="M62 667h-71l148-355h5l148 355h-68l-19-51h-125l-18 51m79-222l-8 28-35 95h88l-36-95-9-28m242 222h-61v-380h61v380m125 7q-23 0-39-11t-22-27-7-37q0-12 5-26t21-26 43-20 70-8v-12q0-18-9-31t-36-12q-19 0-38 7t-27 16l-20-48q15-10 40-19t56-8q37 0 57 11t29 32 8 48v164h-53l-5-36q-26 43-73 43m26-48q11 0 24-9t21-24v-35q-3-1-6-1t-6 0q-14 0-29 3t-26 11-10 22q0 18 8 25t24 8m254 48q-42 0-57-22t-15-66v-116h-32v-52h35l3-53 55-23v76h61v52h-61v114q0 22 6 30t17 9q11 0 23-6t19-12l12 51q-8 5-20 9t-25 7-21 2m181-3q-28 0-45-5t-27-12-13-11l18-47q11 9 28 17t40 9q18 0 25-7t7-16q0-12-16-21t-38-19q-13-5-27-14t-24-22-10-36q0-34 24-54t70-20q29 0 49 8t27 16l-17 45q-10-8-25-15t-32-6q-19 0-26 5t-8 16q0 12 13 20t33 15q31 12 50 30t19 46q0 20-9 38t-31 29-55 11m218-294h-70v-66h70v66m-2 290h-65v-249h65v249" />
</svg>