<svg id="fnt-Albert Sans" viewBox="0 0 2580 1000" xmlns="http://www.w3.org/2000/svg"><path id="albert-sans" class="f" d="M292 667l-115-315h-16l-116 315h-40l128-350h72l127 350h-40m-225-92v-35h204v35h-204m308 92v-360h37v360h-37m151-199l-4-1q11-23 35-38t59-16q35 0 60 16t40 45 15 68-15 68-40 44-60 16-56-14-34-36l-3 47h-34v-360h37v161m164 74q0-43-22-69t-60-25q-23 0-42 11t-29 32-11 51 11 50 29 32 42 11q38 0 60-25t22-68m207 128q-35 0-63-17t-42-46-16-68q0-36 16-65t42-45 62-16q34 0 60 15t42 42 14 60q0 6 0 12t-1 13h-194q1 23 12 41t27 28 40 11q29 0 49-11t29-32l33 13q-15 32-44 48t-66 17m-79-148h153q1-21-9-38t-27-26-41-9q-20 0-36 9t-28 26-12 38m256 145v-250h34l2 36q10-13 24-23t32-13 37 0v37q-21-4-38 0t-29 15-18 28-7 39v131h-37m158-250h38v-70h37v70h67v35h-67v134q0 23 10 34t25 12 32 0v33q-20 4-39 2t-33-11-24-26-8-44v-134h-38v-35m325 175l36-14q3 13 13 26t27 22 44 9q39 0 57-18t19-42q0-20-11-32t-28-21-41-15q-20-5-40-12t-35-17-26-27-9-41q0-29 14-51t39-34 60-12q29 0 51 9t37 23 22 36l-36 13q-3-11-13-22t-26-18-37-7q-20 0-36 7t-26 20-9 32q0 20 11 31t30 19 41 14q21 7 40 14t34 19 25 27 9 41q0 26-13 49t-38 36-64 14q-33 0-58-10t-41-28-22-40m491 75h-35l-3-45q-10 23-31 35t-52 13q-27 0-46-8t-29-25-10-37q0-31 23-52t68-24l77-9v-20q0-21-15-34t-42-12q-26 0-44 12t-23 34l-34-12q10-33 36-51t66-19q44 0 69 23t25 62v169m-38-112v-8l-77 9q-25 3-38 14t-13 28 12 28 37 11q28 0 45-11t26-30 8-41m111 112v-250h34l2 35q12-18 32-29t45-10q29 0 50 12t34 37 12 61v144h-38v-140q0-39-17-59t-48-20q-32 0-51 21t-18 64v134h-37m266-65l36-12q3 15 11 25t20 15 30 5q27 0 40-11t14-25q0-13-8-21t-22-14-30-9q-13-3-28-7t-28-12-22-19-9-32q0-21 12-38t32-25 48-9q31 0 55 14t34 42l-35 12q-3-13-13-20t-20-10-22-2q-23 0-37 8t-13 27q0 9 4 15t13 11 19 6 24 7q14 3 29 8t28 14 21 21 9 32q0 22-12 38t-34 25-49 9q-38 0-64-17t-33-51" />
</svg>