<svg id="fnt-Aldrich" viewBox="0 0 1748 1000" xmlns="http://www.w3.org/2000/svg"><path id="aldrich" class="f" d="M150 317h50l135 350h-50l-31-81h-158l-31 81h-50l135-350m25 65l-60 154h120l-60-154m215-75h48v360h-48v-360m128 312v-164q0-10 4-19t10-15 15-11 19-3h134v-100h48v360h-48v-44q-1 9-5 17t-11 14-14 9-18 4h-86q-10 0-19-4t-15-10-10-16-4-18m48-164v164h134v-164h-134m409 0h-99v212h-48v-260h48v46q0-10 4-18t11-15 15-10 18-3h51q10 0 19 3t15 11 10 15 4 19v44h-48v-44m110-48h49v260h-49v-260m-2-50v-50h53v50h-53m305 98h-124v164h124v-44h48v44q0 10-4 18t-10 16-15 10-19 4h-124q-10 0-19-4t-15-10-10-16-4-18v-164q0-10 4-19t10-15 15-11 19-3h124q10 0 19 3t15 11 10 15 4 19v44h-48v-44m358 0v212h-48v-212h-134v212h-48v-360h48v146q0-10 4-18t11-15 15-10 18-3h86q10 0 19 3t15 11 10 15 4 19" />
</svg>