<svg id="fnt-Alegreya Sans" viewBox="0 0 2667 1000" xmlns="http://www.w3.org/2000/svg"><path id="alegreya-sans" class="f" d="M171 346l107 321h-41l-7-32-18-55-72-2-65 2-20 53-8 34h-40l118-321h46m-28 201l58-1-52-158h-4l-58 158 56 1m228-231l-3 250 3 101h-40l3-98-2-250 39-3m243 234l-143 1v1q0 42 19 64t54 23q17 0 35-6t32-16l4 3-6 34q-35 17-70 17-49 0-77-32t-28-85q0-55 28-88t75-32q40 0 62 22t22 64q0 13-2 25l-5 5m-77-88q-25 0-42 16t-22 46l111-2 1-7q0-26-13-40t-35-13m344-5q-16 5-46 11l-1 2q11 17 11 42 0 37-25 58t-65 22q-17 0-31-4-9 6-12 10t-3 9q0 11 13 15t43 9q29 4 47 9t32 16 14 31q0 21-15 39t-39 27-54 10q-40 0-62-18t-22-47q12-24 44-44v-2q-18-6-28-15t-10-25q11-18 31-31v-2q-16-10-25-26t-8-38q0-37 24-59t65-21q27 0 45 9 35-6 73-17l4 3v27m-124 108q25 0 38-14t14-39q0-24-13-37t-37-13q-25 0-39 13t-14 39q0 24 13 37t38 14m66 130q0-17-17-23t-51-12l-16-2q-19 11-29 22t-9 22q0 14 14 24t40 9q29 0 48-12t20-28m204-258q6 0 13 1v39l-5 1q-8-2-18-2-17 0-31 13t-27 42l0 35 2 101h-39l2-97-2-130 38-3-1 47h3q14-25 31-36t34-11m217 113l-143 1v1q0 42 19 64t54 23q17 0 35-6t32-16l4 3-6 34q-35 17-70 17-49 0-77-32t-28-85q0-55 28-88t75-32q40 0 62 22t22 64q0 13-2 25l-5 5m-77-88q-25 0-42 16t-22 46l111-2 1-7q0-26-13-40t-35-13m148-26l8 30 55 158h3l57-155 8-31h35l-82 221q-12 34-27 53t-34 31-53 19h-4q-10-10-16-23l1-5q38-7 58-21t38-46l-84-228 37-3m279-2q33 0 51 16t19 44q0 8-3 61t-3 62q0 11 4 15t12 5q7 0 17-3l4 3-4 23q-15 8-29 10-15-2-25-11t-9-26h-4q-27 27-53 37-34 0-53-17t-18-45q0-22 11-35t35-19l81-19 1-32q0-20-11-30t-29-11q-17 0-34 8t-36 25l-4-2-5-28q41-31 85-31m33 127l-73 17q-10 3-14 8t-5 16q0 17 9 26t25 9q28 0 56-35l2-41m299-217q34 0 71 15l-6 38-7 2q-15-11-31-17t-32-6q-19 0-33 8t-21 19-7 25q0 14 8 24t21 18 34 18q27 12 44 23t28 27 12 40q0 25-14 46t-38 34-56 12q-21 0-44-6t-42-16l5-41 6-3q17 17 38 25t41 9q19 0 34-8t22-20 8-26q0-21-16-34t-48-28q-27-13-43-23t-27-27-12-39q0-25 13-45t37-33 55-11m208 90q32 0 51 16t19 44q0 8-3 61t-3 62q0 11 3 15t12 5q8 0 17-3l4 3-4 23q-14 8-28 10-16-2-25-11t-10-26h-3q-27 27-54 37-33 0-52-17t-19-45q0-22 12-35t35-19l81-19 0-32q0-20-10-30t-29-11q-17 0-34 8t-37 25l-4-2-5-28q42-31 86-31m32 127l-72 17q-10 3-15 8t-4 16q0 17 9 26t25 9q27 0 56-35l1-41m260 106l3-156q0-20-10-32t-29-11q-32 0-68 35v63l2 101h-40l3-97-2-130 37-3v33h3q31-27 64-35 37 0 57 17t19 50l-1 65 2 100h-40m179-233q28 0 55 11l-6 33-6 1q-25-16-48-16-17 0-27 9t-11 23 11 22 33 19q20 9 31 16t21 19 8 30q0 18-9 34t-28 26-44 10q-35 0-67-17l5-34 5-3q14 12 30 19t31 6q18 0 30-10t11-24q0-14-11-22t-33-19q-19-9-31-16t-21-20-8-31q0-29 21-47t58-19" />
</svg>