<svg id="fnt-Alegreya Sans SC" viewBox="0 0 3537 1000" xmlns="http://www.w3.org/2000/svg"><path id="alegreya-sans-sc" class="f" d="M171 346l107 321h-41l-7-32-18-55-72-2-65 2-20 53-8 34h-40l118-321h46m-28 201l58-1-52-158h-4l-58 158 56 1m323 88l2 4-2 28h-133l2-75-2-174h38l-2 171 1 46h96m142 2l67-2 3 3-4 29h-151l1-75-1-174h152l3 3-3 29-63-2-52 0-1 76 50 0 43-1 3 3-3 30-46-2-47 1 0 34 0 47 49 1m232-222q39 0 79 17l-13 36h-4q-19-12-34-17t-34-4q-42 0-64 24t-21 75q0 49 20 70t62 22q12 0 24-2t28-8v-25l-1-36 35-2v90q-51 15-88 15-59 0-89-32t-30-91q0-64 34-98t96-34m270 151q30 47 67 92l0 5q-21 6-35 7l-6-4q-38-57-58-90l-47 0v13l1 78h-37l2-75-2-174 85-1q40 0 61 19t21 53q0 26-14 46t-38 31m-78-118l0 97 47 2q44-13 44-55 0-22-13-33t-39-12l-39 1m297 189l66-2 3 3-3 29h-152l2-75-2-174h153l2 3-3 29-63-2-52 0 0 76 49 0 44-1 2 3-3 30-46-2-46 1-1 34 1 47 49 1m219-57l-1 15 2 72h-38l2-72 0-15-85-162h41l5 14 56 107h3l61-105 6-16h40l-92 162m232-162l87 249h-37l-6-27-13-37-60-1-53 1-13 35-7 29h-37l96-249h43m-26 155l46-1-41-118h-3l-46 118 44 1m346-229q35 0 72 15l-7 38-7 2q-14-11-31-17t-32-6q-18 0-32 8t-21 19-7 25q0 14 8 24t21 18 34 18q27 12 43 23t28 27 12 40q0 25-13 46t-38 34-56 12q-21 0-44-6t-42-16l5-41 5-3q18 17 39 25t41 9q19 0 33-8t23-20 8-26q0-21-16-34t-49-28q-26-13-42-23t-28-27-11-39q0-25 13-45t37-33 54-11m254 74l88 249h-38l-6-27-13-37-59-1-53 1-14 35-7 29h-37l96-249h43m-25 155l46-1-42-118h-3l-45 118 44 1m383-156l-2 175 1 75h-40l-131-190h-3l0 107 1 83h-34l1-74-1-175h40l131 190h3l-1-189 35-2m163-2q31 0 61 12l-6 37-6 2q-14-11-27-17t-26-5q-21 0-34 11t-12 26 12 24 38 20q22 10 35 18t23 21 10 32q0 20-10 36t-31 27-48 11q-18 0-37-5t-36-12l5-40 5-2q14 14 32 22t35 8q21 0 35-12t13-27q0-15-12-24t-38-21q-22-9-36-17t-23-22-9-32q0-20 10-36t31-25 46-10m310-71q35 0 72 15l-7 38-7 2q-14-11-31-17t-32-6q-18 0-32 8t-21 19-7 25q0 14 8 24t21 18 34 18q27 12 43 23t28 27 12 40q0 25-13 46t-38 34-56 12q-21 0-44-6t-42-16l5-41 5-3q18 17 39 25t41 9q19 0 33-8t23-20 8-26q0-21-16-34t-49-28q-26-13-42-23t-28-27-11-39q0-25 13-45t37-33 54-11m264 0q50 0 87 24l-8 36-4 1q-34-28-77-28-48 0-73 33t-26 96q0 63 26 97t72 33q22 0 43-8t40-22l5 2-3 38q-44 24-89 24-64 0-100-42t-35-119q0-79 37-122t105-43" />
</svg>