<svg id="fnt-Alegreya" viewBox="0 0 1730 1000" xmlns="http://www.w3.org/2000/svg"><path id="alegreya" class="f" d="M166 672l-1-4 2-19q17-2 27-4t13-6 4-9q0-5-1-11t-3-13l-17-55q-9 0-25 0t-27 0q-14 0-30 1t-24 3l-19 52q-4 13-4 19 0 11 7 16t23 5h28l1 2-3 21t-10-1-27-2-32 0q-12 0-25 0t-22 1-9 0l4-23q15-2 23-10t17-29l97-255 32-9h4t3 12 9 32 13 48 17 57 18 60 19 59q6 19 16 26t32 10l1 2-3 20t-10 0-22-1-21 0q-19 0-37 1t-27 2-11 2m-26-275l-47 133h44q10 0 24-1t22-1l-39-131h-4m156 276l2-21q14-4 20-10t7-17 1-26v-245q0-13-3-19t-8-7-19 0l-1-1 2-17q18-2 37-6t37-8l3 6q-2 4-4 23t-4 50-3 71-3 84 0 88q0 15 4 21t13 7l18-1 1 2-4 21q-8 0-22-1t-23 0q-9 0-23 1t-28 5m231 0q-31 0-55-14t-37-39-13-58q0-25 9-48t24-41 35-28 43-10q74 0 74 72 0 7-1 14t-2 11l-6 6h-138q-1 44 16 70t47 30 72-15l3 1 6 15q-10 7-24 15t-28 13-25 6m-65-154l90-4q8-1 10-4t3-10q0-20-11-30t-31-11q-23 0-40 16t-21 43m268 269q-24 0-41-8t-26-23-9-36q7-8 20-21t29-24v-3q-26-4-40-17t-14-32q9-8 19-17t23-15v-7l26 9q-16 8-23 14t-6 13q0 10 12 14t30 7 40 5 40 8 31 15 12 29q0 17-10 33t-28 28-40 20-45 8m17-25q19 0 36-7t28-18 10-24q0-10-7-16t-29-11-60-10q-15 11-23 23t-8 26q0 17 14 27t39 10m2-183q23 0 36-15t13-40q0-29-16-47t-41-18q-23 0-37 15t-13 41q0 28 16 46t42 18m-12 22q-24 0-43-10t-30-27-10-39q0-25 12-46t34-33 47-12q14 0 26 2t23 3q10-1 28-5t41-10l1 2-5 28q-11 2-23 3t-20 2l-2 2q20 22 20 51 0 25-14 45t-35 32-50 12m164 67l2-20q15-2 20-10t5-32v-110q0-16-4-23t-15-7q-4 0-7 0t-3 1l-3-3 2-16q15-3 31-6t26-6 10-3l4 3t-2 8-2 20-1 24l2 1q16-23 36-38t35-15q8 0 12 1t3 1l2 2t-1 6-3 18-3 23-1 24l-20 2q0-21-2-28t-11-6q-11 0-24 9t-23 25q0 0 0 9t-1 23-1 29-1 26-1 15q0 17 5 23t19 6q6 0 14-1t8 0l1 2-5 22t-5-1-13 0-17 0-16 0q-14 0-26 0t-19 1-7 1m282 4q-31 0-55-14t-37-39-13-58q0-25 9-48t24-41 35-28 43-10q74 0 74 72 0 7-1 14t-2 11l-6 6h-138q-1 44 16 70t47 30 72-15l3 1 6 15q-10 7-24 15t-28 13-25 6m-65-154l90-4q8-1 10-4t3-10q0-20-11-30t-31-11q-23 0-40 16t-21 43m184 268q-2 0-5-3t-8-9-6-9-3-7l3-4q29 0 53-24t41-64q-5-15-11-33t-13-39-13-41-13-38-12-33q-5-13-14-19t-20-5l-1-2 3-17t8 0 18 0 15 1q11 0 22-1t19-1 14-1 5-1l1 3-3 15q-17 1-23 3t-5 10q0 5 3 17t8 30 11 35 10 34 8 26 4 10h2q8-21 18-45t19-47 14-38 6-20q0-7-4-10t-15-3h-23l-1-2 3-16t8 0 19 1 24 1q9 0 19-1t17 0 7 0l-4 19q-11 2-17 8t-11 20l-63 152q-19 45-33 74t-26 45-25 23-30 6m383-114q-20 0-31-11t-13-30l-2 0q-12 12-23 20t-19 14-13 5q-19 0-33-8t-23-22-8-32q0-15 7-26t19-14l95-26 1-22q0-25-12-39t-32-14q-14 0-30 6t-30 19l-3-2-6-21q13-8 29-16t31-14 22-5q22 0 37 7t24 22 8 35q0 7-1 21t-3 32-4 35-1 27 6 17 15 6q8 0 17-4t13-8l7 8q-4 6-11 14t-15 16-18 10m-93-36q10 0 22-7t24-17l2-51-68 20q-14 5-14 21 0 14 9 24t25 10" />
</svg>