<svg id="fnt-Aleo" viewBox="0 0 1035 1000" xmlns="http://www.w3.org/2000/svg"><path id="aleo" class="f" d="M59 667h-38l144-359h49l143 359h-37q-7 0-11-4t-6-8l-103-267q-3-7-6-16t-5-18q-3 10-5 19t-5 15l-104 267q-1 5-6 8t-10 4m26 0h-27v-31h27v31m192-106h-174l13-35h148l13 35m45 106h-27v-31h27v31m-264 0h-51v-21q0-4 2-7t6-3l37-8 6 39m53 0h-51l6-39 37 8q4 0 6 3t2 7v21m207 0h-51v-21q0-4 2-7t6-3l38-8 5 39m54 0h-51l5-39 38 8q4 0 6 3t2 7v21m101 0h-45v-369h45v369m-30 0h-51v-21q0-4 2-7t6-3l38-8 5 39m66 0h-51l5-39 38 8q4 0 6 3t2 7v21m-117-369h51l-5 39-38-8q-4-1-6-3t-2-7v-21m264 372q-37 0-64-16t-42-47-15-72q0-36 14-64t41-45 63-17q32 0 55 14t37 39 13 61q0 10-2 14t-9 3h-168q0 2 0 3t0 4q2 42 23 65t57 23q16 0 31-6t27-12 17-6q5 0 8 4l13 16q-10 13-27 22t-36 13-36 4m-76-158h138q0-31-17-50t-47-20q-32 0-51 19t-23 51m333-103q38 0 65 16t41 46 15 69-15 68-41 46-65 16q-37 0-64-16t-42-46-15-68 15-69 42-46 64-16m0 226q38 0 56-25t19-70q0-30-9-52t-24-32-42-12q-25 0-42 12t-25 33-8 51q0 44 19 69t56 26" />
</svg>