<svg id="fnt-Alexandria" viewBox="0 0 2652 1000" xmlns="http://www.w3.org/2000/svg"><path id="alexandria" class="f" d="M1 667l154-350h61l153 350h-63l-122-291-122 291h-61m77-81v-50h209v50h-209m336 81v-371h58v371h-58m167-152h162q-1-23-10-39t-26-24-38-9q-24 0-42 11t-27 31-10 46q0 29 10 50t30 32 45 12q44 0 75-32l30 31q-19 21-47 33t-63 12q-41 0-71-17t-48-48-17-70 17-70 48-47 70-18q47 0 75 19t41 55 8 83h-212v-41m331 16l-88-130h66l60 93 60-93h63l-85 130 91 136h-66l-63-100-68 100h-64l94-136m385 17h-80q-28 0-41 9t-14 28q0 18 14 29t38 11q21 0 38-7t27-21 11-28l11 48q-13 26-38 39t-61 13q-29 0-50-11t-32-30-12-41q0-36 26-58t75-22h88v41m-7 119l-1-169q0-26-16-40t-47-15q-19 0-39 7t-40 21l-23-37q18-12 35-19t35-12 44-4q52 0 79 25t29 68l0 175h-56m330 0v-150q0-31-17-49t-47-18q-35 1-56 25t-20 61h-16q0-49 14-79t40-44 61-14q31 0 53 13t34 35 12 55v165h-58m-197 0v-266h58v266h-58m433-268q37 0 63 16t39 46 14 73q0 42-13 72t-40 47-62 16q-38 0-67-17t-44-48-16-71 16-70 44-47 66-17m13 46q-24 0-42 12t-29 31-11 47q1 26 11 46t29 31 42 12 43-12 28-31 11-46q0-27-11-47t-28-31-43-12m82 222v-371h57v371h-57m294-268v52q-28-1-49 10t-32 31-11 46l-16-2q0-44 13-75t37-46 58-16m-149 268v-266h57v266h-57m197 0v-266h57v266h-57m28-375q15 0 24 9t10 24q0 14-10 24t-24 10q-14 0-24-10t-9-24q0-14 9-24t24-9m280 256h-79q-28 0-42 9t-13 28q0 18 13 29t38 11q22 0 39-7t27-21 10-28l11 48q-12 26-38 39t-61 13q-28 0-49-11t-33-30-11-41q0-36 26-58t74-22h88v41m-7 119l0-169q0-26-16-40t-48-15q-19 0-39 7t-39 21l-24-37q19-12 35-19t35-12 45-4q51 0 79 25t28 68l1 175h-57" />
</svg>