<svg id="fnt-Alfa Slab One" viewBox="0 0 3564 1000" xmlns="http://www.w3.org/2000/svg"><path id="alfa-slab-one" class="f" d="M293 278l84 307h20v82h-196v-82h30l-8-40h-68l-8 40h30v82h-171v-82h20l85-307h182m-106 114l-21 100h46l-20-100h-5m384 275h-159v-82h22v-225h-22v-82h137v307h22v82m16 0v-82h22v-114h-22v-82h23q0-61 30-90t87-28q27 0 49 4t32 9v78q-27-2-49-2-20 0-27 6t-8 23h39v82h-39v114h39v82h-176m462-82h22v82h-132v-34q-11 16-31 28t-48 13q-38 0-59-20t-22-57q0-94 161-97-2-17-13-23t-39-6q-23 0-49 4t-47 13v-92q27-6 58-10t60-4q75 0 107 27t32 83v93m-110-32v-3q-23 0-35 6t-12 20q0 8 5 13t15 6q13 0 20-11t7-31m454 121q-48 0-91-9t-66-18v-99h110q0 15 7 22t26 7q15 0 22-5t7-14q0-8-7-14t-22-11l-43-15q-56-21-80-50t-24-77q0-59 38-90t130-30q43 0 81 8t62 24v89h-100q0-25-31-25-15 0-21 4t-6 13q0 9 7 14t24 10l43 15q53 18 77 47t25 75q0 64-43 96t-125 33m340-7h-159v-82h22v-225h-22v-82h137v307h22v82m285-82h22v82h-132v-34q-11 16-31 28t-48 13q-37 0-59-20t-21-57q0-94 160-97-1-17-13-23t-39-6q-22 0-48 4t-47 13v-92q26-6 57-10t61-4q74 0 106 27t32 83v93m-110-32v-3q-22 0-35 6t-12 20q0 8 5 13t15 6q13 0 20-11t7-31m363 121q-26 0-46-13t-32-28v34h-137v-82h22v-225h-22v-82h137v145q13-16 32-29t46-12q51 0 76 38t26 108-26 108-76 38m-49-89q15 0 22-8t7-24v-50q0-17-7-25t-22-7-22 7-7 25v50q0 16 7 24t22 8m504 89q-91 0-141-48t-50-154 50-153 141-48 141 48 50 153-50 154-141 48m0-89q17 0 26-9t8-28v-151q0-19-8-28t-26-9-25 9-9 28v151q0 19 9 28t25 9m517 0h22v82h-158v-82h21v-82q0-17-7-25t-21-7q-30 0-30 32v82h21v82h-158v-82h22v-114h-22v-82h137v39q36-46 90-46 42 0 62 26t21 71v106m187 89q-71 0-111-38t-40-108 40-109 111-37q71 0 102 36t31 92v36h-162v3q0 18 11 27t37 9q30 0 58-5t48-11v80q-18 9-52 17t-73 8m-29-183h58v-6q0-17-7-25t-22-7-22 7-7 25v6" />
</svg>