<svg id="fnt-Alike" viewBox="0 0 1129 1000" xmlns="http://www.w3.org/2000/svg"><path id="alike" class="f" d="M218 547h-116l-33 95 39 10q1 9-3 17-13-1-30-2t-31 0-23 0-23 2q-2-9 1-17 11-2 21-4t18-6l118-335q4-2 10-3t10-1l135 339 39 10q1 9-3 17-13-1-30-2t-31 0q-9 0-23 0t-27 1-22 1q-2-9 1-17 11-2 21-4t19-6l-37-95m-61-170h-1q-5 18-10 36t-12 38l-23 68h96l-28-71q-8-20-14-37t-8-34m280-83v348l38 10q2 9-2 17-14-1-31-2t-30 0-31 0-30 2q-2-9 1-17 9-3 18-5t17-5v-318l-42-4q-1-10 3-18 18-2 36-6t34-7q5 0 9 1t10 4m147 123v225l33 10q2 9-2 17-14-1-28-2t-28 0-31 0-30 2q-2-9 1-17 9-3 18-5t17-5v-195l-42-4q-1-10 3-18 18-2 36-6t34-7q5 0 9 1t10 4m-34-51q-8 0-15-5t-11-14-4-15q0-6 5-13t14-12 16-4q9 0 16 5t11 14 4 15q0 6-6 13t-13 12-17 4m170-72v234h13l80-89-36-7q-1-2-1-6 0-6 3-12 14 1 25 2t26 1q15 0 24-1t23-2q1 2 1 4t0 4q0 4-2 10-8 0-19 3t-18 9l-68 73 92 125q5 4 14 6t20 4q0 1 0 2t0 3q0 6-3 12-14-1-29-1t-30-1q-11 0-23 1t-23 1q0-2 0-4t0-3q0-5 1-10l25-2-72-102h-23v94l34 10q0 1 0 2t0 3q0 6-3 12-13-1-28-2t-28 0-30 0-31 2q0-2 0-4t0-3q0-5 1-10 10-3 19-5t16-5v-318l-41-4q-1-2-1-3t0-3q0-6 3-12 18-2 36-6t34-7q5 0 10 1t9 4m249 238v10q0 50 20 78t56 28q15 0 26-2t20-7 24-14q8 4 9 12-16 18-37 28t-44 10q-38 0-66-16t-45-46-16-71q0-43 17-73t45-45 63-16q44 0 65 30t22 77q0 3 0 6t-1 7l-7 5-151-1m71-102q-14 0-29 9t-25 27-15 45l109-6q0-38-8-57t-32-18" />
</svg>