<svg id="fnt-Alike Angular" viewBox="0 0 3055 1000" xmlns="http://www.w3.org/2000/svg"><path id="alike-angular" class="f" d="M97 488l45-137 9-44 25-4 70 185 64 154 42 10-2 20-61-5-76 5 1-20 41-10-35-95-61-2-57 2-33 95 38 10-2 20-61-5-47 5 1-20 40-10 59-154m60-120h-1l-45 151 48 2 51-2-32-80-21-71m255 299l-61 2 1-17 33-10 3-53 2-109-3-112-3-50-35 2-3-18 69-13 25 5-3 66-3 175 1 49 4 58 37 10-3 17-61-2m173-250l-4 68-3 50 2 49 2 58 36 10-2 17-59-2-61 2 1-17 33-10 2-53-1-96-2-52-36 2-2-18 69-13 25 5m-71-94l12-19 22-10 23 7 11 26-14 21-22 9-21-13-11-21m220 206l52-58 23-34-33-5 2-18 53 3 46-3-1 18-35 11-72 77 42 58 51 64 30 10-3 17-52-2-47 2 1-17 24-2-14-25-58-77h-24l1 36 1 58 34 10-3 17-55-2-64 2 2-17 35-9 1-54 2-109-2-112-2-50-36 2-2-18 69-13 25 5-4 66-3 169h16m317 9l-86-6-1 5 14 70 39 39 46 5 47-25 9 13-39 32-47 6-49-12-43-35-25-75 8-67 26-47 53-29 44-6 35 11 27 25 15 44 1 42-7 5-67 5m-23-109l-38 22-20 38-3 23 76 1 35-8-3-46-15-26-32-4m330 59l45-137 9-44 25-4 70 185 64 154 42 10-2 20-61-5-76 5 1-20 41-10-35-95-61-2-57 2-33 95 38 10-2 20-61-5-46 5 1-20 39-10 59-154m60-120h-1l-45 151 48 2 51-2-32-80-21-71m444 216l4 58 35 10-2 17-59-2-61 2 1-17 33-10 3-53-2-109-13-33-43-7-54 28-1 17-3 50 1 49 2 58 37 10-3 17-59-2-61 2 1-17 33-10 4-53-5-148-35 2-3-18 69-13 25 5-1 26 53-33 51-3 46 31 8 40-1 106m223-162l64-42 16 33-21 13-42 6 35 43 0 48-28 42-61 20-53-8-9 13-2 14 14 9 86 14 33 7 34 24 4 60-23 34-56 26-79 2-35-10-28-25-11-36 15-44 34-16-18-17v-34l23-27-43-33-5-63 42-48 63-15 51 10m-98 123l33 18 41-5 27-29 4-49-22-37-37-11-48 20-14 44 16 49m130 142l-70-23-58-8-22 24-3 37 22 33 57 8 59-22 15-49m143-270l-3 77v109l14 33 42 6 54-33v-53l0-62-3-52-35 1-3-17 69-14 25 6-3 68-1 40 1 30v90l35 10-2 18h-69l-11-42-57 41-51 4-46-32-7-40 0-107-5-57-35 2-3-18 69-13 25 5m271 250l-61 2 1-17 33-10 2-53 2-109-3-112-2-50-36 2-2-18 69-13 25 5-4 66-3 175 2 49 4 58 36 10-2 17-61-2m273-198l1 107 3 70 35 5-4 17-69 6-7-30h-2l-50 30h-52l-35-26-10-49 22-39 60-26 66-2-2-63-10-31-40-11-49 11-1 53-20 4-13-68 58-17 64-3 39 19 16 43m-142 129l14 41 37 9 51-29-2-67h-44l-38 15-18 31m289-181l-2 41h2l31-36 34-15 38 10-9 74-17-3-13-52-32 11-36 41-2 47 1 49 2 58 50 10-2 17-73-2-61 2 1-17 33-10 3-53-1-96-3-52-35 2-3-18 69-13 25 5" />
</svg>