<svg id="fnt-Allerta" viewBox="0 0 1730 1000" xmlns="http://www.w3.org/2000/svg"><path id="allerta" class="f" d="M92 667h-61l126-360h58l125 360h-61l-26-75h-135l-26 75m94-270l-54 155h107l-53-155m285-110v296q0 16 5 26t12 14 18 6 21 2v36q-6 1-13 1-5 1-13 1t-14 0-15 0-13-2q-17-3-26-15t-14-25-6-27-1-20v-6-287h59m177 0v296q0 16 5 26t12 14 18 6 22 2v36q-7 1-14 1-5 1-12 1t-15 0-15 0-13-2q-16-3-26-15t-14-25-6-27-1-20v-6-287h59m234 101q34 0 59 14t42 35 23 52 3 60h-192q0 16 6 29t16 22 24 15 30 6q5 0 13-1t18-5 18-8 16-12l21 33q-16 20-38 30t-54 11q-27 0-51-11t-40-30-26-45-10-55q0-28 10-54t26-45 39-30 47-11m-63 118h135q0-13-5-26t-13-23-21-16-26-7q-15 0-28 6t-22 16-15 23-5 27m427-117v62q-14-4-33-5-18 0-35 5t-28 14v104 1 97h-59v-276h53l6 29q8-8 16-14t19-9 25-6 36-2m142 42v152q0 17 4 26t13 14 18 6 21 2v36q-6 1-13 1-5 1-13 1t-15 0-15 0-13-2q-16-3-25-14t-14-26-6-27-1-20v-149h-37v-40h37v-78h59v78h44v40h-44m325 87v63 4q0 4 0 12t2 15 5 14 9 8l-16 33q-6 0-14-3t-13-8-11-12-8-14q-3 8-11 15t-20 13-23 8-23 3q-17 0-32-4t-27-14-19-26-6-40q0-22 9-39t25-27 34-15 38-5h42q0-24-3-38t-8-21-14-8-21-2q-10 0-20 3t-17 6-15 8-9 7l-22-34q5-5 15-11t23-10 27-7 31-3q15 0 29 3t25 10 20 18 12 29 5 34 1 35m-59 83v-68h-31q-10 0-20 2t-20 8-16 15-6 26q0 24 11 35t32 11q15 0 28-8t22-21" />
</svg>