<svg id="fnt-Allerta Stencil" viewBox="0 0 3586 1000" xmlns="http://www.w3.org/2000/svg"><path id="allerta-stencil" class="f" d="M215 307l125 360h-61l-93-270-94 270h-61l126-360h58m-62 245h65l14 40h-93l14-40m318-265v296q0 16 5 26t12 14 18 6 21 2v36q-6 1-13 1-5 1-13 1t-14 0-15 0-13-2q-17-3-26-15t-14-25-6-27-1-20v-6-287h59m177 0v296q0 16 5 26t12 14 18 6 22 2v36q-7 1-14 1-5 1-12 1t-15 0-15 0-13-2q-16-3-26-15t-14-25-6-27-1-20v-6-287h59m247 148v-46q26 2 48 14t36 30 23 43 8 50q0 11-1 23h-168v-43h113q0-13-4-24t-12-22-19-17-24-8m-2 186q5 0 13-1t18-5 18-8 16-12l21 33q-16 20-38 30t-54 11q-27 0-51-11t-40-30-26-45-10-55q0-27 9-52t25-44 36-30 45-14v47q-18 4-30 15t-18 25-9 30-3 26q0 19 5 35t14 29 24 19 35 7m198-230h53l6 29v149 1 97h-59v-276m79 62v-50q13-6 30-10t46-4v62q-14-4-33-5-11 0-22 2t-21 5m218-22v152q0 17 4 26t13 14 18 6 21 2v36q-6 1-13 1-5 1-13 1t-15 0-15 0-13-2q-16-3-25-14t-14-26-6-27-1-20v-149h-37v-40h37v-78h59v78h44v40h-44m173 153q0 22 9 32t26 13v40q-2 0-6 0-17 0-32-4t-27-14-19-26-6-40q0-22 9-39t25-27 34-15 38-5h22v34h-11q-10 0-20 2t-20 8-16 15-6 26m152-3v4q0 4 0 12t2 15 5 14 9 8l-16 33q-6 0-14-3t-13-8-11-12-8-14q-4 12-19 21t-32 14v-37q12-2 21-9t17-17v-103q0-24-3-38t-8-21-14-8-21-2q-10 0-20 3t-17 6-15 8-9 7l-22-34q5-5 15-11t23-10 27-7 31-3q15 0 29 3t25 10 20 18 12 29 5 34 1 35v63m395-219q-2-1-5-3t-10-5-16-3-25-1v-49q21 0 43 5t36 13q-3 6-6 13t-8 15-6 11-3 4m-168 40q0-22 7-39t20-30 29-21 36-10v52q-16 5-26 18t-10 28q0 19 10 30t26 21v55q-16-7-32-16t-30-22-22-28-8-38m-2 241l10-42q7 4 17 7t22 7 22 5 21 2h2v47h-1q-12 0-24-2t-26-4-24-8-19-12m114-125v-57q16 7 33 15t30 20 23 30 8 42q0 18-6 34t-19 30-29 23-40 12v-47q40-10 40-53 0-17-11-28t-29-21m231-87v152q0 17 5 26t12 14 18 6 21 2v36q-6 1-12 1-6 1-13 1t-15 0-15 0-13-2q-17-3-26-14t-14-26-6-27-1-20v-149h-36v-40h36v-78h59v78h44v40h-44m254 4v-46q26 2 47 14t37 30 23 43 8 50q0 11-2 23h-167v-43h113q0-13-4-24t-13-22-18-17-24-8m-2 186q5 0 13-1t17-5 18-8 16-12l22 33q-17 20-38 30t-55 11q-27 0-50-11t-40-30-26-45-10-55q0-27 9-52t25-44 36-30 45-14v47q-18 4-30 15t-18 25-10 30-2 26q0 19 4 35t15 29 24 19 35 7m198-230h53l6 28v248h-59v-276m205 31q8 8 13 19t7 23 2 24 1 24v145 10h-60v-150q0-17-1-32t-7-27-15-18-25-7q-7 0-19 2t-22 8v-38q13-7 29-12t30-5q22 0 37 9t30 25m314 9l-26 32q-8-9-21-17t-34-9v-47q27 2 46 12t35 29m-81 238v-49q17-2 30-8t24-16l22 32q-16 19-33 29t-43 12m-136-140q0-28 8-52t23-43 37-30 48-14v48q-25 5-39 30t-15 59q0 19 4 34t10 29 17 20 23 10v49q-27-2-48-13t-37-31-23-43-8-53m352-138v276h-59v-276h59m6-88q0 15-11 25t-25 10-24-10-10-25q0-14 10-25t24-10q15 0 25 10t11 25m136-16v296q0 16 4 26t12 14 18 6 22 2v36q-6 1-13 1-6 1-13 1t-15 0-14 0-13-2q-17-3-26-15t-14-25-7-27-1-20v-6-287h60" />
</svg>