<svg id="fnt-Allison" viewBox="0 0 1001 1000" xmlns="http://www.w3.org/2000/svg"><path id="allison" class="f" d="M18 742q-27 0-41-16t-15-42q0-6 1-12t1-11q9-43 46-98 24-37 54-67t61-48 62-18q17 0 25 9t8 25q0 18-9 42-10 23-24 44t-26 30q-2 2-5 2-2 0-2-2 0-6 7-11 7-5 14-16t15-25 12-28 5-24q0-24-24-24-45 0-88 35-28 23-52 53t-39 63-24 61q-3 11-3 22 0 21 12 34t34 10q38-3 85-30 30-18 59-41t53-47 42-48l-24 4q-11 1-18 3t-10 3q-1 0-2 0-3 0-3-4t3-11 7-8q14-7 65-10 22-25 45-50 25-27 42-46t30-36 26-33q4-6 8-6 3 0 3 3t-2 5q-17 24-35 47t-41 49-50 58l-7 8 23-1 44-2q0 1 5-9t15-32q14-29 24-52t18-39q15-32 15-45 1-6 7-10t13-3q6 0 10 1t6 5q3 4-7 24-7 13-16 31t-22 39q-16 29-28 52t-19 38l39-2h1q5 0 5 3 0 2-3 4t-6 2l-41 3q0 1-5 12t-15 32q-19 42-19 71 0 20 15 20 4 0 11-4t13-8 9-9q4-5 7-5 2 0 2 2 0 2-4 6-5 6-13 13t-16 12-13 5q-32 2-32-29 0-18 9-42t23-56l8-18q-17 1-46 7-11 2-19 3t-14 3q-29 33-63 65t-70 58-69 41-63 16m391-42q-5 0-9-4t-3-8q1-21 7-40t20-45q2-4 3-7t2-4q11-24 23-45t23-42l7-13q12-21 21-35t18-19q11-7 14-7 4 0 8 7 2 5-10 25-7 10-17 25t-23 34q-2 3-8 12t-15 23-17 25-11 20q-9 16-17 35t-8 29q0 10 7 10 12 0 39-21 3 1 3 3 0 2-5 7-5 5-12 10t-15 12l-8 6q-8 7-17 7m77 0q-5 0-9-4t-3-8q1-21 7-40t20-45q2-4 3-7t2-4q11-24 23-45t23-42l7-13q12-21 21-35t18-19q11-7 14-7 4 0 8 7 2 5-10 25-7 10-17 25t-23 34q-2 3-8 12t-15 23-17 25-11 20q-9 16-17 35t-8 29q0 10 7 10 12 0 39-21 3 1 3 3 0 2-5 7-5 5-12 10t-15 12l-8 6q-8 7-17 7m127-143q-6 0-6-3 0-2 3-7t9-8q11-7 17-12t16-17q0 1 0 4 0 6-5 15t-12 17-11 10q-5 1-11 1m-44 123q-4 0-8-3t-3-8q0-11 14-39l6-11q1-1 2-5t6-10q3-7 5-13t3-10q0-1 2-2t4-3l3 0q4 0 7 1t2 4q-4 8-6 13t-4 10h-1q-5 12-9 23t-3 22l0 13q0 5-3 9-2 1-6 3t-9 5q0 1-2 1m34 8q-8 0-14-2-5-1-5-4 0-4 8-4 7-1 10-2 4-1 10-1 6-1 9-2 24-7 24-21 0-10-10-26-7-9-7-21 0-14 9-27t22-24 27-14q6-1 12-1 11 0 15 5 3 3 3 13 0 7-2 15t-7 13q-3 2-4 2-3 0-3-7l1-10q0-4 0-7t1-5q0-8-4-10-4-1-5-1-11 0-23 10t-19 22q-3 4-3 11 0 8 4 18t6 16q5 11 8 19t3 14q0 3-1 5 3-1 12-3 9-2 15-2 3 0 3 1 0 1-3 4-1 1-9 4t-18 7-20 7-17 4q-12 4-28 4m126-13q-20 0-20-17 0-1 0-4t1-6q5-20 20-40t36-33q7-6 24-6 9 0 16 2t11 9q3 5 3 11 0 1-1 3t0 5q1-1 3-1t6 0 6-1 7-1h2q6 0 1 4t-11 6l-17 2q-5 14-17 28t-27 24-28 13q-7 2-15 2m64-74q3 0 7-1t10 0q0-1 0-5 0-9-7-12-4-3-10-3-8 0-16 5t-16 12q11 4 32 4m-49 57q5 0 14-5t19-13 18-17q3-2 5-6t6-8l-12 2q-28 4-50 4-11 18-14 30 0 7 4 10t10 3m89 17q-9 0-9-7 0-5 3-12t7-13q9-17 17-33t16-34q3-8 10-8 8 0 5 9-3 7-6 13-14 29-14 39 0 4 3 5 7-5 10-8t4-3q7-6 16-13t19-17q17-15 28-15 13 0 11 25 0 9 0 18 1 2 1 6t0 9 6 5q7 0 13-4l11-8 11-7q1 0 3 0 3 0 0 4-31 39-52 39-4 0-8-1-3-2-5-9t-2-16 0-13l1-16q0-11-6-11-13 0-64 54-4 5-12 13t-17 9" />
</svg>