<svg id="fnt-Alumni Sans Collegiate One" viewBox="0 0 4012 1000" xmlns="http://www.w3.org/2000/svg"><path id="alumni-sans-collegiate-one" class="f" d="M207 667h-206l41-296h125l40 296m-158-287l-38 278h84l3-39h8l4 39h87l-38-278h-110m42 273h-75l37-268h102l36 268h-78l-3-39h-16l-3 39m11-211l-8 137h16l-8-137m4 133h-7l3-54 4 54m184 92h-78v-315h78v315m-71-306v297h64v-297h-64m60 292h-56v-288h56v288m78 17q-34 0-45-18t-12-54v-179h173v248h-80l-1-9q-7 5-16 8t-19 4m1-9q13 0 23-6t16-15l3 18h65v-230h-75v174q-1 1-3 1-3 0-3-6v-169h-75v170q0 31 10 47t39 16m-1-5q-26 0-35-15t-9-43v-166h66v166q0 10 9 10 4 0 6-2v-174h66v221h-56l-5-29q-4 14-15 23t-27 9m392 10h-267v-247h84l1 9q7-5 16-9t22-3q13 0 24 4t19 13q8-8 18-13t26-4q29 0 43 17t14 55v178m-258-238v229h78v-175h4q2 0 3 1t1 7v167h78v-175h3q2 0 3 1t1 7v167h78v-169q0-34-12-49t-41-14q-12 0-23 6t-16 17q-13-23-47-23-25 0-39 23l-4-20h-67m74 225h-70v-221h60l5 29q4-14 15-23t26-9q21 0 31 7t15 21q5-12 15-20t25-8q29 0 39 15t10 44v165h-70v-163q0-12-8-12-1 0-4 0t-3 1v174h-70v-163q0-12-8-12-2 0-4 0t-4 1v174m365 14h-173v-248h80l1 9q15-12 36-12 33 0 44 17t12 55v179m-164-239v230h74v-175q1-1 4-1 3 0 3 5v171h75v-170q0-31-10-47t-38-16q-14 0-25 5t-16 16l-3-18h-64m70 225h-66v-221h57l5 29q4-14 15-23t27-9q25 0 34 15t9 44v165h-66v-164q0-7-2-9t-6-2q-4 0-7 1v174m180 14h-78v-248h78v248m-71-239v230h64v-230h-64m60 225h-56v-220h56v220m-28-250q-14 0-25-11t-11-25q0-15 10-26t26-11q15 0 25 10t11 27q0 14-11 25t-25 11m0-8q12 0 20-9t8-19q0-13-8-20t-20-8q-12 0-20 8t-8 20q0 11 8 19t20 9m0-4q-10 0-17-8t-7-16q0-9 7-17t17-7q10 0 17 7t7 17q0 9-7 16t-17 8m213 279q-32 0-52-8t-30-29-10-57v-21h58q-21-8-34-19t-17-29-5-46q0-34 9-54t28-29 55-8q92 0 92 79v44h-38q15 8 24 18t13 25 4 39q0 52-25 73t-72 22m0-9q42 0 65-19t23-67q0-27-4-41t-17-24-37-17q-8-3-12-5t-7-4h74v-35q0-70-83-70-31 0-49 8t-26 26-8 48q0 32 9 52t35 32q12 6 19 10t14 8h-79v13q0 49 19 67t64 18m0-4q-41 0-60-17t-19-64v-8h72v26q0 13 2 18t7 4q5 0 7-5t2-20q0-15-5-23t-15-14-26-13q-25-11-33-30t-9-50q0-29 7-46t25-24 47-7q79 0 79 65v30h-69v-7q0-10 0-17t-1-11q0-10-8-10-3 0-6 4t-2 18q0 15 4 22t12 10 19 8q20 8 32 17t17 22 5 40q0 45-22 63t-62 19m8-185v9q-4-3-7-9t-2-16 1-14 3-3q3 0 4 8 1 4 1 10t0 15m-6 140q-3 0-4-4t0-15v-29q4 5 6 12t3 17q0 11-1 15t-4 4m154 58q-12 0-25-4t-21-15-8-38v-36q0-38 33-54h-29v-42q0-34 17-51t64-16q32 0 51 5t27 20 9 42v186h-92v-2q-11 5-26 5m0-9q13 0 21-4t13-9v10h75v-177q0-25-7-37t-25-17-46-4q-41 0-57 14t-15 44v33h62q-3 2-9 4t-11 4q-10 4-21 9t-18 17-8 29v36q0 21 7 31t18 14 21 3m0-5q-9 0-19-3t-16-12-6-28v-36q0-19 8-29t22-17 28-11q13-4 16-11t4-19v-14q0-6-1-9t-6-3-6 4-1 13v29h-60v-29q0-27 14-40t54-14q27 0 43 4t24 16 7 34v172h-66v-22q-3 9-12 17t-27 8m27-146v-29q0-13 3-13t3 8v14q0 14-6 20m3 108q6 0 7-6 0-3 0-7t0-9v-53q-6 4-10 10t-4 17v29q0 8 1 13t6 6m0-5q-2 0-2-4l-1-10v-29q0-11 6-18v56q0 5-3 5m269 54h-173v-248h79l2 9q14-12 36-12 32 0 44 17t12 55v179m-165-239v230h75v-175q1-1 3-1 3 0 3 5v171h75v-170q0-31-10-47t-38-16q-14 0-24 5t-16 16l-3-18h-65m71 225h-67v-221h57l5 29q4-14 15-23t28-9q25 0 34 15t9 44v165h-67v-164q0-7-2-9t-6-2q-3 0-6 1v174m188 20q-50 0-69-20t-19-64v-29h35q-12-8-21-21t-9-36v-12q0-41 20-59t69-18q49 0 67 19t18 62v28h-30q13 7 21 20t9 34v16q0 43-21 61t-70 19m0-9q45 0 63-17t19-54v-16q0-23-12-37t-32-18l-8-3q-4-1-8-2t-7-3h67v-19q0-38-16-56t-60-17q-44 0-62 16t-18 53v12q0 25 14 39t33 20q2 1 8 4t7 3h-68v20q0 39 17 57t63 18m0-4q-43 0-59-18t-16-53v-15h67v34q0 8 2 11t5 4q4 0 6-4t1-8v-21q0-16-10-22t-25-11q-16-7-29-19t-12-35v-12q0-34 17-49t59-15 56 16 16 52v14h-65v-33q0-12-7-12-3 0-5 2t-2 9v21q0 11 8 17t30 14q17 5 29 16t12 34v16q0 35-18 51t-60 16m9-185v35q-6-5-6-14v-21q0-7 3-7t3 7m-10 143q-1 0-2-2t-1-6v-36q6 6 6 16v21q0 7-3 7m264 54q-31 0-51-9t-30-29-10-60v-134q0-40 25-58t66-17 64 17 23 58v76h-81v9h81v48q0 40-9 61t-29 29-49 9m0-9q27 0 44-8t26-27 9-55v-39h-77v75q0 4-3 4-2 0-2-4v-172q0-9 3-9 2 0 2 9v70h77v-67q0-36-21-51t-58-15-60 15-23 51v134q0 35 9 54t28 27 46 8m0-5q-27 0-44-7t-26-25-8-52v-134q0-33 21-47t57-14q35 0 54 13t20 48v63h-68v-66q0-6-1-10t-5-4q-5 0-6 4t-1 10v171q0 3 1 5t5 3q4 0 6-3t1-5v-69h68v34q0 34-8 52t-24 26-42 7m180 14q-30 0-49-7t-28-27-9-59v-93q0-40 22-56t64-15 64 15 23 56v93q0 39-10 59t-28 27-49 7m0-9q27 0 44-6t26-25 8-53v-93q0-36-20-49t-58-13-58 13-20 49v93q0 35 8 53t26 25 44 6m0-4q-25 0-42-7t-24-23-8-50v-93q0-33 19-46t55-12q36 0 55 12t19 46v93q0 33-8 50t-24 23-42 7m0-36q6 0 7-5t1-7v-135q0-7-2-10t-6-2q-3 0-5 2t-2 10v135q0 5 1 8t6 4m0-5q-3 0-3-7v-135q0-8 3-8t3 8v135q0 7-3 7m173 49h-78v-315h78v315m-71-306v297h64v-297h-64m60 292h-56v-288h56v288m98 14h-78v-315h78v315m-71-306v297h64v-297h-64m60 292h-56v-288h56v288m105 19q-30 0-49-7t-28-27-9-59v-93q0-40 22-56t64-15 64 15 23 56v93q0 39-10 59t-28 27-49 7m0-9q27 0 44-6t26-25 8-53v-14h-75v44q0 6-1 7t-2 2q-3 0-3-9v-56h81v-67q0-36-20-49t-58-13-58 13-20 49v93q0 35 8 53t26 25 44 6m0-4q-25 0-42-7t-24-23-8-50v-93q0-33 19-46t55-12q36 0 55 12t19 46v63h-81v60q0 8 2 11t5 3q7 0 7-14v-40h67v10q0 33-8 50t-24 23-42 7m-7-183v43h14v-43q0-12-7-12-3 0-5 2t-2 10m10 38h-6v-38q0-8 3-8t3 8v38m178 205q-9 0-21-2t-23-4-19-4v-61q-16-9-21-30t-6-54v-89q0-25 9-39t21-19 28-5q21 0 32 8l3-6h80v191q0 22-2 42t-11 37-25 25-45 10m0-9q26 0 41-9t22-24 9-34 3-38v-182h-67l-5 12q-5-6-13-10t-22-4q-12 0-23 4t-19 17-7 33v89q0 31 4 48t16 25 27 7q14 0 22-4t12-9v11q0 12-7 16t-17 3q-12 0-31-5v46q9 2 24 5t31 3m0-5q-14 0-29-2t-22-5v-36q14 4 27 4 11 0 19-5t9-19v-29q-4 10-11 18t-27 8q-16 0-25-7t-14-22-4-46v-89q0-20 6-31t17-15 22-4q17 0 24 6t12 13l7-16h59v177q0 18-2 36t-9 33-21 23-38 8m-3-107q7 0 7-14v-115q-3-2-7-2-8 0-8 12v105q0 14 8 14m0-5q-3 0-3-7v-105q0-6 1-8t3-1h2v114q0 7-3 7m175 74h-78v-248h78v248m-71-239v230h64v-230h-64m60 225h-56v-220h56v220m-28-250q-15 0-26-11t-10-25q0-15 10-26t26-11q14 0 25 10t11 27q0 14-11 25t-25 11m0-8q11 0 19-9t9-19q0-13-9-20t-19-8q-12 0-20 8t-8 20q0 11 8 19t20 9m0-4q-11 0-18-8t-6-16q0-9 6-17t18-7q9 0 16 7t8 17q0 9-8 16t-16 8m100 279q-12 0-25-4t-21-15-8-38v-36q0-38 33-54h-29v-42q0-34 17-51t64-16q32 0 51 5t27 20 9 42v186h-92v-2q-11 5-26 5m0-9q13 0 21-4t13-9v10h75v-177q0-25-7-37t-25-17-46-4q-41 0-57 14t-15 44v33h62q-3 2-9 4t-11 4q-10 4-21 9t-18 17-8 29v36q0 21 7 31t18 14 21 3m0-5q-9 0-19-3t-16-12-6-28v-36q0-19 8-29t22-17 28-11q13-4 16-11t4-19v-14q0-6-1-9t-6-3-6 4-1 13v29h-60v-29q0-27 14-40t54-14q27 0 43 4t24 16 7 34v172h-66v-22q-3 9-12 17t-27 8m27-146v-29q0-13 3-13t3 8v14q0 14-6 20m3 108q6 0 7-6 0-3 0-7t0-9v-53q-6 4-10 10t-4 17v29q0 8 1 13t6 6m0-5q-2 0-2-4l-1-10v-29q0-11 6-18v56q0 5-3 5m187 56q-20 0-37-5t-28-20-10-43v-118h-20v-54l28-11 9-44h73v41h34v68h-34v106q0 7 9 7 5 0 12-1t13-2v66q-4 2-8 3t-9 2q-8 2-16 4t-16 1m0-9q7 0 14-1t14-3q3-1 6-2t7-1v-51q-7 1-12 1t-8 1q-7 0-11-3t-4-12v-115h35v-50h-35v-41h-57l-9 42-27 11v38h20v127q0 25 9 37t25 17 33 5m0-5q-17 0-31-4t-23-15-8-35v-132h-21v-30l26-11 9-40h50v40h35v41h-35v120q0 12 5 16t14 4q4 0 8-1t8-1v42l-12 3q-11 3-25 3m139 17q-30 0-49-7t-29-27-9-59v-93q0-40 23-56t64-15 64 15 22 56v93q0 39-9 59t-29 27-48 7m0-9q27 0 44-6t25-25 9-53v-14h-75v44q0 6-1 7t-2 2q-3 0-3-9v-56h81v-67q0-36-21-49t-57-13-58 13-20 49v93q0 35 8 53t26 25 44 6m0-4q-26 0-42-7t-25-23-7-50v-93q0-33 19-46t55-12q35 0 54 12t19 46v63h-81v60q0 8 2 11t6 3q7 0 7-14v-40h66v10q0 33-8 50t-24 23-41 7m-8-183v43h15v-43q0-12-7-12-4 0-6 2t-2 10m11 38h-6v-38q0-8 3-8t3 8v38m254 158q-31 0-51-8t-30-30-10-60v-133q0-41 25-58t66-17 64 17 23 58v133q0 39-9 60t-29 30-49 8m0-8q27 0 44-8t26-27 9-55v-133q0-37-21-52t-58-15-60 15-23 52v133q0 36 9 55t28 27 46 8m0-5q-27 0-44-7t-26-25-8-53v-133q0-34 21-48t57-14q35 0 54 13t20 49v133q0 34-8 52t-24 26-42 7m0-42q3 0 5-3t1-10v-168q0-7-1-10t-5-2q-4 0-6 2t-1 10v168q0 13 7 13m0-4q-3 0-3-7v-172q0-6 3-6 2 0 2 6v172q0 7-2 7m268 54h-173v-248h80l1 9q15-12 36-12 33 0 44 17t12 55v179m-164-239v230h74v-175q1-1 4-1 3 0 3 5v171h75v-170q0-31-10-47t-38-16q-14 0-25 5t-16 16l-3-18h-64m70 225h-66v-221h57l5 29q4-14 15-23t27-9q25 0 34 15t9 44v165h-66v-164q0-7-2-9t-6-2q-4 0-7 1v174m188 19q-30 0-49-7t-29-27-9-59v-93q0-40 23-56t64-15 64 15 22 56v93q0 39-9 59t-29 27-48 7m0-9q27 0 44-6t25-25 9-53v-14h-75v44q0 6-1 7t-2 2q-3 0-3-9v-56h81v-67q0-36-21-49t-57-13-58 13-20 49v93q0 35 8 53t26 25 44 6m0-4q-26 0-42-7t-25-23-7-50v-93q0-33 19-46t55-12q35 0 54 12t19 46v63h-81v60q0 8 2 11t6 3q7 0 7-14v-40h66v10q0 33-8 50t-24 23-41 7m-8-183v43h15v-43q0-12-7-12-4 0-6 2t-2 10m11 38h-6v-38q0-8 3-8t3 8v38" />
</svg>