<svg id="fnt-Alumni Sans Pinstripe" viewBox="0 0 3111 1000" xmlns="http://www.w3.org/2000/svg"><path id="alumni-sans-pinstripe" class="f" d="M21 667h-8l75-296h7l75 296h-8l-20-80h-101l-20 80m69-266l-47 178h97l-46-178-2-9-2 9m135 266h-8v-315h8v315m127 4q-21 0-33-6t-18-16-7-21-1-23v-186h8v182q0 14 2 29t13 23 36 10q28 0 40-14t15-35v-195h8v248h-7l-1-25q-6 11-19 20t-36 9m139-4h-8v-248h7l1 25q5-11 18-20t36-9q30 0 42 11t15 26q6-17 20-27t38-10q21 0 33 6t18 15 7 22 1 23v186h-8v-182q0-15-2-29t-14-24-35-9q-28 0-41 16t-14 42v186h-8v-182q0-15-3-29t-13-24-36-9q-27 0-40 14t-14 35v195m301 0h-8v-248h7l1 26q5-11 18-21t36-9q21 0 33 6t18 15 7 22 2 23v186h-8v-182q0-15-3-29t-13-24-36-9q-27 0-41 15t-13 37v192m186 0h-8v-248h8v248m-4-283q-7 0-7-7t7-7 7 7-7 7m199 287q-19 0-33-8t-23-26-7-52v-6h8v6q0 30 7 47t20 24 28 7q27 0 44-15t18-54q0-26-9-40t-24-21-32-14q-18-7-31-16t-21-23-7-37q0-34 15-54t49-20q30 0 48 17t17 46v20h-8v-18q0-27-15-42t-42-15q-31 0-43 19t-13 47q0 23 8 36t20 20 28 13q24 9 39 18t22 23 7 41q0 28-10 45t-25 25-35 7m170-2q-12 0-24-4t-21-17-8-37v-17q0-16 7-28t17-21 20-13 15-8q20-11 31-19t16-17 5-21v-7q0-17-7-25t-18-9-23-2q-22 0-33 7t-14 20-3 28v21h-8v-22q0-29 12-46t46-16q27 0 39 7t14 18 3 25v201h-7v-37q-6 18-22 28t-37 11m1-8q22 0 34-10t18-26 5-37v-92q-8 11-22 19t-28 17q-12 7-25 15t-20 20-8 31v13q0 23 7 34t19 13 20 3m138 6h-8v-248h7l1 26q5-11 18-21t36-9q21 0 33 6t18 15 7 22 2 23v186h-8v-182q0-15-3-29t-13-24-36-9q-27 0-41 15t-13 37v192m224 3q-26 0-42-13t-17-40v-33h8v33q0 22 14 33t37 12q24 0 38-10t14-33v-19q0-19-8-30t-20-18-26-12q-16-7-29-14t-21-18-7-26v-17q0-21 16-35t44-14q26 0 43 11t17 39v33h-8v-30q0-24-14-35t-38-10-39 12-13 33v9q0 17 8 27t21 16 22 11q15 7 29 14t22 20 9 34v19q0 19-8 30t-22 16-30 5m205-3h-8v-296h76q30 0 46 10t16 39v38q0 26-6 42t-22 24-47 7h-55v136m0-288v144h55q28 0 42-6t19-21 6-38v-27q0-30-12-41t-43-11h-67m189 288h-8v-248h8v248m-4-283q-7 0-7-7t7-7 7 7-7 7m80 283h-8v-248h7l1 26q6-11 18-21t37-9q21 0 33 6t18 15 7 22 1 23v186h-8v-182q0-15-2-29t-14-24-35-9q-28 0-41 15t-14 37v192m225 3q-26 0-43-13t-16-40v-33h8v33q0 22 14 33t37 12q23 0 37-10t15-33v-19q0-19-8-30t-21-18-26-12q-15-7-28-14t-21-18-8-26v-17q0-21 16-35t45-14q26 0 42 11t17 39v33h-8v-30q0-24-13-35t-38-10-39 12-14 33v9q0 17 9 27t20 16 23 11q15 7 28 14t23 20 9 34v19q0 19-9 30t-22 16-29 5m151-3q-19 0-28-12t-8-35v-193h-19v-7l19-1 1-48h7v48h58v8h-58v196q0 14 5 25t23 11q7 0 14-1t16-1v8q-4 0-12 1t-18 1m78 0h-8v-248h7l1 25q5-11 18-20t36-9q11 0 19 2v8q-8-2-19-2-27 0-41 15t-13 34v195m114 0h-8v-248h8v248m-4-283q-7 0-7-7t7-7 7 7-7 7m80 341h-8v-306h7l1 25q3-10 14-19t38-10q21 0 33 6t18 15 7 22 2 23v124q0 15-3 30t-16 25-41 10q-25 0-37-7t-15-15v77m52-63q20 0 30-5t15-15 6-19 1-20v-121q0-15-3-28t-12-22-37-9q-24 0-35 9t-14 23-3 30v118q0 10 1 20t6 19 15 15 30 5m179 8q-22 0-34-6t-18-15-7-21-1-23v-124q0-16 3-31t16-25 41-10q28 0 40 10t16 24 3 32v54h-111v68q0 15 2 28t14 23 36 8 35-8 13-22 3-29v-20h8v22q0 15-3 30t-15 25-41 10m-52-185v42h103v-42q0-17-2-31t-14-23-35-8q-22 0-34 8t-15 21-3 33" />
</svg>