<svg id="fnt-Alumni Sans" viewBox="0 0 1808 1000" xmlns="http://www.w3.org/2000/svg"><path id="alumni-sans" class="f" d="M41 667h-33l65-296h41l64 296h-34l-16-69h-72l-15 69m52-257l-36 171h71l-35-171m150 257h-31v-317h31v317m107 4q-26 0-38-10t-16-24-4-32v-186h31v182q0 11 1 22t10 17 26 7q13 0 21-4t11-11 5-11v-202h31v248h-26l-3-27q-4 12-16 21t-33 10m162-4h-31v-248h26l4 28q5-15 18-23t31-9q29 0 41 12t12 35l-5 1q5-22 19-35t37-13q31 0 42 15t11 44v193h-31v-187q0-24-7-33t-25-9q-16 0-27 10t-12 24v195h-31v-191q0-21-8-29t-25-9q-17 0-26 8t-13 19v202m285 0h-31v-248h26l4 27q4-15 18-23t30-8q27 0 39 9t16 24 3 32v187h-31v-182q0-9 0-18t-4-15-11-11-22-4q-12 0-20 5t-12 11-5 12v202m185 0h-31v-248h31v248m-15-278q-8 0-13-6t-5-12q0-7 5-12t13-5q7 0 12 5t6 12q0 7-6 12t-12 6m225 281q-22 0-39-8t-25-27-9-52v-16q8 0 16 0t16 0v18q0 25 5 39t15 19 21 6q20 0 32-13t12-43q0-23-6-34t-20-18-33-15q-16-6-29-16t-20-24-7-38q0-26 7-43t23-26 43-8q34 0 53 17t19 49v32q-8 0-16 0t-15 0v-25q0-24-11-36t-30-12q-22 0-32 12t-9 39q0 20 7 31t20 17 25 12q23 8 37 17t20 24 7 41q0 30-10 48t-27 25-40 8m167 0q-11 0-23-3t-20-15-8-37v-24q0-25 15-40t42-27q17-9 27-15t17-15 5-21v-11q0-12-5-18t-13-9-17-3q-23 0-30 12t-7 37v21h-28v-24q0-19 5-33t19-23 41-8q28 0 42 7t19 18 5 29v199h-30l-1-31q-6 17-21 25t-34 9m12-21q22 0 32-16t11-42v-79q-5 8-17 14t-23 13q-17 10-27 21t-9 30v19q0 18 5 27t13 11 15 2m154 18h-31v-248h25l4 27q4-15 19-23t30-8q26 0 38 9t16 24 4 32v187h-31v-182q0-9-1-18t-4-15-10-11-22-4q-13 0-21 5t-11 11-5 12v202m214 3q-27 0-42-7t-21-21-6-39v-22h31v29q0 23 8 32t29 9q19 0 27-9t9-30v-14q0-12-3-20t-14-15-27-14q-16-7-29-14t-20-19-7-30v-15q0-26 15-41t52-15q24 0 38 7t21 21 7 37v21h-30v-24q0-25-9-34t-27-9q-21 0-28 10t-7 25v13q0 14 6 23t18 15 27 13q15 6 26 12t18 19 6 31v12q0 20-6 34t-21 22-41 7" />
</svg>