<svg id="fnt-Amaranth" viewBox="0 0 2089 1000" xmlns="http://www.w3.org/2000/svg"><path id="amaranth" class="f" d="M-3 667l131-339h47l130 339h-63l-31-89h-122l-32 89h-60m108-133h90q-16-45-27-82t-18-57q-7 22-18 59t-27 80m572 133h-56v-163q0-21-7-34t-22-12q-10 0-20 5t-17 16-13 24-5 31v133h-57v-163q0-21-6-34t-23-12q-10 0-20 6t-17 17-13 26-4 36v124h-57v-126q0-30-4-51t-9-32q-5-15-12-24l45-18q5 6 10 14 4 7 8 17t7 23q12-30 35-43t48-13 40 13 21 33q14-25 35-36t45-10q19 0 32 6t21 17 12 27 3 36v167m264-239v118q0 30 3 50t9 33q5 15 12 24l-45 18q-6-7-12-16-4-8-8-19t-5-27q-9 30-28 45t-50 16q-24 0-41-9t-29-25-17-39-5-51q0-29 8-53t25-42 38-27 48-10q15 0 31 2t31 5 23 4 12 3m-115 202q13 0 23-9t18-22 12-32 5-36v-72q-5-1-15-3t-18-2q-19 0-32 6t-19 18-11 28-3 35q0 17 1 33t5 29 13 19 21 8m283-160q-9 0-18 4t-16 12-11 19-5 25v137h-57v-126q0-30-4-51t-8-32q-6-15-12-24l45-18q4 6 9 14 4 7 8 16t7 23q10-29 29-42t43-13q11 0 21 3t10 3l-16 55q0 0-6-3t-19-2m259-42v118q0 30 4 50t8 33q6 15 12 24l-44 18q-7-7-12-16-5-8-9-19t-5-27q-8 30-27 45t-51 16q-23 0-41-9t-28-25-17-39-6-51q0-29 9-53t24-42 38-27 49-10q15 0 31 2t30 5 24 4 11 3m-114 202q12 0 23-9t18-22 12-32 4-36v-72q-5-1-15-3t-18-2q-19 0-31 6t-20 18-10 28-3 35q0 17 1 33t5 29 12 19 22 8m383 37h-57v-162q0-21-7-34t-26-12q-11 0-22 5t-19 17-14 27-5 35v124h-57v-126q0-30-4-51t-9-32q-5-15-12-24l45-18q5 6 10 14 4 7 8 17t7 23q13-30 37-43t52-13q38 0 55 23t18 63v167m35-209v-40h45l10-59 47-10v69h62l-7 40h-55v148q0 13 7 17t16 4q7 0 14-1t12-3q7-1 13-3l9 37-4 2q-5 2-14 4t-20 4-26 2-26-3-20-10-13-17-5-26v-155h-45m265-154v146q15-19 35-28t43-8q38 0 55 23t18 63v167h-57v-163q0-21-8-34t-25-12q-11 0-22 6t-19 15-14 25-6 31v132h-57v-353l57-10" />
</svg>