<svg id="fnt-Amarante" viewBox="0 0 2052 1000" xmlns="http://www.w3.org/2000/svg"><path id="amarante" class="f" d="M284 667h-86q4-16 4-25t-1-14-1-10-1-11-2-15q-5-59-40-96-15-17-32-26t-29-8-18 1q-13 41-13 86 0 40 4 59 6 29 20 59h-73q6-15 6-62t7-88 18-73 26-56 28-42 26-30 21-23h77q-10 12-10 34 0 9 3 32l6 44q33 230 60 264m-196-230q10-3 20-3t19 1 17 5q18 7 30 22-12-63-15-77l-8-43-14 17q-30 35-49 78m301 230h-70q11-39 11-133 0-67-12-91-3-6-6-12l-8-11h84q-3 14-4 23l-2 15q28-43 72-43t57 48q19-33 51-44 11-4 25-4t25 6 20 17q15 22 15 61v26q0 75 2 94t3 25q2 10 5 23h-72q11-37 11-133 0-39-4-52t-10-19-17-6q-32 0-50 37v31q0 75 2 94t3 25q1 10 5 23h-72q11-38 11-133 0-40-4-53t-10-18-17-6-19 4-16 11q-13 13-20 33 0 7 0 14v15q0 94 11 133m117-147l1-5-1 5m392 16l-1 47q0 44 8 60 5 9 12 14l11 10h-71l-7-29q-28 34-79 34-29 0-47-20-15-18-15-42t11-41 30-30q37-22 92-23v-3q0-59-18-70-7-3-17-3t-21 6-18 18q-17 22-24 51-22-13-22-49 0-15 4-34 9 0 18-2l18-6q28-9 54-9t43 8 24 23q15 26 15 90m-137 79q0 16 7 24t18 8 20-5 18-15q18-22 18-51v-37q-34 4-56 23-25 21-25 53m281 52h-72q12-39 12-133 0-67-11-91-4-10-16-23h87q-4 15-7 42 23-29 64-40 17-6 26-17 8 20 8 34t-2 25-4 23q-7 25-17 38-9-48-28-56-22-9-43 26-5 8-8 16 0 6 0 11t0 12q0 94 11 133m305-131l-1 47q0 44 8 60 5 9 12 14l11 10h-71l-7-29q-28 34-79 34-29 0-47-20-15-18-15-42t11-41 30-30q37-22 92-23v-3q0-59-18-70-7-3-17-3t-21 6-18 18q-17 22-24 51-22-13-22-49 0-15 4-34 9 0 18-2l18-6q28-9 54-9t42 8 25 23q15 26 15 90m-137 79q0 16 7 24t18 8 20-5 18-15q18-22 18-51v-37q-34 4-56 23-25 21-25 53m276 52h-70q11-39 11-133 0-67-11-91-3-6-7-12l-8-11h85q-4 12-5 23l-2 18q29-46 75-46 29 0 46 23 16 23 16 61v26q0 67 1 82t2 23 2 14q2 11 5 23h-71q11-39 11-133 0-38-5-51t-11-20-18-6q-19 0-35 15-14 14-22 34 0 7 0 14v14q0 94 11 133m274-345q-5 19-5 45t1 34 3 12q5 7 18 7h66q0 14-7 21-12 13-29 13-9 0-15-2-12-5-19-5t-11 2-6 8q-5 9-5 38t2 61 9 52 23 31 41 11q0 7-11 18-2 3-4 4-43 0-65-11-25-12-35-43-11-32-11-94 0-55-2-65t-6-13q-3-3-14-9 15-11 30-42l12-26q13-29 22-38t18-9m279 262q9 6 9 20t-4 26-13 20q-22 22-67 22-53 0-80-39-24-34-24-93 0-59 33-93 31-32 84-32 36 0 57 22 17 17 17 39t-9 40-26 31q-34 27-97 29 6 49 31 65 9 6 25 6t33-16 31-47m-121-39v7q77-5 77-74 0-26-16-35-5-3-14-3t-17 5-16 18q-14 26-14 82" />
</svg>