<svg id="fnt-Amiko" viewBox="0 0 1542 1000" xmlns="http://www.w3.org/2000/svg"><path id="amiko" class="f" d="M303 667l-35-92h-168l-35 92h-44l134-348h61l134 348h-47m-188-130h138l-69-180-69 180m595-137q37 0 56 22t19 64v181h-44v-175q0-25-11-39t-32-14q-22 0-37 8t-34 26q0 4 0 13v181h-44v-175q0-25-10-39t-32-14q-22 0-37 8t-34 26v194h-44v-203l-11-58h44l7 36q22-23 40-33t46-9q26 0 43 11t26 33q24-24 42-34t47-10m200-53q-14 0-23-9t-8-23 8-23 23-9 23 9 9 23-9 23-23 9m-22 59h44v261h-44v-261m310 261l-77-122-41 46v76h-44v-377h44v243l114-127h52l-96 106 102 155h-54m222 6q-57 0-89-38t-32-99 32-99 89-37 89 37 32 99-32 99-89 38m0-38q37 0 55-27t19-72-19-71-55-27-55 27-18 71 18 72 55 27" />
</svg>