<svg id="fnt-Amiri Quran" viewBox="0 0 2557 1000" xmlns="http://www.w3.org/2000/svg"><path id="amiri-quran" class="f" d="M47 599t4-13 13-33 18-47 21-53 20-52 18-44q2-4 8-9t11-5q1 0 1 0t1 1l100 261q11 29 12 32 3 6 10 10t14 5 10 2q2 3 1 8t-1 6q-14-1-26-2t-27 0q-17 0-29 0t-28 2q-2-2-2-7t3-7q4 0 14-2t13-4q2-2 2-7 0-5-4-16t-8-24-10-26-8-21-3-8-1-1-2-1q-8-1-19-1t-20 0q-3 0-5 0t-5 0q-15 0-25 0t-27 2q-1 0-2 0t-1 1-4 10-9 24-9 26q-4 12-6 21t-1 13q0 6 8 9t16 4 10 1q1 1 2 6t-1 8q-9 0-16-1t-14-1-17 0-19 0-15 1-19 1q-1-1-1-6t1-8q4 0 15-2t15-7q7-10 12-22t11-24m138-79l-43-118-44 119t0 1 1 1q9 1 22 1t22 0q11 0 20 0t21-1q1 0 1-2t0-1m277-67q22 0 36 9t20 31q16-14 35-27t37-13q26 0 40 11t18 34 5 58v54q0 11 0 21t2 15q1 3 7 5t14 2 10 1q1 2 1 7t-1 7q-15-1-27-2t-25 0q-14 0-26 0t-26 2q-2-2-2-7t2-7q3 0 10-1t14-2 7-5q1-5 1-13t1-17q0-1 0-3t0-3v-52q0-25-4-42t-12-26-30-9q-12 0-23 6t-18 13-7 9q0 1 0 3t1 3q1 7 1 18t1 17v60q0 11 0 21t2 15q1 3 7 5t14 2 10 1q1 2 1 7t-1 7q-15-1-27-2t-25 0q-14 0-26 0t-26 2q-2-2-2-7t2-7q3 0 10-1t14-2 7-5q2-6 2-15t0-21v-50q0-44-10-62t-36-17q-11 0-21 6t-18 11-6 10v102q0 11 0 21t2 15q1 3 7 5t14 2 10 1q1 2 1 7t-1 7q-15-1-27-2t-25 0q-14 0-26 0t-26 2q-2-2-2-7t2-7q3 0 10-1t14-2 7-5q2-6 2-15t0-21v-89q0-5 0-14t-2-13q-2-5-9-7t-14-2-9 0q0-1-1-6t1-7q19-2 37-7t33-13q2 0 3 3t2 5q0 1-1 7t-1 11-1 7 1 2q1 0 2-1 6-5 16-13t22-14 26-6m271-76q0-10 7-17t18-7 17 7 7 17-7 17-17 8-18-8-7-17m47 115v118q0 11 0 21t3 15q1 3 7 5t13 2 10 1q2 2 2 7t-2 7q-15-1-26-2t-26 0q-14 0-25 0t-27 2q-2-2-2-7t2-7q3 0 10-1t14-2 7-5q2-6 2-15t1-21v-91q0-5-1-13t-2-12q-1-5-8-7t-14-2-9 0q-1-1-1-6t1-7q19-2 37-7t32-13q2 0 4 3t2 5q0 1-1 8t-2 14-1 10m191-39q10 0 18 4t12 11q1 2 2 5t0 8q0 13-6 19t-10 6q-5 0-10-3t-8-6q-4-3-8-5t-10-1q-11 0-20 8t-14 20-5 16v75q0 11 0 21t2 15q1 3 10 5t19 2 13 1q2 2 2 7t-2 7q-15-1-30-2t-30 0q-14 0-27 0t-28 2q-2-2-2-7t2-7q3 0 10-1t14-2 7-5q2-6 2-15t0-21v-91q0-5 0-13t-2-12q-2-5-9-7t-14-2-9 0q0-1-1-6t1-7q19-2 37-7t33-13q2 0 3 3t2 5q0 1-1 11t-2 20 0 14q0 1 0 1t2 0q5-11 14-23t21-21 22-9m81-76q0-10 7-17t17-7 17 7 8 17-8 17-17 8-17-8-7-17m47 115v118q0 11 0 21t2 15q1 3 7 5t14 2 10 1q1 2 1 7t-1 7q-15-1-27-2t-25 0q-14 0-26 0t-26 2q-2-2-2-7t2-7q3 0 10-1t14-2 7-5q2-6 2-15t0-21v-91q0-5 0-13t-2-12q-2-5-9-7t-14-2-9 0q0-1-1-6t1-7q19-2 37-7t33-13q2 0 3 3t2 5q0 1-1 8t-2 14 0 10m371-151q32 0 61 12t51 34 34 53 13 67q0 37-15 69t-41 55-58 34q18 8 30 16t22 13 23 9 32 3q15 0 23-1t12-2q2 0 5 1t4 3q0 0 0 1-20 11-39 18t-42 7q-19 0-37-8t-36-19-38-22-43-17q-34-9-61-31t-43-56-15-73q0-35 12-65t34-53 51-35 61-13m-7 17q-28 0-47 12t-32 32-18 45-6 49q0 28 8 56t23 52 36 37 51 14q27 0 47-12t32-33 18-45 6-49q0-29-8-57t-23-51-37-37-50-13m360 258v-105q0-1 0-2 0-5-1-13t-3-12q-3-7-13-8t-14-2q-1-1-2-6t2-6q19-1 36-4t31-6q2 0 3 5t2 7q-2 3-3 12t0 19v103q0 4 0 15t3 22q1 6 11 7t15 2q2 0 3 0 1 0 1 2t0 3q0 1-1 4t-3 4q-12 0-27 4t-25 6-11 4q-2 0-3-3t-1-5v-23q0-2-1-2t0 0q-7 7-18 14t-25 13-26 5q-20 0-32-9t-18-24-9-32-2-32v-62q0-5-1-13t-3-14q-4-7-13-8t-15-2q-1-1-1-6t1-6q19-1 37-4t30-6q2 0 4 4t2 6q-2 3-3 13t-1 20v72q0 39 12 57t37 19q11 0 21-5t17-10 7-12m228-163q10 0 18 4t12 11q1 2 2 5t0 8q0 13-6 19t-10 6q-5 0-10-3t-8-6q-4-3-8-5t-10-1q-11 0-20 8t-14 20-5 16v75q0 11 0 21t2 15q1 3 10 5t19 2 13 1q2 2 2 7t-2 7q-15-1-30-2t-30 0q-14 0-27 0t-28 2q-2-2-2-7t2-7q3 0 10-1t14-2 7-5q2-6 2-15t0-21v-91q0-5 0-13t-2-12q-2-5-9-7t-14-2-9 0q0-1-1-6t1-7q19-2 37-7t33-13q2 0 3 3t2 5q0 1-1 11t-2 20 0 14q0 1 0 1t2 0q5-11 14-23t21-21 22-9m157 1q14 0 26 9t20 24 7 34v100q0 10 4 16t11 7q7 0 11-3t5-3q1 0 2 1t0 3q0 5-2 9-3 3-10 7t-14 8-13 4q-10 0-19-11t-10-21q-2 2-10 7t-16 11-19 10-16 5q-24 0-40-17t-17-39q0-15 8-26t17-14q14-5 31-11t32-11 22-8q4-2 5-4t1-9v-13q0-11-5-22t-15-18-22-7q-12 0-18 8t-9 23q-4 23-23 23-8 0-12-6t-4-14q0-2 1-6t2-6q8-7 22-17t31-16 36-7m-26 190q8 0 18-4t17-9 7-7v-66q-9 3-24 7t-21 7q-13 5-22 15t-8 23q0 14 9 24t24 10m276-191q26 0 40 11t18 34 5 58v54q0 11 0 21t2 15q1 3 7 5t14 2 10 1q1 2 1 7t-1 7q-15-1-27-2t-25 0q-14 0-26 0t-26 2q-2-2-2-7t2-7q3 0 10-1t14-2 7-5q2-6 2-15t0-21v-49q0-30-4-48t-14-24-30-8q-9 0-20 6t-18 12-8 9v102q0 11 0 21t2 15q1 3 7 5t14 2 10 1q1 2 1 7t-1 7q-15-1-27-2t-25 0q-14 0-26 0t-26 2q-2-2-2-7t2-7q3 0 10-1t14-2 7-5q2-6 2-15t0-21v-89q0-5 0-14t-2-13q-2-5-9-7t-14-2-9 0q0-1-1-6t1-7q19-2 37-7t33-13q2 0 3 3t2 5q0 1-1 7t-1 13-1 8 1 2q1 0 2-1 5-6 16-14t25-16 25-6" />
</svg>