<svg id="fnt-Amita" viewBox="0 0 1339 1000" xmlns="http://www.w3.org/2000/svg"><path id="amita" class="f" d="M262 311v14q-55 8-100 38t-70 78-25 101q0 46 18 72t46 27q28 0 53-39t42-102 16-130l47-19v262q0 14 6 23t16 8q8 0 17-5t13-13l7 7q-7 15-22 26t-33 10q-23 0-37-16t-14-45v-96h-3q-36 160-122 160-44 0-71-31t-27-86q0-62 33-117t89-90 121-37m379 101q15 0 23 10t8 33v170q0 7 4 12t9 5 13-5 14-15l8 8q-11 22-25 31t-6 8-21 0q-42 0-42-50v-138q0-5-2-9t-7-3q-11 0-24 24t-22 67-9 101l-45 13v-193q0-5-3-9t-6-3q-10 0-23 24t-23 68-10 100l-43 13v-214q0-9-4-14t-11-5q-12 0-25 22l-8-8q10-23 25-33t17-10 10 0q24 0 33 10t8 28v83h2q12-54 33-88t43-33q15 0 23 10t8 33v78h3q12-54 33-88t42-33m185-162l-17 116-17 6-20-104 54-18m-1 169v206q0 7 4 12t11 5q5 0 12-5t14-15l8 8q-12 21-28 30t-30 9q-18 0-28-11t-9-39v-182l46-18m154-135v133h69l-15 32h-54v176q0 7 4 12t12 5q11 0 29-20l7 8q-9 19-23 28t-25 11-11 1q0 0 1-1t3 0q-44 0-44-50v-170h-37l15-32h22v-115l47-18m233 133q24 0 46 10t32 32l-36 20q-8-12-22-21t-30-9q-26 0-45 13t-29 36-10 50q0 39 14 64t42 25q41 0 57-33t15-72v-23l44-18v131q0 7 4 13t10 6q15 0 27-20l7 8q-6 17-21 28t-30 12q-21 0-32-16t-10-42h-1q-12 26-34 44t-44 18q-43 0-65-30t-21-78q0-39 17-73t48-55 67-20" />
</svg>