<svg id="fnt-Andada Pro" viewBox="0 0 2664 1000" xmlns="http://www.w3.org/2000/svg"><path id="andada-pro" class="f" d="M25 669l-2-23 48-14-20 13q4-8 8-17t10-20 8-21l89-273 27-5 104 282q4 14 11 28t12 25l-21-12 49 8-3 27h-51q-6 0-18 0t-26 1-25 1l-2-23 53-16-14 16q-3-18-6-34t-10-33l-75-209h11l-75 233q-3 10-4 21t-2 22l-16-13 53 7-3 27h-42q-6 0-18 0t-25 1-25 1m228-115h-142v-25h142v25m138 115l-2-24 56-11-20 18q1-4 2-14t4-21 2-17v-111q0-7-2-18t-3-23-3-16l20 23-55-9 2-26h62l10 9 7 75-11-29q7-19 19-32t28-20 35-7q35 0 53 14t25 40 6 61v54q0 18 2 36t3 28l-18-13 57 5-4 26h-64q-2 0-11 0t-20 1-19 1l-2-24 50-12-19 12q2-5 3-13t3-15 2-17v-69q0-22-4-42t-16-32-33-13q-31 0-48 24t-17 61v56q0 19 1 40t3 29l-18-18 56 5-3 26h-64q-5 0-14 0t-21 1-20 1m415 3q-47 0-74-35t-27-94q0-59 27-93t75-34q13 0 23 1t23 5 30 11l-3 36q-18-14-34-20t-34-5q-30 0-48 26t-18 74q0 46 17 72t44 27q31 0 48-21t18-57v-208q0-6-2-17t-3-20-3-14l19 17-61-11 2-25 51 2h28l9 9q0 10-1 24t-1 28-1 22v213q0 20 3 40t5 28l-19-18 51 6-3 26h-62l-10-57 3 9q1 8-6 17t-19 18-24 13-23 5m250 0q-34 0-53-18t-20-46q0-26 17-43t50-23l88-14v24l-82 16q-15 2-23 11t-9 22q0 19 10 30t28 11q26 0 46-17t23-42v-71q0-36-12-54t-36-17q-10 0-22 2t-23 5-16 8l16-22-6 38 0 20-29 2-5-67q15-4 30-6t30-4 30-1q45 0 63 24t18 83v62q0 22 2 39t5 26l-16-15 49 6-3 26h-63l-10-57 9-1q-1 14-13 28t-32 25-41 10m289 0q-47 0-74-35t-27-94q0-59 27-93t75-34q13 0 23 1t23 5 30 11l-3 36q-18-14-34-20t-34-5q-30 0-48 26t-18 74q0 46 17 72t44 27q31 0 48-21t18-57v-208q0-6-2-17t-3-20-3-14l19 17-61-11 2-25 51 2h28l9 9q0 10-1 24t-1 28-1 22v213q0 20 3 40t5 28l-19-18 51 6-3 26h-62l-10-57 3 9q1 8-6 17t-19 18-24 13-23 5m250 0q-34 0-53-18t-20-46q0-26 17-43t50-23l88-14v24l-82 16q-15 2-23 11t-9 22q0 19 10 30t28 11q26 0 46-17t23-42v-71q0-36-12-54t-36-17q-10 0-22 2t-23 5-16 8l16-22-6 38 0 20-29 2-5-67q15-4 30-6t30-4 30-1q45 0 63 24t18 83v62q0 22 2 39t5 26l-16-15 49 6-3 26h-63l-10-57 9-1q-1 14-13 28t-32 25-41 10m306-3l-2-24 57-12-20 20q1-5 3-16t3-22 1-16v-217q0-6-1-17t-3-21-3-16l20 19-56-9 2-26q10 0 21 1t22 1 15 0l32 14q-1 4-2 15t-3 26-1 28v187q0 13 1 26t3 25 2 18l-19-18 68 5-4 27h-69q-6 0-17 0t-25 1-25 1m131-149q-21 0-40-1t-40-1v-28q17 2 35 4t36 3q39 0 63-20t24-61q0-39-24-60t-63-20q-11 0-21 0t-21 1-21 2v-25q20 0 41-1t42-1q52 0 82 26t29 78q0 33-17 56t-44 36-61 12m172 149l-2-24 56-11-20 18q1-4 2-14t4-21 2-17v-111q0-7-2-18t-3-23-3-16l20 23-55-9 2-26h62l10 9 7 75-15-16q5-14 12-27t17-23 26-17 37-6q9 0 17 1t16 4l-4 81-29-2v-26q0-2-2-9t-5-16-5-13l24 13q-5 0-11 0t-10 0q-36 0-52 22t-16 57v58q0 19 1 40t3 29l-18-18 67 5-3 26h-75q-5 0-14 0t-21 1-20 1m346 3q-38 0-64-17t-38-45-13-66q0-38 13-67t38-45 64-17q57 0 85 35t28 94q0 37-13 66t-38 45-62 17m0-27q27 0 42-15t22-39 6-47q0-25-6-49t-22-38-42-15-43 15-22 38-7 49q0 25 7 48t22 38 43 15" />
</svg>