<svg id="fnt-Andika" viewBox="0 0 1570 1000" xmlns="http://www.w3.org/2000/svg"><path id="andika" class="f" d="M93 573l-33 94h-50q6-15 14-34t20-53l98-270h52l98 270q12 34 20 53t14 34h-50l-33-94h-150m13-38h123l-62-177-61 177m491 132h-45t0-11 0-27 0-35 0-35 0-27q0-30-6-47t-16-23-27-7q-18 0-34 11t-28 26-17 33v142h-46t0-11 0-28 0-38 0-40 0-33q0-36-4-62t-8-37h44q2 5 4 14t3 18 3 15q23-28 47-40t49-12q39 0 60 25t21 76q0 12 0 31t0 40 0 40 0 30 0 12m233-391h51v261q0 46 6 78t13 52h-44q-3-7-7-19t-7-27q-17 25-40 38t-49 14q-30 0-52-15t-34-41-11-63q0-43 15-75t42-49 58-17q16 0 34 6t31 14v-68q0-29-1-51t-5-38m6 293v-96q-18-10-32-14t-33-5-34 11-26 32-10 50q0 43 14 65t47 22q15 0 29-10t27-24 18-31m127-151h49q0 33 0 66t0 67q0 15 1 38t1 43 3 35h-50q0-18 0-42t0-47 0-41q0-35-1-68t-3-51m-5-80q0-13 9-23t22-10q13 0 22 10t10 23q0 14-10 23t-22 10q-14 0-22-10t-9-23m181-62v391h-45q0-30 0-63t0-67 0-62 0-52 0-32q0-40-1-69t-3-46h49m-12 256l111-114h61l-134 121-38-7m119 135l-113-135 25-26 148 161h-60m323 0h-43q-4-8-6-23t-4-31-1-27v-19q-10 25-25 49t-34 41-46 16q-31 0-52-27t-21-79q0-30 7-57t24-49 41-35 60-13q23 0 44 3t40 8v113q0 46 4 78t12 52m-61-180v-31q-7-1-16-3t-27-1q-32 0-50 16t-26 43-7 56q0 28 10 46t25 18q13 0 26-11t25-29 20-38 14-38 6-28" />
</svg>