<svg id="fnt-Anek Latin" viewBox="0 0 2194 1000" xmlns="http://www.w3.org/2000/svg"><path id="anek-latin" class="f" d="M54 667h-42l100-320h66l100 320h-42l-88-292h-6l-88 292m164-95h-146v-34h146v34m309 95h-40v-152q0-20-6-34t-17-22-33-8q-20 0-34 7t-23 20-12 28l-7-29h9q4-16 14-30t26-22 42-8q29 0 47 11t26 32 8 50v157m-163 0h-41v-244h41l-2 58 2 2v184m328 5q-55 0-84-27t-28-78v-44q0-51 26-79t77-28q34 0 57 13t34 36 12 55v9q0 8-1 16t-2 16h-37q1-12 1-23t0-20q0-22-7-37t-22-24-35-8q-31 0-47 18t-16 53v23l0 5v23q0 15 5 28t14 21 24 13 36 5q24 0 44-6t39-17l-4 35q-16 10-38 16t-48 6m83-111h-174v-31h174v31m272 106h-49l-96-114h-26v-32h26l92-98h48l-111 117v-9l116 136m-167 0h-40v-332h40v332m358-320v320h-41v-320h41m-19 320v-36h169v36h-169m402 0h-41l2-60-1-6v-78l0-14q0-30-15-44t-48-14q-26 0-48 7t-39 18l4-35q9-5 22-11t30-9 37-4q27 0 45 6t30 19 16 29 6 38v158m-125 5q-36 0-55-18t-20-50v-7q0-34 21-51t67-23l77-11 2 30-74 10q-28 4-40 14t-12 28v4q0 20 11 30t36 10q21 0 36-7t24-20 13-27l6 28h-8q-3 16-13 29t-27 23-44 8m275 0q-28 0-45-9t-25-26-8-43v-154h40v150q0 24 11 35t37 11q15 0 28-3t26-9l-4 35q-11 6-27 9t-33 4m58-213h-176v-33h180l-4 33m-97-29h-39l0-68 41-6-2 74m190 237h-41v-244h41v244m-21-284q-12 0-18-7t-6-18v-1q0-12 6-19t18-6 19 6 6 19v1q0 12-6 18t-19 7m291 284h-40v-152q0-20-6-34t-17-22-33-8q-19 0-34 7t-22 20-13 28l-7-29h9q4-16 14-30t27-22 41-8q29 0 47 11t26 32 8 50v157m-163 0h-40v-244h40l-2 58 2 2v184" />
</svg>