<svg id="fnt-Anek Malayalam" viewBox="0 0 3358 1000" xmlns="http://www.w3.org/2000/svg"><path id="anek-malayalam" class="f" d="M142 375l-88 292h-42l100-320h66l100 320h-42l-88-292h-6m76 163v34h-146v-34h146m309-28v157h-40v-152q0-20-6-34t-17-22-33-8q-20 0-34 7t-23 20-12 28l-7-29h9q4-16 14-30t26-22 42-8q29 0 47 11t26 32 8 50m-163-27v184h-41v-244h41l-2 58 2 2m328 189q-55 0-84-27t-28-78v-44q0-51 26-79t77-28q34 0 57 13t34 36 12 55v9q0 8-1 16t-2 16h-37q1-12 1-23t0-20q0-22-7-37t-22-24-35-8q-31 0-47 18t-16 53v23l0 5v23q0 15 5 28t14 21 24 13 36 5q24 0 44-6t39-17l-4 35q-16 10-38 16t-48 6m83-142v31h-174v-31h174m156 1l116 136h-49l-96-114h-26v-32h26l92-98h48l-111 117v-9m-51-196v332h-40v-332h40m370 197l-4 135h-40l12-320h64l76 231h4l75-231h65l12 320h-40l-5-135-4-142h-4l-79 240h-44l-79-240h-4l-5 142m514-23v158h-40l2-60-2-6v-78l0-14q0-30-15-44t-48-14q-26 0-48 7t-39 18l4-35q10-5 23-11t30-9 37-4q26 0 44 6t30 19 17 29 5 38m-124 163q-36 0-56-18t-19-50v-7q0-34 21-51t66-23l77-11 3 30-75 10q-28 4-40 14t-12 28v4q0 20 12 30t36 10q21 0 36-7t24-20 12-27l7 28h-8q-4 16-13 29t-27 23-44 8m228-337v332h-41v-332h41m252 174v158h-40l1-60-1-6v-78l0-14q0-30-15-44t-48-14q-26 0-48 7t-39 18l4-35q9-5 22-11t30-9 38-4q26 0 44 6t30 19 17 29 5 38m-124 163q-37 0-56-18t-19-50v-7q0-34 20-51t67-23l77-11 2 30-74 10q-28 4-40 14t-12 28v4q0 20 12 30t35 10q21 0 36-7t25-20 12-27l6 28h-7q-4 16-14 29t-26 23-44 8m195-249l67 206h23l-21 9 73-215h42l-115 330h-41l38-112 18 16h-46l-80-234h42m402 86v158h-40l2-60-2-6v-78l1-14q0-30-16-44t-47-14q-27 0-49 7t-38 18l3-35q10-5 23-11t30-9 37-4q26 0 45 6t29 19 17 29 5 38m-124 163q-36 0-56-18t-19-50v-7q0-34 21-51t66-23l78-11 2 30-75 10q-28 4-40 14t-12 28v4q0 20 12 30t36 10q21 0 36-7t24-20 13-27l6 28h-8q-3 16-13 29t-27 23-44 8m228-337v332h-40v-332h40m252 174v158h-40l2-60-2-6v-78l0-14q0-30-15-44t-48-14q-26 0-48 7t-39 18l4-35q10-5 23-11t30-9 37-4q26 0 44 6t30 19 17 29 5 38m-124 163q-36 0-56-18t-19-50v-7q0-34 21-51t66-23l77-11 3 30-75 10q-28 4-40 14t-12 28v4q0 20 12 30t36 10q21 0 36-7t24-20 12-27l7 28h-8q-4 16-13 29t-27 23-44 8m531-163v158h-40v-153q0-19-5-33t-16-22-30-8q-18 0-31 7t-21 20-11 27l-6-29h5q4-15 13-29t26-22 40-8q28 0 44 11t25 31 7 50m-304-25v183h-41v-244h41l-2 58 2 3m152 24v159h-40v-153q0-19-5-33t-16-22-30-8q-18 0-31 7t-21 20-11 28l-8-29h9q4-16 13-30t25-22 39-8q34 0 51 18t23 51q1 5 1 11t1 11" />
</svg>