<svg id="fnt-Anek Kannada" viewBox="0 0 2972 1000" xmlns="http://www.w3.org/2000/svg"><path id="anek-kannada" class="f" d="M142 375l-88 292h-42l100-320h66l100 320h-42l-88-292h-6m76 163v34h-146v-34h146m309-28v157h-40v-152q0-20-6-34t-17-22-33-8q-20 0-34 7t-23 20-12 28l-7-29h9q4-16 14-30t26-22 42-8q29 0 47 11t26 32 8 50m-163-27v184h-41v-244h41l-2 58 2 2m328 189q-55 0-84-27t-28-78v-44q0-51 26-79t77-28q34 0 57 13t34 36 12 55v9q0 8-1 16t-2 16h-37q1-12 1-23t0-20q0-22-7-37t-22-24-35-8q-31 0-47 18t-16 53v23l0 5v23q0 15 5 28t14 21 24 13 36 5q24 0 44-6t39-17l-4 35q-16 10-38 16t-48 6m83-142v31h-174v-31h174m156 1l116 136h-49l-96-114h-26v-32h26l92-98h48l-111 117v-9m-51-196v332h-40v-332h40m437 161l130 171h-49l-112-147h-36v-33h36l111-140h47l-126 159-1-10m-64-149v320h-41v-320h41m422 162v158h-40l2-60-2-6v-78l1-14q0-30-16-44t-47-14q-27 0-49 7t-38 18l3-35q10-5 23-11t30-9 37-4q26 0 45 6t29 19 17 29 5 38m-124 163q-36 0-56-18t-19-50v-7q0-34 21-51t66-23l78-11 2 30-75 10q-28 4-40 14t-12 28v4q0 20 12 30t36 10q21 0 36-7t24-20 13-27l6 28h-8q-3 16-13 29t-27 23-44 8m390-162v157h-40v-152q0-20-6-34t-17-22-33-8q-20 0-34 7t-23 20-12 28l-7-29h9q4-16 14-30t26-22 42-8q29 0 47 11t26 32 8 50m-163-27v184h-41v-244h41l-2 58 2 2m430 27v157h-41v-152q0-20-5-34t-18-22-33-8q-19 0-33 7t-23 20-12 28l-8-29h9q4-16 14-30t27-22 41-8q29 0 47 11t26 32 9 50m-164-27v184h-40v-244h40l-1 58 1 2m411 26v158h-40l2-60-2-6v-78l1-14q0-30-16-44t-47-14q-27 0-49 7t-38 18l3-35q10-5 23-11t30-9 37-4q26 0 45 6t29 19 17 29 5 38m-124 163q-36 0-56-18t-19-50v-7q0-34 21-51t66-23l78-11 2 30-75 10q-28 4-40 14t-12 28v4q0 20 12 30t36 10q21 0 36-7t24-20 13-27l6 28h-8q-3 16-13 29t-27 23-44 8m267 0q-44 0-67-27t-23-80v-40q0-53 23-80t69-28q22 0 39 8t26 21 14 33h13l-12 37q0-22-9-36t-24-22-35-8q-31 0-47 18t-17 53v47q0 34 17 52t47 18q19 0 33-7t23-20 13-28l10 29h-12q-3 16-13 30t-27 22-41 8m122-337v332h-41l2-59-1-13v-102l1-9-1-69v-80h40m251 174v158h-40l1-60-1-6v-78l0-14q0-30-15-44t-48-14q-26 0-48 7t-39 18l4-35q9-5 22-11t30-9 38-4q26 0 44 6t30 19 17 29 5 38m-124 163q-37 0-56-18t-19-50v-7q0-34 20-51t67-23l77-11 2 30-74 10q-28 4-40 14t-12 28v4q0 20 12 30t35 10q21 0 36-7t25-20 12-27l6 28h-7q-4 16-14 29t-26 23-44 8" />
</svg>