<svg id="fnt-Anek Odia" viewBox="0 0 2054 1000" xmlns="http://www.w3.org/2000/svg"><path id="anek-odia" class="f" d="M54 667h-42l100-320h66l100 320h-42l-88-292h-6l-88 292m164-95h-146v-34h146v34m309 95h-40v-152q0-20-6-34t-17-22-33-8q-20 0-34 7t-23 20-12 28l-7-29h9q4-16 14-30t26-22 42-8q29 0 47 11t26 32 8 50v157m-163 0h-41v-244h41l-2 58 2 2v184m328 5q-55 0-84-27t-28-78v-44q0-51 26-79t77-28q34 0 57 13t34 36 12 55v9q0 8-1 16t-2 16h-37q1-12 1-23t0-20q0-22-7-37t-22-24-35-8q-31 0-47 18t-16 53v23l0 5v23q0 15 5 28t14 21 24 13 36 5q24 0 44-6t39-17l-4 35q-16 10-38 16t-48 6m83-111h-174v-31h174v31m272 106h-49l-96-114h-26v-32h26l92-98h48l-111 117v-9l116 136m-167 0h-40v-332h40v332m429 6q-61 0-92-34t-32-95v-74q0-62 32-95t92-34 92 34 31 95v74q0 62-31 95t-92 34m0-35q40 0 61-24t20-69v-77q0-44-20-68t-61-24q-41 0-61 24t-21 68v77q0 45 21 69t61 24m263 34q-44 0-67-27t-23-80v-40q0-53 23-80t69-28q22 0 39 8t26 21 14 33h13l-12 37q0-22-9-36t-24-22-35-8q-31 0-47 18t-17 53v47q0 34 17 52t47 18q19 0 33-7t23-20 13-28l10 29h-12q-3 16-13 30t-27 22-41 8m122-5h-41l2-59-1-13v-102l1-9-1-69v-80h40v332m107 0h-40v-244h40v244m-20-284q-13 0-19-7t-6-18v-1q0-12 6-19t19-6 19 6 6 19v1q0 12-6 18t-19 7m272 284h-40l2-60-2-6v-78l0-14q0-30-15-44t-48-14q-26 0-48 7t-39 18l4-35q10-5 23-11t30-9 37-4q26 0 44 6t30 19 17 29 5 38v158m-124 5q-36 0-56-18t-19-50v-7q0-34 21-51t66-23l77-11 3 30-75 10q-28 4-40 14t-12 28v4q0 20 12 30t36 10q21 0 36-7t24-20 12-27l7 28h-8q-4 16-13 29t-27 23-44 8" />
</svg>