<svg id="fnt-Anek Gurmukhi" viewBox="0 0 3209 1000" xmlns="http://www.w3.org/2000/svg"><path id="anek-gurmukhi" class="f" d="M54 667h-42l100-320h66l100 320h-42l-88-292h-6l-88 292m164-95h-146v-34h146v34m309 95h-40v-152q0-20-6-34t-17-22-33-8q-20 0-34 7t-23 20-12 28l-7-29h9q4-16 14-30t26-22 42-8q29 0 47 11t26 32 8 50v157m-163 0h-41v-244h41l-2 58 2 2v184m328 5q-55 0-84-27t-28-78v-44q0-51 26-79t77-28q34 0 57 13t34 36 12 55v9q0 8-1 16t-2 16h-37q1-12 1-23t0-20q0-22-7-37t-22-24-35-8q-31 0-47 18t-16 53v23l0 5v23q0 15 5 28t14 21 24 13 36 5q24 0 44-6t39-17l-4 35q-16 10-38 16t-48 6m83-111h-174v-31h174v31m272 106h-49l-96-114h-26v-32h26l92-98h48l-111 117v-9l116 136m-167 0h-40v-332h40v332m449 6q-36 0-61-15t-37-43-12-67v-76q0-63 32-97t95-34q23 0 41 4t33 10 24 12l4 37q-17-11-41-19t-54-8q-46 0-69 25t-23 71v74q0 43 20 67t61 23q20 0 35-7t24-18 13-26v-78l7 14h-75v-34h109v126l-41 0q-4 15-14 29t-27 22-44 8m85-6l2-66h39v66h-41m103-244h41v151q0 20 5 34t18 22 33 8q19 0 33-7t23-20 12-28l7 29h-8q-4 16-14 30t-27 22-42 8q-28 0-46-11t-26-32-9-50v-156m163 0h41v244h-41l2-59-2-2v-183m145 94l-9-31 10 0q8-31 28-49t51-18q8 0 15 1t11 3l3 39q-7-2-14-3t-17-1q-28 0-48 15t-30 44m2 150h-40v-244h39l-2 72 3 3v169m492 0h-41v-153q0-19-5-33t-16-22-30-8q-17 0-30 7t-21 20-12 27l-6-29h5q4-15 14-29t25-22 41-8q27 0 43 11t25 31 8 50v158m-305 0h-41v-244h41l-2 58 2 3v183m152 0h-40v-153q0-19-5-33t-16-22-30-8q-18 0-31 7t-21 20-11 28l-7-29h9q3-16 13-30t25-22 38-8q34 0 52 18t22 51q1 5 2 11t0 11v159m212-244h41v151q0 20 5 34t18 22 33 8q19 0 33-7t23-20 12-28l7 29h-8q-4 16-14 30t-27 22-42 8q-28 0-46-11t-26-32-9-50v-156m163 0h41v244h-41l2-59-2-2v-183m314 244h-49l-96-114h-26v-32h26l92-98h48l-110 117v-9l115 136m-167 0h-40v-332h40v332m411 0h-41v-152q0-20-5-34t-18-22-33-8q-19 0-33 7t-23 20-12 28l-9-29h11q4-16 14-30t26-22 42-8q29 0 46 11t27 32 8 50v157m-163 0h-41v-332h40v80l-1 70 2 3v179m267 0h-41v-244h41v244m-20-284q-13 0-19-7t-6-18v-1q0-12 6-19t19-6 18 6 7 19v1q0 12-7 18t-18 7" />
</svg>