<svg id="fnt-Annapurna SIL" viewBox="0 0 2972 1000" xmlns="http://www.w3.org/2000/svg"><path id="annapurna-sil" class="f" d="M301 638v19h-107v-19l26-3q2 0 4-3t1-4l-31-83h-104l-30 81q0 1 0 2 0 7 6 7l27 3v19h-91v-19l26-6 105-284h34l104 277q2 6 4 7 1 1 6 2l20 4m-203-114h88l-45-118-43 118m451 115v18h-99v-18l19-1q9-1 9-10v-117q0-44-43-44-23 0-50 13v148q0 9 10 10l19 1v18h-102v-18l22-1q10 0 10-10v-156h-32v-15l55-17h18v23q49-28 75-28 60 0 60 69v124q0 9 10 10l19 1m255 0v18h-99v-18l19-1q9-1 9-10v-117q0-44-43-44-23 0-49 13v148q0 9 9 10l19 1v18h-102v-18l23-1q9 0 9-10v-156h-32v-15l55-17h19v23q48-28 74-28 60 0 60 69v124q0 9 10 10l19 1m231 0v18h-67l-6-27q-43 32-75 32-24 0-41-16t-17-45q0-20 13-34t34-23 44-15 42-9v-20q0-44-41-44-18 0-32 6v39h-33q-17 0-17-13 0-15 9-25t23-16 31-9 31-3q71 0 71 67v126q0 10 9 10l22 1m-73-25v-77q-55 14-75 30-13 12-13 32 0 14 8 25 10 12 25 12 22 0 55-22m317-69q0 53-30 85t-84 32q-14 0-40-4v67q0 9 10 10l27 2v18h-110v-18l22-2q9-1 9-10v-253h-31v-15l55-17h18v23q36-28 68-28 26 0 46 15t29 40 11 55m-45 6q0-22-7-41t-20-32-36-12q-21 0-46 14v154q20 8 37 8 24 0 40-13t24-33 8-45m307 88v18h-72v-26q-40 31-72 31-62 0-62-72v-123h-31v-15l55-17h18v146q0 51 43 51 23 0 49-14v-151h-31v-15l55-17h18v193q0 9 10 10l20 1m181-198v45h-18q-11-12-24-12-21 0-45 28v126q0 10 9 10l30 1v18h-113v-17l22-2q10-1 10-10v-156h-33v-15l56-17h19v40q6-8 16-19t21-18 22-8q16 0 28 6m250 198v18h-99v-18l19-1q9-1 9-10v-117q0-44-43-44-23 0-50 13v148q0 9 10 10l19 1v18h-102v-18l22-1q10 0 10-10v-156h-32v-15l55-17h18v23q49-28 75-28 60 0 60 69v124q0 9 9 10l20 1m231 0v18h-67l-6-27q-43 32-75 32-24 0-41-16t-17-45q0-20 13-34t34-23 43-15 43-9v-20q0-44-42-44-17 0-32 6v39h-32q-17 0-17-13 0-15 9-25t23-16 30-9 32-3q71 0 71 67v126q0 10 9 10l22 1m-73-25v-77q-55 14-75 30-14 12-14 32 0 14 9 25 10 12 25 12 22 0 55-22m444-42q0 31-17 52t-43 30-59 10q-45 0-80-17v-79h28l6 51q0 7 8 10 26 10 45 10 17 0 32-6t25-17 9-30q0-15-11-26t-29-23-39-20q-20-10-36-20t-24-25-9-36q0-28 14-48t37-30 52-10q16 0 36 4t44 11v70h-26l-7-43q0-6-9-10t-20-6-17-2q-26 0-42 15t-16 38q0 36 62 60 23 8 43 19t31 28 12 40m151 66v19h-119v-19l27-2q10-1 10-10v-240q0-9-10-9l-27-2v-20h119v20l-27 2q-10 0-10 9v240q0 9 10 10l27 2m246 19h-219v-19l26-2q9-1 9-10v-240q0-9-9-10l-26-2v-19h115v19l-24 2q-10 1-10 10v249h94q9 0 10-8l8-54h26v84" />
</svg>