<svg id="fnt-Anta" viewBox="0 0 1081 1000" xmlns="http://www.w3.org/2000/svg"><path id="anta" class="f" d="M10 667l124-348h64l125 348h-55l-38-105h-97l18-51h60l-45-124-101 280h-55m352 0v-202q0-21 15-36t37-15h89q25 0 46 12t33 33 12 46v162h-52v-161q0-17-11-29t-28-12h-90v202h-51m278-202v-51h33v-95h52v95h78v51h-78v130q0 8 6 14t16 6h56v52h-57q-20 0-36-10t-27-26-10-36v-130h-33m207 110v-70q0-26 12-46t33-33 46-12h141v253h-51v-202h-90q-16 0-28 12t-12 28v70q0 16 12 28t28 12h60v52h-60q-25 0-46-13t-33-33-12-46" />
</svg>