<svg id="fnt-Antic Didone" viewBox="0 0 2836 1000" xmlns="http://www.w3.org/2000/svg"><path id="antic-didone" class="f" d="M108 667l-100 0 0-7 26-3q4-1 6-7l108-333h33l115 340 35 2q0 1-1 8l-100 0q0-4 1-7l26-3q4-1 4-6l-28-82h-156l-26 87 58 3q0 1-1 8m122-108l-78-233-72 233h150m216 108l-100 0 0-7 26-3q5-1 5-7v-217q-1-4-3-4l-31-1 1-7q31-4 42-4 20 0 23 17h0v11q41-28 79-30 36 0 55 15 9 6 15 20t7 33v174l38 2q0 1-1 8l-100 0q0-4 1-7l26-3q4-1 4-7v-155q0-20-6-34t-11-20-16-10q-11-4-23-4-30 0-68 23v207l38 2q0 1-1 8m291-10l20-1 1 5q0 0-7 2-15 3-33 3-17-1-31-6t-26-20-12-39v-175h-26l4-4 22-5 4-48 28-2v50h61v9h-61v167q0 38 16 51t40 13m112-220v220l37 2q0 1 0 8l-100 0q0-4 0-7l26-3q3 0 4-5v-219q-1-4-3-4l-30-1 1-7q27-4 41-4t19 6 5 14m-17-87q-10 0-16-7t-5-16 5-17 16-6 16 6 7 17-7 17-16 6m229 74q-42 0-69 33t-26 94q0 109 83 109 32 0 55-7t25-7l4 5q-12 8-38 13t-48 5-39-5-36-16-28-36-10-60q0-66 33-99 38-39 95-39 18 0 38 5t31 15v65l-9 4-3-53q-11-11-27-19t-31-7m288-97l-26-3 0-7h122q68 0 108 39t41 128q0 87-28 131-25 38-78 48-24 4-55 4h-10l-100 0 0-7 26-3q5-1 6-7v-316q-1-6-6-7m94-3h-54v335h41q24 0 41-3t35-13 29-28q25-42 25-129 0-90-35-127-33-35-82-35m257 113v220l37 2q0 1 0 8l-100 0q0-4 0-7l26-3q3 0 4-5v-219q-1-4-3-4l-30-1 1-7q27-4 41-4t19 6 5 14m-17-87q-10 0-16-7t-5-16 5-17 16-6 16 6 7 17-7 17-16 6m306-38v329q0 15 8 15l30 2-1 7q-24 4-50 4-5 0-12-5t-7-13q-28 18-66 18-36 0-67-21-18-11-29-36t-10-60q0-66 33-100 36-37 81-37 28 0 57 14v-119q0-6-3-6l-30-1 0-7q32-4 43-4t17 6 6 14m-91 348q30 0 58-14v-209q-22-13-43-13-43 0-70 33t-26 94q0 109 81 109m293 9q-52 0-85-30t-32-92 34-97 87-35 84 30 33 91-35 97-86 36m3-245q-37 0-62 32t-25 88 23 86 62 30 62-33 25-88-24-85-61-30m248 243l-100 0 0-7 26-3q5-1 5-7v-217q-1-4-3-4l-31-1 1-7q31-4 42-4 20 0 23 17h0v11q41-28 79-30 36 0 55 15 9 6 15 20t7 33v174l38 2q0 1-1 8l-100 0q0-4 1-7l26-3q4-1 4-7v-155q0-20-6-34t-11-20-16-10q-11-4-23-4-30 0-68 23v207l38 2q0 1-1 8m212-115q0 108 84 108 22 0 47-5t32-9l4 5q-12 8-38 13t-48 5-39-5-35-16-29-36-10-60q0-66 34-101 35-36 82-36t72 26 25 73q0 10-2 21h-178q-1 6-1 17m151-42q0-37-16-61t-45-24q-37 0-63 33-20 25-25 68h149q0-6 0-16" />
</svg>