<svg id="fnt-Anton SC" viewBox="0 0 1719 1000" xmlns="http://www.w3.org/2000/svg"><path id="anton-sc" class="f" d="M91 667h-84l42-430h146l40 430h-81l-6-70h-52l-5 70m28-357l-17 219h39l-18-219h-4m229 357h-88v-367h88v47q5-21 18-36t37-14q38 0 55 23t17 64v283h-86v-274q0-11-4-20t-15-9q-10 0-15 7t-6 17-1 21v258m237 4q-36 0-48-15t-12-46v-229h-25v-66h25v-78h85v78h24v66h-24v208q0 9 3 13t11 3q6 0 10-1v60q-3 1-18 4t-31 3m184 0q-110 0-110-114v-147q0-52 29-83t81-30q51 0 80 30t29 83v147q0 114-109 114m0-68q11 0 15-8t5-20v-179q0-32-20-32t-21 32v179q0 12 5 20t16 8m229 64h-88v-367h88v47q5-21 18-36t37-14q38 0 55 23t17 64v283h-86v-274q0-11-4-20t-15-9q-10 0-15 7t-6 17-1 21v258m382 4q-58 0-84-30t-26-93v-42h84v54q0 15 5 23t16 8q11 0 16-6t5-23q0-20-4-33t-14-25-27-29l-38-36q-43-41-43-93 0-55 25-84t74-29q59 0 84 32t25 95h-88v-29q0-9-5-14t-13-5q-11 0-15 6t-5 15 5 19 19 24l50 48q14 14 27 30t20 37 7 50q0 61-22 95t-78 35m229 0q-46 0-75-29t-28-82v-198q0-63 24-96t81-33q31 0 54 11t38 34 14 56v74h-86v-63q0-19-5-26t-15-7q-12 0-16 9t-4 23v215q0 18 5 25t15 7q11 0 16-9t4-23v-77h87v81q0 57-29 82t-80 26" />
</svg>