<svg id="fnt-Anton" viewBox="0 0 1127 1000" xmlns="http://www.w3.org/2000/svg"><path id="anton" class="f" d="M91 667h-84l42-430h146l40 430h-81l-6-70h-52l-5 70m28-357l-17 219h39l-18-219h-4m229 357h-88v-367h88v47q5-21 18-36t37-14q38 0 55 23t17 64v283h-86v-274q0-11-4-20t-15-9q-10 0-15 7t-6 17-1 21v258m237 4q-36 0-48-15t-12-46v-229h-25v-66h25v-78h85v78h24v66h-24v208q0 9 3 13t11 3q6 0 10-1v60q-3 1-18 4t-31 3m184 0q-110 0-110-114v-147q0-52 29-83t81-30q51 0 80 30t29 83v147q0 114-109 114m0-68q11 0 15-8t5-20v-179q0-32-20-32t-21 32v179q0 12 5 20t16 8m229 64h-88v-367h88v47q5-21 18-36t37-14q38 0 55 23t17 64v283h-86v-274q0-11-4-20t-15-9q-10 0-15 7t-6 17-1 21v258" />
</svg>