<svg id="fnt-Anuphan" viewBox="0 0 1974 1000" xmlns="http://www.w3.org/2000/svg"><path id="anuphan" class="f" d="M54 667h-42l122-349h53l122 349h-44l-35-103h-141l-35 103m104-310l-59 170h121l-59-170h-3m245 310h-40v-258h40v42h2q10-22 27-35t46-13q40 0 63 25t24 73v166h-40v-159q0-34-15-52t-44-17q-16 0-30 5t-24 16-9 28v179m328 6q-40 0-64-26t-23-73v-165h40v158q0 35 15 52t44 18q16 0 30-6t23-16 9-28v-178h40v258h-40v-42h-2q-7 18-24 33t-48 15m239 94h-40v-358h40v42h2q10-25 30-37t46-11q32 0 56 16t36 47 13 72q0 41-13 71t-36 47-56 17q-27 0-46-12t-30-36h-2v142m67-130q34 0 53-22t20-55v-44q0-35-20-56t-53-21q-18 0-34 6t-24 18-9 25v96q0 17 9 28t24 18 34 7m223 30h-40v-370h40v154h2q10-22 27-35t46-13q40 0 63 25t24 73v166h-40v-159q0-34-15-52t-44-17q-16 0-30 5t-24 16-9 28v179m310 6q-41 0-64-21t-22-57q0-25 12-42t36-25 62-9h51v-25q0-28-15-42t-46-15q-23 0-39 11t-27 28l-24-23q11-20 34-35t58-15q46 0 72 23t27 64v142h29v35h-22q-22 0-32-11t-12-28l-1-3h-2q-8 23-28 35t-47 13m7-34q20 0 35-7t24-17 9-23v-43h-53q-34 0-50 10t-16 29v11q0 19 14 29t37 11m234 28h-40v-258h40v42h2q10-22 27-35t46-13q40 0 63 25t24 73v166h-40v-159q0-34-15-52t-44-17q-16 0-30 5t-24 16-9 28v179" />
</svg>