<svg id="fnt-Aoboshi One" viewBox="0 0 3106 1000" xmlns="http://www.w3.org/2000/svg"><path id="aoboshi-one" class="f" d="M251 315l141 338q1 4 12 4v10h-102v-10q7 0 9-3t1-6l-27-70h-163l-28 70 0 2q0 3 2 5t8 2v10h-99v-10q10 0 12-4l139-338q2-3 2-6 0-4-4-6t-9-2v-9h117v9q-5 0-9 2t-4 6q0 3 2 6m11 205l-59-150-59 150h118m289 153q-37 0-65-16t-44-43-16-62q0-34 16-62t44-45 65-16q35 0 64 16t45 43 16 64q0 31-15 58t-43 45-67 18m0-58q30 0 48-17t18-45q0-28-18-47t-48-18q-27 0-46 18t-18 46q0 29 18 46t46 17m312-184q35 0 64 15t46 43 17 63q0 37-17 64t-45 42-65 15q-42 0-73-25v19h-73v-10q3 0 7-1t4-4v-345q0-3-4-4t-7-2v-9h84v9q-4 0-8 2t-3 4v147q30-23 73-23m-4 189q30 0 50-18t20-50q0-29-20-48t-50-19q-31 0-51 19t-20 50q0 17 9 32t26 25 36 9m291 53q-37 0-66-16t-44-43-15-62q0-34 15-62t45-45 65-16q35 0 63 16t45 43 17 64q0 31-15 58t-43 45-67 18m0-58q29 0 47-17t19-45q0-28-19-47t-47-18q-28 0-46 18t-19 46q0 29 19 46t46 17m262 59q-25 0-49-10t-48-30q-1-1-2-1-4 0-9 4l-7-6 50-57 7 7q-2 2-3 6t1 5q16 15 30 22t30 8q39 0 39-26 0-11-12-18t-39-13q-36-10-52-25t-16-42q0-31 21-51t56-20q18 0 32 6t35 19q1 1 2 1 3 0 5-2t4-3l7 7-45 51-7-6q2-2 3-6t-1-5q-9-7-18-10t-18-4q-10 0-16 4t-6 12q0 7 3 11t13 8 28 10q35 10 55 29t20 46q0 41-25 60t-68 19m377-142v120q0 2 3 4t8 1v10h-88v-10q4 0 8-1t4-4v-104q0-26-13-44t-37-18q-26 0-43 17t-17 49v100q0 2 4 4t7 1v10h-84v-10q3 0 7-1t4-4v-345q0-3-4-4t-7-2v-9h84v9q-3 0-7 2t-4 4v152q13-12 32-20t38-7q32 0 56 13t36 36 13 51m108-137q-16 0-28-11t-11-28q0-15 11-27t28-11 27 11 11 27q0 17-11 28t-27 11m-33 57q0-3-4-4t-7-2v-9h86v9q-3 0-7 2t-4 4v200q0 2 4 4t7 1v10h-86v-10q4 0 7-1t4-4v-200m460 223q-58 0-104-27t-71-71-25-94q0-50 24-96t70-75 106-29q60 0 105 27t69 73 24 100q0 48-24 92t-69 72-105 28m1-66q37 0 67-16t46-45 17-65q0-38-16-69t-46-48-71-18q-37 0-67 18t-45 49-17 68q0 39 19 68t50 43 63 15m483-77v120q0 2 3 4t8 1v10h-88v-10q4 0 8-1t4-4v-104q0-26-13-44t-37-18q-26 0-42 17t-15 49v100q0 2 3 4t8 1v10h-87v-10q4 0 7-1t4-4v-200q0-3-4-4t-7-2v-9h76v20q13-12 30-19t37-6q32 0 55 13t37 36 13 51m174-106q38 0 66 17t43 45 14 63q0 11-1 21h-183q2 24 21 38t45 13q18 0 30-5t22-15q1-2 1-2 0-2-1-5t-3-3l6-7 55 43-5 8q-8-5-11-1-35 42-94 42-38 0-67-17t-45-45-15-63q0-36 15-65t43-46 64-16m-61 100h124q-2-21-21-35t-42-14-40 14-21 35" />
</svg>