<svg id="fnt-AR One Sans" viewBox="0 0 2958 1000" xmlns="http://www.w3.org/2000/svg"><path id="ar-one-sans" class="f" d="M53 667h-48l133-350h48l132 350h-48l-12-40-90-247-4-32h-4l-5 32-90 247-12 40m203-101h-190v-39h190v39m165 101h-53l5-40v-270l-5-40h122q37 0 63 14t39 39 14 50q0 18-6 36t-21 34-36 24-53 10h-74v103l5 40m201 0h-50l-22-40-83-118h39l30 27 86 131m-206-313v133h72q38 0 55-20t17-45q0-28-18-48t-55-20h-71m562 319q-30 0-59-10t-52-30-37-55-14-85q0-50 14-85t37-57 52-31 59-9 59 9 52 31 36 57 14 85q0 50-14 85t-36 55-52 30-59 10m-1-38q32 0 59-14t42-46 16-83q0-52-16-84t-42-45-58-14-59 14-42 45-16 84 16 83 42 46 58 14m457 32h-52l5-40v-128q0-27-15-41t-46-14q-24 0-41 7t-28 15-16 15v-29l54-41q10-2 20-4t22-1q24 0 45 8t34 28 13 56v129l5 40m-174 0h-52l5-40v-176l-5-39h40l7 29v186l5 40m234-128q0-50 16-79t43-42 57-12q34 0 57 13t35 39 12 61q0 10-1 18t-2 16h-195v-9l45-25h111q0-22-5-40t-18-27-40-10q-27 0-43 11t-22 33-7 49q0 34 8 54t20 31 27 13 30 4q24 0 41-5t31-13l8 5v36q-16 6-35 9t-40 4q-24 0-48-6t-43-20-30-41-12-67m522 134q-29 0-57-6t-50-17v-38l10-5q20 12 42 19t50 7q37 0 59-13t21-39q0-18-9-31t-26-21-35-17-37-16-35-21-26-29-9-43q0-33 15-53t42-30 54-9q20 0 43 4t44 14v38l-10 5q-17-11-36-16t-38-5q-20 0-36 5t-25 17-9 29q0 17 9 29t26 21 35 16 37 17 35 21 26 30 9 43-10 43-26 29-38 16-45 6m399-6h-40l-7-27v-136q0-20-6-34t-21-21-48-7q-18 0-34 3t-30 13l-8-5v-36q22-7 41-9t36-2q43 0 67 11t35 34 10 55v121l5 40m-124 6q-22 0-44-8t-36-25-14-48q0-24 9-40t24-25 35-13 39-4q12 0 22 1t20 4l26 18v23q-13-7-28-10t-33-2q-35 0-54 10t-18 38q0 23 14 34t43 12q31 0 49-10t29-24l10 22-48 41q-10 2-22 4t-23 2m416-6h-52l5-40v-128q0-27-16-41t-46-14q-24 0-41 7t-28 15-16 15v-29l54-41q10-2 21-4t21-1q24 0 45 8t34 28 14 56v129l5 40m-174 0h-52l5-40v-176l-5-39h40l7 29v186l5 40m410-249v38l-8 5q-14-9-31-14t-39-5q-15 0-28 2t-19 10-7 19q0 14 10 23t27 14 36 12 35 15 27 24 11 39q0 29-15 44t-39 22-51 7q-27 0-48-5t-36-9v-37l8-5q16 9 34 14t46 6q15 0 29-3t22-10 9-22q0-16-11-26t-27-15-36-12-35-14-27-22-11-38q0-22 9-35t23-21 33-11 36-2q22 0 40 3t33 9" />
</svg>