<svg id="fnt-Arapey" viewBox="0 0 1387 1000" xmlns="http://www.w3.org/2000/svg"><path id="arapey" class="f" d="M288 658v9h-102v-9h32l-35-97h-110l-35 97h33v9h-76v-9h19q7 0 9-7l110-299h17l110 299q3 7 10 7h18m-110-111l-49-136-50 136h99m253-102q19 0 31 16t13 42-21 25q-12 0-19-8 6-14 6-29 0-27-22-27-18 0-33 31t-14 89v67q0 7 7 7h34v9h-107v-9h23q7 0 7-7v-184q0-7-7-7h-23v-9h24q30 0 42-3v64q8-35 24-51t35-16m189 110v-5l1-17v-18q0-58-38-58-17 0-26 11t-9 26 4 26q-9 8-24 8t-15-25 19-41 55-17q70 0 70 82v102q0 27 15 27 7 0 12-6t5-15-1-16l9-2q2 8 2 17 0 18-11 28t-28 11-28-15-11-42v-9q-9 34-27 50t-43 16-39-16-15-40 24-45 67-20q10 0 32 3m-58 99q21 0 38-24t20-67q-5 0-14 0-40 0-58 16t-17 39q0 15 9 25t22 11m190 105v-292q0-7-7-7h-23v-9h24q30 0 42-3v70q9-36 27-55t42-18q32 0 56 31t24 84-28 82-71 31q-27 0-50-14v100q0 7 7 7h34v9h-107v-9h23q7 0 7-7m147-198q0-47-15-72t-37-25-40 29-19 85v68q22 14 48 14t45-26 18-73m179-116q34 0 54 23t20 67q0 9-1 20h-136v4q0 47 17 74t44 28 45-14 24-40l10 2q-6 30-28 47t-49 17q-44 0-73-31t-28-83 29-84 72-30m40 73q0-61-46-61-23 0-40 25t-17 63h101q2-17 2-27m204-58v-9h64v9h-19q-4 0-7 7l-86 231q-2 5-5 14l-6 13q-1 5-4 12t-5 12-5 11q-4 7-10 14t-14 7-15-9-9-19q46-19 62-65l9-23-74-198q-3-7-7-7h-19v-9h85v9h-25l58 158 58-158h-26" />
</svg>