<svg id="fnt-Arbutus Slab" viewBox="0 0 3115 1000" xmlns="http://www.w3.org/2000/svg"><path id="arbutus-slab" class="f" d="M-3 667v-27q21 0 31-6t16-21l132-313h42l120 313q7 16 15 21t31 6v27h-150v-27q32 0 38-5t5-9-3-13l-22-61h-142l-25 61q-5 15 4 21t42 6v27h-134m124-142h122l-57-158-65 158m285 142v-27q21 0 26-4t7-10 1-12v-134q0-18-3-23t-17-6h-14v-27q23 0 36-3t18-5 12-2q12 0 16 8t5 23v5q21-24 47-33 10-3 19-3 19 0 29 11t10 26-10 25-24 9q-13 0-22-9t-8-25q-10 2-21 9t-20 21v131q0 9 1 15t9 9 42 4v27h-139m292-29q-10 10-10 29h-37v-316q0-17-3-22t-16-6h-18v-27q24 0 37-3t20-5 12-2q13 0 17 7t4 24v131q26-34 75-34t77 31 29 92-30 98-84 37q-44 0-73-34m5-92q0 44 17 70t46 26q29 0 45-26t17-71q0-70-33-93-12-8-28-8t-28 8-20 21q-16 28-16 73m404 81q-30 45-81 45-37 0-58-23t-20-68v-101q0-18-3-23t-17-6h-6v-27q22 0 32-3t15-5 11-2q12 0 16 8t4 24v137q0 27 6 36 11 19 37 19 18 0 35-14t24-32v-112q-1-18-4-24t-16-5h-14v-27q23 0 36-3t18-5 12-2q12 0 16 8t5 23v157q0 23 2 29 4 11 19 11 9 0 14-3v24q-11 9-32 9-42 0-51-45m212 45q-77 0-77-86v-122q0-10-3-13t-10-3h-20v-29h10q18 0 27-12t9-38l0-22h39v72h75v29h-75v137q0 46 21 55 6 2 12 2 26 0 34-42h28q-3 50-42 66-13 6-28 6m283-45q-30 45-81 45-37 0-58-23t-20-68v-101q0-18-3-23t-17-6h-6v-27q22 0 32-3t15-5 11-2q12 0 16 8t4 24v137q0 27 6 36 11 19 37 19 17 0 35-14t24-32v-112q-1-18-4-24t-16-5h-14v-27q23 0 36-3t18-5 11-2q13 0 17 8t4 23v157q0 23 3 29 4 11 19 11 8 0 14-3v24q-11 9-32 9-42 0-51-45m245-175q-12-13-40-13t-39 21q-2 5-2 13t5 14 16 14 20 12 25 12 26 15q51 28 51 61t-26 52-70 19-72-16-29-40q0-14 9-23t23-9 23 8 9 21-8 20q19 11 48 11t41-13q5-5 5-14 0-20-45-42-32-16-47-24-50-29-50-69 0-30 25-49t65-19 67 15 27 38q0 14-7 21-11 11-22 11-17 0-26-8t-8-20 6-19m454-110q-12-17-54-17t-58 28q-5 9-5 23 0 26 23 47 15 14 42 29t45 27q69 44 69 96 0 46-34 71t-88 26-87-22-32-49 22-37q7-4 15-4 15 0 25 11t10 26-14 26q19 19 63 19t60-30q6-10 6-23 0-24-24-44-13-11-43-28t-48-28q-63-41-63-96 0-44 32-71t82-26 79 20 31 51q0 16-9 27t-25 11q-24 0-33-21-2-6-2-13 0-18 15-29m102 325v-27q21 0 29-6t8-20v-265q0-17-3-23t-17-5h-19v-27q24 0 38-3t20-6 13-1q12 0 17 7t4 24v299q0 15 6 20t31 6v27h-127m377-168v109q0 29 12 29 11 0 16-7t5-27h26q0 3 0 10 0 22-11 38-14 21-43 21-19 0-32-11t-19-29q-35 40-89 40-30 0-52-18t-22-49q0-54 80-80 50-16 60-22t13-13 4-14q0-15-15-24t-36-10-41 12q13 9 13 23t-10 23-22 9-22-8-9-23q0-28 29-46t70-18q74 0 90 48 5 16 5 37m-107 49q-22 9-33 23t-10 32 9 26 23 9q28 0 47-20t19-56v-37q-16 8-34 14t-21 9m253 90q-10 10-10 29h-36v-316q0-17-3-22t-17-6h-17v-27q23 0 37-3t19-5 12-2q13 0 17 7t4 24v131q26-34 75-34t78 31 28 92-30 98-83 37q-44 0-74-34m5-92q0 44 17 70t46 26q29 0 46-26t16-71q0-70-33-93-12-8-28-8t-28 8-19 21q-17 28-17 73" />
</svg>