<svg id="fnt-Arbutus" viewBox="0 0 2494 1000" xmlns="http://www.w3.org/2000/svg"><path id="arbutus" class="f" d="M2 667q1-6 2-15t1-19q0-9-1-16t-2-14q13 0 22-4t14-9q6-9 12-21t11-23 8-23 4-22q0-5-2-9t-4-5q7-2 15-11t14-21 13-29 10-32 7-32 2-27q0-4 0-8t-1-7q0-1 0-2t0-3q6 2 14 4t19 3 23 1 25 1q11 0 23-1t22-1 21-3 16-4v1 2q0 3-1 7t0 9q0 11 2 26t5 32 9 32 12 29 14 23 15 11q-3 1-5 5t-1 9q0 10 3 22t8 23 11 23 12 20q3 2 9 5t10 4 12 4 10 1q-1 6-2 14t0 16q0 10 0 19t3 15q-9-1-21-2t-24-2-28-2-28 0q-26 0-49 1t-40 5q1-5 2-13t0-20q0-5 0-10t0-9-1-7-1-5q5 0 10 0t9-2 9-2 8-5q0-10-3-17t-10-11-21-7-35-2q-19 0-32 1t-20 6-12 11-5 19q4 3 9 5t10 2 11 2 10 0q0 2-1 5t0 7-1 9 0 10q0 11 1 20t1 13q-18-4-37-5t-39-1q-23 0-45 1t-41 5m156-182q0 7 2 12t5 7 11 4 18 1 18-1 11-4 5-7 2-12q0-8-4-21t-11-26-12-27-9-25q-4 11-10 25t-12 27-10 26-4 21m286 182q2-7 2-15t1-18q0-8-1-15t-2-16q13 0 22-1t14-4 8-9 2-14v-68q0-11-3-17t-6-10-11-4-14-1h-8q2-5 4-14t1-18q0-9-1-17t-4-14q8 1 17 1t22 1q12 0 24-1t25-1 22-4 19-5q-2 5-3 10t0 10q0 8 1 15t2 15q11-3 22-8t22-13 17-14 9-15q7 4 18 6t26 3q6 0 13-1t12-1 11-3 8-4q-2 5-3 12t-2 16-1 17 0 16 1 17 1 19 2 16 2 8q-8-2-20-3t-25-2-25 2-19 3q0-26-6-37t-18-10q-6 0-13 3t-13 10-10 15-5 21l0 49q0 8 5 14t14 9 21 4 26 1q-1 5-2 13t-1 16q0 9 1 19t2 16q-7-2-19-3t-25-2-29-1-31 0q-12 0-26 0t-29 1-26 2-18 3m348 0q2-3 3-7t2-8 0-10 0-8 0-8-1-8-1-8-3-7q13 0 20-2t12-6 5-12 1-17v-30q0-8-1-16t-3-15-6-11-8-6q10-4 14-17t4-38q0-3 0-6t0-5l-1-51q0-10-2-16t-7-10-11-4-14-1h-7q2-5 3-14t1-18q0-10-1-18t-3-14q4 1 11 1t14 1 17 1 18 0q12 0 25-1t24-1 22-3 16-4q-5 9-8 21t-4 25-3 28 0 29v61q12-4 20-12t14-19q3 2 8 4t12 2 15 2 16 1q7 0 14-1t12-1 10-3 7-4q4 9 13 17t20 16 24 12 27 6q-3 7-7 26t-4 54q0 17 1 31t3 23 4 17 3 9q-14 1-27 7t-24 13-20 17-13 18q-8-3-22-6t-31-2q-18 0-32 2t-24 6q-1-5-3-11t-7-12-9-11-11-9q-9 9-14 20t-6 21q-4-1-8-2t-11-2-14-2-17 0q-18 0-29 1t-18 5m132-133q0 16 2 29t7 24 14 15 23 6q27 0 38-18t11-56q0-18-3-32t-8-22-15-12-23-4q-14 0-23 5t-14 15-7 22-2 28m281 82q7-9 10-25t3-36l0-48q-1-11-3-17t-6-10-11-4-13-1h-8q2-5 3-14t2-18q0-9-1-18t-4-13q8 1 20 1t26 1q14 0 28-1t29-2 25-3 20-5q-5 9-8 22t-5 25-2 29-1 29v43q0 9 2 18t4 16 11 11 17 4q11 0 22-2t21-8 15-14 6-24v-45q0-10-1-16t-6-9-10-6-19-1h-5q2-5 3-14t2-18q0-9-2-18t-3-13q7 1 19 1t27 1q13 0 28-1t29-2 25-3 19-5q-5 6-8 14t-5 18-2 21 0 23q0 7 0 15t0 14l0 63q0 10 0 17t5 9 11 5 23 1q-2 6-3 14t-1 16q0 10 1 19t3 15q-6-3-19-5t-29-1q-18 0-32 1t-22 5q0-9-2-15t-4-12-5-9-7-6q-10 2-20 6t-17 11-14 12-7 13q-2-2-8-3t-12-2-16-1-15 0-15 0-16 1-14 2-10 3q-2-9-6-17t-11-15-14-12-17-7m384 0q8-9 11-25t2-36v-70q0-5-1-8t-4-7-7-4-11-1q-3 0-8 0t-9 2q1-7 1-15t1-17q0-8-1-16t-1-14q2 2 6 3t7 2 7 1 5 1q7 0 11-6t3-19q0-2 0-6t0-8-1-8-2-6q2 1 4 1t4 0q13 0 26-4t27-9 25-9 18-5q-2 6-3 13t-2 14-1 14 0 12q0 8 2 13t6 8 14 3 23 2q6 0 14-1t16 0 17-2 16-4q-2 7-3 15t-1 18q0 10 1 19t3 16q-8-1-18-2t-20-2-18-1-13-1q-13 0-21 1t-12 3-7 6-1 8v66q0 9 1 20t4 20 8 15 13 6q9 0 15-4t9-10 6-15 1-19q6 1 15 3t18 1q9 0 18-1t12-3q-2 5-3 15t0 21 0 20 3 14h-2q-9 0-20 3t-20 8-17 10-12 12q-2-2-8-3t-12-2-15-1-16 0-15 0-16 1-13 2-10 3q-3-9-7-17t-11-15-14-12-17-7m283 0q8-9 11-25t2-36l0-48q0-11-3-17t-6-10-10-4-14-1h-8q2-5 4-14t1-18q0-9-1-18t-4-13q8 1 20 1t26 1q14 0 29-1t28-2 25-3 20-5q-5 9-8 22t-5 25-2 29 0 29v43q0 9 1 18t5 16 10 11 17 4q11 0 23-2t20-8 16-14 5-24v-45q0-10-1-16t-5-9-11-6-19-1h-5q2-5 3-14t2-18q0-9-2-18t-3-13q8 1 19 1t27 1q14 0 28-1t29-2 25-3 20-5q-5 6-9 14t-4 18-2 21-1 23q0 7 0 15t0 14l0 63q0 10 1 17t4 9 12 5 22 1q-2 6-3 14t-1 16q0 10 1 19t3 15q-6-3-19-5t-29-1q-17 0-32 1t-22 5q0-9-2-15t-4-12-5-9-7-6q-10 2-19 6t-18 11-13 12-8 13q-2-2-8-3t-12-2-16-1-15 0-15 0-16 1-13 2-10 3q-3-9-7-17t-11-15-14-12-17-7m364 45q2-5 3-15t1-23q0-11-1-21t-3-17q3 1 9 2t12 2 14 2 14 0q13 0 25-2t18-4q0 7 2 13t7 11 11 8 17 3q14 0 22-6t8-16q0-10-7-17t-17-11-27-7-33-2q-6 0-12 0t-13 1-12 1-8 2q0-6-4-13t-11-13-13-11-12-5q2-2 3-6t3-9 1-11 1-10q0-11-2-22t-6-17q9-2 17-6t17-10 14-14 8-15q3 1 10 3t18 3 21 2 22 0q20 0 32-3t15-10q3 5 10 8t15 6 18 4 17 1q5 0 9-1t7-1q-1 5-1 9t-1 9-1 8 0 9q0 9 1 18t2 16q-4-2-14-4t-22-1q-7 0-14 1t-14 1-11 1-6 2q0-16-12-25t-29-9q-16 0-22 5t-6 14q0 8 8 16t21 12 31 9 34 3q5 0 9 0t9-1 7-1 6-2q1 7 6 14t11 13 13 11 12 6q-3 5-5 15t-2 21q0 11 1 20t6 15q-9 2-18 6t-15 10-14 13-9 15q-10-4-28-6t-40-3q-10 0-18 1t-12 2-9 4-5 4q-4-2-9-4t-13-2-14-2-14 0q-12 0-22 0t-17 3" />
</svg>