<svg id="fnt-Architects Daughter" viewBox="0 0 4757 1000" xmlns="http://www.w3.org/2000/svg"><path id="architects-daughter" class="f" d="M268 488h14q8 0 16 1t7 11q4 20-23 19-7 0-13-1t-10 0-4 3q5 14 11 31t12 36q18 43 34 62-9 10-20 17t-11 7-2-1l-69-145-133 33-5 21q-14 56-31 78-3 5-13 1-15-6-15-10 0-1 10-28t21-56 22-59 21-58 19-50 12-32 4-18 4-13q5-11 24-11 21 12 33 30t19 41 16 43 21 40q5 7 13 7t16 1m-122-106q-4 30-18 62t-22 48-14 32q33 0 82-19 12-6 23-10-23-98-51-113m427 106q-20-14-52-14-31 0-57 11-48 21-67 53-7 14-7 31 0 3 0 16t5 36 4 47q-10 0-16 2t-11 2-7-4-8-15q0-3-2-17t-3-33-5-43-5-45q-6-49-9-72 0-12 18-12 10 0 16 9t9 19 5 22 2 15q64-57 160-57 11 0 22 0 3 0 8 0t9 5q5 7 5 17 0 24-14 27m234 127q20-8 39-15t36-7 17 11q0 3-1 8t-13 12-29 13-38 12-40 9q-41 9-58 9t-37-4-37-13q-39-20-39-60 0-3 0-12t7-25 22-33 34-30q41-29 86-38 16-4 26-4t18 1 14 1 13 3q12 7 12 25 0 12-16 23-5 3-8 5-2-11-6-19t-17-7q-58 12-100 36-46 28-46 59 0 3 0 7 0 31 24 45 18 9 47 9t49-6 41-15m348 45q-4 8-22 8t-19-13q0-58-2-79-5-48-19-51-35-7-57-7t-37 14-22 44-11 87h-37q1-28 1-52t-1-56-3-72q-2-45-2-76t4-57q5-10 14-10 11 0 17 9t7 14l-2 81q0 45 4 67 44-29 91-29 15 0 32 3 37 19 48 40 6 11 7 24t2 29q3 55 7 82m32-223h30q7 91 11 212-3 15-23 15-6 0-11-2t-7-7v-218m-15-66q0-17 20-17 13 0 21 6 2 5 2 10t-4 10-12 5-15-4-12-10m151 249l1-78q0-19-4-32h-75l-1-34h73v-126q1-4 6-9 7-6 11-6t8 1 8 6q7 33 7 98 0 16 2 31 16-2 31-2 0 0 26 0 9 0 17-1l-2 36-71-2 2 168q-8 4-15 4-24 0-24-54m228 12q43 0 129-39 6 0 9 4t3 9q-19 33-74 51t-103 7q-55-14-66-61-1-10-1-25t8-41 27-49 46-36 56-13q29 0 64 19 17 9 26 21t10 24q0 3 0 7-1 30-29 38-12 3-29 3l-70-3q-35 0-54 15-10 8-15 25 12 44 63 44m87-150q-11-8-23-12t-19-3-26 5-31 12q-34 15-34 32 39 4 59 4 54 0 73-10 12-4 12-12 0-9-11-16m281 133q20-8 39-15t36-7 18 11q0 3-2 8t-13 12-29 13-38 12-40 9q-40 9-57 9t-37-4-37-13q-40-20-40-60 0-3 0-12t8-25 22-33 34-30q41-29 86-38 15-4 26-4t17 1 14 1 13 3q13 7 13 25 0 12-17 23-4 3-8 5-2-11-6-19t-17-7q-58 12-99 36-47 28-47 59 0 3 0 7 0 31 24 45 18 9 47 9t49-6 41-15m193 5l1-78q0-19-4-32h-75l-1-34h73v-126q1-4 6-9 7-6 11-6t8 1 8 6q7 33 7 98 0 16 2 31 16-2 31-2 0 0 26 0 9 0 17-1l-2 36-71-2 2 168q-8 4-15 4-24 0-24-54m295-79q54 0 54 27 0 21-30 48-44 40-119 65-4 0-8-7t-6-11-4-4q57-19 93-45 24-18 24-29t-29-11-84 14q-26-1-44-19-16-15-16-30t9-28 23-25 34-20q48-23 99-23 15 0 30 3 11 0 13 10t2 34q-29-13-65-13-45 0-74 18-30 17-31 46 0 13 20 13l35-4q46-9 74-9m322-174q37-13 96-13 109 0 149 54 16 20 16 52 0 5 0 9 0 49-57 99-52 47-129 76-51 20-84 20-13 0-23-4v-305h7q11 0 18 4t7 8m228 97q-4-43-48-64-33-16-82-16l-9 0q-47 1-80 15v233q34 0 85-25 89-44 122-102 12-20 12-41m251 122q-37 57-98 71-14 3-26 3t-19 0-17-3-17-6q-18-10-18-29-2-9-2-20t5-29 18-39 31-38q39-37 84-48 13-3 24-3t20 1q28 0 38 39 6 24 8 68t2 68 6 43h-29q-2-13-3-24t-2-19q-2-20-5-35m-2-76q0-28-28-28-4-1-7-1-36 0-75 34-19 16-32 35-20 28-20 50 0 29 34 34 44-1 84-40 17-17 28-37 16-27 16-47m62 92q0-8-2-22t-2-31-1-33 3-31q6-32 26-32 14 4 19 10t4 14-4 21q-16 43-16 77 0 11 1 24 8 32 54 32 24 0 46-8 41-15 55-35 5-23 5-40t-2-30-3-29-2-35q7-3 13-3t12 7 12 24 6 41 1 49 1 49 2 41q-6 5-12 5-19 0-28-39-7 5-22 13-32 18-76 24-8 1-19 1t-25-4-29-18-17-42m397 274l-7-1q-14 0-31 2h-19q-29 0-45-11-9-6-9-18l112-5q52-2 52-56 0-2 0-6t0-21l2-157q0-8 0-13-79 73-153 73-6 0-12 0-33 0-33-29 1-23 13-50t32-52 43-45q38-31 73-31 41 0 67 44 8 116 8 165t-1 80-7 57-13 41-20 22q-18 11-52 11m29-384q-6-2-16-2t-27 9-32 22-28 31q-32 42-32 67 0 8 4 12 3 2 9 2t14-2 27-9 35-18 33-25q34-31 34-61 0-18-21-26m317 168q-4 8-22 8t-19-13q0-58-2-79-5-48-19-51-35-7-57-7t-37 14-22 44-11 87h-37q1-28 1-52t-1-56-3-72q-2-45-2-76t4-57q5-10 14-10 11 0 17 9t7 14l-2 81q0 45 4 67 44-29 91-29 15 0 32 3 37 19 48 40 5 11 7 24t2 29q3 55 7 82m92-40l1-78q0-19-3-32h-76l-1-34h73v-126q2-4 6-9 7-6 12-6t8 1 7 6q8 33 8 98 0 16 1 31 16-2 31-2 0 0 26 0 9 0 17-1l-2 36-71-2 3 168q-9 4-16 4-24 0-24-54m228 12q43 0 129-39 6 0 9 4t4 9q-20 33-75 51t-103 7q-54-14-66-61-1-10-1-25t8-41 28-49 46-36 56-13q28 0 63 19 17 9 27 21t9 24q0 3 0 7-1 30-29 38-12 3-28 3l-71-3q-35 0-53 15-11 8-15 25 12 44 62 44m87-150q-11-8-22-12t-20-3-25 5-32 12q-33 15-33 32 39 4 58 4 54 0 73-10 12-4 12-12 0-9-11-16m324 6q-21-14-53-14-30 0-56 11-49 21-67 53-8 14-8 31 0 3 0 16t5 36 5 47q-10 0-17 2t-10 2-8-4-7-15q-1-3-2-17t-4-33-5-43-5-45q-5-49-8-72 0-12 17-12 10 0 16 9t9 19 5 22 2 15q65-57 160-57 11 0 23 0 3 0 7 0t9 5q5 7 5 17 0 24-13 27" />
</svg>