<svg id="fnt-Archivo Black" viewBox="0 0 3785 1000" xmlns="http://www.w3.org/2000/svg"><path id="archivo-black" class="f" d="M385 667h-117l-15-49h-120l-15 49h-113l126-344h128l126 344m-193-248l-36 122h74l-36-122h-2m388-23q11 0 20 3t9 3v84h-32q-31 0-45 16t-13 47v118h-100v-264h82l6 40q9-23 29-35t44-12m206 1q65 0 105 27t41 85h-97q0-45-49-45t-49 57v28q0 56 51 56t51-46h93q0 58-41 86t-105 28q-69 0-109-35t-39-103 39-103 109-35m288 33q16-16 38-25t45-8q46 0 69 25t23 74v171h-100v-159q0-17-9-28t-24-10q-19 0-30 12t-12 30v155h-99v-363h99v126m337-58h-99v-68h99v68m0 295h-99v-264h99v264m238 0h-104l-100-264h107l48 164h4l48-164h98l-101 264m255-270q69 0 109 35t40 103-40 102-109 36-109-35-40-103 40-103 109-35m0 67q-49 0-49 57v28q0 56 49 56 49 0 49-56v-28q0-57-49-57m599-141q26 0 48 10t34 31 13 43q0 64-57 80v2q65 15 65 86 0 27-13 48t-36 32-51 12h-232v-344h229m-118 75v59h76q11 0 18-8t7-19v-5q0-11-7-19t-18-8h-76m0 130v59h84q11 0 18-8t7-19v-5q0-12-7-20t-18-7h-84m374 139h-99v-363h99v363m194-270q61 0 99 20t38 66v103q0 8 4 14t12 5h18v58q-2 1-8 3t-18 4-26 3q-29 0-48-9t-26-24q-19 15-42 24t-55 9q-93 0-93-74 0-39 20-59t60-28 102-7v-13q0-16-11-24t-27-8q-16 0-27 6t-11 17v2h-98q-1-2-1-7 0-37 36-59t102-22m37 155q-42 0-63 9t-20 25q0 25 34 25 20 0 34-11t15-26v-22m303-155q65 0 105 27t40 85h-96q0-45-49-45t-49 57v28q0 56 51 56t51-46h92q0 58-40 86t-105 28q-70 0-109-35t-40-103 40-103 109-35m288 107l84-101h116l-97 106 100 158h-113l-56-91-34 34v57h-100v-363h100v200" />
</svg>