<svg id="fnt-Archivo" viewBox="0 0 1671 1000" xmlns="http://www.w3.org/2000/svg"><path id="archivo" class="f" d="M53 667h-49l135-343h63l136 343h-52l-33-85h-167l-33 85m90-233l-42 107h136l-42-107q-1-5-4-13t-7-18-7-20-6-18h-3q-4 10-8 23t-9 25-8 21m277 233h-44v-263h35l4 43h4q4-12 11-24t19-18 29-7q8 0 14 1t9 3v40h-16q-17 0-30 6t-20 16-12 25-3 31v147m217 6q-38 0-64-15t-39-46-13-77 13-77 39-45 65-15q27 0 47 7t33 20 19 33 6 43h-44q0-23-7-38t-19-22-36-7-38 10-24 31-9 55v11q0 32 8 54t25 31 39 10q22 0 36-8t20-23 6-36h43q0 22-6 41t-19 33-33 22-48 8m203-6h-44v-362h44v132h4q10-14 22-22t28-13 33-4q25 0 44 8t29 28 11 51v182h-44v-176q0-16-4-27t-12-16-17-9-23-2q-18 0-35 8t-26 26-10 41v155m282-313h-44v-49h44v49m0 313h-44v-263h44v263m182 0h-44l-98-263h46l48 131q4 10 8 24t9 29 8 26h3q3-11 8-26t9-29 8-24l48-131h44l-97 263m244 6q-40 0-68-15t-41-45-14-78q0-47 14-78t41-45 68-14 67 14 41 45 14 78q0 47-14 78t-41 45-67 15m0-37q25 0 42-10t26-32 9-53v-11q0-33-9-54t-26-31-42-10-43 10-26 31-8 54v11q0 32 8 53t26 32 43 10" />
</svg>