<svg id="fnt-Aref Ruqaa Ink" viewBox="0 0 3217 1000" xmlns="http://www.w3.org/2000/svg"><path id="aref-ruqaa-ink" class="f" d="M286 672q-12 0-18-14t-11-29l-27-94q-2-5-5-5h-113q-3 0-5 4l-58 124-46 10-1-5q44-75 87-152t82-154q1-2 1-4 0-1-2-3t-4-2l-45-8v-13h97q4 20 11 51t18 66 17 64q9 31 19 64t24 55q5 8 13 12t19 3q5 0 11 0t10-1l1 13-52 15q-11 3-23 3m-103-293q-3 0-3 2l-58 122q0 0 0 2t0 2q0 4 3 4h94q4 0 4-4 0 0-1-2t0-2l-35-122q-1-2-4-2m381 94l-27 24-6-2q-2-11-8-20t-18-9q-16 0-25 10t-14 21q-3 8-4 23t0 31 1 31q0 37 1 76l-35 10-7-4q2-27 4-58t2-61q0-19-1-39t-5-32-16-13q-8 0-19 5t-20 10l-6-8q10-8 22-17t24-15 22-6q17 0 25 10t11 26l5 2q7-7 16-15t20-14 19-6q35 0 39 40m214 24q0 4-3 6t-7 4l-141 61q1 16 8 32t20 28 36 11q21 0 40-11t37-23l6 1 6 9q-15 14-34 27t-38 22-42 9q-25 0-41-11t-25-28-13-38-4-42q0-22 6-43t20-38q18-22 44-34t54-11q33 0 52 20t19 49m-88-49q-13 0-24 5t-18 16q-15 15-19 32t-4 36q0 2 0 4t1 5l2 2 101-40q2-1 4-4t2-9q0-11-5-22t-16-18-24-7m100 16l2-11 3-3h53l3-3q0-13 1-31t8-30q11-27 32-40t44-14q21 0 31 9t16 18l-29 27-6-2q-1-5-4-13t-8-13-17-6q-11 0-18 13t-9 35-3 47l2 3h62l2 3-3 11-4 3h-57l-3 3v56q0 35 1 69t4 66l-40 12-8-6q2-37 4-72t2-70v-54l-3-4h-56l-2-3m375 37l-1 4 132 148v5l-50 13q-17-23-37-48t-37-47-31-39-19-22q-5-4-10-4 0 36 0 72t2 72l-41 15-6-5q3-54 4-109t1-109q0-3-1-12t0-23-1-27 0-24q0-8-9-13t-18-7-11-2l0-9 3-3h136q46 0 74 18t28 52q0 35-15 57t-39 33-54 14m-54-19q0 2 1 4t4 3q27 0 52-8t40-28 16-48q0-24-13-37t-32-17-39-4h-20q-5 0-6 13 0 9-1 24t0 32-1 31-1 24 0 11m504 131l4 1 6 10q-12 10-26 21t-28 18-27 8q-17 0-25-11t-9-25l-4-1q-14 9-31 17t-32 15-31 6q-22 0-33-10t-16-23-4-28q0-6 0-18t1-24 1-23 0-17q0-23-1-35t-2-17-5-8q-4-5-14-5-5 0-16 5t-20 10l-6-10q10-7 21-16t24-14 23-6q19 0 25 10t7 35 1 67q0 25 1 47t11 36 33 13q17 0 34-9t31-17q0-25 0-56t1-57q0-17 0-31t-1-22l39-17 6 5q-6 70-6 139 0 15 1 28t6 22 18 8q10 0 22-7t21-14m231 161l-40 14-8-8q0-7 1-23t1-37 1-41 1-39l-4-3q-19 14-41 24t-45 9q-19 0-33-9t-22-23-13-32-3-32q0-26 7-52t21-46 37-33 55-12q11 0 25 4t24 10l5-1 22-29 10 2q-3 43-5 93t-2 100q0 46 2 88t4 76m-44-160v-113q0-9-1-19t-7-16q-7-7-15-12t-19-4q-28 0-44 16t-23 41-6 53q0 21 5 39t19 29 33 11q14 0 30-7t28-18m212-180q12 0 26 4t27 13l27-15 2 2q-3 55-3 109 0 12-1 28t1 31 5 25 15 10q5 0 15-3t17-6l4 12q-10 6-22 12t-22 12-19 5q-14 0-20-9t-9-21l-7-2q-19 12-39 22t-43 10q-21 0-35-9t-22-24-13-32-3-34q0-26 6-51t21-46 37-32 55-11m-11 206q15 0 28-7t25-16v-115q0-10-1-19t-7-15q-6-7-15-12t-19-5q-27 0-47 19-9 8-18 30t-9 59q-1 16 2 31t12 29q8 13 21 17t28 4m285-206q12 0 26 4t27 13l27-15 2 2q-3 55-3 109 0 12-1 28t1 31 5 25 15 10q5 0 15-3t17-6l4 12q-10 6-22 12t-22 12-19 5q-14 0-20-9t-9-21l-7-2q-19 12-39 22t-43 10q-21 0-35-9t-22-24-13-32-3-34q0-26 6-51t21-46 37-32 55-11m-11 206q15 0 28-7t25-16v-115q0-10-1-19t-7-15q-6-7-15-12t-19-5q-27 0-47 19-9 8-18 30t-9 59q-1 16 2 31t12 29q8 13 21 17t28 4m356 15l-1 12h-132v-13q18-3 27-7t12-8 4-15 1-24v-182q0-14 0-29t-1-28q-1-8-4-11t-12-4-29-7v-11l4-3h125l3 3v11l-34 7q-10 3-11 13-2 15-2 37t0 47 1 44q0 25 0 49t1 46q0 11 0 25t2 25 14 15q5 1 13 3t13 4 6 1m100 3l-35 12-7-4q0-9 1-28t1-41 2-43 0-36q0-25-3-42t-15-16q-8 0-18 5t-20 13l-8-11q10-8 22-16t24-14 21-6q19 0 27 10t9 24l4 3q21-13 46-24t49-12q11 0 21 3t17 12q5 6 7 21t3 35 0 36q0 37 0 59t5 30 19 9q9 0 20-7t20-13h7l4 10q-17 17-39 31t-39 14q-21 0-29-13t-7-31l2-86q0-37-9-59t-36-21q-17 0-34 9t-30 21q-1 27-2 58t-1 59q0 10 0 22t1 27m295-331v207h7l67-62q19-18 29-27t16-13 11-8l23 15v5q-28 17-55 36t-51 40q-3 2-6 5t-3 5 1 4 3 4q11 14 24 30t28 30 26 23 20 9q12 0 21-5t18-14l9 10q-6 8-16 19t-22 21-25 9q-11 0-19-5t-21-19q0 0-7-10t-19-25-26-33-28-32l-6 4v110l-35 10-3-3q1-59 3-117t3-117q0-19-1-36t-4-27q-3-12-13-16t-30-6v-11l3-2 80-11-2 3" />
</svg>