<svg id="fnt-Arimo" viewBox="0 0 1286 1000" xmlns="http://www.w3.org/2000/svg"><path id="arimo" class="f" d="M246 566h-157l-40 101h-48l140-344h53l139 344h-48l-39-101m-79-208q-4 13-10 30t-10 30l-44 112h129l-44-114q-4-8-10-24t-11-34m245 171v138h-44v-203q0-14 0-29t-1-33h41q1 12 1 21t1 16 0 11 0 6h1q7-23 16-37 9-12 20-17t27-4q9 0 18 2v40q-9-2-24-2-27 0-41 23t-15 68m121-225h44v42h-44v-42m0 98h44v265h-44v-265m156 112v153h-43v-208q0-23-1-37t-1-20h42q0 6 1 14t1 16 0 16h0q15-28 33-39t45-11q30 0 47 12t24 38h1q14-27 33-39t47-11q40 0 58 21t19 72v176h-44v-168q0-38-10-53t-38-14q-29 0-45 21t-16 61v153h-43v-168q0-38-11-53t-38-14q-28 0-44 21t-17 61m596 20q0 70-31 104t-88 34q-58 0-88-36t-29-102q0-68 29-102t89-34q61 0 89 33t29 103m-46 0q0-54-17-79t-54-25q-39 0-56 25t-17 79q0 53 17 79t53 26q40 0 57-25t17-80" />
</svg>