<svg id="fnt-Arima" viewBox="0 0 1350 1000" xmlns="http://www.w3.org/2000/svg"><path id="arima" class="f" d="M160 314q8 0 15 3t9 12l100 310q2 6 5 12t7 12q-3 3-8 6t-15 3q-9 0-17-4t-8-12l-101-326 7 0-93 310q-1 4-2 8t-1 9q0 3 0 6t3 5q-5 2-10 3t-12 1q-11 0-17-4t-6-14q0-4 2-11t3-12l106-311q16-6 33-6m-83 243v-24h159v24h-159m285 114q-9 0-16-6t-7-17v-184q0-15-4-21t-10-5q-3 0-7 1t-6 7q-6-8-6-16 0-10 8-17t22-6q19 0 29 13t9 41v33h-6q5-43 24-66t49-22q25 0 41 14t16 38q0 17-9 27t-20 11q-12 1-18-5 6-9 8-17t2-15q0-16-8-23t-21-8q-14 0-26 12t-20 37-7 69q0 30 0 49t0 32 2 20 4 15q-3 3-9 6t-14 3m215-306q-11 0-19-8t-8-19q0-11 8-19t19-8q11 0 19 8t8 19q0 11-8 19t-19 8m21 63l1 182q0 14 1 28t5 25q-3 3-9 6t-14 3q-9 0-16-6t-6-16l-1-181q0-15-1-29t-5-25q3-2 8-6t15-3q10 0 16 6t6 16m443 82v100q0 13 1 27t5 26q-4 4-9 6t-14 3q-10 0-16-6t-7-16v-135q0-26-4-46t-14-30-29-11q-11 0-23 6t-21 20-16 34-7 52l0 70q0 13 1 27t5 26q-3 4-9 6t-13 3q-10 0-16-6t-6-16l-1-135q0-42-10-65t-39-22q-11 0-23 7t-21 20-15 38-6 56q0 29 0 48t1 31 2 20 4 15q-3 3-8 6t-15 3q-10 0-16-6t-7-18l0-184q0-13-5-20t-13-6q-4 0-9 2t-6 8q-6-7-6-15 0-12 9-19t22-7q20 0 32 13t11 42v34l-4-8q7-37 29-60t56-22q36 0 54 21t21 62l-6-2q4-24 15-43t30-28 40-10q39 0 57 27t19 77m273 162q-21 0-32-15t-11-47v-45l9 5q-8 30-26 53t-40 36-50 13q-29 0-46-16t-16-42q0-20 10-36t30-27 43-18q21-5 43-7t41-1v-13q0-44-15-66t-49-22q-12 0-24 4t-20 12-8 25q0 10 5 20t17 15q-5 6-11 8t-13 2q-18 0-28-13t-10-31q0-29 26-45t70-15q52 0 76 27t24 81v100q0 27 18 27 4 0 9-3t8-8q3 4 4 8t1 8q0 11-10 18t-25 8m-132-28q15 0 30-9t28-23 21-33 9-38q-12-1-26 0t-28 3-24 7q-22 8-34 21t-13 34q0 15 9 27t28 11" />
</svg>