<svg id="fnt-Arizonia" viewBox="0 0 1806 1000" xmlns="http://www.w3.org/2000/svg"><path id="arizonia" class="f" d="M100 687q-31 0-55-7t-33-14q-26-20-26-45 0-22 19-44t58-40 97-28q25-5 50-7t52-3q22 0 44 2t44 7q7 1 16 3t19 6q41-43 81-85t76-71q26-20 49-28t40-7q20 0 33 6t18 10q1 2 0 3t-3 0q-3-3-12-6t-25-4q-18 0-43 9t-56 32q-37 29-74 67t-75 77q20 7 36 19t19 30v2q0 2-1 2-2 0-3-3-2-6-12-10t-21-6-23-4-16-2l-6-1q-41 40-86 74t-93 51q-24 8-46 11t-42 4m386 24q-22-16-33-38t-10-49 9-52q9-26 26-55t38-56 39-50 33-37 16-19q3-4 4-4 2 0 3 3t1 8q0 8-2 11-13 17-31 42t-37 57-34 64-26 65-10 57q0 15 4 28t13 22q1 0 1 1t-1 2-3 0m-385-33q19 0 40-3t45-10q43-14 85-46t84-73q-7 0-13 0t-14 0q-35 0-73 3t-71 10q-55 10-90 24t-51 30-16 29q0 14 13 24 7 5 23 8t38 4m489-11q-21 0-29-8t-7-18q0-13 10-28 6-8 13-19t14-20 9-14q4-5 4-7t1-3q0-3-4-6t-12-3q-2 0-4 0t-4 1q-4 0-4-1l-2 2q-14 19-30 36t-35 33q-2 2-3 2-2 0-2-2 0-4 6-9 16-13 31-30t27-34q-5-3-5-12 0-13 9-29 6-10 13-16t13-5q10 0 10 13 0 8-6 20-2 6-10 15t-14 13q11-3 27-5t27-1q7 0 16 4t10 13q0 7-6 14-2 2-8 10t-15 18-14 21q-6 9-10 17t-4 14q0 8 9 8 11 0 28-10t38-26 37-33q2-2 4-2 2 0 2 3 0 3-3 5-17 18-39 36t-44 31-44 12m217-153q-7 0-10-5t-4-9q0-10 10-20t20-10q7 0 10 5t4 9q0 11-10 20t-20 10m-76 153q-21 0-28-9t-7-19q0-9 3-18t5-11q3-5 8-12t12-14q-10 9-19 17t-14 12q-2 1-3 1-2 0-2-2 0-4 5-8 13-11 25-24t24-25 19-15q9-5 15-7t9-1q5 0 8 1t1 4q-9 9-17 22t-15 28-12 27-4 22q0 13 10 13 10 0 25-9t32-22 31-27q2-2 4-2 2 0 2 3t-1 3q-16 16-37 32t-42 29-37 11m4 149q-26 0-39-7t-12-19q0-16 23-36t71-38q24-10 50-16t50-5q7 0 15 0t14 2q9 2 16 6t6 8q0 3-4 2-3-1-8-1t-9-1q-15 0-35 4t-41 10-40 14q-30 11-48 26t-18 28q0 6 6 10t20 4q15 0 34-5t38-11 35-13q30-12 54-32t40-40 15-39q0-16-15-26t-49-10q-17 0-34 2t-28 5-13 2q-5 0-5-4 0-5 6-11t11-9q12-4 29-8t44-15q17-7 30-14t14-12q0-3-6-5t-15-1-17-1q-12 0-26 2t-24 5-14 13q-7-5-7-14 0-17 18-28 10-6 26-10t36-3q29 0 42 7t14 19q0 16-23 30-10 7-25 12t-32 12q5-1 10-1t9 0q37 0 58 13t20 36q0 17-14 39t-43 45q-21 17-44 29t-37 19q-30 13-65 22t-64 9m327-145q-20 0-30-10t-9-25q0-9 2-18t6-16q-4 3-7 6t-5 4-4 2q-2 0-2-3 0-3 5-8 18-14 28-26t21-20q18-16 39-25t42-9q22 0 35 10t12 31q0 12-7 27t-21 31q-6 6-13 12t-13 10q24-3 46-18t38-29q3-1 4-1 2 0 2 2 0 2-2 5-22 20-47 34t-54 14q-18 9-35 15t-31 5m22-14q7 0 15-2t16-7q-3 0-6-3t-2-8q0-10 7-20t19-18 21-8q6 0 11 3t6 9q9-9 12-20t3-21q0-13-8-20t-22-6q-14 0-30 9t-31 25-23 32-9 34q0 21 21 21m136 12q-5 0-12-2t-14-8q6-8 16-21t22-28 21-31q-8 8-17 17t-19 17q-2 2-5 2-2 0-2-2 0-3 4-6 14-13 31-29t26-33q2-6 2-11 0-7-2-8-2-2-2-4 0-5 4-5 3 0 4 1 6 3 11 10t5 21q0 8-2 18t-7 23q7-10 15-19t14-17q14-16 27-23t25-6q13 0 21 7t8 20q0 9-5 19-1 4-7 12t-12 18-12 17q-6 8-9 14t-2 9q0 5 5 5 7 0 20-7 7-5 17-13t19-16 16-13q2-2 4-2 2 0 2 2 0 3-3 6-15 14-35 30t-38 26q-16 7-29 7-11 0-17-6t-7-16q0-8 4-19 5-14 14-27t20-26 18-21q6-7 6-12 0-4-6-4t-18 6-26 22q-20 22-36 47t-35 47q-11 12-22 12m313-155q-7 0-11-5t-3-9q0-10 9-20t20-10q7 0 11 5t3 9q0 11-9 20t-20 10m-77 153q-20 0-28-9t-7-19q0-9 3-18t5-11q3-5 8-12t12-14q-10 9-19 17t-14 12q-1 1-3 1-2 0-2-2 0-4 6-8 13-11 25-24t23-25 20-15q9-5 14-7t9-1q6 0 8 1t1 4q-8 9-17 22t-15 28-11 27-4 22q0 13 10 13 9 0 24-9t32-22 32-27q2-2 3-2 3 0 3 3t-1 3q-17 16-38 32t-41 29-38 11m130 0q-15 0-24-10t-8-25q0-14 7-32t25-35q18-19 44-31t49-12q19 0 33 8t18 21q5 0 13 3t9 11q0 6-6 13-3 5-12 15t-16 21q-6 9-10 17t-3 13q0 8 7 8 9 0 26-10 18-10 35-24t27-21q2-2 3-2 2 0 2 2 0 3-2 6-5 4-18 15t-30 23-32 19q-8 4-15 5t-12 2q-14 0-21-8t-7-20q0-5 2-10t3-11l4-9q-13 16-26 27t-26 19q-11 6-21 9t-18 3m16-13q9 0 26-11t39-33q3-3 11-11t18-17 16-20 7-16q0-9-16-9-15 0-35 11t-39 33q-19 23-28 39t-8 25q0 9 9 9" />
</svg>