<svg id="fnt-Arsenal SC" viewBox="0 0 2123 1000" xmlns="http://www.w3.org/2000/svg"><path id="arsenal-sc" class="f" d="M38 667h-26l109-325h45l107 325h-39l-34-100h-128l-34 100m99-296l-58 175h114l-56-175m221 296h-37v-250h27l6 51t2-8 9-20 17-20 26-8q8 0 17 2t14 4 6 2l-3 27t-7-2-14-3-17-2q-12 0-21 6t-14 15-8 17-3 9v180m190 5q-22 0-38-6t-25-13-14-13-4-5l12-18t4 5 12 11 19 12 28 5q30 0 43-15t14-33q0-17-9-27t-23-15-29-11-30-13-22-20-9-35q0-32 24-51t59-18q19 0 33 5t24 9 9 5l-6 22t-8-5-21-10-28-5q-23 0-37 11t-14 29q0 17 9 27t23 16 30 11 30 13 24 21 9 35q0 20-10 37t-28 28-51 11m230 0q-48 0-78-31t-29-94q0-64 28-100t75-35q43 0 66 29t23 85q0 11-1 17t-1 6h-152q0 52 19 76t54 25q17 0 29-5t20-12 12-11 4-5l14 12t-4 7-15 14-25 15-39 7m-68-144h119t0-3 1-7q0-85-56-85-59 0-64 95m243 139h-36v-250h30l4 24q2-2 9-9t24-14 41-6q36 0 56 19t20 61v175h-36v-167q0-33-14-48t-38-14q-20 0-34 6t-20 13-6 6v204m271 5q-32 0-52-16t-21-46q0-25 15-42t36-25 47-15 44-6v-27q0-36-12-49t-40-12q-15 0-29 5t-23 11-9 5l-4-20t10-6 26-12 34-5q42 0 62 17t21 64v123q0 22 4 28t9 6q6 0 13-3t7-2l1 17t-7 2-15 5-17 3q-12 0-20-8t-8-30h-1t-4 6-12 13-21 13-34 6m11-22q16 0 26-6t18-13 10-12 4-6v-73q-19 2-37 6t-34 11-24 19-9 30q0 22 13 33t33 11m212 17h-36v-374l36-2v376m273 5q-28 0-46-7t-30-15-16-14-4-7l12-19t5 5 14 13 25 13 38 6q33 0 50-19t18-44q0-21-11-34t-27-21-36-16-36-17-27-27-10-42q0-42 26-66t69-24q25 0 42 7t26 14 9 7l-5 22t-9-7-24-13-37-7q-27 0-44 16t-16 42q0 21 11 33t27 21 36 16 35 18 28 27 10 45-13 48-36 34-54 12m293 0q-67 0-105-44t-37-121q0-52 17-90t49-59 74-21q19 0 36 4t31 10 21 9 7 5l-4 24t-8-4-19-10-28-9-32-4q-48 0-76 36t-28 108q0 71 29 106t78 35q22 0 39-8t28-17 17-17 6-7l14 16t-7 8-19 21-33 20-50 9" />
</svg>