<svg id="fnt-Arsenal" viewBox="0 0 1448 1000" xmlns="http://www.w3.org/2000/svg"><path id="arsenal" class="f" d="M38 667h-26l109-325h45l107 325h-39l-34-100h-128l-34 100m99-296l-58 175h114l-56-175m184 296v-250h27l6 51q0-3 5-17t18-27 31-12q10 0 22 3t15 5l-3 27q-4-1-16-4t-22-3q-14 0-25 9t-15 21-6 17v180h-37m227 5q-26 0-45-9t-27-17-9-11l12-18q0 1 8 10t22 15 33 8q28 0 42-14t15-34q0-15-8-24t-18-15-29-12q-22-8-35-15t-23-20-9-35q0-32 23-51t60-18q16 0 31 4t24 9 11 6l-6 22q-2-2-10-7t-21-9-26-4q-23 0-37 11t-14 29q0 15 7 24t19 16 30 12q22 8 36 15t23 21 10 35q0 32-23 54t-66 22m230 0q-50 0-78-32t-29-93q0-63 28-99t75-36q43 0 66 29t23 85q0 9-1 15t-1 8h-152q0 101 73 101 20 0 34-8t23-15 8-10l14 12q0 2-9 13t-28 20-46 10m-68-144h119l1-10q0-85-56-85-30 0-46 23t-18 72m207 139v-250h30l4 24q8-10 25-20t49-9q36 0 56 20t20 60v175h-36v-167q0-32-13-47t-39-15q-18 0-31 6t-22 12-7 7v204h-36m307 5q-33 0-53-17t-20-45q0-73 142-88v-27q0-35-12-48t-40-13q-13 0-27 4t-23 10-11 7l-4-20q2-2 12-8t26-10 32-5q43 0 63 18t20 63v123q0 20 4 27t9 7q5 0 11-2t9-3l1 17q-4 2-17 6t-22 4q-13 0-20-9t-8-29h-1q0 2-8 12t-24 17-39 9m11-22q18 0 31-8t20-18 7-11v-73q-46 5-75 20t-29 46q0 21 12 32t34 12m212 17h-36v-374l36-2v376" />
</svg>