<svg id="fnt-Artifika" viewBox="0 0 2004 1000" xmlns="http://www.w3.org/2000/svg"><path id="artifika" class="f" d="M274 659l-36-85h-149q-8 26-8 52 0 9 1 17t3 17l-38 10q-6 2-11 2-15 0-15-15 0-1 0-2t1-2q2-21 11-49t21-59 26-64 28-60 25-51 18-35 7-13h25q12 0 18 4t11 16l112 286 43-17 8 17q-8 8-21 18t-29 19-30 8q-7 0-12-3t-9-11m-108-281h-2q-22 49-40 90t-27 72h128l-59-162m220 64v-19q7-3 21-5t30-4 28-1q10 0 16 2t5 11v59l31-44q22-32 58-32 5 0 12 1t12 4 6 9q0 2-1 4l-10 34q-9-3-17-4t-14-1q-13 0-25 7t-22 18-17 20-13 16v76q0 30 3 47t4 23q-7 4-17 6t-18 2q-12 0-20-5t-9-18v-206h-43m437 191l8 17q-17 10-35 17t-45 7q-36 0-57-21t-20-59v-147h-51v-11q0-11 5-15t15-4h31v-58q0-14 8-19t20-4q8 0 18 1t17 6q-1 7-4 24t-3 50h85v10q0 11-5 15t-15 5h-65v143q0 55 41 55 12 0 24-3t20-7 8-2m71-301q0-14 10-24t24-9q15 0 25 9t10 24q0 13-10 23t-25 9q-14 0-24-9t-10-23m62 93v217h43v19q-9 4-28 7t-36 3q-15 0-25-4t-10-19v-207h-43v-19q7-3 20-5t30-4 28-1q10 0 16 2t5 11m236 22h-50v224q0 39-17 65t-44 38-57 13q-7 0-18-1t-21-4-9-10q0-1 1-4l16-37q19 7 37 15t29 7q14 0 20-13t6-32 1-37l0-224h-58v-11q0-11 5-15t15-4h38v-16q0-40 16-63t40-35 54-11q5 0 14 0t17 2 16 6 6 10q0 3-2 7l-18 33q-19-10-34-19t-29-8q-16 0-20 16t-4 45v33h70v10q0 11-4 15t-16 5m99-115q0-14 10-24t24-9q14 0 24 9t10 24q0 13-10 23t-24 9q-14 0-24-9t-10-23m62 93v217h43v19q-9 4-28 7t-36 3q-15 0-25-4t-11-19v-207h-43v-19q7-3 21-5t29-4 29-1q10 0 16 2t5 11m110-104h-43v-19q7-3 21-5t29-4 29-1q10 0 15 2t6 11v288q0 30 2 47t5 23q-7 4-17 6t-19 2q-12 0-20-5t-8-18v-327m212 106q0 12-10 26t-25 27-32 27-30 22l78 99 36-23 9 15q-5 11-18 22t-26 21-26 8q-13 0-21-11l-80-103t-2-3-1-6q0-7 5-11 8-7 21-18t27-25 23-27 10-26q0-7-2-11 16-9 24-13t13-6 10-2q9 0 13 5t4 13m228 221v-3q0 0-7 4t-19 11-26 10-29 4q-22 0-40-7t-29-24-11-42q0-28 16-45t45-24 66-7h34v-19q0-19-2-35t-11-26-25-10q-17 0-34 7t-31 19-28 20l-20-27q-3-4-3-9 0-8 10-14t25-12 33-7 33-3q30 0 55 10t40 31 15 56v136h42v19q-8 4-27 7t-37 3q-12 0-23-4t-12-19m-64-10q8 0 19-2t21-5 17-6 7-2v-68h-41q-12 0-27 3t-26 13-11 28q0 17 11 28t30 11" />
</svg>