<svg id="fnt-Arvo" viewBox="0 0 1155 1000" xmlns="http://www.w3.org/2000/svg"><path id="arvo" class="f" d="M254 667v-42h31l-30-84h-142l-29 84h39v42h-121v-42h33l115-328h72l115 328h37v42h-120m-70-332l-57 165h114l-57-165m399 77v55h-47v-15q-8 0-16 3t-16 9-13 16-8 23v122h43v42h-125v-42h35l0-169h-35v-42h81v35q4-8 10-15t12-12 15-7 17-3q13 0 24 0t23 0m33 44v-42h87v42h-24l63 174 61-174h-15v-42h80v42h-22l-83 215h-45l-82-215h-20m284 84q1-30 10-55t26-42 40-27 51-10q28 0 52 10t40 27 26 42 9 55q0 29-9 54t-26 43-40 27-52 10q-28 0-51-10t-40-27-26-42-10-55m48 0q0 22 7 39t17 30 25 19 30 7q17 0 32-6t25-19 17-30 6-40q0-23-6-41t-17-29-25-18-32-7q-16 0-30 7t-25 18-17 29-7 41" />
</svg>