<svg id="fnt-Asap" viewBox="0 0 1046 1000" xmlns="http://www.w3.org/2000/svg"><path id="asap" class="f" d="M30 668h-2q-11 0-17-3t-5-6q0-1 1-3t1-4l118-328q2-4 7-6t13-2h15q8 0 13 2t7 6l118 329q1 2 1 3t1 3q0 4-5 6t-17 3h-4q-7 0-13-2t-7-6l-94-269q-2-7-5-15t-3-14h-1q-1 7-3 14t-4 15l-95 269q-1 4-7 6t-13 2m212-91h-179v-37h179v37m164 94q-17 0-32-3t-25-8-17-11-6-9q0-3 3-9t7-11 8-5q2 0 9 5t19 10 31 5q24 0 36-10t13-27q0-14-7-22t-18-14-25-10q-13-4-26-10t-22-14-16-21-6-33q0-21 11-37t29-26 43-9q13 0 25 1t21 5 15 7 5 8-3 11-6 11-7 5q-2 0-13-6t-32-7q-19 0-32 9t-13 25q0 9 4 16t12 11 23 11q17 5 32 12t25 17 17 23 6 32q0 23-12 40t-31 28-45 10m217-1q-36 0-61-19t-24-56q0-26 8-43t28-28 51-16 78-4v-24q0-11-5-21t-17-15-32-6q-23 0-40 5t-28 10-14 5q-3 0-5-2t-4-7-4-9-1-8q0-4 9-9t22-10 32-8 35-3q22 0 40 5t30 16 18 25 7 33v111q0 20 1 33t2 20 2 11q0 3-3 5t-8 3-9 2-9 1q-5 0-7-4t-5-11-4-20q-9 11-22 19t-27 14-34 5m2-37q18 0 32-5t25-13 21-16v-59q-37 0-61 2t-36 9-18 16-5 25q0 20 10 31t32 10m229 138h-4q-11 0-15-3t-4-8v-280q0-20-2-33t-2-21-1-10q0-3 3-5t7-3 10-2 9 0q4 0 6 2t5 10 4 17q12-11 24-19t27-10 27-4q31 0 53 15t32 45 12 72q0 40-12 70t-33 48-51 18q-14 0-28-4t-26-11-21-16v121q0 5-5 8t-15 3m86-138q29 0 45-26t16-73q0-49-18-72t-48-23q-16 0-32 8t-29 22v130q15 17 32 25t34 9" />
</svg>