<svg id="fnt-Asap Condensed" viewBox="0 0 2977 1000" xmlns="http://www.w3.org/2000/svg"><path id="asap-condensed" class="f" d="M29 668h-8q-19 0-19-9 0-1 0-3t1-3l92-328q3-9 20-9h16q17 0 20 9l91 328q0 2 1 3t0 3q0 9-18 9h-9q-7 0-12-2t-6-6l-22-83h-107l-22 83q-1 4-6 6t-12 2m87-265l-37 137h87l-36-137q-2-7-4-16t-2-15h-2q-2 7-3 15t-3 16m213 268q-19 0-35-5t-24-13-9-13q0-3 3-9t7-11 7-5q2 0 8 4t16 10 25 5q18 0 28-9t10-27q0-18-12-30t-32-20q-26-13-40-30t-14-45q0-32 21-52t52-19q14 0 26 3t21 7 9 11q0 4-3 10t-6 12-7 5q-2 0-12-6t-25-6q-14 0-24 7t-10 23q0 17 11 27t26 18q29 14 44 32t16 52q0 23-11 39t-28 26-38 9m183-1q-32 0-51-20t-19-58q0-30 12-48t32-28 43-12 46-3v-24q0-15-9-27t-33-12q-19 0-34 4t-25 8-12 5q-5 0-8-10t-3-15q0-5 12-11t32-12 38-5q40 0 63 20t22 56v115q0 30 3 44t2 18q0 6-10 9t-19 3q-6 0-9-7t-6-25q-13 16-29 25t-38 10m8-36q18 0 31-8t24-24v-65q-49 0-69 11t-20 44q0 42 34 42m195 137h-6q-19 0-19-11v-280q0-31-2-45t-3-19q0-6 11-8t18-2q7 0 9 6t7 24q12-18 27-26t33-8q25 0 42 17t27 46 10 69q0 65-23 100t-60 36q-18 0-31-8t-22-18v116q0 11-18 11m60-138q26 0 38-26t12-73q0-45-11-70t-34-25q-26 0-47 34v137q18 23 42 23m336 37q-67 0-99-44t-31-135q0-91 32-134t98-43q15 0 28 2t23 7q8 3 8 11 0 8-3 16t-8 8q-6 0-17-3t-31-3q-45 0-65 32t-20 107q0 74 20 107t65 34q23 0 36-6t18-5q5 0 8 9t3 17q0 2-1 5t-7 5q-10 5-25 9t-32 4m192 0q-47 0-72-34t-24-99q0-65 24-100t72-35q47 0 71 35t24 100q0 65-24 99t-71 34m-1-36q27 0 39-24t13-74-13-74-39-24q-27 0-39 24t-12 74q0 50 12 74t39 24m177 34h-4q-11 0-15-3t-4-8v-177q0-31-3-45t-2-19q0-6 10-8t19-2q7 0 9 7t7 27q12-18 29-28t37-10q17 0 32 7t24 22 10 40v186q0 5-5 8t-15 3h-4q-11 0-15-3t-4-8v-178q0-19-10-30t-28-10q-13 0-23 6t-17 14-8 15v183q0 5-5 8t-15 3m284 2q-24 0-42-17t-27-47-10-68q0-65 23-101t60-35q19 0 31 7t22 19v-126q0-11 19-11h5q19 0 19 11v290q0 31 3 45t2 18q0 6-10 9t-19 3q-6 0-9-8t-7-26q-11 17-27 27t-33 10m11-37q12 0 25-9t21-25v-137q-17-23-42-23-25 0-38 26t-12 73q0 45 11 70t35 25m248 37q-50 0-75-33t-26-99q0-67 25-101t74-35q43 0 65 34t22 97q0 20-17 20h-125q2 42 16 61t44 20q18 0 31-5t22-10 12-5q5 0 8 9t3 15q0 4-10 12t-29 14-40 6m-56-153h99q0-79-47-79-51 0-52 79m220 151h-4q-11 0-16-3t-4-8v-177q0-31-2-45t-3-19q0-6 11-8t18-2q7 0 10 7t6 27q13-18 29-28t37-10q18 0 33 7t24 22 9 40v186q0 5-4 8t-15 3h-4q-11 0-16-3t-4-8v-178q0-19-9-30t-28-10q-13 0-24 6t-17 14-8 15v183q0 5-4 8t-15 3m266 3q-19 0-34-5t-25-13-9-13q0-3 3-9t7-11 7-5q2 0 8 4t17 10 24 5q18 0 28-9t10-27q0-18-12-30t-32-20q-26-13-40-30t-14-45q0-32 21-52t53-19q13 0 26 3t21 7 8 11q0 4-3 10t-6 12-6 5q-2 0-12-6t-26-6q-14 0-24 7t-10 23q0 17 11 27t27 18q29 14 44 32t15 52q0 23-10 39t-28 26-39 9m216-1q-50 0-75-33t-26-99q0-67 25-101t74-35q43 0 65 34t22 97q0 20-17 20h-125q2 42 16 61t44 20q18 0 31-5t22-10 12-5q5 0 8 9t3 15q0 4-10 12t-29 14-40 6m-56-153h99q0-79-47-79-51 0-52 79m259 153q-24 0-42-17t-28-47-9-68q0-65 23-101t60-35q19 0 31 7t22 19v-126q0-11 18-11h6q19 0 19 11v290q0 31 2 45t3 18q0 6-11 9t-18 3q-7 0-10-8t-6-26q-12 17-28 27t-32 10m10-37q13 0 25-9t22-25v-137q-17-23-42-23-26 0-38 26t-12 73q0 45 11 70t34 25" />
</svg>