<svg id="fnt-Asar" viewBox="0 0 920 1000" xmlns="http://www.w3.org/2000/svg"><path id="asar" class="f" d="M70 667h-78q-6 0-7-4t-2-6 4-6 9-4 11-3 8-2l102-283q6-13 14-19t18-7q6 0 12 2 18 44 31 79t23 69 23 67 28 77q5 10 9 13t15 6q5 1 7 3t3 7q0 2-4 6t-13 5h-76q-6 0-8-4t-2-6q0-5 6-7l19-8q-7-20-13-38t-11-35q-33 0-62-1t-62 0l-21 63q0 7 5 9t12 4 11 4 6 8q0 11-17 11m68-284l-54 157q31 0 54 0t52 1q-11-38-23-76t-29-82m172 262q0-7 0-16t1-18 3-14 9-5q3 0 5 3t5 9 3 11 4 8q5 10 21 18t37 9q13 0 24-8t11-22q0-14-9-23t-22-16-29-14-29-14-22-21-9-31q0-17 8-31t21-23 29-14 31-5q30 0 44 10t14 20q0 5 0 12t-1 15-3 13-8 5q-3 0-6-4t-4-9q-3-5-5-12-4-12-15-17t-39-5q-11 0-20 6t-8 22q0 13 9 21t22 16 30 14 30 16 23 22 9 32q0 17-9 30t-21 22-30 13-33 5q-10 0-20-3t-21-6-18-9-12-12m200-29q0-22 11-38t31-26 43-15 50-8v-11q0-12-2-24t-7-22q-6-10-16-13t-20-2q-14 0-21 0t-12 3-4 6-1 10q0 7 2 9t2 4q0 4-4 8t-8 8-10 5-11 2q-11 0-14-7t-2-11q0-12 11-24t29-21 35-15 30-6q21 0 34 7t21 17 9 23 3 27v143q5 0 11-2t12-2q6 0 7 2t2 5q0 2-4 6t-11 9-17 8-21 4q-9 0-16-4t-7-14v-19q-13 16-29 26t-37 11q-19 0-32-6t-22-14-12-19-3-20m47-16q0 20 10 33t37 14q10 0 21-8t20-19v-68q-14 1-30 3t-28 7-22 14-8 24m190 57q0-3 3-5t8-4 9-4 7-3v-164q-10-2-21-7t-10-8q0-5 6-10t14-9 19-7 18-3q4 0 7 1t5 4v47q10-24 27-40t39-17q5 0 11 2t14 5 11 12 5 19q0 5-3 9t-7 7-10 6-10 3q-4 0-7-2t-4-9q-2-11-7-15t-14-3q-7 0-14 7t-13 17-10 21-3 20v104q0 7 7 9t16 3 16 4 8 9q0 11-17 11h-90q-6 0-8-4t-2-6" />
</svg>