<svg id="fnt-Athiti" viewBox="0 0 1084 1000" xmlns="http://www.w3.org/2000/svg"><path id="athiti" class="f" d="M54 667l-34-4q21-77 47-158t50-145h62q25 64 50 145t47 158l-34 4q-11-47-28-105h-132q-19 69-28 105m36-133h115q-30-100-46-144h-22q-19 52-47 144m307 136q-19 0-32-4-35-19-35-46v-162h-41l4-25h37v-64h29v64h78l-4 25h-74v155q0 13 5 25 14 5 28 5 9 0 20-3t22-7l8 25q-8 5-21 8t-24 4m102-3v-335h30v96l-2 40h3q39-39 87-39 31 0 46 12t16 43v183h-30v-205q-16-6-38-6-25 0-46 9t-36 26v176h-30m258-277v-47h32v47h-32m1 277v-234h29v234h-29m191 3q-18 0-32-4-34-19-34-46v-162h-41l4-25h37v-64h29v64h78l-4 25h-74v155q0 13 4 25 14 5 28 5 9 0 21-3t21-7l9 25q-9 5-22 8t-24 4m102-280v-47h32v47h-32m1 277v-234h29v234h-29" />
</svg>