<svg id="fnt-Atma" viewBox="0 0 1030 1000" xmlns="http://www.w3.org/2000/svg"><path id="atma" class="f" d="M298 707q-8 4-17 7t-22 5q-7-51-15-90t-15-72q-36 0-70 2t-63 7q-11 26-24 53t-28 58q-9-2-18-6t-16-12q44-78 72-154t55-191q14 1 23 2t17 3q49 95 76 181t45 207m-140-346q-12 53-24 95t-27 80q24-3 53-6t61-3q-12-44-27-84t-36-82m271 202q8 1 15 3t14 6q-1 42-17 66t-43 24q-31 0-47-36t-16-106q0-23 1-46t5-47q-10 0-19-2t-19-3q1-7 2-14t4-12q10 2 18 4t17 2q2-13 5-29t9-37q11 0 21 2t20 5q-5 16-9 32t-7 30q20 0 39-1t37-2q0 5-1 11t-3 14q-19 2-38 2t-38 1q-4 23-6 48t-2 48q0 53 8 80t22 28q14 0 20-17t8-54m112 20q0 29 1 55t3 38q-7 2-16 4t-17 1q-4-59-7-140t-3-135q5-3 12-4t15-2 11 1 9 1q-1 5-2 20t-3 39q16-24 34-36t39-12q18 0 30 9t18 26q18-31 37-47t43-15q30 0 43 22t14 71q0 44-9 100t-20 99q-9-1-19-3t-17-4q13-54 20-102t7-91q0-32-8-46t-23-13-33 16-28 46q1 9 1 14t0 11q0 36-6 81t-13 74q-8 0-18-2t-17-4q9-51 13-85t4-64q0-32-8-46t-23-14q-18 0-35 16t-27 42q-1 20-1 41t-1 38m488-87q0 33-9 88t-21 100q-8 0-16-2t-17-4q1-2 1-5t2-7q2-8 3-12t1-6q-10 7-24 11t-28 4q-34 0-55-18t-21-48q0-33 28-50t81-17q8 0 15 0t20 1q1-5 1-11t0-19q0-40-10-58t-32-18q-23 0-39 20t-16 52q-14-2-23-7t-13-13q6-33 33-56t63-23q38 0 57 25t19 73m-144 102q0 18 12 29t31 11q14 0 27-5t24-12q4-21 6-37t3-32q-51-3-77 8t-26 38" />
</svg>