<svg id="fnt-Aubrey" viewBox="0 0 1200 1000" xmlns="http://www.w3.org/2000/svg"><path id="aubrey" class="f" d="M149 505h-75l-21 167-35-5 40-307q17-4 32-5t22-1q7 0 22 1t32 5l39 307-34 5-22-167m-37-119q-12 0-23 2l-11 85h67l-10-85q-12-2-23-2m297 238l12 25q-13 8-34 15t-52 8q-13 0-28-3t-28-11-22-26q-3-7-5-18t-3-27-1-44v-101h32v102q0 33 2 50t8 27q4 7 15 14t32 7q12 0 22-2t18-6v-192h32v182m51 25l14-26v-252l-10-32h42v104q10-3 19-5t21-1q31 0 51 17t31 43 11 57-10 57-30 44-55 17q-25 0-47-7t-37-16m46-174v159q16 8 36 8 26 0 39-14t19-34 6-40-6-40-20-34-38-13q-13 0-22 2t-14 6m186 192v-167l-14-22q22-19 48-28t55-13l5 30q-24 3-38 8t-24 10v182h-32m281-104h-122v66q11 8 25 10t25 3q21 0 38-5t34-16v34q-15 9-33 13t-38 4q-32 0-57-9t-44-27l18-20v-82q0-9 0-22t4-27 15-26q13-15 29-19t28-3q13 0 29 3t29 19q10 12 14 26t5 27 1 22v29m-122-30h87q0-11-1-25t-8-24q-3-5-11-11t-24-6q-15 0-23 6t-12 11q-6 10-7 24t-1 25m158-90l31-6 38 160q4 17 11 30t24 15q1 0 3 0t4-1l47-204 32 6-77 329-31-7 21-93q-26-1-42-18t-23-50l-38-161" />
</svg>