<svg id="fnt-Autour One" viewBox="0 0 3300 1000" xmlns="http://www.w3.org/2000/svg"><path id="autour-one" class="f" d="M9 648q0-8 2-16t8-16q4-7 11-21t16-34 20-43 21-47 21-48 20-45 18-38 13-28q1-5 3-11t6-9 9-7 11-3q9 0 15 3t9 7 6 9 4 12q2 6 4 11t3 8q16 32 32 66t30 67 31 70 33 71l4 7q2 3 5 6t5 9 4 9 2 10q0 14-9 21t-20 6q-7 0-12-2t-10-6-6-8-4-10q-6-15-12-28t-12-26-10-23-10-24q-4 0-11 0t-16 0q-14 0-29-1t-29 0-30 0-34 1q-2 0-5 0t-5 0q-7 17-13 32t-11 28-9 22-5 16v0q-2 5-4 10t-5 10-9 6-16 3q-13 0-22-7t-8-19m124-154q5 0 14 0t21 0 32 0 46 1q-11-25-25-55t-34-72q-5 13-12 28t-13 31-14 33-15 34m288 39q0-23 5-49t16-51q-4 1-9 1-9 0-14-3t-8-8-2-9-1-7q0-7 3-12t7-8 11-5 14-3q4 0 9-2t10-4q6-3 13-5t15-2q8 0 13 2t9 6 5 9 2 10q0 8-3 15t-9 14q-8 9-14 22t-10 27-6 31-2 31q0 46 19 68t56 22q12 0 24-4t23-9 23-14 19-18q1-21 1-38t0-35q0-10 0-19t0-18 0-19-1-21q-8 2-14 3t-11 2q-5 0-10-2t-8-5-6-9-2-12q0-8 3-13t8-7 13-5 16-3q5-1 10-3t9-4 10-3 11-1q9 0 14 3t6 8 3 13 0 15q0 7 0 18t1 25q0 40 0 82t1 88q0 7 1 13t1 15q0 6-1 11t-4 9-10 5-18 3q-7 0-12-3t-8-7-5-9-1-9q0-2 0-4t1-4q-11 10-23 17t-23 11-23 6-20 2q-63 0-95-36t-32-105m381 115l1-52-1-172-30 0q-5 0-10-2t-7-7-4-9-1-11q0-9 2-14t7-7 11-3 14 0h18v-10q0-9-1-14t0-8q0-7-1-14t-1-14q0-6 1-11t5-8 9-5 15-2q6 0 11 1t9 4 7 8 2 12q0 11-2 21t-1 21v18q19 0 29 0t18-1q1 0 1 0t2 0q3 0 7 0t5 0q5 0 10 1t7 5 5 9 2 13q0 5-1 11t-3 9-8 6-13 2q-8 0-15-1t-16-1l-30 0 2 193q10-2 18-3t14-3 13-3 14-5q4-2 9-5t12-2q12 0 19 8t7 21q0 4-2 8t-5 8-8 7-12 5q-7 2-17 4t-20 5-21 4-19 5-17 3-10 1q-5 0-10-1t-10-4-7-8-3-13m202-129q0-31 12-59t33-49 48-33 59-12q34 0 62 12t48 33 31 49 11 59q0 24-6 44t-15 38-24 30-31 23-36 15-40 5q-31 0-58-11t-49-32-33-48-12-64m57 0q0 24 6 42t19 33 30 20 40 7q19 0 37-6t30-20 21-32 7-44q0-20-6-39t-19-32-30-21-40-8-41 8-29 21-19 32-6 39m312 14q0-23 5-49t16-51q-5 1-9 1-10 0-15-3t-7-8-3-9 0-7q0-7 2-12t7-8 11-5 15-3q4 0 9-2t9-4q6-3 14-5t14-2q8 0 13 2t10 6 5 9 1 10q0 8-3 15t-9 14q-8 9-14 22t-10 27-6 31-2 31q0 46 19 68t56 22q12 0 24-4t24-9 22-14 20-18q0-21 1-38t0-35q0-10 0-19t0-18-1-19-1-21q-7 2-14 3t-10 2q-5 0-10-2t-8-5-6-9-2-12q0-8 2-13t8-7 13-5 16-3q5-1 10-3t10-4 10-3 11-1q8 0 13 3t7 8 2 13 1 15q0 7 0 18t0 25q0 40 1 82t1 88q0 7 0 13t1 15q0 6-1 11t-4 9-10 5-17 3q-8 0-13-3t-8-7-4-9-2-9q0-2 1-4t1-4q-12 10-23 17t-24 11-22 6-20 2q-64 0-96-36t-31-105m364 112q0-9 1-17t0-19v-188q0-7-1-14t-2-15q0-12 9-19t26-7q6 0 11 2t9 6 5 8 2 10q0 4-1 8t-1 9q37-9 64-17t41-12q3-6 9-10t15-4q13 0 21 7t8 17q0 4-1 9t0 9q-2 15-1 30t2 31q1 5 1 10t0 11q0 6-3 10t-7 6-10 4-11 1q-7 0-12-3t-8-7-4-9-2-9q0-12 1-23t0-26q-9 2-25 6t-36 8q-11 3-22 5t-21 5v159l7-2q5-2 9-3t10-2q5 0 9 2t9 5 5 8 2 11q0 6-1 11t-5 9-8 6-9 3q-4 1-9 2t-14 2q-13 3-20 4t-13 1q-6 0-11-2t-9-6-6-9-3-12m477-167q0-44 12-79t35-62 54-40 71-15q41 0 72 15t53 40 32 62 11 79q0 41-12 77t-34 62-53 42-71 15q-26 0-49-7t-41-20-34-30-25-39-16-47-5-53m55 0q0 18 4 36t10 34 16 30 23 24 29 16 34 6q19 0 35-6t28-16 23-24 15-30 9-34 4-36q0-29-7-56t-21-46-36-32-50-11q-28 0-49 10t-37 30-22 45-8 60m390 171q0-5 0-9t1-9q1-7 1-15t1-17q0-20 0-36t-1-36q0 0 0-1t0-5 0-10 0-18-1-30-1-44q-3 1-7 1t-10 0q-5 0-9-1t-9-5-6-8-2-12q0-13 7-20t16-7q4 0 8 1t8 1q4 0 10 0t10-1q5 0 10 0t10-1q10 0 16 7t7 18q0 3 0 7t-1 8q8-8 19-15t23-14 26-9 30-3q31 0 55 10t39 29 23 47 8 64q0 10-1 22t-4 23-6 24-8 22q5-2 10-3t9-2q27-3 27 25 0 3 0 7t-3 8-6 7-10 6l-27 6q-12 3-20 6t-12 4-8 2-8 1q-6 0-10-3t-8-7-4-10-1-10q0-7 2-15t8-15q6-9 11-20t8-24 4-26 2-28q0-17-4-34t-12-32-22-22-35-9q-14 0-28 4t-26 12-24 17-19 20q0 11-1 22t0 22q0 19 0 38t-1 38q0 6 0 11t1 12l6-2q3 0 6-1t4-1q13 0 20 7t7 19q0 9-4 15t-9 8-12 4-13 2q-4 1-7 1t-5 1q-8 3-14 4t-9 2q-15 0-20-7t-5-18m414-92q4 18 14 30t20 20 24 11 25 3q20 0 34-3t26-8 17-10 9-9q3-4 6-7t7-6 7-4 6-1q13 0 19 7t7 19q0 5-3 12t-13 16q-10 9-23 18t-28 15-33 10-38 4q-24 0-44-7t-36-17-27-26-20-31-12-35-4-34q0-36 12-65t32-50 49-32 61-11q23 0 44 7t36 19 27 30 15 39q5 4 8 11t2 13q0 11-8 18t-18 10q-25 6-50 11t-49 11-50 10-51 12m-4-46q41-9 84-18t86-19q-4-11-11-21t-17-18-21-12-25-4q-21 0-38 6t-29 19-20 29-9 38" />
</svg>