<svg id="fnt-Averia Sans Libre" viewBox="0 0 3757 1000" xmlns="http://www.w3.org/2000/svg"><path id="averia-sans-libre" class="f" d="M203 519v-2q0-1-3-15t-4-19-9-37-16-51-10-19-10 19q-42 96-42 124v2q0 6 22 6h11l2 0 21 0h11l2 0h4l7 0q14 0 14-8m90 124v5q0 9-15 9t-25-12-22-38-16-31q-11-11-47-11-54 0-69 10-9 5-22 35t-14 32q-9 15-24 15h-4q-12 0-12-11 0-9 17-61 59-187 69-212t21-38 29-13 29 13 30 58q35 86 59 185 2 11 9 34t7 31m24-207q0-9 14-9t23 6 16 23 28 85 26 68q6 0 30-73t33-91 27-18 17 11q0 4-24 78t-47 120q-9 19-17 24t-21 5-20-5-21-37-39-108-25-79m368 87q15 0 26-7 7-4 7-16v-1q0-18-11-30t-31-12h-3q-22 0-41 17t-18 42v4q0 7 11 7l3 1h8l2 0 13-1 2 0 9-1q2 0 4-1t9-1 10-1m-13 146h-6q-25 0-45-9-39-17-52-58-8-23-8-47v-11q0-25 10-49 19-50 62-66 21-7 42-7h6q34 0 57 21t23 59v4q0 26-16 37-13 8-59 15t-54 9q-15 5-15 13 0 23 22 38 13 8 41 8 11 0 35-7t30-6q14 0 14 14t-28 29-59 13m154-195v-7q0-17 4-25t15-8 26 8 17 8 8-5q23-16 42-16h7q11 0 19 6t7 17-10 16q-4 3-17 4t-26 6-22 19q-14 21-14 81l-1 28-1 15q0 22-7 32t-23 10h-4q-14 0-18-14 0-2 0-47v-49l0-4v-8l0-4q0-4 0-9l-1-31-1-23m254-125v5q0 25-28 25h-2l-1 0-8-1q-1 0-1 0-16 0-16-22v-4q0-14 6-20t15-6l6-1h5l8 2q16 0 16 17l0 5m-8 205l11 75v5l-1 3q0 16-6 22t-26 7h-3q-17 0-22-19-2-9-2-73v-105l-1-16v-5q0-12 4-17t14-5h8q18 0 22 13 1 5 1 40v53l1 14q0 3 0 8m115 46q0 15 15 26 10 7 28 7h2q4-1 9-1 16 0 29-15t13-28l1-3 1-13v-12q0-9-6-13t-23-3h-4l-1 0h-3l-11 1q-5 1-8 1-18 0-30 11t-13 29v7q1 4 1 6m-18-134q-16 0-16-17 0-12 17-21 27-13 58-13h11q25 0 46 9t33 27q15 23 15 103 0 42 3 62t3 29q0 18-24 18-10 0-19-6t-15-6-28 9-47 9q-33 0-52-21t-18-51v-5q0-37 32-58 21-13 65-18t46-8q3-3 3-12 0-3 0-6-3-34-49-35-17 0-37 6t-27 5m599 102v8q0 42-32 67t-77 26-72-12-37-27q-6-7-6-14t6-14 13-6 18 6l11 6q32 16 60 16t43-9q20-14 20-37t-21-41q-16-12-56-30t-57-33q-29-27-29-67t31-64q31-25 83-25h1q31 0 51 9t29 18 8 14q0 11-6 17t-14 6q-1 0-28-11t-53-10-42 18q-8 9-10 21 0 3 0 5 0 10 5 21 10 18 63 41t69 39q29 27 29 62m97 32q0 15 15 26 10 7 28 7h2q4-1 9-1 16 0 29-15t13-28l1-3 1-13v-12q0-9-6-13t-23-3h-4l-1 0h-3l-11 1q-5 1-8 1-18 0-30 11t-13 29v7q1 4 1 6m-18-134q-16 0-16-17 0-12 17-21 27-13 58-13h11q25 0 46 9t33 27q14 23 14 103 0 42 4 62t3 29q0 18-24 18-10 0-19-6t-15-6-28 9-47 9q-33 0-52-21t-18-51v-5q0-37 32-58 21-13 65-18t46-8q3-3 3-12 0-3 0-6-3-34-49-35-17 0-37 6t-27 5m240-9q3-20 15-20t23 9 13 8 16-7 16-9q20-9 40-9 37 0 55 25t18 89q0 14 3 55t4 43q0 16-18 16t-25-20-10-77-10-70q-11-25-39-25-13 0-26 8t-20 23-12 74-7 69-8 15-16 5-14-4-4-21v-6l0-6 1-32q0-6 0-13l0-19q0-66 5-101m281 76q-20-17-20-47t24-48 65-19h6q23 0 40 6 27 10 27 22 0 18-18 18-2 0-21-5t-34-4-29 8-12 21 15 24q10 6 42 17t48 24q21 18 21 45v5q0 30-25 50t-63 19h-7q-31 0-56-11t-26-25q0-18 19-18 4 0 26 7t40 7 31-8 13-22-16-24q-10-6-43-18t-47-24m529 91h10q28 0 28 20v5q0 11-10 14t-36 4h-50l-6-1q-82 0-93-7t-12-55v-38l1-6 0-28v-44l0-11v-27l0-17q0-8 0-16l0-16v-16l-1-32q0-20 4-25t16-5 20 4 9 16 3 130 9 136q4 10 20 13t52 3l16-1q5 0 10 0l10 0m143-275v5q0 25-29 25h-1l-1 0-8-1q-1 0-1 0-16 0-16-22v-4q0-14 6-20t15-6l5-1h6l8 2q16 0 16 17l0 5m-8 205l10 75v5l0 3q0 16-6 22t-26 7h-3q-17 0-22-19-2-9-2-73v-105l-1-16v-5q0-12 4-17t14-5h8q18 0 22 13 1 5 1 40v53l1 14q0 3 0 8m236-25l0-3 0-13q0-26-14-44t-32-17h-5l-2 0q-29 0-44 22-11 18-11 48-1 8-1 10l0 13v13q0 41 10 56t35 15h2q28 0 45-23t17-69v-8m-156 77v-44l1-6v-11l0-11v-11l0-17v-33l1-39q1-6 1-11l0-29v-11q0-49 2-57 2-13 14-13h5q18 0 23 13t5 51 2 47 9 9q1 0 11-3l12-3q15-4 31-4t33 7q31 14 47 56 10 27 10 53v18q0 18-8 41-14 42-54 59-17 8-37 8h-10q-10 0-28-5t-23-5l-18 1q-16 0-22-10t-7-40m267-132v-7q0-17 4-25t15-8 26 8 17 8 8-5q24-16 42-16h7q11 0 19 6t7 17-9 16q-5 3-18 4t-25 6-23 19q-14 21-14 81l-1 28 0 15q0 22-7 32t-24 10h-4q-14 0-17-14-1-2-1-47v-49l0-4v-8l0-4q0-4 0-9l-1-31-1-23m300 49q16 0 27-7 6-4 6-16v-1q0-18-11-30t-30-12h-3q-22 0-41 17t-19 42v4q0 7 12 7l2 1h9l2 0 13-1 2 0 9-1q1 0 4-1t9-1 9-1m-13 146h-5q-25 0-45-9-39-17-53-58-7-23-7-47v-11q0-25 9-49 19-50 63-66 20-7 42-7h5q35 0 58 21t23 59v4q0 26-17 37-12 8-58 15t-55 9q-14 5-14 13 0 23 22 38 13 8 40 8 12 0 35-7t30-6q15 0 15 14t-28 29-60 13" />
</svg>