<svg id="fnt-Average Sans" viewBox="0 0 2686 1000" xmlns="http://www.w3.org/2000/svg"><path id="average-sans" class="f" d="M307 667h-48l-39-113h-131l-39 113h-45l125-346h52l125 346m-205-149h105l-43-125-8-28h-2l-8 28-44 125m406-79l-80 228h-47l-79-228h43l59 182h2l59-182h43m130 199q36 0 72-22l14 30q-42 27-90 27t-75-31-28-87 29-90 77-32q43 0 68 27 11 11 18 32t7 49l-15 18h-142q2 79 65 79m50-111q0-28-14-45t-39-17-40 17-20 45h113m95 140v-228h27l12 40h2q28-36 76-43l4 39q-23 2-45 12t-34 28v152h-42m282-137v-22q0-40-42-40-33 0-69 21l-14-30q42-26 90-26 34 0 56 17t22 53v164h-27l-13-30q-16 16-38 26t-40 10q-31 0-49-17t-19-45q0-81 143-81m-83 49q-9 8-13 15t-3 17 9 19 25 8q31 0 65-28v-50q-63 1-83 19m270 23q-11 0-22-1-12 24-12 31 0 4 9 6l61 14q42 9 60 22t18 38-17 42q-34 34-100 34-41 0-70-15t-30-43 40-65q-15-5-15-16t30-55q-43-18-43-77 0-33 23-58t68-25q26 0 46 8l70-8v33h-38q13 21 13 53t-23 57-68 25m51-78q0-62-50-62-20 0-33 11-19 17-19 42t12 42 38 17 39-16 13-34m-114 199q0 16 18 25t45 8 52-11 24-31q0-10-11-16t-40-12l-59-13q-29 29-29 50m315-85q36 0 72-22l14 30q-42 27-90 27t-75-31-28-87 29-90 77-32q43 0 68 27 11 11 18 32t7 49l-15 18h-142q2 79 65 79m50-111q0-28-14-45t-39-17-40 17-20 45h113m413-197l-13 34q-35-12-65-12t-49 16-19 37q0 32 33 50l71 39q59 33 59 85 0 43-31 68t-86 26-99-20l12-35q41 18 81 18t59-16 19-37q0-32-34-50l-70-39q-59-33-59-85 0-43 30-68t82-26q35 0 79 15m198 200v-22q0-40-42-40-33 0-69 21l-15-30q42-26 91-26 34 0 55 17t22 53v164h-27l-12-30q-16 16-38 26t-40 10q-31 0-50-17t-18-45q0-81 143-81m-83 49q-10 8-13 15t-3 17 9 19 24 8q32 0 66-28v-50q-63 1-83 19m391-85v173h-42v-171q0-13-11-20t-27-7q-35 0-73 26v172h-43v-228h27l13 26q38-32 83-32 34 0 53 17t20 44m200-46l-13 31q-25-11-48-11-43 0-43 26 0 23 58 45 21 8 39 25t19 41q0 34-23 51t-62 17-78-22l12-31q32 18 72 18 17 0 27-8t11-19-12-22-29-16-34-15-29-23-12-36q0-32 21-49t56-17 68 15" />
</svg>