<svg id="fnt-Averia Gruesa Libre" viewBox="0 0 4327 1000" xmlns="http://www.w3.org/2000/svg"><path id="averia-gruesa-libre" class="f" d="M146 526h33q30 0 30-8v-1q0-4-16-69t-22-66h-1q-1 0-9 20-46 97-46 118v2q0 3 10 3l3 1 18 0m27-202h6q21 0 37 37 28 64 63 206 5 18 14 36t9 23q0 14-9 25t-22 10h-5q-22 0-27-13-1-2-2-13t-3-19q-7-32-17-44t-57-12-58 11-23 44q-4 10-6 23t-4 16q-5 7-18 7t-22-9-8-22 13-30q12-18 47-108 53-141 72-159 10-9 20-9m262 342q-18 0-28-22-8-17-29-82t-27-77q-17-31-17-40t6-13 23-4q27 0 36 21 2 3 6 22t7 34l5 21q18 81 28 81 7 0 37-83 14-37 18-59t5-24q7-13 30-13h5q17 0 17 16 0 12-8 25t-34 76-39 87-21 29-20 5m203-148v4q0 7 14 7h5l2 0 12-1q19-2 24-2 27 0 40-10 7-5 7-18v-2q0-19-12-30t-29-10h-2l-1 0q-24 0-42 20t-18 42m53 152h-5q-47 0-74-30t-28-79v-11q0-23 10-48 18-49 61-67 22-10 45-10h11q32 0 54 21t22 55v5q0 24-19 34-13 7-61 14t-53 9q-15 5-15 19 0 20 17 34t46 15q14 0 37-8t27-7q12 0 12 11 0 14-28 28t-59 15m164-130v-19q0-34-3-50t-4-22q0-15 22-15t31 8q3 2 7 9t8 6q1 0 21-12t35-13h4q12 0 19 6t7 14v3q0 10-7 15t-22 4q-34 0-50 24t-16 86q0 8 3 27t3 27-10 18-25 9h-8q-14 0-21-7t-7-16 3-19q9-26 9-58 1-17 1-25m266-191v3q0 13-7 21t-22 9h-4l-8-1q-6 0-12-6t-6-18v-3l1-9q0-5 6-13t16-7l6-1h4l7 1q7 0 13 6t6 18m-11 103l-3 66-1 7 0 20v9q0 35 2 46t8 22 6 15v2q0 12-13 19t-33 7h-6q-12 0-18-6t-7-11v-6q0-3 6-22t5-53q1-10 1-13l1-14 0-6q2-17 2-27l0-10q0-18-6-32t-6-18q0-17 33-17h9q12 0 16 6t4 16m150 184h6q20 0 35-14t15-31l1-3v-3l0-8v-14q0-14-14-14h-11l-2 0-9 1q-7 1-10 1-20 0-37 15-11 10-11 30v4q0 17 10 26t27 10m-55-156q-16 0-16-21 0-16 26-27t55-12h12q25 0 44 9t29 25 12 41q0 6 0 57t2 58 7 19 7 18-7 12-19 5-28-6-22-6q0 0-24 8t-40 9h-5q-28 0-47-17t-19-50 21-49 51-25q9-2 30-5t28-7q14-6 14-23t-12-26-26-10-41 11-32 12m371 34v-10q0-39 12-73 24-68 84-95 32-15 75-15t67 11q11 5 18 15t8 21-6 16-8 6-33-13q-29-13-51-13h-1q-46 0-75 32-17 18-25 46-8 28-9 57 0 91 58 116 19 8 42 8t40-14 16-41q0-19-19-39-6-7-6-10 0-10 26-10t40 6 15 14q0 22-6 61t-12 48q-8 13-29 21-38 13-64 13h-9q-31 0-58-12-56-23-78-82-12-33-12-64m349 26v-19q0-34-3-50t-4-22q0-15 22-15t31 8q3 2 7 9t8 6q1 0 21-12t35-13h4q12 0 19 6t7 14v3q0 10-7 15t-22 4q-34 0-50 24t-16 86q0 8 3 27t3 27-10 18-25 9h-9q-13 0-20-7t-7-16 3-19q9-26 9-58 1-17 1-25m188-93q0-15 26-15h6q16 0 21 13t6 48l-3 82q0 56 41 56 15 0 28-10t21-25q14-32 14-116l-1-10v-10q0-13 6-19t21-6 19 8 5 22l-1 13-1 58q0 14 2 43t4 42 2 16q0 21-32 21-11 0-22-8t-16-8-15 5q-30 16-52 16h-6q-35 0-51-22t-17-77l3-74q0-14-4-27t-4-16m321 71v4q0 7 13 7h6l2 0 12-1q18-2 24-2 27 0 40-10 6-5 6-18v-2q0-19-12-30t-29-10h-1l-2 0q-24 0-41 20t-18 42m53 152h-5q-47 0-75-30t-27-79v-11q0-23 9-48 19-49 61-67 23-10 46-10h11q32 0 54 21t22 55v5q0 24-19 34-13 7-62 14t-53 9q-14 5-14 19 0 20 17 34t46 15q13 0 36-8t27-7q13 0 13 11 0 14-28 28t-59 15m166-140q-15-15-15-42t24-47 61-20h6q32 0 51 9t19 27-16 18q-4 0-23-10t-37-10-27 8-10 21 14 24q8 6 39 18t44 25q21 18 21 48t-24 50-65 21h-7q-40 0-60-12t-20-30 16-19q5 0 27 13t42 14 32-9 10-23-13-24q-7-5-41-20t-48-30m281 106h6q20 0 35-14t16-31l0-3v-3l1-8v-14q0-14-15-14h-11l-1 0-10 1q-7 1-10 1-19 0-36 15-12 10-12 30v4q0 17 11 26t26 10m-55-156q-16 0-16-21 0-16 27-27t55-12h12q24 0 43 9t29 25 12 41q1 6 1 57t1 58 8 19 6 18-7 12-19 5-28-6-21-6q-1 0-25 8t-40 9h-5q-27 0-47-17t-19-50 21-49 51-25q9-2 30-5t29-7q13-6 13-23t-11-26-27-10-41 11-32 12m549 187h-37l-6 0-75-1q-6-1-22-1-34 0-34-21 0-4 3-12t6-14 7-56 5-134l1-12v-21q0-13-6-28t-5-21 7-14 22-8h12q19 0 29 8t11 15-6 22-8 33q-8 75-8 142l0 12-1 18q0 38 9 46t41 8 55-7q4-2 17-7t20-5q14 0 14 18 0 25-11 32t-40 8m174-318v3q0 13-8 21t-22 9h-4l-7-1q-7 0-13-6t-6-18v-3l1-9q0-5 6-13t16-7l6-1h5l7 1q6 0 12 6t7 18m-12 103l-3 66 0 7-1 20v9q0 35 2 46t8 22 6 15v2q0 12-12 19t-33 7h-6q-13 0-19-6t-6-11v-6q0-3 5-22t6-53q1-10 1-13l0-14 1-6q1-17 1-27l0-10q0-18-6-32t-6-18q0-17 34-17h8q13 0 16 6t4 16m170 184h8q26 0 44-27t19-72v-8l-1-2 0-6q0-2 0-5 0-23-13-41t-33-18h-7q-12 0-26 8t-20 20q-13 24-13 77v22q1 7 1 12 0 18 11 29t30 11m-32-229v14q0 9 3 14t17 5q0 0 16-4t32-4q37 0 61 29t24 70v18q0 20-8 43-8 23-23 40-31 34-77 34h-5q-13 0-33-4t-26-5l-16 1q-25 0-25-25v-10q0-15 6-109t6-119-4-43-5-19q0-20 24-20h4q20 0 26 9t5 35l-1 39-1 11m220 133v-19q0-34-3-50t-4-22q0-15 22-15t31 8q3 2 7 9t8 6q1 0 21-12t35-13h4q12 0 19 6t7 14v3q0 10-7 15t-22 4q-34 0-50 24t-16 86q0 8 3 27t3 27-10 18-25 9h-8q-14 0-21-7t-7-16 3-19q10-26 10-58 0-17 0-25m228-22v4q0 7 14 7h6l1 0 12-1q19-2 24-2 27 0 40-10 7-5 7-18v-2q0-19-12-30t-29-10h-2l-1 0q-24 0-42 20t-18 42m53 152h-5q-47 0-74-30t-28-79v-11q0-23 10-48 18-49 61-67 22-10 46-10h10q32 0 54 21t22 55v5q0 24-19 34-13 7-61 14t-53 9q-15 5-15 19 0 20 17 34t46 15q14 0 37-8t27-7q12 0 12 11 0 14-28 28t-59 15" />
</svg>