<svg id="fnt-Averia Serif Libre" viewBox="0 0 4013 1000" xmlns="http://www.w3.org/2000/svg"><path id="averia-serif-libre" class="f" d="M209 522v-2q0-23-39-114-7-16-7-16l-7 16q-41 95-41 115 0 3 5 4t6 0l19 0h17l2 0q45 0 45-3m-203 130q0-6 14-14t20-21 19-45 32-82 33-89 16-50q10-24 29-24h7q4 0 11 5 14 11 29 45 5 12 15 41t41 111 35 90q6 12 21 20t14 13q0 10-12 12-8 2-42 2l-14 0q-45 0-45-12 0-2 5-11t6-21-9-36-15-29-53-6-55 5-17 28-9 36 9 25 8 11q0 9-30 9t-46-2-17-11m473 18h-6q-12 0-23-21-5-11-34-85t-35-84-20-21-14-13q0-8 11-10t49-2 39 11q0 0-3 8t-3 15q0 34 38 122 7 16 10 16t10-15q39-86 39-120 0-8-6-18t-7-9q0-11 46-11h6q29 0 29 11 0 8-12 17t-20 21q-3 5-33 78t-39 91-22 19m304-162v-8q0-18-13-32t-31-15h-5q-4 1-5 1-17 0-32 19t-15 42v3q0 8 9 8 4 1 4 1l5 0h2l2 0 47-3 9-1q23 0 23-15m-101 65q0 27 21 46t53 19q13 0 23-4t24-9 15-5q10 0 10 10 0 14-36 31-23 10-50 10h-6q-46 0-76-28-16-15-25-38t-9-51l0-6v-5q0-24 11-47 11-22 26-37 32-31 76-31 66 0 88 52 7 16 7 30v5q0 17-14 22t-66 10-56 5q-16 4-16 21m319 84q0 10-44 10h-26l-11-1-15 0q-26 0-26-9 0-7 12-14t15-20 4-70-3-70-12-18q-15-10-15-14t5-8q16-10 52-10h4q14 0 20 14t10 14 12-7 22-13 28-7 23 8 8 20q0 13-6 19t-14 6-19-6-20-6-18 7-16 24-7 59 6 54 18 22 13 16m186-309v5q0 11-9 20t-19 9q-2 1-3 1l-5 0q-12 0-22-8t-10-21v-4q0-13 11-21t23-9h1l8 1q8 0 16 8t8 17l1 2m-78 114q-13-6-13-11t6-9q17-11 56-11h7q13 0 15 13 1 6 1 88t3 94 17 19 13 13q0 9-61 9l-7 1h-30q-18 0-18-9 0-7 11-14t15-15q5-9 5-43l0-8v-7l0-12v-7l0-8q0-58-3-67t-17-16m273 92h-5q-32 0-53 14t-21 35v5q0 13 7 23t20 10l3 0h8q25 0 41-21 7-9 7-37 0-2 0-4l0-6v-6q0-13-7-13m-119-79q0-18 29-33t59-14q1 0 2 0 29 0 47 7 36 14 41 60 0 5 0 62t3 66 17 15 13 8q0 9-8 14-18 9-35 9t-25-8q-15-14-16-14t-28 13-46 12q-30 0-47-17t-18-40v-6q0-25 22-45t80-30q20-4 26-7 10-7 10-28t-11-32-30-11-36 22-32 21q-17 0-17-24m539-111q-20-14-45-14t-41 13-16 37 24 42q14 11 58 29t61 35q32 30 32 63v9q0 40-32 66-15 11-37 18t-44 7h-9q-51 0-88-15-18-7-18-37v-9q0-36 13-36 8 0 23 23t34 35 46 12 44-14 16-36q0-28-26-48-12-8-58-30t-64-40q-24-25-24-62t26-61q14-13 36-20t44-8h9q9 0 26 3l9 2q15 3 16 3l7 1 8 0q10 1 14 2 15 6 15 41t-14 35q-7 0-21-19t-24-27m272 144v-8q0-18-13-32t-31-15h-5q-4 1-5 1-17 0-32 19t-15 42v3q0 8 9 8 4 1 4 1l5 0h2l2 0 47-3 9-1q23 0 23-15m-101 65q0 27 21 46t53 19q13 0 23-4t24-9 15-5q10 0 10 10 0 14-36 31-23 10-50 10h-6q-46 0-76-28-16-15-25-38t-9-51l0-6v-5q0-24 11-47 11-22 26-37 32-31 76-31 66 0 88 52 7 16 7 30v5q0 17-14 22t-66 10-56 5q-16 4-16 21m319 84q0 10-44 10h-26l-11-1-15 0q-26 0-26-9 0-7 12-14t15-20 4-70-3-70-12-18q-15-10-15-14t6-8q15-10 51-10h4q14 0 20 14t10 14 12-7 22-13 28-7 23 8 8 20q0 13-6 19t-14 6-19-6-20-6-18 7-16 24-7 59 6 54 18 22 13 16m186-309v5q0 11-9 20t-19 9q-2 1-3 1l-5 0q-12 0-22-8t-10-21v-4q0-13 11-21t23-9h1l8 1q8 0 16 8t8 17l1 2m-78 114q-13-6-13-11t6-9q17-11 56-11h7q13 0 15 13 1 6 1 88t3 94 17 19 13 13q0 9-61 9l-7 1h-30q-18 0-18-9 0-7 11-14t15-15q5-9 5-43l0-8v-7l0-12v-7l0-8q0-58-3-67t-17-16m231 210h-13q-72 0-72-11 0-6 12-14t16-21 4-75-4-70-13-15-9-12 11-19 15-33q11-47 31-68 25-28 70-28 22 0 36 8t13 20-7 18-13 6-24-9-24-9q-14 0-21 17t-7 36 8 30q3 3 22 13t19 17q0 5-20 11t-24 12q-7 12-7 75t4 75 18 22 13 15q0 9-34 9m385-5h-7l-8 0h-36q-87 0-94-1-12-3-12-11 0-4 13-13t17-27 4-128-2-121-15-14q-18-8-18-17t27-8h15l7 0 22 0q59 0 59 9 0 3-17 20-10 9-14 32t-4 123 3 109 14 13q7 2 27 2 43 0 65-11 12-6 26-26t22-20 8 11v6q0 54-13 66-8 6-89 6m225-319v5q0 11-9 20t-19 9q-2 1-3 1l-5 0q-12 0-22-8t-10-21v-4q0-13 10-21t24-9h1l8 1q8 0 16 8t8 17l1 2m-78 114q-13-6-13-11t6-9q17-11 56-11h7q13 0 15 13 1 6 1 88t3 94 17 19 13 13q0 9-61 9l-7 1h-30q-18 0-18-9 0-7 11-14t15-15q5-9 5-43l0-8v-7l0-12v-7l0-8q0-58-3-67t-17-16m274-3h-8q-12 0-25 7t-19 18-7 60v38q0 37 11 50t38 14h5q26 0 42-24t16-56l0-6v-17q0-36-15-60t-38-24m-114 179q0-3 3-25t2-53v-71l1-12v-48l-1-12v-12l0-6q0-6 0-20 0-29-16-37t-15-14q0-5 7-9 18-8 54-8 15 0 19 17 2 9 2 66t9 56q6 0 25-7t40-8q41 0 67 30t27 81v6q0 24-9 47-17 43-57 61-21 10-44 10h-6q-9 0-29-5t-39-4l-20 1q-20 0-20-24m390 19q0 10-44 10h-26l-10-1-15 0q-26 0-26-9 0-7 11-14t16-20 4-70-4-70-12-18q-14-10-14-14t5-8q15-10 51-10h5q14 0 20 14t9 14 13-7 21-13 28-7 24 8 8 20q0 13-6 19t-14 6-19-6-20-6-18 7-16 24-7 59 6 54 18 22 12 16m247-149v-8q0-18-12-32t-32-15h-5q-3 1-5 1-17 0-32 19t-15 42v3q0 8 9 8 4 1 4 1l6 0h1l2 0 47-3 9-1q23 0 23-15m-101 65q0 27 21 46t53 19q13 0 24-4t23-9 16-5q9 0 9 10 0 14-36 31-23 10-50 10h-5q-46 0-77-28-16-15-25-38t-9-51l0-6v-5q0-24 11-47 11-22 26-37 32-31 76-31 66 0 88 52 7 16 7 30v5q0 17-14 22t-65 10-57 5q-16 4-16 21" />
</svg>