<svg id="fnt-Average" viewBox="0 0 1641 1000" xmlns="http://www.w3.org/2000/svg"><path id="average" class="f" d="M2 668l-2-14q24-5 34-10t13-15l99-304 42-5 117 312q3 9 11 13t31 9l-1 14q-17-1-33-1t-34 0q-39 0-70 1l-2-14q26-5 35-9t9-10l-27-89h-113l-27 89q0 6 9 10t34 9l-2 14q-16-1-32-1t-34 0q-16 0-27 0t-30 1m161-296l-45 151h98l-51-151h-2m215 96q0 2 15 44t39 122q27-81 41-123t14-43q0-11-28-15l-1-14t11 0 25 1q9 0 21 0t21-1 9 0l1 14q-17 3-23 7t-9 13l-68 194-37 4-69-197q-2-6-8-12t-22-9l-2-14t9 0 21 1 21 0q10 0 21 0t20-1 8 0l2 14q-17 2-24 7t-8 8m358 157l6 15q-16 13-37 22t-45 9q-37 0-61-15t-35-39-11-54q0-24 6-46t21-41 37-29 55-10q18 0 36 8t29 27 11 50l-17 21q-2-1-7-1t-11 0q-13 0-30 0t-34 1-32 1-22 2v4q0 47 20 69t51 22q19 0 35-4t35-12m-33-118q0-17-7-27t-16-14-19-5q-24 0-41 19t-22 45l104-4q1-7 1-14m141-70l9 5q0 5-1 16t0 25q11-19 26-29t27-16 18-4q3 0 8 5t10 13 8 17l-8 9q-6-2-15-5t-19-2q-13 0-26 6t-21 21-8 42q0 41 1 62t2 29 2 11q1 4 15 7t28 5l-2 14q-8 0-20-1t-24 0-20 0q-13 0-29 0t-28 1l1-14q6-1 13-2t13-4 7-5q0 0 1-8t2-27 1-56-1-54-2-24-1-5l-32-10-1-13q9 0 21-1t24-4 21-4m327 204l5 13q-19 17-42 17-12 0-22-8t-13-24q-18 14-37 23t-39 9q-20 0-36-12t-15-40q0-18 11-35t39-30 76-15v-46q0-15-11-22t-26-7q-22 0-32 10t-11 26q0 6 2 14l-11 5q-11-6-19-16t-9-13q0-4 6-12t19-18 31-17 41-6q16 0 28 4t21 16 7 33q0 5 0 18t1 30 1 34 1 31 0 18q1 13 6 18t12 6q3 0 7-1t9-3m-73-21v-58q-44 1-64 16t-20 33q0 15 9 23t23 7q11 0 24-5t28-16m260-168q3-4 9-12t15-15 16-6q2 0 7 5t11 13 7 17l-7 9q-4-2-10-3t-12-1q-5 0-11 1t-12 4q8 10 13 24t4 35q0 19-9 38t-29 32-53 12q-11 0-22-1-8 11-13 19t-5 14q0 6 7 9t25 2h38q48 0 71 16t23 45q0 21-16 41t-47 35-76 13q-22 0-43-5t-34-15-14-27q0-14 13-33t39-40q-16-4-24-10t-8-15q0-10 13-24t32-29q-24-7-37-26t-13-54q0-20 9-39t30-31 52-13q18 0 34 3t27 12m-13 76q0-17-3-33t-14-27-30-10q-16 0-26 7t-15 17-7 20-2 18q0 15 4 30t15 25 29 10q19 0 30-10t14-24 5-23m-112 207q0 18 14 31t43 12q27 0 47-10t31-26 11-29-12-24-41-10h-68q-12 14-19 28t-6 28m394-110l6 15q-15 13-36 22t-46 9q-37 0-61-15t-35-39-11-54q0-24 7-46t21-41 37-29 55-10q18 0 35 8t29 27 12 50l-17 21q-2-1-7-1t-12 0q-12 0-29 0t-35 1-32 1-21 2v4q0 47 19 69t52 22q18 0 35-4t34-12m-32-118q0-17-7-27t-17-14-18-5q-25 0-41 19t-22 45l103-4q2-7 2-14" />
</svg>