<svg id="fnt-Averia Libre" viewBox="0 0 2662 1000" xmlns="http://www.w3.org/2000/svg"><path id="averia-libre" class="f" d="M164 527h4q37 0 37-7v-1q0-3-3-15t-4-13-1-5-7-29-17-52-12-24-8 18q-41 102-41 121v1q0 6 25 6h16l3 0 8 0m139 98v5q0 13-12 25-6 6-23 6t-24-9q-1-1-10-33t-19-45-42-12q-60 0-72 10t-22 44q-4 12-5 23t-4 15q-4 6-17 6t-20-10-8-24 9-26 13-24 36-103 42-115 19-30 20-6 22 9 21 32q0 1 76 215 4 12 12 25t8 22m136 42q-18 0-33-32t-34-86-30-74-12-30 5-15q5-4 23-4 29 0 38 21 2 5 5 22t21 77 25 59q7 0 28-66t23-81 3-17q6-15 27-15h5q13 0 17 4t5 14v4q0 6-15 31-3 6-28 72t-35 86-18 25-20 5m272-144q17 0 24-5t7-12v-10q0-18-13-29t-29-12h-6q-22 0-39 19t-16 41v4q0 8 15 8h6l1 0 19-1 12-1 8-1q2 0 6-1t5 0m-10 147h-10q-49 0-79-33-13-15-20-37t-8-45v-11q0-22 10-47 18-47 60-64 22-10 47-10h5q34 0 57 21 12 12 19 29t6 30q0 30-18 39-13 6-58 11t-50 7q-21 5-21 19 0 23 22 39 15 12 45 12 11 0 36-7t28-7q13 0 13 11 0 15-28 29t-56 14m260-196q-23 0-35 23t-13 69q0 21 2 30t5 21 4 22-12 18-29 7l-4 0h-4q-12 0-20-6t-8-15v-4q0-2 5-16t5-28 1-36v-27l0-5q0-4 0-9l-1-13q0-4 0-17t-4-24-5-15q0-15 26-15t37 14q3 4 7 4t13-6q24-17 41-17h4q14 0 22 7t8 18q0 21-25 21-9-1-20-1m125-150h8q11 0 18 6t8 19v6q0 10-7 18t-17 8l-4 0h-9q-2 0-7 0t-10-6-6-14q-1-2-1-3l0-5v-1l1-8q0-5 6-13t20-7m4 342h-12q-11 0-18-6t-7-13 4-20 4-23l1-6 0-13v-10l0-7v-79q-1-13-4-22l-2-5q-5-13-5-14v-5q0-14 29-14h9q18 0 22 14 1 4 1 43v55l0 16 1 19q0 29 12 49 5 9 5 19t-12 16-28 6m175-30h8q23 0 40-20 10-10 10-40l0-3v-6q0-18-15-18h-8l-13 1-6 0q-23 0-37 13t-15 30v8q0 14 10 24t26 11m124 12q0 16-33 16-6 0-21-6t-20-6-26 8-40 9h-6q-26 0-45-18t-20-47q0-62 78-77 51-10 52-11 12-6 12-22t-10-27-27-11-42 12-32 12q-16 0-16-22 0-13 25-25t57-13h12q24 0 43 9t28 25q14 21 14 99 0 44 2 55t8 21 7 19m200-6q0-3 3-13t5-19 2-36l1-37t0-79q0-56-1-66t-6-23-6-23 9-16 23-6h6q19 0 31 7t12 21q0 5-4 15t-6 21-3 109 5 110 16 16 38 3 38-4 25-9 18-5q17 0 17 22v6q0 18-14 26-9 5-39 5h-50l-6-1h-6q-72 0-90-4t-18-20m301-318h8q11 0 19 6t7 19v6q0 10-7 18t-16 8l-5 0h-8q-3 0-8 0t-10-6-6-14q0-2 0-3l-1-5v-1l1-8q0-5 6-13t20-7m4 342h-12q-10 0-18-6t-7-13 4-20 4-23l1-6 0-13v-10l0-7v-79q-1-13-4-22l-2-5q-5-13-5-14v-5q0-14 29-14h9q18 0 22 14 1 4 1 43v55l0 16 1 19q0 29 12 49 5 9 5 19t-11 16-29 6m200-31h7q25 0 42-23t17-64v-17q0-35-15-56t-35-21h-7q-25 0-41 20-11 14-11 41-1 8-1 10l0 5 0 5v5l-1 8v18q0 40 11 55t34 14m-92-34v-43l0-6v-28l0-6v-12l0-11q0-17 0-34l1-12v-11l0-12v-11q0-35-1-44t-5-22-4-15v-4q0-16 22-16h5q21 0 27 12t6 51 2 49 11 11q5 0 23-4t35-5 36 10 30 27q22 34 22 80l0 6v6q0 23-9 44-18 44-57 59-18 7-38 7h-5q-14 0-32-5t-27-5l-16 2q-21 0-26-20 0-3 0-38m381-127q-23 0-36 23t-13 69q0 21 2 30t5 21 4 22-12 18-29 7l-4 0h-4q-12 0-20-6t-7-15v-4q0-2 4-16t6-28 0-36v-27l0-5q0-4 0-9l0-13q-1-4-1-17t-4-24-5-15q0-15 26-15t37 14q3 4 7 4t13-6q24-17 41-17h4q14 0 22 7t8 18q0 21-24 21-10-1-20-1m200 49q17 0 24-5t7-12v-10q0-18-13-29t-29-12h-6q-22 0-39 19t-17 41v4q0 8 16 8h6l1 0 19-1 12-1 8-1q2 0 6-1t5 0m-10 147h-10q-49 0-79-33-13-15-20-37t-8-45v-11q0-22 10-47 17-47 60-64 22-10 47-10h5q34 0 57 21 12 12 19 29t6 30q0 30-18 39-13 6-58 11t-50 7q-21 5-21 19 0 23 21 39 16 12 46 12 11 0 36-7t28-7q12 0 12 11 0 15-27 29t-56 14" />
</svg>