<svg id="fnt-Azeret Mono" viewBox="0 0 3551 1000" xmlns="http://www.w3.org/2000/svg"><path id="azeret-mono" class="f" d="M262 579h-193v-45h193v45m-245 88l108-349h76l108 349h-55l-70-231-21-77-21 77-72 231h-53m589 0h-235v-37l126-146 49-52-72 1h-96v-41h228v36l-127 146-49 52 72 0h104v41m210 6q-43 0-74-18t-47-49-17-77 17-77 48-49 75-17q66 0 99 36t28 101h-227l1-38 175 1q-2-27-23-43t-53-16q-43 0-66 27t-23 77q0 29 10 52t30 35 47 13q32 0 54-16t27-42h50q-6 47-41 73t-90 27m447-163h-50v-33q0-22-13-35t-38-13q-31 0-55 23t-39 71l-7-51q11-29 26-48t37-29 46-9q41 0 67 23t26 68v33m-186 157h-50v-275h47l3 62v213m389 6q-43 0-74-18t-47-49-17-77 17-77 48-49 75-17q66 0 99 36t28 101h-227l1-38 175 1q-2-27-23-43t-53-16q-43 0-66 27t-23 77q0 29 10 52t30 35 47 13q32 0 54-16t27-42h50q-6 47-41 73t-90 27m445-6h-101q-25 0-43-11t-27-29-9-44v-243l50-28v271q0 12 4 22t13 15 31 6h82v41m-44-234h-201v-41h201v41m473 234h-52l26-349h70l44 206 11 68 11-68 43-206h69l26 349h-52l-12-219-2-77-15 77-47 219h-45l-47-219-14-78-3 78-11 219m422 6q-42 0-73-18t-47-50-17-76q0-45 17-77t47-49 74-17q64 0 100 38t37 105q0 44-17 76t-47 50-74 18m1-42q40 0 63-28t23-74q0-47-23-74t-63-27q-41 0-64 27t-23 74q0 47 23 74t64 28m449 36h-50v-174q0-29-17-47t-43-17q-30 0-54 22t-38 69l-8-56q16-39 45-59t64-19q31 0 53 13t36 37 12 55v176m-196 0h-50v-275h48l2 62v213m396 6q-42 0-73-18t-47-50-17-76q0-45 17-77t47-49 74-17q64 0 100 38t37 105q0 44-17 76t-47 50-74 18m1-42q40 0 63-28t23-74q0-47-23-74t-63-27q-41 0-64 27t-23 74q0 47 23 74t64 28" />
</svg>