<svg id="fnt-Bai Jamjuree" viewBox="0 0 2970 1000" xmlns="http://www.w3.org/2000/svg"><path id="bai-jamjuree" class="f" d="M73 667q-15 0-24-9t-9-24v-317h148q45 0 72 21t27 56v27q0 18-8 35t-24 27v0q25 7 39 25t15 44v24q0 41-26 66t-70 25h-140m4-192h121q24 0 38-15t14-39v-27q0-20-17-32t-45-12h-111v125m0 159h131q30 0 47-16t17-42v-24q0-21-15-34t-39-12h-141v128m364 37q-36 0-58-19t-22-51v-16q0-32 23-51t59-19h32q17 0 34 5t30 14v-42q0-21-13-34t-34-13h-40q-22 0-35 10t-13 26h-36q0-30 23-49t61-19h40q37 0 59 22t23 57v175h-34v-35q-11 18-30 28t-39 11h-30m0-32h31q24 0 42-14t25-39v-18q-10-10-28-16t-36-5h-32q-20 0-33 10t-13 28v16q0 17 12 28t32 10m233-259q-12 0-19-8t-8-19 8-20 19-7 20 7 7 20-7 19-20 8m-18 287v-250h36v250h-36m326 4q-29 0-50-15t-34-40-12-59h37q0 37 16 59t43 22h43q28 0 44-23t16-64v-234h37v234q0 56-25 88t-72 32h-43m286 0q-36 0-58-19t-22-51v-16q0-32 23-51t59-19h32q17 0 34 5t30 14v-42q0-21-13-34t-34-13h-40q-22 0-35 10t-13 26h-36q0-30 23-49t61-19h40q37 0 59 22t23 57v175h-34v-35q-11 18-30 28t-39 11h-30m0-32h31q24 0 42-14t25-39v-18q-10-10-28-16t-36-5h-32q-20 0-33 10t-13 28v16q0 17 12 28t32 10m480-226q33 0 52 21t19 59v174h-36v-175q0-22-10-34t-26-13h-29q-21 0-35 15t-18 41v166h-36v-172q0-23-10-37t-25-13h-28q-21 0-36 18t-20 47v157h-36v-250h35v36q10-19 25-29t32-11h29q21 0 36 10t24 30q11-20 27-30t35-10h31m174-33q-12 0-19-8t-8-19 8-20 19-7 20 7 7 20-7 19-20 8m-84 386v-32h18q26 0 37-14t11-46v-257h36v255q0 50-19 72t-65 22h-18m262-95q-35 0-56-24t-22-61v-169h36v170q0 23 12 37t30 15h31q23 0 42-19t25-46v-157h36v250h-35v-38q-11 18-30 30t-37 12h-32m210-4v-250h35v39q10-18 30-29t43-11h22v33h-22q-32 0-52 20t-20 54v144h-36m253 4q-42 0-68-25t-25-66v-71q0-43 25-70t68-26h41q40 0 64 26t25 67v44h-187v30q0 26 15 42t42 17h38q25 0 40-14t16-37h35q0 37-25 60t-66 23h-38m-57-152h151v-13q0-27-15-44t-38-17h-41q-26 0-42 18t-15 46v10m333 152q-42 0-68-25t-25-66v-71q0-43 25-70t68-26h41q40 0 64 26t25 67v44h-187v30q0 26 15 42t42 17h38q25 0 40-14t16-37h35q0 37-25 60t-66 23h-38m-57-152h151v-13q0-27-15-44t-38-17h-41q-26 0-42 18t-15 46v10" />
</svg>