<svg id="fnt-Baloo Da 2" viewBox="0 0 2223 1000" xmlns="http://www.w3.org/2000/svg"><path id="baloo-da-2" class="f" d="M210 492v33h-137v-33h137m-57 33l16-25q34 0 56 11t34 30 11 42q0 45-33 67t-93 22q-13 0-27-1t-26-2-25-5q-21-6-21-23v-256q0-8 4-13t12-6q17-5 36-7t42-2q56 0 88 20t31 62q0 21-10 39t-33 28-61 11l-4-25q33 0 50-14t17-38q0-25-20-37t-58-12q-17 0-30 1t-24 3v238q12 3 27 4t32 2q42 0 63-14t22-43q0-26-20-42t-56-15m267 116q21 0 34-5t20-8v-72l-62 6q-26 2-38 12t-13 27q0 19 15 29t44 11m-1-212q44 0 69 20t26 61v119q0 11-5 16t-12 11q-12 7-32 12t-45 6q-47 0-73-19t-26-53q0-33 22-50t60-21l71-7v-14q0-25-15-36t-40-12q-21 0-40 6t-33 14q-4-4-7-9t-3-9q0-13 14-20 14-7 31-11t38-4m172 106l40 6v125q-3 1-8 2t-11 1q-10 0-16-4t-5-14v-116m40 25l-40-6v-211q2-1 7-3t11-1q11 0 16 4t6 14v203m293-9q0 37-14 65t-39 42-60 15-61-15-39-42-14-65q0-37 14-65t40-42 60-15 59 15 40 42 14 65m-113-89q-34 0-54 24t-19 65q0 42 19 66t54 23q34 0 53-24t19-65-19-65-53-24m390 89q0 37-14 65t-40 42-60 15-60-15-40-42-14-65q0-37 14-65t40-42 60-15 60 15 39 42 15 65m-114-89q-33 0-53 24t-20 65q0 42 19 66t54 23q34 0 53-24t20-65-20-65-53-24m496 49q0 63-30 95t-89 32q-14 0-28-1t-26-4v-238q10-2 22-3t28-1q34 0 61 12t45 39 17 69m41 0q0-51-21-85t-57-52-86-17q-19 0-39 2t-35 6q-8 3-12 7t-4 12v257q0 17 21 23 18 6 38 7t36 1q48 0 84-17t55-54 20-90m147 130q21 0 35-5t20-8v-72l-62 6q-26 2-39 12t-12 27q0 19 14 29t44 11m0-212q43 0 69 20t25 61v119q0 11-4 16t-13 11q-12 7-32 12t-45 6q-47 0-73-19t-25-53q0-33 21-50t61-21l71-7v-14q0-25-15-36t-41-12q-20 0-39 6t-33 14q-4-4-8-9t-3-9q0-13 15-20 13-7 31-11t38-4m258-35q0-9 12-18t31-14 42-5q32 0 55 10t36 31 12 46q0 27-15 54t-52 60l-82 76h149q2 2 3 6t2 10q0 8-5 12t-11 5h-176q-5-4-8-9t-2-11q0-8 3-15t9-11l90-87q31-29 42-49t12-41q0-23-16-38t-49-15q-22 0-39 7t-29 16q-5-2-10-7t-4-13" />
</svg>