<svg id="fnt-Baloo 2" viewBox="0 0 1547 1000" xmlns="http://www.w3.org/2000/svg"><path id="baloo-2" class="f" d="M73 492h137v33h-137v-33m80 33l16-25q34 0 56 11t34 30 11 42q0 45-33 67t-93 22q-13 0-27-1t-26-2-25-5q-21-6-21-23v-256q0-8 4-13t12-6q17-5 36-7t42-2q56 0 88 20t31 62q0 21-10 39t-33 28-61 11l-4-25q33 0 50-14t17-38q0-25-20-37t-58-12q-17 0-30 1t-24 3v238q12 3 27 4t32 2q42 0 63-14t22-43q0-26-20-42t-56-15m267 116q21 0 34-5t20-8v-72l-62 6q-26 2-38 12t-13 27q0 19 15 29t44 11m-1-212q44 0 69 20t26 61v119q0 11-5 16t-12 11q-12 7-32 12t-45 6q-47 0-73-19t-26-53q0-33 22-50t60-21l71-7v-14q0-25-15-36t-40-12q-21 0-40 6t-33 14q-4-4-7-9t-3-9q0-13 14-20 14-7 31-11t38-4m172 222v-116l40 6v125q-3 1-8 2t-11 1q-10 0-16-4t-5-14m40-294v203l-40-6v-211q2-1 7-3t11-1q11 0 16 4t6 14m293 194q0 37-14 65t-39 42-60 15-61-15-39-42-14-65q0-37 14-65t40-42 60-15 59 15 40 42 14 65m-113-89q-34 0-54 24t-19 65q0 42 19 66t54 23q34 0 53-24t19-65-19-65-53-24m390 89q0 37-14 65t-40 42-60 15-60-15-40-42-14-65q0-37 14-65t40-42 60-15 60 15 39 42 15 65m-114-89q-33 0-53 24t-20 65q0 42 19 66t54 23q34 0 53-24t20-65-20-65-53-24m267-68q0-9 11-18t31-14 43-5q32 0 55 10t35 31 13 46q0 27-16 54t-52 60l-81 76h148q2 2 4 6t1 10q0 8-4 12t-11 5h-177q-5-4-7-9t-3-11q0-8 3-15t9-11l90-87q31-29 43-49t11-41q0-23-16-38t-48-15q-22 0-40 7t-28 16q-6-2-10-7t-4-13" />
</svg>