<svg id="fnt-Baloo Tammudu 2" viewBox="0 0 3798 1000" xmlns="http://www.w3.org/2000/svg"><path id="baloo-tammudu-2" class="f" d="M73 492h137v33h-137v-33m80 33l16-25q34 0 56 11t34 30 11 42q0 45-33 67t-93 22q-13 0-27-1t-26-2-25-5q-21-6-21-23v-256q0-8 4-13t12-6q17-5 36-7t42-2q56 0 88 20t31 62q0 21-10 39t-33 28-61 11l-4-25q33 0 50-14t17-38q0-25-20-37t-58-12q-17 0-30 1t-24 3v238q12 3 27 4t32 2q42 0 63-14t22-43q0-26-20-42t-56-15m267 149q-47 0-73-19t-26-53q0-33 22-50t60-21l71-7v-14q0-25-15-36t-40-12q-21 0-40 6t-33 14q-4-4-7-9t-3-9q0-13 14-20 14-7 31-11t38-4q44 0 69 20t26 61v119q0 11-5 16t-12 11q-12 7-32 12t-45 6m0-33q21 0 34-5t20-8v-72l-62 6q-26 2-38 12t-13 27q0 19 15 29t44 11m171 10v-116l40 6v125q-3 1-8 2t-11 1q-10 0-16-4t-5-14m40-294v203l-40-6v-211q2-1 7-3t11-1q11 0 16 4t6 14m293 194q0 37-14 65t-39 42-60 15-61-15-39-42-14-65q0-37 14-65t40-42 60-15 59 15 40 42 14 65m-113-89q-34 0-54 24t-19 65q0 42 19 66t54 23q34 0 53-24t19-65-19-65-53-24m390 89q0 37-14 65t-40 42-60 15-60-15-40-42-14-65q0-37 14-65t40-42 60-15 60 15 39 42 15 65m-114-89q-33 0-53 24t-20 65q0 42 19 66t54 23q34 0 53-24t20-65-20-65-53-24m472-65h-103l-3-34h117q1 2 3 6t1 10q0 8-4 13t-11 5m-206-34h104l2 34h-117q-1-2-3-7t-1-9q0-9 4-14t11-4m83 288v-267h40v282q-2 1-8 2t-10 1q-11 0-17-4t-5-14m271 23q-47 0-73-19t-26-53q0-33 22-50t60-21l71-7v-14q0-25-15-36t-40-12q-21 0-40 6t-33 14q-4-4-7-9t-3-9q0-13 14-20 14-7 31-11t38-4q44 0 69 20t26 61v119q0 11-5 16t-12 11q-12 7-32 12t-45 6m0-33q21 0 34-5t20-8v-72l-62 6q-26 2-38 12t-13 27q0 19 15 29t44 11m353-134v57h-40v-54q0-25-14-36t-38-12q-15 0-30 5t-24 12v85h-40v-83q0-10 4-17t15-14q13-8 34-15t42-6q25 0 45 8t29 21q3 3 5 6t4 6q3 6 6 16t2 21m147 1v56h-40v-54q0-25-14-36t-38-12q-17 0-34 7t-29 21l-16-29q13-13 34-22t48-10 47 9 31 26 11 44m-333 143v-113h40v128q-3 1-8 2t-11 1q-10 0-16-4t-5-14m146 0v-113h40v128q-2 1-8 2t-10 1q-11 0-17-4t-5-14m147 0v-113h40v128q-3 1-8 2t-11 1q-11 0-16-4t-5-14m301-144v57h-40v-54q0-25-14-36t-38-12q-15 0-30 5t-24 12v85h-40v-83q0-10 4-17t15-14q13-8 34-15t42-6q25 0 45 8t29 21q3 3 5 6t4 6q3 6 6 16t2 21m147 1v56h-40v-54q0-25-14-36t-38-12q-17 0-34 7t-29 21l-16-29q13-13 34-22t48-10 47 9 31 26 11 44m-333 143v-113h40v128q-3 1-8 2t-11 1q-10 0-16-4t-5-14m146 0v-113h40v128q-2 1-8 2t-10 1q-11 0-17-4t-5-14m147 0v-113h40v128q-3 1-8 2t-11 1q-11 0-16-4t-5-14m115-69v-45h40v43q0 32 17 46t47 14q20 0 34-4t22-9v-90h40v89q0 10-3 16t-13 13q-11 6-32 12t-49 6q-33 0-56-10t-35-30-12-51m200-130v111h-40v-126q2-1 7-3t11-1q11 0 16 4t6 15m-160 0v111h-40v-126q2-1 7-3t12-1q10 0 15 4t6 15m392 175v-168l40 0v170q0 9-4 15t-13 11q-10 7-29 12t-42 6q-36 0-64-12t-43-40-15-69q0-43 15-70t41-40 57-13q20 0 37 6t28 13v37q-10-9-25-16t-36-7-38 9-28 29-10 53q0 46 22 66t58 21q18 0 29-4t20-9m40-270v112l-40 0v-126q3-1 8-3t11-1q11 0 16 4t5 14m76 225v-45h40v43q0 32 17 46t47 14q20 0 34-4t22-9v-90h40v89q0 10-3 16t-13 13q-11 6-31 12t-49 6q-33 0-57-10t-35-30-12-51m200-130v111h-40v-126q3-1 8-3t11-1q11 0 16 4t5 15m-160 0v111h-40v-126q3-1 8-3t11-1q11 0 16 4t5 15m326-58q0-9 12-18t31-14 42-5q32 0 55 10t36 31 12 46q0 27-15 54t-52 60l-82 76h149q2 2 3 6t2 10q0 8-5 12t-11 5h-176q-5-4-8-9t-2-11q0-8 3-15t9-11l90-87q31-29 42-49t12-41q0-23-16-38t-49-15q-22 0-39 7t-29 16q-5-2-10-7t-4-13" />
</svg>