<svg id="fnt-Baloo Thambi 2" viewBox="0 0 3237 1000" xmlns="http://www.w3.org/2000/svg"><path id="baloo-thambi-2" class="f" d="M73 492h137v33h-137v-33m80 33l16-25q34 0 56 11t34 30 11 42q0 45-33 67t-93 22q-13 0-27-1t-26-2-25-5q-21-6-21-23v-256q0-8 4-13t12-6q17-5 36-7t42-2q56 0 88 20t31 62q0 21-10 39t-33 28-61 11l-4-25q33 0 50-14t17-38q0-25-20-37t-58-12q-17 0-30 1t-24 3v238q12 3 27 4t32 2q42 0 63-14t22-43q0-26-20-42t-56-15m267 149q-47 0-73-19t-26-53q0-33 22-50t60-21l71-7v-14q0-25-15-36t-40-12q-21 0-40 6t-33 14q-4-4-7-9t-3-9q0-13 14-20 14-7 31-11t38-4q44 0 69 20t26 61v119q0 11-5 16t-12 11q-12 7-32 12t-45 6m0-33q21 0 34-5t20-8v-72l-62 6q-26 2-38 12t-13 27q0 19 15 29t44 11m171 10v-116l40 6v125q-3 1-8 2t-11 1q-10 0-16-4t-5-14m40-294v203l-40-6v-211q2-1 7-3t11-1q11 0 16 4t6 14m293 194q0 37-14 65t-39 42-60 15-61-15-39-42-14-65q0-37 14-65t40-42 60-15 59 15 40 42 14 65m-113-89q-34 0-54 24t-19 65q0 42 19 66t54 23q34 0 53-24t19-65-19-65-53-24m390 89q0 37-14 65t-40 42-60 15-60-15-40-42-14-65q0-37 14-65t40-42 60-15 60 15 39 42 15 65m-114-89q-33 0-53 24t-20 65q0 42 19 66t54 23q34 0 53-24t20-65-20-65-53-24m472-65h-103l-3-34h117q1 2 3 6t1 10q0 8-4 13t-11 5m-206-34h104l2 34h-117q-1-2-3-7t-1-9q0-9 4-14t11-4m83 288v-267h40v282q-2 1-8 2t-10 1q-11 0-17-4t-5-14m389-131v47h-40v-46q0-30-17-44t-43-15q-20 0-37 8t-28 18l-7-33q12-8 31-17t46-9q42 0 68 23t27 68m-200 131v-116h40v131q-2 1-7 2t-11 1q-11 0-16-4t-6-14m160 0v-116l40 1v130q-3 1-8 2t-11 1q-11 0-16-4t-5-14m-120-294v197h-40v-211q3-1 8-3t11-1q11 0 16 4t5 14m317 317q-47 0-73-19t-25-53q0-33 21-50t61-21l71-7v-14q0-25-15-36t-41-12q-20 0-39 6t-33 14q-4-4-8-9t-3-9q0-13 15-20 13-7 31-11t38-4q43 0 69 20t25 61v119q0 11-4 16t-13 11q-12 7-32 12t-45 6m0-33q21 0 35-5t20-8v-72l-62 6q-26 2-39 12t-12 27q0 19 14 29t44 11m354-134v57h-40v-54q0-25-15-36t-37-12q-16 0-30 5t-25 12v85h-40v-83q0-10 4-17t15-14q14-8 34-15t42-6q26 0 45 8t29 21q3 3 5 6t4 6q4 6 6 16t3 21m146 1v56h-40v-54q0-25-14-36t-37-12q-18 0-34 7t-29 21l-16-29q13-13 34-22t48-10 46 9 31 26 11 44m-333 143v-113h40v128q-2 1-7 2t-11 1q-11 0-16-4t-6-14m147 0v-113h40v128q-3 1-8 2t-11 1q-11 0-16-4t-5-14m146 0v-113h40v128q-2 1-8 2t-10 1q-11 0-17-4t-5-14m218-222q31 0 56 13t39 41 14 68q0 42-15 69t-40 40-61 13q-24 0-44-6t-32-13q-11-7-15-13t-4-16v-167h40v167q8 5 22 10t33 5q34 0 55-21t21-68q0-46-21-68t-54-21q-20 0-35 8t-26 18l-7-33q11-8 29-17t45-9m-62-72v109h-40v-123q3-1 8-3t11-1q11 0 16 4t5 14m230 6q0-11 8-18t18-7q12 0 19 7t7 18-7 17-19 8q-11 0-18-8t-8-17m6 288v-116h40v131q-2 1-7 2t-11 1q-11 0-16-4t-6-14m40-199v102h-40v-117q3-1 8-3t11-1q11 0 16 4t5 15m169-58q0-9 12-18t31-14 42-5q32 0 55 10t36 31 12 46q0 27-15 54t-52 60l-82 76h149q2 2 3 6t2 10q0 8-5 12t-11 5h-176q-5-4-8-9t-2-11q0-8 3-15t9-11l90-87q31-29 42-49t12-41q0-23-16-38t-49-15q-22 0-39 7t-29 16q-5-2-10-7t-4-13" />
</svg>