<svg id="fnt-Balsamiq Sans" viewBox="0 0 3316 1000" xmlns="http://www.w3.org/2000/svg"><path id="balsamiq-sans" class="f" d="M69 665q5 1 17 1t25 1 22 1q12 1 34 0 22 0 37-3t35-8 33-13q21-13 34-32t17-41-3-44-27-38q-7-6-17-10 16-20 21-45t-3-49q-8-25-28-42-30-26-91-31-32-3-88 1-3 0-6 1-7-4-15-2-10 1-16 9t-4 19q2 15 3 33t1 29q0 16 0 35t0 34q0 27 0 78 1 51 1 76-5 6-6 14 0 11 7 18t17 8m32-48q0-21-1-58t0-47l6 0q4 2 8 2 5 0 12 1 29 2 44 2 20 0 36-2 43 2 55 12 11 10 13 23t-5 28-22 22q-18 10-43 15t-50 3q-25 0-53-1m28-152q-8-1-28-4h-1q0-74-2-99 45-2 72 0 46 4 64 19 11 10 14 24t-3 30-19 22q-8 5-23 8h-3q-16-1-47-1-19 1-24 1m385 194q17-7 32-23v8q0 12 8 17t18 6 17-7 7-18q-1-16-1-39t0-46-1-39q-2-33-9-63 0-11-8-18 0 0-3-3l-7-7q-3-3-8-7t-9-6q-34-17-65-12t-57 26-44 53q-14 25-21 50t0 58 34 53q30 27 77 25 22-1 40-8m-22-45q-18 5-35 2t-28-12q-39-34 0-101 20-33 47-46t50 1q6 4 11 10 8 41 8 109-1 1-2 2-11 16-27 24t-24 11m214 29q1-44 1-96t0-115-1-98q0-13-8-19t-17-6-18 6-7 19q0 30 0 66t1 73 1 67q0 34-2 101-1 12 6 19t17 6 18-5 9-18m117 24q30 6 63-2 35-7 57-25 30-25 25-58-5-41-46-60-17-7-64-15-31-7-40-13-8-6-3-24 4-17 30-18 15-1 30 3t24 11q4 2 7 5l7 8q5 5 10 10 9 8 19 7t16-8 8-16-8-18q0 0-4-4t-10-10-10-9-6-5q-16-11-40-18t-45-5q-27 2-49 15t-28 41q-12 49 21 73 18 14 62 22 42 8 52 12 16 7 17 21 2 9-7 17-13 9-35 14-23 5-43 1-12-1-18-7-6-4-7-11-2-5-2-8 0-2-1-4-1-7-3-13-3-12-12-15t-19-1-15 11-2 19q1 3 2 8l2 11q4 17 12 28 16 23 53 30m333-8q17-7 32-23v8q0 12 8 17t18 6 17-7 7-18q-1-16-1-39t0-46-1-39q-2-33-9-63 0-11-8-18 0 0-3-3l-7-7q-3-3-8-7t-9-6q-34-17-65-12t-57 26-44 53q-14 25-21 50t0 58 34 53q30 27 77 25 22-1 40-8m-22-45q-18 5-35 2t-28-12q-39-34 0-101 20-33 47-46t50 1q6 4 11 10 8 41 8 109-1 1-2 2-11 16-27 24t-24 11m470 31q1 12 9 17t17 5 17-7 7-19q-1-4-2-13t-1-17 0-8v-28q0-12 0-29t0-35-2-34q-6-32-24-52-22-24-59-23-51 3-82 42-9-17-21-27-23-18-58-15-32 3-55 29 1-16-7-23t-17-6-18 7-8 15q0 21 1 47t1 52 1 46q0 16-1 72-1 12 6 19t17 6 18-5 9-18q2-53 0-153 3-2 5-5 12-17 24-24 12-8 28-9 15-2 23 4 7 6 11 20 1 4 3 14t2 16q0 4 0 12t0 10v25q0 33 2 89 0 13 8 19t18 5 17-6 7-19q-2-56-2-88 0-43-1-58 34-41 69-42 15 0 23 8t10 25q3 12 3 28t-1 32 0 29v29q0 1 0 10t2 17 1 14m110-2q0 12 8 18t17 6 18-7 7-18q-1-38 1-115 1-77 1-101 0-12-8-19t-17-6-18 6-7 19q0 24-1 102-2 77-1 115m47-328q-10-11-21-10t-20 10-10 20 9 22 22 9 19-10 10-19-9-22m298 425q5-136 3-248 1-4 0-8 0-24 0-56 0-10-8-17t-18-7q-8 0-15 5t-9 21l-1 0q-65-51-125-13-18 12-35 35t-25 51q-4 19-5 36t5 36q5 19 16 38 11 19 31 33t46 19q37 7 65-6 14-6 28-18-1 53-3 97 0 12 7 19t17 6 18-5 8-18m-131-124q-23-5-38-21t-19-37 4-42q12-40 39-54 30-15 71 10 13 9 17 13 2 2 6 6l5 6v68l-13 15q-8 10-18 19t-19 15q-13 6-35 2m433 56q35 0 65-14t50-37 19-57q0-34-24-56t-63-35q-30-10-48-18t-34-15q-17-10-25-19t-8-21q1-22 19-35t55-13q22 0 40 7t29 19q11 12 11 25 0 12 7 19t17 7q10 0 17-7t8-20q0-26-16-48t-45-36-66-14q-36 0-65 14t-44 38-16 48q0 55 61 86 22 10 71 27l16 5q25 8 39 18t15 26q0 25-21 41t-58 16q-76 0-83-65-1-10-8-15t-14-5q-11 0-19 7t-7 20q0 31 16 55t45 38q28 14 64 14m328-13q17-7 32-23v8q0 12 8 17t18 6 17-7 7-18q-1-16-1-39t0-46-1-39q-2-33-9-63 0-11-8-18 0 0-3-3l-7-7q-3-3-8-7t-9-6q-34-17-65-12t-57 26-44 53q-14 25-21 50t0 58 34 53q30 27 77 25 22-1 40-8m-22-45q-18 5-35 2t-28-12q-39-34 0-101 20-33 47-46t50 1q6 4 11 10 8 41 8 109-1 1-2 2-11 16-27 24t-24 11m193 53q10 0 17-7t8-18l-1-80-1-71q17-17 36-28t38-11q25 0 37 20t12 63q0 19-3 51-3 48-3 56 0 11 7 18t18 7q9 0 16-6t8-16l2-22 2-33q2-18 2-75 0-52-24-82t-66-31q-51 0-82 41v-16q0-12-8-19t-18-6q-10 0-17 6t-7 18q0 63 1 148 1 28 1 68 0 11 7 18t18 7m309 0q30 6 63-2 34-7 57-25 29-25 25-58-6-41-47-60-17-7-63-15-32-7-41-13-7-6-3-24 4-17 31-18 14-1 29 3t25 11q4 2 7 5l7 8q5 5 10 10 9 8 18 7t17-8 8-16-8-18q0 0-5-4t-10-10-10-9-5-5q-17-11-40-18t-46-5q-26 2-48 15t-29 41q-11 49 22 73 18 14 61 22 42 8 52 12 16 7 18 21 1 9-8 17-12 9-35 14-23 5-43 1-12-1-18-7-5-4-7-11-1-5-1-8-1-2-1-4-2-7-3-13-4-12-13-15t-18-1-15 11-2 19q1 3 2 8l2 11q3 17 11 28 17 23 54 30" />
</svg>