<svg id="fnt-Balthazar" viewBox="0 0 1829 1000" xmlns="http://www.w3.org/2000/svg"><path id="balthazar" class="f" d="M30 657l15-4 6-85v-105l-6-85-15-4 1-9q84-2 100-2 103 0 103 80 0 47-41 67 53 21 53 72t-31 69-100 18q-33 0-84-3l-1-9m61-131v42l4 67q22 3 37 3 68 0 68-57 0-30-18-44t-58-13q-3 0-33 2m4-130l-4 67v34q16 1 29 1 37 0 52-13 15-12 15-40 0-52-60-52-13 0-32 3m211 58h8l4 11q32-5 55-5 42 0 65 17t23 52l-1 49 4 75 17 4 0 9-62 5v-21q-30 24-60 24t-48-16-17-46 25-43 103-27v-13q0-20-11-31t-33-10-57 14l-2 19-8 0-5-67m115 116q-51 10-68 17t-17 24 11 25 30 10 42-22l2-54m103-195l0-10 65-5-5 94v124l4 76 15 3-1 10h-76l0-10 15-3 4-76v-124l-4-76-17-3m138 238l2-121-26 1v-17l26-9 27-50h8l3 50h51l-3 22-48 2v112q0 32 7 41t29 10h20l1 8q-19 12-46 12t-40-14-11-47m201 54h-84l-1-10 15-3 5-77v-123l-5-76-17-3 1-10 64-5-5 94v34q35-28 68-28t49 19 16 53v46l4 76 15 3 0 10h-83l0-11 21-2 5-76v-44q0-19-11-30t-34-10-50 20v63l5 77 22 2 0 11m177-213h8l5 11q32-5 54-5 43 0 65 17t23 52l-1 49 5 75 17 4-1 9-62 5v-21q-29 24-60 24t-48-16-17-46 25-43 104-27v-13q0-20-12-31t-33-10-56 14l-2 19-9 0-5-67m116 116q-52 10-69 17t-16 24 10 25 30 10 42-22l3-54m105-118h8l5 11 102 4 44-3 1 7-107 168h55l34-3 8-19 9 2-14 61h-10l1-11-102-5-40 5-2-8 107-169h-42l-41 5-2 18-9 1-5-64m207 2h8l5 11q32-5 54-5 43 0 65 17t23 52l-1 49 5 75 17 4-1 9-62 5v-21q-29 24-60 24t-48-16-17-46 25-43 104-27v-13q0-20-12-31t-33-10-56 14l-2 19-9 0-5-67m116 116q-52 10-69 17t-16 24 10 25 30 10 42-22l3-54m102-93l1-9 64-6-2 33q13-21 24-28t25-7 30 2l-3 58h-8l-4-21q-14-5-24-5t-18 5-23 20l-2 37v22l4 76 30 3 0 10h-91l-1-10 15-3 5-76v-22l-5-75-17-4" />
</svg>