<svg id="fnt-Bangers" viewBox="0 0 1558 1000" xmlns="http://www.w3.org/2000/svg"><path id="bangers" class="f" d="M34 669q-18 0-35-3 25-88 39-177t27-178q26-6 54-10t58-4q17 0 35 5t31 21 13 42q0 25-10 46t-27 36-33 21q7 4 17 13t16 24 7 36q0 30-18 54t-47 41q-28 16-61 24t-66 9m89-242q16-3 30-8t22-11 9-14q0-10-7-15t-18-8-20-3h-5q-3 20-6 35t-5 24m-25 141q10-1 22-4t23-8 18-14 7-21q0-12-8-19t-19-10-21-3h-4q-3 0-4 0-3 19-7 39t-7 40m246 98q1-9 2-17t2-16l3-28q0-7 1-13t1-11h-44l-20 72q-11 2-26 3t-28 4q-8 1-16 2t-15 2l39-131q7-24 16-54t18-61 18-60 13-46q34-3 69-6t69-10q-2 28-5 63t-4 73-3 74q-1 35-3 71t-3 76q-7 1-15 2t-15 2q-12 2-27 4t-27 5m8-260l-31 125q3 0 11 0t16-1 9-1q0-6 2-26t4-42q1-13 2-27t3-28l3-44-7 1-12 43m154 246l-73 17q15-72 29-139 11-64 21-122t15-108q4 1 6 1t5 0h11q13 0 29-1t29-1q4 17 7 34t6 33q2 14 5 29t6 30q3 15 5 27t5 24q6-30 11-58t11-52l14-67 61-7q-8 38-16 74t-14 71q-12 61-22 115t-14 94q5 0-2 1t-21 3-30 6-29 9q-1-20-3-39t-3-37q-3-32-7-64t-8-50q-4 22-9 50t-11 57l-14 70m262 27q-18 0-35-8t-29-25q-12-16-19-40t-7-58q0-64 18-112t47-80q28-32 60-48t61-15q27 0 44 11t25 32 8 43l-69 13q-4-20-12-28t-17-9q-11 0-23 12t-23 32-20 46-15 51-6 50q0 31 9 44t24 14q14 0 27-9t23-25 10-34l-53 8 9-49 46-6q19-3 40-6t38-7q-4 51-20 89t-40 64-51 37-50 13m304-37l-162 25 66-355 158-14q-4 11-6 23-3 9-5 19t-4 19q-6 0-18 0t-25 1-21 0-10 0l-17 90 29-2q5 0 11 0t11 0 10 0 7-1q-1 7-2 14t-1 14l-5 27q-2 1-6 1t-10 0q-5 0-11 0t-12 1q-6 0-13 0t-15 1l-17 92 73-12-5 57m88 4l-81 21 26-130q6-36 13-74t13-75 10-69q28-9 61-14t66-4q38 0 51 17t14 44q0 26-12 51t-31 47-42 33q9 20 19 43t19 46q5 12 10 25t11 25l-78 27-18-60q-7-25-14-49t-7-32l-6 2q-2 8-4 17t-3 20-4 21-4 21l-9 47m52-275l-16 79q9-1 22-8t27-16 22-21 9-18q0-10-12-14t-30-3h-11q-3 1-6 1t-5 0m172 297q-20 0-40-11t-38-34l37-73q5 10 16 18t23 14 20 5q13 0 25-8t12-22q0-17-16-32t-36-28q-20-14-36-32t-16-41q0-26 15-48t39-39 51-26 52-9q17 0 32 5t24 19 9 35q0 4 0 7t-1 7-1 7-1 8l-73 21q1-4 2-8t1-8q0-15-6-22t-13-6q-5 0-13 4t-16 13-6 19q0 16 13 27t32 22q9 5 19 15t18 29 8 47q0 37-18 65t-49 44-69 16" />
</svg>