<svg id="fnt-Barlow" viewBox="0 0 1472 1000" xmlns="http://www.w3.org/2000/svg"><path id="barlow" class="f" d="M223 484q-3 2 0 3 27 11 41 33t14 52q0 45-29 70t-76 25h-121q-5 0-5-5v-340q0-5 5-5h118q48 0 76 24t28 67q0 28-14 47t-37 29m-138-136q-2 0-2 2v120q0 2 2 2h85q31 0 50-17t19-44q0-29-19-46t-50-17h-85m88 287q32 0 50-18t19-48-19-49-52-18h-86q-2 0-2 2v129q0 2 2 2h88m265-225q45 0 70 23t24 61v168q0 5-5 5h-25q-5 0-5-5v-21q0-1-1-1t-2 0q-12 15-32 23t-45 8q-35 0-59-18t-24-55q0-38 27-60t76-21h58q2 0 2-2v-19q0-26-15-41t-44-14q-24 0-39 9t-18 26q-2 5-6 4l-27-3q-6-1-5-4 4-28 30-46t65-17m-14 230q30 0 51-15t22-39v-39q0-2-2-2h-53q-33 0-53 13t-20 38q0 22 15 33t40 11m284-229q17 0 29 7 4 2 3 6l-6 25q-1 5-6 3-9-4-20-4l-6 1q-26 1-43 19t-17 46v148q0 5-5 5h-26q-5 0-5-5v-243q0-5 5-5h26q5 0 5 5v30q0 2 0 2t2-1q10-18 26-29t38-10m85 256q-5 0-5-5v-340q0-5 5-5h26q5 0 5 5v340q0 5-5 5h-26m207 4q-36 0-62-19t-36-51q-7-23-7-61t7-61q9-32 35-51t63-18q36 0 61 18t36 50q7 22 7 62 0 40-7 61-10 33-36 51t-61 19m0-31q24 0 41-14t23-35q4-18 4-51 0-33-4-50-6-23-23-36t-42-13-41 13-23 36q-4 17-4 50t4 51q5 22 22 35t43 14m218 27q-4 0-5-4l-71-244-1-1q0-4 5-4h26q5 0 6 4l53 197q0 1 1 1t1-1l54-197q1-4 6-4h24q4 0 5 4l55 197q0 1 1 1t2-1l54-197q1-4 6-4l26 0q2 0 3 2t1 4l-72 243q-1 4-5 4h-27q-4 0-5-4l-55-187q0-1-1-1t-1 1l-53 187q-2 4-6 4h-27" />
</svg>