<svg id="fnt-Barlow Semi Condensed" viewBox="0 0 4600 1000" xmlns="http://www.w3.org/2000/svg"><path id="barlow-semi-condensed" class="f" d="M193 484q-2 1 0 3 24 11 36 33t14 52q0 45-27 70t-71 25h-98q-5 0-5-5v-340q0-5 5-5h94q46 0 72 23t26 68q0 28-12 47t-34 29m-114-136q-2 0-2 2v120q0 2 2 2h63q29 0 45-16t17-45q0-29-17-46t-45-17h-63m65 287q29 0 46-18t17-49q0-31-17-49t-47-18h-64q-2 0-2 2v130q0 2 2 2h65m240-225q40 0 62 23t23 61v168q0 5-5 5h-25q-5 0-5-5v-18q0-1-1-2t-2 1q-11 14-28 21t-38 7q-31 0-54-17t-22-56q0-40 26-61t70-20h47q2 0 2-2v-19q0-26-13-41t-38-14q-19 0-32 9t-16 26q0 5-5 5l-28-2q-2 0-4-1t0-4q3-29 27-47t59-17m-12 230q25 0 43-14t19-38v-41q0-2-2-2h-44q-29 0-46 13t-17 38q0 22 13 33t34 11m256-229q15 0 25 6 4 2 3 6l-6 26q-1 5-6 3-8-3-18-3l-6 0q-22 1-36 19t-15 45v149q0 5-5 5h-25q-5 0-5-5v-243q0-5 5-5h25q5 0 5 5v32q0 2 1 2t1-1q9-19 23-30t34-11m74 256q-5 0-5-5v-340q0-5 5-5h25q5 0 5 5v340q0 5-5 5h-25m184 4q-36 0-60-20t-28-53q-3-25-3-58t3-57q4-33 28-53t60-20 60 20 29 53q3 20 3 57 0 38-3 58-5 33-29 53t-60 20m0-31q22 0 36-14t18-35q2-18 2-51 0-33-2-51-2-22-17-35t-37-13-36 13-18 35q-2 18-2 51t2 51q3 22 17 35t37 14m193 27q-4 0-5-5l-62-243 0-2q0-3 4-3h25q5 0 6 4l45 192q0 2 1 2t1-2l45-192q1-4 6-4h23q5 0 5 4l47 192q0 1 1 1t1-1l45-192q1-4 6-4l25 0q3 0 4 2t0 4l-62 242q-1 5-6 5h-26q-4 0-5-5l-46-185q0-1-1-1t-1 1l-44 185q-1 5-6 5h-26m464 4q-47 0-75-25t-28-66v-14q0-5 5-5h25q5 0 5 5v12q0 28 19 45t50 17q30 0 47-16t17-42q0-17-8-30t-24-23-44-26q-31-17-49-29t-29-31-11-44q0-40 26-63t70-23q46 0 74 25t27 68v11q0 5-5 5h-25q-5 0-5-5v-11q0-28-18-45t-49-17q-28 0-44 14t-16 41q0 17 8 29t21 21 44 25q34 19 52 32t29 31 11 42q0 42-27 67t-73 25m244-31q19 0 33-10t20-26q1-5 6-4l23 5q2 0 3 2t0 4q-8 28-31 44t-54 16q-37 0-60-20t-28-52q-2-12-3-29t0-29 0-15q0-26 2-42 4-33 27-54t60-20q39 0 63 22t27 58q1 16 1 60 0 5-5 5h-138q-2 0-2 2 0 16 1 35 3 21 17 34t38 14m-1-199q-23 0-37 13t-17 35q-1 21-1 35 0 2 2 2h106q2 0 2-2 0-15-2-35-3-21-17-35t-36-13m380-31q34 0 53 22t19 62v168q0 5-5 5h-25q-5 0-5-5v-163q0-27-13-42t-35-16q-22 0-36 15t-14 42v164q0 5-5 5h-25q-5 0-5-5v-163q0-27-14-42t-34-16q-23 0-36 15t-14 42v164q0 5-5 5h-25q-5 0-5-5v-243q0-5 5-5h25q5 0 5 5v17q0 1 1 1t2 0q10-14 25-20t33-7q22 0 39 10t25 28q1 3 2 0 10-19 28-29t39-9m162-42q-12 0-20-8t-8-20q0-13 8-21t20-7q12 0 20 7t8 21q0 12-8 20t-20 8m-13 299q-5 0-5-5v-243q0-5 5-5h25q5 0 5 5v243q0 5-5 5h-25m304 4q-45 0-73-27t-28-72v-161q0-45 28-72t73-26q46 0 74 26t28 71v4q0 5-5 5l-26 1q-5 0-5-4v-7q0-29-18-47t-48-18-47 17-18 48v166q0 29 18 47t47 18 48-18 18-47v-7q0-5 5-5l26 2q5 0 5 5v3q0 44-28 71t-74 27m247 0q-36 0-60-20t-28-53q-3-25-3-58t3-57q4-33 28-53t60-20 60 20 29 53q3 20 3 57 0 38-3 58-5 33-29 53t-60 20m0-31q22 0 36-14t18-35q2-18 2-51 0-33-2-51-2-22-17-35t-37-13-36 13-18 35q-2 18-2 51t2 51q3 22 17 35t37 14m253-230q35 0 55 22t21 61v169q0 5-5 5h-26q-5 0-5-5v-164q0-26-13-41t-37-16-38 16-14 42v163q0 5-5 5h-26q-5 0-5-5v-243q0-5 5-5h26q5 0 5 5v19q0 1 0 2t2-1q20-29 60-29m278-88q0-5 5-5h25q5 0 5 5v340q0 5-5 5h-25q-5 0-5-5v-20q0-2-1-2t-2 1q-18 30-58 30-31 0-50-17t-28-53q-6-28-6-58 0-35 5-60 8-37 28-55t54-18q21 0 34 7t21 22q1 2 2 1t1-1v-117m-9 281q8-22 8-63 0-41-8-64-6-17-17-26t-27-9q-33 0-47 34-9 25-9 65t8 63q6 18 17 28t31 9q17 0 28-9t16-28m200 37q19 0 32-10t20-26q2-5 6-4l23 5q3 0 3 2t1 4q-9 28-31 44t-55 16q-36 0-59-20t-29-52q-2-12-2-29t-1-29 0-15q0-26 2-42 4-33 28-54t60-20q38 0 62 22t27 58q2 16 2 60 0 5-5 5h-138q-2 0-2 2 0 16 1 35 2 21 17 34t38 14m-2-199q-22 0-37 13t-16 35q-1 21-1 35 0 2 2 2h105q2 0 2-2 0-15-2-35-2-21-17-35t-36-13m249-31q35 0 55 22t21 61v169q0 5-5 5h-26q-5 0-5-5v-164q0-26-13-41t-37-16-38 16-14 42v163q0 5-5 5h-26q-5 0-5-5v-243q0-5 5-5h26q5 0 5 5v19q0 1 0 2t2-1q20-29 60-29m218 259q-39 0-62-18t-24-48v-4q0-5 5-5h25q5 0 5 5v3q0 16 14 28t37 12q22 0 35-12t14-29q0-12-8-21t-18-13-31-12q-23-8-39-16t-26-22-11-36q0-32 23-51t59-19q38 0 61 20t23 50v1q0 5-5 5h-23q-5 0-5-5v-2q0-17-14-29t-37-11q-21 0-35 11t-13 28q0 17 13 26t42 19q25 8 41 16t27 22 11 37q0 32-23 51t-61 19m225-29q19 0 32-10t20-26q2-5 6-4l23 5q3 0 3 2t1 4q-9 28-31 44t-55 16q-36 0-59-20t-29-52q-2-12-2-29t-1-29 0-15q0-26 2-42 4-33 28-54t60-20q38 0 62 22t27 58q2 16 2 60 0 5-5 5h-138q-2 0-2 2 0 16 1 35 2 21 17 34t38 14m-2-199q-22 0-37 13t-16 35q-1 21-1 35 0 2 2 2h105q2 0 2-2 0-15-2-35-2-21-17-35t-36-13m288-119q0-5 5-5h25q5 0 5 5v340q0 5-5 5h-25q-5 0-5-5v-20q0-2-1-2t-2 1q-18 30-58 30-31 0-50-17t-28-53q-6-28-6-58 0-35 5-60 8-37 28-55t54-18q21 0 34 7t21 22q1 2 2 1t1-1v-117m-9 281q8-22 8-63 0-41-8-64-6-17-17-26t-27-9q-33 0-47 34-9 25-9 65t8 63q6 18 17 28t31 9q17 0 28-9t16-28" />
</svg>