<svg id="fnt-Basic" viewBox="0 0 1076 1000" xmlns="http://www.w3.org/2000/svg"><path id="basic" class="f" d="M39 667v-332h122q19 0 36 5t29 16 19 27 7 36q0 11-4 22t-10 20-16 17-19 10q11 2 22 9t19 17 15 24 5 31q0 23-7 41t-21 31-34 19-48 7h-115m55-42h54q14 0 25-3t18-9 12-17 5-26q0-15-5-26t-11-17-18-9-22-2h-58v109m0-146h69q17-5 25-20t8-39q0-21-12-32t-34-12h-56v103m207 116q0-20 5-34t18-23 27-14 37-6l55-2v-20q0-13-2-22t-8-13-14-8-23-2-25 3-20 7q-11 4-19 9-6-8-9-15t-5-12q-2-7-3-12 12-6 25-11 12-4 27-7t32-3q28 0 47 5t29 15 15 25 4 35v136l21 25v16h-46l-18-22h-9q-1 1-7 5t-13 9-19 9-22 4q-18 0-33-6t-25-16-17-24-5-31m53-4q0 11 3 19t9 11 14 7 18 1q9 0 17-2t15-5q7-3 13-8v-66l-49 4q-12 0-19 4t-13 8-6 12-2 15m194 64q0-5 1-12 1-5 2-13t5-15q11 5 23 8 10 2 21 5t24 2q10 0 19-1t15-4 10-10 4-18q0-15-9-23t-31-13q-23-4-38-11t-26-17-13-22-5-26q0-20 7-34t19-24 31-13 43-4q17 0 30 3t22 5q10 3 18 7-1 5-3 12-2 5-4 12t-8 14q-7-4-15-7-7-3-18-5t-23-2q-10 0-19 1t-15 4-10 11-3 19q0 6 2 10t6 9 13 7 23 7q23 5 38 11t24 15 13 21 3 29q0 18-5 32t-18 25-31 16-45 6q-17 0-31-3t-24-6q-12-3-22-8m264-280q-7 0-13-3t-10-6-8-10-2-12q0-6 2-12t8-10 10-6 13-2 13 2 11 6 7 10 2 12q0 7-2 12t-7 10-11 6-13 3m-28 250v-208h51v209l14 10v31h-14l0-1v1q-24 0-38-10t-13-32m112-84q0-32 8-56t23-41 37-26 49-8q11 0 21 2t19 4q10 3 19 6 0 7-2 14-1 7-3 14t-6 15q-7-3-14-5-7-2-16-4t-18-2q-16 0-28 6t-20 18-12 27-4 36q0 44 17 67t50 23q10 0 18-2t16-4q8-2 15-5 3 5 5 12 2 5 3 13t1 15q-9 3-19 6-8 2-19 4t-20 2q-58 0-89-33t-31-98" />
</svg>