<svg id="fnt-Baskervville" viewBox="0 0 2635 1000" xmlns="http://www.w3.org/2000/svg"><path id="baskervville" class="f" d="M94 667l-74 1v-12l10-1q18-2 27-6t13-14 3-35v-222q0-25-3-35t-13-14-27-5l-10-1v-13l74 2h61q14 0 32 1t36 4 34 13 25 24 10 39q0 23-11 40t-27 27-33 17q24 2 45 11t34 27 13 51q0 29-11 48t-30 31-42 17-47 5h-89m76-341h-56v147h66q31 0 48-20t18-60q0-28-9-43t-26-19-41-5m-15 327h28q25 0 44-7t29-26 10-54q0-34-11-51t-35-22-60-6h-46v115q0 30 10 40t31 11m269 19q-24 0-40-12t-16-34 20-40 45-31q20-11 39-19t34-13v-16q0-28-11-41t-38-14q-14 0-27 4t-13 13q0 2 1 4t1 5q3 7 3 14 0 9-7 14t-16 6q-9 0-15-7t-6-16q0-18 13-29t34-16 39-4q40 0 58 18t19 61v90q0 22 3 34t15 12q7 0 13-6t7-12l9 4q-4 14-14 23t-28 8q-22 0-31-13t-9-33q-14 22-35 34t-47 12m-17-49q0 14 8 22t25 9q14 0 27-7t24-18 15-23v-73q-17 7-34 16t-32 21-24 24-9 29m287 49q-19 0-32-4t-21-8q-8-4-10-4t-3 2-3 9h-11l2-33 1-43h11l1 9q1 14 9 28t23 23 33 10q21 0 33-11t13-29q0-16-13-27t-35-19l-18-7q-26-10-40-25t-13-39q0-20 9-34t25-22 33-8q12 0 21 3t15 6q5 2 8 2 5 0 8-10l11 0-2 33v35h-11q-4-24-16-41t-36-17q-17 0-28 10t-11 27q0 15 11 25t33 19l19 7q31 12 42 28t12 39q0 26-18 46t-52 20m156-5l-61 1v-11l8-1q14-2 22-5t11-13 3-32v-244q0-26-11-33t-30-7h-3v-12q20 0 39-1t40-5v268l74-89q6-8 6-14 0-7-12-9l-8-1v-11l48 1 42-1v11l-8 1q-22 3-38 14t-27 25l-29 35 85 95q7 8 16 17t18 10l8 1v11l-55-1-95-107-25 31v15q0 23 3 32t10 13 23 5l8 1v11l-62-1m315 5q-33 0-57-14t-39-40-13-57q0-35 15-63t40-43 56-15q38 0 60 24t22 65q0 6-1 10t-1 5h-151q0 7 0 14 0 27 8 49t26 37 42 13q24 0 42-13t28-39l12 4q-21 63-89 63m2-220q-31 0-49 22t-21 59h64q22 0 34-6t16-13 4-15q0-22-15-34t-33-13m180 215l-61 1v-11l8-1q14-2 22-5t11-13 3-32v-104q0-19-6-28t-15-12-23-2v-11q20 0 39-2t40-4l-6 57h2q11-33 27-47t35-13q21 0 28 10t7 20q0 11-7 18t-17 7q-11 0-16-5t-6-12q0-5 1-9t2-7q0-5-7-5t-15 6-13 18q-5 10-9 21t-6 25v79q0 23 3 32t10 13 23 5l8 1v11l-62-1m274 0h-19l-81-180q-5-10-11-17t-20-9l-9-1v-11l52 1 51-1v11l-8 1q-11 2-16 5t-4 11q0 5 4 15l63 139 58-137q5-10 5-17 0-13-23-16l-9-1v-11l45 1 42-1v11l-11 2q-14 2-22 10t-15 27l-72 168m254 0h-19l-82-180q-4-10-11-17t-19-9l-9-1v-11l51 1 51-1v11l-8 1q-11 2-15 5t-5 11q0 5 4 15l63 139 59-137q4-10 4-17 0-13-23-16l-8-1v-11l45 1 42-1v11l-12 2q-14 2-21 10t-15 27l-72 168m195 0l-61 1v-11l8-1q14-2 22-5t11-13 3-32v-105q0-26-11-34t-30-7h-3v-11q20 0 39-2t40-4v163q0 23 3 32t10 13 23 5l8 1v11l-62-1m-6-283q-13 0-20-9t-8-21q0-13 8-22t20-9q15 0 21 9t7 22q0 12-7 21t-21 9m142 283l-62 1v-11l8-1q15-2 22-5t11-13 3-32v-244q0-26-11-33t-29-7h-4v-12q21 0 40-1t39-5v302q0 23 3 32t11 13 22 5l8 1v11l-61-1m138 0l-62 1v-11l8-1q15-2 22-5t11-13 3-32v-244q0-26-11-33t-29-7h-4v-12q21 0 40-1t39-5v302q0 23 3 32t11 13 22 5l8 1v11l-61-1m201 5q-33 0-58-14t-38-40-14-57q0-35 15-63t40-43 56-15q39 0 60 24t22 65q0 6 0 10t-1 5h-151q-1 7-1 14 0 27 9 49t25 37 43 13q23 0 41-13t29-39l12 4q-21 63-89 63m1-220q-31 0-48 22t-21 59h63q23 0 34-6t16-13 5-15q0-22-15-34t-34-13" />
</svg>