<svg id="fnt-Battambang" viewBox="0 0 2876 1000" xmlns="http://www.w3.org/2000/svg"><path id="battambang" class="f" d="M188 667h-168v-31l40-7v-280l-40-7v-31h153q56 0 87 24t32 72q0 24-16 43t-39 27q22 5 37 18 32 26 32 71 0 49-32 75t-86 26m-15-318h-65v113h78q25 0 41-15t16-41q0-28-18-43t-52-14m23 151h-88v129h80q33 0 51-16t19-46q0-21-7-36-7-15-21-23t-34-8m230 172q-41 0-62-20t-22-57q0-26 14-44 14-19 40-29t62-10h47v-26q0-24-14-37t-41-14q-17 0-29 4t-22 12l-5 36h-37v-60q36-29 94-29 48 0 75 23t27 65v127q0 6 1 10t0 10l26 3v31h-69q-4-20-5-37-14 18-35 30t-45 12m7-41q24 0 44-11t28-28v-47h-48q-34 0-50 15t-17 36q0 35 43 35m277 40q-29 0-46-17t-17-55v-161h-42v-36h42v-63h48v63h57v36h-57v161q0 19 7 28t21 9q8 0 19-2t16-3l7 32q-11 3-26 5t-29 3m179 0q-30 0-47-17t-17-55v-161h-42v-36h42v-63h48v63h57v36h-57v161q0 19 8 28t20 9q8 0 19-2t16-3l7 32q-11 3-26 5t-28 3m170 1q-41 0-63-20t-21-57q0-26 14-44 13-19 40-29t62-10h47v-26q0-24-14-37t-41-14q-17 0-29 4t-22 12l-5 36h-37v-60q35-29 93-29 49 0 76 23t27 65v127q0 6 0 10t1 10l26 3v31h-69q-5-20-6-37-13 18-34 30t-45 12m7-41q24 0 44-11t28-28v-47h-49q-33 0-49 15t-17 36q0 35 43 35m272-160v158l40 7v31h-128v-31l40-7v-189l-40-7v-31h83l3 35q13-19 33-29t46-10 46 12 28 36q12-22 33-35t48-13q40 0 64 27t23 84v120l40 7v31h-128v-31l40-7v-121q0-39-14-55t-39-16q-25 0-41 17t-17 45v130l39 7v31h-127v-31l39-7v-121q0-37-13-54t-40-17q-22 0-36 9t-22 25m535 201q-51 0-77-39l-4 34h-42v-343l-39-7v-31h88v148q12-18 30-27t44-9q33 0 55 17 24 18 36 50t12 74v6q0 37-12 66-13 29-36 45t-55 16m-12-39q34 0 50-24t17-64v-6q0-30-8-53-7-23-22-36t-38-13q-22 0-37 10t-24 29v117q9 18 24 29t38 11m237 39q-42 0-63-20t-22-57q0-26 14-44 14-19 40-29t63-10h47v-26q0-24-15-37t-41-14q-16 0-28 4t-23 12l-5 36h-37v-60q36-29 94-29 48 0 76 23t27 65v127q0 6 0 10t1 10l25 3v31h-69q-4-20-5-37-14 18-35 30t-44 12m7-41q24 0 43-11t29-28v-47h-49q-33 0-50 15t-16 36q0 35 43 35m271-157v155l40 7v31h-127v-31l39-7v-189l-39-7v-31h82l4 40q13-21 33-33t45-11q43 0 66 25t24 77v129l40 7v31h-128v-31l40-7v-128q0-35-14-50t-42-14q-21 0-37 10t-26 27m426-72h73v31l-33 7v223q0 35-12 59-13 25-38 38t-60 13q-19 0-41-5t-39-14l13-38q13 8 31 12t36 5q32 0 47-18t15-52v-25q-26 34-72 34-33 0-56-16-23-16-36-45t-13-66v-6q0-43 13-74 13-32 36-50t56-17q49 0 75 38l5-34m-8 193v-122q-9-17-24-26t-36-10q-23 0-38 13-15 13-23 36t-7 53v6q0 39 16 64t52 24q21 0 36-10t24-28" />
</svg>