<svg id="fnt-Baumans" viewBox="0 0 1905 1000" xmlns="http://www.w3.org/2000/svg"><path id="baumans" class="f" d="M79 429v238h-46v-239q0-51 33-84t82-32q54 0 81 27t28 67q0 50-47 72v2q64 19 64 90 0 97-114 97h-63v-44h62q35 0 51-14t16-45q0-27-18-42t-46-14h-50v-42h32q27 0 46-15t20-39q0-24-15-40t-48-16q-30 0-49 18t-19 55m381 97v45q-19-15-46-15-24 0-37 9t-13 27q0 33 49 33h66v-96q0-60-59-60h-80v-42h83q48 0 74 24t26 69v147h-111q-43 0-68-19t-25-56 27-55 66-19q23 0 48 8m317-99v240h-86q-56 0-80-17-21-14-27-35t-6-53v-135h44v135q0 9 1 15t3 16 9 16 16 11 25 5h57v-198h44m65 240v-240h221q35 0 56 13 22 14 28 35t7 52v140h-44v-140q0-39-23-52-12-6-49-6h-20v198h-44v-198h-88v198h-44m506-141v45q-19-15-47-15-23 0-36 9t-13 27q0 33 49 33h66v-96q0-60-59-60h-80v-42h82q49 0 75 24t26 69v147h-112q-42 0-67-19t-25-56 26-55 67-19q22 0 48 8m120 141v-240h87q55 0 79 16 22 15 27 35t6 53v136h-44v-135q0-9 0-16t-4-16-8-16-16-11-26-4h-57v198h-44m337-240h89v42h-89q-14 0-25 5t-10 16q0 6 2 10t6 8 10 6 10 5 32 10 42 15 20 16 10 20 2 20q0 67-92 67h-87v-42h87q47 0 47-25 0-12-14-20t-34-14-39-13-34-23-13-40q0-31 23-47t57-16" />
</svg>