<svg id="fnt-Be Vietnam Pro" viewBox="0 0 3704 1000" xmlns="http://www.w3.org/2000/svg"><path id="be-vietnam-pro" class="f" d="M186 667h-146v-370h143q35 0 60 12t39 34 14 47q0 27-10 44t-23 26-20 12v3q12 3 28 13t27 28 12 47q0 25-13 49t-39 39-72 16m-5-328h-92v118h92q24 0 38-8t22-23 7-28q0-15-7-28t-22-22-38-9m4 158h-96v127h96q27 0 44-9t24-24 8-31-8-30-24-24-44-9m308 175q-33 0-57-12t-39-32-22-44-8-50q0-25 7-49t23-45 38-32 56-11q34 0 60 15t41 46 15 77v14h-192q2 22 11 41t26 30 41 11q20 0 33-7t20-15 10-16 3-7h45t-3 9-9 21-19 25-32 22-48 9m-77-160h144q-1-26-11-43t-25-24-33-8q-32 0-52 20t-23 55m543 155h-62l-130-370h52l109 314 110-314h52l-131 370m212-316q-14 0-23-9t-8-21q0-13 8-22t23-9q13 0 22 9t9 22q0 12-9 21t-22 9m24 316h-48v-265h48v265m197 5q-32 0-56-12t-39-32-23-44-7-50q0-25 7-49t22-45 39-32 55-11q34 0 60 15t41 46 15 77v14h-191q1 22 10 41t27 30 40 11q21 0 33-7t21-15 10-16 3-7h44t-2 9-9 21-19 25-32 22-49 9m-77-160h145q-1-26-11-43t-26-24-33-8q-31 0-51 20t-24 55m364 160q-41 0-62-21t-21-59v-151h-47v-39h47v-67h48v67h64v39h-64v151q0 20 11 29t32 9q11 0 21-1t10-2v41t-12 2-27 2m149-5h-48v-265h48v38h3q3-6 11-16t24-19 39-8q29 0 50 13t31 36 11 50v171h-48v-168q0-26-15-44t-42-17q-23 0-37 11t-21 29-6 39v150m354-270q25 0 42 8t27 18 16 21h3v-42h48v265h-48v-42h-3q-5 9-16 20t-27 19-42 8q-30 0-53-12t-37-32-23-44-7-50 7-50 23-44 37-32 53-11m8 40q-27 0-45 14t-27 37-8 46q0 24 8 46t27 37 45 14 44-14 26-37 9-46q0-24-9-46t-26-37-44-14m245 230h-47v-265h47v38h2q4-7 13-18t23-18 37-7q30 0 50 14t30 38h1q11-22 31-37t53-15q43 0 66 29t23 75v166h-47v-163q0-30-14-48t-41-18q-23 0-37 12t-19 31-6 37v149h-48v-163q0-30-14-48t-40-18q-23 0-37 12t-20 31-6 37v149m568 0h-49v-370h132q43 0 71 17t42 45 15 58q0 31-15 58t-42 46-71 18h-83v128m83-327h-83v156h83q27 0 44-12t26-29 9-37-9-38-26-29-44-11m233 327h-48v-265h48v33h2q8-15 25-27t46-11q9 0 16 0t7 1v46t-8-1-16-1q-35 0-54 20t-18 64v141m254 5q-43 0-72-20t-44-51-15-67q0-35 15-67t44-51 72-19 71 19 44 51 15 67q0 35-15 67t-44 51-71 20m0-42q27 0 45-14t27-35 10-47q0-25-10-47t-27-35-45-14q-27 0-45 14t-28 35-9 47q0 25 9 47t28 35 45 14" />
</svg>