<svg id="fnt-Bebas Neue" viewBox="0 0 1818 1000" xmlns="http://www.w3.org/2000/svg"><path id="bebas-neue" class="f" d="M21 667v-350h83q42 0 62 19t19 61v14q0 27-9 44t-26 25v1q41 14 41 73v30q0 40-22 61t-62 22h-86m55-208h21q17 0 25-8t8-29v-19q0-19-7-28t-21-8h-26v92m0 158h31q15 0 22-8t7-27v-30q0-24-9-34t-27-9h-24v108m147 50v-350h150v50h-95v92h75v50h-75v108h95v50h-150m181 0v-350h83q43 0 62 19t20 61v14q0 27-9 44t-27 25v1q41 14 41 73v30q0 40-21 61t-62 22h-87m55-208h22q16 0 24-8t9-29v-19q0-19-7-28t-21-8h-27v92m0 158h32q14 0 21-8t7-27v-30q0-24-8-34t-27-9h-25v108m133 50l57-350h74l57 350h-55l-10-70v1h-62l-10 69h-51m67-116h50l-25-173h-1l-24 173m218 121q-40 0-61-23t-20-65v-20h52v24q0 34 28 34 14 0 21-9t8-26q0-22-10-39t-37-40q-34-30-48-55t-13-54q0-42 21-65t61-22q39 0 59 22t21 66v14h-52v-18q0-18-7-26t-21-8q-27 0-27 33 0 19 10 36t37 40q35 30 48 54t13 58q0 43-22 66t-61 23m194-5v-350h69l54 209h1v-209h49v350h-57l-66-256h-1v256h-49m214 0v-350h150v50h-95v92h75v50h-75v108h95v50h-150m261 5q-40 0-61-23t-21-65v-267h55v271q0 18 7 26t21 8 21-8 7-26v-271h53v267q0 42-21 65t-61 23m121-5v-350h150v50h-95v92h76v50h-76v108h95v50h-150" />
</svg>