<svg id="fnt-Belanosima" viewBox="0 0 2385 1000" xmlns="http://www.w3.org/2000/svg"><path id="belanosima" class="f" d="M31 335q0-11 10-11h99q21 0 44 4t41 13 31 26 12 44q0 24-10 42t-29 31q-1 0-2 1t-1 2q0 1 1 1t2 2q25 12 42 30t16 49q0 28-11 47t-31 30-43 16-48 5h-113q-10 0-10-11 0-13 0-27t1-28q0-54 0-109 0-52 0-103-1-14-1-27t0-27m63 132h56q14 0 26-4t21-14 8-25q0-17-10-26t-24-12-28-3h-50q1 21 1 42t0 42m-1 143h60q10 0 22-2t24-6 18-13 7-22q0-14-8-22t-20-12-26-6-23-1h-53q0 21 0 42t-1 42m345 63q-36 0-63-15t-41-40-14-62q0-33 13-60t40-42 59-16q43 0 67 24t32 63q0 1 0 2 0 4-1 6t-5 3q-8 4-18 7t-18 6q-25 10-51 19t-52 19q-1 1-1 3 0 0 0 1 10 18 27 27t36 8q16 0 29-5t26-12q2-1 4-2t3 0q4 0 6 2t3 4q1 2 3 8t6 12 2 8q0 2-1 4t-4 3q-17 12-42 18t-45 7m-62-119q25-9 50-17t49-18q-6-13-17-23t-27-10q-19 0-31 10t-18 26-6 32m196-229q0-10 10-10h39q10 0 10 10 0 41 0 83t-1 83 1 83 0 83q0 10-10 10h-39q-10 0-10-10 0-42 1-83t0-83 0-83-1-83m195 346q-32 0-53-15t-32-40-11-54v-4q0-31 12-58t36-44 57-17q20 0 38 8t33 21q2 2 3 2 3 0 3-6t2-13 9-6h35q10 0 10 10 0 11 0 21t-1 21q0 27 1 54t0 54q1 13 1 26t0 25q0 11-10 11h-38q-7 0-8-5t-2-10 0-10q0-1 0-3t-2-1q-1 0-2 0t-1 2q-17 14-37 23t-43 8m25-52q17 0 32-7t23-23q1-1 2-5t2-5q0-8 0-17t0-17q0-4 0-8t0-9q0-1-2-5t-2-5q-9-15-24-23t-33-7q-18 0-32 9t-21 24-8 32 8 33 23 24 32 9m177-174h32q9 0 10 9 1 5 2 10t1 10q0 0 0 2t2 3 2-2 2-2q14-19 35-27t45-8q19 0 35 8t25 22 10 35q0 37 1 75t1 76q0 11-10 11h-38q-10 0-10-10-1-11-1-21t0-22q0-22 0-44t0-45q0-17-10-26t-27-8q-21 0-34 12t-20 32-6 36q0 21 0 43t-1 43q0 10-10 10h-38q-10 0-10-11 0-13 0-27t1-27q0-57 0-114v-33q0-10 11-10m240 112q0-34 15-61t40-42 61-15q33 0 59 15t39 42 14 59q0 34-14 60t-39 41-60 15q-35 0-60-14t-40-40-15-60m114-69q-18 0-31 10t-18 25-7 33q0 15 7 30t19 24 30 9q18 0 31-9t18-24 6-32q0-17-6-32t-18-24-31-10m197 185q-14 0-29-5t-25-16q-3-2-3-6 0-1 2-7t3-13 3-8q1-3 2-6t6-2q4 0 14 6t23 6q22 0 22-22 0-14-9-19t-19-11q-21-11-31-27t-11-39q0-30 17-47t48-17q3 0 11 1t16 3 14 6 6 8q0 5-2 10t-3 10q-1 4-3 7t-6 2q-5 0-11-2t-12-3q-10 0-17 6t-7 15q0 12 7 18t17 11 21 12 17 20 7 34q0 32-17 53t-51 22m103-311q0-13 10-23t23-10q14 0 24 10t10 24q0 13-9 23t-24 10q-14 0-24-10t-10-24m3 147v-54q0-10 10-10h38q10 0 10 10 0 51 0 101t0 101q0 10-10 10h-38q-10 0-10-10 0-37 0-74t0-74m120-64h34q8 0 9 9 1 2 1 8t2 11 2 5q1 0 2-1t2-2q16-19 37-27t45-9q20 0 39 8t28 27q1 0 1 1t2 2q1 0 1-1t2-1q15-17 35-26t42-9q30 0 52 16t21 49q0 25 1 51t1 51q0 13 1 25t0 24q0 11-10 11h-38q-5 0-7-3t-3-7q-1-10 0-21t-1-21q0-22 0-44t-1-44q0-17-8-26t-26-10q-20 0-34 12t-22 31-7 36q0 22 0 43t0 44q0 10-10 10h-38q-10 0-10-10 0-33 0-65t0-65q0-16-8-26t-25-10q-21 0-35 12t-21 31-8 37q-1 15-1 30t-1 30q0 6 1 13t-1 13q0 5-3 7t-7 3h-38q-10 0-10-11 0-13 0-25t1-25q2-54 2-107 0-10-1-22t0-22q1-10 10-10m494 226q-32 0-53-15t-32-40-11-54v-4q0-31 13-58t35-44 57-17q21 0 38 8t33 21q2 2 3 2 3 0 3-6t2-13 9-6h35q10 0 10 10 0 11 0 21t0 21q0 27 0 54t1 54q0 13 0 26t1 25q0 11-10 11h-39q-6 0-8-5t-2-10 0-10q0-1 0-3t-2-1q-1 0-2 0t-1 2q-17 14-37 23t-43 8m25-52q17 0 32-7t23-23q1-1 3-5t1-5q0-8 0-17t0-17q0-4 0-8t0-9q0-1-2-5t-2-5q-8-15-24-23t-33-7q-18 0-32 9t-21 24-8 32 8 33 23 24 32 9" />
</svg>