<svg id="fnt-Bellefair" viewBox="0 0 1509 1000" xmlns="http://www.w3.org/2000/svg"><path id="bellefair" class="f" d="M201 658q-13 5-30 7t-46 2h-82q6-2 14-12t7-37v-248q0-26-7-36t-14-11h82q32 0 49 2t29 9q22 10 34 29t12 41q0 34-20 58t-53 31q22 3 42 13t33 29 13 41q0 32-17 52t-46 30m-14-300q-10-8-21-12t-31-3h-35v142h41q18 0 30-6t21-14q9-10 15-23t5-28q0-17-6-32t-19-24m11 161q-10-7-24-11t-38-3h-36v142h48q36 0 56-17t20-54q0-35-26-57m205 154q-27 0-47-14t-30-34-10-45q0-31 12-54t32-34 41-11q30 0 51 21t24 61h-130q0 24 9 42t24 28 34 10q47 0 63-30-4 27-24 43t-49 17m-6-176q-19 0-33 14t-17 36h91q0-23-13-37t-28-13m139-138q0-21-7-29t-15-7h-3l57-26v320q0 22 5 33t10 14 5 3h-72q0 1 6-3t10-15 4-32v-258m112 0q0-21-7-29t-15-7h-3l57-26v320q0 22 5 33t10 14 5 3h-72q0 1 6-3t10-15 4-32v-258m179 314q-27 0-47-14t-30-34-10-45q0-31 12-54t32-34 41-11q30 0 51 21t24 61h-130q0 24 9 42t24 28 34 10q47 0 63-30-4 27-24 43t-49 17m-6-176q-19 0-33 14t-17 36h91q0-23-13-37t-28-13m267-157q-9-9-22-14t-26-5q-25 0-36 17t-12 46v101h52v20h-52v112q0 21 5 32t10 15 5 3h-72q0 1 5-3t11-15 4-32v-112h-28v-20h28v-70q0-35 12-62t33-41 49-15q21 0 34 4v39m131 333q-16-1-27-9t-13-18q-9 13-24 20t-29 7q-23 0-38-14t-16-34q0-56 104-56v-5q0-28-8-41-11-18-36-18-19 0-32 11t-13 30q-3-5-5-9t-1-11q0-18 17-32t44-13q39 0 56 26 5 8 8 20t2 31v60q0 15 9 24t25 8h6l-29 23m-43-89q-40 0-54 10t-14 27q0 14 8 22t20 8q9 0 18-4t14-13q8-10 8-28v-22m112-43q0-21-7-29t-15-7l54-24v136q0 22 5 33t10 14 5 3h-72q0 1 6-3t10-14 4-33v-76m16-121q-11 0-18-7t-6-17 6-17 18-7 17 7 6 17-6 17-17 7m128 106q8-16 25-31t35-14q11 0 16 3v41q-11-14-31-14-21 0-33 18t-12 47v41q0 28 7 38t12 12h-70q6-1 12-12t7-38v-76q0-21-7-29t-15-7l54-24v45" />
</svg>