<svg id="fnt-Bellota" viewBox="0 0 1566 1000" xmlns="http://www.w3.org/2000/svg"><path id="bellota" class="f" d="M75 347q-10 0-15 1t-8 5q-3 3-5 8t-2 10l-28 0q1-24 15-38 8-7 18-10t26-4h110q28 0 51 11t36 32 14 48q0 25-11 43t-27 24q-1 0-3 1t-12 5q3 1 7 2t9 3q25 11 39 34t14 54q0 49-37 72t-102 24q-42 0-62-3l-27-3v-319m97 297q101 0 101-69 0-35-24-56t-60-20h-48v-27h44q33 0 52-17t20-46q0-29-18-45t-46-17h-88v295l49 2 18 0m292 28q-38 0-64-16t-39-43-13-61q0-34 12-66t39-53 63-20q24 0 45 9t33 27 13 41q0 37-32 57t-87 20l-55-1q5 39 26 59t59 20q22 0 41-7t38-19l15 20q-19 15-44 24t-50 9m-23-131q82 0 82-52 0-25-18-37t-42-12q-28 0-47 16t-29 39-9 46h63m202 84q0 7 5 11t11 5q10 0 15-8l22 16q-4 9-14 14t-23 6q-20 0-33-12t-13-33v-320h30v321m127 0q0 7 4 11t12 5q10 0 14-8l22 16q-4 9-14 14t-22 6q-20 0-33-12t-13-33v-320h30v321m194 47q-36 0-64-17t-43-46-15-67 15-67 44-47 63-16q35 0 63 16t43 47 16 67-16 67-43 46-63 17m0-27q42 0 67-29t25-74q0-31-11-54t-33-36-48-13q-27 0-48 13t-33 36-11 54 11 53 33 37 48 13m247 27q-34 0-50-20t-16-57v-241h30v64h79v27h-79v150q0 50 36 50 29 0 44-31l23 16q-12 21-28 31t-39 11m196 0q-34 0-59-18t-37-46-12-64q0-39 15-69t43-46 65-16q12 0 29 1t31 3h30v207q0 10 5 15t12 5q9 0 14-8l22 17q-8 10-17 14t-21 5q-18 0-31-12t-13-29q-12 20-32 30t-44 11m1-27q22 0 40-11t27-29q7-15 7-32v-131l-33-1-29-1q-45 0-68 28t-23 75q0 42 20 72t59 30" />
</svg>