<svg id="fnt-Bellota Text" viewBox="0 0 2507 1000" xmlns="http://www.w3.org/2000/svg"><path id="bellota-text" class="f" d="M224 488q25 15 39 37t14 49q0 31-18 56t-49 35q-22 7-59 7-53 0-75-3l-26-3v-347h110q23 0 41 7 29 10 44 32t16 52q0 23-9 40t-29 27q-5 3-15 6 13 3 16 5m-57-141h-87v125h80q32 0 51-17t20-47q0-28-17-43t-47-18m-11 297q43 0 67-18t24-52q0-33-22-54t-62-21h-83v143l43 1 33 1m195-92q1 35 17 64t66 29q22 0 40-5t40-18l13 21q-20 13-45 21t-50 8q-52 0-82-34t-29-88q0-36 13-67t39-51 60-19q29 0 52 13t38 38 14 53q0 8-1 14t-1 11l-1 10h-183m2-27h153q1-3 1-10 0-21-10-38t-27-27-38-10q-30 0-52 22t-27 63m244 142v-363h30v363h-30m110 0v-363h30v363h-30m215 5q-35 0-63-17t-43-46-16-67 16-67 43-47 64-16q35 0 62 16t44 47 16 67-16 67-44 46-63 17m1-27q41 0 66-29t26-74q0-31-12-54t-32-36-48-13q-28 0-49 13t-32 36-12 54 12 53 32 37 49 13m252 29q-36 0-54-19t-17-60v-241h30v63h78v27h-78v151q0 31 11 41t30 11q10 0 17-2t16-6l13 23q-18 12-46 12m267-3q-9-8-15-17t-11-23q-10 19-30 30t-47 11q-40 0-64-21t-23-57q0-38 26-59t76-21h58v-18q0-30-13-45t-40-14q-20 0-41 7t-37 20l-14-22q19-16 43-24t50-8q40 0 61 20t21 60v105q0 38 20 59l-20 17m-103-26q34 0 53-19t20-48v-37h-51q-42 0-61 12t-18 40q0 25 15 38t42 14m416 22v-314h-117v-28h264v28h-117v314h-30m170-115q0 35 17 64t66 29q21 0 39-5t40-18l13 21q-20 13-44 21t-50 8q-53 0-82-34t-29-88q0-36 13-67t38-51 60-19q29 0 53 13t37 38 14 53q0 8 0 14t-1 11l-1 10h-183m1-27h154q0-3 0-10 0-21-10-38t-27-27-37-10q-31 0-53 22t-27 63m413 151q-14 0-24-5t-18-16l-56-91-64 103h-33l79-125-80-125h34l64 103 63-103h33l-77 124 61 99q5 8 17 8l1 28m121-2q-36 0-54-19t-18-60v-241h30v63h79v27h-79v151q0 31 12 41t29 11q11 0 18-2t15-6l14 23q-19 12-46 12" />
</svg>