<svg id="fnt-Belleza" viewBox="0 0 1458 1000" xmlns="http://www.w3.org/2000/svg"><path id="belleza" class="f" d="M149 667h-104v-331h95q36 0 64 8t45 25 16 45-19 48-54 30q48 9 70 32t22 50q0 25-13 43t-34 29-45 16-43 5m-55-303v123h36q33 0 51-10t26-27 8-34q0-19-13-36t-43-26q-14 0-33 3t-32 7m45 285q23 0 44-8t33-23 13-40q0-21-13-39t-35-27-49-10h-38v142q7 2 20 4t25 1m305 24q-31 0-56-13t-39-38-14-61q0-42 16-70t42-42 56-14q23 0 42 12t31 36 12 61h-159q0 39 12 61t32 31 41 9q20 0 35-4t27-9v17q-15 9-35 16t-43 8m-67-144h117q-2-23-10-37t-20-21-22-10-19-3q-17 8-30 27t-16 44m259 138h-42v-342h42v342m117 0h-42v-342h42v342m159 6q-31 0-56-13t-38-38-14-61q0-42 16-70t42-42 55-14q24 0 43 12t31 36 12 61h-160q0 39 12 61t32 31 42 9q19 0 34-4t28-9v17q-16 9-36 16t-43 8m-67-144h117q-1-23-10-37t-19-21-23-10-18-3q-17 8-30 27t-17 44m388 138h-185v-15l133-195-123 5-5-21h174v14l-133 194 134-6 5 24m224-13l-26 19-41-36q-18 16-35 26t-38 10-37-14-16-38q0-20 13-33t33-21 41-12 39-5v-47q0-42-48-42-13 0-29 3t-36 9l-5-12q6-5 19-11t30-11 34-4q29 0 44 8t22 21 8 26 2 25v85q0 17 4 28t11 17 11 9m-121-4q12-3 24-10t21-15 9-11v-52q-38 3-60 16t-22 30 8 26 20 16" />
</svg>