<svg id="fnt-Bentham" viewBox="0 0 1860 1000" xmlns="http://www.w3.org/2000/svg"><path id="bentham" class="f" d="M115 366v133l32-2q16-1 27-8t14-17 6-19 2-20q0-19-10-38t-27-27q-7-3-18-3-4 0-13 0t-13 1m147 222q0 13-6 26t-18 26-34 20-51 8q-3 0-19 0t-45-1-63 0v-8l9-1q9-1 18-5t11-10q0-24 0-94t0-102q0-51 0-70-1-5-16-9l-15-5v-8q29 0 71 0t54 0q18 0 37 9t32 27 13 41q0 1 0 1 0 26-18 48t-50 23q90 8 90 84m-116-76l-32 0 0 121q0 17 5 21t17 4q41 0 59-16t18-50q0-73-67-80m212 41l88 0q1-8 1-16 0-15-3-24-4-16-16-26t-29-10q-18 0-28 21t-13 55m132 7l-132 1v10q0 36 13 64t37 28q29 0 45-16t23-35l14 10q-8 18-29 36t-55 17q-41 0-69-26t-27-75q0-29 9-51t25-33 32-17 34-5q26 0 49 14t29 46q2 10 2 20 0 5 0 12m47-75v-8q4 0 9 0 27 0 58-10l3 49q31-47 66-48 17 0 30 6t20 13 12 19 6 20 2 20v100q0 5 12 9t20 4v8q-49-2-61-2-25 0-44 2v-8q10-1 21-5t12-8q0 0 0-99 0-27-9-43t-29-17q-16 0-34 15t-25 37v109q0 8 35 11v8q-20-2-54-2-31 0-50 2v-8q9 0 20-4t10-9q1-30 1-78 0-47-1-77-9-5-30-6m409-20l-3 13h-51t0 133q0 21 6 34t18 12q13 0 21-10t16-31l11 6q-5 11-8 18t-10 14-15 12-23 4q-29 0-44-17-7-7-10-20t-2-40v-115h-41v-6q11 0 28-7t23-14q7-8 13-24t6-30h12q-2 15-2 47 0 4 0 11t0 11l55-1m58-100v-8h0q40 0 71-11l-1 171q8-12 12-17t12-14 19-13 24-5q18 0 31 9t21 20 10 24 3 20q0 14 0 50t0 46q0 11 0 12 0 4 7 6t11 3 15 1v8q-20-2-52-2-34 0-53 2v-8q3-1 7-1t9 0 8-2 6-3 2-4q0 0 0 0v-117q0-45-33-45-20 0-32 9t-27 33v120q0 4 6 7t14 2 14 1v8q-22-2-54-2-31 0-50 2v-8q9 0 20-3t11-7q0-18 1-76t1-91q0-70-2-107-3-4-8-6t-9-2-14-2m466 261l8 5q-7 39-47 39-17 0-25-11t-10-26q-10 11-15 16t-19 13-29 9q-24 0-41-14t-18-43q0-13 6-23t15-16 20-10 24-6 23-2 20 0 12-1q2 0 2-36 0-46-43-46-15 0-23 6t-11 15q14 0 14 22 0 13-9 19t-17 5q-9 0-16-8t-8-19q0-18 23-35 19-14 51-14 31 0 55 19t24 51q0 16-1 45t-1 42q0 32 15 32 9 0 13-6t8-22m-76-5v-58q-17 2-31 3t-25 6-16 12-6 25q0 21 10 30t27 10q25 0 41-28m243-153q50 0 61 48 10-16 17-24t19-16 28-8q64 0 64 78v100q0 6 6 9t15 3 12 1v8q-14-2-46-2-33 0-59 2v-8q32-3 32-10 1 0 1-112 0-27-8-38t-26-12q-14 0-26 9t-19 19l-6 9v125q0 3 12 6t22 4v8q-21-2-53-2-36 0-57 2v-8q32-2 32-10v-112q0-28-6-39t-24-11q-12 0-28 14t-23 33v115q0 8 34 10v8q-28-2-59-2-28 0-45 2v-8q8 0 19-1t12-9q2-65 2-102 0-41-2-62 0-6-18-6-6 0-13 1v-8q5 0 11 0 30 0 55-10l6 52q4-6 8-12t10-13 11-10 13-8 16-3" />
</svg>