<svg id="fnt-Besley" viewBox="0 0 1615 1000" xmlns="http://www.w3.org/2000/svg"><path id="besley" class="f" d="M219 639h-86q-7 0-9-1t-3-8v-130q0-8 2-11t11-2h85q21 0 40 8t29 25 11 42-11 42-29 26-40 9m-5-180h-80q-8 0-10-1t-3-9v-119q0-6 2-8t7-3h84q19 0 36 7t28 23 11 40-11 40-28 23-36 7m-185 208h195q40 0 69-11t45-34 16-60q0-36-19-57t-53-30q-5-1-5-3t5-4q28-8 42-27t15-52-16-54-43-32-66-11h-187q-5 0-6 1t-2 7v10q0 6 2 8t8 1h34q7 0 9 2t2 8v303q0 5-3 6t-7 1h-36q-5 0-7 2t-2 7v11q0 5 2 7t8 1m367-125q0 35 14 64t39 48 64 18q32 0 54-11t36-31 21-45q1-2 0-4t-5-1h-14q-4 0-5 2t-2 4q-10 28-30 44t-49 17q-26 0-42-14t-23-38-7-52q0-4 2-5t6-2h161q5 0 7-1t2-6q0-18-4-36t-11-34-20-30-31-20-43-7q-40 0-67 18t-39 50-14 72m172-27h-113q-5 0-6-2t-1-5q0-19 7-39t23-32 38-13q16 0 27 8t18 23 11 28 3 28q0 2-1 3t-6 1m271-31q2 4 2 6t7 2h14q4 0 5-1t2-6v-76q0-7-7-7h-11q-5 0-6 1t-3 4l-6 20q-2 7-3 6t-5-5q-10-11-27-19t-42-8q-21 0-39 8t-28 25-11 40q0 26 12 42t28 24 38 14 37 10 29 15 11 26q0 19-14 30t-40 12q-21 0-36-7t-26-20-17-33q-1-3-2-5t-6-2h-15q-4 0-6 2t-1 6v77q0 4 1 5t5 2h12q4 0 6-2t3-4l6-18q1-5 4-5t6 3q11 10 30 19t43 8 45-10 32-28 12-44q0-25-12-40t-29-22-38-14-38-11-29-16-12-27q0-16 11-25t31-10q25 0 47 15t30 43m68-180h28q5 0 7 2t2 7v318q0 6-1 7t-7 1h-31q-4 0-5 2t-1 7v10q0 6 2 7t8 2h113q7 0 9-2t3-8v-11q0-4-2-6t-5-1h-30q-7 0-8-2t0-9v-342q0-7-3-8t-8-1h-69q-5 0-7 1t-3 6v10q0 5 1 8t7 2m153 238q0 35 14 64t39 48 64 18q32 0 54-11t36-31 21-45q1-2 0-4t-5-1h-14q-4 0-5 2t-2 4q-10 28-30 44t-49 17q-26 0-42-14t-23-38-7-52q0-4 2-5t6-2h161q5 0 7-1t2-6q0-18-4-36t-11-34-20-30-31-20-43-7q-40 0-67 18t-39 50-14 72m172-27h-113q-5 0-6-2t-1-5q0-19 7-39t23-32 38-13q16 0 27 8t18 23 11 28 3 28q0 2-1 3t-6 1m77 217q0 17 7 32t21 24 33 9q15 0 31-6t33-24 29-49l108-273q3-6 4-9t10-2h21q6 0 7-2t1-8v-11q0-5-2-5t-6-1h-90q-6 0-8 1t-2 9v8q0 5 1 7t7 2h18q8 0 9 2t0 7l-58 147q-4 9-5 13t-4 5q-2 0-4-4t-5-11l-68-151q-2-6-1-7t10-1h23q8 0 9-2t2-9v-6q0-7-2-9t-7-1h-120q-3 0-5 0t-1 5v14q0 5 1 7t7 1h22q7 0 9 2t4 6l98 217q4 8 4 12t-3 11l-6 15q-12 30-24 46t-25 22-22 7q-12 0-20-7t-7-15q0-4 2-7t5-4 7-4 5-6 2-9q0-12-7-18t-18-6q-8 0-15 4t-11 13-4 19" />
</svg>