<svg id="fnt-Big Shoulders Inline Display" viewBox="0 0 4048 1000" xmlns="http://www.w3.org/2000/svg"><path id="big-shoulders-inline-display" class="f" d="M87 667h-61v-400h60q20 0 35 5t23 20 8 42q0 15 0 29t0 27-1 23q-1 18-7 31t-21 20v2q14 6 21 20t9 34q0 7 1 17t0 21-1 23 0 22q-2 25-10 39t-22 19-34 6m-54-394v388h54q27 0 42-12t17-46q1-11 1-27t0-31-1-24q-1-21-8-35t-24-20v-2q17-7 23-20t8-31q0-10 1-22t0-27-1-30q0-24-7-38t-20-18-32-5h-53m54 382h-47v-376h46q17 0 28 4t18 17 7 34q0 20 0 34t0 25-1 20q-1 19-8 33t-27 19v0q19 6 27 20t10 36q0 8 0 23t0 31-1 28q-1 30-14 41t-38 11m-41-371v178h37q22 0 34-10t15-39q0-9 0-21t0-25 0-33q0-30-12-40t-34-10h-40m37 172h-30v-166h33q18 0 28 9t11 35q1 20 1 34t0 25-1 20q-1 26-12 35t-30 8m-23-160v155h23q16 0 25-8t10-30q1-14 1-33t0-46q-1-24-10-31t-23-7h-26m-14 172v181h41q22 0 33-10t13-36q0-11 1-27t0-31-1-24q-2-30-14-41t-35-12h-38m41 175h-34v-169h31q18 0 29 9t14 39q0 8 0 23t0 30-1 28q-1 24-11 32t-28 8m-27-163v157h27q15 0 24-7t9-27q0-20 0-36t0-27 0-18q-2-25-11-34t-25-8h-24m174-207h-33v-6h33v6m0 23h-33v-6h33v6m0-12h-33v-5h33v5m0 383h-6v-300h6v300m-26 0h-7v-300h7v300m13 0h-6v-300h6v300m129 81q-32 0-51-12t-20-38q0-3 0-6t0-6q1-13 10-23t20-12v-1q-12-4-16-11t-5-16q0-2 0-4t0-4q1-10 7-18t17-12v-2q-11-4-19-16t-8-31q-1-14-1-27t0-26 0-27 1-31q1-33 16-48t49-14q24 0 35 7t15 21h2q4-9 12-14t16-8 16-2v5q-19 0-31 9t-14 20h-1q-4-16-14-24t-36-8q-31 0-44 13t-15 43q0 19-1 36t0 34 1 41q1 21 9 33t23 14v2q-15 4-22 11t-7 19q-1 2-1 4t1 4q0 9 5 16t20 11v1q-15 3-24 12t-10 23q-1 3-1 6t0 6q1 26 19 35t47 10q31 0 48-10t20-35q0-3 0-6t0-6q-2-25-19-33t-48-10q-15 0-23-3t-13-7-4-10q-1-2-1-4t0-4q2-12 10-18t30-5q28 0 43-12t16-44q1-20 1-36t0-34-1-40q0-17 9-28t28-10v6q-16-1-23 8t-8 28q1 20 1 37t0 33-1 36q-2 33-17 47t-48 14q-14 0-21 3t-10 6-3 10q0 1 0 3t0 3q1 5 4 8t11 5 20 3q35 1 53 11t20 37q0 4 0 6t0 6q-2 27-21 38t-53 12m0-15q18 0 31-3t18-11 7-21q1-3 0-6t0-6q-1-14-8-20t-18-10-29-3q-26-2-40 6t-16 27q0 3 0 6t0 7q1 20 15 27t40 7m0-5q-23 0-36-6t-14-23q0-3 0-7t0-6q2-19 15-24t37-5q14 1 25 3t17 8 7 18q0 4 0 7t0 6q-2 18-15 24t-36 5m0-5q13 0 22-2t16-6 6-16q1-4 1-7t-1-6q0-11-6-15t-15-7-22-2q-20-1-32 4t-13 20q0 3 0 6t0 7q1 16 13 20t31 4m0 15q-28 0-44-8t-17-32q0-3 0-6t1-6q1-16 10-24t28-11v-1q-16-3-22-10t-7-17q-1-2-1-4t0-4q1-11 10-20t25-10v-2q-17-3-26-14t-9-34q-1-16-1-33t0-36 1-41q1-29 14-40t38-11q24 0 35 9t14 29h1q3-11 9-19t15-12 22-4v6q-21 0-33 11t-10 34q0 20 1 38t0 36-1 33q-2 30-15 41t-38 11q-14-1-23 3t-16 10-6 14q0 3 0 5t0 4q2 11 11 17t35 7q19 1 32 5t21 11 8 23q1 3 1 6t0 6q-2 23-18 32t-45 8m0-158q23 0 34-10t12-35q1-15 1-33t0-36-1-40q0-26-12-36t-34-10q-23 0-34 10t-12 36q-1 29-1 57t1 52q1 25 12 35t34 10m0-5q-19 0-28-9t-11-31q-1-25-1-54t1-55q1-23 10-32t29-8q21 0 30 8t10 32q1 19 1 38t0 37-1 33q-1 23-11 32t-29 9m0-6q17 0 25-8t8-27q1-16 1-34t0-37-1-37q-1-20-8-28t-25-7q-16 0-24 8t-8 27q-1 27-1 55t1 53q0 21 8 28t24 7m286 101q-32 0-49-14t-17-52q-1-14-1-28t1-27 1-27h6q0 13-1 26t0 26 1 30q1 34 15 47t44 14q29 0 43-14t15-47q1-12 1-22t0-21 0-27q-1-35-12-51t-32-22l-27-7q-9-2-15-7t-10-15-3-32q0-13 0-33t0-38q0-25 10-34t30-9q19 0 28 9t9 35q0 12 0 32t0 43h-7q1-22 1-43t-1-32q0-22-7-31t-23-8q-18 0-26 9t-7 30q0 21-1 39t0 31q1 19 3 28t8 14 13 6l26 7q26 6 37 24t12 55q1 12 1 22t0 22-1 26q-1 37-17 51t-48 15m0-11q-26 0-39-12t-14-43q0-15 0-29t0-27 1-26h6q0 12-1 24t0 26 1 32q1 27 12 38t34 11 34-11 11-38q1-13 1-23t0-21-1-25q0-21-4-34t-11-18-18-9l-27-7q-13-3-22-10t-12-20-4-36q-1-9-1-22t0-27 1-23q0-31 13-43t40-12q26 0 38 13t12 42q1 12 1 33t-1 43h-7q1-21 1-42t0-33q-1-27-11-39t-33-11q-24 0-35 11t-12 38q0 17 0 37t0 34q1 22 4 34t11 18 18 9l27 7q20 4 29 19t10 48q0 12 0 23t0 21 0 25q-1 29-13 42t-39 13m0-11q-20 0-30-10t-10-35q0-15 0-29t0-26 1-26h6q0 14 0 27t0 25 0 29q1 21 8 30t25 9q17 0 24-9t8-30q0-14 1-23t0-20-1-25q0-19-3-28t-8-14-12-6l-28-7q-16-4-26-12t-16-25-6-42q0-15 0-35t1-38q0-33 15-49t51-16q31 0 47 15t17 51q0 11 0 33t-1 43h-6q0-22 0-43t0-33q-1-33-15-47t-42-13q-32 0-45 14t-15 46q0 20 0 38t0 34q1 24 5 39t14 22 24 12l27 7q9 2 16 7t9 15 4 32q0 14 0 24t0 20 0 24q-1 24-10 35t-29 10m244 19h-6v-238q0-19-5-33t-15-20-30-7q-18 0-31 8t-21 24h-1l3-62v-72h6v52l-4 71h1q8-13 20-20t28-7q22 0 34 8t16 22 5 35v239m-125 0h-7v-400h7v400m26 0h-7v-233q0-12 5-23t15-17 25-6q20 0 28 11t7 32v236h-7v-236q0-17-6-27t-23-11q-13 0-21 6t-12 15-4 19v234m-13 0h-7v-400h7v98l-2 52h2q6-20 20-31t34-11q27 0 36 15t9 39v238h-7v-237q0-24-8-36t-32-13q-18 0-29 8t-17 21-6 24v233m227 3q-33 0-48-15t-17-50q-1-31-1-60t0-58 1-59q2-36 18-50t47-15q34 0 49 16t16 49q2 47 2 90t-2 88q-1 35-17 50t-48 14m0-5q28 0 42-13t16-46q2-45 2-87t-2-91q-1-30-14-45t-44-14q-29 0-43 14t-15 46q-1 27-1 55t0 59 1 63q1 33 16 46t42 13m0-6q-26 0-38-13t-13-42q-1-27-2-56t0-59 2-60q1-30 13-42t38-13q25 0 38 12t14 42q1 30 1 59t0 59-1 58q-1 30-14 43t-38 12m0-6q22 0 33-11t12-38q2-38 2-82t-2-93q-1-27-12-38t-33-11q-22 0-33 11t-12 38q-1 26-1 54t0 59 1 62q1 28 12 39t33 10m0-5q-18 0-28-10t-10-34q-1-30-2-58t0-58 2-58q1-24 10-34t28-10q18 0 28 9t11 34q1 44 1 88t-1 87q-1 24-11 34t-28 10m0-6q16 0 24-9t8-29q1-40 1-83t-1-91q-1-22-9-30t-23-9q-16 0-23 9t-9 30q-1 29-1 57t0 56 1 61q1 22 9 30t23 8m169 28q-15 0-25-4t-16-11-9-15-4-17 0-17v-239h6v237q0 10 2 21t6 19 15 15 27 5q18 0 31-8t20-24h2l-3 29v6h-7l0-3 5-20h-2q-8 12-20 19t-28 7m78-3h-7v-300h7v300m-71-21q-12 0-19-4t-10-10-5-14-1-16v-235h7v235q0 10 2 18t8 14 19 6q12 0 20-6t12-14 4-20v-233h7v233q0 11-5 22t-14 17-25 7m-3 12q-25 0-35-14t-10-40v-237h6v236q0 23 9 36t32 13q17 0 29-8t17-20 6-25v-232h7v300h-7v-16l2-35h-2q-6 18-20 30t-34 12m162 9h-7v-400h7v400m-27 0h-6v-400h6v400m13 0h-6v-400h6v400m198-400v400h-6v-400h6m-13 0v400h-6l1-56h-2q-3 21-17 35t-36 13q-23 0-34-13t-12-42q-1-27-2-55t0-58 2-62q1-26 13-40t37-14q21 0 34 13t15 32h2l-2-59v-94h7m-57 387q16 0 27-8t16-19 6-25q1-29 1-58t0-57-1-56q-1-13-5-24t-15-19-27-8q-22 0-33 13t-12 36q-1 32-1 60t0 56 1 59q1 24 11 37t32 13m1-6q-19 0-28-12t-9-32q-1-31-1-60t0-58 1-57q1-21 11-32t28-11q22 0 30 14t9 31q1 27 2 55t0 57-2 59q0 19-10 32t-31 14m0-6q18 0 26-12t9-28q1-30 1-59t0-57-1-55q-1-16-8-28t-25-12q-15 0-24 10t-9 28q-1 44-1 86t1 89q1 18 8 28t23 10m-7 28q-28 0-41-16t-15-50q-2-27-2-56t0-58 2-61q1-33 16-49t43-17q14 0 26 6t18 18h2l-6-69v-51h7v69l4 64h-2q-6-15-18-23t-29-8q-28 0-41 16t-14 44q-1 29-2 58t0 58 2 59q2 30 13 45t38 16q18 0 32-10t19-24h2l-2 36h-7l1-4 1-16h-1q-7 11-19 17t-27 6m192 0q-32 0-48-13t-17-48q0-18-1-41t0-49 0-50 1-44q2-33 16-47t49-15q31 0 46 14t16 47q1 6 1 17t0 24 0 29-1 33h-95q0 14 0 28t1 27 0 25q1 20 8 27t24 8q16 0 22-7t7-27q1-8 1-20t-1-24h6q1 13 1 25t0 19q-1 23-9 31t-27 9q-20 0-29-9t-9-31q-1-11-1-26t0-31 0-30h95q0-15 0-30t1-27-1-23 0-17q-2-31-15-43t-41-12q-31 0-44 13t-14 43q-1 21-1 45t0 49 0 48 1 42q1 31 15 43t43 13q29 0 42-13t14-43q0-5 0-13t0-16-1-16h7q1 11 1 23t-1 22q-1 33-15 47t-47 14m0-11q-27 0-39-11t-12-39q-1-20-1-45t-1-49 1-48 1-41q1-29 13-40t38-12q24 0 36 11t13 39q1 8 1 21t0 32-1 39h-95q0 26 0 47t1 45q0 25 10 35t35 10q22 0 32-9t11-35q0-9 0-21t-1-24h7q0 12 0 24t0 21q-1 28-12 39t-37 11m-46-149h89q0-18 0-35t0-30 0-21q-1-25-12-34t-31-10q-23 0-33 10t-12 36q0 15-1 38t0 46m82-6h-75q0-11 0-24t0-26 1-28q1-23 9-32t29-8q19 0 27 8t9 31q0 6 0 18t1 27-1 34m-69-5h63q0-16 0-31t0-26-1-17q-1-19-7-27t-22-7q-17 0-24 8t-8 27q0 11 0 23t0 24-1 26m164 168h-7v-300h6v16l-1 34h2q6-19 20-29t34-10q5 0 11 0t8 0v6q-3 0-9 0t-11 0q-18 0-30 8t-18 19-5 23v233m-14 0h-6v-300h6v300m27 0h-7v-233q0-18 11-31t34-13q5 0 11 0t11 0v6q-5 0-11 0t-11 0q-20 0-29 11t-9 26v234m-9-266h-2l4-28v-6h7v2l-5 21h1q7-12 20-18t28-6q3 0 7 0t9 1v5q-4 0-8 0t-8 0q-18 0-31 7t-22 22m159 269q-31 0-45-14t-15-47q0-11 0-23t0-22h6q0 10 0 23t0 22q1 30 14 43t40 13q30 0 43-14t13-41q0-6 0-12t0-11 0-12q0-29-10-43t-33-22l-18-6q-11-4-17-9t-9-15-4-27q0-7 0-13t0-15q1-21 9-30t27-9q18 0 26 8t9 31q0 7 0 18t0 26h-6q0-13 0-24t0-20q-1-19-8-26t-21-8q-15 0-22 8t-7 26q-1 8-1 13t1 15q0 16 3 25t7 12 15 8l18 7q14 5 25 13t17 21 6 36q0 7 0 12t0 11 0 12q-2 31-15 45t-48 15m0-11q-26 0-36-12t-12-38q0-11 0-21t1-24h6q-1 13-1 25t1 20q0 24 10 34t31 10q24 0 33-10t10-33q1-10 1-18t0-17q0-25-9-36t-25-18l-19-6q-14-5-22-12t-12-18-5-32q0-9 0-15t0-13q1-26 12-39t37-12q25 0 36 12t11 38q0 9 1 20t-1 25h-6q1-15 0-26t0-19q-1-24-10-34t-31-10q-23 0-32 11t-10 34q0 8 0 13t0 15q1 20 4 31t11 15 19 10l18 7q20 7 30 19t9 40q0 10 0 18t0 17q-1 25-12 37t-38 12m0-11q-18 0-26-9t-9-31q0-9-1-21t1-23h6q-1 10-1 21t1 23q0 18 7 26t22 8q16 0 23-8t7-24q1-10 1-17t0-18q0-21-7-30t-18-13l-19-7q-15-5-26-13t-16-21-6-38q0-10 0-16t0-12q1-33 15-47t47-15q31 0 45 14t15 47q0 9 0 21t-1 24h-6q1-11 1-23t-1-22q-1-30-13-42t-40-13q-30 0-42 13t-13 43q0 8 0 13t0 15q1 22 5 35t14 20 24 12l19 7q17 5 23 16t6 32q0 5 0 11t0 11 0 13q-1 19-9 29t-28 9m244 19h-6v-400h6v400m-26 0h-7v-400h7v400m13 0h-6v-400h6v400m199 0h-6v-238q0-10-2-20t-6-20-15-14-27-6q-18 0-31 8t-20 24h-2l3-34h7v3l-4 20h1q7-13 19-20t29-7q16 0 26 5t16 11 8 16 4 18 0 15v239m-125 0h-7v-300h7v300m27 0h-7v-233q0-12 5-23t14-17 25-6q12 0 19 3t10 10 5 15 1 15v236h-7v-236q0-8-1-17t-8-15-20-6q-12 0-20 6t-12 15-4 19v234m-14 0h-7v-300h7l-1 50h1q6-19 20-31t34-11q26 0 35 14t10 40v238h-6v-237q0-23-9-36t-32-13q-17 0-29 8t-17 21-6 24v233m199 0h-7v-400h7v400m-27 0h-6v-400h6v400m14 0h-7v-400h7v400m101-394h-33v-6h33v6m0 23h-33v-6h33v6m0-12h-33v-5h33v5m0 383h-7v-300h7v300m-27 0h-6v-300h6v300m14 0h-7v-300h7v300m200 0h-7v-238q0-10-1-20t-7-20-15-14-27-6q-17 0-30 8t-21 24h-2l3-34h7v3l-4 20h1q8-13 20-20t28-7q16 0 26 5t16 11 9 16 3 18 1 15v239m-126 0h-6v-300h6v300m27 0h-7v-233q0-12 5-23t14-17 25-6q12 0 19 3t11 10 4 15 1 15v236h-6v-236q0-8-2-17t-8-15-20-6q-12 0-20 6t-12 15-4 19v234m-13 0h-7v-300h6l-1 50h2q6-19 19-31t35-11q25 0 35 14t10 40v238h-7v-237q0-23-8-36t-32-13q-18 0-30 8t-17 21-5 24v233m226 3q-32 0-48-13t-17-48q0-18 0-41t-1-49 1-50 1-44q1-33 16-47t48-15q31 0 46 14t17 47q0 6 0 17t0 24 0 29-1 33h-95q0 14 1 28t0 27 1 25q0 20 7 27t24 8q16 0 22-7t7-27q1-8 1-20t-1-24h7q0 13 0 25t0 19q-1 23-9 31t-27 9q-20 0-29-9t-9-31q0-11-1-26t0-31 0-30h95q0-15 0-30t1-27-1-23 0-17q-1-31-15-43t-41-12q-31 0-44 13t-14 43q0 21-1 45t0 49 0 48 1 42q1 31 15 43t43 13q29 0 42-13t14-43q0-5 0-13t0-16-1-16h7q1 11 1 23t0 22q-2 33-16 47t-47 14m0-11q-26 0-38-11t-13-39q-1-20-1-45t0-49 0-48 1-41q1-29 13-40t38-12q24 0 36 11t13 39q1 8 1 21t0 32-1 39h-95q0 26 0 47t1 45q0 25 10 35t35 10q23 0 32-9t11-35q0-9 0-21t-1-24h7q0 12 1 24t-1 21q-1 28-12 39t-37 11m-46-149h89q0-18 0-35t0-30 0-21q-1-25-12-34t-31-10q-23 0-33 10t-12 36q0 15 0 38t-1 46m82-6h-75q0-11 0-24t0-26 1-28q1-23 9-32t29-8q19 0 27 8t9 31q0 6 1 18t0 27-1 34m-68-5h62q0-16 0-31t0-26-1-17q0-19-7-27t-22-7q-17 0-24 8t-7 27q-1 11-1 23t0 24 0 26m309 168h-64v-400h64q21 0 36 5t22 21 8 40q1 42 1 84t0 87-1 96q0 26-8 40t-22 21-36 6m-57-394v388h57q14 0 25-3t19-10 11-19 5-29q0-45 1-88t0-88-1-91q-1-24-8-37t-20-18-32-5h-57m57 382h-50v-376h50q17 0 29 4t18 17 6 33q1 34 1 67t0 65 0 66-1 69q0 22-7 33t-18 17-28 5m-44-371v365h44q24 0 35-11t11-38q1-46 1-89t0-87-1-91q0-27-11-38t-35-11h-44m44 359h-37v-353h37q12 0 21 4t14 13 5 26q0 46 0 89t0 87 0 91q-1 24-10 33t-30 10m-30-347v341h30q11 0 19-4t10-11 4-22q1-40 1-81t0-88-1-98q0-21-8-29t-25-8h-30m180-23h-33v-6h33v6m0 23h-33v-6h33v6m0-12h-33v-5h33v5m0 383h-6v-300h6v300m-26 0h-7v-300h7v300m13 0h-6v-300h6v300m120 3q-30 0-44-14t-15-47q-1-11-1-23t1-22h6q0 10 0 23t0 22q1 30 13 43t40 13q31 0 43-14t14-41q0-6 0-12t0-11 0-12q0-29-11-43t-32-22l-18-6q-11-4-18-9t-9-15-3-27q0-7-1-13t1-15q1-21 9-30t27-9q17 0 26 8t9 31q0 7 0 18t-1 26h-6q1-13 1-24t-1-20q0-19-7-26t-21-8q-16 0-22 8t-8 26q0 8 0 13t0 15q1 16 3 25t8 12 15 8l17 7q15 5 26 13t17 21 6 36q0 7 0 12t0 11-1 12q-1 31-15 45t-48 15m0-11q-25 0-36-12t-11-38q0-11 0-21t0-24h6q0 13 0 25t0 20q1 24 10 34t31 10q24 0 34-10t10-33q0-10 0-18t0-17q0-25-8-36t-26-18l-18-6q-14-5-22-12t-12-18-5-32q0-9 0-15t0-13q0-26 11-39t38-12q24 0 35 12t12 38q0 9 0 20t0 25h-6q0-15 0-26t0-19q-1-24-11-34t-30-10q-23 0-33 11t-10 34q0 8 0 13t0 15q1 20 5 31t11 15 19 10l18 7q20 7 29 19t10 40q0 10 0 18t-1 17q-1 25-12 37t-38 12m0-11q-17 0-26-9t-9-31q0-9 0-21t0-23h7q-1 10-1 21t0 23q1 18 8 26t21 8q17 0 24-8t7-24q0-10 0-17t0-18q0-21-6-30t-18-13l-19-7q-16-5-26-13t-16-21-6-38q0-10 0-16t0-12q1-33 15-47t47-15q30 0 44 14t15 47q0 9 0 21t0 24h-6q0-11 0-23t0-22q-1-30-13-42t-40-13q-30 0-42 13t-14 43q0 8 0 13t0 15q1 22 6 35t13 20 25 12l19 7q16 5 22 16t7 32q0 5 0 11t0 11-1 13q0 19-9 29t-28 9m142 119h-7v-73l-2-61h2q6 16 20 23t29 8q28 0 39-16t12-44q2-31 2-60t0-57-2-58q-1-29-12-45t-38-15q-18 0-32 9t-20 25h-1l2-36h6v3l-2 17h1q7-11 20-18t27-6q28 0 41 17t15 49q1 28 2 56t0 58-2 61q-2 33-15 50t-40 16q-15 0-27-6t-19-18h-2l3 69v52m-26 0h-7v-400h7v400m13 0h-7v-400h7l-1 56h1q3-22 17-35t38-14q22 0 33 14t12 42q1 28 2 56t0 58-2 60q-1 27-12 41t-35 14q-21 0-35-13t-17-33h-2l1 57v97m52-114q22 0 31-13t10-35q2-42 2-85t-2-90q-1-26-10-38t-31-12q-17 0-28 7t-16 20-6 25q-1 31-2 61t0 57 2 52q0 13 6 25t16 19 28 7m-1-5q-22 0-32-14t-11-31q-1-27-1-55t0-57 1-59q1-20 11-33t31-13q19 0 28 11t9 33q1 30 1 58t0 57-1 59q-1 22-9 33t-27 11m0-6q15 0 21-9t8-29q2-46 2-87t-2-87q0-19-7-29t-23-10q-18 0-26 12t-9 29q-1 27-2 56t0 57 2 58q0 16 9 28t27 11m147 25h-7v-400h7v400m-26 0h-7v-400h7v400m13 0h-7v-400h7v400m187 0h-6v-238q0-32-13-46t-41-14q-29 0-43 13t-14 42q-1 10 0 22t0 23h-6q-1-12-1-23t0-22q1-33 16-47t48-14q22 0 35 7t19 21 6 38v238m-71-13q16 0 28-9t17-21 6-25v-100q-11 5-24 11t-25 12q-20 12-30 27t-10 41q0 6 0 11t0 11q2 21 12 31t26 11m1-6q-14 0-22-10t-10-27q0-6-1-11t0-9q1-24 10-38t26-26q9-5 19-11t22-9v93q0 11-5 22t-14 19-25 7m1-6q12 0 20-6t12-16 4-20v-86q-8 4-16 9t-16 9q-16 11-23 24t-8 35q0 4 0 9t1 11q1 13 7 22t19 9m-8 28q-23 0-36-15t-15-42q-1-7-1-14t0-11q2-27 13-46t39-35q9-5 16-9t14-7 14-6v-56q0-18-5-28t-22-10q-16 0-23 8t-8 26q0 8 0 19t1 25h-7q0-15-1-25t1-20q0-21 9-30t28-8q20 0 27 11t7 32v60q-14 5-26 11t-23 12q-26 14-36 33t-11 43q-1 7 0 12t0 13q2 25 14 38t33 14q18 0 31-9t20-24h1l-2 29v6h-7v-3l4-20h-1q-8 12-20 19t-28 7m64-3h-7v-16l2-35h-2q-5 18-19 31t-34 12q-19 0-30-12t-12-35q-1-7-1-12t0-11q2-24 11-41t33-31q9-5 18-9t19-8 15-6v-65q0-26-9-38t-31-11q-23 0-33 10t-11 34q0 10 0 22t0 23h-6q-1-11-1-23t0-22q1-27 13-38t38-12q25 0 36 13t11 42v238m80 101q-7 0-16 0t-12-2v-6q5 1 13 2t15 1q19 0 32-6t20-19 9-31l46-340h7l-46 341q-3 19-10 33t-21 20-37 7m0-23q-6 0-13 0t-15-2v-6q7 1 14 2t14 0q18 0 25-9t10-28l4-35h-21l-43-300h6l42 294h24l-5 42q-3 21-12 32t-30 10m0 12q-6 0-14-1t-14-2v-5q6 1 14 1t14 1q23 0 34-11t14-36l7-49h-27l-12-77-28-211h7l27 206 10 76h24l38-282h7l-46 339q-4 24-15 37t-40 14m52-114h-15l-10-74-25-202h6l25 198 9 72h5l8-73 26-197h6l-26 204-9 72" />
</svg>