<svg id="fnt-Big Shoulders Inline Text" viewBox="0 0 3996 1000" xmlns="http://www.w3.org/2000/svg"><path id="big-shoulders-inline-text" class="f" d="M104 667h-74v-400h72q25 0 43 6t26 22 10 43q0 17 0 29t0 23-1 24q-1 19-9 31t-23 19v1q16 5 25 20t10 35q1 11 1 19t0 18 0 19-1 22q-2 27-11 42t-27 21-41 6m-66-393v386h66q33 0 51-13t20-49q1-15 1-28t0-25-1-24q0-23-11-37t-28-18v-2q17-6 26-18t10-33q1-11 1-23t0-24 0-28q-1-25-9-39t-24-20-38-5h-64m66 379h-58v-373h56q20 0 34 6t21 17 8 35q0 15 0 28t0 24-1 23q-1 20-10 33t-28 18v1q19 5 30 19t11 37q1 11 1 22t0 25-1 30q-2 32-18 43t-45 12m-50-366v175h53q24 0 36-13t13-36q1-11 1-22t0-24 0-29q-1-30-15-40t-40-11h-48m53 168h-45v-161h40q22 0 34 9t13 36q0 17 0 30t0 23 0 21q-2 18-12 30t-30 12m-37-154v147h37q17 0 25-10t9-25q1-18 1-35t-1-39q-1-23-11-30t-28-8h-32m-16 168v177h50q26 0 40-10t15-38q1-18 1-30t0-24-1-23q-1-25-14-39t-36-13h-55m50 170h-42v-163h48q19 0 30 12t11 34q1 11 1 22t0 24-1 30q-1 24-13 33t-34 8m-34-156v149h34q20 0 29-7t10-26q1-20 1-33t0-22-1-22q0-19-9-29t-24-10h-40m205-206h-40v-7h40v7m0 29h-40v-7h40v7m0-14h-40v-7h40v7m0 375h-8v-300h8v300m-32 0h-8v-300h8v300m16 0h-8v-300h8v300m141 84q-39 0-58-12t-22-38q0-4 0-7t1-8q1-14 8-23t22-13v-1q-11-3-16-9t-6-17q0-2 0-6t0-5q0-12 6-20t19-11v-2q-12-4-20-16t-9-32q-1-12-1-24t0-25 0-26 1-27q1-35 19-51t56-15q25 0 38 7t17 21h2q5-8 13-14t18-8 17-2v6q-20 0-32 8t-17 21h-2q-4-17-16-25t-38-8q-34 0-50 14t-17 46q-1 19-1 36t0 32 1 33q1 22 9 34t23 15v2q-16 4-22 11t-8 20q0 3 0 5t0 6q1 11 7 16t20 10v1q-18 4-25 12t-10 24q0 4-1 7t1 8q2 23 19 33t54 11q38 0 56-11t20-35q0-5 0-8t-1-8q-2-21-19-31t-55-11q-16-1-26-3t-14-5-6-10q0-2 0-6t0-5q2-13 12-18t33-4q35 0 49-15t17-45q1-18 1-33t0-30-1-37q-1-17 9-28t30-10v6q-17 0-25 9t-7 24q0 18 1 33t0 31-1 35q-2 35-19 51t-54 15q-13 0-21 1t-12 5-5 11q0 0 0 3t0 5q1 5 5 8t12 4 22 2q41 1 60 12t22 36q0 5 0 8t0 8q-2 27-22 39t-61 13m0-17q22 0 36-5t19-11 7-19q1-5 0-8t0-8q-1-9-7-16t-20-10-34-5q-30-2-44 7t-17 28q-1 3-1 6t0 8q2 18 17 25t44 8m0-6q-28 0-40-6t-15-21q0-4 0-7t1-8q3-18 16-24t40-5q18 1 29 3t17 9 7 14q1 6 1 9t0 7q-2 15-15 22t-41 7m0-6q16 0 26-2t16-8 6-13q1-4 1-8t-1-8q-1-6-6-10t-15-7-26-3q-24-1-35 5t-13 18q-1 4-1 8t0 7q2 11 13 16t35 5m0 18q-34 0-50-10t-17-29q-1-4-1-8t1-7q2-16 11-25t30-11v-1q-16-3-24-8t-9-18q0-3 0-6t0-5q1-14 10-21t25-10v-2q-16-3-25-15t-11-35q0-14-1-30t1-33 0-36q2-30 16-42t44-12q25 0 38 9t15 32h2q3-13 9-21t17-13 24-4v6q-22 0-35 12t-12 32q1 18 1 35t0 34-1 31q-1 29-15 42t-44 13q-14 0-25 2t-18 8-7 16q-1 4-1 7t1 6q1 13 14 17t38 6q22 0 37 4t22 13 9 20q1 4 1 8t0 8q-2 22-20 31t-50 10m0-163q24 0 37-11t14-37q0-16 0-32t0-32-1-36q-1-26-13-36t-37-11q-28 0-39 12t-13 36q0 28-1 51t1 49q1 24 14 36t38 11m0-7q-22 0-33-10t-11-31q-1-24-1-48t1-51q1-22 11-32t33-10q21 0 31 10t11 31q1 19 1 36t0 32 0 32q-1 22-12 32t-31 9m0-6q16 0 25-8t10-28q0-14 1-30t-1-33 0-36q-1-19-10-27t-25-7q-17 0-26 8t-10 27q-1 26-1 50t1 49q1 18 10 27t26 8m311 106q-39 0-58-16t-20-53q0-14 0-27t0-26 1-26h8q0 11-1 23t0 25 0 31q2 34 18 48t52 15 51-15 18-48q0-11 0-22t0-22 0-23q-1-33-16-50t-42-24l-26-7q-11-3-18-8t-10-16-4-29q0-17 0-33t1-34q0-24 11-34t35-10q21 0 32 9t11 35q1 13 1 32t-1 40h-8q1-20 1-39t-1-33q0-20-9-29t-26-9q-20 0-29 9t-9 29q-1 17-1 34t0 33q1 17 4 26t8 13 13 7l27 7q30 8 46 27t18 54q0 11 0 22t0 23-1 22q-1 37-19 53t-57 16m0-13q-32 0-46-13t-16-43q0-15 0-27t0-26 1-26h8q-1 12-1 25t0 25 0 28q1 28 14 39t40 12q27 0 39-12t14-39q0-10 0-21t0-22 0-22q-1-18-6-30t-15-19-24-11l-27-7q-13-3-23-10t-15-21-5-36q-1-11-1-23t0-23 1-23q1-30 15-43t47-13q29 0 44 13t15 44q0 12 0 32t0 40h-8q0-20 0-40t0-32q-1-29-13-40t-38-11q-28 0-41 12t-13 38q-1 16-1 34t1 34q0 21 4 33t13 18 20 10l27 7q23 6 36 21t15 46q0 12 0 23t0 21 0 22q-2 30-16 43t-45 13m0-12q-24 0-34-11t-12-34q0-13 0-25t0-26 1-27h7q0 15 0 27t0 24 0 27q1 21 10 30t28 8q19 0 27-9t10-29q0-12 0-23t1-20-1-21q0-14-4-23t-11-15-17-8l-28-7q-18-5-30-14t-18-25-7-43q-1-15-1-32t1-37q1-38 19-53t59-16q36 0 55 15t20 54q0 12 0 32t0 41h-8q0-20 0-40t0-33q-1-34-17-48t-50-14q-36 0-53 14t-17 48q0 15-1 35t1 34q0 23 6 38t16 24 27 13l27 7q12 3 20 9t14 16 5 27q0 11 0 22t0 21 0 22q-1 24-12 34t-33 11m283 22h-8v-233q0-21-5-35t-17-22-34-7q-22 0-38 9t-25 25h-1l4-60v-77h8v67l-6 55h1q11-14 26-20t33-6q24 0 37 8t19 24 6 38v234m-148 0h-8v-400h8v400m32 0h-8v-225q0-14 7-26t19-19 28-7q22 0 30 12t8 34v231h-8v-230q0-19-6-29t-25-11q-13 0-23 6t-16 16-6 22l0 226m-16 0h-8v-400h8v87l-2 69h2q8-22 25-34t41-13q29 1 40 16t10 43v232h-8v-232q0-25-9-38t-36-14q-19 0-33 9t-22 22-8 28v225m258 3q-39 0-57-16t-19-54q-1-26-1-53t0-56 1-58q2-39 20-54t56-16q38 0 56 16t20 55q2 42 2 84t-2 82q-2 39-21 55t-55 15m0-6q34 0 50-15t18-49q2-37 2-79t-2-87q-2-35-18-50t-50-15q-34 0-50 15t-18 50q-1 31-2 59t0 54 2 53q2 34 18 49t50 15m0-6q-31 0-45-14t-15-45q-1-27-2-53t0-54 2-58q2-32 16-45t44-13q30 0 44 13t16 45q1 28 1 56t1 54-2 55q-2 32-16 45t-44 14m0-7q27 0 39-12t13-40q2-40 2-79t-2-85q-1-30-14-41t-38-12q-27 0-39 12t-13 41q-1 28-2 55t0 53 2 56q1 29 14 40t38 12m0-6q-22 0-33-11t-11-35q-1-29-2-55t0-53 2-56q1-26 12-36t32-11q22 0 33 11t11 36q2 47 2 86t-2 77q-1 26-11 36t-33 11m0-6q18 0 27-10t9-31q2-40 2-78t-2-85q-1-21-9-31t-27-9q-18 0-27 9t-9 31q-1 29-2 56t0 52 2 56q1 21 9 30t27 10m187 32q-16 0-27-5t-18-11-10-17-5-19-1-19v-233h7v232q0 11 2 22t8 21 17 16 29 6q23 0 38-10t25-25h2l-4 27v11h-8v-5l4-18h-1q-10 14-25 20t-33 7m94-4h-8v-300h8v300m-86-24q-13 0-20-4t-12-12-5-15-1-15v-230h8v230q0 10 2 19t9 15 20 5q13 0 23-5t16-16 6-23v-225h8v225q0 13-7 25t-18 19-29 7m-4 14q-26 0-38-15t-12-43v-232h8v231q0 25 10 39t35 13q19 0 33-8t22-22 7-29v-224h9v300h-8v-22l2-34h-2q-8 22-25 34t-41 12m185 10h-8v-400h8v400m-32 0h-8v-400h8v400m16 0h-8v-400h8v400m222-400v400h-8v-400h8m-16 0v400h-7l1-62h-1q-4 25-22 39t-42 14q-24 0-37-14t-14-46q-2-24-2-51t0-54 2-59q1-32 15-45t42-13q23 0 38 14t19 38h2l-2-75v-86h8m-67 385q16 0 28-8t21-20 8-30q2-23 2-50t0-54-1-50q-2-17-8-30t-18-21-28-7q-26 0-38 12t-13 41q-2 30-2 57t0 53 2 54q1 28 12 40t35 13m2-7q-21 0-31-11t-11-36q-1-28-1-54t0-53 2-57q1-24 11-35t33-11q21 0 33 14t12 38q1 20 1 45t0 54-1 55q-1 21-13 36t-35 15m0-6q20 0 29-14t11-32q1-20 1-47t0-54-1-52q-1-22-10-33t-27-12q-18 0-27 9t-9 30q-2 43-2 83t1 81q1 23 10 32t24 9m-9 31q-33 0-47-17t-17-54q-1-28-2-54t0-53 2-58q2-37 18-54t51-17q17 0 31 7t19 18h2l-7-57v-64h9v72l4 64h-2q-9-18-23-26t-31-8q-30 0-46 15t-17 50q-2 31-2 59t0 53 2 53q2 36 16 50t42 15q18 0 34-9t25-25h2l-3 37h-7v-3l3-19h-1q-8 12-23 18t-32 7m217 0q-37 0-56-14t-20-50q0-22-1-46t0-46 0-44 1-42q2-36 20-50t55-15q38 0 55 15t19 49q0 4 0 15t0 27 0 31-1 30h-109q0 13 0 25t0 24 1 24q1 19 9 27t27 9q16 0 24-8t9-27q0-9 0-21t0-21h8q0 11 0 22t0 20q-1 22-11 31t-30 10q-23 0-33-10t-11-31q0-14-1-28t0-27 0-26h109q1-13 1-28t0-29 0-24 0-14q-2-32-17-45t-49-14q-33 0-49 14t-18 46q0 18-1 39t0 45 0 47 1 44q2 32 17 46t51 14q33 0 48-14t17-45q0-5 0-13t0-16-1-14h8q1 9 1 22t0 21q-2 35-19 50t-54 15m0-12q-29 0-44-12t-16-42q0-18-1-40t0-46 0-46 1-42q1-30 16-42t43-12 43 12 15 40q0 5 0 19t0 33 0 37h-110q0 22 0 45t1 42q1 26 14 37t38 10q24 0 36-10t13-37q0-7 0-20t-1-22h8q1 10 1 22t0 21q-2 28-15 40t-42 13m-53-148h102q0-16 0-33t0-30 0-19q-1-24-13-35t-37-11q-26 0-38 11t-13 37q-1 18-1 39t0 41m94-6h-86q0-9 0-22t0-26 1-25q1-23 11-33t32-10q22 0 31 10t11 31q0 5 0 17t0 27 0 31m-78-7h70q0-15 0-29t0-24 0-15q-1-17-8-26t-26-8q-18 0-26 8t-9 28q0 12-1 23t0 21 0 22m182 170h-9v-300h8v22l-2 34h3q7-22 24-33t40-11q6 0 13 1t11 0v7q-5 0-12-1t-14 0q-19 0-33 8t-22 21-7 27v225m-16 0h-8v-300h8v300m32 0h-9v-225q0-21 15-35t38-13q7 0 14 0t14 0v7q-6 0-14-1t-14 0q-19 0-32 11t-12 30v226m-11-263h-2l4-27v-10h8v4l-5 18h1q9-12 25-18t32-5q4 0 9 0t11 1v6q-4 0-9 0t-11 0q-22 0-38 7t-25 24m182 266q-36 0-52-15t-17-50q-1-11-1-21t1-21h7q0 9 0 20t0 22q1 32 16 46t46 13q35 0 50-14t16-44q0-7 0-12t0-9 0-11q0-31-12-44t-37-21l-23-7q-11-3-18-7t-11-13-5-26q0-9 0-14t0-13q1-20 10-31t32-10q19 0 29 10t11 32q0 4 0 16t-1 23h-8q1-11 1-23t0-16q-1-18-9-27t-23-8q-17 0-26 8t-8 26q-1 8-1 14t1 13q1 15 4 22t9 11 15 7l23 6q17 6 29 14t19 21 7 37q0 7 0 12t0 8-1 12q-1 33-17 49t-56 15m0-12q-27 0-40-12t-14-41q-1-11-1-22t1-20h7q0 10 0 20t0 21q1 26 12 37t35 10q26 0 38-10t13-35q0-9 0-16t0-16q0-26-10-36t-28-16l-23-7q-14-4-24-10t-15-16-6-33q0-8 0-14t0-13q0-29 14-41t43-12q28 0 41 13t14 40q0 6 0 18t-1 22h-8q1-9 1-22t0-17q-1-26-13-37t-34-11q-26 0-38 11t-12 36q0 9 0 14t1 13q1 19 5 29t13 15 21 9l23 7q22 6 33 18t11 40q0 7 0 14t-1 18q-1 27-14 40t-44 12m0-13q-19 0-29-9t-10-32q0-11-1-21t1-20h7q0 10 0 20t0 21q1 19 8 27t24 8q18 0 26-8t9-25q1-12 1-17t0-15q0-19-7-27t-20-12l-23-7q-19-6-31-13t-18-21-7-38q0-10-1-15t1-13q0-36 17-50t55-15q35 0 51 15t19 50q0 6 0 18t-1 23h-8q1-11 1-23t0-18q-2-31-16-45t-46-14q-35 0-50 14t-15 46q0 6 0 12t1 15q1 23 7 35t16 19 27 11l23 7q17 5 25 15t7 31q0 7 0 11t0 9 0 12q-1 20-10 30t-33 9m266 22h-8v-400h8v400m-32 0h-8v-400h8v400m16 0h-8v-400h8v400m229 0h-8v-233q0-11-2-22t-7-21-17-16-30-5q-22 0-38 9t-24 25h-2l4-37h8v4l-5 18h2q10-14 24-20t33-6q16 0 27 4t18 12 11 16 5 19 1 19v234m-147 0h-8v-300h8v300m31 0h-8v-225q0-14 7-26t19-19 28-7q12 0 20 4t12 11 5 15 1 16v231h-7v-230q0-11-3-20t-9-14-20-6q-13 0-23 6t-16 16-5 22l-1 226m-15 0h-8v-300h7l-1 56h2q7-22 24-34t41-13q28 1 39 16t11 43v232h-8v-232q0-25-10-38t-34-14q-20 0-34 9t-22 22-7 28v225m225 0h-8v-400h8v400m-32 0h-8v-400h8v400m16 0h-8v-400h8v400m111-390h-40v-7h40v7m0 29h-40v-7h40v7m0-14h-40v-7h40v7m0 375h-8v-300h8v300m-32 0h-8v-300h8v300m16 0h-8v-300h8v300m227 0h-8v-233q0-11-2-22t-8-21-17-16-29-5q-22 0-38 9t-25 25h-2l4-37h8v4l-5 18h2q11-14 25-20t33-6q16 0 27 4t18 12 10 16 5 19 2 19v234m-148 0h-8v-300h8v300m32 0h-8v-225q0-14 7-26t18-19 29-7q12 0 20 4t11 11 6 15 1 16v231h-8v-230q0-11-2-20t-9-14-20-6q-13 0-23 6t-16 16-6 22l0 226m-16 0h-8v-300h8l-2 56h2q8-22 25-34t40-13q29 1 40 16t11 43v232h-8v-232q0-25-10-38t-35-14q-19 0-33 9t-22 22-8 28v225m257 3q-37 0-55-14t-20-50q-1-22-1-46t-1-46 1-44 1-42q1-36 20-50t55-15q37 0 54 15t19 49q0 4 0 15t0 27 0 31-1 30h-109q0 13 0 25t1 24 0 24q1 19 9 27t27 9q16 0 24-8t9-27q1-9 1-21t-1-21h8q0 11 0 22t0 20q-1 22-11 31t-30 10q-23 0-33-10t-11-31q0-14-1-28t0-27 0-26h110q0-13 0-28t0-29 0-24 0-14q-2-32-17-45t-48-14q-33 0-50 14t-17 46q-1 18-2 39t0 45 0 47 2 44q1 32 16 46t51 14q33 0 48-14t17-45q0-5 0-13t0-16-1-14h8q1 9 1 22t0 21q-2 35-19 50t-54 15m0-12q-29 0-44-12t-16-42q0-18-1-40t0-46 0-46 1-42q2-30 16-42t44-12 42 12 15 40q0 5 0 19t0 33 0 37h-110q0 22 0 45t1 42q1 26 14 37t38 10q25 0 36-10t13-37q0-7 0-20t0-22h8q0 10 0 22t0 21q-1 28-15 40t-42 13m-53-148h102q1-16 1-33t-1-30 0-19q-1-24-13-35t-36-11q-27 0-39 11t-13 37q0 18-1 39t0 41m94-6h-86q0-9 0-22t1-26 0-25q1-23 11-33t33-10q21 0 31 10t10 31q0 5 0 17t1 27-1 31m-78-7h70q1-15 1-29t0-24-1-15q-1-17-8-26t-25-8q-19 0-27 8t-9 28q0 12 0 23t-1 21 0 22m319 170h-7v-380h-77v-7h161v7h-77v380m-15 0h-8v-366h-61v-7h69v373m31 0h-8v-373h69v7h-61v366m61-393h-161v-7h161v7m87 396q-37 0-55-14t-20-50q-1-22-1-46t0-46 0-44 1-42q2-36 20-50t55-15q37 0 54 15t19 49q0 4 1 15t0 27 0 31-1 30h-110q0 13 1 25t0 24 1 24q0 19 9 27t26 9q16 0 24-8t10-27q0-9 0-21t-1-21h8q1 11 1 22t-1 20q-1 22-10 31t-31 10q-22 0-32-10t-11-31q-1-14-1-28t-1-27 0-26h110q0-13 1-28t0-29 0-24-1-14q-1-32-16-45t-49-14q-33 0-49 14t-18 46q-1 18-1 39t-1 45 1 47 1 44q1 32 17 46t50 14q33 0 48-14t17-45q0-5 0-13t0-16 0-14h8q0 9 0 22t0 21q-2 35-19 50t-54 15m0-12q-29 0-43-12t-16-42q-1-18-1-40t-1-46 1-46 1-42q1-30 15-42t44-12 43 12 14 40q1 5 1 19t0 33-1 37h-110q0 22 1 45t1 42q1 26 13 37t38 10q25 0 36-10t13-37q1-7 1-20t-1-22h8q1 10 1 22t-1 21q-1 28-14 40t-43 13m-53-148h102q1-16 1-33t0-30-1-19q-1-24-12-35t-37-11q-26 0-38 11t-13 37q-1 18-1 39t-1 41m95-6h-87q0-9 0-22t1-26 1-25q1-23 11-33t32-10q21 0 31 10t10 31q1 5 1 17t0 27 0 31m-79-7h71q0-15 0-29t0-24 0-15q-1-17-9-26t-25-8q-19 0-27 8t-8 28q-1 12-1 23t0 21-1 22m161 170h-8l24-90 17-65-20-74-21-71h9l18 68 20 74h21l20-72 20-70h8l-21 74-20 71 17 66 25 89h-8l-23-84-18-67h-21l-17 67-22 84m16 0h-8l20-79 15-65h13l16 65 20 79h-8l-19-74-14-64h-3l-13 64-19 74m-33 0h-8l44-155-43-145h8l42 145-43 155m143 0h-9l-44-155 43-145h9l-44 145 45 155m-70-165h-12l-17-71-18-64h8l16 61 15 67h3l15-65 18-63h8l-19 67-17 68m178 155q-31 0-44-12t-13-40v-218h-40v-7h40v-98h8v98h69v7h-69v218q0 24 11 34t38 11q6 0 12 0t14-2v7q-6 1-12 1t-14 1m0 13q-39 0-56-15t-17-50v-204h-24v-7h32v211q0 31 15 45t50 14q7 0 13-1t13-2v7q-10 2-26 2m0-27q-22 0-32-9t-9-29v-211h61v7h-54v204q0 17 8 24t26 7q6 0 12 0t14-1v6q-6 1-13 2t-13 0m-65-270h-32v-6h24v-85h8v91m85 0h-61v-91h7v85h54v6" />
</svg>