<svg id="fnt-Big Shoulders Stencil Display" viewBox="0 0 4218 1000" xmlns="http://www.w3.org/2000/svg"><path id="big-shoulders-stencil-display" class="f" d="M60 667h-33v-400h33v400m30 0h-8v-30h8q16 0 24-9t9-26q0-22 0-40t0-40q-1-23-9-32t-26-10h-6v-30h7q17 0 25-9t8-30q1-22 1-41t-1-40q0-17-8-25t-24-8h-8v-30h8q34 0 49 15t16 49q1 25 1 44t-1 36q0 21-8 33t-22 17v9q16 5 23 17t8 33q0 22 0 41t0 41q-1 34-17 50t-49 15m157-360h-52v-40h52v40m-10 360h-33v-300h33v300m103 56v25q-26-2-41-12t-16-29q0-3-1-6t1-5q0-15 9-23t21-10v-6q-23-8-24-26-1-3-1-5t1-4q0-10 7-17t17-9v-6q-13-7-20-20t-7-34q0-17-1-29t0-25 0-26 1-31q2-30 14-45t40-16v27q-11 1-16 9t-6 21q0 20-1 41t0 39 1 38q1 14 6 22t16 9v27q-12 2-18 7t-6 13q0 0 0 1t0 2q0 8 5 12t19 5v25q-13 1-22 6t-9 19q0 3 0 6t0 5q1 13 9 18t22 7m22 24v-24q16 0 26-6t11-20q0-2 0-5t0-5q-2-15-11-19t-26-6v-23q30 1 47 12t18 35q0 3 0 6t0 7q-2 26-20 37t-45 11m0-150v-27q11-2 16-9t6-22q0-18 0-38t0-39 0-41q-1-14-6-21t-16-9v-27q36 3 47 28h6q1-12 9-19t22-6v26h-5q-12 0-18 10t-7 28v12q0 19 0 33t0 28 0 32q-1 29-14 44t-40 17m263 44v29q-29-3-41-18t-14-48q-1-15-1-28t1-26 0-28h32q-1 22-1 44t1 43q1 14 6 22t17 10m22 28v-28q10-3 15-10t6-22q0-14 1-25t0-23-1-27q-1-19-6-31t-19-17l-26-6q-19-5-29-15t-14-25-5-39q0-16 0-35t0-38q1-32 14-47t42-17v28q-12 2-17 10t-5 22q-1 19-1 38t1 39q0 22 5 34t20 14l24 6q20 5 30 15t15 26 4 38q1 15 1 26t-1 21 0 23q-1 32-14 48t-40 17m52-264h-32q1-20 1-40t-1-41q0-14-5-21t-16-10v-29q27 2 40 17t13 48q1 14 1 34t-1 42m82 262h-33v-400h33v400m98 0h-33v-247q0-16-6-24t-20-7q-10 0-17 4v-20q5-5 12-7t17-3q24 0 35 14t12 46v244m50-62q0-20-1-42t0-46 0-46 1-43q2-32 14-47t40-17v27q-11 2-15 9t-6 21q0 27-1 50t0 46 0 45 1 50q1 14 6 22t15 9v27q-28-3-40-18t-14-47m76 65v-27q11-2 16-9t5-22q1-27 1-50t1-45-1-46-1-50q-1-14-5-21t-16-9v-27q19 1 31 8t17 21 6 35q1 20 1 43t0 45 0 46-1 43q-1 21-6 35t-17 21-31 9m101-59v-244h33v246q0 16 6 24t19 7q9 0 18-4v20q-12 10-28 10-24 0-36-14t-12-45m131 56h-33v-300h33v300m88 0h-33v-400h33v400m51-56q-1-22-1-45t0-47 0-48 1-48q1-32 13-46t35-14q10 0 16 3t12 6v21q-7-4-17-4-13 0-19 7t-7 24q-1 35-1 68t0 64 1 61q1 16 6 24t20 7q9 0 17-3v20q-5 4-12 7t-16 2q-24 0-36-14t-12-45m131 56h-33v-400h33v400m51-58q0-20-1-44t0-48 0-48 1-44q2-30 14-45t39-16v27q-10 2-15 9t-5 20q0 27 0 51t-1 45 1 46 0 50q1 15 5 22t15 9v27q-27-3-39-17t-14-44m75 61v-27q10-2 15-9t5-22q0-9 0-21t-1-27h33q1 11 1 23t-1 22q-1 30-13 44t-39 17m52-146h-76v-25h44q0-18 0-33t0-27 0-19q-1-13-6-20t-14-9v-27q27 2 39 16t13 44q1 7 1 22t0 35-1 43m81 143h-33v-300h33v300m22-270v-25q9-6 23-6 4 0 9 0t7 0v27h-15q-15 0-24 4m66 212q0-10 0-22t1-23h30q-1 14-1 26t0 22q1 15 5 22t14 9v27q-26-3-37-17t-12-44m71 61v-27q11-2 16-9t5-22q0-7 0-13t0-11 0-12q0-19-5-28t-16-14l-24-8q-17-6-27-15t-15-22-5-36q0-8 0-14t0-14q1-30 12-45t39-16v27q-10 1-14 8t-4 21q0 9-1 15t0 16q1 18 4 30t18 16l22 7q24 8 36 23t11 48q0 8 0 17t0 18q-1 29-13 44t-39 16m50-201h-31q1-9 1-17t0-17-1-15q0-14-4-21t-13-8v-27q26 2 37 16t11 44q0 6 0 14t0 15 0 16m199 172v29q-28-3-41-18t-14-48q0-15 0-28t0-26 1-28h32q-1 22-1 44t1 43q0 14 5 22t17 10m22 28v-28q11-3 16-10t5-22q1-14 1-25t0-23-1-27q0-19-5-31t-19-17l-26-6q-19-5-30-15t-14-25-4-39q-1-16-1-35t1-38q1-32 13-47t42-17v28q-11 2-16 10t-6 22q-1 19-1 38t1 39q1 22 5 34t20 14l25 6q19 5 30 15t14 26 5 38q0 15 0 26t0 21-1 23q-1 32-13 48t-41 17m52-264h-32q1-20 1-40t0-41q-1-14-6-21t-15-10v-29q27 2 39 17t14 48q0 14 0 34t-1 42m53-12h-20v-26h20v-85h33v330q0 18 5 25t24 7q7 0 11 0t11-2v26q-5 1-11 1t-12 1q-35 0-48-14t-13-47v-216m79 0h-27v-26h27v26m30 216q-1-20-1-44t0-48 0-48 1-44q1-30 14-45t39-16v27q-10 2-15 9t-5 20q-1 27-1 51t0 45 0 46 1 50q0 15 5 22t15 9v27q-28-3-40-17t-13-44m75 61v-27q10-2 14-9t5-22q1-9 1-21t-1-27h32q1 11 1 23t0 22q-2 30-13 44t-39 17m51-146h-76v-25h44q1-18 1-33t0-27-1-19q-1-13-5-20t-14-9v-27q26 2 38 16t14 44q0 7 0 22t0 35-1 43m82 143h-33v-300h33v300m98 0h-33v-247q0-16-6-24t-20-7q-4 0-9 1t-8 3v-19q5-5 12-8t17-3q24 0 35 14t12 46v244m50-58q-1-20-1-44t0-48 0-48 1-44q1-30 14-45t39-16v27q-10 1-15 8t-5 21q0 27-1 51t0 45 0 46 1 50q0 15 5 22t15 9v27q-27-3-40-17t-13-44m75 61v-27q10-2 15-9t5-22q0-10 0-22t-1-26h33q0 11 0 23t0 22q-1 30-13 44t-39 17m52-201h-33q1-9 1-17t0-17 0-15q-1-14-5-21t-15-8v-27q27 2 39 16t13 44q0 9 0 21t0 24m90-162h-53v-40h53v40m-10 360h-33v-300h33v300m88 0h-34v-400h34v400m190 0h-33v-400h33v400m31 0h-9v-30h9q17 0 25-8t8-26q0-34 1-68t0-68 0-69-1-68q-1-17-8-25t-25-8h-9v-30h9q35 0 50 15t16 51q1 48 1 91t0 86-1 90q-1 36-16 51t-50 16m160-360h-53v-40h53v40m-10 360h-33v-300h33v300m47-58q0-10 0-22t0-23h30q0 14 0 26t0 22q0 15 4 22t15 9v27q-26-3-37-17t-12-44m70 61v-27q11-2 16-9t5-22q0-7 0-13t1-11 0-12q-1-19-5-28t-17-14l-23-8q-18-6-28-15t-15-22-5-36q0-8 0-14t1-14q0-30 11-45t40-16v27q-11 1-15 8t-4 21q0 9 0 15t0 16q0 18 3 30t18 16l23 7q24 8 35 23t12 48q0 8 0 17t-1 18q-1 29-12 44t-40 16m50-201h-30q0-9 0-17t0-17 0-15q0-14-4-21t-14-8v-27q27 2 37 16t12 44q0 6 0 14t0 15-1 16m82 298h-34v-400h34v400m21-106v-20q3 1 7 2t9 1q14 0 21-7t7-24q0-27 1-53t0-48 0-47-1-45q-1-16-7-24t-19-7q-10 0-18 4v-21q6-4 12-6t17-3q24 0 35 14t13 46q0 17 1 40t0 50 0 52-1 46q-1 31-14 45t-36 14q-16 0-27-9m161 6h-33v-400h33v400m47-54q0-6-1-13t1-12q1-18 5-32t16-26 29-22q6-4 11-7t12-6v25q-3 2-7 5t-9 6q-14 11-19 25t-5 32q-1 4-1 11t1 12q1 16 8 25t20 8q7 0 12-2v20q-9 8-24 8-24 0-36-14t-13-43m37-144h-32q0-10 0-23t0-22q1-29 13-44t39-16v26q-10 2-14 9t-6 21q0 6 0 15t0 17 0 17m91 198h-33v-246q0-13-4-20t-12-10v-27q27 2 38 17t11 47l0 239m139 0h-57l-39-300h34l15 146 14 127h37l-4 27m-71 101q-7 0-15 0t-15-2v-26q6 0 14 1t16 1q18 0 24-7t8-24l4-23h32l-3 23q-2 20-9 33t-21 19-35 5m78-149h-27l11-106 15-146h34l-33 252" />
</svg>