<svg id="fnt-Bigelow Rules" viewBox="0 0 1606 1000" xmlns="http://www.w3.org/2000/svg"><path id="bigelow-rules" class="f" d="M148 551q0 26-5 47t-18 36-30 24-43 9h-49v-9h9q4 0 7-1t7-5 4-6 2-7l3-295q0-7-2-11t-5-5-8-2-11 0v-8h53q19 0 35 4t27 13 18 23 6 32q0 11-3 23t-10 23-15 19-22 10q15 4 24 13t16 22 8 25 2 26m-25 2q0-7-1-17t-2-19-5-18-8-16-12-11-16-4h-20l-3 186q20 0 33-10t21-24 10-32 3-35m-60-228h-3l-1 134h19q8 0 15-3t12-10 9-13 5-16 3-16 1-14q0-32-16-47t-44-15m157 41q0 6-4 11t-11 5-12-5-5-11 5-11 12-5 11 5 4 11m-2 231l22 0v9h-70v-9h23l1-150q0-5-1-9t-3-9-5-6-8-2h-11v-9l53 1-1 184m87-80h-1q3 3 6 5t5 6 5 5 2 6q0 6-3 9t-6 7-5 7-3 8q0 6 3 10t8 7 7 9 3 11q0 6-4 13t-9 16-12 18-13 18-9 18-4 18q0 7 2 12t6 10 9 7 13 3q9 0 18-4t15-11 10-16 4-18q0-4-1-9t-3-7-6-6-8-2q-6 0-10 5t-3 11h-8q0-5 1-10t5-8 7-5 9-2q6 0 11 3t8 8 5 10 1 12q0 11-4 21t-11 17-17 12-21 5q-11 0-20-4t-17-10-12-16-4-19 4-21 10-19 13-18 13-16 10-14 4-13q0-4-4-7t-7-7-7-7-3-10q0-5 2-9t6-8 6-8 3-9q0-5-3-9t-7-6q-10-3-18-8t-14-12-9-16-4-17q0-12 5-22t12-17 19-11 22-4q3 0 6 0t7 2q-5-6-8-14t-4-16q0-9 4-16t10-13 14-8 16-3q3 0 7 0t7 2l-2 7q-1-1-3-1t-4 0q-8 0-15 3t-11 8-7 11-2 15q0 6 1 13t4 14q9 2 16 7t13 11 9 14 3 17q0 13-6 23t-13 18-21 11-23 3m4-99q-9 0-16 4t-10 9-5 14-2 18q0 8 2 16t6 14 11 10 15 4q9 0 15-4t10-11 5-15 1-17-2-16-5-14-10-9-15-3m117-19l2 94q11 0 18 0t11-1 4-7 1-17h8v66h-8v-19q0-2 0-5t-2-4-3-4-4-1l-25 0 3 98q7 0 14 0t14-1q5 0 9-3t8-6 5-8 2-9l1-34h8l-1 68q-28 1-56 1t-56 2l-1-9q7 0 12 0t8-2 5-5 2-12v-1l-3-158q-1-7-3-12t-5-7-9-2-12 0l0-9 113-3 1 70h-9l0-37q0-9-4-16t-16-7q-8 0-16 0t-16 0m153 238v9l-73 2 0-8 8-1q4 0 7-2t5-4 3-7 1-6l3-270q0-4-1-9t-2-8-5-6-9-2l-8 0v-9h50l-3 301q0 3 1 6t4 7 5 5 7 2h7m124-137q0 10 0 23t-1 27-5 27-9 24-16 16-24 7q-13 0-22-6t-15-15-9-21-5-24-2-24-1-20q0-11 1-25t1-28 5-28 10-25 16-17 25-6q13 0 21 5t15 14 9 20 4 24 2 26 0 26m-51-107q-8 0-13 6t-9 14-5 22-3 26-1 27 0 28q0 9 0 20t1 23 2 21 5 18 8 13 12 5 12-5 8-14 5-19 2-23 1-23 0-23q0-23 0-44t-3-37-7-25-15-10m184-8l61 2v6q-3 0-5 0t-5 0q-6 0-11 3t-6 10l-36 235q0 2 1 5t2 4 4 3 5 2l15 0v6h-64v-6h12q3 0 4-3t2-5q0-1-1-7t-3-22-5-43-9-70l-22 128q0 2 1 4t4 2 6 1 5 0v6l-58 0v-6h14q4 0 6-2t2-5l-16-227q-1-6-2-9t-5-3-6-1-9 0v-6l67 0v6q-4 0-8 0t-7 1-4 3-1 8l10 192 27-162h9l22 175q7-57 14-102 2-19 5-38t5-32 3-24 1-9q0-5-2-8t-6-5-8-1-9 0l1-6m252 169q0-8-1-15t-5-15-9-13-13-11q-10 2-22 2l-2 134q0 2 1 5t3 5 4 4 6 1q3 0 7 0t7 0l0 8-80 4v-8l14-1q3-1 6-2t4-5 2-5 1-6l5-295q0-7-3-10t-7-4-9-1-10 1v-9q13 0 26-1t26 0q21 0 36 5t23 17 13 27 3 36q0 13-2 27t-6 27-13 23-20 17q11 4 19 12t12 17 6 19 2 21q0 23-2 46t-1 47q0 21 10 36t33 18v5q-2 0-4 0t-3 1q-14 0-25-5t-19-13-12-20-5-24q0-26 2-51t2-51m-47-226l-3 166q16-1 26-8t16-17 8-24 2-27q0-9 0-19t-1-21-3-19-8-16-14-11-21-4h-2m245 287l-53-1q0-7 1-13t0-13q-6 11-15 17t-19 6q-11 0-19-6t-12-15-8-22-4-23-2-22 0-18q0-24 1-48t1-47q0-7-2-10t-7-4-10-1-10 0v-9h54q0 31-1 63t-2 62q0 5 0 13t1 19 1 21 4 19 8 14 11 6q4 0 9-4t9-9 8-12 5-13q0-41 0-75t-1-62q0-7-2-10t-7-5-10-1-10 0v-8h54l0 186q0 5 3 10t9 6q4 0 8 0t7 1v8m71 22v9l-73 2 0-8 8-1q4 0 7-2t5-4 3-7 1-6l4-270q0-4-1-9t-3-8-5-6-9-2l-8 0v-9h50l-3 301q0 3 1 6t4 7 5 5 7 2h7m56-238l2 94q11 0 18 0t10-1 5-7 1-17h8v66h-8v-19q0-2-1-5t-1-4-3-4-5-1l-24 0 2 98q8 0 15 0t14-1q5 0 9-3t8-6 5-8 2-9l0-34h9l-1 68q-28 1-56 1t-57 2l0-9q6 0 11 0t9-2 5-5 2-12v-1l-4-158q0-7-2-12t-5-7-9-2-12 0l-1-9 114-3 0 70h-8l-1-37q0-9-4-16t-15-7q-8 0-16 0t-16 0m184-31l3 121h-10l-1-51q0-7-2-15t-6-14-9-11-14-5q-10 0-15 6t-9 14-3 18-1 19q0 15 4 26t10 21 13 16 13 12q9 8 16 16t11 17 6 19 1 20q0 15-3 27t-11 21-18 13-24 5q-9 0-18-3t-15-9-10-15-4-18q0-8 3-16t9-12 12-8 16-3q6 0 11 2l-2 8q-2-1-5-1t-4 0q-14 0-23 8t-8 22q0 7 2 14t8 11 11 8 13 3q10 0 17-6t10-14 6-19 1-18q0-17-5-29t-13-19q-10-10-20-20t-18-21-13-25-6-32q0-33 14-51t35-17q12 0 22 6t14 16l-1-36 10-1" />
</svg>