<svg id="fnt-Bigshot One" viewBox="0 0 2682 1000" xmlns="http://www.w3.org/2000/svg"><path id="bigshot-one" class="f" d="M13 638h44v-250h-44v-29h115q9 0 17 0t16-1q64 0 95 17t31 60q0 30-15 46t-37 22q32 8 47 27t15 52q0 23-8 40t-23 26-39 15-56 5q-9 0-19-1t-21 0h-118v-29m181-121h-53v124q13 2 30 2 5 0 10-1t8 0q4-1 7-2 2-7 4-16 2-8 3-19t1-25q0-13-2-25t-3-20q-2-10-5-18m-33-133q-11 0-20 1v106h52q1-7 2-16 1-8 1-18t1-21-1-21-3-16q-2-7-3-13-4-1-9-1-4-1-9-1t-11 0m174 87v-25h29l79-12v207h30v26h-138v-26h29v-170h-29m29-103q0-21 9-31t31-10q22 0 31 10t8 31q0 22-9 31t-30 10q-22 0-31-10t-9-31m307 382v-26h20q17 0 21-4t4-11v-7h-128q-24 0-41-4t-26-12-14-20-4-29q0-13 3-22t9-16 11-11 12-6q-16-9-23-25t-6-39q0-22 5-37t19-25 34-13 52-4h60q12 0 19-2t11-7 4-10 1-15h27q0 27-8 39t-25 16q21 19 21 58 0 22-6 37t-19 24-34 13-51 5q-33 0-54-5-6 2-13 4t-11 7-9 10-4 13h145q42 0 59 15t17 47q0 16-2 28t-9 19-18 11-29 4h-20m-80-232q0 12 1 22t2 17q2 8 4 15 2 1 5 1 3 1 6 1t9 0 9 0 7-1q3 0 5-1 2-7 4-15 1-7 2-17t1-22q0-12-1-22t-2-17q-2-9-4-16l-6-1q-2 0-6-1t-9 0q-5 0-9 0t-6 1q-3 1-5 1-2 7-4 16-1 7-2 17t-1 22m285-78q11 0 21 1t17 5l33-8v77q-19 0-31-6t-20-14-11-17-5-16h-4q-5 0-8 0t-6 1-4 1q-1 2-2 5-1 3-2 7t0 11q0 9 2 15t6 10 11 7 18 5q13 4 26 9t24 14 17 21 7 31q0 20-7 33t-20 23-31 12-42 4q-19 0-32-2t-20-4l-34 7v-82q18 0 31 7t20 15 11 19 5 17q3 0 5 0h15q4 0 8 0 4-1 7-1 1-2 2-6 1-3 2-8t1-12q0-14-9-23t-20-14-27-11-27-13-21-21-8-34q0-15 5-27t17-21 32-13 48-4m117-56v-25h29l79-14v122q6-8 16-14 9-5 23-10t36-4q11 0 23 2t21 7 16 14 6 24v155h30v26h-109v-197q-1 0-3-1-4-1-11-1-10 0-19 4t-14 10-10 11-5 9v139h30v26h-138v-26h29v-257h-29m383 171q0 20 1 36t4 29q2 15 4 26 3 1 7 2 6 1 19 1 12 0 19-1 4-1 6-2 3-11 5-26 1-12 3-29t1-36-1-36-3-29q-2-14-5-26-3 0-7-1-3-1-8-1t-10-1q-7 0-11 1t-8 1q-4 1-7 1-2 12-4 26-2 13-4 29t-1 36m-82 0q0-32 6-54t20-36 36-20 55-6q32 0 54 6t36 20 20 36 6 54-6 54-20 36-36 20-54 7q-33 0-55-7t-36-20-20-36-6-54m283 65v-201l79-21v44h60v25h-60v175h11q29 0 29-44h25q0 16-2 29t-9 22-23 15-42 5q-19 0-32-5t-21-11-11-15-4-18m254-107q0-44 9-74t27-50 46-29 68-8q5 0 9 0t9 0h30q18 0 32-1t24-5 14-10 5-20h27q0 29-14 41t-41 16q28 18 41 52t14 88q0 43-9 74t-27 50-47 28-67 9-68-9-46-28-27-50-9-74m94 0q0 28 2 52t5 42q3 20 7 38 5 1 11 2 6 1 13 2t18 0 18 0 13-2q6-1 11-2 4-19 7-40 2-18 5-42t2-50q0-28-2-52t-5-42q-3-20-7-38-5-1-11-2-6-1-14-2t-17 0-18 0-13 2q-6 1-11 2-4 19-7 40-3 18-5 41t-2 51m244-37v-25h29l76-14v35q1-2 5-7t14-12 23-10 36-4q11 0 23 2t21 7 16 14 6 24v155h30v26h-109v-197q-1 0-3-1-4-1-11-1-10 0-19 4t-14 10-10 11-5 9v139h30v26h-138v-26h29v-165h-29m417-37q28 0 46 5t29 17 15 30 5 46q0 9-1 15t-1 10q0 5-1 8h-123q0 17 2 30t3 24q2 12 4 21 1 1 4 2 3 0 7 0t13 1q12 0 23-2t20-6 13-11 5-18h27q0 21-9 33t-23 18-30 8-30 2q-30 0-52-7t-34-20-19-36-6-54 5-54 18-36 35-20 55-6m-22 25q-3 11-5 24-1 12-3 27t-1 33h48q-1-21-2-37t-4-26q-2-12-4-21-2 0-4-1-2-1-5-1t-6-1-6 1-4 1q-2 1-4 1" />
</svg>