<svg id="fnt-Bilbo Swash Caps" viewBox="0 0 2832 1000" xmlns="http://www.w3.org/2000/svg"><path id="bilbo-swash-caps" class="f" d="M158 697q0 9-4 9t-6-6-4-11 0-9q-12-6-26-15t-13-17q0-3 2-3 2 0 9 5t16 10 12 7q0-55 30-147t64-159q-60-15-103-15-21 0-40 4t-36 12-28 25-11 39q0 51 49 96 2-10 5-10 3 0 8 10t6 15q0 7-9 7-19 0-38-22t-29-47-11-45q0-28 12-48t34-29 43-15 48-4q46 0 107 13 7-17 15-24 0 0 1 0 2 0 4 0t6-2 5 0q14 0 14 6 0 0-1 1t0 1q-5 7-14 24 18 5 37 12t41 19 34 28 14 36q0 17-12 32t-30 25-35 17-33 11q18 1 39 5t43 13 37 24 15 35q0 19-17 38-51 53-144 53-61 0-107-17 0 2 0 6t1 7m219-248q0-16-12-30t-31-24-35-17-32-11h0q-41 71-72 167 8-2 22-4t19-2q18-3 37-8t46-15 42-24 16-32m4 207q21-21 21-41t-17-35-41-22-46-10-40-3q-6 0-21 1t-30 4-17 1q-1 0-1 0-25 79-31 121 43 17 107 17 83 0 116-33m177-264q0 6-10 16t-12 16q-6 16-14 18-10 0-10-16 0-11 16-23t27-13q2 0 3 2m-29 85q-1 2-7 13t-9 19-11 23-13 30-11 33-11 39q0 2 0 4 0 6 5 6 3 0 16-7t17-8q4 0 4 2 0 6-25 22t-35 17-10-9q0-5 2-11 6-15 11-32t9-25 6-19 5-14 3-10 2-7 0-5q0-2-1-4t0-2q0-2 1-7 11-31 20-42t25-10q6 0 7 4m120-122q-28 57-56 138t-42 141q-1 2-1 4 0 6 5 6 3 0 16-7t17-8q3 0 5 2 0 6-25 22t-36 17q-9 0-9-9 0-5 2-11 13-35 24-70t26-84 21-71q2-4 2-9 0-2-1-4t-1-3 2-6q10-31 18-42t25-10q7 0 8 4m-26 306q-2 6-5 6-4 0-10-6t-5-14q0-7 12-38 1-4 4-6t4-3q54-141 86-249l4-3q3-3 8-6t9-3q5 0 5 8-5 20-35 100t-48 126q19-28 50-64t47-35q10 0 10 19v3q-1 10-10 45 11-5 15-5 2 0 2 1 0 2-7 7t-12 8q-20 64-38 85-7 7-29 20t-26 14q-21 0-31-10m99-97q-59 31-76 49-3 6-8 16t-5 12q12 14 24 14 21 0 38-31t27-60m4-11q8-21 9-44 0-10-5-10-17 0-81 102 30-25 77-48m166-35q9 1 9 5t-7 8-14 4q0 58-30 100t-61 41q-29 0-29-42 0-11 2-23 3-13 9-33t17-45 26-41 31-16h3q0-7 4-12t11-5q7 0 13 29t16 30m-26 13q-4-3-11-18t-9-15q-15 0-36 45t-25 73q-2 11-2 21 0 24 14 24 20 0 44-41t25-89m193 163q23 0 48-6t45-18 20-28q0-3 0-5-3-16-24-27t-50-19-56-17-47-29-19-47q0-37 20-68t52-52 69-34 73-18q21-3 40-3 86 0 86 56 0 30-28 57t-66 28q-3 0-5-2t-2-2q0-1 1-3t1-2 3-1 4 0q25 0 48-20t23-47q0-15-6-25t-17-16-24-8-28-3q-7 0-15 1t-14 1q-47 6-89 24t-70 51-29 73q0 24 14 41t33 26 45 15 45 13 37 15 18 26l0 6q0 20-22 40t-58 31-74 13q-51 0-51-37 0-20 13-20 2 0 3 3t2 8 4 9q3 6 8 10t11 6 12 3 16 1m418-208q0 3-9 23t-25 51-31 55q-6 10-10 16t-4 9-4 12-4 17q-2 3-6 3-5 0-10-6t-5-12q0-2 0-6t0-7q0-68-27-135-18 11-52 76t-33 89q-1 5-5 5-5 0-11-7t-6-12q0-2 0-2 21-52 21-95 0-22-3-36t-8-18-10-5q-1 0-7 4t-8 4q-1 0-1-2 0-7 13-18t20-12q20 0 20 71 0 15-1 40 15-28 41-68t37-40q4-6 10-6 10 0 10 11 0 2-1 4t0 5q0 3 4 16 4 12 10 37t11 45 5 20q7 0 31-47t25-73q0-3-2-9t-2-9q0-6 5-12h1q5-4 8-4 7 0 10 9t3 19m146 141q-1 0-5 4t-6 6-8 6-8 7-8 6-9 5-8 3-7 2q-11 0-13-13 0-21 17-77-67 92-96 92-12 0-12-18 0-23 13-62t34-71 35-32h2l5-4q5-5 14-5 8 0 21 4t15 4q2 0 5-4t8-4q13 0 13 11 0 5-2 10t-5 13-4 9q0 1-5 3t-4 3q-11 31-20 66t-8 44q0 12 7 12t17-8 18-17 8-9q1 0 1 2 0 8-5 12m-32-133h-1q-3 0-11-1t-12-1q-7 0-15 2-12 3-41 59t-28 83q0 9 5 9 10 0 37-31t35-43q13-20 23-44t11-30q0-3-3-3m174 1q-1 10-13 29t-19 18q-2 0-2-3 0-4 6-18t5-18q0-7-9-7-1 0-16 2-13 3-33 16t-20 29q0 5 2 10 7 13 23 22t28 17 12 21q0 22-34 42t-58 20q-4 0-6-3t-3-7q0-6 6-6 16 0 46-10t30-22q0-7-12-17t-24-17-25-20-11-21q0-9 6-16 5-6 10-11t9-9 10-8 11-7 10-6 10-5 9-4 8-4 7-2 6-2q8-3 13-3 18 0 18 20m150-5q-27 43-50 96t-23 83q0 7 4 7 1 0 8-4t9-5q3 0 3 3 0 6-10 13t-18 7q-13 0-13-19 0-21 14-61t28-71 14-36q0-1 0-1-2 0-9 7-32 36-53 69t-29 52-15 29-18 11q-5 0-5-5 0-5 3-10 13-35 26-73t26-84 24-73q1-4 1-9 0-2 0-4t-1-2q0-2 2-7 11-32 19-42t25-10q6 0 7 4-54 110-88 234 74-116 112-116 11 0 11 7 0 4-4 10m458 107q2 0 2 5t-2 11-5 11-6 8q-31 31-83 52t-101 20q-79 0-120-38t-42-104q0-6 1-12 3-56 41-108t96-82 112-30 74 25q5-13 5-19 0-1-1-4t-1-5 4-2q4 0 8 2t4 5q0 6-2 12t-4 15-4 12q5 12 5 27 0 34-15 34-9 0-12-3t-4-11q0-5 1-9t1-9 3-8 2-8 3-8q-8-14-26-23t-41-9q-53 0-104 29t-84 77-36 102q0 4 0 8 0 59 41 95t101 36q27 0 51-5t39-11 32-18 24-17 18-18 12-12q1-2 6-8t7-5m173 30q-1 0-5 4t-6 6-8 6-8 7-8 6-9 5-8 3-7 2q-11 0-13-13 0-21 17-77-67 92-96 92-12 0-12-18 0-23 13-62t34-71 35-32h2l5-4q5-5 14-5 8 0 21 4t15 4q2 0 5-4t8-4q13 0 13 11 0 5-2 10t-5 13-4 9q0 1-5 3t-4 3q-11 31-20 66t-8 44q0 12 7 12t17-8 18-17 8-9q1 0 1 2 0 8-5 12m-32-133h-1q-3 0-11-1t-12-1q-7 0-15 2-12 3-41 59t-28 83q0 9 5 9 10 0 37-31t35-43q13-20 23-44t11-30q0-3-3-3m158 65q3-1 10-3t12-4 11-2q3 0 3 2 0 3-5 6t-15 6-14 4q3 13 3 29 0 39-20 56t-47 18q-29 0-45-13-4 13-17 49t-18 53q0 1 0 2 0 1 1 4t2 6q0 6-7 19t-16 14q-6 0-6-13 0-10 8-36t24-68 17-44q-2-3-2-8 0-12 11-19 34-103 39-123 0-1-5-2t-6-3q0-4 8-7l8-3q-2-2-2-4 0-7 9-16t16-8q4 0 4 5 0 5-2 10l-6 12q36 25 47 81m-19 16q-9 0-35 16t-36 25l-11 31q18 12 34 12 26 0 38-17t12-41q0-11-2-26m-3-8q-3-18-9-33t-12-24-8-8q-2 0-7 14t-13 42-13 40q24-16 62-31m181-72q-1 10-13 29t-19 18q-2 0-2-3 0-4 6-18t5-18q0-7-9-7-1 0-16 2-13 3-33 16t-20 29q0 5 2 10 7 13 23 22t28 17 12 21q0 22-34 42t-58 20q-4 0-6-3t-3-7q0-6 6-6 16 0 46-10t30-22q0-7-12-17t-24-17-25-20-11-21q0-9 6-16 5-6 10-11t9-9 10-8 11-7 10-6 10-5 9-4 8-4 7-2 6-2q8-3 13-3 18 0 18 20" />
</svg>