<svg id="fnt-Bilbo" viewBox="0 0 788 1000" xmlns="http://www.w3.org/2000/svg"><path id="bilbo" class="f" d="M68 675q-8 0-17-8t-8-12q0-4 5-4 1 0 7 1-2-10-3-24t-1-30q0-29 2-62t6-67 10-63 10-52h-27q-11 0-11-4 0-2 6-5t15-3h20q2-13 11-17t19-4q8 0 8 5t-5 10-5 7q12 1 30 4t37 8 35 14 26 22 11 33q0 15-9 28t-21 25-26 19-26 13q6 0 12-1t13 0q17 0 35 3t35 9 26 18 10 30q0 27-17 46t-44 33-58 19-61 6q-11 0-21-1t-20-2q-2 6-9 6m18-163q5 0 21-2t36-7 39-14 32-24 13-37q0-3-1-6t0-5q-5-16-20-27t-32-18-37-11-31-6h0q-3 8-7 23t-7 35-8 38-6 36-3 25q0 0 3 0t8 0m33 148q26 0 53-5t51-14 37-27 15-41q-1-17-12-28t-29-16-37-8-36-2q-23 0-44 2t-43 7q-1 6-1 18t-1 28q0 21 1 44t2 38q19 4 44 4m289-218q-7 0-9-5t-1-11q0-8 7-16t18-14 17-6q3 0 3 2 0 5-4 10t-9 10-8 12q-2 5-5 11t-9 7m-74 228q-9 0-9-9 0-5 2-11 11-31 18-52t11-32 5-18 2-10q0-2-1-3t-1-3 2-7q10-30 19-41t25-11q7 0 8 4-5 10-17 31t-23 53-22 73q-1 2-1 4 0 6 5 6 3 0 10-4t13-7 11-4 4 2q0 3-8 9t-18 13-20 12-15 5m84 0q-10 0-10-9 0-5 2-11 15-39 26-76t22-72 24-77q1-3 1-5t0-4q0-2-1-4t0-3q0-1 1-6 10-31 18-42t26-10q7 0 7 4-13 28-28 64t-27 73-25 75-18 67q0 2 0 4 0 6 5 6 3 0 10-4t13-7 10-4q3 0 4 2 0 3-7 9t-18 13-20 12-15 5m121 1q-20 0-30-10l-2 5q-1 1-3 1-4 0-10-6t-6-14q0-7 12-38 2-5 5-6t4-3q19-51 41-112t44-137q1 0 4-3t9-6 9-3q5 0 5 8-2 8-9 27t-17 46-20 55-20 54-18 44q5-7 14-19t20-26 23-26 23-20 17-8q10 0 10 19v3q0 8-3 19t-6 26q11-5 15-5 1 0 1 1 0 2-6 7t-13 8q-8 26-16 48t-22 37q-3 4-11 9t-18 12-16 9-10 4m-4-70q17-15 39-28t37-20q6-15 7-26t2-18q0-10-5-10-8 0-29 27t-51 75m8 54q12 0 22-11t19-25 14-30 9-25q-20 11-41 22t-35 27q-4 8-7 15t-6 13q12 14 25 14m132 21q-13 0-21-10t-8-32q0-5 0-11t2-12q1-8 6-25t12-35 17-36 22-28 25-11h4q0-7 4-12t11-5q5 0 8 9t4 20 5 20 11 10q10 1 10 5t-10 9q-3 2-6 2t-5 1q0 31-9 57t-24 45-29 29-29 10m7-15q9 0 21-10t23-29 18-41 8-50q-4-3-8-11t-7-15-5-7q-7 0-15 9t-16 25-14 31-11 31-6 22q-1 6-1 11t-1 10q0 24 14 24" />
</svg>