<svg id="fnt-BioRhyme" viewBox="0 0 2697 1000" xmlns="http://www.w3.org/2000/svg"><path id="biorhyme" class="f" d="M222 667h-204v-42h199q38 0 61-13t23-43q0-20-11-32t-29-18-44-6h-100v-38h84q34 0 54-14t21-42q0-20-9-31t-24-17-33-5h-192v-42h196q37 0 62 11t39 31 13 47q0 22-10 39t-25 28-37 16-41 6v-19q25 0 49 4t45 13 32 28 12 45q0 45-34 69t-97 25m-88-24h-51v-296h51v296m361 13h-49v-225h49v225m54 11h-156v-40h156v40m-65-196h-91v-40h91v40m-20-91q-15 0-27-9t-11-21q0-14 11-23t27-8q18 0 29 8t11 23q0 13-11 21t-29 9m240 294q-26 0-50-9t-41-25-29-39-10-51 10-52 29-39 41-25 50-9q25 0 48 9t42 25 29 39 10 52-10 51-28 39-42 25-49 9m0-39q22 0 40-11t28-29 10-45-10-45-28-30-40-10-41 10-28 30-10 45 10 45 28 29 41 11m358-114h-101v-39h101q21 0 37-7t27-20 10-32q0-18-9-31t-27-20-38-7h-200v-41h199q39 0 67 12t44 34 16 53q0 28-16 51t-43 35-67 12m-21 146h-179v-42h179v42m-63-24h-52v-295h52v295m204 31q-23-1-42-10t-36-30-30-59l-21-61 42-5 22 54q11 27 23 40t23 19 24 5q11 0 17-2t13-4l11 42q-8 5-20 8t-26 3m360-7h-49v-137q0-15-4-26t-10-19-16-12-23-4q-14 0-28 6t-27 16-28 25-27 33v-40q16-20 31-35t31-27 32-16 35-6q20 0 36 6t26 20 16 32 5 45v139m-149 0h-145v-40h145v40m196 0h-139v-40h139v40m-341-343h102v343h-49v-304h-53v-39m411 462q-15 0-27-4t-22-9-21-12l20-37q10 6 22 12t28 6q14 0 26-6t23-18 19-33l107-245h46l-113 253q-14 30-30 51t-35 31-43 11m113-119l-33 27-118-242h54l97 215m-127-196h-54v-40h132v36h-75l-3 4m203-4h-64v-36h119v40h-52l-3-4m163 4h-88v-40h88v40m14 185h-49v-225h49v225m43 11h-145v-40h145v40m137-11h-49v-129q0-17-5-30t-16-19-25-7q-17 0-35 9t-35 27-34 42v-40q16-26 35-45t41-29 45-10q18 0 32 6t25 19 16 32 5 43v131m43 11h-135v-40h135v40m136-11h-49v-129q0-13-3-23t-8-18-15-11-20-4q-17 0-35 9t-35 27-33 42v-40q16-26 35-45t40-29 45-10q18 0 33 6t24 19 16 32 5 43v131m47 11h-138v-40h138v40m155 7q-24 0-48-8t-42-23-29-37-11-51q0-31 11-55t30-41 43-25 48-9q30 0 53 9t36 26 14 40q0 23-14 38t-36 23-46 8q-31 0-55-7t-47-18l-1-30q27 12 49 16t43 5q16 0 29-4t21-12 8-19q0-16-14-26t-36-10q-17 0-33 6t-28 18-21 28-7 37q0 25 12 42t31 27 42 10q28 0 49-10t38-23l21 33q-14 12-31 21t-36 15-43 6" />
</svg>