<svg id="fnt-Birthstone Bounce" viewBox="0 0 3325 1000" xmlns="http://www.w3.org/2000/svg"><path id="birthstone-bounce" class="f" d="M124 762q-3 0-5-1-5-2-7-11t-2-21q0-14 2-30t5-29 5-23q-6-3-15-12t-11-15q-1-4-1-7t1-5q1-2 2-1t2 1q1 7 7 13t11 9 8 6q3-11 14-34 11-23 27-54t34-65l36-69q17-33 31-62t23-49q-5 6-13 18t-16 26-15 25q-14 22-28 46-14 24-29 46t-31 42q-16 20-35 35-19 14-40 22t-45 8q-17-1-27-16t-10-31q0-9 3-17 5-11 16-24t23-24 24-17q2-1 2 0 0 1-1 3-7 6-15 18t-15 27-11 27q-4 13-4 23 0 10 4 16t13 7q20 0 42-15 21-15 44-39t45-52 42-58q10-15 22-33t23-34 18-24q8-10 12-15t13-5q8 0 11 5t3 13q0 8-3 17t-5 17q-18 38-39 76t-41 76q-21 38-40 77t-34 78q4 1 11 3t13 2q9-24 17-46t19-46q11-24 24-53t34-68q8-16 18-36t24-39 29-31 34-12q20 0 30 12t10 28q0 5-1 11-4 20-18 39t-32 35-39 26q47 7 76 28t30 49q0 21-11 38-10 18-28 31t-41 23-50 15q-19 4-38 6t-39 2q-15 0-30-1-4 14-12 33t-18 35-24 25q-4 2-9 4t-9 2m88-109q13 0 28-1 44-4 83-21 19-8 34-20 14-12 23-27t9-32q0-29-22-48t-53-21q-2 2-7 9t-8 11q-4 5-8-1t-4-14 5-13q2-3 8-4t16 0l15-18q12-14 24-31t21-35 9-37q0-8-2-13t-10-4q-10 0-22 9t-24 25-23 33q-12 18-21 35t-17 31-9 20q-27 63-40 107l-19 60q4 0 7 0t7 0m-81 98q4 0 9-8t10-21 11-25 9-23 6-14q-6 0-14-2t-11-2q-2 3-6 12t-7 19-4 16q-1 7-3 19t-2 21q0 8 2 8m419-303q-13 0-13-12 0-8 5-13t12-5 10 4 3 11q-1 7-6 11t-11 4m-81 219q-26 0-26-33 0-7 1-16 2-10 8-25t13-30 13-25q5-8 12-19t12-20 8-13q3-6 12-10t16-4q8 0 8 5 0 3-2 5-10 16-23 36t-24 42-20 41-8 34q0 7 2 12t11 4q8 0 18-8t20-17 15-15l10-11q2-2 4-5t4-5q2-2 3-2 3 0 3 5 0 2-2 4-6 7-11 14t-12 13q-12 15-29 29t-36 14m113 84q-16 0-23-8t-6-20q0-8 3-19 4-17 13-37t18-31q6-9 12-19t12-19l25-39q7-11 7-22 0-12-10-19l-7-4q-4-3-6-5l-7 12-7 11q-10 14-24 32t-26 33-21 26q-1 1-3 1-2 0-4-2t1-5q20-22 38-45t33-49l6-10 6-10q-4-3-7-10t-4-12q0-9 7-10h1q5 0 10 6 5 7 4 25 12 9 24 12t18 7 8 17q0 2-1 4t0 5q-3 12-13 30t-23 35-21 32q-9 15-19 32t-17 33-4 24q2 5 7 5 8 0 20-6 15-9 28-20t27-24q8-7 19-21t25-28 24-28q5-6 10-12l10-11q2-1 3-1 3 0 3 4 0 1-3 5-5 7-11 14t-12 14q-13 15-29 34t-31 37-30 31q-12 10-24 17t-29 8m160 4q-10 0-17-8t-7-25q0-10 2-20 1-5 4-19t7-30q5-18 13-42t19-50q9-21 18-40t18-36h-69q-6 0-6-2 0-6 11-6h68q13-22 26-42t30-38q9-10 16-14t15-6 17-3q-23 28-40 52t-32 51h74q6 0 6 3 0 2-3 3t-8 2h-74q-12 21-23 44t-23 51q-11 23-19 49t-13 49-5 31q0 23 12 23 6 0 15-6 20-12 35-25t30-26q7-7 17-18t21-23 19-20l8-10q2-1 3-1 3 0 3 4 0 2-2 5-3 4-6 7-3 4-6 8-22 26-48 53t-53 50q-12 9-24 17t-29 8m234-20q-15 0-20-8t-6-22q0-16 9-37t20-40 21-34q2-3 7-12t11-18 12-20 8-15q7-14 7-20 0-4-3-4-7 0-31 20-9 9-22 23t-29 30-27 35-20 35q-3 6-7 9t-7 3q-9 0-9-10 0-3 2-7 5-14 14-37t21-48 21-50 19-41q-11 3-19 5t-15 2q-4 0-6 0-5-2-5-3t6-2q8 0 19-3t24-7q8-18 19-40t25-44 30-44 36-38 42-27 46-10q13 0 21 8t7 23q0 14-9 30-9 16-24 31t-36 32q-20 15-42 29t-45 26-44 21q-17 34-32 68t-28 67q3-5 12-16t20-22 20-21q10-10 23-20t25-17 22-7q10 0 14 4t4 11q0 11-7 25t-13 26q-4 6-13 20t-18 28-15 23q-7 11-16 25t-14 27-7 20q-1 3-1 5t0 5q0 12 9 12 4 0 9-2 5-2 14-10t19-18 19-20 14-15l37-43q2-3 5-6t5-5q5-6 10-12 1-1 3-1 3 0 3 3 0 2-3 6-5 7-12 14t-11 14q-4 5-13 16t-17 22-18 22q-10 11-23 23t-25 20-22 8m27-290q20-9 41-21 20-12 40-25t38-28q18-14 31-29 14-15 22-29t7-28q0-4-2-9t-12-4q-15 0-31 8t-32 21-28 28-22 28q-25 34-52 88m59 301q-18 1-29-7t-11-18q0-7 5-15t16-14q21-13 48-18t53-14l10-20q6-13 12-34t10-42 6-37q-14 14-28 28t-27 31-33 38q-3 4-5 4t-1-3q0-6 6-13l36-43q8-10 18-21t21-21l12-13q2-9 5-18t8-16 16-7q10 0 13 6t2 11q-4 1-14 10t-19 17q0 5 0 10t0 11q0 12-1 27t-3 33q-4 26-11 49 13-7 24-15t23-20q4-5 8-9t8-10q1-1 2-1 2 0 3 3t0 4q-9 13-21 24-10 11-23 19t-28 17q-14 37-41 60t-70 27m-11-11q6 0 12-2 18-4 37-18t37-42q-22 6-44 11-22 5-43 17-16 10-16 22t17 12m187 20q-9 0-16-8t-7-25q0-10 2-20 1-5 4-19t7-30q4-18 12-42t20-50q8-21 17-40t18-36h-69q-5 0-5-2 0-6 11-6h68q12-22 26-42t30-38q8-10 15-14t15-6 18-3q-23 28-41 52t-32 51h74q6 0 6 3 0 2-3 3t-8 2h-73q-12 21-23 44t-24 51q-10 23-19 49t-13 49-5 31q0 23 13 23 6 0 15-6 19-12 35-25t29-26q8-7 18-18t21-23 18-20l9-10q1-1 2-1 3 0 3 4 0 2-2 5-2 4-5 7-4 4-7 8-21 26-47 53t-54 50q-11 9-24 17t-29 8m208-86q-17 0-29-15t-11-37q0-18 6-35 6-17 16-33t24-29q17-17 38-30t40-13q14 0 22 6t8 17q0 6-4 13 13 1 25 1 10 0 19-1t19-3h2q4 0 4 2t-4 4q-5 2-17 4t-24 3-22 1q-4 0-6 0t-5 0l-5 2q6 9 6 24 0 20-10 40t-25 39-34 29-33 11m4-12q14 0 27-10t23-26 18-34 10-35q1-3 1-6t0-5q0-4-1-8t-2-6q-1 0-1 0-6-1-9-3t-6-5q-2-2-2-6t2-5 7-1q12 2 27 4 5-8 5-15 0-12-18-12-11 0-23 8t-23 21-22 29-18 31q-5 10-9 25t-4 28q0 12 4 21t14 10m224 10q-8 0-12-6t-3-16q0-16 8-36t21-42 20-41 9-33q0-6-3-10t-6-4q-6 0-15 6-9 7-21 22l-19 23q-14 18-29 38t-27 38-17 28q-4 8-10 8-4 0-7-4t-3-9q0-3 2-8 17-33 33-71t31-69q5-9 15-15t19-6q7 0 7 5 0 3-4 12-6 8-14 22t-16 28-16 29-11 22q6-8 15-23t27-35l16-19q16-19 30-26t25-7q9 0 15 5t7 15q0 13-6 26t-9 20q-3 8-10 22t-13 30-11 30-4 22q0 6 4 6 5 0 13-5t16-12 13-10q17-15 34-35 2-3 4-3t1 3q0 1-1 4t-3 5q-3 5-9 13t-14 16q-10 12-23 22t-28 19q-4 2-8 3t-5 2-4 1-4 0m104 72q-19 0-30-16t-10-45q0-5 0-10t1-10q3-25 15-54t38-62q17-22 37-33t38-11q13 0 23 5 12 7 12 24 0 12-9 27t-30 30q-29 18-48 24t-30 6q-4 6-8 17t-7 25-4 23q0 2 0 4t0 5q0 15 5 25t19 11q12 0 27-9t29-21 26-23 16-17l37-43 20-23q2-1 3-1 3 0 3 4 0 1-3 5-5 7-11 14t-12 14q-7 8-17 21t-22 26-21 23q-19 19-41 32t-46 13m11-133q7 0 18-5t22-12 21-15 16-12q11-9 17-20t5-19q0-5-3-9t-8-4q-10 0-23 10t-24 26-23 32-18 28m345 156q-3 0-5-1-5-2-7-11t-2-21q0-14 2-30t5-29 5-23q-6-3-15-12t-11-15q-1-4-1-7t1-5q1-2 2-1t2 1q1 7 7 13t11 9 8 6q3-11 14-34 11-23 27-54t34-65l36-69q17-33 31-62t23-49q-5 6-13 18t-16 26-15 25q-14 22-28 46-14 24-29 46t-31 42q-16 20-35 35-19 14-40 22t-45 8q-17-1-27-16t-10-31q0-9 3-17 5-11 16-24t23-24 24-17q2-1 2 0 0 1-1 3-7 6-15 18t-15 27-11 27q-4 13-4 23 0 10 4 16t13 7q20 0 42-15 21-15 44-39t45-52 42-58q10-15 22-33t23-34 18-24q8-10 12-15t13-5q8 0 11 5t3 13q0 8-3 17t-5 17q-18 38-39 76t-41 76q-21 38-40 77t-34 78q4 1 11 3t13 2q9-24 17-46t19-46q11-24 24-53t34-68q8-16 18-36t24-39 29-31 34-12q20 0 30 12t10 28q0 5-1 11-4 20-18 39t-32 35-39 26q47 7 76 28t30 49q0 21-11 38-10 18-28 31t-41 23-50 15q-19 4-38 6t-39 2q-15 0-30-1-4 14-12 33t-18 35-24 25q-4 2-9 4t-9 2m88-109q13 0 28-1 44-4 83-21 19-8 34-20 14-12 23-27t9-32q0-29-22-48t-53-21q-2 2-7 9t-8 11q-4 5-8-1t-4-14 5-13q2-3 8-4t16 0l15-18q12-14 24-31t21-35 9-37q0-8-2-13t-10-4q-10 0-22 9t-24 25-23 33q-12 18-21 35t-17 31-9 20q-27 63-40 107l-19 60q4 0 7 0t7 0m-81 98q4 0 9-8t10-21 11-25 9-23 6-14q-6 0-14-2t-11-2q-2 3-6 12t-7 19-4 16q-1 7-3 19t-2 21q0 8 2 8m355-82q-17 0-28-15t-11-37q0-18 6-35 6-17 16-33t23-29q17-17 39-30t40-13q14 0 21 6t8 17q0 6-4 13 13 1 26 1 9 0 19-1t19-3h2q4 0 4 2t-5 4q-5 2-16 4t-24 3-23 1q-3 0-6 0t-4 0l-5 2q6 9 6 24 0 20-10 40t-26 39-33 29-34 11m5-12q13 0 26-10t24-26 18-34 10-35q0-3 0-6t0-5q0-4 0-8t-2-6q-1 0-2 0-6-1-9-3t-6-5q-2-2-2-6t3-5 6-1q13 2 27 4 5-8 5-15 0-12-18-12-11 0-23 8t-23 21-22 29-18 31q-5 10-9 25t-3 28q0 12 4 21t14 10m218 11q-10 0-15-6t-4-18q0-13 5-31t13-37q-7 11-17 24t-20 24-21 19-18 8q-14 0-20-10t-5-22q0-8 1-16t4-13q9-26 23-54t32-54 35-45q12-12 18-12 3 0 3 3t-3 10-10 15q-6 7-15 24t-21 39-21 43-16 38q-4 9-6 17t-1 12q0 12 8 12 10 0 27-19 4-5 11-16t16-22 17-24 13-19l12-21q2-5 10-8t14-3q5 0 5 4 0 6-3 11t-6 13q-7 12-14 28t-13 32-6 25q-2 8-2 17 0 2 0 4t1 3q1 7 5 7 2 0 5-2 11-5 22-16t21-21q5-6 9-11t9-10q1-2 2-2 3 0 3 4 0 3-2 5l-22 27q-5 6-11 12t-12 12q-10 10-21 15t-19 5m179-1q-8 0-12-6t-3-16q0-16 8-36t21-42 20-41 9-33q0-6-3-10t-6-4q-6 0-15 6-9 7-21 22l-19 23q-14 18-29 38t-27 38-17 28q-4 8-10 8-4 0-7-4t-3-9q0-3 2-8 17-33 33-71t31-69q5-9 15-15t19-6q7 0 7 5 0 3-4 12-6 8-14 22t-16 28-16 29-11 22q6-8 15-23t27-35l16-19q16-19 30-26t25-7q9 0 15 5t7 15q0 13-6 26t-9 20q-3 8-10 22t-13 30-11 30-4 22q0 6 4 6 5 0 13-5t16-12 13-10q17-15 34-35 2-3 4-3t1 3q0 1-1 4t-3 5q-3 5-9 13t-14 16q-10 12-23 22t-28 19q-4 2-8 3t-5 2-4 1-4 0m119 15q-22 0-31-13t-9-33q0-15 4-32t9-33 12-27q10-21 24-42t30-39 33-28 34-11q14 0 21 10t8 24q0 15-8 26-17 24-24 24-3 0-3-3t4-14q2-5 5-14t5-18 2-16q-1 0-4 0-11 0-23 8t-25 22-23 28-17 28q-6 10-12 24t-13 30-8 29q-2 7-3 14t-1 13q0 11 4 19t15 7q17 0 34-8t32-20 27-26q11-10 19-21 1-2 2-2 3 0 3 5 0 2-2 4l-22 26q-10 13-27 26t-35 23-37 10m135 57q-20 0-30-16t-11-45q0-5 0-10t1-10q3-25 15-54t38-62q17-22 37-33t39-11q13 0 23 5 12 7 12 24 0 12-9 27t-31 30q-28 18-47 24t-31 6q-4 6-8 17t-7 25-3 23q0 2-1 4t0 5q0 15 5 25t19 11q12 0 27-9t30-21 26-23 16-17l37-43 20-23q1-1 2-1 3 0 3 4 0 1-2 5-5 7-12 14t-11 14q-7 8-18 21t-21 26-22 23q-19 19-41 32t-45 13m11-133q7 0 17-5t22-12 21-15 16-12q12-9 17-20t6-19q0-5-3-9t-8-4q-11 0-23 10t-25 26-23 32-17 28" />
</svg>