<svg id="fnt-Birthstone" viewBox="0 0 1480 1000" xmlns="http://www.w3.org/2000/svg"><path id="birthstone" class="f" d="M82 677h-17q-11 0-23-2t-20-10-8-22q0-11 8-30t21-40 27-42 24-35q12-16 21-32t12-28q-1-1-10 1t-21 2q-8 0-11-2t-3-6q0-2 1-5t3-6q22-2 47-9t52-12 48-5q33 0 47 15t14 36q0 19-12 34t-31 29-40 21-41 14-32 6q20 0 38 5t29 16 12 27-10 30-26 23-34 15-36 9-29 3m13-129q17-1 40-8t49-18 47-25 35-28 14-30q0-20-45-20-23 0-47 5t-48 9q3 5 3 13 0 11-6 25t-14 29-16 28-12 20m-16 118q17 0 36-7t36-18 28-23 11-23q0-16-12-24t-30-10-32-3q-9 0-17 0t-11 1q-7 13-19 30t-22 34-9 29q0 6 7 10t34 4m265-197q-6 0-9-4t-4-8q0-8 5-13t12-5 10 4 3 11q-1 6-6 11t-11 4m-69 198q-11 0-19-8t-8-24q0-8 2-17 4-23 14-45t20-37 13-21q3-5 13-10t18-4q6 0 6 4 0 3-3 6-7 12-17 27t-19 33-15 33-6 31q0 7 3 12t10 4q8 0 19-8t20-17 14-15q5-6 10-11t9-10q1-2 2-2 3 0 3 5 0 2-2 4-5 7-11 13t-11 14q-8 9-18 19t-22 17-25 7m145 2q-10 0-16-6t-7-19q0-5 1-10t3-8q2-8 9-20t16-25 14-24q8-13 8-22 0-11-9-17-4-2-7-5t-6-4l-14 23q-12 16-25 34t-25 32-21 25q-1 1-3 1-2 0-4-2t1-5q19-22 37-45t34-49l12-20q-2-2-7-7t-8-11-3-11q0-4 2-6t10-2q17 0 17 36 7 6 15 9t16 5 13 8 5 15q0 9-5 20t-11 20q-5 7-13 18t-13 21-10 19q-2 6-2 9 0 7 6 7 5 0 13-5 11-5 22-16t21-21q5-5 10-11t8-10q2-2 3-2 3 0 3 5 0 2-2 4-11 13-22 26t-23 25q-8 6-20 14t-23 7m98-1q-11 0-18-6t-8-22q0-4 1-8t1-9q4-20 17-49t32-65h-19q-6 0-6-3 0-1 3-3t8-2h18q8-14 13-23t9-12q13-17 24-24t19-7 11-1q-7 7-15 19t-17 25-13 23h51q5 0 5 3 0 2-3 3t-8 2h-50q-8 15-15 26t-12 24-15 31q-7 15-11 26t-3 19q0 9 4 13t10 4 14-4q11-5 22-16t21-21q5-6 10-11t8-10q2-2 3-2 3 0 3 4 0 3-2 5-11 13-22 27-14 15-30 30t-40 14m56 1q25-62 51-115t49-95q17-32 32-48t29-21 22-5q-12 13-28 36t-32 53-34 63-32 67q4-6 13-18t20-24 24-26 24-20 22-8q11 0 14 5t4 13q0 9-6 22t-15 27-18 26-14 22q-7 14-7 22 0 7 7 7 2 0 5-1t7-3q11-5 22-16t21-21q5-6 9-11t9-10q1-2 2-2 3 0 3 5 0 2-2 4-10 13-22 27-6 6-12 12t-11 12q-21 20-40 20-10 0-15-6t-5-16q0-13 7-30t17-33q1-1 6-9t12-19 11-20 5-13q0-4-4-2t-14 10q-10 9-23 23t-27 30-27 33-21 30l-3 9q-3 8-9 10t-12 2-14 2m243 9q-19 0-40-15-9-7-15-18-4-6-4-13 0-8 6-8 2 0 6 4t7 11q4 10 9 17t16 7q10 0 17-11t10-30 5-38 3-37 1-25q-24 28-45 53t-39 48q-2 2-3 2t-2-3q0-5 3-9 10-12 22-27t24-29 22-27 14-18q0-15 7-24t17-12 19-4q9 0 13 2 3 1 3 3 0 2-5 3-12 3-17 13t-6 23-1 30q0 23-2 48t-7 43q-1 4-3 8t-3 8q14-10 28-22t21-20q5-5 9-11t9-10q1-2 3-2 3 0 3 4 0 3-3 5-10 13-21 27t-24 24q-5 5-14 12t-17 11q-14 7-26 7m113-10q-11 0-18-6t-8-22q0-4 1-8t1-9q4-20 17-49t32-65h-19q-6 0-6-3 0-1 3-3t8-2h18q8-14 13-23t9-12q13-17 24-24t19-7 11-1q-7 7-15 19t-17 25-13 23h51q5 0 5 3 0 2-3 3t-8 2h-50q-8 15-15 26t-12 24-15 31q-7 15-11 26t-3 19q0 9 4 13t10 4 14-4q11-5 22-16t21-21q5-6 10-11t8-10q2-2 3-2 3 0 3 4 0 3-2 5-11 13-22 27-14 15-30 30t-40 14m114 2q-18 0-28-12t-9-30q0-21 11-46 10-23 26-41t34-30 36-11q20 0 30 12t9 32q0 20-10 44-6 12-16 26t-24 27-29 21-30 8m10-10q10 0 21-7t20-18 16-21 11-18q9-16 13-31t4-26q0-24-18-24-11 0-24 9t-23 23-20 33q-18 36-18 58 0 18 11 21 2 1 3 1t4 0m81 10q22-40 36-78t33-75q5-10 14-14t16-3q7 0 12 1-2 4-8 14t-13 23q-5 9-15 28t-19 39q5-6 14-18t22-28 26-28 27-23 24-8q8 0 14 5t6 13q0 13-10 29t-21 33q-2 3-8 12t-11 19-10 20-4 16 4 5q10 0 20-7t20-18 15-16q5-6 10-11t9-11q1-1 2-1 3 0 3 4 0 3-2 5-5 7-11 13t-11 14q-6 6-12 12t-11 12q-22 20-40 20-13 0-17-7t-4-19q0-12 6-26t16-29 19-28 17-26 6-20q0-3-3-3-3 0-12 7t-19 17-19 19-11 13q-13 14-25 29t-22 30q-6 9-10 17t-10 19q-3 4-7 5t-11 1q-5 0-8 0t-7 3m232 4q-18 0-29-11t-11-30q0-15 5-31t12-26q11-21 27-39t34-28 32-11q13 0 23 8t10 20q0 5-3 11t-8 14q-20 25-44 39t-55 22q-2 6-4 12t-2 12q-1 3-1 5t0 5q0 10 4 14t12 4q11 0 24-6t23-13 17-12q5-5 10-10t12-12q5-5 10-11t8-10q2-2 3-2 3 0 3 5 0 2-2 4-9 11-18 22t-19 21q-11 11-30 23t-43 11m-4-69q13-5 30-16t33-25 27-32q4-5 4-10 0-7-8-7-6 0-14 4-25 14-43 37t-29 49" />
</svg>