<svg id="fnt-Biryani" viewBox="0 0 1651 1000" xmlns="http://www.w3.org/2000/svg"><path id="biryani" class="f" d="M252 474q68 22 68 90 0 52-31 77t-104 26h-131v-379h131q66 0 93 25t27 76q0 31-13 52t-40 33m-150-145v127h83q70 0 71-63 0-35-16-50t-55-14h-83m169 232q0-33-22-49t-64-15h-83v129h83q47 0 66-16t20-49m129-223v-75h47v75h-47m0 329v-277h47v277h-47m267-283h12v44h-12q-43 0-83 35v204h-47v-277h47v31q41-37 83-37m247 6h47l-122 321q-13 34-24 51t-25 23-39 7q-14 0-29-4v-42q13 3 26 3 17 0 26-10t22-40l13-33-105-276h49l79 214 82-214m187 0q44 0 67 15t31 39 7 63v160h-47v-28q-19 18-38 26t-41 8q-26 0-47-11t-33-33-12-50q0-45 28-70t75-24q38 0 68 16-1-24-5-39t-19-22-41-8h-37v-42h44m-14 243q17 0 35-8t37-24v-63q-28-14-61-14-26 0-44 12t-18 43q0 28 15 41t36 13m328-249q51 0 76 27t25 89v167h-47v-167q0-39-14-55t-46-17q-39 0-78 34v205h-47v-277h47v30q41-36 84-36m188-46v-75h47v75h-47m0 329v-277h47v277h-47" />
</svg>