<svg id="fnt-BIZ UDGothic" viewBox="0 0 2974 1000" xmlns="http://www.w3.org/2000/svg"><path id="biz-udgothic" class="f" d="M30 679v-405h84q36 0 61 16 41 26 41 84 0 74-64 93v2q74 23 74 100 0 65-43 93-26 17-60 17h-93m83-370h-44v142h42q24 0 41-15 22-18 22-59 0-36-19-53-15-15-42-15m-3 177h-41v157h51q28 0 45-20 17-19 17-56 0-47-29-68-18-13-43-13m203-177v-35h125v35h-42v335h42v35h-125v-35h41v-335h-41m216 4v-39h189v34l-115 252q-22 48-40 78v2h165v39h-210v-33l117-253q15-33 39-79v-1h-145m495 232v-271h40v267q0 107 61 107 60 0 60-107v-267h41v271q0 51-14 84-7 16-18 29-27 30-69 30-59 0-85-56-16-32-16-87m246 134v-405h68q53 0 91 33 59 50 59 169 0 114-53 168-34 35-99 35h-66m74-367h-33v329h31q42 0 67-32 36-45 36-133 0-88-37-133-25-31-64-31m389 369h-32l-6-49q-19 55-70 55-52 0-82-60-26-52-26-148 0-87 26-143 32-70 94-70 49 0 88 49l-27 30q-24-39-61-39-34 0-53 38-23 49-23 137 0 82 16 118 21 48 51 48 28 0 45-27 10-16 15-27 5-16 5-21v-54h-63v-36h103v199m143-304q47 0 73 44 24 41 24 110 0 65-20 105-26 52-78 52-46 0-72-43-25-41-25-114 0-69 24-110 26-44 74-44m-1 35q-25 0-39 29-15 32-15 91 0 54 12 84 14 35 42 35 23 0 37-24 18-30 18-95 0-63-17-94-14-26-38-26m219-98l41-20v90h68v34h-68v190q0 24 3 31 5 12 19 12 16 0 31-14l13 29q-20 19-50 19-38 0-51-30-6-13-6-44v-193h-54v-34h54v-70m194 365v-427h40v180q11-28 32-42 17-11 34-11 28 0 48 24 21 28 21 90v186h-40v-184q0-79-34-79-16 0-32 18-19 21-29 57v188h-40m314-359v-53h46v53h-46m3 359v-295h41v295h-41m342-69l25 28q-31 50-85 50-49 0-79-41-30-41-30-113 0-55 19-94 12-25 31-41 26-22 60-22 47 0 75 40l-20 31q-13-18-23-25-13-9-31-9-28 0-46 28-23 33-23 93 0 45 14 75 20 40 54 40 15 0 30-9 17-11 29-31" />
</svg>