<svg id="fnt-BIZ UDMincho" viewBox="0 0 2966 1000" xmlns="http://www.w3.org/2000/svg"><path id="biz-udmincho" class="f" d="M25 305v-18h97q40 0 63 23 26 26 26 66 0 35-16 58-15 21-43 28v2q39 12 57 45 13 23 13 53 0 51-29 79-27 26-68 26h-100v-18q25-3 25-25v-296q0-11-6-16-5-4-19-7m57 31v117h30q32 0 51-26 13-20 13-51 0-34-19-52-12-12-37-12h-18q-20 0-20 24m36 142h-36v141q0 12 4 17 6 6 20 6h17q28 0 46-22 17-21 17-58 0-40-19-63-19-21-49-21m208-173v-18h97v18q-18 1-25 6-7 5-7 19v293q0 13 8 19 5 4 24 7v18h-97v-18q20-3 26-8 6-5 6-18v-293q0-14-6-19-7-5-26-6m216 81l3-99h166v29l-142 326h68q39 0 51-29 8-16 13-58h17l-5 112h-179v-27l143-328h-64q-27 0-39 19-11 17-17 55h-15m476-81v-18h79v18q-12 1-17 7-6 5-6 17v197q0 63 10 87 12 32 46 32 34 0 45-32 10-28 10-89v-195q0-11-4-17-5-5-18-7v-18h67v18q-14 2-19 7-4 4-4 17v195q0 55-6 81-15 71-72 71-47 0-70-40-12-19-15-52-2-22-2-58v-197q0-14-5-19-5-4-19-5m250 0v-18h89q57 0 89 54 28 49 28 135 0 97-36 149-30 42-81 42h-89v-18q13-2 18-8 5-5 5-17v-295q0-13-6-18-4-5-17-6m55 26v288q0 13 5 18 4 5 17 5h14q38 0 58-43 21-44 21-127 0-70-11-103-19-57-70-57h-14q-11 0-16 4-4 4-4 15m184-26v-18h63l55 275 53-275h64v18q-13 2-16 5-4 4-4 18v296q0 13 4 18 4 5 16 7v18h-72v-18q13-3 17-7 4-6 4-18v-287h-2l-58 292h-23l-58-299h-2v294q0 13 4 18 4 4 18 7v18h-63v-18q12-2 15-7 4-4 4-18v-295q0-13-3-17-4-5-16-7m368-42q9 0 17 5 14 9 14 26 0 12-9 21-9 10-22 10-8 0-15-4-16-9-16-27 0-14 11-23 9-8 20-8m50 404h-99v-18q21-3 27-8 7-7 7-22v-179q0-14-6-18-6-6-25-7v-18q30-1 63-10v232q0 16 7 22 7 5 26 8v18m182 0h-80v-18q17-3 22-10 5-6 5-20v-183q0-12-5-15-7-5-22-6v-18q31-1 59-10v42q8-18 21-29 16-13 35-13 40 0 54 46 8 25 8 64v122q0 16 6 22 6 6 21 8v18h-79v-18q12-3 15-8 5-7 5-22v-124q0-79-35-79-13 0-26 13-14 14-25 43v147q0 16 5 22 3 5 16 8v18m334-79l16 12q-21 77-77 77-42 0-68-45-23-39-23-101 0-55 21-94 27-50 74-50 30 0 48 18 19 18 19 39 0 12-7 19-7 8-18 8-16 0-22-14-2-4-2-9 0-15 12-22-7-15-28-15-21 0-37 25-22 34-22 96 0 53 18 86 16 31 40 31 37 0 56-61m166 79h-80v-18q17-3 22-10 5-6 5-20v-293q0-12-5-15-7-5-22-6v-18q31 0 59-10v152q8-18 21-29 16-13 35-13 40 0 54 46 8 25 8 64v122q0 16 6 22 6 6 21 8v18h-79v-18q12-3 15-8 5-7 5-22v-124q0-79-35-79-13 0-26 13-14 14-25 43v147q0 16 5 22 3 5 16 8v18m268-280q37 0 62 37 28 41 28 109 0 54-19 92-25 52-71 52-41 0-66-42-24-39-24-102 0-76 34-118 24-28 56-28m0 24q-21 0-36 26-18 33-18 94 0 55 18 91 15 31 36 31 18 0 33-25 21-37 21-96 0-64-20-97-14-24-34-24" />
</svg>