<svg id="fnt-Black Han Sans" viewBox="0 0 4227 1000" xmlns="http://www.w3.org/2000/svg"><path id="black-han-sans" class="f" d="M246 667h-216v-375h195q54 0 77 21t23 61q0 40-15 62t-39 29v3q72 13 72 99 0 45-24 72t-73 28m-49-150h-47v62h46q26 0 26-31 0-31-25-31m-9-143h-38v56h37q23 0 23-28t-22-28m197 236v-333l120-9v313q10 2 17 3t13 1l-6 88q-76 0-101-9-21-7-32-19t-11-35m328-252q144 0 144 99v210h-60l-34-34q-9 10-22 18t-26 13-28 9-28 3q-26 0-46-6t-34-16-22-31-7-46q0-108 163-108h24v-22q-10 0-18-1t-14 0q-67 0-116 16l-15-86q60-18 139-18m-42 206v24h25q26 0 34-6 7-6 7-15v-29h-25q-21 0-31 5t-10 21m460 13l7 86q-31 13-80 13-84 0-122-40t-37-119 37-120 122-39q53 0 80 12l-14 82q-16-3-29-5t-22-2q-45 0-45 32v108q8 1 19 2t26 1q28 0 58-11m226 90h129l-72-157 69-143h-129l-44 99h-4v-198l-120 9v390h120v-119h4l47 119m525 0h120v-375h-120v132h-90v-132h-120v375h120v-133h90v133m322-309q144 0 144 99v210h-60l-34-34q-9 10-21 18t-26 13-29 9-28 3q-25 0-46-6t-34-16-21-31-8-46q0-108 163-108h24v-22q-9 0-17-1t-14 0q-68 0-117 16l-14-86q60-18 138-18m-42 206v24h25q26 0 34-6 7-6 7-15v-29h-24q-22 0-32 5t-10 21m240 103v-300h60l30 30q56-39 120-39 43 0 66 18t24 51v240h-120v-210h-18q-21 0-31 4t-11 19v187h-120m492-7l17-99q55 14 100 14 22 0 39-1t31-3v-30l-54-4q-36-4-61-12t-39-24-21-35-6-49q0-38 8-64t25-42 45-22 68-6q80 0 144 15l-15 96q-56-9-89-9t-57 3v29l43 4q39 4 66 13t42 25 23 35 7 47q0 38-10 64t-24 40q-11 11-28 17t-36 9-39 4-34 1q-39 0-75-4t-70-12m503-302q144 0 144 99v210h-60l-34-34q-9 10-21 18t-26 13-29 9-28 3q-25 0-46-6t-34-16-21-31-8-46q0-108 163-108h24v-22q-9 0-17-1t-14 0q-68 0-117 16l-14-86q60-18 138-18m-42 206v24h25q26 0 34-6 7-6 7-15v-29h-24q-22 0-32 5t-10 21m240 103v-300h60l30 30q56-39 120-39 43 0 66 18t24 51v240h-120v-210h-18q-21 0-31 4t-11 19v187h-120m386-288q39-21 106-21 67 0 123 18l-14 82q-23-7-46-10t-47-3q-7 0-18 0t-23 2v19q28 0 57 3t52 13 39 30 16 56q0 24-6 43t-17 31q-12 12-25 19t-33 10q-16 2-34 3t-39 2q-74 0-135-18l15-85q26 8 53 12t56 4q14 0 26-1t24-2v-19q-48 0-81-6t-52-19-28-34-8-50q0-58 39-79" />
</svg>