<svg id="fnt-Black Ops One" viewBox="0 0 3778 1000" xmlns="http://www.w3.org/2000/svg"><path id="black-ops-one" class="f" d="M279 667h-125v-65h80v-69h-80v-57h80v-69h-80v-64h125l65 64v66l-33 33 33 32v64l-65 65m-143 0h-107v-324h107v324m411 0h-96l-61-61v-298h108v294h49v65m304 0h-106v-195h-153v-32l32-33h162l65 65v195m-155 0h-83l-43-43v-65l43-43h115v45h-56v45h56v29l-32 32m309 0h-43l-65-65v-130l65-65h43v260m173-156h-108v-39h-48v-65h91l65 65v39m-65 156h-91v-61h48v-32h108v28l-65 65m217 0h-108v-359h108v359m178-260l-161 223v-148l50-75h111m6 260h-117l-18-53 64-86 71 139m403 0h-84v-66h42v-193h-42v-65h84l65 64v195l-65 65m-101 0h-83l-66-65v-195l66-64h83v65h-40v193h40v66m429 0h-91v-61h48v-134h-48v-33l32-32h59l65 65v130l-65 65m-108 86h-108v-346h108v346m440-86h-48v-98h-116l-57-54v-50l59-58h43v92h123l56 57v50l-60 61m51-192h-99v-20h-54v-48h115l38 39v29m-116 192h-111l-45-54v-21h108v27h48v48m542 0h-84v-66h41v-193h-41v-65h84l65 64v195l-65 65m-101 0h-83l-66-65v-195l66-64h83v65h-40v193h40v66m494 0h-108v-195h-47v-28l37-37h60l58 59v201m-172 0h-109v-260h109v260m328 0h-43l-65-65v-130l65-65h43v260m173-104h-156v-46h57v-45h-57v-65h91l65 65v91m-43 104h-113v-61h145v28l-32 33" />
</svg>