<svg id="fnt-Blinker" viewBox="0 0 1421 1000" xmlns="http://www.w3.org/2000/svg"><path id="blinker" class="f" d="M261 577q0 48-26 69t-83 21h-116v-314h115q52 0 74 18t22 60q0 30-11 47t-36 22q31 4 46 23t15 54m-53-140q0-26-13-37t-43-10h-73v98h73q30 0 43-12t13-39m12 137q0-28-15-39t-53-11h-73v105h73q37 0 53-12t15-43m93-240h41v333h-41v-333m150 0v43h-44v-43h44m-2 86v247h-41v-247h41m107 54v193h-41v-247h36l2 24h1q20-15 42-22t49-7q41 0 62 20t21 61v171h-41v-166q0-25-14-37t-43-12q-18 0-37 5t-37 17m308 86h-31v107h-41v-333h41v190h30l86-104h50l-103 120 108 127h-52l-88-107m346 59v34q-13 7-38 12t-51 6q-58 0-83-30t-25-99q0-67 26-97t83-30q53 0 76 23t23 80q0 10-1 18t-2 21h-164q1 41 17 58t56 18q22 0 45-4t38-10m-27-107q0-33-14-47t-47-13q-37 0-53 15t-15 56h129q0-1 0-5t0-6m132-39v194h-41v-247h37l2 21h2q20-12 39-18t39-5q8 0 10 0t5 0v40q-4-1-9-2t-16 0q-18 0-36 4t-32 13" />
</svg>