<svg id="fnt-Bona Nova SC" viewBox="0 0 3161 1000" xmlns="http://www.w3.org/2000/svg"><path id="bona-nova-sc" class="f" d="M174 667h-141v-12q14 0 21-3t11-10 3-25v-233q0-17-4-25t-13-10-30-3v-12h47q25 0 40-1t29-1 31 0q53 0 77 18t25 48q0 30-20 48t-49 29v1q30 1 54 11t38 29 14 45q0 26-14 50t-43 40-76 16m-63-283v98q6-5 12-6t14-2q15-1 30-5t28-10 21-21 8-34q0-23-11-35t-28-15-34-4q-21 0-31 5t-9 29m59 265q35 0 55-13t28-33 8-38q0-27-14-44t-37-23-52-7q-25 0-36 6t-11 23v97q0 14 5 21t17 9 37 2m299-210q29 0 53 14t39 40 15 60q0 30-10 52t-27 38-38 23-39 8q-29 0-53-14t-40-40-14-59q0-30 10-53t27-38 37-23 40-8m1 215q30 0 47-21t17-66q0-30-10-55t-25-39-39-14q-29 0-46 21t-17 66q0 30 9 55t26 39 38 14m370-157v119q0 18 3 26t12 10 27 3v12h-112v-12q11 0 17-3t10-10 3-26v-107q0-18-8-28t-27-10q-16 0-34 7t-37 22v116q0 18 3 26t12 10 27 3v12h-112v-12q11 0 18-3t9-10 3-26v-113q0-14-4-18t-11-4q-6 0-11 1t-11 4l-5-12 81-37 3 3q-1 4-3 17t-1 28h1q19-20 41-33t49-13q32 0 44 16t13 42m129 177q-24 0-39-12t-14-35q0-19 11-34t38-29 72-24v-32q0-21-9-34t-33-14q-23 0-37 15t-19 46h-12v-63q18-8 37-14t44-5q28 0 42 7t21 21 6 30v121q0 27 17 27 6 0 13-4t19-17l8 8q-23 40-55 40-33 0-41-34h-1q-27 36-68 36m18-29q24 0 50-22v-67q-36 9-53 19t-22 22-5 20q0 14 9 21t21 7m625 26h-18q-8-12-17-24t-24-28l-183-207h-1v205q0 18 9 28t39 10v12h-105v-12q20-1 27-10t8-28v-233q0-19-12-28t-36-10v-12h68q8 13 16 25t20 23l184 207h1v-205q0-18-9-28t-39-10v-12h106v12q-20 1-28 10t-7 28v233q0 14 0 26t1 28m192-232q29 0 53 14t39 40 15 60q0 30-10 52t-27 38-38 23-39 8q-29 0-53-14t-40-40-14-59q0-30 10-53t27-38 37-23 40-8m1 215q30 0 47-21t17-66q0-30-10-55t-25-39-39-14q-29 0-46 21t-17 66q0 30 9 55t26 39 38 14m258 18h-22q-4-13-7-23t-9-22l-56-131q-7-17-13-25t-12-10-15-3v-11h106v11q-17 1-24 3t-6 11 7 24l49 115h1l47-115q10-24 4-30t-33-8v-11h89v11q-8 1-14 3t-11 11-12 24l-56 131q-5 14-8 23t-5 22m182 2q-23 0-38-12t-15-35q0-19 12-34t38-29 72-24v-32q0-21-9-34t-33-14q-24 0-38 15t-19 46h-11v-63q17-8 37-14t44-5q27 0 42 7t21 21 6 30v121q0 27 16 27 6 0 14-4t18-17l8 8q-23 40-55 40-33 0-40-34h-1q-28 36-69 36m19-29q24 0 50-22v-67q-36 9-53 19t-23 22-5 20q0 14 9 21t22 7m421 29q-14 0-31-3t-32-10-25-20-10-30q0-10 3-21t6-18h12q2 38 25 60t58 22q25 0 39-9t22-23 7-30q0-23-12-38t-30-25-38-20-39-20-29-29-12-43q0-27 14-47t38-32 57-11q29 0 48 4t30 9v73h-11q-3-32-19-49t-51-17q-25 0-40 7t-22 20-7 26q0 20 12 33t29 23 39 19 39 22 30 31 12 47q0 31-15 53t-39 34-58 12m347 0q-37 0-68-12t-56-35-36-54-13-70q0-41 15-74t41-55 60-35 72-12q18 0 37 2t36 7 28 9v79h-11q-2-29-17-46t-36-24-44-7q-35 0-66 16t-49 48-18 84q0 49 17 84t45 56 63 19q32 0 56-15t40-37 20-45h12l-3 58q-19 24-49 41t-76 18" />
</svg>