<svg id="fnt-Bonheur Royale" viewBox="0 0 2416 1000" xmlns="http://www.w3.org/2000/svg"><path id="bonheur-royale" class="f" d="M71 726q-22 0-22-23 0-16 9-40t26-53 35-60 39-58 36-52 28-37q-1-4 3-10t9-11 7-9q-4 0-8 0t-8 0q-31 0-65 6t-63 21-52 39q-8 9-16 23t-8 27q0 8 3 12t6 7 4 4q0 1-2 1-14 0-21-12t-6-24q0-12 4-24t13-20q17-22 45-36t60-21 65-11 58-3q0 0 1-2t2-2q5-4 12-6t14-2q2 0 6 0t4 4q0 2-3 5t-4 5q12 1 29 3t33 9 26 17 11 28q0 16-9 32t-25 30-33 26-36 19-32 8q9 0 17 1t17 6q13 6 24 15t11 26q0 6-3 14 9 6 9 18 0 1-1 5t-3 5q-1 0-1-2t-1-3q0-4-2-8t-5-6q-9 17-28 34t-44 31-49 21-44 9q-11 0-22-5t-11-17q0-12 7-22t18-20 23-16 20-10q13-6 31-11t38-8 32-3q1-3 2-6t0-6q0-13-7-21t-18-11-22-5q-17 8-37 8-2 0-9-1t-12-2-5-5q0-4 8-6t17-3 11-1q14-1 27-5t27-8q13-5 28-14t29-20 23-25 9-29q0-14-8-24t-20-16-26-9-24-5q-25 29-53 65t-55 76-48 79-31 77q-2 6-4 14t-1 15q0 4 1 9t7 5q5 0 9-1t9-1q0 0 1 0t2 1q0 2-8 4t-18 5-12 2m82-37q16 0 34-8t37-23 31-29 21-30q-14 0-32 4t-37 9-30 12q-7 5-18 13t-18 18-8 20q0 8 6 11t14 3m207-18q-11 0-18-5t-6-16q0-16 8-35t20-37 22-29v-1q0-12 9-20t23-11 23-4q13 0 21 6t9 21q0 12-6 28t-17 33-22 31-21 22q8 9 20 9 1 0 2 0t2 2q0 2-2 2t-3 1q-7 0-13-4t-10-8q-18 15-41 15m41-24q11-10 21-29t19-39 7-35q0-6-2-13t-11-6q-6 0-11 4t-8 10q1 2 2 4t1 5-1 2q-6 4-12 8t-11 10q-2 7-3 15t-1 16q0 12 2 25t8 23m-21 11q5 0 9-2t8-5q-8-13-12-29t-3-31q-7 10-12 21t-6 25q0 7 3 14t13 7m87 16q-3 0-3-2 14-24 26-49t22-51q0-1 2-6t2-5q0-1-2-1t-3-1q0-1 4-8t9-14 5-9q3-3 10-6t10-3q5 0 5 5 0 1-3 10t-9 20-11 23-10 21-6 12q4-5 13-15t21-21 24-22 21-18 16-6q4 0 4 3t1 5q0 7-1 14t-4 13q-4 15-10 35t-5 36q0 7 2 13t12 7q7 0 15-5t14-11 12-10 7-5q1 0 1 1 0 2-1 4t-2 3q-8 13-23 24t-30 12q-16 0-24-10t-7-24q0-13 4-29t9-29q1-4 2-9t2-10q0-1 0-2t-2-2q-3 0-7 3t-5 4q-10 8-22 21t-23 27-21 29-15 25q-1 2-6 5t-11 6-9 2m167 4q-1 0-1-1t0 0q0-2 4-11t5-10q18-42 35-84t37-84 45-78q-1-4-1-7 0-3 1-4l18-29q3-3 10-4t12-2q2 0 7 1t6 4q0 2-1 2-8 11-16 22t-16 23q-67 101-108 214 23-21 43-45t42-46q1-1 2-1t2-1q3-1 6-4t7-2q0 0 0 0h0q1 0 3 0 2 0 3 3t0 5q0 5-3 15t-8 13q-5 18-9 32t-4 34q0 5 1 13t9 8q7 0 15-5t14-11 12-10 7-5q1 0 1 2t-1 3-2 3q-8 13-23 24t-31 12q-15 0-20-11t-5-22q0-19 6-39t12-38q-3 3-12 13t-21 23-23 26-20 22-8 11q0 3 0 6t-2 6q-1 2-8 5t-13 6-9 3m179-8q-11 0-14-3t-4-15q0-12 6-27t11-26q0-1-1-1t0-1q0-2 2-4t3-3q2-4 4-8t4-7q9-14 21-26t28-17q5-2 10-2 1 0 2 0t2 2q0 1-3 3t-4 3q-8 7-17 20t-15 22q12-2 23-3t22 0q6-8 10-20t5-21q0-6-1-7t-6-1q-1 0-3 0t-2-2q0-2 5-4t9-2 7-1q13 0 13 13 0 7-4 16t-11 18-12 12q2 0 6 1t9 3 5 4q0 1-3 1t-4 1q-5 0-9-1t-9-1q-14 0-29 2t-28 5q-5 9-11 23t-6 25q0 18 18 18 13 0 25-7t23-17 17-16 7-7q2 0 2 2 0 6-7 14t-12 12q-17 13-39 22t-45 8m234 1q-13 0-18-11t-4-22q0-14 3-29t4-29q-6 8-17 21t-24 29-27 25-22 10q-19 0-19-20 0-13 5-27t13-27 13-24h-1q-3 0-3-2 0-1 0-2t1-1q7-12 11-21t12-13 23-4q3 0 3 3 0 3-6 13t-12 19-9 14q-4 6-10 19t-11 26-4 21q0 2 0 4t4 3q5 0 12-5t10-8q19-16 36-37t30-42q1-3 1-6 2-6 5-11t8-9q4-3 11-4t11-2q2 0 5 1t3 3-5 8-9 11-6 9q-5 8-8 23t-6 31-2 25q0 7 2 15t10 8 17-7 15-14 8-6q0 0 0 1 0 4-5 10t-11 11-8 8q-6 5-14 8t-15 4m34 3q-3 0-3-2 13-23 23-48t20-48l5-15q0-1-2-1t-3-1q0-1 4-8t9-14 5-9q2-3 9-6t11-3q5 0 5 5 0 1 0 3t-1 2q-8 18-17 36t-14 37q15-18 32-35t35-30q5-4 11-8t13-3q8 0 10 5t2 12q0 8-5 17t-14 9q-4 0-4-3 0-2 0-4t1-4q0-2-2-6t-5-3q-6 0-17 8t-23 19-21 22-13 16q-6 8-10 16t-6 17q-1 3-2 6t-2 6-8 6-13 7-10 2m412 52q-22 0-22-23 0-13 6-30t14-36 18-34 16-27q-8-3-18-8t-16-12-7-17q0-8 5-18t15-9q3 0 3 2 0 4-6 9t-5 14q0 8 6 15t13 10 14 7q10-15 19-30t19-29q-5-2-10-4t-11-2q-12 0-18 6t-10 16-5 16-6 7q-2 0-2-3 0-12 8-26t21-23 26-10q11 0 20 5 15-23 31-45t33-44q-1-5 6-14t11-13q-22-5-44-7t-45-2q-30 0-61 4t-60 15q-11 3-26 11t-26 18-12 25q0 11 7 18t17 13 19 9q0 0 2 1t2 2q0 1-3 2t-4 0q-3 0-4 0-7-3-18-7t-22-10-17-14-7-18q0-11 8-20t20-17 24-12 21-8q31-10 64-15t66-5q26 0 51 3t51 10q3-3 5-8t6-6q4-4 12-6t14-2q2 0 6 0t4 4q0 1-5 7t-9 11-7 8q13 4 27 11t27 18 21 22 9 29q0 19-13 36t-32 30-40 23-36 15q9 11 23 30t31 39 32 37 26 23q3 2 6 4t7 1q7 0 10-6t2-15 1-12q0-3 2-3 2 0 3 5t1 9 0 7q0 11-4 20t-17 9q-14 0-30-11t-33-29-33-37-29-37-21-27q-15 4-31 7t-32 3q-5 0-10 0t-10-1q-6 11-14 27t-15 32-12 34-4 29q0 4 1 9t7 5q5 0 9-1t8-1q1 0 2 0t2 1q0 2-8 4t-18 5-12 2m152-172q14-6 33-16t37-24 30-30 12-34q0-18-12-31t-28-22-30-13q-25 28-48 58t-43 61q13 11 25 24t24 27m-81 21q14 0 30-4t29-8q-9-12-19-22t-21-20q-8 13-17 26t-16 27q4 1 7 1t7 0m222 96q-11 0-18-5t-6-16q0-16 8-35t20-37 22-29v-1q0-12 9-20t23-11 23-4q13 0 21 6t9 21q0 12-6 28t-17 33-22 31-21 22q8 9 20 9 1 0 2 0t2 2q0 2-2 2t-3 1q-7 0-13-4t-10-8q-18 15-41 15m41-24q11-10 21-29t19-39 7-35q0-6-2-13t-11-6q-6 0-11 4t-8 10q1 2 2 4t1 5-1 2q-6 4-12 8t-11 10q-2 7-3 15t-1 16q0 12 2 25t8 23m-21 11q5 0 9-2t8-5q-8-13-12-29t-3-31q-7 10-12 21t-6 25q0 7 3 14t13 7m15 176q-14 0-28-5t-25-15-10-26q0-15 8-27t21-22 27-17 25-12q28-11 61-17t64-8q9-23 18-46t14-48l2-9q-6 8-18 23t-24 29-27 25-24 11q-8 0-11-8t-3-14q0-19 8-36t17-33l-1 0q-3 0-3-3 0 0 1-2 6-12 11-21t12-13 23-4q3 0 3 2 0 4-6 14t-12 19-9 14q-4 6-9 17t-10 23-4 18q0 3 1 5t4 2q7 0 17-8t21-19 21-26 18-24 12-18q4-7 5-15t10-12q3-2 9-5t9-2q5 0 5 5 0 7-5 14t-8 14q-5 8-9 20t-6 22q-8 22-16 44t-17 44h10q4 0 8 1t4 3-6 3-11 0-7 0q-10 24-26 49t-35 46-45 35-54 13m-2-11q24 0 46-13t40-34 32-43 24-42q-28 2-60 9t-57 20q-13 6-28 16t-27 24-11 30q0 17 13 25t28 8m327-152q-13 0-18-11t-4-22q0-12 2-25t4-24q-5 8-16 22t-24 27-28 23-24 9q-6 0-8-4t-1-9q0-10 5-26t14-34 20-33 23-24 25-8q6-3 12-6t13-2q5 0 10 0t11 2q2-1 5-2t6-1q6 0 6 5 0 3-3 10t-6 13-5 8q-5 9-9 23t-6 29-3 26q0 5 2 12t9 7q9 0 17-7t16-14 7-6 1 1q0 4-5 10t-11 11-9 8q-6 5-13 8t-15 4m-90-18q2 0 6-2t5-4q30-21 47-49t33-60q-2-1-4-2t-5 0q-10 0-19 5t-15 12q-10 10-20 26t-17 33-12 31q-1 2-1 3t-1 4q0 3 3 3m153 15q-14 0-14-15 0-6 2-14t5-13q13-35 33-74t41-75 43-67q-1-4-1-7 0-3 1-4 1-2 5-9t8-13 6-7q2-3 9-4t12-2q2 0 7 1t6 4q0 2-1 2-8 11-16 23t-16 23q-29 44-55 89t-48 92q-4 8-10 21t-5 23 8 9q6 0 14-4t15-11 13-10 7-4q1 0 1 2t-2 5-3 5q-9 11-26 20t-29 13q-2 0-5 0t-5 1m89 2q-11 0-14-3t-4-15q0-12 6-27t11-26q0-1-1-1t0-1q0-2 2-4t3-3q2-4 4-8t4-7q9-14 21-26t28-17q5-2 10-2 1 0 2 0t2 2q0 1-3 3t-4 3q-8 7-17 20t-15 22q12-2 23-3t22 0q6-8 10-20t5-21q0-6-1-7t-6-1q-1 0-3 0t-2-2q0-2 5-4t9-2 7-1q13 0 13 13 0 7-4 16t-11 18-12 12q2 0 6 1t9 3 5 4q0 1-3 1t-4 1q-5 0-9-1t-9-1q-14 0-29 2t-28 5q-5 9-11 23t-6 25q0 18 18 18 13 0 25-7t23-17 17-16 7-7q2 0 2 2 0 6-7 14t-12 12q-17 13-39 22t-45 8" />
</svg>