<svg id="fnt-Bowlby One" viewBox="0 0 3432 1000" xmlns="http://www.w3.org/2000/svg"><path id="bowlby-one" class="f" d="M27 394l-1-5v-15q0-31 2-72l-1-1 13 0q64-4 83-4h114q58 0 97 24 13 12 22 32t9 45q0 48-65 81 36 10 56 32t19 55q0 56-51 86-37 21-94 21l-73 0q-47 0-125 2-7-15-7-114t2-167m142 205h9q64 0 64-45 0-28-17-37-16-9-48-10h-7l-4 14q-2 25-2 50t5 28m62-164q5-9 5-22 0-26-18-35t-39-8-20 14q0 26 1 54l1 13q0 9 11 11l12-2q37-4 47-25m522 84q-1 2-1 3v2q0 40-18 72h0q-25 38-69 59t-88 20-72-8-52-25-36-31q-28-35-28-99 0-2 1-4v-3q-1-1-1-2l0-3h0q5-43 18-56 0-3 4-6v0l3-6q29-37 66-51l9-3q16-7 45-11l8-1q1 0 7-1t7-1l11 1q0-1 1-1t3 1l-1-1q2 1 5 1 1-1 3-1 53 0 90 22l5 2q80 38 80 131m-152 1q-1-48-14-65-5-7-13-7t-13 9-10 28-3 33 1 26 4 22 8 20 13 8q27 0 27-74m444-143l18 117h1q3-19 9-53l3-26 4-18q2-16 3-23h160q-14 66-52 239l-14 54h-155l-5-41q-5-27-9-64t-5-38l-22 143h-165q-8-39-17-94t-10-66l-5-32q0 0-17-101h82l81 0q0 6 1 9l2 11q8 77 10 102h1q1-5 3-19t3-22l12-71 1-6q27-1 82-1m217 290l0-384 62 0q28 0 88 1v383h-150m533-166l0 5v1l0 13q-1 115-74 146-23 9-52 9-40 0-78-35l-11 7-11 21h-125l0-191v-190q50 0 146 0 1 22 1 55t-1 61q22-18 46-29t46-10q41 0 70 28 5 5 8 10t5 6v-1l2 2q15 20 24 52 4 19 4 28t0 12m-151 32v-3q0-23-5-43-8-36-26-36-15 0-23 23t-8 65q0 28 14 49 8 11 17 11t15-6 11-22 5-24 0-10v-1q0-1 0-3m221 167v1q22-8 22-45 0-13-9-43l-4-12q-28-92-71-226h74l74 0 11 63q1 10 4 30t3 29l24-122h144v-1l5 1-1 5h0l-65 178q-10 25-15 42t-11 32-21 59-29 68q-22 38-70 41l-23 0-20 1q-6 0-10-1-1 1-5 1l-15-1-9 1q-1 0-6-1-10 0-21 0l-4-12q-1-2-1-4t0-3v-2l1-2v-28q0-29-1-43 4-1 8-1t6 1q4-1 9-1h2q2-1 9-2t11-2 4-1m609-231l-1 12q0 0 0 1v1q-1 10-1 23t2 27 7 28 14 23q11 9 24 9t23-3 15-10 11-16q12-27 12-82 0-57-13-80t-40-23q-13 0-23 6t-15 14-10 29-5 41m-141 14l0-5q3-31 8-54t16-44q26-46 73-69t100-23 99 21q26 13 41 33 28 36 38 66t9 69q0 88-37 133l-11 15q-23 27-64 41t-82 15q-70 0-115-29-75-50-75-169m405-109l65 1 65-1q1 6 5 17t6 21l4 19q10-25 12-28l4-4q25-35 76-35 24 0 46 14t34 38 12 49q0 3-1 5v150l1 47h-143l-1-122 1-25q0-37-19-37-22 0-22 35 0 8 1 11v3l0 5v130l-73 0h-73l0-147v-146m479-7l0 0q11-3 23-3t24 1l10 1q25 2 38 6v-1l5 3q51 16 79 48v0q7 8 17 23t9 22l2 7 2 7q4 16 4 27t0 17h-201v8q2 6 2 12t0 9 0 7 1 6 1 5 1 3 2 4 2 6 3 5v0l3 5q5 5 13 7 13-3 18-14t8-27q9-3 25-3l31 1h90q-3 30-18 55h1q-13 20-40 34-76 27-97 27-4 0-7-1h-5l-3 0h-2q-2 0-5 0-2 1-5 1l-22-2q-1 1-7 1t-27-7v0l-6-1-6-2q-36-11-63-38t-33-63q-1-4-3-13t-2-12v-12q0-4 1-6v-4q0-52 30-89t83-54l6-1q13-2 18-5m41 126h32l5-3q-4-27-8-34t-7-13q-6-10-16-10t-18 10q-13 18-17 51 16-1 29-1" />
</svg>