<svg id="fnt-Brawler" viewBox="0 0 1787 1000" xmlns="http://www.w3.org/2000/svg"><path id="brawler" class="f" d="M165 667h-147v-18l48-14v-286l-48-10 5-22h142q55 0 85 22t31 66q0 25-11 41t-29 24-36 12v2q23 1 44 10t35 28 14 46q0 38-17 60t-45 30-71 9m-49-193h57q13 0 26-7t21-22 9-38q0-29-17-46t-47-17h-49v130m0 165h49q30 0 47-10t25-27 8-34q0-17-8-33t-25-26-40-10h-56v140m416-229v67l-26 5-14-38q-2-1-5-1t-5 0q-16 0-33 7t-28 19v167l46 7-5 24h-129v-15l44-15v-192l-42-8-2-22 88-12v41q17-18 36-29t42-12q16 0 33 7m253 257h-76v-41q-10 12-26 22t-32 16-31 7q-26 0-46-17t-20-49q0-25 12-41t46-24q24-6 47-11t50-7v-41q0-28-15-40t-36-11q-12 0-24 1t-23 6l-14 57-26-5v-65q19-8 41-15t48-7q26 0 47 7t34 25 13 48v153l36 9-5 23m-181-66q0 24 11 31t26 7q12 0 26-6t24-15 18-18v-57q-16 2-32 4t-32 7q-24 7-33 19t-8 28m527-165l-34-5 5-24h95v15l-38 15-62 230h-28l-70-184-59 184h-27l-88-231-36-7 5-22h114v15l-39 12 64 165 61-192h21l73 190 43-161m141-144v344l42 7-5 24h-126v-15l44-15v-305l-41-8-2-20 88-12m293 241h-178q0 33 12 56t32 37 45 13q36 0 74-25l11 19q-25 19-51 29t-51 9q-33 0-61-16t-44-46-17-73q0-33 11-58t28-42 39-25 43-8q33 0 54 11t33 30 15 42 5 47m-176-27h126q0-27-9-44t-21-24-29-8q-15 0-31 8t-25 26-11 42m397-96v67l-26 5-14-38q-2-1-5-1t-5 0q-16 0-33 7t-28 19v167l46 7-5 24h-129v-15l44-15v-192l-42-8-2-22 88-12v41q17-18 36-29t42-12q16 0 33 7" />
</svg>