<svg id="fnt-Bruno Ace SC" viewBox="0 0 4362 1000" xmlns="http://www.w3.org/2000/svg"><path id="bruno-ace-sc" class="f" d="M454 567q0 27-13 50t-37 36-50 14h-237v-50h237q21 0 35-15t15-35-15-36-35-14h-237v-50h187q21 0 35-15t15-35-15-36-35-14h-212v300h-50v-350h262q28 0 50 13t37 36 13 51q0 15-4 29t-13 27q30 10 48 35t19 59m295 21l81 79h-68l-78-75h-101v-49h138q21 0 36-16t15-35q0-21-15-36t-36-15h-164v226h-50v-275h214q28 0 51 13t36 36 13 51q0 22-9 42t-26 34-37 20m379-196h50v137q0 29-11 54t-30 43-43 30-53 11h-28q-28 0-53-11t-44-30-29-44-11-53v-137h50v137q0 24 12 44t31 32 44 12h28q24 0 44-12t31-32 12-44v-137m420 275h-50q0-33-13-64t-34-56-48-47-55-35-53-20v222h-50v-275h27v0q27 2 57 12t61 28 58 42 50 54v-136h50v275m396-138q0 38-16 69t-44 50-67 19h-87q-38 0-67-19t-44-50-16-69 16-69 44-50 67-18h87q38 0 67 18t44 50 16 69m-50 0q0-24-9-44t-27-32-41-12h-87q-24 0-41 12t-27 32-9 44 9 44 27 32 41 12h87q24 0 41-12t27-32 9-44m697-212v350h-50v-100h-280v-50h280v-150h-180q-34 0-62 16t-46 46-16 63v175h-50v-175q0-36 13-68t38-56 55-38 68-13h230m367 299v51h-177q-39 0-68-19t-45-50-16-70 16-69 45-50 68-18h177v50h-177q-24 0-42 12t-27 31-9 44 9 45 27 31 42 12h177m343 0v51h-287v-276h287v50h-237v175h237m-32-114v51h-181v-51h181m667 65q0 27-13 50t-36 36-51 14h-304v-50h304q21 0 36-15t14-35-14-36-36-14h-204q-27 0-50-14t-36-36-14-50 14-51 36-36 50-13h279v50h-279q-20 0-35 14t-15 36 15 35 35 15h204q28 0 51 13t36 36 13 51m425 50v50h-225q-37 0-66-14t-51-37-33-56-11-68q0-36 11-68t33-56 51-38 66-13h225v50h-225q-35 0-60 16t-38 46-13 63 13 62 38 46 60 17h225" />
</svg>