<svg id="fnt-Bruno Ace" viewBox="0 0 3318 1000" xmlns="http://www.w3.org/2000/svg"><path id="bruno-ace" class="f" d="M454 567q0 27-13 50t-37 36-50 14h-237v-50h237q21 0 35-15t15-35-15-36-35-14h-237v-50h187q21 0 35-15t15-35-15-36-35-14h-212v300h-50v-350h262q28 0 50 13t37 36 13 51q0 15-4 29t-13 27q30 10 48 35t19 59m326-175v50h-188q-15 0-26 11t-11 26v188h-50v-188q0-24 11-44t32-32 44-11h188m360 0v275h-188q-28 0-53-11t-44-30-29-44-10-53v-137h50v137q0 24 11 44t32 31 43 13h138v-225h50m122 50v225h-50v-275h187q29 0 53 10t44 30 29 44 11 53v138h-50v-138q0-24-12-44t-31-31-44-12h-137m674 87q0 29-11 53t-29 44-44 30-53 11h-77q-28 0-53-11t-44-30-29-44-10-53 10-53 29-44 44-30 53-10h77q29 0 53 10t44 30 29 44 11 53m-50 0q0-24-12-44t-31-31-44-12h-77q-24 0-43 12t-32 31-11 44 11 44 32 32 43 12h77q24 0 44-12t31-32 12-44m696-212v350h-50v-100h-280v-50h280v-150h-180q-34 0-62 16t-46 46-16 63v175h-50v-175q0-36 13-68t38-56 55-38 68-13h230m360 300v50h-163q-29 0-54-11t-43-30-29-44-11-53 11-53 29-44 43-30 54-10h163v50h-163q-24 0-44 12t-31 31-12 44 12 44 31 32 44 12h163m375-138q0 24-12 44t-31 32-44 12h-192q11 22 31 36t47 14h164v50h-164q-28 0-53-11t-44-30-29-44-10-53 10-53 29-44 44-30 53-10h114q24 0 44 11t31 32 12 44m-286 38h199q15 0 26-11t11-27-11-26-26-11h-114q-22 0-40 10t-30 27-15 38" />
</svg>