<svg id="fnt-Bubblegum Sans" viewBox="0 0 3045 1000" xmlns="http://www.w3.org/2000/svg"><path id="bubblegum-sans" class="f" d="M112 633q33 0 63-20t30-46q0-19-15-31-26-21-72-21-12 0-13 0t0 47 4 70q1 1 3 1m39-179q13-5 22-16t9-23-7-18-17-11-21-5-18-1-10 0-2 41-1 43q0 1 5 1t16-3 24-8m-109 143l3-191q0-20-1-21-6-6-15-25t-9-24l1-1q3-3 31-5t57-2 52 4 46 11 36 22 13 33-8 33-19 25q-17 15-34 23-1 1-1 1 1 1 7 3t13 4 16 8 16 10 14 15q15 17 15 46t-18 55-48 40q-60 29-137 29l-25-2q-2-2-3-36t-2-55m391 51l-1-11 0-1q-12 19-31 30t-35 11q-53 0-60-82-1-13-1-67t4-64q13-10 42-10 12 0 14 2 0 1 0 14-3 38-3 58t1 30 0 13 2 10 4 12q7 14 23 14t28-16 12-22v-17q0-91 3-98 2-5 15-10t27-5 15 2l-1 24q-3 71-3 110t2 50q3 25 13 40 0 5-20 16t-35 11q-4 0-9-15t-6-29m104-53l-1-185q0-62 2-65 6-6 20-11t26-6 13 2q-1 5-3 57t-1 64h8q55 0 90 26 14 10 25 31t10 48q0 48-38 79t-95 41q0 12 0 13-7 6-23 10t-27 3-10-1q4-14 4-106m57 26q13 0 27-4t23-11 16-20 7-37-16-34-36-12l-23 1v36q0 68 2 81m161-26l-1-185q0-62 2-65 6-6 20-11t26-6 13 2q-1 5-3 57t-1 64h8q55 0 90 26 14 10 25 31t10 48q0 48-38 79t-95 41q0 12 0 13-7 6-23 10t-27 3-10-1q4-14 4-106m57 26q13 0 27-4t23-11 16-20 7-37-16-34-36-12l-23 1v36q0 68 2 81m172-25l2-181q0-40-1-54t-1-15q0-5 17-11t30-7 13 2q-3 19-3 130l-1 123q0 34 1 42 3 22 15 40 0 5-21 16t-35 11q-4 0-9-15t-6-26-1-55m227-88q0-15-15-15-21 0-36 21t-16 51q0 7 2 7 18-1 42-21t23-43m44 159q-17 11-67 11t-76-29-26-79 31-86 90-36q23 0 43 13t20 43-28 62-74 47q0 6 12 9t25 4q38 0 60-13 0-1 1-1t1 10q0 29-12 45m235-188v64l1 118q0 39-10 69t-26 47-34 28q-32 17-64 17-1 0-6-7t-8-21-4-24h9q10 0 19-2t23-9 23-21 17-39 7-59q0-2-1-2l-1 1q-21 33-66 33-33 0-53-27t-20-59q0-60 38-99t111-39q17 0 17 2 2 9 2 19l-1 7h6q16 0 21 3m-54 22l-11-2q-32 0-51 21t-18 52q0 15 9 27t27 11 30-14 12-22q0-57 2-73m216 147l0-11-1-1q-12 19-30 30t-36 11q-52 0-60-82-1-13-1-67t5-64q13-10 42-10 11 0 14 2 0 1-1 14-2 38-2 58t0 30 1 13 1 10 4 12q8 14 23 14t28-16 12-22v-17q0-91 3-98 3-5 16-10t26-5 15 2l-1 24q-3 71-3 110t2 50q4 25 14 40 0 5-21 16t-35 11q-4 0-9-15t-6-29m104-43l-1-118q0-32 2-34 6-6 19-11t24-4 11 2q-2 22-2 33t1 12 3-3 7-7 20-13 26-8q33 0 49 29 29-40 63-40 31 0 45 27 14 29 16 59 3 43 3 89l-2 58q0 4-16 7t-27 3l-16-2q6-50 6-80t-1-44-4-27-9-19-16-5-17 5-11 10-3 7q2 16 2 74l-2 39q0 4-16 7t-26 3l-16-2q4-41 4-76t-4-50-19-14-27 16-11 25v10l0 53q0 49-2 52-12 12-52 12-4 0-4-2 3-21 3-73m613-224q-8-1-19-1t-25 2-30 6-26 14-10 21 15 23 37 18 43 19 37 30 16 49q0 51-49 86t-121 35q-37 0-55-4-5-4-5-54t2-59q2-4 18-11t31-6q0 59 12 71 5 5 19 5 32 0 56-18t24-42q0-17-16-29t-38-22-44-20-37-28-16-42q0-37 44-67t127-30q19 0 22 2 0 2 0 7t-3 23-9 22m251 149v25q0 63 2 73 4 28 17 40 0 5-20 16t-36 11q-4 0-9-13t-6-20-1-6l-2 1q-26 21-62 21t-55-18-19-45 12-47 29-29 37-16q30-10 48-10l1-1q0-24-62-24-25 0-37 2h0q0-10 6-25t10-20 36-4q57 0 84 21t27 68m-55 57v-19q0-11-1-11-33 0-58 18-15 11-15 27 0 11 7 18t23 7 29-9 15-31m167-40v7l0 19v38q0 53-2 55-6 7-22 10t-27 4-10-2q4-22 4-74l-2-112q0-31 3-34 5-5 19-10t25-4 12 3q-2 12-2 24t2 12l1-1q3-4 8-9t21-14 31-9 25 5 17 13 11 22 7 26 4 32q2 27 2 70l-2 58q0 4-16 7t-27 3l-16-2q5-45 5-88t-6-63-22-21-27 9-13 18l-3 8m312 62q0 27-25 48t-55 31-51 9q-2 0-7-6-12-16-12-38v-4q39 0 59-13t21-28q0-10-13-20t-27-19-28-21-12-28q0-30 38-56t81-25q5 0 13 13t8 29q-10 0-30 6-39 12-39 31 0 13 39 35 15 9 27 24t13 32" />
</svg>