<svg id="fnt-Buenard" viewBox="0 0 1758 1000" xmlns="http://www.w3.org/2000/svg"><path id="buenard" class="f" d="M47 342l93-4q116 0 116 74 0 32-19 48t-45 22v4q35 2 61 23t26 66-36 70-88 26l-70-4q-23 0-56 4l-4-17q20-2 29-6t9-16v-254q0-12-8-16-7-3-25-5l-5-1 4-16q4 2 18 2m104 163h-44v121q0 13 15 19t31 6q32 0 54-19t21-55q0-72-77-72m-44-144v123h32q32 0 50-18t19-48-18-46-50-15q-19 0-33 4m416 148v115q0 13 8 16t16 4 16-1l3 15q-34 7-58 17-24-17-24-37l-18 14q-29 23-59 23-64 0-64-76v-101q0-16-8-18-8-1-20 2l-5 1-3-15q30-13 73-17l7 9q-4 15-4 49v80q0 29 11 42t34 13 55-23v-123q0-16-8-18-9-1-23 2l-6 1-3-15q33-15 76-17l8 9q-4 15-4 49m186 134q30 0 60-21l8 11q-45 42-88 42t-69-30-27-77 27-83 71-34 66 27 21 74l-141 10q4 81 72 81m-20-172q-27 0-39 21t-13 52l96-12q0-61-44-61m201 35v129q0 6 1 8t7 5q9 5 27 8l-4 15q-41-4-52-4t-51 4l-4-15q19-3 26-7t9-6 1-9v-135q0-15-8-17-9-1-22 2l-6 1-2-15q35-16 65-19l8 9q0 13 5 28l19-15q28-22 60-22t48 17 17 58v108q0 6 1 9t6 5q7 3 24 7l5 1-3 15q-41-4-52-4t-52 4l-3-15q17-3 24-7t8-6 2-8v-99q0-29-11-42t-35-13-58 25m254 105q0 14 9 24t26 10 43-20v-57l-39 7q-39 6-39 36m118-87v102q0 18 19 18l14-1 4 15q-25 5-52 17-19-13-24-34-22 19-37 26t-28 8q-25 0-41-16t-15-44 20-40 54-17l46-5v-22q0-29-9-43t-31-15-33 6q-3 11-3 46l-21 6q-11-36-12-56 54-24 78-24 37 0 54 17t17 56m185-39q-19 0-46 37v111q0 7 2 9t8 5q8 4 31 6l7 1-3 17q-45-4-65-4t-52 4l-4-15q19-3 26-7t9-6 1-9v-135q0-15-8-17-9-1-22 2l-6 1-2-15q35-16 66-19l8 9q0 16 4 38l17-21q21-26 45-26 10 0 35 9-7 40-17 65l-13 1q0-18-6-30t-15-11m267-119v258q0 13 8 16t16 4 16-1l3 15q-32 6-58 17-19-14-23-34-42 34-66 34-44 0-68-28t-23-79 29-84 79-33q25 0 47 10v-105q0-16-9-17-8-1-26 2l-5 1-3-15q14-7 39-13t40-6l8 9q-4 15-4 49m-150 193q0 44 16 65t43 21 51-20v-124q-8-14-23-22t-28-8q-27 0-43 22t-16 66" />
</svg>