<svg id="fnt-Bungee Outline" viewBox="0 0 4637 1000" xmlns="http://www.w3.org/2000/svg"><path id="bungee-outline" class="f" d="M245 672h-192q-23 0-23-23v-324q0-23 23-23h159q53 0 77 20t24 61v24q0 36-20 51 27 7 40 26t14 55v46q0 44-25 65t-77 22m-192-5h192q50 0 73-20t24-62v-46q0-37-16-56t-47-22q29-12 29-54v-24q0-39-23-58t-73-18h-159q-18 0-18 18v324q0 18 18 18m37-45v-270h102q28 0 42 7t18 19 5 27v32q0 15-5 27t-27 18q28 0 42 8t18 20 5 30v32q0 14-5 26t-18 17-42 7h-135m135-135h-130v130h130q25 0 38-6t17-16 5-23v-32q0-15-4-27t-18-19-38-7m-130-5h97q27 0 40-6t16-17 4-22v-32q0-14-4-25t-18-17-38-6h-97v125m52 100v-59h65q19 0 19 19v20q0 20-19 20h-65m65-54h-60v49h60q14 0 14-15v-20q0-14-14-14m-65-82v-54h43q19 0 19 20v14q0 20-19 20h-43m43-49h-38v44h38q14 0 14-15v-14q0-15-14-15m519-72v247q0 24-7 43t-24 34-49 22-80 8q-48 0-80-8t-48-22-25-34-6-43v-247q0-23 23-23h78q23 0 23 23v228q0 9 8 13t28 5q21 0 29-5t8-13v-228q0-12 5-18t18-5h76q23 0 23 23m-5 247v-247q0-18-18-18h-76q-18 0-18 18v228q0 10-8 16t-34 7q-26 0-33-7t-8-16v-228q0-18-18-18h-78q-18 0-18 18v247q0 23 6 42t24 32 48 21 76 7 77-7 47-21 24-32 7-42m-254-12v-208h5v208q0 19 8 33t29 22 58 8q37 0 58-8t29-22 8-33v-208h5v208q0 20-9 35t-30 24-61 9q-39 0-61-9t-31-24-8-35m413 112h-75q-23 0-23-23v-324q0-23 23-23h52q20 0 34 15l88 100v-92q0-23 23-23h75q23 0 23 23v324q0 23-23 23h-75q-23 0-23-23v-60l-76-91v151q0 23-23 23m-75-5h75q18 0 18-18v-165l86 103v62q0 18 18 18h75q18 0 18-18v-324q0-18-18-18h-75q-18 0-18 18v106l-97-111q-12-13-30-13h-52q-18 0-18 18v324q0 18 18 18m48-311l184 207v-211h5v270h-5v-52l-189-212q-1-1-2-1t-1 1v264h-5v-265q0-6 6-6 3 0 7 5m586 316h-158q-66 0-97-27t-31-80v-156q0-55 31-81t97-26h125q23 0 23 23v60q0 23-23 23h-104q-25 0-25 20v120q0 19 18 19h43v-73q0-23 23-23h78q23 0 23 23v155q0 23-23 23m-158-5h158q18 0 18-18v-155q0-18-18-18h-78q-18 0-18 18v78h-48q-23 0-23-24v-120q0-25 30-25h104q18 0 18-18v-60q0-18-18-18h-125q-63 0-93 25t-30 77v156q0 52 30 77t93 25m116-146h5v101h-99q-37 0-56-7t-27-21-7-37v-140q0-24 6-38t24-21 50-6h86v5h-86q-30 0-46 5t-23 19-6 36v140q0 22 7 35t26 19 52 6h94v-96m371 151h-232q-23 0-23-23v-324q0-23 23-23h232q23 0 23 23v58q0 23-23 23h-133v29h92q23 0 23 23v53q0 23-23 23h-92v33h133q23 0 23 23v59q0 23-23 23m-232-5h232q18 0 18-18v-59q0-18-18-18h-138v-43h97q18 0 18-18v-53q0-18-18-18h-97v-39h138q18 0 18-18v-58q0-18-18-18h-232q-18 0-18 18v324q0 18 18 18m41-50h164v5h-169v-270h169v5h-164v125h123v5h-123v130m518 55h-232q-23 0-23-23v-324q0-23 23-23h232q23 0 23 23v58q0 23-23 23h-133v29h92q23 0 23 23v53q0 23-23 23h-92v33h133q23 0 23 23v59q0 23-23 23m-232-5h232q18 0 18-18v-59q0-18-18-18h-138v-43h97q18 0 18-18v-53q0-18-18-18h-97v-39h138q18 0 18-18v-58q0-18-18-18h-232q-18 0-18 18v324q0 18 18 18m41-50h164v5h-169v-270h169v5h-164v125h123v5h-123v130m690-215v170q0 24-7 43t-24 34-48 22-81 8-80-8-49-22-25-34-6-43v-170q0-24 6-44t25-34 49-22 80-8 81 8 48 22 24 34 7 44m-5 170v-170q0-23-7-42t-23-32-48-21-77-8-77 8-47 21-24 32-7 42v170q0 23 7 42t24 32 47 21 77 7 77-7 48-21 23-32 7-42m-156 56q-39 0-61-8t-31-24-8-35v-148q0-20 8-35t31-24 61-8q40 0 62 8t31 24 9 35v148q0 20-9 35t-31 24-62 8m0-5q38 0 59-8t29-22 9-32v-148q0-19-9-33t-29-22-59-7q-37 0-58 7t-29 22-8 33v148q0 18 8 32t29 22 58 8m-41-69v-134q0-10 8-17t34-6q28 0 35 6t7 17v134q0 10-7 17t-35 7q-27 0-34-7t-8-17m5-134v134q0 9 8 14t29 5 29-5 8-14v-134q0-9-8-14t-29-4q-21 0-29 4t-8 14m567-95v247q0 24-7 43t-24 34-48 22-80 8q-49 0-80-8t-49-22-24-34-7-43v-247q0-23 23-23h79q23 0 23 23v228q0 9 7 13t29 5q21 0 28-5t8-13v-228q0-12 5-18t18-5h76q23 0 23 23m-5 247v-247q0-18-18-18h-76q-18 0-18 18v228q0 10-7 16t-34 7q-26 0-34-7t-7-16v-228q0-18-18-18h-79q-18 0-18 18v247q0 23 7 42t24 32 47 21 77 7 76-7 47-21 24-32 7-42m-254-12v-208h5v208q0 19 8 33t29 22 58 8q38 0 58-8t29-22 9-33v-208h5v208q0 20-9 35t-31 24-61 9q-39 0-61-9t-30-24-9-35m491 112h-81q-23 0-23-23v-241h-69q-23 0-23-23v-60q0-23 23-23h264q23 0 23 23v60q0 23-23 23h-68v241q0 23-23 23m-81-5h81q18 0 18-18v-246h73q18 0 18-18v-60q0-18-18-18h-264q-18 0-18 18v60q0 18 18 18h74v246q0 18 18 18m43-45h-5v-265h-103v-5h210v5h-102v265m468 50h-254q-23 0-23-23v-324q0-23 23-23h77q23 0 23 23v242h59v-76q0-23 23-23h72q23 0 23 23v158q0 23-23 23m-254-5h254q18 0 18-18v-158q0-18-18-18h-72q-18 0-18 18v81h-69v-247q0-18-18-18h-77q-18 0-18 18v324q0 18 18 18m215-149h5v104h-184v-270h5v265h174v-99m337 154h-213q-23 0-23-23v-60q0-23 23-23h45v-158h-45q-23 0-23-23v-60q0-23 23-23h213q23 0 23 23v60q0 23-23 23h-43v158h43q23 0 23 23v60q0 23-23 23m-213-5h213q18 0 18-18v-60q0-18-18-18h-48v-168h48q18 0 18-18v-60q0-18-18-18h-213q-18 0-18 18v60q0 18 18 18h50v168h-50q-18 0-18 18v60q0 18 18 18m27-310v-5h159v5h-76v260h76v5h-159v-5h78v-260h-78m359 315h-75q-23 0-23-23v-324q0-23 23-23h52q20 0 33 15l88 100v-92q0-23 23-23h75q23 0 23 23v324q0 23-23 23h-75q-23 0-23-23v-60l-75-91v151q0 23-23 23m-75-5h75q18 0 18-18v-165l85 103v62q0 18 18 18h75q18 0 18-18v-324q0-18-18-18h-75q-18 0-18 18v106l-97-111q-11-13-29-13h-52q-18 0-18 18v324q0 18 18 18m48-311l184 207v-211h5v270h-5v-52l-189-212q-2-1-3-1t-1 1v264h-5v-265q0-6 6-6 3 0 8 5m560 316h-232q-23 0-23-23v-324q0-23 23-23h232q23 0 23 23v58q0 23-23 23h-133v29h93q23 0 23 23v53q0 23-23 23h-93v33h133q23 0 23 23v59q0 23-23 23m-232-5h232q18 0 18-18v-59q0-18-18-18h-138v-43h98q18 0 18-18v-53q0-18-18-18h-98v-39h138q18 0 18-18v-58q0-18-18-18h-232q-18 0-18 18v324q0 18 18 18m42-50h163v5h-168v-270h168v5h-163v125h123v5h-123v130" />
</svg>