<svg id="fnt-Bungee Shade" viewBox="0 0 4591 1000" xmlns="http://www.w3.org/2000/svg"><path id="bungee-shade" class="f" d="M238 726h-192q-23 0-23-23v-324q0-12 7-18l64-55q6-4 16-4h160q52 0 76 20t25 61v24q0 35-19 50l-2 1q28 6 41 26t13 55v46q0 44-26 66l-64 54q-25 21-76 21m-128-59h192q50 0 74-20t23-62v-46q0-37-15-56t-48-22q30-12 30-54v-24q0-39-24-58t-72-18h-160q-18 0-18 18v324q0 18 18 18m38-45v-270h101q28 0 42 7t19 19 5 27v32q0 15-6 27t-26 18q28 0 41 8t19 20 5 30v32q0 14-5 26t-19 17-42 7h-134m135-135h-130v130h129q25 0 38-6t18-16 5-23v-32q0-15-5-27t-17-19-38-7m-130-5h96q28 0 40-6t17-17 4-22v-32q0-14-5-25t-17-17-39-6h-96v125m52 100v-59h65q19 0 19 19v20q0 20-19 20h-65m0-136v-54h42q19 0 19 20v14q0 20-19 20h-42m387 288q-48 0-80-10t-48-28-25-39-6-45v-233q0-12 7-18l64-55q6-4 16-4h79q23 0 23 23v228q0 4 1 8t7 6v-188q0-13 6-18l0 0 65-55q6-4 16-4h76q23 0 23 23v247q0 23-6 42t-24 34l-65 54q-17 15-48 23t-81 9m219-162v-247q0-18-18-18h-76q-18 0-18 18v228q0 10-7 16t-34 7q-26 0-34-7t-7-16v-228q0-18-18-18h-79q-18 0-18 18v247q0 23 7 42t24 32 47 21 77 7 76-7 47-21 24-32 7-42m-254-12v-208h5v208q0 19 8 33t29 22 58 8q38 0 58-8t29-22 9-33v-208h5v208q0 20-9 35t-31 24-61 9q-39 0-61-9t-30-24-9-35m480 107l-65 54q-5 5-16 5h-75q-23 0-23-23v-324q0-12 7-18l65-55q5-4 16-4h52q20 0 33 15l35 40 60-51q6-4 16-4h75q23 0 23 23v324q0 12-7 18l-65 54q-5 5-15 5h-75q-23 0-23-23v-59l-11-14v19q0 12-7 18m-91 0h75q18 0 18-18v-165l85 103v62q0 18 18 18h75q18 0 18-18v-324q0-18-18-18h-75q-18 0-18 18v106l-97-111q-11-13-29-13h-52q-18 0-18 18v324q0 18 18 18m48-311l184 207v-211h5v270h-5v-52l-189-212q-2-1-3-1t-1 1v264h-5v-265q0-6 6-6 3 0 8 5m571 370h-158q-44 0-72-15t-42-43-14-64v-141q0-54 32-81l64-54q31-26 97-26h125q23 0 23 23v60q0 13-7 19l-65 54q-5 5-16 5h-65v72q1-2 4-5l65-54q5-5 16-5h77q23 0 23 23v155q0 12-7 18l-65 54q-5 5-15 5m-93-59h157q18 0 18-18v-155q0-18-18-18h-77q-18 0-18 18v78h-49q-23 0-23-24v-120q0-25 31-25h104q18 0 18-18v-60q0-18-18-18h-125q-63 0-93 25t-30 77v156q0 52 30 77t93 25m116-146h5v101h-100q-36 0-56-7t-27-21-7-37v-140q0-24 7-38t24-21 49-6h87v5h-87q-29 0-46 5t-22 19-7 36v140q0 22 7 35t26 19 52 6h95v-96m356 205h-232q-23 0-23-23v-324q0-12 7-18l64-55q6-4 16-4h232q23 0 23 23v58q0 13-7 19l-43 35q10 5 10 21v53q0 13-7 19l-45 37h69q23 0 23 23v59q0 12-7 18l-65 54q-5 5-15 5m-168-59h232q18 0 18-18v-59q0-18-18-18h-138v-43h98q18 0 18-18v-53q0-18-18-18h-98v-39h138q18 0 18-18v-58q0-18-18-18h-232q-18 0-18 18v324q0 18 18 18m42-50h163v5h-168v-270h168v5h-163v125h123v5h-123v130m503 109h-232q-23 0-23-23v-324q0-12 7-18l64-55q6-4 16-4h232q23 0 23 23v58q0 13-7 19l-43 35q10 5 10 21v53q0 13-7 19l-45 37h69q23 0 23 23v59q0 12-7 18l-65 54q-5 5-15 5m-168-59h232q18 0 18-18v-59q0-18-18-18h-138v-43h98q18 0 18-18v-53q0-18-18-18h-98v-39h138q18 0 18-18v-58q0-18-18-18h-232q-18 0-18 18v324q0 18 18 18m42-50h163v5h-168v-270h168v5h-163v125h123v5h-123v130m582 109h-158q-23 0-23-23v-58q0-13 7-19l50-42q-26-8-42-27t-15-55v-53q0-45 29-69l65-55q28-23 79-23h140q23 0 23 23v59q0 13-7 19l-45 37q32 7 51 26t19 60v53q0 45-29 69l-65 54q-28 24-79 24m-93-59h158q48 0 76-23t27-65v-53q0-28-10-45t-27-26-41-12l-74-10q-14-1-14-16 0-15 14-15h116q18 0 18-18v-59q0-18-18-18h-140q-48 0-76 22t-27 66v52q0 42 21 60t56 23l75 11q7 0 10 4t3 13q0 6-3 10t-10 4h-134q-18 0-18 18v59q0 18 18 18m198-315v5h-111q-21 0-33 11t-13 29v41q0 18 7 24t19 10l105 21q15 3 25 13t10 36v29q0 22-15 36t-41 15h-124v-5h124q24 0 37-13t14-33v-29q0-23-9-32t-22-12l-105-21q-13-3-22-11t-8-28v-41q0-20 14-33t37-12h111m279 315l-65 54q-5 5-15 5h-78q-23 0-23-23v-324q0-12 7-18l65-55q5-4 16-4h77q23 0 23 23v103h9v-49q0-12 7-18l65-55q5-4 16-4h77q23 0 23 23v324q0 12-7 18l-65 54q-5 5-15 5h-78q-23 0-23-23v-106h-9v52q0 12-7 18m-93 0h77q18 0 18-18v-111h84v111q0 18 18 18h77q18 0 18-18v-324q0-18-18-18h-77q-18 0-18 18v108h-84v-108q0-18-18-18h-77q-18 0-18 18v324q0 18 18 18m233-315h5v270h-5v-133h-192v133h-5v-270h5v132h192v-132m278 315l-65 54q-5 5-15 5h-74q-23 0-23-23v-132q0-15 5-35t15-47l43-113q2-4 4-8t5-5l0-1 64-53q8-7 22-7h135q23 0 29 19l44 114q10 27 15 46t5 36v132q0 12-7 18l-65 54q-5 5-16 5h-75q-25 0-25-23v-65h-14v11q0 12-7 18m2-18v-70h89v70q0 18 19 18h76q18 0 18-18v-132q0-15-5-35t-15-45l-43-114q-6-16-25-16h-135q-20 0-25 16l-44 114q-10 26-15 45t-4 35v132q0 18 18 18h73q18 0 18-18m149-134v107h-5v-86h-195v86h-5v-107q0-14 2-26t6-22l32-82q6-14 13-24t24-9h49q16 0 23 9t13 24l34 82q4 11 6 22t3 26m-200 0v16h195v-16q0-13-2-25t-6-21l-35-82q-5-13-11-22t-20-8h-49q-15 0-21 8t-11 22l-32 82q-4 10-6 21t-2 25m56-27l24-76q3-9 9-9h13q6 0 9 9l24 76h-79m591 158l-65 54q-31 26-96 26h-168q-23 0-23-23v-324q0-12 7-18l64-55q6-4 16-4h169q66 0 97 26t31 81v156q0 54-32 81m-265 21h169q63 0 93-25t30-77v-156q0-52-30-77t-93-25h-169q-18 0-18 18v324q0 18 18 18m158-45h-121v-270h121q34 0 51 9t23 25 6 35v133q0 19-6 34t-23 25-51 9m0-265h-116v260h116q32 0 48-9t21-22 6-32v-133q0-18-6-33t-22-23-47-8m-62 215v-170h59q24 0 24 24v122q0 24-24 24h-59m13-5v-86q0-14-8-18v104h8m482 159h-232q-23 0-23-23v-324q0-12 7-18l64-55q6-4 16-4h232q23 0 23 23v58q0 13-7 19l-43 35q10 5 10 21v53q0 13-7 19l-45 37h69q23 0 23 23v59q0 12-7 18l-65 54q-5 5-15 5m-168-59h232q18 0 18-18v-59q0-18-18-18h-138v-43h98q18 0 18-18v-53q0-18-18-18h-98v-39h138q18 0 18-18v-58q0-18-18-18h-232q-18 0-18 18v324q0 18 18 18m42-50h163v5h-168v-270h168v5h-163v125h123v5h-123v130" />
</svg>