<svg id="fnt-Butcherman" viewBox="0 0 3169 1000" xmlns="http://www.w3.org/2000/svg"><path id="butcherman" class="f" d="M170 687l-2-1v-5l-4 4q-3-1-7-4-11-6-16-6-9 9-10 15-4 0-4-7l-1 0-3-8q0 11-10 13-2-25-15-25-12 0-15 12l-5 8q-10-4-10-24l0-58q-5 0-5-17t0-22q-5 0-5-35l1-33q0-22-3-49t-7-42l10-5v-6l-10 6v-6h5q0-28-44-79l8 1q1-2 51-10t59-8h12q43 0 65 10 19 7 24 15 12 15 12 34 0 36-19 136l-6 32q-3 0-4-3 0 10-4 15t-16 10q11 0 16 10t4 24l-5 68q-1 1-5 12-11 23-19 23h-1l1 2q-8 3-13 3m-43-82l0 14v11q1 0 6 0 11 0 21 5h-2l2 3q0-8 4-14v-20q0-3 2-3h3q0-2-3-5t-2-9 0-8q-3-4-11-5t-11-6q0 3-2 4t-3 0q-4-1-4 12h-4v6q4 0 4 15m36-141l0-4q-4-5-13-5t-14-6v6h-9l4 5h-4v2q0 3 1 4l1-1q2 0 2 21v8l-4 5h4v6q2 0 12 4t11 6v-4l5 1-2 3 1 2q0-5 3-5t2-11l-1-23q0-4 3-6-2-2-2-8m312 209l-4-11 8-1-13-6-13 12v-8q-1-4-4-4v5q-1-9-5-14t-13-4q-3 3-5 3t-4-1l1 10q0 19-5 19-4-13-10-18-3 0-4 1l4 4-10 8-9-5q0-7-7-10-8-3-23-3 0-3-7-35t-8-33q0 1-2 1t-2-1-1-3 1-3l-6-6 6-11h-6q-5-6-5-17t4-14l-3-2v-6q0-29-9-70t-10-55h-3l3-5q-9-11-9-36v-10q-4-4-9-10t-6-9-6-5q-6-4-23-4 9-2 45-7t51-10v6l5-6h63l-4 6v17l-5 6q0-1 2-1 4 0 4 4 0 1-1 2l-5 6q5 8 5 18t-5 16q10 12 10 70 0 25-1 38h-4v39q0 9 4 27t5 25l-1 16q0 17 18 17l9-6v-6l5-5-5-6q9-13 9-44v-12l2-2-6-10 4-5v-12h4l5-113-5-5v-6h5q1-2 1-3t-4-3-4-2 2-4l-4-4 1 0q1 0 2-2t1-2-1-2q6-6 6-22t0-19l-5-5h27q19 0 44 11l4-6q13 0 38 12t39 11q-20 11-40 34l5 5h-1q-2 0-3 2t-2 3 1 2l5 5h-5q-32 64-32 156 0 10-5 19v11h-4l0 8q0 10-5 10l5 11-9 22q1 0 2 0t2 1 1 3-1 2l-4-6-5 12 5 5h-5l-9 17v6q-1 1-9 1t-17-7q-1 5-5 11t-8 7m358 2l1 58-5 5v-22h-15v11h-5q-5-5-5-17h-34l-5-6 0-21q0-17-5-30l5 6v-40h-5l-5-63v-5l-3-3 3-2v-11l-4-6 4-17q-4-6-4-14t0-9q-5-5-5-18v-8q-2 5-28 12t-29 9l-4-6v6l-10 11q0-47-8-83-16-67-46-92 22 0 40-12 2 1 10 1t28-6 30-6h105q24 0 58 8t45 9q0 3-14 29t-16 28h-4v6h4q0 40-9 107h-5l-10-11q-6 1-11 1-14 0-34-13h-4l4 17-4 11q5 6 5 24t-1 27 0 11q0 0-1-1-1 0-1 2l3 16-5 36q0 9 4 15-5 23-5 56m342-155l-19 0q-6 0-28-6l-4 6-5-6q0-3 3-6t2-6-3-12-6-10l4-6-3 1-1-5-4 4q-6-9-6-12t1-5q-6 0-11 4t-6 11l0-4-5-4v4q-5 0-5 7 0 2 1 6l-5 4-1 3q0 5 4 15t3 15q-1 1-4 8t-3 9q0 20 5 53t14 44q3 0 6-5t7-6v-5q5-7 6-15t4-16 10-16q11 0 29 6t24 13v-1l5 1q-8 12-10 22h5l-5 6 1 6q0 16-14 34-5 6-6 10l-5-5q-4 5-10 16t-12 17v-5l-9 11q-2-10-8-19t-14-9l5 6v11l-7 1q-6 0-6-12h-9q-5-6-10-9 1 3 3 6 2 7 2 14l-10 5-5-5 0-9q0-3-3-6t-6-2-8 3-7 3q-5 0-9-9t-6-16-5-9l5-6q-18 0-20-57h-5q0-10-5-31t-4-30l6-9-1-3-5 5v-5q-2-8-8-31-12-44-12-66t9-43 20-35l10 6v-9q12-12 28-21t31-10v5q3-4 9-7t16-3 20 0 24 4q25 6 45 29h-5v6h5l5-6 10 12q0 10 9 18t10 10q0 11-11 21 7 2 7 25t-10 112q-10-5-24-5m-82 153q0 3-4 5 4 0 4-5m-56-1q0-1-1-1t0 1q0 0 1 0m465-149l1 19-4 39-10 8 5-1q0 16-5 47t-5 48h0q0 8-6 13t-14 4l8-17-3-5 0 0-12 6-3-1-9-10 1 7q0 14-11 14 0 0-2-2-5-3-5-5t2-4l-10-5-5 7q1-4 3-14t2-16l-9 6-5-11q10 0 10-41l-1-22q0-5 3-13t3-12-4-3l-2 0-4-6q-6 0-18 3t-18 3v6l-6 7 4-2q3 26 3 26l-1 65-19 11 1-4-2-1h-19l-9 5q-1 9-20 11l-11-10q0-1 4-1t7 2q0-18-5-57t-5-62-7-58-15-70-7-58-14-38-34-15q41 0 71-6t36-11l1 6 1 0q3 0 3-5l0-1q11 0 31-3t30-2q-8 10-22 39l4 6-4 158 22-5v5l32-5v2q7-8 7-44l-2-60q0-7 5-21t10-14q0-5-5-9-10-8-10-25l-5-27q25 0 39 5l6-5 24 5v-5l6 6 33-1q4 5 16 6t18 5h14q-18 3-42 70-11 27-12 38l0 11h-4l5 5q-13 43-20 58l5 10q-11 0-11 21m255 160l-10 0-8 5-10-11v-6q-4-5-14-5h-10l-5 5v6q-4 0-7 9t-7 8v5q-3-13-10-48-15-72-15-110 0-7 0-11l-5-5-23-142h4v-6h-4q-1-1-3-6t-4-6-2-6-4-6-3-5-4-5-4-5-5-4q-7-5-11-7h5q14-12 46-18 48-10 109-10t136 16q-10 11-24 39t-15 39-5 18l0 8q0 20-10 66-20-11-31-11t-15-6q-13 0-23-1t-17-3-13-2q4 3 4 25l-1 26h74v40q0 7-3 23t-7 16l-14-11h-45l-5 5v41l5 4 5-4-5-12q12 0 38 3t40 3v6l-5 22-4 6 4 5v6h-4v5l4 6q-4 6-4 13v15l-5-6h-5v-16l-5-6h-24q-5 6-17 6m326-25l0-3q0-1 0-1h4v-6h-5l5-6q-6-1-6-20t1-25l-5-6v-9q-1 5-8 5t-14-1l5 17-5 6-1 6 6 5h0q0 11-3 34t-2 34l-5-6v-6h-8q-16 0-16 11-3 0-10-3t-10-2l-5 10v-4l-5 11q-10 0-10-46l0-22q0-16-5-22h2q3-5 3-14t-5-20l5-17q-5-8-10-23l5-6v-5l-10-6q0-8 3-11t3-7-5-42-5-53-7-28-16-22q-26-27-31-40 48 0 68-12l10 6q11-11 40-11v5q7-5 9-5 11 0 31 2t28 3l2-4q3 2 15 6t26 8 28 12 23 17 9 23q0 30-12 84t-13 80q-16 21-13 32 0 3 1 5l-5-3-4 6q-15 0-15 17 5 0 5 32l0 23q0 36 5 52l-5 17-25-17q-3 0-4-2t-5-3-7 1-2 2-3 3-3 5q0-8 5-10 0-1-8-8l-2 1v8q0-3-3-6-7-8-7-24 1 0 1-2m-28-168h5l-1 13q0 15 26 15h7q5 0 8-11t4-17 5-11q-8-18-15-23t-21-6q-3 0-4 4t-2 3l-3-2h-8q1 1 2 3t2 4v22l-5 6m-54 202v7q0-1 0-4t0-3m25-4v-1l3 1h-3m242-207l-5-52h-10v-5q0-4 3-13t3-14-1-7h-5l5-6v-5q0-9-6-17t-13-14q-20-15-20-20l5 5q24-11 124-32 32-6 34-7v5l9-5-9 11v17q0 5 2 14t3 13-1 7q5 7 7 19t2 22 5 15l13-51h-4v-5l4 4q4-5 4-12t0-9l9-17q1-2 1-5t-3-11-3-10l0-2 5-6 4 6v-6h9l5 11h17q3-5 15-5t32 3 43 11 35 8l-4 6h-10l-15 11v6h-6l-14 17v17h3l-8 11q0 5-1 10l-2 4-1 0q-1-3-3-3t-2 0l5 12q-5 17-12 66-17 122-33 143l3 5-7 6 4 6h-4v22q-6 9-9 33l-4-4v-17l-5-6v12l-4 5q-1-3-3-8t-2-7-3-4q-4-4-14-4-5 7-5 18h-9v-12h-4l18-141h-5q-4 6-4 23l-9 16v3q0 15-4 20 0 11-4 17v11l-5 6q0 8-5 22t-4 18 1 7q-12 2-18 10h-3l3-6q-3-8-5-33t-8-35l-1-3q0-5 4-16-2-2-8-31t-9-36v86h5v11h-5l5 6q-6 7-6 23t1 28h-10l-9-6v-11l-5 5-5-5v1q0 2-1 3t-2 2-1-1l-11 6v34l-5 6h-10v-11h0q-2 0-2-3t2-3h0v-23l-5-6v-17l-4-5 0-24q0-15-5-45t-5-44h-5l5-6v-2q0-6-2-8t-8-1q3-13 10-17h-10q-1-1-1-2 0-1 1-3t3-1 2 1m530-94v26q0 47-10 68 4 0 4-6v-1l5-4q-4 4-4 13t3 28 4 21h-5v-9q-4 8-4 18v2l6 7-1-13h5v2q0 21-6 63t-6 71-7 30l-4-4-6 1-4-5-10 5 0-1-10-10-9 6-6 0 5-6q0-5 1-16t1-15l-4 3-4-6h4q-7-8-11-17l-7 2-6-5-4 9h4l1 6-4-1 0 4q0 5-2 13t-4 7-4-3q-1 22-7 36l-5-5v3q0 4-3 6-4 2-11 2l-1-6q-7 3-18 5-9-10-9-31t0-25l4 1 1-6q-5-1-7-19t-2-20q9 0 9-18v-4l-5 5-1-19q0-11 2-29t4-26h-4l8-24q0-10-4-30t-4-30 9-15q-9-28-9-60l4-6q-4-2-23-23t-25-20h-2q0-7 53-12t90-6q3 0 10 6 18-6 51-6l41 0q-30 19-39 41-8 20-8 52m-88 162l1 5h-5l2 19q0 9-5 16l1 5 4-5h27l-1-23-3-6 2-11q0-23-6-23l4-6h-4l3-5h-4l0-6q4 0 4-5h-4l-2-28q-1 9-7 34t-7 39m86 29l-2-1q-1 0-1 3v4q0-1 4-6 0 0-1 0m-15 125l2 1-2-1m-23-3l-1 0q0 0 1 0m228-116q-9-11-9-22l5-6h-5q0-5-4-12t-5-9v44q-4 6-4 15t4 24l-4 6v73q-5-5-5-17h-8q-1 0-5 3t-4 3v6l-4 5h-4v-11q-6 6-14 6l-4 5-5-5-13-130 4-6q-7-4-14-45-10-75-10-137l-4-3 4-5q-2-2-8-15-16-32-21-36v-6l-10-6q22 0 64-3t61-4q5 6 13 6v-6h13v28l10 12-5 5q0 8 5 13 4 4 3 4t0 2 1 3 3 1l1 0q0 9 9 42t14 33v0q0-16 4-44t4-43q-3-4-8-30t-5-26h5q6 8 55 8t82-2q-7 1-18 21t-15 24v6q-15 18-23 90-10 81-16 102h-4l4 5v6q-5 7-5 16t1 18h-8l4 5q-6 7-6 17t1 12q-2 3-3 9-3 14-10 14v12q0 15-5 21-2 29-8 29l-5 0v-6q0-1 3-7t2-10 0-6l-5-5-4 5v23l-9 17v-23l-18-5-4 17-4-6v-11h-5v11q-3-5-6-25t-2-31-10-23l5-6q-9-14-9-34" />
</svg>