<svg id="fnt-Cabin" viewBox="0 0 1184 1000" xmlns="http://www.w3.org/2000/svg"><path id="cabin" class="f" d="M196 674q-51 0-91-23t-63-63-22-96 23-97 63-63 92-22q27 0 51 5t43 15l-5 44q-19-9-42-15t-47-6q-42 0-70 18t-42 50-14 71 14 70 42 50 69 19q26 0 48-6t42-15l5 44q-19 8-43 14t-53 6m200-2q-23 0-40-10t-27-25-9-36q0-21 9-36t25-25 34-15 39-9 40-3q0-35-14-46t-40-10q-14 0-29 4t-35 18l-7-37q15-11 37-18t46-7q31 0 50 11t28 36 9 70v50q0 18 1 29t8 17 19 6h4l-7 36h-3q-22 0-34-5t-18-12-11-19q-14 16-33 26t-42 10m8-36q18 0 35-9t28-24v-59q-36 1-58 7t-33 17-10 30q0 20 11 29t27 9m295 36q-26 0-50-13t-33-36l11-8-9 52h-40v-375h45v178l-9-7q12-21 35-33t50-13q34 0 59 18t38 47 14 62q0 36-15 65t-40 46-56 17m-5-40q21 0 37-12t24-32 9-44q0-25-9-45t-24-31-37-11q-20 0-36 9t-27 29-10 49q0 31 10 50t27 29 36 9m207 35h-45v-245h45v245m0-300h-45v-50h45v50m106 300h-45v-245h35l9 47-17-8q24-27 48-36t46-8q54 0 77 31t23 84v135h-45v-135q0-39-14-57t-50-18q-25 0-45 11t-27 34l5-27v192" />
</svg>