<svg id="fnt-Cactus Classical Serif" viewBox="0 0 5406 1000" xmlns="http://www.w3.org/2000/svg"><path id="cactus-classical-serif" class="f" d="M211 675q-82 0-133-53t-50-138q0-83 52-137t131-53q58 0 103 27l2 78h-27l-12-67q-29-16-61-16-61 0-99 44-40 46-40 124 0 80 38 125 37 43 98 43 37 0 69-15l12-68h27l-2 79q-47 27-108 27m232-1q-31 0-51-17-21-18-21-49 0-27 19-45 20-20 69-38 39-12 66-18v-16q0-40-13-55-12-13-41-13-19 0-35 5l-11 37q-6 22-25 22-20 0-22-19 8-30 35-48t68-17q42 0 62 20 20 22 20 70v118q0 38 22 38 11 0 22-12l9 11q-17 25-44 25-19 0-31-12t-15-33q-24 25-40 35-20 11-43 11m15-30q15 0 29-7 13-7 38-27v-87q-34 10-56 18-33 13-47 29-10 13-10 31 0 21 13 33 12 10 33 10m309 30q-55 0-88-37t-33-99q0-61 38-99 35-36 86-36 35 0 61 18t33 48q-3 19-22 19-19 0-25-22l-11-37q-18-6-34-6-39 0-62 29-25 31-25 82t26 82q25 30 66 30 24 0 44-11t34-30l11 5q-27 64-99 64m232 0q-59 0-59-63 0-6 0-17 0-16 0-27v-134h-49v-19l51-6 12-74h28l-3 76h75v23h-76v176q0 42 33 42 17 0 38-15l10 13q-22 25-60 25m190 0q-36 0-53-22-19-24-18-77l1-139-41-7v-16l75-7 5 6-3 76v84q0 38 12 54 12 16 37 16 43 0 81-40l1-166-41-7v-16l74-7 6 6-2 76v157l38 6v16l-71 4-4-50q-42 53-97 53m302 0q-38 0-80-20l-2-58h24l11 48q22 10 47 10 33 0 50-13 16-12 16-33 0-18-13-29-11-11-39-21l-25-10q-66-24-66-72 0-31 23-51 26-22 68-22 38 0 75 21l-2 54h-22l-9-44q-20-11-42-11-26 0-41 11-14 11-14 30t12 30q10 9 39 20l20 7q39 15 56 33 17 19 17 44 0 32-26 53-28 23-77 23m587 1q-82 0-133-53t-50-138q0-83 52-137t131-53q58 0 103 27l2 78h-27l-12-67q-29-16-61-16-61 0-99 44-40 46-40 124 0 80 38 125 37 43 98 43 37 0 69-15l12-68h27l-2 79q-47 27-108 27m281-8h-132v-16l47-7q1-59 1-91v-249l-46-4v-16l78-21 7 5-1 77v208q0 32 1 91l45 7v16m113 7q-31 0-51-17-21-18-21-49 0-27 19-45 20-20 69-38 39-12 66-18v-16q0-40-13-55-12-13-41-13-19 0-35 5l-11 37q-6 22-25 22-20 0-22-19 8-30 35-48t68-17q42 0 62 20 20 22 20 70v118q0 38 22 38 11 0 22-12l9 11q-17 25-44 25-19 0-31-12t-15-33q-24 25-40 35-20 11-43 11m15-30q15 0 29-7 13-7 38-27v-87q-34 10-56 18-33 13-47 29-10 13-10 31 0 21 13 33 12 10 33 10m272 30q-38 0-80-20l-2-58h24l11 48q22 10 47 10 33 0 50-13 16-12 16-33 0-18-13-29-11-11-39-21l-25-10q-66-24-66-72 0-31 23-51 26-22 68-22 38 0 75 21l-2 54h-22l-9-44q-20-11-42-11-26 0-41 11-14 11-14 30t12 30q10 9 39 20l20 7q39 15 56 33 17 19 17 44 0 32-26 53-28 23-77 23m235 0q-38 0-80-20l-2-58h24l11 48q22 10 47 10 33 0 50-13 16-12 16-33 0-18-13-29-11-11-39-21l-25-10q-66-24-66-72 0-31 23-51 26-22 68-22 38 0 75 21l-2 54h-22l-9-44q-20-11-42-11-26 0-41 11-14 11-14 30t12 30q10 9 39 20l20 7q39 15 56 33 17 19 17 44 0 32-26 53-28 23-77 23m269-7h-122v-16l43-7q1-55 1-91v-28q0-51-1-76l-46-3v-17l78-26 8 5-2 71v74q0 36 1 91l40 7v16m-61-393q14 0 23 9t9 22-9 22-23 8-22-8-9-22 9-22 22-9m226 400q-55 0-88-37t-33-99q0-61 38-99 36-36 87-36 34 0 60 18t34 48q-3 19-22 19-20 0-26-22l-11-37q-18-6-34-6-38 0-62 29-24 31-24 82t26 82q25 30 66 30 24 0 44-11t34-30l10 5q-27 64-99 64m217 0q-31 0-51-17-21-18-21-49 0-27 19-45 20-20 69-38 39-12 66-18v-16q0-40-13-55-12-13-41-13-19 0-35 5l-11 37q-6 22-25 22-20 0-22-19 8-30 35-48t68-17q42 0 62 20 20 22 20 70v118q0 38 22 38 11 0 22-12l9 11q-17 25-44 25-19 0-31-12t-15-33q-24 25-40 35-20 11-43 11m15-30q15 0 29-7 13-7 38-27v-87q-34 10-56 18-33 13-47 29-10 13-10 31 0 21 13 33 12 10 33 10m310 23h-132v-16l47-7q1-59 1-91v-249l-46-4v-16l78-21 7 5-1 77v208q0 32 1 91l45 7v16m394 8q-29 0-59-9-26-8-45-20l2-75h26l12 66q27 15 61 15 42 0 66-18 25-19 25-53 0-26-17-43-16-16-56-32l-20-8q-45-18-67-42-25-27-25-64 0-46 35-73 32-25 83-25 49 0 88 28l-2 70h-27l-12-63q-21-13-48-13-35 0-56 17-23 17-23 48 0 27 17 45 15 17 47 29l21 8q55 22 78 47t22 63q0 47-36 75-34 27-90 27m296-1q-54 0-87-35-34-36-34-99 0-61 37-100 35-37 86-37 44 0 72 27 28 28 28 75 0 20-4 31l-178-1q0 54 26 83 25 28 66 28 46 0 79-39l10 8q-33 59-101 59m-80-158h117q16 0 22-7 5-6 5-20 0-27-18-46-19-20-47-20-29 0-51 23-23 25-28 70m359 151h-127v-16l41-6q1-42 1-92v-28q0-29-2-70 0-4 0-6l-44-3v-16l72-27 7 5 5 66q13-33 35-52t46-19q13 0 23 5t15 13q0 34-28 34-15 0-32-15l-7-6q-33 22-52 73v46q0 35 1 91l46 7v16m219 0h-122v-16l43-7q1-55 1-91v-28q0-51-1-76l-46-3v-17l78-26 8 5-2 71v74q0 36 1 91l40 7v16m-61-393q14 0 23 9t9 22-9 22-23 8-22-8-9-22 9-22 22-9m237 393h-137v-16l46-7q1-61 1-91v-120h-48v-19l49-6q2-44 11-71 9-28 27-46 29-33 72-33 19 0 32 7 14 7 18 20-1 9-9 15t-19 6q-18 0-38-16l-14-11q-15 7-24 22-22 32-20 109h79v23h-78v120q0 30 1 91l51 7v16" />
</svg>