<svg id="fnt-Cairo Play" viewBox="0 0 2076 1000" xmlns="http://www.w3.org/2000/svg"><path id="cairo-play" class="f" d="M156 672q-39 0-64-12t-38-34-20-55-5-76q0-44 5-78t20-56 38-34 64-11q18 0 36 1t33 5 27 5l-2 34q-11-2-27-4t-32-4-30-1q-29 0-47 8t-27 26-13 45-3 64q0 36 3 62t13 44 27 26 47 9q21 0 46-3t43-6l2 34q-12 3-28 5t-34 4-34 2m207 0q-35 0-53-20t-18-57q0-24 9-40t25-24 43-10l77-7v-22q0-25-11-36t-33-10q-13 0-30 1t-34 2-30 3l-2-29q12-3 29-5t35-5 34-1q29 0 47 8t26 27 8 45v127q1 11 9 16t20 6l-2 31q-7 0-13-1t-13-2-11-2q-6-3-12-6t-11-9q-10 4-25 9t-31 7-33 4m6-33q14 0 28-2t28-6 21-7v-81l-72 7q-23 2-33 13t-9 31q0 21 9 33t28 12m229 28h-39v-250h39v250m0-305h-39v-45h39v45m110 305h-38v-250h38v33q10-6 24-14t32-15 35-10v40q-17 3-34 9t-33 12-24 12v183m231 5q-42 0-65-15t-33-44-9-74q0-43 10-71t34-42 63-14q40 0 64 14t33 42 11 71q0 45-10 74t-32 44-66 15m0-34q29 0 44-10t19-32 5-57q0-35-6-55t-21-30-41-9q-26 0-41 9t-20 30-6 55q0 35 4 57t20 32 43 10m325 29h-40v-346h126q38 0 63 12t36 37 12 63q0 38-12 64t-36 40-63 14h-86v116m0-311v160h86q37 0 54-22t16-61q0-40-16-58t-54-19h-86m291 311h-38v-359h38v359m130 5q-35 0-53-20t-18-57q0-24 9-40t25-24 43-10l77-7v-22q0-25-11-36t-33-10q-13 0-30 1t-34 2-30 3l-2-29q12-3 29-5t35-5 34-1q29 0 47 8t26 27 8 45v127q1 11 9 16t20 6l-2 31q-7 0-13-1t-13-2-11-2q-6-3-12-6t-11-9q-10 4-25 9t-31 7-33 4m6-33q14 0 28-2t28-6 21-7v-81l-72 7q-23 2-33 13t-9 31q0 21 9 33t28 12m281 138h-39l33-110h-38l-70-250h39l61 216h17l61-216h39l-103 360" />
</svg>