<svg id="fnt-Caladea" viewBox="0 0 1572 1000" xmlns="http://www.w3.org/2000/svg"><path id="caladea" class="f" d="M141 670q-65 0-97-41t-31-129q0-87 32-129t98-42q28 0 51 8t35 24 13 34q0 16-8 28t-21 11q-10 0-18-5t-11-14q10-13 10-25 0-16-14-25t-37-9q-41 0-60 35t-20 109q0 72 19 106t61 34q26 0 50-12t38-29l17 19q-15 19-43 36t-64 16m197 0q-31 0-48-15t-17-42q0-32 24-51t69-22l41-3v-40q0-25-10-37t-34-11q-20 0-31 6t-11 16q0 13 15 19 0 11-7 17t-21 7q-13 0-21-8t-8-21q0-26 22-41t62-15q41 0 64 18t23 50v139q4 4 14 8t21 6l-2 17h-69l-5-23q-16 15-33 20t-38 6m12-20q14 0 28-7t29-22v-63l-40 3q-23 2-37 15t-13 33q0 41 33 41m160-2q11-1 18-4t15-8v-253q0-18-8-25t-27-8l1-15q20-3 41-9t26-8l9 5v313q13 9 35 13l-2 18h-110l2-19m198 22q-31 0-48-15t-17-42q0-32 24-51t70-22l41-3v-40q0-25-11-37t-34-11q-20 0-31 6t-10 16q0 13 15 19 0 11-8 17t-21 7q-13 0-21-8t-8-21q0-26 23-41t61-15q41 0 64 18t23 50v139q5 4 15 8t20 6l-2 17h-69l-5-23q-15 15-32 20t-39 6m13-20q14 0 27-7t30-22v-63l-40 3q-24 2-37 15t-14 33q0 41 34 41m250 20q-46 0-69-29t-23-86q0-62 29-94t84-32q22 0 43 8v-54q0-18-8-25t-27-8l1-14q23-4 57-15l10-3 10 5v313q11 9 34 14l-1 17h-72l-4-30q-21 33-64 33m4-21q29 0 44-24t16-70v-95q-9-5-19-8t-25-2q-32 0-50 27t-18 78q0 48 13 71t39 23m269 21q-56 0-81-31t-24-91q0-56 27-88t78-31q49 0 69 26t22 77l-11 13h-139v3q0 32 4 53t18 32 40 13q20 0 36-8t28-16l12 15q-12 12-32 22t-47 11m46-147q0-39-11-57t-37-17q-29 0-42 20t-15 58l105-4m134 147q-31 0-48-15t-17-42q0-32 24-51t69-22l41-3v-40q0-25-10-37t-34-11q-20 0-31 6t-11 16q0 13 15 19 0 11-7 17t-21 7q-13 0-21-8t-8-21q0-26 22-41t62-15q41 0 64 18t23 50v139q4 4 14 8t21 6l-2 17h-69l-5-23q-16 15-33 20t-38 6m12-20q14 0 28-7t29-22v-63l-40 3q-23 2-37 15t-13 33q0 41 33 41" />
</svg>