<svg id="fnt-Calistoga" viewBox="0 0 2099 1000" xmlns="http://www.w3.org/2000/svg"><path id="calistoga" class="f" d="M172 674q-42 0-79-20t-58-61-22-102q0-59 19-99t55-60 82-20q11 0 25 3t25 8q5-2 13-5t17-4 14-2q7 16 10 38t4 43 1 36h-57q-4-32-18-53t-35-20q-29 0-48 27t-19 90q0 52 14 82t37 44 50 14q23 0 39-9t22-18q7 4 10 13t4 17q0 11-12 25t-36 23-57 10m210-4q-37 0-61-21t-23-53 21-52 66-20q15 0 31 2t26 9v-67q0-21-11-29t-26-8q-17 0-27 8 10 3 14 10t5 16q0 17-12 26t-29 10q-19 0-30-11t-12-28 12-33 35-25 63-10q101 0 101 80v132q0 24 23 29v16q-7 10-22 14t-30 5q-34 0-48-23-10 9-27 16t-39 7m33-40q7 0 14-3t13-5v-49q-5-3-13-6t-15-2q-13 0-23 8t-9 26q0 13 9 22t24 9m276 37h-109q-6-6-9-13t-3-14q15 0 21-7t7-21v-265q0-12-7-19t-27-6v-20q12-7 29-13t33-8 28-3q11 0 16 5t6 17v312q0 16 6 22t21 6q0 8-3 14t-9 13m104-307q-22 0-35-13t-12-34q0-21 13-34t35-13q22 0 34 13t13 34q0 22-13 34t-35 13m57 307h-113q-6-6-9-12t-3-15q15 0 22-7t7-21v-145q0-13-7-19t-26-7v-22q7-4 23-10t33-10 33-4q12 0 17 5t5 18v195q0 15 7 21t22 6q0 8-3 15t-8 12m135 5q-18 0-37-4t-33-12-25-19-9-25q0-18 10-29t25-10q14 0 24 9t10 23q0 7-2 11t-6 11q4 4 16 6t22 2q18 0 27-6t10-16q0-15-16-26t-37-22q-18-10-37-21t-30-28-12-43q0-33 27-55t78-21q35 0 56 8t31 22 9 28q0 16-10 25t-23 9q-13 0-22-8t-10-20q0-6 2-13t6-11q-6-5-13-7t-17-1q-17 0-26 7t-8 19q0 17 16 28t36 22q19 9 36 20t30 28 12 42q0 28-16 45t-41 24-53 8m236-2q-21 0-39-8t-28-26-11-52v-138h-31v-30q13-2 25-17t21-37 11-44q9-2 17-2 20 0 27 12t8 21v53h58q0 12-1 23t-7 21h-49v141q0 16 7 21t16 6 20-6 17-12q5 5 7 13t2 14q0 11-7 22t-24 18-39 7m210 3q-36 0-63-15t-43-45-15-74q0-47 16-79t44-48 66-17q36 0 63 16t42 45 16 75q0 47-16 78t-45 48-65 16m4-36q10 0 18-7t12-28 4-59q0-47-4-71t-13-33-20-8q-11 0-19 7t-12 28-4 60q0 46 4 70t14 33 20 8m259-52q-17 0-32-4v2q0 12 10 17t34 7q64 5 96 23t32 56q0 19-11 36t-30 30-44 19-51 7q-62 0-90-22t-28-56q0-18 12-33t35-23q-11-8-14-18t-2-22q0-8 6-18t20-14q-23-13-37-35t-13-47 13-47 37-33 61-12h0q5 0 14 0t17 2q35 0 53-1t28-1 18-3q6 0 8 7t3 14q0 10-5 16t-15 7q-4 0-16-5t-23-9q17 13 25 31t9 33q0 47-32 71t-88 25m8-33q17 0 23-18t7-51q0-28-8-40t-22-12q-16 0-23 17t-6 47q0 28 7 42t22 15m-47 135q0 21 13 36t47 14q25 0 35-12t10-26q0-12-11-18t-27-11-38-7q-12-2-22-5-4 7-5 14t-2 15m276-17q-38 0-61-21t-23-53 21-52 66-20q14 0 30 2t26 9v-67q0-21-11-29t-26-8q-16 0-27 8 10 3 15 10t4 16q0 17-12 26t-28 10q-19 0-31-11t-11-28 11-33 36-25 63-10q100 0 100 80v132q0 24 23 29v16q-6 10-22 14t-30 5q-34 0-48-23-10 9-26 16t-39 7m32-40q7 0 15-3t12-5v-49q-5-3-13-6t-15-2q-13 0-22 8t-10 26q0 13 9 22t24 9" />
</svg>