<svg id="fnt-Calligraffitti" viewBox="0 0 2428 1000" xmlns="http://www.w3.org/2000/svg"><path id="calligraffitti" class="f" d="M324 311q-1 3-3 6t-6 2q-4 0-8 0t-10-1q-36 0-70 14t-64 37-51 54-31 67q-4 11-6 23t-4 23q-2 13-2 27t1 27 6 25 12 22q3 4 7 8t7 6q7 4 19 6t20 2q26 0 53-11t46-31q5-6 9-11t8-11q3-3 7-3 3 0 5 2t2 5q0 1-1 3-11 17-26 32t-33 24-36 16-39 5q-6 0-12 0t-13-2-12-3-10-4q-4-2-8-6t-7-8q-22-24-27-56t0-67q2-11 4-23t6-24q9-36 30-70t52-60 66-42 73-16q9 0 21 2t20 4q5 2 5 7m193 279q-13 26-27 47t-35 39q-11 10-25 10-7 0-14-4t-9-12q-1-2-1-7t0-9 0-10 0-7q-17 20-41 35t-51 14q-1 0-4-1t-4-1q-11-6-17-17t-5-24q0-16 4-32t11-31 16-28 20-26q26-33 61-57t74-39q0 0 2 0 3 0 5 2t2 6q0 4-4 6-8 4-16 8t-16 8q-54 31-91 80-8 9-16 22t-14 25-10 26-4 27q0 2 0 5t2 8 3 6 5 3q14 0 27-8t26-18 21-24 15-24q11-20 20-41t17-42q4-9 8-20t9-20q2-4 7-4 3 0 6 2t2 5l0 1q-4 18-9 36t-11 35q-2 7-6 15t-5 14q-1 3-1 7t-1 7q-2 7-3 15t-4 15q-2 10-4 20t-2 20q0 3 0 5t1 4q3 0 8-3t9-7 9-9 7-7q15-15 28-34 3-4 6-9t6-8q1-3 4-3 4 0 6 3t3 5m166 45q0 2-2 4-8 8-19 17t-24 17-25 13-24 6q-15 0-24-8t-13-20-6-24-2-26q0-27 6-53t12-53q12-51 29-100t44-95q5-9 10-17t11-17q2-3 5-3 3 0 6 2t2 5q0 2 0 3-22 56-45 113t-39 115q-6 26-12 53t-6 55q0 8 1 16t2 16 7 12 15 6q11 0 24-7t26-16 22-15 11-7q3 0 6 3t2 5m149 0q0 2-2 4-8 8-19 17t-24 17-25 13-24 6q-15 0-24-8t-14-20-5-24-2-26q0-27 6-53t11-53q13-51 30-100t44-95q5-9 10-17t11-17q2-3 5-3 3 0 6 2t2 5q0 2 0 3-22 56-46 113t-38 115q-6 26-12 53t-6 55q0 8 1 16t2 16 7 12 15 6q11 0 24-7t26-16 22-15 11-7q3 0 6 3t2 5m117-332q0 3-2 7l-1 1q1 3 1 5-3 2-5 5t-6 2q-5 0-9-3t-5-9q0-9 2-15t13-5q4 0 8 4t4 8m-3 311q0 3-2 4-9 12-17 23t-19 20-21 16-27 9q-13-6-18-15t-5-23v-18q0-13 3-26t6-27q4-19 10-41t13-43 17-42 22-36q3-2 5-2 3 0 6 2t3 6v1q-8 25-19 54t-20 58-16 59-7 57q0 2 1 8t3 7q11-2 22-12t23-19 18-19 11-8q2 0 5 3t3 4m200-170q0 1-1 3-1 8-2 16t-2 15q-3 16-6 32t-6 31q-12 56-30 111t-39 107q-8 19-17 38t-19 38-23 35-29 30q-22 20-52 20-15 0-30-5t-27-15-23-21-15-27q-1 0-1-2 0-3 3-5t5-2q3 0 6 3 2 5 5 9t5 8q13 16 31 27t38 10q23 0 41-16 14-12 26-30t23-38 21-43 17-45 15-43 13-38q-18 17-38 26t-46 10q0 0-1 0t-2 0q-11-3-18-9t-13-15-6-18-2-21q0-29 8-58t26-53q11-15 24-29t30-24 34-17 37-7q3 0 10 1t13 1 11 4 6 6m-18 6q-7-2-16-2-17 0-34 6t-31 17-27 24-21 26q-14 21-21 46t-7 49q0 6 0 13t3 14 7 11 12 5q15 0 30-7t26-19 22-25 15-27q15-32 24-65t18-66m224 21q0 4-1 8t-1 7-6 4q-2 0-5-2t-4-3l0-5q0-3 0-8t-3-10-4-8-8-3q-12 0-25 7t-23 14q-3 3-10 9t-14 13-14 13-8 10q-2 2-4 7t-4 11-5 12-4 8q-9 23-18 47t-17 47q-4 11-7 23t-7 23q-2 4-5 4-2 0-6-2t-3-4q0-5 1-12t3-12q6-32 16-63t21-60q4-12 11-28t12-33 15-32 15-24q2-2 5-2 2 0 5 3t4 4q0 2-1 5t-2 8-2 8-2 5q16-12 33-21t37-9q9 0 16 3t10 10 7 13 2 15m200 119q-13 26-27 47t-35 39q-11 10-25 10-7 0-14-4t-9-12q-1-2-1-7t0-9 0-10 0-7q-17 20-40 35t-51 14q-2 0-5-1t-4-1q-11-6-17-17t-5-24q0-16 4-32t11-31 17-28 19-26q26-33 61-57t74-39q0 0 2 0 3 0 5 2t2 6q0 4-4 6-8 4-16 8t-16 8q-54 31-91 80-8 9-15 22t-15 25-10 26-4 27q0 2 0 5t2 8 3 6 5 3q14 0 28-8t25-18 21-24 15-24q11-20 20-41t17-42q4-9 9-20t9-20q2-4 6-4 3 0 6 2t2 5l0 1q-4 18-9 36t-11 35q-2 7-6 15t-5 14q-1 3-1 7t-1 7q-1 7-3 15t-4 15q-2 10-4 20t-2 20q0 3 0 5t1 4q3 0 8-3t9-7 9-9 7-7q15-15 28-34 3-4 6-9t6-8q2-3 4-3 4 0 6 3t3 5m274-310q0 5-6 7-8 4-15 6t-15 6q-20 10-36 24t-29 32-23 36-17 38l-1 2q10-2 19-3t20-2q5 0 13 1t13 3q1 1 3 4t1 5q0 1-1 3t-2 2q-18 8-38 10t-39 4q-17 43-32 86t-29 87q-10 30-19 62t-19 61-24 60-31 57q-9 12-20 23t-24 19-28 13-30 5q-18 0-36-6t-35-18-30-25-23-29q-1-3-1-4 0-3 2-5t5-2q4 0 7 3 4 5 7 10t7 9q17 18 38 31t45 16q3 1 6 1t6 0q19 0 35-8t30-21 25-31 20-36 16-37 11-34q10-30 18-61t18-61q14-41 27-82t28-80q-16 2-32 3t-32 1q-2 0-4-4t-2-5q0-5 4-6 6-2 12-3t12-2q13-2 26-4t26-5q2-4 3-8t4-8q10-26 25-51t34-46 44-34 53-16h2q3 0 5 2t3 5m143 0q0 5-5 7-8 4-16 6t-15 6q-19 10-35 24t-29 32-23 36-18 38l0 2q9-2 19-3t19-2q5 0 13 1t13 3q2 1 3 4t1 5q0 1 0 3t-3 2q-17 8-38 10t-39 4q-17 43-31 86t-30 87q-10 30-19 62t-19 61-23 60-32 57q-9 12-20 23t-24 19-27 13-30 5q-19 0-37-6t-34-18-31-25-22-29q-1-3-1-4 0-3 2-5t5-2q3 0 6 3 4 5 8 10t7 9q16 18 37 31t46 16q3 1 6 1t6 0q19 0 35-8t30-21 25-31 20-36 15-37 12-34q10-30 18-61t18-61q14-41 27-82t28-80q-16 2-33 3t-32 1q-2 0-3-4t-2-5q0-5 4-6 6-2 12-3t12-2q12-2 26-4t26-5q1-4 3-8t4-8q10-26 25-51t34-46 43-34 54-16h2q3 0 5 2t2 5m5 23q0 3-3 7l0 1q1 3 1 5-4 2-5 5t-7 2q-4 0-9-3t-4-9q0-9 1-15t13-5q5 0 9 4t4 8m-4 311q0 3-1 4-10 12-18 23t-18 20-21 16-27 9q-13-6-18-15t-5-23v-18q0-13 3-26t5-27q5-19 10-41t13-43 18-42 22-36q2-2 5-2 2 0 5 2t3 6v1q-8 25-19 54t-20 58-16 59-6 57q0 2 0 8t3 7q11-2 23-12t22-19 19-19 10-8q3 0 6 3t2 4m160-267q0 1 0 1t0 1q-15 34-31 67t-29 68q5 0 10 0t10 0q3 0 6-1t6 1 4 2 2 6q0 5-4 6-3 1-9 2t-11 3-12 1-9 2q-5 12-9 28t-7 31-5 33-1 29q0 3 0 10t1 14 4 12 8 6q7 0 15-7t18-16 16-18 12-14q2-2 5-2 3 0 5 2t3 6q0 1-2 3-5 8-13 19t-19 22-21 18-21 8q-11 0-18-8t-11-19-5-23-1-20q0-12 2-27t4-29 6-30 6-26q-4 0-7 0t-8 0q-10 0-21 0t-21-2-20-6-18-12q-2-1-2-4 0-1 3-5t4-4q18 0 36 4t36 5q5 0 12 0t12 0h1q6-17 14-36t17-39 21-37 23-31q3-1 5-1 3 0 5 2t3 5m162 0q0 1 0 1t0 1q-16 34-32 67t-29 68q6 0 11 0t10 0q2 0 6-1t5 1 5 2 2 6q0 5-4 6-3 1-9 2t-12 3-11 1-10 2q-4 12-8 28t-7 31-5 33-2 29q0 3 0 10t2 14 4 12 7 6q7 0 16-7t17-16 16-18 13-14q2-2 4-2 3 0 6 2t3 6q0 1-2 3-5 8-14 19t-18 22-21 18-22 8q-11 0-18-8t-10-19-5-23-1-20q0-12 1-27t5-29 5-30 7-26q-4 0-8 0t-7 0q-11 0-21 0t-21-2-20-6-18-12q-2-1-2-4 0-1 3-5t4-4q18 0 36 4t35 5q6 0 12 0t13 0h1q5-17 13-36t18-39 21-37 22-31q3-1 5-1 3 0 6 2t3 5m134-44q0 3-2 7l-1 1q1 3 1 5-3 2-5 5t-6 2q-5 0-9-3t-5-9q0-9 2-15t13-5q4 0 8 4t4 8m-3 311q0 3-2 4-9 12-17 23t-19 20-21 16-27 9q-13-6-18-15t-5-23v-18q0-13 3-26t6-27q4-19 10-41t13-43 17-42 22-36q3-2 5-2 3 0 6 2t3 6v1q-8 25-19 54t-20 58-16 59-7 57q0 2 1 8t3 7q11-2 23-12t22-19 18-19 11-8q2 0 5 3t3 4" />
</svg>