<svg id="fnt-Cambo" viewBox="0 0 1504 1000" xmlns="http://www.w3.org/2000/svg"><path id="cambo" class="f" d="M177 670q-79 0-116-41t-37-130q0-173 153-173 60 0 91 29 17 17 17 38t-9 33-21 12-21-6-11-15q10-15 10-30t-15-25-40-9q-54 0-77 34t-24 112 23 110 77 34q18 0 37-7 38-14 53-56l25 9q-8 22-22 38t-26 24-29 13q-22 6-38 6m219 1q-32 0-50-17t-17-48 24-52 73-24l42-3v-44q0-27-11-39t-34-12q-42 0-42 24 0 14 16 20 0 26-31 26-14 0-22-9t-9-22q0-28 24-45t65-16 66 19 24 54v151q13 9 38 14l-2 19h-75l-5-24q-30 28-74 28m-20-67q0 44 34 44 27 0 58-31v-68l-40 4q-24 2-38 16t-14 35m235 30v-154q0-20-8-28t-29-8l1-16q11-2 66-18l10 5 4 28q4-5 10-11t22-14 32-8q48 0 69 35 35-35 70-35t58 20 23 61v143q13 9 38 14l-2 19h-119l2-19q20-3 35-14v-144q0-54-40-54-18 0-34 13t-21 29v156q13 9 38 14l-2 19h-119l2-19q20-3 35-14v-144q0-54-40-54-18 0-34 13t-21 29v156q14 10 38 14l-2 19h-119l2-20q21-3 35-13m443 33h-25v-299q0-17-9-24t-29-8l2-16q20-3 71-18l11 5v141q21-38 62-38 53 0 77 35t25 93-29 96-84 37q-33 0-61-27-7 11-11 23m21-111v65q29 27 51 27t35-10 19-26q10-29 10-63t-2-50-6-33q-10-33-45-33-40 0-52 40-10 32-10 83m253-16q0 56 15 81t48 25 49-25 15-81-15-80-49-25-49 25-14 80m146 97q-28 34-83 34t-83-34-28-97 28-97 83-33 83 33 29 97-29 97" />
</svg>