<svg id="fnt-Cantata One" viewBox="0 0 3186 1000" xmlns="http://www.w3.org/2000/svg"><path id="cantata-one" class="f" d="M319 319q10-11 10-26h20v102h-20q-7-40-39-63t-69-24q-123 0-122 173 0 69 27 114 31 53 89 53 45 0 76-16t48-43l13 12q-9 22-39 42-40 29-101 29-86 0-137-54t-52-137 52-138 142-55q49 0 86 20 10 6 16 11m242 320q-28 33-76 33-36 0-62-21t-26-52 26-52 66-18 67 20v-58q0-30-7-40t-17-15-22-4q-19 0-32 4t-17 9q11 3 17 17 2 5 2 12 0 13-10 22t-19 9q-17 0-27-9t-9-22 4-21 13-14q15-13 37-19t42-7q55 0 82 22t26 62v130q0 21 10 21t19-13l13 11q-16 25-54 25-13 0-27-8t-19-24m-4-19v-49q-21-21-46-21t-37 12-12 37q0 38 27 46 7 3 15 3 22 0 42-17 6-6 11-11m298-184q-40 0-72 37v175h45v19h-148v-19h40v-212h-40v-19h103v31q37-35 84-35 32 0 58 16 32 22 32 69v150h40v19h-148v-19h45v-155q0-29-6-39t-14-14-19-4m275 236q-87 0-87-82v-154h-30v-19h30v-75q22 0 54-11 7-3 11-5v91h80v19h-80v172q0 23 9 32t25 10q25 0 44-21l13 11q-18 22-48 29-10 3-21 3m265-33q-29 33-76 33-37 0-63-21t-26-52 26-52 66-18 67 20v-58q0-30-7-40t-17-15-22-4q-19 0-32 4t-17 9q11 3 17 17 2 5 2 12 0 13-10 22t-19 9q-17 0-27-9t-9-22 4-21 13-14q15-13 37-19t43-7q55 0 81 22t26 62v130q0 21 10 21t20-13l12 11q-16 25-54 25-13 0-27-8t-18-24m-5-19v-49q-21-21-45-21t-37 12-13 37q0 38 27 46 7 3 15 3 22 0 43-17 5-6 10-11m240 52q-87 0-87-82v-154h-30v-19h30v-75q22 0 54-11 7-3 11-5v91h80v19h-80v172q0 23 9 32t25 10q25 0 44-21l13 11q-18 22-48 29-10 3-21 3m265-33q-29 33-76 33-37 0-63-21t-26-52 26-52 66-18 67 20v-58q0-30-7-40t-17-15-22-4q-19 0-32 4t-17 9q11 3 17 17 2 5 2 12 0 13-10 22t-19 9q-17 0-27-9t-9-22 4-21 13-14q15-13 37-19t43-7q55 0 81 22t26 62v130q0 21 10 21t20-13l12 11q-16 25-54 25-13 0-27-8t-18-24m-5-19v-49q-21-21-45-21t-37 12-13 37q0 38 27 46 7 3 15 3 22 0 43-17 5-6 10-11m321-46q-11-21-16-45t-5-49 5-48 16-45q21-45 63-72t101-27q89 0 140 60 45 54 45 133t-46 132q-31 37-82 51-26 8-57 8t-56-8-47-20-36-31-25-39m252 20q9-16 18-45t9-59-3-52-9-40q-13-40-39-65t-64-25q-61 0-90 55-25 46-25 116t26 115q30 57 88 57t89-57m310-158q-40 0-72 37v175h44v19h-147v-19h39v-212h-40v-19h104v31q36-35 83-35 33 0 58 16 33 22 33 69v150h39v19h-147v-19h44v-155q0-29-6-39t-13-14-19-4m393 176l13 12q-39 48-109 48-24 0-49-10t-43-28q-37-36-37-93t37-92 94-36q84 0 106 70 7 23 7 51h-177v7q0 76 43 99 14 8 34 8 45 0 81-36m-157-98h110q0-39-12-60t-37-21q-53 0-61 81" />
</svg>