<svg id="fnt-Cantora One" viewBox="0 0 2608 1000" xmlns="http://www.w3.org/2000/svg"><path id="cantora-one" class="f" d="M21 506q0-99 40-147t114-48q23 0 37 3t28 3q8 0 17-2t18-4l5 127-56 7q1-8 1-15t0-12q0-31-11-48t-39-17q-88 0-88 140 0 34 5 57t18 38 28 22 40 7q25 0 49-8t46-15v53q-22 14-52 20t-58 6-54-7-45-24-31-51-12-85m363 167q-31 0-51-22t-19-56q0-36 21-57t56-22q15 0 29 4t26 12v-28q0-24-9-33t-31-10q-15 0-32 4t-26 9l-16-48q8-3 18-6t23-5 24-3 23-1q88 0 88 86 0 7-1 22t-1 30-2 29 0 19q0 12 3 17t13 5q7 0 15-2l-8 48q-8 2-15 4t-13 1q-19 0-31-10t-15-29q-10 19-28 30t-41 12m24-46q16 0 27-12t12-29q0-15-9-24t-25-9q-17 0-26 10t-10 28q0 16 8 26t23 10m145-176l59-40q10 14 16 25t9 23q7-8 17-17t20-16 23-11 26-4q13 0 24 4t21 15 15 29 5 45q0 7 0 20t-1 29-1 29 0 22q0 16 2 31t8 26l-69 12q-4-12-5-25t0-24q0-14 0-29t2-28 1-26 1-21q0-30-10-41t-27-11q-15 0-27 5t-22 11q1 9 1 21t0 26q0 23 0 42t0 34 1 30 1 30h-68q1-12 1-27t1-32 2-35 0-34q0-19-1-32t-4-21-8-17-13-18m274 1l-3-31q16-1 27-6t17-14 11-24 9-36l47-14q-5 28-7 49t-5 41h54l-4 42-52-3q-2 30-3 55t-1 43q0 21 1 33t4 19 8 9 12 2q10 0 20-3t16-6l-8 52q-12 6-22 9t-25 4q-17 0-29-5t-21-17-12-31-4-45q0-23 2-55t5-68h-37m292 0q-23 0-36 24t-12 68q0 42 10 65t36 24q23 0 36-26t13-69q0-20-2-36t-7-27-15-17-23-6m-114 94q0-31 9-56t23-43 38-27 49-9q51 0 79 32t28 91q0 32-8 57t-24 44-38 28-48 10q-25 0-45-9t-34-26-21-40-8-52m254-98l58-40q11 16 17 28t8 26q5-7 13-16t17-17 21-13 24-8l5 71q-25 0-46 4t-30 14q1 10 1 21t0 25q0 16 0 34t1 35 2 32 2 23h-70q0-11 1-25t1-29 0-31 1-30q0-23-1-38t-4-25-8-20-13-21m250 225q-32 0-51-22t-19-56q0-36 21-57t56-22q14 0 29 4t26 12v-28q0-24-9-33t-31-10q-15 0-32 4t-27 9l-15-48q7-3 18-6t22-5 25-3 23-1q88 0 88 86 0 7-1 22t-2 30-1 29-1 19q0 12 4 17t13 5q6 0 15-2l-8 48q-8 2-15 4t-14 1q-18 0-31-10t-15-29q-10 19-28 30t-40 12m24-46q16 0 27-12t11-29q0-15-9-24t-25-9q-16 0-26 10t-9 28q0 16 8 26t23 10m413-271q-39 0-62 35t-23 102q0 66 19 101t63 35q19 0 35-10t27-28 17-45 7-59q0-31-4-56t-13-41-26-26-40-8m-153 139q0-41 11-75t31-58 50-38 65-13q35 0 62 12t46 35 29 54 10 71q0 41-12 76t-31 60-50 39-64 15q-35 0-62-14t-46-37-29-56-10-71m334-44l58-40q10 14 16 25t9 23q8-8 17-17t20-16 24-11 26-4q12 0 24 4t21 15 14 29 6 45q0 7-1 20t0 29-1 29 0 22q0 16 2 31t8 26l-70 12q-3-12-4-25t-1-24q0-14 1-29t1-28 2-26 1-21q0-30-10-41t-28-11q-14 0-27 5t-21 11q1 9 1 21t0 26q0 23 0 42t0 34 0 30 1 30h-67q0-12 1-27t1-32 1-35 1-34q0-19-1-32t-4-21-8-17-13-18m472 103h-127q3 38 16 53t39 15q20 0 38-6t29-11v42q-16 14-40 20t-46 6q-19 0-37-5t-32-17-23-36-9-59q0-37 9-64t25-45 37-27 46-9q26 0 42 8t25 23 13 30 3 32q0 16-2 29t-6 21m-84-107q-19 0-30 17t-13 53h83q0-2 0-5t0-6q0-8-1-18t-6-19-13-16-20-6" />
</svg>