<svg id="fnt-Carattere" viewBox="0 0 1492 1000" xmlns="http://www.w3.org/2000/svg"><path id="carattere" class="f" d="M139 704q-50 0-75-30-22-25-22-69 0-30 9-61t28-61q-30-10-51-33-21-23-21-51 0-33 29-49 24-13 55-13 55 0 96 35 75-46 149-46 68 0 68 36 0 35-56 75-78 57-195 57-8 0-16 0t-15-2q-41 67-41 123 0 33 14 53 18 26 54 26 67 0 132-78 33-40 33-70 0-28-29-28-31 0-79 35-42 31-62 62-1 3-3 3-4 0-4-5 0-2 1-3 15-34 59-68 45-34 81-34 24 0 37 15 11 15 11 35 0 17-6 35t-21 36q-28 35-72 55-45 20-88 20m15-222q25 0 51-5 72-13 135-59 43-31 43-62 0-20-34-20-66 0-140 59 4 7 8 13t8 14q2 3-2 4h-2q-4 0-5-3-3-3-7-9t-9-11q-41 35-70 77 12 2 24 2m-67-12q34-53 89-90-43-34-91-34-23 0-40 11-20 14-20 41 0 49 62 72m389 198q-11 0-18-7-10-8-10-28 0-13 4-30-17 29-35 47-19 17-34 17-13 0-21-11-8-11-8-31 0-47 43-98 7-8 16-15t19-13q22-11 42-11 24 0 39 16 3 4 3 8 0 9-9 7-5-18-23-18-21 0-50 29-10 11-19 23t-17 25q-21 36-21 58 0 17 13 17 14 0 33-22 11-12 22-29t23-41q5-9 9-15t6-9q8-8 19-8l10 2q7 1 11 0-4 5-11 14t-14 26q-8 16-14 30t-7 24q-1 5-2 9t0 8q0 13 7 13 10 0 27-22l2-3 7 5-2 3q-20 30-40 30m47 2q10-24 25-60t36-82q4-10 8-16t7-9q6-8 17-6l11 1q3 1 6 1t5 0q-10 5-24 28t-29 63q6-7 14-19t22-27q14-17 30-31t30-15q11 0 16 8t5 17q0 11-9 20t-17 9q-4 0-8-1t-3-5q0-2 1-5t1-5q0-7-7-7-3 0-7 1t-11 8q-14 13-31 31t-30 41-23 50q-3 7-15 8-17 1-20 2m279-2q-11 0-18-7-10-8-10-28 0-13 5-30-17 29-36 47-19 17-34 17-13 0-20-11-8-11-8-31 0-47 42-98 7-8 16-15t20-13q21-11 41-11 25 0 39 16 4 4 4 8 0 9-9 7-5-18-24-18-21 0-49 29-10 11-19 23t-17 25q-22 36-22 58 0 17 13 17 15 0 34-22 10-12 21-29t23-41q5-9 9-15t7-9q8-8 19-8l10 2q6 1 11 0-5 5-11 14t-14 26q-9 16-14 30t-8 24q-1 5-1 9t-1 8q0 13 7 13 10 0 28-22l2-3 7 5-2 3q-21 30-41 30m103-1q-33 0-33-36 0-7 1-14t5-15q26-70 45-114h-33l6-11h31l12-35q7-19 11-22 4-3 16-3l22 1q-10 8-15 20l-17 39h38l-6 11h-36q-4 8-7 16t-7 16q-11 23-18 44-9 23-15 40t-6 27q-2 25 13 25 14 0 34-30l6 7q-24 34-47 34m109 0q-32 0-32-36 0-7 1-14t4-15q27-70 45-114h-32l6-11h31l12-35q6-19 11-22 3-3 16-3l21 1q-10 8-15 20l-16 39h38l-6 11h-37q-3 8-7 16t-7 16q-10 23-18 44-9 23-14 40t-6 27q-2 25 13 25 14 0 34-30l6 7q-24 34-48 34m112 2q-19 0-33-13-8-7-11-16t-3-21q0-46 38-92 32-38 66-38 12 0 20 6 8 7 8 18 0 27-36 55-12 8-31 15-21 7-30 7-7 17-7 36 0 32 24 32 31 0 59-41l2-3 8 4-1 3q-13 25-32 36t-41 12m-9-88q8 0 23-5 9-4 16-8t14-9q28-23 28-48 0-11-8-11-14 0-43 34-14 18-30 47m84 89q10-24 25-60t36-82q4-10 8-16t7-9q6-8 17-6l11 1q3 1 6 1t5 0q-10 5-24 28t-29 63q6-7 14-19t22-27q14-17 30-31t30-15q11 0 16 8t5 17q0 11-9 20t-17 9q-4 0-8-1t-3-5q0-2 1-5t1-5q0-7-7-7-3 0-7 1t-11 8q-14 13-31 31t-30 41-23 50q-3 7-15 8-17 1-20 2m205-1q-19 0-33-13-8-7-11-16t-3-21q0-46 38-92 32-38 66-38 12 0 20 6 8 7 8 18 0 27-36 55-12 8-31 15-21 7-30 7-7 17-7 36 0 32 24 32 31 0 59-41l2-3 8 4-1 3q-13 25-32 36t-41 12m-9-88q8 0 23-5 9-4 16-8t14-9q28-23 28-48 0-11-8-11-14 0-43 34-14 18-30 47" />
</svg>