<svg id="fnt-Caramel" viewBox="0 0 1280 1000" xmlns="http://www.w3.org/2000/svg"><path id="caramel" class="f" d="M111 685q-27 0-50-10t-37-30-14-49q0-30 14-58t39-50 54-40 61-25 58-9q13 0 26 4t22 13 10 24q0 17-13 32t-26 24q-2 1-4 3t-4 1q-3 0-3-3 0-4 6-11t11-17 5-24q0-20-14-27t-31-8q-33 0-65 13t-58 35-43 50q-8 14-14 30t-6 33q0 27 15 42t36 21 45 7q39 0 71-10t62-36q1-1 2-1 2 0 2 3 0 2-1 2-16 22-43 37t-57 25-56 9m288-16q-10 0-16-6t-7-16q0-11 6-24t10-22q-6 7-15 18t-21 23-22 18-22 7q-11 0-16-8t-5-17q0-6 2-12 3-13 13-28t23-27 28-25 25-19q5-3 10-6t13-3q8 0 14 4t13 10q1-2 2-4t4-1q2 0 9 1t14 4 6 4q0 0 0 0-4 5-8 10t-8 10q-12 17-24 36t-20 38q-1 3-2 6t-1 7q0 9 9 9 7 0 17-7t20-19 21-22 16-19 7-7q2 0 2 2 0 1-8 9t-18 21-19 20-11 12q-8 8-19 15t-22 8m-82-13q4 0 8-3t8-3q19-12 37-30t32-40 27-40q-1 0-3 0-5 0-11 3-28 15-54 39t-43 53q-2 3-4 7t-1 9q0 5 4 5m215 13q-10 0-16-6t-6-16 6-25 15-30 18-31 15-23q-4 2-9 2-5 0-11-2t-12-4q-1 3-7 11t-14 19-15 21-14 16-8 7q-1 0-1-1 0-1 1-3 6-7 11-13t12-14q8-10 16-22t13-24q-3-2-8-6t-5-8q0-5 7-11t14-9 12-6q2 0 9-4t8-3q2 0 2 2 0 1-6 6t-13 14-6 16q0 7 6 10t12 3q6 0 9-2 2-2 4-2 4 0 10 1t11 4 5 8q0 3-2 6t-4 6q-5 6-15 18t-20 26-17 26-7 20q0 5 3 8t9 3q8 0 18-8t21-19 21-22 16-19 7-7q2 0 2 2 0 1-5 7t-13 14-16 18-14 15-8 8q-8 8-19 15t-22 8m170 0q-9 0-16-6t-6-16q0-11 5-24t11-22q-6 7-16 18t-20 23-23 18-22 7q-11 0-16-8t-4-17q0-6 1-12 4-13 14-28t23-27 27-25 25-19q5-3 11-6t12-3q8 0 15 4t12 10q2-2 2-4t4-1q2 0 9 1t14 4 7 4q0 0-1 0-3 5-7 10t-8 10q-13 17-25 36t-20 38q-1 3-2 6t-1 7q0 9 9 9 7 0 17-7t21-19 20-22 16-19 8-7q1 0 1 2 0 1-7 9t-18 21-19 20-11 12q-8 8-19 15t-23 8m-81-13q4 0 8-3t7-3q20-12 37-30t33-40 27-40q-1 0-4 0-5 0-10 3-29 15-55 39t-42 53q-2 3-4 7t-2 9q0 5 5 5m308 13q-9 0-14-6t-5-14 6-23 13-29 16-29 13-21q-13 6-25 16t-21 20q-11 12-20 25t-16 28q-2 5-4 9t-4 8q-2 5-11 10t-13 4q-6 0-6-6 0-9 5-23t11-28 13-29 12-22 4-10-1-1q-1 0-3 1t-3 2q-15 11-32 29t-30 37-24 36q-5 9-13 11t-17 3q4-8 8-16t7-14q6-12 11-24t10-24q4-10 9-25t4-25q0-3 0-6t-2-5q-2-2-2-2 0-3 4-3 3 0 10 4t14 8 7 9q0 7-6 21t-13 27-12 20q0 1-1 2t-1 2l1 0q1 0 8-9t17-21 24-27 26-22 24-8q6 0 13 2t7 10q0 2-1 4t-2 4q-11 14-21 28t-18 30q6-8 18-21t26-26 28-22 25-9q5 0 12 2t7 10q0 2-1 4t-2 4q-5 7-15 20t-20 28-18 28-7 22q0 9 9 9 8 0 18-7t20-19 21-22 15-19 8-7 2 2q0 0-5 5t-8 11-6 6q-7 8-17 18t-21 21-23 17-22 7m112-2q-14 0-27-7t-13-23q0-2 0-4t1-3q4-17 14-34t26-31 32-26 33-17q1-1 3-1t3-1q5 0 8 5t4 11 2 9q0 9-6 18t-11 16q3 0 6 0t6 0q1 0 1 1 0 1-1 1t-2 1l-15 2q-14 1-29 4t-29 8q-6 9-13 23t-6 25q0 6 3 11t10 5q5 0 9-2t9-4q24-12 43-29t37-36q1-1 2-1 1 0 1 1 0 2-1 3t-2 3q-14 17-31 34t-36 29q-14 9-31 9m19-86q11-1 23-2t23 0q3-4 5-11t2-12q0-2-1-5t-4-3h-2q-6 2-15 8t-18 13-13 12m82 88q-11 0-17-8t-6-17q0-8 9-27t21-41 27-47 26-42 18-27q5-8 10-15t15-7q3 0 11 2t15 4 8 6q-10 4-24 19t-29 38-31 46-26 44-16 30q-2 5-5 10t-2 11q0 8 9 8 7 0 17-7t21-19 20-22 16-19 7-7q2 0 2 2 0 0-4 5t-9 11-6 6q-6 8-15 18t-20 21-21 17-21 7" />
</svg>