<svg id="fnt-Carme" viewBox="0 0 1439 1000" xmlns="http://www.w3.org/2000/svg"><path id="carme" class="f" d="M84 620q-54-53-54-128t54-129 128-54q61 0 111 38l-29 29q-38-29-82-29-56 0-97 43t-40 102 40 102 97 42q45 0 82-28l29 29q-50 37-111 37-75 0-128-54m288-32q0-34 24-56t69-23h66v-19q0-23-9-33t-33-9q-18 0-55 4l-34 4v-39q27-2 40-4 44-4 66-4 35 0 52 20t16 46v192h-31l-7-25h-2q-43 30-83 30-38 0-59-26t-20-58m44 0q0 19 10 35t33 15q17 0 38-7t34-17h0v-71h-66q-49 0-49 45m274 79h-42v-250h30l6 17q32-24 57-24 27 0 50 12l-16 33q-22-7-40-7-25 0-45 18v201m196 0h-41v-250h30l5 14q28-22 61-22 19 0 38 7t30 19q29-26 65-26 30 0 55 15t25 40v203h-42v-183q0-37-44-36-27 0-47 16v203h-43v-183q0-37-43-36-29 0-49 17v202m331-126q0-60 32-96t84-36q105 0 105 148h-179q2 31 22 55t62 24q48 0 83-16v40q-38 14-78 14-34 0-60-11t-41-29-23-42-7-51m43-17h135q-3-34-19-55t-43-22q-29 0-49 21t-24 56" />
</svg>