<svg id="fnt-Carrois Gothic SC" viewBox="0 0 4201 1000" xmlns="http://www.w3.org/2000/svg"><path id="carrois-gothic-sc" class="f" d="M229 592l37 15q-14 30-39 49t-64 18q-20 0-43-8t-41-28-31-58-13-93q0-56 12-93t31-57 41-30 44-8q20 0 35 5t28 13 21 20 14 23l-37 14q-8-20-23-31t-38-10q-17 0-32 7t-27 25-18 47-7 75q0 44 7 74t19 47 27 25 32 7q27 0 42-14t23-34m326 75h-45l-23-68h-125l-24 68h-42l105-280h49l105 280m-130-247l-52 147h103l-51-147m394 247h-48l-73-103h-53v103h-40v-280h74q26 0 47 5t36 16 23 27 9 40q0 35-16 54t-39 28l80 110m-139-249h-35v115h33q38 0 56-14t18-44q0-29-18-43t-54-14m406 249h-48l-73-103h-53v103h-40v-280h74q26 0 47 5t36 16 23 27 9 40q0 35-16 54t-39 28l80 110m-139-249h-35v115h33q38 0 56-14t18-44q0-29-18-43t-54-14m176 109q0-39 10-67t28-46 40-27 47-8 47 8 40 27 28 46 11 67-11 67-28 46-40 26-47 8-46-8-41-26-28-46-10-67m42 0q0 57 22 85t61 29 61-29 23-85-23-86-61-29-61 28-22 87m289-140h41v280h-41v-280m111 228l34-16q3 7 9 14t15 15 21 10 28 4q11 0 22-2t19-8 14-15 6-21-4-21-13-14-24-12-37-13q-36-12-57-30t-21-50q0-14 7-27t18-24 30-16 41-6q35 0 59 15t37 38l-35 14q-9-17-23-27t-37-9q-11 0-21 2t-19 7-13 12-5 18 4 18 12 13 21 11 32 13q22 8 38 15t28 17 17 22 5 33q0 17-7 32t-21 25-32 16-41 6q-23 0-41-5t-31-15-22-19-13-20m649-147v199h-33l-3-23q-13 16-32 23t-38 7q-25 0-47-10t-38-31-25-58-10-89q0-53 11-89t29-58 41-31 48-9q37 0 60 14t36 42l-36 17q-8-19-22-30t-36-11q-20 0-36 9t-28 27-17 48-6 71q0 45 5 74t17 48 26 25 34 8q42 0 62-30v-109h-62v-34h100m73 59q0-39 11-67t28-46 40-27 47-8 46 8 41 27 28 46 10 67-10 67-29 46-40 26-46 8-47-8-40-26-28-46-11-67m42 0q0 57 22 85t62 29 61-29 22-85-22-86-61-29-62 28-22 87m455-140v35h-83v245h-41v-245h-82v-35h206m230 0h41v280h-41v-126h-131v126h-41v-280h41v121h131v-121m131 0h41v280h-41v-280m306 213l34 19q-13 24-38 39t-62 16q-19 0-40-7t-39-24-29-45-11-71q0-42 12-71t29-45 39-25 41-7q35 0 58 15t35 36l-34 17q-8-16-23-25t-36-10q-13 0-27 5t-26 19-18 35-7 56q0 33 7 55t18 35 25 18 28 6q23 0 39-11t25-30m354-268q-28 0-46 13t-18 42q0 13 3 23t12 18 22 15 33 15q20 8 37 17t31 22 21 31 8 45q0 21-9 39t-23 32-35 22-45 8q-25 0-44-6t-32-17-22-23-14-27l36-13q4 10 9 19t15 17 22 12 31 4q12 0 24-3t21-11 16-20 6-30q0-19-5-32t-15-22-26-17-40-17q-40-16-60-40t-19-58q0-19 7-36t21-29 32-19 45-7q42 0 66 17t37 47l-37 13q-8-21-23-32t-42-12m358 260l37 15q-14 30-39 49t-64 18q-20 0-43-8t-41-28-31-58-13-93q0-56 12-93t31-57 41-30 44-8q20 0 35 5t28 13 21 20 14 23l-37 14q-8-20-23-31t-38-10q-17 0-32 7t-27 25-18 47-7 75q0 44 7 74t19 47 27 25 32 7q27 0 42-14t23-34" />
</svg>