<svg id="fnt-Carrois Gothic" viewBox="0 0 3034 1000" xmlns="http://www.w3.org/2000/svg"><path id="carrois-gothic" class="f" d="M229 592l37 15q-14 30-39 49t-64 18q-20 0-43-8t-41-28-31-58-13-93q0-56 12-93t31-57 41-30 44-8q20 0 35 5t28 13 21 20 14 23l-37 14q-8-20-23-31t-38-10q-17 0-32 7t-27 25-18 47-7 75q0 44 7 74t19 47 27 25 32 7q27 0 42-14t23-34m275 75h-34l-2-30q-11 15-29 25t-45 10q-15 0-30-5t-26-13-19-24-8-35q0-44 36-70t117-27v-22q0-24-12-40t-39-16q-22 0-36 11t-22 31l-36-14q12-27 36-43t59-16q23 0 40 6t28 17 17 26 5 32v197m-99-27q19 0 33-9t26-21v-80q-57 1-84 16t-27 46q0 25 15 36t37 12m219 27h-40v-270h37l1 38q10-23 26-34t34-11q7 0 12 1t12 3l-10 37q-4-1-9-2t-11 0q-10 0-18 4t-14 12-11 17-9 20v185m166 0h-40v-270h37l1 38q10-23 26-34t34-11q7 0 12 1t12 3l-10 37q-4-1-9-2t-11 0q-10 0-18 4t-14 12-11 17-9 20v185m114-135q0-42 10-69t25-44 36-23 39-7q19 0 39 7t35 22 26 44 10 70-10 69-25 42-36 22-39 7q-19 0-39-7t-35-22-26-43-10-68m42 0q0 57 19 83t50 26 49-26 18-83q0-29-5-50t-14-35-21-20-28-7q-29 0-49 27t-19 85m292-184h-46v-49h46v49m-3 319h-40v-270h40v270m149 5q-34 0-57-13t-36-39l35-18q7 16 23 26t36 11q10 0 19-3t17-9 12-14 5-19q0-15-6-24t-15-14-22-9-25-8q-35-11-52-29t-16-45q0-19 7-33t19-23 27-15 33-5q33 0 55 14t33 37l-35 15q-7-16-20-26t-34-9q-9 0-17 3t-14 7-11 12-3 18 3 18 12 13 20 10 29 10q33 10 52 28t20 51q0 18-7 33t-19 26-30 17-38 6m530-204v199h-33l-2-23q-14 16-32 23t-38 7q-25 0-47-10t-38-31-26-58-9-89q0-53 10-89t29-58 41-31 49-9q37 0 60 14t36 42l-36 17q-9-19-22-30t-37-11q-19 0-36 9t-27 27-18 48-6 71q0 45 6 74t17 48 26 25 34 8q41 0 61-30v-109h-61v-34h99m70 64q0-42 10-69t25-44 36-23 39-7q19 0 39 7t35 22 26 44 10 70-10 69-25 42-36 22-39 7q-19 0-39-7t-35-22-26-43-10-68m42 0q0 57 19 83t50 26 49-26 18-83q0-29-5-50t-14-35-21-20-28-7q-29 0-49 27t-19 85m359 99l10 31q-19 8-43 8-33 0-50-18t-17-50v-173h-42l5-32h38l2-65h37v65h58v32h-58v171q0 20 9 28t25 8q7 0 12-1t14-4m97 36h-40v-368h40v131q16-22 36-31t40-10q17 0 32 5t24 16 16 29 6 44v184h-40v-177q0-20-3-33t-9-21-14-11-21-3q-20 0-37 12t-30 33v200m277-319h-46v-49h46v49m-3 319h-40v-270h40v270m114-136q0 57 18 83t50 26q21 0 35-10t27-32l33 21q-15 23-39 39t-57 15q-22 0-42-8t-35-24-24-44-8-65q0-37 8-64t24-44 35-26 44-9q28 0 49 10t39 34l-31 22q-13-19-26-26t-31-8q-31 0-50 27t-19 83" />
</svg>