<svg id="fnt-Carter One" viewBox="0 0 2658 1000" xmlns="http://www.w3.org/2000/svg"><path id="carter-one" class="f" d="M31 502q0-27 6-52t19-46 29-39 38-31 45-19 52-7q21 0 37 3t29 7 20 10 14 9q-1 0-1 2 0 4 1 13t1 22 2 24 0 22q0 1 0 3t-5 2q-3 0-6-1-5-1-13-6t-18-11-23-11-28-4q-20 0-36 8t-28 22-18 33-6 41q0 21 4 39t13 32 23 21 30 9q14 0 25-1t20-4 18-5 19-10q1 0 3 0 2 0 2 1t1 6v29q0 8 0 16t-1 14 0 10 0 3q-11 7-24 12t-27 7-27 3-26 1q-35 0-65-13t-52-36-35-56-12-72m581-112l-26 228q0 1 0 1t0 2q0 6 2 10t4 7 5 4 2 3q0 3-8 6l-65 28q-1 0-2 0-2 0-4-3t-4-9-3-11-3-11q-15 18-33 26t-36 8q-20 0-40-9t-34-25-25-41-9-53q0-35 10-64t28-49 40-32 49-12q19 0 35 8t31 19q1-8 2-12t1-7 3-3 8-1q18-3 35-5t37-3m-109 208l10-72q3-14 4-27t1-22q-4-3-8-6t-10-6-11-5-12-2q-13 0-22 9t-15 21-8 26-2 25q0 39 10 56t29 18q7 0 16-4t18-11m354-206l-15 76q-6-1-12-1t-13-1q-11 0-22 2t-21 7-16 15-9 24q-2 18-3 30t-1 19-1 12-1 8q0 1 0 6t-1 10-2 13-1 12-1 11 0 5q0 2 0 3t0 3q0 2-2 3t-8 3l-65 23q-3 1-7 3t-9 1q-3 0-6-1t-2-6l21-242q1-8 2-11t5-4q22-5 46-9t46-12q2 0 2 1t1 2q0 0 0 1t-1 4-2 11-3 19q11-9 25-16t27-12 26-9 23-3m183 86h-46q-3 26-6 52t-4 47q0 10 1 16t5 10 6 5 9 2q8 0 17-2t19-6q3-2 5-2t3-1q3 0 4 2t1 8 3 15 6 23q0 2 0 2t0 2q0 3-3 5t-8 3q-10 4-21 7t-22 7-21 5-18 1q-40 0-59-20t-19-62q0-7 1-14t1-16q2-24 4-46t4-42h-26q-13 0-19-1t-5-4q0-1 2-6t6-10 8-13 9-13 7-10 3-5h18q2-19 3-31t3-21 1-13 2-7 2-3 3-1q11-2 22-4t20-4 21-4 22-6q1 0 1 0t1 0q3 0 3 2v0q-1 14-4 37t-5 55h65q2 0 4 1t2 5q0 1-3 8t-9 20l-8 20q-2 4-4 5t-7 2m192-84q24 0 43 9t32 22 21 31 7 34q0 16-9 31t-26 27-40 20-52 8q-14 0-31-3 1 10 7 18t13 12 17 7 21 3q11 0 22-2t21-6 19-7 18-9q2 0 4-1t3 0q0 0 0 4t0 11-1 17 0 22q1 1 1 3t0 2q0 3-5 6t-14 7-20 7-23 6-22 5-19 1q-26 0-51-9t-44-26-30-42-12-54q0-32 11-60t31-49 48-33 60-12m-3 65q-10 0-18 4t-15 13-12 19-9 24q25-4 42-9t27-10 14-10 4-10q0-4-3-8t-9-7-10-4-11-2m352-67l-16 76q-5-1-11-1t-13-1q-11 0-22 2t-21 7-16 15-9 24q-2 18-3 30t-1 19-1 12-1 8q0 1 0 6t-1 10-2 13-1 12-1 11-1 5q0 2 1 3t0 3q0 2-2 3t-8 3l-65 23q-3 1-7 3t-9 1q-3 0-6-1t-2-6l21-242q1-8 2-11t5-4q22-5 46-9t46-12q2 0 2 1t1 2q0 0-1 1t0 4-2 11-3 19q11-9 25-16t27-12 26-9 23-3m221 108q0 18 3 35t13 32 23 23 36 9q16-1 28-7t22-15 14-21 10-24 4-27 2-27q0-17-5-33t-14-29-23-20-32-7q-14 0-26 5t-21 14-15 21-11 24-6 24-2 23m47 179q-36 0-65-13t-49-37-31-54-10-65q0-38 11-71t30-57 47-42 59-26q3 0 4-5t3-10 3-10 5-5q47 5 85 17t64 34 41 55 14 82q0 31-8 59t-21 50-33 41-42 31-51 20-56 6m498-20l-59 16q-3 1-7 3t-9 1q-3 0-6-1t-3-6v-2q2-13 3-22t2-17 1-15 2-17 2-23 3-34q2-13 3-25t1-24q0-8-2-14t-3-11-8-7-13-2q-5 0-15 2t-20 8-17 15-9 23q-1 18-2 31t-3 21-1 15-1 9q0 1-1 6t-1 10-1 13-1 13-1 11-1 5q0 2 1 3t0 3q0 2-2 3t-8 3l-65 22q-3 1-7 3t-9 1q-3 0-6-1t-2-6l22-250q1-8 2-11t5-4q23-4 46-9t46-11q2 0 2 0t0 2q0 1 0 2t-1 4-1 10-3 20q17-10 31-16t28-9 25-5 21-1q35 0 50 21t16 63q0 6 0 12t-1 13l-12 105q-1 10-1 18t0 21q0 2 0 3t0 2q0 2-2 4t-8 3m206-265q23 0 42 9t33 22 21 31 7 34q0 16-9 31t-26 27-40 20-52 8q-15 0-31-3 1 10 6 18t13 12 18 7 20 3q12 0 23-2t21-6 19-7 18-9q2 0 4-1t3 0q0 0-1 4t0 11 0 17 0 22q1 1 1 3t0 2q0 3-5 6t-14 7-20 7-23 6-22 5-19 1q-26 0-51-9t-44-26-30-42-12-54q0-32 11-60t31-49 47-33 61-12m-3 65q-10 0-18 4t-16 13-12 19-8 24q25-4 42-9t26-10 15-10 4-10q0-4-4-8t-8-7-10-4-11-2" />
</svg>