<svg id="fnt-Caudex" viewBox="0 0 1730 1000" xmlns="http://www.w3.org/2000/svg"><path id="caudex" class="f" d="M207 676q-75 0-133-48t-58-132q0-83 57-132t134-50q28 0 60 6t60 25l-6 51q-1 4-5 4h-1q-2 0-6-7-14-30-42-44-27-13-57-13h-5q-66 3-103 52-33 45-33 99 0 6 0 12 4 57 40 103t98 49q6 0 11 0 32 0 52-9 23-12 39-46 3-6 8-6 1 0 2 0 4 1 4 5 0 2-1 5l-21 59q-24 10-48 13t-46 4m331-13v-18l-68 25q-7 3-12 3h-10q-35-2-60-29t-29-65q-1-10-1-20 0-12 2-24 3-21 16-42 6-11 22-22 5-4 12-7 19-7 39-15t39-14q4-2 8-2h1q16 1 38 8 2 1 3 1 5 2 13 5 3 1 6 1 4 0 6-2 6-5 8-8 1-1 3-1 1 0 2 0 6 2 6 5v189q0 16 12 20t12 11q0 5-5 5h-59q-4 0-4-4m0-32v-152q-10-9-27-17t-29-9h-1q-5 0-10 2-8 3-17 7t-17 6q-7 3-10 7-15 16-21 39-4 17-4 34 0 5 1 11 3 35 19 57 16 23 41 30 9 2 19 2 3 0 6 0 5 0 12-3 6-2 18-7t20-7m341-207v207q0 16 12 20t12 11q0 5-5 5h-59q-4 0-4-4v-15q-14 5-24 9t-19 7q-23 7-47 10-3 0-6 0-21 0-39-14-30-22-30-97v-88q0-16-12-20t-12-11q0-5 5-5 16-1 32-5t31-10v139q0 54 23 75 14 14 34 14 12 0 26-5 5-1 13-5t14-5q2 0 4-1t7-3v-158q0-16-12-20t-13-11q0-5 5-5 17-1 32-5t32-10m248 239v-18l-67 25q-8 3-13 3h-10q-35-2-60-29t-29-65q0-10 0-20 0-12 1-24 3-21 16-42 7-11 22-22 5-4 12-7 20-7 39-15t40-14q4-2 7-2h2q15 1 38 8 1 1 2 1v-82q0-16-12-20t-12-11q0-5 5-5 16-1 32-5t31-10v322q0 16 12 20t13 11q0 5-6 5h-59q-4 0-4-4m0-32v-152q-11-10-27-18t-28-8h-1q-5 0-10 2-9 3-18 7t-17 6q-6 3-10 7-15 16-20 39-4 17-4 34 0 5 0 11 3 35 19 57 17 23 41 30 10 2 19 2 3 0 6 0 6 0 13-3 5-2 17-7t20-7m118-99q7-45 36-72t77-28h1q48 0 74 28 25 27 25 72 0 10-1 14t-10 4h-155q0 40 20 66t48 31q9 2 18 2 23 0 48-13 14-8 19-8 1 0 2 1 0 1 0 2 0 3-3 9-3 6-5 8t-3 3q-27 23-72 23-64 0-96-41-25-31-25-74 0-13 2-27m47 0h128q0-30-13-55-13-23-47-23h-3q-34 1-49 25t-16 53m221 111l70-85-65-94q-4-6-13-11-5-3-9-4t-7-4q-6-3-6-4t4-1h78q4 0 7 3 0 1 0 2 0 2-2 3-4 2-4 7 0 3 3 8l42 60 41-51q23-27 29-32 2-2 6-2 6 0 15 5l16 8q2 1 2 3 0 2-1 3l-12 26q-9-5-17-9-2-1-4-1-6 0-13 9l-49 60 69 101q5 7 15 11 3 2 7 3t8 4q5 3 5 4t-3 2h-79q-4 0-6-4-1-1-1-2 0-1 2-3 4-2 4-6v0q0-4-3-8l-46-68-55 67q-4 6-4 10v1q0 3 1 5 0 1 0 1 0 2-1 3-2 4-5 4h-51q-2 0-2-2 0-1 1-2 3-4 14-6t19-14" />
</svg>