<svg id="fnt-Caveat" viewBox="0 0 1198 1000" xmlns="http://www.w3.org/2000/svg"><path id="caveat" class="f" d="M107 695q-7-3-15-7t-15-10-11-19q-5-14-7-28t-1-33q0-26 3-45t12-39q1-2 4-9t6-16 6-13q4-8 12-23t18-27q15-22 24-34t18-21 19-17 28-19q11-8 24-8t25 5 17 19q6 10 6 25t-5 31-12 31-19 24q-6 6-12 4t-12-8q-4-8-5-10t2-2q3-3 8-12t10-18 7-16q4-21 6-30t-3-13q-2-2-6-1t-12 5q-12 5-30 22t-34 38q-20 27-34 47t-20 42q-1 2-4 8t-2 5q1 2-1 10t-5 13q-5 23-6 48t2 44 12 26q6 5 17 3t26-7 30-12q12-5 22-11t15-10q4-3 10-7t11-3q7-2 8-2t1 5q0 7-8 15t-20 16q-4 4-10 8t-14 7q-10 8-26 16t-31 11-29 2m183-46q-2-4-5-7t-3-4-1-4-2-4q-2-3 1-14t10-27 16-33q4-4 8-10t6-9q0-2 2-4t3-1v-3q0-3 5-9t12-13 14-14 13-10q10-7 21-8t20 5q1 1 5 5t8 7 10 9l18 17-9 25q-6 20-3 35t10 26q2 5 10 10t15 6q4 1 7 3t4 8q0 5-2 8t-7 4q-17 2-31-8t-26-33q-2-3-6-11t-3-11q-2 3-8 9t-8 10q-36 36-62 48t-42 2m18-28q0 3 10-1t24-13q17-15 34-32t28-33l11-18q-5-11-11-16t-10-4q-6 0-19 12t-27 32-28 44q-5 10-9 19t-3 10m228 15q-3-3-9-18t-10-35-7-37q-2-10-5-17t-3-12q-3-9-2-15t7-9q3-2 6-3t6 0q6 2 11 18t9 43q2 16 5 27t3 13q2 4 5 7t7 0q2-2 8-9t12-15q11-14 17-23t14-19q4-5 8-11t9-11 9-6q12-2 13 5t-9 21q-4 6-6 11t-4 7q-4 8-13 20t-16 23-11 13q-2 2-9 8t-13 14q-12 11-19 14t-13-4m212 13q-10 9-24 11t-27-5-21-17q-9-11-11-26t-1-37q2-19 13-39t26-35 32-22q7-5 12-5t17 2q11 1 17 4t9 8q8 8 10 15t3 14q-2 11-15 27t-33 26q-11 3-24 3t-22-7q-9-4-12 1t-6 26q-2 19 3 27t14 11q10 2 15 2t15-4q8-5 10-6t3-2 6-6q4-3 6-5t4-2 5 2 4 4q5 0 2 6t-11 14-19 15m0-106q5-2 11-7t10-11 5-9q0-7-7-12t-19-1q-6 1-13 7t-13 13-10 12-3 7q2 2 9 3t15 1 15-3m78 106q-2-4-5-7t-3-4 0-4-2-4q-3-3 0-14t10-27 17-33q4-4 8-10t6-9q0-2 1-4t4-1v-3q0-3 4-9t12-13 15-14 12-10q11-7 22-8t19 5q2 1 5 5t8 7 10 9l19 17-9 25q-7 20-4 35t10 26q3 5 10 10t15 6q4 1 8 3t3 8q0 5-2 8t-7 4q-16 2-31-8t-26-33q-2-3-5-11t-4-11q-2 3-7 9t-9 10q-35 36-61 48t-43 2m18-28q0 3 11-1t23-13q17-15 34-32t28-33l11-18q-5-11-11-16t-9-4q-7 0-20 12t-27 32-27 44q-5 10-9 19t-4 10m237 42q-6-1-12-6t-10-11-5-11q0-1-2-2t-1-2q-2-1-2-13t1-26 4-23q2-8 7-22t9-25l13-29-20-5q-3-1-6-4t-2-5q0-4 5-10t6-6q3 1 9 1t14-1 8-1q2-1 4-3t3-5q2-5 4-10t6-11q3-6 5-11t8-12q2-4 5-9t8-8q4-4 9-4t12 7q4 5 5 7t-4 10q-4 8-10 17t-9 17q-8 11-3 12t28-2q14-2 21 1t7 13q2 12-2 14t-23 3q-12 2-21 2t-12 0q-7 1-9 1t-6 1-6 3-3 6q-2 2-6 11t-10 18q-7 21-12 42t-8 40q-2 13 0 17t13 6q6 1 18 0t19-3q6-2 12-5t11-6q4-2 9-5t4-3q3-4 6-2t5 7q0 6-3 13t-18 15q-23 14-42 17t-31 0" />
</svg>