<svg id="fnt-Cedarville Cursive" viewBox="0 0 4072 1000" xmlns="http://www.w3.org/2000/svg"><path id="cedarville-cursive" class="f" d="M14 475q-5-26 1-55t22-58 36-55 46-49 52-36 53-20q7 0 14 5t10 12 7 16 2 15v48q0 4-4 6t-7 1q-3 0-8-1t-5-6q0-2-1-7t-1-10 0-10-1-6q0-1 0-7t-1-11-3-11-5-5h-17t-4 2-11 5-11 7-9 5q-2 1-5 4t-6 4-7 5-4 4q-26 25-46 47t-33 45-19 51-7 64q0 14 2 32t5 37 11 36 17 31 25 22 34 9h11q22-8 39-14t30-12 24-14 22-18 22-26 25-36q1 0 2 0t2 0q8 0 8 8 0 12-5 26t-21 30-41 35-68 37q-8 3-14 5t-11 4-11 1-13 0q-25 0-44-9t-32-23-23-35-15-41-7-43-2-41m292 149l3-34q1-2 3-10t4-16 4-17 3-11q3-12 7-26t11-25 19-19 29-8q6 0 9 5t4 10q0 2 1 7t0 7q0 21-4 37t-13 30-21 25-28 26q0 1-1 5t-1 4v1q0 9 3 15t8 8 12 4 14 1q23 0 44-7t39-20q2-3 6-7t7-10 9-8 9-4 6 4 1 8q0 11-7 20t-17 17-24 14-27 9-25 6-20 2q-26 0-43-8t-24-35m72-130q-9 9-15 16t-9 15-5 16-5 21q10-8 16-15t10-15 5-17 3-21m232 99h-3q-2 2-9 8t-14 13-15 12-9 7q-1 1-6 4t-11 6-12 7-9 5q-6 3-8 4t-8 1q-7 0-16-5t-9-14v-53l7-36q6-20 12-33t18-22 24-12 34-9q1 0 7-2t6-3h7q8 0 14 4t12 9l24-105q-1-5 0-15t4-19 7-17 10-7q7 0 11 6t3 13l-26 160q-9 21-13 42t-4 44q0 10 1 20t6 19 11 13 19 5q26 0 52-9t44-26q1 0 2-1t1 0q4 0 7 3 0 0 0 2t1 3q0 8-7 15t-16 13-22 10-24 8-22 5-16 1q-17 0-29-5t-19-16-11-24-6-29m-98-19q0 3-1 10t-1 15-1 15-2 10q0 1 0 5t0 5q7 0 17-6t23-14 24-21 22-23 15-22 7-19q0-2-4-6t-8-9-9-7-9-2q-10-4-23 1t-25 16-19 24-6 28m258 78q0-1 0-7t0-8q-8-29-2-58t22-51 40-38 54-19h9q11 0 18 5t11 12 6 17 2 18q0 13-3 25t-6 24-6 24-2 25v3q0 1 1 6t1 5q1 0 5 1t5 0q5 0 9 0t10-3l93-43q0 0 1 0t2 0q5 0 8 3t3 8q0 2 0 4t-3 5q-3 2-12 6t-19 10-20 10-13 7q-6 4-15 7t-17 6-17 5-16 1q-10 0-17-3t-10-10-5-15 0-18q-10 8-21 17t-24 16-25 13-25 5q-8 0-14-4t-8-11m26-23v13q12 0 25-7t27-16 24-21 17-20q0-14 4-28t3-27q0-1 0-3t0-3q-6-6-11-7t-11-1q-1 0-5 0t-4 1q-3 2-10 9t-14 14-14 15-9 9q-1 0-2 2t-3 4-3 5-2 3l-12 58m219-20q13-11 20-20t10-20 7-21 8-24q-2-3-3-6t0-7 1-9 4-10 6-8 8-3q0 2 6 4t15 5 19 7 18 7q9 5 13 11t3 15q0 10-2 21t-4 24-5 24-2 22v12q0 5 2 5t6 0q5 0 10-2t10-4 10-5 11-3l43-26q1-4 5-6t6-4q5-3 11-8 4-3 8-6h14q2 0 2 3t1 4q0 6-8 15t-22 18-29 18-32 17-28 11-20 5q-9 0-14-5t-9-10-4-14-2-15q0-6 4-15t8-20 7-20 4-16q0-1-7-4t-16-8-15-7-7-4q-11 12-15 24t-8 27-12 27-28 27q0 0-2-1t-3-2-3-7 0-13m242 17v-12l15-67q2-16 6-32t8-28 11-20 13-8q7 0 10 6t4 13v6l-33 106q-3 11-5 19t-1 17q0 2 0 4t0 5 2 4 3 2q5 0 11-3t12-5 12-7 8-5q12-7 21-14t18-15 15-17 15-20q3-5 6-13t8-20 7-22 8-21 8-16 8-6q5 0 7 2t3 5 2 6 2 6q1 1 3 1t3 2q5 1 5 2t0 2 0 2 5 0h2q5 0 14-2t18-2 14-2 6-1l10 21q-14 4-24 6t-19 3-19 1-24-2l-3 3q-9 23-19 42t-22 36-28 31-38 26q-13 8-28 15t-29 7q-9 0-15-3t-10-9-4-13-2-16m258-18l7-44q0-2 3-9t5-13 5-14 4-9q3-8 5-10t10-3q8 0 10 6t3 13q0 12-4 23t-8 21-8 22-4 28q0 2 0 5t1 8 2 6 4 3q13 0 25-5t26-13 24-15 21-15q3-3 5-5t3-5 3-4 8-1q6 0 10 2t4 10q0 3 0 5t-3 5q0 1-3 4t-7 5-6 5-5 2q0 0-2 2t-3 1q-1 0-1 1t-1 1q-10 8-22 16t-25 15-28 11-27 4q-12 0-18-6t-9-15-3-20-1-18m30-172q0-9 4-12t12-3q4 0 9 2t4 8-6 12-12 5-8-4-3-8m146 176l5-34t1 0 1-2q1-4 4-15t6-23 7-23 5-15q0-2 3-8t6-15 7-15 5-12q3-7 10-18t16-21 19-18 18-8q5 0 7 3t4 5 2 8 0 6q0 26-7 51t-19 48-29 43-35 37q-1 1-2 5t-1 7v1q0 10 5 15t13 9 16 4 17 1q5 0 13-5t18-10 18-10 13-4 7 3 2 7q0 7-11 16t-26 15-28 12-18 5q-14 3-27 0t-22-9-16-16-7-20m98-174v-5q-5 0-10 7t-11 16-10 18-5 11q-1 4-4 12t-6 16-5 16-4 12h2t3-4 7-9 8-10 6-8q2-3 5-9t5-8q1-5 5-14t6-18 5-15 3-8m45 174l6-34t1 0 1-2q1-4 4-15t6-23 7-23 4-15q1-2 3-8t7-15 6-15 5-12q4-7 11-18t16-21 19-18 18-8q4 0 7 3t4 5 1 8 1 6q0 26-7 51t-19 48-29 43-36 37q0 1-1 5t-1 7v1q0 10 5 15t12 9 17 4 17 1q4 0 13-5t17-10 18-10 13-4 7 3 3 7q0 7-11 16t-26 15-28 12-18 5q-15 3-28 0t-22-9-15-16-8-20m98-174v-5q-4 0-10 7t-11 16-9 18-5 11q-1 4-4 12t-6 16-6 16-4 12h3t3-4 6-9 8-10 6-8q2-3 6-9t4-8q2-5 5-14t7-18 5-15 2-8m46 186l2-34q1-2 4-10t4-16 4-17 3-11q3-12 7-26t11-25 19-19 29-8q6 0 9 5t4 10q0 2 0 7t1 7q0 21-4 37t-13 30-21 25-28 26q0 1-1 5t-1 4v1q0 9 3 15t8 8 12 4 14 1q23 0 44-7t38-20q3-3 7-7t7-10 8-8 10-4 6 4 1 8q0 11-7 20t-17 17-24 14-27 9-25 6-20 2q-26 0-43-8t-24-35m72-130q-9 9-15 16t-9 15-5 16-5 21q9-8 15-15t11-15 5-17 3-21m342-19q-5-26 2-55t21-58 36-55 46-49 52-36 53-20q8 0 14 5t10 12 7 16 2 15v48q0 4-4 6t-6 1q-4 0-9-1t-5-6q0-2 0-7t-1-10-1-10 0-6q0-1 0-7t-2-11-3-11-4-5h-17t-5 2-10 5-12 7-9 5q-1 1-4 4t-7 4-6 5-5 4q-26 25-46 47t-32 45-20 51-7 64q0 14 2 32t5 37 11 36 17 31 25 22 35 9h10q22-8 39-14t30-12 25-14 21-18 22-26 26-36q0 0 1 0t2 0q9 0 9 8 0 12-6 26t-20 30-42 35-68 37q-8 3-14 5t-11 4-11 1-12 0q-26 0-45-9t-32-23-23-35-14-41-8-43-2-41m290 139q2-7 2-14t2-16 5-19 10-23 18-31 30-40q2-3 5-5t6-2q6 0 11 5t4 10q0 0-1 3t-1 3q-5 12-10 21t-11 16-12 17-15 20q-6 15-10 28t-5 28q0 8 1 13t5 13h5q14 0 33-12t36-27 32-33 22-26q1-1 2-5t3-5q1-3 3-10t5-15 5-14 4-10q1-5 4-5t5-1q9 0 12 4t2 12v8q-5 13-8 25t-7 21-5 22-1 23q0 2-1 7t1 11 3 10 6 5q12 0 25-3t25-8 24-12 22-13q2 0 6-4t7-7 8-5 7-3q10 0 10 10 0 8-9 16t-22 15-30 15-32 12-28 8-17 4q-2 0-8-1t-7 0q-7-2-12-9t-6-15-3-17-1-14q-1 1-3 2t-3 3q-4 3-13 10t-19 15-20 15-12 10q-10 7-22 12t-24 5q-12 0-20-4t-11-11-6-17-1-21m299-5q14-11 20-20t11-20 6-21 8-24q-2-3-2-6t-1-7 2-9 3-10 6-8 8-3q0 2 6 4t15 5 20 7 18 7q8 5 12 11t4 15q0 10-2 21t-5 24-4 24-2 22v12q-1 5 2 5t5 0q6 0 11-2t10-4 10-5 10-3l43-26q2-4 5-6t6-4q5-3 12-8 3-3 7-6h15q1 0 2 3t0 4q0 6-8 15t-22 18-29 18-31 17-29 11-19 5q-9 0-15-5t-8-10-5-14-1-15q0-6 3-15t8-20 8-20 3-16q0-1-7-4t-15-8-16-7-7-4q-10 12-15 24t-8 27-12 27-27 27q-1 0-2-1t-4-2-3-7 0-13m260-11q-4 2-8 2t-9 0-9 0-8 3q-9 1-11-2t-2-6 6-8 10-9 12-5 12 1q-3-9 0-15t12-7q4 0 8 1t6 4q7-4 19-15t25-21 24-20 15-8q1 0 4 0t5 1 4 2 2 4v21q-4 14-7 26t-5 23-3 23-1 25q8 0 19-3t22-8 21-10 15-9q1 0 5-3t7-6 8-6 4-4 5-3 5-2q2 0 3 1t3 4 3 5 0 2q0 5-4 10t-9 9-11 8-8 7q-4 1-14 6t-20 9-20 9-14 7q-1 0-4 1t-7 2-8 2-5 2q-4 1-6 4t-5 7-5 6-10 2q0-1-4-3t-5-2q-11-9-20-16t-15-14-13-16-14-18m31-20q3 8 7 14t7 13 10 11 14 5q1-7 3-17t3-22 5-22 6-19h-5q-8 5-15 10-6 5-13 10t-10 8q0 0-1 1t-2 1q0 1-4 4t-5 3m55-45q-2 0-2 3t2 2q2 0 2-2t-2-3m117 75l7-44q1-2 3-9t5-13 5-14 4-9q3-8 5-10t10-3q8 0 11 6t2 13q0 12-4 23t-8 21-8 22-3 28q0 2 0 5t0 8 2 6 4 3q13 0 26-5t25-13 24-15 21-15q3-3 5-5t3-5 4-4 7-1q6 0 10 2t4 10q0 3 0 5t-3 5q0 1-3 4t-7 5-6 5-5 2q0 0-2 2t-3 1q0 0-1 1t-1 1q-10 8-22 16t-25 15-27 11-28 4q-12 0-18-6t-9-15-3-20-1-18m31-172q0-9 3-12t12-3q5 0 9 2t4 8-6 12-12 5-8-4-2-8m150 190v-12l15-67q2-16 5-32t9-28 11-20 12-8q8 0 11 6t3 13v6l-33 106q-3 11-4 19t-1 17q0 2 0 4t0 5 2 4 3 2q5 0 11-3t12-5 12-7 8-5q11-7 21-14t17-15 16-17 15-20q2-5 6-13t7-20 8-22 8-21 8-16 7-6q5 0 8 2t3 5 2 6 2 6q1 1 3 1t2 2q5 1 6 2t-1 2 0 2 6 0h1q6 0 15-2t17-2 15-2 6-1l10 21q-14 4-24 6t-19 3-19 1-24-2l-3 3q-9 23-19 42t-22 36-29 31-37 26q-14 8-28 15t-29 7q-10 0-16-3t-9-9-5-13-1-16m259-2l3-34q1-2 3-10t4-16 4-17 3-11q3-12 7-26t11-25 19-19 29-8q6 0 9 5t4 10q0 2 1 7t0 7q0 21-4 37t-13 30-21 25-27 26q-1 1-2 5t-1 4v1q0 9 3 15t8 8 12 4 14 1q23 0 44-7t39-20q2-3 6-7t7-10 9-8 9-4 6 4 1 8q0 11-7 20t-17 17-24 14-26 9-26 6-20 2q-26 0-43-8t-24-35m73-130q-10 9-16 16t-9 15-5 16-5 21q10-8 16-15t10-15 6-17 3-21" />
</svg>