<svg id="fnt-Ceviche One" viewBox="0 0 2148 1000" xmlns="http://www.w3.org/2000/svg"><path id="ceviche-one" class="f" d="M104 687q-61-24-82-61 0-55 32-120t73-86q17 0 38 2 56-3 95-12l14-3q-20 66-32 140-44-19-76-53-39 56-47 124l133-36q0 10-10 27t-23 30-45 27-70 21m233-59q6 0 17 0t35-6 39-12l15-8q1 5 1 10 0 19-17 39-22 24-73 35-8-1-20-4t-37-15-39-31q3-32 14-66t21-51l10-17q28-2 56-9t40-14l14-7q18 10 29 28t12 31l2 13q-14 31-47 48t-69 20q-1 6-3 16m46-64q6-10 6-16t-4-11-10-3-12 1q-3 12-18 54 24-3 38-25m195-101q-25 40-25 91 0 7 1 23t9 45q18-26 30-58t15-51l3-19q14 2 33 11t30 21q0 8-4 23t-9 27-17 28-27 28-40 23-55 16q-19-20-31-44t-13-45-3-30q0-29 3-41l2-11q4-3 11-9t33-16 54-12m201 74q-10 21-16 39t-11 47-4 42 0 18q-23-11-40-22t-23-17l-6-6q0-45 6-84t11-55l5-17q45 8 81 23l12 5q-5 6-15 27m-2-51q-6-3-16-8t-28-22-25-36q12-5 23-15t17-16l5-7q30 5 52 16l7 4q-1 6-3 16t-11 33-21 35m188-7l17-11q1 9 1 27 0 40-25 79-40-11-68-32-19 32-20 82 13 0 76-21l20-7q0 9-6 22t-15 24-31 22-51 18q-20-3-45-16t-35-29q3-33 12-61t19-44q21-35 36-45l6-5q29 11 58 11t51-14m182-1q29 0 58 67-24 32-36 87-5 22-6 43h-3q-39 0-51-35-5-13-5-27 0-29 14-72-33 29-64 93-2 11-4 36-28-6-42-16-13-10-16-16 1-46 9-103t16-93 9-35q24-7 48-12t38-4h12q-32 71-54 161 19-34 39-54t38-20m136 150q5 0 17 0t35-6 39-12l15-8q1 5 1 10 0 19-17 39-22 24-74 35-7-1-19-4t-38-15-38-31q2-32 13-66t22-51l10-17q28-2 55-9t41-14l13-7q19 10 29 28t13 31l2 13q-14 31-47 48t-69 20q-2 6-3 16m45-64q7-10 7-16t-5-11-10-3-11 1q-4 12-18 54 23-3 37-25m390-92q5 18 5 43t-8 51-20 42-27 32-30 23q-33 17-48 22l-8 2q-43-12-69-36-24-22-29-34l-3-6q0-45 9-80t24-53 28-29 24-14l10-3q16 18 49 24l52-40q30 15 41 56m-137 153q14 0 31-16t26-44q5-14 5-31t-6-39q-56 60-56 130m265 25q17-62 17-95 0-3 0-5l-1-9q-29 25-57 77-2 18-5 50-19-4-35-12t-23-12l-6-6q3-71 11-130l3-19 87-19q-10 27-20 76 18-32 38-50t35-18q30 0 58 67-3 7-9 19t-15 50-10 71q-47-15-68-35m182-22q6 0 17 0t35-6 39-12l15-8q1 5 1 10 0 19-17 39-22 24-73 35-8-1-20-4t-37-15-39-31q3-32 14-66t21-51l10-17q28-2 56-9t40-14l14-7q18 10 29 28t12 31l2 13q-14 31-47 48t-69 20q-1 6-3 16m46-64q6-10 6-16t-4-11-10-3-12 1q-3 12-18 54 24-3 38-25" />
</svg>