<svg id="fnt-Chakra Petch" viewBox="0 0 3000 1000" xmlns="http://www.w3.org/2000/svg"><path id="chakra-petch" class="f" d="M90 667l-55-55v-240l55-55h150l53 53v32h-38v-20l-32-31h-116l-34 33v215l34 34h116l32-32v-19h38v32l-53 53h-150m263 0v-357h37v160l52-52h78l46 46v203h-37v-192l-25-24h-52l-62 62v154h-37m319 0l-41-41v-64l41-40h133v-48l-25-24h-85l-25 24v21h-37v-31l46-46h116l46 46v203h-35v-44l-46 44h-88m16-32h64l53-51v-30h-117l-20 19v42l20 20m226 32v-357h37v211h58l73-103h41l-84 120 89 129h-41l-78-113h-58v113h-37m262 0v-249h36v44l44-44h65v33h-55l-53 53v163h-37m213 0l-41-41v-64l41-40h133v-48l-25-24h-85l-25 24v21h-37v-31l46-46h117l46 46v203h-36v-44l-46 44h-88m16-32h65l52-51v-30h-117l-20 19v42l20 20m351 32v-350h200l46 46v112l-47 47h-161v145h-38m38-178h145l25-25v-90l-25-24h-145v139m299 178l-46-46v-157l46-46h125l47 46v89h-181v56l25 25h93l25-25v-19h37v31l-46 46h-125m-9-146h144v-46l-25-24h-94l-25 24v46m317 146l-46-46v-171h-45v-32h46v-81h36v81h78v32h-78v159l25 25h53v33h-69m160 0l-46-46v-157l46-46h120l46 46v30h-37v-19l-25-24h-88l-25 24v134l25 25h88l25-25v-19h37v31l-46 46h-120m226 0v-357h37v160l52-52h77l46 46v203h-37v-192l-25-24h-51l-62 62v154h-37" />
</svg>