<svg id="fnt-Changa One" viewBox="0 0 2639 1000" xmlns="http://www.w3.org/2000/svg"><path id="changa-one" class="f" d="M233 577l7 84q-31 13-79 13t-76-10-45-31-23-51-7-71 7-72 23-51q32-41 117-41 19 0 45 3t38 10l-15 76q-32-7-59-7t-38 5-10 20v131q19 4 39 4 43 0 76-12m142-64v154h-100v-325l100-8v92q32-17 71-17t59 15 20 43v200h-100v-175h-15q-18 0-27 3t-8 18m316-104q120 0 120 83v175h-50l-28-29q-15 17-40 27t-47 9-36-3-26-12q-29-18-29-67 0-90 136-90h20v-18q-16-1-26-1-57 0-97 13l-12-71q50-16 115-16m-35 172v20h21q22 0 28-5t6-13v-23h-20q-18 0-27 3t-8 18m200-164h50l25 25q47-33 100-33 35 0 55 15t20 43v200h-100v-175h-15q-17 0-26 3t-9 16v156h-100v-250m284 317l13-74q43 14 100 14 17 0 24-1v-17q-45 0-59-4t-18-8-5-6 0-7l15-43q-36-6-55-27t-19-64 30-66 96-22q24 0 42 3l44-33 52 50-28 34q6 17 6 45 0 39-20 58t-70 24l-2 12q54 3 76 16t23 49q0 60-59 75-29 7-78 7t-108-15m90-237v32h16q18 0 26-4t8-17v-32h-15q-18 0-27 3t-8 18m310-88q120 0 120 83v175h-50l-28-29q-15 17-40 27t-47 9-36-3-26-12q-29-18-29-67 0-90 136-90h20v-18q-16-1-26-1-57 0-97 13l-12-71q50-16 115-16m-35 172v20h21q22 0 28-5t6-13v-23h-20q-18 0-27 3t-8 18m260-70q0-86 32-125t116-39 115 39 32 125q0 42-7 71t-23 51-45 31-72 10-72-10-46-31-23-51-7-71m108-52v130h41q21 0 30-5t9-22v-130h-42q-20 0-29 5t-9 22m222-42h50l25 25q47-33 100-33 35 0 55 15t20 43v200h-100v-175h-15q-17 0-26 3t-9 16v156h-100v-250m395 165v17q15 2 30 2 47 0 94-15l12 73q-56 15-111 15-70 0-101-33t-31-99 31-100 101-33 96 19 27 71q0 44-32 63t-116 20m0-79v21h21q18 0 26-4t8-17v-21h-20q-18 0-27 4t-8 17" />
</svg>