<svg id="fnt-Chango" viewBox="0 0 2476 1000" xmlns="http://www.w3.org/2000/svg"><path id="chango" class="f" d="M207 677q-90 0-143-46t-52-129q0-51 17-90t47-61q61-46 160-46 64 0 128 18 24 8 24 39 0 43-27 43-4 0-29-4t-35-4q-36 0-55 25t-19 59 18 60 49 27q21 1 74 1 26 0 29 25 1 9 1 18t-1 19q-3 18-28 26t-72 14-86 6m238-34l-1-163q0-75 1-146 1-17 6-25t23-8h96q16 0 22 8t7 28 2 108q39-39 94-39t86 27 32 74 1 85 0 51-7 18-24 6l-96 1q-16 0-23-6t-6-17l1-122q0-15-8-22t-19-8-20 8-9 22l-3 120q-1 10-9 16t-21 8-27 1l-70-1q-10 0-19-7t-9-17m600-239q163 0 165 106 1 45 1 83t-1 50-7 19-24 6h-106q-16 0-22-6t-6-17q0-1-1-2t0-2q-33 34-90 34-39 0-67-20t-28-55 20-55 47-28 58-8 62 6v-2q0-25-10-36t-32-11-36 4-22 8q-20 12-28 12t-15-8-6-23 6-22 18-12q44-21 124-21m-23 205q22 0 22-9 1-16 1-43 0-11-16-11t-26 8-10 23 8 23 21 9m466 36l0-122q0-15-7-22t-19-8-21 8-9 22v30q0 66-3 90-1 9-8 15t-25 8-35 1-60-2q-12 0-19-7t-8-15q-3-32-3-99t2-92 7-32 23-8h97q17 0 23 8t7 25v1q39-40 94-40t87 27 32 74 1 85-1 51-7 18-24 6l-96 1q-16 0-22-6t-6-17m375-156q-30 0-30 43t29 43q12 0 21-7t10-19v-34q0-12-10-19t-20-7m188-53l1 154q0 50-1 76t-15 47-39 33q-49 22-131 22t-133-22q-13-5-19-12t-5-22 6-23 15-7 21 6q38 19 77 19 17 0 31-4t25-15 11-30l-1-26q0-5-3-5-1 0-3 1-40 39-88 39t-80-31-32-96 38-100 93-34 81 35q1-13 10-20t20-8 40-1l53 1q9 0 18 6t10 17m208 106q0 56 29 56t30-56q0-26-6-40t-24-13-23 13-6 40m216 0q0 136-187 136t-186-136q0-65 47-100t139-36 139 36 48 100" />
</svg>