<svg id="fnt-Charmonman" viewBox="0 0 2714 1000" xmlns="http://www.w3.org/2000/svg"><path id="charmonman" class="f" d="M172 675q-37 0-67-15t-49-45-18-76q0-58 29-111t78-86 109-33q32 0 60 9t39 27q-5 13-9 32t-4 38l-12 2q0-8-1-19t-2-20q-4-23-20-36t-49-12q-54 0-97 31t-68 79-24 98q0 38 14 63t40 38 55 12q53 0 98-34t69-98q14 0 14 19 0 26-26 58t-69 56-90 23m509-552q43 0 68 23t25 67l-4 6q-11-34-34-50t-57-16q-69 0-118 78t-84 226l-13 56-6 29q20-29 52-56t47-27q4 0 12 7t8 11q-10 28-23 81t-13 67q0 14 5 20t18 7q25 0 49-19t40-44 27-42q3 1 5 3t3 8v1q0 6-4 14-23 42-59 71t-70 29q-18 0-28-11t-11-31q0-20 6-48t17-67q0 2 6-21-1-2-3-3t-3-2q-5 0-24 17t-37 39-29 43q-5 20-10 50 0 4-1 8t-1 8q-2 9-3 12t-4 3q-6 0-14-3t-7-7q0-7 3-19l43-185q37-156 93-245t133-88m259 428q6 0 6 13 0 23-20 49t-49 42-53 18q-19 0-30-12t-12-31q-13 18-32 29t-34 12q-13 0-26-9t-20-22-9-24l25-101q3-12 15-26t30-22 35-9q23 0 41 15 4-12 6-15t7-3l25-3 1 1q-10 8-14 25-16 58-22 86t-5 48 5 31 19 10q16 0 38-13t42-37 31-52m-222 96q9 0 21-6t23-17 15-26l9-41q2-10 7-32t8-34q-14-14-34-14-15 0-28 8t-20 20-10 21l-20 89q1 12 10 22t19 10m426-159q2 1 3 3t2 6q0 10-10 20t-26 16-31 6q-25 0-43-13t-23-37q-22 3-41 29t-26 56q-1 5-8 31t-12 61q-1 1-2 2t-3 1q-3 0-10-3t-7-7q0-7 2-18 31-141 40-175 1-4 2-6t4-1q2 0 9 3t10 7l-9 29-3 10q12-18 27-29t32-11q5 0 10 1t7 2q0 25 12 36t36 12q21 0 34-7t24-24m310 63q1 16-19 44t-47 51-55 22q-19 0-31-13t-12-37q0-20 6-46t19-61q3-10 6-20 0-2-2-3t-4-1q-6 0-26 18t-39 43-26 37q-5 16-16 65-2 9-4 12t-4 3q-4 0-10-6t-6-11 5-24q21-77 34-133-3-4-7-4-8 0-26 18t-37 47-32 56q-8 24-14 56-5 0-13-3t-8-7q0-4 5-23l43-165q1-5 2-7t5-2 10 3 9 5l-4 16q-2 6-7 25t-10 39q16-27 32-45t31-26 22-8q5 0 14 6t8 10q-4 27-13 62 21-28 49-56t44-28q7 0 15 6t8 13q-16 49-25 81t-8 58q0 15 5 21t18 7q30 0 59-33t43-78q6 0 9 5t4 11m239-61q5 2 5 10 0 13-10 26t-27 22-38 8q-27 0-48-15-3 15-8 30-1 5-6 25t-7 35q-4 8-14 17t-25 16-29 7q-15 0-30-8t-24-22-9-30q7-21 12-39t8-38l5-25q3-11 14-23t26-18 32-7q6 0 17 2 2-12 5-16t13-5q5 0 11 2-2 14-2 24 0 29 17 49t48 20q22 0 38-12t26-35m-161 133q4-20 11-46 10-33 13-54-11-14-15-34 0-2-1-3t-3-2q-7-3-17-3-18 0-32 10t-17 24q-1 6-11 47-4 24-11 48 0 18 13 28t26 11q12 0 26-9t18-17m368-78q5 0 7 4t3 10q0 18-19 45t-49 48-57 21q-18 0-28-9t-10-28q0-25 14-69t26-73q-2-3-4-3t-5 2q-9 5-29 24t-40 40-27 34q-8 22-10 27t-4 19l-4 23q-1 1-1 3t-2 3-2 1q-4 0-12-1t-7-3q0-6 4-20t7-24 5-17l5-14q14-50 19-73t11-51q0-5 7-5 4 0 10 2t7 7q-2 9-8 30t-12 48q29-33 60-59t42-27q5 0 12 5t8 10q-16 43-30 93t-15 67q0 18 20 18 30 0 60-33t48-75m332 6q1 16-19 44t-47 51-55 22q-19 0-31-13t-12-37q0-20 6-46t19-61q3-10 6-20 0-2-2-3t-4-1q-6 0-26 18t-39 43-26 37q-5 16-16 65-2 9-4 12t-4 3q-4 0-10-6t-6-11 5-24q21-77 34-133-3-4-7-4-8 0-26 18t-37 47-32 56q-8 24-14 56-5 0-13-3t-8-7q0-4 5-23l43-165q1-5 2-7t5-2 10 3 9 5l-4 16q-2 6-7 25t-10 39q16-27 32-45t31-26 22-8q5 0 14 6t8 10q-4 27-13 62 21-28 49-56t44-28q7 0 15 6t8 13q-16 49-25 81t-8 58q0 15 5 21t18 7q30 0 59-33t43-78q6 0 9 5t4 11m251 0q7 0 7 13 0 23-21 49t-49 42-52 18q-20 0-30-12t-13-31q-12 18-31 29t-34 12q-13 0-26-9t-21-22-8-24l24-101q3-12 15-26t30-22 36-9q23 0 40 15 5-12 7-15t7-3l24-3 2 1q-10 8-15 25-15 58-21 86t-6 48 6 31 18 10q16 0 38-13t43-37 30-52m-221 96q8 0 20-6t23-17 15-26l10-41q2-10 7-32t8-34q-14-14-34-14-16 0-28 8t-21 20-10 21l-20 89q1 12 10 22t20 10m441-102q5 0 7 4t3 10q0 18-19 45t-49 48-57 21q-18 0-28-9t-10-28q0-25 14-69t26-73q-2-3-4-3t-5 2q-9 5-29 24t-40 40-27 34q-8 22-10 27t-4 19l-4 23q-1 1-1 3t-2 3-2 1q-4 0-12-1t-7-3q0-6 4-20t7-24 5-17l5-14q14-50 19-73t11-51q0-5 7-5 4 0 10 2t7 7q-2 9-8 30t-12 48q29-33 60-59t42-27q5 0 12 5t8 10q-16 43-30 93t-15 67q0 18 20 18 30 0 60-33t48-75" />
</svg>