<svg id="fnt-Chau Philomene One" viewBox="0 0 3967 1000" xmlns="http://www.w3.org/2000/svg"><path id="chau-philomene-one" class="f" d="M218 608q13 0 13 16t-1 24q-2 18-16 20-44 7-66 7-74 0-102-42t-28-152q0-80 12-122t39-59 82-17 79 17q5 3 5 8t-5 19-9 19-8 6-7 0q-38-8-65-8t-36 30-8 97 4 94 13 37 30 11 47-3 27-2m182-197q37 0 54 23t18 81v152q0 3-1 4-2 4-19 4t-34-3-18-5l0-152q0-56-8-56-18 0-48 18v190q0 3-1 4-2 4-19 4t-35-3-17-5v-376q0-8 17-8t31 2 14 6l9 144q38-24 57-24m226 256l-8-16q-26 24-46 24t-33-3-22-12-14-27-4-46q0-41 39-56l72-18q-1-33-7-42t-26-10-34 7l-18 7h0q-5 2-8-4-9-19-9-30t1-12 2-2q25-16 65-16t61 10 31 38 10 83l-1 125q0 3-1 4-2 4-19 4-31 0-31-8m-72-79q0 36 21 38 15 0 21-5 14-10 14-71-26 3-41 14t-15 24m237 87q-37 0-54-23t-17-81v-152q0-8 18-8t36 2 17 6l1 152q0 56 8 56 18 0 48-18v-190q0-8 18-8t36 2 18 6v248q0 3-1 4-2 4-26 4t-29-8l-11-16q-35 24-62 24m307-19v-365q50-8 89-8 68 0 94 28t27 90q0 72-36 98-23 17-46 21-29 5-66 5v130q0 10-1 13-1 7-19 7-42 0-42-19m64-201q2 1 3 1t11 0 19 0 18-4 14-8q9-15 9-42t-8-43-17-17q-36 0-43 2t-8 10v95q0 5 2 6m303-44q37 0 54 23t17 81v152q0 3 0 4-3 4-20 4t-34-3-17-5l-1-152q0-56-8-56-18 0-48 18v190q0 3 0 4-3 4-20 4t-34-3-18-5v-376q0-8 18-8t31 2 13 6l9 144q38-24 58-24m104 256v-248q0-8 18-8t34 2 16 6v248q0 3 0 4-3 4-19 4t-33-3-16-5m31-312q-36 0-36-36t36-36 36 36-36 36m149 96v216q0 3-1 4-2 4-18 4t-33-3-15-5v-376q0-8 17-8t29 2 12 6l9 160m40 91q0-55 9-83t30-38 61-10 60 10 30 38 10 83q0 75-22 104t-78 29-79-29-21-104m68 0q0 84 16 84 22 0 32-7 6-4 8-15 4-21 4-62 0-83-16-83-30 0-37 13t-7 70m429 125v-152q0-56-8-56-18 0-51 19 3 19 3 37v152q0 3-1 4-2 4-19 4t-35-3-17-5v-171q-1-37-8-37-18 0-48 18v190q0 3-1 4-2 4-19 4t-35-3-17-5v-248q0-8 20-8 31 0 36 8 0 1 0 1l10 19q42-28 62-28 44 0 60 32 46-32 68-32 37 0 54 23t18 81v152q0 3-1 4-2 4-19 4t-35-3-17-5m207 8q-53 0-74-29t-21-104q0-54 10-83t28-38 57-10 57 10 28 39 9 81q0 3 0 6t-12 6-28 2h-77q1 59 9 67 4 4 14 4 66 0 90-7 1 0 1 0 4-1 6 4t2 23-8 21q-20 8-91 8m-23-199v39h51q-2-58-12-58-17 0-28 5t-11 14m288-65q37 0 54 23t17 81v152q0 3 0 4-3 4-20 4t-34-3-17-5l-1-152q0-56-8-56-18 0-48 18v190q0 3 0 4-3 4-20 4t-34-3-18-5v-248q0-8 20-8 32 0 36 8 0 1 1 1l9 19q42-28 63-28m206 264q-53 0-74-29t-21-104q0-54 10-83t28-38 57-10 57 10 28 39 9 81q0 3 0 6t-12 6-28 2h-77q1 59 9 67 4 4 14 4 66 0 90-7 1 0 1 0 4-1 6 4t2 23-8 21q-20 8-91 8m-23-199v39h51q-2-58-12-58-17 0-28 5t-11 14m288 5q0-79 13-122t39-59 79-17 79 17 39 59 13 122q0 110-28 152t-103 42-103-42-28-152m84-93q-3 19-4 38t0 65 3 77 8 41 13 10q44 0 58-9 5-4 9-12t7-16 4-25q2-22 2-78t-3-88-8-44-14-11q-20 0-32 1t-22 9-14 15-7 27m347 23q37 0 54 23t18 81v152q0 3-1 4-2 4-19 4t-34-3-18-5l0-152q0-56-8-56-18 0-48 18v190q0 3-1 4-2 4-19 4t-35-3-17-5v-248q0-8 20-8 31 0 36 8 0 1 0 1l10 19q42-28 62-28m207 264q-54 0-75-29t-20-104q0-54 9-83t29-38 57-10 56 10 29 39 9 81q0 3 0 6t-12 6-28 2h-77q1 59 8 67 5 4 15 4 65 0 89-7 1 0 2 0 3-1 5 4t3 23-8 21q-21 8-91 8m-23-199v39h50q-2-58-11-58-17 0-28 5t-11 14" />
</svg>