<svg id="fnt-Chela One" viewBox="0 0 1840 1000" xmlns="http://www.w3.org/2000/svg"><path id="chela-one" class="f" d="M236 340q3 23 3 31t-1 17-3 17-10 17q-11 15-41 15-21 0-34-10t-24-28q-10 37-10 86 0 60 29 88 15 14 39 14t53-12q4 15 1 30t-10 26-16 18q-24 18-70 18-70 0-104-47-12-18-20-47t-8-65q0-65 25-106t62-59q5-11 16-21t32-10 47 14 44 14m105 125v143q0 24 6 36-3 8-17 15t-31 8-26-11-9-27v-211q0-42-8-69l-3-10q2-2 6-6t16-11 26-7q40 0 40 63v58q6-14 21-24t40-10 44 19 18 55v135l11 25q-2 4-6 9t-15 13-26 9q-41 0-41-59v-97q0-27-10-37t-36-9m331 130q6 6 6 15t-5 18-14 18-26 15-38 6-36-6-30-18q-32-28-32-92t22-94 49-34q20-21 48-21t46 20 18 56q0 42-31 66-25 20-60 30 18 23 58 23 12 0 25-2m-62-92q0-31-37-34v45q0 23 4 36 33-18 33-47m94 105v-190q0-42-8-69l-3-10q2-2 5-6t17-11 26-7q39 0 39 63v233l11 25q-2 4-5 9t-16 13-25 9q-41 0-41-59m205-88v-4q0-35-39-35-23 0-47 14-8-8-8-20t6-24 18-24 29-18 37-7q39 0 60 24t21 70v115l11 25q-2 4-5 9t-16 13-25 9q-32 0-39-36-17 36-46 36t-45-19-15-47q0-77 103-81m-40 62q0 20 13 25 3 2 7 2 10 0 20-12v-55q-40 10-40 40m254-69q0-42 10-76t27-52q31-38 67-47 20-26 61-26 55 0 87 43t31 127-42 135-107 50-99-39-35-115m147 96q19 0 30-26t11-73-21-77-49-42q-13 48-13 104 0 114 42 114m238-144v143q0 24 6 36-3 8-17 15t-31 8-26-11-9-27v-127q0-42-8-69l-3-10q2-2 6-6t16-11 26-6q32 0 38 40 6-16 21-27t41-11 45 19 18 55v135l11 25q-2 4-6 9t-15 13-26 9q-41 0-41-59v-97q0-27-10-37t-36-9m323 130q6 6 6 15t-5 18-14 18-26 15-38 6-36-6-30-18q-32-28-32-92t22-94 49-34q20-21 48-21t46 20 18 56q0 42-31 66-25 20-60 30 18 23 58 23 12 0 25-2m-62-92q0-31-37-34v45q0 23 4 36 33-18 33-47" />
</svg>