<svg id="fnt-Cherry Cream Soda" viewBox="0 0 5516 1000" xmlns="http://www.w3.org/2000/svg"><path id="cherry-cream-soda" class="f" d="M362 467q8-11 16-26t8-30q0-17-11-28t-28-17-34-9-31-2q-32 0-64 11t-59 33-43 50-17 63q0 20 8 36t20 27 30 19 35 12 37 6 34 2q40 0 80-6t78-18l19 51q-21 7-44 11t-47 8-47 5-46 1q-21 0-48-3t-53-9-53-18-45-26-32-38-12-49q0-34 13-64t34-53 50-43 61-32 64-20 63-6q29 0 58 4t54 17 39 34 16 57q0 13-2 26t-6 24h-95m318-35q21 0 40 6t34 19 22 29 9 41q0 5-1 17t0 25 0 29 1 28 1 23 3 13h-83q7-21 11-46t5-47q0-18-4-34t-12-28-23-19-34-6q-22 0-41 10t-34 27q0 16 0 32t0 32q0 2 0 9t0 18 0 20 1 20 2 16 2 8h-86q2-2 3-17t4-34 3-43 2-43 2-37 1-21q2-38 2-77 0-2 0-10t0-16-1-20-2-20-2-15-5-7l94 1q-3 0-4 4t-2 5q-4 13-5 26t-2 28q-2 21-3 41t-2 42q22-16 49-22t55-7m295 242q-24 0-51-6t-50-20-37-34-15-49q0-35 13-62t37-46 53-29 64-10q26 0 47 9t34 24 21 36 7 46q0 25-8 47h-203q5 15 15 24t24 15 28 7 28 2q9 0 23-2t28-4 28-6 19-10l24 42q-32 12-63 19t-66 7m0-210q-15 0-29 6t-27 15-20 23-13 26h140q1-14 0-27t-6-23-17-15-28-5m241 17q12-10 27-18t33-16 34-10 32-4v42q-15 0-34 7t-38 17-33 25-21 27q0 4 0 13t1 22 0 25 2 25 2 20 2 11h-79q2-1 3-11t3-23 1-30 1-30 0-25 0-15q0-4 0-18t0-30-2-29-3-16h73q-1 3-2 8t-1 12 0 12-1 9m216 0q12-10 27-18t32-16 35-10 32-4v42q-16 0-35 7t-37 17-33 25-21 27q0 4 0 13t0 22 1 25 2 25 2 20 2 11h-79q2-1 3-11t2-23 2-30 1-30 0-25 0-15q0-4 0-18t0-30-2-29-3-16h73q-1 3-2 8t-1 12-1 12 0 9m437-59q-2 2-3 13t-2 23 0 24 0 16q0 40 0 80t1 79q0 31-14 53t-35 38-48 22-54 7q-29 0-59 0t-59-1l5-57q7 3 21 6t28 4 28 3 23 1q23 0 41-4t30-13 20-26 7-42q0-4 0-9t-1-9q-20 14-43 21t-47 7q-36 0-59-11t-37-30-19-46-6-58q0-15 1-30t1-31q0-7 0-15t-6-13l89 0q-4 7-7 19t-5 26-3 27-1 20q0 20 3 36t10 29 22 20 35 7q8 0 20-1t21-6 18-11 9-18q2-8 2-17t0-18q0-7-1-24t-2-36-4-34-7-20l87-1m559 45q8-11 16-26t8-30q0-17-11-28t-28-17-34-9-31-2q-32 0-64 11t-59 33-43 50-17 63q0 20 8 36t20 27 30 19 35 12 36 6 35 2q40 0 80-6t78-18l19 51q-21 7-44 11t-47 8-47 5-46 1q-21 0-48-3t-53-9-53-18-45-26-32-38-12-49q0-34 13-64t34-53 50-43 61-32 64-20 63-6q29 0 58 4t54 17 39 34 16 57q0 13-2 26t-6 24h-95m205 14q12-10 27-18t33-16 34-10 32-4v42q-15 0-34 7t-38 17-33 25-21 27q0 4 0 13t1 22 0 25 2 25 2 20 2 11h-79q2-1 3-11t3-23 1-30 1-30 0-25 0-15q0-4 0-18t0-30-2-29-3-16h73q-1 3-2 8t-1 12 0 12-1 9m284 193q-23 0-50-6t-50-20-37-34-15-49q0-35 13-62t37-46 53-29 64-10q26 0 47 9t34 24 20 36 8 46q0 25-8 47h-203q4 15 15 24t24 15 28 7 28 2q9 0 23-2t28-4 28-6 19-10l24 42q-32 12-64 19t-66 7m0-210q-14 0-29 6t-26 15-20 23-13 26h140q1-14 0-27t-7-23-16-15-29-5m439 209h-90q8-3 10-11t3-16q-22 7-45 10t-45 4q-14 0-34-3t-39-9-31-19-13-32q0-17 12-29t32-21 44-12 48-7 44-3 32-1q0-7 0-13t1-13q0-13-5-22t-12-14-18-9-21-3q-11 0-23 3t-24 9-19 15-11 21l-61-9q9-22 24-38t36-25 42-14 45-5q21 0 42 5t36 17 25 28 10 40q0 25-1 50t-1 49q0 5 0 16t1 24 2 23 4 14m-218-76q0 7 8 11t18 6 21 3 15 0q20 0 41-3t41-9q0-9 0-17t1-18l-13 0q-4 0-16 0t-26 1-30 3-30 4-21 8-9 11m713 70h-85q5-9 8-25t5-34 2-34 1-27q0-13-2-26t-8-22-15-15-25-6q-19 0-35 10t-30 22q2 12 2 22 0 22-1 43t0 44q0 12 0 24t2 24h-85q5-9 8-25t5-34 3-34 0-27q0-13-2-26t-8-22-15-15-25-6q-19 0-37 11t-30 25q-1 22-1 45t-1 45q0 4 0 14t1 21 1 21 4 11h-87q2-2 4-14t4-27 2-34 2-35 1-30 0-17q0-4 0-17t-1-25-4-25-6-13l85 1q-1 5-1 11t0 12q18-13 40-22t45-8q25 0 46 10t35 31q19-18 46-29t54-12q23 0 41 7t31 22 18 33 7 42q0 22-1 43t-1 44q0 12 1 24t2 24m541-196q3-11 4-21t2-22q0-22-7-36t-22-23-30-12-37-3q-11 0-27 1t-31 6-31 9-28 15-19 21-8 27q0 13 10 22t24 17 34 11 36 8 34 5 25 3q12 2 28 4t35 7 36 11 32 16 23 21 9 27q0 17-9 29t-24 23-33 15-37 10-36 6-29 1q-52 0-103-8t-99-28q-5-2-11-5t-13-5-13-5-12-3q3-3 9-8t13-12 11-12 6-8q43 26 94 39t101 13q9 0 26-2t36-5 31-11 14-19q0-15-14-24t-37-16-52-10-60-8-60-10-52-17-37-26-14-41q0-26 11-46t28-35 40-25 48-17 49-9 45-3q34 0 65 5t53 20 36 39 14 66q0 10-1 19t-2 19h-74m290-40q26 0 56 8t54 23 41 39 16 55q0 21-8 38t-20 29-30 23-36 16-39 9-36 2q-28 0-57-6t-54-20-39-37-16-56q0-33 16-56t40-38 54-22 58-7m-95 122q0 19 9 33t22 21 30 12 33 4q15 0 31-4t31-12 24-22 9-31-9-31-22-23-31-13-32-4q-16 0-33 4t-30 12-23 22-9 32m616 114h-86q2-7 3-17t1-17q-21 16-46 23t-51 7q-24 0-51-7t-48-22-37-35-14-50q0-30 16-53t41-37 54-23 56-8q20 0 40 5t39 16q-1-5-1-16t-1-28-2-32-3-31-5-24-6-11l93-1q-4 3-6 14t-2 25-1 26 0 17q0 11 0 34t2 53 2 62 4 59 4 47 5 24m-167-49q11 0 26-4t28-12 22-18 10-24q0-8 0-16t0-16q-2-13-10-23t-19-16-24-10-25-3q-16 0-34 5t-31 13-23 24-9 33q0 18 8 31t21 21 29 12 31 3m479 55h-91q9-3 11-11t2-16q-22 7-44 10t-45 4q-15 0-35-3t-39-9-31-19-13-32q0-17 12-29t32-21 44-12 48-7 44-3 32-1q0-7 1-13t0-13q0-13-5-22t-11-14-18-9-22-3q-11 0-23 3t-24 9-19 15-10 21l-62-9q9-22 24-38t36-25 42-14 45-5q21 0 42 5t36 17 25 28 10 40q0 25-1 50t-1 49q0 5 0 16t1 24 2 23 5 14m-219-76q0 7 8 11t19 6 20 3 15 0q20 0 41-3t41-9q0-9 1-17t0-18l-13 0q-4 0-16 0t-26 1-30 3-29 4-22 8-9 11" />
</svg>