<svg id="fnt-Cherry Bomb One" viewBox="0 0 3979 1000" xmlns="http://www.w3.org/2000/svg"><path id="cherry-bomb-one" class="f" d="M184 666q-47 0-86-20t-62-58-23-97q0-35 12-66t33-56 52-38 65-14q44 0 78 16t52 44 19 63q0 13-6 25t-16 21-27 8q-16 0-26-5t-15-13-13-14-16-13-26-5q-15 0-28 8t-21 22-8 31q0 26 14 46t39 19q20 0 32-6t20-14 18-13 25-6q22 0 33 14t10 36q-2 21-19 41t-45 31-65 13m215 1q-25 0-38-20t-18-61-4-106q0-49 2-86t15-57 39-20q20 0 31 11t14 29 4 40 1 44q8-4 16-7t25-2q35 0 59 17t37 47 12 64q0 18-1 36t-7 34-14 25-26 10q-20 0-30-9t-12-27-3-40q0-26-6-44t-22-17-23 17-6 44q0 23-3 41t-12 27-30 10m336 0q-38 0-66-15t-44-41-16-59q0-32 16-60t43-44 64-16q34 0 58 13t36 34 13 44-10 38-28 22-35 11-37 0-29-5q9 14 22 19t29 5 28-3q16-4 26 1t10 16q1 9-6 18t-24 15-50 7m-34-139q5 8 15 11t19 2 16-5 7-13q0-8-7-15t-21-7q-14 0-21 9t-8 18m212 139q-17 0-28-12t-16-30-8-43-2-51q0-17 1-36t5-33 14-26 30-9q13 0 24 6t14 19q12-11 29-16t37-4q16 0 33 7t28 22 11 30q0 15-11 28t-30 13q-8 0-14-3t-10-4-12-2q-19 0-34 15t-15 40q0 13-1 28t-5 29-13 23-27 9m241 0q-17 0-28-12t-16-30-8-43-2-51q0-17 1-36t5-33 14-26 30-9q13 0 24 6t14 19q12-11 29-16t37-4q16 0 33 7t28 22 11 30q0 15-11 28t-30 13q-8 0-14-3t-10-4-12-2q-19 0-34 15t-15 40q0 13-1 28t-5 29-13 23-27 9m271 74q-17 0-31-5t-23-13-9-24q0-17 16-26t36-8q22 0 34-3t19-10q-46 0-74-14t-40-42-12-74q0-24 5-45t16-32 30-12q25 0 36 14t10 33q0 17 0 33t1 29 8 20 20 8 21-8 8-20 1-28-1-33q0-21 11-35t35-13q19 0 30 12t17 32 5 45q0 41-9 80t-29 71-52 49-79 19m509-75q-53 0-90-17t-56-55-19-100q0-55 17-94t52-62 84-21q43 0 76 12t51 36 21 55q2 31-11 53t-36 40q18 3 32 20t14 40q0 16-6 32t-22 31-42 22-65 8m-34-186q10 4 25 4t25-8 12-23q0-11-7-18t-17-10-20-2-18 4q-10 5-13 16t0 21 13 16m0 117q10 4 25 3t25-6 12-20q0-10-7-17t-17-8-20-2-18 4q-10 4-13 13t0 19 13 14m310 70q-37 1-65-15t-44-43-16-60q-1-34 15-61t45-41 65-16q36 0 63 15t45 42 17 61q1 32-15 59t-45 42-65 17m1-73q14 0 24-10t10-25-10-24-24-10-23 10-10 24 10 25 23 10m308 73q-24 0-32-17t-8-46q0-25-2-42t-14-16q-10 0-15 7t-4 21-1 30q0 17-2 31t-11 23-26 8q-17 0-28-12t-16-33-8-45-2-47q0-42 8-70t32-34q15-5 28-1t18 15q5-2 12-5t22-3 30 8 21 22q12-14 25-22t37-8q32 1 54 19t35 50 12 70q0 24-4 46t-16 37-31 14q-18 0-27-9t-10-23-2-31q0-17-1-30t-4-21-15-7q-8 0-11 7t-4 21 0 30q-1 30-9 46t-31 17m319 0q-36 0-61-11t-40-26-25-36-12-39-5-34-1-23q0-23 3-48t8-49 14-43 23-30 31-12q16 0 29 11t13 32q0 22-7 42t-8 43q11-7 24-10t26-2q26 0 51 12t40 37 16 64q0 31-15 59t-41 45-63 18m-3-79q13 0 23-11t11-24-11-24-23-11-24 11-10 24 10 24 24 11m467 79q-34 1-65-12t-54-37-37-56-14-70q-1-36 12-67t37-56 54-38 67-13q35-1 65 12t54 37 37 56 15 69q1 36-13 68t-36 55-55 37-67 15m2-97q22 0 38-16t17-44q0-28-17-44t-38-16-39 16-16 44q0 28 16 44t39 16m381 97q-20 0-28-12t-10-28-1-35q0-26-8-43t-26-16q-17 0-25 16t-8 43q0 18-2 35t-9 28-29 11q-15 0-26-11t-15-30-8-40-2-42 2-41 7-39 15-29 26-11q29 0 36 26 6-6 19-12t30-6q39 0 63 20t36 53 11 80q0 23-5 41t-14 30-29 12m188 0q-37 0-66-15t-44-41-15-59q0-32 15-60t44-44 64-16q33 0 57 13t37 34 13 44-11 38-27 22-36 11-36 0-30-5q9 14 23 19t29 5 28-3q15-4 25 1t11 16q0 9-7 18t-24 15-50 7m-33-139q5 8 14 11t19 2 17-5 7-13q0-8-7-15t-21-7q-14 0-22 9t-7 18" />
</svg>