<svg id="fnt-Chewy" viewBox="0 0 1320 1000" xmlns="http://www.w3.org/2000/svg"><path id="chewy" class="f" d="M230 418q0 9-2 20t-7 19-13 14-19 6q-17 0-25-6t-12-15-3-20-1-20-3-15-12-6q-9 0-17 7t-12 18-10 25-5 29-4 26-1 20q0 10 1 25t5 27 12 22 22 9q10 0 19-3t19-5 18-6 20-2q11 0 18 9t8 20q0 15-10 29t-24 24-32 16-30 6q-35 0-60-16t-39-41-22-56-7-62q0-21 4-45t12-49 20-48 28-40 36-29 45-10q24 0 40 12t26 30 14 40 3 41m242 122q0 8-1 25t-1 34-3 34-5 23q-4 9-10 16t-17 7q-17 0-24-13t-10-33-2-43-1-42-5-33-16-13q-16 0-25 5t-12 14-4 19-2 22q-1 11-1 30t-5 38-13 32-26 13q-11 0-18-8t-10-21-6-30-2-31 0-28 0-19q0-10 1-32t3-51 7-56 10-54 15-39 22-15q7 1 13 7t9 16 6 22 4 23 1 22 1 15q0 12-1 25t-1 25q11-15 30-24t38-10q24 0 37 13t17 33 6 42 1 40m239 40q0 16-11 32t-26 29-34 20-33 7q-26 0-46-13t-34-33-21-44-7-47q0-25 7-52t21-52 35-39 50-15q17 0 32 5t26 16 18 25 7 31q0 23-9 43t-26 35-37 24-43 10q2 14 11 20t23 7q10 0 19-5t18-11 17-11 18-5q9 0 17 6t8 17m-79-120q0-6-4-13t-10-7q-11 0-18 6t-13 14-7 18-3 18q6-1 16-4t18-6 15-11 6-15m342 213q-16 0-28-17t-22-39-16-48-9-41q-3 10-10 24t-15 30-19 32-20 28-21 21-20 8q-13 0-23-13t-17-33-12-46-7-50-3-46-1-35q0-12 1-23t5-20 11-14 19-5q11 0 19 8t13 22 9 30 5 34 3 34 1 28q3-10 9-25t11-32 14-33 15-30 15-21 15-9h0q9 0 17 9t16 21 15 30 13 34 10 34 7 28q1-14 2-32t3-36 8-35 11-31 17-21 23-8q14 0 20 9t7 24q0 14-4 39t-10 53-15 57-18 53-22 38-22 15m224 136q-12 0-27-4t-28-10-22-17-9-22q0-5 2-10t7-9 9-6 10-2q6 0 12 2t11 4q6 2 13 4t12 2q13 0 22-8t15-22 10-29 6-33 4-30 1-23q-17 26-34 40t-41 14q-19 0-33-8t-23-21-16-29-10-34-4-34 0-31q0-11 3-28t7-34 13-28 23-11q10 1 15 8t10 19 5 25 3 26 0 25 0 16q0 9 0 17t3 15 10 10 17 4q13 0 20-6t11-16 5-20 1-21q0-7 0-17t0-20 2-22 6-19 9-14 16-5q12 0 21 10t15 25 10 33 5 37 3 34 1 24q0 21-2 47t-5 54-13 54-21 47-33 34-47 13" />
</svg>