<svg id="fnt-Chicle" viewBox="0 0 995 1000" xmlns="http://www.w3.org/2000/svg"><path id="chicle" class="f" d="M207 580q0 43-27 70t-71 27q-46 0-70-31-23-33-28-66-6-36-6-58t2-44 6-49 13-49 22-41 32-30 39-11 28 2 12 3 13-4 21-4 13 10q0 1-4 22t-4 43 4 30 4 14q0 12-11 19t-25 7q-35 0-35-36 0-8 3-21t3-18q0-10-12-10-16 0-32 29-18 33-18 98 0 28 6 50 11 41 38 41 23 0 35-25 6-12 19-12t21 15 9 29m88-144l1 13q1 4 3 4t4-2q6-10 21-19t29-8q20 0 31 16t14 37q3 35 3 58t-1 44q0 36 16 46 8 4 8 11t-4 12q-8 12-24 19t-27 8l-11 1q-15-1-20-9t-5-25l4-86q1-6 1-17 0-41-19-41-12 0-19 14t-7 31-1 38l3 62q0 17-11 25-18 12-43 12t-25-17l1-9q16-77 16-206 1-18 1-40t-1-29-5-14-11-11q-7-5-7-12 0-17 28-32t45-15q18 0 18 28 0 21-3 58t-3 55m148 117l-1-50q0-8-4-15t-10-12-6-12q0-17 26-31t44-13 18 18q0 13-2 45t-2 60q0 66 12 83 7 4 7 13 0 16-19 26t-41 9q-30 0-30-20 0-1 1-12 7-40 7-89m72-209q0 19-18 30t-34 11-26-6-9-17q0-19 18-31t34-11 26 6 9 18m166 228q27 0 27 33 0 20-8 34t-18 22-24 12q-18 5-40 5t-40-10-27-29q-18-34-18-82 0-52 23-92 12-21 32-33t50-12 48 15 21 46q0 37-34 37-8 0-14-7t-6-12-1-11-6-11-13-7q-31 0-31 63 0 19 3 37 8 35 28 35 16 0 21-16 2-7 10-12t17-5m119-259q0 30-4 76t-3 100 1 88 18 47q8 5 8 16t-13 19q-24 17-54 17-20 0-25-17-2-7-2-17t1-22 2-33q4-90 4-142t-1-63q-2-18-13-26l-3-2q-7-5-7-12 0-17 28-32t45-15q18 0 18 18m89 204q0 3 2 5 2 2 5 2 28-2 38-27 2-5 3-13 0-17-14-17-15 0-24 15t-10 35m34-96q33 0 52 17t19 51-28 57-68 23q-6 0-6 6 0 12 8 20t24 9 28-14 21-14 15 8 6 23-8 29-17 23-22 12q-19 7-40 7t-38-10-28-27q-20-34-20-76t10-71 34-52 58-21" />
</svg>