<svg id="fnt-Chivo Mono" viewBox="0 0 2969 1000" xmlns="http://www.w3.org/2000/svg"><path id="chivo-mono" class="f" d="M154 672h-7q-27 0-51-8t-40-26-28-47-9-73v-46q0-43 10-72t27-48 41-25 50-8h7q39 0 66 15t43 45 14 76h-50q0-33-8-54t-24-31-45-9q-17 0-31 4t-24 16-16 31-6 49v68q0 29 6 49t16 31 24 16 31 5q43 0 60-23t18-71h49q0 44-14 74t-42 46-67 16m239-5h-50v-360h50v138q13-19 34-29t44-10q25 0 45 10t32 30 12 51v170h-50v-159q0-32-15-48t-41-15q-17 0-31 8t-22 22-8 33v159m396 0h-50v-217h-91v-39h141v256m87 0h-228v-39h228v39m-92-308h-47v-48h47v48m292 308h-53l-99-256h53l75 196h1l75-196h49l-101 256m274 5q-37 0-63-17t-41-46-14-66v-8q0-38 14-67t41-46 63-16q37 0 64 17t40 45 14 67v8q0 38-14 67t-40 45-64 17m0-36q29 0 48-21t18-59v-34q0-38-18-59t-48-21q-28 0-47 21t-19 59v34q0 38 19 59t47 21m522 31h-42v-343h71l48 270h2l49-270h70v343h-47v-282h-2l-51 282h-46l-49-282h-3v282m378 5q-37 0-63-17t-41-46-14-66v-8q0-38 14-67t41-46 63-16q37 0 64 17t40 45 14 67v8q0 38-14 67t-40 45-64 17m0-36q29 0 48-21t18-59v-34q0-38-18-59t-48-21q-28 0-47 21t-19 59v34q0 38 19 59t47 21m243 31h-50v-256h41l5 37q11-22 32-32t47-10q42 0 67 24t25 69v168h-50v-153q0-36-15-53t-41-16q-19 0-32 9t-21 25-8 38v150m357 5q-37 0-63-17t-41-46-14-66v-8q0-38 14-67t41-46 63-16q37 0 64 17t40 45 14 67v8q0 38-14 67t-40 45-64 17m0-36q29 0 48-21t18-59v-34q0-38-18-59t-48-21q-28 0-47 21t-19 59v34q0 38 19 59t47 21" />
</svg>