<svg id="fnt-Chocolate Classical Sans" viewBox="0 0 5724 1000" xmlns="http://www.w3.org/2000/svg"><path id="chocolate-classical-sans" class="f" d="M189 673q-46 0-82-22t-57-65-21-102 21-102 58-66 84-22q33 0 59 13t41 32l-25 30q-14-16-33-25t-42-10q-34 0-60 18t-41 51-14 79 14 80 39 52 61 19q26 0 47-11t38-31l25 30q-21 25-49 38t-63 14m222-6h-46v-398h46v109l-2 56q19-19 41-33t49-13q43 0 63 27t20 80v172h-45v-166q0-39-13-56t-39-17q-21 0-37 11t-37 31v197m363 6q-33 0-62-17t-46-48-17-77q0-45 17-77t46-49 62-17q34 0 62 17t46 49 18 77q0 45-18 77t-46 48-62 17m0-38q36 0 57-28t22-76q0-31-10-55t-28-36-41-13q-35 0-57 28t-21 76 21 76 57 28m305 38q-36 0-65-17t-46-48-16-77q0-45 18-77t47-49 65-17q27 0 46 10t33 22l-23 30q-11-10-25-17t-29-6q-24 0-44 13t-30 36-11 55q0 31 10 55t30 36 44 13q19 0 35-8t29-19l20 31q-19 16-41 25t-47 9m253 0q-33 0-62-17t-46-48-17-77q0-45 17-77t46-49 62-17q34 0 62 17t46 49 18 77q0 45-18 77t-46 48-62 17m0-38q36 0 57-28t22-76q0-31-10-55t-28-36-41-13q-35 0-57 28t-21 76 21 76 57 28m246 38q-26 0-37-16t-11-44v-344h46v347q0 10 3 15t9 4q2 0 4 0t6-1l6 35q-5 2-11 3t-15 1m156 0q-34 0-56-20t-23-57q0-44 40-68t127-33q0-18-5-34t-17-25-34-10q-24 0-45 9t-37 20l-17-31q18-12 46-24t60-12q50 0 72 31t22 81v167h-37l-4-33h-2q-19 16-42 28t-48 11m13-37q20 0 37-9t38-26v-76q-46 5-73 15t-38 22-12 31q0 23 14 33t34 10m291 37q-43 0-60-25t-17-65v-151h-40v-34l43-3 5-76h38v76h74v37h-74v152q0 25 9 38t33 14q7 0 16-2t15-5l9 34q-12 4-25 7t-26 3m214 0q-36 0-66-17t-47-48-17-77 17-76 45-50 59-17q52 0 80 35t29 93q0 7-1 14t-1 12h-183q2 43 27 69t63 26q20 0 36-6t32-16l16 31q-18 11-40 19t-49 8m-86-164h146q0-41-18-63t-50-21q-29 0-51 22t-27 62m507 164q-45 0-82-22t-57-65-20-102 21-102 58-66 83-22q34 0 59 13t42 32l-25 30q-15-16-33-25t-42-10q-35 0-61 18t-40 51-15 79 14 80 40 52 60 19q27 0 47-11t38-31l26 30q-22 25-50 38t-63 14m225 0q-26 0-37-16t-11-44v-344h46v347q0 10 3 15t9 4q2 0 4 0t6-1l6 35q-5 2-11 3t-15 1m156 0q-34 0-56-20t-23-57q0-44 40-68t127-33q0-18-5-34t-17-25-34-10q-24 0-45 9t-37 20l-17-31q18-12 46-24t60-12q50 0 72 31t22 81v167h-37l-4-33h-2q-19 16-42 28t-48 11m13-37q20 0 37-9t38-26v-76q-46 5-73 15t-38 22-12 31q0 23 14 33t34 10m277 37q-29 0-55-11t-46-26l22-31q18 15 37 24t44 9q27 0 40-13t13-30q0-14-9-23t-24-16-29-12q-19-7-37-17t-30-24-12-38q0-32 25-55t69-22q25 0 46 9t38 22l-22 29q-14-10-29-17t-33-7q-26 0-38 11t-12 28q0 13 8 21t22 14 28 12q20 8 39 17t31 24 13 42q0 22-12 40t-33 29-54 11m234 0q-29 0-55-11t-46-26l22-31q18 15 37 24t44 9q27 0 40-13t13-30q0-14-9-23t-24-16-29-12q-19-7-37-17t-30-24-12-38q0-32 25-55t69-22q25 0 46 9t38 22l-22 29q-14-10-29-17t-33-7q-26 0-38 11t-12 28q0 13 8 21t22 14 28 12q20 8 39 17t31 24 13 42q0 22-12 40t-33 29-54 11m209-6h-46v-272h46v272m-23-328q-13 0-22-8t-8-22q0-13 8-22t22-8 22 8 9 22q0 14-9 22t-22 8m222 334q-36 0-65-17t-46-48-16-77q0-45 18-77t47-49 65-17q27 0 46 10t33 22l-23 30q-11-10-25-17t-29-6q-24 0-44 13t-30 36-11 55q0 31 10 55t30 36 44 13q19 0 35-8t29-19l20 31q-19 16-41 25t-47 9m210 0q-34 0-56-20t-23-57q0-44 40-68t127-33q0-18-5-34t-17-25-34-10q-24 0-45 9t-37 20l-17-31q18-12 46-24t60-12q50 0 72 31t22 81v167h-37l-4-33h-2q-19 16-42 28t-48 11m13-37q20 0 37-9t38-26v-76q-46 5-73 15t-38 22-12 31q0 23 14 33t34 10m254 37q-25 0-37-16t-11-44v-344h46v347q0 10 4 15t9 4q2 0 4 0t5-1l7 35q-5 2-11 3t-16 1m312 0q-39 0-72-15t-56-39l28-32q19 21 46 33t55 13q36 0 56-17t21-43q0-19-8-30t-22-20-32-15l-52-23q-17-8-35-20t-28-30-12-44q0-29 15-51t41-34 60-12q32 0 60 12t47 33l-24 29q-17-16-37-25t-46-9q-31 0-50 14t-19 39q0 18 9 29t24 19 28 14l52 22q22 9 39 22t27 30 10 46q0 29-16 53t-43 37-66 14m255 0q-34 0-57-20t-22-57q0-44 40-68t126-33q0-18-5-34t-16-25-35-10q-23 0-44 9t-37 20l-18-31q19-12 46-24t61-12q50 0 72 31t22 81v167h-38l-4-33h-1q-20 16-43 28t-47 11m13-37q19 0 37-9t37-26v-76q-45 5-72 15t-39 22-11 31q0 23 14 33t34 10m252 31h-46v-272h37l5 40h1q19-20 41-33t50-14q43 0 63 27t20 80v172h-46v-166q0-39-12-56t-39-17q-21 0-38 11t-36 31v197m330 6q-29 0-56-11t-45-26l22-31q18 15 37 24t43 9q27 0 40-13t14-30q0-14-10-23t-23-16-29-12q-19-7-38-17t-30-24-11-38q0-32 24-55t69-22q25 0 47 9t37 22l-22 29q-14-10-29-17t-32-7q-26 0-39 11t-12 28q0 13 8 21t22 14 29 12q20 8 38 17t32 24 12 42q0 22-11 40t-33 29-54 11" />
</svg>