<svg id="fnt-Chokokutai" viewBox="0 0 2883 1000" xmlns="http://www.w3.org/2000/svg"><path id="chokokutai" class="f" d="M345 394l-70-89h-143v337h213v25h-219l-111-205 111-182h198v-13h20l1 127m254 248h26v25h-89v-25h49l-69-193h-41l-47 193h40v25h-88v-25h36v-337h-36v-25h136l-35 144h118v218m242-218l95 117-92 126h-112l-92-126 95-117h106m-104 25v193h102v-193h-102m462 90v103h40v25h-89v-25h34l-76-78h-64l-19 78h40v25h-89v-25h37v-337h-37v-25h137l-63 259h81v-90h-17v-25h117l-85 115h53m256-115l95 117-92 126h-112l-92-126 95-117h106m-104 25v193h102v-193h-102m462 90v103h40v25h-89v-25h34l-76-78h-64l-19 78h40v25h-89v-25h37v-337h-37v-25h137l-63 259h81v-90h-17v-25h117l-85 115h53m329-116v25h-28v194h25v25h-221v-219h-25v-25l113 1-72 218h164l-69-218 113-1m219 1v-14h20v51h-20v-12h-44l-53 180h75l-94 61v-241h-43v12h-20v-51h20v14h43v-90l72 90h44m251 0l101 243-217 0-75-91 81-79v145h102v-193h-104l-75 67v-92h187m177-48v-68h77v68h-77m-36 291v-25h37v-193h-31v-25h123l-74 218h33v25h-88" />
</svg>