<svg id="fnt-Cinzel" viewBox="0 0 1769 1000" xmlns="http://www.w3.org/2000/svg"><path id="cinzel" class="f" d="M351 521h4l-6 78q-13 22-33 38t-46 27-61 10q-52-1-93-23t-63-64-23-96q0-54 23-95t63-64 96-22q37 0 66 9t52 25l10 70h-4q-11-44-45-67t-79-22q-44 0-77 20t-50 58-17 88 17 87 50 59 74 22q35 0 65-14t51-43 26-81m98-154h31v300h-31v-300m0 268h1v32h-42v-5t3 0 4 0q14 0 23-8t11-19m30 32v-32h1q1 11 10 19t24 8q0 0 3 0t4 0l0 5h-42m1-268h-1v-32h42l0 5t-4 0-3 0q-14 0-24 7t-10 20m-30-32v32h-1q-1-12-11-20t-23-7q-1 0-4 0t-3 0v-5h42m157 44l-5-52 277 261 5 54-277-263m-5 225h1v31h-37v-5t4 0 4 0q12 0 20-8t8-18m21 0h1q0 11 8 18t20 8q0 0 4 0t4 0v5h-37v-31m-26-277h5l22 28 0 280h-22v-245q0-26-3-44t-2-19m265 8h22v243q0 16 1 30t2 24 2 10h-5l-22-27v-280m22 31h-1v-31h37v5t-4 0-4 0q-11 0-20 7t-8 19m-21 0h-1q0-11-8-19t-20-7q0 0-4 0t-4 0v-5h37v31m335-38t0 2 0 2l-200 303h-35v-5l186-281h-179v-15h171q11 0 23-1t21-2 13-3m-203 292h207l-3 15h-204v-15m229-57h5l-27 72h-75l17-15q25-1 39-8t25-20 16-29m-254-180v-35h31v1q-11 1-18 8t-7 18v8h-6m0-44v-13q5 2 14 3t21 3 21 2l-56 5m335-4h32v300h-32v-300m31 284h136l-1 16h-135v-16m0-142h112v15h-112v-15m0-142h135v15h-135v-15m159 228h5l-28 72h-76l17-16q25 0 40-7t25-20 17-29m-73-72h26v29h-5v-7q0-8-5-15t-16-6v-1m21-41h5v28h-26v-1q11 0 16-6t5-15v-6m-2-101h30v34h-5v-7q0-11-7-18t-18-8v-1m30-22v13l-57-5q16 0 33-3t24-5m-166 276h1l7 32h-44v-5t4 0 3 0q13 0 21-8t8-19m8-268l-7 31h-1q0-11-8-19t-21-7q0 0-3 0t-4 0v-5h44m260 0h32v300h-32v-300m31 284h136l-1 16h-135v-16m159-56h5l-28 72h-76l17-16q25 0 40-7t25-20 17-29m-190 40h1l7 32h-44v-5t4 0 3 0q13 0 21-8t8-19m32-236h-1v-32h37v5t-3 0-3 0q-12 0-21 7t-9 20m-31-32v32h-1q0-12-9-20t-21-7q0 0-3 0t-3 0v-5h37" />
</svg>