<svg id="fnt-Cinzel Decorative" viewBox="0 0 5257 1000" xmlns="http://www.w3.org/2000/svg"><path id="cinzel-decorative" class="f" d="M399 491q0 86-47 134t-130 49q-57 0-103-24t-71-66-25-93 25-92 69-66 98-23q34 0 69 9t59 25l10 70h-5q-10-42-48-66t-85-23q-66 0-111 47t-44 119 46 119 120 49 120-48 47-132h5q1 6 1 12m42 171h6q13 0 22-10t10-22v-277q0-13-10-22t-22-9h-6v-5h109v5h-6q-13 0-23 9t-9 22v277q0 13 9 22t23 10h6v5h-109v-5m537-340h-9q-13 0-22 8t-9 22v258q0 29 3 55l1 9h-4l-273-291v249q0 12 9 21t22 9h9v5h-103v-5h10q12 0 21-9t9-22v-259q0-31-3-55l-1-8h5l272 291v-248q0-13-9-22t-22-8h-9v-5h103v5m64 39v9h-5v-63q8 3 27 6t26 3 8 0h139q25 0 38-3t15-3v4l-214 338h159q27 0 44-17t25-45h5l-17 77h-262v-5l210-331h-168q-13 1-21 9t-9 21m314 301h6q13 0 22-10t10-22v-280q0-12-9-20t-23-8h-6l0-5h146q16 0 34-3t26-6v63h-5v-9q0-12-9-21t-19-9h-102v155h84q10-1 17-8t7-17v-7h5v79h-5v-8q0-10-7-17t-16-7h-85v149h71q37 0 57-16t32-49h5l-29 81h-207v-5m283 0h7q13 0 22-10t10-22v-277q-1-13-10-22t-22-9h-7v-5h110v5h-7q-18 0-27 15-5 8-5 16v298h72q37 0 56-16t33-49h5l-29 81h-208v-5m332-270l-6-2q15-43 49-59t120-16q18 0 91 2 53 1 94 23t63 60 23 92q0 78-50 126t-130 49h-169l0-5h6q13 0 22-9t10-20v-301q-62 1-88 19-14 10-21 18t-14 23m254-60h-98v320h98q64 0 103-44t39-116q0-48-18-84t-50-56-74-20m229 330h7q13 0 22-10t10-22v-280q0-12-10-20t-22-8h-6l-1-5h147q15 0 33-3t26-6v63h-5v-9q0-12-8-21t-20-9h-102v155h85q10-1 17-8t7-17v-7h5v79h-5v-8q0-10-7-17t-17-7h-85v149h72q37 0 56-16t33-49h5l-29 81h-208v-5m457 12q-79-1-129-51t-49-132 49-131 132-50q67 0 119 34l10 70h-5q-11-43-44-66t-80-23q-65 0-105 45t-39 121 39 120 102 48q56 0 94-31 40-33 49-107h4l-6 78q-46 75-141 75m245-314q54-50 139-50t139 50 53 132-53 131-139 51-139-51-53-131 53-132m27 253q43 46 112 46t111-46 42-121-42-121-111-46-112 46-42 121 42 121m447-281h-32v298q0 13 9 22t23 10h6l0 5h-109v-5h6q13 0 22-9t10-22v-278q0-13-10-22t-22-9h-6v-5h135q45 0 71 25t26 65-25 70-60 29q8 4 18 14t18 21q43 62 56 76t19 19 12 11 13 8q14 7 31 7v5h-28q-21 0-40-8t-28-16-16-16-37-52-35-50-11-12q-16-17-32-17v-5q4 0 11 0t16 0q62-2 78-52 3-10 3-19t0-11q-1-34-18-54t-44-22q-12-1-30-1m548 330h4v5h-113v-5h5q10 0 15-7t6-13-2-12l-32-85h-135l-34 86q-2 6-2 11t5 13 16 7h5v5h-101v-5h5q12 0 24-8t20-24l113-269q18-40 18-51h5l134 320q7 16 19 24t25 8m-183-292l-63 160h123l-60-160m441 0v-9q0-12-9-21t-20-9h-95v300q1 13 10 22t22 9h7v5h-110v-5h7q13 0 22-9t10-22v-300h-95q-12 1-21 9t-8 21v9l-5 0v-63q8 3 26 6t34 3h169q25 0 41-4t20-5v63l-5 0m44 292h7q13 0 22-10t10-22v-277q-1-13-10-22t-22-9h-7v-5h110v5h-7q-13 0-22 9t-10 22v277q0 13 10 22t22 10h7v5h-110v-5m414-340v-5h100v5h-4q-13 0-25 7t-19 24l-120 269q-19 41-19 52h-4l-141-321q-7-16-19-24t-25-7h-4v-5h113v5h-5q-10 0-16 6t-5 13 3 12l104 262 109-262q2-6 2-12t-5-13-16-6h-4m125 340h7q13 0 22-10t10-22v-280q0-12-10-20t-22-8h-6l-1-5h147q15 0 33-3t26-6v63h-5v-9q0-12-8-21t-20-9h-102v155h85q10-1 17-8t7-17v-7h5v79h-5v-8q0-10-7-17t-17-7h-85v149h72q37 0 56-16t33-49h5l-29 81h-208v-5" />
</svg>