<svg id="fnt-Clicker Script" viewBox="0 0 2297 1000" xmlns="http://www.w3.org/2000/svg"><path id="clicker-script" class="f" d="M279 316l1 7q-8 2-15 6t-14 7q14 11 22 29t8 40q0 18-4 34t-14 27-20 17-25 7q-10 0-20-4t-17-10-13-18-4-25q0-17 5-31t14-28 22-23 25-18q-7-3-15-5t-17-2q-14 0-31 5t-34 17-31 28-27 38-18 49-7 60q0 32 10 62t27 51 45 35 62 13q20 0 39-6t36-16 32-26 24-32l8 5q-12 21-28 38t-37 29-42 19-47 6q-34 0-64-12t-50-34-33-54-11-70q0-35 7-64t21-54 30-42 38-30 40-19 41-6q11 0 22 3t20 9q10-4 20-7t19-5m-7 88q0-20-8-36t-22-27q-12 8-22 18t-18 23-12 26-4 32q0 8 2 16t7 13 11 8 14 3q13 0 23-7t16-19 10-25 3-25m171-45q0 15-4 33t-9 35-13 36-15 34-15 32-13 27q1 20 3 36t7 27 8 18 12 6q7 0 15-7t14-19 15-30 15-40l10 3q-6 17-13 35t-17 35-19 25-23 11-21-8-13-20-9-28-4-32-2-32 0-27q0-23 2-44t5-42 10-38 12-30 16-19 19-7q7 0 12 2t9 7 4 9 2 12m-70 141q0 9 0 18t0 17q6-12 13-27t14-30 12-31 11-31 8-29 2-25q0-4 0-8t-2-8-5-6-8-2q-9 0-17 12t-15 34-10 51-3 65m118 141q-15 0-25-12t-10-38q0-16 7-42t23-58l9 2q-2 6-5 17t-6 25-6 28-3 29q0 11 2 18t5 12 6 5 8 2q7 0 14-5t12-11 11-17 9-17 7-18 5-14l9 3q-2 7-6 17t-8 20-10 20-13 17-15 12-20 5m40-227q0 8-7 13t-16 5q-5 0-10-2t-8-4-5-6-2-8q0-8 7-13t15-5q6 0 11 2t8 4 5 7 2 7m-13 0q0-3-2-5t-6-2q-8 0-8 6 0 2 2 4t6 2q4 0 6-1t2-4m95 126q0-15 7-26t17-20q-3-3-7-4t-7-1q-8 0-18 4t-16 14-13 25-5 40q0 20 4 34t13 23 20 14 23 4q15 0 27-8t21-21 18-32 17-39l9 3q-4 12-10 24t-11 25-14 24-17 19-22 13-26 5q-16 0-29-5t-24-15-16-26-6-36q0-21 7-39t17-31 24-21 25-7q13 0 24 7 2-2 4-3t4-4l5 8q-2 1-3 2t-3 3q4 5 7 13t3 16q0 10-2 18t-7 13-9 8-10 3q-3 0-7-2t-7-4-5-7-2-11m39-18q0-7-2-13t-5-9q-10 7-16 17t-6 23q0 7 3 10t8 4q5 0 9-3t5-9 3-10 1-10m147-155q0 17-6 38t-16 44-22 50-25 52q-1 18-3 34t-3 30q4-8 9-20t10-23 13-24 15-20 17-15 19-6q7 0 13 3t11 8 7 12 3 14q0 12-6 21t-14 16-19 12-21 7q0 5 4 11t8 12 13 10 16 4q19 0 36-22t33-68l10 3q-8 22-17 40t-18 32-22 21-25 8q-5 0-12-2t-14-6-15-14-14-23q0-2-1-4t-1-3q0-5 3-7t5-2 7-2 8-1q18-8 27-21t8-30q0-11-4-15t-11-4q-5 0-10 2t-9 7q-10 10-18 23t-16 27-13 29-10 24-6 18-2 7l-10-2q0-2 0-6 0-4 0-8t0-11q0-14 0-35t2-45 4-55 7-62q3-26 9-44t12-30 15-16 15-4q6 0 11 2t7 7 5 10 1 12m-22-21q-6 0-11 7t-9 19-8 29-6 37-5 40-5 42q6-13 13-26t13-29 12-28 10-27 6-24 3-19q0-3 0-7t-2-7-4-5-7-2m168 317q-12 0-24-4t-20-13-14-23-5-31q0-22 7-39t16-30 22-18 24-6q15 0 24 10t9 26q0 14-5 25t-14 19-19 12-23 5q-5 0-10-1t-9-1q1 15 6 26t11 18 14 10 17 4q11 0 21-6t17-14 14-20 12-22 9-23 7-20l10 3q-4 8-8 19t-10 24-13 25-17 23-22 16-27 6m6-154q-9 0-17 5t-16 16-11 24-4 29q3 1 9 2t14 1q9 0 17-4t16-10 11-16 4-20q0-6-1-11t-4-8-8-6-10-2m95 28q-3 8-5 14t-5 12-7 10-8 10l-2-2q6-14 10-27t8-25q-4-6-7-14t-3-20q0-11 4-18t8-7q3 0 6 3t4 7 3 10 1 12q0 3-1 6t0 7-2 7-1 6q1 1 5 2t8 1q10 0 17-3t11-7q4-6 6-9t3-5 2-2 1 0q3 0 5 1t1 5q0 0 0 2t-2 3q-11 15-16 32t-6 40q0 25 8 36t23 12q9 0 16-5t15-16 15-27 16-41l9 3q-10 31-19 51t-19 31-18 16-21 5q-7 0-15-3t-14-10-10-18-4-26q0-8 2-16t3-16 5-15 6-13q-9 4-19 4-10 0-17-3m290-124q0 14 6 25t15 20 22 16 27 14 30 14 30 14 27 16 22 20 15 23 6 30q0 29-11 51t-30 36-44 22-52 7q-24 0-45-7t-38-17-25-27-10-33q0-16 5-28t11-19 12-10 6-4l5 12q0 0-4 3t-9 8-9 15-4 23 5 23 13 18 20 14 22 9 24 5 21 2q26 0 47-7t36-18 23-26 8-32q0-20-8-34t-22-25-31-20-36-17-36-17-31-21-22-28-8-37q0-24 8-45t22-34 34-23 42-7q23 0 40 5t28 14 18 23 5 29q0 13-3 25t-6 22-7 16-4 7l-11-6q0 0 3-6t6-14 7-21 2-23q0-13-4-24t-15-18-25-12-35-4q-18 0-35 6t-28 17-18 27-7 33m304 127q0-15 7-26t18-20q-4-3-8-4t-7-1q-8 0-17 4t-17 14-13 25-5 40q0 20 5 34t13 23 19 14 23 4q15 0 27-8t22-21 18-32 16-39l10 3q-5 12-10 24t-12 25-14 24-17 19-21 13-27 5q-15 0-29-5t-24-15-16-26-6-36q0-21 7-39t18-31 23-21 25-7q14 0 24 7 2-2 4-3t4-4l5 8q-1 1-3 2t-3 3q5 5 8 13t2 16q0 10-2 18t-6 13-9 8-11 3q-3 0-7-2t-7-4-5-7-2-11m39-18q0-7-2-13t-5-9q-9 7-16 17t-6 23q0 7 3 10t8 4q6 0 9-3t6-9 3-10 0-10m76 15q-2 8-5 14t-5 12-6 10-8 10l-2-2q5-14 10-27t7-25q-4-6-6-14t-3-20q0-11 3-18t9-7q3 0 5 3t5 7 2 10 1 12q0 3 0 6t-1 7-1 7-2 6q2 1 5 2t9 1q9 0 16-3t11-7q4-6 6-9t3-5 2-2 2 0q2 0 4 1t2 5q0 0-1 2t-2 3q-10 15-16 32t-6 40q0 25 8 36t24 12q8 0 16-5t14-16 15-27 16-41l10 3q-11 31-20 51t-18 31-19 16-21 5q-7 0-14-3t-14-10-10-18-4-26q0-8 1-16t4-16 5-15 5-13q-9 4-19 4-10 0-17-3m159 104q-15 0-25-12t-10-38q0-16 6-42t24-58l9 2q-2 6-5 17t-7 25-5 28-3 29q0 11 2 18t4 12 7 5 8 2q7 0 14-5t12-11 10-17 9-17 8-18 5-14l9 3q-2 7-6 17t-8 20-10 20-13 17-16 12-19 5m40-227q0 8-7 13t-16 5q-5 0-10-2t-8-4-5-6-2-8q0-8 7-13t15-5q6 0 11 2t8 4 5 7 2 7m-13 0q0-3-2-5t-7-2q-7 0-7 6 0 2 2 4t6 2q4 0 6-1t2-4m156 220q8 0 16-5t13-12 13-17 10-19 9-18 6-16l10 3q-3 8-7 18t-10 20-11 21-14 17-16 13-19 5q-10 0-20-4-8 6-18 10t-22 3q-8 0-12-2t-8-4-3-6-1-5q0-5 2-9t6-6 8-5 10-1q9 0 16 3t15 7q5-7 10-16t7-18 5-19 1-17q0-19-6-28t-15-8q-9 0-18 6t-18 18-19 32-21 46q-1 2-2 4t-2 5q3 29 5 55t2 48q0 39-9 58t-28 19q-7 0-12-4t-9-9-5-14-2-17q0-14 3-31t10-36 13-37 17-39q-2-25-4-48t-2-46q0-19 3-30t8-10q2 0 5 1t5 3 4 5 2 7q0 10-2 20t-8 21q0 12 1 23t1 25q10-23 21-39t20-26 21-15 20-4q9 0 17 4t12 10 8 16 3 20q0 20-7 39t-19 33q5 2 11 2m-112 116q0-22-1-45t-4-45q-14 34-23 63t-9 51q0 11 4 18t12 8q5 0 9-2t6-9 5-15 1-24m51-106q7 0 14-3t12-8q-6-3-12-6t-11-2q-9 0-13 3t-4 7q0 3 4 6t10 3m73-174l4-9q3 2 9 5t12 6 15 5 18 3q4-22 9-40t12-30 13-19 14-7q7 0 11 6t3 16q0 7-2 15t-4 18-5 20-8 21q25-2 45-8t36-12l5 9q-20 8-42 14t-48 7q-6 16-12 30t-12 25q0 14 1 30t6 30 11 23 20 9q10 0 19-9t16-22 13-29 11-30l10 3q-4 8-8 19t-8 23-11 22-13 19-16 13-18 5q-11 0-20-5t-17-17-11-34-4-55q0-27 3-50-21-3-35-9t-22-11m107-73q-2 0-6 5t-10 14-9 26-7 39h4 12q5-12 8-24t6-21 4-18 1-13q0-8-3-8m-34 128v1q4-9 8-18t7-17h-9-5q-1 7-1 16t0 18" />
</svg>