<svg id="fnt-Climate Crisis" viewBox="0 0 4972 1000" xmlns="http://www.w3.org/2000/svg"><path id="climate-crisis" class="f" d="M280 682q-39 0-73-5t-62-15-50-23-39-30-29-38-16-43-6-48q0-42 14-75t38-57 59-40 76-24 88-7q83 0 141 20t92 57 42 91l-212 35q0-12-5-20t-14-13-20-8-24-2q-18 0-32 4t-22 14-8 24q0 8 3 15t8 12 13 9 18 5 20 2q27 0 45-11t18-31l212 21q-5 37-24 70t-52 57-83 39-116 15m464-15h-173q0-40 0-80t0-80 0-79q0-34 0-68t0-68h173q0 21 0 41t0 42q0 73 0 146t0 146m193 0h-173q0-23 0-46t0-46 0-45q0-9 0-19t0-19q29 0 58 0t58 0 57 0q0 29 0 58t0 58 0 59m-173-175q0-34 0-68t0-67h173q0 16 0 33t0 33 0 33q0 0 0 0t0 0q-43 9-87 18t-86 18m366 175h-173q0-36 0-71t0-72 0-71q0-24 0-48t0-48h173q0 33 0 65t0 66q0 45 0 89t0 90m229 0h-173q0-39 0-79t0-79q0-15-7-21t-17-6-19 2-10 6l40-128q37-16 79-16 21 0 40 5t34 15 24 28 9 41q0 15 0 30t0 29q0 7 0 14t0 15 0 14q0 32 0 65t0 65m226 0h-173q0-39 0-79t0-79q0-15-7-21t-17-6-19 2-10 6l35-128q18-8 39-12t41-4q29 0 54 9t41 28 16 52v232m44-292v119q23-14 53-22t59-7q19 0 36 3t31 11 21 18 8 27q0 1 0 1t0 2 0 2q-8-10-20-18t-26-14-31-8-34-3q-27 0-48 5t-37 15-25 22-15 27-5 28q0 24 10 42t27 30 39 18 46 7q19 0 39-4t38-13q10-24 21-49t21-49q-6 15-17 18t-21 4q-18 0-28-8t-10-17 9-17 29-8q9 0 17 2t15 8 6 15q0 26 0 52t0 53q17 0 35 0t35 0 35 0 35 0 35 0q0-49 0-97t0-97q0-33-18-58t-49-41-70-24-81-8q-43 0-86 8t-79 25m707 118h-132q6-23 11-46t12-45 11-45h98v136m-304 43q0-43 0-90t0-90l171-41q0 24 0 50t0 51q0 18 0 37t0 36q0 1 0 1t0 0q0 10 4 17t12 11 19 8 23 2q15 0 30-4t27-13 18-18v152q-22 17-56 25t-68 8q-51 0-92-17t-64-48-24-77m545 18q26 0 41-10t15-26l154 51q-9 31-38 57t-74 41-99 15q-47 0-88-11t-72-32-48-53-17-74 17-75 48-53 72-32 88-10q47 0 87 10t68 32 45 55 16 79h-273t0 0 0 0 0 1q0 7 4 14t11 11 18 7 25 3m-1-86q-25 0-41 9t-16 25q0 0 0 0t0 1 0 0 1 0h111q1 0 1-1t0 0q0-8-5-15t-11-10-18-7-22-2m600 214q-40 0-73-5t-62-15-51-23-39-30-28-38-17-43-5-48q0-42 13-75t38-57 59-40 76-24 89-7q83 0 141 20t91 57 43 91l-213 35q0-12-5-20t-13-13-20-8-24-2q-18 0-32 4t-23 14-8 24q0 8 3 15t9 12 13 9 17 5 21 2q26 0 44-11t18-31l213 21q-6 37-25 70t-52 57-82 39-116 15m291-325h173q0 30 0 60t0 60 0 61q0 32 0 64t0 65h-173q0-50 0-99t0-99q0-28 0-56t0-56m172 191l27-135q5-21 18-36t31-21 37-10 35 2 26 11l-38 186q-15-12-36-17t-41-3-37 7-22 16m361 119h-173q0-23 0-46t0-46 0-45q0-9 0-19t0-19q29 0 58 0t58 0 57 0q0 29 0 58t0 58 0 59m-173-175q0-34 0-68t0-67h173q0 16 0 33t0 33 0 33q0 0 0 0t0 0q-43 9-87 18t-86 18m188-36q0-29 16-50t45-35 63-21 74-7q48 0 88 8t74 23v116q-14-11-37-18t-48-12-47-4q-15 0-28 2t-19 5-7 9q0 3 2 5t7 2 11 0q12 0 21 0t20 0q25 0 50 3t46 13 33 27 13 47q0 31-17 52t-46 34-64 20-74 6q-46 0-90-9t-76-25v-122q13 14 36 22t50 13 52 5q15 0 28-2t19-6 8-9q0-3-2-4t-5-1-8-1q-8 0-16 0t-14 0q-18 0-39-1t-42-6-39-13-27-26-11-40m565 211h-173q0-23 0-46t0-46 0-45q0-9 0-19t0-19q29 0 57 0t58 0 58 0q0 29 0 58t0 58 0 59m-173-175q0-34 0-68t0-67h173q0 16 0 33t0 33 0 33q0 0-1 0t0 0q-43 9-86 18t-86 18m188-36q0-29 16-50t44-35 64-21 74-7q47 0 88 8t74 23v116q-14-11-37-18t-48-12-48-4q-15 0-27 2t-20 5-7 9q0 3 2 5t7 2 12 0q11 0 20 0t20 0q25 0 50 3t46 13 34 27 12 47q0 31-17 52t-45 34-65 20-74 6q-45 0-90-9t-75-25v-122q12 14 35 22t51 13 51 5q16 0 28-2t20-6 7-9q0-3-1-4t-5-1-9-1q-7 0-15 0t-15 0q-17 0-39-1t-42-6-38-13-28-26-10-40" />
</svg>