<svg id="fnt-Coda" viewBox="0 0 1133 1000" xmlns="http://www.w3.org/2000/svg"><path id="coda" class="f" d="M254 554l43 6q-1 24-4 40t-9 30-14 20-21 13-30 8-39 2q-22 0-39-2t-32-4-25-8-18-12-14-15-9-20-6-23-3-30-2-34 0-41q0-27 0-44t2-36 3-30 6-24 9-19 13-13 19-11 24-5 30-4 38-1q22 0 38 2t29 6 22 12 16 19 10 29 6 38l-43 9q-1-13-2-21t-3-16-3-13-5-10-5-7-8-5-9-3-13-2-15 0-18 0q-17 0-28 0t-22 2-17 4-12 6-7 11-3 15q-2 64-2 132 0 46 2 91 1 14 8 22t26 12 55 5q19 0 32-1t22-5 13-8 8-12 3-16 2-23q0-3 1-5t0-5 0-6m212 83q35-1 49-6t13-17q3-35 3-81 0-15-1-43t-2-42q0-4-1-7t-4-6-7-4-8-3-9-2-11-1-11 0-11 0-11 0-11 0-11 1-9 2-8 3-6 4-5 6-1 7q0 14-1 42t-2 43q0 46 3 81 0 13 14 18t48 5m0 33q-27 0-45-2t-31-10-20-15-11-27-5-36-1-50q0-23 1-39t3-31 5-25 10-18 14-13 20-7 26-5 34-1 34 1 26 5 20 7 14 13 10 18 5 25 3 31 1 39q0 32-1 50t-5 36-11 27-20 16-31 9-45 2m393-378v375h-44l-4-34q-15 37-78 37-17 0-30-2t-23-7-17-12-11-16-7-20-4-25-1-27-1-33q0-19 1-34t2-28 5-24 9-19 12-14 17-10 23-6 29-2q32 0 49 9t25 26v-130l48-4m-48 312v-142q0-21-13-29t-49-8q-29 0-42 4-12 4-16 20t-3 45q0 42 1 116 1 16 13 21t47 6q34 0 47-7t15-26m321-115v178h-38l-8-39q-8 25-27 34t-56 8q-24 0-40-4t-25-16-13-28-3-42q0-11 4-20t11-16 18-11 24-7 31-4 34-2 39-1v-72q0-13-11-18t-42-4q-21 0-31 1t-16 5-7 10-1 17q0 5 0 7l-37-1q-1-4-1-11 0-17 5-28t12-18 21-10 26-5 32-1q30 0 48 5t30 16 16 30 5 47m-49 101v-42q-48 0-73 4t-35 10-9 18q0 1 0 2 0 37 6 46t38 9q26 0 43-6t23-17 7-24" />
</svg>