<svg id="fnt-Coiny" viewBox="0 0 1446 1000" xmlns="http://www.w3.org/2000/svg"><path id="coiny" class="f" d="M237 418q0-10-9-18t-21-7q-24 0-39 27t-16 62q0 26 10 47t29 34 44 13q19 0 36-8t27-16 22-16 20-7q11 0 19 9t8 18q0 11-7 25t-19 29-32 29-45 22-56 9q-39 0-72-12t-58-33-38-55-14-74q0-81 48-128t127-47q40 0 74 14t54 37 20 53q0 33-22 59t-57 27q-20 0-36-11t-16-31q0-10 9-27t10-24m334 130q0-26-6-46t-19-19q-9 0-15 10t-10 24-3 31q0 26 7 45t20 19 20-19 6-45m-26 122q-39 0-70-14t-50-42-19-65q0-57 39-91t100-33 100 33 38 91q0 56-39 89t-99 32m179-311q0-17 14-28t40-10q55 0 55 38 0 21-14 29t-41 9q-23 0-39-9t-15-29m108 124v130q0 30-12 42t-44 12q-30 0-41-14t-10-45v-123q0-26 13-41t37-16q27 0 42 12t15 43m200 142l-1-93q0-28-22-28-10 0-17 9t-8 23v77q0 31-12 42t-44 12q-30 0-41-14t-10-45v-123q0-26 13-41t37-16q19 0 32 6t20 19q39-26 95-26 35 0 51 28t16 92q0 32-2 51t-5 34-10 22-16 10-24 3q-28 0-40-11t-12-31m413-99q0 85-5 119-4 31-13 53t-24 39-39 26-57 9q-27 0-50-8t-36-19-20-22-8-19 5-15 15-7q6 0 15 4t17 9 19 9 21 4q27 0 38-13t12-39q-9 4-17 6t-15 4-15 2-13 1q-29 0-50-17t-31-41-9-52 1-47 3-35 6-24 9-15 14-8 18-2q31 0 44 11t13 34l0 80q0 8 0 12t1 9 2 8 3 5 6 4 10 1q15 0 18-8t4-30l1-81q0-16 5-25t18-15 34-5q13 0 22 4t15 11 8 20 4 27 1 36" />
</svg>