<svg id="fnt-Combo" viewBox="0 0 1242 1000" xmlns="http://www.w3.org/2000/svg"><path id="combo" class="f" d="M176 573l34 7q-7 21-15 38t-19 30-22 19-23 7q-21 0-39-20t-32-54-22-77-8-87q0-37 8-59t22-34 32-15 39-4q20 0 37 3t31 13 22 28 11 48l-43 12q-1-27-6-44t-12-26-18-11-22-3-22 3-18 13-12 27-5 49q0 41 4 80t12 70 19 50 22 18q14 0 25-23t20-58m187 81q9 0 18-14t14-37 10-53 3-60q0-21-3-35t-10-20-15-10-17-2-18 2-15 10-9 20-4 35q0 31 4 60t9 53 14 37 19 14m0 20q-18 0-34-16t-28-42-18-59-6-67q0-28 6-45t19-27 27-12 34-3 33 3 27 12 19 27 7 45q0 34-7 67t-18 59-28 42-33 16m347-252q-10 0-18 20t-12 54-9 78-5 93h-36q2-39 2-76 0-36-2-67t-5-53-9-36-13-13q-10 0-19 20t-16 54-12 78-7 93h-40l5-258h18l9 143q4-33 9-60t13-48 18-32 23-11q12 0 20 9t14 26 10 40 5 50q3-27 8-50t13-40 16-26 21-9q17 0 31 19t24 51 16 76 6 92q0 7 0 14t-1 14h-40q0-12 0-23t0-21q0-41-3-78t-7-64-12-43-15-16m137 165l5-295h26l3 170q8-27 21-43t31-16q18 0 34 16t27 42 19 59 6 67q0 28-7 45t-18 27-28 12-33 3-33-3-28-12-18-27-7-45m86-164q-10 0-18 14t-16 37-10 53-4 60q0 22 4 35t11 20 15 9 18 3 18-3 14-9 10-20 4-35q0-31-4-60t-9-53-15-37-18-14m222 231q10 0 18-14t15-37 9-53 4-60q0-21-4-35t-10-20-14-10-18-2-18 2-14 10-10 20-3 35q0 31 3 60t10 53 14 37 18 14m0 20q-18 0-34-16t-27-42-18-59-7-67q0-28 7-45t18-27 28-12 33-3 33 3 28 12 18 27 7 45q0 34-6 67t-19 59-27 42-34 16" />
</svg>