<svg id="fnt-Comforter" viewBox="0 0 1601 1000" xmlns="http://www.w3.org/2000/svg"><path id="comforter" class="f" d="M134 728q-61 0-92-29t-31-78q0-34 13-71t37-72 58-64 76-49 88-25q3 0 7 0t7 0q11 0 22 1t17 4q3-3 7-12t8-19 7-18 3-7q2 0 5 4t4 11q0 1-4 10t-9 20-10 15q4 2 4 6 0 7-10 19t-24 23-26 21-16 13q-11 7-14 7-1 0-1-1 0 0 5-7t13-17 16-21 17-19q-4-2-13-2-31 0-63 11t-63 30-58 45-47 53-32 57-12 56q0 38 27 54t72 15q33 0 71-7t78-18 76-26 65-28 45-26q3-2 5-2 2 0 2 2t-2 4q-23 22-53 43t-71 41-97 35q-61 18-107 18m301-76q-18 0-26-12t-9-28q0-18 9-44t18-49q-9 5-18 10t-16 4q-5 0-7-2t-2-6q0-2 1-7t5-10 10-4q2 0 2 1 0 1-1 1t0 1q0 1 0 2 0 2 2 2 2 0 4-1t5-2q5-2 11-6t15-8l7-15q3-5 7-8t8-2q5 0 9 2t8 4q6-2 12-5t12-3q19-7 40-11t40-4q11 0 23 3t11 9q0 2-4 2-8 0-18-2t-20-2q-13 0-24 1t-22 4q8 4 13 12t6 22q0 14-7 33t-18 40-26 38-30 29-30 11m6-10q10 0 21-10t23-24 19-30q4-7 9-19t9-25 4-25q0-10-4-17t-16-6q-5 0-14 3t-18 7q-2 2-4 4t-2 5q-10 17-19 38t-16 42-6 35q0 22 14 22m170 62q-4 0-13-7t-11-17q-4-12-5-33t-1-44q0-26 1-53t0-49q0-11 0-20t-1-16q-1-1-6-2t-9-2-4 0q0-1 8-5t22-4 19 6 5 9q0 2 0 3t-1 3q-4 20-6 35t-3 32-1 38q0-1 4-16t15-44q8-26 13-34t8-8q1 1 6 2t9 5 4 8v1q-3 19-6 42t-3 46q0 14 1 26t5 19q0-2 3-13t8-25 9-27 6-20q4-12 7-16t9-4q9 0 12 10t5 26 2 30 2 25 7 10q7 0 14-10t13-22 13-23 8-10q2 0 2 3 0 2-2 6-7 17-15 34t-16 29-18 11q-12 0-19-7-5-4-8-17t-5-25-4-24-4-9q-1 0-4 8t-6 22-6 26-4 24-2 12q0 6-5 7t-13 1q-4 0-7-11t-7-29-4-38-1-37q0-5 0-10t0-9q-8 23-16 56t-9 71q0 15 2 29t5 21q0 1 0 2 0 2-2 2m213 175q-20 0-33-12t-21-33-10-46-2-53q0-37 3-69t6-49q1-7 3-19t6-26q-2 0-5-1t-6 0h-1l-18 10q-3 1-4 1-2 0-2-2 0-5 7-15t17-13l18-8q6-24 13-52t13-54 12-48 10-35 5-16q2-2 4-2 4 0 8 4t9 10 4 8q2 4 2 10 0 6-2 16t-8 30q-9 32-20 60t-19 59q23-8 49-15t49-12 36-5q3 0 6 0t2 2q0 1-2 3t-4 2q-26 3-65 15t-76 27q-1 4-2 7t-1 7q61 16 97 56t37 99q0 17-6 38t-17 42-25 39-32 29-35 11m15-15q13 0 24-11t21-27 16-33 9-29q6-28 6-52 0-52-28-89t-84-48q-1 6-2 12t-2 13q-5 29-8 62t-2 67q0 37 5 68t16 49 29 18m120-212q-18 0-27-12t-8-28q0-18 8-44t18-49q-8 5-17 10t-16 4q-5 0-8-2t-2-6q0-2 2-7t5-10 9-4q2 0 2 1 0 1 0 1t0 1q-1 1-1 2 0 2 3 2 1 0 3-1t5-2q5-2 12-6t14-8l8-15q3-5 7-8t7-2q6 0 10 2t8 4q5-2 11-5t13-3q19-7 39-11t41-4q11 0 22 3t12 9q0 2-4 2-8 0-19-2t-20-2q-12 0-24 1t-21 4q8 4 13 12t5 22q0 14-7 33t-18 40-25 38-30 29-30 11m5-10q11 0 22-10t22-24 20-30q4-7 9-19t9-25 4-25q0-10-5-17t-15-6q-6 0-14 3t-18 7q-2 2-4 4t-3 5q-9 17-19 38t-16 42-6 35q0 22 14 22m231-2q-19 0-25-21t-7-51q0-16 1-32t2-26q-8-1-16-4t-11-4q0 3-4 14t-8 25-10 27-11 22-9 9q-2 0-2-3 0-4 4-11 10-20 18-42t14-44q-5-2-7-8t-2-11q0-18 5-30t12-17 10-6q6 0 6 10 0 5-3 15t-6 21-6 18q0 0 3 2t7 2q5 0 9-7t12-12 17-6q6 0 10 1t4 4v2q-5 12-8 32t-2 41q0 18 2 34t6 25 10 10 12-7 9-14 6-11q11-19 13-25t7-6q1 0 1 2 0 1-1 5-6 17-15 34t-20 31-27 12m108 34q-17 0-28-11t-17-29-8-39-2-39q0-11 1-21t1-15q1-19 3-42t6-47q-26 4-48 7t-36 2q-2 0-6-5t-6-10 0-5q5 0 9 0t10 1q15 0 33-2t47-5q4-25 8-50t10-46q3-10 5-16t9-5q6 1 12 4t9 8q10 10 15 24t4 32q0 18-4 40 27-4 56-10t57-12 51-11q3-1 1 1t-7 4-8 3q-31 11-72 21t-81 19q-8 33-23 69t-30 69q0 5-1 9t0 10q0 25 3 44t9 31q5 9 10 12t12 3 10-2 8-3q5-2 7-2t0 3q-2 2-9 7t-20 4m-9-264l7-1 17-2q3-11 4-22t1-20q0-26-9-41-6 20-11 42t-9 44m-19 122q12-28 23-56t17-54q-7 1-13 2t-12 2q-5 27-9 54t-6 52m101 127q-17 0-26-11t-13-29-3-34q0-12 1-23t2-19q3-20 7-39t7-33 5-17q2-7 8-7t12 7 10 12q12 3 23 8t18 10 7 12q0 13-10 25t-27 23-32 18q-2 12-2 24 0 20 5 35t17 15q11 0 20-7t19-19 15-24 10-19q1-3 5-3 2 0 2 4t-6 17q-6 12-13 23t-12 19q-8 11-21 21t-28 11m-10-111q18-9 31-23t14-28q0-6-8-12t-19-9q-6 16-11 34t-7 38m170 92q-18 0-25-21t-6-51q0-16 1-32t1-26q-8-1-15-4t-11-4q-1 3-4 14t-9 25-10 27-10 22-9 9q-2 0-2-3 0-4 3-11 10-20 18-42t15-44q-5-2-8-8t-2-11q0-18 5-30t12-17 10-6q6 0 6 10 0 5-2 15t-6 21-6 18q0 0 3 2t6 2q5 0 10-7t11-12 18-6q5 0 9 1t4 4v2q-5 12-7 32t-3 41q0 18 2 34t6 25 11 10 11-7 10-14 6-11q10-19 13-25t6-6q2 0 2 2 0 1-1 5-6 17-15 34t-21 31-27 12" />
</svg>