<svg id="fnt-Comfortaa" viewBox="0 0 2766 1000" xmlns="http://www.w3.org/2000/svg"><path id="comfortaa" class="f" d="M226 672q-41 0-76-16t-62-43-42-64-15-78q0-41 15-77t41-64 62-43 77-16q36 0 65 11t57 33q5 4 5 8t-1 9-6 7q-1 4-5 6t-9 1-10-4q-20-17-43-26t-53-8q-33 0-61 13t-50 36-34 52-12 62q0 34 12 64t34 52 50 35 61 13q27 0 52-9t46-26q6-5 13-4t12 6 5 13q0 4-2 7t-4 7q-25 23-57 33t-65 10m308-3q-40 0-72-18t-49-49-18-72q0-40 18-72t49-49 72-18 71 18 49 49 19 72q0 40-19 72t-49 49-71 18m0-35q29 0 52-13t36-37 13-54-13-54-36-37-52-13-52 13-37 37-13 54 13 54 37 37 52 13m583 33q-8 0-14-6t-5-13v-144q0-36-19-57t-47-20q-31 0-51 20t-19 56h-35q1-34 15-59t38-40 56-14q29 0 52 14t35 40 13 60v144q0 8-5 13t-14 6m-350 0q-9 0-14-6t-5-13v-235q0-9 5-14t14-6q9 0 14 6t5 14v235q0 8-5 13t-14 6m176 0q-9 0-14-6t-6-13v-144q0-36-18-57t-48-20q-31 0-51 20t-20 53h-27q1-32 14-57t36-39 52-14q30 0 52 14t36 40 13 60v144q0 8-6 13t-13 6m312 0q-7 0-13-6t-5-14v-253q0-35 12-62t35-41 58-15q8 0 14 5t5 13-5 12-14 5q-23 0-38 10t-22 29-7 42v255q0 9-5 14t-15 6m80-230h-130q-8 0-13-5t-5-12q0-7 5-12t13-5h130q8 0 13 5t5 12q0 7-5 12t-13 5m184 232q-40 0-72-18t-49-49-18-72q0-40 18-72t49-49 72-18 71 18 49 49 19 72q0 40-19 72t-49 49-71 18m0-35q29 0 52-13t36-37 13-54-13-54-36-37-52-13-52 13-37 37-13 54 13 54 37 37 52 13m252-136h-22q1-31 16-55t38-39 53-14q23 0 36 7t9 19q-2 7-7 10t-11 2-15-1q-28-3-50 5t-35 26-12 40m-19 169q-9 0-14-5t-5-14v-236q0-9 5-14t14-5 14 5 5 14v236q0 9-5 14t-14 5m327 0h-10q-27 0-48-13t-32-34-12-50v-244q0-9 5-14t14-6 14 6 5 14v244q0 26 15 42t39 16h13q8 0 13 6t5 14-6 13-15 6m-7-230h-128q-7 0-12-5t-5-12q0-7 5-12t12-5h128q7 0 12 5t5 12q0 7-5 12t-12 5m211 232q-38 0-69-18t-48-50-18-71q0-40 18-71t50-50 71-18 71 18 49 50 19 71l-15 12q0 36-17 65t-46 45-65 17m4-35q29 0 52-13t36-38 13-53q0-30-13-53t-36-38-52-13q-28 0-51 13t-37 38-13 53q0 30 13 53t37 38 51 13m120 33q-9 0-14-6t-6-13v-86l10-39 29 7v118q0 8-5 13t-14 6m215 2q-39 0-69-18t-49-50-17-71q0-40 18-71t50-50 71-18 70 18 50 50 19 71l-16 12q0 36-17 65t-45 45-65 17m4-35q29 0 51-13t36-38 14-53q0-30-14-53t-36-38-51-13q-29 0-52 13t-36 38-14 53q0 30 14 53t36 38 52 13m119 33q-8 0-14-6t-5-13v-86l9-39 30 7v118q0 8-6 13t-14 6" />
</svg>