<svg id="fnt-Comic Neue" viewBox="0 0 2577 1000" xmlns="http://www.w3.org/2000/svg"><path id="comic-neue" class="f" d="M169 670q-40 0-73-19t-52-52-20-78q0-49 22-94t58-71 74-27q22 0 37 5t30 14q1-3 5-5t8-2q6 0 11 5t4 11v32q0 6-5 11t-11 5-11-5-5-11v-4q-11-10-25-18t-38-7q-29 0-57 23t-46 59-18 79q0 36 16 62t41 41 55 14q57 0 93-47 3-3 6-5t7-1q6 0 11 4t5 12q0 6-3 10-21 28-52 43t-67 16m263 0q-29 0-52-16t-37-41-13-58q0-34 15-65t43-51 59-19q28 0 51 15t37 42 13 58q0 36-16 67t-43 49-57 19m2-29q21 0 40-14t31-39 11-51q0-23-9-44t-26-32-36-12q-22 0-41 14t-30 39-11 52q0 26 9 45t27 31 35 11m193 29q-7 0-12-5t-4-10v-219q0-6 4-11t12-5 11 5 4 11v57q17-32 43-53t52-20q21 0 38 13t24 44q18-29 41-43t44-14q31 0 49 23t18 70v142q0 6-5 10t-11 5-11-5-4-10v-146q0-31-10-45t-30-14q-15 0-33 11t-31 33-13 48v113q0 6-5 10t-11 5-11-5-5-10v-146q0-31-9-45t-29-14q-17 0-35 14t-33 35q-14 19-18 35t-5 46v75q0 6-4 10t-11 5m417-289q-7 0-11-5t-5-11l1-20q0-6 5-11t11-4 10 4 5 11l-1 21q0 6-5 10t-10 5m-3 289q-7 0-12-5t-5-11l3-217q0-7 5-12t12-5 11 5 5 12l-3 217q0 6-5 11t-11 5m190 0q-29 0-55-15t-40-39-14-55q0-34 15-67t42-53 54-21q26 0 43 9t32 26q4 4 4 11t-4 11-11 4q-7 0-11-5-11-13-23-20t-29-7q-20 0-39 16t-31 42-12 53q0 25 12 43t30 28 37 10q43 0 67-35 6-9 14-9 6 0 11 5t4 10q0 5-5 12-13 19-37 32t-54 14m333 0q-6 0-11-5t-5-11l1-309q0-6 4-11t11-5q8 0 14 7l184 268v-259q0-7 5-12t11-4 11 4 5 12v309q0 6-4 11t-12 5q-3 0-7-2t-6-5l-184-267-1 258q0 6-5 11t-11 5m419 0q-36 0-65-17t-44-43-15-60q0-34 14-64t40-48 58-18q30 0 51 12t32 27 11 29q0 9-12 16l-155 88q13 24 34 36t51 13q16 0 33-8t29-19q3-5 10-5t10 4 5 11q0 5-4 10-14 15-37 25t-46 11m51-186q-7-17-22-26t-40-8q-24 0-43 13t-30 36-11 49q0 10 1 16l145-80m159 187q-28 0-44-12t-24-43-7-83q0-58 6-95 1-10 5-14t11-4q6 0 10 4t4 11q0 7-1 19-5 36-5 91 0 52 11 75t35 23q22 0 45-12t32-22q6-7 6-23l2-152q0-6 5-10t10-4 11 4 4 10v220q0 6-5 11t-11 5q-8 0-13-5t-5-13v-19q-11 15-34 26t-48 12m296-1q-36 0-65-17t-44-43-15-60q0-34 14-64t40-48 58-18q30 0 51 12t32 27 11 29q0 9-12 16l-155 88q13 24 34 36t51 13q16 0 33-8t29-19q3-5 10-5t10 4 5 11q0 5-4 10-14 15-37 25t-46 11m51-186q-7-17-22-26t-40-8q-24 0-43 13t-30 36-11 49q0 10 1 16l145-80" />
</svg>