<svg id="fnt-Coming Soon" viewBox="0 0 2973 1000" xmlns="http://www.w3.org/2000/svg"><path id="coming-soon" class="f" d="M257 614l5-5q4-4 10-4t9 4q5 4 5 10 0 5-4 9-1 1-8 7t-19 14-30 13-40 6q-26 0-55-10t-56-32-42-59-17-88q0-16 1-28t3-21 6-18 7-15q1-1 7-12t17-25 22-28 25-19q14-6 28-9t27-3q13 0 24 3 5 1 12 4t16 6 15 7 10 7q4 6 5 13t1 15q0 5-4 9t-9 4q-6 0-10-4t-4-9q0-3 0-6t-1-5q-5-2-16-7t-22-8q-4-1-8-1t-9-1q-10 0-22 2t-21 8q-7 3-15 11t-16 19-16 22-12 20q-3 7-6 13t-4 14-3 18-1 24q0 33 8 58t21 43 28 30 32 18 30 10 24 3q18 0 32-5t24-11 16-11m158 36q9 0 23-9t28-26 24-39 10-51q0-28-7-49t-15-35-17-21-13-9q-8 0-15 1t-9 2q-6 0-10-5-13 5-26 22t-24 40-19 48-7 48q0 22 8 38t19 26 25 14 25 5m34-266q10 0 23 10t26 28 20 44 9 59q0 32-11 60t-28 48-37 32-36 12q-19 0-38-7t-33-22-24-34-9-47q0-18 4-38t12-41 18-40 23-35 26-24 27-9q6 0 10 1t7 3q3 0 5 0t6 0m540 219q0 6 0 11t-2 12-1 10-1 10q0 8 3 16 1 1 1 2t0 3q0 9-9 13-3 1-4 1-10 0-14-9-2-7-3-13t-1-13q0-7 0-13t2-11 1-10 1-9q0-7-1-13t-3-12q0-8-2-15t-1-17q0-7 0-13t1-10q1-9 1-23t1-42q0-23-11-34-9-8-22-10t-20-1q-7 0-15 3t-17 7-16 9-12 7q-2 2-4 3t-4 2q-2 1-7 8t-10 15q-3 5-7 6 0 13 1 24t2 21 2 19 1 17q0 11 0 18t1 14q2 9 2 16t1 14 4 14 5 12 4 8q2 2 2 6t-2 7-5 6q-3 1-7 1-8 0-12-7 0 0-3-6t-6-14-6-20-3-21q0-3 0-6t-1-7q-1-7-1-15t0-20q0-6-1-15t-2-17q-1-13-3-27t-1-30q0-9-4-21t-12-21-20-16-26-6q-19 0-34 7t-26 18-18 24-12 24-7 18l-2 8q0 4-4 7v8q0 12 4 28t7 32q6 22 11 46t5 49q0 5-4 9t-9 4q-6 0-10-4t-4-9q0-23-5-45t-10-43q-5-19-9-35t-3-32q0-14-2-35t-5-42-4-35-2-16q0-5 3-9t10-4q5 0 9 3t4 8q0 1 1 7t3 13 2 19 3 23q7-14 17-27t24-23 30-17 37-6q15 0 29 5t24 13 19 20 12 25q4-6 8-10t9-7q3-1 7-4 6-4 15-9t19-10 21-8 20-4q5 0 12 1t15 2 17 6 16 11q19 19 19 53 0 28-1 43t-1 24q-1 5-1 10t0 11q0 7 1 13t2 13q2 7 3 15t1 16m74-228q-8 0-13-6t-6-14 6-14 13-5q8 0 14 5t6 14-6 14-14 6m5 20h2q5 0 9 3t4 8q0 2 3 16t5 33 5 41 4 40q1 17 4 40t5 44 5 36 2 16q0 5-3 9t-10 4q-6 0-9-3t-5-9q0-1-2-16t-5-35-6-44-3-40q-1-17-4-39t-5-42-5-33-2-15q0-5 3-9t8-5m343 213q0 7 1 14t5 14 4 12 4 8 2 7q0 8-7 12-2 1-3 1t-4 1q-8 0-12-7 0-1-3-7t-6-14-6-19-3-22q0-2 0-6t-1-7q0-6-1-15t0-19q0-7-1-15t-2-18q-2-12-3-26t-1-30q0-9-4-21t-12-21-19-16-27-7q-19 0-34 7t-26 18-18 23-12 24-6 19-3 8q-1 5-4 7v9q0 12 4 27t8 32q5 22 10 46t5 49q0 6-4 10t-9 4q-6 0-10-4t-4-10q0-23-5-45t-10-43q-5-18-8-35t-4-31-2-36-4-41-5-35-3-16q0-5 4-9t10-5q6 0 9 3t5 9q0 1 1 6t2 14 2 19 3 22q7-13 17-27t24-23 30-17 37-6q20 0 36 8t28 21 19 30 6 33q0 15 2 28t2 25q1 9 2 19t1 17q0 20 2 31 0 5 0 8t1 8m233-14q1-4 6-7-4-34-6-62t-2-47v-6q-5-3-7-7-10-19-20-27t-13-9q-8 0-15 1t-9 2q-6 0-10-5-12 5-26 22t-24 40-19 48-7 47q0 23 8 39t19 25 25 15 25 4q7 0 17-5t21-15 20-23 17-30m25-116q0 11 1 28t3 36 4 42 4 45q2 22 4 43t4 39 2 33 1 26q0 17-6 35t-20 31-33 22-45 8q-72 0-103-79-1-2-1-5 0-9 8-13 2 0 3-1t3 0q8 0 12 9 3 7 8 17t14 21 22 17 34 7q21 0 36-7t24-17 13-23 4-22q0-10-1-25t-2-33-4-38-4-41q-9 15-20 26t-22 19-23 12-20 4q-19 0-38-7t-33-21-24-34-10-48q0-17 5-37t12-41 18-41 22-34 26-24 28-9q10 0 17 4 3 0 5 0t6 0q8 0 19 7t21 19q1-6 3-11t10-5l12-1 2 12q0 1 0 2t0 4q0 3 0 14t-1 35m384-54q24 6 42 21t31 32 20 39 7 36l-1 8q0 13-2 28t-8 29-24 27-44 20q-14 5-25 6t-23 2q-15 0-31-3t-37-10q-20-5-34-16t-24-22-13-19-5-10q-2-2-2-5 0-8 9-13 4-1 5-1 4 0 8 3t5 6l3 6q4 7 11 15t18 18 27 12q21 6 34 9t26 3q17 0 41-7 21-6 33-14t17-19 6-22 2-24l0-9q0-10-5-25t-15-30-24-27-35-17q-13-4-28-6t-29-2q-17-2-34-4t-29-7-22-14-10-25q0-2 0-3t0-3q0-19 7-33t19-22 23-15 20-10q12-6 27-8t35-2q17 0 33 2t33 6q11 2 11 16-1 5-6 8t-11 2q-14-4-30-5t-31-2q-15 0-28 2t-22 6q-10 4-20 9t-17 12-11 16-5 22q1 13 20 17t50 7q15 2 31 3t31 6m251 226q9 0 24-9t28-26 23-39 10-51q0-28-6-49t-16-35-17-21-12-9q-8 0-15 1t-9 2q-6 0-11-5-12 5-25 22t-25 40-18 48-7 48q0 22 7 38t20 26 25 14 24 5m34-266q11 0 24 10t25 28 21 44 9 59q0 32-12 60t-28 48-36 32-37 12q-19 0-37-7t-34-22-24-34-9-47q0-18 5-38t12-41 18-40 22-35 26-24 28-9q5 0 10 1t7 3q3 0 5 0t5 0m220 266q9 0 24-9t28-26 23-39 10-51q0-28-7-49t-15-35-17-21-12-9q-9 0-15 1t-9 2q-6 0-11-5-12 5-25 22t-25 40-18 48-8 48q0 22 8 38t20 26 25 14 24 5m34-266q11 0 24 10t25 28 21 44 8 59q0 32-11 60t-28 48-37 32-36 12q-19 0-37-7t-34-22-24-34-9-47q0-18 4-38t12-41 19-40 22-35 26-24 28-9q5 0 9 1t8 3q2 0 5 0t5 0m363 224q0 7 2 14t4 14 5 12 4 8 1 7q0 8-7 12-2 1-3 1t-3 1q-8 0-12-7-1-1-4-7t-6-14-6-19-2-22q0-2-1-6t0-7q-1-6-1-15t-1-19q0-7-1-15t-2-18q-1-12-2-26t-2-30q0-9-4-21t-12-21-19-16-27-7q-19 0-33 7t-26 18-18 23-12 24-7 19-2 8q-2 5-4 7v9q0 12 3 27t8 32q6 22 11 46t5 49q0 6-4 10t-10 4q-5 0-9-4t-5-10q0-23-4-45t-10-43q-5-18-9-35t-3-31-2-36-5-41-5-35-2-16q0-5 3-9t11-5q5 0 9 3t4 9q0 1 1 6t2 14 3 19 3 22q7-13 17-27t23-23 30-17 37-6q20 0 37 8t28 21 18 30 7 33q0 15 1 28t3 25q1 9 2 19t1 17q0 20 1 31 1 5 1 8t0 8" />
</svg>