<svg id="fnt-Commissioner" viewBox="0 0 3264 1000" xmlns="http://www.w3.org/2000/svg"><path id="commissioner" class="f" d="M208 672q-42 0-76-14t-58-38-36-59-13-73q0-54 22-96t62-65 92-23q18 0 35 2t31 7 28 9 22 10l-4 44q-19-12-38-19t-36-10-34-3q-39 0-69 17t-47 50-17 77q0 30 9 56t26 46 44 32 61 11q13 0 26-1t25-6 24-9 24-14l4 43q-11 7-23 12t-27 8-28 5-29 1m285 0q-31 0-54-10t-39-29-24-42-8-50q0-37 15-66t43-46 66-16q30 0 53 9t39 28 24 41 8 50q0 37-15 67t-42 47-66 17m0-36q27 0 45-13t27-36 9-46q0-28-10-49t-28-32-43-11q-27 0-46 12t-28 33-9 47q0 25 9 46t28 36 46 13m233 31h-42q0-28 0-54t0-56v-25q0-27 0-56t0-57l36-3 2 46h4q8-11 20-23t28-19 37-7q31 0 47 15t21 43l3 2q1 6 1 14t1 14q0 17 0 29t0 27q0 30 0 56t0 54h-41q0-28 0-54t0-54v-47q0-30-10-45t-36-15q-16 0-29 7t-24 18-18 25v57q0 29 0 55t0 53m315 0h-42q0-28 0-54t0-54v-47q0-30-10-45t-36-15q-16 0-29 6t-23 19-19 25l-6-39h5q8-12 20-23t29-20 38-7q39 0 56 23t17 65q0 17 0 29t0 27q0 30 0 56t0 54m121 0h-41q0-28 0-54t0-56v-25q0-27 0-56t0-57l36-3 1 46h4q8-11 20-23t28-19 37-7q31 0 47 15t22 43l2 2q1 6 2 14t0 14q0 17 0 29t0 27q0 30 0 56t0 54h-41q0-28 0-54t0-54v-47q0-30-10-45t-36-15q-16 0-29 7t-23 18-19 25v57q0 29 0 55t0 53m315 0h-41q0-28 0-54t0-54v-47q0-30-10-45t-37-15q-15 0-28 6t-24 19-19 25l-6-39h5q8-12 21-23t29-20 37-7q39 0 56 23t17 65q0 17 0 29t0 27q0 30 0 56t0 54m122 0h-42q0-28 0-54t0-56v-25q0-22 0-41t0-36 0-36l42-2q0 19 0 37t0 37 0 41v25q0 31 0 56t0 54m-22-306q-13 0-22-7t-8-23q0-15 8-23t23-8q14 0 22 8t8 23q0 15-8 23t-23 7m178 311q-15 0-31-2t-29-7-24-9l3-39q12 6 25 11t27 8 28 2q14 0 26-3t18-11 7-25q0-10-6-17t-20-12-38-12q-20-6-35-14t-25-21-9-36q0-33 22-53t60-19q16 0 30 3t27 6 21 9l-3 39q-12-7-25-12t-25-7-20-2q-11 0-21 3t-17 10-6 22q0 10 4 17t17 13 32 11q25 7 43 15t27 21 9 35q0 22-9 39t-30 27-53 10m228 0q-16 0-31-2t-30-7-24-9l4-39q11 6 24 11t27 8 29 2q14 0 25-3t19-11 7-25q0-10-6-17t-21-12-38-12q-19-6-35-14t-24-21-9-36q0-33 22-53t60-19q15 0 30 3t26 6 22 9l-4 39q-12-7-25-12t-24-7-21-2q-10 0-20 3t-17 10-7 22q0 10 5 17t16 13 33 11q25 7 42 15t27 21 10 35q0 22-10 39t-29 27-53 10m199-5h-41q0-28 0-54t0-56v-25q0-22 0-41t0-36 0-36l41-2q0 19 0 37t0 37 0 41v25q0 31 0 56t0 54m-21-306q-14 0-22-7t-9-23q0-15 9-23t22-8q14 0 22 8t9 23q0 15-9 23t-22 7m215 311q-31 0-54-10t-39-29-24-42-8-50q0-37 15-66t43-46 66-16q30 0 53 9t39 28 24 41 9 50q0 37-15 67t-43 47-66 17m0-36q27 0 45-13t27-36 9-46q0-28-10-49t-28-32-43-11q-27 0-46 12t-28 33-9 47q0 25 9 46t28 36 46 13m233 31h-41q0-28 0-54t0-56v-25q0-27 0-56t0-57l36-3 1 46h4q8-11 21-23t29-19 39-7q40 0 58 22t18 66q0 17 0 29t0 27q0 30 0 56t0 54h-41q0-28 0-54t0-54v-47q0-30-11-45t-38-15q-17 0-30 6t-25 19-20 25v57q0 29 0 55t0 53m357 5q-44 0-73-17t-43-46-14-68q0-37 14-66t39-46 62-16q31 0 54 12t35 36 12 58q0 10 0 17t-2 15l-36-18q0-4 0-8t1-7q0-35-18-54t-46-18q-22 0-39 12t-25 32-9 46v6q0 29 10 50t30 33 52 11q12 0 25-2t26-6 25-10l1 37q-9 5-22 9t-27 6-32 2m84-121h-197v-30l172-1 25 9v22m109 116h-41q0-28 0-54t0-56v-25q0-27 0-56t0-57l36-3 1 51h4q11-23 24-35t27-15 25-4q7 0 14 1t14 3l-4 41q-8-1-15-2t-15-1q-8 0-17 2t-19 9-18 20-16 34v39q0 29 0 55t0 53" />
</svg>