<svg id="fnt-Convergence" viewBox="0 0 3036 1000" xmlns="http://www.w3.org/2000/svg"><path id="convergence" class="f" d="M30 485q0-113 73-159 39-25 95-25 55 0 104 18 7 2 7 2l-14 44q-1 0-7-2t-13-3-16-4-19-3q-20-4-42-4-56 0-82 31t-26 106q0 85 30 113 15 15 33 20t43 6q47 0 99-19l14 46-13 4q-54 17-111 17-74 0-115-48t-40-140m439-91q49 0 81 34t32 101-33 105-98 39q-49 0-81-35t-32-101 32-105 99-38m-74 143q0 50 16 72t51 22 48-26 15-77-17-71-46-21q-38 0-53 25t-14 76m261 130v-182q0-45-9-81l42-6 9 25q42-29 86-29 91 0 91 98v175h-54v-165q0-66-52-66-31 0-59 21v210h-54m421 0h-48l-106-260 52-10 50 127q27 72 28 83h3q1-10 29-83l45-127 53 10-106 260m338-57l19 34q-9 8-36 18t-59 11q-56 0-91-34t-34-102q0-38 12-67t31-44q39-32 82-32t68 21 25 54q0 41-39 67t-127 27q0 23 19 45t57 23 73-21m-31-137q0-15-12-26t-31-11q-33 0-55 24t-21 65q119 0 119-52m121 194v-182q0-45-9-81l42-6 13 33q31-37 71-37 26 0 41 12t15 36-8 40l-43-5q0-23-4-32t-18-9-26 10-20 24v197h-54m428-249v233q0 61-32 93t-90 33q-36 0-54-5t-26-8-9-3l11-40q34 12 60 12t39-3 25-12q22-17 22-74v-8q-9 14-28 25t-44 12q-43 0-73-33t-29-100 32-107 96-39q51 0 100 24m-171 118q0 52 15 73t43 22 43-20 16-48v-121q-18-6-42-6-41 0-58 23t-17 77m428 74l19 34q-9 8-36 18t-59 11q-56 0-91-34t-34-102q0-38 12-67t31-44q39-32 82-32t68 21 25 54q0 41-39 67t-127 27q0 23 19 45t57 23 73-21m-31-137q0-15-12-26t-31-11q-33 0-55 24t-21 65q119 0 119-52m121 194v-182q0-45-9-81l42-6 10 25q42-29 86-29 91 0 91 98v175h-54v-165q0-66-53-66-30 0-59 21v210h-54m403 6q-57 0-88-39t-31-100 33-101 91-39q49 0 90 21l-15 36q-34-15-64-15-40 0-59 26t-19 67q0 102 79 102 29 0 61-17l18 35q-39 24-96 24m333-63l19 34q-9 8-36 18t-59 11q-56 0-91-34t-34-102q0-38 12-67t31-44q39-32 82-32t68 21 25 54q0 41-39 67t-127 27q0 23 19 45t57 23 73-21m-31-137q0-15-12-26t-31-11q-33 0-55 24t-21 65q119 0 119-52" />
</svg>