<svg id="fnt-Cookie" viewBox="0 0 1003 1000" xmlns="http://www.w3.org/2000/svg"><path id="cookie" class="f" d="M205 584q4-5 10-17 16-29 19-29t4 4q0 25-26 62-46 68-122 68-22 0-40-10t-28-26q-22-31-22-66 0-87 45-140t108-53q23 0 38 13t15 35-10 39-26 18-14-8q0-9 9-20t10-23q0-36-38-36t-68 51-30 104q0 37 21 65t59 29q45 0 86-60m158-26q20-6 27-11t12-7l6-4q3-1 4-1 4 0 4 4t-15 16-39 20q-3 42-26 68t-66 26q-31 0-47-25t-17-58 20-62 51-30q14-10 33-10t36 21 17 53m-33 26l-18 1q-23 0-39-14t-16-30 6-29q-22 17-22 67 0 24 10 46t32 22 33-19 14-44m-31-83q-8 0-12 7t-5 16q0 18 13 30t30 11h6q-1-24-9-44t-23-20m246 57q20-6 27-11t12-7l6-4q3-1 4-1 4 0 4 4t-15 16-39 20q-3 42-26 68t-66 26q-31 0-47-25t-17-58 20-62 51-30q14-10 33-10t36 21 17 53m-33 26l-18 1q-23 0-39-14t-16-30 6-29q-22 17-22 67 0 24 10 46t32 22 33-19 14-44m-31-83q-8 0-12 7t-5 16q0 18 13 30t30 11h6q-1-24-9-44t-23-20m250 183l14-1q4 0 4 4 0 7-10 10t-21 4q-23 0-38-18t-42-67q-7-10-7-16 0-7 21-17 34-18 34-44 0-8-5-13t-14-5q-12 0-28 28t-23 53-5 53q0 14-8 14-12 0-22-3t-11-9 4-47 5-61q2-102 12-156 1-4 13-15t20-11 7 18-8 81-10 112q9-32 29-60t40-29q34 0 34 33 0 22-13 40t-35 29q-5 2-5 4t2 5q31 56 53 78 6 6 13 6m29-262q0-9 10-15t17-7q13 0 13 16t-8 26-22 12q-10 0-10-32m15 247q-20 0-30-8-3-3-3-25t3-72 6-54 15-15 20-11 8 19q0 5-3 20t-6 21q-7 16-7 86 0 14 3 14 9-1 24-22t29-53 18-32 4 4q0 14-15 44-39 84-66 84m115 0q-28 0-44-21t-17-48q0-55 23-83t60-28q17 0 28 9t11 26q0 30-26 50t-61 21q2 20 13 34t26 14 27-7 22-20q21-27 36-62 4-9 6-13t5-4 3 4q0 25-30 75-33 53-82 53m-26-86q29-5 43-19t14-36-15-23q-17 0-29 24t-13 54" />
</svg>