<svg id="fnt-Corben" viewBox="0 0 1699 1000" xmlns="http://www.w3.org/2000/svg"><path id="corben" class="f" d="M65 487q0 33 12 61t33 46q44 41 114 41t122-53q6-6 11-6t8 3 4 9-2 11h0q-18 32-61 53t-88 21-82-11-65-33-45-54-17-74 16-76 43-57q57-46 146-46 47 0 89 14 22 8 35 22t14 32-11 27-27 9-22-3q-3-38-22-56t-58-19q-66 0-107 38t-40 101m433 186q-55 0-89-35t-33-88q0-36 18-64t48-42 68-15q53 0 88 33t35 87q0 36-18 65t-48 43-69 16m10-27q37 0 57-25t20-66-23-70-60-30-57 25-19 66 23 70 59 30m219 21l-21 0q-32 0-40-10-3-4-3-10t4-9 11-3 11-4 5-11v-121q0-21-5-26t-9-7-11-4-12-4-5-7q0-19 52-19 23 0 29 7t6 36q8-21 27-33t39-12 34 9 13 22-9 21-21 8-21-7-12-17q-6-1-10-1-39 0-39 88v67q0 14 16 15t16 13q0 13-15 16-11 3-30 3m349-106q0-25-9-48t-27-38-40-16q-31 0-57 24v135q29 23 63 23t52-22 18-58m-170 108q-9 0-9-23v-284q0-22-18-24-1 0-4 0t-4-1-3 0-3-1-1-1q-2-2-2-7t8-12q13-11 36-11 25 0 29 3 9 6 9 15v135q36-31 82-31t75 32 28 85q0 33-14 62t-40 47-57 18q-44 0-85-28 0 1-6 9-12 17-21 17m283-29q-34-33-34-88t34-89 87-35q42 0 71 27t28 68q0 20-31 20h-141q0 39 25 67t64 27q25 0 49-15 13-8 16-8t8 3 5 9q0 14-17 25t-38 17-37 5q-55 0-89-33m141-123q0-28-14-45t-42-18-47 20-22 44h57q38 0 68-1m145 150l-21 0q-32 0-40-10-3-4-3-10t5-9 10-3 11-4 5-11v-139q0-15-17-17-13-2-15-5t-3-8 9-11q14-9 36-9t28 7 6 27q34-38 92-38 48 0 68 26t20 79v88q0 14 16 15t15 13q0 13-15 16-11 3-31 3l-21 0q-32 0-39-10-4-4-4-10t5-9 11-3 11-4 5-11v-71q0-45-11-66-12-24-47-24-43 0-58 23-14 21-14 68v70q0 14 15 15t16 13q0 13-15 16-11 3-30 3" />
</svg>