<svg id="fnt-Corinthia" viewBox="0 0 1304 1000" xmlns="http://www.w3.org/2000/svg"><path id="corinthia" class="f" d="M110 688q-36 0-59-15-26-18-26-52 0-28 12-55t33-51 44-45 47-34q68-42 133-42 56 0 56 39 0 34-37 63-36 27-71 27-36 0-36-28 0-20 9-20 3 0 3 5 0 0 0 1t0 3-1 3 0 2q0 19 26 19 26 0 60-25t33-51q0-24-41-24-4 0-9 0t-8 1q-43 4-98 36-22 12-45 30t-41 39-31 46-12 51q0 14 5 27t14 20q16 13 45 13 90 0 176-72 2-2 4-2 3 0 3 0t0 3q0 3-2 5-19 18-41 31t-45 26q-54 26-100 26m204-15q-18 0-18-21 0-28 25-67 0-2-1-5t0-6q0-18 12-35t30-17q15 0 20 11t5 23q0 11-2 21-3 11-8 24t-12 27q7 5 17 5 8 0 16-3t14-8 10-12 3-4q1-1 2-1 2 0 3 2t0 5q-8 12-21 20t-28 9q-11 0-20-5-23 37-47 37m44-49q7-16 10-28t4-21v-4q0-14-5-26t-13-11q-11 0-18 14-4 9-4 21v3q8-10 16-10 7 0 11 5 1 2 1 4 0 3-6 3-9 0-19 19 7 19 23 31m-36 37q6 0 18-12 5-5 9-10t5-8q-17-12-25-26-15 32-15 46 0 10 8 10m178 14q-17 0-24-9t-6-23q0-12 3-25t10-23 9-18q-1 1-3 1t-3 0q-7 0-16-5-9-6-9-12-3 7-8 16t-12 19q-19 29-25 29-2 0-2-2t3-6q10-13 19-30t20-38q0-2-1-5t0-6q0-11 5-26 5-19 13-19 5 0 10 9 1 3 2 6t1 7q0 12-20 37 4 15 17 15 10 0 18-9 8-10 12-10 4 0 8 3t3 9q0 0-6 9t-14 27-12 29-3 21q0 18 17 18 16 0 40-25 8-8 19-21 13-16 13-16 2 0 2 3 0 4-3 8-7 11-16 22t-15 17q-23 23-46 23m116-136q-12 0-12-12 0-6 4-10 5-5 12-5 12 0 12 12 0 6-5 10-5 5-11 5m-29 136q-28 0-28-29 0-14 10-41 5-13 9-22t10-16q3-4 7-4t8 4q3 2 3 6 0 4-2 7-11 17-18 34t-7 31q0 18 13 18 7 0 16-4t18-11q6-6 12-13t14-16q13-16 13-16 3 0 3 4t-4 8q-45 60-77 60m147-5q-29 0-29-36 0-16 5-31t13-28q-18 16-37 38t-38 51q-3 5-4 5-5 0-5-9 0-2 1-4 6-14 11-32t11-41q1-5 2-10t3-13q1-3 7-7 5-4 10-4 4 0 4 3 0 3-6 22t-18 54q3-4 13-15t25-27l31-34q3-4 8-4 11 0 11 12 0 2-2 6-28 46-28 73 0 19 18 19 13 0 30-15 7-5 12-12t12-15q10-14 12-14t1 3-3 8q-34 57-70 57m95-1q-16 0-22-10t-7-26q0-19 7-40t14-34h-3q-18 0-24-3t-5-9q0-4 5-4l32 2q13-25 25-46t22-30q7-7 19-7 11 0 11 4 0 1 0 2l-22 25q-7 9-16 23t-18 30q5 1 10 1t8 0q2 0 5-1t6 0h10q6 0 6 3 0 8-51 9-6 11-11 24t-9 28-3 24q0 23 19 23 16 0 38-19 8-8 14-17t13-16q3-5 5-5t3 3q0 2-1 4t-1 3q-7 8-15 18t-18 20q-24 21-46 21m160 1q-27 0-27-33 0-11 4-26t11-28q-7 6-17 17t-21 23q-19 24-30 41-5 4-13 4-13 0-13-6 0-6 5-21t16-39q16-36 34-70t38-65q60-96 99-96 22 0 22 24 0 32-52 90-11 12-30 30t-47 45q-6 6-19 16t-24 23q-2 2-4 8t-7 16q-8 19-8 24 1 1 1 2 5-7 16-19t23-26q12-12 22-23t17-15q4-3 8-3 10 0 10 10l-12 26q-12 26-12 41 0 18 17 18 14 0 30-15 11-10 23-27l11-15q1-2 3-2t2 2 1 3q-1 3-5 8-17 25-35 41t-37 17m-58-88q17-13 40-35t50-52q58-67 58-96 0-16-11-16-27 0-76 83-17 28-34 58t-27 58m169-43q-12 0-12-12 0-6 4-10 5-5 12-5 12 0 12 12 0 6-5 10-5 5-11 5m-29 136q-28 0-28-29 0-14 10-41 5-13 9-22t10-16q3-4 7-4t8 4q3 2 3 6 0 4-2 7-11 17-18 34t-7 31q0 18 13 18 7 0 16-4t18-11q6-6 12-13t14-16q13-16 13-16 3 0 3 4t-4 8q-45 60-77 60m73-7q-15 0-15-17 0-25 25-62 24-37 48-45 5-2 9-3t8-1q18 0 26 13 1 2 1 3 0 1-3 2-3 0-5 3-12 20-12 59 0 36 15 36 11 0 31-22 3-3 8-11t11-15 8-10q1-2 2-2 2 0 2 4 0 2-3 7-11 17-25 34t-24 21q-9 5-18 5-30 0-30-43 0-4 0-8t1-7q-34 59-60 59m9-15q5 0 13-6t15-17q12-16 23-34t18-39q-1 0-4 0-21 0-42 25-30 37-30 61 0 10 7 10" />
</svg>