<svg id="fnt-Cormorant Unicase" viewBox="0 0 4437 1000" xmlns="http://www.w3.org/2000/svg"><path id="cormorant-unicase" class="f" d="M208 349q24 0 48 4t39 13q5 2 6 4t2 8l5 56q0 2-2 2t-3-1q-11-39-41-57t-74-18q-38 0-66 16t-44 48-16 70q0 47 19 86t52 63 71 23q36 0 63-20t40-61q0-1 2-1 2 0 3 0t1 2l-7 56q-1 6-2 8t-6 4q-45 19-95 19-60 0-100-25t-59-61-19-79q0-46 25-83t68-56 90-20m264 324q-35 0-62-17t-42-44-15-61q0-39 20-67t51-43 64-14q35 0 62 17t41 45 14 57q0 34-18 63t-48 46-67 18m13-11q39 0 62-27t24-76q0-34-12-61t-34-44-54-17q-40 0-62 27t-22 75q0 34 12 62t34 45 52 16m261-1q1 0 1 3t-1 3q-14 0-21-1l-32 0-29 0q-9 1-23 1-1 0-1-3t1-3q16 0 24-3t11-10 3-22v-153q0-15-3-22t-11-10-24-2q-1 0-1-3t1-3l23 0q18 1 29 1 9 0 17 0t13-1q16-2 30-2 32 0 49 13t17 36q0 20-12 38t-33 27-46 11q-16 0-27-2l-1-10q13 3 32 3 31 0 43-14t12-40q0-55-47-55-19 0-25 8t-6 28v152q0 16 3 23t10 9 24 3m149 0q1 0 1 3t-1 3h-59q-9 0-32-31t-56-85l26-11q29 48 49 73t36 37 36 11m329 6q-1 0-1-3t1-3q16 0 24-3t10-10 3-22v-107q0-40-13-59t-41-20q-24 0-45 14t-39 39l-4-6q25-32 50-47t51-14q34 0 52 20t19 58v122q0 16 2 23t11 9 24 3q1 0 1 3t-1 3q-13 0-21-1l-31 0-31 0q-8 1-21 1m-158 0q-1 0-1-3t1-3q17 0 24-3t11-10 3-22v-107q0-40-14-59t-41-20q-23 0-45 13t-39 40l-4-6q26-32 50-46t52-15q33 0 52 20t18 58v122q0 15 3 22t10 10 24 3q2 0 2 3t-2 3q-13 0-20-1l-32 0-31 0q-7 1-21 1m-157 0q-2 0-2-3t2-3q16 0 23-3t10-10 3-22v-153q0-15-3-22t-10-10-25-2q-1 0-1-3t1-3l37 0 22 0q6 0 8 1t1 8v184q0 16 3 23t10 9 25 3q1 0 1 3t-1 3q-14 0-21-1l-32 0-30 0q-8 1-21 1m562 6q-35 0-62-17t-42-44-15-61q0-39 20-67t51-43 64-14q35 0 62 17t41 45 14 57q0 34-18 63t-48 46-67 18m13-11q39 0 62-27t24-76q0-34-12-61t-34-44-54-17q-40 0-62 27t-22 75q0 34 12 62t34 45 52 16m261-1q1 0 1 3t-1 3q-14 0-21-1l-32 0-29 0q-9 1-23 1-1 0-1-3t1-3q16 0 24-3t11-10 3-22v-153q0-15-3-22t-11-10-24-2q-1 0-1-3t1-3l23 0q18 1 29 1 9 0 17 0t13-1q16-2 30-2 32 0 49 13t17 36q0 20-12 38t-33 27-46 11q-16 0-27-2l-1-10q13 3 32 3 31 0 43-14t12-40q0-55-47-55-19 0-25 8t-6 28v152q0 16 3 23t10 9 24 3m149 0q1 0 1 3t-1 3h-59q-9 0-32-31t-56-85l26-11q29 48 49 73t36 37 36 11m181 9q-2 1-4 1-9 0-17-13t-8-33v-127q0-30-9-44t-28-14q-23 0-34 14t-16 37q-3 9-7 14t-13 5q-8 0-13-5t-5-11q0-13 18-28t43-27 46-11q22 0 35 14t13 41v125q0 38 24 38 10 0 25-7h1q2 0 2 2t-1 4l-52 25m-113 0q-17 0-29-10t-12-24q0-19 12-31t47-24l71-26 1 6-62 24q-18 7-26 16t-7 22q0 12 8 20t19 9q12 0 27-7l45-23 1 6-44 25q-18 9-29 13t-22 4m251-45q0 15 2 22t11 11 23 3q1 0 1 3t-1 3q-14 0-22-1l-30 0-30 0q-8 1-22 1-1 0-1-3t1-3q16 0 24-3t11-10 3-22v-153q0-15-3-22t-10-10-23-2q-2 0-2-3t2-3l32 0 25 0q6 0 7 1t2 8v183m-17-134q28-34 55-49t57-15q37 0 60 20t22 62v117q0 15 2 22t9 10 20 3q1 0 1 3t-1 3q-13 0-20-1l-26 0-32 0q-7 1-20 1-1 0-1-3t1-3q16 0 24-3t10-11 3-22v-99q0-48-17-67t-48-19q-25 0-47 12t-47 43l-5-4m342 182q-28 0-47-16t-19-53v-131q0-13-2-18t-7-7-17-2q-1 0-1-3t1-3q20 0 34-11t15-27q0-1 3-1 2 0 3 10t1 55 0 122q0 35 14 51t41 17q26 0 46-13l1-1q2 0 3 2t-1 4q-20 13-36 19t-32 6m53-214q-43-11-97-11v-9q35 0 99-5 1 0 2 3t1 8q0 5-2 10t-3 4m426-50q0-49-44-49-1 0-1-3t1-3l22 1q18 1 28 1 9 0 25-1l21-1q1 0 1 3t-1 3q-40 0-40 49v142q0 58-32 90t-86 32q-37 0-65-14t-43-42-15-62v-160q0-15-3-22t-12-10-28-3q-1 0-1-3t1-3l25 1q21 1 34 1 13 0 35-1l23-1q2 0 2 3t-2 3q-18 0-27 3t-12 10-3 23v141q0 59 27 90t75 31q45 0 70-28t25-78v-143m148 216q0 15 2 22t11 11 23 3q1 0 1 3t-1 3q-14 0-22-1l-30 0-30 0q-8 1-22 1-1 0-1-3t1-3q16 0 24-3t11-10 3-22v-153q0-15-3-22t-10-10-23-2q-2 0-2-3t2-3l32 0 25 0q6 0 7 1t2 8v183m-17-134q28-34 55-49t57-15q37 0 60 20t22 62v117q0 15 2 22t9 10 20 3q1 0 1 3t-1 3q-13 0-20-1l-26 0-32 0q-7 1-20 1-1 0-1-3t1-3q16 0 24-3t10-11 3-22v-99q0-48-17-67t-48-19q-25 0-47 12t-47 43l-5-4m319 135q0 16 3 23t10 9 25 3q1 0 1 3t-1 3q-14 0-22-1l-32 0-29 0q-9 1-23 1-1 0-1-3t1-3q17 0 24-3t10-9 3-23v-153q0-15-3-22t-10-10-24-2q-1 0-1-3t1-3l23 0q18 1 29 1 13 0 32-1l22 0q1 0 1 3t-1 3q-16 0-24 3t-11 10-3 22v152m213-199q19 0 41 3t35 11q4 2 5 3t1 6l5 51q0 2-3 2t-3-1q-9-35-33-51t-58-17q-26 0-47 14t-33 38-12 55q0 31 12 60t36 47 57 18q31 0 52-17t31-52q0-2 2-2 1 0 2 1t2 1l-7 53q0 4-1 6t-6 3q-38 14-80 14-47 0-78-19t-44-48-13-57q0-34 18-62t49-44 70-16m300 243q-2 1-4 1-9 0-17-13t-8-33v-127q0-30-9-44t-28-14q-23 0-34 14t-16 37q-3 9-7 14t-13 5q-8 0-13-5t-5-11q0-13 18-28t43-27 46-11q22 0 35 14t13 41v125q0 38 24 38 10 0 25-7h1q2 0 2 2t-1 4l-52 25m-113 0q-17 0-29-10t-12-24q0-19 12-31t47-24l71-26 1 6-62 24q-18 7-26 16t-7 22q0 12 8 20t19 9q12 0 27-7l45-23 1 6-44 25q-18 9-29 13t-22 4m224-197q0 22 15 35t43 28q21 10 33 19t21 21 8 30q0 18-10 33t-29 25-45 9q-35 0-60-18-2-1-3-3t-1-6l-5-50q-1-2 2-2t4 1q7 29 27 49t47 21q17 0 30-11t13-31q0-23-15-38t-44-29q-20-11-32-20t-19-20-8-29q0-28 22-44t53-16q26 0 50 11 5 3 6 4t2 5l3 43q0 2-3 3t-3-2q-3-12-12-26t-22-22-30-9q-18 0-28 11t-10 28m267 200q-35 0-61-17t-38-44-12-58q0-34 16-64t44-46 60-17q34 0 51 19t17 50q0 5-2 7t-4 2h-30q1-4 1-11 0-27-12-42t-36-15q-21 0-37 12t-26 35-9 53q0 34 11 61t34 43 51 15q15 0 30-4t26-12h1q1 0 2 1t1 4q-36 28-78 28m-88-167l-1-7 140-3v9l-139 1" />
</svg>