<svg id="fnt-Cormorant SC" viewBox="0 0 3278 1000" xmlns="http://www.w3.org/2000/svg"><path id="cormorant-sc" class="f" d="M208 349q24 0 48 4t39 13q5 2 6 4t2 8l5 56q0 2-2 2t-3-1q-11-39-41-57t-74-18q-38 0-66 16t-44 48-16 70q0 47 19 86t52 63 71 23q36 0 63-20t40-61q0-1 2-1 2 0 3 0t1 2l-7 56q-1 6-2 8t-6 4q-45 19-95 19-60 0-100-25t-59-61-19-79q0-46 25-83t68-56 90-20m264 324q-35 0-62-17t-42-44-15-61q0-39 20-67t51-43 64-14q35 0 62 17t41 45 14 57q0 34-18 63t-48 46-67 18m13-11q39 0 62-27t24-76q0-34-12-61t-34-44-54-17q-40 0-62 27t-22 75q0 34 12 62t34 45 52 16m261-1q1 0 1 3t-1 3q-14 0-21-1l-32 0-29 0q-9 1-23 1-1 0-1-3t1-3q16 0 24-3t11-10 3-22v-153q0-15-3-22t-11-10-24-2q-1 0-1-3t1-3l23 0q18 1 29 1 9 0 17 0t13-1q16-2 30-2 32 0 49 13t17 36q0 20-12 38t-33 27-46 11q-16 0-27-2l-1-10q13 3 32 3 31 0 43-14t12-40q0-55-47-55-19 0-25 8t-6 28v152q0 16 3 23t10 9 24 3m149 0q1 0 1 3t-1 3h-59q-9 0-32-31t-56-85l26-11q29 48 49 73t36 37 36 11m46-49l6-168 10 1-6 167q0 27 7 38t26 11q1 0 1 3t-1 3q-11 0-16-1l-22 0-21 0q-7 1-18 1-1 0-1-3t1-3q18 0 26-11t8-38m278 49q1 0 1 3t-1 3q-14 0-22-1l-29 0-34 0q-9 1-24 1-1 0-1-3t1-3q19 0 28-3t12-10 2-22l-7-183 9-4-94 224q-1 2-4 2-3 0-4-2l-95-189q-18-35-46-35-2 0-2-3t2-3l27 0 24 0q7 0 11 4t12 22l85 168-14 22 85-204q2-5 6-9t9-3l27 0 33 0q1 0 1 3t-1 3q-22 0-31 6t-8 27l6 154q1 16 3 23t10 9 23 3m152 12q-35 0-62-17t-42-44-15-61q0-39 20-67t51-43 64-14q35 0 62 17t41 45 14 57q0 34-18 63t-48 46-67 18m13-11q39 0 62-27t24-76q0-34-12-61t-34-44-54-17q-40 0-62 27t-22 75q0 34 12 62t34 45 52 16m261-1q1 0 1 3t-1 3q-14 0-21-1l-32 0-29 0q-9 1-23 1-1 0-1-3t1-3q16 0 24-3t11-10 3-22v-153q0-15-3-22t-11-10-24-2q-1 0-1-3t1-3l23 0q18 1 29 1 9 0 17 0t13-1q16-2 30-2 32 0 49 13t17 36q0 20-12 38t-33 27-46 11q-16 0-27-2l-1-10q13 3 32 3 31 0 43-14t12-40q0-55-47-55-19 0-25 8t-6 28v152q0 16 3 23t10 9 24 3m149 0q1 0 1 3t-1 3h-59q-9 0-32-31t-56-85l26-11q29 48 49 73t36 37 36 11m81-109l8-9h91l4 9h-103m192 109q2 0 2 3t-2 3q-9 0-29-1t-29-1q-8 0-21 1t-20 1q-2 0-2-3t2-3q13 0 19-4t7-11q0-7-7-21l-76-164 13-11-62 155q-8 19-8 32 0 13 9 18t27 6q3 0 3 3t-3 3q-7 0-20-1-14-1-26-1-13 0-30 1-15 1-24 1-2 0-2-3t2-3q16 0 25-5t16-16 19-39l72-176q1-2 3-2t3 2l80 173q13 28 21 41t16 17 22 5m50-49v-168l10 1v167q0 27 8 38t26 11q1 0 1 3t-1 3q-11 0-17-1l-21 0-22 0q-6 1-18 1-1 0-1-3t1-3q19 0 26-11t8-38m187 60q0 1-3 2t-3-1l-164-199q-16-19-28-27t-23-8q-1 0-1-3t1-3l28 0 27 0q3 0 5 2t7 8q4 7 11 16l138 169 5 44m0-185v185l-10-15v-170q0-26-8-37t-25-11q-2 0-2-3t2-3l17 0q13 1 21 1t22-1l17 0q2 0 2 3t-2 3q-18 0-26 11t-8 37m124-48q-19 0-30 5t-17 18-10 36q0 1-3 1t-2-1q1-12 3-37t2-39q0-3 3-3t3 3q0 6 8 8t18 2q44 1 76 1l43-1q9 0 24 0 18 0 26-3t11-9q1-2 4-2t2 2q-3 54-3 78 0 1-3 1t-2-1q-1-23-6-35t-15-18-31-6q-21 0-29 7t-7 27v153q0 16 3 23t12 9 28 3q2 0 2 3t-2 3q-15 0-24-1l-35 0-33 0q-9 1-25 1-1 0-1-3t1-3q19 0 28-3t12-10 3-22v-154q0-14-2-21t-9-9-23-3m363-26q0 19 9 34t23 24 38 25q26 15 41 26t24 26 11 39q0 24-12 44t-36 30-55 12q-39 0-71-18-2-1-3-3t-1-6l-7-68q0-2 2-3t4 2q7 35 29 61t58 27q25 0 42-14t18-44q0-22-10-39t-25-27-38-25q-24-15-38-25t-23-27-10-37q0-25 13-43t35-27 45-8q30 0 59 12 7 2 7 8l4 57q0 3-3 3t-3-2q-4-26-21-49t-51-22q-28 0-42 16t-13 41m380-64q24 0 49 4t39 13q4 2 5 4t2 8l6 56q0 2-3 2t-3-1q-11-39-41-57t-73-18q-38 0-67 16t-44 48-15 70q0 47 19 86t52 63 71 23q36 0 62-20t41-61q0-1 2-1 1 0 2 0t2 2l-7 56q-1 6-3 8t-5 4q-45 19-95 19-60 0-101-25t-59-61-19-79q0-46 26-83t67-56 90-20" />
</svg>