<svg id="fnt-Cormorant" viewBox="0 0 2179 1000" xmlns="http://www.w3.org/2000/svg"><path id="cormorant" class="f" d="M208 349q23 0 47 4t40 13q5 3 6 5t2 7l5 56q0 1-2 2t-3-1q-12-41-42-58t-73-17q-38 0-67 16t-43 47-16 71q0 36 11 67t31 55 45 36 55 14q35 0 62-20t41-61q1-2 3-1t3 2l-7 56q-1 6-2 8t-6 4q-24 10-47 14t-48 5q-47 0-81-15t-56-39-31-54-10-57q0-36 15-65t41-50 58-33 69-11m242 324q-29 0-51-14t-34-39-12-52q0-26 9-45t26-32 34-18 37-6q31 0 52 15t34 39 11 49q0 32-14 55t-39 36-53 12m15-9q26 0 42-19t15-61q0-31-10-56t-28-38-41-13q-27 0-42 19t-15 56q0 31 10 56t28 41 41 15m181-133l-2-5q18-23 30-35t21-17 17-5q10 0 20 6t11 15q0 6-5 11t-12 4q-6 0-11-4t-9-7-13-4q-5 0-10 3t-13 11-24 27m-49 136q-2 0-2-3t2-3q19 0 25-7t6-28v-99q0-16-4-24t-14-8q-5 0-12 2t-15 6q-2 0-3-2t1-4l58-27q1-1 3-1 3 0 9 11t5 30v116q0 14 4 22t14 10 31 3q2 0 2 3t-2 3q-12 0-29-1t-34 0q-13 0-25 0t-20 1m439 0q-1 0-1-3t1-3q20 0 26-7t6-28v-79q0-59-43-59-18 0-36 12t-31 32l-2-6q21-30 42-44t43-13q26 0 40 14t15 46v97q0 21 5 28t26 7q2 0 2 3t-2 3q-8 0-20-1t-25 0-25 0-21 1m-129 0q-1 0-1-3t1-3q20 0 25-7t6-28v-79q0-59-42-59-18 0-36 12t-31 32l-2-6q21-30 42-44t43-13q26 0 40 14t15 45v98q0 21 5 28t26 7q2 0 2 3t-2 3q-9 0-21-1t-24 0-25 0-21 1m-128 0q-2 0-2-3t2-3q19 0 25-7t6-28v-99q0-16-4-24t-14-8q-5 0-12 2t-15 6q-2 0-3-2t1-4l58-27q1-1 3-1 3 0 9 11t5 30v116q0 21 6 28t25 7q2 0 2 3t-2 3q-8 0-20-1t-25 0-25 0-20 1m474 6q-29 0-51-14t-34-39-12-52q0-26 9-45t26-32 34-18 37-6q31 0 52 15t34 39 11 49q0 32-14 55t-39 36-53 12m15-9q26 0 42-19t15-61q0-31-10-56t-28-38-41-13q-27 0-42 19t-15 56q0 31 10 56t28 41 41 15m181-133l-2-5q18-23 30-35t21-17 17-5q10 0 20 6t11 15q0 6-5 11t-12 4q-6 0-11-4t-9-7-13-4q-5 0-10 3t-13 11-24 27m-49 136q-2 0-2-3t2-3q19 0 25-7t6-28v-99q0-16-4-24t-14-8q-5 0-12 2t-15 6q-2 0-3-2t1-4l58-27q1-1 3-1 3 0 9 11t5 30v116q0 14 4 22t14 10 31 3q2 0 2 3t-2 3q-12 0-29-1t-34 0q-13 0-25 0t-20 1m359-22l-51 25q-2 1-4 1-7 0-13-11t-6-31v-90q0-23-4-36t-12-18-16-5q-12 0-20 6t-12 16-6 19q0 7-4 13t-14 6q-8 0-13-4t-4-11q0-9 9-19t22-18 29-14 29-5q19 0 32 13t12 42v89q0 17 5 25t14 8q9 0 25-6 3-1 4 1t-2 4m-149 25q-16 0-24-9t-8-20q0-14 11-22t36-17l65-23 2 5-58 22q-12 5-17 10t-4 14q0 11 6 16t15 6q6 0 11-1t10-4l42-21 1 6-43 23q-15 8-25 11t-20 4m307-3q-1 0-1-3t1-3q20 0 25-7t6-28v-81q0-30-11-44t-35-13q-18 0-37 11t-32 32l-2-6q22-30 43-44t45-14q27 0 42 15t16 46v98q0 21 5 28t26 7q1 0 1 3t-1 3q-9 0-21-1t-24 0-25 0-21 1m-134 0q-2 0-2-3t2-3q19 0 25-7t6-28v-99q0-16-4-24t-14-8q-5 0-12 2t-15 6q-2 0-3-2t1-4l58-27q1-1 3-1 3 0 9 11t5 30v116q0 21 6 28t25 7q2 0 2 3t-2 3q-8 0-20-1t-25 0-25 0-20 1m330 6q-12 0-23-4t-18-13-7-24v-118q0-12-2-18t-7-8-17-1q-2 0-2-4t2-3q20 0 33-11t14-27q0-1 4-1t4 1v173q0 20 10 30t29 10q13 0 23-4t17-10q2-1 4 1t0 4q-19 14-34 20t-30 7m48-175q-19-5-37-6t-39-2v-11q20 0 39-1t39-4q1 0 2 4t2 8q0 4-2 8t-4 4" />
</svg>