<svg id="fnt-Courier Prime" viewBox="0 0 3866 1000" xmlns="http://www.w3.org/2000/svg"><path id="courier-prime" class="f" d="M244 371q10 0 14 4t4 12v81q0 8-4 12t-14 4-14-4-4-12q0-17-8-30t-23-22-38-8q-26 0-47 14t-31 39-12 61 11 60 31 40 46 14q24 0 46-7t39-21q5-3 10-3 7 0 12 9 5 8 5 13 0 8-8 13-22 16-49 24t-55 8q-38 0-67-19t-44-52-15-79q0-45 16-79t44-53 66-19q23 0 41 8t30 23v-15q0-8 4-12t14-4m206 65q33 0 60 15t42 42 15 61-15 61-42 42-60 15-61-15-42-42-15-61 15-61 42-42 61-15m0 36q-24 0-42 10t-28 29-9 43 9 42 28 30 42 10 41-10 28-30 10-42-10-43-28-29-41-10m378-31q8 0 12 4t4 13v175h20q8 0 11 4t4 13-4 13-11 4h-39q-9 0-12-4t-4-13v-29q-16 25-37 38t-47 13q-22 0-38-10t-26-27-8-43v-118h-20q-9 0-12-4t-4-12 4-13 12-4h41q8 0 12 4t3 13v131q0 21 10 34t30 13q21 0 38-12t29-33 11-47v-70h-35q-8 0-12-4t-3-12 3-13 12-4h56m296-5q19 0 36 9 9 6 9 16 0 4-2 10-5 14-14 14-4 0-7-2-12-7-25-7-22 0-45 15t-36 41-14 54v47h82q8 0 12 4t3 13-3 13-12 4h-157q-9 0-12-4t-4-13 4-13 12-4h38v-159h-31q-8 0-12-4t-3-12 3-13 12-4h50q8 0 12 4t3 13v49q12-22 29-38t35-25 37-8m234 5q8 0 12 4t3 13v175h79q8 0 12 4t3 13-3 13-12 4h-192q-8 0-12-4t-3-13 3-13 12-4h77v-159h-62q-8 0-12-4t-3-12 3-13 12-4h83m-8-107q14 0 18 3t5 13v31q0 9-5 13t-18 3-18-3-5-13v-31q0-9 5-13t18-3m301 102q36 0 61 14t38 40 15 58q0 8-3 11t-12 4h-177q2 36 22 55t56 19q23 0 45-6t38-15q4-3 8-3 8 0 14 13 2 5 2 10 0 9-11 15-19 9-44 15t-52 6q-37 0-63-14t-40-41-13-63q0-35 15-62t41-42 60-14m0 35q-30 0-50 15t-25 43h149q-5-28-24-43t-50-15m372-35q19 0 36 9 10 6 10 16 0 4-2 10-5 14-15 14-3 0-6-2-12-7-26-7-22 0-44 15t-37 41-14 54v47h82q9 0 12 4t4 13-4 13-12 4h-157q-8 0-12-4t-3-13 3-13 12-4h38v-159h-31q-8 0-11-4t-4-12 4-13 11-4h50q9 0 12 4t4 13v49q11-22 28-38t35-25 37-8m544-59q32 0 56 11t35 33 12 48-12 49-35 32-56 11h-57v72h58q8 0 12 4t3 13-3 13-12 4h-135q-8 0-11-4t-4-13 4-13 11-4h40v-223h-40q-8 0-11-4t-4-13 4-12 11-4h134m-57 33v118h52q34 0 52-16t17-43q0-28-18-43t-51-16h-52m413 26q19 0 35 9 10 6 10 16 0 4-2 10-5 14-14 14-4 0-7-2-12-7-26-7-22 0-44 15t-36 41-15 54v47h83q8 0 12 4t3 13-3 13-12 4h-157q-9 0-12-4t-4-13 4-13 12-4h38v-159h-31q-8 0-12-4t-4-12 4-13 12-4h50q8 0 11 4t4 13v49q12-22 28-38t36-25 37-8m234 5q8 0 12 4t3 13v175h78q9 0 12 4t4 13-4 13-12 4h-191q-8 0-12-4t-3-13 3-13 12-4h76v-159h-61q-9 0-12-4t-4-12 4-13 12-4h83m-8-107q13 0 18 3t5 13v31q0 9-5 13t-18 3-18-3-5-13v-31q0-9 5-13t18-3m440 299q8 0 11 4t4 13-4 13-11 4h-37q-8 0-12-4t-3-13v-144q0-17-6-26t-17-8q-12 0-22 10t-15 30-6 43v78h14q8 0 12 4t3 13-3 13-12 4h-35q-8 0-12-4t-3-13v-144q0-17-6-26t-18-8q-11 0-21 10t-15 30-6 43v78h13q8 0 11 4t4 13-4 13-11 4h-70q-8 0-12-4t-3-13 3-13 12-4h20v-159h-20q-8 0-12-4t-3-12 3-13 12-4h37q8 0 11 4t4 13v24q11-23 25-35t32-11q17 0 29 11t17 33q22-44 56-44 14 0 26 7t18 22 6 36v132h16m161-197q35 0 60 14t39 40 15 58q0 8-4 11t-11 4h-177q2 36 21 55t57 19q22 0 44-6t39-15q4-3 7-3 9 0 14 13 2 5 2 10 0 9-10 15-19 9-45 15t-51 6q-37 0-63-14t-40-41-14-63q0-35 15-62t41-42 61-14m0 35q-30 0-50 15t-26 43h149q-5-28-23-43t-50-15" />
</svg>