<svg id="fnt-Courgette" viewBox="0 0 2091 1000" xmlns="http://www.w3.org/2000/svg"><path id="courgette" class="f" d="M24 564l0-7q3-73 37-138 32-59 79-96 48-36 93-36 34 0 54 24 16 20 16 50 0 36-26 70-15 20-32 29-8 5-15 5t-13-3-10-8q-9-9-9-17t4-10q40-29 54-60 6-11 6-23 0-23-22-23-36 0-73 38-35 35-59 89-24 55-26 101l0 9q0 55 23 72 9 6 20 6t22-3 20-8q17-8 43-29 8-6 13 1 4 7 4 15 0 14-3 19t-13 12-23 12q-31 14-60 14t-48-7-30-21q-26-28-26-77m283 86q-10-10-16-25t-6-35 5-42 15-40 23-37 30-30q35-27 74-27 50 0 68 44 12 32 1 78-10 41-37 76-27 35-64 50-19 7-37 7t-32-5-24-14m47-118q-8 18-12 37t-4 36 5 26 16 10 22-8 22-20 19-29 16-35q15-39 14-70 0-27-11-34-4-3-12-3t-18 7-21 20-20 28-16 35m415 87q6 0 6 5 0 21-21 36-14 9-33 9-16 0-24-7-15-13-15-32 0-25 20-74-37 50-53 67t-26 26q-24 20-44 20-30 0-40-26-3-8-3-18t3-24 9-26 13-29l13-29q25-57 19-67-3-5-11-9-3-2-3-6t3-9 9-6q12-6 24-6t18 3 11 6q8 8 8 18t-4 22-8 26-11 29q-17 40-23 52l-9 19q-7 17-7 24t2 10 8 2 13-5 17-14 18-21 19-25q19-25 27-40 52-91 56-96 7-10 16-10t14 2 10 5q11 8 7 15-60 124-64 156-2 11-2 16 0 18 12 18 10 0 17-4t9-3m50 42q-5-4-8-8t-3-8 1-8 4-12q50-122 50-164 0-12-8-17l-5-3q-2-2-2-6t3-9 8-6q11-6 22-6t17 2 11 7q9 9 9 19t-2 19-5 20-7 18-4 13q-2 9-1 11 6-5 7-10l9-18q32-57 62-76 9-5 21-5t20 9 8 19-1 17-6 13q-8 14-19 14-3 0-6-2l-5-5q-9-7-16-7t-18 10-22 25q-39 51-63 114l-11 29q-4 10-7 15t-10 4-12-2-11-6m346-48q-37 56-82 56-41 0-55-43-5-15-5-37t6-44 17-41 25-36 32-28q34-26 68-26t49 32q3-3 6-7t5-6q6-6 11-6t10 2 10 4q12 7 9 13-13 29-22 58l-36 115q-43 131-109 169-17 10-30 12t-18 0-10-4q-10-6-10-11 0-8 12-10t24-10 23-17q46-43 70-135m-73-84q-7 17-10 36t-4 30 1 18 3 10q5 11 14 11t19-7 20-18 20-28 20-34q20-41 28-78-1-6-8-14-14-13-25-13t-23 7-21 19-19 27-15 34m194 52q1-21 7-40t17-38 24-34 30-29q35-26 70-26 42 0 56 34 5 12 5 28t-6 30-17 24-24 20-31 15q-35 12-75 13-1 3-1 10t2 15 5 15q9 15 26 15 28 0 55-17 9-5 15-11t11-6 8 5 3 12q0 13-8 22-30 31-91 31-36 0-58-21-24-25-23-67m143-135q-26 0-49 36-20 30-33 71 41-4 71-32 28-26 28-50t-17-25m222 157q7 0 7 9 0 8-5 16-7 14-26 27-23 14-45 14-40 0-50-35-13-42 37-177-28-3-30-10-1-2-1-5t2-6 6-6q9-7 17-7h20q26-62 37-71 6-3 12-3t11 1 8 5q8 7 8 16 0 5-3 12l-18 39h6q15 0 24 0 0 0 14 0 5-1 12-1t7 5q0 33-76 33h-2l-17 43q-28 76-28 106 0 9 4 14t14 4 20-3 15-8 12-9 8-3m179 0q7 0 7 9 0 8-4 16-7 14-27 27-22 14-45 14-39 0-50-35-12-42 38-177-29-3-31-10-1-2-1-5t3-6 6-6q8-7 17-7h19q27-62 38-71 5-3 12-3t11 1 8 5q7 7 7 16 0 5-3 12l-18 39h6q15 0 25 0 0 0 14 0 4-1 11-1t7 5q0 33-76 33h-2l-17 43q-28 76-28 106 0 9 4 14t15 4 19-3 16-8 11-9 8-3m51-22q1-21 7-40t17-38 24-34 29-29q35-26 71-26 42 0 56 34 5 12 4 28t-6 30-16 24-25 20-31 15q-34 12-74 13-1 3-1 10t1 15 6 15q9 15 26 15 28 0 55-17 9-5 15-11t11-6 7 5 4 12q0 13-8 22-31 31-91 31-36 0-58-21-24-25-23-67m143-135q-26 0-50 36-20 30-32 71 41-4 71-32 28-26 28-50t-17-25" />
</svg>