<svg id="fnt-Coustard" viewBox="0 0 2211 1000" xmlns="http://www.w3.org/2000/svg"><path id="coustard" class="f" d="M303 424h-20q-2 0-5-5t-8-11-11-16-14-17-16-16-21-11-25-5q-23 0-42 8t-33 22-23 33-14 38-5 42q0 21 6 40t17 37 27 31 39 20 49 8q57 0 105-36 9 13 9 25 0 18-19 32t-46 23-56 7q-37 0-69-10t-54-29-37-41-23-51-7-55q0-38 13-73t34-60 54-41 70-15q24 0 49 10t40 32q0-37 9-37h27q12 0 12 25v65q0 14-1 21t-4 8-7 2m43 172q-12-27-12-60t12-60 31-43 44-25 51-9q26 0 50 9t44 25 31 43 11 60-11 60-31 43-44 25-50 9q-27 0-51-9t-44-25-31-43m69-130q-23 25-23 70t23 70 56 25q16 0 30-6t25-17 18-30 7-42-7-41-18-30-25-18-30-6q-32 0-56 25m475-45v179q0 6 0 9t2 6 3 4 7 2 12 1q11 0 14 3t3 11q0 12-3 21t-5 12q-18-2-33-2-10 0-21 1t-13 1q-10 0-12-6t-2-32q-17 20-41 31t-49 11q-18 0-34-6t-28-17-20-32-8-45v-98q0-23-12-24-2 0-5-1t-6 0-5-1-5 0-4-1-3-2-3-2-1-2-1-3q0-28 8-36 23 3 42 3 14 0 28-1t14-2q9 0 9 18v155q0 27 14 40t35 14q19 0 37-10t31-27v-118q0-23-12-24-2 0-6-1t-6 0-5-1-4 0-4-1-4-2-2-2-2-2 0-3q0-28 8-36 23 3 42 3 16 0 33-1t17-2q0 0 0 18m280 181q0 25-15 41t-40 23-58 7q-52 0-81-15t-29-45q0-35 42-35 7 0 9 2t2 11v33q10 5 27 7t36 3q21 0 36-9t14-24q0-11-8-20t-18-14-26-11-30-10-30-12-27-15-18-22-7-30q0-22 16-38t39-23 50-7q110 0 110 64 0 4-2 8t-5 10-13 10-21 4q-3 0-4-1t-3-1-1-2-1-2-1-4 0-3l-3-34q-4-4-21-8t-31-4q-25 0-37 9t-12 24q0 10 9 18t23 13 31 11 34 13 32 17 23 25 9 36m188 16q7 14 7 26 0 7-6 12t-15 7-19 4-19 2q-13 0-25-4t-22-13-17-26-6-40v-142h-11q-28 0-31 0-8-3-8-19 0-19 12-19h38q1-8 2-20t1-20 3-17 4-16 7-12 12-8 16-2q7 0 10 2v93h33q29 0 30-1 12 0 12 21 0 16-8 19-8-1-31-1h-36v140q0 41 27 41 17 0 40-7m208 15q-18 19-45 30t-56 10q-35 0-57-18t-23-54q0-38 36-57 28-14 94-25 13-2 41-6 0-42-11-58t-40-15q-22 0-48 10t-43 27q-20-17-20-33 0-13 19-24t44-16 52-5q24 0 42 6t32 20 21 38 7 58v78q0 10 2 15t3 6 7 1q7 1 11 2t9 2 7 3 2 5q0 29-8 36-12-2-31-2-17 0-32 1-1-1-4-3t-7-11-4-21m-89-3q22 0 48-13t31-22v-43q-67 12-90 21t-23 27q0 30 34 30m281-203v16q11-17 33-31t41-13q13 0 25 5t20 15 9 27q0 43-46 43-1 0-2 0t-2-1-1-1-1-1 0-2-1-2 0-3 0-3-1-3l-3-25q-6-3-14-3-14 0-29 10t-21 24v124q0 3 1 5t1 5 5 4 9 2q9 0 16 2t6 9q0 12-3 23t-12 16q-17-2-50-2t-50 2q-9-4-12-15t-4-24q0-6 7-9t16-2q9 0 12-4t3-12v-128q0-13-7-19t-29-6q-3-1-4-3t-1-11q0-12 3-22t5-11q17 3 34 3 10 0 22-1t12-2q8 0 11 5t2 19m356 126v-63q-13-24-35-36t-44-13q-31 0-52 24t-22 72q0 44 23 70t55 25q13 0 27-5t24-15 17-25 7-34m55-215v267q0 4 0 6t3 5 5 4 9 2q23 1 23 10 0 29-8 37-13-2-29-2-22 0-43 2-15-7-15-34v-3q-14 20-38 31t-50 10q-23 0-45-9t-38-25-28-43-11-59 11-60 29-43 42-25 47-9h1q49 0 80 35v-64q0-12-8-18t-29-6q-3-1-4-3t0-11q0-12 2-22t6-11q20 3 38 3 11 0 24-1t13-2q8 0 11 4t2 20q0 2 0 6t0 8" />
</svg>