<svg id="fnt-Covered By Your Grace" viewBox="0 0 4115 1000" xmlns="http://www.w3.org/2000/svg"><path id="covered-by-your-grace" class="f" d="M11 604v-12q6-49 10-75t4-39q2-15 2-17 5-16 10-33t13-33 20-25 33-10q9 0 16 1t13 4 13 7 13 10q5 4 5 5t1 6q0 7-4 12t-13 6q-7 0-11-3t-9-7-9-8-12-3q-7 0-13 4t-10 11-7 14-3 15l-23 156q0 1 0 5t0 5q0 4 0 9t1 10 3 9 8 3q2 0 5-1 23-16 40-37t32-44q1-1 3-5t4-7 4-9 3-6q3-6 5-13t3-13 7-9 14-4q6 0 13 6t6 14v1q-12 35-31 65t-43 59q-15 17-34 28t-42 11h-3q-22-9-29-25t-8-38m212-11v-1l18-126q1-6 6-9t10-3q11 0 17 6t11 15h1q6 0 10-2t12-2q15 0 26 10t18 23 10 30 3 29q0 14-7 32t-20 35-28 26-32 11q-15 0-25-7t-17-17-10-24-3-26m41 0v2q1 5 2 11t3 12 6 7 10 1q7-6 14-14t14-15 11-18 4-19q2-17-2-31t-13-20-18-1-21 25q-5 13-8 29t-2 31m174 6v-2l-54-131q-1 0-1-1v-1q0-5 3-8t7-6q1 0 3 0t4 0q10 0 14 3t11 8q2 7 5 15t8 20 12 30 18 45l3 3q1-3 2-6t5-14 9-28 16-51q4-6 6-14t3-16 6-12 13-5q9 0 16 6t8 16q0 5-3 10t-6 8l-59 199h-3q-2 0-6-1t-7-2-7-2-4-4l-22-59m342-71q-1 9-2 14t-4 8-8 8-15 12-23 20-33 32q-8 7-16 15t-18 14-18 10-21 4q-21 0-31-14t-9-33q0-12 0-21t4-21q-5-5-9-9t-4-10q0-6 2-8t7-2 7-2 5-4q1-3 3-11t6-16 6-16 3-11q4-8 8-16t10-16 13-11 18-4q6 0 14 5t16 13 14 16 5 14q0 7-3 13t-9 12-11 9-11 8q0 0-2 1t-2 2q-1 0-2 2t-4 4-4 4-2 2q-1 2-5 5t-9 7-10 6-5 5l-2 3q-1 2-2 9t-2 15-1 17-1 14q0 0 1 1 1 1 1 1 4 0 7-4t8-5l78-72 20-31q2-3 9-7t15-5 13 5 5 19m-139-17l32-21q2-2 2-6t-3-7-5-3-7 3q-1 2-5 8t-7 12-6 10-1 4m174 135q-1-18-3-47t-5-62-5-60-5-44q0-6 6-8t11-2q7 0 14 4t10 11q0 2 0 7t1 10 1 11 0 7q0 3 0 4t0 3 1 3 1 4q1-1 2-2t2-2q8-11 15-20t15-16 18-16 22-20q3-2 4-3t3-2 3-1 4-1q8 0 17 6t8 15q0 4-2 8t-6 6-7 6-7 3q-13 12-27 26t-26 31-20 35-8 36q0 16 2 33t3 32v17q-4 4-7 7t-8 2q-9 0-16-7t-11-14m357-118q-1 9-2 14t-4 8-9 8-14 12-23 20-34 32q-7 7-16 15t-17 14-19 10-20 4q-21 0-31-14t-10-33q0-12 1-21t4-21q-6-5-10-9t-4-10q0-6 3-8t6-2 7-2 5-4q1-3 4-11t6-16 5-16 4-11q3-8 7-16t10-16 13-11 18-4q6 0 15 5t16 13 13 16 6 14q0 7-4 13t-8 12-11 9-11 8q-1 0-2 1t-3 2q0 0-2 2t-3 4-4 4-2 2q-2 2-6 5t-9 7-9 6-6 5l-1 3q-1 2-2 9t-2 15-2 17 0 14q0 0 0 1 1 1 2 1 4 0 7-4t7-5l78-72 20-31q3-3 10-7t14-5 13 5 6 19m-140-17l32-21q3-2 2-6t-2-7-6-3-6 3q-2 2-5 8t-8 12-6 10-1 4m276 79q-1 0-7 10t-16 24-25 23-29 11q-22 0-36-13t-14-36q-1-12 3-28t12-34 20-33 24-29 28-18 29-2v-6q0-13-1-26t-1-31-2-40-1-55q2-5 6-7t8-2q11 0 17 8t9 18q-1 16-1 34t2 39 4 50 8 66 12 87 16 113v17q0 3-2 4t-6 2-6 1-5 0q-7 0-15-4t-10-11l-18-131q0-1-1-1t-2 0m-86 10q0 2-1 5t0 8 2 7 4 3q12 0 25-10t23-24 18-31 8-30-6-20-24-3q-21 19-35 43t-14 52m396-29v-3q-1-21-2-43t-4-44q-2 0-6 0t-9-2-8-4-3-5q0-5 3-11t6-11 8-9 7-7v-74q0-7 7-10t11-3q14 0 18 6t4 15 1 15 5 9q9-4 16-9t16-9 15-6 18-3q4 0 9 1t10 4 7 5 3 10q0 11-3 20t-7 17-10 17-8 17q2 0 7 1t11 1 11 1 8 1q8 2 18 5t20 9 15 14 6 19q0 11-4 22t-10 20q-2 3-6 8t-7 11-8 10-3 4l-93 81q-5 4-9 5t-8 1q-3 0-10-1t-14-2-11-4-6-6l-11-83m38-32l10 85h1q2 0 7-2t6-3q2-1 7-5t10-8 10-9 7-5q8-7 20-17t21-20 18-23 7-23q0-7-5-12t-12-6-15-3-13-1q-10 0-19 3t-16 9-15 12-15 13q-1 2-4 3t-5 3-4 4-1 5m49-137h-2q-1 1-3 2t-5 4-5 3-3 2q0 0-6 4t-11 9-11 9-5 5v37h2t3-3 7-8 8-10 6-8q2-2 6-7t5-7q1-3 4-8t4-8 4-7 2-4v-5m231 399q-1-10-2-25t0-31 0-32 2-31v-17q-3-4-6-7t-12-15-24-33-42-61q-11-10-14-17t-2-12 6-6 8-2q9 0 17 4t14 11 12 15 10 16q3 4 7 11t9 13 8 12 3 5l6 6v-51q0-25-1-48t-1-47q0-7 4-11t12-4q8 1 13 3t8 8q4 5 4 12t0 15q2 46 3 92t1 93q0 4 0 17t0 31 1 36 0 34 1 25 0 9q0 8-5 11t-12 4q-10 0-15-3t-7-7-3-11-3-12m368-131q1-3 1-10t2-14 3-14 1-10q2-22 6-43t4-44v-8l-8-3q-2-1-10-7t-17-12-19-14-14-11q-3-2-10-8t-13-12-14-13-8-8q-4-4-8-9t-3-11q0-8 6-12t14-4q5 0 10 2t9 5q19 20 42 41t47 35l2-6 20-132q1-6 6-7t10-1q12 0 19 6t7 20v1q0 0-1 2t-2 5-1 4 0 3q-2 6-4 23t-6 40-6 51-7 56-7 54-6 46q1 5 1 11t-2 12-6 10-11 4q-10 0-17-5t-10-13m110-77v-1l18-126q1-6 5-9t11-3q10 0 17 6t11 15h0q6 0 11-2t11-2q16 0 27 10t17 23 10 30 4 29q0 14-8 32t-20 35-28 26-32 11q-14 0-25-7t-17-17-9-24-3-26m41 0v2q1 5 2 11t2 12 6 7 11 1q6-6 13-14t14-15 11-18 5-19q2-17-3-31t-12-20-19-1-20 25q-6 13-8 29t-2 31m221 33l-2-6q-4 8-7 16t-8 16-11 11-16 5q-17 0-28-9t-18-21-10-28-3-29l4-118q-1-3 1-7t6-7 9-5 8-2q11 0 19 7t8 18v5q-5 9-9 23t-6 31-3 33 1 31 6 25 10 12q2 0 8-3t11-9 12-19 11-33 7-50 2-70q2-6 5-6t8-1q4 0 7 0t7 4q2 3 5 7t3 6l8 216q0 7-4 12t-11 5q-2 0-6 0t-7-2-6-4-3-5l-8-49m94 20q-1-18-3-47t-5-62-6-60-5-44q0-6 6-8t12-2q6 0 14 4t9 11q0 2 1 7t1 10 0 11 1 7q0 3 0 4t0 3 0 3 2 4q1-1 2-2t2-2q8-11 15-20t15-16 17-16 23-20q3-2 4-3t3-2 2-1 4-1q9 0 17 6t9 15q0 4-3 8t-6 6-7 6-6 3q-13 12-27 26t-27 31-20 35-7 36q0 16 2 33t3 32v17q-4 4-7 7t-9 2q-8 0-16-7t-10-14m524 63q-7-29-11-62t-4-62q-4 3-7 8t-5 10-5 12-6 9q-11 13-24 23t-31 11q-15 0-29-6t-26-17-19-25-7-28q0-21 7-43t17-40q2-4 6-10t8-14 9-12 5-7l54-56q10-12 27-17t30-6q8-1 12 2t5 11q0 6-4 9t-11 5-14 4-10 4q-26 21-47 47t-38 54q-5 17-11 33t-6 34q0 2 0 7t1 6q5 12 15 22t23 10q7 0 14-5t12-10q2-3 6-10t10-16 10-15 6-11 4-7 5-9 4-8 2-5v-2q-7 2-14 4t-14 1q-4 0-9-1t-10-3-8-5-3-9q0-3 0-6t2-5q4-4 11-6t14-2 15-1 14-4q5-2 13-5t15-6 16-6 16-3q1 0 4 1t5 2 5 3 2 4q0 10-6 15t-15 10q2 19-1 39t-3 39q0 23 1 48t5 47q1 1 2 5t2 9 2 8 1 5v1q0 7-5 13t-12 7q-7 0-14-5t-8-12m95-63q-1-18-3-47t-5-62-6-60-4-44q0-6 5-8t12-2q7 0 14 4t10 11q0 2 0 7t1 10 1 11 0 7q0 3 0 4t0 3 1 3 1 4q1-1 2-2t2-2q8-11 15-20t15-16 18-16 22-20q3-2 4-3t3-2 3-1 3-1q9 0 17 6t9 15q0 4-3 8t-5 6-8 6-6 3q-13 12-27 26t-26 31-20 35-8 36q0 16 2 33t3 32v17q-4 4-7 7t-8 2q-9 0-17-7t-10-14m268-113l-2-3q-4 8-10 19t-12 24-14 25-15 22-17 18-18 8q-4 0-9-1t-10-2-8-5-3-8q1-50 7-91t22-72 37-51 56-30q1 0 4 0t3 0q15-1 22 13t9 44 5 77 5 113q1 6 2 10t0 9q0 7-4 11t-12 4q-14 0-20-8t-8-21q0-1 0-8t-2-17-2-19-2-16v-2q-1-5-1-12t-1-15q-1-8-2-16m-12-99q-14 10-26 26t-18 32q-3 8-6 20t-5 25-4 23-1 14q0 0 1-1t1-2q31-29 43-63t15-74m91 174q-3-15 1-35t11-40 20-38 26-29 27-12 27 12q0 1 0 3t1 8 1 17 0 30q1 1 1 3t1 3q-1 6-6 10t-10 5q-8 0-13-3t-8-13q1-1 0-6t-1-10-2-12-1-9q-1 0-2 1t-1 1q-8 14-15 32t-11 36-2 37 10 32q7 0 13-5t10-11q8-9 16-20t15-21q3-5 4-9t4-6 5-4 11-2q7 0 14 4t7 12q0 11-10 28t-24 33-31 26-28 11q-12 0-23-5t-19-12-13-19-5-23m377-80q-1 9-2 14t-4 8-8 8-15 12-23 20-33 32q-8 7-16 15t-18 14-18 10-21 4q-21 0-31-14t-9-33q0-12 0-21t4-21q-5-5-9-9t-4-10q0-6 2-8t7-2 7-2 5-4q1-3 3-11t6-16 6-16 3-11q4-8 8-16t10-16 13-11 18-4q6 0 14 5t16 13 14 16 5 14q0 7-3 13t-9 12-11 9-11 8q0 0-2 1t-2 2q-1 0-2 2t-4 4-4 4-2 2q-1 2-5 5t-9 7-10 6-5 5l-2 3q-1 2-2 9t-2 15-1 17-1 14q0 0 1 1 1 1 1 1 4 0 7-4t8-5l78-72 20-31q2-3 9-7t15-5 13 5 5 19m-139-17l32-21q2-2 2-6t-3-7-5-3-7 3q-1 2-5 8t-7 12-6 10-1 4" />
</svg>