<svg id="fnt-Crafty Girls" viewBox="0 0 2999 1000" xmlns="http://www.w3.org/2000/svg"><path id="crafty-girls" class="f" d="M357 395q6 14 6 27 0 3 0 7-3 16-13 28t-25 22-32 14q-10-1-18-4t-18-4q-2-4-6-6t-7-5-7-4-6-6q-1-7-2-16 0-5 0-11 0-3 0-6 0-7 5-11 4-4 12-4 2 0 5 1 5 6 6 13 1 4 1 8 0 5-1 11 7 5 15 11 8 5 17 5h1q2 0 10-3t15-8 14-10 8-10q1-3 1-6 0-5-2-9-2-5-2-12v-4q-5-2-10-7t-10-10-9-11-12-8q-3-1-9-1-7 0-12-2-6-2-12-5t-11-4q-5-1-10-1t-9 1q-10 1-19 3t-19 4-20 2q-33 15-62 35t-47 53q-7 13-12 30t-6 34q-1 10-1 18 0 8 1 15 1 17 7 29 9 23 28 43t45 31q12 4 30 7t39 3q10 1 20 1t20-1q20-1 37-4 5-2 13-3t14-4 14-4 11-5q3-2 5-5t5-6 7-5q2-1 5-1 2 0 4 0 7 3 9 11 0 2 0 4 0 7-3 13-21 13-49 21t-59 13q-21 2-42 2-11 0-23 0-33-2-65-12-27-10-48-29t-35-44-15-59q-1-8-1-18 0-24 6-52 16-34 37-65t56-49q25-14 51-20t60-13q6-1 12-1 5 0 10 1 11 2 22 6t21 8 21 6q5 7 11 12t12 11 11 11 9 13m275 71q-8 4-13 4-2 0-3-1-6-2-8-7t-4-14-6-12q-4-3-7-4t-7-1-6 0-9-3q-12 5-25 8t-24 9-22 10-16 16q2 27 7 53t7 51 4 51v7q0 23-4 46-5 8-14 13t-17 9q-18-1-27-10t-13-21-7-26-5-25q4-18 5-37t3-37 8-33 21-25q2-4 2-10 0-3-1-6-2-9-5-18t-8-17-5-16q0-2 0-4 0-6 2-10 3-5 13-9 5 4 8 8t6 11 5 12 6 12q16-5 33-13t40-14q6-1 12-4t11-4q5-1 9-1 10 0 20 2 14 4 24 12t13 20q1 4 1 9 0 9-4 19m-167 207q4-16 4-36v-8q0-16-1-33-2-21-6-41t-7-37q-6 15-10 37t-5 45 6 42 19 31m494-18q-1 6-3 11t-6 7q-3 0-6 0-3 0-5 0-7-1-14-4t-14-7-10-7q-7-6-11-15t-8-17-6-15-6-12q-6 2-9 6t-7 9-6 10-8 9q-10 10-24 18t-31 13q-14 4-30 4-2 0-5-1-17 0-34-8-17-11-31-29t-22-40-9-47q-1-3-1-6 0-22 8-44 3-8 8-17t12-19 13-16 14-12q18-10 39-14 11-1 22-1 9 0 19 1 21 3 41 11t36 20q4-5 11-10t14-9q6-2 12-2h3q7 1 14 7 4 15 4 30v7q-2 19-6 35t-12 32-14 29q7 23 16 44t25 36h5q8 0 12 2 5 3 10 11m-64-201q-10 14-11 31v8q0 13 2 30 3-6 7-16t6-20q2-8 2-16v-3q-1-9-6-14m-33 104q-2-20-4-42-2-12-2-25 0-8 1-16-6-10-17-17t-24-13-26-7q-9-1-16-1-6 0-12 1-17 2-30 8t-22 15q-5 9-12 21t-11 25-6 27q-1 6-1 11 0 9 2 18 2 8 6 17t10 19 12 17 13 13q10 6 23 8 8 2 18 2 5 0 9-1 17-5 29-13t22-20 20-23 18-24m354-158q-3 4-6 8t-7 6-8 3q0 0-1-1-4 0-9-4 0-3 0-6 0-4 2-8 2-6 6-11t8-10 4-13q-1-12-10-21t-23-14-28-7h-4q-13 0-24 5-9 4-17 11t-16 15q-14 15-24 39t-11 51q4 5 10 6 4 1 8 1h3q7 0 14-1t14-2q4 4 8 9 3 4 3 11v2q-5 4-12 4-4 1-9 1h-6q-8-1-17-2-5 0-11 0h-5q-2 15-2 31 0 6 0 12 1 21 5 41t8 40 10 39q0 13 3 24t5 22 6 21q1 6 1 13 0 5-1 10-6 5-13 5-5 0-11-3-14-60-26-121t-16-129q-6 1-16 3t-18 2q-1 0-1 0-8 0-13-4-5-3-5-11v-3q13-6 27-7t28-5q2-28 10-54t23-49 37-35 50-15h4q8 0 17 1 11 3 21 7t20 10 15 13q12 15 12 33v2q0 17-12 35m140 16q7 10 7 15v1q-1 6-7 9t-15 2-20 1q-11 0-20 0t-15 4q-6 26-6 54-1 2-1 4 0 25 4 51 4 27 10 52t15 42q5 5 10 14t14 17q4 3 8 6t8 5 5 6q1 3 1 7v2q0 7-6 11-5 4-10 4h-3q-4-1-6-5t-9-10q-2-2-6-4t-6-2q-8-7-14-16t-11-20-9-21-7-20q-4-12-8-25t-6-31q-1-8-1-16 0-5 1-10 0-9 0-17v-9q0-13-1-30-1-4-1-9 0-11 2-23-1 0-3 0-5 0-12 4-9 5-18 11t-19 11q-8 4-15 4h-3q-7-1-10-7-3-4-3-9 0-1 1-2 0-5 6-9 3-3 10-3 2 0 4 0 14-11 31-17t36-12q3-20 8-43t9-44q1-5 1-11 0-5 0-9t3-8 6-6q2 1 6 1 2 0 5 0t6 2 4 5q-5 22-9 50t-7 55q5 0 11 0 11 0 22-1 11-1 22-1 6 0 11 0m332 223q7 10 9 25 1 6 1 10 0 10-3 19-4 12-12 17-3 2-6 2-7 0-16-8v-4q0-4 1-6 1-3 2-7t3-6 1-8q-1-11-4-17t-9-10-14-5-20-2q-1 28-3 58t-7 58-15 53-24 43-38 30-54 11q-22-5-36-17t-25-27q-5-24-7-47-1-6-1-12 0-18 6-38 0-4 3-11t7-15 7-14 7-10q3-5 8-7t10-6q6-7 11-14t13-14q6-4 14-8t14-7q19-10 36-16t41-12q0-13 0-27t-1-29-2-28-2-27q-7 4-11 10t-7 13-6 14-7 12q-5 7-13 11t-17 11-16 12-18 10-22 5q-2 1-5 1-10 0-22-4-14-10-22-25t-8-32q-1-7-1-14 0-11 2-23 2-18 7-37t10-36 11-31q5-3 11-3 3 0 5 1 3 3 5 6t5 7q-5 18-13 40t-12 43q-2 16-2 31 0 6 0 12 1 20 15 37 6 1 10 1 3 0 6-1 7-1 12-3t10-5 10-7q7-5 15-9t14-10q6-7 10-16t9-17 8-15 12-13q5-17 10-35 5-16 5-33v-4q5-2 11-5 3-1 6-1t5 1q4 6 6 13t2 15v4q0 7 0 13-1 8-2 15 1 17 2 34t1 34 1 36 2 39q7 1 11 2t9 3 9 2 12 1q4 3 7 5t7 4 7 5 9 9m-99 36v-12q0-1 1-4t0-6-1-5-5-3q-5 3-11 5t-11 3-12 2-11 3q-4 2-9 6t-11 8q-7 4-16 9t-15 12-15 12-11 12q-7 10-12 24t-9 30q-2 13-2 27v4q0 17 5 30t15 22 26 10q4 0 8 0 16 0 28-6 14-7 24-19t17-28 14-27q6-28 10-58 3-25 3-51m668-175q-4 15-10 27t-13 25-15 24-14 23q2 16 4 33t4 35q0 8 0 15 0 10-1 19-1 16-8 31-15 14-27 28t-32 24q-8 0-15 3t-16 4-18 3h-2q-9 0-19-4-3-1-5-4t-7-6q-7-3-15-7t-12-10q-9-14-9-27v-4q2-16 10-31 5-1 9-2h9q5 4 6 9v3q0 3-1 5-1 5-4 10t-4 9q4 15 13 22t23 8q3 1 7 1 9 0 19-3 14-3 27-10t22-15 15-16q5-10 7-23 1-7 1-15 0-6-1-11-1-14-3-27t-4-25q-15 13-39 24t-51 15q-17 3-35 3-10 0-19-1-29-2-53-15-2-2-5-5t-6-5q-7-5-16-12t-18-15-16-16-12-16q-5-9-8-19t-10-17q-5-18-5-36 0-3 1-6 0-20 4-40t10-37 13-33q25-29 57-52t78-37q17-6 34-6h1q17 1 33 4t33 10 32 11q4 7 12 14t14 14 10 15q1 3 1 5 0 6-5 13h-3q-5 0-10-3-5-3-10-8t-8-12-9-10q-6-4-12-7t-13-5-14-5-13-6q-20-1-38-2-2-1-6-1-14 0-29 6-3 2-6 4t-6 5q-7 2-13 3t-12 3q-12 5-24 13t-24 18-19 21-13 20q-1 2-1 5v3q0 2-1 5-1 5-5 11t-6 10q-4 12-5 26-2 9-2 16 0 5 1 9 1 22 7 38t17 31 22 26 25 24q23 13 52 16 10 1 20 1 18 0 35-3 27-4 50-16t38-29q-1-15-3-34t-5-39q-1-10-1-20 0-9 1-17 1-18 9-31 3-4 7-9t11-9 12-6q5-2 10-2 2 0 4 1 12 1 19 10t9 20 4 24 2 24m-26-35q-4-3-7-8t-11-6q-9 7-13 20t-3 26q0 15 2 30t3 27q6-9 13-18t10-20 6-23q1-7 1-15 0-6-1-13m97-113v-2q9-6 16-6h2q7 2 9 7 1 4 1 8v4q-2 8-5 12-4 4-10 4-1 0-1 0-7-1-15-11-1-2-1-3 0-4 2-6 2-3 2-7m39 341q-5 2-9 2-3 0-5-1-5-3-9-9t-5-14-5-14q-8-21-14-47t-8-56q-2-24-2-48v-10q1-29 5-54 6-6 14-6h2q8 1 11 9 2 3 2 6t-1 8q-3 8-4 17-1 11-1 24v9q1 18 1 31 0 10 1 22t3 26 4 24 7 22q3 9 8 16t8 15 3 13q0 8-6 15m268-227q-8 4-13 4-2 0-3-1-6-2-8-7t-4-14-6-12q-4-3-7-4t-7-1-6 0-9-3q-12 5-25 8t-24 9-22 10-16 16q2 27 6 53t8 51 3 51v7q0 23-3 46-5 8-14 13t-17 9q-18-1-27-10t-13-21-7-26-5-25q4-18 5-37t3-37 8-33 21-25q2-4 2-10 0-3-1-6-2-9-6-18t-7-17-5-16q0-2 0-4 0-6 2-10 2-5 13-9 5 4 8 8t6 11 5 12 6 12q16-5 33-13t40-14q6-1 12-4t11-4q5-1 9-1 10 0 20 2 14 4 24 12t13 20q1 4 1 9 0 9-4 19m-167 207q4-16 4-36v-8q0-16-1-33-2-21-6-41t-7-37q-6 15-10 37t-5 45 6 42 19 31m255 19q-1 3-5 6t-8 4q-2 1-5 1-2 0-4-1-5 0-9-4-5-48-11-97t-8-95q-2-26-2-52 0-21 1-42 2-47 12-94 5-1 9-1 3 0 6 0 7 2 11 7-7 47-9 94-2 23-2 47 0 22 2 46 2 46 8 92t14 89m274-223q-3 8-8 14-5 4-14 4h-4q-9-12-17-25t-20-23q-19-7-39-9-6-1-12-1-15 0-32 5-9 2-20 8t-15 10q-3 4-8 8t-8 8-7 10q-2 4-2 8 0 2 1 5 0 4 3 9t7 8 8 8 9 6q7 3 14 4t13 2 14 2 12 6q23 1 46 9t40 23q16 21 16 42v3q-2 22-16 40t-38 27q-18 7-38 7-6 0-12 0-14-5-27-11t-22-15-17-21-9-29h1q3 0 6-1 4-1 8-3 3-1 6-1h2q3 1 6 4 4 2 6 7 1 3 1 5 0 3-2 6 10 15 27 22 14 5 28 5 3 0 7 0 17-2 32-11t22-26q-1-9-5-17t-10-15q-13-8-30-13t-33-9-33-9-31-11-25-17-17-26v-20q2-9 7-16t9-14 12-12 11-12q5-3 11-5t11-5 11-6 8-9q7 2 14 2 1 0 2 0 9 0 18-1t18-2h6q5 0 9 0 23 4 39 15t32 24q1 5 3 9t6 7 5 6 4 7" />
</svg>