<svg id="fnt-Creepster" viewBox="0 0 1927 1000" xmlns="http://www.w3.org/2000/svg"><path id="creepster" class="f" d="M169 322q14 1 25 15 2 3 4 5t3 6q3 8 2 21t2 23 4 16q5 14-5 36-7 21-18 25l-9 3q-12 5-21 3t-13-5q-10-12-5-29 1-3 0-11t-8-9q-4-1-5-3t-2-5-2-2-4 2-5 3-3 0-5 0-5 6q-9 15-3 49 2 10 4 19 4 22 3 29t-3 16-4 15q-6 20 1 35 9 17 11 20 5 5 11 4t10-7 6-12 7-12 8-7 12 0 10 0 6 4 4 14 1 17-3 12-5 9-2 8q-1 11-4 16t-6 8-14 3-21 11-17 9-12-10q-3-8-15-8-3-1-6-2t-7-2-8-3q-10-5-16-17-4-8-8-12t-6-10q-6-9-5-18 3-24-6-31-5-3-5-5t-2-9q-3-8 0-20t2-19-2-16q-3-22-1-29t1-19-1-21-1-21 0-29q3-38 26-52 33-20 43-19 2 0 7 1t8 0 7-3 5-5q12-10 21-2 9 10 14 14 8 6 25 7m189-6l16-1q16 0 23 5t11 10 7 9 8 9 5 12 3 10 4 13 0 17-2 13-1 10 2 10 0 20-5 32-10 27q-11 22-38 35 3 6 6 13t6 14q6 18 6 26t1 12 2 6 3 3 5 3 5 9 2 14q0 15-4 19t-7 5-9 2q-11 1-14-3-4-4-4-8t-2-8-4-4-5-6-3-7-9-1q-12 3-18-14-2-4-3-11t-3-12q-4-14-9-15t-8 1-4 7-1 9 1 11 1 10-3 6-4 4q-4 3-4 10t-3 13q-3 13-7 17t-10 4-10-1q-12-2-15-8t-4-9 0-6 1-7 0-8-2-12-2-19l-1-13q0-2 3-6t3-11-6-8-4-4 1-12-1-25-2-25q-2-25-9-28t-7-8 0-10 2-15 2-18 3-17 2-10 0-6 0-5q-1-8 0-14 2-11 1-16t2-14 4-13 8-6 10-6 10-7 7-7 9-4q14-3 20-1t10 4 7 5 9 4 8 1q11 1 13 3t5 2m-41 136l3 44q0 5 0 9t-1 7q-1 8 5 9 5 1 8-3t5-10q6-12 4-15-4-5-2-9t7-14 9-19 1-17-2-12v-5q0-4-3-7t-5-4-3 0q-4 1-8-1t-7-1-8 4-5 9 0 11q2 17 2 24m152 123l0-25q0-7 0-13 1-6-1-15-2-16-2-24t0-12-1-9q-2-6-7-18t-6-28 6-23q6-9 5-18t-2-20-1-21 5-22q11-25 43-24 20 1 35 4t21 3 21-5q21-7 33 1 4 3 7 4t5 4q9 9 5 40-1 9-2 19-2 22 0 32t3 19-1 15q-3 14-11 14-7-1-10-5t-6-9-4-9-9-5q-22 0-29-4t-12-6-11 2q-10 4-12 16t-2 20 0 16q1 17 7 20t9 0 8-4q12-8 24-8t19 10 5 19-2 18-2 17q-7 30-28 11-28-2-35 7-1 3-3 10t0 17q2 23 22 24 12 1 23-3t14-10q3-6 7-6t8-2 7 0 7 1q8 2 10 13t-2 20-5 16-2 10-6 9-7 8-9-1q-11-9-26 9-4 6-8 8t-14 2-14-5-10-8q-7-10-26-7-10 1-17-10-2-1-2-5t-2-9q-3-12-6-16t-3-10-1-12-2-10 1-7 1-10m202 0l-1-25q0-7 1-13 0-6-1-15-3-16-2-24t0-12-1-9q-2-6-8-18t-5-28 6-23q6-9 5-18t-3-20 0-21 5-22q11-25 43-24 20 1 35 4t21 3 21-5q21-7 33 1 3 3 6 4t6 4q8 9 5 40-1 9-2 19-2 22 0 32t3 19-1 15q-3 14-11 14-8-1-11-5t-5-9-4-9-10-5q-21 0-28-4t-13-6-10 2q-10 4-12 16t-2 20 0 16q1 17 7 20t9 0 8-4q12-8 24-8t19 10 5 19-2 18-2 17q-7 30-28 11-28-2-35 7-2 3-3 10t-1 17q3 23 22 24 13 1 24-3t14-10q2-6 7-6t8-2 6 0 7 1q9 2 11 13t-2 20-6 16-2 10-5 9-8 8-8-1q-11-9-26 9-4 6-8 8t-14 2-15-5-9-8q-8-10-26-7-11 1-17-10-2-1-3-5t-1-9q-4-12-6-16t-3-10-2-12-1-10 1-7 1-10m243 99q-7-1-14-15t-10-36-4-30-2-11q-1-8-5-13t-5-9q-1-4-1-22 1-37-3-50-2-5-2-8t0-8-2-8-5-10q-8-16-8-22 0-7 5-16 11-18 12-25t2-19 0-22q-1-29 4-36 4-4 10-5t13-5q17-6 26-6t13 5 12 5 10 0 4-1q6-2 10-2 6 0 9 5t6 8 8 1 8-1 5 0q8 1 13 0 11-4 17 3 1 3 6 5t10 4q9 5 12 17 7 22 2 46-2 9-3 13t-2 9-1 7 0 8-1 11v13q0 15 1 24 3 25-22 35-8 4-11 7t-6 8-9 15-20 14-23 9-13 8q-3 6-1 30t1 30-2 10-4 7-7 2-6 3-6 6-5 6q-7 6-16 6m33-273q-3 2-6 17t-3 22 3 15 4 11-1 9-1 9q-1 12 2 15t6 2 8-3 7-4 6-3 5-5 4-5q4-3 5-7t3-9-1-9-5-12q-3-8-2-13 4-21-5-29-11-6-19-5t-10 4m326-19q1 3 0 6t-6 12-8 18-1 15 0 11q0 11-11 15-10 4-16-1t-8-11-5-13-6-5q-7-2-11 1t-5 5q-4 4-8 6t-7 3q-5 3-4 11 2 15 34 46 6 5 14 12t16 16q17 21 19 47 2 27-8 47-7 16-18 21-8 5-11 12t-5 10-6 5-10 2-11-2-10-4-6-3-6 2-4 5q-8 7-14 5t-13-5-15-10q-27-21-19-42 6-14 12-20t11-6q6 0 8 5t4 7 4 5 6 4 9 3q12 1 18-10t5-23q-3-23-10-20-5 4-13 0t-8-8-2-10-3-9q-5-11-8-12-4-1-11-1t-14-9-11-21-6-23-5-15-3-11q-5-19-1-48 3-17 11-30t18-26q18-24 34-34t24-2q7 6 16 5t13-3l9-2q8-2 17 1t15 16q4 8 7 13t7 10q8 12 9 20t3 11 4 6m32-74q11 1 19 1t26 0q28 2 40-4 24-12 39-3 7 4 13 5t18-6q13-5 21-2t12 7 5 16 1 21-2 20q-3 25-3 33t2 16 1 16q-1 19-16 22-10 1-15-5t-8-15-7-14-9-5-7 13-1 26 2 30 2 27 1 22 1 21q0 21-6 29-3 4-3 10t1 11 3 11 2 15q0 19-18 27-6 3-12 10t-8 9-6 1-6-3-3-6q-3-8-8-10-6-2-8-11t-1-16-1-17-7-17-8-8-5-8 0-14 4-15q5-24 6-45 1-39 0-52-2-25-14-25-6 0-8 5t-5 11q-7 16-25 9-7-3-8-9t-2-15-1-18-3-18-6-17-3-15 4-16 2-14 3-15 15-6m223 267l0-25q0-7 0-13 1-6-1-15-2-16-2-24t0-12-1-9q-2-6-7-18t-6-28 7-23q5-9 4-18t-2-20 0-21 4-22q11-25 43-24 20 1 35 4t22 3 21-5q20-7 32 1 4 3 7 4t5 4q9 9 5 40-1 9-2 19-2 22 0 32t3 19-1 15q-3 14-11 14-7-1-10-5t-6-9-4-9-9-5q-22 0-29-4t-12-6-10 2q-11 4-12 16t-3 20 0 16q1 17 7 20t9 0 8-4q12-8 24-8t19 10 5 19-2 18-2 17q-7 30-28 11-28-2-35 7-1 3-3 10t0 17q2 23 22 24 13 1 23-3t14-10q3-6 7-6t8-2 7 0 7 1q9 2 10 13t-2 20-5 16-2 10-6 9-7 8-9-1q-11-9-26 9-4 6-8 8t-14 2-14-5-10-8q-7-10-25-7-11 1-18-10-1-1-2-5t-2-9q-3-12-6-16t-3-10-1-12-2-10 1-7 1-10m320-259l16-1q16 0 23 5t11 10 7 9 8 9 5 12 4 10 3 13 0 17-2 13-1 10 2 10 1 20-6 32-9 27q-12 22-38 35 2 6 5 13t6 14q7 18 7 26t0 12 2 6 3 3 5 3 5 9 2 14q0 15-3 19t-8 5-9 2q-11 1-14-3-4-4-4-8t-2-8-4-4-4-6-4-7-9-1q-12 3-18-14-1-4-3-11t-3-12q-4-14-9-15t-8 1-3 7-2 9 2 11 0 10-3 6-4 4q-3 3-4 10t-2 13q-3 13-8 17t-10 4-10-1q-12-2-15-8t-3-9-1-6 1-7 0-8-2-12-2-19l-1-13q0-2 4-6t2-11-6-8-4-4 1-12-1-25-2-25q-2-25-9-28t-7-8 0-10 2-15 3-18 2-17 2-10 0-6 0-5q-1-8 0-14 2-11 1-16t2-14 4-13 8-6 10-6 10-7 8-7 8-4q14-3 21-1t9 4 7 5 9 4 9 1q10 1 12 3t5 2m-40 136l3 44q0 5-1 9t-1 7q0 8 5 9 5 1 8-3t6-10q5-12 4-15-4-5-3-9t8-14 8-19 1-17-1-12v-5q0-4-4-7t-5-4-3 0q-4 1-8-1t-7-1-8 4-5 9 0 11q3 17 3 24" />
</svg>