<svg id="fnt-Crimson Pro" viewBox="0 0 2460 1000" xmlns="http://www.w3.org/2000/svg"><path id="crimson-pro" class="f" d="M180 671q-43 0-78-16t-56-49-21-80q0-31 11-58t32-48 50-33 68-11q20 0 43 4t40 11l3 67-22 2-15-47q-9-6-24-9t-29-3q-37 0-60 15t-34 43-11 58q0 41 14 70t39 44 55 14q15 0 28-3t24-11l22-45 22 2-13 62q-17 8-40 15t-48 6m244-4h-113l-1-18 30-7q0-3 1-9t1-17 0-26l0-39q0-16-1-31t-3-25l-31-7v-16l66-18 6 7-2 41 2 0q15-28 30-38t28-10q11 0 19 5t7 17q0 12-8 18t-20 6q-9 0-17-4t-15-11l9 3q-10 6-18 17t-15 26l0 45q1 13 1 26t1 23 1 17l43 6-1 19m167 0h-105l-1-18 33-7q0-2 0-7t1-16 1-29v-33q0-20-1-36t-3-26l-33-7v-16l70-18 7 7q-1 15-2 29t-1 35v61q0 23 1 37t2 19l32 7-1 18m-52-268q-13 0-22-9t-9-20 9-21 22-8q12 0 21 8t8 21-8 20-21 9m179 268h-99l-1-18 30-7q1-4 1-9t1-16 0-27l1-39q0-10 0-21t-2-20-2-15l-31-7v-16l65-18 8 8-2 26 1 0q16-19 32-27t33-8 34 9 26 28 11 49l0 52q0 18 1 31t2 20l29 7-1 18h-95l-2-18 27-7q1-4 1-10t1-15 0-23l0-53q0-21-7-34t-17-19-23-5q-15 0-29 7t-23 23v73q0 23 1 36t1 20l29 7-1 18m274 0h-97l-2-18 28-7q0-4 1-10t0-15 1-23v-53q0-21-7-34t-19-19-22-5q-17 0-31 8t-25 25l-9-18q17-23 36-34t41-11q20 0 37 10t26 28 10 45v55q0 18 1 31t1 20l31 7-1 18m109 4q-18 0-36-5t-31-11l-2-52h24l9 35q18 12 39 12 17 0 27-8t11-22q0-12-10-22t-36-21q-34-15-49-29t-14-36q0-17 11-31t29-21 43-7q13 0 28 2t23 7l5 50h-23l-11-33q-5-3-12-4t-15-2q-17 0-27 8t-10 21q0 14 11 23t40 23q32 14 44 28t13 34q0 27-23 44t-58 17m226 0q-32 0-55-14t-37-38-13-57q0-33 14-57t39-39 54-13q30 0 53 13t35 38 13 56q0 31-14 56t-37 40-52 15m5-23q17 0 29-10t19-28 7-41q0-42-18-68t-45-26q-27 0-43 22t-15 58q0 27 8 48t24 33 34 12m233 19h-100l-1-18 30-7q1-4 1-10t1-16 0-26l1-38q0-16-2-32t-2-25l-32-7v-16l66-18 8 8-2 25 1 1q17-19 34-27t36-8q18 0 34 9t26 27 10 48v54q0 18 1 32t2 19l30 7-1 18h-99l-1-18 29-7q0-4 1-10t0-15 1-23v-52q0-22-8-35t-19-19-23-5q-16 0-30 8t-23 22v73q0 23 0 36t2 20l30 7-1 18m385 0h-112l-2-19 29-7q0-2 1-8t0-22 1-39l0-99q0-25 0-39t-1-20-1-8l-30-7 1-19h104q49 0 76 21t26 62q0 27-13 47t-38 31-52 11q-11 0-20-1t-18-3v-26q11 3 20 5t17 1q28 0 44-14t17-45q0-35-19-51t-45-16h-26q0 2 0 13t-1 26 0 32l1 99q0 25 0 39t1 21 1 9l40 6-1 20m242 0h-113l-1-18 30-7q0-3 1-9t1-17 0-26l0-39q0-16-1-31t-3-25l-31-7v-16l66-18 6 7-1 41 1 0q15-28 30-38t28-10q11 0 19 5t7 17q0 12-8 18t-20 6q-9 0-17-4t-15-11l9 3q-10 6-18 17t-15 26l0 45q1 13 1 26t1 23 1 17l43 6-1 19m163 4q-31 0-55-14t-37-38-13-57q0-33 15-57t39-39 53-13q31 0 53 13t36 38 12 56q0 31-14 56t-37 40-52 15m5-23q17 0 29-10t19-28 7-41q0-42-17-68t-46-26q-26 0-42 22t-16 58q0 27 8 48t24 33 34 12" />
</svg>