<svg id="fnt-Crimson Text" viewBox="0 0 2713 1000" xmlns="http://www.w3.org/2000/svg"><path id="crimson-text" class="f" d="M176 670q-32 0-60-13t-49-35-34-51-12-62q0-34 13-65t34-53 51-37 63-13q28 0 58 3t60 9l-1 70q0 8-10 8-5 0-6-3-2-6-4-13t-9-17q-12-17-33-27t-54-10q-24 0-45 12t-37 31-24 44-9 51q0 41 14 73 13 33 43 55t70 22q48 0 75-29 7-8 12-19t7-20 4-8q3 0 8 1t6 2l3 1q0 3-2 14t-5 24-6 22-4 11q-36 22-117 22m216-4l-54 2q-2-2-2-8 0-6 2-6 4 0 11-2t13-3 6-5q2-7 3-15t1-19v-92q0-19-7-27-5-6-12-7t-11-3-6-1q0-12 3-12 54-8 62-11l8-2q2-1 3 4t0 6l-3 24q8-13 24-24t30-12q29 0 38 14 0 18-5 25t-13 8q-9 0-16-8t-20-8q-10 0-19 6t-14 17-5 20v74q0 14 1 25t3 18q1 2 7 5t13 3 10 2q1 0 2 6t-1 8l-52-2m185 0l-54 2q-2-2-2-8 0-6 2-6 4 0 11-2t13-3 6-5q2-7 3-15t1-19v-92q0-19-7-27-5-6-12-8t-12-2-5-1q0-12 3-12 26-4 40-7t24-5l6-1q2-1 3 4t0 6q-1 10-2 19t-1 16v101q0 14 1 25t3 18q1 2 7 5t13 3 9 2q2 0 2 6t0 8l-52-2m-5-264q-10 0-17-8t-8-17q0-10 8-17t17-7q10 0 17 7t7 17q0 10-7 17t-17 8m140 264l-53 2q-2-2-2-8 0-6 2-6 4 0 10-2t13-3 6-5q2-7 3-15t1-19v-92q0-19-7-27-5-6-11-7t-12-3-5-1q0-12 3-12 26-4 40-7t23-5l6-1q2-1 3 3t0 7q-1 7-2 12t0 8q0 1 1 1 0 0 1-1 12-11 31-22t37-10q19 0 32 10t18 24q37-34 76-34 61 0 61 94v54q0 14 1 25t3 18q1 2 7 5t13 3 10 2q1 0 1 6t0 8l-52-2-53 2q-2-2-2-8 0-6 2-6 3 0 10-2t13-3 6-5q2-7 3-15t1-16v-55q0-75-50-75-11 0-22 5t-16 11-6 11q1 10 2 19t0 21v55q0 12 1 22t3 17q1 2 7 5t13 3 10 2q1 0 2 6t-1 8l-52-2-53 2q-2-2-2-8 0-6 2-6 4 0 10-2t13-3 6-5q2-7 3-15t1-19v-50q0-77-47-77-10 0-20 5t-17 12-8 15v86q0 14 1 25t3 18q1 2 7 5t13 3 10 2q1 0 2 6t-1 8l-52-2m408 6q-16 0-28-3t-29-6q-2-6-4-15t-4-19-1-17q4-3 6-3 7 0 8 3 2 10 10 19t19 17 23 6q15 0 25-8t10-25q0-17-13-28-10-8-17-12t-14-7-16-9q-38-22-38-52 0-18 9-31t27-21 34-8q6 0 13 1t15 2q8 1 13 2t9 2q6 22 6 49 0 3-6 3-7 0-8-4-2-13-13-25t-27-13q-35 0-35 29 0 7 2 13t8 11q15 11 36 23t34 22q21 16 21 37 0 19-10 34t-28 24-37 9m214-2q-29 0-53-15t-39-39-14-55q0-30 13-55t38-38 54-15q30 0 54 15t39 39 14 54-14 55-38 39-54 15m5-19q17 0 31-11t20-30 8-42q0-26-10-48t-25-35-35-13q-17 0-30 11t-21 30-7 41q0 26 9 48t25 36 35 13m189 15l-53 2q-2-2-2-8 0-6 2-6 4 0 10-2t13-3 6-5q2-7 3-15t1-19v-92q0-19-7-27-5-6-11-7t-12-3-5-1q0-12 3-12 25-4 42-7t20-4l7-2q2-1 3 4t0 6q-1 7-2 12t0 8q0 1 1 1 0 0 1-1 12-11 31-22t37-10q34 0 48 24t13 79v45q0 14 1 25t3 18q1 2 7 5t13 3 9 2q2 0 2 6t0 8l-52-2-52 2q-2-2-2-8 0-6 2-6 4 0 11-2t11-3 6-5q2-7 3-15t1-19v-49q0-45-12-62t-38-16q-10 0-21 5t-17 13-7 14v86q0 14 1 25t3 18q1 2 7 5t13 3 10 2q1 0 2 6t-1 8l-52-2m472 0l-59 2q-2-2-2-7 0-7 2-7 5 0 12-1t14-4 7-5q2-7 3-17t1-26v-177q0-43-5-50-3-8-53-8-18 0-28 4t-16 12-10 28q-1 2-5 2-8 0-12-3l9-70q11 2 19 4t15 1q35 0 62 1t45 1q38 0 65-1t42-1q7 0 15-1t19-4l9 70q-3 3-11 3-4 0-5-2-5-19-10-28t-16-12-29-4q-51 0-54 8-4 15-4 49v176q0 28 4 45 1 2 8 5t13 3 11 2q2 0 2 7 0 3-1 7-25-1-39-2t-18 0m240 4q-27 0-50-15t-35-37-14-53q0-35 13-59t34-39 50-13q22 0 39 8t27 22q9 14 13 28t4 27q0 10-3 12t-11 2h-123q-4 0-4 3 0 20 8 39t24 31 40 12q20 0 34-6t21-11l3-2q3 0 3 6 0 4-3 9-10 14-29 25t-41 11m-56-137h95q2 0 2-5 0-11-5-24t-17-22-29-10q-15 0-26 10t-17 24-6 23q0 4 3 4m199 133l-47 2q-1-2-1-4t0-3q0-7 2-7 33-5 44-21l49-65q2-4 2-5 0-2-1-4l-50-73q-3-4-10-8t-16-7-14-2q-2-4-2-7 0-4 2-7l49 2 51-2q1 1 1 6 0 8-2 8-19 0-19 8 0 2 2 6l32 49q7-11 13-19t9-12q3-6 7-13t3-10q0-5-5-7t-12-1-9-1q-2-1-2-8 0-4 2-6l51 2 45-2q0 2 0 4t1 3q0 7-2 7-33 4-42 16l-45 59q-3 4-3 6t2 6l52 76q12 20 41 22 1 0 1 7 0 5-2 7l-46-2-54 2q-1-2-1-4t0-2q0-8 1-8 21-2 21-9 0-1-1-3l-37-58-34 50q-3 5-3 9t7 8 17 3h3q1 0 1 7 0 5-2 7l-49-2m274 4q-24 0-41-16t-16-46v-124h-28q-3 0-3-10 0-3 1-4 14-6 31-26 11-13 16-22t6-12q15 0 15 2v49l38 0h28q4 0 4 4 0 10-5 19h-65v120q0 19 10 31t26 12q15 0 30-10 2-1 4 5t3 5q-7 8-23 15t-31 8" />
</svg>