<svg id="fnt-Cute Font" viewBox="0 0 1436 1000" xmlns="http://www.w3.org/2000/svg"><path id="cute-font" class="f" d="M154 621q0-5 4-8t14-4q17 0 17 16v9q0 33-38 33h-90q-36 0-36-36v-142q0-37 37-37h89q38 0 38 33v8q0 18-17 18t-18-12q0-27-30-27h-34q-30 0-30 26v125q0 25 29 25h36q29 0 29-27m167-1v-84q0-26 18-26 18 0 18 23v99q0 19-10 27t-28 8h-43q-20 0-29-8t-10-26v-100q0-23 19-23 18 0 18 26v85q0 28 20 28h7q20 0 20-29m102-178q18 0 18 26v16q0 27 29 27h9q20 0 20 8 0 9-20 9h-9q-29 0-29 35v55q0 30 28 30h12q20 0 20 9t-18 10h-42q-36 0-36-37v-165q0-23 18-23m157 208h51q19 0 19 9 0 8-18 8h-63q-39 0-39-37v-110q0-36 40-36h42q18 0 28 7t10 23v57q0 19-10 27t-28 8h-31q-15 0-15 22 0 22 14 22m-14-124v37q0 25 25 25 23 0 23-25v-37q0-25-23-25-25 0-25 25m278 65v54q0 26-18 26t-17-25v-160q0-34 40-34h105q19 0 19 10 0 10-20 10h-81q-28 0-28 29v15q0 30 27 30h83q19 0 19 8 0 11-16 11h-85q-28 0-28 26m280-45v86q0 19-10 27t-28 8h-41q-40 0-40-35v-86q0-16 9-26t30-9h42q19 0 28 9t10 26m-36 73v-61q0-29-21-29h-6q-20 0-20 32v59q0 30 20 30h8q19 0 19-31m167 23v-85q0-28-21-28h-6q-20 0-20 30v83q0 27-18 27-19 0-19-23v-100q0-16 10-26t30-9h42q19 0 28 9t10 25v100q0 24-18 24-18 0-18-27m102-200q18 0 18 26v16q0 27 29 27h9q20 0 20 8 0 9-20 9h-9q-29 0-29 35v55q0 30 28 30h12q20 0 20 9t-18 10h-42q-36 0-36-37v-165q0-23 18-23" />
</svg>