<svg id="fnt-Cutive Mono" viewBox="0 0 3284 1000" xmlns="http://www.w3.org/2000/svg"><path id="cutive-mono" class="f" d="M163 671q-37 0-67-19t-47-53-17-81q0-42 17-74t47-49 67-18q29 0 53 12t34 30v-26q0-6 3-9t8-3q5 0 9 3t3 9v72q0 6-3 8t-8 3q-10 0-12-11-5-30-29-49t-57-18q-34 0-58 16t-37 43-13 63q0 41 15 70t39 45 54 15q35 0 59-19t33-52q3-7 10-7 5 0 9 3t5 8q0 1 0 2-5 20-19 40t-38 33-60 13m277 0q-34 0-53-19t-18-49v-109l-25 5q-8 2-11-2t-4-8q0-7 9-9l43-9q6-1 8 2t3 6v124q0 21 12 34t36 14q14 0 29-6t28-14 17-21v-116l-25 5q-7 2-11-2t-3-8q0-7 9-9l44-9q5-1 7 2t3 6v167l37-3q5 0 8 3t2 6-2 7-7 3l-47 5q-11 0-12-12l-1-21q-11 16-32 26t-44 11m328 0q-17 0-31-6t-23-17-9-23v-127h-35q-5 0-8-4t-3-7q0-3 3-6t7-3h36q0-40 2-55t13-15q6 0 7 4t2 7v59h91q4 0 7 3t2 7q0 4-2 7t-8 3h-90v119q0 18 12 26t30 8q17 0 36-6t29-15q1-1 3-1 4 0 7 4t3 9q0 1-1 3-5 6-17 12t-29 10-34 4m309-250q-8 0-14-6t-6-14q0-9 6-14t14-6q9 0 14 6t6 14q0 8-6 14t-14 6m98 246h-195q-5 0-8-4t-3-7q0-4 3-6t7-3h91v-156l-81 11q-1 0-1 0t-1 0q-5 0-7-3t-3-7q0-3 2-6t6-4l97-13q1 0 3 0 9 0 9 7v171h81q5 0 7 3t3 7q0 4-3 7t-7 3m194 3q-5 0-10-3t-10-15l-71-154h-25q-6 0-8-3t-2-7q0-4 2-7t9-3h77q6 0 8 3t1 7q0 4-1 7t-8 3h-27l66 146 59-146h-21q-6 0-7-3t-2-7q0-4 2-7t8-3h63q7 0 10 3t2 7q0 3-2 7t-9 3h-21l-66 155q-4 12-8 14t-9 3m307 1q-32 0-57-13t-40-35-14-56q0-31 15-53t40-34 53-12q38 0 63 21t25 61q0 9-5 15t-14 6h-153q1 40 25 60t60 20q18 0 36-7t32-20q5-4 10-4 4 0 7 3t2 8q0 5-4 10-9 10-23 16t-30 10-28 4m-86-118h150q0-9-2-20t-10-21-19-17-35-7q-36 0-58 17t-26 48m631 114h-85q-6 0-9-4t-3-7 3-7 9-3h32v-244h-29q-6 0-9-3t-3-7q0-5 3-8t10-3h48q4 0 7 2t4 6l74 162 71-163q2-7 10-7h47q7 0 10 3t3 8q0 3-3 7t-9 3h-28v244h31q6 0 9 3t3 7-3 7-9 4h-86q-6 0-10-4t-3-7 3-7 9-3h33v-219l-63 144q-5 12-16 12-10 0-15-10l-65-145v218h29q7 0 9 3t3 7-3 7-9 4m352 4q-31 0-54-13t-36-35-13-54q0-46 28-74t75-27 75 27 29 74q0 31-13 54t-37 35-54 13m0-20q37 0 57-23t20-59-20-58-57-23-57 23-20 58 20 59 57 23m273 16h-74q-6 0-8-4t-3-7q0-4 2-6t8-3h26v-153l-26 5q-2 1-5 1-4 0-7-3t-2-7q0-3 1-6t7-4l40-8q3 0 4 0 9 0 10 9l1 30q9-18 31-31t47-12q35 0 52 18t16 51v110h27q5 0 7 3t3 6q0 4-3 7t-8 4h-84q-5 0-8-4t-3-7q0-4 3-6t7-3h36v-112q0-22-11-34t-33-13q-24 0-41 9t-27 22-10 25v103h25q6 0 9 3t3 6q0 4-3 7t-9 4m333 4q-31 0-54-13t-37-35-13-54q0-46 29-74t75-27 75 27 28 74q0 31-13 54t-36 35-54 13m0-20q37 0 57-23t20-59-20-58-57-23-57 23-20 58 20 59 57 23" />
</svg>