<svg id="fnt-Cutive" viewBox="0 0 1849 1000" xmlns="http://www.w3.org/2000/svg"><path id="cutive" class="f" d="M238 673q-47 0-86-16t-68-45-45-70-16-92q0-47 16-85t46-66 70-42 87-15q40 0 69 13t50 36v-25q0-10 7-14t16-4q8 0 14 5t6 13v92q0 8-6 13t-14 5q-9 0-13-7t-8-12q-18-30-46-49t-75-20q-48 0-83 21t-53 59-19 84q0 81 40 127t115 46q52 0 84-28t41-74q2-9 9-13t16-5q9 0 17 6t8 16q0 40-22 73t-62 53-95 20m359 0q-44 0-68-28t-24-72v-145l-35 8q-1 1-3 1-8 0-14-6t-6-14q0-17 13-20l79-20q2 0 3 0 13 0 13 12v180q0 27 13 44t38 18q31 0 57-15t35-36v-152l-34 8q-2 1-4 1-7 0-14-6t-6-14q0-17 14-20l78-20q2 0 4 0 13 0 13 12v231h36q9 0 13 6t4 14q0 17-13 21l-67 7q-7 0-11-5t-6-17l-4-24q-10 14-26 26t-37 18-41 7m341 0q-19 0-35-9t-27-25-10-33v-173h-36q-10 0-15-6t-5-15q0-9 4-15t14-7h38q0-11 1-27t3-32 9-27 16-10q11 0 20 6v5q0 3 0 7t0 7v71h64q10 0 14 7t4 16q0 8-5 14t-13 6h-64v166q0 19 9 27t22 8q12 0 19-4t12-9 9-9 11-4q8 0 13 5t5 13q0 15-12 25t-31 17-34 5m176-355q-15 0-26-11t-11-26 11-26 26-11 26 11 11 26-11 26-26 11m64 349h-119q-20 0-20-21 0-9 5-15t14-7h33v-197l-35 9q-1 1-3 1-8 0-14-6t-6-14q0-17 14-20l78-20q2 0 4 0 12 0 12 11v236h38q9 0 13 7t4 16q0 8-4 14t-14 6m202 0q-10 0-17-10t-11-21l-102-203h-28q-10 0-14-6t-5-16q0-9 5-15t15-6h113q9 0 13 6t5 15q0 9-4 15t-13 7h-28l77 167 72-167h-23q-10 0-14-7t-4-15q0-9 5-15t13-6h97q10 0 15 6t5 15q0 9-5 16t-14 6h-32l-91 205q-6 10-12 19t-18 10m343 6q-45 0-79-18t-55-51-19-78q0-44 18-78t51-52 78-19q25 0 48 8t42 25 29 39 11 49q0 12-5 17t-15 7-20 3l-185 5q0 32 13 54t37 33 53 11q21 0 35-5t26-14 22-19q7-6 16-6 10 0 16 6t7 16q0 15-13 28t-32 21-41 13-38 5m-102-177l146-3q7-1 13-3t5-8q0-23-9-37t-26-21-33-6q-43 0-68 21t-28 57" />
</svg>