<svg id="fnt-Dai Banna SIL" viewBox="0 0 2674 1000" xmlns="http://www.w3.org/2000/svg"><path id="dai-banna-sil" class="f" d="M18 667h-8v-13q16-3 24-7t8-6v-239q-8 2-16 3t-16 2l-2-16q14-4 34-7t40-5 40-2q65 0 102 36t37 102q0 42-12 71t-32 47-42 26-44 8h-15q-18 0-32 0t-29 0-37 0m107-21q19 0 40-13t35-40 14-69q0-60-28-93t-80-33q-5 0-10 0t-10 1v232q0 10 12 12t27 3m367-13l4 13q-19 13-34 20t-23 7q-8 0-13-11t-6-32v-120q0-14-7-24t-27-10q-13 0-24 9t-9 21q0 2-6 5t-14 5-16 4-11 1l-3-10q7-16 23-30t39-22 42-8q27 0 41 14t14 37v119q0 18 9 18 3 0 8-1t13-5m-69-93v18q-24 4-37 8t-20 7-11 9q-6 6-9 13t-4 18q0 17 8 22t15 5q12 0 26-6t32-22l1 20q-21 22-42 32t-36 9q-11 0-23-5t-18-16-8-29q0-16 6-27t14-19q7-8 18-14t31-12 57-11m171-157q0 14-9 23t-22 10q-11 0-17-6t-6-17q0-14 8-23t22-9q11 0 17 5t7 17m23 284h-103v-13q31-6 31-13v-123q0-15-2-23t-7-10-22-5v-12q16-2 33-7t29-10h11v190q0 2 7 6t23 7v13m370-80q0 38-30 60t-78 23q-14 0-32-1t-37-1-34-1l57-24q7 3 18 5t22 1q32 0 50-15t18-41q0-16-7-33t-23-27-42-11q-15 0-25 1t-21 4l-2-25h20q33 0 49-8t23-20 5-25q0-23-15-37t-57-14q-12 0-27 1t-32 3-28 4l-2-15q12-4 30-7t36-5 36-2q48 0 75 16t28 45q0 24-12 41t-34 25q31 6 51 29t20 54m-122 80h-106v-13q15-3 24-7t8-6v-246l44-5v251q0 3 7 7t23 7v12m358-34l4 13q-19 13-35 20t-22 7q-9 0-14-11t-5-32v-120q0-14-8-24t-27-10q-13 0-24 9t-9 21q0 2-6 5t-14 5-16 4-10 1l-4-10q7-16 24-30t38-22 42-8q28 0 41 14t14 37v119q0 18 9 18 4 0 8-1t14-5m-70-93v18q-23 4-36 8t-20 7-12 9q-6 6-9 13t-4 18q0 17 9 22t14 5q12 0 26-6t32-22l2 20q-21 22-42 32t-37 9q-11 0-22-5t-19-16-8-29q0-16 6-27t14-19q7-8 18-14t31-12 57-11m329 127h-103v-13q31-8 31-13v-113q0-26-6-34t-21-9q-12 0-30 11t-40 39v106q0 3 9 7t22 6v13h-103v-13q15-3 23-7t8-6v-132q0-12-2-17t-8-8-21-4v-12q18-2 32-6t29-11l8 9 3 46q22-27 46-41t43-14q19 0 34 13t16 40v137q0 3 6 6t24 7v13m259 0h-103v-13q31-8 31-13v-113q0-26-6-34t-21-9q-12 0-30 11t-39 39v106q0 3 8 7t22 6v13h-103v-13q15-3 23-7t8-6v-132q0-12-2-17t-8-8-21-4v-12q18-2 32-6t29-11l8 9 3 46q22-27 47-41t42-14q19 0 34 13t16 40v137q0 3 6 6t24 7v13m218-34l4 13q-19 13-34 20t-23 7q-8 0-14-11t-5-32v-120q0-14-7-24t-27-10q-13 0-24 9t-9 21q0 2-6 5t-15 5-15 4-11 1l-3-10q6-16 23-30t38-22 43-8q27 0 41 14t14 37v119q0 18 9 18 3 0 8-1t13-5m-70-93v18q-23 4-36 8t-20 7-11 9q-6 6-10 13t-3 18q0 17 8 22t15 5q12 0 26-6t31-22l2 20q-21 22-42 32t-36 9q-11 0-23-5t-19-16-7-29q0-16 6-27t14-19q7-8 18-14t31-12 56-11m371-107l-11-1q-12-18-26-24t-28-7q-24 0-34 12t-11 25q0 15 10 25t26 18 35 17 34 20 26 26 11 38q0 20-12 41t-34 36-59 14q-16 0-37-6t-36-15q-3-2-3-13t0-26 3-24l12 1q10 26 30 40t42 14q14 0 26-6t21-17 8-26q0-18-10-30t-26-21-34-16-34-18-26-24-10-36q0-14 9-31t30-29 56-13q21 0 42 6t28 15q2 1-2 9t-8 15-8 11m174 234h-108v-13q32-6 32-13v-231q0-3-8-7t-24-7v-12h108v12q-32 7-32 14v231q0 2 8 6t24 7v13m226-65l12 5q-1 19-4 36t-5 24h-199v-13q15-3 24-7t8-6v-231q0-3-8-7t-24-7v-12h108v12q-15 3-24 7t-8 7v217q0 8 9 13t33 4h29q14 0 22-3t15-13 12-26" />
</svg>