<svg id="fnt-Damion" viewBox="0 0 1524 1000" xmlns="http://www.w3.org/2000/svg"><path id="damion" class="f" d="M83 676q-10 0-16-6t-5-16q0-7 2-13t6-12l101-200q12-20 25-27t19-7q11 0 16 7t5 15q0 14-9 30-8 14-18 32t-27 48q-17 29-33 55t-33 48q39-4 74-25t62-51q27-30 42-63t15-62q0-32-17-53t-50-21q-21 0-42 5t-39 14-30 19q-11 12-17 21t-15 20q-7 8-15 14t-20 5q-21 0-21-19 0-17 17-38t44-39q28-19 65-31t76-12q42 0 70 16t40 44 13 61q0 34-15 71t-45 72-71 58q-32 18-71 29t-83 11m322-3q-9 0-20-5t-20-15-9-29q0-15 7-38t22-45q14-22 37-37t53-15q11 0 19 3t13 6q3 2 6 4t6 4l8-4q4-2 8-3t7-1q9 0 15 5t6 11q0 2 0 3-2 7-7 19t-9 26q-5 14-9 28t-4 21q0 8 3 12t8 5q7 0 19-8t25-20q7-6 14-13t15-14q4-4 7-4 5 0 9 5t3 11q0 7-5 11-9 9-20 20t-28 25q-16 13-33 22t-31 10q-17 0-25-14t-8-28q0-11 3-20-10 14-23 28t-30 24-32 10m19-43q8 0 20-10t23-24q12-14 19-26t7-16q0-10-11-15t-19-6q-15 0-29 10t-22 25-8 32q0 9 3 20t17 10m181 43q-9 0-14-6t-5-13q0-6 7-24t16-38q10-21 19-41t14-33q5-10 12-15t14-5q6 0 11 4t5 13q0 6-3 14 9-8 19-17t24-16 32-7q14 0 24 7t11 24q12-12 27-21t36-10q17 0 29 8t12 26q0 14-6 27t-16 25q-4 4-11 12t-12 17-6 17q0 6 3 7t9 2q10 0 22-6t23-15 22-18 15-16q3-3 8-3t8 4 3 10q0 5-3 11t-10 11q-17 17-35 31t-38 24-38 10q-18 0-29-9t-11-27q0-16 8-31t19-27 17-23q2-4 4-8t1-7q0-9-8-9-15 0-28 9t-25 23q-12 14-22 28t-16 27q-5 8-10 21t-12 23-17 10q-7 0-13-4t-7-11q0-16 10-34t23-35 22-33q2-4 3-8t2-7q0-9-9-9-14 0-28 9t-25 23q-12 14-21 28t-17 27q-4 8-9 21t-12 23-18 10m409-200q-15 0-21-5t-7-13q0-11 9-22t25-11q14 0 19 5t6 14q0 9-7 21t-24 11m-60 200q-19 0-31-10t-11-32q0-15 5-30t13-27 10-23q1-3 4-10t7-14l8-17q4-6 10-9t11-3q9 0 16 6t6 15q0 2 0 4t-2 5q-5 9-9 18t-8 17q-4 7-9 17t-9 21-4 18q0 7 4 9t9 2q10 0 22-6t22-15q12-9 21-19t14-15q5-5 10-5 4 0 7 4t3 10q0 6-3 12t-9 12q-16 17-34 31t-36 24-37 10m126 0q-10 0-22-5t-21-17-9-30q0-16 7-38t22-43q15-22 39-36t55-15q12 0 26 5t24 15 10 30q0 16-8 37 5 5 13 5 7 0 17-6t20-15q10-9 18-18t13-14q2-1 4-1 6 0 8 6t-1 18-16 21q-7 8-18 19t-23 20-25 9q-13 0-24-9-18 29-46 45t-63 17m21-43q16 0 29-10t22-26 8-32q0-6-1-13t-6-12-15-5q-15 0-29 10t-21 25-9 32q0 6 2 13t6 13 14 5m147 43q-8 0-13-6t-5-13q0-6 7-24t17-37q13-26 22-45t15-30q4-10 12-15t14-5q6 0 11 4t4 13q0 3 0 6t-3 8q7-9 22-18t33-16 32-6q12 0 21 6t9 22q0 12-6 27t-13 28q-9 15-16 26t-11 18q-3 4-3 9 0 5 5 5 2 0 4-1t5-2q19-7 37-18t33-21 25-20q4-3 7-3 9 0 9 11 0 7-5 17t-15 17q-17 13-33 24t-33 19-41 16q-12 4-21 4-25 0-25-28 0-1 0-3t0-3q1-11 8-26t16-29q8-13 14-25t7-18q0-9-8-9-16 0-30 9t-26 23-23 29-18 27q-5 9-11 22t-12 21-18 10" />
</svg>