<svg id="fnt-Darker Grotesque" viewBox="0 0 3196 1000" xmlns="http://www.w3.org/2000/svg"><path id="darker-grotesque" class="f" d="M57 647v-241h54q42 0 73 13t48 39 17 68q0 37-9 60t-28 37-44 19-57 5q-6 0-18 0t-36 0m217-121q0-47-21-78t-58-47-88-16q-6 0-23 0t-50 0v282q32 0 49 0t24 0q51 0 88-12t58-43 21-86m107 145q-28 0-47-14t-27-38-9-52q0-31 9-54t28-38 46-13q15 0 26 4t21 10 15 15 10 18h0v-45h24v203h-19l-4-42h-1q-4 9-11 17t-15 15-20 10-26 4m8-21q22 0 36-10t21-29 7-44q0-28-7-46t-22-28-35-9q-23 0-39 11t-22 29-7 43q0 24 7 43t23 30 38 10m155 17h-22v-203h19l4 58-1 44v101m0-98l-1-44q1-12 6-23t15-20 23-13 33-5h11v25h-11q-26 0-41 6t-23 17-10 26-2 31m143-184v282h-23v-282h23m39 176l16-16 99 122h-28l-87-106m114-97l-157 151v-29l126-122h31m117 208q-32 0-54-16t-31-40-10-50q0-27 11-50t32-38 52-14q25 0 45 11t32 31 13 49q1 2 1 6t0 6h-164q0 39 19 62t54 23q26 0 44-14t24-36h22q-3 20-16 36t-31 25-43 9m-72-120h139q0-9-4-21t-12-23-21-18-30-7q-17 0-29 6t-22 15-14 22-7 26m233 115h-22v-203h19l4 58-1 44v101m0-98l-1-44q1-12 6-23t15-20 23-13 33-5h11v25h-11q-26 0-41 6t-23 17-10 26-2 31m362 104q-40 0-70-17t-46-50-15-79q0-46 16-79t47-51 73-17q51 0 84 25t41 72l-22 2q-6-27-20-44t-35-25-48-8q-56 0-86 33t-29 91q0 60 30 93t84 33q30 0 52-11t37-33 16-51h-86v-19h112v129h-17l-5-69h-1q-3 11-11 24t-21 24-33 20-47 7m205-6h-23v-203h20l3 58 0 44v101m0-98l-2-44q1-12 6-23t15-20 24-13 32-5h11v25h-11q-25 0-41 6t-22 17-10 26-2 31m198 103q-31 0-53-14t-31-36-11-54q0-30 11-54t31-37 53-13q46 0 70 28t25 76q0 29-10 53t-31 37-54 14m0-21q28 0 44-12t21-32 7-39q0-21-7-40t-21-32-44-12q-27 0-43 12t-23 32-6 40q0 20 6 39t23 32 43 12m223 16h-44q-16 0-21-9t-4-22v-158h22v169h47v20m0-185h-103v-18q14 0 21-1t10-6 3-16 1-30h21v53h47v18m126 190q-33 0-54-16t-32-40-10-50q0-27 11-50t32-38 52-14q26 0 45 11t32 31 14 49q0 2 0 6t0 6h-164q0 39 19 62t55 23q25 0 44-14t23-36h23q-4 20-16 36t-32 25-42 9m-72-120h139q-1-9-5-21t-11-23-21-18-31-7q-16 0-29 6t-21 15-14 22-7 26m284 120q-20 0-35-6t-24-15-15-18-8-18-2-12h23q0 1 1 8t7 18 18 17 35 8q17 0 30-4t22-12 8-22q0-16-11-25t-26-13-33-8-34-9-25-18-10-31q1-24 23-39t56-15q13 0 28 3t26 11 20 20 7 34h-22q0-15-6-25t-15-15-20-6-19-2q-24 0-40 9t-16 26q0 14 10 22t26 12 33 8 34 10 26 19 10 33q0 20-11 32t-29 17-42 6m205 0q-29 0-49-14t-31-37-11-53q0-30 11-53t31-38 49-13q21 0 35 7t23 17 13 18 6 13h1l4-55h19v283h-23v-129h-1q-1 2-6 11t-14 19-23 17-34 7m3-22q20 0 37-9t27-29 10-44-10-45-25-28-36-9q-25 0-42 11t-24 31-8 40q0 20 7 39t23 31 41 12m220 22q-19 0-33-6t-22-15-14-23-7-27-2-31v-106h22v106q0 22 5 41t18 29 39 11q24 0 38-12t21-29 8-37v-109h24v203h-19l-4-49h-1q-3 8-8 17t-15 18-21 13-29 6m232 0q-32 0-54-16t-31-40-10-50q0-27 11-50t32-38 52-14q25 0 45 11t32 31 13 49q1 2 1 6t0 6h-164q0 39 19 62t54 23q26 0 44-14t24-36h22q-3 20-16 36t-31 25-43 9m-72-120h139q0-9-4-21t-12-23-21-18-30-7q-17 0-29 6t-22 15-14 22-7 26" />
</svg>