<svg id="fnt-Dela Gothic One" viewBox="0 0 4678 1000" xmlns="http://www.w3.org/2000/svg"><path id="dela-gothic-one" class="f" d="M180 298q94 0 149 23t76 63 22 99q0 55-25 97t-75 64-123 23q-45 0-91 0t-93-1q4-98 4-183 0-86-4-180 60-5 160-5m-35 269h73q46 0 62-22t15-62q0-38-16-62t-61-23q-49 0-73 3v166m648-25h-62-163q4 22 20 35t45 14q21 0 39-8t30-23q33 16 89 35-16 35-57 56t-106 21q-85 0-126-40t-40-103q0-62 40-101t126-39q51 0 89 17t57 47 20 69q0 13-1 20m-158-78q-25 0-41 10t-22 26h118q-6-16-20-26t-35-10m312 3q-1 30-1 92 0 74 1 108h-118l1-57q1-93 1-143 0-48-1-136l-1-54h118q-1 71-1 116 0 50 1 74m361 57v60q0 17 4 24t16 10l-2 47q-16 2-28 3t-31 1q-43 0-57-19t-14-49v-13q-15 41-43 61t-70 20q-50 0-76-20t-25-59q0-33 22-51t66-26q-38-27-76-47 30-38 69-58t93-19q77 0 114 33t38 102m-141-47q-26 0-45 8t-35 26q30-4 75-4 18 0 26-4t7-12q0-6-7-10t-21-4m-53 111q28 0 51-11t31-28v-13q-12 6-27 9t-35 6l-18 3q-28 6-28 19 0 15 26 15m550-47v-81h213v207h-88l-10-89q-15 48-54 71t-94 23q-50 0-90-23t-61-64-22-98q0-90 53-142t167-52q64 0 113 21t84 65q-22 12-88 46l-12 7q-20-19-46-29t-55-10q-48 0-71 25t-24 63q0 40 25 64t78 25q22 0 43-7t36-22h-97m414 131q-85 0-126-40t-40-103q0-62 40-101t126-39q58 0 96 18t58 51 18 71q0 65-43 104t-129 39m2-85q33 0 49-16t16-41q0-25-16-41t-49-15-47 15-15 41q0 26 15 41t47 16m432-192v88q-46-3-84-4l-1 53q0 27 12 42t42 15q11 0 22-2-2 19-2 38 0 9 1 41-22 4-37 5t-39 1q-59 0-83-29t-24-78l0-85q-23 1-49 3v-88q26 0 44-17t22-39h136q-26 35-57 56h97m337 272h-112q3-74 3-136 0-22-11-35t-27-13q-18 0-30 17t-12 47l-1-1q0 81 2 121h-119q4-72 4-195t-4-195h119l0 154 0 26q12-35 35-52t54-16 52 13 33 36 12 50v72q0 67 2 107m107-303q-31 0-47-15t-15-41q0-24 15-40t47-16q30 0 46 16t16 40q0 25-15 41t-47 15m61 303h-119q4-81 4-133 0-63-4-140h120q-4 74-4 140 0 55 3 133m148-137q1 26 16 41t45 16q17 0 30-7t24-18q42 16 99 28-16 39-56 60t-101 22q-84 0-124-39t-40-103 40-102 124-39q62 0 101 21t56 60q-44 10-99 29-11-13-24-19t-30-6q-30 0-45 15t-16 41m574 142q-114 0-168-50t-54-140q0-89 53-139t169-50q116 0 169 50t54 139q0 91-53 140t-170 50m0-102q56 0 80-22t25-66q0-44-25-65t-80-22q-55 0-79 22t-25 65q0 45 25 66t79 22m571 97h-113q3-74 3-136 0-22-11-35t-27-13-28 15-13 40q-1 38-1 54 0 34 2 75h-120q4-72 4-136t-4-137q33 1 51 1 18 0 50-1l15 73q11-40 36-59t57-19q30 0 52 13t33 36 11 50v72q0 67 3 107m366-125h-62-163q4 22 20 35t45 14q21 0 39-8t30-23q33 16 89 35-16 35-57 56t-106 21q-85 0-126-40t-40-103q0-62 40-101t126-39q51 0 89 17t57 47 20 69q0 13-1 20m-158-78q-25 0-41 10t-22 26h118q-6-16-20-26t-35-10" />
</svg>