<svg id="fnt-Delius" viewBox="0 0 1349 1000" xmlns="http://www.w3.org/2000/svg"><path id="delius" class="f" d="M56 625l1-142-2-143q-24 0-24-19 0-17 33-26t74-8 79 17 61 45q48 58 48 136 0 75-46 130-23 27-59 43t-83 16-78-11-31-27q0-6 3-10t11-4 13 3m193-253q-18-22-48-36t-68-13q-18 0-37 4-3 39-3 144t3 165q12 3 42 3 71 0 110-46t39-110-38-111m241 160q34 0 54-11t20-31-13-34-38-14q-33 0-55 24t-29 58q27 8 61 8m19-123q40 0 65 23t26 58-32 55-76 19q-26 0-64-8 3 35 26 60t52 26q17 0 32-5t22-10q20-16 26-16t10 4 4 9q0 14-29 32t-62 18q-52 0-83-36t-33-88q-26-8-26-26 0-8 4-12t10-4 15 4q11-45 42-74t71-29m190-97l-2 167 2 168q0 25-19 25t-19-25l3-168-3-167q0-25 19-25t19 25m96-8q10 0 15 7t5 17-7 20-17 11-16-7-5-19 7-20 18-9m16 133l-2 105 2 105q0 25-19 25t-19-25l3-105-3-105q0-25 19-25t19 25m113 16l-4 110q0 34 14 55t40 21 50-29 34-64l-2-109q0-25 19-25 23 0 23 35t-10 99q0 37 6 61t13 27q3 1 7 2t6 1 2 4q0 14-9 22t-20 9q-32 0-32-64-37 64-93 64-40 0-62-30t-22-73l3-75q0-20-4-38t-4-24 6-14 16-6q23 0 23 41m424 142q0 34-28 55t-66 22-67-18-29-35q0-8 5-13t10-4 9 2 10 9 10 11 20 10 27 5q28 0 45-11t18-33q0-26-50-43-20-7-41-16t-35-22-15-35q0-27 25-47t60-20 56 12 21 26q0 16-18 16-7 0-15-5-23-17-45-17t-35 10-13 22 14 22 35 17 42 16 36 26 14 38" />
</svg>