<svg id="fnt-Delius Unicase" viewBox="0 0 4577 1000" xmlns="http://www.w3.org/2000/svg"><path id="delius-unicase" class="f" d="M63 611l1-132-2-130q-22-2-22-21t39-31 82-12 79 16 58 45q46 57 46 135 0 76-44 132-21 28-57 44t-84 17-85-12-36-32q0-19 25-19m233-134q0-61-36-105t-103-44q-29 0-46 8-1 31-1 135t2 153q18 7 51 7t58-13 42-35q33-45 33-106m382-87q0-23-20-43t-52-19-59 20q-47 36-61 108 38 11 86 11t77-20 29-57m36 224q0 17-36 39t-76 21-72-15-50-42q-40-54-43-126-36-11-36-36 0-10 5-16t14-5 21 6q15-67 58-112t105-44q50 0 86 31t36 73-22 71q-42 50-129 50-36 0-90-10 5 54 36 93t74 39 81-25q17-9 22-9t11 5 5 12m96 26l2-163q0-66-2-108t-1-47q0-35 25-35t26 35q0 4-1 26-2 63-2 116t0 82 2 51 1 26q24 3 52 3t54-2 35-2 16 6 9 18-9 17-21 6l-75-2-81 2q-15 0-23-6t-7-23m426-304l-41-2q-2 49-2 139t3 152l40-2q14 0 22 6t8 17-8 17-22 7l-65-3-66 3q-13 0-22-7t-8-17 8-17 22-6l41 3q2-61 2-152t-2-140l-41 2q-13 0-22-6t-8-18 8-17 22-6l66 3 65-3q14 0 22 6t8 17-8 18-22 6m157 8l-5 166q0 54 18 87t57 34 74-45 42-99l-2-164q0-35 26-35 31 0 31 51t-14 148q0 55 7 93t18 43q4 2 10 2t8 3 3 5q0 19-11 30t-28 11q-43 0-43-86-50 86-126 86-40 0-68-22-50-42-50-134l4-119q0-27-5-50t-6-34 8-18 21-9q31 0 31 56m582 221q0 46-35 78t-91 31q-44 0-81-21t-38-41q0-9 6-15t15-6 19 6 18 14 24 13 37 7q34 0 56-18t22-48q0-21-19-39t-46-34-54-31-46-38-19-49q0-37 32-63t76-27 74 15 30 34q0 9-6 15t-16 5-19-6-24-13-37-7-43 13-19 32 19 35 46 32 54 31 46 41 19 54m506-23q-1 56-35 94t-99 38-99-38-35-94q-1-26-1-64t-1-74-1-57-1-25q0-35 26-35t25 35q0 4-1 32-2 83-2 130t4 68 13 40q19 39 73 39 76 0 87-89 3-17 3-47t-1-72-2-69 0-32q0-35 25-35t26 35q0 4-1 26-2 63-2 116t-1 78m387-124l-4 141q0 19 1 29t4 20 10 13q4 2 10 3t8 2 2 6q0 17-11 29t-26 12q-26 0-36-20t-9-60l3-142q0-54-19-87t-56-33-70 44-47 99l2 164q0 35-25 35-31 0-31-53t13-146q0-32-6-88t-5-68 7-22 19-9 19 9 7 21 0 27 0 28q49-85 124-85 55 0 85 38t31 93m254-82l-41-2q-2 49-2 139t3 152l40-2q14 0 22 6t8 17-8 17-22 7l-65-3-66 3q-13 0-22-7t-8-17 8-17 22-6l41 3q2-61 2-152t-2-140l-41 2q-13 0-22-6t-8-18 8-17 22-6l66 3 65-3q14 0 22 6t8 17-8 18-22 6m374 278q0 18-38 39t-87 21q-72 0-119-57t-48-138 48-138 120-57q44 0 78 17t35 37q0 10-6 16t-16 6-27-12q-32-20-64-20-52 0-86 44t-34 106 34 107 83 46 89-25q17-9 22-9t11 5 5 12m350-131q0 56 7 95t18 44q4 2 10 2t8 3 2 5q0 18-10 30t-26 11q-22 0-33-25t-11-64q-27 42-56 66t-66 24-61-17-40-45q-30-58-30-127 0-82 43-141t110-60q26 0 50 10t42 25q0-35 25-35 32 0 32 51 0 37-14 148m-39 6l-3-122q-43-39-93-39-42 0-73 44t-32 109 22 107 59 43 75-48 45-94m394 76q0 46-36 78t-91 31q-43 0-81-21t-37-41q0-9 6-15t15-6 19 6 17 14 24 13 37 7q34 0 56-18t23-48q0-21-19-39t-46-34-54-31-46-38-19-49q0-37 32-63t75-27 74 15 31 34q0 9-6 15t-16 5-20-6-23-13-38-7-42 13-19 32 19 35 46 32 54 31 46 41 19 54m327-175q0-23-19-43t-53-19-59 20q-47 36-60 108 38 11 85 11t77-20 29-57m36 224q0 17-35 39t-77 21-71-15-50-42q-41-54-44-126-36-11-36-36 0-10 6-16t13-5 21 6q16-67 58-112t105-44q51 0 86 31t36 73-22 71q-41 50-129 50-36 0-89-10 4 54 35 93t75 39 81-25q16-9 22-9t10 5 5 12" />
</svg>