<svg id="fnt-Della Respira" viewBox="0 0 2914 1000" xmlns="http://www.w3.org/2000/svg"><path id="della-respira" class="f" d="M154 667h-123q-3 0-3-5t1-5 3-1 5-4 7-12 3-16v-315q0-17-12-29-1-1-4-3t-3-6 3-4h111q59 0 114 32 38 23 64 65t25 101q0 39-14 75t-39 64-60 45-78 18m-60-356v308q0 9 15 9h28q99 0 137-67 23-40 23-96 0-68-38-112-19-22-50-35t-72-12h-37q-2 0-4 1t-2 4m453 186l0 0q-14-41-62-41-22 0-40 11t-27 30-10 34 1 15l138-48v-1m51 9l-184 66q11 29 36 45t56 17q41 0 74-38 5-5 15 5 1 1 0 2-28 39-43 49-27 19-61 19-23 0-45-9-44-20-63-63-10-22-10-52t15-58 44-44 67-16q46 0 81 42 18 22 18 35m39-198l1-5q0-1 1-2t2-1l44-33q1 0 2 0 11 0 11 7v350q0 2 0 5t0 5q1 17 10 19 9 4 9 7 0 7-4 7h-71q-4 0-4-5t2-5 6-3 5-3 3-4 2-4 1-5 0-4v-306q0-9-3-12t-8-3-6-2q-3-1-3-3m130 0l0-5q0-1 1-2t2-1l44-33q1 0 2 0 11 0 11 7v350q0 2 0 5t0 5q1 17 10 19 9 4 9 7 0 7-3 7h-72q-3 0-3-5t2-5 5-3 5-3 3-4 2-4 1-5 1-4v-306q0-9-4-12t-8-3-6-2q-2-1-2-3m158 297q0 16 14 24t29 9 22-2 15-4q14-6 25-12 0 0 11-7l-14-65q-9 4-22 8l-23 7q-57 17-57 42m97-82q-7-67-38-67-20 0-34 14t-14 33l2 10q0 2-5 6t-6 2l-29-36q0-3 6-7t9-8l6-5q13-13 18-17l12-7q18-12 39-12 32 0 48 17 11 12 16 23t6 19q4 15 7 35l2 19q2 11 3 21t3 13 2 12 4 15q5 18 12 26t15 9 12-5q6-9 9-9 1 0 5 3t3 5-7 12-18 18-14 10q-15 0-29-13t-17-26q-8 8-28 18-38 21-61 21t-39-7-26-20-10-29 4-25 11-17 16-13 20-11q21-8 47-15t38-12m397-216h-45q-5 0-9 3t-3 9v305q0 18 12 29 1 1 4 3t3 6-3 5h-79q-4 0-4-5t2-5 3-1 5-4 6-12 3-16v-315q0-17-11-29-1-1-4-3t-4-5 4-5h125q54 1 90 23t36 74q0 59-62 87-23 11-35 12t-12 2l7 4q5 3 21 15t30 27 35 41 30 44l20 35q11 21 19 22t7 8-3 6h-79q-4 0-4-5t2-5 3-1 3-3 1-6-1-6q-18-46-49-88-57-77-98-83-6-1-6-1 0-4 0-12v-15q0-2 2-2 60 0 94-24 26-19 26-50t-25-45-57-14m382 190l1 0q-15-41-63-41-21 0-40 11t-27 30-10 34 1 15l138-48v-1m52 9l-185 66q11 29 36 45t56 17q41 0 74-38 5-5 15 5 1 1 0 2-28 39-43 49-26 19-61 19-23 0-45-9-44-20-63-63-10-22-10-52t15-58 44-44 67-16q46 0 81 42 19 22 19 35m181-22q0 2-5 2t-6 0q-2 0-4-4-5-13-22-21t-34-8-28 8-12 20 11 21 22 14 15 9l23 13q32 17 42 36 7 13 7 32t-11 35q-21 31-71 31-25 0-61-9-1-1-4-1t-4-1-2-6-4-17-2-17 0-4 1-1 3-2 2-1 2 0q6-2 10 5t28 16 39 9 27-8 11-23q0-20-24-32l-44-23q-18-10-24-16-15-13-21-25t-6-27q0-30 22-45t60-15q18 0 38 3t26 7q0 1 1 19t-1 26m45-9l0-5q0-1 2-2t1-1l44-32q1-1 6-1t6 1 2 7v20q5-7 20-16 29-17 54-17 51 0 85 35t33 87-35 85-89 35q-37 0-68-22v76q0 1 0 5t0 5q1 16 10 19t9 7q0 6-3 6h-73q-3 0-3-4t2-6 5-2 5-3q8-7 7-17t0-10v-230q0-8-4-12t-8-3-6-1q-2-2-2-4m190 20q-11-14-30-22t-44-8-55 30v96q14 24 37 38t47 14 39-11 23-27 7-38-6-39-18-33m146-183v20q0 3-1 4t-10 4-14 6-7 3-4 0-1-9v-24q0 0 0-2t0-2 0-1 1-2 11-5 13-5q10-5 11-4t1 17m17 355h-72q-4 0-4-5t2-5 6-3q11-5 12-23v-136q0-8-4-11t-8-4-7-2-1-5 0-4 1-1 2-1l44-32q1-2 2-1t6 2 5 6v190q0 18 12 22 7 3 7 6 0 7-3 7m47-192l0-5q0-1 1-2t2-1l44-32q1-1 5-1t7 1 1 7v42q2-3 4-6 18-22 37-34t43-12q8 0 9 2 4 11 7 21l7 29q1 3-4 6t-7 2-5-5l-2-4q-13-12-31-10t-33 13-23 22q0 1-1 2t-1 2v112q0 1 0 5t0 5q2 16 11 19t8 7q0 7-3 7h-72q-3 0-3-5t2-5 5-3 4-3q4-3 6-8t2-12 0-7v-129q0-8-4-12t-8-3-6-1q-2-2-2-4m223 130q0 16 14 24t29 9 22-2 15-4q14-6 25-12 0 0 11-7l-14-65q-9 4-22 8l-23 7q-57 17-57 42m98-82q-8-67-39-67-20 0-34 14t-14 33l2 10q0 2-5 6t-6 2l-28-36q0-3 5-7t9-8l6-5q13-13 18-17l12-7q18-12 39-12 32 0 48 17 11 12 16 23t6 19q4 15 7 35l2 19q2 11 4 21t2 13 2 12 4 15q5 18 12 26t15 9 12-5q6-9 9-9 2 0 5 3t3 5-7 12-18 18-13 10q-16 0-30-13t-17-26q-8 8-28 18-38 21-61 21t-38-7-27-20-10-29 4-25 11-17 16-13 20-11q21-8 47-15t39-12" />
</svg>