<svg id="fnt-Denk One" viewBox="0 0 1988 1000" xmlns="http://www.w3.org/2000/svg"><path id="denk-one" class="f" d="M147 667h-79q-18-1-22-4t-5-13l-10-376q-1-8 2-13t13-5 28-2h72q66 0 95 22t27 65l-7 247q-1 36-28 57t-86 22m4-371h-32l-10 331h40q24 0 32-8t8-28l-7-262q0-21-8-27t-23-6m279 374q-25 0-47-7t-37-22-16-42l-5-155q-1-26 14-42t40-24 52-8q26 0 49 8t39 24 13 42l-3 91q-1 9-7 11t-28 2h-95l-2 53q0 19 8 26t24 7q16 0 24-6t7-25v-7q0-9 6-13t27-3 28 3 6 13v10q0 26-14 40t-37 18-46 6m-28-230l-2 72h60l-3-72q0-20-8-26t-18-6q-12 0-20 6t-9 26m224 227q-21 0-26-3t-6-11l-8-262q0-10 6-14t32-4 31 4 6 14l-1 15q14-16 30-26t37-10q30 0 50 21t19 58l-6 204q0 9-6 11t-26 3-26-3-6-11l-6-197q0-19-8-25t-19-7q-9 0-17 5t-12 12l-6 212q0 9-6 11t-26 3m269 0q-21 0-26-3t-6-11l-8-389q0-8 2-11t11-6 27-1q17 0 26 1t11 6 2 11l-7 389q-1 9-6 11t-26 3m131 0q-19 0-24-3t-9-11l-48-119 36-145q3-10 11-13t32-3q23 0 29 2t6 10q0 3-1 6t-3 9l-45 134 41 111q4 12 4 14 0 5-5 6t-24 2m312 3q-39 0-63-11t-36-28-12-39l-7-259q-1-36 27-59t91-23 92 23 27 59l-8 259q0 21-11 39t-36 28-64 11m0-40q22 0 31-8t9-28l-7-268q-1-22-9-27t-24-6-23 6-9 27l-7 268q0 21 9 28t30 8m217 37q-20 0-26-3t-5-11l-8-262q0-10 6-14t31-4 31 4 6 14l0 15q14-16 29-26t38-10q30 0 49 21t19 58l-6 204q0 9-6 11t-26 3-26-3-5-11l-6-197q-1-19-8-25t-20-7q-9 0-16 5t-12 12l-7 212q0 9-5 11t-27 3m329 3q-25 0-47-7t-37-22-16-42l-5-155q-1-26 14-42t40-24 52-8q26 0 50 8t38 24 13 42l-3 91q-1 9-7 11t-28 2h-95l-2 53q0 19 8 26t25 7q15 0 23-6t7-25v-7q0-9 6-13t28-3 27 3 6 13v10q0 26-14 40t-37 18-46 6m-28-230l-2 72h60l-3-72q0-20-8-26t-18-6q-12 0-20 6t-9 26" />
</svg>