<svg id="fnt-Diplomata SC" viewBox="0 0 6773 1000" xmlns="http://www.w3.org/2000/svg"><path id="diplomata-sc" class="f" d="M463 667h-428v-22h60q23 0 39-12t16-42v-173q0-15-8-28t-19-19-28-8h-60v-21h382q46 0 90 5t84 16 68 30 47 45 17 60q0 35-13 61t-34 45-48 31-57 19-57 10-51 3m-280-304v282h33v-282h-33m203 282h46q23 0 39-12t26-32 14-45 4-51q0-40-10-72t-34-51-67-18q-28 0-44 13t-16 36v181q0 23 10 37t32 14m130-5l1 2q38-22 61-54t22-83-22-83-61-54l-1 1q21 29 32 63t12 73q0 38-12 72t-32 63m620 27h-365v-22h53q19 0 32-10t13-34v-147q0-18-13-31t-32-14h-53v-21h365v21h-53q-19 0-32 14t-13 31v147q0 25 13 34t32 10h53v22m-236-258v236h26v-236h-26m676 258h-364v-22h53q19 0 32-10t13-34v-147q0-18-13-31t-32-14h-53v-21h430q24 0 50 2t49 11 38 23 14 42q0 30-17 47t-48 25-69 8h-158q-11 0-17 6t-5 22v27q0 25 13 34t31 10h53v22m-235-258v236h25v-236h-25m158 115h43q8 0 20-3t22-10 18-17 8-27q0-17-8-28t-18-17-22-10-20-3h-43q-8 0-14 6t-6 15v74q0 8 6 14t14 6m136-4l2 1q14-6 25-22t11-32q0-18-11-33t-25-22l-2 2q6 11 8 24t3 29q0 14-3 27t-8 26m698 147h-497v-22h53q18 0 31-10t13-34v-147q0-18-13-31t-31-14h-53v-21h384v21h-73q-18 0-32 14t-13 31v147q0 18 9 31t36 14q21 0 49-8t59-31 62-65h16v125m-368-258v236h25v-236h-25m661 269q-57 0-107-12t-88-33-59-48-21-58q0-31 19-59t55-47 87-33 114-11 113 11 87 33 55 47 19 59q0 31-21 58t-59 48-88 33-106 12m-94-22l1-4q-37-10-66-28t-46-43-16-54q0-30 16-55t46-42 66-28l-1-3q-47 9-83 28t-58 43-20 57 20 56 57 44 84 29m94 0q42 0 66-32t23-96q0-43-8-72t-27-43-54-14q-35 0-55 14t-27 43-8 72q0 63 24 96t66 32m97-8l2 1q26-22 41-54t15-68q0-37-15-68t-41-54l-2 2q11 27 17 57t7 63q0 32-7 62t-17 59m503 19h-298v-22q21 0 45-5t43-17 33-30 13-45v-45q0-22-12-39t-31-30-45-18-51-7v-21h276l130 110q18-27 35-55t36-55h292v21h-73q-18 0-32 7t-13 26v159q0 25 13 34t32 10h73v22h-383v-22h52q19 0 32-10t13-34v-169q-32 50-64 100t-64 99h-23l-163-137v54q0 27 13 45t33 30 44 17 44 5v22m34-75h9v-25q-46-39-94-79t-93-79h-38q54 46 108 92t108 91m177-183v236h25v-236h-25m452 258h-188v-22q20 0 35-5t24-12 15-12 5-5l127-162-14-18q-6-7-11-12t-15-7-26-3h-35v-21h246l207 257h49v22h-322v-22h33q10 0 17-4t7-12q0-11-12-26l-15-19h-187q-12 19-12 34 0 13 9 20t22 7h41v22m30-258l191 236h30l-190-236h-31m2 56l-76 98h154l-78-98m802 202h-364v-22h53q19 0 32-10t13-34v-172q0-9-4-14t-10-6q-8 0-21 10t-25 26-26 31-19 25-8 11h-18l7-124h416l7 124h-18t-7-11-20-25-25-31-26-26-20-10q-8 0-11 6t-4 14v172q0 24 13 34t32 10h53v22m-235-258v236h25v-236h-25m474 258h-188v-22q20 0 35-5t24-12 15-12 5-5l127-162-14-18q-6-7-11-12t-15-7-26-3h-35v-21h246l207 257h49v22h-322v-22h33q10 0 17-4t7-12q0-11-12-26l-15-19h-187q-12 19-12 34 0 13 9 20t22 7h41v22m30-258l191 236h30l-190-236h-31m2 56l-76 98h154l-78-98m928 212q-47 0-85-5t-75-13-78-21l-14 29h-23v-141h23q7 15 24 32t45 35 60 32 70 23 76 9q20 0 39-2t32-7 13-16q0-11-16-20t-44-16-61-15-70-16-70-20-61-25-43-34-16-43q0-33 15-54t40-33 56-17 63-6 61-1q26 0 59 2t68 8 66 10 56 11l9-21h24v105h-24q-7-10-28-23t-49-25-62-23-65-17-58-7-45 6-19 21q0 13 16 22t41 14 59 11 68 11 67 16 59 24 42 35 16 52q0 60-68 87t-193 26m164-44l2-1v-11q0-26-16-42t-45-25-64-16-75-17q-35-8-69-19t-61-24-47-32-23-44l-3 0q-3 6-5 16t-2 19q0 35 42 60t132 48q55 14 94 23t66 16 45 19 29 30m477 45q-64 0-122-10t-103-31-71-55-26-79q0-38 18-67t49-49 70-33 82-18 85-6q51 0 96 11t84 26v-25h24v119h-24q-10-18-28-38t-44-35-53-26-57-10q-29 0-46 9t-23 26-7 37v137q0 50 22 73t76 23q47 0 81-10t57-21 37-22 20-9q4 0 8 2t4 8q0 8-13 18t-39 23q-25 12-63 22t-94 10m-155-41l1-2q-28-12-51-30t-38-43-14-55q0-35 14-62t38-46 51-32l-1-3q-40 11-71 33t-49 49-17 61q0 29 17 55t49 45 71 30" />
</svg>