<svg id="fnt-Diplomata" viewBox="0 0 5062 1000" xmlns="http://www.w3.org/2000/svg"><path id="diplomata" class="f" d="M463 667h-428v-22h60q23 0 39-12t16-42v-173q0-15-8-28t-19-19-28-8h-60v-21h382q46 0 90 5t84 16 68 30 47 45 17 60q0 35-13 61t-34 45-48 31-57 19-57 10-51 3m-280-304v282h33v-282h-33m203 282h46q23 0 39-12t26-32 14-45 4-51q0-40-10-72t-34-51-67-18q-28 0-44 13t-16 36v181q0 23 10 37t32 14m130-5l1 2q38-22 61-54t22-83-22-83-61-54l-1 1q21 29 32 63t12 73q0 38-12 72t-32 63m408-281q-28 0-51-8t-38-23-13-31q0-18 13-32t38-23 51-8q29 0 52 8t37 23 14 32q0 17-14 31t-37 23-52 8m-40-19q-8-8-13-20t-5-23q0-13 5-25t13-19q-18 7-30 18t-12 26 12 25 30 18m205 327h-324v-22h33q18 0 31-10t14-34v-147q0-18-14-32t-31-13h-33v-21h246v213q0 24 13 34t32 10h33v22m-215-258v236h25v-236h-25m581 358h-336v-22h33q18 0 31-10t14-34v-247q0-25-13-35t-32-10h-33v-21h247v34q16-14 39-24t47-16 50-5q44 0 76 11t54 32 32 46 10 53q0 29-12 57t-35 51-57 37-78 14q-35 0-68-10t-58-32v65q0 24 11 34t29 10h49v22m10-124l2 3q31-9 48-28t25-44 7-55q0-43-21-73t-59-42l-2 5q27 13 42 42t14 68q0 27-5 52t-17 43-34 29m-237-234v336h25v-336h-25m200 227q24 0 37-15t19-42 6-60q0-52-17-78t-45-26q-20 0-36 11t-26 27v151q4 5 13 13t22 13 27 6m621 31h-325v-22h33q19 0 32-10t13-34v-228q0-18-13-32t-32-13h-33v-21h247v294q0 24 13 34t32 10h33v22m-216-339v317h26v-317h-26m506 350q-53 0-100-12t-81-33-55-48-19-58q0-33 18-61t53-47 81-31 103-11 102 11 81 31 52 47 19 61q0 31-20 58t-54 48-81 33-99 12m-74-22l1-5q-55-16-86-49t-31-75 31-75 86-49l-1-4q-46 10-80 29t-52 44-18 55q0 44 40 78t110 51m74 0q37 0 53-30t16-99q0-70-16-99t-53-29-54 29-16 99q0 70 16 99t54 30m77-8l2 1q27-23 41-55t15-67-14-67-42-55l-2 2q24 60 24 120 0 61-24 121m537 19h-310v-22h33q22 0 34-11t11-33v-147q0-18-13-32t-32-13h-33v-21h247v64q25-36 67-56t91-19q61 0 90 17t29 58q26-36 67-56t92-19q62 0 90 18t29 60v146q0 21 11 33t34 11h33v22h-247v-182q0-46-41-46-17 0-36 12t-32 32v118q0 21 12 33t33 11h18v22h-231v-182q0-46-41-46-18 0-36 12t-32 32v118q0 21 11 33t34 11h18v22m-201-258v236h26v-236h-26m278 79v157h25v-157q0-24-16-41t-46-23l-1 3q18 8 28 24t10 37m277 0v157h26v-157q0-24-17-41t-45-23l-1 3q17 7 27 23t10 38m399 190q-50 0-81-16t-44-39-13-50q0-25 14-49t44-38 80-14q33 0 59 0t48 1 44 2v-1q0-9-2-21t-10-23-24-19-44-7q-33 0-64 9t-54 20-37 21h-21v-77h21q1 4 3 13t4 13q48-14 100-20t112-6q63 0 104 6t61 23 20 49v146q0 24 13 34t32 10h33v22h-247v-26q-34 17-74 27t-77 10m182-216v183h26v-183q0-10-5-22t-17-22-40-15l-1 3q16 7 24 16t11 21 2 19m-166 201v-3q-30 0-51-13t-31-33-11-41q0-20 10-40t32-31 52-13v-3q-43 0-71 13t-43 32-14 42q0 23 14 43t43 34 70 13m24-100q0 15 6 28t18 21 33 9q25 0 54-11v-109q-14-1-27-2t-26 0q-20 0-33 10t-19 24-6 30m581 115q-33 0-60-6t-43-23-16-50v-145q0-25-13-35t-32-10h-34v-21h20q26 0 49-9t39-19 26-20 10-8h104v56h113v21h-113v155q0 33 16 49t41 15q25 0 53-13l8 20q-31 17-73 30t-95 13m-121-276l-1 4q16 5 25 17t10 31v145q0 30 14 43t37 18l1-4q-12-6-20-19t-7-38v-145q0-22-16-35t-43-17m458 276q-51 0-81-16t-44-39-14-50q0-25 14-49t45-38 80-14q33 0 58 0t48 1 45 2v-1q0-9-3-21t-10-23-23-19-44-7q-33 0-64 9t-55 20-37 21h-20v-77h21q1 4 3 13t4 13q48-14 99-20t112-6q63 0 104 6t61 23 20 49v146q0 24 13 34t32 10h33v22h-246v-26q-35 17-75 27t-76 10m182-216v183h25v-183q0-10-4-22t-18-22-40-15l-1 3q17 7 25 16t10 21 3 19m-166 201v-3q-31 0-52-13t-31-33-10-41q0-20 10-40t31-31 52-13v-3q-42 0-71 13t-42 32-14 42q0 23 14 43t42 34 71 13m24-100q0 15 5 28t19 21 33 9q24 0 54-11v-109q-14-1-28-2t-26 0q-19 0-32 10t-19 24-6 30" />
</svg>