<svg id="fnt-DM Sans" viewBox="0 0 1974 1000" xmlns="http://www.w3.org/2000/svg"><path id="dm-sans" class="f" d="M141 667h-103v-350h103q61 0 101 21t59 60 20 95q0 54-20 93t-59 60-101 21m-61-315v280h60q51 0 81-17t43-48 13-74q0-44-13-76t-43-48-81-17h-60m344 315h-42v-350h49l124 244 123-244h50v350h-42v-275l-116 226h-31l-115-225v274m623 6q-38 0-67-14t-44-39-15-58h44q0 20 9 37t28 28 45 10q24 0 40-8t26-21 9-30q0-21-9-34t-24-20-35-15-41-13q-41-14-61-35t-19-54q0-29 13-50t38-34 59-12q33 0 58 12t39 34 14 51h-44q0-15-8-29t-23-23-38-9q-19-1-34 6t-23 19-8 31q0 17 7 27t21 18 33 13 41 14q25 8 45 20t31 32 11 48q0 25-13 47t-39 37-66 14m258 0q-30 0-51-11t-30-29-10-38q0-26 13-44t37-27 58-9h66q0-23-7-39t-21-24-34-8q-24 0-42 12t-21 36h-43q3-27 18-46t39-28 49-9q35 0 58 12t35 36 11 54v156h-37l-3-45q-5 11-13 20t-18 16-23 11-31 4m7-36q17 0 31-7t25-20 15-28 5-33v-1h-63q-24 0-39 5t-22 16-6 24q0 13 6 23t18 16 30 5m225 30h-42v-252h38l2 44q12-24 34-37t51-13q30 0 51 11t34 36 12 60v151h-42v-146q0-38-17-57t-47-19q-21 0-38 10t-26 29-10 48v135m340 6q-31 0-54-11t-38-29-16-44h43q2 13 10 24t22 17 34 7q17 0 29-5t17-14 6-20q0-15-8-23t-21-13-34-8q-16-3-32-8t-29-14-20-20-7-29q0-22 11-39t32-26 48-9q41 0 66 19t29 57h-41q-3-19-17-30t-37-11q-24 0-36 10t-12 25q0 10 6 17t21 14 32 9q25 4 46 12t33 22 13 42q0 23-12 41t-33 27-51 10" />
</svg>