<svg id="fnt-DM Serif Display" viewBox="0 0 3619 1000" xmlns="http://www.w3.org/2000/svg"><path id="dm-serif-display" class="f" d="M134 667h-123v-5l11-4q16-7 16-26v-261q0-20-16-25l-11-4v-5h132q53 0 91 19t59 57 21 88q0 53-22 90t-63 56-95 20m-21-320v310h21q36 0 58-15t32-48 11-92-11-93-31-48-57-14h-23m287 320h-66v-5l10-4q17-5 17-28v-256q0-10-2-16t-12-10l-13-6v-5h97l92 242 87-242h99v5l-8 3q-10 3-13 9t-4 17v261q0 10 3 16t12 9l10 5v5h-125v-5l11-5q9-4 12-9t2-16v-112l1-143-104 290h-25l-109-287 1 125v126q0 11 3 17t13 10l11 4v5m547 9q-27 0-56-7t-47-18l2-68h5l16 33q7 14 15 24t22 17q10 5 19 7t21 2q30 0 48-17t18-42q0-25-12-39t-39-26l-20-9q-43-19-68-44t-24-66q0-29 15-51t43-33 64-11q26 0 50 7t41 19l-3 60h-5l-20-38q-9-17-17-25t-20-10q-6-2-12-3t-14 0q-25 0-43 14t-17 40q0 26 13 41t40 27l23 10q48 21 69 45t21 61q0 44-34 72t-94 28m278-257q32 0 55 13t35 36 13 52q0 5-1 11t-2 10h-149q1 54 19 78t56 24q25 0 41-8t29-24l5 5q-16 27-42 43t-61 15q-36 0-63-15t-43-44-16-68q0-41 18-70t46-43 60-15m-2 10q-14 0-25 8t-16 31-6 63h86q5-54-4-78t-35-24m259 238h-129v-5l7-2q10-3 14-9t4-16v-156q0-11-4-17t-14-7l-7-2v-5l86-29 5 5 4 43v4q7-14 18-26t25-19 28-7q19 0 29 10t10 27q0 17-10 26t-23 9q-21 0-37-21l-1-1q-5-7-12-8t-12 7q-5 4-8 10t-6 15v139q0 20 17 25l16 5v5m151-274q-17 0-29-11t-11-27q0-17 11-28t29-10 29 10 11 28q0 16-11 27t-29 11m58 274h-117v-5l7-2q10-3 14-9t4-16v-157q0-10-4-16t-14-7l-7-1v-5l92-30 5 5-2 71v140q0 10 4 16t13 9l5 2v5m154 0h-131v-5l7-2q9-2 15-9t5-16q0-18 0-37t1-36v-126h-28v-5l11-2q10-1 14-7t7-17q5-19 14-34t23-27q19-18 40-26t42-7q20 0 36 8t17 28q0 13-8 21t-23 8q-12 0-22-7t-19-23l-7-8q-6-7-11-7t-8 8q-4 18-6 41t-1 46h56v10h-56v198q0 19 20 25l12 3v5m273 0h-123v-5l10-4q16-7 16-26v-261q0-20-16-25l-10-4v-5h132q53 0 91 19t59 57 21 88q0 53-23 90t-63 56-94 20m-22-320v310h22q36 0 58-15t32-48 10-92-10-93-32-48-56-14h-24m282 46q-17 0-29-11t-12-27q0-17 12-28t29-10 28 10 12 28q0 16-12 27t-28 11m58 274h-117v-5l7-2q10-3 13-9t4-16v-157q0-10-4-16t-13-7l-7-1v-5l91-30 5 5-1 71v140q0 10 3 16t14 9l5 2v5m108 7q-24 0-44-6t-36-14l1-59h5l17 30q11 20 24 29t34 10q24 0 38-11t15-28q0-17-10-27t-39-19l-21-7q-31-9-48-28t-18-46q0-33 26-56t75-23q19 0 36 4t34 13l-3 54h-5l-18-31q-9-17-19-24t-27-6q-17 0-32 9t-15 27q0 17 12 27t38 19l23 6q36 11 51 30t16 47q0 36-29 58t-81 22m253 108h-121v-5l6-2q18-5 18-24v-272q0-11-4-17t-13-7l-7-2v-5l85-29 5 5 4 16q17-10 37-16t42-5q43 0 68 32t25 94q0 60-28 95t-78 34q-39 0-66-11v86q0 20 18 25l9 3v5m15-122q25 0 40-26t15-87-14-85-41-24q-18 0-41 12v202q19 8 41 8m274 7h-120v-5l6-2q18-6 18-25v-268q0-10-4-15t-14-8l-6-1v-5l91-22 6 5-2 70v171q0 18 0 36t1 37q0 10 4 16t13 9l7 2v5m95 7q-29 0-49-16t-20-48q0-23 24-43t76-30q8-1 18-3t21-4v-39q0-34-9-48t-25-14q-12 0-19 8t-9 27l-1 5q-1 22-11 32t-23 10q-13 0-22-8t-8-22q0-20 14-34t38-21 51-7q44 0 68 21t25 71v111q0 22 21 22h11l4 4q-9 12-21 19t-31 6q-22 0-35-10t-17-27q-15 16-31 27t-40 11m30-30q10 0 19-5t21-15v-84q-5 1-10 2t-12 2q-23 6-37 20t-13 39q0 20 9 30t23 11m202 143q-20 0-32-10t-12-26q0-14 10-22t23-9 21 5 15 16l3 4q11 15 22-1 5-7 10-20t14-32l-97-232q-4-10-8-16t-13-9l-9-4v-5h125v5l-10 4q-11 3-12 11t4 19l52 135 50-136q4-12 3-20t-13-10l-10-3v-5h69v5l-11 4q-11 3-16 10t-8 18l-81 219q-19 53-39 79t-50 26" />
</svg>