<svg id="fnt-Dokdo" viewBox="0 0 1207 1000" xmlns="http://www.w3.org/2000/svg"><path id="dokdo" class="f" d="M219 595l23-48-3-23-10-27-1-6-3-5-33-30-6-4-72-17h-54l-8 9v118 26 74l14 10 37-4 72-28 36-39 2-5 6-1m-43-98l12 13v59l-5 16-11 16-13 13-26 5-21 7 1-27v-105l4-20 38 4 21 19m123 45q-1 9-2 17t0 14q0 12 4 21l5 7 53 15h12q2 0 4-1t6-3l42-14q3-2 10-5t13-9 11-10 4-13q0-24-12-43t-35-30h-1q-2 0-7 0t-9 1q-3 0-6-1t-3-3l-35 5q-9 3-18 7t-17 11-12 14-7 20m93-23q6 2 13 3t13 4 10 8 8 13l-13 19-54 11h-7l-13-11 3-30q3-2 6-5t6-6 9-6 10-2q4 0 9 2m225 45v-1q-2 1-4 1-3 0-5-3l-3-15q0-11 0-28t-1-35-1-33-4-24q-8 0-12 0t-8 0-7-1-11 0q-3 3-5 3t-4 2v23q0 24-1 44t-1 41-1 40 0 43q0 9 0 18t0 19q-1 2-2 4t0 3q1 3 2 5t2 5l5 9q6 0 15 0t17 0 17-1 16-6q-1-9-1-19t-2-23q-3-10-3-13t-1-9q0-2 0-5t4-5q17 12 27 20t15 14 7 8 2 3l2 4v0q0 1 2 3t9 11q5 4 7 5t4 3 2 2 3 2l9 4q6-2 12-9t18-12q6-3 9-4t3-4-2-6-6-6-8-6-5-6q-11-10-21-17t-18-12-17-10-14-9q9-6 16-12t14-12 15-14 18-18q-1-3-3-6t-5-6q-1 1-4 1-2 0-5-1t-5-2q-7 4-12 6t-9 6-11 8-15 14q-9 4-12 6t-8 5q-3 2-6 4t-8 6q-1 0-1-2m257-28l-12 4-27 12q-12 7-19 14t-11 16-6 18-3 23q-1 1-1 5 0 8 5 15t11 11 15 8 16 4l42 4q6 4 11 5t12 1l22-7h33l5 5h8l5-12v-88l0-1-4-1v-122l-15-8h-25l-10 7q0 8-2 14t-1 10q0 3 2 3v22l-7 23v3l-30 12q0 1-3 1-5 0-7-1-2 0-4 0m38 24h5v29l-4 23v13h-6q-10 2-17 2t-15 1q-5 0-11 0t-11-3q-1 0-2 0t-1 0q-9 0-14-6t-4-21q0-11 3-16t9-8 13-3 16-4q5-1 8-2t9-2h2q1 1 2 1 3 0 7-2t11-2m132-18q-1 9-2 17t0 14q0 12 4 21l5 7 53 15h12q2 0 4-1t6-3l42-14q3-2 10-5t13-9 11-10 4-13q0-24-12-43t-35-30h-1q-2 0-7 0t-9 1q-3 0-6-1t-3-3l-35 5q-9 3-18 7t-17 11-12 14-7 20m93-23q6 2 13 3t13 4 10 8 8 13l-13 19-54 11h-7l-13-11 3-30q3-2 6-5t6-6 9-6 10-2q4 0 9 2" />
</svg>