<svg id="fnt-Domine" viewBox="0 0 1896 1000" xmlns="http://www.w3.org/2000/svg"><path id="domine" class="f" d="M116 337v300h78q27 0 46-8t32-25q14-18 20-46t7-68q0-78-27-116-13-19-34-28t-49-9h-73m-92-9v-21h168q75 0 116 42 24 24 36 59t13 75q0 42-14 78t-36 62q-42 44-119 44h-164v-22l42-10v-296l-42-11m627 201q0 33-10 62t-27 48q-15 17-37 25t-50 8q-27 0-49-8t-36-24q-17-18-27-46t-9-59q0-32 10-62t27-49q16-17 37-25t49-7 50 7 37 24q17 19 26 46t9 60m-191 1q0 30 4 52t14 37q8 13 20 20t31 7q34 0 51-24 9-13 13-36t5-53-5-52-13-37q-8-13-21-20t-31-6q-35 0-50 23-18 28-18 89m232 116l39-9v-210l-39-10v-20h72l11 50h2q15-25 39-40t52-15q20 0 36 7t24 20q8 12 13 33 16-28 41-44t55-16q20 0 36 7t24 22q6 9 10 24t5 39 1 60v93l39 9v21h-121v-21l34-9v-112q0-32-2-48t-6-25q-6-12-17-19t-25-6q-13 0-25 5t-21 14q-11 10-17 23t-6 34v134l34 9v21h-116v-21l34-9v-112q0-32-2-48t-6-25q-6-12-17-19t-25-6q-13 0-25 5t-21 14q-11 10-17 23t-6 34v134l34 9v21h-121v-21m526-9v-210l-38-10v-20h87v240l38 9v21h-125v-21l38-9m-7-321q0-14 9-23t22-8q15 0 23 8t9 23q0 14-9 23t-23 8-23-8-8-23m125 330l38-9v-210l-38-10v-20h72l11 50h2q15-26 40-41t55-14q41 0 61 27 10 14 14 39t5 68v111l38 9v21h-120v-21l33-9v-112q0-32-2-48t-6-25q-6-12-17-19t-27-6q-29 0-50 19-20 18-22 57v134l33 9v21h-120v-21m558-111h-175q0 36 10 60 10 23 29 33t40 10q23 0 43-10t35-26l16 12q-18 24-43 41t-64 17q-35 0-61-15t-41-43q-7-16-11-35t-3-40q0-70 32-109t88-38q51 0 78 31t28 88q0 5 0 9t-1 15m-108-116q-60 0-66 91h125v-16q0-36-16-56t-43-19" />
</svg>