<svg id="fnt-Donegal One" viewBox="0 0 3157 1000" xmlns="http://www.w3.org/2000/svg"><path id="donegal-one" class="f" d="M25 667v-20q13-4 21-7t13-8 6-13 2-24v-268l-42-14v-20h68q14 0 27 0t25-1 26-1 27-1q47 0 82 13t59 35 36 53 12 65q0 29-5 56t-17 52-28 43-39 34-49 22-59 8q-12 0-29-1t-37-3h-99m95-310v266q4 2 11 5t16 4 20 4 24 1q10 0 22-1t23-3 22-6 19-7q8-7 18-19t18-28 14-39 6-52q0-41-11-71t-30-51-50-31-68-10q-4 0-14 1t-24 1q-4 2-7 4t-5 7-3 10-1 15m317 193q0-31 11-57t28-43 41-28 48-10q28 0 50 7t36 22 23 37 8 52q0 32-10 59t-26 44-40 29-48 10q-25 0-47-7t-39-23-25-38-10-54m57-12q0 23 4 43t12 35 24 23 38 7q16-1 26-10t16-24 9-31 2-35q0-23-4-43t-12-34-24-23-37-6q-16 1-27 9t-16 22-8 31-3 36m234 129v-20q14-5 22-8t12-8 5-13 1-23v-98q0-12-4-20t-9-13-13-7-15-4v-18q11-2 19-4t15-3 12-3 12-4 12-6 16-8l10 5-3 40q8-5 17-10 8-5 17-10t19-11q3 0 7-2t11-3 13-3 14-1q18 0 31 4t20 10 11 16 5 19 1 22 0 24l1 126q9 4 17 6 7 3 14 5t10 3v20h-132v-20q10-3 17-5t11-4 7-5 3-7 1-13 0-18v-115q0-5-1-10t-4-6q-3-3-6-5t-8-3-12-2-16-1q-10 0-20 2t-19 5-17 7-13 8v158l42 14v20h-133m329-121q0-27 9-51t25-43 39-29 52-11q24 0 40 7t27 21 15 32 4 42q0 3 0 8t0 8q-1 5-1 10h-160q0 21 4 36t10 25 15 17 17 10 18 5 16 1q11-3 23-6 10-3 22-7t26-9l8 21q-13 8-25 14t-23 11-21 9-20 7q-31 0-54-9t-38-25-22-41-6-53m50-31q25-1 42-1t28-2 18-1 10-1q4-1 6-7t2-12q0-16-5-28t-16-18-22-6-28 5q-3 1-9 5t-11 13-10 21-5 32m217 114q0-3 0-8t3-7q10-11 20-22t22-24q-22-9-35-26t-13-43q0-21 8-37t22-27 34-17 41-6q24 0 44 5t34 15q16-3 31-8t30-11q5 4 6 9t2 10q0 7-1 13t-4 10q-10 3-21 4t-20 0q6 14 6 31 0 21-8 38t-23 28-33 17-41 6q-8 0-17-1t-15-2q-4 3-7 7t-7 8-4 8-2 7q1 6 7 10t14 5 18 3 17 1q14 1 29 2t30 3 28 6 23 10 17 15 7 23q1 16-7 34t-27 34-49 27-73 10q-25 0-43-4t-29-12-17-17-7-20q-1-8-1-13 1-5 8-15t18-20q6-5 13-10t13-12q2-2 2-3t-3-2q-3-1-5-2t-3-1-4-2-4-2q-4-1-8-4t-7-6-6-7-3-8m113-75q13-1 21-6t14-12 6-17 2-18q0-14-3-25t-11-21-20-13-32-4q-11 1-19 6t-12 12-7 16-2 19q0 13 2 25t10 20 20 14 31 4m-40 122q-20 13-26 28t-1 26 19 19 35 8q23 0 40-3t30-8 19-18 5-27q-1-8-4-14t-14-10-29-6-51-3q-5-1-8 0t-6 2-5 3-4 3m203-71q0-11 1-19t8-16 15-14 27-14 40-13 57-15v-37q0-7-1-13t-5-11-14-8-25-3q-12 0-20 3t-13 10-10 17-8 24h-39l5-51q8-3 18-7t19-7 20-7 18-6 15-4 10-2q22 0 37 4t26 11 14 22 4 34v140q0 7 6 9t13 4 13 1 5 1v20q-4 2-11 4t-14 5-14 3-15 2q-17 0-24-10t-8-27q-11 10-20 17t-18 11-18 6-22 3-26-4-23-12-17-21-6-30m53-6q0 9 4 16t10 12 14 6 18 2q13 0 26-7t23-16v-73q-9 3-19 6t-21 5-21 7-17 9-12 13-5 20m213 68v-20q13-4 20-7t12-8 6-13 1-24v-243q0-13-3-20t-9-11-13-6-15-3v-18q10-2 19-4t15-3 12-4 11-4 13-6 16-8l9 5q-2 17-2 39t-1 44-1 48 1 46v186l42 14v20h-133m333-179q0-25 5-49t16-47 27-41 36-33 47-22 57-8q30 0 56 7t45 20 34 30 25 38 15 43 5 46q0 25-5 49t-16 47-27 41-37 33-47 22-56 8q-31 0-56-8t-45-19-35-30-24-38-15-43-5-46m54-25q0 21 4 42t12 41 19 36 28 28 37 19 46 7q21 0 40-5t35-15q9-14 17-28t12-30 7-31 2-29q0-22-3-43t-12-41-19-36-28-28-37-19-47-7q-21 0-40 6t-34 16q-10 13-17 28t-12 29-7 30-3 30m362 204v-20q14-5 22-8t12-8 5-13 1-23v-98q0-12-4-20t-9-13-13-7-15-4v-18q11-2 19-4t15-3 12-3 12-4 12-6 16-8l10 5-3 40q8-5 17-10 8-5 17-10t19-11q3 0 7-2t11-3 13-3 14-1q18 0 31 4t19 10 12 16 5 19 1 22 0 24l1 126q9 4 17 6 7 3 14 5t10 3v20h-132v-20q10-3 17-5t11-4 7-5 3-7 1-13 0-18v-115q0-5-1-10t-4-6q-3-3-6-5t-8-3-12-2-16-1q-10 0-20 2t-19 5-17 7-13 8v158l42 14v20h-133m329-121q0-27 9-51t25-43 39-29 52-11q24 0 40 7t27 21 15 32 4 42q0 3 0 8t0 8q-1 5-1 10h-160q0 21 4 36t10 25 15 17 17 10 18 5 16 1q11-3 23-6 10-3 22-7t26-9l8 21q-13 8-25 14t-23 11-21 9-20 7q-31 0-54-9t-38-25-22-41-6-53m50-31q25-1 42-1t28-2 18-1 10-1q4-1 6-7t2-12q0-16-5-28t-16-18-22-6-28 5q-3 1-9 5t-11 13-10 21-5 32" />
</svg>