<svg id="fnt-Dongle" viewBox="0 0 978 1000" xmlns="http://www.w3.org/2000/svg"><path id="dongle" class="f" d="M103 667h-51q-11 0-20-7t-9-20v-147q0-12 7-19t19-7h45q30 0 52 12t36 35 13 54q0 27-12 50t-33 35-47 14m-31-31h22q33 0 50-18t16-50q0-34-17-52t-49-18h-21q-15 0-15 15v108q0 15 14 15m223 36q-22 0-40-10t-28-28-10-40q0-21 10-38t28-27 40-10 39 10 28 27 10 38q0 22-10 40t-28 28-39 10m0-31q19 0 31-13t12-34q0-20-12-32t-31-12q-20 0-32 12t-12 32q0 21 12 34t32 13m233 31q-7 0-12-4t-5-12v-63q0-22-10-32t-26-11q-20 0-30 13t-9 30v63q0 8-5 12t-12 4-12-4-5-12v-117q0-9 5-13t12-4 12 4 5 13q9-9 22-14t26-6q28 0 44 18t17 53v66q0 8-6 12t-11 4m116 65q-11 0-24-2t-25-9q-10-5-10-15 0-6 4-11t11-5q5 0 9 2 10 5 19 7t19 2q18 0 31-9t13-29v-14q-9 8-20 13t-25 5q-21 0-38-10t-26-28-10-39 10-40 26-27 37-9q15 1 26 6t20 13q0-7 4-12t13-4 12 4 5 12v131q0 23-11 38t-29 22-41 8m6-96q19 0 30-13t11-34q0-20-11-32t-30-12q-20 0-32 12t-12 33q0 20 12 33t32 13m132 31q-7 0-12-4t-5-12v-190q0-8 5-13t12-4 11 4 6 13v190q0 8-6 12t-11 4m127 0q-37 0-58-22t-21-58q0-32 21-52t55-21q32 0 52 19t19 46q0 11-6 17t-14 5h-87q-5 0-4 6 4 14 16 21t28 8q12 0 22-3t19-9q3-2 7-2 5 0 10 5t4 11q0 3-1 6t-4 6q-13 10-28 13t-30 4m-38-92l67 0q3 0 3-3 0-11-10-20t-25-8q-13 0-25 7t-14 18q0 0 0 1-1 2-1 3t5 2" />
</svg>