<svg id="fnt-Dosis" viewBox="0 0 980 1000" xmlns="http://www.w3.org/2000/svg"><path id="dosis" class="f" d="M142 667h-89q-6 0-11-4t-4-9v-341q0-5 4-8t11-4h89q29 0 53 11t37 34 14 62v152q0 39-14 62t-37 34-53 11m-71-335v304h71q33 0 52-18t19-58v-152q0-39-19-58t-52-18h-71m326 338q-25 0-47-13t-35-35-13-47v-54q0-25 13-47t35-34 47-13q26 0 47 13t35 34 13 47v54q0 25-13 47t-35 35-47 13m0-30q18 0 32-9t22-24 9-32v-54q0-16-9-31t-22-24-32-9-31 9-23 24-8 31v54q0 17 8 32t23 24 31 9m213 30q-23 0-41-6t-27-14-10-16q0-3 1-7t4-5 6-3q6 0 12 6t19 12 35 6q29 0 40-11t12-25q0-16-9-26t-23-14-30-10-30-11-23-18-9-33q0-16 8-32t25-26 46-10q17 0 32 4t25 9 10 12q0 2-2 6t-4 7-7 4-11-4-17-7-25-3q-18 0-29 6t-16 15-5 18q0 14 9 22t23 12 30 9 30 12 23 21 9 36q0 29-21 47t-60 17m146-310q-9 0-16-6t-6-15 6-14 16-6 15 6 7 14-7 15-15 6m-1 307q-6 0-11-4t-5-9v-212q0-5 5-9t11-3q7 0 12 3t5 9v212q0 5-5 9t-12 4m143 3q-23 0-41-6t-27-14-10-16q0-3 1-7t4-5 6-3q6 0 12 6t19 12 35 6q29 0 40-11t12-25q0-16-9-26t-23-14-30-10-30-11-23-18-9-33q0-16 8-32t25-26 46-10q17 0 32 4t25 9 10 12q0 2-2 6t-4 7-7 4-11-4-17-7-25-3q-18 0-29 6t-16 15-5 18q0 14 9 22t23 12 30 9 30 12 23 21 9 36q0 29-21 47t-60 17" />
</svg>