<svg id="fnt-Duru Sans" viewBox="0 0 2553 1000" xmlns="http://www.w3.org/2000/svg"><path id="duru-sans" class="f" d="M169 667h-115v-380h117q140 0 169 111 9 35 9 79v10q0 86-46 133-47 47-134 47m-73-341v302h73q67 0 102-38 35-38 35-103v-10q-2-78-33-114-32-37-103-37h-74m555 105v122q0 99 3 114h-38l-5-40q-30 31-69 41-13 4-32 3t-35-6-29-19q-25-25-24-69v-193l41-3v181q0 39 11 55 12 17 39 18t51-10 47-31l-1-18q-1-12-1-33v-159l42-3q0 26 0 50m163 34l-14 20q1 19 1 47v135h-42q0-259-3-283l41-3v68q32-68 87-68 19 0 31 3l-9 43q-12-6-26-6t-27 7-22 16-17 21m378-34v122q0 99 3 114h-38l-5-40q-30 31-69 41-13 4-32 3t-35-6-29-19q-25-25-24-69v-193l41-3v181q0 39 11 55 12 17 39 18t51-10 47-31l-1-18q-1-12-1-33v-159l42-3q0 26 0 50m381-147l8 0q36 0 83 14l-8 37q-108-35-145 17-11 16-11 34t6 28 16 18q16 13 45 23t47 21 34 23q34 29 34 68 0 32-13 53t-31 32q-33 20-83 20-52 0-109-20l7-38q47 18 103 20 47 2 70-28 12-16 12-32t-6-28-17-19q-21-17-48-27t-46-19-33-21q-31-28-31-72 0-71 68-96 23-8 48-8m393 355l2 30q-8 3-20 3t-19-3-14-8q-11-9-14-24-13 20-47 30-31 10-62-1-34-11-49-41-7-15-7-33t7-31 18-21q22-15 59-18 30-3 77-5v-43q0-31-4-39t-8-12q-9-6-34-6l-9 0q-38 2-74 12l-7-36q43-12 84-12 59 0 77 22 11 13 13 33t3 36v139q0 21 4 25t8 4 16-1m-69-29v-33q0-17 1-32-86 0-108 17-13 8-13 27 0 21 15 35 14 13 36 13 43 1 69-27m196 57h-41l0-83q0-106-1-135l-1-38q-1-23-1-27l42-2q-1 3-1 8t0 12v18q57-39 101-39t66 21 24 68v197h-42v-182q0-38-11-53-10-14-38-14-36 0-72 18-12 6-26 14l1 22q0 19 0 38v157m448-275l-8 36q-29-10-63-10-31 0-43 22-4 7-5 17t3 18 11 15q12 11 30 18t28 12 18 9 16 12 13 15q11 17 11 40t-9 36-21 23q-25 17-70 17-44 0-87-17l8-36q39 15 80 16 40 1 51-21 9-16 2-33-7-15-28-25-9-5-22-10t-26-12-26-17q-25-23-25-59v-4q0-18 9-32t22-23q25-17 61-18 37 0 70 11" />
</svg>