<svg id="fnt-Eater" viewBox="0 0 1733 1000" xmlns="http://www.w3.org/2000/svg"><path id="eater" class="f" d="M261 325l3 3q-10-16-21-16l-72 0q-4 0-6 9t-3 24l2 6q0 0 2 4t3 19l-2 35q0 11 3 23t8 12q1 0 12-5t18-4 11 0q9 0 9-8v-33q0-5-4-8t-13-6l1-3q10 6 15 6t8-2 8-22l2 1q-5 14-5 20t7 14 13 7 19-6l2 4q-11 7-14 10t-3 9v1q0 2 7 10t7 16l0 13q0 4 6 8 0 0 12 5l-2 7-13-5q-1-1-4-1t-6 4l-6 7q-1 2-1 4l1 9q0 18-8 27-7 6-7 26h-4v-5q0-15-6-22-16-17-18-51 0-6-5-6l-22 3-15-1q-5 0-9 11t-4 19v10q0 39 0 39 6 0 13-2l2 7q-12 3-15 6t-3 10v10q0 7 7 7h38q6 0 10-3t6-15l6 1q-2 8-2 13 0 8 15 14t22 6q12 0 13-7l2-12q2-18 34-21 8-1 23-15l3 3q-16 14-17 22t-6 34-7 34-2 11l6 20-5 2q-8-22-7-21-3-5-7-6t-6-1-6-1q-7 0-13 14l-4-2q4-10 4-14t0-4 0 0 1 1q-7-4-22-8t-18-6-5-2h-112q-24 0-27 12l-9 21-8-4 10-22q2-11 2-28t-8-105-8-135q-1-5-4-8t-14-6l1-5q15 4 16 4t3-1q3 0 4-4l7-7 2-7 1-2-2-7q-2-4-14-7t-18-3-14 15l-5-3q4-11 4-15t-4-8l-12-11q-6-4-8-4t-18 4l-2-5q13-4 17-9t4-11v-5q0-5-13-18l1-1q13 13 18 13h1q3 0 5-4t7-13l1 1q-6 13-6 16t3 6 3 2h2q6-1 10-18l6 2q-3 8-3 14t12 12 19 6q6 0 13-15l4 2q-6 13-6 16 0 5 12 11t18 6 8-3 7-13l5 2q-5 11-5 15 1-3 16-5t23-2 10-4 7-13l6 2q-6 11-6 16t5 8q3 3 6 3h55q0 0 1-1l1 1q2 0 5-3t13-7 18-6 19-10 18-19l3 2q-11 16-11 25v86q0 8 8 27l-2 1q-8-17-15-24l-24-21q-2-1-3-2-3 1-6 4t-9 12l-3-2q7-12 7-18t-14-19m381 321v0q2 5 11 5t10 2q0 1-6 1t-9 2-3 2-4 3-7 6-3 8q-1 11-5 11-4 0-12-10t-14-19l-13 7q-6 3-6 12t-5 10q0-27-27-36-13-4-23-4t-26 1l-9 3q0 0-5 4-12 11-17 11l2-2h0q-1 0-9-7t-12-7l-35 2q-8 6-22 9-4 6-17 9t-28 5-21 5-6 3-3-1q14-8 21-15l8-13q2-3 3-10t3-8q-1 9-1 13t1 6v-5q0-16 11-16 0-18 19-24l-6-38-16-4 0-6q14 3 16 3 4 0 7-8t7-19 8-13q-1-5-1-14l3-33q0-3-7-8t-8-8v-1q11 4 16 4t10-11 5-15-6-10q-7-7-5-11 12 8 15 8t6-4q0-2 0-10t9-29 8-34l0-6q0-2-7-8t-8-9v-1q14 6 17 6 6 0 16-17t22-40 14-27 5-9q5-16 9-17-2 11-2 18t4 19 15 39 22 48q24 51 30 102 1 12 6 22t4 19l-1 19v16q15 21 20 51 1 7 8 13t6 10l1 2q-16-14-24-14h-5l3 25q12 5 17 17 5 11 16 11 1 0 6-5t11-5q-8 11-8 14t1 5m-132-33l2-1 8-1 14-15-3-44q-9-6-13-19t-5-19 1-7 0-2l-7 11q-2 2-2 4t2 8 2 9-1 5q-8-12-11-15t-8-2h-54l3 13q1 3 10 10t9 10q-10-4-15-4t-9 3l-5 7v47l19-1 15 3q1 0 7-3t9-2 4 0q-10 6-13 9t-3 7v5l-1 2q0 3 4 3 8 1 11 8-11-3-14-3t-4 4q2 6 12 18 8-9 10-14t8-16 6-13-3-8-4-8 2-5q10 16 17 16m-31-164l-15-2q-5 0-9 6-8 11-8 19t0 10l11 4q9 0 16-3t9-5l8-2q-1-2-1-5t5-7 4-8q0-10-7-44t-10-46l-22 49v5q1 1 2 10v2q1 6 12 11 6 4 6 5 0 1-1 1m468-219l4 1-1 8q0 11 6 14l23 14q3 3 7 3t17-6l2 4q-11 5-15 8t-5 14-2 54q0 3 24 15l-4 4q-17-6-19-6-13 0-13 9 0 4 1 13h-2q-2-15-3-17t-3-1h-2q-3 0-6 4t-9 10l-3-1q11-13 11-17l-62-32q-2-2-12-4t-13-3-4 2l-17 17q-3 48-3 109 0 9 3 29t3 30l-3 21 3 45q0 25-5 45 0 4 1 6l14 15q3 3 8 3t16-4l1 5q-11 4-15 7t-4 7q-3 20-14 30-2 3-2 5l1 15-7-1 0-13q0-9-18-8-2 0-3 0-12 0-20 6t-12 26l-4-1q5-14 5-19t-2-8-5-22q-6-44-20-44h-3q1-1 1-1l18-4 6 24 0 1q1 0 4-3 15-17 15-37t-8-47q-2-8-18-20l1-2q13 10 20 11 5-1 5-7l1-15q0-8-4-16t-9-8-29 5l-2-10q32-8 32-13 0-53-3-69t-5-24q-6-19-18-19-5 0-8 1l-3-12q16-5 16-15 0-16-4-16-3 0-5 3t-2 6 3 14l-5 2q-4-11-6-14t-10-3-21 4-15 10-9 16-8 13-3 8-6 5q-8 3-9 9-1 7-5 11-8 8-13 31l-3 0q4-16 4-23l-5-41q0-16 5-30l1-2-6-19 0-88q0-6-13-20l2-2q13 14 19 14h1q4 0 7-3t9-14l2 2q-7 12-7 16t2 5l8 13q3 2 7 3t16 6 20 7l12-2q36-5 88-5l53 0q6 0 16 5t16 5 15-7 14-8 5-6 3-16m-54 95t1 1q-1 0-1-1m229 205q0-6-9-6-1 0-19 7l-4-10q23-11 23-13l0-10q0-2-4-48t-5-62q-2-6-5-8t-10-2l-7 1-1-8q15 0 18-5 4-5 4-13t-6-18-11-9-13 3l-3-6q10-4 13-6t2-7q-2-4-6-4l-36 1q-5 0-8 3t-10 14l-4-2q8-13 8-17t-1-6-3-6-2-6q-2-8-19-18l3-4q14 10 19 10t14-2 47-3 42-1l-1 1q5-1 7-2 5-2 6-18h8q0 17 4 19 8 3 43 5t54 2q6 0 11-18l4 1q-2 8-2 13t4 8 12 6 11 5q44-3 62-20l21 22q-21 20-23 78v-34q-1 8-6 26t-5 25 3 10 14 9l-2 4q-12-6-16-6t-6 1q-5 4-7 26l-3 0q1-6 1-13t-3-12-7-11q-17-22-17-46l0-5q0-6-11-17t-20-13-13-8q-3 3-10 3t-25-4-29-4q-27 0-27 10 1 11 3 25t4 25 2 18 2 16q2 17 2 31t-1 21 7 7l59 6q5 0 7-10t3-23 3-20 1-10-5-19l4-2q7 18 17 25 9 7 11 11t2 10l-1 47q0 33 2 64 0 4 4 7t15 6l-1 4q-14-4-17-4-9 0-11 16 0 5 14 18l-2 2q-13-14-17-14h-1q-5 0-11 17l-2-1q5-14 5-17t-1-3l-5-4q-3-2-6-2t-17 5l-1-4q11-5 14-8t3-7v-39q0-1-5-6t-4-5l-20 1q-4 0-12-2t-10-3q-8 0-8 11l2 31q3 18 5 54t4 52q10 2 78 2 3-1 10-5t10-6 9-6q9-6 18-13 2-4 2-23h2l-1 11q0 17 8 17 2 0 16-3l0 3q-16 3-17 4t-2 6-5 17-6 19 3 9 13 8l-3 6q-7-4-14-4t-10 6l-2 25q0 2 11 8t25 9l0 3-36-11q-3 0-4 2t-1 2l-1 18-3-1q0-3 0-7t0-6-1-4q0-3-4-3t-16 4l-1-2q15-5 16-6t1-3l4-19q0-8-13-15t-19-7q-5 0-13 15l-4-3q1-4 3-9t2-6q-1 4-26 6t-29 2q-3 4-9 4t-17-6-16-7q-5 6-12 6-13 1-29 17l-3-4q1-1 5-5t6-10 3-9q0-8 5-14l1-4 1-6q-6-27-8-63t-3-48m189-237l-20-1 4 4q6-3 16-3m-226 17l0-1 0 1m472-64h8q8 0 9-1t4-2 4-3 3-4q2-4 2-13h7q1 18 10 20 3 1 7 1 9 1 9 13 0 2 2 4 14 15 14 34 0 62-29 112 1 1 44 22l-4 6q-40-19-42-19t-3 1-2 2-3 3-2 4-1 5-2 5-1 6q-1 4-3 13l-3 9q0 1 4 6 11 8 28 36t28 38 16 12 17-3l1 5q-12 3-15 6t-3 6l-1 7q0 1 0 2 0 8 9 16t17 9 19-7l3 4q-14 9-14 15t8 13 12 8 17-3v7q-15 3-17 4t-2 2q-2 2-2 6t9 18l-2 2q-8-11-11-14t-6-2-4 1l-6 4q-4 3-14 20l-3-2 8-17q-3-6-9-6l-17 1q-6 0-7 8l-3 11h-5l6-24q0-14-11-14-5 0-18 8l-3-4q15-11 15-17 0-12-8-33t-16-24q-6-5-18-23-34-57-56-73-2-3-6-3-10 0-12 30l-9 105q0 3 19 14t24 11 16-2l1 4q-20 4-24 11l-6 9q-2 3-2 5t9 17l-3 2q-11-15-16-15l-11 1q-5 0-13-5t-10-5q-1 1-3 2t-3 3-3 2q-2 1-7 3t-7 5-2 9 1 10h-5q-2-19-8-19t-20 10l-2-3q10-7 13-11t3-8l1-14v-2q0-3-3-5t-4-3q-4-4-9-8l3-5q15 6 18 6t8-6 5-10l-4-239q-1 0-1-10-2-29-4-30l-35-25q-5-3-7-3t-22 6l-6-6q28-11 30-14l7-18q1-3 1-7t-9-17l4-3q7 11 11 14t9 3h40q3 0 5-3t3-8-5-15l6-2q5 15 10 17 2 1 6 1l8-1q5 0 7 0t4-2 3-3 3-3 2-5q2-6 2-13l6-1q0 16 4 20 7 5 15 5m-44 62v97q0 10 8 10 2 0 5-2l9-4q1-3 9-7 17-11 17-25 0-4 3-12t3-12v-24q0-4-3-11t-3-10-3-8q-7-9-11-9h-24q-5 0-7 7t-3 10" />
</svg>