<svg id="fnt-EB Garamond" viewBox="0 0 2760 1000" xmlns="http://www.w3.org/2000/svg"><path id="eb-garamond" class="f" d="M33 669q-6 0-10-1t-4-4q0-6 16-9 19-4 28-12t9-26v-225q0-18-7-25t-26-11q-9-2-13-4t-4-6q0-3 4-5t11-1q19 0 32 1t26 0 30 1q17 0 35-1t34 0q17 0 28-1t14 0q3 0 6 1t3 4q3 14 5 27t3 24q0 5-3 6t-4 2-4-2-2-3q-2-9-5-17t-6-11q-7-8-15-11t-18-2h-66q-4 0-11 4t-7 12v106q0 4 3 7t6 4h50q14 0 20-6t9-19q3-11 9-11 2 0 4 2t2 6q0 2 0 9t-1 15 0 11q0 5 0 13t0 16 1 10q0 3-1 6t-4 2q-7 0-11-16-3-11-8-17t-15-5h-47q-8 0-13 2t-4 11v96q0 19 8 26t25 7h37q16 0 27-2t19-6q8-6 14-15t14-24q2-3 4-5t4-1 4 2 2 5q0 4-3 15t-6 24-7 19q-1 3-3 6t-4 2q-24 0-44 0t-39-1-37-1-36-1q-11 0-19 1t-17 1-22 1m273 0q-6 0-10-1t-4-4q0-6 16-9 19-4 29-12t10-26v-225q0-18-7-26t-26-10q-9-1-13-4t-4-6q0-3 4-5t11-1q13 0 21 0t14 0 17 1q9 0 16-1t16-1 23-1q59 0 87 17t29 58q0 17-6 29t-11 19q-8 8-14 12t-19 9q-2 1-2 2t2 3q11 4 23 9t23 14 18 23 7 37q0 27-9 43t-21 25-22 14q-16 8-36 12t-49 5q-7 0-20-1t-28-1q-13 0-22 0t-19 1-24 1m120-21q22 0 41-10t30-27 12-39q0-19-7-32t-15-21-15-11q-7-4-21-9t-36-4q-16 0-23 7t-6 11v100q0 21 10 28t30 7m-17-167q14 0 29-3t32-11q5-3 14-15t8-33q0-14-5-30t-21-25-47-11q-20 0-27 6t-6 17v87q0 13 9 15t14 3m463 193q-35 0-66-13t-56-34-38-52-14-64q0-37 15-69t40-56 58-37 71-14q9 0 23 2t31 4 28 5 18 6q3 1 3 2t2 4q2 14 3 28t2 25q0 3-3 6t-5 4q-5 0-7-5t-4-9q-3-8-7-14t-9-12q-3-4-13-11t-26-11-40-5q-29 0-53 12t-42 34-26 48-9 57q0 35 11 63t29 48 42 29 49 10q29 0 42-7t19-11q5-6 10-16t5-23q0-4 0-9t0-10 1-10q0-5-1-9t-2-6q-4-5-14-9t-20-5-15-1q-2 0-6-3t-4-6q0-4 4-6t6-2q13 0 22 0t18 1 23 1q13 0 22-1t23-1q2 0 6 1t4 7q0 3-4 6t-6 3q-11 3-16 8t-5 16q-2 11-2 20t-1 18v13q0 3 1 4t2 4q2 3 4 5t3 4-1 5-6 4q-4 1-14 6t-26 12-35 11-44 5m227 0q-9 0-19-7t-15-17-6-19q0-16 8-25t27-17l51-21q10-4 12-7t2-13l1-32q1-13-7-22t-22-10q-8 0-15 3t-13 6q-3 2-4 6t-1 9q0 2 0 4t1 5q0 2-7 6t-14 8-12 3q-3 0-4-1t-2-3q0-8 5-18t15-17q12-10 25-18t27-13 23-4q18 0 29 12t12 32l-3 120q0 11 5 17t13 7q13 0 19-6 2-2 4-2 2 0 4 1t1 4q0 6-5 11-8 8-18 13t-17 5q-23 0-36-26h-2q-16 13-31 19t-31 7m23-24q10 0 17-4t13-8q2-3 4-7t2-14l1-24q1-6 0-8t-4-3q-1 0-4 1t-6 2q-27 9-37 19t-10 19q0 13 7 20t17 7m142 18q-5 0-7-1t-3-4q0-4 3-6t9-2q9-3 14-8t5-11v-108q0-13-4-23t-17-13q-2 0-3-2t-2-4q0-5 5-6 13-4 27-12t22-13q3-2 5-3t3 0q2 0 2 3 0 2 0 8t-1 14 0 16q0 1 1 1 8-10 17-18t20-12 20-4q11 0 17 4t7 12q0 5-3 11t-7 10-9 5q-3 0-7-2t-7-3q-4-1-8-3t-8-1q-12 0-24 8t-11 34v101q0 6 7 10t20 9q5 1 8 3t3 5q0 5-10 5-15 0-23-1t-20-1q-9 0-14 0t-11 1-16 1m201 6q-9 0-18-7t-16-17-6-19q0-16 9-25t27-17l51-21q10-4 11-7t3-13l1-32q0-13-8-22t-22-10q-7 0-15 3t-12 6q-3 2-4 6t-1 9q0 2 0 4t0 5q0 2-6 6t-14 8-13 3q-2 0-4-1t-1-3q0-8 5-18t15-17q11-10 25-18t26-13 23-4q18 0 30 12t11 32l-2 120q-1 11 4 17t14 7q12 0 18-6 3-2 4-2 3 0 4 1t2 4q0 6-6 11-8 8-17 13t-17 5q-23 0-37-26h-1q-17 13-32 19t-31 7m24-24q10 0 17-4t12-8q3-3 4-7t3-14l1-24q0-6-1-8t-4-3q-1 0-3 1t-7 2q-26 9-37 19t-10 19q0 13 8 20t17 7m139 18q-4 0-7-1t-3-4 3-5 9-3q7-3 14-6t7-13v-108q0-13-3-24t-16-12q-2 0-3-2t-1-4q0-5 4-6 13-4 21-8t14-8 16-10q1-1 2-2t2 0q3 0 3 3t-1 14-1 18q0 5 1 6h1q11-11 30-22t48-11q18 0 30 7t20 27h1q16-14 37-24t45-10q16 0 27 10t17 26 6 33v107q0 10 7 13t14 6q5 1 8 3t4 5q0 3-3 4t-7 1q-10 0-16-1t-10-1-14 0q-8 0-14 0t-11 1-16 1q-5 0-8-1t-2-4q0-4 3-6t8-2q8-2 15-6t7-13v-105q0-12-6-23t-14-18-20-7q-13 0-24 3t-20 11q-14 11-14 36v103q0 10 8 13t15 6q5 1 8 2t3 6q0 3-2 4t-8 1q-10 0-16-1t-11-1-14 0q-8 0-14 0t-11 1-16 1q-4 0-7-1t-3-4q0-4 3-6t8-2q8-3 15-6t7-13v-105q0-12-5-23t-15-18-20-7q-12 0-23 3t-20 11q-14 10-14 36v103q0 10 7 13t15 6q4 1 7 2t4 6q0 3-3 4t-7 1q-10 0-16-1t-10-1-14 0q-9 0-14 0t-11 1-16 1m484 6q-28 0-50-13t-36-36-13-52q0-21 8-41t23-36 35-27 43-9q29 0 52 14t37 36 14 50q0 29-13 55t-37 42-63 17m11-15q17 0 30-7t21-21q6-11 8-28t2-31q0-24-9-46t-24-37-37-14q-14 0-25 4t-19 16q-10 13-13 31t-3 36q0 24 9 46t24 37 36 14m142 9q-5 0-8-1t-2-4q0-4 3-6t8-2q8-2 15-6t7-13v-108q0-13-3-23t-16-13q-2-1-3-2t-2-4q0-6 5-6 17-5 28-11t22-15q1-1 2-2t3 0q1 0 2 1t1 2q0 4-2 14t-1 18q0 2 0 4t1 2q18-16 37-25t44-8q24 0 40 20t16 49v107q0 10 7 13t15 6q4 1 7 3t4 6q0 3-3 3t-7 1q-10 0-15-1t-11-1-14 0q-8 0-14 0t-11 1-16 1q-2 0-6-1t-4-3q0-4 4-6t8-3q7-3 14-6t7-13v-105q0-22-12-35t-33-12q-18 0-31 5t-24 15q-2 2-3 5t-1 6v121q0 10 7 13t14 6q12 3 12 8 0 3-3 4t-7 1q-10 0-16-1t-11-1-14 0q-8 0-14 0t-11 1-15 1m420 8q-1 0-3-2t-2-3q0-5 1-14t1-16v-3q-7 12-24 24t-41 12q-29 0-50-15t-32-39-11-48q0-29 14-55t38-41 61-16q10 0 20 1t16 4q4 2 6 2 4 0 4-12v-71q0-21-7-28t-18-9q-5-1-5-6 0-5 4-6 22-6 35-11t19-8q2-1 4-1t3 0q3 0 3 3 0 3-1 10t-1 21-1 37v226q0 17 2 24t8 8q3 0 9 0t13-1q9-1 9 4 0 4-3 6t-4 3q-14 2-28 6t-31 11q-4 2-5 3t-3 0m-50-28q13 0 25-7t22-18l1-90q0-13-8-26t-22-22-32-8q-11 0-26 7t-25 25-10 51q0 29 8 46t21 26 25 12 21 4" />
</svg>