<svg id="fnt-Economica" viewBox="0 0 1622 1000" xmlns="http://www.w3.org/2000/svg"><path id="economica" class="f" d="M174 638v29h-136v-360h131v26h-100l2 13v99l-2 13h93v28h-93l2 13v127l-2 12h105m44-105v-32q0-37 1-46t4-21 6-15 8-10 12-8q17-6 34-6l42 6q0 22-18 22-4 0-7 0l-17-2q-25 0-31 21t-5 74 0 67 4 33 11 22 21 6l44-5v23l-44 8q-27 0-36-6t-13-11-8-15-5-19-2-24q-1-29-1-62m261 131q-7 3-16 4t-21 2-22-1-17-7-12-9-8-15-5-19-3-25-1-28 0-35 0-35 1-28 3-24 5-18 8-15 12-8q12-8 31-8t29 1 16 4 12 8 8 11 6 15 3 17 2 23 1 26v31t0 2q0 0 0 31 0 34-2 44t-4 22-6 15-8 11-12 8m2-121v-17q0-66-5-83-8-21-33-22-21 0-28 11-4 7-6 13t-4 21q-1 22-1 42t0 41 0 36 4 32 12 22 20 5 19-3 10-8 7-13 3-19q2-20 2-58m193 101v-111q0-76-4-94t-27-18l-49 18 2 12v216q-22 0-26-3t-4-20v-246q22 0 26 2t4 13l45-18q45 0 54 23t9 116v133q-22 0-26-3t-4-20m187 20q-7 3-16 4t-21 2-22-1-17-7-12-9-8-15-5-19-3-25-1-28 0-35 0-35 1-28 3-24 5-18 8-15 12-8q12-8 31-8t29 1 16 4 12 8 8 11 6 15 3 17 2 23 1 26v31t0 2q0 0 0 31 0 34-2 44t-4 22-6 15-8 11-12 8m2-121v-17q0-66-5-83-8-21-33-22-21 0-28 11-4 7-6 13t-4 21q-1 22-1 42t0 41 0 36 4 32 12 22 20 5 19-3 10-8 7-13 3-19q2-20 2-58m299 101v-111t0-4q0-74-4-91t-29-17l-46 16 2 12v218q-22 0-26-3t-3-20l-1-111q0-2 0-14t0-20 0-16-1-21-3-18-5-12q-6-11-23-11l-47 18 2 12v216q-22 0-26-3t-4-20v-246q22 0 26 2t4 13l45-18q36 0 53 21l53-21q46 0 54 21t9 118v133q-22 0-26-3t-4-20m125-299q-7 7-16 7t-17-7-6-16 6-16 17-6 16 6 7 16-7 16m-31 301v-248q22 0 26 3t4 20v248q-22 0-26-3t-4-20m90-113v-32q0-37 2-46t4-21 5-15 8-10 12-8q17-6 35-6l41 6q0 22-18 22-3 0-7 0l-16-2q-26 0-31 21t-6 74 1 67 4 33 11 22 21 6l43-5v23l-43 8q-27 0-36-6t-14-11-8-15-4-19-3-24q-1-29-1-62m249-42l-2-13v-28q0-20-5-25t-23-5l-25 5q-5 1-7 1-18 0-18-23l50-8q38 0 46 10 4 5 6 8t3 13q1 14 1 33v208q-22 0-26-4t-4-21q-5 3-14 11-19 17-32 17-31 0-37-19t-5-107q0-33 29-44 24-9 61-9h2m-2 28h-2q-29 0-44 4t-15 17q0 92 4 100 2 4 9 4t15-4 18-11 15-9l-2-13v-76l2-12" />
</svg>