<svg id="fnt-Eczar" viewBox="0 0 1171 1000" xmlns="http://www.w3.org/2000/svg"><path id="eczar" class="f" d="M65 667h-47l-3-16q12-6 24-10t26-8l0 34m186 0l-37-20 17-72 26 2q1 13 0 30t-2 33-4 27m-182-325l1 27-48-3 1-24h46m177 82h-27l-8-60 40-22q1 8 1 21t-2 30-4 31m-142 243h-46v-325h46v325m115-186v44l-120-5v-30l120-9m32-139l-8 38-151-10-37-28h196m0 325h-196l37-32 151-7 8 39m223-20l-68 27q-30 1-52-9t-37-27-23-40-7-48q0-38 14-66t41-45 59-16q15 0 28 3t25 11 23 19l-27 35q-19-15-41-25t-45-12q-15 19-23 40t-8 46q0 28 9 50t28 34 43 13q11 0 25-3t27-8l9 21m74 3l-27 24-22-18 158-213 13-4 25-17 17 15-147 198-17 15m153 22l-176-16 19-31 133 6 10-38 26 4q-1 22-4 41t-8 34m-163-156h-24q-4-19-6-42t1-41l36 24-7 59m120-54l-147 5-2-34h171l-22 29m308 189l-50 23q-6 0-14-7t-15-15-9-19v-7-119q0-23-6-35t-19-18q-14 0-30 3t-26 5l-4 52-27 2q-6-12-10-28t-4-32q11-6 27-13t32-11 31-9 21-3q11 0 22 6t19 14 13 15q3 7 4 16t2 36v117q0 5 3 7t10 3 11-2 12-3l7 22m-81-14l-61 37q-28 3-45-6t-26-24-8-29 8-29 27-25l110-3-2 27-8 0q-14-2-29-2t-29 3-21 10-9 19q0 6 3 12t10 11q15 0 30-4t29-9 21-9v21m174 30h-44v-224l24-18 20 17v225m-14-124l-10-29 77-82q17-7 31-6t26 9q1 10 0 20t-1 21-3 20-5 20h-27l-5-55q-13 7-28 19t-30 28-25 35m-21-83l-47 4-6-24q15-7 34-11t34-4l7 12-22 23m-4 207h-39l-3-17q9-4 24-9t25-8l-7 34m88 0h-57l1-34q8 0 20 2t22 3 17 5l-3 24" />
</svg>