<svg id="fnt-Edu NSW ACT Foundation" viewBox="0 0 4762 1000" xmlns="http://www.w3.org/2000/svg"><path id="edu-nsw-act-foundation" class="f" d="M19 651l37-354q1-7 4-12t13-4l13 18-38 353-14 15q-8 0-12-5t-3-11m217 1q0 6-4 10t-12 5h-186l2-28h184q9 0 12 4t4 9m7-193q0 5-4 9t-14 5h-172l3-28h171q8 0 12 4t4 10m31-165q0 5-4 9t-12 5h-188l3-27h185q9 0 12 4t4 9m133 373q-6 0-11-4t-4-12l38-358q1-7 6-10t9-2q6 0 11 4t4 11l-38 358q-1 6-5 9t-10 4m-128-72q0-20 5-44t17-44 27-35 40-13h57l-3 30h-52q-16 0-28 11t-19 27-11 34-4 31q0 29 5 38t17 9q9 0 22-10t28-34 31-62l-5 65q-11 19-23 35t-27 26-30 10q-11 0-22-6t-18-23-7-45m328 72q-8 0-10-5t-2-11l19-176q1-5 4-11t12-5 12 5 1 12l-18 175q-1 8-5 12t-13 4m-76 2q-17 0-29-10t-15-26-3-35l15-123q0-5 3-11t12-5q10 0 12 5t1 12l-13 122q-2 18 3 30t15 12q13 0 25-10t28-35 33-65l-5 65q-12 21-25 38t-27 26-30 10m543-13l-188-342 2-33q8 0 12 3t7 9l184 334-1 40q-6 0-10-3t-6-8m-225 11q-8 0-12-5t-3-11l38-354q1-7 4-12t12-4l13 22-37 347q-1 5-3 11t-12 6m280-386q8 0 11 5t1 13l-37 353q-1 7-3 11t-11 4l-15-29 37-341q1-7 4-12t13-4m125 388q-31 0-54-14t-28-37q-2-7-1-13t8-8 12 0 8 11q4 14 20 24t44 10q21 0 40-8t32-25 16-43q3-29-15-52t-56-45q-18-10-33-22t-27-25-18-29-4-33q3-22 17-41t39-30 64-11q35 0 55 15t28 35q3 8 1 14t-7 9-11-1-8-8q-6-16-20-26t-36-10q-43 0-67 15t-26 42q-2 16 7 30t26 28 42 27q24 13 43 31t28 40 7 52q-2 25-13 43t-27 31-38 18-48 6m626-369l-141 352q-3 6-6 10t-11 5l1-41 24-71 103-260q4-8 7-11t12-3q6 0 11 4t0 15m-376 350l-54-354q-1-7 2-11t11-4q10 0 13 4t3 10l39 259 8 75-6 38q-6 0-11-5t-5-12m143-277l-110 278q-1 5-5 10t-12 6v-39l25-74 101-259q2-5 6-10t11-4v35l-16 57m59 279l-42-277-7-62 6-32q11 0 14 4t4 10l39 258 7 75-5 39q-8 0-12-5t-4-10m307 15q-7-2-9-8t3-16l156-348q3-7 6-11t12-3q8 0 11 4t4 10l-18 25-145 332q-3 7-8 12t-12 3m199-196h-111l11-25h95l5 25m26 196q-10 0-13-5t-5-12l-46-331 22-24 54 352q1 8-1 13t-11 7m160 2q-42 0-68-24t-32-70 6-110q10-52 29-94t49-66 71-24q23 0 40 5t28 12 20 15q4 4 6 10t-4 13q-6 6-13 5t-11-5q-10-7-26-17t-38-9q-34 0-58 21t-40 56-24 81q-15 88 2 131t60 43q24 0 43-10t32-25 21-29q5-10 10-14t14-1 7 11-6 18q-9 19-27 36t-41 30-50 11m244-2q-8 0-11-7t-2-15l37-349h30l-37 351q-1 7-4 13t-13 7m-76-372q0-5 3-10t12-4h199q9 0 12 4t4 10-3 10-12 5h-198q-9 0-13-5t-4-10m381 372q-8 0-12-5t-3-11l38-354q1-7 4-12t13-4l12 18-37 353q-1 4-3 9t-12 6m204-208q0 5-4 9t-12 5h-168l4-28h164q9 0 12 4t4 10m37-165q0 5-4 9t-12 5h-188l3-27h185q8 0 12 4t4 9m42 375q-12 0-24-5t-20-19-7-35q0-25 5-51t15-50 29-36 42-14q21 0 37 7t24 22 6 31q-2 16-9 36t-17 40-24 37-28 27-29 10m0-30q8 0 20-11t24-30 22-39 11-39q2-15-8-23t-29-8q-16 0-28 11t-19 30-10 37-4 37q-1 13 4 24t17 11m261 28q-7 0-10-5t-1-11l19-176q0-5 3-11t13-5 11 5 2 12l-18 175q-1 8-6 12t-13 4m-76 2q-17 0-28-10t-16-26-2-35l14-123q1-5 3-11t12-5q10 0 12 5t2 12l-14 122q-1 18 3 30t16 12q12 0 25-10t28-35 33-65l-5 65q-13 21-26 38t-26 26-31 10m165-2q-10 0-12-6t-2-13l20-173q1-8 5-12t14-4q7 0 9 4t1 12l-20 173q-1 6-2 12t-13 7m115 0q-10 0-12-6t-1-13l14-120q1-8-1-18t-6-17-11-7q-19 0-38 26t-47 87l6-66q17-36 36-56t44-21q18 0 29 11t15 27 3 34l-15 120q-1 6-3 12t-13 7m199 0q-6 0-11-4t-4-12l38-358q1-7 6-10t9-2q6 0 11 4t4 11l-38 358q-1 6-5 9t-10 4m-128-72q0-20 5-44t17-44 27-35 40-13h57l-3 30h-52q-16 0-28 11t-19 27-11 34-4 31q0 29 5 38t17 9q9 0 22-10t28-34 31-62l-5 65q-11 19-23 35t-27 26-30 10q-11 0-22-6t-18-23-7-45m249 74q-11 0-22-6t-18-23-7-45q0-20 5-44t17-44 27-35 40-13h55l-3 30h-50q-16 0-28 11t-19 27-11 34-4 31q0 29 5 38t17 9q9 0 22-10t28-33 31-62l-5 66q-16 28-36 49t-44 20m80-2q-10 0-12-6t-2-10l21-192h18q4 0 7 5t3 11l-19 173q-1 6-3 12t-13 7m119 0q-5 0-10-4t-5-11l40-360q1-6 5-10t9-3q6 0 11 4t4 13l-39 357q-1 7-5 10t-10 4m-56-195q0-6 3-10t12-3h127q9 0 12 3t4 10-3 9-11 5h-127q-9 0-13-5t-4-9m180 195q-6 0-10-5t-4-12l19-175q1-8 6-12t10-4 10 4 3 14l-18 173q-1 8-6 12t-10 5m26-253q-8 0-15-7t-6-14q0-9 6-15t15-5 13 5 6 15q0 8-6 14t-13 7m102 255q-12 0-24-5t-20-19-7-35q0-25 5-51t15-50 29-36 42-14q21 0 37 7t24 22 6 31q-2 16-9 36t-17 40-24 37-28 27-29 10m0-30q8 0 20-11t24-30 22-39 11-39q2-15-8-23t-29-8q-16 0-28 11t-19 30-10 37-4 37q-1 13 4 24t17 11m148 28q-10 0-12-6t-2-13l20-173q1-8 5-12t14-4q7 0 9 4t1 12l-20 173q-1 6-2 12t-13 7m115 0q-10 0-12-6t-1-13l14-120q1-8-1-18t-6-17-11-7q-19 0-38 26t-47 87l6-66q17-36 36-56t44-21q18 0 29 11t15 27 3 34l-15 120q-1 6-3 12t-13 7" />
</svg>