<svg id="fnt-Edu SA Beginner" viewBox="0 0 3038 1000" xmlns="http://www.w3.org/2000/svg"><path id="edu-sa-beginner" class="f" d="M221 667h-186q-8 0-12-5t-3-11l37-354q1-7 4-12t14-4h184q9 0 13 4t3 9q0 5-3 9t-13 5h-173l-35 331h170q9 0 13 4t3 9-3 10-13 5m6-194h-173l3-28h171q9 0 12 4t4 10q0 5-4 9t-13 5m135 194q-26 0-42-15t-22-40-4-50q4-34 17-58t32-36 41-12q13 0 28 6t26 19l-3 27q-8-13-24-19t-28-5q-22 0-38 21t-21 59q-2 19 1 37t12 28 25 11q13 0 24-11t20-29 16-39 10-39l-9 96q-5 11-11 19t-15 16-17 10-18 4m69 0q-6 0-10-5t-4-12l37-353q1-9 6-13t11-3 9 4 4 13l-37 352q-1 8-6 12t-10 5m127 0q-26 0-38-20t-8-49l14-123q1-5 3-11t13-5 12 5 1 12l-13 122q-2 18 2 29t16 11q12 0 25-10t28-34 33-64l-5 65q-19 32-39 52t-44 20m76 0q-7 0-10-5t-1-11l19-176q0-5 3-11t13-5 12 5 1 12l-18 175q-1 8-6 12t-13 4m298 3q-20 0-38-7t-28-18-16-27q-2-7 0-13t8-8 12 0 8 11q2 9 10 17t22 12 32 5q21 0 40-8t32-25 16-43q2-29-15-52t-57-45q-17-10-33-22t-27-25-17-29-4-33q2-22 16-41t40-30 64-11q35 0 55 14t28 36q2 8 1 14t-7 9-12-1-7-8q-6-16-20-27t-37-10q-42 0-66 16t-27 42q-1 16 7 30t27 28 42 27q24 13 42 31t29 40 7 52q-5 50-40 74t-87 25m155-3q-6-2-8-8t2-16l156-348q4-7 7-11t11-3q9 0 12 4t4 10l54 352q1 8-2 13t-11 7q-9 0-12-5t-4-12l-49-340 9 2-148 340q-3 7-8 12t-13 3m200-194h-111l11-27h95l5 27m243 194q-7 0-11-6t-4-13l37-351q1-9 5-12t12-4q64-4 108 7t65 35 16 56q-2 15-7 28t-16 25-33 21-57 15-86 8l2-21q53-2 85-9t49-18 25-24 9-27q2-21-14-38t-50-26-84-6l-35 332q85-1 132-24t51-61q2-26-18-44t-60-26-95-3l2-26q66-5 112 6t69 35 19 63q-3 33-32 57t-78 38-118 13m343 0q-20 0-34-9t-22-24-11-34-1-38q4-34 17-58t32-36 41-12q14 0 27 6t21 15 8 20q0 12-12 25t-29 28-38 27-38 25l-4-29q14-8 29-19t30-21 23-20 9-13q0-6-7-11t-20-5q-22 0-38 21t-21 59q-2 19 1 37t13 28 27 11q11 0 23-9t19-24q3-5 8-6t12 2q5 3 7 8t-1 10q-11 20-29 33t-42 13m186 0q-26 0-42-15t-22-40-3-50q4-34 16-58t32-36 41-12q13 0 28 6t27 19l-3 27q-9-13-24-19t-29-5q-21 0-38 21t-20 59q-2 19 1 37t12 28 25 11q12 0 23-11t20-29 16-39 10-39l-8 96q-5 11-12 19t-14 16-17 10-19 4m-17 178q-17 0-33-7t-28-17q-5-6-5-12t7-10q4-3 9-2t8 4q16 17 43 17 25 0 42-21t20-57l28-265q1-8 6-12t11-4 10 4 3 14l-28 263q-5 48-30 76t-63 29m176-178q-6 0-10-5t-3-12l18-175q1-8 6-12t11-4q5 0 9 4t4 14l-19 173q0 8-5 12t-11 5m27-254q-9 0-16-7t-7-17 6-16 17-6q9 0 15 6t7 16q0 10-6 17t-16 7m62 254q-9 0-12-6t-2-13l20-173q1-8 6-12t13-4q8 0 10 4t1 12l-20 173q-1 6-3 12t-13 7m115 0q-9 0-11-6t-2-13l15-120q2-20-3-31t-16-11q-18 0-38 26t-47 87l6-66q17-36 37-56t44-21q25 0 38 19t8 53l-15 120q0 6-2 12t-14 7m85 0q-9 0-12-6t-2-13l20-173q1-8 6-12t13-4q8 0 10 4t1 12l-20 173q-1 6-3 12t-13 7m115 0q-9 0-11-6t-2-13l15-120q2-20-3-31t-16-11q-18 0-38 26t-47 87l6-66q17-36 37-56t44-21q25 0 38 19t8 53l-15 120q0 6-2 12t-14 7m142 0q-20 0-34-9t-22-24-11-34-1-38q4-34 17-58t32-36 41-12q14 0 27 6t21 15 8 20q0 12-12 25t-29 28-38 27-38 25l-4-29q14-8 29-19t30-21 23-20 9-13q0-6-7-11t-20-5q-22 0-38 21t-21 59q-2 19 1 37t13 28 27 11q11 0 23-9t19-24q3-5 8-6t12 2q5 3 7 8t-1 10q-11 20-29 33t-42 13m130 0q-6 0-11-4t-3-12l18-176q1-8 6-12t11-4 10 4 3 14l-18 174q-1 8-6 12t-10 4m133-151q-5 3-11 2t-8-7q-2-10-6-18t-12-7q-12 0-24 11t-27 36-33 66l5-65q19-39 38-58t43-20q18 0 29 12t15 28q2 9-1 13t-8 7" />
</svg>