<svg id="fnt-Edu QLD Beginner" viewBox="0 0 3507 1000" xmlns="http://www.w3.org/2000/svg"><path id="edu-qld-beginner" class="f" d="M8 651l62-354q2-7 5-12t13-4 11 5 1 13l-62 353q0 4-3 9t-13 6q-8 0-12-5t-2-11m213 1q0 6-3 10t-12 5h-184l5-28h179q9 0 12 4t3 9m12-179q0 5-3 9t-12 4h-167l4-27h163q9 0 12 4t3 10m49-179q0 5-4 9t-12 5h-182l4-27h178q9 0 12 4t4 9m151 373q-13-2-20-14t-7-31 4-42l50-283q1-8 7-12t11-4q6 0 10 3t2 13l-51 291q-2 9-3 21t0 21 5 9q6 0 12-5t12-16l4-6q4-7 8-11t9-4 9 4 4 10q0 3-4 10t-9 16q-10 15-22 24t-31 6m-148 2q-15 0-23-11t-9-34q0-17 5-40t12-44 17-36q17-25 41-35t49-10h63l-7 30h-56q-15 0-34 7t-33 26q-7 12-14 31t-9 38-4 30q0 7 1 13t7 5q9 0 27-16t45-51q17-22 31-42t25-41h22q-8 19-17 38t-21 38-23 35q-14 17-30 33t-32 26-33 10m274 0q-17 0-25-11t-9-27 2-33l21-123q1-8 7-12t11-4 10 4 2 13l-21 122q-2 8-3 18t2 17 9 7q9 0 22-11t28-30 31-42 31-46 27-44l3 45q-9 16-22 37t-29 42-31 38-33 29-33 11m123-2q-6 0-11-5t-2-14l35-181q3-4 6-6t10-2q7 0 9 4t1 12l-31 173q-1 7-4 11t-6 6-7 2m422 26q-6 4-13 0t-11-9l-61-90q-5-7-6-13t5-9q6-6 13-4t12 9l64 93q4 5 3 12t-6 11m-101-23q-20 0-35-14t-23-37-12-56-1-68 12-74q11-45 30-77t47-49 65-18q31 0 51 10t33 29 17 42 2 50q-3 34-14 71t-29 71-40 61-49 43-54 16m2-27q20 0 40-15t40-39 36-54 26-62 12-62q2-22 0-42t-11-33-24-23-39-7q-31 0-53 15t-36 42-23 70q-7 30-10 60t-1 57 7 48 14 33 22 12m203 8l63-354q1-7 5-12t13-4 11 5 1 13l-63 353q-1 4-3 9t-13 6q-8 0-11-5t-3-11m206 1q0 6-4 10t-11 5h-177v-28h177q8 0 11 4t4 9m293-190q-9 66-37 112t-73 69-102 24h-37l6-28h31q48 0 87-20t63-61 32-100q6-48-9-80t-46-49-76-17h-26l4-31h20q42 0 74 11t54 35 31 57 4 78m-264 189l63-354q1-7 5-12t13-4 11 5 1 13l-62 353q-1 4-4 9t-13 6q-8 0-11-5t-3-11m695-268q-3 23-12 40t-31 28-61 16-100 6l4-19q54 0 86-5t51-13 24-23 10-31q2-20-7-34t-28-23-47-13-63-4l-5-27q96 0 141 25t38 77m-22 187q-3 24-16 42t-37 31-67 18-105 6l15-28q54 0 93-6t62-22 26-45q4-23-12-44t-50-33-91-12l2-23q47 0 82 8t59 24 33 37 6 47m-236 78l62-351q2-9 5-13t12-3l13 18-62 351-16 17q-7 0-11-6t-3-13m324 21q-17 0-30-7t-19-21-5-38q2-18 7-37t14-37 17-31q13-20 33-30t41-10q12 0 23 3t19 10 7 16q0 11-8 25t-23 27-41 28q-12 6-27 13t-28 14-17 9l6-30q6-4 15-8t20-11 22-13q28-18 39-28t11-17q0-4-5-7t-14-2q-11 0-25 5t-24 21q-9 12-16 30t-11 35-6 31q0 15 5 23t20 8q14 0 25-6t19-13 11-12q8-11 15-12t12 3q4 3 4 9t-9 20q-3 4-13 14t-27 18-37 8m96 161q0-6 6-11t14-4q4 0 12-1t20-1 21-2 15-1q20-3 33-12t21-21q13-21 17-51t11-60l22-117 19-90h9q9 0 12 5t2 16l-34 186q-6 38-13 70t-20 57q-11 18-29 30t-42 16q-8 1-18 2t-22 1-20 2-13 0q-11 0-17-4t-6-10m29-207q0-17 4-40t12-45 17-35q12-17 26-27t32-13 34-4h66v30h-66q-16 0-36 6t-33 26q-7 12-13 31t-10 38-3 30q0 10 2 14t6 5q6 0 16-7t23-21 33-39q16-20 31-42t28-42h17q-11 27-26 58t-33 54q-15 18-30 34t-31 26-34 9q-15 0-23-11t-9-35m260 44q-6 0-10-5t-3-12l31-175q1-8 7-12t12-4q5 0 9 4t3 14l-31 173q-1 8-7 12t-11 5m48-254q-8 0-14-6t-6-15q0-8 6-15t14-6 14 6 6 15q0 8-6 15t-14 6m197 254q-9 0-11-6t-1-12l22-121q2-8 3-18t-1-17-10-7q-9 0-22 11t-28 30-31 42-31 47-27 44l4-61q17-28 35-54t35-46 35-31 35-12q18 0 26 11t10 27-2 34l-23 125q-1 5-5 9t-13 5m-151 0q-10-2-12-7t1-15l29-170q1-6 3-9t6-6 10-1q7 0 10 4t2 12l-35 185q-2 4-5 5t-9 2m386 0q-9 0-11-6t-1-12l22-121q2-8 3-18t-1-17-10-7q-9 0-22 11t-28 30-31 42-31 47-27 44l4-61q17-28 35-54t35-46 35-31 35-12q18 0 26 11t10 27-2 34l-23 125q-1 5-5 9t-13 5m-151 0q-10-2-12-7t1-15l29-170q1-6 3-9t6-6 10-1q7 0 10 4t2 12l-35 185q-2 4-5 5t-9 2m277 2q-16 0-29-7t-20-21-4-38q1-18 7-37t13-37 17-31q13-20 33-30t42-10q11 0 22 3t19 10 8 16q0 11-8 25t-24 27-41 28q-11 6-27 13t-28 14-17 9l6-30q7-4 16-8t19-11 22-13q28-18 39-28t12-17q0-4-6-7t-13-2q-11 0-25 5t-25 21q-8 12-15 30t-12 35-5 31q-1 15 5 23t20 8q13 0 24-6t19-13 11-12q9-11 15-12t12 3q4 3 5 9t-9 20q-3 4-14 14t-26 18-38 8m297-144q-7 1-12-4t-4-9q0-8-3-16t-8-8q-7 0-23 13t-42 44-58 89l10-63q27-44 48-69t38-35 31-11q11 0 19 8t13 19 5 26q0 5-3 10t-11 6m-159 142q-5 0-9-4t-3-12l31-176q1-8 6-12t11-4 10 4 2 14l-30 174q-1 8-7 12t-11 4" />
</svg>