<svg id="fnt-Edu VIC WA NT Beginner" viewBox="0 0 4902 1000" xmlns="http://www.w3.org/2000/svg"><path id="edu-vic-wa-nt-beginner" class="f" d="M234 667h-199q-8 0-12-5t-2-11l62-354q2-7 5-12t13-4h191q9 0 12 4t3 10-3 9-12 4h-181l-57 331h180q9 0 12 3t3 9q0 5-3 10t-12 6m3-181h-171l4-27h167q9 0 12 4t4 10q0 5-4 9t-12 4m122 183q-29 0-43-24t-6-66q7-37 25-64t48-42 64-14h31l-5 27h-24q-43 0-72 25t-37 68q-5 29 2 46t22 17q20 0 44-37t48-99l-7 67q-17 48-42 72t-48 24m87-2q-7 0-12-5t-3-12l63-358q1-7 6-9t10-2q6 0 10 4t4 12l-64 357q-1 7-5 10t-9 3m139 2q-31 0-46-20t-9-54l22-124q1-2 3-7t14-5q10 0 11 5t2 9l-22 124q-4 20 4 32t23 13q18 0 37-20t46-60l-6 43q-22 34-40 49t-39 15m73-2q-7 0-9-5t-1-11l31-178q1-3 3-9t14-5q10 0 12 5t2 9l-32 178q-1 5-3 8t-7 6-10 2m293 0q-8 0-11-6t-5-11l-19-354q-1-7 2-11t11-4q10 0 13 4t4 10l15 322-4-2 155-320q4-7 8-11t13-3q7 0 11 5t-1 14l-174 352q-3 6-6 10t-12 5m237-15h-30l63-359 30 0-63 359m13 15h-56q-8 0-12-5t-3-9q0-5 3-10t12-4h56q9 0 12 4t3 10q0 5-3 9t-12 5m62-359h-53q-9 0-13-5t-3-9q0-6 3-10t13-3h53q8 0 11 3t4 10q0 5-4 9t-11 5m147 359q-22 0-43-12t-36-35-22-57 2-77q5-26 12-54t20-55 31-49 46-34 66-13q28 0 54 12t47 36q4 4 5 10t-3 10q-3 4-9 4t-12-5q-20-21-41-31t-42-9q-31 0-54 11t-38 32-26 43-17 48-9 44q-9 50 0 84t29 52 40 17q30 0 53-15t48-39q9-8 14-14t11-6q6 0 9 2t5 8q1 3-2 9t-13 19q-26 28-56 46t-69 18m402 0q-8 0-12-5t-5-12l-19-354q-1-7 2-11t11-4q10 0 13 4t4 10l16 323-5-2 155-321q2-3 6-9t12-5q11 0 14 4t4 10l17 321-4-2 154-319q4-7 8-11t11-3q8 0 12 5t0 14l-174 352q-3 7-8 11t-9 4q-8 0-12-3t-4-9l-16-329 4 2-157 323q-2 5-6 10t-12 6m336 0q-7 0-11-5t0-14l184-353q3-6 6-10t12-4q7 0 10 3t4 8l31 359q1 7-3 11t-11 5q-9 0-12-5t-3-10l-23-282v-45l-19 42-145 285q-4 8-8 11t-12 4m207-181h-116l13-25h100l3 25m229 181q-8 0-12-5t-2-11l62-354q2-7 5-12t13-4q8 0 12 4t6 8l116 323-8 1 57-320q1-7 5-12t12-4 11 5 1 13l-62 353q-1 4-3 9t-12 6q-6 0-10-4t-6-7l-121-331 9-1-57 326q0 5-3 11t-13 6m408 0q-8 0-11-5t-2-11l61-352h30l-62 353q0 4-3 9t-13 6m176-359h-230q-9 0-12-5t-3-9q0-5 3-9t12-4h230q9 0 12 4t3 9q0 5-3 9t-12 5m163 359q-6 0-9-6t-2-13l62-351q2-9 6-13t11-3q96 0 141 25t39 77q-3 23-13 40t-32 28-62 16-105 6l4-19q45 0 76-3t50-9 30-14 15-20 7-26q3-26-13-43t-49-23-77-8l-58 331q52 0 90-7t60-22 25-44q4-23-12-44t-53-33-99-12l5-23q67 0 110 14t64 41 15 61q-4 24-16 42t-38 31-67 18-105 6m321 2q-24 0-38-18t-14-48q0-29 9-55t24-47 35-33 42-12q20 0 32 9t12 29q0 13-8 24t-18 21-22 16-21 12q-11 6-25 13t-27 14-16 9l7-34q7-4 14-8t15-8 16-9q22-13 38-26t16-22q0-5-4-9t-13-3q-20 0-37 17t-28 47-10 61q0 14 6 23t16 10q11 0 24-9t25-22q8-11 15-13t12 2q4 3 5 9t-9 20q-14 18-34 29t-39 11m184 0q-29 0-43-24t-6-66q7-37 25-64t48-42 64-14h31l-5 27h-24q-43 0-72 25t-37 68q-5 29 2 46t22 17q20 0 44-37t48-99l-7 67q-17 48-42 72t-48 24m-11 176q-18 0-35-6t-28-14q-4-3-5-9t4-11q3-4 9-4t10 4q9 6 21 9t25 4q20 0 33-10t22-29 13-51l47-269h13q9 0 12 4t2 12l-45 255q-11 61-34 88t-64 27m185-178q-10 0-12-5t-1-9l31-178q1-6 3-9t7-6 10-1q7 0 9 4t1 12l-31 178q-1 2-3 8t-14 6m48-260q-8 0-13-6t-5-12 5-12 13-5q7 0 12 4t6 13q0 7-5 12t-13 6m41 260q-9 0-11-5t-2-9l32-178q1-6 3-9t6-6 10-1q8 0 10 4t1 12l-32 178q0 2-3 8t-14 6m134 0q-10 0-12-6t-1-9l22-124q2-10 0-20t-8-17-20-7q-18 0-39 18t-49 61l6-42q20-33 40-49t44-16q22 0 35 11t18 27 2 36l-22 124q0 2-3 7t-13 6m83 0q-9 0-11-5t-2-9l32-178q1-6 3-9t6-6 10-1q8 0 10 4t1 12l-32 178q0 2-3 8t-14 6m134 0q-10 0-12-6t-1-9l22-124q2-10 0-20t-8-17-20-7q-18 0-39 18t-49 61l6-42q20-33 40-49t44-16q22 0 35 11t18 27 2 36l-22 124q0 2-3 7t-13 6m127 2q-24 0-38-18t-14-48q0-29 9-55t24-47 35-33 42-12q20 0 32 9t12 29q0 13-8 24t-18 21-22 16-21 12q-11 6-25 13t-27 14-16 9l7-34q7-4 14-8t15-8 16-9q22-13 38-26t16-22q0-5-4-9t-13-3q-20 0-37 17t-28 47-10 61q0 14 6 23t16 10q11 0 24-9t25-22q8-11 15-13t12 2q4 3 5 9t-9 20q-14 18-34 29t-39 11m141-2q-6 0-10-4t-3-12l31-176q1-8 7-12t10-4q6 0 10 4t3 14l-31 174q-1 8-6 12t-11 4m29-105l9-43q10-21 22-35t24-21 23-7q10 0 14 4t7 9 8 4q5 0 10-3t9-5q6-4 12-5t11 2 5 9q0 7-5 12t-12 10q-8 5-17 7t-13 2q-9 0-15-5t-10-9-9-4q-5 0-14 6t-24 23-35 49" />
</svg>