<svg id="fnt-El Messiri" viewBox="0 0 2061 1000" xmlns="http://www.w3.org/2000/svg"><path id="el-messiri" class="f" d="M226 667h-173v-270q0-23-6-37t-29-13h-10v-10h213q18 0 27 5t12 15 4 20v37h-10q0-30-17-44t-46-13h-93v130h135v20h-135v140h88q34 0 53-13t32-42l10 2-18 48q-4 11-13 18t-24 7m152 0h-45v-270q0-23-6-37t-29-13h-10v-10h45q18 0 27 4t14 18 4 38v270m584 12v10q-36 0-57-11t-28-35-8-61v-193l-125 278h-10l-130-283v283h-20v-330h48l120 260 117-260h45v245q0 45 12 71t36 26m126-7q-35 0-59-17t-35-44-11-62q0-34 12-62t34-44 54-16q34 0 56 12t33 38 11 60l-1 20h-152q0 41 18 68t50 27q24 0 40-11t30-29l10 7q-11 19-25 31t-30 16-35 6m-58-135h105q0-44-13-67t-39-23q-15 0-27 11t-19 32-7 47m289 135q-30 0-49-6t-29-14-11-22-1-31h10q4 25 21 39t49 14q28 0 41-10t14-25-12-26-33-19l-30-13q-29-11-45-27t-15-40q0-32 23-49t59-16q29 0 47 5t28 15 11 21 2 31h-10q-4-24-21-38t-47-14q-24 0-37 10t-13 25q0 13 11 23t29 19l30 13q32 13 49 28t16 42q0 31-25 48t-62 17m223 0q-30 0-49-6t-29-14-11-22-1-31h10q4 25 21 39t49 14q28 0 41-10t14-25-12-26-33-19l-30-13q-29-11-45-27t-15-40q0-32 23-49t59-16q29 0 47 5t28 15 11 21 2 31h-10q-4-24-21-38t-47-14q-24 0-37 10t-13 25q0 13 11 23t29 19l30 13q32 13 49 28t16 42q0 31-25 48t-62 17m197-5h-45v-175q0-23-7-37t-28-13h-10v-10h45q17 0 27 4t14 18 4 38v175m-26-265q-12 0-20-10t-8-22q0-11 6-17t17-6q11 0 19 10t9 22q0 11-7 17t-16 6m145 265h-45v-175q0-23-6-37t-29-13h-5v-10h40q19 0 29 5t14 17q8-8 24-18t38-9q8 0 16 1t14 6 10 10 8 13l-20 15q-6-8-17-12t-23-3q-15 0-28 6t-20 19q0 2 0 7t0 8v170m202 0h-45v-175q0-23-6-37t-29-13h-10v-10h45q18 0 27 4t14 18 4 38v175m-26-265q-11 0-20-10t-8-22q0-11 6-17t17-6q12 0 20 10t8 22q0 11-6 17t-17 6" />
</svg>