<svg id="fnt-Elsie Swash Caps" viewBox="0 0 3762 1000" xmlns="http://www.w3.org/2000/svg"><path id="elsie-swash-caps" class="f" d="M103 589q0 35 21 54t54 20 52-16 21-43q0-7-3-13t-7-7-4 5q0 1 2 4t1 12-7 15-19 7-22-8-8-23 10-25 27-10 28 12 11 31q0 31-24 52t-77 21-81-22-28-59 23-63 66-35l-2-4q-36-7-54-28t-19-47q0-38 29-63t74-24q30 0 52 12t23 41q0 18-11 29t-25 11-24-9-11-22 8-23 21-8q16 0 22 15 1 3 2 4t4 2q4 0 4-5 0-15-16-25t-39-10-43 19-20 53 17 51 45 18q13 0 24-4l3 9q-100 29-100 99m267-274v344h33v8h-110v-8h33v-330h-36v-7h11q39 0 69-7m173 112q76 0 76 51 0 15-10 25t-23 11-21-8-8-19 6-19 18-8q17 0 20 13 0 5 4 5t5-5q0-14-14-25t-42-11-47 10-18 29 15 31 35 19 41 15 35 24 15 38q0 37-27 55t-66 19-64-14-24-43q0-15 10-25t23-10 21 7 9 19-7 19-17 8q-17 0-20-13-1-4-5-4t-4 4q0 15 16 28t50 14q73 0 73-47 0-29-50-47-21-8-41-16t-35-24-15-37q0-32 25-51t61-18m211 3v229h33v8h-110v-8h33v-215h-36v-7h11q39 0 69-7m-45-48q-8-8-8-21t8-21 21-8 21 8 9 21-9 21-21 8-21-8m233 45q37 0 62 16t26 48q0 49-57 61-28 5-71 5h-23v15q0 40 16 65t49 26 51-19 26-49l9 1q-8 36-33 58t-61 23q-52 0-79-35t-27-90 29-91 83-34m-63 107v14h17q41 0 57-8t22-20 6-33-11-37-32-15-36 16-19 37-4 46m305 89q8 21 32 33t54 11 56-17 25-51q0-25-18-42t-42-28-50-21-42-33-17-53q0-42 29-66t71-24 66 17 25 45q0 17-11 28t-25 11-24-8-10-23 8-22 19-8q17 0 23 16 2 4 5 4 6 0 5-5-3-18-23-32t-49-14-51 16-20 42 17 43 42 27 50 22 42 33 18 53q0 48-35 74t-80 26-74-20-29-54q0-17 10-28t25-11 24 9 10 22-8 22-18 8q-18 0-24-15-2-4-6-4t-4 4 4 13m524 31q25 0 47-47t21-100q0-72-39-72-5 0-5 4t5 5q13 2 13 20 0 10-8 17t-19 6-19-8-8-21 11-22 25-9q53 0 53 78 0 64-28 118t-66 54q-48 0-74-73-13 33-33 53t-41 20q-43 0-68-56t-24-149v-28h-36v-7h11q39 0 70-7v31q0 70 14 127 7 30 20 48t28 18 30-18 25-46q-14-49-14-118v-28h-35v-7h10q40 0 71-7v31q0 70 13 127 7 30 20 48t30 18m223-227q59 0 78 26t20 94v88q0 21 9 21 18 0 24-58l9 1q-7 78-50 78-13 0-20-9t-8-20-2-27h-3q-6 27-26 41t-52 15-54-17-24-48q0-24 14-39 28-32 127-32 5 0 11 0v-25q0-39-13-59t-47-20-49 13-15 28q0 5 4 5t5-5q3-13 20-13 11 0 17 8t7 19-9 19-21 8-23-11-10-25q0-28 24-42t57-14m53 156v-33q-5 0-16 0t-25 1-30 8q-32 11-32 51 0 24 11 38t37 15 40-23 15-57m214-156q76 0 76 51 0 15-10 25t-23 11-22-8-8-19 7-19 17-8q17 0 20 13 1 5 5 5t4-5q0-14-14-25t-42-11-46 10-18 29 14 31 35 19 41 15 36 24 14 38q0 37-27 55t-66 19-63-14-24-43q0-15 9-25t23-10 22 7 8 19-6 19-18 8q-17 0-20-13 0-4-5-4t-4 4q0 15 17 28t50 14q72 0 72-47 0-29-49-47-21-8-42-16t-35-24-14-37q0-32 25-51t61-18m210 232h33v8h-111v-8h33v-330h-35v-7h10q40 0 71-7v165h3q8-24 28-39t46-14q43 0 59 25t16 77v130h33v8h-110v-8h33v-123q0-56-9-74-4-8-12-15t-24-6-31 11-21 32q-12 35-12 85v90m474-317q-47 0-65 40-14 35-16 91 0 13 0 39t3 51 11 49 26 39 43 14q42 0 66-28t27-74l9 1q-4 52-33 82t-78 31q-64 0-99-51t-36-123q0-45 16-84t47-63 73-24 67 18 27 44q0 17-11 28t-24 11-24-8-10-23 7-22 19-8q18 0 24 16 1 4 5 4 5 0 4-5-2-18-24-32t-54-13m242 85q60 0 79 26t19 94v88q0 21 9 21 19 0 25-58l9 1q-8 78-51 78-12 0-19-9t-9-20-1-27h-3q-7 27-27 41t-51 15-55-17-23-48q0-24 13-39 28-32 127-32 6 0 12 0v-25q0-39-14-59t-47-20-48 13-16 28q0 5 4 5t5-5q3-13 20-13 11 0 18 8t6 19-8 19-22 8-23-11-9-25q0-28 23-42t57-14m54 156v-33q-5 0-16 0t-26 1-30 8q-32 11-32 51 0 24 12 38t37 15 40-23 15-57m183 53v131h33v7h-110v-7h33v-323h-36v-7h11q39 0 69-7v52h3q9-25 27-40t42-15q45 0 67 35t22 89-23 90-69 36-66-41h-3m-1-85v18q0 39 15 66t47 28q35 0 44-39 7-32 7-63t-2-48-6-35-16-27-27-10-28 11-19 29q-15 35-15 70m315-124q76 0 76 51 0 15-10 25t-23 11-22-8-8-19 7-19 17-8q17 0 20 13 1 5 5 5t4-5q0-14-14-25t-42-11-46 10-18 29 14 31 35 19 41 15 36 24 14 38q0 37-27 55t-66 19-63-14-24-43q0-15 9-25t23-10 22 7 8 19-6 19-18 8q-17 0-20-13 0-4-5-4t-4 4q0 15 17 28t50 14q72 0 72-47 0-29-49-47-21-8-42-16t-35-24-14-37q0-32 25-51t61-18" />
</svg>