<svg id="fnt-Elsie" viewBox="0 0 1068 1000" xmlns="http://www.w3.org/2000/svg"><path id="elsie" class="f" d="M274 667h-248v-8h37v-309h-37v-8h241v104h-8q0-61-19-79t-80-17h-45v143h26q36 0 50-14t13-50h9v138h-9q0-37-13-52t-50-14h-26v158h40q38 0 59-4t33-18 17-34 7-59h8l-5 123m133-352v344h33v8h-110v-8h33v-330h-36v-7h11q39 0 69-7m173 112q76 0 76 51 0 15-10 25t-23 11-21-8-8-19 6-19 18-8q17 0 20 13 0 5 4 5t5-5q0-14-14-25t-42-11-47 10-18 29 15 31 35 19 41 15 35 24 15 38q0 37-27 55t-66 19-64-14-24-43q0-15 10-25t23-10 21 7 9 19-7 19-17 8q-17 0-20-13-1-4-5-4t-4 4q0 15 16 28t50 14q73 0 73-47 0-29-50-47-21-8-41-16t-35-24-15-37q0-32 25-51t61-18m211 3v229h33v8h-110v-8h33v-215h-36v-7h11q39 0 69-7m-45-48q-8-8-8-21t8-21 21-8 21 8 9 21-9 21-21 8-21-8m233 45q37 0 62 16t26 48q0 49-57 61-28 5-71 5h-23v15q0 40 16 65t49 26 51-19 26-49l9 1q-8 36-33 58t-61 23q-52 0-79-35t-27-90 29-91 83-34m-63 107v14h17q41 0 57-8t22-20 6-33-11-37-32-15-36 16-19 37-4 46" />
</svg>