<svg id="fnt-Emblema One" viewBox="0 0 3939 1000" xmlns="http://www.w3.org/2000/svg"><path id="emblema-one" class="f" d="M175 498q58 6 85 14 0 14-5 20-40 2-86 13-7 51-11 106 0 3-8 9t-14 7h-113q32-119 48-317 0-3 8-9t14-7h113q-18 81-31 164m105-16q-6-37-22-73t-33-55q1-12 7-20h89q-2 24-8 64t-11 68q-1 4-9 10t-13 6m-11 84q3-3 12-9t15-7q-8 73-15 99-3 5-9 11t-11 7h-90q60-41 98-101m195 101h-103q26-112 36-226 0-3 8-9t16-8 43-4 52-2q-21 108-31 233 0 3-8 9t-13 7m162 0h-97q26-147 26-181t-16-34q3-13 11-22 24-12 56-12t47 15 15 47q0 16-9 77t-12 94q0 3-7 9t-14 7m87 0q-15-14-15-32t10-79 9-77-9-21-20-6q3-14 9-22 9-5 29-8t37-4q33 0 49 15t17 47q0 18-9 62t-9 54 1 16 2 8 3 6 3 5 5 5 5 5q0 3-7 11t-13 10q-31 5-97 5m313-17q0 3-7 10t-14 7h-101q11-46 25-154t19-168q0-3 8-10t14-6h103q-13 53-27 155t-20 166m23 15q28-18 42-58t15-87-26-86q0-3 7-10t14-6q32 0 59 13t42 39 17 59q0 61-44 99t-126 37m347-15q0 3-8 10t-14 7h-101q11-46 25-154t20-168q0-3 7-10t14-6h103q-13 53-27 155t-19 166m308-226q33 11 50 32t17 44q0 32-27 54t-75 23q-15 0-33-5 26-16 35-42 8-23 8-53 0-6-2-36 0-3 10-10t17-7m-40-4q-30 21-48 54t-17 72 29 62 85 23q16 0 33-2-11 18-44 30t-68 12-62-7-45-22-31-37-12-50 9-49 23-39 35-27q39-22 90-22 13 0 23 2m256 247h-102q26-112 36-226 0-3 8-9t16-8 43-4 52-2q-21 108-31 233 0 3-8 9t-14 7m163 0h-97q25-147 25-181t-15-34q3-13 10-22 25-12 57-12t46 15 16 47q0 16-10 77t-11 94q0 3-8 9t-13 7m86 0q-14-14-14-32t9-79 10-77-9-21-20-6q2-14 8-22 9-5 30-8t37-4q33 0 49 15t16 47q0 18-8 62t-9 54 1 16 1 8 4 6 3 5 5 5 5 5q0 3-7 11t-13 10q-32 5-98 5m479-10q-47 10-102 10-13-17-13-35t11-94 12-101q0-3 8-9t13-7q52 0 99 14-1 8-13 62t-12 87 17 51q0 3-7 11t-13 11m-113-239q-29 21-44 58t-15 73 8 63 21 38q0 4-7 10t-14 7q-56 0-90-28t-33-77q0-60 45-101 22-20 56-32t73-11m506 254q36-30 53-87t18-121-13-114q0-3 8-10t13-6q36 7 60 29 48 44 48 120 0 59-30 106-32 52-89 72-31 11-68 11m49-344q-36 30-54 87t-17 120 13 114q0 3-8 10t-14 7q-53-11-81-54-26-41-26-95 0-59 29-106 32-52 89-72 31-11 69-11m283 339h-102q25-107 35-226 0-3 8-9t16-8 43-4 52-2q-20 102-30 233 0 3-8 9t-14 7m88 2q-14-14-14-35t11-82 11-75-7-20-17-6q2-15 8-22 9-5 29-8t36-4q32 0 48 15t17 47q0 18-8 64t-8 55 1 16 1 8 4 6 3 5 5 5 5 5q0 3-7 11t-13 10q-32 5-105 5m409-245q33 11 50 32t17 44q0 32-27 54t-76 23q-14 0-32-5 26-16 35-42 7-23 7-53 0-6-1-36 0-3 10-10t17-7m-40-4q-30 21-48 54t-18 72 30 62 85 23q16 0 33-2-11 18-44 30t-69 12-61-7-45-22-32-37-11-50 8-49 24-39 35-27q39-22 90-22 13 0 23 2" />
</svg>