<svg id="fnt-Encode Sans Expanded" viewBox="0 0 5756 1000" xmlns="http://www.w3.org/2000/svg"><path id="encode-sans-expanded" class="f" d="M91 494v138h218v35h-260v-370h258v34h-216v129h190v34h-190m288 173v-272h35l3 31h2q20-17 46-26t53-9q48 0 74 26t27 80v170h-42v-168q0-38-17-54t-51-17q-24 0-47 9t-41 27v203h-42m444 4q-66 0-101-35t-35-105q0-70 37-105t108-35q37 0 67 9v35q-17-5-32-7t-31-2q-54 0-80 25t-25 79q0 55 24 81t72 26q16 0 33-3t39-10v35q-36 12-76 12m244 0q-40 0-69-15t-45-47-16-78q0-46 16-78t45-46 69-16q62 0 96 35t35 105q0 46-16 78t-46 47-69 15m0-34q89 0 89-106 0-55-23-80t-66-25-65 25-23 80q0 106 88 106m311 34q-36 0-64-14t-43-45-15-75q0-72 38-109t113-37q28 0 58 5v-133h42v404h-35l-3-32h-3q-15 17-38 27t-50 9m9-35q23 0 43-9t35-27v-168q-26-7-57-7-56 0-83 26t-27 82q0 103 89 103m434-104v12h-199q2 50 28 72t79 23q34 0 78-12v32q-43 12-83 12-72 0-108-34t-37-106q0-45 15-76t42-48 67-16q57 0 87 36t31 105m-119-111q-38 0-59 23t-21 73h159q-1-49-21-73t-58-23m416 250q-27 0-54-4t-51-12v-36q25 8 53 13t53 4q101 0 101-69 0-19-8-31t-26-20-49-15l-22-4q-56-11-82-35t-26-66q0-33 16-56t48-36 80-12q51 0 95 13v36q-45-14-94-14-52 0-77 17t-25 50q0 19 7 31t24 21 44 14l23 4q41 8 66 22t37 33 12 46q0 34-17 58t-50 36-78 12m308-280q40 0 65 10t38 31 13 60v175h-35l-3-31h-3q-15 16-39 26t-51 9q-29 0-50-9t-31-26-10-39q0-35 25-55t82-25l74-8v-19q0-25-9-40t-26-20-45-6q-19 0-41 4t-42 10v-33q19-7 43-10t45-4m-5 249q22 0 43-8t37-25v-70l-71 7q-36 5-52 16t-16 34q0 22 15 34t44 12m205 27v-272h35l3 31h3q20-17 45-26t54-9q47 0 74 26t27 80v170h-42v-168q0-38-17-54t-51-17q-24 0-48 9t-41 27v203h-42m403 4q-50 0-89-11v-32q23 6 44 9t45 3q41 0 59-12t18-34q0-12-5-20t-14-13-28-9l-46-7q-41-7-59-25t-18-49q0-37 29-58t91-22q40 0 75 10v32q-36-10-75-10-43 0-61 12t-18 34q0 17 10 27t35 15l46 8q41 6 60 24t19 48q0 38-30 59t-88 21m369-177v138h218v35h-260v-370h258v34h-216v129h190v34h-190m511-99l-110 134 113 138h-49l-90-109-89 109h-49l113-137-110-135h49l87 106 87-106h48m54 382v-382h35l3 32h3q16-17 38-26t50-10q36 0 63 14t43 44 16 77q0 72-38 109t-112 36q-26 0-59-5v111h-42m99-140q56 0 83-26t27-82q0-102-89-102-23 0-43 8t-35 28v168q12 3 27 5t30 1m316-246q39 0 65 10t38 31 13 60v175h-36l-3-31h-2q-16 16-40 26t-50 9q-29 0-50-9t-31-26-11-39q0-35 26-55t82-25l73-8v-19q0-25-8-40t-26-20-45-6q-19 0-41 4t-42 10v-33q19-7 42-10t46-4m-6 249q23 0 43-8t37-25v-70l-71 7q-36 5-52 16t-15 34q0 22 14 34t44 12m206 27v-272h35l3 31h3q19-17 45-26t53-9q48 0 75 26t27 80v170h-42v-168q0-38-18-54t-51-17q-23 0-47 9t-41 27v203h-42m431 4q-36 0-64-14t-43-45-15-75q0-72 38-109t112-37q29 0 59 5v-133h42v404h-35l-3-32h-3q-16 17-38 27t-50 9m9-35q23 0 43-9t35-27v-168q-26-7-57-7-56 0-83 26t-27 82q0 103 89 103m434-104v12h-199q1 50 28 72t79 23q34 0 77-12v32q-43 12-83 12-71 0-107-34t-37-106q0-45 15-76t42-48 66-16q58 0 88 36t31 105m-119-111q-39 0-59 23t-22 73h160q-1-49-21-73t-58-23m292 250q-36 0-63-14t-43-45-16-75q0-72 39-109t112-37q28 0 59 5v-133h42v404h-36l-3-32h-2q-16 17-39 27t-50 9m9-35q23 0 43-9t36-27v-168q-27-7-58-7-55 0-82 26t-27 82q0 103 88 103" />
</svg>