<svg id="fnt-Encode Sans Semi Condensed" viewBox="0 0 6022 1000" xmlns="http://www.w3.org/2000/svg"><path id="encode-sans-semi-condensed" class="f" d="M79 494v139h178v34h-218v-370h215v33h-175v130h151v34h-151m226 173v-272h32l3 31h3q15-17 35-26t43-9q38 0 59 22t22 69v185h-39v-183q0-31-14-44t-37-14q-19 0-38 9t-30 28v204h-39m363 4q-56 0-85-33t-28-107q0-73 31-106t92-34q28 0 51 6v34q-24-6-46-6-31 0-50 10t-28 33-9 62q0 40 8 64t26 34 44 10q24 0 55-10v33q-30 10-61 10m195 0q-51 0-80-34t-28-106q0-72 28-106t80-34q52 0 80 34t29 106-29 106-80 34m0-31q22 0 37-10t24-34 8-64q0-41-8-65t-23-34-38-10-37 10-23 34-8 63q0 41 8 65t23 35 37 10m252 31q-45 0-72-32t-28-102q0-74 33-110t97-36q16 0 37 3v-131h39v404h-33l-3-28h-2q-11 14-29 23t-39 9m8-33q18 0 34-9t25-24v-178q-8-2-18-3t-20-1q-45 0-67 26t-22 84q0 40 9 63t23 32 36 10m355-106v12h-161q1 36 10 56t28 30 48 9q27 0 62-10v32q-34 10-67 10-41 0-67-14t-40-45-14-81q0-71 27-105t76-35q48 0 73 34t25 107m-98-112q-29 0-46 22t-17 75h123q0-36-8-58t-20-30-32-9m336 251q-21 0-43-3t-41-11v-34q21 7 43 11t42 3q83 0 83-67 0-19-6-32t-22-22-39-17l-19-5q-44-13-66-37t-22-64q0-48 32-74t94-27q19 0 38 3t35 7v34q-33-10-72-10-87 0-87 65 0 18 7 31t20 21 37 16l19 6q47 13 69 38t23 64q0 33-15 56t-43 36-67 12m254-280q34 0 56 10t32 30 11 56v180h-33l-3-30h-2q-12 17-31 25t-42 9q-23 0-41-9t-27-25-10-40q0-36 23-56t71-24l57-6v-26q0-24-8-37t-21-19-37-6q-15 0-33 3t-35 9v-32q16-6 35-9t38-3m-2 250q18 0 34-8t29-26v-69l-54 5q-30 3-43 16t-14 34q0 24 12 36t36 12m168 26v-272h33l3 31h2q15-17 35-26t44-9q37 0 59 22t21 69v185h-39v-183q0-31-13-44t-38-14q-18 0-37 9t-31 28v204h-39m323 4q-38 0-69-10v-32q35 11 68 11 31 0 47-12t16-34q0-19-10-29t-29-15l-32-7q-35-9-51-27t-15-47q0-23 12-40t34-28 56-10q31 0 59 7v32q-28-7-58-7-34 0-50 12t-15 33q0 17 9 27t29 16l31 7q36 8 52 26t15 48q0 25-12 43t-34 27-53 9m334 0q-21 0-43-3t-41-11v-34q21 7 43 11t42 3q84 0 84-67 0-19-7-32t-21-22-40-17l-19-5q-44-13-66-37t-21-64q0-48 32-74t93-27q19 0 39 3t34 7v34q-33-10-72-10-86 0-86 65 0 18 6 31t20 21 37 16l19 6q47 13 69 38t23 64q0 33-15 56t-42 36-68 12m369-139v12h-162q1 36 10 56t28 30 48 9q27 0 63-10v32q-35 10-67 10-41 0-68-14t-40-45-13-81q0-71 27-105t76-35q47 0 72 34t26 107m-98-112q-30 0-46 22t-18 75h124q-1-36-8-58t-20-30-32-9m407-29q35 0 56 22t20 70v184h-38v-182q0-59-48-59-16 0-33 9t-28 27q1 8 1 20v185h-39v-182q0-32-12-45t-34-14q-17 0-34 9t-29 29v203h-39v-272h33l3 31h3q14-17 33-26t41-9q47 0 65 39 16-20 37-29t42-10m182 276h-39v-272h39v272m-19-331q-13 0-21-6t-7-19 7-18 21-7q13 0 20 7t7 18-7 19-20 6m349 335q-77 0-117-44t-40-145q0-99 41-144t120-46q38 0 73 10v34q-33-10-72-10-40 0-67 15t-40 49-14 91q0 58 14 93t40 48 65 15q19 0 36-3t38-10v35q-36 12-77 12m204 0q-52 0-80-34t-29-106q0-72 28-106t81-34q51 0 80 34t28 106-29 106-79 34m0-31q22 0 37-10t23-34 8-64q0-41-8-65t-23-34-37-10-38 10-23 34-8 63q0 41 8 65t23 35 38 10m164 27v-272h32l3 31h3q15-17 35-26t43-9q38 0 59 22t22 69v185h-39v-183q0-31-14-44t-37-14q-19 0-38 9t-30 28v204h-39m350 4q-45 0-73-32t-27-102q0-74 33-110t96-36q17 0 38 3v-131h39v404h-33l-3-28h-2q-12 14-29 23t-39 9m8-33q18 0 34-9t25-24v-178q-8-2-19-3t-19-1q-45 0-67 26t-22 84q0 40 8 63t24 32 36 10m355-106v12h-161q0 36 10 56t27 30 48 9q28 0 63-10v32q-34 10-67 10-41 0-68-14t-40-45-13-81q0-71 27-105t76-35q48 0 73 34t25 107m-98-112q-30 0-46 22t-17 75h123q0-36-8-58t-20-30-32-9m151 247v-272h32l3 31h3q15-17 35-26t43-9q38 0 59 22t22 69v185h-39v-183q0-31-14-44t-37-14q-19 0-38 9t-30 28v204h-39m322 4q-37 0-69-10v-32q36 11 69 11 31 0 47-12t15-34q0-19-9-29t-30-15l-32-7q-35-9-50-27t-15-47q0-23 11-40t34-28 56-10q31 0 59 7v32q-27-7-58-7-33 0-49 12t-16 33q0 17 9 27t29 16l32 7q36 8 51 26t16 48q0 25-12 43t-34 27-54 9m337-139v12h-161q0 36 10 56t27 30 48 9q28 0 63-10v32q-34 10-67 10-41 0-68-14t-40-45-13-81q0-71 27-105t76-35q48 0 73 34t25 107m-98-112q-30 0-46 22t-17 75h123q0-36-8-58t-20-30-32-9m237 251q-45 0-73-32t-27-102q0-74 33-110t96-36q17 0 38 3v-131h39v404h-33l-3-28h-2q-12 14-29 23t-39 9m8-33q18 0 34-9t25-24v-178q-8-2-19-3t-19-1q-45 0-67 26t-22 84q0 40 8 63t24 32 36 10" />
</svg>