<svg id="fnt-Encode Sans" viewBox="0 0 2754 1000" xmlns="http://www.w3.org/2000/svg"><path id="encode-sans" class="f" d="M274 667h-232v-370h229v34h-188v301h191v35m-27-173h-179v-34h179v34m122 173h-40v-272h34l3 31h3q16-17 38-26t47-9q25 0 45 10t31 30 11 56v180h-40v-178q0-35-15-48t-42-14q-12 0-25 3t-27 12-23 21v204m350 4q-38 0-65-14t-41-46-14-80 15-80 45-45 71-15q14 0 28 2t27 5v34q-13-3-26-5t-25-2q-31 0-52 10t-31 34-10 61q0 40 9 63t29 34 46 10q13 0 28-2t32-9v34q-16 6-32 9t-34 2m212 0q-35 0-61-14t-40-46-15-80q0-49 14-80t41-45 61-15 61 15 40 45 14 80q0 49-14 80t-40 46-61 14m0-32q23 0 40-10t25-33 10-64q0-41-10-65t-26-33-39-10q-23 0-40 10t-26 33-9 64q0 40 9 64t26 34 40 10m271 32q-30 0-54-13t-39-43-14-78 15-82 47-48 75-16q11 0 23 1t21 3v-132h40v404h-34l-3-30h-3q-12 15-31 25t-43 9m9-34q18 0 35-8t30-26v-174q-9-3-21-4t-24-1q-47 0-71 25t-24 84q0 40 9 63t27 32 39 9m295 34q-43 0-71-14t-43-45-15-81q0-48 13-79t38-46 59-15q33 0 56 15t36 47 12 79v12h-192v-27h163l-9 6q0-38-8-61t-23-32-36-10q-21 0-36 10t-24 32-8 61v14q0 37 10 60t30 32 52 10q16 0 32-3t36-8v33q-20 5-37 8t-35 2m343 0q-22 0-46-3t-45-12v-35q15 6 31 9t31 5 29 2q46 0 68-17t22-51q0-28-16-43t-57-26l-20-5q-47-12-71-36t-23-65q0-47 33-75t99-27q21 0 42 3t38 8v35q-19-6-39-9t-40-3q-32 0-52 8t-30 23-10 35q0 27 15 42t53 25l20 5q34 9 56 23t33 33 11 46q0 34-16 57t-45 36-71 12m259 0q-38 0-60-20t-22-54q0-35 23-55t76-25l72-8 4 27-74 8q-32 3-46 15t-14 34q0 23 13 35t38 12q18 0 36-7t32-26v-120q0-25-7-38t-24-20-39-5q-15 0-34 3t-39 9v-33q18-6 39-9t40-3q34 0 57 9t35 31 12 58v178h-34l-3-31h-2q-14 17-34 26t-45 9m230-4h-40v-272h34l3 31h3q16-17 38-26t47-9q25 0 45 10t31 30 11 56v180h-40v-178q0-35-15-48t-42-14q-12 0-25 3t-27 12-23 21v204m309 4q-20 0-39-2t-36-9v-32q20 6 38 9t37 3q36 0 51-12t16-34q0-19-9-28t-32-15l-37-8q-37-8-53-26t-16-47q0-35 26-57t82-22q17 0 33 2t31 6v32q-17-4-32-6t-32-2q-25 0-41 6t-22 17-7 23q0 16 9 26t32 16l37 7q37 8 53 26t17 48q0 37-27 58t-79 21" />
</svg>