<svg id="fnt-Encode Sans Semi Expanded" viewBox="0 0 6657 1000" xmlns="http://www.w3.org/2000/svg"><path id="encode-sans-semi-expanded" class="f" d="M87 494v138h204v35h-246v-370h243v35h-201v127h176v35h-176m267 173v-272h35l3 31h2q19-17 42-26t50-9q45 0 69 25t25 76v175h-41v-173q0-35-16-51t-46-15q-22 0-44 8t-38 27v204h-41m416 4q-62 0-94-34t-33-106 35-105 102-35q34 0 61 8v35q-29-8-56-8-51 0-75 25t-24 79q0 56 22 81t68 26q28 0 65-12v34q-33 12-71 12m228 0q-58 0-90-34t-33-106q0-70 33-105t90-35q58 0 90 35t32 105q0 47-15 79t-42 46-65 15m0-33q39 0 60-25t21-81q0-58-21-83t-60-25-60 25-21 82q0 57 21 82t60 25m290 33q-34 0-59-14t-41-44-14-76q0-73 36-109t108-37q25 0 51 5v-133h41v404h-35l-3-31h-3q-14 16-35 26t-46 9m9-35q21 0 40-8t32-26v-172q-11-2-24-4t-27-2q-52 0-78 27t-25 82q0 55 22 79t60 24m407-104v12h-186q1 50 26 72t73 22q34 0 73-12v34q-39 11-78 11-68 0-102-34t-34-106q0-46 14-77t40-47 62-16q54 0 83 36t29 105m-112-111q-36 0-55 23t-19 73h147q-1-50-19-73t-54-23m389 250q-24 0-50-4t-48-11v-36q24 8 50 12t48 4q97 0 97-68 0-19-8-31t-25-21-46-15l-22-4q-51-12-76-36t-24-65q0-33 15-56t46-36 77-12q47 0 88 12v36q-42-13-87-13-49 0-73 17t-24 49q0 19 7 31t22 21 43 14l22 5q56 13 81 37t26 65q0 33-16 57t-48 36-75 12m291-280q37 0 61 10t36 31 12 58v177h-34l-3-31h-3q-14 16-36 26t-48 9q-27 0-47-9t-29-26-10-39q0-36 24-55t78-25l68-7v-21q0-25-8-39t-25-20-41-6q-18 0-39 4t-40 9v-33q18-6 40-10t44-3m-5 249q21 0 40-8t34-25v-70l-65 7q-34 4-49 16t-15 33q0 23 14 35t41 12m192 27v-272h35l3 31h3q18-17 42-26t50-9q44 0 69 25t25 76v175h-41v-173q0-35-17-51t-46-15q-22 0-44 8t-38 27v204h-41m376 4q-45 0-82-11v-33q21 7 41 9t41 3q37 0 54-11t18-34q0-18-10-28t-35-14l-41-8q-38-7-56-25t-17-49q0-23 13-41t37-28 64-10q37 0 69 9v33q-18-5-34-7t-35-3q-39 0-57 13t-17 33q0 17 9 27t34 15l41 7q39 8 56 25t18 48q0 38-28 59t-83 21m386 0q-25 0-50-4t-48-11v-36q24 8 49 12t49 4q97 0 97-68 0-19-8-31t-25-21-46-15l-22-4q-51-12-76-36t-25-65q0-33 16-56t46-36 77-12q47 0 88 12v36q-42-13-87-13-50 0-74 17t-24 49q0 19 7 31t23 21 43 14l21 5q56 13 82 37t26 65q0 33-17 57t-47 36-75 12m419-139v12h-186q2 50 26 72t74 22q33 0 73-12v34q-40 11-78 11-68 0-102-34t-34-106q0-46 13-77t40-47 63-16q54 0 83 36t28 105m-111-111q-36 0-55 23t-20 73h147q-1-50-19-73t-53-23m456-30q41 0 64 24t23 76v176h-41v-174q0-35-15-50t-40-15q-19 0-38 8t-32 26q2 13 2 28v177h-40v-174q0-35-14-50t-40-15q-19 0-38 9t-32 27v203h-41v-272h34l3 32h3q16-18 37-27t45-9q52 0 72 40 19-21 42-30t46-10m206 276h-41v-272h41v272m-20-330q-14 0-21-7t-8-19q0-12 8-19t21-6 21 6 7 19q0 12-7 19t-21 7m278 157v138h205v35h-246v-370h243v35h-202v127h177v35h-177m479-99l-104 134 107 138h-47l-85-108-83 108h-47l106-137-104-135h48l81 105 82-105h46m49 382v-382h35l3 32h2q14-17 35-26t47-10q33 0 58 14t41 44 15 77q0 72-37 109t-108 36q-20 0-50-4v110h-41m92-139q52 0 77-26t25-83q0-55-22-79t-60-24q-21 0-39 9t-32 26v171q10 3 24 4t27 2m296-247q38 0 62 10t36 31 12 58v177h-34l-3-31h-3q-14 16-37 26t-47 9q-27 0-47-9t-29-26-11-39q0-36 25-55t78-25l68-7v-21q0-25-9-39t-24-20-42-6q-18 0-38 4t-40 9v-33q18-6 40-10t43-3m-4 249q20 0 39-8t35-25v-70l-65 7q-34 4-49 16t-15 33q0 23 14 35t41 12m192 27v-272h35l3 31h2q19-17 42-26t50-9q45 0 69 25t25 76v175h-41v-173q0-35-16-51t-46-15q-22 0-44 8t-38 27v204h-41m404 4q-34 0-60-14t-40-44-15-76q0-73 37-109t108-37q24 0 50 5v-133h41v404h-34l-3-31h-3q-14 16-35 26t-46 9m9-35q21 0 39-8t32-26v-172q-10-2-24-4t-27-2q-52 0-77 27t-25 82q0 55 21 79t61 24m407-104v12h-187q2 50 26 72t74 22q33 0 73-12v34q-40 11-78 11-68 0-102-34t-34-106q0-46 14-77t40-47 62-16q54 0 83 36t29 105m-112-111q-36 0-55 23t-20 73h148q-1-50-20-73t-53-23m273 250q-33 0-59-14t-40-44-15-76q0-73 36-109t108-37q25 0 51 5v-133h41v404h-35l-3-31h-2q-15 16-36 26t-46 9m10-35q20 0 39-8t32-26v-172q-11-2-24-4t-27-2q-52 0-77 27t-25 82q0 55 21 79t61 24" />
</svg>