<svg id="fnt-Englebert" viewBox="0 0 1850 1000" xmlns="http://www.w3.org/2000/svg"><path id="englebert" class="f" d="M27 319h177v34h-134v149h106v36h-107v88h129v39h-171v-346m396 347l-33 2q-2-37-4-67t-3-51q-2-24-4-43-2-30-7-45t-14-15-17 11-18 28-16 41-14 47-11 48-8 43l-33 1q1-41 1-77 0-38-1-70t-2-54q-2-27-4-49l47 2v98q6-16 10-27t7-18q4-8 6-12 6-12 14-22t16-16 16-9 16-4 15 4 12 10 9 19 6 27q4 27 7 58 2 27 5 63t2 77m239-302l-31 55q11 11 17 25t11 28 6 28 1 27q0 26-5 47t-13 37-18 28-21 20-23 11-23 3q-9 0-17-1t-15-4q-7 5-12 10t-9 11-5 11-2 10q0 8 5 13t9 4q6 0 13-3t14-9 15-12 16-11 19-9 21-4q9 0 18 3t17 8 13 13 9 18q1 4 1 8t1 8q0 21-10 37t-25 26-37 17-45 5q-9 0-18-1t-18-3l4-22q5 1 10 1t9 1q12 0 22-2t17-5q9-3 16-7 20-11 29-21t8-20q0-6-2-10t-5-8-7-6-10-2q-9 0-20 6t-25 18q-12 10-25 15t-25 5q-9 0-17-3t-16-7-11-13-5-17q0-7 2-16t8-17 12-16 16-15q-14-11-24-26t-16-33-9-36-2-36q0-35 8-60t21-42 33-24 40-8q14 0 25 2t21 6l23-61 36 25m-31 163q0-8-1-17t-2-20-6-20-10-18l-22 39-19-10 18-48q-6-2-14-4t-16-2q-36 2-52 27t-17 71q0 32 6 54t15 35 22 19 23 6q13 0 26-7t24-19 18-35 7-51m76-208l39 3-5 343h-29l-5-346m301 204h-177q-1 3-1 5t1 6q0 24 4 41t13 27 16 17 17 9 13 3 7 1q0 0 4-1t9-2 14-5 15-9 14-16 11-23l30 9q-4 15-10 26t-14 21-16 15-16 10q-19 10-41 12-21 0-38-7t-28-17-20-25-13-30-7-31-2-29q0-13 1-28t6-31 12-29 20-26 29-18 42-7q4 0 13 1t21 5 24 12 23 23 17 37 7 54m-107-94q-17 1-31 8-6 3-12 7t-11 11-9 15-5 21h134q-2-15-8-26t-16-20-20-12-22-4m354 91q0 16-3 33t-7 35-13 32-20 27-28 18-37 7q-16 0-30-2t-27-9-22-18-16-28-11-40-3-55l5-206h39l-5 123q6-9 12-15t13-12 13-8 11-5q14-5 27-6 28 1 48 10t31 26 17 40 6 53m-37 21q0-10-1-21t-3-24-6-24-11-21-18-15-26-5q-11 0-22 5t-19 13-16 18-12 22-7 22-3 21q0 25 4 44t11 33 22 21 36 7q14 0 24-5t18-12 14-18 8-21 5-21 2-19m278-18h-177q-1 3-1 5t1 6q0 24 4 41t13 27 16 17 17 9 13 3 7 1q0 0 4-1t9-2 14-5 15-9 14-16 11-23l30 9q-4 15-10 26t-14 21-16 15-16 10q-19 10-41 12-21 0-38-7t-28-17-20-25-13-30-7-31-2-29q0-13 1-28t6-31 12-29 20-26 29-18 42-7q4 0 13 1t21 5 24 12 23 23 17 37 7 54m-107-94q-17 1-31 8-6 3-12 7t-11 11-9 15-5 21h134q-2-15-8-26t-16-20-20-12-22-4m266-25q14 0 23 6t16 15 9 23 2 26q0 14-1 33t-7 38l-30-4q3-18 4-32t1-25q0-27-5-37t-17-11q-10 0-22 9t-23 29-21 47-14 67v86l-37-2q0-71-1-121t-2-83q-2-37-3-61l43-3v80q5-14 13-28t18-25 24-20 30-7m108-92l38 2-1 81h48v31h-49l-3 240h-30l-2-240h-55v-31h55l-1-83" />
</svg>