<svg id="fnt-Enriqueta" viewBox="0 0 2208 1000" xmlns="http://www.w3.org/2000/svg"><path id="enriqueta" class="f" d="M281 579l3 88h-257v-29l25-5q9-1 11-5t3-14v-255q0-11-3-15t-11-5l-25-3v-29h255l-3 85h-31l-3-36q-1-8-5-11t-14-3h-118v120h119v33h-119v137h119q10 0 14-3t5-12l3-38h32m292 57l26 4v27h-77v-160q0-23-13-36t-39-12q-21 0-39 10t-28 29v120q0 10 2 14t9 4l28 4v27h-116v-27l25-4q8 0 10-4t2-14v-147q0-8-3-12t-10-4l-24-2v-26h71l4 37q18-21 39-32t46-10q36 0 56 20t20 51v125q0 10 2 14t9 4m213-214q23 0 40 9l-4 63h-29l-6-31q-6-4-18-4-20 0-36 17t-23 42v100q0 10 2 14t10 4l35 4v27h-125v-27l27-4q7 0 9-4t2-14v-143q0-11-2-15t-9-4l-26-3v-26h70l5 47q11-22 33-37t45-15m113-53q-15 0-21-7t-6-21q0-16 7-23t23-7q16 0 21 7t6 23q0 16-7 22t-23 6m-50 298v-27l26-4q7 0 9-4t2-14v-143q0-11-2-15t-9-4l-26-3v-26h77v191q0 10 2 14t10 4l26 4v27h-115m370 89l26 4v27h-123v-27l34-4q7 0 9-4t2-14v-94q-14 12-34 20t-41 8q-43 0-69-31t-26-87q0-38 14-68t42-47 64-17q29 0 56 11l34-6v311q0 10 2 14t10 4m-115-118q20 0 36-8t27-20v-137q-11-8-29-13t-34-5q-35 0-49 22t-15 69q0 45 17 68t47 24m398-2l26 4v27h-70l-4-38q-39 43-84 43-37 0-58-19t-20-53v-125q0-11-2-15t-9-4l-26-3v-26h77v160q0 47 47 47t72-38v-121q0-11-2-15t-9-4l-28-3v-26h79v191q0 10 2 14t9 4m175 2q33 0 79-14l7 25q-18 9-46 16t-54 7q-51 0-77-32t-25-83q0-61 28-98t83-37q37 0 57 14t28 42 8 68l-161 10q1 41 20 61t53 21m-11-183q-22 0-35 6t-19 23-8 44l120-11q0-30-14-46t-44-16m251 186q13 0 36-5l-5 26q-7 4-24 7t-35 3q-32 0-46-19t-14-57v-141h-37v-24l37-4v-45l40-9v54l67-5v33h-67v126q0 22 4 35t14 19 30 6m264-5l26 4v27h-71l-4-40q-23 22-43 33t-41 12q-30 0-48-18t-17-47 17-48 51-23l79-11v-33q0-20-13-30t-38-10q-28 0-48 9l-6 37h-29l-4-58q51-18 94-18 35 0 59 18t25 51v127q0 10 2 14t9 4m-156-33q0 17 9 26t25 9 32-10 39-30v-46l-67 12q-18 3-28 13t-10 26" />
</svg>