<svg id="fnt-Ephesis" viewBox="0 0 1331 1000" xmlns="http://www.w3.org/2000/svg"><path id="ephesis" class="f" d="M190 729q-41 0-73-8t-58-24q-27-18-42-44t-14-57q0-11 2-23t6-23q-38-5-38-24 0-5 3-10t7-4q2 0 4 2 8 5 36 9 16-29 42-54t64-47q57-35 133-56 60-17 93-17 52 0 74 10t22 35q0 14-11 14-13 0-11-18t-21-25q-15-5-40-5-65 0-158 41-115 50-155 125 8 0 16 0t16 0q9 0 17 0t17 0q45-2 128-14 77-10 103-10 47 0 47 24 0 15-11 15-6 0-6-12 0-18-28-18-10 0-35 4t-66 13q-42 9-76 14t-58 6q-12 0-31 1t-44 3q-8 19-8 41 0 22 8 44t29 40q48 39 121 39 42 0 81-9t74-23q63-25 91-64 10-14 15-14 2 0 2 4 0 5-4 13-18 33-83 65-40 20-86 30t-94 11m227 75q-8 0-15-5-8-7-7-15 3-39 16-81t34-87q29-62 67-116 8-10 30-8 6 1 6 6 0 4-3 6-30 21-63 88 1-3 9-11t22-24q36-38 53-38 3 1 9 2t15 2q10 0 10 16 0 34-31 75-16 22-41 41-29 20-51 20-20 0-30-18-32 66-34 131 0 5 7 8t5 5q-2 3-8 3m51-145q15 0 41-17 13-9 23-19t17-21q27-41 27-62 0-9-8-9-20 0-66 51-43 47-43 68 0 9 9 9m240 13q-11 1-21-6t-10-15q0-16 29-60 33-49 33-56 0-5-5-5-13 0-50 39-22 22-42 47t-36 53q-1 1-5 1-22 0-20-6 8-23 21-51t31-64q60-115 81-131 6-5 17-5 17 0 17 7 0 2-3 4-65 49-116 183 1-1 5-5t14-13q10-8 16-16t12-12q25-28 54-41 7-3 16-3 21 0 21 15 0 9-10 22-54 76-54 102 0 5 4 7 8 3 39-17 37-24 63-59 6-8 10-8 2 0 2 1 0 3-5 10-22 34-61 61-35 23-47 21m114-1q-15 0-26-7-14-10-14-29 0-21 17-50 24-39 69-68 12-7 23-7 15 0 22 9 4 6 4 13 0 21-34 46-10 7-22 12t-24 9l-21 4q-12 22-12 36 0 20 23 20 19 0 45-15 36-21 61-57 4-6 8-6 1 0 1 2 0 2-3 7-49 73-110 80-2 1-4 1t-3 0m0-76q14 0 36-13 31-17 43-45 4-7 4-11t-4-5q-6 0-26 16-15 13-29 27t-26 30q0 1 2 1m100 92q-2 0-2-1 0-7 34-24 9-4 16-9t12-7q30-23 30-39 0-13-24-13-57-1-57-25 0-10 9-20 10-12 35-23 26-12 48-12 20 0 30 10 4 4 4 11 0 7-4 12t-10 6q-10 0-11-14 0-9-3-11t-16-1q-17 0-37 11-25 12-23 30 1 10 38 10 50 0 50 24 0 27-43 53-28 17-67 30-6 2-9 2m256-196q-8 1-18-2t-9-7q0-3 2-7t5-6q9-11 10-14t6-2q11 0 18 11 0 0 0 2 0 4-5 13-6 12-9 12m-76 181q-29-7-29-23 0-8 20-57 5-9 14-28t24-44q2-4 11-4 7 0 14 2t6 4q-66 94-66 130 0 10 7 10 14 0 43-19 34-23 58-56 5-8 10-8 1 0 1 1 0 3-4 10-22 34-61 61-35 24-48 21m93 15q-2 0-2-1 0-7 34-24 9-4 16-9t12-7q30-23 30-39 0-13-24-13-57-1-57-25 0-10 9-20 10-12 35-23 26-12 48-12 20 0 30 10 4 4 4 11 0 7-4 12t-10 6q-10 0-11-14 0-9-3-11t-16-1q-17 0-37 11-25 12-23 30 1 10 38 10 50 0 50 24 0 27-43 53-28 17-67 30-6 2-9 2" />
</svg>