<svg id="fnt-Epilogue" viewBox="0 0 2064 1000" xmlns="http://www.w3.org/2000/svg"><path id="epilogue" class="f" d="M237 335h-178l19-24v167l-10-15h141v37h-141l10-14v167l-19-24h178v38h-202v-369h202v37m116 441h-43v-375h43v375m87-104q-31 0-57-15t-44-42-16-61q0 0 0-1t0-1l30-1q0 1 0 1t0 1q0 22 11 40t30 28 40 10q35 0 59-24t23-73q0-50-23-74t-59-24q-21 0-40 11t-30 27-11 40l-30-1q0-35 16-61t44-40 57-15q32 0 60 16t43 46 17 75q0 44-16 75t-44 47-60 16m231-5h-42v-266h42v266m-21-327q-12 0-21-6t-8-19q0-11 8-17t21-7 20 7 9 17q0 12-9 19t-20 6m104-64h42v391h-42v-391m245 395q-40 0-71-17t-48-49-17-71 17-71 48-48 71-18 71 18 48 48 17 71-17 71-48 49-71 17m0-39q28 0 49-12t32-34 12-52-12-52-32-34-49-12q-27 0-48 12t-33 34-12 52 12 52 33 34 48 12m278 11l94 7q21 2 38 8t25 18 10 31q0 22-15 38t-44 26-74 9q-63 0-96-18t-32-51q0-10 2-17t6-13l40 6q-2 3-4 9t-1 13q0 20 22 28t65 8q31 0 51-4t30-12 10-19q0-16-14-20t-34-6l-101-7q-25-2-41-16t-16-33q0-12 6-23t14-18 14-9l34 16q-7 1-16 8t-9 18q0 9 7 15t29 8m122-175l9-67h40l-17 105q-4 29-19 53t-39 37-60 14q-38 0-65-14t-41-37-14-54q0-31 15-55t41-39 61-14q31 0 54 11t36 26 15 33l-16 1m-87 104q25 0 42-8t27-23 9-37q0-21-9-37t-27-23-41-9q-23 0-41 9t-28 24-9 36q0 22 9 37t27 23 41 8m292 99q-29 0-48-9t-30-26-16-34-4-36q0-9 0-19t0-21v-125h43v120q0 9 0 18t0 17q0 20 5 38t20 28 38 10q23 0 41-14t27-34 9-42l25 10q0 22-8 43t-22 39-35 27-45 10m128-4h-43v-266h43v266m330-116h-242v-38h205l-8 12q0-1 0-2t0-3q0-23-9-42t-29-31-47-11q-28 0-50 12t-33 34-12 52q0 30 11 53t34 34 51 12q21 0 36-4t26-12 15-16 6-18h43q-1 16-10 32t-25 29-39 20-54 8q-40 0-70-18t-48-48-17-71q0-41 17-72t48-48 71-18q40 0 69 18t46 48 16 69q0 4 0 10t-1 9" />
</svg>