<svg id="fnt-Esteban" viewBox="0 0 1750 1000" xmlns="http://www.w3.org/2000/svg"><path id="esteban" class="f" d="M99 475h56q21 0 27-19 2-8 5-26 2-2 9-2t10 2q-4 31-4 58t4 59q-2 2-10 2t-9-2q-3-17-5-25t-9-13-18-5h-56l3 97q1 21 8 29t25 9h68q23 0 38-16t31-49q1-1 8-1t11 4l-26 95q-63-7-133-7t-110 2q-2-2-2-9t3-10q18 0 26-7t8-19l4-262q0-13-8-20t-25-6q-4-2-4-10t1-9q42 2 104 2t127-7l7 88q-2 2-10 2t-9-2q-5-31-17-42t-38-11h-94l4 130m325-53q27 0 46 12t20 32q0 12-7 19t-17 7-17-5-7-12 2-11 2-8q0-11-23-11t-36 10-13 24 13 26 31 21 37 19 32 26 13 35q0 32-27 49t-62 17-60-17-24-48q0-11 6-18t18-7q25 0 25 17 0 8-6 15t-6 10q0 9 14 15t31 7 34-9 17-28q0-19-44-39-18-8-37-18t-31-25-13-35q0-33 24-52t65-18m182 158q0 32 7 46t26 15 45-14q2 2 5 8t3 7-1 3q-29 27-67 27-61 0-61-83 0-2 3-131h-32q-3-3-3-10t2-8q26-6 36-20t16-36q2-2 8-2t10 2l1 48h76q2 7 2 14t-4 12h-74l2 122m308 57q-34 35-86 35t-80-36-28-89 28-90 76-35 72 34 24 88h-156q0 41 18 68t51 28q45 0 76-22 2 1 5 7t3 7-3 5m-149-119l70 1q38 0 41-3 0-3 0-9 0-23-13-42t-39-19-41 19-18 53m383 31q0-103-68-103-21 0-42 17t-20 37l3 105q9 17 26 28t32 12q34 0 51-28t18-68m-135 82l-17 39q-2 2-10 2t-8-2l2-322q0-25-41-25-2-2-2-9t3-9q19-2 31-5t23-13q2-2 8-2t10 2l5 164q29-29 74-29t72 37 29 90-27 88-75 35q-22 0-43-12t-34-29m286 41q-28 0-47-18t-19-45 23-46 78-29l34-7v-13q0-35-12-51t-39-15q-38 0-38 15 0 3 6 10t6 14-7 13-17 5-18-7-7-18q0-25 25-42t54-16q47 0 67 19t20 53q0 1-2 119-1 32 21 32 9 0 21-5 3 6 3 11t-1 6q-5 5-17 10t-27 5q-21 0-36-27-31 27-71 27m44-113q-39 10-52 19t-12 27 9 27 22 11 30-6 30-13l-1-71-26 6m200-137l4 43q44-43 80-43t57 21 22 57l3 123q1 14 9 20t29 6q2 2 2 9t-1 9l-59-3-61 3q-2-2-2-9t3-9q19 0 27-6t9-20l2-114q1-25-13-41t-39-15q-18 0-38 15-6 5-16 13t-11 10l4 132q1 14 9 20t27 6q2 2 2 9t-1 9l-57-3-64 3q-1-2-1-9t3-9q20 0 29-6t9-20l2-140q0-14-10-20t-29-5q-2-2-2-9t3-9q2 0 10-1t9-2 8-1 9-3q10-6 13-10t11-3 9 2" />
</svg>