<svg id="fnt-Estonia" viewBox="0 0 801 1000" xmlns="http://www.w3.org/2000/svg"><path id="estonia" class="f" d="M42 667h-4q-2 0-4 0t-3 0q-3-1-6-1t-6-1q-2 0-4 1-2 0-4 0-1-2-3-4t-3-4q0-1 1-4 1-2 1-4t1-2q1-4 2-4l3-2q2 0 3-1 1 0 3-3 1-1 3-7 0-2 0-4t1-3q2 0 4-2l1-7q0-4 1-6 1-3 2-6t2-5 2-5 2-5q0-2 0-4v-1q0-2 1-4l1-4q1-3 1-3 1-1 2-7 1-6 1-7 1-2 2-7 0-6 0-8 0-3-1-7 0-2 1-6l2-6q1-1 1-6-1-2-1-4t-1-2l2-5 2-4q0-2 0-4-1-3-1-3 0-1 0-2t1-2q1-3 1-6 0-1 0-2t0-2q0-2-1-3l-1-1q1 0 0-2l1-1q-2-5-2-9-1-3-4-5-3-4-1-7 7-11 15-11 4 0 10 0t11-1q3 0 4 1h10q1 0 3 0t2-1q14 0 25 2l9 1h3q5 0 7 0h9q1-1 2-1t3 0q1 0 2-1t2 0l2 0q1 2 2 1h1q1-1 2-2t3-2q2 0 2 0 0 0 1 1v1q-1 0-1 2v0q0 4-9 8-10 6-21 7-1 0-2 0t-2 1q-3 0-5-2-4 1-5 1 0-1-4 0-1-1-3-1t-3 0q-2 0-6 0-6 0-8 0t-3 1-3 0-3-1-3 0-3-1-2 0q-3 0-6 1 0 1 0 1t-1 2q-1 0-2 0 0 0-1 1 0 4-1 6 0 1-1 1t-1 2q-2 2-2 3-1 2 0 6 2 3 0 5 0 1 0 2t-1 3q-2 3-3 4-2 0-2 0-1 2-1 7 0 3-1 4t0 3q1 2 0 5-2 3-2 5 0 1-1 3t-1 3q-2 4-3 6 3 0 4 1 0 1 1 1t1 1q1 0 3 0t3-1q5 0 6 0-1 1 0 2v0q2 2 3 0 2-2 4-2 1 2 2 0 1 0 4 0 1 0 2 0t2 1q1 1 2 1t3 0l1-1q0 0 1-1h1q0 0 0 1-1 1 0 1 3 0 5-2 2 0 4 0t3-1q2-1 3 0 0 2 3 1 3-1 4-3t5-2q1 1 1 2v1q0 1-1 2t-2 2-3 1-2 1q-1 1-5 4 0 1-2 2-2 0-2 0-1 0-2 1t-1 1l-8 4q-3 2-7 1-4-1-7 0l-5 1-4 1-3-2q-2-1-4 0l-6 1q-2 1-3 1t-3 0q-2 1-3 4 0 2-1 3t-1 4q0 2-1 3t0 4-1 4 0 3q2 2 1 4-2 4-1 5 0 0 0 1t-1 4q0 1 1 2 0 2-1 2 0 1 0 2t1 2q0 1-1 4-1 1-1 1t0 2q0 1-1 4 0 1 0 2 0 1-1 2t0 2q0 0 1 1-1 2-1 4t-1 5q0 1-1 2t0 2q0 2 0 4t1 4q2 7 5 9 1 0 1 0t2 1q2 1 2 1 1 1 3 2 0 0 0 1t2 1q1 1 2 0 2-1 4-1 3 1 7 1t8 0 8 0 8 0q2 0 5 0t4 1h10q1 0 1-1t1 0q0-1 0-1t1 0q2-1 5-2t5-2q3-1 5-3t4-2q3-2 3-4 1-2 3-3 3 1 3 2v2q-3 3-4 3-1 1-3 2t-2 2l-2 3q0 1-2 2t-2 2l-7 4q-2 1-4 2t-4 3-3 1-3 1q0 0-3 1-1 0-3 0t-2 1q-2 0-4 0t-4 1q0-1-1-1t-1-1q0 0 0 0t-2 1q-3 0-7 0t-8 1-8-1-7 0q-3-1-6 0-3 1-6 1h-4q-3 0-4 0m203-99q0-1 0-3 0 0 0-3 0-6-1-7 0 0-1 0t0 0q-1 0-1-1 0-1-1-1t-1-1q0-1-1-2-1-2-2-1-1 0-2-1 0 0 0-1 0-1-1-1-1-2-2 0-3 0-4-1l-1-2-2-1q-1-1-3-2t-3 0q-5 0-6-2-1-2 0-2 0-1 0-1v-1q1-1 3-1 1 0 3-1 1 0 3-2t4-3q2 0 3 0 2 0 4 0t4 1q5 0 7 1 2 1 3 3t3 4h0l1 1q0 0 1 1v0q0 1 0 1t0 0q1 1 1 1t1 1v3q1 5 0 8l-2 7-2 5q0 3-4 3 0 1-1 1m-69 101q-9-2-16-6-2-2-4-7-1-2-2-4t-2-4q0 0 0-1t0-2q1-2 1-3t0-1q1-2 3-3 2-1 3-3 2-4 9-5 1 0 1 0 0 0 0 0t1 1q2 3 0 6 0 4 1 5l2 7q2 5 3 6 1 0 3 1l3 2q1 0 2 2 1 2 3 2h3q2 0 3 1t4 0q5 0 7-2 6-3 10-9 1-1 1-2t1-1q0-1 2-2 1-2 0-3 0 0 1-3l2-2q2-4 2-10-2 0-2 1-1-10-7-16-3-2-6-5t-7-6q-2-1-2-3t-3-3q-9-6-12-10l-2-4q0-1 0-2t-1-2q-2-2-2-3 0-1-1-2t0-1q0-3 2-6l3-8 4-5 4-4q2-2 4-3t4-4q4-4 9-4 1 0 1 1t1 1v1q0 1-3 2l-3 1q-6 3-7 11-1 2 0 5 1 3 1 4 0 1 1 2v1q1 2 2 3t2 4 2 3 3 2l3 2q1 1 2 1t2 1q2 2 4 4 1 1 1 3t2 2q2 3 4 3 2 1 4 3 4 5 7 14 2 4 2 9 0 2 0 3t-1 4q0 1 0 3 0 2-1 4-1 0-1 1t-1 1q-1 0-3 2-1 2-2 3 0 1-1 2-1 1-1 0-1 0-2 1l-1 2q-1 2-2 3-1 1-3 1t-2 1q-2 2-3 3-3 3-4 4-2 0-4 3l-1 1q0 1-1 1-1 2-3 1-2 0-5 1l-2 1q0 1-2 1h-13q-3 0-4 0m105 0q-9 0-12-5-2-2-3-10-1-4-2-7t1-5q0-1 1-3t1-3q1-1 2-3t1-3q1-2 2-5t2-5q1-3 2-6t2-5l2-5q1-1 1-3t1-2v-6q0-2 1-3t1-3 1-3 1-3v-7q0-1 1-2t1-2 1-3 1-2q1-3 1-4t1-5q0 0 0-1t0-3q1-2 0-5-1-1-3-1 0 0-3-1-2-1-5-1t-6-1q-7 0-8-5 2-1 2-2 1 0 2-1t1-1q3-1 4 0 2 0 5-1 3-1 6-1t5-1l2-2 2-2v-6q0-1 1-2t0-1q1-1 1-2t1-1l1-4q0-3 1-5v-18q0 0-1-1 0 0 0 0-1-2-1-4 0-2 1-4 2-1 4-2t4-3 3-1q2 0 3-1h9q1 2 2 3t2 2q0 3-1 5t0 4-1 4-1 3-2 4-1 3q-1 4-1 9-3 1-3 5-1 2-2 7 0 2 0 4t0 5h1q2 1 4 1h7q2 0 5 0t7 0h3q3 0 5 0t4-1q3-1 4-2l4-1 1 1q0 1 0 2l-6 4q-1 1-3 2t-3 1q-2 0-4 1t-4 1-4-1q-1-1-2 0-2 0-5 0t-4 1-5 0-4 1q-2 0-3 0t-3 0q-2 2-3 4 0 3-2 6-2 2-3 5t-3 6-3 6-2 7v7q-1 4-3 6-1 1-2 3t-2 3q0 2-1 3 0 2 0 5l-2 8q-1 2-1 4t-1 4v9q1 1 1 2 1 0 1 1v20q1 2 1 2l2 1q6 0 10-3 2-2 3-3t3-4l5-4q2-2 4-5t4-5l1-1q1 0 2-1t1-3 2-3q1-4 3-4l1 1q0 1 0 2t0 3q0 2-1 4-2 3-7 8-5 3-8 7-1 2-3 4t-2 3q-1 2-2 3t-3 4q-1 1-2 2-2 2-3 3-4 5-6 7-3 2-8 2m96-1h-7q-4-2-8-2t-8-3q-3-1-7-7-4-6-5-10 0-2 0-4 1-2 0-5-3-4-3-8-2-4-2-11v-5l3-4v-8l2-1 0-1v-7l1-1q1 0 1-1 1-1 2-3 0-2 1-3l5-7q7-10 17-21 11-11 25-14h10l1-2v-1q-4-2-4-3-1-1-1-8 0 0 0-1t0 0q0 0 1-1t2-2 3-2q4-3 6-3 1 0 3 1 2 0 3 1 1 1 2 2t3 2 3 2 2 2q1 1 1 2t1 2q0 2 2 3 1 1 7 1 8 0 9-1 3-1 6-1 4 0 6 0 1-1 3 0 0 1 3 0 2 0 3-1t4 1q3 0 4 0t4 0q1-1 2-1t1 0h3v1q-2 2-4 3t-5 3l-5 1q-3 0-4 1h-17q-2 1-5 2 0 1-1 1t-2 0-2 2v8q1 1 1 6v7q0 2 0 4t-1 4q0 2 0 4t-1 4v5q0 2-2 3 0 1 0 2t-1 2q-2 5-5 10t-5 10-5 9-6 9q-1 1-2 2t-2 3q-1 1-2 3t-3 2q-4 7-12 12l-2 2q-2 1-4 0-1 0-4 1-2 1-4 2t-3 3q0 0-1 1t-1 2m-2-12h8l7-3q0 0 1-1t1-1q0 0 1-2 4-3 7-6 1-1 2-2t2-2q1-2 3-3t2-4q2-2 3-4t2-3 1-3q-1-2 0-4l9-22v-5l2-1v-13q-3-4-4-8 0-3-1-5t-2-5q0-1-1-2t-1-3-2-3-2-1q-1-1-1-2-1 0-2-2h-7q-2 1-5 1-3 1-6 2t-4 2q-10 6-16 14-8 9-11 20-1 1-1 3t-1 4q-2 5-1 9 3 9 3 16 1 4 1 9t0 9q1 1 3 1 0 1 0 2v4q0 1 1 2t3 4 2 3 2 2q1 1 1 2t1 1m95 12q-3 0-4-1l-2-2q0-1-1-2 0-8 2-12l5-11q0-2 1-4t1-3 1-4 1-3q1-1 2-2t2-3q2-3 3-5 1-3 1-5 0-2 0-3t1-3q1-4 1-8t1-7 0-9 1-8q-2 0-2-3v-23l-4-4q-1-1-2-1t-2-2q-1 0 0-3 2-1 3-2l3-1h13q1-1 2-1t2 0q1-1 4 0 4 1 5 6 0 2 0 4t1 6v5q-2 0-2 2 0 1 0 3t0 3 1 3 0 3q0 0 2 1h2q4-5 7-7 1-1 2-2t2-2q1-1 2-2t2-2 2-2 3-3q1-2 3-3t4-3 4-3 4-2q2-1 5-2t5-1h4q1-1 2-1t2-1q1 0 2 0t2-1q5 0 8 2 5 2 5 4l2 6q0 2 0 4t-1 3q-2 4-4 8-1 2-2 4t-2 5q-1 0-2 2t-1 3q-1 1 0 2 0 0 0 1t1 1q-3 3-4 6l-2 8q0 3-2 6t-2 7-2 6-1 7q-1 1-1 4 0 2 0 3t1 3v7q0 2 0 4t0 4l2 6q1 3 3 3 3-2 5-2 1-1 2-2t3-2 1-1q0 0 0-1t0-1l6-6q2-2 4-2 2-2 3-4l0 0q1 1 1 6l-1 2-2 3q0 1-4 5l-5 5h-1l-3 2-4 2q0 1 0 2-1 2-1 3-1 1-4 3t-5 3q-2 1-3 0-1 0-2-1t-2-1q-3-1-6-2t-3-1q-2-1-5-8 0-1 0-2t-1-3q0-4 1-5 1-3 2-3 1-1 2-3 0-2 1-3v-3q0-1 0-2t1-1q1 0 2-2 1-3 0-6t1-6q0-1 1-3t1-3l3-6q1-1 1-2 1-1 1-2t0-1v-8l4-4 3-4v-10q-2-4-2-9 0-4-1-6t0-5 0-4q0-1-1-3-2-3-5-1-2 0-3 0t-2 1q-7 4-12 9l-10 10q-8 8-14 16l-2 2q-2 2-2 3 0 1-1 1v1q-1 2-2 3 0 1 0 2t-1 2l-2 2q-1 0-3 2l-3 4q-3 3-3 5-1 1-1 2t-1 3q0 2-1 5-2 4-3 10l-3 11q-1 2 0 4 0 1 0 2t1 2v4q0 1 0 3t1 3q0 5 0 6-1 1-1 2t-1 1q-1 1-6 1-2 2-6 3-1 0-2 0m199-194q-2 0-2 0t-2-1q-3 0-4 0h-4q-3-1-4-2 0-1-2-3v0q2-1 2-3 1-1 1-2t1-2q0-1 1-2t1-2q1-2 4-2 0 0 0 0t1 0q1 0 1-1 2 0 4 0t4 1q1 2 1 3t1 2q1 3 1 4h0v5q-2 2-3 2-2 2-2 3m-45 197q-4 0-9-4 0-1-1-1t-1-1q0 0-2-2 0 0-1-3 0-1 0-2t0-3q-1-1-1-3t0-2q0-4 1-4l1-1q1 0 1-1v-5q1-2 1-4 1-1 1-2t0-1q1-1 1-3t1-2l2-5v-3q1-6 4-10 3-4 5-9v-4q0-1 2-4 3-3 3-5v-7q1-1 1-2 1 0 1-1t1-1q0-2 0-4t0-3v-8l-3-2q0-1 1-1v0q1-2 1-4v-6l-2-1t-2-1q-1 1-3 2-1 0-2 1t-2 0q-1 1-2 1t-2 1q-2 0-3-1t0-2q0 0 0-1 2-1 4-2 1 0 2-1t2-1q1-1 2-1t2-1q2-2 3-3 1-1 1-2t0 0q2-1 3 0 1 0 2-1l3-2 4-1q1 0 2-1t1 0q1 0 3 0t3 1q6 2 7 4v10q-2 2-2 4v3q0 1-1 3-1 2-2 4-2 2-4 5t-3 6q-2 2-3 5t-3 6q-1 2-2 4t-1 4l-3 9q-1 1-1 2t-1 3q0 2-1 3t0 3q1 1 1 1t1 2l-2 4v8t-1 2q-1 0-1 1t0 1v12q1 2 1 2 1 2 1 4v4l1 2 2 1q1-1 3-2 2 0 4 0 0-2 0-2h3l5-4q4-4 5-4l0 1q1 2-1 4-2 3-4 5l-5 4q-2 1-3 2t-4 4q-3 3-7 6-4 2-8 3m143-2q-2 0-4-1l-3-1q-1 1-4 1l-7-7v-17q0 0 0-2t1-2q0-2 1-4t1-4q0-2 0-4t2-4q2-6 4-11 4-5 4-12h-1q0 2-3 3-2 2-3 4-1 2-2 2 0 1-1 3l-6 9q-1 2-3 4t-3 5q-1 1-2 2t-3 3l-5 6q-1 0-2 1t-1 1q-1 2-3 4t-3 3q-1 1-2 1t-1 2l-3 4q-3 2-4 3-2 1-4 2t-5 3q-3 1-5 1-2 0-3-1t-3 0q-2-1-3-3-2-2-3-2l-3-2-1-6q0-1-1-3t0-3q-2-7-2-17 0-5 1-9t1-8q1-1 1-2t1-4q0-2 1-4t1-2q1-3 2-5 1-1 2-3t2-2l7-11 7-10q2-3 4-4 1-1 2-2t2-2q4-6 9-11 6-6 12-9 0 0 1 0t1-1q2 0 3 0 1-1 2-1t4-1q4-2 6-2l12-1q4 0 4 2-2 2 3 2 2 0 3-1t2-1q2-2 7-4 1 0 1-1t1 0q0 0 1-2h7q1 1 2 1t3 0q0 1 1 2t1 2q0 3 1 5-1 4-2 6-2 3-3 4l-3 4q-1 1-2 3t-2 4q0 3-1 3-1 0-1-1t0 0q-1 0-2 3 0 2-1 4t-2 4q-2 4-3 8-1 1-1 2t0 3-1 2 0 2q-1 4-3 7t-3 6l-2 11q-1 2-1 6-1 2-1 3t0 3q0 2 0 2t1 2v4l2 6q0 2 1 3t1 3v4q0 2 2 3h0q1-1 3-2 1-1 2-1t1-1q3-2 4-3l5-4q0-1 1-1t0 0q1 0 2-1 0-1 1-2t2-3q3-3 6-4 0 0 0 1t1 1q0 2-1 3t-2 2q0 2-2 3l-3 4-4 5q-1 1-2 1-2 0-2 0l-3 3q-1 1-1 1t-1 2q-2 1-3 3t-2 3q-3 3-7 4m-56-17l4-4q1-1 2-2t2-2q3-3 6-7 2-2 4-4t3-2q1-1 3-2 1 0 2-2l2-3q0-1 1-2t1-2q0-1 2-3t3-3q0-1 0-1t1-1q0-1 0-2t1-1q0-1 2-2 2-2 2-3 1-2 1-4t1-3q0-2 1-4t1-4q1-1 1-2t2-3q2-4 3-7v-2t1-2q0 0 0-1t1-1v-21q-1 0-1-1t0-1-1-1 0-1q-1-2-2-2 0-1-1-2-1-1-3 0h-4q-1 0-3 1-1 1-2 1t-1 0l-7 4q-4 2-7 4l-7 3q-1 0-1 1t-1 1q-3 3-5 6l-4 7q-4 6-7 13t-5 14v16q0 1 0 1t-1 2 0 2-1 2q0 0 0 1t0 4-1 3 0 2q0 3 1 4 0 1 0 5l2 4q1 2 1 5 1 0 2 1t2 1q1 1 4 2" />
</svg>