<svg id="fnt-Euphoria Script" viewBox="0 0 2481 1000" xmlns="http://www.w3.org/2000/svg"><path id="euphoria-script" class="f" d="M191 546q19 0 25 26 3 9 3 20 0 24-13 53-21 51-65 71-24 11-51 11-60 0-81-43-10-20-10-43t8-47q19-55 66-89 29-21 64-29-32-11-32-40 0-28 29-54 28-25 71-25 7 0 11 6 4 5 3 11v5q-3-2-13-2-37 0-62 26-17 18-17 36 0 33 50 33 4 0 7 2t5 8q-69 0-116 53-44 50-44 111 0 34 20 53 16 15 41 15 57 0 87-48 20-31 20-65 0-38-19-45-3-1-6-1 5-9 19-9m42-99q0 2-3 2t-7-1-4-5q0-40 9-65t25-25q4 0 7 3t2 7q-18 18-26 54-3 14-3 30m160 250q5 0 9-5 4-4 8-13 0-3 4-3t4 3-3 9q-3 5-10 14t-14 9q-16 0-25-20-9-20-9-50t5-60h-4q-48 84-74 84-31 0-31-47t20-94q22-51 39-51 7 0 7 8-17 45-29 87-12 42-12 62t10 21q6 0 20-16t27-40q30-51 46-87 16-35 33-35 8 0 8 8-26 51-37 122-4 28-4 54 0 40 12 40m125-67q0 24 13 24 17 0 36-44 23-51 23-95 0-30-16-30t-34 25-34 56-25 61-12 43-4 20-4 23-4 23-6 20q-4 12-8 19t-8 13q-10 13-25 13-19 0-19-22 0-39 60-147 6-44 13-71 14-65 29-100t29-36q6 0 6 8-19 51-39 129l-3 9h6q45-99 86-99 37 0 37 59 0 44-22 87-24 49-58 49-28 0-28-36 0-20 11-45t28-37q3-2 6 2 0 2-1 3-15 12-24 35t-9 41m-116 146q0 12 9 12 18 0 27-49 3-17 11-85-37 71-45 109-2 8-2 13m308-225q-22 38-33 68t-12 35-6 5q-12 0-12-32 0-64 13-128 13-64 30-103 18-38 33-38 7 0 7 6-22 47-36 107t-24 128h3q51-125 100-125 20 0 20 20-3 9-7 24t-12 54-7 68q0 42 13 42 4 0 8-4t6-3q6 0 0 8-2 3-7 8-5 5-11 5-15 0-24-22-8-22-8-57 0-58 17-121 1-6-5-5-2 0-5 3-20 18-41 57m158 119q-50 0-50-67 0-38 20-76 24-48 58-48 4 0 8 2t4 7q-25 0-44 41t-18 79q0 48 26 48 15 0 31-23t26-59 11-74v-5q-12-8-20-20t-8-18 5-10 10-5q7 0 15 13t10 31q12 9 21 9t15-4q0 6-4 10t-12 5-19-4q-1 38-12 77-11 39-31 65-20 26-42 26m243-118q-15 0-15-33 0-19 7-36-27 24-61 88-33 64-33 84 0 5-7 5-11 0-11-32 0-59 12-108 12-48 29-48 8 0 8 9-19 58-27 119h3q32-75 72-117 22-24 40-24 4 0 7 3t3 6q-3 3-7 8-4 6-11 27t-7 46q0 3-2 3m37 81q0-60 12-106t31-46q9 0 9 10-4 10-10 27-6 17-16 62t-10 81q0 5-6 5-10 0-10-33m58-197l-5 7q-8 0-8-16 0-10 5-20 5-11 15-11 8 0 8 9 0 10-15 31m52 231q-33 0-33-52 0-31 15-68 22-51 56-70 15-8 28-8t20 6 9 11l3 5q-2 7-7 7-7 0-8-3t-2-5-5-6q-5-4-10-4-26 0-48 47-24 54-24 101 0 24 10 24 8 0 21-17t29-42q27-44 43-77 14-29 28-29 8 0 8 10-4 7-9 21t-15 56-9 83 12 41q5 0 9-4t7-13q1-4 6-4 1 0 2 1 1 1 0 4-1 3-3 8t-8 13-14 8q-17 0-26-22t-9-52 4-57h-4q-50 87-76 87m284 16q0 30 31 36 6 1 14 1 50 0 79-32t29-81q0-20-7-36-7-16-17-27t-23-21-22-20-18-21q-7-12-7-26 0-37 33-68t71-31q8 0 11 6 4 5 4 11l0 5q-3-2-14-2-26 0-50 24t-24 56q0 13 7 25 7 12 17 21t23 21 22 22 18 27q7 16 7 34 0 48-40 86t-99 37q-50 0-63-32-10-26 8-58t53-43q13-4 23-4t14 3 5 11q-38 0-65 30-20 23-20 46m186-221q0 2-4 2t-7-2q-3-1-3-4 0-41 9-66t24-25q4 0 7 3t3 7q-18 18-26 54-3 15-3 31m142 171q1-3 6-3t6 2v1q-2 5-9 15t-14 15-17 11-21 5q-42 0-54-40-10-38 9-86t52-68q18-11 34-11t23 9q11-35 27-35 7 0 7 7-3 5-8 13t-14 27-8 36q0 5-5 5-5 0-6-9 0-16 3-30-2-12-17-12-29 0-51 44t-22 85q0 52 33 52 13 0 24-8t16-16l6-9m176-81q-15 0-15-33 0-19 7-36-27 24-61 88-33 64-33 84 0 5-7 5-11 0-11-32 0-59 12-108 12-48 29-48 7 0 7 9-18 58-26 119h3q32-75 71-117 23-24 41-24 4 0 7 3t2 6q-2 3-6 8-4 6-11 27t-7 46q0 3-2 3m36 81q0-60 13-106t31-46q9 0 9 10-4 10-10 27-6 17-16 62t-10 81q0 5-6 5-11 0-11-33m59-197l-5 7q-8 0-8-16 0-10 5-20 5-11 15-11 8 0 8 9 0 10-15 31m94 194q0 24 13 24 16 0 36-44 22-51 22-95 0-30-15-30t-35 25-33 56-25 61-13 43-3 20-4 23-5 23-6 20q-3 12-7 19t-9 13q-9 13-24 13-19 0-19-22 0-39 60-147 6-44 12-71 14-65 30-100t28-36q7 0 7 8-19 51-40 129l-2 9h5q46-99 86-99 38 0 38 59 0 44-22 87-25 49-59 49-27 0-27-36 0-20 10-45t28-37q4-2 6 2 0 2 0 3-16 12-24 35t-9 41m-117 146q0 12 9 12 18 0 27-49 3-17 11-85-36 71-45 109-2 8-2 13m258-283q-15 0-15-12 0-5 4-6 0-1 1-1 2 3 9 3t21-1q19-51 36-51 7 0 7 8-7 16-15 41 40-4 52-4 3 0 3 3 0 6-8 6-5 0-51 9-32 100-32 162t25 62q10 0 19-9t12-17q2-4 7-2 3 1 2 2-3 5-6 12-4 7-14 17t-21 10q-48 0-48-83 0-70 26-149-6 0-14 0" />
</svg>