<svg id="fnt-Exo 2" viewBox="0 0 1195 1000" xmlns="http://www.w3.org/2000/svg"><path id="exo-2" class="f" d="M107 321q25 0 50 0t50 1 48 2l-2 35h-138q-16 0-23 7t-7 26v205q0 17 7 25t23 8h138l2 34q-23 2-48 2t-50 1-50 0q-30 0-48-16t-18-44v-226q0-28 18-44t48-16m-57 181v-35h184v35h-184m431-79h46l-76 118 82 126h-46l-80-126 74-118m-183 0h46l73 118-79 126h-46l81-126-75-118m88 101h53v33h-53v-33m300-107q42 0 67 13t37 40 11 75-11 75-37 41-67 12q-41 0-67-12t-36-41-11-75 11-75 36-40 67-13m0 36q-26 0-42 8t-21 29-7 55 7 56 21 28 42 8 42-8 22-28 7-56-7-55-22-29-42-8m389-137q33 0 57 5t36 22 13 47q0 22-6 41t-19 39-36 46l-99 110q13-1 27-1t29-1h117v43h-227v-28q0-5 2-10t5-9l100-113q33-35 48-63t15-52q-1-17-9-25t-22-10-34-2q-16 0-30 0t-31 2-38 6l-3-34q24-6 41-9t33-3 31-1" />
</svg>