<svg id="fnt-Fahkwang" viewBox="0 0 2562 1000" xmlns="http://www.w3.org/2000/svg"><path id="fahkwang" class="f" d="M37 667v-350h287v24h-235v126h202v24h-202v176h-52m419 5q-49 0-74-20t-25-55q0-39 30-59t89-20h73v-18q0-31-18-47t-54-16q-33 0-53 15t-23 44h-36q5-38 35-59t80-20q56 0 85 22t30 66v81q0 43 7 81h-43q-5-23-7-43-30 48-96 48m11-20q23 0 42-11t29-28 11-40v-35h-60q-44 0-66 14t-21 44q0 28 17 42t48 14m201 15v-342h46v144q13-25 39-39t58-13q48 0 75 23t27 67v160h-46v-165q0-31-17-48t-49-17q-39 0-63 26t-24 69v135h-46m554 0h-50l-105-133-44 39v94h-46v-342h46v215l137-118h36l-100 86 126 159m122 5l-109-250h49l78 181 71-186h22l79 191 81-186h28l-108 250h-21l-78-187-71 187h-21m432 0q-49 0-74-20t-25-55q0-39 30-59t89-20h73v-18q0-31-18-47t-54-16q-33 0-53 15t-23 44h-36q5-38 35-59t80-20q56 0 85 22t30 66v81q0 43 7 81h-43q-5-23-7-43-30 48-96 48m11-20q23 0 42-11t29-28 11-40v-35h-60q-44 0-66 14t-21 44q0 28 17 42t48 14m202 15v-245h46v43q12-22 37-35t57-13q48 0 76 25t28 68v157h-46v-162q0-32-18-50t-51-18q-38 0-61 25t-22 65v140h-46m572-239q-17-8-38-8-24 0-40 7 26 10 40 28t14 45q0 36-29 60t-87 26q-22 1-37 6t-15 13q0 7 10 10t25 3h21q62 0 96 17t34 50q0 24-18 41t-49 28-73 10q-40 0-70-9t-46-23-16-34q0-21 20-35t62-20q-23-3-34-12t-11-20 13-22 36-12q-34-9-50-29t-16-49q0-37 32-60t85-22q23 0 40 3 13-12 31-19t37-6q20 0 33 4v29m-141 137q34 0 53-16t18-48q0-31-18-47t-53-17q-34 0-53 17t-18 47q0 32 18 48t53 16m10 81q-53 0-82 13t-30 37q0 22 27 35t70 14q46 0 74-16t28-41q0-21-24-31t-63-11" />
</svg>