<svg id="fnt-Fanwood Text" viewBox="0 0 2728 1000" xmlns="http://www.w3.org/2000/svg"><path id="fanwood-text" class="f" d="M57 616v-48l-2-147q0-35-2-53t-2-18h-23q-8 0-9-3t0-6q0-8 6-8l22 0q22 1 32 1l130-1q24 0 28-1 4 0 4-5t2-6 7-1 7 1 2 6l-2 66q0 4-2 5t-7 1q-9 0-9-8l1-39q-21-3-139-3-2 0-2 55t0 70 1 15 6 0h87q26 0 26-6v-27q0-4 10-4 6 0 7 1t1 3l-1 40 1 48q0 4-9 4t-9-4v-31q0-6-9-7t-17 0h-87q-5 0-6 0t0 17 0 53q1 76 3 76h40q4 0 6 1t1 7-1 8-6 2l-60-2-52 2q-5 0-7-2t-1-8 2-7 8-1h21q3 0 3-36m380-83l-3 102q0 9 7 12 2 1 3 1t11-6 9-6 4 3 3 6-3 4-11 8-17 12-14 8-8-2-5-2-3-5-3-5-2-5-1-5q-1-4-6-1-37 23-61 23t-38-12-13-32q0-22 18-38 19-16 38-22 31-11 57-15 3-1 3-8t0-12-1-12-2-12-3-10-5-9-7-7q-8-5-20-5t-21 3-11 10-2 19-5 15-15 9-13 5q-4 0-4-11t5-21 13-19 18-14q20-11 38-11t30 3 19 9 13 14q8 15 8 41m-113 84q0 8 3 16t11 12 17 5 20-3q27-6 27-11v-65q0-4-1-4t-6 1q-71 13-71 49m199-124l-31 2q-3 0-3-2t2-8 4-6 5-1 26-1 27-2 5 0 1 0 2 0 0 0 1 1 0 1 0 1v21q0 3 1 3t1-1 1 0q2-2 3-3t8-4 8-6 10-6 11-4q14-5 27-5t23 3 17 6 12 11 8 14 5 17q3 17 3 39l-2 85q0 4 0 4t4 1h15q5 0 7 1t1 6-1 7-6 2l-38-1-43 1q-5 0-7-1t-1-7q0-8 8-8h22q3 0 3-52t-1-61-5-17-8-14q-11-12-33-12-16 0-38 11-11 6-12 8t-2 5l0 124q0 6 1 7t4 1h19q5 0 6 1t1 6 0 4-1 2q-1 3-6 3l-42-1-45 1q-5 0-6-2-1-2-1-6t2-6 5-2h22q4 0 4-70t0-77-1-10 0-2q-1-1-2-1m508-18l27-1q6 0 6 6t-1 9-5 2h-3q-5 0-8 6t-14 33q-32 86-40 103t-15 26-10 15-9 7q-8 0-16-32 0-2-12-42t-17-57-7-17q-1-3-1-3t-3 6-10 24-11 30q-18 48-24 56t-8 11q-6 7-11 14t-6 9-4 1-3-2-3-3-2-6-3-6-2-6-2-7-3-7-9-29-21-60-17-49-6-14-6-1h-8q-4 0-6-2t-1-6 1-5q0-4 6-4l35 1 43-1q7 0 7 5 0 1 0 5t-1 5-5 2h-14q-7 0-7 3 0 6 19 61t23 64 5 10 3-4 1-3q1-2 8-21t13-30q13-33 18-48t5-17 0-3 0-1-1-1q0-2-2-5-2-5-15-5h-6q-4 0-5-2t-2-6 1-5q0-4 6-4l38 1 36-1q6 0 7 5 0 1 0 4 0 8-8 8h-10q-5 0-5 3v1q1 6 17 57t21 65 7 15 7-14 23-64 16-56-4-7h-17q-4 0-6-2t-1-6 2-7 5-2l30 1m47 99q0-21 8-41t21-34q29-32 75-32 42 0 67 30 25 29 25 71 0 47-26 77-27 31-74 31-41 0-68-30-28-29-28-72m39 8q0 37 21 61 14 17 36 17 61 0 61-95 0-44-26-69-13-13-33-13-59 0-59 99m184-8q0-21 8-41t21-34q29-32 75-32 41 0 67 30 25 29 25 71 0 47-26 77-27 31-74 31-41 0-68-30-28-29-28-72m39 8q0 37 21 61 14 17 36 17 61 0 61-95 0-44-26-69-13-13-33-13-59 0-59 99m339 92l0-18q0-4-5-1-31 20-60 20-58 0-80-47-10-22-10-47t8-45 21-32q30-28 74-28 24 0 48 11 3 1 4 1t1-19-2-71-4-51l-33 4q-3 0-3-5t1-6 1-2 0-1 0-1 1-1 0 0q1-1 9-1t24-4 27-3 13-2 3 6-1 34q-2 92-2 162t1 95 2 31 9 5q1 0 4 0l8-1q4-1 6-2 5 0 5 3t0 6 0 3q-1 4-4 5-60 8-62 8t-3-2-1-4m-103-150q-6 11-9 23t-4 28 5 30 13 25q18 23 57 23 11 0 27-5t15-10v-125q0-4-10-11-19-13-34-13t-27 4-19 13-14 18m311-130q0 5-1 6t-9 1-8-5q0-1 1-12 5-36 6-47t3-14 8-1 7 4v5q0 3 53 3h178q53 0 54-5t1-6 6-1 5 0 3 1q2 1 2 6l-2 67q0 4-1 4t-8 1-7-1-2-6l1-40q0-3-55-3h-57q-3 0-4 36t0 41l-3 193q0 31 1 31h35q5 0 6 1t1 7-1 8-6 2l-60-2-61 2q-5 0-6-2t-2-8 2-7 8-1h31q3 0 5-97t1-151-3-53h-71q-46 0-47 5l-4 38m432 162l-111-3q-2 4-2 20t6 31 17 26q21 21 49 21 34 0 62-30 3-3 4-3t5 4 5 5-4 6-12 12-18 14q-25 17-51 17t-45-8-30-21-19-32-6-41 7-42 21-34q29-31 75-31 37 0 57 25 19 23 19 56 0 8-29 8m-106-14l86-3q11 0 11-1 0-36-22-50-11-7-22-7t-22 6-18 14q-16 19-17 38 0 3 4 3m221 127l-33-1-31 1q-3 0-4-2t-1-6 2-7 7-1 9-2 12-12l60-62q3-3 3-4t-1-3l-54-72q-4-5-5-6t-5-1h-11q-5 0-6-2t-1-6 0-5q1-4 7-4l41 1 31-1q4 0 5 2t1 6 0 4-1 2q-1 3-8 3t-7 2 4 7l32 46q3 6 5 3 1 0 2-1t3-4 19-21q23-28 23-30t-10-2h-8q-5 0-6-2t-1-5 0-5 1-2q1-3 6-3l29 1 28-1q4 0 5 2t1 6-1 7-5 2-7 1-5 3-5 5-9 8-15 15-21 21-14 14-3 4 22 31 33 44 12 15 4 1h6q7 0 7 4 0 1 0 4t0 3-1 2q-1 3-5 3l-36-1-35 1q-7 0-7-5 0-1 0-4 0-7 6-7h7q7 0 7-3t-2-4-3-6-10-15-17-24-10-14-1-1-1-1q-1-1-2-1t-3 3-13 16q-38 44-37 48 0 2 6 2h15q6 0 7 4 0 1 0 4t0 3-1 2q-1 3-6 3m191-32l1-108q0-29-6-29h-12q-4 0-4-5 0-3 2-5l46-64q3-4 6-4 6 0 6 6l-3 48q0 2 0 3t4 0h51q4 0 4 3 0 1-2 7t-3 8-5 2h-47q-2 0-2 22v96q0 18 3 22 8 7 18 7t19-2 15-4 9-2 2 5-1 5-6 5-25 12-32 8-19-4-12-8q-7-11-7-24" />
</svg>