<svg id="fnt-Fascinate Inline" viewBox="0 0 4389 1000" xmlns="http://www.w3.org/2000/svg"><path id="fascinate-inline" class="f" d="M204 439v191q0 6-1 12t-6 12-11 9-19 4h-107q-12 0-19-3t-11-6-6-10-2-15v-274q0-14 4-23t9-13 14-6 18-1h227q11 0 11 12v23q0 5-3 6t-7 2q-2 0-7-1t-12-2-15-3-16-3q-19-3-41-8v62h91q5 0 5 5v24q0 6-5 6h-91m-21 192v-293l-19-4v312q6 0 10 0t6-2 3-5 0-8m365 36h-130q-13 0-27-2t-25-6-22-9-19-16-12-21-4-28q0-21 8-36t22-25 31-16 36-7v-16q0-10-2-16t-7-8-8-4-9-1q-5 0-10 2t-11 3-9 5-8 4q-2 1-3 2t-2 1q-3 0-4-3l-9-14q-1-1-1-3t2-4 3-2q8-6 20-12t28-10 34-8 37-3q18 0 36 2t33 5 28 11 22 20 15 30 5 43v109q0 8-2 14t-5 10-12 7-19 2m-142-32v-103q-18 0-30 5t-19 11-10 17-3 20 3 20 10 16 19 10 30 4m140-117v128q6 0 10 0t6-2 2-5 1-8v-112q0-19-4-33t-10-22-14-13-14-7q3 3 7 9t8 15 6 22 2 28m259-110q16 0 31 2t30 5 25 6 19 7q2 1 3 2t1 3q0 1 0 2t0 3l-3 14q-1 3-2 4t-1 0q-2 0-5-1t-7 0q-14 0-22 7t-10 26l-14 114q-2 15-10 29t-24 23-38 15-53 6q-19 0-37-2t-33-6-27-6-17-6q-2 0-3-1t-1-3q0-1 0-2t1-3l3-14q1-1 2-3t4-1q8 0 16-1t16-4 12-12 7-21l17-117q3-19 14-31t27-20 37-11 42-3m-46 244q33-3 51-18t20-38l13-108q2-18 11-31t23-14q-13 0-23 3t-16 10-10 15-5 17l-13 108q-1 10-5 18t-10 17-15 13-21 8m345-109q0 25 5 41t13 26 17 14 18 4q6 0 11-2t9-4 7-3 4-2q2 0 3 1t2 3l8 13q2 2 2 3 0 2-1 3t-2 2q-8 5-20 11t-27 12-35 8-41 4q-19 0-37-3t-35-10-31-17-25-25-17-34-6-45 6-44 17-35 25-25 31-17 35-10 37-2q20 0 38 3t35 8 28 11 20 12q1 0 2 1t1 3-1 3l-9 14q-1 1-2 2t-3 1q-1 0-4-2t-6-3-8-3-11-2q-8 0-18 4t-17 14-13 26-5 41m32 94q-8-1-17-7t-17-17-14-28-5-42 5-42 14-28 17-17 17-8q-13 1-26 6t-24 16-17 30-6 43 6 44 17 29 24 16 26 5m94-4v-182q0-9 1-15t6-11 12-6 19-2h107q11 0 18 2t11 6 5 10 1 16v182q0 9-1 15t-5 10-11 7-18 2h-107q-12 0-19-3t-12-6-6-10-1-15m9-321q0-17 6-32t18-25 26-18 32-6q16 0 31 6t26 18 17 25 7 32q0 17-7 32t-17 25-26 18-31 6q-17 0-32-6t-26-18-18-25-6-32m150 319v-178q0-6-1-9t-3-5-5-1-10-1v209q6 0 10 0t5-2 3-5 1-8m-28-319q0 17-7 32t-18 27q10-3 18-8t14-14 9-17 4-20-4-20-9-17-14-13-18-8q11 11 18 26t7 32m94 321v-182q0-9 1-15t6-11 11-6 19-2h100q11 0 19 2t12 7q3-2 7-4t10-5 12-4 12-1q24 0 37 16t13 47v180q0 4-1 7t-3 3-4 1-4 1h-16q-6 0-8-4t-2-8v-182q0-14-5-21t-16-8q-5 0-11 3t-9 7v178q0 9-2 15t-5 11-12 6-19 3h-105q-11 0-19-3t-11-6-6-10-1-15m159-2v-178q0-9-5-12t-14-4v209q6 0 9 0t6-2 3-5 1-8m377 36h-130q-13 0-27-2t-25-6-23-9-18-16-12-21-4-28q0-21 8-36t21-25 32-16 36-7v-16q0-10-3-16t-6-8-8-4-9-1q-5 0-10 2t-11 3-10 5-7 4q-2 1-3 2t-2 1q-3 0-5-3l-8-14q-1-1-1-3t1-4 4-2q8-6 20-12t28-10 34-8 37-3q18 0 36 2t33 5 28 11 22 20 15 30 5 43v109q0 8-2 14t-5 10-12 7-19 2m-142-32v-103q-18 0-30 5t-19 11-10 17-4 20 4 20 10 16 19 10 30 4m140-117v128q6 0 10 0t5-2 3-5 1-8v-112q0-19-4-33t-10-22-14-13-14-7q3 3 7 9t8 15 6 22 2 28m93-21h-26q-5 0-5-6v-19q0-5 5-5h26v-56q0-3 1-7t6-6l135-49q9-4 15-6t11-1q1 0 4 0t3 2 3 4 2 7v112h44q5 0 5 5v19q0 6-5 6h-44v98q0 17 5 25t18 7q3 0 6-1t5-1 5-1 4-1q2 0 2 3v19q0 5-2 7t-3 2q-9 4-22 8t-27 6-31 5-32 2q-23 0-43-2t-34-11-23-24-8-45v-96m159 105v-225q0-5-1-8t-5-3q-2 0-4 0t-5 2l-4 2v231q0 11 4 18t9 11 11 5 11 2q-4-3-7-6t-5-7-3-9-1-13m328 24q7 0 12-2t10-4 7-4 4-2q2 0 3 1t2 3l9 13q1 2 1 3 0 2-1 3t-2 2q-8 5-20 12t-27 12-35 9-43 3q-18 0-36-3t-35-9-32-17-25-25-16-34-6-45q0-25 6-45t16-34 25-26 32-17 35-9 36-3q31 0 57 7t46 22 30 41 11 63v13q0 5-2 7t-8 3h-101q2 18 7 30t12 19 14 10 14 3m-48-92h77q0-20-3-33t-8-20-12-11-15-3q-5 0-12 2t-12 9-10 20-5 36m32 106q-8-2-17-7t-17-16-14-29-5-45q0-25 5-42t12-28 17-16 19-7q-14 0-28 6t-23 16-16 29-6 42q0 26 7 45t17 30 24 17 25 5m265-7v-283q0-8 2-15t5-10 12-7 19-2h109q14 0 21 4t11 11 3 13 0 13v270q0 6-1 13t-5 12-12 10-22 5h-104q-12 0-19-3t-12-6-5-10-2-15m161-2v-279q0-5 0-8t-3-5-6-2-10 0v309q6 0 10 0t6-2 3-5 0-8m66 2v-182q0-9 2-15t5-11 12-6 19-2h100q11 0 19 2t11 7q3-2 8-4t10-5 11-4 13-1q23 0 36 16t13 47v180q0 4-1 7t-2 3-4 1-5 1h-15q-6 0-8-4t-2-8v-182q0-14-5-21t-16-8q-6 0-12 3t-9 7v178q0 9-1 15t-6 11-11 6-19 3h-105q-12 0-19-3t-12-6-5-10-2-15m160-2v-178q0-9-5-12t-14-4v209q5 0 9 0t6-2 3-5 1-8m144 2v-332q0-9 2-15t5-11 12-6 19-2h107q11 0 18 2t11 6 5 11 1 14v333q0 9-1 15t-6 10-10 7-19 2h-106q-12 0-19-3t-12-6-5-10-2-15m160-2v-328q0-5-1-9t-3-4-6-2-9-1v359q5 0 9 0t6-2 3-5 1-8m65 2v-182q0-9 2-15t5-11 12-6 19-2h107q11 0 18 2t11 6 5 10 1 16v182q0 9-1 15t-5 10-11 7-18 2h-107q-12 0-19-3t-12-6-5-10-2-15m9-321q0-17 7-32t17-25 26-18 32-6q16 0 31 6t26 18 17 25 7 32q0 17-7 32t-17 25-26 18-31 6q-17 0-32-6t-26-18-17-25-7-32m150 319v-178q0-6 0-9t-3-5-6-1-10-1v209q6 0 10 0t6-2 3-5 0-8m-28-319q0 17-7 32t-18 27q10-3 18-8t14-14 10-17 3-20-3-20-10-17-14-13-18-8q12 11 18 26t7 32m94 321v-182q0-9 2-15t5-11 12-6 19-2h100q11 0 18 2t12 7q3-2 7-4t10-5 12-4 13-1q23 0 36 16t13 47v180q0 4-1 7t-3 3-3 1-5 1h-15q-7 0-9-4t-1-8v-182q0-14-5-21t-16-8q-6 0-12 3t-9 7v178q0 9-1 15t-6 11-12 6-19 3h-104q-12 0-19-3t-12-6-5-10-2-15m159-2v-178q0-9-4-12t-15-4v209q6 0 10 0t6-2 3-5 0-8m366-5q7 0 12-2t10-4 7-4 4-2q2 0 3 1t2 3l9 13q1 2 1 3 0 2-1 3t-2 2q-8 5-20 12t-27 12-35 9-43 3q-18 0-36-3t-36-9-31-17-25-25-16-34-6-45q0-25 6-45t16-34 25-26 31-17 36-9 36-3q31 0 57 7t45 22 31 41 11 63v13q0 5-3 7t-7 3h-101q2 18 7 30t12 19 14 10 14 3m-48-92h77q0-20-3-33t-8-20-12-11-15-3q-5 0-12 2t-12 9-10 20-5 36m32 106q-8-2-17-7t-17-16-14-29-5-45q0-25 5-42t12-28 17-16 19-7q-15 0-28 6t-23 16-16 29-6 42q0 26 7 45t17 30 24 17 25 5" />
</svg>