<svg id="fnt-Fascinate" viewBox="0 0 2634 1000" xmlns="http://www.w3.org/2000/svg"><path id="fascinate" class="f" d="M204 439v191q0 6-1 12t-6 12-11 9-19 4h-107q-12 0-19-3t-11-6-6-10-2-15v-274q0-14 4-23t9-13 14-6 18-1h227q11 0 11 12v23q0 5-3 6t-7 2q-2 0-7-1t-12-2-15-3-16-3q-19-3-41-8v62h91q5 0 5 5v24q0 6-5 6h-91m344 228h-130q-13 0-27-2t-25-6-22-9-19-16-12-21-4-28q0-21 8-36t22-25 31-16 36-7v-16q0-10-2-16t-7-8-8-4-9-1q-5 0-10 2t-11 3-9 5-8 4q-2 1-3 2t-2 1q-3 0-4-3l-9-14q-1-1-1-3t2-4 3-2q8-6 20-12t28-10 34-8 37-3q18 0 36 2t33 5 28 11 22 20 15 30 5 43v109q0 8-2 14t-5 10-12 7-19 2m-142-32v-103q-18 0-30 5t-19 11-10 17-3 20 3 20 10 16 19 10 30 4m399-227q16 0 31 2t30 5 25 6 19 7q2 1 3 2t1 3q0 1 0 2t0 3l-3 14q-1 3-2 4t-1 0q-2 0-5-1t-7 0q-14 0-22 7t-10 26l-14 114q-2 15-10 29t-24 23-38 15-53 6q-19 0-37-2t-33-6-27-6-17-6q-2 0-3-1t-1-3q0-1 0-2t1-3l3-14q1-1 2-3t4-1q8 0 16-1t16-4 12-12 7-21l17-117q3-19 14-31t27-20 37-11 42-3m299 135q0 25 5 41t13 26 17 14 18 4q6 0 11-2t9-4 7-3 4-2q2 0 3 1t2 3l8 13q2 2 2 3 0 2-1 3t-2 2q-8 5-20 11t-27 12-35 8-41 4q-19 0-37-3t-35-10-31-17-25-25-17-34-6-45 6-44 17-35 25-25 31-17 35-10 37-2q20 0 38 3t35 8 28 11 20 12q1 0 2 1t1 3-1 3l-9 14q-1 1-2 2t-3 1q-1 0-4-2t-6-3-8-3-11-2q-8 0-18 4t-17 14-13 26-5 41m126 90v-182q0-9 1-15t6-11 12-6 19-2h107q11 0 18 2t11 6 5 10 1 16v182q0 9-1 15t-5 10-11 7-18 2h-107q-12 0-19-3t-12-6-6-10-1-15m9-321q0-17 6-32t18-25 26-18 32-6q16 0 31 6t26 18 17 25 7 32q0 17-7 32t-17 25-26 18-31 6q-17 0-32-6t-26-18-18-25-6-32m216 321v-182q0-9 1-15t6-11 11-6 19-2h100q11 0 19 2t12 7q3-2 7-4t10-5 12-4 12-1q24 0 37 16t13 47v180q0 4-1 7t-3 3-4 1-4 1h-16q-6 0-8-4t-2-8v-182q0-14-5-21t-16-8q-5 0-11 3t-9 7v178q0 9-2 15t-5 11-12 6-19 3h-105q-11 0-19-3t-11-6-6-10-1-15m536 34h-130q-13 0-27-2t-25-6-23-9-18-16-12-21-4-28q0-21 8-36t21-25 32-16 36-7v-16q0-10-3-16t-6-8-8-4-9-1q-5 0-10 2t-11 3-10 5-7 4q-2 1-3 2t-2 1q-3 0-5-3l-8-14q-1-1-1-3t1-4 4-2q8-6 20-12t28-10 34-8 37-3q18 0 36 2t33 5 28 11 22 20 15 30 5 43v109q0 8-2 14t-5 10-12 7-19 2m-142-32v-103q-18 0-30 5t-19 11-10 17-4 20 4 20 10 16 19 10 30 4m233-138h-26q-5 0-5-6v-19q0-5 5-5h26v-56q0-3 1-7t6-6l135-49q9-4 15-6t11-1q1 0 4 0t3 2 3 4 2 7v112h44q5 0 5 5v19q0 6-5 6h-44v98q0 17 5 25t18 7q3 0 6-1t5-1 5-1 4-1q2 0 2 3v19q0 5-2 7t-3 2q-9 4-22 8t-27 6-31 5-32 2q-23 0-43-2t-34-11-23-24-8-45v-96m487 129q7 0 12-2t10-4 7-4 4-2q2 0 3 1t2 3l9 13q1 2 1 3 0 2-1 3t-2 2q-8 5-20 12t-27 12-35 9-43 3q-18 0-36-3t-35-9-32-17-25-25-16-34-6-45q0-25 6-45t16-34 25-26 32-17 35-9 36-3q31 0 57 7t46 22 30 41 11 63v13q0 5-2 7t-8 3h-101q2 18 7 30t12 19 14 10 14 3m-48-92h77q0-20-3-33t-8-20-12-11-15-3q-5 0-12 2t-12 9-10 20-5 36" />
</svg>