<svg id="fnt-Faster One" viewBox="0 0 3258 1000" xmlns="http://www.w3.org/2000/svg"><path id="faster-one" class="f" d="M197 667h-95l55-313h195l-26 80h-88l-7 42h81l-14 75h-81l-20 116m-55-313l-4 23-212-23h216m-9 48l-3 23-213-23h216m-8 48l-4 23-212-23h216m-8 48l-4 23-213-23h217m-9 48l-4 23-212-23h216m-8 48l-4 23-213-23h217m-9 49l-4 22-212-22h216m395 24h-87l111-265h124l20 265h-88l-2-41h-63l-15 41m8-265l-9 22-204-22h213m-20 48l-9 22-205-22h214m83 29l-29 76h36v-76h-7m-103 19l-10 22-204-22h214m-21 48l-9 22-205-22h214m-20 48l-9 22-205-22h214m-20 49l-10 22-205-22h215m492 30q-24 0-48-3t-48-9l25-74q39 11 75 11 9 0 17 0t17-1l3-16-32-4q-41-4-58-19t-16-41q0-6 0-12t2-13q7-36 20-57t37-29 64-9q48 0 90 11l-24 73q-18-4-32-6t-32-2q-9 0-15 0t-15 1l-2 15 25 3q44 5 62 22t18 44q0 5 0 10t-2 10q-6 34-19 54t-31 28-39 11-42 2m-54-250l-195-21h216q-6 5-12 10t-9 11m-20 50l-209-23h215q-2 5-3 11t-3 12m-6 44v4l-212-23h213q-1 5-1 9t0 10m19 52l-212-23h197q5 13 15 23m-29 25l-7 22-208-22h215m-16 49l-7 22-209-22h216m489 24h-88l33-190h-56l14-75h197l-13 75h-54l-33 190m-114-265l-3 23-212-23h215m-8 48l-4 23-212-23h216m48 48l-4 23-212-23h216m-8 48l-4 23-212-23h216m-9 48l-4 23-212-23h216m-8 49l-4 22-212-22h216m462 24h-176l46-265h176l-24 75h-81l-6 34h75l-9 48h-74l-6 34h92l-13 74m-147-265l-3 23-212-23h215m-8 48l-4 23-212-23h216m-8 48l-4 23-212-23h216m-9 48l-4 23-212-23h216m-8 48l-4 23-212-23h216m-9 49l-4 22-212-22h216m425 24h-84l46-265h127q28 0 43 9t23 23 7 34q0 15-5 37t-15 41-33 33l29 88h-94l-19-77h-12l-13 77m-55-265l-3 23-212-23h215m-8 48l-4 23-212-23h216m96 25l-8 46h16q10 0 17-3t9-12l3-17q0-1 0-2t1-1q0-7-8-9t-19-2h-11m-104 23l-4 23-212-23h216m-9 48l-4 23-212-23h216m-8 48l-4 23-212-23h216m-9 49l-4 22-212-22h216m592 31q-65 0-91-25t-26-76q0-14 1-29t5-33q10-55 28-91t52-55 89-18q65 0 91 25t26 76q0 20-3 47t-11 54-21 52-32 42q-20 17-47 24t-61 7m-66-303l-153-17h176q-6 4-12 8t-11 9m-35 51l-187-20h197q-2 5-5 10t-5 10m101 37l-23 130h40q16 0 27-4t14-23l23-130h-40q-16 0-27 4t-14 23m-111-9l-6 21-194-21h200m-16 69l-196-21h200l-2 10q0 3-1 6t-1 5m-5 48l-197-21h199q-2 11-2 21m4 48l-194-21h191q1 6 1 11t2 10m27 46l-173-18h158q6 11 15 18m474 6h-84l46-265h68l52 99h3l17-99h83l-46 265h-68l-52-99h-2l-17 99m-55-265l-3 23-212-23h215m-8 48l-4 23-212-23h216m-8 48l-4 23-212-23h216m-9 48l-4 23-212-23h216m-8 48l-4 23-212-23h216m-9 49l-4 22-212-22h216m574 24h-177l46-265h176l-23 75h-82l-6 34h75l-8 48h-75l-6 34h93l-13 74m-147-265l-4 23-212-23h216m-8 48l-4 23-212-23h216m-9 48l-4 23-212-23h216m-8 48l-4 23-212-23h216m-9 48l-4 23-212-23h216m-8 49l-4 22-212-22h216" />
</svg>