<svg id="fnt-Fauna One" viewBox="0 0 2735 1000" xmlns="http://www.w3.org/2000/svg"><path id="fauna-one" class="f" d="M149 667h-112v-26l31-4v-305l-31-4v-26h212q15 0 15 15v68h-26l-4-56h-126v144h133v27h-133v137l41 4v26m243 7q-33 0-53-21t-20-56q0-50 42-74t133-23v-19q0-41-14-59t-48-18q-18 0-40 6t-41 18l-13-30q23-11 50-18t48-6q50 0 74 25t24 77v137q0 27 21 27 11 0 20-3l5 30q-20 7-38 7-48 0-48-57v-9q-16 32-43 49t-59 17m13-31q27 0 47-15t31-41 11-62q-70 1-104 18t-34 52q0 22 13 35t36 13m334 31q-42 0-62-22t-20-68v-173l-35-4v-26h58q17 0 17 15v188q0 32 11 46t39 14q47 0 95-39v-194l-30-4v-26h54q15 0 15 15v217q0 27 22 27 5 0 11-1t9-2l5 30q-20 7-38 7-41 0-47-39-25 19-52 29t-52 10m508 0q-48 0-48-57v-154q0-32-11-45t-39-14q-48 0-92 37v196l35 4v26h-110v-26l35-4v-226l-35-4v-26h53q16 0 16 15v19q24-19 52-30t54-11q42 0 62 21t20 68v150q0 27 21 27 9 0 21-3l5 30q-19 7-39 7m158 0q-33 0-53-21t-20-56q0-50 42-74t133-23v-19q0-41-14-59t-48-18q-18 0-40 6t-41 18l-13-30q23-11 50-18t48-6q50 0 74 25t24 77v137q0 27 21 27 11 0 20-3l5 30q-20 7-38 7-48 0-48-57v-9q-16 32-43 49t-59 17m13-31q27 0 47-15t31-41 11-62q-70 1-104 18t-34 52q0 22 13 35t36 13m515 31q-69 0-107-50t-38-140 38-140 107-49q70 0 108 49t39 140-39 140-108 50m0-31q51 0 79-42t28-117-28-117-79-42q-50 0-78 42t-28 117q0 76 28 117t78 42m475 31q-48 0-48-57v-154q0-32-11-45t-39-14q-48 0-92 37v196l35 4v26h-110v-26l35-4v-226l-35-4v-26h53q16 0 16 15v19q24-19 52-30t54-11q42 0 62 21t20 68v150q0 27 21 27 9 0 21-3l5 30q-19 7-39 7m216 0q-38 0-66-19t-45-51-15-76q0-73 32-114t90-40q35 0 60 16t40 46 14 72v24h-197q0 52 24 81t65 30q37 0 81-22l13 29q-25 11-49 17t-47 7m-86-170h156q0-46-20-73t-54-27q-36 0-57 26t-25 74" />
</svg>