<svg id="fnt-Federant" viewBox="0 0 2001 1000" xmlns="http://www.w3.org/2000/svg"><path id="federant" class="f" d="M209 469q3-8 3-12 0-8-3-14-58 0-106 5v-96q0-8-1-10 48-6 112-6 31 0 42 2 2-8 2-12 0-7-3-13-27-3-68-3-93 0-168 23-2 4-2 12t3 13l17-1q6 0 6 27v338q0 19-8 26t-25 9q-2 4-2 11 0 7 2 13 31 0 52-4 22-5 31-17t10-36v-249q59-6 106-6m254 164q-16 4-50 10t-54 5q-23 0-30-6t-7-25v-57q45-3 101-11 23-5 33-17t11-33v-35q0-22-6-33t-20-17-39-4q-72 0-104 12-33 12-33 43v172q0 19 12 28t39 8q80 0 147-17 2-4 2-10 0-8-2-13m-141-166q-1-20 11-28t48-8q16 0 22 7t7 29v31q0 16-7 22t-27 10q-21 4-54 7v-70m454 197q2-5 2-9 0-6-2-9h-35q-5 0-5-27v-287q0-11-2-15t-7-6-21-1q-35 0-68 10-1 4-1 8 0 6 2 10l34-1q6 0 6 27v46q-65 2-112 11-44 8-44 47v167q0 21 11 29t39 9q5 0 17-1 20-2 35-6 18-4 35-9l19-5q-1 10 1 14t8 6 21 1q34 0 67-9m-97-35q-50 14-71 14-28 0-28-20v-154q0-14 6-20t27-10q20-4 66-6v196m332 4q-15 4-50 10t-54 5q-22 0-30-6t-7-25v-57q46-3 101-11 23-5 34-17t10-33v-35q0-22-6-33t-20-17-39-4q-72 0-104 12-33 12-33 43v172q0 19 12 28t40 8q80 0 147-17 2-4 2-10 0-8-3-13m-141-166q-1-20 12-28t47-8q17 0 23 7t6 29v31q0 16-6 22t-27 10q-21 4-55 7v-70m210-31q5 0 5 28v188q0 10 1 14t8 6 21 1q35 0 68-9 1-5 1-9 0-6-2-9l-34 1q-6 0-6-28v-165q29-12 45-12 19 0 19 18v42q0 8 9 8 21 0 40-5 8-3 8-10v-47q0-21-11-30t-39-8q-21 0-71 21 1-10-1-15t-8-5-21-1q-34 0-67 9-2 5-2 9 0 6 2 9l35-1m464 228q1-5 1-9 0-6-2-9l-34 1q-6 0-6-28v-173q0-19-12-28t-39-8q-84 0-147 20-2 3-2 10t2 12q12-3 48-10 42-7 56-7 23 0 30 6t7 25v39q-50 2-105 11-23 5-34 16t-10 33v70q0 21 11 30t39 8q42 0 99-16 0 7 2 10t8 5 20 1q36 0 68-9m-98-30q-37 11-61 11-31 0-31-22v-56q0-17 6-22 9-8 34-12 25-5 52-6v107m205-180q48-14 71-14 28 0 28 20v192q-1 10 1 14t8 6 21 1q34 0 67-9 2-5 2-9 0-6-2-9l-35 1q-5 0-5-28v-171q0-21-12-30t-39-8q-5 0-17 1-20 2-34 6-11 2-11 2-7 2-25 7l-18 5q0-10-2-15t-7-5-21-1q-35 0-68 9-1 5-1 9 0 6 2 9l34-1q6 0 6 28v201q0 8 8 8 22 0 41-5 8-3 8-10v-204m348 210q1-5 1-9 0-6-2-9l-34 1q-6 0-6-28v-183l40-3q2-4 2-10 0-4-2-13l-40 3v-79q0-8-8-8-22 0-41 5-8 3-8 10v76l-37 2q-2 4-2 10 0 4 3 13l36-3v213q0 10 1 14t8 6 21 1q35 0 68-9" />
</svg>