<svg id="fnt-Federo" viewBox="0 0 1437 1000" xmlns="http://www.w3.org/2000/svg"><path id="federo" class="f" d="M46 304h222v24h-169v110h164v24h-164v205h-53v-363m340 128q25 0 43 9t28 25 15 36 5 43v12h-150q0 13 4 29t14 29 26 23 39 9h50v20h-51q-34 0-59-8t-41-23-23-36-8-49q0-23 7-45t21-38 34-26 46-10m-2 22q-15 0-26 7t-18 18-10 27-3 31h103v-11q-1-14-3-27t-7-23-14-16-22-6m354 213h-81q-29 0-51-5t-38-13-28-20-17-25-9-29-3-32q0-24 7-44t22-35 38-24 53-8q12 0 28 4t29 13v-145h50v363m-177-124q0 8 1 19t4 22 10 23 17 20 27 14 37 6h31v-180q-11-7-24-11t-28-3q-18 0-32 7t-24 20-14 29-5 34m336-111q25 0 43 9t28 25 15 36 5 43v12h-150q0 13 4 29t14 29 26 23 39 9h50v20h-51q-34 0-59-8t-41-23-23-36-8-49q0-23 7-45t21-38 34-26 46-10m-2 22q-15 0-26 7t-18 18-10 27-3 31h103v-11q-1-14-3-27t-7-23-14-16-22-6m191-17v18q10-7 17-11t13-7 11-4 10-1q19 0 29 13t11 38l-43 12q-3-17-7-25t-13-7q-5 0-12 2t-16 8v194h-50v-230h50m229-5q25 0 47 9t38 26 26 38 9 47q0 25-9 46t-26 38-38 26-47 10q-25 0-46-10t-38-26-26-38-9-46q0-25 9-47t26-38 38-26 46-9m-1 22q-19 0-32 8t-21 20-11 31-4 40q0 21 4 38t11 31 22 21 31 7 32-7 22-21 12-31 4-38q0-22-4-40t-12-31-22-20-32-8" />
</svg>