<svg id="fnt-Festive" viewBox="0 0 1155 1000" xmlns="http://www.w3.org/2000/svg"><path id="festive" class="f" d="M189 683l-19-8q0 0-1 0t-1-1l-10-4q0-7 0-15t1-15q-4-15-11-33t-13-35-14-30q-14-4-21-10t-6-11q0-3 2-6t7-2q4 0 11 8t10 15q20 5 50 4 10-46 23-89t25-82l-13-2q-33-6-62-10t-53-3q-20 0-40 3t-34 10-13 22q0 14 14 27t40 21 61 11q19 1 34-3t16-16q0-11-11-20t-28-15-33-5q-13 0-22 3t-8 13q0 3 2 6l6 5q3-1 3 2 0 2-3 2-15-8-15-17 0-11 13-15t27-3q20 0 39 6t32 19 13 26q0 16-13 26t-30 13-36 4q-28 0-55-9t-44-26-17-40q0-12 5-24 11-25 30-35t47-10q28 0 62 7t75 14q2 1 6 1t8 2l5-16 13 19q19 2 42 4t43 3q13 0 23-2t17-3q5-3 6-4t1-3q1-7 4-7 3 0 4 6 2 13-16 18t-43 5q-18 0-37-2t-36-4l6 8q-12 28-25 69t-24 88q18-2 36-6t34-7q2-1 4-1t3 0q7 0 7 3 0 3-8 5-22 7-42 11t-37 5q-7 34-12 69t-4 66m-73-150q-3-6-7-9t-5-6q-5 2-1 6t13 9m44 90q2-19 5-37t7-37q-12-1-23-2t-20-3q9 16 17 37t14 42m199 51q-17 0-28-12t-18-30-6-42q0-18 3-38t8-38 15-28q13-15 41-15 23 0 32 10t9 26q0 7-2 16t-5 17q-4 13-10 25t-16 20-26 10q-2 0-8-2t-12-5q1 13 4 27t9 23 19 9q12 0 23-11t21-24 16-23q8-12 17-25t16-21q2-3 3-3 3 0 0 4-16 21-33 50-16 27-27 44t-21 27-24 9m-4-85q6 0 11-7t10-17 6-19 3-14q1-7 2-16t1-18q0-8-2-14t-9-6q-5 0-13 7t-12 17q-8 14-12 34t-4 40q4 5 8 9t11 4m125 89q-12 0-21-5t-13-15q-11 3-23 3-1 0-1-2t2-2q5 1 10 0t11-3q-1-2-1-4t0-4q0-9 3-18 6-21 21-42t32-34q7-6 15-9t16-3q9 0 15 5t7 15q0 6-4 14t-10 19q-7 10-20 22t-30 24-36 17q3 16 19 16 14 0 32-12 13-9 26-24t24-32 17-34 6-31q0-9-4-15t-16-5q-2 0-5 0t-4 1q-14 2-29 7t-25 10-18 11q0 3-4 3-5 0-10-3t-6-6q3-19 18-38t42-32 58-18q1-1 3-1t3 0q7 0 15 3t8 11q0 8-7 17t-15 12q0 0-2 0-1 0-1-1t2-3q2-1 5-3t6-4q1-2 1-4 0-3-5-3-15 1-36 8t-40 21-32 36q9-6 24-13t31-12 31-4q22 0 29 10t8 25q0 23-13 46t-32 43-41 31q-17 9-36 9m-27-26q17-6 33-17t29-23 20-21q7-10 10-19t3-14q0-14-15-14-6 0-13 3t-16 9q-16 13-29 35t-19 40q-4 12-3 21m209 31q-1 2-9-3t-16-11-8-9q-5-15-7-36t-1-45q0-26 1-53t5-52 7-43q-24 0-45-1t-36-1-19-1q-2-1 1-7t8-11 10-4q13 3 35 6t49 6q9-37 24-69t34-47q8-7 19-7 9 0 17 5t11 15q3 1 3 6 0 8-5 23t-8 25q-4 11-10 25t-13 29q16 0 32-2t33-5q1 0 1-1t1 0q4 0 4 3 0 2-4 4-7 4-20 4t-24 1l-26 2q-12 23-27 47t-30 46q-1 12-1 26t-1 29q0 29 3 53t7 30q7-12 20-33t29-45 33-42q2-3 4-2t-1 3q-5 7-11 16t-11 18q-20 33-36 62t-22 46m36-261q8-17 14-33t12-30q5-16 5-27 0-12-6-12-3 0-5 2-20 18-33 44t-20 55q6 0 12 0t12 1q2 0 4 0t5 0m-49 87q12-18 23-38t22-42q-8 0-16 0t-16 1q-6 21-9 41t-4 38m128-17q-9 0-14-6t-5-16 4-13 13-4q5 0 10-1t10 0q10 0 10 7 0 6-5 14t-10 13-13 6m-15 191q-1 2-9-3t-16-11-8-9q-5-15-5-39 0-21 4-44t11-41 17-28q2-2 7-1t10 6 9 7 2 5q-10 11-18 29t-12 39-4 37q0 9 2 17t5 13q7-12 20-33t29-45 33-42q2-3 4-2t-1 3q-5 7-11 16t-11 18q-20 33-36 62t-22 46m111-12q0-4 0-10t1-13q0-14-2-33t-4-36-9-31-15-18q-1-1-2-1t-2 0q-5 0-10 7-3 4-5 4-2 0-2-4 0-4 4-8 8-5 22-5 18 0 28 12t15 31 6 39 2 37l2-7q4-15 7-28t7-24q3-10 8-24t11-28 16-23 22-9q5 0 10 1t10 4q3 1 2 2t-3 0q-3-2-6-2-10 0-21 13t-22 34-21 42-16 39-7 25v3h0q-1 2-8 6t-13 5-5 0m175 3q-17 0-29-12t-17-30-6-42q0-18 2-38t8-38 16-28q12-15 40-15 24 0 32 10t9 26q0 7-2 16t-4 17q-4 13-11 25t-16 20-25 10q-2 0-9-2t-11-5q1 13 3 27t9 23 19 9q12 0 24-11t21-24 15-23q9-12 17-25t16-21q3-3 4-3 3 0-1 4-15 21-32 50-17 27-28 44t-21 27-23 9m-4-85q6 0 11-7t9-17 7-19 3-14q0-7 1-16t2-18q0-8-3-14t-8-6q-6 0-13 7t-13 17q-7 14-11 34t-4 40q3 5 7 9t12 4" />
</svg>