<svg id="fnt-Figtree" viewBox="0 0 1571 1000" xmlns="http://www.w3.org/2000/svg"><path id="figtree" class="f" d="M89 667h-42v-350h208v38h-166v120h146v38h-146v154m260 0h-40v-250h40v250m-19-308q-10 0-18-8t-7-17q0-11 7-18t18-7q10 0 17 7t8 18q0 10-8 17t-17 8m193 414q-24 0-44-5t-34-11-19-9l15-33q6 4 18 9t28 9 35 4q24 0 43-10t30-31 11-53v-226h40v226q0 43-16 72t-44 43-63 15m-2-108q-33 0-59-16t-40-45-14-66q0-38 14-67t40-44 59-16q32 0 55 16t37 44 13 67q0 38-13 66t-37 45-55 16m10-35q22 0 39-12t26-33 10-48q0-26-10-47t-27-33-39-11q-23 0-42 11t-28 33-10 47q0 28 10 48t29 33 42 12m279 43q-36 0-56-19t-20-54v-261h40v257q0 19 10 29t29 11q6 0 11-2t16-9l15 33q-13 8-23 11t-22 4m39-221h-159v-35h159v35m96 77l-18 2q0-40 16-66t39-37 52-12v37q-22 0-43 7t-33 24-13 45m0 138h-40v-250h40v250m239 6q-37 0-65-17t-44-46-15-68 15-68 44-47 64-16q35 0 60 17t40 48 14 73h-207l10-8q0 30 11 51t30 33 45 11q26 0 44-12t29-33l34 17q-9 20-25 34t-37 23-47 8m-81-149l-11-8h173l-11 8q0-24-9-41t-26-27-37-10q-20 0-39 10t-29 26-11 42m354 149q-37 0-65-17t-44-46-15-68 15-68 44-47 64-16q35 0 60 17t40 48 14 73h-207l10-8q0 30 11 51t30 33 45 11q26 0 44-12t29-33l34 17q-9 20-25 34t-37 23-47 8m-81-149l-11-8h173l-11 8q0-24-9-41t-26-27-37-10q-20 0-39 10t-29 26-11 42" />
</svg>