<svg id="fnt-Finger Paint" viewBox="0 0 3104 1000" xmlns="http://www.w3.org/2000/svg"><path id="finger-paint" class="f" d="M61 290q11 0 22-2t23-1q13 0 25 1t25 2q-15-2-29-3t-29-1q-9 0-18 0t-18 1q4-6 12-9t14-2h3l12 0 2 5q4-1 8-1h8q12 0 24 2t25 2h6q3 0 6-1l1-3q20 1 40 1 7 0 13 3t13 3v12q0 3-1 5t-4 2l-3 0v4q5 4 9 9t3 12q0 4-2 7t-6 4-7 1-8 1q-31 0-65-4t-66-8l-10 2q1 2 1 9t2 18 2 22 3 21 1 16 1 8h20v5q9-3 15-3 8 0 16 2t16 1q4 0 8 0t8-2v-3q-8 0-15 0t-15 1q-5 0-10-1t-9 0q21 0 41-2t41-1q9 0 16 4t7 14q0 3-1 5t-4 2l-3-1v5q5 4 8 9t3 12q0 5-5 8t-11 5-16 2-16 1q-22 0-41-4t-38-4q-3 0-8 1 2 17 2 34 0 23-2 46t-1 46q0 4 0 9t1 11q0 7-2 13t-8 5v-133q-2 15-2 30t0 29v52q0 11-1 22l-8-1v9q-2 3-5 6t-7 3q-5 0-8-3t-5-5-2-8-1-8q0-21 2-43t2-44q0-14-1-27t-4-27q1 21 1 41t1 41q0 17-1 34t-4 34q-6-8-6-17 0-12 0-24t1-23h7q-3-17-4-33l-1-34q0-17-1-34t-5-33l-3 2q7 59 7 119-1-48-7-95-5-50-9-101-1-2-2-6t0-6q0-9 1-18t1-19l12-1q6 0 6 6t1 9h7q1-6 4-14t11-10l0-2-5 2q-5-3-7-8t-2-10q0-2 1-5t1-5m40 147v2q8 0 16 1t17 1h5l20-1q-15-2-29-1t-29-2m48-159q-17-2-33-3 26 1 52 4 7 0 13 1-17 0-32-2m-64 45l1 2q3-1 11-2t11-1h-12q-8 0-11 1m37 151h-2q6 1 11 1 4 1 8 2-4-1-7-2-5-1-10-1m61-194v0h-2q1 0 2 0m-41 197q-1 0-3 0 2 0 3 0m154 164q2-14 4-33t3-38 3-37 3-32q-2 14-4 31t-4 36-4 37-4 33q-7-5-7-14 0-10 0-17t2-15l5-5q0-3 0-5v-5q0-11 2-26t6-30 6-30 2-24l-6-2q-1 12-3 27t-4 32-4 32q-1 9-2 16 1-14 2-30 3-23 5-46t6-44 5-41q0-7 3-16t6-18q3 1 5 1h3q5 0 7 2t1 6v3l5 1q4-7 9-12t11-4q12 0 12 25 0 14-3 29t-2 30v6q0 16-4 35t-8 38-7 37-4 33q0 4 1 8t0 7q0 8-3 9t-6 2q0-6-1-16t0-17q-1 6-1 15t-1 18h-8v6q-4 8-12 8-3 0-8-2t-7-4m103-384q-8 5-15 13t-15 15q5-3 8-6t7-7 8-7 10-7q2 2 3 4t1 3l-11 11q0-1-2-2t-3-1q-1 5-5 8t-7 6-7 5-5 8v1q0 1 2 1l25-24-10 10q-7 7-15 14t-14 13-8 5l-1 0q-3-1-7-1t-8-1q0-4-1-8t-1-7 2-3q0-1-2-5t-3-7-4-9-2-10 4-10 10-8 12-6 8-3q2 0 1-3t2-2l9 3q-1 3-7 8t-7 9q3-3 8-8t7-7q3 1 5 2t3 1l1-2q4 0 8 2t8 3 6 5 2 4m-110 327q0-5 1-11-1 6-1 11m162 51q0-3 2-6t1-8q2-12 2-17t1-9q0-21-2-46t-2-46q0-7-1-17t-1-15q2-17 3-34t1-35v-12q0-7-1-13 2 1 3 1 2 0 4-1t5-2q3 0 5 8t3 33h4q3-28 8-45t11-16q2 0 8 10t5 34l6-9q5-6 12-13t15-13 19-9 24-4q26 0 45 12t33 30 21 43 13 48 6 47 1 38q0 15-2 17t-6 4q-1-39-5-79t-19-77q14 39 17 77t4 77q-3-1-5-1-2 0-4 1 0 4 1 9 0 4 0 8t1 7q-3 12-6 17t-6 5q-3 0-5-3t-4-7-3-9-5-9q1-8 2-14t0-8q0-14 0-33t-3-40-7-41-13-37-21-27-30-10q-12 0-21 8t-16 21-12 27-8 28q5-14 9-28t12-27 16-20 21-7q15 0 26 8t19 22 13 31 7 35 3 34 1 29q0 10 0 19t-1 20q-4-19-7-40t-4-41-7-39-10-35l3-5q-5-11-11-18t-12-9-11-3-7-1q-12 0-22 9t-17 24-13 36-9 42-7 44-5 42h4q3-17 5-38t6-42 8-41 11-36 15-26q8-9 19-11-11 3-18 14-8 12-14 30t-11 38-9 40l-10 73q-2 7-3 12l-2 11q-1 5-2 10t-2 14l-2 6h-3l-50-17q-3-1-4-2t-3-2m87-257q-10 9-16 18t-10 20v1q7-15 19-30 12-14 32-21-6 2-12 4-7 3-13 8m60-16q-2-1-7-1 16 4 30 9t27 19q-9-12-23-18t-27-9m19 61l-5-4q-4-3-10-5t-12-5l-1-1q9 1 15 4t13 11m32-33q7 8 13 19t10 20q-5-12-9-21t-14-18m289 97l14 4v-1l-13-4 9-15 58 18q0 17 2 34t4 35 4 37 2 38q0 25-5 51t-15 50-27 43-41 33q-14 9-35 17t-42 9h-6q-20 0-33-5t-22-9-11-10-3-6q0-2 2-2 15 12 33 17t36 5q31 0 57-12 25-12 45-30-20 17-46 29-26 11-55 11-18 0-35-5t-31-16q2 0 4-1t2-3l-4-3q-4-4-9-9t-8-13-4-16 7-9q5 0 11 7t16 14 21 14 31 7q25 0 45-10t35-27q-15 16-34 25t-44 9q-15 0-28-5t-21-13q8 2 21 5t28 3q27 0 47-14t36-34l7 1q12-20 16-43t5-48q0-17-1-34t-4-36l-3 4q3 17 4 34t1 33q0 20-4 39t-12 37q8-18 12-38t3-42q-2-13-2-26t-1-26l-1-10q-4 5-11 14t-16 18-22 15-24 7l-13 1q-26 0-47-13t-36-35-23-45-8-48q-1-2-1-4v-4q0-31 11-53t30-36 46-21 56-7q35 0 71 10-3 1-3 3 0 2 0 4t1 4v1q-1 2-7 2t-16-1-29-4v6q17 2 29 6t19 9 11 10 3 7q0 2-2 3t-5 1q-5 0-20-2t-35-2q-21 0-39 2t-31 10-21 19-7 33q0 16 5 31t13 27 17 18 19 7q6 0 14-9t19-21 19-26 15-25m-4 104q-5 5-11 11t-13 10-16 9-20 5l4 1q15-2 27-9t22-15 18-19 13-16l-1-6q-5 6-11 14t-12 15m37 49q0 22-5 43-4 20-12 37 8-18 13-39 6-22 6-45 0-12-1-24t-2-24l-2-29-3 3q2 19 4 39t2 39m37 13v-16q0-27-3-52t-5-49q2 23 5 45t2 47q0 17-2 35t-6 36-12 35q-8 16-19 30 20-23 28-52 9-30 12-59m242 23q-19 6-29 7t-18 1q-28 0-50-10t-39-29-25-42-8-52q0-16 3-33t9-34 15-31q9-15 22-26-13 10-22 25-10 14-16 31t-10 34-3 35q0 21 7 44t22 44 38 34 58 14q16 0 34-5-19 13-43 13-19 0-36-6t-31-16-25-24-20-30l5-4q-9-17-13-34t-3-35q0-25 7-49t19-44l12-17q3-5 9-11t13-11 14-9 15-8q18-9 36-16t42-11l-2-1q-46 4-78 22t-52 43-29 56-9 59q0 16 3 31t8 32q-12-30-12-64 0-33 11-65t34-60q30-28 66-43t68-14q11 0 22 3t20 11 14 19 6 28q0 13-6 33t-20 37-31 31-44 13h-17q-18-4-34-9t-28-8q-2 8-3 15t0 14q0 15 3 28t11 26 17 19 27 10q9 2 16 2t12 0 7 2 2 5q-5 1-10 2t-11 0q-17 0-31-6t-24-13q11 12 27 16t32 5q8 0 17-1-1 3-1 3 0 3 3 4 2 0 7-3t10-4 10-4 7-2q3 0 5 1t2 6-4 12-10 14m-69-198l11 2q5 1 10 1 5 0 11-4t14-9 12-15 8-20l1-3q-7 0-21 3t-29 9-28 14-18 17q7 1 14 2t15 3m-48 29l25 8q1-1 1-3t0-3l-23-9-3 7m11 121q-4-4-7-8-3-3-5-7 4 9 12 15m309 39l-12 5q-5 1-11 1h-15q-13 0-18 3t-6 3l-2-9v-9l-3-47q-1-13-5-29t-7-31q-2-11-3-20l-2-20q-1-10-2-20t-4-23q0-3 0-6t1-6q0-15-3-30t-7-30q4-1 7-3t5-1 6 6 6 24q1 0 3-1t3-1q0-8-2-18t-4-19-4-16-2-12q0-1 0-2t3-2q2 0 6 6t9 14 8 18 8 18q14-25 31-39t45-13q21 0 34 5t20 10 10 11l3 5q0 3-3 4-13-12-30-19t-34-6q-17 0-25 4-8 4-17 10 9-6 17-9 9-4 25-4 17 0 33 7t28 17q-3 1-5 2t-1 4q2 0 5 3t6 8 4 9 2 8q0 9-7 9-5 0-12-4-1 0-6-5t-12-11-16-9-20-5q-9 0-16 4t-12 10-10 14l-6 12q7-13 16-24 10-13 25-13 13 0 24 5t18 15q-8-4-20-7t-22-4q-5 0-9 3t-7 6-5 8-5 9l-6 1q-9 14-14 33t-5 41q0 12 1 22t4 21l6 15-1-14q-1-17-2-31t-1-29q1-14 4-27 2-11 7-21-6 12-8 28-2 17-2 36 0 15 1 28t4 27 5 28 4 31l1 10 3 28m-8-216l2-2-2 2m399 115v11q0 8 0 16t2 16q-2 24-4 49t-1 49l-11 0q-2 0-4-3t-2-8-1-10 0-10v-10h-5q0 3-1 13t-4 21-6 19-8 9q-3 0-6-7t-4-15-2-16-1-10q-5-44-5-89t-4-88q-1-15-4-29t-7-29-5-29-2-30q0-23 11-36t29-19 37-8 37-1q35 0 68 5t59 19 42 41 16 68q0 36-11 62t-30 44-48 26-61 9q-2 0-7 0t-10-1-10-3-4-4l1-4q9 1 17 1t17 0q15 0 30-1t29-6 26-13q11-7 20-19-10 12-21 19-13 8-27 12t-30 5-30 2q-7 0-15-1t-14 0l-1-10q-4 1-7 1t-5 0q-6 0-11-2t-12-6m45-187q-17 0-36 1t-35 7l-2 4q19-6 35-7t30-1h2q22 0 43 1t37 9 27 22 10 44q0 8-1 16t-4 15q2-7 3-15t1-14q0-19-6-35t-21-28l-4-2q-7-3-19-5t-23-4-26-1-23 0h-14q-9 0-21 1t-20 4q0 13 2 25t5 24l5 24q3 12 4 24l5 63q3-3 7-5t12-1h2q11 3 23 4t23 0q24 0 43-4t32-16 19-28 7-44q0-11-4-25t-11-26-19-20q-11-8-25-8 14 1 25 9t18 19 11 25 4 27q0 45-22 67t-67 21q-11 0-22-1l-22-2q16-4 33-5t33-3 29-12 21-27l4 1q6-16 6-34 0-28-9-44t-25-26-36-12-44-2m159 75q0-20-6-38t-17-33q11 16 16 35t5 38q0 32-12 61 6-14 10-30 4-16 4-33m-84-113q7 3 13 4t14 5q-12-6-27-9m47 24q-2-4-9-8-6-4-10-6 5 4 9 6 5 3 10 8m257 171q-13 0-20-1t-12 0q-15 0-27 1t-19 6-12 13-4 23q0 20 4 30t14 14 21 5 28 5q9 1 18 1t18 0h36q-25-1-50-2t-44-4-32-14-12-30q0-17 4-26t11-13 18-5 21 0q14 0 29 1-12 4-24 5t-21 4-18 4-9 8v23l-4 2q2 12 3 18t10 10 26 5 52 7h36q9 0 11-1t2-1l-4-27q-1-10-3-18t-4-17q0 2-3 2 3 8 4 18t3 18 2 14 2 7l-3 1q-1 1-3 1h-3q-3 0-8-1t-11-1h-17q-19 0-36-2-15-2-27-5 12 3 28 4 18 2 33 2 6 0 13 0t16 0h17q-2-2-4-2h-1q-2-34-9-66t-22-55-41-38-62-14q-11 0-21 1t-22 4q1-1 1-2 0-2-2-5t-2-4q0-3 6-6t27-5q-1-1-1-3t0-3q-27 0-42-2t-15-7q0-2 6-7t18-9 27-7 37-3q38 0 66 11t46 31 30 44 19 49 11 48 7 41q0 3 0 6t0 7q0 14-5 25t-15 18-21 11-26 4q-11 0-29-1t-33-3q-11-2-23-4t-26-4-25-8-22-17-16-29-5-46q0-26 12-42t28-24 35-12 28-2q14 0 19 2t4 4q0 1 0 2-13 0-32 1t-38 7-31 16-13 32q4-18 15-29t25-16 28-7 27-1h17q-2 2-2 4t2 4h20q8 1 11 5t4 7q0 4-5 8t-15 7m-84 121q14 5 29 8t29 4q15 2 27 2-10-1-20-4-10-2-18-4-9-2-17-3t-17-2-18-5-18-10q10 9 23 14m3-54l2 1q0 0 3 3 3 3 8 5-2-1-7-3-6-2-6-6m15 9q-1 0-2 0 1 0 2 0m244 29q2-14 3-33t4-38 3-37 3-32q-3 14-5 31t-4 36-4 37-3 33q-8-5-8-14 0-10 1-17t1-15l6-5q-1-3-1-5v-5q0-11 3-26t5-30 6-30 3-24l-6-2q-1 12-3 27t-5 32-4 32q-1 9-2 16 1-14 3-30 2-23 5-46t5-44 5-41q0-7 4-16t5-18q3 1 5 1h4q5 0 6 2t2 6v3l4 1q4-7 10-12t11-4q12 0 12 25 0 14-3 29t-3 30v6q0 16-3 35t-8 38-8 37-3 33q0 4 0 8t1 7q0 8-3 9t-7 2q0-6 0-16t-1-17q-1 6-1 15t-1 18h-7v6q-5 8-12 8-4 0-8-2t-7-4m103-384q-9 5-16 13t-14 15q4-3 8-6t7-7 8-7 10-7q1 2 2 4t2 3l-12 11q0-1-2-2t-2-1q-2 5-5 8t-7 6-7 5-5 8v1q0 1 1 1l25-24-9 10q-7 7-15 14t-15 13-8 5l0 0q-4-1-8-1t-7-1q0-4-2-8t-1-7 3-3q0-1-2-5t-4-7-4-9-1-10 4-10 10-8 11-6 8-3q2 0 2-3t1-2l9 3q-1 3-6 8t-8 9q4-3 8-8t8-7q2 1 4 2t3 1l2-2q3 0 7 2t8 3 6 5 3 4m-111 327q1-5 1-11 0 6-1 11m163 51q0-3 1-6t2-8q1-12 2-17t0-9q0-21-1-46t-3-46q0-7 0-17t-1-15q1-17 2-34t1-35v-12q0-7 0-13 1 1 3 1 2 0 4-1t4-2q4 0 6 8t2 33h5q2-28 7-45t11-16q3 0 8 10t6 34l5-9q6-6 12-13t16-13 19-9 24-4q26 0 45 12t32 30 21 43 13 48 6 47 2 38q0 15-2 17t-6 4q-1-39-5-79t-19-77q13 39 17 77t4 77q-3-1-6-1-2 0-3 1 0 4 0 9 1 4 1 8t0 7q-3 12-6 17t-5 5q-3 0-5-3t-4-7-4-9-4-9q1-8 1-14t1-8q0-14-1-33t-3-40-7-41-13-37-20-27-30-10q-12 0-22 8t-16 21-11 27-8 28q4-14 9-28t11-27 16-20 21-7q16 0 27 8t19 22 12 31 8 35 3 34 1 29q0 10-1 19t0 20q-5-19-7-40t-5-41-6-39-11-35l4-5q-5-11-12-18t-12-9-11-3-6-1q-13 0-23 9t-17 24-12 36-10 42-7 44-5 42h5q2-17 5-38t6-42 8-41 10-36 15-26q8-9 20-11-11 3-19 14-8 12-14 30t-11 38-8 40l-10 73q-2 7-3 12l-2 11q-1 5-2 10t-3 14l-1 6h-3l-51-17q-2-1-4-2t-2-2m87-257q-10 9-16 18t-11 20v1q7-15 20-30 12-14 32-21-7 2-13 4-7 3-12 8m60-16q-3-1-7-1 16 4 30 9t26 19q-8-12-22-18t-27-9m18 61l-5-4q-4-3-9-5t-13-5l0-1q8 1 15 4t12 11m32-33q7 8 13 19t11 20q-5-12-10-21t-14-18m293 27q-5 0-13 1t-15 4-14 4-8 3q13-2 24-5t24-3q-2 5-6 7t-9 4-10 2-12 2l-3-4q-10 3-15 4t-10 1q-6 0-13-1t-13 0q0 3-1 4 12 0 20 0t19-2q-11 2-19 3t-20 1q-2 12-3 23t-2 21q0 6 1 14t1 16 1 16 1 11v30q2 10 14 15t35 5h16q8 0 11 1t4 5q0 3-4 3t-8 0q-15 0-31-2-15-2-29-4 14 3 30 6 17 3 32 3h5q2 0 4-1 0 3 0 5t2 4l4-1q1 0 3-1t3-1q16 2 16 11 0 6-3 9t-7 6-10 2-11 1q-17 0-34-2t-33-5q14 5 36 8t43 3q-5 4-13 6t-15 2l-36-5q-7-1-11-2t-7-2-8-3-12-3v-6q-13-3-21-12t-12-18-6-21-2-18q0-8 0-16t1-14q0-6-1-14t0-18-1-20 0-19q0-5 0-10t1-9h-5q-1 3-1 8v9q0 14 1 28t0 27 1 20 1 13v20 4q-2-13-3-38-2-29-2-64v-9q0-6 0-11t2-7l-17-1q-6-4-11-6t-10-2v-10q0-3 0-5t5-2q1 0 5 1v-6q-5-3-9-9t-3-10q0-13 18-13 7 0 15 1t15 1q2-11 4-20t3-17 3-16 5-17q5-10 7-22t4-23l10 0q3 0 4 2t2 7q0 4-1 12l6 1q4-13 9-22t12-8q8 0 10 21v9q0 13-2 24t-4 23-5 22-4 25q11 2 21 2 5 0 10-1t10 0 11-4 10-4q4 0 6 3t2 5q-9 3-18 5t-17 6q8-1 17-4t19-5q0 2 0 4t2 5q1 0 2-1 3-1 4-1 5 3 6 6t2 9q0 3-1 6t-1 5m-133 184q-7-13-7-26t-2-25l-4-76-2 9q0 34 2 61t7 42q0 5 0 6t0 3 1 2 5 4m29-27q-1-4-1-8v-25q-1 5-1 10t-1 10q0 13 2 20 1 6 6 10-3-3-4-7 0-4-1-10m-49-4l0 4 0-4m55 21q-1 0-1 0 0 0 1 0" />
</svg>