<svg id="fnt-Fira Sans Extra Condensed" viewBox="0 0 4937 1000" xmlns="http://www.w3.org/2000/svg"><path id="fira-sans-extra-condensed" class="f" d="M84 667h-46v-345h155l-5 37h-104v119h90v36h-90v153m154-264h44v264h-44v-264m21-125q14 0 22 9t8 22q0 12-9 21t-21 8-21-8-8-21q0-13 8-22t21-9m197 120q11 0 20 3l-8 42q-10-2-18-2-19 0-32 17t-19 54v155h-44v-264h38l3 49q19-54 60-54m212 213q0 14 4 20t13 11l-9 31q-19-3-30-12t-15-26q-21 38-63 38-32 0-52-22t-19-58q0-42 26-64t76-22h26v-24q0-26-11-38t-31-12q-26 0-60 13l-11-31q41-17 76-17 41 0 60 21t20 62v130m-91 29q31 0 48-42v-62h-21q-32 0-47 14t-14 41q0 24 9 36t25 13m347-323q28 0 49 9t39 30l-24 26q-15-15-30-22t-33-6q-22 0-35 13t-13 37q0 22 12 36t49 27q41 16 62 39t21 65q0 28-13 51t-36 37-55 14-55-12-43-33l24-26q18 16 35 25t38 8q26 0 42-17t15-46q0-25-12-40t-47-27q-43-17-64-40t-20-59q0-25 12-45t34-33 48-11m301 294q0 14 4 20t13 11l-10 31q-18-3-29-12t-15-26q-22 38-63 38-33 0-52-22t-19-58q0-42 26-64t75-22h26v-24q0-26-10-38t-32-12q-25 0-59 13l-11-31q40-17 76-17 40 0 60 21t20 62v130m-91 29q31 0 47-42v-62h-21q-31 0-46 14t-15 41q0 24 9 36t26 13m272-242q28 0 45 20t17 55v194h-44v-188q0-25-7-36t-22-11q-28 0-53 49v186h-44v-264h38l4 40q13-22 28-34t38-11m197 0q44 0 75 29l-19 26q-14-11-27-16t-28-5q-17 0-28 9t-10 27q0 17 10 26t38 20q36 13 53 31t17 49q0 37-25 58t-63 21q-50 0-83-35l23-24q28 24 59 24 20 0 32-11t12-31q0-13-4-22t-16-15-32-15q-35-13-50-31t-15-43q0-20 10-37t29-26 42-9m240-76h158l-5 37h-107v114h93v37h-93v120h114v37h-160v-345m373 81l-65 123 74 141h-47l-54-114-53 114h-46l75-139-67-125h47l45 99 46-99h45m148 224l17 28q-23 18-51 18-29 0-46-18t-16-47v-170h-35v-35h35v-59l44-6v65h51l-4 35h-47v171q0 27 24 27 8 0 14-2t14-7m154-229q11 0 20 3l-7 42q-10-2-18-2-20 0-32 17t-20 54v155h-44v-264h38l4 49q18-54 59-54m213 213q0 14 4 20t13 11l-10 31q-18-3-29-12t-15-26q-22 38-63 38-33 0-52-22t-19-58q0-42 26-64t75-22h26v-24q0-26-10-38t-32-12q-25 0-59 13l-11-31q40-17 76-17 40 0 60 21t20 62v130m-91 29q31 0 47-42v-62h-21q-31 0-46 14t-15 41q0 24 9 36t26 13m377-323q24 0 43 8t37 25l-24 28q-14-13-27-19t-28-5q-74 0-74 140 0 140 75 140 17 0 30-7t26-19l25 27q-15 16-36 27t-46 11q-55 0-89-45t-33-134q0-59 16-99t43-59 62-19m211 81q47 0 73 34t26 103q0 63-27 100t-72 38-73-37-26-101q0-66 26-102t73-35m0 35q-26 0-39 24t-13 78q0 54 13 78t39 24q26 0 39-24t13-78q0-54-13-78t-39-24m265-35q29 0 46 20t17 55v194h-44v-188q0-25-8-36t-21-11q-29 0-53 49v186h-44v-264h38l3 40q13-22 29-34t37-11m262-106l44 5v370h-39l-3-34q-23 40-60 40-41 0-63-37t-21-100q0-41 11-73t30-48 45-17q34 0 56 30v-136m-49 346q28 0 49-38v-133q-20-34-47-34-23 0-36 25t-13 77q0 103 47 103m337-111q0 11-1 23h-138q2 48 15 67t40 20q16 0 29-6t27-16l20 26q-33 32-78 32-47 0-73-35t-26-100 25-103 70-37q43 0 66 32t24 97m-43-9v-4q0-43-11-62t-36-20q-22 0-35 20t-14 66h96m207-120q28 0 45 20t17 55v194h-44v-188q0-25-7-36t-22-11q-28 0-53 49v186h-44v-264h38l4 40q13-22 28-34t38-11m197 0q44 0 75 29l-19 26q-14-11-27-16t-28-5q-17 0-28 9t-10 27q0 17 10 26t38 20q36 13 53 31t17 49q0 37-25 58t-63 21q-50 0-83-35l23-24q28 24 59 24 20 0 32-11t12-31q0-13-4-22t-16-15-32-15q-35-13-50-31t-15-43q0-20 10-37t29-26 42-9m303 129q0 11-1 23h-138q2 48 16 67t39 20q17 0 30-6t27-16l19 26q-33 32-77 32-47 0-73-35t-26-100 24-103 70-37q44 0 67 32t23 97m-42-9v-4q0-43-12-62t-36-20q-22 0-34 20t-15 66h97m227-226l44 5v370h-39l-3-34q-23 40-60 40-41 0-63-37t-21-100q0-41 11-73t30-48 45-17q34 0 56 30v-136m-49 346q28 0 49-38v-133q-20-34-47-34-23 0-36 25t-13 77q0 103 47 103" />
</svg>