<svg id="fnt-Fira Code" viewBox="0 0 2663 1000" xmlns="http://www.w3.org/2000/svg"><path id="fira-code" class="f" d="M267 358h-155v120h135v35h-135v154h-43v-345h203l-5 36m96 45h121v230h74v34h-198v-34h82v-196h-79v-34m87-123q14 0 22 9t9 20q0 13-9 22t-22 8q-13 0-22-8t-8-22q0-12 8-20t22-9m339 387h-136v-33h41v-198h-41v-33h73l8 63q15-33 37-51t57-17q11 0 20 1t17 4l-12 38q-8-2-15-3t-15-2q-31 0-52 22t-35 65v111h53v33m70-175h-34v-57l4-32h36l-6 89m280-9v126q0 16 5 23t16 11l-10 29q-17-2-30-10t-18-27q-14 19-36 28t-47 9q-39 0-62-22t-23-59q0-41 32-62t92-22h39v-22q0-29-17-40t-46-12q-13 0-31 3t-38 10l-11-32q25-9 46-12t40-4q50 0 74 23t25 62m-109 157q20 0 37-9t30-28v-68h-38q-44 0-62 15t-18 41q0 24 13 37t38 12m649-323q34 0 57 8t43 25l-24 29q-17-14-35-20t-38-6q-28 0-52 14t-39 44-14 83q0 52 14 83t37 44 53 14q29 0 48-9t32-20l23 29q-16 15-41 26t-62 11q-42 0-76-20t-53-60-20-98q0-58 20-97t54-60 73-20m272 81q37 0 62 17t38 47 12 73q0 40-13 71t-38 49-62 17-62-17-38-47-13-73q0-40 13-71t38-49 63-17m0 34q-34 0-52 25t-17 78q0 52 17 78t51 25 51-25 17-78-17-78-50-25m357-3v-137l42 5v370h-37l-4-35q-15 21-34 31t-41 9q-34 0-56-17t-33-48-11-72q0-39 12-70t36-49 55-18q23 0 40 8t31 23m-60 3q-33 0-50 25t-18 78q0 34 7 57t21 35 35 11q23 0 38-12t27-29v-132q-11-16-26-24t-34-9m412 118h-177q2 30 12 50t28 28 37 9 37-6 34-17l19 27q-18 15-42 23t-48 8q-38 0-65-17t-42-48-14-72q0-40 15-71t40-48 60-18q34 0 58 16t36 44 13 69q0 7 0 13t-1 10m-105-118q-29 0-49 21t-22 64h137q-1-42-19-63t-47-22" />
</svg>