<svg id="fnt-Fira Mono" viewBox="0 0 2665 1000" xmlns="http://www.w3.org/2000/svg"><path id="fira-mono" class="f" d="M113 358v121h135v35h-135v153h-44v-345h203l-5 36h-154m337-78q14 0 23 8t8 22-8 21-23 8q-13 0-22-8t-8-21 8-22 22-8m34 123v230h74v34h-197v-34h81v-196h-79v-34h121m344-5q16 0 37 5l-6 90h-34v-57h-2q-61 0-87 87v111h54v33h-137v-33h41v-198h-41v-33h73l8 63q16-34 38-51t56-17m311 211q0 16 5 23t17 11l-11 30q-38-5-48-38-14 18-35 28t-47 9q-40 0-63-22t-22-59q0-40 31-62t92-22h39v-22q0-28-16-40t-47-12q-30 0-68 13l-12-32q47-16 87-16 48 0 73 22t25 63v126m-109 32q20 0 37-10t30-28v-67h-38q-42 0-61 14t-18 41q0 50 50 50m736-319l19 345h-42l-10-180q-3-48-3-125l-58 243h-44l-62-243q1 18 1 48 0 46-2 77l-9 180h-41l20-345h60l56 236 54-236h61m185 76q54 0 83 36t30 101q0 62-30 99t-84 38q-54 0-84-37t-29-100q0-62 29-100t85-37m0 34q-35 0-52 26t-17 77 17 77 51 26 51-26 17-77q0-52-17-78t-50-25m199 235v-264h36l4 37q15-20 39-31t48-11q74 0 74 78v191h-42v-160q0-30-4-45t-12-23-29-8q-22 0-41 13t-31 31v192h-42m401-269q54 0 83 36t30 101q0 62-30 99t-84 38q-54 0-84-37t-29-100q0-62 29-100t85-37m0 34q-35 0-52 26t-17 77 17 77 51 26 51-26 17-77q0-52-17-78t-50-25" />
</svg>