<svg id="fnt-Fjord One" viewBox="0 0 2200 1000" xmlns="http://www.w3.org/2000/svg"><path id="fjord-one" class="f" d="M27 667l-2-22q5-2 10-3t11-2 12-2 10-1v-295l-39-7q-1-1-1-4t0-5q0-3 1-7t2-6h235l3 4q1 9 0 21t-3 23-3 21-3 15q-6 2-13 1t-15-1l-4-55h-116v135l112-1q1 7 0 16t-2 17l-110-3v131l65 8q1 1 1 3t0 4q0 4-1 8t-2 7h-148m328-295q-6 0-11-1t-9-5-6-8-2-14 2-13 6-9 9-5 11-1 11 1 9 5 6 9 2 13-2 14-6 8-9 5-11 1m-15 288v-199h-42l-3-21q5-1 12-4t16-4 16-3 13-1q11 0 17 2t8 7 3 8 1 9v206q0 13-1 28t-2 27-6 28-13 27-20 25-31 23l-17-18q9-10 16-19t12-16 9-15 6-14q3-8 4-16t2-18 0-20 0-22m102-109q0-26 7-48t22-39 38-27 54-9 52 9 32 27 16 39 4 48-7 48-23 39-38 26-54 10q-31 0-51-10t-32-26-16-39-4-48m45 0q0 29 4 48t14 30 21 15 28 4q14 0 27-4t21-15 15-30 5-48q0-30-5-49t-13-29-21-15-29-4q-14 0-26 4t-22 15-14 29-5 49m231 116l-3-19q10-4 20-5t20-3v-179h-44l-3-21q5-2 13-4t16-4 16-3 13-1q10 0 16 2t8 8 3 10 1 13v19q1-2 3-6t6-10 5-9 5-6q8-10 20-16t29-6q2 0 4 0t7 0 6 1 6 1q0 3 0 7t0 10-1 11-1 10q-4 0-10-1t-14-1q-9 0-18 2t-17 5q-9 3-15 10t-13 14v144l56 5q1 1 1 4t0 5q0 3-1 7t-1 6h-133m280 7q-26 0-42-10t-25-25-12-36-3-45q0-34 7-59t23-40 35-24 48-7q5 0 12 0t15 2 15 3 15 5v-130h-46l-3-21q3-1 10-4t17-4 19-3 16-2q10 0 16 3t8 6 4 9 0 8v341h48l2 20q-3 1-10 3t-16 5-17 3-16 2q-10 0-16-3t-8-7-4-9 0-8v-8h-1q-7 5-17 12t-23 11-26 8-25 4m11-33q10 0 20-2t21-6 19-8 17-10v-153q-7-1-20-3t-27-2q-26 0-42 7t-24 21-11 32-3 42q0 19 2 34t7 26 16 17 25 5m480 35h-18q-28 0-50-6t-36-19-25-30-15-37-8-44-2-48v-1q0-26 4-49t10-45 20-37 29-29 39-18 51-7h17q28 0 49 7t36 18 24 28 14 37 7 44 2 49v4q0 38-8 72t-26 58-46 39-68 14m-4-30q33 0 54-11t32-33 15-49 4-62q0-20-1-39t-4-37-11-31-18-25-28-16-42-6q-22 0-38 5t-28 15-19 24-11 31-6 37-2 42q0 19 1 38t5 36 10 32 19 26 28 17 40 6m215 21l-2-19q9-3 19-5t19-3v-179h-42l-3-21q3-1 10-3t15-4 17-4 16-1q10 0 16 2t8 7 3 8 1 9v4q21-15 41-23t42-7q19 0 32 3t21 12 12 24 3 39v134l39 7q0 1 0 3t0 4q0 3-1 7t-2 6h-108l-2-19q9-3 17-5t16-3v-131q0-14-2-24t-6-14-11-8-18-2q-11 0-20 1t-19 3-17 4-17 7v164l39 7q0 1 0 3t0 4q0 3-1 7t-2 6h-113m304-105q0-36 8-61t21-42 33-24 44-7q27 0 44 6t27 19 13 34 4 50l-152 1q0 18 1 32t3 26 8 20 13 15 22 9 31 2q9 0 20-1t20-4 17-4 9-3l8 21q-1 1-9 5t-18 7-27 8-33 3q-23 0-43-4t-33-16-22-34-9-58m44-47l108-4q-1-21-5-33t-12-17-15-7-16-1q-15 0-26 3t-18 11-11 20-5 28" />
</svg>