<svg id="fnt-Flamenco" viewBox="0 0 1873 1000" xmlns="http://www.w3.org/2000/svg"><path id="flamenco" class="f" d="M51 660v-274h-29q-5 0-9-3t-3-8 3-9 9-3h221q13 0 13 12v41q0 5-4 8t-10 3-9-3-4-8v-30h-151v116h127v-18q0-5 3-9t10-3 9 3 4 9v61q0 5-4 8t-9 3-10-3-3-8v-19h-127v134q0 5-4 8t-9 4-10-4-4-8m295-17h19q5 0 8 4t4 8-4 8-8 4h-19q-41 0-41-33v-319h-33q-5 0-8-3t-3-8 3-9 8-3h47q5 0 9 3t4 9v330q0 9 14 9m193-44v-10q-33-9-56-9t-38 9-15 25 10 26 26 9q46 0 73-50m40 44h20q5 0 8 4t3 8-3 8-8 4h-22q-18 0-28-8t-10-23q0-2 1-5-27 41-77 41-28 0-44-15t-16-42 21-42 53-15 62 10v-34q0-24-17-31-14-5-38-5t-43 8v31q0 5-4 8t-10 4-9-4-4-8v-38q0-6 6-10 25-14 65-14t61 13 20 46v100q0 9 13 9m346-114v105q0 9 14 9h19q5 0 8 4t4 8-4 8-8 4h-19q-41 0-41-33v-105q0-31-29-31-39 0-64 43v119q0 5-4 8t-10 4-9-4-4-8v-131q0-31-29-31-23 0-38 11t-29 36v115q0 5-4 8t-10 4-9-4-4-8v-147q0-10-10-10h-23q-5 0-9-3t-3-8 3-9 9-3h27q31 0 31 34 15-20 31-30t38-9q43 0 53 36 15-18 31-27t39-9 38 13 15 41m218 28q-1-27-16-43t-41-16-44 16-23 43h124m1 62q4-6 8-6t9 2 6 7 0 9q-26 41-81 41-44 0-70-29t-25-71 26-70 69-27 63 25 21 68q0 12-13 12l-139 0q2 31 20 50t48 19q39 0 58-30m84-116h-23q-5 0-9-3t-3-8 3-9 9-3h27q31 0 31 34 30-39 75-39 27 0 44 13t18 41v105q0 9 13 9h20q5 0 8 4t3 8-3 8-8 4h-20q-40 0-40-33v-105q0-15-10-23t-25-8q-46 0-73 48v114q0 5-4 8t-10 4-9-4-4-8v-147q0-10-10-10m390 116q4-6 8-6t9 2q7 3 7 8t-2 8q-25 41-81 41-42 0-68-29t-25-71 26-70 67-27 69 18q6 4 6 10v42q0 5-4 8t-9 3-10-3-4-8v-36q-20-11-48-11t-47 21-20 54 19 54 48 22q39 0 59-30m158 30q31 0 50-21t19-55-19-54-50-21-50 21-19 54 19 55 50 21m-69-5q-27-28-27-71t27-71 69-27 69 27 27 71-27 71-69 28-69-28" />
</svg>