<svg id="fnt-Flavors" viewBox="0 0 1543 1000" xmlns="http://www.w3.org/2000/svg"><path id="flavors" class="f" d="M274 307l-2 2q-4 0-6-3t-3-7q-2-4-1-7 4-3 8-4t8 2q1 1 3 2t2 4q0 0-1 2t-1 3q-2 5-7 6m-200-17l1 1q5 0 9 0t8 2q9 4 14 6t13 5q3-1 6-2t5-3q2-1 4-1t4 1q2-1 5-1t5 0q7 0 14 0t12 2q5 1 10 0t9 0q4 0 7 0t6 1q1-1 3-1t3 0q5-2 7-2t2-1q3-1 7 0t7 1q3 3 6 4t7 4q4 5 7 9t3 12q1 2 2 3t2 3q0 20-10 27 0 1-1 2t-1 3q-2-1-3 1t-3 1q-3 3-7 4t-8 3q-3 1-8 1t-8-2q-2-4-4-5t-3-6q-2-1-4-3t-6-3q-1-1-2-1t-3-1q-5-1-9-1t-8 0-7-1-7-2q-2 1-4 0t-5 0q-3 1-5 2t-6 2q-3 1-4 2t-3 3q-4 1-5 2t-3 1q-1 1-3 3t-4 1q-4 2-6 5t-6 4q-2 2-3 3t-3 2q-1 3-2 5t-1 6q-2 5-1 5t0 2q0 2-1 4t0 4q1 5 1 6t-1 1q0 5 1 10t-1 11q1 3 1 5t4 5q8 1 15 0t14-1q4 1 9 0t8-2q5-2 6-3t2 1q3-2 7-3t6-2q2-1 3-2t4 0q5 2 6 1t2 0q6 5 8 5t4 3q2 3 2 6t1 7 1 6-3 5q-5 8-8 10t-7 5q-2 1-3 2t-2 2q-1 3-4 4-2 5-6 7-4 5-10 5t-13 1q-2 0-6 0t-6-1q-4-1-7-2t-7-4q-5-2-10-2t-10 1q-6 4-7 7 0 2 2 3t2 3q2 2 2 7t1 7q2 2 1 6t0 7q-1 6 0 11t2 8q-1 3-1 6t-1 7q2 3 1 6t-1 6q-1 6-1 12t3 11q3 5 3 10t-2 10-3 10-3 10q1 3 0 7t-3 7q-4 4-4 6-4 4-7 4-8-1-10 1t-5 1q-3-1-5-1t-2 1q-3 0-4-1t-4-2q-3-4-5-8t-4-8q-1-2-2-3t-1-3q-1-2-2-5t0-5q-2-2-3-6t-2-6q-2-4-2-9t0-8q3-7 4-12t4-10q3-11 8-17 0-3 2-6t2-6q0-3 1-4t-1-4q2-3 2-7t-1-8 0-9 1-7q0-6 0-12t-1-12q-1-1-1-3t0-4q-4 2-9-1t-10-1q-2-1-3-3t-3-2q0-2 0-3t0-3q-2-1-1-2t-1-4q-1-3-1-4t-1-2q-1-5 1-6 0-4 2-5t5-2q5-3 8-2t3-2q2 1 3 0t2-1q3-4 2-9t0-9q-1-4-1-6t1-5q0-7 0-10t1-7q1-5 1-6 0-2 0-4t-1-4q0-3 0-6t-1-4q1-4-1-6t-3-5q0-1-2-3t-1-3q-2-3-5-7t-2-8q-2-7-3-12t0-8 3-6 3-5q5-4 6-6t3-4q5-1 6-1 2 0 3-1t3-1l7-1q4-2 6-1t5 0m-58 90q-2 0-4-2t-1-2q-2-2-3-5t0-6 2-6 5-4q7-4 11 1t3 9q1 6-3 11t-10 4m111 4q0 3 1 4t2 3q-1 1-1 3t-2 4q-4 2-5 4t-2 2-3 1-4-2q0-2 0-5t0-4q1-4 5-8t9-2m-14 44q-3-3-3-5t2-2q1-3 3-4t5-1q4 1 4 4t-3 6q-4 2-5 2t-3 0m93 80q-3 2-5 3t-5 2q-1-1-2-2t-3-2q-1-1-1-3t-2-2q-2-3-1-5t1-3q2-4 3-5 3-3 4-3t0-2q8-3 13-3t6 4q1 7-3 12t-5 9m-85 124q0 4-2 8t-3 5q-2 1-3 2t-3 2q-4-1-5-6t1-7q-1-3 1-4t2-2q7-3 9-1t3 3m217-348q5-4 8-5t7 1q1 1 4 4t3 5q1 3 0 5t-6 4q-1 1-2 2t-4 0q-4-4-6-5t-3-3-2-4 1-4m-1 20q2 6 4 15t-2 15q0 3 0 5t-1 5q-4 5-8 10t-3 13q-2 6-1 12t0 12q0 17 2 29t3 27q0 5 1 8t2 5q0 3 0 5t-1 6q1 2 1 4t2 5q-1 6-3 11t-1 9q0 2 1 3t0 3q0 6 0 7t0 1q1 5 0 5t0 1q0 2 1 5t3 4q-1 1-1 3t1 3q1 2 0 4t1 5q1 2 2 4t0 3q2 3 2 7t1 6q-1 2 0 6t-1 9q-1 1-1 2t0 4-1 5-1 6q0 2 1 4t0 4q-1 7 1 13t0 11q1 3 2 5t-1 6q2 4 2 8t-1 8q-4 6-8 8t-7 2q-8 3-13 6t-12 2q-6-1-8-1t-3 0q-2 1-4 1t-3-2-4-2-4-2q-1-1-2-2t-2-3q-5-4-5-7t-2-3q-1-13 1-26t10-23q3-15 5-25t2-22q0-3-1-6t0-6q1-1 1-3t1-3q0-2 0-4t0-4q1-3 0-4t0-2q1-4 1-7t1-7 1-5 1-3q-1-6-1-8t0-2q0-5 0-10t2-10q1-5 2-9t1-11q-1-3 0-6 0-1-1-3t0-3q0-5-2-7t-3-6q-2-2-3-5t-1-7q0-2 0-4t1-4q2-6 2-8t1-3q-1-3-1-5t-2-4q-1-6-1-8t-2-4q-1-3-3-5t-1-6q1-3 1-7t1-6q-1-6-1-13t-1-13q0-3-1-4t1-3q0-2 0-4t-1-2q1-3 3-5t3-4q4-4 4-3t0-1q2-1 4-2t3-2q3-1 6 0t6 1q2 1 4 0t4-1q3 0 6 2t7 2q1 3 4 4t7 1m-71 155q0-2-2-3t0-3q-1-8-2-14t4-9q6 1 9 1t3 3q4 6 2 14t-7 11q-2-1-3 0t-4 0m62 221q3 3 1 6t-2 7q-3 1-6 3t-7 3q-2 2-5 1t-5-3q1-12 8-15t16-2m-78-33q4 0 5 2t3 3q1 4 0 7t-3 6q-3 2-5 0t-4-2q-4-6-3-8t1-3q1-1 3-3t3-2m341-11l-3 1q-1 3-4 4t-4 3q-4 2-7 2t-8 1q-4-1-5-3-4 1-7-2t-6-4q-1-2-2-4t-3-1q0-2-2-4t-3-3q-2-1-4-3t-4-1q-3 0-5 3t-4 4q-1 1-3 2t-1 2q-3 0-5 1t-4 3q-8-2-14 2t-14 2q-6 1-8 2t-5 0q-5 1-8-1-4 1-7 0t-6-1q-3-1-5 0t-4 1q-6-3-8-3t-4-1q-1-1-2-3t-5-1q-5-3-6-6t-1-4q-3-5-3-6t0-4q-2-3-4-4t-4-5q-1-3-1-5t-1-5q-1-4-1-10t-1-10q1-4 0-6t1-2q0-11 3-19 0-3 1-7t2-5q2-6 4-9t3-6q4-4 4-4t0-1q3-1 3-2t2-1q4-6 9-9t10-6q11-4 20-6t17-1q2-2 7-2t8 2q2 2 3 2t3 0q1 0 3 2t4 1q6 1 6 2t2 1q5 1 10 1t8-5q1-1 2-4t1-4 0-4-1-3q-1-7-1-16t0-16q-1-10-4-22-1-3-2-6t-3-5q-2-8-6-14t-10-10q-4 0-5-2t-5-2q-7-2-11-1t-9 1q-2-1-4 0t-4 1q-5-1-7 0t-5 2q-4 2-6 4-4 1-7 2t-5 4q-1 2-4 3t-4 4q-1 1-3 4t-3 5q-4 7-4 8t1 5q1 1 2 3t1 2q3 6 4 6t1 2q2-1 3-1t4 1q2 0 5-2t5-1q1-4 0-7t1-7q3-7 7-10 5-5 11-6 2-1 4-2t4-2q5 3 7 3t3 1q6 0 9 2t7 7q1 2 1 5t2 4q1 2 1 4t0 4q0 3 1 5t0 4q-1 3-3 6t-3 4q0 3-2 5t-4 4q-1 2-2 3t-4 2q-6 3-8 4t-4 1q-5 4-7 4t-5 1q-6 2-7 1t-3 0q-2 0-5 1t-6 1q-5-1-5-1t-1 0q-5-1-8-5t-8-3q-6-4-9-5t-5-4q-7-5-8-7t-4-3q-2-5-4-9t-3-10q-1-4-1-8t1-9q1-6 2-9t3-6q1-1 1-3t1-3q3-4 5-6 4-8 8-10t7-5q8-3 13-5t10-3q5-1 9-1t9-4q7-1 13-1t12-1q2 1 4 0t4 0q5 0 9 0t8 0q1 1 3 1t3 1q5 1 9 3t8 3q16 3 21 15 1 5 2 7t2 4q1 2 3 4t4 5q3 5 4 10t4 9q1 1 2 3t1 4q2 5 2 5t0 1q0 3 2 5t1 4q-1 4 0 7t1 6q2 4 2 9t0 10q1 1 1 3t-1 3q0 2 1 4t0 5q0 4 0 5t1 3q-1 2-1 4t0 4q0 3-1 6t-1 5q0 2-1 4t0 3q1 6-1 11-1 6-1 13t-2 13q1 4 1 8t-1 9q0 6 1 11t3 8q8 1 11 2t4 4q2 4 4 6t3 6q1 3 0 4t-1 3q-1 2 0 3t-1 4q-2 1-2 3t-1 3m-146-91q-2 7-3 9 0 6 0 9t-1 6q-2 6-1 10 1 3 2 6t2 5q1 6 5 9t9 5q9 2 14-1t10-2q3-4 9-4 5-4 6-4t1-1q4-2 6-2t4-2 5-3 5-5q3-5 3-13 0-2 1-4t0-4q-1-4-1-6 0-4 0-5t-1-1q-2-5-3-7t-1-5q-4-6-6-6t-5-2q-4 1-8 0t-8 0q-10 0-17 4t-16 6q-3 1-5 1t-3 2q0 2-1 3t-2 2m140-167q5 2 7 3t4 5 2 8-2 6q-2 1-3 2t-1 1q-4 4-9 2t-8-3q-3-3-4-7t-2-9q2-2 4-4t6-2q1-1 6-2m-183 106q1 3 3 5t0 7q-5 6-9 6-8-4-11-8t0-10q2-1 5-3 4-2 7 0t5 3m190 61q2-1 3-2t3 1q2 1 3 4t0 6q-2 1-3 2t-3 0q-3-1-4-5t1-6m-2 46l-1-1q-4-4-3-8t0-8q2-3 4-3t3-2q5 0 8 1t4 4q2 4 1 6t-2 5q-2 3-7 5t-7 1m-200 41q5-1 9 1t2 7q0 4-2 5t-4 3q-6-1-7-6t2-10m320-243q7 2 8 10t-1 15q-2 4-6 5t-8 1q-2-1-2-3t-2-4q-1-8 0-9t0-3q2-3 5-7t6-5m4 40q2-1 4 1t2 3q1 5-2 7t-6 2q-4-2-4-8t6-5m87 147q-4 1-5-2t-3-5q1-3 4-6t5-1q6 1 4 7t-5 7m-17 8q7 3 6 11t-5 13q-4 2-7 5t-7 2q-3-3-3-10t3-8q4-5 6-9t7-4m-120 6q6 3 6 9-1 5-2 8t-4 4q-5-2-7-3t-1-3q-1-3-1-4t-1-2q2 0 2-3t2-3q2-2 4-2t2-1m-9-233q2 2 4 2t6 0q2 1 4 2t5 2q1 1 3 1t3 2q1 2 3 6t2 7q1 2 2 5t2 4q-2 3-2 8t-2 9q1 5 2 9t1 9q2 4 5 7t3 8q1 2 2 4t1 3q0 3-1 6t0 5 2 4 1 5q1 3 3 6t3 8q2 4 1 10t2 11q0 4 0 6t1 7q0 4 2 7t0 7q0 2 0 6t1 4q0 5 1 6-1 4 0 8t1 9q-1 5-1 7t1 5q0 4 0 7t2 6q4-6 5-8t3-5 1-4 2-5q0-2 1-4t2-3q1-8 3-11t4-7q0-4 1-7t2-6q1-1 1-2t3-3q2-11 4-16t3-12q2-4 2-5t-1-4-1-4 0-5q0-6 3-10t6-10q4-7 6-15t3-13q-4-7-2-15t4-16q-1-2 0-4t-1-4q1-4 2-7t2-6q2-3 2-7t4-6q3-2 6-3t6-2q3-2 4-2t2-1q3-2 6-1t6 1q4-1 6-1t3 0q2 2 6 3t4 4q2 0 3 3t0 7-2 7-2 5q0 6-1 12t-4 9q-1 4-1 8t-2 8q-1 2-1 3t-2 3q-1 2-1 4t-1 2q-1 3-2 6t-2 7q-2 2-3 8-1 2-2 4t0 5q-5 11-5 18t-2 14q-4 11-5 18t-5 12q0 3-2 5 0 5-3 9t-5 6q0 4-2 6t-2 6q-3 3-3 9t-4 7q-1 1-2 3t-2 2q-2 5-4 9t-4 9q-1 6-2 12t-4 10q-3 3-3 5-4 4-9 7t-11 3q-2 2-5 1t-5 0q-3 0-4 0t-1-1q-4-1-6-3t-4-2q-2-4-3-9t-4-7q-2-5-4-8-4-1-6-4t-4-6q1-8-1-12t-3-9q-4-2-4-8t-3-9q-1-3-2-4t-1-2q-2-8-3-11t-3-7-3-7-1-6q-2-4-1-9t0-9q-1-3-2-4t-2-4q-2-1-2-3t-2-1q-3-5-5-8t-5-8q-3-5-4-9t-3-6q1-3 0-9-3-6-3-10 0-4-1-4t0-2q0-6-2-10t-5-8q-3-2-5-3t-4-5q-1-2-3-5t-3-4q-1-3 0-5t2-4 0-4 0-3q2-6 3-6t1-1q2-5 6-7t6-4q2-1 4-1t2 0q5-3 11-2t13-1m207 13q-1-4 0-8t4-6q5-7 7-7t4-2q5 1 8 4t2 9q-1 4-2 6t-4 3q-3 2-6 5t-8 1q-1-1-2-2t-3-3m132-22q4 0 6 1t3 2q1 0 4 1t4 2q2 1 3 3t4 3q2 2 4 3t3 4q1 1 2 3t2 2q3 2 6 4t6 4q4 1 5 2 4 3 4 3t0 1q4 1 7 4t6 4q2 4 8 6 3 6 8 10t7 11q2 3 3 4t1 3q3 3 4 8t6 8q2 5 2 8 2 3 3 6t0 6q2 4 2 9t1 8q-1 4-1 6t-1 3q0 4 0 6t0 4q-2 2-3 5t-2 7q0 3-1 7t-3 6q0 2 0 3t0 2q-3 6-5 10t-4 10l-2 6q-1 2-3 4t-2 4q-4 4-4 5t-1 3q-2 2-3 4t-3 3q-7 8-14 11t-13 10q-2 1-3 2t-2 2q-6 4-11 6t-11 6q-3 0-7 2t-7 1q-2 1-8 1t-9 0q-6-1-9-1t-4-2q-2 1-3 0t-3-2q-5-2-8-1t-5-1q-2 2-5 1t-5-1q-2-1-4-2t-3-2q-8-1-11-4-3-1-5-2t-2-2q-4-1-7-4t-8-4q-1-2-2-2t-2-3q-2-1-3-3t-3-5q-2-1-4-3t-5-4q-2-3-4-5t-2-4q-1 0-2-2t-1-3q-3-2-5-6t-2-8q-1-1-2-3t-1-3q-2-7-4-12t-4-11q-3-4-5-10t1-11q-1-2 0-4t-1-4q1-3 1-7t-1-7q0-8 4-15 1-5 3-11t5-10q0-1 1-2t3-2q-1-3 1-4t2-4q1-5 4-9t5-8q1-5 3-8t3-9q2-1 4-3t2-4q4-3 7-9 4-2 7-4t8-5q4-4 5-6t4-1q1-2 3-2t3-3q5 0 6-1t2-1q2 1 3 0t2 0q8-1 15-2t12 1q2 0 4-1t5 0q1-1 2-2t3-1q5 2 7 2t4-1m66 141l-1-1q0-5-3-10t-2-10q-2-3-4-6t-2-7q-2-4-3-6t-1-5q-2-4-2-9 0-4 0-4t0-1q-1-3-2-5t-4-2q-6 0-6 0t-3-1q-3-1-5-1t-3-3q-5-5-8-7t-5-5q-3-2-6-4t-4-4q-4-2-6-4-5-2-9-1-9 4-14 5t-9 5q-5 3-11 5t-10 6q-5 3-8 5t-8 3q-7 5-14 8-5 4-8 9t-7 9q-1 3-2 6t-1 6q1 2 0 4t0 3q1 2 2 3t0 2q4 14 8 25 3 2 4 5 4 2 6 9 4 2 7 5t5 8q4 3 6 10 2 1 2 3t2 3q6 4 10 8t8 9q9 5 19 6t19 1q5 1 9 0t9-1q4-2 6-4t6-3q2-4 5-6t6-4q3-1 4-2t4-2q4-6 9-9t8-7q4-8 5-15t3-14q-2-1-2-3t1-5m-139-39l1 2q2 5-2 11-1 1-3 3t-4 2q-2 1-5 0t-4-2q-1-2-2-4t1-5q2-4 8-7t10 0m109 52q2 4 1 5t-3 5q-4 6-6 6t-3 1q-3-1-5-2t-3-5q-1-4 1-6t5-4q3-1 7-2t6 2m-47 22l-1-1q7 0 12 2t6 7q2 8-4 11t-14 4q-11 0-15-5-1-4 1-5t3-5q4-3 7-4t5-4m105 72q-2 3-4 5t-5 2q-2 0-4-1t-3-3q-1-1-3-1t0-3q0-2 2-3t4-2q2 0 7-2t6 2q1 1 0 3t0 3m156-240q2-1 3 0t3 1q3 5 2 8t-2 6q-3 1-4 2t-3 3q-5 4-12 1-5-5-2-11 8-9 15-10m63 19q-1-1-2-5t2-6q6-2 8 0t4 3q0 5-4 7t-8 1m24-2q5 3 6 5t2 4q1 7-1 10-2 1-5 3t-6 2q-5 1-6-2t-2-5q-1-6 2-7t1-3q2-2 3-5t6-2m-126 175l-2-1q0-5 1-7t0-4q7-4 10-3t5 4 2 5-2 6q-1 2-2 3t-2 2q-7 2-9-1t-1-4m50 13q0 8-8 8-4-4-4-5t1-2q4-3 6-3t5 2m-49-149q8-2 10-5t6-3q4-2 4-2t1 0q4-3 7-3t4-1q5-2 6-2t2 0q6-4 12-3t10-1q3 1 7 1t8 0 9 1 7 4q4 0 7 3 5 3 5 3 5 4 8 10t7 11q4 5 5 10t3 7q-1 9-3 18t-1 17q0 4 0 9t0 9q0 1-1 2t-1 3q-2 6-4 11t-4 11q-5 4-7 6t-4 4q-3 5-8 8t-13 5q-2 2-5 1t-4 2q-3 0-6 1t-5-1q-4 0-8-2t-5-1q-2-1-3-2t-3-1q-5-3-8-5t-5-7q-3-8-6-11t-2-8q0-3-1-5t1-5q-1-3-1-7t2-7 3-7 3-7q0-4 3-6t7-4q3-1 7-3t7 1q3 2 6 3 3 4 2 10t-2 10q1 5 1 11t5 8q1 0 3 0t2 1q3-1 5-2t3-1q3-3 4-6t3-7q1-6 3-10t2-9q0-2 0-4t-1-5q-3-3-3-7t-2-7q-5-3-12-5t-12-7q-5 1-12 2t-12 4q-2 2-6 4t-7 2q-2 3-4 5t-5 3q-5 6-8 9t-5 7q-1 3-2 5t-2 6q0 3 0 6t-1 7q2 4 0 9-2 9-4 14t-3 10q-1 5-1 6t-1 2q0 4 1 8t1 8v8q3 5 4 11t4 13q0 6 1 9t1 8q1 3 1 7t2 9q3 9-1 14t-8 10q-2 1-4 2t-5 2q-3 0-5 2-4-1-6 0t-4 1q-1-1-3-2t-3 0q-5 0-7-2t-4-2q-4 0-6-3-4-3-7-5t-4-5q-1-4-2-6t-1-5q1-6 1-11t3-8q2-3 2-4t2-2q1-5 3-12t4-11q0-2 1-3t1-3-1-3 0-3q1-2 2-4t0-5q0-4 1-6 0-2-1-4t-1-4q-1-4-1-6t-1-5q0-7-1-11t-1-8q-3-8-2-13t-3-9q0-5-1-10t1-8q-1-3-1-7t0-7q-1-8-1-15t-4-11q-2-7-5-10t-6-5q0-3-3-5t-3-5q0-5 4-10 2-8 5-13t4-10q6-2 12-3t14 0q7-1 14-3t12-1q3 0 6 3t7 5q2 4 3 7t1 7q2 7 2 15t-1 16m186-98q2 2 4 4t1 3q0 4-3 7-6 4-8 5t-3 2q-8 2-10-6 1-5 2-7t3-3q5-5 8-5t6 0m136 131q0-2-1-4t1-4q4-3 9-2t5 5q0 3-2 5t-5 2q-5-1-5-1t-2-1m-17 22q4-2 7-3t8-3q4 3 4 7t-4 8-8 4-8-2q-1-3-1-6t2-5m-53 97q3 1 6 4t1 8q-1 1-5 5t-7 4q-3 1-5 0t-5-2q-3-6 0-9t5-4q4-2 6-3t4-3m-92 83q-2-3-5-3-1-1-2-2t-3-2q-1-6-1-8t1-3q2-2 6-4t8 1q1 2 3 3t5 2q2 2 4 5t-1 6q-3 2-6 3t-9 2m104-309l1-1q8 0 13 3t10 4q6 4 8 6t6 3q0 2 1 3t1 4q7 9 10 18t2 20v6q0 4-1 6t-2 7q-1 2-1 4t-1 3q0 1 0 3t0 4q-2 3-3 4t-1 3q0 1-1 3t-2 3q-2 4-2 6t-3 2q-1 1-3 2t-2 1q-4 3-7 6t-7 2q-7 3-12 2-4-3-7-4t-6-2-4-4-3-5q-1-2-2-4t-2-5-2-6 2-6q4-6 6-10t6-5q2-2 5-3t4-4q-1-5 0-8t1-5-2-4-1-4q-2-3-2-5t-3-4q-1-1-3-1t-3-1q-5-1-8 0t-6 1q-4 0-6 0t-3 1q-5 2-10 4t-8 6q-4 3-5 4t-2 1q-1 3-2 5t-2 5q0 2 0 4t-1 3q0 5 0 10t0 11 1 11 5 8q2 2 3 3t4 3q1 2 4 3t2 3q6 3 10 7t12 5q3 1 4 2t3 3q2 1 4 0t4 2q4 0 10 0t9 3q4 0 6 1t5 3q4 5 6 6t4 3q4 5 6 7t1 4q1 8 3 12t2 9q2 8 2 12t1 9q0 7-1 14t-4 13q-1 5-1 6t0 2q-4 4-4 5t0 1q-1 2-2 3t-2 3q-1 1-1 3t-1 2q-1 3-3 4t-3 4q-4 3-8 6t-9 6q-7 2-9 4t-7 3q-6 4-9 5t-6 3q-2-1-5 1t-5 2q-2 1-3 1t-3 0q-3 1-7 0-2 2-7 1-2-1-3-2t-4-1q-4 0-6 0-4-1-7-5t-8-6q-3-1-5-3t-4-3q-4-3-7-4t-6-6q-3-3-5-6t-3-6q-1-3-1-6t-3-5q1-6 1-12t0-12q0-2 1-3t1-3q1-3 1-5t2-3q0-5 3-10t6-10q4-1 7-1t7 0q7-2 15 0t15 5q2 1 3 2t3 2q2 7-2 13t-9 9q-1 1-1 2t0 4q0 3-1 4t1 4q1 2 2 3t5 2q6 1 7 4t1 5 4 2 4 0q7 4 15 5t15-3q9-5 13-11t5-15q-3-7-5-14t-8-10q-2-5-7-6-4-3-8-5t-10-4q-5-1-8-4t-6-2q-4 0-5 0t-3 0q-4-1-8-3t-8-4q-3 0-5-2t-5-1q-4-5-8-8t-5-6q-3 0-4-1t-2-3q-2-4-4-7t-2-8q-3-2-2-4t-1-6q-1-3-3-5t-2-5q-4-3-2-8t0-10q0-2 1-4t-1-3q1-4 2-7t1-7q0-2 0-4t0-4q1-6 3-10t2-10q3-2 2-4t1-5q0-2 2-3t4-4q3-4 4-4t1-2q4-5 6-6t4-4q7-5 12-9t12-7q6-4 15-5t15-4q2 1 5 0t4 1q4-2 9-1t9 4" />
</svg>