<svg id="fnt-Flow Rounded" viewBox="0 0 3121 1000" xmlns="http://www.w3.org/2000/svg"><path id="flow-rounded" class="f" d="M237 471v39h-149v157h-47v-356h220v39h-173v121h149m123-179v375h-46v-375h46m60 243v-3q0-39 15-70t43-48 62-16q54 0 87 37t33 99v3q0 39-14 70t-43 47-63 18q-53 0-87-38t-33-99m45 2q0 44 21 71t54 27q35 0 55-27t20-76q0-43-20-70t-55-27q-34 0-54 26t-21 76m423-135l63 202 51-202h45l-77 265h-37l-64-201-62 201h-37l-77-265h45l52 198 62-198h36m543 265l-77-144h-83v144h-48v-356h118q60 0 92 28t33 79q0 33-18 58t-50 37l83 151v3h-50m-160-317v135h72q34 0 55-19t21-48q0-33-20-50t-57-18h-71m241 185v-3q0-39 16-70t42-48 62-16q54 0 88 37t33 99v3q0 39-15 70t-42 47-63 18q-54 0-87-38t-34-99m46 2q0 44 20 71t55 27q34 0 55-27t20-76q0-43-21-70t-55-27q-33 0-54 26t-20 76m416 130l-1-26q-27 31-78 31-42 0-64-25t-22-73v-172h45v171q0 60 49 60 51 0 68-38v-193h46v265h-43m111-265h43l1 34q31-38 79-38 84 0 85 94v175h-45v-175q0-29-13-42t-40-14q-22 0-39 12t-26 30v189h-45v-265m265 134v-4q0-60 29-97t75-37q47 0 74 31v-137h45v375h-42l-2-29q-27 34-75 34-46 0-75-38t-29-98m45 1q0 45 19 71t51 25q43 0 63-38v-122q-20-37-62-37-34 0-52 26t-19 75m358 135q-54 0-88-36t-33-94v-8q0-40 15-71t42-48 58-17q52 0 80 34t29 97v19h-179q1 39 23 63t55 24q24 0 41-10t29-26l27 22q-33 51-99 51m-6-237q-27 0-46 20t-23 55h133v-3q-2-34-19-53t-45-19m150 101v-4q0-60 29-97t75-37q47 0 74 31v-137h45v375h-42l-2-29q-27 34-75 34-46 0-75-38t-29-98m45 1q0 45 19 71t51 25q43 0 63-38v-122q-21-37-63-37-33 0-51 26t-19 75" />
</svg>