<svg id="fnt-Flow Block" viewBox="0 0 2416 1000" xmlns="http://www.w3.org/2000/svg"><path id="flow-block" class="f" d="M237 471v39h-149v157h-47v-356h220v39h-173v121h149m123-179v375h-46v-375h46m60 243v-3q0-39 15-70t43-48 62-16q54 0 87 37t33 99v3q0 39-14 70t-43 47-63 18q-53 0-87-38t-33-99m45 2q0 44 21 71t54 27q35 0 55-27t20-76q0-43-20-70t-55-27q-34 0-54 26t-21 76m423-135l63 202 51-202h45l-77 265h-37l-64-201-62 201h-37l-77-265h45l52 198 62-198h36m459 265h-123v-356h116q58 0 87 24t29 71q0 25-14 44t-39 30q29 8 46 30t17 54q0 48-31 75t-88 28m2-167h-78v128h77q33 0 52-17t18-46q0-65-69-65m-78-150v113h70q31 0 50-16t18-41q0-30-17-43t-52-13h-69m306-58v375h-45v-375h45m60 243v-3q0-39 15-70t43-48 62-16q54 0 87 37t34 99v3q0 39-15 70t-42 47-63 18q-54 0-87-38t-34-99m46 2q0 44 20 71t55 27q34 0 54-27t21-76q0-43-21-70t-55-27q-33 0-54 26t-20 76m357 98q24 0 43-15t20-37h42q-1 23-15 44t-39 32-51 13q-54 0-86-36t-31-99v-8q0-38 14-68t40-47 63-16q44 0 74 26t31 69h-42q-2-25-20-42t-43-16q-34 0-53 24t-19 72v9q0 45 19 70t53 25m322 32l-92-123-29 30v93h-45v-375h45v226l25-29 82-87h55l-103 111 115 154h-53" />
</svg>