<svg id="fnt-Fontdiner Swanky" viewBox="0 0 4792 1000" xmlns="http://www.w3.org/2000/svg"><path id="fontdiner-swanky" class="f" d="M351 308l-2 199-58-153-127 11-3 127 42-3 50-89-4 228-50-85-39-3-2 109 108 45-290 0q25-12 51-23t53-22l-8-271q-28-9-56-19t-56-20q98-8 195-16t196-15m337 240q0 34-16 57t-43 38-57 21-59 7q-27 0-57-7t-54-22-40-38-16-56q0-35 17-59t43-37 58-19 60-5q27 0 56 7t54 21 39 37 15 55m-80 0q0-18-7-33t-18-25-26-17-33-6q-17 0-35 6t-31 14-23 25-9 34 6 35 17 27 28 17 34 6q21 0 38-5t31-15 21-26 7-37m362 54l65 32-212 2 92-35v-88q0-26-13-41t-40-16q-13 0-28 5t-22 16l-11 95q5 4 16 10t21 11q13 7 28 15l-201 1 82-34-15-118q-14-4-32-9t-36-10q-19-6-40-13l193-32-2 30q17-7 37-14t38-7q44 0 68 24t25 69q0 11-1 25t-3 28-5 29-4 25m155-261l94 10-4 46q-24-2-48-4t-47-4q-4 47-8 93t-9 92q0 2 0 5t-1 5q0 6 2 14t4 12 9 10 14 3q16 0 29-7t20-20 13-26 7-28q6 23 6 45 0 22-7 39t-19 30-30 19-37 7q-22 0-38-8t-26-20-16-30-5-38q0-4 0-7t0-8q4-47 8-93t6-94q-13-1-26-2t-26-2l2-39q10-1 22-3t21-8 20-12 15-16q5-8 10-19t8-21 6-22 4-22l40 1-13 122m363 360l106 25-169 23 2-42q-14 3-29 5t-29 1q-29 0-58-7t-52-21-38-38-14-57q0-27 11-49t31-37 43-24 50-8q25 0 50 5t47 15l9-168-108-51 201 14-53 414m-58-38l6-125q-14-10-35-14t-38-5q-18 0-33 6t-25 17-16 25-6 33q0 19 9 33t24 23 32 13 34 4q24 0 48-10m274-342q0 11-4 21t-11 16-17 12-20 4-20-4-17-12-11-16-4-21 4-20 11-16 17-11 20-4 20 4 17 11 11 16 4 20m-17 296l74 51-219-4 82-51-7-162-94-44h180l-16 210m345-15l65 32-212 2 92-35v-88q0-26-13-41t-40-16q-13 0-28 5t-22 16l-11 95q5 4 16 10t21 11q13 7 28 15l-201 1 82-34-15-118q-14-4-32-9t-36-10q-19-6-40-13l193-32-2 30q17-7 37-14t38-7q44 0 69 24t24 69q0 11-1 25t-3 28-5 29-4 25m317-24q0 3 0 7t0 6l-199 4q6 29 29 43t50 14q14 0 28-2t28-7 26-11 22-17q-5 20-18 36t-30 26-38 15-40 5q-27 0-52-9t-43-27-29-41-11-52q0-30 12-55t33-41 46-27 55-9q31 0 55 11t41 31 26 45 9 55m-199-27l124 2q-1-13-5-26t-12-21-19-15-26-6-25 6-18 14-12 21-7 25m482-123q0 20-12 33t-33 13q-15 0-24-5t-13-13-12-13-16-5q-18 0-28 11t-16 27q-1 1-1 9t-1 21-1 28-1 29-1 24 0 14l118 43-282 29q25-16 51-32t51-31l-18-171-109-29 196-43-1 45q21-14 43-24t48-10q9 0 18 2t17 5 15 11 9 16q3 9 3 16m471 149q0 29-16 49t-38 32-49 18-51 5q-29 0-59-9t-53-26l-39 79 18-182q6 22 19 39t29 31 37 19 43 7q8 0 20-1t22-7 17-11 8-18q0-14-11-24t-26-18-32-11-25-6q-21-4-44-11t-44-18-34-29-13-43q0-29 13-49t35-32 47-16 50-5q35 0 63 8t59 26l49-60-18 161q-13-20-29-37t-36-30-42-20-45-8q-9 0-20 2t-21 7-17 12-7 18q0 10 8 17t21 12 24 8 20 4q22 5 50 13t55 22 44 34 18 48m268-182l214 9-95 34-109 238-69-140-63 139-115-236-92-38 257-12-83 34 51 114 61-140 64 144 50-108-71-38m460 277l-155 6 4-27q-16 1-32 2t-31 0q-14 0-31-3t-32-11-24-20-10-30q0-20 9-33t24-22 32-12 34-4q21 0 40 2t40 3q1-6 1-13t1-13q0-13-3-26t-7-23-16-16-26-6q-14 0-26 5t-21 16q6 5 9 12t2 15v3q-7 34-43 34-16 0-26-12t-10-27q0-21 12-37t30-26 39-15 38-5q56 0 87 26t32 85q0 6 0 12t-1 13l-12 112q19 9 36 17t36 18m-145-61l7-55q-12-2-25-3t-25-2q-9 0-17 2t-14 5-11 11-4 16q0 7 4 13t9 10 12 5 13 2q12 0 25-1t26-3m407-9l65 32-212 2 92-35v-88q0-26-13-41t-40-16q-13 0-28 5t-22 16l-11 95q5 4 16 10t21 11q13 7 28 15l-201 1 82-34-15-118q-14-4-32-9t-36-10q-19-6-40-13l193-32-2 30q17-7 37-14t38-7q44 0 69 24t24 69q0 11-1 25t-3 28-5 29-4 25m350 40l100 26-236 50 78-59-99-152-38 26-2 90 97 39-260 10 96-49-20-317-116-27 212-16-5 218 103-88-77-46h251l-112 53-82 61 110 181m168-225l180 19-13 291q-1 37-11 67t-30 52-48 34-68 11q-21 0-43-6t-40-19-29-30-11-42q0-19 11-31t31-12q15 0 26 12t11 27q0 9-6 18t-15 12q11 14 28 21t34 8q26 0 41-13t24-32 11-41 5-42q1-20 1-39t1-39q-23 6-43 10t-43 4q-24 0-45-5t-39-17-26-30-9-45q0-8 2-20t7-26 7-25 6-19l-70-77 168 58q-3 8-8 24t-11 32-9 32-4 23q0 12 6 21t15 15 20 8 21 3q13 0 29-2t28-8l1-122-93-60" />
</svg>