<svg id="fnt-Forum" viewBox="0 0 1250 1000" xmlns="http://www.w3.org/2000/svg"><path id="forum" class="f" d="M92 662h3v5h-72v-5h3q4 0 7-3t5-7 3-8 1-9v-267q0-4-1-8t-3-9-5-7-7-2h-3v-5h192v46h-5q0-11-8-20t-24-9h-102v127h83q11 0 19-7t8-17h5v63h-5q0-9-8-16t-19-6h-83v137q0 4 1 9t3 8 5 7 7 3m234 8q-25 0-45-8t-34-23-22-33-8-43q0-24 9-45t23-34 36-23 44-8 44 8 35 22 22 33 8 42q0 22-7 42t-22 36-35 25-48 9m-3-200q-18 1-32 8t-23 20-14 28-4 32q0 18 5 35t17 31 26 22 33 8 33-8 24-21 14-29 5-32q0-16-5-33t-16-31-26-22-37-8m297-7l-15 30q-6-10-13-12t-15-3q-5 0-12 3t-12 6-12 9-9 9v130q0 4 1 8t3 9 5 7 7 3v5h-65v-5q3 0 6-3t5-7 4-9 1-8v-140q0-7-5-14t-13-9v-4l51-15v30q4-5 9-11t11-9 14-7 18-3q7 0 18 3t18 7m229-12v183q0 4 1 8t3 9 5 8 7 3v5h-49v-28q-7 11-22 22t-37 10q-29 0-46-10t-26-25-12-34-2-34v-72q0-4-1-9t-2-7-5-6-10-2v-5l51-16v128q0 38 16 56t41 18q13 0 23-6t17-14 11-16 4-14v-107q0-4 0-9t-2-7-5-6-10-2v-5l50-16m384 90v93q0 4 1 9t3 9 5 7 7 3v5h-65v-5q4 0 7-3t5-7 3-9 1-9v-108q0-11-3-22t-10-18-16-13-21-4q-14 0-24 6t-16 15-9 18-3 16v110q0 4 1 9t3 9 5 7 7 3v5h-64v-5q3 0 6-3t5-7 4-9 1-9v-111q0-12-5-22t-11-17-17-11-18-4q-13 0-23 5t-16 12-10 16-3 17v115q0 4 1 9t3 9 5 7 7 3v5h-64v-5q3 0 6-3t5-7 4-9 1-9v-133q0-4-1-9t-2-10-5-7-9-3v-5l49-16v25q8-8 21-16t35-8q14 0 25 4t19 10 14 14 10 16q4-8 10-16t13-14 18-10 26-4q28 0 44 10t23 24 10 29 2 26" />
</svg>