<svg id="fnt-Fragment Mono" viewBox="0 0 3982 1000" xmlns="http://www.w3.org/2000/svg"><path id="fragment-mono" class="f" d="M252 467v41h-145v159h-46v-350h215v41h-169v109h145m161 200h-42v-262h39v56q13-28 37-46t57-18q45 0 68 23t28 62h-42q-4-23-18-36t-40-12q-26 0-46 13t-30 38-11 55v127m490-28v32q-16 4-25 4-42 0-47-39-22 21-43 30t-46 10q-38 0-62-21t-23-56q0-27 11-44t28-24 32-11q7-1 22-3t36-5q25-4 35-10t10-18v-9q0-39-60-39-29 0-44 11t-17 35h-42q1-45 29-65t76-20q48 0 73 18t25 54v151q0 20 23 20 4 0 9-1m-72-63v-42q-13 6-33 10t-35 5q-29 4-47 14t-17 35q0 19 14 30t40 11q18 0 36-8t30-23 12-32m244 200q-42 0-72-19t-35-60h44q9 44 64 44 40 0 57-22t17-74v-15q-11 23-32 34t-46 12q-38 0-64-19t-38-50-12-72q0-39 13-70t37-50 63-18q53 0 80 40v-32h42v219q0 55-9 83-11 34-39 51t-70 18m3-139q27 0 43-15t23-38 7-46q0-27-7-50t-24-38-42-14q-25 0-42 13t-26 36-8 51q0 27 8 50t24 37 44 14m219 30h-41v-262h39v27q8-13 23-23t37-10q19 0 33 9t20 26q8-13 24-24t37-11q25 0 41 14t16 40v214h-41v-205q0-14-8-21t-21-7q-21 0-33 11t-12 33v189h-41v-205q0-14-8-21t-21-7q-21 0-33 11t-11 33v189m475-81h42q-7 41-37 65t-75 25q-40 0-66-18t-40-49-13-71q0-44 15-75t42-49 63-17q40 0 66 19t38 53 12 79h-193q1 39 20 64t57 25q52 0 69-51m-70-151q-35 0-53 23t-22 56h147q0-22-9-40t-24-28-39-11m244 232h-41v-262h38v43q16-24 36-37t51-14q23 0 42 8t30 23 11 41v198h-41v-182q0-26-16-39t-38-12q-24 0-40 12t-24 31-8 42v148m374-334v72h103v34h-103v146q0 29 15 40t43 11q13 0 24-1t21-4v37q-13 3-25 4t-22 2q-48 0-73-20t-25-62v-153h-75v-34h75v-72h42m636 234h-39l-64-177v277h-40v-350h52l71 201 71-201h51v350h-39v-277l-63 177m289-170q40 0 66 18t39 50 13 71q0 40-13 71t-39 50-66 19q-40 0-67-19t-39-50-13-71q0-40 13-71t39-50 67-18m0 38q-27 0-43 14t-25 37-7 50q0 27 7 50t25 37 43 14 43-14 24-37 8-50q0-27-8-50t-24-37-43-14m246 232h-41v-262h38v43q16-24 36-37t51-14q23 0 42 8t30 23 11 41v198h-41v-182q0-26-16-39t-38-12q-24 0-40 12t-24 31-8 42v148m372-270q40 0 66 18t39 50 13 71q0 40-13 71t-39 50-66 19q-40 0-67-19t-39-50-13-71q0-40 13-71t39-50 67-18m0 38q-27 0-43 14t-25 37-7 50q0 27 7 50t25 37 43 14 43-14 24-37 8-50q0-27-8-50t-24-37-43-14" />
</svg>