<svg id="fnt-Francois One" viewBox="0 0 2652 1000" xmlns="http://www.w3.org/2000/svg"><path id="francois-one" class="f" d="M109 664l-74 6v-378h191l-6 59h-111v98h78v62h-78v153m152 6v-279l70-6v46q15-22 37-35t57-13v68q-18 0-48 6t-46 22v185l-70 6m248 3q-18 0-33-11t-22-31-8-43q0-54 37-77t87-25q0-27-4-40t-17-13q-11 0-17 9t-8 23l-68-12q5-38 31-55t62-16q46 0 68 24t23 62v146q0 23 8 50l-69 6-8-35q-9 16-26 27t-36 11m32-50q9 0 14-4t15-13v-78q-25 0-40 14t-15 42q0 19 6 29t20 10m157 47v-279l70-6v36q22-19 42-29t39-10q26 0 43 19t17 52v211l-70 6v-191q0-37-26-37-8 0-19 5t-26 14v203l-70 6m357 3q-32 0-55-20t-34-53-12-71q0-38 11-72t35-54 56-21q26 0 46 12t32 36 12 53l-66 3q0-2-2-16t-8-23-14-9q-20 0-26 27t-5 61q0 34 5 61t28 27q27 0 28-53l59 7q-7 52-26 78t-64 27m227 0q-51 0-78-40t-27-106q0-66 27-106t78-39q50 0 78 39t28 106-28 106-78 40m0-52q22 0 29-27t6-68-6-67-29-28-29 26-6 64q0 46 6 73t29 27m224-275l-70 3v-72l70-5v74m-1 318l-70 6v-279l70-6v279m146 9q-42 0-67-19t-33-52l54-18q2 10 8 17 11 17 33 17 13 0 24-6t12-17q0-15-22-24l-59-24q-23-10-36-30t-12-49q0-27 13-46t35-30 47-10q31 0 58 18t35 50l-58 18q-2-9-7-17-11-17-28-17-12 0-21 5t-9 17q0 13 24 24l50 21q27 12 42 31t15 51q0 29-14 49t-37 31-47 10m369 1q-64 0-90-55t-25-142q0-92 27-142t89-50q116 0 116 190 0 86-26 142t-91 57m1-59q26 0 35-35t8-105q0-57-8-94t-35-37-35 37-8 93q0 71 8 106t35 35m168 55v-279l70-6v36q21-19 42-29t38-10q27 0 43 19t17 52v211l-70 6v-191q0-37-25-37-9 0-19 5t-26 14v203l-70 6m359 3q-50 0-77-40t-26-105q0-67 27-107t78-39q49 0 75 39t26 107q0 4-1 5t-2 3h-133q0 32 8 59t26 27q20 0 29-23t10-23l53 20q-10 36-33 56t-60 21m-33-178h67q0-30-8-47t-25-18q-8 0-16 9t-13 23-5 33" />
</svg>