<svg id="fnt-Fraunces" viewBox="0 0 2128 1000" xmlns="http://www.w3.org/2000/svg"><path id="fraunces" class="f" d="M40 317h177q9 0 14-3t9-5 9-2q6 0 9 3t6 10l19 72q2 5-1 8t-7 4q-4 1-8-1t-6-7q-11-25-21-38t-20-17-26-4h-69v294q0 6 3 9t9 5l26 3q5 0 7 3t3 7q0 4-3 6t-9 3h-121q-6 0-9-3t-3-6q0-8 10-10l16-3q6-2 9-5t4-9v-279q0-5-4-9t-9-4l-16-3q-10-3-10-10 0-5 3-7t9-2m59 193v-20h87q16 0 22-6t9-24q1-4 3-7t6-2q9-1 11 8l18 72q2 5 0 8t-5 5q-4 1-8-1t-6-6q-6-11-12-17t-11-8-17-2h-97m298 26l-8 0q0-35 10-60t27-37 36-12q23 0 35 12t13 35q0 17-8 26t-19 9q-11 0-18-7t-6-18v-9q0-8-4-12t-13-5q-11 0-21 9t-17 26-7 43m-2-94l2 58v132q0 6 3 10t10 4l23 3q5 1 7 3t3 6q0 4-3 6t-9 3h-106q-5 0-8-3t-3-6q0-3 2-5t7-3l12-3q5-1 7-4t3-11v-155q0-5-2-8t-6-3l-17-1q-5 0-7-2t-1-5q0-3 2-5t7-4l41-14q10-4 15-5t8-1q4 0 6 3t4 10m297 194v-5l-3-2v-142q0-22-11-34t-31-11q-19 0-28 8t-10 19v19q0 12-8 19t-22 6q-12 0-18-6t-7-17q0-15 12-30t35-24 56-9q42 0 63 18t21 49v135q0 9 3 12t9 4q6 0 8-3t5-5q1-2 3-3t3-1q3 0 4 2t1 5q0 7-5 14t-14 13-24 5q-20 0-31-9t-11-27m-149-21q0-30 26-49t74-19q17 0 31 3t25 8l-4 14q-10-4-21-7t-24-3q-25 0-39 12t-14 32q0 20 12 31t29 11q17 0 32-8t27-21l5 11q-15 20-38 31t-49 11q-32 0-52-15t-20-42m448 23v-17l-1-1v-143q0-6-2-8t-6-3l-17-1q-4 0-6-2t-2-5q0-3 2-5t8-4l41-15q8-3 13-4t9-1q6 0 9 3t4 10v190q0 7 2 11t8 4l11 3q4 1 6 3t3 5q0 4-3 6t-9 3h-44q-11 0-19-8t-7-21m-157-39v-122q0-6-2-8t-6-3l-17-1q-4 0-6-2t-2-5q0-3 2-5t8-4l41-15q9-3 13-4t9-1q6 0 9 3t4 10v149q0 25 12 37t32 12q13 0 27-6t31-20l10-9 10 9-11 10q-30 27-52 38t-42 10q-32 0-51-19t-19-54m363-157v190q0 7 3 10t7 5l11 3q8 2 8 8 0 9-12 9h-89q-6 0-8-3t-3-6q0-3 2-5t6-3l12-3q5-1 8-5t2-10v-155q0-6-2-8t-6-3l-17-1q-4-1-6-2t-2-5q0-3 2-5t8-4l42-15q8-3 12-4t9-1q7 0 10 3t3 10m4 43l-11 10-10-10 11-10q30-26 51-37t41-11q30 0 47 20t20 53l15 131q1 8 3 11t8 5l11 3q4 1 6 3t2 5q0 4-3 6t-8 3h-90q-12 0-12-9 0-6 8-8l12-3q5-1 8-5t2-11l-15-123q-3-24-13-37t-29-12q-11 0-25 6t-29 20m435 7q0 11-8 19t-20 8q-13 0-20-7t-7-19v-7q0-18-12-29t-34-11q-19 0-34 11t-23 31-9 47q0 32 11 55t31 34 44 12q24 0 41-11t25-29q4-5 6-6t4-2q4 0 5 3t2 7q-2 20-15 37t-35 27-49 10q-35 0-62-14t-42-42-15-62q0-36 16-65t42-45 65-17q29 0 49 9t33 24 11 32m258 29q0 11-7 17t-20 6h-159v-16h120q12 0 12-11 0-33-14-52t-39-19q-19 0-34 11t-22 31-8 47q0 49 23 75t63 26q25 0 43-11t26-30q3-4 5-6t5-1q3 0 4 3t2 7q-2 20-15 37t-36 27-50 10q-35 0-62-14t-42-42-15-62q0-37 15-65t41-46 64-16q31 0 53 12t35 33 12 49m144 133q19 0 30-10t10-25q0-10-4-17t-17-14-33-12q-35-8-54-20t-28-26-8-33q0-32 23-51t65-19q16 0 26 3t17 5 12 3q5 0 7-3t6-6 7-2q3 0 5 2t4 7l18 53q3 7 2 11t-6 7q-4 1-8 0t-6-7q-11-21-24-33t-28-17-29-5q-24 0-36 10t-12 27q0 10 5 18t19 15 37 13q31 7 49 18t26 25 8 34q0 20-10 35t-28 24-43 9q-15 0-24-4t-16-6-12-3q-5 0-8 3t-6 6-7 4q-3 0-5-2t-3-8l-10-50q-2-8-1-13t5-5q4-2 7 0t8 9q14 27 32 38t38 12" />
</svg>