<svg id="fnt-Freckle Face" viewBox="0 0 2754 1000" xmlns="http://www.w3.org/2000/svg"><path id="freckle-face" class="f" d="M279 393q-3 7-11 11t-20 6-25 3-25 1-21 1-13 0q-5 0-9 2t-8 2-10 2-11 1h-3q2 15 4 31t3 33q6-3 11-4t11-1 12 0 13 0q7-1 15-3t15-3q5 0 10 4t7 8 5 11 2 12q0 4-3 9t-9 8-13 7-14 3q-3 0-5-1t-5-3-5-3-5-1q-1 0-4 0t-6 2-4 1-2 1q-5 0-9-1t-7-1q-3 0-4 3t-1 7q0 7 1 12t4 10 4 7 4 10q2 5 3 12t3 15 2 16 0 14q0 3 0 9t-2 12-3 11-4 8q-1 1-4 2t-7 2-8 2-5 2q-6 1-12 4t-12 3q-4 0-10-3t-12-3q-11-1-18-3t-10-7-5-11-3-17q-1-3-2-5t-1-3q0-3 0-6t2-7 2-7 1-8 0-9-1-8q0-4 2-9t1-9q0-10-1-19t-2-14q1-4 3-8t3-7 4-9 1-12q0-9-1-19t0-19q0-5 0-11t0-12q0-8-3-12t-7-4-8 0-7-1q-3-1-6-4t-7-6-4-7-2-7q0-2 0-5t0-5q0-4-1-8t-3-8-3-11-1-12q0-8 5-12t13-6 17-3 17-5q6-3 14-3 9 0 18 3t19 7 16 7 15 5q1 0 3 0t3 0q7 0 14-1t15-2 14-3 12-1q3 0 6 0t7 1q7 0 14-1t13-3 11-2 10-1q7 0 12 3 1 2 3 7t4 13 3 15 1 13q0 1 0 3t0 2m229 113q-1 2-2 4t-2 3-3 5-1 8q0 2 1 4t0 3q0 7-3 11t-9 7-13 4-15 3q-6 2-12 4t-12 2q-11 0-15-6t-5-15-1-19 0-19-4-15-11-6q-4 0-7 1t-7 3-7 3-4 3q-4 1-8 3t-10 4-7 5-3 6q0 5 2 14t6 17 5 16 3 8-1 3 0 4q0 4 0 7t2 9 2 8 1 10q0 1 0 6t-1 10-1 11-2 7q-1 2-3 3t-4 1-4 1-4 3q-6 3-8 6t-5 5-6 3-11 1q-10 0-17-2t-12-8-6-14-2-21q0-8 1-16t3-16 4-16 3-17q1-12 2-25t1-25q0-10-2-22 0-3-1-6t-1-6q0-4 0-8t2-8 2-8 2-9q0-4-1-7t-2-5q0-7 3-10t6-6 5-2 1 0q9 0 15 4t7 9 4 12 1 12 1 10 4 4q2 0 5-2t6-4 4-3 0 0l0 0q0 0 0 0 1-1 2-1-1 0-1 0h0q3-2 6-5 3-2 6-4t6-4q4-3 9-4t10-3q3-3 7-6t6-5q3-2 8-3t9-2 9-1 9-1q3 0 5 1t5 3 5 3 6 3q5 2 11 2t11 3 9 7 4 16q0 4 1 8t2 7 2 5 1 6q0 2-1 5t0 7q0 5 2 10t2 9m233 102q1 5 2 9t0 8q0 4 0 6t-2 3-3 3-4 5q-3 5-6 10t-7 9-8 7-13 3q-4 0-9-1t-10-1-10-1-8-1q-17 0-34 0t-33-5q-5-1-11-2t-11-3-11-3-9-5q-10-11-16-23t-10-28-5-35-2-43q-1-8-2-16t-1-11q0-2 1-7t3-7q1-6 1-11t0-6q1-2 3-4t6-5 5-6 5-5q2-3 8-6t17-8 23-8 25-8 26-5 25-2q4 0 10 1t11 5 11 6 10 8q1 2 3 6t4 8q5 6 8 10t2 6 1 6 0 10q1 5 1 8t0 6 0 6 0 6q0 7-4 12t-10 8-15 7-19 8q-9 4-18 6t-18 2q-2 0-2 0t-2-1q-2 0-6 1t-10 3-11 3-12 1q-4 0-8 1t-6 3-4 4-2 3q0 8 3 13t7 8q4 3 10 5 6 2 11 3t12 1q9 0 19-1t23-2q6 0 10 2t10 1q5 0 10-1t10-2 9-2 7-1q10 0 14 6t6 20m-94-112q0-1 1-3t0-3q0-7-1-13t-4-10-4-6-4-2q-4 0-13 2t-19 4-17 6-10 6q-1 2-2 6t0 9q0 10 1 15t5 6q2 0 5-1t5-1 5-2 3-1q6-1 13-1t16-2 13-3 7-6m349-3q0 6-4 11t-9 9-9 6-5 3q-5 2-10 5t-11 5-12 4-12 2q-11 0-17-4t-10-10-4-13-3-15-3-13-6-9q-3-2-9-3t-12 0q-4 0-8 0t-8 0-5 1-2 1q-3 1-5 6t-3 12-1 12-2 10q-1 10-4 20t-2 20q0 2 1 8t4 11 6 11 6 7q2 1 6 1t8 1 9 0 8 1q7 1 13 3t13 5 13 4 12 2q12 0 20-4t16-12q2-2 4-4t4-5 4-3 7-1q6 0 8 5t3 14q0 19-7 34t-25 25q-3 2-7 2t-7 1q-4 2-8 5t-6 7-8 5-12 2q-6 0-14-3t-15-5q-4-1-7-1t-7 0-7-1-5-1q-5-2-12-6t-14-9-15-11-15-11q-6-4-10-6t-6-5-5-7-5-11-6-13-2-10q0-7 0-16t1-18q0-8 0-15t-1-15q0-14 3-26 1-3 3-5t4-4q1-4 3-8t3-9 3-8 4-6q3-4 7-9t11-11 11-9 10-3q7 0 16 1t16 2q6 0 8-1t4-2 3-3 2-3 6-3 10-1q4 0 9 0t9 1q11 1 19 1t15 1 12 3 11 8 11 16 14 26q2 3 3 7t3 9 2 8 1 7m245 1q-2 4-7 7t-11 5-11 2-11 2-8 2-4 3q0 7 3 14t7 14 9 14 10 12 7 9 3 5q0 2-1 3t-1 4-1 4-1 6q0 4 1 8t3 8 3 7 1 6q0 3-1 5t-3 3-6 2-7 3q-4 1-9 4t-11 4-12 3-12 2q-11 0-18-8t-12-19-10-25-9-26q-2-4-4-11t-3-12-4-12-3-5q1 0-2 0t-7 1-7 1-4 1q-1 0-1 2t-1 4q0 2 1 6t1 6 1 6 1 4q0 8 0 16t1 16 1 15 2 13q2 4 4 9t3 9q-1 6-5 10t-10 7-11 4-11 2q-15 0-24-1t-16-6-8-15-3-29q0-8 1-16t1-16 1-14 1-10q1-4 2-6t2-6q0-7-2-15t-1-15q0-5 2-9t4-9 4-9 2-13v-14q0-7 0-16t2-16 2-15 1-14q0-2 0-6t-1-10-1-12-1-11q0-9 3-14t5-5 7-2 7 0q1 0 5 0t8 1 7 2 5 2q1 1 2 6t1 11 1 12 0 7q0 2-1 4t-3 4-2 5-2 7q0 6 1 13t1 14q0 3 0 6t-1 6q0 4 2 7t1 8q0 5 0 9t-1 9q0 3 0 6t1 7 2 5 2 2q3 0 7-2t8-3 7-4 7-3q10-5 18-8t18-7 17-7 21-7q4-2 8-4t5-3q3 0 7 2t7 1 7-1 7 0q3 0 7 2t5 7 4 10 1 9q0 8-3 14m148 120q1 2 1 4t0 2q0 6-3 10t-4 9q-1 2-2 5t-4 7-4 6-7 3q-4 0-10-1t-11 0q-6 0-14 0t-18 1h-4q-10 0-19 2t-15 1q-4 0-7-1t-7-5-6-8-2-10q0-6 4-8t9-5 9-5 4-8q0-5-1-11t-2-12-3-13-1-12q0-9 1-18t0-19q0-25-1-46t-3-40-3-38-1-39q0-9 1-15t6-11 11-8 19-2q13 0 21 2t13 8 7 12 2 19q0 9-1 18t-1 19v13q0 6-1 12t-1 13-2 13-1 14q0 20 2 41t1 42q0 22 0 33t6 11q3 0 8-2t10-1q8 0 15 4t9 14m229-6q1 5 2 9t0 8q0 4 0 6t-2 3-3 3-4 5q-3 5-6 10t-7 9-9 7-12 3q-4 0-9-1t-10-1-10-1-8-1q-17 0-35 0t-32-5q-5-1-11-2t-11-3-11-3-9-5q-10-11-16-23t-10-28-5-35-3-43q0-8-1-16t-1-11q0-2 1-7t3-7q1-6 1-11t0-6q1-2 3-4t6-5 5-6 5-5q2-3 8-6t17-8 23-8 25-8 26-5 24-2q5 0 11 1t11 5 11 6 9 8q2 2 4 6t4 8q5 6 7 10t3 6 1 6 0 10q1 5 1 8t0 6 0 6 0 6q0 7-4 12t-10 8-15 7-19 8q-9 4-18 6t-18 2q-2 0-2 0t-2-1q-2 0-6 1t-10 3-11 3-12 1q-4 0-8 1t-6 3-4 4-2 3q0 8 3 13t7 8q4 3 10 5 6 2 11 3t12 1q9 0 19-1t23-2q6 0 10 2t10 1q5 0 10-1t10-2 8-2 8-1q10 0 14 6t6 20m-94-112q0-1 1-3t0-3q0-7-1-13t-4-10-4-6-4-2q-4 0-13 2t-19 4-17 6-10 6q-1 2-2 6t0 9q0 10 1 15t5 6q2 0 5-1t5-1 5-2 3-1q5-1 13-1t16-2 13-3 7-6m495-103q-2 7-11 11t-20 6-24 3-26 1-21 1-12 0q-5 0-9 2t-9 2-9 2-12 1h-3q3 15 5 31t2 33q6-3 12-4t11-1 11 0 13 0q8-1 15-3t15-3q6 0 10 4t8 8 5 11 1 12q0 4-3 9t-9 8-12 7-15 3q-3 0-5-1t-5-3-4-3-5-1q-2 0-5 0t-5 2-5 1-2 1q-4 0-8-1t-7-1q-3 0-4 3t-2 7q0 7 2 12t3 10 5 7 4 10q1 5 3 12t2 15 2 16 1 14q0 3-1 9t-1 12-3 11-5 8q-1 1-4 2t-7 2-7 2-6 2q-5 1-12 4t-11 3q-4 0-10-3t-12-3q-12-1-18-3t-11-7-5-11-3-17q0-3-2-5t-1-3q0-3 1-6t2-7 2-7 1-8-1-9-1-8q1-4 2-9t2-9q0-10-2-19t-2-14q1-4 3-8t4-7 3-9 1-12q0-9 0-19t-1-19q0-5 0-11t1-12q0-8-3-12t-7-4-9 0-6-1q-3-1-7-4t-6-6-5-7-2-7q0-2 0-5t1-5q0-4-2-8t-2-8-3-11-2-12q0-8 6-12t13-6 17-3 16-5q7-3 14-3 9 0 19 3t18 7 17 7 14 5q1 0 3 0t4 0q6 0 14-1t14-2 14-3 12-1q3 0 7 0t7 1q7 0 13-1t13-3 12-2 10-1q7 0 11 3 2 2 3 7t4 13 3 15 2 13q0 1 0 3t-1 2m235 121q0 6 1 11t0 12q0 18-2 35t-4 35q0 5-2 10t-1 10q0 9 2 18t2 15q0 2-2 7t-6 10-11 10-17 4q-11 0-14-6t-4-16q0-7 1-15t3-16q-6 1-11 4t-11 7q-11 6-21 13t-23 13-27 10-34 4q-1 0-4 0t-8 0-9-2-8-3q-6-5-11-13t-8-16-6-13-3-7q0-2 0-3t0-2q0-5 1-11t1-10 2-9 1-4q0-6-1-12t-1-13q0-3 0-7t2-7q0 0 1-3t3-6 3-7 2-4q2-1 5-2t7-2 7-2 7-3q6-2 11-7t8-5q2-1 6-2t9-3q4-1 8-3t10-3 11-3 10-2q2 0 5 1t8 1q4 0 9-2t11-1 14 1 9 1q3 0 4-2t0-4q0-3-1-8t-4-10-3-8-3-4q-3-5-8-7t-8-3q-4 0-8 1t-8 1q-4 0-7 0t-7-1q-8 0-19 4t-22 10-21 10-15 6q-3 1-7 2t-6 0q-2 0-6-2t-7-5-6-7-2-8q0-6 3-10t8-6 10-5 10-5q5-3 13-8t13-9q5-4 8-8t6-6 11-4 13-3q2-1 6-2t7-3 7-2 6-1h1q4 1 10 2t13 2 13 1 12 3q2 0 4 2t3 2q9 3 15 6t11 8 9 18 9 30q1 4 3 8t4 7q2 6 3 15t2 16m-59 65q2-1 2-5t0-10q0-6 0-10t-1-6-2-4-3 0q-2 0-3 0t-2 0q-1 1-2 1-4 0-7 0t-7 0q-6 0-12 0t-11 2-11 3-12 3q-9 2-16 3t-13 2-8 7-3 15q0 10 6 14t15 4q3 0 8-2t8-2 10-3 10-3q4-1 8-2t9-1 8-2 6-1q2 0 6 0t7-1 7-1 3-1m319-86q-1 6-4 11t-9 9-9 6-6 3q-4 2-9 5t-12 5-12 4-12 2q-10 0-16-4t-10-10-4-13-3-15-3-13-7-9q-2-2-8-3t-12 0q-4 0-8 0t-8 0-5 1-2 1q-3 1-5 6t-3 12-2 12-1 10q-1 10-4 20t-3 20q0 2 2 8t4 11 6 11 6 7q2 1 6 1t8 1 9 0 8 1q6 1 13 3t13 5 13 4 12 2q12 0 19-4t16-12q3-2 4-4t4-5 5-3 6-1q7 0 9 5t2 14q0 19-6 34t-25 25q-3 2-7 2t-7 1q-5 2-8 5t-6 7-9 5-11 2q-6 0-14-3t-15-5q-4-1-8-1t-7 0-6-1-6-1q-4-2-11-6t-14-9-15-11-15-11q-6-4-10-6t-6-5-5-7-6-11-5-13-3-10q0-7 1-16t1-18q0-8 0-15t-1-15q0-14 3-26 0-3 3-5t3-4q2-4 4-8t3-9 3-8 4-6q2-4 7-9t11-11 11-9 9-3q8 0 17 1t16 2q5 0 8-1t4-2 2-3 3-3 6-3 10-1q4 0 8 0t10 1q11 1 19 1t15 1 12 3 10 8 12 16 14 26q1 3 3 7t3 9 2 8 1 7m237 115q0 5 1 9t0 8q0 4 0 6t-2 3-3 3-4 5q-3 5-6 10t-6 9-9 7-12 3q-5 0-10-1t-10-1-9-1-9-1q-17 0-34 0t-33-5q-5-1-11-2t-11-3-10-3-9-5q-11-11-17-23t-10-28-5-35-2-43q-1-8-2-16t-1-11q0-2 2-7t2-7q1-6 1-11t1-6q0-2 3-4t5-5 6-6 4-5q2-3 9-6t16-8 23-8 25-8 27-5 24-2q4 0 10 1t12 5 11 6 9 8q2 2 3 6t4 8q6 6 8 10t2 6 1 6 0 10q1 5 1 8t0 6 0 6 0 6q0 7-3 12t-10 8-16 7-19 8q-8 4-18 6t-18 2q-1 0-2 0t-2-1q-2 0-6 1t-9 3-12 3-12 1q-4 0-8 1t-6 3-4 4-2 3q0 8 3 13t7 8q5 3 10 5 6 2 12 3t11 1q9 0 19-1t23-2q6 0 11 2t9 1q5 0 10-1t10-2 9-2 8-1q9 0 14 6t6 20m-95-112q1-1 1-3t0-3q0-7-1-13t-3-10-4-6-4-2q-5 0-14 2t-19 4-17 6-10 6q-1 2-1 6t-1 9q0 10 2 15t4 6q3 0 5-1t5-1 5-2 3-1q6-1 14-1t15-2 13-3 7-6" />
</svg>