<svg id="fnt-Freehand" viewBox="0 0 1643 1000" xmlns="http://www.w3.org/2000/svg"><path id="freehand" class="f" d="M266 317q2 4 2 5 1 2 3 5t4 2q6 0 7 1 0 0 1 0t1 1q0 5 0 6 1 0 1 1 0 3-1 7-1 4-3 8l-5 7q-3 4-5 8l-5 7q-3 2-4 6-1 4-5 6-3 3-7 5t-6 6l-6 7q-1 2-2 4-2 1-3 4-3 4-5 9-2 4-6 7-8 13-16 23-9 11-17 22 7 0 11 0 3-1 6-1t7-1q15-1 27-1t26-1q4 3 2 8-2 0-4 1t-3 0q-2 1-3 3t-1 2q-3 9-13 9-5 0-10 1t-8 0q-6 1-6 1 0 0-1 0l-18 2q-4 1-9 2t-8 1q-3 2-6 1-3-1-6 0-1 1-2 3 0 1-1 2-2 3-4 7t-5 6q-4 5-9 12-2 2-3 3-1 3-2 4-8 11-18 22-1 2-2 5t-3 4l-5 9q-3 5-5 12-2 4-3 7-1 1-2 2t-1 4q-3 4-5 8t-5 9q-6 10-13 21t-14 23q-1 1-2 3t-1 3q-2 3-4 5-1 2-3 3-1 1-2 1t-1 1q-4 3-10 7t-9 6q-5 1-7 4t-3 7q-7 3-10 0t-3-7q0-2 3-5 1-2 2-3t1-2l5-8q2-4 3-5t1-3l2-3q1-1 1-3 2-3 4-6 0-2 1-3t2-4q4-4 7-9t7-10q1-2 3-4t3-4q3-6 6-12 4-5 5-13 2-8 5-12 2-4 5-8 1-4 2-7t3-5q3-5 5-9t5-9q2-6 7-13 1-1 1-2t1-1 1-1 1-2q2-4 3-6t3-7q2-2 3-4 2-2 2-6-4-1-8 1-3 1-6 1t-7 1q-9 1-15 1-3 0-6 1t-6 0l-5 3q-2 1-5-2-2-2-3-3t-1-1q-3-5-5-8-1-1-1-3-1-1-3-2-1-1-3-5 5-7 14-7 10-2 21-4t21-2 21-3 21-2q1-1 2-3 1-2 2-3 1-2 2-3t3-3q2-2 4-6 2-2 2-3t2-2q2-3 2-5 1-2 2-2 5-8 7-11 2-3 4-7 2-1 3-3t2-3 3-2 2-3q1-2 2-3t2-1l2-4q4-7 11-14 5-6 8-14 3 0 4-3 1-2 3-3 2-6 6-11t6-10q-3-1-6 1t-8 1q-2 1-4 1t-3 1-4 1-3 1q-8 1-16 4-4 2-7 4t-8 2q-9 1-18 2t-17 2-17 2-17 1q-2 0-4 1t-4 0-4 0-4 1q-7 0-15 1-3 0-5 0-1 0-4 0-6-2-7-3-1-1-4-1-3-1-3-2-1-1-2-1-3-4-4-5t3-4q2-4 8-5 6-1 10-3 3-1 7-2t6-1q4-1 7-1t7-2q4-1 7-2t6 0q4-1 8-3 7 0 14-2 3-1 7-1t6-2q1-1 4-1 3-1 4-2 5 0 5-1 13-2 25-5t24-6q23-6 49-9 11-1 19 3m86 311q2-3 3-4 1-1 3-2 6-13 16-20t21-17q2 0 4-2t4-3q3-2 6-4 2-2 4-4 5-3 10-7 5-5 10-9 4-1 8 1 2 4 2 9t-5 4q-1 2-3 3t-4 2q-5 1-7 4 0 5-1 6t-1 2q-5 9-12 15t-13 16q-2 2-4 5-9 5-13 8t-7 6q-3 2-3 3 0 1-1 2-5 4-6 6t-2 4q-3 1-4 3t-3 3q-3 3-7 4-4 3-12 8t-17 7-14 0l-3-2q-1-1-4-2-3-4-7-7-3-3-6-7-4-5-5-11-1-5-4-11-1-12 2-21 3-8 6-15t7-13q8-12 11-28-6-6-6-10-1-3-1-6t-2-7q-13 8-23 21t-19 26l-6 10q-3 5-6 9-3 3-3 3t-1 2q-2 2-3 4t-2 3 0 2-1 1q-2 2-3 3t-2 3q-7 10-13 18l-11 18q-3 4-5 8-1 5-5 8-4 0-5-2t0-3q-6-4-7-15t3-18q-2-5-1-5t0-2q7-8 13-17t14-17q1-1 2-3t3-4q2-3 5-6 4-7 10-15 6-7 9-15 3-2 4-5 1-3 4-5 2-3 3-6t3-5q1-5 5-9 1-4 2-6t4-4q0-2 3-4t4-4q1-4 2-5 2-1 2-3 2-3 4-5t5-7q7-4 9-4t4-2q2 0 5 0t5-1q5 0 6 4 0 1 0 2-1 1-1 2t0 1q0 5 0 5-1 1-1 1 0 2 0 3 0 1 0 5 0 2 0 3t-1 3q0 2 2 5 1 2 3 3t3 3q2 1 2 3t2 3q1 1 3 2t3 4q2 2 1 2 0 1 3 2 5 7 8 15 3 7 5 10 3 4 0 8-1 1-3 6-2 2-4 5-1 1-1 3-1 2-2 4-4 7-9 12t-8 12q0 14 5 21 6 7 8 7 3 0 6-2l7-4q1-1 2-1t1-1q2-1 4-1 5-2 5-2-1 1 0 1m52-69q3-2 8-8t9-11 7-6q1-3 2-4t4-3q4-8 10-12 7-6 13-11 4-2 9-5t9-5q10-7 22-7 5 2 10 1 5-1 10 3 2 5 4 5t3 3q2 6 3 8 1 2 1 4 1 4 1 7t0 4q1 3 0 6-1 12-5 25 0 1-1 3t-1 3q-1 3-2 6-4 4-5 7-2 4-3 5-3 3-6 6t-5 4q-2 1-4 3t-4 2q-4 3-10 4l-4 3q-3 1-5 2-5 3-10 5-3 1-5 2t-5 2q-4 1-7 3t-7 4q-2 1-7 2-4 1-6 2 2 5 2 12-1 7 2 12 7 2 14 2t14 0q2 0 3-1t3-1 3-1 3 0q5-1 10-3t9-4q14-5 28-13t23-18q5-4 12-11t11-12q8-8 13-13t11-3q4 0 7 4t0 10q-5 3-11 9-5 6-11 8-4 3-11 11-6 8-11 12-1 1-2 2t-3 2q-3 3-5 6-8 6-15 10-2-1-4 1-2 3-4 4-1 1-1 1t-2 1-2 1-1 1q-4 3-9 7t-9 6q-5 3-10 5t-10 5-10 4-9 6l-5 1q-2 0-3 0t-2 1q-3 1-5 1t-6-1q-17-5-27-16-1-1-3-3t-3-2q-4-3-5-6-3-3-5-11t-4-16-2-13q2-3 3-10t3-14 2-10q1-1 3-7t6-11 2-7m79-32q-4 5-7 9t-8 7q-3 5-7 10t-7 8q-2 4-5 6t-5 5q-3 5-8 10t-2 11q5 1 11-1t9-4q2-2 4-3t4-2 4-2 4-2l12-12q3-3 6-7 2-2 3-3t3-4q1-5 4-10 2-5 2-10 0-2-2-5t-1-5q-6 0-8 2-1 1-3 1t-3 1m83 32q3-2 8-8t9-11 6-6q2-3 3-4t4-3q4-8 10-12 7-6 12-11 5-2 10-5t9-5q9-7 21-7 6 2 11 1 5-1 9 3 3 5 5 5t3 3q2 6 2 8 2 2 2 4 0 4 0 7t1 4q0 3 0 6-2 12-5 25 0 1-1 3t-1 3q-1 3-2 6-4 4-5 7-3 4-4 5-3 3-5 6t-5 4q-2 1-4 3t-5 2q-4 3-9 4l-5 3q-2 1-5 2-4 3-10 5-2 1-5 2t-5 2q-3 1-6 3t-7 4q-2 1-7 2-5 1-7 2 3 5 2 12 0 7 3 12 6 2 14 2t14 0q1 0 3-1t2-1 3-1 3 0q6-1 11-3t9-4q14-5 27-13t23-18q6-4 13-11t11-12q7-8 13-13t11-3q3 0 7 4t-1 10q-4 3-10 9-5 6-11 8-4 3-11 11-7 8-11 12-1 1-2 2t-3 2q-3 3-5 6-8 6-15 10-3-1-4 1-3 3-4 4-1 1-2 1t-1 1-2 1-2 1q-4 3-8 7t-10 6q-5 3-9 5t-10 5-10 4-9 6l-6 1q-1 0-2 0t-3 1q-2 1-5 1t-6-1q-16-5-26-16-2-1-3-3t-3-2q-4-3-6-6-2-3-4-11t-4-16-2-13q1-3 3-10t3-14 1-10q1-1 4-7t5-11 3-7m79-32q-4 5-7 9t-8 7q-3 5-7 10t-8 8q-2 4-4 6t-6 5q-3 5-7 10t-2 11q5 1 10-1t10-4q2-2 4-3t4-2 4-2 3-2l13-12q3-3 6-7 1-2 2-3t3-4q1-5 4-10 3-5 3-10-1-2-2-5t-2-5q-5 0-7 2-2 1-3 1t-3 1m102 103q11-10 21-22 5-5 10-11t11-12q2-2 4-6t5-7q2-3 5-6 3-3 5-5 2-2 4-4 1 0 2-1t2-2q3-3 5-4t4-4q2-2 4-3t4-4q4-4 10-6 3-1 4-2 1-2 4-4 3 0 4 0 1-1 2-1t2-1q7 1 11 5t8 8q4 1 6 2t4 3q2 4 3 7t2 8q0 2-1 6 0 2 0 3t-1 3q-2 6-1 6t0 2q1 4-3 8-3 4-1 8 0 2-1 8t-2 7q1 3 1 8t3 6q5 2 7 2h3q6-3 15-10t13-12q2-2 4-4t5-3q4-5 10-7 7-5 8-7l6-7q2-1 4-3t4-3q4-4 8-5h6q3 0 4 2 1 3 0 6t-2 6q-2 2-4 5-2 4-5 7-1 1-2 2t-3 3q-3 4-7 5-1 2-2 3t-3 2l-4 5q-3 3-5 5t-4 6q-3 2-5 4t-6 4q-5 4-9 10-2 1-4 2-1 1-3 2-7 2-13 7t-12 10-14 4q-5 3-9 0t-8-4q-6-4-10-8t-6-12q-1-13 3-24 4-12 6-23 0-1 1-9t0-10q0-1-1-3 0-2-4-5-2-1-2 0 0 1-4 1-4 1-7 3-1 2-3 3t-3 2q-4 5-11 10-6 4-10 10-4 5-8 9-3 4-8 9-13 16-26 29-2 2-4 4t-3 4-3 3-3 4q-6 8-13 15-3 4-8 9t-11 6q-1-1-3 0t-3 1q-3-1-5-2t-2-1q-1 0-1-2-5-3-4-9t2-12q2-11 6-22t7-21 8-22 6-21q2-8 5-16t6-14q3-8 4-14t5-14q2-4 3-8 2-4 3-7 6-10 11-24 4-14 10-26 6-15 12-30t14-29q5-19 15-35 5-6 7-10 2-5 4-8 6-7 13-11 7-3 13-11 4-1 7-2 2-1 4-2t4-1q1 2 1 6 1 0 1 3t0 5q0 7-2 10l-2 5q0 4 0 5 0 2-1 4-1 5-1 5t0 2q0 1 0 4t-1 5q0 5-3 12-1 5-3 10-3 4-4 6t-2 2q-1 4-2 8t-3 8q-2 8-7 15-2 5-5 10-2 3-3 5t-3 5l-2 5q-2 3-2 5-4 6-7 13t-9 12q-9 18-19 37t-19 36q-1 3-3 5t-1 5q-2 2-2 6-1 3-3 5-1 2-1 4t-2 4q-1 4-3 7-2 10-6 19-4 8-7 18m361-99l0 4q0 2-1 6-3 3-3 6-1 2-2 3t-1 4q-1 3-1 7 1 2 0 4t0 4q-1 5-1 10t-1 11q0 5-1 12t-2 12q2 4 2 7 0 4 4 7 9-2 15-5t11-9q4-2 7-4 1-1 5-3l4-4q6-3 7-4 0-1 1-1t2-1q8-6 13-11 3-3 6-7 2-2 7-5 3-4 7-6t7-7q3 0 4 1 1 1 2 1t2 1q1 4 0 8t-3 8q-3 3-3 4 0 0 0 1-2 1-4 3-2 2-3 4-3 4-4 4t-3 1q-4 3-6 4-2 2-6 4-5 3-6 4t-2 1q-6 7-11 11-5 4-11 11-2 2-4 3t-4 4q-4 3-7 6t-6 7q-3 1-6 4-4 3-8 5-1 1-4 2-2 1-4 1-6 1-11-1-5-1-9-3-2-3-5-5-5-5-7-12t-3-16q-5 3-8 6-3 4-9 7-4 4-10 9t-10 9q-6 4-11 8t-12 9q-3 4-5 3-4 6-16 4-3-2-8-4-4-1-8-3-8-1-14-7t-10-14q-1-4-2-7 0-2 0-4t-1-4q-1-4-2-6-1-3 0-5-1-2 0-4 0-2 0-3 0-7 1-15t5-14q1-2 4-5 1-1 1-3 1-1 2-2 1-2 3-3 2-2 3-3 1-2 3-3t3-3 3-3 3-3q2-2 3-3 1-2 3-3 2-4 5-6t5-4q8-11 20-18 13-7 22-15 4-2 6-4t5-4q6-5 13-3l13 3q5 5 10 9t8 10q1 0 3 0t4 0q5 0 10-1 1 0 3-1t2 0q7 2 7 7m-64 7q-13 7-24 15t-20 18q-2 2-3 3t-3 2q-1 1-2 2t-2 3q-2 2-4 6t-3 6q-1 1-1 2t-1 1-1 1-1 2q-1 2-1 5 1 1 1 5v5q0 1 0 5 1 5 1 11 0 3 1 9t4 8q3 2 6 1 3-2 6-2 17-13 32-27t27-33q-1-12-1-25 1-12-2-22-2-1-4-1-2 1-5 0m157 69q4-3 6-7 1-2 3-4t3-4q6-7 14-12 3-5 8-7 5-3 8-8 1-1 2-3t2-3q9-13 20-22 1-1 3-2t2-3q2-2 7-5 2-1 4-2t4-4q4-4 9-6 4-1 7-2 1 0 3-1t3-1q4-1 6-1t6 0q8 3 12 13 1 4-2 15t-7 25-6 19q-1 4 0 4t0 2q-1 2-1 4t-1 4q-1 4-2 11t1 10q5 0 6-1 0 0 1 0 2-1 3 0t3-1q10-2 18-10 5-2 9-4t7-4q7-5 11-7t13-6q3-4 8-6 5-3 10-7 1-1 2-2 2-2 3-1 3 2 3 5t1 4q-4 3-5 6t-1 3q-2 2-7 4-4 2-5 3t-2 2q-1 2-3 3t-2 2q-1 1-3 1l-3 1q-3 3-5 5t-4 4q-4 4-5 6-1 1-6 4l-9 6q-7 4-14 8t-14 10q-4 3-10 5-5 2-9 5-3 0-3 0-1 0-3 1-2-1-5 0-2 1-4 0-3-2-5-3t-2-2q-2-1-3-2-1-3 0-6t-2-5q0-10 1-20t3-21q1-3 3-12t3-16-1-9q-5 3-11 9-3 3-5 5t-5 5l-8 5q-2 1-4 3t-4 3q-3 2-5 4t-6 6q-1 2-3 4t-3 3q-3 3-7 6-2 2-4 3t-3 3l-4 4q-3 3-6 4-8 11-17 20t-16 20q-6 5-12 9t-16 0q-5-3-6-4-2-2-4-3 1-6 1-11t3-10l3-5q2-4 3-10 1-5 3-10 3-5 4-8 1-3 2-5 1-3 3-5t3-5q1-2 3-5t3-6q3-10 8-21 1-4 2-7t3-6q1-3 2-6t3-5q1-2 2-5t2-5q2-3 3-5t3-5q1-1 2-2t1-3 1-2 2-3 1-2 1-3q1-3 4-6 2-2 3-4t2-4q2-3 7-4 4 2 8-2t8 1q7 4 9 7 3 2 4 5 2 4 0 9t-6 8q-2 8-7 16-3 3-5 7t-4 7l-4 10q-3 7-6 13t-7 14q-3 6-5 8t-3 4-3 9m342 18q3 0 5 0t2 1q5 0 13-7t12-11q10-2 16-13t14-18q10-10 17-18t10-8q4 0 6 4 2 4 3 6-1 1-1 3 0 2-1 3-1 2-3 3t-3 3l-5 6q-6 7-12 16t-11 19-12 12q-13 8-20 18-8 9-17 14-1 0-2 0t0 0q-2 0-3 1t-3 1q-9-4-15-8t-13-19q-3-3-4-8-2-4-4-8l-7-12q-3-5-3-16 0-5 1-15t2-16q-7 8-14 19-3 5-6 11t-6 9q-7 12-16 24-9 11-9 17-3 3-7 9t-5 10 0 2q-7 11-20 16t-24 4q-2 0-4 0t-5-1q-4 0-8-3l-7-5q-8-4-11-13t-3-18q6-15 7-27 1-12 6-24 6-18 19-32t26-26q11-9 25-20t21-19q8-1 13-5t11-7 13-3q12 0 14 4t6 11q3-8 4-16 1-5 3-9t3-7q3-15 10-32t14-32q6-11 12-22t7-13q8-12 17-20 8-8 14-18 5-5 10-13 5-8 8-10 13 4 14 11t1 16q0 8-2 15l-16 35q-7 13-13 26t-12 27q-9 17-20 31-5 6-10 13t-9 15q-2 5-5 10-2 2-3 5t-3 4l-9 21q-3 4-3 8 1 2 1 4v2q0 2 0 5t0 4 0 4 0 5q0 25 2 49-1 2-1 2 0 4 3 8 4 3 5 6m-47-119l-12 8q-4 1-10 7l-10 9-10 10q-4 6-10 10t-9 10q-6 7-11 16t-5 16q-1 4-2 8t-3 7q-3 6-3 14 0 7 4 7t6 0q8-5 16-14t15-20 9-16q5-9 12-20t15-19l13-20q0-2 1-3t1-2q1-1 1-4 0-3-2-6-2 0-3 1t-3 1" />
</svg>