<svg id="fnt-Fruktur" viewBox="0 0 1795 1000" xmlns="http://www.w3.org/2000/svg"><path id="fruktur" class="f" d="M111 378l19 87q22-4 38-7t30-6 32-6q5 8 8 18t2 21q0 15-4 29t-8 18q-5 1-9 1t-10 0q-19 0-38-5t-37-16l-1 2q9 25 16 51t3 54q-1 16-14 28t-31 18-33 7q-15 0-28-8t-23-19-15-21l16-33h57q-20-60-33-100t-21-65-13-38-6-20-2-8-1-5q0-15 7-34t19-31l110 23 86-25q12 7 17 22t6 32q0 18-6 36t-19 26q-28-4-57-11t-57-15m242 294q-12 0-23-3t-19-9q-4-4-11-13t-11-21 0-22l19-48-44-149q10-14 27-21t36-7q20 0 35 7l-2 147 3 1q2-12 6-31t7-43 9-43 11-35q8-2 15-3t15 0q25-1 44 6t29 14q4 24 2 51t-6 50-8 40q-18 10-34 11t-32-4q0-8 0-21t0-27 0-25l-12-2q-5 15-11 36t-13 46-12 46l45-6 14 33q-15 23-36 34t-43 11m240 0q-7 0-13-4t-14-9q-6-4-14-9t-14-11-6-12l21-100-38-105q7-17 21-27t32-15 32-4q17 0 25 4 2 13 2 28t1 31q0 36-3 69t-10 67l8 4q7-7 15-21t16-28 13-29 8-21q-3-35-5-54t-2-28 0-13q4-3 15-5t26-2q42 0 67 30v2q0 9-3 30t-9 49-14 55-16 47l43-22 20 30q-8 19-19 36t-23 26-27 11q-12 0-25-7t-23-18q-4-4-8-10t-5-17q0-2 1-4t0-3q2-19 4-34t4-32l-3-2q-6 16-16 38t-21 41-22 34-21 14m277 0q-5-1-15-6t-20-11-16-14q1-36 7-72t14-64q-11-34-18-64t-13-62-12-70q12-15 34-26t45-10q11 0 21 2t18 9q1 33-1 74t-5 86-7 86-9 72l3 1q17-28 32-60t27-62q-11-9-20-21t-17-29q8-16 23-29t33-21 34-8q11 10 20 27t15 35 6 35q-7 11-23 35t-39 49q4 6 12 14t13 14q14-7 29-22l29 22q0 19-2 31t-8 25q-8 18-22 26t-29 8q-11 0-25-5-17-5-27-23t-17-38q-17 18-34 36t-36 30m311 0q-11 0-25-6t-26-15-21-20-9-23q0-3 1-9t4-19 11-34l-12-88-24-1q-4-10-4-24t-1-20l28-9 14-89q6-3 19-4t29 1 27 8l-3 69 54-11q10 17 10 33t-3 28-7 19q-11 1-27 2t-29 1l0 129 53-43 31 34q-4 9-13 24t-24 31-27 25-26 11m169 0q-7 0-13-4t-14-9q-6-4-14-9t-14-11-6-12l21-100-38-105q7-17 21-27t32-15 32-4q17 0 25 4 2 13 2 28t1 31q0 36-3 69t-10 67l8 4q6-7 15-21t16-28 13-29 8-21q-3-35-5-54t-2-28 0-13q3-3 15-5t26-2q42 0 67 30v2q0 9-3 30t-9 49-14 55-16 47l42-22 21 30q-8 19-19 36t-24 26-26 11q-12 0-25-7t-23-18q-4-4-8-10t-5-17q0-2 0-4t1-3q2-19 4-34t4-32l-4-2q-6 16-15 38t-21 41-22 34-21 14m294 0q-11 0-23-3t-19-9q-3-4-10-13t-12-21 0-22l20-48-44-149q10-14 27-21t35-7q20 0 36 7l-2 147 3 1q2-12 5-31t7-43 9-43 12-35q8-2 15-3t15 0q25-1 44 6t29 14q3 24 2 51t-6 50-9 40q-17 10-33 11t-33-4q1-8 1-21t0-27-1-25l-12-2q-4 15-11 36t-12 46-12 46l45-6 14 33q-15 23-36 34t-44 11" />
</svg>