<svg id="fnt-Fustat" viewBox="0 0 1373 1000" xmlns="http://www.w3.org/2000/svg"><path id="fustat" class="f" d="M78 667h-38v-350h38v350m163-157h-181v-36h181v36m15-157h-196v-36h196v36m223 64h37v250h-36v-73l11 10q-7 21-22 36t-35 24-43 9q-27 0-48-12t-33-34-12-56v-154h38v146q0 28 8 44t23 22 32 7q21 0 39-10t29-29 12-45v-135m187 256q-38 0-65-19t-35-53l35-8 5 1q6 20 23 31t41 11 40-11 17-28q0-14-10-23t-29-13l-46-11q-35-8-51-26t-16-42q0-21 11-37t32-25 46-9q38 0 64 19t35 53l-35 8-6-1q-5-21-22-32t-37-11q-21 0-36 10t-14 24q0 12 9 20t30 13l47 11q34 8 50 25t17 45q0 24-13 41t-36 27-51 10m273-6h-40q-31 0-51-20t-20-54v-244h38v241q0 22 9 31t31 9h31l2 6v31m0-214h-154v-36h154v36m127 220q-26 0-46-10t-32-28-11-40q0-33 23-53t64-23l96-7v35l-87 6q-29 2-44 13t-14 29q0 18 15 29t38 12 43-11 30-29 12-40v-41q0-30-19-49t-49-19q-23 0-40 11t-24 33h-6l-33-12q12-34 39-51t65-18q50 0 77 30t27 86v141h-36v-73l13 10q-6 20-21 35t-36 25-44 9m306-6h-40q-31 0-51-20t-20-54v-244h37v241q0 22 9 31t31 9h31l3 6v31m0-214h-154v-36h154v36" />
</svg>