<svg id="fnt-Fuzzy Bubbles" viewBox="0 0 3533 1000" xmlns="http://www.w3.org/2000/svg"><path id="fuzzy-bubbles" class="f" d="M67 656q-10 0-13-15-3-3-6-17t-5-35-2-42q0-8 0-15t1-14q-19-8-19-19 0-9 3-14t10-6 11-6q1-6 3-21t5-31 6-33 6-23q2-9 11-19t31-16 57-7h22q17 0 33 2t26 6 11 16q0 5-4 9t-7 4h-75q-1 0-10 1t-19 2-20 4-15 7q-6 5-11 21t-7 39-2 42q4 0 15-1t25-1 26-1 19 0h20q12 0 16 5t4 14q0 17-19 18l-89 6q-14 0-19 3t-6 8q0 18 3 43t7 59q-4 12-10 19t-13 8m305 6q-26 0-40-15t-21-37-6-48q0-17 0-28t2-22 6-32q2-10 4-20t5-20q4-11 9-16t8-5q10 0 14 5t5 14q0 11-3 20t-5 18q-3 23-6 36t-4 24-1 26q0 8 1 18t5 21 11 16 18 7q12 0 23-9t15-14q34-43 61-84t52-89q4-6 6-7t6-2q11 0 16 4t4 14q0 6-1 14-8 38-8 75 0 25 5 46t14 36q8 9 8 16 0 9-5 14t-12 5q-19 0-30-30-3-11-8-27t-7-33-5-27q-6 10-12 20t-13 22q-5 8-13 18t-16 22q-17 21-38 37t-44 17m292 7q-7 0-17-1t-16-5-9-13q0-9 1-15t8-16q14-17 32-38t38-40 39-38 33-31q7-7 7-12 0-9-18-9h-29q-14 0-23 0t-18 1-19 2q-2 0-4 0t-4 0q-4 0-7-2t-3-9q0-12 10-15t19-4q8-1 21-1t28-1q14 0 30 1t29 3q17 4 26 11t10 20q0 10-9 20t-22 20-23 22q-12 11-30 29t-34 35-27 31q-4 5-6 8t-2 6q0 4 8 4 31 0 58-4t51-5q2 0 5 0t4 0q11 0 19 3t8 14q0 10-9 15t-21 6-20 3q-5 0-19 1t-33 2-35 1-27 1m251 0q-7 0-17-1t-16-5-9-13q0-9 1-15t8-16q14-17 32-38t38-40 39-38 33-31q7-7 7-12 0-9-18-9h-29q-14 0-23 0t-18 1-19 2q-2 0-4 0t-4 0q-4 0-7-2t-3-9q0-12 10-15t19-4q8-1 21-1t28-1q14 0 30 1t29 3q17 4 26 11t10 20q0 10-9 20t-22 20-23 22q-12 11-30 29t-34 35-27 31q-4 5-6 8t-2 6q0 4 8 4 31 0 58-4t51-5q2 0 5 0t4 0q11 0 19 3t8 14q0 10-9 15t-21 6-20 3q-5 0-19 1t-33 2-35 1-27 1m286 129q-1 0-4-4t-3-12q0-7 1-14t5-14q4-8 7-15t7-15q3-8 7-19t9-24 6-20 3-9v-13q-31 0-51-12t-33-30-17-43-8-47-1-45q0-10 0-20t3-19q2-11 6-15t7-4q12 0 16 9t5 25q0 12-1 22t-2 22v5q0 5 2 17t4 26 3 20q2 11 7 23t14 21 24 8q20 0 35-14t28-37 23-48q4-8 8-17t7-16q4-8 7-15t8-14q8-13 14-18t14-6 9 4 4 12q0 15-6 30t-13 30q-8 16-18 31t-16 30q-4 9-11 24t-14 31-13 29-6 16q0 2-4 11t-8 21-8 24-8 21-4 11q-3 9-9 22t-14 23-21 11m527-129q-31 0-49-8t-18-25q-11-1-15-8t-5-16 0-19v-10q3-27 6-51t4-51q0-22-1-38t-2-38q2-10-11-15-2-1-5-2t-7-2q-5-2-8-5t-3-11q0-12 12-21t30-17 39-11 39-6 28-2q25 0 46 9t34 27 13 42q0 23-8 40t-29 26q29 4 50 13t31 30 12 54q0 39-25 65t-65 38-93 12m-5-39q19 0 41-2t42-9 38-23q13-12 21-23t9-29q0-16-9-26t-23-17-27-10q-5-2-11-2t-11-1q-15 0-29 3t-24 2q-6 0-9-2-3-3-3-7 0-8 2-14t8-11q6-4 13-7 4-3 8-5t8-3q13-6 25-14t19-18 7-26q0-13-10-22t-22-11-24-4q-12 0-27 2t-28 8-22 19v24q0 26 1 51t2 51v24q0 4-1 13t-1 20-1 14q0 4-1 8t-3 10q-1 7-3 13t-1 15q7 7 19 8t27 1m309 32q-26 0-40-15t-21-37-6-48q0-17 0-28t2-22 6-32q2-10 4-20t5-20q4-11 9-16t8-5q10 0 14 5t5 14q0 11-3 20t-5 18q-3 23-6 36t-4 24-1 26q0 8 1 18t5 21 11 16 18 7q12 0 23-9t15-14q34-43 61-84t52-89q4-6 6-7t6-2q11 0 16 4t4 14q0 6-1 14-8 38-8 75 0 25 5 46t14 36q8 9 8 16 0 9-5 14t-12 5q-19 0-30-30-3-11-8-27t-7-33-5-27q-6 10-12 20t-13 22q-5 8-13 18t-16 22q-17 21-38 37t-44 17m363 0q-18 0-34-6t-27-10q-7 9-15 11t-14 2q-14 0-14-21 0-11 1-19t4-20q9-59 13-121t5-123q0-32-1-62 0-5 3-6t7-1q12 0 17 2t7 14v27q0 34-1 67t-1 72q0 5 0 10t4 4q2 0 5-3t9-11q22-25 50-43t67-17q13 0 27 3t27 13 20 27 8 49q0 35-13 64t-36 52-53 34-65 12m0-34q24 0 47-11t43-29 32-42 12-46q0-14-7-27t-19-22-28-9-34 10-37 26-33 35-23 39-9 34q0 12 6 20t16 13 19 7 15 2m317 34q-18 0-34-6t-27-10q-7 9-15 11t-14 2q-14 0-14-21 0-11 1-19t4-20q9-59 13-121t5-123q0-32-1-62 0-5 3-6t7-1q12 0 17 2t7 14v27q0 34-1 67t-1 72q0 5 0 10t4 4q2 0 5-3t9-11q22-25 50-43t67-17q13 0 27 3t27 13 20 27 8 49q0 35-13 64t-36 52-53 34-65 12m0-34q24 0 47-11t43-29 32-42 12-46q0-14-7-27t-19-22-28-9-34 10-37 26-33 35-23 39-9 34q0 12 6 20t16 13 19 7 15 2m254 41q-9 0-14-7t-7-19-3-22 0-17q0-4 0-9t0-10q0-25 1-61t4-76 7-77 8-68q4-14 11-21t13-6q6 0 11 5t5 16q0 2 0 3t-1 4q-12 60-16 126t-3 127q0 25 0 44t1 40q0 11-5 20t-12 8m221 5q-38 0-69-11t-49-36-18-62q0-31 10-60t30-52 45-38 59-13q23 0 41 8t29 24 11 37q0 23-10 44t-26 37-37 25-43 9q-20 0-37-3t-31-10q0 19 9 32t23 21 29 12 28 4q11 0 21-1t23-1q19 0 19 16 0 12-18 16-9 2-19 2t-20 0m-27-128q17 0 36-7t32-22 14-38q0-20-13-33t-34-13q-19 0-37 9t-33 23-24 34-9 38q11 6 29 7t39 2m268 128q-14 0-32-1t-35-7-29-16-11-29q0-24 19-24 7 0 10 4l5 6q1 2 2 4t4 5q7 11 20 20t39 9q15 0 33-5t30-15 13-28q0-15-9-23t-20-14q-5-2-11-5t-13-4q-7-2-13-4t-14-4q-18-6-33-14t-23-20-9-30q0-23 15-39t39-23 47-8q9 0 21 2t24 5 19 11 8 20q0 6-3 10t-6 4q-3 0-5-1-22-10-37-14t-26-5q-6 0-17 2t-20 5-17 11-6 17q0 19 29 32 10 4 23 8t27 9q18 7 33 16t24 21 9 32q0 29-15 46t-38 26-51 8" />
</svg>