<svg id="fnt-Ga Maamli" viewBox="0 0 2174 1000" xmlns="http://www.w3.org/2000/svg"><path id="ga-maamli" class="f" d="M149 471q15-11 31-11 14 0 24 7t18 19 6 27q-2 24-5 48t-5 49l-1 23q0 21 11 20 5-1 1 5t-12 16-18 19-19 16-12 8q-11 1-16-10t-5-28q0-4 0-8t0-7q1-10 2-20t3-19q-14 13-28 24t-22 18-10 8q-3 0-13 0t-21-3-21-10q-16-13-25-32t-9-43q0-37 23-84t78-101q-12-3-18-9-1-1-1-5 0-8 4-22t9-28 12-23 8-6q7 6 20 9t27 4q15 0 27-3t18-8q2-2 3-2 2 0 2 4 0 6-3 17t-8 24-9 24-9 14q-7 7-21 11t-27 4q-36 38-52 70t-17 59q0 19 8 34t23 28q10 8 20 9t12 2q0 0 7-6t16-14q1-12 2-22 1-23-9-31t-21-8q-10 0-16 5-7 5-9 5-3 0 0-8t12-19 17-22 18-18m247 196q-12-2-12-32 0-14 1-33t4-47l-54 1q-2 18-5 36t-4 36q-1 8-9 17t-16 16-15 7q-7 0-5-10 3-25 6-51t6-51h-28q-2 0-2-5 0-7 3-20t9-27 11-24 9-9h9q0-2 0-3 3-17 9-33t11-26 12-19 15-16q27-32 46-45t34-12q16 0 24 11t13 26 2 28q-1 18-3 29t-2 21-2 24q0 7-1 14h31q2 0 2 5 0 7-4 20t-9 27-10 23-9 10h-7q0 6 0 11 0 26 8 28 4 1-1 9t-14 19-20 22-21 17-12 6m-45-240q-1 10-3 21t-3 23l51-1 1-21 1-13q0-21-5-31t-13-13-12-3q-2 0-3 0t-2 0q-1 2-1 2-3 8-6 17t-5 19m281 157q8-7 19-11 11-38 18-73t11-62 7-44 2-19q0-4 6-12t15-15q9-10 19-20t19-15 10-3q7 13 14 34t12 49 10 56 10 56q13-35 24-64t16-47 7-19q0-5 5-11t12-11q10-11 22-23t21-17 9 0v69q0 27 0 57t2 60 4 52 8 38 12 15q4 1 0 7t-12 16-18 18-18 16-11 6q-9 0-15-18t-10-45-4-62-2-65q-8 23-17 47t-20 50q0 1-1 2 3 11 6 18t6 11q3 2-3 9t-14 17-19 19-17 14-10 4q-7-7-13-30t-12-53-11-67-12-66q-4 28-11 58t-15 60q14 4 21 13 1 2 1 4 0 6-3 16t-7 23-9 22-8 16-6 3q-5-7-15-11t-20-3-22 3-18 10q-1 1-2 1-2 0-2-4 0-6 3-18t8-24 9-24 9-13m98-246 381 329q-12-2-12-32 0-14 1-33t4-47l-54 1q-2 18-5 36t-4 36q-1 8-9 17t-16 16-15 7q-7 0-5-10 3-25 6-51t6-51h-28q-2 0-2-5 0-7 3-20t9-27 11-24 9-9h9q0-2 0-3 3-17 9-33t11-26 12-19 15-16q27-32 46-45t34-12q16 0 24 11t13 26 2 28q-1 18-3 29t-2 21-2 24q0 7-1 14h31q2 0 2 5 0 7-4 20t-9 27-10 23-9 10h-7q0 6 0 11 0 26 8 28 4 1-1 9t-14 19-20 22-21 17-12 6m-45-240q-1 10-3 21t-3 23l51-1 1-21 1-13q0-21-5-31t-13-13-12-3q-2 0-3 0t-2 0q-1 2-1 2-3 8-6 17t-5 19m310 240q-12-2-12-32 0-14 1-33t4-47l-54 1q-2 18-5 36t-4 36q-1 8-9 17t-16 16-15 7q-7 0-5-10 3-25 6-51t6-51h-28q-2 0-2-5 0-7 3-20t9-27 11-24 9-9h9q0-2 0-3 3-17 9-33t11-26 12-19 15-16q27-32 46-45t34-12q16 0 24 11t13 26 2 28q-1 18-3 29t-2 21-2 24q0 7-1 14h31q2 0 2 5 0 7-4 20t-9 27-10 23-9 10h-7q0 6 0 11 0 26 8 28 4 1-1 9t-14 19-20 22-21 17-12 6m-45-240q-1 10-3 21t-3 23l51-1 1-21 1-13q0-21-5-31t-13-13-12-3q-2 0-3 0t-2 0q-1 2-1 2-3 8-6 17t-5 19m165 229q14-51 23-98t16-85 8-60 3-24q1-5 5-11t10-12q5-8 14-18t19-18 18-14 10-4q7 6 14 22t13 42 11 54 10 60q16-42 24-69t9-30q2-7 9-16t16-17q8-9 19-20t20-18 13-7q5 0 7 13t2 33 1 48v47q0 30 1 59t3 53 9 36q1 3-5 11t-15 18-19 20-18 13-9 2q-6-13-9-38t-3-57-1-62v-49q-9 25-21 53t-25 55q2 19 2 34 0 4-6 13t-17 19-19 19-17 13-7-1q-1-22-4-51t-7-61-9-61-12-54q-5 39-15 88t-23 102q-2 9-10 18t-18 15-15 6q-6 0-6-6 0-1 1-5m432-344q4 3 10 11t6 28q0 3-1 6t0 6l-21 189q-1 9-2 15t0 11q0 8 2 10 14-10 28-15t27-4q22 0 37 8t18 16q2 3-3 12t-12 21-15 22-13 16-8 2q-3-8-20-18t-36-9q-9 0-19 3t-17 10q-1 0-1 0-7 7-12 11t-8 4q-11 0-16-11t-4-27q0-10 2-21l21-189 0-11q0-15-3-22t-5-8q-3-2 2-10t15-18 19-19 19-15 10-4m231 5q7 11 10 18t4 23l-1 14-28 188q0 5-1 9t0 8q0 12 3 16t9 10q3 2-2 9t-14 17-19 19-18 15-10 4q-9-7-14-15t-5-25l0-13 23-188 2-20q0-9-2-14t-7-13q-1-3 5-11t16-17 21-19 19-13 9-2" />
</svg>