<svg id="fnt-Gabarito" viewBox="0 0 1877 1000" xmlns="http://www.w3.org/2000/svg"><path id="gabarito" class="f" d="M187 672q-51 0-90-23t-60-63-22-89q0-38 13-70t36-56 55-36 68-13q58 0 95 23t61 64l-49 15q-23-32-50-43t-57-11q-34 0-62 16t-43 45-16 66q0 36 16 65t43 45 62 17q33 0 60-15t44-40 16-58l7 29h-130v-47h167q2 5 2 11t1 13q0 32-12 60t-36 49-53 34-66 12m285 2q-28 0-49-10t-31-29-11-45q0-24 11-43t32-29 48-11q35 0 56 15t30 44h-28v-63q0-15-10-28t-37-13q-14 0-31 3t-35 11l-15-38q21-10 43-15t43-5q31 0 52 11t30 31 10 43v164h-36l-12-45 26-7q-9 29-32 44t-54 15m9-45q22 0 36-10t13-29q0-19-13-29t-36-10-35 10-14 29q0 19 14 29t35 10m285 43q-33 0-58-16t-38-45-14-67 14-66 38-45 58-15q34 0 59 15t39 45 14 66-14 67-39 45-59 16m-86-5h-38v-341h50v153h-5v139h5l-12 49m78-38q31 0 50-24t19-61q0-37-19-60t-50-23q-30 0-49 23t-19 61 19 61 49 23m245 45q-28 0-49-10t-31-29-11-45q0-24 11-43t32-29 48-11q35 0 56 15t30 44h-28v-63q0-15-10-28t-37-13q-14 0-31 3t-35 11l-15-38q21-10 43-15t43-5q31 0 52 11t30 31 10 43v164h-36l-12-45 26-7q-9 29-32 44t-54 15m9-45q22 0 36-10t13-29q0-19-13-29t-36-10-35 10-14 29q0 19 14 29t35 10m161-206h38l12 66v178h-50v-244m43 86l-12-5v-37l4-5q5-9 16-20t25-17 30-7q7 0 14 1t10 3v45h-15q-34 0-50 10t-22 32m181-86v244h-50v-244h50m-58-75q0-15 9-24t24-9q14 0 23 9t9 24q0 14-9 23t-23 9q-15 0-24-9t-9-23m213 323q-32 0-51-19t-19-58v-168-3l10-55h40v227q0 14 7 21t19 7q8 0 15-1t11-2v46q-6 2-14 4t-18 1m32-202h-139v-46h139v46m167 203q-37 0-65-16t-44-44-15-67q0-38 15-67t44-44 65-16q38 0 66 16t43 44 16 67q0 38-16 67t-43 44-66 16m0-48q34 0 54-22t20-57q0-35-20-57t-54-22q-33 0-53 21t-20 58 20 57 53 22" />
</svg>