<svg id="fnt-Gaegu" viewBox="0 0 1242 1000" xmlns="http://www.w3.org/2000/svg"><path id="gaegu" class="f" d="M258 695q-4 7-14 7-8 0-12-3t-5-7-2-12 0-15q0-10 0-17t1-13v-6q-36 30-60 33-10 1-18 1t-14 1q-6 1-10 1h0q-17 0-34-7t-30-20-22-29-8-36q0-9 2-25t6-31 9-31 8-21q8-14 27-31 25-15 65-33 10-2 23-4t32-5q32 2 45 10t14 20-14 13q-7 0-17-3t-19-4q-14 0-21-1t-8 0q-32 6-52 18-12 2-24 12t-21 27-16 38-5 45q0 24 9 39t39 26q4 1 12 1 17 0 28-2t21-5 17-11 19-16q9-8 12-8 1 0 2 0-1-2-1-9 0-3 0-6t1-7q-8-4-21-7t-26-4-21-2-8 0q-8-7-8-16 0-12 11-14h0q0-1 9 1t26 2q5 0 8-1 7 1 15 3t17 4 16 6 10 6q8 6 8 27 0 14-4 24 2 9 2 31 0 15 1 22t0 8q-1 3-1 5 0 4 1 12t1 12q0 4-1 7m269-78q7 4 7 11 0 7-7 13t-13 7q-16-6-27-21t-15-32q-4 7-9 18t-12 22-18 17-28 7q-8 0-22-3-16-11-25-18t-13-12-5-14-1-20q0-10 3-23t9-26 15-25 21-23q22-8 35-11t17-4q10-11 21-11 6 0 10 7t8 18 6 25 4 26q2 2 3 5t2 9l3 14q3 14 11 25t20 19m-70-66q-1-5-4-15t-6-27q-6 1-13 1t-15 3-18 11-18 25q-12 22-12 46 3 7 5 11t6 9 10 7 14 8q7-2 12-4t10-6 7-11 9-17q13-29 13-41m296 96q-16 16-38 27t-44 12q-9 0-43-7-9-6-19-15t-19-21-13-25-5-28v1q0-5 1-11 0-5 1-13t1-17q10-16 21-31t32-28q32-7 48-7 7 0 13 0t11 4 10 7 13 12q6 6 9 9t4 4 2 3 0 3q0 18-4 29t-14 18-28 12-47 12h-3q-9 0-32 4 18 53 58 53 28 0 63-29 4-3 9-3 16 0 16 15 0 5-3 10m-48-112q-14-23-31-23-7 0-16 2t-16 6-15 8-11 12q-2 4-4 11t-4 18q14-2 30-3t31-4 25-9 11-18m290-39q2 7 2 18 0 17-5 46 1 2 1 8 0 5-1 13t-2 17q1 3 1 5t0 7q0 12-2 30t-4 42q-7 56-46 83-30 11-61 11-14 0-31-6l-27-10-24-20q-7-5-10-9t-3-6q0-9 4-14t12-6q6 0 11 3l29 23q19 13 46 14 4 0 19-4l18-5q10-6 19-21t11-31v-2q0-4 1-10t2-16l3-34q-1 0-7 4t-18 10-28 9-37 4q-5 0-13-6t-24-19l-12-22q-5-8-7-17t-1-17q0-13 11-27t27-24 34-18 35-7q7 0 20 1t25 9q0-2 0-4t3-5 4-5 9-1q14 0 16 9m-36 46v-7q-6-6-15-8t-17-4q-14 1-40 8-40 23-40 44 0 3 3 9t7 12 9 12 11 8q21 0 50-12 14-2 30-25 1-10 1-19t1-18m281-58q0 5 0 10t1 11q0 12-1 20t-3 18-4 25-4 40q0 1 0 2t0 3q0 8 1 18l2 18q0 13-16 13-7 0-11-4t-5-9-1-11 0-9q0-5 0-8-12 12-21 19t-17 10-15 3-15 1q-27 0-42-15t-14-45q0-3 0-8t1-10q-1-2-1-7 0-6 1-12t2-14 5-21 9-31q5-6 12-6 7 0 11 4t5 10q0 3-2 11t-4 17-4 19-1 14v3q-1 7-2 13t-1 10q0 15 6 26t24 12q12 0 22-5t18-13 14-16 9-16q1-9 3-23t7-30q-1-3-1-6t0-6q0-6 1-12t2-11 6-8 9-3q11 0 14 9" />
</svg>