<svg id="fnt-Gafata" viewBox="0 0 1288 1000" xmlns="http://www.w3.org/2000/svg"><path id="gafata" class="f" d="M181 525v-24h86l0 140q-42 30-94 30-27 0-47-3t-38-14-31-28q-26-39-26-121 0-168 149-168 19 0 46 4t43 12l-9 26q-36-11-80-11-65 0-89 30t-25 106q0 87 32 114 16 13 33 18t41 4q41 0 64-15v-100h-55m325-8l-1 60q0 14 1 26l11 61 0 2h-22l-2-1-12-29q-46 32-91 33-32 0-49-17t-16-47q0-42 23-57t65-15q5 0 60 3v-32q0-33-12-46t-34-13-85 14l-5-24q62-19 89-19 41 0 65 26 15 15 15 75m-33 97v-53l-52-2q-40 0-52 8t-12 32 8 32 27 9 47-8 34-18m148-233v36q0 4 21 4t31-1 11 0l-4 25h-55q-4 0-4 2v257l-17 62-2 1h-23l11-63v-256q0-3-6-3h-17l0-14q21-10 23-11v0l0-39q0-26 10-44t26-25q28-13 53-13 2 0 3 0l11 0-6 25q0 1-5 0t-8-1-12 3-18 7-16 17-7 31m276 136l0 60q0 14 0 26l11 61 1 2h-22l-2-1-12-29q-47 32-92 33-31 0-48-17t-17-47q0-42 24-57t64-15q5 0 61 3v-32q0-33-13-46t-34-13-85 14l-4-24q62-19 89-19 41 0 65 26 14 15 14 75m-32 97v-53l-53-2q-40 0-52 8t-12 32 8 32 28 9 46-8 35-18m113-10v-157q0-3-2-3h-20v-14l23-10 5-44h26v40q1 4 20 4h30l-4 23-42 1q-5 0-5 2v158l13 65h-22l-2-2-20-63m298-87l-1 60q0 14 1 26l11 61 0 2h-22l-2-1-12-29q-46 32-91 33-32 0-49-17t-16-47q0-42 23-57t65-15q5 0 60 3v-32q0-33-12-46t-34-13-85 14l-5-24q62-19 89-19 41 0 65 26 15 15 15 75m-33 97v-53l-52-2q-40 0-52 8t-12 32 8 32 27 9 47-8 34-18" />
</svg>