<svg id="fnt-Galdeano" viewBox="0 0 1849 1000" xmlns="http://www.w3.org/2000/svg"><path id="galdeano" class="f" d="M169 674q-66 0-104-41t-37-113 44-118 119-45q40 0 83 15l-16 53-66-33q-64 0-89 27t-25 90 25 98 68 34q35 0 66-18l-2-58-8-30 56-3-7 118q-41 23-93 24-4 0-14 0m233 0q-32 0-50-17t-17-47 25-45 103-29q0-38-9-52t-30-15q-12 0-19 1l-42 37-23-37q39-31 86-31 79 0 79 79v93l9 56-47 7-2-25q-31 25-63 25m-24-66q0 16 10 26t32 9 43-15v-63q-48 7-82 21-3 14-3 22m251 59h-54l7-99v-185l-7-51 54-5-6 98v143l6 99m204 7l-2-25q-32 25-67 25t-55-28-21-76q0-59 31-95t83-35q15 0 27 2v-58l-7-52 54-5-6 99v185l9 56-46 7m-54-34q23 0 49-12v-152q-16-6-35-6t-40 5q-19 26-19 79 0 86 45 86m258 34q-45 0-73-30t-29-83 29-87 71-34 63 20 21 58q0 13-3 32l-135 5q0 42 15 65t42 24q35 0 65-26l14 37q-34 19-80 19m-55-145l91-4q0-31-10-43t-31-12-33 5q-13 13-17 54m248 145q-32 0-49-17t-17-47 24-45 103-29q0-38-8-52t-31-15q-12 0-19 1l-42 37-22-37q38-31 86-31 78 0 78 79v93l9 56-46 7-2-25q-31 25-64 25m-24-66q0 16 10 26t32 9 43-15v-63q-48 7-81 21-4 14-4 22m246 59h-48l7-99v-71l-8-51 49-5v25q40-26 81-26 26 0 39 17t14 52v158l-49 2 7-107v-54q0-18-6-26t-20-8q-31 0-66 19v174m294 7q-46 0-72-29t-26-85 28-87 74-33 72 29 26 84-27 88-75 33m8-30q15 0 32-5 16-24 16-75t-15-72-45-22q-12 0-31 5-17 23-17 74t14 73 46 22" />
</svg>