<svg id="fnt-Gamja Flower" viewBox="0 0 2514 1000" xmlns="http://www.w3.org/2000/svg"><path id="gamja-flower" class="f" d="M195 637q-14 6-31 9t-34 3q-19 0-39-5t-35-15-26-34-10-57q0-21 7-45t21-44 36-33 49-13q13 0 30 4t30 11 23 16 10 21q0 9-7 14t-14 5q-8 0-10-6-3-7-9-12t-14-8-16-5-17-2q-19 0-34 9t-25 23-16 31-5 35q0 26 7 40t18 23 24 9 25 2q18 0 35-4t29-10v-20q0-8 0-16t-1-17q-13 0-25 1t-20 0-14-6-5-14q0-6 3-12t9-5q11 0 26 0t32 1 32 0 26 0q6 1 8 6t3 12-3 12-8 5h-27q1 16 1 28t0 22q0 21-1 37t-3 36q-1 8-6 12t-11 4q-8 0-14-4t-6-13q0-8 1-15t1-16m161-123q3-2 8-2 17 1 30 9t22 18 14 25 5 25v2q3 12 7 18t8 10 10 4 9 1q5 0 10-2t12-2q6 0 10 5t4 11q0 5-3 9t-8 7-11 4-12 1q-19 0-33-7t-21-19q-10 12-23 18t-29 6q-14 0-28-4t-24-13-18-22-6-30q0-11 3-22t11-21 18-18 25-11h3q5 0 7 0m3 31q-17 5-25 15t-8 24q0 15 8 26t30 11q13 0 23-9t9-25q0-11-3-18t-8-11-12-8-14-5m173-21q-4-6-4-10 0-8 7-13t14-5q5 0 9 3t7 7 6 9 4 8q8-3 18-5t20-2q10 0 21 1t23 9q10-5 22-7t27-3q9 0 21 2t22 9 17 25 6 47q0 15 0 29t-3 24-6 17-13 6q-6 0-12-4t-6-11q0-8 2-20t2-25q0-16-1-28t-4-21-10-12-19-4q-14 0-26 5l2 6q1 7 2 17t1 21q0 12 0 26t-2 24-5 19-13 7-14-5-5-13q0-13 1-31t2-33q0-20-7-31t-27-12q-11 0-22 4v1q0 13 1 27t0 29q0 13 0 25t-2 20-7 15-14 5q-6-1-11-5t-4-10q0-15 1-31t1-35q0-9-1-16t0-14q-6-9-10-19t-11-22m392-93q-3 12-10 18t-18 7q-3 0-9-2t-10-4-8-9-3-14q0-16 9-23t22-7 21 9 6 20q0 1 0 2t0 3m-32 317q-15 11-33 11-16 0-32-7t-25-21q-2-2-2-6 0-6 4-13t11-7q3 0 5 1 9 8 19 13t18 5q18 0 25-30t7-86q0-25-1-50t-3-47q0-5 5-9t13-4q6 0 12 2t7 8q2 25 3 50t2 49q0 23-2 45t-6 41-11 33-16 22m155-234q3-2 9-2 16 1 29 9t23 18 13 25 5 25v2q3 12 7 18t9 10 9 4 10 1q4 0 9-2t12-2q6 0 11 5t4 11q0 5-3 9t-9 7-11 4-12 1q-18 0-32-7t-22-19q-9 12-23 18t-29 6q-14 0-27-4t-25-13-17-22-7-30q0-11 4-22t11-21 17-18 25-11h3q5 0 7 0m3 31q-17 5-25 15t-7 24q0 15 8 26t30 11q12 0 22-9t10-25q0-11-3-18t-9-11-12-8-14-5m455 17q-7 1-18 1t-22 1-23-1-21 0q-4 0-7-6t-3-12q0-7 3-12t9-6q12 0 22 1t19 0q10 0 19 0t21-1q6 0 8 6t3 12-3 12-7 5m-18-118q-13 1-24 1t-22 0-21 0-24-1q0 19 0 40t0 41q0 18 0 36t-1 35-1 30-1 24q-1 8-7 12t-11 4q-8 0-14-5t-6-12q1-13 2-30t1-36 1-39 0-40q0-25-1-46t-1-37q0-7 6-10t13-3q9 0 19 1t21 1q21 0 39 0t32-1q6 3 9 8t3 11-4 10-8 6m71-28q-4-5-4-10 0-7 7-12t14-6q7 0 13 7t12 17 10 19 7 16q2 21 2 43t1 43q0 35-1 67t-2 62q0 8-5 11t-10 4q-8 0-15-4t-7-13q0-20 2-46t1-55q0-27 0-53t-2-49q-4-9-10-20t-13-21m188 99q2-2 4-3t6-1q13 1 26 7t25 16 19 26 7 35q0 20-7 36t-18 25-26 16-32 5q-14 0-28-5t-25-15-19-25-7-32q0-17 6-33t16-28 21-19 22-8q5 0 10 3m3 29q-9 4-16 9t-12 11-8 15-3 23q0 12 5 20t10 13 15 6 16 2q16 0 28-13t11-33q0-14-4-24t-11-15-15-8-16-6m246-39q5 16 8 34t7 35 7 33 6 28q5-17 10-32t9-32 9-34 7-41q1-6 5-8t9-3q8 0 14 5t6 12q-6 34-14 66t-16 57-18 40-20 15q-8 0-16-11t-13-28-10-39-7-44q-4 22-9 43t-11 40-13 28-15 10q-11 0-21-17t-18-43-15-59-12-64v-2q0-6 6-10t13-5q6 0 10 3t6 9q5 41 12 75t19 70q3-24 12-55t18-76q1-7 6-11t11-4 11 4 7 11m282 26q15 21 15 37 0 17-17 22l-102 30q7 10 17 15t20 6q16 0 30-5t28-19q3-3 7-3 6 0 12 6t6 12-6 14-17 14-25 11-28 4-30-4-29-14-23-25-9-37q0-24 16-54 9-19 30-28t42-9q19 0 36 7t27 20m-112 57l89-26q-3-13-13-19t-23-6q-14 0-24 5t-17 13-9 16-3 17m230-38q20-20 46-32t57-13q7 1 11 7t4 12q0 5-3 10t-8 4q-32 8-56 19t-39 30q0 9 1 19t1 20q0 12-1 25t-3 25q0 6-6 9t-13 2-12-3-6-9q2-14 3-28t1-29q0-19-5-31t-8-21q-2-3-6-8t-8-9-8-11-4-9q0-8 7-14t15-7 20 13 20 29" />
</svg>