<svg id="fnt-Gayathri" viewBox="0 0 1867 1000" xmlns="http://www.w3.org/2000/svg"><path id="gayathri" class="f" d="M183 673q-171 0-171-172 0-78 48-125t124-47q46 0 92 24t58 71q1 7 1 11 0 11-19 11-19 0-20-10-6-40-40-62t-71-22q-64 0-99 45t-34 105q0 60 33 104t98 44q40 0 73-23 40-29 40-61v-44h-113q-20 0-20-11t20-12h133q20 0 20 12v55q0 20-17 42t-32 33q-45 32-104 32m415 0q-28 0-37-35-31 35-91 35-37 0-64-15-33-19-33-55 0-26 14-42 15-16 39-21t48-4q8 0 18 0t20 1q31 0 44-9v-24q0-59-69-59-25 0-45 13-23 14-23 35 0 11-19 11t-20-11q0-29 32-50 31-20 75-20 38 0 73 18t35 63v107q0 18 5 29 4 9 13 14 5 3 5 7 0 12-20 12m-128-23q29 0 57-17t29-50v-28q-16 4-39 4-11 0-22-1t-23 0q-14-1-30 2t-24 18q-6 11-6 24 0 24 17 36 15 12 41 12m403-217v226q0 56-37 81t-81 24q-74 0-104-43-1-3-1-5 0-10 19-10 15 0 19 7 21 29 68 29 77 0 77-83v-19q-24 32-72 32-112 0-112-110v-129q0-12 20-12 19 0 19 12v129q0 33 19 60t54 27q34 0 53-28t19-60v-128q0-12 20-12 20 0 20 12m269 240q-29 0-38-35-31 35-91 35-37 0-63-15-34-19-34-55 0-26 15-42 15-16 39-21t48-4q8 0 18 0t20 1q30 0 43-9v-24q0-59-68-59-26 0-46 13-22 14-22 35 0 11-20 11t-20-11q1-29 32-50 31-20 76-20 38 0 73 18t35 63v107q0 18 5 29 4 9 12 14 6 3 6 7 0 12-20 12m-129-23q29 0 58-17t28-50v-28q-16 4-38 4-11 0-23-1t-22 0q-15-1-31 2t-24 18q-6 11-6 24 1 24 18 36 15 12 40 12m290 23q-77-1-77-66v-162h-32q-20 0-20-11 0-11 20-11h32v-82q0-12 20-12 20 0 20 12v82h46q20 0 20 11 0 11-20 11h-46v162q0 43 37 43 7 0 13-1t13-1q20 0 20 11 0 8-17 11-14 3-29 3m281 0q-19 0-19-11v-130q0-44-22-65t-48-22q-75-1-75 94v123q0 11-20 11-20 0-20-11v-322q0-11 20-11 20 0 20 11v121q21-39 78-39 47 0 77 32t29 78v130q0 11-20 11m77 0q-20 0-20-12v-227q0-11 20-11 20 0 20 11v27q17-38 64-38 27 0 47 13 5 3 5 8 0 5-6 10-6 4-12 4-8 0-16-7t-23-6q-35 0-47 34t-12 62v120q0 12-20 12m183-322q21 0 21 22t-21 22-22-22 22-22m-21 310v-228q0-10 21-10t20 10v228q0 12-20 12t-21-12" />
</svg>