<svg id="fnt-Gelasio" viewBox="0 0 1614 1000" xmlns="http://www.w3.org/2000/svg"><path id="gelasio" class="f" d="M184 674q-20 0-42-6t-44-18-39-34-28-51-10-71q0-40 10-70t29-52 40-34 46-19 45-6q48 0 73 8t39 13l5 76q1 4-2 7t-6 3q-1 0-2 0t-1 0q-3 0-6-2t-3-5q-6-21-18-38t-32-28-47-11q-12 0-26 4t-29 13-27 27-20 46-8 68q0 45 12 75t30 48 37 26 35 8q26 0 40-5t21-13 6-15v-63q0-10-7-15t-17-6-20-2q-5-1-7-2t-2-7q0-3 2-8t7-5h125q4 0 6 5t3 8q0 8-8 9-11 1-22 4t-11 11l2 90q-4 5-19 14t-43 16-67 7m308 0q-55 0-84-34t-29-95q0-41 16-69t40-43 55-14q30 0 50 11t30 29 15 44q1 10 2 20t1 21h-156q0 38 10 61t25 33 32 10q18 0 34-8t23-24q1-2 1-3t4-1l12 6q2 1 2 3 0 0 0 2t-1 1q-11 22-31 36t-51 14m-60-151l101-2q0-42-12-60t-32-18q-17 0-29 5t-19 23-9 52m292 144h-102q-4 0-6-3t-3-7q0-8 8-9 9-1 19-5t10-11l0-292q0-15-7-21t-17-7-15-3q-3-1-5-3t-1-7q0-2 1-6t5-5q24-1 45-1t32-1q1 0 4 2t3 8v328q0 10 5 15t12 6 13 3q5 0 7 2t1 6q0 4-2 7t-7 4m47-60q0-24 13-40t34-25 46-14 49-8v-37q0-9-4-19t-16-16-30-7q-10 0-16 1t-8 3l-29 59q-14 0-25-6t-11-22q0-11 7-21t20-18 31-13 42-5q27 0 44 7t26 18 12 26 3 28v120q0 9 3 17t7 9q3 0 6-1t7-1q4-1 7 3t2 7q0 3-1 4-6 5-19 10t-28 5q-13 0-19-5t-6-24v-4q-16 16-35 25t-44 9q-14 0-30-7t-27-20-11-38m51-1q0 15 9 27t26 12q20 0 34-7t22-14v-86q-26 4-47 10t-32 19-12 39m284 67q-20 0-30-3t-18-6q-10-3-15-3-3 0-5 1t-4 1-5 1q-4 0-7-2t-3-6q0-8 0-17t-1-19-2-17 0-13q0-6 2-9t6-2q7 0 8 5t4 14 12 25q6 12 16 18t20 9 19 3q22 0 36-9t15-26q0-15-10-24t-25-17-30-14q-16-8-31-18t-23-25-9-36q0-22 13-36t32-22 36-7q23 0 34 5t17 5q5 0 6-3t2-5q2-3 4-4t4-2q3 0 6 3t2 6q0 2 0 11t-1 20q0 12 1 19t1 11q0 5-2 7t-5 2q-6 0-7-4-4-9-11-21t-18-20-32-9q-14 0-23 4t-14 11-4 18q0 16 17 27t41 23q19 9 36 19t27 23 10 33q0 33-24 54t-68 21m238-6h-103q-4 0-7-4t-2-6q0-8 8-9 10-2 19-5t10-11l0-155q0-15-7-21t-14-7-16-3q-2-1-4-3t-1-7q0-3 1-6t4-4q25-2 45-2t30-1q2 0 4 2t3 8v191q0 10 5 15t12 6 13 3q5 0 7 2t2 7q0 2-2 6t-7 4m-53-287q-14 0-22-10t-8-24q0-14 8-24t22-10 21 10 8 24q0 14-8 24t-21 10m90 167q0-36 14-65t40-46 63-17 62 17 39 46 14 65-14 63-40 47-63 17-62-17-40-47-13-63m52 0q0 49 14 76t50 28 50-28 13-76-14-77-50-27-50 27-13 77" />
</svg>