<svg id="fnt-Gemunu Libre" viewBox="0 0 2432 1000" xmlns="http://www.w3.org/2000/svg"><path id="gemunu-libre" class="f" d="M175 670h-80q-33 0-48-13t-16-44v-210q0-31 16-44t48-13h138v37h-155q-5 0-5 5v240q0 5 5 5h116q5 0 5-5v-100l5 7h-62v-35h97v113q0 31-16 44t-48 13m276-34v33h-100q-32 0-47-12t-15-43v-142q0-31 13-42t44-12h52q32 0 46 12t13 42v99h-133v-30h94v-86q0-4-5-4h-80q-4 0-4 4v177q0 4 4 4h118m131-218h29q30 0 43 11t13 40v198h-40v-212q0-4-4-4h-77q-5 0-5 4l1 212h-40l0-245h34l5 29-4 13q0-23 10-35t35-11m125 0h30q29 0 42 11t13 40v198h-40v-212q0-4-4-4h-77q-4 0-4 4l-1 15-4-6q0-23 11-35t34-11m222 252h-34q-29 0-43-11t-13-40v-197h40v211q0 5 4 5h87l0-216h39v245h-34l-5-29 3-14q0 24-10 35t-34 11m217-252h35q29 0 42 11t13 40v198h-40v-212q0-4-4-4h-82q-5 0-5 4l1 212h-40v-245h35l4 29-4 13q0-23 10-35t35-11m229 252h-35q-29 0-42-11t-13-40v-197h39v211q0 5 5 5h87l-1-216h40v245h-35l-4-29 3-14q0 24-10 35t-34 11m273-39h126v36h-159v-318h40v290l-7-8m201-209v245h-40v-245h40m0-88v39h-40v-39h40m172 335l-111-2v-338h39v122l-2 13q0-23 9-35t34-11h34q30 0 43 11t13 40v147q0 30-14 41t-45 12m-72-214v185l-4-5 91 1q4 0 4-5v-176q0-4-4-4h-82q-5 0-5 4m262-37h27v34h-63q-5 0-5 5l0 210h-39l-1-245h35l5 29-5 13q0-23 11-35t35-11m214 218v33h-100q-33 0-48-12t-15-43v-142q0-31 13-42t44-12h53q32 0 45 12t14 42v99h-134v-30h94v-86q0-4-5-4h-79q-5 0-5 4v177q0 4 5 4h118" />
</svg>