<svg id="fnt-Genos" viewBox="0 0 1211 1000" xmlns="http://www.w3.org/2000/svg"><path id="genos" class="f" d="M146 670q-35 0-58-5t-38-20-21-36-6-57q0-37 8-61t25-35 40-18 54-4q25 0 46 1t37 5q10 1 14 4t6 7 2 8v10q-4-3-13-5t-21-4-24-3-24-1-18 0q-35 0-55 8t-29 29-9 59q0 37 8 58t26 29 51 9q29 0 46-5t25-21 9-44q0-6 0-11t0-7h-95q0-9 1-14t6-6 13-2h112v39q0 27-6 45t-20 28-37 16-55 4m261 0q-29 0-49-4t-31-15-17-31-5-51q0-36 9-59t32-34 64-11q32 0 51 8t28 26 9 46v28h-141q0-6 3-10t11-4h96l-1-15q0-31-13-45t-44-14q-27 0-42 8t-21 26-6 49q0 33 7 50t23 24 43 6q10 0 22-1t25-1 22-3 14-4v6q0 5-3 10t-11 7q-11 5-30 6t-45 2m173-3h-23q-12 0-12-12v-173q15-7 38-12t55-5q29 0 47 4t28 12 12 21 4 31v119q0 5-2 9t-4 4-10 2h-19v-141q0-20-13-30t-43-9q-9 0-21 1t-21 4-16 8v167m298 3q-23 0-42-4t-31-14-20-31-7-54 7-54 20-31 31-14 42-3q22 0 40 3t32 14 20 31 7 54q0 34-7 55t-20 30-32 14-40 4m0-20q20 0 34-6t22-23 7-54-7-53-22-24-34-6-35 6-22 24-7 53 7 54 22 23 35 6m221 19q-9 0-22-1t-26-2-23-5q-5-2-8-4t-5-7-1-15q11 5 26 8t30 5 25 1q15 0 29-2t26-5 18-13 7-22q0-21-10-27t-29-5h-50q-19 0-35-3t-27-12-10-35q0-26 13-39t37-17 55-4q12 0 28 0t30 3q10 2 17 4t10 6 3 12v10q-4-5-15-8t-24-5-28-2-27 0q-16 0-31 2t-25 10-9 26q0 14 6 21t16 8 24 2h51q19 0 34 3t23 14 8 36q0 26-14 40t-40 17-57 5" />
</svg>