<svg id="fnt-Gentium Plus" viewBox="0 0 2717 1000" xmlns="http://www.w3.org/2000/svg"><path id="gentium-plus" class="f" d="M280 518v10q-14 3-20 9t-6 11v81t-6 3-12 6-13 5-6 0v-95q0-5-10-10t-40-10v-10h113m-26-141q3 1-1 7t-11 11-11 10l-8-1q-16-16-35-21t-42-4q-9 0-24 6t-31 22-26 40-10 64q0 45 15 75t39 44 48 15 44-7 32-19q4 2 12 5t9 5q-24 20-42 29t-32 13-29 3q-25 0-48-9t-44-28-30-47-12-65q0-55 22-93t59-60 82-20q16 0 37 6t37 19m249 154q-4 5-12 9t-15 7h-140l0-22h118q5 0 7-2t2-7q0-6-2-16t-7-20-16-16-25-6q-20 0-35 11t-22 32-8 44q0 26 8 48t25 36 39 13q10 0 20-2t22-9 30-22q4 2 6 5t3 5q-21 24-37 36t-29 15-30 4q-25 0-46-14t-35-39-13-60q0-33 14-63t40-46q11-8 26-14t28-6q24 0 40 10t26 24 14 32 4 33m288 136h-105v-11q34-9 34-15v-129q0-30-7-39t-24-9q-15 0-37 15t-45 54v108q0 4 9 8t25 7v11h-105v-11q16-4 25-7t9-8v-148q0-13-2-19t-8-8-24-4v-10q16-3 31-8t27-12l9 9 3 61q14-22 32-38t35-23 30-9q21 0 37 13t17 41v155q0 3 7 7t27 8v11m165-41l7 12q-24 18-46 27t-35 9q-17 0-29-14t-13-47v-150h-32l-5-7 19-16h18v-60l29-26 7 6v80h80l7 7q-4 7-12 14t-12 10q-6-3-18-5t-32-3h-13v129q0 29 6 40t21 10q8 0 21-3t32-13m110-267q0 13-8 23t-21 10q-20 0-20-23 0-14 8-24t20-9q21 0 21 23m27 308h-105v-11q34-7 34-15v-138q0-17-2-25t-8-12-24-4v-10q15-3 32-8t30-12h8v209q0 3 9 7t26 8v11m272-31l2 11q-18 11-33 19t-21 8q-8 0-13-11t-7-37q-21 20-36 31t-28 13-23 4q-16 0-29-6t-21-23-9-46v-106q0-16-1-22t-8-9-22-4v-10q18-2 31-6t30-10l7 10v143q0 34 10 47t27 13q16 0 33-10t39-32v-110q0-15-3-22t-9-10-22-3v-10q17-2 33-6t30-10l7 10v163q0 15 2 24t4 12q3 2 10 1t20-6m400 31h-105v-11q34-9 34-15v-129q0-30-6-40t-21-10q-16 0-36 17t-38 48v114q0 3 8 7t26 8v11h-105v-11q34-9 34-15v-129q0-30-6-40t-21-10q-17 0-35 17t-39 48v114q0 4 9 8t25 7v11h-105v-11q16-4 25-7t9-8v-148q0-13-1-19t-10-8-23-4v-10q19-3 32-8t27-12l8 9 3 56q22-33 45-49t40-16q23 0 39 13t15 45v5q21-31 43-47t41-16q23 0 38 13t16 41v155q0 3 8 7t26 8v11m357-229q0 26-10 44t-25 30-33 18-32 6q-22 0-39-7l-5-19q10 5 19 6t18 2q15 0 31-8t27-23 11-39q0-27-12-43t-33-25-46-8q-25 0-50 3t-48 6l-2-15q23-6 54-10t60-4q53 0 84 22t31 64m-110 229h-117v-11q16-3 26-7t9-8v-270h39v270q0 3 9 7t34 8v11m257 0h-110v-11q21-4 29-7t7-8v-291q0-14-2-20t-11-9-21-3v-10q18-4 32-8t30-12l9 9v344q0 4 8 8t29 7v11m269-31l3 11q-18 11-33 19t-21 8q-8 0-14-11t-7-37q-20 20-36 31t-28 13-23 4q-15 0-28-6t-22-23-8-46v-106q0-16-2-22t-8-9-21-4v-10q17-2 31-6t30-10l7 10v143q0 34 10 47t27 13q16 0 33-10t38-32v-110q0-15-2-22t-10-10-22-3v-10q18-2 34-6t30-10l7 10v163q0 15 1 24t5 12q2 2 9 1t20-6m177-38q0 25-10 41t-24 23-29 10-21 2q-11 0-28-4t-33-14q-1-1-2-8t0-17 1-19 3-14l11 2q1 21 18 35t43 15q17 0 28-11t12-28q0-11-7-19t-19-16-35-19q-13-7-26-15t-19-20-8-26q0-21 10-35t27-21 35-8q11 0 23 3t24 6 18 10q1 2-1 10t-6 16-6 11l-9-2q-12-18-24-25t-25-7q-16 0-25 10t-9 20q0 13 13 22t41 24q14 7 27 16t23 21 9 31" />
</svg>