<svg id="fnt-Gentium Book Plus" viewBox="0 0 3932 1000" xmlns="http://www.w3.org/2000/svg"><path id="gentium-book-plus" class="f" d="M283 517v12q-14 4-19 9t-6 11v79t-6 3-16 6-15 5-7 1v-94q0-5-9-10t-37-10v-12h115m-24-140q2 1-3 9t-11 15-11 11l-10-2q-16-18-34-24t-42-6q-9 0-23 6t-29 21-24 41-10 63q0 45 14 74t37 43 47 14q25 0 43-8t30-19q3 1 8 4t11 5 6 4q-24 20-42 29t-34 14-30 3q-25 0-49-9t-44-28-32-47-11-65q0-55 22-93t60-60 83-20q11 0 25 3t28 8 25 14m252 154q-4 5-13 10t-16 8h-143l1-24h116q5 0 7-2t2-7q0-9-4-22t-14-24-30-11q-28 0-44 25t-15 62q0 25 8 46t23 34 37 13q11 0 20-2t22-9 31-21q3 2 6 6t5 6q-22 23-38 35t-31 16-32 4q-25 0-47-14t-36-40-13-60q0-33 14-61t39-46q11-8 27-14t32-7q23 0 40 9t27 24 14 32 5 34m292 136h-111v-13q34-9 34-15v-123q0-29-7-38t-22-10q-14 0-34 13t-43 44v114q0 3 9 7t24 8v13h-111v-13q16-4 25-8t9-7v-144q0-13-2-19t-9-8-23-5v-12q19-2 34-7t31-12l9 9 3 53q23-30 51-46t46-16q21 0 37 14t17 43v150q0 3 7 6t26 9v13m169-46l8 14q-27 20-49 29t-35 10q-18 0-32-15t-14-48v-146h-30l-6-7 19-18h17v-58l36-29 8 7v80h78l8 7q-5 7-12 16t-13 11q-6-3-17-6t-30-3h-14v124q0 28 6 38t19 11q8 0 21-4t32-13m117-262q0 14-10 24t-23 10q-25 0-25-24 0-15 10-25t22-10q12 0 19 6t7 19m25 308h-111v-13q34-7 34-15v-134q0-17-2-25t-8-12-24-5v-12q17-3 35-8t32-11h11v207q0 3 8 7t25 8v13m276-36l4 13q-18 12-35 21t-24 9q-9 0-15-10t-7-35q-21 19-36 29t-28 13-22 3q-16 0-29-6t-22-23-9-46v-104q0-16-1-22t-8-9-22-4v-12q20-3 35-6t33-10l7 10v142q0 33 9 45t26 11q14 0 30-8t37-29v-108q0-15-3-22t-9-10-22-3v-12q20-3 37-7t33-9l7 10v160q0 30 6 34 3 2 9 1t19-6m409 36h-110v-13q18-5 25-8t7-7v-124q0-30-6-40t-21-9q-14 0-32 14t-36 39v120q0 3 7 6t27 9v13h-110v-13q18-5 25-8t8-7v-124q0-30-6-40t-21-9q-14 0-31 14t-37 39v120q0 8 33 15v13h-111v-13q17-4 25-8t9-7v-144q0-13-2-19t-9-8-23-5v-12q21-3 36-8t29-11l9 9 3 48q23-30 45-43t40-14q23 0 37 12t16 39l0 4q23-28 45-41t39-14q24 0 40 14t16 43v150q0 3 7 6t27 9v13m374-87q0 41-32 66t-84 24q-15 0-35-1t-40-1-36-1l60-26q8 4 21 5t23 2q35 0 55-17t20-44q0-18-8-36t-25-30-45-12q-16 0-29 2t-22 4l-3-27h23q35 0 53-8t25-23 6-27q0-25-17-40t-62-16q-13 0-29 1t-34 4-30 4l-3-17q13-3 32-7t40-5 38-2q52 0 81 17t30 49q0 26-13 45t-36 27q22 4 39 17t27 31 10 42m-131 87h-114v-13q16-4 25-8t9-7v-268l47-5v273q0 3 8 8t25 7v13m394-119q0 25-9 47t-25 40-36 29-43 10q-32 0-56-15t-36-41-13-60q0-24 8-47t25-40 36-28 45-11q32 0 55 15t36 42 13 59m-45 9q0-26-10-48t-24-35-32-14q-23 0-37 12t-19 33-5 46 10 47 25 35 30 13q33 0 47-24t15-65m300-9q0 25-9 47t-25 40-36 29-43 10q-32 0-56-15t-36-41-13-60q0-24 9-47t24-40 36-28 45-11q32 0 55 15t36 42 13 59m-45 9q0-26-10-48t-24-35-32-14q-23 0-37 12t-19 33-5 46 10 47 25 35 30 13q33 0 47-24t15-65m310-117v13q-11 1-21 4t-19 11l-99 78-23-8 73-64q11-9 11-14t-6-6-14-1v-13h98m-134 227h-104v-13q16-4 25-8t8-7v-286q0-15-2-21t-10-8-21-4v-12q19-4 37-8t31-12l9 9v342q0 3 5 6t22 9v13m141-19l1 13q-14 3-29 6t-20 2q-19 0-29-13l-92-118 31-18 101 116q7 8 15 11t22 1m359-210q0 26-10 44t-26 31-33 18-32 6q-23 0-40-7l-6-21q10 5 19 6t17 2q15 0 30-8t25-23 10-38q0-25-11-42t-31-24-45-8q-25 0-53 3t-51 7l-2-18q24-6 57-10t63-4q54 0 87 22t32 64m-113 229h-124v-13q17-4 26-8t9-7v-266h47v266q0 3 8 7t34 8v13m264 0h-116v-13q21-4 28-8t8-7v-286q0-15-3-21t-10-8-21-4v-12q20-4 36-8t32-12l10 9v342q0 3 8 7t28 8v13m273-36l4 13q-18 12-35 21t-24 9q-9 0-15-10t-8-35q-20 19-35 29t-28 13-22 3q-16 0-29-6t-22-23-9-46v-104q0-16-1-22t-8-9-22-4v-12q20-3 35-6t33-10l7 10v142q0 33 9 45t26 11q13 0 29-8t37-29v-108q0-15-2-22t-9-10-22-3v-12q20-3 37-7t33-9l7 10v160q0 30 6 34 3 2 9 1t19-6m185-33q0 25-10 41t-26 23-29 10-23 2q-13 0-31-4t-34-14q-2-1-2-8t-1-17 2-21 3-17l13 3q3 22 20 37t41 15q17 0 27-10t11-25q0-17-15-28t-45-27q-14-7-26-15t-20-20-8-27q0-20 11-34t29-22 37-8q17 0 37 5t30 14q2 2 0 11t-6 18-7 13l-12-2q-9-18-22-27t-25-9q-16 0-25 9t-8 19q0 14 13 23t41 24q14 7 28 16t23 21 9 31" />
</svg>