<svg id="fnt-Geostar Fill" viewBox="0 0 3804 1000" xmlns="http://www.w3.org/2000/svg"><path id="geostar-fill" class="f" d="M474 412h-23v-70h-302v302h302v-140h-191v-22h214v185h-458v-23h50v-302h-50v-23h458v93m61 255v-235h312v129h-229v83h206v-38h23v61h-312m289-212h-206v83h206v-83m392-23v235h-312v-235h312m-22 212v-189h-206v189h206m80-212h312v61h-23v-38h-206v83h229v129h-312v-61h22v38h206v-83h-228v-129m482 212h97v23h-180v-212h-50v-23h50v-113h83v113h97v23h-97v189m447-212v212h49v23h-361v-129h228v-83h-206v38h-22v-61h312m-290 212h206v-83h-206v83m361-212h318v61h-22v-38h-163v189h50v23h-183v-23h50v-189h-50v-23m472-113h445v93h-23v-70h-289v140h208v-50h22v122h-22v-50h-208v140h49v23h-182v-23h49v-302h-49v-23m603 113v212h49v23h-182v-23h49v-189h-49v-23h133m3-113v77h-90v-77h90m199 0v325h50v23h-183v-23h50v-302h-50v-23h133m203 0v325h49v23h-182v-23h49v-302h-49v-23h133" />
</svg>