<svg id="fnt-Germania One" viewBox="0 0 2651 1000" xmlns="http://www.w3.org/2000/svg"><path id="germania-one" class="f" d="M82 468v53q0 41 4 50t13 20 18 10 19-10 16-19q3-9 3-25h-34v-56h99v176h-48l-6-34q-35 40-51 40t-53-33-44-53q-5-13-5-66v-53q0-62 10-80t42-47 49-30q28 0 63 32t45 70l-55 38q-8-27-26-50t-24-23q-13 0-29 25-6 9-6 65m360 63v18h-121q0 30 8 48 2 6 9 12t13 6 18-12 16-29l52 37q-14 25-42 43t-44 19-50-27-39-41-7-73 7-73 39-41 48-27 47 27 39 41 7 72m-69-63q-4-6-12-13t-14-6-15 13-11 40h57q-1-27-5-34m188 7v192h-66v-173q0-25-7-40t-18-24l55-39q18 15 27 35 37-35 52-35 10 0 31 19t24 40l-54 39q0-12-6-24t-9-11q-8 0-29 21m302-1v193h-66v-186q0-9-9-18t-16-9-20 12v201h-66v-173q0-25-6-39t-19-25l55-38q17 14 25 28 32-29 45-29 7 0 24 11t31 27q40-38 55-38t46 28 31 55v96q0 26 6 40t19 24l-55 39q-36-29-36-81v-111q0-9-9-18t-15-9-21 12q1 5 1 8m298-77h49v205q3 18 24 31l-45 39q-7-5-16-16t-16-24q-42 41-58 41-12 0-39-27t-33-43-7-71 7-71 33-43 39-27q17 0 56 36l6-30m-20 76q-4-6-15-13t-16-6-12 6-8 12q-6 9-6 60t6 60q2 5 8 11t12 7 16-7 14-12 4-58q0-53-3-60m199 2v192h-66v-173q0-25-6-39t-19-25l55-38q18 15 27 34 37-35 52-35t46 28 31 55v96q0 26 6 40t19 24l-55 39q-36-29-36-81v-111q0-9-9-18t-17-9-28 21m173 117v-195h66v173q0 26 6 40t19 24l-55 39q-36-29-36-81m34-299q5 0 24 16t19 22-19 22-25 17-24-17-19-22 19-22 25-16m213 104h49v205q3 18 23 31l-45 39q-6-5-16-16t-16-24q-41 41-58 41-12 0-39-27t-33-43-6-71 6-71 33-43 39-27q18 0 57 36l6-30m-21 76q-3-6-14-13t-16-6-12 6-8 12q-7 9-7 60t7 60q2 5 8 11t12 7 16-7 14-12 4-58q0-53-4-60m395 167q-35 33-53 33t-54-33-44-53q-6-13-6-66v-59q0-52 6-65 8-21 44-54t54-32 53 32 45 54q5 13 5 65v59q0 53-5 66-9 20-45 53m-70-49q10 10 17 10t16-10 14-20 4-50v-59q0-41-4-50t-14-20-16-10-17 10-14 20-4 50v59q0 41 4 50t14 20m231-116v192h-66v-173q0-25-6-39t-19-25l55-38q19 15 28 34 37-35 52-35t46 28 31 55v96q0 26 6 40t19 24l-55 39q-36-29-36-81v-111q0-9-9-18t-17-9-29 21m355 56v18h-121q0 30 8 48 2 6 9 12t13 6 18-12 16-29l52 37q-14 25-42 43t-44 19-50-27-39-41-7-73 7-73 39-41 48-27 47 27 39 41 7 72m-69-63q-4-6-12-13t-14-6-15 13-11 40h57q-1-27-5-34" />
</svg>