<svg id="fnt-GFS Neohellenic" viewBox="0 0 3042 1000" xmlns="http://www.w3.org/2000/svg"><path id="gfs-neohellenic" class="f" d="M251 659q-17-1-47 8-16 4-42 4-64 0-103-48-37-46-37-110 0-68 37-114 39-49 105-49 22 0 43 4 4 1 16 5 7 2 10 1 1 23 5 47h-24q-3-17-17-24-10-5-30-5-52 0-82 44-28 39-28 93 0 49 30 87 32 40 80 40 21 0 32-4 16-6 15-24l0-61h-8q-16 0-20 2-8 2-9 14h-24q2-29 0-47 27 1 50 1t44 0q0 65 0 82t-1-14q1 40 5 68m243-308v48h-25q0-11-6-14-4-2-17-2h-106v105q40 0 64-1t33 0q19-2 28-6v41q-4-1-12-2t-19-2q-29-1-53-1t-42 1q0 17 0 37t0 43 2 39 5 30h-43q3-12 4-29 1-13 1-30t0-37q0-36-1-52t0-14v-110q-1-29-5-44 16 0 44 1 32 2 44 2 26 0 52 0t52-3m240 237q-2 49-49 70-36 16-90 14-20-1-55-14-16-5-23-3 0-14 2-51h19q1 9 14 18 28 21 63 21 34 0 58-14 30-17 26-49-2-19-19-31-12-10-37-17-11-3-22-6t-22-6q-37-12-55-24-28-22-28-57 0-45 34-69 30-21 77-20 13 0 51 9 24 6 27 5 0 7 0 19t0 31h-19q-3-16-8-19-23-16-56-16-76 0-73 63 1 38 78 53 111 22 107 93m463-233h42q-2 10-4 25t-1 39q0-13 0 10t0 83v155h-29q-23-33-43-63t-38-55q-43-63-68-101t-34-53v117 90q1 23 2 39t4 26h-42q3-10 4-26t2-38v-92q0-38 0-62t-1-32q-2-48-9-62 47 1 47 0 22 30 41 58t38 54q41 59 64 96t30 53v-105q0-55 0-78t1-14q-1-45-6-64m181 115q45-1 69 28 21 26 20 70h-151v2q-1 32 22 54 21 19 51 20 30 1 54-23l14 27q-39 21-70 23-47 2-76-29-27-29-26-73 0-42 27-70 26-28 66-29m-57 72h110q-6-45-53-45-19 0-34 12t-23 33m384 28q0 45-29 73-30 28-72 28-46 0-75-30-28-29-27-72 1-43 29-71 28-28 73-28 46 0 73 27t28 73m-31 0q0-16-5-29t-14-24-22-15-28-6q-31 0-52 21-21 22-21 53 0 30 21 52 22 21 52 21 30 0 49-20t20-53m243 97h-34q0-14 0-29t0-30v-40q0-17-2-30t-3-21q-9-26-34-27-25 0-45 14-4 4-9 7t-8 8q-1 10-1 24t0 33q1 13 1 28t0 32q1 16 1 24t0 7h-32q1-26 1-69t1-101v-24q0-81-3-106h34q-1 17-2 43t-1 63v19q31-27 68-27 34 0 50 21 17 24 17 83v59q0 18 0 29t1 10m126-197q45-1 68 28 21 26 21 70h-152v2q0 32 23 54 21 19 51 20 30 1 53-23l15 27q-39 21-71 23-46 2-75-29-27-29-27-73 1-42 27-70 26-28 67-29m-58 72h110q-5-45-53-45-18 0-34 12t-23 33m197-175h34q-1 21-1 52t-1 73q0 15 0 41t1 63q0 38 0 56t1 15h-33q1-26 2-69t0-101q1-87-3-130m92 0h34q-1 21-1 52t-1 73q0 15 0 41t1 63q0 38 0 56t1 15h-33q1-26 2-69t0-101q1-87-3-130m170 103q45-1 69 28 21 26 20 70h-151v2q-1 32 22 54 21 19 51 20 30 1 54-23l14 27q-39 21-70 23-47 2-76-29-27-29-26-73 0-42 27-70 26-28 66-29m-57 72h110q-6-45-53-45-19 0-34 12t-23 33m361 125h-34q0-15 0-29t0-28q1-20 0-37t-2-31-3-20q-9-27-34-27-25-1-44 13l-17 15v144h-32q1-52 1-171 0-3 0-9t0-14l30-1 0 24q30-27 67-27 34 0 50 22 17 23 17 82 0 15 0 31t0 34q1 17 1 24t0 5m104-255q0 9-8 16t-17 8q-9 0-16-7t-7-17 7-17 16-7q10 0 17 7t8 17m-9 255h-33q4-102 0-194h33q-4 95 0 194m190-34l8 25q-6 3-11 5t-9 3q-13 4-31 5-47 2-76-29-27-29-26-73 1-39 24-67 25-27 64-32 29-3 57 5l-4 27q-21-6-38-6-17 0-31 6-40 15-41 68 0 30 20 52 21 21 52 21 18 0 42-10" />
</svg>