<svg id="fnt-Gidugu" viewBox="0 0 1004 1000" xmlns="http://www.w3.org/2000/svg"><path id="gidugu" class="f" d="M175 667v-107h-74v24h31v7q0 33-9 46t-28 13-26-21-8-67 8-64 27-19 25 11 9 34l40-6q-3-30-19-45t-53-15q-49 0-68 26t-19 79 19 81 64 27q30 0 48-24l9 20h24m68-175q12 0 21-8t8-21-8-22-21-8-21 8-8 21 8 21 21 9m-25 175h50v-160h-50v160m234 0v-216l-50 6v53q-14-7-30-7-67 0-67 87 0 81 60 81 23 0 42-19l11 15h34m-73-21q-25 0-25-58t33-57q8 0 15 3v101q-9 11-23 11m260 21v-160h-50v126q-11 12-23 12t-16-8-5-24v-106h-49v113q0 51 52 51 29 0 46-20l13 16h32m169-141h22v-19h-50q-14-4-30-4-36 0-51 17t-15 42 14 41l-9 8q-13 13-13 29 0 20 20 25-10 3-17 11t-6 18q0 41 73 41 81 0 81-48 0-20-14-33t-39-12h-60q-10 0-10-7 0-5 7-10l9-9q12 4 30 4 38 0 53-17t15-40-10-37m-77 35q0-18 4-26t15-8 16 8 5 26-5 27-16 8-15-8-4-27m-4 106h31q13 0 20 6t7 16q0 21-39 21-31 0-31-18 0-14 12-25m276 0v-160h-50v126q-11 12-23 12t-16-8-5-24v-106h-50v113q0 51 53 51 28 0 46-20l13 16h32" />
</svg>