<svg id="fnt-Girassol" viewBox="0 0 1714 1000" xmlns="http://www.w3.org/2000/svg"><path id="girassol" class="f" d="M127 307q-20 0-34 15t-14 38v244q0 22 9 35t27 13q18 0 28-14t10-34v-99q0-26-35-26v-19h104v19q-15 0-15 17v171h-12l-14-19q-22 24-66 24-92 0-92-107v-171q0-52 25-80t74-27q19 0 27-3t12-11h17l22 90-17 5q-9-25-17-38t-17-18-22-5m115 360v-19q16 0 23-5t7-16v-190q0-12-7-17t-23-5v-18h115v18q-16 0-23 5t-7 17v190q0 11 7 16t23 5v19h-115m139 0v-19q16 0 23-5t7-16v-190q0-12-7-17t-23-5v-18h118q46 0 67 21t22 65q0 22-11 37t-35 28q42 18 42 63 0 15 6 26t15 11h3v19h-4q-37 0-54-14t-17-42q0-22-11-38t-26-15h-10v-19h13q16 0 26-13t10-36v-25q0-22-10-36t-26-13h-33v211q0 11 7 16t23 5v19h-115m290-73l-11 32q-3 10 5 16t25 6v19h-83v-19q13 0 20-5t11-17l75-231h24l78 232q4 13 10 17t21 4v19h-115v-19q37 0 30-20l-10-34h-80m41-124l-35 105h68l-33-105m232-78q15 0 23 1t13 2 7-7h17l20 80-17 5q-12-35-25-48t-33-13q-16 0-27 11t-11 26q0 14 7 23t25 20l54 29q21 12 33 31t12 45q0 21-12 38t-32 27-44 10q-18 0-30-4t-18-7-12-3q-11 0-15 9h-17v-99h17q7 39 24 61t44 21q11 0 21-6t17-17 7-21q0-26-35-46l-44-24q-50-27-50-70 0-20 12-37t30-27 39-10m216 0q15 0 23 1t13 2 7-7h17l20 80-17 5q-12-35-25-48t-33-13q-16 0-27 11t-11 26q0 14 7 23t25 20l54 29q21 12 33 31t12 45q0 21-12 38t-32 27-44 10q-18 0-30-4t-18-7-12-3q-11 0-15 9h-17v-99h17q7 39 24 61t44 21q11 0 21-6t17-17 7-21q0-26-35-46l-44-24q-50-27-50-70 0-20 12-37t30-27 39-10m231-3q46 0 71 28t25 79v71q0 107-96 107-47 0-72-27t-25-80v-71q0-53 24-80t73-27m0 266q18 0 29-14t12-34v-150q0-21-12-35t-29-13q-18 0-30 13t-11 35v150q0 22 11 35t30 13m128 12v-19q16 0 23-5t7-16v-190q0-12-7-17t-23-5v-18h115v18q-16 0-23 5t-7 17v210h31q23 0 35-5t18-20 9-42h16v97h-17q-2-6-9-8t-25-2h-143" />
</svg>