<svg id="fnt-Glass Antiqua" viewBox="0 0 2523 1000" xmlns="http://www.w3.org/2000/svg"><path id="glass-antiqua" class="f" d="M133 672q-53 0-89-44t-36-120 38-121 91-44q27 0 48 11t21 32q0 9-5 15t-15 6-20-8-9-16 2-12q-9-4-21-4-42 0-72 40t-29 98q0 35 11 67t34 53 55 22 50-27 18-58v-30h-60q-11 0-11-13t11-13h114q11 0 11 13t-11 13h-26v27q0 38 16 57 10 10 10 17t-5 10-10 5q-13 0-26-27-9 21-31 36t-54 15m184-31v-267h-16q-6 0-9-4t-4-9 4-9 9-4h29q8 0 12 3t3 11v279h13q6 0 9 4t3 9q0 13-12 13h-53q-6 0-9-4t-4-9 4-9 9-4h12m161-220q43 0 67 28t24 71q0 69 5 93t19 35q8 4 8 11 0 13-12 13t-23-12-17-27q-8 16-27 27t-45 12q-38 0-62-24t-23-61 25-62 62-26 62 24q0-35-15-59t-46-23-39 17q5 10 5 17t-6 15-15 8-14-7-5-18q0-21 21-37t51-15m-59 164q0 28 19 46t44 19 43-18 18-43v-5q0-27-18-44t-45-18-43 18-18 45m232-119q0 18 36 45l17 12q14 10 22 17t17 24 10 34q0 28-19 51t-51 23-54-16-20-40q0-15 8-26t17-11 13 6 5 15q0 18-12 27 1 10 13 17t31 7 31-14 12-30-7-27-15-18-24-18l-9-6q-24-17-36-32t-12-35 15-34 37-14 39 12 18 31q0 9-5 14t-12 6-16-9-7-18 2-14q-4-3-18-3t-19 7-7 17m159 0q0 18 36 45l17 12q14 10 22 17t17 24 10 34q0 28-19 51t-51 23-54-16-20-40q0-15 8-26t17-11 13 6 5 15q0 18-12 27 1 10 13 17t31 7 31-14 12-30-7-27-15-18-24-18l-9-6q-24-17-36-32t-12-35 15-34 37-14 39 12 18 31q0 9-5 14t-12 6-16-9-7-18 2-14q-4-3-18-3t-19 7-7 17m483 175h12q12 0 12 13t-12 13h-55q-12 0-12-13t12-13h12l-15-46h-133l-14 46h12q12 0 12 13t-12 13h-51q-12 0-12-13t12-13h13l83-267h-20q-12 0-12-13t12-13h51q11 0 14 7l91 286m-113-265l-60 195h121l-61-195m214 163v102h15q5 0 9 4t3 9-3 9-9 4h-59q-5 0-9-4t-3-9 3-9 9-4h16v-188h-20q-6 0-9-4t-3-10 4-9 8-3h38q6 0 8 2t2 7v38q13-23 34-37t44-14q38 0 54 23t16 56v139h14q6 0 9 4t4 9-4 9-9 4h-54q-12 0-12-13t12-13h12v-141q0-53-42-53-29 0-53 26t-25 66m286 95q0-6 4-10t11-4 10 3 4 11q0 14-13 26t-31 12-32-14-12-32v-173h-22q-5 0-9-4t-4-9 4-9 9-4h12q8 0 10-3t2-9v-27q0-19 20-19 6 0 6 6v52h22q14 0 14 13 0 5-4 9t-10 4h-22v172q0 24 16 24t15-15m72 6v-188h-13q-6 0-10-4t-3-8q0-13 13-13h25q15 0 16 13v201h12q6 0 9 4t4 9q0 13-13 13h-53q-5 0-9-4t-3-9 3-9 9-4l13-1m7-291q10 0 17 7t7 15-7 16-17 7-16-7-7-16 7-15 16-7m160 320q-42 0-66-34t-24-89 24-88 72-34 73 44q6-20 17-33t24-13q6 0 9 4t3 9-7 10-11 8-8 16q-9 20-9 83v152h13q12 0 12 13t-12 13h-54q-5 0-8-4t-3-9 3-9 8-4h13v-76q-11 18-29 29t-40 12m4-223q-24 0-39 17-28 30-28 84 0 39 17 68t48 30 51-26 18-70-17-74-50-29m311 109v-102h-11q-6 0-10-4t-3-9 3-9 10-4h50q12 0 12 13t-12 13h-11v188h19q11 0 11 13 0 6-3 9t-8 4h-36q-6 0-8-3t-2-8v-32q-29 46-75 46-37 0-54-25t-18-57v-135h-11q-5 0-8-4t-3-9 3-9 8-4h51q6 0 9 4t4 9-4 9-9 4h-12v136q0 22 12 40t37 18 47-26 22-66m165-134q43 0 66 28t24 71q0 69 5 93t19 35q9 4 9 11 0 13-12 13t-23-12-17-27q-9 16-28 27t-44 12q-38 0-62-24t-24-61 25-62 62-26 63 24q0-35-15-59t-46-23-39 17q4 10 4 17t-6 15-15 8-13-7-5-18q0-21 20-37t52-15m-59 164q0 28 18 46t44 19 44-18 17-43v-5q0-27-18-44t-44-18-44 18-17 45" />
</svg>