<svg id="fnt-Glegoo" viewBox="0 0 1659 1000" xmlns="http://www.w3.org/2000/svg"><path id="glegoo" class="f" d="M197 484v25h57v52q-2 83-90 83-23 0-40-5t-27-14-17-22-9-32-4-39-1-48q0-33 2-55t8-43 17-34 30-20 46-7q46 0 65 22t23 63h27v-108h-27v38q-25-45-88-45-36 0-61 8t-40 24-24 40-11 51-3 66q0 29 1 48t4 41 8 35 15 28 24 21 35 12 47 5q69 0 96-49l6 42h20v-183h-89m169-192v25h30v325h-30v25h95v-25h-30v-350h-65m280 382q32 0 53-8t33-22 17-29 7-37l-29-1q-3 33-20 50t-62 17q-50 0-67-26t-17-86h199v-8q0-27-2-46t-9-40-19-34-34-22-52-8-53 8-34 22-20 34-9 40-2 46q0 78 25 114t95 36m-3-271q26 0 42 8t25 22 11 32 4 39h-164q1-22 4-38t11-32 25-23 42-8m294 172q27 0 47-6t30-15 17-22 8-27 2-31q0-47-16-69l33-33-21-21-35 35q-25-12-65-12-27 0-46 5t-30 15-17 23-8 26-2 31q0 58 26 80l-21 21q-22 22-22 46 0 30 27 42-29 23-29 56 0 22 8 36t26 21 36 9 47 2q24 0 39-1t33-5 30-12 18-24 8-38q0-33-19-50t-55-17h-114q-27 0-27-21 0-17 13-29l24-23q23 8 55 8m0-27q-42 0-56-18t-13-56 13-56 56-18q43 0 56 18t14 56-14 56-56 18m-5 213q-21 0-34-2t-27-5-19-14-6-23q0-31 23-50h107q52 0 52 40 0 35-22 44t-74 10m300-117q-24 0-41-7t-25-18-14-28-6-32-1-35 1-36 6-32 14-28 25-18 41-7 41 7 25 18 14 28 6 32 1 36-1 35-6 32-14 28-25 18-41 7m0 30q23 0 41-5t31-12 22-18 15-24 8-28 4-31 1-32-1-33-4-31-8-28-15-23-22-19-31-12-41-4-41 4-31 12-22 19-15 23-8 28-4 31-1 33 1 32 4 31 8 28 15 24 22 18 31 12 41 5m304-30q-24 0-41-7t-25-18-14-28-6-32-1-35 1-36 6-32 14-28 25-18 41-7 41 7 25 18 14 28 6 32 1 36-1 35-6 32-14 28-25 18-41 7m0 30q23 0 41-5t31-12 22-18 15-24 8-28 4-31 1-32-1-33-4-31-8-28-15-23-22-19-31-12-41-4-41 4-31 12-22 19-15 23-8 28-4 31-1 33 1 32 4 31 8 28 15 24 22 18 31 12 41 5" />
</svg>