<svg id="fnt-Gloria Hallelujah" viewBox="0 0 3777 1000" xmlns="http://www.w3.org/2000/svg"><path id="gloria-hallelujah" class="f" d="M-1 493q0-24 7-49t20-50 29-45 39-38 45-24 50-10q12 0 30 3t34 8 29 16 12 22q0 1 0 2t-1 2q0 1 0 2-1 1-5 5t-5 5q-1 1-3 1-1 0-3 0-2 0-3 0-1 0-2-1-2-1-11-6t-20-10-20-10-12-5q-2 0-4-1-1 0-3 0t-2 0q-23 0-44 8t-39 23-32 34-24 40-15 43-5 44q0 27 9 48t24 36 38 22 47 7q14 0 36-4t41-12 34-23 13-34q0-9-2-13t-7-7-11-3-13 0q-11 0-19 4t-15 7-15 8-18 4q-13 0-20-4t-7-18q0-14 10-23t24-12 29-6 25-2q17 0 32 3t26 10 17 19 6 32q0 30-16 53t-42 36-54 21-54 7q-35 0-65-12t-51-34-32-53-12-66m367-103q0-14-2-27t-1-24 8-17 24-6q5 11 11 34t10 52 9 65 8 70 6 69 4 62q-16 11-26 2t-16-32-9-54-7-67-8-67-11-60m103 178q0-31 14-57t37-45 53-29 58-11q17 0 30 11t22 26 13 32 5 30q0 27-13 53t-35 45-47 32-53 13q-23 0-39-8t-26-22-15-32-4-38m41 4q0 13 2 23t8 16 15 10 23 4q18 0 36-10t33-25 23-34 9-36q0-8-2-17t-5-18-9-13-17-5q-8 0-20 6t-25 15-26 21-22 23-17 23-6 17m210-110q0-5 0-9t2-9 5-6 9-2q5 0 11 7t12 19 13 25 10 26 8 19 3 9q7-17 15-37t19-37 27-29 39-12q12 0 22 4t19 10 13 17 5 23q0 10-9 15t-19 4h-5l-21-21q-1 0-2 0 0 0-1-1t-2 0q-17 0-27 10t-14 23-6 29-1 29q0 9 2 19t4 20 4 19 2 21q0 21-22 21-12 0-25-13t-26-33-25-44-20-48-14-41-5-27m270 22q0-3 0-10t0-14 1-14 0-10q6-8 14-13t17-7q2 26 9 56t14 60 14 59 6 55q0 22-22 22-14 0-23-12t-15-28-9-39-5-41-1-38 0-26m7-184q9 4 15 13t6 16-11 10-34-6q0-13 5-23t19-10m297 304q-18 12-32 22t-26 17-27 10-35 4q-46 0-68-24t-22-72q0-19 5-39t15-40 22-37 30-32 36-21 39-9q36 4 56 18t30 35 14 49 6 55 6 56 14 53q-6 16-12 22t-12 2-16-21-23-48m-168-42q0 28 10 40t38 13q20 0 38-7t32-19 22-30 8-39q0-9 1-25t-2-31-9-28-21-11q-25 0-47 13t-37 33-24 44-9 47m476-199q0-2 0-8t1-13 0-12 0-8q12-13 20-16t13 3 7 16 3 26 1 30 1 29 2 23 5 14h168q10 0 14-6t6-17-1-23-3-28-1-27 5-24 12-16 26-7q7 10 8 21t1 22-3 24-1 22q0 29 3 57t8 58 8 57 4 57q1 30-4 43t-12 12-17-15-16-37-13-54-3-67h-177q4 34 10 64t8 52 3 36-10 14q-14 0-24-9t-17-26-12-39-7-47-4-51-4-49-3-45-5-36m545 241q-19 12-32 22t-26 17-27 10-36 4q-45 0-67-24t-22-72q0-19 5-39t14-40 23-37 30-32 35-21 40-9q35 4 55 18t30 35 15 49 6 55 5 56 14 53q-6 16-11 22t-13 2-16-21-22-48m-168-42q0 28 10 40t37 13q20 0 39-7t32-19 22-30 8-39q0-9 0-25t-2-31-9-28-20-11q-26 0-47 13t-37 33-25 44-8 47m273-172q0-14-2-27t-1-24 8-17 24-6q5 11 10 34t10 52 10 65 8 70 6 69 4 62q-16 11-26 2t-16-32-10-54-6-67-8-67-11-60m114 0q0-14-2-27t-1-24 8-17 24-6q5 11 11 34t10 52 9 65 8 70 6 69 4 62q-16 11-26 2t-16-32-9-54-7-67-8-67-11-60m103 141q0-26 6-53t20-47 36-34 54-14q19 0 32 7t23 17 14 26 5 30q0 24-12 48t-31 41-44 27-51 4q1 14 10 23t22 13 26 5 25 2q11 0 21-2t19-5 20-4 21-2q4 0 9 0t8 3 6 5 3 9q0 9-7 15t-17 11-23 6-25 4-22 1-15 1q-31 0-56-10t-42-28-26-43-9-56m52-32q0 17 4 25t23 8q13 0 25-5t22-13 16-19 6-25q0-7-2-15t-5-14-10-11-16-4q-14 0-26 7t-20 17-13 23-4 26m232-109q0-14-2-27t-1-24 8-17 24-6q5 11 10 34t10 52 10 65 8 70 6 69 4 62q-16 11-26 2t-16-32-10-54-6-67-8-67-11-60m102 77q0-2 1-10t0-16 0-15 0-10q4-6 9-12t9-8 11 0 13 9v4 7q-1 2-2 11t-3 20-4 20-2 11q0 9 2 23t6 29 9 31 13 27 18 20 22 7q16 0 28-8t20-21 15-30 9-34 5-32 1-27-2-23-4-20-4-21-2-20q0-9 7-13t15-4q10 0 17 6t10 15 4 22 2 23-1 23 0 16q0 17-3 38t-8 43-15 44-22 38-30 27-38 11q-22 0-39-11t-28-28-19-39-12-44-6-43-2-36m136 353q14 0 26 8t24 16 28 16 35 7 40-5 34-16 24-27 9-40q0-38-6-79t-15-82-21-79-20-72q0 0-1-2t0-2q0-10 7-14t14-4q2 0 6 1t5 0q15 39 29 78t23 81 17 82 5 82q0 32-11 58t-30 44-47 28-59 9q-21 0-41-4t-38-15-27-27-10-42m114-494q0-1 0-6t1-9 4-8 7-3q8 0 13 2t6 6 3 7 0 11q0 4 0 9t-2 9-5 7-9 3-10-3-5-7-2-8-1-10m358 278q-18 12-32 22t-26 17-27 10-35 4q-46 0-68-24t-22-72q0-19 5-39t15-40 22-37 30-32 36-21 39-9q36 4 56 18t30 35 14 49 6 55 6 56 14 53q-6 16-12 22t-13 2-15-21-23-48m-168-42q0 28 10 40t38 13q20 0 38-7t32-19 22-30 8-39q0-9 1-25t-2-31-9-28-21-11q-25 0-47 13t-37 33-24 44-9 47m276-213q0-5 1-13t4-16 8-12 13-5q1 0 3 0t2 1q8 30 10 60t-1 58-7 54-9 48-3 40 5 29q-1-7-2-18t2-23 8-24 15-21 25-14 38-6q24 0 41 9t29 22 17 34 5 41q0 11 0 24t-3 24-12 18-23 8q0-8 1-22t1-28-1-31-7-28-14-21-27-8q-5 0-14 1t-17 5-17 12-14 22-5 35 5 52q-3 9-9 10t-13 2q-15 0-25-11t-16-30-7-43-1-51 3-54 4-52 5-45 2-33" />
</svg>