<svg id="fnt-Glory" viewBox="0 0 987 1000" xmlns="http://www.w3.org/2000/svg"><path id="glory" class="f" d="M248 489v166q0 6-7 9t-19 4-23 2q-86 0-132-42t-46-124q0-55 20-94t57-61 80-21q15 0 32 1t28 5q5 1 6 2t2 5v21q0 5-2 6t-5 0q-12-7-26-9t-29-2q-17 0-39 7t-41 23-32 44-13 70q0 44 13 71t32 43 42 20 42 6q20 0 24-6v-119q0-3-1-4t-4-1h-73q-2 0-3-1t-1-3v-21q0-2 1-3t3-1h108q4 0 5 1t1 6m65 174v-347q0-3 4-3h28q4 0 4 3v347q0 4-4 4h-28q-4 0-4-4m192 7q-41 0-63-16t-32-43-8-63q0-35 9-62t33-43 61-15q39 0 61 15t32 43 10 62-9 63-31 43-63 16m0-29q37 0 52-24t15-68-16-68-51-23q-35 0-51 23t-16 68q0 44 15 68t52 24m229-213q30 0 51 8 3 2 4 3t1 3l-5 19q-1 3-2 3t-4 0q-9-3-19-5t-20-1q-8 0-16 2t-16 3-10 3q-2 2-5 4t-3 9v182q0 4-1 5t-3 1h-27q-2 0-3-1t-1-4v-204q0-8 2-10t6-5q15-7 35-11t36-4m137 204q-12-17-23-42t-19-51-15-55-9-47q-1-6 4-6h27q3 0 5 1t2 6q1 13 5 30t9 38 12 38 12 35 12 24q2 3 4 3t3-2q7-12 14-33t15-44 13-48 8-43q0-3 1-4t5-1h25q2 0 4 1t1 5q-3 18-7 35t-9 34-10 37q-6 17-15 40t-20 49-28 47-37 36-48 13q-8 0-14-1t-12-2q-6-2-4-7l7-16q1-2 3-3t4 1q12 2 26-2t25-13q10-7 15-14t11-14q2-6 2-12t-4-13" />
</svg>