<svg id="fnt-Goblin One" viewBox="0 0 4003 1000" xmlns="http://www.w3.org/2000/svg"><path id="goblin-one" class="f" d="M22 498q0-31 9-58t25-48 39-37 49-26 56-16 62-6q19 0 38 3t38 7 34 10 31 13l18-23h55v119h-62q-10-19-25-33t-32-24-37-14-40-5q-23 0-44 7t-36 24-24 41-9 59q0 32 10 57t26 42 39 25 47 8q21 0 37-3t28-10v-62l-71-68h196v187h-58l-13-25q-15 10-31 16t-34 10-37 6-38 2q-33 0-64-4t-58-12-51-23-39-33-25-46-9-60m528 34q0-37 15-64t42-46 64-26 80-9 81 9 64 26 42 46 15 64q0 38-15 65t-42 45-64 26-81 8-80-8-64-26-42-45-15-65m129 0q0 22 5 40t16 32 23 19 28 7 29-7 23-19 15-32 6-40q0-23-6-42t-15-31-23-21-29-7-28 7-23 21-16 31-5 42m308 135l66-60v-265l-64-55 180-7v162q18-28 46-42t64-13q38 0 67 11t48 32 30 47 10 58q0 27-9 53t-28 45-47 31-69 12q-38 0-66-13t-46-40v44h-182m182-135q0 22 6 37t16 25 22 14 24 4q15 0 28-5t21-15 14-25 5-35-5-36-14-26-21-16-28-5q-13 0-25 4t-22 15-15 25-6 39m299 135l66-60v-265l-64-55 178-7v327l66 60h-246m378-302q-13 0-24-5t-20-13-14-21-5-24 5-25 14-20 20-14 24-5 25 5 20 14 14 20 5 25-5 24-14 21-20 13-25 5m-117 302l66-60v-149l-64-54 178-8v211l66 60h-246m257 0l66-60v-149l-63-54 180-8v53q18-30 46-46t66-16q28 0 50 9t38 25 22 43 8 60v83l66 60h-227l45-60v-78q0-15-3-29t-9-25-16-16-24-6-25 6-20 17-13 28-4 37v66l45 60h-228m651-175q0-34 10-61t27-47 39-35 48-24 53-13 53-5q28 0 56 5t54 13 48 24 38 35 25 47 9 61q0 33-9 59t-26 48-39 35-48 24-53 14-55 4-55-4-53-13-48-24-39-35-26-47-9-61m144 0q0 28 6 53t18 43 27 28 35 10 35-10 27-29 18-43 7-52q0-29-6-54t-18-43-27-29-36-11q-19 0-35 11t-27 29-18 43-6 54m348 175l66-60v-149l-64-54 181-8v53q17-30 46-46t66-16q28 0 50 9t37 25 23 43 8 60v83l66 60h-227l45-60v-78q0-15-3-29t-10-25-16-16-23-6-25 6-20 17-13 28-4 37v66l45 60h-228m502-131q0-30 9-53t23-39 35-28 42-17 46-9 45-3q36 0 66 8t53 25 36 45 13 69h-239q1 25 9 42t20 26 27 14 33 4q15 0 32-2t35-7 33-13 27-21l25 19q-6 15-17 27t-25 20-31 15-33 11-35 5-33 2q-45 0-81-9t-62-27-39-45-14-59m131-40h118q0-18-3-30t-10-20-16-11-23-3q-28 0-45 16t-21 48" />
</svg>