<svg id="fnt-Gochi Hand" viewBox="0 0 2368 1000" xmlns="http://www.w3.org/2000/svg"><path id="gochi-hand" class="f" d="M122 414q5-3 10-4t10-1q6 0 11 2t8 5 6 7 1 8q0 5-3 10t-10 9q-13 7-21 12t-15 9-10 8-9 8q-6 6-12 14t-10 15-8 14-3 11q0 4 2 6t6 2q4 0 8-2 15-9 32-15t33-12 34-7 33-2q25 0 46 6t36 15 23 23 9 31q0 18-11 35t-29 29-43 21-54 7q-38 0-70-8t-54-22-36-34-12-43q0-23 6-45t19-43 32-37 45-32m158 180q0-8-6-15t-14-12-23-7-29-3q-31 0-60 8t-55 25q-6 4-6 9 0 4 4 8t12 8 18 7 22 6 24 4 23 1q19 0 35-3t29-8 19-12 7-16m59-8q0-5 1-10t1-11q0-4-4-6t-8-5-8-7-3-12q0-6 3-11t9-10q14-11 30-20t31-14 30-9 29-3q24 0 45 8t35 24 25 35 8 43q0 23-9 43t-25 35-37 24-45 9q-24 0-43-8t-35-21-22-33-8-41m113 59q10 0 21-4t20-12 15-19 6-26q0-15-5-28t-15-22-22-15-28-5q-27 0-41 14t-15 43q0 16 5 30t13 23 21 16 25 5m229-180q13 0 25 4t21 10 15 14 6 16q0 6-3 11t-5 8-9 6-10 3q-5 0-10-5t-10-9-11-10-16-4q-9 0-16 4t-12 12-7 18-3 22q0 34 13 52t38 18q11 0 19-4t15-8 11-8 10-4q3 0 6 2t6 5 3 6 2 7q0 8-8 16t-20 16-28 11-30 5q-19 0-35-8t-28-21-18-31-7-41q0-25 8-45t20-36 30-23 38-9m77-33q0-27 34-27 6 0 11 3t5 9q2 15 4 30t3 33 3 42 4 56q0 4 1 5t2 2q3 0 5-5 8-18 18-33t22-24 25-16 27-5q18 0 33 10t24 29 16 46 6 60q0 9-1 14t-5 10-9 4-14 2q-11 0-16-5t-5-13q0-23-3-44t-9-36-12-24-16-9q-18 0-37 31t-39 92q-2 5-4 9t-6 6-8 3-11 1q-13 0-19-5t-6-16q-1-43-5-82t-8-70-7-53-3-30m312-14q-7 0-13-2t-11-6-7-9-3-11q0-11 9-17t21-6q7 0 13 2t10 6 7 9 3 11q0 11-8 17t-21 6m-33 74q0-8 7-14t20-5q22 0 23 15 1 10 2 23t3 28 2 31 1 31 1 29 1 26q0 12-9 18t-25 7q-8 0-12-4t-4-10q0-34-2-63t-3-53-4-38-1-21m375-10q0-3-1-8t-3-13-4-15-4-15-3-14-1-11q0-6 3-9t8-6 11-3 11 0q6 0 12 3t8 13q3 9 5 19t3 19 3 17 3 16q1 6 3 10t6 5 7 2 8 1q5 0 11-1t11-1q3 0 7 1t5 4 5 7 1 13q0 6-2 10t-9 6l-9 2q-4 1-8 1t-9 1q-11 1-11 10 0 1 1 7t2 14 4 19 4 20 3 17 2 11q1 5 2 8t1 8q0 4-2 8t-7 6-10 5-14 2q-9 0-12-5t-6-12q-3-13-6-26t-5-27-5-26-4-24q-1-5-5-8t-8-2q-16 0-33 1t-33 2q-5 0-9 3t-3 9q0 11 0 22t1 23q0 14-1 28t-1 27q0 5-3 8t-5 5-9 3-9 1q-11 0-17-4t-7-13q0-14 1-28t1-30q0-11-1-20t0-20q0-5-2-7t-5-4-7-3-6-4-5-8-2-14q0-5 2-7t4-5 6-3 6-3 5-4 2-7q0-3-1-7t0-8-1-6 0-4q0-9 3-14t5-7 8-4 8 0q15 0 21 5t6 16l1 26q0 6 3 9t9 3l55-2q7-1 9-4t2-10m287-29q14 0 26 4t22 12 15 17 6 23q0 5-2 10t-6 8-9 6-11 2q0 0-1 0t0 0q-1 1-1 1l1 19q1 35 9 51t24 16q5 0 9-1t7-2 7-2 7-1q5 0 9 5t5 11-6 14-13 12-20 9-21 4q-19 0-34-16t-20-46q-2-5-4-5-3 0-5 3-25 30-52 45t-54 16q-12 0-22-4t-17-10-11-17-4-21q0-17 8-36t20-36 29-35 35-29 38-19 36-8m-8 85q5-9 8-12t11-5q5-1 5-4 0-2-1-4-5-6-10-11t-14-5q-9 0-21 6t-23 14-23 20-20 23-14 24-6 21q0 8 5 13t12 5q20 0 44-22t47-63m137-68q0-4 3-8t8-6 12-5 13-1q3 0 6 2t5 7 3 15 3 26q1 5 2 8t2 2q2 0 5-7 17-52 51-52 16 0 29 10t24 32 21 58 20 89q0 2 0 4t1 5q0 5-3 9t-7 7-9 4-10 1q-10 0-15-2t-6-8q-7-38-13-66t-14-49-12-30-13-10-12 8-11 25-10 42-9 62q-1 10-9 16t-22 6q-9 0-14-4t-5-10q-2-51-4-84t-5-52-4-30-1-14m396 18q1 1 3 1 6 0 6-7v-76q0-15 6-21t22-6q15 0 21 6t7 22q0 6-1 17t-2 26-1 31-1 33q0 24 4 43t9 29 16 18 19 6q6 0 11-2t12-1q5 0 8 5t4 12q0 6-4 12t-10 9-15 7-18 2q-20 0-37-12t-25-38q0-4-2-4-2 0-3 4-7 18-18 32t-24 25-31 15-35 6q-20 0-36-7t-28-18-18-27-7-34q0-24 10-45t26-36 39-24 48-9q10 0 21 1t24 5m-70 150q14 0 25-7t19-15 15-21 9-22 6-19 1-12q0-3-1-5t-5-3q-6-2-13-3t-14-3-13-1-12-1q-14 0-26 5t-21 12-13 19-4 25q0 11 3 21t10 16 15 10 19 4" />
</svg>