<svg id="fnt-Golos Text" viewBox="0 0 2506 1000" xmlns="http://www.w3.org/2000/svg"><path id="golos-text" class="f" d="M183 672q-41 0-76-19t-56-58-21-101v-10q0-45 12-77t33-54 49-31 59-10q25 0 47 7t40 21 29 33 19 44h-50q-7-22-21-36t-30-21-34-6q-27 0-51 12t-38 41-14 77v10q0 38 9 64t24 42 33 23 37 7q28 0 48-11t34-32 15-58h-87v-40h132v15q0 41-10 72t-28 52-45 33-59 11m320 0q-34 0-63-15t-47-45-18-75v-10q0-43 18-72t47-44 63-14q34 0 63 14t46 44 18 72v10q0 45-18 75t-46 45-63 15m0-40q20 0 39-10t31-30 12-55v-10q0-32-12-52t-31-29-39-9q-20 0-39 9t-32 29-12 52v10q0 34 12 55t32 30 39 10m270 37q-28 0-45-9t-25-27-8-49v-267h44v267q0 26 9 36t30 9q5 0 9 0t8-1v39q-2 1-7 1t-8 1-7 0m185 3q-34 0-63-15t-47-45-18-75v-10q0-43 18-72t47-44 63-14q34 0 63 14t46 44 18 72v10q0 45-18 75t-46 45-63 15m0-40q20 0 39-10t31-30 12-55v-10q0-32-12-52t-31-29-39-9q-20 0-39 9t-32 29-12 52v10q0 34 12 55t32 30 39 10m282 40q-26 0-46-7t-32-16-21-25-11-30h44q4 16 19 28t47 12q37 0 52-12t14-28q0-11-6-19t-22-14-45-10q-22-3-39-9t-30-15-20-23-6-32q0-20 11-37t35-28 56-10q32 0 52 10t33 29 15 38h-44q-4-17-17-28t-39-11q-32 0-45 10t-13 27q0 18 14 27t52 14q25 3 44 8t32 16 19 24 7 33q0 21-12 39t-36 28-62 11m436-5h-47v-309h-121v-41h290v41h-122v309m237 5q-34 0-63-15t-47-44-18-76v-10q0-44 17-73t45-43 61-14q58 0 90 32t32 90v28h-201q0 31 13 50t32 26 39 9q30 0 46-10t23-28h43q-8 38-39 58t-73 20m-3-235q-20 0-39 7t-30 25-12 42h160q-1-27-12-44t-28-23-39-7m195 230h-50l100-135-95-130h51l70 96 70-96h49l-94 128 99 137h-52l-74-104-74 104m360 2q-28 0-46-8t-26-26-8-43v-151h-40v-39h40v-60h44v60h71v39h-71v146q0 22 10 32t36 10q15 0 30-1v39q-9 1-19 1t-21 1" />
</svg>