<svg id="fnt-Gorditas" viewBox="0 0 2125 1000" xmlns="http://www.w3.org/2000/svg"><path id="gorditas" class="f" d="M21 494q0-80 39-131t98-51q35 0 72 18 1 0 3-8t7-10q22-4 36-4 21 0 31 8 4 14 4 32 0 36-11 65-2 5-33 5-16 0-25-4-5-4-5-10 0-3 3-10-35-23-65-23-38 0-62 34t-24 88q0 57 27 86t62 29q32 0 60-27 6-15 6-34 0-18-6-33-9 0-31-3t-23-6q-4-7-4-15 0-10 5-17 11-16 46-16 18 0 40 5t30 12q5 11 9 44t4 70q0 44-6 74-11 8-25 8-12 0-30-6-8-3-8-27-50 33-86 33-16 0-34-6t-37-18-33-33-24-50-10-69m337 66q0-62 37-105t96-43q27 0 46 9t31 27 15 38 5 45q0 69-35 105t-92 36q-30 0-51-11t-33-27-15-35-4-39m71-4q0 25 16 43t37 18q18 0 32-15t18-33 5-32q0-22-13-39t-34-17q-25 0-43 24t-18 51m197-108q0-20 3-29 29-8 56-8 32 0 50 13-1 9-1 26l2-4q2-4 6-10t10-12 17-9 25-4q38 0 64 32-3 22-17 34t-28 12q-19-13-36-13-49 0-49 63 0 22 5 47 1-2 14-2 15 0 19 3 6 10 6 31 0 33-12 43-25 5-61 5-59 0-69-11-1-6-1-30 0-35 3-38 3-4 19-4 12 0 17 3-4-11-4-77 0-22 1-25-6 1-11 1-18 0-25-9-3-8-3-28m248 92q0-51 30-90t80-39q18 0 39 6 0-1-1-20t0-40q0-49 2-54 18-15 77-15 12 0 22 1t15 2 8 3 3 3l1 0q2 5 2 28 0 24-2 29-16 9-51 9-6 0-8-1 0 26 1 77t1 76q0 32-1 63 3-2 18-2 28 0 36 5 4 3 4 42 0 22-1 28-12 16-59 16-29 0-53-2-2-10-2-18 0-4 0-4-8 2-32 15t-41 13q-26 0-47-22t-31-51-10-58m63-6q0 31 15 50t35 19q12 0 27-7t14-11q0-21-1-43t-1-35 0-18q0-10-14-19t-29-8q-17 0-28 13t-15 28-3 31m237 91q0-25 3-29 6-3 15-4 6-1 26-1-3-32-3-69 0-40 5-51-24 0-32-2 0-14 3-29 1-6 6-25 19-4 62-4 18 0 32 2t23 5 8 5q1 0 1 18 0 29-5 36-2 3-12 3-19 0-24-2-5 35-5 91 0 23 1 24 3-1 9-1 18 0 29 6 1 2 1 9 0 12-3 30t-10 24q-6 6-39 6-79 0-87-15-4-6-4-27m40-311q0-14 15-14 13 0 27 7 11-10 28-10 11 0 20 7t8 21q0 6-3 12t-5 10-10 9-11 8-13 7-12 7q-20-14-32-33t-12-31m131 115q0-11 3-14 9-1 24-1h11v-94q26-2 33-2t31 2l5 95q55 2 63 7 7 13 7 40 0 11-3 14-15 2-35 2-7 0-20-1t-19 0q0 17-1 42t0 35q0 39 5 48t29 9q9 0 15-1l-3-11 46-10q5 14 5 34 0 32-6 41-49 7-82 7-42 0-56-12-6-6-9-15t-5-26-2-33-1-49-3-60q-16-2-24-7-8-13-8-40m222 134q0-36 10-70t35-58 56-24q14 0 25 5t18 12 10 14 6 13 2 5q0-27-1-36 10-8 21-11t30-3q15 0 26 1t18 3 10 3 5 2l1 0q2 5 2 28 0 24-2 29-2 3-16 6t-25 3q-5 0-11-1 1 3 1 25 0 66-4 73 3-2 8-2 22 0 43 5 4 3 4 42 0 22-1 28-4 6-22 11t-42 5q-43 0-53-2-3-10-3-16 0-4 1-6-6 2-34 15t-40 13q-39 0-59-33t-19-79m62-13q0 28 17 47t37 20q10 0 24-6t14-10q2-23 3-42t2-30 1-13v-6q0-10-14-21t-31-10q-25 0-39 23t-14 48m246 102q3-52 36-72 3 0 10 0 27 0 41 17 0 1 0 2t0 2q0 1-1 5 5 8 16 12t26 5q19 0 30-9t11-21q0-25-40-27-16 0-25-1t-26-4-27-7-21-13-16-20-6-29q0-39 31-59t76-20q40 0 68 9 3-5 8-10t9-6q37 4 49 25-3 52-36 72-3 0-10 0-27 0-41-17 0-1 0-2t0-2q0-1 1-5-6-7-20-11t-29-5q-39 0-39 26 0 30 55 32 15 0 24 1t24 3 25 7 19 12 15 20 5 29q0 79-116 79-39 0-65-9-8 15-12 16-37-4-49-25" />
</svg>