<svg id="fnt-Gothic A1" viewBox="0 0 2091 1000" xmlns="http://www.w3.org/2000/svg"><path id="gothic-a1" class="f" d="M25 484q0-85 43-138t117-54q24 0 46 8t36 20 24 25 16 25l-34 11q-34-56-88-56-57 0-88 44t-32 115q0 74 33 116t85 42q47 0 73-32t26-73v-34h-103v-34h141v198h-28l-3-54q-29 62-107 62-70 0-113-51t-44-140m389 51q0 50 23 79t57 30q34 0 57-30t23-79q0-50-23-79t-57-29q-34 0-57 29t-23 79m-38 0q0-60 31-100t87-40q56 0 87 40t31 100q0 26-6 50t-20 44-37 34-55 12q-30 0-54-12t-37-33-20-45-7-50m313-99h-45v-32h45v-84h39v84h69v32h-69v154q0 24 9 34t30 10h30v33h-35q-73 0-73-74v-157m202 231h-37v-380h37v159h1q10-21 32-36t49-15q85 0 85 102v170h-37v-164q0-76-55-76-30 0-52 25t-23 59v156m295-322h-48v-49h48v49m-5 322h-37v-263h37v263m69-132q0-62 32-101t86-39q35 0 60 20t33 49l-32 9q-7-20-23-33t-38-13q-36 0-58 31t-21 77q0 50 22 79t57 30q23 0 41-15t27-35l32 11q-10 29-37 50t-63 20q-53 0-85-38t-33-102m485-128l-43 123h138l-43-123q-4-11-13-36t-12-34h-3q-20 60-24 70m-92 260h-43l137-366h48l136 366h-43l-37-106h-161l-37 106m407-280h-80v-30h14q42 0 58-13t15-36v-11h33v375h-40v-285" />
</svg>