<svg id="fnt-Gotu" viewBox="0 0 1181 1000" xmlns="http://www.w3.org/2000/svg"><path id="gotu" class="f" d="M342 484v137q-5 6-16 15t-28 18-40 15-54 7q-33 0-63-12t-55-34-38-57-14-80q0-39 14-74t40-62 59-41 74-15q34 0 56 9t35 20 19 24 8 20q-4 7-14 13t-22 9q-3-13-10-25t-20-23-30-15-42-6q-24 0-46 8t-39 27-28 46-10 67q0 46 12 79t33 54 46 31 54 10q32 0 50-7t28-12v-124q-24 1-49 1t-47 1q1-8 5-15t8-10l124 1m114 43q0 32 7 55t21 39 29 24 36 8q40 0 61-27t21-80q0-26-6-49t-18-39-29-26-39-9q-16 0-31 6t-26 18-19 33-7 47m-42 16q0-31 11-57t29-45 44-30 54-10q31 0 54 10t37 28 22 41 8 50q0 30-10 57t-27 46-43 31-58 12q-24 0-46-9t-39-26-27-42-9-56m297-112v-5q4-5 12-10t20-5h16v-72q8-6 18-10t21-3v85h98q0 9-5 14t-10 6h-83v164q0 16 4 26t10 15 15 8 18 2q16 0 27-7t18-13q7 2 9 8-2 4-8 11t-14 12-22 11-28 5q-14 0-26-4t-22-11-15-22-5-33v-172h-48m356 216q24 0 44-14t29-37v-182q9-4 19-6t21-2v257q-7 4-18 5t-20 2v-47q-5 8-14 17t-20 17-28 13-33 5-35-5-28-18-19-29-7-42v-167q8-4 18-6t21-2v160q0 22 6 38t15 25 22 13 27 5" />
</svg>