<svg id="fnt-Goudy Bookletter 1911" viewBox="0 0 4345 1000" xmlns="http://www.w3.org/2000/svg"><path id="goudy-bookletter-1911" class="f" d="M183 679q-71 0-123-56t-52-133q0-75 49-126t119-50q20 0 40 5t31 10 20 12 10 5h2q6 0 13-9t9-10q3-2 7-2 6 0 6 7v14q0 14 1 29t1 25 2 19 1 14 1 5q0 8-14 8-7 0-9-5t-5-18-14-27q-19-26-48-42t-60-16q-20 0-39 7t-36 24-27 46-10 68q0 47 13 82t33 52 42 27 42 8q29 0 54-12t29-20q1-3 1-9v-56q0-10-6-13t-26-4q-9-1-14-1-15-1-15-12 0-11 12-11 1 0 8 0t18 1 25 1h1q14 0 26-1t19-1 9 0q6 0 9 3t3 7q0 8-12 13t-14 10q-1 1-1 5v85q0 10-6 10-3 0-8-5t-8-6q-2 0-6 4-44 39-103 39m173-114q0-51 32-82t76-32q45 0 75 32t29 82q0 51-31 81t-75 30q-47 0-77-32t-29-79m58 61q19 26 49 26t51-26 20-59q0-40-22-66t-52-27q-24 0-45 22t-20 66q0 39 19 64m344 24q0 0-4 3t-10 6-14 7-19 7-23 2q-30 0-51-19t-25-53q-1-14-1-31 0-9 0-43t0-37q0-9-13-14-3-1-8-2t-7-3-1-6v-1q0-6 5-7 50-3 53-3 5 0 5 6v103q0 32 9 51 7 14 21 24t32 10q24 0 42-19 1-1 3-3t2-2 1-2 2-2 0-1 1-2 0-2v-123q0-11-10-14-2-1-23-4-8-2-8-9 0-7 7-8 16 0 29-1t18-1 9 0 6 0q7 0 7 10v157q0 1 0 2t1 1 2 2 3 1 4 2 7 3 8 4 4 6q0 5-2 7t-7 3-16 5-25 12q-3 1-5 1-7 0-7-9v-12q0-2-2-2m192-175q-37 0-57 23t-20 61q0 42 28 67t59 25q15 0 30-6t17-15q2-8 2-12v-112q0-6-6-12-20-19-53-19m1-20h0q15 0 28 2t19 4l7 2q4 0 4-5v-84q0-1 0-3t-1-2-1-2-1-1-2-2-3-1-4-2-5-2-6-2-7-3q-10-3-10-8 0-3 5-6 62-30 64-30 6 0 6 7 0 4-1 25t0 57-1 80q0 133 2 147 0 1 0 2t1 1 1 2 2 0 2 1 3 0 4 0 5 0 5 0q10 0 10 8 0 3-3 5t-11 6-16 8q-9 5-17 11t-11 8-6 3q-4 0-4-6v-16q0-1-1-1l-3 2q-3 2-7 5t-12 6-17 4-20 2q-49 0-79-33t-31-81q0-43 28-76t84-32m173 323q-9 0-14-5t-6-13q0-9 6-15t19-15 19-14q11-9 22-28t12-29q0-12-56-124-23-45-27-51-3-4-8-5t-8-3-3-9q0-8 6-8 1 0 6 0t14 1 19 1 20-1 14-1 6 0q7 0 7 8 0 2 0 3t-1 2 0 2-1 1-2 1-1 1-3 0-3 1-4 0-4 1q-7 1-7 6 0 3 6 19t19 46 29 59q0 2 4 2 1 0 2-1t2-2 0-1q42-99 42-118 0-3-1-5t-2-3-3-2-5-1-6 0-7 0q-10-1-10-10t10-9q1 0 5 0t14 1 20 1h0q10 0 19-1t13-1 6 0q6 0 6 10 0 6-3 7t-16 3q-5 0-7 3t-8 19q-11 33-25 66-48 118-89 180-20 31-37 31m357-454q16 0 44-3t43-2q55 0 83 20 31 22 31 58 0 23-13 43t-34 34l-2 1q0 1 2 2 30 5 50 29t20 58q0 33-19 58t-45 36q-25 12-60 12-12 0-34-2t-34-1q-9 0-27 0t-30 1h-1q-3 0-5-1t-3-3-2-9q0-5 3-7t18-3q5 0 7-1 4 0 5-1t4-3 1-6v-274q0-9-5-11t-18-4q-2 0-2 0-9 0-9-13 0-9 9-9 0 0 3 1t8 0 12 0m157 83q0-10-4-20t-11-22-23-17-36-7q-28 0-35 6-3 2-3 6v1 107q0 6 6 6h22 7q52 0 69-31 8-15 8-29m-73 239q39 0 67-21t28-59q0-25-14-46t-45-28q-16-3-42-3h-25q-8 0-8 8v129q0 5 1 8t4 6 11 4q14 2 23 2m164-81q0-51 32-82t76-32q45 0 75 32t29 82q0 51-31 81t-75 30q-47 0-76-32t-30-79m58 61q19 26 49 26t51-26 20-59q0-40-22-66t-52-27q-24 0-45 22t-20 66q0 39 19 64m175-61q0-51 32-82t76-32q45 0 75 32t30 82q0 51-31 81t-76 30q-47 0-76-32t-30-79m58 61q19 26 50 26t51-26 20-59q0-40-23-66t-51-27q-25 0-45 22t-21 66q0 39 19 64m277 35v0q0-7 4-9t8-3 8-1 4-7-13-24-26-33-13-17q0-1-2-1t-8 6-6 9q-1 1-1 5v52q0 7 4 8t19 4q11 2 11 10t-7 9q-1 0-6-1t-13-1-19 0-19 0-14 1-6 1q-9 0-9-9 0-6 4-8t8-2 9-3 5-8v-270q0-8-7-12-22-15-23-16l-1-4q0-5 10-8 47-21 49-21 5 0 5 8v236q0 2 2 2 2 0 3-2 7-7 15-15t11-11 9-9 7-7 4-4 2-5 1-3 1-5q0-8-7-13t-7-8v-5q0-6 11-6h29q15 0 27-1t20-1 8 0q8 0 8 9 0 6-3 8t-11 3-15 3q-11 3-23 11t-20 17-30 30q-3 4-3 5 0 2 58 71 8 10 14 16t15 11 21 8q9 1 9 8 0 11-9 11 0 0-3-1t-7 0-10-1-13-1-14 0-15 0-13 1-10 1-7 0-3 1q-7 0-7-9m228-1q0 10-5 10-1 0-4-1t-7 0-9-1-13-1-14 0-14 0-12 0-10 1-6 1-3 0q-8 0-8-9v-1q0-7 4-8t17-3q9-1 11-6t3-13v-255q0-1 0-3t-1-2-1-1-1-2-2-1-3-2-3-2q-5-2-11-6t-7-4-5-3-3-3-1-3v-1q0-2 19-12 22-11 43-22 2-2 6-2 7 0 7 10v316q0 3 0 5t1 4 1 2 2 2 2 2 4 1 4 1 5 1 6 1q8 1 8 10m17-96q0-51 27-82t65-31q25 0 48 14t38 34q4 5 4 11v1q0 4-2 8t-8 6-9 4-12 4-9 3q-102 35-105 36-2 1-2 3 0 3 2 10t6 18 13 21 22 17 31 7q35 0 60-25 7-7 11-7 8 0 8 8 0 3-3 7-16 21-39 33t-50 12q-16 0-32-6t-31-18-24-35-9-53m134-52q0-6-17-20t-36-13q-22 0-35 19t-13 52q0 4 3 4 1 0 46-18t47-18q5-3 5-6m95-28h-16q-10 0-10-6 0-3 7-9t20-21 25-34q5-9 10-9 6 0 6 8 0 4 0 18t0 17q0 10 10 10h45q1 0 2 0t2 1q13 0 13 9t-5 15q-2 2-8 2h-59q-5 0-5 5 0 40 0 67t-1 36 0 14q0 37 26 37 10 0 21-8t20-15 13-8q4 0 7 3t2 7q0 3-3 8-39 45-70 45-18 0-33-14t-17-47q-1-5-1-16 0-12 1-59t1-52-3-4m166 0h-16q-10 0-10-6 0-3 7-9t20-21 25-34q5-9 10-9 6 0 6 8 0 4 0 18t0 17q0 10 10 10h45q1 0 2 0t2 1q13 0 13 9t-5 15q-2 2-8 2h-59q-5 0-5 5 0 40 0 67t-1 36 0 14q0 37 26 37 10 0 22-8t19-15 13-8q4 0 7 3t3 7q0 3-4 8-39 45-70 45-18 0-33-14t-17-47q-1-5-1-16 0-12 1-59t1-52-3-4m141 80q0-51 27-82t65-31q25 0 48 14t38 34q4 5 4 11v1q0 4-2 8t-8 6-9 4-12 4-9 3q-102 35-105 36-2 1-2 3 0 3 2 10t6 18 13 21 22 17 32 7q34 0 59-25 7-7 11-7 9 0 9 8 0 3-4 7-16 21-39 33t-50 12q-16 0-32-6t-31-18-24-35-9-53m134-52q0-6-17-20t-36-13q-22 0-35 19t-13 52q0 4 3 4 1 0 46-18t48-18q4-3 4-6m131-34q1 0 11-7t23-15 19-11 14-1q14 0 27 6t12 15v1q0 3-2 6t-3 4-5 5l-3 3q-1 0-6 3t-8 5-7 2q-6 0-13-7t-17-6q-10 0-23 8t-15 13q-2 3-2 9v120 1q0 15 12 16 5 0 13 1 15 1 19 2t5 9q0 10-7 10-1 0-3-1t-8 0-11-1-14-1-15 0q-8 0-16 0t-14 1-10 1-8 0-3 1q-8 0-8-9 0-4 2-6t4-3 7-2 9-1q10-2 10-12v-133q0-3-1-5t-3-3-4-4-9-6-11-8q-2-2-2-4 0-2 20-11 18-9 33-16 0 0 1-1 2-1 3-1 6 0 6 11v20q0 2 1 2m283-22q15 0 31 0t30 0 21-1 10 0q7 0 7 10 0 9-24 10-9 1-14 1-7 1-7 8v152q0 10 9 11 5 0 11 0t9 1 8 0 6 1 4 1 3 2 2 2 2 3 0 4q0 9-9 9 0 0-4-1t-9 0-13-1-17-1-19 0-18 0-17 1-13 1-9 0-4 1q-7 0-7-11 0-8 9-9 7-1 18-2 14 0 17-2t3-8v-154q0-7-7-8-39-2-40-2-7-2-7-11 0-8 7-8 2 0 9 0t22 1m179 86q0 40 24 74t66 34q22 0 33-10t16-26q6-19 6-35 0-43-27-73t-60-31q-23 0-40 17t-18 50m85 127q-50 0-86-35t-35-81q0-42 30-71t73-29q47 0 82 37t34 89q0 59-44 114t-114 76q-13 3-16 3-4 0-7-4t-2-8q0-6 8-8 22-7 43-19t33-22 24-22 14-17 5-8q0-1-1-1l-3 1q-2 0-6 1t-8 2-12 1-12 1m169-213q14 0 30 0t30 0 22-1 9 0q7 0 7 10 0 9-24 10-8 1-14 1-7 1-7 8v152q0 10 9 11 5 0 11 0t9 1 8 0 6 1 4 1 4 2 2 2 1 3 0 4q0 9-9 9 0 0-4-1t-9 0-13-1-17-1-19 0-18 0-17 1-13 1-9 0-4 1q-7 0-7-11 0-8 9-9 7-1 18-2 14 0 17-2t3-8v-154q0-7-7-8-39-2-40-2-7-2-7-11 0-8 7-8 2 0 10 0t22 1m177 0q14 0 31 0t30 0 21-1 10 0q6 0 6 10 0 9-23 10-9 1-14 1-7 1-7 8v152q0 10 9 11 5 0 11 0t9 1 8 0 6 1 4 1 3 2 2 2 2 3 0 4q0 9-9 9-1 0-4-1t-9 0-13-1-17-1-19 0-19 0-16 1-13 1-9 0-4 1q-7 0-7-11 0-8 9-9 7-1 18-2 14 0 17-2t3-8v-154q0-7-7-8-39-2-40-2-7-2-7-11 0-8 7-8 2 0 9 0t22 1" />
</svg>