<svg id="fnt-Gowun Dodum" viewBox="0 0 3139 1000" xmlns="http://www.w3.org/2000/svg"><path id="gowun-dodum" class="f" d="M23 452q0-54 21-95t59-63 89-22q34 0 64 10t49 28q2 2 0 4l-15 20q-2 2-5 0-17-16-41-25t-53-9q-42 0-73 19t-47 53-16 80q0 46 17 81t47 54 70 19q27 0 52-5t44-19v-101h-78q-3 0-3-3v-23q0-3 3-3h108q3 0 3 3v138q-22 19-56 30t-74 11q-52 0-89-24t-57-65-19-93m467 182q-50 0-80-33t-30-89q0-56 30-90t80-33 80 33 30 90q0 56-30 89t-80 33m0-27q37 0 58-26t21-69q0-45-21-71t-58-25-58 25-20 71q0 44 20 69t58 26m422-210h26q3 0 2 3l-76 224q0 3-3 3h-24q-3 0-3-3l-48-144-57 144q-1 3-4 3h-23q-3 0-4-3l-73-224q-1-3 2-3h26q3 0 4 2l58 188 58-148-13-39q-1-3 2-3h25q3 0 4 2l58 183 60-183q0-2 3-2m278 211l-2 22q0 2-3 2-13 0-24-8t-16-22q-14 14-34 23t-45 9q-37 0-57-21t-19-68v-146q0-2 3-2h26q2 0 2 2v145q0 35 14 48t39 14q19 0 37-9t31-26v-172q0-2 2-2h26q3 0 3 2v188q0 9 4 12t11 6q2 0 2 3m96-147v163q0 3-2 3h-26q-3 0-3-3v-225q0-2 3-2h21q2 0 2 2l4 25q14-15 35-25t47-10q37 0 56 22t20 68v145q0 3-3 3h-26q-2 0-2-3v-144q0-35-14-49t-39-13q-21 0-41 10t-32 33m404 163v-342q0-3 3-3h79q93 0 141 45t47 126q0 56-23 96t-65 60-96 21h-83q-3 0-3-3m33-317v291h53q45 0 79-16t53-49 20-82q0-70-38-107t-118-37h-49m390 327q-51 0-81-33t-29-89q0-56 29-90t81-33 80 33 30 90q0 56-30 89t-80 33m0-27q37 0 57-26t21-69q0-45-21-71t-57-25-58 25-21 71q0 44 21 69t58 26m372 1l-2 22q0 2-3 2-13 0-25-9t-16-25q-11 14-30 25t-45 11q-45 0-71-34t-25-90q0-38 13-65t36-42 53-14q20 0 37 5t30 13v-138q0-2 2-2h26q3 0 3 2v318q0 9 4 13t11 5q2 0 2 3m-48-59v-105q-14-11-31-19t-35-7q-34 0-53 24t-19 67q0 45 19 70t50 26q30 0 47-17t22-39m308 59l-2 22q0 2-3 2-13 0-24-8t-16-22q-14 14-34 23t-45 9q-37 0-57-21t-19-68v-146q0-2 3-2h26q2 0 2 2v145q0 35 14 48t39 14q19 0 37-9t31-26v-172q0-2 2-2h26q3 0 3 2v188q0 9 4 12t11 6q2 0 2 3m96-142v158q0 3-2 3h-26q-3 0-3-3v-225q0-2 3-2h21q2 0 2 2l4 28q13-16 32-27t46-11q50 0 66 44 12-18 33-31t49-13q35 0 53 22t19 66v147q0 3-3 3h-26q-2 0-2-3v-146q0-31-13-46t-35-14q-21 0-40 12t-29 33q0 7 0 14v147q0 3-2 3h-26q-3 0-3-3v-146q0-31-12-46t-36-14q-21 0-40 12t-30 36" />
</svg>