<svg id="fnt-Grandiflora One" viewBox="0 0 3531 1000" xmlns="http://www.w3.org/2000/svg"><path id="grandiflora-one" class="f" d="M190 675q-51 0-90-23t-60-65-22-94 22-93 60-63 90-22q39 0 72 14t49 40q7 11 9 18t-1 11q-4 6-11 4t-7-10q0-4 2-6t2-6-3-8q-15-23-46-36t-66-13q-48 0-85 22t-58 60-20 88 20 90 58 62 85 22q17 0 35-4t34-10 25-15 10-19v-98l-94-1v-8l140 0v9h-23q-8 0-11 3t-3 11v109q0 8 3 11t11 3h23v9h-46v-27q-10 11-28 19t-38 12-38 4m266-8h-68v-9h18q8 0 11-3t3-11v-158q0-8-3-11t-11-3h-18v-9h41v36q8-20 26-32t42-12q22 0 36 9t19 21 0 20q-3 5-9 3t-6-7q0-5 2-7t3-5-2-7q-5-9-17-14t-26-5q-24 0-39 12t-22 29-7 31v123h27v9m225 8q-22 0-39-8t-28-24-10-35q0-29 22-48t60-20q25-1 43 3t35 10v-24q0-29-20-48t-58-18q-17 1-32 8t-21 19q-3 5-2 8t3 6-1 9q-2 3-7 4t-8-2q-7-5-3-15 8-20 28-32t43-14q42-2 64 20t23 55v80q0 22 13 35t33 14v9q-21 0-35-12t-17-27q-7 15-21 26t-31 16-34 5m0-8q18 0 37-8t32-22 14-37v-36q-13-7-32-11t-46-4q-33 1-53 17t-20 42q0 26 19 42t49 17m234 0h-69v-9h19q8 0 11-3t3-11v-158q0-8-3-11t-11-3h-19v-9h42v38q9-19 30-33t49-13q39 0 63 22t24 64v117h27v9h-69v-9h19q8 0 11-3t3-11v-103q0-38-22-58t-56-19q-22 0-40 9t-29 26-10 39v120h27v9m295 9q-30 0-54-14t-37-39-13-58 13-57 37-39 54-14q34 0 59 16t37 46v-171q0-8-3-11t-11-3h-18v-9h41v321q0 8 3 11t11 3h19v9h-42v-53q-12 28-37 45t-59 17m0-9q29-1 50-14t34-36 12-52-12-52-34-36-50-13q-28 0-49 13t-34 36-12 52 12 52 34 36 49 14m212-277q-8 0-14-5t-5-13q0-8 5-13t14-4q7 0 12 4t5 13q0 8-5 13t-12 5m43 277h-90v-9h30q8 0 11-3t3-11v-158q0-8-3-11t-11-3h-19v-9h42v195h37v9m145 0h-106v-9h36q8 0 11-3t3-11l0-161q-1-11-13-11h-37v-9h50v-30q0-61 23-90t60-29q9 0 18 3t16 7 6 12q0 5-4 7t-10 1q-5-3-5-7t1-6-6-5q-3-1-8-2t-8-1q-32 0-53 27t-21 83v30h59q7 0 9-3t4-6 8-3q4 0 7 3t4 7q0 5-4 8t-7 3h-80l0 186h47v9m195 0h-106v-9h36q8 0 11-3t3-11v-298q0-8-3-11t-11-3h-18v-9h41v335h47v9m138 9q-31 0-54-14t-37-39-14-58q0-32 13-57t37-39 55-14 54 14 37 39 13 57-13 58-37 39-54 14m0-9q28 0 49-13t34-36 12-53-12-53-34-36-49-12q-28 0-50 13t-34 36-12 52 12 52 34 36 50 14m205 0h-68v-9h18q8 0 11-3t3-11v-158q0-8-3-11t-11-3h-18v-9h41v36q8-20 26-32t42-12q22 0 36 9t19 21 0 20q-3 5-9 3t-6-7q0-5 2-7t3-5-2-7q-5-9-17-14t-26-5q-24 0-39 12t-22 29-7 31v123h27v9m225 8q-22 0-39-8t-28-24-10-35q0-29 22-48t60-20q25-1 43 3t35 10v-24q0-29-20-48t-58-18q-17 1-32 8t-21 19q-3 5-2 8t3 6-1 9q-2 3-7 4t-8-2q-7-5-3-15 8-20 28-32t43-14q42-2 64 20t23 55v80q0 22 13 35t33 14v9q-21 0-35-12t-17-27q-7 15-21 26t-31 16-34 5m0-8q18 0 37-8t32-22 14-37v-36q-13-7-32-11t-46-4q-33 1-53 17t-20 42q0 26 19 42t49 17m497 8q-50 0-89-23t-61-64-22-95q0-52 22-93t61-63 89-22q50 0 89 22t60 63 22 93q0 54-22 95t-60 64-89 23m0-8q48-1 84-23t57-61 21-90q0-50-21-88t-57-60-84-22-84 22-58 60-21 88q0 51 21 90t58 61 84 23m274 0h-68v-9h18q8 0 11-3t3-11v-158q0-8-3-11t-11-3h-18v-9h41v38q10-19 30-33t50-13q38 0 62 22t24 64v117h27v9h-68v-9h18q8 0 11-3t3-11v-103q0-38-22-58t-55-19q-22 0-41 9t-28 26-11 39v120h27v9m202-121l175 0q0-24-11-43t-30-29-45-11q-35 1-60 23t-29 60m89 129q-28 0-51-14t-36-39-13-57q1-32 13-57t36-40 51-14q28 0 49 12t34 32 12 48v9l-185-1-1 11q-1 28 11 51t32 36 48 15q28-1 47-10t28-22l7 5q-10 16-31 25t-51 10" />
</svg>