<svg id="fnt-Gravitas One" viewBox="0 0 4584 1000" xmlns="http://www.w3.org/2000/svg"><path id="gravitas-one" class="f" d="M29 502q0-40 12-75t38-61 63-40 89-15q37 0 71 11t63 38l31-45h16v159h-19q-8-39-23-65t-33-41-38-21-37-7q-8 0-16 2t-16 6-14 14-11 24-8 38-3 55q0 48 2 82t7 54 14 30 20 9q10 0 15-4t9-12 3-23 1-34v-69h-46v-19h233v19h-40v164h-15q-12-12-24-17t-26-4q-13 0-26 3t-29 6q-17 5-37 8t-43 4q-42 0-76-14t-57-37-37-55-13-68m460 165v-18h42v-237h-42v-17h188v31q7-9 18-17t24-12 28-9 31-2q17 0 30 4t23 11 15 17 5 22q0 11-6 20t-15 17-22 12-28 4-28-4-22-12-15-17-6-20q0-6 2-12t4-10q-5 3-12 8t-13 12-9 17-4 21v173h47v18h-235m399-64q0-19 7-33t20-23 31-15 40-9 47-4 53-1v-14q0-31-4-50t-13-29-21-13-30-3q-9 0-19 2t-18 3q11 1 21 6t16 11 11 14 3 17q0 10-5 19t-14 16-21 10-25 4-26-4-21-10-14-16-5-19q0-14 8-25t20-19 30-15 38-10 41-6 43-1q38 0 67 5t46 18 28 37 10 58v103q0 18 3 28t15 10q5 0 8-4t5-8 3-13 0-14v-24h22v24q0 19-5 33t-17 22-33 11-52 4q-16 0-30-2t-25-6-20-11-13-17q-7 12-19 18t-27 11-28 6-27 1q-28 0-48-6t-33-16-18-23-5-28m141-3q0 18 6 29t22 11q13 0 21-9t8-24v-67q-17 0-29 4t-17 10-9 18-2 28m423 67l-106-255h-43v-17h228v17h-33l67 166q5-14 11-30t12-32 12-32 11-27 7-21 4-9q1-2 1-3 0-3-4-5t-9-4-14-2-18-1v-17h114v17q-11 0-19 1t-13 3-8 5-5 7q-2 4-6 15t-10 26-13 33-14 38-15 39-13 36-12 31-7 21h-105m369-297q-15 0-28-3t-23-9-16-16-6-23 6-25 16-16 23-9 28-2q13 0 27 2t23 9 16 16 6 24-6 24-16 16-23 9-27 3m-113 297v-18h42v-237h-42v-17h188v254h42v18h-230m292-102v-153h-43v-17h43q24 0 44-9t33-21 21-31 8-34h39v95h78v17h-78v151q0 26 3 42t8 26 12 13 16 3q9 0 17-4t14-12 10-22 3-33q0-5 0-10t-1-10h21q1 12 1 22 0 31-9 50t-24 30-38 14-50 4q-31 0-55-6t-41-19-24-35-8-51m285 38q0-19 7-33t20-23 31-15 40-9 48-4 53-1v-14q0-31-5-50t-13-29-21-13-29-3q-10 0-20 2t-18 3q12 1 21 6t17 11 10 14 4 17q0 10-5 19t-14 16-21 10-26 4-25-4-21-10-14-16-5-19q0-14 7-25t20-19 31-15 37-10 42-6 43-1q38 0 66 5t47 18 28 37 9 58v103q0 18 4 28t14 10q5 0 8-4t6-8 2-13 1-14v-24h22v24q0 19-5 33t-18 22-33 11-52 4q-15 0-29-2t-25-6-20-11-13-17q-8 12-20 18t-26 11-29 6-26 1q-29 0-49-6t-32-16-18-23-6-28m141-3q0 18 7 29t21 11q13 0 21-9t9-24v-67q-18 0-29 4t-18 10-9 18-2 28m307 72v-112h18q10 19 29 36t42 30 49 21 52 7q11 0 21-1t18-4 12-8 4-13q0-8-7-14t-20-9-29-6-35-5q-32-4-60-11t-49-19-33-30-11-46q0-24 11-44t31-32 47-20 59-6q15 0 30 3t30 7 28 11 23 13l33-31h20v96h-17q-10-17-25-31t-35-25-42-17-46-6q-12 0-22 1t-18 4-11 7-4 11q0 8 6 14t18 9 30 7 42 7q30 5 56 12t44 19 30 31 11 48q0 23-9 41t-26 32-43 20-59 7q-16 0-34-3t-36-9-33-14-27-18l-43 40h-20m564-178q0-25 5-48t16-43 27-37 40-29 53-19 68-7 68 7 54 19 40 29 27 37 16 43 5 48-5 47-16 43-27 37-40 29-54 19-68 7-68-7-53-19-40-29-27-37-16-43-5-47m209 165q13 0 21-7t14-27 7-51 2-80q0-49-2-81t-7-51-14-26-21-8-21 8-13 26-7 51-2 81q0 48 2 80t7 51 13 27 21 7m258 8v-18h43v-237h-43v-17h188v31q8-9 19-17t24-13 29-8 31-2q34 0 55 8t34 25 18 39 5 51v140h42v18h-212v-18h24v-140q0-25-1-41t-5-26-10-12-15-4-17 4-12 11-7 17-2 21v170h24v18h-212m475-139q0-32 13-59t38-45 56-28 71-10q29 0 53 6t42 15 32 25 22 30 13 33 4 36h-196q0 37 3 61t11 36 18 19 28 5q20 0 38-6t33-14 24-23 12-30h23q-2 23-14 41t-30 30-44 19-56 7q-48 0-84-10t-61-29-37-46-12-63m148-22h69q-1-30-3-51t-7-32-10-17-15-5-14 5-11 17-6 32-3 51" />
</svg>