<svg id="fnt-Great Vibes" viewBox="0 0 2021 1000" xmlns="http://www.w3.org/2000/svg"><path id="great-vibes" class="f" d="M41 855q-29 0-47-11t-17-28q0-16 12-30t31-26 42-20 45-14 38-8q16-2 34-4t38-3 35-1q19-31 30-59t21-65l2-8q-9 9-27 22t-40 25-48 22-53 8q-35 0-61-17t-40-47-13-70q0-23 6-50t19-55q-15-16-24-35t-9-40q0-18 8-36t23-34q5-5 9-5 2 0 2 2 0 3-4 7-11 14-17 29t-5 31q0 18 6 35t20 31q13-27 35-53t54-47 66-33 75-12q52 0 82 22t31 68q0 22-12 43t-36 40-59 29-81 12q-37 0-72-10t-60-25q-13 26-19 51t-5 48q0 50 24 77t67 26q22 0 45-7t42-17 33-24 19-22q11-26 22-37t21-10q7 0 12 7t4 18q-5 42-23 81t-45 84q34 1 61 4t49 9q6 1 8 3t3 4q0 4-6 4-3 0-9-2-11-3-30-5t-41-3-42-1q-21 30-50 54t-61 42-63 26-55 10m157-400q34 0 66-9t58-25 40-38 16-45q0-22-13-38t-31-24-40-8q-34 0-65 13t-58 34-48 50-37 56q21 16 50 25t62 9m-158 387q20 0 46-8t56-23 55-37 47-50q-24 0-47 2t-46 6q-13 2-31 7t-38 14-37 19-28 23-10 24q0 9 7 16t26 7m337-273q4-9 10-28t14-41 10-44q2-8 6-12t8-3q7 0 12 6t6 18q0 14-9 24t-20 19q5 0 11 0t12 1q23 0 46-3 1 3 1 4 0 7-4 17t-7 18q-2 4-8 16t-13 26-12 29-5 25q0 13 10 13 10 0 27-23t34-61q6 0 6 5-6 13-14 29t-18 30-22 24-24 9q-9 0-19-8t-9-25q0-15 6-30t13-28 14-23 6-16q0-9-12-13t-29-4q-9 23-13 34t-9 21q-8 0-5-6m165 100q-19 0-34-12t-14-37q0-20 9-43t24-44 34-33 38-12q10 0 19 5t9 19q0 13-10 28t-27 28q-7 5-19 10t-23 8-19 4q-2 6-5 16t-2 20q0 13 5 23t19 10q16 0 30-10t26-24 19-29 13-26q6 0 6 5-7 14-15 30t-20 31-27 23-36 10m-9-88q7 0 23-6t30-16q13-12 20-26t7-23q0-11-8-11-6 0-16 8t-26 27q-10 12-18 26t-12 21m209 87q-11 0-20-6t-9-27q0-8 1-16t4-16q-5 8-13 19t-18 21-20 18-19 7q-13 0-21-12t-8-31q0-20 10-44t26-45 38-35 45-13q11 0 22 3t18 13q4 3 4 8 0 3-3 5t-6 1q-6-18-24-18-8 0-19 6-14 7-29 22t-29 34-21 39-9 36q0 16 13 16 11 0 22-10t23-27 20-31 14-25q7-13 14-22t18-9q6 0 11 1t12 1q-15 15-27 35t-17 40-6 34q0 15 10 15 8 0 17-9t18-23 17-28 12-25q2 0 4 1t2 4q-1 2-2 4t-4 8q-4 8-11 21t-16 27-21 24-23 9m174-265q-6 9-14 24t-15 28-10 20h46q0 2-2 7t-7 6h-43q-6 14-14 33t-15 39-12 38-5 29q0 15 4 22t15 8q13 0 26-14t23-33 20-40q6 0 6 5-5 13-13 29t-19 31-23 24-28 9q-21 0-28-12t-8-30q0-13 5-33t12-39 15-39 11-27h-32q0-4 3-8t8-5h26q4-8 9-20t15-26q7-12 19-19t25-7m427-66q0 19-8 47t-19 60-24 67-25 66-19 57-7 42q0 23 15 23 15 0 37-14t45-37 48-53 43-61 31-64 11-57q0-17-5-31t-19-14q-7 0-11-3t-3-5q0-5 8-5 6 0 15 4t19 13 16 22 6 32q0 23-12 53t-33 63-47 63-55 55-56 40-50 15q-19 0-26-12t-6-32q0-30 10-66t25-75 31-77 25-74 11-66q0-34-20-46t-50-12q-30 0-65 12t-67 32-59 50-42 65-16 77q0 24 8 45t27 33 49 13q22 0 43-9t37-26 25-36 10-41q0-17-7-30t-24-13q-6 0-13 2t-10 2-2-3q0-1 1-2t3-3q6-3 14-5t14-2q22 0 34 16t12 37q0 24-13 47t-33 40-47 29-52 10q-34 0-57-16t-35-44-12-57q0-39 16-75t43-65 63-51 73-33 78-12q29 0 52 10t37 30 14 55m172 330q-18 0-26-11t-7-25q0-7 1-15t5-14l33-86q2-4 2-7 0-5-3-9t-3-5l27-1q8 0 11 2t3 5-3 11q-5 12-14 30t-17 37-14 36-5 25q0 7 3 11t11 5q11 0 21-9t19-21 17-28 13-28q6 0 6 5-5 12-13 28t-18 30-23 24-26 10m45-204q-7 0-12-5t-4-12q0-8 7-15t15-7q7 0 12 5t5 11q0 9-7 16t-16 7m60 206q-21 0-29-12t-9-31q0-12 3-23t8-25h-1q-4 0-4-4 0-2 4-12t11-23 14-27 14-25q10-19 22-39t23-37 20-30q18-25 34-25h2q5 0 10 2t11 0q-7 8-23 29t-33 47q-7 11-19 30t-23 41-24 47-17 46-7 40q0 11 4 16t10 4q7 0 17-9t21-23 20-31 15-35 6-33q0-14-6-21t-13-6q-4 0-7 1t-6 2-3-2 5-6 16-3q10 0 19 5t17 16 6 30q0 21-10 43t-26 41-35 31-37 11m169 0q-19 0-34-12t-14-37q0-20 9-43t24-44 34-33 38-12q10 0 19 5t9 19q0 13-10 28t-27 28q-7 5-19 10t-23 8-19 4q-2 6-5 16t-2 20q0 13 5 23t19 10q16 0 30-10t26-24 19-29 13-26q6 0 6 5-7 14-15 30t-20 31-27 23-36 10m-9-88q7 0 23-6t30-16q13-12 20-26t7-23q0-11-8-11-6 0-16 8t-26 27q-10 12-18 26t-12 21m111 88q-20 0-33-13t-13-27q0-11 6-21t15-10l1-1q11-20 21-41t23-44q10-19 22-32t29-12q4 0 11 1t7 8q0 4-4 4-4 0-8-2t-7-2q-9 0-16 11t-6 23q0 14 4 24t11 21 10 20 5 23q0 24-10 38t-24 23h1q26 0 43-25t35-65q6 0 6 5-10 22-21 44t-27 35-38 14q-10 0-18-2-11 3-25 3m-7-53q0 12 5 23t20 16q13-7 20-23t8-33q0-14-3-28t-7-29-3-25q0-3 0-6t1-5q-9 13-18 31t-18 35-15 27q10 1 10 17m-17 25q0 8 6 14t16 6q5 0 10-1-11-7-17-17t-6-23q-5 5-7 10t-2 11" />
</svg>