<svg id="fnt-Grechen Fuemen" viewBox="0 0 3518 1000" xmlns="http://www.w3.org/2000/svg"><path id="grechen-fuemen" class="f" d="M183 691q-10 0-19-1t-20-2q-40-5-71-22t-49-40-18-51q0-17 8-35 20-41 52-70t70-46 79-25 73-8q39 0 65 8t28 23q1 7-2 15t-10 8q-2 0-6-3t-7-7q-3-5-14-8t-28-2q-22 0-51 4t-59 15-60 27-50 38-33 52q-4 12-4 23 0 20 12 39t35 33 54 19q12 2 22 2t20 1q33 0 57-9t37-23 13-31q0-20-16-38-8-9-21-13t-28-5-26 0-19-2-4-7q2-3 15-4t36-1q28 0 63 1t66 1q16 0 29 0t23-2h2q6 0 6 3 0 2-6 5t-17 5q-9 2-20 3t-23 2-19 2-6 1q17 17 17 36 0 17-14 33t-40 29-57 19-65 8m288-37q-9 0-9-7 3-12 4-31t2-35-3-29-10-12q-11-1-11-5 0-3 6-5 7-4 17-7t19-3q5 0 11 1t10 4q6 4 8 11t2 12q1 6 1 6 1 0 2-2t3-4q10-16 26-32t33-27 32-10q15 0 23 10t7 19q0 11-10 11-8 0-12-4t-6-8-11-4q-13 0-26 9t-23 22q-16 18-26 43t-14 50q-1 7-9 13t-19 10-17 4m232 24q-20 0-38-7t-28-23q-9-13-13-25t-3-23q0-11 2-20t6-14q11-18 22-30t26-21q19-12 46-12 10 0 21 8t32 16q14 6 26 13t20 14 8 14q0 7-12 12-16 5-39 9t-45 7-39 3q-13 0-20-2-3 11-3 23 0 10 3 20t10 19q5 5 11 7t13 3q11 0 22-4t19-8 10-6q10-6 15-9t10-3q9 0 9 4 0 3-5 7t-17 11q-16 8-34 13t-35 4m4-96q16 0 37-2t47-6q14-3 14-8 0-5-7-10t-15-10-18-8-13-3q-22 0-37 9t-26 24q-4 4-8 13 9 1 26 1m211 84q-11 0-24-3t-24-9-14-9q-16-19-16-46 0-35 25-72 30-44 82-44 23 0 38 6t25 13 12 16 4 11q0 11-9 11-11 0-11-4 0-1 1-3t1-3q0-2-4-7t-7-6q-11-8-27-8-14 0-30 8t-29 27q-17 21-25 41t-8 34q0 18 11 27t43 8q15 0 33-4t39-11q27-12 52-32 7-6 10-6t3 4q0 5-6 11-20 20-57 35t-88 15m175 3q-8 0-17-9t-9-22q0-23 5-52t16-58 22-57 24-48q5-8 14-14t22-8 20-2q12 0 15 2t4 9q0 5-3 12t-12 18q-27 34-42 66t-21 55-5 35q0 5 0 6 2-2 5-6t9-9q12-11 28-24t35-21 40-8q13 0 26 3t22 13 9 26q0 9-5 22t-9 26-10 23q-2 7-8 11t-10 4q-4 0-4-3 0-2 2-8 6-20 9-36t4-26q0-18-7-31t-22-13-36 11-41 30-36 39-24 38q-3 6-10 6m300 9q-20 0-37-7t-29-23q-9-13-12-25t-4-23q0-11 3-20t6-14q10-18 22-30t26-21q18-12 45-12 10 0 21 8t32 16q14 6 26 13t20 14 8 14q0 7-11 12-17 5-39 9t-45 7-39 3q-13 0-20-2-3 11-3 23 0 10 3 20t10 19q5 5 11 7t13 3q11 0 21-4t19-8 10-6q10-6 15-9t11-3q9 0 9 4 0 3-5 7t-18 11q-16 8-34 13t-35 4m4-96q16 0 38-2t46-6q14-3 14-8 0-5-6-10t-16-10-18-8-13-3q-21 0-37 9t-26 24q-3 4-7 13 8 1 25 1m156 88q-2 0-7-3t-9-8-4-9q0-14 4-35t13-44 17-43q4-9 11-12t15-3q12 0 22 6t10 15q0 5-4 10-2 4-6 10t-6 11q-3 6-1 6 0 0 5-4 10-10 27-20t36-18 32-7q20 0 32 11t19 29 6 36q0 33-15 53-2 3-8 8t-9 6q-1 0-1-2 0-1 0-2t1-3q4-11 6-24t2-26q0-16-5-31t-16-23-30-9q-31 0-53 19t-44 53q-17 26-26 39t-14 14m543 10q-4 0-10-3t-11-11q-9-12-13-28t-3-33q0-21 3-37t3-16q-6-6-13-10t-3-10q3-7 11-9t19-4q7-16 17-42t33-59q3-5 15-11t26-10q-11-2-22-3t-20-1q-24 0-48 8t-49 28q-5 4-5 8t3 8 3 7q0 2-4 4-5 3-8 3-9 0-16-8t-10-17q-5-11-5-21 0-17 13-28t32-19 34-9q11-2 22-3t21 0q35 0 66 7t59 17 50 20 38 17 24 5q6 0 9-4t4-7 4-1q5 3 5 6 0 4-4 7t-7 6q-10 7-27 7-16 0-37-5t-43-12-44-11q-2 0-4-1t-3-1l-4 4q-21 25-33 42t-19 29-11 22-9 19h66q18 0 18 4 0 1-3 3t-12 5-28 2q-25 0-36 3t-17 10q-11 20-17 44t-5 43q0 15 3 25t10 14q1 0 1 2t-2 3-7 2m170-10q-12 0-20-10t-8-25q0-15 5-34t11-36 11-30q3-7 15-12t24-4q7 0 11 1t4 6q0 1-1 3t-3 6q-16 28-23 49t-7 35q0 13 4 20t10 7q5 0 16-7t24-20 27-25 28-26 23-21q9-7 16-7t11 4 2 8q-8 15-14 34t-7 35q0 12 5 21t19 13q5 1 6 3t2 4q0 3-6 3-3 0-9-1-10-3-18-7t-14-10q-5-5-8-14t-4-21q0-9 6-21t9-17q2-3 2-4t-4 2q-10 10-20 20t-24 24-38 31q-12 9-30 16t-33 7m278 8q-20 0-38-7t-28-23q-9-13-13-25t-3-23q0-11 2-20t6-14q11-18 22-30t26-21q19-12 46-12 10 0 21 8t32 16q14 6 26 13t20 14 8 14q0 7-12 12-16 5-39 9t-45 7-39 3q-13 0-20-2-3 11-3 23 0 10 3 20t10 19q5 5 11 7t13 3q11 0 22-4t19-8 10-6q10-6 15-9t10-3q9 0 9 4 0 3-5 7t-17 11q-16 8-34 13t-35 4m4-96q16 0 37-2t47-6q14-3 14-8 0-5-7-10t-15-10-18-8-13-3q-22 0-37 9t-26 24q-4 4-8 13 9 1 26 1m156 88q-2 0-7-3t-9-8-4-9q0-4-2-6t-6-5-2-11q0-15 6-34t15-41 17-42q3-6 8-9t11-2q10 0 20 5t17 13 7 16q0 6-3 10-3 4-7 12t-8 16q-1 2-2 5t-1 3q1 0 5-4t5-6q11-10 25-20t28-17 26-7q12 0 19 7t8 21q0 9-1 18t-1 18q0 20 10 20 5 0 13-8t18-19 23-22 24-18 26-8 17 9 7 21 4 27q2 8 4 15t6 13q5 7 5 12 0 3-2 3-4 0-12-8-8-7-12-16t-7-16q-5-14-7-26t-9-11q-8 0-19 7t-23 18-25 22-25 19-23 8q-14 0-22-3t-12-15-3-35q0-16 3-25t-1-9q-3 0-13 6t-25 18-28 27-26 37q-8 14-17 25t-13 12m441 8q-20 0-37-7t-29-23q-9-13-12-25t-4-23q0-11 3-20t6-14q10-18 22-30t26-21q18-12 45-12 10 0 21 8t32 16q14 6 26 13t20 14 8 14q0 7-11 12-17 5-39 9t-45 7-39 3q-13 0-20-2-3 11-3 23 0 10 3 20t10 19q5 5 11 7t13 3q11 0 21-4t19-8 10-6q10-6 15-9t11-3q9 0 9 4 0 3-5 7t-18 11q-16 8-34 13t-35 4m4-96q16 0 38-2t46-6q14-3 14-8 0-5-6-10t-16-10-18-8-13-3q-21 0-37 9t-26 24q-3 4-7 13 8 1 25 1m156 88q-2 0-7-3t-9-8-4-9q0-14 4-35t13-44 17-43q4-9 11-12t15-3q12 0 22 6t10 15q0 5-4 10-2 4-6 10t-6 11q-3 6-1 6 0 0 5-4 10-10 27-20t36-18 32-7q20 0 32 11t19 29 6 36q0 33-15 53-2 3-8 8t-9 6q-1 0-1-2 0-1 0-2t1-3q4-11 6-24t2-26q0-16-5-31t-16-23-30-9q-31 0-53 19t-44 53q-17 26-26 39t-14 14" />
</svg>