<svg id="fnt-Grenze" viewBox="0 0 1239 1000" xmlns="http://www.w3.org/2000/svg"><path id="grenze" class="f" d="M128 671q-30 0-54-16t-38-48-14-79q0-34 4-63t11-45q7-12 24-26t34-23 25-10q16 1 45 2t57 4l-6 86h-27l-6-50q-13-2-37-5t-34-2q-10 0-16 3-12 7-18 36t-7 76q0 70 16 98t43 28l55-5v-79l-47-9v-23h116v20l-26 6v90q-11 8-51 21t-49 13m191 0q-3 0-10-7t-7-9v-184l-18-6v-19q38-7 43-7 2 0 11 8t9 10l-1 17q36-38 39-38 8 0 33 8 2 4 2 8t1 8-6 14-7 12q-17-7-27-7-6 0-34 16v140l26 8v20q-50 8-54 8m200 0q-21 0-40-11t-31-36-12-59q0-25 3-46t9-31q5-8 21-20t32-22 22-10q27 0 44 9t26 32 9 69l-118 10q0 30 8 48t19 25 20 7l23-1 41-2v21q-18 6-44 11t-32 6m-34-135l69-9q0-30-8-46t-27-15q-11 0-19 4-6 3-11 23t-4 43m186 135q-2 0-10-7t-7-9v-183l-17-7v-19q41-7 45-7 3 0 9 6t7 10v19q15-11 32-23t20-12q36 0 54 18t18 66v114l17 8v18q-41 8-45 8-3 0-10-7t-8-9v-132q0-31-9-39t-20-8q-5 0-25 8t-22 11v142l17 8v18q-41 8-46 8m216-4q-2-3-6-11t-5-12q23-38 54-94l40-70-1-6-55-3-4 33h-26l-4-61h137q9 14 12 22-42 76-93 162v7l67 3 6-42h26l1 72h-149m268 4q-21 0-40-11t-31-36-12-59q0-25 3-46t9-31q5-8 21-20t32-22 22-10q27 0 44 9t26 32 9 69l-118 10q0 30 8 48t19 25 20 7l23-1 41-2v21q-18 6-44 11t-32 6m-34-135l69-9q0-30-8-46t-27-15q-11 0-19 4-6 3-11 23t-4 43" />
</svg>