<svg id="fnt-Gruppo" viewBox="0 0 1768 1000" xmlns="http://www.w3.org/2000/svg"><path id="gruppo" class="f" d="M213 672q-91 0-137-33t-46-108 46-109 137-32q32 0 62 5t60 19q8 3 8 9 0 7-8 7-2 0-5-1-28-12-58-17t-59-6q-87 0-124 29t-38 96 38 95 124 30q36 0 70-5t68-13v-102h-125q-6 0-11-1t-6-8 6-7 11-1h125q10 0 14 4t3 13v102q0 7-5 11t-12 6q-36 7-70 12t-68 5m232-5q-7 0-9-6t-1-11v-157q0-5 2-9t9-4q5 0 7 4t1 9v29q6-20 20-30t32-14 30-3q18 0 27 2t16 4q5 1 5 7 0 3-2 6t-6 2q-1 0-2 0t-1 0q-10-3-19-4t-18-2q-29 0-52 12t-30 35v113q0 6-1 11t-8 6m282 2q-52 0-75-21t-22-66v-85q0-6 1-12t8-5q7 0 9 5t1 12v85q0 27 7 43t23 23 48 7q34 0 58-11t38-21v-126q0-6 1-12t8-5q7 0 9 5t2 12v153q0 6-2 11t-8 6q-6 0-8-4t-2-13v-18q-7 8-19 17t-31 14-46 6m203 80q-7 0-9-6t-1-13v-238q0-8 3-10t6-2q5 0 7 2t2 10v32q5-16 18-25t30-15 34-7 30-2q29 0 53 8t40 29 15 58q0 55-28 77t-80 22q-40 0-67-8t-44-18v89q0 6-1 12t-8 5m120-94q46 0 67-20t21-65q0-31-12-48t-32-26-44-7q-15 0-32 2t-34 8-28 15-16 25v93q21 8 48 15t62 8m186 94q-7 0-8-6t-1-13v-238q0-8 2-10t7-2q4 0 6 2t3 10v32q4-16 17-25t30-15 34-7 30-2q29 0 54 8t39 29 15 58q0 55-28 77t-80 22q-40 0-67-8t-43-18v89q0 6-2 12t-8 5m120-94q47 0 68-20t21-65q0-31-12-48t-32-26-45-7q-15 0-32 2t-33 8-28 15-17 25v93q21 8 49 15t61 8m290 14q-45 0-72-12t-38-33-12-51q0-52 30-75t92-23 91 23 30 75q0 29-12 51t-38 33-71 12m0-14q33 0 53-7t31-19 14-27 3-29q0-46-24-65t-77-19-78 19-24 65q0 15 3 29t14 27 31 19 54 7" />
</svg>