<svg id="fnt-Gudea" viewBox="0 0 1324 1000" xmlns="http://www.w3.org/2000/svg"><path id="gudea" class="f" d="M181 670q-72 0-115-49t-43-131 41-130 113-48q46 0 93 18l-9 31q-17-7-44-12t-43-5q-52 0-83 39t-30 104 32 108 83 42q35 0 67-10v-105h-73v-33h110v154q-47 27-99 27m331-67v-186h38v250h-22l-13-30q-40 33-76 33t-56-22-19-60v-171h37v165q0 30 9 43t29 13 41-11 32-24m271-166v-120h38v350h-22l-13-29q-46 33-80 33-90 0-90-130 0-73 32-102 29-27 65-27t70 25m0 168v-130q-10-13-28-22t-31-9q-39 0-55 23t-15 72 15 74 40 25q36 0 74-33m302-55h-159q0 48 22 68t58 20q17 0 24-2t13-4 9-2q13-4 22-7l6 29q-50 18-78 18-52 0-83-32t-31-94 29-97 74-35 70 29 25 78q0 14-1 31m-157-29h122q0-37-13-57t-45-20-47 22-17 55m336-4h21q0-45-12-59t-51-14-67 11l-7-29q42-14 87-14 88 0 88 88v167h-22l-13-30q-23 19-40 26t-38 7q-35 0-55-21t-19-55q0-77 128-77m21 84v-52h-22q-51 0-71 10t-19 31 11 35 29 13 34-8 38-29" />
</svg>