<svg id="fnt-Gulzar" viewBox="0 0 1419 1000" xmlns="http://www.w3.org/2000/svg"><path id="gulzar" class="f" d="M186 674q-56 0-94-23t-56-62-18-87q0-37 13-69t38-57 59-38 76-13q35 0 62 6t40 13l6 94h-15q-14-28-27-48t-30-29-45-10q-58 0-89 40t-30 109 33 107 89 38q20 0 36-3t30-7v-102l-55-2v-22h139v20l-23 1q-14 1-14 18v53l12 13v6q-12 12-32 24t-46 21-59 9m361-5h-5v-37h-3q-17 23-38 31t-41 9q-29 0-47-16t-18-50v-117l-26-22v-7l69-18h4v148q0 23 11 35t30 12q29 0 59-19v-129l-27-22v-7l69-18h4v204h34v16l-75 7m209-2h-111v-16l19-2q13-2 13-18v-277l-26-22v-7l69-18h4v342l32 2v16m213 0h-179v-14l129-187h-78l-32 59h-12v-79h177v14l-129 187h59q18 0 25-8t17-26l17-34h14l-8 88m104 4q-25 0-40-14t-14-36q0-16 10-32t39-26q14-5 37-10t40-8v-28q0-23-11-35t-25-12q-10 0-19 2t-19 5v48q-8 2-15 2-15 0-22-7t-7-14q0-4 2-9t6-10q8-9 23-20t32-18 31-7q33 0 52 15t18 51v115q0 11 4 17t13 5q5 0 11-2t10-7l5 5q-7 17-21 23t-27 7q-14 0-25-7t-14-22h-6q-14 12-30 21t-38 8m-5-61q0 13 7 23t24 10q12 0 22-4t24-12v-2-64q-8 1-21 4t-25 9q-17 6-24 15t-7 21m292 57h-111v-16l18-2q14-2 14-18v-142l-27-22v-7l69-18h4v39h4q12-16 28-28t32-11q12 0 19 7t8 20q0 13-8 22t-18 13l-21-26q-9 0-21 6t-23 12v153l33 2v16" />
</svg>