<svg id="fnt-Gupter" viewBox="0 0 1319 1000" xmlns="http://www.w3.org/2000/svg"><path id="gupter" class="f" d="M213 635v-54q0-16-3-24t-9-11-23-4v-17q21 1 27 1 22 1 26 1 5 0 28-1 5 0 25-1v17q-15 1-22 4t-9 10-2 25v74q-20 9-47 14t-50 5q-64 0-96-38t-32-109q0-85 39-133t109-47q17 0 39 3t39 7q-3 33-3 83h-20q0-32-19-52t-50-19q-49 0-71 37t-21 108q0 67 23 102t67 35q33 0 55-16m293-19q0 13 2 19t10 8 23 3v16l-60 11-8-3v-52q-13 26-32 40t-39 15-32-7-18-23-6-47v-104q0-12-3-18t-10-9-22-3v-15l62-11 8 3v164q0 22 8 31t24 9q18 0 33-13t25-35v-103q0-12-3-18t-10-9-22-3v-15l62-11 8 3v177m192-180q35 0 55 27t21 79q0 40-12 70t-33 45-48 16q-22 0-44-9v49q0 16 3 23t11 11 27 3v16q-21-1-27-1-25-1-30-1-5 0-29 1l-25 1v-16q16 0 23-3t10-11 2-23v-221q0-13-2-19t-10-8-23-3v-16l60-10 8 3v45q9-22 27-35t36-13m-14 220q30 0 41-30t11-74q0-45-12-67t-35-21q-17 0-31 11t-21 35v100q0 22 13 34t34 12m252-20l5 11q-27 26-56 26-24 0-33-16t-9-45v-150h-37v-12l35-9 16-63h21v64h54v20h-54v142q0 19 5 31t19 11q10 0 17-2t17-8m188-21l9 6q-28 52-83 52-37 0-59-28t-21-79q0-43 13-72t34-44 48-14q30 0 45 16t19 38 4 57h-126v10q0 43 13 65t39 23q35 0 65-30m-65-163q-44 0-51 76h88q-1-76-37-76m240-16q11 0 19 4-2 16-3 29t-1 17h-15q0-4-5-6t-11-3q-32 0-46 48v90q0 16 3 23t11 10 27 4v16l-17-1q-27-1-40-1-13 0-38 1l-16 1v-16q16 0 23-4t10-10 2-23v-123q0-13-2-19t-10-8-23-3v-15l60-11 8 3v59q12-28 27-45t37-17" />
</svg>