<svg id="fnt-Gurajada" viewBox="0 0 1291 1000" xmlns="http://www.w3.org/2000/svg"><path id="gurajada" class="f" d="M184 495l-5 1q-32-19-61-19t-44 18-15 61q0 54 26 69 13 7 30 7t34-5l1-19-1-35 44-3-1 31 1 55q-43 14-78 14-52 0-79-29t-26-85 30-87 87-31q37 1 66 14l-9 43m189 140q4 0 10-2l3 3-4 25q-11 7-26 8-22-1-27-26h-4q-20 19-41 26-27 0-41-12t-14-35l1-41-1-74 45-4-2 103q0 25 21 25 15 0 31-13v-111l44-4-3 122q0 10 8 10m129-131q3 0 9 1v42l-5 2q-6-2-13-2-20 0-37 25v23l3 72h-47l2-68-1-92 44-4 0 32h2q17-31 43-31m91-3q31 0 47 12t15 34q0 6-2 39 0 0-2 39 0 6 2 8t5 2 10-2l4 3-5 25q-11 7-25 8-22-1-27-25h-2q-18 18-36 26-26-1-40-14t-15-35q0-34 36-41l54-10v-14q0-23-21-23t-51 20l-4-2-5-31q31-19 62-19m19 92l-37 9q-11 2-11 13 0 21 18 21 14 0 29-17l1-26m117-169q12 0 18 6t6 18-7 19-17 7-18-7-7-17 7-19 18-7m28 80l-3 91 2 62q0 28-13 46t-44 32l-16-21v-4q16-9 22-21t7-31l1-59-2-66h-28l-3-2 2-26h30l44-2 1 1m103-3q31 0 47 12t15 34q0 6-2 39 0 0-2 39 0 6 2 8t5 2 10-2l4 3-5 25q-11 7-25 8-23-1-27-25h-3q-17 18-36 26-25-1-39-14t-15-35q0-34 36-41l54-10v-14q0-23-22-23t-50 20l-4-2-5-31q31-19 62-19m19 92l-37 9q-11 2-11 13 0 21 18 21 14 0 29-17l1-26m224 2l1 30q1 6 2 8t6 2 9-2l4 3-4 25q-12 7-26 8-23-1-29-24h-2q-17 16-35 24-35 0-54-22t-18-62 21-62 60-22q11 0 23 2l-1-78 47-4-4 174m-103-17q0 55 33 55 15 0 29-15l0-19-1-60q-13-6-25-6-36 0-36 45m211-77q31 0 46 12t16 34q0 6-2 39 0 0-2 39 0 6 2 8t5 2 10-2l4 3-5 25q-11 7-25 8-23-1-27-25h-3q-17 18-36 26-25-1-39-14t-15-35q0-34 36-41l54-10v-14q0-23-22-23t-50 20l-4-2-5-31q31-19 62-19m19 92l-37 9q-11 2-11 13 0 21 18 21 14 0 29-17l1-26" />
</svg>