<svg id="fnt-Hachi Maru Pop" viewBox="0 0 4921 1000" xmlns="http://www.w3.org/2000/svg"><path id="hachi-maru-pop" class="f" d="M79 705q-15 2-18-12-11-56-16-109t-5-108q0-31 1-63t4-66q0-8 5-12t11-2q6 0 10 4t4 12q-1 16-2 41t-2 51-1 47q0 6 0 12t1 10h268q9 0 12 5t3 10q0 7-4 11t-11 4h-267q3 37 7 76t12 71q1 7-3 12t-9 6m295 0q-6-1-10-6t-3-11q4-55 6-113t2-122q0-24 0-49t-1-51q0-7 5-11t10-4q7 0 11 4t4 11q1 26 1 51t0 49q0 64-2 122t-7 116q0 8-5 11t-11 3m256 2q-4 1-8 1t-8 0q-45 0-80-19t-55-52-20-75q0-40 16-74t45-56 68-29q6-1 12-1t13-1q27 0 56 7t50 21q2-6 8-7t9 0q5 0 8 5t3 10q0 12-1 23t0 22q0 56 8 99t32 76q3 5 3 9 0 6-5 10t-10 4q-8 0-13-6-5-7-10-16t-7-15q-21 29-50 44t-64 20m-10-29q34 0 63-19t47-52q-8-28-11-65t-3-77q-10-11-27-18t-36-12-38-4q-13 0-24 2t-20 5q-38 14-61 47t-22 75q0 37 18 63t48 41 66 14m318 28q-35-11-60-34t-37-51-12-62q0-35 14-70t42-56q22-18 53-27t63-9q31 0 59 8t48 26q6 6 6 12 0 4-5 10-5 5-11 5t-10-5q-13-13-39-20t-52-6q-18 0-36 3t-29 10q-35 17-54 49t-19 70q0 38 22 70t61 46q26 9 52 9t52-9 44-25q5-4 10-4 7 0 12 5 4 6 4 11 0 6-6 10-24 21-54 32t-61 10q-29 0-57-8m264 2q-14 0-17-13-5-24-7-59t-2-76q0-37 1-74t4-71 7-58q1-8 6-11t10-2q7 1 11 5t3 12q-2 17-4 40t-4 48-3 49-1 39q17-35 47-56t67-22q48 1 80 21t49 56 16 83q0 39-10 77-4 11-14 11-7 0-12-5t-3-13q8-33 8-66 0-58-27-94t-83-36q-30 0-52 16t-35 43q-13 25-19 50t-6 52q0 9 1 18t2 19q1 8-4 12t-9 5m374-191q-32 0-52-20t-19-49q0-31 19-50t52-19q21 0 37 9t24 25 9 35-9 35-25 24-36 10m0-30q20 0 30-11t11-28q0-19-11-29t-30-10q-20 0-31 10t-10 29q0 18 11 28t30 11m0 214q-8 0-12-5t-4-9q-1-37-1-76 0-33 1-62 1-8 6-11t10-2q6 0 10 4t4 12q-1 5-1 21t-1 37q0 16 0 31t1 28 1 15q0 9-4 13t-10 4m790-2q-4 0-5-1-11-4-11-13 0-1 0-3t1-3q15-43 24-89t10-87q0-4 0-9t-1-8q-1-29-10-53t-24-40-37-18q-20-2-37 8t-28 26-16 40q-1 7-6 10t-8 3q-6 0-10-4t-5-11q-6-24-18-44t-29-30-37-11q-24 0-41 16t-26 42-13 54q-1 8-1 17t-1 18q0 40 8 84t21 87q1 1 1 2t0 3q0 5-3 9t-8 4q-1 1-2 1t-3 0q-9 0-13-11-14-44-23-92t-9-90q0-11 1-22t2-20q3-32 15-61t33-48 47-23q8-1 17-1 32 0 59 19t41 48q13-27 36-42t50-15q25 0 49 15t40 45 19 80q0 5 0 9t0 10q0 45-10 95t-26 94q-1 5-5 8t-8 2m280 8q-4 1-8 1t-8 0q-45 0-80-19t-55-52-20-75q0-40 16-74t45-56 68-29q6-1 12-1t13-1q27 0 56 7t50 21q2-6 8-7t9 0q5 0 8 5t3 10q0 12-1 23t0 22q0 56 8 99t32 76q3 5 3 9 0 6-5 10t-10 4q-8 0-13-6-5-7-10-16t-7-15q-21 29-50 44t-64 20m-10-29q34 0 63-19t47-52q-8-28-11-65t-3-77q-10-11-27-18t-36-12-38-4q-13 0-24 2t-20 5q-38 14-61 47t-22 75q0 37 18 63t48 41 66 14m281 23q-7 0-11-5t-4-10q-2-28-5-60t-8-65-11-64-12-53q-1-4-1-6 0-6 4-10t11-3q5 0 9 2t6 8q5 18 10 42t9 48 6 43q10-40 32-69t56-44 71-15q32 0 64 11 10 5 10 14 0 15-15 15-3 0-5-1-24-8-53-8-41 0-69 17t-45 46-25 68-9 83q0 8-5 12t-10 4m572 0q-4 0-8-3t-6-7q-8-18-12-40t-7-42q-11 25-30 45t-42 32-50 14q-51 2-84-17t-47-53-15-77q0-31 7-64t20-67q3-9 13-9 7 0 12 4t4 10q0 2-1 6-13 32-20 63t-6 59q0 34 11 60t34 41 61 14q37-2 66-25t45-63 17-92q0-9-1-18t-2-19q-1-9 4-12t11-3q7 1 12 5t5 11q0 20 1 46t3 53 6 53 7 45 9 30q1 1 1 3t0 3q0 6-6 10t-12 4m404 2q-6 0-11-4t-4-10l-11-341q0-15 16-15 10 0 13 10 59-23 105-26 6-1 11-1t12 0q55 0 98 22t67 66q19 36 19 74 0 27-10 52t-29 47q-27 32-68 45t-87 14q-24 0-48-4t-47-8q-6-1-9-6t-2-8q0-2 1-5 3-11 15-11 2 0 4 0t3 1q22 6 45 9t45 4q38 0 71-11t56-37q32-36 32-82 0-34-18-64-22-36-58-53t-78-17q-8 0-17 1t-17 2q-43 5-94 28l10 313q0 8-5 11t-10 4m514 7q-48 0-84-20t-56-55-19-82q0-48 19-83t55-55 85-19q50 0 86 19t55 54 19 84q0 48-20 83t-55 55-85 19m0-31q62 0 95-34t33-92q0-61-34-93t-94-33-93 34-35 92q0 39 17 67t45 43 66 16m244 82q-5 0-10-4t-4-10q-4-57-7-110t-3-99q0-31 1-61t5-56q1-8 6-11t11-2q6 0 10 5t3 11q-3 23-5 61t-1 76q0 27 0 51t3 41q24 8 48 13t47 5q38 0 68-14t48-41 17-64q0-35-16-62t-43-41-61-15q-20 0-41 5t-38 14q-4 2-8 2-9 0-12-8-2-3-2-7 0-8 8-13 19-11 44-16t50-5q45 0 79 19t53 52 19 75q0 46-23 80t-62 51-88 18q-44 0-85-16l4 60q1 8-4 12t-11 4" />
</svg>