<svg id="fnt-Halant" viewBox="0 0 1366 1000" xmlns="http://www.w3.org/2000/svg"><path id="halant" class="f" d="M304 628l0 14h-102q0-10 1-14 18-3 24-8t7-16v-105h-147v121q15 7 34 8 0 6-2 14h-101q-1-8 2-14 18-3 24-8t7-16v-245q-15-7-34-8 0-10 1-14h102q0 10-2 14-17 2-24 7t-7 16v106h147v-122q-14-5-34-7 0-10 2-14h101q1 6-1 14-18 2-25 6t-6 17v246q14 7 33 8m77-45q0 18 11 28t29 11q27 0 46-20v-82l-36 9q-50 14-50 54m122 65q-13 0-23-7t-12-20q-25 27-57 27t-49-18-19-45q0-55 76-72l48-10v-22q0-23-10-33t-34-11-60 12l-7-10q37-30 83-30 31 0 47 18t17 50v118q0 15 4 21t11 6 19-2l3 6q-17 22-37 22m100-45v-286q-6 0-14 0t-21 0q0-6 2-14 33-13 69-18v335q14 6 34 7 0 9-2 15h-102q-1-7 1-15 18-2 25-7t8-17m149-20q0 18 10 28t29 11q28 0 46-20v-82l-35 9q-50 14-50 54m121 65q-13 0-22-7t-13-20q-25 27-56 27t-50-18-18-45q0-55 76-72l47-10v-22q0-23-9-33t-35-11-60 12l-6-10q37-30 83-30 30 0 47 18t17 50v118q0 15 3 21t11 6 20-2l3 6q-17 22-38 22m281-165v137q16 6 35 7 0 7-1 15h-102q-1-6 0-15 18-2 25-7t7-17v-117q0-24-12-37t-32-13q-43 0-65 52v132q14 6 34 7 0 9-1 15h-103q-1-7 1-15 19-2 26-7t7-17v-159q-14-1-22-1t-13 0q0-6 2-13 33-13 65-18 3 19 4 49 26-52 78-52 29 0 48 19t19 55m148 165q-24 0-40-15t-15-44v-151q-14-2-33-2 0-1 0-4t1-6q17-6 32-8l28-62 8 2v60q38-1 70-4 0 14-4 24h-66v146q0 36 29 36 25 0 47-19l6 7q-26 40-63 40" />
</svg>