<svg id="fnt-Handlee" viewBox="0 0 1636 1000" xmlns="http://www.w3.org/2000/svg"><path id="handlee" class="f" d="M282 325q7-12 23-12 6 0 11 3 3 54 3 107t-2 135-3 105q-12 8-19 8t-12-1q-3-27-3-54l3-114q-43-4-96-4t-110 10q-4 99-4 146-13 10-21 10t-12-2q-1-25-1-69t6-148 7-118q6-11 22-11 5 0 10 2 1 14 1 36t-3 65-3 62q61-10 112-10t91 3q2-18 2-54t-2-95m261 198l-3 57q0 44 10 59 6 10 17 10 3 0 8-2 11-3 18 3-4 18-35 18-22 0-29-18-5-14-8-34t-4-28q-32 62-63 76-15 7-36 7t-32-20-11-58 13-80 36-70 53-29q41 0 54 34 12 29 12 75m-123-17q-7 28-10 52t-4 43 8 32 20 14q27 0 52-51t25-95q0-29-15-47-10-12-26-12t-30 18-20 46m395 147q-9 9-21 9-21 0-32-23t-12-56-2-66-6-56-17-23q-18 0-30 32t-17 70q-14 107-27 120-9 5-16 5t-11-2q-10-46-13-158-1-56-2-73 10-7 18-7t12 2q2 21 2 88t1 76q3-10 6-34t7-39 10-35 14-33 22-21 32-9q23 0 34 21t12 53 1 64 8 60 27 35m220-387q-19 172-19 245t14 147q-10 10-18 10t-12-2q-11-37-13-81-12 19-18 27t-19 24q-26 30-61 30-26 0-38-25t-12-64 9-74 30-61 53-25q19 0 35 8t22 21q1-13 2-41t2-50 5-44q5-48 24-48 7 0 14 3m-58 198q-6-11-17-16t-28-5-32 19q-29 39-29 112 0 23 7 46t22 24q21 0 41-28t31-63 11-64q0-14-6-25m123-96q0-50-13-67 6-9 22-9 3 0 7 0 12 13 12 73 0 32-3 75-6 75-6 110 0 95 37 95 0 0 18-4 5 0 8 4-2 18-30 18t-42-17-19-42-4-41 1-37 4-56q8-75 8-102m128 197q-1 10-1 14 0 30 18 46t44 17 40-7 23-15q18-23 33-23 6 0 13 3-5 25-38 45t-82 20q-35 0-60-22t-25-61 15-75 44-62 58-25 48 12 19 36q0 43-39 71t-82 29q-12 0-28-3m38-16q24 0 42-15t26-32 8-30-10-24-25-10q-25 0-46 35t-30 71q22 5 35 5m199 16q-1 10-1 14 0 30 18 46t43 17 41-7 23-15q18-23 33-23 5 0 13 3-5 25-38 45t-82 20q-35 0-61-22t-25-61 15-75 44-62 59-25 48 12 18 36q0 43-39 71t-82 29q-11 0-27-3m38-16q23 0 42-15t26-32 8-30-11-24-24-10q-25 0-47 35t-30 71q22 5 36 5" />
</svg>