<svg id="fnt-Hanuman" viewBox="0 0 2366 1000" xmlns="http://www.w3.org/2000/svg"><path id="hanuman" class="f" d="M278 510h-170v119l39 7v31h-127v-31l40-7v-280l-40-7v-31h127v31l-39 7v123h170v-123l-40-7v-31h127v31l-39 7v280l39 7v31h-127v-31l40-7v-119m211 162q-41 0-63-20t-21-57q0-26 13-44 14-19 40-29t63-10h47v-26q0-24-15-37t-41-14q-16 0-28 4t-23 12l-5 36h-37v-60q36-29 94-29 48 0 76 23t27 65v127q0 6 0 10t1 10l25 3v31h-69q-4-20-5-37-14 18-35 30t-44 12m7-41q24 0 44-11t28-28v-47h-49q-33 0-50 15t-16 36q0 35 43 35m272-157v155l39 7v31h-127v-31l39-7v-189l-39-7v-31h82l4 40q13-21 33-33t45-11q43 0 66 25t24 77v129l40 7v31h-128v-31l40-7v-128q0-35-14-50t-42-14q-21 0-37 10t-25 27m356 198q-43 0-67-28t-25-86v-118l-30-7v-31h79v157q0 42 12 58t39 16q25 0 42-11t25-29v-153l-35-7v-31h84v227l30 7v31h-74l-3-39q-12 21-32 32t-45 12m275-201v158l40 7v31h-127v-31l39-7v-189l-39-7v-31h83l3 35q12-19 32-29t47-10 45 12 29 36q12-22 32-35t48-13q41 0 64 27t24 84v120l40 7v31h-128v-31l39-7v-121q0-39-13-55t-40-16q-25 0-40 17t-18 45v130l40 7v31h-128v-31l40-7v-121q0-37-14-54t-40-17q-22 0-36 9t-22 25m481 201q-42 0-63-20t-22-57q0-26 14-44 14-19 40-29t63-10h47v-26q0-24-15-37t-41-14q-16 0-28 4t-23 12l-5 36h-37v-60q36-29 94-29 48 0 75 23t28 65v127q0 6 0 10t1 10l25 3v31h-69q-4-20-5-37-14 18-35 30t-44 12m7-41q24 0 43-11t29-28v-47h-49q-33 0-50 15t-16 36q0 35 43 35m271-157v155l40 7v31h-127v-31l39-7v-189l-39-7v-31h82l4 40q13-21 33-33t45-11q43 0 66 25t24 77v129l40 7v31h-128v-31l40-7v-128q0-35-14-50t-42-14q-21 0-37 10t-26 27" />
</svg>