<svg id="fnt-Harmattan" viewBox="0 0 1856 1000" xmlns="http://www.w3.org/2000/svg"><path id="harmattan" class="f" d="M67 667h-38q2-11 3-32t0-48v-108q0-27 0-48t-3-32h38v115h131v-115h38q-2 11-2 32t-1 48v108q0 27 1 48t2 32h-38v-124h-131v124m280 4q-26 0-43-15t-17-36q0-14 7-28t22-24 45-13q6-1 16-2t20-1 13-2v-13q0-17-12-24t-32-7q-14 0-29 5t-30 17q0-6 0-17t1-18q15-6 30-12t36-5q32 0 51 15t19 36v72q0 20 4 36t10 32h-33q-2-5-5-12t-4-17q-17 18-34 25t-35 8m5-30q14 0 28-6t30-28v-31q-4 0-14 1t-18 2-16 2q-23 2-32 12t-10 22q0 13 9 19t23 7m185 26h-34v-113q0-27-3-46t-6-28h33q2 6 4 17t3 19q14-20 31-30t29-10q15 0 25 9t13 23 4 30l-29 6q0-14-5-24t-16-11q-8 0-18 8t-18 19-13 24v107m167 0h-34v-113q0-27-3-46t-6-28h33q2 6 3 14t2 14q17-19 32-25t30-7q19 0 30 9t15 22q18-19 33-25t30-6q27 0 38 18t11 52v121h-34v-101q0-24-2-36t-8-17-16-5q-14 0-26 11t-21 27v121h-34v-105q0-22-2-34t-8-16-17-4q-13 0-26 11t-20 27v121m319 4q-26 0-43-15t-16-36q0-14 6-28t23-24 44-13q6-1 16-2t20-1 13-2v-13q0-17-11-24t-33-7q-14 0-29 5t-30 17q0-6 0-17t2-18q14-6 29-12t37-5q31 0 50 15t19 36v72q0 20 4 36t10 32h-33q-2-5-5-12t-4-17q-17 18-34 25t-35 8m6-30q14 0 27-6t30-28v-31q-4 0-13 1t-19 2-15 2q-24 2-33 12t-9 22q0 13 8 19t24 7m216 30q-21 0-37-11t-15-43v-192h34v170q0 28 6 37t18 9q15 0 40-14v30q-13 8-25 11t-21 3m42-160h-130v-26h130v26m111 160q-22 0-37-11t-15-43v-192h34v170q0 28 6 37t18 9q15 0 39-14v30q-12 8-24 11t-21 3m42-160h-130v-26h130v26m94 160q-26 0-43-15t-17-36q0-14 7-28t22-24 45-13q6-1 16-2t20-1 13-2v-13q0-17-12-24t-32-7q-14 0-29 5t-30 17q0-6 0-17t1-18q15-6 30-12t36-5q32 0 51 15t19 36v72q0 20 4 36t10 32h-33q-2-5-5-12t-4-17q-17 18-34 25t-35 8m5-30q14 0 28-6t30-28v-31q-4 0-14 1t-18 2-16 2q-23 2-32 12t-10 22q0 13 9 19t23 7m185 26h-34t0-13 0-30 0-38 0-32q0-27-3-46t-6-28h33q2 6 4 17t3 19q18-21 36-31t37-9q29 0 45 19t15 57q0 9 0 24t0 30 0 29 0 23 0 9h-34t0-12 0-29 0-34 0-26q0-34-9-46t-27-12q-13 0-26 8t-21 20-13 24v107" />
</svg>