<svg id="fnt-Headland One" viewBox="0 0 3659 1000" xmlns="http://www.w3.org/2000/svg"><path id="headland-one" class="f" d="M363 638q3 2 9 2t20-4l-3 31h-135l5-27q23 0 32-13 7-11 7-40v-98h-180v112q0 26 2 31t6 7 9 1q12 0 28-4l-4 31h-137l4-27q25 0 32-11 7-9 7-37v-223q0-48-21-48-9 0-19 3l3-31h130l-3 28q-12 0-19 2t-11 6q-7 9-7 43v87h180v-89q0-30-3-38t-7-9-12-2q-11 0-24 3l5-31h135l-3 28q-22 0-29 9-9 11-9 41v233q0 29 12 34m218-9q48-4 85-24l11 21q-37 30-84 42-14 3-26 3-92 0-116-81-8-27-8-61t12-64 30-50 43-32 50-12q103 0 103 119v3q0 31-7 31h-180q0 51 23 77t64 28m-87-131l132-6q0-5 0-7v-9q0-57-32-70-11-5-24-5t-22 4-17 11-15 16-11 20q-11 23-11 46m464-44l-4 130q0 26 15 37 11 8 29 8-1 13-10 23-16 17-26 20-15 0-29-10t-20-30q-28 26-69 37-11 3-26 3t-32-5-28-17q-23-21-23-58 0-44 49-69 47-23 122-23h3q0-15 0-30l-1-9q-1-30-21-45-16-13-39-13t-37 13-14 35q0 9 2 19h-44l-2-1q-1-4-1-8-2-11-4-22t-1-15q0-5 2-8 63-45 124-45 59 0 77 43 8 16 8 40m-52 144v-5q2-31 3-66-3-1-16-1t-34 5-36 12q-33 17-33 46 0 21 13 34 13 14 35 14 26 0 54-24 8-7 14-15m227-220q18-7 43-7t50 7v-5q0-57-2-63t-5-9-7-4-10-3q-7-1-24-1h-4l3-28 102-14q0 2-1 3t-1 7-1 18q-2 34-2 91v223q0 19 4 27t12 8q11 0 24-5l7-2q-1 3-1 8t-1 11-1 12l-76 19q-3-1-8-15t-6-20q-31 22-66 31-12 3-30 3t-38-8-35-27q-32-36-32-101 0-43 19-81 29-57 87-75m17 248q14-1 27-4t23-6q21-7 26-12l0 1v-178q-11-16-41-23-9-2-23-2t-31 7-28 21q-25 31-25 96 0 44 23 73 21 27 49 27m198-361l100-15q-5 27-5 107v18l1 234q0 20 3 24 4 8 16 8 16 0 29-3l-4 29h-142l5-26q25 0 32-6t9-11 3-15v-276q0-20-3-25t-5-8-6-4-10-2q-8-1-26-1l3-28m401 189l-4 130q0 26 15 37 11 8 29 8-1 13-10 23-16 17-26 20-15 0-29-10t-20-30q-28 26-69 37-11 3-26 3t-32-5-28-17q-23-21-23-58 0-44 49-69 47-23 123-23h2q0-15 0-30l-1-9q-1-30-21-45-16-13-39-13t-37 13-14 35q0 9 2 19h-44l-2-1q-1-4-1-8-2-11-4-22t-1-15q0-5 2-8 63-45 124-45 59 0 77 43 8 16 8 40m-51 144v-5q1-31 2-66-3-1-16-1t-34 5-36 12q-33 17-33 46 0 21 13 34 13 14 35 14 26 0 54-24 8-7 15-15m115 69l4-26q20 0 27-10 8-12 8-49v-118q0-29-8-39-7-9-32-9l4-31 87-13q-3 20-3 42 32-26 66-37 14-6 30-6t30 5 26 15q24 23 24 68 0 27-1 53-5 79-3 96t4 23q5 10 17 10 11 0 21-3l-4 29h-125l4-26q21 0 28-9 3-4 5-10t3-17 1-24q2-29 2-65t-2-53-6-27q-10-20-43-20-31 0-65 21l-12 7v164q0 22 4 26t8 6 9 1q13 0 24-3l-5 29h-127m444-289q19-7 43-7t50 7v-5q0-57-2-63t-5-9-7-4-10-3q-7-1-24-1h-4l4-28 101-14q0 2 0 3t-1 7-2 18q-2 34-2 91v223q0 19 4 27t13 8q10 0 23-5l7-2q0 3-1 8t-1 11 0 12l-77 19q-3-1-7-15t-7-20q-31 22-66 31-12 3-29 3t-38-8-36-27q-32-36-32-101 0-43 19-81 30-57 87-75m18 248q13-1 26-4t23-6q22-7 27-12l-1 1v-178q-11-16-41-23-9-2-23-2t-31 7-28 21q-24 31-24 96 0 44 22 73 21 27 50 27m442-3q-22-24-34-58t-12-76 14-78 37-63q52-59 140-59 75 0 121 49 47 49 47 134-3 84-52 139-32 37-83 52-26 7-59 7t-65-12-54-35m42-31q16 22 39 35t50 12 49-9 38-28q35-41 36-114 1-76-29-121-33-47-92-47-52 0-84 38-35 40-36 113-2 76 29 121m322 75l4-26q20 0 27-10 8-12 8-49v-118q0-29-7-39-8-9-33-9l4-31 87-13q-3 20-3 42 32-26 66-37 15-6 30-6t31 5 25 15q24 23 24 68 0 27-1 53-5 79-3 96t4 23q5 10 17 10 11 0 21-3l-4 29h-125l4-26q21 0 28-9 3-4 5-10t3-17 1-24q2-29 2-65t-1-53-7-27q-10-20-43-20-31 0-65 21l-12 7v164q0 22 4 26t8 6 9 1q13 0 24-3l-5 29h-127m476-38q48-4 85-24l11 21q-37 30-84 42-14 3-26 3-92 0-116-81-8-27-8-61t12-64 30-50 42-32 50-12q104 0 104 119v3q0 31-7 31h-180q0 51 23 77t64 28m-87-131l132-6q0-5 0-7v-9q0-57-32-70-11-5-24-5t-23 4-17 11-14 16-12 20q-10 23-10 46" />
</svg>