<svg id="fnt-Hedvig Letters Sans" viewBox="0 0 4519 1000" xmlns="http://www.w3.org/2000/svg"><path id="hedvig-letters-sans" class="f" d="M92 667h-47v-350h47v156h178v-156h47v350h-47v-158h-178v158m415 5q-37 0-65-17t-43-47-15-71q0-42 15-72t42-47 63-16q54 0 83 33t30 93v17h-187q2 44 22 68t55 24q27 0 43-15t18-40h45q0 26-15 46t-37 32-54 12m-3-235q-29 0-48 18t-24 55h140q-2-34-20-54t-48-19m268 235q-35 0-60-18t-37-49-13-69q0-38 13-68t37-48 60-18q54 0 81 40v-125h45v350h-43v-39q-26 44-83 44m10-35q32 0 53-23t21-77-21-78-53-22q-39 0-56 28t-17 71q0 48 18 74t55 27m312 30h-55l-93-260h47l74 223 77-223h45l-95 260m187 0h-45v-260h45v260m-23-292q-12 0-21-8t-8-21 8-21 21-8q12 0 21 8t8 21-8 21-21 8m206 262q32 0 53-23t21-77-21-78-53-22q-37 0-55 26t-18 74q0 44 17 72t56 28m-10 35q-35 0-60-18t-37-49-13-68q0-38 13-69t37-49 60-17q57 0 83 44v-39h43v264q0 47-16 74t-41 39-59 11q-54 0-78-24t-25-62v-13h46v13q0 23 13 37t43 14q38 0 55-23t17-70v-35q-27 40-81 40m524-5h-210v-350h47v314h163v36m151 5q-38 0-66-17t-42-47-15-71q0-42 15-72t42-47 63-16q53 0 83 33t29 93v17h-186q2 44 21 68t56 24q27 0 43-15t18-40h45q-1 26-15 46t-38 32-53 12m-3-235q-30 0-49 18t-23 55h139q-2-34-19-54t-48-19m308 230h-50q-22 0-37-6t-21-21-6-41v-157h-50v-35h50v-65h45v65h69v35h-69v153q0 17 3 25t11 10 19 2h36v35m189 0h-50q-22 0-37-6t-21-21-6-41v-157h-50v-35h50v-65h45v65h69v35h-69v153q0 17 3 25t11 10 19 2h36v35m161 5q-37 0-65-17t-43-47-15-71q0-42 15-72t42-47 63-16q54 0 83 33t30 93v17h-187q2 44 22 68t55 24q27 0 43-15t18-40h45q0 26-15 46t-37 32-54 12m-3-235q-29 0-48 18t-24 55h140q-2-34-20-54t-48-19m222 230h-45v-260h42v44q7-24 23-36t40-11h25v38h-27q-31 0-45 20t-13 64v141m217 5q-43 0-72-19t-30-60h47q0 21 15 33t41 12q24 0 38-10t14-29q0-29-33-37l-51-14q-33-8-49-25t-17-46q0-21 12-38t34-27 51-10q33 0 53 10t32 27 11 37h-45q-2-17-14-29t-38-11q-24 0-38 10t-13 27q0 18 11 25t25 11l49 13q35 9 50 25t14 43q0 38-26 60t-71 22m367 0q-56 0-88-28t-34-80h47q1 34 20 53t56 19q34 0 53-18t20-46q0-21-12-33t-35-20l-64-18q-42-12-60-36t-18-56q0-27 14-49t41-35 64-13q52 0 80 25t32 68h-45q-4-26-21-42t-49-15q-34 0-52 16t-18 42q0 18 12 32t41 22l51 14q46 13 67 35t20 58q0 47-32 76t-90 29m256 0q-36 0-59-20t-22-53q0-39 38-62t124-32v-16q0-26-16-39t-41-13q-28 0-44 13t-17 34h-44q1-24 14-42t36-30 54-10q48 0 74 24t26 71v170h-40v-37q-12 20-34 31t-49 11m-37-75q0 19 13 29t36 11q32 0 50-21t19-55v-25q-62 7-90 21t-28 40m284 70h-45v-260h42v38q14-23 36-33t45-10q42 0 67 22t26 73v170h-45v-160q0-39-16-54t-41-15q-18 0-34 7t-26 24-9 47v151m331 5q-43 0-72-19t-30-60h47q0 21 15 33t41 12q24 0 38-10t14-29q0-29-33-37l-51-14q-33-8-49-25t-17-46q0-21 12-38t34-27 51-10q33 0 53 10t32 27 11 37h-45q-2-17-14-29t-38-11q-24 0-38 10t-13 27q0 18 11 25t25 11l49 13q35 9 50 25t14 43q0 38-26 60t-71 22" />
</svg>