<svg id="fnt-Heebo" viewBox="0 0 1433 1000" xmlns="http://www.w3.org/2000/svg"><path id="heebo" class="f" d="M273 464v38h-192v-38h192m-184-153v356h-48v-356h48m226 0v356h-48v-356h48m186 361q-37 0-64-17t-43-45-15-66v-11q0-43 17-73t43-46 56-16q38 0 62 17t35 46 12 66v20h-198v-37h152v-3q-1-18-7-34t-20-28-36-11q-21 0-36 12t-25 34-9 53v11q0 25 9 46t27 33 42 12q24 0 41-10t29-26l27 22q-12 19-36 35t-63 16m265 0q-37 0-64-17t-42-45-15-66v-11q0-43 16-73t43-46 56-16q38 0 62 17t36 46 11 66v20h-197v-37h151v-3q0-18-7-34t-19-28-37-11q-20 0-36 12t-25 34-9 53v11q0 25 10 46t27 33 42 12q23 0 40-10t29-26l28 22q-13 19-37 35t-63 16m277 0q-34 0-56-16t-35-43-16-66v-24q3-39 16-67t35-43 55-15q34 0 57 16t35 48 12 70v5q0 39-12 69t-35 48-56 18m-80-5h-41v-375h45v323l-4 52m68-34q25 0 40-13t22-34 7-49v-5q0-26-7-48t-21-35-41-14q-17 0-29 6t-22 16-14 23-8 26v59q4 17 12 33t24 25 37 10m160-96v-5q0-38 14-69t42-48 64-17q37 0 64 17t42 48 14 69v5q0 39-14 69t-42 48-64 18-64-18-42-48-14-69m45-5v5q0 27 9 49t24 35 42 14q25 0 41-14t25-35 8-49v-5q0-26-8-48t-25-36-41-14q-25 0-42 14t-24 36-9 48" />
</svg>