<svg id="fnt-Henny Penny" viewBox="0 0 3054 1000" xmlns="http://www.w3.org/2000/svg"><path id="henny-penny" class="f" d="M21 229q5 0 12 2t17 6 22 7 27 7q14 3 30 5t30 3 24 2 15 1q3 0 5 1t2 3q0 3-2 4t-5 1q-5 0-16-1t-22-1q-8 0-15 2t-10 5-7 10-3 15q0 5-1 13t0 18 0 22 0 23q0 14 0 27t0 25 0 19 1 11q0 6 1 10t3 6 6 3 6 1q7 0 17-1t21-2 22-2 21-2 17-2 10-2q8-1 13-5t7-10 3-14 1-15q0-11-1-23t-2-22-3-19-2-13q-1-9-4-15t-6-8-8-3-7 0q-8 0-16 0t-14 1-7-2-3-5q0-3 2-6t10-2q7-1 16-1t20-2 20-3 21-3q9-2 20-5t21-6 19-5 14-2 7 1 2 4q0 3-3 5t-6 1q-2 0-5 0t-6 1-7 2-5 3q-4 3-7 8t-5 17q-1 8-2 22t-1 28-1 29-1 26q0 6 0 17t-1 26 0 33-1 35 0 36 0 34q0 13 0 24t0 19q0 7 2 12t4 8 6 5 5 3q5 2 11 3t14 2q3 1 4 2t1 3q0 0 0 1t-1 2-3 1-6 0q-3 0-10 0t-17-2-19-1-17-1q-10 0-20 1t-18 2-17 2-14 1q-10 0-13-3t-3-5q0-4 3-5t7-1q14-1 24-2t17-4q7-3 10-7t6-9 2-10 1-9q0-4 0-14t-2-22-2-27-2-29-2-25-2-18q-2-7-4-12t-4-6-6-3-7 0q-5 0-14 0t-20 2-23 3-23 3-19 3-11 2q-5 2-7 4t-4 5-2 6-1 6q0 7 1 19t0 27 0 31 1 32 0 28 0 21q0 11 1 18t4 12 6 6 8 5q4 2 7 4t4 5q0 2-2 3t-3 1q-6 0-11-2t-13-3-17-3-25-1q-14 0-27 1t-22 4-16 4-12 2q-9 0-9-7 0-4 2-5t6-3q1-1 4-2t9-1 10-2 11-3q8-2 13-5t6-8 3-9 0-10q0-1 1-10t0-21 1-29 1-34 1-36 1-33q0-4 0-13t0-20 0-26 0-30q0-21 0-42t-1-40 0-33-2-20q-1-7-3-13t-4-10-7-8-10-7q-5-3-10-6t-9-4-6-4-2-4q0-3 1-4t5-1m551 308q3 6 6 15t3 20q0 18-6 32t-17 23-27 15-34 5q-28 0-50-9t-37-27-23-40-7-51q0-25 5-45t15-37 21-28 26-20 28-12 27-3q13 0 27 3t26 12 19 22 7 34q0 18-5 31t-14 23-19 16-23 10-22 6-19 1q-12 0-23-2t-18-3q1 19 6 36t14 32 23 21 33 8q13 0 22-4t16-12 9-17 2-21q0-6 0-13t-3-13q-2-4-3-7t-1-5q0-5 5-5 2 0 5 2t6 7m-135-25q6 2 14 3t21 1q14 0 26-5t20-15 14-23 5-31q0-15-4-25t-8-16-13-9-14-2q-9 0-20 5t-20 20-15 37-6 60m236-160q2 0 4 6t3 17 4 23 4 26l9 62q1-8 4-19t8-22 13-22 17-19 22-14 27-5q18 0 31 7t23 19 12 30 5 37q0 18-2 37t-5 36-4 35-2 31q0 8 1 14t5 12q3 5 8 9t10 7 7 7 4 7q0 2-2 4t-4 1q-4 0-9-3t-13-8-19-11-26-11q-11-4-23-6t-27-3q-8-1-8-5 0-4 5-4 4 0 10 0t12-1q10-1 16-6t10-19q1-6 2-15t1-18 2-20 0-20q0-8 0-19t-2-23-4-22-8-20-14-15-20-5q-10 0-19 5t-15 14-11 22-7 27q-3 15-4 31t0 32q0 14 1 26t2 23 4 18 6 13q5 6 10 9t9 5q5 1 7 2t2 3q0 2-2 3t-8 1q-5 0-11-1t-13-2-13-1-14-1-14 0-14 1-12 1-8 1q-10 0-10-6 0-3 2-4t6-2q3-1 6-1t5 0 6-1 7 0q8-1 11-6t3-12q0-14-3-33t-6-43-9-49-12-53q-3-14-7-21t-10-6q-4 0-8 1t-8 3-7 3-6 1q-5 0-5-4 0-3 3-4t5-3q7-3 15-7t17-11q9-7 16-15t12-15 9-11 5-5m285 0q1 0 3 6t4 17 4 23 4 26l9 62q1-8 4-19t8-22 13-22 17-19 22-14 27-5q18 0 31 7t22 19 13 30 5 37q0 18-3 37t-4 36-4 35-2 31q0 8 1 14t4 12q4 5 9 9t9 7 8 7 4 7q0 2-2 4t-4 1q-4 0-9-3t-13-8-19-11-26-11q-11-4-23-6t-27-3q-9-1-9-5 0-4 6-4 3 0 10 0t12-1q10-1 16-6t10-19q1-6 2-15t1-18 2-20 0-20q0-8 0-19t-2-23-4-22-8-20-14-15-20-5q-10 0-19 5t-15 14-11 22-7 27q-3 15-4 31t0 32q0 14 1 26t2 23 4 18 6 13q5 6 10 9t9 5q5 1 7 2t2 3q0 2-2 3t-8 1q-5 0-11-1t-13-2-14-1-13-1-14 0-14 1-12 1-8 1q-10 0-10-6 0-3 2-4t5-2q4-1 7-1t5 0 6-1 7 0q8-1 11-6t3-12q0-14-3-33t-6-43-9-49-12-53q-3-14-7-21t-11-6q-3 0-7 1t-8 3-7 3-6 1q-5 0-5-4 0-3 3-4t5-3q7-3 15-7t17-11q9-7 16-15t12-15 9-11 5-5m353 47q2 0 3 1t1 3q0 4-3 6-3 3-9 6t-17 12q-6 4-10 10t-5 12-2 15 0 17q0 18 2 36t6 32 7 28 8 21q9 17 22 28t30 10q13 0 23-6t16-16 10-22 7-26 3-25 1-21q0-24-4-37t-12-18q-3-2-7-3t-8-3-8-2-6-1q-5-2-7-3t-2-6 2-5 6-2q7 0 19 1t28 1q9 0 19-1t21-3 18-3 13-3q3-2 6-2t3 0q3 0 5 1t2 4-1 4-3 4q-6 3-11 7t-8 9q-3 5-4 13t-2 18-2 25-2 35q-2 22-5 47t-7 53-12 57-17 59q-10 31-23 55t-30 40-35 26-40 9q-16 0-28-4t-21-14-14-20-5-26q0-15 4-28t13-22 19-15 23-5q11 0 19 4t13 9 8 12 3 15q0 7-2 12t-6 10-10 7-13 3q-8 0-13-3t-9-7-5-8-5-9-4-7-6-2q-3 0-7 3t-5 7-4 11-1 12q0 12 4 22t12 16 18 11 22 4q21 0 36-10t27-23 19-31 13-33 7-26 4-16q6-43 8-74t2-50q0-6 0-11t0-8q0-3 0-6-2 5-5 11-2 5-4 11t-6 12q-5 7-11 14t-16 13-20 10-23 3q-22 0-38-9t-27-24-20-35-12-41-10-42-7-40q-1-7-4-10t-7-2q-5 0-10 1t-8 1q-2 0-3-2t-1-3q0-4 4-5 11-3 20-6t16-5 14-6 12-6q16-7 27-14t19-12 14-8 11-3m538-106q15 0 32 3t30 13 22 27 9 44q0 25-6 44t-15 32-22 22-25 14-27 8-24 2q-16 0-28-2t-19-4q0 13 0 26t1 25 0 21 0 13q0 9 1 22t2 26 5 27 6 22q4 9 11 16t14 10 16 8 16 4q4 0 8 1t7 2 6 2 2 3q0 3-3 5t-10 2q-8 0-20-3t-26-5-32-5-33-2q-18 0-34 2t-29 4-21 4-12 2q-1 0-3 0t-2-1-3-1 0-3q0-3 3-4t9-4 12-4 14-6q14-7 21-20t11-28q1-7 3-21t3-32 3-39 2-41 1-40 1-34q0-30-2-52t-7-36q-4-10-12-16t-16-9-19-4-19-2q-12 0-16-2t-4-6q0-7 12-7 5 0 17 1t28 1q12 0 26-1t30-3q12-1 22-4t19-4 15-5 15-4 16-3 18-1m-70 74q-1 10-1 24t-1 28-1 32 0 32q8 2 18 4t23 1q18 0 31-9t21-23 11-33 4-38q0-15-3-30t-9-26-17-18-26-6q-13 0-21 4t-15 13-9 19-5 26m353 170q3 6 6 15t3 20q0 18-6 32t-17 23-26 15-35 5q-28 0-50-9t-36-27-23-40-8-51q0-25 6-45t14-37 22-28 26-20 27-12 28-3q13 0 27 3t25 12 19 22 8 34q0 18-6 31t-13 23-20 16-22 10-22 6-19 1q-12 0-24-2t-17-3q1 19 6 36t14 32 23 21 32 8q13 0 23-4t15-12 9-17 3-21q0-6-1-13t-3-13q-1-4-2-7t-1-5q0-5 4-5 2 0 5 2t6 7m-134-25q6 2 14 3t20 1q14 0 26-5t21-15 13-23 5-31q0-15-3-25t-9-16-12-9-14-2q-10 0-20 5t-20 20-15 37-6 60m235-160q2 0 4 6t4 17 4 23 4 26l9 62q1-8 4-19t8-22 12-22 17-19 22-14 27-5q18 0 32 7t22 19 13 30 4 37q0 18-2 37t-4 36-5 35-2 31q0 8 2 14t4 12q4 5 9 9t9 7 8 7 3 7q0 2-1 4t-4 1q-5 0-10-3t-13-8-18-11-26-11q-12-4-23-6t-27-3q-9-1-9-5 0-4 6-4 3 0 9 0t13-1q9-1 16-6t9-19q1-6 2-15t2-18 1-20 1-20q0-8-1-19t-1-23-4-22-9-20-13-15-20-5q-11 0-19 5t-15 14-11 22-7 27q-3 15-4 31t-1 32q0 14 1 26t3 23 4 18 6 13q4 6 10 9t9 5q5 1 7 2t2 3q0 2-3 3t-7 1q-5 0-12-1t-12-2-14-1-14-1-14 0-13 1-12 1-9 1q-9 0-9-6 0-3 1-4t6-2q4-1 6-1t6 0 6-1 7 0q8-1 10-6t3-12q0-14-2-33t-6-43-10-49-11-53q-3-14-7-21t-11-6q-4 0-8 1t-7 3-7 3-7 1q-4 0-4-4 0-3 2-4t6-3q7-3 14-7t18-11q9-7 16-15t12-15 8-11 5-5m285 0q2 0 4 6t4 17 4 23 4 26l8 62q2-8 5-19t8-22 12-22 17-19 22-14 27-5q18 0 32 7t22 19 13 30 4 37q0 18-2 37t-4 36-5 35-2 31q0 8 2 14t4 12q3 5 8 9t10 7 8 7 3 7q0 2-1 4t-4 1q-5 0-10-3t-13-8-18-11-26-11q-12-4-24-6t-26-3q-9-1-9-5 0-4 6-4 3 0 9 0t13-1q9-1 16-6t9-19q1-6 2-15t2-18 1-20 1-20q0-8-1-19t-1-23-4-22-9-20-13-15-21-5q-10 0-18 5t-15 14-11 22-8 27q-2 15-3 31t-1 32q0 14 1 26t3 23 4 18 6 13q4 6 10 9t9 5q4 1 7 2t2 3q0 2-3 3t-7 1q-6 0-12-1t-12-2-14-1-14-1-14 0-13 1-12 1-9 1q-9 0-9-6 0-3 1-4t6-2q3-1 6-1t6 0 5-1 8 0q7-1 10-6t3-12q0-14-2-33t-6-43-10-49-11-53q-3-14-7-21t-11-6q-4 0-8 1t-7 3-7 3-7 1q-4 0-4-4 0-3 2-4t6-3q6-3 14-7t18-11q9-7 16-15t12-15 8-11 5-5m353 47q2 0 4 1t1 3q0 4-3 6-3 3-10 6t-16 12q-7 4-10 10t-5 12-3 15 0 17q0 18 3 36t5 32 8 28 8 21q9 17 21 28t31 10q13 0 22-6t16-16 11-22 6-26 4-25 1-21q0-24-4-37t-12-18q-3-2-7-3t-9-3-7-2-6-1q-6-2-8-3t-2-6 2-5 6-2q8 0 20 1t28 1q8 0 19-1t21-3 18-3 13-3q3-2 5-2t4 0q3 0 5 1t1 4-1 4-3 4q-6 3-11 7t-8 9q-2 5-3 13t-2 18-2 25-2 35q-2 22-5 47t-8 53-12 57-16 59q-10 31-24 55t-29 40-36 26-40 9q-15 0-27-4t-22-14-14-20-5-26q0-15 5-28t12-22 19-15 24-5q11 0 18 4t14 9 8 12 3 15q0 7-3 12t-6 10-9 7-13 3q-8 0-14-3t-8-7-6-8-4-9-4-7-6-2q-4 0-7 3t-6 7-3 11-1 12q0 12 4 22t11 16 18 11 23 4q20 0 36-10t27-23 19-31 13-33 7-26 3-16q7-43 9-74t2-50q0-6 0-11t0-8q-1-3-1-6-2 5-4 11-2 5-5 11t-6 12q-4 7-11 14t-16 13-19 10-24 3q-22 0-37-9t-28-24-19-35-13-41-9-42-7-40q-2-7-5-10t-7-2q-5 0-9 1t-8 1q-2 0-4-2t-1-3q0-4 5-5 11-3 20-6t16-5 13-6 13-6q15-7 26-14t20-12 14-8 10-3" />
</svg>