<svg id="fnt-Herr Von Muellerhoff" viewBox="0 0 3049 1000" xmlns="http://www.w3.org/2000/svg"><path id="herr-von-muellerhoff" class="f" d="M120 714q15 0 31-33t28-78q-61 85-61 106 0 4 2 5m55-220q0 51 10 84 12-51 12-84t-12-32q-10 0-10 32m-144 167l7-4q1 0 1 2 0 4-12 13t-20 9-7-7q0-27 73-125t123-152l1-2q0-1-2-1-19 13-81 40t-89 28q-15 0-15-10 0-3 4-9t6-5 5 3 22 4 62-17 90-43q16-9 27-19t24-24 18-19 16-17 19-19q19-19 32-19 4 0 4 4 0 20-65 67-24 18-28 23-57 62-136 167t-80 131q0 1 1 1m255-69l-36 22q-19 12-34 12t-26-11q-14 45-34 75t-39 30q-6 0-6-6 0-32 65-122-13-31-13-89 0-19 6-32t16-13q24 0 24 50 0 21-4 45 69-91 158-189t119-120q7-4 17-4t10 3q0 3-2 5-2 2-8 7t-9 9q-175 175-283 304l-6 7q-1 2-3 11t-3 14q10 18 27 18 9 0 18-5 15-9 36-22 3-2 7-2t4 1-1 2m72-54q0-1-2-1-13 0-42 23t-49 52q25-8 59-36t34-38m-115 118q0 7 5 7 6 0 27-9t34-16l49-31 1 7q-53 35-79 44t-34 10q-14 0-14-18 0-23 17-47t40-38 44-25 32-9 11 7q0 19-44 45t-72 35q-17 25-17 38m236-44l31-20 4 5q-23 14-37 23t-22 10q-11 0-11-10 0-7 7-28t11-29l-1-1q-2 0-5 2-50 40-65 54t-29 30-15 18-1 2q-2 1-11 1t-8-1q1-2 12-14 28-31 51-59l-15 9q-23 14-33 21l-2-6 31-20q17-11 29-23t17-19 8-13 7-5 9 4q0 5-8 17t-16 23l-8 9q0 1 1 1 1 0 3-2t17-14 26-21 25-16 21-8 6 3q0 4-24 17-6 3-17 28t-11 38q0 3 4 3t19-9m128 0l31-20 4 5q-23 14-38 23t-22 10q-11 0-11-10 0-7 8-28t11-29l-2-1q-2 0-4 2-51 40-66 54t-28 30-15 18-2 2q-1 1-10 1t-9-1q1-2 13-14 28-31 50-59l-14 9q-23 14-34 21l-2-6 32-20q17-11 29-23t17-19 8-13 6-5 10 4q0 5-8 17t-16 23l-8 9q0 1 0 1 2 0 4-2t16-14 26-21 25-16 21-8 7 3q0 4-25 17-5 3-17 28t-11 38q0 3 5 3t19-9m264-147q-22 30-70 64t-79 34q-8 0-12-5t-4-15q0-28 22-70t55-81 81-69 92-29q30 0 30 38 0 25-26 75t-57 97-58 84-26 40q12-14 57-60t81-78 82-74 88-69 82-49 69-19q9 0 9 4 0 5-28 22t-29 18-2-1 3-6 4-5-1-1q-31 0-115 59t-182 149-165 171q-10 13-33 13-4 0-4-2t6-7 33-41 36-50 39-57 52-78 45-79 28-73q-1-17-19-17-27 0-70 28t-80 65-65 81-28 72q0 14 13 14 29 0 68-28t74-69q2-3 4-3t2 2-2 5m158 89v0q-10 5-22 23t-14 33q36-37 36-56m-107 105q19 0 62-40v-3q0-15 15-38t28-29q-2-2-4-2-19 0-62 43t-42 66q0 3 3 3m-15-7q0-38 43-75t72-37q14 0 14 12 0 36-38 71 3 1 6 1 14 0 40-17l3 5q-32 21-49 21-6 0-9-2-20 16-41 26t-32 10-9-15m164-55l-33 21-2-6 17-11q37-25 47-35t11-13q13-16 15-18 6 2 6 12-10 14-27 34t-28 34-11 15 0 2 8-5 37-26q60-42 77-54t21-11 5 10-15 29-33 36q-48 44-48 49 0 0 2 0 6 0 67-39l21-14 0 7q-80 53-98 53-3 0-3-3 0-18 23-44t47-45 23-27q0-1-1-1-15 7-68 44t-61 44q-24 18-25 18t-5 6q-9 9-17 9-12-1-12-1t-1-1 9-10q8-8 16-17 26-29 36-42m243 67q-11 0-13-6 0-6 43-58t94-112 95-122 43-88q0-16-17-16-27 0-57 14t-56 37-51 51-41 56q-39 60-39 87 0 15 12 15 17 0 54-28t65-56l29-28q1-1 3-1t2 2l-1 2q-4 4-12 12t-29 28-41 35-40 28-34 12q-18 0-18-22t13-53 37-65 54-64 70-49 79-20q10 0 19 7t10 22-11 39-32 56-40 58-49 63-42 51-35 42q0 1 4-2 213-193 241-218t29-27 4-3q4-4 10-4t6 6q0 15-44 76t-87 116-43 58l0 0q31-26 125-115t166-152 79-64q5 0 5 7 0 14-23 48t-81 109q-2 3-81 97-173 206-173 238 0 2 3 2t25-11 31-19 10-7 1 2-1 3q-5 7-34 23t-35 16-8-6q0-32 54-111 84-126 203-258 15-17 56-67t40-54q0-1 0-1-3 0-185 167t-235 218q-6 6-12 6-14 0-14-3t7-13 75-91q160-196 160-205l-1-1q-4 2-131 117-185 167-210 194m424-105q5-6 11-14t10-9 8 8q0 9-45 59t-45 54q0 1 3 1t35-20q67-43 115-95 12-11 21-11 1 0 1 0 10 1 10 3l-1 1q-21 20-64 67t-42 56q0 2 3 2t68-41l21-13 0 6q-6 4-15 10-75 47-87 47-5 0-5-5t12-28 18-30l-8 4q-75 54-90 54-6 0-6-7t5-17 10-17 15-18 10-12l-39 23-2-5 17-11q44-28 56-42m217-21q0-1-2-1-13 0-42 23t-49 52q25-8 59-36t34-38m-115 118q0 7 5 7 6 0 27-9t34-16l49-31 1 7q-53 35-79 44t-34 10q-14 0-14-18 0-23 17-47t40-38 44-25 32-9 11 7q0 19-44 45t-72 35q-17 25-17 38m385-318q-15 0-110 96t-145 164q46-35 151-137t105-122q0-1-1-1m10-9q4 0 4 5 0 24-107 128t-170 148q-22 31-22 45 0 5 2 5 20 0 73-33l30-20 1 7q-13 8-29 18-58 36-80 36-6 0-6-10 0-29 40-86t93-110 102-93 69-40m81 9q-15 0-111 96t-145 164q46-35 151-137t106-122q0-1-1-1m9-9q5 0 5 5 0 24-108 128t-170 148q-22 31-22 45 0 5 2 5 21 0 74-33l30-20 0 7q-12 8-28 18-58 36-81 36-6 0-6-10 0-29 41-86t92-110 103-93 68-40m-80 209q0-1-2-1-13 0-42 23t-49 52q25-8 59-36t34-38m-115 118q0 7 5 7 6 0 27-9t34-16l49-31 1 7q-53 35-79 44t-34 10q-14 0-14-18 0-23 17-47t40-38 44-25 32-9 11 7q0 19-44 45t-72 35q-17 25-17 38m236-44l31-20 4 5q-23 14-37 23t-22 10q-11 0-11-10 0-7 7-28t11-29l-1-1q-2 0-5 2-50 40-65 54t-29 30-15 18-1 2q-2 1-11 1t-8-1q1-2 12-14 28-31 51-59l-15 9q-23 14-33 21l-2-6 31-20q17-11 29-23t17-19 8-13 7-5 9 4q0 5-8 17t-16 23l-8 9q0 1 1 1 1 0 3-2t17-14 26-21 25-16 21-8 6 3q0 4-24 17-6 3-17 28t-11 38q0 3 4 3t19-9m166-158l-72 84q39-26 121-110t82-99q0-3-2-3t-6 2q-32 18-79 73-2 2-21 25t-23 28m143-131q0 24-87 110t-145 125l-8 9q-12 12-50 63-3 5-3 5t0 1 6-4 38-26q75-55 109-72 3-1 4-1 6 0 6 9t-15 29-32 36q-47 44-47 50 0 3 2 3 28-9 49-22l49-31 1 7q-53 35-79 44t-33 10-7-5q0-9 26-36t50-53 26-30q0-1-2-1-6 0-62 37t-83 59-31 24-15 5q-5 0-5-2t7-12q36-44 116-138t86-99 17-17 20-20 22-22 24-21q26-21 38-21 3 0 6 2t2 5m-22 231v0q-10 5-22 23t-14 33q36-37 36-56m-106 105q19 0 61-40v-3q0-15 15-38t28-29q-1-2-4-2-18 0-61 43t-43 66q0 3 4 3m-16-7q0-38 43-75t72-37q14 0 14 12 0 36-38 71 3 1 6 1 14 0 41-17l2 5q-32 21-48 21-7 0-10-2-19 16-41 26t-31 10-10-15m157-31q0-2-1-2-7 0-13 12t-5 19 2 10q17-31 17-39m247-296q0-1-1-1-18 0-203 225 51-36 127-118t77-106m-406 493q0 2 2 2 25 0 65-49t71-104q-5-2-5-15t11-30q-144 179-144 196m414-505q5 0 5 4 0 20-28 58t-69 76q-87 85-139 122l-32 40q4-3 7-3 8 0 8 12t-11 35q19-9 40-22l43-28 1 7q-59 39-87 50-27 56-74 109t-83 54q-5 0-5-6 0-19 94-144t200-245 130-119m-155 308q0-2-1-2-7 0-13 12t-5 19 2 10q17-31 17-39m247-296q0-1-1-1-18 0-203 225 51-36 127-118t77-106m-406 493q0 2 2 2 25 0 65-49t71-104q-5-2-5-15t11-30q-144 179-144 196m414-505q5 0 5 4 0 20-28 58t-69 76q-87 85-139 122l-32 40q4-3 7-3 8 0 8 12t-11 35q19-9 40-22l43-28 1 7q-59 39-87 50-27 56-74 109t-83 54q-5 0-5-6 0-19 94-144t200-245 130-119" />
</svg>