<svg id="fnt-Hi Melody" viewBox="0 0 1546 1000" xmlns="http://www.w3.org/2000/svg"><path id="hi-melody" class="f" d="M60 433v3q-3 19-4 46t-1 57q0 30 2 60t3 51q0 9-5 14t-11 6q-3 0-7-4t-5-12q-3-27-4-62t-2-70q0-26 1-49t3-44q1-7 5-11t8-3q7 0 12 5t5 13m103 6q0-2 0-5 0-8 4-13t10-4q5 0 9 3t5 11q4 24 6 50t1 54q0 12-1 27t-2 31-3 31-5 28-8 19-10 7-9-4-4-12q0-4 0-6 6-25 9-48t4-47q-29 6-61 6-17 0-26-2t-10-13q0-5 5-9t14-4q4 1 8 1t7 0q16 0 32-2t32-6q0-26-2-49t-5-44m119 85v3q-1 12-1 24t-1 25q0 18 1 36t2 35q0 10-4 15t-10 5q-5 0-9-4t-3-11q-2-22-3-41t-1-37q0-7 0-18t1-22 5-18 11-8q5 0 9 4t3 12m-23-108q2-1 3-1 2 0 4 1t3 0q2 0 4-1t4 0q16 0 25 11t8 23q0 6-3 13t-8 12-13 10-18 3q-7 0-13-3t-10-9-7-11-2-13q0-10 6-21t17-14m12 26h-4q-3 1-4 3t-1 5q0 4 4 8t6 4q7 0 10-5t2-9q-2-7-10-7-1 0-3 1m319 108q-7 8-16 8t-17-12-17-27l-19-35q-2-3-2-6 0-7 5-12t10-4q5 0 10 9t12 20 11 20 10 9q3 0 5-4 21-30 33-47t20-27 9-13 4-5q2-6 6-9t9-3 8 3 6 11q4 26 6 57t2 64q0 17-2 40t-4 43-8 34-13 14q-6 0-10-4t-4-12q0-4 1-6 6-27 9-57t2-58q0-22-1-41t-2-37l-34 49q-10 13-17 23t-12 15m-77-110v3q-3 19-4 45t-1 56 2 57 2 51q0 10-4 14t-10 5q-4 0-8-4t-5-13q-3-27-4-61t-2-65q0-24 1-47t3-42q1-9 6-13t11-3 9 5 4 12m341 203q9 0 13 3t4 10q0 6-4 9t-7 5-11 2-10 0q-20 0-40-6t-37-15-26-25-10-35q0-21 11-36t29-26 36-15 36-5q9 0 17 2t16 7 11 13 4 21q0 15-10 26t-23 18-29 11-25 3q-6 0-8-4t-3-9q0-5 3-9t8-5q9 0 20-2t19-6 15-10 6-16q0-13-20-13-13 0-28 4t-27 11-20 18-8 26q0 11 7 20t18 15 27 10 31 4q4 0 8-1t7 0m118-2q5 1 8 5t3 9q0 6-4 11t-9 5q-4 0-7-2-20-5-30-14t-14-22-3-29 0-38q0-18 0-36t1-35 3-35 3-30q0-7 4-11t9-3q5 0 10 4t5 12q-1 14-3 34t-1 43-2 45 0 40q0 10 0 18t3 13 8 9 16 7m95-132q6-3 9-3 4 0 8 3 3-1 8-1t7-1q16 0 29 7t23 17 15 27 5 32q0 15-6 29t-15 25-24 17-27 6q-18 0-34-6t-25-16-17-24-6-31q0-13 3-27t9-26 16-19 22-9m6 25q-10 2-15 8t-8 14-4 18 0 16q0 9 3 18t9 16 17 11 24 5q10 0 19-4t14-12 9-15 3-19q0-25-13-42t-32-18h-10q-4 0-8 2t-8 2m250-101q0-2 0-4 0-7 4-11t8-4q6 0 11 4t6 13q2 23 3 51t1 57-2 58-4 53q-1 6-5 9t-8 3q-3 0-7-2-7 3-20 5t-25 2q-16 0-31-3t-25-10-18-20-6-31q0-16 4-32t14-30 25-22 35-9q6 0 11 1t11 2 8 6 3 10q0 5-2 8t-6 4q-6 0-11-2t-11-2q-21 0-36 16t-16 50q0 17 12 27t40 10q9 0 19-2t20-3q2-22 2-50t1-56-2-53-3-43m103 111v2q-4 14-4 24 0 14 5 24t14 18 21 12 26 4q2 0 3-1t3 0q4 0 8 4t3 10q0 7-3 10t-15 3q-25 0-43-7t-28-20-17-28-5-33q0-5 0-11t2-11 5-9 9-4q5 0 10 4t6 9m114-15q2 27 4 52t1 50q0 14 0 28t-3 26-11 26-23 26q-7 5-16 11t-17 11-19 7-18 3q-5 0-9-5t-4-12q0-4 2-8t8-5q13-3 27-10t25-16 19-20 10-23q1-13 1-30 0-9 0-19t-1-20l-5-72q0-1-1-1t0-1q0-6 4-10t10-3 10 3 6 12" />
</svg>