<svg id="fnt-Hind" viewBox="0 0 956 1000" xmlns="http://www.w3.org/2000/svg"><path id="hind" class="f" d="M243 478v-148h40v337h-40v-153h-164v153h-40v-337h40v148h164m157 189h-40v-254h40v254m-39-315q-7-7-7-18t7-19 19-7 18 7 8 19-8 18-18 7-19-7m114 61h39v44q22-47 80-47 37 0 59 22t22 60v175h-40v-164q0-28-14-43t-37-15q-29 0-50 22t-20 61v139h-39v-254m366 222q31 0 53-23t22-74q0-48-23-70t-49-23q-32 0-53 25t-20 73q0 41 20 66t50 26m75-183v-139h39v354h-39v-38q-27 42-78 42-51 0-80-38t-28-91q0-59 30-96t79-37q49 0 77 43" />
</svg>