<svg id="fnt-Hind Siliguri" viewBox="0 0 2509 1000" xmlns="http://www.w3.org/2000/svg"><path id="hind-siliguri" class="f" d="M283 330v337h-40v-153h-164v153h-40v-337h40v148h164v-148h40m117 83v254h-40v-254h40m-2-98q8 8 8 19t-8 18-18 7-19-7-7-18 7-19 19-7 18 7m277 177v175h-40v-164q0-28-14-43t-37-15q-29 0-50 22t-20 61v139h-39v-254h39v44q22-47 80-47 37 0 59 22t22 60m96 51q0 41 20 66t50 26q31 0 53-23t22-74q0-48-23-70t-49-23q-32 0-53 25t-20 73m184-230v354h-39v-38q-27 42-78 42-51 0-80-38t-28-91q0-59 30-96t79-37q49 0 77 43v-139h39m383 264q0 45-30 69t-79 24q-53 0-90-21v-44q37 28 89 28 32 0 50-14t18-41q0-11-5-20t-14-16-18-12-24-11q-3-2-9-4-21-10-33-16t-26-18-22-27-7-36q0-43 30-67t78-24q43 0 74 15v43q-31-20-73-20-31 0-49 14t-18 37q0 12 5 22t17 17 20 13 27 12q17 8 26 12t23 13 21 18 13 23 6 31m107-164v254h-40v-254h40m-2-98q8 8 8 19t-8 18-18 7-19-7-7-18 7-19 19-7 18 7m118-2v354h-39v-354h39m117 100v254h-40v-254h40m-2-98q8 8 8 19t-8 18-18 7-19-7-7-18 7-19 19-7 18 7m281 98v233q0 58-32 87t-82 30q-46 0-79-16v-39q32 18 75 18 37 0 58-19t21-61v-29q-25 43-75 43-43 0-74-32t-31-89q0-56 29-93t74-36q52 0 77 45v-42h39m-178 125q0 43 21 65t48 22q27 0 48-21t22-63q0-49-21-72t-47-24q-33 0-52 26t-19 67m445-125v254h-39v-44q-20 47-80 47-37 0-59-23t-22-59v-175h40v165q0 27 14 42t38 14q31 0 50-22t19-59v-140h39m112 115v139h-39l0-254h39v45q20-47 69-47 9 0 14 1v39q-10-4-21-4-27 0-44 25t-18 56m166-115v254h-40v-254h40m-2-98q8 8 8 19t-8 18-18 7-19-7-7-18 7-19 19-7 18 7" />
</svg>