<svg id="fnt-Homenaje" viewBox="0 0 1593 1000" xmlns="http://www.w3.org/2000/svg"><path id="homenaje" class="f" d="M81 667h-44v-350h44v148h99v-148h44v350h-44v-169h-99v169m273 3q-35 0-54-18t-19-49v-133q0-31 19-49t54-18 54 18 20 49v133q0 32-20 49t-54 18m0-31q16 0 25-9t10-27v-133q0-17-10-27t-25-9-25 9-9 27v133q0 18 9 27t25 9m124 28v-260h31l4 14 21-6q21-6 33-9t23-3q22 0 30 19 14-5 40-12t37-7q18 0 27 13t9 32v219h-40v-206q0-14-2-20t-10-6q-4 0-55 16v216h-40v-206q0-14-2-20t-10-6q-4 0-56 16v216h-40m362 0q-28 0-44-17t-16-44v-133q0-33 18-51t53-19 53 19 18 51v23q0 21-12 31t-31 17l-59 16v49q0 12 7 20t19 8h54v30h-60m-20-138l30-9q17-4 22-7t8-6 2-15v-28q0-16-8-23t-23-8q-14 0-23 8t-8 23v65m142 138v-260h31l5 14 20-6q21-6 33-9t24-3q18 0 26 13t9 32v219h-40v-206q0-14-2-20t-10-6q-4 0-56 16v216h-40m256 0q-18 0-33-9t-24-25-9-35v-26q0-23 12-39t29-23l62-23v-23q0-12-7-20t-19-8h-56v-29h60q27 0 43 16t17 44v200h-75m4-31h33v-117l-44 16q-13 5-18 14t-5 27v28q0 13 10 23t24 9m175-272h-40v-40h40v40m-77 383v-30h12q12 0 18-8t7-20v-282h40v279q0 28-16 44t-43 17h-18m189-80q-27 0-44-17t-16-44v-133q0-33 18-51t54-19 53 19 18 51v23q0 21-12 31t-32 17l-59 16v49q0 12 7 20t19 8h54v30h-60m-20-138l31-9q16-4 22-7t8-6 2-15v-28q0-16-9-23t-22-8q-14 0-23 8t-9 23v65" />
</svg>