<svg id="fnt-Honk" viewBox="0 0 1071 1000" xmlns="http://www.w3.org/2000/svg"><path id="honk" class="f" d="M-10 527h20t0 9 0 22 0 29 0 29 0 22 0 9 9 0 24 0 30 0 30 0 24 0 9 0q0 4 0 10t0 10q0 0-10 0t-28 0-35 0-35 0-27 0-11 0 0-10 0-26 0-34 0-34 0-26 0-10m20 46h-20v-105h20t0 8 0 18 0 18 0 8 0 8 0 18 0 19 0 8m245-46h20t0 10 0 26 0 34 0 34 0 26 0 10-10 0-28 0-35 0-35 0-27 0-11 0q0-5 0-10t0-10q0 0 9 0t24 0 30 0 30 0 24 0 9 0 0-9 0-22 0-29 0-29 0-22 0-9m-245-14h-20t0-10 0-26 0-34 0-33 0-26 0-10 11 0 27 0 35 0 35 0 28 0 10 0q0 4 0 10t0 10q0 0-9 0t-24 0-30 0-30 0-24 0-9 0 0 8 0 23 0 28 0 29 0 23 0 8m265-45v105h-20t0-8 0-19 0-18 0-8 0-8 0-18 0-18 0-8h20m0 45h-20t0-8 0-23 0-29 0-28 0-23 0-8-9 0-24 0-30 0-30 0-24 0-9 0q0-5 0-10t0-10q0 0 11 0t27 0 35 0 35 0 28 0 10 0 0 10 0 26 0 33 0 34 0 26 0 10m-150 29t4 0 8 0 4 0q1 0 1 0t0 1 1 1q0 0 0 10t0 26 0 30 0 26 0 10q0 2-1 2t-1 0q0 0-3 0t-5 0-6 0-2 0q-1 0-2 0t0 0 0-2q0 0 0-10t0-26 0-30 0-26 0-10q0-1 0-1t0-1 2 0m16-44t-4 0-8 0-4 0q-1 0-1 0t-1 0 0-2q0 0 0-10t0-26 0-30 0-26 0-10q0-1 0-2t2 0q0 0 2 0t6 0 6 0 2 0q1 0 1 0t1 1 0 1q0 0 0 10t0 26 0 30 0 26 0 10q0 1 0 2t-1 0-1 0m399-10v115h-20q0-14 0-22t0-16 0-20q0-12 0-19t0-11 0-10 0-17h20m-20 39h20t0 10 0 26 0 34 0 34 0 26 0 10-10 0-26 0-34 0-35 0-28 0-13 0q0-5 0-10t0-10q0 0 9 0t21 0 26 0 21 0 9 0q0 0 5-4t10-10 12-11 9-10 4-5v-80m20 37h-20v-79q0-1-4-5t-9-10-12-12-10-10-5-3q0 0-9 0t-21 0-26 0-21 0-9 0q0-5 0-10t0-10q2 0 13 0t28 0 35 0 34 0 26 0 10 0 0 10 0 26 0 33 0 34 0 26 0 10m-152 12t0-9 0-22 0-21 0-10q0-1 0-2t2 0q2 0 5 0t5 0 6 0q1 0 1 0t1 2q0 0 0 10t0 21 0 22 0 9q0 2-1 2t-1 0q-4 0-8 0t-8 0q-2 0-2 0t0-2m-113 27h-20v-115h20q0 11 0 17t0 10 0 11 0 19q0 12 0 20t0 16 0 22m-20-76h20v80q0 0 4 5t10 10 11 11 11 10 5 4q0 0 8 0t22 0 25 0 21 0 9 0q0 4 0 10t0 10q-2 0-13 0t-28 0-35 0-34 0-26 0-10 0 0-10 0-26 0-34 0-34 0-26 0-10m20 37h-20t0-10 0-26 0-34 0-33 0-26 0-10 10 0 26 0 34 0 35 0 28 0 13 0q0 4 0 10t0 10q0 0-9 0t-21 0-25 0-22 0-8 0q-1 0-5 3t-11 10-11 12-10 10-4 5v79m530-76v115h-20q0-14 0-22t0-16 0-20q0-12 0-19t0-11 0-10 0-17h20m-265 115h-20v-115h20q0 11 0 17t0 10 0 11 0 19q0 12 0 20t0 16 0 22m265-39h-20v-79q0-1-4-5t-9-10-12-12-10-10-5-3q0 0-9 0t-21 0-26 0-21 0-9 0q0-5 0-10t0-10q2 0 13 0t28 0 35 0 34 0 26 0 10 0 0 10 0 26 0 33 0 34 0 26 0 10m-20-37h20t0 10 0 26 0 34 0 34 0 26 0 10-10 0-28 0-35 0-35 0-27 0-11 0q0-5 0-10t0-10q0 0 9 0t24 0 30 0 30 0 24 0 9 0 0-9 0-22 0-29 0-29 0-22 0-9m-265 0h20t0 9 0 22 0 29 0 29 0 22 0 9 9 0 24 0 30 0 30 0 24 0 9 0q0 4 0 10t0 10q0 0-10 0t-28 0-35 0-35 0-27 0-11 0 0-10 0-26 0-34 0-34 0-26 0-10m20 37h-20t0-10 0-26 0-34 0-33 0-26 0-10 11 0 27 0 35 0 35 0 28 0 10 0q0 4 0 10t0 10q0 0-9 0t-24 0-30 0-30 0-24 0-9 0 0 8 0 23 0 28 0 29 0 23 0 8m115 86q-1 0-2 0t0 0 0-1 0-1q0 0 0-8t0-19 0-26 0-26 0-20 0-8q0-1 0-1t0-1 2 0q0 0 4 0t8 0 4 0q1 0 1 0t0 1 1 1q0 0 0 8t0 20 0 26 0 26 0 19 0 8q0 1 0 1t-1 1 0 0-1 0q0 0-4 0t-8 0-4 0m263-90t1 0 4 0 5 0q2 0 5 0t4 0 1 0q0 4 0 14t0 22 0 24 0 19 0 8 8 0 21 0 27 0 27 0 21 0 8 0 0-8 0-17 0-13q0-3 0-5t0-7 0-10 0-15q0 0 0-5t0-12 0-13 0-5h20q0 12 0 27t0 32 0 34 0 37q0 0-11 0t-27 0-37 0-36 0-29 0-12 0q0 0 0-3t0-7 0-7 0-3q0-10 0-20t0-19 0-18 0-16 0-14m-133-33h20t0 9 0 22 0 29 0 29 0 22 0 9 9 0 24 0 30 0 30 0 24 0 9 0q0 4 0 10t0 10q0 0-10 0t-28 0-35 0-35 0-27 0-11 0 0-10 0-26 0-34 0-34 0-26 0-10m20-4h-20v-149t8 0 19 0 24 0 20 0 9 0 8 0 18 0 22 0 17 0 8 0v51q10 0 21 0t21 0 21 0q0 0 7 0t17 0 21 0 17 0 7 0v98h-20v-78t-8 0-21 0-27 0-27 0-21 0-8 0 0 6 0 16 0 19 0 16 0 6-5 0-5 0-5 0-5 0 0-11 0-29 0-34 0-29 0-11-8 0-19 0-18 0-8 0-9 0-21 0-21 0-9 0v129m210 18t5-5 13-10 12-10 5-4v-25h10 10t0 11 0 27 0 32 0 26 0 11h-10-10v-25t-5-4-12-10-13-10-5-4m-230 62v-115h20q0 13 0 22t0 16 0 19q0 13 0 19t0 11 0 10 0 18h-20" />
</svg>