<svg id="fnt-Ibarra Real Nova" viewBox="0 0 3619 1000" xmlns="http://www.w3.org/2000/svg"><path id="ibarra-real-nova" class="f" d="M190 667h-170v-9l31-6q20-4 26-9t6-20v-249q0-16-6-21t-26-8l-31-6v-9h170v9l-30 6q-21 3-27 8t-5 21v249q0 15 5 20t27 9l30 6v9m72 6l-4-1v-308q0-10-3-14t-9-6l-23-6v-5q18-4 35-9t34-13l5 3q-4 11-5 22t-1 30v112l45-23q4-1 9-3t10-2q36 0 59 15t34 39 12 52-12 54-35 44-60 17q-19 0-37-8t-30-19q-7 6-13 13t-11 16m92-15q25 0 40-13t23-31 8-42q0-25-9-47t-26-36-45-14q-26 0-40 13t-14 32v70q0 19 9 34t23 25 31 9m212 12q-15 0-28-9t-22-25-9-31q0-9 2-12t5-5l96-35q12-4 16-10t5-16v-9q0-23-11-40t-34-17q-15 0-25 7t-10 19q0 3 2 6t3 5q3 4 5 9t2 9q0 10-7 15t-16 6q-11 0-18-7t-6-19q0-17 11-31t30-22 37-8q24 0 39 9t24 25 8 34v105q0 11 2 18t12 7q11 0 24-5v8q-10 6-24 12t-23 7q-11 0-17-6t-6-14-2-18v-6l5 7q-10 8-22 17t-24 14-24 6m14-24q10 0 21-5t22-13q8-7 8-19v-46q0-2-1-3t-3 0l-78 30q-3 1-5 4t-1 12q0 10 6 19t15 15 16 6m252 21h-104v-8l21-5q7-2 10-6t3-10v-137q0-10-3-14t-9-6l-22-6v-5q12-2 23-5t22-7 21-10l4 3q-2 7-4 14t-2 15v5l3 8v145q0 7 3 10t10 6l24 5v8m-37-141l-9-41 58-33q3-1 6-2t7-1q9 0 16 6t7 18q0 9-7 16t-18 7q-7 0-11-3t-8-7q-3-3-6-5t-6-3-10 4-13 15-6 29m212 141h-105v-8l21-5q8-2 10-6t3-10v-137q0-10-2-14t-10-6l-21-6v-5q11-2 22-5t22-7 21-10l5 3q-3 7-5 14t-1 15v5l3 8v145q0 7 2 10t11 6l24 5v8m-37-141l-9-41 58-33q3-1 6-2t6-1q9 0 16 6t7 18q0 9-6 16t-18 7q-7 0-12-3t-8-7q-2-3-5-5t-6-3-11 4-13 15-5 29m171 144q-15 0-29-9t-22-25-8-31q0-9 1-12t6-5l95-35q12-4 17-10t4-16v-9q0-23-11-40t-34-17q-15 0-25 7t-9 19q0 3 1 6t4 5q3 4 5 9t2 9q0 10-7 15t-17 6q-11 0-17-7t-6-19q0-17 11-31t29-22 37-8q24 0 40 9t23 25 8 34v105q0 11 2 18t13 7q11 0 23-5v8q-9 6-24 12t-23 7q-11 0-16-6t-7-14-1-18v-6l5 7q-10 8-22 17t-25 14-23 6m14-24q10 0 20-5t22-13q9-7 9-19v-46q0-2-2-3t-2 0l-79 30q-3 1-4 4t-1 12q0 10 6 19t14 15 17 6m621 27q-25 0-44-11t-33-29-29-36q-15-20-29-39t-32-30-46-12h-18v107q0 15 5 20t27 9l30 6v9h-170v-9l31-6q20-4 26-9t6-20v-249q0-16-6-21t-26-8l-31-6v-9h140q68 0 104 25t37 68q0 23-13 41t-33 28-45 14v2q23 0 39 11t28 30 27 38q13 19 26 35t26 28 29 10v9q-12 4-26 4m-231-331v160h32q30 0 50-9t31-27 11-41q0-41-27-62t-71-21h-26m371 329q-29 0-51-15t-36-39-12-54q0-33 13-59t37-40 52-14q24 0 41 11t27 30 10 44q0 3-2 5t-6 3h-145v-12l103-3q9 0 9-9 0-23-10-40t-32-16q-28 0-45 24t-17 65q0 29 11 49t28 30 38 11q32 0 64-27l6 5q-19 27-41 39t-42 12m192-1q-15 0-29-9t-22-25-8-31q0-9 1-12t6-5l95-35q12-4 17-10t4-16v-9q0-23-11-40t-34-17q-15 0-25 7t-9 19q0 3 1 6t4 5q3 4 5 9t2 9q0 10-7 15t-17 6q-11 0-17-7t-6-19q0-17 11-31t29-22 37-8q24 0 40 9t23 25 8 34v105q0 11 2 18t13 7q11 0 23-5v8q-9 6-24 12t-23 7q-11 0-16-6t-7-14-1-18v-6l5 7q-10 8-22 17t-25 14-23 6m14-24q10 0 20-5t22-13q9-7 9-19v-46q0-2-2-3t-2 0l-79 30q-3 1-4 4t-1 12q0 10 6 19t14 15 17 6m249 21h-102v-8l21-5q8-2 10-6t3-10l1-274q0-10-2-14t-10-6l-23-6v-5q18-4 36-9t34-13l5 3q-4 11-5 22t-1 30l-1 272q0 7 2 10t11 6l21 5v8m502 8h-5l-251-286v230q0 16 6 22t26 11l31 6v9h-140v-9l31-6q20-4 26-10t6-21v-243q0-12-2-18t-11-10-27-7l-23-4v-9h85l234 260-1-212q0-16-6-23t-26-10l-30-6v-9h139v9l-30 6q-21 3-27 9t-5 22v299m187-4q-31 0-55-15t-37-39-13-55q0-33 13-58t37-40 55-14q31 0 55 14t36 39 13 55q0 33-13 58t-36 40-55 15m0-12q31 0 49-25t17-70q0-47-17-75t-50-27q-31 0-48 24t-18 71q0 47 18 74t49 28m238 14h-5l-85-196q-3-6-6-8t-10-4l-15-4v-7h106v7l-28 7q-7 1-9 4t-1 7l62 143h-6l61-146q1-3-1-5t-8-4l-24-6v-7h78v7l-16 4q-6 2-10 4t-5 9l-78 195m183-3q-15 0-28-9t-22-25-9-31q0-9 2-12t5-5l96-35q12-4 16-10t5-16v-9q0-23-11-40t-34-17q-15 0-25 7t-10 19q0 3 2 6t3 5q3 4 5 9t2 9q0 10-7 15t-16 6q-11 0-18-7t-6-19q0-17 11-31t30-22 37-8q24 0 39 9t24 25 8 34v105q0 11 2 18t12 7q11 0 24-5v8q-10 6-24 12t-23 7q-11 0-17-6t-6-14-2-18v-6l5 7q-10 8-22 17t-24 14-24 6m14-24q10 0 21-5t22-13q8-7 8-19v-46q0-2-1-3t-3 0l-78 30q-3 1-5 4t-1 12q0 10 6 19t15 15 16 6" />
</svg>