<svg id="fnt-IBM Plex Sans Hebrew" viewBox="0 0 5073 1000" xmlns="http://www.w3.org/2000/svg"><path id="ibm-plex-sans-hebrew" class="f" d="M170 667h-140v-35h49v-279h-49v-35h140v35h-49v279h49v35m77 0v-349h143q44 0 68 24t25 66q0 19-5 33t-14 22-19 13-18 6v3q9 0 21 5t22 14 18 25 7 37-7 40-18 32-29 21-36 8h-158m42-162v125h103q27 0 43-14t15-40v-17q0-27-15-41t-43-13h-103m0-150v114h96q25 0 39-13t14-36v-17q0-23-14-36t-39-12h-96m556 312v-294h-2l-30 58-83 152-84-152-29-58h-3v294h-41v-349h56l100 188h3l100-188h54v349h-41m294 0h-42v-349h139q47 0 72 26t26 74-26 73-72 27h-97v149m0-312v126h97q25 0 39-13t14-37v-26q0-24-14-37t-39-13h-97m335 312h-35q-21 0-32-12t-11-30v-328h40v335h38v35m155 6q-26 0-48-10t-36-27-24-43-8-55q0-31 8-56t24-43 36-27 48-9q26 0 47 9t35 26 22 40 8 51v19h-186v12q0 16 5 30t15 25 24 17 33 6q24 0 42-12t29-33l28 21q-12 26-39 42t-63 17m0-237q-16 0-30 6t-23 16-15 25-6 31v4h143v-6q0-34-19-55t-50-21m184 231h-44l95-130-91-128h47l65 96h2l68-96h44l-91 125 93 133h-47l-67-101h-1l-73 101m461 6q-42 0-72-17t-51-44l31-26q18 24 41 37t53 13q37 0 57-18t20-48q0-25-15-39t-50-21l-28-7q-48-11-74-33t-25-63q0-23 9-41t23-30 37-18 47-6q39 0 67 14t48 43l-31 23q-15-20-35-32t-51-11q-34 0-53 14t-19 43q0 25 16 37t49 21l29 6q51 12 74 35t23 63q0 24-8 43t-24 33-38 21-50 8m399-6h-23q-22 0-32-12t-12-30h-3q-8 24-28 36t-46 12q-41 0-64-21t-23-57q0-37 27-56t83-20h51v-25q0-28-15-42t-46-15q-23 0-39 11t-26 28l-24-23q10-21 33-36t58-14q47 0 73 23t26 64v142h30v35m-138-28q15 0 28-4t21-10 14-15 5-18v-43h-53q-34 0-50 10t-16 29v11q0 19 14 29t37 11m235 28h-40v-258h40v42h2q9-22 26-35t47-13q40 0 63 25t23 73v166h-40v-159q0-69-58-69-12 0-24 3t-20 9-14 15-5 22v179m321 6q-36 0-60-14t-42-37l29-23q15 19 33 29t43 11q26 0 40-11t14-31q0-15-10-26t-35-15l-20-3q-18-2-33-8t-27-14-17-21-6-31q0-19 7-34t19-23 29-15 37-4q31 0 52 11t38 30l-27 24q-8-12-25-22t-41-9-38 10-13 30q0 19 13 27t37 13l20 3q43 6 61 24t18 48q0 38-26 59t-70 22m507-6v-158h-177v158h-42v-349h42v154h177v-154h42v349h-42m228 6q-27 0-48-10t-37-27-23-43-8-55q0-31 8-56t23-43 37-27 48-9q26 0 46 9t35 26 22 40 8 51v19h-185v12q0 16 5 30t15 25 24 17 32 6q25 0 43-12t28-33l29 21q-13 26-39 42t-63 17m0-237q-17 0-30 6t-24 16-15 25-5 31v4h142v-6q0-34-19-55t-49-21m177 231v-370h40v154h2q10-25 29-37t47-11q24 0 43 9t33 27 21 43 8 56-8 56-21 42-33 27-43 10q-53 0-76-48h-2v42h-40m107-30q34 0 53-22t20-55v-44q0-35-20-56t-53-21q-14 0-26 3t-21 11-15 15-5 20v96q0 13 5 22t15 17 21 10 26 4m223 30h-40v-258h40v47h3q7-18 25-33t49-14h16v40h-24q-32 0-51 12t-18 31v175m238 6q-26 0-48-10t-36-27-24-43-8-55q0-31 8-56t24-43 36-27 48-9q26 0 47 9t35 26 22 40 8 51v19h-186v12q0 16 5 30t15 25 24 17 33 6q24 0 42-12t29-33l28 21q-12 26-39 42t-63 17m0-237q-16 0-30 6t-23 16-15 25-6 31v4h143v-6q0-34-19-55t-50-21m217 231l-69-258h39l28 111 27 113h1l32-113 32-111h36l33 111 32 113h1l27-113 28-111h37l-68 258h-50l-36-124-22-79h-1l-22 79-36 124h-49" />
</svg>