<svg id="fnt-IBM Plex Serif" viewBox="0 0 3323 1000" xmlns="http://www.w3.org/2000/svg"><path id="ibm-plex-serif" class="f" d="M28 667v-23h37v-303h-37v-23h118v23h-38v303h38v23h-118m173 0v-23h37v-303h-37v-23h167q44 0 68 22t25 60q0 19-5 33t-15 25-21 17-24 9v1q13 1 27 7t25 16 19 26 8 36q0 22-7 40t-19 30-29 20-37 7h-182m80-168v143h86q29 0 45-17t17-44v-22q0-26-17-43t-45-17h-86m0-157v132h78q27 0 42-15t14-40v-22q0-24-14-39t-42-16h-78m255 325v-23h37v-303h-37v-23h88l102 216h1l107-216h83v23h-38v303h38v23h-118v-23h37v-276h-2l-22 49-96 191-85-179-28-61h-2v276h37v23h-102m552 0v-23h37v-303h-37v-23h163q47 0 72 23t26 70q0 46-26 71t-73 25h-82v137h48v23h-128m80-325v140h79q27 0 41-17t15-41v-23q0-25-15-42t-41-17h-79m222 325v-23h37v-319l-37-6v-18l78-14v357h37v23h-115m272 6q-27 0-49-10t-37-27-23-43-8-55q0-30 9-55t24-43 36-28 46-9q26 0 46 9t33 25 22 39 7 49v11h-177v13q0 43 21 67t57 25q31 0 49-13t29-33l16 10q-5 13-14 25t-21 22-29 15-37 6m-71-166v6h134v-5q0-17-4-32t-11-26-21-18-29-6-30 6-22 17-13 26-4 32m210 160v-23h29l75-103-76-109h-26v-23h105v23h-30l56 82h2l53-82h-31v-23h91v23h-29l-71 101 76 111h26v23h-105v-23h29l-55-84h-2l-57 84h31v23h-91m529 6q-32 0-52-10t-27-26h-3v30h-36v-103h36v23q0 13 4 23t12 19 23 13 35 4q44 0 63-18t19-50q0-26-15-41t-46-24l-27-7q-47-12-72-36t-26-66q0-21 8-38t23-29 34-19 45-6q29 0 47 8t26 25h3v-27h36v97h-36v-23q0-12-4-22t-13-17-23-11-36-4q-35 0-52 16t-18 42q0 27 16 42t50 25l25 6q46 12 70 36t25 63q0 23-8 42t-22 33-36 22-48 8m286 0q-28 0-50-10t-36-27-23-43-8-55q0-30 8-55t24-43 37-28 46-9q25 0 45 9t34 25 21 39 8 49v11h-178v13q0 43 21 67t57 25q31 0 49-13t29-33l17 10q-5 13-14 25t-21 22-29 15-37 6m-72-166v6h135v-5q0-17-4-32t-12-26-20-18-29-6-30 6-22 17-13 26-5 32m225 160v-23h37v-203l-37-6v-17l77-15v45h3q3-8 8-16t13-15 18-10 24-4q22 0 35 10t14 31q0 15-8 23t-19 9q-14 0-22-8t-8-18q0-10 4-17t10-7v-1q-2 0-5-1t-7 0q-11 0-21 5t-19 14-14 19-5 21v161h47v23h-125m279-318q-13 0-20-8t-6-18v-3q0-11 6-19t20-7 20 7 7 19v3q0 11-7 18t-20 8m-57 318v-23h37v-203l-37-6v-17l78-15v241h37v23h-115m155 0v-23h37v-211h-37v-24h37v-41q0-18 6-33t16-26 26-16 32-6q27 0 43 10t16 30q0 13-8 21t-18 8q-11 0-18-7t-7-17q0-18 14-23v-1q-4-1-8-2t-10 0q-21 0-32 15t-11 42v46h56v24h-56v211h47v23h-125" />
</svg>