<svg id="fnt-IBM Plex Mono" viewBox="0 0 3868 1000" xmlns="http://www.w3.org/2000/svg"><path id="ibm-plex-mono" class="f" d="M258 667h-216v-34h87v-282h-87v-33h216v33h-87v282h87v34m86 0v-349h119q45 0 70 24t26 66q0 31-16 49t-39 26v1q30 7 49 26t19 56q0 21-7 40t-20 32-30 21-37 8h-134m42-37h79q29 0 46-13t16-40v-20q0-27-16-40t-46-13h-79v126m0-161h72q27 0 42-12t15-35v-20q0-24-15-36t-42-12h-72v115m442 198v-175-111h-4l-74 180-73-180h-4v111 175h-39v-349h54l62 154h3l61-154h52v349h-38m459 0h-42v-349h127q49 0 74 26t26 74-26 74-74 27h-85v148m0-313v128h84q27 0 41-13t15-38v-26q0-24-15-38t-41-13h-84m253 313v-34h90v-302h-90v-34h130v336h90v34h-220m415 6q-28 0-51-10t-38-27-24-43-8-55q0-31 8-56t25-43 37-27 48-9q26 0 47 9t37 26 23 40 8 51v19h-191v12q0 17 5 31t16 25 25 16 33 6q26 0 45-12t29-33l29 20q-11 26-38 43t-65 17m-3-237q-16 0-30 6t-25 16-16 25-5 31v4h148v-6q0-17-6-31t-14-24-23-16-29-5m225 231h-46l96-131-94-127h48l39 54 31 43h2l30-43 39-54h46l-95 126 97 132h-48l-43-61-30-41h-2l-28 41-42 61m751 0v-175-111h-4l-74 180-73-180h-4v111 175h-39v-349h54l62 154h3l61-154h52v349h-38m222 6q-27 0-49-10t-37-27-23-43-8-55q0-31 8-56t23-43 37-27 49-9 49 9 37 27 23 43 8 56q0 31-8 55t-23 43-37 27-49 10m0-35q34 0 54-20t21-62v-37q0-42-21-62t-54-20-54 20-20 62v37q0 42 20 62t54 20m239 29h-40v-258h40v42h2q4-10 10-19t15-15 21-10 28-4q40 0 65 25t24 73v166h-40v-159q0-35-15-53t-46-17q-12 0-23 3t-21 9-14 16-6 22v179m361 6q-27 0-49-10t-37-27-23-43-8-55q0-31 8-56t23-43 37-27 49-9 49 9 37 27 23 43 8 56q0 31-8 55t-23 43-37 27-49 10m0-35q34 0 54-20t21-62v-37q0-42-21-62t-54-20-54 20-20 62v37q0 42 20 62t54 20" />
</svg>