<svg id="fnt-IBM Plex Sans Thai Looped" viewBox="0 0 6031 1000" xmlns="http://www.w3.org/2000/svg"><path id="ibm-plex-sans-thai-looped" class="f" d="M170 667h-140v-35h49v-279h-49v-35h140v35h-49v279h49v35m77 0v-349h143q44 0 68 24t25 66q0 19-5 33t-14 22-19 13-18 6v3q9 0 21 5t22 14 18 25 7 37-7 40-18 32-29 21-36 8h-158m42-162v125h103q27 0 43-14t15-40v-17q0-27-15-41t-43-13h-103m0-150v114h96q25 0 39-13t14-36v-17q0-23-14-36t-39-12h-96m556 312v-294h-2l-30 58-83 152-84-152-29-58h-3v294h-41v-349h56l100 188h3l100-188h54v349h-41m294 0h-42v-349h139q47 0 72 26t26 74-26 73-72 27h-97v149m0-312v126h97q25 0 39-13t14-37v-26q0-24-14-37t-39-13h-97m335 312h-35q-21 0-32-12t-11-30v-328h40v335h38v35m155 6q-26 0-48-10t-36-27-24-43-8-55q0-31 8-56t24-43 36-27 48-9q26 0 47 9t35 26 22 40 8 51v19h-186v12q0 16 5 30t15 25 24 17 33 6q24 0 42-12t29-33l28 21q-12 26-39 42t-63 17m0-237q-16 0-30 6t-23 16-15 25-6 31v4h143v-6q0-34-19-55t-50-21m184 231h-44l95-130-91-128h47l65 96h2l68-96h44l-91 125 93 133h-47l-67-101h-1l-73 101m461 6q-42 0-72-17t-51-44l31-26q18 24 41 37t53 13q37 0 57-18t20-48q0-25-15-39t-50-21l-28-7q-48-11-74-33t-25-63q0-23 9-41t23-30 37-18 47-6q39 0 67 14t48 43l-31 23q-15-20-35-32t-51-11q-34 0-53 14t-19 43q0 25 16 37t49 21l29 6q51 12 74 35t23 63q0 24-8 43t-24 33-38 21-50 8m399-6h-23q-22 0-32-12t-12-30h-3q-8 24-28 36t-46 12q-41 0-64-21t-23-57q0-37 27-56t83-20h51v-25q0-28-15-42t-46-15q-23 0-39 11t-26 28l-24-23q10-21 33-36t58-14q47 0 73 23t26 64v142h30v35m-138-28q15 0 28-4t21-10 14-15 5-18v-43h-53q-34 0-50 10t-16 29v11q0 19 14 29t37 11m235 28h-40v-258h40v42h2q9-22 26-35t47-13q40 0 63 25t23 73v166h-40v-159q0-69-58-69-12 0-24 3t-20 9-14 15-5 22v179m321 6q-36 0-60-14t-42-37l29-23q15 19 33 29t43 11q26 0 40-11t14-31q0-15-10-26t-35-15l-20-3q-18-2-33-8t-27-14-17-21-6-31q0-19 7-34t19-23 29-15 37-4q31 0 52 11t38 30l-27 24q-8-12-25-22t-41-9-38 10-13 30q0 19 13 27t37 13l20 3q43 6 61 24t18 48q0 38-26 59t-70 22m517-318h-111v312h-42v-312h-111v-37h264v37m53 312v-370h40v154h2q10-22 27-35t46-13q40 0 63 25t24 73v166h-40v-159q0-69-59-69-12 0-23 3t-20 9-15 15-5 22v179h-40m494 0h-22q-23 0-33-12t-12-30h-2q-9 24-28 36t-47 12q-41 0-64-21t-22-57q0-37 26-56t84-20h51v-25q0-28-15-42t-46-15q-24 0-40 11t-26 28l-24-23q11-21 34-36t58-14q47 0 73 23t26 64v142h29v35m-137-28q15 0 27-4t22-10 14-15 5-18v-43h-53q-35 0-51 10t-15 29v11q0 19 13 29t38 11m214-291q-13 0-19-6t-5-16v-7q0-10 5-16t19-6 19 6 6 16v7q0 10-6 16t-19 6m-20 319v-258h40v258h-40m438 0h-191v-349h42v312h149v37m148 6q-26 0-47-10t-37-27-24-43-8-55q0-31 8-56t24-43 37-27 47-9 47 9 37 27 24 43 9 56q0 31-9 55t-24 43-37 27-47 10m0-36q33 0 53-20t21-61v-37q0-41-21-61t-53-20-53 20-20 61v37q0 41 20 61t53 20m280 36q-26 0-47-10t-37-27-24-43-8-55q0-31 8-56t24-43 37-27 47-9 47 9 37 27 24 43 9 56q0 31-9 55t-24 43-37 27-47 10m0-36q33 0 53-20t21-61v-37q0-41-21-61t-53-20-53 20-20 61v37q0 41 20 61t53 20m183 130v-358h40v42h2q10-25 29-37t46-11q24 0 44 9t33 27 21 43 7 56-7 56-21 42-33 27-44 10q-52 0-75-48h-2v142h-40m106-130q34 0 54-22t19-55v-44q0-35-19-56t-54-21q-13 0-26 3t-21 11-14 15-5 20v96q0 13 5 22t14 17 21 10 26 4m281 36q-27 0-48-10t-37-27-23-43-8-55q0-31 8-56t23-43 37-27 48-9q26 0 46 9t35 26 22 40 8 51v19h-185v12q0 16 5 30t15 25 24 17 32 6q25 0 43-12t28-33l29 21q-13 26-39 42t-63 17m0-237q-17 0-30 6t-24 16-15 25-5 31v4h142v-6q0-34-19-55t-49-21m342 231v-42h-2q-23 48-75 48-24 0-44-10t-33-27-21-42-7-56 7-56 21-43 33-27 44-9q27 0 46 11t29 37h2v-154h40v370h-40m-66-30q13 0 25-4t22-10 14-17 5-22v-96q0-10-5-20t-14-15-22-11-25-3q-34 0-54 21t-19 56v44q0 34 19 55t54 22" />
</svg>