<svg id="fnt-Iceberg" viewBox="0 0 1571 1000" xmlns="http://www.w3.org/2000/svg"><path id="iceberg" class="f" d="M99 321v346h-49v-346h49m211 86l44 44-50 50v-50h-67v172h111v44h-118l-43-44v-172l43-44h80m266 216v44h-136l-43-44v-172l43-44h93l43 44v86l-43 43h-80l44-43h30v-86h-80v172h129m252-172v172l-44 44h-86v-43l-50 49v-355l50-52v172l31-31h55l44 44m-130 172h80v-172h-80v172m385 0v44h-136l-43-44v-172l43-44h93l43 44v86l-43 43h-80l44-43h30v-86h-80v172h129m242-172v43l-49 49v-92h-74v216h-49v-260h49v38l36-38h44l43 44m91-44h154l-43 44h-105v172h80v-129h50v259l-43 43h-142l42-43h93v-124l-49 38h-37l-43-44v-172l43-44" />
</svg>