<svg id="fnt-Iceland" viewBox="0 0 1354 1000" xmlns="http://www.w3.org/2000/svg"><path id="iceland" class="f" d="M85 422v245h-40v-245h40m115 70h115l-30 30h-85v115h105v30h-105q-14 0-25-11t-10-24v-105q0-15 10-25t25-10m325 145v30h-140q-14 0-25-11t-10-24v-105q0-15 10-25t25-10h105q15 0 25 10t10 25v35l-35 35h-100l30-30h70v-45h-105v115h140m95-260v290h-35v-255l35-35m243 150v140h-35v-26l-30 26h-75q-15 0-25-11t-10-24v-35q0-15 10-25t25-10h100l-30 29h-70v46h105v-115h-140l30-30h110q14 0 24 10t11 25m245 0v140h-35v-145h-105v145h-35v-175h35v25l25-25h80q14 0 24 10t11 25m245-150v290h-35v-25l-25 25h-80q-15 0-25-11t-10-24v-105q0-15 10-25t25-10h105v-80l35-35m-140 260h105v-140l-25 25h-80v115" />
</svg>