<svg id="fnt-IM Fell French Canon" viewBox="0 0 4667 1000" xmlns="http://www.w3.org/2000/svg"><path id="im-fell-french-canon" class="f" d="M69 631v-275q0-10-4-15t-9-8-12-3-11 0-10-2-3-6q0-3 3-4t6-1h13q6 0 11 0t10 1 9 1 11 0q12 0 21 0t17-1 17-2 18 0h17q3 0 5 1t4 2q1 2 1 2t0 3q0 2-4 4t-10 3-11 2-8 1q-4 1-8 1t-8 2-7 4-2 7v290q0 5 4 8t9 4 13 2 12 1 9 3 4 5q0 2-1 3t-3 1q-4 1-8 2t-9 1q-9 0-16-1t-14-1-14-1-15 0q-4 0-11 0t-15 1-15 0-14 1h-19q-1 0-3-2t-3-3q0-5 5-6 5-2 9-3t9-1 10-2 14-3q4-1 5-5t1-11m201 33q-14 0-26 2t-26 1h-10q-2 0-3-3t-1-4q0-3 1-5t2-2q3-1 6-1t8-1 7 0 7 0q5 0 11-3t9-7q2-3 4-6t3-8 2-14 2-23l12-209q0-8-2-15t-6-15-10-11-14-7q-1-1-4-1t-7-1-7-1-4 0q-5-1-8-2t-3-6q0-2 1-4t2-2h10q6 0 11 0t12 1 11 2 14 0h23q5 0 8-1t9 0q5 0 10 1t7 4q4 5 7 11t5 13l82 216q1 2 2 4t2 1q2 0 3-2t1-3l93-242q1-3 4-4t6 0q12 0 24-1t22-1 23-1 25-1q1 0 2 0t3 1 2 1 1 2q0 3-3 7t-7 3q-13 0-21 3t-16 12q-4 4-6 8t-3 10-2 11 0 10l3 261q2 5 9 7t14 3 16 1 12 2q3 1 3 3t1 4q0 3-4 4t-11 1q-8 0-15 0t-13 0-14-1-17 0h-37q-7 0-14 0t-13 1q-8 0-15 0-2 0-4 0t-4-1-3-2-1-4q0-5 6-7t14-1h11q5 0 9 0t8-2 6-3 2-7l-3-259q0-1-1-4t-2-2q-1 0-2 1t-1 1l-110 285q-1 3-3 3t-3-3l-109-288q-1-3-3-3-1 0-2 1t0 2l-7 234q0 2 1 7t1 10 2 10 4 8q3 6 9 8t14 3 15 1 13 1q3 0 4 2t1 4q0 2-2 3t-4 2-5 0-5 0q-9 0-17 0t-15-1-15-1-14-1m559-18v-308q0-3-3-5t-10-3-12-3-13-1-12-1-8-1q-3-1-3-4 0-2 3-2t4-1h72q7 0 18-1t22-1 24-2 24 0h63q0-1 3-1h5q4 0 5 4t1 6q1 13 2 26t1 26q0 3-1 5t-5 2q-2 0-4-1t-3-5q-2-4-5-9t-5-10-6-9-6-6q-8-6-17-9t-18-4-18-2-20-1h-17q-6 0-10 2t-4 9v138q0 2 2 3t4 2q5-1 11-1t11 0q9 0 18 0t17-2 14-3 9-6q1-2 2-5t2-7 2-6 2-5q1-4 1-8t1-8 2-6 6-2q6 0 7 4t1 8v94q0 1 0 3t0 2q1 4 1 7t0 4q0 3-1 5t-4 3q-4 0-5-5-3-6-4-13t-2-14-5-13-12-9q-3-1-7-2t-9-2-10-1-8 0q-1 0-7-1t-12 0q-7 0-13 1t-7 1q-3 2-3 3t-1 6v145q0 3 4 5t11 2 13 1 13 1 11 2 4 5q0 2-2 3t-3 2-4 0-4 0q-13 0-23 0t-19 0-18-1-19-1q-6 0-11 1t-12 1q-11 0-23 0h-12q-2 0-3 0t-1-3q0-2 1-3t6-2q6-1 14-2t13-1 10-3 4-7m429-136h-169q-2 1-3 2t-1 5q0 2-1 9t0 17 2 18 5 17q10 30 32 46t58 16q5 0 11-2t13-5 12-8 11-8q3-3 5-7t5-9q1-1 3-2t3 0q4 0 6 2t1 7q0 2-1 4t-2 4-2 4-2 3q-9 14-24 25t-33 17q-5 1-15 2t-24 1q-11 0-22-3t-23-8-20-13-16-15q-13-19-19-37t-6-42q0-8 1-15t3-15 5-14 8-14q8-14 18-25t23-19 26-13 31-4q14 0 29 3t29 12q5 3 13 10t15 15 13 17 6 17q0 2-1 4t-3 1m-162-13h108q4 0 5-1t1-2q0-6-3-12t-6-12-9-9-7-7q-8-7-15-9t-18-2q-4 0-8 0t-7 1-7 1-7 3q-5 3-10 7t-11 11-8 14-3 14q0 3 5 3m180 167q0-2 1-3t4-3 3-1 4-1h24q6 0 6-7v-265q0-12-2-18t-6-10-8-4-8-1q-3 0-6 1t-5 1-4 1-5 1q-2 0-4-1t-2-3q0-4 3-5 4-3 9-5t8-2 9-2 8-3q11-4 16-5t8-4 5-2 7-4q6-2 13-2 0 0 3 0t3 2q3 4 3 13v317q0 5 3 6t6 1q6 0 11-1t11-1q3 0 5 2t3 5q0 3-2 5t-3 2h-8q-9 0-17 0t-15-1-14-1-15 0q-10 0-18 1t-17 1h-13q-1 0-3-1t-1-3m139 0q0-2 1-3t3-3 4-1 3-1h24q6 0 6-7v-265q0-12-2-18t-6-10-7-4-9-1q-3 0-6 1t-5 1-4 1-5 1q-2 0-4-1t-2-3q0-4 4-5 4-3 8-5t8-2 9-2 9-3q10-4 15-5t8-4 5-2 7-4q7-2 13-2 1 0 3 0t4 2q2 4 2 13v317q0 5 3 6t7 1q5 0 10-1t11-1q3 0 6 2t2 5q0 3-1 5t-4 2h-8q-9 0-16 0t-15-1-15-1-15 0q-9 0-18 1t-16 1h-13q-2 0-3-1t-1-3m309-18v-308q0-3-3-5t-9-3-13-3-13-1-11-1-8-1q-3-1-3-4 0-2 2-2t4-1h72q7 0 18-1t22-1 25-2 23 0h63q1-1 3-1h5q4 0 5 4t1 6q1 13 2 26t2 26q0 3-2 5t-4 2q-2 0-4-1t-4-5q-2-4-4-9t-6-10-6-9-6-6q-8-6-17-9t-17-4-19-2-20-1h-16q-6 0-10 2t-5 9v138q0 2 3 3t3 2q5-1 11-1t12 0q8 0 17 0t17-2 14-3 9-6q1-2 2-5t3-7 1-6 2-5q1-4 1-8t1-8 2-6 6-2q6 0 7 4t1 8v94q0 1 0 3t1 2q0 4 0 7t0 4q0 3-1 5t-4 3q-3 0-5-5-3-6-3-13t-3-14-5-13-12-9q-3-1-7-2t-9-2-10-1-7 0q-2 0-8-1t-12 0q-7 0-13 1t-7 1q-2 2-3 3t-1 6v145q0 3 5 5t10 2 13 1 14 1 10 2 4 5q0 2-2 3t-3 2-4 0-3 0q-13 0-24 0t-19 0-18-1-19-1q-5 0-11 1t-12 1q-11 0-23 0h-12q-1 0-3 0t-1-3q0-2 1-3t6-2q7-1 14-2t13-1 10-3 4-7m253 1v-134q0-7 0-15t-1-15-3-13-5-6q-6-3-14-3-6 0-11 1t-8 0q-1 0-2-1t-1-2q0-2 1-3 8-4 16-6t16-4q7-2 15-5t14-6q4-2 8-5t9-2q1 0 3 1t1 3v14q0 2 0 4t1 6 0 5 0 3 1 1l0 1q2 0 3-2t3-4 3-6 6-6q5-5 10-9t12-7 13-4 13-2q9 0 19 2t18 5 13 11 5 19q0 6-3 11t-7 9-9 6-12 2q-4 0-8-1t-6-3q-7-7-10-19-1-6-2-11t-2-7-5-4-11-1q-7 0-13 4t-13 8-10 11-5 12q-1 6-1 12t0 13v147q1 3 5 4t9 0q1 0 4 0t5 0 5 0 3 0q6 0 9 1t4 6q0 3-3 5t-5 3q-14-2-28-3t-28-1q-14 0-27 1t-26 1q-3 0-7-2t-3-5q0-2 1-3t3-3 4-1 3-1q2 0 5 1t6 0q2 1 4 1t5 0q1 0 3-1t4-2 3-3 1-3m388-137h-169q-2 1-3 2t-1 5q0 2-1 9t0 17 2 18 5 17q10 30 32 46t58 16q5 0 11-2t13-5 12-8 10-8q4-3 6-7t5-9q1-1 3-2t3 0q4 0 6 2t1 7q0 2-1 4t-2 4-2 4-2 3q-9 14-24 25t-34 17q-4 1-15 2t-23 1q-11 0-22-3t-23-8-20-13-16-15q-13-19-19-37t-6-42q0-8 1-15t2-15 6-14 8-14q8-14 18-25t23-19 26-13 31-4q14 0 29 3t29 12q5 3 12 10t16 15 13 17 6 17q0 2-1 4t-3 1m-162-13h108q4 0 5-1t1-2q0-6-3-12t-7-12-8-9-7-7q-8-7-15-9t-18-2q-4 0-8 0t-7 1-7 1-7 3q-5 3-10 7t-11 11-8 14-3 14q0 3 5 3m382 150v-138q0-25-13-39t-36-13q-11 0-20 2t-15 7q-7 6-12 12t-8 13-4 16-2 20v115q0 7 4 9t13 2h14q9 0 9 6 0 7-7 8h-13q-10 0-19 0t-21 0q-5 0-12 0t-15 0-15 1-14 0q-5 0-5-6 0-6 6-6 8-1 16-1h14q1 0 3-1t1-3v-103q0-8 1-20t2-24q0-6-1-12t-2-10-3-8-7-6q-1-1-6-2t-10 0q-4 0-7 0t-5 0q-5 0-6-1-1-1-1-1 0-2 2-3t6-3q2-1 5-1t7-2 6-1 3-1q12-3 25-9t23-11q2 0 3-1 1 0 2 0 4 1 4 6 0 5-1 10t-2 8q0 2 1 7t0 8 1 8 2 3q1 0 4-4t8-10 11-12 11-11q12-8 24-12t26-5q20 0 32 6t20 14 10 19 4 22q0 6 1 11t0 12v90q0 7 0 12t-1 9-1 10 0 10q0 3 1 4t5 3 10 1 16 0q4 0 6 3t2 6-1 4-4 2-4 1-5 0q-11 0-24 0t-26-1q-4 0-8 0t-10 1-14 0-19 0q-4 0-5-2t-1-5q0-6 6-7 2 0 5 0t6 0q5 0 9 0t8-1 5-2 2-3m187-15q4 2 7 4t7 2 8 2 10 1q8 0 17-5t17-10 15-14 9-13q1-3 3-4t5-2q1 1 2 3t0 4q0 8-5 16t-9 14q-8 9-16 17t-17 12-20 7-24 2q-23 0-41-10t-31-27-19-38-6-43q0-23 7-44t22-40 34-27 45-11q10 0 19 1t20 5 17 9 14 14q2 3 4 6t4 4 2 5 1 6q0 5-2 8t-5 7-7 3-8 2q-6 0-10-5t-7-10-7-14-9-14-15-11-22-4q-8 0-15 3t-14 7-11 11-8 13q-5 13-6 27t-1 28q0 15 2 30t7 28 15 26 22 19m123 30q0-4 1-6t5-2h23q9 0 9-10v-192q0-10 0-18t1-14 1-14 1-15q0-5-2-10t-4-9-6-7-8-3q-3 0-7 1t-6 2-6 2-5 1q-5 0-5-5 0-2 1-4t2-3q8-4 18-8t21-8q9-4 16-8t15-8q3-2 5-3t6-2q2 0 3 4 0 1 0 3t0 3 1 4 0 3v147q0 3 2 3 9-11 17-21t19-19q9-6 19-11t22-4q9 0 17 2t16 5 14 9 12 14q3 6 5 16t4 23 3 22 0 18v109q0 4 3 4h28q3 0 5 0t2 3q0 4-3 7t-6 4q-11 0-21-1t-24-1q-13 0-27 1t-24 1q-8 0-11-1t-2-6q0-5 2-6t8-1q8 0 14 0t11 0q1 0 2-1t2-3v-112q0-6 0-14t-1-14-2-14-4-11q-7-13-18-18t-22-5q-6 0-10 1t-9 1-7 3-7 5q-14 9-21 20t-7 26v123q0 2 0 4t1 5 1 4 4 1h27q3 0 6 2t3 6q0 2-1 3t-5 2h-18q-6 0-13 0t-14 0-13 0-11 0q-10 0-19 1t-16 1h-10q-2 0-3-2t0-5m401-167v-3q0-15 3-31t8-31 13-31 16-28q10-13 23-24t28-18 31-11 35-4q15 0 30 2t30 9q11 5 20 12t19 14q0 2 2 2t2 0q2 0 4-3 2-5 4-12t5-12q1-2 3-3t2 0q2 0 3 1t1 2q2 8 2 17t0 18v14q0 3 0 6t1 7q1 9 2 16t1 13q0 4-1 8t-4 4q-2 0-4-4t-5-8-6-9-3-6q-7-10-13-18t-13-17-14-14-16-12q-7-4-14-7t-13-4-13-1-13 0q-10 0-19 3t-16 7-14 11-13 14q-17 21-26 55t-9 83q0 24 4 43t11 35 14 25 14 18q8 8 14 14t14 9 16 6 19 1q17 0 32-7t31-18q3-3 7-6t6-7 6-7 5-6q8-12 14-23t11-24q2-4 8-4 3 0 4 2t1 5q-4 13-7 24t-6 23q-3 9-4 18t-2 14-2 11-4 4q-2 0-3-2t-2-4q-1-3-2-5t-4-1-5 1-5 3-9 4-14 7q-15 6-33 10t-36 4q-25 0-46-7t-41-23q-15-13-27-29t-20-36-13-39-5-40m448 136l-2 1q0 0-4 4t-8 8-9 8-5 4q-8 4-18 8t-22 4q-9 0-17-3t-16-8-11-16-5-25q0-6 3-15t10-15q6-8 15-14t18-10 22-7 26-7q4-1 8-2t7-2 6-2 3-2q2-1 3-1t1-4q1-5 2-12t1-12 1-13 0-10q0-10-3-18t-10-14-15-10-17-3q-8 0-15 3t-15 10-11 13-4 15q0 4 2 6t4 4 5 5 2 6q0 10-7 16t-15 6q-6 0-10-3t-8-6-5-9-1-10q0-4 3-10t6-11 8-10 8-8q5-5 10-9t11-8q4-2 8-4t9-3q2-1 6-2t10-3 11-2 11-1q11 0 23 3t19 10 14 18 6 26q0 16-2 33t-4 34-4 29-1 21q0 4 0 10t3 12 6 10 10 4q6 0 13-3t11-8 10-11 7-11q1-1 1-2t2-1q1 0 1 1v3q0 11-4 21t-12 20-19 15-26 5q-2 0-6 0t-7-2q-6-3-10-7t-7-7-6-9-5-11m-78-8q0 6 3 10t6 7 9 5 11 1q6 0 12-1t11-4 10-5 8-5q6-5 6-11 0-18 3-34t2-31q0-2 0-4t-3-2q-2 0-4 1t-4 1q-10 4-21 8t-20 10q-7 4-12 10t-9 13-6 15-2 16m382 24v-138q0-25-14-39t-36-13q-11 0-20 2t-14 7q-8 6-13 12t-8 13-4 16-1 20v115q0 7 3 9t13 2h14q9 0 9 6 0 7-7 8h-13q-9 0-19 0t-21 0q-5 0-12 0t-14 0-16 1-14 0q-5 0-5-6 0-6 6-6 8-1 16-1h14q2 0 3-1t1-3v-103q0-8 2-20t1-24q0-6-1-12t-2-10-3-8-7-6q-1-1-6-2t-9 0q-5 0-8 0t-5 0q-5 0-6-1-1-1-1-1 0-2 2-3t7-3q1-1 4-1t7-2 6-1 3-1q13-3 25-9t23-11q2 0 3-1 1 0 2 0 4 1 4 6 0 5-1 10t-1 8q0 2 0 7t0 8 1 8 2 3q1 0 5-4t7-10 11-12 11-11q12-8 24-12t26-5q20 0 33 6t19 14 10 19 4 22q0 6 1 11t0 12v90q0 7 0 12t-1 9-1 10 0 10q0 3 1 4t5 3 10 1 16 0q5 0 6 3t2 6-1 4-4 2-4 1-5 0q-11 0-24 0t-26-1q-4 0-8 0t-10 1-14 0-19 0q-4 0-5-2t-1-5q0-6 6-7 2 0 5 0t6 0q5 0 9 0t8-1 6-2 2-3m98-94q0-26 9-47t24-35 37-22 46-8q6 0 12 1t12 4 12 4 12 6q29 16 43 42t14 58q0 23-8 43t-23 37q-15 16-35 23t-42 8q-17 0-32-3t-31-14q-26-19-38-42t-12-55m42 1q0 10 2 21t5 22 9 22 13 19 18 13 22 5q8 0 14-1t10-5 9-7 8-9q7-9 12-19t8-22 4-21 1-21q0-9-1-21t-7-23-11-22-15-20q-8-7-16-10t-13-3q-11 0-20 2t-15 7-12 12-11 17q-10 16-12 32t-2 32m397 93v-138q0-25-13-39t-36-13q-11 0-20 2t-15 7q-7 6-12 12t-8 13-4 16-2 20v115q0 7 4 9t13 2h14q9 0 9 6 0 7-7 8h-13q-10 0-19 0t-21 0q-5 0-12 0t-15 0-15 1-14 0q-5 0-5-6 0-6 6-6 8-1 16-1h14q1 0 3-1t1-3v-103q0-8 1-20t2-24q0-6-1-12t-2-10-3-8-7-6q-1-1-6-2t-10 0q-4 0-7 0t-5 0q-5 0-6-1-1-1-1-1 0-2 2-3t6-3q2-1 5-1t7-2 6-1 3-1q12-3 25-9t23-11q2 0 3-1 1 0 2 0 4 1 4 6 0 5-1 10t-2 8q0 2 1 7t0 8 1 8 2 3q1 0 4-4t8-10 11-12 11-11q12-8 24-12t26-5q20 0 32 6t20 14 10 19 4 22q0 6 1 11t0 12v90q0 7 0 12t-1 9-1 10 0 10q0 3 1 4t5 3 10 1 16 0q4 0 6 3t2 6-1 4-4 2-4 1-5 0q-11 0-24 0t-26-1q-4 0-8 0t-10 1-14 0-19 0q-4 0-5-2t-1-5q0-6 6-7 2 0 5 0t6 0q5 0 9 0t8-1 5-2 2-3" />
</svg>