<svg id="fnt-IM Fell French Canon SC" viewBox="0 0 5640 1000" xmlns="http://www.w3.org/2000/svg"><path id="im-fell-french-canon-sc" class="f" d="M69 631v-275q0-10-4-15t-9-8-12-3-11 0-10-2-3-6q0-3 3-4t6-1h13q6 0 11 0t10 1 9 1 11 0q12 0 21 0t17-1 17-2 18 0h17q3 0 5 1t4 2q1 2 1 2t0 3q0 2-4 4t-10 3-11 2-8 1q-4 1-8 1t-8 2-7 4-2 7v290q0 5 4 8t9 4 13 2 12 1 9 3 4 5q0 2-1 3t-3 1q-4 1-8 2t-9 1q-9 0-16-1t-14-1-14-1-15 0q-4 0-11 0t-15 1-15 0-14 1h-19q-1 0-3-2t-3-3q0-5 5-6 5-2 9-3t9-1 10-2 14-3q4-1 5-5t1-11m201 33q-14 0-26 2t-26 1h-10q-2 0-3-3t-1-4q0-3 1-5t2-2q3-1 6-1t8-1 7 0 7 0q5 0 11-3t9-7q2-3 4-6t3-8 2-14 2-23l12-209q0-8-2-15t-6-15-10-11-14-7q-1-1-4-1t-7-1-7-1-4 0q-5-1-8-2t-3-6q0-2 1-4t2-2h10q6 0 11 0t12 1 11 2 14 0h23q5 0 8-1t9 0q5 0 10 1t7 4q4 5 7 11t5 13l82 216q1 2 2 4t2 1q2 0 3-2t1-3l93-242q1-3 4-4t6 0q12 0 24-1t22-1 23-1 25-1q1 0 2 0t3 1 2 1 1 2q0 3-3 7t-7 3q-13 0-21 3t-16 12q-4 4-6 8t-3 10-2 11 0 10l3 261q2 5 9 7t14 3 16 1 12 2q3 1 3 3t1 4q0 3-4 4t-11 1q-8 0-15 0t-13 0-14-1-17 0h-37q-7 0-14 0t-13 1q-8 0-15 0-2 0-4 0t-4-1-3-2-1-4q0-5 6-7t14-1h11q5 0 9 0t8-2 6-3 2-7l-3-259q0-1-1-4t-2-2q-1 0-2 1t-1 1l-110 285q-1 3-3 3t-3-3l-109-288q-1-3-3-3-1 0-2 1t0 2l-7 234q0 2 1 7t1 10 2 10 4 8q3 6 9 8t14 3 15 1 13 1q3 0 4 2t1 4q0 2-2 3t-4 2-5 0-5 0q-9 0-17 0t-15-1-15-1-14-1m559-18v-308q0-3-3-5t-10-3-12-3-13-1-12-1-8-1q-3-1-3-4 0-2 3-2t4-1h72q7 0 18-1t22-1 24-2 24 0h63q0-1 3-1h5q4 0 5 4t1 6q1 13 2 26t1 26q0 3-1 5t-5 2q-2 0-4-1t-3-5q-2-4-5-9t-5-10-6-9-6-6q-8-6-17-9t-18-4-18-2-20-1h-17q-6 0-10 2t-4 9v138q0 2 2 3t4 2q5-1 11-1t11 0q9 0 18 0t17-2 14-3 9-6q1-2 2-5t2-7 2-6 2-5q1-4 1-8t1-8 2-6 6-2q6 0 7 4t1 8v94q0 1 0 3t0 2q1 4 1 7t0 4q0 3-1 5t-4 3q-4 0-5-5-3-6-4-13t-2-14-5-13-12-9q-3-1-7-2t-9-2-10-1-8 0q-1 0-7-1t-12 0q-7 0-13 1t-7 1q-3 2-3 3t-1 6v145q0 3 4 5t11 2 13 1 13 1 11 2 4 5q0 2-2 3t-3 2-4 0-4 0q-13 0-23 0t-19 0-18-1-19-1q-6 0-11 1t-12 1q-11 0-23 0h-12q-2 0-3 0t-1-3q0-2 1-3t6-2q6-1 14-2t13-1 10-3 4-7m301-101l42-2q9-1 15-5t7-10 4-12 4-14q1-3 3-3 3 0 3 2v10q0 10-1 21t-1 19q0 8 2 17t1 18q0 1 0 4t-1 6-1 5-3 2q-2 0-3-3t-1-4q-1-3-2-7t-2-9-3-8-2-4q-2-5-8-7t-15-4-16-2-15 0h-7q-4 0-5 1t-1 5v86q0 7 5 9h74q5 0 10 0t7-1q4-1 6-4t4-6q1-2 3-5t5-9 4-8 3-5q2-3 5-3 2 0 3 1v37q0 2 0 4t-1 4q-1 4-2 5t-6 2q-25 0-47 0t-45-1-48 0-56 0q-4 0-4-5 0-2 3-4t5-2q1 0 5 0t7 0 7-1 7 0q5 0 5-9v-180q0-4 0-11t-4-10q-1-1-1-1l-35-3q-4 0-4-5 0-1 0-3t3-2h41q23 0 46 0t41 0h35q4 0 8 0t8 0 8 0 4 0q2 1 3 2t1 4 1 4 0 3v40q0 2-2 2-2 0-4-4t-4-8q-2-5-5-11t-5-8q-2-4-6-6t-11-4-11-2-10-2q-2 0-8 0t-14-1-15 0-11 0q-6 0-7 3t-1 9v87q0 2 2 4t4 2m158 117q0-6 5-6h9q4 0 8 0t6-1 5-3 1-4v-197q0-3-2-5t-5-2h-17-5q-1 0-3 0t-4 0q-1-1-2-2t-1-3q0-5 6-5h60q1 0 4 0t7 0 6-1 3 0q3 0 8 0t7-1q0 0 2 0t4 1 5 0 2 0q4 1 4 4 0 3-2 5-1 2-4 2h-27q-2 0-3 2t-2 4 0 5 0 5q0 13 1 25t1 29v135q0 2 1 4t3 2h78q7 0 12-6t11-13 9-16 6-11q2-2 3-2 2 0 2 2 1 4 2 6t0 8q0 2-1 5t-1 8-2 8 0 6q0 2 0 4t-1 4 0 4-1 2q-3 3-6 3-30 0-65-1t-69-1q-6 0-13 1t-12 0-12 1-9 0q-6 0-9 0t-3-5m229 0q0-6 4-6h10q4 0 8 0t6-1 4-3 2-4v-197q0-3-2-5t-5-2h-17-5q-1 0-3 0t-4 0q-1-1-2-2t-1-3q0-5 6-5h60q1 0 4 0t6 0 6-1 4 0q3 0 7 0t7-1q1 0 3 0t4 1 4 0 3 0q4 1 4 4 0 3-2 5-2 2-5 2h-27q-1 0-2 2t-2 4-1 5 0 5q0 13 2 25t1 29v135q0 2 1 4t3 2h78q6 0 12-6t11-13 9-16 6-11q2-2 3-2 1 0 2 2 1 4 1 6t0 8q0 2 0 5t-2 8-1 8-1 6q0 2 0 4t0 4 0 4-1 2q-3 3-6 3-31 0-65-1t-69-1q-6 0-13 1t-13 0-11 1-10 0q-5 0-8 0t-3-5m387-16v-308q0-3-3-5t-10-3-12-3-13-1-12-1-8-1q-3-1-3-4 0-2 3-2t4-1h72q7 0 17-1t23-1 24-2 24 0h63q0-1 3-1h5q4 0 5 4t1 6q1 13 2 26t1 26q0 3-1 5t-5 2q-2 0-4-1t-3-5q-2-4-5-9t-5-10-6-9-6-6q-8-6-17-9t-18-4-18-2-20-1h-17q-6 0-10 2t-4 9v138q0 2 2 3t4 2q5-1 11-1t11 0q9 0 18 0t17-2 14-3 9-6q1-2 2-5t2-7 2-6 2-5q1-4 1-8t1-8 2-6 6-2q6 0 7 4t1 8v94q0 1 0 3t0 2q1 4 1 7t0 4q0 3-1 5t-4 3q-4 0-6-5-2-6-3-13t-2-14-5-13-12-9q-3-1-7-2t-9-2-10-1-8 0q-1 0-7-1t-12 0q-8 0-13 1t-7 1q-3 2-3 3t-1 6v145q0 3 4 5t11 2 13 1 13 1 10 2 5 5q0 2-2 3t-3 2-4 0-4 0q-13 0-23 0t-19 0-18-1-19-1q-6 0-11 1t-12 1q-11 0-23 0h-12q-2 0-3 0t-2-3q0-2 2-3t6-2q6-1 14-2t13-1 10-3 4-7m291-199q0 1 0 5t0 8 1 8 0 5v64q0 5 3 6 1 0 3 1t5 0 5 0 4 1q8 0 15-3 13-3 22-7t15-10 9-16 3-25q0-20-14-33-10-11-24-14t-32-4q-6 0-11 3t-4 11m73 214q0-4 5-5h18q2 0 4 0t4-2q1 0 1-1t-1-3q-17-23-34-46t-35-46q-1 0-2-2t-2-1l-25-3h-1q-4 0-4 5v74q0 10 3 15t5 7 8 2 8 1q4 0 7 0t3 6q0 3-2 4t-6 1h-97q-3 0-5-2t-1-3q0-3 3-5 3 0 8-1t12-1 10-1 5-4v-8q0-12-1-21t0-20 0-21 0-26v-77-31q-1-1-1-3t-1-4q-1 0-1 0t-1-1q-1 0-1 0h-23q-3 0-6-2t-3-3q-1 0-1-1 0 0 0-1 0-1 1-3t3-2h123q17 0 32 3t26 12 17 20 6 31q0 12-1 19t-6 14-9 9-13 9q-2 2-4 3t-6 2-5 2-1 3q0 1 3 7t9 12 12 16 12 15 10 13 5 6q7 7 14 13t14 10 15 8 18 4q2 4 2 6 0 2-1 3t-4 1h-93-15q0 0-3 0t-4-1-5-2-2-3m218-116l42-2q9-1 14-5t8-10 4-12 4-14q1-3 3-3 3 0 3 2v10q0 10-1 21t-1 19q0 8 2 17t1 18q0 1 0 4t-1 6-1 5-3 2q-2 0-3-3t-1-4q-1-3-2-7t-2-9-3-8-2-4q-2-5-8-7t-15-4-16-2-15 0h-7q-4 0-5 1t-1 5v86q0 7 5 9h74q5 0 10 0t7-1q4-1 6-4t4-6q1-2 3-5t5-9 4-8 3-5q2-3 5-3 2 0 3 1v37q0 2 0 4t-1 4q-1 4-3 5t-5 2q-25 0-47 0t-45-1-48 0-56 0q-4 0-4-5 0-2 3-4t5-2q1 0 4 0t8 0 7-1 7 0q5 0 5-9v-180q0-4 0-11t-4-10q-1-1-1-1l-35-3q-4 0-4-5 0-1 0-3t3-2h40q24 0 47 0t41 0h35q4 0 8 0t8 0 7 0 5 0q2 1 3 2t1 4 1 4 0 3v40q0 2-2 2-2 0-4-4t-4-8q-2-5-5-11t-5-8q-2-4-6-6t-11-4-11-2-10-2q-2 0-8 0t-14-1-15 0-11 0q-6 0-7 3t-1 9v87q0 2 2 4t4 2m254 122h-77q-3 0-6-1t-5-1-5-2-1-5q0-2 0-4t3-2q7-2 13-2t9-2 6-6 4-13q0-21 0-43t1-43q1-15 3-29t2-29q0-2 0-3t-2-5q0-1-3-5t-5-6-5-7-4-5q-2-3-7-5t-9-3-8-4-3-7q0-2 2-3t4-2 4-1 4-1q1 0 2 1t3 0 3 1 3 0h25q2 1 4 2t4 3q19 20 36 40t36 38 35 38 35 38q1 1 2 2 1 1 2 2t2 0q2 0 3-2t1-2v-60-20q0-9 0-18t-1-16-2-14-3-9q-3-6-11-8t-14-3-12-2-5-5q0-7 8-7h92q5 0 5 6 0 2-5 4t-13 4-13 6-9 11q-2 6-3 13t-1 20v171q0 2-2 3t-3 2q-3 0-7-5-1-1-6-7t-13-15-20-20-22-25-24-26-23-25-21-23-17-18q-3-2-5-2-3 0-4 5t-1 10q0 3 0 7t0 11 1 14 0 13 1 12 0 8v12q0 6 0 13t1 14 1 12 4 9q2 4 6 5t8 3 9 0 8 1 6 3 2 7q0 2 0 3t-3 4m378-229v53q0 3-2 6t-4 2q-4 0-7-3t-5-8-4-10-3-7q-3-4-5-6t-5-6-6-4-7-4q-6-3-13-4t-18-2q-10 0-20 5t-16 13q-4 6-8 15t-7 18-4 20-2 20q0 3 1 10t2 17 4 19 7 18q9 18 24 30t36 12q7 0 12-2t11-3q1-1 3-2t5-4 4-3 4-4q3-3 6-8t4-8 3-8 2-6q1-3 5-3 1 0 2 2t1 2 0 4 0 2q0 15-6 27t-18 20q-10 9-22 14t-26 5q-17 0-31-4t-25-11-20-17-15-21q-8-14-13-31t-4-34q0-27 12-50t35-44q13-11 27-17t32-7q7 0 13 1t13 2 14 4 16 7q0 0 1 0 3 0 4-1t3-4 2-4 4-2q1 0 2 1t2 3m38 223q0-5 4-6t8-2q2 0 4 0t6 1 7 0 5 0q4 0 4-6v-198q0-2-2-4t-4-2h-23q-1 0-4-2t-3-5q0-3 2-4t5-1q10 0 22 0t26 0 27 1 27 0q2 0 4 2t1 3q0 2-2 3t-7 2-8 0-9 1-7 1-5 4v90q0 3 5 3h97q2 0 5-1t3-5v-86q0-4-4-5-7-1-13-1t-13-2q-2-1-5-3t-2-3q0-2 3-3t3-1q2 0 4 0t5 1 6 0 4 0h30q4 0 10 0t12 0 12-1 10 0q4 0 5 2t1 6q0 2-1 3t-3 2h-19q-5 0-5 4v197q0 3 2 5t5 2h22q1 0 2 1t1 3q-1 4-3 6t-5 3q-6 0-13 0t-15-1q-6 0-13 0t-9 0q-7 0-12 0t-11 1-10 0-12 1q-3 0-5-2t-3-4q0-1 2-4t3-2h23q4 0 7-3t4-7v-76q0-5-2-9t-4-4h-98q-6 0-6 6v86q2 4 4 5t5 2q3 1 5 1t6 0h6 4q6 0 6 6 0 5-6 5-2 0-8-1t-14 0q-7 0-15 0t-15 0q-11 0-19 0t-14 1q-4 0-7 0t-7 0q-4 0-7 0t-2-6m407-166v-3q0-15 3-31t8-31 13-31 16-28q11-13 23-24t28-18 31-11 35-4q15 0 30 2t30 9q11 5 20 12t19 14q1 2 2 2t2 0q2 0 4-3 2-5 5-12t4-12q1-2 3-3t2 0q2 0 3 1t1 2q2 8 2 17t0 18v14q0 3 0 6t1 7q1 9 2 16t2 13q0 4-2 8t-4 4q-2 0-4-4t-5-8-6-9-3-6q-7-10-13-18t-13-17-14-14-16-12q-7-4-14-7t-13-4-13-1-13 0q-10 0-19 3t-16 7-14 11-13 14q-17 21-26 55t-9 83q0 24 4 43t11 35 14 25 14 18q8 8 14 14t14 9 16 6 20 1q16 0 31-7t31-18q3-3 7-6t6-7 6-7 5-6q8-12 14-23t11-24q2-4 8-4 3 0 4 2t1 5q-4 13-7 24t-6 23q-3 9-4 18t-2 14-2 11-4 4q-2 0-3-2t-2-4q-1-3-2-5t-4-1-5 1-5 3-9 4-14 7q-15 6-33 10t-35 4q-26 0-47-7t-41-23q-15-13-27-29t-20-36-13-39-5-40m311 165q0-1 1-3t4-2q4 0 8-1t9-4 8-7 7-9l64-154q1 0 1-2t1-3q0-3-1-5t-3-5-3-5-1-3q0-2 2-4t4-2 5-1 5-1q2-1 5-3t4-4q1-1 1-3t1-4 2-3 3-1q5 0 6 4l70 209q1 5 3 7t4 4 6 2 8 0h9q2 0 3 0 2 0 3 2t2 3q0 4-5 4 0 1-3 1h-14q-7 0-16-1t-19-1q-15 0-29 1t-25 1q-2 0-3-1t-1-2 1-3 3-3 4-2 3 0q3 0 5 0t6 0q8 0 12-2 5-1 5-5 0-1-1-2t0-2q-1-2-3-8t-5-13-5-14-3-10q-1-2-2-4t-4-2h-69q-6 0-8 6l-9 35q-1 2-1 3t0 3q0 4 0 6t2 4 4 2 6 1q1 0 4 1t6 1 6 1 4 0q1 0 3 2t3 4q0 1-1 3t-4 1h-7q-4 0-11-1t-14 0q-6 0-15 0t-19 1q-2 0-5-1t-8-1-7-2-2-3m104-163l-29 75q0 0 0 3v1q0 3 1 4t5 2q14 0 28 1t26 1q2 0 4-1t1-3v-3q0 0 0-1-1-1-1-2l-26-75q-2-5-5-5-1 0-2 1t-2 2m248 170h-78q-2 0-5-1t-5-1-5-2-1-5q0-2 0-4t3-2q7-2 13-2t8-2 6-6 5-13q0-21 0-43t1-43q1-15 3-29t2-29q0-2 0-3t-2-5q-1-1-3-5t-5-6-5-7-4-5q-2-3-7-5t-9-3-8-4-3-7q0-2 2-3t3-2 5-1 4-1q0 0 2 1t3 0 3 1 2 0h26q1 1 4 2t4 3q18 20 36 40t35 38 35 38 36 38q1 1 2 2 1 1 2 2t2 0q2 0 3-2t1-2v-60-20q0-9 0-18t-1-16-2-14-3-9q-4-6-11-8t-14-3-12-2-5-5q0-7 8-7h92q5 0 5 6 0 2-6 4t-12 4-13 6-9 11q-2 6-3 13t-1 20v171q0 2-2 3t-3 2q-3 0-7-5-1-1-6-7t-14-15-19-20-22-25-24-26-24-25-21-23-16-18q-3-2-5-2-4 0-5 5t-1 10q0 3 1 7t0 11 0 14 1 13 0 12 1 8v12q0 6 0 13t0 14 2 12 3 9q3 4 7 5t8 3 9 0 8 1 6 3 2 7q0 2 0 3t-3 4m198-115q0-15 3-27t8-22 13-19 19-18q8-7 17-11t19-7 20-4 21-1q9 0 19 3t19 7 17 9 13 10q18 17 28 36t9 43q0 13-1 24t-6 20-9 17-12 17q-6 7-15 13t-19 13-22 8-25 4q-23 0-41-6t-35-21q-40-35-40-88m113-98q-11 0-18 2t-14 7-11 10-10 14q-9 14-12 30t-3 33q0 19 4 38t15 37q2 5 8 11t12 10 13 7 12 3q12 0 20-4t16-10 12-15 10-17q6-12 9-26t3-30q0-12-2-22t-5-19-8-18-11-18q-7-10-17-17t-23-6m246 213h-77q-3 0-6-1t-5-1-5-2-1-5q0-2 0-4t3-2q7-2 13-2t9-2 6-6 4-13q0-21 0-43t1-43q1-15 3-29t2-29q0-2 0-3t-2-5q0-1-3-5t-5-6-5-7-4-5q-2-3-7-5t-9-3-8-4-3-7q0-2 2-3t4-2 4-1 4-1q0 0 2 1t3 0 3 1 2 0h26q2 1 4 2t4 3q18 20 36 40t36 38 35 38 35 38q1 1 2 2 1 1 2 2t2 0q2 0 3-2t1-2v-60-20q0-9 0-18t-1-16-2-14-3-9q-3-6-11-8t-14-3-12-2-5-5q0-7 8-7h92q5 0 5 6 0 2-5 4t-13 4-13 6-9 11q-2 6-3 13t-1 20v171q0 2-2 3t-3 2q-3 0-7-5-1-1-6-7t-14-15-19-20-22-25-24-26-23-25-21-23-17-18q-3-2-5-2-4 0-4 5t-1 10q0 3 0 7t0 11 1 14 0 13 1 12 0 8v12q0 6 0 13t1 14 1 12 4 9q2 4 6 5t8 3 9 0 8 1 6 3 2 7q0 2 0 3t-3 4m314-262q0-12 4-24t11-24 16-20 19-15q10-6 20-7t22-1q13 0 26 3t25 9q1 1 3 3t6 4 7 5 6 5q1 1 2 1 0 0 1-1 1-1 2-3t2-5 3-4 1-3q1-1 2-2t1-1q0 0 1 0 1 0 2 1t1 2 0 3 0 3v2q0 0 0 2t0 3-1 3 0 2v60q0 2-2 3t-3 1q-2 0-3-1t-1-4q-3-7-4-13t-3-14q-3-8-9-18t-15-17-17-14-18-5q-15 0-23 2-13 4-21 12t-16 19q-2 3-3 7t-3 10-2 9-1 8q0 11 6 21t13 17 18 13 20 10q9 4 18 7t19 7 17 8 15 10q9 7 17 17t14 21 11 23 4 24q0 23-8 41t-22 31-33 20-41 7q-13 0-25-1t-23-5-21-10-19-15q-1-2-2-2t-3 0q-4 0-6 2t-3 5-2 5-5 2l6-67q1-3 1-7t1-6q1-4 3-4 3 0 4 4 1 4 2 8t2 8 2 7 2 7q6 10 11 17t12 15 15 12 20 10q8 2 15 3t12 0q7 0 14-2t16-8q14-9 22-20t9-29q0-13-5-24t-12-20q-11-12-22-19t-20-11-19-7-20-8-21-11-22-21q-25-29-25-71m252 90v-3q0-15 3-31t8-31 12-31 17-28q10-13 23-24t28-18 31-11 34-4q15 0 31 2t29 9q11 5 20 12t19 14q1 2 2 2t2 0q3 0 4-3 3-5 5-12t5-12q1-2 2-3t3 0q2 0 3 1t0 2q2 8 3 17t0 18v14q0 3 0 6t0 7q1 9 3 16t1 13q0 4-1 8t-4 4q-2 0-4-4t-6-8-5-9-3-6q-7-10-14-18t-12-17-14-14-16-12q-7-4-14-7t-14-4-12-1-13 0q-11 0-19 3t-17 7-14 11-12 14q-18 21-27 55t-9 83q0 24 5 43t10 35 14 25 15 18q7 8 14 14t14 9 16 6 19 1q17 0 32-7t31-18q3-3 6-6t7-7 6-7 5-6q8-12 14-23t10-24q3-4 9-4 2 0 3 2t1 5q-3 13-6 24t-7 23q-2 9-3 18t-2 14-2 11-4 4q-2 0-3-2t-3-4q0-3-1-5t-4-1-5 1-6 3-8 4-14 7q-16 6-33 10t-36 4q-25 0-47-7t-40-23q-15-13-27-29t-20-36-13-39-5-40" />
</svg>