<svg id="fnt-Imbue" viewBox="0 0 893 1000" xmlns="http://www.w3.org/2000/svg"><path id="imbue" class="f" d="M102 667h-85v-17h23v-317h-23v-16h85v16h-24v317h24v17m106 0h-81v-17h24v-228h-24v-17h61v28q0-4 5-12t14-13 23-5q14 0 23 7t12 15 5 12q1-7 7-15t17-14 24-5q22 0 33 18t11 46v183h23v17h-81v-17h20v-156q0-21-1-36t-5-23-14-7q-10 0-17 8t-9 21-4 28v165h21v17h-78v-17h20v-156q0-32-3-49t-18-17q-9 0-16 8t-9 22-3 29v163h20v17m281 5q-12 0-19-7t-11-15-4-14l-3 31h-59v-17h26v-342h-26v-16h64v140q1-4 5-11t11-13 20-5q16 0 29 13t20 43 8 78q0 50-8 79t-22 43-31 13m-6-25q8 0 13-7t9-20 5-34 2-48q0-25-1-45t-5-34-9-21-13-8q-7 0-13 7t-9 19-5 23v100q1 15 4 31t9 26 13 11m163 25q-13 0-25-6t-18-21-7-47v-176h-26v-17h63v189q0 23 3 35t8 16 12 4q10 0 17-9t10-26 4-35v-157h-25v-17h62v245h23v17h-56l-2-30q-1 7-6 15t-15 14-22 6m185 0q-18 0-31-11t-22-29-12-44-4-53q0-33 6-58t15-42 22-24 26-9q15 0 27 10t19 25 11 36 4 42q0 5 0 10t0 10h-95v-16h58q0-32-2-54t-8-34-14-12q-9 0-16 12t-11 36-4 61q0 27 2 50t5 40 11 26 17 10q15 0 24-9t12-18l14 9q-4 14-19 25t-35 11" />
</svg>