<svg id="fnt-Imperial Script" viewBox="0 0 2362 1000" xmlns="http://www.w3.org/2000/svg"><path id="imperial-script" class="f" d="M108 690q-38 0-65-22-28-25-28-61 0-48 37-80 37-31 84-31 25 0 42 13 19 14 19 39 0 29-25 47-23 17-53 17-14 0-24-9-10-9-10-23 0-9 4-20v1q0 2 1-2t3-4q2 1 2 2 0 2-3 9-3 8-3 13 0 13 10 21 10 8 23 8 27 0 46-18 19-18 19-44 0-22-13-33-12-12-34-12-48 0-79 34-31 33-31 82 0 33 22 51 20 16 54 16 6 0 11-1t9-1q57-15 93-57 30-34 53-96-3 0-6 0t-5 0q-33 0-54-18-24-19-24-51 0-57 73-85 52-20 122-20 18 0 31 1t23 4l-1 1h-2q-8 0-15 3-1 1-4 2t-6 5q-17 11-32 25t-26 31q14 11 14 29 0 22-18 41-17 18-39 26-40 142-178 166-9 1-17 1m162-166h3q10-29 24-54t32-46q-6-2-13-2-14 0-27 8-15 10-15 23 0 5 2 8t2 4q0 1-1 1-8-4-8-12 0-16 16-27 14-10 30-10 9 0 18 3 39-46 78-59h-1q-3 0-7 0t-10 0q-5-1-10-1t-7 0q-25 0-49 3t-45 13q-54 20-72 59-7 17-7 34 0 26 21 42 10 7 21 10t25 3m35-7q20-9 34-24 16-18 16-38 0-15-11-24-24 36-39 86m-18 162l-1-1q14-25 28-52t27-54q6-11 13-28t18-38h1q4 2 8 2 11 0 23-9l1-1 0 1h-1q-3 7-13 24t-23 45q41-65 68-65 19 0 19 18 0 14-13 42 11-14 18-24t10-12q21-23 38-23 21 0 21 21 0 16-8 31t-18 32-19 31q-4 8-7 17t-3 16q0 6 4 10t13 5q7 0 14-3t11-6q14-11 23-25t17-28 12-23q2-3 3-2t1 3q-10 21-22 43t-31 35q-6 5-14 8t-16 3q-18 0-26-8t-7-20q0-9 4-22 3-9 7-20t13-22q26-44 26-57 0-8-7-8-21 0-61 65-13 20-24 42t-23 45h-1q-4-1-7-1t-5-1q-15 0-18 11l-2-1q19-33 30-53t15-25q32-61 32-78 0-8-6-8-20 0-61 67-27 44-49 90l-1 0q-6-2-11-2-9 0-14 6-5 7-6 7m135 117q-11 0-21-8-10-8-13-20l0-1 3-1h1q6 23 22 23 20 0 49-32 22-24 38-50 10-16 22-39t27-53q15-32 27-55t21-38q5-10 13-19t16-19q24-26 39-26 10 0 10 9 0 8-10 11l-8 1q-15 1-26 11-7 6-16 17t-21 30q-20 32-31 67 51-96 93-96 30 0 30 38 0 43-33 81-17 19-35 29t-39 11q10 2 19 2 19 0 35-7t31-17q14-11 26-28t22-34q1-3 3-3 3 0 0 5-8 15-17 28t-18 24q-12 12-33 24t-51 13q-8 0-18-2t-16-7q-5-4-6-10t-1-15q-3 10-7 22t-11 27q-6 16-12 27t-9 18q-44 62-95 62m152-131q17 0 42-29 19-22 30-43 20-40 20-67 0-15-12-15-28 0-62 53-16 25-24 44t-7 35q0 22 13 22m172 7q-24 0-34-14t-9-39q0-36 30-75 32-41 66-41 26 0 26 18 0 21-24 45-33 34-70 34-6 15-6 31 0 17 6 26t19 10q13 0 27-8t24-17q9-8 19-23t22-36q2-3 3-3 3 0 0 5-8 17-18 33t-26 30q-9 9-24 16t-31 8m-15-76q28 0 62-29v-1q9-8 18-22 10-15 10-26 0-8-12-8-19 0-46 34-13 15-20 28t-12 24m159 73q-30 0-30-27 0-21 17-48 5-9 30-42 17-22 17-31 0-9-14-9-10 0-21 1t-18 1q-2 8-5 18t-7 22q-2 7-8 19t-13 26q-2 2-3 2 0 0 0-1 0-3 2-7 4-7 9-17t9-23q4-11 7-23t4-17q-12-7-12-22 0-17 12-17 9 0 9 15 0 4-1 9t-3 12q7-1 22-2t30 0q25 0 25 15 0 17-39 68-9 13-19 28t-10 33q0 4 2 8t8 4q22 0 48-26 13-13 24-28t20-33q2-4 3-4 1 0 1 1 0 3-1 6-9 17-21 33t-26 31q-25 25-48 25m166-192q-16 0-16-16 0-17 16-17 16 0 16 16 0 17-16 17m-59 195q-33 0-33-37 0-26 16-56l37-73h2q1 2 6 2 9 0 25-12l1 1-43 83q-26 51-26 71 0 9 5 12t11 4q7 0 14-3t12-7q13-10 22-24t17-28 12-23q2-3 3-2t1 3q-10 21-22 43t-31 35q-6 5-14 8t-15 3m192-4q-26 0-26-36 0-14 5-32-35 68-70 68-16 0-25-17-7-12-7-31 0-16 5-33 8-29 36-55 30-28 58-28 25 0 25 30 0 13-6 30l31-60h1q2 3 7 3 10 0 25-12l1 1-42 83q-26 49-26 75 0 10 9 10 6 0 15-5t18-15q12-14 20-27t21-34q1-3 3-3 3 0 0 5-9 17-20 34t-24 31q-18 18-34 18m-89-4q28 0 72-79 14-25 14-50 0-27-17-27-19 0-43 31-10 13-17 26t-10 24q-11 30-11 54 0 21 12 21m197 7q-41 0-41-54 0-32 14-74 7-20 14-38t16-33q11-19 22-37t25-32q37-47 64-47 11 0 11 11 0 14-12 43-38 95-125 174-8 31-8 50 0 33 20 33 7 0 14-3t11-6q14-11 23-25t17-28 12-23q2-3 3-2t1 3q-10 21-22 43t-31 35q-13 10-28 10m-10-92q10-9 21-21t23-29 26-35 26-42q35-60 35-83 0-9-6-9-18 0-66 80-12 22-22 43-12 27-22 50t-15 46m255 139q-2-1-4-1t-5-2q-26-9-38-28-41-6-66-30-26-25-26-66 0-55 40-95 40-40 95-40 39 0 62 21 11-9 27-22t38-29v-10q0-63 29-63 7 0 13 5 6 5 6 12 0 20-41 56 1 7 5 21t10 35q10 35 10 58 0 65-58 109-54 39-120 39-4 0-9 0t-8-1q10 17 30 24 5 2 7 2 1 0 6-2 4-1 5-1 3 0 3 3 0 5-11 5m129-298q37-33 37-52 0-10-13-10-24 0-24 48 0 3 0 6t0 8m-173 259q30 0 65-18 16-8 30-18t27-21q18-18 25-32 24-47 24-98 0 4-1-11t-3-49q-10 8-26 20t-35 29q17 17 17 42 0 33-24 57-25 24-58 24-19 0-32-9-14 33-14 58 0 7 1 14t4 12m-6 0q-4-10-4-24 0-28 15-64-12-11-12-28 0-6 3-14 4-10 8-10 1 0 2 1-1 3-3 3h1q-7 10-7 21 0 13 9 23 23-50 87-103-22-21-55-21-47 0-86 42-37 41-37 89 0 33 23 58 11 13 25 19t31 8m45-79q27 0 50-24t23-51q0-20-15-37-31 26-52 52t-34 52q12 8 28 8m233 72q-19 0-32-11t-12-35q0-19 7-40t23-41q32-43 67-43 33 0 33 30 0 11-7 24-9 14-19 14-7 0-7-6 0-6 13-16 14-10 14-22 0-17-18-17-18 0-41 27-16 20-27 43-5 10-10 26t-5 31q0 13 6 22t19 9q13 0 27-8t24-17q9-8 19-23t22-36q2-3 3-3 3 0 0 5-8 17-18 33t-26 30q-9 9-24 16t-31 8m144-3q-30 0-30-27 0-21 17-48 5-9 30-42 17-22 17-31 0-9-14-9-10 0-21 1t-18 1q-2 8-5 18t-7 22q-2 7-8 19t-13 26q-2 2-3 2 0 0 0-1 0-3 2-7 4-7 9-17t9-23q4-11 7-23t4-17q-12-7-12-22 0-17 12-17 9 0 9 15 0 4-1 9t-3 12q7-1 22-2t30 0q25 0 25 15 0 17-39 68-9 13-19 28t-10 33q0 4 2 8t8 4q22 0 48-26 13-13 24-28t20-33q2-4 3-4 1 0 1 1 0 3-1 6-9 17-21 33t-26 31q-25 25-48 25m166-192q-16 0-16-16 0-17 16-17 16 0 16 16 0 17-16 17m-59 195q-33 0-33-37 0-26 16-56l37-73h2q1 2 6 2 9 0 25-12l1 1-43 83q-26 51-26 71 0 9 5 12t11 4q7 0 14-3t12-7q13-10 22-24t17-28 12-23q2-3 3-2t1 3q-10 21-22 43t-31 35q-6 5-14 8t-15 3m-68 124q-11 0-21-8-10-8-13-20l0-1 3-1h1q6 23 22 23 20 0 49-32 22-24 38-50 10-16 22-39t27-53q15-32 27-55t21-38q5-10 13-19t16-19q24-26 39-26 10 0 10 9 0 8-10 11l-8 1q-15 1-26 11-7 6-16 17t-21 30q-20 32-31 67 51-96 93-96 30 0 30 38 0 43-33 81-17 19-35 29t-39 11q10 2 19 2 19 0 35-7t31-17q14-11 26-28t22-34q1-3 3-3 3 0 0 5-8 15-17 28t-18 24q-12 12-33 24t-51 13q-8 0-18-2t-16-7q-5-4-6-10t-1-15q-3 10-7 22t-11 27q-6 16-12 27t-9 18q-44 62-95 62m152-131q17 0 42-29 19-22 30-43 20-40 20-67 0-15-12-15-28 0-62 53-16 25-24 44t-7 35q0 22 13 22m159 3q-35 0-35-35 0-27 20-69 1-2 10-18t25-45h-26l-1-1 1-3 0-1h29l36-63q4 2 10 2 7 0 15-5 9-4 12-10l1 1-45 75h35l0 1v3l-1 1h-36l-34 60q-31 53-31 82 0 21 16 21 25 0 51-28 7-8 16-23t16-28q1-3 3-2t1 3q-8 15-16 29t-19 25q-26 28-53 28" />
</svg>