<svg id="fnt-Imprima" viewBox="0 0 1831 1000" xmlns="http://www.w3.org/2000/svg"><path id="imprima" class="f" d="M85 667h-40v-340h40v340m126 0h-38v-200l-5-50 33-3 9 52q15-26 35-41t45-15q61 0 75 63 14-29 36-46t48-17q39 0 59 26t21 79v152h-38v-152q0-71-48-71-20 0-37 15t-27 42-9 61v105h-38v-152q0-71-48-71-20 0-37 14t-26 41-10 58v110m436 112h-38v-312l-5-50 33-3 8 47q14-24 34-38t46-13q46 0 72 34t26 93q0 40-16 71t-43 48-64 18q-13 0-27-3t-26-7v115m53-139q25 0 44-14t30-36 11-53q0-43-18-68t-49-25q-21 0-37 13t-25 39-9 58v72q25 14 53 14m229 27h-38v-200l-5-50 33-3 10 61q14-30 37-47t51-17l2 38q-43 4-67 38t-23 98v82m178 0h-38v-250h38v250m-19-293q-13 0-21-8t-8-21q0-13 8-21t21-8q13 0 21 8t8 21q0 12-8 20t-21 9m145 293h-38v-200l-5-50 33-3 9 52q15-26 35-41t45-15q61 0 75 63 14-29 36-46t48-17q39 0 59 26t21 79v152h-38v-152q0-71-48-71-20 0-37 15t-27 42-9 61v105h-38v-152q0-71-48-71-20 0-37 14t-26 41-10 58v110m476 7q-46 0-72-35t-26-93q0-40 15-71t44-48 64-17q23 0 47 8t44 21v178l5 50-33 2-9-45q-13 24-33 37t-46 13m7-34q32 0 52-32t19-82v-70q-25-12-53-12-25 0-44 13t-30 36-11 53q0 43 18 68t49 26" />
</svg>