<svg id="fnt-Inder" viewBox="0 0 1158 1000" xmlns="http://www.w3.org/2000/svg"><path id="inder" class="f" d="M38 667v-340h49v340h-49m238-214q-36 0-64 24v190h-49v-252h45l3 27q40-31 83-31 45 0 66 27 22 28 22 91v138h-49v-138q0-61-33-72-10-4-24-4m217-11q21-16 47-24t47-7 30 1v-109h49v364h-44l-2-29q-15 19-45 29-12 4-24 4t-24-3-23-8-22-15-19-23q-17-30-17-71t13-67 34-42m29 29q-12 12-19 30t-7 45 7 43 16 27q16 17 40 17 31 0 51-23 5-5 7-10v-150l-5 0q-11-2-27-2t-33 6-30 17m342 200q-138 0-138-135 0-59 38-93 34-32 79-32 48 0 75 32 25 30 25 80v19h-167q0 69 57 85 13 4 41 4t55-8v41q-27 7-65 7m-86-165h116q0-23-13-39-15-19-42-19-28 0-45 18-16 17-16 40m378-93v46q-13-4-32-4t-30 4-21 9q-17 10-24 22v177h-49v-252h47l2 35q18-23 53-35 13-4 29-4t25 2" />
</svg>