<svg id="fnt-Indie Flower" viewBox="0 0 2426 1000" xmlns="http://www.w3.org/2000/svg"><path id="indie-flower" class="f" d="M47 648q-3-18-5-38t-4-40-4-39q-3-21-6-38-1-8-5-20t-7-26-6-28-3-26q6-8 12-3t12 19 11 34 10 44 9 48 7 47 5 39 2 26q0 3 0 6t0 6-3 4-7 4q-2 1-5-2t-6-6-5-7-2-4m51-172q0-4 3-5t7-2q3 0 5 2t1 3 2 4 3 2q7 0 17-6t21-11 24-12 26-6q17 0 31 9t24 23 19 31 13 36 8 36 3 30q0 4-1 13t-2 18-6 15-10 7q-1 0-3-1t-5 0-4-2-2-3q4-38 0-71t-14-58-24-39-30-15q-16 0-29 5t-23 14-15 23-6 29 3 31 7 30 6 31 3 32q-13 0-23-12t-14-28-9-40-5-43-1-40 0-30m225 80q0-18 5-38t15-37 25-28 38-11q11 0 23 3t24 10 26 15 29 18q2-19-2-40t-8-41-11-37-8-32-1-24 12-12q13 10 22 28t17 41 11 50 7 54 5 53 4 48 3 37 5 22q0 8-5 10t-12 2q-5 0-8-4t-5-9-4-11-4-11-4-8-6-4q-1 0-3 0t-2 1q-9 13-21 25t-28 21-31 14-33 6q-19 0-33-13t-23-29-14-36-5-33m31 9q4 17 8 30t10 22 13 12 21 4q15 0 33-9t33-23 25-31 9-32q0-2 0-6t0-6q-26-25-47-36t-39-12-30 8-21 20-12 29-3 30m253-67q0-2 0-8t0-11 0-11 0-7q-2-16 9-16 5 0 9 3t6 7q-2 26 2 49t8 47 9 47 4 49q0 6-4 13t-12 7q-7 0-11-11t-8-28-6-37-4-39-2-34 0-20m-25-123q0-6 3-7t9-2q4-1 9 4t10 11 4 10q0 6-8 7h-2q-7 0-12-1t-8-3-4-7-1-12m91 161q0-26 7-49t22-41 36-28 48-10q16 2 28 9t19 16 11 24q3 12 3 27 0 18-10 32t-26 23-34 15-33 5q-6 0-12 0t-11-2-8-6-3-11q0-3 1-4t4-3 10 0q7 1 19 3 6 0 19-5t27-12 23-17 10-18q0-10-3-20t-10-17-15-11-19-4q-17 2-31 10t-24 20-15 27-5 32q0 13 0 26t4 24 10 24 21 20 34 14 50 7l88-6q-8 11-20 18t-25 11-27 6-25 2q-28 0-53-10t-44-26-30-41-11-54m531 121q-3-13-5-22t-2-15-1-13 0-13-1-16-3-22q-2-10-7-14t-12-4-15 1-14 2-11-3q-4-4-4-13 0-1 2-3t3-1q9-1 17-2t15-2 11-9q4-6 4-18-4-24-3-41t-1-29-9-15q-7-4-25-2-2 0-7 0t-9 0-10 0-7 0q-1 1-4 3t-5 2q-1 0-1 0-1 0-2 0l-1 0h-1q-1-1-2-5t-2-4v-3q7-7 24-12t40-9 52-6 55-2 55 4 48 10 35 18q14 11 15 25-16 0-31-3t-30-9-30-9-32-4q-4 0-12 0t-17-1-20 1-19 3-14 6-5 11q0 7-1 20t-1 26 4 25 10 17q1 0 4 0t5 0 6 0 4 0q36-2 59-1t33 6 7 10-17 10-39 8-59 3q1 22 2 34t2 20 2 11 2 10 3 15 2 28q-7-1-13-1t-10-1-6 0-1-2m182 6q-5-35-6-69t-1-69 1-69 0-69q0-4 3-5t7-1q5 0 8 3t6 8 3 9 2 7q3 70 4 117t0 75-4 42-5 19-8 4-10-2m50-96q0-27 11-47t31-34 43-20 47-6q13 0 24 4t21 13 18 19 13 21 9 23 3 22q0 25-10 45t-26 33-38 20-43 7q-22 0-41-7t-33-20-22-31-7-42m23-4q0 15 6 29t16 24 23 17 30 6q8 1 20-3t24-11 23-17 18-22 9-25-4-25-22-25-45-23q-16 0-33 5t-32 14-23 23-10 33m380 57q-20 26-39 37t-38 9-34-13-27-29-19-40-7-45 6-45 22-39q8 3 9 8 1 5 1 11 0 9-2 16t-3 16-4 16-2 17q0 6 2 16t4 20 7 21 10 19 14 14 16 6q9 0 20-5t22-13 18-18 7-19l3-64q0-1 2-3t4-2 4-3 4-1q7 0 9 9t4 23 3 30 8 29 15 23q10 9 28 9 18-1 29-8t16-19 4-26-4-29-9-27-14-23q-1-4 0-6t3-2 4-1 4-1q8 2 17 13t16 26 10 34 2 37-10 33-27 26q-22 1-35 2t-23-1-14-5-11-7-10-11-15-15m168-84q0-26 8-49t22-41 35-28 48-10q16 2 28 9t20 16 11 24q3 12 3 27 0 18-11 32t-25 23-34 15-34 5q-6 0-12 0t-11-2-8-6-3-11q0-3 1-4t4-3 11 0q6 1 18 3 7 0 20-5t26-12 23-17 10-18q0-10-3-20t-9-17-15-11-20-4q-17 2-31 10t-23 20-15 27-6 32q0 13 1 26t3 24 11 24 20 20 34 14 51 7l87-6q-8 11-20 18t-25 11-27 6-24 2q-29 0-54-10t-44-26-30-41-11-54m303 131q-11-20-19-43t-13-46-9-46-4-40q0-4 0-8t-1-8 2-9 4-6h1q0 0 0-1t1 0 0 0 1 1h1q1 0 5 2t5 2q9-3 18-7t19-8 19-6 19-2q7 0 12 0t11 2 11 3 13 4q4 3 7 5t6 7 4 8 2 13q-8 1-19-2t-21-5-24-6-24-2-21 6q-10 5-18 18-3 14-3 28t4 26 7 26 9 26 8 26 4 26q0 4-5 10t-12 6" />
</svg>