<svg id="fnt-Inika" viewBox="0 0 1208 1000" xmlns="http://www.w3.org/2000/svg"><path id="inika" class="f" d="M122 349l-5 284 42 4q0 14-8 30h-115l-2-18q23-8 46-12-1-32-4-134t-3-157q-20-4-45-12l1-17h125q9 16 9 30-26 2-41 2m242 58q48 0 70 23t21 73q0 14-4 130l42 4q0 14-8 30h-115l-2-18q23-8 45-12-3-131-5-146t-7-25-15-16-27-4q-33 0-64 16-3 114-4 171l42 4q0 14-8 30h-115l-2-18q23-8 45-12-3-127-5-188-27-1-44-6l2-26q27-7 79-7 6 9 9 26 21-12 43-21t27-8m242-42q-13 3-25 3t-24-1q-3-14-3-29t1-21q11-2 23-2t26 1q3 13 3 25t-1 24m-93 79l2-26q43-8 66-8t30 1q0 12-3 27t-3 14l-5 181 42 4q0 14-8 30h-115l-2-18q23-8 45-12-3-125-5-187-29 0-44-6m225-152q15 0 22 1 0 16-7 40-3 132-3 200l81-86-40-4q0-14 8-30h127l2 22q-12 4-42 11l-69 62 85 125 42 4q0 14-9 30h-68l-78-133-39 35q-1 42-1 64l42 4q0 14-9 30h-115l-1-18q23-8 45-12-3-202-5-305-28-2-44-6l2-26q25-8 74-8m429 211l-3 129q22 2 43 7l-1 18q-8 4-29 8t-40 5q-9-18-10-34-57 37-80 37-36 0-57-19t-22-53q0-78 96-81 56-1 57-1l-1-17q-1-35-13-50t-43-15q-13 0-28 6l-12 50q-2 0-8 0l-21-1q-8-22-8-60 9-5 43-15t44-10q51 0 72 22t21 74m-109 136q14 0 67-32l-3-63q-34 3-57 6t-37 13-14 34q0 42 44 42" />
</svg>