<svg id="fnt-Inknut Antiqua" viewBox="0 0 4216 1000" xmlns="http://www.w3.org/2000/svg"><path id="inknut-antiqua" class="f" d="M192 647l-10 20h-152v-16l47-37v-303l-52-17 10-20h152v15l-47 37v303l52 18m372 0l-10 20h-95v-168q0-28-8-39t-31-11q-16 0-33 6t-38 23v152l45 17-10 20h-139v-15l44-35v-142l-44-26v-15l85-42 17 65 71-57q10-4 27-4 34 0 54 21t20 56v156l45 18m135-18l45 18-10 20h-140v-16l45-35v-307l-45-31v-16l86-32h19v399m215 18l-10 20h-85l-94-132 94-79-48-35 10-20h119v16l-116 97 85 115 45 18m354 0l-10 20h-95v-168q0-28-8-39t-31-11q-16 0-33 6t-38 23v152l45 17-10 20h-139v-15l44-35v-142l-44-26v-15l85-42 17 65 71-57q10-4 27-4 34 0 54 21t20 56v156l45 18m345 0l-10 20h-95v-52l-64 53q-10 4-27 4-34 0-54-21t-20-56v-120l-45-26v-15l86-42h19v178q0 27 8 38t31 11q15 0 30-6t36-22v-116l-45-26v-15l86-42h19v237l45 18m238-19l-51 40q-11 4-28 4-41 0-61-22t-19-67v-146h-54v-21l95-110h19v110h90v21h-90v152q0 40 39 40 11 0 20-4t25-16l15 19m582 19l-10 20h-152v-16l47-36-39-93h-168l-41 95 88 30-10 20h-152v-16l47-37 142-324 52-26 146 352 50 31m-163-147l-73-176-76 176h149m510 147l-10 20h-95v-168q0-28-9-39t-30-11q-17 0-33 6t-38 23v152l45 17-10 20h-140v-15l45-35v-142l-45-26v-15l86-42 16 65 71-57q11-4 28-4 34 0 54 21t20 56v156l45 18m233-19l-51 40q-11 4-28 4-41 0-61-22t-19-67v-146h-54v-21l95-110h19v110h90v21h-90v152q0 40 39 40 11 0 20-4t25-16l15 19m184 19l-10 20h-139v-16l44-35v-146l-44-31v-15l85-32h19v237l45 18m-77-405q15 0 25 11t10 27q0 12-7 22t-18 16-20 6q-15 0-25-11t-10-27q0-12 7-22t18-16 20-6m435 532l-10 20h-165v-15l70-37v-111l-47 37q-16 4-38 4-33 0-60-17t-41-47-14-65q0-38 23-72t59-54 68-20q39 0 66 29l25-35h19v365l45 18m-165-144q15 0 29-5t31-16v-114q-3-25-24-41t-55-15q-56 0-56 80 0 47 19 79t56 32m509 17l-10 20h-95v-52l-63 53q-11 4-28 4-34 0-54-21t-20-56v-120l-44-26v-15l85-42h19v178q0 27 9 38t30 11q16 0 31-6t35-22v-116l-44-26v-15l85-42h19v237l45 18m316 0l-10 20h-95v-44l-57 45q-10 4-25 4-43 0-62-22t-19-51q0-18 13-36t37-33h113v-32q0-32-18-46t-47-13q-31 0-76 37l-15-19 72-57q20-4 48-4 46 0 71 22t25 65v146l45 18m-171-18q31 0 66-28v-50h-89q-6 8-9 16t-3 17q0 19 10 32t25 13" />
</svg>