<svg id="fnt-Inria Serif" viewBox="0 0 2352 1000" xmlns="http://www.w3.org/2000/svg"><path id="inria-serif" class="f" d="M52 343l-28-3v-13h121v13l-28 3q-8 1-9 4t-2 20v259q0 18 2 21t9 4l28 3v13h-121v-13l28-3q8-1 9-4t2-21v-259q0-17-2-20t-9-4m386 308l28 3v13h-118v-13l27-3q8-1 10-4t1-21v-124q0-37-12-53t-34-15q-17 0-37 10t-37 39v143q0 18 1 21t10 4l27 3v13h-118v-13l28-3q8-1 9-4t2-21v-166q0-18-2-21t-9-4l-28-2v-14h77v41q18-24 41-35t46-11q37 0 57 23t20 64v125q0 18 2 21t9 4m84-216l-27-2v-14h77v40q17-23 35-34t36-11q16 0 30 10t24 30l-33 20q-7-18-17-25t-21-7q-12 0-25 8t-27 30v146q0 18 2 21t9 4l38 3v13h-128v-13l27-3q8-1 10-4t1-21v-166q0-18-1-21t-10-4m251-72q-12 0-20-8t-8-20q0-12 8-19t20-8 19 8 8 19q0 13-8 20t-19 8m-31 72l-28-2v-14h80v207q0 18 1 21t10 4l27 3v13h-118v-13l28-3q8-1 9-4t2-21v-166q0-18-2-21t-9-4m328 235q-39 0-46-36-18 20-39 29t-41 9q-35 0-52-20t-16-47q0-29 20-47t70-17h57v-40q0-40-14-56t-37-15q-15 0-27 6t-18 22-1 46l-39-6q-3-24 6-43t29-30 51-11q36 0 56 12t27 32 8 43v112q0 26 5 32t13 7q5 0 10-3t11-7l9 13q-8 6-18 11t-24 4m-112-19q14 0 30-8t35-31v-55h-51q-28 0-41 11t-13 35q0 23 10 35t30 13m407 5q33 0 54-17t21-48q0-26-16-43t-54-28l-34-10q-38-10-58-35t-20-61q0-24 11-45t34-34 60-13q40 0 64 14t34 39 5 50l-42 9q6-46-10-71t-54-25q-30 0-48 16t-17 47q0 25 14 42t49 27l35 10q83 23 83 98 0 26-12 47t-37 34-62 13q-26 0-50-8t-41-28-22-54l30-10q3 33 15 51t30 25 38 8m343-54l26 8q-9 34-34 48t-54 14q-56 0-83-34t-28-90v-10q0-56 27-90t77-34q27 0 49 11t35 33 14 53q0 15-3 32h-154v15q0 52 16 75t53 23q23 0 38-12t21-42m-69-172q-30 0-44 23t-15 74h113v-2q1-6 1-13t1-11q0-37-16-54t-40-17m172 5l-27-2v-14h77v40q17-23 35-34t36-11q16 0 30 10t24 30l-33 20q-7-18-17-25t-21-7q-12 0-25 8t-27 30v146q0 18 2 21t9 4l38 3v13h-128v-13l27-3q8-1 10-4t1-21v-166q0-18-1-21t-10-4m251-72q-12 0-20-8t-8-20q0-12 8-19t20-8 19 8 8 19q0 13-8 20t-19 8m-31 72l-28-2v-14h80v207q0 18 1 21t10 4l27 3v13h-118v-13l28-3q8-1 9-4t2-21v-166q0-18-2-21t-9-4m212 216l38 3v13h-128v-13l27-3q8-1 10-4t1-21v-166q0-18-1-21t-10-4l-27-2v-14h38v-36q0-23 7-44t26-34 49-13q42 0 62 22t14 55l-39 6q5-35-5-51t-32-16q-13 0-22 5t-14 21-5 42v43h80v16h-80v191q0 18 2 21t9 4" />
</svg>