<svg id="fnt-Inria Sans" viewBox="0 0 2084 1000" xmlns="http://www.w3.org/2000/svg"><path id="inria-sans" class="f" d="M97 327v340h-44v-340h44m216 126q-14 0-33 7t-45 28v179h-41v-248h39v35q27-23 48-31t42-9q35 0 53 22t18 62v169h-41v-163q0-51-40-51m297-39v41q-23 0-44 8t-45 31v173h-41v-248h39v40q25-25 46-35t45-10m97-101v46h-46v-46h46m-3 106v248h-41v-248h41m277 250h-7q-23 0-37-10t-19-26q-25 21-45 30t-40 9q-32 0-48-21t-15-52q0-20 7-36t26-26 48-9q14 0 30 2t32 4v-33q0-28-12-39t-36-10q-32 0-71 18l-13-34q23-11 44-16t42-6q35 0 54 12t25 30 7 42v107q0 11 5 19t18 8h5v37m-171-70q0 17 8 27t23 11q13 0 30-8t42-31v-32q-34-5-60-5-23 0-33 9t-10 29m417 34q31 0 48-14t17-40q0-22-12-37t-38-23l-40-12q-38-12-56-35t-18-57q0-26 10-47t33-34 60-12q22 0 46 5t49 17l-14 37q-24-10-44-15t-36-5q-29 0-45 12t-15 39q0 19 10 32t38 22l40 12q76 23 76 97 0 43-26 70t-83 27q-24 0-50-6t-54-18l13-37q27 12 48 17t43 5m363 36h-8q-23 0-37-10t-19-26q-24 21-44 30t-40 9q-33 0-48-21t-16-52q0-20 8-36t25-26 49-9q13 0 29 2t33 4v-33q0-28-13-39t-35-10q-32 0-72 18l-13-34q23-11 44-16t43-6q35 0 53 12t26 30 7 42v107q0 11 4 19t18 8h6v37m-171-70q0 17 8 27t23 11q13 0 30-8t42-31v-32q-34-5-60-5-23 0-33 9t-10 29m348-146q-14 0-33 7t-45 28v179h-41v-248h39v35q26-23 48-31t42-9q34 0 52 22t19 62v169h-41v-163q0-51-40-51m227 182q50 0 50-34 0-14-9-23t-33-14l-28-7q-30-8-45-27t-15-44q0-19 8-36t27-26 48-10q19 0 39 4t40 15l-13 34q-36-16-66-16-43 0-43 32 0 13 8 22t30 14l27 7q33 8 49 26t15 47q0 20-9 37t-28 26-51 10q-22 0-43-5t-44-14l11-34q22 8 39 12t36 4" />
</svg>