<svg id="fnt-Inter" viewBox="0 0 1074 1000" xmlns="http://www.w3.org/2000/svg"><path id="inter" class="f" d="M44 303h44v364h-44v-364m168 200v164h-42v-273h41v43h3q10-21 30-34t50-13q28 0 49 12t32 34 11 57v174h-42v-171q0-32-16-50t-46-18q-20 0-36 9t-25 25-9 41m228-109h142v35h-142v-35m42 206v-271h41v260q0 17 6 26t13 12 18 3q7 0 11-1t7-1l9 37q-5 2-12 4t-20 1q-17 0-34-7t-28-24-11-39m277 72q-39 0-68-17t-44-49-15-74 15-74 43-50 65-18q21 0 42 7t38 23 27 42 10 65v17h-210v-36h168q0-23-10-41t-26-29-39-10q-25 0-43 12t-28 32-10 43v24q0 31 11 52t30 33 44 11q17 0 30-5t23-14 15-24l41 11q-6 21-22 37t-37 24-50 8m219-5h-42v-273h41v41h2q8-20 27-33t44-12q5 0 12 0t10 0v43q-2-1-9-2t-16-1q-20 0-36 8t-24 23-9 33v173" />
</svg>