<svg id="fnt-Irish Grover" viewBox="0 0 2700 1000" xmlns="http://www.w3.org/2000/svg"><path id="irish-grover" class="f" d="M5 330q16 2 28 3t19 2q9 1 13 1 6 0 17-1 9-1 25-2t40-5q-11 10-17 19t-10 16q-5 8-6 16-2 11-3 32t-2 44-1 49 1 48 3 40 5 26q5 9 10 17 5 8 12 16t16 12q-29-1-46-1h-18q-8 0-20 1-10 1-26 2t-37 3q11-13 17-24t11-19q4-10 6-19 1-13 3-31t1-41 1-44-2-44-2-38-4-27q-2-7-6-15-4-6-11-16t-17-20m155 103q9 0 17 0t12-1q7 0 12-1 7-1 15-2 7-1 14-3t15-4q-3 7-5 13t-3 9q-1 4-1 7-1 4-1 9 0 8 0 26 26-21 43-34t28-19q12-8 19-10 18-3 31 8 6 5 12 13t9 21 6 32 0 44q-10 1-18 2t-13 1q-7 1-12 1l-13 2q-7 1-17 1t-24 2q20-16 26-29t5-20q-1-10-8-16-10-6-20-4-10 1-22 8t-26 27q1 32 2 52t3 33q1 15 2 23 2 7 6 16 3 7 10 15t16 17q-21-1-35 0-8 0-15 1-6 0-14 1-7 1-16 3t-20 2q4-5 7-12t3-14q2-7 3-15 1-7 1-20t0-31-2-36-3-36-3-29-3-17q-3-6-6-12-3-5-8-11t-9-13m244 15l90 1q-8 30-12 51t-4 35q-2 16-1 28 1 10 4 22 3 9 9 22t16 25q-6-1-13-2t-13-2q-6 0-13 0t-15 2q-7 1-17 2t-20 4q7-22 11-38t6-27q2-13 3-21 0-9 0-22t0-24-1-21-2-11l-5-5q-3-2-8-7t-15-12m34-75q11-5 21-3t17 10 4 16-16 18q-14 8-25 6t-15-11-2-18 16-18m301 15q-5 11-8 19t-5 16q-3 8-5 14-2 7-4 15-3 8-6 20t-9 27q-4-24-14-38t-21-21q-13-9-27-13-27-4-38 1t-16 14q-2 3-4 8t-4 11 0 10 4 9q2 3 13 7t24 9 31 11 31 12 26 11 14 11q3 5 6 13t6 18 1 19-6 20-15 18-28 14q-21 6-40 3t-35-9-27-11-17-5q-5 1-12 6t-13 9-11 8-4 3 2-6 3-12 5-16 3-16q1-7 3-16 0-8 2-20t4-29q3 13 7 22t9 16q6 8 11 13 7 7 17 13t20 10 20 5 15-2 11-11 7-17 2-18-5-14q-3-3-13-8t-25-12-30-13-30-14-23-14-10-12q-1-8-2-17t2-19 6-18 16-15q7-4 18-6t25-2 28 1 28 3 25 4 16 4q7 3 15 1 7-2 15-7t16-17m15-91q11 1 20 2t16 1q7 1 13 1 7-1 17-2 8-1 20-2t28-4q-8 4-13 8t-7 7q-4 5-6 9-2 6-5 26-3 17-7 51t-11 91q18-18 34-27t28-13q14-4 26-4 15 2 31 10t30 18 24 23 15 22q3 6 3 16t-2 22-5 24-7 23-5 19-3 11q-1 7 1 14 1 6 6 13t13 11q-7-1-15-2t-14-1q-8-1-16-1h-17q-8 0-19 0t-24 1q7-2 12-6t8-8q4-5 7-10 2-4 5-15t5-25 4-31 1-31-5-26-11-17q-22-17-40-17t-34 15q-5 5-11 11-5 4-11 11t-10 13q0 8 0 17t1 17q1 9 2 18 1 14 3 28 1 12 4 26t6 25q-6-1-13-1t-13 0q-8 1-15 1-6 0-13 1-6 1-13 2t-13 2q6-11 10-22t6-19q3-10 5-19 2-8 2-28t2-48 0-58 0-57-2-48-3-28q-2-8-5-16-3-7-8-13t-12-11m624 17q32 0 52 11t33 28 19 33 11 25q1 3 4 7 3 3 7 8t12 10q-15 1-27 1t-20 1q-9 0-16 1t-18 1q-10 1-24 2t-35 3q12-15 19-26t11-21 4-16 0-11q-3-11-15-16-36-10-62 15t-37 82q-5 29-10 59t-4 56 10 41 30 14q21-1 36-7t23-15 13-18 2-19q-1-7-10-15-7-6-22-15t-42-18q26-1 43-2t27-2q11-1 18-1 6-1 17-1 10-1 25-1t39 0q-9 9-14 16-2 4-4 7-2 5-2 20 0 13 2 37t7 67l-64 9 2-66q-11 27-28 40t-32 19q-18 6-37 6-26-3-51-12t-45-29-30-50-7-76q5-45 22-79t43-57 59-33 66-13m133 119q10 0 17 0t13-1q6 0 11-1 8-1 15-2 7-1 15-3t15-4q-3 7-5 13t-3 9q-2 4-2 7 0 4 0 9-1 8 0 26 25-21 43-34t27-19q12-8 19-10 18-3 32 8 6 5 11 13t10 21 5 32 1 44q-10 1-18 2t-14 1q-6 1-12 1l-13 2q-7 1-17 1t-24 2q21-16 27-29t5-20q-1-10-9-16-9-6-20-4-9 1-21 8t-26 27q1 32 2 52t2 33q2 15 3 23 1 7 5 16 4 7 10 15t17 17q-22-1-35 0-9 0-15 1-7 0-15 1-6 1-15 3t-20 2q4-5 6-12t4-14q2-7 3-15 0-7 1-20t-1-31-2-36-2-36-3-29-4-17q-2-6-6-12-3-5-7-11t-10-13m375 15q13 0 27 5t26 11 23 15 17 16q13 13 17 35t2 46-14 43-29 31q-14 6-27 10t-26 6-23 2-18 0q-15-1-31-11t-29-23-24-30-12-31q-3-20-1-42t15-40 38-31 69-12m-16 189q5 1 15-2t18-12 16-22 9-31q1-18 0-33t-5-27-7-19-10-10q-8-4-20-7t-20 1q-4 2-10 9t-11 15-11 22-6 26-1 28 6 28 14 23 23 11m104-239q8 1 17 2t15 1q8 1 15 1t17-1q8 0 19-1t24-3q-8 4-12 9t-7 9q-3 5-4 8t1 17 4 28 6 34 7 32 7 24 5 10q2 0 6-10t10-24 11-32 10-33 7-25 2-13q-1-2-3-5-4-5-15-19 14 1 24 2t17 2q7 1 11 1t13 0q7 0 18 0t29-3q-13 7-21 13t-12 9q-6 5-8 9-3 6-12 30-4 10-10 25t-13 37-18 49-23 65l-47 5q-9-31-15-51t-9-34q-4-15-6-23-2-9-6-27t-7-36-6-34-6-18q-2-3-7-7-3-4-10-9t-18-14m356 190q14 0 25-3 10-2 19-8t12-17q10 2 17 3t12 3q5 1 9 2 4 1 9 1 5 1 12 3t17 3q-7-1-15 1t-14 6q-8 3-15 8-4 3-10 9t-16 11-27 9-43 3q-32-1-53-12t-35-26-19-33-7-34 10-32 27-32 44-23 55-9q18 0 33 4t27 11 22 16 15 17q7 9 11 19 4 9 6 20t2 23q-37 1-60 2t-35 0h-22-17q-9 0-23 1t-34 1q2 20 12 30t21 16q13 6 28 7m-44-88q16 1 26 2t18 1q7 0 11 0h13q12 0 45-1-2-22-9-33t-16-17q-10-6-21-7-32 1-48 14t-19 41m189-67q9 0 16 0t13-1q7 0 12-1 7-1 15-2 7-1 14-3t15-4q-3 7-5 13t-3 9q-1 4-1 7-1 4-1 9 0 8 0 26 26-21 43-34t28-19q12-8 19-10 18-3 31 8 6 5 12 13t9 21 6 32 0 44q-10 1-18 2t-13 1q-7 1-12 1l-13 2q-7 1-17 1t-24 2q20-16 26-29t5-20q-1-10-8-16-10-6-20-4-10 1-22 8t-26 27q1 32 2 52t3 33q1 15 2 23 1 7 6 16 3 7 10 15t16 17q-21-1-35 0-8 0-15 1-6 0-14 1-7 1-16 3t-20 2q4-5 6-12t4-14q2-7 3-15 1-7 1-20t0-31-2-36-3-36-3-29-3-17q-3-6-6-12-3-5-8-11t-9-13" />
</svg>