<svg id="fnt-Jacques Francois" viewBox="0 0 3904 1000" xmlns="http://www.w3.org/2000/svg"><path id="jacques-francois" class="f" d="M36 308q55 2 87 2 29 0 85-2 0 4 0 5 0 3 0 6-12 1-19 2t-17 4-16 7-5 11q0 16-1 74t-1 110q0 41-1 67t-3 57-7 51-13 39-19 31-27 18-37 7q-35 0-55-18t-19-41q0-20 10-31t29-11q14 0 24 8t11 23q0 8-5 14t-9 10-9 6-4 3q0 9 7 15t20 6q14 0 23-5t15-14 10-26 4-36 1-47q0-241-2-310-1-7-6-11t-16-7-17-4-18-2q-1-4-1-6 0-2 1-5m226 198q0-27 25-44t58-17q41 0 58 16t16 55v102q0 13 10 13 9 0 21-19 9 0 12 8-2 2-6 8t-6 9-6 9-7 8-7 6-8 6-8 3-9 1q-12 0-20-9t-10-27q0 0-7 7t-10 9-11 8-13 9-13 4-16 3q-13 0-22-4t-15-8-9-11-4-12-2-11q0-16 6-28t20-21 37-17 59-17v-34q0-25-10-37t-30-12q-16 0-27 7t-14 15q24 3 24 26 0 10-7 18t-20 8q-11 0-20-8t-9-22m113 106v-51q-22 5-37 11t-22 13-11 14-3 18q0 12 8 19t17 7q25 0 48-31m315-9q6 1 9 6-12 32-37 48t-56 17q-15 0-29-4t-28-12-23-22-16-31-6-42q0-53 33-86t81-32q34 0 56 14t21 38q0 13-8 22t-21 8q-13 0-21-7t-9-18q0-19 19-24-1-5-11-11t-26-6q-9 0-17 2t-16 8-16 18-10 30-4 44q0 17 3 31t12 25 20 18 31 6q12 0 22-3t16-6 13-11 10-10 8-10m261 160q0 4 2 8t5 6 6 4 8 3 8 1 7 2q2 3 2 6t-2 5q-37-1-62-1-32 0-77 1-1-4-1-5 0-1 1-6 8-1 12-1t12-2 12-3 10-4 8-6 2-8q1-24 1-108v-25q-41 44-76 44-37 0-61-29t-24-77q0-17 4-33t13-34 22-28 34-21 45-7q15 0 43 7t36 9q6 2 8 8 0 240 2 294m-98-121q23 0 52-31 0-48 0-119-17-31-52-31-7 0-14 2t-16 9-15 16-10 29-4 42q0 36 15 59t44 24m155-192q9 1 18 1t14 1 9 0q4 0 9 0t13-1 16-1q5 2 7 8 0 2 0 5t-1 9-1 13l0 116q0 44 26 44 25 0 70-32 0-73-2-128 0-4-1-8t-6-5-6-4-8-3-8-2-7-1q-1-4-1-6 0-2 1-6 8 1 17 1t14 1 10 0q4 0 8 0t14-1 16-1q1 1 2 1t2 2 0 1 1 2 1 2q-2 13-2 27-2 36-2 59 0 11 1 39t0 48q14 8 47 10 2 6 2 7 0 1-2 5-46 4-82 20-7-3-9-7v-38q-24 21-46 33t-43 13q-28 0-40-16t-12-49l-2-124q0-5-2-8t-5-5-6-4-9-3-7-2-8-1q-1-4-1-6 0-2 1-6m500 87h-133q-1 15-1 26 1 37 21 58t55 22q9 0 17-2t14-5 10-7 9-9 7-9 5-8q6 1 10 6-12 32-38 48t-56 17q-14 0-28-4t-28-12-23-22-15-31-6-42q0-51 31-85t78-33q20 0 35 5t23 16 13 21 4 25q0 12-4 25m-77-76q-17 0-32 14t-22 46h88q3-10 3-16 0-20-9-32t-28-12m224 213q-12 0-22-2t-15-4-14-7q-9 0-28 7-3-2-4-4 1-4 3-27t2-40q3-2 11-2 5 14 9 24t12 20 19 14 24 5q21 0 33-11t12-25q0-11-3-18t-15-16-34-16q-14-5-23-9t-20-10-16-13-10-15-4-20q0-8 2-15t7-16 13-15 21-10 30-4q7 0 12 0t13 3 8 2q6-1 11-3t7-2h6q6 35 15 60-3 3-9 3-20-25-35-36t-32-11q-14 0-25 6t-11 19q0 17 13 26t49 24q16 6 26 11t18 10 14 13 8 15 3 21q0 26-24 47t-57 21m255-366q41 2 85 2h28q18-1 62-1t75 0 62-1q2 17 8 35t12 30 16 28q-2 4-9 6-9-16-21-29t-32-25-47-19-64-9h-62q-3 105-3 159h70q6 0 11-1t10-4 9-5 7-8 7-9 6-10 5-12 6-13 6-13q9 4 10 6-15 38-15 77 0 38 15 76-2 4-10 7-15-36-22-48-19-28-45-28h-70q0 53 3 134 0 7 5 11t16 7 17 4 18 2q1 5 1 6 0 2-1 5-41-1-85-1-44 0-85 1-1-3-1-5 0-1 1-6 8-1 12-2t12-1 12-3 10-4 8-6 3-8q3-76 3-154 0-79-3-136 0-7-5-11t-16-7-17-3-18-2q-1-5-1-6 0-2 1-6m366 158q47-5 83-20 6 2 8 6v42q9-17 27-33t38-16q14 0 23 8t10 24q0 15-9 23t-21 8q-12 0-20-8t-9-20q-10 4-23 19t-16 30q0 55 2 104 0 7 5 11t13 7 14 4 15 2q1 3 1 6 0 2-1 5-37-1-73-1-30 0-62 1-1-4-1-5 0-1 1-6 8-1 13-2t13-4 11-7 5-11q0-24 0-58 0-12 0-39t0-49q-14-8-47-10-1-4-1-6 0-1 1-5m243 40q0-27 24-44t58-17q41 0 58 16t17 55v102q0 13 10 13 8 0 20-19 9 0 12 8-2 2-6 8t-6 9-6 9-7 8-7 6-7 6-9 3-9 1q-12 0-20-9t-9-27q-1 0-8 7t-10 9-11 8-13 9-13 4-16 3q-12 0-22-4t-15-8-9-11-4-12-1-11q0-16 5-28t21-21 37-17 59-17v-34q0-25-11-37t-29-12q-17 0-28 7t-13 15q23 3 23 26 0 10-7 18t-20 8q-11 0-20-8t-8-22m113 106v-51q-23 5-38 11t-22 13-10 14-3 18q0 12 7 19t17 7q25 0 49-31m246 45q2 3 2 6 0 2-2 5-32-1-62-1-30 0-62 1-1-4-1-5 0-1 1-6 8-1 13-2t13-4 11-7 4-11q1-24 1-58 0-12 0-39t0-49q-14-8-47-10-1-4-1-6 0-1 1-5 47-5 83-20 6 2 8 6v39q24-21 45-34t44-12q28 0 40 15t12 49l2 124q1 7 4 11t10 7 12 4 11 2q1 5 1 6 0 2-1 5-31-1-58-1-26 0-57 1-1-4-1-6 0-1 1-5 6-1 10-2t10-4 8-7 3-11l1-116q0-44-27-44-25 0-70 33 0 71 2 127 0 7 4 11t10 7 11 4 11 2m371-54q6 1 10 6-13 32-38 48t-56 17q-15 0-29-4t-27-12-24-22-16-31-6-42q0-53 33-86t81-32q34 0 56 14t21 38q0 13-8 22t-21 8q-13 0-21-7t-8-18q0-19 18-24-1-5-11-11t-26-6q-9 0-17 2t-16 8-15 18-11 30-4 44q0 17 4 31t11 25 20 18 31 6q12 0 22-3t16-6 13-11 10-10 8-10m159-158q25 0 44 8t33 24 21 36 7 46q0 51-28 83-28 32-77 32-23 0-43-9t-33-23-21-37-8-46q0-25 8-46t21-36 33-24 43-8m0 16q-24 0-39 24-15 24-15 74t15 75 39 24 40-25 15-74q0-25-4-43t-11-31-17-18-23-6m154 5q47-5 83-20 6 2 8 6 0 127 2 181 0 7 4 11t10 7 11 4 11 2q2 3 2 6t-2 5q-32-1-62-1-30 0-62 1-1-4-1-5 0-1 1-6 8-1 13-2t13-4 11-7 4-11q1-24 1-58 0-12 0-39t0-49q-14-8-47-10-1-4-1-6 0-1 1-5m38-102q0-13 9-22t21-8q13 0 22 8t8 22q0 12-8 21t-22 9q-12 0-21-9t-9-21m221 310q-12 0-22-2t-14-4-14-7q-10 0-29 7-3-2-4-4 1-4 3-27t2-40q3-2 11-2 5 14 10 24t12 20 18 14 24 5q21 0 33-11t13-25q0-11-4-18t-15-16-34-16q-14-5-23-9t-20-10-16-13-10-15-4-20q0-8 2-15t7-16 13-15 21-10 31-4q6 0 12 0t12 3 8 2q6-1 12-3t6-2h6q6 35 16 60-3 3-10 3-20-25-35-36t-32-11q-14 0-25 6t-11 19q0 17 14 26t48 24q16 6 26 11t19 10 14 13 7 15 3 21q0 26-24 47t-57 21" />
</svg>