<svg id="fnt-Jacques Francois Shadow" viewBox="0 0 6391 1000" xmlns="http://www.w3.org/2000/svg"><path id="jacques-francois-shadow" class="f" d="M137 479q0-60 3-136 0-19 81-24 2-4 0-11-64 2-99 2-30 0-85-2-3 4 0 11 56 6 56 24 2 57 2 136v174q0 71-10 100t-43 28q-23 0-36-13t-12-29q0-13 6-20t16-8q8 0 15 6 6-1 8-8-9-13-27-13t-28 11-11 31q0 24 18 41t51 18q14 0 25-3t20-10 16-15 12-23 9-28 6-35 4-41 2-48 1-54 0-61m-88 328q-42 0-64-20t-22-49q-1-25 14-39t34-14q19 0 32 13t14 34q0 10-3 16t-7 10-4 6q2 4 9 6 21-4 27-31t6-86v-174q0-78-2-136 0-9-54-14-5-16 1-32 43 3 109 3 10 0 40-1t52 0q5 14 1 30-54 5-55 14-2 61-2 154 0 40-1 70t-5 64-8 58-15 48-23 38-32 23-42 9m279-318q11 2 18 9t7 18q0 13-9 21t-22 9q-15 0-27-11t-11-29q0-32 30-52t80-19q46 0 65 18t19 63v86l16-1q20 2 27 19l-7 14q-8 11-13 17t-14 14-22 12-29 3q-20 0-31-15-26 19-69 19-18 0-31-6t-19-15-9-18-2-17q0-36 24-54t97-36v-27q0-19-8-28t-21-9q-27 0-39 15m78 72v51q-23 31-47 31-15 0-23-7t-9-19q0-20 16-33t63-23m-10 48v-30q-35 13-35 38 0 10 8 14 13-4 27-22m-74-85q-9 0-12-12-5-20 12-35 16-15 50-15 15 0 25 12t9 37v34q-72 19-96 35t-25 48q0 17 11 31t40 15q12 0 22-4t21-12 13-10 8-8 6-6q4 36 30 36 7 0 15-3t17-14 11-13 7-11 7-9q-3-7-12-8-13 20-27 20-10-1-10-14v-102q0-39-16-55t-52-16q-33 0-58 17t-25 44q0 14 9 22t20 8q3-5 0-12m414-27q0 15-13 19-3 6 0 11 13 0 21-8t9-22q0-23-22-38t-56-14q-48 0-81 32t-32 86q0 55 30 83t71 28q30 0 56-17t38-48q-4-4-10-6-6 9-10 13t-13 12-21 12-24 3q-38 0-56-22t-18-58q0-102 70-102 28 0 44 9t17 27m7 97q16 2 25 13-14 38-43 57t-62 20q-44 0-78-31t-33-90q0-57 35-93t88-35q39 0 63 17t25 45q0 17-12 27t-28 10q-30 0-30-27 0-17 21-24-14-10-29-11-45 6-45 91 0 64 47 70 29-4 56-39m193 48q-32 0-49-24t-17-59q0-29 7-50t18-31 21-13 21-4q34 0 51 31 0 71 1 119-30 31-53 31m52 121q-1 18-42 24-2 6 0 12 70-2 140 0 2-6 0-12-58-6-59-24-2-54-2-293 0-6-7-9-37-16-73-16-30 0-54 11t-37 30-20 40-6 42q0 49 23 77t62 29q34 0 76-44 0 109-1 133m74 0q0 11 33 15 4 15 0 29-79-2-158 0-4-14 0-29 40-4 41-15 1-24 1-96-25 17-59 17-48 0-75-31t-27-85q0-23 7-46t21-42 42-33 63-12q53 0 94 16 11 4 15 17 0 243 2 295m-84-268q-11-20-31-23-17 3-30 23t-12 64q0 28 10 47t29 25q15-4 35-24-1-47-1-112m312 113q2-61 0-123 0-8-37-14-5-15 0-30h106q6 3 10 6t5 9q0 5-1 14t-1 15q-3 81 0 140 17 6 37 7 5 14 0 31-32 2-79 22-27-2-40-16v-7q-33 22-79 22-34 0-47-18t-15-57q1-61 0-124 0-8-37-14-5-15 0-30h106q7 3 10 6t6 9q0 5-2 14t-1 15q-2 57 0 116 1 28 10 33 18-5 49-26m10-123q2 64 0 128-45 32-70 32-33 0-33-44-2-59 0-116 0-6 1-16t1-11q-2-6-7-8-36 3-72 0-2 6 0 12 39 6 39 23 1 62 0 124 0 33 12 49t40 16q37 0 89-46v36q2 4 9 6 35-13 90-17 2-6 0-12-42-1-62-10-2-87 0-146 0-6 1-16t2-11q-3-6-7-8-36 2-72 0-2 6 0 12 39 6 39 23m266-24q20 0 28 12t9 32q0 7-2 16h-95q7-31 24-46t36-14m-63 76h133q4-12 4-25 0-28-16-48t-52-19q-46 0-77 33t-32 85q0 55 30 83t71 28q30 0 56-17t37-48q-3-4-9-6-1 2-6 8t-7 9-8 8-11 8-13 5-18 2q-37 0-60-22t-23-60q0-9 1-24m141 55q15 3 25 15-14 38-43 57t-62 20q-45 0-78-31t-33-90q0-54 34-91t95-37q93 0 93 77 0 15-7 35h-131v16q1 30 16 48t41 22q15-2 25-11t25-30m-51-87q0-27-18-33-21 7-32 39h50q0-1 0-3t0-3m167 165q-11 3-23 9-11-7-15-14 1-2 2-10t2-20 2-24 0-21q12-5 36-5 2 0 5 0t6 0q17 57 48 62 12-2 19-9t7-16q0-7-4-13t-10-10-14-9-17-8-19-8-17-8q-9-4-18-10t-14-14-9-17-4-20q0-11 4-24t13-23 26-17 41-6q27 0 40 3l9-3h16q3 20 8 39t10 33q-10 11-25 11-9-10-16-18t-13-14-13-9-13-5q-16 2-16 14 0 10 8 17t21 13 27 11 28 11q10 4 18 11t15 15 10 19 4 23q0 18-9 33t-25 24-34 15-39 6q-35 0-58-14m56 4q31 0 52-18t22-41q0-22-13-38t-33-25-38-16-33-17-13-24q0-17 12-26t30-8q18 0 32 11t35 36q7 0 10-3-9-26-27-43t-45-17q-40 0-57 18t-17 42q0 20 13 33t32 22 36 14 32 19 13 29q0 14-12 25t-34 11q-26 0-40-17t-23-46q-9 0-12 2 0 17-1 40t-4 27q2 2 5 4 10-7 15-15 22 12 34 16t29 5m455-164h-34q0 58 3 123 0 2 1 3t4 2 7 4 23 4 20 3q4 13-2 30-90-2-109-2-13 0-92 2-6-17 0-32 53-5 53-14 3-61 3-154 0-78-2-136-1-9-55-14-4-17 1-32 75 3 100 3h226q6 48 38 101-6 11-26 19-20-37-59-61t-101-24h-30q-3 87-3 134 12 1 35 1 20 0 32-14t27-43l11-21q20 8 26 19-26 47-26 77 0 32 26 76-6 13-25 19-6-7-13-23-10-16-16-25t-17-16-26-9m-71-14l69-1q11 0 20 4t15 7 13 13 10 15 10 18 10 19q7-3 9-7-24-43-24-76 0-15 7-37t17-40q-1-3-9-6-2 3-8 14t-7 15-7 12-9 12-9 8-10 8-13 4-15 2q-45 0-69-1 0-59 3-154h67q120 0 164 82 7-2 9-6-25-50-55-71t-90-20h-113q-31 0-86-2v11q56 6 57 24 2 57 2 136 0 78-3 154 0 18-56 24-2 4 0 11 41-1 85-1 52 0 100 1 2-4 0-11-81-5-82-24-2-57-2-137m376 33q6-22 25-44t39-21q23 0 23 15 0 14-13 17-3 5 0 12 13 0 22-8t8-23q0-15-9-24t-24-8q-19 0-38 15t-33 34v-42q-2-4-9-6-32 15-75 20-2 6 0 11 33 2 47 10 2 91-1 146 0 18-41 24-4 6 0 11 64-3 139 0 4-5 0-11-58-6-58-24-2-49-2-104m36 104q1 9 33 15 8 16-1 31-103-4-156-2-9-14-1-29 41-6 41-15 3-70 1-140-16-5-45-6-5-15 0-31 41-3 87-22 26 3 39 16 21-15 37-15 19 0 31 11t12 31q0 19-11 30t-29 11q-16 0-27-11-10 13-13 24 0 53 2 102m180-144q12 2 19 9t6 18q0 13-8 21t-23 9q-14 0-26-11t-11-29q0-32 30-52t79-19q47 0 66 18t19 63v86l15-1q21 2 28 19l-7 14q-8 11-13 17t-14 14-22 12-29 3q-21 0-31-15-26 19-69 19-19 0-32-6t-19-15-8-18-2-17q0-36 24-54t97-36v-27q0-19-8-28t-21-9q-28 0-40 15m79 72v51q-23 31-48 31-14 0-23-7t-8-19q0-20 16-33t63-23m-10 48v-30q-35 13-35 38 0 10 7 14 13-4 28-22m-75-85q-8 0-12-12-4-20 12-35 17-15 50-15 16 0 26 12t9 37v34q-72 19-97 35t-24 48q0 17 11 31t40 15q12 0 22-4t21-12 13-10 8-8 6-6q4 36 30 36 6 0 15-3t17-14 11-13 7-11 7-9q-3-7-12-8-14 20-28 20-10-1-10-14v-102q0-39-15-55t-52-16q-34 0-58 17t-25 44q0 14 9 22t19 8q4-5 0-12m388 131q-3 6 0 12 64-1 128 0 3-5 0-12-60-3-61-23l-2-123q-1-33-11-49t-34-15q-40 0-96 56v-49q-2-4-9-6-34 16-70 20-2 6 0 11 28 2 41 10 3 73 0 145 0 18-42 23-3 6 0 12 64-2 128 0 3-6 0-12-46-4-46-23-2-51-2-116 49-43 77-43 26 0 26 44l0 115q0 12-7 17t-20 6m-7 21q-7-14 0-30 7 0 16-4t8-10l0-115q0-26-10-32-18 4-49 26 0 67 2 120 1 13 20 15 6 16 0 30-72-3-144 0-6-14 0-30 40-5 40-15 3-68 0-138-16-5-40-6-6-15 0-31 37-2 83-22 26 2 39 16v8q35-23 80-23 33 0 47 18t14 56q1 97 3 123 0 10 34 14 6 16-1 30-71-2-142 0m363-179q0 15-13 19-3 6 0 11 13 0 21-8t9-22q0-23-22-38t-56-14q-48 0-81 32t-33 86q0 55 31 83t71 28q30 0 56-17t38-48q-4-4-10-6-6 9-10 13t-13 12-21 12-24 3q-38 0-56-22t-18-58q0-102 70-102 28 0 44 9t17 27m7 97q16 2 25 13-14 38-43 57t-62 20q-44 0-78-31t-34-90q0-57 36-93t88-35q39 0 63 17t25 45q0 17-12 27t-28 10q-30 0-30-27 0-17 21-24-14-10-29-11-45 6-45 91 0 64 47 70 29-4 56-39m190-133q25 0 39 24t15 74-15 75-39 24q-14 0-26-6t-19-18-12-31-5-44q0-25 5-44t12-30 19-18 26-6m0 213q22 0 40-9t31-24 20-36 7-46-7-46-20-36-31-24-40-8q-25 0-44 8t-33 24-21 36-7 46q0 25 7 46t21 37 33 23 44 9m8-239q30 0 53 9t39 25 24 40 8 50q0 28-8 51t-24 39-39 26-53 9q-29 0-52-9t-39-26-24-39-8-51 8-50 24-40 39-25 52-9m-35 124q0 79 35 88 36-9 36-88 0-78-36-87-35 9-35 87m273-235q55 0 55 40t-55 40q-8 0-16-3t-12-9-9-13-3-15 3-16 9-13 12-8 16-3m-23 19q-7 8-7 21 0 6 2 12t6 9 8 6 10 3q6 0 10-3t9-6 6-9 2-12-2-12-6-10-9-6-10-2-10 2-9 7m99 312q-58-5-59-23-2-73-1-180-2-4-9-6-34 16-71 20-1 6 0 11 28 2 42 10 3 91 0 145-1 18-42 23-2 7 0 12 70-1 140 0 3-5 0-12m9-9q4 16 0 30-79-3-157 0-5-14 0-30 39-4 40-15 3-68 0-138-16-5-40-6-6-15 0-31 37-2 83-22 26 2 39 16-1 120 2 181 1 11 33 15m77 24q-12 3-23 9-11-7-15-14 0-2 1-10t2-20 2-24 1-21q12-5 35-5 3 0 6 0t5 0q18 57 49 62 12-2 19-9t6-16q0-7-3-13t-10-10-14-9-18-8-18-8-18-8q-9-4-17-10t-14-14-10-17-3-20q0-11 4-24t13-23 26-17 40-6q27 0 40 3l9-3h17q3 20 8 39t10 33q-11 11-25 11-9-10-16-18t-13-14-13-9-13-5q-16 2-16 14 0 10 8 17t21 13 27 11 28 11q10 4 18 11t15 15 10 19 4 23q0 18-10 33t-24 24-34 15-39 6q-35 0-58-14m56 4q30 0 52-18t22-41q0-22-14-38t-32-25-38-16-33-17-13-24q0-17 12-26t30-8q18 0 32 11t35 36q6 0 9-3-9-26-26-43t-46-17q-39 0-56 18t-17 42q0 20 13 33t31 22 37 14 31 19 13 29q0 14-12 25t-33 11q-26 0-40-17t-23-46q-9 0-12 2 0 17-2 40t-3 27q2 2 5 4 10-7 15-15 21 12 33 16t30 5m423-384q34 0 64 9t52 13q-12 46-1 98-12 11-28 12-2-4-7-19t-10-24-12-22-21-20-30-9q-25 2-38 15t-13 33q0 21 10 35t28 20 38 12 42 12 37 19 28 34 11 56q0 40-23 69t-55 41-64 13q-73 0-144-32 1-32 1-39 0-39-7-85 22-10 49-1 9 56 35 85t57 33q29-2 45-19t16-43q0-22-11-37t-27-24-36-15-40-15-37-18-27-30-10-47q0-25 8-45t21-31 30-20 34-11 35-3m0 10q-21 0-40 4t-38 16-29 31-11 49q0 25 10 42t27 28 37 17 40 15 36 17 27 27 11 40q0 33-21 53t-59 20q-37 0-68-31t-42-91q-4-3-11 0 7 38 7 79 0 12-1 33 60 28 115 28 45 0 84-27t39-76q0-27-11-47t-28-30-38-18-42-15-37-15-28-25-11-38q0-31 21-50t61-19q67 0 93 94 8 1 11-3-9-60-36-84t-68-24m354 355q-3 6 0 12 63-1 127 0 4-5 0-12-59-3-60-23l-3-123q-1-33-10-49t-34-15q-40 0-96 56v-200q-2-4-9-6-34 16-70 20-2 6 0 11 28 2 41 10v296q0 18-42 23-3 6 0 12 64-2 127 0 4-6 0-12-45-4-45-23-2-52-2-116 48-43 77-43 26 0 26 44l0 115q0 12-8 17t-19 6m-8 21q-6-14 0-30 8 0 16-4t9-10l0-115q0-26-10-32-18 4-49 26 0 66 2 120 1 13 20 15 6 16 0 30-72-3-145 0-5-14 0-30 41-5 41-15v-289q-16-5-41-6-5-15 0-31 38-2 83-22 27 2 40 16v159q34-23 80-23 33 0 47 18t14 56q1 96 3 123 0 10 34 14 6 16-1 30-72-2-143 0m233-187q12 2 18 9t7 18q0 13-9 21t-22 9q-14 0-26-11t-12-29q0-32 31-52t79-19q47 0 66 18t19 63v86l15-1q20 2 28 19l-8 14q-7 11-12 17t-15 14-21 12-29 3q-21 0-31-15-27 19-69 19-19 0-32-6t-19-15-8-18-3-17q0-36 24-54t98-36v-27q0-19-8-28t-21-9q-28 0-40 15m79 72v51q-23 31-48 31-14 0-23-7t-9-19q0-20 17-33t63-23m-10 48v-30q-35 13-35 38 0 10 7 14 13-4 28-22m-75-85q-9 0-12-12-5-20 12-35 17-15 50-15 16 0 25 12t10 37v34q-72 19-97 35t-25 48q0 17 11 31t41 15q11 0 21-4t21-12 14-10 8-8 6-6q3 36 30 36 6 0 15-3t17-14 11-13 7-11 7-9q-4-7-13-8-13 20-27 20-10-1-10-14v-102q0-39-15-55t-53-16q-33 0-58 17t-24 44q0 14 8 22t20 8q3-5 0-12m347 118q-29 0-44-24t-15-59q0-29 6-50t15-31 19-13 19-4q35 0 52 29v35q0 67-1 91-27 26-51 26m159 5q8 16-1 31-62-2-105 0-9-4-11-10-24 16-66 16-41 0-67-31t-26-85q0-23 7-46t21-42 40-33 57-12q23 0 34 1-1-39-1-93-16-5-44-6-6-15 0-31 34-3 86-22 27 2 39 16 0 278 3 333 0 10 34 14m-117-122v-33q-13-17-32-20-17 3-30 23t-12 64q0 28 10 48t30 24q16-4 33-19 1-24 1-87m108 131q-12-1-19-2t-18-3-17-7-6-11q-2-54-2-331-2-4-8-6-33 15-76 20-1 6 0 11 33 2 47 10 0 69 1 116-25-8-44-8-28 0-50 11t-35 30-19 40-6 42q0 49 22 77t52 29q39 0 78-40 0 21-1 27 3 5 7 7 8 0 16-1t12-1 9 0q13 0 57 2 4-5 0-12m165-195q25 0 40 24t15 74-15 75-40 24q-14 0-25-6t-20-18-12-31-4-44q0-25 4-44t12-30 20-18 25-6m0 213q23 0 41-9t31-24 19-36 7-46-7-46-19-36-31-24-41-8q-24 0-44 8t-33 24-21 36-7 46q0 25 7 46t21 37 33 23 44 9m8-239q30 0 53 9t39 25 24 40 8 50q0 28-8 51t-24 39-39 26-53 9q-29 0-52-9t-39-26-24-39-8-51 8-50 24-40 39-25 52-9m-35 124q0 79 35 88 37-9 37-88 0-78-37-87-35 9-35 87m448-109h-122q-3 6 0 12 22 4 28 23l10 27-45 98h-1l-50-125q-4-10 4-15t28-8q2-6 0-12h-118q-3 6 0 12 32 5 40 23l78 189h11l62-137 53 137h12l82-189q9-21 37-23 3-6 0-12h-83q-2 6 0 12 7 0 12 1t9 4 5 7-2 11l-52 125h-1l-45-125q0-3-2-6t2-6 3-3 6-3 7-2 9-2 11-1 12 0q2-6 0-12m-129-9h136q8 16 0 30-6 0-9 1t-7 1-6 2-4 2-1 4 0 6l28 73 31-73q3-8-2-11t-18-5q-8-14 0-30h97q8 15-1 30-16 1-23 5t-11 13l-85 195h-25l-47-122-54 122h-25l-80-195q-4-8-12-12t-26-6q-7-13 0-30h132q6 17-1 30-14 1-8 16l31 77 24-52-9-24q-6-14-25-17-7-13 0-30" />
</svg>