<svg id="fnt-Jaini Purva" viewBox="0 0 1946 1000" xmlns="http://www.w3.org/2000/svg"><path id="jaini-purva" class="f" d="M111 662q-20 0-39-7t-33-17-22-22-8-21q0-16 1-30t4-31l49 9q-2 14-3 28t-1 31q0 10 4 14t13 4q20 0 30-11t11-43q0-12-1-27t0-40v-27q0-24 1-47t6-36h-33l-26-33 4-9h79l28 39q-9 32-9 89v21q0 31 1 53t0 42q0 71-56 71m285-12l-7 14q-12-4-22-8t-19-9q-7 7-17 11t-22 4q-8 0-25-5t-33-15-29-19-11-21q0-13 0-24t0-12q0-29 15-42t43-12q14 0 30 2t26 5q1-14 1-27t0-19q0-6-3-8t-11-3q-19 0-33 3t-25 10h-10l-32-47 4-8h83q10 0 23 7t25 20 21 23 8 21q0 17-1 39t-2 46-1 42q0 15 5 21t19 11m-136-66v18q0 12 5 15t11 4q20 0 34-11t14-34q0-4 0-11t0-14q-5-2-13-2t-15-1q-18 0-27 8t-9 28m195-198l-33-35v-5q13-18 36-32l33 35 0 6q-10 7-19 15t-17 16m50 268l-6 14q-32-12-49-22t-17-18q0-7 1-22t2-28v-72q0-13 1-24t5-20h-17l-26-34 3-8h64l29 39q-6 8-8 20t-1 30v74q0 18-2 32t-1 21q0 5 3 7t19 11m115-1l-6 14q-32-12-50-22t-17-18q0-7 2-22t2-28v-64q0-10 0-25t4-26h-19l-26-34 4-8h47q2 0 8 6t14 16q10-13 24-20t28-6h10q10 0 22 8t24 20 20 22 7 19q0 12-1 31t-1 30v36q0 18-1 32t-2 21q0 5 4 7t19 11l-6 14q-32-12-50-22t-17-18q0-7 2-22t2-28v-26q0-16 1-37t1-36q0-10-3-13t-11-4q-28 0-41 14t-14 40v67q0 18-1 32t-2 21q0 5 4 7t19 11m179-267l-33-35v-5q14-18 37-32l33 35-1 6q-10 7-19 15t-17 16m51 268l-6 14q-32-12-50-22t-17-18q0-7 2-22t2-28v-72q0-13 1-24t4-20h-16l-27-34 4-8h64l29 39q-6 8-8 20t-2 30v74q0 18-1 32t-2 21q0 5 4 7t19 11m182 4l-7 14q-33-11-50-20t-17-16q0-5 1-11t2-18 1-33v-100q0-33 3-54t6-32h-17l-25-33 4-8h45q19 0 36-1t24-1q12 0 27 8t30 21 25 26 10 24v53q0 39-14 58t-46 19q-13 0-28-2t-29-7v40q0 22-2 34t-1 20q0 9 22 19m23-270q-7 0-16 1t-17 2q-4 13-7 33t-2 47v41q9 2 22 2 26 0 35-14t10-42v-45q0-13-5-19t-20-6m311 264l-6 13q-12-4-21-9t-18-11q-11 8-25 14t-27 5q-9 0-25-6t-31-16-27-22-11-22q0-8 1-25t1-38v-29q0-13 1-24t5-20h-17l-26-34 3-8h64l29 39q-6 8-8 20t-1 30v30q0 33-1 48t-1 21q0 14 17 14 13 0 24-5t20-14 8-22v-75q0-13 1-24t4-20h-16l-27-34 4-8h64l29 39q-6 8-8 20t-2 30v54q0 27-1 41t-1 21q0 8 6 14t19 13m123 4l-6 15q-43-14-62-24t-19-15q0-5 2-19t2-42v-62q0-10 1-24t3-23h-19l-26-34 4-8h47q2 0 9 7t14 16q8-13 22-19t30-6q8 0 12 1l25 35-4 6q-35-1-52 13t-17 52v53q0 25-1 39t-1 18q0 3 2 5t9 6 25 10m170 12q-6 0-16-8t-21-17-20-20-9-14q-11-44-18-71t-10-42-3-22q0-6 1-12h-11l-25-34 4-8h64l23 33v7q-11 2-15 8t-4 17q0 5 2 17t10 39 20 73q7-18 14-37t17-46 24-69h-22l-23-34 3-8h63l30 42q-21 62-35 102t-22 63-14 32-7 9m286-18l-6 14q-12-4-22-8t-19-9q-7 7-17 11t-22 4q-9 0-25-5t-33-15-29-19-12-21q0-13 0-24t1-12q0-29 15-42t43-12q14 0 30 2t26 5q0-14 0-27t1-19q0-6-3-8t-11-3q-20 0-33 3t-26 10h-9l-33-47 4-8h84q10 0 22 7t26 20 20 23 8 21q0 17-1 39t-2 46-1 42q0 15 5 21t19 11m-135-66v18q0 12 4 15t11 4q21 0 34-11t14-34q0-4 0-11t1-14q-6-2-14-2t-14-1q-18 0-27 8t-9 28" />
</svg>