<svg id="fnt-Jaini" viewBox="0 0 851 1000" xmlns="http://www.w3.org/2000/svg"><path id="jaini" class="f" d="M111 662q-20 0-39-7t-33-17-22-22-8-21q0-16 1-30t4-31l49 9q-2 14-3 28t-1 31q0 10 4 14t13 4q20 0 30-11t11-43q0-12-1-27t0-40v-27q0-24 1-47t6-36h-33l-26-33 4-9h79l28 39q-9 32-9 89v21q0 31 1 53t0 42q0 71-56 71m285-12l-7 14q-12-4-22-8t-19-9q-7 7-17 11t-22 4q-8 0-25-5t-33-15-29-19-11-21q0-13 0-24t0-12q0-29 15-42t43-12q14 0 30 2t26 5q1-14 1-27t0-19q0-6-3-8t-11-3q-19 0-33 3t-25 10h-10l-32-47 4-8h83q10 0 23 7t25 20 21 23 8 21q0 17-1 39t-2 46-1 42q0 15 5 21t19 11m-136-66v18q0 12 5 15t11 4q20 0 34-11t14-34q0-4 0-11t0-14q-5-2-13-2t-15-1q-18 0-27 8t-9 28m195-198l-33-35v-5q13-18 36-32l33 35 0 6q-10 7-19 15t-17 16m50 268l-6 14q-32-12-49-22t-17-18q0-7 1-22t2-28v-72q0-13 1-24t5-20h-17l-26-34 3-8h64l29 39q-6 8-8 20t-1 30v74q0 18-2 32t-1 21q0 5 3 7t19 11m115-1l-6 14q-32-12-50-22t-17-18q0-7 2-22t2-28v-64q0-10 0-25t4-26h-19l-26-34 4-8h47q2 0 8 6t14 16q10-13 24-20t28-6h10q10 0 22 8t24 20 20 22 7 19q0 12-1 31t-1 30v36q0 18-1 32t-2 21q0 5 4 7t19 11l-6 14q-32-12-50-22t-17-18q0-7 2-22t2-28v-26q0-16 1-37t1-36q0-10-3-13t-11-4q-28 0-41 14t-14 40v67q0 18-1 32t-2 21q0 5 4 7t19 11m179-267l-33-35v-5q14-18 37-32l33 35-1 6q-10 7-19 15t-17 16m51 268l-6 14q-32-12-50-22t-17-18q0-7 2-22t2-28v-72q0-13 1-24t4-20h-16l-27-34 4-8h64l29 39q-6 8-8 20t-2 30v74q0 18-1 32t-2 21q0 5 4 7t19 11" />
</svg>