<svg id="fnt-Jaldi" viewBox="0 0 865 1000" xmlns="http://www.w3.org/2000/svg"><path id="jaldi" class="f" d="M47 669q-17 0-31-3t-14-11q0-1 2-7t3-12 5-5q1 0 6 1 6 2 11 3t11 0q32 0 46-12t14-41v-211q0-9 18-9h3q18 0 18 9v207q0 43-22 67t-70 24m223 0q-33 0-54-16t-20-49q0-34 21-51t50-22 73-6v-20q0-17-11-27t-37-10q-19 0-34 5t-27 11q-5 2-6 2-3 0-7-4t-6-9-3-8q0-6 12-12t30-11 40-5q41 0 63 18t22 50v97q0 29 3 41t3 14q0 5-9 8t-15 2q-6 0-9-6t-5-19l-1-5q-13 15-32 23t-41 9m2-31q21 0 37-8t31-22v-52q-32 1-53 3t-37 12-15 31q0 17 9 26t28 10m231 31q-22 0-39-13t-17-47v-259q0-10 17-10h2q17 0 17 10v256q0 18 7 25t17 7q8 0 12-1t6-1q4 0 7 8t2 12q0 13-31 13m144 0q-25 0-44-15t-30-41-10-60q0-36 11-63t31-39 46-14q19 0 33 6t29 16v-109q0-10 17-10h2q18 0 18 10v252q0 29 2 41t3 14q0 5-8 8t-16 2q-4 0-7-5t-4-9-4-16q-31 32-69 32m8-31q14 0 29-8t29-22v-119q-23-20-53-20-29 1-44 21t-15 60q0 42 14 65t40 23m186-253q-18 0-18-10v-25q0-10 18-10h5q18 0 18 10v25q0 10-18 10h-5m2 282q-18 0-18-9v-210q0-9 18-9h1q18 0 18 9v210q0 9-18 9h-1" />
</svg>