<svg id="fnt-Jersey 10" viewBox="0 0 2080 1000" xmlns="http://www.w3.org/2000/svg"><path id="jersey-10" class="f" d="M-2 762q-12 0-21-2t-16-5v-38q8 2 17 4t19 1q13 0 24-5t18-17 7-35v-355h45v351q0 35-11 57t-33 33-49 11m285-368q34 0 59 15t38 42 13 64v26h-183q1 46 23 69t62 24q26 0 45-5t41-13v38q-20 9-40 13t-48 5q-38 0-67-16t-46-46-16-75q0-44 15-76t41-48 63-17m-1 36q-31 0-50 20t-21 56h136q0-23-7-40t-21-27-37-9m304-36q8 0 16 0t16 3l-6 40q-6-1-14-2t-15-1q-15 0-29 6t-25 18-18 29-6 37v143h-44v-268h36l5 49h2q9-15 21-28t27-19 34-7m256 199q0 26-13 43t-37 27-57 9q-28 0-48-5t-36-12v-40q16 8 39 14t46 7q34 0 49-11t15-28q0-10-6-18t-20-16-40-18q-26-10-45-20t-28-24-10-36q0-34 27-53t73-18q25 0 46 4t40 14l-15 35q-17-7-36-12t-38-5q-27 0-41 8t-14 24q0 11 6 19t22 15 41 17q25 10 43 20t28 24 9 36m169-199q34 0 59 15t38 42 13 64v26h-183q1 46 23 69t62 24q26 0 45-5t41-13v38q-20 9-40 13t-48 5q-38 0-67-16t-46-46-16-75q0-44 15-76t41-48 63-17m-1 36q-31 0-50 20t-21 56h136q0-23-7-40t-21-27-37-9m245 238l-108-269h47l58 152q5 14 9 26t8 24 6 23h2q3-12 9-33t14-40l54-152h48l-116 305q-9 25-22 43t-31 29-44 11q-12 0-21-2t-16-2v-35q6 1 13 2t17 1q15 0 26-6t20-17 13-25l14-35m454-358v357h-43v-250q0-14 0-24t1-19 1-18q-8 8-14 13t-17 14l-38 31-23-29 97-75h36m370 178q0 43-6 77t-21 58-37 36-55 13q-40 0-66-22t-39-64-13-98q0-58 12-99t38-63 68-22q40 0 67 22t39 63 13 99m-193 0q0 49 7 81t24 49 43 16 43-16 24-49 8-81-8-82-24-48-43-16-43 16-24 48-7 82" />
</svg>