<svg id="fnt-Jockey One" viewBox="0 0 2068 1000" xmlns="http://www.w3.org/2000/svg"><path id="jockey-one" class="f" d="M8 667v-58h52q9-12 11-27t3-62v-203h68v180q0 33-1 52t-6 42q-10 44-48 76h-79m329 0h-109q-50-47-50-127 0-41 11-71t36-58h117q26 30 35 58t10 71q0 80-50 127m-74-53h38q18-35 18-79t-18-71h-38q-18 25-18 72t18 78m222-77q0 21 6 42t18 35h75v53h-109q-59-47-59-130t63-126h105v53h-75q-24 25-24 73m199 130h-66v-350h66v185h7l47-91h65l-59 112 60 144h-66l-46-112h-8v112m250-203h-38q-7 9-12 25t-5 31h72q1-15-4-32t-13-24m-27 150h95v53h-127q-35-24-50-59t-14-70q0-82 62-127h81q34 25 46 52t12 56-5 48h-124q1 11 8 26t16 21m134-88v-115h67v116q0 43 17 72h30q16-28 16-72v-116h67v112q0 37-10 66t-32 64l-33 55q-9 15-19 23t-26 11h-79v-53h54q10-3 17-10t15-22l3-5h-35q-24-20-38-53t-14-73m381-209h103q35 28 52 76t17 99-17 96-52 79h-103q-36-33-53-79t-16-96 17-99 52-76m33 292h36q13-15 21-48t9-69-8-69-21-46h-37q-12 14-21 46t-9 69 9 69 21 48m286-198h53q22 28 30 56t8 70v130h-66v-135q0-47-13-68h-56v203h-67v-256h52l9 18q11-10 21-14t29-4m248 53h-38q-7 9-12 25t-5 31h72q1-15-4-32t-13-24m-27 150h95v53h-127q-35-24-50-59t-14-70q0-82 62-127h81q34 25 46 52t12 56-5 48h-124q1 11 8 26t16 21" />
</svg>