<svg id="fnt-Jolly Lodger" viewBox="0 0 1700 1000" xmlns="http://www.w3.org/2000/svg"><path id="jolly-lodger" class="f" d="M-10 568q0-4 3-12t6-16 8-13 5-4q2 1 7 8t11 18 14 21 15 21 13 15 8 4q3-2 6-20t6-44 4-57 4-58 2-47 1-24q0-5 5-16t12-22 14-18 10-5q1 2 2 17t1 40 0 56-1 63-2 63-4 57-4 42-5 20q-2 3-12 6t-21 6-22 4-15 0q-10-2-22-18t-23-33-18-34-8-20m296-168q4 2 7 11t5 20 5 25 3 27 2 25 2 19q0 8 0 18t0 18-1 15-2 11q-3 7-10 10t-16 3q-4 1-15 0t-22-1-23-1-16-2q-11-3-15-7t-9-11q-2-3-3-15t-1-28 0-37 2-37 3-31 5-17q4-7 16-13t22-9q5-2 13-2t17 0 17 2 14 7m-27 151q1-2 2-12t2-24 1-30 0-30-1-23-2-11q-3-2-7-2t-10 1-9 3-5 3q-6 6-7 18 0 3-1 19t0 34 0 34 4 19 7 6 9 1 10-1 7-5m118 113q-3 1-8-3t-8-8-7-11-4-10q-4-43-6-77t-4-60-2-46-1-33q0-32 1-44 2-9 8-17t15-15 14-10 8-2 3 16 2 39 0 54-1 61-2 61-2 53-3 37-3 15m88 0q-4 1-8-3t-9-8-7-11-3-10q-4-43-6-77t-4-60-2-46-1-33q0-32 1-44 2-9 8-17t14-15 15-10 8-2 3 16 2 39 0 54-1 61-2 61-2 53-3 37-3 15m159-271q1 1 2 13t2 30 1 43 0 49 0 51-1 44-2 35-1 18q-1 3-6 9t-11 12-13 12-11 6q-9 3-20 0t-20-11-16-13-9-10-3-9-1-11 0-10 3-4q2 0 11 5t18 9 18 7 10 0q2-4 4-22t4-42q-17 6-31 8t-23-5q-5-3-9-10t-9-17-6-21-2-20q0-7 2-20t4-28 6-31 7-29 5-22 3-10q1-2 5-2t8 0 8 3 5 4q1 2 0 13t-1 24-3 31-2 30-2 25-1 12q0 8 2 15t4 12 6 8 5 2q8-1 15-4 4-1 6-3 2-23 3-49t3-46 2-35 0-19q0-4 4-10t9-10 10-7 8 0m139 289q-1-3-1-18t0-38 1-51 1-58 2-58 2-50 1-36 1-15q1-2 4-10t9-16 11-15 9-6q2 0 3 19t2 48 2 65 2 69 1 60 1 40q16 1 31 2t29 3 21 2 8 1q2 2 4 9t6 15 3 15 0 9q-57 10-87 13t-46 4q-17 0-20-3m258-282q3 2 7 11t5 20 5 25 3 27 2 25 1 19q1 8 1 18t0 18-1 15-2 11q-3 7-10 10t-16 3q-4 1-15 0t-22-1-23-1-16-2q-11-3-15-7t-9-11q-2-3-3-15t-1-28 0-37 2-37 3-31 4-17q5-7 17-13t22-9q5-2 13-2t17 0 17 2 14 7m-27 151q1-2 2-12t2-24 1-30 0-30-1-23-2-11q-3-2-7-2t-10 1-9 3-5 3q-7 6-7 18 0 3-1 19t0 34 0 34 3 19 8 6 9 1 10-1 7-5m214-208q1 12 0 47 0 15 0 37t-2 51-4 70-6 89q-1 5-4 11t-7 10-8 8-8 3q-1-1-2-8t-2-21q-22 10-42 13t-32-4q-5-3-9-10t-9-18-6-22-3-22q0-7 1-19t3-27 3-29 4-28 4-21 2-11q1-6 4-10t4-6q5-3 15-5t20-3 20 0 13 3h1q-1-61 0-94t4-35q2-1 9 3t14 11 14 17 9 20m-75 274q7-2 13-4t9-4q5-2 8-5-1-13-1-28t-1-33-1-35-1-35q0-5-2-9t-4-6q-2-1-6-3t-10-3-11-1-7 2q-1 0-2 9t-1 23-1 29-2 29-1 24 0 10q0 9 2 16t6 13 7 9 6 2m225 65q-1 3-5 10t-12 13-14 12-11 7q-10 3-21-1t-21-11-17-14-9-11q-2-3-3-9t-2-12 0-10 4-4 11 5 19 9 19 8 11-1q2-3 3-19t4-39q-1 0-1 0t-2 0q-4 2-12 2t-17-1-16-4-13-7q-2-2-4-6t-3-11q-2-3-5-17t-7-32-6-35-2-29q1-11 4-22t8-22 10-18 11-11q12-5 29-2t38 13q0-5 4-11t9-10 11-7 8 0q1 1 2 13t2 33 1 44 0 52 0 53-1 47-2 36-2 19m-34-232q-3-2-7-4-3-2-7-3t-10-4q-3-1-7 2t-8 8-7 13-3 16q0 1 0 9t2 20 2 26 2 25 2 20 2 9q2 2 5 2t8-1 6-3 5-2q6-5 7-17 1-1 1-6 2-32 3-58t4-52m105 76q8-3 18-7t19-7 17-6 11-3q-1-6-2-13t-1-14-3-11-3-6q-4-1-13-3t-18 1-17 8-9 17q-1 7-1 19t2 25m106 7q0 1-12 4t-26 6-34 7-30 5q3 19 6 35t6 19q2 3 6 6 4 3 9 5t12 3q6 2 10-4 4-5 8-17t3-38q15-3 23-3t13 0q5 0 6 1 0 2 0 7t-3 15-3 18-6 19-6 17-7 10q-12 8-30 8t-34-5-31-11-17-11q-2-3-4-15t-4-29-1-37 0-41 4-36 8-27q7-14 24-23t35-13 35-1 26 11q4 5 8 19t5 35q0 2 1 11t0 20 1 20-1 10m138-132q4 2 7 9t7 16 6 19 4 20 2 14 0 8q-1 2-6 4-5 2-13 4t-25 6q-1-27-4-41t-6-20q-4-7-8-7-5 2-8 5t-6 6q-3 3-5 7-1 1-2 7t-2 16q0 3 0 14t-1 25 0 30-1 29 0 22-1 11q-1 3-5 7t-9 8-9 6-6 0q-1-2-3-13t-3-28-4-36-3-37-3-33-1-20q-1-10-1-21t-1-21 0-18 2-9q1-1 7 0t12 2 12 6 8 6q1 3 3 8 9-5 18-9t16-6 16-2 16 6" />
</svg>