<svg id="fnt-Josefin Slab" viewBox="0 0 2350 1000" xmlns="http://www.w3.org/2000/svg"><path id="josefin-slab" class="f" d="M91 707q14-15 22-36t8-49v-305h-103v19h83v284q0 23-7 41t-17 30q-11 13-26 19t-33 8v20q21 0 40-8t33-23m234-65q13-14 21-31t8-38q0-20-8-38t-21-32q-13-13-32-21t-38-7-39 7-31 21q-13 14-21 32t-7 38q0 20 7 38t21 31q13 13 31 21t39 7q20 0 38-7t32-21m-125-15q-11-10-17-24t-6-30q0-16 6-30t17-25q10-11 24-17t30-6 30 6 25 17q11 11 17 25t6 30q0 16-6 30t-17 24q-10 11-25 17t-30 6-30-6-24-17m303 24q7-8 10-18t4-19q0-16-7-25t-17-16q-10-6-22-10t-22-8q-10-4-18-10t-7-17q0-9 3-15t8-10q5-3 11-5t14-2q8 0 16 2t14 6v26h19v-36q-5-5-11-8t-12-6q-8-2-14-3t-13-1q-9 0-19 3t-19 10-13 16-4 23q0 17 6 26t18 14 22 9 22 8q11 4 17 11t7 20q0 9-4 15t-8 11q-6 4-13 6t-15 3q-11 0-21-2t-19-8v-25h-19v36q12 11 27 15t31 4q17 0 29-6t19-14m145-156q19 0 35 11t25 28q-34 13-68 26t-68 27q-3-17 1-33t14-29q10-14 26-22t35-8m65 149l-12-15q-11 10-24 16t-29 5q-24 0-42-12t-28-31q39-16 78-31t78-31q-5-15-13-28t-19-21q-11-10-25-16t-29-5q-21 0-39 8t-31 21-21 31-7 38q0 20 7 38t21 31 31 21 39 7q19 0 36-7t29-19m57 23h97v-20h-46v-148h63v-20h-63v-72q0-22 7-40t18-30q11-12 26-19t32-7v-19q-22 1-41 8t-32 23-22 36-8 49v71h-31v20h31v148h-31v20m152 0h96v-20h-37v-168h-59v20h38v148h-38v20m65-254q0-7-5-12t-11-5q-6 0-11 5t-5 12 5 11 11 5q6 0 11-5t5-11m66 254h97v-20h-37v-83q0-15 6-27t17-22q10-9 24-14t30-5q21 1 31 12t12 29v110h-39v20h97v-20h-37v-116q-1-25-17-40t-44-16q-28 0-50 15t-32 38q0-9-1-16t-1-15l0-18h-53v20h36v148h-39v20m602-23q14-12 22-30t8-40q0-35-14-54t-34-29q-22-11-46-17t-44-15q-17-7-28-20t-11-34q0-14 4-26t13-23 22-16 31-6q21 0 36 5t25 11v44h20v-54q-10-8-21-13t-20-8q-11-2-21-3t-18-1q-25 0-43 8t-28 22-16 30-4 33q1 25 11 39t25 24q15 8 33 14t36 11q15 5 28 11t24 16q9 8 14 21t6 31-8 31-19 25q-12 9-28 15t-32 5q-28 0-48-9t-34-21v-45h-20v53q6 7 15 14t23 13q13 7 29 11t37 4q21 0 41-7t34-20m60 23h96v-20h-39v-355h-56v19h36v336h-37v20m310 0h55v-20h-37v-168h-16q-1 11-2 22t0 22q-9-19-30-34t-50-14q-21 0-39 8t-31 21q-14 13-21 31t-8 38q0 20 8 38t21 31 31 21 39 7q15 0 28-4t24-11q10-6 17-15t11-17q0 7 0 12t0 11v21m-80-172q16 0 30 6t25 16q10 11 16 25t7 31-7 30-17 25q-10 11-24 16t-30 6-30-5-24-16q-11-10-18-25t-6-31q0-16 5-30t17-25q10-11 24-17t32-6m170 152v20h56v-21q0-6 0-11t0-12q3 9 10 17t18 15q10 7 23 11t29 4q20 0 38-7t32-21q13-14 20-31t8-38q0-20-8-38t-20-31q-14-13-32-21t-38-8q-15 0-28 4t-23 11q-11 7-18 15t-10 17q1-8 1-12t0-12v-206h-56v19h35v336h-37m136-152q16 0 30 6t24 16q11 10 17 25t6 31-6 30-16 25q-11 10-25 16t-30 6q-16 0-30-6t-25-16q-11-10-17-25t-6-30q0-16 5-30t17-25q10-11 24-17t32-6" />
</svg>