<svg id="fnt-Josefin Sans" viewBox="0 0 2710 1000" xmlns="http://www.w3.org/2000/svg"><path id="josefin-sans" class="f" d="M131 305v296q0 44-17 75t-46 47-66 18v-47q35-2 57-25t23-69v-295h49m74 256q0-31 15-56t41-39 59-15q34 0 59 15t40 39 14 56-14 56-40 40-60 15q-33 0-59-14t-40-39-15-58m47 1q0 20 9 36t24 26 34 9q19 0 34-9t24-26 9-36-9-37-24-26-34-9q-19 0-35 10t-24 26-8 36m302 109q-22 0-43-8t-34-23l19-27q13 12 27 18t27 7q10 0 19-3t13-8 6-16q0-11-8-17t-18-11-24-7q-25-9-39-24t-13-36q0-17 8-31t24-23 41-9q21 0 38 5t32 17l-18 29q-9-9-22-14t-22-5q-9 0-17 3t-12 8-5 13q0 11 7 17t18 10 22 8q16 5 28 12t19 19 7 27q0 19-9 34t-26 25-45 10m241 1q-35 0-61-15t-39-39-14-56q0-31 16-56t41-40 58-15q41 0 68 24t37 66l-171 60-11-27 140-51-10 6q-6-16-20-29t-36-12q-19 0-34 9t-24 26-8 36q0 22 9 38t24 25 36 10q14 0 26-5t24-13l22 34q-16 11-35 17t-38 7m228-5h-47v-166h-35v-41h35v-88q0-45 20-69t60-24q11 0 23 3t23 10l-20 34q-4-5-10-7t-11-1q-18 0-28 12t-10 43v87h65v41h-65v166m126 0v-207h46v207h-46m-4-282q0-11 9-19t19-7 19 7 8 19q0 11-8 18t-19 8-19-8-9-18m131 75h41l4 50-2-8q10-23 33-37t52-13 48 17 19 45v153h-47v-137q0-17-10-28t-28-10q-18 0-33 10t-23 27-8 41v97h-46v-207m651-128l-18 38q-19-10-41-17t-43-7q-29 0-46 14t-17 36q0 17 11 28t29 21 37 16q17 6 34 14t29 20 21 30 8 43q0 29-14 52t-41 37-63 14q-24 0-46-6t-40-14-33-18l22-38q12 8 27 16t33 12 33 5q17 0 33-6t28-19 11-35q0-18-10-31t-25-21-34-15q-17-7-35-15t-32-19-24-27-9-40q0-29 13-50t38-34 55-13q35 0 62 9t47 20m160 340q-29 0-53-13t-37-37-14-59q0-34 15-60t38-38 54-14 49 13 30 32l-3 8 5-44h43v207h-47v-54l5 12q-2 5-9 12t-18 16-25 13-33 6m13-39q17 0 31-6t23-19 13-28v-40q-4-15-14-27t-24-17-31-6q-18 0-34 9t-25 25-9 37q0 20 10 37t25 26 35 9m194-173h42l4 50-2-8q10-23 32-37t52-13 48 17 20 45v153h-47v-137q-1-17-10-28t-29-10q-18 0-32 10t-23 27-8 41v97h-47v-207m335 211q-22 0-43-8t-34-23l19-27q13 12 27 18t27 7q10 0 19-3t13-8 6-16q0-11-8-17t-18-11-24-7q-25-9-39-24t-13-36q0-17 8-31t24-23 41-9q21 0 38 5t32 17l-18 29q-9-9-22-14t-22-5q-9 0-17 3t-12 8-5 13q0 11 7 17t18 10 22 8q16 5 28 12t19 19 7 27q0 19-9 34t-26 25-45 10" />
</svg>