<svg id="fnt-Jost" viewBox="0 0 713 1000" xmlns="http://www.w3.org/2000/svg"><path id="jost" class="f" d="M-34 719l-22 33q4 5 13 10t21 10 26 5q17 0 31-5t25-15 15-25 5-35v-380h-40v375q0 24-11 34t-23 11q-14 0-24-5t-16-13m172-167q0 34 15 61t43 43 61 16q34 0 60-16t43-43 16-61q0-35-16-62t-43-43-60-15q-34 0-61 15t-43 43-15 62m40 0q0-24 10-43t28-29 41-11 40 11 28 29 10 43-10 42-28 29-40 11-41-11-28-29-10-42m262 44l-31 20q6 13 19 26t31 21 42 9q35 0 57-20t22-50q0-21-10-34t-26-22-37-17q-12-5-23-11t-18-12-7-16q0-12 9-17t22-6q18 0 32 9t24 21l32-20q-7-13-20-23t-29-16-34-6-36 6-28 20-11 34q0 20 10 33t26 22 30 14q14 5 26 11t19 14 8 20q0 14-10 21t-26 8q-14 0-26-5t-21-14-16-20m272-159h-115v37h115v-37m-37-80h-40v310h40v-310" />
</svg>