<svg id="fnt-Joti One" viewBox="0 0 1887 1000" xmlns="http://www.w3.org/2000/svg"><path id="joti-one" class="f" d="M60 679q-16 0-32-5t-32-12l9-27q10 3 18 5t17 2q20 0 28-14t8-31q0-1-1-5t-1-15-3-39-6-75-11-121l119-8-28 262q-3 33-16 51t-30 25-39 7m284 0q-36 0-61-9t-40-20q-4-20-6-39t-1-36q0-35 10-65t25-54 32-38 27-21q22 12 44 28t40 39 30 49 11 62q0 34-10 57t-33 35-68 12m-27-44q19 0 38-3t34-7q4-16 6-32t2-32q0-47-20-87-28 15-50 40t-34 57-12 61q16 3 36 3m288 35l-50 4-21-202-46 7-3-52 44-2-8-70 125-16-10 81 49-3-1 34-53 7-26 212m174-285q-19 0-33-14t-14-33 14-33 33-13 32 13 14 33-14 33-32 14m26 285l-49 4-26-247 107-17-32 260m367 9q-39 0-67-10t-44-23q-5-22-7-43t-2-40q0-44 9-83t24-70 34-53 37-35q38 15 68 50t49 83 19 108q0 38-10 64t-35 39-75 13m-29-49q21 0 42-3t37-8q6-23 7-41t2-37q0-40-6-73t-19-59q-33 30-56 66t-35 75-12 77q9 2 19 2t21 1m281 40l-49 4-26-248 107-16-11 88h5q19-43 45-68t53-25q10 0 19 3 11 14 19 38t13 54 8 60 3 59 1 48l-90 7q0-48-1-84t-3-65-4-60q-10 3-22 13t-25 31-23 60-19 101m375 9q-39 0-69-7t-50-23q-5-20-7-36t-1-31q0-44 13-81t36-64 44-40q21 8 42 19t39 27 29 33 11 42q0 23-8 39t-30 24-62 8q-17 0-33-2t-27-4q-9 24-9 49 11 2 25 2t26 1q23 0 48-4t50-12l15 48q-20 7-41 9t-41 3m-42-119q19 0 38-2t34-5q2-10 2-19 0-18-5-32t-12-25q-28 18-46 39t-32 44q5 0 11 0t10 0" />
</svg>