<svg id="fnt-Jua" viewBox="0 0 795 1000" xmlns="http://www.w3.org/2000/svg"><path id="jua" class="f" d="M290 325q5 7 5 13 0 3 0 8t-1 7q-1 5-7 10-1 1-3 2t-5 3-6 1-7 1-6 0-7 1h-28v8q-1 45 1 90t0 90q-2 15-5 31t-10 29-17 26-28 18q-16 6-35 8t-39 1-36-9-30-18q-6-6-12-15t-7-18 1-19 14-15q9-6 17-3t15 10 15 13 17 9q21 5 34 0t20-15 11-25 4-31 0-30 0-24q1-27 0-52t0-52v-2q0-1 0-3h-1q-3-1-13-1t-20 0-21-1-13 0h-7v0q-4-1-8-2t-8-2q-9-3-14-9-3-3-4-8t-1-10q0-2 0-5t1-6q1-5 7-10 4-3 9-4 4-1 7-2t8-1q3 0 7 0t7 0h48q3 0 7 0t9-1q20 0 39 0t37 1h3q5 0 10 0t11 0q12 1 22 5 8 2 13 8m216 223q-1 16-2 33t-6 32-13 28-24 20q-14 7-30 10t-32 2-31-5-27-11-20-20-12-26-5-29-2-28q-2-34 0-68 0-6 0-15t1-16 4-15 10-10q15-8 28-1t15 29q2 12 1 26t1 25q1 17 1 37t6 35 17 23 37 1q12-3 15-17t4-42q0-12 0-26t-1-29 1-27 3-18q2-9 10-14t17-5 17 4 11 13q3 8 4 20t2 27 0 29 0 28m99-92q15-7 32-11t32-1 32 8 28 20q13 13 20 28t10 35q2 13 6 24t10 22 10 22 8 23q2 11-2 22t-17 13q-8 2-15-1t-12-8-10-12-7-11q-12 15-25 23t-33 11q-16 2-30 1t-31-6q-22-5-36-19t-21-32-7-39 5-42q7-27 21-44t32-26m13 59q-7 7-11 16t-5 20 2 21 8 19q5 7 17 11t25 6q15 1 26-8t17-23 5-29-8-29q-6-9-16-14t-21-5-22 4-17 11" />
</svg>