<svg id="fnt-Julee" viewBox="0 0 990 1000" xmlns="http://www.w3.org/2000/svg"><path id="julee" class="f" d="M24 775q-20 0-36-18t-18-53l38-18 11 7q0 18 7 30t18 12q11 0 24-18t21-62 9-117q0-15-1-40t-2-52-3-50q-5 0-10 0t-9 1q-18 0-37-5l-6-13 13-43q13 10 29 13t35 4q22 0 42-4t35-9q2 0 2 4 0 4-2 10t-5 9q-8 5-16 9t-16 8q-1 25-3 55t-4 65-6 66-7 62-10 48q-8 32-24 54t-33 33-36 12m400-94q-4 0-10-2t-9-5q-9-21-15-51t-11-58q-13 33-31 58t-37 40-37 15q-21 0-31-16t-9-41q0-44 7-90t12-93q3-3 11-5t11-2 3 2q-3 28-5 56t-2 50q0 35 6 57t24 22q17 0 37-25t36-73q0-6 0-11t0-9q0-24 1-37t3-25l40-18 13 7q-8 22-12 53t-5 59q0 14 1 34t3 41 5 39 4 26q0 2-3 2m64 1q-4 0-4-2 14-58 19-109t5-94q0-33-3-63t-8-56-9-39l13-8 40 19q6 40 5 86t-6 94-13 90-16 74q-3 3-11 6t-12 2m173-4q-31 0-48-23t-17-60q0-24 6-49t23-49 43-41 67-28q18 6 24 22t7 33q-6 24-23 42t-36 28-39 18-29 8q2 26 13 38t26 11q23 0 43-20t37-54q1-3 3-3t7 2 8 5q-13 33-32 60t-40 44-43 16m-22-119q30-8 49-21t28-27 9-26q0-7-5-12t-13-5q-11 0-27 9t-27 30-14 52m235 119q-31 0-48-23t-17-60q0-24 6-49t23-49 43-41 67-28q18 6 24 22t7 33q-6 24-23 42t-36 28-39 18-29 8q2 26 13 38t26 11q23 0 43-20t37-54q1-3 3-3t7 2 8 5q-13 33-32 60t-40 44-43 16m-22-119q30-8 49-21t28-27 9-26q0-7-5-12t-13-5q-11 0-27 9t-27 30-14 52" />
</svg>