<svg id="fnt-K2D" viewBox="0 0 954 1000" xmlns="http://www.w3.org/2000/svg"><path id="k2d" class="f" d="M35 671v-320q0-18 13-29t34-10v172l183-172q8 7 14 15t5 14q0 12-15 26l-117 110 151 181q-5 6-13 10t-14 3q-19 0-31-14l-127-150-36 34v93q0 19-11 28t-36 9m335-4q-10 0-16-6t-6-15q0-38 30-72t92-66q36-19 55-33t26-28 7-32q0-30-19-45t-56-16q-40 0-63 19t-22 53q0 9 2 19l-6 1q-18 0-31-11t-12-26q0-27 17-49t48-35 67-13q37 0 65 13t43 35 15 55q0 35-26 64t-86 60q-89 47-94 87h172q19 0 29 10t10 31h-241m322 0q-10 0-17-7t-7-15v-306q0-10 7-16t17-6h117q43 0 75 16t51 44 18 66v96q0 37-18 66t-51 45-75 17h-117m23-41h89q48 0 75-23t27-63v-97q0-40-27-63t-75-22h-89v268" />
</svg>