<svg id="fnt-Kaisei Opti" viewBox="0 0 2657 1000" xmlns="http://www.w3.org/2000/svg"><path id="kaisei-opti" class="f" d="M361 659q0 2-1 4t-3 3q-16 0-32 0t-31 0q-8 0-16-1t-13-6q-2-1-3-3t-3-4q-62-87-130-171l-18 15v144q0 9 8 11t18 2 15 0q7 0 7 7t-6 6q-17 0-33-1t-34-1q-16 0-33 1t-33 1q-4-2-4-7 0-3 0-4t5-2q3 0 6 0t6 0q4 0 11 0t12-4 5-9v-314q0-5-7-9t-10-4h-11q-4 0-7 0t-6 1q-5 0-6-3t0-7q0-4 3-4 18 0 35 1t34 1q16 0 32-1t31-1q6 0 6 7 0 2-1 4t-4 3q-5 0-11-1t-11 0-11 4-6 9v76q0 20 0 39t0 39q50-47 98-96 18-19 35-38t32-39q4-5 8-5 8 0 15 0t15 0q7 0 13 0t13 0q2 0 3 2t1 4-2 4-3 3q-14 0-27 4t-23 14l-124 118q38 48 76 95t80 94q8 8 17 10t16 3 7 6m181-51q-2-22-2-45t-1-46h-7q-15 0-34 5t-36 14-28 24-10 33q0 24 13 36t37 12q11 0 24-5t25-13 19-15m88 32q0 2-1 3-5 11-17 17t-23 6q-21 0-30-13t-15-30q-19 18-42 29t-49 12q-19 0-35-7t-26-21-10-34q0-21 10-37t28-26 36-17 36-10q12-3 24-5t23-4q0-14-1-32t-8-31q-6-11-17-20t-25-9q-23 0-36 12t-18 34q-1 2-1 5t-1 5q0 3-4 5t-6 3q-10 0-18-5t-7-15q0-6 2-10 6-16 21-26t32-16 33-5q27 0 49 10t35 29 14 48q0 33-1 66t2 66q1 11 5 19t16 8q7 0 14-3t9-3q2 0 2 2m162 19q0 3-2 5t-4 2q-14 0-28-1t-28 0h-13q-15 0-30 0t-29 1q-2 0-3-2t-1-4q0-3 1-4t3-2q2-1 5-1t7 1q3 0 6 0t7 0q7 0 12-3t6-11v-200q0-9-3-14t-12-4q-7 0-15 0t-14 2q-4 0-4-4 0-5 4-7 6-2 13-3t13-1q14-3 28-6t27-6q2-1 4-1 6 0 6 6 0 59-1 119t0 119q0 8 7 11t14 3q5 0 10 0t11-1q2 0 2 3t1 3m-41-346q0 13-9 21t-21 9-22-9-9-21 9-21 22-9 21 9 9 21m261 282q0 23-10 37t-26 22-35 10-37 3q-16 0-33-3t-32-5q-4-14-7-27t-7-27q-1-1-3-7t-1-6q0-4 2-6t6-1 5 2q3 4 5 10t5 10q4 8 7 12t9 11q20 21 49 21 16 0 29-4t21-13 8-28q0-16-10-27t-26-19-33-17-33-18-26-23-10-34q0-25 13-40t33-24 41-7q14 0 25 3t24 8q4 2 8 2t8 1q3 0 5 0t4-1q1 9 2 18t3 19q0 4 1 8t1 9q0 4-2 7t-6 4q-3 0-6-1t-3-4q-3-5-5-11t-3-10q-7-18-23-29t-34-10q-24 0-36 13t-12 37q0 8 4 16t10 13q11 10 25 15t27 11q17 8 35 18t31 26 13 36m220-104q0-20-3-39t-15-31-37-12q-24 0-39 12t-22 32-12 40q12 0 24 0t24 1q20 0 40-1t40-2m58 115q0 2-1 3-2 5-8 12t-12 13-12 9q-16 12-37 19t-41 7q-17 0-38-6t-35-15q-28-18-41-48t-13-63q0-37 14-68t47-51q14-9 32-15t35-5q29 0 52 12t35 33 13 52q0 9-4 11t-11 3q-10 0-20-1t-20-1q-14-1-28-1t-28 0q-17 0-34 0t-34 1q0 8-1 16t0 15q0 19 4 38t15 37 25 27 38 10q22 0 43-7t37-22q5-5 8-10t9-9q2-3 5-3 3 0 4 2t2 5m169 53q0 3-1 5t-4 2q-14 0-28-1t-28 0h-14q-15 0-30 0t-29 1q-2 0-3-2t0-4q0-3 0-4t3-2q3-1 6-1t6 1q4 0 7 0t6 0q7 0 13-3t6-11v-200q0-9-3-14t-13-4q-7 0-14 0t-14 2q-4 0-4-4 0-5 4-7 6-2 12-3t13-1q14-3 28-6t28-6q1-1 4-1 5 0 5 6 0 59 0 119t0 119q0 8 7 11t14 3q5 0 10 0t10-1q2 0 3 3t0 3m-40-346q0 13-9 21t-22 9-21-9-9-21 9-21 21-9 22 9 9 21m506 170q0-29-6-59t-20-56-38-41-58-16q-33 0-57 17t-38 42-21 57-7 58q0 30 6 59t20 55 38 40 59 15 59-16 37-41 20-55 6-59m55-2q0 56-21 98t-59 66-97 23q-56 0-96-23t-60-64-21-96q0-38 12-72t36-60 56-41 73-15q56 0 95 23t61 65 21 96m261 43q0-17-2-36t-8-35-20-27-35-10q-14 0-29 6t-27 19-12 26q-1 16-1 32t0 32q0 14 0 28t1 29q1 25 16 43t43 18q26 0 41-12t22-31 9-41 2-41m52 0q0 39-14 71t-42 49-69 19q-16 0-33-9t-28-19v107q0 7 5 8t11 1q5 0 9-1t9 0q7 0 7 6 0 8-8 8-15 0-31-1t-31-1q-13 0-26 1t-25 1q-4 0-5-3t0-4q0-7 7-7 4 0 8 0t8 0q3 0 10-1t7-6q0-52 0-104t0-105q0-23 0-46t-1-46q0-11-4-16t-15-4q-5 0-10 1t-10 2q-5 0-5-5 0-5 4-6 1-1 9-2t19-4 23-4 18-4 8-1q4 0 6 5 1 3 1 10t0 16 0 12q14-19 36-31t45-12q35 0 58 18t36 47 13 60m201 120q0 4-7 9t-16 8-19 5-12 2q-26 0-41-6t-20-22-5-40q0-42 0-84t1-83h-36q-4 0-6 2t-5 2-2-4q0-2 2-8t4-8q2 1 5 1h39l0-64q12-7 21-17t19-18q1-1 2-2t2-1q5 0 5 4l-3 97q16 0 31 0t32-1q6 0 6 8 0 9-8 9h-61q0 38-1 76t0 77v39q0 12 11 17t20 5q14 0 28-5 1-1 4-2t5-1q5 0 5 5m162 15q0 3-1 5t-4 2q-14 0-28-1t-28 0h-14q-15 0-30 0t-29 1q-2 0-3-2t0-4q0-3 0-4t3-2q3-1 6-1t6 1q4 0 7 0t6 0q7 0 13-3t6-11v-200q0-9-3-14t-13-4q-7 0-14 0t-14 2q-4 0-4-4 0-5 4-7 6-2 12-3t13-1q14-3 28-6t28-6q1-1 4-1 5 0 5 6 0 59 0 119t0 119q0 8 7 11t14 3q5 0 10 0t10-1q2 0 3 3t0 3m-40-346q0 13-9 21t-22 9-21-9-9-21 9-21 21-9 22 9 9 21" />
</svg>