<svg id="fnt-Kaisei HarunoUmi" viewBox="0 0 4448 1000" xmlns="http://www.w3.org/2000/svg"><path id="kaisei-harunoumi" class="f" d="M361 659q0 2-1 4t-3 3q-16 0-32 0t-31 0q-8 0-16-1t-13-6q-2-1-3-3t-3-4q-62-87-130-171l-18 15v144q0 9 8 11t18 2 15 0q7 0 7 7t-6 6q-17 0-33-1t-34-1q-16 0-33 1t-33 1q-4-2-4-7 0-3 0-4t5-2q3 0 6 0t6 0q4 0 11 0t12-4 5-9v-314q0-5-7-9t-10-4h-11q-4 0-7 0t-6 1q-5 0-6-3t0-7q0-4 3-4 18 0 35 1t34 1q16 0 32-1t31-1q6 0 6 7 0 2-1 4t-4 3q-5 0-11-1t-11 0-11 4-6 9v76q0 20 0 39t0 39q50-47 98-96 18-19 35-38t32-39q4-5 8-5 8 0 15 0t15 0q7 0 13 0t13 0q2 0 3 2t1 4-2 4-3 3q-14 0-27 4t-23 14l-124 118q38 48 76 95t80 94q8 8 17 10t16 3 7 6m181-51q-2-22-2-45t-1-46h-7q-15 0-34 5t-36 14-28 24-10 33q0 24 13 36t37 12q11 0 24-5t25-13 19-15m88 32q0 2-1 3-5 11-17 17t-23 6q-21 0-30-13t-15-30q-19 18-42 29t-49 12q-19 0-35-7t-26-21-10-34q0-21 10-37t28-26 36-17 36-10q12-3 24-5t23-4q0-14-1-32t-8-31q-6-11-17-20t-25-9q-23 0-36 12t-18 34q-1 2-1 5t-1 5q0 3-4 5t-6 3q-10 0-18-5t-7-15q0-6 2-10 6-16 21-26t32-16 33-5q27 0 49 10t35 29 14 48q0 33-1 66t2 66q1 11 5 19t16 8q7 0 14-3t9-3q2 0 2 2m162 19q0 3-2 5t-4 2q-14 0-28-1t-28 0h-13q-15 0-30 0t-29 1q-2 0-3-2t-1-4q0-3 1-4t3-2q2-1 5-1t7 1q3 0 6 0t7 0q7 0 12-3t6-11v-200q0-9-3-14t-12-4q-7 0-15 0t-14 2q-4 0-4-4 0-5 4-7 6-2 13-3t13-1q14-3 28-6t27-6q2-1 4-1 6 0 6 6 0 59-1 119t0 119q0 8 7 11t14 3q5 0 10 0t11-1q2 0 2 3t1 3m-41-346q0 13-9 21t-21 9-22-9-9-21 9-21 22-9 21 9 9 21m261 282q0 23-10 37t-26 22-35 10-37 3q-16 0-33-3t-32-5q-4-14-7-27t-7-27q-1-1-3-7t-1-6q0-4 2-6t6-1 5 2q3 4 5 10t5 10q4 8 7 12t9 11q20 21 49 21 16 0 29-4t21-13 8-28q0-16-10-27t-26-19-33-17-33-18-26-23-10-34q0-25 13-40t33-24 41-7q14 0 25 3t24 8q4 2 8 2t8 1q3 0 5 0t4-1q1 9 2 18t3 19q0 4 1 8t1 9q0 4-2 7t-6 4q-3 0-6-1t-3-4q-3-5-5-11t-3-10q-7-18-23-29t-34-10q-24 0-36 13t-12 37q0 8 4 16t10 13q11 10 25 15t27 11q17 8 35 18t31 26 13 36m220-104q0-20-3-39t-15-31-37-12q-24 0-39 12t-22 32-12 40q12 0 24 0t24 1q20 0 40-1t40-2m58 115q0 2-1 3-2 5-8 12t-12 13-12 9q-16 12-37 19t-41 7q-17 0-38-6t-35-15q-28-18-41-48t-13-63q0-37 14-68t47-51q14-9 32-15t35-5q29 0 52 12t35 33 13 52q0 9-4 11t-11 3q-10 0-20-1t-20-1q-14-1-28-1t-28 0q-17 0-34 0t-34 1q0 8-1 16t0 15q0 19 4 38t15 37 25 27 38 10q22 0 43-7t37-22q5-5 8-10t9-9q2-3 5-3 3 0 4 2t2 5m169 53q0 3-1 5t-4 2q-14 0-28-1t-28 0h-14q-15 0-30 0t-29 1q-2 0-3-2t0-4q0-3 0-4t3-2q3-1 6-1t6 1q4 0 7 0t6 0q7 0 13-3t6-11v-200q0-9-3-14t-13-4q-7 0-14 0t-14 2q-4 0-4-4 0-5 4-7 6-2 12-3t13-1q14-3 28-6t28-6q1-1 4-1 5 0 5 6 0 59 0 119t0 119q0 8 7 11t14 3q5 0 10 0t10-1q2 0 3 3t0 3m-40-346q0 13-9 21t-22 9-21-9-9-21 9-21 21-9 22 9 9 21m587-7q0 4-1 5t-5 2q-5 0-10 0t-10 0q-6 0-13 3t-7 10v315q0 7 7 10t13 3 10 0 11-1q4 0 4 5 0 2 0 3t0 3q0 3-3 3-18 0-36-1t-35-1q-10 0-21 1t-20 1q-6 0-13 1t-12 0q-3 0-3-5 0-2 0-6t3-3q6 0 12 0t11 0 13-3 8-10v-158h-202v158q0 7 7 10t13 3 10 0 11-1q4 0 4 3 1 0 1 2t0 4q0 1-1 4-2 1-3 1-18 0-35-1t-35-1q-10 0-21 1t-20 1q-6 0-12 1t-13 0q-3 0-2-2-1-3-1-4 0-2 0-5t4-3q5 0 11 0t11 0q6 0 13-3t8-10q0-43 0-86t0-85q0-36 0-72t0-71q0-7-8-10t-13-3q-5 0-11 0t-11 0q-4 0-4-4t-1-6q0-4 4-4 7 0 13 0t12 1q10 1 20 1t21 1q18 0 35-1t36-1q3 0 3 3t0 5q0 6-5 6-5 0-11-1t-10 0-13 3-7 10v139h202v-135q0-10-6-14t-15-3q-5 0-11 0t-12 0q-3 0-3-3t0-5q0-6 4-6 12 0 24 1t26 1h15q18 0 35-1t36-1q2 0 3 2t1 4m191 302q-2-22-2-45t-1-46h-7q-15 0-34 5t-36 14-28 24-10 33q0 24 13 36t37 12q11 0 24-5t25-13 19-15m88 32q0 2-1 3-5 11-17 17t-23 6q-21 0-30-13t-15-30q-19 18-42 29t-49 12q-19 0-35-7t-26-21-10-34q0-21 10-37t28-26 36-17 36-10q12-3 24-5t23-4q0-14-1-32t-8-31q-6-11-17-20t-25-9q-23 0-36 12t-18 34q-1 2-1 5t-1 5q0 3-4 5t-6 3q-10 0-18-5t-7-15q0-6 2-10 6-16 21-26t32-16 33-5q27 0 49 10t35 29 14 48q0 33-1 66t2 66q1 11 5 19t16 8q7 0 14-3t9-3q2 0 2 2m221-196q0 5-4 9t-9 5q-8 0-11-5t-6-12-6-11-15-5q-2 0-4 0t-4 0q-8 2-18 11t-20 21-15 24-6 20-1 16 0 15q0 27 0 54t1 54q0 7 6 10t13 4q5 0 10-1t10 0q2 0 3 2t1 4q0 8-8 8-15 0-30-1t-30 0q-15 0-31 1t-32 1q-2 0-3-3t0-5q0-5 4-6 5-1 11 0t11 0q8 0 12-3t6-11q1-16 1-33t0-33v-48q0-22 0-43t-2-42q0-10-5-15t-15-4q-4 0-9 1t-8 1q-4 0-4-6 0-4 3-5 5-2 11-3t10-1q14-2 27-5t27-6q5 2 7 6 1 2 1 11t1 20 0 22 0 15q11-18 25-35t32-29 40-12q12 0 16 8t4 17q1 6 2 12t1 11m313 209q0 6-9 9t-19 4-15 1q-17 0-27-13t-15-28q-17 21-42 32t-53 10q-45 0-63-23t-17-66q0-37 0-75t1-75q0-15-14-15-4 0-8 0t-8 1q-2 0-3-2t0-3q0-5 5-6 17-2 35-3t35-2q4 4 4 10 0 12 0 25t-1 26q0 31-1 61t0 62q0 10 1 20t4 20q5 14 20 20t30 6q15 0 31-6t27-17 13-28q1-9 1-18t0-17l0-136q0-6-5-9t-9-3q-5 0-10 0t-10 1q-4 0-4-5t4-6q6-1 13-1t13-1l34-3q4-1 7-1t8-1q2 0 3 3t1 4q-1 109-1 217 0 12 5 20t20 8q4 0 7-1t7-1q5 0 5 5m314 6q0 7-8 7-11 0-22-1t-23-1q-17 0-35 1t-35 1q-2 0-3-4t0-5q0-4 5-4t8 0q2 0 5 0t5 1q15 0 16-15 2-29 1-59t0-60q0-5 0-11t0-11q0-12-1-29t-5-27q-8-26-35-26-24 0-45 13t-35 31q-1 37-1 73t0 72v34q0 8 7 11t13 4q4 0 7-1t8-1q2 0 2 3t1 4q0 2-2 4t-4 3q-11 0-22-1t-21-1q-17 0-34 1t-35 1q-2 0-3-4t0-5q0-4 5-4t7 0 5 0 5 1q14 0 16-15 0-7 0-14t0-14q0-43 0-86t0-86q0-7-3-14t-12-7q-6 0-12 2t-13 2q-3 0-3-5 0-1 0-3t1-1 1-1 2-1q9-2 18-3t19-3q9-2 17-5t16-2q3 0 5 3 3 5 4 13t2 17 1 14q11-11 26-22t32-18 33-7q46 0 62 20t17 64q0 39-1 78t0 78q0 9 6 12t14 4q4 0 8-1t7-1q3 0 4 2t2 5m243-124q0-22-4-44t-12-40-25-30-43-11q-25 0-41 12t-24 31-12 41-3 42q0 21 3 43t12 38 26 28 43 11q26 0 42-11t24-29 11-40 3-41m51 1q0 38-18 68t-48 47-67 18q-37 0-66-18t-47-48-18-66q0-37 17-69t47-51 69-20q42 0 71 18t45 49 15 72m395-228q0 5-3 6t-6 1q-4 0-7 0t-7 0q-7 0-14 2t-8 11q0 8 0 17t0 18q0 41 0 82t1 83q0 43-12 74t-41 50-73 17q-67 0-105-32t-38-101v-199q0-3 0-6t0-4q-1-10-10-12t-17-2q-3 0-7 0t-8 1q-1 0-3-2-1-2-1-6 0-5 7-5 5 0 10 0t10 1q12 0 23 0t22 1q17 0 34-1t35-1q7 0 7 6 0 2-1 4t-4 3q-7 0-13 0t-12 0q-6 0-13 3t-8 9q-1 8-1 17t1 18q0 46-1 91t0 91q0 36 7 60t28 36 60 13q39 0 61-16t33-44 10-62q0-51 0-101t0-101q0-7-8-10t-13-3-12 0-13 1q-3 0-3-5 0-4 0-7t6-3q7 0 14 1t15 1q25 0 49-2 7 0 13 0t12-1q3 0 3 3t1 5m462 352q0 7-6 7-14 0-28-1t-29-1-30 1-29 1q-2 0-3-2t0-4q0-5 4-6t11 0 9 0q7 0 11-3t5-11q0-33 0-66t1-66q0-6 0-11t0-11q-1-12-2-25t-4-24-12-18-24-7q-12 0-26 6t-26 16-21 17q1 7 1 14t0 15q0 14 0 29t1 29q0 26-1 51t0 51q0 8 7 11t13 3q4 0 8-1t8 0q2 0 3 2t1 4q0 3-2 5t-4 2q-14 0-29-1t-28-1q-14 0-29 1t-29 1q-2 0-3-2t-1-4q0-4 4-6 4-1 10 0t10 0q7 0 11-3t5-11v-127q0-11 0-26t-2-31-6-24q-3-9-12-14t-18-5q-13 0-26 6t-26 16-20 19v186q0 7 5 10t12 4q4 0 8-1t8-1q2 0 2 3t1 4q0 2-2 4t-4 3q-9 0-19-1t-19-1q-19 0-38 1t-38 1q-2 0-3-3t-1-4q0-6 5-6 6 0 11 0t10 1q7 0 12-4t5-10q0-51-1-102t0-101q0-5-1-11t-6-7q-4-2-8-2-6 0-13 2t-13 2q-5 0-5-6 0-4 3-5 3-1 6-2t6 0q12-2 23-4t23-5q4-1 9-2t9-1q6 0 8 9t2 19 1 14q10-9 23-19t28-16 29-7q25 0 43 8t30 32q11-9 25-19t29-17 30-6q33 0 50 9t24 29 6 51q0 39 0 78t-1 79q0 8 7 11t13 3q4 0 8-1t7 0q2 0 3 2t1 4m163-1q0 3-2 5t-4 2q-14 0-28-1t-28 0h-13q-15 0-30 0t-29 1q-2 0-3-2t-1-4q0-3 1-4t3-2q2-1 5-1t7 1q3 0 6 0t7 0q7 0 12-3t6-11v-200q0-9-3-14t-12-4q-7 0-15 0t-14 2q-4 0-4-4 0-5 4-7 6-2 13-3t13-1q14-3 28-6t27-6q2-1 4-1 6 0 6 6 0 59-1 119t0 119q0 8 7 11t14 3q5 0 10 0t11-1q2 0 2 3t1 3m-41-346q0 13-9 21t-21 9-22-9-9-21 9-21 22-9 21 9 9 21" />
</svg>