<svg id="fnt-Kaisei Decol" viewBox="0 0 3019 1000" xmlns="http://www.w3.org/2000/svg"><path id="kaisei-decol" class="f" d="M361 659q0 2-1 4t-3 3q-16 0-32 0t-31 0q-8 0-16-1t-13-6q-2-1-3-3t-3-4q-62-87-130-171l-18 15v144q0 9 8 11t18 2 15 0q7 0 7 7t-6 6q-17 0-33-1t-34-1q-16 0-33 1t-33 1q-4-2-4-7 0-3 0-4t5-2q3 0 6 0t6 0q4 0 11 0t12-4 5-9v-314q0-5-7-9t-10-4h-11q-4 0-7 0t-6 1q-5 0-6-3t0-7q0-4 3-4 18 0 35 1t34 1q16 0 32-1t31-1q6 0 6 7 0 2-1 4t-4 3q-5 0-11-1t-11 0-11 4-6 9v76q0 20 0 39t0 39q50-47 98-96 18-19 35-38t32-39q4-5 8-5 8 0 15 0t15 0q7 0 13 0t13 0q2 0 3 2t1 4-2 4-3 3q-14 0-27 4t-23 14l-124 118q38 48 76 95t80 94q8 8 17 10t16 3 7 6m181-51q-2-22-2-45t-1-46h-7q-15 0-34 5t-36 14-28 24-10 33q0 24 13 36t37 12q11 0 24-5t25-13 19-15m88 32q0 2-1 3-5 11-17 17t-23 6q-21 0-30-13t-15-30q-19 18-42 29t-49 12q-19 0-35-7t-26-21-10-34q0-21 10-37t28-26 36-17 36-10q12-3 24-5t23-4q0-14-1-32t-8-31q-6-11-17-20t-25-9q-23 0-36 12t-18 34q-1 2-1 5t-1 5q0 3-4 5t-6 3q-10 0-18-5t-7-15q0-6 2-10 6-16 21-26t32-16 33-5q27 0 49 10t35 29 14 48q0 33-1 66t2 66q1 11 5 19t16 8q7 0 14-3t9-3q2 0 2 2m162 19q0 3-2 5t-4 2q-14 0-28-1t-28 0h-13q-15 0-30 0t-29 1q-2 0-3-2t-1-4q0-3 1-4t3-2q2-1 5-1t7 1q3 0 6 0t7 0q7 0 12-3t6-11v-200q0-9-3-14t-12-4q-7 0-15 0t-14 2q-4 0-4-4 0-5 4-7 6-2 13-3t13-1q14-3 28-6t27-6q2-1 4-1 6 0 6 6 0 59-1 119t0 119q0 8 7 11t14 3q5 0 10 0t11-1q2 0 2 3t1 3m-41-346q0 13-9 21t-21 9-22-9-9-21 9-21 22-9 21 9 9 21m261 282q0 23-10 37t-26 22-35 10-37 3q-16 0-33-3t-32-5q-4-14-7-27t-7-27q-1-1-3-7t-1-6q0-4 2-6t6-1 5 2q3 4 5 10t5 10q4 8 7 12t9 11q20 21 49 21 16 0 29-4t21-13 8-28q0-16-10-27t-26-19-33-17-33-18-26-23-10-34q0-25 13-40t33-24 41-7q14 0 25 3t24 8q4 2 8 2t8 1q3 0 5 0t4-1q1 9 2 18t3 19q0 4 1 8t1 9q0 4-2 7t-6 4q-3 0-6-1t-3-4q-3-5-5-11t-3-10q-7-18-23-29t-34-10q-24 0-36 13t-12 37q0 8 4 16t10 13q11 10 25 15t27 11q17 8 35 18t31 26 13 36m220-104q0-20-3-39t-15-31-37-12q-24 0-39 12t-22 32-12 40q12 0 24 0t24 1q20 0 40-1t40-2m58 115q0 2-1 3-2 5-8 12t-12 13-12 9q-16 12-37 19t-41 7q-17 0-38-6t-35-15q-28-18-41-48t-13-63q0-37 14-68t47-51q14-9 32-15t35-5q29 0 52 12t35 33 13 52q0 9-4 11t-11 3q-10 0-20-1t-20-1q-14-1-28-1t-28 0q-17 0-34 0t-34 1q0 8-1 16t0 15q0 19 4 38t15 37 25 27 38 10q22 0 43-7t37-22q5-5 8-10t9-9q2-3 5-3 3 0 4 2t2 5m169 53q0 3-1 5t-4 2q-14 0-28-1t-28 0h-14q-15 0-30 0t-29 1q-2 0-3-2t0-4q0-3 0-4t3-2q3-1 6-1t6 1q4 0 7 0t6 0q7 0 13-3t6-11v-200q0-9-3-14t-13-4q-7 0-14 0t-14 2q-4 0-4-4 0-5 4-7 6-2 12-3t13-1q14-3 28-6t28-6q1-1 4-1 5 0 5 6 0 59 0 119t0 119q0 8 7 11t14 3q5 0 10 0t10-1q2 0 3 3t0 3m-40-346q0 13-9 21t-22 9-21-9-9-21 9-21 21-9 22 9 9 21m511 166q0-21-5-45t-13-44-24-37q-14-14-33-24t-38-11q-6-1-13-1t-12 0q-19 0-39 0t-38 1v308q0 15 10 19t22 5q20 0 41-2t42-7 37-18q35-26 49-65t14-79m55-8q0 50-21 94t-63 71q-18 11-41 17t-46 10-44 3q-18 0-36-1t-37-1q-14 0-29 0t-30 2q-2 0-5 0t-5 0q-3 0-3-2t-1-5q0-3 5-5t12-2 9-3q8-4 11-13t3-18q0-27 0-55t0-54v-46q0-28 0-55t0-54q0-19-4-27t-25-8q-4 0-7 0t-7 0-6-2-3-6q0-8 8-8 12 0 23 1t23 1q37 0 74-3t74-2q54 0 92 21t59 58 20 92m227 20q0-20-3-39t-15-31-37-12q-24 0-39 12t-22 32-12 40q12 0 24 0t24 1q20 0 40-1t40-2m58 115q0 2-1 3-2 5-8 12t-12 13-12 9q-16 12-37 19t-41 7q-17 0-38-6t-35-15q-28-18-41-48t-13-63q0-37 14-68t47-51q14-9 32-15t35-5q29 0 52 12t35 33 13 52q0 9-4 11t-11 3q-10 0-20-1t-20-1q-14-1-28-1t-28 0q-17 0-34 0t-34 1q0 8-1 16t0 15q0 19 4 38t15 37 25 27 38 10q22 0 43-7t37-22q5-5 8-10t9-9q2-3 5-3 3 0 4 2t2 5m273-1q0 3-5 9t-8 9q-5 5-9 9t-10 9q-16 11-37 18t-41 8q-38 0-67-17t-45-46-16-66q0-37 15-70t48-52q14-9 31-14t33-5q13 0 24 3t23 8q7 3 13 6t13 3q6 0 9-4t6-3q2 0 2 2 1 6 0 12t1 11q0 11 1 22t1 22v2q0 5-1 8t-8 3q-4 0-5-4t-2-7q-4-14-11-31t-19-26q-7-7-19-12t-21-4q-24 0-41 12t-26 31-15 42-5 41 5 40 14 38 26 28 39 10q32 0 54-12t41-36q2-3 6-3 6 0 6 6m243-70q0-22-3-44t-12-40-25-30-43-11q-25 0-41 12t-25 31-12 41-3 42q0 21 3 43t13 38 25 28 44 11q26 0 41-11t24-29 11-40 3-41m52 1q0 38-18 68t-48 47-68 18q-36 0-66-18t-47-48-17-66q0-37 17-69t46-51 69-20q42 0 72 18t44 49 16 72m180 124q0 3-1 5t-4 2q-16 0-32-1t-32 0h-17q-11 0-21 0t-21 1q-2 0-3-2t-1-3 0-3 1-3q1-2 5-2t10 0 7 0q7 0 13-3t5-11q0-39 1-77t0-76q0-39 0-79t0-78q0-3-1-8t-3-6q-2-3-4-3t-5 0q-9 0-18 3t-17 3q-5 0-5-7 0-4 6-5t10-2q17-4 38-9t37-12q1 0 2 0t1-1q3 0 4 2t1 5q0 14-1 27t0 28v140q0 39 1 77t0 78q0 8 7 11t13 3q6 0 11 0t10-1q2 0 3 3t0 4" />
</svg>