<svg id="fnt-Kalnia" viewBox="0 0 1621 1000" xmlns="http://www.w3.org/2000/svg"><path id="kalnia" class="f" d="M309 674q-13 0-25-7t-22-22-26-44q-9-17-19-32t-21-28-25-25-30-21h-26v160l31 7v5h-119v-5l31-7v-331l-31-6v-5h88v175q8 0 16-1t15-1q15-1 29-10t26-22 23-28q8-14 14-28t10-27 3-23q0-14-9-22t-27-8v-5h120v5l-30 6q0 17-6 35t-16 37-25 34q-14 17-32 29t-33 21-30 10v2q23 1 40 6t32 15 25 25 21 37q13 29 23 46t18 26 16 11q5 2 11 0v5q-7 5-14 7t-14 3-12 1m203-265q29 0 49 7t35 21 19 35 6 50v127q0 8 3 11t9 4q6 0 14-4t15-9v6q-6 5-14 9t-17 6-18 2q-22 0-34-12t-13-38q0-10 0-15t0-7 0-5l-4-3q-9 19-23 34t-29 25-33 16-34 5q-19 0-34-6t-24-19-9-30q0-42 49-65t141-22q0-42-6-67t-23-36-44-11q-18 0-33 3t-22 8-7 8q0 3 4 5t18 8q23 9 23 26 0 15-13 22t-32 8q-18 0-31-8t-12-23q0-12 10-24t27-21 40-15 47-6m54 163v-34q-47 0-78 10t-46 28-15 39q0 13 5 21t14 13 21 4q12 0 26-5t29-15 25-25 19-36m211-278v363l28 5v5h-111v-5l28-5v-340h-31v-6l86-17m336 363l31 5v5h-114v-5l28-5v-167q0-30-10-45t-31-15q-13 0-27 8t-25 22-22 29-17 30v138l29 5v5h-111v-5l27-5v-225h-30v-6l85-17v82l4 4q14-26 31-46t37-29 43-11q20 0 34 6t22 18 12 28 4 36v160m119-288q-13 0-23-4t-16-11-5-16q0-10 5-17t16-10 23-4 23 4 15 10 6 17q0 9-6 16t-15 11-23 4m58 298h-111v-5l28-5v-225h-31v-6l86-17v248l28 5v5m179-258q29 0 50 7t34 21 20 35 6 50v127q0 8 3 11t9 4q6 0 13-4t16-9v6q-6 5-15 9t-17 6-17 2q-22 0-35-12t-12-38q0-10 0-15t0-7 0-5l-4-3q-10 19-23 34t-30 25-33 16-34 5q-18 0-33-6t-24-19-9-30q0-42 48-65t142-22q0-42-7-67t-22-36-44-11q-19 0-33 3t-22 8-8 8q0 3 5 5t17 8q23 9 23 26 0 15-13 22t-31 8q-18 0-31-8t-13-23q0-12 10-24t28-21 39-15 47-6m55 163v-34q-48 0-79 10t-46 28-15 39q0 13 5 21t15 13 20 4q13 0 27-5t28-15 26-25 19-36" />
</svg>