<svg id="fnt-Kanit" viewBox="0 0 1171 1000" xmlns="http://www.w3.org/2000/svg"><path id="kanit" class="f" d="M86 667h-54v-322h54v148l137-148h63l-118 130 123 192h-58l-99-158-48 51v107m315 5q-23 0-42-8t-31-25-11-40q0-34 23-55t72-20h76v-11q0-17-6-27t-19-14-40-5q-42 0-78 13v-41q16-6 39-10t49-4q52 0 79 21t28 68v153h-47l-3-24q-15 14-36 21t-53 8m14-39q25 0 43-9t30-22v-41h-75q-24 0-35 9t-11 28q0 19 13 27t35 8m240 34h-55v-237h50l3 25q16-13 38-22t49-8q46 0 67 21t21 67v154h-54v-151q0-28-11-39t-42-11q-19 0-37 8t-29 19v174m314-287h-60v-45h60v45m-1 287h-54v-196h-36l5-41h85v237m154 5q-38 0-57-21t-18-55v-124h-35v-42h35v-55l54-16v71h63l-4 42h-59v121q0 21 9 29t31 8q14 0 29-5v39q-20 8-48 8" />
</svg>