<svg id="fnt-Kantumruy Pro" viewBox="0 0 3433 1000" xmlns="http://www.w3.org/2000/svg"><path id="kantumruy-pro" class="f" d="M251 337h47l-137 146-5 5-84 90 0-49 179-192m-197 0h36v330h-36v-330m82 143l29-21 135 208h-43l-121-187m343 95v-71q0-28-15-45t-42-16q-25 0-43 12t-26 37l-29-18q10-28 35-45t64-17q26 0 47 9t33 28 12 48v122q0 21 19 21 4 0 9-1t9-2l-2 28q-4 2-11 4t-14 1q-13 0-24-5t-17-17-6-28v-7l9 1q-5 20-19 32t-32 19-35 7q-33 0-56-17t-23-50q0-27 17-46t51-25l96-20v30l-79 17q-24 5-36 15t-12 27q0 17 12 27t35 10q14 0 27-4t23-11 17-21 6-29m157 92h-36v-250h32l3 57-6-5q11-30 35-44t53-13q25 0 46 10t33 31 13 53v161h-36v-148q0-42-18-59t-43-17q-18 0-36 9t-29 29-11 51v135m274-311l36-10v252q0 20 10 30t26 10q14 0 24-5t18-13l12 30q-11 10-26 16t-33 6q-28 0-48-16t-19-51v-249m-47 61h169v31h-169v-31m311 255q-23 0-43-10t-33-29-12-52v-164h36v155q0 34 15 51t46 17q15 0 28-5t23-17 17-26 6-37v-138h36v250h-32l-2-42q-8 16-20 26t-29 16-36 5m247-5h-36v-250h31l3 42q12-24 34-36t47-11q27 0 50 12t34 40q7-18 21-29t32-18 34-5q24 0 45 10t34 31 14 53v161h-36v-157q0-35-18-51t-43-16q-20 0-37 10t-27 29-11 46v139h-36v-157q0-35-17-51t-43-16q-17 0-35 9t-29 29-11 50v136m468 0h-36v-250h30l5 44q9-24 28-37t45-12q7 0 14 1t12 5l-6 32q-5-2-11-4t-17-1q-15 0-30 10t-24 29-10 46v137m240 5q-23 0-43-10t-33-29-12-52v-164h36v155q0 34 15 51t46 17q15 0 28-5t23-17 17-26 6-37v-138h36v250h-32l-2-42q-8 16-20 26t-29 16-36 5m366-255h39l-113 293q-8 21-18 35t-23 22-34 7q-15 0-29-5t-23-12l10-31q9 9 20 13t21 4q13 0 24-9t21-33l13-35-25-60-75-189h40l63 170 14 41 16-46 59-165m254-80h110q48 0 77 26t30 73-30 73-77 27h-74v131h-36v-330m36 165h69q38 0 56-17t18-49-18-49-56-17h-69v132m285 165h-36v-250h30l5 44q9-24 28-37t45-12q7 0 14 1t12 5l-6 32q-5-2-11-4t-17-1q-15 0-30 10t-24 29-10 46v137m246-255q34 0 60 15t41 45 15 70-15 69-41 45-60 16q-34 0-60-16t-41-45-15-69 15-70 41-45 60-15m0 31q-25 0-43 12t-28 34-9 53q0 30 9 52t28 35 43 12q25 0 42-12t28-35 10-52q0-31-10-53t-28-34-42-12" />
</svg>