<svg id="fnt-Karma" viewBox="0 0 1463 1000" xmlns="http://www.w3.org/2000/svg"><path id="karma" class="f" d="M201 328h86t0 4q0 14-7 17-4 2-28 3l-109 132 114 159 30 3q2 6-1 13t-12 8h-46l-108-155-24 29v101l37 3q2 22-13 22h-99v-4q0-13 7-17 4-2 9-2l23-1v-290l-37-3q-2-22 14-22h97v4q0 14-7 17-3 2-8 2l-23 1v153l123-152-32-3q-2-22 14-22m309 319l33 4q0 24-31 24t-36-32q-32 31-77 31-35 0-55-18t-20-48 22-51 75-21q30 0 54 7v-40q0-28-15-46t-41-17-40 15-13 34q-12 1-20-5t-8-19q0-22 22-36t57-14q31 0 58 15 16 8 25 26t10 45v146m-35-27v-47q-23-13-54-13t-45 12-14 31 13 32 34 12q35 0 66-27m172-165q15-16 37-28t36-12 24 6 9 22q0 26-9 35-6 6-20 5 0-36-19-36-24 0-58 34v162l43 3q2 21-14 21h-100v-4q0-12 7-15 3-2 8-3l21-1v-195l-27-3q-11-1-11-21l68-8 3 38h2m547 212h-95v-4q0-12 7-15 4-2 9-3l20-1v-125q0-73-59-73-20 0-36 9t-34 26q5 14 5 35v127l37 3q2 21-13 21h-95v-4q0-12 7-15 3-2 8-3l21-1v-125q0-36-16-54t-44-19q-19 0-34 8t-32 24v165l38 3q2 21-14 21h-95v-4q0-12 7-15 3-2 8-3l21-1v-198l-22-1q-16 0-16-21l65-9 6 35h1q34-35 75-35 23 0 43 11t32 34q17-20 37-33t51-12 57 24 26 77v127l38 3q2 21-14 21m235-20l33 4q0 24-31 24t-36-32q-32 31-77 31-35 0-55-18t-20-48 22-51 75-21q30 0 54 7v-40q0-28-15-46t-41-17-40 15-13 34q-12 1-20-5t-8-19q0-22 22-36t57-14q31 0 58 15 16 8 25 26t10 45v146m-35-27v-47q-23-13-54-13t-45 12-14 31 13 32 34 12q35 0 66-27" />
</svg>