<svg id="fnt-Katibeh" viewBox="0 0 1219 1000" xmlns="http://www.w3.org/2000/svg"><path id="katibeh" class="f" d="M231 644l4 6q-11 11-23 16t-25 5q-20 0-30-10t-20-34l-19-49q-6-14-12-20t-18-6v54q0 23 4 32t18 23l-4 6h-90l-3-9q12-4 18-7t7-9 2-17v-130q0-24-4-34t-17-21l4-7h87l3 8q-16 9-20 16t-5 26v62h2l59-68q5-5 6-10t3-9q0-4-4-14l-3-5 6-6h59l3 9-11 4q-14 6-27 20l-70 80q26 2 41 10t22 26l23 58q3 7 6 9t9 3q8 0 19-8m66-88q-11 6-25 6-11 0-17-6t-6-18q0-17 17-27t44-10q32 0 50 14t18 38v86q0 14 10 14 10 0 19-7l4 5q-19 20-44 20-15 0-23-7t-9-24h-2q-8 15-22 23t-30 8q-19 0-30-12t-12-30q0-22 21-34t55-13q7 0 19 1v-25q0-24-6-35t-20-11q-9 0-15 6t-5 16q0 15 9 22m7 90q30 0 30-53-25 0-38 8t-12 23q0 10 5 16t15 6m173 25q-21 0-30-9t-9-30v-106h-25q0-9 1-11t6-4q17-5 26-14t16-28q1-5 5-7t17-1v45h41q0 7-2 12t-6 8h-33v112q0 15 12 15 6 0 12-3t13-10l4 5q-22 26-48 26m126-33q0 15 9 15t19-7l4 5q-19 20-44 20-18 0-26-9t-8-30v-99q0-7-6-7h-16l-1-6q10-8 25-14t30-5q6 0 10 3t4 8v126m-51-185q0-9 10-20t19-11q9 0 19 11t10 20q0 9-10 20t-19 11q-9 0-19-11t-10-20m197 48q20 0 36 10t25 28 10 41q0 26-13 46t-33 33-48 12q-18 0-36-5t-30-15v-198q0-4-1-5t-5-2h-16l-1-5q9-9 24-14t31-5q6 0 10 2t4 8v84q7-7 18-11t25-4m-21 159q42 0 42-72 0-35-11-54t-30-19q-12 0-23 8v132q11 5 22 5m211-5q14 0 25-6t22-17l6 4q-12 17-30 26t-38 9q-23 0-42-11t-28-30-11-44q0-39 24-62t63-23q28 0 46 13t18 34q0 24-21 38t-55 15q-14 0-25-2 2 26 15 41t31 15m-14-142q-16 0-25 18t-8 53v8q5 0 13-1 21-3 32-14t12-30q0-15-7-25t-17-9m261 125q0 15 10 15t18-7l4 5q-18 20-43 20-18 0-26-9t-8-30v-77q0-29-18-29-18 0-29 25t-11 64q0 15 2 24t8 18l4 5-4 5h-73l-3-9 7-1q8-2 11-7t2-16v-179q0-4-2-6t-4-3h-16l-2-5q10-9 25-14t30-5q7 0 11 2t4 8v124q7-24 24-40t38-15q22 0 31 14t10 44v79" />
</svg>