<svg id="fnt-Kavivanar" viewBox="0 0 2072 1000" xmlns="http://www.w3.org/2000/svg"><path id="kavivanar" class="f" d="M47 320q0-6 6-14t13-13 10-5q9-2 9 6l-19 208 177-200q7-7 14-12t12-2 2 8-9 15l-111 126 114 213q2 4-2 11t-11 15-15 9-9-2l-111-208-54 61-10 118q-1 5-7 13t-12 13-11 5q-9 3-8-5l32-360m490 313q7-1 8 3t-5 13-17 18-27 16q-27 11-34-10-3-9-2-32-26 32-53 41t-49 3q-72-20-43-165 9-48 33-79 41-53 101-45 25 3 39 19 11-16 24-19 4-1 6 1t2 6q-29 211-21 238 4 12 13 7 4-2 12-8t13-7m-75-42q4-40 5-51 13-98-48-106-15-2-26 1-15 3-21 9-12 16-20 57t-7 73q3 62 44 73 31 9 48-11 13-15 25-45m122-173q5-7 12-14t14-8 8 3l60 214 81-190q3-7 10-15t14-10 11-1 0 11l-106 251q-8 18-25 25-10 5-12-2l-71-251q-1-5 4-13m263 10q0-6 6-14t13-12 11-5q9-2 8 5l-27 252q0 6-6 14t-13 12-11 5q-9 2-8-6l27-251m2-86q1-6 6-14t13-12 11-6q9-2 8 6l-2 35q-1 5-7 13t-12 13-11 5q-9 3-8-5l2-35m77 76q5-7 12-14t14-8 8 3l60 214 81-190q3-7 10-15t14-10 11-1 0 11l-106 251q-8 18-25 25-10 5-12-2l-71-251q-1-5 4-13m451 215q7-1 8 3t-5 13-17 18-27 16q-27 11-34-10-3-9-2-32-26 32-53 41t-49 3q-72-20-43-165 9-48 33-79 41-53 101-45 25 3 39 19 11-16 24-19 4-1 6 1t2 6q-29 211-21 238 4 12 13 7 4-2 12-8t13-7m-75-42q4-40 5-51 13-98-48-106-15-2-26 1-15 3-21 9-12 16-20 57t-7 73q3 62 44 73 31 9 48-11 13-15 25-45m140-163q1-6 7-14t12-12 11-5q9-2 8 5l-3 33q14-16 34-27t41-12q85-1 73 118l-12 140q-1 5-7 13t-12 13-11 5q-9 3-8-5l12-140q11-106-62-106-15 0-22 4-17 10-32 55 0 1 0 2l-17 159q-1 6-7 14t-12 12-11 5q-9 2-8-6l26-251m444 205q7-1 8 3t-5 13-17 18-27 16q-27 11-34-10-3-9-2-32-26 32-53 41t-49 3q-72-20-43-165 9-48 33-79 41-53 101-45 25 3 39 19 11-16 24-19 4-1 6 1t2 6q-29 211-21 238 4 12 13 7 4-2 12-8t13-7m-75-42q4-40 5-51 13-98-48-106-15-2-26 1-15 3-21 9-12 16-20 57t-7 73q3 62 44 73 31 9 48-11 13-15 25-45m140-163q1-6 7-14t12-12 11-5q9-2 8 5l-2 22q38-32 79-28 7 1 4 11-5 13-17 20t-16 7q-25-3-43 11-9 6-12 30l-19 179q-1 6-7 14t-12 12-11 5q-9 2-8-6l18-175q0-1 1-4l7-72" />
</svg>