<svg id="fnt-Kay Pho Du" viewBox="0 0 2571 1000" xmlns="http://www.w3.org/2000/svg"><path id="kay-pho-du" class="f" d="M125 667h-109v-31h39v-292h-39v-30h109v30h-39v122h41l86-122h-34v-30h102v30h-32l-96 137 99 155h33v31h-51l-107-170h-41v139h39v31m263 3q-22 0-35-7t-21-18-10-24-3-25v-2q0-16 9-33t27-28 48-12h66v-28q0-25-12-39t-40-13q-22 0-35 7t-19 17-5 16v1h-33v-1q0-16 10-32t30-27 52-12q44 0 64 23t20 57v146h39v31h-71v-45q-14 19-36 33t-45 15m81-119h-63q-23 0-35 8t-16 17-5 18v2q0 7 2 17t10 18 28 8q13 0 26-5t24-15 18-17 11-13v-38m125 244h-27v-30h24q16 0 26-5t19-20 18-45l7-21-77-230h-29v-31h103v31h-42l61 186 61-186h-38v-31h104v31h-34l-66 198-22 66q-12 36-25 55t-28 25-35 7m533-128h-110v-31h39v-292h-39v-30h113q59 0 89 25t29 68v13q0 28-13 51t-39 36-66 13h-42v116h39v31m-39-177h41q44 0 66-19t22-54v-8q0-34-22-49t-66-16h-41v146m308 177h-110v-31h39v-323h-39v-31h71v179q15-19 37-35t47-16q28 0 44 12t21 35 6 57v122h39v31h-109v-31h39v-116q0-30-4-48t-12-24-27-7q-14 0-27 6t-24 16-19 18-11 15v140h39v31m293 3h-12q-48 0-70-33t-22-91v-15q0-59 22-90t70-31h12q48 0 70 31t22 90v15q0 59-22 91t-70 33m-2-229h-7q-25 0-39 11t-19 32-6 50v9q0 29 6 50t19 34 39 12h7q25 0 39-12t19-34 5-50v-9q0-29-5-50t-19-32-39-11m440 226h-113v-31h39v-292h-39v-30h113q67 0 104 40t36 126v13q0 87-36 130t-104 44m-2-323h-41v292h41q58 0 84-37t27-108v-8q0-71-27-105t-84-34m290 326q-28 0-44-13t-21-36-6-58v-119h-39v-31h70v144q0 45 8 64t35 18q14 0 27-7t24-16 19-20 11-15v-137h-39v-31h71v223h39v31h-71v-50q-15 20-37 36t-47 17" />
</svg>