<svg id="fnt-Keania One" viewBox="0 0 2423 1000" xmlns="http://www.w3.org/2000/svg"><path id="keania-one" class="f" d="M36 638v-333h52q17 0 22 6t6 23v333h-53q-17 0-22-6t-5-23m134 9v-130h57q15 0 21 8t7 27v115h-67q-8 0-13-6t-5-14m1-210v-132h58q14 0 18 6t4 23v106q0 30-11 44t-43 15h-61v-47h22q9 0 11-4t2-11m217-20v250h-1q-49 0-61-17-5-8-9-16t-4-23q-2-29-2-65t0-51 3-32 8-24 13-13 21-8 31-1h1m133 171v25q0 54-54 54h-63v-38h27q10 0 13-3t2-12v-16q0-7 2-8t2-2 3 0 3 0q33 0 65 0m-117-134v-37h58q34 0 47 13t12 40v44q0 45-49 45h-73v-37h27q12 0 16-3t4-12v-38q0-8-2-12t-13-3h-27m292-37v37h-27q-16 0-18 6-3 6-3 18v127q0 1 0 6t1 9q2 9 20 9h27v38h-49q-19 0-31-2t-21-8-13-13-8-23q-3-23-3-63t0-55 2-30 4-24 9-15 14-11q18-6 47-6h49m112 216v30q0 4-2 4h-41q-28 0-41-13t-13-43v-194h20q32 0 43 14t12 39v140q0 16 6 18 4 1 10 1h2q4 0 4 4m127-179v-37h70q55 0 55 53v197h-57q-8 0-13-6t-5-14v-178q0-8-4-11t-17-4h-29m-87 193v-230h30q22 0 33 10t12 28v212h-57q-8 0-13-6t-5-14m269 0v-230h30q22 0 33 11t12 28v211h-57q-8 0-13-6t-5-14m3-337q6-5 32-5t32 5 6 31-6 30-32 6-32-6-5-30 5-31m251 107v37h-27q-16 0-18 6-3 6-3 18v127q0 1 0 6t1 9q2 9 20 9h27v38h-49q-19 0-31-2t-21-8-13-13-8-23q-3-23-3-63t0-55 2-30 4-24 9-15 14-11q18-6 47-6h49m112 216v30q0 4-2 4h-41q-28 0-41-13t-13-43v-194h20q32 0 43 14t12 39v140q0 16 6 18 4 1 10 1h2q4 0 4 4m229-328h6v300q0 7 4 11t17 3h37v48h-64q-20 0-33-3t-23-13-15-20-8-35q-5-34-5-93t1-82 4-47 8-34 15-20 23-12 33-3m26 48v-47h64q20 0 33 3t23 12 15 21 8 34q5 35 5 93t-1 82-4 47-8 34-15 20-23 12-33 3h-6v-299q0-8-4-11t-17-4h-37m296 101v-37h70q54 0 54 53v197h-57q-8 0-13-6t-5-14v-178q0-8-4-11t-16-4h-29m-88 193v-230h31q22 0 33 10t11 28v212h-57q-8 0-13-6t-5-14m343-230v250h-1q-49 0-61-17-5-8-9-16t-4-23q-2-29-2-65t0-51 3-32 8-24 13-13 21-8 31-1h1m133 171v25q0 54-54 54h-63v-38h27q10 0 13-3t2-12v-16q0-7 2-8t2-2 3 0 3 0q33 0 65 0m-117-134v-37h58q34 0 47 13t12 40v44q0 45-49 45h-73v-37h27q12 0 16-3t4-12v-38q0-8-2-12t-13-3h-27" />
</svg>