<svg id="fnt-Kelly Slab" viewBox="0 0 2190 1000" xmlns="http://www.w3.org/2000/svg"><path id="kelly-slab" class="f" d="M256 633h32v34h-57l-126-187v153h33v34h-105v-34h31v-307h-31v-34h105v34h-35v139l128-173h54v34h-34l-104 146 109 161m72-3v-164q0-50 51-50h85q24 0 35 10t11 35v46l-142 90v36h103v-29h39v26q0 15-9 26t-31 11h-102q-22 0-31-11t-9-26m40-179v106l102-65v-41h-102m265-159v341h32v34h-105v-34h32v-307h-32v-34h73m155 0v341h32v34h-105v-34h32v-307h-32v-34h73m225 125h65v316q0 21-11 32t-35 11h-116v-68h34v34h87v-132l-88 55q-12 7-23 7t-20-8-9-25v-188h-32v-34h73v215l99-62v-119h-24v-34m335-11l124 77q10 7 18 12t16 12q13 12 13 29v85q0 23-16 35-14 11-36 11h-159v-93h36v59h135v-98l-131-80q-18-10-29-21t-11-29v-63q0-30 14-41 12-9 41-9h151v92h-36v-58h-130v80m298-114v341h33v34h-105v-34h31v-307h-31v-34h72m253 341h31v34h-174q-25 0-34-10-8-9-8-34v-19q0-18 4-24 7-10 30-24l110-68v-37h-98v29h-32v-63h125q25 0 35 11t11 32v173m-41 0v-105l-104 65v40h104m185-161l85-53q11-7 25-7t25 11 11 32v168q0 20-7 29-12 15-36 15h-176v-34h32v-307h-32v-34h73v180m106 161v-187l-106 66v121h106" />
</svg>