<svg id="fnt-Khmer" viewBox="0 0 1455 1000" xmlns="http://www.w3.org/2000/svg"><path id="khmer" class="f" d="M258 667l-126-166-44 46v120h-47v-356h47v176l158-176h57l-140 157 151 199h-56m135-375v142q30-36 78-36 84 0 84 94v175h-45v-175q0-29-13-42t-40-14q-22 0-38 12t-26 30v189h-45v-375h45m230 110h43l1 30q29-34 78-34 56 0 76 42 13-19 34-31t50-11q87 0 88 92v177h-45v-175q0-28-13-42t-43-14q-26 0-42 15t-19 40v176h-46v-173q0-58-56-58-45 0-61 38v193h-45v-265m548 270q-54 0-88-36t-33-94v-8q0-40 15-71t42-48 58-17q52 0 80 34t29 97v19h-179q1 39 23 63t55 24q24 0 41-10t29-26l28 22q-34 51-100 51m-6-237q-27 0-46 20t-23 55h133v-3q-2-34-19-53t-45-19m289-34v42q-10-2-22-2-45 0-61 38v188h-45v-265h44l1 31q22-35 63-35 13 0 20 3" />
</svg>