<svg id="fnt-Kings" viewBox="0 0 1135 1000" xmlns="http://www.w3.org/2000/svg"><path id="kings" class="f" d="M326 687q-6 0-13-2t-12-5q-19-12-36-32t-30-45-23-45-13-37q-9 9-20 18t-19 17q-4 22-8 43t-5 31q-1 10 4 14t10 6q5 1 16 1t24 1 15 0h0q2 0 2 2 0 2-2 4t-5 2q-16-1-37-1t-42-1q-10 0-20 0t-17 1q-8 0-22 0t-32 1-34 0h0q-2 0-2-1 0-2 3-5t4-2q12 0 22 0t17 0q18 0 26-4t14-15 12-37q16-55 26-105t19-105q1-10-4-17t-12-8q-5-1-17-2t-23-1-15 1q-3 0-3-2t3-5 5-2q20 0 46 1t49 1q6 0 11 0t10 0q10-1 26-1t34-1q2 0 2 2t-2 4-3 2q-4 0-8 0t-12-1q-17 0-25 10t-16 35q-3 9-8 29t-11 46-10 53q26-28 53-57t53-57q16-17 22-28t6-17q0-9-8-11t-11-2h-2q-3 0-3-2 0-2 2-4t7-2q4 0 14 1t23 1 20 1q15 0 32-1t42-1h1q1 0 1 1 0 2-2 5t-5 2q-19-1-32 3t-23 11-26 20q-9 7-23 20t-30 29-32 31-25 26-13 15q6 8 20 24t34 33 38 36 35 30 22 17q7 5 16 8t12 5q3 2 3 4 0 4-4 4-2 0-5-2-4-2-7-2-4 0-7 2t-4 4q-14 10-33 10m133-254q-6 0-12-2t-12-5l21-28q4 2 11 2 11 0 25-5t25-13q4-6 9-6 3 0 3 3 0 2-3 6t-11 12-18 15-15 13-7 5q-4 1-8 2t-8 1m-39 219l-39 20q-1-3-1-6t0-7q0-15 2-37t7-44 9-42q10-34 22-52t35-26q2-1 9-4t14-5 13-5 6-2l2 5-14 6q-9 4-18 16t-18 28-12 33q-5 20-10 42t-6 41q16-24 37-48t42-38l3 5q-12 8-26 24t-25 36-21 35-11 25m140 2l-40 18q5-29 11-60t12-60q4-21 7-40t3-31q0-4 0-7t-1-6q0 0-10 3t-25 12l3-10q10-6 22-13t26-16 20-13q3 3 3 9t1 14q0 14-2 31t-6 39q-2 14-5 28t-5 28q9-16 23-35t30-35 34-32 33-24q12-6 28-12t28-11l3 4-8 3q-12 5-22 20t-18 35-15 43-10 43-6 34q16-24 38-48t42-38l4 5q-9 5-23 20t-26 33-24 36-11 31l-40 20q0-3 0-7t0-6q0-18 3-43t10-49 13-49 14-38q-10 8-24 22t-29 34-28 40-22 41-11 37m370-199q-13 0-27-3t-26-3q-9 0-17 2l-2-6 35-12q7-2 14-2t14 1 14 2q7 1 13 1t14 1q6 0 11-1t11-1l2 3-43 17q-4 0-7 0t-6 1m-141 197l-42 20q0-3 0-6t0-7q0-15 2-37t6-44 10-42q10-35 23-53t36-25q5-2 15-6t18-6q0 0 1 2t0 4l-15 7q-6 3-13 13t-14 26-10 32q-4 16-8 34t-6 34q0 1 1 1 2 0 6-2t5-3q5-3 13-9t16-13q16-15 31-34t17-36q0-1 3-1t4 1q-4 22-20 42t-33 40q-8 8-17 17t-15 19q-6 8-10 16t-4 16m-20 114q-1-4 0-6l18-2q7 0 19-9t25-21 19-30q4-9 6-15t3-16 5-27q3-17 7-38t8-41 9-36q7-27 14-39t23-17q4-1 14-5t22-8 16-6q0 0 1 3t0 3l-21 12q-5 3-11 7t-7 9q-11 18-16 43t-10 61q-3 18-6 35t-5 31q-3 14-6 26t-7 21q-3 7-12 17t-22 20-25 17-25 9q-5 1-17 1t-19 1m-12 11q-16 0-28-3t-25-8q-10-3-10-8 0-3 2-7 2-5 7-12t10-13q4-4 7-9t7-8q6-8 8-17l4 8q-12 18-12 34 0 16 13 26t40 10v5q-12 2-23 2m229-112q-9 0-20-1t-20-2l-2-2q-1-6 2-17t8-21q1-4 4-12t6-17 4-11q2-5 3-9t1-9l5 6q-1 5-1 9t-1 10q0 21 12 37t36 16q17 0 31-8t23-20 9-25q0-6-3-12-4-12-21-16t-34-6q-31-2-46-14t-15-27q0-14 12-29 4-5 14-12t24-14 25-14 18-8q6-3 15-5t18-1q14 0 25 2t13 5l2 2q1 7-2 15t-6 20q-2 6-5 11t-3 11q-4 8-4 18l-9-6q3-9 3-15 0-14-7-24t-18-16-21-4q-22 3-36 17t-14 28q0 12 10 21t34 10q6 0 18 2t24 3 15 5q12 9 12 22 0 14-12 31t-27 35q-20 24-45 32t-54 9" />
</svg>