<svg id="fnt-Kirang Haerang" viewBox="0 0 2828 1000" xmlns="http://www.w3.org/2000/svg"><path id="kirang-haerang" class="f" d="M177 614q6 6 12 10t10 10q3 2 8 6t9 6q3 3 6 5t5 4q3 2 5 4t4 6q0 1-1 2-1 3-2 4-4 4-7 8t-5 6l-4 4q-1 1-1 2-2 0-4-2t-5-4q-6-4-9-7t-8-4q-2-1-6-3t-5-3q-6-2-12-6t-13-9l-39-25q-5-3-10-6t-9-5q-3-2-6-4t-5-4q-4-3-8-5t-9-4l-4-2v3q0 4-1 7t0 6q-1 13-2 26t-1 26q0 4 0 8t-3 8h-2q-6 0-10-1t-10 1q-4 0-7 0t-7 0q0-2-1-3t-1-2q1-9-1-28t-1-43q0-7 0-13t0-12q-1-8-1-16t1-17v-14q0-7-1-15t0-16q0-4 0-8t1-8q0-4-1-8t0-9q0-1 0-9t1-16-1-18 0-13l-1-26q3-2 3-3t4 0q1 0 1 0t1 1 6 0 11 0 11 1 6 1q0 4 0 6t0 5-1 6 0 8v10q-2 14-2 28t0 28q-1 15-2 21t0 16v11q0 2-1 4t3 1l2-2q3-3 5-6t5-5q0-1 3-4t3-4q6-9 10-13t8-11q3-4 6-9t7-8q0 0 1-1 2-6 6-11t7-10q4-5 7-11t8-12l30-43 6-9q1-2 3-4t4-3q2 2 6 4t9 7q4 2 8 5t6 9q0 1-3 7t-8 11-7 12-4 6q-3 5-6 10t-4 8q-4 5-8 11t-6 11q-6 9-12 16t-12 15q-6 8-11 15t-7 8q-4 4-7 7t-7 7-6 7-5 7q2 1 2 3t4 3q6 4 12 10t13 10q8 4 15 10t16 13q2 2 6 4t8 7q2 2 4 3t5 2m135 9q1 10 1 18t-2 15q0 3-1 5-5 1-12 1t-12 1q-4-1-9 0t-6 1q0-3-1-6t0-7q1-4 0-8t0-9v-24q0-12 0-24t-1-16q0-4 0-9t1-9q0-7 0-14t0-14q0-6 0-16t0-16q4-1 10-1t13 0q6-1 11-1t8 0q1 0 1 3t0 4q-1 12 0 21t-1 20q1 10 0 17t-1 17q0 2 0 8t1 15 0 16 0 12m-42-165q-1-2-1-7t1-11q0-2-1-4t0-4q0-1 0-2t1-1h36q2 0 3 0t0 3v32q-3 1-9 1t-13 0-12-1-5-1q0-1 0-5m87 145q0-4 0-11t0-13q0-5 0-9t0-10l-1-40v-23q5 0 11 0t14 1q2 0 4 0h7q3 1 3 1t2 1q0 2-1 3t0 4v16q2-2 2-4t4-4l3-1q6-7 16-9t19-1q2 0 6 2t9 4q4 1 6 2l2 2q5 4 9 7t7 9q5 7 8 15t5 17q0 3 0 5t-3 2q-8 2-14 2t-17 1h-5q-1-1-2-2t0-1q0-3-1-6t-1-3q0-1 0-3t-1-2q-1-2-2-3-9-9-18-9-1 0-3 0t-3 1q-3 1-8 3t-6 4q-2 2-5 5t-4 6q-1 2-1 7t0 6q-1 4-2 12t-1 13q0 3-1 9t-1 10q0 3 0 6t0 6v19q0 3-1 7t0 7v11q-25 5-34 0-1-4-2-9t0-6q1-9 1-18t-1-19q0-5 0-10t1-10m345 73v3l-4 0q-2 1-3 0t-5 0q0 0-3 1t-5 1-7 0-5-1q-3 0-4-1t-3 0q-3-2-3-6t0-7v-12l-4 5-9 9q-5 3-9 5t-7 5q-8 5-17 6t-16 2-16-3-14-6q-2 0-4-2t-3-2q-3-2-7-5t-6-5q-2-1-3-2t-3-2q-3-2-5-5-2-6-6-11t-6-12q-2-6-4-11t-3-9q0-3 0-9t-1-8q0-5 0-7t1-8q0-2 0-5t2-7q1-6 2-12t1-10q4-7 5-8t2-6q1-3 3-8t5-7q2-1 5-3t6-6 6-5 3-2l9-4q4-2 9-3t10 0l15-1q3 0 6 0t4 1q3 0 5 1t5 2 6 1 7 5q5 2 7 4t6 6 4 4 5 5q0 2 2 3 1 0 2 1 1-1 1-4t2-6q0-7 0-13t1-7q0-2 1-6t3-3q1 0 5 0t8 1 9 2 8 0q1 0 1 3t-1 4l3 48v54q0 1 0 3t0 3q0 4 0 9t0 10q1 3 0 7t0 8q0 3 0 8t1 11 0 10 0 9m-65-71v-2-1q0-3 1-14t-4-25q-2-4-5-8t-9-7q-4-1-7-3t-6 0q-4 1-9 4t-9 9q-2 2-3 5t-1 7q-1 7-2 10t-1 9q0 10 6 18t7 10q2 1 3 1t4 3q5 3 9 1t10-4h3q5-3 8-5t5-8m114-109q0-1-1-3t0-3q1 0 2 0t2 0h3q3-1 5-1t5 0h15q1 0 2 1t2 2l1 4q0 2 0 4 1 4 1 8 1 2 1 3 0 3 0 3 2-2 3-4t3-3q1-2 2-2t1-1 3-2 4-2q5-3 8-4t12-6q2 0 5-1t9-2 9-1 8 0q6 0 9 1t10 2q2 0 8 1t8 1q12 7 20 12t13 14q1 1 3 2t4 4 5 6 2 6q2 8 5 13t3 14q0 4 2 9t2 10 1 11-1 18q0 3 0 6t1 6v23q0 4 0 7t-1 6q0 4 0 7t1 7q0 1 0 2t-1 2-3 0-3 0q-4 0-8 0t-9 0l-15-1q-2-1-5 0t-5-2q0-11 0-16t0-9q0-2 0-6t-1-10l1-27q0-5 0-8t-1-4 0-4 0-8q0-9-4-18t-7-18q-3-5-7-9t-10-7q-1-1-3-1t-2-1l-12-1q-8 0-17 3t-11 7q-4 6-6 9t-4 6q0 2-1 5t-3 9-2 11-1 11q0 3 0 6t0 7l-1 14-3 19q0 5 0 10t-1 11v12q-3 2-5 2-5 1-8 2t-8 0q-5 0-14 0t-15 0-5-1 0-3q0-2 0-6t0-9 0-9 1-7q0-9-1-15t0-15q0-8-1-13t0-12q0-4 0-10t1-13q0-9-1-17t0-12q0-8 0-16t1-16m244 35q0-1 1-6t3-6q1-3 1-5t3-5q2-2 5-6t5-5q2-3 4-5 2-3 6-5t7-5q7-2 12-4t10-2q10 0 19 0t17 3q7 0 12 2t10 4q3 5 7 8t6 5l3 3q4-2 3-5t1-6q1-3 1-5t1-3q2-1 4-1t4 1q4 0 11-1t11 1q1 0 2 1t1 2v4q0 3 0 7t0 10 0 9 0 8q0 2-1 8t0 13 0 12 1 6q0 5-1 11t0 9l1 16q0 3-1 11t1 17q0 3 0 10t-1 14 0 13 0 9q0 10-4 19t-5 20q-3 5-5 9t-8 10q-2 3-4 6t-5 7q-3 3-9 7t-9 9q-2 3-8 5t-9 2l-17 6q-5 3-10 4t-11 3q-1 0-2-1t-2 1q-5 0-9 1t-8 1h-3q-7 0-9 0t-11 0q0 0-3 1t-2-1q0-9-1-17t-1-16l4-3h17q7-2 12-3t14-3q7-4 12-9t13-7q5-4 10-9t7-10q4-4 5-9t4-10q0-5 2-10t1-9v-13q0-3-1-1-1 0-2 1-7 4-16 5t-19 1h-4q-7-1-13-3-7-2-11-3t-10-5q-2-1-5-2t-10-5l-6-7-11-12q-1-3-3-7t-3-9q-1-3-2-7t-3-7v-42q0-3 1-7t2-6q0-1 0-2 0-1 0-2t1-3m77 55q2 0 4 0t5-3q1-2 1-5t1-3q2-4 2-5t-1-3-2-7-4-6-3-2-7 2q-3 4-3 15 0 1-1 4t1 7q0 1 3 3t4 3m351-47q0 1 3 0t8 0h56q4 0 7-1t8-2v-3q1-4 1-13t1-14q0-4-1-8t0-8q0-4 0-8t-1-8v-23q0-1 0-7t0-10q0-8 1-14t-1-14q1-2 0-4t0-4q0-1-1-2t0-1q0-2 0-4t1-5h53q3 3 3 4t0 5q0 7 0 13t0 12q0 9-2 19t-1 21q0 4 1 10t-1 11q-1 13-2 24t0 23q0 10 1 20t1 19q-1 4-1 12t0 19 1 19 0 13v51q-11 0-20 1t-17 1q-4 0-7 0t-7 3l-2-3q0-3 0-9t0-13 0-13 0-9q0-12 0-24t1-23q0 1-1-2t0-7 0-7 0-5q0-2-2-1t-3 0q-5-1-9-1t-8 1q-3 0-8 0t-9 1-9 1-8 0l-22 1q-2 0-4-1t-4 1q-1 0-1 2 0 1 0 1 0 6 1 12t0 14v13q0 13 0 26t-2 25v15q-3 2-5 2t-6 0-10 0-10 3h-15q-2 0-4-1t-7-2v-34q0-12 0-16t0-5q-1-3-1-6t1-5q1-11 0-22t-1-19q-1-4-1-9t0-8q0-9 1-17t0-17q-1-11 0-18 1-2 0-7t-1-11q0-8 0-15t1-12 0-13 0-14q0-2 0-7t0-10 1-11 0-6q0-5-1-7t-1-4v-4h61q2 2 3 4 1 1 1 2 0 10 0 19t-1 20q0 13 0 26t2 26q0 7-1 15t0 14 0 16 0 11m358 137v3l-4 0q-2 1-3 0t-5 0q0 0-3 1t-5 1-7 0-5-1q-3 0-4-1t-3 0q-3-2-3-6t0-7v-12l-4 5-9 9q-5 3-9 5t-7 5q-8 5-17 6t-16 2-16-3-14-6q-2 0-4-2t-3-2q-3-2-7-5t-6-5q-2-1-3-2t-3-2q-3-2-5-5-2-6-6-11t-6-12q-2-6-4-11t-3-9q0-3 0-9t-1-8q0-5 0-7t1-8q0-2 0-5t2-7q1-6 2-12t1-10q4-7 5-8t2-6q1-3 3-8t5-7q2-1 5-3t6-6 6-5 3-2l9-4q4-2 9-3t10 0l15-1q3 0 6 0t4 1q3 0 5 1t5 2 6 1 7 5q5 2 7 4t6 6 4 4 5 5q0 2 2 3 1 0 2 1 1-1 1-4t2-6q0-7 0-13t1-7q0-2 1-6t3-3q1 0 5 0t8 1 9 2 8 0q1 0 1 3t-1 4l3 48v54q0 1 0 3t0 3q0 4 0 9t0 10q1 3 0 7t0 8q0 3 0 8t1 11 0 10 0 9m-65-71v-2-1q0-3 1-14t-4-25q-2-4-5-8t-9-7q-4-1-7-3t-6 0q-4 1-9 4t-9 9q-2 2-3 5t-1 7q-1 7-2 10t-1 9q0 10 6 18t7 10q2 1 3 1t4 3q5 3 9 1t10-4h3q5-3 8-5t5-8m257-34q0 2-3 5-1 1-4 2t-6 0q-3 1-8 1t-9 0q-7 0-10 0t-12 2l-30 2v6q0 6 2 11t5 11q3 4 6 7t7 5q3 1 6 2t4 1 5 1q13 0 19-3t16-8q2 0 4-2t3-2q3-1 7-5t8-5q1 1 1 6t0 11v6 10q-2 3-4 4t-2 2-2 3-4 4q-9 9-19 12-6 3-12 4t-11 3q-2 1-4 1t-4 0h-4q-10 0-19 0t-19-5q-3 0-10-2t-8-5q-5-3-10-8t-9-8q-7-5-10-10t-5-12q-3-4-5-10t-4-11q0-5 0-10t0-10v-19q0-9 3-21t10-22q1-2 3-4 2-2 4-4t5-4q1-1 3-2t5-3q2-1 4-3t6-4q6-2 11-4t7-2q4 0 13 0t18 1q4 1 7 2t5 1q4 0 6 1t6 1q9 3 13 6t8 7q2 3 3 6t4 6q3 3 5 8t3 10q1 4 2 11t0 11 0 8 0 7m-43-29q0-1 0-4t-1-4q-4-6-12-8t-12 0q-4 1-5 3t-3 4q-1 1-1 2t-2 2-1 3-1 3q-1 3-1 4t1 5q2 1 8 1t12 1 12-1 8-1q0-1-1-3t-1-7m88 61q0-4 0-11t0-13q1-5 1-9t0-10l-2-40v-23q6 0 12 0t13 1q2 0 4 0h7q4 1 4 1t1 1q0 2 0 3t-1 4v16q2-2 3-4t3-4l3-1q7-7 16-9t19-1q2 0 7 2t9 4q3 1 6 2l1 2q5 4 10 7t6 9q5 7 8 15t6 17q0 3-1 5t-3 2q-7 2-14 2t-16 1h-6q-1-1-1-2t0-1q-1-3-2-6t0-3q0-1-1-3t-1-2q-1-2-1-3-10-9-19-9-1 0-3 0t-3 1q-2 1-7 3t-6 4q-3 2-6 5t-4 6q0 2-1 7t0 6q-1 4-2 12t-1 13q0 3-1 9t0 10q0 3-1 6t0 6v19q0 3 0 7t0 7v11q-25 5-35 0-1-4-1-9t0-6q1-9 0-18t0-19q-1-5 0-10t0-10m345 73v3l-3 0q-3 1-4 0t-4 0q-1 0-3 1t-6 1-6 0-6-1q-2 0-3-1t-4 0q-2-2-3-6t0-7v-12l-4 5-9 9q-5 3-8 5t-8 5q-7 5-16 6t-16 2-16-3-15-6q-2 0-4-2t-3-2q-3-2-7-5t-6-5q-1-1-3-2t-3-2q-2-2-4-5-3-6-7-11t-6-12q-1-6-4-11t-2-9q0-3-1-9t0-8q0-5 0-7t0-8q0-2 1-5t2-7q1-6 1-12t2-10q3-7 4-8t3-6q1-3 2-8t6-7q1-1 4-3t6-6 6-5 4-2l9-4q4-2 9-3t9 0l16-1q2 0 5 0t5 1q2 0 5 1t5 2 6 1 6 5q5 2 8 4t5 6 5 4 5 5q0 2 2 3 1 0 1 1 1-1 1-4t2-6q1-7 1-13t1-7q-1-2 0-6t4-3q1 0 4 0t8 1 9 2 9 0q0 0 0 3t0 4l3 48v54q0 1-1 3t0 3q1 4 1 9t0 10q0 3 0 7t0 8q0 3 0 8t0 11 0 10 0 9m-64-71v-2-1q0-3 1-14t-5-25q-1-4-4-8t-10-7q-3-1-6-3t-7 0q-3 1-9 4t-8 9q-3 2-3 5t-1 7q-2 7-3 10t0 9q0 10 5 18t8 10q1 1 2 1t4 3q5 3 10 1t10-4h3q4-3 7-5t6-8m113-109q0-1 0-3t0-3q0 0 1 0t3 0h3q2-1 5-1t5 0h15q1 0 2 1t1 2l1 4q0 2 1 4 1 4 1 8 0 2 0 3 0 3 1 3 2-2 3-4t2-3q2-2 2-2t2-1 2-2 5-2q4-3 8-4t12-6q1 0 5-1t8-2 9-1 9 0q5 0 9 1t9 2q3 0 8 1t8 1q13 7 20 12t13 14q1 1 3 2t5 4 4 6 3 6q2 8 4 13t3 14q1 4 3 9t2 10 0 11 0 18q0 3 0 6t0 6v23q0 4 0 7t0 6q0 4 0 7t0 7q0 1 0 2t-1 2-3 0-2 0q-5 0-9 0t-8 0l-15-1q-2-1-6 0t-4-2q-1-11-1-16t1-9q0-2-1-6t-1-10l2-27q0-5-1-8t0-4-1-4 0-8q0-9-3-18t-8-18q-2-5-6-9t-11-7q-1-1-2-1t-3-1l-11-1q-9 0-18 3t-11 7q-3 6-5 9t-4 6q-1 2-2 5t-2 9-2 11-1 11q0 3 0 6t-1 7l-1 14-3 19q0 5 0 10t0 11v12q-3 2-5 2-6 1-8 2t-8 0q-6 0-15 0t-14 0-6-1 0-3q0-2 0-6t1-9 0-9 0-7q0-9 0-15t-1-15q0-8 0-13t-1-12q0-4 1-10t0-13q0-9 0-17t0-12q-1-8-1-16t1-16m244 35q0-1 2-6t2-6q1-3 2-5t3-5q2-2 5-6t4-5q2-3 5-5 2-3 6-5t6-5q7-2 12-4t11-2q10 0 19 0t16 3q8 0 13 2t10 4q2 5 6 8t7 5l3 3q3-2 3-5t1-6q1-3 1-5t1-3q1-1 3-1t4 1q5 0 12-1t10 1q1 0 2 1t1 2v4q0 3 0 7t1 10-1 9 0 8q0 2 0 8t0 13 0 12 0 6q0 5 0 11t0 9l0 16q1 3 0 11t0 17q1 3 0 10t0 14-1 13 0 9q0 10-3 19t-6 20q-2 5-5 9t-7 10q-2 3-5 6t-5 7q-2 3-9 7t-8 9q-3 3-9 5t-8 2l-18 6q-4 3-9 4t-12 3q-1 0-2-1t-2 1q-5 0-8 1t-8 1h-3q-7 0-10 0t-10 0q-1 0-3 1t-3-1q0-9-1-17t0-16l3-3h17q7-2 13-3t13-3q7-4 13-9t13-7q5-4 9-9t7-10q5-4 6-9t4-10q0-5 1-10t2-9v-13q0-3-2-1-1 0-1 1-7 4-17 5t-19 1h-3q-7-1-14-3-6-2-11-3t-10-5q-1-1-4-2t-10-5l-6-7-11-12q-2-3-3-7t-3-9q-1-3-3-7t-2-7v-42q0-3 1-7t1-6q0-1 1-2 0-1 0-2t0-3m77 55q3 0 5 0t5-3q1-2 0-5t1-3q3-4 2-5t0-3-2-7-4-6-4-2-6 2q-4 4-4 15 0 1 0 4t1 7q0 1 2 3t4 3" />
</svg>