<svg id="fnt-Kite One" viewBox="0 0 1846 1000" xmlns="http://www.w3.org/2000/svg"><path id="kite-one" class="f" d="M49 674q-8 0-14-3t-6-11q0 0 0-3t1-13 5-37 9-70 14-116 21-174q1-10 8-13t15-3q7 0 11 2t5 10q0 0-1 6t-3 24-6 54-12 97h24q22 0 43-12t40-31 32-43 22-48 8-44q0-8 5-12t15-3q8 0 13 3t5 12q0 27-10 55t-26 54-38 46-46 33l-1 4q25 10 38 31t22 46 17 51l31 90q1 2 1 4 0 7-6 10t-15 4q-8 0-12-3t-6-8l-35-103q-9-26-16-46t-16-33-25-21-44-7h-24q-5 40-11 91t-14 114q-1 9-6 12t-12 4m388-353q0 11-5 21t-23 10q-13 0-18-6t-5-13q0-12 6-21t23-10q13 0 17 5t5 14m-72 353q-7 0-11-2t-3-8l29-238q1-9 7-11t15-2q7 0 11 2t4 8l-29 238q-1 8-8 10t-15 3m151 0q-6 0-11-10t-6-25-2-32q0-11 1-24t2-20l13-109h-29q-11 0-11-15 0-6 4-13t11-6h29l9-77q1-8 10-12t18-4q7 0 8 1t2 5l-10 87h46q12 0 12 15 0 6-5 12t-10 7h-48l-13 109q-1 12-2 22t0 17q0 25 4 37t4 21q0 6-10 10t-16 4m215 0q-53 0-80-29t-27-82q0-38 13-67t35-46 44-28 45-9q26 0 44 13t18 38q0 30-21 52t-58 35-79 13q0 36 17 57t51 22q17 0 30-7t22-13 9-7q6 0 10 8t4 15q0 5-12 13t-30 15-35 7m-64-140q22 0 43-5t39-13 27-20 11-27q0-13-8-19t-20-7q-16 0-35 10t-36 31-21 50m460 140q-38 0-65-13t-42-37-24-53-7-65q0-33 6-71t20-74 35-66 53-47 73-17q39 0 66 13t42 36 23 53 7 64q0 34-6 72t-20 74-35 66-53 47-73 18m4-32q33 0 57-18t41-45 27-62 14-66 4-57-5-49-17-42-31-31-48-11q-33 0-58 17t-40 46-27 62-14 66-4 57 5 49 16 42 32 30 48 12m252 32q-7 0-10-2t-3-8l28-238q1-9 7-11t15-2q7 0 11 2t5 8l-5 35h3q15-22 34-33t45-12q39 0 59 18t20 49q0 1-1 5t-1 12-4 29-7 51-10 84q-1 8-9 10t-16 3q-6 0-10-2t-3-8l21-174q1-5 1-7 0-37-45-37-25 0-44 16t-30 44-16 63l-11 92q-1 8-8 10t-16 3m370 0q-53 0-80-29t-27-82q0-38 13-67t35-46 44-28 45-9q26 0 44 13t18 38q0 30-21 52t-58 35-79 13q0 36 17 57t51 22q17 0 30-7t22-13 9-7q6 0 10 8t4 15q0 5-12 13t-30 15-35 7m-64-140q22 0 43-5t39-13 27-20 11-27q0-13-8-19t-20-7q-16 0-35 10t-36 31-21 50" />
</svg>