<svg id="fnt-Klee One" viewBox="0 0 2075 1000" xmlns="http://www.w3.org/2000/svg"><path id="klee-one" class="f" d="M54 372v239q0 14 0 28t-1 19q0 7 8 10t15 4q9 0 9-5 0-8-1-24t-1-32v-110q6-4 11-9t12-9q16 19 35 40t41 44 39 42 33 35q6 6 10 11t7 9q5 7 15 7 9 0 17-4t8-9q0-2-2-4-13-10-32-29t-40-40-43-45-39-42-28-31q33-27 63-54t53-46q12-11 22-19t18-15q1-1 1-3 0-5-9-11t-16-5q-4 0-5 2-16 17-40 38t-48 44-47 41-36 30v-96q0-13 1-26t0-19q0-6-8-10t-15-4q-8 0-8 5 0 9 0 23t1 30m313 0v242q0 4 0 13t-1 18 0 13q0 6 8 10t14 4q8 0 8-5 0-6 0-17t-1-22 0-14v-242q0-6 0-15t0-18 1-12q0-6-8-10t-14-3q-8 0-8 4 0 6 0 17t1 21 0 16m139 196v-2h6q41 0 74-5t55-11q20-6 30-13t14-16 3-24q0-18-8-35t-25-27-49-10q-24 0-45 11t-38 29-27 37-14 38q0 0-2 0t-3 1q-9 0-9 6 0 8 11 15v7q0 33 12 56t32 37 46 13q30 0 53-10t37-22 23-24 7-16q0-5-4-5-4 0-10 7-20 21-47 33t-59 12q-26 0-45-21t-18-61m14-26h-11q3-14 11-30t21-30 30-24 35-9q26 0 41 12t14 35q0 9-2 15t-9 9-22 9q-17 5-44 9t-64 4m257 26v-2h6q42 0 74-5t55-11q20-6 30-13t14-16 4-24q0-18-8-35t-26-27-48-10q-25 0-46 11t-37 29-28 37-13 38q0 0-3 0t-3 1q-8 0-8 6 0 8 10 15v7q0 33 12 56t32 37 46 13q31 0 53-10t38-22 22-24 8-16q0-5-4-5-5 0-11 7-20 21-47 33t-59 12q-25 0-44-21t-19-61m14-26h-10q2-14 11-30t21-30 29-24 35-9q27 0 41 12t15 35q0 9-2 15t-9 9-22 9q-17 5-44 9t-65 4m485-197q-2-3-5-4t-8-2q-8 0-20 13t-24 36-19 51-8 59q0 51 17 91t51 63 88 23q42 0 73-15t51-42 29-60 10-73q0-50-17-90t-50-61-77-23q-29 0-51 9t-40 25m68 303q-45 0-72-21t-39-55-12-75q0-40 14-70t36-51 46-30 47-10q32 0 54 13t36 34 21 47 7 51q0 32-7 62t-23 53-43 38-65 14m413-128v94q0 6 0 15t-1 17 0 12q0 6 8 10t14 4q8 0 8-5 0-6-1-17t0-22-1-14v-96q0-15-2-32t-10-30-22-23-39-8q-18 0-38 7t-35 21-26 34q0-7 0-16t0-19 0-12q0-6-7-10t-15-4q-7 0-7 5 0 5 0 16t1 22 0 15v130q0 4 0 13t-1 18 0 13q0 6 8 10t14 4q8 0 8-5 0-7-1-20t-1-26v-7q1-22 1-47t7-44q8-26 23-42t33-23 36-7q19 0 29 9t13 24 4 36m133 48v-2h6q42 0 74-5t55-11q20-6 30-13t14-16 4-24q0-18-8-35t-26-27-48-10q-25 0-46 11t-37 29-28 37-13 38q0 0-3 0t-3 1q-8 0-8 6 0 8 10 15v7q0 33 12 56t32 37 46 13q31 0 53-10t38-22 22-24 8-16q0-5-4-5-5 0-11 7-20 21-47 33t-59 12q-25 0-44-21t-19-61m14-26h-10q2-14 11-30t21-30 29-24 35-9q27 0 41 12t15 35q0 9-2 15t-9 9-22 9q-17 5-44 9t-65 4" />
</svg>