<svg id="fnt-Koh Santepheap" viewBox="0 0 3860 1000" xmlns="http://www.w3.org/2000/svg"><path id="koh-santepheap" class="f" d="M117 367v141l103-119q14-15 21-27t7-21q0-6-6-9-6-2-19-2v-20h111v20q-18 0-34 14t-33 33l-72 82 105 147q14 19 28 30t27 10h1v21h-5q-26 0-42-2t-27-7-19-14-17-22l-87-124-42 35v77q0 22 11 29t30 7h7v21h-146v-21h6q19 0 30-7t11-27v-247q0-21-11-28t-30-6h-6v-21h146v21h-7q-19 0-30 7t-11 29m494 165q0 71-30 105t-87 35q-56 0-85-35-15-17-23-43t-8-62q0-70 29-104t88-34q56 0 85 34 15 17 23 43t8 61m-185 0q0 28 4 49t12 36q16 29 53 29 36 0 52-29 8-15 12-36t4-49-4-49-12-35q-16-28-53-28-36 0-53 28-8 14-11 35t-4 49m355 114h1v21h-134v-21h4q18 0 30-7t11-29v-268q0-21-12-28t-29-6h-4v-21h92v110q0 6 0 14t-1 14q0 3-1 7t0 7h2q23-45 74-45 43 0 65 23 23 24 23 75v118q0 22 10 29t29 7h1v21h-87v-173q0-33-12-50t-43-18-45 22q-15 21-15 59v105q0 21 11 27t30 7m428 26q-24 0-43-6t-31-14q-25-18-25-51 0-15 9-24t27-9q1 15 5 30t12 25 20 18 30 6q34 0 53-16t19-47q0-27-17-44-9-8-24-17t-36-17q-24-9-41-20t-29-24q-23-26-23-67 0-21 9-38t22-29q31-23 79-23 22 0 40 4t29 13q24 16 24 39 0 16-10 24t-29 8q0-17-6-31t-18-23-32-9q-28 0-45 15t-16 42q0 29 17 46 9 9 24 18t37 17q21 9 39 19t29 22q12 12 18 28t7 34q0 47-34 74-33 27-90 27m283-253q-28 0-37 14t-9 40q-20 0-31-7t-11-24q0-13 7-22t19-15q13-6 29-9t35-2q23 0 40 4t29 15q22 20 22 67v130q0 20 7 28t24 8h2v21h-68l-8-43h-4q-11 14-21 25t-23 17-34 6q-16 0-30-5t-25-15q-10-10-16-25t-6-35q0-40 28-59t86-21l41-2v-30q0-19-3-33t-13-21-30-7m-61 175q0 47 41 47 31 0 49-19t17-51v-40l-32 1q-41 2-58 17-9 8-13 19t-4 26m355 52h2v21h-135v-21h4q19 0 30-7t11-29v-156q0-21-11-28t-30-6h-1v-21h81l6 40h3q15-27 34-36t44-9q40 0 62 23 22 24 22 75v118q0 22 10 29t28 7h2v21h-87v-173q0-33-12-50t-43-18q-17 0-29 6t-18 18-11 26-3 31v105q0 21 12 27t29 7m308-1q10 0 17-1t15-2v22q-6 3-20 5t-24 3q-38 0-55-18-17-17-17-60v-167h-39v-20q9 0 20-4t19-12q9-9 14-22t9-32h23v62h66v28h-66v169q0 25 11 37t27 12m187 27q-54 0-85-36-15-18-23-43t-7-58q0-70 28-106t82-35q50 0 77 30 13 15 20 37t7 52v23h-166q1 54 20 79 18 25 54 25 24 0 43-10t29-25q3 2 6 6t3 11q0 8-5 16t-16 16-28 13-39 5m-6-251q-27 0-42 22t-18 66h115q0-20-3-36t-9-28-17-18-26-6m410 111q0 72-26 106-26 34-76 34-27 0-46-12t-30-32h-2q0 6 0 12t1 12q0 3 0 10t0 14 1 8v48q0 21 11 27t30 7h1v21h-134v-21h3q19 0 30-7t11-29v-276q0-21-11-28t-30-6h-6v-21h88l5 45h2q11-24 29-37t47-13q50 0 76 33 26 34 26 105m-111-106q-37 0-53 26-8 13-11 33t-3 47q0 26 3 46t11 34q8 14 21 21t33 7q32 0 47-28 8-14 11-34t3-46q0-55-14-80-15-26-48-26m280 220h2v21h-135v-21h4q19 0 30-7t11-29v-268q0-21-11-28t-30-6h-4v-21h92v110q0 6 0 14t0 14q-1 3-1 7t0 7h2q22-45 73-45 44 0 66 23 23 24 23 75v118q0 22 10 29t28 7h2v21h-87v-173q0-33-12-50t-43-18-46 22q-15 21-15 59v105q0 21 12 27t29 7m319 26q-55 0-85-36-15-18-23-43t-8-58q0-70 29-106t82-35q50 0 76 30 14 15 21 37t7 52v23h-166q1 54 20 79 18 25 54 25 24 0 43-10t29-25q3 2 6 6t3 11q0 8-5 16t-16 16-28 13-39 5m-6-251q-28 0-43 22t-17 66h115q0-20-3-36t-10-28-16-18-26-6m264-2q-27 0-36 14t-9 40q-21 0-32-7t-11-24q0-13 7-22t20-15q12-6 28-9t35-2q23 0 40 4t29 15q23 20 23 67v130q0 20 7 28t24 8h1v21h-67l-8-43h-4q-11 14-21 25t-24 17-33 6q-17 0-31-5t-25-15q-10-10-16-25t-6-35q0-40 29-59t85-21l42-2v-30q0-19-4-33t-13-21-30-7m-60 175q0 47 40 47 31 0 49-19t18-51v-40l-32 1q-41 2-59 17-9 8-12 19t-4 26m487-62q0 72-26 106-26 34-76 34-27 0-46-12t-30-32h-2q0 6 0 12t1 12q0 3 0 10t1 14 0 8v48q0 21 11 27t30 7h1v21h-134v-21h4q19 0 30-7t11-29v-276q0-21-12-28t-29-6h-7v-21h88l5 45h2q11-24 29-37t47-13q50 0 76 33 26 34 26 105m-110-106q-38 0-54 26-7 13-11 33t-3 47q0 26 3 46t12 34q7 14 20 21t33 7q33 0 48-28 7-14 10-34t4-46q0-55-14-80-15-26-48-26" />
</svg>