<svg id="fnt-KoHo" viewBox="0 0 1177 1000" xmlns="http://www.w3.org/2000/svg"><path id="koho" class="f" d="M186 451q38 5 58 25t34 66l35 125h-36l-35-122q-7-24-16-38t-25-20-41-9l-76 79v110h-36v-350h36v196l188-196h44l-130 134m271 221q-47 0-73-24t-26-66v-65q0-43 26-67t73-24 73 24 27 67v65q0 43-27 66t-73 24m0-27q32 0 49-16t17-47v-65q0-31-17-47t-49-17-49 17-17 47v65q0 30 17 47t49 16m177 22v-350h36v160h193v-160h36v350h-36v-161h-193v161h-36m442 5q-47 0-73-24t-26-66v-65q0-43 26-67t73-24 73 24 27 67v65q0 43-27 66t-73 24m0-27q32 0 49-16t17-47v-65q0-31-17-47t-49-17-49 17-17 47v65q0 30 17 47t49 16" />
</svg>