<svg id="fnt-Kolker Brush" viewBox="0 0 1610 1000" xmlns="http://www.w3.org/2000/svg"><path id="kolker-brush" class="f" d="M-51 682q-7 0-13-5t-12-8q4 1 9 1t10 1q16 0 33-7t27-19l2 1q14-20 29-39t28-39h-1l-2 4-1-1v-3l-3 1-1-3h-1q-7 0-12-7t-8-16-3-13q3-4 9-10t13-10 11-5q3 0 7 4t9 7 7 7q7-5 11-13t6-19 5-16l-2-4-8 8-2-1q3-7 7-19t12-21 15-9q4 0 13 2t18 6 8 7q-3 9-9 18t-14 15l-4-1 1 4-2 2 0 1-1 3-3-1-4 3 4 1v2l-2 4-3 0-4 3v3q0 2-4 9t-10 16-11 18-6 11q2 3 5 6t5 7q15-16 34-35t42-40 47-36 48-27 47-10q9 0 21 3t16 14q-7-3-15-3t-12 2l-3-2q-32 9-57 19t-48 24-49 35q-4 3-14 12t-22 18-21 19-9 13q6 12 18 25t25 28 28 24 26 18l5 0q7 1 13 1 14 0 26-6t26-10q-9 12-16 18t-15 7-23 2h-7l-3-1v-3q-2-4-7-4-4 0-9 1t-8 2l-2-1-3-2q-3 1-5 1-4 0-7-3t-6-5l-6 3-3-4-1-3-3-2-1 4q-6-1-12-4t-8-9q-12-13-24-26t-22-27q-5 4-11 9t-9 11l-3-1q4-7 8-13t10-12l-6-6q-4 5-7 10t-7 12q-3 2-8 7t-9 10-8 5q-2 4-10 10t-9 9q-6 3-14 4t-12 9l0 3q-10 5-21 11t-23 6m289-27q-7 0-12-4t-9-10h-1l0-4-1 1v-3l3-2h-1l-3-3h1l1-2v-1l-1-2v-1h-1l-7-4v-1q-4-4-6-8t-2-9q0-7 6-17t15-17 16-7q3-4 10-4l1-1 3 0q5-2 12-1l0-1h28q4 0 10 2t10 3q5 5 12 7t8 12q0 10-6 20t-14 15h-1q0 1-5 4t-9 7-6 5l-1 4q-4 0-7 2t-3 6q1 2 5 3t6 2l-2 1q-16 0-25 2t-13 4-11 2m14-13q15-7 21-12t9-7 7-9 14-15v-1q-2 0-3-1 0-4 2-9t2-9q0-9-7-15t-15-5q-5 0-10 1t-8 2l-7 0q-8 3-18 9t-16 14-7 18q0 5 2 9l2 0v-1l2-2 4-7v-2l3-5 1 1 1-3 3-2v0q1-1 3-1t3-2q0-4 4-5t4-4h3l3-4 2 2 5-3h4v1q-7 2-16 11t-15 19-6 19l1 9q5 3 11 6t12 3m-22 2l7 2 3-2-11-5-1 0 2 5m97 50h0q-10 0-14-5t-4-15q0-3 1-11t4-16 6-16 7-6q1-6 4-14t9-13l3-1v-1l5-5q1-2 1-2t1 0q0-4 1-9 6-3 8-9l1-4h1l10-21v0q0-3 2-4t2-3q4-7 12-20t19-25 20-25 16-17l2-1 4-7q4-1 8-3t10-2q4 0 11 2t12 6 4 10l0 4-1 1q-4 8-12 14-4 15-16 31t-27 32-30 28-24 22-11 11q-3 0-9 4t-10 10-5 7l-2 5q-14 8-20 23t-6 30q0 7 3 9t4 6m40-102q7-5 20-16t26-24 27-28 21-28 8-22q0-1-1-3t-1-3h0q-3 0-12 8t-19 20-23 28-23 29-16 24-7 15m38 85h0q-6-5-6-12 0-6 1-11t2-11h0q16-44 41-81t57-71q0-3 5-10t13-14 11-9q3 0 9 2t11 6 5 7-6 12-12 16-11 9v-6l-3 2v-1l-3-2q-3 3-7 6t-9 3v1l-2 3h-1v3h-2q-7 0-12 5v4l2 1v-1l2-2 1 1q-5 12-15 24t-18 23-15 25q-3 2-9 9t-9 14-4 11q0 2 0 4t1 3v0q13-11 18-21t7-17 7-11 17-2v0q5-5 12-11t14-12 15-5q1 0 2 1t3 1l3 5q0 5-3 9t-6 7h-1v2l-28 24q-1 2-1 4 0 4 2 11t7 12 11 5h6l5-4v0l1 0 7-3 0 0q-1 5-8 12t-14 12-13 6q-10 0-16-7t-8-15-5-15-5-7q-4 0-8 6t-5 8q-3 2-5 5t-5 5h-1l-5 4 1 1-4 5 2 3h-2l-3 5v2h0l-3-2v1h0l2 2-4 3-5 5-1 3m74-71h1q4-2 9-7t10-10 5-10l-1-3-1 1q-2 1-8 4t-6 7l-3-2-1 3-1-1q-4 3-4 9 0 3 0 5t0 4m63 64q-5 0-11-6t-10-9q-1-6-4-12t-2-11q0-9 6-21t18-24 22-20 20-8v-1q7 1 13 9t7 14q0 6-8 12t-17 11-20 9-15 3v1q-4 5-7 13t-3 16q0 2 1 5 4 3 9 2t9 1l1 0 1-2q7-1 13-3v-3h3v-2l2 1q2-1 3-3t4-2l3 2v-1l9-8h0l2 1v-1q6-6 14-11t11-13l5-4 1 1q0 4-2 7t-6 4q-4 9-12 16t-16 13h-1l-1 3q-9 6-20 14t-22 7m9-64h1v-1q4-1 12-6t17-11 9-8h0l0-2 0-3q0 0-2 0t-2 0q-7 4-13 8t-13 8h-1l-1 4q-3 2-4 5t-3 6m78-5l-2 4-3-1 0-3 5-2 0 2m47 61q-8 0-12-6l-11-6q-2-4-2-11 0-10 5-23t10-20q-3-2-6-5t-5-6l-1-1q-2 2-5 3t-5 2q-4 5-13 15t-18 21-20 19-14 8l-1-1q1-3 5-7t6-6q1-4 5-7t8-4h0l3-5 3-1-1-1 4-2q1-3 3-5t3-4v-1q11-8 20-19t20-20l0 0 0-3q0-6 2-13t7-10q3-5 8-11t12-5q5 0 6 4t1 9q0 12-6 19t-14 10-6 8l8 3 3-2 0 0h1q3-1 6-3t7-1q3 0 6 2t5 3l0 5q1 4-4 9t-10 12-10 16-5 22q0 3 1 6t6 3q6 0 13-4t15-11 13-8l2 2q0 4-6 9t-15 10-16 8-11 4m268 31l-2-1q-4-6-4-13 0-11 9-21t21-19 25-17 21-14 8-13q0-5-7-8t-11-4l-2-3v-1h-2l1 0v1q-5 1-11 1l-5-2h-1v3l-3-1-2-2-1 2v1l-1-1q-1 0-4 0-2 0-5 0t-5 1l1-3-2 0-5-1 1 2h-1v0l-2-1-1 1-5-6h1l-1-1q0 0-2-1t-3-1q-3 0-5 1t-4 3l0 4-3 1q-1 3-2 6t-1 6q-4 3-7 14t-5 24-3 26 0 18l3 7h0l4 4v1l-1 1-12-2q-6-4-11-13t-7-16l-1-1v-3q-5-7-5-13l5-13-3-5 4-9v-1h-3l-3 1v0l2-3q-1-7 2-15t8-16 5-15q4-4 6-9t4-9q10-21 24-40t28-37v-1q-5 0-20 2t-33 7-37 9-29 11-13 11l4 2q3-2 7-3t8 0l7-2-1 1q-11 7-20 16t-17 18l-4 1-1 3-6 1-1 1 1 9-17-8q-2-6-6-10t-3-11q12-15 28-26t34-18 35-16v1q3 1 6 1 4 0 8-2t8-3v1q5-1 9-2t9-3v1l8-3v0l3 0-1 0q0-1 1-1t1 1l2 0 2-3 2 1-1-1 1 1 1 0h7l4-1 1-2 13 1 1-1 4-2q4 0 7 0t7 0q4-4 6-10t10-5 12 3 12 3q1 3 8 5t16 5 17 2 11 1h0 0l21 7 2-1q5 0 13 6t15 13 12 11q1 3 2 7t3 8q-2 19-7 28t-15 13-26 9l-7-1v3h-1l-2-2-20 6v-3q-9 6-14 6t-15 1v-1h-3l-6 3-4-2-5 1 0 2q10 6 17 10t9 11 4 20q0 4-3 7t-4 8l-11 11-1-1q-9 6-19 8t-20 3l-1-3q-8 3-17 9t-16 14-7 17q-2 2-3 5t-1 7m0-133l3 4q6 0 15-3t15-5l0-2 14-3v0h2l1-2q7-1 14-3t14-1q10-5 21-5 5-2 11-4t12-2l1-1q8-3 15-6t14-6l-1 0 16-16 1-9q-2-5-6-10t-9-6l1 1q-10-4-19-10t-21-6v1h-1q-3-2-5-2t-4 1-5 0l-4-3h-6q-6 0-11 0t-11-1q-6 6-16 17t-19 22-12 20v5q-7 3-11 13t-9 16l0 3 1 3-1 0m-76-57h-3l2-4 1 1 0 2 0 1m289 159q-8 0-12-6l-11-6q-2-4-2-11 0-10 5-23t10-20q-3-2-6-5t-5-6l-1-1q-2 2-5 3t-5 2q-4 5-13 15t-18 21-20 19-14 8l-1-1q1-3 5-7t6-6q1-4 5-7t8-4h0l3-5 3-1-1-1 4-2q1-3 3-5t3-4v-1q11-8 20-19t20-20l0 0 0-3q0-6 2-13t7-10q3-5 8-11t12-5q5 0 6 4t1 9q0 12-6 19t-14 10-6 8l8 3 3-2 0 0h1q3-1 6-3t7-1q3 0 6 2t5 3l0 5q1 4-4 9t-10 12-10 16-5 22q0 3 1 6t6 3q6 0 13-4t15-11 13-8l2 2q0 4-6 9t-15 10-16 8-11 4m140 33l-1 1-7-12q-1-3-2-6t-1-6q0-5 0-10t1-9l4-8-1-1q1-2 2-4t1-4l-2-2q-3 0-10 7t-14 13-17 7q-7 0-12-4t-5-12l-1-1q6-10 10-21t8-20l-3-6-1 1-3-1-5 5-7 1 1 3h-1l-5 1-1 2h-3l0 3q-3 3-6 6t-7 3l-30 29 0-2q0-3 2-6t5-4l0-1 2-1 0 1 2-4h-1q1-1 2-3t4-1h1t0-1q3-5 8-8h1l2-2-1-1 5-2q0-5 8-11t19-11 14-4q5 0 13 2t7 10q0 14-5 23t-5 11l1 1q6 0 10-4t7-8 9-4q0-1 1-1t1 1q2-4 9-12t14-14 11-7q5 0 12 4t7 10q0 2-4 9t-8 14-10 13-7 7q-5 8-13 18t-7 21q0 3 1 6t1 6m42-5l-3 6q-3-4-3-9 0-3 1-6t3-6h0l0 0q3-5 11-13t17-15 14-7l3-2q3-4 8-8t9-6l3 1 0-2 1-1-1-5q-5-2-13-5t-14-8-6-11q0-5 9-14t21-19 25-15 17-7q6-2 9-8t6-10 8-5q6 0 11 7t7 11q-1 2-3 4t-3 4q-6 5-10 12t-7 14l-9 5-2-2h0q-2 3-4 5t-3 4q-2 2-4 6t-5 4l0-1q2-8 5-16t5-16l1-1 1-7q-5 0-9 2t-10 2q-2 2-7 6t-9 8-7 4q-3 6-9 11t-6 12q0 3 3 3t6 1v3l1 0 8 2 1-2q7 2 16 5t18 9 8 14q0 4-2 7t-4 7l-8 8-12-1q-4 3-12 4t-16 4-7 3l-5-4q-2 5-7 5t-10 0q-5 0-11 5t-10 12-5 12m132-11q-7 0-9-7t-1-11q0-3 1-13t5-20 7-9q0-5 4-14t9-10v0q1-2 2-3t3-3l1-1v0l0-7q3-1 4-5t4-6l2 2q3-4 7-9t5-10q2-4 5-7t7-7h1q3-2 6-2l2-3v-5l2-2q2-3 6-10t4-10q0-1-2-1-2 0-5 0t-3 1v-2l25-22v0q7-5 13-10t12-9q6 1 12 3t9 8v6q-3 4-12 13t-19 20-22 22-20 18-11 7l-6 6 3 4-3 5q-4 1-8 6t-4 10q-5 2-6 5t-3 5-9 5l-1 2v11l2 2-3-1-2 4h-1q-1 5-1 10l2 6q2-2 8-8t6-7l4-4q1-5 7-13t13-14 12-7v0l7 0q7 4 9 12t4 20 15 23l8-5h2q2-2 6-4t7-4l1 1q0 2-8 8t-15 11-11 6l-2-1-5 1-1-2q-13-2-18-7t-8-12-2-12-6-7q-3 4-6 7t-6 8q-5 2-9 9t-8 17-8 15-10 7m65-168l-5 1-1-2 2-3 3 0 1 4" />
</svg>