<svg id="fnt-Kotta One" viewBox="0 0 2103 1000" xmlns="http://www.w3.org/2000/svg"><path id="kotta-one" class="f" d="M71 352l-39-7q0-12 5-22 38 4 55 4 28 0 55-3l8-1q0 12-5 22-22 4-37 14-9 86-12 123 15-3 40-10 35-35 51-54t48-60l-40-10q0-12 6-22 36 4 55 4l48-4q0 12-5 22-19 2-36 18-56 57-104 117 44 63 102 161l41 7q0 12-5 22-45-4-77-4-48-91-102-167l-24 4q-4 58-8 135l41 8q0 11-5 21-51-3-70-3l-47 3q0-11 5-21 20-6 34-18 13-112 22-279m317 284l4 1h48q21-8 37-39t16-62q0-40-14-56-12-15-22-17l-4-1h-48q-21 8-37 38t-16 66 13 52 23 18m128-47q-14 34-44 58t-72 25q-85 0-85-93 0-35 14-69t44-59 72-24q86 0 86 93 0 35-15 69m119-155l59-2q0 12-5 30h-57q-10 89-12 175h60q0 11-5 21-44 4-71 16-28 0-28-22 16-122 20-190h-26q0-12 5-22 1 0 3-1t7-5 9-9q11-16 14-42 16-9 33-9-2 29-6 60m166 0l60-2q0 12-5 30h-58q-9 89-12 175h60q0 11-5 21-43 4-70 16-28 0-28-22 16-122 20-190h-26q0-12 5-22 1 0 2-1t7-5 9-9q11-16 14-42 16-9 34-9-3 29-7 60m289 203h42q0 11-5 21-34 4-61 16-7 0-13-5t-5-17l10-72-5-3q-19 45-38 70t-50 25-52-23-21-62q0-64 39-112t95-48q19 0 42 14 1-9 2-14 25-8 48-8-10 39-16 83t-12 135m-160-64q0 22 10 40t23 24h24q29-6 70-105 2-21 8-70h-80q-19 3-37 38t-18 73m339-27q0-70 31-127 34-62 94-86 32-14 70-14 53 0 84 37t31 93q0 87-48 155-23 33-61 53t-89 20-81-37-31-94m130-192q-42 23-65 69t-23 93 18 79 52 42h69q42-23 64-67t23-91-18-80-50-45h-70m259 108h-37q0-12 5-22 29-4 56-16 7 0 12 6t6 17l-10 71 5 3q16-35 46-65t69-29q19 0 30 5t13 10l1 5q-11 96-15 190h40q0 11-5 21-34 4-61 16-7 0-13-5t-5-17q11-70 19-190h-30q-20 0-48 31t-44 69q-5 62-12 105-24 7-47 7 8-33 14-78t11-134m344 175h89q0 11-5 21-53 14-76 14-86 0-86-94 0-34 15-69t46-58 70-24q24 0 36 12t11 31q0 90-141 93 0 68 41 74m65-155q0-16-14-20h-46q-16 6-28 28t-16 51q57-2 81-17t23-42" />
</svg>