<svg id="fnt-Koulen" viewBox="0 0 1301 1000" xmlns="http://www.w3.org/2000/svg"><path id="koulen" class="f" d="M78 667h-56q-2 0-2-3l1-343q0-2 2-2h56q2 0 2 2v119l78-119q2-2 4-2h57q2 0 1 2l-86 138 97 206q1 2-3 2h-61q-2 0-3-2l-67-147-18 27v119q0 3-2 3m259 5q-27 0-49-14-23-14-36-37t-14-50l1-158q0-28 13-50 13-23 36-36t49-14q27 0 49 14 22 13 35 36t13 50l1 158q0 28-13 50-14 23-36 37t-49 14m0-61q15 0 26-12t11-28l0-158q0-17-11-28t-26-12q-16 0-27 11t-11 29v158q0 17 11 28t27 12m227 61q-26 0-48-14t-36-37-13-50l1-250q0-2 1-2h57q2 0 2 2v250q0 17 10 28t26 12q17 0 27-12t11-28v-250q0-2 2-2h56q2 0 2 2l1 250q0 27-13 50-14 23-36 37t-50 14m302-5h-162q-2 0-2-3l1-343q0-2 2-2h56q2 0 2 2l0 284h103q2 0 2 3v56q0 3-2 3m198 0h-161q-2 0-2-3l0-343q0-2 2-2h161q2 0 2 2v56q0 2-2 2h-103v78h103q2 0 2 2l0 57q0 2-2 2h-103v87h103q2 0 2 3v57q0 2-2 2m101 0h-50q-4 0-4-4l0-340q0-4 4-4h45l84 197-2-193q0-4 4-4h50q3 0 3 4l0 341q0 3-2 3h-44l-87-184 4 180q0 4-5 4" />
</svg>