<svg id="fnt-Kranky" viewBox="0 0 1674 1000" xmlns="http://www.w3.org/2000/svg"><path id="kranky" class="f" d="M29 316q1 4 3 3t4-1q2 1 3 2t4 1q5 2 10 1t10-1q1-1 3 0t2 0q5-2 6-2t4 1q25 1 50 0 3-1 5 0t5-1q1 1 3 1t3 1q2-2 6-1t7 1q2 7 2 9t-1 4-2 2-2 4q-6 0-10-3-4 0-9 1t-9 0q-5-1-10-1t-6 2q-2 1 0 3t1 3q0 2 0 3t-1 4q0 1 1 2t1 3q-1 5 0 7t1 4q1 7 3 14t1 14q1 3 2 6t2 6q-1 6 0 6t0 2q0 4 0 7t0 6q0 2 1 4t0 3q0 2-1 3t-1 4q0 9 1 22 0 1 1 2t1 4q-1 3 0 5t2 5q0 4 0 10t0 10q1 1 3-1t6-5 4-6 2-4q3 0 3-3t3-3q6-3 7-5t3-4q4-4 4-5t1-1q3-4 6-6t6-6q2-6 4-7t2-4q6-3 9-7t8-7q1-3 3-4t3-4q3-2 5-5t4-5q1-1 2-2t3-2q2-3 5-6t6-5q2-2 3-4t5-4q0-2 1-3t1-3q3-2 6-4t5-4q1-1 2-2t2-3q-1 0-2-1t-5-1-5-1-3-1q-1 0-3 0t-3 0q-4-2-7-1t-4 0q-7 2-8 4t-4 0q-6-2-7-7t3-9q3 0 6-2t6-2q2 0 3 0t3 1 3 0 5-2q5 1 6 2t2 1q6 0 8 1t3 1q2 0 5 0t6 0q2 0 3 1t3 1q0 0 3 0t6-1 6 0 4 0q2-1 4-1t5-1q0 0 3 0t4-1q2 0 4 1t4 1 4-1 3 0q4 0 7 0t6-2q8 4 18 2 1 1 0 5t2 4q-1 4-6 6t-8 3q-2 0-3-1t-3-1q-8 0-9 1t-5-2q-8 1-17 2t-18 2q-2 0-2 2t-1 3q-3 0-7 4t-6 6q-3 1-8 4t-6 6q-5 7-9 10t-7 6q-1 2-2 3t-2 4q-1 1-4 3t-5 4-5 5-3 4-2 3-2 3q-2 3-5 4t-7 4q-1 1-2 4t-4 3q0 3 3 4t2 4q2 2 3 4t4 2q1 2 1 4t2 4q3 4 3 5t0 2l4 4q1 3 3 7 2 6 3 8t1 4q3 1 4 3t2 5q2 3 4 5t5 5q1 1 2 4t1 4q2 2 4 4t2 5q3 2 6 6t5 6q4 5 5 8t6 5q1 7 7 11 3 8 6 11t4 6q2 4 4 10t6 7q0 3 2 7t5 8 5 8 4 7q4 5 6 11t4 8q5 5 5 6t2 1q-1 4 1 6t4 2q1 3 2 5t3 3q0 4 2 5t2 4q5 0 9-2t8 0q6-3 8-3t5-1q5-2 6-1t2 1q4 0 8-1t8 2q1 2 1 3t1 3q-2 3-4 6t-5 7q-2-2-6-1t-6 1q-4-2-12-1t-11 5q-6-1-12 1t-12 1q-8 0-15 1t-15 3q-3 0-5 0t-2 2q-2-1-6 1t-9 2-8 1-6-4q-2-2-2-5 0-4 3-5t5-4q6 1 13-1t13-3q1-1 2 0t3-1q8-3 11-2t7-2q1-3-1-4t-2-3q-2-6-3-7t-2-2q-1-1-2-3t-3-2q0-1-1-2t0-3q-2-1-2-3t-3-2q1-3 0-4t-1-3q-1-2-3-4t-3-4q-2-4-3-4t-1-1q-1-2-2-4t-2-3q0-2-1-3t0-3q-1-1-2-2t-3-3q-1-2-2-6t-4-5q-1-12-13-22 1-1 0-3t-4-6-4-6-4-4q-3-6-8-7-2-5-2-7t-2-4q-3-4-6-7t-4-8q-1-2-2-3t-1-4q-3-3-3-3t-2-1q-2-5-3-7t-4-3l-3-6q-1-1-1-2t0-3q-6-11-9-18t-8-11q-1-6-7-8-3 0-5 3t-5 4q-4 2-5 4t-2 4q-2 2-4 5t-4 3q-1 1-3 2t-2 1-2 3-2 3q-2 3-5 5t-5 5q-1 4-2 5-3 3-5 4t-2 4q-3 9-2 18t1 14q1 1 1 3t0 5 0 5 3 4q-1 10 0 20t0 20q3 9 4 12t2 6q0 4 0 9t3 7q9 2 18 2t18 1q1-1 2-2t3-2q-1 3 1 3t4 1q1 2 0 5t1 5q-2 3-6 4t-6 4q-6-2-11-1t-11 0q-2 0-3-1t-3-1q-4-1-8 0t-9 1-9-1-9-2q-2 0-3 1t-3 0q-3 1-7 0t-7 1q-6-2-8 0t-5-2q-7 2-14 3t-14 0q-2 0-4 0t-6 1-6 1-3 1q-7 2-11 1t-7-1q1-3-1-4t-3-2q-1-3 1-5t4-5q7-1 16 0t15-3q2 0 3-1t2-3q-2-2 0-5t1-4q0-4-1-7t3-7q-2-7-1-14t0-14q0-2-1-3t0-3q0-5 2-12t-2-12q2-4 2-9t0-9q1-5 0-6t0-3q3-13 2-23 3-16 4-28t1-24q0-2 1-3t0-3q0-1 0-3t-1-3q0-1 1-2t0-3q0-2-1-4t-1-3q0-5 0-10t1-9q0-2 0-3t-1-4q0-1 1-3t0-2q-1-6 0-7t1-2q1-3 1-5t0-5q0-4 0-8t0-8q0-2 1-5t2-4q1-4 1-8t1-9q1-3 2-6t0-6q-9-1-20 0t-19-3q-2 0-4 0t-3 0q-2-3-3-5t-2-6q2-3 5-4t5-3m86 308l1-3q0-2-1-5t-1-4q1-4 0-7t-1-7q0-2 1-5t0-5q-1-4-2-8t1-8q-2-3-3-8t0-8-1-9-2-8q2-1 1-4t1-5q-2-3-2-6t-2-6q3-4 2-11t-1-13q0-3 1-4t-1-5l-1-6q0-3 0-4t-1-2q-1-4-1-5t1-3q0-2 0-4t-1-4q0-12 1-23t-1-23q-1-6-2-11t-2-10q0-2 0-3t0-3q0-2-1-4t-1-4q-1-4-1-6t1-5q-2-1-2-4t1-5q-3-6-2-10t0-8q-4-1-5 0t-3 2q1 2 2 4t1 4q-2 5-4 11t-2 11q0 6-1 8 0 6 0 6t0 2q1 2 0 3t0 3q-1 1-2 7t-2 12 0 13 1 8q1 1 0 3t-1 4q1 3 1 3t0 3q-1 3 1 5t2 3q-4 5-3 11t1 10q0 3-1 5t-2 6q0 2 0 6t0 6q0 7 0 9t-1 5q-1 8-2 17t0 17q-2 2-3 9t0 10q1 2 0 6t-1 9-1 10 2 9q-1 1-1 4t-1 3q4 10 2 22t-3 22q7-1 13 0t12-1q1 1 2 2t3 1q4-2 10-2t11 0q-1-2 0-5t0-6q0-2-1-3t-1-3q-1-6-2-7t0-1m335-99q5-1 8-7l5-3q1-1 2-4t3-3q4-2 5-3t2-2 2-2 2-3q4 0 5-5 5-3 7-4t3-4q1 0 5-1t7-3 7-4 6-2 5 0 4-2q3 2 6 2t4 3q3 0 4 0t3 1 2 2 4 0q2 2 3 4t4 0q0 3 2 3t2 4q1 1 2 2t3 1q0 6 2 11t3 10q0 4-1 8t4 6q-3 5-4 13-4 2-11 1t-9-5q3-9 3-12t0-8q0-1-1-3t-1-3q-1-4-1-6t-1-3-3-3-6-4q-2-1-4-2t-4 0q-5-4-9-2t-9 3q-3 1-6 2t-4 4q-5 1-8 3t-6 4q-2 4-4 5t-2 2q-2 4-3 4t-1 1q-2 5-3 6t-1 2q-1 1-3 1t-3 1q-2 1-3 3t-4 2q-3 3-3 4t-1 3q-5 5-5 7t-2 4q0 3-2 3t-3 1q2 11 0 22t-1 21q1 1 1 2t1 3q1 2 0 4t0 3q0 3 1 5t1 4q0 1 0 2t-1 3q0 7 3 14t0 12q0 1 3 1t4 0 5-1 3-1q4-3 5-1t4 1l3 4q1 3 1 6t-1 3-2 3-2 4q-1 0-4 0t-2 1q-7-1-8 0t-4 0q-2 0-5-1t-6-1q-6 1-7-1t-3-1q-7-1-13 0t-13 2q-2 0-5 0t-4 0q-3 0-5 1t-4 1q-2 0-6-1-4 0-7 0t-7-1q-11 3-21 0-1-2-2-5t-1-4q2-5 6-6t8-1 8 1 6-2q1-1 1-3t0-3q3-1 4-4t2-5q2-7 3-15t2-14q1-1 1-3t1-2q-1-7 0-11t2-7q0-4 0-7t1-8q1-1 1-2t1-3q1-6 1-12t1-11q2-5 2-7t-1-2q2-4 3-8t0-6q0-1 1-4t1-7 2-8 0-6q-2 1-10 2t-18 3-16 4-8 4q-1-2-3-1t-4 0-4-1-5-3q-1-7 1-8t3-4q11-1 21-4t21-4q9-2 13-4t9-3q3-1 5-1t4-2q7 2 9-2 7 2 13-1t14-1q1 1 1 3t3 1q-3 4-2 8t-2 8q1 1 0 5t0 6q0 4-1 6t-2 7q0 3 1 5t1 6m-17-33h-6q0 1-1 3t-1 3q-2 3-1 6t0 5q-4 3-4 9t-1 10q-1 2-1 4t-1 4q-1 4-1 10t1 9q-4 6-4 15t1 15q-2 2-4 6 0 2 0 7t-1 7q-2 6-1 7t0 2q0 4-2 7t1 7q-1 2-3 5 1 3 0 6t-2 5q-1 4-2 5t0 3 3 2 4-1 3-1 1 0q2 0 5 0t7 0 6 0 5 0q-1-4 0-8t0-8q0-2-1-4t-1-4q1-12-2-20t-1-17q0-2 1-4t1-3q1-5 0-10t-1-9q0-9 0-17t1-16q1-10 2-20t0-20m359 159q3 1 6 2t6 0q6 0 7 0t2 1q4 1 12 1t11 2q1 1 0 3t2 3q-1 2-2 2t-4 0q-6 4-7 5t-2 3q-5 0-10 1t-11-1q-2 0-3 0t-3-1q-3 0-8 0t-10 2-11 1-5 0q-3-1-3 0t-2 1q-3 1-4 0t-4 0q-4 1-7 3t-7 1-6-4-3-6q-2-14 0-25-3 0-4 1t-2 2q-3 1-4 2t-3 2q-1 1-3 2t-3 2q-2 3-4 3t-1 3q-3-1-5 1t-6 2q-3 1-6 2t-6 1q-1 1-3 1t-3 2q-2 1-4 0t-4 1-3 1-3 0q-4 1-8 3t-9 0q-3-1-4-2t-3 0q-5-5-14-6-4-4-9-7t-10-8q-2-5-4-11t-3-12q-1-4-2-5t-1-2q0-1 0-3t1-3q0-4 0-7t3-5q-1-5 0-10t3-9q4-4 5-12 2 0 4-2t2-4q2-1 4-3t2-3q5-2 5-3t1-2q4-2 5-3t2-1q2-3 5-5t5-4q2 0 3 0t3 1q5-3 6-4t2-1q5-3 12-5t12-3q2-1 5-2t5-1q4-1 9-1t8-2q4 1 6 2t6 0q2 4 8 4t9 3q2-6 0-12t-3-13q0-2 1-3t-1-3q0-5 0-6t-1-1q-1-2-1-6t0-6q-1-2-2-4t0-3q-2 0-5-2t-5-1q-8 1-14 0t-11 1q-3-2-8 0-1 1-3 0t-3 0-3 1-3 2q-4 1-7 1t-6 5q-7 0-10 3t-9 5q-5 4-7 10t-7 9q1 5-1 8t-2 6q-4 0-10-2t-6-7q-1-2 1-4t2-4q4-8 8-16t9-13q4 0 8-3t5-5q5 2 7-3 5 0 9-3t7-1q3-3 4-4t3-1 3 1 2 0q2-1 5-2t4-2q5 2 8 1t8 1q2-2 5-2 6 0 16 2t19 4q4 3 7 5t10 2q5 5 11 11t11 11q0 5 2 9t3 4q0 6 5 8 1 7 4 13t2 13q0 3 1 3t2 3q-1 6-1 12t0 13q0 2 0 4t1 4q-3 10-2 16t0 11q0 7-1 8t-1 4q0 3 0 5t1 5q0 3-2 6t1 5q-2 2-2 6t1 7m-42-140q0 7 0 10t0 7q0 1 1 3t1 3q-1 10-1 15t-1 10q0 5 0 9t0 10q0 2 0 6t-1 5l1 6-1 8q-1 7-3 14t-2 14q0 2 0 3t1 4q0 4-1 7t0 7q1 2 3 3t2 4q7 1 13-2 3-1 4 0t5-1q-1 0-1-4t1-4q0-5 1-6t0 0q3-10 3-21t1-20q0-5 1-10t0-9q1-4 0-6t0-3q0-1 1-2t0-3q1-2 0-4t-1-4q4-4 2-8t-2-8q-2-6-1-8t-1-4-2-3-2-2q1-2 0-5-3-5-5-10t-5-10-6-9-9-7q-1 7 0 13t4 12m-17 53q-4-2-8-8-1-5-2-5t-3 0q-4-4-5-4t-2 0q-4-2-6-1t-3 0q-10-1-16 2t-11 1q-3 3-9 3t-8 4q-3 0-5 1t-4 3-4 2-3 1q-1 3-4 5t-6 3-6 4-3 6q-5 4-7 7t-3 4q-2 4-2 7t-3 6q2 3 1 5t-2 4q0 2 0 4t-1 4q3 6 5 12t6 12q2 1 4 3t4 1q6 5 14 7t16 0q8-4 13-4t8-3q2 2 5 0t4-4q3 1 5-2t5-1q3-5 4-5t3-1q4-2 6-5t7-5q1-7 7-11 1 0 3 0t2-1q1-3 1-5t1-5q0-3 0-8t0-7q3-7 2-15t0-11m208-77q0 2-1 3t-2 3q0 1 0 4t1 3q-2 4-2 12t0 14q2 1 2-1t2-3 3-2 3-2q6-5 9-8t6-4q1-2 3-4t3-3q2 0 5-2t7-3 7-4 5-3 5-2 5 0q4 0 9-2t8-1q1 0 2-1t3 0 4-1 2-1q9-1 14 1t14 3q3 1 4 3t5 1q1 2 4 3t3 3q2 4 4 5t2 2q3 3 3 3t1 1 2 3 3 2q0 5 3 7t6 6q1 4 0 8t3 9q-1 3-1 7t1 7q0 3-2 7t0 7q0 2 0 7t-3 5q1 3 0 9t-2 8q-1 2 0 3t0 3q-2 2-2 5t-3 5q1 3 0 5t0 4 1 4-1 5q-2 2-2 8t-1 7q2 2 6 3t6 1 6 1 2 2q4 1 8 4 1 1 0 4t-2 4-3 4-3 2q-5 2-8-1t-7-4q-2 0-3 1t-3 0q-2 0-3-1t-5-1q-4 0-7 0t-8 1-7 0-5-2q-3 0-7 0t-9 0-7-2-6-5q1-3 2-4t3-5q7 1 13 0 3-1 4 0t2 1q9-1 12-1t6-1q2-1 1-3t-1-4q3-2 4-4t-3-4q3-3 4-8t4-9q-3-9 3-16-1-5 1-10t3-11 2-10 0-11q0-2-1-3t0-3q0-4 1-7t0-7q-2-7-5-13t-9-12q-2-2-4-4t-5-2q-1-1-2-2t-2-2q-1-1-4-1t-5-1q-2-1-3-2t-3-1q-5-1-7 0t-6 2q-5 1-13 1t-12 6q-3-3-7 0t-7 3q-8 5-12 8t-8 8q-5 2-6 7-3 0-4 2t-3 1q-4 6-7 11t-8 10q0 3 1 6t1 5q1 3 0 5t-1 5q0 2 1 3t0 3q1 1 0 2t0 3q0 3 1 4t0 4q1 3 0 5t0 5q2 2 1 2t-1 4q1 3 1 6t1 7q1 6 2 12t4 11q-2 4-1 8t1 8q1 1 5 1t7 0 7 0 6 0q1 2 3 3t3 3q-2 4-5 6t-7 6q-4 1-8 0t-7 1q-2 0-4 1t-4 0q-2 0-3-1t-3 0q-2-1-3 0t-2 1q-4 0-8-2t-6-1q-2 0-4 1t-3-2q-4 0-7 2t-6 1q-5-1-5-1t-1 1q-2 0-4-1t-4 0q-3 0-6 1t-6 1q-4 1-8 1t-8 0q-7 3-11-2t-3-10q3-2 6-3t6 0 7-1 6-3q0-5 0-9t0-9q2-6 3-11t2-8q1-6 0-9t0-6q2-13 3-21t2-18q0-2 1-5t1-5q-1-5 1-9t-1-7q1-5 1-6t1-4q0-12 1-19t2-14q-6-1-12 1t-11 2q-3 2-7 3t-8 0q-2-2-2-4t-2-3q-3-1-2-4t-1-3q3-3 5-3t6-1q5-1 6-1t3-1q5-1 10-1t10-1q2-1 3-1t4-2q4-2 10-2t9-4q2 0 3 0t4 0q2-2 7-3t8-1 8 3 3 7m-33 12q-4 5-4 13t-1 14q0 1 0 3t-1 3q-2 7 1 13-4 3-2 6t1 5q-3 6-3 12t-1 11q-1 3-1 5t-1 6q0 2 0 5t0 4q-1 2 0 3t0 3q0 4-1 9t0 8q1 3-1 4t0 3q-2 2-1 3t2 3q-2 1-3 3t-2 4q0 3 0 6t-1 5-1 6 1 6q3 0 4 0t4-1q6 2 10 0t8-1q4 0 7 1t7 0q1-6 0-12t-2-10q0-2 0-3t0-4q-2-5-1-6-2-3-2-6t0-5 1-5 0-3q-2-3-2-8t-1-8q1-3 0-6t-1-6q-1-2 0-4t1-4q-1-1-1-2t-1-3q1-9 0-12t-2-8q0-1 0-3t1-2q0-2 0-4t0-3q0-2 1-4t1-4q0-3-1-6t-1-7q0-4 1-8t1-8q-4-3-6-1t-7 0m319 75q3-2 6-5t4-7q4-4 7-7t5-4q1-3 3-4t4-4q2 0 3-2t3-1q1-2 2-3t2-4q5-2 7-7t8-8q1-5 5-8t7-6 7-8 3-5q-1-3-2-1t-4 1q-3-1-4 0t-2 1q-1 0-3 0t-2 0q-4 0-6 0t-4 1-5 2-3 0q-4-1-6-7t3-9q6-4 10-3t7 0q6-1 9-1t4 0q4 0 7-1t7-2q4 1 7 2t6 1q2 0 4 0t4-1q6 0 13 1t12 0q4 0 9-2t9-1q1 2 3 3t2 2l4 6q0 2-3 4t-3 4h-7q-2 0-3 1t-2 1q-1 0-5-1t-7 0-8 0-5 1q-1-1-3-1t-4-1q-5 1-4 2t-1 2-4 2-4 2q-1 1-3 4t-1 5q-2 1-3 1t-3 2q-4 4-5 6t-3 2q-3 6-5 7t-1 4q-4 1-7 5t-4 8q-4 1-7 4 0 3 2 4t3 2q1 3 4 7 2 2 3 3t0 2q3 1 3 3t3 1q1 5 5 8t4 8q3 5 6 6 1 3 3 7t2 7q4 2 4 3t0 2q3 4 6 6t5 8q2 1 3 2t2 0q4 5 6 8t6 4q1 2 2 4t3 2q1 5 2 6t1 1q0 4 2 5t2 4q6 0 7 0t3-1q7 0 16-1 2-1 6-1t3 1q2 0 3-2t4-2q1 0 3 1t3 3 2 2-1 2q0 3 1 5t-1 3q-4 1-5 3t-6 2q-4 1-10 1t-11 0q-3 0-7 1t-7 1q-2 0-3 2t-3 3q-2 0-2-2t-4-1q-3 1-6 1t-7 1q-4 0-5 1t-3 1q-3 0-9 0t-9 0q-2-1-3-3t-4-1q0-3-1-4t-1-3q0 0 3-3t4-3q3-1 6 0t5-1q5 3 10 1t9-3q-2-5-5-8t-4-9q-2-1-4-3t-4-2q-2-6-7-6 2-2 0-3t-2-2q-2-4-4-7t-6-5q0-5-3-11t-8-8q0-2-1-4t-4-5-4-5-3-2q-2-8-6-13t-10-9q-7 1-9 9-4 0-6 4-5 8-8 10t-5 7q-7 2-7 4t-1 1q1 3 0 6t0 5q0 2 0 3t1 2q0 3 0 5t0 5q0 1 0 3t1 3q-1 4 0 9t2 9q0 2-1 4t1 3q5 4 9 4t6-2q4 3 9 3 1 2 4 3t4 2q-4 2-6 5t-6 5q-1 0-5 1t-10 1-10 1-6 1q-12-1-18 0t-14 2q-5-1-6 0t-2 1q-6-1-7 0t-4 2q-3 1-7 1t-7 1q-2 1-4 3t-5 1q-1 0-3-1t-4-1q-1-1-2-3t-1-2q-1-4 0-5t1-4q3 0 4-1t3-2q3 1 6 0t6-4q0-5 0-10t0-10q4-8 4-15 0-1-1-3t0-3q2-5 2-6t-1-3q0-7 1-15t1-16q-1-5 0-6t1-3q0-2 0-3t-1-4q0-2 0-3t1-3q0-7 1-14t2-14q0-5 1-9t-1-10q2-4 2-10t-1-11q1-3 0-4t-1-3q0-3 1-6t-2-6q1-5 0-10t0-11q0-4 1-8t0-7q0-4 1-5t1-4q1-3 1-6t1-5q2-6 1-8t0-3q0-4 1-8t1-8q-1-5 0-6t1-3q1-7 1-16t0-16q-5-2-9-1t-9 3q-4 1-4 1t-1 1q-3 1-10 2t-11-1q-3 1-7 3-2 0-4-3t-4-4q1-2 0-5t1-5q1-1 3-1t3-2q4 1 4 1t1-1q2 0 5 0t4 0q9 0 17-4 4 0 7 0t8-2q1 0 2-1t3-1q2-1 5-2t6-1q3 0 4-1t2-2q6 2 11 1 6-1 9 1t5 1q4 6 3 8t4 5q-2 3-1 4t1 2q0 3 0 7t-1 6q0 2 0 4t1 4q0 5 0 10t3 10q-3 8-3 11t1 6q-1 5-2 9t0 9q1 7 0 11t0 8q1 2 0 4t0 3q0 3 1 5t1 6q-2 0-1 2t2 3q0 2-1 5t0 4q0 4 1 8t1 7q-1 7-1 14t0 10q-1 7 0 9t1 4q0 4-2 7t0 7q2 4 1 5t0 3q-1 4 0 7t1 8q0 2-1 5t1 5m-32-228q0 3-1 5t0 5q1 2 1 3t-1 3-1 4 1 3q-1 6-1 7t1 4q-1 2-2 4t-1 4q1 5 1 10t-1 11-2 11-1 7q0 3-2 6t1 7q-3 1-2 3t0 2q-1 2-2 7t2 7q-3 4-2 9t1 6q0 3 0 4t1 5q2 4 2 5t1 1q-1 2-1 4t-1 3q0 2 0 3t1 4q0 1-1 3t0 3q0 2 0 4t1 4q0 5-2 10t2 10q-1 2-2 2t-1 4q0 5-2 11t-1 11q0 1 1 3t0 3q0 1-1 3t-1 3q0 2 0 4t-1 3q3 3 1 6t1 6q-2 6-1 6t0 1q1 3 1 7t0 10q-1 2-3 10t-2 10q2 3 1 7t-1 5q-1 2-1 6t0 6q8 1 18-1t19-2q2-4 2-6t1-2-1-2-1-5q0-3 0-6t-1-6-1-7 0-4q0-2 1-4t0-4q0-1-1-2t-1-3q-1-5-1-10t-1-10q0-2 1-3t1-2q1-3-1-4t-1-3q0-6 0-9t-1-6q2-5 1-10t0-10q0-6 0-11t1-11q0-6 0-10t-1-10q0-6 0-10 0-4 1-8t-1-8q0-1-1-3t0-3q1-4 0-4t0-1q-1-9 0-17t-1-17q-1-4-1-6t2-6q0-3 0-6t0-7q1-8 1-15t0-12q0-2 0-5t0-5q0-2 0-6t0-7-2-7-3-4q-1 0-4 1t-4 1m330 121q1 3 1 6t-2 6q-3 1-6 2t-6 3q-2 1-4 0t-4 1q-2 1-4 0t-2 0q-10 2-15 1t-9 1q0 1 0 4t1 8 1 7 2 5q0 2 1 4t2 4q1 3 2 7t3 6q4 4 6 5t3 3q1 5 3 9t5 9q-1 1 1 4t2 8 3 7 3 5q0 1 0 4t1 3q1 2 2 4t4 4q0 3 1 4t2 4q3 3 3 5t0 2q3 4 6 7t5 7q1-1 2-3t2-2 1-4 3-3q-1-2 0-3t0-4q3 0 3-3t3-3q0-4 2-7t4-7q1-3 1-7t2-8q1-2 3-3t2-4q1-1 1-4t2-3q1-5 4-10t4-9q4-11 8-22t6-18q-6-3-14 0t-15 2q-2-2-3-5t-3-5q1-1 1-3t3-2l5-2q1-1 3 0t4 0q6-2 6-2t2 1q4 0 6-2t6-1q2 0 3 0t4 1q6-1 8 0t4-2q2 2 8 2t8 0q2 0 4 0t4 1q5-2 7-3t5 0 5-1 3 0q5 2 5 1t2 0q2 0 3 1t4 1q1 3 4 6t1 6q-3 3-6 2t-6 2q-3 1-6 0t-7-1q-1 0-2 1t-3 1q-1 0-3-1t-2 0q-5 0-8 1t-9 1q-2 0-4-1t-3 0q-7 2-7 6t-2 8q0 3-2 5t-3 5q-1 3-2 8t-4 6v7q-3 3-5 7t-1 8q-3 1-2 3t-1 4q-2 3-2 4t-1 2q-3 3-4 6t-2 5-2 6-1 3q-1 3-1 5t-1 4q-3 4-4 7t-2 6q-1 2-2 3t-2 3q0 1-1 6t-1 6q-2 1-3 4t-1 6q-1 2-2 3t-2 3q-1 2 0 4t-1 3q-1 6-3 11t-2 11l-3 5q-2 6-1 7t-2 2q-1 5-3 9t-5 8q0 6-2 8t-4 8q-1 6-4 11t-3 11q-1 3-2 3t-2 1q0 5-2 8t-1 8q4 2 4 3t2 1q5-2 5-1t1 0q3 0 6 0t7-1q2 0 5-1t5-2q6 1 10 7-2 1-2 3t-4 2q0 2-3 4t-5 3l-6 2q-5 1-9 1t-8-1q-5 0-10 1t-10 0q-2 0-4 0t-4-1q-6 1-7 1t-3-1q-8 0-17 1t-18-1q0-1-1-2t-2-2q-3-5-1-8t7-6q4 2 7 1t8 0q1 0 3 1t3 1q7-1 9-1t4 0q5-1 8-6t3-9q0-2 1-3t-1-3q1-2 2-4t3-3q1-5 3-10t4-8q0-2 1-3t1-2q1-3 2-5t1-5q1-2 2-6t3-5q2-4 3-4 1-3 1-7t2-6q-2-3-5-5t-6-4q-1-1-1-3t0-4q-2-4-5-9t-5-9q-1-3-5-6t-6-7q-1-1-2-2t-2-2q-3-5-3-5t-2 0q0-1-1-3t-1-4-2-2-2-2q-4-4-4-5t-1-3q-4-3-4-4t0-1q-3-2-3-3t-1-3q-1-2-3-3t-3-3q-2-5-3-6t-1-1q-2-5-2-6t-1-2q-1-3-4-6t-5-4q-1-3-3-6t-5-4q-2-5-4-11t-8-10q0-2-2-8t-5-13-5-12-4-7q-5 1-10 2t-9 4q-2 0-3-2t-3-2q-3-4-3-6t4-5q3-3 5-3t3 0q2-1 3-2t2-1q4-1 8-1t8-1q7-3 10-2t6-1q11-3 17-2t13 2q6 0 13-2t12 0q3 0 4-2t3-1q5 1 10 0t11-1 10-1 9 2m-104 22q1 1 1 4t1 3q2 3 2 5t0 4q3 2 4 4t1 4q2 4 4 7t4 7q2 4 3 4t1 1q-1 2 1 4t1 4q3-1 3 1t0 4q3 1 3 2t1 3q3 3 4 5t2 4q1 1 2 2t2 3q2 3 4 5t1 5q1 1 4 5t5 6 4 7 1 4q4 1 6 6t5 7q2 1 6 6t4 8q4 3 8 7t7 9q1 1 1 3t1 2q4 1 3 3t2 1q0-3-1-5t-3-3q-2-5-2-7t0-3q-2-2-4-4t-2-5q-4-3-6-7t-5-8q0-3-1-6t-2-6q-1-2-2-5t-2-4v-6q-2-1-3-4t-1-4q-4-2-5-7t-4-9q-1-2-3-3t-2-4l-3-5q-1-1-2-4t-1-5-2-6-1-2q-1-2-2-4t-2-4q-1-6-3-11t-2-10q0-5-1-6t-1-3q-7 1-13-1t-13 0q-2 1-4 1t-4 1" />
</svg>