<svg id="fnt-Kreon" viewBox="0 0 1235 1000" xmlns="http://www.w3.org/2000/svg"><path id="kreon" class="f" d="M137 667h-109l-4-37 31-5v-263l-31-2v-39h108l5 37-31 6v144l119-145-39-6v-36h111v37l-18 4-93 112 85 152 28 4v37h-66l-81-153-46 55v57l31 4v37m329 0h-136l-6-27 30-8v-169l-26 1-5-29 60-11 15 23q10-11 24-17t27-6q22 0 38 10t23 28l-49 25-16-24q-8 0-18 5t-19 18-7 32v108l65 14v27m172 2q-32 0-57-15t-40-41-14-64q0-40 15-68t39-42 55-15q20 0 38 8t30 22 12 37q0 24-11 39t-29 25-40 12-44 4l-15 0q3 25 19 42t49 18q19 0 34-7t25-16l10 36q-7 6-18 12t-27 9-31 4m-62-134l13 0q11 0 25-1t26-6 20-13 8-23q0-15-10-22t-22-7q-17 0-30 9t-21 27-9 36m281 134q-31 0-55-16t-37-44-14-64q0-37 14-64t38-42 54-15q31 0 55 15t38 43 13 63-13 64-38 44-55 16m0-39q19 0 32-10t20-29 6-43q0-25-6-44t-20-31-32-11q-14 0-25 7t-18 19-11 28-3 34q0 24 6 42t20 28 31 10m244 37h-100l-4-27 28-7v-170l-26 0-5-29 62-11 15 20q11-8 27-14t33-5q22 0 38 8t26 22 10 39v141l29 6v27h-102l-1-27 27-7v-131q0-20-9-29t-27-10q-15 0-29 7t-21 13v150l29 7 0 27" />
</svg>