<svg id="fnt-Kristi" viewBox="0 0 823 1000" xmlns="http://www.w3.org/2000/svg"><path id="kristi" class="f" d="M124 377q2 1 3 4t-28 101l75-90q3-2 7-2t8 4 3 8q0 4-20 27l-40 49q13 112 19 138t15 44 23 30q6 5 12 7t7 4q0 3-9 3-26 0-48-32-12-18-21-46t-14-65-7-54l-26 34q-4 15-17 61t-16 56l-3 13q-2 7-4 7-7 0-11-7t-5-12q0-18 52-201l18-64q2-6 7-9 14-8 20-8m161 135v1l0 3-1 3q0 6-17 47-17 41-17 58 1 29 14 29 14 0 40-30 32-37 39-55 7-19 11-19 3 1 4 7 0 7-2 10l-2 7q-11 27-33 56-33 42-58 42-8 0-15-4-16-10-16-39 0-10 4-30t4-21-4-4q-9-4-12-1-3 4-22 53t-26 49q-2 0-8-2t-7-9q0-1 7-14l13-31q14-33 33-88l33-91q1-4 8-4l6 0q12 0 12 8 0 4-13 37t-16 50l-1 7q0 3 1 4 1 0 6-11l7-12q1-2 3-6 5-10 12-10 13 0 13 10m127-70q-1-1-6-4-6-5-6-6 0-7 18-31t21-30q6-6 17 6 8 11 5 17-2 6-21 27t-28 21m58 153q-9 25-36 52-31 31-53 31-29 0-36-33-2-10-2-22-1-38 14-87 18-63 35-63 8 0 11 3t4 6q0 8-16 38t-19 45-6 36-2 28q0 22 6 27t12 6q22 0 52-38 14-18 22-34 4-5 8-5 6 1 7 6 0 1-1 4m80-99q0 35-19 36-5 0-10-2 2 43 2 84t-15 58q-9 9-23 9t-21-9-7-19q1-11 15-12 9 0 8 13t6 12q13 0 16-33 1-16 1-43t-4-28q-2 0-6 7t-16 26-23 30-12 11q-7 2-8-5 0-7 7-17 27-35 51-80 6-11 6-12v-36q0-10 10-15 4-2 7-2 16 0 28 9 7 4 7 10t0 8m-31 16q9-1 10-5t1-9 0-6q-8 0-10 10-1 3-1 6t0 4m117-34l88-2q3 0 6 5t3 13q0 5-14 5-40 1-98 10-4 12-13 34-41 99-41 139 0 20 7 38 14 31 40 31 20 0 34-11t32-34q6-7 13-5 6 3 6 10 0 23-26 38t-56 15-51-22-22-58q0-24 7-52t22-68 21-55q-51 0-57-1-18-4-18-16 0-3 6-4l79-7 52-88q9-15 17-15 3 0 6 1 15 3 15 10t-15 23-18 19q-11 14-25 47m126-36q-1-1-6-4-6-5-6-6 0-7 18-31t21-30q6-6 17 6 8 11 5 17-1 6-20 27t-29 21m58 153q-9 25-36 52-31 31-53 31-29 0-36-33-2-10-2-22-1-38 14-87 18-63 35-63 8 0 12 3t3 6q0 8-16 38t-19 45-6 36-2 28q0 22 6 27t12 6q22 0 52-38 14-18 22-34 4-5 8-5 6 1 7 6 0 1-1 4" />
</svg>