<svg id="fnt-Krona One" viewBox="0 0 3390 1000" xmlns="http://www.w3.org/2000/svg"><path id="krona-one" class="f" d="M54 667v-382h78v198l201-198h99l-188 182 188 200h-103l-141-146-56 55v91h-78m407 0v-288h72v41q24-18 51-31t53-19l21 66q-42 4-73 18t-52 41v172h-72m234-144q0-31 12-58t36-48 56-32 75-12 74 12 57 32 35 48 13 58-13 58-35 47-57 32-74 12-75-12-56-32-36-47-12-58m76 0q0 17 6 32t21 28 32 19 44 7 43-7 33-19 20-28 7-32-7-33-20-28-33-19-43-7-44 7-32 19-21 28-6 33m355 144v-288h72v24q29-16 55-23t52-7q33 0 61 10t48 29 32 47 12 66v142h-72v-130q0-24-7-43t-19-31-31-20-40-6q-11 0-24 2t-24 7-23 11-20 16v194h-72m407-91q0-21 9-38t27-29 45-19 63-7q27 0 56 4t61 12q-2-14-9-26t-19-20-31-13-40-4q-12 0-27 1t-30 5-31 7-28 10l-22-59q16-6 35-11t38-8 39-6 38-2q81 0 120 42t39 126v126h-72v-27q-11 6-24 12t-29 10-34 7-38 3q-34 0-59-8t-43-20-25-30-9-38m76-3q0 7 4 14t12 11 20 8 31 4q19 0 36-4t34-9 27-13 21-15v-13q-16-4-33-8t-31-5-27-2-23-1q-21 0-34 3t-22 7-11 11-4 12m506-98q0-43 15-79t45-62 69-40 89-14q48 0 89 14t69 40 44 62 16 79q0 43-16 79t-44 63-69 40-89 15q-49 0-89-15t-69-40-45-63-15-79m77 0q0 29 11 53t29 40 45 26 56 9 56-9 44-26 30-40 11-53-11-53-30-40-44-25-56-8-56 8-45 25-29 40-11 53m436 192v-288h72v24q29-16 55-23t52-7q33 0 61 10t48 29 32 47 12 66v142h-72v-130q0-24-7-43t-19-31-31-20-40-6q-11 0-24 2t-24 7-23 11-20 16v194h-72m407-145q0-30 12-56t34-48 55-32 74-13q42 0 75 13t56 34 35 50 13 62q0 5 0 9t-1 9h-273q5 13 15 24t26 18 37 12 45 5 50-6 47-13l24 55q-14 7-29 12t-30 8-33 5-36 2q-49 0-85-12t-62-32-37-48-12-58m80-28h197q-4-12-12-23t-20-18-29-12-35-4q-21 0-38 4t-29 13-21 18-13 22" />
</svg>