<svg id="fnt-Krub" viewBox="0 0 1096 1000" xmlns="http://www.w3.org/2000/svg"><path id="krub" class="f" d="M201 522l92 143q-10 6-22 6-9 0-14-4t-11-11l-76-123q-11-19-24-25t-40-6h-20v165h-36v-350h36v154h30q9 0 13 0l118-154h42l-128 164q21 12 40 41m257-134q18 0 27 6t9 17q0 8-5 15-12-7-33-7-34 0-54 27t-20 69v152h-34v-275h34v49q11-23 32-38t44-15m306 222q0 29 7 53-10 6-21 6-11 0-16-9t-5-31q-14 19-39 31t-55 12q-85 0-85-93v-187h34v184q0 36 14 52t43 17q26 0 49-14t39-38v-201h35v218m215-223q56 0 86 36t30 102q0 69-31 108t-87 39q-53 0-83-32-5 27-18 27-15 0-25-6 10-21 10-60v-330h35v141q36-25 83-25m-2 256q40 0 61-31t22-87q0-53-21-82t-60-28q-46 0-83 28v163q29 37 81 37" />
</svg>