<svg id="fnt-Kufam" viewBox="0 0 1527 1000" xmlns="http://www.w3.org/2000/svg"><path id="kufam" class="f" d="M134 527h-59v-42h57q26 0 39-12t21-30l64-136h50v4l-70 146q-9 19-22 35t-33 25-47 10m-38 140h-48v-360h48v360m66-148l38-24 107 168v4h-54l-91-148m319 154q-26 0-49-6t-39-18-26-36-10-58v-74q0-10 0-26t-1-32-3-24l1-4h49v156q0 33 10 50t28 25 46 7q16 0 32-3t30-6l-9 12q-2-7-2-18t-1-21v-116q0-10 0-26t-1-32-3-24l1-4h49v174q0 10 0 26t1 31 3 25l-1 4q-13 5-33 9t-39 6-33 3m246-6h-46v-272q0-36 11-60t32-36 55-12q12 0 21 1t17 5v40h-4q-7-3-15-5t-19-1q-30 0-41 16t-11 52v272m76-232h-164v-40h164v40m139 238q-58 0-88-22t-29-64q0-29 14-48t41-29 62-9q28 0 47 4t32 10v36q-13-5-33-9t-38-3q-40 0-60 10t-20 38q0 25 19 36t55 12q20 0 39-4t34-8l-9 13q-1-4-2-9t-1-10-1-12 0-12v-90q0-32-9-48t-26-21-43-5q-19 0-40 5t-32 11h-4v-41q18-8 40-12t42-3q25 0 46 4t38 16 25 34 9 58v66q0 10 0 26t1 31 3 25l-1 4q-16 6-36 10t-40 7-35 3m246-6h-46v-172q0-10 0-26t-1-32-3-24l1-4q13-5 33-10t40-7 36-3q22 0 42 5t36 18 25 36 9 59v160h-46v-156q0-33-9-51t-26-25-37-6q-16 0-34 3t-32 9l8-14q2 7 3 18t1 24v198m338 0h-46v-156q0-33-8-51t-26-25-42-6q-14 0-30 3t-32 11l-28-32q25-10 50-16t46-6q25 0 46 5t37 18 24 36 9 59v160" />
</svg>