<svg id="fnt-Kumar One" viewBox="0 0 3295 1000" xmlns="http://www.w3.org/2000/svg"><path id="kumar-one" class="f" d="M165 287v360h35v20h-190v-20h40v-360h-40v-20h190v20h-35m234 360h35v20h-158l-93-191v-19l138-170h-45v-20h123v20h-51l-137 170h96l92 190m378 0h40v20h-109l-35-36-35 36h-112l-47-47v-233h-40v-20h106l47 46v234h35l35-35v-245h68l47 46v234m587 0h40v20h-111l-41-42v-238h-35l-35 35v225h30v20h-145v-280h-35l-35 35v225h30v20h-185v-20h40v-260h-40v-20h108l36 35 35-35h114l36 35 35-35h112l46 46v234m85-22l42 42h109l31-31 30 31h113v-20h-40v-239l-41-41h-190l-41 41v59h105v-80h52v120h-128l-42 41v77m118 22v-120h52v90l-30 30h-22m471-280l36 36-15 16-32-32h-43l-35 35v225h40v20h-108l-47-47v-233h-40v-20h109l35 35 35-35h65m191 248l52 52h224l52-52v-297l-52-51h-224l-52 51v297m115 32v-360h98v360h-98m588 0h40v20h-114l-41-42v-238h-35l-35 35v225h25v20h-180v-20h40v-260h-40v-20h108l36 35 35-35h114l47 46v234m75-27l46 47h195l46-47-15-15-42 42h-115v-105h123l47-47v-82l-47-46h-192l-46 46v207m115-98v-135h55v135h-55" />
</svg>