<svg id="fnt-Kumbh Sans" viewBox="0 0 2880 1000" xmlns="http://www.w3.org/2000/svg"><path id="kumbh-sans" class="f" d="M81 582v85h-43v-367h43v221q8-11 15-21t13-18l145-182h51l-134 168 162 199h-56l-133-164-63 79m517-159v244h-35l-2-40q-13 22-35 33t-52 12q-48 0-77-30t-28-80v-139h40v136q0 34 20 55t52 21q34 0 55-23t22-58v-131h40m462 104v140h-40v-130q0-40-17-62t-49-21q-31 0-49 22t-18 61v130h-40v-130q0-40-18-62t-48-21q-32 0-50 22t-18 61v130h-40v-244h33l2 43q12-24 33-36t50-12q31 0 53 13t32 40q12-26 34-40t53-13q46 0 71 29t26 80m108 104l-2 36h-35v-367h40v155q17-17 40-27t51-10q36 0 65 16t44 46 17 65q0 36-17 65t-44 45-65 17q-29 0-53-11t-41-30m91 4q25 0 45-11t31-33 12-46q0-26-12-47t-31-33-45-11q-24 0-44 11t-31 30-13 43v13q1 24 13 43t31 30 44 11m225 32h-40v-367h40v159q28-41 86-41 48 0 75 29t28 80v140h-40v-130q0-40-20-62t-54-21q-35 0-55 22t-20 61v130m364-36l21-33q16 13 32 22t32 12 34 4q25 0 43-8t30-23 10-34q0-21-12-35t-30-23-40-19q-18-8-36-16t-32-20-23-27-8-39q0-29 15-52t40-34 60-13q23 0 46 6t45 18l-17 35q-17-10-36-15t-37-6q-21 0-38 7t-25 20-9 30q0 19 11 32t29 23 37 18q19 8 37 17t34 22 24 29 9 41q0 31-16 55t-43 36-66 13q-34 0-64-11t-57-32m506-108v144h-34l-3-33q-13 18-34 28t-46 10q-27 0-47-11t-33-28-12-41q0-24 13-43t35-29 50-10q18 0 38 4t33 13v-11q0-19-9-33t-26-21-37-8q-17 0-34 6t-35 20l-13-35q21-13 45-20t46-7q32 0 55 12t36 37 12 56m-110 112q19 0 34-8t26-22 10-36v-4q-13-10-30-16t-34-6q-27 0-45 14t-18 33q0 13 7 23t21 16 29 6m410-114v146h-40v-141q0-33-19-52t-50-20q-23 0-41 10t-28 29-11 42v132h-40v-244h35l2 39q13-21 37-33t53-11q47 0 74 28t28 75m54 124l10-37q9 8 20 14t24 10 25 3q23 0 36-10t14-26q0-12-7-20t-19-13-25-11q-16-6-32-14t-27-21-11-35q0-20 11-36t28-23 43-8q36 0 71 18l-12 36q-8-5-18-9t-21-7-21-2q-17 0-28 8t-11 22q0 8 4 15t15 12 30 15q17 6 33 15t28 22 10 36q0 21-11 37t-31 26-47 10q-44 0-81-27" />
</svg>