<svg id="fnt-La Belle Aurore" viewBox="0 0 3378 1000" xmlns="http://www.w3.org/2000/svg"><path id="la-belle-aurore" class="f" d="M207 567q-7 0-14 7t-15 19-17 25-23 24-28 19-35 8q-10 0-22-1t-22-4-18-10-7-20q0-17 11-31t27-25 38-20 41-14 39-9 29-6l95-152q6-10 17-21t24-21 26-16 27-6q2 0 9 1t13 6 12 20 5 37q-3 1-6 3t-7 5-8 4-11 1q8-16 6-25t-10-13-20-2-23 8-21 16-14 22l-82 140v6q20 14 30 31t16 33 9 33 7 29 14 22 25 10q0 1 0 2t1 1q0 6-5 9t-11 5-13 2-10 1q-11-9-17-24t-12-31-9-34-9-31-13-24-19-9m-174 60q0 6 4 9t10 5 12 2 9 1q14 0 30-7t30-19 23-25 10-28q-38 0-71 14t-57 45q0 1 0 2t0 1m312 8q5-28 17-51t28-41 34-29 36-14 33 2 24 19q0 11-5 22t-11 20-11 21-6 23q0 13 6 20t20 8q11 0 22-4t23-3q2 0 6 0t6 1q-5 8-15 14t-19 10-22 6-20 2q-9 0-15-4t-12-10-8-15-2-16q-8 9-16 18t-18 16-21 12-23 5q-12 0-22-9t-9-23m32-15q0 4 1 9t6 6q12-3 28-13t29-23 23-29 9-30q0-1 0-3t0-3q-17 0-34 7t-31 18-22 28-9 33m534 47q-9-2-19-2t-22-1-22-3-18-8-12-14-2-23q0-1-2-7t-4-12-4-12-2-7q-1-3 1-7t5-5 6-5 7-2q0 2 1 7t4 11 5 10 6 4q2 0 4-1t5-9 10-20 17-34 28-52 40-74q4-8 16-19t27-24 33-25 35-23 32-17 25-6q4 0 9 0t7 6q0 1 0 4t0 7 0 7 0 4q0 18-5 33t-16 26-23 23-26 23q0 0-1 1t0 2q0 0 6 8t13 18 14 25 6 28q0 31-18 60t-45 53-59 38-62 14m-45-45q0 7 6 10t12 4 14 0 10 0q30 0 55-9t44-26 33-40 23-53q0-1 1-4t0-5q0-19-6-29t-15-16-24-7-32-2q-2-1-7-5t-5-7q-1-3 2-8t4-5q19-1 40-9t37-22 28-32 11-40q-18 0-39 12t-39 31-34 38-23 35q-4 7-11 21t-17 32-20 38-19 38-17 33-11 21q0 1-1 3t0 3m284 19q-8-18-7-36t8-34 19-29 24-22 27-14 24-5 16 8 4 21q0 19-12 33t-27 26-26 20-12 17q0 4 5 6t12 4 14 2 10 1q45-10 68-12t29 0-2 9-25 11-38 11-44 6-40-4-27-19m86-111q-10 0-19 5t-16 14-12 17-7 18q1 1 2 1h1q7 0 16-6t16-15 13-17 6-17m77 92q0-3 1-10t1-14 2-13 2-7l89-177q2-4 8-11t12-15 13-14 11-11q4 1 5 4t2 5 0 6 0 5q0 3 0 7t-1 4q-4 14-15 32t-23 38-26 43-24 44-18 42-7 36q0 9 5 14t11 9 11 8 5 11q0 4-4 6t-9 3q-21 0-36-12t-15-33m125 0q0-3 0-10t2-14 2-13 2-7l89-177q2-4 7-11t12-15 14-14 11-11q3 1 5 4t1 5 1 6-1 5q0 3 0 7t0 4q-5 14-15 32t-23 38-26 43-25 44-18 42-7 36q0 9 5 14t11 9 11 8 5 11q0 4-3 6t-10 3q-20 0-35-12t-15-33m129 19q-8-18-7-36t8-34 18-29 25-22 26-14 24-5 16 8 4 21q0 19-12 33t-26 26-27 20-12 17q0 4 6 6t12 4 13 2 10 1q46-10 69-12t29 0-3 9-24 11-39 11-43 6-40-4-27-19m85-111q-9 0-18 5t-16 14-12 17-7 18q1 1 1 1h2q6 0 15-6t17-15 13-17 5-17m647 115q0-13 2-25t3-24 4-24 2-25q-16 0-28 1t-23 3-24 2-30 0q-14 15-30 31t-36 31-40 24-43 9q-14 0-28-5t-24-13-16-22-6-27q0-8 3-12t12-4q4 0 7 8t9 18 15 18 24 8q18 0 36-7t34-18 31-25 26-27q-1-12-9-18t-15-12-14-15-7-31q0-30 18-47t50-16q9 0 18 1t18 5 19 5 18 2q6 0 9-2t7-4 6-8 9-12q3-4 9-12t14-19 15-22 16-23 13-19 8-13q6-4 10-5t10-1 9 4 4 10 0 12 0 9q0 2 0 5t0 6 0 7 0 4q-2 5-5 15t-7 22-8 26-8 27-7 22-4 15q0 2-1 7t-2 12-2 11-1 8q5 1 9 3t4 6q0 5-3 8t-9 5-9 6-5 10q-1 6-3 21t-6 33-5 32-5 21q0 2-2 6t-3 7-4 8-3 5q-12-3-19-6t-7-16m-8-188q-6 0-17 8t-21 20-18 22-7 16q2 0 11 0t18-1 18 0 12-1q2 0 6-1t8-2 7-2 4-1q1 0 1-3t0-6q0-3-2-12t-4-16-6-15-10-6m-138 1q0 7 5 15t12 17 16 13 16 5q6 0 16-8t18-19 14-21 6-15q0-8-6-12t-13-6-16-2-13 0q-7 0-17 2t-18 4-14 10-6 17m228-124l-81 99q11 12 20 27t17 30l44-156m33 308q0-7 4-21t12-29 16-31 18-30 18-21 15-8q13 0 13 13 0 6-2 10t-5 7-6 6-6 8q-5 7-11 20t-12 25-11 21-4 10v7q19-4 36-17t34-30 30-37 27-36 24-27 21-11q0 18-7 33t-16 29-16 29-7 33q0 8 9 14t22 11 24 6 16 3v13q-11 0-27 0t-34-4-30-11-17-24q-13 8-25 20t-24 21-26 16-30 7q-10 0-16-8t-7-17m342-13q0-15 6-27t13-24 14-22 6-24q0-3 0-7t-1-8-3-7-6-3q0 0-2 1t-1 0q-7 10-16 21t-20 23-21 21-19 17q-6 6-16 15t-20 18-17 16-9 7l-22-19q4 0 8-2t8-4q29-20 53-45t47-55q1-1 5-8t9-17 10-18 7-14q3-6 4-10t1-6 3-4 8 0q1 0 5 0t4 1q7 13 12 23t8 20 5 18 2 21q-7 16-14 32t-14 32-6 28 5 19 23 8 45-9q8 4 1 10t-19 10-28 8-26 2q-9 0-15-3t-10-9-5-12-2-14m85-3q0-2 1-8t0-8q15-36 40-66t55-54q1 0 3-1t3-1q14 0 22 6t14 15 7 20 2 21q0 19-9 40t-24 38-34 28-39 11-31-11-10-30m38-6q0 5 5 7t9 2q12 0 23-7t21-16 14-22 6-24q0-5-1-12t-3-11-8-9-14-1q-7 2-16 13t-17 26-13 30-6 24m234 9q0-15 6-27t14-24 13-22 6-24q0-3 0-7t-1-8-3-7-5-3q-1 0-2 1t-1 0q-7 10-17 21t-20 23-21 21-19 17q-5 6-15 15t-20 18-18 16-9 7l-22-19q4 0 9-2t8-4q29-20 53-45t46-55q1-1 5-8t9-17 10-18 7-14q3-6 4-10t2-6 2-4 9 0q1 0 4 0t5 1q6 13 11 23t8 20 6 18 1 21q-6 16-14 32t-13 32-7 28 6 19 22 8 45-9q8 4 2 10t-20 10-28 8-25 2q-10 0-16-3t-10-9-5-12-2-14m85 12q-9-18-8-36t8-34 19-29 25-22 26-14 24-5 16 8 4 21q0 19-12 33t-26 26-27 20-12 17q0 4 5 6t12 4 14 2 10 1q46-10 69-12t29 0-3 9-24 11-39 11-43 6-40-4-27-19m85-111q-10 0-18 5t-16 14-12 17-8 18q1 1 2 1h1q7 0 16-6t17-15 13-17 5-17" />
</svg>