<svg id="fnt-Labrada" viewBox="0 0 1717 1000" xmlns="http://www.w3.org/2000/svg"><path id="labrada" class="f" d="M34 671q-1-6-2-12t-1-11l44-8q2-28 3-57t1-56q0-26 0-51t-1-49-2-46l-47-15q0-5 1-10t2-9q32-1 65-2t65-3q1 6 2 12t1 12l-41 10q-1 18-2 38t-2 44 0 55q0 9 0 24t0 31 1 36 2 34q11 0 23 0t25-2 24-1 21-3 16-2l15-62q6 0 11 0t12 4v6l-3 85-1 7q-28-2-57-3t-57 0q-15 0-30 0t-29 1-30 1-29 2m357-4q-7 2-22 4t-32 2q-7-5-15-14t-15-18-6-21q0-9 2-19t5-17 8-14 10-11q12-4 27-7t32-5 27-3 16 0v-65q-10-6-26-10t-32-5q-4 0-8 1t-8 1l-9 46-30-3-3-50 3-5q17-6 43-12t57-6q15 0 25 5t16 14 9 15 3 9q0 13-1 28t-2 30 0 19q0 22 1 38t3 26 2 13l31 2 3 14q-13 7-29 13t-36 11l-11-16-1-27-1 1q-6 6-12 12t-12 12-12 12m-44-38q3 1 8 3t12 4 13 2q3 0 10-4t15-10 15-9 8-6v-45q-13 1-28 4t-28 7-28 9q0 3-1 5t0 5 0 5q0 10 1 18t3 12m224 20q1-15 2-33t2-38 1-41 1-41q0-19-1-36t0-34-2-29-1-23-1-17 0-7l-40-8q0-6 1-11t2-8l64-12 22 15-5 125-2 58 5 2q2-3 7-15t13-27 17-27q10-3 20-4t20-2 20 0q6 2 15 7t18 17 15 31 6 51q0 21-4 41t-17 35q-3 4-13 17t-28 28q-9 5-21 7t-24 3q-18 0-43-5t-49-19m113-5q4-1 14-5t22-14q1-3 4-18t3-34q0-25-4-48t-11-40q-5-5-12-9t-14-6-15-4q-6 5-17 19t-22 32-17 31v80q3 1 21 7t48 9m126 25q-1-5-2-9t0-9l35-17q1-14 2-33t2-34q0-13-1-29t-3-32-2-28l-37-6q-2-4-3-8t-1-7q16-7 35-13t36-8l9 14-3 57 5 2q7-18 15-35t19-32q9-2 17-4t17-2 17 0l6 9-5 31-2 9q-8 0-17 0t-17 0-17 3q-7 7-13 15t-10 18-9 18l3 101 42 10q1 4 0 8t-1 9q-7 0-23 0t-35 0-35 1-24 1m286-2q-7 2-22 4t-32 2q-7-5-15-14t-15-18-6-21q0-9 2-19t5-17 8-14 10-11q12-4 27-7t32-5 27-3 16 0v-65q-10-6-26-10t-32-5q-4 0-8 1t-8 1l-9 46-30-3-3-50 3-5q17-6 43-12t57-6q15 0 25 5t16 14 9 15 3 9q0 13-1 28t-2 30 0 19q0 22 1 38t3 26 2 13l31 2 3 14q-13 7-29 13t-36 11l-11-16-1-27-1 1q-6 6-12 12t-12 12-12 12m-44-38q3 1 8 3t12 4 13 2q3 0 10-4t15-10 15-9 8-6v-45q-13 1-28 4t-28 7-28 9q0 3-1 5t0 5 0 5q0 10 1 18t3 12m239 44q-6-3-15-8t-18-17-15-31-6-51q0-26 8-48t21-40 33-32q7-4 14-6t16-3 16-1q9 0 22 1t25 5v-92l-39-8q0-5 0-9t3-10l64-12 21 15q0 7-2 20t-2 33-3 40-2 44 0 45q0 9 0 21t1 27 1 28 1 26 0 22l34 10 2 15q-9 5-26 10t-39 6l-11-16-2-57-5-2q-2 6-9 19t-14 28-14 22q-15 3-30 4t-30 2m45-30q7-6 17-20t22-32 17-31v-79q-11-5-23-8t-23-5-23-3q-9 2-18 7t-18 11q-3 13-5 26t-2 27q0 24 4 47t11 40q9 7 19 12t22 8m266 24q-7 2-22 4t-32 2q-7-5-15-14t-15-18-6-21q0-9 2-19t5-17 8-14 10-11q12-4 27-7t32-5 27-3 16 0v-65q-10-6-26-10t-32-5q-4 0-8 1t-8 1l-9 46-30-3-3-50 3-5q17-6 43-12t57-6q15 0 25 5t16 14 9 15 3 9q0 13-1 28t-2 30 0 19q0 22 1 38t3 26 2 13l31 2 3 14q-13 7-29 13t-36 11l-11-16-1-27-1 1q-6 6-12 12t-12 12-12 12m-44-38q3 1 8 3t12 4 13 2q3 0 10-4t15-10 15-9 8-6v-45q-13 1-28 4t-28 7-28 9q0 3-1 5t0 5 0 5q0 10 1 18t3 12" />
</svg>