<svg id="fnt-Lacquer" viewBox="0 0 1938 1000" xmlns="http://www.w3.org/2000/svg"><path id="lacquer" class="f" d="M210 726q-5-1-7-6-1-1-1-3 0-4-1-8t0-8v-2q-1-5-1-9t0-9q-1-8-6-13l-5-4q-2-3-6-2-3 0-6 0t-6 0q-2 0-4 0t-5 0q-2 0-4 0t-4 0-4 1-3 0h-17q-6 0-12 1l-12 3q-6 2-12 3-2 1-4 1t-4 2q-7 3-14 4-5 1-7 4l-2 3q-1 0-2 1t-2 2q-4 2-8 0-4-3-5-6 0 0-1-1t0 0q-3-9-11-15-2-2-4-4 0-1-1-3t-2-2l-3-4q-2-4-2-8 1-3 1-6t1-5v-3q0-5 0-11t0-11v-5q1-2 1-4t0-3q0-7 0-13t0-13l2-22q0-6 0-11t1-10v-1q1-6 1-12t0-13v-34q-1-6-1-11t0-11q0-6-1-13t-1-12q-1-4-2-9t0-9q0-1-1-2t0-2q-3-13-3-27v-21q0-4 0-7t1-7q1-6 4-9l3-3q3-4 7-6t8-2h4q7 0 12 6 1 0 1 1t1 1q3 2 3 4 3 5 3 7t0 7v3q0 4 0 7t1 7q0 1 0 3 0 3 0 7t1 7q1 5 1 9t1 11q0 1 0 2t0 2q0 1 0 1t1 2l1 26q1 2 1 5t0 6q0 0 0 2 0 3 0 5t0 6v33q0 3 0 6v3q0 4 0 8t-1 9q0 3 0 7t0 8q-1 2-1 4t0 5q0 2 0 5t-1 5v2q0 5-1 10t0 10q-1 3-1 6t0 6q-1 2-1 5 0 2 0 5t0 5q-1 5-1 10t0 11v1q1 2 3 2l10 2q12 1 23 1 3 0 5 0 3-1 6-1t5 0h14q4 0 7-1t7-1h3q5 0 11-1t11-1h16q7 0 12-3 4-1 8-2t8-1q6 0 10 3 10 6 13 17 1 3 1 7t0 8q0 5-2 8t-4 8l-4 7q-3 5-5 11 0 4-1 8t-1 9q0 2-1 4t0 4q0 2 0 4t0 3q0 4-3 9-3 5-9 5m281-23q-5 0-8-3-1-2-2-3t-2-3q-5-11-5-22l-1-12q-2-7-3-14t-3-14l-3-8q0-1-1-2t0-2l-8-27q0-1-1-2t-1-3q-1-3-2-6t-2-7q0-2-1-5t-1-4q-1-3-2-4t-5 0q-2 1-5 1t-5 1q-2 1-5 1t-5 1l-7 1q-3 1-6 1t-5 1l-9 2q-4 1-8 2t-9 2q-12 3-24 4-4 1-4 4-1 0-1 0t0 0q-3 8-7 16t-7 16q-1 2-2 3t-2 4q0 1-1 2t-1 3q-3 3-3 8 0 3-2 6t-3 5q0 2-2 2-2 0-4 1t-4 2q-2 1-3 0-1 0-3-1t-2-1q-5 0-8-6-4-8-5-16-1-2 0-4t1-3q3-2 4-4v-1q0-6 2-12t5-11q1-3 3-6t3-6q2-4 3-7t2-7q2-4 0-7-1-3-1-6t1-6q0-5 4-9 2-3 4-5t4-3q5-5 7-12 2-7 3-14t3-13q1-6 2-13t3-12q1-2 1-5t2-4q1-4 3-8t2-7q1-2 0-4-1-2 0-4t1-4q2-4 2-7t3-7q2-7 4-11t3-10q1-3 2-6t2-5q2-5 3-10t1-9q1-4 2-5 2-5 6-9t7-7q3-1 5-2t5 1q2 1 3 1 4-1 7 2t5 6q1 1 2 2t1 3q2 4 2 8 0 2 1 4t1 5q1 3 4 3 1-1 1 0t1 1q2 3 1 6-1 4 0 8t2 8q2 5 4 10t4 10q2 5 5 11t4 11q3 7 5 14t7 14l1 5q1 2 1 4t2 4q1 2 1 3t2 3q3 3 3 7 2 5 5 9 1 2 3 2 7-1 15-2t15-3q5-1 10-1 10 0 18 6 9 8 10 19 0 3 0 4 0 4-2 6 0 1-2 3t-2 3q-1 2-2 3l-3 2q0 1-1 2t-3 2q-2 1-4 1t-4 1q-9 1-16 0h-8q-1 0-3 1t-2 2v2q1 5 2 9t3 9q0 2 1 4 2 5 4 9t2 10q0 1 1 4 2 4 3 7t1 8q0 3 2 6 2 4 3 9t1 9q1 1 1 2t0 2q3 6 4 12t2 12q1 3 1 6t1 7q0 3-2 6-1 1-1 1-3 1-4 4l-1 3q-1 2-3 2-2 0-4 2-2 2-5 2-2 0-5 0t-5 0m-121-181q3-1 6-1t8-1q2-1 6-1t8-1q3-1 7-2t7 0q3-1 6-2t6 0q4-1 3-5 0-4-2-9t-4-7q-1-1-1-3v-1q-1-4-3-8t-2-7q-1-4-3-8t-2-6l-6-18q-2-4-3-7t-2-7l-2-2h-1l-1 1q-3 8-6 15t-6 16q0 1 0 3t-1 3q-2 5-4 11t-3 12q0 3-1 6t-1 7l-5 20q0 0 1 1t1 1m302 147q-2 0-4 0t-3 0q-1 0-3-1t-2 0q-8 0-15-3t-14-6q0 0-1 0t0 0q-5-3-9-6t-7-7q-4-5-6-10-2-4-5-8-5-6-7-14-2-4-3-8t-3-9q0-1-1-3t-1-4q-1-2-2-5t-2-6q0-2-1-7t-1-6v-21q1-3 1-6t1-6l1 0q0 0 0 0t0 1q1 0 1 0t0 0q0 1 0 0 0-3 0-5 0-1-1-2t2-2q1 0 1-1l4-22q1-3 1-5t1-4l1-6q0 1 1-3t2-6q1-3 2-5t3-4q4-4 7-12l10-15q2-2 2-5-1-3 1-6 2-3 3-6t4-6q3-4 6-8t6-8q1-1 2-3t4-2q1 0 1 0t1-1q10-11 23-20 1-1 2-2t2-1q2-2 5-2 3 0 4 0 2 0 5-1 3-1 5 1 3 3 10 2 5-1 8 5 1 1 1 3t3 2q1 3 4 6t5 5l6 9q1 1 2 3t3 3q2 3 3 5 1 3 1 3t2 5q0 2 0 2t2 1 2 2q0 6-2 10-1 1-2 1t-2 1q-1 3-3 5t-4 6q-1 2-4 4t-4 4q-4 4-10 3-4 0-6 0-2-1-3-2t-3-1q-1 0-2-1 0-1-1-2t-1-1q-3-1-4-4t-3-4q0-1 0-3t0-2q-1-3-1-6t-1-6q0-1-3-1-3 2-6 4t-5 5l-16 18q-1 2-3 3t-2 4q-2 2-4 5t-4 5q-1 1-1 2-2 4-4 7t-3 7q-2 5-4 10t-3 12q0 8-3 15 0 3-1 6t-1 6q0 4-1 9t-1 9q1 10 3 19 2 5 3 10t3 10q0 1 1 3t1 3q3 7 11 11 3 1 6 1 3 0 6 0t6 0q14-1 26-4 6-1 11-3t10-4q4-2 7-5 4-3 8-6t9-7 8-7 7-7q2-2 5-4 1-1 3-2t2-2q3-1 5-3t5-1q2-1 3-2t4 0q4-2 8 0 1 0 3 1t3 1q4 3 7 8 3 6 3 11v3q0 6-5 11-6 7-12 11-3 2-7 6-5 4-10 8t-11 9l-2 2q-1 1-3 2t-3 3q-4 3-8 6t-9 5q-5 2-9 6-1 2-3 3t-3 3q-7 3-15 7-1 0-2 1t-2 1q-3 1-6 2t-6 1q-4 1-8 1t-8 1m426 38q-9 1-14-6-1-3-4-3-2-1-2-2-1-2-2-4-3-5-7-10t-7-9q-2-2-3-4t-3-4q-1-1-2-2t-2-3q-4-4-5-4t-7 2q-10 4-21 8t-22 5q-5 2-12 1l-10-1q-2-1-4-1t-5 0l-11-2h-2q-5-2-9-3t-9-3q-6-3-12-6t-11-5q-5-3-10-7-1-1-2-2-5-3-10-8t-8-8q-2-2-4-5-2-2-3-5t-4-4q0 0 0-1-5-6-9-14-6-10-9-22-1-4-1-8t-1-7q0-3-1-5t0-4q0-1-1-3t0-3q1-7-2-8t-2-5q1-6 2-11t4-11q1-2 1-3 3-14 10-28 2-5 4-9t4-9q4-8 9-16t11-16q1-2 2-4t3-3q4-6 9-11t9-10q10-9 22-14 3-1 5-2t6-2q2 0 3-1 1-2 2-3t3-1q4-2 7-3t7-4q2-1 3-1 2 0 4 0t5 1q5 1 10 2t10 4q2 1 2 1 5 1 9 4t7 6q3 2 5 3t4 4q1 1 2 2t1 2q2 2 4 4t4 4q2 3 5 6t5 5q1 1 2 2t2 3q3 5 6 10t5 12q1 0 2 1t1 2q2 6 5 11t5 12q1 3 2 5t2 5q3 6 6 13t5 15q2 6 4 12t4 13l3 11q1 4 2 8t2 8v2q1 6 1 12t-2 13q-1 9-5 17t-9 15l-3 4q-1 1 0 3 0 0 1 2 6 7 11 13t10 13l4 5q5 6 8 15 0 1 1 3t1 3q0 3 0 4 0 2-1 3-2 2-3 3t-2 5q0 0 0 1t-1 1l-8 6q0 0-1 0t-1 1q-2 0-4 1t-5 1m-115-83h5q7-1 13-3t13-3l3-2q2-1 1-2l-2-4q-2-4-5-8t-5-8q-6-10-12-20t-12-19q-5-8-10-16t-10-15l-18-25q-2-3-3-5t-3-4l-5-6q-4-5-4-11 0-14 13-23 4-2 8-4t9 2q5 0 8 3t6 6l2 3q2 3 5 6t5 6q5 7 10 14t9 14l13 21q3 3 5 7t5 8q4 7 8 14t9 14q3 5 6 9t6 9h2t0 0q2-7 1-16l-3-10q0-3-2-7t-2-6q0-1 0-2t-1-2q-2-7-5-14t-5-13q-1-4-3-9t-3-8q-3-7-6-15t-6-13q-5-14-12-25-8-12-21-21-2-2-3-2-3-2-4 2t-6 7q0 0 0 0t0 0q-3 4-10 6l-8 1q-7 1-13 6-2 2-4 4t-4 5l-4 6q-8 9-16 21-2 3-4 5t-3 6q-7 12-11 25t-4 27q0 4 0 8t1 8q3 11 8 21 4 6 8 12t11 11l11 8q2 1 3 2t4 3q10 5 20 7t21 4m271 48h-3q-1-1-2-1-5-3-10-6t-8-6q-2-1-3-2-4-2-8-6t-6-8q-1-1-2-3t-3-3q-5-5-8-12 0-1-1-3t-2-3q-3-4-5-7-1-4-3-8t-4-7q0-2-1-4t-2-4q0-3-1-6-2-5-4-11t-3-12q-1-2-1-3-3-6-5-13t-3-14l-3-22q0-1 0-3t0-2q0-3 0-6t-1-6q-1-6 0-12 0-2 0-4t1-3q0-3 0-6t1-4q0-2 0-4 1-5 1-9t1-8q2-7 2-14 0-2 0-4t1-3q0-5-1-7-1-2 0-5 1-2 1-3 0-1 0-3t2-1h3q2 0 3-2 0-2 3-3 3-1 5-2t4-2q1-1 3-1t4 1l9 3q1 0 1 0t1 1q4 4 6 9t4 11q0 2 0 3t-1 4q-1 3-1 6t-1 7q-1 5-2 9t0 10q0 2 0 4t-1 4q0 6 0 12t1 11q0 1 0 2t0 2q0 5 1 10t1 11q1 5 1 10t2 9q1 2 1 4t1 4q2 9 4 18t7 18q2 6 5 10 4 7 7 14 2 3 4 6t4 7q2 3 4 5t4 4q2 3 6 2 3-1 4-2 2-2 4-3t5-4q5-5 10-11t8-12q3-5 6-11t6-12q3-7 5-14t6-15q2-5 3-10t2-10q1-6 1-12t1-11q0-1 0-3t0-3q1-3 1-6t-1-6q0-9-1-17t-1-15q0-4-1-6 0-4-1-9t-1-9v-4q0-5 0-10t0-9q0-4-1-8t0-6q0-5 2-8 1-2 1-4-2-3 1-4 3-3 5-4t7-2q1-1 1-1t2 0q3-3 8-2 1 1 3 1 4 1 6 3 2 2 5 4 4 2 5 5t2 6q1 5 2 10t0 9v5q0 5 0 9t1 10q1 2 1 3t0 4q0 3 0 5t1 6q0 1 0 3 0 5 0 10t2 10 0 10 1 11q0 1 0 2t0 2q-2 4-1 10 1 7 0 13-1 4-1 9t-2 9q-1 8-3 16t-5 16q0 1-2 4-2 3-3 7t-3 8l-1 3q-3 5-5 10t-4 10q-1 3-3 6t-3 5q-1 1-2 2-1 4-3 7t-4 6q-5 8-13 16t-15 14l-6 3q-7 4-15 6t-16 4q-2 0-5 0-2 0-3 0t-3 1m230-2q-3 0-4 0-2-1-5-1t-4 0q-1 0-1 0t-1 1q-4 0-7 0t-6-1q-1 0-1 0-4 0-6-2t-5-5q-3-2-3-5l-1-4q-2-4-1-7 0-1 0-2t0-2q-1-1-1-2t0-2q-1-5-2-10t1-9q0-3 3-10t4-9q1-2 1-4 0-5 0-11t0-11q0-4 2-6 2-3 0-7l-1-6q-3-5 0-9 0-1 0-1t1-1q1-1 0-3t0-2q0-2 0-5t1-4q0 0-1-1-1-1-1-4t1-3v-14q0-3 0-5t1-5q0-3 0-6t0-7q-1-2-1-5t0-6q-1-1-1-3t0-2q0-3-1-5t0-5q0-1-2-7t-1-10q0-1 0-2t-1-3q-1 0-1-2v-1q2-6-1-12-2-3-2-6 0-4-3-6-3-3-5-6t-2-7q-1-3-1-5t0-5 1-2q2-2 2-5t0-4q1-1 1-1t1 0q2-1 2-4-1-2-1-3 0-2 2-4 1-2 2-1 4 2 8-1 2-1 3-1 1 0 1 0 1 0 3 0 3 0 6-2 3-4 8-4h31q12 1 23 0t23 0q2 0 4-1t4 0q3-2 7-2h11q4 0 7 0t7-1q2 0 4 0t4 0 4 0 4-1q4 0 8-1t9 0q2 0 3 0t4-1q4-1 8-1t7-1q4 0 8-1t7-1q5 0 7 1 3 2 5 4t6 4q2 2 2 3 1 2 1 4t1 5v3q0 3-1 5t0 6q-1 2-3 4l-9 9q-5 1-10 2t-9 0h-4q-2 0-5 0t-5 0q-3-1-6-1t-6 1q-2 0-4 0t-3 0q-3-1-5-1t-5 1q-2 0-4 0t-5 1q-6 1-14 1t-14 1q-4-1-8 0t-9 1q-4 1-8 1t-9 1q-5 0-10 1t-9 2l-4 0q-3 0-6 1t-7 2q-2 0-4 0t-4 1q-2 0-4 1-1 1-1 3l1 5q1 1 0 5t-1 6q0 1 0 3t1 3q2 4 2 8t1 9q0 2 0 4t1 5q0 1 0 2t0 3 0 2q-2 2-2 5t0 5q3 5 3 10t0 10q0 1 2 1h1q1-2 2-3 1 0 3-1 2-1 4-1 4 0 8-1t7-1q23-6 44-16 5-2 11-4t12-2h2q4-1 9-1t9-1q6 0 11-1t12-2q4-1 7-2t6-2q7-2 12-2 4 0 8 1t7 4q7 5 7 15 0 4-1 8t0 8q0 1-1 2l-2 2q0 2-1 4t-2 3q-3 3-7 5t-7 4q-2 1-4 1t-3 1q-8 0-17 1t-16 2q-7 0-13 1t-13 1q-6 0-13 3-5 1-11 2t-11 1q-4 1-8 1t-8 2l-9 1q-1 1-3 1-3 1-7 1t-7 2q-3 0-7 1t-6 2q-3 1-4 2t-3 3q0 2 0 3 1 2 0 4 0 5 0 10t0 10q1 4 1 8t-1 8q-1 6 1 10 1 7-1 14-1 3 0 4 1 1 0 3v3q-1 4 3 4h1q4 0 7 3 3 2 6 1l14-1q3-1 6-1t6 0q1-1 3 0 3 2 5 1 1-1 2-2t3-1q3-3 8-2 4 1 6-1 5-1 9-1 2 1 5 0t5-1q1 0 1 0t1 0q1 0 2-1t2 0q3-2 6-1 3 0 3 0 2-1 3 0t4 1q2 1 4 2t4 1q1 0 1 1 3 2 6 3t5 4q1 3 1 5t0 6q0 2 0 3t-1 3q-1 2-2 5t-3 4q-1 1-2 2t-2 2q-2 2-4 4t-6 1q-2 0-3 1-2 1-4 1t-4 0q-4 0-7 0t-7 0q-2 0-3 0-5 2-10 1-5 0-10 0t-9 0h-7q-1 0-2 1-2 1-5 1t-5-1h-5q-1 0-2 0t-2 0q-1 0-3 0t-2 1q-1 0-2 0t-2 0q-5 0-9 0t-10 2m277 7q-9 1-15-6-3-3-6-7t-4-7q-2-7-4-15t-4-14q-1-5-1-10-1-6-2-11t0-11q0-3 0-6t-1-6q0-2 0-4t0-3q0-7 0-15t-1-14q0-4 0-7t-2-7q-2-5-1-12 0-1 1-2 1-3 1-7t0-7q-1-2-1-5t0-4q0-6 0-12t1-11q0-1 0-3t0-3q0-5 0-10t2-10q1-6 2-12t2-12q1-2 1-5t0-6q0-3 0-5t0-5q0-1 0-3t0-3 1-3 0-2q2-2 3-4t3-3q2-1 4-3t5-2q2-1 4-3 2-2 4-5t4-5q2-2 5-6t6-5q1 0 3-2 6-6 14-7 2-1 3-1t3 0l3-2q4-1 7 2 1 1 3 2t3 3q4 3 8 7t7 9q5 8 8 16t8 17l9 21q0 3 2 6 4 7 6 15t4 16q1 1 1 2t0 2q1 4 2 8t0 8q1 5 0 9t-2 8q-1 5-3 9t-5 9q-1 3-3 6t-5 4q-4 2-8 6-1 1-3 2t-2 1q-3 2-7 3t-8 4q-1 0-1 0t1 2l13 9q3 2 5 3t4 3l3 1q6 4 12 8t11 8q11 6 21 13t20 15q9 6 15 15 2 1 3 3t4 3l1 1q8 7 9 19 0 2 0 3t0 3q0 3-2 5-2 1-2 3-2 3-5 4t-5 4q-1 0-3 0-3 0-7-1t-6 0q-4 0-8-4-3-2-6-5t-5-5q-6-9-17-17-5-4-9-7t-10-7q-4-2-7-4t-7-4q-13-9-26-17t-26-17q-2-1-4-3t-5-3q-1-1-3-2-2 0-2 2 0 0-1 0t0 1q0 2 0 3t1 3q0 4 0 8t0 8q0 3 0 5t1 6q0 2 0 3t1 4q-1 4 0 9t2 9l3 13q0 2 1 4t1 5q0 2 0 3t-1 4q0 1-1 2-2 0-3 3-2 4-5 6t-5 6q-1 0-2 1t-3 1m20-175h1q5-1 11-3t11-3q6-1 10-5 3-4 3-8 1-4 0-7t-1-7q-2-9-4-18t-6-16l-5-12q-1-5-3-10t-5-9q0-1-1-3t-1-2l-2-2q-1-2-3 0-1 0-2 1-3 5-6 10t-3 11q-1 2-1 4t0 4v22q-1 7-1 14t0 15q-1 1-1 3t1 3q0 3 0 5t0 6q0 5 1 6t7 1" />
</svg>