<svg id="fnt-Laila" viewBox="0 0 1060 1000" xmlns="http://www.w3.org/2000/svg"><path id="laila" class="f" d="M51 601v-262q0-14-12-19 10-16 26-16 28 0 28 35v261q0 18 8 26t28 8h82q27 0 40-21 15 5 15 20 0 34-55 34h-85q-39 0-57-15t-18-51m309 2q0 36 39 36t65-35v-59q-53 3-78 18t-26 40m146-114v133q0 26 24 30-9 19-31 19-32 0-35-40-29 40-78 40-31 0-51-17t-20-47q0-37 37-60t112-24v-30q0-31-11-46t-35-15-35 10-12 22 7 20q-11 8-24 8t-20-7-8-20q0-24 27-40t66-17 63 21 24 60m114-187q13 0 21 7t8 20-11 23-24 10-22-8-8-21 11-22 25-9m19 141v193q0 14 13 19-11 16-26 16-28 0-28-35v-192q0-14-13-20 10-16 26-16 28 0 28 35m133-122v315q0 14 12 19-10 16-26 16-28 0-28-35v-314q0-14-12-20 8-15 26-15 28 0 28 34m117 282q0 36 39 36t65-35v-59q-53 3-78 18t-26 40m146-114v133q0 26 24 30-9 19-31 19-32 0-35-40-29 40-78 40-31 0-51-17t-20-47q0-37 37-60t112-24v-30q0-31-11-46t-35-15-35 10-12 22 7 20q-11 8-24 8t-20-7-8-20q0-24 27-40t66-17 63 21 24 60" />
</svg>