<svg id="fnt-Lakki Reddy" viewBox="0 0 2683 1000" xmlns="http://www.w3.org/2000/svg"><path id="lakki-reddy" class="f" d="M10 313q14 2 25 3t18 2q9 0 15 0t18-1q10-1 26-2t39-5q-6 2-12 11t-10 19q-5 12-9 27-4 13-9 36t-10 50-7 54 0 51 9 38 22 15q23 2 38 1t25-5 16-8 8-9q8-12 16-29t15-34 11-27 4-11q0 1 0 11t0 24-1 29-1 26q0 9-1 19 0 10 0 22t-2 28q-20-1-39-2t-32 0q-17 0-31 0-15 1-35 2-17 1-43 2t-58 3q4-7 6-13t4-9q2-5 3-9 3-15 5-40t3-51 1-56 0-53-2-42-3-25q-2-8-6-16-3-7-7-14t-9-12m312 156q3-3 3-11t4-18 11-22 26-21q17-10 33-12t31 2 27 11 24 16q7 6 12 17t7 24 3 29 2 29 1 25 1 19q2 11 7 18t11 13 12 8 10 4q3 2 5 2 5 2 7 0-3 7-5 12t-4 8q-2 4-4 7-1 2-3 5-1 2-4 5t-5 7q-6-3-12-6t-10-7q-5-3-10-6t-8-8q-3-4-7-9t-6-9q-3 6-14 18t-29 21-40 13-51-5q-13-4-23-11t-19-19-10-24 0-31 12-29 21-19 27-11 32-6q12 0 25 2 11 2 23 7t20 15q-1-26-2-41t-2-24q-2-10-4-13-2-4-5-8t-6-8-10-6-14-2q-8 0-13 4t-8 9-3 11 1 10q1 3 3 7 2 3 5 6t9 6q-11 1-20 2t-15 2q-7 1-13 1t-12 2q-7 1-16 3t-21 3q3-3 5-6t4-6q2-3 4-5m74 58q-9 0-18 4t-16 10-11 16-5 18 5 18 14 13 19 5 19-1q10-4 18-11t14-17 8-18 1-15q-4-13-18-18t-30-4m153-212q6 2 13 3t15 1q8 0 17 0t21-2q10-1 26-3t33-4q-7 4-11 8t-9 7q-4 5-6 9-3 6-9 20t-11 32-10 36-5 31q0 11-1 24 0 12-1 29t-1 39q36-25 55-41t27-23q11-10 13-14-1-2-3-6-2-3-7-7t-13-9q13 2 22 2t17 1q8 1 13 0 7 0 16 0 16-1 50-2-33 18-52 30-11 7-19 12-8 7-17 14-8 5-18 13t-20 17q17 28 30 46t22 29q10 13 18 21 8 7 21 17 10 8 28 19t42 25q-13-2-24-3t-20 0q-11 0-19 2-9 2-20 5-9 2-21 6t-27 11q9-7 14-13t6-10q2-5 2-8-3-5-12-20-8-13-24-37t-46-67q-1 1-5 3-3 3-9 7t-15 12l13 85q-4 2-10 4t-9 2q-5 2-11 2t-13 2q-6 1-15 3t-20 4q7-5 11-10t6-11q2-5 4-11 1-5 2-25t3-49 1-62 1-61 0-51-2-28q-3-8-6-17-3-8-8-18t-13-21m228 0q6 2 13 3t15 1q8 0 17 0t21-2q11-1 26-3t33-4q-6 4-11 8t-9 7q-4 5-6 9-3 6-9 20t-11 32-10 36-5 31q0 11-1 24 0 12-1 29t-1 39q36-25 55-41t27-23q11-10 13-14-1-2-3-6-2-3-7-7t-13-9q13 2 22 2t17 1q8 1 13 0 7 0 16 0 16-1 50-2-33 18-52 30-11 7-19 12-8 7-17 14-8 5-18 13t-20 17q17 28 30 46t22 29q10 13 18 21 8 7 21 17 10 8 28 19t42 25q-13-2-24-3t-20 0q-11 0-19 2-9 2-20 5-9 2-21 6t-27 11q9-7 14-13t6-10q2-5 2-8-3-5-12-20-8-13-24-37t-46-67q-1 1-5 3-3 3-9 7t-15 12l13 85q-4 2-10 4t-9 2q-5 2-11 2t-13 2q-6 1-15 3t-20 4q7-5 11-10t6-11q2-5 4-11 1-5 3-25t2-49 1-62 1-61 0-51-2-28q-3-8-6-17-3-8-8-18t-13-21m233 133l90 1q-8 30-11 51t-5 35q-2 16-1 28 1 10 5 22 3 9 9 22t15 25q-6-1-12-2t-13-2q-7 0-14 0t-15 2q-7 1-16 2t-21 4q7-22 11-38t7-27q2-13 2-21 0-9 0-22t0-24 0-21-2-11l-5-5q-3-2-9-7t-15-12m35-75q10-5 21-3t16 10 4 16-16 18q-14 8-25 6t-15-11-1-18 16-18m181-63q16 3 28 4t22 3q11 2 19 2 11 2 31-3t45-10 51-5 47 9 35 21 22 21 12 25 4 27q-1 23-11 44-5 9-12 18t-17 19-24 16-33 14q18 5 30 12t20 14q8 8 13 15 5 11 7 18t3 14 2 13 6 16q4 7 10 14 5 6 11 14t16 14q-13 0-25 0t-19 0q-10 0-19 0t-22-1q-11 0-29 0t-41 1q10-8 17-17t11-15q4-8 6-15 3-13 1-27-2-13-8-27t-20-31q-15 3-24 4t-16 2q-8 1-13 2-5 0-10 1-4 0-9 1t-10 2q-1 21 0 36t2 26q2 12 5 21t7 17q3 7 8 14t13 13q-13 0-24 0t-21-1q-11 0-21 0t-22-1q-10 0-24 0t-30 1q13-13 20-23t11-15q5-7 6-12 1-8 1-28t2-47 0-55 0-54-1-43-1-23q-2-9-7-18-4-7-11-17t-20-20m185 172q5-3 8-6t6-9 4-19 4-33q2-21-3-35t-12-22-16-11-16-3q-14 0-27 8t-20 23q-3 6-5 21-1 12-1 35t1 59q19 3 33 2t24-3q11-3 20-7m277 106q14 0 25-3 10-2 19-8t12-17q10 2 17 3t11 3q6 1 10 2 4 1 9 1 5 1 12 3t17 3q-7-1-15 1t-14 6q-8 3-15 8-5 3-10 9t-16 11-27 9-43 3q-32-1-54-12t-34-26-19-33-7-34 10-32 27-32 43-23 56-9q18 0 33 4t27 11 22 16 15 17q7 9 11 19 4 9 6 20t2 23q-37 1-60 2t-35 0h-22-17q-9 0-23 1t-35 1q3 20 13 30t21 16q13 6 28 7m-44-88q16 1 26 2t18 1q7 0 11 0h12q13 0 46-1-2-22-9-33t-16-17q-10-6-22-7-31 1-47 14t-19 41m433-207q9 0 20 0 9 0 21 0t26 0q-12 5-21 15t-14 21q-7 12-11 25-3 8-4 28t-2 46-1 56 0 55 2 48 2 28q2 10 5 19 3 8 6 16t10 13l-50 22q-3-5-6-11t-4-10q-2-5-2-10-1-5-2-12t-2-14-2-11 0-6-6 9-19 22-30 24-41 14q-23 3-42-8t-33-33-21-50-5-57q1-20 8-35t20-27 27-19 28-14 26-8 19-3q9-1 21 3 9 3 22 10t29 20q-3-49-5-78t-5-45q-2-19-4-26-3-5-7-10-3-3-8-8t-12-6q12 2 24 3t22 2q11 1 21 2m-122 182q-10 3-15 11t-9 20-5 25-1 25-1 21 0 15q0 3 2 10t5 16 13 14 21 7q12-1 24-8 11-6 26-19t31-37q-1-16-1-26t-1-17q-1-7-1-11v-8q0-3 0-6t1-6q-14-10-24-17t-21-11-20-3-24 5m418-182q9 0 20 0 9 0 21 0t25 0q-11 5-20 15t-14 21q-7 12-11 25-3 8-4 28t-3 46 0 56 0 55 2 48 2 28q2 10 5 19 2 8 6 16t10 13l-50 22q-4-5-6-11t-4-10q-2-5-2-10-1-5-2-12t-3-14-1-11 0-6-6 9-19 22-30 24-41 14q-23 3-42-8t-33-33-21-50-6-57q1-20 9-35t20-27 26-19 29-14 26-8 19-3q9-1 20 3 10 3 23 10t29 20q-3-49-5-78t-5-45q-3-19-4-26-3-5-7-10-3-3-8-8t-12-6q12 2 24 3t22 2q11 1 21 2m-123 182q-9 3-14 11t-9 20-5 25-2 25 0 21 0 15q0 3 1 10t6 16 13 14 21 7q11-1 24-8 11-6 26-19t31-37q-1-16-1-26t-1-17q-1-7-1-11v-8q0-3 0-6t1-6q-14-10-24-17t-21-11-20-3-25 5m154-58q10 2 18 2t13 2q6 0 12 0 6 0 14 0 7-1 18-2t26-2q-1 2-4 12t-6 25-5 31-2 34 4 32 13 24q18 19 33 23t25-1 18-14 9-18q8-23 9-48 1-21-3-48t-21-53q12 1 22 1t16 1q8 1 13 1 6 1 13 0 7 0 16-1t20-1q2 48 3 85t2 66 1 49 0 35q0 34-3 44-4 16-14 31t-25 27-35 18-43 5q-23-2-36-6t-21-10-11-11-5-12-3-11-6-10q-5-4-11-8-5-4-11-8t-12-7l104-5q-5 5-7 10t-2 9q0 4 1 7 1 6 7 13t13 11 20 3 26-12q12-10 20-30 7-18 11-49t-1-84q-9 30-24 46t-30 24q-18 9-37 9-25-1-44-6t-29-16-19-23-9-30-3-34 0-31 0-27-2-19q-3-7-8-15-4-6-11-13t-17-15" />
</svg>