<svg id="fnt-Lancelot" viewBox="0 0 1484 1000" xmlns="http://www.w3.org/2000/svg"><path id="lancelot" class="f" d="M42 616v-188q0-23-4-29t-16-9l-14-3v-11h95v11l-17 4q-8 2-10 5-2 4-2 18v238h91q18 0 23-28 2-8 2-14h13v57h-194v-10l14-3q13-2 16-10 3-7 3-28m359 23l8 7q0 1-3 6t-8 10-11 9-12 4q-10 0-16-5t-9-11-5-14-2-13q-2 1-6 8t-13 15-19 14-26 6q-8 0-15-2t-15-7-10-13-4-20q0-18 11-29t29-18 31-10 34-7v-41q0-5 0-13t-3-16-9-13-16-6q-13 0-22 5t-12 10-11 12q-8 1-13 0t-8-5-3-7q0-7 11-14t28-11 33-5q14 0 23 4t16 11 9 16 5 20 1 21 0 20q0 19 0 36t0 32 4 22 10 8q9 0 18-16m-61-34v-20q-20 3-34 7t-22 9-12 13-5 17q0 24 22 24 8 0 16-5t15-14 13-16 7-15m213-117q-35 0-61 18v110q0 22 3 29t15 9l14 3v10h-92v-11l16-3q10-2 12-6 2-4 2-18v-110q0-17-4-22-5-6-25-7l-1-8 60-15v21q41-22 71-22 37 0 50 33 6 16 6 39v78q0 23 3 29t15 9l14 3v10h-92v-10l17-4q9-2 11-6 2-4 2-17v-84q-1-58-36-58m171 23q-15 26-15 60t19 56 48 21 53-12l8 8q-12 12-18 16-22 14-50 15-55 0-78-47-12-25-12-56 0-52 31-81 27-25 62-25 36 0 70 24 4 2 1 13t-14 14q-7 0-15-11t-9-12q-12-14-32-14-31 0-49 31m228-46q47 0 59 37 6 16 3 32h-117q-3 18-3 33 0 51 31 70 16 10 39 10 24 0 48-17l7 7-7 8q-27 29-65 29-23 0-42-13-39-28-39-84 0-59 33-90 25-21 53-22m-52 53h83q0-19-9-28t-23-10q-21 0-34 13t-17 25m150-172l59-16v281q0 22 1 27 3 10 15 15 6 2 16 5v9h-92v-9q2-1 11-3 20-4 20-29v-246q0-15-2-19-4-8-26-8l-2-7m117 227q0-44 25-75t62-31q37 0 64 29t28 72-24 73q-28 33-63 33-39 1-65-28t-27-73m83-88q-26 0-40 24t-13 58q0 35 17 62t47 27q27 0 41-23t13-56q0-35-16-63t-49-29m224-14v18h-51v97q0 21 0 40t6 25 15 7q18 0 38-10v13q-25 14-44 14-17 0-27-6t-13-15-5-21-1-23v-104q0-6 0-9t-1-5-4-2-10-1h-13v-11q23-10 32-20t19-32h8v45h51" />
</svg>