<svg id="fnt-Lato" viewBox="0 0 958 1000" xmlns="http://www.w3.org/2000/svg"><path id="lato" class="f" d="M92 308v318h155v41h-203v-359h48m388 197v162h-20q-7 0-11-2t-5-9l-5-23q-10 9-19 16t-20 12-23 7-26 3q-15 0-28-4t-22-13-15-21-6-30q0-15 8-28t27-25 48-18 73-8v-19q0-30-13-45t-37-15q-16 0-28 4t-19 9-14 10-11 4q-5 0-8-3t-6-6l-8-14q21-20 46-30t53-10q22 0 38 7t28 19 17 31 6 39m-116 134q12 0 22-2t18-7 16-10 16-15v-52q-31 1-52 5t-35 10-20 14-6 19q0 10 3 18t9 12 13 6 16 2m260 32q-30 0-46-17t-16-48v-155h-31q-4 0-7-3t-2-7v-18l41-5 10-78q1-4 4-6t7-3h22v87h73v33h-73v152q0 16 8 23t20 8q7 0 12-2t9-4 6-4 5-2q3 0 6 4l13 22q-11 10-28 17t-33 6m212-262q28 0 50 10t38 26 24 41 9 54q0 30-9 54t-24 41-38 26-50 9-50-9-38-26-24-41-9-54q0-30 9-54t24-41 38-26 50-10m0 226q38 0 56-25t19-70q0-45-19-70t-56-26q-19 0-33 7t-23 19-14 30-5 40 5 40 14 30 23 19 33 6" />
</svg>