<svg id="fnt-League Gothic" viewBox="0 0 1830 1000" xmlns="http://www.w3.org/2000/svg"><path id="league-gothic" class="f" d="M146 667h-126v-368h54v318h72v50m77 4q-31 0-48-21t-17-51v-138q0-32 17-52t48-20q20 0 35 9t22 26 8 36v79h-83v60q0 10 4 19t14 8q10 0 14-8t4-19v-30h47v31q0 32-17 51t-48 20m-18-210v39h36v-39q0-11-4-19t-14-9q-9 0-14 9t-4 19m142 210q-17 0-30-18t-13-54q0-36 15-57t46-37q9-5 16-9t8-8v-30q0-10-3-17t-11-8q-9 0-12 8t-3 20v13h-50v-12q0-22 9-39t24-25 35-9q19 0 32 9t22 24 7 34v163q0 18 1 29t3 19h-50q-3-4-4-12t0-10h-4q-6 11-16 18t-22 8m21-50q9 0 15-6t6-13v-65q-18 8-27 24t-8 35q0 8 3 17t11 8m172 144q-21 0-40-5t-30-15-11-28q0-14 7-23t17-16 16-8q-13-3-22-12t-9-24q0-16 10-26t22-15q-14-9-22-24t-7-36v-74q0-31 17-50t47-20q19 0 31 8t19 17q7-12 20-18t22-7v45q-10 0-18 2t-12 4q1 2 2 7t1 10v78q0 29-18 48t-47 19q-7 0-10 0-3 3-5 6t-2 6q0 8 9 12t25 5q32 5 52 19t20 45q0 24-12 39t-31 23-41 8m1-43q13 0 22-4t9-14-6-13-18-7l-21-5q-8 5-14 10t-5 14q0 8 8 14t25 5m-6-162q8 0 12-5t3-17v-80q0-10-3-16t-12-6-12 6-3 16v80q0 11 4 17t11 5m143 111q-12 0-21-8t-12-21-5-25v-224h51v214q0 8 3 11t9 4q5 0 9-4t7-9v-216h51v274h-51v-23q-9 8-20 17t-21 10m177 0q-30 0-47-21t-18-51v-138q0-32 18-52t48-20q20 0 35 9t22 26 8 36v79h-84v60q0 10 5 19t14 8q10 0 14-8t4-19v-30h47v31q0 32-17 51t-49 20m-18-210v39h37v-39q0-11-4-19t-14-9q-10 0-14 9t-5 19m252 210q-22 0-36-11t-21-28-7-41v-216q0-23 9-41t25-28 38-11q17 0 30 6t23 17 14 26 5 31v56h-54v-56q0-11-4-19t-14-8q-9 0-14 8t-4 19v221q0 10 5 19t13 8q10 0 14-8t4-19v-62h-21v-50h75v183h-32l-6-20q-7 11-18 17t-24 7m175-1q-30 0-47-20t-18-52v-137q0-31 18-51t47-21q30 0 47 21t18 51v137q0 31-18 52t-47 20m0-44q10 0 14-8t3-20v-137q0-12-3-20t-14-8-13 8-4 20v137q0 13 4 20t13 8m158 45q-23 0-36-11t-17-30-5-46v-145h-25v-46h25v-67h51v67h35v46h-35v152q0 16 5 24t15 7q5 0 8-1t6-1v46q-5 2-11 3t-16 2m93-4h-50v-368h50v113q7-7 19-15t25-8q12 0 21 7t12 20 5 27v224h-51v-214q0-7-3-12t-8-5q-5 0-13 6t-7 13v212m160 0h-51v-274h51v274m0-317h-51v-51h51v51m89 320q-33 0-49-20t-15-58v-124q0-38 15-58t49-21 49 21 16 58v21h-50v-28q0-11-3-19t-12-8-11 8-3 19v137q0 12 3 20t11 7 12-7 3-20v-28h50v22q0 37-16 58t-49 20" />
</svg>