<svg id="fnt-League Script" viewBox="0 0 3082 1000" xmlns="http://www.w3.org/2000/svg"><path id="league-script" class="f" d="M176 728q-14-8-25-16t-19-16-15-16-13-14q-12 8-26 13t-26 5q-8 0-17-2t-15-5-12-10-4-13 3-14 8-9 11-5 12-1q21 0 36 9t31 24q24-18 50-46t54-66q16-22 30-43t30-41 29-37 30-31q-10-3-23-7t-24-4q-10 0-18 2t-13 3-10 4-3 2q-2 0-2 0-1 0-2-1t-1-2q0-2 2-2 0 0 3-2t10-4 15-4 19-2q6 0 13 1t14 3 13 4 13 5q15-12 33-20t38-7q11 0 19 6t8 17q0 4-2 9t-6 9-11 6-17 2q-9 0-16-1t-14-3-15-5-16-7q-16 13-31 30t-30 37-29 42-32 44q-28 39-54 67t-50 46q7 7 13 15t15 15 18 15 24 16q16 9 31 13t27 4q7 0 14-2t13-5q6-4 10-10t4-14q0-7-3-12t-5-10-6-6-2-2q0-4 3-4 0 0 2 1 1 1 3 3t5 6q9 12 9 24 0 11-5 18t-12 11-15 6-15 2q-14 0-29-4t-32-14m-166-74q1 7 5 12t11 7 13 4 13 1q11 0 23-4t25-13q-14-13-29-22t-33-8q-12 0-20 6t-8 17m348-255q9 3 18 5t19 3q6 0 12-2t10-3 7-7 2-9q0-5-2-8t-5-6-8-2-7-1q-18 0-33 7t-31 16q5 2 10 4t8 3m-73 263q-12-6-17-16t-4-22q0-9 2-20t7-19 9-17 11-14q-5-3-8-4t-3-2 0-1 0-1q0-3 3-3 1 0 1 0t0 0 2 2 9 4q28-29 57-46t58-17q9 0 18 2t16 8 11 11 4 15q0 13-9 24t-20 17-26 10-26 4q-14 0-27-3t-24-5-18-7-12-5q-5 5-11 12t-9 17-7 19-2 19q0 19 12 30t40 11q11 0 21-2t21-3 18-5 12-4q13-6 26-12t25-13 27-17 29-24q1 0 2 0 1 0 2 0t1 3q0 1-1 2-16 13-30 23t-27 18-26 14-26 11q-7 3-16 5t-18 5-20 3-20 1q-10 0-20-2-10-1-17-6m17-110l9 4q5 3 13 5t16 5 19 3 20 2q14 0 27-4t24-10 18-16 6-19q0-6-3-12t-9-10-14-7-16-2q-10 0-22 3t-26 10-30 19-32 29m487 41q1 2 1 3 0 0-1 2-11 10-27 23t-32 23-35 17-35 7q-5 0-11-1-6 0-11-3t-9-6-4-11q0-10 12-24-29 23-54 36t-45 14q-10 0-20-4t-17-9-11-15-4-20q0-33 46-73 31-26 63-40t61-15q14 0 25 3 0 0 5 2t9 5 9 10 4 15q0 23-28 53 11-8 22-16t20-12 13-9 6-3q0-1 1-1 3 0 3 3 0 1-3 3t-11 7-19 12-26 18q-27 20-41 35t-14 25q0 5 3 8t7 4 10 3 9 0q14 0 30-6t33-15 32-23 30-25q1-1 2-1 1 0 2 1m-251 74q14 0 28-6t29-15 28-20 26-21q16-13 26-24t17-20 9-17 2-12q0-7-4-12t-8-8-8-5-4-1q-11-3-23-3-28 0-59 14t-61 40q-44 37-44 68 0 9 3 17t10 13 15 9 18 3m495-70q1 1 1 1 0 2-1 3-1 0-9 6t-23 17-33 20-41 18q-10 4-20 9t-20 9q-18 26-37 50t-37 46-33 38-28 28q-1 0-5 3t-9 7-13 6-14 3q-4 0-8-1t-7-3-5-7-2-8q0-11 8-24t24-28 33-30 41-31 44-28 44-25q8-12 16-23t18-22q-28 20-49 31t-41 11q-10 0-20-3t-17-10-11-15-4-20q0-33 46-72 32-27 63-41t59-14q8 0 17 1t18 5 14 11 5 18q0 20-23 47 12-8 24-16t25-14q0 0 0 0t1 0q1 0 2 1t1 2q0 2-2 3 1 0-5 2t-16 9-24 15-29 22-29 29-28 37q8-3 16-7t15-6q13-5 25-11t24-13 22-13 17-12 12-8 4-4q1 0 2 0 1 0 2 1m-206 71q14 0 28-6t29-15 28-20 26-21q16-13 26-24t17-21 8-16 3-12q0-9-5-15t-13-9-15-4-16-1q-27 0-57 13t-61 41q-22 18-33 35t-11 32q0 10 3 18t10 13 15 9 18 3m-79 170q12-11 27-26t31-36 34-42 35-47q-18 10-39 23t-40 27-39 29-32 29-22 26-8 20q0 4 1 7t4 5q2 1 5 2t5 1q6 0 12-3t12-6 9-6 5-3m434-168q-10 0-18-5t-7-17q0-9 6-24t19-35q-20 18-39 32t-37 24q-14 8-25 12t-19 5-13 2-5 0q-1 0-5 0t-11-2-9-7-5-14q0-14 13-39t38-62q11-15 18-25t12-15 5-7 3-1q2 0 2 3 0 1 0 1 0 0-7 9t-15 21-21 29-20 32-16 30-6 24q0 10 7 14t16 4q7 0 17-2t17-5 16-7 11-5q18-10 43-29t56-51q9-11 18-23t18-21 13-17 5-7l5 4q-12 16-26 31t-25 31-24 32-18 34q-6 14-6 23 0 17 19 17 11 0 24-5t29-14 31-22 33-29q1 0 2 0 3 0 3 3 0 1-1 2-17 16-33 29t-32 22-30 14-26 6m132-8q-11-6-16-16t-5-22q0-9 3-20t6-19 10-17 11-14q-6-3-8-4t-3-2-1-1 1-1q0-3 2-3 2 0 1 0t0 0 3 2 9 4q27-29 57-46t57-17q10 0 19 2t15 8 11 11 4 15q0 13-8 24t-21 17-26 10-25 4q-15 0-28-3t-23-5-19-7-12-5q-5 5-10 12t-9 17-7 19-3 19q0 19 13 30t40 11q10 0 21-2t21-3 17-5 13-4q13-6 25-12t26-13 26-17 30-24q1 0 2 0 1 0 2 0t0 3q0 1 0 2-16 13-30 23t-27 18-26 14-26 11q-7 3-16 5t-19 5-19 3-20 1q-11 0-20-2-10-1-18-6m18-110l9 4q5 3 12 5t16 5 19 3 21 2q13 0 27-4t24-10 17-16 7-19q0-6-3-12t-10-10-13-7-16-2q-10 0-23 3t-26 10-29 19-32 29m331 121l-5-4q-10 5-22 8t-23 3q-2 0-6 0t-8-1-7-2-3-3q0-1 1-1t2-1q5 0 11 1t10 1q12 0 22-3t18-7q-11-12-17-26t-5-30q0-12 3-24t10-23 16-17 22-6q18 1 27 12t9 26q-1 27-15 50t-40 39q16 12 34 19t40 7q15 0 27-2t24-6 20-8 15-10q17-13 28-28t17-33 9-36 4-38 1-39 3-40q-15 0-28-3t-23-12q-1-1-1-2 0-2 1-2t2-1q1 0 2 1 9 7 21 10t26 4q2-17 8-37t15-37 25-29 35-12q16 1 26 9t10 26q0 12-6 24t-15 21-19 17-20 11q-12 6-26 9t-27 3q-3 20-3 40t-1 39-4 39-9 37-18 34-30 31q-13 9-36 18t-53 8q-21 0-40-6t-34-18m-17-106q-9 21-9 41 0 15 5 29t17 24q11-7 21-16t17-21 11-23 4-25q0-14-8-23t-22-9q-13 1-22 7t-14 16m258-172q-5 12-8 25t-5 26q17-1 36-7t34-17 26-25 10-32q0-8-3-13t-6-9-9-4-11-2q-12 1-22 6t-18 13-14 18-10 21m119 273q-30 0-46-10t-16-29q0-16 11-35t28-38 38-31 40-18q7-2 13-3t12 0q15 0 22 6t7 18q0 5-1 11t-5 5q-3 0-3-2 0-3 2-6t2-8q0-8-6-14t-19-5q-11 0-24 4t-27 11-26 17-25 23q-16 18-24 35t-9 30q0 11 6 18t15 10 18 4 17 1q5 0 8 0t3 0q0 0 4 0t11-2 16-2 21-5q10-2 23-7t28-12 29-17 31-22q1-1 2-1 3 0 3 3 0 2-1 3-25 20-54 36t-60 23q-22 6-37 7t-16 2q0 0-4 0t-7 0m262 9q-13 0-19-7t-7-19q0-12 8-28t18-33 23-31 18-25q2-2 3-5t1-5q0-3-2-4t-5-2-6-1-4 0q-1 0-5-1t-10-1-13-3-12-5q-1 2-2 4-14 25-32 47t-38 41q0 0-1 0-3 0-3-3 0-1 1-2 21-19 38-42t30-45q1-1 2-2t0-1q-5-4-7-8t-2-10 2-8 3-4 4-2 3 0q4 0 6 1t3 4 1 4 1 3q0 7-6 18 4 3 9 4t11 3 10 1 7 1q2 0 6 0t7 2 7 3 3 8-5 14-13 19-17 23-18 25-13 25-5 22q0 20 24 20 8 0 20-4t27-10 31-14 32-18q0-1 1-1t2 1 1 2q0 2-1 3-17 10-34 19t-32 14-28 10-23 3m-19-194q-1 1-1 2 0 4 2 8t4 6q3-6 4-9t1-6q0-3-2-5t-4-1q-3 0-4 5m161 182q-5 0-11 0t-10-3-7-7-3-12q0-10 5-21t11-23 14-22 14-20q9-12 17-24t16-20 11-14 5-5q0-1 2-1 3 0 3 3 0 0-1 2 0 0-4 5t-12 14-15 20-18 24q-6 8-13 18t-13 22-11 22-5 20q0 5 3 9t5 5 8 2 9 0q14 0 31-5t33-15 33-21 31-24q1-1 2-1 3 0 3 3 0 1-1 2-15 13-31 25t-33 21-34 15-34 6m109-213q0 7-5 11t-11 5-11-5-5-11 5-11 11-4 11 4 5 11m321 132q1 1 1 2 0 2-1 2-45 41-90 61t-89 20q-20 0-38-4t-30-9q-9-3-19-8t-16-12q-45 74-78 123t-53 69q0 1-4 4t-8 8-11 7-11 3q-6 0-9-4t-4-9q0-9 6-24t18-37q18-34 43-69t53-69 58-64 60-53q10-17 16-28t9-16 5-7 2-2q1 0 2 1t1 2q0 0-1 1t-2 4-7 13-13 23q16-13 36-20t46-8q16 0 28 4t20 11 11 16 4 19q0 11-4 21t-10 21-14 19-16 16q-11 10-25 19t-28 16-28 10-27 3q8 2 17 3t20 1q17 0 36-3t42-13 47-24 51-39q1-1 2-1 0 0 1 0t1 1m-417 240q12-12 31-38t43-64 53-84 60-103q-25 20-47 42t-40 43-33 39-25 32q-19 26-34 50t-24 42-15 33-6 21q0 3 2 5t5 2 8-3 8-5 8-7 6-5m172-174q6 2 12 3t11 0q28 1 57-12t52-35q8-6 16-15t13-17 9-19 4-20q0-8-3-16t-10-15-17-10-27-4q-18 0-32 4t-25 9-18 11-14 11q-13 22-29 49t-33 57q7 7 16 12t18 7m228-55q9-8 19-16t20-17 20-17 20-16q21-18 43-35-4 0-13 0t-20-1-21-1-17-2q-3 0-3-3t3-3q1 0 2 0t4 1q35 3 68 4 22-41 40-74t32-54 24-34 14-12q1 0 3 1t3 6q0 4-2 10t-3 8q-9 24-22 47t-29 43-28 35-21 24q7 0 13 0t14 0q23 0 45-1 3 0 3 3 0 2-6 3t-13 1-15 0-13 0q-8 0-17 0t-16-1q-2 2-3 3t-2 2q-13 24-24 46t-20 39-13 26-6 11q-2 4-3 8-2 4-3 8t-1 9q0 20 25 20 15 0 30-4t30-11 28-16 24-16 20-16 13-11q1 0 2 0 3 0 3 3 0 1-1 2-19 17-39 30t-39 24-37 16-33 5q-16 0-24-7t-8-19q0-5 1-10t3-8 3-7 1-3 5-10 14-26 19-36 22-42q0 1-8 7t-19 15-26 21-26 22-23 19-12 12q-2 1-3 1-1 0-2-1t-1-2q0-2 2-3m138-117q7-8 21-24t27-35 28-43 20-45q1-3 1-5t0-3q0-2 0-2-4 0-14 15t-24 37-30 51-29 54" />
</svg>