<svg id="fnt-League Spartan" viewBox="0 0 3252 1000" xmlns="http://www.w3.org/2000/svg"><path id="league-spartan" class="f" d="M28 667v-330h42v291h130v39h-172m417-94h-162q0 18 8 34t23 24 38 9q19 0 32-6t22-13 12-14l22 26q-9 12-21 21t-28 14-42 5q-33 0-57-14t-37-40-13-57q0-30 12-54t36-39 56-14q30 0 53 13t34 36 13 55q0 2 0 7t-1 7m-161-33h120q0-10-6-22t-18-21-33-9q-22 0-36 8t-19 21-8 23m417 127h-42v-40q-2 6-12 17t-26 20-39 9q-29 0-52-14t-37-38-13-57 13-57 37-38 52-14q22 0 38 8t27 19 11 18v-39h43v206m-178-103q0 22 10 39t25 25 33 9q19 0 34-9t24-26 9-38-9-38-24-25-34-10q-17 0-33 9t-25 26-10 38m335 212q-25 0-44-5t-35-14-23-21l29-27q4 6 12 14t23 12 36 5q22 0 37-9t24-25 8-36v-7h42v9q0 34-15 58t-39 35-55 11m109-109h-42v-40q-2 6-12 17t-26 20-39 9q-29 0-52-14t-37-38-13-57 13-57 37-38 52-14q22 0 38 8t26 19 12 18v-39h43v206m-178-103q0 22 9 39t26 25 33 9q19 0 34-9t24-26 9-38-9-38-24-25-34-10q-18 0-33 9t-26 26-9 38m279-103v104q0 32 14 51t42 19q29 0 43-19t14-51v-104h43v110q0 30-12 53t-34 36-54 13q-31 0-54-13t-33-36-12-53v-110h43m404 112h-162q0 18 8 34t23 24 38 9q19 0 32-6t22-13 13-14l21 26q-8 12-20 21t-29 14-42 5q-33 0-57-14t-37-40-13-57q0-30 12-54t36-39 56-14q31 0 53 13t35 36 12 55q0 2 0 7t-1 7m-160-33h120q-1-10-6-22t-18-21-34-9q-22 0-36 8t-19 21-7 23m438-209q28 0 49 6t32 14 15 9l-22 36q-4-4-14-10t-23-11-33-5q-28 0-45 12t-16 32q0 14 9 25t24 19 37 18q17 7 34 16t30 22 22 29 8 38q0 21-9 38t-24 29-36 18-45 7q-30 0-55-8t-39-16-17-10l23-37q3 3 11 8t20 10 26 9 32 3q33 0 51-15t17-38q0-18-11-31t-29-23-41-20q-22-10-41-23t-30-29-11-41q0-24 13-43t37-28 51-10m204 296v144h-43v-310h44v39q2-8 12-18t28-19 40-8q28 0 50 14t35 38 13 57-13 57-36 38-51 14q-23 0-41-9t-27-20-11-17m136-63q0-22-10-38t-24-26-32-9q-19 0-35 10t-25 25-9 38 9 38 25 26 35 9q17 0 32-9t24-25 10-39m295 103h-42v-40q-2 6-12 17t-26 20-39 9q-29 0-52-14t-37-38-13-57 13-57 37-38 52-14q22 0 38 8t27 19 11 18v-39h43v206m-178-103q0 22 10 39t25 25 33 9q19 0 34-9t24-26 9-38-9-38-24-25-34-10q-17 0-33 9t-25 26-10 38m279-10v113h-43v-206h43v36h-1q1-7 9-16t22-18 34-8q14 0 25 4t15 8l-17 36q-4-4-13-7t-21-4q-17 0-29 10t-18 25-6 27m118-55v-38h40v-84h44v84h52v38h-52v101q0 18 6 27t17 8q10 0 15-3t6-5l17 32q-1 1-8 5t-16 6-24 3q-24 0-41-15t-16-46v-113h-40m391 168h-43v-40q-2 6-12 17t-26 20-39 9q-28 0-52-14t-36-38-14-57 14-57 36-38 52-14q22 0 39 8t26 19 12 18v-39h43v206m-179-103q0 22 10 39t25 25 34 9q19 0 34-9t23-26 9-38-9-38-23-25-34-10q-18 0-34 9t-25 26-10 38m352-109q20 0 39 9t31 27 13 48v128h-44v-120q0-30-14-44t-37-14q-15 0-29 8t-22 23-9 33v114h-43v-206h43v37q3-9 13-19t25-17 34-7" />
</svg>