<svg id="fnt-Leckerli One" viewBox="0 0 2859 1000" xmlns="http://www.w3.org/2000/svg"><path id="leckerli-one" class="f" d="M327 549q8 0 8 17 0 35-33 68t-81 34q-33 0-77-26-32 33-79 33-31 0-45-15t-15-41 19-39 48-12q15 0 29 1 0-61 13-119-16-8-28-19t-12-16q0-16 7-16 10 0 21 5t23 9q31-89 85-115 19-9 40-9 79 0 79 66 0 38-28 66-40 38-120 40-6 42-6 99 0 14-3 32 17 9 34 16t40 8q13 0 25-11t23-23 19-23 14-10m-78-211q-42 0-61 80 36-3 61-21t25-34q0-25-25-25m-195 284q0 14 19 14t24-22q-14-7-23-7-20 0-20 15m374-10q39 0 75-31 14-11 22-21t13-10q7 0 7 14t-7 31-25 34q-43 41-118 41-60 0-81-43-8-15-8-43t11-59 29-52 43-34 51-12 42 13 15 35-11 35-28 23-38 17-40 16v13q0 18 15 25t33 8m-9-141q-26 0-36 61 11-7 20-13t16-10q15-11 16-25 0-13-16-13m300 78q9 0 9 15t-8 33-24 33-40 28-58 12-58-20-25-57 12-68 31-52 44-34 46-12q39 0 39 30 0 18-8 28t-14 11q-10 0-18-7t-16-8-18 9-13 23q-11 28-11 66 0 18 16 27 11 6 26 6t29-10 25-22 20-21 14-10m130 8q13 54 45 54 16 0 28-10t23-21 17-20 14-10 7 17q0 36-33 69t-74 32-73-71q-9-20-17-41l-3 69q0 9-1 18t-9 16q-19 15-39 15-24 0-24-48 0-70 17-147t32-115 24-52 14-16 11-3 14 6 15 19 8 25-4 24-11 23-16 23-17 26l-5 42q18-37 52-49 12-5 28-5 32 0 49 15t17 45-30 50-59 20m19-58q0-18-21-18t-44 39q-7 12-12 24 52-3 71-28 6-8 6-17m206 113q39 0 76-31 13-11 22-21t13-10q7 0 7 14t-8 31-25 34q-43 41-118 41-59 0-81-43-7-15-7-43t11-59 29-52 42-34 51-12 42 13 15 35-11 35-27 23-38 17-41 16v13q1 18 15 25t33 8m-8-141q-26 0-36 61 10-7 19-13t17-10q15-11 15-25 0-13-15-13m174 112l3 61q0 12-13 21t-34 10q-12 0-17-13t-5-38q0-53 5-83t21-60q-23-22-23-38 0-33 36-33 19 0 33 19 10 14 14 32 7 2 18 2 14 0 33-9l13-7q6-3 11-3 14 0 29 43-5 19-10 37t-12 44-8 34 6 9q7 0 18-10t22-21 20-20 13-10q7 0 7 17 0 35-30 68t-69 33q-23 0-35-18t-12-45q0-53 24-100-11 5-25 5t-20-1q-4 19-9 38t-4 36m267 85q-72 1-98-53-9-19-9-48t5-61q10-65 39-120 14-28 32-48 40-44 88-44 22 0 34 12t12 34-13 44-33 46-45 50-48 56v20q0 28 12 41t28 13q43 0 76-42 14-18 21-18t7 17-10 35-24 32-34 25-40 9m27-268q10-13 16-24t6-22-8-11q-17 0-39 36t-31 95q17-26 31-44t25-30m111 268q-50 0-50-93 0-51 13-93 19-64 44-64 14 0 23 20 7 15 6 29 0 20-12 71-11 44-11 54t5 15 12 4 19-10 22-21 20-20 13-10q7 0 7 17 0 35-36 68t-75 33m21-290q-14-20-14-43t7-39 14-22 15-7q14 0 26 20t11 35q0 26-18 41t-41 15m598-36q0 5-15 5-5 0-14-1t-34-5-52-3-50 15-38 38-24 51-8 56q0 50 23 78t64 28q74 0 114-52 12-16 19-36-36-4-56-27t-19-56 18-53 50-19 48 23 17 60q0 13-1 24 9-4 15-9t12-4q10 0 10 8 0 18-12 30t-31 20q-15 73-64 115t-126 43-121-47q-38-42-38-107 0-44 14-85t40-72 64-51 84-19 79 17 32 35m-16 63q-10 0-10 17 0 30 24 43 1-13 1-28 0-32-15-32m174 12q18 0 34 35 23-25 58-25t52 15 18 43-8 57-10 40-3 21 5 8q8 0 19-10t22-21 20-20 13-10q7 0 7 17 0 35-35 68-58 34-74 34-1 0-2-1-40 0-40-64 0-27 5-50t8-34 3-21q0-18-21-18t-40 30-25 64v4q0 17 5 35t6 25q0 17-43 33-6 3-11 3-13 0-18-13t-4-41q0-71 5-102 8-47 34-88 9-14 20-14m318 195q39 0 76-31 13-11 22-21t13-10q7 0 7 14t-8 31-25 34q-43 41-118 41-59 0-81-43-7-15-7-43t11-59 29-52 42-34 51-12 42 13 15 35-11 35-27 23-38 17-41 16v13q1 18 15 25t33 8m-8-141q-26 0-36 61 10-7 19-13t17-10q15-11 15-25 0-13-15-13" />
</svg>