<svg id="fnt-Ledger" viewBox="0 0 1716 1000" xmlns="http://www.w3.org/2000/svg"><path id="ledger" class="f" d="M45 310v-18h152v18l-49 12v323h128l19-73h26v95h-276v-19l50-11v-315l-50-12m529 272h19v57q-29 33-92 33t-94-34-30-92 32-93 87-33q32 0 54 12t31 32q15 33 15 69h-169q0 57 13 86 15 34 59 34 15 0 29-5t21-8 7-5l18-53m-79-143q-43 0-58 39-8 18-9 39h125q0-78-58-78m312-129v-18h84v346l43 10v19h-87v-57q-18 62-86 62-47 0-76-33t-28-92 28-93 76-34q33 0 55 16t29 42v-161l-38-7m-38 133q-62 0-62 103t63 103q33 0 55-28t22-75-22-75-56-28m239 252q-24 24-24 53t22 47 65 19 69-19 27-47q0-35-48-39l-71-6q-26-2-40-8m62-256q-55 0-55 74 0 39 13 57t42 18q57 0 57-73 0-41-14-59t-43-17m48-14h85v18l-45 17q15 22 15 54 0 42-29 67t-75 25q-15 0-34-4-24 14-24 29t8 21 41 9l49 4q46 1 66 18t20 51q0 46-36 72t-91 25-86-20-31-59 46-62q-20-17-20-38t9-32 35-22q-52-27-52-85 0-43 27-69t74-25q23 0 48 6m305 157h19v57q-29 33-92 33t-94-34-30-92 32-93 87-33q32 0 54 12t31 32q15 33 15 69h-169q0 57 13 86 15 34 59 34 15 0 29-5t21-8 7-5l18-53m-79-143q-43 0-58 39-8 18-9 39h125q0-78-58-78m162 3v-18h83v71q10-30 31-50t51-20q18 0 44 13v60h-19l-16-41q-9-5-21-5-22 0-45 26t-22 55v105l37 10v19h-122v-19l38-10v-189l-39-7" />
</svg>