<svg id="fnt-Lekton" viewBox="0 0 1465 1000" xmlns="http://www.w3.org/2000/svg"><path id="lekton" class="f" d="M73 641h137v26h-164v-328h27v302m211-93q0-57 23-90t70-32 67 30 23 80l-2 25h-153q3 38 20 61t48 23 73-14l7 25q-40 15-76 15-49 0-75-33t-25-90m95-96q-63 0-67 84h126q0-84-59-84m301-23h30q-35 57-81 111 31 44 84 127h-30q-40-65-73-111l-35 5v106h-26v-332h26v202l33-5q35-46 72-103m150 147v-118h-42v-25h42v-58l27-5v63h95v25h-95v117q0 39 7 55t32 16 53-10l6 25q-29 11-54 11t-39-7-21-21-9-29-2-39m200-27q0-123 95-123t96 123-96 122-95-122m95-97q-67 0-67 97t67 96 67-96-67-97m163-23h26l1 20q48-23 80-23t50 22 19 60v159h-27v-159q0-24-12-40-12-16-36-16t-74 22v193h-27v-238" />
</svg>