<svg id="fnt-Lemon" viewBox="0 0 1884 1000" xmlns="http://www.w3.org/2000/svg"><path id="lemon" class="f" d="M91 680q-33 0-47-20t-14-58q0-25 8-75t24-133l-27-54q24-15 50-26t53-10q24 0 31 14t8 33q0 8-3 25t-7 42-10 50-9 51-7 46-3 34h54q38-6 77-20 2 6 2 12t1 13q0 17-7 35t-22 29-36 11q-22 0-38-4t-33-7q-11 6-22 9t-23 3m349-1q-46 0-78-16t-49-47-16-68q0-41 15-74t41-57 62-37 76-13q49 0 72 21t23 54q0 28-19 53t-58 40-108 16q1 32 14 50t34 18q10 0 21-5t18-17 8-33q34 0 53 7t20 27q0 18-16 37t-44 31-69 13m-35-168q37-3 59-14t32-24 10-25q0-10-6-16t-17-7q-18 0-34 13t-27 32-17 41m284 168q-31 0-45-16t-13-46q0-10 3-32t7-49 11-53 10-48l-26-40q21-12 44-20t49-8q21 0 31 10t10 28q0 13-4 27t-8 24l5 2q30-50 62-71t69-20q27 0 44 13t17 43q0 15-5 33l5 2q29-50 62-71t69-20q30 0 45 14t15 46q0 27-7 57t-15 62-7 63 10 46q-26 24-55 24-31 0-45-16t-13-46q0-16 4-37t11-41 10-39 5-32q0-11-4-17t-13-6q-14 0-31 12t-34 34-26 52-11 66q0 31 11 46-27 24-55 24-32 0-45-16t-14-46q0-16 5-37t10-41 11-39 4-32q0-11-4-17t-13-6q-13 0-31 12t-33 34-27 52-10 66q0 31 10 46-26 24-55 24m644 0q-44 0-76-17t-49-46-17-68q0-54 24-95t65-64 95-22q8 0 17 0t19 4q2 7 4 16t2 21q4-1 9-2t12-1q17 0 33 9t25 29 10 49q0 45-15 79t-39 59-56 37-63 12m15-61q12 0 24-6t25-20 20-41q-22-13-31-33t-10-44q0-7 3-18t8-22 18-19q-35 7-57 21t-34 32-17 37-5 37q0 20 7 37t19 28 30 11m264 61q-31 0-45-16t-13-46q0-10 3-32t7-49 11-53 10-48l-26-40q21-12 44-20t49-8q21 0 31 10t10 28q0 13-4 27t-8 24l5 2q30-50 65-71t71-20q31 0 46 14t15 46q0 27-8 57t-14 62-8 63 11 46q-27 24-55 24-32 0-45-16t-14-46q0-16 5-37t10-41 11-39 4-32q0-11-4-17t-13-6q-13 0-31 12t-36 34-28 52-11 66q0 31 10 46-26 24-55 24" />
</svg>