<svg id="fnt-Lexend Tera" viewBox="0 0 4341 1000" xmlns="http://www.w3.org/2000/svg"><path id="lexend-tera" class="f" d="M357 667h-274v-350h54v298h220v52m283 5q-50 0-89-18t-60-47-22-69q0-32 13-58t36-44 53-28 64-10q32 0 59 9t49 27 32 40 11 52l0 26h-271l-11-41h237l-7 4v-12q-3-17-17-30t-36-20-46-7q-32 0-59 8t-41 29-15 52q0 27 16 47t46 31 67 11q36 0 61-10t41-20l23 38q-14 10-36 19t-47 15-51 6m598-5h-73l-110-116-9-10-130-137h75l97 111 9 10 141 142m-259 0h-70l127-139 35 32-92 107m254-263l-133 138-30-36 92-102h71m274 268q-49 0-88-18t-61-47-21-69q0-32 13-58t36-44 53-28 64-10q31 0 59 9t48 27 33 40 11 52l-1 26h-270l-12-41h238l-8 4v-12q-2-17-17-30t-36-20-45-7q-33 0-59 8t-41 29-15 52q0 27 16 47t45 31 67 11q37 0 61-10t42-20l23 38q-14 10-36 19t-47 15-52 6m304-5v-263h51v70l-17 2q11-18 28-36t42-30 53-11q40 0 66 14t39 40 13 58v156h-51v-149q0-22-11-38t-28-25-41-8q-20 0-37 7t-29 18-20 25-7 27v143h-25q-12 0-18 0t-8 0m572 5q-45 0-79-18t-52-48-19-71q0-40 20-71t53-48 79-17q27 0 51 6t41 18 28 23 10 25l-15 1v-175h51v370h-51v-71l10 3q0 12-11 25t-28 23-40 18-48 7m11-47q32 0 56-12t38-32 14-46-14-45-38-32-56-12q-32 0-56 12t-39 31-13 46 13 46 39 32 56 12m682 42h-54v-298h-126v-52h309v52h-129v298m345 5q-50 0-89-18t-60-47-22-69q0-32 13-58t36-44 53-28 64-10q32 0 59 9t49 27 32 40 11 52l0 26h-271l-11-41h237l-7 4v-12q-3-17-17-30t-36-20-46-7q-32 0-59 8t-41 29-15 52q0 27 16 47t46 31 67 11q36 0 61-10t41-20l23 38q-14 10-36 19t-47 15-51 6m355-5h-52v-263h52v93l-13-6q8-26 25-47t41-33 47-12q17 0 32 3t25 10l-14 53q-10-5-24-9t-27-3q-21 0-38 7t-29 19-18 25-7 30v133m395 5q-45 0-78-18t-52-48-18-71q0-40 19-71t54-48 78-17q28 0 51 6t41 18 27 23 10 26h-14v-68h51v263h-51v-71l10 3q0 12-11 24t-29 24-40 18-48 7m12-48q32 0 56-12t38-32 14-45-14-45-38-32-56-11q-32 0-56 11t-38 32-14 45 14 45 38 32 56 12" />
</svg>