<svg id="fnt-Lexend Peta" viewBox="0 0 4283 1000" xmlns="http://www.w3.org/2000/svg"><path id="lexend-peta" class="f" d="M348 667h-269v-350h54v298h215v52m272 5q-48 0-86-18t-60-47-21-69q0-32 13-58t35-44 52-28 63-10q31 0 58 10t47 26 32 40 11 52l-1 25h-265l-11-41h232l-8 5v-12q-2-17-16-30t-35-20-44-7q-32 0-58 9t-39 28-15 52q0 27 16 47t44 31 65 11q35 0 58-9t41-21l24 38q-14 11-36 20t-46 14-50 6m579-5h-72l-107-115-10-10-127-138h74l96 111 9 10 137 142m-253 0h-70l125-139 35 33-90 106m248-263l-129 138-31-36 90-102h70m263 268q-49 0-87-18t-59-47-21-69q0-32 12-58t35-44 52-28 63-10q31 0 58 10t48 26 31 40 11 52l0 25h-265l-12-41h232l-7 5v-12q-3-17-17-30t-35-20-44-7q-32 0-57 9t-40 28-14 52q0 27 15 47t44 31 65 11q35 0 59-9t41-21l23 38q-14 11-35 20t-46 14-50 6m290-5v-263h52v69l-17 2q10-19 27-36t41-29 53-11q38 0 63 14t39 39 13 58v157h-52v-150q0-22-10-38t-28-24-39-9q-20 0-36 7t-29 18-19 25-6 26v145h-26q-11 0-18 0t-8 0m556 5q-45 0-78-18t-52-48-18-71q0-40 19-71t53-48 77-17q27 0 50 6t40 18 27 23 10 25l-15 1v-175h51v370h-51v-70l10 3q0 12-10 24t-28 23-39 18-46 7m10-47q31 0 54-12t37-32 14-46-14-46-37-32-54-11-55 11-37 32-13 46 13 46 37 32 55 12m576 42h-54v-350h188q30 0 55 14t40 39 15 54q0 31-16 57t-43 40-59 15h-126v131m0-298v115h123q17 0 32-8t23-22 9-30q0-15-9-28t-23-20-32-7h-123m510 303q-48 0-86-18t-60-47-21-69q0-32 13-58t35-44 52-28 63-10q31 0 58 10t47 26 32 40 11 52l-1 25h-265l-11-41h232l-8 5v-12q-2-17-16-30t-35-20-44-7q-32 0-58 9t-39 28-15 52q0 27 16 47t44 31 65 11q35 0 58-9t41-21l24 38q-14 11-36 20t-46 14-50 6m378-5h-52v-341h52v341m90-213h-218v-50h218v50m248 218q-43 0-76-18t-51-49-18-70q0-40 19-71t53-48 77-17q26 0 49 6t39 18 27 24 10 26l-14-1v-68h52v263h-52v-70l11 2q-1 12-11 25t-28 23-40 18-47 7m12-48q31 0 55-12t37-32 13-45q0-25-13-45t-37-32-55-11q-30 0-54 11t-37 32-14 45q0 25 14 45t37 32 54 12" />
</svg>