<svg id="fnt-Lexend Giga" viewBox="0 0 4015 1000" xmlns="http://www.w3.org/2000/svg"><path id="lexend-giga" class="f" d="M330 667h-257v-350h54v298h203v52m252 5q-47 0-83-18t-57-47-21-69q0-32 12-58t34-44 50-28 61-10q29 0 55 10t46 26 30 40 10 52l-1 25h-253l-12-41h221l-8 5v-12q-2-17-15-30t-32-20-41-7q-31 0-55 9t-38 29-13 51q0 27 15 47t41 31 62 11q31 0 53-9t40-21l24 38q-13 11-34 20t-44 14-47 6m541-5h-70l-103-114-9-10-123-139h72l93 111 8 10 132 142m-243 0h-67l120-138 33 33-86 105m237-263l-123 137-29-36 84-101h68m240 268q-47 0-84-18t-57-47-20-69q0-32 12-58t33-44 50-28 61-10q30 0 56 10t45 26 30 40 10 52l0 25h-254l-11-41h220l-7 5v-12q-2-17-15-30t-33-20-41-7q-31 0-55 9t-37 29-13 51q0 27 14 47t42 31 61 11q32 0 54-9t40-21l24 38q-14 11-34 20t-44 14-47 6m263-5v-263h52v65l-15 4q9-19 25-36t40-27 50-11q36 0 60 13t37 39 12 59v157h-51v-151q0-22-10-38t-25-24-38-8q-18 0-34 7t-27 17-18 23-6 26v148h-26q-10 0-16 0t-10 0m523 5q-43 0-75-18t-50-48-18-71q0-40 19-71t51-48 74-17q25 0 47 6t38 18 26 23 10 25l-15 1v-175h51v370h-51v-68l10 2q0 12-10 24t-26 23-38 17-43 7m9-46q30 0 52-12t35-33 13-46-13-46-35-32-52-12q-29 0-51 12t-36 32-12 46 12 46 36 33 51 12m655 46q-39 0-75-13t-63-36-42-56-16-75q0-38 15-70t43-57 64-38 79-13q33 0 62 8t52 21 36 30l-35 38q-16-14-35-24t-39-15-41-6q-31 0-57 10t-46 26-31 40-10 50q0 30 11 53t32 41 45 25 55 8q25 0 48-6t40-16 26-25 9-30l0-8 8 9h-131v-53h180q1 7 1 11t1 9 0 6q0 37-14 66t-38 49-59 30-75 11m362-5h-52v-263h52v263m-27-324q-16 0-25-8t-9-24q0-15 9-24t25-9q17 0 26 9t9 24q0 14-10 23t-25 9m314 439q-38 0-69-10t-48-22l18-41q11 6 26 12t33 10 40 5q28 0 48-11t32-30 12-49v-40l5 4q-2 14-20 29t-43 23-54 10q-42 0-74-18t-51-48-18-71q0-40 19-71t52-48 76-17q13 0 28 3t32 9 28 15 22 17 9 19l-11 4v-62h51v236q0 35-11 61t-31 45-46 27-55 9m-6-158q29 0 52-11t35-32 13-46q0-26-13-46t-35-32-52-11q-30 0-54 11t-37 32-13 46q0 25 13 45t37 32 54 12m402 48q-40 0-72-18t-49-49-18-70q0-40 19-71t50-48 74-17q25 0 47 6t37 17 26 24 10 27l-14-1v-68h52v263h-52v-68l11 0q-1 13-11 25t-27 24-38 17-45 7m13-48q29 0 52-12t35-32 12-45q0-25-12-45t-35-32-52-11q-29 0-52 11t-35 32-12 45q0 25 12 45t35 32 52 12" />
</svg>