<svg id="fnt-Lexend Zetta" viewBox="0 0 5136 1000" xmlns="http://www.w3.org/2000/svg"><path id="lexend-zetta" class="f" d="M379 667h-288v-350h54v298h234v52m309 5q-52 0-93-18t-63-47-23-69q0-33 14-59t38-43 56-28 66-10q33 0 62 9t51 27 34 40 12 52l0 27h-285l-11-41h251l-7 3v-12q-3-17-19-30t-39-20-49-7q-34 0-62 8t-44 28-17 53q0 27 18 47t48 31 72 11 67-11 43-20l22 39q-15 10-38 19t-49 15-55 6m646-5h-75l-117-117-10-10-134-136h78l100 112 9 9 149 142m-272 0h-73l133-140 36 31-96 109m268-263l-142 139-31-36 100-103h73m303 268q-52 0-93-18t-63-47-23-69q0-33 14-59t38-43 56-28 66-10q33 0 62 9t51 27 34 40 12 52l0 27h-285l-11-41h251l-7 3v-12q-3-17-19-30t-39-20-49-7q-34 0-62 8t-44 28-17 53q0 27 18 47t48 31 72 11 67-11 43-20l22 39q-15 10-38 19t-49 15-55 6m337-5v-263h51v74l-19 1q12-19 30-37t43-31 57-12q42 0 69 15t42 41 14 57v155h-51v-147q0-22-12-38t-31-26-43-9q-21 0-40 7t-31 20-21 27-7 27v139h-25q-13 0-20 0t-6 0m613 5q-47 0-83-18t-54-48-19-71q0-40 20-71t57-48 82-17q29 0 54 6t44 18 28 24 11 24l-15 1v-175h51v370h-51v-73l10 4q0 12-11 24t-30 24-43 19-51 7m12-48q34 0 60-12t40-32 15-45-15-45-40-32-60-11q-34 0-60 11t-41 32-14 45 14 45 41 32 60 12m889 43h-342v-40l257-267 20 10h-264v-53h323v39l-257 267-19-9h282v53m286 5q-52 0-93-18t-63-47-23-69q0-33 14-59t38-43 56-28 66-10q33 0 62 9t51 27 34 40 12 52l0 27h-285l-11-41h251l-7 3v-12q-3-17-19-30t-39-20-49-7q-34 0-62 8t-44 28-17 53q0 27 18 47t48 31 72 11 67-11 43-20l22 39q-15 10-38 19t-49 15-55 6m425-5h-51v-345h51v345m101-213h-237v-50h237v50m274 213h-52v-345h52v345m101-213h-237v-50h237v50m288 218q-47 0-83-18t-54-48-19-71q0-40 20-71t57-48 82-17q29 0 54 6t44 18 28 24 11 24l-15 1v-68h51v263h-51v-73l10 4q0 12-11 24t-30 24-43 19-51 7m12-48q34 0 60-12t40-32 15-45-15-45-40-32-60-11q-34 0-60 11t-41 32-14 45 14 45 41 32 60 12" />
</svg>