<svg id="fnt-Lexend Mega" viewBox="0 0 4384 1000" xmlns="http://www.w3.org/2000/svg"><path id="lexend-mega" class="f" d="M339 667h-263v-350h54v298h209v52m262 5q-47 0-85-18t-58-47-21-69q0-32 13-58t34-44 51-28 62-10q30 0 57 10t46 26 31 40 11 52l-1 25h-259l-12-41h227l-8 5v-12q-2-17-16-30t-33-20-43-7q-32 0-56 9t-39 29-14 51q0 27 16 47t42 31 64 11q33 0 56-9t40-21l24 38q-14 11-35 20t-45 14-49 6m561-5h-71l-106-115-9-10-125-138h73l94 111 9 10 135 142m-248 0h-69l123-138 33 33-87 105m242-263l-126 138-30-36 87-102h69m251 268q-48 0-85-18t-58-47-21-69q0-32 12-58t34-44 51-28 62-10q31 0 57 10t47 26 31 40 10 52l0 25h-260l-11-41h226l-7 5v-12q-3-17-16-30t-34-20-43-7q-31 0-56 9t-38 29-14 51q0 27 15 47t43 31 63 11q33 0 56-9t41-21l23 38q-14 11-35 20t-44 14-49 6m277-5v-263h52v67l-16 3q9-19 26-36t40-28 52-11q37 0 62 14t37 39 13 58v157h-51v-150q0-23-10-39t-27-24-38-8q-19 0-36 7t-28 18-18 24-6 26v146h-26q-11 0-17 0t-9 0m539 5q-43 0-76-18t-51-48-18-71q0-40 19-71t52-48 76-17q25 0 48 6t39 18 27 23 10 25l-15 1v-175h51v370h-51v-69l10 2q0 12-10 24t-27 23-39 18-45 7m10-47q30 0 53-12t37-32 13-46-13-46-37-32-53-12-53 12-36 32-13 46 13 46 36 32 53 12m558 42h-54v-350h53l148 201h-22l149-201h52v350h-54v-147q0-43 2-79t8-73l6 19-136 179h-33l-135-178 6-20q5 36 7 72t3 80v147m611 5q-47 0-85-18t-58-47-21-69q0-32 13-58t34-44 51-28 62-10q30 0 57 10t46 26 31 40 11 52l-1 25h-259l-12-41h227l-8 5v-12q-2-17-16-30t-33-20-43-7q-32 0-56 9t-39 29-14 51q0 27 16 47t42 31 64 11q33 0 56-9t40-21l24 38q-14 11-35 20t-45 14-49 6m407 110q-40 0-70-10t-49-22l18-42q11 6 26 13t34 10 41 5q28 0 49-11t33-31 11-50v-38l6 4q-3 14-21 29t-44 23-56 10q-43 0-75-18t-51-48-18-71q0-40 19-71t52-48 78-17q12 0 28 3t32 9 30 14 22 17 9 20l-11 4v-62h52v234q0 36-12 63t-31 45-47 27-55 9m-7-158q30 0 53-11t36-32 13-46q0-26-13-46t-36-32-53-11-55 11-38 32-14 46q0 25 14 45t38 32 55 12m416 48q-42 0-74-18t-50-49-18-70q0-40 19-71t52-48 75-17q26 0 48 6t38 18 26 24 11 26l-14-1v-68h52v263h-52v-69l11 1q-1 12-12 25t-27 23-39 18-46 7m13-48q30 0 53-12t36-32 13-45q0-25-13-45t-36-32-53-11-53 11-37 32-13 45q0 25 13 45t37 32 53 12" />
</svg>