<svg id="fnt-Lexend Exa" viewBox="0 0 3421 1000" xmlns="http://www.w3.org/2000/svg"><path id="lexend-exa" class="f" d="M312 667h-246v-350h54v298h192v52m232 5q-45 0-80-18t-55-47-19-69q0-32 11-57t32-44 48-29 59-10q28 0 53 10t43 26 29 40 10 52l-1 24h-242l-12-41h210l-8 6v-12q-2-16-14-29t-30-21-38-7q-30 0-53 9t-34 29-12 51q0 27 14 47t39 31 57 11q28 0 49-8t39-22l24 38q-13 11-32 20t-42 14-45 6m503-5h-68l-98-113-8-10-120-140h70l90 110 9 10 125 143m-232 0h-66l116-137 32 34-82 103m225-263l-115 137-30-36 79-101h66m217 268q-45 0-80-18t-55-47-20-69q0-32 12-57t31-44 48-29 59-10q29 0 53 10t44 26 28 40 10 52l0 24h-243l-11-41h209l-7 6v-12q-2-16-14-29t-30-21-39-7q-30 0-52 9t-35 29-12 51q0 27 14 47t39 31 58 11q28 0 48-8t39-22l25 38q-13 11-33 20t-42 14-44 6m237-5v-263h51v62l-13 4q8-18 24-34t38-27 47-10q35 0 58 13t35 38 11 59v158h-51v-153q0-22-9-38t-23-23-36-7q-17 0-32 6t-26 16-17 22-6 26v151h-25q-9 0-16 0t-10 0m489 5q-40 0-71-18t-49-49-17-70 17-70 49-49 72-17q23 0 44 6t37 17 25 24 9 25l-15 1v-175h52v370h-52v-67l10 2q0 12-9 24t-25 22-35 17-42 7m9-46q28 0 49-12t33-32 12-47-12-46-33-33-49-11-49 11-33 33-12 46 12 47 33 32 49 12m696 41h-248v-350h248v52h-194v246h194v52m-27-154h-195v-52h195v52m414 154h-68l-97-113-9-10-120-140h70l91 110 8 10 125 143m-231 0h-66l115-137 33 34-82 103m224-263l-115 137-29-36 78-101h66m195 268q-38 0-68-18t-48-49-17-70 18-71 49-48 70-17q24 0 44 6t36 17 24 24 10 28l-13-2v-68h52v263h-52v-67l11 0q-2 12-12 25t-26 23-36 17-42 7m13-48q28 0 49-11t33-32 12-46q0-25-12-45t-33-32-49-12-48 12-33 32-12 45q0 26 12 46t33 32 48 11" />
</svg>