<svg id="fnt-Lexend" viewBox="0 0 1721 1000" xmlns="http://www.w3.org/2000/svg"><path id="lexend" class="f" d="M267 667h-218v-350h54v298h164v52m181 5q-40 0-72-18t-49-47-17-69q0-31 10-56t27-45 43-29 54-10q25 0 47 10t38 27 25 40 9 51l-1 22h-214l-12-41h182l-8 8v-12q-1-16-11-29t-24-21-31-7q-27 0-46 10t-28 30-9 49q0 27 11 47t33 32 48 11q20 0 36-7t37-23l26 36q-12 12-30 21t-36 14-38 6m407-5h-63l-85-111-8-9-110-143h65l83 109 9 11 109 143m-205 0h-61l104-135 30 36-73 99m196-263l-97 136-29-36 65-100h61m160 268q-41 0-72-18t-49-47-18-69q0-31 10-56t28-45 42-29 54-10q26 0 48 10t38 27 25 40 8 51l0 22h-215l-11-41h181l-7 8v-12q-2-16-11-29t-24-21-32-7q-27 0-45 10t-28 30-10 49q0 27 12 47t32 32 49 11q19 0 36-7t36-23l26 36q-12 12-29 21t-37 14-37 6m170-5v-263h52v54l-9 6q5-17 19-32t35-24 41-9q30 0 50 11t30 36 10 61v160h-52v-157q0-22-6-37t-18-22-31-5q-15 0-28 4t-22 14-14 19-5 25v159h-26q-6 0-13 0t-13 0m407 5q-36 0-64-18t-45-49-16-70 16-70 44-49 64-17q19 0 37 6t33 17 23 23 8 26l-15 1v-175h52v370h-52v-63h10q0 12-8 24t-21 22-31 16-35 6m7-45q24 0 42-12t28-33 10-47-10-47-28-33-42-12-41 12-29 33-10 47 10 47 29 33 41 12" />
</svg>