<svg id="fnt-Libre Caslon Display" viewBox="0 0 3929 1000" xmlns="http://www.w3.org/2000/svg"><path id="libre-caslon-display" class="f" d="M61 330v329l-41 4v4h245l13-109-6-1-34 85q-5 11-10 15t-18 4h-110v-331l43-4v-4h-123v4l41 4m263 48q0-11 7-18t17-6 17 6 7 18-7 17-17 7-17-7-7-17m43 281v-209h-4l-58 19v4l30 11v175l-31 4v4h94v-4l-31-4m152 13q29 0 52-16t36-42 13-61q0-31-11-54t-29-36-44-13q-35 0-61 28v-172h-4l-58 20v3l29 11v327h4l15-14h2q25 19 56 19m0-5q-20 0-32-14t-12-37v-130q7-10 19-16t25-5q30 0 46 26t17 72q0 47-17 75t-46 29m247-217q10 0 17 6t7 17q0 8-5 13t-14 6q-5 0-8-3t-7-6q-3-4-6-6t-7-2q-8 0-16 9t-12 22v153l40 4v4h-103v-4l31-4v-175l-30-11v-4l57-19h4v44q28-44 52-44m210 166l5-6 2 1-2 5q-10 27-30 41t-47 15q-27 0-48-14t-33-39-12-58 13-58 35-39 53-14q35 0 53 20t20 61l-3 2h-135q-1 13-1 21 0 45 18 69t52 24q17 0 32-8t28-23m-70-161q-23 0-39 20t-20 53l97-4q2-6 2-20 0-27-11-38t-29-11m480 178q-15 16-36 25t-44 10q-52 0-81-46t-28-128q0-83 28-129t82-45q29 0 53 13t39 38q15 25 22 63l7-2-5-112h-7l-12 24q-29-16-53-23t-46-7q-43 0-79 24t-57 65-20 91q0 50 20 91t57 66 80 24q25 0 51-10t49-26l17 28h6v-115l-6-1q-13 54-37 82m135 37q-19 0-31-13t-12-34q0-25 22-40t78-26v-46q0-29-7-40t-22-11q-16 0-25 8t-10 22l1 14q0 12-5 19t-13 8q-8 0-13-5t-4-13q0-12 11-27t31-23q22-13 46-13 14 0 24 6t14 15q3 7 3 16t1 37v95q0 18 4 25t12 7q14 0 20-10l2 1q-6 13-16 19t-21 7q-13 0-22-8t-9-20l-2-1q-11 15-26 23t-31 8m22-19q10 0 19-5t16-13v-71q-26 7-41 13t-20 16-6 22q0 18 9 28t23 10m206-201q-35 0-54 15t-19 44q0 17 7 29t17 18 27 15q23 11 35 22t11 31q0 19-11 30t-29 12q-21 0-34-17t-17-51h-6l2 65q11 4 26 6t27 3q33 0 52-18t20-48q0-19-8-31t-17-19-28-14q-22-11-33-21t-11-28q0-17 10-28t26-10q18 0 29 14t18 43h5v-55q-8-3-20-5t-25-2m147 209v-353h-4l-58 20v3l29 11v319l-30 4v4h93v-4l-30-4m158-209q29 0 52 14t35 39 12 58-12 57-35 40-52 14-51-14-35-40-13-57 13-58 35-39 51-14m-62 111q0 50 17 78t45 28 46-28 16-78-16-78-46-28-45 28-17 78m374 98l30 4v4h-93v-4l31-4v-128q0-19-1-29t-4-16q-4-8-14-13t-21-5q-25 0-45 22v169l30 4v4h-93v-4l30-4v-173l-29-11v-3l56-20h4v32q32-34 67-34 16 0 28 6t19 18q3 7 4 18t1 39v128m418-311q30 22 47 59t17 85-17 87-47 61q-20 14-45 20t-62 7h-133v-4l41-4v-329l-41-4v-4h133q68 0 107 26m-18 283q16-20 25-58t9-83q0-45-9-79t-25-54q-14-16-35-23t-58-6h-49v333h49q40 0 60-7t33-23m143-253q0-11 6-18t18-6 17 6 7 18-7 17-17 7-18-7-6-17m43 281v-209h-4l-58 19v4l29 11v175l-30 4v4h93v-4l-30-4m136-209q-35 0-54 15t-19 44q0 17 7 29t17 18 27 15q23 11 35 22t11 31q0 19-11 30t-29 12q-21 0-34-17t-17-51h-6l2 65q11 4 26 6t27 3q33 0 52-18t20-48q0-19-8-31t-17-19-28-14q-22-11-33-21t-11-28q0-17 10-28t26-10q18 0 29 14t18 43h5v-55q-8-3-20-5t-25-2m147 213q20 9 41 9 29 0 53-15t36-42 13-60q0-30-10-54t-28-38-40-13q-19 0-37 9t-28 26h-2v-35h-4l-56 19v4l29 11v292l-30 4v4h108v-4l-45-5v-112m44 4q-18 0-31-11t-13-25v-136q6-14 18-22t28-8q28 0 44 26t17 71q0 30-8 54t-23 37-32 14m192-8v-353h-4l-58 20v3l29 11v319l-30 4v4h93v-4l-30-4m104 11q-19 0-31-13t-12-34q0-25 22-40t78-26v-46q0-29-7-40t-22-11q-16 0-25 8t-10 22l1 14q0 12-5 19t-13 8q-8 0-13-5t-4-13q0-12 11-27t31-23q22-13 46-13 14 0 24 6t14 15q3 7 3 16t1 37v95q0 18 4 25t12 7q14 0 20-10l2 1q-6 13-16 19t-21 7q-13 0-22-8t-9-20l-2-1q-11 15-26 23t-31 8m22-19q10 0 19-5t16-13v-71q-26 7-41 13t-20 16-6 22q0 18 9 28t23 10m226-21l-53-150q-4-10-4-13 0-4 5-6t24-2v-4h-97v4q17 1 23 4t11 13l77 200-20 59q-6 20-12 28t-12 8q-4 0-7-3t-4-10q-2-9-6-14t-14-5q-10 0-16 6t-5 16q0 12 9 20t24 9q17 0 30-15 10-10 19-36l83-246q6-17 16-24t34-10v-4h-90v4q20 3 28 6t7 12q0 6-3 16l-45 137h-2" />
</svg>