<svg id="fnt-Libre Barcode 128" viewBox="0 0 4006 1000" xmlns="http://www.w3.org/2000/svg"><path id="libre-barcode-128" class="f" d="M88 311v317h169v39h-216v-356h47m264 91v265h-45v-265h45m-49-70q0-11 7-18t20-8 20 8 7 18-7 19-20 7-20-7-7-19m345 202v3q0 61-28 98t-74 37q-50 0-78-36l-2 31h-41v-375h45v140q27-34 75-34t76 36 27 100m-45-2q0-46-18-71t-51-25q-45 0-64 41v115q20 41 64 41 33 0 51-25t18-76m230-131v42q-10-2-22-2-45 0-61 38v188h-45v-265h44l1 31q22-35 63-35 13 0 20 3m146 271q-53 0-87-36t-34-94v-8q0-40 15-71t42-48 59-17q51 0 80 34t28 97v19h-179q1 39 23 63t56 24q24 0 40-10t29-26l28 22q-33 51-100 51m-5-237q-28 0-46 20t-23 55h132v-3q-2-34-18-53t-45-19m415 232h-124v-356h117q57 0 87 24t29 71q0 25-14 44t-39 30q29 8 46 30t16 54q0 48-31 75t-87 28m1-167h-78v128h78q32 0 51-17t19-46q0-65-70-65m-78-150v113h71q31 0 49-16t19-41q0-30-17-43t-52-13h-70m468 317h-47q-4-8-7-28-31 33-75 33-39 0-64-23t-25-56q0-41 31-64t89-23h44v-20q0-24-15-38t-41-14q-24 0-41 12t-16 30h-46q0-20 14-38t39-30 52-10q46 0 72 22t27 63v122q0 36 9 58v4m-122-35q21 0 40-11t28-28v-55h-36q-83 0-83 49 0 21 14 33t37 12m311-231v42q-10-2-22-2-44 0-60 38v188h-45v-265h43l1 31q22-35 63-35 13 0 20 3m143 234q24 0 42-15t20-37h43q-1 23-16 44t-38 32-51 13q-54 0-86-36t-32-99v-8q0-38 15-68t40-47 63-16q44 0 74 26t31 69h-43q-2-25-19-42t-43-16q-35 0-54 24t-18 72v9q0 45 18 70t54 25m144-100v-3q0-39 15-70t43-48 62-16q54 0 87 37t33 99v3q0 39-14 70t-43 47-63 18q-53 0-87-38t-33-99m45 2q0 44 21 71t54 27q35 0 55-27t20-76q0-43-20-70t-55-27q-34 0-54 26t-21 76m241-1v-4q0-60 29-97t75-37q47 0 74 31v-137h45v375h-42l-2-29q-27 34-75 34-46 0-75-38t-29-98m45 1q0 45 19 71t51 25q43 0 63-38v-122q-21-37-63-37-33 0-51 26t-19 75m358 135q-54 0-88-36t-34-94v-8q0-40 16-71t41-48 59-17q51 0 80 34t29 97v19h-179q1 39 22 63t56 24q24 0 41-10t29-26l27 22q-33 51-99 51m-6-237q-27 0-46 20t-23 55h132v-3q-2-34-18-53t-45-19m428-126v358h-45v-301l-91 33v-41l129-49h7m366 321v37h-233v-33l123-137q27-31 38-50t10-40q0-28-17-46t-45-18q-34 0-52 20t-19 53h-45q0-49 32-79t84-31q50 0 79 26t28 70q0 52-67 125l-95 103h179m263-226q0 27-14 47t-38 33q28 12 44 35t16 52q0 46-31 73t-82 28q-51 0-82-28t-31-73q0-29 16-52t44-35q-24-12-38-33t-13-47q0-45 28-71t76-27q47 0 76 27t29 71m-37 166q0-30-19-49t-49-19-49 19-19 49 18 47 50 18q32 0 50-18t18-47m-68-227q-26 0-43 17t-16 45q0 27 16 44t43 16 44-16 16-44-17-45-43-17" />
</svg>