<svg id="fnt-Libre Caslon Text" viewBox="0 0 4192 1000" xmlns="http://www.w3.org/2000/svg"><path id="libre-caslon-text" class="f" d="M120 303v344h144q14-22 22-44t20-56h13l-18 120h-276v-12l42-9v-343l-42-10v-11h142v11l-47 10m253 6q0-14 9-23t23-9 24 9 9 23q0 14-9 23t-24 9-23-9-9-23m94 348v10h-123v-10l38-8v-208l-37-13v-7l80-24h4v252l38 8m157 15q-38 0-69-23h-2l-23 17h-8v-370l-37-13v-7l80-24h5v179q31-34 76-34 32 0 57 16t39 44 14 66q0 42-17 76t-48 53-67 20m0-17q24 0 41-15t28-41 10-62q0-53-21-83t-57-30q-17 0-31 7t-24 19v142q0 28 15 45t39 18m323-259q13 0 22 9t10 23q0 12-9 20t-20 8q-12 0-19-9-5-6-8-8t-8-2q-6 0-10 3t-10 10q-8 11-11 15t-3 9v175l50 8v10h-136v-10l38-8v-208l-37-14v-6l78-25h5v55q17-27 35-41t33-14m289 117h-182q-1 3-1 11 0 55 22 83t65 28q24 0 45-9t34-24l6-8 9 5-3 7q-13 31-42 48t-66 18q-35 0-63-17t-42-47-15-70q0-41 17-74t47-50 70-17q49 0 75 28t27 85l-3 3m-104-101q-33 0-53 23t-24 64l130-5q2-6 2-20 0-62-55-62m292 65q0-58 23-104t65-71 95-25q29 0 57 8t50 22h2l25-25h9v115h-15q-8-25-21-45-17-28-41-41t-58-12q-62 0-95 45t-33 129 33 130 96 46q30 0 54-12t40-35q19-26 26-66h14v131h-12l-23-33q-27 20-53 29t-57 9q-53 0-95-25t-64-69-22-101m443 195q-26 0-43-17t-17-44q0-22 13-38t43-28 81-23v-49q0-31-9-44t-31-13q-21 0-34 10t-12 28q0 4 0 8t1 9q0 13-8 21t-18 8q-10 0-17-6t-6-18q0-16 14-34t40-30q30-15 63-15 22 0 37 7t21 19q4 9 5 21t2 45v114q0 25 3 33t15 9q7 0 13-3t12-11l8 7q-11 18-24 26t-28 8q-20 0-31-11t-13-34l-2-1q-14 21-35 33t-43 13m22-30q16 0 31-9t24-24v-72q-36 7-56 15t-28 19-8 29q0 20 9 31t28 11m278-245q17 0 33 2t26 6v70h-10q-8-63-59-63-20 0-32 11t-11 29q0 14 7 24t18 16 29 15q23 11 36 20t24 24 10 40q0 37-25 59t-67 22q-16 0-35-3t-34-8l-3-81h12q4 38 20 57t44 20q23 0 36-13t14-33q0-16-8-27t-18-17-31-17q-23-11-36-20t-23-23-10-37q0-35 24-54t69-19m226 260v10h-116v-10l35-7v-354l-35-13v-7l77-24h4v398l35 7m168-260q37 0 67 17t48 50 17 70-17 71-48 49-67 18-67-18-47-49-17-71 17-70 47-50 67-17m-78 137q0 54 20 85t58 30q37 0 58-31t21-84q0-54-21-84t-58-31-58 31-20 84m490 116l37 7v10h-122v-10l37-7v-147q0-22-1-35t-5-21q-9-23-39-23-18 0-35 8t-29 23v194l38 8v10h-123v-10l38-8v-207l-37-14v-7l77-24h5v42q22-20 46-31t48-11q20 0 36 8t22 22q4 8 5 21t2 50v152m278 5l55-9v-344h-100q-27 35-46 90h-12l18-110h331l19 110h-12q-19-55-46-90h-99v344l54 9v12h-162v-12m476-142h-182q-1 3-1 11 0 55 22 83t65 28q24 0 45-9t34-24l6-8 9 5-3 7q-13 31-42 48t-66 18q-35 0-63-17t-42-47-15-70q0-41 17-74t47-50 70-17q49 0 75 28t27 85l-3 3m-104-101q-33 0-53 23t-24 64l130-5q2-6 2-20 0-62-55-62m353 223q7 11 16 15t27 7v10h-124v-10q18-2 24-4t5-7q0-4-8-16l-48-75-51 66q-9 11-9 18 0 14 33 18v10h-111v-10q25-4 39-12t27-24l61-83-68-105q-7-10-16-14t-31-7v-10h126v10q-15 1-21 3t-6 7q0 5 8 17l39 60 40-51q6-8 7-11t2-8q0-12-29-17v-10h103v10q-24 5-36 11t-23 23l-54 69 78 120m147 37q-24 0-39-14-9-9-13-22t-3-35v-182h-33l-1-8 72-75 9 1v65h72l-4 17h-68v177q0 18 1 26t4 12q8 14 25 14 10 0 20-5t18-15l8 6q-11 18-30 28t-38 10" />
</svg>