<svg id="fnt-Libre Bodoni" viewBox="0 0 2997 1000" xmlns="http://www.w3.org/2000/svg"><path id="libre-bodoni" class="f" d="M315 667h-308v-13h211q25 0 42-14t27-39 10-52h18v118m-182-8h-67v-369h67v369m60-357h-186v-12h186v12m250 357h-55v-205h55v205m40 8h-134v-13h134v13m-40-208h-99v-13h99v13m-28-91q-14 0-24-10t-9-23 9-24 24-9 23 9 10 24-10 23-23 10m246 305q-23 0-40-10t-26-25h-12l10-76q0 48 18 71t45 23q14 0 22-8t12-30 4-63q0-42-4-64t-12-30-23-8q-27 0-45 22t-17 72l-10-76h12q8-15 26-25t41-10q25 0 47 14t35 42 14 62-14 62-36 42-47 15m-68-6h-95v-13h95v13m0-8h-55v-361h55v361m0-357h-95v-12h95v12m342 365h-140v-13h40v-200h-40v-12h95v39h2q12-27 28-36t31-9q16 0 25 9t9 26q0 16-9 23t-21 7q-9 0-17-5t-8-15q0-3 1-5t1-5-2-4-6-2q-7 0-15 10t-14 27-5 39v113h45v13m195 6q-24 0-45-10t-37-27-25-38-9-44q0-30 14-57t40-44 60-17q27 0 48 12t35 34 12 51v3h-163v-13h105v-28q0-46-40-46-16 0-27 10t-15 33-4 62q0 41 5 63t16 32 32 9q26 0 46-14t33-47h14q-10 35-36 55t-59 21m409-6h-193v-13h173q23 0 40-7t26-27 9-58q0-34-9-53t-28-26-53-7l-15-15q52 0 93 11t64 34 24 59q0 30-17 53t-47 36-67 13m-71-8h-67v-369h67v369m51-183h-67v-15h67q23 0 37-7t21-23 7-48q0-34-7-52t-22-23-36-6h-173v-12h193q33 0 59 11t42 33 16 47q0 28-18 49t-50 34-69 12m322 197q-25 0-46-10t-38-27-25-38-9-44 9-44 25-38 38-26 46-10 45 10 38 26 25 38 9 44-9 44-25 38-38 27-45 10m0-15q19 0 30-9t17-31 5-64-5-64-17-31-30-8-31 8-17 31-5 64 5 64 17 31 31 9m261 15q-25 0-47-15t-36-42-14-62 14-62 36-42 47-14q23 0 41 10t26 25h12l-10 76q0-49-18-72t-45-22q-14 0-22 8t-13 30-4 64q0 41 4 63t12 30 23 8q27 0 45-23t18-71l10 76h-12q-8 15-26 25t-41 10m158-6h-89v-13h89v13m-34-8h-55v-361h55v361m0-357h-105v-12h105v12m180 371q-25 0-46-10t-38-27-25-38-9-44 9-44 25-38 38-26 46-10 45 10 38 26 25 38 9 44-9 44-25 38-38 27-45 10m0-15q19 0 30-9t17-31 5-64-5-64-17-31-30-8-31 8-17 31-5 64 5 64 17 31 31 9m394 1h-55v-169q0-37-30-37-16 0-30 13t-22 37-8 53l-10-73h12q10-20 28-34t48-13q29 0 48 15t19 39v169m-113 8h-127v-13h127v13m-32-8h-55v-209h55v209m179 8h-127v-13h127v13m-179-213h-95v-12h95v12m301 205h-55v-205h55v205m40 8h-134v-13h134v13m-40-208h-99v-13h99v13m-28-91q-14 0-24-10t-9-23 9-24 24-9 23 9 10 24-10 23-23 10" />
</svg>