<svg id="fnt-Licorice" viewBox="0 0 1112 1000" xmlns="http://www.w3.org/2000/svg"><path id="licorice" class="f" d="M11 725q-16 0-16-15 0-5 7-12t13-14 10-8q3-7 4-12t2-12q4-22 13-45t18-43q-13-6-21-17t-7-25q0-4 1-12t5-8q5 0 5 7t0 11q0 10 6 19t16 13q26-57 62-109t80-96q16-18 35-29t43-12q17 0 27 11t11 29q0 6-2 12-10 42-30 77t-51 66q-18 17-42 33t-50 28-52 11q-6 0-11-1t-11-2q-10 23-18 47t-14 49q39-24 84-34t90-11q12 0 27 4t27 14 11 24q0 1-1 7t-2 6q-4-5-5-9-7-18-22-23t-33-5q-40 0-83 8t-78 28q-4 2-8 4t-7 3q-2 9-5 19t-10 17-18 7m86-165q23 0 48-12t47-28 39-31q29-28 48-62t29-73q0-1 0-3t0-3q0-8-4-19t-14-10q-17 0-38 14t-41 35-42 49-37 54-31 50-19 37q2 1 7 2t8 0m238-90q-4 0-7-2t-3-5q0-4 4-12t9-17 11-14 12-6q4 0 4 5 0 6-7 9-4 3-7 10t-4 14-3 12q-2 6-9 6m-10 192q-12 0-17-10t-7-23-2-20q0-5 1-19t4-30 5-33 8-26 10-11q4 0 7 3t3 6q0 6-4 19t-8 30-9 33-3 30q0 4 0 12t4 16 8 7q7 0 16-11t18-27 18-33 13-27 8-11q2 0 3 2t1 4q0 6-6 20t-14 31-20 32-20 26-17 10m100-2q-15 0-24-10t-12-25-3-25q0-9 2-27t8-40 13-43 17-34 22-13q9 0 13 7t5 16 1 19 0 15q0 3-3 5t-6 3q-5 0-6-4t-2-10 1-11 0-7-1-8-4-6q-8 3-15 16t-13 30-9 36-6 34-2 23q0 7 1 17t7 20 15 8q11 0 21-10t20-24 18-29 13-25 8-9q2 0 3 2t0 4l-1 2q-3 11-11 28t-19 34-25 29-26 12m121 15q-9 0-16-7t-9-18-5-20-1-18q0-7 1-24t6-37 10-40 14-32 20-14q1-5 4-8t8-3q10 0 18 8t12 21 8 25 3 19q0 23-5 46l4 0q15 0 23-4t12-9 8-4 3 3q0 6-7 11t-15 8-17 6-13 0q-3 11-9 26t-14 30-19 25-24 10m55-112q3-18 3-36 0-4-2-14t-5-20-8-19-9-8q-3 0-4 3t-2 9 0 6q0 20 6 41t21 38m-53 99q7 0 15-11t15-25 13-28 6-20q-19-13-28-35t-9-45q0-10 1-19-10 18-17 43t-11 50-3 46q0 5 1 16t6 19 11 9m129 3q-4 0-6-2t-2-6q0-19 2-39t2-38q0-12-1-32t-4-38-9-28q0-1-1-2t0-2q0-3 3-4t5-1q7 0 11 8t6 20 2 26 1 24 0 15q0 5 0 9t1 10q2-7 7-22t12-32 15-34 16-27 16-10 11 9 5 21 1 16q0 4 0 12t-3 15-6 7q-4 0-4-9 0-4 1-7t0-6q0-2 0-12t-3-17-4-9-8 6-8 13-8 15-4 11q-7 18-16 42t-14 47-5 44q-4 7-11 7m140-195q-4 0-7-2t-3-5q0-4 4-12t9-17 11-14 12-6q4 0 4 5 0 6-7 9-4 3-7 10t-4 14-3 12q-2 6-9 6m-10 192q-12 0-17-10t-7-23-2-20q0-5 1-19t4-30 5-33 8-26 10-11q4 0 7 3t3 6q0 6-4 19t-8 30-9 33-3 30q0 4 0 12t4 16 8 7q7 0 16-11t18-27 18-33 13-27 8-11q2 0 3 2t1 4q0 6-6 20t-14 31-20 32-20 26-17 10m100-2q-15 0-24-10t-12-25-3-25q0-9 2-27t8-40 13-43 17-34 22-13q9 0 13 7t5 16 1 19 0 15q0 3-3 5t-6 3q-5 0-6-4t-2-10 1-11 0-7-1-8-4-6q-8 3-15 16t-13 30-9 36-6 34-2 23q0 7 1 17t7 20 15 8q11 0 21-10t20-24 18-29 13-25 8-9q2 0 3 2t0 4l-1 2q-3 11-11 28t-19 34-25 29-26 12m119 7q-14 0-21-12t-10-30-2-32q0-7 0-13t1-9h-2q-6 0-6-5 1-2 4-4t5-2q3-22 10-45t19-42v-3q0-5 6-6 2-2 5-6t6-3q4 0 6 3t1 7q9 2 17 8t8 17q0 14-11 29t-26 28-26 18q-2 12-2 24t0 25q0 6 0 15t5 16 13 7q9 0 18-9t18-22 17-27 13-28 8-20q1-2 2-5t5-2q4 0 4 5 0 8-6 23t-15 32-20 32-23 26-21 10m-14-117q10-6 19-15t16-21 7-23q0-6-6-9t-11-3q-9 16-16 34t-9 37" />
</svg>