<svg id="fnt-Life Savers" viewBox="0 0 2281 1000" xmlns="http://www.w3.org/2000/svg"><path id="life-savers" class="f" d="M27 653q8 0 16-1t15-1 10-5 5-8q0-6 0-26t0-46 0-55 1-52q0-34-1-59t-1-44-1-36 0-30q0-7-5-10t-11-6-13-2-12-1q-6 0-12-1t-7-6q0-6 7-7t12-1h91q16 0 20 2t5 6q0 5-6 6t-12 1q-3 0-8 0t-11 2-10 3-5 8v365h121q8 0 13-4t7-12q0-3 1-16t2-27 2-29 1-19q0-11 2-18t7-7q3 0 6 2t4 8q0 9-1 25t-3 34-2 35-2 31q-1 9-5 12t-12 3h-214q-8 0-10-2t-2-4q0-8 18-8m245 14 85-201v187h31q11 0 18 1t6 6q0 5-5 6t-10 1h-79q-12 0-24-1t-11-5q0-5 32-7 11-1 15-3t5-8q2-19 2-42t0-41q0-23 0-44t-2-44q0-4-2-6t-5-2q-3 0-9 0t-12 1-13 1-8 0q-4 0-9-1t-5-4q0-5 7-7t25-3q11-1 24-2t20 0q6 0 8 4t1 13m-35-89q0-3 1-6t4-7 6-6 10-2q7 0 12 5t5 14q0 13-7 18t-14 5-12-6-5-15m142 267q3-42 3-86 0-24-1-48t0-48q0-7-2-10t-5-3h-33q-9 0-12-3t-3-5q0-4 4-5t12-1h32q4 0 5-4t1-10q1-13 2-30t4-36 10-37 17-32 26-23 39-9q19 0 31 6t20 14 10 17 3 17q0 11-6 18t-14 7q-7 0-12-4t-4-13q0-8 7-14 4-3 6-5t2-5q0-8-9-17t-31-8q-20 0-34 8t-22 21-14 30-7 35-2 34 0 30q0 6 1 8t3 2h39q5 0 9 2t4 6-4 6-10 1q-3 0-7 0t-10 0-10-1-6 0q-6 0-8 2t-1 4v197h54q15 0 15 7 0 4-4 5t-17 2q-5 0-12 0t-15 0-15-1-13 0q-7 0-15 0t-15 1-14 0-8 1q-7 0-12-1t-5-5 5-5 11-1q20-2 28-4t9-7m131-122l141-2q9 0 9-9 0-10-4-22t-13-21-22-17-31-7q-19 0-33 7t-24 18-15 25-8 28m-2 15q-1 6-1 11t0 10q0 18 4 35t14 32 25 22 39 9q20 0 36-7t25-18 16-27 5-31q0-9 9-9t8 9q0 20-7 38t-21 31-31 22-39 8q-27 0-47-9t-32-25-20-38-7-46q0-28 8-51t23-40 34-26 42-9q24 0 41 10t28 23 16 29 5 25q0 8-4 14t-13 7q-13 1-32 1t-39 0q-6 0-17 0t-25 0-24 0-19 0m348 84q0 12 1 21 0 4 0 7t0 7q0 3 1 6 0 13-10 13-5 0-7-4t-3-8q0-3 0-9t1-13 1-15 0-13q0-8 0-14t0-11-1-10 0-14q0-7 2-12t8-5q7 0 9 9t2 21q0 15 7 30t21 27 34 18 47 8q18 0 35-5t30-13 21-20 9-28-13-27-33-22-41-18-39-17q-16-8-33-17t-30-25-23-36-9-52q0-28 12-52t30-42 42-28 45-10q37 0 62 20t41 63q-2-31-3-47t-1-15q0-13 9-13 5 0 8 4t2 8q0 17-1 36t-1 37q0 16 1 27t0 28q0 7-1 12t-8 5q-7 0-9-10t-2-20q-2-27-9-49t-20-38-29-24-37-9q-23 0-44 10t-35 28-23 38-8 45q0 25 6 42t18 29 26 21 30 15 38 16 47 22 39 28 16 37q0 22-11 37t-29 25-37 14-37 5q-16 0-33-3t-32-10-28-16-21-25m421-48v-16q0-6 0-13t0-9q0-39-14-61t-47-21q-11 0-21 2t-19 7-13 11-5 15q0 6 3 7t7 3 8 3 4 10q0 8-5 13t-13 5q-11 0-18-10t-6-22q0-13 6-24t17-19 26-12 33-4q40 0 58 23t19 72q0 6 0 15t-1 19 0 20 0 19q0 15 1 25t3 16 7 8 11 2q7 0 11-2t6-6 3-10 1-10q1-6 5-6 4 0 5 3t2 8q0 22-10 30t-24 8q-13 0-24-7t-15-22q-16 14-36 22t-42 7q-35 0-56-16t-21-42q0-14 6-26t17-20 27-13 34-5 37 6 33 17m-133 41q0 20 16 31t42 12q15 0 29-4t23-11 17-15 6-19q0-9-6-17t-14-14-21-9-26-3-26 4-21 9-14 16-5 20m389-132q-5 8-11 23t-13 34-14 39-13 37-11 30-5 16q-5 13-12 13-7 0-11-12-8-24-14-43t-11-34-9-28-8-25-10-28-12-32q-2-7-7-11t-10-6-12-3-14-1q-14 0-14-6 0-5 13-5 2 0 14 0t26 0 25 0 13 0q17 0 17 6 0 4-6 5t-12 2q-14 0-14 6 0 2 0 4t2 7 5 16 10 30 16 48 24 72q17-47 27-77t17-47 8-26 3-10q0-6-6-7t-23-1q-11 0-11-6 0-5 10-6t38-1q20 0 32 0t20 1 10 3 2 3q0 5-8 5t-19 2q-10 1-14 4t-8 9m87 40l141-2q9 0 9-9 0-10-4-22t-13-21-22-17-31-7q-19 0-33 7t-24 18-15 25-8 28m-2 15q-1 6-1 11t0 10q0 18 4 35t14 32 25 22 39 9q20 0 36-7t25-18 16-27 5-31q0-9 9-9t8 9q0 20-7 38t-21 31-31 22-39 8q-27 0-47-9t-32-25-20-38-7-46q0-28 8-51t23-40 34-26 42-9q24 0 41 10t28 23 16 29 5 25q0 8-4 14t-13 7q-13 1-32 1t-39 0q-6 0-17 0t-25 0-24 0-19 0m380-45q0 6-1 12t-4 12-7 9-12 4q-9 0-13-5t-4-11q0-7 3-10t7-6 7-6 3-9q0-8-6-13t-17-4q-9 0-19 4t-20 14-15 24-6 38v106h22q26 0 37 3t10 6q0 3-3 5t-7 2q-7 0-16-1t-19 0-18-1-16 0q-13 0-23 1t-23 1q-4 0-8-2t-3-5q0-3 8-5t21-4q9 0 11-2t3-11q2-8 2-20t2-33 1-50 0-71q0-7-7-7h-50q-5 0-7-3t-3-4q0-2 7-4t17-3 22-1 21-1q13 0 17 3t5 16v25q12-18 27-27t33-8q19 0 30 10t11 32m48 156q0 4 0 9t0 7q0 8-1 13t-7 5q-4 0-6-3t-2-9q0-4 0-14t1-16q0-10-1-22t-1-21q0-16 7-16 7 0 9 18 1 17 4 27t12 18q12 10 26 14t30 5q9 0 20-3t19-7 14-14 6-21q0-12-5-19t-15-13-23-9-32-7q-32-7-49-22t-18-43q0-18 7-30t18-21 25-12 30-4q14 0 25 3t18 8 12 11 7 11q0-7-1-14t0-11q0-10 2-13t6-4q5 0 7 4t2 9q0 30-1 50t0 25q0 5-2 9t-6 4-6-4-2-8-1-10-3-12q-2-9-7-17t-11-13-17-9-24-3q-13 0-24 2t-19 9-12 16-5 24q0 13 4 21t13 14 22 9 32 8q16 4 29 8t23 10 14 16 6 24q0 22-10 34t-24 19-26 8-20 2q-10 0-21-2t-20-6-17-10-11-12" />
</svg>