<svg id="fnt-Lilita One" viewBox="0 0 2021 1000" xmlns="http://www.w3.org/2000/svg"><path id="lilita-one" class="f" d="M20 637v-311q0-10 51-10t51 10v245h77q9 0 12 24 2 11 2 23t-2 25q-4 24-13 24h-154q-11 0-17-9t-7-21m312-219v246q0 4-46 4t-46-4v-245q0-4 46-4t46 3m0-103v74q0 3-46 3t-46-3v-72q0-5 46-5t46 3m136 5v343q0 4-51 4-40 0-40-4v-340q0-8 48-8 43 2 43 5m136 98v246q0 4-46 4t-45-4v-245q0-4 45-4t46 3m0-103v74q0 3-46 3t-45-3v-72q0-5 45-5t46 3m160 172v177q0 6-42 6-50-2-50-7v-177h-25q-10 0-10-34 0-9 1-22t8-13h26v-44q0-10 42-10t43 8v32l0 14h43q8 0 8 35t-8 35h-36m101-2q-14-25-14-41t8-20q29-12 78-12t71 23 20 69v79h17q9 0 13 10t5 27-9 35-23 17q-27 0-44-15-7-6-11-14-23 29-72 29-36 0-61-26t-25-62q0-81 97-81h28v-5q0-13-5-17t-19-4q-19 0-54 8m40 92q0 11 6 17t15 6 17-8v-38h-14q-24 0-24 23m432 95q-70 0-115-46t-44-135 45-133 115-46 115 45 43 135-44 135-115 45m0-264q-24 0-40 22t-16 62 15 61 41 21 41-21 16-62-17-61-40-22m301 95v161q0 3-36 3-50-1-50-5v-162h-13q-13 0-17-22-1-7-1-13 0-16 6-31 9-22 28-22t34 9 20 18q32-27 75-27t63 23 20 77v150q0 6-43 6t-43-6v-144q0-25-17-25-5 0-14 4t-12 6m360 150q-31 19-81 19t-83-34-34-94 32-96 83-36 77 25 28 62q0 81-93 81h-35q0 15 8 21t25 6q35 0 66-16 1-1 5 7 12 21 12 36t-10 19m-62-144q0-21-21-21-9 0-16 5t-7 17v16h27q17 0 17-17" />
</svg>