<svg id="fnt-Limelight" viewBox="0 0 2576 1000" xmlns="http://www.w3.org/2000/svg"><path id="limelight" class="f" d="M252 644q13 0 13 11 0 5-5 8t-19 4h-198v-346h125v330h45q16 0 27-4t12-3m110-281q-25 0-39-11t-14-30q0-15 15-26 17-12 36-12t28 4 18 10q14 11 14 27t-16 27-42 11m-51 304v-261h105v261h-105m468-194q0 6 0 12v182h-105v-237q-2-1-6-1h-8q-19 0-44 26-8 8-15 18v194h-105v-261h105v39q41-43 92-43 66 0 81 48 21-24 47-36t51-12q43 0 64 20t21 63v182h-104v-237q-3-1-11-1t-17 3-15 9q-17 13-31 32m485 134q9 0 9 9 0 7-8 16-39 39-106 39-60 0-102-36-42-38-42-96 0-59 38-97 41-40 109-40 54 0 91 32 39 36 39 93 0 9 0 18h-161v105q16 3 37 3 44 0 75-29 7-6 9-10 6-7 12-7m-66-80v-103q-15-5-35-5t-32 3v105h67m156 140v-346h105v346h-105m237-304q-26 0-40-11t-14-30q0-15 16-26 16-12 35-12t29 4 17 10q14 11 14 27t-16 27-41 11m-52 304v-261h105v261h-105m238-80q-21 7-21 14 0 8 12 11 25 6 68 7t65 7 35 13q23 16 23 41 0 32-31 52-35 21-98 21-66 0-109-19-15-8-15-17 0-4 3-7t6-2q4 0 10 3 12 7 23 12t33 9 44 4 34-2 23-4q17-5 17-11 0-6-3-9t-9-5-16-3q-20-4-54-6t-55-6-32-13q-25-15-25-40 0-37 50-60-23-12-36-33t-14-44 9-41 25-30q34-27 88-27 24 0 48 7 34-34 64-34 12 0 18 5t6 10-4 9-8 3q-6 0-11-1-7-3-14-3-13 0-33 18 40 20 52 57 4 12 4 29t-10 36-28 30q-35 26-83 26-26 1-51-7m52-168v158q39-1 68-20 33-21 33-58t-33-59q-30-20-68-21m386-17q86 0 86 83v182h-105v-238q-4-3-12-3t-15 4-16 9q-18 14-32 34v194h-105v-346h105v126q41-45 94-45m266 269q-96 0-96-87l0-160-28 1q-13 0-13-10t14-10l24 1h3v-38l105-47v85h33l23-1q14 0 14 10 0 5-4 7t-9 3l-30-1h-27v229q29 0 48-16 9-7 12-18t7-14 7-3 8 4 2 8-2 10-7 11q-11 14-26 22-26 14-58 14" />
</svg>