<svg id="fnt-Linefont" viewBox="0 0 401 1000" xmlns="http://www.w3.org/2000/svg"><path id="linefont" class="f" d="M0 297q0 6 4 12t9 9 12 4 12-4 10-9 3-12-3-13-10-9-12-3-12 3-9 9-4 13m50 290q0 6 4 12t9 9 12 4 12-4 10-9 3-12-3-13-10-9-12-3-12 3-9 9-4 13m50-50q0 6 4 12t9 9 12 4 12-4 10-9 3-12-3-13-10-9-12-3-12 3-9 9-4 13m50 90q0 6 4 12t9 9 12 4 12-4 10-9 3-12-3-13-10-9-12-3-12 3-9 9-4 13m50-10q0 6 4 12t9 9 12 4 12-4 10-9 3-12-3-13-10-9-12-3-12 3-9 9-4 13m50-90q0 6 4 12t9 9 12 4 12-4 10-9 3-12-3-13-10-9-12-3-12 3-9 9-4 13m50 10q0 6 4 12t9 9 12 4 12-4 10-9 3-12-3-13-10-9-12-3-12 3-9 9-4 13m50-60q0 6 4 12t9 9 12 4 12-4 10-9 3-12-3-13-10-9-12-3-12 3-9 9-4 13" />
</svg>