<svg id="fnt-Lisu Bosa" viewBox="0 0 2024 1000" xmlns="http://www.w3.org/2000/svg"><path id="lisu-bosa" class="f" d="M86 667h-66v-19l61-7h5v26m25 0h-50q1-36 1-71t0-70v-24q0-36 0-72t-1-70h50q-1 35-2 71t0 71v31q0 30 0 64t2 70m139 0h-164v-23h140l-17 13 16-77h29l-4 87m-169-281l-61-7v-19h132v19l-61 7h-10m316 281h-108v-17l49-9h13l46 9v17m-31 0h-44q0-11 0-28t1-36 0-33v-21q0-19 0-32t-1-26l-36-4v-17l73-28 7 5-1 63v60q0 14 0 33t0 36 1 28m-22-274q-14 0-23-9t-9-21q0-14 9-22t23-8q13 0 22 8t10 22q0 13-10 21t-22 9m159 279q-20 0-36-4t-33-13l-2-51h26l12 55-23-10v-16q13 9 26 14t31 5q25 0 38-10t13-24q0-15-11-23t-32-17l-21-8q-26-9-41-24t-15-38q0-18 9-33t28-24 45-9q19 0 34 5t31 14l-2 47h-25l-10-48 18 8v13q-22-17-47-17-20 0-31 8t-11 22q0 15 10 23t32 16l16 5q34 13 48 29t15 39q0 27-24 47t-68 19m211 0q-28 0-45-18t-16-64l2-121 10 9-42-9v-17l70-7 5 5-2 64v72q0 30 9 41t26 12q36 0 68-35l8 19h-8q-18 26-41 38t-44 11m152-5l-67 3-6-53 1-141-32-7v-16l70-8 5 5-1 64v130l30 6v17m266 0h-66v-19l61-7h5v26m24 0h-49q1-35 1-71t0-72v-21q0-36 0-72t-1-71h49q0 35-1 70t0 73v15q0 40 0 77t1 72m37 0h-61v-22h51q43 0 64-16t21-46q0-32-21-48t-68-16h-47v-22h46q40 0 59-14t18-45-17-44-52-12h-54v-22h69q49 0 75 21t26 54q0 26-20 47t-68 27v-4q55 4 79 26t24 52q0 20-12 40t-40 31-72 13m-66-281l-61-7v-19h66v26h-5m336 286q-28 0-52-13t-40-38-15-63q0-38 15-64t40-39 52-13q27 0 52 13t39 39 16 64q0 38-16 63t-39 38-52 13m0-20q28 0 44-24t16-70q0-46-16-71t-44-24q-29 0-44 24t-15 71q0 94 59 94m219 20q-20 0-37-4t-33-13l-1-51h26l12 55-23-10v-16q12 9 26 14t30 5q26 0 38-10t13-24q0-15-10-23t-32-17l-22-8q-25-9-41-24t-15-38q0-18 10-33t27-24 45-9q19 0 35 5t31 14l-3 47h-25l-10-48 18 8v13q-21-17-47-17-20 0-31 8t-10 22q0 15 9 23t33 16l15 5q34 13 49 29t14 39q0 27-23 47t-68 19m189 0q-25 0-43-14t-18-43q0-13 6-25t23-23 49-22q14-5 34-10t37-9v17q-15 3-33 9t-28 9q-29 11-37 23t-7 24q0 18 10 26t25 8q8 0 15-2t18-10 29-21l6 24h-14q-20 20-35 30t-37 9m110 0q-19 0-31-13t-12-33v-107q0-33-10-45t-33-11q-8 0-18 2t-23 6l20-15-10 39q-6 24-25 24-20 0-23-19 6-26 31-42t61-16q37 0 54 18t18 63v98q0 14 4 20t12 6q10 0 17-10l10 10q-8 14-19 19t-23 6" />
</svg>