<svg id="fnt-Literata" viewBox="0 0 1921 1000" xmlns="http://www.w3.org/2000/svg"><path id="literata" class="f" d="M276 667h-245v-24l29-4q10-2 13-7t3-19v-245q0-13-4-18t-13-6l-28-4v-24h143v24l-33 5q-9 1-13 5t-3 18v272h57q17 0 28-4t21-12 16-24 15-40h26l-12 107m197 0h-135v-24l29-5q10-1 12-6t3-19v-138q0-18-3-24t-15-7l-24-4 4-24 79-4 6 2v201q0 9 2 15t14 8l28 5v24m-75-310q-14 0-24-10t-9-23 9-24 24-10q15 0 25 9t9 24-9 24-25 10m211 317q-22 0-37-8t-22-25-7-42v-155h-40v-25q18-2 29-11t18-29 9-49l24-3 6 3v83h78v31h-78v152q0 21 9 31t27 10q13 0 24-4t24-12l11 18q-16 17-36 26t-39 9m220 0q-37 0-64-16t-41-46-15-69q0-41 15-72t43-48 64-17q28 0 48 11t33 31 11 47q0 10-2 22t-5 26h-156q1 29 11 50t27 33 42 11q19 0 37-8t32-22l18 17q-17 23-44 36t-54 14m-69-158h115q1-5 1-11t0-12q0-30-13-46t-37-15q-19 0-33 10t-22 28-11 46m352 151h-139v-24l24-4q8-2 11-7t2-17v-141q0-18-3-24t-14-7l-24-4 3-24 68-5 6 3 5 45h2q14-25 33-39t41-13q24 0 38 13t14 35q0 13-4 21t-11 14-19 4q-14 0-22-6t-7-16q0-4 1-8t3-9 5-12q-11-5-23-2t-22 15-17 26-6 32v103q0 12 2 16t10 5l43 7v23m166 7q-31 0-51-19t-19-49q0-27 14-44t45-26 85-11v-35q0-20-6-33t-18-20-30-6q-14 0-27 4t-20 11q5 8 8 13t4 9 2 7q0 9-8 16t-19 6q-14 0-21-7t-8-19q0-17 13-32t35-24 48-9q31 0 52 10t31 30 10 50v121q0 11 6 17t17 5q5 0 11-1t12-3l5 19q-9 8-22 14t-24 6q-21 0-33-12t-14-33q-10 15-21 25t-26 15-31 5m19-34q16 0 28-7t19-19 8-27v-37q-32 0-54 6t-31 16-10 29q0 18 11 28t29 11m279 34q-22 0-37-8t-22-25-7-42v-155h-40v-25q18-2 29-11t18-29 9-49l24-3 6 3v83h78v31h-78v152q0 21 9 31t27 10q13 0 24-4t24-12l11 18q-16 17-36 26t-39 9m173 0q-31 0-51-19t-19-49q0-27 14-44t45-26 85-11v-35q0-20-6-33t-18-20-30-6q-14 0-27 4t-20 11q5 8 8 13t4 9 2 7q0 9-8 16t-19 6q-14 0-21-7t-8-19q0-17 13-32t35-24 48-9q31 0 52 10t31 30 10 50v121q0 11 6 17t17 5q5 0 11-1t12-3l5 19q-9 8-22 14t-24 6q-21 0-33-12t-14-33q-10 15-21 25t-26 15-31 5m19-34q16 0 28-7t19-19 8-27v-37q-32 0-54 6t-31 16-10 29q0 18 11 28t29 11" />
</svg>