<svg id="fnt-Lobster" viewBox="0 0 1343 1000" xmlns="http://www.w3.org/2000/svg"><path id="lobster" class="f" d="M280 792q-23 0-45-13t-55-39q-25-20-43-33t-38-20-42-9q-8 0-12 1l75-347q-34 14-52 41t-18 68q0 19 3 26t4 8q-27 0-41-11t-13-37q0-32 26-63t68-49 82-18q7 0 20 1l-77 359q14 3 28 10t36 18q33 18 56 27t48 9q22 0 42-8-4 37-18 58t-34 21m-17-123q-37 0-59-19t-21-60q0-34 14-76t45-72 78-30q64 0 64 80v1q1 0 5 0 17 0 38-9t39-21l5 14q-15 15-38 26t-51 15q-4 46-20 80t-43 52-56 19m20-45q12 0 24-14t21-38 13-52q-14-3-14-21 0-21 16-27-1-17-5-23t-14-6q-17 0-32 24t-25 57-10 59q0 24 6 32t20 9m193 46q-34 0-52-17t-18-47q0-15 3-29l54-250 74-10-24 112q14-8 23-11t18-3q59 0 59 86 0 34-14 73t-44 68-79 28m28-49q15 0 29-19t21-48 8-55q0-20-7-34t-19-14q-8 0-17 2t-13 7l-27 127q-2 6-2 11 0 23 27 23m184 49q-24 0-40-10t-25-24-8-30q0-17 8-29t19-18q19-35 34-71t27-77l74-10q3 64 9 139 2 30 2 43 0 12-2 19 24-13 36-25h21q-32 37-76 63-15 15-36 22t-43 8m-16-40q19 0 31-11t13-35q0-15-3-42-5-57-7-77-12 40-40 95 11 6 11 17 0 10-6 17t-16 8q-10 0-13-7 0 18 7 27t23 8m200 40q-24 0-39-15t-15-45q0-13 4-33l30-140h-16l4-20h16l15-69 74-10-17 79h30l-4 20h-30l-32 150q-2 7-2 16 0 10 5 14t16 4q14 0 27-12t18-32h21q-19 54-48 73t-57 20m155 0q-37 0-57-20t-21-60q0-34 14-76t44-72 77-30q55 0 55 48 0 28-16 52t-42 37-57 17q-1 15-1 20 0 24 9 33t27 9q27 0 46-13t43-38h17q-56 93-138 93m1-128q19-1 35-13t27-31 11-39-13-20q-18 0-35 31t-25 72m101 125l53-250h72l-7 31q17-15 31-23t30-8 25 11 9 26q0 15-9 26t-27 11q-11 0-15-6t-5-15q-2-6-3-9t-6-3q-10 0-18 4t-18 15l-40 190h-72" />
</svg>