<svg id="fnt-Londrina Sketch" viewBox="0 0 3053 1000" xmlns="http://www.w3.org/2000/svg"><path id="londrina-sketch" class="f" d="M198 665q6-1 9-1t3 0q4 0 7 1t6 1q4 0 7-4-2-11-2-23v-10q0-2 0-5t1-5q0-1-1-2t0-1q0-6 1-10t2-10q0-8-7-10t-14-2q-2 0-6 1l13 4q0 1 0 1t-1 1h-10q-4 0-9-1t-7-3q-4 0-6 2-10-2-20-3t-22 0h-10q-10 0-14-1t-4 0-1-1-3 0-4 4q-2-1-3-1t-2 0q1-1 0-2t2-2q-1-1-1-2 0-1 1-3t0-2q0-2-3-3 0-19 1-40t1-40q0-17-1-34t-1-34v-73q0-9 0-18t1-18q-8-3-15-4t-15 0q-8 0-16 0t-17 2q-3-1-5-1-4 0-10 1t-6 3q0 1 2 1t3 2q1 13 1 19t1 9 0 6 1 8 0 19 1 34 0 58 1 86q-1 20-2 29t0 13-1 9-1 15l2-1-2 4v-3q-1 3-1 3t1 4q0 1 0 1h0 0q0 13-3 24l-1-1v1q2 3 7 5t6 2q0-1 11-1 6 0 14 0t14 0q4 0 6 0t5 0q0 0 0 1 0 1 1 1 1 0 3-1 3 1 4 1t4 1v0l1 0h20l1-1q0-1-1-1h-1q3-1 9-1t10 0h10v0h4q2 0 4 0t5 0q5 0 9 2v-2q4 0 6 1t5 1q2-2 4-2 3 0 5 2t5 2 4-2 3-2q0 0 4 1l1 0q-3 0-4 1m20-6q0 0-5 0h-6q-5 0-8-2t-8-2q-6 0-9 2 0-1-12-1t-29 0-41-1-44-2q-5 3-10 2t-10 2q-5 0-4-3t-1-6v-2q0-2 0-4t-1-2q0-2 3-4-1-17-2-34t-1-33q0-36 2-71t1-71q0-11 0-23t-1-23q0-14 1-28t1-26q8-1 17-2t18 0q2 0 6 0t9 0 6 1 3 3l0 1-1-1q-1 1-1 4v5 50q0 13-1 16t-1 6q0 2 1 3t1 3-2 3q1 3 1 8v6 9 6q0 5 1 7 0 10-1 21t-2 20l-1 4q-1-3-1-3-1 12-1 24-1 10-1 21t0 19q0 5 1 11t2 11q3 2 3 6 0 2-1 4t0 4q0 5 5 6 2-2 2-7-1 0-1-1t-1-2q32 6 62 6t64 1q0 1 0 7 0 5-1 9t0 9q0 8 3 13 0 6-1 11t-3 10m222-133q-1-11-1-23t-1-21-4-19-3-18v-3q0-2-1-3-4 0-5-4t-3-6q-4-5-15-9t-24-7-28-5-27-2q-8 0-16 0t-15 2-16 3-17 8-14 15-5 25q0 4 0 7t1 5q0 22-4 43t-4 45q0 16 3 31t7 29 11 24 15 16q6 4 16 6t20 3 21 1 16 1q4 0 10 0t11 0q10 0 19-1t16-3q8-3 13-9t9-14 6-16 5-16q4-11 5-22t1-22q0-10 0-20t-2-21m-53 129q-30 8-51 8-7 0-18-3t-22-6-19-8-11-8q-4-7-7-10t-6-10-3-19-2-41v-60q0-7 1-13t1-11 4-13 5-15q3-5 5-13t5-9q5-4 15-5t23-2 27-1 25-1q3 0 4-1t5 0q6 0 11 4t13 6q4 1 7 1t6 1q8 3 13 10t8 17 4 21 2 23q0 45-1 72t-5 45-13 25-26 16m-6-140q-1-6-5-14t-9-13-11-11-12-4q-10 0-18 7t-16 12v3q0 6-2 11t-3 10q0 4 1 8t1 9q-1 9-3 19t-1 21q0 9 2 15t8 10 15 6 24 2q16 0 21-7t7-18q0-3 0-11t1-17 1-17 0-9q0-3 0-6t-1-6m-68 65q-3-5-4-12t0-14q0-13 0-25t4-22 10-16 19-5q9 1 15 3t9 8 5 16 2 24q0 9-2 14t-2 10q-2 8-4 14t-4 11-7 8-12 3q-9 0-18-5t-11-12m220 96q3 0 4-1-1-3-1-6t0-7q0-16 2-35t2-38q0-5 0-10t0-11q0-13 1-25t4-22 11-14 19-5q9 0 12 8t5 22 1 29 1 30q1 17 3 32t2 29q0 15-2 23 1 0 3 0h4q10 0 19-2t19-2q5 0 9 1t10 3q2-9 4-20t2-24v-9q1-21 3-46t2-47q0-17-1-36t-6-36-15-28-27-11q-5 0-10 1t-10 0q-4 0-7-1t-6 0q-6 0-11 3t-10 5q-5 3-11 4t-9 4q-2 2-4 4t-5 2v-1q1-4 1-12t4-13q-3-1-5-1t-5 0q-9 0-20 2t-20 2q-6 0-11-1t-9-2q-4 3-5 5t-1 6q0 2 0 4t1 5q0 10-1 21t-2 24q-1 28-2 57t-2 60q0 15 1 30t2 30q0 2-2 3t-1 2q3 1 3 3t1 5 1 5 5 3q2 0 2-3t4-3l54 5m131-69q-1 16-3 31t-3 32q-8-4-24-4-8 0-15 1t-14 1q0-2 1-2t2-2v-19q0-4 0-9t-1-8q-1-12-1-26t-1-30-2-29-6-25-10-18-16-7q-3 0-8 2t-8 5-8 7-5 8-2 9-2 12q-4 17-6 33t-2 34q0 17 2 33t1 22q0 4 0 7t-5 3q-14 0-27-4t-28-4q0-18 2-35t2-35q0-7 0-15t0-16q0-7 0-14t0-13q0-15-1-31t-1-30q0-10 1-20t5-19q-2 0-2 1t-1 3q0-1 0-2 0-1-1-1 0-3 1-7t6-3q13 0 25 1t26 1q0 1 0 2t1 3q0 5-2 11t-1 10q0 1 1 1 1 0 2-1t3-1q0 1 0 1t1 0 2 0q0 0 0-1 0-1 0-1t-1-2q3-3 8-7t13-6 18-5 26-2q17 0 28 12t18 33 10 51 2 66v9q0 3 0 5t0 4m234-299q-2 0-2 0t-2 2-2 2-5 1q-13 0-25-3t-26-2l-12 2q5 19 5 40 0 10-1 21t-1 19-2 16-1 9q0 3 1 4-10-4-19-7t-19-4q-5 0-14 2t-20 4-17 4-8 3q-13 7-21 20t-14 30-7 36-2 37q0 17 4 34t11 34 17 28 20 20q-1 0-1 1 0 2 4 3t9 3 13 2 15 1q11 0 21-2t17-7q3-4 4-7t2-4 1-4 2-4q0 1 0 5l0 16q1 3 1 5t2 3q0 0 9-3 2 0 7-1t9 0 9-1 4-1h7q1 0 2 0t2 0q3 0 2-2t1-3q6 0 8 2t6 3q2-12 2-25 0-8-2-21t-1-25v-23q0-58 3-111t4-106q0-6 0-17t0-29m-10 347q-15 1-25 2t-17 1q-8 0-17-3 0-5 0-10t-3-7q1-2 1-5 0-3-4-5-3 0-4 2t-1 4q-7 2-11 5t-9 6-10 5-16 2q-16 0-27-4t-18-12-11-20-9-27q-4-16-8-30t-5-31q0-22 5-42t13-34 19-22 24-8q4 0 7 2 5-1 12-3t15-2q8 0 14 4t15 3q3 0 5-1t4 0 5 2q0-1 0-2t0-3q0-3 0-5t0-5q1-37 2-58t2-27q1-7 8-10t10-2h0q2 0 3-1t3 0q9 0 16 2t16 3q0 72-2 140t-2 140v28q0 7 0 14t0 14m-89-190q-24 3-40 19t-15 38q0 9 2 18t5 19q1 7 1 12t2 9q4 8 7 14t8 12 10 8 14 3q8 0 14-4t11-11 7-15 4-17q0 0 1 0 0 0 1 0t1 1q1 0 1-7t2-16 0-18 1-12q0-13-1-23t-5-17-10-10-17-3h-4m28 73q0 12-1 24t-5 22-8 15-15 6q-10 0-19-6t-15-15-11-24-3-28q0-16 5-27t13-20 17-11 18-4q10 0 15 6t7 16 2 22 0 24m264-122q-1 1-2 1 0 0 0 0-1 0-2-1t-2-2q-19 7-84 21-2-6-2-14t-2-12l-2 1q0 1 0 1t-1 1h-5q-12 0-24 2t-28 2q-1 0-6-1-2 5-2 7t-6 3q2 12 2 26 0 23-3 49t-2 55q0 13 1 38t3 64v14q4 4 11 4 2 0 8-1t16 0 21-2 24-3q0-10-1-22t-2-26-2-27-1-27q0-11 1-23t5-22 10-17 19-6q10 0 22 3t18 5 6 4 2 3l6 1q1 0 2-4t1-15 1-30 0-50m-12 87q-13-3-25-10t-27-7q-13 0-21 9t-10 20-5 25 0 22q0 27 1 52t6 48q-12 2-25 4t-26 3q-3 0-7 0t-4-3v-1q1 0 1 1t1 1l4-9-3-5v-4q0-2 0-9t-1-17-1-21-1-23q-2-28-3-61 0-5 1-9v2l1-7q0-15 0-23t0-17 0-17 3-18q13-1 25-3t24-2q1 2 1 5t1 6 3 8 6 7q3-1 3-3 0-1-1-1t0-1v-1q8-3 15-3t15-2q13-3 25-9t26-6q1 11 1 22 0 14-1 28t-2 29m106-89q-1 1-5 1-12 0-19 0t-9 0q-6 0-14-1t-14-2q-5 0-8 2 1 4 1 8v24q-3 49-6 97t-2 94v18q0 6 1 10t2 5q2 0 1-3t3-2q8 0 18 0t21 1h7q7 0 15-1t7-5q0-2-1-4t-2-3v-17q0-42 2-89t3-92q0-10-1-21t0-20m-14 240q-24 0-35 0t-15-1-5-1-2-1q0-10-1-21t0-21q0-13 1-27t1-29q2-21 1-43t4-45q1-12 1-24t4-21q7 1 17 2t21 0h9q2 0 4 0t5 0q-4 59-4 116t-2 116h-4m-56-341q-1 4-1 7t0 6q0 25 3 39t4 15h1q1 0 3 1 0-2 7-3t16-2 18-1 13 0q3 0 3 2v3q0 2 1 2 2-2 1-5t2-3q-1-13-2-27t-1-25v-7q0-4 0-5-1 0-6 0h-6q-16 0-30-1t-30-2q0 3 2 3t2 3m8 5q1 0 8 0 1 0 6 0t10-1 10-1 4-1 0-2 0-1h2q4 0 8 0t5 2q0 1 0 8 0 12 2 24t3 24q-5 2-11 3t-12 0q-5 0-10 0t-10 0q-2 0-5 0t-4 0q0-2-1-6t-1-10-2-8-1-3v1q0-4-1-10t-1-14l1-5m154 358q3 0 4-1-1-3-1-6t0-7q0-16 2-35t2-38q0-5 0-10t0-11q0-13 1-25t4-22 11-14 19-5q9 0 12 8t5 22 1 29 1 30q1 17 3 32t2 29q0 15-2 23 1 0 3 0h4q10 0 19-2t19-2q5 0 9 1t10 3q2-9 4-20t2-24v-9q1-21 3-46t2-47q0-17-1-36t-6-36-15-28-27-11q-5 0-10 1t-10 0q-4 0-7-1t-6 0q-6 0-11 3t-10 5q-5 3-11 4t-9 4q-2 2-4 4t-5 2v-1q1-4 1-12t4-13q-3-1-5-1t-5 0q-9 0-20 2t-20 2q-6 0-11-1t-9-2q-4 3-5 5t-1 6q0 2 0 4t1 5q0 10-1 21t-2 24q-1 28-2 57t-2 60q0 15 1 30t2 30q0 2-2 3t-1 2q3 1 3 3t1 5 1 5 5 3q2 0 2-3t4-3l54 5m131-69q-1 16-3 31t-3 32q-8-4-24-4-8 0-15 1t-14 1q0-2 1-2t2-2v-19q0-4 0-9t-1-8q-1-12-1-26t-1-30-2-29-6-25-10-18-16-7q-3 0-8 2t-8 5-8 7-5 8-2 9-2 12q-4 17-6 33t-2 34q0 17 2 33t1 22q0 4 0 7t-5 3q-14 0-27-4t-28-4q0-18 2-35t2-35q0-7 0-15t0-16q0-7 0-14t0-13q0-15-1-31t-1-30q0-10 1-20t5-19q-2 0-2 1t-1 3q0-1 0-2 0-1-1-1 0-3 1-7t6-3q13 0 25 1t26 1q0 1 0 2t1 3q0 5-2 11t-1 10q0 1 1 1 1 0 2-1t3-1q0 1 0 1t1 0 2 0q0 0 0-1 0-1 0-1t-1-2q3-3 8-7t13-6 18-5 26-2q17 0 28 12t18 33 10 51 2 66v9q0 3 0 5t0 4m230 20q-1-13-1-26t-1-27v-22q0-5 0-12t1-15v-10q0-15 1-24t1-18 1-19 0-29q0-2 0-5t-3-3q-1 0-2 1t-1 1q-16 0-34-1t-30-3q-1 4-1 6v6q0 4-1 4-7-8-20-11t-28-2q-1 0-3 0t-2 1q-3 0-8 1t-12 6-20 13-26 24q-3 9-5 14t-2 6q-2 7-4 16-1 8-2 19t-1 26q0 24 4 46t14 40 25 27 38 10q9 0 15-2t12-5 10-7 13-6q-1 4-2 7t0 7q0 2 1 3t2 3q9-2 27-2 10 0 20 0t21 2q5-3 5-8 0-15-1-23t-1-9v-1 1m-4-150q0 11 0 21t1 18q0 11-1 19t0 14 0 14 0 15q0 20 0 39t1 41q-8-1-15-1-11 0-21 1t-22 2q-3 0-6-1t-2-5 1-9 1-8q0-4-1-5-6 4-11 8t-11 8q-1 0-1-1t0-1q-1 1-6 3t-10 2-12 3-11 1q-5 0-9-2t-6-2q-17-5-27-18t-15-29-6-36-1-36q0-5 0-13t1-17 3-17 4-14q6-12 20-22t25-19q2-2 7-3t11-2 11-1 10-1 10 1 5 3l0 1q5 0 10 6t11 8q3-3 4-7t2-9q14 6 26 6 10 0 17-5 2 1 5 2t5 1q2 0 1-3t2-2q2 1 2 9 0 10-1 21t-1 22m-75 0q-15 1-26 1t-20 5q-6 2-11 9t-8 16-5 19-1 17q0 13 5 23t12 18 14 11 13 4q8 0 15-4t14-7v3h0q0-1 2-8t4-19 5-25 2-29q0-12-4-21t-11-13m6 57q-2 19-8 35t-17 26q-13-1-21-6t-12-14-6-20-2-27q0-18 10-30t27-11q16 0 23 10t7 25v6q0 4-1 6m396-193q-13-13-30-18t-36-5q-27 0-54 9t-44 27q-13 16-18 35t-5 40q0 13 3 26t9 24 16 20 23 14q11 4 23 6t24 5 21 8 17 18q3 4 3 9 0 16-9 25t-25 10q-17 0-27-15-3-2-4-5t-1-6-2-6-5-3q-7 1-15 1t-14 1q-10 0-21-1t-22-1l-3 2q1 16 4 31t12 28q4 5 7 10t8 12 8 10 12 6q16 4 30 6t31 3h6q4 0 6-1 0 1 3 1 3 0 6-1t7-1h2q11-7 21-12l10-4q3-1 6-3t6-4h5q-2 4-6 6t-7 6q26-12 38-36t12-55q0-24-6-40t-15-27-24-19-28-17q-7-4-18-6t-22-3-18-9-8-19q0-9 4-16t15-8l-2-1q2-2 7-3t9 0q11 0 22 7t10 21q0 3-2 5 4 3 11 4t14 1q15 0 28-1t27-3q1-4 1-8t0-7q0-21-8-40t-28-33m17 83q-1 0-2 1h0q-3 0-5-1t-5-1q-5 0-11 1t-12 1q-9 0-15-1-2-8-6-15t-10-14-14-9-17-4q-10 0-17 4t-10 9-5 13-2 14q0 9 3 18t12 14l48 21q14 6 27 12t23 15 15 22 6 33q0 12-3 24t-7 22q-16 21-38 37t-50 16q-6 0-11-2t-9-1h-3q-3 0-5-2-2 2-5 2-9 0-19-4t-18-10-16-15-10-17q-1 0-3-4t-3-9-2-12-1-10q1 1 4 1h4q10 0 19-2t19-1q10 0 16 2 3 4 6 9t7 9 10 7 15 3 17-4 14-9 10-13 3-15q0-6-3-12-8-13-19-21t-25-11-27-8-28-6q-2-1-5-4t-2-5q-14-11-22-26t-8-30q0-10 1-14t3-12q4-9 8-23t16-24l-1-3q-2 1-6 4t-3 5q0-2 2-6t6-7 8-8 8-4q-3 4-7 5t-4 4q0 1 1 1 2 0 5-4t9-4q8-8 24-12t32-5h6q1 0 5 1 13 4 27 10t26 13 21 19 12 27q1 7 0 12t1 11l-5 2m243 226q-2-2-4-3t-3-5-6-11-11-20-20-35-31-54q4-9 10-18t13-18q12-9 17-22t14-24q6-9 11-16t8-17q-8-1-16-1t-15 0h-34q-2 0-4 0t-5-1q-5 8-17 23t-31 38q-1-11-2-32t-1-43-1-43 0-30q0-5 0-8t3-7q-6 0-7-3-5 1-14 1t-17 1-18 0-14 1q0 18 0 39t-1 42-2 43-1 41q-2 46-3 92 0 28 0 54t3 53q1 0 5 0t24 1q7-2 13-2 8 0 16 2t14 4q0-1 0-2t0-3-1-4q0-2 2-3t2-2v-13q0-8-1-17t0-16 1-15 3-14q17 32 28 53t18 32q3-1 5-1t3 0h9q12 0 25 1t25 1h9q3 0 5-1t4 0q-2-4-4-6t-2-7l-4-5m-66 10q-4-2-7-11t-6-12q-13-24-25-47t-25-40q-7 21-8 50t-1 60q-3 0-4 0h-19q-9 0-15 0t-10-1q1-3 1-6t0-6v-13q0-17-1-30t-2-27-2-31-1-43q0-27 0-65t4-90q0-19-2-40 12-2 24-3t26 0q1 46 1 77t2 50 1 31 1 17q0 9-1 10 2 0 2 1 7-1 11-7t10-13l19-32q0-3 4-5 0 1 1 1t2-3 4-6 4-8 5-7q10 0 20-1t22 0q12 0 24 1-15 12-43 63-5 7-11 13t-10 13-9 13-5 16l1 1q1 0 1-2t2-2l42 67q9 18 20 34t20 35q-7-2-14-2-9 0-19 2t-18 1q-4 0-8 0t-8-3m183-118q13 1 26 2t23 1q10 0 17-1t13-7q2-7 2-20t-2-26-4-24q-5-3-6-9t-3-12q-2-8-10-14t-18-12-24-7-25-3q-14 0-26 2t-23 5-18 6-11 8q-15 15-21 39t-6 54v35q0 24 6 44t19 37 32 24 45 9q12 0 24-2t24-7 19-9 14-11q6-7 8-20t2-25q0-8-1-17t0-16q-2 2-6 2-3 0-9 0t-13 0-15-1-14-1q-1 16-8 28t-24 12q-13 0-19-7t-8-17-4-23-4-21q5 2 10 3t9 1q4 0 8 0t8-1q2 0 5 1t6 1l2-1m-46-16q-2 5-5 5-1 0-2-1t-2 0q-4 15-4 26 0 11 3 23t9 20 14 15 20 6q9 0 16-5t11-13 7-16 7-16q2 1 4 1t4 0h18q4 0 8 0t9 1q0 41-18 67-6 8-11 12t-11 6-16 3-24 1q-8 0-17-1t-19-1q-14-1-27-13t-22-31-15-43-5-52q0-34 10-54t25-30 31-13 31-3q18 0 32 2t22 6q38 19 38 78 0 7-1 14t-3 15q-2 0-8 0-24-1-40-2t-23-1-13-3-14-2q-4 0-7 1t-6 1-6-3m67-21q1 1 1 2t2 1q1 0 3-6t3-8q0-10-6-18t-11-14q-1 1-3 1-4 0-7-3t-8-3q-2 0-4 0t-4 1q-5 0-8-3t-8-2q-5 0-9 3t-6 7l-6 8q-2 4-5 7 0 0 0 5 0 3-1 7t0 7q0 4 2 5t4 4q1-5 7-5 9 0 22 3t26 3 16-2m-64-10q0-4-2-8t-1-6q0-4 3-7t10-6 13-3 14-1q15 0 20 8t5 21q-2 0-5-1t-5 0q-3 0-3 2-1 0-7-2v1q0 1 0 1 0 0 0 1-4-1-13-1t-18 0q-10 0-11 1m296 103q-7-1-12-4t-15-3q-4 0-7-2t-6-3-6-3-7-1q0-16-1-34t-1-35q0-16 2-31 2-1 6-1 15 0 34 1t36 2q2-24 2-37t1-20 0-7 1-3q-2-2-6-2-5 0-12 2t-14 2q-12 0-22-1t-16-1h-4q-1-6-1-15t0-21 0-26 1-31q-3 0-6-1t-4-2q-4 3-5 4t-5 0q-12 0-24-1t-19-1q-4 0-8 1 1 41 1 66t-1 32q-1-1-5-1h-19q-5 0-6-2t-2-2q-2 0-3 1t-1 1q-1 0-1-1t-1 0q1 5 1 11t1 14q0 9-2 17t-4 15q1 1 2 3t0 4 1 3 2 2 1-2 3-3q6 1 15 1t12 4v10q0 14 0 29t-1 31q0 25 4 48t16 38q10 11 26 14t35 8q19 5 31 7t18 2q12 0 16-2 2-11 4-25t2-28q0-4-1-10t-2-12q-8 2-17 2-6 0-7-1m11 70q-19-5-40-8t-38-8-29-13-11-24v-8q0-21-5-45t-5-47q0-6 0-12t0-13q0-3 1-3t2-3q-3-3-3-7v-2q-25-5-34-5 2-11 2-22t1-24q4 1 12 2t20 2q2-2 2-5t3-5q0-2 0-4t0-3q0-14 1-80 9-3 19-3 7 0 15 1t16 2q1 37 1 65 0 11 0 18t0 12q10-1 19-2t17 0q9 0 17 0t14 1q4 0 7-1t8-2q0 1-3 4t-2 11q0 9 1 17t1 16q-12 0-25 2t-23 2q-4 0-11 0t-12 2-10 2-4 1l-1 2q0 2 2 2t3 3q-1 19-1 38t-1 37q0 9 0 13t0 7 1 3 1 1q2 0 2-2v-1q5 8 14 11t19 8q9 4 16 7t19 3h5q4 0 4-1 0 1 0 5v4q0 5 0 11t0 11q0 8-1 15t-6 12m-26-1q0-1 2-1 0 1-2 1m243-106q-2 0-2 2t-1 2l-1 0q-6 1-12 1-6 0-11-1t-11 0q-5 0-10 4t-5 12q0 1 0 1t1 2q-4 5-9 8t-12 2q-5 0-13-2t-14-5-12-10-4-15q0-2 0-5t1-5q0-6-1-11t-1-17q0-6 2-12t7-11 9-9 11-3q13 0 20 10t11 21q1 0 3 0t3 0q9 0 18 1t19 2q13 0 22-2t9-15-4-22-8-25q-3-10-6-17t-8-12-11-9-17-6q-9-2-20-2t-22-1q-7-2-12-3t-14-1-16 2-11 3-8 5-10 4q-4 1-7 2t-6 1q-7 4-11 14t-6 23-3 29 0 30q0 19 0 39t4 37 10 33 19 22q0 1 5 4t11 7 14 7 15 3q4 0 8-1t12 0q6 0 16 1t22 1q10 0 18-2t16-5q8-4 13-14t9-23 4-27 1-25q0-13-3-15t-11-2m5 42q0 1-1 1v1q-1 0-2-1t-2-1h-1q2 8 2 14 0 15-7 25t-19 15-29 7-38 2q-25 0-41-9t-27-25-14-37-4-48q0-14 0-32t3-36 9-31 18-21q6-3 14-5t18-3 16-2 10-1q15 0 29 0t24 3q5 1 10 7t10 10q9 9 14 17t7 17 2 19 1 20q-7 1-12 1t-8 0q-5 0-10 0t-10-1q-8 0-17 4-1-1-4-8t-6-14-9-13-10-6q-11 0-19 5t-14 14-9 21-2 25q0 10 1 19t2 13v2q0 1 0 7t4 13 9 11 15 6q6 0 14-2t15-6 14-7 8-8q2-3 2-5t1-5q11 1 21 2t22 1v5q0 6 0 10t0 10m222 53q-1-2-1-4t0-4v-8q0-13 1-29t2-31 3-33 1-30q0-11 0-24t-1-24-5-22-11-16q-7-6-18-6t-17-2q-3 0-6-1t-6-1q-16 0-29 4t-29 6v-12q2 2 2 2l2-1q0-4-1-20t-2-32-2-30 0-16v-14q0-9-3-9-2 2-1 4t-6 2q-4 0-13-1t-26-2q-4 0-8 0t-7-2q-8 6-8 13 0 7 2 14 1 15 2 27t2 24q0 15-2 28t-1 27q0 23 0 38t-1 25-1 20-1 19q0 8 1 15t0 16v13q0 6 0 11t1 11q0 10-1 20t0 21q0 8 2 15t14 6h8q9 0 17 1t19 1q4 0 6-4t4-7q-2-2-2-4 0-4 1-7t1-6q0-8-1-16t-2-14q0-15 1-35t2-36 8-28 14-11q11 0 16 6t9 16 5 21 3 23q1 13 2 28t1 30q0 10 0 19t-2 17q-2 4-2 6t2 4q4-3 11-3 6 0 8 2-2 2-5 2t-6 1-5 1-2 4v1q6-2 14-3t17-2 18-4 17-6q0-2-2-3t-3-1m-7 2q-8-1-15-2t-14 0q-10 0-21 1 1-2 1-5t0-6v-11q0-24-1-49t-6-44q-1-11-2-21t-5-17-11-12-18-4q-4 0-9 3t-9 8-6 11-2 11v8q-2 24-3 47t-2 49v14q0 3 0 6t1 7q-6 1-20 1t-19-1-9-3q0-1 0-12t-2-26-1-30 0-27q0-21 0-40t2-37 1-37 1-39q0-13-2-30t-2-35v-6q0-9 2-15t5-5q12 1 24 3t27 2q0 4 0 13t1 23q0 35-1 57t-1 31q2 1 3 2t2 4q7-4 13-7t12-6 13-3 15-2 14 1 11 3 8 7 10 12q3 4 7 8t5 8q2 5 2 13t2 15q1 7 2 14t1 13v35q0 27-1 54t-3 48" />
</svg>