<svg id="fnt-Londrina Outline" viewBox="0 0 3070 1000" xmlns="http://www.w3.org/2000/svg"><path id="londrina-outline" class="f" d="M231 621l1 13q1 13 1 20 0 7-2 10t-9 5-22 1l-38 1q-11 0-33 0-19 0-56-1l-55 0-2-3q0-31 2-94 2-62 2-94 0-27-1-81-2-41-2-82l2-3q11-5 32-5 16 0 32 2t19 7q-1 16-1 48 0 37 1 110t1 110q26 0 58 2 39 2 58 2 4 0 11-1 0 1 1 3t1 4q0 3-1 10t-1 9q0 2 1 6v1m-6-10q0-10 2-15v-2q-3 0-10 0-22 0-53-2-37-2-54-2-6 0-9 0l-3-3q0-36-1-110-1-73-1-110 0-33 1-49-17-5-37-5-18 0-38 4 0 41 2 82 1 54 1 81 0 32-2 93-2 62-2 92l204-1q3-7 3-16 0-5-1-14t-1-12q-1-6-1-11m93-203l32-1q21 0 36 4t32 13q18 12 23 36t5 61q0 38-2 63t-7 49q-6 23-27 32t-48 10q-8 0-14-1t-9-1l-14-1q-18-1-26-2t-18-8-22-19q-18-20-18-74v-47q0-38 2-57 0-5 4-15l4-12q5-16 27-23t40-7m-70 58q-3 24-3 72v16q0 41 9 69t39 39q7 3 15 4t17 1q3 0 7 0t11 2q8 1 19 1 30 0 46-9t21-24 8-38l1-11q3-42 3-64 0-62-16-88-19-15-34-19t-37-5l-36 1q-15 0-37 5t-25 22l-4 11q-4 10-4 15m97 16q20 0 29 16t10 48q0 30-9 44t-29 14q-16 0-28-8t-12-20l0-15 0-28q0-29 8-37 5-7 14-10t17-4m-34 54l0 27q0 3 0 6t-1 7q0 11 11 17t25 6q18 0 25-13t7-41q0-31-8-44t-25-13q-8 0-15 3t-12 8q-7 7-7 37m355-39q0 24-1 72-1 36-1 73 0 12 1 24-2 4-26 4-2 0-9 1t-12 1q-21 0-21-14l0-68q0-22-2-40-1-8-1-12-1-12-2-19t-7-13q-4 0-15-5-19 0-26 12t-6 31q0 21 1 42 1 28 1 42 0 7-1 19t-1 18q-1 3-10 5t-16 2l-40-2q0-54-2-107 0-18-1-51t0-58q0-37 4-39 4 0 9 1t9 1q6 0 11-2 11-2 25-2 11 0 13 2 0 9 1 25 14-10 30-17t32-6q28 0 41 9t18 27 4 44m-6 167q-1-12-1-19 0-25 1-75 1-38 1-76 0-25-3-40t-16-24-39-8q-16 0-30 6t-32 18l-4-2q-1-4-1-13 0-9 0-13-7 0-21 2-11 3-20 3-5 0-11-1t-8-1q-2 39-2 80 0 33 1 99 1 44 1 65 8-1 14-1 8 0 13 2 2 0 12 0t18-3l1-24q1-17 1-25 0-14-2-30 0-5-1-13t0-19q0-27 7-41t28-14q15 0 18 4 11 2 14 24t3 56v31q0 10-1 15l0 18q0 11 1 20l26 1q18 0 32-2m168-351q14-4 36-4 27 0 30 6 0 45 2 136 2 92 2 137 0 52-1 78-5 5-50 5-12 0-17-2t-6-4v-6q-1-2-1-6l0-7 0-1q-12 23-39 23-59 0-78-42t-18-103q0-79 35-100 18-10 53-10 16 0 28 2t20 7q0-8-1-15-1-21-1-35 0-20 2-36 2-9 2-20l2-3m31 2q-17 0-28 2-1 13-2 34t0 36q0 28 0 42-3 1-4 1-7-12-44-12-26 0-44 5t-28 21q-8 14-13 36t-4 49q0 70 23 102t70 32q12 0 19-4 3-2 9-11 1-1 4-5t5-4h1q4 5 5 9t1 12q0 5 15 5l23 0q16-1 25-1 1-26 1-77 0-45-2-135t-2-135q-19-2-30-2m-61 156q21 0 27 11t7 32q0 31-2 49t-11 31-26 12q-22 0-36-21t-13-48q0-16 4-28 3-19 17-28t33-10m-45 39q-4 12-4 28 0 27 13 45t33 18q14 0 21-11t9-27 2-44q0-16-2-25t-8-14-20-5q-16 0-29 9t-15 25v1m175 158q0-36-1-106-2-53-2-108 0-37 5-39 4 0 8 1t9 1q4 0 12-1 11-2 28-2 6 0 9 0t4 3v13q15-7 35-12t38-4q8 0 13 0t7 4l-1 29q-1 20-1 30 0 15 2 29l-4 3q-16-6-30-8t-29-2q-33 0-33 34 0 33 2 66 1 45 1 66-2 5-20 5-11 0-16 0l-17-1-19-1m67-234v-2q-1-3-1-5l1-8h-13q-4 2-13 3t-18 1q-5 0-11-1t-8-1q-1 39-1 80 0 33 1 99 1 44 1 65 4 0 11 0 10 0 15 0l15 1q12 0 21-3 0-20-1-63-1-42-1-63 0-21 7-32t31-11q29 0 56 9-1-12-1-25 0-9 1-29 1-19 1-29-28 0-49 3t-40 13l-4-2m188-126v17q2 6 2 23l0 24q0 4-10 6t-19 2q-39 0-44-5 0-11-1-32-1-16-1-32 0-5 3-7l68 1 2 3m-5 11q0-6 0-9l-63-1 0 9q0 14 1 27 1 18 1 28l15 1q24 1 26 1 17 0 22-4 0-15-1-22l0-22q-1-2-1-8m7 96q0 29-1 86-1 42-1 85t2 78q0 3-8 5t-15 2q-7 0-21-1t-19-1q-7 0-10 0l-3-3q2-17 2-51l-1-66q-1-45-1-68 0-11 1-40t2-28v1l3-3 33 1q23 1 35 1l2 2m-7 171q0-42 1-84 1-56 1-84-11 0-32-1l-31-1q-2 30-2 70 0 21 1 60l0 60q0 28-1 58 7 0 22 1 12 1 23 1 11 0 20-3-2-34-2-77m232-89q0 24-1 72-1 36-1 73 0 12 1 24-2 4-26 4-2 0-9 1t-12 1q-21 0-21-14l0-68q0-22-2-40-1-8-1-12-1-12-2-19t-7-13q-4 0-15-5-19 0-26 12t-6 31q0 21 1 42 1 28 1 42 0 7-1 19t-1 18q-1 3-10 5t-16 2l-40-2q0-54-2-107 0-18-1-51t0-58q0-37 4-39 4 0 9 1t9 1q6 0 11-2 11-2 25-2 11 0 13 2 0 9 1 25 14-10 30-17t32-6q28 0 41 9t18 27 4 44m-6 167q-1-12-1-19 0-25 1-75 1-38 1-76 0-25-3-40t-16-24-39-8q-16 0-30 6t-32 18l-4-2q-1-4-1-13 0-9 0-13-7 0-21 2-11 3-20 3-5 0-11-1t-8-1q-2 39-2 80 0 33 1 99 1 44 1 65 8-1 14-1 8 0 13 2 2 0 12 0t18-3l1-24q1-17 1-25 0-14-2-30 0-5-1-13t0-19q0-27 7-41t28-14q15 0 18 4 11 2 14 24t3 56v31q0 10-1 15l0 18q0 11 1 20l26 1q18 0 32-2m242-154q0 21 1 63l1 64q0 16-4 25t-12 9q-5 0-10-2h-39q-4 1-5 1-10 0-10-14 0-4 1-11-13 12-29 18t-31 7-28-6q-14-7-26-28t-19-48-6-53q0-33 11-60t33-43 48-16q18 0 27 3t17 13q0-3 1-8t1-8l1-3q4-1 17-1 11 0 34 2 13 1 23 1l3 3v2q1 4 1 12 0 5 0 8t-1 6v64m-6 152q0-15 1-46 2-23 2-46l-1-74q-1-50-1-74 0-1 0-2-17 0-35-1-22-1-33-1 0 4-2 10 0 2-1 4t0 6l0 3q0 0 0 0t1 0q-3 1-5 1h0l-1-1q-7-12-17-16t-26-4q-26 0-46 15t-30 41-11 57 8 62 25 50 41 19q16 0 33-8t29-20q1 1 4 2 0 2-1 8t-1 9q0 3 1 5t3 4h4q6-2 22-2t22 2h12l3-3m-96-179q14 0 20 4t7 18 2 47q0 23-7 36t-26 13q-23 0-36-18t-13-42q0-14 5-25l-1 1q3-17 17-26t32-8m24 76l0-22 0-20q0-14-3-22t-15-7q-19 0-33 7t-17 23q-4 9-4 23 0 22 11 38t32 17q29 0 29-37m424-136q0 14-1 21l0 23 0 45q0 95-23 127-12 18-41 28t-58 10q-42 0-62-16t-25-39-6-58q0-14 0-20-3-42-3-100 0-30 4-53t16-41 35-27 50-9q24 0 48 7t38 20q9 8 19 29 5 12 7 24t2 29m-109-104q-28 0-51 8t-35 26-15 38-4 50q0 60 3 103 0 7 0 21 0 23 2 38t8 29q9 21 28 30t49 10 57-10 39-26q13-18 18-49t4-72l0-43 0-23q1-16 1-25 0-31-9-52-12-27-35-40t-60-13m45 140l1 27-1 39q-1 27-1 40 0 19-15 30t-32 11q-22 0-33-12t-14-30-5-46l0-10q-1-18-1-29 0-37 13-66t45-29q15 0 24 7t11 19 6 30q0 7 2 18v1m-14-53q-12-18-31-18-26 0-39 27t-12 62q0 11 1 23t1 18l2 15q0 3 0 10 1 15 3 24t6 19q7 7 17 11t20 4q16 0 28-9t12-27q0-14 1-40l1-39-1-27q-1-10-1-19-1-12-2-19t-6-15m227 249q0-7 0-11-12 12-29 17t-31 6q-36 0-54-18-5-6-7-15t-2-16-1-10q-1-23-1-45 0-21 1-62 1-31 1-62l0-21q5-5 24-5h41q3 8 3 20 0 25 0 37l-1 40q0 45 10 65l3 3q1 1 6 2t9 3q19 0 25-13t7-31q0-14 0-25t-1-18q-2-22-2-43 0-9 2-17 1-11 1-17l1-3q14-4 25-4 5 0 14 1 8 1 13 1 3 0 11-1 0 0 3 2 0 30 1 88l0 88q0 50-1 75-1 1-3 2t-3 0l-49 2q-9 0-11-1t-4-3v1q-1-6-1-12m5-15l1 12q0 5 0 13 7 0 12 0t9-1q15-2 25-2 3 0 7 0t7 1q1-24 1-73l0-86q-1-57-1-86-9 1-16 1-3 0-11-1l-11 0q-11 0-19 2 0 6-1 17-2 8-2 16 0 19 2 40 0 7 0 21t1 26q0 20-7 34t-26 14q-13 0-21-5l0-1q-16-7-16-62l1-35q1-23 1-35 0-16-2-32h-25q-22 0-32 2 0 6 0 19 0 25 0 44t-1 32q-2 36-2 73 0 25 4 40t17 25 38 9q14 0 24-4t25-13q3-1 6-4t9-4l3 3m193-223q14 0 43-2 11-1 30-2 7 8 7 23 0 8-2 16-1 11-1 16t1 8l1 6-78-1v48q0 33 0 49 7 11 25 15t38 4q8 0 12 0 6 12 6 48 0 12-4 23-3 2-15 2-46 0-79-9t-47-37q-5-9-6-26t-2-31 0-16q-1-27-1-40 0-19 0-29-4 1-11 1t-8 0q-13 0-17-4v-5-21q0-35 5-37 5 1 16 1h16q0-11-1-35-1-19-1-37 0-12 2-18t11-7q7 0 12 1t9 1q14 2 21 2 8 0 12-1l6-1v95m-6-89q-7 1-10 1-7 0-21-2-15-2-22-2-5 0-6 2t-2 5l1 44q0 14 0 43-3 4-14 4-6 0-11-1t-10 0l-2 55q16 0 37-2-1 13-1 41 0 43 4 77 0 3 1 12t3 16 6 12q25 32 105 32 15 0 22-1 3-10 3-20 0-11-2-24t-2-18q-3 0-11 0-22 0-45-7t-22-21l1-9 0-45q0-25 0-34t0-10h76q-1-5-1-8 0-8 2-16 0-2 0-8t1-9q0-11-3-17l-22 2q-7 0-25 1t-30 1v-94m180-25q0 68-2 154-1 19-2 67t-1 88q0 26 3 52 0 3-7 5t-16 2q-7 0-25-1t-28-1l1-16q0-10 1-36t1-45q0-29-2-88-2-58-2-88 0-59 4-95 1 0 2 0t1 0l68 1 4 1m-6 4l-64-1q-4 37-4 87 0 29 2 88 2 50 2 90 0 41-2 93l7-1q10 0 19 2 4 0 8 1t12 0q11 0 19-3-3-20-3-49l1-31q0-10 0-30 0-41 1-123 2-61 2-123m106 1v17q2 6 2 23l-1 24q0 4-9 6t-19 2q-39 0-44-5 0-11-1-32-2-16-2-32 0-5 3-7l68 1 3 3m-6 11q0-6 1-9l-63-1-1 9q0 14 2 27 1 18 1 28l15 1q24 1 26 1 16 0 21-4 0-15 0-22l-1-22q-1-2-1-8m8 96q0 29-1 86-2 42-2 85t2 78q0 3-7 5t-16 2q-7 0-21-1t-19-1q-7 0-9 0l-3-3q1-17 1-51l0-66q-1-45-1-68 0-11 0-40t3-28v1l2-3 34 1q23 1 34 1l3 2m-8 171q0-42 2-84 1-56 1-84-11 0-32-1l-31-1q-3 30-3 70 0 21 1 60l1 60q0 28-2 58 7 0 22 1 12 1 24 1 11 0 19-3-2-34-2-77m233-89q0 24-1 72-2 36-2 73 0 12 2 24-2 4-26 4-3 0-10 1t-11 1q-22 0-22-14l1-68q0-22-2-40-1-8-1-12-1-12-3-19t-6-13q-4 0-16-5-19 0-25 12t-7 31q0 21 2 42 1 28 1 42 0 7-1 19t-1 18q-2 3-11 5t-16 2l-40-2q0-54-1-107-1-18-1-51t-1-58q0-37 5-39 4 0 8 1t9 1q7 0 12-2 11-2 24-2 12 0 14 2 0 9 1 25 13-10 30-17t31-6q28 0 42 9t18 27 4 44m-7 167q-1-12-1-19 0-25 1-75 2-38 2-76 0-25-4-40t-16-24-38-8q-16 0-30 6t-33 18l-4-2q0-4 0-13 0-9-1-13-6 0-20 2-11 3-21 3-5 0-11-1t-8-1q-1 39-1 80 0 33 1 99 1 44 1 65 8-1 14-1 8 0 13 2 2 0 11 0t19-3l0-24q1-17 1-25 0-14-1-30-1-5-1-13t-1-19q0-27 8-41t28-14q14 0 18 4 11 2 13 24t3 56v31q0 10 0 15l-1 18q0 11 2 20l25 1q18 0 32-2m137-52q29 0 29-41l3-3q2 1 8 1 6 0 19-1t19-1q8 0 12 1t7 5q-2 9-3 29-2 25-7 40t-21 24-49 10h-19q-25 0-43-5t-30-17q-35-41-35-113 0-31 6-66 6-34 34-51t65-17q18 0 37 4t32 14q18 14 27 37t8 52q0 12-1 23-9 9-89 9-8 0-13 0l-16 1q-10 0-16-2v5q0 26 8 44t28 18m-41-70q3-3 4-3 4 3 17 3 8 0 13-1t9 0q76 0 91-6 1-14 1-21 0-54-30-83-11-11-30-15t-40-4q-27 0-50 10t-36 31q-7 14-10 33t-2 42q0 40 6 70t27 52q11 13 28 17t41 4h22q30 0 45-11t19-25 5-39q1-16 2-22-5-2-14-2-10 0-21 1-13 1-17 1l-5 0q0 18-10 31t-23 13q-24 0-33-21t-9-46v-9m85-40q0 3-4 4t-7 1q-7 0-12-2h-28q-13 1-18 1-16 0-16-9 0-20 12-30t30-10q12 0 22 5 21 10 21 40m-45-41q-15 0-25 10t-10 28q6 3 15 3 5 0 9-1t8-1q8-1 16-1 6 0 15 1 8 1 12 1 0-26-18-35-12-5-22-5" />
</svg>