<svg id="fnt-Londrina Shadow" viewBox="0 0 3274 1000" xmlns="http://www.w3.org/2000/svg"><path id="londrina-shadow" class="f" d="M244 631l1 27q0 13-2 18t-5 5-13 1l-8-1q-9 0-16 1-32 1-89 1-55 0-89-1v-10h-10v-14q4-70 4-166 0-107-2-180 6-3 18-5t24-1q30 0 48 8l-1 6q3 1 5 2t6 2q-1 36-1 59 0 30 1 90l0 89v20q68 4 99 4 10 0 21-1v11l10-1q0 10-1 20l-1 11 1 5v0m-16-15q0-4 1-13l1-12q-1 0-8 0-9 0-47-2-9 0-29-1t-31-1q-8 0-15 1v-1l1-39q0-27-1-85-1-57-1-86 0-21 1-60-14-6-43-6-12 0-22 1t-15 3q2 100 2 177 0 96-4 166v9q15 0 21 1l69 0q40 0 86-1 6-1 14-1l11 1q7 0 9-3t2-16l-1-27-1-5m21-179q7-16 29-24t51-8q4 0 18 0l12 0q19 0 37 6t30 17h0q1 2 4 5t6 5l-1 0q14 9 18 36t5 67q0 35-4 73t-13 47q-10 15-28 21t-42 5q-26 0-42-1t-31-9-29-21l-4-4q-16-15-21-38t-6-53v-18l1-17q0-6-1-11t0-10q0-22 1-33t7-26h0q0-3 1-6t2-4v0l-1 2 1-1m-6 67l0 21v37q0 44 15 73t53 35l24 1q17 1 26 1 24 0 40-5t26-19q9-8 11-38t5-79q0-5-1-33t-6-44-13-22q-23-22-66-22l-19 0q-6 0-10 0-25 0-47 7t-28 22q-5 19-8 34t-2 31m103-19q35 0 35 52 0 22-2 34t-11 21-26 8q-15 0-24-6t-10-21q1-7 1-23 0-23 1-36t6-16q10-13 30-13m-17 27q-4 2-5 22t-1 49q0 8 5 10t14 2q31 0 31-21 3-27 3-39 0-16-4-25t-17-9q-3 0-11 1h0q-9 2-14 9l-1 1m224-85v2q25-15 53-15 16 0 31 6t23 17l6 4q13 10 13 84 0 20-1 59-1 38-1 55 0 20 1 41-18 3-42 3h-30q-1-4-1-10h-9q-2-16-2-61v-25q0-29-1-45t-5-27q-4-1-11-1-15 0-21 10t-5 38q0 14 1 38 1 25 1 36 0 22-2 38v5q-18 5-29 5-7 0-11-1l-12 0h-6q-7 0-14 1v-11l-10 1-1-95q-1-63-1-95 0-27 1-72 12 2 23 2 4 0 13-2t25-1q14 0 14 6 0 3 5 5t5 5m-21-12q-14 0-31 3-8 1-10 1h-6q-7 0-12-1-1 15-1 45v31q0 30 1 88l1 86q6 0 16 0l24 0q10 0 22-3v-2q2-16 2-37 0-13-1-38t-1-38q0-30 7-41t24-10q18 0 23 10t7 24 1 19q1 7 1 24v17 37 16q0 15 1 22l29 0q18 0 34-2-1-19-1-32 0-17 1-56 1-41 1-60 0-35-3-56t-9-27q-17-16-46-16-16 0-29 5t-23 11-15 9l1-12q0-17-8-17m374-57q0 45 2 132 1 22 1 53t1 73q0 46-1 65l-30 1q-10 0-29 0-9 0-14-2t-5-8v-1l-6 0-1-1q-13 11-33 11-22 0-39-8t-27-21q-40-32-40-128 0-38 11-68t33-38q19-7 47-7 30 0 46 8l-1-51q0-11 1-27l1-20v-6q0-2 12-5t27-2q20 0 34 3v8l10 2v37m-12 308q1-17 1-54 0-41-1-73t-1-53q-2-90-2-138v-33q-10-2-29-2-12 0-23 0t-11 2v6l-1 17q-1 10-1 30v23q0 23 1 38-2-5-17-9t-35-4q-22 0-44 7-21 7-31 35t-10 66q1 43 7 73t27 49 60 20q25 0 37-22 0-2 2-2 2 0 3 11t1 13q11 1 25 1l22 0q7-1 20-1m-96-192q15 0 21 3t8 15 2 39q0 25-3 40t-10 24-23 9q-21 0-33-20t-13-46q0-19 4-29 5-35 47-35m26 57v-19q0-13-3-18t-13-5q-38 0-42 31l-1 1q-3 7-3 21 0 57 31 57 14 0 20-9t9-22 2-37m178-109q7 1 8 2 29-9 55-9 12 0 21 1t9 2v8q10 1 10 2l0 43q-1 8-1 22 0 8 2 30l-12-4 1 1-6-2 0 0q-20-5-27-6t-11-1-7 0q-17 0-26 7t-8 24q2 62 2 131v6q-16 5-29 5-8 0-12-1l-15 0h-6q-8 0-15 1v-11l-10 1 0-95q-1-63-1-95 0-27 1-72 12 2 22 2 4 0 13-2t26-1q16 0 16 6v5m-5 5v-10q0-1-6-1-16 0-28 1t-16 2h-6q-6 0-11-1-1 15-1 45v31q0 30 1 88l0 86q6 0 17 0l27 0q12 0 23-3v-2q0-26-1-68t-1-66q0-18 10-26t29-7q3 0 8 0t14 1 19 4q3 1 5 2t6 2l4 1q0-5 0-16v-18l0-54q0-1-10-1-19 0-45 5t-37 12q0-3-1-5t0-2m189-124v10h10l0 27q1 29 1 43-5 9-24 9-4 0-19-1h0l-17-1q-10 0-17 1v-11l-10 1q0-10-1-29-1-23-1-40v-11l78 2m-73 3v8q0 16 1 37 1 17 1 24h8q8 0 22 1l18 1q16 0 19-5 0-16-1-44 0-9 0-20l-68-2m75 107v8l10 2q0 28-1 86-2 44-2 89 0 45 2 77-4 4-11 6t-18 1q-14 0-22 0h1l-12-1q-11 0-19 3 0-4 1-13-7 1-11 3 3-34 3-69 0-20-1-60t-1-61q0-35 3-74 4 0 5 0l8-1q4 0 15 0t25 1h11l14 3m-25 2q-17 0-32-1l-14 0h-2v0q-3 27-3 69 0 19 1 60t1 62q0 34-2 62 1-1 8-1 10 0 17 1l22 0q11 0 16 0t7-3q-2-36-2-81 0-49 2-97 1-47 1-69v-2h-20m134 12v2q25-15 53-15 16 0 31 6t23 17l6 4q13 10 13 84 0 20-1 59-1 38-1 55 0 20 1 41-18 3-42 3h-30q-1-4-1-10h-9q-2-16-2-61v-25q0-29-1-45t-5-27q-4-1-11-1-15 0-21 10t-5 38q0 14 1 38 1 25 1 36 0 22-2 38v5q-18 5-29 5-7 0-11-1l-12 0h-6q-7 0-14 1v-11l-10 1-1-95q-1-63-1-95 0-27 1-72 12 2 23 2 4 0 13-2t25-1q14 0 14 6 0 3 5 5t5 5m-21-12q-14 0-31 3-8 1-10 1h-6q-7 0-12-1-1 15-1 45v31q0 30 1 88l1 86q6 0 16 0l24 0q10 0 22-3v-2q2-16 2-37 0-13-1-38t-1-38q0-30 7-41t24-10q18 0 23 10t7 24 1 19q1 7 1 24v17 37 16q0 15 1 22l29 0q18 0 34-2-1-19-1-32 0-17 1-56 1-41 1-60 0-35-3-56t-9-27q-17-16-46-16-16 0-29 5t-23 11-15 9l1-12q0-17-8-17m382 12q1 8 1 13v5q0 13 0 39l0 56q1 19 1 56 0 30-2 61v3q0 11-1 16t-9 6h-7q-7 0-18-1l-15 0q-3 0-10 1l-11 0q-8-2-11-10-6-2-8-5-26 16-51 16-27 0-47-23t-31-58-11-68q0-38 13-66t36-41 51-14q14 0 22 2t14 10q1-2 1-8t3-7 6-1 8 0 8 1h4q13 0 50 3l4 4 1 6h5l4 4m-64-12h-5l-14 0q-5 0-6 6t-1 18v2q-4-11-11-16t-16-6-24-1q-23 1-43 16t-30 41-11 59q0 29 8 60t25 52 41 22q17 0 35-9t31-20q0 3-1 8t-1 9q0 9 6 11 4 0 11-1l10 0 17 0q11 1 16 1h6q4-1 5-4t1-9v-7q2-30 2-66l0-55q-1-37-1-56 0-23 0-35v-5q0-4-1-12-14-1-49-3m-50 70q13 0 18 2t7 10 1 24v28q0 18-2 28t-8 15-21 6q-20 0-32-16t-12-38q0-17 3-27 3-13 15-23t31-9m-31 44q-3 10-3 25 0 39 29 39 13 0 18-6t7-15 1-29v-13l1-15q0-8-3-11t-9-4q-17 0-28 8t-13 20v1m491-84q-22 3-41 3-24 0-41-5 0-1 0-7-7-1-10-3 0-1 0-6 0-11-5-14t-14-4q-10 0-17 6t-7 18q0 8 4 10t8 3 7 1q31 4 59 23t44 47 17 55q0 34-15 59t-40 39-53 14q-33 0-65-15t-53-40-20-56l1-7v-7q13-2 29-2l29 1q10 0 28 0 0 6 2 10h8q0 13 6 17t16 5 19-6 7-17q0-15-11-21t-24-9-15-2l-8-2q-15-3-25-10t-21-18q-35-33-35-79 0-31 15-57t42-42 60-15q33 0 62 13t46 36 18 55q0 13-3 29h-4m-11-15q3-14 3-24 0-44-32-67t-79-22q-32 0-57 15t-41 39-14 55q0 17 7 37t23 36 37 19q5 1 26 5t34 16 12 28q0 14-9 21t-22 7q-14 0-25-8t-12-24q-15 0-23 0l-27-1q-14 0-26 2v8q0 30 18 52t46 33 58 12q28 0 51-12t38-37 14-57q0-28-14-52t-39-40-52-19q-34-4-34-30 0-13 9-21t20-7q14 0 25 8t10 21q0 5 0 6 16 5 34 5 16 0 41-4h0m99-122q7 1 9 7t3 20l-1 35 0 59q22-15 52-15 16 0 31 6t22 17l6 4q13 10 13 84 0 20-1 59-1 38-1 55 0 20 1 41-18 3-42 3h-30q0-4 0-10h-10q-1-16-1-61v-25q0-27-1-44t-6-28q-3-1-10-1-15 0-21 10t-6 38q0 14 1 38 1 25 1 36 0 22-2 38v5q-17 5-29 5-7 0-11-1l-12 0h-5q-8 0-15 1v-11l-10 1q0-58 0-95l-1-150v-57q0-53 1-72 12 1 23 1 4 0 13-1t25-2q14 0 14 6v4m-4 10v-9q0-4-1-5t-6-1q-14 0-31 2-8 1-10 1h-6q-7 0-12-1-1 60-1 115v69l1 112q0 26 0 67 6 0 16 0l24 0q11 0 22-3v-2q2-16 2-37 0-13-1-38t-1-38q0-30 8-41t24-10q18 0 23 10t6 24 2 19q1 7 1 24v17 37 16q0 15 1 22l29 0q18 0 33-2-1-19-1-32 0-17 1-56 1-41 1-60 0-35-2-56t-9-27q-17-16-47-16-16 0-28 5t-24 11-14 9v-126m375 109q1 8 1 13v5q-1 13-1 39l1 56q0 19 0 56 0 30-1 61v3q0 11-2 16t-9 6h-7q-7 0-18-1l-14 0q-4 0-11 1l-11 0q-8-2-10-10-7-2-8-5-26 16-52 16-26 0-47-23t-31-58-10-68q0-38 13-66t35-41 52-14q14 0 21 2t15 10q0-2 1-8t2-7 7-1 8 0 7 1h5q13 0 49 3l5 4 0 6h5l5 4m-64-12h-6l-13 0q-5 0-6 6t-1 18v2q-5-11-12-16t-15-6-24-1q-24 1-43 16t-30 41-11 59q0 29 8 60t24 52 41 22q17 0 35-9t31-20q0 3-1 8t-1 9q0 9 6 11 4 0 11-1l11 0 16 0q11 1 16 1h6q4-1 5-4t2-9v-7q2-30 2-66l-1-55q-1-37-1-56 0-23 1-35v-5q0-4-1-12-14-1-49-3m-50 70q12 0 17 2t7 10 2 24v28q0 18-2 28t-9 15-20 6q-21 0-33-16t-12-38q0-17 3-27 3-13 15-23t32-9m-32 44q-3 10-3 25 0 39 30 39 12 0 18-6t6-15 2-29v-13l0-15q0-8-2-11t-9-4q-18 0-28 8t-14 20v1m376-171q0 45 2 132 0 22 1 53t0 73q0 46 0 65l-30 1q-10 0-30 0-9 0-14-2t-4-8v-1l-7 0-1-1q-13 11-32 11-22 0-39-8t-28-21q-39-32-39-128 0-38 11-68t33-38q18-7 46-7 30 0 46 8l-1-51q0-11 1-27l2-20v-6q0-2 12-5t27-2q19 0 34 3v8l10 2v37m-12 308q0-17 0-54 0-41 0-73t-1-53q-2-90-2-138v-33q-11-2-29-2-13 0-24 0t-10 2v6l-1 17q-1 10-1 30v23q0 23 0 38-2-5-17-9t-34-4q-23 0-45 7-21 7-31 35t-9 66q1 43 7 73t26 49 60 20q26 0 37-22 1-2 2-2 2 0 4 11t0 13q12 1 26 1l22 0q7-1 20-1m-96-192q15 0 21 3t7 15 2 39q0 25-2 40t-10 24-24 9q-20 0-33-20t-12-46q0-19 3-29 6-35 48-35m25 57v-19q0-13-3-18t-12-5q-38 0-43 31l0 1q-3 7-3 21 0 57 30 57 14 0 21-9t8-22 2-37m106-94q7-16 29-24t51-8q4 0 18 0l12 0q19 0 37 6t30 17h0q1 2 4 5t6 5l-1 0q14 9 18 36t5 67q0 35-4 73t-13 47q-10 15-28 21t-42 5q-26 0-42-1t-31-9-29-21l-4-4q-16-15-21-38t-6-53v-18l1-17q0-6-1-11t0-10q0-22 1-33t7-26h0q0-3 1-6t2-4v0l-1 2 1-1m-6 67l0 21v37q0 44 15 73t53 35l24 1q17 1 26 1 24 0 40-5t26-19q9-8 11-38t5-79q0-5-1-33t-6-44-13-22q-23-22-66-22l-19 0q-6 0-10 0-25 0-47 7t-28 22q-5 19-8 34t-2 31m103-19q35 0 35 52 0 22-2 34t-11 21-26 8q-15 0-24-6t-10-21q1-7 1-23 0-23 1-36t6-16q10-13 30-13m-17 27q-4 2-5 22t-1 49q0 8 5 10t14 2q31 0 31-21 3-27 3-39 0-16-4-25t-17-9q-3 0-11 1h0q-9 2-14 9l-1 1m210-85q3 16 5 30t4 27q9 58 13 75 4-18 19-92 2-10 12-56 5 1 12 1l19 0q5-1 15-1 7 0 18 2l1 9q2 0 9 1 4 19 10 63 7 52 12 73 4-17 14-65 6-31 10-50t9-30q9 0 25-1 17-1 26-1l24 1-3 9 13 1q-13 34-22 69t-19 88q-2 8-9 41t-15 61q-15 2-38 2l-30 0q-10-1-29-1l-2-10h-8q-3-14-9-57-2 12-2 18-1 4-3 19t-6 29q-15 2-40 2l-34 0q-10-1-29-1l-1-10h-9q-24-149-54-263 15 3 25 3 11 0 17-1 4 0 15 0t20 1l5 4q0 4 1 5t4 1l5 4m-35-10l-29 1h-8q-9 0-13-1 28 102 52 251 15 0 24 1l33 0q23 0 37-2 5-20 11-63 5-35 8-52 4 19 14 82l6 34q15 0 24 1l29 0q21 0 35-2 11-40 23-101 11-50 19-84t20-65q-6 0-16 0-10 0-26 1-15 1-23 1-4 12-10 39t-7 35q-15 74-24 96-6-17-10-41t-12-72q-6-41-10-59-8-1-14-1l-13 0q-9 1-16 1-8 0-12 0l-1 5q-1 5-2 12t-3 12l-1 6-11 52q-7 34-11 50t-11 35q-6-18-12-46t-11-68q-9-57-9-57-13-1-20-1" />
</svg>