<svg id="fnt-Loved by the King" viewBox="0 0 2847 1000" xmlns="http://www.w3.org/2000/svg"><path id="loved-by-the-king" class="f" d="M60 244l13 11-10 47 1 100v50q0 80-13 179v3l7 7h60l34-10 7 10q0 31-126 31-13 0-13-14h-3q27-70 27-206l-2-194q4-14 18-14m196 159q32 0 44 91l-3 4v20q-9 155-54 155l-4 3h-3q-51-11-51-128 0-145 71-145m-50 128q7 118 30 118h3q29 0 37-121v-48q0-45-30-50-40 12-40 101m226-124q6 1 13 17-10 20-61 219-13 27-27 31-20 0-20-95l-14-142q5-20 21-20l10 14-3 27q1 158 16 158 44-134 44-172l-3-27q12-10 24-10m88-22q54 16 54 54v10q0 75-68 104h-23v7q0 61 30 85h11q19 0 54-54l3 3h3q-24 78-67 78-40 0-65-139-5 0-6-17 13-10 24-87 26-44 50-44m-41 125q3 16 11 16h20q41-19 41-77v-4q-5-33-31-33-41 0-41 98m246-216q19 0 23 17l-7 24q9 342 16 334l-11 8q-14-6-15-6l-3-141-3-3h-4q-20 142-61 142h-6q-41 0-41-81 0-59 58-115 47-11 47-37v-47l-7-78q7-15 14-17m-85 280v34q0 26 17 34h3q20 0 48-149l-3-3h-14q-51 31-51 84m402-311l17 10-4 30 14 169h3q30-41 51-41h10q41 35 41 72-23 112-81 168l-4 3q-14-3-14-16h-6q-25 0-27-11v-3l6-27q0-230-23-337 0-9 17-17m37 381l3 3q32-18 58-104l7-27q0-58-31-58-32 0-37 186m216-206l13-21h11l13 14q-6 13-6 37v24l-4 87 4 4v3l-4 34q0 246-23 246h-14l-13-17q20-15 20-64 10-92 10-260h-3q-5 2-48 112-14 13-30 17-30 0-30-102 0-80 30-98l10 4v13q-17 21-17 64v21q0 60 13 60h4q64-108 64-178m338-170l12-4 7 0 2 24v3q0 78 10 78l33-11q3 7 6 14-6 6-2 7l-41 20 7 176v13q-1 50-7 80l-16-1-1-53v-83-37q0-88-10-88l-31 3-11-5 1-8 6-1h7q32-5 32-23l-7-101 3-3m89-3h10l10 10v3l-6 27v24l6 169 4 10h6q23-85 68-85 32 0 37 186l7 37-10 17q-18 0-21-34v-23q0-152-27-152-41 16-50 162 2 47 7 47-7 15-14 17h-10q-17-10-17-27l7-17q-14-348-27-348 5-15 20-23m232 120q54 16 54 54v10q0 75-68 104h-23v7q0 61 30 85h11q19 0 54-54l3 3h3q-24 78-67 78-40 0-65-139-5 0-6-17 13-10 24-87 26-44 50-44m-41 125q3 16 11 16h20q41-19 41-77v-4q-5-33-31-33-41 0-41 98m404-245l17-10q11 4 14 14l-7 50v176h10q81-142 81-196 14-13 27-13l13 17q-23 32-108 216v10q29 125 78 125v13l-17 3q-40 0-81-118h-3l-17 145-3 4h-14q-8 0-10-14 12 0 24-236l-4-186m182 87q13 0 24 13 0 10-24 24-9 0-16-17 6-18 16-20m-6 88h6l11 13q-14 14-14 74 2 64 20 125v7l-10 10h-10q-16 0-24-159 0-70 21-70m126-70h3q40 0 47 152v61l4 37-4 13 4 31-11 6q-16-4-16-23v-112q0-118-24-128h-3q-36 19-44 149v94l3 14q-7 20-13 20-17 0-21-14l4-91-10-152v-20l13-13q14 5 14 10l-4 50 4 4h6q0-50 48-88m209 25h7l10 10v17q-24 45-24 111l4 199q0 152-47 152 0 7-17 7-41-9-41-37v-4h7q22 17 37 17 37 0 37-111v-165l-3-24h-7q-25 94-74 94h-4q-11-1-23-50 0-102 64-179l51-20q0-17 23-17m-108 148l-3 27v54q0 10 14 10 27 0 67-162v-30q-57 0-78 101" />
</svg>