<svg id="fnt-Lovers Quarrel" viewBox="0 0 1801 1000" xmlns="http://www.w3.org/2000/svg"><path id="lovers-quarrel" class="f" d="M261 694q-49 0-131-58-26 39-64 39-7 0-15-1-26-5-40-20t-14-32q0-14 11-24t29-10q6 0 14 1 19 4 54 21 7-13 12-29-33 2-52-11t-19-35q0-13 7-26-18-26-18-58 0-53 39-72 9-5 18-5 22 0 36 22 16 25 16 69 0 35-11 79 9 0 18-3 8-40 16-70t19-47q28-50 54-50 15 0 24 16t10 41q0 30-14 57t-39 51q-29 25-66 36-5 17-10 29t-10 23q12 7 23 13t23 11q31 14 55 22t43 8q27 0 34-21 2-4 4-4 2 0 1 5-8 19-30 28-12 5-27 5m-134-150q9-43 9-78 0-44-14-67-12-21-31-21t-33 19q-15 20-15 49 0 27 14 55 8-13 22-22 2-1 3-1 2 0 1 1-16 13-22 30 22 33 66 35m31 21q45-12 75-55 30-43 30-91 0-26-10-31-2-2-5-2-10 0-23 19-21 28-43 88-3 7-6 17t-8 25q28-14 46-50 0-1 1-1 4 0 2 3-19 38-51 53l-4 14q-1 3-2 6t-2 5m-39 7q2-6 4-12t3-12q-41-1-66-30-2 24 17 40 17 14 42 14m7 0q9-1 19-3l5-23q-8 2-18 2-1 6-3 12t-3 12m-16 41l17 9q2-5 6-16 4-11 10-29l-10 2q-5 1-10 2-4 10-7 17t-6 15m-57 55l4 1h5q40 0 60-38l-6-3q-3-1-6-2t-6-4q-22 37-51 36-2 0-3-2l2-2q28 1 48-34-13-5-22-9t-16-5q-7-1-13-1-17 0-27 8t-9 20q0 12 10 22 11 11 30 13m206 5q-12 0-20-12t-8-29q0-15 5-30 18-56 45-58 3-4 9-4 10 0 19 9t11 19q7 8 19 8 4 0 12-1t12-1q2 0 1 3 0 2-5 4-9 5-22 6h-6q-9 0-13-2 3 19-18 54-18 34-41 34m3-10q13 0 28-24 4-6 8-14t6-18q5-17 4-25-18-3-21-21-14 4-26 34-12 29-12 46 0 22 13 22m99 5q-17 0-17-17 0-13 9-41 8-27 8-32-3-10-7-12t6-16q1-3 8-3 17 0 17 6 0 8-10 46-9 36-9 48 0 9 6 9 14 0 39-30 29-35 31-55-11-11-11-26 0-13 8-13 12 0 12 22 0 10-1 15 7 4 13 4 7 0 11-5 3 1 3 3 0 6-6 8-5 1-9 1-8 0-14-4 0 7-8 24-5 9-11 17t-12 15q-33 36-56 36m135 5q-15 0-25-10t-10-31q0-6 1-13 5-26 21-49 21-28 43-28 11 0 21 6t10 19q0 13-11 28h10q3 0 3 0 0 3-18 7-11 12-17 12-1 0-1-1 0 1 8-10-7 0-18 1t-25 3q-6 15-6 28 0 16 9 24 6 5 14 5 1 0 3 0t3-1q32-5 62-37 2-3 4-1 0 1 0 2 0 2-3 5-10 13-33 26-25 15-45 15m-3-77q7 0 18 0l25-1q5-11 7-17t1-11q0-10-8-10-10 0-22 12-7 7-12 13t-9 14m84 72q-5 0-4-5 1-7 3-20t5-34q1-10 2-18t1-14l2-18q0-6 6-10t13-4q9 0 7 8l-7 26q-3 7-5 14t-4 16q12-22 30-41 19-20 29-20 12 0 17 14 5 13 0 13-1 0-3-4-5-9-13-9-20 0-49 44-17 25-25 58-1 4-5 4m79 12q-19 0-19-8 0-9 16-10 21-1 52-5 4-7 4-12 0-8-11-18-28-24-28-46 0-7 4-14 17-29 42-29 10 0 18 6t7 12q0 2-1 3t-1 2-3-3q-1-8-9-8-13 0-26 13-13 14-13 27 0 11 14 28 15 17 15 26 0 4-3 10 7-3 16-9t24-13q1 1-12 12l-32 19q-4 7-21 12-15 5-33 5m355 15q-23 0-46-15-14 3-26 3-41 0-61-20-19-18-19-50 0-21 8-45-9-17-9-35 0-46 51-82 16-35 47-54 27-19 56-19 44 0 56 36 3 10 3 20 47 26 47 80 0 52-37 96 1 3 1 5t0 5q0 20-9 38-13 24-40 33-10 4-22 4m-92-250q43-25 96-25 28 0 52 12 0-9-3-17-12-33-52-33-26 0-50 16-27 17-43 47m36 219q32-6 63-26t53-47q-7-18-23-32t-35-13q-22 0-35 24 0 1-1 1-5 0-3-3 14-26 39-26 18 0 36 13t26 31q26-37 26-79 0-41-32-64-4 17-16 29t-30 13q-2 0-2-2t2-2q16-1 27-12t16-28q-22-14-51-14-63 0-104 38-4 10-6 20t-3 22q50-57 104-57 7 0 7 3 0 3-7 3-25 0-54 20-14 10-27 23t-24 28l1 17q6 76 53 120m-83-108q7-20 22-39 1-22 6-41-11 13-18 27-11 22-11 46 0 4 1 7m65 110h5q2 0 4-1-47-47-52-128-25 40-25 72 0 27 18 43t50 14m77 25q10 0 18-4 23-8 35-28 10-19 9-43-41 48-101 63 19 12 39 12m89 130q-12 0-23-3-36-10-88-56-58-52-81-64-11-5-21-5-10 0-18 5-14 10-14 29 0 30 32 38 6 2 6 4 0 2-4 2l-5-1q-39-13-39-42 0-16 13-28t33-12q10 0 23 4t28 13 31 22l57 47q35 26 70 35 9 2 16 2 22 0 33-15 2-2 4-3t1 1q0 1-1 3-18 24-53 24m34-152q-19-3-19-27 0-37 36-91 3-4 13-4 15 0 15 5l0 1q-6 6-13 15t-14 23q-12 21-18 40-4 9-4 17 0 10 7 10 7 0 18-11 4-4 40-56 8-10 12-10 4 0 4 9 0 4-1 8t0 9q0 51 21 51 13 0 30-17l9-10q2-1 3 2-2 6-17 19-20 16-36 16-4 0-9-1-13-5-18-32-4-20-3-25-3 6-20 29-23 32-36 30m137 0q-16-3-16-23 0-30 28-67 29-39 60-39 11 0 19 4t9 15q0 12-9 13 3-5 3-10 0-11-13-11-12 0-26 12-34 30-50 69-5 12-5 20 0 6 4 6 5 0 18-11 8-8 37-49 7-10 12-10 4 0 4 21v28q4 22 15 22 6 0 15-5t17-13l9-10q2 0 4 2-2 6-18 19-19 16-36 16-4 0-9-1-13-5-17-28-1-7-2-11t0-8q0-1 0-2-3 6-18 25-21 28-35 26m119-1q-5 0-4-5 1-7 3-20t5-34q1-10 2-18t1-14l2-18q0-6 6-10t13-4q9 0 7 8l-7 26q-3 7-5 14t-4 16q12-22 30-41 19-20 29-20 12 0 17 14 5 13 0 13-1 0-3-4-5-9-13-9-20 0-49 44-17 25-25 58-1 4-5 4m83 0q-5 0-5-5 2-7 4-20t4-34q1-10 2-18t2-14l1-18q1-6 7-10t13-4q9 0 6 8l-7 26q-2 7-4 14t-5 16q13-22 30-41 20-20 29-20 12 0 17 14 6 13 1 13-1 0-4-4-4-9-12-9-20 0-50 44-16 25-25 58-1 4-4 4m114 5q-15 0-25-10t-10-31q0-6 1-13 4-26 21-49 20-28 42-28 12 0 22 6t10 19q0 13-11 28h10q2 0 3 0 0 3-19 7-11 12-16 12-1 0-1-1 0 1 7-10-6 0-17 1t-26 3q-5 15-5 28 0 16 9 24 5 5 13 5 2 0 3 0t3-1q32-5 62-37 3-3 4-1 1 1 1 2 0 2-3 5-11 13-33 26-25 15-45 15m-4-77q7 0 18 0l25-1q6-11 7-17t2-11q0-10-8-10-10 0-22 12-7 7-13 13t-9 14m112 73q-25 0-25-35 0-14 4-36h-1q-4 0-4-3 0-4 9-14 30-124 79-166 11-9 23-9 17 0 17 17 0 37-36 84-20 25-64 69-11 39-11 62 0 22 15 22 11 0 27-9t25-20q4-5 6-5 1 0 1 2 0 6-3 9-9 11-28 21-21 11-34 11m4-104q27-25 54-63 35-48 36-75v-1q0-12-7-12-8 0-19 14-7 8-16 24t-20 40q-10 22-17 40t-11 33" />
</svg>