<svg id="fnt-Luckiest Guy" viewBox="0 0 3085 1000" xmlns="http://www.w3.org/2000/svg"><path id="luckiest-guy" class="f" d="M227 527l-10 109-206 16q2-85 4-169t4-170h127q-6 54-11 107t-7 107q11 1 23 1t22 0q14 0 27 0t27-1m303-204q-11 86-19 171t-15 171l-100 8 4-38q-5 6-11 10t-14 6-15 4-15 1q-17 0-31-7t-27-16-22-24-17-29-10-32-3-30q0-22 0-46t4-47 5-47 9-44q30 1 60 2t60 1q-6 21-11 43t-10 43-7 43-3 44q0 5 1 15t2 18 6 17 13 7q9 0 16-8t13-22 10-31 7-36 4-39 3-37 1-31 0-21q0-5 0-10t-1-9q16 0 32 1t31 0q12 0 25 0t25-1m243 10l-9 103q-7-2-14-3t-14 0q-17 0-33 4t-28 14-19 22-7 33q0 14 4 24t11 17 18 10 24 3q9 0 19-2t19-5 18-7 16-9l-4 115q-9 5-20 9t-23 6-23 5-22 1q-35 0-63-13t-49-35-32-52-11-63q0-40 12-75t33-60 55-40 75-15q16 0 34 3t33 10m205-11l118 29-107 129 99 168-114 20-74-101-4 96-101 4 7-350 114 6-9 101 71-102m117 8l130-7-17 332-103 6-10-331m422 139q0 22-3 43-41 3-83 9t-82 11q6 18 20 28t32 11q10 0 21-4t24-9 22-12 18-11l-12 111q-10 7-21 12t-23 8-24 5-24 2q-24 0-44-7t-36-19-29-27-20-36-12-40-4-43q0-23 4-45t12-44 22-39 29-31 39-21 48-8q22 0 40 6t32 17 24 25 17 32 10 37 3 39m-97-7v-5q0-7-2-14t-5-13-8-10-14-4q-9 0-17 5t-13 14-8 17-6 17l73-7m363 80q0 33-11 57t-32 40-47 24-58 7q-12 0-26-3t-29-8-28-10-24-11l10-95q21 12 46 19t50 6q5 0 11 0t13-3 10-5 4-11q0-4-3-7t-7-6-11-3-11-2-11 0-8 0q-21 0-38-7t-29-18-20-30-6-38q0-29 11-52t31-38 45-25 52-8q12 0 24 0t26 4 24 5 23 9l-9 99q-17-6-35-10t-36-3q-3 0-8 0t-10 0-11 2-10 4-8 5-2 8q0 6 4 8t10 5 13 1 14 0 13-1 10 0q20 1 36 8t26 19 17 28 5 36m3-219l266-1-3 104-72 3-9 226-103 6-10-227-72 4 3-115m669 130l3 164q-11 14-28 25t-36 18-40 10-39 4q-35 0-65-13t-51-35-34-52-12-66q0-26 6-52t17-48 28-41 37-33 46-21 52-8q11 0 23 1t24 3 23 6 20 9l-7 93q-13-5-28-7t-28-2q-20 0-37 6t-29 18-20 27-8 36q0 13 4 25t10 21 18 15 24 5q9 0 19-2t17-9l1-19-59-1 3-73q36-1 73-2t73-2m313-130q-11 86-19 171t-15 171l-100 8 4-38q-5 6-11 10t-14 6-15 4-15 1q-17 0-31-7t-27-16-22-24-17-29-10-32-3-30q0-22 1-46t3-47 5-47 9-44q30 1 60 2t60 1q-6 21-11 43t-10 43-7 43-3 44q0 5 1 15t2 18 6 17 13 7q9 0 16-8t13-22 10-31 7-36 4-39 3-37 1-31 0-21q0-5 0-10t-1-9q16 0 32 1t31 0q12 0 25 0t25-1m198 5l117 8-114 188 3 138h-126l3-137-89-182 125-15 39 105 42-105" />
</svg>