<svg id="fnt-Lugrasimo" viewBox="0 0 2828 1000" xmlns="http://www.w3.org/2000/svg"><path id="lugrasimo" class="f" d="M342 615q-11 12-27 24t-34 20-35 8h-194q18-14 27-28t14-37l57-286h-51q4-2 12-8t19-13 18-11 12-5h122q-9 3-20 12t-22 17-18 8h-20l-40 200q-3 17-6 34t-8 34q-3 13-11 26t-21 20h173q14 0 28-3t25-12m341 15q-13 4-21 11t-17 14-19 11-28 5q-23 0-23-24 0-5 1-10t2-9q-25 15-54 30t-60 14q-17 0-27-8t-14-22-4-28q0-9 1-18t3-17l19-97q1-4 1-8t1-9q0-25-24-25-11 0-20 4 11-9 25-18t28-17 29-6q13 0 18 7t5 19q0 12-3 23t-4 22q-5 21-10 42t-9 43q-1 7-2 14t-1 14q0 27 15 38t40 10q13 0 26-7t23-14l29-142q1-7 1-13 0-7-3-12t-12-6q-3 0-6 1t-6 2q8-6 21-16t26-16 24-7q8 0 12 5t4 13q0 3-1 8l-34 171q-2 6-2 11 0 12 8 16t19 5q6 0 12-1t11-3m348-230q-2 7-13 15t-24 13-20 8q4 11 4 25 0 27-11 47t-29 36-37 27-38 22-28 19-12 18q0 10 10 17t26 15 33 14 33 15 25 19 10 24q0 15-11 27t-30 24-40 19-44 14-41 9-30 3q-9 0-24-1t-30-6-25-12-10-21q0-17 13-31t32-26 38-21 32-16q-8-4-17-11t-9-16q0-9 8-18t18-16 22-15 18-11q-6 2-12 3t-12 1q-28 0-42-19t-15-45q0-24 11-46t31-40 43-32 48-20 46-8q20 0 40 1t39 1q6 0 12-2t12-3m-167 40q-22 0-35 10t-17 25-5 36q0 29 14 47t45 19q14 0 24-9t16-21 9-27 3-25q0-26-14-40t-40-15m-64 260q-7 3-18 9t-21 12-18 15-7 18q0 7 8 13t21 11 28 9 26 5 17 1q8 0 19-1t22-4 18-9 7-17q0-13-12-23t-30-17-33-13-27-9m536-295q-11 14-27 25t-36 17-37 6q-10 0-20-4t-18-9-20-4-19 12-14 29-10 38-8 37-4 26q-2 9-5 19t-3 19q0 8 4 14t12 6q6 0 13-3-12 9-21 18t-19 15-27 6q-8 0-15-5t-6-14q0-2 0-4 8-42 17-84t17-83q1-5 2-10t1-10q0-13-7-17t-19-5q-10 0-22 4-1 0-2 1 0 0 2-1 13-4 21-11t16-14 19-11 28-5q23 0 23 23 0 4-1 8t-1 9q14-9 32-19t36-17 34-8q11 0 21 4t17 9 16 4q7 0 16-4t14-7m208 205q0 13 7 19t20 5q8 0 16-2-11 9-23 18t-26 15-27 6q-12 0-19-4t-8-17q0-5 1-10t2-9q-14 9-28 19t-30 16-32 6q-37 0-56-20t-19-57q0-37 16-72t43-62 62-45 71-16q18 0 35 5t34 10l-36 177q-1 5-2 9t-1 9m-52-2l26-133q-16-39-58-39-21 0-36 14t-25 35-14 44-5 40q0 32 16 50t49 17q7 0 17-4t19-10 11-14m273-150q2-1 3-2 4-4 4-7 0-5-8-8t-16-3-13-1q-15 0-24 7t-9 23q0 14 8 22t21 13 27 9 27 9 21 15 8 24q0 19-11 36t-30 31-40 25-42 17-37 5q-7 0-19-2t-22-7-10-14q0-8 8-15t19-13 22-11 16-11q-2 3-4 7t-2 8q0 6 6 11t17 6 19 3 14 1q17 0 27-10t9-26q0-14-8-23t-21-15-26-10-27-11-21-14-8-21q0-14 12-30t28-28 39-25 39-16 32-6q5 0 14 0t15 4 9 8q-2 7-7 10t-11 6q-12 6-23 13t-22 14q-1 1-3 2m224-211l60-37q-1 7-3 18t-4 22-6 18q0 2-8 7t-19 12-20 11-12 7l12-58m-18 365q0 15 9 19t22 4q9 0 17-1-11 8-23 16t-26 15-27 7-23-6-8-20q0-4 0-9t2-8l26-128q1-5 2-10t0-10q0-9-4-15t-14-6q-6 0-12 1t-12 3q28-18 56-36t58-32l-42 204q-1 7-1 12m549 18q-12 8-25 18t-27 16-29 7q-26 0-26-26 0-8 2-17t3-16q5-25 10-50t10-51q2-6 3-12t0-13q0-23-13-33t-36-10q-20 0-35 11t-25 27-13 35l-15 77q-1 4-1 9t-1 8q0 24 25 24 5 0 11-1t10-3q-11 8-24 18t-28 16-28 7q-25 0-25-26 0-8 1-17t4-16q4-25 10-50t10-51q1-6 2-12t1-13q0-22-12-33t-35-10q-21 0-36 13t-23 33-13 38l-17 83q0 4 0 7 0 8 3 13t12 6q4 0 7-1t6-2q-8 6-21 15t-27 17-24 7q-8 0-12-4t-4-13q0-3 1-6l35-174q1-3 1-6t1-7q0-13-8-17t-19-5q-5 0-11 2t-12 3q13-5 22-12t17-14 19-11 27-5q24 0 24 23 0 7-2 13t-3 12q16-9 37-20t45-18 40-7q17 0 31 10t13 28q0 4 0 7 12-6 28-14t34-15 34-12 30-4q20 0 32 11t12 32q0 5-1 11l-27 137q-1 4-2 9t0 8q0 12 6 16t18 4q6 0 12-1t11-3m119 41q-25 0-44-12t-29-32-11-45q0-25 12-51t31-49 44-42 51-29 51-11q25 0 44 12t28 32 10 44q0 26-11 52t-30 49-44 42-50 29-52 11m44-235q-18 0-31 11t-20 27-12 35-4 32q0 26 9 47t28 34 45 13q18 0 31-11t21-27 12-35 4-32q0-26-10-47t-27-34-46-13" />
</svg>