<svg id="fnt-Lunasima" viewBox="0 0 2264 1000" xmlns="http://www.w3.org/2000/svg"><path id="lunasima" class="f" d="M253 628v39h-201v-349h44v310h157m235-87v-136h43v262h-35l-6-35h-2q-13 20-35 30t-48 10q-48 0-72-23t-24-73v-171h44v168q0 63 58 63 44 0 60-25t17-70m261-141q47 0 71 23t24 73v171h-42v-168q0-63-59-63-44 0-61 25t-16 70v136h-43v-262h34l7 36h2q13-21 36-31t47-10m279 1q47 0 69 21t23 66v179h-31l-8-37h-2q-17 21-36 31t-50 11q-35 0-58-19t-23-59q0-39 30-60t92-24l44-1v-16q0-32-14-45t-39-13q-20 0-38 6t-34 14l-13-32q17-9 40-16t48-6m49 161v-23l-37 1q-47 2-66 16t-18 38q0 22 13 33t34 10q32 0 53-18t21-57m317 32q0 38-31 58t-83 20q-30 0-51-5t-38-12v-39q16 7 41 14t50 7q37 0 54-11t17-28q0-9-6-17t-22-16-44-17q-28-10-48-20t-31-23-11-36q0-33 29-51t78-18q25 0 48 5t42 13l-15 34q-18-7-38-12t-41-5q-30 0-46 9t-16 23q0 11 7 18t24 15 44 17q28 9 47 19t30 24 10 34m97-287q11 0 19 6t8 21q0 14-8 21t-19 6q-12 0-20-6t-8-21q0-14 8-21t20-6m-22 360v-262h43v262h-43m428-267q45 0 67 23t22 73v171h-42v-169q0-62-54-62-38 0-55 22t-16 64v145h-43v-169q0-62-54-62-40 0-55 25t-16 70v136h-43v-262h35l7 36h2q12-21 33-31t45-10q62 0 80 44h3q13-22 36-33t48-11m273 1q47 0 70 21t22 66v179h-31l-8-37h-2q-17 21-35 31t-51 11q-35 0-58-19t-23-59q0-39 30-60t93-24l43-1v-16q0-32-14-45t-38-13q-20 0-38 6t-34 14l-13-32q16-9 39-16t48-6m50 161v-23l-38 1q-47 2-65 16t-18 38q0 22 13 33t33 10q32 0 53-18t22-57" />
</svg>