<svg id="fnt-Lusitana" viewBox="0 0 1828 1000" xmlns="http://www.w3.org/2000/svg"><path id="lusitana" class="f" d="M15 311l64 1 62-1 4 22q-28 3-34 5t-6 14v258q0 21 8 27t25 7h49q38 0 59-18t34-55l17 3q0 9-13 51t-18 42l-128 1-61-1-55 1-4-22q28-3 35-6t6-13v-275q0-10-7-14t-32-5l-5-22m402 362q-71 0-71-76v-111q0-8-5-12t-23-5l-3-19q13 2 36 2t37-2v130q0 58 53 58 14 0 29-6t23-14v-132q0-9-5-12t-22-5l-4-19q12 2 36 2t37-2v161q0 16 5 24t18 7h18l3 16q-6 1-22 3t-21 4-17 4-16 4q-7 0-7-3l-1-31q-8 8-11 10t-9 6-11 7-13 5q-15 6-34 6m267-23q41 0 41-33 0-14-12-23t-30-16-34-13-30-23-12-40 22-41 53-16 68 12q5 3 5 22t-3 34l-20-2q-3-20-16-33t-32-12-29 8-11 21 12 22 30 15 35 12 30 23 13 42-22 45-56 19-74-15q-3-2-5-23t-2-35v-3l24-2q8 55 55 55m226 18l-49-1-54 1-4-20q24-2 29-4t5-13v-127q0-25-25-25-6 0-10 1l-4-15q32-8 41-11l31-12q6 0 8 1t1 7v181q0 9 5 12t22 5l4 20m-52-285q-12 0-21-8t-8-20 9-22 21-9 21 8 8 20-9 22-21 9m150 213q0 24 8 37t23 13 28-8q2-1 4 1l9 13q-28 21-57 21t-44-19-14-43v-125q0-6-2-8t-4-1h-18l-4-15q21-6 34-21t26-39h5q4 0 4 3l2 40q0 7 6 7h57l5 25h-63q-5 0-5 7 0 1 0 1v1l0 110m187 49q25 0 38-17v-56q-43 7-58 16t-14 27q1 15 10 22t24 8m101-3h11q2 0 3-1 2 13 4 16-6 3-28 9t-31 7-14-8-6-25q-8 12-25 22t-34 11h-2q-24 0-42-14t-17-39 24-39 94-27v-30q0-54-41-54-14 0-26 7v34q0 3-14 5t-17 3-8-1q-4-4-4-18t8-23q7-10 36-21t44-10q63 0 63 71v100q0 16 6 20t16 5m48-160l-8 1-4-15q35-8 51-17t19-9q6 0 7 1 2 2 3 32 24-15 42-22t40-7q70 0 70 74v111q0 9 4 12t22 5l5 20-49-1-54 1-4-20q24-2 28-4t5-13v-94q0-32-12-44t-40-13-56 14v137q0 9 5 12t22 5l4 20-49-1-54 1-4-20q24-2 29-4t5-13v-117q0-18-7-25t-20-7m364 163q26 0 38-17v-56q-43 7-57 16t-15 27q1 15 11 22t23 8m102-3h10q3 0 4-1 2 13 3 16-6 3-27 9t-31 7-14-8-6-25q-9 12-26 22t-33 11h-3q-24 0-41-14t-17-39 23-39 94-27v-30q0-54-40-54-14 0-27 7v34q0 3-13 5t-18 3-8-1q-4-4-4-18t8-23q8-10 36-21t45-10q63 0 63 71v100q0 16 6 20t16 5" />
</svg>