<svg id="fnt-Lustria" viewBox="0 0 1612 1000" xmlns="http://www.w3.org/2000/svg"><path id="lustria" class="f" d="M101 350v271q0 10 6 16t18 7h73q26 0 45-13t26-37q3-8 11-8t7 9l-8 52q-1 8-7 14t-16 6h-177l-57 2q-7 0-7-7t6-7l14-1q10-1 17-6t6-14v-284q0-18-23-20l-14-2q-6-1-6-6 0-7 7-7l57 2 49-2q8 0 8 6 0 7-7 7l-8 2q-20 3-20 20m464 88v183q0 16 10 26t24 10q7 0 7 6 0 9-19 9-30 0-52-24-1-2-3-4t-2-3q-2-3-5-3t-6 4q-34 30-78 30t-69-25-26-71v-126q0-10-4-14t-13-4h-17q-3 0-5-2t-2-5q0-6 7-7l66-7q1 0 2 0 10 0 10 8 0 1-2 6t-3 13v146q0 31 19 49t50 18 51-23 21-51v-127q0-10-5-14t-13-4h-22q-2 0-5-2t-2-5q0-6 7-7l70-7q1 0 3 0 10 0 10 8 0 1-2 6t-2 13m245 164q0 32-26 51t-61 19-60-8-24-19v-44q0-9 6-9t10 9q15 52 65 52 22 0 37-12t14-28-13-29-33-21-39-19-32-26-14-36q0-31 24-51t62-20q26 0 48 9t21 19v38q0 9-7 9t-9-9q-13-46-56-46-20 0-33 9t-14 26 14 29 33 22 40 19 33 27 14 39m202 41q0 9-20 19t-41 10q-36 0-52-17t-16-58v-150q0-5-6-5h-31q-2 0-4-2t-2-4l2-13q1-6 6-6h30q4 0 4-6l5-69q0-10 9-10 7 0 10 8l16 70q2 7 8 7h74q7 0 6 6l-2 13q-1 6-6 6h-76q-4 0-4 5v155q0 47 37 47 16 0 32-6l16-6q5 0 5 6m85-232q8 0 8 12v27q0 2 2 2t4-3q12-14 32-26t36-12 24 4 9 8v38q0 8-7 8-4 0-11-8-14-17-36-17t-38 21-15 61v108q0 18 26 20l21 1q6 1 6 7t-8 7l-66-2-54 2q-7 0-7-7t6-7l14-1q10-1 16-6t7-14v-183q0-10-5-14t-13-4h-17q-7 0-7-6t7-8l65-8q0 0 1 0m232 243l8 1q6 1 6 7t-7 7l-48-2-54 2q-7 0-7-7t6-7l14-1q10-1 16-6t7-14v-183q0-10-5-14t-13-4h-17q-7 0-7-6t7-8l65-8q9-1 9 12v211q0 18 20 20m-61-318q-7-7-7-17t7-16 17-7 17 7 7 16-7 17-17 6-17-6m343 328q0 8-18 8-31 0-52-24-4-4-6-4t-5 3q-32 25-73 25-28 0-50-18t-21-45q0-36 31-54 27-16 86-25 14-3 19-4 6 0 6-7v-46q0-20-14-32t-36-12-41 14-23 39q-2 7-9 7t-6-7v-38q0-8 5-12 27-21 76-21t70 22 20 55v134q0 16 10 26t24 10q7 0 7 6m-84-46v-63q0-7-6-7-1 0-2 0-89 11-89 55 0 20 13 32t30 12 30-7 18-13 6-9" />
</svg>