<svg id="fnt-M PLUS 2" viewBox="0 0 2294 1000" xmlns="http://www.w3.org/2000/svg"><path id="m-plus-2" class="f" d="M68 667h-41l45-365h51l97 276h1l97-276h50l46 365h-41l-34-305h-1l-96 265h-44l-96-265h-1l-33 305m562 0v-363q19-3 37-4t34-3 29 0q81 0 119 29t38 93q0 62-37 92t-115 31q-18 0-37-2t-48-5l2-37q28 4 46 6t33 1q61 0 88-20t27-66-27-66-88-20q-18 0-39 2t-42 5l20-22v349h-40m568 0h-249v-365h41v328h208v37m172 5q-72 0-107-37t-35-112v-221h40v215q0 42 10 68t33 38 59 12 59-12 32-38 11-68v-215h40v221q0 76-35 112t-107 37m335 0q-33 0-67-7t-56-19l11-36q16 7 35 13t40 9 39 3q44 0 68-17t24-48q0-17-8-29t-20-20-33-13-40-12q-24-7-45-15t-36-20-25-29-8-40q0-46 34-71t97-24q32 0 64 6t53 17l-11 36q-21-10-49-17t-57-6q-44 0-67 16t-23 44q0 16 7 27t20 19 30 13 39 12q25 7 46 15t38 20 26 29 10 43q0 47-36 74t-100 27m345-5v-37q56-43 94-76t60-59 33-48 11-42q0-72-80-72-56 0-114 40l-13-35q57-41 133-41 56 0 85 26t30 77q0 24-10 48t-30 52-55 58-83 71v1h182v37h-243" />
</svg>