<svg id="fnt-M PLUS 1" viewBox="0 0 2240 1000" xmlns="http://www.w3.org/2000/svg"><path id="m-plus-1" class="f" d="M87 667h-40v-365h52l121 241h1l121-241h52v365h-40v-303h-1l-113 225h-39l-113-225h-1v303m583 0h-40v-365h100q81 0 119 28t38 89q0 60-37 89t-115 29h-85v-37h81q61 0 88-19t27-62q0-42-27-62t-88-19h-61v329m528 0h-249v-365h41v328h208v37m172 5q-69 0-106-33t-36-96v-241h40v235q0 50 25 74t77 24 77-24 25-74v-235h40v241q0 63-36 96t-106 33m335 0q-33 0-67-7t-56-19l11-36q16 7 35 13t40 9 39 3q44 0 68-17t24-48q0-17-8-29t-20-20-33-13-40-12q-24-7-45-15t-36-20-25-29-8-40q0-46 34-71t97-24q32 0 64 6t53 17l-11 36q-21-10-49-17t-57-6q-44 0-67 16t-23 44q0 16 7 27t20 19 30 13 39 12q25 7 46 15t38 20 26 29 10 43q0 47-36 74t-100 27m534-5h-41v-319h-1l-139 81-13-35 153-92h41v365" />
</svg>