<svg id="fnt-Macondo Swash Caps" viewBox="0 0 4543 1000" xmlns="http://www.w3.org/2000/svg"><path id="macondo-swash-caps" class="f" d="M382 360l-6 0q5 155 11 223 2 16 14 32t13 27-7 20-18 8-19-14-9-30q-12-166-30-252-46 23-89 79 39 63 39 106t-29 76-55 32-40-17-13-41 16-61 43-78q-23-34-53-61t-59-36q0 1-4 28-17 109-24 288-2 80-4 93t-8 20-16 8-17-8-8-23 14-96q28-166 30-317-21-4-21-25 0-10 9-16t22-6q39 0 83 32t81 83q38-51 79-83t75-32q23 0 23 19 0 9-8 15t-15 7m-140 217q0-38-27-86-40 65-40 98 0 18 9 32t23 13 24-18 11-39m403 23q3 9 14 24t12 25-5 15-14 6q-20 0-36-43l-4-11q-26 54-77 54-25 0-42-17t-17-40q0-38 26-66t68-29q-10-18-22-27t-22-10-19-2-14-3-5-14 8-17 20-6q33 0 64 32t55 102l10 27m-87-56q-18 0-33 12t-14 31 13 32 31 13 31-13 13-30q0-13-5-24t-5-13q-13-8-31-8m245-66q-33 0-54 22t-20 55 21 53 54 22q28 0 50-20 8-7 12-7t7 3 3 6q0 15-28 36t-64 22-62-29-26-72q0-55 41-93t92-37q21 0 34 7t13 18-7 19-13 7-22-6-31-6m146 22q-22 22-22 54t22 54 54 23 53-23 22-54-22-54-53-22-54 22m20 170q-32 0-54-25t-21-63 23-73 55-53 64-17 53 25 22 62-24 73-55 53-63 18m226-146l3 122q0 10-6 17t-16 7-16-7-7-17l4-99t-4-84q0-10 7-17t16-7 16 6 6 17-1 15q28-38 65-38 52 0 67 70l19 86q3 12 12 25t10 24q0 26-25 26t-33-40l-19-104q-9-50-51-50-22 0-34 14t-13 34m279 146q-31 0-53-25t-21-58 13-61 33-47 43-30 48-10 46 18q-1-37-4-82t-3-56 6-20 16-7 16 8 7 22-5 64-4 94 4 76 7 44q12 31 12 41 0 29-22 29-27 0-31-57-20 27-48 42t-60 15m-19-170q-22 22-22 54t22 54 54 23 53-23 22-56-20-54-53-20-56 22m272 0q-22 22-22 54t22 54 54 23 54-23 21-54-21-54-54-22-54 22m20 170q-32 0-53-25t-22-63 24-73 55-53 63-17 54 25 21 62-23 73-55 53-64 18m502-287q-28-34-58-34-24 0-40 16t-16 38 13 36 32 24 41 22 41 27 31 37 13 59-13 68-36 59-50 42q-57 35-119 35-41 0-72-21t-31-46 25-26q9 0 38 26 11 10 30 18t43 9 50-9 49-26 37-45 14-62-18-58-44-37-51-27-43-32-18-49 12-51 33-34q37-23 73-23t60 17 23 39q0 13-7 19t-15 7-14-5-13-13m164 287q-9 0-16-8t-10-19q-31-101-55-151-9-21-9-31t5-16 14-6q13 0 21 19t31 80 27 74 6 19l1 5q14-10 32-40t24-59q-9-26-18-46t-9-30 5-16 14-6q13 0 21 19t31 80 27 74 6 19l1 5q18-12 39-53t21-72q0-11-6-27t-6-23 6-16 19-6 18 11 8 37-18 70-44 79-52 34q-17 0-26-27-2-5-9-27l-13-37q-18 39-42 65t-44 26m449-70q3 9 14 24t12 25-5 15-14 6q-20 0-36-43l-4-11q-26 54-77 54-25 0-42-17t-17-40q0-38 26-66t68-29q-10-18-22-27t-22-10-19-2-14-3-5-14 8-17 20-6q33 0 64 32t55 102l10 27m-87-56q-18 0-33 12t-14 31 13 32 31 13 31-13 13-30q0-13-5-24t-5-13q-13-8-31-8m193 126q-19 0-30-8t-12-19 7-18 13-6 23 6 32 6 34-9 17-22-13-19-31-12-36-9-31-17-12-28q0-27 34-52t76-24q20 0 31 7t11 19-7 18-14 7-22-6-32-6-29 7-12 17 19 17 42 12 42 18 20 34q0 33-38 60t-82 27m370-75q3 15 13 26t11 23-8 18-18 8-15-4-10-10q-6-11-9-26l-22-104q-5-23-16-37t-33-13-34 15-13 33q4 119 4 125t-6 14-15 7-17-7-6-22 2-74 3-90-3-86-2-70 6-22 17-7 15 6 6 22-2 71-2 92q29-44 68-44 52 0 67 70l19 86m435-147l21 4q16 0 16-23t-30-50-75-26q-57 0-90 35t-32 97 36 106 92 45 100-53q9-12 14-12t8 3 3 10-11 20-27 29-45 26-58 11q-66 0-110-47t-43-122 50-128 125-54q53 0 86 27t34 69q0 33-20 54t-43 22q-12 0-18-6t-5-15 6-16 16-6m275 152q4 9 15 24t11 25-5 15-13 6q-21 0-37-43l-4-11q-25 54-76 54-26 0-43-17t-16-40q0-38 26-66t68-29q-10-18-23-27t-22-10-19-2-13-3-5-14 8-17 20-6q32 0 64 32t55 102l9 27m-87-56q-18 0-32 12t-14 31 12 32 31 13 31-13 13-30q0-13-4-24t-6-13q-13-8-31-8m185 268q-10 0-17-8t-7-20q0-3 4-33t5-102-2-131q-1-12-9-27t-8-26 7-19 17-7q25 0 25 39v24q21-29 51-46t55-17q34 0 54 24t21 58-13 62-33 47-43 29-43 11q-24 0-24-24 0-10 8-15t15-5 15 2 16 3q30 0 50-23t21-54-21-54-50-22q-39 0-58 32t-18 86q0 29 4 91t4 85q0 40-26 40m276-142q-19 0-30-8t-12-19 7-18 13-6 23 6 32 6 34-9 17-22-13-19-31-12-36-9-31-17-12-28q0-27 34-52t76-24q20 0 31 7t11 19-7 18-14 7-22-6-32-6-29 7-12 17 19 17 42 12 42 18 20 34q0 33-38 60t-82 27" />
</svg>