<svg id="fnt-Macondo" viewBox="0 0 1890 1000" xmlns="http://www.w3.org/2000/svg"><path id="macondo" class="f" d="M382 360l-6 0q4 157 11 223 2 16 14 32t13 27-7 20-18 8-19-14-9-30q-13-167-30-252-46 23-89 79 39 63 39 106t-29 76-55 32-40-17-13-41 16-61 43-78q-24-34-54-61t-58-37q-12 85-16 127t-6 93-2 58-6 14-13 6-14-6-6-16 7-60q17-102 19-222-21-4-21-25 0-10 9-16t22-6q39 0 83 32t81 83q38-51 79-83t75-32q23 0 23 19 0 9-8 15t-15 7m-140 217q0-38-27-86-40 65-40 98 0 18 9 32t23 13 24-18 11-39m403 23q3 9 14 24t12 25-5 15-14 6q-20 0-36-43l-4-11q-26 54-77 54-25 0-42-17t-17-40q0-38 26-66t68-29q-10-18-22-27t-22-10-19-2-14-3-5-14 8-17 20-6q33 0 64 32t55 102l10 27m-87-56q-18 0-33 12t-14 31 13 32 31 13 31-13 13-30q0-13-5-24t-5-13q-13-8-31-8m245-66q-33 0-54 22t-20 55 21 53 54 22q28 0 50-20 8-7 12-7t7 3 3 6q0 15-28 36t-64 22-62-29-26-72q0-55 41-93t92-37q21 0 34 7t13 18-7 19-13 7-22-6-31-6m146 22q-22 22-22 54t22 54 54 23 53-23 22-54-22-54-53-22-54 22m20 170q-32 0-54-25t-21-63 23-73 55-53 64-17 53 25 22 62-24 73-55 53-63 18m226-146l3 122q0 10-6 17t-16 7-16-7-7-17l4-99t-4-84q0-10 7-17t16-7 16 6 6 17-1 15q28-38 65-38 52 0 67 70l19 86q3 12 12 25t10 24q0 26-25 26t-33-40l-19-104q-9-50-51-50-22 0-34 14t-13 34m279 146q-31 0-53-25t-21-58 13-61 33-47 43-30 48-10 46 18q-1-37-4-82t-3-56 6-20 16-7 16 8 7 22-5 64-4 94 4 76 7 44q12 31 12 41 0 29-22 29-27 0-31-57-20 27-48 42t-60 15m-19-170q-22 22-22 54t22 54 54 23 53-23 22-56-20-54-53-20-56 22m272 0q-22 22-22 54t22 54 54 23 54-23 21-54-21-54-54-22-54 22m20 170q-32 0-53-25t-22-63 24-73 55-53 63-17 54 25 21 62-23 73-55 53-64 18" />
</svg>