<svg id="fnt-Mada" viewBox="0 0 1111 1000" xmlns="http://www.w3.org/2000/svg"><path id="mada" class="f" d="M83 667h-38v-328h50l63 175q6 17 12 34t12 34h2q6-17 11-34t11-34l62-175h51v328h-39v-181q0-14 1-32t2-36 2-33h-2l-26 79-62 170h-27l-62-170-26-79h-2q1 15 2 33t2 36 1 32v181m378 6q-20 0-37-9t-25-23-9-37q0-40 35-62t114-29q0-16-5-30t-15-23-30-8q-21 0-40 8t-33 17l-16-28q12-7 26-15t33-12 37-4q30 0 48 12t27 35 9 53v149h-34l-3-29h-2q-17 14-37 24t-43 11m12-33q17 0 33-9t33-24v-67q-41 5-65 13t-34 20-10 28q0 20 12 29t31 10m267 33q-46 0-73-34t-28-93q0-40 15-69t39-44 52-15q21 0 36 7t32 21l-2-42v-93h41v356h-34l-3-29h-2q-14 14-33 24t-40 11m9-35q17 0 32-8t30-25v-127q-16-14-30-20t-29-6q-20 0-36 12t-25 32-9 49q0 44 17 68t50 25m241 35q-20 0-36-9t-26-23-9-37q0-40 36-62t113-29q0-16-4-30t-15-23-31-8q-21 0-39 8t-33 17l-16-28q11-7 26-15t32-12 37-4q30 0 49 12t27 35 9 53v149h-34l-4-29h-1q-17 14-38 24t-43 11m12-33q18 0 33-9t33-24v-67q-40 5-64 13t-34 20-11 28q0 20 13 29t30 10" />
</svg>