<svg id="fnt-Maiden Orange" viewBox="0 0 2459 1000" xmlns="http://www.w3.org/2000/svg"><path id="maiden-orange" class="f" d="M228 321l106-2-2 47-31-1-5 258h25l1 47h-100l1-47h30l1-232-62 252-48 2-48-253-3 227h29l1 46-113-3v-44l39 1 3-247-43-2 1-44h119l40 243 59-248m269 304h26l-1 39-50 5-3-28q-5 5-11 10t-15 9-16 7-16 2q-15 0-25-6t-17-16-9-22-2-26q0-17 5-30t16-24 23-15 31-5q6 0 13 1t13 3q0-4 0-8t0-8q0-2 0-7t-1-11-2-13-3-12-5-9-7-4q-4 0-9 3t-8 9-7 11-6 12-5 11-3 9l-41-2-2-91 41-1v36q2-7 6-13t10-13 12-9 15-3q18 0 30 5t17 16 8 24 2 32q0 33-1 66t-3 66m-37-16v-36q-3-5-10-6t-12-2q-18 0-29 9t-11 27q0 12 6 20t19 8q4 0 10-2t12-3 11-6 4-9m155-249q0 6-3 11t-6 10-10 7-12 2-12-2-10-7-6-10-3-11 3-12 6-10 10-7 12-2 12 2 10 7 6 10 3 12m-6 270l26 2-1 41-90-4v-42l21-2v-164h-30l1-43h79l-6 212m233-3v40l-66 2-3-28q-8 13-22 21t-29 7q-15 0-26-6t-18-17-13-24-7-28-3-27-1-25 1-26 5-28 9-28 14-25 20-17 27-6q11 0 22 6t16 15v-79h-44v-42l89 1-4 315 33-1m-77-36l1-104q-1-4-4-10t-6-10-9-8-10-3q-8 0-14 4t-10 12-7 17-4 18-2 17-1 14q0 5 0 14t1 18 2 19 6 18 8 13 14 5q6 0 11-3t11-9 8-11 5-11m242-72q0 20-2 39l-105 2q0 5 1 12t1 15 4 16 5 14 9 10 12 4q7 0 13-5t9-10 5-13 3-13h42q-2 14-7 28t-14 26-20 18-29 8q-17 0-29-7t-21-17-14-25-8-29-4-30-1-28q0-12 1-26t5-27 8-26 14-21 20-16 27-5q26 0 40 8t23 22 10 34 2 42m-43-14q0-8 0-17t-4-18-9-14-16-5q-8 0-14 4t-10 10-6 14-3 16-2 16 0 14h63q1-11 1-20m241 125l24 2-4 39-82-3-1-40 21-2q1-34 1-67t1-66q0-6-1-12t-4-12-7-8-12-4q-11 0-19 6t-12 15-6 19-3 19q-1 27-2 55t0 55h21l3 39-85 1v-45l24-1-1-159-36-2 1-42 70-2 2 34q5-7 11-14t15-12 17-8 18-3q11 0 19 4t13 10 9 14 4 18 3 18 0 18q0 34-1 68t-1 68m347-153q0 19-1 42t-5 44-12 43-20 36-32 24-45 9q-20 0-35-7t-26-20-18-29-12-34-5-36-2-33q0-20 2-43t5-46 13-43 21-37 32-26 44-10q21 0 36 8t26 21 17 31 11 35 5 37 1 34m-47 3q0-9-1-21t-2-26-5-27-10-25-14-17-22-7q-16 0-27 9t-19 23-11 31-6 36-3 35 0 29q0 9 0 20t3 24 5 24 10 20 15 15 22 6q16 0 27-8t18-22 11-29 6-33 2-31 1-26m203-65v56q-10 2-19 7t-15 11-11 16-4 19q0 24-1 48t0 48l35 2v44l-119 2 4-46 32-2 3-157-26 1-1-45 65-6v33q5-4 12-9t15-9 15-8 15-5m161 210h27l-1 39-51 5-2-28q-5 5-12 10t-14 9-16 7-16 2q-15 0-26-6t-16-16-9-22-3-26q0-17 5-30t16-24 24-15 30-5q7 0 13 1t13 3q1-4 1-8t0-8q0-2-1-7t-1-11-1-13-4-12-5-9-7-4q-4 0-9 3t-8 9-7 11-6 12-5 11-3 9l-41-2-2-91 41-1v36q2-7 7-13t9-13 12-9 15-3q18 0 30 5t17 16 8 24 2 32q0 33 0 66t-4 66m-36-16v-36q-4-5-11-6t-12-2q-18 0-29 9t-10 27q0 12 6 20t18 8q4 0 10-2t13-3 10-6 5-9m254 21l25 2-5 39-82-3-1-40 22-2q0-34 1-67t1-66q0-6-1-12t-4-12-8-8-12-4q-11 0-18 6t-12 15-7 19-2 19q-2 27-2 55t-1 55h22l2 39-84 1v-45l24-1-2-159-36-2 1-42 71-2 1 34q5-7 12-14t15-12 17-8 18-3q11 0 19 4t13 10 8 14 5 18 2 18 1 18q0 34-1 68t-2 68m187-251l30 29-38 34q5 13 6 28t2 30q0 18-4 33t-14 27-22 19-33 9q-2 1-4 3t-4 4-4 4-1 5q0 2 1 5t4 6 4 6 3 4q17 0 33 3t28 11 20 21 8 32q0 16-8 29t-20 24-27 15-31 6q-16 0-29-5t-24-14-15-21-6-30q0-18 8-33t23-26q-5-7-8-15t-4-16q0-8 5-16t12-13q-9-6-15-15t-10-21-6-22-2-21q0-20 5-36t13-28 24-18 35-7q5 0 10 1t8 1 8 3 8 4l31-39m-41 118q0-7-1-15t-5-15-10-12-14-5q-10 0-16 4t-9 11-4 14-1 16q0 7 1 16t5 17 9 14 15 6q8 0 14-5t10-14 5-17 1-15m17 194q0-9-5-15t-11-9-15-6-15-1q-16 0-25 10t-8 25q0 8 4 14t10 8 13 5 14 2q7 0 14-3t12-6 9-11 3-13m207-172q0 20-1 39l-105 2q0 5 0 12t2 15 3 16 5 14 9 10 12 4q7 0 13-5t9-10 5-13 3-13h43q-3 14-8 28t-13 26-21 18-29 8q-17 0-29-7t-21-17-14-25-8-29-4-30-1-28q0-12 1-26t5-27 9-26 13-21 20-16 27-5q26 0 41 8t22 22 10 34 2 42m-42-14q0-8-1-17t-4-18-9-14-16-5q-8 0-14 4t-10 10-6 14-3 16-2 16 0 14h63q2-11 2-20" />
</svg>