<svg id="fnt-Mako" viewBox="0 0 1198 1000" xmlns="http://www.w3.org/2000/svg"><path id="mako" class="f" d="M88 667h-45l16-351h67l78 258 17 56 15-56 79-258h67l13 351h-45l-8-242 0-72-21 84-72 222h-58l-72-222-20-84-1 73-10 241m570-150v96q0 14 3 17t11 3q3 0 6 0t6 0l-4 33t-5 0-12 1-10 0q-14 0-22-5t-11-13-4-11q-5 7-15 15t-28 13-44 5q-32 0-52-19t-20-52q0-30 16-45t41-21 54-6q9 0 17 1t14 1l14 2v-28q0-26-6-39t-17-17-34-4q-24 0-45 5t-35 11l5-37q12-4 30-9t49-4q39 0 61 10t29 34 8 63m-57 40l-25-1q-11 0-24 1t-26 6-20 13-8 25q0 19 12 28t34 9q25 0 42-7t27-14v-59l-12-1m183 110h-45v-347l45-4v213l114-113h48v10l-108 104 114 128v9h-46l-100-115-22 21v94m302 4q-37 0-62-16t-37-46-12-67q0-59 28-95t83-35q56 0 84 35t27 95q0 38-12 67t-37 46-62 16m0-34q18 0 31-7t20-20q8-12 11-30t3-38q0-46-14-70t-51-25q-18 0-30 6t-21 18q-7 12-11 30t-3 41q0 20 3 38t11 30q8 13 21 20t30 7" />
</svg>