<svg id="fnt-Mali" viewBox="0 0 953 1000" xmlns="http://www.w3.org/2000/svg"><path id="mali" class="f" d="M357 506l1 45q1 64 1 100 0 8-5 13t-14 6q-9 0-15-6t-5-13q0-48 0-144 0-151-22-151-9 0-23 22t-25 46q-9 22-16 46t-13 56q-3 15-22 15-8 0-14-4t-7-10l-7-25q-13-52-22-75-10-26-24-49t-22-23q-11 0-17 42t-6 106q-1 23-1 70v78q0 8-5 12t-15 4q-11 0-15-5t-4-14q0-29 1-79l1-66q0-99 13-146t43-46q34 0 59 50t42 120q9-41 25-80t38-65 43-25q20 0 31 22t16 65 5 108m310 128q7 1 10 4t4 11q0 8-4 12t-10 5q-21 0-31-7t-16-24q-23 36-80 36-41 0-66-18t-36-46-10-58q0-34 13-63t40-48 63-18q25 0 43 10t29 28l2-16q1-19 17-19 10 0 15 5t5 11l-2 13q-3 21-5 43-1 19-1 51v35q0 21 1 31t5 16 14 6m-58-54q0-23 0-60 0-25-10-40t-26-22-28-6q-27 0-45 15t-26 37-8 45q0 35 17 62t57 28q30 0 49-15t20-44m161 82q-8 0-14-4t-5-13l-3-356q0-9 6-14t14-4q9 0 14 4t5 13l2 357q0 8-5 13t-14 4m150-278q-13 0-22-9t-9-22 9-23 23-8q13 0 22 8t9 22-10 23-22 9m-8 280q-9 0-14-5t-5-12l5-212q0-9 5-13t14-5 14 5 6 13l-5 212q-1 8-6 12t-14 5" />
</svg>