<svg id="fnt-Mallanna" viewBox="0 0 1797 1000" xmlns="http://www.w3.org/2000/svg"><path id="mallanna" class="f" d="M215 616h1l104-230q9-19 13-25 10-8 20-8t16 2 9 6q10 10 10 26v262q0 9-6 13-5 5-12 5t-12-5-5-13v-257l-114 251q-7 17-24 17-15 0-24-17l-113-250v256q0 9-5 13-6 5-13 5t-12-5-5-13v-262q0-25 18-32 6-1 13-2t12 2 9 5q7 6 18 26l102 230m352-82q12 0 24 0v-18q0-45-50-45-22 0-32 4-19 7-27 12t-12 5-9-4-4-9q0-4 5-9 27-26 80-26 61 0 78 41 6 14 6 33l-1 133q0 8-5 12-6 4-12 4t-11-4-6-11v-21q-13 30-49 37-11 3-25 3t-27-4-24-12q-21-18-21-49 0-72 122-72m24 45v-19q-9 1-21 1t-25 0-24 3-20 8q-20 10-21 34 0 18 15 28 11 10 33 10 25 0 44-16 18-17 19-49m101 70v-278q0-9 6-13t10-4 8 1 5 3q7 4 7 13v278q0 9-6 13-6 5-13 5t-12-5-5-13m103 0v-278q0-9 6-13t10-4 8 1 6 3q6 4 6 13v278q0 9-6 13-5 5-12 5t-12-5-6-13m207-115q12 0 24 0v-18q0-45-50-45-22 0-32 4-19 7-27 12t-12 5-9-4-4-9q0-4 5-9 27-26 80-26 61 0 78 41 6 14 6 33l-1 133q0 8-5 12-6 4-12 4t-11-4-6-11v-21q-13 30-49 37-11 3-25 3t-27-4-24-12q-21-18-21-49 0-72 122-72m24 45v-19q-9 1-21 1t-25 0-24 3-20 8q-20 10-21 34 0 18 15 28 11 10 33 10 26 0 44-16 18-17 19-49m101 72v-186q0-8 6-12t11-5q12 0 16 9t1 28q7-17 30-30 20-11 40-11t34 5 25 15q23 22 23 65v122q0 8-6 12-6 4-12 4-7 0-12-5t-5-11v-125q0-27-15-41-14-14-35-14-27 0-47 16-20 18-20 53v111q0 8-5 12-6 4-13 4t-11-5-5-11m253 0v-186q0-8 6-12t12-5q12 0 15 9t2 28q7-17 30-30 20-11 40-11t33 5 26 15q23 22 23 65v122q0 8-6 12-6 4-13 4-7 0-12-5t-5-11v-125q0-27-15-41-14-14-34-14-28 0-48 16-19 18-19 53v111q0 8-6 12-6 4-12 4t-12-5-5-11m357-117q12 0 24 0v-18q0-45-50-45-22 0-32 4-19 7-27 12t-12 5-9-4-4-9q0-4 5-9 27-26 80-26 61 0 78 41 6 14 6 33l-1 133q0 8-5 12-6 4-12 4t-11-4-6-11v-21q-13 30-49 37-11 3-25 3t-27-4-24-12q-21-18-21-49 0-72 122-72m24 45v-19q-9 1-21 1t-24 0-25 3-20 8q-20 10-21 34 0 18 15 28 11 10 33 10 26 0 45-16 17-17 18-49" />
</svg>