<svg id="fnt-Maname" viewBox="0 0 1890 1000" xmlns="http://www.w3.org/2000/svg"><path id="maname" class="f" d="M145 666h-123l-3-22q21 0 33-7t13-29q1-7 1-24t1-38 1-40 0-32v-56q0-15-7-23t-18-10-22-2l-3-24q29 1 52 1 12 0 24 0t25-1q6 10 16 28t23 41 24 48 22 47 14 42l5 39 100-244q9 0 19 0t22 1q11 0 27-1t32-1l3 24q-20 0-31 6t-13 30q0 6-1 16t0 22 0 21 0 13q0 19 0 42t1 43 2 32q2 17 6 25t12 11 23 2l3 20h-126l-3-22q9 0 18-2t16-8 8-21q1-9 1-37t1-63q0-35-1-67t-1-55l-13 43q-22 47-45 100t-45 112l-1 0v0l-26 8q-2-8-9-26t-17-42-22-48-25-48-23-42l-13-47q-1 18-1 40t-1 47q0 29 1 56t1 46 2 28q3 16 11 22t25 6l5 20m380 6q-28 0-47-14t-18-41 20-48 66-30q17-4 31-6t24-3q0-26-3-39-5-22-17-30t-25-8q-12 0-21 5t-15 11q-4 10-6 20t-4 23l-34 4q-1-10-1-20t-1-18q0-8 0-12t1-7q18-9 43-18t59-9q36 0 51 15t15 54q0 9 0 18t-2 20q-1 16-1 27t-1 22q0 14 2 28t8 21 19 9h5l5 15q-5 2-15 6t-24 4q-18 0-26-10t-11-26q-5 8-15 16t-26 15-36 6m-16-65q0 17 9 26t27 9q20 0 35-10t19-22q2-22 2-52-5-1-13-2t-15-1q-31 0-48 15t-16 37m323 60h-121l-3-24q3 0 5 0t5 0q13 0 23-5t11-18q2-26 2-53t1-46q0-21-2-34t-13-19-34-7l-2-23q11 0 25-1t29-1 25-2 15-1q0 2-2 11t-2 20-3 15q10-12 26-23t33-18 37-6q22 0 37 11t20 39q1 4 1 15t1 26l-1 40q-1 23-2 34t0 16q0 15 5 23t14 9 15 2l4 20h-120l-4-21h10q16 0 24-7t11-24q1-7 1-19t1-23 1-21q0-14-1-27t-2-20q-3-19-15-28t-29-9q-22 0-38 10t-22 18q-1 28-2 59t0 59q0 16 5 23t13 9 15 2l3 19m244 5q-29 0-47-14t-19-41 21-48 66-30q16-4 31-6t24-3q-1-26-4-39-4-22-16-30t-25-8q-12 0-21 5t-16 11q-3 10-6 20t-3 23l-34 4q-1-10-2-20t0-18q0-8 0-12t1-7q17-9 42-18t59-9q37 0 52 15t15 54q0 9-1 18t-1 20q-1 16-2 27t0 22q0 14 1 28t8 21 20 9h5l4 15q-4 2-15 6t-23 4q-19 0-27-10t-10-26q-6 8-16 16t-25 15-36 6m-17-65q0 17 10 26t27 9q20 0 34-10t19-22q2-22 3-52-6-1-13-2t-16-1q-30 0-47 15t-17 37m319 60h-121l-3-24q2 0 5 0t5 0q13 0 22-5t11-18q3-26 3-53t0-46q0-21-2-34t-12-19-34-7l-3-23q12 0 26-1t28-1 25-2 15-1q0 2-1 11t-3 18-3 14q10-11 24-21t33-17 36-7q20 0 35 9t20 29q15-15 38-26t48-12q23 0 38 12t18 39q1 9 1 20t1 16l-1 55-2 48q0 15 9 21t23 5l3 20h-111l-4-21h5q13 0 21-6t11-26q1-10 2-29t1-33q0-30-3-47-3-20-13-29t-29-9q-20 0-34 8t-20 15q1 8 1 16t0 12l-1 55-1 48q-1 15 9 21t22 5l4 20h-112l-4-23h5q13 0 21-5t11-25q2-10 2-29t1-33q0-30-2-47-3-20-14-29t-28-9q-15 0-27 5t-19 10-10 10q-1 29-2 61t-1 61q0 16 5 23t13 9 15 2l4 19m418 7q-29 0-53-12t-39-36-15-63q0-40 16-70t42-44 55-16q24 0 44 12t31 34 12 55q0 5 0 10t-1 10l-152 1q0 24 7 44t22 34 46 13q19 0 32-5t21-10 8-7l8 13q-4 5-14 14t-27 16-43 7m-2-218q-23 0-39 21t-19 59l80-8h25q0-19-6-35t-15-27-26-10" />
</svg>