<svg id="fnt-Manjari" viewBox="0 0 1610 1000" xmlns="http://www.w3.org/2000/svg"><path id="manjari" class="f" d="M29 652v-305q0-7 5-13t14-5q4 0 9 3t7 7l136 223 138-224q6-9 16-9 7 0 13 5t5 13v306q0 8-5 13t-13 5-13-5-6-13v-241l-119 195q-5 8-16 8t-15-8l-119-195v240q0 8-5 13t-13 5-13-5-6-13m516-236q26 0 47 16t37 32l2-31q0-7 4-12t11-5 12 5 5 12v220q0 8-5 13t-12 5-12-5-5-13v-27q-16 17-39 31t-46 15q-25 0-47-11t-37-28-25-41-9-48q0-25 9-48t25-41 38-28 47-11m85 127q0-24-11-44t-31-33-43-13q-23 0-42 13t-30 34-11 44q0 24 11 45t29 33 42 13q23 0 43-13t31-34 12-45m110-127q7 0 12 5t5 13l1 29q9-10 20-21t27-18 34-7q32 0 52 16t28 44 9 58l0 118q0 8-5 13t-13 6-13-6-6-13l1-118q0-22-5-40t-16-30-32-12q-40 0-60 22t-21 59v120q0 8-5 13t-13 5-13-5-5-13l-1-220q0-7 6-13t13-5m274-37q-10 0-18-7t-8-19 8-18 18-7q11 0 19 7t8 18-8 19-19 7m-2 38q8 0 14 4t6 10l1 227q0 47-6 73t-22 37-49 10q-17 0-32-6-11-5-11-18 0-5 5-10t10-5q6 0 9 1 10 4 20 4 22 0 30-9t10-30 2-51l-1-224q0-4 5-9t9-4m197-1q26 0 47 16t36 32l2-31q0-7 4-12t11-5 12 5 5 12v220q0 8-5 13t-12 5-12-5-5-13v-27q-16 17-38 31t-46 15q-26 0-47-11t-38-28-25-41-9-48q0-25 9-48t25-41 38-28 48-11m84 127q0-24-11-44t-30-33-43-13q-24 0-42 13t-30 34-11 44q0 24 11 45t29 33 42 13q23 0 42-13t32-34 11-45m236-103q0 6-5 12t-9 6q-8 0-14-4t-17-3q-24 0-37 10t-20 26-5 34v133q0 8-5 13t-14 6q-9 0-13-6t-5-13v-217q0-9 6-14t13-6q7 0 11 6t5 14l2 27q4-11 13-22t22-18 26-8q19 0 32 5t14 19m53-61q-10 0-18-7t-8-19 8-18 18-7q11 0 19 7t7 18-7 19-19 7m-17 275l-1-222q0-6 6-11t11-5q9 0 14 6t6 13l0 219q0 8-5 13t-13 5-13-5-5-13" />
</svg>