<svg id="fnt-Manrope" viewBox="0 0 2036 1000" xmlns="http://www.w3.org/2000/svg"><path id="manrope" class="f" d="M70 667h-35v-360h34l141 302 141-302h34v359h-35v-277l-128 278h-24l-128-278v278m463 7q-31 0-52-11t-30-29-11-40q0-22 9-37t24-26 36-15q21-5 45-9t49-7 42-6l-13 8q1-40-15-59t-57-19q-28 0-47 12t-27 40l-35-11q9-36 37-56t73-20q37 0 62 14t37 40q5 12 7 26t1 30v168h-33v-68l10 4q-14 35-43 53t-69 18m4-32q26 0 45-9t31-25 15-37q3-13 3-28t1-24l14 8q-19 2-41 5t-43 5-38 8q-12 3-22 9t-18 16-7 24q0 12 6 23t19 18 35 7m428 25h-37v-138q0-23-4-41t-14-33-24-22-36-8q-20 0-35 7t-25 19-15 31-5 41l-26-6q0-42 14-70t40-43 59-14q24 0 42 7t31 21 20 29 12 35 3 36v149m-195 0h-37v-270h33v66h4v204m297 0h-37v-270h33v65l-6-9q4-12 11-22t16-17q11-9 25-14t28-5 26 2v34q-15-4-32-2t-33 14q-13 11-20 26t-9 31-2 32v135m251 7q-40 0-69-18t-43-51-16-74q0-42 16-74t44-50 68-18q41 0 69 18t44 51 15 73q0 43-15 75t-44 50-69 18m0-35q45 0 67-30t22-78q0-49-22-78t-67-29q-30 0-50 14t-29 38-10 55q0 49 23 79t66 29m304 35q-37 0-63-19t-39-51-13-73q0-41 13-73t40-50 64-19q37 0 63 19t41 51 14 72q0 41-14 73t-41 51-65 19m-84 113h-37v-390h33v203h4v187m81-147q28 0 47-14t28-39 9-56q0-30-9-55t-28-38-48-15q-28 0-47 14t-28 38-9 56q0 32 9 56t28 39 48 14m292 34q-39 0-68-17t-45-50-16-74q0-44 16-77t44-49 68-18q40 0 68 19t43 52 13 82h-37v-13q-1-53-23-79t-63-27q-44 0-67 28t-23 81q0 51 23 79t66 28q29 0 50-13t35-39l34 13q-16 35-47 55t-71 19m103-132h-206v-31h206v31" />
</svg>