<svg id="fnt-Marcellus SC" viewBox="0 0 3092 1000" xmlns="http://www.w3.org/2000/svg"><path id="marcellus-sc" class="f" d="M18 667v-1q2-4 6-12t5-19q3-17 6-39t7-45 7-48 7-48 6-46 6-40 4-32 2-20h31l154 287 152-287h23l40 290q2 13 4 23t4 17 3 11 4 8v1h-62v-1q2-3 3-9t1-15q0-3 0-6t-1-7l-31-234-144 271-17-2-145-272q-9 58-15 107-3 21-5 42t-5 39-3 32-2 20q0 9 1 15t1 11q1 5 1 9h-48m692-63l-10-20q-6 0-16 0t-22 0-24 0-23 0-21 0-14 1l-9 19q-6 11-10 20t-7 15-4 12-1 9q0 2 0 4t1 2v1h-43v-1q1-2 5-8t8-14 11-19 11-21l99-206h18l98 206q6 11 11 22t11 19 9 14 4 7v1h-62q0-2 0-4t0-3q0-6-2-13t-5-16-7-15-6-12m-69-147l-52 108h15q10 0 22 0t23 0 23 0 20 0l-51-108m231-36v118q4 1 9 1t10 1q31 0 46-17t16-49q0-27-12-42t-37-16q-8 0-14 1t-10 1q-5 1-8 2m88 207l-51-73q-5 1-10 1t-9 0q-4 0-9 0t-9-1v12q0 22 0 38t1 28 2 20 3 13v1h-56v-1q2-5 3-14t2-19 2-29 0-38v-61q0-22 0-39t-2-28-2-20-3-13v-1q4 0 8 1 4 0 9 0t9 0q7 0 23-1t36-2q21 0 38 5t30 15 19 23 6 31q0 13-3 24t-10 19-16 16-20 11l51 72q7 9 13 17t13 14 12 11 9 6v1h-64q0-3-3-8t-8-12-8-11-6-8m329-17l3 1-19 46q-7 3-16 5t-18 5-20 2-19 1q-30 0-57-9t-45-26-30-43-10-58q0-29 11-54t31-43 47-28 58-10q7 0 15 0t16 2 15 3 14 3l18 44-3 2q-7-8-16-15t-20-12-23-7-24-3q-20 0-37 7t-29 21-18 33-7 44q0 28 7 52t19 42 32 28 44 10q12 0 24-3t23-9 19-14 15-17m43-207q23 0 49 0t46 0 37-1 21-2l-10 27q-6-2-15-4-7-1-17-2t-25-1q-4 0-11 0t-12 1q-7 1-14 1v97q20-1 36-1t27-2q13-1 23-3l-6 29q-13-2-27-3-12-1-26-2t-27-1v111q23 0 42-2t33-4q17-2 30-6l-6 32q-3 0-11 0t-17-1-17 0-11 0h-92v-1q1-5 3-14t2-19 1-29 1-38v-61q0-22-1-39t-1-28-2-20-3-13v-1m258 101v143q23 0 42-2t34-4q16-3 30-6l-6 32q-3 0-11 0t-17-1-17 0-11 0h-93v-1q1-5 3-14t2-19 1-29 1-38v-61q0-22-1-39t-1-28-2-20-3-13v-1h56v1q-2 5-3 13t-2 20-1 28-1 39m198 0v143q22 0 41-2t34-4q17-3 31-6l-6 32q-3 0-12 0t-17-1-17 0-10 0h-94v-1q2-5 3-14t2-19 2-29 0-38v-61q0-22 0-39t-2-28-2-20-3-13v-1h56v1q-1 5-2 13t-3 20-1 28 0 39m348 72v-73q0-22 0-38t-1-28-1-20-3-13v-1h36v1q-1 5-2 13t-2 20-1 28 0 39v70q0 26-9 45t-22 30-34 17-44 6q-24 0-44-5t-36-17-24-30-8-44v-72q0-22-1-39t-1-28-2-20-3-13v-1h56v1q-2 5-3 13t-2 20-1 28-1 38v73q0 21 7 35t17 23 24 11 29 4q14 0 28-4t25-11 17-23 6-35m215-163l-2 41h-5q-1-4-4-10t-9-13-14-10-19-4q-8 0-15 2t-12 8-7 12-2 14q0 13 8 24t19 23 25 23 25 24 19 26 7 30q0 12-4 24t-14 23-24 16-36 7q-12 0-22-2t-20-5-16-6-11-6l4-46h5q2 8 7 17t12 15 16 11 22 5q8 0 16-3t13-8 9-13 3-16q0-11-4-21t-12-18-17-17-19-16-18-17-17-19-12-21-4-25q0-14 6-26t16-19 23-12 27-5q10 0 19 2t16 3 13 4 9 4m366-87l-2 45h-5q-2-5-6-12t-11-14-17-10-24-4q-12 0-21 3t-15 11-10 15-3 20q0 18 10 34t25 31 32 32 32 32 25 35 10 40q0 16-6 32t-17 29-29 20-43 8q-14 0-27-2t-23-7-19-8-14-8l6-54h6q3 12 9 22t15 18 20 13 25 5q13 0 23-4t17-11 11-16 3-20q0-15-5-28t-15-25-21-23-24-22-23-23-21-25-15-28-6-34q0-19 8-35t20-26 28-17 32-6q12 0 22 2t19 5 14 5 10 5m346-2l17 45-2 1q-19-17-46-28t-59-10q-30 0-56 9t-44 28-29 45-10 61q0 37 10 69t29 56 48 38 68 13q13 0 27-3t27-8 24-14 21-19l3 2-20 50q-18 7-40 10t-45 4q-45 0-83-13t-64-37-42-57-15-75q0-23 6-46t17-42 29-38 38-29 48-19 56-7q47 0 87 14" />
</svg>