<svg id="fnt-Marck Script" viewBox="0 0 2680 1000" xmlns="http://www.w3.org/2000/svg"><path id="marck-script" class="f" d="M409 718l-6 19q-13 1-20 1-30 0-49-26t-18-65q0-25 11-93t26-125q3-12 3-16t-3-4-23 37-44 91-30 62-6 13-9 17-13 22q-16 25-26 25-6 0-14-4t-10-7q-6-9-6-53 0-93 15-178 5-28 5-29 0-5-4-5-8 0-25 50l-15 41q-32 91-65 141t-75 71l-13-27q49-36 75-74t57-121l17-45q18-48 31-68t29-20q26 0 26 32 0 2-9 101t-10 130q0 9 3 10 3 0 6-5 40-68 77-147 5-10 16-35t21-43 16-24 18-4 20 9 9 21-3 27q-39 191-39 228t12 51 42 19m214-102l12 9q-7 15-26 28t-34 14q-30 0-30-31 0-15 8-35l-19 19q-27 28-47 37t-38 10-29-11-10-30q0-35 27-69t69-56 84-22l1 17-21 4q-45 10-80 40t-35 60 24 30q23 0 56-32t55-74l21 13q-31 62-31 79 0 7 4 12t10 5 6-1 3-1 4-2 4-3 6-5 6-5m160-126q13 0 21 8t8 22q0 27-31 57l-12-9q7-16 7-23 0-13-15-13t-29 19-32 58-27 57l-29-13q28-62 32-73 13-39 13-99l28-8q-1 33-4 50t-15 58q51-91 85-91m173 106l12 10q-12 27-38 44t-52 16-41-15-16-43 24-58 60-52 74-21q5 0 15 1l-2 20q-55 2-91 33t-36 66q0 15 9 24t23 9q23 0 59-34m249 20l13 11q-29 47-62 47-20 0-41-29t-21-49q0-12 36-24 14-4 25-14t11-19-5-15-14-5q-55 5-115 148l-31-11q0-21 58-174t83-184l25 9q-68 117-113 273 39-59 67-78t53-20q16 0 25 10t9 24-7 27-21 21q-19 13-48 25 5 24 16 36t25 12q7 0 32-21m523-40l35 0v20q-6-1-14-1t-18 1q0 39-37 78t-89 64-97 25q-24 0-39-12t-14-31q0-29 38-61t90-52 93-24q-5-7-15-13t-43-17-46-26-14-40 28-60 66-56 68-23q13 0 21 9t9 23q0 22-27 55t-59 51l-12-17q20-10 34-31t15-37-16-15q-24 0-54 29t-30 55q0 17 9 27t45 25 52 26 21 28m-223 131q0 24 39 24 21 0 55-16t61-44 26-58q0-3-1-10-69 6-125 38t-55 66m414-111l12 10q-12 27-39 44t-51 16-41-15-16-43 23-58 61-52 73-21q5 0 15 1l-1 20q-55 2-92 33t-36 66q0 15 9 24t24 9q23 0 59-34m187-106q12 0 20 8t8 22q0 27-31 57l-12-9q7-16 7-23 0-13-15-13t-28 19-32 58-28 57l-28-13q27-62 31-73 14-39 14-99l28-8q-2 33-5 50t-14 58q50-91 85-91m139-35q-28 0-28-23 0-12 7-21t18-8 18 6 7 17-6 20-16 9m-6 147l10 9q-12 23-32 39t-36 16q-28 0-28-39 0-48 40-126 9-17 11-20l21 13q-10 19-26 60t-15 53 5 17 12 5q14 0 38-27m113-27q38-57 66-78t49-21 32 13 12 32q0 54-39 100t-87 46q-22 0-34-8l12-21q26 3 32 3 27 0 51-31t23-65q0-12-7-21t-19-8q-27 0-62 49t-65 120-53 153l-30-11q1-3 19-52t35-96q47-132 47-145 0-32-13-58l25-12q15 21 15 45t-9 66m290 36l11 12q-13 20-31 31t-35 11-29-11-10-28q0-42 31-116-25 4-51 12l-3-19-1-1q25-10 66-17 4-7 18-36 28-58 40-75l21 9q-5 11-17 36t-28 59q22-2 35-2t20 4v22q-7-2-20-2t-47 5q-30 66-30 96 0 11 7 19t20 7 33-16" />
</svg>