<svg id="fnt-Margarine" viewBox="0 0 2302 1000" xmlns="http://www.w3.org/2000/svg"><path id="margarine" class="f" d="M383 633q0 4-1 7t-2 8-1 7 0 7q-5 2-9 5t-10 7q-3-1-6-1t-6-2-6-2-6 1q-4-3-7-6t-9-3q0-11-1-23-2-5-4-9t-2-10q0-5 1-8t1-8-1-8-4-7q0-6 0-11t1-12q0-5-1-11t-6-9v-3q0-3-1-5t-1-5q-1-2-3-6t-4-10-4-10-1-7q-2-5-2-11t1-11q0-5-2-10t-2-9-3-9-2-9q-3 0-4 3t-2 5-1 6-3 4l0 1q0 2 1 3t0 3q0 2-1 4t-2 2-3 3-3 3q0 0 0 1t0 2q0 3-2 6t-1 6q0 3 1 5t0 6q0 2-2 8t-6 15-6 14-5 8q-1 6-1 12t0 12q-1 4-3 7t-2 8q-2 3-2 7t-2 7q-1 2-3 4t-4 3-4 3-3 5q-7 0-13 2t-12 2q-2 0-4-1t-5 0q-3-3-5-7t-7-6q-1-9-4-18t-11-14q1-3 1-5 0-4-3-7t-4-8q0-3 0-6t0-5q0-2 0-4t-1-2q1-2 1-4 0 0-3-5t-6-12-6-15-3-11l1-1q0-1-1-2t0-2q0-2 1-4t2-4q-1-4-2-7t-2-5-2-6-1-6q-1 1-5 6t-6 9-6 10-3 6q0 1 1 3t2 4q0 2-1 4t-2 5-2 4-1 5q0 5 1 11t1 11q0 8-1 11t-4 5-5 3-4 4q-2 9-2 19t-1 18q-1 2-1 3t-3 2-2 1-2 2q0 2 0 3t1 3q0 3-2 6t-5 5q1 2 1 4t0 4q0 2-1 5t-3 4v2q0 3 1 6t1 7q0 2-3 2t-3 3q-2 1-2 3t-2 5q-2 3-6 6t-7 5h-4q-6 0-11 0t-10 0q-4-2-7-5t-5-7-4-6-5-6q0-6 0-11t0-11q0-7 1-10t3-5 4-5 3-7q1-2 1-4t0-3 0-4 2-3q0-4 2-5t5-3 5-3 2-4q2-5 2-12t-1-11q0-4 1-7t1-6 2-6 2-6q1-5 1-7t0-4 2-4 4-8q1-2 1-3t1-1 0 0 2-2q1-1 2-3t2-4 1-4 4-3q-2-4-2-8 0-6 3-11t5-11q-3-7-3-15 0-7 2-12t4-10 5-8 5-9q1-5 1-9t1-10 1-9 1-8q1-2 4-3t5-3q1-1 1-2t1-3 2-2 2-1q0-2 0-3t-1-3q0-6 2-10t6-7 8-5 10-1 9 1 7 4 6 4 8 4q2 6 2 12t1 13q1 5 3 10t2 10q0 3-1 5t-1 6q0 4 1 7t4 7 4 7 4 6q0 4-1 8t-1 8q0 4 2 8t2 9 3 8 1 9q0 3 0 5t-1 6q0 2 1 5t4 6 3 5 3 6q2 3 3 6t2 7 2 7 4 5q3-1 5-6t4-10 3-12 3-12 4-10 2-6q0-1 0-2t0-1q0-6 3-11t4-10q2-7 2-13t3-13q1-4 4-7t4-6q2-5 4-12t1-12q0-3-1-5t-1-5 2-8 5-11 7-11 5-7q5-1 9-1t9-1q2 0 3 0t4 1q3 0 5 2t6 4q3 1 6 2t5 3v3q0 6 3 11t6 10l-1 5q0 6 2 12t5 12q2 5 2 10t1 10 0 10 2 10q1 7 3 11t1 12q0 3 1 5t2 5 1 6-1 7q1 3 3 5t4 4 4 5 3 5q1 3 1 6t0 7q1 3 3 6t2 7v5q0 4 1 7t2 6 3 7 1 6q0 4-1 7t-1 8q0 5 3 13t7 18 8 18 3 14m251-1q-1 3-2 6t-2 5-1 6 0 7q-3 1-4 3t-1 4-1 5-2 4q-6-1-11-1t-11 0q-5 0-8-1t-8-4q-2-3-5-3t-5 0-4-3-1-12q0-2-1-4t-1-3q-7 2-12 6t-10 7-10 7-10 3q-3 2-5 5t-6 5q-2 0-6 1t-8 2-9 1-6 1q-5 0-12-3t-13-7-13-7-9-1q-3-3-4-6t-4-6q-3-3-7-4t-6-5q-2-3-3-6t-2-6-2-6-3-5q1-4 1-10t1-12 2-12 6-8v-2q0-7 2-12t6-9 8-7 8-8q2-2 5-2t5 0l1-3q1-1 2-1t2 1q1 0 3-1t2-2 3-2 3-1q0 0 1 0t2 1q2-3 4-5t5-4 5-4 4-5q1 1 3 1 2 0 3-1t2-3 4-2 5-1q0 0 3-1t4-3 5-2 3-2l3-1q2 0 4 1t4 1q3-3 6-6t6-7q3-1 7-4t8-6 6-7 3-8q0-4-2-7t-5-8-6-7-3-7h-1q-3 0-6-3t-5-4q-2-1-5-1t-5 0-6 0-4-2q-5 1-8 3t-6 5-7 5-10 1q-5 9-8 19t-10 18q-1 5-3 11t-5 9q-5 1-10 1-5 0-12-2t-12-6-9-8-4-11q0-7 3-13t2-13q4-1 6-4t3-6 4-5 5-4v-2q0-3 1-4t0-4q11-7 18-18 4-2 9-3t9-3q3-2 7-4t7-4q6-2 12-1t12 1q5 0 8-2t9-2 9 1 10 1q2 1 4 2t4 2q8 1 11 1t6 1 5 4 9 10h1q3 0 6 2t7 6 5 6 3 7q2 3 2 8t2 8q1 3 3 6t4 6 4 6 2 7q0 5-1 9t-1 9q0 4 1 8t2 8q0 5-2 10t-1 11q0 7 1 14t5 14q-1 4-1 9 0 7 1 14t2 14q0 3-1 6t-2 6-2 6 0 6q0 8 2 16t5 15m-58-80q0-4-1-9t-1-8q0-6-1-8t-7-2h-3q-4 3-7 7t-6 6q-4 2-8 3t-7 5h-1q-3 0-6 1t-5 2-5 2-7 0q-4 6-7 13t-11 10l-4-1q-4 0-9 1t-8 4-6 6-2 9q0 6 2 10t5 5 6 4 7 5q2 1 5 0t6 0q2 0 4 0t4 2q3-3 5-4t6-1q6-7 14-11t17-7q0-3 2-5t4-3 4-3 4-3q2-2 4-6t6-9 5-9 2-6m307-103q0 5-2 9t-2 9q0 4 0 8t0 7q0 3-1 7t-2 7-1 6 0 6q-4 2-6 5t-1 7q-3 1-5 3t-5 1q-2 4-4 7t-7 7-7 5-7 6q-6-1-11-1t-10-2q-6-8-9-18t-4-19q0-2 3-6t8-9 7-8 6-4q1-6 3-11t2-12q0-7-5-11-6 1-9 5t-7 6q-4 0-7 1t-8 1q-2 0-3 2t-3 3-3 3-5 3q-1 1-1 2t-2 2-1 3-1 3h-3q-2 2-4 5t-3 6q-2 3-5 7t-6 8-5 8-1 9q0 3 0 5t1 5q0 5-2 10t-1 11q0 3 1 6t1 7q0 5-2 10t-2 11q0 6 1 12t2 13 2 13 1 13q0 8-3 15t-5 14q-4 3-11 7t-13 4q-5 0-8-3t-3-8q-6-2-11-6 0-3-2-6t-3-6-3-5-2-7q0-5 1-9t2-10q0-1-1-3t0-2q0-2 1-3t1-3 2-2 0-3q0-2 0-3t-2-2-2-3 0-3q0-10 1-19t1-19q0-6-1-12t-4-11q1-2 2-4t0-5q0-6-1-12t-1-12q0-5 1-10t2-14q0-2 1-4t1-5q0-1-1-4t-3-7-2-9-1-10 1-12 2-14q0-7 4-11t9-7 11-4 11-1q7 0 13 2t8 10q0 7-1 15t0 15v8q4 0 6-2t4-4 4-4 6-3q1-4 4-7t5-7q7-3 13-8t11-8 13-7 15-3q6 0 12 3t10 8h2q8 0 14 3t11 9q5 4 7 7t3 6 1 7 1 10q1 3 1 6t1 5m245 200q1 1 2 3t0 3q0 2-1 5t-1 6 1 5 1 6q0 5-2 9t-4 8-3 8-2 8q0 1-3 6t-6 11-7 12-4 7q-3 1-6 3t-5 4-5 4-7 2q-1 3-3 5t-6 3-5 3-4 5h-2q-3 0-6 1t-6 2-6 2-7 2q-5 0-11 0t-11 1q-4 0-8-1t-8 0-9-3-6-4q-3-1-6-2t-7-1l-3-3q-9-3-16-5t-12-7-11-9-8-15q-1-3-3-3t-5-3q0-4-2-7t-3-5-3-6-2-7q0-3 1-5t1-6q0-3 0-5t-1-6q0-4 2-7t4-6 6-5 5-5q2 0 4 0t5 0q11 0 19 4t12 12 8 17 4 19q1 3 2 3t4 2q2 1 3 2t3 3q7 2 13 1t13 2q5 1 9 4t9 2q3 0 8-3t10-6 9-8 5-7q1-1 1-3t1-3l4-2v-3l2-2q3-6 7-11t9-10v-4q0-4 2-8t3-7q-1-3-2-4t-1-3-1-4 2-5q-8 2-12 5t-8 5-10 3-14 1q-2 0-2 1t-2 2-2 2-2 0q-6 0-12 0t-11 1q-3 0-5-1t-3-1-4-1-4-3q-6-3-13-5t-13-6q-6-3-12-8t-10-10-10-11-9-10v-3q0-8-4-13t-8-11q-1-9-2-19t-2-19q0-7 1-13t1-13q0-3-1-6t-1-6q0-2 1-4t1-4 1-5 0-7q0 0 2-4t2-8 3-10 2-6q5-4 8-9t5-10q4-1 6-4t5-5 5-5 7-3q-1 0-1-1 0-2 2-2t3-1q3-2 6-5t5-3q4-3 9-4t11-3 12-4 10-4q5 0 9 0t8 0 8 0 8 2q5 6 11 10t13 7v-7q0-8 1-16t5-15q5-3 11-4t10-1q4 0 7 2t4 4 5 4 5 4q1 3 2 6t4 6 3 5 1 7q0 6-1 12t-1 12q0 3 0 6t-1 6q0 1 1 2t2 3q1 2 1 5t0 5 1 5 3 4q-2 7-3 14t-1 15q0 4 1 8t1 8q0 3-1 6t-2 6q0 6 2 12t3 12q2 8 2 16t0 16q0 2 0 5t1 5q0 2-1 4t0 4q0 7 1 13t2 13q0 9-2 18t-8 15m-49-131q0-4 1-8t2-8q0-3-1-6t-2-5-2-5 1-6q-3-1-4-3t-4-4-3-5-4-4q-1-2-3-3t-5-2-3-3-3-3q-6-5-14-8t-15-3q-5 0-10 1t-7 2-7 3-6 1q-4 5-8 11t-9 9q-1 7-3 14t-3 12-3 13-2 16q0 7 1 13t1 9 3 9 6 11q2 3 4 6t4 6q3 2 6 4t5 3q3 1 5 4t5 4q1 0 4 1t7 1 7 2 4 1q7 0 13-2t14 0q2 0 3-1t2-3 3-2 4 0q1-3 4-5t4-5 4-3 4-5q2-2 2-4t2-4q1-2 3-2t2-3q0-7-1-13t-3-11-3-9-2-8m325 114q-1 3-2 6t-2 5-1 6 0 7q-2 1-3 3t-2 4-1 5-2 4q-6-1-11-1t-11 0q-5 0-8-1t-7-4q-3-3-6-3t-5 0-4-3-1-12q0-2 0-4t-2-3q-6 2-12 6t-10 7-10 7-10 3q-3 2-5 5t-6 5q-2 0-6 1t-8 2-9 1-6 1q-5 0-12-3t-13-7-13-7-9-1q-3-3-4-6t-4-6q-3-3-7-4t-6-5q-2-3-3-6t-1-6-2-6-4-5q1-4 1-10t1-12 3-12 5-8v-2q0-7 2-12t6-9 8-7 8-8q3-2 5-2t5 0l1-3q2-1 3-1t1 1q2 0 3-1t2-2 3-2 3-1q1 0 2 0t1 1q2-3 4-5t5-4 5-4 4-5q1 1 3 1 2 0 3-1t3-3 3-2 5-1q1 0 3-1t4-3 5-2 3-2l3-1q2 0 4 1t4 1q3-3 7-6t5-7q3-1 7-4t8-6 6-7 3-8q0-4-2-7t-5-8-5-7-4-7h-1q-3 0-5-3t-6-4q-2-1-5-1t-5 0-5 0-5-2q-5 1-8 3t-6 5-7 5-10 1q-5 9-8 19t-10 18q-1 5-3 11t-5 9q-4 1-10 1-5 0-11-2t-12-6-10-8-4-11q0-7 3-13t2-13q4-1 6-4t3-6 4-5 5-4v-2q0-3 1-4t0-4q12-7 18-18 4-2 9-3t9-3q4-2 7-4t7-4q6-2 12-1t12 1q5 0 8-2t9-2 10 1 9 1q3 1 4 2t4 2q8 1 11 1t6 1 5 4 9 10h1q3 0 7 2t6 6 5 6 3 7q2 3 2 8t2 8q1 3 3 6t5 6 3 6 2 7q0 5-1 9t-1 9q0 4 2 8t1 8q0 5-1 10t-2 11q0 7 2 14t4 14q-1 4-1 9 0 7 1 14t2 14q0 3-1 6t-2 6-1 6-1 6q0 8 2 16t5 15m-58-80q0-4-1-9t-1-8q0-6-1-8t-7-2h-3q-4 3-6 7t-7 6q-4 2-8 3t-7 5h-1q-3 0-5 1t-5 2-6 2-7 0q-3 6-7 13t-11 10l-4-1q-4 0-9 1t-8 4-5 6-3 9q0 6 2 10t5 5 7 4 6 5q3 1 6 0t5 0q2 0 4 0t4 2q3-3 5-4t6-1q6-7 14-11t17-7q0-3 2-5t4-3 5-3 3-3q2-2 5-6t5-9 5-9 2-6m307-103q0 5-2 9t-1 9q-1 4-1 8t1 7q0 3-1 7t-2 7-2 6 0 6q-4 2-5 5t-2 7q-3 1-4 3t-5 1q-2 4-5 7t-7 7-7 5-7 6q-6-1-11-1t-10-2q-6-8-8-18t-5-19q1-2 4-6t7-9 8-8 5-4q1-6 3-11t2-12q0-7-5-11-5 1-9 5t-7 6q-4 0-7 1t-7 1q-3 0-4 2t-2 3-4 3-5 3q0 1-1 2t-1 2-2 3-1 3h-3q-2 2-3 5t-4 6q-2 3-5 7t-6 8-4 8-2 9q0 3 1 5t0 5q0 5-1 10t-2 11q0 3 1 6t1 7q0 5-2 10t-2 11q0 6 1 12t2 13 2 13 1 13q0 8-3 15t-4 14q-5 3-12 7t-13 4q-5 0-7-3t-4-8q-6-2-11-6 0-3-1-6t-4-6-3-5-2-7q0-5 2-9t1-10q0-1 0-3t-1-2q0-2 1-3t1-3 2-2 1-3q0-2-1-3t-2-2-1-3-1-3q0-10 1-19t1-19q0-6-1-12t-4-11q1-2 2-4t0-5q0-6-1-12t-1-12q0-5 2-10t1-14q0-2 1-4t1-5q0-1-1-4t-3-7-2-9-1-10 2-12 1-14q0-7 4-11t9-7 11-4 11-1q7 0 13 2t9 10q-1 7-1 15t-1 15v8q4 0 6-2t4-4 4-4 6-3q1-4 4-7t5-7q7-3 13-8t12-8 12-7 15-3q7 0 12 3t10 8h3q7 0 13 3t12 9q4 4 6 7t4 6 1 7 0 10q1 3 1 6t1 5m98-137q0 3-1 3t-2 2q-2 5-2 11t-2 11-6 8-18 4q-6 0-12-2t-10-6h-3q-5 0-10-2t-8-6q1-10 3-20t0-20q2-4 5-7t7-5 7-4 7-5q2 0 4 0t4 1q4 0 7-1t7 0q2 2 4 4t1 5q3 1 5 3t3 4 3 4 4 4v1q0 3 1 7t2 6m-1 120q0 4-2 8t-2 8q-1 8-2 17t-3 17q0 1-1 2t0 2q0 3 1 5t0 5q0 2-1 4t0 4q0 3 1 6t2 7q0 3-1 7t-1 8q0 4 1 7t1 7q0 12-1 25t-1 24q0 7 1 14t1 14q0 10-4 19t-11 15q-4 2-7 1t-7 1q-3 1-6 2t-5 2q-4 0-7-5t-7-10-4-12-2-8q0-10 2-19t1-18q0-5 2-9t2-10q0-10-3-20t-2-20q0-6 2-12t3-12-1-12-1-13q0-9 0-18t0-18q0-4-1-9t-1-9q0-2 1-4t1-3q0-4 0-8t-1-8q0-4 1-8l3-2v-3q2-2 6-4t8-3 9-2 7-1q5 0 9 4t8 8q6 5 8 8t3 8 1 8 0 13m286 95q-1 5-3 10t-5 11-4 10-2 11q-1 3-2 4t-2 2-2 3-1 7q0 3-1 9t-2 13-3 15-4 14-5 12-4 6q-1 2-1 4t-1 4-1 4-2 3q-2 6-3 9t-2 4-3 3-8 6q-3 2-6 4t-7 3q-4 0-8-2t-8-4-7-5-8-4v-1q0-2-1-4t-2-4l2-2q-1-3-2-6t0-6q0-2 2-9t7-14 7-14 5-9q2-3 5-6t5-5q2-5 2-11t1-10q0-3 2-5t3-5q1-5 1-11t0-10q1-4 3-8t2-8q0-3-1-6t0-7q0-6 0-12t0-11q0-11-3-20t-12-15l-2-3q-1-1-1 0t-2 0q-2 0-3-2t-3-3-6-3-9-2q-8 0-14 3t-11 8-9 10-11 10q0 3-1 6t-3 4-4 4-3 5q-1 2-1 3t-1 4q-2 3-5 5t-4 6q-2 3-2 8t0 8q0 2-1 3t-1 2-2 2-1 3q-1 5-1 11t-2 11q2 6 4 11t2 12q0 7-2 14t-2 14q0 6 3 10-4 10-5 19t-5 20q-3 3-7 4t-7 1q-7 0-14-1t-14-2q-1-3-3-5t-4-4-4-5-2-6q0-4 2-8t3-8q1-3 0-7t0-7q0-7 2-14t3-14q0-3 0-7t0-9 1-7 4-7q-1-3-2-6t0-5 1-5 1-5-2-3-1-4l1-1q0-3-1-6t0-6q0-7 2-13t2-13q0-6-1-11t0-10q0-4 0-8t2-7 2-7 1-7q0-3-1-5t-2-6-2-5-1-6q0-11 6-22t14-18q1 0 1 0t1 0q3 0 5-1t4-1q6 0 11 3t10 5q4 9 6 19t2 20q3-1 5-2t5-3 4-3 6-2q2-2 4-4t3-5 3-4 4-4q3-3 9-5t14-5 14-3 11-1q4 0 8 0t6 3 7 3 7 3q2 0 3 0t4 1q3 1 5 3t5 5 5 4 5 3q2 4 4 7t6 6q1 5 3 9t4 9 4 9 2 10q0 3-1 6t-1 5q0 2 1 3t2 2 1 3 1 3q0 6 0 11t-1 11 1 11 5 11m255 75v2q0 7-2 11t-6 8-9 6-9 6v2q0 4-1 8t-2 7h-1q-4 0-7 1t-5 2q-2 0-5-1-2 0-3 1t-1 3-3 3-5 1q-1 0-3 1t-3 3-4 3-2 3q-1 0-3 0t-5 1-4 0-4 0q-2 1-4 2t-3 2q-2 0-3-1t-4-1q-2 0-4 1t-5 2-7 2-7 1q-5 0-8-1-1 0-3-2t-6-4-9-5-8-6-7-4-3-2l-1-3q-4-2-6-4t-4-6q-3-1-4-4t-4-4-3-5-5-3q-2-5-4-10t-4-9l-4-3q0-2 0-3t1-3q0-1-2-4t-3-7-4-7-1-6q0-4 0-7t1-7q0-3-1-6t-2-5q0-4 0-8t0-8q0-3-1-6t-1-6q0-3 2-6t2-5q0-8-2-15t-3-16q0-6 3-13t8-11v-11q2-1 4-2t1-4 2-5 1-4q2-2 3-4t2-3 1-4 1-5q4-1 7-4t7-6 7-5 8-4q3-4 10-9t15-7 14-6 6-4q7 1 14 1t14 0 15 2 13 4q1 1 2 2t2 3 2 2 1 4q8 3 15 11t11 18 7 20 2 20q0 2-1 4t-2 4q-1 2-1 5t-1 5q-1 3-3 6t-5 7q-4 10-9 20t-12 19q-3 3-6 6t-5 8q-4 0-7 2t-4 5-4 4-7 2q-2 3-4 6t-5 5q-2 0-4 1t-3 3-4 2-5 1q-2 3-5 5t-6 5-6 4-4 7q-2 0-6 1t-5 4q0 4 2 8t8 4q2 4 5 6t6 6q6-1 12 0t13 0q7 0 11-1t7-3 4-3 5-1q3-6 7-12t10-8q2-4 5-7t4-8 3-8 0-9q2-3 5-7t6-9 7-7 8-3q4 0 7 3t5 5q5 1 8 4t5 6 3 9 1 8q0 8-3 17t-7 14m-81-166q-1 0-1 0t-1-2 0-1-1-2q-1-1-5-3t-9-4-9-3-6-1q-5 0-8 2t-6 3-4 4-6 2q0 2-1 4t-3 4-3 3-3 4q-2 3-2 8t-3 8q-2 5-4 9t-4 9l-3 3q-2 5-2 10t0 10q0 6 2 12t2 12q0 2-1 5t0 5q0 1 0 2t1 2h1q3 0 4-1t4-2 3-3 4-4q1-1 3-1t3-2q2-1 2-2t1-3q2-2 6-3t6-3q3-2 5-4t4-4 4-4 6-3q2-2 4-5t4-9 4-8 3-7h1q2 0 3-2t4-2q1-3 1-6t1-5q0-6-1-11t0-11" />
</svg>