<svg id="fnt-Markazi Text" viewBox="0 0 2193 1000" xmlns="http://www.w3.org/2000/svg"><path id="markazi-text" class="f" d="M148 657l-86-232h42l75 211 1 20q-7 1-15 1t-17 0m-51 10h-86l1-16q13-6 30-9l-6 16 14-222 4 12-34-7 1-16h58l-13 232-3-14 35 8-1 16m169-242l-86 231-25-5 80-226h31m61 242h-96l1-16q8-3 16-5t18-4l-4 14-13-231h68l-1 16q-14 5-33 9l5-12 14 217-5-12 31 8-1 16m164-33l-38 6q0-20 1-41t0-40v-21q0-35-34-35-22 0-41 14l-15 20q-1-21 2-38 33-19 69-19 58 0 58 55 0 7-1 20t0 29-1 30 0 20m-106-97h-21l3-28 38-14-20 42m18 133q-23 0-37-13t-13-36q0-48 70-63l40-9 2 21-35 5q-20 2-29 11t-9 25q0 32 28 32 20 0 46-18l4 8q-30 37-67 37m60-3l-8-31 36-11v27l-5-10 30 9-2 14q-20 3-51 2m143-2h-39v-156l39 12v144m34 2h-98l1-15q7-3 14-6t15-4l-5 18v-33h39v33l-4-15 40 7-2 15m-42-122l-5-10q13-28 28-41t34-12q3 0 6 0t7 2l-3 33q-4 0-9-1t-8 0q-16 0-28 7t-22 22m6-24l-37 21v-31l6 11-34-16 1-10q11-5 25-9t30-5l9 39m146 144h-39v-256h39v256m27-82h-48v-24h48v24m105 84h-50l-69-90v-12l63-69-6 12-30-7 1-16h84l-1 15q-6 3-13 6t-14 4l16-12-70 73-1-17 79 98-17-9 29 8-1 16m-110 0h-86l1-15q7-3 14-6t14-4l-4 19v-34h39v34l-4-17 28 7-2 16m-22-231l-39 12v-30l3 8-33-13 1-9q23-9 53-10h15v42m289 198l-39 6q0-20 1-41t0-40v-21q0-35-33-35-22 0-41 14l-16 20q-1-21 3-38 32-19 69-19 57 0 57 55 0 7 0 20t-1 29 0 30 0 20m-107-97h-21l4-28 37-14-20 42m18 133q-23 0-36-13t-14-36q0-48 70-63l40-9 3 21-35 5q-20 2-29 11t-9 25q0 32 28 32 19 0 45-18l4 8q-29 37-67 37m60-3l-8-31 37-11v27l-6-10 30 9-1 14q-20 3-52 2m107 0h-34l2-18 117-164h34l-1 17-118 165m114 0h-148l25-21h122l1 21m-20-162h-117l1-20h141l-25 20m-103 36h-18q-1-30 5-56l33 14-20 42m123 126l-33-18 22-45h16q2 30-5 63m98-2h-39v-163l39-5v168m0-144l-39 21v-31l5 11-33-16 1-10q10-5 25-9t30-5h11v39m26 146h-92l1-15q7-3 14-5t16-5l-4 19v-34h39v34l-5-17 32 8-1 15m-50-216q-12 0-19-7t-6-19 6-18 19-7 19 7 7 18-7 19-19 7m277 212h-41v-235h41v235m-108-166h-17q-3-38 4-72l38 14-25 58m179-48h-187l-5-24h201l-9 24m13 48h-17l-25-58 38-14q7 34 4 72m-53 170h-103l1-16q7-3 16-5t19-4l-5 18v-34h41v34l-5-17 37 8-1 16m168 4q-44 0-68-24t-24-69q0-45 23-71t64-27q35 0 55 22t19 65q0 3 0 7t-1 7l-41-8q0-37-9-54t-29-16q-39 0-39 61 0 78 62 78 25 0 51-10l-1 23q-12 7-28 12t-34 4m68-90h-144v-20h140l4 20m93 86h-72l2-15q5-3 12-6t14-4l-14 10 67-83 29 1-64 82 0-8 27 8-1 15m117 0h-86l1-15q5-3 12-5t14-4l0 6-49-66 32-16 63 86-16-9 30 8-1 15m-185-182h85l-1 16q-5 2-12 4t-14 4l1-7 48 66-31 17-63-87 16 10-30-7 1-16m111 0h72l-2 15q-5 3-12 6t-14 4l14-11-67 83-29-1 64-82 0 9-27-7 1-16m164 185q-50 0-50-50v-118l3-17 9-47h27v174q0 16 6 24t20 7q11 0 28-4l-2 21q-18 10-41 10m40-162h-120l1-20q14-3 32-3h89l-2 23" />
</svg>