<svg id="fnt-Marmelad" viewBox="0 0 2239 1000" xmlns="http://www.w3.org/2000/svg"><path id="marmelad" class="f" d="M368 667q-30 0-30-39v-242h-3l-103 262q-8 19-21 19-14 0-22-19l-96-262h-3v253q0 16-7 22t-14 6-13-5-6-18v-305q0-13 10-20t22-7q10 0 21 5t17 19l96 266h2l105-263q5-15 17-21t23-6q26 0 26 27v303q0 14-5 19t-16 6m257-47l-1-1q-17 25-38 36t-50 12q-38 0-57-19t-19-49q0-16 6-32t19-28 39-20 62-7h37v-14q0-35-12-49t-38-13q-16 0-27 6t-17 15q-8 8-15 12t-16 5q-9 0-13-5t-4-12q0-10 8-17t19-11q17-7 38-10t37-3q37 0 57 10t27 30 8 50v137q0 11-4 17t-15 7q-17 0-24-12t-7-35m-2-87h-29q-32 0-50 8t-25 21-7 30q0 23 12 32t32 9q12 0 28-6t27-19 12-33v-42m291-96q0 9-5 14t-15 6h-16q-27 0-44 9t-23 24-7 29v112q0 23-8 29t-24 7q-12 0-16-7t-4-17v-206q0-12 5-17t16-4q14 0 22 10t8 33v12h1q6-9 16-22t26-23 38-10h6q13 0 18 5t6 16m318 189v-125q0-30-9-41t-27-11q-12 0-25 9t-20 23-9 31v119q0 23-7 29t-24 7q-12 0-16-7t-4-17v-142q0-30-10-41t-27-11q-12 0-24 8t-21 20-8 30v124q0 23-8 29t-24 7q-12 0-16-7t-4-17v-206q0-12 5-17t17-4q13 0 21 10t8 33v3h1q12-20 29-33t48-13q54 0 62 51h1q9-13 19-25t25-19 35-7q33 0 48 19t16 56v152q0 11-4 17t-16 7q-17 0-24-10t-8-31m309-22q5-6 13-6 4 0 7 3t4 8q0 9-6 17-14 17-36 29t-56 12q-60 0-89-33t-29-87q0-64 30-98t87-33q44 0 72 25t28 75q0 16-9 20t-19 5h-135q0 3 0 5t0 6q0 41 16 67t53 26q21 0 34-8t21-17 14-16m-78-168q-23 0-39 19t-19 65h93q9 0 13-3t4-12q0-24-8-39t-19-23-25-7m218-108v305q0 22-8 28t-24 6q-12 0-16-7t-4-17v-333q0-11 4-17t16-6q16 0 24 9t8 32m229 292l-2-1q-16 25-38 36t-50 12q-38 0-57-19t-18-49q0-16 5-32t20-28 38-20 63-7h36v-14q0-35-12-49t-38-13q-15 0-26 6t-18 15q-7 8-15 12t-15 5q-9 0-14-5t-4-12q0-10 8-17t20-11q17-7 37-10t37-3q37 0 57 10t28 30 8 50v137q0 11-4 17t-16 7q-16 0-23-12t-7-35m-2-87h-29q-32 0-50 8t-25 21-7 30q0 23 12 32t31 9q13 0 28-6t28-19 12-33v-42m232-117q12 0 24 2t22 6v-96q0-23 7-32t25-9q12 0 16 6t4 17v333q0 11-4 17t-16 7q-16 0-23-14t-7-38l-2-1q-8 13-18 25t-26 20-35 8-41-11-32-35-13-69q0-72 32-104t87-32m-65 132q0 32 7 51t19 26 26 8 27-10 23-24 9-29v-105q0-10-12-20t-34-9q-19 0-34 9t-23 34-8 69" />
</svg>