<svg id="fnt-Martian Mono" viewBox="0 0 4162 1000" xmlns="http://www.w3.org/2000/svg"><path id="martian-mono" class="f" d="M89 667h-52v-400h90l47 231h6l46-231h88v400h-52v-230l2-130h-6l-45 225h-75l-45-225h-6l2 130v230m407-172l97-16v49l-90 14q-21 3-31 14t-10 29q0 17 12 28t33 10q22 0 40-10t30-29 11-39v-73q0-29-18-46t-48-16q-21 0-38 7t-28 20-15 33h-52q2-34 19-59t47-39 69-13q56 0 86 28t31 81v199h-53v-28h-15q-12 17-32 26t-47 9q-27 0-48-11t-31-30-11-45q0-38 24-62t68-31m252-77v-51h117v22h15q9-15 24-23t36-7q36 0 57 25t21 69v44h-57v-36q0-50-41-50-26 0-39 23t-13 69v112h93v52h-204v-52h56v-197h-65m409-129h55v78h135v51h-135v150q0 27 11 41t32 14q22 0 34-15t18-46h49q-3 55-29 84t-74 29q-46 0-71-28t-25-77v-152h-66v-51h66v-78m316 129v-51h146v248h90v52h-236v-52h91v-197h-91m114-96q-19 0-30-11t-11-29 11-30 30-11 31 11 11 30-11 29-31 11m309 173l97-16v49l-90 14q-21 3-31 14t-10 29q0 17 12 28t33 10q22 0 40-10t30-29 11-39v-73q0-29-18-46t-48-16q-21 0-38 7t-28 20-15 33h-52q2-34 19-59t47-39 69-13q56 0 86 28t31 81v199h-53v-28h-15q-12 17-32 26t-47 9q-27 0-48-11t-31-30-11-45q0-38 24-62t68-31m316 172h-55v-300h55v22h15q11-14 29-22t40-8q31 0 54 14t36 39 13 60v195h-55v-180q0-37-17-57t-49-19-49 19-17 57v180m677 0h-52v-400h90l47 231h6l46-231h88v400h-52v-230l2-130h-6l-45 225h-75l-45-225h-6l2 130v230m436 8q-41 0-72-20t-47-54-17-84 17-84 47-55 72-19q42 0 72 19t47 55 17 84-17 84-47 54-72 20m0-52q39 0 60-28t22-78-22-79-60-28-60 28-21 79 21 78 60 28m287 44h-55v-300h55v22h15q11-14 29-22t40-8q31 0 54 14t36 39 13 60v195h-55v-180q0-37-17-57t-49-19-49 19-17 57v180m413 8q-41 0-72-20t-47-54-17-84 17-84 47-55 72-19q42 0 72 19t47 55 17 84-17 84-47 54-72 20m0-52q39 0 60-28t22-78-22-79-60-28-60 28-21 79 21 78 60 28" />
</svg>