<svg id="fnt-Martel" viewBox="0 0 1637 1000" xmlns="http://www.w3.org/2000/svg"><path id="martel" class="f" d="M19 647l43-7 24-324-48-4v-24h110l91 271 11 36 11-36 86-271h101v24l-46 4 28 324 44 7v20h-129v-20l43-7-21-235-2-84-11 42-103 307h-16l-96-273q-8-24-26-78l-3 88-12 233 48 7v20h-127v-20m602-258q44 0 70 20t26 69l0 169h31v15q-9 5-21 7t-24 3q-17 0-22-7t-5-26q-28 34-84 34-22 0-41-10t-29-27-10-39q0-33 26-54t63-30 72-9v-21q0-37-17-51t-51-13q-16 0-37 5t-37 15l-8-21q16-14 46-22t52-7m52 139q-44 0-81 14t-36 48q0 54 60 54 16 0 32-8t25-15l0-93m117 119l41-5v-203l-36-17v-15l63-18 11 5v37q10-15 37-29t49-13q18 0 24 1v47q-11-4-20-6t-22-2q-34 0-62 19v194l71 5v20h-156v-20m306-319v66h85v28h-85v131q0 39 2 56t8 25 20 7q13 0 29-5t23-8l7 20q-10 11-34 18t-42 7q-28 0-42-17t-14-53v-181h-37v-17l11-2q16-4 22-7t10-11q3-8 8-28t7-29h22m263 57q45-1 70 28t26 80q0 18-3 39h-184q0 51 25 80t71 30q20 0 42-5t33-11l8 19q-14 13-43 20t-57 8q-58 0-91-39t-32-103q0-41 17-74t48-52 70-20m-11 25q-32 0-54 23t-25 72h139q1-5 1-15 0-55-28-72-13-8-33-8m160 237l41-5v-334l-39-8v-20l74-10 9 6v366l43 5v20h-128v-20" />
</svg>