<svg id="fnt-Marvel" viewBox="0 0 1159 1000" xmlns="http://www.w3.org/2000/svg"><path id="marvel" class="f" d="M148 534h8l66-217h43v350h-27v-291h-6l-59 188h-43l-58-188h-6v291h-27v-350h44l65 217m303 93v-82q0 0-4-3t-13-6-18-6-22-3q-8 0-16 4t-13 9-9 14-3 17v31q0 9 3 17t9 13 13 10 16 3q7 0 17-3t19-6q10-4 21-9m25-128l1 143 9 9-18 18-13-13q-16 9-34 12t-27 4q-14 0-26-6t-21-16-14-22-5-28v-28q0-14 5-27t14-22 21-15 26-6q4 0 11 1t15 2 17 4 15 7v-17q0-11-5-23t-11-20-16-14-21-6q-4 0-14 3t-21 5q-13 3-28 7l-7-24q16-4 30-7 12-3 24-6t16-2q16 0 30 7t25 20 16 28 6 32m191-67l-14 21q-8-5-14-8t-10-4-9-2-9 0q-8 0-21 4t-26 16v207h-25v-221l-13-13 18-18 17 17q15-13 28-16t23-3q10 0 22 4t33 16m115 134l33-149h26l-57 250h-42l-60-250h25l38 150q2 7 4 18t4 22 4 18 1 8h10q3-14 6-26 2-11 4-22t4-19m124-20l59 0h1q9 0 16-4t13-10 9-14 3-17v-21q0-12-4-20t-12-13-17-8-20-2q-10 0-19 3t-15 9-10 13-4 18v66m-26 47v-110q0-15 5-28t14-23 22-15 27-5h17q14 0 26 5t22 15 15 23 5 28v16q0 21-7 35t-21 24-30 12-37 4q-8 0-16 0t-16-2v30q3 20 18 32t35 12q2 0 13-3t23-4q14-3 31-7l6 26q-19 4-34 7-13 2-25 4t-14 2q-16 0-30-6t-26-16-17-25-6-31m211 8v-284h26v286q0 21 10 28t25 8h6v27h-9q-12 0-23-4t-19-11-12-20-4-30" />
</svg>