<svg id="fnt-Mate SC" viewBox="0 0 1856 1000" xmlns="http://www.w3.org/2000/svg"><path id="mate-sc" class="f" d="M124 667l-55-2q-21 1-32 1t-14 1-3 0q-5 0-6-7t-1-8l42-11 16-298-41-11q0-2 1-9t6-6q0 0 18 0t63 2l105 256 115-256q46-2 63-2t16 0q6 0 7 6t1 9l-41 11 15 298 43 11q0 2-1 8t-7 7q0 0-13-1t-46-1l-56 2q-6 0-7-6t-1-9l47-11-10-275-127 276h-9l-116-272-11 271 47 11q0 3-1 9t-7 6m410-73l-18 50 34 7q0 4-1 10t-8 6q0 0-3 0t-12-1-29-1l-34 2q-9 0-9-15l29-8 85-222h32l86 222 29 8q0 2-1 8t-8 7q0 0-8-1t-32-1q-27 1-35 1t-9 1q-6 0-8-6t-1-10l34-7-20-55-93 5m85-26l-38-107-38 107h76m172 75v-197l-56-1-5 35q0 4-5 5t-9 2-6 1l-5-59q1-5 5-6t10-1l90 2 88-2q7 0 11 1t4 6l-5 59q-1 0-6-1t-10-2-4-5l-5-35q-14 0-28 1t-29 0v197l41 8q0 3-1 9t-8 7l-48-3-50 3q-7 0-8-7t-1-9l40-8m334 24l-124-3-41 3q-7 0-8-7t-1-9l32-7v-199l-32-7q0-3 1-10t8-6q0 0 8 0t33 2l121-2q7 0 11 1t4 6l-9 53q-2 0-7 0t-9-2-4-5v-29l-92 1 5 83h92v20l-93 6-4 86h96l9-28q1-6 6-7t15-2l-3 56q-1 4-4 5t-10 1m409-85q0 29-16 50t-42 30-60 11q-25 0-52-6t-55-18q1-8 3-22t4-28 3-23 2-10q2 0 7 0t10 2 4 4v56q16 10 37 15t41 6q37 0 54-18t17-43q0-12-7-28t-28-27l-89-50q-26-15-38-36t-13-44q0-24 13-45t39-34 63-13q22 0 43 5t43 13l-13 77q-2 0-7-1t-9-1-5-5v-51q-10-5-25-9t-30-3q-21 0-41 8t-33 29q-2 5-2 10t-1 10q0 22 12 35t26 21l86 49q29 17 44 40t15 44m321-12l-4 71q-16 14-47 23t-64 9q-46 0-83-21t-57-60-21-102q0-59 23-99t61-60 85-20q59 0 103 30l-13 74q-2 0-7 0t-11-2-4-5v-55q-13-5-33-9t-38-4q-18 0-38 4t-34 8q-23 17-37 54t-13 85q0 52 16 87t44 51 62 17q45 0 76-18l11-51q1-4 6-5t10-2 7 0" />
</svg>