<svg id="fnt-Meddon" viewBox="0 0 2527 1000" xmlns="http://www.w3.org/2000/svg"><path id="meddon" class="f" d="M794 566q3-1 6-1 2 0 4 2t1 4q0 4-3 8t-8 8l-36 21q-18 10-41 24t-51 30q-26 16-44 22t-29 6q-8 0-13-2t-8-6-5-9-1-10q0-13 3-34t7-47 11-54 13-57 14-55 13-50 11-40 7-26l-233 355q0 1-2 4t-7 8-10 8-12 4q-7 0-9-4t-1-7q0-2 0-3t0-2l25-262q-10 18-25 42t-33 52-40 58-45 60q7 16 7 33 0 13-4 27t-11 26-18 24-23 19-29 13-33 5q-1 0-2-1t-2-3-2-3-1-3q0 0 1-1t2-1q20 0 38-9t32-23 22-32 8-34q0-9-3-17-21 23-44 44t-47 35-46 25-46 9q-18 0-33-4t-24-10-16-18-6-26q0-20 9-37t23-30 33-25 39-17 41-11 38-3q26 0 45 6t31 16q30-37 58-78t51-82 39-81 23-75q0-1 2-8t5-17 8-22 11-21 13-17 16-6q7 0 11 3t6 7 3 10 1 11q0 3 0 6t0 4l-46 361 228-343q1-6 2-13t6-13 9-10 13-4q9 0 13 2t8 3 3 5 0 5q0 14-4 39t-11 54-16 63-19 68-18 66-16 58-11 46-5 28q0 3 1 6t1 7 5 5 8 3q5 0 12-3t19-9q38-21 71-41t62-38m-739 163q13 0 31-9t39-26 44-39 47-50q-10-7-24-11t-35-4q-17 0-35 3t-36 8-34 14-27 19-19 24-7 29q0 22 15 32t41 10m765-157l-26 15q-2 1-5 1t-6-2-2-4q0-3 3-8t10-8l62-36q7-19 18-33t24-24 27-13 28-5q13 0 22 7t9 23q0 9-7 19t-18 20-27 19-33 14q0 12-1 22t0 20q0 8 0 14t3 11 4 7 7 3q7 0 17-6t24-14q13-7 34-19t50-29q1 0 2 0 3 0 5 2t2 6q0 3-2 6t-7 7q-25 14-47 29t-43 27-37 19-30 8q-9 0-15-4t-11-11-7-21-2-32q0-3 0-10t1-14 2-14 3-11q-1 1-5 3t-7 4-10 6-9 6m138-85q0-2 0-3 0-7-2-9t-7-3q-5 0-13 4t-14 12-12 21-8 29q10-5 20-12t17-14 13-13 6-12m138 120q0-9 5-22t15-26 20-25 22-19l-121 72q-1 0-2 0t-2 0q-2 0-4-2t-1-5q0-3 2-7t7-7l67-40q13-9 31-18t36-17 37-13 37-6q15 0 28 5l63-128q3-6 6-12t7-11 11-8 18-4q4 0 5 2t1 6q-1 4-2 8t-3 9-2 7-2 5l-73 158q-5 16-13 33t-16 33-12 30-6 24q0 3 1 6t4 4q3 0 9-3t15-7 18-10 19-13l64-40q1-1 2-1 2 0 4 2t1 5q0 4-2 8t-5 7q-14 9-29 19t-30 19-29 19-27 16q-19 10-34 10-10 0-13-5t-4-14q0-5 1-11t3-11q-7 9-15 17t-19 13-20 8-20 3q-11 0-20-4t-17-11-12-20-4-28m159-85q1-3 2-6t4-8 2-7 1-4q0-1-5-2t-15-1q-12 0-25 7t-24 16-23 25-18 27-12 29-4 25q0 15 5 21t13 7q11 0 25-10t26-26 25-41 23-52m189 85q0-9 5-22t15-26 20-25 22-19l-121 72q-1 0-2 0t-2 0q-3 0-4-2t-2-5q0-3 3-7t7-7l67-40q13-9 31-18t36-17 37-13 37-6q15 0 28 5l63-128q3-6 6-12t7-11 11-8 18-4q4 0 5 2t0 6q0 4-1 8t-3 9-2 7-2 5l-73 158q-5 16-13 33t-16 33-12 30-6 24q0 3 1 6t3 4q4 0 10-3t15-7 18-10 19-13l63-40q2-1 3-1 2 0 3 2t2 5q0 4-2 8t-6 7q-13 9-28 19t-30 19-29 19-28 16q-18 10-33 10-10 0-13-5t-4-14q0-5 1-11t3-11q-7 9-16 17t-18 13-20 8-20 3q-11 0-20-4t-18-11-11-20-4-28m159-85q1-3 2-6t4-8 2-7 1-4q0-1-5-2t-15-1q-12 0-25 7t-24 16-23 25-18 27-12 29-4 25q0 15 5 21t13 7q11 0 24-10t27-26 25-41 23-52m359-54q14 0 24 6t19 15 11 23 4 27q0 9-2 19t-6 21-8 22-12 20q5-3 11-7t14-8 16-8 16-9l38-23q1-1 4-1 6 0 6 6 0 8-10 16-9 5-23 14t-31 17-33 15-32 8q-19 14-45 23t-59 8q-17 0-29-3t-19-8-10-14-3-19q0-16 6-33t16-35 20-32 20-24q-8 7-22 16t-33 21-38 22-40 24q-3 1-5 1-3 0-5-2t-2-5q0-3 3-7t9-8q38-21 64-37t45-27 33-17 27-11 27-5 34-1m-98 183q15 0 30-6t29-17q-4-4-5-9t-1-9q0-9 6-13t13-4q8 0 16 5 8-6 15-14t12-16 9-19 3-18q0-7-3-14t-9-12-16-8-25-3q-12 0-24 6t-23 17-20 24-16 28-11 28-4 26q0 12 6 20t18 8m518-143q-9 0-23 6t-31 14-34 22-36 27-32 31-27 32q-1 2-1 6t-2 9-5 8-13 4q-6 0-10-2t-5-4-3-6 0-8 2-13 7-20 8-24 10-26 10-25 8-22l-118 70q-2 0-2 0t-2 0q-3 0-5-2t-1-4q0-4 2-8t8-7q36-21 60-35t38-23 22-13 11-6q3-2 6-3t6 0q7 0 12 4t4 9-3 14-8 20-9 21-8 20q-2 4-3 6t-2 5-3 8-5 12q10-13 24-27t30-28 34-27 38-22 41-14 40-6q13 0 18 5t4 15q0 7-2 17t-8 23-10 27-13 28-12 29-13 27q14-5 30-14t32-21 36-24 41-27q2-1 5-1 6 0 6 7 0 3-3 7t-8 8q-29 18-52 34t-43 29-35 20-30 8q-8 0-14-2t-10-6-5-8-2-10q0-6 2-11t7-12q7-17 16-35t17-34 14-29 5-19q0-4-3-4" />
</svg>