<svg id="fnt-Meera Inimai" viewBox="0 0 2706 1000" xmlns="http://www.w3.org/2000/svg"><path id="meera-inimai" class="f" d="M105 312l110 306q19-53 55-154t54-152h57v355h-40v-256l0-30q-20 56-57 159t-46 127h-46q-8-21-46-126t-57-160l0 30v256h-40v-355h56m501 280l40 12q-13 32-39 50t-63 19q-21 0-39-6t-30-18-22-25-15-31q-8-25-8-55 0-46 17-79t49-48q20-10 44-10 21 0 39 7t29 18 21 27 14 32q8 27 8 62h-178q1 39 19 63t52 23q44 0 62-41m-130-83h128q-8-50-41-64-10-4-22-4-20 0-35 11t-22 28q-6 13-8 29m397 83l41 12q-14 32-40 50t-63 19q-21 0-39-6t-30-18-22-25-14-31q-9-25-9-55 0-46 17-79t49-48q20-10 45-10 21 0 38 7t29 18 21 27 14 32q8 27 8 62h-177q0 39 18 63t53 23q43 0 61-41m-130-83h128q-8-50-40-64-11-4-23-4-20 0-34 11t-23 28q-6 13-8 29m371-90l-23 39q-15-11-32-11-26 0-39 19t-12 50v150h-43v-258h40l2 25q6-9 15-16t20-10 24-5q25 0 48 17m141 20q-41 0-50 41l-42-12q10-31 34-49t61-18q23 0 42 7t32 21 19 31q9 20 9 47v160h-42l-2-26q-29 31-73 31-31 0-53-13t-32-35q-7-15-7-33 0-17 5-31t15-24 22-17 25-12q20-5 40-5 32 0 56 12v-7q0-33-14-51t-45-17m5 101q-29 0-46 12t-17 38q0 43 55 43 21 0 36-10t22-27q4-12 4-25v-17q-19-14-54-14m294 127v-357h46v357h-46m136-261l1 25q25-30 68-30 34 0 57 16t35 43q9 20 9 50v157h-43v-155q0-31-16-50t-46-19q-21 0-36 10t-21 28q-6 14-6 31v155h-42v-261h40m267-37q-9 11-23 11t-22-11-9-26q0-11 5-20t14-13q5-4 12-4 14 0 23 11t8 26-8 26m-1 40v258h-42v-258h42m96-2l1 25q7-9 15-15t19-11 24-4q24 0 42 11t30 30q11-19 30-30t43-11q15 0 29 4t23 14 17 19 12 24q8 21 8 48v154h-42v-153q0-30-13-50t-39-19q-26 0-39 19t-13 49v154h-42v-153q0-30-12-50t-40-19q-25 0-38 20t-13 49v153h-42v-258h40m442 32q-40 0-50 41l-42-12q10-31 34-49t61-18q24 0 42 7t32 21 20 31q8 20 8 47v160h-42l-2-26q-29 31-73 31-31 0-53-13t-32-35q-7-15-7-33 0-17 6-31t14-24 22-17 26-12q19-5 40-5 31 0 56 12v-7q0-33-15-51t-45-17m5 101q-29 0-46 12t-17 38q0 43 55 43 22 0 37-10t21-27q5-12 5-25v-17q-20-14-55-14m197-171q-8 11-23 11t-22-11-9-26q0-11 5-20t14-13q5-4 12-4 15 0 23 11t8 26-8 26m-1 40v258h-42v-258h42" />
</svg>