<svg id="fnt-Megrim" viewBox="0 0 1585 1000" xmlns="http://www.w3.org/2000/svg"><path id="megrim" class="f" d="M93 666v-14h197v-300l-113 241-112-241v315l-15-1v-350h15l112 242 113-241 15-1v351l-212-1m492-39l11 10q-28 35-90 35t-90-36-27-114 27-115 90-35q72 0 98 47l-122 103h-24l127-106q-22-29-79-29-25 0-42 5t-32 19-21 42-7 69 7 68 21 42 32 19 42 6q57 0 79-30m231-155h-24l67-56q-22-29-79-29-25 0-42 5t-32 19-21 42-7 69 7 68 21 42 32 19 42 6q56 0 78-29v-89h15v132q0 96-87 96h-59v-15h59q37 0 55-20t17-75v-8q-27 23-78 23-63 0-90-36t-27-114 27-115 90-35q72 0 98 47l-62 53m267 49l68 146h-17l-70-150q1-1 9-5t11-5 10-6 10-9 8-10 6-13 2-16q0-31-30-46t-74-15h-40v275h-15v-290h55q59 0 89 20t30 56q0 23-15 41t-37 27m136 146v-290h15v290h-15m157-1v-14h193v-254l-113 112-112-112v269l-15-1v-289h15l112 112 113-112h15v290l-208-1" />
</svg>