<svg id="fnt-Merriweather Sans" viewBox="0 0 4454 1000" xmlns="http://www.w3.org/2000/svg"><path id="merriweather-sans" class="f" d="M86 667h-56l38-372h83l65 209 19 80 18-80 62-209h79l44 372h-58l-22-226-7-102-26 102-73 229h-35l-77-229-27-102-7 102-20 226m532 4q-60 0-93-38t-32-106q0-40 14-72t42-51 70-19q21-1 39 6t33 19 22 33 10 47q0 16-1 28t-2 22h-194l5-36h138q1-20-3-38t-15-29-35-11q-20 0-35 11t-24 36-7 71q1 31 12 49t30 26 41 8q9 0 23-2t26-5 20-8l11 33q-9 8-25 13t-34 9-36 4m222-209l-4-38q4-8 16-17t28-16 34-7q9 0 16 1t10 3v54q-4-2-11-5t-25-2q-15 0-28 5t-21 10-15 12m3 205h-58v-278h49l4 35 5 21v222m198-205l-3-38q3-8 15-17t29-16 33-7q10 0 16 1t11 3v54q-4-2-12-5t-24-2q-16 0-28 5t-22 10-15 12m3 205h-57v-278h49l4 35 4 21v222m209 0h-58v-278h58v278m-32-328q-15 0-26-9t-11-25q0-11 6-20t16-14 20-6q18 0 27 10t9 25q0 17-13 28t-28 11m221 332h-54l-85-283h57l44 161 20 90h-16l19-89 46-162h56l45 161 20 89h-15l20-87 41-163h57l-86 283h-52l-49-176-16-75h12l-16 75-48 176m409 0q-60 0-92-38t-33-106q0-40 14-72t43-51 69-19q21-1 40 6t32 19 23 33 9 47q0 16 0 28t-2 22h-194l5-36h137q1-20-2-38t-16-29-35-11q-19 0-35 11t-24 36-7 71q2 31 13 49t29 26 41 8q10 0 23-2t27-5 20-8l11 33q-10 8-26 13t-34 9-36 4m239 0q-25 0-45-10t-30-28-11-43q0-27 14-45t39-30q16-6 34-10t38-5 35-2l12 15-12 20q-10 0-24 2t-27 4-22 7q-13 6-21 15t-9 25q0 21 12 32t34 11q12 0 24-4t21-8 12-8l11 13-8 21q-11 10-32 19t-45 9m131-196v192h-54v-42h-3v-153q0-25-13-33t-37-8q-16 0-32 4t-31 7-22 10l-13-42q6-3 22-10t38-11 44-5q31 0 54 7t35 27 12 57m160 196q-20 0-35-7t-24-22-8-45v-166h-36v-31q19-6 28-9t15-16q2-5 4-13t6-17 6-20h35v63h78v43h-78v136q0 27 2 39t9 16 20 3q7 0 16-1t17-5 13-5l10 33q-8 6-21 11t-27 9-30 4m191-4h-58v-407h58v115l-3 50-3-7q10-8 26-15t33-13 36-6q45-1 66 25t21 87v171h-58v-171q0-34-11-50t-41-13q-13 0-31 6t-35 18v210m366 4q-60 0-92-38t-33-106q0-40 14-72t43-51 69-19q21-1 40 6t32 19 23 33 9 47q0 16 0 28t-2 22h-194l5-36h137q1-20-2-38t-16-29-35-11q-19 0-35 11t-24 36-7 71q2 31 13 49t29 26 41 8q10 0 23-2t27-5 20-8l11 33q-10 8-26 13t-34 9-36 4m222-209l-3-38q3-8 15-17t29-16 33-7q10 0 16 1t11 3v54q-4-2-12-5t-24-2q-16 0-28 5t-22 10-15 12m3 205h-57v-278h49l4 35 4 21v222m334 4q-24 0-46-4t-37-9-22-9l12-48q9 6 24 11t31 9 34 3q35 0 53-11t18-38q0-17-9-29t-27-23-45-23q-23-11-44-27t-35-37-14-49q0-27 11-45t28-30 40-16 46-5q34 0 56 7t32 13l-11 46q-13-8-30-14t-47-7q-18 0-34 5t-25 15-9 25q0 17 7 29t23 21 42 24q19 10 37 21t33 24 24 30 9 39q0 34-16 57t-44 34-65 11m254 0q-25 0-45-10t-30-28-11-43q0-27 14-45t39-30q16-6 34-10t38-5 35-2l12 15-12 20q-10 0-24 2t-27 4-22 7q-13 6-21 15t-9 25q0 21 12 32t34 11q12 0 24-4t21-8 12-8l11 13-8 21q-11 10-32 19t-45 9m131-196v192h-54v-42h-3v-153q0-25-13-33t-37-8q-16 0-32 4t-31 7-22 10l-13-42q6-3 22-10t38-11 44-5q31 0 54 7t35 27 12 57m140 192h-58v-278h52l0 29q10-7 26-15t34-13 36-6q45-1 64 23t20 86v174h-58v-171q0-35-10-50t-40-14q-9 0-21 3t-23 9-22 13v210m241-17l8-42q3 2 15 7t29 9 34 4q24 0 37-9t12-23q0-11-7-19t-21-15-30-14q-22-11-40-23t-27-28-9-39q1-25 14-41t37-24 52-8q26 0 46 5t26 9l-9 44q-4-4-14-8t-21-6-25-2q-26 0-39 8t-13 20q-1 18 12 27t31 18q26 13 47 25t32 28 13 38q0 39-27 59t-73 21q-20 0-38-3t-32-8-20-10" />
</svg>