<svg id="fnt-Merriweather" viewBox="0 0 3388 1000" xmlns="http://www.w3.org/2000/svg"><path id="merriweather" class="f" d="M46 637l36-311-54-6v-25h132l71 225 16 64 15-64 70-225h132v25l-55 6 40 311 43 5v25h-144v-25l46-5-23-224-10-97-21 72-84 262h-32l-81-240-30-94-9 97-20 224 50 5v25h-131v-25l43-5m595 35q-61 0-93-39t-31-106q0-43 16-76t46-51 68-18q47 0 72 25t28 74q0 31-4 47h-172q1 49 23 79t63 31q20 0 41-8t34-17l10 22q-15 15-43 26t-58 11m-69-171h120q1-10 1-21 0-33-14-52t-41-18q-29 0-47 21t-19 70m219 166v-25l37-3v-211l-36-9v-27l69-9h1l11 9v9l-1 39h1q5-9 18-22t34-25 44-11q10 0 17 2v56q-4-2-12-5t-17-2q-41 0-77 26v180l64 4v24h-153m229 0v-25l37-3v-211l-36-9v-27l69-9h1l11 9v9l-1 39h1q5-9 18-22t34-25 44-11q10 0 17 2v56q-4-2-12-5t-17-2q-41 0-77 26v180l64 4v24h-153m287-328q-16 0-24-9t-8-23q0-16 9-26t27-11 25 9 8 23q0 17-10 27t-27 10h0m-20 299v-210l-38-9v-27l77-9h1l12 9v246l40 4v25h-133v-25l41-4m101-225v-24h117v24l-38 6 41 147 15 63 14-64 48-176h49l50 176 14 65 16-64 41-147-38-6v-24h101v24l-26 6-78 252h-47l-53-177-13-62-10 62-51 177h-46l-80-252-26-6m569 259q-61 0-93-39t-31-106q0-43 16-76t46-51 68-18q47 0 72 25t28 74q0 31-4 47h-172q1 49 23 79t63 31q20 0 41-8t34-17l10 22q-15 15-43 26t-58 11m-69-171h120q1-10 1-21 0-33-14-52t-41-18q-29 0-47 21t-19 70m218 91q0-47 47-70t119-23v-14q0-24-5-37t-18-20-34-6q-26 0-46 7t-40 18l-13-26q7-6 24-15t41-16 46-7q35 0 56 10t30 31 9 58v160h29v22q-10 3-25 5t-27 3q-14 0-19-5t-5-18v-17q-15 15-37 28t-49 12q-36 0-60-21t-23-59m105 46q13 0 30-8t31-19v-86q-55 0-83 17t-27 44 13 39 36 13m261 34q-29 0-43-13t-14-45v-192h-36v-22q3-1 14-4t16-5q8-5 12-18 4-10 10-31t6-25h30l1 72h83v33h-83v154q0 28 1 40t8 15 20 3q13 0 29-3t26-8l7 23q-12 9-39 17t-48 9m145-34v-344l-42-6v-21l81-10h1l11 8v116l-2 42q16-14 44-27t57-13q31 0 49 12t24 36 7 67v140l35 4v25h-119v-25l32-4v-140q0-30-4-47t-15-25-33-8q-18 0-38 9t-36 21v190l34 4v25h-116v-25l30-4m425 34q-60 0-92-39t-32-106q0-43 17-76t46-51 68-18q46 0 72 25t27 74q0 31-3 47h-172q1 49 23 79t62 31q20 0 42-8t34-17l9 22q-14 15-43 26t-58 11m-69-171h120q2-10 2-21-1-33-14-52t-42-18q-29 0-46 21t-20 70m219 166v-25l38-3v-211l-36-9v-27l69-9h1l11 9v9l-2 39h2q5-9 18-22t33-25 45-11q10 0 16 2v56q-3-2-11-5t-17-2q-42 0-77 26v180l63 4v24h-153" />
</svg>