<svg id="fnt-Metal" viewBox="0 0 1048 1000" xmlns="http://www.w3.org/2000/svg"><path id="metal" class="f" d="M222 587l87-176 31-66q13 2 38 2 9 0 20-1t23-1q1 2 0 8t-3 6q-6 0-13 3t-10 9q-5 6-7 14-2 7-5 29l-19 187q-3 25-3 38 0 11 8 13 4 2 11 2t10 1q1 0 1 4 0 6-3 9-23-1-36-2t-18 0q0 0-13 0t-38 2q-1-2-1-2 0-3 1-7t3-4q4 0 11-1t12-3 7-5q5-11 7-21 1-2 2-11t1-12l20-190q1-15 1-19 0-3-3-3 0 0-1 2l-128 260q-2 4-9 10t-13 6q-2 0-4-1l-41-277q0-1-1-1-1 0-1 1l-58 210q-9 34-9 41 0 3 7 6t16 6 10 2q1 0 1 3 0 5-2 10-23-1-36-2t-15 0q-1 0-14 0t-40 2q-1-1-1-5 0-8 4-8 4 0 12-2t16-5 9-5q9-16 17-43l53-191q2-10 4-19t2-18q0-4-7-7t-15-5-11-1q-1 0-1-4 0-8 3-10 18 1 29 1t17 0q14 0 25 0t21-1q2 20 12 81t25 161q0 1 1 1 1 0 1-1m318-133q23 0 33 12t10 25q0 21-22 42-15 14-32 24t-32 15-27 5q-2 0-2 17 0 22 9 34t23 11q6 0 15-3t13-7q5-5 5-5t2-1 9-9l1-2q1 0 4 5t3 7q-5 7-16 18t-25 19-27 9q-26 0-39-20t-13-55q0-23 9-48t26-46 35-34 38-13m-5 20q-11 0-23 10t-20 23-15 28-5 23q0 2 2 2 8 0 21-6t24-17 20-23 8-25q0-15-12-15m88-12h34l11-60q2-5 24-5 5 0 9 1l-12 64h44q3 0 3 6 0 6-5 14h-46l-26 133q-1 6-1 12 0 12 5 12 6 0 14-8t15-15l3-4q1 0 3 5t3 7q-4 7-15 18t-23 19-23 9q-8 0-13-8t-4-18q0-7 3-26l27-136h-35q-1 0-1-5 0-7 6-15m249-8q18 0 36 7l-30 154q-2 6-2 12 0 12 5 12 6 0 15-8t15-15l3-4q1 0 3 5t3 7q-4 7-15 18t-24 19-23 9q-7 0-12-8t-4-18q0-7 3-26l2-8q1-4 1-4-4 7-12 18t-16 21-20 17-21 7q-22 0-34-19t-13-47q0-35 21-69 14-24 33-42t42-28 44-10m-20 23q-15 0-29 10t-27 27-20 38-7 41q0 48 24 48 9 0 20-10t20-26 17-35 12-37l10-50q-6-6-20-6m109 141l46-237q1-7 1-13 0-9-29-9-2 0-2-3 0-6 4-10 33-3 62-14 3 2 3 9 0 6-6 37l-46 237q-2 6-2 12 0 12 5 12 3 0 7-2t9-7 10-10 6-8q2 0 4 5t3 7q-5 7-15 18t-24 19-23 9q-7 0-12-8t-4-18q0-7 3-26" />
</svg>