<svg id="fnt-Metrophobic" viewBox="0 0 2900 1000" xmlns="http://www.w3.org/2000/svg"><path id="metrophobic" class="f" d="M92 667h-38v-352h72l100 267h9l100-267h73v352h-38v-314h-9l-102 271h-57l-101-271h-9v314m510 5q-40 0-65-13t-35-41-11-75q0-64 24-97t83-32q41 0 65 15t32 44 10 76h-176q0 50 17 71t57 22q32 0 46-10t16-33h38q0 37-25 55t-76 18m-73-150h138q-1-30-8-47t-21-24-40-7-40 7-21 24-8 47m356-103v30h-60v152q0 21 9 30t28 9q8 0 15-1t14-2v33q-7 1-15 2t-21 1q-68 0-68-77v-147h-44v-30h44v-68h37v68h61m67 1h30l5 38q13-26 35-35t45-9h5v38h-6q-26 0-48 10t-29 34v171h-37v-247m275 252q-41 0-66-13t-36-41-11-75 11-75 36-41 66-13q41 0 66 13t37 41 12 74q0 47-12 76t-37 41-66 13m2-30q28 0 44-9t23-31 7-58q0-38-7-60t-23-30-46-9q-29 0-45 9t-23 31-7 59q0 37 7 59t24 30 46 9m223 120h-37v-342h30l4 33q6-10 16-19t26-14 43-6q50 0 74 29t24 98q0 72-24 102t-75 29q-31 0-50-7t-31-26v123m72-120q27 0 42-10t22-31 6-60q0-37-6-58t-21-29-42-9q-27 0-43 9t-23 30-7 59q0 39 6 61t22 30 44 8m219 25h-37v-352h37v134q12-18 30-26t53-9q47 0 67 24t21 79v150h-38v-150q0-39-14-55t-47-16q-39 0-55 17t-17 56v148m356 5q-41 0-66-13t-36-41-11-75 11-75 36-41 66-13q41 0 67 13t36 41 12 74q0 47-12 76t-36 41-67 13m2-30q28 0 44-9t23-31 7-58q0-38-7-60t-23-30-46-9q-28 0-45 9t-23 31-7 59q0 37 7 59t24 30 46 9m305 30q-27 0-43-5t-26-15-16-18l-4 33h-30v-352h37v132q13-17 31-25t50-8q51 0 75 30t24 101q0 69-24 98t-74 29m-9-30q27 0 42-9t21-30 6-57q0-39-6-61t-22-31-42-9q-28 0-44 8t-22 29-6 61q0 38 7 59t23 31 43 9m175-267v-47h50v47h-50m43 45v247h-37v-247h37m246 171h38q0 44-23 63t-74 18q-41 0-66-13t-36-41-11-76q0-46 11-74t37-41 66-13q48 0 72 20t24 61h-38q-2-27-16-39t-43-12q-29 0-45 10t-23 30-7 59q0 37 7 59t24 31 46 9q30 0 43-12t14-39" />
</svg>