<svg id="fnt-Michroma" viewBox="0 0 3158 1000" xmlns="http://www.w3.org/2000/svg"><path id="michroma" class="f" d="M95 667h-47v-375h70l226 306 224-306h70v375h-47v-333l-224 308h-43l-229-308v333m669 0h-47v-266h47v266m0-328h-47v-47h47v47m226 333q-47 0-80-5t-53-19-29-45-10-78q0-48 10-77t29-44 53-19 80-5q57 0 93 6t54 27 18 61h-45q0-24-10-35t-35-16-75-4q-43 0-68 4t-38 14-15 32-4 56q0 36 4 57t15 33 38 14 68 4q37 0 61-2t36-8 18-18 5-32h45q0 33-10 52t-30 30-51 14-74 3m268-5h-47v-375h47v131q10-14 26-24t41-14 68-5q55 0 87 11t46 38 13 78v160h-47v-160q0-29-5-46t-17-27-32-12-53-3q-49 0-77 8t-39 25-11 45v170m395 0h-47v-282h47v39q8-12 16-21t20-13 35-7 58-2v40q-48 0-75 3t-38 12-14 22-2 37v172m353 5q-47 0-80-5t-53-19-30-45-9-78q0-48 9-77t30-44 53-19 80-5q47 0 80 5t53 19 30 44 9 77q0 49-9 78t-30 45-53 19-80 5m125-147q0-35-3-56t-16-32-37-14-69-4q-43 0-69 4t-37 14-16 32-3 56q0 36 3 57t16 33 37 14 69 4q44 0 69-4t37-14 16-33 3-57m150 142h-47v-282h47v35q10-14 25-23t37-15 59-4q44 0 72 12t41 41q12-19 29-31t42-17 63-5q44 0 72 12t41 41 13 79v157h-47v-157q0-38-8-58t-27-28-50-7q-62 0-89 18t-26 60v0q0 7 0 15v157h-47v-157q0-38-8-58t-27-28-50-7q-62 0-89 18t-26 60v172m704 5q-50 0-83-5t-49-23-16-56q0-38 15-56t48-23 85-6q43 0 72 2t52 7q0-32-4-51t-15-28-31-11-55-3q-39 0-61 2t-32 6-13 13-2 21h-47q0-26 7-42t25-25 47-11 76-3q49 0 80 6t46 23 21 46 5 76v136h-47v-20q-8 9-23 15t-39 7-62 3m0-38q42 0 67-1t37-5 16-15 4-27v-43l-124-2q-33 0-53 1t-30 6-14 14-4 26q0 16 4 25t14 14 30 6 53 1" />
</svg>