<svg id="fnt-Micro 5" viewBox="0 0 1138 1000" xmlns="http://www.w3.org/2000/svg"><path id="micro-5" class="f" d="M0 667v-46h45v46h-45m0-46v-45h45v45h-45m0-45v-46h45v46h-45m0-46v-45h45v45h-45m91 137v-46h45v46h-45m0-46v-45h45v45h-45m0-45v-46h45v46h-45m0-46v-45h45v45h-45m91 137v-46h45v46h-45m0-46v-45h45v45h-45m0-45v-46h45v46h-45m0-46v-45h45v45h-45m-46-45v-46h46v46h-46m-91 0v-46h46v46h-46m-45 0v-46h45v46h-45m273 182v-46h45v46h-45m0-46v-45h45v45h-45m0-45v-46h45v46h-45m0-91v-46h45v46h-45m136 45v-45h46v45h-46m-45 46v-46h45v46h-45m0 45v-45h45v45h-45m45 46v-46h46v46h-46m46-137v-45h45v45h-45m0 137v-46h45v46h-45m90-137v-45h46v45h-46m0 46v-46h46v46h-46m0 45v-45h46v45h-46m0 46v-46h46v46h-46m46-137v-45h45v45h-45m91 46v-46h45v46h-45m0 45v-45h45v45h-45m45 46v-46h46v46h-46m46-46v-45h45v45h-45m0-45v-46h45v46h-45m-46-46v-45h46v45h-46m364-45v-46h45v46h-45m-46 0v-46h46v46h-46m-45 0v-46h45v46h-45m0 45v-45h45v45h-45m0 46v-46h45v46h-45m45 0v-46h46v46h-46m46 45v-45h45v45h-45m0-45v-46h45v46h-45m0 91v-46h45v46h-45m-46 0v-46h46v46h-46m-45 0v-46h45v46h-45" />
</svg>