<svg id="fnt-Miltonian" viewBox="0 0 2523 1000" xmlns="http://www.w3.org/2000/svg"><path id="miltonian" class="f" d="M115 363q-8 0-17 1t-15 2q-3 0-7-1t-9-2-7-4-3-6q0-8 9-13 22-3 39-5t35-3 39-1 53 0q0 11 5 33t11 51 14 58 15 55q0 0 2 0t2 1q4 0 10-9t12-21 13-30 12-32 10-29 8-22q0 0 0-3t0-8 0-10 0-8q0-2 1-8t8-5q6-1 20-4t29-5 30-5 20-3q3 0 7 0t8 1 7 4 3 8q0 8-6 10t-11 4-12 4-5 11q0 7 3 24t9 35 10 32 11 17q3 2 7 3t10 2 7 3 3 4q0 6-3 9t-6 6-7 7-3 12v13q1 2 4 11t7 20 8 22 7 17q4 13 8 20t10 11 14 6 21 5q0 1 0 3t0 3q0 2-2 7t-6 5h-111l-25-26-57-206-9 8q-3 6-8 17t-12 27-14 30-14 30-12 25-9 17q-4 7-11 15t-13 17-15 14-16 6q-12 0-18-7t-10-19q-18-50-36-101t-28-101q-2 6-6 21t-9 34-11 42-11 42-11 37-10 26q-2 2-3 6t-2 7-2 7 0 5q0 2 2 6 1 2 2 3h37q-1 2-1 5t-3 7-7 6-12 3h-98q0-10 5-14t12-6 13-4 11-9q3-7 8-16t9-17 7-15 4-9q7-25 17-50t18-49 14-48 6-45q0-6-1-12t-2-12m260 22q0 7 3 17t5 22 7 23 5 22q12 40 23 80t26 78q3 7 6 11t8 7 8 2 10 1q8 0 16-2t13-2q0-1-3-4t-5-7-6-7-3-3q-5-20-11-47t-14-55-15-57-14-51-14-36-10-14q-15 0-23 4t-12 18m-218-6q0 2 0 6t0 6l62 206q1 5 5 7t7 2h5q2-2 7-8t9-14 8-14 4-7q-5-14-11-37t-14-50-15-59-17-60q-1 0-4-1t-7 0-6 0-4 0q-7 0-13 0t-9 3-6 7-1 13m429 286q0-10 5-12t13-3 13-1 10-5q0-2 0-6t0-7 0-8 0-5q0-26-2-52t-8-51q-6-9-14-11t-17-2-13-2-6-10q0-5 7-9t17-7 19-6 14-3q19-7 39-15t42-7q6 0 8 2t2 13q0 4-1 8t-2 8q0 28-1 51t0 36q0 13 0 21t2 15 3 14 6 19q1 7 7 12t13 9 11 8 6 6q0 8-6 10t-14 3q-1 0-3-1t-3 0q-14-4-32-5t-34-1-32 1-33 5q-1 0-2 0t-1 1q-13 0-13-13m63-25l6 6h50q-2-3-4-11t-4-14-3-13-2-5q0-15 0-32t-1-33-1-31-1-26l-3-10q-6 2-12 3t-12 0q-3 0-8 2t-11 3-10 4-6 4q7 4 11 15t4 19q0 2 1 15t3 31 2 37 1 36m-47-255q0-22 12-37t32-24q21 0 33 12t13 32q0 10-5 20t-14 19-18 13-20 5q-18 0-26-11t-7-29m21-2q0 10 3 14t13 5q6 0 12-4t11-9 8-10 4-8q0-1-3-6t-4-6q0-1 0-3t-1-4-4-4-6-2q-6 2-12 5t-10 8-8 11-3 13m140 276q0-4 3-7t6-3h41q1 0 2-3t1-6q0-1 0-5t-1-9-1-10-1-7q-6-45-6-90 0-33 1-65t2-64q0-4 0-8t-3-8q-2 0-5 1t-6 0q-5 0-10-2t-4-10q0-3 3-7t9-5 11-5 8-3q17-7 33-14t30-11q1 0 1-1t2 0q6 0 9 7t3 12q0 6-1 15t-4 16-3 15-1 10q0 29-2 54t-3 47-3 47-2 50q0 10 1 16t3 18q0 7 2 10t3 5 6 2 9 0h3q9 0 15 1t7 8q0 5-2 9t-8 6q-16 0-30 1t-27 2-28 3-29 3q0 0-3 0t-4 1q-4 0-9-1t-9-3-7-4-2-8m62-166q0 21 1 39t2 37 4 36 6 38q3 0 6 0t6 1q3 0 5-2t2-5q-1-8-2-14t-1-11 0-14 0-18q0-21 1-48t4-57 3-62 2-65q-2 0-7 1t-12 4-10 4-6 5l-3 6q0 2 1 7t1 12 0 11 1 7q0 11-1 19t-1 17-1 21-1 31m154 98q0 0 1-9t2-21 2-25 2-24q0-1 0-4t0-7-1-7 0-4h-61q-4 0-6-5t-1-7q0-7 7-10 8-1 19-2t21-1 18-2 10-2q1-6 2-12t1-15q0-2 0-6t-1-9-1-8-1-6q0 0-2 0t-4 1-7 1-6 1q-5 0-10-4t-5-10q0-6 4-10t13-6 17-4 19-3q1 0 3 0t6 0q1 0 2 0t2 0q7-2 13-6t14-8 14-6 15-2q9 0 10 5t2 14q0 0-1 6t-2 15-2 19-1 17q0 4 0 10t0 12 1 11 0 7q12 0 23-2t22-2q5 0 9 2t4 8q0 2 0 4t-3 6q-7 0-16 0t-18 2-14 2-8 1q-1 1-3 8t-4 16-3 18-2 15q0 10-1 18t-3 15-2 18-1 22q0 10 7 19t18 8q4 0 9 0t10-1q7 0 13 2t6 10q0 0-1 1v0q-5 8-16 12t-22 7-22 3-18 0q-22 0-36-8t-22-20-11-28-3-30m25-1q0 12 1 23t6 19 13 13 25 4q1 0 4 0t5 0q-7-10-8-20t-2-22q0-16 2-29t1-22q0-7 0-12t1-8 1-6 2-6q6-39 8-74t2-70q-2 0-10 2t-15 5-14 7-6 11q0 11-1 27t-3 35-4 38-4 36-3 30-1 19m167 36q-10-15-11-31t-2-33q0-25 15-45t37-34 49-22 52-7q25 0 45 13t33 33 21 44 8 45q0 28-15 51t-44 36q-4 1-13 3t-20 4-20 4-13 1q-37 0-68-13t-54-49m84-141q-10 0-23 8t-25 21-21 28-8 31q0 10 3 21t12 19q6 8 14 16t15 14 15 10 13 5q-5-20-12-42t-6-42q0-6 1-17t5-25 7-26 10-21m-1 92q0 10 1 23t5 26 10 22 15 9q17 0 27-12t14-30 5-36 1-35q0-10-2-21t-5-21-8-17-8-7q-18 0-29 10t-16 26-8 32-2 31m81 67q0 1 0 2 0 5 6 5 13 0 22-7t17-18 9-25 4-27q0-32-15-53t-38-36q7 19 9 38t3 36q0 10-1 21t-4 22-6 22-6 20m106 15q1-7 4-8t8-2q1 0 2 0t2 1q8 0 12-4t6-8 2-12 1-13q0-26 3-52t4-53q0-17-2-33-3 0-8 0t-8 0-7 1-5 0q-4-1-10-3t-5-8q0-2 3-6t4-5q3 0 6 0t5 0q14 0 20 0t9-1 7-1 13 0 20-4 19-7q6 1 10 3t7 4l-3 25q1 0 2 0 0 1 2 1 2 0 7-4t7-4q24-11 38-16t25-5q5 0 12 2t16 7 15 12 10 15q7 17 10 28t2 20q0 7-1 13t-2 14-2 16-1 22q0 5 0 8t1 6 2 8 3 11 4 11 4 6q2 2 6 3t8 2 6 3 3 6-7 7-17 4-18 2-13 0q-17 0-29-9t-20-24-12-36-3-45q0-6-1-18t-3-22-8-19-14-8q-7 0-14 3t-11 10-8 12-3 12l-10 99q0 17 10 24t26 8q4 1 4 5 0 6-6 8t-12 2q-6 0-11-2t-9-2-10-3-13-1q-18 0-36 4t-34 8q-7-1-10-6t-4-12m61-185l-2 11q0 7 0 14t1 16q0 4-1 16t-2 26-2 32-1 30q0 11 0 17t2 8 6 4 12 0 11-1 3-7q0-6-2-16 1-9 2-22t3-27 3-29 3-28 2-23 1-14v-2q0-4-1-9t-6-5q-1 0-6 0t-10 2-10 3-6 4m116-1q0 4 2 6t6 6 6 9 4 16q2 13 1 34t2 42 9 40 26 28q5 0 10-5t5-11q0-1-2-7t-2-13-3-13-1-8q0-18 1-35t2-34q0-14-3-27t-13-25q-3-4-8-6t-10-3-10-1-8-1q-6 0-10 2t-4 6m152 192q0-10 5-12t12-3 14-1 9-5q0-2 0-6t0-7 1-8 0-5q0-26-2-52t-8-51q-6-9-15-11t-16-2-14-2-5-10q0-5 7-9t17-7 19-6 13-3q19-7 39-15t43-7q6 0 7 2t2 13q0 4 0 8t-3 8q0 28 0 51t0 36q0 13 0 21t1 15 4 14 5 19q2 7 8 12t12 9 12 8 5 6q0 8-6 10t-13 3q-1 0-4-1t-2 0q-15-4-32-5t-34-1-33 1-33 5q-1 0-1 0t-2 1q-12 0-12-13m62-25l6 6h50q-1-3-3-11t-4-14-4-13-1-5q0-15-1-32t-1-33-1-31 0-26l-3-10q-6 2-12 3t-13 0q-2 0-7 2t-11 3-11 4-6 4q8 4 11 15t5 19q0 2 1 15t2 31 2 37 1 36m-47-255q0-22 13-37t31-24q21 0 34 12t13 32q0 10-6 20t-13 19-18 13-20 5q-18 0-26-11t-8-29m22-2q0 10 3 14t13 5q6 0 12-4t11-9 8-10 3-8q0-1-3-6t-3-6q0-1-1-3t-1-4-3-4-6-2q-6 2-12 5t-11 8-7 11-3 13m147 248q0-18 9-32t25-23 38-16 49-12q12-2 19-3t11-4 6-9 1-21q0-8-1-15t-6-13-11-9-18-3q-9 0-13 4t-7 8-3 9 0 7q0 6 2 8t2 7q0 5-3 8t-7 4-10 1-9 1-11 1-11 3-10 3-6 2q-5 0-7-6t-2-10q0-5 3-13t9-16 10-15 10-10q15-12 28-19t32-7q9 0 19 1t20 3 20 8 17 11q7 7 12 15t7 18 4 19 1 16q0 14-3 28t-4 32q0 8 2 16t6 17 9 13 11 6q3 0 5-2t6-2q6 0 8 3t2 7q0 4-3 10t-9 10-14 9-19 4q-15 0-22-2t-16-8q-2-1-6-5t-8-8-7-7-4-4q-16 20-39 31t-47 10q-16 0-28-6t-21-16-13-19-5-18m18-4q0 9 5 17t12 12 15 8 15 3q6 0 10-2-5-11-9-24t-3-27q0-11 4-22t11-20q-9 5-20 10t-19 12-15 14-6 19m65-16q0 4 1 12t2 15 5 14 8 7q6 0 12-2t12-7 10-11 4-12l6-62q-10 0-21 2t-19 9-14 14-6 21m98-93q0 11-3 20t-6 17-6 17-3 21q0 13 3 25t9 21 18 15 27 6q-16-18-22-39t-5-42q0-9 1-16t3-13 3-13 1-17q0-7-3-15t-7-14-11-11-12-5q7 12 10 21t3 22m-99-44q-6 1-12 5t-11 11-8 14-3 14q2-3 10-4t15 0q4 0 6 0t5 0q-2-5-2-18 0-5 0-11t0-11m190 185q1-7 4-8t8-2q1 0 1 0t3 1q7 0 11-4t6-8 3-12 0-13q0-26 4-52t3-53q0-17-1-33-4 0-8 0t-8 0-8 1-4 0q-5-1-10-3t-6-8q0-2 3-6t5-5q3 0 5 0t5 0q15 0 21 0t9-1 6-1 14 0 20-4 19-7q6 1 10 3t6 4l-2 25q0 0 1 0 1 1 2 1 2 0 7-4t8-4q23-11 37-16t25-5q5 0 13 2t16 7 14 12 11 15q7 17 9 28t3 20q0 7-1 13t-3 14-2 16-1 22q0 5 0 8t1 6 2 8 4 11 4 11 3 6q3 2 7 3t7 2 7 3 3 6-8 7-16 4-19 2-13 0q-16 0-28-9t-20-24-12-36-4-45q0-6 0-18t-3-22-8-19-15-8q-7 0-13 3t-11 10-8 12-4 12l-10 99q0 17 10 24t27 8q3 1 3 5 0 6-5 8t-13 2q-6 0-11-2t-9-2-10-3-12-1q-18 0-36 4t-34 8q-7-1-11-6t-3-12m61-185l-2 11q0 7 0 14t0 16q0 4-1 16t-2 26-2 32-1 30q0 11 1 17t2 8 6 4 12 0 10-1 3-7q0-6-2-16 1-9 2-22t3-27 3-29 3-28 2-23 1-14v-2q0-4-1-9t-5-5q-1 0-6 0t-10 2-11 3-5 4m115-1q0 4 3 6t5 6 6 9 5 16q1 13 1 34t1 42 10 40 25 28q5 0 10-5t5-11q0-1-1-7t-3-13-3-13-1-8q0-18 2-35t2-34q0-14-4-27t-13-25q-2-4-7-6t-10-3-10-1-9-1q-5 0-9 2t-5 6" />
</svg>