<svg id="fnt-Mina" viewBox="0 0 1007 1000" xmlns="http://www.w3.org/2000/svg"><path id="mina" class="f" d="M65 667h-37l24-366h51l97 304 95-304h50l28 366h-37l-22-299-94 299h-38l-97-299-20 299m361-309v-27q0-12 12-12h25q11 0 11 12v27q0 12-11 12h-25q-12 0-12-12m42 309h-37v-266h37v266m98 0h-37v-266h26l11 31q2 0 11-6t12-7 11-6 12-5 11-4 13-4 13-2 15-1q38 0 60 25t22 60v185h-37v-185q0-24-12-36t-33-12q-19 0-36 4t-27 8-35 16v205m225-63v-31q0-30 18-48t49-18q49 0 82 0 13 0 21 0t8 0q0-15 0-25 0-2 0-3t0-3 0-2 0-1q0-41-41-41-45 0-128 6v-27q50-14 129-15 1 0 2 0 33 0 54 19t21 58v194h-28l-9-32-8 3q-7 4-19 9t-26 10-30 9-28 4q-29 0-48-18t-19-48m37-28v25q0 32 30 32 18 0 45-7t47-12l19-7v-71l-111 8q-15 1-23 10t-7 22" />
</svg>