<svg id="fnt-Mingzat" viewBox="0 0 1871 1000" xmlns="http://www.w3.org/2000/svg"><path id="mingzat" class="f" d="M97 667h-51v-361h80l104 291 106-291h79v361h-50v-314l-115 314h-40l-113-311v311m448 0h-45v-250h45v250m2-315h-48v-46h48v46m122 315h-45v-250h45v32q6-6 11-12t11-11q20-16 54-16 96 0 96 92v165h-44v-166q0-17-9-31t-22-22-31-8q-18 0-33 8t-24 23-9 34v162m354 99q-54 0-81-31-20-22-20-48h47q0 24 20 36 18 12 42 12 36 0 52-25 17-26 17-90-34 40-80 40-110 0-110-127 0-35 13-63t38-44 55-16q41 0 61 12 10 5 23 22v-27h45v235q0 50-31 81-34 33-91 33m3-138q38 0 57-29 16-25 16-65 0-92-75-92-68 0-68 91 0 44 18 69t52 26m371 39h-184v-42l133-173h-123v-35h174v41l-134 174h134v35m152 6q-36 0-64-18-32-20-32-54 0-52 46-75 35-17 90-17 6 0 17 0t17 1q2-8 2-17 0-49-56-49-23 0-37 8-19 11-19 32h-46q0-74 100-74 80 0 97 43 5 15 5 79v43q0 74 7 92h-45q-1-6-3-15t-3-22q-9 11-17 19t-14 12q-18 12-45 12m0-33q43 0 60-29 14-22 14-67-20-2-26-2-34 0-61 10-36 14-36 43 0 20 15 33 13 12 34 12m277 34q-28 0-42-15t-14-58v-152h-45v-32h45v-50l45-18v68h55v32h-55v152q0 38 26 38 8 0 16-2t13-2v32q-9 3-20 5t-24 2" />
</svg>