<svg id="fnt-Miniver" viewBox="0 0 1701 1000" xmlns="http://www.w3.org/2000/svg"><path id="miniver" class="f" d="M501 680l10 32q-26 9-45 15t-35 9-25 5-16 1q-5 0-8 0t-5-1-3-1q-7-5-14-15t-13-27-9-34-3-39q0-13 1-25 2-14 7-36t11-45 13-50 13-48 9-40 4-28q0-6-1-8-3-5-12-5-6 0-15 3t-19 7-19 9-18 12q-4 14-15 52-4 15-11 38t-16 52-21 70-27 88l-51-10q7-19 18-46t21-57 22-62 20-58 14-49 5-30q0-4 0-5-2-6-7-8t-10-2q-7 0-16 3t-16 6-16 8-11 8-9 8-11 10q-4 14-17 49-5 15-13 36t-17 50-24 66-29 85l-50-19q20-47 34-84t27-64 19-48 13-34q12-32 15-43 3-8 5-18t2-17-2-13-10-6q0 0-5 2t-13 8-23 21-35 41l-8-51q7-8 21-19t28-20 29-15 25-7q2 0 4 1 5 1 9 6t7 11 5 16 4 17q10-7 23-14t24-12 24-8 19-3h2q8 1 16 8t15 19q9-5 21-11t25-10 23-7 19-3h0q9 0 20 8t19 20 15 24 7 21q0 6-5 23t-13 44-17 56-18 62-13 60-5 50q0 27 9 36 9 8 18 11t19 3q14 0 26-5t24-10 19-12 12-8m76-375l35 6q-11 13-17 26t-8 21q-3 11-4 20l-38 3q1-22 10-42t22-34m69 255l14 31q-17 20-34 36t-33 28-29 18-22 8q-1 0-4 0-10 0-20-4t-19-12-15-16-5-18v-1q0-10 5-33 4-21 13-58t25-100l41 7q-21 68-26 111t-6 65q0 7 0 11t0 8q1 3 1 6 18-10 38-22 16-12 36-28t40-37m17-89q13-6 24-12 8-4 16-8t8-4q0 2 1 4t0 3q0 2 0 5t-1 5q15-14 31-23t32-13h2q6 0 15 3t18 9 15 12 7 11q0 3-4 14t-9 27-12 34-12 38-10 36-4 29q0 8 3 13t8 7q18-3 34-10 14-7 30-18t28-29l14 37q-11 12-27 23t-33 20-33 13-28 4q-12 0-18-5-7-4-10-20t-3-33q0-10 0-20t3-19q3-20 10-41t12-40 11-35 5-26q-32 10-56 32t-38 49q-16 33-27 68t-23 71l-44-11q6-10 13-26t15-34 14-38 12-39 8-34 4-27l-1-2m308-166l35 6q-11 13-17 26t-8 21q-3 11-3 20l-39 3q1-22 10-42t22-34m69 255l14 31q-17 20-34 36t-33 28-29 18-22 8q-1 0-4 0-10 0-20-4t-19-12-15-16-5-18v-1q1-10 5-33 4-21 13-58t26-100l40 7q-20 68-26 111t-6 65q0 7 0 11t0 8q1 3 1 6 18-10 38-22 16-12 36-28t40-37m142-70q1-2 5-7t8-11 6-12 3-10q0-2-1-3-1-1-2-1-3 0-6 5t-6 12-5 14-2 13m120-3l11 27q-11 6-23 13t-23 13-26 10-26 4q-6 0-13-1t-13-4q-15 22-31 44t-31 41-26 30-18 13q-2 1-5 1-9 0-17-6t-13-17-9-26-4-32q-1-2-1-4v-12q0-18 3-56t16-102l40 17q-1 4-4 21t-5 42-5 50-2 49q0 12 0 22t3 18q8-11 19-26t23-31 21-31 18-26q-2-3-2-7 0-4 0-9t0-10q0-11 0-22t3-23 7-18 11-11q7-3 16-3 15 0 28 9t12 25v3q-1 15-33 66h1q6 0 19-4t29-10 29-13 21-14m65-22q-4 0-11 6t-14 15-16 22-14 27q-3 5-5 10t-4 10q13-3 27-6t21-8q3-3 7-10t8-16 6-19 3-18q0-5-2-9t-6-4m90 104l18 35q-9 6-20 15t-25 16-26 17-24 15-19 11-10 4q-1 1-4 1-8 0-22-4t-27-11-25-13-15-13q-3-6-4-14t-2-20q0-10 1-21t3-21 4-18 5-13q4-7 11-18t17-21 20-24 21-21 21-16 18-6q1 0 1 0t1-1q8 0 16 7t13 17 10 21 3 19q0 5 0 7-2 7-9 19t-15 22-16 20-12 11q-3 3-10 5t-18 4-21 5-22 3q-2 10-3 17t-1 10q1 5 5 11t13 9 16 7 18 3q2 0 4 0t5 0q8-3 23-12t31-20 30-23 22-21m221 23l22 23q-6 11-13 21t-18 19-22 16-24 9q-6 1-10 1t-10 1q-21 0-37-9t-17-26v-5q0-11 2-30t5-42 7-44 6-37l-31-14-80 201-43-6q3-7 11-25t19-40 20-44 16-35q6-14 12-33t12-38 9-33 3-21l43 11q-1 2-2 4t0 5q0 5 2 11t5 10 8 8 8 3q2 0 5-3t4-9q0-3 4-6t8-5 10-3 9-2q4 0 5 2 2 4 5 8t2 10-2 11-8 9q-8 5-14 19t-10 30-6 36-2 39q0 19 2 36t7 28q15-3 26-7t20-12 17-17 15-25" />
</svg>