<svg id="fnt-Miriam Libre" viewBox="0 0 3137 1000" xmlns="http://www.w3.org/2000/svg"><path id="miriam-libre" class="f" d="M213 673q-3 0-6-2t-4-4l-96-278-33 269q0 4-3 6t-7 3h-23q-4 0-7-3t-1-6l43-333q1-3 2-4t4-2h35q3 0 6 2t4 5l98 285 100-287q1-5 6-5h34q4 0 7 2t3 7l43 330v1q0 3-2 5t-6 3h-24q-4 0-7-3t-3-6l-33-268-96 277q-1 3-4 4t-5 2h-25m324-328q-3 0-5-2t-2-5v-44q0-3 2-5t5-2h24q3 0 5 2t2 5v44q0 3-2 5t-5 2h-24m11 322q-8 0-13-6t-5-12v-228h-52q-3 0-5-2t-2-5v-23q0-3 2-5t5-2h73q7 0 12 5t6 13v228h51q3 0 5 2t2 5v23q0 3-2 5t-5 2h-72m129 0q-3 0-5-2t-2-5v-23q0-3 2-5t5-2h41v-211h-41q-3 0-5-2t-2-5v-21q0-3 2-5t5-2h62q8 0 13 5t5 13v25l29-23q18-14 29-19t24-4h15q4 0 5 2t2 5v24q0 3-2 5t-5 2h-11q-12 0-23 5t-33 23l-30 24v159h58q3 0 5 2t2 5v23q0 3-2 5t-5 2h-138m295-322q-3 0-5-2t-2-5v-44q0-3 2-5t5-2h24q3 0 5 2t2 5v44q0 3-2 5t-5 2h-24m10 322q-7 0-13-6t-5-12v-228h-52q-3 0-5-2t-2-5v-23q0-3 2-5t5-2h73q8 0 13 5t5 13v228h52q3 0 5 2t2 5v23q0 3-2 5t-5 2h-73m212 6q-38 0-63-22t-24-57q0-33 22-54t62-27l65-9q15-2 21-10t7-22v-4q0-24-19-39t-47-15q-22 0-38 9t-26 24q-4 7-10 7-3 0-6-3l-14-9q-4-4-4-8 0-2 1-5 15-24 40-38t58-14q30 0 54 11t36 32 13 48v192q0 3-2 5t-5 2h-21q-3 0-5-2t-2-5v-35q-16 23-40 35t-53 13m4-35q25 0 45-13t31-33 11-38v-21q-12 2-77 11l-14 2q-50 7-50 47 0 20 15 33t39 12m216 29q-3 0-5-2t-2-5v-269q0-3 2-5t5-2h25q3 0 5 2t2 5v27q12-20 31-31t44-10q32 0 55 15t33 40q11-26 33-40t50-14q42 0 68 26t27 68v188q0 3-2 5t-5 2h-25q-3 0-5-2t-2-5v-180q0-32-17-49t-45-17q-31 0-51 22t-19 61v163q0 3-2 5t-5 2h-25q-3 0-5-2t-2-5v-181q0-32-17-49t-45-16q-31 0-50 22t-19 60v164q0 3-2 5t-5 2h-25m608 0q-7 0-13-6t-5-12v-323q0-3 2-5t5-2h27q3 0 5 2t2 5v302h127q3 0 5 2t2 5v25q0 3-2 5t-5 2h-150m246-322q-3 0-5-2t-2-5v-44q0-3 2-5t5-2h24q3 0 5 2t2 5v44q0 3-2 5t-5 2h-24m10 322q-7 0-13-6t-5-12v-228h-52q-3 0-5-2t-2-5v-23q0-3 2-5t5-2h73q8 0 13 5t5 13v228h52q3 0 5 2t2 5v23q0 3-2 5t-5 2h-73m255 6q-22 0-42-9t-34-24v20q0 3-2 5t-5 2h-23q-3 0-5-2t-2-5v-366q0-3 2-5t5-2h25q3 0 5 2t2 5v118q14-16 33-26t41-9q29 0 53 14t38 38 14 53v87q0 28-14 52t-38 38-53 14m-4-37q19 0 35-9t25-25 10-35v-83q0-19-10-35t-25-26-35-9-35 9-26 26-9 35v83q0 19 9 35t26 25 35 9m166 31q-3 0-5-2t-2-5v-23q0-3 2-5t5-2h41v-211h-41q-3 0-5-2t-2-5v-21q0-3 2-5t5-2h62q8 0 13 5t5 13v25l29-23q18-14 29-19t24-4h15q4 0 5 2t2 5v24q0 3-2 5t-5 2h-11q-12 0-23 5t-33 23l-30 24v159h58q3 0 5 2t2 5v23q0 3-2 5t-5 2h-138m333 0q-30 0-55-15t-39-40-15-54v-72q0-29 15-55t39-39 55-15 54 15 40 39 14 55v34q0 8-5 13t-13 5h-160v22q0 19 9 35t26 25 35 10h72q3 0 5 2t2 5v23q0 3-2 5t-5 2h-72m-70-165h139v-18q0-19-9-35t-25-26-35-9-35 9-26 26-9 35v18" />
</svg>