<svg id="fnt-Miss Fajardose" viewBox="0 0 2085 1000" xmlns="http://www.w3.org/2000/svg"><path id="miss-fajardose" class="f" d="M119 602q8 0 14-9t7-16-2-11q-10 9-17 18t-6 13 4 5m174-114q0 4 2 4 10 0 19-14t13-35q-34 31-34 45m114-139q0-3-3-3-13 0-24 16t-14 38q41-36 41-51m-156-16q45 0 66 25t21 62v4l19-16q1-28 17-52t40-23q8 0 8 9t-15 27-42 40v3q0 29 23 29 16 0 25-8 4-3 6-3t2 2-2 4-5 3-6 4q-8 6-23 6-26 0-28-32l-20 17q-3 28-16 48t-29 20q-10 0-10-10 0-18 47-60 0-3 0-10 0-34-21-57t-69-23q-23 0-51 9-54 16-94 63-3 3-6 7-5 8-7 8-4-2-4-5 10-14 28-31t36-28 48-22 62-10m-25 195l10 1q8 0 8 6-1 1-3 1t-6-1-11-1q-43 0-78 26 3 7 3 17t-9 20-21 10-11-8q0-16 28-39-11-16-42-16t-50 19-18 47 21 49 59 22q65 0 133-50 23-17 37-29t34-32 27-28l22-24q17-20 41-48t45-49 36-39 34-32q36-33 51-33 5 0 5 4t-4 6q-19 12-49 58t-67 114-64 103q8-5 47-44t84-82 101-89 98-64q7-3 9-3 6 0 6 5 0 2-4 3-34 24-98 91t-116 139-53 103q0 24 19 24 27 0 58-25 14-11 16-11 5 0 5 3 0 2-1 3-54 38-85 38t-30-28q0-22 27-66t65-89q91-108 142-150 6-5 11-10l5-5q-32 16-89 64t-118 109q-102 101-156 158-3 5-7 5-3-2-3-5t2-3 6-9q14-19 24-31 18-21 87-141t94-145q-50 40-130 134-72 87-141 143-34 28-77 47t-84 19-65-23-23-53 23-54 58-23 49 18q37-27 83-27m419 19q0-4 5-10t8-5 6 2 2 7-5 9-9 4q-7 0-7-7m-70 107q0-8 13-22l37-42q3-3 3-5t-2-4-4-1-5 1-8 9-15 19-14 16-7 8-6 8q-7 9-7 16 0 11 11 11 16 0 36-13t21-19q0-2-2-2t-3 2q-27 24-41 24-7 0-7-6m43-1l-1-6q0-15 12-24t26-10 15 13q0 5-4 11t-8 5-4-3 3-6 3-6q0-9-8-9t-15 7-7 17 5 17 15 6 19-9 12-23 8-26 15-23 21-9 18 3 7 10-5 12-10 5-6-2q0-4 5-7 3-1 3-7 0-8-11-8t-18 14-12 31-16 31-33 14q-13 0-21-6t-8-12m108 0l-1-6q0-15 12-24t26-10 14 13q0 5-4 11t-8 5-4-3 3-6 4-6q0-9-8-9t-16 7-7 17 5 17 16 6 18-9 12-23 9-26 14-23 22-9 18 3 6 10-5 12-10 5-6-2q0-4 6-7 3-1 3-7 0-8-11-8t-19 14-11 31-16 31-34 14q-13 0-20-6t-8-12m472-235q0 3 5 3t12-8 9-19q-11 6-19 13t-7 11m-175 159q-7 8-7 13t7 5 13-9 6-22q-12 6-19 13m239-70q-73 10-129 49 28 15 35 51 41-35 94-100m-105 109q-5-37-34-53-58 46-74 105 54-10 108-52m-80 118q34 0 57-32t24-72q-52 37-111 46-2 10-2 23t8 24 24 11m149-348q0-2 0-10t-4-19q-86 33-86 92 0 14 9 21t20 8q21 0 46-16t42-34 16-31q0-11-14-11-8 0-19 4-4 18-16 30t-22 13-11-7q0-9 11-21t28-19m-213 285q12 0 19-1 16-62 82-111-13-4-29-4t-34 5q-1 18-12 32t-23 15-12-9 10-20 27-20q-2-13-11-22t-25-9q-39 0-64 24t-25 53 24 48 73 19m305-128q2 0 2 4v1q0 4-6 4t-12-3-5-11 9-19 10-13-11-2-24 2q-65 80-112 116v3q0 43-28 80t-68 38q-22 0-33-13t-12-35q0-8 2-16-15 1-23 1-52 0-79-21t-26-53 30-59 77-28q20 0 30 10t12 25q18-8 38-8t35 6q61-41 145-53 5-6 20-24t21-26 19-23 22-24 20-20q19-19 43-37-64-6-99-6t-81 14q4 10 4 18t-1 11q13-3 24-3 22 0 22 15t-19 36-49 39-50 17-30-6-11-12-2-13q0-69 97-104-17-33-71-33-50 0-89 23-37 21-59 46-20 23-28 38l-4 6q-2 4-5 4t-3-6q5-12 25-37t40-40 54-28 73-13q60 0 79 36 57-18 113-18 31 0 86 5 37-23 75-28 5 0 5 2v1q0 3-2 3t-3 1q-29 7-55 22 56 5 86 5t58-5 40-11 14-5q8 0 8 5 0 4-20 11t-55 11-64 6-85-6q-25 17-53 45t-44 47-47 59q18-2 32-2t16 0q2 1 2 5t-5 7q-21 12-21 29 0 7 6 7m-49 118q20 0 44-21t28-34q0-6-8-11t-17-4q-23 0-42 20t-19 35 14 15m52-78q17 0 29 13 0 0 8-8 3-5 8-5t4 4l-2 5q-1 2-20 24t-21 26-2 12q0 6 7 6 14 0 41-24 1-2 3-2t2 2q0 6-21 19t-36 13q-11 0-11-11 0-4-1-4t-2 0q-25 17-47 17t-22-20q0-21 25-44t58-23m119-36q0-4 5-10t8-5 6 2 2 7-5 9-9 4q-7 0-7-7m-142 234q0 5 7 5t15-10 9-22q-13 5-22 13t-9 14m-17-61q-43 0-70 21t-28 41q0 14 15 14 30 0 99-75-9-1-16-1m151-141l-3 5q-16 18-55 65t-61 70q25 7 26 27 12-3 24-3 21 0 25 20 0 4-3 4-2 0-4-4t-3-5-4-5q-5-5-14-5t-21 2q-1 17-14 32t-28 15q-9 0-9-8 0-9 12-21t29-19q-1-18-21-25-74 80-120 80-21 0-21-18 0-23 33-47t85-24q12 0 17 1 21-23 54-62t40-47 14-15q13-17 17-17t5 4m13 82q19 0 43-21t28-34q0-6-7-11t-17-4q-23 0-43 20t-19 35 15 15m51-78q18 0 29 13 1 0 8-8 4-5 8-5t5 4l-2 5q-2 2-20 24t-21 26-3 12q0 6 7 6 15 0 41-24 2-2 3-2t2 2q0 6-20 19t-36 13q-11 0-11-11 0-4-2-4t-1 0q-25 17-48 17t-22-20q0-21 25-44t58-23m128 39q4 0 11-4 3 0 3 2t-2 3-9 3-13 3q-16 0-16-11 0-4 2-8t2-6-1-2q-10 4-29 18l-35 44q-4 5-8 5t-4-2 4-8l31-40q4-4 13-17t11-15 7-2 6 2-1 3l-7 10q-2 2-4 4 5-1 36-18 1-1 4-1t2 1-1 3-5 7q-9 11-9 16 0 10 12 10m98-150q0 22 13 43t36 30q16-45 16-77 0-48-31-48-13 0-21 12-13 17-13 40m-12 109q9 0 16 3t11 8l2 3q0 6-5 6-3 0-4-4-11-8-24-8-24 0-41 19t-18 36 17 18q30 0 58-32t46-77q-24-7-40-28t-17-44 13-47 36-23q17 0 28 16t11 45-17 76q4 1 12 1 34 0 60-28 6-6 8-6t3 3-4 7q-30 31-74 31-5 0-8-1-20 49-52 82t-70 34q-22 0-22-23t21-45 54-22m112 4q0 20 17 24 0-2 0-10t-4-13-8-5-5 4m15 32q-25-3-26-27-17 0-32 18t-15 35q0 19 20 19 13 0 30-14t23-31m-90 30q0-20 21-42t44-23q4-10 15-10t17 6 6 16-2 16q15 0 33-7t21-10l3 2q0 1-4 5t-22 10-33 7q-8 21-28 36t-41 16q-30 0-30-22m114 6l-1-6q0-15 12-24t26-10 14 13q0 5-4 11t-8 5-4-3 3-6 4-6q0-9-8-9t-16 7-7 17 5 17 16 6 18-9 12-23 9-26 14-23 22-9 18 3 6 10-5 12-10 5-6-2q0-4 6-7 3-1 3-7 0-8-11-8t-19 14-11 31-16 31-34 14q-13 0-20-6t-8-12m136-12v3q56-21 56-43 0-11-14-11t-28 17-14 34m69-44q0 30-67 52 4 12 22 12 30 0 58-25 1-2 3-2t2 3-9 11-26 14-32 7q-34 0-34-25 0-20 20-41t45-21q18 0 18 15" />
</svg>