<svg id="fnt-Mogra" viewBox="0 0 1482 1000" xmlns="http://www.w3.org/2000/svg"><path id="mogra" class="f" d="M76 667q-12 0-28-9t-27-19-12-19q0-8 5-34t7-33q2-10 7-37t9-50l4-23q10-56 18-91t17-35 23 7 28 17 17 21q8 18 21 77 9 41 14 56 21-32 55-99 21-43 32-61t21-18q9 0 25 8t29 20 12 20q0 7-6 39t-7 41l-13 70q-5 30-11 78-5 41-9 57t-11 17q-12 0-28-9t-27-19-12-19q0-7 4-28t10-48q4-22 5-25l18-55-7-3-5 10q-20 40-32 62t-19 32q-5 6-18 10t-25 4q-13 0-18-5-4-4-8-17t-8-39q-1-6-6-27t-10-39l-3 63q-5 30-11 78-5 41-9 57t-11 17m409-283q36 4 65 21t46 42 16 48q0 36-18 76t-52 68-73 28q-20 0-43-15t-38-36-15-38q0-30 8-63t23-62q14-8 29-8 6 0 12 1-2-6-2-14 0-16 11-29t31-19m-34 226q41-14 64-48t31-81q-23-16-61-16-10 0-15 0 6 10 6 23-13 20-20 45t-7 50q0 15 2 27m355-22q-31 24-62 41t-50 18q-12 0-26-9t-23-22-9-23q0-42 16-91t46-83 63-34q14 0 27 12t20 27q2-12 7-19t10-7q7 0 23 10t28 22 12 18q0 19-15 101t-32 161-24 90q-12 18-36 32t-47 13q-22 0-44-13t-36-32-14-34q0-18 21-42t52-48 78-57q9-7 26-19l-11-12m-27-140q-18 0-33 22t-26 56-14 65q47-19 75-54t31-72q-6-7-16-12t-17-5m21 220q-85 67-85 95 0 10 8 17t23 12q15-17 27-47t27-77m193-1q-14 0-30-9t-27-21-12-19q0-10 4-25t12-40q8-25 12-41t4-24q0-4-4-9t-14-12q-11-9-16-14t-5-10q0-10 10-24t23-24 23-10q11 0 24 9t24 22 10 19q0 19-8 50l6 3q12-19 25-45t17-31l10-18q34-1 51 12t17 36q0 22-14 44-36 12-62 24t-50 28q-2 55-9 92t-21 37m393-74q31-15 52-32 22 8 32 21t11 30q0 12-17 25t-40 21-40 9q-12 0-27-9t-25-20-11-18q0-5 4-13t10-18 6-12l-12-7q-27 44-51 70t-48 27q-16 0-34-14t-30-34-12-36q0-44 19-91t51-77 76-30q15 0 30 13t20 28q3-11 7-20t11-8q13 0 28 9t27 22 11 19q0 10-8 32t-23 67q-9 24-17 46m-153 4q40-25 70-62t41-81q-13-6-25-6-24 0-42 21t-30 55-14 73" />
</svg>