<svg id="fnt-Mohave" viewBox="0 0 1411 1000" xmlns="http://www.w3.org/2000/svg"><path id="mohave" class="f" d="M80 667h-36v-375h39l84 321h-9l84-321h39v375h-36v-275l4 1-72 274h-29l-72-274 4-1v275m359 6q-26 0-45-11t-30-31-11-47v-107q0-26 11-46t30-31 45-11q38 0 61 24t24 64v107q0 40-24 64t-61 25m0-37q22 0 35-14t14-36v-110q0-23-14-37t-35-14-37 14-13 37v110q0 22 13 36t37 14m185 31h-37v-375h37v139l-6-8q9-16 24-25t37-9q22 0 39 10t27 28 10 45v195h-36v-191q0-23-13-37t-34-14q-22 0-35 14t-13 37v191m261 6q-38 0-58-21t-21-53q0-19 8-32t18-22 24-13q16-6 31-10t30-8 22-11 8-21v-6q0-23-14-37t-36-14q-23 0-36 14t-13 37v7h-36v-6q0-39 23-64t62-24q25 0 45 11t30 31 11 46v190h-36v-38l6 8q-10 17-27 26t-41 10m7-35q26 0 40-14t15-41v-48q-15 9-34 13t-36 9q-15 5-25 14t-9 26q0 18 13 30t36 11m241 29h-44l-78-272h39l65 233h-9l65-233h38l-76 272m191 6q-25 0-44-11t-31-31-11-47v-107q0-26 11-46t31-31 44-11q39 0 62 24t24 64v59h-143v-35h106v-25q0-23-13-37t-36-14-36 14-13 37v110q0 22 13 36t36 14 36-14 13-36v-7h37v5q0 40-24 64t-62 25" />
</svg>