<svg id="fnt-Monomaniac One" viewBox="0 0 3063 1000" xmlns="http://www.w3.org/2000/svg"><path id="monomaniac-one" class="f" d="M285 352v292q0 9-6 16t-17 7h-13q-10 0-17-7t-6-16v-151q0-2-2-2t-3 1l-48 99q-1 4-6 7t-10 4-4 2q-15 0-20-13l-48-99q-1-2-3-1t-2 2v151q0 9-7 16t-16 7h-14q-9 0-16-7t-7-16v-292q0-10 7-17t16-6h15q14 0 20 13 3 5 10 21t19 37 21 45 22 46q1 2 3 2t3-2l71-149q7-13 21-13h14q10 0 17 6t6 17m222 112v147q0 23-17 39t-39 17h-69q-23 0-40-17t-16-39v-147q0-16 7-29t21-20 28-7h69q16 0 28 7t20 20 8 29m-59 137v-127q0-3-3-5t-4-2h-49q-2 0-5 2t-2 5v127q0 3 2 5t5 2h49q2 0 4-2t3-5m280-137v180q0 9-6 16t-16 7h-14q-10 0-16-7t-7-16v-170q0-3-2-5t-5-2h-48q-3 0-5 2t-2 5v170q0 9-7 16t-16 7h-14q-9 0-16-7t-7-16v-180q0-16 8-29t20-20 28-7h70q15 0 28 7t20 20 7 29m222 0v147q0 23-17 39t-39 17h-69q-23 0-40-17t-16-39v-147q0-16 7-29t21-20 28-7h69q16 0 28 7t20 20 8 29m-59 137v-127q0-3-3-5t-4-2h-49q-2 0-5 2t-2 5v127q0 3 2 5t5 2h49q2 0 4-2t3-5m343-137v180q0 9-7 16t-16 7h-14q-10 0-17-7t-6-16v-170q0-7-7-7h-19q-6 0-6 7v170q0 9-7 16t-16 7h-14q-9 0-16-7t-7-16v-170q0-7-6-7h-19q-7 0-7 7v170q0 9-7 16t-16 7h-14q-9 0-16-7t-7-16v-180q0-16 8-29t20-20 28-7h40q11 0 20 4 6 2 12 0 9-4 20-4h40q15 0 28 7t20 20 8 29m221 0v147q0 23-17 39t-39 17h-69q-23 0-40-17t-16-39v-55q0-15 7-28t21-19 28-8h59q2 0 4-2t3-5v-20q0-3-3-5t-4-2h-59q-10 0-17-6t-6-16v-14q0-10 6-17t17-6h69q16 0 28 7t20 20 8 29m-59 137v-34q0-3-3-5t-4-2h-49q-2 0-5 2t-2 5v34q0 3 2 5t5 2h49q2 0 4-2t3-5m280-137v180q0 9-6 16t-16 7h-14q-10 0-16-7t-7-16v-170q0-3-2-5t-5-2h-48q-3 0-5 2t-2 5v170q0 9-7 16t-16 7h-14q-9 0-16-7t-7-16v-180q0-16 8-29t20-20 28-7h70q15 0 28 7t20 20 7 29m116-103q0 15-11 26t-26 12q-16 0-27-12t-11-26q0-15 11-27t27-11q15 0 26 11t11 27m-8 75v208q0 9-7 16t-16 7h-13q-10 0-17-7t-6-16v-208q0-9 6-16t17-7h13q10 0 16 7t7 16m229 28v147q0 23-16 39t-39 17h-70q-23 0-39-17t-17-39v-55q0-15 8-28t20-19 28-8h59q3 0 5-2t2-5v-20q0-3-2-5t-5-2h-59q-9 0-16-6t-7-16v-14q0-10 7-17t16-6h70q15 0 28 7t20 20 7 29m-59 137v-34q0-3-2-5t-5-2h-48q-3 0-5 2t-2 5v34q0 3 2 5t5 2h48q3 0 5-2t2-5m281-15v25q0 23-17 39t-39 17h-69q-23 0-40-17t-16-39v-147q0-16 7-29t21-20 28-7h69q16 0 28 7t20 20 8 29v26q0 9-7 16t-16 7h-14q-9 0-16-7t-6-16v-16q0-3-3-5t-4-2h-49q-2 0-5 2t-2 5v127q0 3 2 5t5 2h49q2 0 4-2t3-5v-15q0-10 6-17t16-6h14q10 0 16 6t7 17m384-191v206q0 18-9 33t-24 24-33 9h-96q-18 0-33-9t-24-24-9-33v-206q0-18 9-33t24-24 33-9h96q18 0 33 9t24 24 9 33m-59 206v-206q0-7-7-7h-96q-2 0-5 2t-2 5v206q0 2 2 4t5 3h96q3 0 5-3t2-4m281-137v180q0 9-7 16t-16 7h-14q-9 0-16-7t-6-16v-170q0-3-3-5t-4-2h-49q-2 0-5 2t-2 5v170q0 9-6 16t-16 7h-14q-10 0-17-7t-6-16v-180q0-16 7-29t21-20 28-7h69q16 0 28 7t20 20 8 29m221 0v54q0 15-7 28t-20 20-28 8h-59q-3 0-5 2t-2 4v21q0 3 2 5t5 2h59q9 0 16 6t7 17v13q0 9-7 16t-16 7h-70q-23 0-39-17t-17-39v-147q0-16 8-28t20-21 28-7h70q15 0 28 7t20 21 7 28m-59 44v-34q0-3-2-5t-5-2h-48q-3 0-5 2t-2 5v34q0 2 2 4t5 2h48q3 0 5-2t2-4" />
</svg>