<svg id="fnt-Monsieur La Doulaise" viewBox="0 0 4295 1000" xmlns="http://www.w3.org/2000/svg"><path id="monsieur-la-doulaise" class="f" d="M125 553q41-8 78-8t68 7q11-20 11-35 0-32-42-32-35 0-66 19t-49 49m24 113q18 7 46 7 72 0 153-71-24-27-65-40-18 32-53 60t-81 44m-50-56q0-24 13-49-50 12-80 35t-30 45q0 15 16 24t47 10 63-10q-29-19-29-55m169-52q-33-8-70-8t-77 9q-15 25-15 50 0 36 32 53 42-16 77-45t53-59m360 123q39 0 73-24t52-53 18-52q0-28-25-28-27 0-56 24t-48 62-19 68v3q1 0 5 0m-313-285l1 9h7q45 0 86-13t70-32 43-40 17-38-15-27-42-10q-42 0-82 25t-62 60-23 66m82-227l1 6q-78 11-130 59t-52 98q0 29 21 48t63 24q-1-9-1-14 0-25 14-52t38-50 60-37 71-15 50 11 16 31-17 42-45 44-73 34-93 13h-3q11 43 73 43 32 0 77-19t91-58l3 4q-15 13-38 28t-63 33-72 17q-72 0-86-48-47-4-71-25t-23-52q0-51 53-101t136-64m315 579q16 0 34-6l4 3q-15 8-45 8-44 0-66-19t-23-50q-21-5-34-23t-13-41 12-49 27-49 44-53 47-50 52-48q43-38 85-72l-1-1q-152 92-376 333l-28 36q-2 2-4 2t-2-3l6-11 50-79q48-81 68-112 68-112 126-164-8 0-46 35l-12 12q-171 175-255 251 25 27 25 58 0 39-41 70t-120 44v-5q70-11 107-42t37-68q0-25-18-48-40 35-79 54t-77 19-59-10q-37 10-72 10t-55-11-19-29q0-24 33-49t92-37q19-32 54-54t76-22q26 0 38 11t13 29-11 38q46 13 71 38 4-4 28-25t83-82 102-102l41-42q64-63 110-73 5 0 5 3t-3 4q-23 7-43 30t-48 66-44 66l-86 136q0 1 2 1l6-5q95-100 176-171t173-124q19-13 22-13t3 3-1 4-22 17-37 32-30 27-43 42-49 49-44 51-40 53q-36 57-36 94 0 22 17 37 7 6 17 8 0-35 20-73t51-65 63-26q18 0 28 10t11 31-12 41-33 42-51 33-62 13l-8 0q6 62 89 62m99-77q36 0 70-36v-1q0-24 23-45-2-5-9-5-37 0-65 27t-29 49q0 11 10 11m77-95q27 0 27 18 0 15-19 36v4q0 16 15 16 9 0 20-7l24-16 1 7-23 15q-16 10-31 10t-20-15q-40 35-76 35-22 0-22-20 0-26 31-55t73-28m153 1q11 0 11 11t-16 33q57-40 91-40 14 0 14 12t-10 23-22 22q-32 23-32 29 0 3 5 3t20-6 24-12 25-16 16-9l1 7q-68 45-95 45-13 0-13-12 0-9 11-21t23-21q35-26 35-35 0-2-6-2-18 0-55 20t-81 65q-3 3-11 3t-8-5q0-1 34-37t35-46q0-2-4-2t-13 6-32 21-36 24l-1-7q7-5 20-14t22-15 18-12q20-12 30-12m207-11q2-3 4-3t3 3-3 6-4 18-8 37-22 40q0 1 2 1 3 0 25-12l7-4q19-10 41-25l1 7q-78 51-120 51-16 0-24-7t-8-16 4-14 10-5q8 0 8 8 0 5-8 9-3 2-3 5t6 8 12 5q22 0 38-28t20-55v-1q-48 33-65 43l-2-7q82-53 86-64m147-31q0 7-8 13t-15 7-7-6 8-13 15-7 7 6m-43 54q-67 61-67 76 0 5 6 5t21-6 24-12 25-16 16-9l1 7q-23 15-53 30t-45 15-15-12q0-11 18-32t36-37l18-16q3-2 10-2t7 5q0 2-2 4m127-6q0-4-8-4t-32 15-42 33q34-6 58-21t24-23m-98 70q0 15 20 15 38 0 95-41l1 7q-59 42-101 42-30 0-30-25t37-52 77-27q12 0 12 7 0 12-28 29t-72 25q-11 12-11 20m165-75q2-2 13-1 6 1 6 2t-3 5-24 24q-44 43-44 54 0 3 3 3 17 0 123-72l14-11q2-2 9-2t7 5q0 2-1 4-70 63-70 76 0 5 8 5t21-6 24-12 25-16 16-9l1 7q-23 15-52 30t-45 15-15-12q0-18 27-46-79 51-97 51-11 0-11-13 0-27 65-81m195 18l23-3q6 0 10 4t3 9q0 11-15 24t-31 25-15 18q0 4 6 4 22 0 66-25 19-10 40-25l1 7q-17 11-38 23-12 7-35 17t-38 10-15-14q0-15 16-29t32-23 16-14q0-2-4-2l-28 3q-8 0-14-2-24 17-51 34l-1-7 47-33q1-10 12-19t20-10 8 4-10 11-9 10 4 3m261 86q66 0 133-35-124-34-153-34t-42 8-13 21 20 27 55 13m261-18q73 16 113 16t69-14 28-29q0-12-17-21t-51-8q-53 0-89 16t-53 40m231-324q-34 31-84 85t-72 77q5 1 15 1 41 0 89-21t84-50 62-61 25-51q0-25-36-25t-83 45m-39-70q0-34-54-34-30 0-62 14t-54 38-37 51-16 55q13 1 21 1 41 0 80-13t65-32 42-41 15-39m-289 371q36 9 87 21 16-27 56-44t101-16q36 0 57 11t21 26q0 19-32 34t-84 14-115-12q-5 12-5 26 0 33 31 56t89 23l2 4q-9 1-14 1-53 0-86-26t-32-60q0-14 5-25-49-11-99-24-76 38-151 38-38 0-61-15t-24-31 18-27 54-10 168 33q69-40 156-131-43-10-65-39t-22-68v-1q-41-4-61-23t-20-47q0-48 49-98t117-63l1 5q-67 14-113 60t-46 91q0 27 18 45t55 24q1-30 15-59t37-54 59-39 71-15q65 0 65 41 0 19-16 42t-45 44-70 34-88 14q-12 0-18-1v5q0 36 21 61t63 33q16-16 47-50t48-51 43-42 44-37q48-31 85-31 47 0 47 31 0 23-26 56t-64 63-92 51-99 22q-12 0-18-1-89 90-164 131m365 27q19 0 50-20t53-37 22-21-8-5-19-2-33 10-36 23-25 27-10 19 6 6m134-84q10-8 11-8 13 1 14 2t0 2-4 6-23 25q-49 47-49 57 0 4 4 4 24 0 90-45l1 7q-67 44-94 44-14 0-14-13t16-33q-59 43-92 44-12 0-12-15 0-26 33-55t88-30q18 0 31 8m169 58q-34 0-34 14t26 27 66 14 88-23q-13-3-47-13-65-19-99-19m200-202q0 29 45 29 23 0 52-13t55-34 44-52 18-65q0-10-3-20-39 6-79 24t-68 42-46 47-18 42m-16 231q31 6 53 6 45 0 90-13t83-37 70-52 55-62q49-70 49-128 0-31-15-55-56 43-179 174-43 44-100 92t-106 75m145-441q-52 0-117 28t-98 60l-6-4q45-39 109-65t116-27q71 0 86 52 16-2 32-2 78 0 118 44 62-39 115-39 31 0 49 14t18 35-16 41-48 34l-1-5q25-10 40-30t16-39-17-31-48-12q-45 0-101 41 22 31 22 71t-16 79-47 77-76 67-104 48-128 19q-28 0-59-7-64 31-126 31-37 0-63-16t-26-34q0-11 12-18t38-7 48 4 62 15 48 13q46-25 101-74t100-95 100-98 99-79q-35-39-115-39-13 0-25 1 2 8 2 17 0 36-19 71t-47 58-60 37-55 14-36-12-12-32 14-46 40-49 68-43 93-23q-16-45-80-45m212 441q36 0 70-36v-1q0-24 23-45-2-5-9-5-37 0-65 27t-29 49q0 11 10 11m77-95q27 0 27 18 0 15-19 36v4q0 16 15 16 9 0 20-7l24-16 1 7-23 15q-16 10-31 10t-20-15q-40 35-76 35-22 0-22-20 0-26 31-55t73-28m117 2q3-2 14-1 5 1 5 2t-2 5-24 24q-45 43-45 54 0 3 3 3 17 0 124-72l13-11q3-2 10-2t7 5q0 2-2 4-70 63-70 76 0 5 8 5t22-6 24-12 25-16 16-9l1 7q-23 15-53 30t-45 15-15-12q0-18 27-46-78 51-97 51-11 0-11-13 0-27 65-81m422-200q-25 0-117 81t-149 148q67-46 168-129t101-98q0-2-3-2m-281 247q-20 27-20 36t9 9q23 0 86-43l1 7q-67 44-94 44-14 0-14-13 0-27 64-99t142-133 111-61q6 0 6 4 0 12-25 38t-65 59-76 60-77 57-48 35m77 43q19 0 51-20t53-37 21-21-7-5-20-2-33 10-35 23-25 27-10 19 5 6m134-84q10-8 11-8 14 1 14 2t1 2-4 6-24 25q-48 47-48 57 0 4 3 4 24 0 90-45l1 7q-66 44-94 44-13 0-13-13t15-33q-59 43-92 44-12 0-12-15 0-26 33-55t88-30q18 0 31 8m145-49q0 7-8 13t-15 7-6-6 8-13 14-7 7 6m-42 54q-68 61-68 76 0 5 7 5t20-6 24-12 25-16 16-9l1 7q-23 15-52 30t-45 15-15-12q0-11 18-32t36-37l18-16q2-2 9-2t7 5q0 2-1 4m105-23q2-3 5-3t3 3-3 6-5 18-7 37-23 40q0 1 2 1 4 0 26-12l7-4q19-10 40-25l1 7q-78 51-119 51-17 0-25-7t-7-16 4-14 10-5q7 0 7 8 0 5-8 9-2 2-2 5t5 8 13 5q22 0 37-28t21-55v-1q-49 33-66 43l-1-7q81-53 85-64m148 17q0-4-8-4t-33 15-41 33q33-6 57-21t25-23m-98 70q0 15 20 15 38 0 94-41l1 7q-59 42-101 42-30 0-30-25t37-52 77-27q13 0 13 7 0 12-28 29t-73 25q-10 12-10 20" />
</svg>