<svg id="fnt-Montserrat" viewBox="0 0 2763 1000" xmlns="http://www.w3.org/2000/svg"><path id="montserrat" class="f" d="M93 667h-36v-350h31l160 273h-16l158-273h31v350h-36v-295h9l-146 250h-18l-147-250h10v295m541 2q-38 0-68-17t-48-48-17-69q0-39 17-69t48-47 68-17q39 0 69 17t48 47 17 69q0 39-17 69t-48 48-69 17m0-31q29 0 51-13t34-36 13-54q0-31-13-54t-34-36-50-12-50 12-35 36-13 54q0 31 13 54t35 36 49 13m341-236q32 0 56 12t38 37 14 63v153h-36v-149q0-42-21-63t-58-21q-28 0-49 11t-32 32-11 52v138h-35v-263h34v72l-6-13q13-29 40-45t66-16m287 267q-37 0-57-20t-20-56v-247h35v245q0 23 12 35t34 13q23 0 39-14l12 26q-10 9-25 14t-30 4m38-235h-162v-30h162v30m152 235q-32 0-61-9t-46-23l16-28q16 12 41 20t53 9q37 0 54-12t16-31q0-14-9-23t-24-12-34-7-37-7-33-12-24-21-9-36q0-22 12-39t35-27 57-9q25 0 51 6t42 18l-16 29q-17-12-37-18t-40-5q-36 0-53 12t-16 32q0 15 9 23t24 13 34 8 36 7 34 12 24 20 10 35q0 23-13 40t-37 26-59 9m285 0q-41 0-72-17t-48-48-18-69 17-69 46-47 66-17q37 0 65 16t46 47 16 70q0 3 0 5t0 6h-229v-26h210l-14 10q0-28-13-51t-33-34-48-13q-27 0-49 13t-33 35-12 51v6q0 30 13 52t37 36 54 13q24 0 45-9t36-26l20 23q-18 21-44 32t-58 11m226-2h-35v-263h34v72l-4-13q11-30 37-46t65-15v34q-2 0-4 0t-4 0q-42 0-65 25t-24 72v134m201 0h-36v-263h34v72l-3-13q11-30 37-46t64-15v34q-2 0-4 0t-4 0q-41 0-65 25t-23 72v134m363 0h-34v-58l-1-10v-97q0-33-19-51t-56-18q-25 0-48 8t-39 23l-16-27q20-17 48-26t59-9q51 0 78 25t28 77v163m-124 2q-30 0-52-10t-33-27-11-39q0-21 9-38t32-27 60-10h91v27h-90q-38 0-53 13t-14 34q0 22 17 36t49 13q30 0 52-14t32-39l8 24q-10 26-35 42t-62 15m304 0q-37 0-57-20t-20-56v-247h35v245q0 23 12 35t34 13q23 0 39-14l12 26q-10 9-25 14t-30 4m38-235h-162v-30h162v30" />
</svg>