<svg id="fnt-Montserrat Subrayada" viewBox="0 0 7093 1000" xmlns="http://www.w3.org/2000/svg"><path id="montserrat-subrayada" class="f" d="M443 645h49v22h-108v-273l-122 242h-33l-121-242v273h-108v-22h49v-328h92l105 220 106-220h91v328m354 0h115v22h-420v-22h114q-41-23-65-64t-23-92q0-77 53-129t131-51 131 51 53 129q0 50-24 92t-65 64m-8-245q-35-37-87-37t-88 37-36 89 36 90 88 37 87-37 36-90-36-89m123 245h48v-328h59l203 261v-261h59v328h49v22h-113l-198-255v255h-107v-22m598 0h122v22h-302v-22h121v-274h-106v-54h271v54h-106v274m374 0h63v22h-315v-22h64q-24-12-44-31l37-44q53 46 110 46 28 0 45-13t17-32-16-32-54-20-59-17-35-20q-31-24-31-72t35-75 87-26q34 0 67 11t57 31l-32 44q-15-14-42-23t-52-9-42 11-17 31 17 33 70 24 81 37 27 66q0 51-38 80m63 0h48v-328h246v56h-187v92h168v53h-168v93h193v34h48v22h-348v-22m655 0h48v22h-108l-83-118h-78v118h-107v-22h48v-328h130q80 0 115 27t34 87q0 86-75 109l76 105m-147-149q50 0 68-16t18-50-19-47-66-12h-75v125h74m511 149h48v22h-108l-83-118h-78v118h-107v-22h48v-328h130q80 0 115 27t34 87q0 86-75 109l76 105m-147-149q50 0 68-16t18-50-19-47-66-12h-75v125h74m544 149h58v22h-111l-35-80h-175l-35 80h-112v-22h58l145-328h63l144 328m-239-112h127l-64-144-63 144m429 112h122v22h-302v-22h121v-274h-106v-54h271v54h-106v274m122 0h137v22h-137v-22m389 0h63v22h-315v-22h64q-24-12-44-31l37-44q53 46 110 46 28 0 45-13t17-32-16-32-54-20-59-17-35-20q-31-24-31-72t35-75 87-26q34 0 67 11t57 31l-32 44q-15-14-42-23t-52-9-42 11-17 31 17 33 70 24 81 37 27 66q0 51-38 80m343 0h104v22h-384v-22h103q-59-41-59-131v-197h59v194q0 48 24 76t65 28 65-28 24-76v-194h59v197q0 90-60 131m392 0h65v22h-353v-22h48v-328h136q36 0 61 9t39 23q24 27 24 61 0 41-26 61-10 7-13 8t-13 6q33 7 52 29t19 56q0 49-39 75m-181-128v95h93q32 0 49-10t18-39q0-46-75-46h-85m0-145v90h75q64 0 64-43 0-25-15-36t-48-11h-76m574 273h48v22h-108l-83-118h-78v118h-107v-22h48v-328h130q80 0 115 27t34 87q0 86-75 109l76 105m-147-149q50 0 68-16t18-50-19-47-66-12h-75v125h74m544 149h58v22h-111l-35-80h-175l-35 80h-112v-22h58l145-328h63l144 328m-239-112h127l-64-144-63 144m249 112h126v-116l-130-212h64l96 159 95-159h65l-130 212v116h126v22h-312v-22m673 0h58v22h-111l-35-80h-175l-35 80h-112v-22h58l145-328h63l144 328m-239-112h127l-64-144-63 144m524 112h116v22h-391v-22h48v-328h120q94 0 145 46t50 129q0 111-88 153m29-153q0-120-138-120h-59v239h66q63 0 97-30t34-89m448 153h58v22h-111l-35-80h-175l-35 80h-112v-22h58l145-328h63l144 328m-239-112h127l-64-144-63 144" />
</svg>