<svg id="fnt-Montez" viewBox="0 0 1211 1000" xmlns="http://www.w3.org/2000/svg"><path id="montez" class="f" d="M537 775l1 5q-8 6-18 8t-19 2q-34 0-60-9t-45-28-34-40-23-51-14-57-6-59-1-57 3-53q-4 7-11 21t-14 34-16 42-16 46-16 46-14 40-10 32-5 17q-1 3-3 7t-4 9-5 7-7 3q-5 0-8-4t-4-8-3-10-2-8q-1-10-3-26t-2-34-1-41-1-44 0-43-1-39 0-33 0-24q-5 13-13 31t-16 43-18 50-18 56-18 57-15 57q-1 2-2 6t-2 6-5 6-6 2q-3 0-6-2t-5-5-3-7-1-6q-1-6-2-14t-1-15-2-15 0-14q-3-33-4-66t-1-66q0-33 1-65t3-65q1-9 2-21t6-23 12-17 23-7q3 0 6 1t2 6v2q-2 15-4 29t-5 30q-6 49-10 98t-4 98q0 19 1 38t3 38q16-53 29-93t23-71 16-51 12-36 7-23 4-13 3-7 1-4q4-9 10-15t17-7q6 0 11 4t6 8 4 11 1 12q-1 37-3 74t-3 74-1 72 4 72q9-29 18-55t15-48 15-45 14-43 16-42 18-43q2-4 4-9t7-8 7-6 10-2q8 0 12 4t7 12 3 14 1 13q0 23-2 50t-2 56 1 60 6 58 16 52 28 43 45 28 63 11q5 0 10-1t11-3m17-180q0 17-5 31t-16 26-25 17-31 6q-16 0-28-6t-21-16-13-22-5-28q0-13 3-24t10-21 15-18 20-14l2 2q-10 12-16 26t-6 31q0 11 4 23t10 23 17 16 24 6q8 0 16-3t12-9 9-14 3-15q0-8-2-16t-6-13-10-12-13-9q-4-2-7-3t-8-2q-2 0-4-1t-4-1-2-3-2-3q0-5 4-8t7-7 9-4 9-2q12 0 22 7t16 16 9 21 3 23m231 36l1 1q-4 9-10 17t-11 14-15 10-19 3q-12 0-21-6t-15-16-10-22-7-26-3-26-2-23q-5 3-12 14t-13 24-13 30-10 33q-1 3-3 7t-3 6-6 6-7 2q-6 0-9-5t-4-10q-7-31-10-59t-3-57q0-7 2-12t7-8 9-5 11-1q1 0 2 0t4 0 2 1 1 2q-7 32-6 65t3 64q3-12 8-28t12-31 15-30 17-24q4-5 8-8t11-4q4 0 6 2t4 4 3 5 1 5q1 7 2 18t3 24 5 26 7 23 10 17 14 7q6 0 13-3t11-7 11-9 9-10m144 0l2 1q-5 9-13 17t-16 13-18 9-21 4q-16 0-28-6t-21-14-14-22-10-25-5-27-1-27q0-12 1-24t3-25q-8 0-15 0t-14 0q-5 0-11 0t-11-2-8-5-4-10q0-4 2-6t3-3 6-2 6 0q4 0 17 1t33 3q6-29 16-57t22-51h3q-8 27-14 54t-8 55q17 1 36 2t37 1q27 0 43-1t27-1q11-1 16-2l1 4q-14 4-33 7t-40 5-44 4-45 3q-1 5-1 10t0 10q0 11 1 25t4 29 8 28 14 24 19 16 27 7q15 0 26-7t22-15m143 0l1 1q-6 9-15 17t-19 14-23 9-23 4q-16 0-31-5t-25-13-17-22-6-31q0-17 7-33t17-26 27-18 33-7q8 0 16 2t12 7 9 11 3 16q0 10-5 18t-11 13-15 10-18 6-19 4-16 1h-6q3 22 17 34t40 12q18 0 35-7t32-17m-125-35v6h6q9 0 18-3t17-8 12-14 5-18q0-10-4-17t-15-6q-11 0-18 6t-12 16-7 20-2 18m263 131q0 20-7 38t-19 30-30 20-40 7q-4 0-12-1t-16-4-13-6-6-10q0-4 3-6t7-1q4 0 8 3t8 6 11 6 17 3q15 0 25-6t18-17 10-22 3-25q0-16-3-28t-9-22-15-18-24-16q-1-1-1-1t-1-3q0-1 5-7t12-16 12-20 5-22q0-6-1-12t-5-12-8-9-11-3q-8 0-13 4t-12 11-10 17-8 21-10 22-24 25l-3-3q10-12 17-27t9-29 10-26 14-23 18-19 23-7q9 0 18 5t15 11 10 16 4 19-4 18-8 19-12 17-13 14q28 13 42 36t14 53" />
</svg>