<svg id="fnt-Montagu Slab" viewBox="0 0 3409 1000" xmlns="http://www.w3.org/2000/svg"><path id="montagu-slab" class="f" d="M242 667h-30l-123-276v-65h22l131 293h-9l128-293h4v60l-123 281m-99 0h-132v-24h50v-293h-49v-24h77v317h54v24m321 0h-154v-24h55v-317h98v24h-49v293h50v24m158 5q-38 0-67-15t-45-45-16-71q0-42 16-71t45-45 67-15 66 15 45 45 16 71q0 42-16 71t-45 45-66 15m0-23q23 0 39-13t26-37 10-60q0-33-10-57t-26-37-39-12-40 12-26 37-9 59q0 34 9 58t26 37 40 13m447 18h-128v-24h44v-152q0-25-13-37t-34-12q-17 0-32 8t-23 24-9 44h-9q0-36 10-60t30-35 50-12q34 0 56 19t22 59v154h36v24m-151 0h-139v-24h47v-204h-42v-24h84v78l6-1v151h44v24m282 5q-36 0-54-23t-16-63l3-145h-63v-24h23q21 0 33-5t17-17 5-30v-20h28v248q0 21 9 32t26 12 26-12 8-32v-83h27v85q0 36-18 56t-54 21m87-231h-111v-26h111v26m85 67q-12 0-22-8t-9-24q0-23 14-37t38-22 49-7q43 0 66 18t24 57l-45-6q0-24-14-36t-42-12q-16 0-31 5t-24 14-12 25l-1-14q16 0 26 6t10 18q0 11-7 17t-20 6m174 163q-27 0-41-15t-13-44v-29h-5v-69h-2l2-17v-18l45 6v129q0 11 5 18t16 7q11 0 17-7t5-18v-106h26v104q0 27-14 43t-41 16m-146 0q-36 0-57-18t-21-47q0-22 9-37t27-23 39-14l41-10q15-4 26-8t17-13 6-21l2 34h-2q-4 10-14 16t-29 11l-24 6q-16 5-27 11t-17 15-5 23q0 20 13 31t34 12q19 0 34-9t25-26 10-48l9 2q1 40-11 65t-34 36-51 12m396 89h-64q-38 0-61-14t-22-40q0-17 9-27t22-17 29-6l3 4q-6 2-12 7t-11 12-4 18q0 20 14 30t42 10h55q21 0 34-6t18-15 6-21q0-16-10-25t-29-8h-115q-30 0-50-15t-19-40q0-19 9-31t24-19 34-6l3 10q-15 1-25 9t-9 22q0 14 9 22t27 9h123q35 0 53 15t18 43q0 23-11 40t-33 28-57 11m-35-180q-32 0-56-10t-37-29-13-45q0-39 29-61t79-22l54 25q18 5 33 20t14 43q0 36-28 57t-75 22m0-21q27 0 42-17t16-46q0-28-16-45t-42-17q-26 0-41 17t-16 45q0 29 16 46t41 17m138-121h-82l-54-25h136v25m136 233q-23 0-41-9t-28-26-10-45v-152h-37v-24h84v176q0 25 13 37t35 12q17 0 32-8t24-25 9-43l10 0q0 36-11 59t-31 36-49 12m171-4h-84v-84l-6 1v-145h-42v-24h90v228h42v24m312 6q-35 0-66-13t-52-41-30-74h14q11 34 30 56t44 35 55 11q35 0 54-16t19-46q0-21-10-34t-27-19-37-10l-40-7q-33-6-60-17t-41-32-15-52 14-54 39-30 58-10 60 12 49 39 29 72h-14q-14-49-46-74t-72-24q-35 0-54 15t-19 44q0 20 9 32t25 18 37 11l39 7q35 6 62 17t43 31 16 54q0 33-14 55t-39 33-60 11m-134-6h-27v-122h13l14 24v98m234-224h-13l-14-24v-93h27v117m184 224h-135v-24h45v-293h-42v-24h90v317h42v24m79-159q-12 0-22-8t-9-24q0-23 14-37t38-22 49-7q43 0 66 18t24 57l-45-6q0-24-14-36t-42-12q-16 0-31 5t-24 14-12 25l-1-14q16 0 26 6t10 18q0 11-7 17t-20 6m174 163q-27 0-41-15t-13-44v-29h-5v-69h-2l2-17v-18l45 6v129q0 11 5 18t16 7q11 0 17-7t5-18v-106h26v104q0 27-14 43t-41 16m-146 0q-36 0-57-18t-21-47q0-22 9-37t27-23 39-14l41-10q15-4 26-8t17-13 6-21l2 34h-2q-4 10-14 16t-29 11l-24 6q-16 5-27 11t-17 15-5 23q0 20 13 31t34 12q19 0 34-9t25-26 10-48l9 2q1 40-11 65t-34 36-51 12m390 1q-34 0-57-17t-34-45-11-68l2-1q0-40 11-70t33-45 56-16q32 0 57 15t38 45 14 71q0 42-14 71t-38 44-57 16m-16-28q22 0 38-12t26-35 9-56q0-33-9-56t-26-35-38-12q-23 0-40 12t-26 35-9 56q0 33 9 56t26 35 40 12m-76 23h-44v-318h-41v-23h89v163l-9 51 5 52v75" />
</svg>