<svg id="fnt-Montaga" viewBox="0 0 1926 1000" xmlns="http://www.w3.org/2000/svg"><path id="montaga" class="f" d="M346 368l-112 294q0 0-2 0t-16 10l-115-301-24 262q-1 8 8 13t23 6h21v15h-120v-15h16q29 0 31-22l25-276q1-10-7-16t-24-6h-16v-15h94l107 282 108-282h90v14h-20q-24 0-24 18 0 2 0 4l23 277q1 11 6 16t17 6h20v15h-128v-15h17q14 0 19-5t5-10 0-7l-22-262m235 306q-44 0-73-33t-30-77q0-56 42-97t90-40 75 33 29 77q0 54-40 95t-93 42m-68-137q0 46 28 77t64 31 55-27 20-54q0-43-26-75t-64-31-57 25-20 54m490 116v14h-86v-14h2q6 0 9-6t4-13v-127q0-23-11-35t-30-11q-28 0-49 30t-22 45v95q0 8 1 11t6 7 15 4h9v14h-101v-14h8q14 0 17-5t4-14v-150q0-10-6-14t-23-4v-14q10 0 30-8t31-13l9-2v64q12-32 36-49t58-17q18 0 31 8t18 20q9 22 9 43v135q0 7 1 10 3 10 21 10h9m179-17l4 12q-38 26-82 26-16 0-28-12t-11-30v-177h-29v-21h11q16 0 30-20t15-37h13v57h68v21h-49q-19 0-19 18v143q0 33 24 33 27 0 53-13m246 17v14h-72v-40q-25 27-41 37t-45 10-44-14-16-37 21-47 48-34 49-18 28-6v-11q0-47-39-47-27 0-50 11t-35 30l-10-9q34-65 116-65 21 0 35 11t18 26 5 34v135q0 6 1 10t6 6 16 4h9m-72-54v-61q-39 7-72 30t-34 49q0 10 10 18t26 8 36-14 34-30m180 42l50-2q57 0 79 12t22 39-16 47-40 32q-50 22-106 22-33 0-54-16t-20-39q0-55 47-71-12 0-19-5t-7-12 2-12 6-12 8-10 11-11l10-10q-27-24-27-66t31-71 68-30q23 0 41 13 21-24 70-24l-5 43q-3-5-11-9t-11-4q-14 0-28 9 19 22 19 53 0 39-30 69t-68 31q-20 0-32-7-21 25-21 31 0 10 31 10m25 25h-35q-16 9-21 14t-8 10-6 9q-5 10-5 23t12 23q20 15 57 15t68-13 32-34-26-35-68-12m-47-156q0 27 18 47t43 21 36-15 13-40-19-46-42-22-37 14-12 41m411 143v14h-72v-40q-25 27-41 37t-45 10-44-14-16-37 21-47 48-34 49-18 28-6v-11q0-47-39-47-27 0-50 11t-35 30l-10-9q34-65 116-65 21 0 35 11t18 26 5 34v135q0 6 1 10t6 6 16 4h9m-72-54v-61q-39 7-72 30t-34 49q0 10 10 18t26 8 36-14 34-30" />
</svg>