<svg id="fnt-Montserrat Alternates" viewBox="0 0 5693 1000" xmlns="http://www.w3.org/2000/svg"><path id="montserrat-alternates" class="f" d="M432 314q60 0 93 34t34 100v219h-37v-218q0-51-26-77t-70-25q-47 0-73 27t-27 83v210h-36v-218q0-51-25-77t-70-25q-47 0-74 27t-27 83v210h-37v-350h36v58q14-30 43-46t67-15q41 0 70 17t43 48q15-32 45-49t71-16m338 355q-38 0-68-17t-48-48-18-69 18-69 48-47 68-17 69 17 47 47 18 69-18 69-47 48-69 17m0-31q28 0 50-13t35-36 13-54-13-53-35-37-50-12-50 12-35 37-13 53 13 54 35 36 50 13m340-236q50 0 79 28t29 84v153h-35v-149q0-41-21-63t-58-21q-43 0-68 25t-24 70v138h-36v-263h34v48q15-24 40-37t60-13m322 223l12 26q-10 9-24 13t-31 5q-37 0-57-20t-20-56v-247h36v58h79v30h-79v157q0 23 11 35t34 13q24 0 39-14m147 44q-32 0-61-9t-46-23l16-28q17 13 42 21t52 8q36 0 53-11t17-32q0-14-9-23t-24-12-39-8q-32-6-51-13t-34-21-13-41q0-33 27-54t77-21q25 0 51 6t42 18l-16 29q-32-23-77-23-34 0-52 12t-17 32q0 15 10 24t24 13 40 9q32 6 51 12t32 20 14 40q0 35-29 55t-80 20m287-31q24 0 45-9t35-26l20 23q-17 21-43 32t-58 11q-40 0-72-17t-49-48-17-69 16-69 47-47 67-17q35 0 63 16t45 44 18 65l-216 42q10 32 36 50t63 19m-9-206q-28 0-50 13t-34 35-12 53q0 7 1 11l185-36q-6-33-30-55t-60-21m232 23q13-26 37-40t62-13v34l-9 0q-41 0-65 25t-23 72v134h-36v-263h34v51m197 0q12-26 37-40t61-13v34l-8 0q-42 0-65 25t-24 72v134h-35v-263h34v51m364-51h36v263h-34v-52q-16 26-43 40t-59 14q-37 0-67-17t-47-47-17-70 17-69 47-48 67-16q32 0 58 13t42 39v-50m-97 234q28 0 50-13t35-36 13-54-13-53-35-37-50-12q-28 0-50 12t-35 37-13 53 13 54 35 36 50 13m349-13l12 26q-10 9-24 13t-31 5q-37 0-57-20t-20-56v-247h36v58h79v30h-79v157q0 23 11 35t34 13q24 0 39-14m358-311q68 0 107 39t40 115v199h-37v-103h-220v103h-36v-199q0-75 39-115t107-39m-110 218h220v-67q0-59-29-89t-81-29-81 29-29 89v67m434 137q-35 0-55-20t-19-55v-298h36v295q0 23 11 35t33 13q14 0 24-5l2 30q-15 5-32 5m198-44l12 26q-10 9-24 13t-31 5q-37 0-57-20t-20-56v-247h36v58h79v30h-79v157q0 23 11 35t34 13q24 0 39-14m180 13q24 0 45-9t35-26l20 23q-17 21-43 32t-58 11q-40 0-72-17t-49-48-17-69 16-69 47-47 67-17q35 0 63 16t45 44 18 65l-216 42q10 32 36 50t63 19m-9-206q-28 0-50 13t-34 35-12 53q0 7 1 11l185-36q-6-33-30-55t-60-21m232 23q13-26 37-40t62-13v34l-9 0q-41 0-65 25t-23 72v134h-36v-263h34v51m297-53q49 0 78 28t30 84v153h-36v-149q0-41-20-63t-59-21q-42 0-67 25t-25 70v138h-35v-263h34v48q14-24 40-37t60-13m410 2h35v263h-34v-52q-16 26-42 40t-59 14q-37 0-67-17t-47-47-17-70 17-69 47-48 67-16q32 0 57 13t43 39v-50m-97 234q27 0 49-13t35-36 13-54-13-53-35-37-49-12q-28 0-51 12t-35 37-12 53 12 54 35 36 51 13m348-13l13 26q-10 9-25 13t-30 5q-37 0-57-20t-20-56v-247h35v58h80v30h-80v157q0 23 12 35t33 13q24 0 39-14m180 13q25 0 45-9t36-26l20 23q-18 21-44 32t-57 11q-41 0-72-17t-49-48-18-69 17-69 46-47 67-17q35 0 63 16t45 44 18 65l-216 42q10 32 36 50t63 19m-9-206q-27 0-49 13t-34 35-12 53q0 7 0 11l186-36q-6-33-31-55t-60-21m269 237q-32 0-61-9t-46-23l16-28q17 13 42 21t52 8q36 0 53-11t17-32q0-14-9-23t-24-12-39-8q-32-6-51-13t-34-21-13-41q0-33 27-54t77-21q25 0 51 6t42 18l-16 29q-32-23-77-23-34 0-52 12t-17 32q0 15 10 24t24 13 40 9q32 6 51 12t32 20 14 40q0 35-29 55t-80 20" />
</svg>