<svg id="fnt-Moo Lah Lah" viewBox="0 0 2676 1000" xmlns="http://www.w3.org/2000/svg"><path id="moo-lah-lah" class="f" d="M20 673q-12 0-12-11v-1q0-3 0-6t2-6q3-13 5-31t2-41q0-27 2-45t2-27q2-13 3-29t3-35q2-31 3-47t1-17q1-9 2-14t1-8q1-6 7-9t13-3 19 1 23 0 17 1q5-1 13-3t16-5 14-2h2q8 0 8 6 3 25 13 60t31 79q5-23 11-52t12-63q0-5-2-13t-1-9q0-12 16-12 1 0 7 0t15 2q19 2 31 1 6 0 15-2t19-3 15-2q9-2 12 17l2 26q1 7 8 39t20 87q13 56 20 86t9 33 3 8 4 12q0 12-22 14l-41 2q-14 0-25 1t-18 1q-8 0-11-13-2-12-4-32t-5-48q-2-25-5-45t-5-34q-4 10-16 77-5 32-9 51t-3 24q0 2 0 3t1 4q0 22-20 23-4 0-16 0t-23 0-17 1q-4 0-11-12t-14-32-14-40-12-37-6-24q0 8 0 20t0 26v27q1 11 0 12-1 3-3 5t-5 2q-15 0-15-28 0-12 4-25 6-22 6-55 0-7 0-15t-1-15q0-5 4-11t8-6q3 2 4 7 0 3 0 10t0 8q0 4 7 23t22 53q6-6 16-7 3 0 8 1t9 1q5-1 11-5t12-5q28-3 28 22 0 13-19 16-8 1-11 10-3 6-5 10t-4 6q-3 5-10 6t-16 1q9 27 44 25 16-2 21-24l16-64q4-19 7-35t5-30q-13-4-22-15t-9-25q0-12 6-19t14-13 17-11q4-4 7-11t7-17q4-10 7-16t6-10q-11 1-20 2t-16 0q-5 0-9 0t-7-1q-7 25-16 61t-20 85q2 2 3 6t4 9q0 5-5 10t-11 5q-14 0-21-32-10-9-15-20t-8-22q-6-16-25-24-19-7-28-30-7-16-18-15h-2q-7 0-20 8t-24 9q-2 0-4-1t-4 0q0 8-1 15t1 13q14 3 19 9 6 10 8 12 8 2 16 5t8 17q0 8-6 14t-13 7q-4 1-10-3t-11-7-10-4q0 5 0 11t1 13-1 15 0 16q10-6 20-6 13 0 23 9t12 21q1 7-4 18t-4 18q0 7 5 19t5 25q4-1 8-1t6 0q21 0 21 15 0 18-43 22-5 0-15 0t-21 1-21 1-13 0m385-53q2-5 1-13-1-13-4-29t-7-35l-16-63-6 1q-6 1-13-1t-15-5q-17-7-26-7-4 0-10 2t-12 10q2 10 4 22t4 28q1 13 3 25t2 26q5-30 6-33 4-8 11-12t18-5q11 0 18 8t8 18q0 4 0 13t-1 14q2 19 9 26t26 10m152 53q-40 0-80-28-51-34-51-112 0-28 10-53t27-46 42-32 53-12q40 0 67 17t44 52q8 15 12 32t5 38q0 38-15 71t-44 53-70 20m0-16q-6-11-6-28 0-23 14-36-2 0-4 0t-4 0q-14 0-25-9t-18-24-6-32q0-2-5-4t-9-5-7-6q-1-4-1-9 0-18 10-34 5-8 26-8 5 0 12 0t14 1 9 1q22 0 36 20-1-15-2-30t-2-29q-3-19-31-19-17 0-29 11t-25 22q-15 14-26 23t-14 15q-20 26-20 52 0 7 4 17t9 19 11 15q3 3 7 5t10 5q18 7 18 24 0 3-1 7t0 7q0 8 6 13t16 9 18 5 15 2m0-80q13 0 23-14t11-35q0-10-4-21t-11-19-19-8q-11 0-19 8t-11 19-3 21q0 22 10 35t23 14m74 48q0 0 1-1 38-38 38-95 0-1-1-1 0 0-14 9-15 9-25 9-14 0-24-15 1 8 1 17t1 17q0 14-3 21 11 6 17 22 7 17 9 17m195 48q-41 0-81-28-50-34-50-112 0-28 9-53t28-46 41-32 53-12q41 0 67 17t45 52q8 15 12 32t4 38q0 38-15 71t-44 53-69 20m0-16q-7-11-7-28 0-23 15-36-3 0-5 0t-3 0q-14 0-26-9t-17-24-7-32q0-2-4-4t-10-5-6-6q-2-4-2-9 0-18 10-34 6-8 27-8 5 0 12 0t14 1 9 1q21 0 35 20-1-15-2-30t-1-29q-4-19-32-19-16 0-29 11t-25 22q-15 14-25 23t-14 15q-20 26-20 52 0 7 3 17t9 19 12 15q3 3 7 5t10 5q18 7 18 24 0 3-1 7t-1 7q0 8 7 13t15 9 19 5 15 2m0-80q13 0 23-14t10-35q0-10-3-21t-11-19-19-8q-12 0-19 8t-11 19-4 21q0 22 10 35t24 14m73 48q1 0 2-1 38-38 38-95 0-1-1-1 0 0-15 9-15 9-25 9-14 0-23-15 0 8 1 17t1 17q0 14-3 21 10 6 17 22 6 17 8 17m406 44q-6 0-33-4-14-3-31-5t-37-2q-18-1-35-1t-35-1q-3 12-14 12-19 0-19-16 0-5 2-16t4-15q5-14 6-31t1-36q0-123-2-155 0-5-1-13t-3-17-1-13q0-15 16-15 4 0 13 1t12 1q12 0 37-6 12-3 21-4t15-1q21 0 21 22 0 14-12 14-5 0-14-3t-12-3q-3 7-4 12t-2 5-1 6 0 13q0 9-5 18t-14 15-18 6q-15 0-23-12t-7-26q-1 1-1 16 0 2 0 8t0 16-1 17 0 13q0 70 30 82 12 5 20 17 3 6 5 12t4 11q4 13 19 13 4 0 12-3t18-7 14-3q22 0 36 15t14 38q8-1 10-11 2-19 4-34t2-26q0-11-41-11-5 0-14 1t-17 4-13 2q-23 0-23-24 0-8 6-25-5-2-15-10t-19-17-8-16q0-12 11-14 1 0 20 0 2 0 9-1t11-1q1-8 1-12t1-6q2-6 3-9t5-4q3 1 3 48 0 5 1 16t2 22 1 16q0 4 0 7t-1 7q13-1 21-2t12 0q4 0 12 0t14 1q5 0 12-1t10 0q13 0 13 24 0 4-1 12t-2 15-1 12q0 7 1 20t1 19q0 23-26 23m-77-247q-1-1-2-10t-3-18 0-11q0-7 9-7 7 0 7 16 0 30-11 30m199 255q-26 0-44-13t-27-33-10-45q0-29 17-51 19-25 57-36 8-2 20-5t29-7h1q0-3 0-5t1-6q0-3 0-5t-1-5q-1-15-3-19-4-3-9-3-13 0-10 23v2q0 6-8 6-12-1-25-1t-25 1-25 4h-1q-6 0-7-7-4-82 106-89 4 0 7 0t6 0q40 0 61 16 10 8 17 21t9 30q1 7 3 25t3 46q0 14 1 31t4 37 8 36 12 28q2 2-1 5-3 3-7 3l-78-4q-4 0-4-7 0-10 11-9l60 5q-19-18-21-57-1-17-1-33t0-34q0-5-4-5-1 0-4 0t-8 3q-5 2-10 2-3 0-4-1-27-13-27-41 0-15 10-29 3-5 3-10 0-14-20-29-18-14-25-13-39 2-62 15-14 8-14 16 0 8 16 16 8 12 28 14 2-31 27-31 13 0 19 7t7 17 2 22q0 21-8 25-4 2-11 4t-16 4q-22 4-28 6-4 1-15 6t-21 10-9 13q0 5 11 10 13 6 22 16t9 27q0 6-2 14t-5 17q-2 5-11 6t-8 6q2 6 15 15t21 7q39-2 51-30 2-5 8-5 10 0 7 8-1 4-5 9t-10 13q-22 21-55 21m32-55q-15 0-25-12t-9-27q0-15 8-26t21-20 25-12q1 0 4 0 3 0 6 0t9 2q15 3 15 6 0 2 2 6t8 10q10 12 10 22 0 14-9 20t-21 6h-9q-3 0-4 1-7 24-31 24m-2-16q19 0 19-20 0-6-1-16t-1-26q-33 15-33 39v3q0 8 4 14t12 6m338 63q-19-3-33-5t-26-1q-5 0-11 0t-10 1h-1q-3 0-5-3t-1-6q4-38 6-64t2-36l2-85q1-18-5-18-6 0-7 11-4 27-7 46t-3 30q-1 9-8 9-5 0-13-5t-13-13-7-15q-1-4-1-8t-1-7q-13 8-21 25t-10 35-4 32q-1 21 9 36t26 18l27 4q-2-3-5-7t-6-11q-4-9-4-16 0-2 2-11t5-23q5-17 14-17 7 0 8 21 1 12 1 23t0 21v29q0 9-9 7-45-8-91-10-7 0-7-4 0-1 3-7t7-12 4-12l13-135q2-19 4-57t6-93q0-3-5-11t-4-12q1-8 8-7 22 4 33 5t15 2q2 0 13 0t29-2q3 0 5 3t3 6l-9 75q20-10 35-10 15 0 33 9t25 21q9 13 9 36 0 6-1 14t-2 20q-1 14-3 31t-4 37q-1 6-4 6-3 0-6-3t-2-5l1-34q-43-1-43-37 0-15 12-63 1-6-2-11t-8-4q-12 0-39 29h1q15 0 17 17 0 14 1 28t10 31q8 17 9 21 0 3 0 5t1 5q0 10-3 20t-7 20q-10 27-9 49 1 4 6 10t14 11 16 4q18 0 20-28 0-2-3-6t-9-7q-13-7-13-16 0-7 6-17 8-8 19-8 15 0 14 7 0 9 0 30t-1 55q0 9-8 7m-137-210q7-17 25-24 0-4 2-9t5-10q7-11 10-33t5-57q-29 1-47-3 1 10 1 16 0 12-7 12h-2q-2-1-3-1-6 0-7 10-1 12-3 28t-3 36q0 7 8 16t16 19m507 210q-6 0-32-4-14-3-31-5t-38-2q-17-1-35-1t-34-1q-4 12-14 12-20 0-20-16 0-5 2-16t5-15q4-14 5-31t1-36q0-123-1-155 0-5-2-13t-3-17-1-13q0-15 16-15 5 0 13 1t12 1q13 0 37-6 13-3 22-4t15-1q21 0 21 22 0 14-13 14-5 0-13-3t-12-3q-3 7-5 12t-2 5 0 6 0 13q0 9-6 18t-13 15-18 6q-15 0-24-12t-7-26q0 1 0 16 0 2 0 8t-1 16-1 17 0 13q0 70 30 82 13 5 21 17 2 6 4 12t4 11q5 13 19 13 4 0 13-3t17-7 15-3q22 0 35 15t15 38q8-1 9-11 3-19 4-34t2-26q0-11-41-11-5 0-13 1t-17 4-13 2q-24 0-24-24 0-8 7-25-6-2-16-10t-18-17-8-16q0-12 11-14 0 0 19 0 3 0 10-1t10-1q1-8 1-12t1-6q2-6 4-9t5-4q2 1 2 48 0 5 1 16t2 22 2 16q0 4-1 7t0 7q13-1 21-2t11 0q4 0 13 0t13 1q5 0 12-1t10 0q13 0 13 24 0 4-1 12t-2 15-1 12q0 7 1 20t2 19q0 23-27 23m-76-247q-1-1-3-10t-2-18-1-11q0-7 10-7 7 0 7 16 0 30-11 30m198 255q-26 0-44-13t-27-33-9-45q0-29 17-51 19-25 56-36 9-2 21-5t28-7h1q1-3 1-5t0-6q0-3 0-5t0-5q-2-15-4-19-4-3-8-3-13 0-11 23v2q0 6-7 6-13-1-25-1t-25 1-25 4h-1q-6 0-7-7-5-82 106-89 3 0 6 0t7 0q39 0 60 16 10 8 17 21t10 30q1 7 2 25t3 46q1 14 2 31t4 37 7 36 12 28q2 2-1 5-2 3-6 3l-79-4q-3 0-3-7 0-10 10-9l60 5q-18-18-21-57 0-17 0-33t0-34q0-5-5-5-1 0-4 0t-7 3q-6 2-10 2-3 0-4-1-27-13-27-41 0-15 9-29 3-5 3-10 0-14-20-29-17-14-24-13-39 2-63 15-13 8-13 16 0 8 15 16 8 12 29 14 1-31 26-31 14 0 20 7t7 17 1 22q0 21-8 25-4 2-11 4t-16 4q-21 4-27 6-5 1-16 6t-20 10-9 13q0 5 11 10 13 6 21 16t9 27q0 6-1 14t-6 17q-2 5-11 6t-8 6q2 6 15 15t22 7q38-2 50-30 3-5 9-5 9 0 6 8-1 4-5 9t-9 13q-22 21-56 21m33-55q-16 0-25-12t-10-27q1-15 9-26t20-20 26-12q1 0 4 0 2 0 6 0t9 2q14 3 14 6 0 2 3 6t8 10q10 12 10 22 0 14-9 20t-21 6h-9q-4 0-5 1-6 24-30 24m-3-16q19 0 19-20 0-6 0-16t-1-26q-33 15-34 39v3q0 8 5 14t11 6m338 63q-18-3-33-5t-25-1q-6 0-11 0t-11 1h0q-3 0-5-3t-2-6q5-38 6-64t3-36l2-85q0-18-5-18-6 0-8 11-3 27-6 46t-4 30q0 9-7 9-6 0-13-5t-14-13-7-15q0-4-1-8t-1-7q-13 8-20 25t-10 35-4 32q-1 21 8 36t27 18l26 4q-2-3-5-7t-6-11q-3-9-3-16 0-2 1-11t6-23q4-17 13-17 8 0 9 21 0 12 0 23t0 21v29q0 9-8 7-45-8-91-10-8 0-8-4 0-1 4-7t7-12 3-12l14-135q1-19 3-57t6-93q1-3-4-11t-5-12q1-8 9-7 21 4 33 5t14 2q3 0 13 0t30-2q3 0 5 3t2 6l-8 75q19-10 35-10 15 0 32 9t26 21q8 13 8 36 0 6-1 14t-1 20q-2 14-3 31t-5 37q-1 6-4 6-2 0-5-3t-3-5l2-34q-43-1-43-37 0-15 11-63 2-6-2-11t-8-4q-12 0-39 29h2q14 0 17 17 0 14 1 28t9 31q8 17 9 21 1 3 1 5t0 5q0 10-3 20t-6 20q-11 27-9 49 0 4 6 10t13 11 16 4q18 0 21-28-1-2-4-6t-9-7q-12-7-12-16 0-7 5-17 9-8 20-8 14 0 13 7 1 9 0 30t0 55q0 9-9 7m-137-210q8-17 25-24 1-4 2-9t5-10q7-11 11-33t5-57q-30 1-48-3 2 10 2 16 0 12-7 12h-3q-1-1-2-1-6 0-7 10-2 12-3 28t-4 36q0 7 8 16t16 19" />
</svg>