<svg id="fnt-Mooli" viewBox="0 0 1424 1000" xmlns="http://www.w3.org/2000/svg"><path id="mooli" class="f" d="M86 667h-42v-364h59l119 232 21 51 22-52 119-231h59v364h-42v-313l-17 39-125 246h-32l-126-249-15-40v317m556 5q-40 0-70-16t-46-47-17-70q0-40 17-71t46-47 69-16q40 0 69 16t45 47 17 70q0 40-17 71t-45 46-68 17m0-34q39 0 63-27t24-72q0-45-24-72t-64-27q-40 0-65 27t-24 72q0 45 24 72t66 27m307 34q-40 0-69-16t-47-47-16-70q0-40 16-71t46-47 70-16q39 0 68 16t46 47 16 70q0 40-16 71t-46 46-68 17m0-34q40 0 64-27t24-72q0-45-25-72t-63-27q-40 0-65 27t-25 72q0 45 25 72t65 27m326-9l6 29q-25 11-50 13t-44-6-32-26-12-47v-299l41-8v309q0 26 14 36t34 9 43-10m106 39q-18 0-33-7t-24-22-10-42v-187h42v186q0 26 9 34t22 7q6 0 15-1t16-5l5 28q-10 4-21 6t-21 3m-23-311h-44v-45h44v45" />
</svg>