<svg id="fnt-Moulpali" viewBox="0 0 1656 1000" xmlns="http://www.w3.org/2000/svg"><path id="moulpali" class="f" d="M203 317h69v350h-41v-314l-54 196h-41l-53-196v314h-41v-350h71l45 179 45-179m334 220q0 39-6 65t-18 41q-12 15-29 21t-42 6q-23 0-40-6t-30-21q-12-15-18-41t-7-65q0-64 23-94t72-30 72 30 23 94m-43 7q0-26-3-45t-8-30q-11-21-41-21-29 0-40 21-6 12-9 30t-2 45q0 49 11 70t40 21 40-21 12-70m239-127h42v250h-35l-3-21q-11 12-25 18t-33 6q-40 0-56-22-9-11-12-28t-4-40v-163h43v168q0 23 6 36t30 13q13 0 23-6t17-16 7-19v-176m194 212v35q-2 1-5 1t-7 2q-8 1-18 1-18 0-30-13t-12-44v-294h42v291q0 13 4 18t13 6q3 0 8-1 3-1 5-2m103 39v84h-43v-335h35l4 21q24-25 59-25 44 0 62 28t17 85q0 41-5 68t-18 45q-13 17-33 24t-50 7q-9 0-16 0t-12-2m47-219q-13 0-23 7t-18 16-6 20v140q5 1 13 2t20 0q34 0 47-26 6-13 8-32t3-45q0-47-10-65-5-9-13-13t-21-4m338 183v35h-15q-10 0-21-6t-17-19q-9 14-25 21t-41 7q-13 0-27-3t-24-11-17-22-6-38q0-40 23-62t66-21h39v-27q0-16-9-27t-28-10q-22 0-38 3t-35 8v-37q14-4 32-7t36-3q48 0 67 20 9 10 13 26t5 37v120q0 7 5 11t17 5m-109 2q23 0 33-12t11-23v-52h-42q-17 0-30 11t-13 35q0 24 11 32t30 9m244-5v35q-3 1-6 1t-7 2q-7 1-17 1-19 0-31-13t-12-44v-294h43v291q0 13 3 18t13 6q4 0 8-1 3-1 6-2m57-312h48v45h-48v-45m2 100h43v250h-43v-250" />
</svg>