<svg id="fnt-Mouse Memoirs" viewBox="0 0 2234 1000" xmlns="http://www.w3.org/2000/svg"><path id="mouse-memoirs" class="f" d="M247 666l-58 1q1-37 2-76 0-16 0-34t1-38 0-37 0-36q0-12 0-22t0-20q-3 18-8 47t-9 62-10 73-8 76l-46-1q-6-38-12-75t-10-70-9-62-7-49v85q0 27 0 53t0 51 1 42 2 30l-66 4q4-21 6-47t4-54 1-58 1-57q0-28 0-53t-1-43q-1-22-1-40 7 1 16 2t17 2 16 0 14 1q4 0 8 0t6-1q3 0 5 0 12 81 20 137t13 85q2-19 5-39t5-39 4-37 3-35q3-39 6-75 5 1 12 1 5 1 13 1t17 0 20 0 22-2q-2 92-2 158 0 49 1 85t2 58q1 28 4 46m171-139q0 30-2 52t-8 39-12 27-15 18-18 9-20 3-20-2-18-9-14-15-12-26-7-37-2-51q0-44 6-72t17-45 24-22 27-6q10 0 19 1t17 8 15 14 12 25 9 37 2 52m-52 2q0-24-2-39t-4-24-7-12-9-3q-6 0-10 5t-7 15-4 27-2 40q0 24 2 40t5 25 8 13 9 4q11 0 16-22t5-69m175-102l55-1q-2 39-3 77t0 78q0 23 0 45t1 46l-49 1v-31q-7 12-16 19t-18 9-14 3-7 0q-15-3-25-13t-16-26-9-35-2-41q0-19 1-38t4-38 5-36 5-33l54 1q-3 15-5 31t-4 35-3 35-1 34q0 14 1 27t4 22 7 15 11 5q8 0 13-10t9-26 4-37 1-40q0-16-1-30t-1-25q0-12-1-23m197 167q0 21-7 36t-18 23-24 13-25 4q-8-1-16-2-7-2-15-5t-15-9l2-55q9 7 18 11t17 5q9 3 17 3 7-4 10-10t4-15q0-7-3-15t-10-15q-7-7-16-17t-18-22-15-27-6-32q0-18 5-32t13-24 21-16 26-6q12 0 26 4t29 11l-4 57q-6-6-14-10t-13-5q-7-2-14-3-9 2-16 10t-6 20q0 12 5 20t12 17 15 15 16 18 13 22 6 31m155 20l7 46q-23 8-41 10t-31 3q-15 0-26-6t-20-16-13-22-9-27-4-29-2-27q0-33 6-60t14-47 25-31 32-11q15 0 28 8t21 23 14 40 4 57q0 9 0 18t-1 20l-87 12q1 9 3 17t6 14 8 10 12 4q14 0 27-2t27-4m-84-88v7l40-7v-10q0-20-3-32t-7-17q-4-6-10-7-7 1-11 7t-6 15-3 20 0 24m429 140l-58 1q1-37 2-76 0-16 0-34t1-38 0-37 0-36q0-12 0-22t0-20q-3 18-8 47t-9 62-10 73-8 76l-46-1q-6-38-12-75t-10-70-9-62-8-49v85q0 27 1 53t0 51 1 42 2 30l-66 4q4-21 6-47t4-54 1-58 1-57q0-28 0-53t-1-43q-1-22-2-40 8 1 17 2t17 2 16 0 14 1q4 0 8 0t6-1q3 0 5 0 12 81 20 137t12 85q3-19 6-39t4-39 5-37 3-35q3-39 6-75 5 1 12 1 5 1 13 1t17 0 20 0 22-2q-3 92-3 158 0 49 2 85t2 58q1 28 4 46m160-52l7 46q-23 8-41 10t-31 3q-15 0-26-6t-20-16-13-22-9-27-4-29-1-27q0-33 5-60t15-47 24-31 32-11q16 0 28 8t21 23 14 40 5 57q0 9-1 18t-1 20l-87 12q1 9 3 17t6 14 9 10 11 4q14 0 27-2t27-4m-84-88v7l40-7v-10q0-20-3-32t-7-17q-4-6-10-7-7 1-11 7t-6 15-3 20 0 24m266-14q-1 29-2 56-1 12-1 24t-1 25-2 22-1 20l-53 5q2-33 3-57t2-42 1-29 0-19 0-10 0-4q0-14-1-23t-4-13-4-7-7-1q-4 0-8 1t-8 7-6 13-2 24q0 27 0 54t0 48q1 24 1 47l-58 5q2-26 3-50t0-45q0-37-1-73t-6-76q16-1 26-2t16-1q6-1 10-2l1 29q5-8 11-15t13-13 14-8 15-3q9 0 16 1t12 5 8 11 6 17q4-7 10-13t11-11 13-8 16-2q13 0 23 3t15 13 8 27 3 47q0 41-2 83t-4 87l-54 5q3-45 4-76t1-49 0-28 0-9q0-13-1-22t-4-13-5-7-7-1q-2 0-5 0t-5 2-6 7-5 12q0 11 0 20t1 12m262 15q0 30-3 52t-7 39-12 27-16 18-18 9-20 3-20-2-17-9-15-15-11-26-7-37-3-51q0-44 7-72t17-45 23-22 28-6q9 0 18 1t18 8 15 14 12 25 8 37 3 52m-52 2q0-24-2-39t-5-24-7-12-9-3q-6 0-10 5t-7 15-4 27-1 40q0 24 1 40t6 25 7 13 10 4q11 0 16-22t5-69m151-187q0 8-3 14t-7 11-12 8-18 3q-11 0-18-3t-13-8-6-11-2-14q0-7 2-14t7-11 12-8 18-2 18 2 12 8 7 11 3 14m-15 71q-1 14-2 29t-2 32-1 33 0 34q0 19 0 36t1 33 1 26 3 18q-10 0-21 1-9 0-20 1t-22 2q4-44 5-80t2-66q0-25-1-43t-2-32q-1-15-2-26 13 2 25 2t19 1q4 0 7 0t6-1q2 0 4 0m173 103q-8 1-16 3-8 2-17 4t-19 6q3-12 4-22t1-16q0-14-3-21t-5-11-6-5-4 0q-7 0-12 6t-8 17-4 25 0 28q0 10 0 20t0 21l4 96-56 4q0-59-2-107t-2-80q-1-39-3-70l48-3 2 28q7-16 15-25t18-14 16-6 11-1q12 0 20 8t12 21 6 27 2 29q0 11-1 21t-1 17m133 78q0 21-7 36t-18 23-24 13-24 4q-9-1-17-2-7-2-15-5t-14-9l2-55q9 7 18 11t16 5q9 3 18 3 6-4 10-10t4-15q0-7-3-15t-11-15q-6-7-16-17t-18-22-14-27-6-32q0-18 4-32t14-24 20-16 27-6q12 0 25 4t29 11l-3 57q-7-6-14-10t-13-5q-7-2-14-3-9 2-16 10t-6 20q0 12 4 20t12 17 16 15 16 18 13 22 5 31" />
</svg>