<svg id="fnt-Mr De Haviland" viewBox="0 0 2309 1000" xmlns="http://www.w3.org/2000/svg"><path id="mr-de-haviland" class="f" d="M232 654q0 5 8 5t30-10 37-19l16-10q0 1 0 4t-4 5q-68 46-94 46-13 0-13-13t21-50l88-153q0-1-2-1t-6 4-92 93-101 104q-8 10-15 10-5 0-5-7 0-15 65-115t69-111q0-2-2-2t-8 7-104 108-112 118q-4 3-9 3t-5-4q0-4 5-11t13-22 29-53 38-73 29-74 14-65q0-41-36-41-42 0-88 23t-76 55-29 54q0 26 43 26t80-27 55-56q2-3 4-3t1 7-11 23-29 33-45 29-56 12q-57 0-57-37 0-21 18-46t47-48 71-38 82-15q47 0 47 49 0 25-13 62t-29 72q-34 68-65 116l-12 19q2-1 49-50 156-161 169-174 10 0 12 2t2 4v0q0 14-91 156-35 54-38 59l-4 10q4 0 51-50t96-101 56-50q3 0 7 3t3 6-1 6l-90 162q-13 24-13 34m80-21q-2 1-4 1t-1-2 1-3q21-12 45-38-22-7-22-20t17-28 32-16q10 0 10 12 0 19-19 40 24 4 24 11 0 10-9 15t-20 19-11 27q0 3 2 6t8 2 28-10 37-19l16-10q0 1 0 4t-4 5q-68 46-94 46-13 0-13-13 0-11 7-22t16-19 16-15 7-8-6-3-16-2q-28 29-47 40m31-69q0 10 22 14 13-16 13-28t-7-12-18 9-10 17m506 61q0 19-27 26-1 0-1-2t3-5q10-7 10-16 0-18-29-26-48 44-101 70t-100 26q-35 0-35-25t32-46 76-32 77-11 49 4q49-48 80-100t31-91-30-60-88-22-122 21-107 56-44 68q0 19 23 19 34 0 66-17t85-60q7-8 10-8 5 0 5 4 0 1-4 7-13 13-36 31t-44 31-45 23-46 10q-35 0-35-32 0-35 50-76t124-67 136-27 92 24 30 65-33 98-84 106q32 10 32 34m-58-26q-17-3-44-3t-63 9-64 26-27 41q0 16 22 16 38 0 84-24t92-65m-3-257l3 2q0 2-59 106t-77 134q-3 6-11 10t-12 3-4-2 35-62q104-179 103-180 3-5 10-7l12-4m102 276q-30 0-30-13 0-15 35-37t64-21q15 0 15 9 0 5-8 11t-14 10-8 3q-3 0-4-2-1-4 5-8t6-8-11-4-35 15-24 26q0 8 17 8 3 0 11-1t8 2-25 18-24 27q0 12 16 12t37-8q33-15 60-31l9-6q1 1 1 4t-5 5q-26 18-58 34t-57 16-25-17 44-44m452-39q4 0 4 3t-6 6q-34 17-80 19-24 46-24 47t-3 5-3 6q-3 5-6 5-9 0-9-13 0-26-7-54-27-4-50-12l-68 120-10 8q-6 3-10 3-4 0-4-5 0-3 2-7l72-127q-37-16-59-42t-22-57q0-42 30-42 20 0 45 19t47 51l97-172q6-8 20-8 3 0 3 2t-109 197q17 31 25 65 15 2 34 2 57-110 154-283 5-10 20-11 4 0 4 2t-3 9-31 54q-98 170-130 229 42-2 77-19m-197-4l28-50q-19-29-41-46t-38-18q-17 0-17 21 0 29 18 53t50 40m18 7q20 8 43 12-9-27-21-51-22 38-22 39m56 23q4 22 4 44l1 5q3-8 23-47-9 0-28-2m173 2q-3 0-3-3l1-4q9-8 9-14 0-8-8-8-17 0-47 24t-30 44q0 8 11 8t24-9 23-18 11-8q5 0 5 5 0 2-8 13t-7 17q0 5 8 5t29-10 37-19l16-10q1 1 1 4t-5 5q-67 46-94 46-13 0-13-13 0-6 2-12-3 4-21 12t-30 9-14-13q0-29 41-60t69-31q17 0 17 14 0 8-10 17t-14 9m65-21l-13 3q-1 0-1-1 0-5 11-11t19-7 7 30l-3 49q0-1 33-37t57-56 42-19q7 0 7 5t-9 12-14 8-5-2-5-2-12 5-21 17-23 24-30 32-34 36q-4 4-7 4t-2-2q7-39 7-76v-10q-1-2-4-2m188-72q7 0 7 8t-7 15-15 8q-7 0-7-10t8-15 14-6m-47 66q2-4 7-4t9 5q0 2-7 9t-22 31-15 32q0 5 7 6 10 0 31-10t37-19l16-10q1 1 1 4t-5 5q-67 46-94 46-13 0-13-13t14-37 34-45m62 95q-22 0-22-25 0-32 35-93t80-109 72-48q9 0 9 13 0 21-35 69t-76 89-62 57q-1 8-1 10t0 7 4 9 12 5 29-10 37-19l16-10q1 1 1 4t-5 5q-67 46-94 46m156-250q0-11-6-11-16 0-47 35t-61 84-39 84q21-17 54-50t65-76 34-66m22 182q-3 0-3-3l1-4q9-8 9-14 0-8-8-8-17 0-47 24t-30 44q0 8 11 8t24-9 23-18 11-8q5 0 5 5 0 2-8 13t-7 17q0 5 8 5t29-10 37-19l16-10q1 1 1 4t-5 5q-67 46-94 46-13 0-13-13 0-6 2-12-3 4-21 12t-30 9-14-13q0-29 41-60t69-31q17 0 17 14 0 8-10 17t-14 9m57 22q9-6 25-18 38-30 40-30 8 0 8 7t-8 20-18 28-11 17q1 1 2 1t20-14 38-28 23-17 6-2q6 1 6 7 0 3-17 25t-17 30q0 4 11 4t32-10 37-19l16-10q0 1 0 4t-4 5q-68 46-94 46-16 0-16-12 0-12 7-22t12-18 5-8q-23 17-55 40t-35 23q-3 0-3-7t19-37 20-31-1-2l-5 2-25 20q-2 2-9 7t-9 4-2-2 2-3m265-9q-3 13-3 29t13 15q3 0 11-4t10-3 1 1q0 6-10 12t-21 7q-21 0-21-28 0-7 0-10-40 35-61 35t-21-15q0-21 36-54t70-36q29-59 70-110t65-51q4 0 6 4t3 9q0 16-49 83t-99 116m129-192q0-4-3-4-8 0-32 28t-50 71-38 80q46-49 85-102t38-73m-207 227q0 8 8 8 14 0 53-38 6-23 15-42-24 6-50 32t-26 40" />
</svg>