<svg id="fnt-Mr Bedfort" viewBox="0 0 2440 1000" xmlns="http://www.w3.org/2000/svg"><path id="mr-bedfort" class="f" d="M-71 309q0-6 22-11t33-5 21 19q9 21 19 49t10 28q17-35 39-55t49-20q18 0 32 17t23 43q17 49 27 143l7 84q1 0 15-60t24-96q24-92 28-98 2-5 20-11t26-6q2 0 2 6l0 7q-1 7-1 22t1 35 5 49 10 58 18 57 27 50 40 35 54 14q14 0 20-2t10-5 5-2q4 0 4 5 0 8-30 19t-51 12q-50 0-87-47t-53-116-17-151h-3l-64 258q-3 32-6 35-22 15-29 15t-6-12q-2-53-11-118t-17-106-24-70-32-28-29 14-21 39q8 39 19 121t11 135q0 14-9 22t-17 9-17-19-15-55-5-63 2-62q-11-71-31-125-7-20-18-36t-23-16q-7-1-7-5m616 275l-9 0q-5 0-7 4-6 15-19 34l-4-5q10-14 15-34 0-4-3-6-23-7-23-39 0-7 12-14t20-6 8 7q0 38 35 38 9 0 14-2t6-2q5 0 5 7t-4 10-8 12-5 20q0 23 13 35t33 13 40-11 34-33l3 6q-17 30-48 49t-56 18q-50 0-50-45 0-9 6-23t12-25l6-10q0-2-1-2-16 4-25 4m740 55q0-25-29-53t-68-49-81-37-69-18q13 26 19 39t13 35 6 38q0 51-30 83t-71 33q-54 0-102-43t-75-105-27-128q0-80 46-133 23-27 63-42t93-15 108 22q66 25 92 65 16 22 16 49t-16 47-41 28q-1 1-5 1t-4-2 6-5q38-15 38-42 0-32-36-62t-89-47-107-17q-75 0-110 34t-35 90 33 123 85 111 99 46q42 0 42-41 0-20-21-65t-44-92-21-71 14-44 29-27l14-8q3 0 3 2t-2 5q-16 8-16 37 3 36 28 91 15-17 22-20t22-4 44 8 61 22 63 32 50 41 20 45q0 36-31 70t-79 35q-34 0-58-17t-49-45q21-25 31-29 3 0 9 6l7 7q16 14 26 21t33 18 41 10 29-9 11-24m118-120l0-7q0-6-13-6t-25 8-10 22q0 24 34 24 6 0 11-2t12-2 6 4q0 1-4 2t-10 6-11 9q-14 13-14 35t13 34 35 12 44-12 37-34l3 6q-19 33-53 52t-61 19-43-11-14-30 9-34 15-22 10-10 4-4-1-1q-16 6-31 6-26 0-26-21 0-29 33-50t57-21 25 12q0 7-8 16t-14 8q-10 0-10-8m181 118q24 0 45-51-11-23-19-40-4 3-9 3-8 0-8-10 0-3 4-6t5-7q0-9-9-9-20 0-34 22t-13 46 10 38 28 14m15-287q0 78 48 179 18-70 18-128 0-116-40-116-26 0-26 65m59 199q19 38 40 69t28 39 7 10-11 12-18 9-28-26-40-63q-39 72-89 72-26 0-38-14t-12-35q0-39 29-77t68-37h1q-24-66-24-116t25-91 52-40q19 0 31 23t12 71q0 99-33 194m63 191q-14-6-28-6t-14 4 14 4 28-2m88 97l2-3q-6-38-23-112-24 15-48 23 38 27 69 92m-8-416q0-70-10-110t-29-40-20 51 46 229q13-60 13-130m27-70q0 49-11 109t-24 106l30 119q43-36 66-73l4 6q-27 41-68 76 26 107 26 156 0 4-3 4t-14 8-13 10-4 2-4-4q-34-94-79-123-25 8-41 8-34 0-34-12 0-6 8-11t26-4 36 10q27-7 56-25-6-26-24-94t-25-103q-25-104-25-154t20-77 58-29q39 0 39 95m170 280q6-14 6-36t-6-35-13-13q-5 0-9 7t-4 20 7 29 19 28m-83-25q0 22 12 37t31 15 31-13q-20-14-32-38t-13-53q0-3 1-8-30 21-30 60m24 81q-29 0-45-20t-16-49 19-56 52-26q8-13 24-13t28 18 13 48-8 49q12 9 26 9 26 0 49-35l4 5q-24 40-59 40-14 0-27-6-11 17-27 26t-33 10m178-103l-9 0q-5 0-7 4-6 15-19 34l-4-5q10-14 15-34 0-4-3-6-23-7-23-39 0-7 12-14t20-6 8 7q0 38 35 38 9 0 14-2t6-2q5 0 5 7t-4 10-8 12-5 20q0 23 13 35t33 13 40-11 34-33l3 6q-17 30-48 49t-56 18q-50 0-50-45 0-9 6-23t12-25l6-10q0-2-1-2-16 4-25 4m173-158q8 235 72 235 28 0 66-49l4 6q-47 70-90 70t-69-66-28-173q-62 32-66 32-7 0-7-7t7-11l66-35q1-38 3-72 0-4 5-6 30-12 33-12t4 5q-1 25-1 45v16l26-14q106-56 108-56t5 1q11 11 11 13t-3 3-23 12-57 29-66 34" />
</svg>