<svg id="fnt-Mr Dafoe" viewBox="0 0 1842 1000" xmlns="http://www.w3.org/2000/svg"><path id="mr-dafoe" class="f" d="M455 342l7 2q3 0 8-5t9-5 11 4 7 8q0 8-37 52t-80 95-80 101-36 72q0 34 5 52l1 5q0 3-8 3t-14-1-11-5q-12-8-17-43 0-16 3-31t14-34 22-36 38-48q36-43 80-92t48-54 4-6-28 24-98 91-85 84q-66 75-81 98-2 6-9 6t-11-8q-8-15-8-37 10-36 39-92t64-110l24-30q3-6 3-7l0-1q-1 0-39 41t-45 49l-107 117q-64 70-92 84-48 16-58 18-6 0-6-2t5-6q73-75 92-93 4-2 66-63t131-124 100-81q20-6 29-6t10 6q0 3-4 8-76 108-89 136l-30 58q-2 3-2 5 0 3 1 2 40-32 104-90t98-85 52-26m-103 231q28-19 58-41-16-11-21-21-1-4-1-5 0-10 6-14t21-3q6 0 33 14t34 13 20-4 21-4 11 3q13 17 13 20t-4 6-20 14-34 25-31 28-14 25q0 1 2 1 27 0 182-109 4 0 4 6t-40 43-89 72-72 35q-35 0-35-35 0-19 12-37t54-47q-8 0-23-5t-18-10q-13 12-45 39-8 5-20 5t-12-4 8-10m762-123q0 30-25 72t-62 82-92 68-106 28q-3 0-10-3t-11-6q-11-11-11-31 4-19 16-30 4-4 4-5h-1q-1 0-5 2l-90 68q-9 10-18 10-2 0-5-2l-12-11q-2-1-2-6t5-13 21-33 44-60 76-85 100-85q10-10 20-10 2 0 8 4 8 4 8 8t-2 6l-35 34q-123 127-156 172-4 5-4 6t1 2 3-1q39-27 87-49 3-2 6-2t4 2l10 12q2 3 2 5t-2 5l-6 6q-29 29-30 37 0 2 2 2 30 0 87-35t105-85 48-80q0-11-12-23t-23-18q-31-17-77-17t-88 10-75 26-58 31-40 31-14 20q0 2 1 2 16 0 59-22t57-35q13-9 16-9 2 0 2 4t-6 13-19 23-28 26-34 22-35 9-31-14-17-33q0-39 51-75t117-56 114-19 77 9 46 21 27 29q16 24 18 46m29 196l4-32q0-2-1-2t-2 2q-7 7-17 17t-34 28-39 17q-3 0-7-2t-9-8-6-20 19-40 48-52 61-45 59-19q9 1 15 14 5-5 9-5t9 6q3 0 6 3t3 8-7 11q-10 13-24 29t-20 24-13 16q-11 16-12 25 51-24 161-105 4 3 4 8t-4 9-10 8-22 20-33 27-36 30-36 28q-39 27-48 27t-14-6-4-21m-51-21q6 0 37-25t58-49l28-24q2-2 2-3t-1-1q-19 0-50 22t-53 46-22 33q0 1 1 1m179 46q0 1 3 5 7 11 7 34t-24 60-55 63-51 27q-25 0-32-45 0-62 91-164l272-308q3-10 15-10 19 0 25 4t6 11-11 18l-244 267q1 0 3 0t6-1q93-50 182-116 5 3 5 8t-5 10-13 12-33 30-48 40-50 34-49 21m-117 145q13 0 39-25t47-58 21-49-11-16q-4 0-10 5-24 23-46 57t-33 56-10 26 3 4m258-171q16 0 40-21t24-29q-6-5-13-19t-7-13q-15 15-27 34-19 32-19 44 0 4 2 4m108-123q-5 0-21 16t-15 21q0 2 3 6t4 5q9 0 19-21t11-24-1-3m1 65q14 0 44-17t52-34l23-18q4 4 4 9t-4 9q-83 76-125 76-3 0-9-1-57 66-97 66-27-4-34-19-4-8-4-19 0-33 38-79t95-67q5 0 8 2t4 2 5-2 9-2 12 6q8 7 8 16 0 28-29 72m182-71q-13 0-44 26t-31 33q0 1 1 1 11 0 44-24t33-34q0-2-3-2m-107 160q-38 0-38-47 0-30 25-63t61-55 62-21q12 0 22 10t11 18q0 17-24 37t-49 34-34 13-12-8q-2-1-6-1t-11 13-8 21 6 11q38 0 82-23t123-78q6-4 17-12t13-9q5 3 5 8t-5 9q-25 25-65 56t-91 59-84 28" />
</svg>