<svg id="fnt-Mrs Saint Delafield" viewBox="0 0 3262 1000" xmlns="http://www.w3.org/2000/svg"><path id="mrs-saint-delafield" class="f" d="M27 675q-10 0-10-10 0-27 61-103t127-130q24-50 24-78 0-34-34-34-31 0-74 32t-72 70-30 61q0 16 19 16 26 0 57-27t47-53q6-9 9-9t4 4-2 6q-17 25-54 58t-68 33-30-22q0-20 21-51t51-60 68-49 67-21q39 0 39 38 0 25-18 68 49-37 79-37 18 0 18 19t-33 74-67 99l-34 44q0 1 1 1 19-13 66-57t88-76 60-32q12 0 12 12t-30 51-60 82-30 58 13 16q16 0 41-16t35-25 12-9 3 2q0 6-17 20t-42 28-43 13q-24 0-24-20t16-48 37-53q57-68 64-90 0-6-5-6-12 0-74 54t-91 82-39 38-16 16-11 11q-10 10-14 10 0 0-1-1-4-2-4-7 0-12 32-52 56-70 96-133t40-84q0-8-10-8-25 0-77 44-38 78-104 159t-89 82m11-13q13 0 66-69t88-135q-57 52-108 116t-51 82q0 6 5 6m505-70l10-8q4-3 7-3t3 4v1q-38 30-74 56t-54 26q-12 0-12-13t12-27 23-24 12-13-4-8-6-5q-8 8-37 31l-2-8q32-25 37-33v-5q0-12 2-17t12-12 13-8 6 2 3 5-2 6-3 5-5 6-4 4-1 5-3 5-3 5 4 13 4 15-18 22-19 29q0 6 6 6 7 0 26-12l6-4q32-23 61-46m95 3l14-11q4-3 7-3t3 4v1q-39 32-82 61t-54 28-19-4-8-10 3-9 6-4 8 8 11 8q12 0 18-25t7-34-2-9-2 1l-14 12-2-8q31-25 36-33 3-8 9-8 3 0 3 2t-3 11-10 37-5 34 2 4q35-21 74-53m221 22q-12-16-31-44-131-13-131-55 0-10 9-16t30-6q50 0 100 64 50 5 113 5h6q64-39 119-78 22-41 39-68t40-55q46-59 98-59 13 0 13 12 0 29-48 76t-127 101q-24 46-36 67 70-6 101-17h1q2 0 2 2t-3 8q-38 12-108 18-27 47-53 72t-50 26q-41 0-78-45-71 36-126 55-8 2-18 2t-9-7q0-4 4-8t10-3q40 0 133-47m96-40q-38 22-75 41 33 41 61 41 20 0 40-22t45-63q-30 2-71 3m282-260q-35 0-70 46-29 39-63 103 63-47 101-85t38-59q0-5-6-5m-516 199q0 28 96 41-39-52-78-52-18 0-18 11m153 94q31-16 59-33h-2q-43 0-84-3 19 27 27 36m186-97q-27 18-84 52 39-1 57-3 9-16 27-49m140 94q-3 0-3-3t3-5q17-13 17-24 0-7-13-8-22 0-54 32t-31 48q0 6 6 6t17-9q10-6 36-30 6-6 11-6 7 0 7 7 0 2-1 4t-6 6-7 9q-9 13-9 17 0 10 8 10 11 0 40-20t53-38l24-19q3-3 6-3t3 4v1q-38 32-81 61t-56 28q-16 0-16-17 0-4 1-7t2-5-1-2q-2 0-20 13t-31 14-13-14 19-38 50-43 62-20q7 0 11 4t5 10-14 22-25 15m152-91q5 0 7 3t3 8-7 14-13 9-8-4-3-7 8-14 13-9m30 76l11-9q4-2 6-2t3 3v1q2 0-27 22t-62 44-41 22q-14 0-14-12 0-14 25-55t36-40q9 0 9 7t-23 35-23 42q0 7 5 7t26-14q38-25 69-51m213-8v1q-105 88-130 88-15 0-15-12t11-28 21-30 11-15-1-2q-47 31-56 38t-28 23-26 20-13 4-7-6q0-7 28-44 27-37 27-42 0-1-2-1t-43 31l-2-8q36-28 48-36t20-8 8 7q0 5-28 41t-28 38 1 3 57-40 68-40q3 0 6 2t4 6q0 6-27 39t-26 39 6 4 27-13q37-25 69-51l11-9q3-2 6-2t3 3m260-129l-72-4q-44 0-87 4l2 10q0 5-32 41t-65 79-33 64q0 8 6 8t26-14q38-25 70-51l11-9q3-2 6-2t2 3v1q2 0-27 22t-61 44-41 22q-15 0-15-13 0-19 21-52t47-64 48-56 25-32q-55 5-85 12l-10 2q-4 0-4 7 0 3-7 3t-17-3-10-9 10-8q74-13 105-16t41-4 32-1 29 0q23-1 53-1t37 2 6 10q0 5-11 5m128 204q13 0 38-24t55-62q-15 3-28 3-33 0-48-16t-16-43 18-65 46-71 63-56 66-23q34 0 34 36t-28 95-71 117q30-12 64-33t44-27 16-6 9 3 3 6q0 7-16 10t-61 29-72 35q-36 47-69 77t-54 29q-29 0-29-41 0-12 2-34t3-28q0-39-24-39-8 0-18 3-29 43-46 67t-42 53q-46 54-83 54-15 0-15-11 0-23 55-77t107-84q32-48 50-75t46-64 50-60q34-33 57-33 10 0 10 5 0 4-3 5-7 4-11 6-40 27-86 87-30 40-80 114 10-3 19-3t16 4 11 11q5 13 5 30l-7 68q0 28 20 28m90-100q7 0 14-1 44-59 75-121t31-93-26-31q-31 0-69 33t-63 77-26 81q0 55 64 55m-319 135q18 0 47-36t76-108q-44 26-88 72t-44 65q0 7 9 7m535-100l13-10q3-3 6-3t3 4v1q-52 43-86 64t-63 22q-22 0-22-22 0-33 33-67t55-34q13 0 13 14-3 27-79 74v5q0 16 17 16t37-11q39-23 73-53m-74-30q-11 0-28 19t-23 42q24-15 40-31t17-23-6-7m195 30l13-10q3-3 6-3t3 4v1q-52 43-79 60-35 26-59 26-21 0-21-25 0-33 43-99t98-118 81-53q13 0 13 11 0 28-66 91t-129 108q-19 35-19 54t13 18 34-15q36-21 69-50m73-201q-21 0-75 61t-88 121q57-41 112-101t55-76q0-5-4-5m-8 214q-3 0-3-3t3-5q17-13 17-24 0-7-13-8-22 0-54 32t-31 48q0 6 6 6t17-9q10-6 36-30 6-6 11-6 7 0 7 7 0 2-1 4t-6 6-7 9q-9 13-9 17 0 10 8 10 11 0 40-20t53-38l24-19q3-3 6-3t3 4v1q-38 32-81 61t-56 28q-16 0-16-17 0-4 1-7t2-5-1-2q-2 0-20 13t-31 14-13-14 19-38 50-43 62-20q7 0 11 4t5 10-14 22-25 15m16 35q0 8 14 17t26 9 22-1l11-14q-15-26-47-26-11 0-18 3t-8 12m80 43q0-4-1-11-123 176-123 193 0 4 6 4 22 0 50-31t48-76 20-79m143-100v1q-77 64-126 82 2 7 2 14 0 29-16 66t-39 68-50 52-49 21q-14 0-14-11 0-23 123-199-8 1-11 1-25 0-40-11t-15-23 12-20 30-8q33 0 52 21l114-155q0-1-2-1-43 46-76 77t-44 40l-11 9-2-8q38-31 70-64t46-50l14-18q34-43 42-52 13-14 20-14t7 9q0 7-30 50t-46 66q-51 72-64 89l-27 38 2 4q37-14 82-47l36-28q4-3 7-3t3 4m44-69q5 0 8 3t3 8-8 14-13 9-8-4-2-7 8-14 12-9m31 76l11-9q4-2 6-2t2 3v1q2 0-27 22t-61 44-41 22q-15 0-15-12 0-14 25-55t37-40q8 0 8 7t-23 35-23 42q0 7 5 7t27-14q37-25 69-51m126 2l12-10q4-3 7-3t3 4v1q-52 43-87 64t-62 22q-23 0-23-22 0-33 33-67t56-34q12 0 12 14-2 27-79 74v5q0 16 17 16t38-11q39-23 73-53m-74-30q-11 0-29 19t-23 42q24-15 41-31t16-23-5-7m195 30l12-10q4-3 7-3t3 4v1q-52 43-79 60-35 26-59 26-21 0-21-25 0-33 43-99t97-118 82-53q12 0 12 11 0 28-66 91t-129 108q-18 35-18 54t13 18 34-15q35-21 69-50m72-201q-21 0-74 61t-89 121q58-41 113-101t55-76q0-5-5-5m-23 202l16-24q-2-1-3-1-21 0-55 32t-34 45q0 4 4 4 12 0 38-22t34-34m111-10v1q-104 84-126 84-8 0-8-10t7-34q0 0-1 0-57 47-76 47-13 0-13-9 0-21 45-62t72-40q4 0 8 5 11-17 129-185 12-15 20-15t8 5q0 12-86 118-32 40-59 83t-27 66q0 9 6 9 6 0 23-11 34-25 59-45l10-8q3-3 6-3t3 4" />
</svg>