<svg id="fnt-Mrs Sheppards" viewBox="0 0 2776 1000" xmlns="http://www.w3.org/2000/svg"><path id="mrs-sheppards" class="f" d="M29 531q0 4-20 34t-20 34 3 4 18-12 48-42 65-57 80-79 80-85 34-33q15 0 31 26t16 37-20 54l-20 44q0 2 1 2t121-90 134-89q10 0 20 11t9 21-56 79-112 135-56 76q0 2 2 2t12-8 15-8q10 0 10 10t-24 31-63 41-64 20-38-12-10-29q0-28 38-77t67-72q3-2 3-4t-2-1q-5 0-53 43-143 126-162 126-7 0-17-11t-9-17q0-25 48-102 16-25 16-26l-1-1q-1 0-3 1l-48 48q-114 111-142 111-14 0-14-24t26-74 44-50q13 0 13 13m503-51q4 0 7 3t3 8-5 11q-20 24-26 30t-6 8 3 2 27-9 31-8 15 6 8 16-30 44-31 46q0 2 2 2 2 0 9-4t8-3q5 0 5 4 0 16-24 31t-42 16-27-10-10-24 15-35 31-27 17-13q0-2-1-2-22 9-36 9-27 0-27-16 0-19 32-49t52-36m130 113q-21 0-39-9t-17-29q0-26 36-44t75-19q24 0 39 9t14 26-26 31-34 14-8-4 3-5 14-7 16-8 5-5-4-2q-17 0-52 11t-35 20q0 4 20 4 49 0 49 40 0 17-21 31t-43 21-35 6-29-12-16-24 31-18q14-2 37-9t23-14q0-4-3-4m410-89l-105-2q-31 0-51-16t-20-41q0-33 49-67t117-52 117-19q97 0 97 49 0 16-34 60t-51 43q-4 0-7-3t-3-8 12-19 12-19q0-4-11-4-31 0-98 23t-67 37q0 5 11 6t39 2 49 4 34 9 20 12 12 15q7 14 7 27 0 36-50 73t-118 58-123 22q-112 0-112-70 0-33 51-54 17 15 73 15 41-3 75-12t54-21 31-21 12-17q-1-10-22-10m353 139q-18 14-43 26t-41 13-27-10-10-25q0-24 35-64 3-3 3-5t-1-2-8 2-34 23-54 44-38 24-17-10-5-21q0-37 58-113t121-135 80-59q9 0 16 7t8 20-30 54-67 89q-46 58-46 63 0 2 2 2t17-9 32-15 24-9 16-1 19 4 9 12-36 49-36 48 5 6q10 0 41-22 11-8 13-9t5-1q7 0 7 7 0 4-18 17m93-73l24-3q17 0 17 17 0 9-16 20t-34 20-16 15q0 3 8 4 17 0 66-28t53-28q7 0 7 7-1 5-32 25t-73 38-64 18q-34 0-34-36 0-11 14-23t28-22 15-11-7-5q-21-9-21-24 0-28 46-54t87-25q22 0 37 8t14 25-23 32-33 14q-4 0-8-2t-3-4 14-9 14-10q0-3-8-3t-47 16-40 22q0 6 15 6m-31 244q0-24 23-69t58-91q72-99 125-161l23-28q8-7 15-7t11 6 4 9-6 19-14 33-9 21 0 4 3 2 16-11q38-33 58-33 35 0 35 36-2 18-22 48t-51 53-55 25q-11 0-19-6t-12-11-6-5-3 2-97 160q-25 40-49 40-12 0-20-12t-8-24m283-272q-13 0-53 39t-40 49q0 1 2 1 19 0 57-36t38-50q0-3-4-3m-77 272q0-24 24-69t57-91q72-99 125-161l24-28q7-7 15-7t11 6 3 9-6 19-13 33-9 21-1 4 3 2 16-11q39-33 58-33 36 0 36 36-3 18-23 48t-50 53-56 25q-11 0-19-6t-12-11-5-5-3 2-97 160q-25 40-49 40-13 0-21-12t-8-24m283-272q-12 0-53 39t-40 49q0 1 2 1 19 0 57-36t38-50q0-3-4-3m173 105q0 2 4 3 3 0 24-14t23-16 6-1q7 0 7 6t-36 30-49 23q-6 0-13-5t-7-12 4-14 3-11-1-3-3 1q-49 37-72 37-13 0-20-10t-9-19l-1-9q0-17 12-39t34-41 51-33 62-14q17 0 31 9t15 21-23 15q-18 4-58 28t-40 38q0 6 5 6 10 0 47-29t45-28 8 9q0 6-5 12t-7 8q-4 5-20 22t-17 30m163-167q3 0 6 3t3 8-5 11q-19 24-26 30t-6 8 3 2 27-9 31-8 16 6 8 16-31 44-30 46q0 2 1 2 3 0 9-4t8-3q6 0 6 4 0 16-25 31t-41 16-27-10-11-24 15-35 32-27 16-13q0-2 0-2-22 9-36 9-28 0-28-16 0-19 32-49t53-36m141 163l3-10q0-2-2-2t-26 13-38 13-22-10-8-21q0-32 28-64t64-49 62-17q17 0 25 4t10 4h1q1 0 1-1 44-54 107-117t83-62q8 1 14 13t8 26q-3 11-84 93t-90 97-52 72-47 62-13 5-17-10-10-19 3-20m52-94q-11 0-38 25t-27 32q0 5 4 5 13 0 40-26t26-32q0-4-5-4m161 44q-21 0-38-9t-17-29q0-26 36-44t74-19q24 0 39 9t15 26-26 31-34 14-9-4 3-5 15-7 16-8 5-5-5-2q-16 0-52 11t-35 20q0 4 20 4 50 0 50 40 0 17-21 31t-43 21-36 6-29-12-16-24 32-18q14-2 37-9t23-14q0-4-4-4" />
</svg>