<svg id="fnt-Ms Madi" viewBox="0 0 1702 1000" xmlns="http://www.w3.org/2000/svg"><path id="ms-madi" class="f" d="M447 717q-3 0-4-1-15-6-20-15t-5-24q0-8 1-17t3-17q11-65 39-128t67-118q2-4 2-8 0-3-3-5t-6-1q-9 0-17 5t-14 10q-25 21-49 50t-44 54q-17 22-34 45t-32 47q-6 10-13 22t-14 22q-2 5-8 5-3 0-6-3t-2-5q0-1 0-1t0-1q17-49 33-98t32-98q2-5 3-9t1-9q0-6-3-10t-9-5q-6 0-12 3t-10 6q-8 6-15 12t-15 14q-27 26-52 55t-44 62q-18 31-36 63t-35 64q-3 1-7 1-3 0-6-1t-4-4v-2q12-31 28-62t32-59q7-13 17-32t23-42 23-46 18-43 7-33q0-15-10-21t-26-7q-15 0-34 5t-37 11-31 14q-18 9-39 24t-38 34-30 39-11 41q0 15 9 24t28 10q12 0 19-4t12-4 6 2 2 6q0 4-8 7t-17 5-14 2q-26 0-39-14t-13-35q0-15 5-30t14-27q12-18 30-35t39-33 41-25q22-11 52-20t56-8q21 0 35 8t15 29q0 13-6 31t-14 38-18 37-15 30l3 1q6-7 16-20t25-28 29-29 29-21 26-9q14 0 19 11t6 21q0 5-1 10t-2 10q-2 10-6 20t-7 20l-27 82 3 1q18-28 42-60t52-62 52-53q9-8 21-15t26-7q10 0 17 5t6 14q0 5-2 10t-5 9q-24 35-45 75t-36 84-23 83q-1 7-2 14t-1 15q0 11 2 17t7 8 6 4 3 6q0 7-6 7m67-45q-24 0-37-10t-13-21q0-8 6-15t23-6q10 0 24 3 11 3 22 7t25 3q3-5 4-9t0-8q0-17-5-28t-12-21-11-26q-7 11-17 29t-33 48q-1 3-6 3-7 0-7-7 0-1 2-4t10-16q9-14 21-33t23-40q1-8 4-16t7-15q5-9 11-13t11-4q10 0 10 11 0 7-6 19-4 8-9 13t-10 9q1 13 6 23t11 19 11 21 5 26q0 10-4 19 11 0 23-9t22-22 20-29q2-3 6-3 3 0 5 1t3 5q0 2-2 5-14 26-28 40t-26 20-30 7q-13 11-27 17t-32 7m-2-12q11 0 20-4t18-10q-10-1-17-4t-18-4q-14-3-22-3-15 0-15 7 0 5 10 11t24 7m667 57q-3 0-4-1-15-6-20-15t-5-24q0-8 1-17t3-17q11-65 39-128t67-118q2-4 2-8 0-3-3-5t-6-1q-9 0-17 5t-14 10q-25 21-49 50t-44 54q-17 22-34 45t-32 47q-6 10-13 22t-14 22q-2 5-8 5-3 0-6-3t-2-5q0-1 0-1t0-1q17-49 33-98t32-98q2-5 3-9t1-9q0-6-3-10t-9-5q-6 0-12 3t-10 6q-8 6-15 12t-15 14q-27 26-52 55t-44 62q-18 31-36 63t-35 64q-3 1-7 1-3 0-6-1t-4-4v-2q12-31 28-62t32-59q7-13 17-32t23-42 23-46 18-43 7-33q0-15-10-21t-26-7q-15 0-34 5t-37 11-31 14q-18 9-39 24t-38 34-30 39-11 41q0 15 9 24t28 10q12 0 19-4t12-4 6 2 2 6q0 4-8 7t-17 5-14 2q-26 0-39-14t-13-35q0-15 5-30t14-27q12-18 30-35t39-33 41-25q22-11 52-20t56-8q21 0 35 8t15 29q0 13-6 31t-14 38-18 37-15 30l3 1q6-7 16-20t25-28 29-29 29-21 26-9q14 0 19 11t6 21q0 5-1 10t-2 10q-2 10-6 20t-7 20l-27 82 3 1q18-28 42-60t52-62 52-53q9-8 21-15t26-7q10 0 17 5t6 14q0 5-2 10t-5 9q-24 35-45 75t-36 84-23 83q-1 7-2 14t-1 15q0 11 2 17t7 8 6 4 3 6q0 7-6 7m64-48q-16 0-23-9t-6-21q0-12 4-25t9-25 8-16q9-16 20-30t24-26q13-11 27-18t28-6q24 0 34 13t10 27q0 5-2 11-2 7-5 13t-6 5q-4 0-7-3t-2-7 3-7 2-7q1-3 1-5t0-4q0-13-9-19t-18-5q-12 0-24 7t-21 15q-11 11-22 25t-19 30q-1 2-6 12t-8 21-3 22q0 7 3 12t11 5q9 0 20-8t23-20 21-23 14-17q3-4 6-9t6-8q1-2 6-2 4 0 8 2t3 6q-2 4-7 15t-10 26-4 24q0 13 8 15 5 1 11-4t12-11 8-10q10-14 19-29t19-27q3-4 7-4 7 0 7 7 0 3-6 13t-16 23-17 24-18 20-26 10q-14 0-20-6t-5-15q0-7 2-15t3-13l-2-1q-5 5-14 14t-20 17-22 15-19 6m175 5q-16 0-23-11t-6-23q0-15 6-33t17-38 26-35 31-26 36-10q11 0 17 4t13 11q11-17 24-41t26-49 25-43q5-8 10-11t11-3q4 0 6 2t3 8q0 4-7 15t-16 27-21 32-22 33-17 26q-5 8-13 24t-18 36-15 38-6 30q0 7 3 11t7 5q6 0 12-5t11-10 7-8q2-3 9-13t16-23 14-19q2-4 7-4 6 0 6 7 0 1-2 4t-5 9q-24 37-41 56t-36 20q-1 0-3 0t-3-1q-10-2-14-11t-4-18q0-5 1-10t3-14q-10 11-21 24t-23 24-20 12q-5 1-11 1m2-15q8 0 18-8t21-20 20-25 17-25 11-17l19-38q-4-5-9-9t-13-4q-15 0-30 9t-27 24-21 32-14 33-5 29q0 5 2 12t11 7m241-196q-3 0-6-1t-3-5q0-2 2-4 4-8 14-13t17-6q2 0 5 1t3 5q0 9-10 16t-22 7m-56 204q-17 0-27-9t-10-27q0-10 2-20t5-19q2-5 8-18t15-27 17-24 14-10q2 0 6 1t5 6q0 2-2 5-12 13-24 31t-21 37-9 38q0 23 22 23 15 0 30-15t34-39q6-7 10-14t8-11q3-4 7-4 6 0 6 5 0 5-8 17t-18 25q-19 24-34 37t-36 12" />
</svg>