<svg id="fnt-Mukta Malar" viewBox="0 0 2669 1000" xmlns="http://www.w3.org/2000/svg"><path id="mukta-malar" class="f" d="M32 667l27-315h60l66 201q5 14 9 28t9 28h1q4-14 8-27t10-29l64-201h60l28 315h-46l-13-167q-2-25-3-49t-2-49h-1q-7 24-15 49t-15 49l-55 167h-42l-56-168q-8-25-15-49t-14-48h-1q-1 24-3 49t-4 49l-12 167h-45m560-63v-172h44v235h-34l-6-30h-2q-13 15-33 24t-44 10q-37 0-60-21t-22-62v-156h44v150q0 15 3 26t10 16 15 9 19 3q20 0 36-8t30-24m180-47l-24 24v86h-43v-355h43v221l95-101h54l-96 99 101 136h-52l-78-110m294-125v33h-69v136q0 18 9 24t23 6q10 0 22-3t21-5l7 34q-10 4-26 7t-32 3q-35 0-51-16t-16-44v-142h-35v-33h35v-75h43v75h69m78 53l-17-32q12-6 23-11t21-8 21-4 24-2q20 0 36 4t28 15 18 26 7 41v153h-37l-5-26h-1q-16 16-34 23t-41 7q-17 0-32-5t-24-13-17-21-5-28q0-37 29-57t77-19h45v-20q0-25-13-35t-35-9q-13 0-30 4t-38 17m117 121v-48l-37 1q-38 1-54 13t-15 30q0 11 3 18t9 11 14 6 16 2q17 0 34-8t30-25m246 61l27-315h60l66 201q5 14 9 28t9 28h1q4-14 8-27t10-29l64-201h60l28 315h-46l-13-167q-2-25-3-49t-2-49h-1q-7 24-15 49t-15 49l-55 167h-42l-56-168q-8-25-15-49t-14-48h-1q-1 24-3 49t-4 49l-12 167h-45m427-182l-17-32q12-6 23-11t21-8 21-4 24-2q20 0 36 4t28 15 18 26 7 41v153h-37l-5-26h-1q-16 16-34 23t-41 7q-17 0-32-5t-24-13-17-21-5-28q0-37 29-57t77-19h45v-20q0-25-13-35t-35-9q-13 0-30 4t-38 17m117 121v-48l-37 1q-38 1-54 13t-15 30q0 11 3 18t9 11 14 6 16 2q17 0 34-8t30-25m153 61h-43v-355h43v355m90-182l-17-32q12-6 22-11t21-8 22-4 24-2q19 0 35 4t28 15 19 26 6 41v153h-36l-6-26h-1q-15 16-34 23t-41 7q-17 0-31-5t-25-13-16-21-6-28q0-37 29-57t78-19h45v-20q0-25-13-35t-35-9q-13 0-30 4t-38 17m116 121v-48l-37 1q-37 1-53 13t-16 30q0 11 4 18t9 11 13 6 17 2q16 0 33-8t30-25m151 61h-43v-235h33l7 47q9-23 28-37t45-14q13 0 22 2t15 5l-8 39q-6-3-14-5t-17-2q-14 0-27 5t-21 15-15 24-5 34v122" />
</svg>