<svg id="fnt-Murecho" viewBox="0 0 1934 1000" xmlns="http://www.w3.org/2000/svg"><path id="murecho" class="f" d="M36 667l16-364h58l56 166 43 136h1l43-136 56-166h58l15 364h-44l-5-152-5-148h-1l-100 300h-38l-97-300h-1l-6 148-6 152h-43m501 5q-28 0-47-13t-28-36-9-58v-158h45v156q0 35 13 54t43 19q15 0 28-6t23-15 18-17v-191h45v187q0 22 0 39t1 34h-32l-10-40h-1q-9 11-22 21t-31 17-36 7m246-5h-45v-187q0-23 0-40t-1-33l39-2 4 46h1q14-22 35-36t54-13v40q-29-2-51 8t-36 33v184m244 5q-42 0-71-17t-42-48-14-69q0-29 8-54t23-43 38-29 50-11q30 0 50 11t33 30 16 45 1 57h-194l23-17q-6 33 2 57t28 39 55 15q21 0 40-5t31-9l5 32q-15 6-37 11t-45 5m-82-141l-19-13h153q1-2 1-4t0-4q0-23-7-41t-21-26-34-10q-25 0-42 14t-24 36-7 48m344 141q-40 0-69-16t-44-47-16-72q0-40 16-71t45-47 71-17q17 0 36 3t34 11l-5 33q-12-5-29-9t-34-3q-29 0-49 12t-29 36-10 51q0 31 11 54t32 34 48 12q20 0 37-4t27-8l5 33q-13 6-35 10t-42 5m128-5l-1-374 45-2v153h1q11-11 23-21t29-16 35-6q17 0 32 6t27 19 18 32 7 49v160h-45v-158q0-20-5-34t-12-22-18-12-21-3q-15 0-29 6t-24 14-18 17v192h-44m393 5q-25 0-47-9t-40-25-26-43-9-58 9-59 26-42 40-26 47-9q26 0 48 9t39 26 27 42 9 59-9 58-27 43-39 25-48 9m0-34q20 0 34-7t24-22 14-32 5-40-5-40-14-33-24-21-34-8-34 8-24 21-14 33-4 40 4 40 14 32 24 22 34 7" />
</svg>