<svg id="fnt-MuseoModerno" viewBox="0 0 3949 1000" xmlns="http://www.w3.org/2000/svg"><path id="museomoderno" class="f" d="M273 673q-27 0-49-13t-34-34-12-51v-174q0-13-6-24t-18-18-24-6-24 6-17 18-6 24v266h-48v-259q0-28 12-50t34-35 49-12q29 0 50 12t34 35 12 50v174q0 14 6 24t17 18 24 6 23-6 16-18 7-24v-174q0-28 12-50t34-35 50-12q28 0 49 12t34 35 12 50v259h-48v-266q0-13-7-24t-17-18-23-6q-14 0-25 6t-17 18-6 24v174q0 29-13 51t-33 34-48 13m428 0q-35 0-62-15t-43-39-15-60v-147h47v147q0 23 10 39t26 26 36 9q20 0 36-9t27-26 11-39v-147h46v147q0 34-15 60t-43 39-61 15m316-6h-127v-40h122q12 0 20-5t14-14 4-18q0-9-4-17t-12-12-20-5h-51q-25 0-43-8t-29-24-10-39q0-20 10-36t26-27 39-10h118v39h-113q-16 0-25 10t-9 22q0 13 9 22t27 9h49q27 0 46 9t28 25 10 41q0 20-10 38t-28 29-41 11m335 0h-66q-42 0-74-16t-51-45-18-67q0-38 15-68t43-48 64-17q40 0 66 17t39 45 13 65q0 5 0 11t-1 11h-190q2 23 15 39t33 25 45 8h67v40m-161-145h146q0-9-2-20t-7-21-14-19-20-13-29-5q-17 0-31 7t-22 18-15 25-6 28m371 151q-39 0-69-18t-48-48-17-68 17-68 48-48 69-17 69 17 47 48 18 68q0 38-18 68t-47 48-69 18m0-40q26 0 46-12t30-34 11-48-11-48-30-33-46-13q-26 0-46 13t-31 33-11 48 11 48 31 34 46 12m429 40q-27 0-49-13t-34-34-12-51v-174q0-13-6-24t-18-18-24-6-24 6-17 18-6 24v266h-48v-259q0-28 12-50t34-35 49-12q29 0 50 12t34 35 12 50v174q0 14 6 24t17 18 24 6 23-6 16-18 7-24v-174q0-28 12-50t34-35 50-12q28 0 49 12t34 35 12 50v259h-48v-266q0-13-7-24t-17-18-23-6q-14 0-25 6t-17 18-6 24v174q0 29-13 51t-33 34-48 13m428 0q-39 0-69-18t-47-48-18-68 18-68 47-48 69-17 69 17 48 48 17 68q0 38-17 68t-48 48-69 18m0-40q27 0 46-12t31-34 11-48-11-48-31-33-46-13q-26 0-46 13t-30 33-11 48 11 48 30 34 46 12m311 40q-29 0-53-10t-42-27-27-43-10-57q0-40 16-69t45-45 63-16q20 0 37 6t32 18 22 27h1v-155h46v236q0 42-17 72t-47 47-66 16m0-40q23 0 42-11t30-33 12-49q0-29-12-51t-30-32-43-12q-23 0-43 12t-30 33-11 49q0 29 11 50t31 33 43 11m397 34h-66q-42 0-74-16t-51-45-18-67q0-38 15-68t43-48 64-17q40 0 66 17t39 45 13 65q0 5 0 11t-1 11h-190q2 23 15 39t33 25 45 8h67v40m-161-145h146q0-9-2-20t-7-21-14-19-20-13-29-5q-17 0-31 7t-22 18-15 25-6 28m295 145h-46v-183q0-34 19-53t54-19h52v39h-44q-16 0-26 10t-9 26v180m168 0h-46v-148q0-34 15-59t42-40 62-14q35 0 61 14t42 40 16 59v148h-46v-147q0-23-11-40t-27-26-35-9-36 9-27 26-10 40v147m385 6q-39 0-69-18t-48-48-17-68 17-68 48-48 69-17 69 17 47 48 18 68q0 38-18 68t-47 48-69 18m0-40q26 0 46-12t30-34 11-48-11-48-30-33-46-13q-26 0-46 13t-31 33-11 48 11 48 31 34 46 12" />
</svg>