<svg id="fnt-My Soul" viewBox="0 0 2134 1000" xmlns="http://www.w3.org/2000/svg"><path id="my-soul" class="f" d="M103 743q-18 0-36-4t-33-14-24-24-9-35q0-13 5-30t16-25q2-2 4-2 1 0 1 1 0 2-6 9t-5 18v5q4 29 22 47t44 27 52 9q13 0 27-2t26-7q35-15 70-46t67-71 61-85 53-86 43-75q-33-10-67-21t-68-18-71-7q-30 0-62 7t-59 24-44 42-17 61q0 9 1 20t5 23 12 18 20 7q1 0 2 0t1 2-3 2-3 1q-11 0-22-5-18-8-29-23t-10-35q0-36 16-62t43-46 58-31 65-17 62-5q47 0 93 11t92 25q4-9 14-10t18-1q10 0 13-5t7-4q3 0 3 3 0 1-4 6t-8 11-6 8h1q0 0 0 0t0 1q6 1 12 2t12 1q7 0 11-2t5-2 2 1q0 2-2 3t-2 3q-12 9-21 14t-24 6q-7 26-13 53t-12 54q-4 20-8 40t-3 41q0 6 1 16t6 17 14 7q11 0 26-10t32-26 30-29 22-23q37-37 72-77t66-82q3-5 10-15t14-18 13-8q2 0 9 2t13 6 6 6q0 1 0 1t0 1l-20 22q-8 10-16 20t-15 20q-33 47-60 98t-49 104q-2 5-5 13t-3 13q0 7 6 7 4 0 10-4t9-6q18-12 35-23t37-19q1 0 5-1t4-2q2 0 2 2t1 2q-12 6-29 16t-33 22-31 25-22 24q-2 4-4 7t-4 7q-3 7-9 8t-13 2q-2 0-9-1t-14-3-6-4q0-3 1-8t3-11 3-8q10-28 25-56t32-55 34-51q6-10 13-20t13-20q4-7 4-13 0-1 0-3t-1-1q-2 0-4 3-10 11-27 31t-39 42-45 45-46 42-42 31-34 11q-12 0-18-8t-8-21-2-21q0-24 5-54t12-59 14-54q-22 34-46 72t-51 75-58 71-66 60-75 42-86 15m229-174q-1 0-1-1t0-2q0-3 0-6t2-5q6-22 10-47t4-47q0-4-1-11t-3-13-8-6q-5 0-6 4t-4 4q-2 0-2-2 0-1 1-3 5-9 13-18t20-8q9 0 13 6t5 14 2 15q0 29-12 59t-24 55q0 2-4 7t-5 5m355 234q-11 0-24-4t-21-12-8-22q0-4 2-12t6-15 9-7q3 0 3 4 0 11 3 23t11 22q12 13 28 13 18 0 38-14t42-36 43-50 39-56 32-51 21-39q-6 8-15 14t-15 13q-28 21-58 44t-59 41q-5 3-13 5t-13 3q-10 0-10-9 0-5 1-10t4-8q13-27 31-52t37-47q1-1 1-2t-2-1-3-1q-2 0-6 1-9 3-19 5t-20 3q-1 0-3 0t-1-3 2-3 3-2q10-3 20-6t21-6q15-6 29-13t29-14q1 0 2-1t2 0q3 0 3 3 0 2-1 4t-3 3q-21 19-41 43t-32 51q-2 4-5 11t-3 11 5 5q6 0 20-8t30-20 33-27 30-25 19-16q4-4 9-12t6-13q0-2-1-3t-1-1q0 0 2-1t2-1q2-2 10-5t15-7 11-2q2 0 2 2 0 4-5 14t-11 22-13 23-8 14q-15 27-33 59t-40 64-47 58-56 43-66 16m583-111q-29 0-54-6t-40-19-20-32q-1-2-1-5t0-6q0-20 16-40t51-33 90-13q9 0 25 1t33 5 32 9 19 14q1 1 1 2 0 4-4 4-2 0-3-2-9-12-31-16t-46-4q-15 0-28 1t-22 2q-38 5-60 16t-32 24-10 27q0 2 0 4t1 5q5 26 31 37t62 12q27 0 57-7t58-17 51-27 36-35 14-41q0-24-25-41t-73-33q-14-5-30-11t-32-15-24-21-10-31q0-19 12-35t27-27q-20-4-41-6t-43-2q-18 0-37 2t-36 7q-16 4-27 14t-10 27q0 17 10 32t23 26q10 7 26 13t33 11 29 5q2 0 3-1t4 0 1 2q0 3-8 4t-16 3-11 1q-18 0-37-6t-34-18-25-27-9-36q0-26 13-42t36-25 45-12 43-3q26 0 52 3t50 11q12-4 29-6t38-3q22 0 45 4t40 12 27 22q3 6 3 12 0 8-6 15t-17 6q-9 0-19-2t-18-5q-34-9-69-18t-69-17q-11 8-19 19t-9 25q0 13 9 24t19 19q15 10 37 18t47 14 45 18 35 25 13 40q0 26-16 48t-45 41-63 32-72 20-70 8m257-329q13 0 13-6 0-4-6-10t-17-11-21-9q-28-7-56-7-24 0-47 6 13 4 31 10t39 13 38 11q9 2 15 2t11 1m-195 162q-1 0-2 0-8-3-15-10t-7-17q0-7 5-11t13-5 13-2q14 0 29 5t28 9q1 1 5 3t3 3q0 1-1 1t-3 1q-6 0-12-1t-13-1q-3 0-11 0t-17 2-15 4-6 8q0 6 3 7t4 4q0 0-1 0m223 144q-3 0-12-2t-8-6 4-15 5-15q4-11 12-30t18-39 20-38 18-24q7-7 14-9t17-1q16 0 32 2t32 2q5 0 8-4t4-8q0-1-1-3t0-3q0-1 4-1 9 0 13 6t7 14 2 17q0 10-3 22t-7 21q-7 14-23 30t-35 31-42 27-42 19-37 7m33-24q5 0 10-1t10-3q48-17 78-56 7-10 14-26t6-29q0-15-10-23t-24-7q-7 0-13 2-8 3-19 15t-21 28-19 35-15 33-5 25q0 7 8 7m273 23q-2 0-9-1t-13-3-7-4q0-3 6-15t17-26 20-30 19-27 12-16q-15 13-31 26t-32 25q-21 16-42 32t-44 30q-5 3-12 5t-13 3q-11 0-11-9 0-5 2-10t4-8q13-27 30-52t38-47q0-1 0-1t0-1q0-1-2-1t-3-1q-7 0-20 5t-25 4q-1 0-3 0t-1-3 2-3 4-2q10-3 20-6t20-6q15-6 29-13t29-14q2-1 4-1 4 0 4 3 0 2-2 4t-2 3q-22 19-41 43t-32 51q-2 4-5 11t-3 11 5 5q6 0 19-8t30-20 33-26 30-25 19-17q4-4 9-12t6-13q0-2-1-3t0-1q0-1 5-3t12-6 14-5 8-2 2 2q0 4-6 15t-12 21-10 14q-3 5-9 16t-13 25-12 25-5 16q0 1 1 1t2-1 2-1q17-15 40-30t44-24q1 0 5-2t5-2q3 0 4 4-13 5-30 16t-33 23-31 26-19 27q-2 6-9 7t-12 2m110 0q-1 0-8-1t-12-3-6-4q0-7 6-20t17-29 22-31 20-29 15-20q6-10 17-27t21-34 19-35 11-27q0-1 0-3 0-5-2-6t-2-3q0-1 5-3t13-6 13-5 8-2q3 0 4 4t1 6q0 9-4 18t-9 16q-18 29-38 56t-39 55-34 58q-2 4-5 10t-2 10 3 5q3 0 7-3t6-4q18-13 36-25t39-20q1 0 4-2t3-1q3 0 3 4-11 5-26 14t-31 20-28 23-20 22q-2 3-4 6t-3 7q-2 6-8 7t-12 2" />
</svg>