<svg id="fnt-Mynerve" viewBox="0 0 1824 1000" xmlns="http://www.w3.org/2000/svg"><path id="mynerve" class="f" d="M408 667q-10 0-14-6t-6-11q-10-37-19-75t-18-74q-8-28-17-55t-19-53q-8-20-18-21t-24 17q-20 26-29 57t-18 61q-3 10-8 22t-14 15q-14 5-23-6t-15-22q-14-30-29-59t-31-58q-3-6-9-15t-17-20q0 26 1 55t-2 55q-2 36-7 72t-10 72q-1 10-7 16t-17 4q-10-2-12-10t1-19q26-110 22-223 0-10-1-19t-1-19q1-7 4-17t5-10q10 0 21 2t16 8q18 22 33 46t31 49q9 16 16 33t16 34l6-2q5-16 10-33t11-33q7-17 16-33t19-32q16-24 39-25t40 23q23 31 36 66t19 74q6 35 14 70t14 71q1 7 0 15t-5 13m135 161q-6-3-8-12t0-13q4-14 7-30t5-30q5-27 9-46t8-38 9-46q2-11 5-23t4-28q-26-2-44-12t-32-26-27-32q-4-6-8-12t-8-11q-5-5-10-9t-9-8q-8-11-5-19t11-14q15-2 23 8 5 7 11 14t9 17q8 15 18 28t22 24q14 14 31 20 9 1 14-4t9-10q5-7 7-15t5-15q1-11 3-21t5-21 10-10 17 9q3 16 3 33t-5 35q-15 50-27 102t-23 103q-4 15-5 23t-2 15-3 24q-2 9-3 18t-4 19q-1 6-8 10t-14 3m333-136q-6 2-10-4t-6-14-3-15q-6-24-12-47t-11-46q-6-23-13-28t-14 3-13 19q-7 13-12 27t-12 28q-4 10-9 19t-11 19q-4 7-10 10t-14 3q-9-1-14-7t-7-14q-2-8-4-16t-2-16q-4-23-6-45t-6-46q0-7 2-12t9-7q1-1 3-1t2 0q7 0 12 5t7 12q3 13 4 27t2 28q2 10 6 29 5-7 7-12t5-8q5-11 10-22t11-21q6-9 12-16t13-14q13-9 25-9 18 0 31 17 6 6 9 13t7 15q10 30 16 60t9 62q1 10-3 17t-10 7m186-21q-19 0-33-2t-31-12q-19-12-33-32t-18-40q0-22 0-35t5-24 11-21q17-31 44-51t57-20q10 0 17 4 21 3 29 19t0 34q-10 19-27 32t-41 26-59 30q4 30 29 46t67 12q18-1 33-5t24-2 9 17q0 6-9 11t-24 7-27 4-23 2m-80-127q32-11 58-27t36-45q-5-1-9-1t-8 0q-47 0-77 73m226 122q-13 0-20-7t-8-17q0-7-1-14t0-13v-19q0-6 0-10t1-10 1-17-1-33q0-8 0-15t1-15q0-5-1-10t2-10 11-3q10 0 16 8t7 23q0 2 0 10t0 18 2 11q-1-3 0-10t5-13 3-8q16-35 43-56t63-31q12-3 18 1t5 15q0 8-12 13-17 7-33 16t-30 20q-9 7-15 18t-11 21q-10 26-19 53t-11 55q0 10-5 20t-11 9m293 11q-6 0-12-4t-8-10q-9-18-19-41t-19-40q-9-19-18-38t-24-34q-4-5-6-14t2-17 11-10q7-2 16 4t14 15q12 22 22 43t21 43q3 6 6 12t9 14q13-15 17-30t10-29q5-15 10-30t10-28q4-10 11-20t16-12 18 6q4 5 4 10l-6 10q-17 32-27 59t-18 58q-4 17-8 36t-12 34q-9 13-20 13m238-6q-18 0-32-2t-32-12q-18-12-33-32t-17-40q-1-22 0-35t4-24 11-21q18-31 44-51t58-20q9 0 16 4 22 3 29 19t0 34q-9 19-26 32t-41 26-59 30q3 30 29 46t66 12q19-1 34-5t24-2 9 17q0 6-10 11t-23 7-28 4-23 2m-80-127q33-11 58-27t37-45q-5-1-10-1t-8 0q-46 0-77 73" />
</svg>