<svg id="fnt-Nanum Pen Script" viewBox="0 0 3086 1000" xmlns="http://www.w3.org/2000/svg"><path id="nanum-pen-script" class="f" d="M213 400q-4 42-9 86t-12 84q-2 9-6 13t-10 6q-5 1-15-4t-16-13q-9-11-19-25t-21-28-23-28-26-26q-1 33-2 65t0 65q0 4-8 4-10 0-16-10t-7-19q-1-10-1-29t0-39 2-40 2-30q1-12 6-17t9-5q10 1 13 5t4 12q18 13 33 28t28 31 24 30 20 28q6-30 10-67t8-77q-1-5 6-10t12-4q14 1 14 14m163 19q2 14 3 30t2 32 1 31 0 27q16 11 19 19t1 15q-3 9-11 9t-18-5q-7 5-16 11t-19 11-20 9-18 6q-16 2-29-6t-17-26q-3-11-2-24t8-23 16-20 24-14q4-2 10-3t13-1 14 3 13 9q0-9-1-19t0-21-2-20-1-15q-1-8-6-10t-12 1q-12 4-28 16t-30 24q-5 5-11 4t-9-4-5-10 4-11q9-9 19-18t22-18 24-12 24-6q17 0 27 8t11 21m-58 108q-6 1-14 6t-13 11-8 15 0 17q1 3 4 4t7 1q12-3 27-10t25-16q0-3-3-8t-7-9-9-8-9-3m145-88q1 8 3 17t4 19 3 20 3 19q6-13 13-28t15-27 17-20 21-8q16 0 27 12t19 30 13 37 7 35q3 13-12 20-7 3-10 1t-4-5q-3-6-7-21t-8-31-11-27-13-10q-9 0-16 13-6 11-13 23t-12 26-12 27-10 24q-4 4-9 5t-11-1q-5-1-8-5t-3-7q-4-39-9-71t-12-65q-4-12-2-19t15-5q18 3 22 22m223 17q-3 14-6 30t-5 31 0 27 7 17q8 2 19-7t22-22 19-30 12-27q2-6 3-13t2-13q0-4 5-8t9-4q2-1 5 1t6 4 5 6 3 8q1 15 3 33t4 36 6 35 6 31q2 5-3 12t-10 9q-4 1-9-1t-7-8q-3-7-5-18t-4-21-3-22-2-17q-8 14-18 27t-22 25-25 18-26 5q-20-3-30-38-4-14-4-31t2-34 6-31 6-25q1-4 4-7t7-2q7 1 13 9t5 15m192-13q0 8 1 19t3 25 3 25 4 23q5-11 13-27t17-31 18-25 17-10q8 0 14 8t12 19 9 23 6 22q2-6 5-15t7-17 9-17 10-15q7-7 14-10t11-3q5 0 11 2t13 8 12 10 9 13q7 14 11 30t7 30 2 26 2 16q0 6-2 9t-5 6q-6 2-10 1t-6-3-4-6-2-5q-2-12-4-24t-3-23-5-21-6-17q-1-2-3-6t-5-6-5-5-4-2q-5 0-10 9t-11 22-9 27-6 25q0 13-5 19t-11 6-12-4-8-10q-3-8-6-18t-8-20-7-21-7-18q-7 10-14 21t-13 24-12 23-11 21q-3 6-7 10t-10 4q-4 0-8-4t-9-9-7-12-5-14q-4-22-7-48t-5-50q0-8 2-16t11-9q9-2 13 2t6 13m503 162q-1 6-4 10t-8 5q-8-1-15-7t-6-10q1-43-3-89t-10-90q0-2 1-4 1-2 3-5t5-5q3-2 7 0t9 6 7 9 4 10q2 10 3 22t3 25q12-7 23-15t19-17 13-20 3-21q-1-9-8-16t-20-10q-31-7-55-1t-47 21q-7 5-12 6t-10-1-6-4-2-6q1-12 11-21t22-16q15-7 37-12t44-4 42 11 30 30q10 25 4 45t-18 37-32 30-35 25q1 22 1 43t0 39m241-118q-19 11-42 17t-48 7q1 17 10 27t22 13q8 1 16-1t16-5 13-7 11-8 9-5 8 0q7 2 5 15-8 16-23 27t-34 14q-16 3-33-1t-30-18q-12-11-18-27t-7-32q-2-15 2-29t14-25 22-18 32-8q21-1 39 8t24 27q4 9 2 16t-10 13m-57-34q-5 1-11 3t-11 6-8 9-4 11q8 0 18-2t20-4 18-5 14-6q-4-10-15-12t-21 0m144-14q1 8 3 17t4 19 3 20 3 19q6-13 13-28t15-27 17-20 21-8q16 0 27 12t19 30 13 37 7 35q3 13-12 20-7 3-10 1t-4-5q-3-6-7-21t-8-31-11-27-13-10q-9 0-16 13-6 11-13 23t-12 26-12 27-10 24q-4 4-9 5t-11-1q-5-1-8-5t-3-7q-4-39-9-71t-12-65q-4-12-2-19t15-5q18 3 22 22m451-48q-2 3-8 4t-10-3q-4-3-10-6t-12-6-13-5-12-2q-8 0-16 3t-14 10q-12 13-9 24t18 22q9 7 19 13t21 14 19 12 17 11q9 6 17 13t14 15 9 20 4 25q-4 28-22 44t-42 21q-21 4-42-2t-34-21q-3-4-6-11t0-10q3-4 10-6t12 1q11 10 27 15t32 1q13-3 21-12t10-18q3-11-3-23t-18-21q-21-16-44-29t-47-31q-12-10-17-22t-5-24q0-12 5-23t14-19 21-14 26-7q20-1 39 8t30 23q2 3 2 8t-3 8m183 85q-3 2-8 1t-9-6q-8-11-19-11-11 0-19 5t-15 12-10 18-5 19q-3 17 6 29t26 12q15 1 33-6t34-16q7-3 13-3t10 6q5 8-2 16t-20 15q-13 7-27 12t-27 7-28 1-26-10q-19-13-23-37t4-49q3-10 8-20t13-17 18-14 21-8q18-3 35 4t23 25q1 4 0 8t-6 7m216-44q-9 5-19 10t-20 13-18 17-16 23q-10 19-13 39t-5 39q0 9-4 18t-12 9q-9 0-15-10t-8-18q-8-36-14-71t-9-69q0-7 4-9t10-1q6 0 11 3t7 8q2 18 5 38t6 35q2-17 11-33t22-29 30-22 34-12q8-1 13 0t7 4 0 8-7 10m114-32q-1 5-7 6t-10 0q-13 1-26 3t-28 6q-6 2-13-2t-8-14q0-4 3-6t7-5q6-3 15-5t18-3 18-1 14 2q8 2 13 7t4 12m-12 167q4 8 4 17t-5 13q-7 4-15-1t-12-13q-6-11-9-26t-4-30-2-28 0-20q0-7 4-13t9-7q9 1 14 8t5 20q0 9 1 20t2 22 3 21 5 17m134 92q-1 5-5 10t-10 4q-9 0-13-6t-5-10q0-19-1-40t-2-43q-7 1-12-1t-7-7q-4-9 1-15t14-13q-2-18-5-36t-4-35q-1-3 0-6t3-5 5-4q7-2 15 4t11 17q2 9 3 21t4 27q10-6 19-14t16-16 11-18 2-19q-1-8-8-15t-20-7q-13-1-25 2t-24 6-23 10-22 11q-7 4-14 3t-8-5q-5-10 0-18t17-15q9-5 22-11t28-10 30-6 30 0 25 10 18 21q9 23 5 42t-15 35-28 29-32 23q2 27 3 53t1 47m219-189q10 0 19 5t10 15q-1 9-10 11t-13 2q-10 0-21 1t-24 1q-1 17-2 31t-1 26 0 18 0 8q11-2 24-7t25-11 25-12 24-11q5-3 9-2t5 5q1 5-1 13t-9 15q-8 6-20 13t-26 15-29 12-25 7q-16 1-25-9t-9-27-1-37 2-44q-9 1-18 1t-17 2q-6 0-14-3t-8-11q0-3 3-8t11-8q20-3 45-6 2-23 4-45t3-40q1-6 4-11t6-4q9-1 16 4t8 11q-2 17-4 38t-3 44q10-1 19-1t18-1" />
</svg>