<svg id="fnt-Nanum Brush Script" viewBox="0 0 3340 1000" xmlns="http://www.w3.org/2000/svg"><path id="nanum-brush-script" class="f" d="M219 369q1 5 0 13t-2 15q-1 5 0 12t2 11q-3 10-6 23t-5 29-5 31-3 27q3 9 6 16t5 12 3 12 1 16q-4 4-5 4t-4 4q-3 2-6 1t-5-2q-5 0-5-1t-2-3q-8-8-14-17t-9-16-9-17-8-17q-6-11-15-26t-19-28-23-25-25-14q-11 39-13 75t5 69q0 5 0 6t-2 5q-1 4-2 10t-3 8q1 7 1 13t-3 9q-16-25-22-56t-5-63 7-63 12-56q0-2 1-3t2-2 2-2 2-1q3 0 5-1t4-1q3 0 4 4t2 5q2 3 3 10t0 11q22 3 39 15t29 30 23 33 16 30q1-11 3-27t5-32 5-32 5-23q1-7 4-11t7-8q2-2 4-6t6-4q2-1 3-1t4-1m163 65q7 16 12 35t8 36 0 36-11 29q-4 5-10 4-2 0-3-2t-4-4q-2-1-5-2t-4-4q-7 2-15 7t-14 10-16 9-16 7q-9 3-14-1t-9-7q-3-3-4-4t-2-6q-2-11-1-24t6-25q13-38 51-51 5-2 9-1t10 3 8 5 8 6l8 6q3-8 0-18t-8-19-13-15-13-10q-26 0-46 12t-39 31q-1 1-3 1t-2 1q-1 1-3 1-2-1-1-3 3-16 12-29t21-22 26-16 26-10q2-1 4-1t4 0q4 0 7 2t7 4q5 3 10 6t9 8q3 4 6 8t4 7m-17 89q-3-6-9-12t-14-8-18-1-18 9q-3 6-6 14t-5 15-1 16 3 14q19-6 37-15t31-15q3-3 4-5t-1-3-2-4-1-5m108-9q9-9 17-19t19-18 19-17 21-11q3-1 5-1t5 0q4 0 7 0t5 2q7 4 11 12t8 19q2 5 2 10t3 12q3 9 6 19t3 19q0 2-1 4t-3 4q-1 2-3 5t-5 5q-3 2-4 3t-4 3q-7-10-10-21t-6-23-5-24-5-26q-1-3-6-4t-12 3-14 12-14 21q-4 9-7 18t-8 20-10 19-14 17q-2 2-3 0t-5-3q-3-1-4-2t-1-6q-3-11-7-24t-7-29-7-30-8-29l-3-9q1-2 3-3t6-3 7 1 5 1q6 0 10 7t7 18 5 23 2 25m294-67q0 35 1 65t6 59q0 3-2 7t-4 6q-3 3-5 6t-5 5q-5 2-6 1t-2-4q-2-10-5-26t-4-33q-6 10-14 20t-15 19-17 15-16 10q-4 2-5 1t-4-2q-5-2-9-4t-7-5q-5-10-9-19-5-14-7-30t0-32 4-31 5-28q0-2 2-3t3-3q1-4 3-6t6-2q4-1 6-2t7-1q-5 15-7 33t-3 38 4 37 10 32q9-7 18-16t18-20 14-20 9-16q3-10 4-23t1-22q-1-5 0-7t3-6q1-1 1-3t2-2q1-1 2-3t3-2q3 0 4 3t3 5q3 2 5 3t2 6m56-18q3 13 3 27t-2 28 0 28 8 27q11-28 31-52t43-41q3-3 6-4t6-1q3-1 5-2t6 1q10 6 12 21t1 44q8-7 15-17t16-17 17-15 18-10q3-1 6 0t6 1q2 0 4-1t3 0q3 0 5 3t4 5q2 8 5 21t6 27 5 26 0 17q-1 4-3 6t-5 5q-1 0-2 2t-3 3q-2 2-3 4-7-10-10-21t-6-23-5-24-5-26q-14 8-23 17t-13 21-9 22-10 21q-5 8-11 13t-9 5q-3-1-4-6t-4-15q-5-20-10-44t-9-42q-9 3-19 10t-17 18-14 23-9 25q6 13 0 22-2 4-7 6t-10 6q-4 4-8 3t-6-5-3-6q-3-16-6-34t-4-34 1-35 9-33q1-3 2-3t2 0 2 2 1 0 1 1m544-44q1 7-1 10t-3 9q-2 16-8 30t-15 27q10 0 22 1t24 3q3 1 6 4t5 4q4 3 7 5t5 5q5 10 4 19t-5 19q-13 25-37 52t-48 50q-5 3-8 3t-7 1q-4 2-9 3t-5 0q-2-1 0-3t3-4q10-16 24-32t29-30 29-31 24-31q-9-5-26-7t-33-2-33 2-23 7q0 3 0 9t-1 12-1 13 0 13q-2 7 0 13t2 11q1 6 1 11t0 11q0 3 1 6t-1 8q-13-15-21-36t-11-43-5-47-1-47 2-40 2-31q-5-1-13 0t-15 3q-2 0-4 0t-6 0-4-1-3-1q-1-1-3 0t-2-1q-2-4 0-7t-1-7q4-8 16-11t26-3q12-3 25-3t27 1 25 6 22 12q6 5 12 12 2 3 5 11t5 12m-24 0q-3-7-10-12t-14-7-16-5-15-1q-1 6-2 19t-2 28-1 30 0 25q10-4 19-11t18-16 14-22 9-28m265 35q0 5 2 11t-1 11q-1 1-1 4t-2 4l-6-4q-8-4-18-4t-20 5q-7 3-14 8t-12 12-11 13-9 14q-8 14-8 35t15 53q0 3-5 8-1 1-2 3t-3 3q-4 4-5 6t-3 4q-4 1-7-7-9-15-17-37t-14-45-12-44-8-36q-2-4-1-8t3-6q2-2 4-1t4 1q6 0 8 3t5 6q7 8 11 22t10 32q8-14 20-26t28-23 31-17 31-8q3 0 5 2t2 6m154 27q0 35 1 65t6 59q0 3-2 7t-4 6q-3 3-5 6t-5 5q-5 2-6 1t-2-4q-2-10-5-26t-4-33q-6 10-14 20t-15 19-17 15-16 10q-4 2-5 1t-4-2q-5-2-9-4t-7-5q-5-10-9-19-5-14-7-30t0-32 4-31 5-28q0-2 2-3t3-3q1-4 3-6t6-2q4-1 6-2t7-1q-5 15-7 33t-3 38 4 37 10 32q9-7 18-16t18-20 14-20 9-16q3-10 4-23t1-22q-1-5 0-7t3-6q1-1 1-3t2-2q1-1 2-3t3-2q3 0 4 3t3 5q3 2 5 3t2 6m164-1q-3 8-4 12t-5 1q-7-7-17-15t-24-10q-10-1-21 2t-16 14q-5 9-1 21 3 13 13 19t23 9 26 6 23 9q3 1 4 4t4 6q3 3 5 5t4 6q2 3 4 7t1 10q-2 6-13 14-24 15-50 24t-56 4q-4-1-8-7t-8-8q-8-4-11-11-4-13-4-29 0-5 2-5t3 1q3 0 7 4t8 9 8 9 6 5q9 4 21 4t24-2 23-9 17-16q0-2-6-6t-14-8-20-8-21-10-17-10-9-11q-2-4-4-9t-2-6q-3-11-1-21t6-18 12-14 17-6q15-2 32-1t31 12q4 4 5 7t3 7q1 2 1 4t-1 5m89 39q12-17 28-27t37-9q3 1 6 2t7 4q7 4 14 11t11 18 9 20 5 20q1 5 2 14t0 15q-1 0-1 1t-1 0q-4-2-6-6-1-1-3-2t-3-3q-1-5-2-14t-4-17-8-19-11-16q-2-3-4-4t-4-3q-3-2-8-3t-8 1q-9 2-18 9t-17 17-10 24 3 29q1 5 2 7t0 6-2 5-4 8q-4 6-9 9t-9 5q-15-41-23-83t-9-78 2-68 13-51q1-6 6-5 3 0 4 2t4 4q2 2 4 4t2 5q0 2 2 2t2 3q-5 27-6 51t-1 43 3 37 5 32m454-100q-1 2 0 3t0 2q-1 1-5 1t-6 1q-4 1-7 1t-8-3q-6-3-15-6t-18-2q-13 0-28 2t-28 8-23 12-15 15q-3 7-2 14t3 14 7 11 9 8q12 6 27 8t32 3 32 1 30 5q7 3 13 4t11 4 9 8 8 14q4 19-2 37-7 18-22 32t-34 23q-15 7-31 9t-30-1-27-11-20-24q-4-9-4-23-1-1 0-3 1-3 6-3 2-1 5 1t5 3q4 0 8 5t7 8q13 13 28 15t31 0 27-8 19-11q3-3 7-8t9-9 6-11 3-13q-1-6-8-9t-16-5q-18-3-35-4t-33 1-33 0-31-3q-4-1-9-4t-8-4-6-7-4-8-5-10-3-10q-3-16 0-33t13-31q8-12 21-21t31-14 37-4 40 6q3 1 6 3t6 3q7 3 13 8t7 10m170 75q2 2 1 4t0 4q-4 5-7 6t-8 5q-2 1-3 2t-3 1q-2 0-8-4t-11-8-13-6-12 1q-5 8-10 19t-8 25-2 27 8 25q29 3 52-10t41-32q0 4-2 6t-3 6q-2 5-4 9t-6 8q-7 8-16 15t-19 12-20 8-20 2q-5-1-8-3t-7-5q-3-2-8-3t-7-4q-5-6-8-15-3-11-3-24t1-25 5-22 6-16q3-6 9-11t13-9 15-7 14-7q26 0 51 26m199-40q0 5 2 11t-1 11q-1 1-1 4t-2 4l-6-4q-8-4-18-4t-20 5q-7 3-14 8t-12 12-11 13-9 14q-8 14-8 35t15 53q0 3-5 8-1 1-2 3t-3 3q-4 4-5 6t-3 4q-4 1-7-7-9-15-17-37t-14-45-12-44-8-36q-2-4-1-8t3-6q2-2 4-1t4 1q6 0 8 3t5 6q7 8 11 22t10 32q8-14 20-26t28-23 31-17 31-8q3 0 5 2t2 6m87-3q4 4 3 7t-3 2q-6 0-14 1t-17 2-18 0-19-3q-4-4 0-8t7-9q2-5 4-7t6-2q6 0 14 2t14 3q8 1 14 3t9 9m-10 68q3 12 4 21t3 18 1 18 0 20q0 2-2 4t-3 5q-2 4-4 5t-4 3q-7 3-12 8-7-9-9-22t-3-26-2-27-3-27q-2-7 1-9t5-4q4-1 8 2t8 5q4 2 7 2t5 4m192-39q6 13 6 25t-6 26q-6 10-16 18t-23 15-22 10-18 6q2 15 4 33t3 36 3 36 1 33q0 3-1 3t-4 3q-1 2-3 4t-3 4q-1 1-3 2t-3 1q-7-26-13-57t-11-63-6-66-4-61q-7 1-14 4t-12 7q-1 1-2 0t-2 1q-2 1-3 1t-3 0q-3-1-6-4 5-17 17-26t27-14q8-2 26-3t36 0 35 8 20 18m-18 18q-2-10-10-15t-20-6-24-1-22 5q2 6 3 16t3 19 3 20 2 17q9-2 21-7t21-12 16-16 7-20m207 4l25 3q1 1 1 1t1 1q-1 1-3 2t-6 2q-1 1-4 2t-4 2q-13 3-32 5t-37 5q-1 17-1 32t1 26q1 9 8 8t15-2q2-1 10-5t21-10 25-13 23-12q0 7-7 14-4 3-9 6t-10 7q-5 3-7 7t-9 9q-13 8-28 15t-27 10q-4 1-9 1t-8 2q-6 2-9-1t-4-10q-2-19-3-40t0-42q-15 1-28 0t-21-1q-7-1-14-4t-11-7q-4 0-3-4t3-7q11-1 31-2t44-1q2-42 7-77t12-53q0-5 3-7t8-4q2-1 4-3t7-1q4 2 6 4t2 4-1 6-4 9q-1 2-3 13t-4 27-5 38-4 43q17 0 32 0t26 2" />
</svg>