<svg id="fnt-Nanum Myeongjo" viewBox="0 0 3998 1000" xmlns="http://www.w3.org/2000/svg"><path id="nanum-myeongjo" class="f" d="M363 360v308h-11l-262-320v250q0 18 3 28t8 16 15 7 23 2v12q-13 0-28-1t-32 0q-17 0-33 0t-27 1v-12q15 0 25-2t18-7q6-6 9-16t3-28v-238q0-28-15-39t-49-10v-13q6 1 16 1t21 0 22 0 15-1l263 315v-253q0-15-2-25t-8-15-15-7-25-2v-13q10 0 26 1t32 0q18 0 33 0t25-1v13q-17 0-26 1t-15 7-7 15-2 26m219 255v-71q-54 16-80 30t-27 35q0 22 12 31t32 8q18 0 34-10t29-23m72 21l2 8q-11 10-23 19t-24 8q-12 0-19-11t-8-31q-18 19-40 31t-46 11q-22 0-37-14t-14-37q0-18 11-31t29-22q18-10 43-19t54-17v-34q0-21-10-35t-39-14q-20 0-36 12t-17 29q0 12-4 17t-12 5q-6 0-9-5t-3-12q0-13 13-26t40-26q16-9 26-13t23-4q23 0 40 14t18 41v133q0 28 12 32t30-9m101-211q-1 13-1 26t-1 19q22-16 48-31t49-15q29 0 42 22t12 51v116q0 20 7 29t29 9v12q-7 0-13 0t-12-1q-6 0-12 0t-13 0q-7 0-13 0t-12 0-12 0-13 1v-12q21 0 28-9t7-29v-116q0-25-12-35t-37-11q-7 0-17 3t-19 8q-11 5-20 11t-17 12v128q0 20 7 29t29 9v12q-7 0-13 0t-12-1q-6 0-12 0t-13 0q-7 0-13 0t-12 0q-6 0-13 0t-13 1v-12q22 0 29-9t6-29v-115q0-13-1-21t-3-12-9-6-16-1v-11q15-2 28-7t24-15h9m400 242v-43q-24 19-49 33t-50 14q-9 0-18-3t-17-11q-8-7-12-19t-5-29v-135q0-16-6-22t-25-7v-9q6 0 13 0t15-1 16-2 19-1q-1 10-2 22t0 20v109q0 38 10 50t32 12q19 0 40-10t39-25v-136q0-16-9-22t-27-7v-9q6 0 14 0t16-1 18-2 20-1q-1 10-2 22t0 20v152q0 16 8 19t26 2v9q-5 1-12 3t-15 4q-8 2-16 4t-15 4q-3 1-5 0t-1-4m162-242q-2 13-2 26t0 19q10-7 22-15t23-15q12-7 24-11t25-5q17 0 31 10t21 35q20-16 44-30t49-15q14 0 25 7t17 16 10 24 4 27v116q0 21 6 29t28 8v12q-20-1-49-1t-49 1v-12q21 0 27-8t7-29v-98q0-13-1-25t-7-21-14-14-26-5q-10 0-20 3t-19 10q-10 4-18 10t-13 10v130q0 21 7 29t29 8v12q-11 0-24-1t-26 0q-13 0-26 0t-24 1v-12q21 0 28-8t6-29v-98q0-13-1-25t-6-21-14-14-26-5q-8 0-17 3t-18 8q-10 5-19 12t-16 12v128q0 21 7 29t27 8v12q-21-1-49-1t-51 1v-12q22 0 29-8t7-29v-116q0-13-1-21t-4-12-9-6-16-1v-11q16-2 29-7t24-15h9m597-127l149 319 146-319q6 1 17 2t22 0q11 0 22-1t16-1v13q-27 0-37 10t-10 34l6 242q0 16 3 26t8 17q6 6 17 8t30 3v12q-11 0-32 0t-41 0-41 0-30 0v-12q16 0 26-3t17-8 8-16 2-27l-3-256-149 325h-8l-147-316-5 248q0 29 8 40t33 13v12q-12 0-27-1t-33 0-32 0-28 1v-12q16-1 28-3t19-7q7-6 11-16t4-28l7-241q0-25-12-35t-35-10v-13q8 1 18 1t20 0 18 0 15-1m518 349q-6-14-16-39t-21-53q-11-27-21-50t-13-36q-5-12-12-18t-23-7v-12q7 1 21 1t29 0 28 0 18-1v13q-19 1-25 8t-2 19l53 137 55-134q6-15 1-22t-22-8v-13q6 1 17 1t22 0 22 0 16-1v13q-17 0-25 8t-15 26l-119 277q-6 15-17 20t-23 5q-8 0-16-5t-7-16 8-14 15-3q2 0 4 1t5 3q3 1 5 2t4 2q5 0 8-2t6-7l40-95m330-129h-144q-1 8-1 16t1 21q2 37 23 63t56 25q24 0 42-10t30-23l6 4q-13 24-36 41t-52 16q-21 0-39-9t-31-24-21-37-8-46q0-30 8-55t21-41q14-17 32-26t39-9q15 0 30 5t26 15q12 10 19 26t8 36q0 6-1 9t-8 3m-142-15h103q8 0 12-3t4-10q0-8-3-17t-10-16q-7-7-17-12t-22-5q-28 0-45 17t-22 46m429 44q0 25-9 48t-25 39q-16 18-37 27t-44 10q-24 0-46-8t-39-25q-16-15-26-38t-10-51q0-25 9-48t23-40q16-17 37-27t46-10q25 0 47 9t39 25q16 15 25 38t10 51m-36 5q0-18-5-38t-14-37q-10-17-26-28t-39-11q-22 0-37 9t-25 25q-9 16-13 35t-4 37q0 17 4 36t14 37 26 29 39 11q22 0 37-9t25-26q9-15 14-34t4-36m140-127q-2 13-2 26t0 19q22-16 47-31t49-15q29 0 42 22t13 51v116q0 20 7 29t28 9v12q-6 0-13 0t-11-1q-6 0-12 0t-13 0q-8 0-14 0t-12 0-12 0-13 1v-12q21 0 28-9t7-29v-116q0-25-11-35t-37-11q-8 0-17 3t-20 8q-10 5-20 11t-16 12v128q0 20 7 29t29 9v12q-8 0-14 0t-11-1q-6 0-12 0t-13 0q-8 0-14 0t-12 0q-6 0-12 0t-13 1v-12q21 0 28-9t7-29v-115q0-13-1-21t-4-12-9-6-16-1v-11q16-2 29-7t24-15h9m437 14v22l-51-2q4 6 9 19t4 23q0 38-25 59t-67 21q-5 0-12-1t-15-2q-6 5-10 8t-6 6q-3 3-4 6t-1 8q0 3 0 8t5 9 12 7 24 3q9 0 18 1t17 0q9 0 17 0t16 0q31 0 50 14t20 43q0 18-10 34t-29 30q-17 12-42 20t-52 7q-23 0-41-5t-29-15-18-20-5-22q0-25 18-41t39-22q-26-5-35-23t-3-35q10-6 21-14t15-12q-18-9-31-25t-13-43q0-35 24-58t69-23q10 0 22 3t22 4q10 4 23 7t29 3q4 0 6 0t5 0q3 0 6-1t8-1m-199 274q0 26 23 40t52 13q20 0 38-4t31-12q13-8 21-19t8-24q0-13-7-21t-17-13q-11-6-26-8t-30-2q-46 0-69 14t-24 36m19-214q0 28 13 49t41 20q32 0 45-19t12-43q0-12-3-24t-10-22-18-16-27-7q-14 0-25 6t-16 15q-6 9-9 20t-3 21m246 185v-186q0-13-1-21t-4-12-8-6-17-1v-11q16-2 29-7t24-15h9q-1 13-2 28t0 27v198q0 25-6 42t-15 29q-10 12-23 19t-27 11l-4-8q27-14 36-33t9-54m-9-366q0-10 7-17t17-7 17 7 7 17-7 17-17 7-17-7-7-17m350 229q0 25-10 48t-25 39q-15 18-36 27t-44 10q-25 0-47-8t-38-25q-17-15-26-38t-10-51q0-25 8-48t24-40q16-17 37-27t45-10q26 0 48 9t38 25q17 15 26 38t10 51m-37 5q0-18-4-38t-14-37q-10-17-26-28t-39-11q-22 0-37 9t-25 25q-9 16-13 35t-5 37q0 17 5 36t14 37 26 29 39 11q22 0 37-9t24-26q10-15 14-34t4-36" />
</svg>