<svg id="fnt-Neonderthaw" viewBox="0 0 2723 1000" xmlns="http://www.w3.org/2000/svg"><path id="neonderthaw" class="f" d="M425 686q-8 0-12-5t-4-12q0-9 5-15 2-4 6-8t6-6q9-8 16-28t13-45 10-52 8-49 4-35q1-5 5-5 6 0 5 6-2 14-5 37t-8 50-10 53-14 46-17 30q-4 3-9 8t-5 12q0 8 6 8 3 0 4-1 14-3 32-18t37-37 38-47 33-50q21-37 40-74t46-70q20-25 43-47t51-35 60-14q6 0 9-2t3-5q0-6-9-6-43-1-76 14t-59 40-47 57-39 65-36 63q-14 25-30 46t-33 34q-1 1-3 1-5 0-5-5 0-2 2-4 16-12 31-32t29-45q19-31 37-66t40-66 49-58 61-40 79-14q9 0 14 5t5 11q0 6-6 11t-16 6q-34 1-64 17t-53 42-44 55-35 56q-11 19-20 35t-15 30q-14 24-33 50t-40 49-39 39-35 19q-2 1-3 1t-3 0m68-124q-2 0-4-2t-1-4q6-34 10-72t8-72q1-5 1-12t1-13q0-12-3-24t-13-16q-8-4-15-6-23-8-55-15t-70-13-75-5q-37 0-71 7t-61 23-39 46q-2 4-2 6 0 5 5 5 4 0 9-3t6-8q8-18 27-30t42-18 48-9 46-3q40 0 86 9t106 26q3 1 3 4 0 2-2 4t-4 1q-59-17-105-25t-84-9q-21 0-45 3t-46 8-39 17-23 26q-4 9-11 13t-13 4q-7 0-12-4t-4-10q0-5 3-11 14-31 42-49t65-26 75-7q42 0 82 6t74 14 53 16q19 7 24 21t6 31q0 13-2 27-3 35-8 73t-10 72q-1 4-5 4m-361 122q-26 0-51-5t-44-17-31-30-11-45q0-25 13-45t34-36 45-27 50-16 43-6q11 0 29 2t37 7 36 12 28 18 11 28q0 3-2 9t-10 7q-4 0-8-4t-7-5q-25-19-49-29t-57-9q-15 0-34 3t-40 11-38 18-27 24-11 31q0 23 13 38t36 20 47 7q32 0 65-9t53-22q34-23 61-51t49-59 45-62 48-62q2-2 4-2t4 3 0 5q-26 31-49 63t-45 63-49 58-62 52q-13 8-34 16t-45 12-49 5q-27 0-50-7t-38-24-14-44q0-20 12-36t31-27 40-19 42-12 35-3q34 0 60 10t52 31q2 1 4 3t5 3q0 0 1-2t1-4q0-13-10-23t-27-16-35-11-34-5-25-2q-19 0-42 6t-47 16-43 25-31 33-12 40q0 31 19 51t48 28 64 9q36 0 72-10t60-25q35-23 63-52t53-63 47-66 49-65q2-2 4-2t4 3 0 5q-26 32-50 66t-48 67-52 62-64 53q-16 11-39 19t-50 13-53 4m525-94q-9 0-16-4-3-2-3-4t2-5 6 0q6 3 11 3 10 0 23-7t24-16 18-21 8-22q0-21-21-21-24 0-44 12t-37 31-30 37q-1 3-4 3t-4-3 0-5q13-19 31-39t39-33 49-13q13 0 22 8t9 23q0 13-9 26t-21 25-27 18-26 7m-12 46q-13 0-25-7t-11-24q0-14 10-30t26-31 31-25 28-15q0 0 0 0t1 0q5 0 5 5 0 3-3 5-11 3-26 14t-29 24-24 28-9 25q0 11 7 16t19 5q30 0 60-16t52-43q1-2 3-2 3 0 5 2t-1 6q-22 29-55 46t-64 17m-2 30q-13 0-27-4t-23-13-9-25q0-5 5-5t5 5q0 10 4 15t13 10q8 4 16 5t16 2q18 0 36-7t33-18q1-1 3-1 5 0 5 5 0 3-2 4-16 12-36 20t-39 7m247-88q-3 0-5-2t0-6q15-22 15-42 0-15-9-24t-26-9q-26 0-51 22t-50 57q-2 2-3 2-3 0-5-3t1-6q17-23 34-41t35-30 38-11q25 0 36 12t10 29q0 13-4 26t-13 24q-1 2-3 2m-90 62q-11 0-17-7t-5-19q0-15 9-33t23-34 30-27 28-10q7 0 7 5 0 2-2 3t-4 2q-10-1-24 8t-27 25-22 31-8 31q0 6 2 11t10 4q8 0 17-5t16-13 11-14q2-2 4-2t5 2 0 5q-5 8-13 16t-19 15-21 6m84-40q-17 0-29-10t-12-27q0-6 2-13t5-14q2-3 5-3 2 0 4 2t0 5q-3 6-4 12t-1 10q0 14 9 21t21 7q11 0 23-5t21-18q1-2 3-2 3 0 5 3t0 5q-12 14-26 21t-26 6m-85 72q-22 0-36-15t-13-33q0-5 5-5 2 0 4 1t1 5q-1 13 10 25t29 12q12 0 25-7t26-23q0 0 3-4t7-9 6-8 4-3 4 2 0 6q-3 6-8 11t-9 11q-14 18-29 26t-29 8m133-96q-3 0-5-3t1-6q15-17 26-31t22-28 22-31q6-7 13-11t13-3q11 0 18 6t8 14q0 4-3 8-2 2-4 2-2 0-4-3t1-6q0 0 0-2t-1-3-7-4q-4-2-8-2-4 0-9 2t-9 8q-12 17-23 31t-21 28-26 32q-2 2-4 2m174 56q-8 0-15-4t-6-11q0-5 2-9 4-7 11-20t16-28 13-28 6-18q0-12-10-18t-22-6q-20 0-37 11t-31 26-25 29q-2 2-4 2t-5-3 1-5q13-16 28-32t33-27 40-11q9 0 18 3t17 11 7 20q0 7-6 20t-14 29-15 29-12 21q-1 2-1 4 0 3 4 4t7 1q12 0 24-10t24-23 17-22q1-2 3-2 3 0 5 3t0 5q-7 10-19 24t-26 25-28 10m-158 36q-10 0-15-7t-5-15q0-6 6-18t13-24 15-25 10-18q2-3 5-3 2 0 4 2t0 5q-3 6-10 17t-14 25-13 23-6 16q0 12 10 12t18-9 16-24 18-33 24-35 32-31 46-20h1q5 0 5 5 0 4-4 5-25 6-44 20t-31 30-23 36-18 33-18 24-22 9m133 1q-16 0-28-10t-11-27q0-2 0-4t0-4q2-11 8-26t14-28 15-24q2-2 4-2t4 2 0 6q0 0-5 7t-11 19q-7 14-13 28t-6 25q0 14 8 21t21 7q16 0 31-7t28-16q1-1 3-1 5 0 5 5 0 3-2 4-14 11-30 18t-35 7m132-32q-12 0-16-10t-4-16q0-12 9-30t22-34 29-28 30-11q6 0 6 5 0 2-2 3t-3 2q-11-1-25 9t-27 26-21 31-8 27q0 7 3 12t7 4q6 0 15-8t19-21 19-23 11-14q12-16 23-32t24-30q8-9 20-25t26-33 26-34 21-26q6-6 13-9t15-3q8 0 14 3t6 11-7 16q-6 7-20 23t-31 38-35 45-33 45-25 39-9 26q0 12 10 12 12 0 27-9t31-22 27-29q2-2 4-2t5 3-1 5q-11 15-27 30t-34 24-32 10q-11 0-15-7t-5-15q0-10 10-29t25-41 34-46 35-46 32-39 19-22q5-6 5-9 0-5-8-5-5 0-12 3t-10 6q-8 10-21 26t-26 34-26 34-20 24q-25 30-48 62t-50 59q-3 4-9 7t-12 4m-39-61q-3 0-5-2t1-5q10-12 21-27t25-28 30-22 33-9q8 0 16 2t15 7q2 2 2 4t-3 4-5 0q-5-4-12-5t-13-2q-20 0-38 13t-33 32-29 36q-3 2-5 2m123 96q-18 0-28-9t-11-28q0-8 2-15t5-14q2-2 4-2t5 2 0 5q-6 11-6 24 0 14 7 21t22 6q19 0 38-10t35-21q1-1 3-1 5 0 5 6 0 2-2 3-15 13-36 23t-43 10m-84 0q-20 0-35-14t-13-34q0-5 5-5 2 0 3 1t2 4q-1 16 11 27t27 11q13 0 25-6 2-1 2-1 5 0 5 5 0 3-2 5-14 7-30 7m254-82q-9 0-16-4-3-2-3-4t2-5 6 0q6 3 11 3 10 0 23-7t24-16 18-21 8-22q0-21-21-21-24 0-44 12t-37 31-30 37q-1 3-4 3t-4-3 0-5q13-19 31-39t39-33 49-13q13 0 22 8t9 23q0 13-9 26t-21 25-27 18-26 7m-12 46q-13 0-25-7t-11-24q0-14 10-30t26-31 31-25 28-15q0 0 0 0t1 0q5 0 5 5 0 3-3 5-11 3-26 14t-29 24-24 28-9 25q0 11 7 16t19 5q30 0 60-16t52-43q1-2 3-2 3 0 5 2t-1 6q-22 29-55 46t-64 17m-2 30q-13 0-27-4t-23-13-9-25q0-5 5-5t5 5q0 10 4 15t13 10q8 4 16 5t16 2q18 0 36-7t33-18q1-1 3-1 5 0 5 5 0 3-2 4-16 12-36 20t-39 7m117-91q-2 0-4-2t0-6q12-15 23-33t19-34 12-23q8-19 19-28t21-8q11 0 18 8t8 19q0 6-4 15-1 3-4 3-3 0-5-2t0-5q3-6 3-11 0-7-5-12t-11-5q-8 0-16 7t-15 23q-3 8-12 24t-20 34-23 34q-1 2-4 2m115 60q-7 0-11-3-9-6-9-16 0-11 7-24t16-24 13-18q4-6 8-13t4-14q0-4-3-8t-10-8-26-3q-3 0-8 1t-10 0h0q-5 0-5-5t4-5q4 0 9-1t8 0q20 0 35 6t16 22q0 10-7 22-9 17-21 32t-19 32q0 2-1 3t0 3q0 7 4 9 3 2 6 2 7 0 18-8t22-17 20-20 13-13q1-2 3-2 3 0 5 2t-1 6q-5 7-20 22t-31 27-29 13m-118-16q-3 0-5-3t1-5q17-16 32-36t25-36 14-23q1-3 4-3 3 0 4 2t1 5q-3 7-14 24t-26 37-33 37q-1 1-3 1m93 53q-17 0-30-9t-12-28q0-16 9-36t21-37 21-31q2-2 4-2t5 2-1 6q-8 12-20 29t-21 36-8 33q0 13 8 20t22 7q18 0 39-10t33-24q2-2 4-2t5 3-1 5q-13 16-35 27t-43 11m221-197q-3 0-5-3t1-6l36-38q2-3 2-7 0-4-4-8t-10-3q-5 0-10 4-6 5-19 19t-28 34q0 0-2 1t-2 1h-39q-5 0-5-5t5-5h37q15-19 27-33t19-19q7-7 17-7t17 6 7 15q0 7-5 13-1 1-7 8t-13 15-15 16q-2 2-4 2m-120 100q-5 0-5-4 0-2 3-5 13-16 30-38t34-46q1-2 3-2 3 0 5 2t0 6q-17 24-34 46t-32 39q-2 2-4 2m56 62q-19 0-28-14-2-4-3-9t-2-9q0-8 4-20t14-24q6-8 16-21t22-27 21-26q0 0 1-1t3-1h43q5 0 5 5t-5 5h-41q-8 12-20 26t-21 26-16 20q-8 13-12 22t-3 16q0 8 3 12 6 10 19 10t26-9 28-22 24-29q2-2 4-2t5 3-1 5q-18 26-42 45t-44 19m-16 30q-20 0-32-11t-10-32q0-5 5-5 2 0 3 1t2 4q-1 14 8 24t26 10q12 0 27-7t35-20q1-1 3-1 5 0 5 5 0 3-2 4-19 14-37 21t-33 7m98-91q-2 0-4-3t0-6q13-14 30-35t38-46 43-48 46-43 45-31 42-12q6 0 15 3t16 8 7 16q0 9-5 12t-12 5-14 1q-15 0-31 8t-31 20-28 25-22 26q-1 2-4 2t-4-2 0-6q9-12 22-26t30-27 34-22 34-8q5 0 13-1t8-7-10-12-18-5q-18 0-40 12t-43 31-45 43-43 47-37 45-28 34q-1 2-4 2m175 56q-9 0-15-5t-6-15q0-7 7-21t16-29 17-29 7-19q0-12-10-18t-22-6q-19 0-38 10t-35 26-28 30q-2 2-4 2t-5-3 1-5q12-15 29-31t38-28 42-11q9 0 19 3t16 11 7 20q0 7-7 21t-17 30-16 28-7 19q0 10 11 10 11 0 24-10t23-23 17-22q2-2 4-2 2 0 4 3t0 5q-7 10-19 24t-25 25-28 10m-158 36q-11 0-16-7t-4-15 4-19 10-22 10-18q1-3 4-3 3 0 4 2t1 6q-3 6-9 16t-10 21-4 17q0 12 10 12t18-13 20-33 26-41 37-39 52-26h2q5 0 5 5 0 4-4 5-31 8-54 28t-40 47-32 55q-4 7-11 14t-19 8m132 1q-10 0-21-3t-18-11-7-22q0-16 9-34t20-36 20-28q2-2 4-2t5 3-1 6q-9 11-20 27t-19 34-8 30q0 15 10 20t26 6q16 0 32-7t28-16q1-1 3-1 5 0 5 5 0 3-2 4-14 11-31 18t-35 7m132-32q-12 0-16-10t-3-16q0-12 8-29t22-34 29-27 30-11q7 0 7 5 0 2-2 3t-4 2q-11-1-25 8t-26 25-21 31-8 27q0 7 2 12t7 4q9 0 20-10t23-26 23-33 20-32 14-21q9-14 19-20t17-5q9 0 15 5t6 14q0 8-6 16-4 6-13 20t-18 29-16 29q-7 15-7 24 0 10 10 10 9 0 20-6t23-15 21-20 17-19q1-2 3-2 3 0 5 3t0 5q-7 10-18 21t-24 21-26 16-23 6q-10 0-14-5t-4-14q0-11 6-24 6-14 16-31t19-32 15-22q4-5 4-10 0-9-10-9-6 0-14 5t-15 16q-11 17-25 38t-26 41q-14 18-28 33t-29 14m-38-61q-2 0-4-3t0-5q9-12 20-27t25-27 30-21 34-8q5 0 11 1t10 4q3 1 3 4 0 2-2 4t-5 1q0 0-1-1t-4-1q-3-1-6-1t-6-1q-21 0-39 13t-35 30-27 35q-1 3-4 3m127 93q-23 0-33-12t-9-27q0-12 6-23 1-2 4-2 3 0 4 2t1 5q-5 9-5 18 0 11 7 20t25 9q19 0 36-8t33-20q1-1 3-1 5 0 5 5 0 3-2 4-16 12-35 21t-40 9m-96 0q-16 0-29-11t-12-34q0-5 5-5 2 0 4 1t1 4q0 18 9 26t22 9q10 0 20-5t17-14q1-2 4-2t4 3 0 5q-8 11-20 17t-25 6m397-35q-10 0-14-5t-4-14q0-11 5-26t13-30 16-27 11-18q4-5 11-14t7-14v-3q0-9-10-9-7 0-19 7t-25 24q-7 9-17 24t-24 33-26 34-27 26-25 10q-11 0-16-6t-4-14q0-12 5-25t8-19q6-13 14-26t14-21q6-9 11-15t8-11q5-7 5-13 0-9-8-9-5 0-19 7t-27 25q-9 11-21 27t-37 42q-1 1-3 1-3 0-5-3t1-5q24-26 36-41t21-27q16-20 31-28t24-7q8 0 13 4t4 13q0 4-1 9t-6 10q-3 6-9 13t-11 16q-6 10-15 26t-16 31-7 25q0 11 10 11t21-10 26-26 26-33 22-32 16-22q15-19 29-27t23-8 15 5 5 14q0 9-6 17t-15 21q-8 12-18 29t-18 35-7 28q0 11 9 11 5 0 15-4t17-12q1-2 3-2 3 0 5 2t-1 6q-7 10-20 15t-19 5m82-17q-20 0-28-11t-8-25q0-18 7-37t15-29q8-11 18-17t19-5q8 0 13 4t6 15-8 28q-6 13-15 26t-14 21q-2 2-4 2t-5-3 1-5q2-2 8-11t12-19 11-21 4-18q0-9-9-9-6 0-14 4t-15 14q-4 6-9 16t-8 21-3 22q0 11 5 19t21 8q14 0 30-13t31-28q2-1 4-1 2 0 4 2t-1 6q-8 10-20 20t-24 17-24 7m-291 2q-5 0-5-5 0-2 2-4 22-18 37-34t32-38q1-2 4-2t4 2-1 6q-12 15-22 27t-22 23-26 24q-1 1-3 1m186 50q-17 0-28-11t-11-29q0-10 3-22t12-27q1-2 4-2t4 2 0 5q-7 14-11 24t-3 19q0 16 9 23t21 8q19 0 36-11t34-26q2-1 4-1 2 0 4 3t-1 5q-17 16-36 28t-41 12m-128 0q-20 0-29-12t-8-25q0-9 3-18 1-4 4-4 3 0 4 2t1 4q-2 9-2 16 0 12 6 19t21 8q19 0 36-11t34-26q1-1 3-1 3 0 4 3t-1 5q-17 16-36 28t-40 12" />
</svg>