<svg id="fnt-Neucha" viewBox="0 0 1310 1000" xmlns="http://www.w3.org/2000/svg"><path id="neucha" class="f" d="M20 653l6-338h27l159 303v-38q0-148 6-265l28 5q5 106 8 349-10 4-21 4-17 0-35-9-30-46-74-135t-62-121q0 34 0 121t2 134q-4 15-17 15-9 0-17-7t-10-18m471-34l5 22q-21 8-64 17t-62 10q-21 0-37-14t-23-36-12-43-4-42q0-122 111-122 26 0 46 17t20 44q0 14-8 26t-19 18-30 11-31 8-33 6-26 4q0 14 1 25t5 23 10 21 17 13 25 5q18 0 43-3t45-6 21-4m-165-104q66-19 109-40-4-16-10-24t-17-7q-30 0-54 21t-28 50m335-93l23 4v5q0 33 4 112t8 122q-10 4-19 4-8 0-17-2l-4-13q-31 18-60 18-21 0-36-10t-24-24-13-36-6-39-1-38q0-63 7-115l22 5q4 16 4 35 0 11-1 37t-2 40q0 24 3 41t8 34 19 25 31 9q22 0 47-10 1-18 2-92t5-112m239 2l-3 21q-20-2-35-2-33 0-55 20t-30 48-8 61q0 16 2 28t7 24 16 18 27 7q21 0 54-9 11-4 17-4 11 0 14 28-43 13-80 13-53 0-72-26t-19-84q0-35 5-60t16-48 34-34 55-12q36 0 55 11m33-109l25 6q2 20 3 64t1 60q27-27 64-27 33 0 57 23t24 63v160q-6 3-16 3-10 0-19-2 0-4 0-12t0-12q0-19-1-65t-2-78q-7-45-45-45-17 0-33 9t-23 21q1 31 2 93t1 89q-12 2-20 2-12 0-20-3 1-24 1-75 0-23-1-85t0-105 2-84m232 141l-10-25q13-13 33-20t38-8q83 0 83 143 0 19-3 57t-2 57q-4 15-15 15-9 0-16-8t-7-20q0-3 0-5-30 30-64 30-26 0-46-19t-19-46q0-45 36-82t80-37q2 0 4 1t4 0 5 1q-4-57-46-57-24 0-55 23m102 153q1-35 1-52 0-15-1-41h-4q-34 0-63 26t-29 61q0 16 10 25t23 9q22 0 63-28" />
</svg>