<svg id="fnt-New Rocker" viewBox="0 0 2598 1000" xmlns="http://www.w3.org/2000/svg"><path id="new-rocker" class="f" d="M251 587l10 15q-2-50-4-95t-2-81-1-56 0-21q-2-31-31-42 5 0 9 0t10 0q23 0 41-2t35-5 28-5 24-2q6 0 11 2-30 21-46 46t-16 57q0 37 24 84-11 29-19 63t-7 67q0 14 1 33t5 37q15 16 27 25t21 13 18 6 16 3l-13-33q17 9 34 18t35 15 38 10 42 4q15 0 31-1t35-4q-44 18-83 25t-73 8q-44 0-82-12t-69-34-58-49-48-59-39-62-30-60v51q0 31 2 52t6 37 12 27 17 24q-11-3-20-6t-16-7-16-10-19-15q-13 24-36 41t-61 30q16-14 29-33t22-39 16-42 6-45q0-21-6-40t-17-38q25-47 25-84 0-31-17-57t-46-46q5-2 12-2 10 0 22 2t28 5 33 5 39 2q5 0 9 0t10 0q-27 10-31 37 9 22 22 52t28 62 35 65 38 64m239 96q-10-7-24-13t-29-11-28-6-23-3q4-6 7-18t5-26 2-28 1-26q0-31-4-51t-7-32q22-4 39-15t36-29q20 4 50 6t60 4q-2 9-2 23 0 10 1 22t3 25 4 23 5 19q-30 2-62 6t-61 10q-1 14-2 28t-3 25q6 2 15 4t20 4 21 3 17 2q2-16 12-27t33-18q0 6 0 12t0 11q0 17 1 27t5 19q-10 1-23 4t-26 7-25 9-18 10m-32-213q2 21 3 37t2 29l59-14q-3-10-5-21t-1-23q-12 0-28-2t-30-6m394 211h-5q-9-6-18-12t-17-10-18-10-19-11h-4l-42 43h-5q-15-10-38-20t-45-15q1-5 2-17t1-33q0-47-6-80t-17-53l-15-3v-9q11-1 23-4t24-7 20-7 14-8q7 10 13 48t8 103l1 44 26 13h3l21-21q1-8 2-17t0-25q0-42-2-67t-7-40l-15-3v-9q11-1 23-4t24-7 20-7 14-8q4 15 5 37t2 56q0 14-1 29t0 29-1 24-1 15l29 22h3q5-9 10-26t8-36 7-41 2-39q0-21-4-32t-13-15l1-8q42-3 79-15-1 1-1 5 0 20 2 34t9 21l-44 148-58 48m553-34q-21 15-33 36t-18 43q-3-10-8-22t-11-22-17-20-20-15q5-4 7-12t3-20 2-34 2-51q-2-1-14-10t-24-19q-17 11-34 21t-31 18q2 38 6 71t10 61q-13-7-23-9t-20-3q-8 0-17 2t-17 3-18 3-21 2q-2 0-5 0t-6-1q11-6 20-17t15-24 10-27 4-29q0-25-6-50t-19-40q14-26 19-49t5-46q0-14-1-30-21-3-33-16t-11-39q21 4 35 6t27 2q8 0 18-1t20-4 23-9 27-17q5 4 22 11t38 14 47 11 47 4q7 0 13 0t14-2q-6 12-22 24t-35 20q-2 7-2 15t1 17 2 18 3 17 5 13q-5 2-18 8t-29 16q12 11 25 22t28 20q-3 6-4 19t-1 31q0 13 1 26t3 26 6 22 10 16m-99-228l-3-62q-27-4-50-7t-45-8q-1 12-1 27t0 29v39 40q16-10 33-20t31-18 24-14 11-6m232 6q34 11 57 15t43 4q11 0 16 0t12-1q-6 32-6 76 0 54 9 105-13 2-27 7t-28 12-27 17-23 21q-6-5-19-10t-30-8-32-7-26-2q-3 0-6 0t-5 1q7-6 10-24t3-46q0-15-1-32t-3-33-3-26-4-14q19-3 43-18t47-37m59 205l1-142q-23-2-45-7t-34-10q3 21 4 39t1 37q0 14-1 32t-2 36q17 2 38 6t38 9m233 52q-9-5-25-11t-34-10-36-8-34-3q4-5 6-15t5-23 3-29 1-32q0-27-3-51t-8-41q27-4 56-14t53-20q16 10 38 18t45 12q-10 19-27 31t-34 12q-11 0-27-8t-32-23q3 19 4 38t1 38q0 16-1 36t-4 35q11 5 28 9t32 5q3-19 15-34t34-20q0 4 0 11t0 17q0 19 1 31t5 20q-8 1-18 4t-18 8-16 9-10 8m235 25l-4-1q3-7 5-16t4-20 2-22 1-20v-42q-15-10-30-19t-33-15v71q0 31 13 36v8h-92v-8q14-5 14-32v-263q0-13-1-24t-3-19-4-16-7-15q9 4 23 4 16 0 34-5t40-16q-9 11-13 29t-4 49v104q10-7 21-16t23-22q15 10 34 16t47 13q-5 14-5 35 0 5 1 14t1 12l-74 28v2q27 6 47 14t37 18q-2 10-3 21t-1 24q0 29 4 45-10 4-21 10t-22 13-19 13-15 12m-55-238v62l76-31-1-16-75-15m269 214q-10-7-24-13t-29-11-28-6-23-3q4-6 7-18t5-26 2-28 1-26q0-31-4-51t-7-32q22-4 39-15t36-29q20 4 50 6t60 4q-2 9-2 23 0 10 1 22t3 25 4 23 5 19q-30 2-62 6t-61 10q-1 14-2 28t-3 25q6 2 15 4t20 4 21 3 17 2q2-16 12-27t33-18q0 6 0 12t0 11q0 17 1 27t5 19q-10 1-23 4t-26 7-25 9-18 10m-32-213q2 21 3 37t2 29l59-14q-3-10-5-21t-1-23q-12 0-28-2t-30-6m244-31v67q12-18 22-39t18-43q10 6 27 12t39 11q-3 21-9 38t-17 29l-33-17h-6l-41 57v69q0 17 6 25t23 10v9h-107v-8q13-5 13-32v-174l-18-8v-6q17-2 38-7t36-8l9 15" />
</svg>