<svg id="fnt-Newsreader" viewBox="0 0 2538 1000" xmlns="http://www.w3.org/2000/svg"><path id="newsreader" class="f" d="M23 654l41-13v-284l-42-16v-12h86l204 282-13 21v-278l-44-13v-12h112v12l-41 13v317h-21l-223-307 9-8v285l44 13v13h-112v-13m486-213q27 0 46 12t29 34 13 55h-160l1-20 133-5-17 10q-1-20-7-34t-16-22-25-7q-19 0-33 9t-21 29-7 46q0 29 10 49t31 32 47 10q11 0 21-2t20-8 19-11l5 10q-13 14-27 24t-29 15-32 5q-31 0-54-15t-37-39-14-58q0-34 13-60t36-43 55-16m375 185l46-157-33-10v-13h84v13l-28 9-63 204h-18l-75-185 11 0-74 185h-18l-65-201-33-12v-13h107v13l-34 11 50 157h-11l75-186h15l74 185h-10m207-185q15 0 28 3t28 10l5 60h-15l-25-61 20 22q-10-7-20-10t-21-4q-21 0-33 9t-11 23q0 13 7 21t20 13 26 10q10 4 20 9t19 13 14 18 5 28q0 21-11 36t-30 23-44 7q-15 0-29-2t-25-7l-11-62h15l33 63-30-20q9 4 16 6t13 3 13 0q26 0 40-9t15-29q0-11-5-18t-15-12-20-9-20-8q-14-6-25-14t-18-19-6-32q0-19 10-32t27-21 40-8m255 2q12 0 18 6t6 17q0 12-6 19t-19 7q-6 0-13-2t-13-4-15-1q-6 0-13 1t-13 5-12 6l-6-8q16-13 28-21t24-14 18-8 16-3m-79-2l4 47v155l40 12v12h-117v-12l39-12v-149q-4-3-9-6t-13-6-17-7v-7l67-27h6m233 0q27 0 46 12t29 34 13 55h-159l0-20 133-5-16 10q-2-20-8-34t-16-22-25-7q-19 0-32 9t-22 29-7 46q0 29 11 49t30 32 48 10q10 0 20-2t20-8 19-11l5 10q-13 14-27 24t-29 15-32 5q-30 0-54-15t-37-39-13-58q0-34 12-60t36-43 55-16m270 85l2 20q-32 7-52 13t-31 14-15 16-4 18q0 17 10 26t27 9q12 0 23-6t16-16 7-21v-90q0-20-10-31t-33-11q-9 0-19 2t-20 7l14-13q-1 8-3 15t-3 13-5 9q-4 5-10 7t-13 2q-9 0-14-4t-5-10q0-8 8-17t21-17 30-13 34-5q24 0 39 8t21 20 6 33v115q0 8 3 14t7 8 12 2q5 0 12-2t13-5v13q-11 11-23 17t-22 5q-12 0-21-6t-14-17-5-26l2-2q-4 15-13 27t-22 18-29 7q-27 0-44-15t-17-42q0-15 6-27t21-23 43-20 70-19m263 104v-115q0-22-14-36t-45-15q-23 0-40 12t-24 31-9 49 9 47 26 29 38 10q20 0 38-6t36-19v16q-19 12-33 20t-23 12-18 5-17 2q-33 0-55-13t-33-37-12-55q0-29 10-52t26-40 39-25 47-9q13 0 25 3t25 6 27 12l-23 14v-121q-3-4-8-7t-13-7-14-6v-7l71-19h6l-3 42v276q2 3 6 5t9 5 10 4 9 3v8l-61 19h-6l-6-41m206-189q27 0 45 12t30 34 13 55h-160l0-20 134-5-17 10q-1-20-7-34t-16-22-26-7q-18 0-32 9t-21 29-8 46q0 29 11 49t31 32 47 10q11 0 21-2t20-8 18-11l5 10q-13 14-27 24t-29 15-31 5q-31 0-55-15t-37-39-13-58q0-34 13-60t35-43 56-16m273 2q12 0 18 6t7 17q0 12-7 19t-18 7q-7 0-14-2t-13-4-15-1q-6 0-13 1t-13 5-12 6l-6-8q16-13 29-21t23-14 19-8 15-3m-79-2l5 47v155l40 12v12h-118v-12l39-12v-149q-3-3-9-6t-13-6-17-7v-7l67-27h6" />
</svg>