<svg id="fnt-Nobile" viewBox="0 0 1518 1000" xmlns="http://www.w3.org/2000/svg"><path id="nobile" class="f" d="M352 667h-60l-207-343v343h-48v-386h64l204 340v-340h47v386m192-24q18 0 31-5t23-13 15-20 10-25 5-26 1-26-1-26-5-26-10-24-15-20-23-14-31-5-30 5-22 14-16 20-10 24-5 27-2 25q0 13 2 26t5 26 10 24 16 21 22 13 30 5m130-116q0 18-3 35t-8 35-16 31-24 25-34 17-45 6-45-6-34-17-24-25-15-31-9-35-2-35 2-35 9-34 15-31 24-25 34-17 45-6 45 6 34 17 24 25 16 31 8 34 3 35m193 111q34 0 52-29t18-92q0-28-5-48t-14-34-22-19-29-6q-22 0-43 9t-44 27v154q41 38 87 38m-3 34q-12 0-24-4t-24-10-22-15-19-20l-7 44h-34v-386l46-8v142q10-10 21-17t21-12 21-7 17-3q58 0 89 35t31 106q0 46-10 75t-25 48-37 24-44 8m228-5h-45v-286h45v286m-49-357q0-6 2-11t6-9 8-6 11-2q6 0 11 2t8 6 6 9 2 11q0 6-2 11t-6 8-9 7-10 2q-6 0-11-3t-8-6-6-9-2-10m176-37v394h-47v-386l47-8m269 337l15 32q-10 7-22 13t-26 9-24 6-21 2q-32 0-56-11t-40-30-24-47-8-58q0-30 8-56t23-48 37-33 53-13q27 0 49 9t35 24 22 39 7 52q0 7 0 15t-2 13h-185q0 31 5 52t17 34 27 18 36 6q12 0 22-2t18-5 17-9 17-12m-13-110v-8q0-20-5-35t-13-26-21-16-27-5q-19 0-34 7t-24 19-15 29-7 35h146" />
</svg>