<svg id="fnt-Nokora" viewBox="0 0 1679 1000" xmlns="http://www.w3.org/2000/svg"><path id="nokora" class="f" d="M289 511v-201h42v357h-52l-191-297h-2q0 9 1 20t1 23q2 26 2 54v200h-42v-357h52l191 295h2l-1-24q-1-16-2-35t-1-35m366 21q0 67-34 103t-91 37q-36 0-63-17-28-16-44-47t-16-76q0-66 33-102t92-36q36 0 64 16 28 16 44 47t15 75m-202 0q0 48 18 75t60 28q41 0 60-28t19-75q0-47-19-74t-60-27-60 27-18 74m315 36v99h-43v-380h43v198q0 8 0 21-1 7-1 12t-1 11h2q3-3 9-12t13-16 10-12l86-90h51l-108 114 116 154h-53l-93-125-31 26m447-36q0 67-34 103t-91 37q-36 0-64-17-27-16-43-47t-16-76q0-66 33-102t91-36q36 0 64 16 28 16 44 47t16 75m-203 0q0 48 19 75t60 28q40 0 59-28t19-75q0-47-19-74t-60-27-59 27-19 74m397-138q8 0 16 0t16 3l-6 40q-6-1-14-2t-15-1q-21 0-38 11-18 11-29 31t-11 48v143h-44v-268h36l5 49h2q13-22 33-38t49-16m173 0q49 0 72 22t24 68v183h-32l-9-38h-2q-17 22-37 32t-53 11q-36 0-60-20t-24-60q0-40 31-62t97-23l46-2v-16q0-33-15-46t-41-13q-21 0-40 6t-35 14l-14-33q18-9 42-16t50-7m53 166v-24l-40 1q-50 2-69 16t-20 40q0 22 14 33t35 10q34 0 57-19t23-57" />
</svg>