<svg id="fnt-Norican" viewBox="0 0 1475 1000" xmlns="http://www.w3.org/2000/svg"><path id="norican" class="f" d="M269 681q-12 0-18-8t-10-21-5-25-1-24q0-59 9-118t25-112q2-7 2-13 0-7-3-11t-8-4q-3 0-8 2-39 20-71 53t-55 74-35 85q-5 17-10 37t-8 40-7 31h-50q0-20 6-47t14-59 19-67 17-70l20-78-79 56-7 2q-4 0-5-4t-1-8q0-3 1-5t5-5l105-66q4-3 12-8t16-8 13-3q5 0 5 4 0 9-3 23t-7 28-6 26-3 15l-4 20q35-42 64-66t52-34 37-14 23-2q11 0 16 6t5 16q0 6-5 28t-10 51-12 64-10 66-4 54q0 11 1 22t5 19 11 8q4 0 9-3t11-9l63-60-1 27q-1 1-5 6t-11 11-10 10-7 7q-6 6-17 16t-25 20-25 17-20 8m173-7q-27 0-43-13t-23-32-8-40q0-41 20-71t54-46 80-16q5 0 6 3 0 4-1 6t-5 5q-35 0-58 15t-34 39-11 53q0 29 14 43t32 15q11 0 24-7t24-23q-18-11-27-28t-9-33q0-18 11-31t36-13q22 0 31 13t10 30q0 14-7 29t-17 25h1q15 0 29-12t32-31v27q-14 19-31 27t-30 7q-3 0-11-1-38 60-89 60m85-85q5-6 10-19t5-24q0-9-5-16t-15-6q-11 0-15 6t-5 17q0 11 7 22t18 20m110 85q-12 0-17-11t-5-21q0-8 6-25t14-35 15-36 10-23q-11 12-19 20t-14 14-14 15-20 21v-28l50-56q-25-6-33-16t-8-13q0-16 13-29t34-14q11 0 11 13 0 7-4 16t-10 13q6 5 16 7t22 3q6 0 14-2t15-2q7 0 7 4 0 2 0 3-4 10-13 29t-19 39-16 38-7 28q0 2 1 5t4 2q4 0 15-9t25-22 26-25 18-18v28q-14 16-30 32t-33 28-31 19-23 8m116 0q-12 0-16-11t-5-21q0-8 2-24t8-34 9-37 8-32 7-20q5-13 12-18t18-6 24-1q-3 8-7 23t-11 34-10 36-8 33-3 22q0 3 2 10t7 6q2 0 13-9t23-22 25-25 18-18v27q-42 41-67 63t-49 24m66-262q-10 0-15-6t-4-13q0-9 4-17t12-16 18-6q14 0 20 6t7 13q0 8-6 18t-15 15-21 6m78 262q-29 0-43-19t-13-45q0-23 9-49t26-49 40-36 50-14q8 0 20 2t20 8 8 20q0 10-9 17t-23 7q-5 0-8-4t-6-11-8-11-13-5q-11 0-20 10t-17 24-12 32-4 33q0 20 8 34t24 14q25 0 56-20t61-53v27q-12 16-30 32t-37 28-40 20-39 8m155 0q-15 0-23-11t-11-24-3-27q0-27 13-54t35-48 52-35 61-13q11 0 21 2t20 6q0 3-3 15t-7 31-8 36-6 33-3 21q0 15 8 15 6 0 18-9t26-24 30-32v28q-5 7-17 18t-25 23-27 24-27 18-19 7q-11 0-15-10t-4-22q0-7 1-13t1-11q-10 13-24 26t-30 21-34 9m39-39q7 0 17-6t19-14 16-15l28-120q-20 0-39 11t-33 29-24 38-8 40q0 14 5 25t19 12m275 39q-12 0-16-7t-3-12q0-19 5-39t13-39 13-33 6-24q0-6-3-10t-7-3q-12 0-24 12t-24 33-20 42-16 42-9 31h-47q0-12 3-30t8-39 10-42 10-39 10-28q5-13 14-16t23-3h16t-3 9-7 25-9 29-7 25q7-13 19-30t28-32 33-25 34-9q23 0 23 28 0 8-3 21t-9 29-10 30-9 26-3 16 3 5q3 0 9-4 3-2 10-9t17-16 17-16 13-12v28q-6 5-17 16t-24 22-26 23-24 18-17 7" />
</svg>