<svg id="fnt-Nosifer" viewBox="0 0 3019 1000" xmlns="http://www.w3.org/2000/svg"><path id="nosifer" class="f" d="M131 742l6-66q0-8-9-13-14-8-35-8-28 0-38 11-5 5-5 14t6 33 5 33-3 16-11 5-10-5-4-16 6-33 6-37l0-299q0-29-18-48l5-5q20 17 49 17h73q15 0 26-3t18-15l8 4q-7 15-7 28 0 11 39 55 50 58 64 78t19 32h15q-12-18-12-50 0-15 4-44t3-45q0-40-25-52l5-5q20 17 48 17h50q29 0 48-17l5 5q-17 20-17 48l-1 298q0 11 5 32t5 31q0 16-12 16t-12-16q0-10 5-30t4-28-4-10-10-3h-96q-21 0-21 37 0 15 6 45t6 44q0 21-16 21t-16-22q0-13 6-39t7-40l0-32q1-23-5-30l-117-148q-4-6-10-25l-15 0q13 13 13 29v140l5 123q0 4-3 7t-6 3-7-3-2-8l2-94q0-2-2-5t-5-2q-6 0-6 9t3 32 3 31q0 18-9 18t-9-16m606-36l2-23q0-6-6-10t-13-3-12 4-5 10v56q0 13 5 36t5 34-4 17-12 6-12-6-4-18 6-38 5-42q0-61-22-61-30 0-30-2v0q0 17 7 50t8 47-6 23-15 9-17-9-6-23 7-48 7-51q-58-19-87-60t-29-103q0-126 127-159 42-11 86-11t75 5 60 17 49 31 32 49 13 68q0 78-44 121t-124 53q-1 2-1 5l1 14q0 12-6 12t-7-12l1-13q0-8-11-8-1 2-1 9l1 23q0 8-2 14t-9 7q-12 0-12-20m-92-204q0 89 85 89t85-89q0-41-22-63t-63-22-63 22-22 63m516 236l3-25v-45q-66-4-98-18t-48-37q-9-13-14-29t-17-24l4-5q11 7 24 7t32-1 46-2 35-2 16-3 8-9l11 3q-1 2-1 6 0 8 13 18t49 10q24 0 34-8 4-4 4-9 0-12-13-16t-32-6-37-5-41-5-41-7-37-11-31-17-21-25-8-36 6-36 17-28 26-21 32-14 36-9q35-7 65-7t47 1 37 3 40 8 34 13q36 17 50 52 6 12 16 23l-3 6q-10-7-24-7h-3q-19 0-56 2t-46 3-15 3-7 9l-10-3q0-2 0-4 0-11-16-18t-38-8q-41 0-41 17 0 14 62 21 14 1 32 3 64 7 98 17 71 23 71 86 0 26-10 46t-28 34-41 22q-42 15-96 15-15 0-18 0-13 0-13 20v6q0 6 3 19t4 19q0 13-9 13-5 0-8-4t-2-9 3-20 3-21 0-9-1-6-2-5q-3-5-12-5-15 0-15 27l2 40q0 16-5 16t-5-9m431 60l2-65q0-31-2-39t-5-15-6-10-9-8q-10-7-32-7t-37 18-15 43q0 9 3 28t4 27q0 18-13 18t-12-17q0-10 4-29t4-28l1-66v-287q0-15-9-24l5-5q10 9 24 9h88q15 0 25-9l5 5q-10 9-10 24v286q0 13-3 44t-1 48h0q9 40 9 61t-8 22q-12 0-12-24m230-232l-2 50q0 13 7 39t6 39 4 35 4 37-12 14-11-14 4-36 4-34-8-20-18-9q-25 0-25 59 0 14 4 42t4 38q0 20-12 20-6 0-10-5t-3-15 4-36 5-38-2-22-5-22-11-19-20-7-21 10-10 20 3 20 4 15q0 11-8 11t-8-11l6-39 0-310q0-29-18-49l5-4q19 17 48 17h282q28 0 48-17l5 4q-18 20-18 44t4 38 14 26l-5 5q-13-17-32-17h-186q-13 0-23-10l-5 5q9 10 9 24t-9 23l5 5q8-8 19-10t27-2l93 5q23 0 40-4t30-16l5 5q-18 20-18 56t16 52l-5 5q-22-19-71-19l-92 5q-33 0-45-12l-5 4q9 10 9 25m436 60l-4-30v-3q6-9 14-9l200 0q14 0 24-9l5 5q-11 10-11 41 0 0 0 14 0 25 11 36l-5 5q-10-10-24-10h-289q-22 0-32 8-12 10-12 56 0 18 6 54t5 54q0 26-18 26-20 0-20-27 0-18 8-54t8-55l-1-82v-284q0-15-10-24l5-6q10 10 25 10h313q15 0 24-10l5 6q-10 10-10 40v14q0 26 10 36l-5 5q-12-12-57-12l-121 5q-45 0-57-12l-5 5q9 9 9 24t-9 25l5 4q11-12 49-12l102 6q38 0 50-12l5 4q-10 11-10 42v13q0 25 10 37l-5 5q-11-12-49-12l-103 5q-37 0-49-12l-5 5q7 7 8 17t2 15 0 13 0 10l-5 30q0 8 7 8t6-8m693 121l5-51q0-31-25-47t-53-14-38 18q-6 9-6 20l-1 65q0 13 4 40t4 40q0 23-13 23t-14-22q0-16 5-44t5-43 0-62q0-13-7-30t-25-45-28-52l-7-4q-6 11-21 11l-20 1q-21 0-32-11l-5 5q1 9 1 39l0 60q0 27 1 39l4 36q0 10-7 10t-6-9l4-30q0-11-7-18t-17-6-18 9-8 24 5 39 6 36q0 23-17 23t-16-22q0-11 5-37t5-41-8-26-16-9-15 6-6 15l6 58q0 15-11 15t-11-15q0-9 5-31t4-34 0-316q0-15-9-24l5-5q9 9 24 9h219q51 0 69 4t31 6 22 8 19 13 15 17q12 22 12 46t-3 40-13 29q-19 30-67 30l-2 5q16 6 21 17 21 47 32 60t19 20 25 15 19 10 4 4q0 24 6 63t7 49-1 16-4 10-8 4-9-8-2-20 3-41 3-46q0-30-20-30-10 0-14 3t-5 14 4 34 5 35-9 12-9-12m-163-325l-58 1q-35 0-46-10l-5 4q10 10 10 25v16q0 15-10 25l5 4q11-10 44-10l62 2q24 0 38-7t13-23q0-11-7-18t-19-8-27-1" />
</svg>