<svg id="fnt-Nothing You Could Do" viewBox="0 0 4980 1000" xmlns="http://www.w3.org/2000/svg"><path id="nothing-you-could-do" class="f" d="M5 655q4-15 12-33t19-37 20-34 16-28q3-6 9-18t13-27 17-32 16-32 13-27 9-18q16-16 26-9t17 28 15 52 13 63 17 61 22 47q7 3 16-6t19-27 23-42 24-50 23-53 21-50 17-40 11-24q3-6 7-6t6 4 3 10 0 10q-15 42-29 76t-28 66-31 65-37 73q-16 19-31 21t-30-21q-16-28-25-54t-16-50-12-50-13-56q-5-3-15 11t-24 35-28 49-27 53-24 45-15 28q-2 4-6 11t-7 13-6 10-3 5h-17q0-1 0-6t0-6m439 6q-21-8-26-25t0-36 19-42 29-40 33-31 28-14q30-4 47 4t24 24 4 35-13 41-26 39-35 32-41 17-43-4m-6-28q4 16 17 18t30-7 35-23 34-33 25-37 10-32-13-21-43-2q-7 6-18 15t-22 20-23 23-19 26-12 27-1 26m222 28q-1-1-1-5t1-6q1-5 5-19t8-28 9-28 5-19q2-7 4-16t1-17q-7-1-18 2t-21 4-19 0-13-11q5-12 17-16t26-5 26-5 19-13q5-13 11-31t13-38 15-40 17-34q5-4 8-1t6 9 2 11 0 8q-3 13-10 27t-13 29-10 29 0 28h105q0 0 2 3t3 6q3 6-5 9t-21 3-30 1-32 2-28 8-16 15q-13 33-24 66t-20 66q-1 2-4 5t-7 5-6 2-5-6m171-6q-1-1-1-2t1-3q2-4 6-13t10-20 10-20 7-13q1-2 5-9t10-17 13-22 14-24 14-22 10-17q9-16 22-38t27-44 27-44 25-34 19-18 11 5v16q-4 5-10 14t-12 18-12 18-8 14q-5 7-15 22t-22 34-24 40-23 39-17 31-4 16q11-3 25-12t27-20 27-19 26-15q11 1 20 9t13 18q-1 4-1 16t0 26 0 25 1 16q0 5 5 13t9 16 9 14 4 6q-10 4-18 1t-16-11-11-16-5-18q0-4-1-16t-2-25-1-25-1-16l-11-6q-3-1-10 3t-17 10-19 16-19 17-16 13-8 8q-4 3-14 13t-22 22-21 22-14 14q-7 2-13 1t-9-7m270 6q20-64 36-102t28-53 15-10-1 28-20 58-41 85q-4 1-10 0t-7-6m86-235q-1-2-1-8t1-8q11-4 17-1t7 8 0 12-6 10-9 1-9-14m223 235q-1-16 3-32t11-31 15-31 14-30 8-29-2-29q-12-4-28 2t-33 19-36 31-37 35-34 34-29 26-22 14-11-7q-1 0 5-12t15-30 20-39 21-39 17-31 9-14q11 7 11 15t-3 16-6 18-2 17q8-5 22-15t30-19 35-20 33-16 28-6 18 7 4 26-15 49q-2 3-7 16t-13 28-12 28-7 16q0 2-1 7t-2 11-3 12-5 9-6-1-5-5m25 143q-16-5-25-16t-15-23-6-25 0-23 6-14 10-3q-1 42 10 64t27 27 38-2 43-26 42-41 33-51 20-51-1-47q-44 32-68 40t-34 1-6-27 14-43 29-48 35-39 35-21 28 10q11 16 14 41t-1 57-16 66-27 66-37 60-44 47-51 25-53-4m99-242q0 2-1 6t0 8 0 8 1 6q16 3 32-8t31-29 23-37 12-32-5-15-27 16q-6 5-16 14t-19 20-19 22-12 21m434 167q-6-14-2-31t14-34 23-36 25-40 20-41 8-44q-2-4-9-15t-16-24-20-30-21-32-18-29-12-23-2-13 10 1q7 6 17 20t21 31 23 36 21 32 17 23 11 6q5-9 14-31t21-46 23-50 22-43 19-24 11 7q2 7-4 26t-18 44-28 57-33 65-35 67-32 65-27 57-16 44q-1 5-5 9t-7 7-8 0-7-11m207-68q-20-8-25-25t0-36 18-42 30-40 32-31 28-14q31-4 48 4t24 24 3 35-13 41-26 39-35 32-41 17-43-4m-5-28q4 16 17 18t29-7 35-23 34-33 26-37 10-32-14-21-43-2q-7 6-17 15t-23 20-22 23-20 26-12 27 0 26m387 28q-14-5-21-14t-13-20-6-24-5-25q-4-3-15 6t-26 21-32 26-32 20-29 2-20-25q-3-7 2-21t12-31 19-34 22-33 19-27 14-14q12 5 10 16t-8 25-20 31-22 32-17 30-4 26q11 4 27-5t34-25 38-37 36-40 29-34 18-19q11 5 11 16t-6 25-14 30-14 33-6 31 7 25l17 20h49q4 0 2 3t-6 6-7 6-5 4q-12 2-20 0t-18-6m386 0q-30-11-41-31t-9-45 15-53 34-56 43-55 48-50 44-39 33-24q17-11 29-11t19 8 10 19 2 26-3 28-7 24-8 16-9 0q-1-4 1-12t3-18 4-21 3-20 0-15-6-8q-17-4-41 8t-49 36-51 54-46 63-33 62-15 54 10 36 42 8q28-4 52-20t46-35 44-38 46-29q9-3 14 3t2 14q-2 8-17 22t-36 28-46 30-50 26-45 15-32 0m295 0q-20-8-25-25t0-36 18-42 30-40 32-31 28-14q31-4 48 4t24 24 3 35-13 41-26 39-35 32-41 17-43-4m-5-28q4 16 17 18t29-7 35-23 34-33 26-37 10-32-14-21-43-2q-7 6-17 15t-23 20-22 23-20 26-12 27 0 26m387 28q-14-5-21-14t-13-20-6-24-5-25q-4-3-15 6t-26 21-32 26-32 20-29 2-20-25q-3-7 2-21t12-31 19-34 22-33 19-27 14-14q12 5 10 16t-9 25-19 31-22 32-17 30-4 26q11 4 27-5t34-25 38-37 36-40 29-34 18-19q11 5 11 16t-6 25-14 30-14 33-6 31 7 25l17 20h49q4 0 2 3t-6 6-7 6-5 4q-12 2-20 0t-18-6m99 0q-14-10-19-26t-1-34 11-37 16-38 18-33 13-25q2-3 7-14t12-25 12-24 7-15q2-2 5-9t6-16 7-15 9-11 9-1 9 14q-2 5-9 20t-18 35-23 45-24 51-22 49-17 44-8 33 5 16q7 3 18 2t23-2 23-4 19-2q2 4-3 8t-13 8-21 5-22 3-18 1-11-3m342-6q-19-12-27-31t-12-40h-5q-40 32-69 48t-49 20-31-3-15-20 1-31 16-35 27-34 40-26 49-13 58 6l6-6 66-132q13 2 15 11t0 22-8 22-7 16q-2 3-6 12t-10 19-12 25-12 24-10 20-5 11q-9 18-8 38t2 39q2 9 8 14t12 11 14 9 11 10q-2 7-8 7t-12-2-12-6-7-5m-182-22q2 9 15 5t30-14 38-27 35-31 25-29 6-19q-15-9-34-9t-37 7-35 19-28 27-16 34 1 37m512 28q-3-7 1-13t10-9q30-15 59-26t57-21 56-23 56-34q64-37 99-69t45-58 3-46-29-32-50-17-61 1-62 19-53 40q0 1-1 4t-2 5-1 5-1 3q-15 35-27 61t-25 48-22 49-19 63q-9 3-13 0t-4-11 2-16 5-18 6-16 4-10q4-12 12-29t18-38 17-37 13-30q-5-14-2-25t10-20 16-16 20-15q28-21 60-32t66-12 66 8 63 32q23 19 27 42t-6 47-34 50-53 48-65 46-71 41-69 34-60 22-42 10-19-5m429 0q-21-8-26-25t0-36 19-42 29-40 33-31 28-14q30-4 47 4t24 24 4 35-13 41-26 39-35 32-41 17-43-4m-6-28q4 16 17 18t30-7 35-23 34-33 25-37 10-32-13-21-43-2q-7 6-18 15t-22 20-23 23-19 26-12 27-1 26" />
</svg>