<svg id="fnt-Noticia Text" viewBox="0 0 2765 1000" xmlns="http://www.w3.org/2000/svg"><path id="noticia-text" class="f" d="M55 634v-265l-37-9 4-24h103l160 297h4v-264l-38-9 5-24h99l5 24-37 9v298h-70l-160-298h-4v265l37 9-5 24h-99l-4-24 37-9m453 38q-54 0-82-28t-29-80v-22q0-68 31-107t82-39q53 0 83 29t30 81v23q0 65-31 104t-84 39m71-128v-29q0-42-20-65t-54-24q-13 0-27 4t-22 10q-6 15-10 38t-5 49v29q0 41 22 64t52 23q12 0 25-4t24-11q8-16 11-38t4-46m157-142h71l5 24-76 8v157q0 26 8 39t31 13q8 0 17-3t20-7v23q-11 7-26 12t-29 4q-34 0-49-18t-16-53v-167l-39-8 5-24h34l18-72 26 5v67m154 232v-200l-37-8 5-24 76-6v238l38 9-5 24h-109l-5-24 37-9m-11-309q0-14 7-24t17-10q14 0 24 7t10 17q0 14-8 24t-16 10q-14 0-24-8t-10-16m133 244v-22q0-73 31-112t85-39q18 0 37 4t37 12l5 57-27 6-17-44q-8-3-17-4t-19-1q-15 0-29 3t-28 11q-5 15-10 39t-4 53v26q0 40 22 62t55 23q18 0 36-5t36-13v23q-17 11-39 17t-45 7q-51 0-80-26t-29-77m277 65v-200l-38-8 5-24 77-6v238l37 9-5 24h-109l-5-24 38-9m-12-309q0-14 8-24t16-10q14 0 24 7t10 17q0 14-7 24t-17 10q-14 0-24-8t-10-16m339 162v147l42 9-5 24-62 5-14-43q-19 23-41 33t-47 10q-34 0-55-17t-21-46q0-45 40-68t119-23v-23q0-36-13-53t-47-16q-8 0-18 1t-18 2l-15 52-24-2v-69q15-6 36-10t44-4q50 0 74 22t25 69m-44 125v-64q-37 0-65 5t-43 12q-3 7-5 16t-2 19q0 20 13 31t36 12q18 0 36-9t30-22m346 22v-266h-74l-15 41-24-2 4-71h264l3 71-24 2-15-41h-73v266l37 9-4 24h-112l-5-24 38-9m395-95h-166v19q0 41 23 63t54 22q20 0 39-5t37-11v23q-21 12-45 17t-46 5q-50 0-78-27t-28-79v-21q0-70 31-109t85-40q50 0 72 26t22 88v29m-151-99q-6 14-9 34t-5 36h118q0-45-12-65t-42-19q-14 0-28 4t-22 10m181 227l-5-24 23-4 81-105-79-104-21-4 4-24h86l5 24-23 3 57 75h4l56-74-23-4 5-24h74l5 24-22 4-79 100 82 109 23 4-5 24h-87l-5-24 23-4-60-79h-4l-59 79 24 4-5 24h-75m345-265h70l5 24-75 8v157q0 26 7 39t31 13q8 0 18-3t19-7v23q-11 7-25 12t-30 4q-34 0-49-18t-15-53v-167l-40-8 5-24h35l17-72 27 5v67" />
</svg>