<svg id="fnt-Noto Sans Display" viewBox="0 0 4001 1000" xmlns="http://www.w3.org/2000/svg"><path id="noto-sans-display" class="f" d="M314 310v357h-52l-177-297h-2q0 9 1 20t1 24 1 26 1 27v200h-41v-357h52l176 295h2q0-6-1-17t-1-24-1-27 0-26v-201h41m306 222q0 34-9 59t-23 44-38 27-49 10q-25 0-46-10t-37-27-24-44-9-59q0-44 14-75t41-47 63-16q34 0 60 16t42 47 15 75m-190 0q0 32 8 55t23 36 41 12 41-12 24-36 8-55q0-32-8-54t-24-35-41-12q-38 0-55 27t-17 74m341 104q9 0 19-2t17-4v34q-7 3-20 5t-24 3q-20 0-37-8t-28-25-10-50v-156h-35v-21l36-18 17-57h26v62h73v34h-73v155q0 24 11 36t28 12m306-104q0 34-8 59t-24 44-37 27-49 10q-25 0-47-10t-37-27-24-44-8-59q0-44 14-75t41-47 62-16q35 0 61 16t41 47 15 75m-189 0q0 32 7 55t24 36 41 12 41-12 23-36 8-55q0-32-8-54t-23-35-42-12q-37 0-54 27t-17 74m573 39q0 32-15 54t-42 35-63 12q-19 0-36-2t-32-6-25-9v-43q18 8 43 14t52 7q24 0 40-7t25-20 8-31-7-29-24-23-47-21q-27-11-47-25t-29-34-10-47q0-29 14-49t38-31 56-11q28 0 51 5t42 15l-14 38q-18-8-38-13t-42-6q-20 0-34 7t-21 18-7 27q0 18 7 30t23 22 43 20q29 12 49 25t31 32 11 46m158-177q46 0 68 22t23 68v183h-31l-9-38h-2q-11 14-22 24t-26 14-36 5q-23 0-41-9t-28-26-11-45q0-40 30-62t91-23l42-2v-16q0-33-13-46t-38-13q-19 0-37 6t-34 14l-13-33q17-9 39-16t48-7m48 142l-36 1q-46 2-64 16t-18 40q0 22 13 33t32 10q31 0 52-19t21-57v-24m244-142q45 0 68 23t23 75v175h-43v-172q0-32-14-48t-41-16q-41 0-57 25t-16 72v139h-43v-268h35l6 36h3q8-14 20-23t28-14 31-4m334 199q0 26-12 43t-35 27-54 9q-26 0-46-5t-33-12v-40q15 8 37 14t43 7q31 0 44-11t14-28q0-10-5-18t-19-16-38-18q-24-10-41-20t-27-24-9-36q0-34 26-53t69-18q23 0 43 4t38 14l-14 35q-11-5-22-9t-24-6-23-2q-25 0-38 8t-13 24q0 11 6 19t20 15 38 17 41 20 25 24 9 36m458-108q0 60-21 100t-60 61-95 21h-93v-357h103q51 0 88 20t58 58 20 97m-47 1q0-47-14-78t-43-45-67-15h-54v280h45q67 0 100-36t33-106m116-87h43v268h-43v-268m22-101q10 0 17 7t8 21q0 14-8 21t-17 7q-11 0-18-7t-8-21q0-14 8-21t18-7m266 295q0 26-13 43t-34 27-54 9q-27 0-46-5t-34-12v-40q16 8 37 14t44 7q30 0 44-11t14-28q0-10-6-18t-18-16-38-18q-24-10-42-20t-26-24-9-36q0-34 26-53t69-18q23 0 43 4t38 14l-15 35q-10-5-22-9t-23-6-24-2q-24 0-37 8t-13 24q0 11 6 19t19 15 38 17 41 20 26 24 9 36m182-199q46 0 74 34t29 104q0 46-13 77t-37 47-54 16q-19 0-34-6t-25-14-18-19h-3q1 8 2 21t1 23v110h-44v-388h36l6 36h2q7-11 18-21t25-15 35-5m-9 37q-25 0-40 10t-22 31-7 52v8q0 33 6 56t22 35 42 12q23 0 37-13t22-37 7-53q0-46-17-74t-50-27m220-144v380h-43v-380h43m176 107q46 0 68 22t23 68v183h-31l-9-38h-2q-11 14-22 24t-26 14-36 5q-23 0-41-9t-28-26-11-45q0-40 30-62t91-23l42-2v-16q0-33-13-46t-38-13q-19 0-37 6t-34 14l-13-33q17-9 39-16t48-7m48 142l-36 1q-46 2-64 16t-18 40q0 22 13 33t32 10q31 0 52-19t21-57v-24m183 132l-101-269h47l53 152q5 14 9 26t7 24 5 23h1q3-12 9-33t12-40l51-152h47l-108 305q-9 25-22 43t-29 29-42 11q-11 0-20-2t-15-2v-35q5 1 13 2t15 1q15 0 25-6t18-17 13-25l12-35" />
</svg>