<svg id="fnt-Noto Emoji" viewBox="0 0 2673 1000" xmlns="http://www.w3.org/2000/svg"><path id="noto-emoji" class="f" d="M275 337h38v330h-49l-138-221-35-62h-1l2 50v233h-38v-330h50l137 220 36 63h0l-2-50v-233m242 75q36 0 63 15t43 45 15 70-15 69-43 45-63 16q-35 0-62-16t-43-45-16-69 16-70 43-45 62-15m0 34q-25 0-43 12t-28 32-10 52q0 29 10 51t28 33 43 11 44-11 27-33 10-51q0-30-10-52t-27-32-44-12m216-89l40-11v252q0 18 10 27t27 9q15 0 25-5t19-13l14 33q-11 11-27 17t-36 6q-19 0-36-7t-26-22-10-38v-248m-50 60h181v34h-181v-34m344-5q35 0 62 15t43 45 16 70-16 69-43 45-62 16q-35 0-63-16t-43-45-15-69 15-70 43-45 63-15m0 34q-26 0-44 12t-28 32-9 52q0 29 9 51t28 33 44 11 43-11 28-33 10-51q0-30-10-52t-28-32-43-12m613 221h-239v-330h232v37h-192v107h149v37h-149v111h199v38m113 0h-40v-250h35l2 39q14-23 35-34t45-10q27 0 50 12t36 37q8-17 23-28t31-16 33-5q24 0 46 10t36 31 14 54v160h-40v-156q0-34-17-49t-42-15q-20 0-37 9t-27 28-10 46v137h-40v-156q0-34-17-49t-42-15q-17 0-34 8t-29 28-11 50v134m540-255q35 0 62 15t43 45 16 70-16 69-43 45-62 16q-35 0-63-16t-43-45-15-69 15-70 43-45 63-15m0 34q-26 0-44 12t-28 32-9 52q0 29 9 51t28 33 44 11 43-11 28-33 10-51q0-30-10-52t-28-32-43-12m216-77q-13 0-22-9t-8-21 8-22 22-8 22 8 8 22-8 21-22 9m-20 48h40v275q0 31-12 49t-29 26-35 7q-15 0-28-5t-22-11l9-38q7 6 17 11t24 4q16 0 26-10t10-37v-271m153-48q-13 0-22-9t-8-21 8-22 22-8 22 8 8 22-8 21-22 9m-20 48h40v250h-40v-250" />
</svg>