<svg id="fnt-Noto Serif Balinese" viewBox="0 0 4497 1000" xmlns="http://www.w3.org/2000/svg"><path id="noto-serif-balinese" class="f" d="M145 667h-126v-21h7q17 0 29-7t12-29v-245q0-22-13-28t-28-6h-7v-21h92l179 276v-221q0-22-13-28t-28-6h-7v-21h126v21h-7q-17 0-29 6t-12 30v300h-35l-188-288v231q0 23 12 29t29 7h7v21m380 5q-54 0-85-35t-31-105q0-70 30-104t88-34q54 0 85 34t31 104q0 71-30 105t-88 35m1-26q38 0 53-29t15-85-15-84-53-28-53 28-15 84 15 85 53 29m264 26q-38 0-55-18t-17-60v-167h-38v-20q9 0 20-4t19-12q8-9 14-22t9-32h23v62h65v28h-65v169q0 25 10 37t28 12q9 0 16-1t16-2v22q-7 3-20 5t-25 3m200 0q-54 0-85-35t-31-105q0-70 29-104t88-34q54 0 85 34t31 104q0 71-30 105t-87 35m1-26q37 0 52-29t16-85-16-84-53-28-53 28-15 84 16 85 53 29m397 26q-49 0-74-20t-25-51q0-15 9-24t27-9q1 20 8 38t21 30 38 11q34 0 53-16t19-47q0-18-8-31t-24-24-46-23q-46-19-69-44t-23-67q0-28 14-49t39-31 57-10q44 0 69 17t24 39q0 16-11 24t-28 8q0-15-6-30t-17-24-33-9q-29 0-45 15t-16 42q0 20 7 33t24 25 46 23q44 18 69 41t24 62q0 48-33 74t-90 27m292 0q-54 0-85-36t-31-101q0-70 29-106t82-35q49 0 76 30t28 89v23h-166q1 55 19 79t55 25q26 0 44-11t28-24q3 2 6 6t3 11q0 10-9 22t-29 19-50 9m-66-163h115q0-40-13-64t-42-24q-27 0-43 22t-17 66m351 158h-144v-21h1q17 0 29-7t12-29v-156q0-22-12-28t-29-6h-1v-21h77l9 49h3q6-15 14-27t20-20 34-7q28 0 41 9t13 27q0 16-11 26t-35 10q0-21-6-30t-21-9q-14 0-23 11t-15 28-8 35-3 33v78q0 22 12 28t29 6h14v21m155-318q-12 0-20-7t-8-24q0-18 8-25t20-6q12 0 20 6t9 25q0 17-9 24t-20 7m73 318h-142v-21h7q16 0 28-6t13-28v-158q0-22-13-28t-28-6h-2v-21h90v211q0 23 12 29t29 7h6v21m175 0h-155v-21h7q17 0 29-7t12-29v-188h-46v-23h46v-25q0-45 23-69t65-23q39 0 55 9t15 26q0 13-11 20t-30 8q0-15-7-28t-26-12q-21 0-29 16t-8 48v30h70v23h-70v188q0 23 12 29t29 7h19v21m314 0h-149v-21h7q17 0 29-7t12-29v-245q0-22-13-28t-28-6h-7v-21h134q65 0 97 21t32 68q0 34-18 52t-44 27v2q34 6 55 28t22 62q0 97-129 97m-51-200h35q44 0 60-16t16-52q0-37-17-51t-60-13h-34v132m0 175h49q42 0 60-17t17-56q0-39-16-58t-60-19h-50v150m313 30q-34 0-56-20t-22-60q0-40 28-59t86-21l42-2v-30q0-18-3-32t-13-21-31-8q-19 0-29 7t-13 19-3 28q-21 0-32-7t-11-24q0-18 12-28t33-16 45-4q46 0 69 19t23 67v130q0 21 7 28t24 8h1v21h-67l-8-43h-4q-11 14-21 24t-23 17-34 7m11-31q31 0 49-19t18-51v-40l-32 1q-43 2-59 17t-16 45q0 47 40 47m316 26h-142v-21h7q17 0 29-7t12-29v-268q0-22-13-28t-28-6h-7v-21h95v323q0 23 12 29t29 7h6v21m87-318q-12 0-20-7t-8-24q0-18 8-25t20-6q12 0 20 6t9 25q0 17-9 24t-20 7m73 318h-142v-21h7q16 0 28-6t13-28v-158q0-22-13-28t-28-6h-2v-21h90v211q0 23 12 29t29 7h6v21m155 0h-134v-21h4q17 0 29-7t12-29v-156q0-22-12-28t-28-6h-3v-21h81l7 40h2q16-28 35-37t43-8q40 0 62 23t22 75v118q0 23 10 29t28 7h2v21h-87v-173q0-32-12-50t-43-18q-22 0-36 11t-19 30-5 40v105q0 22 11 28t29 6h2v21m318 5q-55 0-86-36t-30-101q0-70 29-106t82-35q48 0 76 30t28 89v23h-167q1 55 20 79t55 25q26 0 44-11t27-24q4 2 7 6t3 11q0 10-10 22t-29 19-49 9m-67-163h115q0-40-12-64t-42-24q-28 0-43 22t-18 66m296 163q-38 0-60-14t-23-39q0-14 6-21t12-11 14-3q0 26 11 45t43 19q26 0 40-13t15-33q0-12-6-20t-18-16-38-18q-25-12-42-23t-25-25-8-35q0-34 25-53t69-18q36 0 54 14t19 32q0 14-10 22t-26 8q0-25-11-39t-32-14q-26 0-37 11t-11 29q0 19 14 29t48 24q27 11 43 22t24 26 8 35q0 39-27 59t-71 20m264 0q-55 0-86-36t-30-101q0-70 29-106t82-35q48 0 76 30t28 89v23h-167q1 55 20 79t55 25q26 0 44-11t27-24q4 2 7 6t3 11q0 10-10 22t-29 19-49 9m-67-163h115q0-40-12-64t-42-24q-28 0-43 22t-18 66" />
</svg>