<svg id="fnt-Noto Sans Mayan Numerals" viewBox="0 0 6510 1000" xmlns="http://www.w3.org/2000/svg"><path id="noto-sans-mayan-numerals" class="f" d="M332 310v357h-53l-191-297h-2q1 18 3 44t1 53v200h-41v-357h52l190 295h2q0-8-1-24t-2-35 0-35v-201h42m324 222q0 67-34 103t-91 37q-36 0-64-17t-43-47-16-76q0-66 33-102t91-36q37 0 64 16t44 47 16 75m-203 0q0 48 19 75t60 28q40 0 59-28t19-75-19-74-60-27-59 27-19 74m362 104q10 0 20-2t17-4v34q-7 3-20 5t-25 3q-21 0-39-8t-28-25-11-50v-156h-38v-21l38-18 18-57h26v62h77v34h-77v155q0 24 11 36t31 12m324-104q0 67-34 103t-91 37q-36 0-64-17t-43-47-16-76q0-66 33-102t91-36q37 0 64 16t44 47 16 75m-203 0q0 48 19 75t60 28q40 0 59-28t19-75-19-74-60-27-59 27-19 74m611 39q0 48-35 74t-93 27q-30 0-55-5t-43-12v-43q18 8 45 14t55 7q40 0 60-16t21-42q0-17-8-29t-26-23-50-21q-46-17-69-41t-23-65q0-29 14-49t40-31 60-11q29 0 54 5t44 15l-14 38q-18-8-40-13t-45-6q-34 0-51 14t-17 38q0 18 8 30t24 22 46 20q32 12 53 25t33 32 12 46m167-177q49 0 73 22t23 68v183h-32l-8-38h-2q-18 22-37 32t-53 11q-37 0-61-20t-24-60q0-40 32-62t97-23l45-2v-16q0-33-14-46t-41-13q-21 0-40 6t-36 14l-13-33q17-9 41-16t50-7m53 142l-40 1q-50 2-69 16t-19 40q0 22 13 33t36 10q34 0 56-19t23-57v-24m255-142q48 0 73 23t24 75v175h-43v-172q0-64-60-64-45 0-62 25t-17 72v139h-44v-268h36l6 36h3q13-21 36-31t48-10m355 199q0 39-29 59t-78 20q-28 0-49-5t-35-12v-40q16 8 38 14t47 7q33 0 48-11t15-28q0-10-5-18t-20-16-41-18q-26-10-44-20t-29-24-10-36q0-34 28-53t73-18q24 0 45 4t40 14l-15 35q-17-7-35-12t-38-5q-27 0-42 8t-14 24q0 11 7 19t21 15 41 17q26 10 44 20t27 24 10 36m395 74h-37l-117-313h-2q1 15 2 41t1 55v217h-41v-357h66l110 292h2l112-292h66v357h-44v-220q0-26 1-51t2-42h-2l-119 313m355-273q49 0 72 22t24 68v183h-32l-9-38h-2q-17 22-37 32t-53 11q-36 0-60-20t-24-60q0-40 31-62t97-23l46-2v-16q0-33-15-46t-41-13q-21 0-40 6t-35 14l-14-33q18-9 42-16t50-7m52 142l-39 1q-50 2-70 16t-19 40q0 22 14 33t35 10q34 0 57-19t22-57v-24m193 132l-108-269h47l58 152q7 20 13 38t9 35h2q3-12 10-33t13-40l55-152h47l-115 305q-14 38-37 60t-61 23q-12 0-21-2t-15-2v-35q5 1 13 2t16 1q23 0 37-13t23-35l14-35m290-274q49 0 73 22t23 68v183h-32l-8-38h-2q-18 22-37 32t-53 11q-37 0-61-20t-24-60q0-40 32-62t97-23l45-2v-16q0-33-14-46t-41-13q-21 0-40 6t-36 14l-13-33q17-9 41-16t50-7m53 142l-40 1q-50 2-69 16t-19 40q0 22 13 33t36 10q34 0 56-19t23-57v-24m255-142q48 0 73 23t24 75v175h-43v-172q0-64-60-64-45 0-62 25t-17 72v139h-44v-268h36l6 36h3q13-21 36-31t48-10m599-84v357h-52l-191-297h-2q1 18 2 44t2 53v200h-42v-357h52l191 295h2q-1-8-2-24t-1-35-1-35v-201h42m271 89h44v268h-36l-6-36h-2q-13 21-36 31t-49 10q-49 0-73-24t-25-74v-175h45v172q0 64 59 64 45 0 62-25t17-72v-139m423-5q46 0 68 23t23 75v175h-44v-173q0-63-54-63-39 0-56 22t-17 66v148h-43v-173q0-63-55-63-41 0-56 25t-16 72v139h-44v-268h36l6 36h3q12-21 33-31t46-10q63 0 82 45h2q14-23 37-34t49-11m277 0q35 0 59 15t38 42 14 64v26h-184q1 46 23 69t63 24q25 0 45-5t41-13v38q-21 9-41 13t-47 5q-38 0-68-16t-45-46-16-75q0-44 14-76t42-48 62-17m0 36q-32 0-50 20t-22 56h137q-1-34-16-55t-49-21m304-36q7 0 16 0t15 3l-5 40q-7-1-15-2t-14-1q-21 0-39 11t-29 31-10 48v143h-44v-268h36l5 49h2q13-22 33-38t49-16m183 0q49 0 72 22t24 68v183h-32l-9-38h-2q-17 22-37 32t-53 11q-36 0-60-20t-24-60q0-40 31-62t97-23l46-2v-16q0-33-15-46t-41-13q-21 0-40 6t-35 14l-14-33q18-9 42-16t50-7m52 142l-39 1q-50 2-70 16t-19 40q0 22 14 33t35 10q34 0 57-19t22-57v-24m171-249v380h-44v-380h44m259 306q0 39-29 59t-78 20q-28 0-48-5t-36-12v-40q16 8 39 14t46 7q34 0 49-11t15-28q0-10-6-18t-20-16-40-18q-26-10-45-20t-28-24-10-36q0-34 27-53t73-18q25 0 46 4t40 14l-15 35q-17-7-36-12t-38-5q-27 0-41 8t-14 24q0 11 6 19t22 15 41 17q25 10 43 20t28 24 9 36" />
</svg>