<svg id="fnt-Noto Sans Canadian Aboriginal" viewBox="0 0 7299 1000" xmlns="http://www.w3.org/2000/svg"><path id="noto-sans-canadian-aboriginal" class="f" d="M332 310v357h-53l-191-297h-2q1 12 2 27t1 34 1 36v200h-41v-357h52l190 295h2q0-8-1-24t-2-35 0-35v-201h42m324 222q0 45-16 76t-43 47-66 17q-36 0-64-17t-43-47-16-76q0-66 33-102t91-36q37 0 64 16t44 47 16 75m-203 0q0 32 8 55t26 36 45 12 44-12 26-36 8-55q0-32-8-54t-26-35-45-12q-41 0-59 27t-19 74m362 104q10 0 20-2t17-4v34q-7 3-20 5t-25 3q-21 0-39-8t-28-25-11-50v-156h-38v-21l38-18 18-57h26v62h77v34h-77v155q0 24 11 36t31 12m324-104q0 45-16 76t-43 47-66 17q-36 0-64-17t-43-47-16-76q0-66 33-102t91-36q37 0 64 16t44 47 16 75m-203 0q0 32 8 55t26 36 45 12 44-12 26-36 8-55q0-32-8-54t-26-35-45-12q-41 0-59 27t-19 74m627 39q0 32-15 54t-45 35-67 12q-20 0-39-2t-33-6-26-9v-43q18 8 44 14t56 7q26 0 44-7t27-20 9-31-7-29-26-23-51-21q-30-11-51-25t-31-34-10-47q0-29 15-49t40-31 59-11q30 0 54 5t45 15l-14 38q-19-8-41-13t-45-6q-22 0-37 7t-23 18-7 27q0 18 7 30t25 22 46 20q31 12 53 25t33 32 11 46m168-177q49 0 72 22t24 68v183h-32l-9-38h-2q-11 14-24 24t-28 14-38 5q-36 0-60-20t-24-60q0-40 31-62t97-23l46-2v-16q0-33-15-46t-41-13q-21 0-40 6t-35 14l-14-33q18-9 42-16t50-7m52 142l-39 1q-50 2-70 16t-19 40q0 22 14 33t35 10q34 0 57-19t22-57v-24m256-142q48 0 72 23t25 75v175h-44v-172q0-32-14-48t-46-16q-44 0-61 25t-17 72v139h-44v-268h35l7 36h2q9-14 22-23t30-14 33-4m354 199q0 26-13 43t-37 27-57 9q-28 0-48-5t-36-12v-40q16 8 39 14t46 7q34 0 49-11t15-28q0-10-6-18t-20-16-40-18q-26-10-45-20t-28-24-10-36q0-34 27-53t73-18q25 0 46 4t40 14l-15 35q-17-7-36-12t-38-5q-27 0-41 8t-14 24q0 11 6 19t22 15 41 17q25 10 43 20t28 24 9 36m371-249q-38 0-66 17t-43 50-15 77q0 44 14 77t41 50 68 17q24 0 45-4t41-10v39q-20 8-42 11t-50 4q-55 0-91-23t-55-64-18-97q0-54 19-96t59-64 93-23q28 0 53 5t46 16l-18 38q-17-8-37-14t-44-6m258 50q49 0 73 22t23 68v183h-32l-8-38h-2q-12 14-24 24t-28 14-38 5q-37 0-61-20t-24-60q0-40 32-62t97-23l45-2v-16q0-33-14-46t-41-13q-21 0-40 6t-36 14l-13-33q17-9 41-16t50-7m53 142l-40 1q-50 2-69 16t-19 40q0 22 13 33t36 10q34 0 56-19t23-57v-24m255-142q48 0 73 23t24 75v175h-43v-172q0-32-15-48t-45-16q-45 0-62 25t-17 72v139h-44v-268h36l6 36h3q9-14 22-23t29-14 33-4m282 0q49 0 72 22t24 68v183h-32l-9-38h-2q-11 14-24 24t-28 14-38 5q-36 0-60-20t-24-60q0-40 31-62t97-23l46-2v-16q0-33-15-46t-41-13q-21 0-40 6t-35 14l-14-33q18-9 42-16t50-7m52 142l-39 1q-50 2-70 16t-19 40q0 22 14 33t35 10q34 0 57-19t22-57v-24m222 136q-50 0-80-35t-30-104 30-104 80-35q31 0 51 11t32 28h3q0-6-2-19t-1-20v-107h44v380h-35l-7-36h-2q-12 17-32 29t-51 12m7-37q42 0 59-23t18-70v-8q0-50-17-77t-61-27q-35 0-53 28t-18 76q0 48 18 75t54 26m205-236h44v268h-44v-268m23-101q10 0 17 7t8 21q0 14-8 21t-17 7q-11 0-19-7t-7-21q0-14 7-21t19-7m208 96q49 0 72 22t24 68v183h-32l-9-38h-2q-11 14-24 24t-28 14-38 5q-36 0-60-20t-24-60q0-40 31-62t97-23l46-2v-16q0-33-15-46t-41-13q-21 0-40 6t-35 14l-14-33q18-9 42-16t50-7m52 142l-39 1q-50 2-70 16t-19 40q0 22 14 33t35 10q34 0 57-19t22-57v-24m256-142q48 0 72 23t25 75v175h-44v-172q0-32-14-48t-46-16q-44 0-61 25t-17 72v139h-44v-268h35l7 36h2q9-14 22-23t30-14 33-4m603 273h-47l-43-111h-141l-43 111h-45l139-359h41l139 359m-103-151l-40-108q-2-4-5-14t-7-22-5-17q-3 10-6 20t-5 19-5 14l-40 108h113m190-229v92q0 17-1 32t-2 23h3q11-17 31-28t52-12q50 0 80 35t30 104q0 46-14 77t-38 46-58 16q-32 0-52-12t-31-27h-4l-9 34h-31v-380h44m75 144q-42 0-59 24t-16 76v2q0 50 16 76t60 26q36 0 54-26t18-77q0-101-73-101m421 101q0 45-15 76t-43 47-67 17q-35 0-63-17t-44-47-16-76q0-66 34-102t91-36q36 0 64 16t43 47 16 75m-202 0q0 32 8 55t26 36 44 12 45-12 25-36 9-55q0-32-9-54t-26-35-44-12q-41 0-60 27t-18 74m397-138q7 0 16 0t15 3l-5 40q-7-1-15-2t-14-1q-21 0-39 11t-29 31-10 48v143h-44v-268h36l5 49h2q13-22 33-38t49-16m81 5h44v268h-44v-268m23-101q10 0 17 7t8 21q0 14-8 21t-17 7q-11 0-19-7t-7-21q0-14 7-21t19-7m201 96q27 0 48 10t36 30h3l6-35h35v272q0 38-13 64t-40 39-67 13q-29 0-54-5t-43-12v-41q19 10 45 16t54 5q35 0 54-20t20-55v-11q0-6 1-17t1-16h-2q-14 21-35 31t-48 10q-52 0-82-37t-29-102q0-64 29-102t81-37m6 37q-33 0-52 26t-18 77 18 75 53 27q21 0 35-6t24-16 14-29 5-41v-11q0-36-9-59t-25-33-45-10m207-32h44v268h-44v-268m22-101q10 0 18 7t8 21q0 14-8 21t-18 7q-11 0-18-7t-8-21q0-14 8-21t18-7m236 96q48 0 72 23t25 75v175h-44v-172q0-32-14-48t-46-16q-44 0-61 25t-17 72v139h-44v-268h35l7 36h2q9-14 22-23t30-14 33-4m281 0q49 0 73 22t23 68v183h-32l-8-38h-2q-12 14-24 24t-28 14-38 5q-37 0-61-20t-24-60q0-40 32-62t97-23l45-2v-16q0-33-14-46t-41-13q-21 0-40 6t-36 14l-13-33q17-9 41-16t50-7m53 142l-40 1q-50 2-69 16t-19 40q0 22 13 33t36 10q34 0 56-19t23-57v-24m170-249v380h-44v-380h44" />
</svg>