<svg id="fnt-Noto Sans Sinhala" viewBox="0 0 4201 1000" xmlns="http://www.w3.org/2000/svg"><path id="noto-sans-sinhala" class="f" d="M332 310v357h-53l-191-297h-2q1 12 2 27t1 34 1 36v200h-41v-357h52l190 295h2q0-8-1-24t-2-35 0-35v-201h42m324 222q0 34-9 60t-25 43-40 27-51 10q-27 0-49-10t-39-27-26-43-9-60q0-44 15-75t43-47 66-16q36 0 64 16t44 47 16 75m-203 0q0 32 8 55t26 36 45 12 44-12 26-36 8-55-8-54-26-35-45-12q-41 0-59 27t-19 74m362 104q10 0 20-2t17-4v34q-7 3-20 5t-25 3q-21 0-39-8t-28-25-11-50v-156h-38v-21l38-18 18-57h26v62h77v34h-77v155q0 24 11 36t31 12m324-104q0 34-9 60t-25 43-40 27-51 10q-27 0-49-10t-39-27-26-43-9-60q0-44 15-75t43-47 66-16q36 0 64 16t44 47 16 75m-203 0q0 32 8 55t26 36 45 12 44-12 26-36 8-55-8-54-26-35-45-12q-41 0-59 27t-19 74m611 39q0 32-16 54t-44 35-68 12q-20 0-38-2t-33-6-27-9v-43q18 8 45 14t55 7q27 0 45-7t27-20 9-31-8-29-26-22-50-22q-23-8-41-18t-28-23-18-28-5-37q0-28 14-49t40-31 60-11q29 0 53 5t45 15l-14 38q-18-8-40-13t-45-6q-23 0-38 7t-22 18-8 27q0 18 8 30t24 22 46 20q32 12 53 25t33 32 12 46m167-177q49 0 73 22t23 68v183h-32l-8-38h-2q-12 15-24 24t-28 14-38 5q-25 0-44-9t-30-26-11-45q0-40 32-62t97-23l45-2v-16q0-33-14-46t-41-13q-21 0-40 6t-36 14l-13-33q17-9 41-16t50-7m53 166v-24l-40 1q-50 2-69 16t-19 40q0 22 13 33t36 10q33 0 56-19t23-57m255-166q48 0 73 23t24 75v175h-43v-172q0-32-15-48t-45-16q-45 0-62 25t-17 72v139h-44v-268h36l6 36h3q9-14 22-23t29-14 33-4m355 199q0 26-13 43t-37 27-57 9q-28 0-49-5t-35-12v-40q16 8 38 14t47 7q33 0 48-11t15-28q0-10-5-18t-20-16-41-18q-26-10-44-20t-29-24-10-36q0-34 28-53t73-18q24 0 45 5t40 13l-15 35q-17-7-35-12t-38-5q-27 0-42 8t-14 24q0 12 7 19t21 15 41 17 44 20 27 24 10 36m403-22q0 32-15 54t-45 35-67 12q-20 0-39-2t-33-6-26-9v-43q18 8 44 14t56 7q26 0 44-7t27-20 9-31-7-29-26-22-51-22q-23-8-40-18t-29-23-17-28-6-37q0-28 15-49t40-31 59-11q29 0 54 5t45 15l-14 38q-19-8-41-13t-45-6q-22 0-37 7t-23 18-7 27q0 18 7 30t25 22 46 20q31 12 53 25t33 32 11 46m66-172h44v268h-44v-268m23-101q10 0 17 7t8 21-8 21-17 7q-11 0-19-7t-7-21 7-21 19-7m235 96q48 0 73 23t24 75v175h-43v-172q0-32-15-48t-45-16q-45 0-62 25t-17 72v139h-44v-268h36l6 36h3q9-14 22-23t29-14 33-4m180-107h44v111q0 10-1 20t-1 18h3q8-14 21-23t29-14 33-5q33 0 54 10t33 32 11 56v175h-43v-172q0-32-15-48t-45-16q-30 0-47 11t-25 33-7 53v139h-44v-380m411 107q49 0 72 22t24 68v183h-32l-9-38h-2q-11 15-24 24t-28 14-38 5q-24 0-43-9t-30-26-11-45q0-40 31-62t97-23l46-2v-16q0-33-15-46t-41-13q-21 0-40 6t-35 14l-14-33q18-9 42-16t50-7m52 166v-24l-39 1q-50 2-70 16t-19 40q0 22 14 33t35 10q34 0 56-19t23-57m171-273v380h-44v-380h44m186 107q49 0 73 22t23 68v183h-32l-8-38h-2q-12 15-24 24t-28 14-38 5q-25 0-44-9t-30-26-11-45q0-40 32-62t97-23l45-2v-16q0-33-14-46t-41-13q-21 0-40 6t-36 14l-13-33q17-9 41-16t50-7m53 166v-24l-40 1q-50 2-69 16t-19 40q0 22 13 33t36 10q33 0 56-19t23-57" />
</svg>