<svg id="fnt-Noto Sans Egyptian Hieroglyphs" viewBox="0 0 7489 1000" xmlns="http://www.w3.org/2000/svg"><path id="noto-sans-egyptian-hieroglyphs" class="f" d="M332 310v357h-53l-191-297h-2q1 18 3 44t1 53v200h-41v-357h52l190 295h2q0-8-1-24t-2-35 0-35v-201h42m324 222q0 67-34 103t-91 37q-36 0-64-17t-43-47-16-76q0-66 33-102t91-36q37 0 64 16t44 47 16 75m-203 0q0 48 19 75t60 28q40 0 59-28t19-75-19-74-60-27-59 27-19 74m362 104q10 0 20-2t17-4v34q-7 3-20 5t-25 3q-21 0-39-8t-28-25-11-50v-156h-38v-21l38-18 18-57h26v62h77v34h-77v155q0 24 11 36t31 12m324-104q0 67-34 103t-91 37q-36 0-64-17t-43-47-16-76q0-66 33-102t91-36q37 0 64 16t44 47 16 75m-203 0q0 48 19 75t60 28q40 0 59-28t19-75-19-74-60-27-59 27-19 74m603 39q0 48-35 74t-93 27q-30 0-55-5t-43-12v-43q18 8 45 14t55 7q40 0 60-16t21-42q0-17-8-29t-26-23-50-21q-46-17-69-41t-23-65q0-29 14-49t40-31 60-11q29 0 54 5t44 15l-14 38q-18-8-40-13t-45-6q-34 0-51 14t-17 38q0 18 8 30t24 22 46 20q32 12 53 25t33 32 12 46m167-177q49 0 73 22t23 68v183h-32l-8-38h-2q-18 22-37 32t-53 11q-37 0-61-20t-24-60q0-40 32-62t97-23l45-2v-16q0-33-14-46t-41-13q-21 0-40 6t-36 14l-13-33q17-9 41-16t50-7m53 142l-40 1q-50 2-69 16t-19 40q0 22 13 33t36 10q34 0 56-19t23-57v-24m255-142q48 0 73 23t24 75v175h-43v-172q0-64-60-64-45 0-62 25t-17 72v139h-44v-268h36l6 36h3q13-21 36-31t48-10m355 199q0 39-29 59t-78 20q-28 0-49-5t-35-12v-40q16 8 38 14t47 7q33 0 48-11t15-28q0-10-5-18t-20-16-41-18q-26-10-44-20t-29-24-10-36q0-34 28-53t73-18q24 0 45 4t40 14l-15 35q-17-7-35-12t-38-5q-27 0-42 8t-14 24q0 11 7 19t21 15 41 17q26 10 44 20t27 24 10 36m392 34v40h-199v-357h199v39h-154v112h145v39h-145v127h154m168-233q26 0 47 10t37 30h2l6-35h35v272q0 58-29 87t-91 29q-59 0-96-17v-41q39 21 99 21 34 0 54-20t20-55v-11q0-6 0-17t1-16h-2q-27 41-83 41-52 0-81-37t-29-102q0-64 29-102t81-37m6 37q-34 0-52 26t-19 77 18 75 54 27q40 0 59-22t18-70v-11q0-55-19-79t-59-23m272 237l-108-269h47l58 152q8 20 14 38t9 35h2q3-12 9-33t14-40l54-152h48l-116 305q-14 38-36 60t-61 23q-12 0-21-2t-16-2v-35q6 1 13 2t17 1q23 0 37-13t22-35l14-35m317-274q49 0 79 34t31 104q0 69-31 104t-80 36q-31 0-51-12t-32-27h-3q1 8 2 21t1 23v110h-44v-388h36l6 36h2q12-17 32-29t52-12m-8 37q-41 0-58 23t-18 70v8q0 50 16 76t61 27q24 0 40-13t23-37 8-53q0-46-18-74t-54-27m277 205q10 0 21-2t17-4v34q-7 3-20 5t-25 3q-21 0-39-8t-29-25-11-50v-156h-38v-21l39-18 17-57h26v62h78v34h-78v155q0 24 12 36t30 12m114-338q10 0 17 7t8 21q0 14-8 21t-17 7q-11 0-19-7t-7-21q0-14 7-21t19-7m-23 101h44v268h-44v-268m231-5q49 0 72 22t24 68v183h-32l-9-38h-2q-17 22-37 32t-53 11q-36 0-60-20t-24-60q0-40 31-62t97-23l46-2v-16q0-33-15-46t-41-13q-21 0-40 6t-35 14l-14-33q18-9 42-16t50-7m52 142l-39 1q-50 2-70 16t-19 40q0 22 14 33t35 10q34 0 57-19t22-57v-24m256-142q48 0 72 23t25 75v175h-44v-172q0-64-60-64-44 0-61 25t-17 72v139h-44v-268h35l7 36h2q13-21 36-31t49-10m581-84v357h-45v-167h-183v167h-45v-357h45v151h183v-151h45m114-12q10 0 17 7t8 21q0 14-8 21t-17 7q-11 0-19-7t-7-21q0-14 7-21t19-7m-23 101h44v268h-44v-268m233-5q34 0 59 15t38 42 13 64v26h-183q1 46 23 69t62 24q26 0 45-5t41-13v38q-20 9-40 13t-48 5q-38 0-67-16t-46-46-16-75q0-44 15-76t41-48 63-17m-1 36q-31 0-50 20t-21 56h136q0-34-16-55t-49-21m304-36q8 0 16 0t16 3l-6 40q-6-1-14-2t-15-1q-20 0-38 11t-29 31-11 48v143h-44v-268h36l5 49h2q13-22 34-38t48-16m305 138q0 67-34 103t-91 37q-36 0-64-17t-43-47-16-76q0-66 33-102t91-36q37 0 64 16t44 47 16 75m-203 0q0 48 19 75t60 28q40 0 59-28t19-75-19-74-60-27-59 27-19 74m367-138q27 0 48 10t36 30h3l6-35h35v272q0 58-30 87t-90 29q-59 0-97-17v-41q40 21 99 21 35 0 54-20t20-55v-11q0-6 1-17t1-16h-2q-27 41-83 41-52 0-82-37t-29-102q0-64 29-102t81-37m6 37q-33 0-52 26t-18 77 18 75 53 27q41 0 59-22t19-70v-11q0-55-19-79t-60-23m251-144v380h-44v-380h44m151 381l-108-269h47l58 152q7 20 13 38t9 35h2q3-12 10-33t13-40l55-152h47l-115 305q-14 38-37 60t-61 23q-12 0-21-2t-15-2v-35q5 1 13 2t16 1q23 0 37-13t23-35l14-35m316-274q50 0 80 34t30 104q0 69-30 104t-80 36q-31 0-52-12t-31-27h-3q1 8 2 21t1 23v110h-44v-388h36l6 36h2q12-17 31-29t52-12m-8 37q-41 0-58 23t-17 70v8q0 50 16 76t60 27q25 0 40-13t24-37 8-53q0-46-18-74t-55-27m232-144v111q0 20-2 38h3q13-21 35-31t48-11q49 0 74 23t24 75v175h-43v-172q0-64-60-64-45 0-62 25t-17 72v139h-44v-380h44m440 306q0 39-29 59t-78 20q-28 0-49-5t-35-12v-40q16 8 38 14t47 7q33 0 48-11t15-28q0-10-5-18t-20-16-41-18q-26-10-44-20t-29-24-10-36q0-34 28-53t73-18q24 0 45 4t40 14l-15 35q-17-7-35-12t-38-5q-27 0-42 8t-14 24q0 11 7 19t21 15 41 17q26 10 44 20t27 24 10 36" />
</svg>