<svg id="fnt-Noto Sans Math" viewBox="0 0 3713 1000" xmlns="http://www.w3.org/2000/svg"><path id="noto-sans-math" class="f" d="M90 667h-41v-357h52l190 295h2q0-8-1-24t-2-35 0-35v-201h42v357h-53l-191-297h-2q2 18 3 44t1 53v200m441 5q-36 0-64-17t-43-47-16-76q0-66 33-102t91-36q37 0 64 16t44 47 16 75q0 67-34 103t-91 37m1-37q40 0 59-28t19-75-19-74-60-27-59 27-19 74 19 75 60 28m275 37q-21 0-39-8t-28-25-11-50v-156h-38v-21l38-18 18-57h26v62h77v34h-77v155q0 24 11 36t31 12q10 0 20-2t17-4v34q-7 3-20 5t-25 3m207 0q-36 0-64-17t-43-47-16-76q0-66 33-102t91-36q37 0 64 16t44 47 16 75q0 67-34 103t-91 37m1-37q40 0 59-28t19-75-19-74-60-27-59 27-19 74 19 75 60 28m404 37q-30 0-55-5t-43-12v-43q18 8 45 14t55 7q40 0 60-16t21-42q0-17-8-29t-26-23-50-21q-46-17-69-41t-23-65q0-29 14-49t40-31 60-11q29 0 54 5t44 15l-14 38q-18-8-40-13t-45-6q-34 0-51 14t-17 38q0 18 8 30t24 22 46 20q32 12 53 25t33 32 12 46q0 48-35 74t-93 27m259 0q-37 0-61-20t-24-60q0-40 32-62t97-23l45-2v-16q0-33-14-46t-41-13q-21 0-40 6t-36 14l-13-33q17-9 41-16t50-7q49 0 73 22t23 68v183h-32l-8-38h-2q-18 22-37 32t-53 11m10-36q34 0 56-19t23-57v-24l-40 1q-50 2-69 16t-19 40q0 22 13 33t36 10m249 31h-44v-268h36l6 36h3q13-21 36-31t48-10q48 0 73 23t24 75v175h-43v-172q0-64-60-64-45 0-62 25t-17 72v139m333 5q-28 0-49-5t-35-12v-40q16 8 38 14t47 7q33 0 48-11t15-28q0-10-5-18t-20-16-41-18q-26-10-44-20t-29-24-10-36q0-34 28-53t73-18q24 0 45 4t40 14l-15 35q-17-7-35-12t-38-5q-27 0-42 8t-14 24q0 11 7 19t21 15 41 17q26 10 44 20t27 24 10 36q0 39-29 59t-78 20m349-5h-41v-357h66l110 292h2l112-292h66v357h-44v-220q0-26 1-51t2-42h-2l-119 313h-37l-117-313h-2q1 15 2 41t1 55v217m471 5q-36 0-60-20t-24-60q0-40 31-62t97-23l46-2v-16q0-33-15-46t-41-13q-21 0-40 6t-35 14l-14-33q18-9 42-16t50-7q49 0 72 22t24 68v183h-32l-9-38h-2q-17 22-37 32t-53 11m10-36q34 0 57-19t22-57v-24l-39 1q-50 2-70 16t-19 40q0 22 14 33t35 10m288 36q-21 0-39-8t-29-25-11-50v-156h-38v-21l39-18 17-57h26v62h78v34h-78v155q0 24 12 36t30 12q10 0 21-2t17-4v34q-7 3-20 5t-25 3m142-5h-44v-380h44v111q0 20-2 38h3q13-21 35-31t48-11q49 0 74 23t24 75v175h-43v-172q0-64-60-64-45 0-62 25t-17 72v139" />
</svg>