<svg id="fnt-Noto Sans Cherokee" viewBox="0 0 4752 1000" xmlns="http://www.w3.org/2000/svg"><path id="noto-sans-cherokee" class="f" d="M332 310v357h-53l-191-297h-2q1 12 2 27t1 34 1 36v200h-41v-357h52l190 295h2q0-8-1-24t-2-35 0-35v-201h42m324 222q0 45-16 76t-43 47-66 17q-36 0-64-17t-43-47-16-76q0-66 33-102t91-36q37 0 64 16t44 47 16 75m-203 0q0 32 8 55t26 36 45 12 44-12 26-36 8-55q0-32-8-54t-26-35-45-12q-41 0-59 27t-19 74m362 104q10 0 20-2t17-4v34q-7 3-20 5t-25 3q-21 0-39-8t-28-25-11-50v-156h-38v-21l38-18 18-57h26v62h77v34h-77v155q0 24 11 36t31 12m324-104q0 45-16 76t-43 47-66 17q-36 0-64-17t-43-47-16-76q0-66 33-102t91-36q37 0 64 16t44 47 16 75m-203 0q0 32 8 55t26 36 45 12 44-12 26-36 8-55q0-32-8-54t-26-35-45-12q-41 0-59 27t-19 74m611 39q0 32-16 54t-44 35-68 12q-20 0-38-2t-33-6-27-9v-43q18 8 45 14t55 7q27 0 45-7t27-20 9-31-8-29-26-23-50-21q-31-11-51-25t-31-34-10-47q0-29 14-49t40-31 60-11q29 0 54 5t44 15l-14 38q-18-8-40-13t-45-6q-23 0-38 7t-22 18-8 27q0 18 8 30t24 22 46 20q32 12 53 25t33 32 12 46m167-177q49 0 73 22t23 68v183h-32l-8-38h-2q-12 14-24 24t-28 14-38 5q-37 0-61-20t-24-60q0-40 32-62t97-23l45-2v-16q0-33-14-46t-41-13q-21 0-40 6t-36 14l-13-33q17-9 41-16t50-7m53 142l-40 1q-50 2-69 16t-19 40q0 22 13 33t36 10q34 0 56-19t23-57v-24m255-142q48 0 73 23t24 75v175h-43v-172q0-32-15-48t-45-16q-45 0-62 25t-17 72v139h-44v-268h36l6 36h3q9-14 22-23t29-14 33-4m355 199q0 26-13 43t-37 27-57 9q-28 0-49-5t-35-12v-40q16 8 38 14t47 7q33 0 48-11t15-28q0-10-5-18t-20-16-41-18q-26-10-44-20t-29-24-10-36q0-34 28-53t73-18q24 0 45 4t40 14l-15 35q-17-7-35-12t-38-5q-27 0-42 8t-14 24q0 11 7 19t21 15 41 17q26 10 44 20t27 24 10 36m354-249q-38 0-66 17t-43 50-15 77q0 44 14 77t41 50 68 17q24 0 45-4t41-10v39q-20 8-42 11t-50 4q-55 0-91-23t-55-64-18-97q0-54 19-96t59-64 93-23q28 0 53 5t46 16l-18 38q-17-8-37-14t-44-6m201-57v111q0 10-1 20t-2 18h3q9-14 22-23t29-14 33-5q32 0 54 10t33 32 11 56v175h-44v-172q0-32-14-48t-46-16q-45 0-62 25t-16 72v139h-44v-380h44m368 107q35 0 59 15t38 42 14 64v26h-184q1 46 23 69t63 24q25 0 45-5t41-13v38q-21 9-41 13t-47 5q-38 0-68-16t-45-46-16-75q0-44 14-76t42-48 62-17m0 36q-32 0-50 20t-22 56h137q-1-34-16-55t-49-21m304-36q7 0 16 0t15 3l-5 40q-7-1-15-2t-14-1q-21 0-39 11t-29 31-10 48v143h-44v-268h36l5 49h2q13-22 33-38t49-16m314 138q0 45-15 76t-43 47-67 17q-35 0-63-17t-44-47-16-76q0-66 34-102t91-36q36 0 64 16t43 47 16 75m-202 0q0 32 8 55t26 36 44 12 45-12 25-36 9-55q0-32-9-54t-26-35-44-12q-41 0-60 27t-18 74m315-245v198q0 8-1 21t-1 23h2q3-4 9-12t12-15 11-13l86-90h51l-108 114 116 154h-53l-93-125-31 26v99h-43v-380h43m327 107q35 0 59 15t38 42 14 64v26h-184q1 46 23 69t63 24q25 0 45-5t41-13v38q-21 9-41 13t-47 5q-38 0-68-16t-45-46-16-75q0-44 14-76t42-48 62-17m0 36q-32 0-50 20t-22 56h137q-1-34-16-55t-49-21m282-36q35 0 59 15t38 42 14 64v26h-184q1 46 23 69t63 24q25 0 45-5t41-13v38q-21 9-41 13t-47 5q-38 0-68-16t-45-46-16-75q0-44 14-76t42-48 62-17m0 36q-32 0-50 20t-22 56h137q-1-34-16-55t-49-21" />
</svg>