<svg id="fnt-Noto Sans Indic Siyaq Numbers" viewBox="0 0 7105 1000" xmlns="http://www.w3.org/2000/svg"><path id="noto-sans-indic-siyaq-numbers" class="f" d="M332 310v357h-53l-191-297h-2q1 18 3 44t1 53v200h-41v-357h52l190 295h2q0-8-1-24t-2-35 0-35v-201h42m324 222q0 67-34 103t-91 37q-36 0-64-17t-43-47-16-76q0-66 33-102t91-36q37 0 64 16t44 47 16 75m-203 0q0 48 19 75t60 28q40 0 59-28t19-75-19-74-60-27-59 27-19 74m362 104q10 0 20-2t17-4v34q-7 3-20 5t-25 3q-21 0-39-8t-28-25-11-50v-156h-38v-21l38-18 18-57h26v62h77v34h-77v155q0 24 11 36t31 12m324-104q0 67-34 103t-91 37q-36 0-64-17t-43-47-16-76q0-66 33-102t91-36q37 0 64 16t44 47 16 75m-203 0q0 48 19 75t60 28q40 0 59-28t19-75-19-74-60-27-59 27-19 74m547 39q0 48-35 74t-93 27q-30 0-55-5t-43-12v-43q18 8 45 14t55 7q40 0 60-16t21-42q0-17-8-29t-26-23-50-21q-46-17-69-41t-23-65q0-29 14-49t40-31 60-11q29 0 54 5t44 15l-14 38q-18-8-40-13t-45-6q-34 0-51 14t-17 38q0 18 8 30t24 22 46 20q32 12 53 25t33 32 12 46m167-177q49 0 73 22t23 68v183h-32l-8-38h-2q-18 22-37 32t-53 11q-37 0-61-20t-24-60q0-40 32-62t97-23l45-2v-16q0-33-14-46t-41-13q-21 0-40 6t-36 14l-13-33q17-9 41-16t50-7m53 142l-40 1q-50 2-69 16t-19 40q0 22 13 33t36 10q34 0 56-19t23-57v-24m255-142q48 0 73 23t24 75v175h-43v-172q0-64-60-64-45 0-62 25t-17 72v139h-44v-268h36l6 36h3q13-21 36-31t48-10m355 199q0 39-29 59t-78 20q-28 0-49-5t-35-12v-40q16 8 38 14t47 7q33 0 48-11t15-28q0-10-5-18t-20-16-41-18q-26-10-44-20t-29-24-10-36q0-34 28-53t73-18q24 0 45 4t40 14l-15 35q-17-7-35-12t-38-5q-27 0-42 8t-14 24q0 11 7 19t21 15 41 17q26 10 44 20t27 24 10 36m237 48v26h-129v-26l42-10v-285l-42-10v-26h129v26l-42 10v285l42 10m192-247q48 0 73 23t24 75v175h-43v-172q0-64-60-64-45 0-62 25t-17 72v139h-44v-268h36l6 36h3q13-21 36-31t48-10m275 278q-50 0-80-35t-30-104 30-104 81-35q31 0 50 11t33 28h3q-1-6-2-19t-1-20v-107h44v380h-36l-6-36h-2q-12 17-32 29t-52 12m7-37q43 0 60-23t17-70v-8q0-50-16-77t-61-27q-36 0-54 28t-17 76q0 48 17 75t54 26m228-337q10 0 18 7t8 21q0 14-8 21t-18 7q-11 0-18-7t-8-21q0-14 8-21t18-7m-22 101h44v268h-44v-268m236 273q-35 0-63-15t-44-45-15-78q0-49 16-80t45-46 64-14q21 0 40 4t31 10l-14 37q-12-5-28-9t-30-4q-79 0-79 102 0 48 19 74t58 26q22 0 38-5t31-11v39q-13 7-30 11t-39 4m407-101q0 48-34 74t-93 27q-30 0-56-5t-42-12v-43q18 8 44 14t56 7q40 0 60-16t20-42q0-17-7-29t-26-23-51-21q-45-17-69-41t-23-65q0-29 15-49t40-31 59-11q30 0 54 5t45 15l-14 38q-19-8-41-13t-45-6q-33 0-50 14t-17 38q0 18 7 30t25 22 46 20q31 12 53 25t33 32 11 46m89-273q10 0 17 7t8 21q0 14-8 21t-17 7q-11 0-19-7t-7-21q0-14 7-21t19-7m-23 101h44v268h-44v-268m195 269l-108-269h47l58 152q8 20 14 38t9 35h2q3-12 9-33t14-40l54-152h48l-116 305q-14 38-36 60t-61 23q-12 0-21-2t-16-2v-35q6 1 13 2t17 1q23 0 37-13t22-35l14-35m291-274q49 0 72 22t24 68v183h-32l-9-38h-2q-17 22-37 32t-53 11q-36 0-60-20t-24-60q0-40 31-62t97-23l46-2v-16q0-33-15-46t-41-13q-21 0-40 6t-35 14l-14-33q18-9 42-16t50-7m52 142l-39 1q-50 2-70 16t-19 40q0 22 14 33t35 10q34 0 57-19t22-57v-24m305 251v-115q0-9 1-21t2-20h-3q-12 17-32 29t-52 12q-49 0-79-35t-30-104 30-104 80-35q32 0 52 12t32 29h2l6-36h35v388h-44m-76-152q42 0 59-23t18-69v-9q0-51-17-78t-61-26q-36 0-53 28t-18 76 18 74 54 27m560-325v357h-52l-191-297h-2q1 18 2 44t2 53v200h-42v-357h52l191 295h2q-1-8-2-24t-1-35-1-35v-201h42m271 89h44v268h-36l-6-36h-2q-13 21-36 31t-49 10q-49 0-73-24t-25-74v-175h45v172q0 64 59 64 45 0 62-25t17-72v-139m423-5q46 0 68 23t23 75v175h-44v-173q0-63-54-63-39 0-56 22t-17 66v148h-43v-173q0-63-55-63-41 0-56 25t-16 72v139h-44v-268h36l6 36h3q12-21 33-31t46-10q63 0 82 45h2q14-23 37-34t49-11m218-107v92q0 17-1 32t-2 23h3q11-17 31-28t52-12q50 0 80 35t30 104-30 104-80 35q-32 0-52-12t-31-27h-4l-9 34h-31v-380h44m75 144q-42 0-59 24t-16 76v2q0 50 16 76t60 26q36 0 54-26t18-77q0-101-73-101m292-37q34 0 59 15t38 42 13 64v26h-183q1 46 23 69t62 24q26 0 45-5t41-13v38q-20 9-40 13t-48 5q-38 0-67-16t-46-46-16-75q0-44 15-76t41-48 63-17m-1 36q-31 0-50 20t-21 56h136q0-34-16-55t-49-21m304-36q8 0 16 0t16 3l-6 40q-6-1-14-2t-15-1q-20 0-38 11t-29 31-11 48v143h-44v-268h36l5 49h2q13-22 34-38t48-16m256 199q0 39-29 59t-78 20q-28 0-48-5t-36-12v-40q16 8 39 14t46 7q34 0 49-11t15-28q0-10-6-18t-20-16-40-18q-26-10-45-20t-28-24-10-36q0-34 27-53t73-18q25 0 46 4t40 14l-15 35q-17-7-36-12t-38-5q-27 0-41 8t-14 24q0 11 6 19t22 15 41 17q25 10 43 20t28 24 9 36" />
</svg>