<svg id="fnt-Noto Serif Malayalam" viewBox="0 0 5210 1000" xmlns="http://www.w3.org/2000/svg"><path id="noto-serif-malayalam" class="f" d="M145 667h-126v-21h7q11 0 20-3t15-10 6-23v-245q0-15-6-23t-15-9-20-2h-7v-21h92l179 276v-221q0-15-6-23t-15-9-20-2h-7v-21h126v21h-7q-11 0-20 2t-15 10-6 24v300h-35l-188-288v231q0 15 6 23t15 10 20 3h7v21m380 5q-54 0-85-35t-31-105q0-70 30-104t88-34q54 0 85 34t31 104q0 71-30 105t-88 35m1-26q25 0 40-13t22-38 6-63q0-56-15-84t-53-28-53 28-15 84 15 85 53 29m264 26q-38 0-55-18t-17-60v-167h-38v-20q9 0 20-4t19-12q8-9 14-22t9-32h23v62h65v28h-65v169q0 25 10 37t28 12q9 0 16-1t16-2v22q-7 3-20 5t-25 3m200 0q-54 0-85-35t-31-105q0-70 29-104t88-34q54 0 85 34t31 104q0 71-30 105t-87 35m1-26q25 0 40-13t21-38 7-63q0-56-16-84t-53-28-53 28-15 84 16 85 53 29m422 26q-25 0-44-5t-31-15-19-22-6-29q0-10 4-17t13-12 19-4q1 20 8 38t22 30 38 11q33 0 52-16t19-47q0-18-7-31t-24-24-46-23q-31-13-52-28t-30-35-10-48q0-28 14-49t39-31 56-10q30 0 51 8t32 20 11 28q0 16-11 24t-29 8q0-15-5-30t-18-24-33-9q-29 0-45 15t-16 42q0 20 7 33t25 25 46 23q29 12 50 26t32 33 11 44q0 32-15 54t-43 35-65 12m292 0q-55 0-86-36t-30-101q0-70 29-106t82-35q48 0 76 30t28 89v23h-167q1 55 20 79t55 25q26 0 44-11t27-24q4 2 7 6t3 11q0 10-10 22t-29 19-49 9m-67-163h115q0-40-12-64t-42-24q-28 0-43 22t-18 66m352 158h-145v-21h2q11 0 20-3t15-10 6-23v-156q0-15-6-23t-15-9-20-2h-2v-21h77l10 49h2q7-15 14-27t20-20 35-7q27 0 40 9t14 27q0 16-11 26t-36 10q0-21-6-30t-20-9q-14 0-24 11t-15 28-8 35-2 33v78q0 15 5 22t15 9 21 3h14v21m228 0h-142v-21h6q11 0 20-3t15-9 6-22v-158q0-15-6-23t-15-9-20-2h-1v-21h89v211q0 15 6 23t15 10 20 3h7v21m-73-318q-12 0-21-7t-8-24q0-18 8-25t21-6q11 0 20 6t8 25q0 17-8 24t-20 7m247 318h-154v-21h6q12 0 21-3t15-10 5-23v-188h-45v-23h45v-25q0-45 24-69t65-23q26 0 41 4t22 12 7 19q0 9-6 15t-14 9-21 4q0-10-3-20t-10-15-20-5q-22 0-30 16t-8 48v30h71v23h-71v188q0 15 6 23t15 10 20 3h19v21m306 0h-116v-21h7q11 0 20-3t15-9 6-22v-247q0-15-6-23t-15-9-20-2h-7v-21h114l104 286 102-286h111v21h-6q-11 0-21 2t-15 10-5 24v243q0 15 5 23t15 10 21 3h6v21h-133v-21h2q11 0 18-3t13-9 5-20v-267l-115 320h-27l-116-319v262q0 15 4 23t13 10 19 3h2v21m437 5q-22 0-40-9t-28-27-10-44q0-40 28-59t86-21l42-2v-30q0-18-3-32t-13-21-31-8q-19 0-29 7t-13 19-3 28q-21 0-32-7t-11-24q0-18 12-28t33-16 45-4q46 0 69 19t23 67v130q0 14 3 21t10 11 18 4h1v21h-67l-8-43h-4q-11 14-21 24t-23 17-34 7m11-31q21 0 35-9t23-24 9-37v-40l-32 1q-29 1-45 9t-23 20-7 33q0 16 4 26t14 15 22 6m316 26h-142v-21h7q11 0 20-3t15-10 6-23v-268q0-15-6-23t-15-9-20-2h-7v-21h95v323q0 15 5 23t15 10 21 3h6v21m109 5q-22 0-40-9t-27-27-10-44q0-40 28-59t86-21l41-2v-30q0-18-3-32t-13-21-30-8q-19 0-29 7t-14 19-3 28q-21 0-32-7t-10-24q0-18 12-28t33-16 45-4q46 0 68 19t23 67v130q0 14 3 21t10 11 18 4h2v21h-68l-8-43h-4q-10 14-20 24t-24 17-34 7m12-31q20 0 35-9t23-24 8-37v-40l-32 1q-28 1-45 9t-23 20-7 33q0 16 5 26t13 15 23 6m186 146v-24q26 0 44-7t32-21 22-31 15-39l-93-219q-4-10-9-16t-10-8-16-2h-2v-21h120v21h-1q-15 0-23 5t-7 19q0 4 1 8t3 10l36 89q5 12 10 25t9 27 5 21q4-15 9-30t11-31l34-97q2-6 3-12t1-10q0-13-8-19t-25-5h-1v-21h104v21h-2q-9 0-16 3t-11 11-11 25l-76 210q-13 36-25 59t-27 36-36 18-55 5h-5m366-115q-22 0-40-9t-27-27-10-44q0-40 28-59t86-21l41-2v-30q0-18-3-32t-13-21-30-8q-19 0-29 7t-14 19-3 28q-21 0-32-7t-10-24q0-18 12-28t33-16 45-4q46 0 68 19t23 67v130q0 14 3 21t10 11 18 4h2v21h-68l-8-43h-4q-10 14-20 24t-24 17-34 7m12-31q20 0 35-9t23-24 8-37v-40l-32 1q-28 1-45 9t-23 20-7 33q0 16 5 26t13 15 23 6m316 26h-142v-21h6q12 0 21-3t15-10 5-23v-268q0-15-6-23t-15-9-20-2h-6v-21h94v323q0 15 6 23t15 10 20 3h7v21m109 5q-22 0-40-9t-28-27-10-44q0-40 28-59t86-21l42-2v-30q0-18-3-32t-13-21-31-8q-19 0-29 7t-13 19-3 28q-21 0-32-7t-11-24q0-18 12-28t33-16 45-4q46 0 69 19t23 67v130q0 14 3 21t10 11 18 4h1v21h-67l-8-43h-4q-11 14-21 24t-23 17-34 7m11-31q21 0 35-9t23-24 9-37v-40l-32 1q-29 1-45 9t-23 20-7 33q0 16 4 26t14 15 22 6m316 26h-134v-21h6q12 0 20-3t14-10 5-23v-156q0-15-5-23t-14-9-20-2h-1v-21h78l7 40h2q15-28 34-37t42-8q16 0 30 4t25 14 17 27h4q15-28 35-37t44-8q38 0 60 23t21 75v118q0 15 5 23t14 10 20 3h1v21h-87v-173q0-32-12-50t-40-18q-21 0-33 10t-18 27-5 37v110q0 15 5 23t14 10 20 3h1v21h-87v-173q0-32-12-50t-40-18q-22 0-35 11t-18 30-5 40v105q0 15 5 22t15 9 21 3h1v21" />
</svg>