<svg id="fnt-Noto Sans Mende Kikakui" viewBox="0 0 5947 1000" xmlns="http://www.w3.org/2000/svg"><path id="noto-sans-mende-kikakui" class="f" d="M332 310v357h-53l-191-297h-2q1 18 3 44t1 53v200h-41v-357h52l190 295h2q0-8-1-24t-2-35 0-35v-201h42m324 222q0 67-34 103t-91 37q-36 0-64-17t-43-47-16-76q0-66 33-102t91-36q37 0 64 16t44 47 16 75m-203 0q0 48 19 75t60 28q40 0 59-28t19-75-19-74-60-27-59 27-19 74m362 104q10 0 20-2t17-4v34q-7 3-20 5t-25 3q-21 0-39-8t-28-25-11-50v-156h-38v-21l38-18 18-57h26v62h77v34h-77v155q0 24 11 36t31 12m324-104q0 67-34 103t-91 37q-36 0-64-17t-43-47-16-76q0-66 33-102t91-36q37 0 64 16t44 47 16 75m-203 0q0 48 19 75t60 28q40 0 59-28t19-75-19-74-60-27-59 27-19 74m611 39q0 48-35 74t-93 27q-30 0-55-5t-43-12v-43q18 8 45 14t55 7q40 0 60-16t21-42q0-17-8-29t-26-23-50-21q-46-17-69-41t-23-65q0-29 14-49t40-31 60-11q29 0 54 5t44 15l-14 38q-18-8-40-13t-45-6q-34 0-51 14t-17 38q0 18 8 30t24 22 46 20q32 12 53 25t33 32 12 46m167-177q49 0 73 22t23 68v183h-32l-8-38h-2q-18 22-37 32t-53 11q-37 0-61-20t-24-60q0-40 32-62t97-23l45-2v-16q0-33-14-46t-41-13q-21 0-40 6t-36 14l-13-33q17-9 41-16t50-7m53 142l-40 1q-50 2-69 16t-19 40q0 22 13 33t36 10q34 0 56-19t23-57v-24m255-142q48 0 73 23t24 75v175h-43v-172q0-64-60-64-45 0-62 25t-17 72v139h-44v-268h36l6 36h3q13-21 36-31t48-10m355 199q0 39-29 59t-78 20q-28 0-49-5t-35-12v-40q16 8 38 14t47 7q33 0 48-11t15-28q0-10-5-18t-20-16-41-18q-26-10-44-20t-29-24-10-36q0-34 28-53t73-18q24 0 45 4t40 14l-15 35q-17-7-35-12t-38-5q-27 0-42 8t-14 24q0 11 7 19t21 15 41 17q26 10 44 20t27 24 10 36m395 74h-37l-117-313h-2q1 15 2 41t1 55v217h-41v-357h66l110 292h2l112-292h66v357h-44v-220q0-26 1-51t2-42h-2l-119 313m357-273q34 0 59 15t38 42 13 64v26h-183q1 46 23 69t62 24q26 0 45-5t41-13v38q-20 9-40 13t-48 5q-38 0-67-16t-46-46-16-75q0-44 15-76t41-48 63-17m-1 36q-31 0-50 20t-21 56h136q0-34-16-55t-49-21m308-36q48 0 73 23t24 75v175h-43v-172q0-64-60-64-45 0-62 25t-17 72v139h-44v-268h36l6 36h3q13-21 36-31t48-10m275 278q-50 0-80-35t-30-104 30-104 81-35q31 0 50 11t33 28h3q-1-6-2-19t-1-20v-107h44v380h-36l-6-36h-2q-12 17-32 29t-52 12m7-37q43 0 60-23t17-70v-8q0-50-16-77t-61-27q-36 0-54 28t-17 76q0 48 17 75t54 26m309-241q35 0 59 15t38 42 14 64v26h-184q1 46 23 69t63 24q25 0 45-5t41-13v38q-21 9-41 13t-47 5q-38 0-68-16t-45-46-16-75q0-44 14-76t42-48 62-17m0 36q-32 0-50 20t-22 56h137q-1-34-16-55t-49-21m429 35l147 202h-53l-127-171-36 32v139h-45v-357h45v176q15-17 30-34t31-34l97-108h52l-141 155m212-167q10 0 17 7t8 21q0 14-8 21t-17 7q-11 0-19-7t-7-21q0-14 7-21t19-7m-23 101h44v268h-44v-268m173-112v198q0 8-1 21t-1 23h2q3-4 9-12t12-15 11-13l85-90h52l-109 114 116 154h-53l-93-125-30 26v99h-44v-380h44m325 107q49 0 72 22t24 68v183h-32l-9-38h-2q-17 22-37 32t-53 11q-36 0-60-20t-24-60q0-40 31-62t97-23l46-2v-16q0-33-15-46t-41-13q-21 0-40 6t-35 14l-14-33q18-9 42-16t50-7m52 142l-39 1q-50 2-70 16t-19 40q0 22 14 33t35 10q34 0 57-19t22-57v-24m170-249v198q0 8-1 21t-1 23h2q3-4 9-12t12-15 11-13l86-90h51l-108 114 116 154h-53l-93-125-31 26v99h-43v-380h43m404 112h44v268h-36l-7-36h-2q-13 21-36 31t-49 10q-48 0-73-24t-24-74v-175h44v172q0 64 60 64 44 0 61-25t18-72v-139m151-101q10 0 18 7t8 21q0 14-8 21t-18 7q-11 0-18-7t-8-21q0-14 8-21t18-7m-22 101h44v268h-44v-268" />
</svg>