<svg id="fnt-Noto Serif Bengali" viewBox="0 0 4214 1000" xmlns="http://www.w3.org/2000/svg"><path id="noto-serif-bengali" class="f" d="M332 310v357h-53l-191-297h-2q1 12 2 27t1 34 1 36v200h-41v-357h52l190 295h2q0-8-1-24t-2-35 0-35v-201h42m324 222q0 34-9 60t-25 43-40 27-51 10q-27 0-49-10t-39-27-26-43-9-60q0-44 15-75t43-47 66-16q36 0 64 16t44 47 16 75m-203 0q0 32 8 55t26 36 45 12 44-12 26-36 8-55-8-54-26-35-45-12q-41 0-59 27t-19 74m362 104q10 0 20-2t17-4v34q-7 3-20 5t-25 3q-21 0-39-8t-28-25-11-50v-156h-38v-21l38-18 18-57h26v62h77v34h-77v155q0 24 11 36t31 12m324-104q0 34-9 60t-25 43-40 27-51 10q-27 0-49-10t-39-27-26-43-9-60q0-44 15-75t43-47 66-16q36 0 64 16t44 47 16 75m-203 0q0 32 8 55t26 36 45 12 44-12 26-36 8-55-8-54-26-35-45-12q-41 0-59 27t-19 74m611 39q0 32-16 54t-44 35-68 12q-20 0-38-2t-33-6-27-9v-43q18 8 45 14t55 7q27 0 45-7t27-20 9-31-8-29-26-22-50-22q-23-8-41-18t-28-23-18-28-5-37q0-28 14-49t40-31 60-11q29 0 53 5t45 15l-14 38q-18-8-40-13t-45-6q-23 0-38 7t-22 18-8 27q0 18 8 30t24 22 46 20q32 12 53 25t33 32 12 46m169-177q34 0 59 15t38 42 14 64v26h-184q1 46 23 69t63 24q25 0 45-5t41-13v38q-21 9-41 13t-47 5q-39 0-68-16t-45-46-16-75q0-44 14-76t42-48 62-17m0 36q-32 0-50 20t-22 56h137q-1-22-8-40t-21-27-36-9m304-36q7 0 16 0t15 3l-5 40q-7-1-15-2t-14-1q-16 0-30 6t-25 18-17 29-6 37v143h-44v-268h36l5 49h2q8-15 20-28t28-19 34-7m81 5h44v268h-44v-268m23-101q10 0 17 7t8 21-8 21-17 7q-11 0-19-7t-7-21 7-21 19-7m230 101v34h-68v234h-44v-234h-47v-21l47-15v-15q0-35 10-56t30-32 47-10q16 0 29 3t23 6l-11 35q-8-3-19-5t-21-3q-22 0-33 15t-11 46v18h68m184 268v-357h102q67 0 101 20t35 68q0 21-8 37t-23 27-37 15v3q22 4 40 13t29 27 11 45q0 33-15 55t-43 35-66 12h-126m45-319v114h66q46 0 63-15t17-44q0-29-21-42t-66-13h-59m69 151h-69v130h72q48 0 66-19t19-48q0-19-9-33t-27-22-52-8m309-105q34 0 59 15t38 42 13 64v26h-183q1 46 23 69t62 24q26 0 45-5t41-13v38q-20 9-40 13t-48 5q-38 0-67-16t-46-46-16-75q0-44 15-76t41-48 63-17m-1 36q-31 0-50 20t-21 56h136q0-22-7-40t-21-27-37-9m308-36q48 0 73 23t24 75v175h-43v-172q0-32-15-48t-45-16q-45 0-62 25t-17 72v139h-44v-268h36l6 36h3q9-14 22-23t29-14 33-4m275 0q27 0 48 10t36 30h3l6-35h35v272q0 39-13 64t-40 39-67 13q-29 0-54-5t-43-12v-41q19 10 45 16t54 5q35 0 54-20t20-55v-11q0-6 1-17t1-16h-2q-14 21-35 31t-48 10q-52 0-82-37t-29-102q0-64 29-102t81-37m6 37q-22 0-38 12t-24 35-8 56q0 49 18 75t53 27q21 0 35-6t24-16 14-29 5-41v-11q0-36-9-59t-26-33-44-10m308-37q49 0 73 22t23 68v183h-32l-8-38h-2q-12 15-24 24t-28 14-38 5q-25 0-44-9t-30-26-11-45q0-40 32-62t97-23l45-2v-16q0-33-14-46t-41-13q-21 0-40 6t-36 14l-13-33q17-9 41-16t50-7m53 166v-24l-40 1q-50 2-69 16t-19 40q0 22 13 33t36 10q33 0 56-19t23-57m170-273v380h-44v-380h44m85 112h44v268h-44v-268m23-101q10 0 17 7t8 21-8 21-17 7q-11 0-19-7t-7-21 7-21 19-7" />
</svg>