<svg id="fnt-Noto Serif JP" viewBox="0 0 3086 1000" xmlns="http://www.w3.org/2000/svg"><path id="noto-serif-jp" class="f" d="M151 667h-129v-15l53-6h11l65 6v15m-61 0h-20v-353h18l2 193v160m226-344l-65-5v-15h127v15l-52 5h-10m14 347h-22l-224-330-1-1-12-18-49-3v-15h88l211 312-9 3-1-149v-166h19v367m217 4q-33 0-62-15t-45-46-18-75 18-76 47-45 60-16q32 0 61 15t46 46 18 76-18 75-46 46-61 15m0-15q37 0 58-31t22-90q0-58-22-89t-58-32q-37 0-59 32t-21 89q0 59 21 90t59 31m319-232h-92v-18h92v18m-52 247q-31 0-46-16t-15-50q0-12 0-22t0-23v-136h-50v-15l61-5-10 8 15-84h27l-2 85v6 186q0 23 9 34t25 10q11 0 20-3t18-9l8 8q-11 13-25 19t-35 7m214 0q-33 0-61-15t-46-46-17-75 18-76 46-45 60-16q33 0 61 15t46 46 18 76-17 75-46 46-62 15m0-15q38 0 59-31t21-90q0-58-21-89t-59-32q-37 0-58 32t-22 89q0 59 22 90t58 31m410 16q-31 0-59-9t-47-20l3-75h21l15 82-22-10-3-17q24 18 43 24t46 7q40 0 65-19t25-54q0-18-7-32t-22-24-43-22l-21-9q-45-19-68-44t-23-63q0-32 16-53t42-32 59-11q28 0 50 7t40 21l-2 71h-22l-15-79 23 11 2 16q-20-16-36-22t-38-6q-35 0-58 16t-22 50q0 28 16 45t47 30l22 9q38 16 60 31t31 35 9 44q0 31-16 54t-44 35-67 13m303-1q-37 0-66-15t-45-45-17-76q0-42 17-73t46-47 61-17q32 0 55 14t36 37 12 53q0 18-3 30h-204v-15h145q13 0 18-7t4-22q0-32-17-53t-47-21q-22 0-40 14t-29 39-10 62q0 41 12 67t34 38 49 12q26 0 46-9t35-27l8 7q-16 25-41 39t-59 15m275-7h-133v-14l56-6h20l57 6v14m-47 0h-44q0-12 0-33t1-43 0-39v-30q0-26 0-46t-1-38l-44-2v-13l77-20 6 4 3 70v1 74q0 17 0 39t1 43 1 33m-2-160l-11-26h9q8-24 21-42t30-28 35-10q14 0 25 6t15 17q-1 13-7 21t-19 7q-10 0-17-5t-16-14l-12-11 23 1q-26 7-45 27t-31 57m272 160h-124v-14l55-6h16l53 6v14m-38 0h-44q0-12 1-33t0-43 1-39v-30q0-25-1-46t-1-39l-45-2v-13l83-19 6 4-2 70v75q0 17 0 39t1 43 1 33m-26-328q-12 0-20-8t-9-20 9-20 20-8q12 0 20 8t9 20-9 20-20 8m242 328h-139v-14l58-6h20l61 6v14m-50 0h-45q1-29 1-58t1-57v-125h-48v-15l63-5-15 7v-3q2-47 13-77t31-47q15-15 33-22t36-6q18 0 32 6t18 20q0 9-7 14t-18 6q-9 0-18-5t-19-16l-14-14v-5h21v4q-14 2-27 10t-20 21-13 28-7 37 0 55v132q0 29 1 57t1 58m75-240h-97v-18h97v18m174 311q-17 0-29-6t-13-17q2-11 10-15t18-5 18 3 18 13l12 13v3h-9v-3q15-18 22-49t7-85q0-26 0-52t-1-58 0-75-1-102h45q-1 41-1 83t0 85v106q0 37-4 61t-9 39-17 28q-14 17-31 25t-35 8m67-415l-74-5v-15h156v15l-71 5h-11m281 344h-154v-15l69-6h13l72 6v15m-57 0h-46q1-42 1-84t0-85v-27q0-42 0-85t-1-83h46q0 41-1 83t0 85v35q0 37 0 78t1 83m29-149h-52v-17h51q38 0 62-12t34-32 11-49q0-43-23-66t-71-23h-64v-16h67q69 0 101 28t33 78q0 30-15 55t-48 39-86 15m-57-195l-69-5v-15h74v20h-5" />
</svg>