<svg id="fnt-Noto Nastaliq Urdu" viewBox="0 0 4443 1000" xmlns="http://www.w3.org/2000/svg"><path id="noto-nastaliq-urdu" class="f" d="M145 667h-126v-21h7q17 0 29-7t12-29v-245q0-22-13-28t-28-6h-7v-21h92l179 276v-221q0-22-13-28t-28-6h-7v-21h126v21h-7q-17 0-29 6t-12 30v300h-35l-188-288v231q0 23 12 29t29 7h7v21m380 5q-54 0-85-35t-31-105q0-70 30-104t88-34q54 0 85 34t31 104q0 71-30 105t-88 35m1-26q38 0 53-29t15-85-15-84-53-28-53 28-15 84 15 85 53 29m264 26q-38 0-55-18t-17-60v-167h-38v-20q9 0 20-4t19-12q8-9 14-22t9-32h23v62h65v28h-65v169q0 25 10 37t28 12q9 0 16-1t16-2v22q-7 3-20 5t-25 3m200 0q-54 0-85-35t-31-105q0-70 29-104t88-34q54 0 85 34t31 104q0 71-30 105t-87 35m1-26q37 0 52-29t16-85-16-84-53-28-53 28-15 84 16 85 53 29m354 21h-125v-21h6q17 0 29-7t12-29v-245q0-22-12-28t-29-6h-6v-21h91l179 276v-221q0-22-12-28t-29-6h-6v-21h125v21h-6q-17 0-29 6t-12 30v300h-36l-187-288v231q0 23 12 29t29 7h6v21m340 5q-34 0-56-20t-22-60q0-40 28-59t86-21l42-2v-30q0-18-3-32t-13-21-31-8q-19 0-29 7t-13 19-3 28q-21 0-32-7t-11-24q0-18 12-28t33-16 45-4q46 0 69 19t23 67v130q0 21 7 28t24 8h1v21h-67l-8-43h-4q-11 14-21 24t-23 17-34 7m11-31q31 0 49-19t18-51v-40l-32 1q-43 2-59 17t-16 45q0 47 40 47m273 31q-38 0-60-14t-23-39q0-14 6-21t12-11 14-3q0 26 11 45t43 19q26 0 40-13t15-33q0-12-6-20t-18-16-38-18q-25-12-42-23t-25-25-8-35q0-34 25-53t69-18q24 0 40 6t24 17 9 23q0 14-10 22t-26 8q0-25-11-39t-32-14q-26 0-37 11t-11 29q0 13 6 21t20 16 36 16q27 11 43 22t24 26 8 35q0 39-27 59t-71 20m240 0q-38 0-55-18t-17-60v-167h-38v-20q9 0 20-4t19-12q8-9 14-22t9-32h23v62h65v28h-65v169q0 25 10 37t28 12q9 0 16-1t16-2v22q-7 3-20 5t-25 3m159 0q-34 0-56-20t-22-60q0-40 28-59t86-21l42-2v-30q0-18-3-32t-13-21-31-8q-19 0-29 7t-13 19-3 28q-21 0-32-7t-11-24q0-18 12-28t33-16 45-4q46 0 69 19t23 67v130q0 21 7 28t24 8h1v21h-67l-8-43h-4q-11 14-21 24t-23 17-34 7m11-31q31 0 49-19t18-51v-40l-32 1q-43 2-59 17t-16 45q0 47 40 47m316 26h-142v-21h7q11 0 20-3t15-10 6-23v-268q0-15-6-23t-15-9-20-2h-7v-21h95v323q0 15 5 23t15 10 21 3h6v21m160 0h-142v-21h7q11 0 20-3t15-9 6-22v-158q0-15-6-23t-15-9-20-2h-2v-21h90v211q0 15 5 23t15 10 21 3h6v21m-73-318q-12 0-20-7t-8-24q0-18 8-25t20-6q12 0 20 6t9 25q0 17-9 24t-20 7m378 438h-150v-21h17q17 0 29-7t12-29v-43q0-8 0-21t1-24 1-20h-2q-11 23-29 36t-48 14q-49 0-76-34t-26-105q0-72 26-106t76-33q29 0 47 12t30 32h3l9-39h80v21h-4q-11 0-21 2t-15 10-5 24v276q0 22 12 28t29 6h4v21m-160-147q39 0 53-27t15-80q0-52-15-80t-54-27q-33 0-47 27t-14 81q0 53 14 79t48 27m416 32q-59 0-93-26t-33-87v-194q0-22-13-28t-28-6h-7v-21h146v21h-7q-17 0-29 6t-12 30v195q0 43 24 61t60 19q43 0 63-22t21-56v-199q0-22-13-28t-28-6h-7v-21h126v21h-7q-17 0-29 6t-12 30v198q0 50-31 78t-91 29m338-5h-144v-21h1q17 0 29-7t12-29v-156q0-22-12-28t-29-6h-1v-21h77l9 49h3q6-15 14-27t20-20 34-7q28 0 41 9t13 27q0 16-11 26t-35 10q0-21-6-30t-21-9q-14 0-23 11t-15 28-8 35-3 33v78q0 22 12 28t29 6h14v21m204 5q-49 0-76-34t-26-105q0-72 26-106t76-33q29 0 47 12t30 32h3q-2-13-3-28t0-27v-41q0-22-13-28t-28-6h-4v-21h92v325q0 14 5 22t15 9 21 3h4v21h-85l-5-45h-2q-11 23-29 36t-48 14m9-32q39 0 53-27t15-80q0-52-15-80t-54-27q-33 0-47 27t-14 81q0 53 14 79t48 27m305 32q-39 0-61-24t-21-74v-120q0-22-13-28t-28-6h-2v-21h90v172q0 33 11 51t41 18q33 0 48-23t15-58v-103q0-24-12-30t-29-6h-1v-21h89v213q0 22 12 28t29 6h2v21h-80l-6-41h-3q-15 28-36 37t-45 9" />
</svg>