<svg id="fnt-Noto Sans Gujarati" viewBox="0 0 4371 1000" xmlns="http://www.w3.org/2000/svg"><path id="noto-sans-gujarati" class="f" d="M332 310v357h-53l-191-297h-2q1 12 2 27t1 34 1 36v200h-41v-357h52l190 295h2q0-8-1-24t-2-35 0-35v-201h42m324 222q0 34-9 59t-25 44-40 27-51 10q-27 0-49-10t-39-27-26-44-9-59q0-44 15-75t43-47 66-16q37 0 64 16t44 47 16 75m-203 0q0 32 8 55t26 36 45 12 44-12 26-36 8-55q0-32-8-54t-26-35-45-12q-41 0-59 27t-19 74m362 104q10 0 20-2t17-4v34q-7 3-20 5t-25 3q-21 0-39-8t-28-25-11-50v-156h-38v-21l38-18 18-57h26v62h77v34h-77v155q0 24 11 36t31 12m324-104q0 34-9 59t-25 44-40 27-51 10q-27 0-49-10t-39-27-26-44-9-59q0-44 15-75t43-47 66-16q37 0 64 16t44 47 16 75m-203 0q0 32 8 55t26 36 45 12 44-12 26-36 8-55q0-32-8-54t-26-35-45-12q-41 0-59 27t-19 74m611 39q0 32-16 54t-44 35-68 12q-20 0-38-2t-33-6-27-9v-43q18 8 45 14t55 7q27 0 45-7t27-20 9-31-8-29-26-23-50-21q-23-9-41-19t-28-22-18-28-5-37q0-29 14-49t40-31 60-11q29 0 54 5t44 15l-14 38q-18-8-40-13t-45-6q-23 0-38 7t-22 18-8 27q0 18 8 30t24 22 46 20q32 12 53 25t33 32 12 46m167-177q49 0 73 22t23 68v183h-32l-8-38h-2q-12 14-24 24t-28 14-38 5q-24 0-44-9t-30-26-11-45q0-40 32-62t97-23l45-2v-16q0-33-14-46t-41-13q-21 0-40 6t-36 14l-13-33q17-9 41-16t50-7m53 142l-40 1q-50 2-69 16t-19 40q0 22 13 33t36 10q34 0 56-19t23-57v-24m255-142q48 0 73 23t24 75v175h-43v-172q0-32-15-48t-45-16q-45 0-62 25t-17 72v139h-44v-268h36l6 36h3q9-14 22-23t29-14 33-4m355 199q0 26-13 43t-37 27-57 9q-28 0-49-5t-35-12v-40q16 8 38 14t47 7q33 0 48-11t15-28q0-10-5-18t-20-16-41-18q-26-10-44-20t-29-24-10-36q0-34 28-53t73-18q24 0 45 4t40 14l-15 35q-17-7-35-12t-38-5q-27 0-42 8t-14 24q0 11 7 19t21 15 41 17q26 10 44 20t27 24 10 36m356-75v-40h123v175q-29 10-58 14t-67 5q-56 0-94-23t-58-63-19-98q0-56 22-97t63-64 100-22q30 0 56 5t50 16l-17 39q-19-9-43-15t-49-6q-42 0-73 18t-46 49-16 77q0 43 13 75t44 51 77 19q24 0 40-3t30-6v-106h-78m383-119h44v268h-36l-7-36h-2q-8 14-22 23t-29 13-34 5q-32 0-54-11t-32-31-11-56v-175h44v172q0 32 15 48t45 16q30 0 47-11t24-33 8-53v-139m97 388q-12 0-22-2t-16-4v-36q7 2 15 4t18 1q16 0 26-9t11-33v-309h44v308q0 25-8 43t-25 27-43 10m28-461q0-14 8-21t18-7q10 0 18 7t8 21q0 14-8 21t-18 7q-11 0-18-7t-8-21m234 68q49 0 73 22t23 68v183h-32l-8-38h-2q-12 14-24 24t-28 14-38 5q-24 0-44-9t-30-26-11-45q0-40 32-62t97-23l45-2v-16q0-33-14-46t-41-13q-21 0-40 6t-36 14l-13-33q17-9 41-16t50-7m53 142l-40 1q-50 2-69 16t-19 40q0 22 13 33t36 10q34 0 56-19t23-57v-24m251-142q8 0 16 0t16 3l-6 40q-6-1-14-2t-15-1q-15 0-29 6t-25 18-18 29-6 37v143h-44v-268h36l5 49h2q9-15 21-28t27-19 34-7m183 0q49 0 73 22t23 68v183h-32l-8-38h-2q-12 14-24 24t-28 14-38 5q-24 0-44-9t-30-26-11-45q0-40 32-62t97-23l45-2v-16q0-33-14-46t-41-13q-21 0-40 6t-36 14l-13-33q17-9 41-16t50-7m53 142l-40 1q-50 2-69 16t-19 40q0 22 13 33t36 10q34 0 56-19t23-57v-24m216 100q10 0 20-2t17-4v34q-7 3-20 5t-25 3q-21 0-39-8t-28-25-11-50v-156h-38v-21l38-18 18-57h26v62h77v34h-77v155q0 24 11 36t31 12m91-237h44v268h-44v-268m22-101q10 0 18 7t8 21q0 14-8 21t-18 7q-11 0-18-7t-8-21q0-14 8-21t18-7" />
</svg>