<svg id="fnt-Noto Naskh Arabic" viewBox="0 0 4418 1000" xmlns="http://www.w3.org/2000/svg"><path id="noto-naskh-arabic" class="f" d="M145 667h-126v-21h7q17 0 29-7t12-29v-245q0-22-13-28t-28-6h-7v-21h92l179 276v-221q0-22-13-28t-28-6h-7v-21h126v21h-7q-17 0-29 6t-12 30v300h-35l-188-288v231q0 23 12 29t29 7h7v21m380 5q-54 0-85-35t-31-105q0-70 30-104t88-34q54 0 85 34t31 104q0 71-30 105t-88 35m1-26q38 0 53-29t15-85-15-84-53-28-53 28-15 84 15 85 53 29m264 26q-38 0-55-18t-17-60v-167h-38v-20q9 0 20-4t19-12q8-9 14-22t9-32h23v62h65v28h-65v169q0 25 10 37t28 12q9 0 16-1t16-2v22q-7 3-20 5t-25 3m200 0q-54 0-85-35t-31-105q0-70 29-104t88-34q54 0 85 34t31 104q0 71-30 105t-87 35m1-26q37 0 52-29t16-85-16-84-53-28-53 28-15 84 16 85 53 29m399 21h-126v-21h7q17 0 29-7t12-29v-245q0-22-13-28t-28-6h-7v-21h92l179 276v-221q0-22-13-28t-28-6h-7v-21h126v21h-7q-17 0-29 6t-12 30v300h-35l-188-288v231q0 23 12 29t29 7h7v21m339 5q-33 0-55-20t-22-60q0-40 28-59t86-21l41-2v-30q0-18-3-32t-13-21-30-8q-19 0-29 7t-14 19-3 28q-21 0-32-7t-10-24q0-18 12-28t33-16 45-4q46 0 68 19t23 67v130q0 21 7 28t24 8h2v21h-68l-8-43h-4q-10 14-20 24t-24 17-34 7m12-31q30 0 48-19t18-51v-40l-32 1q-42 2-59 17t-16 45q0 47 41 47m272 31q-37 0-60-14t-22-39q0-14 5-21t13-11 13-3q0 26 12 45t42 19q27 0 41-13t14-33q0-12-5-20t-19-16-37-18q-26-12-43-23t-25-25-8-35q0-34 26-53t68-18q24 0 40 6t25 17 8 23q0 14-9 22t-27 8q0-25-10-39t-33-14q-25 0-36 11t-11 29q0 13 6 21t20 16 36 16q26 11 43 22t24 26 8 35q0 39-27 59t-72 20m264-5h-134v-21h4q11 0 20-3t15-10 6-23v-268q0-15-6-23t-15-9-20-2h-4v-21h92v193q0 6-1 17t0 21-1 17 0 8l62-69q16-18 22-28t6-16q0-7-6-9t-19-1v-21h111v21q-17 0-34 12t-37 34l-35 40 67 99q13 20 25 30t30 11h2v21h-7q-22 0-36-2t-25-6-18-15-19-26l-50-78-37 27v45q0 15 5 22t15 9 21 3h1v21m293 0h-135v-21h4q17 0 29-7t12-29v-268q0-15-6-23t-15-9-20-2h-4v-21h92v110q0 9 0 18t-1 17-1 7h3q7-15 18-25t24-15 31-5q43 0 66 23t23 75v118q0 23 10 29t28 7h2v21h-87v-173q0-32-13-50t-42-18q-21 0-34 10t-20 28-7 43v105q0 22 12 28t29 6h2v21m406 0h-122v-21h10q14 0 21-8t17-31l111-297h39l113 309q5 16 13 21t22 6h7v21h-138v-21h12q15 0 22-6t8-18q0-4-1-9t-3-10l-20-56h-132l-19 53q-2 6-3 11t-1 10q0 13 8 19t25 6h11v21m23-237l-34 92h113l-31-87q-8-22-15-42t-10-37q-4 18-9 34t-14 40m369 237h-145v-21h2q17 0 29-7t12-29v-156q0-22-13-28t-28-6h-2v-21h77l10 49h2q7-15 14-27t20-20 35-7q27 0 40 9t14 27q0 16-11 26t-36 10q0-21-6-30t-20-9q-14 0-24 11t-15 28-8 35-2 33v78q0 22 12 28t29 6h14v21m177 5q-34 0-56-20t-22-60q0-40 28-59t86-21l42-2v-30q0-18-3-32t-13-21-31-8q-19 0-29 7t-13 19-3 28q-21 0-32-7t-11-24q0-18 12-28t33-16 45-4q46 0 69 19t23 67v130q0 21 7 28t24 8h1v21h-67l-8-43h-4q-11 14-21 24t-23 17-34 7m11-31q31 0 49-19t18-51v-40l-32 1q-43 2-59 17t-16 45q0 47 40 47m345 31q-29 0-47-13t-29-31h-3l-9 39h-80v-21h4q11 0 20-3t15-10 6-23v-268q0-22-13-28t-28-6h-4v-21h92v92q0 8-1 21t0 26-1 18h2q11-23 29-37t47-13q50 0 76 33t26 105q0 73-26 106t-76 34m-8-32q33 0 47-28t15-80q0-54-15-80t-47-26q-39 0-54 26t-14 80q0 52 14 80t54 28m291 27h-142v-21h7q11 0 20-3t15-9 6-22v-158q0-15-6-23t-15-9-20-2h-2v-21h90v211q0 15 5 23t15 10 21 3h6v21m-73-318q-12 0-20-7t-8-24q0-18 8-25t20-6q12 0 20 6t9 25q0 17-9 24t-20 7m221 323q-33 0-59-14t-40-45-15-79q0-53 15-84t40-44 57-12q21 0 41 5t33 17 13 29q0 11-5 18t-15 10-25 3q0-16-4-29t-12-21-26-7q-19 0-34 10t-22 35-7 70q0 53 17 79t58 26q24 0 41-10t26-25q4 3 6 8t2 12q0 11-9 22t-29 18-47 8" />
</svg>