<svg id="fnt-Noto Serif Telugu" viewBox="0 0 4160 1000" xmlns="http://www.w3.org/2000/svg"><path id="noto-serif-telugu" class="f" d="M145 667h-126v-21h7q11 0 20-3t15-10 6-23v-245q0-15-6-23t-15-9-20-2h-7v-21h92l179 276v-221q0-15-6-23t-15-9-20-2h-7v-21h126v21h-7q-11 0-20 2t-15 10-6 24v300h-35l-188-288v231q0 15 6 23t15 10 20 3h7v21m380 5q-54 0-85-35t-31-105q0-70 30-104t88-34q54 0 85 34t31 104q0 71-30 105t-88 35m1-26q25 0 40-13t22-38 6-63q0-56-15-84t-53-28-53 28-15 84 15 85 53 29m264 26q-38 0-55-18t-17-60v-167h-38v-20q9 0 20-4t19-12q8-9 14-22t9-32h23v62h65v28h-65v169q0 25 10 37t28 12q9 0 16-1t16-2v22q-7 3-20 5t-25 3m200 0q-54 0-85-35t-31-105q0-70 29-104t88-34q54 0 85 34t31 104q0 71-30 105t-87 35m1-26q25 0 40-13t21-38 7-63q0-56-16-84t-53-28-53 28-15 84 16 85 53 29m409 26q-25 0-44-5t-31-15-19-22-6-29q0-10 4-17t13-12 19-4q1 20 8 38t22 30 38 11q33 0 52-16t19-47q0-18-7-31t-24-24-46-23q-31-13-52-28t-30-35-10-48q0-28 14-49t39-31 56-10q30 0 51 8t32 20 11 28q0 16-11 24t-29 8q0-15-5-30t-18-24-33-9q-29 0-45 15t-16 42q0 20 7 33t25 25 46 23q29 12 50 26t32 33 11 44q0 32-15 54t-43 35-65 12m292 0q-55 0-86-36t-30-101q0-70 29-106t82-35q48 0 76 30t28 89v23h-167q1 55 20 79t55 25q26 0 44-11t27-24q4 2 7 6t3 11q0 10-10 22t-29 19-49 9m-67-163h115q0-40-12-64t-42-24q-28 0-43 22t-18 66m352 158h-145v-21h2q11 0 20-3t15-10 6-23v-156q0-15-6-23t-15-9-20-2h-2v-21h77l10 49h2q7-15 14-27t20-20 35-7q27 0 40 9t14 27q0 16-11 26t-36 10q0-21-6-30t-20-9q-14 0-24 11t-15 28-8 35-2 33v78q0 15 5 22t15 9 21 3h14v21m228 0h-142v-21h6q11 0 20-3t15-9 6-22v-158q0-15-6-23t-15-9-20-2h-1v-21h89v211q0 15 6 23t15 10 20 3h7v21m-73-318q-12 0-21-7t-8-24q0-18 8-25t21-6q11 0 20 6t8 25q0 17-8 24t-20 7m247 318h-154v-21h6q12 0 21-3t15-10 5-23v-188h-45v-23h45v-25q0-45 24-69t65-23q26 0 41 4t22 12 7 19q0 9-6 15t-14 9-21 4q0-10-3-20t-10-15-20-5q-22 0-30 16t-8 48v30h71v23h-71v188q0 15 6 23t15 10 20 3h19v21m389 0h-156v-21h12q11 0 20-3t15-9 6-22v-277h-48q-22 0-31 12t-10 29l-3 21h-26l3-87h281l3 87h-26l-3-21q-2-17-10-29t-31-12h-49v275q0 15 6 23t15 10 20 3h12v21m219 5q-54 0-85-36t-31-101q0-70 29-106t82-35q49 0 76 30t28 89v23h-166q1 55 19 79t55 25q26 0 44-11t28-24q3 2 6 6t3 11q0 10-9 22t-29 19-50 9m-66-163h115q0-40-13-64t-42-24q-27 0-43 22t-17 66m339 158h-142v-21h6q12 0 21-3t15-10 5-23v-268q0-15-6-23t-15-9-20-2h-6v-21h94v323q0 15 6 23t15 10 20 3h7v21m143 5q-40 0-61-24t-22-74v-120q0-15-6-23t-15-9-20-2h-1v-21h89v172q0 22 5 37t16 24 32 8q22 0 36-11t20-28 7-42v-103q0-16-6-24t-15-10-20-2h-2v-21h90v213q0 15 5 22t15 9 21 3h1v21h-79l-7-41h-2q-16 28-36 37t-45 9m296 115q-52 0-78-20t-26-53q0-20 9-33t23-21 31-10q-10-5-19-15t-9-26q0-15 8-26t25-21q-22-9-34-30t-11-46q0-43 23-68t71-24q18 0 34 5t23 11q7-8 19-17t29-10q15 0 22 8t8 18-7 18-20 8q0-5-3-11t-13-6q-7 0-12 2t-10 4q9 11 14 25t6 36q0 37-23 61t-67 25q-6 0-14-1t-13-2q-9 5-16 13t-7 19q0 9 5 14t26 5h56q45 0 64 21t19 53q0 43-33 68t-100 26m1-25q36 0 56-8t27-21 8-31q0-23-13-31t-38-8h-49q-14 0-27 4t-20 14-8 30q0 14 5 26t20 18 39 7m10-215q17 0 26-7t14-20 5-36q0-22-5-37t-14-22-26-7q-16 0-26 7t-15 22-4 38q0 32 10 47t35 15m279 125q-39 0-61-24t-21-74v-120q0-15-6-23t-15-9-20-2h-2v-21h90v172q0 22 4 37t17 24 31 8q22 0 36-11t21-28 6-42v-103q0-16-5-24t-15-10-21-2h-1v-21h89v213q0 15 6 22t15 9 20 3h2v21h-80l-6-41h-3q-15 28-36 37t-45 9" />
</svg>