<svg id="fnt-Noto Serif Ethiopic" viewBox="0 0 4462 1000" xmlns="http://www.w3.org/2000/svg"><path id="noto-serif-ethiopic" class="f" d="M145 667h-126v-21h7q11 0 20-3t15-10 6-23v-245q0-15-6-23t-15-9-20-2h-7v-21h92l179 276v-221q0-15-6-23t-15-9-20-2h-7v-21h126v21h-7q-11 0-20 2t-15 10-6 24v300h-35l-188-288v231q0 15 6 23t15 10 20 3h7v21m380 5q-54 0-85-35t-31-105q0-70 30-104t88-34q54 0 85 34t31 104q0 71-30 105t-88 35m1-26q25 0 40-13t22-38 6-63q0-56-15-84t-53-28-53 28-15 84 15 85 53 29m264 26q-38 0-55-18t-17-60v-167h-38v-20q9 0 20-4t19-12q8-9 14-22t9-32h23v62h65v28h-65v169q0 25 10 37t28 12q9 0 16-1t16-2v22q-7 3-20 5t-25 3m200 0q-54 0-85-35t-31-105q0-70 29-104t88-34q54 0 85 34t31 104q0 71-30 105t-87 35m1-26q25 0 40-13t21-38 7-63q0-56-16-84t-53-28-53 28-15 84 16 85 53 29m397 26q-24 0-43-5t-31-15-19-22-6-29q0-10 4-17t12-12 20-4q1 20 8 38t21 30 38 11q34 0 53-16t19-47q0-18-8-31t-24-24-46-23q-31-13-51-28t-31-35-10-48q0-28 14-49t39-31 57-10q30 0 50 8t32 20 11 28q0 16-11 24t-28 8q0-15-6-30t-17-24-33-9q-29 0-45 15t-16 42q0 20 7 33t24 25 46 23q30 12 50 26t32 33 11 44q0 32-15 54t-43 35-65 12m292 0q-54 0-85-36t-31-101q0-70 29-106t82-35q49 0 76 30t28 89v23h-166q1 55 19 79t55 25q26 0 44-11t28-24q3 2 6 6t3 11q0 10-9 22t-29 19-50 9m-66-163h115q0-40-13-64t-42-24q-27 0-43 22t-17 66m351 158h-144v-21h1q12 0 21-3t15-10 5-23v-156q0-15-6-23t-15-9-20-2h-1v-21h77l9 49h3q6-15 14-27t20-20 34-7q28 0 41 9t13 27q0 16-11 26t-35 10q0-14-3-23t-8-12-16-4q-14 0-23 11t-15 28-8 35-3 33v78q0 15 6 22t15 9 20 3h14v21m228 0h-142v-21h7q11 0 20-3t15-9 6-22v-158q0-15-6-23t-15-9-20-2h-2v-21h90v211q0 15 5 23t15 10 21 3h6v21m-73-318q-12 0-20-7t-8-24q0-18 8-25t20-6q12 0 20 6t9 25q0 17-9 24t-20 7m248 318h-155v-21h7q11 0 20-3t15-10 6-23v-188h-46v-23h46v-25q0-45 23-69t65-23q26 0 41 4t22 12 7 19q0 9-5 15t-15 9-21 4q0-10-3-20t-10-15-20-5q-21 0-29 16t-8 48v30h70v23h-70v188q0 15 5 23t15 10 21 3h19v21m433 0h-268v-21h7q11 0 20-3t15-9 6-22v-245q0-16-6-24t-15-10-20-2h-7v-21h252l3 87h-26l-3-21q-1-11-6-21t-14-15-24-5h-84v133h121v24h-121v150h97q16 0 25-6t15-15 7-20l4-22h26l-4 88m145 5q-38 0-56-18t-17-60v-167h-38v-20q9 0 20-4t19-12q9-9 14-22t9-32h23v62h66v28h-66v169q0 25 11 37t27 12q9 0 17-1t15-2v22q-6 3-19 5t-25 3m199-5h-134v-21h4q11 0 20-3t15-10 6-23v-268q0-15-6-23t-15-9-20-2h-4v-21h92v110q0 9-1 18t-1 17 0 7h2q8-15 18-25t25-15 31-5q43 0 65 23t23 75v118q0 15 5 23t14 10 20 3h1v21h-87v-173q0-32-12-50t-43-18q-20 0-34 10t-20 28-6 43v105q0 15 5 22t15 9 21 3h1v21m328 0h-142v-21h6q11 0 20-3t15-9 6-22v-158q0-15-6-23t-15-9-20-2h-1v-21h89v211q0 15 6 23t15 10 20 3h7v21m-73-318q-12 0-21-7t-8-24q0-18 8-25t21-6q11 0 20 6t8 25q0 17-8 24t-20 7m223 323q-54 0-85-35t-31-105q0-70 29-104t88-34q54 0 85 34t31 104q0 71-30 105t-87 35m1-26q25 0 40-13t21-38 7-63q0-56-16-84t-53-28-53 28-15 84 16 85 53 29m287 141h-134v-21h4q11 0 20-3t15-10 6-23v-276q0-15-6-23t-15-9-20-2h-7v-21h88l5 45h2q11-23 29-37t47-13q50 0 76 33t26 105q0 73-26 106t-76 34q-29 0-47-13t-29-31h-2q1 14 1 30t1 26v48q0 15 5 22t15 9 21 3h1v21m26-147q33 0 47-28t15-80q0-54-15-80t-47-26q-26 0-41 11t-21 35-6 60q0 35 6 59t21 36 41 13m291 27h-142v-21h7q11 0 20-3t15-9 6-22v-158q0-15-6-23t-15-9-20-2h-2v-21h90v211q0 15 5 23t15 10 21 3h6v21m-73-318q-12 0-20-7t-8-24q0-18 8-25t20-6q12 0 20 6t9 25q0 17-9 24t-20 7m221 323q-33 0-59-14t-40-45-15-79q0-53 15-84t40-44 57-12q21 0 41 5t33 17 13 29q0 11-5 18t-15 10-25 3q0-16-4-29t-12-21-26-7q-19 0-34 10t-22 35-7 70q0 35 7 59t25 35 43 11q16 0 29-4t22-13 16-18q4 3 6 8t2 12q0 11-9 22t-29 18-47 8" />
</svg>