<svg id="fnt-Noto Sans Inscriptional Pahlavi" viewBox="0 0 7238 1000" xmlns="http://www.w3.org/2000/svg"><path id="noto-sans-inscriptional-pahlavi" class="f" d="M332 310v357h-53l-191-297h-2q1 18 3 44t1 53v200h-41v-357h52l190 295h2q0-8-1-24t-2-35 0-35v-201h42m324 222q0 67-34 103t-91 37q-36 0-64-17t-43-47-16-76q0-66 33-102t91-36q37 0 64 16t44 47 16 75m-203 0q0 48 19 75t60 28q40 0 59-28t19-75-19-74-60-27-59 27-19 74m362 104q10 0 20-2t17-4v34q-7 3-20 5t-25 3q-21 0-39-8t-28-25-11-50v-156h-38v-21l38-18 18-57h26v62h77v34h-77v155q0 24 11 36t31 12m324-104q0 67-34 103t-91 37q-36 0-64-17t-43-47-16-76q0-66 33-102t91-36q37 0 64 16t44 47 16 75m-203 0q0 48 19 75t60 28q40 0 59-28t19-75-19-74-60-27-59 27-19 74m611 39q0 48-35 74t-93 27q-30 0-55-5t-43-12v-43q18 8 45 14t55 7q40 0 60-16t21-42q0-17-8-29t-26-23-50-21q-46-17-69-41t-23-65q0-29 14-49t40-31 60-11q29 0 54 5t44 15l-14 38q-18-8-40-13t-45-6q-34 0-51 14t-17 38q0 18 8 30t24 22 46 20q32 12 53 25t33 32 12 46m167-177q49 0 73 22t23 68v183h-32l-8-38h-2q-18 22-37 32t-53 11q-37 0-61-20t-24-60q0-40 32-62t97-23l45-2v-16q0-33-14-46t-41-13q-21 0-40 6t-36 14l-13-33q17-9 41-16t50-7m53 142l-40 1q-50 2-69 16t-19 40q0 22 13 33t36 10q34 0 56-19t23-57v-24m255-142q48 0 73 23t24 75v175h-43v-172q0-64-60-64-45 0-62 25t-17 72v139h-44v-268h36l6 36h3q13-21 36-31t48-10m355 199q0 39-29 59t-78 20q-28 0-49-5t-35-12v-40q16 8 38 14t47 7q33 0 48-11t15-28q0-10-5-18t-20-16-41-18q-26-10-44-20t-29-24-10-36q0-34 28-53t73-18q24 0 45 4t40 14l-15 35q-17-7-35-12t-38-5q-27 0-42 8t-14 24q0 11 7 19t21 15 41 17q26 10 44 20t27 24 10 36m301 48v26h-129v-26l42-10v-285l-42-10v-26h129v26l-42 10v285l42 10m192-247q48 0 73 23t24 75v175h-43v-172q0-64-60-64-45 0-62 25t-17 72v139h-44v-268h36l6 36h3q13-21 36-31t48-10m355 199q0 39-29 59t-78 20q-28 0-49-5t-35-12v-40q16 8 38 14t47 7q33 0 48-11t15-28q0-10-5-18t-20-16-41-18q-26-10-44-20t-29-24-10-36q0-34 28-53t73-18q24 0 45 4t40 14l-15 35q-17-7-35-12t-38-5q-27 0-42 8t-14 24q0 11 7 19t21 15 41 17q26 10 44 20t27 24 10 36m172 79q-35 0-63-15t-44-45-15-78q0-49 16-80t45-46 64-14q21 0 40 4t31 10l-14 37q-12-5-28-9t-30-4q-79 0-79 102 0 48 19 74t58 26q22 0 38-5t31-11v39q-13 7-30 11t-39 4m258-278q7 0 16 0t15 3l-5 40q-7-1-15-2t-14-1q-21 0-39 11t-29 31-10 48v143h-44v-268h36l5 49h2q13-22 33-38t49-16m104-96q10 0 17 7t8 21q0 14-8 21t-17 7q-11 0-19-7t-7-21q0-14 7-21t19-7m-23 101h44v268h-44v-268m257-5q49 0 79 34t31 104q0 69-31 104t-80 36q-31 0-51-12t-32-27h-3q1 8 2 21t1 23v110h-44v-388h36l6 36h2q12-17 32-29t52-12m-8 37q-41 0-58 23t-18 70v8q0 50 16 76t61 27q24 0 40-13t23-37 8-53q0-46-18-74t-54-27m277 205q10 0 21-2t17-4v34q-7 3-20 5t-25 3q-21 0-39-8t-29-25-11-50v-156h-38v-21l39-18 17-57h26v62h78v34h-78v155q0 24 12 36t30 12m114-338q10 0 17 7t8 21q0 14-8 21t-17 7q-11 0-19-7t-7-21q0-14 7-21t19-7m-23 101h44v268h-44v-268m362 133q0 67-34 103t-91 37q-35 0-63-17t-44-47-16-76q0-66 34-102t91-36q36 0 64 16t43 47 16 75m-202 0q0 48 18 75t60 28q41 0 60-28t19-75-19-74-60-27-60 27-18 74m401-138q48 0 72 23t25 75v175h-44v-172q0-64-60-64-44 0-61 25t-17 72v139h-44v-268h35l7 36h2q13-21 36-31t49-10m281 0q49 0 73 22t23 68v183h-32l-8-38h-2q-18 22-37 32t-53 11q-37 0-61-20t-24-60q0-40 32-62t97-23l45-2v-16q0-33-14-46t-41-13q-21 0-40 6t-36 14l-13-33q17-9 41-16t50-7m53 142l-40 1q-50 2-69 16t-19 40q0 22 13 33t36 10q34 0 56-19t23-57v-24m170-249v380h-44v-380h44m221 23h95q70 0 102 27t32 78q0 29-14 55t-44 42-85 16h-41v139h-45v-357m91 38h-46v141h36q51 0 76-16t25-56q0-35-22-52t-69-17m307 46q49 0 73 22t23 68v183h-32l-8-38h-2q-18 22-37 32t-53 11q-37 0-61-20t-24-60q0-40 32-62t97-23l45-2v-16q0-33-14-46t-41-13q-21 0-40 6t-36 14l-13-33q17-9 41-16t50-7m53 142l-40 1q-50 2-69 16t-19 40q0 22 13 33t36 10q34 0 56-19t23-57v-24m170-249v111q0 20-2 38h3q13-21 35-31t48-11q49 0 74 23t24 75v175h-43v-172q0-64-60-64-45 0-62 25t-17 72v139h-44v-380h44m309 0v380h-44v-380h44m187 107q49 0 72 22t24 68v183h-32l-9-38h-2q-17 22-37 32t-53 11q-36 0-60-20t-24-60q0-40 31-62t97-23l46-2v-16q0-33-15-46t-41-13q-21 0-40 6t-35 14l-14-33q18-9 42-16t50-7m52 142l-39 1q-50 2-70 16t-19 40q0 22 14 33t35 10q34 0 57-19t22-57v-24m236 131h-50l-102-268h47l57 158q4 11 9 24t8 26 5 21h2q2-9 5-21t9-26 8-24l57-158h47l-102 268m167-369q10 0 18 7t8 21q0 14-8 21t-18 7q-11 0-18-7t-8-21q0-14 8-21t18-7m-22 101h44v268h-44v-268" />
</svg>