<svg id="fnt-Noto Serif Old Uyghur" viewBox="0 0 5161 1000" xmlns="http://www.w3.org/2000/svg"><path id="noto-serif-old-uyghur" class="f" d="M145 667h-126v-21h7q17 0 29-7t12-29v-245q0-22-13-28t-28-6h-7v-21h92l179 276v-221q0-22-13-28t-28-6h-7v-21h126v21h-7q-17 0-29 6t-12 30v300h-35l-188-288v231q0 23 12 29t29 7h7v21m380 5q-54 0-85-35t-31-105q0-70 30-104t88-34q54 0 85 34t31 104q0 71-30 105t-88 35m1-26q38 0 53-29t15-85-15-84-53-28-53 28-15 84 15 85 53 29m264 26q-38 0-55-18t-17-60v-167h-38v-20q9 0 20-4t19-12q8-9 14-22t9-32h23v62h65v28h-65v169q0 25 10 37t28 12q9 0 16-1t16-2v22q-7 3-20 5t-25 3m200 0q-54 0-85-35t-31-105q0-70 29-104t88-34q54 0 85 34t31 104q0 71-30 105t-87 35m1-26q37 0 52-29t16-85-16-84-53-28-53 28-15 84 16 85 53 29m367 26q-49 0-74-20t-25-51q0-15 9-24t27-9q1 20 8 38t21 30 38 11q34 0 53-16t19-47q0-18-8-31t-24-24-46-23q-46-19-69-44t-23-67q0-28 14-49t39-31 57-10q44 0 69 17t24 39q0 16-11 24t-28 8q0-15-6-30t-17-24-33-9q-29 0-45 15t-16 42q0 20 7 33t24 25 46 23q44 18 69 41t24 62q0 48-33 74t-90 27m292 0q-54 0-85-36t-31-101q0-70 29-106t82-35q49 0 76 30t28 89v23h-166q1 55 19 79t55 25q26 0 44-11t28-24q3 2 6 6t3 11q0 10-9 22t-29 19-50 9m-66-163h115q0-40-13-64t-42-24q-27 0-43 22t-17 66m351 158h-144v-21h1q17 0 29-7t12-29v-156q0-22-12-28t-29-6h-1v-21h77l9 49h3q6-15 14-27t20-20 34-7q28 0 41 9t13 27q0 16-11 26t-35 10q0-21-6-30t-21-9q-14 0-23 11t-15 28-8 35-3 33v78q0 22 12 28t29 6h14v21m155-318q-12 0-20-7t-8-24q0-18 8-25t20-6q12 0 20 6t9 25q0 17-9 24t-20 7m73 318h-142v-21h7q16 0 28-6t13-28v-158q0-22-13-28t-28-6h-2v-21h90v211q0 23 12 29t29 7h6v21m175 0h-155v-21h7q17 0 29-7t12-29v-188h-46v-23h46v-25q0-45 23-69t65-23q39 0 55 9t15 26q0 13-11 20t-30 8q0-15-7-28t-26-12q-21 0-29 16t-8 48v30h70v23h-70v188q0 23 12 29t29 7h19v21m302 5q-53 0-88-23t-53-65-17-97 17-96 53-64 88-23q51 0 85 23t53 64 19 97-19 96-53 65-85 23m0-27q56 0 78-42t23-115q0-75-23-116t-78-41q-56 0-79 41t-23 116q0 74 23 115t79 42m334 22h-142v-21h6q17 0 29-7t12-29v-268q0-22-12-28t-29-6h-6v-21h94v323q0 23 12 29t29 7h7v21m136 5q-50 0-76-34t-26-105q0-72 26-106t76-33q29 0 47 12t29 32h3q-1-13-2-28t-1-27v-41q0-22-12-28t-29-6h-4v-21h92v325q0 22 12 28t29 6h4v21h-84l-6-45h-2q-11 23-29 36t-47 14m8-32q39 0 54-27t14-80q0-52-14-80t-54-27q-33 0-48 27t-14 81q0 53 14 79t48 27m450 32q-59 0-92-26t-34-87v-194q0-22-12-28t-29-6h-6v-21h145v21h-6q-17 0-29 6t-12 30v195q0 43 23 61t60 19q43 0 64-22t20-56v-199q0-22-12-28t-29-6h-6v-21h125v21h-6q-17 0-29 6t-12 30v198q0 50-32 78t-91 29m197 115v-24q34 0 55-13t36-35 21-50l-92-219q-7-15-14-21t-22-5h-1v-21h120v21h-2q-30 0-30 24 0 8 4 18l37 89q5 12 9 25t9 27 6 21q3-15 9-30t11-31l33-97q5-12 5-22 0-24-33-24h-2v-21h104v21h-1q-15 0-22 7t-16 32l-76 210q-13 36-25 59t-27 36-37 18-55 5h-4m379 0q-52 0-78-20t-26-53q0-30 19-45t43-19q-10-5-19-15t-8-26q0-15 7-26t25-21q-21-9-33-30t-12-46q0-43 24-68t70-24q18 0 34 5t23 11q7-8 20-17t29-10q15 0 22 8t7 18-6 18-20 8q0-5-4-11t-13-6q-11 0-21 6 8 11 14 25t5 36q0 37-22 61t-68 25q-6 0-14-1t-12-2q-10 5-17 13t-7 19q0 9 6 14t25 5h57q44 0 63 21t19 53q0 43-32 68t-100 26m11-240q24 0 34-15t10-48q0-34-10-50t-35-16q-24 0-34 17t-11 50q0 32 11 47t35 15m-10 215q36 0 55-8t27-21 8-31q0-23-13-31t-38-8h-49q-14 0-26 4t-21 14-8 30q0 14 6 26t19 18 40 7m296-95h-135v-21h4q17 0 29-7t12-29v-268q0-22-12-28t-29-6h-4v-21h92v110q0 9 0 18t-1 17-1 7h3q23-45 73-45 43 0 66 23t23 75v118q0 23 10 29t28 7h2v21h-87v-173q0-32-13-50t-42-18q-31 0-46 22t-15 59v105q0 22 12 28t29 6h2v21m310 5q-39 0-61-24t-21-74v-120q0-22-13-28t-28-6h-2v-21h90v172q0 33 11 51t41 18q33 0 48-23t15-58v-103q0-24-12-30t-29-6h-1v-21h89v213q0 22 12 28t29 6h2v21h-80l-6-41h-3q-15 28-36 37t-45 9m342-5h-144v-21h1q17 0 29-7t12-29v-156q0-22-12-28t-29-6h-1v-21h77l9 49h3q6-15 14-27t20-20 34-7q28 0 41 9t13 27q0 16-11 26t-35 10q0-21-6-30t-21-9q-14 0-23 11t-15 28-8 35-3 33v78q0 22 12 28t29 6h14v21" />
</svg>