<svg id="fnt-Noto Sans Armenian" viewBox="0 0 4793 1000" xmlns="http://www.w3.org/2000/svg"><path id="noto-sans-armenian" class="f" d="M332 310v357h-53l-191-297h-2q1 12 2 27t1 34 1 36v200h-41v-357h52l190 295h2q0-8-1-24t-2-35 0-35v-201h42m324 222q0 34-9 59t-25 44-40 27-51 10q-27 0-49-10t-39-27-26-44-9-59q0-44 15-75t43-47 66-16q37 0 64 16t44 47 16 75m-203 0q0 32 8 55t26 36 45 12 44-12 26-36 8-55q0-32-8-54t-26-35-45-12q-41 0-59 27t-19 74m362 104q10 0 20-2t17-4v34q-7 3-20 5t-25 3q-21 0-39-8t-28-25-11-50v-156h-38v-21l38-18 18-57h26v62h77v34h-77v155q0 24 11 36t31 12m324-104q0 34-9 59t-25 44-40 27-51 10q-27 0-49-10t-39-27-26-44-9-59q0-44 15-75t43-47 66-16q37 0 64 16t44 47 16 75m-203 0q0 32 8 55t26 36 45 12 44-12 26-36 8-55q0-32-8-54t-26-35-45-12q-41 0-59 27t-19 74m611 39q0 32-16 54t-44 35-68 12q-20 0-38-2t-33-6-27-9v-43q18 8 45 14t55 7q27 0 45-7t27-20 9-31-8-29-26-23-50-21q-23-9-41-19t-28-22-18-28-5-37q0-29 14-49t40-31 60-11q29 0 54 5t44 15l-14 38q-18-8-40-13t-45-6q-23 0-38 7t-22 18-8 27q0 18 8 30t24 22 46 20q32 12 53 25t33 32 12 46m167-177q49 0 73 22t23 68v183h-32l-8-38h-2q-12 14-24 24t-28 14-38 5q-24 0-44-9t-30-26-11-45q0-40 32-62t97-23l45-2v-16q0-33-14-46t-41-13q-21 0-40 6t-36 14l-13-33q17-9 41-16t50-7m53 142l-40 1q-50 2-69 16t-19 40q0 22 13 33t36 10q34 0 56-19t23-57v-24m255-142q48 0 73 23t24 75v175h-43v-172q0-32-15-48t-45-16q-45 0-62 25t-17 72v139h-44v-268h36l6 36h3q9-14 22-23t29-14 33-4m355 199q0 26-13 43t-37 27-57 9q-28 0-49-5t-35-12v-40q16 8 38 14t47 7q33 0 48-11t15-28q0-10-5-18t-20-16-41-18q-26-10-44-20t-29-24-10-36q0-34 28-53t73-18q24 0 45 4t40 14l-15 35q-17-7-35-12t-38-5q-27 0-42 8t-14 24q0 11 7 19t21 15 41 17q26 10 44 20t27 24 10 36m471 74h-46l-43-111h-142l-42 111h-46l140-359h40l139 359m-103-151l-40-108q-1-4-5-14t-7-22-5-17q-2 10-5 20t-6 19-4 14l-41 108h113m271-122q8 0 16 0t16 3l-6 40q-6-1-14-2t-15-1q-15 0-29 6t-25 18-18 29-6 37v143h-44v-268h36l5 49h2q9-15 21-28t27-19 34-7m376 0q45 0 68 23t22 75v175h-43v-173q0-31-14-47t-41-16q-39 0-56 22t-16 66v148h-44v-173q0-21-6-35t-18-21-31-7q-27 0-42 11t-23 33-6 53v139h-44v-268h35l7 36h2q9-14 21-23t27-14 31-4q31 0 52 11t30 34h3q13-23 36-34t50-11m277 0q34 0 59 15t38 42 13 64v26h-183q1 46 23 69t62 24q26 0 45-5t41-13v38q-20 9-40 13t-48 5q-38 0-67-16t-46-46-16-75q0-44 15-76t41-48 63-17m-1 36q-31 0-50 20t-21 56h136q0-23-7-40t-21-27-37-9m308-36q48 0 73 23t24 75v175h-43v-172q0-32-15-48t-45-16q-45 0-62 25t-17 72v139h-44v-268h36l6 36h3q9-14 22-23t29-14 33-4m180 5h44v268h-44v-268m23-101q10 0 17 7t8 21q0 14-8 21t-17 7q-11 0-19-7t-7-21q0-14 7-21t19-7m208 96q49 0 72 22t24 68v183h-32l-9-38h-2q-11 14-24 24t-28 14-38 5q-24 0-43-9t-30-26-11-45q0-40 31-62t97-23l46-2v-16q0-33-15-46t-41-13q-21 0-40 6t-35 14l-14-33q18-9 42-16t50-7m52 142l-39 1q-50 2-70 16t-19 40q0 22 14 33t35 10q34 0 57-19t22-57v-24m256-142q48 0 72 23t25 75v175h-44v-172q0-32-14-48t-46-16q-44 0-61 25t-17 72v139h-44v-268h35l7 36h2q9-14 22-23t30-14 33-4" />
</svg>