<svg id="fnt-Noto Sans Hebrew" viewBox="0 0 4328 1000" xmlns="http://www.w3.org/2000/svg"><path id="noto-sans-hebrew" class="f" d="M328 310v357h-54l-188-299h-1q1 13 1 27t1 27 0 27v218h-40v-357h53l188 297h1q0-12-1-26t-1-28 0-26v-217h41m319 222q0 31-8 57t-23 44-39 28-53 11q-29 0-52-10t-39-29-24-44-8-57q0-43 15-75t43-47 67-17q40 0 67 18t40 48 14 73m-201 0q0 32 8 55t26 37 44 13q27 0 44-13t26-37 8-55q0-30-7-54t-25-37-44-14q-39 0-60 28t-20 77m357 104q13 0 23-3t19-5v34q-11 4-23 7t-31 3q-24 0-40-9t-24-27-7-47v-156h-38v-22l41-12 11-63h30v62h79v35h-79v152q0 25 8 38t31 13m329-104q0 31-8 57t-23 44-39 28-53 11q-29 0-52-10t-39-29-24-44-8-57q0-43 15-75t43-47 67-17q40 0 67 18t40 48 14 73m-201 0q0 32 8 55t26 37 44 13q27 0 44-13t26-37 8-55q0-30-7-54t-25-37-44-14q-39 0-60 28t-20 77m618 38q0 31-16 54t-44 35-68 13q-23 0-41-3t-32-6-28-9v-41q23 10 49 15t54 6q23 0 41-7t29-20 11-34q0-20-10-32t-29-21-47-18q-28-11-50-23t-33-30-12-49q0-32 16-53t43-32 62-10q28 0 52 5t47 16l-15 35q-23-10-44-15t-41-5q-22 0-39 6t-27 19-10 32q0 20 10 32t30 21 45 19q29 10 51 22t34 31 12 47m168-177q46 0 69 24t24 72v178h-31l-8-46h-2q-9 15-21 26t-30 18-43 7q-26 0-44-10t-28-26-9-41q0-42 32-62t91-24l49-2v-15q0-35-14-51t-41-15q-19 0-38 5t-41 16l-13-32q22-10 46-16t52-6m50 141l-40 2q-42 2-65 16t-23 41q0 21 13 33t38 13q38 0 57-22t20-57v-26m255-141q43 0 68 24t25 74v176h-44v-165q0-38-16-56t-45-17q-37 0-57 24t-20 74v140h-44v-269h33l6 48h2q8-14 19-26t30-20 43-7m349 200q0 23-12 41t-34 28-60 10q-28 0-51-5t-41-12v-38q22 11 46 16t44 5q35 0 50-12t15-31q0-14-8-23t-25-16-39-14q-23-8-41-17t-27-23-10-37q0-35 27-54t73-18q25 0 46 5t42 13l-13 31q-17-8-37-12t-38-5q-27 0-42 9t-15 28q0 15 8 23t23 14 36 13q23 8 42 17t30 24 11 40m474-283v357h-44v-168h-182v168h-45v-357h45v151h182v-151h44m196 83q36 0 60 16t37 43 12 66v23h-187q0 46 23 72t66 25q24 0 43-4t42-14v34q-19 9-40 13t-50 5q-41 0-70-17t-44-47-14-73 14-75 41-49 67-18m1 32q-32 0-53 22t-25 64h145q0-25-7-45t-22-30-38-11m219-138v105q0 13-1 29t-1 28h2q9-24 32-40t57-16q49 0 76 35t27 103q0 42-12 73t-37 50-60 18q-33 0-53-14t-29-34h-3l-7 43h-35v-380h44m76 142q-39 0-58 26t-18 74v8q0 48 17 73t54 25q37 0 57-27t19-77q0-51-18-77t-53-25m305-35q10 0 19 1t17 3l-5 41q-8-1-16-3t-20-1q-16 0-30 5t-23 17-14 27-5 39v144h-44v-269h34l6 48h2q6-15 17-27t27-18 35-7m182-1q36 0 60 16t36 43 12 66v23h-186q0 46 22 72t66 25q25 0 43-4t42-14v34q-19 9-40 13t-49 5q-42 0-71-17t-43-47-15-73 14-75 42-49 67-18m1 32q-33 0-54 22t-24 64h145q0-25-8-45t-22-30-37-11m384 242l-50-167q-3-10-6-21t-5-21-4-18h-1q-2 8-4 19t-5 21-6 21l-51 166h-44l-76-269h44l41 156q4 14 6 26t5 23 3 21h1q1-7 3-16t4-17 4-18 5-17l49-158h46l46 158q3 12 6 24t5 23 5 21h1q1-10 3-21t4-24 6-25l40-156h43l-73 269h-45" />
</svg>