<svg id="fnt-Noto Serif Vithkuqi" viewBox="0 0 4577 1000" xmlns="http://www.w3.org/2000/svg"><path id="noto-serif-vithkuqi" class="f" d="M145 667h-126v-21h7q17 0 29-7t12-29v-245q0-22-13-28t-28-6h-7v-21h92l179 276v-221q0-22-13-28t-28-6h-7v-21h126v21h-7q-17 0-29 6t-12 30v300h-35l-188-288v231q0 23 12 29t29 7h7v21m380 5q-54 0-85-35t-31-105q0-70 30-104t88-34q54 0 85 34t31 104q0 71-30 105t-88 35m1-26q38 0 53-29t15-85-15-84-53-28-53 28-15 84 15 85 53 29m264 26q-38 0-55-18t-17-60v-167h-38v-20q9 0 20-4t19-12q8-9 14-22t9-32h23v62h65v28h-65v169q0 25 10 37t28 12q9 0 16-1t16-2v22q-7 3-20 5t-25 3m200 0q-54 0-85-35t-31-105q0-70 29-104t88-34q54 0 85 34t31 104q0 71-30 105t-87 35m1-26q37 0 52-29t16-85-16-84-53-28-53 28-15 84 16 85 53 29m397 26q-32 0-55-9t-33-25-11-37q0-10 4-17t12-12 20-4q1 20 8 38t21 30 38 11q34 0 53-16t19-47q0-18-8-31t-24-24-46-23q-31-13-51-28t-31-35-10-48q0-28 14-49t39-31 57-10q44 0 69 17t24 39q0 16-11 24t-28 8q0-15-6-30t-17-24-33-9q-29 0-45 15t-16 42q0 20 7 33t24 25 46 23q44 18 69 41t24 62q0 32-15 54t-43 35-65 12m292 0q-54 0-85-36t-31-101q0-70 29-106t82-35q49 0 76 30t28 89v23h-166q1 55 19 79t55 25q26 0 44-11t28-24q3 2 6 6t3 11q0 10-9 22t-29 19-50 9m-66-163h115q0-40-13-64t-42-24q-27 0-43 22t-17 66m351 158h-144v-21h1q17 0 29-7t12-29v-156q0-22-12-28t-29-6h-1v-21h77l9 49h3q6-15 14-27t20-20 34-7q28 0 41 9t13 27q0 16-11 26t-35 10q0-21-6-30t-21-9q-14 0-23 11t-15 28-8 35-3 33v78q0 22 12 28t29 6h14v21m228 0h-142v-21h7q11 0 20-3t15-9 6-22v-158q0-15-6-23t-15-9-20-2h-2v-21h90v211q0 15 5 23t15 10 21 3h6v21m-73-318q-12 0-20-7t-8-24q0-18 8-25t20-6q12 0 20 6t9 25q0 17-9 24t-20 7m248 318h-155v-21h7q11 0 20-3t15-10 6-23v-188h-46v-23h46v-25q0-45 23-69t65-23q26 0 41 4t22 12 7 19q0 13-11 20t-30 8q0-10-3-20t-10-15-20-5q-21 0-29 16t-8 48v30h70v23h-70v188q0 15 5 23t15 10 21 3h19v21m296 0l-108-310q-5-16-13-21t-22-5h-7v-21h138v21h-12q-15 0-22 5t-8 19q0 4 1 8t3 10l55 163q8 22 13 43t10 39q4-18 9-39t14-43l55-159q2-6 3-12t1-10q0-13-8-19t-25-5h-11v-21h122v21h-10q-14 0-22 7t-16 32l-103 297h-37m341 0h-142v-21h7q11 0 20-3t15-9 6-22v-158q0-15-6-23t-15-9-20-2h-2v-21h90v211q0 15 5 23t15 10 21 3h6v21m-73-318q-12 0-20-7t-8-24q0-18 8-25t20-6q12 0 20 6t9 25q0 17-9 24t-20 7m200 323q-38 0-56-18t-17-60v-167h-38v-20q9 0 20-4t19-12q9-9 14-22t9-32h23v62h66v28h-66v169q0 25 11 37t27 12q9 0 17-1t15-2v22q-6 3-19 5t-25 3m199-5h-134v-21h4q17 0 29-7t12-29v-268q0-15-6-23t-15-9-20-2h-4v-21h92v110q0 9-1 18t-1 17 0 7h2q8-15 18-25t25-15 31-5q43 0 65 23t23 75v118q0 23 11 29t28 7h1v21h-87v-173q0-32-12-50t-43-18q-20 0-34 10t-20 28-6 43v105q0 22 12 28t29 6h1v21m318 0h-135v-21h4q12 0 21-3t15-10 5-23v-268q0-15-6-23t-15-9-20-2h-4v-21h92v193q0 6 0 17t-1 21-1 17 0 8l63-69q16-18 21-28t6-16q0-7-6-9t-18-1v-21h110v21q-17 0-34 12t-36 34l-35 40 66 99q13 20 26 30t30 11h1v21h-7q-21 0-36-2t-24-6-19-15-19-26l-50-78-37 27v45q0 15 6 22t15 9 20 3h2v21m285 5q-39 0-61-24t-21-74v-120q0-22-13-28t-28-6h-2v-21h90v172q0 33 11 51t41 18q33 0 48-23t15-58v-103q0-24-12-30t-29-6h-1v-21h89v213q0 22 12 28t29 6h2v21h-80l-6-41h-3q-15 28-36 37t-45 9m479 115h-149v-21h16q17 0 29-7t12-29v-43q0-8 0-21t1-24 1-20h-2q-11 23-29 36t-47 14q-50 0-76-34t-26-105q0-72 26-106t76-33q29 0 47 12t29 32h3l9-39h80v21h-4q-11 0-20 2t-15 10-6 24v276q0 22 12 28t29 6h4v21m-160-147q39 0 54-27t14-80q0-52-14-80t-54-27q-33 0-48 27t-14 81q0 53 14 79t48 27m323 27h-142v-21h6q11 0 20-3t15-9 6-22v-158q0-15-6-23t-15-9-20-2h-1v-21h89v211q0 15 6 23t15 10 20 3h7v21m-73-318q-12 0-21-7t-8-24q0-18 8-25t21-6q11 0 20 6t8 25q0 17-8 24t-20 7" />
</svg>