<svg id="fnt-Noto Sans Bengali" viewBox="0 0 4254 1000" xmlns="http://www.w3.org/2000/svg"><path id="noto-sans-bengali" class="f" d="M332 310v357h-53l-191-297h-2q1 12 2 27t1 34 1 36v200h-41v-357h52l190 295h2q0-8-1-24t-2-35 0-35v-201h42m324 222q0 34-9 60t-25 43-40 27-51 10q-27 0-49-10t-39-27-26-43-9-60q0-44 15-75t43-47 66-16q36 0 64 16t44 47 16 75m-203 0q0 32 8 55t26 36 45 12 44-12 26-36 8-55-8-54-26-35-45-12q-41 0-59 27t-19 74m362 104q10 0 20-2t17-4v34q-7 3-20 5t-25 3q-21 0-39-8t-28-25-11-50v-156h-38v-21l38-18 18-57h26v62h77v34h-77v155q0 24 11 36t31 12m324-104q0 34-9 60t-25 43-40 27-51 10q-27 0-49-10t-39-27-26-43-9-60q0-44 15-75t43-47 66-16q36 0 64 16t44 47 16 75m-203 0q0 32 8 55t26 36 45 12 44-12 26-36 8-55-8-54-26-35-45-12q-41 0-59 27t-19 74m611 39q0 32-16 54t-44 35-68 12q-20 0-38-2t-33-6-27-9v-43q18 8 45 14t55 7q27 0 45-7t27-20 9-31-8-29-26-22-50-22q-23-8-41-18t-28-23-18-28-5-37q0-28 14-49t40-31 60-11q29 0 53 5t45 15l-14 38q-18-8-40-13t-45-6q-23 0-38 7t-22 18-8 27q0 18 8 30t24 22 46 20q32 12 53 25t33 32 12 46m167-177q49 0 73 22t23 68v183h-32l-8-38h-2q-12 15-24 24t-28 14-38 5q-25 0-44-9t-30-26-11-45q0-40 32-62t97-23l45-2v-16q0-33-14-46t-41-13q-21 0-40 6t-36 14l-13-33q17-9 41-16t50-7m53 166v-24l-40 1q-50 2-69 16t-19 40q0 22 13 33t36 10q33 0 56-19t23-57m255-166q48 0 73 23t24 75v175h-43v-172q0-32-15-48t-45-16q-45 0-62 25t-17 72v139h-44v-268h36l6 36h3q9-14 22-23t29-14 33-4m355 199q0 26-13 43t-37 27-57 9q-28 0-49-5t-35-12v-40q16 8 38 14t47 7q33 0 48-11t15-28q0-10-5-18t-20-16-41-18q-26-10-44-20t-29-24-10-36q0-34 28-53t73-18q24 0 45 5t40 13l-15 35q-17-7-35-12t-38-5q-27 0-42 8t-14 24q0 12 7 19t21 15 41 17 44 20 27 24 10 36m201 74v-357h102q66 0 101 20t34 68q0 21-8 37t-23 27-37 15v3q23 4 41 13t29 27 10 45q0 33-15 55t-43 35-66 12h-125m45-319v114h66q45 0 62-15t18-44q0-29-21-42t-66-13h-59m68 151h-68v130h72q47 0 66-19t18-48q0-19-8-33t-28-22-52-8m309-105q34 0 59 15t38 42 14 64v26h-184q1 46 23 69t63 24q25 0 45-5t41-13v38q-21 9-41 13t-47 5q-39 0-68-16t-45-46-16-75q0-44 14-76t42-48 62-17m0 36q-32 0-50 20t-22 56h137q-1-22-8-40t-21-27-36-9m308-36q48 0 72 23t25 75v175h-44v-172q0-32-14-48t-46-16q-44 0-61 25t-17 72v139h-44v-268h35l7 36h2q9-14 22-23t30-14 33-4m275 0q26 0 47 10t37 30h2l6-35h35v272q0 39-13 64t-39 39-68 13q-29 0-53-5t-43-12v-41q19 10 44 16t55 5q34 0 54-20t20-55v-11q0-6 0-17t1-16h-2q-14 21-35 31t-48 10q-52 0-81-37t-29-102q0-64 29-102t81-37m6 37q-23 0-39 12t-24 35-8 56q0 49 18 75t54 27q20 0 35-6t24-16 14-29 4-41v-11q0-36-8-59t-26-33-44-10m308-37q49 0 72 22t24 68v183h-32l-9-38h-2q-11 15-24 24t-28 14-38 5q-24 0-43-9t-30-26-11-45q0-40 31-62t97-23l46-2v-16q0-33-15-46t-41-13q-21 0-40 6t-35 14l-14-33q18-9 42-16t50-7m52 166v-24l-39 1q-50 2-70 16t-19 40q0 22 14 33t35 10q34 0 56-19t23-57m171-273v380h-44v-380h44m85 112h44v268h-44v-268m22-101q10 0 18 7t8 21-8 21-18 7q-11 0-18-7t-8-21 8-21 18-7" />
</svg>