<svg id="fnt-Noto Sans Symbols" viewBox="0 0 4483 1000" xmlns="http://www.w3.org/2000/svg"><path id="noto-sans-symbols" class="f" d="M90 667h-41v-357h52l190 295h2q0-8-1-24t-2-35 0-35v-201h42v357h-53l-191-297h-2q1 12 2 27t1 34 1 36v200m441 5q-36 0-64-17t-43-47-16-76q0-66 33-102t91-36q37 0 64 16t44 47 16 75-16 76-43 47-66 17m1-37q27 0 44-12t26-36 8-55q0-32-8-54t-26-35-45-12q-41 0-59 27t-19 74q0 32 8 55t26 36 45 12m275 37q-21 0-39-8t-28-25-11-50v-156h-38v-21l38-18 18-57h26v62h77v34h-77v155q0 24 11 36t31 12q10 0 20-2t17-4v34q-7 3-20 5t-25 3m207 0q-36 0-64-17t-43-47-16-76q0-66 33-102t91-36q37 0 64 16t44 47 16 75-16 76-43 47-66 17m1-37q27 0 44-12t26-36 8-55q0-32-8-54t-26-35-45-12q-41 0-59 27t-19 74q0 32 8 55t26 36 45 12m404 37q-20 0-38-2t-33-6-27-9v-43q18 8 45 14t55 7q27 0 45-7t27-20 9-31-8-29-26-23-50-21q-31-11-51-25t-31-34-10-47q0-29 14-49t40-31 60-11q29 0 54 5t44 15l-14 38q-18-8-40-13t-45-6q-23 0-38 7t-22 18-8 27q0 18 8 30t24 22 46 20q32 12 53 25t33 32 12 46q0 32-16 54t-44 35-68 12m259 0q-37 0-61-20t-24-60q0-40 32-62t97-23l45-2v-16q0-33-14-46t-41-13q-21 0-40 6t-36 14l-13-33q17-9 41-16t50-7q49 0 73 22t23 68v183h-32l-8-38h-2q-12 14-24 24t-28 14-38 5m10-36q34 0 56-19t23-57v-24l-40 1q-50 2-69 16t-19 40q0 22 13 33t36 10m249 31h-44v-268h36l6 36h3q9-14 22-23t29-14 33-4q48 0 73 23t24 75v175h-43v-172q0-32-15-48t-45-16q-45 0-62 25t-17 72v139m333 5q-28 0-49-5t-35-12v-40q16 8 38 14t47 7q33 0 48-11t15-28q0-10-5-18t-20-16-41-18q-26-10-44-20t-29-24-10-36q0-34 28-53t73-18q24 0 45 4t40 14l-15 35q-17-7-35-12t-38-5q-27 0-42 8t-14 24q0 11 7 19t21 15 41 17q26 10 44 20t27 24 10 36q0 26-13 43t-37 27-57 9m383 0q-20 0-39-2t-33-6-26-9v-43q18 8 44 14t56 7q26 0 44-7t27-20 9-31-7-29-26-23-51-21q-30-11-51-25t-31-34-10-47q0-29 15-49t40-31 59-11q30 0 54 5t45 15l-14 38q-19-8-41-13t-45-6q-22 0-37 7t-23 18-7 27q0 18 7 30t25 22 46 20q31 12 53 25t33 32 11 46q0 32-15 54t-45 35-67 12m193 115q-12 0-21-2t-16-2v-35q6 1 13 2t17 1q23 0 37-13t22-35l14-35-108-269h47l58 152q8 20 14 38t9 35h2q3-12 9-33t14-40l54-152h48l-116 305q-9 25-22 43t-31 29-44 11m299-120h-44v-268h36l6 36h3q8-14 20-23t28-14 31-4q31 0 51 11t31 34h2q14-23 37-34t49-11q46 0 68 23t23 75v175h-44v-173q0-31-13-47t-41-16q-39 0-56 22t-17 66v148h-43v-173q0-31-14-47t-41-16q-27 0-43 11t-22 33-7 53v139m551 5q-32 0-52-12t-31-27h-4l-9 34h-31v-380h44v92q0 17-1 32t-2 23h3q11-17 31-28t52-12q50 0 80 35t30 104q0 46-14 77t-38 46-58 16m-7-37q36 0 54-26t18-77q0-101-73-101-42 0-59 24t-16 76v2q0 50 16 76t60 26m295 37q-35 0-63-17t-44-47-16-76q0-66 34-102t91-36q36 0 64 16t43 47 16 75-15 76-43 47-67 17m1-37q27 0 45-12t25-36 9-55q0-32-9-54t-26-35-44-12q-41 0-60 27t-18 74q0 32 8 55t26 36 44 12m238 32h-44v-380h44v380m152 5q-28 0-48-5t-36-12v-40q16 8 39 14t46 7q34 0 49-11t15-28q0-10-6-18t-20-16-40-18q-26-10-45-20t-28-24-10-36q0-34 27-53t73-18q25 0 46 4t40 14l-15 35q-17-7-36-12t-38-5q-27 0-41 8t-14 24q0 11 6 19t22 15 41 17q25 10 43 20t28 24 9 36q0 26-13 43t-37 27-57 9" />
</svg>