<svg id="fnt-Nova Cut" viewBox="0 0 2082 1000" xmlns="http://www.w3.org/2000/svg"><path id="nova-cut" class="f" d="M51 676h-2v-293l123-95q56 0 90 36 33 33 33 86v244l-46 22h-2v-266q0-32-18-53-22-25-57-25-36 0-57 25-17 21-17 53v244l-47 22m532-78l-101 78q-46-3-71-23-30-25-30-73v-113l101-79q46 4 71 24 30 24 30 72v114m-101 40q23 0 38-15t15-43v-96q0-30-16-44t-37-13q-23 0-38 15t-14 42v96q0 31 16 44t36 14m224 38h-3l-94-268 42-20h3l78 225 78-225h3l25 12-90 256-42 20m239-38q26 0 38-15 15-17 15-43 0-30-16-44-15-14-37-14-25 0-38 15-14 18-14 43 0 30 16 44 15 14 36 14m53-2l-53 40q-45-3-71-23-30-24-30-73v-18l101-78q31 2 53 12v-12q0-29-16-44-15-13-37-13-24 0-38 15l-13-14 51-40q46 4 71 24 31 24 31 72v170l-47 22h-2v-40m576-55l-123 95q-56 0-91-35-33-34-33-87v-171l124-95q55 0 90 36 33 33 33 86l-46 22h-3v-22q0-32-17-53-22-25-57-25-36 0-57 25-18 21-18 53v144q0 33 18 53 21 25 57 25 35 0 57-25 17-20 17-53l47-22h2v49m288 17l-101 78q-46-3-71-23-31-25-31-73v-170l47-22h2v192q0 31 16 44t37 14q23 0 38-15 14-14 14-43v-170l47-22h2v210m106 78h-2v-246h-66v-3l14-29h52v-88l46-22h3v110h66v3l-14 29h-52v224l-47 22" />
</svg>