<svg id="fnt-Nova Round" viewBox="0 0 2689 1000" xmlns="http://www.w3.org/2000/svg"><path id="nova-round" class="f" d="M51 676h-2v-261q0-53 33-86 34-36 90-36 55 0 90 36 33 32 33 86v239l-46 22h-2v-261q0-33-18-53-22-25-57-25t-57 25q-17 20-17 53v239l-47 22m330-102v-83q0-40 30-70 28-28 71-28 42 0 71 28 30 29 30 70v83q0 40-30 70-28 28-71 28-42 0-71-28-30-29-30-70m49-83v83q0 28 15 41t37 13 37-13 16-41v-83q0-28-16-41t-37-13-37 13-15 41m287 185h-3l-94-268 42-20h3l69 204 68-204h2l42 20-87 248-42 20m351-185v163l-46 22h-2v-25q-20 21-53 21-46 0-71-28t-25-65q0-39 27-67 27-26 69-26 30 0 53 21 0-43-16-57-14-13-37-13h-59v-3l19-41h40q43 0 71 28 30 29 30 70m-150 88q0 21 14 36 12 13 35 13 24 0 37-14 15-15 15-35 0-22-15-35t-36-14q-23 0-36 14t-14 35m434 97h-3v-366l26-12h93q55 0 90 35 33 34 33 87 0 53-33 87-20 20-46 28l85 121-43 20h-3l-94-134h-59v112l-46 22m46-334v156h70q32 0 56-25 18-18 18-53 0-33-18-53-21-25-56-25h-70m260 232v-83q0-40 30-70 28-28 71-28 42 0 71 28 30 29 30 70v83q0 40-30 70-28 28-71 28-42 0-71-28-30-29-30-70m49-83v83q0 28 15 41t37 13 37-13 16-41v-83q0-28-16-41t-37-13-37 13-15 41m427-103h2v186q0 40-30 70-28 28-71 28-42 0-71-28-30-29-30-70v-164l46-22h2v186q0 28 16 41t37 13 37-13 15-41v-164l47-22m78 288h-3v-185q0-40 31-70 28-28 71-28 42 0 71 28 30 29 30 70v163l-46 22h-3v-185q0-28-15-41t-37-13-37 13-16 41v163l-46 22m322-185v83q0 28 15 41t38 13 37-13 15-41v-83q0-28-15-41t-37-13-38 13-15 41m-49 83v-83q0-40 31-70 28-28 71-28 32 0 52 21v-104l47-22h2v286q0 40-30 70-29 28-71 28-43 0-71-28-31-29-31-70" />
</svg>