<svg id="fnt-Nova Oval" viewBox="0 0 2342 1000" xmlns="http://www.w3.org/2000/svg"><path id="nova-oval" class="f" d="M46 676h-2v-194q0-71 23-114 41-75 114-75 73 0 114 75 23 43 23 114 0 70-23 114-33 62-86 80h-2l-19-36q44-20 65-63 17-32 17-95 0-62-17-95-26-52-72-52t-72 52q-16 33-16 95v172l-47 22m392-209q-10 20-10 65t10 66q16 32 44 32t44-32q10-20 10-66t-10-65q-16-32-44-32t-44 32m-59 65q0-50 18-82 30-57 85-57t85 57q18 32 18 82 0 51-17 83-31 57-86 57-54 0-85-57-18-31-18-83m287 0v-122l46-22h3v144q0 46 10 66 16 32 44 32 27 0 44-32 10-20 10-66 0-40-10-65-13-32-43-42l18-37h3q42 17 63 62 18 36 18 82 0 51-18 83-31 57-85 57t-86-57q-17-32-17-83m418 144h-2v-34q-21 29-53 30-46 0-71-28t-25-65q0-39 27-67 27-26 69-26 30 0 52 27-5-37-9-46-17-32-44-32h-57v-3l18-39h39q54 0 85 57 17 32 17 82v122l-46 22m-104-98q0 22 13 37t36 15q23 0 38-15 14-15 14-36 0-22-15-37t-36-15q-23 0-37 16-13 15-13 35m468-96q0 63 16 95 27 53 72 53 45 0 72-53 17-33 17-95t-17-95q-26-52-72-52-45 0-72 52-16 33-16 95m-26 114q-23-43-23-114t23-114q41-75 114-75 73 0 114 75 23 44 23 114 0 71-23 114-41 76-114 76-73 0-114-76m320-64v-122l46-22h3v144q0 46 10 66 16 32 43 32 28 0 44-32 11-20 11-66 0-40-11-65-13-32-42-42l18-37h3q42 17 63 62 18 36 18 82 0 51-18 83-31 57-86 57t-85-57q-17-32-17-83m418 144h-3v-34q-21 29-52 30-46 0-71-28t-25-65q0-39 27-67 27-26 69-26 30 0 51 27-4-37-9-46-16-32-43-32h-57v-3l18-39h39q54 0 85 57 17 32 17 82v122l-46 22m-104-98q0 22 13 37t36 15q23 0 38-15 14-15 14-36 0-22-15-37t-37-15q-22 0-36 16-13 15-13 35m238 98h-2v-366l46-22h3v366l-47 22" />
</svg>