<svg id="fnt-Nova Square" viewBox="0 0 2864 1000" xmlns="http://www.w3.org/2000/svg"><path id="nova-square" class="f" d="M51 676h-2v-293q0-85 85-85h76q85 0 85 85v271l-46 22h-2v-293q0-41-37-41h-76q-36 0-36 41v271l-47 22m403-53h56q25 0 25-30v-122q0-29-25-29h-56q-24 0-24 29v122q0 30 24 30m56 44h-56q-73 0-73-74v-122q0-73 73-73h56q73 0 73 73v122q0 74-73 74m207 9h-3l-94-268 42-20h3l69 204 68-204h2l42 20-87 248-42 20m227-53h51q25 0 25-30v-33q0-29-25-29h-51q-25 0-25 29v33q0 30 25 30m51 44h-51q-73 0-73-74v-33q0-73 73-73h51q13 0 25 7v-23q0-29-25-29h-87v-2l19-42h68q73 0 73 73v183l-46 22h-2v-17q-10 8-25 8m505 0h-75q-86 0-86-86v-27l47-22h2v49q0 42 37 42h75q37 0 37-42v-51q0-42-37-42h-65q-74 0-74-73v-44q0-73 74-73h56q73 0 73 73v13l-46 22h-3v-35q0-29-24-29h-56q-25 0-25 29v44q0 29 25 29h65q86 0 86 86v51q0 86-86 86m235-44h56q24 0 24-30v-122q0-29-24-29h-56q-25 0-25 29v122q0 30 25 30m56 44h-56q-73 0-73-74v-122q0-73 73-73h56q73 0 73 73v284l-46 22h-3v-118q-9 8-24 8m288 0h-56q-73 0-73-74v-183l46-22h3v205q0 30 24 30h56q25 0 25-30v-183l46-22h2v205q0 74-73 74m208-44h51q24 0 24-30v-33q0-29-24-29h-51q-25 0-25 29v33q0 30 25 30m51 44h-51q-74 0-74-74v-33q0-73 74-73h51q13 0 24 7v-23q0-29-24-29h-88v-2l20-42h68q73 0 73 73v183l-46 22h-3v-17q-9 8-24 8m149 9h-3v-205q0-73 74-73h61v3l-20 41h-41q-25 0-25 29v183l-46 22m303-9h-57q-73 0-73-74v-122q0-73 73-73h57q73 0 73 73v13l-153 119q3 20 23 20h57q24 0 24-30v-13l46-22h3v35q0 74-73 74m-81-196v81l105-85q-2-25-24-25h-57q-24 0-24 29" />
</svg>