<svg id="fnt-Nova Script" viewBox="0 0 2792 1000" xmlns="http://www.w3.org/2000/svg"><path id="nova-script" class="f" d="M44 676h-2l44-194q17-71 50-114 59-75 131-75 73 0 97 75 6 20 6 45 0 31-9 69-17 73-49 108-21 23-41 35h69l0 3-28 39h-135l1-3 27-39q36-11 63-46 30-38 44-97 9-38 9-65 0-17-4-30-14-52-59-52t-84 52q-24 34-39 95l-39 172-52 22m415-144q-7 31-7 49 0 10 2 17 9 32 37 32t51-32q15-21 25-66 7-30 7-48 0-10-2-17-8-32-36-32-29 0-52 32-15 20-25 65m-49 1q12-52 37-83 44-57 98-57t72 57q5 15 5 34 0 22-6 48-12 53-36 83-45 57-99 57-53 0-72-57-5-15-5-33 0-21 6-49m287-1l28-122 51-22h3l-33 144q-7 31-7 49 0 10 1 17 10 32 37 32 28 0 51-32 15-20 26-66 6-27 6-47 0-10-1-18-6-32-33-42l27-37h2q38 17 49 62 4 17 4 36 0 21-5 46-12 50-37 83-44 57-99 57-54 0-72-57-4-15-4-34 0-22 6-49m377 100l-27 40q-55 0-72-57-5-15-5-35 0-21 6-48 12-51 36-82 44-57 99-57 55 0 72 57 5 15 5 34 0 22-6 48l-22 92q-2 11 10 11h18l0 2-27 39q-51 0-51-36 0-7 2-16l21-92q7-30 7-49 0-9-2-16-9-32-37-32t-51 32q-15 20-25 65-7 30-7 49 0 10 2 17 9 32 36 32h19l-1 2m361-36t44-19h3q14 53 60 53 31 0 62-28 22-20 30-52 1-8 1-15 0-15-8-26-14-20-47-27-36-8-59-27-21-18-21-46 0-8 3-19 10-44 48-72 33-25 75-25 55 0 73 56l-43 18h-3q-8-32-36-32-23 0-41 15-18 14-24 37-1 6-1 11 0 12 7 19 14 15 46 21 44 10 66 38 16 20 16 48 0 13-3 27-11 46-55 83-44 38-96 38-73 0-97-76m496-21h2q-10 23-23 40-44 57-99 57-53 0-72-57-5-15-5-34 0-22 7-49 11-49 36-82 44-57 99-57 54 0 72 56l-43 18h-2q-9-32-37-32-28 0-51 32-15 20-25 65-7 31-7 49 0 10 1 17 10 32 37 32 28 0 51-32l59-23m47 101h-2l33-144q12-51 36-82 45-57 99-57h33l-1 3-28 39h-14q-28 0-51 32-15 20-25 65l-28 122-52 22m263-353q3-12 14-21t23-9 19 9q4 6 4 14 0 3-1 7-3 13-13 21-11 9-23 9-13 0-19-9-5-6-5-13 0-3 1-8m12 314l-27 39q-51 0-51-36 0-7 2-16l49-214 52-22h2l-54 236q-3 11 9 11h19l-1 2m30 140h-2l56-245q12-51 37-82 44-57 99-57 53 0 72 57 5 15 5 34 0 21-7 48-13 59-69 93h60l0 3-28 39h-114l1-3 27-39q34-21 49-40 19-24 26-53 6-30 6-48 0-10-1-17-9-32-37-32-28 0-52 32-14 20-25 65l-51 223-52 22m420-140l-27 39q-51 0-51-36 0-7 1-16l43-184h-63l1-3 27-39h45l20-88 51-22h3l-25 110h62l0 3-28 39h-44l-43 184q-2 11 10 11h18l0 2" />
</svg>