<svg id="fnt-Nova Slim" viewBox="0 0 2315 1000" xmlns="http://www.w3.org/2000/svg"><path id="nova-slim" class="f" d="M51 676h-2v-261q0-53 33-86 34-36 90-36 55 0 90 36 33 32 33 86v239l-46 22h-2v-278q0-33-18-53-22-25-57-25t-57 25q-17 20-17 53v256l-47 22m330-102v-83q0-40 30-70 28-28 71-28 42 0 71 28 30 29 30 70v83q0 40-30 70-28 28-71 28-42 0-71-28-30-29-30-70m49-100v116q0 29 15 42t37 13 37-13 16-42v-116q0-28-16-41t-37-13-37 13-15 41m287 202h-3l-94-268 42-20h3l78 225 78-225h3l25 12-90 256-42 20m354-185v163l-46 22h-3v-25q-19 21-52 21-46 0-71-28t-26-65q0-39 28-67 26-26 69-26 30 0 52 21 0-43-15-65t-37-22h-60v-2l12-25h48q42 0 71 28 30 29 30 70m-150 88q0 38 13 52 13 14 36 14 24 0 37-14 14-15 14-53 0-36-15-51-15-14-36-14-23 0-36 14t-13 52m421-25l46-22h3v37q0 30 17 51 22 25 57 25 35 0 57-25 18-20 18-68 0-38-15-54-19-23-60-23-47 0-77-27-24-22-24-62 0-45 30-69 29-24 71-24t71 24q31 24 31 67l-47 22h-2v-31q0-28-16-42-15-13-37-13-23 0-38 15t-14 52q0 32 11 45 14 16 41 16 62 0 92 27 31 30 31 76 0 50-32 85-34 36-91 36t-90-36q-33-35-33-82m337 122h-3v-366l47-22h2v366l-46 22m147-332q-8-9-8-21t8-21 21-9 21 9 8 21-8 21-21 9-21-9m-1 332h-2v-266l46-22h3v266l-47 22m134 0h-2v-185q0-40 30-70 29-28 71-28 39 0 67 29 6 5 10 12 5-7 10-12 31-29 67-29 42 0 71 28 30 29 30 70v163l-46 22h-2v-202q0-28-16-41t-37-13-37 13-15 41v180l-47 22h-2v-202q0-28-15-41t-38-13-37 13-15 41v180l-47 22" />
</svg>