<svg id="fnt-Nunito Sans" viewBox="0 0 2704 1000" xmlns="http://www.w3.org/2000/svg"><path id="nunito-sans" class="f" d="M82 667h-38v-353h32l224 300h-12v-300h38v353h-31l-224-300h11v300m412 4q-29 0-49-11t-29-32-9-53v-151h40v150q0 22 6 36t18 21 31 7q21 0 37-10t24-26 9-40v-138h41v243h-40v-56h7q-10 29-33 45t-53 15m235-4h-40v-243h39v54h-5q10-29 34-44t55-15q29 0 48 10t29 32 9 54v152h-40v-149q0-23-6-37t-18-22-32-7q-22 0-38 10t-26 26-9 40v139m289-304h-50v-45h50v45m-5 304h-40v-243h40v243m173 4q-43 0-64-23t-22-65v-128h-47v-31h47v-75h41v75h77v31h-77v124q0 28 12 43t39 15q8 0 16-2t14-4l7 31q-6 3-19 6t-24 3m176 0q-35 0-61-15t-41-44-14-67 14-67 41-43 61-16 62 16 40 43 14 67-14 67-40 44-62 15m0-32q35 0 55-25t20-69q0-45-20-69t-55-24q-34 0-54 24t-21 69q0 45 21 69t54 25m425 32q-27 0-52-5t-44-14-37-23l15-33q17 13 34 21t39 13 45 5q45 0 67-17t22-44q0-15-7-25t-22-18-40-13l-52-10q-47-10-70-33t-23-61q0-31 16-55t45-36 67-13q24 0 46 5t39 14 33 24l-15 32q-22-20-47-30t-56-9q-27 0-46 8t-30 23-11 36q0 24 15 38t48 20l52 11q51 11 75 32t24 58q0 29-16 51t-45 36-69 12m265 0q-25 0-45-10t-31-26-12-38q0-27 14-43t45-22 87-6h23v26h-22q-31 0-51 2t-33 7-17 13-5 20q0 21 14 34t39 13q20 0 35-10t24-26 9-38v-57q0-31-12-45t-41-13q-22 0-43 6t-42 20l-14-29q13-9 30-16t34-10 35-4q31 0 52 10t30 31 10 54v153h-38v-57h5q-4 19-16 33t-27 21-37 7m229-4h-41v-243h40v54h-6q11-29 34-44t55-15q29 0 48 10t29 32 10 54v152h-41v-149q0-23-6-37t-18-22-31-7q-22 0-39 10t-25 26-9 40v139m325 4q-19 0-37-4t-33-10-26-16l13-29q12 10 26 16t29 9 29 3q29 0 43-10t15-29q0-14-10-22t-30-13l-45-10q-32-6-47-22t-15-42q0-22 11-39t34-25 50-9q17 0 32 4t29 10 24 17l-13 28q-10-9-22-15t-25-10-25-3q-28 0-43 11t-14 29q0 14 9 23t28 13l45 10q33 7 49 22t16 41q0 22-12 38t-34 25-51 9" />
</svg>