<svg id="fnt-Odibee Sans" viewBox="0 0 1792 1000" xmlns="http://www.w3.org/2000/svg"><path id="odibee-sans" class="f" d="M180 667h-114q-14 0-24-11t-11-26v-277q0-15 11-26t24-10h114q16 0 26 10t10 26v277q0 16-10 26t-26 11m-85-46h56q9 0 14-6t5-13v-220q0-9-5-14t-14-5h-56q-7 0-13 5t-5 14v220q0 8 5 13t13 6m293 46h-104q-16 0-26-11t-11-26v-177q0-15 11-26t26-10h57v-114l47-11v375m-76-47h29v-156h-29q-7 0-12 5t-6 13v120q0 7 6 12t12 6m153-281l-47 11v-47l47-11v47m1 328h-47v-239l47-11v250m140 0h-105v-365l47-10v125h58q15 0 25 10t11 26v177q0 15-11 26t-25 11m-58-203v156h29q7 0 13-6t5-12v-120q0-8-5-13t-13-5h-29m265 203h-104q-15 0-26-11t-11-26v-177q0-15 11-26t26-10h68q15 0 26 10t10 26v76q0 15-10 25t-26 11h-58v37q0 7 5 12t14 6h65l10 47m-94-185v36h29q8 0 13-5t5-13v-18q0-8-5-13t-13-5h-10q-8 0-14 5t-5 13m260 185h-104q-15 0-26-11t-11-26v-177q0-15 11-26t26-10h68q15 0 26 10t10 26v76q0 15-10 25t-26 11h-58v37q0 7 5 12t14 6h65l10 47m-94-185v36h29q8 0 13-5t5-13v-18q0-8-5-13t-13-5h-10q-8 0-14 5t-5 13m364 185h-114q-15 0-25-11t-11-25v-78l47 11v38q0 8 5 13t12 5h57q8 0 13-5t5-13v-88q0-7-5-13t-13-5h-85q-15 0-25-10t-11-26v-107q0-15 11-26t25-10h114q15 0 25 10t11 26v54l-47-11v-15q0-7-5-13t-13-5h-57q-7 0-12 5t-5 13v51q0 7 5 12t12 6h86q15 0 25 10t11 26v145q0 15-11 25t-25 11m202 0h-105q-15 0-26-11t-10-26v-75q0-15 10-26t26-11h39q8 0 13-5t6-13v-18q0-8-6-13t-13-5h-54l11-47h72q15 0 26 10t11 26v214m-76-47h29v-55h-29q-8 0-13 5t-5 13v19q0 7 5 12t13 6m150 47h-47v-250h104q15 0 26 10t11 26v214h-47v-185q0-8-6-13t-12-5h-29v203m230 0h-68q-15 0-26-11t-10-26v-41h46v13q0 7 6 12t13 6h10q8 0 13-6t5-12v-19q0-7-5-13t-13-5h-39q-15 0-26-11t-10-25v-76q0-15 10-26t26-10h68q15 0 26 10t10 26v42h-47v-13q0-8-5-13t-13-5h-10q-8 0-13 5t-6 13v18q0 8 6 13t13 5h39q15 0 26 11t10 26v77q0 14-11 24t-25 11" />
</svg>