<svg id="fnt-Odor Mean Chey" viewBox="0 0 3669 1000" xmlns="http://www.w3.org/2000/svg"><path id="odor-mean-chey" class="f" d="M306 485q0 52-11 88t-32 57-49 31-60 9q-45 0-76-17t-47-57-16-103q0-89 40-133t109-43q71 0 107 39t35 129m-75 9q0-120-72-120-33 0-51 26-7 11-12 29t-6 40 1 44 6 41 12 31q19 29 52 29t52-28 18-92m228-144l5-38q29-7 55-7 26 0 44 2v300q16 2 28 8v40q-30 16-76 16-5-3-10-9t-5-13q-11 9-29 15t-34 7q-54 0-78-30t-25-95q0-76 37-106 33-27 80-27 21 0 42 5v-50q-23-6-34-18m-12 270q29 0 46-17v-134q-21-5-43-5-23 0-33 20t-11 60q0 41 10 58t31 18m405-84q0 48-17 78t-45 43-64 13q-56 0-86-29t-30-100q0-63 33-96t91-32q58 0 88 29t30 94m-169 4q0 80 48 80 25 0 36-19t12-59q0-78-49-78-24 0-35 17t-12 59m343-62q-37 0-52 15v114q41 8 56 21l-6 39h-143l-5-39q7-9 28-17v-139q-18-6-28-17l5-38q27-6 50-6 11 0 20 0t17 1v31q11-13 29-22 15-7 30-9t23 3l-1 65q-10-2-23-2m502 130v-130q0-20 3-62l1-12-5 0q-6 21-11 38t-9 29l-66 196h-67l-70-196q-4-11-9-25t-8-31l-3-11-5 0q2 22 4 41t1 33v132q18 7 27 18l-5 39h-98l-5-39q9-11 28-18v-231q-21-8-29-19l5-38h114l73 201q7 16 12 32t6 29l2 8h7q1-30 18-69l69-201h112l5 38q-8 11-28 19v229q19 7 27 17l-5 42h-114l-5-41q8-10 28-18m246 63q-60 0-91-32t-30-93q0-37 11-64t28-41q35-28 82-28 31 0 52 10t33 34 11 65q0 36-36 36h-108q2 31 16 44t45 13q17 0 32-4t23-8l7-4 15 40q-3 3-9 9-3 4-15 9t-30 9-36 5m-48-155l79-3q1-6 1-17 0-10-8-21t-28-11-30 12-14 40m179-62q0-4 0-8t1-8q46-25 100-25t76 20 23 67v107q18 3 28 8v44q-25 12-73 12-5-14-8-32-22 32-78 32-23 0-41-9t-29-25-11-39q0-33 22-53t66-19h55v-24q0-39-42-39-16 0-25 3-2 21-6 33h-49q-9-18-9-45m90 166q26 0 41-15v-41h-36q-35 0-35 27 0 13 7 21t23 8m156-165l5-38q27-6 49-6 11 0 20 0t17 1v25q12-11 33-18t40-6q33 0 52 10t28 32 8 60v96q20 8 28 17l-5 39h-115l-5-39q7-9 27-17v-99q0-27-8-36-7-7-20-9t-28 2-29 14v128q20 8 28 17l-5 39h-115l-5-39q7-9 27-17v-139q-17-6-27-17m616-74q-15-7-45-7t-48 26-19 91q0 65 18 92t53 28q53 0 96-16l18 44q-53 32-125 32t-103-41q-32-40-32-132 0-92 39-136t110-44q58 0 109 31v11q0 6-1 18t-5 24-8 21h-47q-7-14-10-42m90-31l5-38q28-7 52-7t40 2v125q13-8 32-14t36-5q50 0 68 24t19 73v101q20 8 28 17l-5 39h-115l-5-39q7-9 28-17v-99q0-27-9-36-7-7-20-9t-29 2-28 14v128q20 8 28 17l-5 39h-115l-5-39q7-9 28-17v-244q-18-6-28-17m417 321q-60 0-90-32t-30-93q0-37 10-64t29-41q35-28 81-28 31 0 53 10t32 34 11 65q0 36-35 36h-109q2 31 17 44t45 13q17 0 32-4t23-8l7-4 15 40q-3 3-9 9-4 4-16 9t-29 9-37 5m-47-155l79-3q1-6 1-17 0-10-8-21t-28-11-30 12-14 40m229 209h7q9 0 20-17t14-40l-82-194q-25-8-33-19l5-38h115l5 38q-7 8-22 15l27 75q9 24 13 47l1 7h7q5-26 14-53l27-74q-18-7-26-17l5-38h110l5 38q-9 12-33 20l-83 195q-23 55-36 71-22 30-61 30t-60-21q0-2 0-5t0-5q0-27 11-52h42q7 13 8 37" />
</svg>