<svg id="fnt-Ojuju" viewBox="0 0 1107 1000" xmlns="http://www.w3.org/2000/svg"><path id="ojuju" class="f" d="M164 674q-44 0-75-20t-47-60-16-102q0-63 16-103t47-60 75-20q45 0 75 20t47 60 16 103q0 62-16 102t-47 60-75 20m0-35q39 0 67-16t42-49 15-82-15-83-42-49-67-16-66 16-42 49-15 83 15 82 42 49 66 16m245-274q-24 0-24-24 0-25 24-25 22 0 22 25 0 24-22 24m-92 390v-30q7 4 19 8t24 4q7 0 13-2t11-3q10-5 16-19t7-38q0-63-1-103t0-63-1-33-2-14-2-5q-2-2-7-2t-17-1q-4 0-9 0t-11 0v-29h64q-1 8-1 23t0 34 0 38 0 36 0 24q0 17 0 29t0 22 0 26 0 38q0 27-8 42t-21 22-29 6q-12 0-23-3t-22-7m264-81q-25 0-43-10t-27-29-9-43q0-23 0-39t0-29 0-26-1-31-1-42h18q0 25-1 41t-1 29 0 23 0 22 0 29q0 21 6 36t16 22 23 10 27 4q25 0 43-7t29-19 17-31 5-39q0-12 0-21t0-20-1-30-1-49h18q0 36-1 60t-1 39 0 25 0 18 0 17q0 12 0 21t0 17 1 19 1 26h-18q1-9 1-15t0-12q0-13 0-18t-4-4q-2 0-4 2t-8 11q-5 8-16 18t-26 18-42 7m236-309q-24 0-24-24 0-25 24-25 22 0 22 25 0 24-22 24m-92 390v-30q7 4 19 8t24 4q7 0 13-2t11-3q10-5 16-19t7-38q0-63-1-103t0-63-1-33-2-14-2-5q-2-2-7-2t-17-1q-4 0-9 0t-11 0v-29h64q-1 8-1 23t0 34 0 38 0 36 0 24q0 17 0 29t0 22 0 26 0 38q0 27-8 42t-21 22-29 6q-12 0-23-3t-22-7m264-81q-25 0-43-10t-27-29-9-43q0-23 0-39t0-29 0-26-1-31-1-42h18q0 25-1 41t-1 29 0 23 0 22 0 29q0 21 6 36t16 22 23 10 27 4q25 0 43-7t29-19 17-31 5-39q0-12 0-21t0-20-1-30-1-49h18q0 36-1 60t-1 39 0 25 0 18 0 17q0 12 0 21t0 17 1 19 1 26h-18q1-9 1-15t0-12q0-13 0-18t-4-4q-2 0-4 2t-8 11q-5 8-16 18t-26 18-42 7" />
</svg>