<svg id="fnt-Ole" viewBox="0 0 528 1000" xmlns="http://www.w3.org/2000/svg"><path id="ole" class="f" d="M139 685q-57 0-87-17-38-21-38-74 0-35 28-66t64-32q50 0 50 31 0 12-10 27-9 13-22 13-6 0-15-4-11-5-11-10 0-6 6-6 2 0 8 4 7 4 12 4 8 0 14-10t6-18q0-19-38-19-30 0-48 27-15 23-15 54 0 49 25 67 11 9 29 13t42 4q45 0 76-34 31-34 31-79 0-52-44-81-38-25-93-25-34 0-59 21-27 21-27 54 0 9-5 9-2 0-2-3 0-44 33-70 30-23 75-23 58 0 97 28 43 32 43 90 0 49-38 87-37 38-87 38m191-12q-46 0-46-79 0-45 21-108 26-78 62-78 18 0 18 16 0 26-32 79-13 20-26 38t-25 33q-4 11-4 26 0 46 22 62 4 4 9 4 8 0 19-10 12-9 16-9 2 0 2 2 0 2-5 10-11 14-31 14m-23-122q10-10 23-34t31-60q10-22 10-34 0-2-1-2-12 3-32 39-27 52-31 91m114 142q-21 0-32-15-10-14-10-35 0-30 19-59 21-31 51-31 26 0 26 16 0 30-48 77-4 4-30 21v1q0 5 6 9 7 5 14 5 34 0 97-86 7-10 11-10 2 0 2 2 0 1-1 2t0 2q-13 21-23 37t-19 26q-32 38-63 38m-24-40q19-3 42-34 23-31 23-50 0-6-4-6-9 0-26 16-26 25-33 48-4 10-4 19 0 5 2 7" />
</svg>