<svg id="fnt-Oleo Script Swash Caps" viewBox="0 0 4540 1000" xmlns="http://www.w3.org/2000/svg"><path id="oleo-script-swash-caps" class="f" d="M353 511l10-5q5 13 7 29-11 7-35 15t-44 9q-22 51-61 82t-96 32-88-39-30-108 32-125 92-89l10 18q-54 67-54 193 0 82 25 105 12 11 29 11 50 0 72-85-39-7-60-34t-21-73 27-85 65-38 60 34 22 87q0 33-14 81 23-1 52-15m-117-68q0-35-4-53t-19-17-28 22-13 55 15 51 41 21q8-43 8-79m134 230q-17 0-29-12t-11-32 25-133 25-161l-3-22q39-13 73-13 5 7 5 24 0 40-26 155t-25 133 5 19l35-12 9 17q-17 14-42 25t-41 12m92-93q0-62 38-99t86-36q29 0 48 15t19 38-12 41-30 26q-35 17-65 22l-12 1q4 47 39 47 12 0 25-6t21-12l8-6 12 16q-4 6-16 15t-23 15q-29 16-63 16t-55-25-20-68m72-16q25-5 40-22t15-44-16-27q-19 0-29 32t-10 61m200 109q-35 0-54-25t-20-67q0-56 30-96t82-40l18 1q9-4 19-4 40 0 40 74 20-1 41-5l8-2 3 19q-16 7-44 13l-10 2q-10 52-39 91t-74 39m27-43q21 0 37-27t24-57q-54 0-54-40 0-16 7-30l2-5q-2-1-5-1t-4 1q-13 8-24 37t-11 68q0 54 28 54m336 48q-35 0-54-17t-19-44 23-44 56-24q-5-9-39-59-21 5-40 5-42 0-66-22t-23-59q0-16 4-37l1-6q21 1 34 6-9 20-9 41t16 33 38 13q10 0 26-3-22-39-22-68 0-38 30-60t69-21 60 17 22 44-20 49-43 36q36 46 48 94 42 5 83 20-7 25-13 36-11-8-30-17t-35-10v0q0 40-31 68t-66 29m24-247q20-9 35-25t15-31-11-22-29-8-29 8-11 20q0 8 4 16t7 14 6 10 5 8 8 10m-36 210q14 0 24-13t10-27-3-23q-20 0-39 11t-20 26q0 11 8 18t20 8m294-171q-20 0-32 33t-12 72q0 60 37 60 12 0 25-6t22-11l7-6 12 15q-4 6-16 15t-23 15-27 11-32 5q-39 0-59-26t-19-68q0-60 32-97t85-37q33 0 53 15t20 38-14 38q-13 0-29-5t-25-14l7-44q-4-3-12-3m93 198h-3q-1-4-1-18t13-77 14-71q0-16-14-34l-5-6 1-7q27-7 86-7 6 13 6 36 6-9 23-24t36-15q27 0 27 47-2 3-7 8t-17 13-24 11q-1 0-9-14t-12-13q-12 4-22 15-23 103-23 134 0 11 1 15-18 7-70 7m276-192q0 21-14 72t-13 67 4 16q3 0 23-9l6-3 9 17q-5 4-12 10t-28 16-38 11-28-11-10-29 13-65 12-61q0-21-13-39l-4-6 0-7q27-7 86-7 7 7 7 28m-57-83q-10-10-10-26t13-29 32-13 28 10 10 26-14 29-32 13-27-10m75 386q-3-6-3-27t20-110 19-138q0-10-4-21t-10-16l-4-6 0-6q24-8 83-8 6 11 7 30 39-32 64-32t42 22 16 63q0 72-27 107t-67 36q-21 0-35-6l-5-2 4-20q4 1 10 1 13 0 23-12t15-30q10-37 10-69 0-45-19-45-14 0-31 12-2 35-20 122t-19 141q-27 11-69 14m361-328h48q-1 13-8 29-19-2-36-2h-9q-23 112-23 139 0 15 6 15t33-13l9 17q-44 37-82 37-18 0-29-11t-11-30 4-41 12-56 11-54q-19 2-28 3-1-6-1-16t2-17h31q4-27 4-51l0-15v-2q39-13 73-13 2 10 2 25t-8 56m268 227q-35 0-54-17t-19-44 23-44 56-24q-5-9-39-59-21 5-40 5-42 0-66-22t-23-59q0-16 4-37l1-6q21 1 34 6-9 20-9 41t16 33 38 13q10 0 26-3-22-39-22-68 0-38 30-60t69-21 60 17 22 44-20 49-43 36q36 46 48 94 42 5 83 20-7 25-13 36-11-8-30-17t-35-10v0q0 40-31 68t-66 29m24-247q20-9 35-25t15-31-11-22-29-8-29 8-11 20q0 8 4 16t7 14 6 10 5 8 8 10m-36 210q14 0 24-13t10-27-3-23q-20 0-39 11t-20 26q0 11 8 18t20 8m190-15l5-131q0-17-18-35l1-6q4-1 7-2t7-1 10-2 12-2q14-2 26-2t21 10 9 32-7 62-7 60 10 20q15 0 34-20 0-8 6-51t6-62-3-34q39-14 69-14 7 4 7 29t-9 68-8 64 8 20q19 0 41-29t24-47l-34-38q2-21 11-39t16-24l7-7q21 0 32 12t11 27q0 39-19 83t-53 75-67 31q-17 0-29-10t-15-25q-35 35-68 35-22 0-33-14t-10-33m450-166q1-1 5-13 24 0 63 14-12 41-20 86t-7 65 4 19q3 0 22-9l6-3 9 17q-5 4-12 10t-27 16-36 11q-31 0-36-28-32 28-58 28t-44-20-17-63q0-67 27-106t67-39q28 0 54 15m-57 170q12 0 27-9 3-71 23-140-15-6-25-6-18 0-31 35t-13 78 19 42m296-29q0 32-28 52t-63 20-56-15-21-27q0-7 18-23t29-19q25 19 41 59 19-2 19-18 0-23-41-65t-40-67 22-39 54-14 48 11 16 31-30 53q3 4 9 9t14 22 9 30m-48-78q21-18 21-36t-24-17q-11 0-19 4t-7 11q0 11 22 31l7 7m130-186q0-17-3-24 39-13 73-13 5 4 5 23 0 33-28 152 40-30 71-30 19 0 28 12t10 32-11 64-12 62 4 16 21-9l6-3 9 18q-4 4-12 10t-27 16-37 10-27-11-10-29 11-67 12-61-11-12q-13 0-32 11-28 121-28 157-21 8-71 8-1-9-1-15 0-22 30-147t30-170m409 336q-49 0-80-38t-30-98 21-112 61-82 87-31q18 0 32 5 36-24 75-24 18 0 33 5t24 13q-4 17-13 31-24-17-48-17t-44 9q24 25 24 71t-24 83-60 38q-22 0-35-18t-13-45q0-65 48-118-39 2-64 52t-24 121q0 104 60 104 41 0 87-51l18 14q-7 12-22 29t-29 28-37 21-47 10m107-263q0-41-18-56-22 20-36 48t-13 58q0 15 6 25t15 10q19 0 33-27t13-58m195 50q1-1 5-13 24 0 63 14-12 41-20 86t-7 65 4 19q3 0 22-9l6-3 9 17q-5 4-12 10t-27 16-36 11q-31 0-36-28-32 28-58 28t-44-20-17-63q0-67 27-106t67-39q28 0 54 15m-57 170q12 0 27-9 3-71 23-140-15-6-25-6-18 0-31 35t-13 78 19 42m133 149q-2-6-2-27t19-110 20-138q0-10-5-21t-9-16l-5-6 1-6q23-8 83-8 5 11 7 30 38-32 64-32t41 22 16 63q0 72-26 107t-67 36q-21 0-35-6l-5-2 3-20q5 1 11 1 13 0 22-12t15-30q10-37 10-69 0-45-18-45-15 0-31 12-2 35-21 122t-18 141q-27 11-70 14m408-178q0 32-28 52t-63 20-57-15-20-27q0-7 17-23t30-19q25 19 41 59 18-2 18-18 0-23-40-65t-41-67 23-39 54-14 48 11 16 31-31 53q4 4 9 9t15 22 9 30m-48-78q21-18 21-36t-24-17q-12 0-19 4t-8 11q0 11 22 31l8 7" />
</svg>