<svg id="fnt-Oleo Script" viewBox="0 0 2114 1000" xmlns="http://www.w3.org/2000/svg"><path id="oleo-script" class="f" d="M289 356q14 20 20 42t7 49-6 58-20 61-34 54-51 38-67 15q-53 0-83-39t-29-98 21-111 61-82 88-31q32 0 56 12t37 32m-136 283q24 0 40-21t25-53q17-65 17-134 0-85-46-85-26 0-46 31-36 58-36 162 0 56 6 70 3 7 8 15 9 15 32 15m219 34q-17 0-29-12t-11-32 25-133 25-161l-3-22q39-13 73-13 5 7 5 24 0 40-26 155t-25 133 5 19l35-12 9 17q-17 14-42 25t-41 12m92-93q0-62 38-99t86-36q29 0 48 15t19 38-12 41-30 26q-35 17-65 22l-12 1q4 47 39 47 12 0 25-6t21-12l8-6 12 16q-4 6-16 15t-23 15q-29 16-63 16t-55-25-20-68m72-16q25-5 40-22t15-44-16-27q-19 0-29 32t-10 61m200 109q-35 0-54-25t-20-67q0-56 30-96t82-40l18 1q9-4 19-4 40 0 40 74 20-1 41-5l8-2 3 19q-16 7-44 13l-10 2q-10 52-39 91t-74 39m27-43q21 0 37-27t24-57q-54 0-54-40 0-16 7-30l2-5q-2-1-5-1t-4 1q-13 8-24 37t-11 68q0 54 28 54m408-61q0 48-36 76t-89 28q-35 0-58-18t-25-30q6-17 24-37t32-25q26 16 48 73 32-1 32-35 0-19-15-47t-33-52-34-55-15-53q0-38 31-60t69-22 60 16 21 38-16 43-32 35l-16 13q6 8 15 20t23 43 14 49m-38-164q7-7 12-16t6-20-12-17-29-7-28 8-11 18 7 25 14 24l8 10q5-3 15-11t18-14m184 65q-20 0-32 33t-12 72q0 60 37 60 12 0 25-6t22-11l7-6 12 15q-4 6-16 15t-23 15-27 11-32 5q-39 0-59-26t-19-68q0-60 32-97t85-37q33 0 53 15t20 38-14 38q-13 0-29-5t-25-14l7-44q-4-3-12-3m93 198h-3q-1-4-1-18t13-77 14-71q0-16-14-34l-5-6 1-7q27-7 86-7 6 13 6 36 6-9 23-24t36-15q27 0 27 47-2 3-7 8t-17 13-24 11q-1 0-9-14t-12-13q-12 4-22 15-23 103-23 134 0 11 1 15-18 7-70 7m276-192q0 21-14 72t-13 67 4 16q3 0 23-9l6-3 9 17q-5 4-12 10t-28 16-38 11-28-11-10-29 13-65 12-61q0-21-13-39l-4-6 0-7q27-7 86-7 7 7 7 28m-57-83q-10-10-10-26t13-29 32-13 28 10 10 26-14 29-32 13-27-10m75 386q-3-6-3-27t20-110 19-138q0-10-4-21t-10-16l-4-6 0-6q24-8 83-8 6 11 7 30 39-32 64-32t42 22 16 63q0 72-27 107t-67 36q-21 0-35-6l-5-2 4-20q4 1 10 1 13 0 23-12t15-30q10-37 10-69 0-45-19-45-14 0-31 12-2 35-20 122t-19 141q-27 11-69 14m361-328h48q-1 13-8 29-19-2-36-2h-9q-23 112-23 139 0 15 6 15t33-13l9 17q-44 37-82 37-18 0-29-11t-11-30 4-41 12-56 11-54q-19 2-28 3-1-6-1-16t2-17h31q4-27 4-51l0-15v-2q39-13 73-13 2 10 2 25t-8 56" />
</svg>