<svg id="fnt-Oregano" viewBox="0 0 1437 1000" xmlns="http://www.w3.org/2000/svg"><path id="oregano" class="f" d="M327 457q0 2 0 5t0 5q0 26-7 54t-20 53-32 45-42 32q-14 7-30 10t-32 3q-12 0-23-2t-22-4q-23-6-41-20t-31-32-20-39-9-41q0-3 0-6t0-6q0-23 5-45t15-44 23-38 27-32 30-22 30-11q2-1 3-1t0 0 1 0 1 0q6 0 8 0t3 1q1 0 0 1t-2 1q0 0-1 0t0 1q0 1-1 2t-2 1 0 1 0 0 0 0-1 1q-3 2-6 4t-7 4q-18 12-31 32t-22 44-14 51-5 53q0 4 0 7t1 7q0 10 3 23t8 24 12 24 17 21 20 14 25 6q21 0 37-7t29-20 22-28 15-33 9-33 5-30q0-5 1-10t0-10q0-32-8-56t-22-41-31-26-37-10q-1 0-4 0t-6 0-5 0-2 0q-3-2-4-2l-1-1q0-2 1-3l3-1q1-1 2-1t2-1q1-1 0-1t-1-2q0-2 1-3t2-1q2-1 3-1t2 0q2 0 4 0t3-1 3-1 5-1q2 0 4 0t8-1q21 0 39 5t31 15 25 23 18 29 11 32 5 34m153 34q0 7-1 14t-3 13-5 11-6 8q-3 3-5 3t-2-1-2-2-2-2q-1 0-3 0t-3 0-3-2-2-5q0-5 1-12t1-15q0-6-2-10t-5-5q-1 0-6 3t-9 11-10 24-8 42q0 33 0 54t1 32q0 10-1 14t-2 5q-2 1-5 2t-8 2-7 2-5 0q-1 0-3-1t-4-4-4-4-2-3q0-3 0-11t0-21 1-27 0-29q0-9 1-21t1-23 2-23 2-20 1-15 1-7q0-2 2-1t3 1 4 3 2 0q0-3 3-1t6 4q1 1 2 2t3 2 2 3 1 6q0 4 0 10t2 17q2-9 6-19t9-18 13-13 17-6q6 0 12 2t10 7 7 10 2 14m177 87q0 2 1 6t0 8q0 6-2 15t-5 18-10 19-16 17-22 12-29 5q-14 0-29-5t-27-17-21-30-7-43q0-15 4-31t10-28 16-25 19-19 21-13 22-5q17 0 29 6t18 14 10 17 3 17q0 8-4 17t-11 18-21 14-32 6q-10 0-18-3t-14-7-10-9-8-10q-4 15-4 36 0 13 4 25t11 18 17 12 21 5q15 0 26-5t19-13 14-16 11-17 8-12 6-5q1 0 1 3 0 1 0 2t-1 3m-73-91q-4 0-11 2t-15 6-15 13-13 20q3-2 6-3t3-1q1 0 2 1 5 9 14 13t18 4q9 0 15-3t10-7 5-10 2-10q0-11-6-18t-15-7m193 169q15 0 29 2t26 9 19 17 7 26q0 12-5 23t-15 23-22 21-28 17-31 11-32 4q-13 0-25-3t-20-8-14-14-5-20q0-11 4-21t12-18 16-15 20-11 19-7 17-3q4 1 6 1t1 2 0 1-1 2q0 2 1 4t0 4q0 2-1 4t-3 2q-10 3-23 8t-23 14-18 17-8 19q0 4 5 6t11 2q10 0 23-3t26-7 28-13 24-16 18-19 6-23q0-6-2-9t-5-5-7-2-5 0q-18 0-36 2t-32 4-25 5-10 2q-5 0-10-3t-7-5-5-8-2-9q0-4 4-11t12-15 16-16 18-13q-8-4-15-11t-11-13-7-16-2-16q0-17 5-30t12-22 17-16 18-10 18-6 14-1q3 0 4 0t4 1q6-10 14-21t16-22 17-21 15-18 12-12 7-4q2 0 5 3t6 6 5 7 2 4-1 2-1 2q0 1 2 2t4 2q0 1 0 1t1 0q0 1-3 4t-11 8-18 16-28 27q-3 3-8 9t-9 11q7 4 14 9t12 13 9 17 3 21q0 23-7 39t-21 26-27 13-31 5q-3 0-7-1t-6 0q-6 3-13 9t-14 11-12 13-9 13q10-1 19-2t18-3 19-3 21-1m-8-156q0-5 6-17-12 4-21 11t-15 17-10 20-3 21q0 7 2 14t5 13 11 8 15 4q10 0 17-4t14-9 10-13 6-14 4-13 1-10q0-14-4-23t-12-12q-3 4-7 8t-7 8q-1 0-2 0 0 0-1-1t-2 0q0 0-1 0t-2 1q-2 0-3-2t-1-7m263 24q0 8-1 20t-4 27-5 29-1 27q0 9 1 16t4 14q2 3 2 5t-1 5-1 3 0 2 0 3-2 3-3 2-4 0q-2-2-4-2t-3 0-2 1-2 0q-4-3-9-6t-6-6q-1-1-2-5t-1-8-1-10-1-10q-8 15-17 25t-19 16-18 8-16 3q-8 0-13-2t-9-5q-12-12-17-19t-5-12q2-16 8-29t16-24 21-21 24-15 25-12 21-8q0-13-1-23t-2-14q-3-16-11-23t-18-7q-7 0-14 5t-13 14-9 20-3 24q0 3 0 6t1 6q0 2-2 3t-3 1-4 0-4 1q-1 1-2 1t-1 0-2-2-3-2-4-3-4-1-2-2-1-1q0-15 6-32t18-29 27-22 32-8q13 0 23 4t17 10 12 15 7 16 4 16 1 12m-44 67v-24q-8 3-16 7t-18 10-18 14-17 18q-9 11-13 19t-6 15 1 9 3 4q8 3 16 1t16-8 16-15 15-17 12-18 9-15m233 65q0 3-2 7t-6 3q-2 0-4-1t-2-1q-2 0-3 1t-6 1q-4 0-8-3t-6-9-3-12-1-12q0-11 1-25t2-29 2-30 1-27q0-16-3-26t-7-9q-6 1-11 9t-12 22-11 30-11 34-10 34-8 30-7 21-3 8q-2 0-3-1t-2-2-2-2-4-1q-2 0-3 1t-2 1-2 1-5 1q-5 0-9-3t-4-6q0-3 1-13t2-22 3-30 3-34 2-35 1-33q0-8 0-15t0-13q0-1 1-1 3 0 5 1t2 2 1 2 0 2q1 0 2-1t2-2 2-2 2-1h2q4 0 6-1t2-2 0-3 2-1q1 0 2 1t3 4 2 7 1 10q0 7-1 19t-1 26-2 27-1 25q3-10 7-23t9-26 10-26 13-22 15-16 15-6q14 0 22 5t13 13 7 20 2 25q0 11-1 24t-2 24-2 25-1 22q0 13 1 23t2 16m215-92q0 25-8 46t-20 35-30 22-35 8q-8 0-18-2t-18-6-18-11-16-17-11-23-3-31q0-20 4-37t13-29 17-23 20-16 19-10 15-3q4-1 3 0t-1 3-3 2 1 2q2 0 3 1t2 1l2-2q2-2 3-2t3 1 2 0 1-1q1-3 2-3t6-1q3 0 9 2t13 6 15 11 14 17 10 26 4 34m-89-72q-8 5-16 14t-15 20-11 26-4 30q0 17 3 30t9 24 14 14 19 6q9 0 19-6t17-16 11-26 5-37q0-22-6-36t-12-23-14-13-7-4q-4 0-6 0t-6-3" />
</svg>