<svg id="fnt-Orienta" viewBox="0 0 1767 1000" xmlns="http://www.w3.org/2000/svg"><path id="orienta" class="f" d="M181 674q-42 0-75-20t-52-62-19-101q0-60 19-100t52-61 75-21 74 21 53 61 19 100q0 61-19 101t-53 62-74 20m0-39q43 0 69-35t27-109q0-73-27-108t-69-35q-42 0-69 35t-27 108q0 74 27 109t69 35m279 32h-48v-265h41l2 32q16-17 37-28t46-12l2 36-6 6q-23 0-42 8t-32 21v202m159-315q-14 0-24-9t-9-25q0-17 9-25t24-8q14 0 23 8t10 25q0 17-10 25t-23 9m24 315h-48v-265h48v265m207 7q-35 0-63-16t-44-47-15-77q0-46 15-77t43-47 61-16q47 0 77 30t29 89v35h-175q3 44 23 66t51 21q25 0 44-10t30-20l22 26q-16 17-41 30t-57 13m-71-161h127q0-38-16-59t-43-21q-27 0-46 20t-22 60m307 154h-48v-265h41l2 32q16-16 37-28t47-12q47 0 66 23t20 77v173h-48v-178q0-56-50-56-18 0-35 8t-32 22v204m330 7q-26 0-40-18t-14-51v-168h-38v-35h38v-55l38-10h10v65h70v35h-70v173q0 24 23 24 16 0 39-14l13 30q-15 11-34 17t-35 7m178 0q-20 0-37-10t-25-27-10-38q0-41 28-64t77-23q13 0 27 2t26 6v-31q0-26-14-41t-37-15q-42 0-55 42l-41-14q20-67 96-67 52 0 75 26t24 86v118q0 8 3 11t10 3q4 0 8-2t9-3l8 31q-8 4-18 7t-21 3q-18 0-30-9t-15-33q-15 16-38 29t-50 13m14-39q19 0 38-9t34-25v-49q-11-3-23-5t-23-2q-17 0-31 4t-24 16-9 30q0 17 11 28t27 12" />
</svg>