<svg id="fnt-Original Surfer" viewBox="0 0 3455 1000" xmlns="http://www.w3.org/2000/svg"><path id="original-surfer" class="f" d="M413 491q0 28-7 53t-21 46-31 38-40 29-47 18-52 6q-42 0-78-13t-61-39-40-60-15-78q0-28 7-53t20-46 30-38 39-29 46-18 52-7 52 6 48 18 40 29 31 38 20 46 7 54m-68 0q0-20-3-40t-10-38-17-35-25-28-32-19-40-7-41 7-32 19-25 29-17 34-10 39-3 39q0 20 3 40t9 39 16 34 25 28 32 18 43 7q22 0 41-7t32-19 25-27 17-35 9-39 3-39m113-58l69-4-3 64q6-12 15-23t18-22 22-18 23-13v81q-5-5-12-8t-14-2q-11 0-20 3t-15 10-11 15-8 18l-7 131-43 3-14-235m262-54q0 8-3 16t-9 14-14 9-17 4-17-4-14-9-9-14-3-16q0-9 3-17t9-14 14-9 17-4 17 4 14 9 9 14 3 17m-77 64l69 3-19 235-47-5-3-233m246 207q19 0 32-7t21-18 12-27 3-30l-3-56q0-10-6-20t-14-18-20-13-22-5q-19 0-34 8t-24 21-15 30-5 34q0 17 4 35t14 32 23 24 34 10m-24 141q-22 0-37-9t-24-21-16-31-8-36l67-4q-2 6-2 13t-1 14q0 9 2 19t7 19 12 13 20 5q12 0 21-6t16-18 11-24 8-29 4-29 3-26q-16 16-36 25t-46 9-46-10-36-28-23-39-8-46q0-24 8-45t23-39 35-26 45-10q10 0 20 1t19 5 19 7 17 11l-2-23 61-6q3 31 4 62t1 61q0 18 0 38t-3 40-6 40-11 38-17 34-24 27-34 17-43 7m275-412q0 8-3 16t-9 14-14 9-17 4-17-4-14-9-9-14-3-16q0-9 3-17t9-14 14-9 17-4 17 4 14 9 9 14 3 17m-77 64l69 3-19 235-47-5-3-233m119-5l67-5-3 44q7-12 16-22t20-18 24-10 28-2q23 4 39 14t26 28 14 38 5 48q0 15-3 30t-6 32-10 31-10 28l-61-6q1 0 4-6t6-15 8-22 7-28 6-31 2-33q0-19-3-33t-10-24-17-15-25-5q-13 0-23 7t-18 18-13 25-9 28l-6 131-46 4-9-231m505 229l-61-3 6-26q-9 8-19 14t-21 10-22 7-20 2q-16 0-33-5t-30-14-23-23-9-32q0-24 9-41t22-29 34-17 41-6q11 0 22 2t21 5 20 9 17 13q0-13-3-28t-9-26-16-20-25-8q-23 0-38 11t-22 34l-63-7q6-15 16-27t25-19 29-12 31-4q24 0 43 7t33 19 24 28 17 35 9 39 3 41q0 18-2 35t-6 36m-48-72q0-6 1-11t1-11q-2-12-8-21t-17-15-21-9-23-3q-12 0-23 4t-19 12-13 18-5 24q0 13 4 24t12 19 18 12 23 5q12 0 23-4t21-9 16-15 10-20m101-313l70-6-12 392-46 4-12-390m420 402q-28 0-53-7t-46-22-36-35-26-49l85-5q2 45 25 69t67 23q17 0 34-3t30-12 22-22 8-33q0-14-5-24t-14-16-21-11-24-6-24-4-23-2q-16-1-34-4t-36-7-33-13-28-19-19-28-7-37q0-20 7-37t18-29 28-23 33-15 35-9 36-3q17 0 36 2t38 8 37 13 32 20 24 28 12 37l-81 16q1-9 1-18 0-23-9-38t-24-25-33-13-39-4q-17 0-34 4t-30 14-22 22-9 33q0 12 7 22t18 16 25 11 28 7 27 4 21 3q16 1 33 4t34 9 31 13 27 20 18 27 7 35q0 21-9 37t-22 29-31 22-37 14-39 8-36 3m395-247l68 4-15 226-43 4-2-55q-6 14-14 25t-20 20-24 13-29 5q-24 0-43-10t-31-27-19-40-7-52q0-30 5-52t10-38q6-18 15-30l69 6q-12 14-21 34-8 17-15 43t-6 58q0 20 5 35t13 23 20 14 28 5q12 0 22-7t18-19 13-25 9-28l-6-132m118-4l69-4-3 64q6-12 15-23t19-22 21-18 23-13v81q-5-5-11-8t-14-2q-12 0-21 3t-15 10-11 15-8 18l-7 131-43 3-14-235m331 29v18h-83q1 21 5 46t7 49 10 47 10 41l-59 16q-6-19-11-43t-8-47-6-49-2-44q0-4 0-8t1-8h-34v-18h35q2-17 5-34t9-35 14-33 20-27 25-19 33-7q15 0 30 4t28 11 25 20 20 30l-64 28q0-6-1-14t-3-17-5-17-9-14-11-10-15-4q-11 0-18 8t-14 20-9 28-5 31-2 27-1 20v4h83m156 136q-19 0-38-5t-34-16q0 10 1 20t3 19 7 18 9 14 15 10 20 4q11 0 20-4t17-11 12-16 6-20l60 13q-7 15-20 26t-28 17-33 9-32 3q-28 0-50-8t-37-24-23-38-8-50q0-27 9-51t26-42 40-28 51-11q21 0 41 5t36 16 26 27 10 40q0 23-9 39t-24 25-34 15-39 4m-10-153q-11 0-20 5t-15 12-12 18-8 21-4 22-3 21q10 16 25 26t36 10q13 0 23-6t17-15 11-22 4-23-4-24-10-22-17-16-23-7m159-12l69-4-3 64q6-12 15-23t18-22 22-18 23-13v81q-5-5-12-8t-14-2q-11 0-20 3t-15 10-11 15-8 18l-7 131-43 3-14-235" />
</svg>