<svg id="fnt-Outfit" viewBox="0 0 1316 1000" xmlns="http://www.w3.org/2000/svg"><path id="outfit" class="f" d="M199 672q-37 0-69-14t-56-39-37-57-13-69q0-38 13-70t37-57 55-38 69-13 69 13 56 38 37 57 14 70q0 37-14 70t-37 57-56 38-68 14m-1-45q38 0 66-18t45-47 16-69q0-29-9-54t-27-42-40-28-51-9q-37 0-65 17t-45 47-16 69q0 29 9 53t26 43 40 28 51 10m328 45q-29 0-53-14t-36-36-13-55v-138h45v136q0 20 7 34t20 22 30 7q27 0 42-17t15-46v-136h45v138q0 31-13 55t-36 36-53 14m244-5h-45v-337h45v337m58-197h-162v-41h162v41m114 197h-45v-273q0-27 12-47t31-31 48-11q20 0 35 7t28 20l-30 29q-6-7-14-11t-20-3q-21 0-33 12t-12 35v273m76-197h-179v-41h179v41m90 197h-45v-238h45v238m-22-285q-13 0-21-9t-8-20q0-12 8-21t21-8 20 8 8 21q0 12-8 20t-20 9m170 285h-45v-337h45v337m59-197h-162v-41h162v41" />
</svg>