<svg id="fnt-Overpass" viewBox="0 0 2074 1000" xmlns="http://www.w3.org/2000/svg"><path id="overpass" class="f" d="M183 673q-42 0-70-16t-46-42-25-59-8-64 8-65 25-58 46-42 70-16q41 0 70 16t45 42 25 58 8 65-8 64-25 59-45 42-70 16m0-41q29 0 48-13t32-34 18-45 5-48q0-26-5-51t-18-45-32-33-48-12q-29 0-49 13t-32 34-17 45-6 49q0 25 6 50t17 45 32 33 49 12m328 35h-36l-94-256h44l61 171q2 6 4 12t4 13q2-7 4-13t4-12l59-171h44l-94 256m250 6q-35 0-60-18t-40-47-13-69q0-43 14-72t40-46 59-16q29 0 53 13t38 40 15 69q0 6-1 14t-1 16h-173q3 23 12 40t23 28 35 10q16 0 30-6t26-18l26 29q-15 14-36 23t-47 10m-69-154h131q0-22-8-39t-20-27-34-10q-28 0-48 18t-21 58m283 148h-43v-256h43v34q9-20 24-30t37-10q23 0 39 13l-6 41q-9-6-18-8t-19-3q-17 0-30 9t-20 26-7 40v144m195 81l-44 20v-357h44v22q27-28 65-28 33 0 56 16t37 47 13 71-13 71-37 46-56 17q-20 0-36-8t-29-22v105m60-116q32 0 49-24t17-69q0-44-18-69t-48-25q-20 0-35 9t-25 26v118q13 17 28 26t32 8m253 41q-42 0-66-23t-23-63q0-26 11-45t34-29 50-11q19 0 35 4t31 13v-18q0-30-13-44t-42-14q-19 0-38 7t-37 19l-12-37q19-13 43-20t49-7q46 0 68 23t23 69v170h-41v-24q-15 14-34 22t-38 8m6-38q18 0 35-9t31-25v-44q-13-8-29-12t-31-5q-28 0-44 13t-16 34q0 22 14 35t40 13m258 38q-27 0-52-12t-40-31l31-27q13 15 30 23t32 8q23 0 35-9t13-24q0-10-6-18t-19-15-34-15q-42-16-61-35t-18-45q0-30 24-49t62-19q26 0 48 10t38 29l-30 25q-23-25-56-25-20 0-32 8t-11 21q0 12 13 22t47 22q27 10 44 22t25 27 8 34q0 34-24 53t-67 20m235 0q-27 0-52-12t-41-31l31-27q14 15 30 23t33 8q22 0 35-9t12-24q0-10-6-18t-18-15-34-15q-43-16-61-35t-18-45q0-30 23-49t63-19q26 0 48 10t38 29l-30 25q-23-25-57-25-20 0-31 8t-11 21q0 12 12 22t47 22q28 10 45 22t25 27 8 34q0 34-25 53t-66 20" />
</svg>