<svg id="fnt-Over the Rainbow" viewBox="0 0 3735 1000" xmlns="http://www.w3.org/2000/svg"><path id="over-the-rainbow" class="f" d="M46 650q-24-25-30-55t-3-61 12-63 13-58q2-11 3-26t2-32 4-33 8-28q1-1 4-5t4-4q34-20 61-15t46 26 32 57 16 75 0 80-17 75-35 57-52 27q-12 1-21 2t-16-1-15-6-16-12m26-18q24 17 43 15t32-17 23-41 13-55 5-63-1-60-9-51-13-32q-18-24-31-32t-24-5-16 16-11 30-5 37 0 38 4 32 7 19q1 2 7 6t13 10 15 13 11 14 4 13-8 12q-6 4-14 2t-15-7-16-14-13-16-11-14-7-10l-9 16v102q0 3 3 9t6 12 8 13 9 8m199-135q-1-4-6-13l-11-21q-5-11-10-20t-7-14q1-5 6-7t10-3 11 3 7 7l67 153 60-212 2-3q3-4 7-8t8-6 8 0q1 2 1 9t-1 8q-1 4-6 19t-11 32-10 32-6 19-4 16-4 29-6 35-5 36-5 28-2 16q-1 6-3 13t-7 13-10 8-14 1q-2-7-7-20t-10-30-12-35-12-35-11-30-7-20m271 161q-21-16-32-37t-19-47q-3 2-9 5t-12 5-12 3-8-1-2-7 10-14q0-1 6-6t11-11 10-11 6-6q6-12 7-27t1-30 2-32 7-29q4-8 13-20t22-22 24-19 22-11 13 5 0 24q-6 22-17 42t-22 40-23 39-15 40q-2 11-2 26t3 31 12 27 21 17q16 6 31 3t31-11 28-21 26-25 21-26 15-21l9 9q3 3-4 16t-22 31-34 36-41 30-41 15-36-10m-17-212q0 2 0 8t-1 13 1 13 0 8q16-26 30-57t21-61q-11 4-20 12t-15 19-10 22-6 23m220 3v212q-8 16-14 17t-9-11-5-31-3-45-1-51 2-52 3-45 4-33 5-13 5 13q16-11 34-22t37-17 39-10 38 4q2 6 1 15t-9 10q-8-1-21-1t-27 2-28 6-26 12-18 17-7 23m547 183q-11-18-17-40t-8-47-2-47 1-43q-7-2-16 1t-18 7-20 10-19 8-16 1-12-10q-4-8 1-13t15-8 23-4 25-3 20-5 9-10l17-186q0-4 5-7t8-2 9 2 3 7v161q7 1 13 0t13-4 13-4 13 0q2 5-1 10t-8 7l-9 5q-6 4-12 8t-13 7-9 5q0 6 0 23t-1 36 1 36 0 24q2 23 9 42t19 30 28 10 38-15q3 11 0 20t-13 14-21 7-25-2-24-10-19-21m146 35l-18-17q5-52 3-100t-8-94-14-95-14-102q0-1-1-4t0-8 0-8 1-4h17q1 8 4 27t8 42 9 49 8 49 8 42 5 28q0 1 2 5t2 8 2 7 3 5q1-4 6-13t10-21 10-20 7-14q8-14 20-26t24-14 21 5 11 35q1 7 2 20t1 30 2 35 2 35 2 30 0 20q6 7 8 16t1 17q-10 4-17 0t-12-11-8-16-6-15q1-19 2-40t-1-44-3-44-6-41q-9-5-17 3t-14 24-12 37-11 45-11 47-10 43-9 32-9 15m262-9q-20-16-32-37t-19-47q-3 2-8 5t-12 5-12 3-9-1-1-7 9-14q1-1 6-6t11-11 11-11 5-6q6-12 7-27t1-30 2-32 8-29q3-8 12-20t22-22 24-19 22-11 13 5 0 24q-6 22-17 42t-22 40-23 39-14 40q-3 11-3 26t4 31 11 27 21 17q16 6 32 3t30-11 29-21 25-25 21-26 16-21l8 9q3 3-4 16t-22 31-34 36-40 30-41 15-37-10m-16-212q-1 2-1 8t0 13 0 13 1 8q15-26 29-57t21-61q-11 4-20 12t-15 19-10 22-5 23m513 212q0-8-1-26t-1-41-2-47-2-48-1-40-1-27q0-3 0-10t0-15 0-15 0-10q-5 2-13 10t-18 16-19 15-17 9q-12-6-11-17t11-21 27-24 37-23 42-21 41-15 34-8 22 2q14 15 13 36t-9 44-23 50-27 50-23 46-8 36 14 23 46 3q17-4 35-12t35-20 32-22 25-22q17 5 19 13t-6 19-26 21-39 22-44 19-45 12-38 4-25-8q0 3 0 10t-2 16-5 15-10 10q-5 2-10-1t-7-8m25-287l1 180 90-201q-3-11-11-16t-19-4-21 5-20 10-14 13-6 13m255 287q-10-20-10-41t2-43q0-7 2-21t5-30 5-35 5-35 5-30 3-19q4-21 9-35t12-22 21-8 34 6q2 0 5 4t4 4q1 7 3 20t6 30 7 35 8 35 6 30 4 20q7 34 18 48t23 14 25-8 26-19 24-16 19-2q0 9-4 18t-11 16-13 14-14 11q-27 18-46 19t-31-8-20-26-14-33-12-29-13-16q-2 6-6 21t-10 34-11 33-6 22q-1 2-5 9t-8 15-11 16-12 11-13 3-11-12m25-144q-1 6-1 22t0 33 0 33 1 22q18-26 31-60t21-71 6-74-15-66q-8 15-16 38t-12 47-9 44-6 32m219 127q-1-2-3-7t-3-13-2-13-1-9v-238q0-4 4-6t10-3 11 1 5 0v263q0 8 5 14t13 8 15 4 13-1q7 11 0 17t-20 6-27-4-20-19m-17-364q0-15 11-19t23 1v26q-2 1-5 1t-8 0-8 0-5-1q-2 0-5-4t-3-4m131 381q1-6 1-22v-66q0-16-1-22 0-3-1-13t-3-23-4-27-4-28-3-23-2-13q-1-7 0-15t2-12 8-8 16 1q0 11 1 25t4 29 5 29 7 27q6-18 12-32t14-25 18-23 23-21q17-15 29-12t19 17 12 36 9 46 8 49 11 41 15 25 25 1q4 13 1 19t-11 7-18-4-20-13-18-19-11-24q-1-9-3-29t-4-43-9-45-18-35l-34 33q-1 2-7 18t-12 35-14 41-9 34q-1 4-2 16t-3 26-2 26-1 16q-5 9-13 9t-13-9m278 4q-2-7 4-15t16-17 24-18 26-17 22-16 13-14q8-15 13-34t7-38-1-33-9-20-20 1-32 31q-6 7-13 24t-16 38-17 43-17 35-16 20-14-8q0-3 0-12t0-17 0-18 0-12q-1-33-3-65t-5-63-4-62-5-64q-1-14 1-19t5-4 8 10 9 17 7 23 4 23q0 6 0 19t2 29 2 33 2 33 1 29 1 19q11-8 19-20t14-23 15-23 20-19q31-20 52-22t31 10 13 31-4 46-19 52-31 51-44 41-53 24l-4-4q-3-4-4-5m218-21q-12-18-15-40t0-47 8-49 9-48 5-44-7-34q-4-8-10-8t-15 2-15 1-13-9q0-2 3-5t5-4q44-6 74 9t47 44 24 64 5 72-12 66-23 47-32 15-38-32m25-17q1 2 3 4t6 5 5 6 3 2q18-10 27-28t10-39-2-45-10-45-16-41-17-30q-1 6-2 19t-3 30-4 35-3 36-3 30-2 19q-1 5 0 11t2 12 3 11 3 8m267 17q-7-11-12-32t-10-43-8-41q-3-19-4-27-1 8-6 26t-11 36-17 40-22 34-26 19-28-3q-1-1-2-4t-3-7-2-8-1-7v-203q-8-14-9-23t2-14 8-6 11 0 9 6 4 12v203l9 25q24-16 38-40t23-52 11-56 4-55q2-1 6-1t8 0 7 3 4 6l34 178 17 34q11-8 17-27t9-46 2-59 0-62 1-60 4-48 12-31 23-6q9 3 9 11t-5 17-10 16-7 7v229q0 10-4 23t-11 24-15 22-19 13-20-2-20-21" />
</svg>