<svg id="fnt-Ovo" viewBox="0 0 883 1000" xmlns="http://www.w3.org/2000/svg"><path id="ovo" class="f" d="M24 501q0-36 14-67t38-54 54-34 67-13 67 13 52 36q47 49 47 124 0 71-48 118-49 49-124 49-73 0-120-49-47-49-47-123m42-14q0 32 11 63t29 53q41 49 103 49 48 0 79-36 32-37 32-97 0-72-39-119-38-46-96-46-48 0-83 36-36 38-36 97m536-46l29-3q10 0 10 6 0 6-10 9t-13 6-9 8q-8 9-20 36l-74 163q-3 7-6 7-5 0-8-7l-82-182q-7-15-11-20-6-8-17-10t-11-10q0-2 3-4t7-2l38 3q15 0 23-1 14-2 23-2 17 0 17 7 0 8-20 9-15 0-15 10 0 8 5 19l58 128 51-117q9-22 9-29t-4-9-13-2-14-3-4-6q0-7 17-7l41 3m47 117q0-23 8-46t25-39q34-37 85-37 56 0 87 34 28 31 28 80 0 50-33 86-34 37-85 37-57 0-87-34-28-31-28-81m41-10q0 24 7 45t18 34q23 28 57 28 31 0 50-24 20-26 20-66 0-53-24-83-23-28-58-28-31 0-50 25-20 25-20 69" />
</svg>