<svg id="fnt-Oxanium" viewBox="0 0 1998 1000" xmlns="http://www.w3.org/2000/svg"><path id="oxanium" class="f" d="M40 590v-192q0-76 77-76h117q76 0 76 76v192q0 77-76 77h-117q-77 0-77-77m42-196v201q0 34 34 34h118q34 0 34-34v-201q0-34-34-34h-118q-34 0-34 34m287 273l-4-8 92-125-88-120 3-7h37l71 98 71-98h37l4 7-88 120 91 125-3 8h-37l-75-104-74 104h-37m474 0h-131q-76 0-76-76t76-75h91v-39q0-35-35-35h-107v-20l20-15h87q75 0 75 75v185m-167-84v14q0 35 35 35h92v-84h-92q-35 0-35 35m285 84h-40v-260h140q75 0 75 75v185h-40v-190q0-35-35-35h-100v225m295-309h-44v-47h44v47m-2 309h-40v-260h40v260m78-75v-185h40v190q0 35 35 35h100v-225h40v260h-140q-75 0-75-75m335 75h-40v-260h295q75 0 75 75v185h-40v-190q0-35-35-35h-90v225h-40v-225h-125v225" />
</svg>