<svg id="fnt-Pacifico" viewBox="0 0 1673 1000" xmlns="http://www.w3.org/2000/svg"><path id="pacifico" class="f" d="M412 369q0 42-22 78t-64 58-100 26l-22 121q-12 69-68 69-30 0-56-18t-41-55-16-91q0-101 33-172t88-106 122-35q47 0 79 16t50 45 17 64m-177 111q102-13 102-107 0-33-22-54t-67-20q-51 0-90 32t-59 90-20 132q0 31 6 55t16 37 19 14q12 0 19-35l16-94q-19-3-17-3-15-2-19-9t-5-17q0-11 6-18t18-6q5 0 7 0 12 2 19 3 6-39 18-105 3-17 14-24t25-7q17 0 24 6t7 20q0 8-1 13l-16 97m211 189q-31 0-50-22t-18-59q0-40 18-76t49-58 66-21q11 0 14 4t7 15q10-2 22-2 24 0 24 18 0 10-7 50-12 57-12 80 0 7 4 12t10 4q9 0 23-12t36-40q6-7 14-7 6 0 10 6t4 17q0 20-10 31-20 25-43 43t-45 17q-16 0-30-11t-21-31q-26 42-65 42m18-50q11 0 21-13t14-35l19-92q-21 1-39 16t-28 40-11 53q0 16 6 23t18 8m251 50q-49 0-77-28t-27-73q0-40 16-71t42-47 53-16q28 0 43 16t15 42q0 21-9 35t-24 15q-10 0-16-5t-5-12q0-4 1-8t1-7q3-7 3-14t-4-10-9-3q-11 0-21 10t-16 28-6 38q0 58 50 58 21 0 44-14t47-41q6-7 14-7 6 0 10 6t4 17q0 19-10 31-23 29-56 44t-63 16m154-268q-21 0-32-10t-10-27 13-30 35-11q18 0 30 9t11 25q0 20-13 32t-34 12m-4 268q-33 0-48-23t-14-61q0-22 5-58t15-65q5-16 12-22t24-6q26 0 26 17 0 12-10 58-12 55-12 74 0 15 4 23t14 8q9 0 22-12t36-40q6-7 14-7 6 0 10 6t4 17q0 20-10 31-49 60-92 60m256-142q14 0 14 21 0 39-62 39-12 0-35-4 7 31 11 68t4 63q0 54-17 82t-46 29q-36 0-52-51t-15-154q0-96 21-195t57-164 80-64q23 0 36 21t14 56q0 118-141 256-5 49-5 86 0 52 4 106t11 54q15 0 15-52 0-39-5-75t-14-77q-1-7 4-17t12-17 12-8q10 0 24 1 5 1 11 1 20 0 44-4 4 0 9-1t9 0m-51-281q-9 0-22 31t-26 80-23 107q40-46 62-95t22-92q0-31-13-31m92 155q-21 0-31-10t-11-27 14-30 34-11q19 0 30 9t12 25q0 20-13 32t-35 12m-4 268q-32 0-47-23t-15-61q0-22 6-58t15-65q4-16 12-22t24-6q25 0 25 17 0 12-9 58-12 55-12 74 0 15 4 23t13 8q9 0 23-12t36-40q6-7 13-7 7 0 10 6t4 17q0 20-9 31-50 60-93 60m157 0q-49 0-76-28t-27-73q0-40 16-71t41-47 54-16q27 0 42 16t16 42q0 21-10 35t-24 15q-9 0-15-5t-6-12q0-4 1-8t2-7q2-7 2-14t-3-10-9-3q-12 0-22 10t-16 28-6 38q0 58 51 58 20 0 44-14t47-41q6-7 13-7 7 0 10 6t4 17q0 19-9 31-24 29-57 44t-63 16m344-156q6 0 10 7t3 16q0 24-14 29-30 10-66 12-10 42-38 67t-63 25q-30 0-52-14t-32-39-11-52q0-38 15-68t40-46 56-17q38 0 61 26t28 65q23-1 56-10 4-1 7-1m-164 103q16 0 27-13t16-37q-15-11-24-28t-8-36q0-8 2-16h-3q-20 0-33 19t-13 55q0 27 10 42t26 14" />
</svg>