<svg id="fnt-Padauk" viewBox="0 0 1467 1000" xmlns="http://www.w3.org/2000/svg"><path id="padauk" class="f" d="M78 667h-43v-314h89q22 0 43 3t40 12 27 28 11 48-11 47-27 27-40 12-43 3h-46v134m0-276v104h47q39 0 58-11t20-40q0-30-20-42t-58-11h-47m297 282q-18 0-37-7t-33-21-13-35q0-25 11-41t29-24 38-12 40-3h30q0-30-9-43t-38-14q-11 0-22 3t-19 11-8 21h-40q0-26 13-40t33-19 41-5q15 0 32 2t32 11 20 24q3 7 4 23t0 30v72q0 15 2 33t4 28h-38q-2-9-3-16t-3-16q-15 19-29 28t-37 10m0-30q28 0 42-11t18-31 4-41q-3-1-10-1t-12-1q-10 0-25 2t-28 7-22 14-9 24q0 18 12 28t30 10m259 30q-25 0-48-15t-38-39-15-57q0-20 5-40t15-39 28-28 42-11q23 0 44 8t32 26v-125h38v314h-38v-25q-10 10-26 20t-39 11m2-32q21 0 35-12t20-32 6-37q0-24-8-44t-24-33-35-13q-21 0-34 13t-18 34-5 40q0 22 8 42t22 31 33 11m237 32q-19 0-38-7t-33-21-13-35q0-25 11-41t29-24 38-12 40-3h30q0-30-9-43t-38-14q-11 0-22 3t-19 11-8 21h-40q0-26 13-40t33-19 41-5q15 0 32 2t32 11 20 24q3 7 4 23t1 30v72q0 15 1 33t4 28h-38q-2-9-3-16t-3-16q-15 19-29 28t-36 10m0-30q27 0 41-11t18-31 5-41q-4-1-11-1t-11-1q-11 0-26 2t-28 7-22 14-9 24q0 18 12 28t31 10m249 30q-45 0-64-21t-20-59v-144h40v144q0 23 16 38t36 15q23 0 40-15t18-42v-140h39v218h-39v-28q-9 14-25 24t-41 10m205-6h-40v-314h40v187l83-91h48l-86 95 93 123h-52l-86-116v116" />
</svg>