<svg id="fnt-Padyakke Expanded One" viewBox="0 0 8435 1000" xmlns="http://www.w3.org/2000/svg"><path id="padyakke-expanded-one" class="f" d="M228 667h-200v-12h92v-236h-92v-12h319q42 0 66 20t25 57q0 33-24 54t-67 22h-215v95h96v12m123-248h-219v129h219q32 0 53-17t21-47q0-30-20-48t-54-17m260 253q-47 0-73-14t-25-38q0-28 31-43t88-15q43 0 79 5t68 11v-10q0-31-25-52t-79-21q-39 0-76 8t-76 21l-3-12q41-14 79-21t76-8q59 0 88 24t28 61v52q0 20 10 30t22 10q20 0 34-12l7 9q-9 7-19 11t-22 4q-17 0-29-11t-14-30q-40 20-85 30t-84 11m-86-53q0 20 23 30t63 11q39 0 82-11t86-29v-31q-31-6-69-11t-78-4q-50 0-78 12t-29 33m504 53q-53 0-86-23t-33-63q0-32 21-55t56-35 75-12q45 0 81 11t64 26v-103h-91v-11h104v213q0 20 9 30t22 10q11 0 19-3t17-10l5 10q-9 7-20 11t-21 4q-19 0-32-14t-12-38v-17q-42 30-86 49t-92 20m-106-86q0 33 28 53t78 21q42 0 87-19t91-51v-57q-28-14-66-26t-79-12q-38 0-70 11t-50 32-19 48m494 171q-24 0-41-7t-36-14l4-11q19 9 36 14t38 6q26 0 45-14t36-40l7-11-120-180h-61v-12h136v12h-61l113 168 108-168h-59v-12h136v12h-63l-122 191q-18 28-41 47t-55 19m430-85q-47 0-73-14t-26-38q0-28 32-43t87-15q44 0 80 5t67 11v-10q0-31-25-52t-78-21q-39 0-76 8t-76 21l-3-12q41-14 79-21t76-8q59 0 87 24t29 61v52q0 20 9 30t23 10q20 0 34-12l6 9q-8 7-19 11t-22 4q-17 0-29-11t-14-30q-40 20-84 30t-84 11m-86-53q0 20 22 30t64 11q39 0 82-11t85-29v-31q-31-6-68-11t-79-4q-49 0-78 12t-28 33m554 48h-194v-12h90v-236h-90v-12h103v140q42-28 86-46t87-17q40 0 63 13t24 38q0 31-36 47t-95 18q24 30 45 47t50 18q22 0 40-13t22-37l11 2q-5 26-24 43t-49 17q-33 0-59-23t-49-54q-35 0-66-4t-50-8v67h91v12m79-172q-41 0-85 17t-85 45v22q13 2 32 4t43 3 43 2q38 0 67-6t46-18 16-28q0-21-21-31t-56-10m366 172h-194v-12h90v-236h-90v-12h103v140q42-28 86-46t87-17q40 0 63 13t24 38q0 31-36 47t-95 18q24 30 45 47t50 18q22 0 40-13t22-37l11 2q-5 26-24 43t-49 17q-33 0-59-23t-49-54q-35 0-66-4t-50-8v67h91v12m79-172q-41 0-85 17t-85 45v22q13 2 32 4t43 3 43 2q38 0 67-6t46-18 16-28q0-21-21-31t-56-10m342 177q-41 0-74-11t-52-31-19-49q0-23 13-42t37-30 51-19 59-6q56 0 91 15t35 43q0 19-16 31t-43 18-60 6q-40 0-78-7t-76-20q-1 5-1 11 0 24 17 41t48 28 68 10q46 1 80-10t62-28l6 10q-29 18-63 29t-85 11m15-177q-32 0-62 8t-52 22-30 36q74 24 151 24 30 0 54-4t38-14 14-25q0-22-30-35t-83-12m742 172h-403v-12h92v-236h-92v-12h403v91h-12v-79h-287v106h154v-54h13v119h-13v-54h-154v119h287v-80h12v92m448-167h-57l-116 77 118 78h55v12h-155v-12h80l-109-72-108 72h81v12h-154v-12h55l118-78-118-77h-55v-12h154v12h-79l108 71 108-71h-81v-12h155v12m241 249h-199v-11h91v-238h-91v-12h103v65q42-30 86-50t92-19q54 0 86 22t33 63q0 32-21 55t-55 36-76 12q-45 0-82-12t-63-26v104h96v11m82-254q-42 0-87 19t-91 51v58q28 15 66 26t79 11q38 1 70-11t51-32 19-48q0-33-29-53t-78-21m303 177q-47 0-73-14t-26-38q0-28 32-43t87-15q44 0 80 5t67 11v-10q0-31-25-52t-78-21q-39 0-76 8t-76 21l-3-12q41-14 79-21t76-8q59 0 87 24t29 61v52q0 20 9 30t23 10q20 0 34-12l6 9q-8 7-19 11t-22 4q-17 0-29-11t-14-30q-40 20-84 30t-84 11m-86-53q0 20 22 30t64 11q39 0 82-11t85-29v-31q-31-6-68-11t-79-4q-49 0-78 12t-28 33m553 48h-183v-12h91v-155h-91v-12h103v68q13-10 29-23t37-24 43-18 46-7q40 0 62 16t31 42 10 57v56h86v12h-179v-12h80v-56q0-19-4-37t-13-34-28-24-45-9q-24 0-46 8t-43 18-37 24-29 23v87h80v12m429 5q-53 0-86-23t-33-63q0-32 21-55t56-35 75-12q45 0 81 11t64 26v-103h-91v-11h104v213q0 20 9 30t22 10q11 0 19-3t17-10l5 10q-9 7-20 11t-21 4q-19 0-32-14t-12-38v-17q-42 30-86 49t-92 20m-106-86q0 33 28 53t78 21q42 0 87-19t91-51v-57q-28-14-66-26t-79-12q-38 0-70 11t-50 32-19 48m584 86q-40 0-73-11t-52-31-20-49q0-23 14-42t36-30 52-19 58-6q57 0 91 15t35 43q0 19-16 31t-42 18-61 6q-40 0-77-7t-76-20q-1 5-1 11 0 24 17 41t47 28 68 10q47 1 81-10t62-28l5 10q-28 18-63 29t-85 11m15-177q-32 0-62 8t-52 22-29 36q74 24 150 24 30 0 54-4t39-14 14-25q0-22-31-35t-83-12m335 177q-54 0-87-23t-32-63q0-32 21-55t55-35 76-12q44 0 81 11t64 26v-103h-92v-11h104v213q0 20 10 30t22 10q10 0 18-3t18-10l5 10q-10 7-20 11t-22 4q-19 0-31-14t-12-38v-17q-42 30-87 49t-91 20m-107-86q0 33 28 53t79 21q41 0 87-19t91-51v-57q-28-14-66-26t-79-12q-38 0-70 11t-51 32-19 48m765 86q-54 0-97-16t-69-47-26-72q0-43 26-74t69-46 97-16 97 16 69 46 25 74q0 42-25 72t-69 47-97 16m0-12q52 0 92-15t63-42 24-66q0-39-24-67t-63-42-92-15-92 15-64 42-23 67q0 38 23 66t64 42 92 15m437 7h-183v-12h91v-155h-91v-12h103v68q13-10 29-23t37-24 43-18 46-7q40 0 62 16t31 42 10 57v56h86v12h-179v-12h80v-56q0-19-4-37t-13-34-28-24-45-9q-24 0-46 8t-43 18-37 24-29 23v87h80v12m455 5q-40 0-73-11t-52-31-20-49q0-23 14-42t36-30 52-19 58-6q57 0 91 15t35 43q0 19-16 31t-42 18-61 6q-40 0-77-7t-76-20q-1 5-1 11 0 24 17 41t47 28 68 10q47 1 81-10t62-28l5 10q-28 18-63 29t-85 11m15-177q-32 0-62 8t-52 22-29 36q74 24 150 24 30 0 54-4t39-14 14-25q0-22-31-35t-83-12" />
</svg>