<svg id="fnt-Palanquin Dark" viewBox="0 0 3412 1000" xmlns="http://www.w3.org/2000/svg"><path id="palanquin-dark" class="f" d="M107 667h-65v-340h107q55 0 95 25t39 84q0 58-42 85t-97 27h-37v119m40-286h-40v114h41q29 0 47-14t20-41q0-33-18-46t-50-13m236 213q0 11 9 19t22 8q14 0 27-6t27-18v-37h-49q-17 0-27 11t-9 23m32 79q-44 0-66-22t-21-57q0-37 25-57t67-20h47q0-19-11-29t-28-10q-17 0-37 4t-33 12l-18-54q14-10 43-16t44-6q44 0 75 25t31 64v160h-34l-16-21q-13 11-32 19t-36 8m181-354l65-5v353h-65v-348m178 275q0 11 9 19t22 8q14 0 27-6t27-18v-37h-49q-17 0-27 11t-9 23m32 79q-44 0-66-22t-21-57q0-37 25-57t67-20h47q0-19-11-29t-28-10q-17 0-37 4t-33 12l-18-54q14-10 43-16t44-6q44 0 75 25t31 64v160h-34l-16-21q-13 11-32 19t-36 8m212-249l19 26q17-16 41-26t45-9q49 0 70 29t21 71v152h-65v-149q0-23-11-36t-32-12q-14 0-30 7t-27 17v173h-65v-243h34m453 0h34v347l-66 5v-123q-15 9-33 14t-32 6q-53 0-82-37t-28-92 30-92 83-37q18 0 40 7t39 22l15-20m-80 46q-34 0-47 24t-13 50q0 28 12 51t48 22q12 0 24-5t24-12v-112q-11-8-24-13t-24-5m370 197l-19-24q-16 15-40 24t-44 10q-49 0-70-30t-21-70v-153h66v150q0 23 11 35t32 12q13 0 27-6t27-15v-176h65v243h-34m129-350q15 0 26 10t11 26-11 26-26 11q-15 0-26-11t-10-26 10-26 26-10m-33 107h65v243h-65v-243m162 0l20 26q16-16 41-26t44-9q50 0 70 29t21 71v152h-65v-149q0-23-11-36t-32-12q-14 0-29 7t-28 17v173h-65v-243h34m509 243h-124v-340h126q79 0 117 47t38 121q0 79-41 125t-116 47m3-285h-62v230h58q41 0 66-27t25-90q0-53-21-83t-66-30m262 212q0 11 9 19t22 8q14 0 27-6t27-18v-37h-49q-17 0-27 11t-9 23m32 79q-44 0-66-22t-21-57q0-37 25-57t67-20h47q0-19-11-29t-28-10q-17 0-37 4t-33 12l-18-54q14-10 43-16t44-6q44 0 75 25t31 64v160h-34l-16-21q-13 11-32 19t-36 8m311-249l13 52q-17 0-39 10t-42 28v153h-65v-243h34l21 36q15-13 37-25t41-11m49-105l65-5v199l104-96 36 46-68 60 89 144h-74l-61-103-26 23v80h-65v-348" />
</svg>