<svg id="fnt-Palette Mosaic" viewBox="0 0 4169 1000" xmlns="http://www.w3.org/2000/svg"><path id="palette-mosaic" class="f" d="M167 492q0-3 0-6t0-6q0-40 1-79t1-79q0-6-3-12 0 6 0 11t-1 12q0 5-1 9t-2 9q0 2 0 4t0 4q5 17 0 33-1 2-2 4t0 3q3 6 2 12t-3 13q-1 3 0 4 4 4 4 9t-1 11q0 13-1 27t-1 28q-1 29-1 59t-2 59q0 12-1 24t-2 24q-1 4-1 9t0 10q-10 0-18 0t-17 0q-2 0-4-1t-6 0q-2 1-6 0t-9-1q-10 3-22 3t-23-1q-1-2-1-3t0-2q0-20-1-40t1-40q0-3 1-7t3-9q-3-3-4-8t0-11q3-10 3-20t0-20q1-32 2-64t2-64q1-13 1-25t1-25q0-19 0-38t1-39q0-1 1-2t1-4q12 0 24-1t24 1 24 1 24-2q10-2 11 9 0 6 0 12t1 12q1-7 1-15t1-14q12-4 22-1t21 6q7 3 14 7t14 9q8 5 16 17 5 6 10 12t8 14q3 5 4 12t2 13q1 12 1 25t0 25q1 19-7 32t-21 26q-9 9-20 16t-22 11q-7 3-15 4t-16 4q-6 1-9-2t-4-8m353-111h89q2 23 3 46t4 45q1 20 1 35t-1 15v161h-96q-1-6-1-12t0-11q0-45-1-90t-1-89q0-24 1-49t2-51m-147 188q0-2 0-4t0-3v-11q-2-25 7-45t25-38q21-26 54-34 8-3 16-3t17-1q7-1 9 2t2 9q-1 27-1 54t-1 55q-1 16-1 32t-2 32q0 0 1 4l-1 15q-1 9-2 18t-3 19q-8-1-15-3t-15-3q-24-6-41-21t-30-36q-5-10-10-19t-9-19m433-211l-1 114v119q0 20 0 41t0 41q5 0 9 0t10 0q0 0 0 0t1 1v39q-5-1-11-1t-11 0h-84l-3-352q3-1 14-2t25 0 29 0 22 0m176 200h-14q-9-2-18-3t-18-2q2-8 3-15t3-14q6-23 20-39t34-28q9-5 18-10t19-8q1-1 5-1 3 0 5 0t6 0q23-1 42 8t37 23q24 19 32 52 2 7 3 15t1 15q0 7-2 9t-9 2q-26-1-51-1t-52-1q-15-1-30-1t-30-1q-1-1-2-1t-2 1m10 111q-25-15-36-37t-13-47q-1-3-1-7t0-6l110 3q0 21 0 41t0 42q0 2-1 3t0 4q0 3 0 6t1 9q-1 0-3 1t-3 2q-5 0-11-1t-10-1-10-2-9-2q-3-1-5-3-2-1-5-3t-4-2m354-193v1q11 1 22 1t22 2q2 5 2 17t1 27-2 23q-11 0-23-1t-22 0v48q1 30 0 59t2 60h-86l-2-169q-11-1-23-2t-23-2v-35q0-9 0-18t2-15 5-4q9 0 19 1t19 2l-1-106q3-1 14-1t26 0 28 0 22-1l-2 113m250 0v1q11 1 22 1t22 2q2 5 2 17t1 27-2 23q-11 0-23-1t-22 0v48q1 30 0 59t2 60h-86l-2-169q-11-1-23-2t-23-2v-35q0-9 0-18t2-15 5-4q9 0 19 1t19 2l-1-106q3-1 14-1t26 0 28 0 22-1l-2 113m164 82h-14q-9-2-18-3t-18-2q2-8 3-15t3-14q6-23 20-39t34-28q9-5 18-10t19-8q1-1 5-1 3 0 5 0t6 0q23-1 42 8t37 23q24 19 32 52 2 7 3 15t1 15q0 7-2 9t-9 2q-26-1-51-1t-52-1q-15-1-30-1t-30-1q-1-1-2-1t-2 1m10 111q-25-15-36-37t-13-47q-1-3-1-7t0-6l110 3q0 21 0 41t0 42q0 2-1 3t0 4q0 3 0 6t1 9q-1 0-3 1t-3 2q-5 0-11-1t-10-1-10-2-9-2q-3-1-5-3-2-1-5-3t-4-2m1037-366q2 4 3 9t3 10q1 4 1 8t-4 7q-1 1-2 2t0 2q2 13 1 25t0 25q3 13 1 27t-1 29q0 19 1 38t0 38q0 26 0 51t-1 50q0 15-1 30t-2 31q0 8-2 10t-10 2q-8 0-15-1t-15-1q-9-1-17-2t-18-1q-3 0-10-2v-331q-8 18-21 29t-32 12q-22 1-35-10t-23-28q-1 14-2 27t-1 26q0 8-1 15t-1 16q1 6 0 13t-3 12q5 14 4 28t-2 28-2 28q0 11 1 22t0 23q0 6-1 11t-1 10q-1 15-1 30t-1 30q0 10-4 13t-13 3q-5 0-11 0t-8-6q-3 1-6 3t-5 3q-1-4-3-7-2 2-5 3t-4 4q-4-4-8-4t-10 2q-6 3-11 0t-5-10v-40q0-9 1-17t4-16q1-1 1-4-5-12-4-24t3-25 1-24q-1-10-1-20t1-20q1-13 1-27t1-26q0-25 1-50t1-50q0-1-1-3t-1-3q0-3-1-6t-2-6q0-10 2-23 1 0 3 0t2 1q7-8 12-16t12-14q6-6 13-9t17-4h36q16 0 29 12 8 7 14 15t11 21q3-5 6-10t6-9q10-13 23-21t32-8q4 0 8 0t10 0q16-1 28 5t21 17 13 22m313 230q0 6-1 12t-1 13q-1 3-2 5t-6 1q-7-4-14-3t-14 1q-15-2-30-2t-29 0q-30-1-60-3t-62-4q1-7 2-13t2-10q0-17 8-30t18-26q8-10 20-16t25-10q18-4 34-3t34 5q12 2 21 8t18 13q8 8 15 18t11 21q1 4 2 7t6 7q2 1 3 3t0 6m-221 68q-1 1-2 2t-4 2q-1-2-1-4t0-4q0-7 1-15t1-15q0-4 1-7t6-4q5-1 7 2t3 6q1 1 1 1t1 2q9 1 18 1t19 0q35 1 70 1t70 1q2 0 4 0t4 1q3 0 7 0t8-1q1 1 2 2t2 4q0 10-3 21 0 5-2 9t-2 10q-1 2-3 5-1 2-3 4t-2 5q-15 25-38 36t-50 13q-12 1-24 0t-23-3q-3 0-4-2-10-5-19-12t-19-12q-2-2-4-6t-4-6q-5-9-9-18t-9-19m448-157q18 10 26 26t10 36q1 2 1 4t0 5l-81-2q0-16 0-31t0-30q0-2 1-6 0-2 0-5t-1-6q1 0 2-1t3-1q4 0 7 0t8 2q4 0 7 1t7 2q3 1 4 2 3 1 6 4m-52-8q3 1 4 2t1 4q-3 5-2 10t0 10q-1 10-1 20t0 21q-1 21-2 42t-3 44q-5-1-9-2t-7 0q-12-1-21-7t-18-12q-8-6-12-14t-7-18q-2-12-2-24t3-24q4-16 16-27 5-6 12-11t15-7q2-1 5-2t4-4q3-3 7-2 4 0 9 0t8 1m39 117l6 4q17 10 25 26t9 34q1 8 0 16t-2 16q0 2-1 3-4 6-8 12t-9 13q-2 2-4 3t-5 3q-6 3-12 6t-12 6q0 1 1 1t2 3q-2 0-4 1t-2 0q-5 0-10-1t-11-1q-2 0-4 0t-3-4q-1-6 5-8 1 0 1 0t2-1q0-6 0-12t0-12q1-24 1-48t0-48q0-2 1-5 0-3 0-5t-1-6q1 0 2-1t3-1q3 0 7 0t7 2q3 0 6 1t7 2q1 0 2 0t1 1m-43 121q0 2 0 5t1 6q0 1-2 2t-3 1q-4 0-8-1t-8-1q-4-1-7-2t-8-1q-1 0-2-1t-2-1q-2-1-4-2t-3-2q-19-11-28-29t-11-37q0-3 0-5t0-5l87 2q0 16 0 32t-1 33q0 1 0 3t-1 3m320-293h89q2 23 4 46t4 45q1 20 0 35t0 15v161h-97q0-6 0-12t0-11q-1-45-2-90t0-89q0-24 1-49t1-51m-146 188q-1-2-1-4t0-3v-11q-2-25 8-45t24-38q21-26 55-34 8-3 16-3t16-1q8-1 9 2t2 9q0 27-1 54t-1 55q0 16-1 32t-1 32q-1 0 0 4l0 15q-1 9-3 18t-2 19q-8-1-16-3t-14-3q-25-6-42-21t-30-36q-5-10-9-19t-9-19m422-159q-3-2-7-1t-7 0q-7-1-14 0t-15 0q-14 0-29-1t-30-1q0-3 0-6t1-5q0-8 4-15t8-12q8-11 22-14 9-2 17-2t16 2q6 1 11 3t8 7q4 4 8 8t5 11q2 4 5 6 2 2 2 5t-1 6 0 6q0 1-1 2t-3 1m-4 42l-1 81v84q1 22 0 43t1 43h-84l-4-250q3-1 14-1t25 0 28 0 21 0m231 33q0 10-1 20t-2 21q0 9 0 18t0 18q0 10 1 19t1 20q0 10 0 19t-2 18q-1 2 0 3t2 4q0 2 1 4t1 5q0 5-1 10t1 11q0 5-7 6-8 1-15-1t-14-3q-12-4-24-10t-22-13q-18-12-29-29t-17-37q-1-2-1-4t0-3q0-10 0-20t0-20q-1-16 4-30t14-26q27-39 75-54 3-1 5-3t6-1q7-1 13-1t13 0q0 5 0 9t0 8q-1 10-1 21t-1 21m18 40q-7-1-7-8 1-22 2-44t2-44q0 0 0-1t1-1h38q-1 11 0 21t-2 20q-2 9-2 19t-1 19q0 3 0 7t-1 7q-1 9-8 8-5 0-11-1t-11-2m-7 147q0-4 0-9t0-9q0-14 0-27t1-27q0-7 2-9t8-1q7-1 13-1t15 1q0 5 0 9t0 9q0 8 0 16t0 14q0 8-1 15t1 15q1 5-1 7t-6 3q-5 0-10 1t-10 2q-11 1-12-9" />
</svg>