<svg id="fnt-Passion One" viewBox="0 0 2192 1000" xmlns="http://www.w3.org/2000/svg"><path id="passion-one" class="f" d="M129 565h-23v102h-84v-311h102q53 0 79 25t26 80-24 80-76 24m10-67q4-9 4-31t-5-31-20-9h-12v79h14q14 0 19-8m289-8l-3 103q0 10 5 13t16 3l-7 61q-29 2-32 2-37 0-47-26h-3q-18 26-57 26-29 0-45-19t-16-52q0-42 26-58t81-21v-12q0-14-14-14-24 0-75 15l-12-73q64-17 106-17t60 17 17 52m-97 123q19 0 19-19v-25q-19 3-27 8t-7 18q0 18 15 18m121-115q0-36 22-57t62-20 79 10l-9 70q-51-12-68-12-11 0-11 9 0 5 12 10 40 14 60 33t20 55-19 56-58 20-78-10l5-68q50 14 65 14t15-7-11-11q-45-17-65-37t-21-55m171 0q0-36 22-57t62-20 79 10l-9 70q-51-12-68-12-11 0-11 9 0 5 12 10 40 14 60 33t20 55-19 56-58 20-78-10l5-68q50 14 65 14t15-7-11-11q-45-17-65-37t-21-55m269-68v237h-83v-237h83m-76-19q-11-9-11-29t11-30 34-9 35 9 10 29-10 29-35 10-34-9m103 135q0-66 25-95t79-30 79 29 24 95-24 97-78 30-80-30-25-96m120-47q-3-10-16-10t-16 10-4 42v12q0 35 4 46t16 10 16-10 4-43v-15q0-32-4-42m195-54h2q27-24 60-24t46 15 14 46v185h-85v-156q0-13-11-13-14 0-24 7v162h-84v-240h77l5 18m282-56q29-38 95-38t93 37 29 120-29 124-94 40-94-40-28-123 28-120m131 120q0-46-8-63t-29-16-29 16-6 62v12q0 49 7 64t29 15 29-14 7-60v-16m194-64h2q28-24 61-24t46 15 13 46v185h-85v-156q0-13-11-13-14 0-23 7v162h-84v-240h76l5 18m252 48q-13 0-17 8t-4 27h44v-12q0-23-23-23m2-72q52 0 74 25t22 71q0 6-3 54h-114q0 37 34 37 17 0 65-11l7 62q-42 13-84 13-52 0-79-34t-28-92q0-125 106-125" />
</svg>