<svg id="fnt-Passero One" viewBox="0 0 2395 1000" xmlns="http://www.w3.org/2000/svg"><path id="passero-one" class="f" d="M47 672l-4-231 62-10v49l-1 68q9-1 17-3l15-4q8-2 16-4l16-6q11-36 11-89 0-19-2-24-32-11-117-13-22-1-41-1l9-58q116 4 169 17 9 2 20 14 21 21 23 34t2 36-6 56-20 64q-6 13-25 16l-86 15-3 68-55 6m422-40l-11 52q-101-10-158-30-10-4-14-45-3-38 7-65 4-12 9-13 23-6 48-9l51-5-1-35q-26-5-53-8t-52-7l13-54 41 6q57 9 90 21 17 5 17 23l1 134-52 5-2-42-14 3q-23 4-45 10-2 13-2 21 0 13 1 20 34 7 106 16l20 2m48 50l-7-54t53-4q24-1 48-4l2-31-86-34q-7-3-11-11t-4-14 0-6 0-6l6-46q2-20 20-28 10-4 27-8 33-8 47-11l23-5q11-2 19-3l11 56-95 14-4 23 90 42q16 8 14 29l-7 59q-2 19-30 25-31 8-67 13t-49 4m204 0l-7-54t53-4q24-1 48-4l2-31-86-34q-7-3-11-11t-4-14 0-6 1-6l5-46q2-20 20-28 10-4 27-8 33-8 47-11l23-5q11-2 19-3l11 56-95 14-4 23 90 42q16 8 14 29l-7 59q-2 19-30 25-31 8-67 13t-49 4m205-52l-2-126q0-33 7-38t15-10 19-11 21-9 22-9q23-7 35-7t18 1 13 3q13 6 15 17 8 51 8 121v15l-117 1v32q19 4 46 8l42 7q16 3 33 6l-15 53q-67-10-142-34-18-5-18-20m116-101v-5q0-23-4-48-10 0-16 1t-12 2-12 4q-14 5-19 9v44l63-7m122 140l-4-192 0-45 52-5 8 37 38-41h29l12 57t-39 8q-18 4-37 9l-4 167-55 5m224-167v20q0 59 7 102l48-2q13-53 13-102 0-20-3-36-15-7-103-7h-13q-5 0-11 0l10-56q5-1 8-1t7 0l8-1q3 0 20 0 48 0 106 13 18 5 23 16 6 18 6 59 0 75-23 144-2 7-4 11t-9 6-15 2-17 3q-18 1-25 1t-15 0-17-1q-24-1-33-4t-11-10-6-24q-7-37-7-85 0-19 1-37l55-11m341 166q-10-2-16-6t-10-17-10-34-7-44q-5-44-5-76 0-56 3-70t6-22 8-14q10-12 26-18t36-10 42-7q43-5 93-6l9 59q-88 3-140 14-11 3-18 5-3 17-3 47t1 48 2 33q3 39 10 65 4 1 7 1t14 0q23 0 46-6 13-79 13-175l60 4q2 17 2 30t-1 27-2 29-4 30-4 29-4 25l-3 19q-4 20-10 25t-10 8-12 3-16 3-18 2-18 1q-15 1-27 1-29 0-40-3m241 1l-4-236 52-6 9 37 43-37h60q4 0 13 7 13 11 13 20l-8 213-54 5-1-189q-3-1-9-1t-9 1-9 1q-12 2-19 5l-18 6-7 170-52 4m249-39l-2-126q0-33 7-38t15-10 19-11 21-9 22-9q23-7 34-7t19 1 13 3q13 6 15 17 8 51 8 121v15l-117 1v32q19 4 45 8l42 7q16 3 33 6l-14 53q-67-10-143-34-17-5-17-20m116-101v-5q0-23-5-48-9 0-15 1t-12 2-12 4q-14 5-19 9v44l63-7" />
</svg>