<svg id="fnt-Pathway Extreme" viewBox="0 0 4243 1000" xmlns="http://www.w3.org/2000/svg"><path id="pathway-extreme" class="f" d="M43 667v-350h116q56 0 84 26t28 78v23q0 49-29 75t-83 26h-75v-33h64q42 0 60-18t19-53v-18q0-38-19-56t-60-17h-72l10-11v328h-43m462 0l-14-90v-88q0-32-17-46t-56-15q-24 0-48 7t-45 19l-6-33q13-8 32-15t38-10 39-3q54 0 81 24t27 72v178h-31m-101 4q-43 0-68-20t-25-56v-14q0-37 25-57t71-20q47 0 75 19t28 55v16q0 36-29 56t-77 21m12-29q34 0 54-15t21-38v-7q0-24-19-37t-53-12q-32 0-49 11t-17 40v6q0 25 17 39t46 13m287 29q-37 0-55-19t-17-57v-195l13-68h31v258q0 25 9 35t31 10q8 0 15-1t16-4l6 32q-7 3-16 4t-16 3-17 2m-121-241v-33h162v33h-162m421 237v-160q0-41-17-61t-52-19q-42 0-65 29t-22 82l-20 35 1-33q0-71 31-109t91-38q49 0 73 27t24 84v163h-44m-200 0v-370h44v188 182h-44m355 0l-71-270h43l66 242h2l70-242h58l70 242h1l67-242h43l-71 270h-74l-64-221h-2l-65 221h-73m573 0l-14-90v-88q0-32-18-46t-56-15q-24 0-48 7t-44 19l-7-33q14-8 32-15t39-10 38-3q54 0 81 24t27 72v178h-30m-101 4q-44 0-69-20t-24-56v-14q0-37 25-57t70-20q48 0 75 19t28 55v16q0 36-28 56t-77 21m12-29q34 0 54-15t20-38v-7q0-24-19-37t-53-12q-31 0-48 11t-17 40v6q0 25 16 39t47 13m284 120l-47-8 38-98-4 25-110-284h44l86 224h2l81-224h43l-133 365m350-103l-10-27h178v35h-211v-350h209v35h-176l10-28v168l-10-16h166v33h-166l10-17v167m405 8l-207-270h54l207 270h-54m-210 0l115-149 40 12-104 137h-51m148-124l-40-11 103-135h50l-113 146m250 128q-37 0-55-19t-17-57v-195l13-68h31v258q0 25 9 35t31 10q8 0 15-1t16-4l6 32q-7 3-16 4t-16 3-17 2m-121-241v-33h162v33h-162m221 237v-270h30l14 99v171h-44m44-136l-14-13q0-61 24-93t70-32q8 0 17 1t16 3l-2 38q-15-4-33-4-38 0-58 25t-20 75m266 140q-39 0-66-14t-42-39-14-62v-49q0-35 15-61t43-40 68-13q60 0 93 31t32 91v30h-216v-28h181l-7 11v-23q0-37-22-57t-60-20q-40 0-62 20t-21 59v53q0 38 21 57t59 20q35 0 56-14t26-39l42 3q-9 40-42 62t-84 22m598-4v-161q0-40-17-60t-51-19q-42 0-64 29t-21 82l-20 35v-33q0-71 31-109t90-38q49 0 72 27t24 83v164h-44m-394 0v-270h30l13 93v177h-43m197 0v-161q0-40-17-60t-52-19q-41 0-63 29t-22 82l-19 35v-33q0-71 31-109t90-38q49 0 72 27t24 83v164h-44m433 4q-39 0-66-14t-42-39-14-62v-49q0-35 15-61t43-40 68-13q60 0 93 31t32 91v30h-216v-28h181l-7 11v-23q0-37-22-57t-60-20q-40 0-62 20t-21 59v53q0 38 21 57t59 20q35 0 56-14t26-39l42 3q-9 40-42 62t-84 22" />
</svg>