<svg id="fnt-Pathway Gothic One" viewBox="0 0 3016 1000" xmlns="http://www.w3.org/2000/svg"><path id="pathway-gothic-one" class="f" d="M72 667h-40v-350h62q40 0 59 27t19 85v2q0 58-19 85t-59 27h-22v124m0-318v162h22q38 0 38-73v-16q0-73-38-73h-22m187 325q-29 0-42-19t-13-63v-9q0-43 13-63t42-19q26 0 40 20v-52q0-48-30-48-12 0-25 7t-23 22l-14-28q13-15 31-24t35-9q65 0 65 88v190h-24l-8-33q-5 19-17 29t-30 11m8-31q32 0 32-49v-13q0-53-32-53-25 0-25 48v19q0 48 25 48m179 31q-45 0-45-66v-180h-25v-31h26l14-67h23v67h35v31h-35v188q0 12 4 19t10 7q10 0 20-8l8 30q-17 10-35 10m109-7h-38v-370h36v132q11-40 50-40 28 0 40 26t13 81v171h-38v-184q0-63-25-63-38 0-38 107v140m340 0h-39l-36-210-36 210h-38l-50-270h38l33 202 34-202h38l35 201 33-201h37l-49 270m139 7q-29 0-42-19t-13-63v-9q0-43 13-63t42-19q25 0 40 20v-52q0-48-30-48-12 0-25 7t-24 22l-13-28q12-15 30-24t35-9q65 0 65 88v190h-23l-8-33q-5 19-18 29t-29 11m8-31q32 0 32-49v-13q0-53-32-53-25 0-25 48v19q0 48 25 48m143 121q-25 0-48-22l13-26q18 16 32 16 11 0 18-10t10-31l4-23-66-271h39l43 196 37-196h39l-69 311q-6 26-20 41t-32 15m292-90q-34 0-50-27t-16-85v-138q0-60 19-88t59-27q32 0 49 19t20 61l-36 9q-3-30-11-43t-23-13q-20 0-29 17t-8 56v155q0 37 8 54t27 18q39 0 39-68v-61h-41v-32h79v185h-25l-7-32q-14 40-54 40m209 0q-37 0-54-25t-17-80v-75q0-55 17-80t54-25 53 25 17 80v75q0 55-17 80t-53 25m31-98v-89q0-67-31-67-33 0-33 67v89q0 67 33 67 31 0 31-67m143 98q-45 0-45-66v-180h-25v-31h27l13-67h23v67h36v31h-36v188q0 12 4 19t11 7q10 0 20-8l7 30q-16 10-35 10m110-7h-39v-370h37v132q11-40 49-40 28 0 41 26t13 81v171h-39v-184q0-63-24-63-38 0-38 107v140m199 0h-39v-270h39v270m1-323h-41v-47h41v47m120 330q-65 0-65-95v-85q0-54 16-80t50-25q31 0 47 18t20 58l-35 10q-2-55-31-55-16 0-23 15t-6 52v96q0 31 7 45t22 15q16 0 24-14t11-46l32 5q-4 46-20 66t-49 20m258 0q-41 0-60-27t-18-85v-141q0-58 18-85t60-27q41 0 59 27t19 85v141q0 58-19 85t-59 27m0-32q39 0 39-72v-156q0-72-39-72-20 0-29 17t-10 55v156q0 37 10 54t29 18m173 25h-39v-270h24l10 43q10-51 52-51 28 0 41 26t13 81v171h-39v-184q0-63-24-63-38 0-38 107v140m225 7q-37 0-55-25t-17-80v-75q0-54 17-80t55-25q36 0 52 25t17 80v54h-103v28q0 67 32 67 16 0 24-12t12-40l34 6q-4 40-20 59t-48 18m-34-187v29h64v-29q0-67-31-67-33 0-33 67" />
</svg>