<svg id="fnt-Patrick Hand SC" viewBox="0 0 3006 1000" xmlns="http://www.w3.org/2000/svg"><path id="patrick-hand-sc" class="f" d="M29 616q-4-52-4-140t3-113q2-16 22-22t51-5q47 0 79 20t33 60q0 33-9 54t-23 33q-22 17-65 17-18 0-48-5 2 100 2 126t-18 26q-11 0-14-4t-4-6-2-5-1-6-1-7-1-7q0-7 0-16m142-199q0-20-22-32t-47-11-35 4q-2 30-2 54t2 45q14 2 19 3 13 1 22 1t12 0 13-2 13-4 10-8 9-11q6-18 6-39m125 236q-2 13-18 13t-16-13q0-30 29-120 13-42 29-69t31-28q8 0 14 10t22 43 26 71 23 93q0 6-4 10t-11 4q-16 0-20-14l-18-69q-44 0-70-7-15 55-17 76m54-171q-17 28-27 63 22 6 52 6-10-35-25-69m264-15l-33-1-1 119q0 37 1 65 0 7-7 12t-13 5q-13 0-13-14-2-55-2-104t3-81q-30 2-61 2-15 0-15-13 0-6 5-12t13-6l156-5q14 3 14 13 0 20-47 20m119 181v0q0 8-7 13t-15 6q-11 0-11-10-2-24-2-187 0-16 19-25t51-9 57 16 24 39q0 11-9 24t-21 21-30 19-25 12q32 20 56 44t25 37-12 17q-4 1-9 1t-14-11-32-31-47-36q1 40 2 60m-2-104q17 0 50-17t34-30q0-13-15-20t-31-7q-19 0-37 5-1 24-1 69m175 123q-14 0-14-12l2-204q0-7 5-11t12-4 13 3 6 12 0 37q0 133-2 162 0 7-8 12t-14 5m223-188l-40-5q-81 0-81 81 0 41 24 65 12 12 25 12t46-11 35-12q13 0 13 13 0 10-11 18-63 26-91 26-17 0-33-11t-26-28q-20-35-20-74 0-53 32-84t82-31q29 0 58 9v1q9 5 9 12t-8 13-14 6m79 172v-26q0-27-3-84t-5-71-2-19 6-11 14-4 13 9q11 23 11 96 31-26 50-46t38-49q7-11 17-11 19 0 19 13 0 24-65 90 28 25 52 62t24 47-5 14-12 5-17-12-22-33-22-33-27-27q-14 13-29 24 1 58 1 65 0 17-22 17-15 0-14-16m376-296l-2 120q39 7 71 7t42-1q-1-38-1-73t0-47 1-16 6-6 16-3q15 0 15 18v177q0 55-2 121-1 14-25 14-12 0-12-14l2-133q-16 1-44 1t-69-6q0 66 6 138 0 8-7 12t-19 5-12-12q-7-71-7-140l3-156q0-10 8-15t16-4q14 0 14 13m221 298q-2 13-18 13t-16-13q0-30 29-120 13-42 29-69t31-28q8 0 14 10t22 43 26 71 23 93q0 6-4 10t-11 4q-16 0-20-14l-18-69q-44 0-70-7-15 55-17 76m54-171q-17 28-27 63 22 6 52 6-10-35-25-69m168 29l-5 121q-1 16-1 22-2 13-18 13-6 0-11-4t-5-11q4-130 4-140t0-23 3-22q3-14 18-14 7 0 17 10t31 35q47 58 72 110-1-71-4-108t-2-41 0-4q3-19 20-19 7 0 12 6t6 14l2 186q0 26-21 26-12 0-19-9t-10-13-9-16q-39-73-80-119m200 161l-5-18q-6-5-6-11t3-9q-5-39-7-89t-2-58 0-14 3-17q3-19 23-19 51 0 99 46t48 101q0 41-26 62t-69 21q-9 0-24-2 0 8-7 14t-15 6q-13 0-15-13m21-198q-1 5-1 19t3 59 7 79q4 1 31 1 59 0 59-33 0-42-27-75t-72-50m410-138q32 0 55 11t23 28q0 7-4 13t-11 5-31-11-44-11-41 12-21 31q0 24 26 36 19 8 54 15t58 27 23 63q0 64-39 95-21 17-61 17t-78-22q-25-13-25-27 0-5 4-11t12-10 13-1 21 10 20 9q21 8 40 8t35-18 18-45q0-35-35-49-17-7-39-10-44-8-67-27t-22-57 32-60 84-21m264 4q34 0 74 13 9 7 9 15t-8 14-19 7q-27-7-50-7-54 0-82 32t-28 95 33 98q17 19 40 19t75-25q18-9 24-9 13 0 13 14t-12 22q-43 23-67 30t-42 8q-36 0-61-26-46-49-46-134t43-126 104-40" />
</svg>