<svg id="fnt-Pattaya" viewBox="0 0 1608 1000" xmlns="http://www.w3.org/2000/svg"><path id="pattaya" class="f" d="M47 667l68-318 74-10-35 167q23-2 45-22 19-19 31-47 11-26 11-54 0-30-14-48-8-10-20-15t-28-5q-30 0-54 8t-41 24-26 38-8 51q0 16 3 25 1 3 2 6 1 1 1 3-27 0-39-11-14-11-14-37 0-17 7-33t20-31q12-14 29-26t37-22q41-18 82-18 58 0 90 30 14 13 21 31t7 37q0 24-10 48t-28 43q-19 20-46 31t-60 12h-3l-30 143h-72m300 3q-29 0-46-18-21-21-21-63 0-17 4-37t10-38q16-43 43-70 31-30 72-30 20 0 30 7t10 19v3l6-26h72l-36 170q-2 7-2 16 0 21 20 21 14 0 25-14 9-11 16-33h21q-14 38-33 60-16 19-36 27-15 6-32 6-21 0-34-12t-15-34q-14 20-30 31-20 15-44 15m32-49q6 0 12-3t12-8q13-13 18-33l24-113q0-2-2-5t-3-7q-5-7-16-7-10 0-19 7t-18 18q-15 21-24 56-5 15-7 29t-2 27q0 25 9 34 3 3 7 4t9 1m220 49q-24 0-38-15-15-15-15-45 0-14 4-33l30-140h-17l4-20h16l16-69 74-10-17 79h30l-4 20h-30l-32 150q-2 6-2 16 0 10 4 14t16 4q7 0 14-3t13-9q12-12 18-32h21q-13 38-34 60-17 19-38 27-16 6-33 6m134 0q-24 0-38-15-16-15-16-45 0-14 4-33l30-140h-16l4-20h16l15-69 74-10-17 79h30l-4 20h-30l-32 150q-2 6-2 16 0 10 5 14t15 4q8 0 15-3t13-9q12-12 18-32h21q-14 38-34 60-17 19-39 27-15 6-32 6m144 0q-29 0-46-18-21-21-21-63 0-17 4-37t10-38q16-43 43-70 31-30 72-30 20 0 30 7t10 19v3l6-26h72l-36 170q-2 7-2 16 0 21 20 21 14 0 25-14 9-11 16-33h21q-14 38-33 60-16 19-36 27-15 6-32 6-21 0-34-12t-15-34q-14 20-30 31-20 15-44 15m32-49q6 0 12-3t12-8q13-13 18-33l24-113q0-2-1-5t-4-7q-5-7-16-7-10 0-19 7t-18 18q-15 21-24 56-5 15-7 29t-2 27q0 25 9 34 3 3 7 4t9 1m248 171q-11 0-21-3t-18-10q-8-6-12-15t-4-21q0-28 26-49 20-14 55-25l6-27q-14 16-32 22-13 6-28 6-24 0-38-15-15-15-15-45 0-14 4-33l34-160h72l-36 170q-2 6-2 12 0 10 3 15 4 7 12 7 13 0 24-11 9-10 15-30l35-163h72l-49 232q23-8 37-24 16-17 26-48h21q-14 44-41 69-19 17-48 25l-7 36q-10 48-39 69-20 16-52 16m-11-39q8 0 16-11 8-11 13-34l3-14q-23 8-34 17-15 11-15 25 0 7 4 11 5 6 13 6m237-83q-29 0-47-18-20-21-20-63 0-17 3-37t11-38q15-43 43-70 31-30 72-30 20 0 30 7t10 19v3l5-26h73l-36 170q-3 7-3 16 0 21 21 21 14 0 25-14 9-11 15-33h21q-13 38-32 60-16 19-36 27-15 6-32 6-21 0-34-12t-15-34q-14 20-30 31-20 15-44 15m32-49q6 0 12-3t12-8q13-13 18-33l23-113q0-2-1-5t-3-7q-6-7-16-7-10 0-19 7t-18 18q-15 21-24 56-5 15-7 29t-2 27q0 25 9 34 3 3 7 4t9 1" />
</svg>