<svg id="fnt-Patua One" viewBox="0 0 2257 1000" xmlns="http://www.w3.org/2000/svg"><path id="patua-one" class="f" d="M138 547h-22v59q36 8 45 19l-5 42h-135l-5-42q7-8 28-16v-229q-21-7-28-17l5-41h133q69 1 103 25t35 86q0 114-154 114m8-171h-30v116h33q34 0 51-13t17-47-19-45-52-11m180 78q0-8 1-16 46-25 100-25t76 20 24 67v107q17 3 27 8v44q-25 12-73 12-5-13-8-32-22 32-78 32-34 0-58-20t-23-53 22-53 66-19h55v-24q0-39-42-39-15 0-25 3-1 21-6 33h-49q-9-18-9-45m90 166q26 0 41-15v-41h-35q-36 0-36 27 0 13 7 21t23 8m211-266h36v63h72v42h-72v126q0 16 5 23t21 8 37-8l15 39q-39 20-79 20t-55-18-14-50v-140h-22l-6-31q8-9 33-19 6-41 29-55m316 292q-35 25-82 25t-65-20-18-63v-116q-18-6-28-17l5-38q28-7 52-7t41 2v159q0 27 8 36t33 9 45-16v-128q-17-6-27-17l5-38q28-7 52-7t40 2v195q18 3 28 8v40q-30 16-76 16-12-9-13-25m119-192q0-8 1-16 46-25 100-25t76 20 24 67v107q17 3 27 8v44q-25 12-73 12-5-13-8-32-22 32-78 32-34 0-58-20t-23-53 22-53 66-19h55v-24q0-39-42-39-15 0-25 3-1 21-6 33h-49q-9-18-9-45m90 166q26 0 41-15v-41h-35q-36 0-36 27 0 13 7 21t23 8m412 51q-71 0-106-41t-35-133 38-136 111-43 107 39 35 130-39 138-111 46m-48-271q-18 26-18 91t19 94 52 29 52-28 18-92q0-120-72-120-33 0-51 26m226 55l5-38q28-6 50-6t36 1v25q13-11 33-18t40-6q49 0 69 23t20 79v96q19 8 27 17l-5 39h-115l-5-39q7-9 28-17v-99q0-27-9-36t-31-9-45 16v128q19 8 27 17l-5 39h-115l-5-39q7-9 28-17v-139q-18-6-28-17m418 216q-60 0-91-32t-30-93q0-37 11-64t28-41q35-28 82-28t71 23 25 86q0 36-36 36h-108q2 31 16 44t45 13q17 0 33-4t22-8l7-4 15 40q-3 4-9 9t-29 14-52 9m-48-155l79-3q1-7 1-17t-8-21-28-11-30 12-14 40" />
</svg>