<svg id="fnt-Pavanam" viewBox="0 0 1820 1000" xmlns="http://www.w3.org/2000/svg"><path id="pavanam" class="f" d="M129 354h-58v139h63q49 0 78-8 26-8 35-34 5-12 5-29 0-33-18-49-15-13-58-18-19-1-47-1m-59 313h-36v-340h101q83 0 117 21t34 72q0 46-24 69-21 21-78 28-27 3-63 3h-51v147m394 0l-3-27q-40 32-85 32-31 0-50-16t-19-46q0-22 13-40 8-11 35-22 15-6 50-12 6-2 31-5l23-3v-10q0-39-13-54t-43-14q-43 0-67 30 0-1-20-19 29-37 89-37 87 0 87 86v157h-28m-5-51v-67l-23 4q-38 7-54 10-20 6-33 16-11 9-11 26 0 45 44 45 37 0 77-34m171 16l73-203h31l-91 238h-29l-89-238h35l70 203m285 35l-4-27q-40 32-85 32-30 0-50-16t-19-46q0-22 13-40 9-11 35-22 15-6 51-12 6-2 30-5l23-3v-10q0-39-12-54t-44-14q-42 0-66 30 0-1-20-19 29-37 88-37 87 0 87 86v157h-27m-6-51v-67l-23 4q-37 7-53 10-21 6-33 16-12 9-12 26 0 45 44 45 37 0 77-34m126 51h-33v-238h32v8 14 17 6q10-25 35-38 24-12 48-12 27 0 44 11 18 11 24 25 8 18 10 35 1 14 1 18v18 136h-32v-140q0-28-6-47-7-19-24-25-9-4-22-4-34 0-53 19-16 16-22 49-2 16-2 32v116m368 0l-3-27q-40 32-85 32-31 0-50-16t-19-46q0-22 13-40 8-11 35-22 15-6 50-12 6-2 31-5l23-3v-10q0-39-13-54t-43-14q-43 0-67 30 0-1-20-19 29-37 89-37 87 0 87 86v157h-28m-5-51v-67l-23 4q-38 7-54 10-20 6-33 16-11 9-11 26 0 45 44 45 37 0 77-34m125-85v136h-32v-238h31l1 38q25-43 76-43 52 0 66 50 12-24 33-37t47-13q36 0 55 24 15 20 18 54 1 19 1 31v134h-33v-141q0-35-10-56-11-21-37-21-19 0-35 11t-25 31q-8 20-8 38v138h-33v-141q0-39-11-58t-35-19q-20 0-36 11t-24 32-9 39" />
</svg>