<svg id="fnt-Permanent Marker" viewBox="0 0 4695 1000" xmlns="http://www.w3.org/2000/svg"><path id="permanent-marker" class="f" d="M22 529q0-2 2-2t3 0q-4-4-5-10t-4-11q1-3 1-5t4-2q-1-11 1-20t6-18 10-16 11-17q4-1 5 1t4-1q7-5 10-12t3-14q5-13 10-25t13-23 16-19 18-13q7-5 17-10t23-8 24-3 24 3q2 1 3-1t2-3q25 3 44 10t33 19q9 15 17 32t13 35 4 38-8 39q-17 21-41 34t-53 22-58 14-58 11q0 14 0 28t-3 30-8 29-14 27q-10-1-20 2t-19 4q-4-2-8-4t-9-3q2-6-3-12t-8-13-5-12 5-11q-3-3-3-10 1 1 4 1-1-8 3-20t5-25 1-22-12-14m127-114q-2 5-3 9t-3 8-3 7-4 7q1 3 4 5t4 4q7-3 14-5t13-3 14-2 14-5 16-6 15-4 16-6 12-8q-7-7-20-12t-30-6-31 3-28 14m443-23q1 3 1 5t-1 3 0 3 1 5q-10 17-24 23t-29 9-32 5-32 13q-7-2-12 0t-15 2q-3 3-7 4t-9 2q2 5 2 9t1 8q17 2 38 0t41-3q0 3-1 3t0 3q3 2 7 6t6 7 7 6 9 1q2 4 3 9t-2 10q-7 5-15 11t-17 10-18 7-21 2q-2 0-4 0t-3-2q-4 3-11 2t-11 1q-5-2-13-2t-13-2q-8 11-14 22t-11 25q16 3 27 2t21-1 20-3 26-1q10-5 23-7t25-5q4 1 7 5t5 7 6 5 7 2q2 2 3 5t1 5 2 4 4 1q-7 16-17 25t-22 13-27 7-33 6q-4 1-7-1t-7-1q-11 3-27 5t-32 1-30-4-24-13q-4-4-5-8t-7-7q0-7-2-14t-3-17-2-17 1-15q1-7 6-13t3-13q2 0 3-2t4-2q3-9 6-17t7-15 8-15 7-16q-7-7-10-14t-5-16-2-15-4-17q5-7 12-11t15-8 19-5 20-4q20-7 35-10t30-6 31-4 37-6q4 5 8 5 2-5 5-3t2-3q5 9 12 14t17 10m62 224q-5 19-9 29t-13 21q-6-1-8 2t-6 4q-4 1-6 0t-4-2-3-3-7-1q-1-4-2-7t-7-3q1-4 1-6t-1-5-2-4 1-6q-3 0-4-4t-3-6q1-9 2-17t4-15 4-13-2-14q2 1 3-1t2-6 0-7 0-6q5-13 8-27t6-26 5-26 8-23q5-1 12 1t8 5q13-9 23-23t20-27 22-24 32-12q10 7 22 15t19 20q4 2 7 4t6 4v6q6 6 10 13t7 15 5 16 7 15q-1 3-1 4t1 4 1 4 0 5q-1 22-14 35t-30 22-37 14-36 13q0 2 1 2t2 2q11 8 18 12t13 7 13 5 20 6 20 4 13 3 12 2 17 2q4 4 8 10t4 13 0 11-3 9q0 2 2 1t4 1q-3 2-5 5t-4 5-5 6-6 2q-16 6-38 1t-59-19q-17-7-28-12t-19-10-15-11-16-14m70-168q-5 8-12 15t-13 12-11 15-6 19q17-2 35-10t35-14q-2-15-10-24t-18-13m460 210q-5 2-9 4t-9 2q-20-14-20-49t15-89q2-2 2-6l-4-5q-2 0-4 0t-3 4q-12 9-27 19t-32 19-33 13-33 6q-41 0-62-42l-4-7-3 6q-2 2-5 8t-6 14-5 16-2 14q-4 5-9 10t-7 14q-1 3 1 7-1 4-5 7-2 2-4 4t-3 5q-1 2-2 5t0 5q0 3-1 6-9 17-14 22t-13 5q-4 0-12-1-7-7-12-19t-8-25-2-28 5-24q0-1 3-10t10-24 14-32 16-35 15-31 12-22q4-5 7-11t6-10q9-15 17-25t24-16q10 5 15 11l1 5q2 5 6 5 5 1 9 3t8 2q4 4 6 9 4 6 8 12t6 11 2 11-2 13l1 4q2 5 1 13-1 3-1 7t1 8q9 7 16 7 8 0 14-4t13-8q3-3 7-5t8-2q9-9 16-15t15-13q15-12 28-25t22-34q5-3 10-3t12 2 11 5q1 1 3 1t2 1q0 5 4 9 2 1 2 2t2 1q7 4 9 7 3 12 12 18-1 4 0 9t4 8q0 2 1 3t1 4l-9-1 1 9q1 7-1 15t-5 13q0 13 1 20t-1 13-3 12-5 11q2 32-7 57t-18 48q-1 3-3 5t-2 5q-4 1-8 3t-7 4m329-34l-1 2q-3 8-9 16t-13 16-17 11-19 4q-7-1-9-3t-5-3q-1-1-2-2t-2-1l-6-2 2-7q1-3-1-6t-6-6q-1-1-3-3t-2-3l-8-9 13-3q12-4 16-9t3-18q-9-2-16-1t-13 4q-9 2-18 4t-20 2q-4 0-7-1t-8 0l-5-1q-1-6-2-6t-1-2q-3-3-6-7t-1-10q-2-5-3-9-3 6-4 12l-2 5-5 1q-1 1-1 2t-1 3l-2 8q-1 1-2 2t-2 2q-1 4-3 8t-3 9q-2 6-4 12t-1 12l-2 5q-2 3-5 5t-6 3q-1 1-3 2t-3 1l-1 6-6 1q-5 1-7 1t-6 1l-4-1q-6-4-9-7t-7-5q-4-6-5-9t0-5q-1-3-2-5t-1-3l-6-6 5-4 1-9q9-25 20-48t23-46q4-8 8-16t7-16q0-1 0-3t1-4q5-9 8-15t7-14q4-8 8-16t11-16l8-3q1-1 3-2t4 0l8 1q13-7 24-18t21-28l5-7 6 4q2 2 7 3t9 3q9 2 17 4t12 7q3 8 4 12t1 8q2 8 3 16t2 19q2 8 4 16t3 17q2 11 5 22t6 21q4 0 5 1 3-1 5-2t6-1l6 0 2 5q0 2 5 5 6 0 9 2t5 5q2 2 4 3l7 3-4 7q-4 9-13 17t-21 13q1 3 1 6t1 6q2 8 3 17t0 18m-142-83q14-1 26-2t27-4q-4-15-7-31t-9-31l-3 5q-9 10-19 23t-15 24q-3 4-6 8t-5 9q3 0 5 0t6-1m273 37q-4 1-6 5t-4 8-3 9-6 3q0 4-2 7t-4 6-3 7 1 8q-4 3-5 9t-2 10-5 8-10 3q-2 2-1 3t2 3q-6-1-8 1t-7 2q-9-3-15-10t-11-17-8-18-7-16q1-5 0-10t-3-9q24-51 52-108t54-114q11 4 22 10t20 13 15 17 8 21q0 3-2 2t-2 1q2 2 2 3t0 2 0 3 2 4q-2 0-3 1t-3 0q2 5 1 9t-2 6-3 6 1 8q-2 0-2 1t-2 1-1 1-2 1q1 10 1 21t-1 22 0 23 4 25q17-11 28-27t17-36 10-43 7-47q5-4 7-11t5-13 3-14 5-13q8 1 13 5t9 7 10 8 12 5q6 8 11 16t6 17q-3 3-4 8t-2 10-4 9-7 7q-2 13-4 23t-4 21-4 21-1 25q-4 11-8 23t-7 23q-8 7-12 16t-10 17q-1 2-2 1t-3-1q0 2 0 3t-2 1-1 2 1 4q-7 3-12 9t-12 9-14 6-22-3q-20-15-36-34t-25-45m455-186q0 3 0 5t-1 3 0 3 1 5q-10 17-24 23t-29 9-32 5-32 13q-6-2-12 0t-14 2q-3 3-8 4t-9 2q2 5 2 9t1 8q17 2 38 0t41-3q0 3 0 3t-1 3q3 2 7 6t7 7 7 6 8 1q2 4 3 9t-1 10q-8 5-16 11t-16 10-18 7-22 2q-2 0-3 0t-3-2q-4 3-11 2t-11 1q-6-2-13-2t-14-2q-7 11-14 22t-11 25q17 3 28 2t20-1 20-3 26-1q10-5 23-7t25-5q4 1 7 5t5 7 6 5 7 2q2 2 3 5t1 5 2 4 4 1q-7 16-17 25t-21 13-28 7-32 6q-5 1-8-1t-7-1q-11 3-26 5t-32 1-31-4-24-13q-4-4-5-8t-7-7q0-7-2-14t-3-17-2-17 1-15q1-7 6-13t3-13q3 0 3-2t4-2q3-9 6-17t8-15 7-15 7-16q-7-7-10-14t-5-16-2-15-4-17q5-7 12-11t16-8 18-5 20-4q20-7 35-10t31-6 31-4 36-6q5 5 9 5 1-5 4-3t2-3q5 9 13 14t17 10m88 186q-4 1-6 5t-4 8-3 9-6 3q0 4-2 7t-4 6-3 7 1 8q-4 3-5 9t-2 10-5 8-10 3q-2 2-1 3t2 3q-6-1-8 1t-7 2q-9-3-15-10t-11-17-8-18-7-16q1-5 0-10t-3-9q24-51 52-108t54-114q11 4 22 10t20 13 15 17 8 21q-1 3-2 2t-2 1q2 2 2 3t0 2 0 3 1 4q-1 0-2 1t-3 0q2 5 1 9t-2 6-3 6 1 8q-2 0-2 1t-2 1-1 1-2 1q1 10 1 21t-1 22 0 23 4 25q17-11 28-27t17-36 10-43 7-47q5-4 7-11t5-13 3-14 5-13q8 1 13 5t9 7 10 8 12 5q6 8 10 16t7 17q-3 3-4 8t-3 10-3 9-7 7q-2 13-4 23t-4 21-4 21-1 25q-4 11-8 23t-7 23q-8 7-12 16t-10 17q-2 2-2 1t-3-1q0 2 0 3t-2 1-1 2 1 4q-7 3-12 9t-12 9-14 6-22-3q-20-15-36-34t-25-45m460-146q-12 0-26 1t-28 4q-10 2-19 3t-16 1q-4 11-7 19t-8 16q-3 9-7 17t-6 18q-5 8-8 15t-5 15q-6 7-9 15t-4 14l-2 6q-3 3-3 4t-3 4q0 5-3 10-1 3-2 5t0 3q0 5-3 7 1 2 0 5t-1 5q-1 6-1 9 2 2 3 3t2 4q3 2 4 3 2 1 6 3l4 5q3 14-4 23-7 9-25 9h-6q-2-3-3-4-4-1-6-2t-4-4q-7-3-11-5l-4-3q0-5 0-6-4-4-5-9t-3-11q-1-4-2-8t-3-7q-1-29 5-48t13-38q4-9 8-19t7-21l4-5q4-8 6-13t5-10q1-4 2-7t2-6q-2 0-5 1t-5 0q-3 1-5 1t-5 0q-3 0-5 0-5 2-12 2h-5q-1 0-2 0t-2 0q-5 0-8 1-6 0-11 0h-5q-1 0-3 0t-2 1q-4 0-8-1t-8-3q-6-8-8-9l-4-5q-1-3-2-6t-1-6q-2-5-4-11t-2-13q1-4 2-6t3-3l1-8 6 1h14q16 0 32-1t33-3q10-1 20-2t20-2q2-4 4-8l5-3q9 0 13 2t6 6q11-1 22-3t22-3q16-2 33-4t33-2q7 0 13 0t12 2l4 3q2 3 5 6t5 5q6 5 12 12t4 22q-4 6-5 7l-5 5-5 0q-3 0-5 1t-5 1q-2 1-4 2t-4 1q-5 0-7 0t-6 0m191 241q-5 0-15-1-8-8-14-23t-9-30-3-33 5-29q0-1 5-12t12-28 16-39 19-42 18-37 15-26q4-7 8-13t7-12q5-9 10-17t10-13 13-11 16-8q6 2 10 5t8 7l2 7q1 3 3 4t4 1q6 2 11 4t10 2q1 3 3 6t4 5q10 14 16 27t0 29l0 6q3 3 3 6t-1 8q-1 4-1 9t1 10l4 4q8 4 15 4 10 0 18-5t14-9q6-4 10-6t9-3q10-10 19-18t18-15q17-14 34-31t26-40q6-4 13-4t13 3 14 6q1 1 3 1t2 2q0 5 5 10 2 2 3 2t2 1q4 3 7 4t4 6q4 13 14 20 0 6 1 11t3 10q1 2 2 4t1 4l-10-1 1 10q2 9-1 19t-6 16q1 15 1 23t-1 16-3 14-6 14q2 37-9 68t-22 57q-2 4-3 7t-3 6q-5 1-9 3t-9 4q-5 4-10 6t-12 2q-23-17-24-59t18-107q3-2 3-7v-5l-5-1q-2 0-4 1t-3 4q-16 11-34 23t-38 22-40 17-39 6q-49 0-74-49l-4-9-5 8q-2 2-5 9t-8 16-6 19-2 18q-6 5-11 12t-8 15q-1 3-1 5t2 5q-1 3-2 5t-4 2q-2 3-5 6t-4 6q-1 3-1 6t-1 5q0 6-2 8-5 10-8 17t-7 10-8 4-8 1m702-49l-1 2q-3 8-8 16t-14 16-17 11-19 4q-6-1-9-3t-4-3q-2-1-3-2t-2-1l-6-2 2-7q1-3-1-6t-5-6q-2-1-3-3t-3-3l-8-9 13-3q12-4 17-9t3-18q-10-2-17-1t-13 4q-9 2-18 4t-20 2q-4 0-7-1t-7 0l-5-1q-1-6-2-6t-2-2q-3-3-5-7t-1-10q-3-5-3-9-3 6-5 12l-2 5-5 1q-1 1-1 2t-1 3l-2 8q-1 1-2 2t-2 2q-1 4-2 8t-3 9q-3 6-4 12t-2 12l-2 5q-2 3-5 5t-6 3q-1 1-3 2t-2 1l-2 6-6 1q-5 1-7 1t-5 1l-5-1q-6-4-8-7t-7-5q-5-6-5-9t-1-5q-1-3-1-5t-2-3l-6-6 5-4 1-9q10-25 21-48t22-46q4-8 8-16t8-16q-1-1-1-3t1-4q5-9 9-15t7-14q4-8 8-16t10-16l8-3q1-1 3-2t5 0l7 1q14-7 24-18t21-28l5-7 6 4q3 2 7 3t9 3q9 2 17 4t13 7q3 8 3 12t2 8q1 8 2 16t2 19q2 8 4 16t3 17q3 11 5 22t7 21q3 0 4 1 3-1 6-2t6-1l5 0 2 5q0 2 5 5 6 0 9 2t6 5q1 2 3 3l8 3-4 7q-5 9-14 17t-20 13q0 3 0 6t2 6q1 8 2 17t0 18m-142-83q15-1 27-2t26-4q-3-15-7-31t-8-31l-3 5q-10 10-19 23t-16 24q-2 4-5 8t-6 9q3 0 6 0t5-1m252 75q-5 19-10 29t-12 21q-6-1-9 2t-5 4q-5 1-7 0t-3-2-4-3-6-1q-1-4-2-7t-7-3q1-4 0-6t-1-5-1-4 0-6q-2 0-3-4t-4-6q2-9 3-17t4-15 3-13-1-14q2 1 3-1t1-6 1-7-1-6q5-13 8-27t6-26 6-26 8-23q5-1 12 1t8 5q12-9 22-23t20-27 23-24 31-12q10 7 22 15t20 20q4 2 6 4t7 4v6q6 6 10 13t6 15 6 16 7 15q-1 3-1 4t1 4 1 4 0 5q-2 22-14 35t-30 22-38 14-36 13q0 2 2 2t1 2q12 8 19 12t13 7 13 5 20 6 19 4 13 3 12 2 18 2q4 4 7 10t4 13 1 11-4 9q1 2 3 1t3 1q-3 2-5 5t-4 5-4 6-7 2q-15 6-38 1t-58-19q-18-7-29-12t-19-10-14-11-16-14m70-168q-6 8-12 15t-13 12-11 15-7 19q17-2 36-10t35-14q-2-15-10-24t-18-13m416 201q-23 1-41-1t-35-9q-1-1-2-3t-2-3q-3-1-7-1t-7-1q-4-1-12-7t-15-11q-9-6-17-13t-14-15q-1-2-4-2t-4-1q-14 8-24 22t-18 27-19 25-25 19q-4 0-8-2t-6-3-6-4-6-3q0-6-2-11t-5-9-3-9 2-8q-3-3-9-6 3-3 3-6t-1-4-2-6 1-6q3 0 6-1-3-4-3-4t-1-3q-1-2 1-3t4-2q2-24 8-44t14-40 16-38 12-42q6-6 9-13t7-15 8-14 13-12q7 1 12 4t13 3q2 2 3 5t3 4l7-1q6 4 10 11t6 14-1 14-9 10q0 3 0 4t-1 2 0 2 1 3q-9 7-14 21t-6 23q6-6 13-11t15-11 15-11 12-9q17-15 31-24t32-20q4-1 6-1t5 2q0-3-2-3t-1-4q7-2 12-5t12-5q5 4 9 9t10 6q3 5 6 8t7 5 6 6 3 10q-2 4-4 8t-4 9q-10 9-20 16t-20 13-21 12-22 16q-3 3-6 6t-8 5-7 6-5 7q-2 0-3 0t-3 1q-2 3-5 5t-4 5q7 16 19 24t26 12 32 4 36 0q2 0 1-2t3-1q11 4 18 11t15 14q-1 18-11 31t-28 19m301-257q1 3 0 5t0 3 0 3 1 5q-11 17-24 23t-29 9-32 5-33 13q-6-2-11 0t-15 2q-3 3-7 4t-9 2q2 5 2 9t1 8q17 2 38 0t40-3q1 3 0 3t-1 3q4 2 7 6t7 7 7 6 9 1q2 4 2 9t-1 10q-8 5-15 11t-17 10-18 7-21 2q-3 0-4 0t-3-2q-4 3-11 2t-11 1q-5-2-13-2t-13-2q-8 11-14 22t-12 25q17 3 28 2t21-1 20-3 26-1q9-5 23-7t24-5q4 1 7 5t6 7 5 5 8 2q2 2 2 5t2 5 1 4 5 1q-8 16-17 25t-22 13-27 7-33 6q-4 1-7-1t-7-1q-11 3-27 5t-32 1-31-4-24-13q-3-4-5-8t-6-7q-1-7-2-14t-3-17-2-17 0-15q2-7 7-13t3-13q2 0 3-2t4-2q2-9 6-17t7-15 7-15 7-16q-6-7-10-14t-4-16-3-15-3-17q5-7 12-11t15-8 18-5 21-4q19-7 35-10t30-6 31-4 37-6q4 5 8 5 2-5 5-3t2-3q5 9 12 14t17 10m62 224q-5 19-9 29t-13 21q-6-1-9 2t-5 4q-5 1-6 0t-4-2-4-3-6-1q-1-4-2-7t-7-3q1-4 1-6t-2-5-1-4 1-6q-3 0-4-4t-4-6q2-9 3-17t4-15 4-13-2-14q2 1 3-1t1-6 1-7-1-6q5-13 9-27t5-26 6-26 8-23q5-1 12 1t8 5q13-9 22-23t20-27 23-24 32-12q9 7 21 15t20 20q4 2 7 4t6 4v6q6 6 10 13t6 15 6 16 7 15q-1 3-1 4t1 4 1 4 0 5q-1 22-14 35t-30 22-38 14-36 13q0 2 2 2t1 2q12 8 19 12t13 7 13 5 20 6 19 4 13 3 12 2 18 2q4 4 7 10t4 13 1 11-3 9q0 2 2 1t3 1q-3 2-5 5t-3 5-5 6-7 2q-15 6-38 1t-58-19q-17-7-28-12t-19-10-15-11-16-14m70-168q-6 8-12 15t-13 12-11 15-7 19q17-2 36-10t35-14q-2-15-10-24t-18-13" />
</svg>