<svg id="fnt-Petemoss" viewBox="0 0 1092 1000" xmlns="http://www.w3.org/2000/svg"><path id="petemoss" class="f" d="M25 692q-27 0-27-14 0-19 29-19l45 5q41-31 67-89-6-7-6-17 0-9 4-9 1 1 3 4t7 9q45-102 69-102 11 0 11 16 0 9-5 9-5 0-4-11l-1-1h-1q-8 0-31 44-8 15-14 28t-10 24q17 3 29 3 38 0 72-20 39-24 39-59 0-33-40-51-30-14-68-14-64 0-107 30-10 7-22 23-12 17-12 28t9 18 22 7q17 0 31-11t21-27q2-7 6-7 5 0 5 6 0 21-24 38-17 13-40 13-45 0-45-39 0-35 37-61 46-31 117-31 47 0 83 18 47 23 47 64 0 43-46 68-38 20-85 20-18 0-34-4-25 51-62 84 4 0 11-2 4 0 6-1t5 0q4 0 4 4 0 5-19 8-6 1-12 1t-10 1q-24 16-54 16m2-11q13 0 28-8-7-1-13-1t-11-1q-16 0-16 5 0 5 12 5m290-9h-4q-27 0-27-35v-2q0-48 41-95 19-22 33-22 4 0 6 2 0-14 10-14 7 0 7 27 0 66-33 66-20 0-35-14-15 31-15 57 0 20 13 20 6 0 15-7t17-15 14-16 6-6q2 0 2 3 0 6-5 14t-14 16-17 14-14 7m29-83q10 0 16-16 5-12 5-25v-8q0-6-1-8t0-1q-30 11-46 45 17 13 26 13m60 81q-17 0-17-20 0-11 4-27t14-38l27-65q-2 0-5 0t-6 0l-11-1q-6 0-6-6 0-3 9-4l11-1q5-1 8-1t7-1q5-13 14-33t23-46q18-29 34-29 4 0 4 3t-25 48q-13 24-21 38t-9 20q37 0 37 6 0 7-44 7-51 120-51 133 0 8 6 8 5 0 18-12 12-11 14-11 3 0 3 5 0 5-7 11t-16 11-15 5m96 2h-4q-27 0-27-35v-2q0-48 41-95 20-22 34-22 4 0 6 2-1-14 10-14 7 0 7 27 0 66-34 66-20 0-34-14-16 31-16 57 0 20 14 20 6 0 14-7t18-15 14-16 6-6q2 0 2 3 0 6-6 14t-14 16-16 14-15 7m29-83q10 0 16-16 5-12 5-25v-8q0-6 0-8t0-1q-30 11-46 45 17 13 25 13m181 84q-5 0-11-5t-6-9q0-4 4-13l27-58q20-42 20-51 0-5-3-5-9 0-56 65-12 17-21 33t-14 32q-2 6-11 6-8 0-8-8 0-11 25-60 24-48 24-62 0-6-3-6-10 0-52 54-14 18-25 34t-17 33q-9 20-23 20-4 0-4-5 0-1 28-63 15-32 23-51t10-22q3-6 9-14t12-7q3 0 3 4 0 12-38 87 62-90 87-90 9 0 9 13 0 25-31 82 65-94 88-94 10 0 10 13 0 18-26 69-26 51-26 61 0 6 4 6 5 0 16-11 11-10 11-10 1 0 1 1 0 6-6 13t-15 13-15 5m73 2q-22 0-22-26 0-38 28-93 23-46 42-46 4 0 9 3l6 3 1-2q0-4 4-11 3-1 5-1 12 0 12 24 0 2 0 6t0 9-1 8 0 7q0 7 10 7 2 0 7-2t7-1q4 0 4 3 0 8-17 8-11 0-15-4-9 34-28 66-25 42-52 42m3-12q26 0 54-58 13-27 14-41-9-5-11-22-2-14-6-14-13 0-32 37-28 53-28 84 0 14 9 14m95 17q-24 0-24-15 0-10 13-19 9-5 23-8 9-2 17-3t13-4l16-5q1-2 1-3t0-3q0-12-13-33-14-22-14-32 0-12 8-22t20-16 24-6q20 0 20 13 0 17-10 17-4 0-5-8 0-8-5-8-5 0-12 5t-12 12-5 14q0 5 9 23 9 19 9 28 0 1-1 2t0 5q-1 2-1 4t0 3q1-2 5-4t9-5 6-2q1 0 1 0 0 3-4 7t-10 7-9 5v1q-1 5-5 12t-10 13-11 10q-19 15-43 15m0-9q10 0 21-5t20-12 13-16q-10 3-18 6t-16 6q-25 10-25 18 0 3 5 3m104 9q-24 0-24-15 0-10 13-19 9-5 23-8 9-2 17-3t13-4l16-5q1-2 1-3t0-3q0-12-13-33-14-22-14-32 0-12 8-22t20-16 24-6q20 0 20 13 0 17-10 17-4 0-5-8 0-8-5-8-5 0-12 5t-12 12-5 14q0 5 9 23 9 19 9 28 0 1-1 2t0 5q-1 2-1 4t0 3q1-2 5-4t9-5 6-2q1 0 1 0 0 3-4 7t-10 7-9 5v1q-1 5-5 12t-10 13-11 10q-19 15-43 15m0-9q10 0 21-5t20-12 13-16q-10 3-18 6t-16 6q-25 10-25 18 0 3 5 3" />
</svg>