<svg id="fnt-Petrona" viewBox="0 0 1674 1000" xmlns="http://www.w3.org/2000/svg"><path id="petrona" class="f" d="M140 667h-106q0-8 2-13t6-5l34-9-8 8v-282l7 8-40-9q0-7 1-12t7-7h128q34 0 56 12t35 32 11 44q0 27-14 50t-42 39-64 15q-12 0-26-2t-26-5h9v119l-10-11 49 9q0 8-2 12t-7 7m-30-299v148l-8-8q7 3 22 5t29 2q25 0 42-11t24-27 9-37q0-34-20-53t-53-19q-15 0-29 2t-23 5l7-7m290 305q-30 0-53-14t-35-38-13-57q0-36 15-65t41-46 56-17q26 0 45 11t30 33 11 49q0 9-3 12t-8 4h-158v-16l136-3-5 5q1-24-6-41t-19-28-29-9q-27 0-45 25t-17 72q0 30 8 52t26 35 41 13q20 0 39-11t33-28l6 12q-10 15-26 26t-33 18-37 6m211 0q-24 0-36-15t-11-46v-214q4-4 11-7t14-6 15-3v224q0 20 6 28t20 9q12 0 25-5t26-16l7 13q-5 7-17 16t-27 15-33 7m56-204l-137-3q0-7 1-13t6-8l140-5q1 2 1 4t1 5q0 8-3 13t-9 7m140 198h-99q0-15 8-18l29-10-6 9v-186l6 8-29-6q-4-1-6-5t-2-12q20-3 29-5t16-1q12 0 18 7t6 22v21l-3-3h5q14-23 33-38t38-14q19 0 27 8t8 21q0 9-6 16t-14 7q-7-13-15-17t-16-5q-14 0-30 13t-28 30l4-10v148l-7-9 43 10q0 7-2 11t-7 8m193 6q-47 0-74-29t-27-78q0-37 16-67t43-46 63-17q31 0 54 13t35 37 12 57q0 38-15 67t-44 46-63 17m9-17q34 0 52-27t18-76-17-74-49-26q-34 0-52 26t-19 77q0 48 17 74t50 26m247 11h-91q0-16 8-18l29-10-6 9v-186l6 8-29-6q-8-1-8-17 19-3 29-5t16-1q13 0 19 7t5 21v18l-3-1h6q20-23 45-37t51-13q58 0 58 80v129l-6-6 37 9q0 8-2 11t-6 8h-91q0-16 8-18l25-8-5 9v-133q0-53-40-53-15 0-30 6t-27 15-21 22l4-10v150l-6-7 34 8q0 8-2 11t-7 8m258 6q-23 0-39-14t-15-37q0-28 18-46t55-27l65-15-6 6v-38q0-26-9-39t-28-12q-23 0-36 14t-12 40q-3 2-7 4t-9 1q-9 0-14-5t-5-13q0-17 12-29t31-20 46-7q37 0 54 18t17 59v118q0 8 4 13t10 4q5 0 12-3t11-6l4 13q-8 10-21 15t-24 6q-16 0-25-11t-9-29h-2q-14 19-34 29t-44 11m19-24q18 0 35-9t27-25l-3 9v-75l7 1-57 13q-22 5-33 17t-11 31q0 18 9 28t26 10" />
</svg>