<svg id="fnt-Phudu" viewBox="0 0 1390 1000" xmlns="http://www.w3.org/2000/svg"><path id="phudu" class="f" d="M75 667h-44v-350h112q32 0 56 11t39 37 15 64-15 65-40 39-55 14h-68v120m0-310v151h64q19 0 35-9t24-25 10-42q0-24-10-41t-24-26-35-8h-64m413 115v-155h45v350h-45v-155h-152v155h-44v-350h44v155h152m334 80v-235h-45v231q0 27-9 45t-25 27-37 10-38-10-26-27-9-45v-231h-44v235q0 35 10 58t28 37 38 19 41 6 40-6 37-19 28-37 11-58m145-235h-89v350h89q42 0 75-19t53-58 19-98q0-61-19-99t-53-58-75-18m-1 309h-44v-268h44q46 0 75 34t28 100q0 63-28 98t-75 36m423-74v-235h-45v231q0 27-9 45t-25 27-37 10-38-10-26-27-9-45v-231h-44v235q0 35 10 58t28 37 38 19 41 6 40-6 37-19 28-37 11-58" />
</svg>