<svg id="fnt-Piazzolla" viewBox="0 0 2056 1000" xmlns="http://www.w3.org/2000/svg"><path id="piazzolla" class="f" d="M24 339h173q33 0 56 11t35 32 13 51q0 31-15 55t-41 36-62 14h-82v-28h115q22-15 32-33t11-41q0-34-19-51t-53-18h-65v275l69 10v15h-167v-14q9-4 22-7t32-4l5-277-59-11v-15m437 328h-113v-12q7-4 16-7t19-4l4-173-26-32q15-9 30-14t33-7v227l37 9v13m-50-356q8 8 13 17t8 20q-7 8-17 14t-20 7q-8-7-14-17t-7-20q7-8 16-13t21-8m274 359q-16 0-30-12t-18-34l6-152q-33-26-82-26-9 0-19 1t-18 4l22-12-9 72q-17-3-25-12t-9-21q0-16 12-30t32-22 44-8q26 0 49 11t40 30v173l49-2q-2 13-9 22t-16 13-19 5m-112 2q-35-1-56-19t-20-47q0-14 6-25t23-20 47-18 78-20v24l-119 23 13-7q-3 8-4 16t-1 16q0 21 9 32t31 11q15 0 31-6t35-19v9q-15 15-33 28t-40 22m389-5h-206v-11l151-209-113 1-14 56h-13l-2-81h194v11l-151 209 125-1 14-59h13l2 84m254 0h-205v-11l151-209-114 1-13 56h-14l-1-81h194v11l-151 209 125-1 13-59h13l2 84m157 4q-32 0-56-15t-36-43-13-64q0-39 14-69t39-45 58-17q32 0 56 16t38 43 13 64q0 39-14 68t-40 46-59 16m3-26q21 0 37-12t24-35 9-54q0-31-9-53t-24-33-38-11q-13 0-29 5t-35 15l22-17q-12 23-19 46t-6 50q0 31 8 53t24 34 36 12m263 22h-114v-12q7-3 15-6t20-5l6-295-27-35q14-8 29-13t33-8v352l38 9v13m143 0h-114v-12q7-3 15-6t20-5l6-295-27-35q14-8 29-13t33-8v352l38 9v13m228 3q-16 0-29-12t-18-34l6-152q-34-26-82-26-10 0-19 1t-18 4l22-12-9 72q-17-3-26-12t-8-21q0-16 11-30t32-22 44-8q27 0 49 11t40 30v173l50-2q-3 13-10 22t-16 13-19 5m-112 2q-34-1-55-19t-21-47q0-14 7-25t23-20 47-18 78-20v24l-120 23 13-7q-2 8-4 16t-1 16q0 21 10 32t30 11q15 0 32-6t35-19v9q-16 15-33 28t-41 22" />
</svg>