<svg id="fnt-Pirata One" viewBox="0 0 1717 1000" xmlns="http://www.w3.org/2000/svg"><path id="pirata-one" class="f" d="M85 316q55-33 63-33t25 20 18 37v156q0 3-40 19t-66 24v51q0 18 4 26t17 8v16l-103 43-8-16q11 0 21-13 9-13 9-38v-259q0-31-20-35v-11l50-28q10 4 20 14t10 19m20 15q-9 0-20 7v178q13 0 29-9t16-17v-122q0-37-25-37m191 85v177q0 30 20 34v11l-50 29q-11-5-21-15t-9-19v-177q0-31-21-35v-11l51-28q11 4 20 14t10 20m-68-97v-30q0-2 21-10t24-7 9 8 7 18v36q0 2-20 9t-25 8-10-9-6-23m93 104v-11l55-30q4 1 8 2t13 10 9 18q2-1 23-16t28-14q16 0 30 21t14 38v25l-52 29-8-7q0-42-8-48-9-7-27-7v160q0 30 20 34v11l-50 29q-11-5-21-15t-9-19v-166q0-22-8-33t-17-11m340 25v141q0 19 6 26t18 10v11l-54 31q-11-5-21-15t-9-19l-63 34q-1-1-4-3t-11-8-12-12q-15-16-15-37v-82q0-8 26-21t52-20l26-9q0-28-15-40t-58-11v-15q78-27 87-27 17 0 32 21t15 45m-105 141q0 13 7 21t18 8 20-7v-113q-13 4-19 7t-13 10q-13 12-13 41v33m201-259h14v59h25l-5 25h-20v179q0 30 20 34v11l-50 29q-11-5-21-15t-9-19v-219h-21l5-21q15 0 36-20t26-43m219 118v141q0 19 6 26t18 10v11l-54 31q-11-5-21-15t-9-19l-63 34q-1-1-4-3t-11-8-12-12q-15-16-15-37v-82q0-8 26-21t52-20l26-9q0-28-15-40t-58-11v-15q78-27 87-27 17 0 32 21t15 45m-105 141q0 13 7 21t18 8 20-7v-113q-13 4-19 7t-13 10q-13 12-13 41v33m250 5v-266q0-4 57-25t65-21 26 20 17 37v281q0 4-55 25t-67 22-28-22-15-51m85 27q10 0 20-8v-248q0-37-26-37-10 0-19 8v248q0 37 25 37m130 12v-170q0-16-7-28t-17-12v-11q3-1 54-31 4 1 9 3t13 10 8 18q3-1 17-9 37-21 44-21 16 0 30 21t14 38v152q0 27 25 32v11l-55 31q-11-5-20-15t-10-19v-145q0-28-6-43t-22-15l-17 3v160q0 30 21 34v11l-51 29q-11-5-20-15t-10-19m338-251q2 0 12 7t20 22 10 27v84q0 9-26 22t-52 21-26 8q0 39 33 48 17 4 40 4v14q-82 28-88 28-15 0-30-22t-16-49v-168q0-4 57-25t66-21m-18 79q0-14-6-24t-17-9-22 7v116q45-13 45-54v-36" />
</svg>