<svg id="fnt-Platypi" viewBox="0 0 1710 1000" xmlns="http://www.w3.org/2000/svg"><path id="platypi" class="f" d="M155 667h-140v-9l38-30v-267l-38-31v-8h95v306l45 30v9m-9-139h-62v-26h67q33 0 54-22t22-56q0-35-21-56t-55-20h-76v-26h87q39 0 67 12t44 33 16 52q0 33-18 57t-50 38-75 14m305 139h-124v-8l43-35-8 14v-305l22 34-58-45v-8l77-30h12v355l-7-15 43 35v8m225 6h-9l-14-39h-5v-119q0-33-15-50t-44-17q-16 0-30 6t-23 18l2-42h42l-54 70h-9l-26-57q13-7 29-13t35-9 37-3q55 0 82 22t27 65v119l-20-30 53 40v8l-58 31m-117 0q-33 0-54-18t-21-47q0-67 105-85l76-12v22l-53 13q-41 9-57 21t-16 32q0 17 11 26t30 10q46 0 76-31v30h-7q-19 20-41 29t-49 10m319 0q-26 0-46-11t-30-31-10-46v-152l21 30h-63v-9l83-94h12v210q0 32 11 48t37 17q33 0 56-28l14 10q-11 25-34 41t-51 15m66-209l-5 3-105-13v-24l103-12h7v46m159 205l-1 28-113-255h18v32l-36-42v-7h114v7l-35 34h-5v-23l88 198-17 2 75-206v28h-6l-36-33v-7h105v7l-35 41v-31h18l-178 350h-9l-47-44v-7l100-72m310 4q-45 0-73-21v-46q12 19 31 29t44 10q23 0 40-12t26-34 10-51q0-43-17-67t-49-23q-22 0-39 8t-33 28v-32h7q15-20 38-32t45-11q32 0 55 14t36 41 13 64q0 39-17 70t-48 48-69 17m-5 111h-136v-7l44-36-8 14v-283l21 33-57-45v-9l76-29h13l-3 40h3v294l-8-13 55 34v7m301-117h-124v-8l43-35-8 14v-166l22 32-58-44v-9l77-29h12v217l-7-15 43 35v8m-61-280q-18 0-28-10t-11-26q0-16 11-26t28-10q17 0 27 10t11 26q0 16-11 26t-27 10" />
</svg>