<svg id="fnt-Playwrite BR" viewBox="0 0 3901 1000" xmlns="http://www.w3.org/2000/svg"><path id="playwrite-br" class="f" d="M228 451q-10 0-15-5t-4-16q0-10 4-15t14-5q44-1 80-12t60-34 39-53 14-73q0-49-26-76t-68-27q-25 0-48 11t-40 31-31 49-21 64-7 78v292q0 6-5 10t-16 4q-11 0-17-4t-5-10v-451q-10 19-23 35t-30 30-38 26q-9 5-15 3t-12-12q-5-9-4-15t11-12q31-16 52-39t35-52 21-64q2-10 8-13t17-2q10 0 16 3t5 10v93q17-35 39-59t51-35 60-12q41 0 71 17t48 50 17 77q0 49-17 88t-49 67-75 42-96 16m226 224q-9 0-14-6t-4-13 4-13 14-5q16 0 31-8t29-24 28-36 26-48 22-57 19-64 14-70 9-75 3-75q0-8 6-13t15-4 16 4 6 13q0 38-4 78t-11 78-17 75-23 71-28 63-31 53-35 41-37 26-38 9m139 0q-13 0-22-3t-16-10-8-17-3-21v-436q0-48 17-72t52-24q22 0 36 10t22 29 7 50q0 9-6 14t-16 4-15-4-6-14q0-17-3-28t-7-16-13-5-14 5-8 18-3 33v431q0 6 2 10t6 7 8 2 8-2 7-4 7-5q4-4 9-2t9 7q4 5 4 10t-2 9q-6 8-14 13t-18 8-20 3m216 0q-29 0-51-14t-34-41-13-71q0-26 5-48t14-39 23-30 31-18 39-7q16 0 33 5t32 14v-2q0-8 5-11t17-4 16 3 5 11v196q0 6 2 10t6 7 8 2q5 0 8-2t6-3 8-6q4-3 8-2t9 5q5 5 5 11t-2 9q-5 8-14 14t-18 8-20 3q-11 0-20-2t-14-8-10-13-4-17q0 0-1-2t0-4q-12 19-25 29t-27 13-27 4m-54-128q0 28 7 47t19 31 34 10q14 0 27-5t25-16 21-30v-121q-16-10-30-13t-31-3q-13 0-24 4t-20 12-15 20-10 28-3 36m500 170l-7-40q8-7 16-13t14-12 14-10 12-8q7-4 13-1t9 8 1 14-7 11q-6 4-14 10t-17 13-17 14-17 14m-88 275q-36 0-57-21t-21-60q0-19 5-40t15-41 25-43 35-41q8-8 17-17t17-16 18-14v-70q-7 10-16 19t-19 15-23 9-25 3q-29 0-49-10t-29-31-10-50v-102q0-21-6-28t-18-7q-9 0-15 4t-9 13-4 20q0 8-4 12t-13 4q-8 0-13-4t-5-16q1-22 9-38t21-24 33-9q17 0 30 5t21 16 12 26 4 36v92q0 17 6 29t16 18 28 6q14 0 26-4t22-13 17-19 13-23v-156q0-6 5-10t16-3q11 0 16 3t6 10v443q0 30-7 54t-19 39-31 25-40 9m3-39q16 0 27-10t18-30 6-49v-117q-7 4-12 9t-11 9-9 9q-14 16-24 33t-17 33-11 34-3 34q0 14 4 24t12 16 20 5m290-278q-18 0-33-6t-24-17-15-28-5-40v-102q0-21-7-28t-18-7q-8 0-14 4t-9 13-4 20q-1 8-5 12t-13 4q-8 0-13-4t-4-16q1-22 8-38t22-24 32-9q18 0 30 5t21 16 13 26 4 36v92q0 17 4 29t13 18 24 6q10 0 21-4t21-13 16-26 6-42v-130q0-6 5-9t16-4q12 0 17 4t5 9v139q0 23 2 38t7 22 14 12 21 3q10 0 19-3t19-10 15-17 11-27 4-35q0-19-3-38t-8-36-15-34q-6-9-3-15t9-10 15-4q7 0 10 3t7 9q8 12 15 30t12 41 5 49q0 21-5 41t-14 38-24 30-33 21-41 7q-17 0-31-5t-26-17-17-29q-8 17-21 28t-27 16-31 6m280 0q-10 0-15-6t-5-13 5-13 14-5q15 0 28-12t24-36 18-59 13-81l30 5q-4 56-14 97t-23 69-33 41-42 13m257 0q-13 0-22-3t-16-11-9-17-3-23q0-14 1-32t3-37 2-36 2-30q0-19-5-27t-18-7q-14 0-32 5t-35 10-27 5q-9 0-18-10t-13-24-6-28q0-9 3-16t9-11 15-4q16 0 22 12t5 27q0 3 0 7t0 7q6 0 19-5t31-11 36-6q20 0 33 8t18 23 6 41q0 12-2 29t-2 38-3 37-1 29q0 13 4 18t11 5q5 0 9-2t8-4 7-5q4-3 9-1t9 6q4 5 4 10t-2 9q-6 8-14 13t-18 8-20 3m151 0q-26 0-38-13t-12-38v-202q0-6 5-10t16-3q11 0 17 3t5 10v197q0 10 5 14t11 5q5 0 9-2t7-4 7-6q3-2 8 0t9 6q4 4 4 9t-2 9q-6 8-14 14t-18 8-19 3m-28-343q-14 0-21-8t-7-23q0-16 7-24t21-8q14 0 21 8t7 24q0 16-7 23t-21 8m203 343q-21 0-35-8t-21-22-6-34v-154h-39q-8 0-11-5t-3-15q0-12 3-16t11-4h39v-102q0-7 5-10t16-3q11 0 16 3t6 10v102h63q7 0 10 4t4 16q0 11-4 15t-10 5h-63v149q0 17 4 24t18 8q11 0 19-6t18-13q6-6 11-4t10 6q5 5 5 10t-2 10q-9 13-19 20t-22 11-23 3m222 0q-20 0-39-8t-34-24-28-37-18-47-6-53q0-17 4-32t11-28 18-21 24-13 28-5q28 0 46 12t26 30 8 40q0 17-7 35t-17 35-25 34q-22 24-49 42t-59 30-63 10q-7 0-10-6t-3-13 6-13 17-5q23 0 47-9t46-24 38-33q11-12 18-26t12-26 4-26q0-27-10-37t-27-10q-8 0-16 3t-12 12-9 19-3 25q0 29 8 52t22 41 29 27 29 9q9 0 18-4t19-11 20-18q7-8 13-8t14 6 8 11-3 13q-13 19-30 30t-33 16-32 5m560-2q-25 0-48-6t-38-14q-11-6-13-14t5-18q6-9 12-10t16 3q17 9 36 13t41 4q29 0 54-10t44-30 29-44 11-55q0-36-16-62t-47-38-75-13q-11 5-23 8t-21 3q-14 0-23-7t-9-20q0-8 4-15t12-10 20-4q12 0 21 2t18 6q21-4 38-11t30-16 22-22 14-29 4-35q0-29-13-50t-37-32-59-12q-27 0-52 9t-45 28-37 47-25 65-9 84v292q0 6-5 10t-16 4q-11 0-17-4t-5-10v-451q-10 19-23 35t-30 30-38 26q-9 5-16 3t-11-12q-5-9-4-15t11-12q31-16 52-39t35-52 21-64q2-10 8-13t17-2q10 0 16 3t5 10v98q14-28 33-49t42-35 48-20 52-7q49 0 81 16t50 46 16 68q0 27-7 48t-19 38-32 28-42 19v1q38 0 68 17t47 47 17 69-15 72-41 57-62 39-77 14m713 3q-20 0-37-9t-32-25-31-41-35-55q-15-24-26-41t-18-30-14-25-14-25q-16 1-28-4t-18-13-6-16q0-11 9-19t23-7q11 0 22 5t19 14q23-5 42-14t36-23 27-31 17-37 7-43q0-31-11-54t-32-35-52-13q-26 0-50 10t-43 30-34 47-22 65-8 81v292q0 6-5 10t-16 4q-11 0-17-4t-5-10v-451q-10 19-23 35t-30 30-38 26q-9 5-15 3t-12-12q-5-9-4-15t11-12q31-16 52-39t35-52 21-64q2-10 8-13t17-2q10 0 16 3t5 10v97q13-28 30-48t37-35 44-20 49-7q43 0 73 17t48 49 16 73q0 28-7 52t-20 45-32 37-42 29-52 20q5 10 10 19t12 21 16 26 23 36q19 31 34 52t25 34 19 20 15 8 13 3q10 0 18-4t15-12 15-17q4-5 10-5t13 5q7 5 8 11t-2 13q-11 16-25 27t-27 17-27 6" />
</svg>