<svg id="fnt-Playwrite IE" viewBox="0 0 3465 1000" xmlns="http://www.w3.org/2000/svg"><path id="playwrite-ie" class="f" d="M247 481q-8 0-11-6t0-14q2-8 7-13t13-6q32 0 63-6t58-18 48-29 33-41 12-53q0-22-9-38t-27-27-43-16-55-5q-40 0-75 8t-65 23-52 37q-8 7-16 4t-12-11q-4-5-3-12t7-12q18-18 42-33t51-24 59-15 66-5q46 0 79 9t56 26 32 39 11 51q0 38-15 67t-40 51-61 37-73 22-80 10m-181 194q-19 0-35-7t-27-20-16-26q-4-9-1-15t9-9q9-4 15-2t11 10q7 9 14 15t16 9 18 3q20 0 33-15t26-55l94-294q2-7 8-10t18-3q11 0 16 3t3 12l-93 287q-12 39-27 65t-35 39-47 13m321 0q-9 0-12-6t-2-13 8-13 16-5q17 0 37-10t43-27 45-40 45-50 43-57 37-59 30-58 19-54 8-45q0-8 6-12t16-3 15 3 7 12q0 21-8 48t-23 59-34 63-44 65-49 62-53 56-53 44-51 29-46 11m158 0q-22 0-34-8t-15-21-2-29 8-34l110-341q13-40 33-58t48-17q17 0 29 8t19 25 7 38q0 9-7 14t-15 4-16-4-6-14-3-16-6-10-10-3q-5 0-10 4t-11 12-9 22l-116 360q-2 6-3 13t2 12 11 6q8 0 14-4t11-9 8-10q2-4 8-6t14 3q8 5 8 11t-3 11q-5 9-14 18t-22 17-28 6m202 0q-23 0-40-10t-25-29-8-45q0-22 6-47t18-49 31-44 45-32 60-12q17 0 33 6t30 14l0-2q4-10 8-13t15-3q16 0 20 5t1 15l-59 178q-1 6-3 13t2 12 11 6q8 0 14-4t11-9 8-10q3-4 8-6t14 3q8 5 8 11t-3 11q-5 9-14 18t-21 17-29 6q-14 0-24-3t-15-9-9-14-3-18q0-1 0-3t0-2q-16 20-33 31t-31 14-26 4m-28-88q0 16 4 26t15 17 23 5q17 0 32-9t31-25 28-39l34-102q-13-8-25-11t-24-2q-27 0-47 9t-33 25-22 35-13 37-3 34m434 134l5-42q10-5 19-10t19-9 18-7 16-6 11 1 6 11-1 13-8 10q-10 4-21 8t-21 10-22 11-21 10m-133 196q-20 0-36-8t-23-22-8-31q0-23 10-43t27-37 43-34 54-32q11-5 23-11t23-11l18-55q-11 10-22 18t-22 13-24 8-23 3q-28 0-45-12t-21-35 5-51l49-152q4-10 8-13t15-3q16 0 20 5t1 15l-49 148q-6 21-5 34t10 19 28 6q12 0 25-5t25-14 25-23 22-29l44-140q4-10 8-13t15-3q15 0 19 5t1 15l-115 354q-12 37-25 62t-28 41-33 23-39 8m6-39q12 0 22-5t19-17 18-30 17-44l15-46q-6 3-12 6t-11 6q-22 12-40 25t-31 24-19 26-7 27q0 9 4 16t10 9 15 3m352-202q-25 0-39-9t-21-24-5-32 6-34l49-152q4-10 8-13t15-3q15 0 19 5t1 15l-48 148q-4 12-5 26t5 24 26 10q9 0 19-3t20-10 19-19 17-27l50-153q3-10 8-13t14-3q16 0 20 5t1 14l-37 116q-6 17-11 34t-6 29 6 21 27 8q19 0 35-9t29-26 21-36 13-40 5-38q0-10-1-19t-2-18-3-15q-2-9 0-15t7-10 15-3 13 6 8 19q3 9 4 18t2 19 1 20q0 21-6 46t-19 50-31 45-42 34-54 12q-22 0-37-6t-22-15-10-23q-10 15-23 25t-28 14-33 5m266-1q-10 0-13-6t-1-13 8-13 16-5q17 0 34-13t34-36 35-60 33-83l29 13q-21 61-42 102t-40 67-44 36-49 11m277 0q-19 0-30-6t-17-16-4-23 5-28q4-13 10-29t15-32 14-33 11-32q4-14 0-19t-13-5q-12 0-29 5t-34 10-32 5q-11 0-19-7t-12-18-3-23q0-13 4-25t11-19 20-7q13 0 18 7t5 16q0 9-3 19t-8 17q10 0 26-5t35-11 37-6q14 0 25 7t16 22-2 42q-4 14-11 30t-15 34-15 34-12 34q-4 12-1 18t12 7q8 0 14-4t11-9 8-10q3-4 8-6t14 3q8 5 8 11t-3 11q-5 9-14 18t-21 17-29 6m150 0q-33 0-45-22t0-61l54-167q3-10 8-13t15-3q15 0 19 5t1 15l-57 176q-5 16-2 24t12 9q8 0 14-4t11-9 8-10q3-4 9-6t13 3q9 5 9 11t-3 11q-5 9-15 18t-22 17-29 6m63-343q-10 0-18-6t-7-19q0-14 9-26t28-12q10 0 17 6t7 20q0 13-9 25t-27 12m98 343q-29 0-41-14t-9-35 9-48l39-121h-39q-6 0-8-5t1-15q3-10 7-15t11-5h41l32-99q3-10 8-13t15-3q15 0 19 4t1 15l-30 96h63q5 0 7 4t0 16q-3 9-8 14t-11 6h-64l-47 145q-5 17-2 26t13 10q17 0 28-11t18-18q3-4 8-6t14 3q8 5 8 10t-2 11q-7 11-18 22t-26 19-37 7m227 1q-29 0-50-13t-33-34-11-51q0-27 10-57t30-56 50-42 70-16q21 0 38 7t26 19 9 31-9 36-27 29-42 23-57 15-70 5l12-35q28 0 51-4t41-10 31-15 20-17 6-17q0-13-7-20t-27-7q-28 0-49 13t-34 33-20 43-7 40q0 19 7 33t20 20 27 7q14 0 25-4t21-12 20-16q7-6 13-5t12 6q7 7 8 14t-6 13q-16 15-32 25t-32 14-34 5m404 0q-20 0-39-7t-34-19-24-30q-4-7-1-13t10-11q8-5 13-4t12 8q14 16 30 25t36 9q19 0 33-8t25-27 20-48l105-324q-6 3-15 5t-21 3q-9 0-19-2t-18-5-17-4-15-2q-7 0-13 2t-11 8-7 15q-3 10-8 14t-15 4q-14 0-17-6t-2-12q4-20 13-36t26-23 37-8q12 0 22 2t20 4 19 5 18 2q16 0 26-5t17-12q4-3 8-5t12-2q11 0 16 3t3 12l-121 373q-13 42-31 68t-40 39-53 12m348 0q-42 0-72-14t-46-38-16-59q0-27 10-53t30-47 44-37 56-21q-16-4-29-17t-21-30-7-39q0-27 8-50t24-43 37-32 49-20 57-7q27 0 49 6t42 19 33 31q6 8 4 14t-8 12q-7 6-13 5t-16-9q-12-11-28-19t-34-12-39-4q-28 0-50 9t-38 23-24 35-8 41q0 19 8 35t26 25 45 10h68q8 0 9 4t-1 16q-4 10-8 15t-12 5h-65q-31 0-59 10t-48 29-33 42-11 49q0 24 11 40t34 24 53 9q24 0 47-8t46-22 44-36q9-9 15-9t13 8q9 8 7 14t-10 15q-29 30-59 48t-58 25-56 8" />
</svg>