<svg id="fnt-Playwrite ZA" viewBox="0 0 3591 1000" xmlns="http://www.w3.org/2000/svg"><path id="playwrite-za" class="f" d="M222 478q-9 0-14-5t-3-16q1-10 6-15t13-5q45-3 81-15t62-35 40-51 14-64q0-35-18-53t-48-18q-21 0-42 9t-39 29-36 44-28 56-20 67l-48 254q-1 7-6 10t-17 4q-11 0-17-4t-4-11l70-392q-10 14-23 26t-27 23-32 22q-9 6-16 3t-12-12-3-15 10-12q30-17 52-36t39-43 28-50q4-8 9-11t16-3 16 4 5 11l-13 77q20-30 43-50t49-31 53-11q31 0 55 13t36 38 13 59q0 44-18 81t-50 66-78 44-98 18m151 197q-10 0-13-6t-3-13 6-13 15-5q14 0 31-9t37-25 38-37 39-47 37-54 33-59 26-60 17-59 6-55q0-8 7-12t15-3 15 3 6 12q0 26-7 56t-20 62-30 65-37 65-43 61-46 53-46 42-44 28-39 10m156 0q-17 0-27-6t-13-16-4-23 3-27l60-347q9-51 28-75t52-24q18 0 31 9t19 26 7 41q0 9-6 14t-15 4-15-4-7-14q0-12-2-20t-6-11-11-4q-7 0-13 6t-11 20-9 38l-63 351q-1 8-1 13t3 8 7 3q6 0 10-3t10-8 9-11q3-4 7-5t12 4q7 4 8 9t-2 10q-5 10-14 19t-21 16-26 7m203 0q-23 0-40-11t-26-34-9-53q0-24 5-49t18-46 28-38 39-27 50-10q16 0 32 5t31 12l0-2q2-7 7-10t15-3q13 0 18 4t3 13l-34 187q-1 8-1 13t3 8 8 3q5 0 10-3t9-8 9-11q3-4 8-5t11 3q7 5 8 10t-1 10q-5 10-14 19t-21 16-26 7-24-5-14-12-6-18-1-21q1-3 1-6t0-6q-15 24-32 39t-32 22-32 7m-31-102q0 19 5 33t14 22 23 7q17 0 34-13t34-38 32-59l10-65q-14-8-28-11t-26-2q-20 0-35 7t-28 20-19 29-12 34-4 36m458 140l2-44q9-6 18-12t18-11 16-9 14-7q8-4 13-1t7 10 0 13-8 10q-9 5-19 11t-20 13-21 13-20 14m-114 213q-20 0-35-8t-23-22-8-32q0-19 6-38t21-36 33-36 46-37q12-8 24-17t25-16l15-82q-11 18-23 32t-26 23-27 13-27 5q-25 0-41-11t-22-31 0-51l28-158q2-9 7-12t15-3q13 0 18 4t3 13l-28 158q-3 17-2 28t10 18 24 6q15 0 30-10t29-26 27-40 23-52l13-84q2-9 7-12t16-3q13 0 18 4t3 13l-66 368q-7 34-17 59t-24 41-32 24-40 8m6-38q11 0 21-6t18-18 14-30 11-41l10-59q-7 5-15 10t-14 10q-19 14-32 27t-23 27-13 25-5 25q0 9 3 16t10 10 15 4m314-212q-20 0-34-8t-20-21-9-31 2-37l27-155q1-8 6-11t16-4q14 0 18 4t3 13l-27 152q-2 16-2 29t7 21 22 9q13 0 24-8t23-20 19-28 14-34l23-123q1-8 6-11t15-4q15 0 19 4t2 12l-22 135q-2 16-3 29t0 25 9 16 21 6q15 0 29-8t24-22 20-31 13-37 4-38q0-12-1-23t-4-21-7-20q-4-9-2-16t8-9 14-4q8 0 13 5t9 16q4 9 7 20t5 23 2 25q0 23-6 48t-18 48-29 43-39 30-49 11q-20 0-34-7t-22-20-11-31q-10 18-23 31t-29 20-33 7m372-2q-10 0-16-3t-4-12l42-235q2-9 6-12t15-3q14 0 19 4t3 13l-10 55q11-18 23-32t24-23 25-14 23-5q13 0 24 5t16 11q5 5 5 10t-5 13-10 10-11-1q-7-4-13-6t-13-2q-12 0-27 9t-28 26-28 40-23 51l-14 88q-1 7-7 10t-16 3m260 1q-28 0-38-19t-3-52l29-180q2-9 7-12t15-3q14 0 18 4t3 13l-32 187q-3 12 0 18t10 6q5 0 10-3t8-8 10-11q3-4 7-5t11 4q7 4 8 9t-1 10q-7 12-16 22t-21 14-25 6m27-343q-12 0-19-7t-7-21q0-14 8-25t25-10q12 0 19 7t7 22-8 24-25 10m141 343q-22 0-34-10t-16-28 2-41l23-139h-39q-6 0-8-5t-2-15q2-11 6-16t11-4h40l18-101q1-8 6-11t15-3q14 0 19 4t3 12l-18 99h63q7 0 9 4t1 16q-1 10-5 15t-11 5h-64l-26 147q-4 17 0 25t14 8q12 0 23-8t20-22q4-5 9-5t12 4q7 4 8 9t-1 10q-7 13-18 24t-26 19-34 7m229 1q-20 0-37-8t-30-20-23-31-14-37-4-41q0-18 4-37t12-36 21-30 29-21 38-8q21 0 35 8t22 23 7 32q0 23-11 46t-28 44-40 39q-25 22-55 39t-59 27-57 10q-7 0-10-6t-3-13 7-13 16-5q21 0 44-9t48-23 44-32q16-14 30-31t21-33 9-32q0-16-7-24t-20-7q-12 0-22 8t-17 21-11 29-3 33q0 19 5 37t15 31 23 22 29 8q13 0 25-6t23-14 22-20q6-7 13-6t13 6q6 6 7 12t-4 13q-15 20-33 32t-37 17-37 6m378 250q-22 0-40-9t-26-27-10-40q0-32 17-63t54-64 94-71 139-80q8-5 14-3t11 11q5 9 4 16t-10 11q-59 32-105 60t-78 52-53 46-31 42-9 40q0 17 8 27t25 10q14 0 27-8t24-23 19-34 15-41 10-46 4-46q0-24-3-43t-7-35-15-24-24-16-35-6q-7-1-11-6t-5-14 2-15 11-10q54-21 96-46t70-52 43-60 14-66q0-29-12-49t-36-32-56-10q-30 0-58 8t-55 22-51 35q-7 6-13 4t-13-9q-7-9-6-16t8-13q32-26 63-42t64-24 66-8q45 0 77 16t51 45 18 72q0 39-15 74t-43 66-70 57-95 46l1 1q22 2 38 14t26 30 15 46 5 59q0 24-4 49t-10 49-17 45-22 40-27 31-32 20-36 7m491-251q-33 0-60-12t-47-37-30-59-11-81q0-45 10-86t27-78 42-66 55-52 64-33 73-12q26 0 49 6t43 19 34 29l8-40q1-7 7-11t17-3 16 4 4 11l-73 403q-3 14-3 25t1 17 6 11 12 3q7 0 15-5t15-14 17-23q5-9 11-11t15 3q8 4 9 11t-2 14q-8 15-18 27t-21 22-23 13-24 5q-23 0-37-11t-18-32 1-52l8-58q-19 36-42 64t-46 49-51 30-53 10m-102-190q0 38 8 65t23 46 33 28 43 9q24 0 48-11t47-33 44-52 40-70 36-88l20-114q-19-32-49-48t-72-15q-30 0-58 10t-53 29-45 46-34 58-23 67-8 73" />
</svg>