<svg id="fnt-Playwrite AU VIC" viewBox="0 0 4771 1000" xmlns="http://www.w3.org/2000/svg"><path id="playwrite-au-vic" class="f" d="M54 674q-24 0-20-15l155-477q2-7 8-11t17-3h88q50 0 83 12t50 35 17 61q0 42-16 74t-45 54-70 37-90 21q-22 2-45 3t-45 2l-63 193q-2 7-8 10t-16 4m170-466l-71 219q14 0 29-1t31-2 30-3q53-8 89-26t56-47 19-67q0-26-12-42t-36-24-64-7h-71m229 466q-29 0-37-22t5-64l136-413q3-10 8-13t14-3q16 0 20 5t1 15l-143 434q-3 11-2 17t9 7q5 0 10-4t11-9 11-14q4-5 8-6t11 4q8 5 9 10t-1 10q-9 15-20 25t-23 16-27 5m165 1q-19 0-33-9t-21-27-7-40 6-49 21-51 33-46 46-33 59-13q15 0 31 4t30 12l1-2q3-8 7-10t14-2q16 0 20 5t1 15l-62 184q-2 8-3 13t2 8 6 3q6 0 11-4t11-9 12-14q4-5 8-6t11 4q8 5 9 10t-1 10q-4 8-14 19t-24 19-31 8-27-7-12-18-1-23 5-24q0-1 0-2t1-3q-20 27-39 45t-37 25-33 8m-16-83q0 13 4 23t10 15 16 5q17 0 38-16t43-48 46-75l13-38q-16-7-29-9t-26-2q-22 0-41 9t-32 26-23 36-14 39-5 35m328 82q-25 0-39-11t-15-34 8-53l50-151q4-10 8-13t15-3q15 0 19 5t1 15l-52 155q-5 15-6 26t6 18 20 7q16 0 35-13t38-35 38-54 35-67l13-41q4-10 8-13t15-3q15 0 19 5t1 15l-122 375q-15 46-32 72t-39 39-58 11q-18 0-35-5t-29-13-22-17q-7-8-9-15t9-14q9-7 14-8t13 8q11 12 27 19t35 6q22 0 36-8t26-27 21-49l70-216q-14 21-29 37t-31 28-31 16-31 6m319 2q-23 0-36-9t-18-26-2-36 9-40l46-140q2-8 7-12t16-4q16 0 19 4t1 15l-48 146q-5 16-7 30t3 23 22 9q13 0 26-8t26-23 24-32 20-38l36-110q3-8 7-12t15-4q17 0 20 4t0 15l-41 133q-3 10-6 22t-3 25 6 20 21 8q17 0 33-10t30-28 24-39 16-45 6-42q0-6 0-12t-1-13-2-13q-1-9 0-15t7-9 13-3q9 0 15 6t8 18q1 6 2 11t1 12 0 13q0 26-7 54t-22 56-34 50-45 36-54 13q-22 0-36-8t-19-22-7-29q-11 18-26 31t-30 21-35 7m383-2q-8 0-15-3t-4-13l64-198q2-6 0-11t-8-4q-5 0-11 3t-14 11-18 22q-6 6-11 8t-13-3q-10-5-9-12t4-11q11-16 22-28t27-20 32-7q18 0 27 6t12 15 2 21-3 21l-8 24q13-21 27-38t26-27 25-17 21-6q7 0 11 4t3 15q0 13 1 21t5 12 10 5q11 0 24-7t37-22q5-4 10-2t9 8 3 12-5 10q-22 18-42 26t-40 9q-10 0-21-4t-17-15-7-28q-11 7-26 21t-31 35-31 47-28 59l-16 48q-2 7-8 10t-16 3m298 0q-29 0-38-22t6-64l53-163q4-10 8-13t15-3q15 0 19 5t1 15l-60 184q-4 11-2 17t8 7q6 0 11-4t10-9 12-14q4-5 8-6t11 4q8 5 9 10t-1 10q-9 15-20 25t-23 16-27 5m75-342q-10 0-17-6t-7-19q0-14 8-26t28-12q10 0 17 6t7 20q0 13-9 25t-27 12m91 342q-22 0-34-10t-12-30 7-45l43-132h-38q-6 0-8-5t1-15q3-10 8-15t10-5h40l33-99q3-10 7-13t15-3q16 0 20 4t1 15l-32 96h63q6 0 8 4t-1 16q-2 9-7 14t-11 6h-65l-48 147q-6 17-3 25t12 8q12 0 25-10t25-25q4-4 9-5t12 4q8 4 9 9t-2 9q-5 10-18 23t-29 23-40 9m227 2q-29 0-49-12t-29-34-10-47q0-29 11-60t30-57 49-43 68-16q24 0 40 7t24 21 8 31q0 21-12 37t-33 30-47 22-56 16-59 9l6-36q20-2 41-6t42-10 37-14 26-19 10-24-9-19-23-5q-25 0-46 12t-34 33-21 44-7 44q0 17 6 30t16 19 27 7 29-6 25-17 23-22q6-7 14-5t12 7q6 6 7 12t-6 14q-18 21-36 34t-37 18-37 5m293-2q-13 0-17-8t4-19l310-468q7-11 14-16t20-4q9 0 15 5t6 21l22 466q1 10-5 16t-18 7q-11 0-15-5t-4-14l-6-131h-208l-85 130q-9 13-15 16t-18 4m312-444l-167 254h179l-12-254m280 446q-33 0-55-12t-35-35-11-56 14-74l104-326q2-7 8-11t18-3q11 0 17 4t3 11l-107 330q-11 33-12 57t5 41 20 24 35 8q22 0 44-8t46-23 48-39 48-54 48-69l86-268q3-7 9-11t17-3 16 4 3 11l-156 486q-2 7-8 10t-18 4-16-5-3-10l37-113q-24 31-49 56t-51 41-52 25-53 8m634-2q-9 0-15-6t-6-20l-12-466q0-11 6-17t19-6q11 0 14 4t4 14l10 426 281-424q8-13 14-16t18-4q13 0 17 8t-3 18l-312 469q-8 11-15 15t-20 5m295 0q-11 0-17-4t-3-11l157-486q2-7 8-11t18-3q11 0 16 4t3 11l-157 486q-2 7-8 10t-17 4m368 2q-37 0-67-12t-50-35-31-57-11-75q0-35 8-73t24-76 41-72 56-60 71-42 87-15q32 0 57 7t44 20 33 34q4 5 2 9t-9 10q-7 5-12 6t-11-5q-13-13-28-22t-36-12-47-4q-35 0-66 12t-56 35-47 51-35 60-22 66-7 63q0 36 7 63t22 45 37 27 53 10q21 0 39-7t37-18 36-29 37-37q6-6 11-4t11 8q7 7 8 12t-5 12q-33 40-66 63t-61 33-54 9" />
</svg>