<svg id="fnt-Playwrite AU SA" viewBox="0 0 4329 1000" xmlns="http://www.w3.org/2000/svg"><path id="playwrite-au-sa" class="f" d="M57 674q-23 0-19-15l135-472q2-7 8-10t17-3h89q50 0 84 11t50 36 17 62q0 41-15 72t-45 54-68 35-86 20q-22 3-45 4t-43 2l-54 190q-3 7-8 10t-17 4m153-460l-63 216q14 0 28-1t30-2 29-3q51-8 86-26t54-44 19-67q0-26-12-42t-36-24-64-7h-71m240 460q-28 0-36-21t5-62l120-410q3-10 7-13t15-3q15 0 19 5t2 14l-127 431q-3 11-2 16t8 5q5 0 9-3t9-9 13-15q4-5 8-6t10 3q8 5 9 10t-1 10q-9 16-20 27t-23 16-25 5m163 1q-18 0-31-9t-21-28-7-41q0-24 6-50t21-51 33-45 44-32 56-12q15 0 30 4t31 11l1-2q2-7 7-9t14-2q15 0 19 5t2 14l-56 187q-3 9-3 14t2 6 5 1q5 0 10-3t11-9 12-15q4-5 8-6t10 3q8 5 9 10t0 10q-5 8-15 20t-23 20-32 8q-17 0-26-8t-11-19 0-26 6-25q1-2 1-4t0-5q-19 30-39 49t-38 29-36 10m-14-86q0 14 3 25t9 16 15 5q18 0 40-19t45-54 49-87l5-17q-16-7-31-9t-25-2q-21 0-38 9t-31 25-22 34-14 38-5 36m326 85q-23 0-36-11t-15-32 8-54l44-152q3-10 8-13t14-3q15 0 20 5t1 14l-47 159q-4 13-5 24t4 17 19 6q17 0 37-15t41-41 40-63 36-79l2-11q3-10 8-13t15-3q15 0 19 5t1 14l-107 370q-13 46-29 73t-37 38-57 11q-18 0-34-4t-30-13-24-16q-8-7-11-14t8-15q9-8 14-9t14 7q14 11 30 18t35 7q21 0 35-8t24-27 19-49l65-225q-15 25-31 44t-32 32-33 20-33 6m312 0q-10 0-14-4t-5-14l-14-227q-1-7 3-13t19-7q10 0 15 4t5 15l8 179 114-183q6-8 12-12t16-3q8 0 14 5t7 17l13 175 109-183q5-9 11-11t12-3q15 0 20 7t-1 17l-141 228q-3 6-11 9t-18 4-15-4-4-14l-13-178-115 183q-3 5-9 9t-18 4m357 0q-8 0-15-3t-4-13l67-233q3-10 8-13t14-3q15 0 20 5t1 14l-23 81q15-25 30-44t30-32 28-19 25-7q13 0 23 7t17 15q4 5 3 11t-6 11q-6 6-11 8t-9-2q-5-4-11-7t-11-3q-13 0-32 14t-39 41-40 62-37 78l-4 19q-2 7-7 10t-17 3m258 0q-27 0-35-21t5-62l47-166q3-10 8-13t14-3q15 0 20 5t1 14l-54 187q-3 11-2 16t8 5q4 0 8-3t10-9 13-15q4-5 8-6t10 3q7 5 9 10t-1 10q-10 16-21 27t-22 16-26 5m67-342q-11 0-18-7t-7-19q0-14 9-25t26-12q11 0 18 7t7 19q0 14-8 26t-27 11m101 342q-20 0-32-9t-14-27 6-44l39-137h-38q-6 0-8-5t0-15 7-15 11-5h40l29-100q3-9 7-12t15-3q15 0 20 4t1 15l-29 96h64q5 0 7 4t0 16q-2 9-7 14t-10 6h-65l-44 147q-5 17-2 25t12 7q10 0 23-8t27-28q4-4 9-5t12 4q7 4 8 9t0 9q-6 11-19 24t-29 23-40 10m226 2q-30 0-50-12t-29-35-9-48q0-29 10-60t30-57 48-41 66-16q24 0 40 8t24 20 8 32q0 21-13 38t-33 29-48 23-55 15-54 11l3-35q17-3 38-8t41-10 37-14 28-20 10-25q0-13-9-19t-22-5q-24 0-43 12t-33 31-21 43-7 45q0 17 5 31t16 20 28 7 30-7 26-18 23-24q6-7 14-5t13 7q5 6 6 12t-5 13q-18 24-37 37t-38 19-38 6m296-2q-13 0-17-8t3-18l291-463q7-11 14-16t20-4q9 0 15 5t6 20l39 461q1 10-5 16t-18 7q-11 0-15-5t-5-14l-10-128h-207l-79 127q-8 13-14 16t-18 4m294-439l-157 252h178l-21-252m331 441q-41 0-71-11t-47-34-21-55 8-74l91-323q3-7 8-11t18-3 17 4 3 11l-94 327q-12 44-5 72t32 41 65 14q43 0 75-15t54-43 33-69l91-328q2-7 7-11t18-3q23 0 19 15l-92 332q-14 54-44 90t-70 55-95 19m588 0q-25 0-47-6t-41-17-33-25-25-28q-5-6-2-12t7-10q8-5 13-7t10 4q13 15 31 28t39 22 48 9q27 0 50-7t40-20 26-31 9-44q0-16-5-30t-15-25-25-22-34-20q-18-10-34-20t-29-22-23-26-15-32-5-40q0-28 11-52t31-42 50-26 64-10q28 0 51 8t42 21 34 30q6 5 4 10t-7 12q-6 6-12 7t-11-3q-13-11-27-21t-32-15-42-6q-24 0-44 5t-35 17-23 27-8 38q0 18 5 32t14 25 26 22 38 22q23 12 42 26t32 29 21 36 8 45q0 32-13 58t-36 46-55 30-68 10m202-2q-13 0-17-8t3-18l291-463q7-11 14-16t20-4q9 0 15 5t6 20l39 461q1 10-5 16t-18 7q-11 0-15-5t-5-14l-10-128h-207l-79 127q-8 13-14 16t-18 4m294-439l-157 252h178l-21-252" />
</svg>