<svg id="fnt-Playwrite PL" viewBox="0 0 3525 1000" xmlns="http://www.w3.org/2000/svg"><path id="playwrite-pl" class="f" d="M224 479q-8 0-13-6t-4-13 3-13 11-6q32-1 59-8t48-20 36-29 22-38 8-45q0-24-10-42t-28-29-44-18-58-5q-42 0-77 8t-63 24-51 40q-6 7-13 8t-14-4q-8-7-9-14t5-13q18-22 41-39t52-28 62-17 71-6q44 0 78 9t57 26 35 42 12 58q0 30-10 56t-28 48-45 37-60 25-73 12m-122 196q-21 0-38-8t-28-19-17-19q-5-8-5-15t9-13q9-5 15-4t13 10q8 7 15 13t17 10 21 3q19 0 28-15t9-48v-303q0-7 5-10t16-3q11 0 17 3t5 10v306q0 31-9 54t-27 36-46 12m451 0q-26 0-38-13t-11-38v-445q0-6 5-10t16-3q11 0 16 3t6 10v440q0 10 4 14t11 5q6 0 9-2t8-4 7-5q4-3 8-2t9 7q3 3 4 8t-1 9q-6 9-15 14t-18 9-20 3m182 0q-29 0-51-14t-34-41-13-71q0-26 5-48t14-39 23-30 31-18 39-7q16 0 33 5t32 14v-2q0-8 5-11t17-4 16 3 5 11v196q0 6 2 10t6 7 8 2q5 0 8-2t6-3 8-6q4-3 8-2t9 5q5 5 5 11t-2 9q-5 8-14 14t-18 8-20 3q-11 0-20-2t-14-8-10-13-4-17q0 0-1-2t0-4q-12 19-25 29t-27 13-27 4m-54-128q0 28 7 47t19 31 34 10q14 0 27-5t25-16 21-30v-121q-16-10-30-13t-31-3q-13 0-24 4t-20 12-15 20-10 28-3 36m484 163l-2-41q8-5 16-10t15-9 14-8 12-5q8-4 13-1t8 10 0 14-9 10q-6 4-15 8t-17 10-17 11-18 11m-87 209q-23 0-40-8t-27-24-9-38q0-17 5-34t16-33 26-34 38-33q12-8 23-16t24-15v-56q-6 11-15 20t-19 15-23 9-26 3q-29 0-48-10t-30-31-9-50v-162q0-6 5-10t16-3q11 0 16 3t6 10v162q0 17 5 29t17 18 28 6q14 0 26-4t21-13 18-18 12-24v-156q0-6 5-10t17-3q10 0 16 3t5 10v366q0 31-7 56t-20 41-31 25-41 9m3-38q12 0 22-7t17-18 11-29 3-40v-59q-10 6-20 12t-19 13q-12 10-21 21t-15 23-9 24-3 24q0 11 3 19t12 12 19 5m280-206q-18 0-33-6t-24-17-15-28-5-40v-162q0-6 5-10t16-3q11 0 16 3t6 10v162q0 17 4 29t13 18 24 6q13 0 23-4t18-13 13-18 9-23v-157q0-6 5-9t16-4q12 0 17 4t5 9v139q0 23 2 38t6 22 13 12 21 3q10 0 19-3t19-10 15-17 11-27 4-35q0-19-3-38t-8-36-15-34q-6-9-3-15t9-10 15-4q7 0 10 3t7 9q8 12 15 30t12 41 5 49q0 21-5 41t-14 38-24 30-33 21-41 7q-17 0-31-5t-24-17-17-28q-8 15-20 26t-27 17-31 6m385-1q-11 0-16-3t-5-10v-179q0-21-7-28t-18-7q-8 0-14 4t-9 13-4 20q-1 8-5 12t-13 4q-8 0-13-4t-4-16q1-22 8-38t22-24 32-9q14 0 25 3t19 10 13 16 8 22l0 3q6-13 13-24t16-17 18-11 18-4q7 0 12 4t6 15q0 14 2 24t8 14 13 5q12 0 26-12t26-25q4-5 10-4t10 6 6 11-2 10q-16 20-36 34t-40 14q-14 0-26-6t-19-18-10-29q-8 3-15 9t-13 16-11 21-9 25v140q0 7-6 10t-16 3m291 1q-26 0-38-13t-11-38v-202q0-6 5-10t16-3q11 0 16 3t6 10v197q0 10 4 14t11 5q6 0 9-2t7-4 8-6q3-2 8 0t8 6q4 4 5 9t-3 9q-5 8-14 14t-18 8-19 3m-27-343q-14 0-22-8t-7-23q0-16 7-24t22-8q13 0 20 8t7 24q1 16-7 23t-20 8m202 343q-21 0-35-8t-20-22-7-34v-154h-39q-7 0-10-5t-3-15q0-12 3-16t10-4h39v-102q0-7 5-10t16-3q11 0 17 3t5 10v102h63q8 0 11 4t3 16q0 11-3 15t-11 5h-63v149q0 17 5 24t17 8q12 0 20-6t17-13q6-6 11-4t10 6q6 5 6 10t-3 10q-8 13-19 20t-22 11-23 3m223 0q-20 0-39-8t-35-24-27-37-18-47-7-53q0-17 4-32t12-28 18-21 23-13 28-5q29 0 46 12t26 30 8 40q0 17-6 35t-17 35-26 34q-21 24-49 42t-58 30-63 10q-7 0-11-6t-3-13 7-13 16-5q23 0 47-9t47-24 37-33q11-12 19-26t12-26 4-26q0-27-10-37t-27-10q-9 0-16 3t-13 12-8 19-3 25q0 29 8 52t22 41 28 27 29 9q10 0 19-4t18-11 20-18q7-8 14-8t13 6 8 11-3 13q-12 19-29 30t-34 16-31 5m446-196q-9 0-13-6t-4-13 3-13 10-6q33-1 59-8t48-20 36-29 23-38 8-45q0-24-10-42t-28-29-45-18-57-5q-42 0-77 8t-64 24-50 40q-6 7-13 8t-14-4q-8-7-9-14t5-13q17-22 41-39t52-28 62-17 70-6q44 0 78 9t57 26 36 42 12 58q0 30-10 56t-29 48-45 37-60 25-72 12m-122 196q-22 0-39-8t-28-19-16-19q-6-8-5-15t8-13q9-5 15-4t14 10q7 7 15 13t16 10 21 3q20 0 28-15t9-48v-303q0-7 6-10t16-3q11 0 16 3t6 10v306q0 31-9 54t-27 36-46 12m428 2q-20 0-36-6t-23-19-9-30q0-18 8-33t23-22 34-8q19 0 34 5t30 14 28 17 30 17 35 13 43 5q27 0 47-10t35-24 20-32q4-9 10-12t15 1q9 2 11 7t1 16q-8 27-28 49t-48 34-62 13q-35 0-60-8t-44-18-35-22-31-18-33-7q-11 0-16 5t-5 15q0 9 7 14t17 6q20 0 32-19t12-47v-269q0-34 8-60t23-43 39-26 54-9q29 0 51 9t38 28 23 48q4 11 1 17t-12 10q-11 3-17 0t-10-14q-6-17-16-30t-24-20-35-6q-19 0-34 5t-25 18-16 29-5 44v269q0 32-10 55t-30 36-45 13" />
</svg>