<svg id="fnt-Playwrite IN" viewBox="0 0 3812 1000" xmlns="http://www.w3.org/2000/svg"><path id="playwrite-in" class="f" d="M252 472q-9 0-12-6t0-14q2-8 7-13t13-6q35-1 68-8t63-20 51-31 35-43 13-55q0-22-10-39t-26-27-40-16-52-6q-34 0-72 8t-75 27-71 50q-10 9-17 8t-13-6q-5-5-6-13t8-15q26-27 58-46t65-31 66-17 60-5q43 0 75 9t53 26 32 40 11 52q0 38-16 68t-43 54-63 39-77 25-85 11m-175 203q-22 0-39-10t-28-27-15-36q-3-9 0-16t12-10q10-3 16 0t8 12q6 15 13 25t15 15 19 5q18 0 30-15t25-51l102-317q2-7 8-11t18-3q11 0 16 3t3 12l-102 318q-11 31-25 55t-33 38-43 13m307 0q-10 0-13-6t0-13 8-13 14-5q13 0 32-10t42-28 48-41 51-53 49-59 45-62 36-62 25-58 9-51q0-8 6-12t15-3 15 3 6 12q0 24-10 54t-27 63-41 67-50 68-56 65-58 57-56 46-50 30-40 11m163-1q-19 0-29-8t-11-21 1-27 7-28l111-342q17-54 39-78t53-24q17 0 29 8t18 24 7 36q0 9-6 14t-15 4-15-4-6-14q0-8-2-15t-6-9-10-4q-7 0-14 6t-15 21-16 44l-116 356q-2 8-3 13t2 8 6 3q5 0 11-4t11-9 12-14q4-5 8-6t11 4q8 5 9 10t-1 10q-5 8-15 19t-23 19-32 8m199 1q-18 0-32-9t-21-27-8-40 7-49 20-51 34-46 46-33 58-13q15 0 31 4t31 12l0-2q3-8 8-10t14-2q15 0 19 5t1 15l-61 184q-3 8-3 13t1 8 7 3q5 0 11-4t11-9 12-14q4-5 8-6t11 4q8 5 9 10t-1 10q-5 8-15 19t-23 19-32 8-26-7-12-18-1-23 4-24q1-1 1-2t1-3q-20 27-40 45t-37 25-33 8m-15-83q0 13 3 23t10 15 16 5q17 0 38-16t44-48 46-75l12-38q-15-7-29-9t-25-2q-23 0-41 9t-33 26-23 36-14 39-4 35m439 123l6-45q10-6 20-12t19-12 18-10 16-8q8-3 12 0t6 10 0 13-7 10q-10 5-21 12t-23 13-23 14-23 15m-141 223q-18 0-32-8t-22-20-8-29q0-19 8-39t23-38 37-38 51-41q16-10 31-20t32-21l32-97q-15 21-30 37t-30 28-32 17-31 5q-24 0-38-11t-16-34 9-53l50-151q3-10 8-13t14-3q16 0 20 5t1 15l-52 155q-5 15-6 26t5 18 21 7q16 0 34-13t39-35 38-53 35-68l13-41q3-10 8-13t14-3q16 0 20 5t1 15l-122 374q-12 36-25 62t-27 42-33 23-40 8m6-39q13 0 23-7t20-19 18-30 15-41l21-64q-8 6-17 11t-17 11q-22 17-39 33t-27 29-16 27-5 25q0 8 3 13t8 9 13 3m362-223q-23 0-36-9t-18-26-3-36 9-40l35-105q2-6 0-11t-8-4q-6 0-12 3t-14 11-18 22q-6 6-11 8t-13-3q-9-5-9-12t4-11q11-16 23-28t26-20 33-7 27 6 13 17 1 23-5 25l-30 95q-5 16-7 30t3 23 21 9q14 0 28-9t28-25 26-36 20-42l32-99q3-8 7-12t16-4q16 0 19 4t0 15l-41 133q-3 10-6 22t-2 25 7 20 21 8q17 0 33-10t30-28 24-39 16-45 6-42q0-6-1-12t-1-13-1-13q-2-9 0-15t7-9 12-3q10 0 15 6t8 18q2 6 2 11t1 12 1 13q0 26-8 54t-22 56-34 50-45 36-53 13q-23 0-37-9t-20-22-6-31q-12 19-27 33t-31 22-35 7m260-1q-10 0-13-6t-2-13 8-13 16-5q14 0 28-7t30-22 33-37 35-54 38-71l28 13q-28 60-53 102t-49 66-48 36-51 11m280-1q-19 0-29-7t-12-17-1-23 5-23q3-10 9-25t14-33 14-35 11-33q4-14 1-20t-12-5q-12 0-25 2t-27 7-25 7-20 3q-22 0-36-8t-22-21-7-26q0-23 14-37t37-15q18 0 29 10t14 24-3 33q4 0 14-3t24-8 27-8 26-3q15 0 25 7t12 23-4 40q-3 14-10 32t-15 37-14 36-11 29q-5 14-2 18t8 5q6 0 11-4t11-9 11-14q4-5 8-6t11 4q8 5 9 10t-1 10q-4 8-14 19t-24 19-31 8m-104-235q4-12 4-22t-4-16-11-6q-8 0-12 5t-4 13q0 11 8 18t19 8m256 235q-29 0-38-22t6-64l53-163q4-10 8-13t15-3q15 0 19 5t1 15l-60 184q-4 11-2 17t8 7q6 0 11-4t10-9 12-14q4-5 8-6t11 4q8 5 9 10t-1 10q-9 15-20 25t-23 16-27 5m75-342q-10 0-17-6t-7-19q0-14 8-26t28-12q10 0 17 6t7 20q0 13-9 25t-27 12m91 342q-22 0-34-10t-12-30 7-45l43-132h-38q-6 0-8-5t1-15q3-10 8-15t10-5h40l33-99q3-10 7-13t15-3q16 0 20 4t1 15l-32 96h63q6 0 8 4t-1 16q-2 9-7 14t-11 6h-65l-48 147q-6 17-3 25t12 8q12 0 25-10t25-25q4-4 9-5t12 4q8 4 9 9t-2 9q-5 10-18 23t-29 23-40 9m227 2q-29 0-49-12t-29-34-10-47q0-29 11-60t30-57 49-43 68-16q24 0 40 7t24 21 8 31q0 21-12 37t-33 30-47 22-56 16-59 9l6-36q20-2 41-6t42-10 37-14 26-19 10-24-9-19-23-5q-25 0-46 12t-34 33-21 44-7 44q0 17 6 30t16 19 27 7 29-6 25-17 23-22q6-7 14-5t12 7q6 6 7 12t-6 14q-18 21-36 34t-37 18-37 5m412 0q-24 0-43-10t-33-28-23-38q-2-6 0-13t11-11q8-4 13-2t11 10q14 23 29 36t37 14q19 0 33-10t28-32 26-60l107-328q-9 3-16 6t-17 2q-9 0-17-2t-15-5-13-6-14-2q-10 0-18 3t-17 11-22 21q-5 6-12 6t-14-5q-7-5-9-11t4-12q15-19 30-32t30-17 30-6q13 0 23 2t17 6 14 6 15 2q12 0 21-5t18-11q5-4 10-6t10-1q12 0 17 3t3 12l-122 375q-17 52-37 82t-44 43-51 13m251-1q-21 0-36-9t-22-24-7-34q0-24 9-49t24-53q6-9 12-11t15 2q9 4 11 10t-2 16q-10 22-18 42t-7 39q0 9 2 15t9 11 14 4q12 0 25-10t26-31 29-55 32-82 38-111l59-182q3-7 9-10t17-4q10 0 15 5t7 15l85 411 67-203q21-66 40-110t38-71 40-37 48-11q13 0 26 2t26 8 25 14q8 5 10 10t-3 16q-4 8-10 9t-14-2q-17-8-33-12t-29-4q-16 0-30 9t-28 31-30 60-33 95l-91 275q-2 7-8 11t-18 4q-6 0-11-2t-6-8-6-19l-83-404-36 111q-23 73-44 127t-39 92-36 61-37 33-41 10" />
</svg>