<svg id="fnt-Playwrite CA" viewBox="0 0 3696 1000" xmlns="http://www.w3.org/2000/svg"><path id="playwrite-ca" class="f" d="M233 479q-9 0-13-5t-3-16q1-10 5-15t12-5q50-4 90-20t69-40 44-56 15-65q0-27-12-41t-36-13q-20 0-43 10t-45 30-44 47-39 61-32 70l-77 239q-2 7-8 10t-17 4q-11 0-17-4t-3-11l129-396q-12 12-26 24t-29 22-32 24q-11 6-18 4t-12-11q-5-8-4-16t10-12q30-19 55-38t46-40 36-44q6-9 11-12t16-3q11 0 16 4t3 11l-26 82q23-31 49-53t52-33 55-11q27 0 47 11t30 31 11 47q0 47-20 87t-55 71-84 49-106 22m101 196q-9 0-12-6t-1-13 8-13 14-5q12 0 30-10t41-26 48-40 51-49 51-57 46-60 37-61 26-57 10-51q0-8 6-12t14-3 15 3 6 12q0 24-10 54t-28 62-42 66-52 66-57 62-59 55-55 44-49 29-38 10m165-1q-18 0-27-8t-10-21 2-26 6-26l105-322q19-59 42-85t54-27q16 0 28 9t19 23 6 36q0 9-6 14t-15 4-14-4-6-14q0-9-2-15t-5-9-10-4q-8 0-16 7t-16 24-18 51l-109 334q-3 9-3 14t1 6 4 1q5 0 11-3t11-10 13-14q4-5 8-6t10 3q8 5 10 10t-1 10q-5 8-15 19t-24 20-33 9m198 1q-17 0-30-9t-19-25-7-39q0-23 7-50t21-52 34-46 46-34 58-13q14 0 30 4t31 11l1-2q2-7 7-9t14-2q15 0 19 5t1 15l-62 186q-3 9-4 14t2 6 5 1q5 0 10-3t11-10 14-14q4-5 8-6t9 3q8 5 10 10t-1 10q-4 8-14 19t-25 20-32 9-28-8-10-21 1-26 7-26q1-1 1-3t1-2q-21 29-41 49t-39 29-36 9m-11-81q0 12 3 22t9 14 13 5q18 0 40-19t48-54 52-88l5-17q-16-6-30-8t-26-2q-21 0-39 10t-32 26-23 36-15 39-5 36m458 113l6-46q10-7 19-13t19-13 18-11 15-8q8-4 13-1t6 9 0 13-7 10q-9 6-20 13t-22 15-23 15-24 17m-142 217q-26 0-43-15t-16-37q0-18 6-35t20-35 32-35 46-38q13-9 25-18t24-17 25-16l33-106q-15 25-32 44t-33 32-33 19-35 7q-23 0-36-11t-14-34 10-54l40-118q2-5 0-9t-6-3q-5 0-11 3t-14 10-19 20q-7 7-12 8t-13-5q-9-7-8-13t6-11q11-14 23-25t26-18 33-7 27 7 11 17 0 23-5 22l-38 111q-4 12-6 23t4 18 18 6q18 0 38-15t42-42 43-64 39-80l3-8q3-10 8-13t14-3q16 0 20 5t1 15l-118 361q-11 36-24 61t-27 42-33 24-41 7m8-38q15 0 28-10t24-32 23-56l18-55q-7 4-14 9t-14 10-14 10q-20 17-34 31t-23 26-13 24-4 21q0 7 2 11t8 8 13 3m353-210q-22 0-35-9t-17-26-2-37 10-42l35-105q1-5 0-9t-7-3q-4 0-10 3t-14 10-20 20q-6 7-12 8t-12-5q-10-7-8-13t5-11q12-14 23-25t26-18 33-7 27 7 11 17 0 23-5 22l-31 97q-5 17-8 31t3 23 20 9 30-11 31-30 27-41 21-44l27-85q3-8 7-12t16-4q16 0 19 4t0 15l-42 138q-3 8-5 19t-2 24 7 19 20 8q16 0 32-11t31-28 24-40 17-46 7-44q0-4 0-10t-1-11-1-12q-2-9 0-15t6-9 13-3q9 0 15 6t8 18q1 4 2 9t0 9 0 10q0 28-8 57t-23 59-35 51-45 37-54 13q-23 0-37-9t-19-25-4-33q-13 20-28 35t-32 24-36 8m257-1q-9 0-13-6t-1-13 7-13 16-5q17 0 36-11t41-33 45-59 52-88l27 13q-30 61-56 102t-52 66-50 36-52 11m281-1q-19 0-28-7t-11-18 0-23 6-22q3-8 8-23t13-33 14-36 12-33q4-15 1-21t-12-5q-12 0-25 4t-27 10-29 5q-9 0-16-8t-10-19-4-25q0-10 4-20t11-15 20-6q10 0 16 7t6 16q0 7-2 14t-5 16q5 0 18-5t30-11 35-6q15 0 24 8t12 22-5 40q-3 14-10 33t-15 38-14 36-10 28q-5 14-3 17t7 4q5 0 10-3t11-10 13-14q4-5 7-6t10 3q8 5 10 10t-1 10q-4 8-14 19t-25 20-32 9m153 0q-28 0-35-22t7-65l53-162q4-10 8-13t15-3q15 0 19 5t1 15l-61 186q-3 11-2 16t7 5q5 0 9-3t10-9 14-15q4-5 8-6t10 3q8 5 9 10t-1 10q-10 17-22 27t-23 16-26 5m79-342q-10 0-17-6t-7-19q0-14 8-26t28-12q10 0 17 6t7 20q0 13-9 25t-27 12m89 342q-20 0-32-9t-13-28 7-44l44-136h-38q-6 0-8-5t1-15q3-10 8-15t10-5h40l33-99q3-10 7-13t15-3q16 0 20 4t1 15l-32 96h63q5 0 7 4t0 16q-3 9-8 14t-10 6h-65l-49 147q-6 17-4 25t12 7q10 0 24-9t28-27q4-5 9-5t12 4q7 4 8 9t-1 9q-5 10-18 23t-30 24-41 10m232 1q-18 0-33-6t-25-15-19-24-11-30-3-33q0-18 4-40t12-43 23-38 34-28 45-11q15 0 28 6t19 18 8 29q0 22-15 47t-37 49-53 45q-29 22-60 38t-60 27-51 9q-7 0-10-6t-3-13 6-13 16-5q16 0 40-9t50-24 52-33q22-17 40-34t29-35 11-31q0-12-5-18t-15-7q-16 0-28 12t-20 31-12 39-4 37q0 14 3 27t11 22 17 15 26 5q15 0 30-7t28-18 26-24q6-7 14-5t13 8 6 11-5 14q-19 24-40 37t-41 19-41 5m487 1q-37 0-66-12t-49-35-31-56-11-75q0-36 9-74t25-76 40-71 56-60 71-41 85-15q32 0 57 7t44 20 32 33q4 6 2 10t-10 10q-7 5-12 5t-12-6q-17-17-43-27t-65-9q-34 0-64 12t-56 34-47 50-35 60-22 66-8 65q0 35 7 62t21 45 36 27 54 9q20 0 39-7t37-18 37-30 38-41q6-7 12-5t12 8q6 7 7 12t-5 13q-33 43-66 67t-63 34-56 9m373-1q-25 0-46-10t-35-28-23-45-8-58q0-47 12-93t34-88 52-76 66-61 75-41 80-14q25 0 46 5t40 16 32 25l10-32q3-7 8-11t17-3q11 0 17 4t2 11l-131 399q-5 15-7 26t-3 18 3 10 8 4q6 0 14-5t17-17 25-31q5-8 11-9t13 4q8 5 9 12t-3 15q-8 11-19 24t-23 24-27 18-28 7q-21 0-33-11t-11-35 12-60l23-73q-29 45-58 78t-59 56-57 34-55 11m-66-140q0 25 5 43t17 30 23 19 30 6q23 0 48-12t51-35 55-56 56-77 57-97l34-106q-16-23-43-35t-67-11q-33 0-66 13t-63 37-55 56-43 69-29 76-10 80" />
</svg>