<svg id="fnt-Playfair" viewBox="0 0 1699 1000" xmlns="http://www.w3.org/2000/svg"><path id="playfair" class="f" d="M24 667v-15q20-1 30-3t13-10 3-22v-187q0-14-3-21t-13-10-30-3v-15q5 1 14 1t21 0 27 0q24 0 41 0t26 0q49 0 77 22t27 61q0 28-14 48t-39 31-60 11q-8 0-15-1t-15-2-12-2v-15q8 3 18 4t20 1q37 0 55-18t18-55-17-54-52-17h-33v221q0 15 4 22t15 10 36 3v15q-6-1-17-1t-25 0-32-1q-24 0-41 1t-27 1m262 0v-15q25 0 35-7t10-22v-218q0-18-10-26t-35-9v-15q8 0 17 1t17 0q14 0 26-1t23-4v272q0 17 10 23t35 6v15q-6-1-17-1t-23-1-24 0q-18 0-36 1t-28 1m230 5q-28 0-44-14t-16-38q0-19 10-31t23-18 30-12 30-8 23-10 9-14v-20q0-19-11-29t-33-10q-16 0-27 5t-11 11q0 4 3 8t5 10 3 11q0 8-6 13t-15 4q-11 0-18-7t-7-18q0-15 11-27 12-11 31-18t43-7q25 0 41 8t23 24 7 42v107q0 10 3 15t10 4 14-3 13-9l7 12q-10 10-21 14t-26 5q-39 0-39-35-12 18-28 26t-37 9m15-23q15 0 28-8t22-20v-74q-4 6-13 11t-22 9-23 10-19 14-7 24q0 16 9 25t25 9m276 24h-13l-75-173q-6-14-16-20t-26-6v-15q15 1 27 1t27 1q18 0 31-1t24-1v15q-21 0-26 7t3 25l52 120-7 2 39-96q7-19 7-32t-7-19-23-7v-15q10 0 18 1t15 0 16 0q11 0 22 0t20-1v15q-16 1-28 11t-20 34l-60 154m-71 92q-19 0-31-10t-11-26q0-12 7-20t20-8q9 0 14 5t5 12q0 6-2 11t-4 7-1 8q0 7 8 7 9 0 17-7t13-20l25-63 12 8-23 57q-5 14-12 23t-16 12-21 4m203-98v-15q25 0 35-7t9-24v-172q0-47 23-72t63-26q27 0 43 11t17 30q0 13-8 20t-19 8q-9 0-15-5t-5-12q0-7 2-12t6-9 2-8q0-9-18-9-27 0-39 18t-13 56v182q0 17 13 24t44 7v15q-7-1-20-1t-27-1-28 0q-20 0-38 1t-27 1m141-193h-143v-15h143v15m108 198q-27 0-43-14t-16-38q0-19 9-31t23-18 30-12 31-8 23-10 9-14v-20q0-19-11-29t-34-10q-16 0-27 5t-11 11q0 4 3 8t6 10 2 11q0 8-5 13t-16 4q-11 0-17-7t-7-18q0-15 11-27 11-11 30-18t44-7q25 0 40 8t23 24 8 42v107q0 10 3 15t10 4 14-3 13-9l7 12q-10 10-21 14t-27 5q-38 0-38-35-12 18-28 26t-38 9m16-23q15 0 27-8t23-20v-74q-4 6-14 11t-22 9-23 10-18 14-8 24q0 16 10 25t25 9m154 18v-15q25 0 35-7t10-22v-114q0-19-10-27t-35-8v-15q9 0 17 1t17 0q14 0 27-1t23-4v168q0 17 10 23t34 6v15q-6-1-16-1t-23-1-24 0q-19 0-37 1t-28 1m63-256q-11 0-19-8t-8-19q0-11 8-19t19-8q11 0 19 8t8 19-8 19-19 8m90 256v-15q26-1 35-7t10-22v-114q0-19-10-27t-35-8v-15q9 0 17 1t18 0q26 0 49-5v166q0 17 12 23t43 8v15q-7-1-20-1t-26-1-28 0q-20 0-37 1t-28 1m160-143q-9 0-14-6t-5-12q0-5 2-10t4-8 2-7q0-9-12-9-10 0-21 5t-20 13-13 19l-2-16q12-19 29-29t35-11q19 0 30 11t11 28q0 14-7 23t-19 9" />
</svg>