<svg id="fnt-Playwrite NO" viewBox="0 0 3739 1000" xmlns="http://www.w3.org/2000/svg"><path id="playwrite-no" class="f" d="M243 483q-9 0-11-6t-1-14q3-8 7-13t13-6q32 0 63-6t58-18 48-29 33-40 12-52q0-22-9-38t-26-26-41-15-53-5q-37 0-72 8t-66 23-58 40q-8 8-16 5t-12-8q-5-6-5-13t8-13q20-21 46-36t55-26 60-16 63-5q43 0 76 9t54 26 32 39 10 50q0 37-15 66t-40 51-61 36-73 22-79 10m-176 192q-19 0-35-8t-27-22-16-28q-3-9-1-16t11-9q9-4 15-1t10 11q6 10 13 17t16 10 18 4q18 0 31-15t24-52l94-292q2-7 8-11t18-3q11 0 16 4t3 11l-93 289q-11 35-26 60t-33 38-46 13m456 0q-32 0-43-23t3-61l130-401q3-10 8-13t14-3q16 0 20 5t1 15l-135 413q-4 15-2 22t11 8q7 0 13-3t11-10 9-11q4-4 8-6t13 4q9 5 9 10t-3 11q-6 11-16 21t-23 16-28 6m167 0q-22 0-37-10t-24-28-8-43q0-22 6-48t19-50 32-45 45-32 59-12q17 0 33 5t30 14l0-2q4-9 8-12t14-3q16 0 20 5t1 15l-59 180q-2 7-3 13t1 11 10 4q7 0 13-3t11-10 9-11q3-4 8-6t13 4q8 5 9 10t-3 11q-4 8-14 18t-22 18-29 7q-16 0-25-5t-15-12-6-17 0-19q0-2 0-3t0-2q-17 22-35 35t-33 18-28 5m-24-87q0 16 4 26t13 16 21 5q17 0 34-11t35-33 34-51l27-81q-14-7-26-10t-25-2q-25 0-45 9t-33 26-23 35-12 37-4 34m337 87q-27 0-43-12t-20-35 7-52l49-151q4-10 8-13t15-3q15 0 19 5t1 15l-49 150q-6 19-6 32t9 18 25 7q13 0 28-8t30-21 29-33 26-43l34-106q4-10 8-13t15-3q15 0 19 5t1 15l-116 360q-15 45-32 71t-42 39-60 12q-20 0-37-6t-29-15-19-21q-4-8-5-14t10-13q10-5 15-5t10 8q10 17 25 22t33 5q24 0 39-8t28-27 21-49l54-171q-11 14-24 25t-25 18-26 11-25 4m314 1q-24 0-38-9t-20-24-4-34 7-36l48-148q3-9 8-13t15-3q15 0 19 5t1 14l-48 148q-4 13-6 27t5 24 24 10q10 0 21-5t23-14 21-23 17-32l45-138q4-9 8-13t15-3q16 0 19 5t1 14l-38 122q-5 14-10 29t-5 29 7 20 24 8q19 0 35-10t29-26 22-37 14-42 5-39q0-9 0-17t-2-16-3-14q-1-9 0-15t8-10 14-3 13 6 9 19q2 7 3 15t2 17 0 18q0 22-6 48t-20 52-32 47-43 34-54 13q-22 0-37-6t-21-18-9-25q-10 16-24 27t-29 17-33 5m365-2q-8 0-15-3t-4-13l75-233q4-10 8-13t15-3q15 0 19 5t1 15l-12 39q12-15 24-26t26-19 25-12 25-4q12 0 22 4t16 11q6 4 6 10t-5 14q-5 9-11 11t-10-2q-9-5-15-7t-13-1q-14 0-30 7t-31 21-30 33-26 43l-36 110q-2 7-8 10t-16 3m270 1q-32 0-43-23t2-61l54-166q3-10 8-13t14-3q16 0 20 5t1 15l-58 178q-5 15-3 22t12 8q6 0 12-3t11-10 10-11q3-4 8-6t13 4q8 5 8 10t-2 11q-7 11-17 21t-22 16-28 6m66-343q-10 0-17-6t-7-19q0-14 9-26t27-12q11 0 18 6t7 20q0 13-9 25t-28 12m96 343q-27 0-38-13t-11-33 9-48l41-124h-40q-5 0-7-5t0-15q3-10 8-15t11-5h41l32-99q3-10 7-13t15-3q16 0 20 4t1 15l-31 96h63q5 0 7 4t0 16q-3 9-8 14t-10 6h-65l-47 145q-6 18-3 26t13 9q15 0 27-10t21-20q3-5 8-6t13 3q8 5 9 10t-3 11q-6 10-17 22t-28 20-38 8m228 1q-30 0-50-13t-32-34-10-50q0-27 10-58t30-56 49-42 70-16q22 0 38 7t25 19 10 32q0 19-11 36t-28 29-44 23-57 15-66 7l10-35q25-1 47-5t42-10 33-15 22-18 7-19q0-13-8-20t-25-6q-28 0-48 13t-34 33-21 43-6 42q0 18 6 31t19 20 27 7 26-5 22-13 21-18q7-6 13-5t13 6q6 6 7 13t-5 13q-17 18-34 28t-33 16-35 5m367-1q-22 0-37-9t-23-23-7-33q0-25 10-51t28-49q5-7 11-8t15 4q9 4 11 10t-3 14q-12 19-20 38t-8 37q0 9 3 15t9 10 16 4q11 0 22-7t22-22 23-39 26-60 29-84l75-233q3-7 9-11t17-3q10 0 15 5t7 15l83 385 81-246q14-45 29-75t31-49 34-27 41-9q13 0 26 3t26 10 23 14q7 6 8 12t-4 15q-4 7-11 8t-14-4q-14-8-28-12t-28-5q-13 0-25 7t-22 21-21 38-22 59l-105 319q-2 8-8 11t-17 4q-7 0-12-2t-6-8-6-20l-81-377-52 162q-19 57-36 99t-33 71-32 45-33 24-36 7m763 1q-37 0-67-12t-51-37-33-57-11-74q0-35 7-72t24-73 38-68 52-56 66-39 80-14q37 0 66 13t51 36 33 56 11 75q0 37-8 75t-24 75-39 67-52 55-66 37-77 13m7-42q34 0 62-12t53-32 42-48 30-58 19-62 7-61q0-35-8-62t-23-46-39-27-52-9q-33 0-62 11t-52 33-42 48-32 57-19 62-7 61q0 35 8 62t23 45 39 28 53 10" />
</svg>