<svg id="fnt-Playwrite AT" viewBox="0 0 3596 1000" xmlns="http://www.w3.org/2000/svg"><path id="playwrite-at" class="f" d="M85 674q-22 0-22-14v-417q0-7 5-11t17-3h95q50 0 84 11t50 35 18 64q0 38-15 65t-38 44-51 26-56 15q-18 2-35 3t-30 2v166q0 7-6 10t-16 4m22-405v185q9 0 20 0t22-2 23-3q29-5 55-17t43-34 17-59q0-25-12-41t-36-22-59-7h-73m198 406q-10 0-14-6t-5-13 5-13 14-5q13 0 27-7t29-19 28-30 28-38 25-45 21-49 17-52 11-53 4-52q0-7 6-11t15-4 15 4 7 11q0 22-5 48t-13 55-20 56-25 56-30 52-34 46-35 37-36 24-35 8m154 0q-12 0-21-3t-15-11-8-17-3-23v-293q0-56 17-82t50-26q19 0 32 8t20 25 7 40q0 9-7 14t-15 4-15-4-6-14q0-12-2-19t-6-11-10-3q-8 0-13 7t-7 24-2 46v278q0 8 1 13t4 7 6 2 8-3 7-7 7-12q3-4 7-5t11 3q6 3 8 7t0 9q-6 15-14 25t-19 16-22 5m205 0q-26 0-45-14t-30-41-10-66q0-26 4-49t14-41 23-31 32-19 39-7q17 0 32 4t30 12v-1q0-6 6-10t16-3 16 3 6 10v193q0 8 1 13t4 7 7 2 7-3 6-7 8-12q2-4 7-5t10 3q7 3 9 7t0 11q-4 12-12 22t-19 16-23 6q-12 0-21-3t-15-11-9-16-3-21q0-7-1-14t0-15q-9 27-23 44t-31 27-35 9m-41-122q0 24 4 42t16 30 28 10q18 0 34-15t28-44 20-68v-46q-15-9-29-13t-26-3q-14 0-26 5t-21 13-16 21-9 30-3 38m481 139v-43q9-6 17-12t15-10 13-9 11-6q8-5 14-3t8 9 1 14-9 11q-7 5-16 11t-17 12-18 13-19 13m-84 172q-19 0-34-8t-23-20-8-30q0-13 4-26t15-27 26-28 38-31q9-6 18-13t18-13v-81q-8 24-20 41t-24 27-26 15-26 5q-21 0-37-8t-26-26-10-49v-170q0-6 5-10t16-3q11 0 17 3t5 10v166q0 16 4 27t12 16 21 5q16 0 30-10t26-31 19-46 14-57v-70q0-6 5-10t17-3 16 3 6 10v313q0 30-7 54t-20 41-30 25-41 9m4-39q12 0 21-6t16-17 10-29 3-41v-20q-6 4-12 9t-12 9q-14 10-23 19t-16 18-9 17-3 17q0 6 3 11t8 9 14 4m270-149q-15 0-28-5t-22-16-14-25-5-36v-172q0-6 5-9t17-4 16 4 6 9v159q0 16 2 29t10 19 19 7q14 0 26-10t21-26 16-36 9-39v-103q0-5 4-9t17-4q12 0 17 4t5 9v148q0 17 1 30t7 20 12 12 19 4q10 0 19-5t17-14 13-21 10-25 6-29 2-29q0-28-3-46t-9-26-14-9q-7 0-10 4t-3 9q0 7 5 12t16 6 24 3q23 0 39-7t35-21q4-3 8 0t8 9 4 11-3 9q-21 16-42 24t-51 8q-24 0-42-7t-27-18-10-31q0-14 7-24t17-16 24-5q24 0 39 14t24 41 8 59q0 20-3 40t-11 38-16 34-23 27-28 19-34 6q-21 0-37-7t-25-23-14-39q-9 21-21 36t-27 24-32 9m263-1q-9 0-14-6t-5-13 5-13 14-5q17 0 31-11t28-34 24-60 23-87l29 7q-12 61-25 103t-29 69-36 38-45 12m271 0q-13 0-22-4t-15-10-8-17-3-22q0-14 1-32t3-39 2-39 2-33q0-16-5-21t-14-5q-12 0-29 4t-32 10-24 5q-9 0-18-10t-13-23-5-27q0-9 3-17t10-12 16-4q14 0 19 9t5 22q0 6-1 11t-2 11q6 0 19-5t31-11 33-6q16 0 27 6t17 21 6 40q0 14-2 33t-2 40-3 38-1 29q0 10 3 15t9 5q4 0 7-3t7-7 8-12q3-4 7-5t11 3q6 3 8 7t0 9q-6 15-14 25t-19 16-22 5m155 0q-23 0-35-14t-12-40v-199q0-6 5-10t16-3q11 0 16 3t6 10v193q0 12 3 17t9 5q4 0 7-3t6-7 7-12q3-4 7-5t11 3q6 3 8 7t0 9q-5 15-14 25t-18 15-22 6m-28-343q-14 0-21-8t-7-23q0-16 7-24t21-8 21 8 7 24q1 16-7 23t-21 8m55 343q-6 0-9-6t-2-13 4-13 11-5q13 0 27-15t29-41 30-58 30-69 26-70 21-66 15-53 5-31q0-7 5-10t16-3 16 3 6 10v376q18-6 36-20t40-37 49-55q2-4 6-5t11 3q7 4 7 9t-2 8q-22 29-46 55t-48 46-53 28v18q0 7-6 10t-16 3-16-3-5-10v-12q-16-1-31-7t-22-14-9-25q0-14 11-24t27-9q7 0 13 1t11 5v-208q-10 33-22 68t-26 70-31 65-33 54-37 37-38 13m160-70q0 3 2 5t8 5 16 2q-1-9-7-13t-11-5q-8 0-8 6m329 71q-25 0-45-10t-34-27-24-38-13-42-5-41q0-18 4-35t12-30 18-24 25-16 31-6q21 0 36 9t22 24 8 32q0 18-7 38t-20 38-28 37q-23 26-52 46t-60 33-59 11q-7 0-10-6t-3-13 7-13 16-5q20 0 43-10t45-25 40-35q13-15 23-31t15-31 6-29q0-18-7-24t-20-6q-7 0-14 3t-13 12-10 22-3 32q0 20 5 41t17 39 26 29 34 11q15 0 26-6t21-15 19-21q6-7 13-7t13 6 9 11-3 12q-14 21-31 34t-36 19-37 7m307-1q-10 0-21-3t-20-7-17-11q-6-5-7-12t5-14q5-7 10-8t12 3q11 6 20 9t18 3q12 0 23-7t23-21 23-35 23-53 23-71 24-91 26-112q3-14 12-19t22-4q14 0 23 4t11 19q5 25 11 54t14 59 15 63 17 63 19 63q7 22 14 38t13 28 14 17 14 5q11 0 19-9t14-29 11-53q0-8 6-11t15-1q9 1 14 5t3 12q-3 44-14 72t-28 41-41 13q-15 0-28-6t-24-20-21-35-21-54q-2-7-4-14t-5-12h-131q-11 29-23 52t-24 41-25 27-28 16-29 5m143-180h105q-9-35-18-71t-17-71-15-69q-14 64-28 116t-27 95m481 179q-22 0-22-14v-391h-129q-8 0-11-4t-3-16q0-11 3-16t11-4h302q8 0 11 4t3 16q0 11-3 16t-11 4h-129v391q0 7-6 11t-16 3" />
</svg>