<svg id="fnt-Playwrite PE" viewBox="0 0 3523 1000" xmlns="http://www.w3.org/2000/svg"><path id="playwrite-pe" class="f" d="M209 478q-10 0-14-5t-5-16q0-10 5-15t13-6q39-1 70-12t54-31 34-47 11-62q0-41-20-62t-55-21q-23 0-44 10t-37 31-30 48-19 61-7 71v238q0 7-6 10t-16 4-16-4-6-10v-396q-9 16-20 30t-26 27-32 26q-7 5-14 3t-13-10q-5-9-4-15t8-12q27-18 46-39t33-47 21-55q2-8 7-10t16-3q11 0 16 3t6 11v89q15-33 37-56t47-35 56-12q35 0 62 15t41 42 15 67q0 43-16 78t-44 60-68 41-86 16m189 197q-10 0-14-6t-5-13 5-13 14-5q14 0 28-8t29-21 29-33 26-43 25-50 20-57 16-60 11-63 3-62q0-8 7-12t15-3 15 3 6 12q0 29-4 61t-12 64-20 65-25 63-29 58-33 50-35 39-36 25-36 9m149 0q-13 0-22-3t-15-11-8-16-3-23v-359q0-54 17-80t51-26q20 0 34 10t20 28 7 46q0 9-6 14t-15 4-15-4-7-14q0-15-2-25t-6-14-12-5q-8 0-13 7t-8 22-2 42v348q0 8 1 12t5 7 7 2 7-2 7-6 8-10q3-4 7-4t10 4q6 4 7 8t0 10q-6 12-15 20t-18 13-21 5m208 0q-26 0-47-14t-31-41-11-68q0-26 4-48t15-41 23-30 31-19 39-7q17 0 32 4t31 13v-2q0-6 6-10t16-3q11 0 16 3t6 10v194q0 8 1 12t4 7 8 2 7-2 7-6 7-10q3-4 8-4t10 3q5 4 7 9t0 10q-5 11-14 19t-18 14-22 5-21-3-14-10-10-15-3-19q0-5-1-10t0-11q-10 23-24 38t-30 23-32 7m-45-124q0 25 5 44t17 30 30 10q17 0 32-12t27-35 20-55v-71q-15-9-29-13t-28-3q-14 0-25 4t-21 13-16 21-9 29-3 38m496 154l-3-43q8-6 16-13t15-11 14-10 11-7q7-5 13-3t8 9 2 13-8 12q-7 5-15 11t-17 13-18 15-18 14m-85 221q-32 0-52-18t-19-49q0-16 5-32t14-33 25-34 35-36q8-6 15-13t15-14 16-13v-83q-8 19-19 33t-23 23-25 14-25 4q-24 0-41-9t-28-27-9-50v-115q0-15-4-22t-13-6q-7 0-12 3t-10 12-7 19q-3 8-9 11t-13 1q-7-2-11-7t-2-14q6-19 14-33t21-22 31-8q16 0 27 5t18 14 10 22 3 30v107q0 17 4 28t13 17 24 6q16 0 29-9t24-25 19-37 13-47v-97q0-6 5-10t17-3 16 3 6 10v375q0 30-7 54t-20 41-30 25-40 9m3-38q16 0 27-11t18-31 6-51v-63q-6 4-11 8t-9 8-8 8q-14 13-23 26t-16 24-10 25-3 24q0 10 3 17t10 12 16 4m289-212q-18 0-32-6t-22-18-13-28-4-38v-112q0-15-4-22t-13-6q-6 0-12 3t-10 12-7 19q-3 8-9 11t-13 1q-7-2-11-7t-1-14q5-19 13-33t22-22 30-8q16 0 27 5t18 14 10 22 3 30v95q0 18 2 30t6 19 11 10 16 4q12 0 24-9t22-24 16-36 6-45l20 12q-3 28-11 54t-20 45-29 30-35 12m155 0q-20 0-35-6t-25-20-15-32-5-46v-150q0-6 5-10t16-3 17 3 5 10v146q0 18 2 31t6 21 13 12 20 4q10 0 19-4t16-12 13-18 10-24 7-28 2-32q0-31-4-51t-9-28-15-8q-8 0-11 4t-3 10q0 7 5 12t16 8 28 3q22 0 38-8t35-20q5-3 9-1t8 9 4 12-4 9q-21 16-42 24t-49 8q-27 0-45-7t-28-20-9-31q0-13 6-24t16-16 25-5q25 0 41 15t23 43 8 62q0 21-3 41t-10 37-16 32-22 26-29 16-34 6m113-1q-10 0-14-6t-5-13 4-13 14-5q17 0 31-12t26-34 22-60 20-85l29 7q-9 59-21 101t-27 69-35 39-44 12m266 0q-13 0-22-4t-15-10-8-17-3-23q0-13 1-32t2-38 3-38 1-32q0-17-4-23t-16-6q-13 0-30 5t-32 10-26 5q-9 0-17-10t-14-23-5-28q0-9 3-16t9-12 16-4q15 0 20 10t6 24q0 5-1 9t-2 10q6 0 19-5t32-11 33-6q18 0 29 7t17 21 6 40q0 14-1 33t-3 39-2 37-1 29 3 16 9 5q5 0 8-2t8-6 7-10q3-4 8-4t10 4q5 4 7 8t-1 10q-6 12-14 20t-18 13-22 5m154 0q-24 0-36-14t-12-39v-200q0-6 5-10t16-3q11 0 16 3t6 10v194q0 12 3 16t10 5q5 0 8-2t6-6 8-10q2-4 7-4t10 4q5 3 7 8t-1 9q-6 12-14 21t-18 13-21 5m-28-343q-14 0-21-8t-7-23q0-16 7-24t21-8q14 0 21 8t7 24q0 16-7 23t-21 8m201 343q-20 0-33-8t-20-22-6-36v-152h-39q-8 0-11-5t-3-15q0-12 3-16t11-4h39v-102q0-7 5-10t16-3q11 0 16 3t6 10v102h63q8 0 11 4t3 16q0 11-3 15t-11 5h-63v148q0 17 4 24t16 8q11 0 19-7t18-20q4-5 9-5t11 4q6 4 8 9t-1 11q-8 16-18 26t-24 15-26 5m222 1q-23 0-43-10t-34-26-25-37-15-44-5-45q0-18 4-34t11-29 18-24 25-15 30-5q24 0 39 10t24 26 8 35q0 18-7 36t-19 38-28 36q-22 25-51 45t-59 31-60 11q-7 0-10-6t-3-13 6-13 17-5q21 0 44-10t45-25 39-34q13-14 22-29t14-30 5-28q0-20-8-28t-22-7q-7 0-15 3t-13 12-9 21-3 29q0 24 6 46t18 39 27 28 33 11q13 0 23-6t21-14 19-19q6-8 13-8t13 6 9 11-3 13q-13 20-30 33t-35 18-36 6m434-198q-10 0-14-5t-5-16q0-10 5-15t13-6q39-1 70-12t54-31 34-47 11-62q0-41-20-62t-55-21q-23 0-44 10t-37 31-30 48-19 61-7 71v238q0 7-6 10t-16 4-16-4-6-10v-396q-9 16-20 30t-26 27-32 26q-7 5-14 3t-13-10q-5-9-4-15t8-12q27-18 46-39t33-47 21-55q2-8 7-10t16-3q11 0 16 3t6 11v89q15-33 37-56t47-35 56-12q35 0 62 15t41 42 15 67q0 43-16 78t-44 60-68 41-86 16m431 198q-48 0-84-16t-55-47-20-75q0-25 8-47t21-40 34-30 45-17q-27-8-47-25t-30-39-10-49q0-24 7-45t20-36 31-27 41-18 48-6q26 0 49 6t44 18 36 28q10 10 10 17t-9 15q-7 6-14 4t-14-8q-12-11-28-19t-35-13-41-4q-23 0-42 6t-31 17-20 27-6 37q0 27 12 48t34 34 51 13h70q7 0 10 4t4 16q0 11-4 15t-10 5h-68q-26 0-48 8t-38 23-25 35-9 45q0 31 14 53t39 32 60 12q25 0 47-8t41-21 36-37q7-9 13-11t13 4q10 6 11 13t-6 18q-18 27-42 46t-53 29-60 10" />
</svg>