<svg id="fnt-Playwrite RO" viewBox="0 0 3795 1000" xmlns="http://www.w3.org/2000/svg"><path id="playwrite-ro" class="f" d="M252 477q-9 0-11-6t-1-14 7-13 13-6q33 0 65-7t59-18 49-30 34-42 12-54q0-22-10-38t-27-28-43-16-57-5q-40 0-76 8t-66 24-53 37q-8 7-16 4t-12-10q-4-6-3-13t6-12q20-18 43-33t52-25 61-15 67-6q46 0 80 9t56 27 33 40 11 52q0 38-15 67t-42 52-61 38-74 23-81 10m-185 198q-18 0-35-8t-27-20-17-26q-3-9-1-15t10-9q9-4 15-2t11 10q7 10 14 16t16 9 19 3q20 0 33-16t27-56l96-300q2-7 8-11t18-3q11 0 16 3t3 12l-95 295q-12 39-28 65t-35 40-48 13m327 0q-10 0-13-6t-1-13 8-13 15-5q17 0 38-10t43-28 46-41 45-52 43-58 38-60 30-60 20-55 8-46q0-7 6-11t15-4 16 4 7 11q0 22-8 49t-23 60-35 64-44 67-50 64-53 56-54 46-51 30-46 11m157 0q-22 0-33-8t-16-21-1-29 8-34l113-350q13-40 33-58t48-18q17 0 29 9t19 24 7 38q0 10-7 14t-16 5-15-5-6-14-3-16-6-9-10-3q-5 0-11 3t-10 12-10 22l-118 370q-2 6-3 13t1 12 12 6q7 0 13-4t11-9 8-10q3-4 8-6t14 3q9 5 8 11t-2 11q-5 9-15 18t-21 17-29 6m202 0q-23 0-39-10t-25-29-9-45q0-22 6-47t18-49 32-44 45-32 59-12q18 0 34 6t29 14l1-2q3-10 8-13t14-3q16 0 20 5t1 15l-58 178q-2 6-3 13t1 12 12 6q7 0 13-4t11-9 8-10q3-4 9-6t13 3q9 5 9 11t-3 11q-5 9-14 18t-22 17-28 6q-14 0-24-3t-16-9-9-14-3-18q0-1 0-3t0-2q-16 20-32 31t-32 14-26 4m-28-88q0 16 5 26t14 17 24 5q16 0 32-9t31-25 28-39l34-102q-13-8-25-11t-25-2q-26 0-46 9t-34 25-22 35-12 37-4 34m450 132l5-43q9-5 18-10t19-10 18-8 15-7q8-3 12 1t5 11 0 13-8 10q-10 4-20 9t-22 11-21 11-21 12m-139 207q-31 0-49-17t-18-44q0-23 9-43t28-39 42-35 54-32q8-4 16-9t16-9 17-8l18-57q-10 10-21 18t-22 13-24 8-23 3q-28 0-45-12t-21-35 5-51l33-106q4-12 1-18t-12-6q-8 0-15 4t-14 14-14 24q-4 6-8 9t-13 3q-10-1-13-7t0-15q8-20 20-36t27-25 33-9q16 0 27 6t18 15 7 25-5 32l-28 90q-6 21-5 34t10 19 28 6q12 0 24-5t26-14 25-23 21-30l45-139q4-10 8-13t15-3q15 0 19 5t1 15l-118 364q-12 36-25 62t-28 41-33 23-39 7m6-38q15 0 29-11t27-33 20-52l17-53q-5 2-9 5t-8 4-8 5q-22 13-40 26t-31 26-20 26-6 28q0 10 3 16t11 9 15 4m372-212q-28 0-43-9t-21-25-3-35 8-37l32-99q4-12 0-18t-11-6q-9 0-17 4t-15 14-15 24q-4 6-8 9t-14 3q-9-1-13-7t1-15q8-20 21-36t28-25 35-9q16 0 27 6t18 15 7 25-5 32l-27 80q-3 9-6 21t-2 23 7 19 23 7q14 0 27-8t22-19 17-26 11-28l2 51q-5 14-14 27t-21 22-24 15-27 5m154 0q-25 0-43-8t-27-23-11-34 7-41l46-145q3-10 8-13t14-3q16 0 20 5t1 15l-44 138q-4 12-6 24t1 22 11 17 27 6 34-8 29-22 23-33 17-39 11-42 4-40q0-10-3-16t-5-7-6-1q-8 0-13 6t-4 16q0 7 4 12t13 7 20 3q24 0 47-7t41-17q5-3 10 0t8 9 3 12-4 9q-23 11-49 19t-59 8q-23 0-38-7t-22-19-7-25 5-26 18-21 32-8q13 0 23 6t18 18 6 34q0 23-4 48t-13 50-22 47-31 38-41 27-49 9m109-1q-9 0-12-6t-1-13 8-13 16-5q13 0 27-8t27-24 27-38 28-54 27-68l29 13q-22 61-42 102t-41 67-43 36-50 11m278 0q-19 0-31-6t-16-16-5-23 5-28q4-13 11-29t14-32 15-33 11-32q4-14-1-19t-12-5q-12 0-27 3t-32 7-30 7-22 3q-18 0-33-7t-22-18-8-28q0-24 14-39t36-15q18 0 28 10t12 24-3 33q4 0 16-3t26-8 32-8 28-3q15 0 26 7t16 22-3 42q-4 14-11 30t-14 34-16 34-12 34q-3 12-1 18t13 7q7 0 13-4t11-9 8-10q3-4 9-6t13 3q9 5 9 11t-3 11q-5 9-14 18t-22 17-28 6m-127-236q4-12 4-22t-3-16-11-6q-7 0-11 5t-4 15q0 10 7 17t18 7m277 236q-34 0-46-22t1-61l54-167q3-10 7-13t15-3q16 0 20 5t1 15l-57 176q-5 16-3 24t13 9q7 0 14-4t11-9 8-10q3-4 8-6t14 3q8 5 8 11t-3 11q-5 9-14 18t-23 17-28 6m62-343q-10 0-17-6t-7-19q0-14 9-26t27-12q10 0 17 6t8 20q0 13-9 25t-28 12m98 343q-29 0-40-14t-10-35 10-48l39-121h-40q-5 0-7-5t0-15q3-10 8-15t10-5h42l32-99q3-10 7-13t15-3q16 0 20 4t1 15l-31 96h63q6 0 8 4t-1 16q-3 9-8 14t-10 6h-64l-47 145q-6 17-3 26t14 10q16 0 28-11t18-18q3-4 8-6t13 3q9 5 9 10t-3 11q-6 11-17 22t-26 19-38 7m236 1q-17 0-33-6t-29-17-23-26-15-34-5-41q0-20 5-40t14-39 24-34 32-23 42-9q22 0 36 8t21 22 7 32q0 30-14 57t-35 50-46 40q-27 18-57 31t-59 21-57 7q-7 0-10-6t-2-13 7-13 17-5q24 0 49-7t48-20 44-28q16-12 32-29t27-37 11-40q0-15-7-22t-21-8q-15 0-27 10t-20 26-12 34-4 32q0 20 5 36t15 28 22 17 25 6q12 0 23-4t23-12 21-16q7-6 13-5t12 6q7 7 8 14t-5 13q-16 15-33 25t-34 14-35 5m653 0q-12 0-23-3t-21-11-19-20-17-29-15-40q-3-12-7-22t-5-21-6-20-5-19-4-20-4-19q-14-1-23-10t-9-19q0-12 8-21t24-8q11 0 19 5t15 13q32-5 59-17t49-28 33-40 12-49q0-20-9-34t-25-25-40-14-53-5q-41 0-77 8t-66 24-53 37q-7 7-15 4t-12-10-4-13 7-12q19-18 43-33t52-25 60-15 68-6q44 0 76 9t53 24 31 38 10 47q0 28-10 52t-27 44-41 34-53 25-61 17q2 8 4 16t4 15 4 15 4 16 5 17 5 18q7 22 13 38t13 26 12 16 13 7 12 3q16 0 31-12t33-35q6-8 13-8t14 7q6 5 6 11t-4 15q-10 17-26 31t-34 23-37 8m-341-1q-19 0-35-8t-28-20-16-26q-3-9-1-15t10-9q9-4 14-2t12 10q6 10 14 16t16 9 18 3q20 0 34-16t26-56l96-300q3-7 9-11t17-3q12 0 17 3t2 12l-94 295q-13 39-28 65t-35 40-48 13m688 1q-42 0-74-13t-53-36-32-58-11-75q0-34 7-69t20-69 32-64 42-56 53-43q14-8 20-7t12 9q7 9 5 16t-15 15q-25 17-45 39t-37 50-26 56-16 60-6 61q0 32 8 58t24 45 40 29 57 10q32 0 62-12t58-34 49-51 38-63 25-72 9-76q0-34-6-58t-18-39-28-22-37-7q-18 0-33 6t-29 16-26 26-26 36q-6 8-13 9t-16-4q-8-4-8-12t5-16q17-25 35-45t37-32 41-19 44-6q31 0 54 11t39 32 24 52 8 72q0 45-11 89t-30 83-47 72-59 56-70 37-76 13" />
</svg>