<svg id="fnt-Playwrite PT" viewBox="0 0 3679 1000" xmlns="http://www.w3.org/2000/svg"><path id="playwrite-pt" class="f" d="M241 459q-9 1-13-5t-4-14 3-13 11-6q35-1 64-9t52-22 39-32 24-43 9-50q0-26-11-46t-30-33-49-20-64-6q-47 0-86 9t-69 28-56 46q-6 6-13 7t-14-5q-8-6-9-13t5-14q19-24 45-42t56-31 67-20 77-6q47 0 84 9t62 29 38 46 13 62q0 33-11 62t-30 52-48 41-64 27-78 12m-131 217q-22 0-40-9t-30-20-19-22q-5-9-5-16t9-12q9-6 15-4t13 9q9 10 17 17t18 10 24 4q21 0 31-17t10-53v-338q0-7 6-11t16-3 17 3 5 11v342q0 33-10 57t-28 38-49 14m353-1q-10 0-14-6t-5-13 5-13 14-5q15 0 30-8t29-22 28-35 25-46 22-54 19-62 14-66 9-70 3-71q0-7 6-12t15-4 16 4 6 12q0 36-4 73t-11 73-17 72-23 67-27 61-32 51-34 39-37 26-37 9m139 0q-13 0-23-3t-15-10-9-17-2-21v-411q0-49 16-73t51-23q22 0 36 9t22 30 7 48q0 10-6 14t-16 5-15-5-6-14q0-16-3-27t-7-15-12-5q-8 0-14 5t-8 17-2 34v406q0 6 2 10t5 7 8 2 8-2 8-4 7-5q4-4 9-2t8 7q4 5 4 10t-2 9q-5 8-14 13t-18 8-19 3m215 0q-28 0-50-14t-35-41-12-71q0-26 4-48t15-39 23-30 31-18 38-7q16 0 33 5t32 14v-2q0-8 6-11t16-4 16 3 6 11v196q0 6 2 10t5 7 8 2q5 0 8-2t7-3 8-6q3-3 8-2t9 5q4 5 5 11t-2 9q-6 8-14 14t-19 8-19 3q-12 0-20-2t-15-8-9-13-5-17q0 0 0-2t-1-4q-11 19-25 29t-27 13-27 4m-53-128q0 28 6 47t20 31 33 10q15 0 28-5t25-16 20-30v-121q-15-10-30-13t-30-3q-13 0-24 4t-20 12-16 20-9 28-3 36m484 171l-4-40q8-6 16-11t16-11 14-9 12-6q7-4 13-1t8 9 1 14-8 11q-7 3-15 8t-17 11-18 13-18 12m-86 249q-23 0-41-9t-27-27-9-41q0-20 5-40t16-42 27-41 39-41q11-8 22-16t23-17v-65q-7 11-16 20t-19 15-23 9-25 3q-29 0-49-10t-29-31-10-50v-162q0-6 5-10t16-3q11 0 17 3t5 10v162q0 17 6 29t16 18 28 6q14 0 26-4t22-13 17-18 13-24v-156q0-6 5-10t16-3q11 0 16 3t6 10v417q0 30-7 54t-20 40-30 25-41 9m3-39q12 0 22-6t16-17 10-28 4-39v-98q-9 6-18 12t-17 12q-12 13-22 28t-17 31-10 32-4 32q0 13 4 22t12 14 20 5m294-253q-20 0-34-6t-24-18-15-31-4-45v-93q0-21-7-28t-18-7q-8 0-14 4t-9 13-4 20q-1 8-5 12t-13 4q-8 0-13-4t-4-16q1-22 8-38t22-24 32-9q18 0 30 5t21 16 13 26 4 36v72q0 19 1 33t6 23 13 13 21 4q10 0 21-4t21-13 15-26 6-42l14 60q-6 15-15 27t-20 20-23 12-26 4m152 1q-20 0-35-6t-26-20-16-32-5-46v-150q0-6 5-10t16-3q11 0 16 3t6 10v142q0 19 1 33t7 23 13 12 23 4q9 0 18-2t15-8 13-13 10-20 6-28 3-35q0-41-5-63t-11-31-16-8q-9 0-13 5t-3 11q0 7 5 13t18 11 35 4q19 0 36-8t35-20q6-4 11-1t8 9 3 12-4 10q-22 15-42 23t-47 8q-30 0-50-8t-30-22-9-31q0-13 5-24t16-16 26-5q26 0 43 17t24 46 8 68q0 23-4 42t-9 36-16 29-21 21-29 14-34 4m125-1q-10 0-15-6t-5-13 5-13 14-5q15 0 28-12t24-36 18-59 13-81l30 5q-4 56-14 97t-23 69-33 41-42 13m257 0q-13 0-22-3t-16-11-9-17-3-23q0-14 1-32t3-37 2-36 2-30q0-19-5-27t-18-7q-14 0-32 5t-35 10-27 5q-9 0-18-10t-13-24-6-28q0-9 3-16t9-11 15-4q16 0 22 12t5 27q0 3 0 7t0 7q6 0 19-5t31-11 36-6q20 0 33 8t18 23 6 41q0 12-2 29t-2 38-3 37-1 29q0 13 4 18t11 5q5 0 9-2t8-4 7-5q4-3 9-1t9 6q4 5 4 10t-2 9q-6 8-14 13t-18 8-20 3m151 0q-26 0-38-13t-12-38v-202q0-6 5-10t16-3q11 0 17 3t5 10v197q0 10 5 14t11 5q5 0 9-2t7-4 7-6q3-2 8 0t9 6q4 4 4 9t-2 9q-6 8-14 14t-18 8-19 3m-28-343q-14 0-21-8t-7-23q0-16 7-24t21-8q14 0 21 8t7 24q0 16-7 23t-21 8m203 343q-21 0-35-8t-21-22-6-34v-154h-39q-8 0-11-5t-3-15q0-12 3-16t11-4h39v-102q0-7 5-10t16-3q11 0 16 3t6 10v102h63q7 0 10 4t4 16q0 11-4 15t-10 5h-63v149q0 17 4 24t18 8q11 0 19-6t18-13q6-6 11-4t10 6q5 5 5 10t-2 10q-9 13-19 20t-22 11-23 3m222 0q-20 0-39-8t-34-24-28-37-18-47-6-53q0-17 4-32t11-28 18-21 24-13 28-5q28 0 46 12t26 30 8 40q0 17-7 35t-17 35-25 34q-22 24-49 42t-59 30-63 10q-7 0-10-6t-3-13 6-13 17-5q23 0 47-9t46-24 38-33q11-12 18-26t12-26 4-26q0-27-10-37t-27-10q-8 0-16 3t-12 12-9 19-3 25q0 29 8 52t22 41 29 27 29 9q9 0 18-4t19-11 20-18q7-8 13-8t14 6 8 11-3 13q-13 19-30 30t-33 16-32 5m463-216q-9 1-13-5t-4-14 3-13 11-6q35-1 64-9t52-22 39-32 24-43 9-50q0-26-11-46t-30-33-49-20-64-6q-47 0-86 9t-69 28-56 46q-6 6-13 7t-14-5q-8-6-9-13t5-14q19-24 45-42t56-31 67-20 77-6q47 0 84 9t62 29 38 46 13 62q0 33-11 62t-30 52-48 41-64 27-78 12m-131 217q-22 0-40-9t-30-20-19-22q-5-9-5-16t9-12q9-6 15-4t13 9q9 10 17 17t18 10 24 4q21 0 31-17t10-53v-338q0-7 6-11t16-3 17 3 5 11v342q0 33-10 57t-28 38-49 14m543 0q-23 0-41-9t-30-20-18-22q-6-9-5-16t9-12 15-4 13 9q8 10 17 17t19 10 23 4q21 0 31-17t10-53v-395h-79q-27 0-45 6t-27 17-15 32q-2 8-8 11t-16 0q-8-2-11-8t-1-14q5-20 15-36t26-27 38-16 50-5h279q7 0 10 4t3 16q0 11-3 16t-10 4h-162v399q0 33-9 57t-29 38-49 14" />
</svg>