<svg id="fnt-Playwrite US Modern" viewBox="0 0 5585 1000" xmlns="http://www.w3.org/2000/svg"><path id="playwrite-us-modern" class="f" d="M89 674q-22 0-22-14v-448q0-7 6-11t17-3h100q53 0 88 12t53 37 18 69q0 40-15 68t-39 46-54 29-60 16q-19 2-38 4t-32 1v180q0 7-5 10t-17 4m22-436v203q10 0 22-1t23-2 25-3q32-5 60-18t45-38 18-63q0-28-13-45t-38-25-63-8h-79m356 437q-26 0-38-13t-12-38v-421q0-6 5-10t16-3q11 0 17 3t5 10v416q0 10 5 14t11 5q5 0 9-2t7-4 7-5q4-3 9-2t9 7q2 3 3 8t-1 9q-5 9-14 14t-19 9-19 3m181 0q-28 0-50-14t-35-41-12-71q0-26 4-48t15-39 23-30 31-18 38-7q16 0 33 5t32 14v-2q0-8 6-11t16-4 16 3 6 11v196q0 6 2 10t5 7 8 2q5 0 8-2t7-3 8-6q3-3 8-2t9 5q4 5 5 11t-2 9q-6 8-14 14t-19 8-19 3q-12 0-20-2t-15-8-9-13-5-17q0 0 0-2t-1-4q-11 19-25 29t-27 13-27 4m-53-128q0 28 6 47t20 31 33 10q15 0 28-5t25-16 20-30v-121q-15-10-30-13t-30-3q-13 0-24 4t-20 12-16 20-9 28-3 36m370 128q-29 0-49-10t-29-31-10-50v-162q0-6 5-10t16-3q11 0 17 3t5 10v162q0 17 6 29t16 18 28 6q14 0 26-4t22-13 17-19 13-23v-156q0-6 5-10t16-3q11 0 16 3t6 10v357q0 38-14 64t-39 39-58 13q-22 0-40-6t-32-17-21-22q-5-7-4-15t12-14q9-4 14-4t11 8q15 16 30 24t35 7q19 0 33-8t22-25 8-45v-149q-7 10-16 19t-19 15-23 9-25 3m294-1q-11 0-16-3t-8-10l-78-227q-4-10 2-17t20-8q7 0 12 3t6 10l62 190 66-190q3-7 7-10t13-3q8 0 13 3t7 10l67 190 62-190q2-7 7-10t12-3q14 0 20 7t1 18l-79 227q-2 6-7 10t-16 3-16-4-6-9l-65-183-63 183q-2 6-8 9t-15 4m368 0q-11 0-16-3t-5-10v-179q0-21-7-28t-18-7q-8 0-14 4t-9 13-4 20q-1 8-5 12t-13 4q-8 0-13-4t-4-16q1-22 8-38t22-24 32-9q14 0 25 3t19 10 13 16 8 22l0 3q6-13 13-24t16-17 18-11 18-4q7 0 12 4t6 15q0 14 2 24t8 14 13 5q12 0 26-12t26-25q4-5 10-4t10 6 6 11-2 10q-16 20-36 34t-40 14q-14 0-26-6t-19-18-10-29q-8 3-15 9t-13 16-11 21-9 25v140q0 7-6 10t-16 3m291 1q-26 0-38-13t-11-38v-202q0-6 5-10t16-3q11 0 16 3t6 10v197q0 10 4 14t11 5q6 0 9-2t7-4 8-6q3-2 8 0t8 6q4 4 5 9t-3 9q-5 8-14 14t-18 8-19 3m-27-343q-14 0-22-8t-7-23q0-16 7-24t22-8q13 0 20 8t7 24q1 16-7 23t-20 8m202 343q-21 0-35-8t-20-22-7-34v-154h-39q-7 0-10-5t-3-15q0-12 3-16t10-4h39v-102q0-7 5-10t16-3q11 0 17 3t5 10v102h63q8 0 11 4t3 16q0 11-3 15t-11 5h-63v149q0 17 5 24t17 8q12 0 20-6t17-13q6-6 11-4t10 6q6 5 6 10t-3 10q-8 13-19 20t-22 11-23 3m219 1q-39 0-65-17t-38-45-12-61 9-61 27-45 40-30 51-10q24 0 42 7t29 22 10 38q0 19-8 34t-23 27-36 20-46 12-54 4v-35q17 0 34-2t33-7 29-12 19-16 8-22q0-16-11-23t-29-7q-16 0-31 7t-25 19-18 31-6 41q0 27 9 48t25 32 38 11q15 0 26-4t19-11 21-19q7-7 13-7t14 5 8 12-3 13q-13 19-30 30t-35 16-34 5m496 0q-38 0-68-10t-51-31-33-49-11-65v-317q0-7 6-11t16-3 17 3 5 11v317q0 35 14 60t41 39 64 14q37 0 62-14t40-39 14-60v-317q0-7 5-11t17-3q22 0 22 14v317q0 48-20 83t-55 54-85 18m398 0q-15 0-33-3t-36-10-35-17-27-27q-4-5-4-10t8-11q7-8 11-9t15 8q11 11 26 19t34 13 41 5q28 0 48-6t34-17 20-28 7-41q0-19-7-33t-20-25-30-18-39-15q-18-6-37-14t-37-19-30-26-21-36-8-48q0-29 10-50t28-37 43-23 55-8q27 0 49 7t41 20 36 28q6 5 5 10t-7 11q-6 6-12 9t-11-2q-14-11-29-21t-33-14-39-5-38 4-28 14-18 24-5 33q0 22 7 37t20 28 31 19 39 15q22 7 45 16t43 25 31 38 12 56q0 33-11 58t-30 42-49 25-65 9m430-2q-22 0-22-14v-456q0-7 6-11t16-3q10 0 14 4t8 10l166 294 167-294q3-6 7-10t14-4q22 0 22 14v456q0 7-5 10t-17 4q-21 0-21-14v-371l-144 252q-3 6-8 8t-14 3-15-2-9-9l-143-252v371q0 7-5 10t-17 4m613 2q-34 0-60-17t-41-48-15-69q0-30 8-54t24-43 37-28 47-10q33 0 59 17t41 48 15 70q0 23-5 44t-16 37-25 28-32 19-37 6m0-40q16 0 29-6t23-19 14-30 5-39q0-29-8-51t-25-32-38-12q-17 0-30 7t-23 19-14 29-5 40q0 29 8 50t25 33 39 11m275 39q-28 0-50-14t-35-41-12-71q0-26 5-48t14-39 23-30 32-18 39-7q15 0 32 5t32 13v-222q0-6 6-10t16-3q11 0 16 3t5 10v416q0 10 4 14t12 5q4 0 8-2t7-4 8-5 8-1 9 6q4 4 4 9t-2 9q-5 8-14 14t-18 8-20 3q-19 0-29-7t-15-17-4-21q0 0 0-1t0 0q-12 19-26 29t-28 13-27 4m-53-128q0 28 6 47t20 31 33 10q15 0 28-5t25-16 21-30v-119q-15-10-30-14t-31-4q-13 0-24 4t-20 12-16 20-9 28-3 36m385 129q-40 0-65-17t-38-45-12-61 9-61 26-45 40-30 51-10q25 0 43 7t28 22 11 38q0 19-9 34t-23 27-35 20-46 12-54 4v-35q16 0 33-2t34-7 28-12 20-16 7-22q0-16-11-23t-28-7q-17 0-31 7t-26 19-17 31-6 41q0 27 8 48t25 32 39 11q15 0 25-4t20-11 20-19q8-7 14-7t13 5 9 12-4 13q-12 19-29 30t-35 16-34 5m197-2q-11 0-16-3t-5-10v-179q0-21-7-28t-18-7q-8 0-14 4t-9 13-4 20q-1 8-5 12t-13 4q-8 0-13-4t-4-16q1-22 8-38t22-24 32-9q14 0 25 3t19 10 13 16 8 22l0 3q6-13 13-24t16-17 18-11 18-4q7 0 12 4t6 15q0 14 2 24t8 14 13 5q12 0 26-12t26-25q4-5 10-4t10 6 6 11-2 10q-16 20-36 34t-40 14q-14 0-26-6t-19-18-10-29q-8 3-15 9t-13 16-11 21-9 25v140q0 7-6 10t-16 3m275 0q-10 0-16-3t-5-10v-179q0-21-6-28t-18-7q-9 0-15 4t-9 13-4 20q0 8-4 12t-13 4q-8 0-13-4t-5-16q1-22 9-38t21-24 33-9q13 0 23 3t18 8 14 15 8 21l1 4q7-12 17-22t20-16 24-11 27-4q26 0 46 10t31 29 11 54v119q0 6 2 10t6 7 8 2 8-2 8-4 7-5q4-3 9-1t8 6q4 5 4 10t-2 9q-6 8-14 13t-18 8-19 3q-13 0-23-3t-15-10-9-17-3-21v-120q0-18-5-31t-16-19-30-7q-10 0-22 3t-21 10-20 18-16 27v156q0 7-5 10t-17 3" />
</svg>