<svg id="fnt-Playwrite US Trad" viewBox="0 0 5228 1000" xmlns="http://www.w3.org/2000/svg"><path id="playwrite-us-trad" class="f" d="M234 478q-9 1-13-5t-3-16q1-9 5-15t12-5q50-4 90-20t69-40 45-56 15-66q0-27-12-41t-36-13q-21 0-43 10t-46 31-44 47-39 60-32 71l-77 240q-2 7-8 10t-18 4q-11 0-16-4t-3-11l129-398q-12 13-26 24t-30 23-32 23q-10 7-17 5t-13-12q-5-8-4-15t11-13q29-18 54-38t47-40 36-44q6-9 11-12t16-3q12 0 17 4t2 11l-26 83q23-31 49-53t53-34 55-11q27 0 46 11t31 31 10 48q0 47-19 87t-56 71-84 49-106 22m102 197q-10 0-13-6t0-13 8-13 14-5q11 0 29-10t41-26 48-40 52-50 51-57 46-60 38-61 25-58 10-51q0-8 6-12t15-3 14 3 7 12q0 24-11 54t-28 62-42 66-52 67-57 62-59 55-56 45-49 29-37 10m165-1q-19 0-27-8t-10-21 1-26 7-26l106-324q18-59 41-85t55-27q16 0 27 9t19 23 7 36q0 9-7 14t-14 4-15-4-6-14q0-9-2-15t-5-9-10-4q-8 0-16 7t-15 24-19 51l-110 336q-2 9-3 14t1 6 5 1q5 0 10-3t12-10 13-14q4-5 8-6t9 3q9 5 10 10t-1 10q-4 8-14 19t-25 20-32 9m198 1q-17 0-30-9t-20-25-7-39q0-23 7-50t21-52 34-46 47-34 58-13q14 0 30 4t31 11l0-2q3-7 8-9t13-2q16 0 20 5t1 15l-63 186q-3 9-3 14t2 6 4 1q5 0 10-3t12-10 13-14q4-5 8-6t10 3q8 5 9 10t0 10q-5 8-15 19t-24 20-33 9-27-8-10-21 1-26 7-26q1-1 1-3t1-2q-21 29-42 49t-39 29-35 9m-11-81q0 12 3 22t8 14 14 5q17 0 40-19t47-54 52-88l6-17q-16-6-31-8t-25-2q-22 0-40 10t-32 26-23 36-14 39-5 36m442 114l7-45q10-7 20-13t19-12 18-11 15-8q8-4 13-1t6 10 0 13-7 10q-10 6-21 12t-23 14-23 15-24 16m-139 218q-18 0-31-7t-21-19-8-28q0-18 7-35t20-36 35-37 48-39q17-12 34-23t34-24l35-106q-16 25-32 43t-33 32-34 20-35 7q-23 0-36-11t-13-34 9-54l50-150q4-10 8-13t15-3q15 0 19 5t1 15l-53 158q-4 12-6 23t4 18 18 6q18 0 38-15t42-42 43-64 39-80l3-8q3-10 8-13t14-3q16 0 20 5t1 15l-118 363q-12 36-25 61t-27 42-33 24-40 7m7-38q12 0 23-7t19-19 18-31 15-41l19-56q-10 6-19 12t-19 13q-21 16-37 31t-24 28-14 25-4 22q0 6 3 11t7 9 13 3m341-212q-23 0-35-9t-17-26-2-37 10-42l45-137q2-8 6-12t17-4q16 0 20 4t0 15l-47 145q-6 17-8 31t2 23 21 9q14 0 28-10t28-27 26-37 21-41l31-96q2-8 6-12t16-4q17 0 20 4t0 15l-43 138q-2 8-4 19t-3 24 6 19 20 8q17 0 33-11t30-28 25-40 17-46 6-44q0-4 0-10t0-11-2-12q-1-9 0-15t7-9 12-3q10 0 15 6t9 18q1 4 1 9t1 9 0 10q0 28-8 57t-23 59-35 51-46 37-53 13q-23 0-36-9t-19-24-5-31q-12 19-27 34t-31 22-35 8m254-1q-10 0-13-6t-2-13 8-13 15-5q18 0 37-11t40-33 46-59 51-88l28 13q-30 61-57 102t-52 66-50 36-51 11m280-1q-18 0-27-7t-11-18 0-23 5-22q3-8 9-23t13-33 14-36 11-33q4-15 2-21t-13-5q-11 0-24 4t-27 10-30 5q-9 0-15-8t-11-19-3-25q0-10 3-20t11-15 20-6q10 0 16 7t6 16q0 7-2 14t-5 16q5 0 18-5t30-11 35-6q16 0 25 8t11 22-4 40q-4 14-11 33t-14 38-15 36-10 28q-5 14-2 17t7 4q5 0 10-3t11-10 12-14q4-5 8-6t10 3q8 5 9 10t0 10q-5 8-15 19t-24 20-33 9m154 0q-28 0-35-22t7-65l53-162q3-10 8-13t14-3q16 0 20 5t1 15l-61 186q-4 11-3 16t8 5q4 0 9-3t10-9 14-15q4-5 8-6t9 3q8 5 10 10t-1 10q-11 17-22 27t-24 16-25 5m78-342q-10 0-17-6t-7-19q0-14 9-26t27-12q11 0 18 6t7 20q0 13-9 25t-28 12m89 342q-20 0-31-9t-14-28 7-44l44-136h-38q-5 0-7-5t0-15q3-10 8-15t11-5h40l32-99q3-10 8-13t15-3q15 0 19 4t1 15l-32 96h63q6 0 8 4t-1 16q-2 9-7 14t-11 6h-65l-49 147q-5 17-3 25t12 7q10 0 23-9t28-27q5-5 9-5t12 4q8 4 9 9t-1 9q-6 10-18 23t-31 24-41 10m233 1q-19 0-33-6t-26-15-18-24-11-30-4-33q0-18 4-40t13-43 23-38 33-28 46-11q15 0 27 6t20 18 7 29q0 22-14 47t-38 49-52 45q-29 22-61 38t-60 27-50 9q-7 0-11-6t-3-13 7-13 16-5q16 0 39-9t51-24 51-33q23-17 41-34t28-35 11-31q0-12-5-18t-15-7q-15 0-27 12t-21 31-12 39-4 37q0 14 4 27t10 22 18 15 25 5q16 0 30-7t29-18 26-24q6-7 14-5t13 8 5 11-5 14q-19 24-39 37t-41 19-41 5m449 0q-36 0-56-15t-24-44 11-71l99-306q6-20 5-29t-11-9q-8 0-18 7t-22 20-27 35q-8 12-16 14t-17-3q-7-5-9-12t5-15q26-36 47-55t38-26 31-7q31 0 41 21t-3 60l-98 303q-10 29-9 49t11 30 34 10q21 0 42-10t44-29 44-45 41-57 37-68l81-249q3-7 9-11t17-3q11 0 16 3t3 12l-131 401q-7 20-9 32t0 19 9 6q9 0 22-12t35-41q6-8 11-9t13 3q8 6 9 13t-3 14q-8 12-19 25t-23 24-27 18-30 7q-20 0-31-10t-11-33 9-55q2-7 4-14t5-13q-20 29-42 52t-44 39-47 25-46 9m657 1q-19 0-37-4t-34-12-29-18-22-22q-7-10-6-17t9-13q7-6 13-5t13 8q14 12 28 21t30 14 35 5q25 0 45-8t36-22 23-35 8-45q0-19-6-38t-14-37-21-36-27-37-30-38q-47 72-83 125t-64 90-53 60-48 37-47 18-53 5q-10 0-12-5t1-18q2-9 8-13t15-4q18 0 33-4t32-13 33-26 39-41 46-60 57-81 70-106q-7-12-14-24t-11-24-7-24-2-24q0-24 9-42t26-29 38-11q27 0 44 16t17 43q0 15-5 31t-16 37-29 49q11 15 24 31t26 33 26 36 22 39 15 40 6 42q0 35-12 64t-32 49-50 32-63 11m14-415q12-20 19-34t10-24 3-19q0-10-6-16t-15-6-15 4-10 14-4 23q0 10 2 19t6 20 10 19m443 414q-22 0-39-11t-28-29-15-37q-2-10 0-17t14-10q10-2 16 1t8 13q5 16 11 26t14 16 19 6q17 0 28-13t23-48l118-364h-62q-25 0-46 6t-36 19-26 36q-4 11-11 13t-15 1q-8-1-11-6t0-16q7-21 20-38t32-29 45-20 57-6h257q8 0 9 4t-2 16q-3 11-8 15t-12 5h-146l-119 367q-9 28-22 51t-32 36-41 13m177 0q-9 0-13-6t-1-13 7-13 16-5q17 0 36-11t41-33 45-59 52-88l27 13q-30 61-56 102t-52 66-50 36-52 11m281-1q-19 0-28-7t-11-18 0-23 6-22q3-8 8-23t13-33 14-36 12-33q4-15 1-21t-12-5q-12 0-25 4t-27 10-29 5q-9 0-16-8t-10-19-4-25q0-10 4-20t11-15 20-6q10 0 16 7t6 16q0 7-2 14t-5 16q5 0 18-5t30-11 35-6q15 0 24 8t12 22-5 40q-3 14-10 33t-15 38-14 36-10 28q-5 14-3 17t7 4q5 0 10-3t11-10 13-14q4-5 7-6t10 3q8 5 10 10t-1 10q-4 8-14 19t-25 20-32 9m168 1q-17 0-30-9t-20-25-7-39q0-23 7-50t21-52 34-46 47-34 58-13q14 0 30 4t31 11l0-2q3-7 8-9t13-2q16 0 20 5t1 15l-63 186q-3 9-3 14t2 6 4 1q5 0 10-3t12-10 13-14q4-5 8-6t10 3q8 5 9 10t0 10q-5 8-15 19t-24 20-33 9-27-8-10-21 1-26 7-26q1-1 1-3t1-2q-21 29-42 49t-39 29-35 9m-11-81q0 12 3 22t8 14 14 5q17 0 40-19t47-54 52-88l6-17q-16-6-31-8t-25-2q-22 0-40 10t-32 26-23 36-14 39-5 36m322 81q-17 0-30-9t-20-25-7-39q0-23 7-50t21-52 34-46 47-34 58-13q14 0 31 4t32 12l82-248q3-10 8-13t15-3q15 0 19 5t1 15l-144 436q-3 11-2 16t7 5q5 0 9-3t10-9 14-15q4-5 8-6t10 3q8 5 9 10t-1 10q-10 17-22 27t-23 16-26 5q-18 0-27-9t-10-27 7-44q1-2 1-4t1-3q-22 30-43 49t-40 30-36 9m-11-81q0 12 3 22t8 14 14 5q17 0 40-18t49-54 52-86l6-19q-17-7-32-9t-26-2q-22 0-40 10t-32 26-23 36-14 39-5 36" />
</svg>