<svg id="fnt-Playwrite IS" viewBox="0 0 3057 1000" xmlns="http://www.w3.org/2000/svg"><path id="playwrite-is" class="f" d="M54 674q-24 0-20-15l104-416q2-7 8-11t17-3h81q48 0 79 11t48 33 16 57q0 38-15 66t-41 46-61 31-76 17q-18 2-38 3t-37 1l-41 166q-2 7-8 10t-16 4m122-405l-47 185q11 0 24 0t26-2 26-3q42-7 73-21t47-37 17-57q0-23-11-37t-34-21-58-7h-63m242 405q-27 0-35-20t3-59l90-358q3-9 7-12t15-3q15 0 19 4t2 14l-96 375q-3 11-1 16t7 5q5 0 9-3t9-9 12-15q3-5 7-6t10 3q8 5 10 9t-1 10q-9 17-19 28t-23 16-25 5m164 1q-18 0-32-10t-22-29-8-45q0-23 7-49t19-50 32-43 43-30 54-12q15 0 30 4t31 11l0-2q2-7 7-9t14-2q15 0 19 5t2 13l-48 188q-3 9-3 13t2 7 5 1q5 0 10-3t10-9 12-15q4-5 8-6t10 3q8 5 10 10t-1 10q-4 9-14 20t-23 20-31 8q-17 0-26-7t-11-19-1-24 5-25q0-3 0-6t1-6q-18 29-37 49t-37 29-37 10m-16-90q0 15 3 26t10 18 16 6q18 0 39-19t44-54 44-86l5-18q-16-7-30-9t-26-2q-20 0-37 8t-29 24-22 32-13 38-4 36m328 89q-22 0-35-10t-16-32 5-53l39-154q3-10 7-13t15-3q15 0 19 5t2 13l-41 160q-4 14-4 24t5 17 18 7q18 0 37-15t39-41 37-62 34-78l2-14q3-10 7-13t15-3q15 0 19 5t2 13l-80 315q-11 45-26 72t-37 38-56 12q-19 0-35-5t-31-12-24-17q-8-6-10-13t8-16q8-7 14-8t13 6q15 12 31 19t36 7q21 0 34-9t23-26 18-50l42-168q-14 26-30 45t-31 32-32 19-33 6m321 2q-21 0-34-8t-18-24-4-34 7-40l35-146q1-7 6-11t17-4q15 0 18 4t2 14l-37 147q-4 17-6 31t4 23 20 8 28-10 27-28 23-38 19-42l24-94q2-7 6-11t16-4q16 0 19 4t1 14l-33 141q-2 9-3 21t-1 23 8 17 19 7q15 0 30-10t28-27 22-37 16-43 5-42q0-6 0-13t-2-14-4-15q-2-9-1-15t7-10 13-3q10 0 15 6t9 18q3 6 4 12t2 13 0 14q0 26-7 54t-21 56-33 49-43 34-50 13q-23 0-36-9t-20-24-7-34q-11 21-26 36t-30 23-34 8m374-2q-9 0-16-3t-3-12l58-234q3-10 7-13t15-3q15 0 19 5t2 13l-20 81q14-24 28-43t30-32 27-19 24-7q14 0 24 7t17 15q4 5 3 10t-6 12q-5 6-11 8t-9-2q-5-4-11-7t-12-3q-13 0-31 14t-37 40-38 61-33 78l-4 21q-1 7-7 10t-16 3m257 0q-27 0-35-20t3-59l41-170q3-10 7-13t15-3q15 0 19 5t2 13l-48 188q-2 11-1 16t8 5q4 0 8-3t9-9 13-15q3-5 7-6t10 3q8 5 10 9t-1 10q-9 17-20 28t-22 16-25 5m55-342q-11 0-18-7t-7-19q0-15 8-26t26-11q11 0 18 7t7 20q0 14-8 25t-26 11m113 342q-20 0-32-9t-14-26 4-43l34-139h-38q-6 0-8-5t0-15q2-11 6-16t11-4h40l25-100q2-9 7-12t15-3q15 0 19 4t2 14l-25 97h63q6 0 9 4t0 16q-2 10-7 15t-10 5h-65l-38 147q-4 17-2 25t13 7q10 0 22-8t26-27q4-5 8-6t12 3q8 5 9 9t0 10q-6 12-18 25t-29 23-39 9m225 2q-31 0-51-13t-29-35-10-50q0-30 10-60t29-55 48-41 64-15q23 0 39 8t25 20 8 33q0 20-12 37t-33 29-46 23-54 16-54 11l3-36q17-2 37-7t40-10 37-15 27-19 10-25q0-14-9-20t-24-5q-22 0-41 11t-32 30-20 42-7 44q0 19 5 33t17 22 29 7q17 0 30-7t25-17 23-24q6-7 13-6t13 7 7 12-5 13q-18 23-37 37t-37 19-38 6m350-2q-11 0-17-4t-3-11l105-424q2-7 8-10t18-3 16 3 3 11l-106 424q-1 7-7 10t-17 4m271 2q-22 0-42-5t-37-15-31-21-24-27q-4-6-2-11t7-10q8-6 13-7t11 4q11 13 26 24t35 18 44 8 43-6 34-15 23-26 8-37q0-15-5-27t-14-22-23-18-31-18q-16-8-31-17t-28-21-22-24-15-31-5-37q0-25 9-46t29-36 45-23 58-8q26 0 47 7t38 18 31 26q5 5 4 10t-7 12q-6 6-12 7t-11-3q-12-9-24-17t-28-13-38-5q-21 0-39 5t-30 13-19 22-7 31q0 16 4 29t13 23 24 20 36 19q21 10 39 22t31 28 20 33 7 41q0 29-12 52t-32 40-49 25-61 9" />
</svg>