<svg id="fnt-Playwrite IT Moderna" viewBox="0 0 5484 1000" xmlns="http://www.w3.org/2000/svg"><path id="playwrite-it-moderna" class="f" d="M85 674q-22 0-22-14v-417q0-7 5-11t17-3h95q50 0 84 11t50 35 18 64q0 38-15 65t-38 44-51 26-56 15q-18 2-35 3t-30 2v166q0 7-6 10t-16 4m22-405v185q9 0 20 0t22-2 23-3q29-5 55-17t43-34 17-59q0-25-12-41t-36-22-59-7h-73m340 406q-26 0-38-13t-11-39v-388q0-7 5-10t16-3q11 0 16 3t6 10v382q0 11 4 16t10 4q5 0 9-2t7-5 7-7q3-4 8-3t9 5q4 4 5 8t0 9q-6 11-14 18t-19 11-20 4m178 0q-28 0-49-14t-33-41-12-69q0-26 5-49t14-40 23-30 31-18 39-7q16 0 33 5t31 13v-2q0-7 6-10t16-4 16 3 6 11v194q0 7 1 12t5 6 8 2q5 0 8-1t6-5 8-8q3-4 8-3t9 4q5 5 6 10t-1 10q-5 9-14 16t-18 11-21 4q-11 0-20-3t-15-8-9-14-4-19q0-2-1-6t0-7q-11 21-24 34t-29 18-29 5m-50-126q0 26 6 46t19 30 31 10q16 0 30-8t26-26 20-43v-96q-15-9-30-12t-29-3q-13 0-25 4t-20 12-15 20-10 29-3 37m483 148v-41q8-5 16-10t15-8 14-7 11-6q8-3 13 0t8 10 0 13-9 11q-7 3-16 8t-17 10-17 10-18 10m-87 167q-21 0-38-8t-25-21-8-32q0-13 4-26t15-26 26-25 37-27q12-7 23-14t23-14v-57q-7 16-17 27t-21 19-24 11-26 4q-26 0-44-9t-29-30-9-50v-164q0-6 5-10t16-3q11 0 16 3t6 10v163q0 17 5 29t15 17 25 6q15 0 28-7t23-18 18-28 13-35v-127q0-6 5-10t16-3q11 0 16 3t6 10v309q0 32-7 56t-20 42-32 26-41 9m3-39q13 0 23-6t17-18 10-30 4-42v-16q-10 6-19 12t-20 12q-11 7-19 15t-15 15-8 15-3 16 3 14 10 9 17 4m271-151q-11 0-16-3t-7-10l-79-227q-3-10 2-17t20-8q8 0 12 3t7 10l62 190 66-190q2-7 7-10t13-3q7 0 12 3t7 10l68 190 61-190q3-7 7-10t12-3q15 0 20 7t2 18l-80 227q-2 6-7 10t-16 3-15-4-6-9l-65-183-64 183q-2 6-7 9t-16 4m356 0q-11 0-16-3t-5-10v-239q0-6 5-10t16-3q11 0 16 3t6 10v45q8-15 17-26t20-19 21-11 22-4q12 0 23 4t17 9q5 4 6 9t-4 14q-4 7-10 9t-12 0q-6-2-12-3t-14-2q-11 0-22 6t-20 16-18 27-14 36v129q0 7-6 10t-16 3m255 1q-26 0-38-13t-11-39v-201q0-6 5-10t16-3q11 0 16 3t6 10v195q0 11 4 16t10 4q5 0 9-2t6-5 8-8q2-3 7-2t9 5q5 4 6 9t-1 9q-6 10-14 17t-18 11-20 4m-28-343q-14 0-21-8t-7-23q0-16 7-24t21-8 20 8 7 24q1 16-6 23t-21 8m201 343q-20 0-33-8t-21-22-6-35v-153h-39q-7 0-11-5t-3-15q0-12 3-16t11-4h39v-102q0-7 5-10t16-3 17 3 5 10v102h63q8 0 11 4t3 16q0 11-3 15t-11 5h-63v149q0 17 5 24t16 7q11 0 20-6t17-16q5-6 10-5t10 5q7 5 7 10t-1 10q-8 14-19 23t-23 13-25 4m219 1q-38 0-63-16t-37-45-13-62q0-32 9-59t26-46 41-30 52-11q23 0 41 7t28 22 11 37q0 19-9 35t-24 27-36 21-46 13-53 7l0-35q16-1 34-4t33-9 29-12 19-18 8-21q0-16-11-23t-28-7q-17 0-31 7t-25 20-18 31-6 40q0 28 9 48t24 32 38 11q15 0 26-4t20-13 20-20q7-7 13-7t14 6 8 11-3 13q-13 19-30 31t-35 18-35 5m433-9h-140q-8 0-11-5t-3-15q0-12 3-16t11-4h48v-358h-48q-8 0-11-4t-3-16q0-11 3-16t11-4h140q7 0 10 4t3 16q0 11-3 16t-10 4h-49v358h49q7 0 10 4t3 16q0 11-3 15t-10 5m196 7q-22 0-22-14v-391h-129q-8 0-11-4t-3-16q0-11 3-16t11-4h302q8 0 11 4t3 16q0 11-3 16t-11 4h-129v391q0 7-6 11t-16 3m358 0q-14 0-18-5t-1-18l80-409q2-12 9-16t19-4q11 0 17 4t10 16l124 361 122-361q4-12 10-16t19-4q11 0 18 4t9 16l80 409q3 14-1 18t-18 5q-10 0-16-3t-8-16l-68-357-122 357q-3 10-9 14t-17 5-17-5-9-14l-122-353-68 353q-2 13-8 16t-15 3m662 2q-34 0-60-17t-41-47-15-70q0-30 8-54t24-43 37-28 47-10q33 0 59 17t41 48 15 69q0 24-5 44t-16 37-25 29-32 19-37 6m0-40q16 0 29-7t23-19 14-30 5-39q0-28-9-50t-24-32-38-12q-16 0-30 7t-23 19-14 30-5 39q0 28 9 49t25 33 38 12m272 39q-28 0-49-14t-33-41-12-69q0-26 5-49t14-40 23-30 32-18 39-7q16 0 32 4t32 13v-189q0-7 6-10t16-3q11 0 16 3t5 10v382q0 11 4 16t11 4q4 0 7-2t8-5 7-8q4-3 8-2t9 5q5 4 6 9t-1 9q-6 10-14 17t-18 11-21 4q-18 0-29-7t-15-18-4-24q0-2 0-5t0-4q-12 22-26 35t-29 18-29 5m-50-126q0 26 6 45t18 30 32 11q16 0 30-8t26-25 21-46v-92q-15-10-30-14t-30-3q-14 0-25 4t-20 12-16 20-9 29-3 37m384 127q-38 0-63-16t-37-45-13-62q0-32 9-59t26-46 41-30 52-11q23 0 41 7t28 22 11 37q0 19-9 35t-24 27-36 21-46 13-53 7l0-35q16-1 34-4t33-9 29-12 19-18 8-21q0-16-11-23t-28-7q-17 0-31 7t-25 20-18 31-6 40q0 28 9 48t24 32 38 11q15 0 26-4t20-13 20-20q7-7 13-7t14 6 8 11-3 13q-13 19-30 31t-35 18-35 5m187-2q-11 0-16-3t-5-10v-239q0-6 5-10t16-3q11 0 16 3t6 10v45q8-15 17-26t20-19 21-11 22-4q12 0 23 4t17 9q5 4 6 9t-4 14q-4 7-10 9t-12 0q-6-2-12-3t-14-2q-11 0-22 6t-20 16-18 27-14 36v129q0 7-6 10t-16 3m427 1q-13 0-22-3t-15-10-9-17-3-22v-123q0-17-5-29t-14-18-27-6q-13 0-25 5t-23 16-20 27-15 39v127q0 7-6 10t-16 3q-11 0-16-3t-5-10v-239q0-6 5-10t16-3q11 0 16 3t6 10v46q8-15 17-27t22-19 24-11 26-4q24 0 43 9t29 28 11 51v122q0 7 2 12t5 6 8 2 8-2 7-5 7-7q4-4 8-3t10 5q4 5 5 9t-2 10q-5 10-14 17t-18 10-20 4m180 0q-28 0-49-14t-33-41-12-69q0-26 5-49t14-40 23-30 31-18 39-7q16 0 33 5t31 13v-2q0-7 6-10t16-4 16 3 6 11v194q0 7 1 12t5 6 8 2q5 0 8-1t6-5 8-8q3-4 8-3t9 4q5 5 6 10t-1 10q-5 9-14 16t-18 11-21 4q-11 0-20-3t-15-8-9-14-4-19q0-2-1-6t0-7q-11 21-24 34t-29 18-29 5m-50-126q0 26 6 46t19 30 31 10q16 0 30-8t26-26 20-43v-96q-15-9-30-12t-29-3q-13 0-25 4t-20 12-15 20-10 29-3 37" />
</svg>