<svg id="fnt-Playfair Display" viewBox="0 0 3507 1000" xmlns="http://www.w3.org/2000/svg"><path id="playfair-display" class="f" d="M21 323v-10q11 0 28 1t33 0q24 0 45 0t31-1q60 0 90 28t30 71q0 18-6 37t-21 37-40 27-64 11h-48v-10h43q35 0 54-14t25-35 7-48q0-47-19-71t-64-23q-23 0-30 8t-7 35v248q0 18 4 27t15 12 32 4v10q-13-1-33-2t-41 0q-19 0-36 0t-28 2v-10q17-1 26-4t12-12 3-27v-248q0-19-3-28t-12-12-26-3m366-48v345q0 21 8 29t30 7v11q-9-1-26-2t-35 0q-17 0-34 0t-26 2v-11q20 0 29-7t9-29v-285q0-23-8-34t-30-10v-11q16 2 31 2 14 0 27-2t25-5m134 395q-20 0-35-8t-23-21-8-33q0-22 10-36t27-22 33-15 34-11 26-12 11-18v-31q0-21-7-32t-16-15-24-4q-12 0-27 4t-22 14q9 2 16 10t7 21-8 19-20 8q-15 0-22-10t-6-20q0-13 6-21t17-15q11-8 29-14t42-6q20 0 35 5t24 14q13 12 17 29t4 41v139q0 13 3 18t12 6q6 0 11-3t12-8l5 9q-10 8-20 13t-25 5q-15 0-24-5t-15-15-4-24q-14 22-33 33t-42 11m18-20q17 0 31-9t26-29v-98q-6 9-18 14t-25 12-26 13-20 21-8 32 11 32 29 12m393-241v10q-10 1-18 9t-15 26l-82 215h-8l-92-221q-10-20-19-24t-15-4v-11q11 2 23 2t26 1q15 0 32-1t33-2v11q-13 0-23 1t-12 11 6 30l62 152-3 1 57-149q6-16 5-26t-10-15-27-6v-10q9 1 15 1t13 0 14 1q11 0 20-1t18-1m-124 256l9 4-17 44q-5 12-10 21t-11 14q-8 7-19 10t-20 3q-10 0-18-4t-12-10-4-16q0-12 7-20t19-7q11 0 18 6t8 18q0 8-4 14t-10 8q1 1 2 1t1 0q14 0 24-10t19-29l18-47m267-389q14 0 24 3t19 10q8 6 12 14t4 17q0 12-8 19t-19 8q-11 0-19-8t-8-19q0-11 5-17t16-9q-2-4-8-8t-17-3q-11 0-20 5t-12 14q-6 10-8 31t-1 64v13h53v10h-53v195q0 25 14 33t39 8v11q-12-1-33-2t-44 0q-17 0-34 0t-25 2v-11q20 0 29-7t9-29v-200h-40v-10h40q0-30 2-50t8-34 15-25q10-12 26-19t34-6m113 394q-20 0-35-8t-23-21-8-33q0-22 10-36t27-22 33-15 34-11 26-12 11-18v-31q0-21-7-32t-16-15-24-4q-12 0-27 4t-22 14q9 2 16 10t7 21-8 19-20 8q-15 0-22-10t-6-20q0-13 6-21t17-15q11-8 29-14t42-6q20 0 35 5t24 14q13 12 17 29t4 41v139q0 13 3 18t12 6q6 0 11-3t12-8l5 9q-10 8-20 13t-25 5q-15 0-24-5t-15-15-4-24q-14 22-33 33t-42 11m18-20q17 0 31-9t26-29v-98q-6 9-18 14t-25 12-26 13-20 21-8 32 11 32 29 12m217-366q13 0 23 10t9 22-9 23-23 9-22-9-10-23 10-22 22-10m26 120v216q0 21 9 29t29 7v11q-8-1-26-2t-34 0q-17 0-35 0t-26 2v-11q21 0 29-7t9-29v-156q0-23-8-34t-30-10v-11q16 2 31 2 15 0 28-2t24-5m219-2q14 0 24 6t16 14 6 20q0 12-8 22t-21 9q-10 0-18-7t-8-19q0-9 5-16t12-11q-4-5-11-5-15 0-28 9t-22 24-14 31-5 30v106q0 25 14 33t39 8v11q-12-1-33-2t-44 0q-17 0-34 0t-25 2v-11q20 0 29-7t9-29v-156q0-23-8-34t-30-10v-11q16 2 31 2 14 0 27-2t25-5v62q5-14 15-29t25-25 32-10m335-89q89 0 133 44t43 129q0 54-21 95t-62 63-98 23q-7 0-20-1t-26-1-24 0q-17 0-34 0t-28 2v-10q17-1 26-4t12-12 3-27v-248q0-19-3-28t-12-12-26-3v-10q11 0 28 1t33 0q18 0 40-1t36 0m-13 9q-23 0-30 8t-7 35v250q0 26 7 34t31 9q54 0 84-20t42-58 12-92q0-56-13-93t-44-55-82-18m288-38q13 0 23 10t9 22-9 23-23 9-22-9-10-23 10-22 22-10m26 120v216q0 21 9 29t29 7v11q-8-1-26-2t-34 0q-17 0-35 0t-26 2v-11q21 0 29-7t9-29v-156q0-23-8-34t-30-10v-11q16 2 31 2 15 0 28-2t24-5m153-2q20 0 34 7t21 12q16 13 20-18h11q-1 14-1 33t-1 52h-11q-3-19-11-36t-21-29-36-11q-18 0-30 9t-11 29q0 15 9 26t23 20 32 20q19 12 34 25t25 27 9 36q0 23-12 38t-31 24-42 8q-11 0-21-2t-19-5q-5-3-10-6t-10-8-9 0-6 17h-12q1-16 2-39t0-61h12q3 28 10 49t20 33 39 12q10 0 20-5t18-15 7-28q0-22-16-36t-41-29q-18-12-34-23t-25-26-10-35q0-23 10-37t28-21 36-7m214 2v307q0 21 12 28t36 8v10q-11 0-31-1t-41-1q-16 0-31 1t-23 1v-10q18 0 25-7t8-24v-252q0-23-8-34t-30-10v-11q16 2 31 2 14 0 27-2t25-5m80-2q26 0 47 14t33 42 13 68q0 27-7 53t-20 48-36 34-52 13q-23 0-41-11t-23-27l5-7q7 14 20 24t34 9q28 0 43-17t22-47 6-65q0-40-6-65t-20-38-32-13q-24 0-44 20t-26 62l-6-7q6-43 30-66t60-24m210-127v345q0 21 9 29t29 7v11q-8-1-26-2t-34 0q-17 0-35 0t-26 2v-11q21 0 29-7t9-29v-285q0-23-8-34t-30-10v-11q16 2 31 2 15 0 28-2t24-5m135 395q-21 0-36-8t-23-21-7-33q0-22 10-36t26-22 34-15 34-11 26-12 10-18v-31q0-21-6-32t-17-15-23-4q-13 0-27 4t-23 14q10 2 17 10t7 21-8 19-21 8q-14 0-21-10t-7-20q0-13 7-21t16-15q12-8 30-14t41-6q21 0 35 5t24 14q13 12 17 29t4 41v139q0 13 4 18t12 6q5 0 10-3t12-8l6 9q-11 8-20 13t-26 5q-14 0-24-5t-14-15-5-24q-13 22-32 33t-42 11m18-20q16 0 30-9t26-29v-98q-6 9-17 14t-25 12-26 13-20 21-8 32 10 32 30 12m392-241v10q-9 1-17 9t-15 26l-82 215h-9l-92-221q-9-20-19-24t-15-4v-11q11 2 23 2t26 1q16 0 33-1t32-2v11q-12 0-22 1t-12 11 6 30l61 152-3 1 57-149q7-16 5-26t-10-15-27-6v-10q9 1 16 1t12 0 14 1q12 0 21-1t17-1m-124 256l10 4-17 44q-5 12-11 21t-11 14q-8 7-19 10t-20 3q-9 0-17-4t-12-10-5-16q0-12 7-20t20-7q10 0 18 6t7 18q0 8-4 14t-9 8q1 1 1 1t2 0q13 0 24-10t18-29l18-47" />
</svg>