<svg id="fnt-Playwrite AR" viewBox="0 0 3860 1000" xmlns="http://www.w3.org/2000/svg"><path id="playwrite-ar" class="f" d="M218 465q-9 0-14-6t-5-15 5-16 14-5q41 0 75-11t57-31 36-49 13-68q0-46-24-71t-65-25q-24 0-45 10t-38 29-29 46-19 59-7 73v275q0 6-5 10t-16 4q-11 0-17-4t-5-10v-422q-10 18-22 33t-28 27-36 24q-8 5-15 3t-12-12q-5-9-3-16t11-11q29-15 49-36t33-49 19-59q2-10 8-13t18-2q10 0 16 3t5 10v84q16-32 37-54t48-32 56-11q40 0 69 16t46 47 17 73q0 47-17 84t-47 63-71 40-92 15m213 210q-9 0-14-6t-4-13 4-13 14-5q16 0 30-8t30-22 27-34 25-45 22-54 19-60 14-65 9-69 3-69q0-8 6-12t15-4 16 4 6 12q0 35-4 71t-11 72-17 70-23 66-27 60-32 51-34 39-36 25-38 9m139 0q-13 0-22-3t-16-10-8-17-3-21v-403q0-49 17-73t51-23q21 0 35 9t22 29 7 49q0 9-6 14t-16 4-15-4-6-14q0-16-3-27t-7-15-12-5-13 5-8 17-3 34v398q0 6 2 10t6 7 8 2 8-2 7-4 7-5q4-4 9-2t9 7q4 5 4 10t-2 9q-6 8-14 13t-18 8-20 3m216 0q-29 0-51-14t-34-41-13-71q0-26 5-48t14-39 23-30 31-18 39-7q16 0 33 5t32 14v-2q0-8 5-11t17-4 16 3 5 11v196q0 6 2 10t6 7 8 2q5 0 8-2t6-3 8-6q4-3 8-2t9 5q5 5 5 11t-2 9q-5 8-14 14t-18 8-20 3q-11 0-20-2t-14-8-10-13-4-17q0 0-1-2t0-4q-12 19-25 29t-27 13-27 4m-54-128q0 28 7 47t19 31 34 10q14 0 27-5t25-16 21-30v-121q-16-10-30-13t-31-3q-13 0-24 4t-20 12-15 20-10 28-3 36m499 165l-5-40q8-6 15-12t15-10 14-9 12-7q7-4 13-1t8 9 1 13-8 11q-6 4-14 9t-17 12-17 13-17 12m-88 247q-35 0-56-20t-21-56q0-18 5-36t15-38 25-37 35-38q9-7 17-15t17-14 18-13v-63q-7 10-16 19t-19 15-23 9-25 3q-29 0-49-10t-29-31-10-50v-102q0-21-6-28t-18-7q-9 0-15 4t-9 13-4 20q0 8-4 12t-13 4q-8 0-13-4t-5-16q1-22 9-38t21-24 33-9q17 0 30 5t21 16 12 26 4 36v92q0 17 6 29t16 18 28 6q14 0 26-4t22-13 17-19 13-23v-156q0-6 5-10t16-3q11 0 16 3t6 10v408q0 31-7 55t-20 40-31 25-40 9m3-39q16 0 28-10t17-31 7-50v-91q-7 5-13 9t-11 8-10 9q-13 14-23 29t-17 29-10 29-4 29q0 12 4 21t12 14 20 5m291-245q-18 0-33-6t-24-17-15-28-5-40v-102q0-21-7-28t-18-7q-8 0-14 4t-9 13-4 20q-1 8-5 12t-13 4q-8 0-13-4t-4-16q1-22 8-38t22-24 32-9q18 0 30 5t21 16 13 26 4 36v92q0 17 4 29t13 18 24 6q10 0 21-4t21-13 16-26 6-42v-130q0-6 5-9t16-4q12 0 17 4t5 9v139q0 23 2 38t7 22 14 12 21 3q10 0 19-3t19-10 15-17 11-27 4-35q0-19-3-38t-8-36-15-34q-6-9-3-15t9-10 15-4q7 0 10 3t7 9q8 12 15 30t12 41 5 49q0 21-5 41t-14 38-24 30-33 21-41 7q-17 0-31-5t-26-17-17-29q-8 17-21 28t-27 16-31 6m280 0q-10 0-15-6t-5-13 5-13 14-5q15 0 28-12t24-36 18-59 13-81l30 5q-4 56-14 97t-23 69-33 41-42 13m257 0q-13 0-22-3t-16-11-9-17-3-23q0-14 1-32t3-37 2-36 2-30q0-19-5-27t-18-7q-14 0-32 5t-35 10-27 5q-9 0-18-10t-13-24-6-28q0-9 3-16t9-11 15-4q16 0 22 12t5 27q0 3 0 7t0 7q6 0 19-5t31-11 36-6q20 0 33 8t18 23 6 41q0 12-2 29t-2 38-3 37-1 29q0 13 4 18t11 5q5 0 9-2t8-4 7-5q4-3 9-1t9 6q4 5 4 10t-2 9q-6 8-14 13t-18 8-20 3m151 0q-26 0-38-13t-12-38v-202q0-6 5-10t16-3q11 0 17 3t5 10v197q0 10 5 14t11 5q5 0 9-2t7-4 7-6q3-2 8 0t9 6q4 4 4 9t-2 9q-6 8-14 14t-18 8-19 3m-28-343q-14 0-21-8t-7-23q0-16 7-24t21-8q14 0 21 8t7 24q0 16-7 23t-21 8m203 343q-21 0-35-8t-21-22-6-34v-154h-39q-8 0-11-5t-3-15q0-12 3-16t11-4h39v-102q0-7 5-10t16-3q11 0 16 3t6 10v102h63q7 0 10 4t4 16q0 11-4 15t-10 5h-63v149q0 17 4 24t18 8q11 0 19-6t18-13q6-6 11-4t10 6q5 5 5 10t-2 10q-9 13-19 20t-22 11-23 3m222 0q-20 0-39-8t-34-24-28-37-18-47-6-53q0-17 4-32t11-28 18-21 24-13 28-5q28 0 46 12t26 30 8 40q0 17-7 35t-17 35-25 34q-22 24-49 42t-59 30-63 10q-7 0-10-6t-3-13 6-13 17-5q23 0 47-9t46-24 38-33q11-12 18-26t12-26 4-26q0-27-10-37t-27-10q-8 0-16 3t-12 12-9 19-3 25q0 29 8 52t22 41 29 27 29 9q9 0 18-4t19-11 20-18q7-8 13-8t14 6 8 11-3 13q-13 19-30 30t-33 16-32 5m447 0q-44 0-79-17t-59-51-38-82-13-109q0-42 8-80t23-70 35-58 47-44 56-28 64-9q40 0 74 12t59 39 43 66q4 9 4 17t-10 14q-12 7-18 2t-10-13q-15-34-37-55t-49-30-56-10q-27 0-52 8t-45 24-37 37-28 49-18 60-6 68q0 52 9 92t28 68 46 43 62 15q24 0 47-10t43-31 37-50 30-72 19-94q0-7 6-10t16-3 17 3 5 10l0 199q0 15 2 26t7 18 11 11 16 3 16-3 14-10 13-16q5-8 11-10t15 4q9 5 10 12t-4 15q-7 12-16 22t-18 15-21 10-23 3q-25 0-42-11t-26-33-9-56v-62q-13 38-32 68t-42 51-49 32-56 11m811 1q-19 0-35-8t-31-24-30-39-33-51q-14-23-24-39t-18-29-13-23-13-23q-16 0-27-5t-17-12-5-15q0-11 8-18t22-7q11 0 22 5t18 12q21-4 40-13t33-22 25-28 16-35 6-40q0-29-10-50t-30-33-48-11q-25 0-48 10t-40 27-32 45-21 60-7 75v275q0 6-5 10t-17 4q-11 0-16-4t-6-10v-422q-9 18-22 33t-28 27-35 24q-9 4-15 2t-12-11q-5-9-4-16t11-11q29-15 49-36t33-49 20-59q2-10 8-13t17-2q11 0 16 3t6 10v88q12-25 28-44t35-32 41-19 46-6q41 0 71 16t45 46 16 70q0 25-7 48t-19 42-30 35-40 28-50 19q5 10 10 18t11 20 16 24 21 34q19 29 32 48t24 31 18 18 14 9 12 2q9 0 16-4t14-11 14-15q4-5 10-5t13 5 9 11-2 12q-11 16-24 26t-27 17-25 5" />
</svg>