<svg id="fnt-Playwrite FR Moderne" viewBox="0 0 5821 1000" xmlns="http://www.w3.org/2000/svg"><path id="playwrite-fr-moderne" class="f" d="M101 674q-22 0-22-14v-527q0-7 6-11t17-3h114q59 0 98 13t61 44 20 80q0 45-16 77t-44 54-61 34-69 18q-23 3-44 4t-38 2v215q0 7-5 10t-17 4m22-515v247q11-1 24-2t28-2 29-3q39-6 72-22t53-46 20-74q0-36-15-57t-45-32-73-9h-93m391 516q-23 0-35-14t-12-41v-498q0-6 5-10t16-3q11 0 17 3t5 10v492q0 13 3 17t9 5q3 0 6-2t6-8 7-15q2-4 7-6t11 2q7 2 10 6t1 9q-6 17-14 28t-19 19-23 6m168 0q-25 0-43-14t-29-41-9-65q0-26 4-49t14-41 23-31 32-20 40-7q17 0 31 4t30 11v-1q0-5 5-9t16-3q11 0 17 3t5 10v192q0 8 1 13t3 7 7 2 7-2 6-8 8-15q2-4 6-6t11 2q7 2 10 7t1 10q-4 14-12 25t-18 19-25 7q-12 0-21-4t-15-11-9-17-3-23q0-8 0-18t0-18q-9 29-24 49t-31 31-38 11m-37-120q0 23 4 41t14 29 27 10q18 0 35-19t30-53 20-81v-21q-16-8-29-12t-25-3q-15 0-27 5t-21 13-16 22-9 30-3 39m351 120q-18 0-34-7t-25-25-10-49v-172q0-6 5-10t16-3q11 0 17 3t5 10v167q0 16 3 27t10 15 19 5q18 0 33-13t26-37 21-56 14-70v-38q0-6 5-10t16-3 17 3 5 10v432q0 41-10 68t-32 41-55 13q-19 0-39-5t-35-15-26-18q-6-6-7-13t8-14q8-7 13-7t13 5q20 15 37 21t36 7q21 0 33-8t16-27 5-49v-280q-10 28-22 48t-26 31-27 18-25 5m313-1q-11 0-16-3t-8-10l-78-227q-4-10 2-17t20-8q7 0 12 3t6 10l62 190 66-190q3-7 7-10t13-3q8 0 13 3t7 10l67 190 62-190q2-7 7-10t12-3q14 0 20 7t1 18l-79 227q-2 6-7 10t-16 3-16-4-6-9l-65-183-63 183q-2 6-8 9t-15 4m355 0q-10 0-16-3t-5-10v-239q0-6 5-10t16-3q11 0 17 3t5 10v85q9-27 20-46t23-31 23-17 22-6q13 0 26 6t19 15q2 3 1 9t-4 11q-5 7-11 8t-11-1q-6-4-11-6t-13-2q-12 0-26 13t-25 36-20 56-13 70v39q0 7-5 10t-17 3m253 1q-23 0-35-14t-12-41v-198q0-6 5-10t16-3q11 0 17 3t5 10v192q0 13 3 17t9 5q3 0 6-2t5-8 8-15q2-4 6-6t11 2q7 2 10 6t1 9q-6 17-14 28t-18 19-23 6m-28-343q-14 0-21-8t-7-23q0-16 7-24t21-8 20 8 7 24q1 16-6 23t-21 8m198 343q-18 0-30-7t-19-23-7-37v-151h-38q-8 0-11-5t-3-15q0-12 3-16t11-4h38v-102q0-7 5-10t17-3 16 3 6 10v102h63q8 0 11 4t3 16q0 11-3 15t-11 5h-63v147q0 17 4 25t14 7q10 0 19-7t18-27q2-4 6-6t12 1q8 3 11 8t1 11q-7 21-18 34t-24 19-31 6m215 1q-32 0-55-15t-36-42-13-64q0-29 8-56t26-48 41-32 55-12q20 0 37 7t27 21 11 36q0 19-10 35t-25 29-37 23-46 18-51 13l-2-35q17-4 35-9t34-12 29-16 20-19 8-22q0-16-11-23t-27-6q-16 0-31 7t-25 21-16 32-6 41q0 29 7 48t23 30 35 10q18 0 30-6t22-17 17-22q6-7 12-7t14 6q7 6 8 11t-2 12q-14 21-31 35t-35 21-40 7m378-2q-22 0-22-14v-527q0-7 6-11t16-3h250q8 0 11 4t3 16q0 11-3 15t-11 5h-228v214h191q8 0 11 4t3 16q0 11-3 15t-11 5h-191v247q0 7-5 10t-17 4m374 0q-11 0-16-4t-6-10v-527q0-7 6-11t17-3h98q62 0 101 13t59 41 19 75q0 26-7 48t-20 40-30 32-42 24-50 16-57 9q32 39 67 78t72 75 79 70q6 4 7 11t-8 17q-6 7-13 7t-15-6q-44-36-85-77t-80-83-74-86v237q0 7-5 10t-17 4m22-515v223q27 0 51-3t45-8 39-12 32-19 24-24 15-31 5-37q0-32-14-52t-42-28-72-9h-83m544 515q-22 0-22-14v-537q0-7 5-11t17-3q10 0 14 4t8 10l191 347 192-347q3-6 7-10t14-4q22 0 22 14v537q0 7-5 10t-17 4q-21 0-21-14v-451l-169 304q-3 7-8 9t-14 2-15-2-9-8l-168-305v451q0 7-6 10t-16 4m675 2q-34 0-60-16t-41-45-15-73q0-30 8-54t24-43 37-28 47-10q33 0 59 17t41 47 15 68q0 24-5 45t-16 38-25 29-32 19-37 6m0-40q15 0 28-7t23-20 15-31 5-39q0-26-9-47t-25-33-37-12q-16 0-29 7t-23 20-15 30-5 38q0 27 9 48t25 34 38 12m261 39q-26 0-45-14t-28-41-10-65q0-26 4-49t14-41 23-31 32-20 40-7q17 0 33 4t31 13v-302q0-6 5-10t16-3 17 3 5 10v492q0 13 2 17t9 5q4 0 7-2t6-9 9-15q1-4 5-5t12 2q7 2 10 7t1 9q-6 15-14 27t-18 19-24 6q-15 0-26-7t-16-20-6-33q0-9 0-17t0-16q-11 32-25 53t-32 30-37 10m-39-120q0 21 4 39t14 30 28 11q19 0 35-16t30-52 22-92v-13q-16-9-31-13t-26-3q-15 0-27 5t-21 13-16 22-9 30-3 39m380 121q-31 0-55-15t-36-42-13-64q0-29 9-56t25-48 41-32 55-12q21 0 38 7t27 21 10 36q0 19-9 35t-25 29-38 23-46 18-50 13l-3-35q18-4 36-9t34-12 29-16 20-19 7-22q0-16-11-23t-26-6q-17 0-31 7t-25 21-17 32-6 41q0 29 8 48t22 30 35 10q19 0 31-6t21-17 18-22q5-7 12-7t13 6q7 6 9 11t-2 12q-15 21-31 35t-35 21-41 7m196-2q-11 0-16-3t-5-10v-239q0-6 5-10t16-3q11 0 16 3t6 10v85q9-27 20-46t22-31 24-17 22-6q13 0 25 6t19 15q3 3 2 9t-5 11q-5 7-10 8t-11-1q-6-4-12-6t-12-2q-13 0-26 13t-25 36-21 56-12 70v39q0 7-6 10t-16 3m423 1q-11 0-20-3t-15-11-9-17-3-24v-133q0-14-3-23t-10-13-19-4q-18 0-33 12t-27 35-21 56-14 74v37q0 7-6 10t-16 3q-11 0-16-3t-5-10v-239q0-6 5-10t16-3q11 0 16 3t6 10v86q9-30 21-49t26-31 27-16 26-5q20 0 36 7t25 23 9 45v132q0 8 1 13t3 7 6 2q5 0 8-2t7-8 7-15q2-4 6-6t12 2 9 6 1 9q-5 17-14 28t-18 19-24 6m194 1q-31 0-55-15t-36-42-13-64q0-29 9-56t25-48 41-32 55-12q21 0 38 7t27 21 10 36q0 19-9 35t-25 29-38 23-46 18-50 13l-3-35q18-4 36-9t34-12 29-16 20-19 7-22q0-16-11-23t-26-6q-17 0-31 7t-25 21-17 32-6 41q0 29 8 48t22 30 35 10q19 0 31-6t21-17 18-22q5-7 12-7t13 6q7 6 9 11t-2 12q-15 21-31 35t-35 21-41 7" />
</svg>