<svg id="fnt-Playwrite DE LA" viewBox="0 0 4621 1000" xmlns="http://www.w3.org/2000/svg"><path id="playwrite-de-la" class="f" d="M226 493q-9 1-11-6t0-14q3-7 7-13t13-5q29-1 59-6t57-17 47-26 33-38 12-50q0-20-9-35t-25-24-37-15-46-5q-29 0-63 8t-68 25-67 47q-10 8-17 7t-13-6q-5-5-5-12t8-16q24-25 53-43t61-29 61-16 53-5q40 0 70 9t50 25 29 37 10 48q0 36-14 63t-41 48-59 34-72 21-76 9m-159 182q-21 0-37-10t-26-25-14-30q-3-10-1-17t13-9q10-3 15 0t9 12q5 12 11 20t14 13 17 4q16 0 27-12t21-44l91-282q2-7 8-11t17-3q12 0 17 3t3 12l-91 282q-9 27-22 49t-31 35-41 13m279 0q-9 0-12-6t-1-13 8-13 15-5q12 0 30-9t40-23 45-35 48-45 47-51 42-54 34-55 24-53 8-48q0-7 6-10t15-4 15 4 7 10q0 23-10 51t-26 57-39 60-48 60-54 57-55 50-53 40-48 26-38 9m164-1q-20 0-29-8t-11-21 0-27 7-28l94-290q18-54 40-78t53-25q16 0 27 9t19 24 7 35q0 10-7 14t-15 5-15-5-6-14q0-8-1-14t-6-10-10-3q-7 0-14 6t-14 21-17 44l-98 304q-3 8-3 13t1 8 6 3q6 0 11-4t12-9 12-14q3-5 7-6t11 4q9 5 10 10t-2 10q-4 8-14 19t-24 19-31 8m199 1q-19 0-33-9t-21-27-7-40 6-49 21-51 33-46 46-33 59-13q15 0 31 4t30 12l1-2q3-8 7-10t14-2q16 0 20 5t1 15l-62 184q-2 8-3 13t2 8 6 3q6 0 11-4t11-9 12-14q4-5 8-6t11 4q8 5 9 10t-1 10q-4 8-14 19t-24 19-31 8-27-7-12-18-1-23 5-24q0-1 0-2t1-3q-20 27-39 45t-37 25-33 8m-16-83q0 13 4 23t10 15 16 5q17 0 38-16t43-48 46-75l13-38q-16-7-29-9t-26-2q-22 0-41 9t-32 26-23 36-14 39-5 35m444 111l6-44q10-7 20-13t19-10 17-9 16-8q8-3 12 0t6 10-1 14-7 9q-10 6-21 12t-22 12-22 13-23 14m-129 183q-18 0-32-7t-22-19-8-28q0-17 7-32t21-31 34-29 45-31q16-9 31-18t32-19l27-85q-14 21-29 37t-31 28-31 17-31 5q-25 0-39-11t-15-34 8-53l50-151q4-10 8-13t15-3q15 0 19 5t1 15l-52 155q-5 15-6 26t6 18 20 7q16 0 35-13t38-35 38-53 35-68l13-41q4-10 8-13t15-3q15 0 19 5t1 15l-105 323q-12 37-25 62t-27 42-33 23-40 7m6-39q12 0 22-6t20-17 18-30 16-43l9-28q-8 5-17 11t-18 11q-19 11-33 22t-23 21-13 19-4 18q0 7 2 12t8 7 13 3m345-171q-23 0-36-9t-18-26-2-36 9-40l34-105q2-6 0-11t-8-4q-5 0-11 3t-14 11-18 22q-6 6-11 8t-13-3q-10-5-9-12t4-11q11-16 22-28t27-20 32-7 28 6 12 17 2 23-5 25l-31 95q-5 16-7 30t3 23 22 9q13 0 28-9t28-25 25-36 20-42l33-99q2-8 7-12t15-4q17 0 20 4t0 15l-41 133q-4 10-7 22t-2 25 7 20 21 8q17 0 33-10t30-28 24-39 16-45 6-42q0-6 0-12t-1-13-2-13q-1-9 0-15t7-9 13-3q9 0 15 6t8 18q1 6 2 11t1 12 0 13q0 26-7 54t-22 56-34 50-45 36-54 13q-23 0-37-9t-20-22-6-31q-12 19-26 33t-31 22-36 7m386-2q-8 0-15-3t-4-13l64-198q2-6 0-11t-8-4q-5 0-11 3t-14 11-18 22q-6 6-11 8t-13-3q-10-5-9-12t4-11q11-16 22-28t27-20 32-7q18 0 27 6t12 15 2 21-3 21l-8 24q13-21 27-38t26-27 25-17 21-6q7 0 11 4t3 15q0 13 1 21t5 12 10 5q11 0 24-7t37-22q5-4 10-2t9 8 3 12-5 10q-22 18-42 26t-40 9q-10 0-21-4t-17-15-7-28q-11 7-26 21t-31 35-31 47-28 59l-16 48q-2 7-8 10t-16 3m298 0q-29 0-38-22t6-64l53-163q4-10 8-13t15-3q15 0 19 5t1 15l-60 184q-4 11-2 17t8 7q6 0 11-4t10-9 12-14q4-5 8-6t11 4q8 5 9 10t-1 10q-9 15-20 25t-23 16-27 5m75-342q-10 0-17-6t-7-19q0-14 8-26t28-12q10 0 17 6t7 20q0 13-9 25t-27 12m91 342q-22 0-34-10t-12-30 7-45l43-132h-38q-6 0-8-5t1-15q3-10 8-15t10-5h40l33-99q3-10 7-13t15-3q16 0 20 4t1 15l-32 96h63q6 0 8 4t-1 16q-2 9-7 14t-11 6h-65l-48 147q-6 17-3 25t12 8q12 0 25-10t25-25q4-4 9-5t12 4q8 4 9 9t-2 9q-5 10-18 23t-29 23-40 9m233 1q-18 0-33-6t-26-16-20-24-12-31-4-35 4-40 14-42 23-37 33-27 45-10q16 0 29 7t20 19 7 29q0 24-14 50t-37 49-51 44q-28 21-59 36t-60 25-52 9q-7 0-11-6t-2-13 6-13 16-5q18 0 42-9t50-22 50-32q21-16 38-33t28-35 11-34q0-12-5-19t-17-7q-15 0-27 12t-20 29-12 38-4 36q0 15 4 29t11 23 19 16 25 5q15 0 29-6t27-16 24-22q7-7 14-6t13 8q5 6 6 12t-5 13q-18 22-38 34t-39 18-40 5m336 0q-18 0-33-7t-23-21-9-29q0-15 7-28t21-20 34-8q21 0 40 5t36 13 36 17 35 17 35 13 38 5q23 0 45-9t44-25 39-38 31-48 21-54 7-58q0-38-12-68t-35-50-55-31-70-10q-26 0-48 3t-41 10-34 16-28 23-22 30q-5 8-11 9t-15-3q-7-4-9-10t1-13q10-21 25-38t35-29 43-22 51-13 59-5q47 0 86 13t67 39 44 62 15 85q0 35-9 69t-25 65-38 57-48 44-56 29-60 11q-26 0-50-7t-46-18-43-21-39-18-35-7q-11 0-16 5t-4 12q0 9 7 12t16 4q14 0 23-6t15-20 14-37l89-275q2-7 8-10t17-3q12 0 17 3t3 12l-91 278q-11 36-25 58t-32 31-42 9m607 1q-39 0-67-13t-43-37-15-55q0-26 10-50t28-44 42-35 53-19q-18-7-30-19t-18-27-6-33q0-25 7-47t22-40 33-31 43-20 51-7q29 0 53 8t44 21 31 31q5 8 4 15t-8 11q-7 6-14 5t-15-7q-12-13-28-22t-35-14-42-4q-22 0-41 7t-32 22-21 31-7 40q0 19 9 33t27 21 43 8h60q8 0 10 5t-2 15-8 16-12 4h-61q-29 0-55 10t-46 26-31 39-11 46q0 22 11 36t31 23 47 7q26 0 49-8t44-26 39-40q7-10 14-10t16 7q7 6 6 12t-7 16q-24 31-51 52t-56 31-65 10m394 1q-18 0-31-6t-21-17-7-26q0-18 9-33t24-23 37-8q18 0 35 5t32 12 32 16 32 16 33 12 34 5q25 0 42-9t31-26 24-40q4-9 10-12t17 2q9 3 10 10t-2 17q-15 32-34 54t-43 34-58 12q-25 0-48-7t-43-17-40-21-35-17-32-7q-11 0-18 5t-6 15q0 7 5 12t13 5q15 0 32-15t27-46l86-266q10-29 22-50t29-36 36-21 45-7q24 0 42 10t30 29 20 47q2 8-2 13t-12 9q-9 2-14-1t-9-10q-6-19-15-31t-19-18-26-6q-16 0-29 5t-23 14-18 24-15 34l-84 262q-12 34-28 56t-35 31-42 10m431-2q-16 0-29-5t-23-12-14-12q-5-5-5-12t8-13q6-7 12-8t10 4q10 9 20 13t22 5q9 0 19-3t23-13 28-27 37-48 48-75 63-108 80-145q5-9 12-13t19-4q14 0 21 5t7 16q-7 52-12 105t-9 108-4 111 1 113q0 8-5 12t-16 6q-10 1-15-3t-6-11q-3-50-2-98t3-97 6-95 10-93q-42 79-77 138t-61 102-50 71-39 46-31 26-27 11-24 3m322-28l-30 3q-2-38-12-66t-24-46-33-30-39-16-41-4q-14 0-25 2t-18 8-13 12-4 16q0 14 11 23t30 14 46 5q30 0 56-4t49-13 51-21 59-28q7-3 12-1t9 11q5 8 4 15t-10 11q-36 17-67 29t-58 22-55 13-58 5q-36 0-64-10t-44-26-15-43q0-17 8-32t23-25 34-16 43-6q24 0 48 6t47 20 39 37 28 56 13 79" />
</svg>