<svg id="fnt-Playwrite CZ" viewBox="0 0 3786 1000" xmlns="http://www.w3.org/2000/svg"><path id="playwrite-cz" class="f" d="M244 480q-8 0-11-6t0-14q2-8 7-13t13-6q32-1 64-7t60-18 49-30 34-41 12-53q0-21-9-37t-26-27-40-16-52-5q-35 0-71 8t-70 25-64 45q-9 8-16 6t-13-7q-5-5-5-12t8-15q23-24 51-41t60-28 62-16 61-5q43 0 75 9t53 25 31 40 11 51q0 37-15 66t-41 52-62 37-75 23-81 10m-173 195q-21 0-37-9t-27-24-16-31q-3-10 0-16t12-10q9-3 15 0t9 11q6 12 13 21t15 12 18 4q18 0 30-14t25-51l96-301q3-7 9-11t17-3q11 0 17 3t2 12l-96 299q-11 33-25 58t-33 37-44 13m305 0q-9 0-12-6t-1-13 8-13 14-5q15 0 34-10t42-26 46-40 48-50 47-56 41-59 34-59 22-56 9-48q0-8 6-12t15-3 15 3 7 12q0 23-9 51t-26 60-38 65-48 65-53 62-55 54-55 44-50 30-41 10m161 0q-20 0-30-8t-13-21 0-29 8-29l106-330q16-49 37-71t52-22q16 0 28 8t19 24 7 37q0 9-7 14t-15 4-15-4-6-14q0-9-2-15t-6-10-10-3-13 5-13 18-14 37l-112 345q-2 7-3 13t2 9 8 4 12-4 11-9 10-12q4-5 8-6t12 3q9 5 9 10t-2 11q-4 8-14 19t-23 18-31 8m200 0q-20 0-34-9t-23-28-7-42q0-22 6-48t20-51 32-45 46-33 59-12q16 0 32 5t30 12l0-2q3-8 8-11t14-2q16 0 20 5t1 15l-61 182q-2 7-3 13t2 9 8 4q6 0 12-4t11-9 11-12q3-5 8-6t11 3q9 5 9 10t-1 11q-5 8-15 19t-23 18-30 8q-16 0-26-6t-13-15-4-20 2-22q1-1 1-3t0-2q-18 25-37 40t-35 21-31 7m-19-85q0 14 4 24t11 16 19 5q17 0 36-14t39-40 40-63l20-60q-15-7-28-9t-25-2q-24 0-43 9t-33 26-22 35-14 39-4 34m454 121l5-43q10-7 19-12t19-11 18-10 15-7q8-3 12 0t6 10 0 13-8 10q-9 5-20 11t-22 12-22 14-22 13m-139 208q-29 0-46-16t-17-41q0-20 8-38t23-36 37-34 50-34q10-7 20-13t20-12 20-13l26-80q-13 18-27 31t-28 23-28 14-29 5q-25 0-40-12t-18-34 8-53l36-112q3-9 1-14t-10-4q-6 0-12 3t-14 12-17 22q-5 7-10 9t-13-1q-10-4-11-10t4-13q9-17 21-30t27-22 33-8q17 0 27 6t14 17 3 23-5 28l-32 100q-6 16-6 28t7 19 23 6q15 0 31-10t34-28 34-43 30-56l24-73q4-10 8-13t15-3q15 0 19 5t1 15l-116 356q-12 36-24 61t-28 42-33 23-40 8m7-39q15 0 29-11t25-32 22-54l16-49q-6 3-12 7t-11 7-11 7q-20 14-36 27t-27 25-16 24-5 24q0 8 3 14t9 8 14 3m358-204q-24 0-37-9t-19-25-4-35 8-38l35-105q3-9 0-14t-9-4q-6 0-13 3t-14 12-17 22q-5 7-9 9t-13-1q-10-4-11-10t3-13q10-17 22-30t26-22 33-8q17 0 27 6t15 17 3 23-5 28l-30 93q-5 14-7 28t4 24 23 9q13 0 26-7t26-21 23-31 20-38l37-114q2-9 7-13t15-3q16 0 20 4t0 15l-40 127q-4 12-7 26t-3 27 7 20 22 8q18 0 34-10t30-27 23-38 15-43 5-41q0-7 0-15t-2-14-2-13q-2-10 0-16t7-9 14-3q9 0 14 6t8 18q2 7 3 14t1 14 1 15q0 24-8 52t-20 54-33 48-44 35-54 13q-23 0-37-8t-21-21-8-28q-11 18-25 31t-30 19-35 7m263-1q-10 0-13-6t-1-13 8-13 15-5q17 0 35-12t38-35 40-59 42-86l29 13q-26 61-50 102t-46 67-47 36-50 11m279 0q-19 0-29-7t-14-17-2-23 5-25q4-11 10-26t13-33 15-34 11-32 0-21-12-5q-12 0-27 5t-30 10-31 5q-10 0-18-8t-11-18-3-24q0-12 3-22t12-18 20-6q11 0 17 6t5 17q0 8-2 16t-7 17q8 0 22-5t33-11 36-6q15 0 25 7t13 22-3 42q-4 14-11 31t-15 36-14 35-11 31q-5 13-2 18t10 5q6 0 11-4t11-9 11-12q3-5 8-6t11 3q9 5 9 10t-1 11q-5 8-15 19t-23 18-30 8m152 0q-31 0-41-23t4-63l54-164q3-10 7-13t15-3q16 0 20 5t1 15l-59 181q-5 13-3 20t10 7q6 0 12-4t10-9 11-12q4-5 8-6t12 3q8 5 9 10t-2 11q-8 13-18 23t-23 16-27 6m70-343q-10 0-17-6t-7-19q0-14 9-26t27-12q10 0 17 6t8 20q0 13-9 25t-28 12m-52 343q-8 0-11-6t-2-13 7-13 14-5q12 0 31-14t42-39 48-57 52-69 50-75 47-75 38-69 27-57q4-11 9-14t14-2q16 0 20 4t1 15l-138 426q23-6 47-20t51-35 57-50q3-3 7-4t11 4q6 6 5 10t-3 8q-29 29-60 54t-62 43-64 24l-5 15q-2 7-7 10t-16 3q-8 0-15-3t-4-13l3-10q-13-2-24-7t-17-14-6-21q0-14 9-25t27-10q10 0 18 3t13 10l80-248q-23 42-49 83t-52 80-53 70-51 56-47 37-42 13m182-69q0 3 2 5t7 4 12 2q1-8-4-12t-11-5q-6 0-6 6m319 70q-18 0-33-6t-27-17-21-25-13-32-4-37q0-19 4-40t13-40 24-37 33-25 43-10q19 0 32 7t20 20 7 30q0 27-14 53t-36 49-50 42q-27 20-58 35t-60 24-53 8q-7 0-11-6t-2-13 7-13 16-5q20 0 44-8t50-22 47-30q20-15 37-32t27-36 11-36q0-13-6-20t-17-7q-16 0-28 11t-20 29-12 36-4 35q0 17 4 31t13 25 20 16 25 6q14 0 27-6t25-15 24-20q6-6 13-5t13 7q6 6 7 12t-6 14q-17 19-36 31t-37 16-38 6m482 0q-37 0-66-12t-50-36-32-56-11-74q0-35 8-72t25-75 40-70 55-59 71-41 85-14q31 0 56 6t45 20 33 33q4 5 2 10t-10 10q-7 5-12 5t-12-6q-17-17-44-27t-65-9q-34 0-64 12t-56 33-46 49-34 60-22 64-8 63q0 35 7 62t22 45 37 27 53 10q20 0 38-6t35-16 34-26 35-35q6-6 12-4t12 8q6 7 7 12t-5 12q-33 37-64 58t-58 30-53 9m461-1q-20 0-40-4t-40-11-39-10-37-5q-15 0-28 3t-27 9-27 14q-8 4-16 4t-12-7q-4-6-3-11t8-13l400-413q-5 1-10 2t-9 0q-16 0-31-4t-27-8-27-9-30-3q-15 0-33 5t-35 17-34 25q-8 7-15 7t-13-8q-7-7-7-13t8-14q22-20 43-34t43-21 46-7q20 0 36 4t30 10 28 9 32 4q20 0 36-4t34-14q6-3 11-3t11 6q5 6 5 11t-10 15l-388 403q6-2 13-3t15-1q19 0 37 5t36 10 36 11 38 5q26 0 47-10t40-29 33-43q4-7 10-8t15 3q10 5 12 11t-2 13q-20 35-44 58t-53 35-66 11" />
</svg>