<svg id="fnt-Playwrite DE Grund" viewBox="0 0 5051 1000" xmlns="http://www.w3.org/2000/svg"><path id="playwrite-de-grund" class="f" d="M88 674q-22 0-22-14v-439q0-7 6-11t17-3h98q52 0 87 12t52 36 18 67q0 40-15 68t-39 45-53 29-58 15q-20 2-38 3t-31 2v176q0 7-5 10t-17 4m22-427v198q10-1 21-1t23-2 25-3q30-5 58-18t45-37 17-61q0-28-12-44t-38-24-62-8h-77m351 428q-26 0-38-13t-11-38v-412q0-6 5-10t16-3q11 0 16 3t6 10v407q0 10 4 14t11 5q6 0 9-2t8-4 7-5q4-3 8-2t9 7q3 3 4 8t-1 9q-6 9-15 14t-18 9-20 3m185 0q-28 0-50-14t-35-41-12-71q0-26 4-48t15-39 23-30 31-18 38-7q16 0 33 5t32 14v-2q0-8 6-11t16-4 16 3 6 11v196q0 6 2 10t5 7 8 2q5 0 8-2t7-3 8-6q3-3 8-2t9 5q4 5 5 11t-2 9q-6 8-14 14t-19 8-19 3q-12 0-20-2t-15-8-9-13-5-17q0 0 0-2t-1-4q-11 19-25 29t-27 13-27 4m-53-128q0 28 6 47t20 31 33 10q15 0 28-5t25-16 20-30v-121q-15-10-30-13t-30-3q-13 0-24 4t-20 12-16 20-9 28-3 36m473-113l-158 437q-2 7-7 10t-12 3q-14 0-20-7t-1-18l69-189-94-236q-3-10 2-17t20-8q7 0 12 3t8 10l73 193 67-193q2-7 7-10t13-3q14 0 20 7t1 18m132 240q-11 0-16-3t-7-10l-79-227q-3-10 2-17t20-8q8 0 12 3t7 10l62 190 66-190q2-7 7-10t13-3q7 0 12 3t7 10l68 190 61-190q3-7 7-10t12-3q15 0 20 7t2 18l-80 227q-2 6-7 10t-16 3-15-4-6-9l-65-183-64 183q-2 6-7 9t-16 4m357 0q-11 0-16-3t-5-10v-239q0-6 5-10t16-3q11 0 16 3t6 10v32q7-11 16-20t19-14 21-10 22-3q11 0 22 3t16 7 7 9-4 15q-3 8-9 10t-13 1q-6-2-12-3t-15-2q-10 0-20 3t-19 10-17 18-14 24v159q0 7-6 10t-16 3m251 1q-26 0-38-13t-12-38v-202q0-6 5-10t16-3q11 0 17 3t5 10v197q0 10 5 14t11 5q5 0 9-2t7-4 7-6q3-2 8 0t9 6q4 4 4 9t-2 9q-6 8-14 14t-18 8-19 3m-28-343q-14 0-21-8t-7-23q0-16 7-24t21-8q14 0 21 8t7 24q0 16-7 23t-21 8m205 343q-21 0-35-8t-21-22-6-34v-154h-39q-8 0-11-5t-3-15q0-12 3-16t11-4h39v-102q0-7 5-10t16-3q11 0 16 3t6 10v102h63q7 0 10 4t4 16q0 11-4 15t-10 5h-63v149q0 17 4 24t18 8q11 0 19-6t18-13q6-6 11-4t10 6q5 5 5 10t-2 10q-9 13-19 20t-22 11-23 3m219 1q-40 0-65-17t-38-45-12-61 9-61 26-45 40-30 51-10q25 0 43 7t28 22 11 38q0 19-9 34t-23 27-35 20-46 12-54 4v-35q16 0 33-2t34-7 28-12 20-16 7-22q0-16-11-23t-28-7q-17 0-31 7t-26 19-17 31-6 41q0 27 8 48t25 32 39 11q15 0 25-4t20-11 20-19q8-7 14-7t13 5 9 12-4 13q-12 19-29 30t-35 16-34 5m419-9h-65q-22 0-22-14v-432q0-7 6-11t16-3h94q59 0 101 17t71 45 42 66 13 78q0 46-9 85t-30 71-50 53-72 33-95 12m-43-417v374h43q43 0 77-8t59-26 41-43 24-59 8-75q0-35-11-65t-35-52-57-34-77-12h-72m653 417h-223q-11 0-17-5t-5-15v-426q0-7 5-11t17-3h223q7 0 10 4t3 16q0 11-3 16t-10 4h-201v157h168q7 0 10 4t4 16q0 11-4 15t-10 5h-168v183h201q7 0 10 4t3 16q0 11-3 15t-10 5m417 9q-43 0-78-18t-61-50-39-75-13-96q0-34 6-65t18-58 30-48 39-36 49-23 57-8q23 0 47 5t46 19 39 38q5 6 3 11t-8 10q-7 6-12 7t-10-4q-14-14-30-24t-36-14-39-5q-23 0-42 5t-37 18-30 28-24 38-14 49-5 57q0 47 11 83t30 62 46 39 57 13q26 0 46-7t36-19 26-33 16-49 6-65h-118q-8 0-11-4t-3-16q0-11 3-16t11-4h150q7 0 10 4t4 16q0 64-14 108t-37 73-56 41-69 13m289-2q-10 0-16-3t-5-10v-239q0-6 5-10t16-3q11 0 17 3t5 10v32q8-11 17-20t19-14 20-10 22-3q12 0 22 3t17 7 7 9-4 15q-4 8-9 10t-14 1q-5-2-12-3t-14-2q-10 0-20 3t-19 10-17 18-15 24v159q0 7-5 10t-17 3m289 1q-29 0-48-10t-30-31-9-50v-162q0-6 5-10t16-3q11 0 16 3t6 10v162q0 17 5 29t17 18 28 6q14 0 26-4t21-13 18-18 12-24v-156q0-6 5-10t17-3q10 0 16 3t5 10v197q0 7 2 11t6 7 8 2 8-2 8-5 7-5q4-3 9-2t9 7q2 4 3 9t-2 9q-5 8-13 13t-18 10-19 3q-12 0-21-3t-15-9-9-14-5-18l0-4q-7 11-16 19t-19 15-23 10-26 3m458 0q-13 0-23-3t-15-10-9-17-3-21v-120q0-18-5-31t-16-19-30-7q-11 0-22 3t-21 10-20 17-16 27v157q0 7-5 10t-17 3q-10 0-16-3t-5-10v-239q0-6 5-10t16-3q11 0 17 3t5 10v33q8-11 17-20t20-15 23-9 25-4q26 0 46 10t31 29 11 54v119q0 6 2 10t6 7 8 2 8-2 8-4 7-5q4-3 9-1t8 6q4 5 4 10t-2 9q-6 8-14 13t-18 8-19 3m182 0q-28 0-50-14t-35-41-12-71q0-26 5-48t14-39 23-30 32-18 39-7q15 0 32 5t32 13v-213q0-6 6-10t16-3q11 0 16 3t5 10v407q0 10 4 14t12 5q4 0 8-2t7-4 8-5 8-1 9 6q4 4 4 9t-2 9q-5 8-14 14t-18 8-20 3q-19 0-29-7t-15-17-4-21q0 0 0-1t0 0q-12 19-26 29t-28 13-27 4m-53-128q0 28 6 47t20 31 33 10q15 0 28-5t25-16 21-30v-119q-15-10-30-14t-31-4q-13 0-24 4t-20 12-16 20-9 28-3 36" />
</svg>