<svg id="fnt-Playwrite HU" viewBox="0 0 3795 1000" xmlns="http://www.w3.org/2000/svg"><path id="playwrite-hu" class="f" d="M217 487q-9 0-13-6t-4-13q0-8 3-13t11-6q31-1 57-8t46-18 35-28 21-36 8-43q0-23-10-40t-27-28-42-16-55-5q-40 0-73 7t-61 23-49 38q-6 7-13 8t-14-4q-8-7-9-14t5-14q17-21 39-37t51-26 60-16 68-6q42 0 75 9t55 25 34 40 12 56q0 29-10 54t-27 46-44 36-58 24-71 11m-118 188q-21 0-38-8t-27-19-15-17q-6-8-6-16t9-12q9-5 15-4t14 9q7 8 14 13t15 9 21 3q18 0 26-15t8-45v-288q0-7 6-10t16-3 17 3 5 10v291q0 29-9 52t-26 35-45 12m314 0q-9 0-14-6t-4-13 4-13 14-5q15 0 30-7t28-20 27-31 25-40 22-47 18-52 14-57 8-58 3-58q0-7 7-11t15-4 15 4 6 11q0 28-4 58t-10 61-17 61-23 59-27 54-31 46-33 36-36 24-37 8m139 0q-13 0-22-3t-16-10-8-17-3-21v-345q0-48 16-72t49-23q22 0 36 9t20 28 7 47q0 9-6 14t-15 4-15-4-7-14q0-15-2-25t-7-14-11-5-12 5-8 17-2 33v340q0 6 2 10t6 7 8 2 8-2 7-4 7-5q4-4 9-2t9 7q4 5 4 10t-2 9q-6 8-14 13t-18 8-20 3m216 0q-29 0-51-14t-34-41-13-71q0-26 5-48t14-39 23-30 31-18 39-7q16 0 33 5t32 14v-2q0-8 5-11t17-4 16 3 5 11v196q0 6 2 10t6 7 8 2q5 0 8-2t6-3 8-6q4-3 8-2t9 5q5 5 5 11t-2 9q-5 8-14 14t-18 8-20 3q-11 0-20-2t-14-8-10-13-4-17q0 0-1-2t0-4q-12 19-25 29t-27 13-27 4m-54-128q0 28 7 47t19 31 34 10q14 0 27-5t25-16 21-30v-121q-16-10-30-13t-31-3q-13 0-24 4t-20 12-15 20-10 28-3 36m484 159l-2-41q8-4 16-9t16-8 14-8 11-5q8-3 13 0t8 10 0 13-9 11q-7 3-15 8t-17 9-18 10-17 10m-88 193q-22 0-39-8t-27-23-9-36q0-15 5-31t16-31 26-30 37-30q12-7 24-15t24-16v-51q-6 11-15 20t-19 15-23 9-26 3q-29 0-48-10t-30-31-9-50v-162q0-6 5-10t16-3q11 0 16 3t6 10v162q0 17 5 29t17 18 28 6q14 0 26-4t21-13 18-18 12-24v-156q0-6 5-10t17-3q10 0 16 3t5 10v345q0 31-7 56t-20 42-32 25-41 9m3-39q13 0 23-6t17-18 10-29 4-41v-43q-10 6-21 12t-21 13q-10 9-19 18t-15 20-9 21-3 21 4 17 11 11 19 4m281-185q-18 0-33-6t-24-17-15-28-5-40v-162q0-6 5-10t16-3q11 0 16 3t6 10v162q0 17 4 29t13 18 24 6q13 0 23-4t18-13 13-18 9-23v-157q0-6 5-9t16-4q12 0 17 4t5 9v139q0 23 2 38t6 22 13 12 21 3q10 0 19-3t19-10 15-17 11-27 4-35q0-19-3-38t-8-36-15-34q-6-9-3-15t9-10 15-4q7 0 10 3t7 9q8 12 15 30t12 41 5 49q0 21-5 41t-14 38-24 30-33 21-41 7q-17 0-31-5t-24-17-17-28q-8 15-20 26t-27 17-31 6m385-1q-11 0-16-3t-5-10v-179q0-21-7-28t-18-7q-8 0-14 4t-9 13-4 20q-1 8-5 12t-13 4q-8 0-13-4t-4-16q1-22 8-38t22-24 32-9q14 0 25 3t19 10 13 16 8 22l0 3q6-13 13-24t16-17 18-11 18-4q7 0 12 4t6 15q0 14 2 24t8 14 13 5q12 0 26-12t26-25q4-5 10-4t10 6 6 11-2 10q-16 20-36 34t-40 14q-14 0-26-6t-19-18-10-29q-8 3-15 9t-13 16-11 21-9 25v140q0 7-6 10t-16 3m291 1q-26 0-38-13t-11-38v-202q0-6 5-10t16-3q11 0 16 3t6 10v197q0 10 4 14t11 5q6 0 9-2t7-4 8-6q3-2 8 0t8 6q4 4 5 9t-3 9q-5 8-14 14t-18 8-19 3m-27-343q-14 0-22-8t-7-23q0-16 7-24t22-8q13 0 20 8t7 24q1 16-7 23t-20 8m202 343q-21 0-35-8t-20-22-7-34v-154h-39q-7 0-10-5t-3-15q0-12 3-16t10-4h39v-102q0-7 5-10t16-3q11 0 17 3t5 10v102h63q8 0 11 4t3 16q0 11-3 15t-11 5h-63v149q0 17 5 24t17 8q12 0 20-6t17-13q6-6 11-4t10 6q6 5 6 10t-3 10q-8 13-19 20t-22 11-23 3m219 1q-39 0-65-17t-38-45-12-61 9-61 27-45 40-30 51-10q24 0 42 7t29 22 10 38q0 19-8 34t-23 27-36 20-46 12-54 4v-35q17 0 34-2t33-7 29-12 19-16 8-22q0-16-11-23t-29-7q-16 0-31 7t-25 19-18 31-6 41q0 27 9 48t25 32 38 11q15 0 26-4t19-11 21-19q7-7 13-7t14 5 8 12-3 13q-13 19-30 30t-35 16-34 5m388-1q-23 0-39-11t-25-30-8-39q0-19 6-36t18-33 31-31 46-26v-204q0-18-8-28t-22-9q-11 0-22 4t-21 15-21 26q-5 7-11 8t-14-4q-8-5-8-12t5-13q12-20 26-35t31-23 39-8q35 0 52 20t18 59v185q29-14 57-28t57-28 56-28v-67q0-37 7-63t24-38 43-12q22 0 38 10t24 28 9 39q0 18-5 34t-18 32-31 30-48 28v186q0 20 4 34t14 19 25 7q10 0 19-3t17-8 13-12q6-8 12-10t14 3q9 6 9 12t-7 16q-5 9-17 20t-27 17-34 7q-22 0-39-7t-26-21-15-31-5-41v-164q-19 11-41 21t-43 22-44 21-42 20v67q0 37-8 62t-23 38-42 13m0-39q16 0 22-15t7-54v-54q-15 6-26 15t-18 19-10 22-4 26q0 18 8 29t21 12m286-342v49q16-8 27-16t18-18 10-21 3-25q0-15-8-27t-19-11q-16 0-24 15t-7 54m396 381q-39 0-68-15t-43-47-15-81v-267q0-18-7-28t-21-9q-11 0-21 4t-20 15-20 27q-4 7-11 8t-15-5q-9-5-9-11t4-14q12-20 26-35t32-23 38-8q35 0 52 20t16 59v263q0 37 10 60t28 34 47 11q15 0 28-3t26-10 23-15 19-21 14-26v-357q0-7 5-10t17-4q10 0 16 4t5 10v384q0 16 4 26t10 16 17 6q12 0 20-6t16-17q6-8 12-10t15 3 9 13-4 15q-6 10-14 18t-17 15-19 8-21 3q-19 0-33-7t-23-20-12-33q0-1-1-2t0-1q-9 15-21 27t-26 20-32 12-36 4" />
</svg>