<svg id="fnt-Playwrite ID" viewBox="0 0 3781 1000" xmlns="http://www.w3.org/2000/svg"><path id="playwrite-id" class="f" d="M126 674q-22 0-22-14v-693q0-7 5-10t17-4h143q73 0 122 18t74 57 25 104q0 54-19 95t-52 69-75 44-90 23q-30 4-56 6t-50 3v288q0 7-6 10t-16 4m22-681v340q14-1 30-2t36-3 39-4q54-8 97-31t68-62 25-98q0-51-19-81t-59-45-96-14h-121m347 682q-9 0-14-6t-4-13 4-13 14-5q17 0 32-10t31-29 30-46 26-60 24-74 19-84 15-93 9-101 4-105q0-9 6-14t15-4 16 4 6 14q0 57-4 112t-11 106-18 99-24 90-28 78-33 64-36 49-39 30-40 11m139 0q-13 0-22-3t-16-10-8-17-3-21v-586q0-49 19-75t56-25q22 0 38 11t23 33 7 54q0 10-6 14t-16 5-15-5-6-14q0-19-3-32t-9-20-15-6q-10 0-17 6t-10 20-3 34v581q0 6 2 10t6 7 8 2 8-2 7-4 7-5q4-4 9-2t9 7q4 5 4 10t-2 9q-6 8-14 13t-18 8-20 3m216 0q-29 0-51-14t-34-41-13-71q0-26 5-48t14-39 23-30 31-18 39-7q16 0 33 5t32 14v-2q0-8 5-11t17-4 16 3 5 11v196q0 6 2 10t6 7 8 2q5 0 8-2t6-3 8-6q4-3 8-2t9 5q5 5 5 11t-2 9q-5 8-14 14t-18 8-20 3q-11 0-20-2t-14-8-10-13-4-17q0 0-1-2t0-4q-12 19-25 29t-27 13-27 4m-54-128q0 28 7 47t19 31 34 10q14 0 27-5t25-16 21-30v-121q-16-10-30-13t-31-3q-13 0-24 4t-20 12-15 20-10 28-3 36m487 203l-11-39q8-9 16-17t16-16 15-13 13-10q7-5 13-3t10 8 3 13-7 12q-6 5-14 12t-17 16-19 19-18 18m-82 395q-26 0-44-12t-29-34-9-56q0-30 5-64t18-70 30-71 43-69q8-10 16-20t18-20v-101q-6 11-15 20t-19 15-23 9-26 3q-29 0-48-10t-30-31-9-50v-162q0-6 5-10t16-3q11 0 16 3t6 10v162q0 17 5 29t17 18 28 6q14 0 26-4t21-13 18-18 12-24v-156q0-6 5-10t17-3q10 0 16 3t5 10v606q0 28-6 49t-17 37-29 23-39 8m3-37q11 0 19-6t15-16 8-25 3-33v-241q-4 4-8 8t-8 11q-16 24-29 53t-22 60-14 62-5 61q0 20 5 35t14 23 22 8m284-433q-18 0-32-6t-24-17-16-28-5-40v-102q0-21-6-28t-18-7q-9 0-15 4t-9 13-4 20q0 8-4 12t-13 4q-8 0-13-4t-5-16q1-22 9-38t21-24 33-9q17 0 30 5t21 16 12 26 4 36v92q0 17 4 29t14 18 24 6q10 0 21-4t20-13 16-26 6-42v-130q0-6 5-9t17-4q11 0 16 4t5 9v139q0 23 2 38t8 22 14 12 20 3q10 0 20-3t18-10 16-17 11-27 4-35q0-19-3-38t-9-36-15-34q-5-9-3-15t10-10 14-4q7 0 11 3t7 9q7 12 14 30t13 41 5 49q0 21-5 41t-15 38-24 30-32 21-42 7q-16 0-31-5t-25-17-17-29q-9 17-21 28t-28 16-31 6m280 0q-9 0-14-6t-5-13 4-13 14-5q16 0 29-12t23-36 19-59 13-81l30 5q-5 56-14 97t-23 69-33 41-43 13m258 0q-13 0-23-3t-15-11-9-17-3-23q0-14 1-32t2-37 3-36 1-30q0-19-5-27t-17-7q-14 0-32 5t-35 10-28 5q-9 0-17-10t-14-24-5-28q0-9 3-16t8-11 15-4q17 0 22 12t6 27q0 3 0 7t-1 7q6 0 20-5t31-11 36-6q20 0 32 8t18 23 6 41q0 12-1 29t-3 38-2 37-1 29q0 13 3 18t12 5q5 0 9-2t7-4 8-5q4-3 9-1t8 6q4 5 4 10t-2 9q-5 8-14 13t-18 8-19 3m150 0q-26 0-38-13t-11-38v-202q0-6 5-10t16-3q11 0 16 3t6 10v197q0 10 4 14t11 5q6 0 9-2t7-4 8-6q3-2 8 0t8 6q4 4 5 9t-3 9q-5 8-14 14t-18 8-19 3m-27-343q-14 0-22-8t-7-23q0-16 7-24t22-8q13 0 20 8t7 24q1 16-7 23t-20 8m202 343q-21 0-35-8t-20-22-7-34v-154h-39q-7 0-10-5t-3-15q0-12 3-16t10-4h39v-102q0-7 5-10t16-3q11 0 17 3t5 10v102h63q8 0 11 4t3 16q0 11-3 15t-11 5h-63v149q0 17 5 24t17 8q12 0 20-6t17-13q6-6 11-4t10 6q6 5 6 10t-3 10q-8 13-19 20t-22 11-23 3m223 0q-20 0-39-8t-35-24-27-37-18-47-7-53q0-17 4-32t12-28 18-21 23-13 28-5q29 0 46 12t26 30 8 40q0 17-6 35t-17 35-26 34q-21 24-49 42t-58 30-63 10q-7 0-11-6t-3-13 7-13 16-5q23 0 47-9t47-24 37-33q11-12 19-26t12-26 4-26q0-27-10-37t-27-10q-9 0-16 3t-13 12-8 19-3 25q0 29 8 52t22 41 28 27 29 9q10 0 19-4t18-11 20-18q7-8 14-8t13 6 8 11-3 13q-12 19-29 30t-34 16-31 5m383 1q-27 0-50-8t-42-23-34-37q-5-8-4-15t9-13q10-7 16-6t13 9q20 25 44 38t50 13q32 0 53-15t32-43 11-73v-506q-9 9-24 15t-30 6q-13 0-26-3t-23-7-22-6-20-3q-13 0-23 7t-16 20-6 31q0 7-5 12t-17 5q-11 0-16-5t-4-12q0-30 10-53t30-34 45-13q16 0 29 3t24 7 22 7 23 3q15 0 25-8t19-15q8-8 14-11t13-3q11 0 17 3t5 11v550q0 57-16 95t-48 58-78 19m460-9h-95q-22 0-22-14v-686q0-7 6-10t16-4h137q76 0 136 22t101 63 63 101 21 134q0 74-16 136t-46 109-74 81-101 51-126 17m-73-671v628h72q60 0 110-15t88-45 64-72 40-97 14-122q0-64-19-116t-53-87-86-55-115-19h-115" />
</svg>