<svg id="fnt-Playpen Sans" viewBox="0 0 3263 1000" xmlns="http://www.w3.org/2000/svg"><path id="playpen-sans" class="f" d="M61 299q1-7 5-13t19-7q7-1 16-2t17-1 16 0q45 0 80 14t56 41 20 65q0 29-14 50t-36 37-52 21-57 8q-10 0-19-1t-17-2q-1 35-3 71t-3 74q0 10-7 15t-16 5q-10 0-17-5t-6-16q6-88 8-177t10-177m36 167q8 1 18 2t22 2q16 0 35-5t34-13 27-24 10-35q0-12-5-25t-18-24-33-19-52-7q-10 0-17 1t-13 2q-2 23-3 47t-3 48-2 50m276-189q1-10 7-16t16-5q9 0 14 3t6 10 2 14q-1 14-5 45t-7 84-6 137q0 26-1 51t-2 51q0 11-7 16t-16 5q-10 0-17-5t-6-16q2-47 4-95t4-94 6-94 8-91m105 273q0-30 9-58t25-49 39-35 49-13q15 0 30 5t30 16q2-11 7-16t13-4q10 0 17 6t6 18q0 15-3 38t-6 45q-1 7-3 20t-4 25-1 20q0 10 2 24t5 25 12 11q5 0 10-4t8-12q3-5 7-8t10-2q6 0 11 3t7 7 3 12q0 10-8 21t-20 18-30 8q-14 0-25-6t-18-17-9-27q-15 22-33 34t-43 12q-32 0-54-15t-32-42-11-60m46-2q0 24 6 41t17 27 29 9q14 0 24-6t18-17 13-26q5-12 8-27t7-32 4-31 2-29q-12-10-26-15t-24-5q-18 0-33 9t-24 25-16 35-5 42m286-135q2-9 8-12t14-4q5 0 9 2t7 4 5 7 2 10q0 8-3 21t-6 34-3 52q0 26 4 49t15 39 25 15q14 0 27-11t24-28 17-33v-23q0-23 1-46t4-41 8-32q4-11 10-17t16-6q8 0 13 5t6 13 2 20q0 31-3 63t-12 64q1 11 1 22t0 22 0 22q0 35-4 69t-16 60-32 43-53 16q-30 0-56-14t-40-37q-1-4-2-7t-1-5q0-6 3-11t9-7 10-3q7 0 12 4t10 10q9 14 25 21t30 6q22 0 34-15t18-47 8-80q-12 18-30 32t-40 15q-25 0-42-13t-28-34-15-47-4-51q0-19 1-40t5-40 7-36m298 396q-11 0-18-6t-6-16q2-29 3-53t2-46 2-48 3-57 4-74 5-99q1-11 9-16t18-5q8 0 13 6t5 14q0 8 0 16t-1 23q19-27 41-40t46-13q19 0 36 10t29 27 19 39 7 48q0 31-9 59t-24 50-37 33-46 13q-19 0-38-7t-34-20q-1 37-3 70t-4 71q0 9-6 15t-16 6m100-177q14 0 27-9t22-24 15-35 6-41q0-18-4-34t-11-27-16-18-20-6q-11 0-24 8t-24 21-22 32-16 37q0 17-1 31t-1 33q15 15 34 23t35 9m284 35q-28 0-49-11t-37-30-23-42-7-47q0-26 10-51t28-46 43-33 51-13q22 0 38 9t25 24 10 35q0 21-11 39t-29 31q-26 17-56 24t-61 8q4 14 13 28t23 23 34 10q18 0 35-11t30-25q3-4 7-5t7-2q6 0 11 3t8 8 3 11q1 4-1 8t-5 7q-18 20-43 34t-54 14m-70-144q20-1 37-4t35-9q17-7 29-19t13-30q0-7-4-13t-9-9-16-4q-16 0-31 8t-26 21-19 28-9 31m245-118q2-8 8-12t14-4q9 0 16 6t7 14q0 3-1 11t-2 17-2 18q10-18 23-32t29-22 35-8q44 0 66 31t22 84q0 26-4 50t-7 47-3 47q0 9-7 15t-16 5-17-5-6-16q0-24 3-47t8-45 3-48q0-30-6-46t-17-23-24-6q-17 0-31 12t-24 29-17 38-10 34q0 28-1 54t-2 49q0 9-7 15t-17 6q-10 0-15-6t-8-15-2-21q0-17 2-37t5-38q0-28 0-51t0-40 1-32 4-28m733-91q3 3 5 6t2 9q0 6-3 11t-8 8-12 3q-4 0-11-3t-15-9q-15-8-31-12t-38-4q-25 0-42 7t-26 18-8 25q0 17 12 29t31 23 41 21q39 18 63 37t35 41 12 50q0 22-9 40t-25 33-38 21-49 8q-18 0-40-5t-41-12-30-16q-14-12-14-23 0-6 3-11t7-8 10-3q4 0 9 2t12 7q14 8 34 17t50 9q21 0 37-8t27-21 10-29q0-17-9-33t-28-30-46-25q-18-9-38-18t-36-23-26-31-10-43q0-28 16-48t44-33 66-11q31 0 59 9t48 25m66 236q0-30 9-58t25-49 39-35 49-13q15 0 30 5t30 16q2-11 7-16t13-4q10 0 17 6t6 18q0 15-3 38t-6 45q-1 7-3 20t-4 25-1 20q0 10 2 24t5 25 12 11q5 0 10-4t8-12q3-5 7-8t10-2q6 0 11 3t7 7 3 12q0 10-8 21t-20 18-30 8q-14 0-25-6t-18-17-9-27q-15 22-33 34t-43 12q-32 0-54-15t-32-42-11-60m46-2q0 24 6 41t17 27 29 9q14 0 24-6t18-17 13-26q5-12 8-27t7-32 4-31 2-29q-12-10-26-15t-24-5q-18 0-33 9t-24 25-16 35-5 42m290-143q2-8 8-12t14-4q9 0 16 6t7 14q0 3-1 11t-2 17-2 18q10-18 23-32t29-22 35-8q44 0 66 31t22 84q0 26-4 50t-7 47-3 47q0 9-7 15t-16 5-17-5-6-16q0-24 3-47t8-45 3-48q0-30-6-46t-17-23-24-6q-17 0-31 12t-24 29-17 38-10 34q0 28-1 54t-2 49q0 9-7 15t-17 6q-10 0-15-6t-8-15-2-21q0-17 2-37t5-38q0-28 0-51t0-40 1-32 4-28m454 26q4 4 5 8t1 8q0 6-4 10t-8 8-10 3q-5 0-9-3t-8-6q-5-7-17-15t-29-7q-16 0-28 8t-12 21q0 15 10 23t33 20q18 8 34 20t27 28 11 41q0 20-10 36t-28 27-42 10q-27 0-54-13t-46-28q-4-3-5-7t-2-7q0-9 7-17t15-7q2 0 5 1t6 4q16 12 35 22t36 10q19 0 27-9t9-19q0-18-14-32t-35-22q-23-11-38-23t-22-26-6-31q0-21 12-37t32-25 43-9q24 0 45 9t34 26" />
</svg>