<svg id="fnt-Play" viewBox="0 0 905 1000" xmlns="http://www.w3.org/2000/svg"><path id="play" class="f" d="M42 667v-325h106q23 0 36 1t30 5q16 3 25 10t17 19q7 12 7 29v68q0 40-32 58t-92 18h-48v117h-49m48-148h56q31 0 50-11t19-37v-59q0-13-7-22t-20-12q-12-3-21-4t-22-1h-55v146m234 148v-350h45v350h-45m198 5q-35 0-54-7t-27-23-8-47q0-28 8-43t26-22 54-6h72v-39q0-13-5-21t-18-10-35-3q-38 0-83 6v-33q49-4 89-4 42 0 62 6t28 22 7 48v171h-43v-23q-6 28-73 28m-2-30h9q25 0 42-3 22-5 22-21v-66h-69q-22 0-31 3t-13 12-3 29q0 18 4 28t12 14 27 4m216 129l38-101-94-245h49l68 197h1l61-197h45l-121 346h-47" />
</svg>