<svg id="fnt-Playwrite DE SAS" viewBox="0 0 4904 1000" xmlns="http://www.w3.org/2000/svg"><path id="playwrite-de-sas" class="f" d="M55 674q-24 0-20-15l106-423q2-7 8-10t17-3h82q48 0 79 11t48 34 16 57q0 38-15 66t-41 48-62 30-76 18q-19 2-39 3t-37 1l-42 169q-2 7-8 10t-16 4m123-411l-47 188q11 0 24 0t27-2 26-3q42-7 73-21t48-38 17-58q0-24-11-38t-34-22-58-6h-65m99 412q-9 0-12-6t-2-13 7-13 14-5q13 0 30-8t37-21 41-33 43-42 41-47 37-52 30-53 20-52 7-47q0-7 7-11t15-3 14 3 7 11q0 23-8 49t-23 55-35 58-42 58-48 54-50 47-48 38-45 24-37 9m161 0q-17 0-27-8t-12-18-1-25 5-27l69-279q14-55 34-80t53-25q16 0 28 9t19 24 7 37q0 9-7 14t-14 4-15-4-7-14q0-9-1-16t-6-10-10-3q-7 0-13 6t-13 22-13 44l-73 288q-2 8-2 13t2 7 6 3q5 0 10-4t10-9 11-13q4-4 8-5t11 3q8 5 9 9t-1 10q-5 10-14 20t-23 19-30 8m201 0q-20 0-35-10t-23-30-8-46q0-23 6-49t19-49 31-42 43-31 54-11q15 0 31 4t31 12v-2q2-7 7-10t14-2q15 0 19 5t2 13l-47 187q-3 8-3 13t2 7 7 3q5 0 10-4t10-9 11-13q4-4 8-5t11 3q7 4 9 9t-1 11q-5 9-14 19t-22 19-30 8q-16 0-25-7t-13-16-3-22 3-23q0-2 0-5t1-5q-18 27-36 44t-35 26-34 8m-21-92q0 16 3 28t12 18 18 6q18 0 37-16t41-47 40-74l10-39q-16-7-30-10t-25-2q-21 0-38 8t-30 23-21 33-13 36-4 36m453 115l5-44q10-6 19-12t18-10 16-9 15-7q8-4 12-1t7 10-1 13-8 10q-9 5-19 11t-21 12-21 13-22 14m-116 172q-19 0-33-7t-22-19-8-28q0-16 7-30t19-28 31-27 42-28q14-9 28-17t29-18l20-81q-13 22-27 38t-29 27-30 17-31 6q-23 0-38-11t-18-32 5-53l39-154q2-10 7-13t15-3q14 0 19 5t2 13l-41 158q-4 15-3 26t6 18 21 6q16 0 34-12t35-34 34-52 30-65l10-47q3-10 8-13t15-3q14 0 19 5t2 13l-78 311q-9 35-21 60t-26 41-32 24-40 7m6-39q11 0 21-5t19-17 16-30 14-43l4-18q-8 5-17 10t-16 10q-17 10-29 20t-21 18-11 17-4 16q0 7 2 12t9 7 13 3m314-155q-21 0-34-8t-19-24-5-33 5-39l36-148q2-7 7-11t16-4q15 0 19 4t2 14l-37 148q-4 16-5 30t4 23 21 8q13 0 26-8t25-24 22-33 18-38l28-109q2-7 6-11t16-4q15 0 19 4t1 14l-32 136q-2 11-4 24t-1 24 7 18 21 7q16 0 30-9t28-26 22-36 14-42 6-40q0-8-1-16t-2-16-4-16q-3-9-1-15t7-10 13-3q9 0 15 6t8 17q3 7 5 15t2 16 1 16q0 25-7 52t-20 54-32 47-42 34-51 12q-22 0-36-8t-20-22-8-31q-11 19-25 32t-30 22-34 7m384-2q-8 0-15-3t-4-12l50-196q1-8-1-13t-8-5q-6 0-12 4t-13 11-16 20q-5 7-10 9t-13-2q-10-5-10-11t3-12q10-16 21-29t25-20 33-7q16 0 25 5t13 15 4 20-2 22l-6 26q12-22 24-39t25-28 24-16 20-6q8 0 12 4t3 15q0 13 2 21t5 13 10 4q11 0 24-7t35-23q6-3 11-1t9 8 3 11-4 10q-22 18-41 27t-40 9q-11 0-22-4t-17-15-7-28q-11 7-25 21t-27 34-28 48-24 57l-12 50q-2 7-7 10t-17 3m297 1q-29 0-38-21t2-58l41-171q3-10 8-13t14-3q15 0 19 5t2 13l-46 186q-3 12-2 18t9 6q5 0 10-3t9-9 11-14q4-4 8-5t11 3q7 4 9 9t-1 10q-9 15-19 25t-22 16-25 6m51-343q-11 0-18-7t-7-19q0-15 9-26t26-11q11 0 18 7t7 20q0 14-9 25t-26 11m-28 343q-7 0-11-6t-2-13 6-13 14-5q12 0 30-15t40-40 45-58 47-67 45-71 38-66 29-55 15-35q3-10 7-13t15-3q15 0 19 5t2 13l-95 379q21-6 43-20t49-35 57-52q2-3 7-4t10 4q7 5 7 10t-4 7q-27 28-56 54t-58 44-63 25l-4 16q-2 7-7 10t-16 3q-9 0-15-3t-5-12l3-11q-14-2-26-7t-18-14-7-21q0-14 10-25t27-10q9 0 16 3t14 9l54-217q-18 33-39 69t-44 71-46 65-47 54-45 37-41 13m176-69q0 3 2 5t8 4 13 2q0-8-6-13t-10-4q-7 0-7 6m320 70q-20 0-36-7t-28-19-21-27-12-34-4-36 4-39 13-39 22-34 31-25 42-9q18 0 31 7t20 20 8 30q0 23-13 47t-33 47-46 43q-27 21-58 38t-60 27-53 9q-7 0-11-6t-2-13 6-13 16-5q19 0 42-9t49-23 48-33q19-15 35-32t25-35 10-32q0-14-6-20t-17-7q-14 0-25 10t-18 26-12 34-4 35 4 31 13 27 21 19 27 7 28-6 25-17 24-21q6-7 13-6t13 7q6 6 7 12t-5 13q-17 21-36 34t-38 18-39 6m389-9h-88q-22 0-18-14l105-417q2-7 8-10t18-3h80q48 0 83 12t58 34 34 49 11 58q0 52-14 96t-41 80-63 61-80 40-93 14m36-402l-91 359h55q39 0 75-11t66-31 54-52 35-69 12-85q0-25-9-46t-28-35-43-22-57-8h-69m423 411q-40 0-68-13t-44-37-16-57q0-24 9-46t26-41 39-32 49-18q-20-7-33-19t-20-29-7-34q0-24 7-45t21-37 31-28 41-19 49-6q27 0 50 7t43 20 30 29q7 8 6 15t-8 12q-7 6-15 5t-14-8q-12-11-27-20t-33-12-40-4-39 6-30 19-20 29-6 36q0 19 9 34t27 22 43 9h59q9 0 10 4t0 16q-3 11-7 15t-12 5h-60q-27 0-51 8t-42 25-28 35-10 43 11 37 31 23 48 7q24 0 45-8t42-23 36-37q7-10 14-10t15 6q8 6 7 12t-7 16q-21 30-46 49t-54 29-61 10m499 0q-23 0-43-5t-37-14-31-21-24-26q-4-5-2-11t8-10q7-6 12-7t11 4q11 13 27 23t35 18 44 7q24 0 44-6t35-15 23-28 8-38q0-15-5-27t-14-22-23-19-31-17q-17-8-32-18t-28-20-23-25-15-31-5-38q0-25 10-46t29-37 45-24 59-8q26 0 48 7t39 19 32 26q5 5 4 11t-8 11q-5 6-11 7t-11-2q-12-10-25-18t-30-13-38-5q-21 0-39 4t-31 14-20 22-7 32q0 16 4 29t14 24 24 20 36 19q22 11 40 23t31 28 20 33 7 41q0 29-11 53t-33 41-49 26-63 9m260-1q-15 0-27-5t-22-11-14-10q-6-6-5-12t6-14q6-7 12-8t11 4q10 8 19 12t21 4q10 0 20-4t22-14 26-29 33-48 41-72 53-100 66-134q4-11 12-15t19-4q15 0 22 5t7 17q-2 31-3 64t-2 65 0 66 2 65 4 62q1 22 4 36t7 24 10 12 13 4q10 0 21-10t23-29 23-50q3-7 9-10t14 2q10 3 13 8t1 12q-14 39-31 65t-36 39-41 13q-17 0-29-6t-22-21-14-35-8-51q0-8-1-15t0-15h-125q-23 37-41 62t-34 42-29 24-26 12-24 3m176-182h101q-1-33-2-67t1-69 1-68q-29 63-54 114t-47 90m445 183q-23 0-43-5t-37-14-31-21-24-26q-4-5-2-11t8-10q7-6 12-7t11 4q11 13 27 23t35 18 44 7q24 0 44-6t35-15 23-28 8-38q0-15-5-27t-14-22-23-19-31-17q-17-8-32-18t-28-20-23-25-15-31-5-38q0-25 10-46t29-37 45-24 59-8q26 0 48 7t39 19 32 26q5 5 4 11t-8 11q-5 6-11 7t-11-2q-12-10-25-18t-30-13-38-5q-21 0-39 4t-31 14-20 22-7 32q0 16 4 29t14 24 24 20 36 19q22 11 40 23t31 28 20 33 7 41q0 29-11 53t-33 41-49 26-63 9" />
</svg>