<svg id="fnt-Playwrite ES Deco" viewBox="0 0 5099 1000" xmlns="http://www.w3.org/2000/svg"><path id="playwrite-es-deco" class="f" d="M209 478q-10 0-14-5t-5-16q0-10 4-15t14-5q40-1 71-11t54-28 34-46 12-63q0-43-23-66t-61-22q-22 0-42 9t-36 27-28 42-18 56-6 67v258q0 6-5 10t-17 4q-11 0-16-4t-6-10v-392q-8 16-20 29t-26 24-33 22q-9 5-15 3t-12-12q-5-9-4-16t12-10q27-15 45-34t31-45 19-54q2-11 8-13t17-3q11 0 16 3t6 11v75q15-30 35-49t45-30 53-10q38 0 66 16t44 44 16 69q0 44-15 79t-45 60-68 37-87 14m200 197q-10 0-14-6t-5-13 5-13 14-5q15 0 30-8t28-20 28-33 24-42 22-50 19-56 14-60 8-63 3-64q0-7 7-11t15-4 15 4 7 11q0 31-4 64t-11 66-17 65-23 63-27 56-31 48-34 38-36 25-37 8m139 0q-13 0-23-3t-15-10-9-17-2-21v-372q0-48 16-71t50-24q21 0 35 10t22 28 7 47q0 10-7 14t-15 5-15-5-7-14q0-15-2-25t-7-15-12-5q-7 0-12 5t-8 17-2 33v367q0 6 2 10t5 7 8 2 8-2 8-4 7-5q4-4 9-2t8 7q4 5 4 10t-2 9q-5 8-14 13t-18 8-19 3m215 0q-28 0-50-14t-35-41-12-71q0-26 4-48t15-39 23-30 31-18 38-7q16 0 33 5t32 14v-2q0-8 6-11t16-4 16 3 6 11v196q0 6 2 10t5 7 8 2q5 0 8-2t7-3 8-6q3-3 8-2t9 5q4 5 5 11t-2 9q-6 8-14 14t-19 8-19 3q-12 0-20-2t-15-8-9-13-5-17q0 0 0-2t-1-4q-11 19-25 29t-27 13-27 4m-53-128q0 28 6 47t20 31 33 10q15 0 28-5t25-16 20-30v-121q-15-10-30-13t-30-3q-13 0-24 4t-20 12-16 20-9 28-3 36m484 164l-3-41q8-5 16-10t15-9 14-8 12-6q8-3 14 0t7 10 1 13-9 11q-7 3-15 8t-17 10-18 11-17 11m-87 215q-23 0-41-8t-26-25-9-38q0-17 5-34t15-35 27-35 38-34q12-8 23-16t24-16v-57q-7 11-16 20t-19 15-23 9-25 3q-29 0-49-10t-29-31-10-50v-162q0-6 5-10t16-3q11 0 17 3t5 10v162q0 17 6 29t16 18 28 6q14 0 26-4t22-13 17-18 13-24v-156q0-6 5-10t16-3q11 0 16 3t6 10v374q0 31-7 55t-20 41-31 25-41 9m2-38q13 0 23-7t17-17 10-29 4-41v-64q-10 6-20 12t-19 13q-12 10-21 21t-15 25-10 25-3 25q0 12 4 20t11 12 19 5m296-213q-20 0-34-6t-24-18-15-31-4-45v-93q0-21-7-28t-18-7q-8 0-14 4t-9 13-4 20q-1 8-5 12t-13 4q-8 0-13-4t-4-16q1-22 8-38t22-24 32-9q18 0 30 5t21 16 13 26 4 36v72q0 19 1 33t6 23 13 13 21 4q10 0 21-4t21-13 15-26 6-42l14 60q-6 15-15 27t-20 20-23 12-26 4m152 1q-20 0-35-6t-26-20-16-32-5-46v-150q0-6 5-10t16-3q11 0 16 3t6 10v142q0 19 1 33t7 23 13 12 23 4q9 0 18-2t15-8 13-13 10-20 6-28 3-35q0-41-5-63t-11-31-16-8q-9 0-13 5t-3 11q0 7 5 13t18 11 35 4q19 0 36-8t35-20q6-4 11-1t8 9 3 12-4 10q-22 15-42 23t-47 8q-30 0-50-8t-30-22-9-31q0-13 5-24t16-16 26-5q26 0 43 17t24 46 8 68q0 23-4 42t-9 36-16 29-21 21-29 14-34 4m125-1q-10 0-15-6t-5-13 5-13 14-5q15 0 28-12t24-36 18-59 13-81l30 5q-4 56-14 97t-23 69-33 41-42 13m257 0q-13 0-22-3t-16-11-9-17-3-23q0-14 1-32t3-37 2-36 2-30q0-19-5-27t-18-7q-14 0-32 5t-35 10-27 5q-9 0-18-10t-13-24-6-28q0-9 3-16t9-11 15-4q16 0 22 12t5 27q0 3 0 7t0 7q6 0 19-5t31-11 36-6q20 0 33 8t18 23 6 41q0 12-2 29t-2 38-3 37-1 29q0 13 4 18t11 5q5 0 9-2t8-4 7-5q4-3 9-1t9 6q4 5 4 10t-2 9q-6 8-14 13t-18 8-20 3m151 0q-26 0-38-13t-12-38v-202q0-6 5-10t16-3q11 0 17 3t5 10v197q0 10 5 14t11 5q5 0 9-2t7-4 7-6q3-2 8 0t9 6q4 4 4 9t-2 9q-6 8-14 14t-18 8-19 3m-28-343q-14 0-21-8t-7-23q0-16 7-24t21-8q14 0 21 8t7 24q0 16-7 23t-21 8m203 343q-21 0-35-8t-21-22-6-34v-154h-39q-8 0-11-5t-3-15q0-12 3-16t11-4h39v-102q0-7 5-10t16-3q11 0 16 3t6 10v102h63q7 0 10 4t4 16q0 11-4 15t-10 5h-63v149q0 17 4 24t18 8q11 0 19-6t18-13q6-6 11-4t10 6q5 5 5 10t-2 10q-9 13-19 20t-22 11-23 3m222 0q-20 0-39-8t-34-24-28-37-18-47-6-53q0-17 4-32t11-28 18-21 24-13 28-5q28 0 46 12t26 30 8 40q0 17-7 35t-17 35-25 34q-22 24-49 42t-59 30-63 10q-7 0-10-6t-3-13 6-13 17-5q23 0 47-9t46-24 38-33q11-12 18-26t12-26 4-26q0-27-10-37t-27-10q-8 0-16 3t-12 12-9 19-3 25q0 29 8 52t22 41 29 27 29 9q9 0 18-4t19-11 20-18q7-8 13-8t14 6 8 11-3 13q-13 19-30 30t-33 16-32 5m429 1q-50 0-87-16t-56-48-20-74q0-25 8-47t21-40 35-30 44-17q-27-8-47-25t-29-40-11-49q0-24 7-44t20-36 31-28 41-17 49-6q25 0 48 5t43 16 38 27q9 9 9 17t-9 15q-7 6-13 4t-15-7q-13-11-29-19t-34-11-39-3q-24 0-43 5t-32 17-20 28-6 36q0 27 12 49t34 34 51 13h70q7 0 10 4t3 16q0 11-3 15t-10 5h-68q-26 0-48 8t-38 23-25 35-9 45q0 31 14 52t41 33 63 12q22 0 43-6t39-17 37-32q8-8 13-10t14 4q9 7 10 13t-6 17q-20 25-44 41t-50 25-57 8m502 0q-16 0-32-3t-29-7-26-11-21-14q-10-8-11-15t5-16q6-7 12-8t14 5q10 6 22 12t28 10 38 4q22 0 41-8t34-22 22-34 8-43q0-25-10-47t-26-42-36-37-40-33-37-30q-25 66-46 117t-39 88-36 62-36 40-41 22-48 6q-11 0-16-4t-4-15q0-11 4-16t16-5q15 0 28-3t26-12 25-24 27-39 30-59 35-81 42-108q-13-13-23-26t-18-27-12-28-4-30q0-22 8-38t23-25 34-9q29 0 47 19t18 51q0 12-2 25t-6 30-16 46q15 13 33 27t39 32 39 35 34 41 24 45 9 51q0 34-10 62t-31 48-47 30-62 11m-60-415q5-15 8-27t4-22 2-18q0-15-7-24t-16-9q-7 0-13 4t-8 10-3 17q0 11 3 21t11 23 19 25m480 415q-20 0-36-8t-24-20-9-28q0-20 9-34t25-21 36-8q18 0 33 5t29 14 29 18 32 18 37 14 45 5q25 0 47-7t42-20 35-33 26-44 16-53 6-61q0-47-16-86t-45-67-74-43-98-15q-20 0-42 2t-43 7-40 16-32 25-18 38q-2 9-8 13t-15 1q-9-1-12-7t-3-14q5-29 20-50t37-35 48-23 54-12 54-4q66 0 117 19t88 53 55 80 19 103q0 39-7 73t-22 62-33 52-43 39-53 24-60 9q-34 0-60-8t-45-19-36-22-31-19-31-8q-14 0-20 6t-6 14q0 8 6 13t19 6q16 0 26-9t15-24 4-38v-306q0-7 6-11t16-3 17 3 5 11v308q0 32-10 57t-30 38-51 14m617-1q-20 0-39-8t-34-24-28-37-18-47-6-53q0-17 4-32t11-28 18-21 24-13 28-5q28 0 46 12t26 30 8 40q0 17-7 35t-17 35-25 34q-22 24-49 42t-59 30-63 10q-7 0-10-6t-3-13 6-13 17-5q23 0 47-9t46-24 38-33q11-12 18-26t12-26 4-26q0-27-10-37t-27-10q-8 0-16 3t-12 12-9 19-3 25q0 29 8 52t22 41 29 27 29 9q9 0 18-4t19-11 20-18q7-8 13-8t14 6 8 11-3 13q-13 19-30 30t-33 16-32 5m218 1q-34 0-60-15t-41-44-15-73q0-30 8-55t25-44 37-28 48-10q22 0 45 9t42 32q5 7 4 12t-7 12q-6 6-12 8t-12-4q-13-11-27-20t-35-9q-17 0-30 7t-23 19-14 29-5 40q0 29 8 50t25 33 39 11q16 0 27-4t21-13 20-20q5-5 11-5t13 6 9 11-2 12q-14 19-31 31t-34 17-34 5m263 0q-33 0-60-17t-41-48-15-69q0-27 8-49t24-39 40-25 58-9l-1 22q-20 0-35 6t-27 20-17 32-6 42q0 29 9 50t25 33 38 11q17 0 30-6t22-19 14-30 5-39q0-29-8-51t-25-32-38-12q-17 0-26 5t-10 16q0 8 7 14t19 9 24 3q17 0 35-5t38-17 49-35q7-5 13-4t9 7 3 12-6 12q-31 27-56 40t-45 19-41 5q-22 0-43-7t-34-21-13-38q0-16 11-29t29-19 37-7q34 0 60 17t41 48 15 70q0 23-6 44t-16 37-25 28-31 19-38 6" />
</svg>