<svg id="fnt-Playfair Display SC" viewBox="0 0 4940 1000" xmlns="http://www.w3.org/2000/svg"><path id="playfair-display-sc" class="f" d="M147 524h-39v90q0 19 4 27t14 12 33 4v10q-26-2-74-2-43 0-64 2v-10q18-1 26-4t12-12 3-27v-248q0-19-3-28t-12-11-26-4v-10q21 1 61 1l54 0q10-1 22-1 58 0 89 27t31 72q0 27-12 52t-42 43-77 17m-2-201q-15 0-23 3t-11 13-3 27v148h34q49 0 67-27t19-70q0-48-19-71t-64-23m296 40v10q-18 1-26 4t-11 11-3 28v198q0 19 3 27t11 11 26 3h32q34 0 53-20t24-68h11q-1 15-1 41 0 26 3 59-32-2-109-2-93 0-140 2v-10q18-1 26-4t11-12 3-27v-198q0-19-3-28t-11-11-26-4v-10q21 1 64 1 40 0 63-1m413 262q14 31 35 32v10q-20-2-54-2-43 0-64 2v-10q19-1 27-5t9-14q0-8-7-23l-25-57h-122l-17 37q-8 20-8 32 0 13 9 20t30 10v10q-15-2-46-2t-43 2v-10q13-4 23-16t18-31l110-250h8l117 265m-197-77h114l-57-127-57 127m451-183q28 0 38-2v10q-8 2-15 10t-17 24l-78 141v66q0 19 3 27t11 12 26 4v10q-23-2-63-2-43 0-64 2v-10q18-1 26-4t11-12 3-27v-52l-96-161q-10-16-16-21t-13-7v-10q32 2 44 2 34 0 70-2v10q-17 0-26 3t-9 12q0 9 8 24l76 126 62-109q11-20 11-32 0-21-35-24v-10q19 2 43 2m304-2q-4 30-4 54 0 19 2 31h-12q-3-41-17-58t-45-16h-36q-18 0-27 3t-11 11-3 28v93h42q16 0 24-9t12-18 5-24h12q-2 17-2 37v19q0 19 3 56h-11q-3-24-12-38t-31-13h-42v95q0 19 4 27t14 12 33 4v10q-26-2-74-2-43 0-64 2v-10q18-1 26-4t12-12 3-27v-198q0-19-3-28t-12-11-26-4v-10q48 1 140 1 70 0 100-1m268 262q13 31 34 32v10q-20-2-53-2-43 0-64 2v-10q18-1 27-5t9-14q0-8-7-23l-26-57h-121l-17 37q-9 20-9 32 0 13 9 20t30 10v10q-15-2-45-2t-44 2v-10q14-4 23-16t18-31l111-250h8l117 265m-197-77h113l-56-127-57 127m378-185v10q-18 1-26 4t-11 11-3 28v198q0 19 3 27t11 12 26 4v10q-23-2-63-2-43 0-64 2v-10q18-1 26-4t11-12 3-27v-198q0-19-3-28t-11-11-26-4v-10q21 1 64 1 40 0 63-1m330 276l7 7q-9 13-22 20t-29 8q-42 0-51-38l-16-63q-7-28-21-37t-40-10h-29v88q0 19 3 27t11 12 27 4v10q-23-2-64-2-43 0-64 2v-10q18-1 26-4t12-12 3-27v-198q0-19-3-28t-12-11-26-4v-10q21 1 61 1l51 0q9-1 20-1 56 0 85 21t30 55q0 29-23 53t-76 30q10 1 17 2 26 4 42 16t22 39l11 45q4 18 8 25t13 7q12 0 27-17m-169-266q-13 0-20 3t-9 13-3 27v100h34q44 0 60-19t16-53q0-36-18-54t-60-17m448-60q89 0 133 44t44 129q0 54-22 95t-62 63-97 23l-29-1q-28-1-41-1-41 0-62 2v-10q18-1 26-4t11-12 3-27v-248q0-19-3-28t-11-11-26-4v-10q17 1 48 1l43 0q34-1 45-1m-12 9q-16 0-24 3t-10 13-3 27v250q0 18 3 27t10 12 24 4q53 0 84-20t42-56 13-94-14-94-44-54-81-18m362 41v10q-18 1-26 4t-11 11-3 28v198q0 19 3 27t11 12 26 4v10q-23-2-63-2-43 0-64 2v-10q18-1 26-4t11-12 3-27v-198q0-19-3-28t-11-11-26-4v-10q21 1 64 1 40 0 63-1m149-7q22 0 35 4t26 14q11 7 17 7 5 0 7-5t4-17h12q-3 26-3 92h-11q-3-36-24-61t-58-25q-27 0-44 14t-17 36q0 15 7 27t20 19 35 21l17 9q31 16 49 29t31 30 11 39q0 40-29 62t-73 23q-24 0-40-5t-29-14q-11-7-17-7-4 0-7 5t-4 17h-11q2-24 2-110h11q4 47 25 75t66 29q25 0 43-15t19-42q0-16-10-29t-25-23-45-25q-41-21-62-42t-22-54q0-37 27-58t67-20m281 188h-33v70q0 19 3 27t11 12 26 4v10q-23-2-63-2-43 0-64 2v-10q18-1 26-4t11-12 3-27v-198q0-19-3-28t-11-11-26-4v-10q21 1 61 1l54 0q9-1 21-1 54 0 82 23t29 61q0 24-12 46t-40 36-75 15m4-171q-16 0-24 3t-10 13-3 27v118h28q46 0 64-22t18-60q0-40-17-60t-56-19m284-10v10q-18 1-26 4t-11 11-3 28v198q0 19 3 27t11 11 26 3h32q34 0 53-20t24-68h11q-1 15-1 41 0 26 3 59-32-2-109-2-93 0-140 2v-10q18-1 26-4t11-12 3-27v-198q0-19-3-28t-11-11-26-4v-10q21 1 64 1 40 0 63-1m413 262q14 31 35 32v10q-20-2-54-2-43 0-64 2v-10q19-1 27-5t9-14q0-8-7-23l-25-57h-122l-17 37q-8 20-8 32 0 13 9 20t30 10v10q-15-2-46-2t-43 2v-10q13-4 23-16t18-31l110-250h8l117 265m-197-77h114l-57-127-57 127m451-183q28 0 38-2v10q-8 2-15 10t-17 24l-78 141v66q0 19 3 27t11 12 26 4v10q-23-2-63-2-43 0-64 2v-10q18-1 26-4t11-12 3-27v-52l-96-161q-10-16-16-21t-13-7v-10q32 2 44 2 34 0 70-2v10q-17 0-26 3t-9 12q0 9 8 24l76 126 62-109q11-20 11-32 0-21-35-24v-10q19 2 43 2m281-58q22 0 34 5t27 14q11 7 17 7 4 0 7-6t4-16h11q-2 29-2 102h-12q-3-41-23-69t-59-27q-27 0-44 16t-17 42q0 19 9 33t22 24 39 25l14 9q32 20 50 34t29 34 11 45q0 45-30 70t-76 25q-24 0-39-5t-29-14q-11-7-17-7-5 0-7 5t-4 17h-12q2-27 2-120h12q3 51 25 82t66 32q27 0 46-17t19-50q0-28-19-47t-59-44q-30-18-48-32t-30-34-11-46q0-42 27-65t67-22m327-1q30 0 51 8t41 24q6 5 10 5 10 0 13-30h11q-2 32-2 115h-11q-6-33-10-47t-15-27q-15-20-39-30t-50-9q-32 0-57 21t-37 61-14 94q0 54 15 93t40 59 58 21q25 0 49-10t37-28q10-14 14-30t9-49h11q0 86 2 120h-11q-2-16-5-23t-7-7q-4 0-11 4-22 16-43 24t-49 9q-48 0-84-22t-55-62-20-97q0-55 20-98t57-66 82-23" />
</svg>