<svg id="fnt-Playwrite MX" viewBox="0 0 3935 1000" xmlns="http://www.w3.org/2000/svg"><path id="playwrite-mx" class="f" d="M233 478q-10 1-14-5t-2-17q2-10 7-15t14-4q49-3 89-16t69-37 45-53 16-65q0-31-17-48t-47-17q-19 0-38 8t-40 24-37 37-34 50-29 59l-90 281q-2 7-8 10t-18 4q-11 0-16-4t-3-11l125-386q-12 12-26 22t-28 19-32 17q-10 5-17 1t-11-13q-3-10-1-16t13-11q34-15 58-32t43-39 32-48q4-8 9-11t17-3q11 0 16 4t3 11l-19 61q22-26 45-42t49-25 49-9q29 0 51 13t34 36 12 53q0 46-20 84t-56 68-85 46-108 19m129 197q-9 0-12-6t-2-13 8-13 16-5q15 0 35-10t43-27 46-41 47-52 45-57 40-61 32-60 21-55 8-48q0-7 7-11t15-4 15 4 7 11q0 23-9 51t-24 60-37 65-46 66-51 64-55 56-54 45-51 30-44 11m160 0q-22 0-33-8t-13-21-1-29 7-32l112-343q14-45 35-65t49-20q17 0 29 9t19 24 7 37q0 10-7 14t-15 5-15-5-7-14q0-9-2-15t-6-10-10-3q-6 0-12 5t-12 14-11 30l-117 361q-2 7-3 13t2 11 9 4 13-3 11-10 10-11q2-4 7-6t13 4q9 5 9 10t-2 11q-5 8-15 18t-22 18-29 7m201 0q-22 0-37-10t-24-28-8-43q0-22 6-48t19-50 32-45 45-32 59-12q17 0 33 5t30 14l0-2q4-9 8-12t14-3q16 0 20 5t1 15l-59 180q-2 7-3 13t1 11 10 4q7 0 13-3t11-10 9-11q3-4 8-6t13 4q8 5 9 10t-3 11q-4 8-14 18t-22 18-29 7q-16 0-25-5t-15-12-6-17 0-19q0-2 0-3t0-2q-17 22-35 35t-33 18-28 5m-24-87q0 16 4 26t13 16 21 5q17 0 34-11t35-33 34-51l27-81q-14-7-26-10t-25-2q-25 0-45 9t-33 26-23 35-12 37-4 34m452 128l4-43q10-6 19-12t19-10 18-9 15-7q8-3 12 0t6 11-1 13-7 10q-10 4-20 10t-22 12-22 12-21 13m-141 210q-29 0-47-16t-18-43q0-22 9-41t26-37 40-36 51-34q10-5 19-11t18-11 18-10l23-69q-12 13-24 24t-25 18-26 11-26 4q-27 0-43-12t-19-35 6-52l35-108q3-11 0-16t-10-6q-7 0-14 4t-14 13-15 23q-5 7-9 9t-13 1q-10-2-12-9t2-14q9-18 20-33t27-23 33-8q17 0 27 5t16 17 5 24-5 29l-30 95q-6 19-5 32t8 18 26 7q13 0 28-8t30-21 29-33 26-43l34-106q3-10 8-13t14-3q16 0 20 5t1 15l-119 364q-11 36-24 61t-28 42-33 23-40 7m7-38q15 0 29-11t26-32 21-54l17-53q-5 2-10 5t-10 6-9 6q-22 14-39 27t-29 26-18 26-6 27q0 9 4 15t10 9 14 3m368-212q-26 0-41-9t-19-26-3-35 8-38l33-100q3-11 0-16t-10-6q-8 0-16 4t-14 13-17 23q-4 7-8 9t-14 1q-9-2-11-9t1-14q9-18 22-33t28-23 34-8q16 0 27 5t16 17 5 24-5 29l-27 84q-4 10-7 22t-2 23 7 17 21 7q15 0 29-9t24-23 20-32 13-32l10 29q-8 21-18 40t-24 34-29 23-33 9m154 0q-26 0-42-9t-25-24-9-34 7-40l46-144q3-9 7-13t15-3q16 0 20 5t1 14l-44 139q-4 10-6 22t0 23 10 17 25 7q17 0 32-8t29-22 23-32 18-38 12-41 4-39q0-10-3-16t-6-9-7-2q-7 0-11 6t-5 13q0 8 5 13t14 7 19 2q25 0 48-7t41-16q6-3 11 0t8 9 3 12-5 9q-22 11-49 18t-60 8q-21 0-36-6t-24-19-8-26q0-13 5-26t17-20 31-8q14 0 26 7t18 20 7 34q0 22-5 47t-14 49-23 46-31 39-41 26-48 10m222-2q-8 0-15-3t-4-13l62-190q3-11 0-16t-11-6q-7 0-13 4t-14 13-16 23q-4 7-8 9t-14 1q-10-2-12-9t2-14q9-18 21-33t27-23 33-8q14 0 24 4t14 12 7 17 2 19l-3 9q11-16 22-27t22-20 21-12 20-4q7 0 11 4t5 15q0 13 1 22t6 14 11 5q12 0 27-9t31-24q4-4 10-2t9 6 6 11-3 10q-19 19-41 31t-42 11q-12 0-22-5t-18-16-8-31q-12 4-24 13t-25 24-24 35-22 43l-31 97q-2 7-8 10t-16 3m306 1q-32 0-43-23t2-61l54-166q3-10 8-13t14-3q16 0 20 5t1 15l-58 178q-5 15-3 22t12 8q6 0 12-3t11-10 10-11q3-4 8-6t13 4q8 5 8 10t-2 11q-7 11-17 21t-22 16-28 6m66-343q-10 0-17-6t-7-19q0-14 9-26t27-12q11 0 18 6t7 20q0 13-9 25t-28 12m96 343q-27 0-38-13t-11-33 9-48l41-124h-40q-5 0-7-5t0-15q3-10 8-15t11-5h41l32-99q3-10 7-13t15-3q16 0 20 4t1 15l-31 96h63q5 0 7 4t0 16q-3 9-8 14t-10 6h-65l-47 145q-6 18-3 26t13 9q15 0 27-10t21-20q3-5 8-6t13 3q8 5 9 10t-3 11q-6 10-17 22t-28 20-38 8m235 1q-17 0-33-6t-28-17-22-25-14-34-4-38q0-20 4-40t14-40 23-35 33-25 43-9q20 0 33 8t21 21 7 30q0 29-13 55t-36 50-48 41q-27 19-58 33t-59 22-56 8q-7 0-10-6t-2-13 7-13 17-5q22 0 46-8t49-20 46-30q18-13 34-30t27-36 11-38q0-14-6-22t-19-7q-16 0-28 11t-20 27-12 35-4 33q0 19 5 34t14 26 21 17 25 6 25-5 24-13 22-18q7-7 14-6t12 7q6 6 7 13t-5 13q-17 17-34 28t-36 16-37 5m851-1q-24 0-38-13t-16-38 10-61l89-264q11-32 10-53t-12-33-35-11q-14 0-29 5t-32 15-32 26-30 36-28 48l-108 328q-2 7-8 11t-18 3q-11 0-16-3t-3-12l118-357q10-33 10-55t-12-34-34-11q-15 0-31 5t-31 15-32 26-31 37-28 49l-105 326q-2 7-8 11t-18 3q-11 0-16-3t-3-12l133-411q8-25 4-36t-19-12q-10 0-22 6t-24 16-27 28q-8 8-14 8t-14-5-7-13 6-13q18-24 37-39t37-23 36-7q28 0 42 14t13 43q0 5-1 10t-1 12q15-20 32-34t33-25 34-14 32-5q24 0 41 8t28 21 13 35q1 6 1 11t0 12q16-21 33-38t36-27 36-16 35-6q37 0 58 17t26 49-11 75l-91 272q-7 22-9 35t4 20 15 6q7 0 14-4t14-13 18-24q6-8 11-11t15 3q8 4 10 10t-2 14q-9 16-19 28t-21 21-23 14-25 4m474 0q-22 0-37-11t-25-36-19-68l-21-106-198 217q-6 7-13 7t-15-8q-7-7-8-14t5-12l219-239-25-134q-6-31-12-46t-12-20-16-5q-8 0-19 4t-19 8q-8 3-14 1t-10-12q-3-9 0-15t10-9q14-9 29-13t28-5q18 0 30 6t20 17 14 32 12 48l20 107 185-205q7-8 14-8t15 8q7 6 6 13t-7 16l-203 225 26 128q5 28 10 45t10 27 11 14 15 4q10 0 21-12t25-36q3-7 9-10t16 3q8 5 9 11t-3 16q-9 18-21 33t-27 25-35 9" />
</svg>