<svg id="fnt-Playwrite NG Modern" viewBox="0 0 5683 1000" xmlns="http://www.w3.org/2000/svg"><path id="playwrite-ng-modern" class="f" d="M94 674q-22 0-22-14v-478q0-7 5-11t17-3h106q55 0 92 12t56 40 19 73q0 42-16 72t-41 49-57 30-63 17q-21 3-40 4t-34 2v193q0 7-6 10t-16 4m22-466v219q10 0 22-1t26-2 26-3q34-5 64-20t49-40 19-68q0-31-14-49t-41-28-67-8h-84m369 467q-25 0-37-13t-12-39v-451q0-6 5-10t16-3q11 0 17 3t5 10v445q0 11 4 16t11 4q5 0 8-2t7-5 7-7q4-4 8-3t10 5q3 4 5 8t-1 9q-5 11-14 18t-18 11-21 4m178 0q-27 0-49-14t-33-41-11-69q0-26 4-49t15-40 23-30 31-18 39-7q16 0 32 5t32 13v-2q0-7 5-10t17-4 16 3 5 11v194q0 7 2 12t5 6 7 2q5 0 8-1t7-5 8-8q3-4 7-3t10 4q5 5 6 10t-1 10q-6 9-14 16t-18 11-21 4q-12 0-20-3t-15-8-9-14-5-19q0-2 0-6t0-7q-11 21-25 34t-28 18-30 5m-49-126q0 26 6 46t18 30 32 10q15 0 29-8t26-26 21-43v-96q-16-9-30-12t-29-3q-14 0-25 4t-20 12-16 20-9 29-3 37m365 126q-26 0-45-9t-28-30-10-50v-164q0-6 5-10t16-3q11 0 17 3t5 10v163q0 17 5 29t15 17 26 6q15 0 27-7t23-18 18-29 13-35v-126q0-6 5-10t17-3q10 0 16 3t5 10v387q0 39-13 65t-36 39-58 13q-21 0-40-6t-32-16-23-21q-5-7-5-15t11-13q9-6 14-5t12 7q16 16 31 23t36 7 33-8 20-25 7-46v-193q-7 15-17 26t-21 19-24 11-25 4m299-1q-11 0-16-3t-8-10l-78-227q-4-10 2-17t20-8q7 0 12 3t6 10l62 190 66-190q3-7 7-10t13-3q8 0 13 3t7 10l67 190 62-190q2-7 7-10t12-3q14 0 20 7t1 18l-79 227q-2 6-7 10t-16 3-16-4-6-9l-65-183-63 183q-2 6-8 9t-15 4m355 0q-10 0-16-3t-5-10v-239q0-6 5-10t16-3q11 0 17 3t5 10v45q8-15 18-26t20-19 21-11 22-4q12 0 23 4t17 9q5 4 5 9t-4 14q-4 7-9 9t-13 0q-6-2-12-3t-14-2q-10 0-21 6t-21 16-18 27-14 36v129q0 7-5 10t-17 3m255 1q-25 0-37-13t-12-39v-201q0-6 5-10t16-3q11 0 17 3t5 10v195q0 11 4 16t11 4q5 0 8-2t7-5 7-8q3-3 8-2t9 5q5 4 6 9t-2 9q-5 10-14 17t-18 11-20 4m-28-343q-14 0-21-8t-7-23q0-16 7-24t21-8 21 8 7 24q1 16-7 23t-21 8m202 343q-20 0-34-8t-20-22-7-35v-153h-38q-8 0-11-5t-3-15q0-12 3-16t11-4h38v-102q0-7 5-10t17-3 16 3 6 10v102h63q7 0 10 4t4 16q0 11-4 15t-10 5h-63v149q0 17 4 24t17 7q11 0 19-6t18-16q5-6 10-5t10 5q6 5 7 10t-2 10q-8 14-19 23t-22 13-25 4m218 1q-37 0-62-16t-38-45-12-62q0-32 9-59t26-46 40-30 52-11q24 0 42 7t28 22 10 37q0 19-8 35t-24 27-36 21-46 13-53 7l-1-35q17-1 34-4t34-9 28-12 20-18 7-21q0-16-11-23t-28-7q-16 0-31 7t-25 20-17 31-6 40q0 28 8 48t24 32 38 11q16 0 27-4t20-13 20-20q7-7 13-7t13 6 9 11-3 13q-13 19-30 31t-35 18-36 5m363-2q-22 0-22-14v-487q0-7 5-11t17-3q9 0 14 3t11 11l258 407v-407q0-7 6-11t16-3q22 0 22 14v487q0 7-5 10t-16 4q-8 0-13-3t-10-11l-261-412v412q0 7-6 10t-16 4m620 1q-40 0-72-16t-55-48-36-75-12-98q0-41 7-78t21-67 33-56 45-42 53-27 62-9q30 0 56 7t50 22 45 39q5 6 4 11t-8 14q-7 7-13 6t-12-6q-20-18-40-30t-40-16-42-4q-26 0-49 7t-43 23-35 35-26 47-16 58-6 65q0 46 9 82t27 61 41 39 54 14q34 0 62-19t49-49 36-71 21-80q0-7 6-11t16-3q22 0 22 14v245q0 7-5 10t-17 4q-22 0-22-14v-125q-13 34-31 60t-40 44-47 28-52 9m508-1q-22 0-22-14v-487q0-7 5-11t17-3q10 0 14 4t8 10l176 314 176-314q3-6 7-10t14-4q22 0 22 14v487q0 7-5 10t-17 4q-21 0-21-14v-402l-153 272q-4 7-9 9t-14 2-15-2-9-8l-152-273v402q0 7-6 10t-16 4m636 2q-33 0-60-17t-41-47-15-70q0-30 9-54t24-43 37-28 46-10q34 0 60 17t41 48 15 69q0 24-6 44t-16 37-24 29-32 19-38 6m0-40q17 0 30-7t22-19 15-30 5-39q0-28-9-50t-25-32-38-12q-16 0-29 7t-23 19-15 30-5 39q0 28 9 49t25 33 38 12m272 39q-28 0-49-14t-33-41-12-69q0-26 5-49t14-40 23-30 32-18 40-7q15 0 32 4t32 13v-252q0-6 5-10t16-3q11 0 16 3t6 10v445q0 11 3 16t11 4q4 0 8-2t7-5 8-8q3-3 8-2t9 5q5 4 6 9t-2 9q-5 10-14 17t-18 11-21 4q-18 0-28-7t-15-18-5-24q0-2 0-5t0-4q-12 22-26 35t-28 18-30 5m-50-126q0 26 6 45t19 30 31 11q16 0 30-8t26-25 22-46v-92q-16-10-31-14t-30-3q-13 0-25 4t-20 12-15 20-10 29-3 37m384 127q-37 0-62-16t-38-45-12-62q0-32 9-59t26-46 40-30 52-11q24 0 42 7t28 22 10 37q0 19-8 35t-24 27-36 21-46 13-53 7l-1-35q17-1 34-4t34-9 28-12 20-18 7-21q0-16-11-23t-28-7q-16 0-31 7t-25 20-17 31-6 40q0 28 8 48t24 32 38 11q16 0 27-4t20-13 20-20q7-7 13-7t13 6 9 11-3 13q-13 19-30 31t-35 18-36 5m187-2q-10 0-16-3t-5-10v-239q0-6 5-10t16-3q11 0 17 3t5 10v45q8-15 18-26t20-19 21-11 22-4q12 0 23 4t17 9q5 4 5 9t-4 14q-4 7-9 9t-13 0q-6-2-12-3t-14-2q-10 0-21 6t-21 16-18 27-14 36v129q0 7-5 10t-17 3m428 1q-13 0-23-3t-15-10-9-17-2-22v-123q0-17-5-29t-15-18-27-6q-12 0-24 5t-23 16-20 27-16 39v127q0 7-5 10t-17 3q-10 0-16-3t-5-10v-239q0-6 5-10t16-3q11 0 17 3t5 10v46q8-15 18-27t21-19 24-11 26-4q25 0 43 9t30 28 11 51v122q0 7 1 12t5 6 8 2 8-2 7-5 8-7q3-4 8-3t9 5q5 5 6 9t-2 10q-6 10-14 17t-18 10-20 4" />
</svg>