<svg id="fnt-Playwrite IT Trad" viewBox="0 0 4832 1000" xmlns="http://www.w3.org/2000/svg"><path id="playwrite-it-trad" class="f" d="M219 484q-8 1-13-5t-4-14 3-13 11-5q31-1 57-8t48-19 35-29 22-37 7-43q0-23-9-40t-28-29-42-16-56-6q-38 0-72 8t-62 24-50 41q-6 7-13 9t-14-4q-8-6-10-12t5-15q17-23 41-40t52-28 60-18 66-5q43 0 76 8t56 26 34 41 12 56q0 29-10 55t-28 46-44 36-58 25-72 11m-117 191q-21 0-38-9t-29-21-17-21-5-16 10-12 15-3 12 9q8 10 16 17t17 10 20 4q18 0 26-14t8-46v-293q0-7 5-10t17-3 16 3 6 10v296q0 30-9 53t-26 34-44 12m310 0q-9 0-14-6t-4-13 4-13 14-5q15 0 29-7t29-21 28-31 25-41 23-48 19-54 15-57 10-60 3-59q0-7 7-11t15-4 15 4 6 11q0 28-4 59t-11 61-19 62-23 60-28 55-32 48-35 37-36 25-36 8m144 0q-12 0-22-3t-15-10-9-17-2-22v-345q0-51 16-76t50-24q21 0 34 9t21 27 7 46q0 10-6 14t-15 5-15-5-7-14q0-15-2-24t-7-14-11-4q-7 0-13 5t-7 20-2 37v337q0 7 1 12t5 6 8 2q4 0 8-2t7-5 7-7q4-4 8-3t10 5q5 5 5 9t-1 10q-6 10-14 17t-19 10-20 4m212 0q-27 0-49-14t-33-41-11-69q0-26 4-49t15-40 23-30 31-18 39-7q16 0 32 5t32 13v-2q0-7 5-10t17-4 16 3 5 11v194q0 7 2 12t5 6 7 2q5 0 8-1t7-5 8-8q3-4 7-3t10 4q5 5 6 10t-1 10q-6 9-14 16t-18 11-21 4q-12 0-20-3t-15-8-9-14-5-19q0-2 0-6t0-7q-11 21-25 34t-28 18-30 5m-49-126q0 26 6 46t18 30 32 10q15 0 29-8t26-26 21-43v-96q-16-9-30-12t-29-3q-14 0-25 4t-20 12-16 20-9 29-3 37m483 157l-2-42q8-5 16-11t16-9 14-8 11-7q8-3 13-1t8 10 1 13-9 11q-7 4-15 9t-17 11-19 12-17 12m-86 200q-22 0-39-8t-25-23-9-36q0-16 5-32t15-32 26-32 38-33q12-7 22-15t22-15v-66q-7 16-17 27t-21 19-23 11-26 4q-26 0-45-9t-28-30-10-50v-164q0-6 5-10t16-3q11 0 17 3t5 10v163q0 17 5 29t15 17 26 6q15 0 27-7t23-18 18-28 13-35v-127q0-6 5-10t17-3q10 0 16 3t5 10v353q0 31-7 55t-19 41-32 26-40 9m3-39q12 0 22-6t16-18 11-29 3-41v-48q-9 6-17 11t-18 12q-12 10-21 21t-15 22-9 22-3 22q0 10 3 17t10 11 18 4m289-192q-17 0-31-5t-23-17-15-27-5-39v-109q0-18-6-25t-15-7q-8 0-13 4t-9 13-6 19q-2 8-7 11t-13 3q-7-1-12-5t-3-16q3-20 11-35t22-23 31-8q17 0 29 4t19 15 11 24 4 34v97q0 17 3 29t13 18 22 7q11 0 22-6t22-17 16-30 7-42v-120q0-6 5-9t17-4q12 0 16 4t5 9v142q0 21 2 35t8 22 13 12 20 3q10 0 20-4t19-13 15-20 11-28 4-35q0-18-3-35t-8-33-15-31q-5-9-3-16t9-10 15-4 11 4 8 11q8 12 14 28t11 37 5 44q0 21-5 42t-15 40-24 32-33 23-41 8q-18 0-33-6t-25-19-16-33q-9 19-22 31t-27 19-32 7m276 0q-9 0-14-6t-5-13 4-13 14-5q16 0 30-12t24-35 21-59 16-83l30 5q-7 58-17 99t-26 69-33 40-44 13m262 0q-13 0-22-3t-16-11-8-17-3-23q0-13 1-32t2-37 3-37 1-31q0-19-4-25t-17-7q-13 0-31 5t-34 10-26 5q-9 0-18-10t-13-24-6-27q0-9 3-17t9-11 16-4q15 0 21 11t5 25q0 4 0 8t-1 9q6 0 19-5t31-11 35-6q19 0 31 7t17 22 6 41q0 13-1 31t-3 38-2 38-1 29q0 12 3 16t11 5q4 0 8-2t7-5 8-7q4-4 8-3t10 5q4 5 5 9t-1 10q-6 10-14 17t-18 10-21 4m152 0q-25 0-37-13t-12-39v-201q0-6 5-10t16-3q11 0 17 3t5 10v195q0 11 4 16t11 4q5 0 8-2t7-5 7-8q3-3 8-2t9 5q5 4 6 9t-2 9q-5 10-14 17t-18 11-20 4m-28-343q-14 0-21-8t-7-23q0-16 7-24t21-8 21 8 7 24q1 16-7 23t-21 8m202 343q-20 0-34-8t-20-22-7-35v-153h-38q-8 0-11-5t-3-15q0-12 3-16t11-4h38v-102q0-7 5-10t17-3 16 3 6 10v102h63q7 0 10 4t4 16q0 11-4 15t-10 5h-63v149q0 17 4 24t17 7q11 0 19-6t18-16q5-6 10-5t10 5q6 5 7 10t-2 10q-8 14-19 23t-22 13-25 4m223 0q-22 0-41-9t-35-25-26-37-17-45-5-49q0-17 4-33t11-29 18-22 24-14 29-5q26 0 43 11t25 28 8 38q0 17-7 35t-18 37-26 34q-22 25-50 44t-59 30-62 11q-7 0-10-6t-3-13 6-13 17-5q22 0 45-10t46-24 39-33q11-14 20-28t13-28 4-27q0-23-9-32t-24-9q-8 0-16 3t-13 12-8 20-3 27q0 26 7 49t20 40 28 27 30 10q12 0 21-4t20-13 19-19q7-8 14-7t13 6 8 11-3 13q-13 19-30 31t-34 17-33 5m347 1q-24 0-43-8t-34-21-20-25q-5-8-4-15t10-12 14-3 13 9q11 14 27 23t38 10q21 0 36-10t24-32 8-60v-297q-7 4-16 7t-19 3-18-2-16-5-15-5-15-2q-8 0-15 4t-12 12-7 18q-2 7-7 11t-15 2q-10-1-14-7t-3-12q3-21 12-37t25-24 36-9q11 0 20 2t17 5 16 5 16 2q9 0 18-4t14-9q6-6 11-8t12-2q9 0 14 3t5 10v344q0 46-15 77t-40 47-58 15m397-1q-42 0-72-19t-45-55-15-87q0-36 7-74t20-77 31-73 39-62h-95q-22 0-36 6t-23 17-13 27q-3 9-8 12t-16 1q-9-3-12-8t0-15q4-17 13-32t23-26 34-16 45-6h252q7 0 10 4t3 16q0 11-3 16t-10 4h-116q-20 26-39 60t-32 73-23 77-8 74q0 38 11 65t32 41 50 15q16 0 31-5t28-14 24-22q7-9 13-11t13 3q9 6 10 13t-5 15q-15 23-35 37t-41 20-42 6m537 0q-42 0-72-19t-45-55-15-87q0-36 7-74t20-77 31-73 39-62h-95q-22 0-36 6t-23 17-13 27q-3 9-8 12t-16 1q-9-3-12-8t0-15q4-17 13-32t23-26 34-16 45-6h252q7 0 10 4t3 16q0 11-3 16t-10 4h-116q-20 26-39 60t-32 73-23 77-8 74q0 38 11 65t32 41 50 15q16 0 31-5t28-14 24-22q7-9 13-11t13 3q9 6 10 13t-5 15q-15 23-35 37t-41 20-42 6m113 0q-9 0-14-6t-5-13 4-13 14-5q16 0 30-12t24-35 21-59 16-83l30 5q-7 58-17 99t-26 69-33 40-44 13m262 0q-13 0-22-3t-16-11-8-17-3-23q0-13 1-32t2-37 3-37 1-31q0-19-4-25t-17-7q-13 0-31 5t-34 10-26 5q-9 0-18-10t-13-24-6-27q0-9 3-17t9-11 16-4q15 0 21 11t5 25q0 4 0 8t-1 9q6 0 19-5t31-11 35-6q19 0 31 7t17 22 6 41q0 13-1 31t-3 38-2 38-1 29q0 12 3 16t11 5q4 0 8-2t7-5 8-7q4-4 8-3t10 5q4 5 5 9t-1 10q-6 10-14 17t-18 10-21 4m181 0q-27 0-49-14t-33-41-11-69q0-26 4-49t15-40 23-30 31-18 39-7q16 0 32 5t32 13v-2q0-7 5-10t17-4 16 3 5 11v194q0 7 2 12t5 6 7 2q5 0 8-1t7-5 8-8q3-4 7-3t10 4q5 5 6 10t-1 10q-6 9-14 16t-18 11-21 4q-12 0-20-3t-15-8-9-14-5-19q0-2 0-6t0-7q-11 21-25 34t-28 18-30 5m-49-126q0 26 6 46t18 30 32 10q15 0 29-8t26-26 21-43v-96q-16-9-30-12t-29-3q-14 0-25 4t-20 12-16 20-9 29-3 37m361 126q-28 0-49-14t-33-41-12-69q0-26 5-49t14-40 23-30 32-18 39-7q16 0 32 4t32 13v-231q0-7 6-10t16-3q11 0 16 3t5 10v424q0 11 4 16t11 4q4 0 7-2t8-5 7-8q4-3 8-2t9 5q5 4 6 9t-1 9q-6 10-14 17t-18 11-21 4q-18 0-29-7t-15-18-4-24q0-2 0-5t0-4q-12 22-26 35t-29 18-29 5m-50-126q0 26 6 45t18 30 32 11q16 0 30-8t26-25 21-46v-92q-15-10-30-14t-30-3q-14 0-25 4t-20 12-16 20-9 29-3 37" />
</svg>