<svg id="fnt-Plus Jakarta Sans" viewBox="0 0 3942 1000" xmlns="http://www.w3.org/2000/svg"><path id="plus-jakarta-sans" class="f" d="M84 667h-40v-373h128q37 0 64 14t43 40 15 60-15 60-43 39-64 15h-88v145m0-335v152h90q24 0 42-9t28-27 10-40-10-41-28-26-42-9h-90m314 335h-38v-379h38v379m172 6q-28 0-51-14t-37-37-13-54v-169h38v164q0 22 8 38t25 25 36 9 37-9 25-27 9-41v-159h37v268h-37v-52l8 2q-9 26-32 41t-53 15m284 0q-38 0-67-20t-42-53l31-15q12 25 32 39t46 15q24 0 41-12t16-31q0-14-8-22t-18-13-19-6l-38-11q-37-11-54-30t-16-44q0-23 12-41t32-27 46-9q34 0 61 17t40 50l-32 15q-10-23-29-36t-42-12q-22 0-36 11t-13 29q0 14 7 22t16 12 16 6l45 13q32 9 50 29t19 47q0 22-13 40t-33 27-50 10m256-6h-20v-40h20q28 0 44-17t16-46v-270h40v270q0 32-13 55t-34 35-53 13m260 6q-26 0-46-10t-31-27-12-39q0-21 9-38t28-29 49-17l105-18v34l-96 16q-29 5-42 19t-13 32q0 18 14 30t37 13q28 0 48-12t32-32 12-44v-68q0-24-18-39t-45-15q-25 0-43 12t-28 32l-34-19q8-17 24-31t37-22 44-8q29 0 52 11t35 32 13 47v184h-37v-54l5 6q-7 15-22 27t-34 19-43 8m246-6h-38v-379h38v265l-16-2 150-152h49l-105 107 114 161h-45l-107-149 24 2-77 79 13-31v99m314 6q-26 0-46-10t-31-27-12-39q0-21 9-38t28-29 49-17l105-18v34l-96 16q-29 5-42 19t-13 32q0 18 14 30t37 13q28 0 48-12t32-32 12-44v-68q0-24-18-39t-45-15q-25 0-43 12t-28 32l-34-19q8-17 24-31t37-22 44-8q29 0 52 11t35 32 13 47v184h-37v-54l5 6q-7 15-22 27t-34 19-43 8m246-6h-38v-268h38v44l-5-7q9-19 28-30t47-11h17v38h-23q-29 0-47 18t-17 51v165m234 3q-36 0-56-21t-19-60v-153h-50v-37h13q17 0 27-12t10-28v-22h37v62h59v37h-59v153q0 13 4 23t14 17 26 6q4 0 10-1t9-1v34q-6 1-13 2t-12 1m164 3q-26 0-46-10t-31-27-12-39q0-21 9-38t28-29 49-17l105-18v34l-96 16q-29 5-42 19t-13 32q0 18 14 30t37 13q28 0 48-12t32-32 12-44v-68q0-24-18-39t-45-15q-25 0-43 12t-28 32l-34-19q8-17 24-31t37-22 44-8q29 0 52 11t35 32 13 47v184h-37v-54l5 6q-7 15-22 27t-34 19-43 8m424 0q-35 0-64-14t-49-36-29-50l36-14q13 38 41 58t65 20q24 0 42-8t29-22 10-32q0-28-15-43t-43-23l-67-20q-40-11-61-38t-21-62q0-29 14-52t40-36 57-13q34 0 60 12t46 33 26 44l-35 14q-12-33-37-50t-59-17q-22 0-38 8t-25 21-9 33q0 23 14 41t45 28l59 17q44 13 66 38t23 61q0 30-16 53t-42 36-63 13m260 0q-26 0-46-10t-31-27-12-39q0-21 9-38t28-29 49-17l105-18v34l-96 16q-29 5-42 19t-13 32q0 18 14 30t37 13q28 0 48-12t32-32 12-44v-68q0-24-18-39t-45-15q-25 0-43 12t-28 32l-34-19q8-17 24-31t37-22 44-8q29 0 52 11t35 32 13 47v184h-37v-54l5 6q-7 15-22 27t-34 19-43 8m246-6h-38v-268h38v52l-9-2q10-26 33-41t53-15q28 0 51 13t36 35 13 52v174h-37v-160q0-24-9-41t-25-27-36-9-36 9-25 27-9 41v160m342 6q-39 0-68-20t-42-53l32-15q11 25 32 39t46 15q24 0 40-12t17-31q0-14-8-22t-19-13-18-6l-39-11q-37-11-53-30t-17-44q0-23 12-41t33-27 45-9q34 0 62 17t39 50l-32 15q-10-23-29-36t-41-12q-23 0-36 11t-14 29q0 14 7 22t16 12 17 6l44 13q33 9 51 29t18 47q0 22-12 40t-34 27-49 10" />
</svg>