<svg id="fnt-Podkova" viewBox="0 0 1835 1000" xmlns="http://www.w3.org/2000/svg"><path id="podkova" class="f" d="M19 372h132q54 0 82 24t28 68q0 46-28 70t-82 24h-46v74h60v35h-146v-35h46v-225h-46v-35m87 151h45q68 0 68-58t-68-58h-45v116m290-78q33 0 58 13t39 40 14 62q0 53-31 84t-80 30q-32 0-57-14t-39-39-13-61q0-36 13-62t39-40 57-13m0 32q-34 0-52 21t-17 62 17 61 52 21q36 0 53-21t18-61-18-62-53-21m402 166l-10 32-67-23q-30 22-65 22-51 0-80-32t-29-87q0-52 29-81t80-29q14 0 28 2t28 8v-65l-48-17 11-31 76 26v259l47 16m-141-1q12 0 27-5t28-13v-135q-11-5-27-9t-28-3q-31 0-51 21t-19 56q0 40 19 64t51 24m157-270l11-31 76 26v175h45l35-59h-26v-31h105v31h-42l-42 72 49 81h43v31h-67l-56-94h-44v63h22v31h-103v-31h42v-247l-48-17m375 73q33 0 58 13t39 40 14 62q0 53-31 84t-80 30q-32 0-57-14t-39-39-13-61q0-36 13-62t39-40 57-13m0 32q-34 0-52 21t-17 62 17 61 52 21q36 0 53-21t18-61-18-62-53-21m112 6v-31h105v31h-23l45 107 18 42 18-42 45-107h-22v-31h100v31h-39l-82 184h-44l-79-184h-42m523 192l-68-23q-32 22-70 22-42 0-64-17t-22-49q-1-66 83-66l64 1q0-34-12-50t-38-16q-12 0-24 1t-21 5l-5 27-32-6 8-45q19-7 37-11t35-3q45 0 68 24t23 72v87l48 15-10 32m-77-101l-63 0q-21 0-33 8t-11 25q0 35 48 35 34 0 59-19v-49" />
</svg>