<svg id="fnt-Poetsen One" viewBox="0 0 2899 1000" xmlns="http://www.w3.org/2000/svg"><path id="poetsen-one" class="f" d="M101 667h-23q-29 0-41-12t-11-33q0-6 0-21t3-33 3-43 4-47q2-29 4-51t3-36 1-26 1-18 1-14 0-14q0-4 3-6t5-1q13 0 28-1t31-2 30-2 26 0q32 0 55 7t37 23 21 36 7 48q0 29-8 56t-24 49-43 33-62 13q-21 0-36-5l-7 92q-1 4-2 6t-6 2m58-285q-7 0-15 0t-17 2q-1 21-2 51t-4 63q7 2 14 3t14 1q17 0 28-9t17-20 8-25 2-22q0-22-10-33t-35-11m268 290q-35 0-58-10t-36-27-19-40-5-48q0-30 7-59t25-51 46-37 72-13q63 0 90 30t27 87q0 15-2 34t-9 37-17 36-27 31-40 22-54 8m23-219q-19 0-30 10t-17 23-8 29-1 26q0 33 10 49t30 15q18 0 29-11t17-26 9-33 2-28q0-25-9-40t-32-14m279 219q-22 0-44-6t-39-19-28-36-11-56q0-13 2-30t8-36 16-37 27-33 40-23 56-9q26 0 44 6t29 16 16 24 5 29q0 23-10 39t-24 26-32 17-36 9-32 4-23 1q0 10 3 19t8 16 15 12 22 4 20-4 12-10 7-9 9-4q3 0 9 1t13 5 11 11 5 18q0 15-9 25t-23 17-32 10-34 3m10-219q-11 0-19 6t-13 16-8 21-4 22q31 0 50-10t19-29q0-10-6-18t-19-8m275 6h-27q-1 19-3 38t-3 35-3 29 0 20q0 13 3 17t10 5q5 0 9-2t8-5 6-4 6-2 7 4 3 18q0 28-15 44t-52 16q-36 0-53-17t-17-51q0-8 0-18t3-27 3-40 5-60h-26q-4 0-5-2t-1-5l2-25q0-7 1-13t5-11 11-8 19-3q3-9 8-22t9-24 8-20 8-8h15q21 0 29 13t8 31q0 10-2 30h53q8 0 8 7l-2 27q-1 15-9 24t-29 9m182-72q42 0 62 16t20 43q0 22-14 34t-39 11q-7 0-10-1t-2-6q0-4-1-10t-4-11-8-9-16-3q-14 0-23 6t-8 17q0 11 8 17t22 12 29 11 29 15 22 24 9 37q0 36-26 59t-76 23q-14 0-33-3t-34-7-28-12-11-20q0-5 1-11t6-13 9-10 13-4q6 0 11 3t11 6 17 6 27 3q12 0 22-3t10-13q0-10-8-16t-21-10-26-11-27-15-20-25-8-38q0-25 10-43t27-29 37-16 41-4m234 285q-22 0-44-6t-39-19-28-36-11-56q0-13 2-30t7-36 16-37 27-33 40-23 56-9q26 0 44 6t29 16 16 24 5 29q0 23-9 39t-24 26-33 17-35 9-33 4-22 1q0 10 2 19t9 16 14 12 22 4 20-4 12-10 8-9 9-4q2 0 8 1t13 5 12 11 5 18q0 15-9 25t-24 17-31 10-34 3m9-219q-11 0-19 6t-13 16-8 21-4 22q31 0 50-10t20-29q0-10-7-18t-19-8m312 170q0-11 1-29t4-38 3-38 2-31q0-13-6-23t-24-10q-18 0-29 8t-20 31-12 62-10 102q0 6-2 8t-9 2h-18q-15 0-25-4t-16-9-8-15-2-20q0-7 1-21t3-38 4-62 7-92q1-11 3-13 1-1 8-1h19q15 0 25 3t16 9 8 14 3 16q16-27 36-37t50-10q21 0 36 4t26 15 15 28 5 43q0 8-1 23t-2 33-4 37-3 36-2 29-1 16q0 11-3 13t-11 3h-16q-16 0-26-3t-15-9-8-14-2-18m428-317q37 0 63 10t42 30 24 48 8 65q0 20-3 43t-10 47-20 46-32 39-47 27-65 11q-42 0-69-13t-44-34-23-50-6-62q0-39 9-76t30-66 56-47 87-18m-10 78q-18 0-31 6t-21 17-14 23-8 27-4 26-1 23q0 46 15 67t43 21q23 0 38-15t22-36 12-43 3-37q0-37-13-58t-41-21m354 239q0-11 2-29t3-38 4-38 2-31q0-13-7-23t-24-10q-17 0-29 8t-19 31-13 62-9 102q-1 6-3 8t-8 2h-18q-16 0-26-4t-15-9-8-15-2-20q0-7 0-21t3-38 5-62 7-92q0-11 2-13 2-1 8-1h20q15 0 24 3t16 9 9 14 3 16q15-27 35-37t50-10q21 0 37 4t25 15 16 28 5 43q0 8-1 23t-3 33-3 37-3 36-3 29-1 16q0 11-2 13t-11 3h-16q-16 0-26-3t-16-9-8-14-2-18m255 49q-22 0-44-6t-39-19-28-36-11-56q0-13 2-30t7-36 16-37 27-33 40-23 56-9q26 0 44 6t29 16 16 24 5 29q0 23-9 39t-24 26-33 17-35 9-33 4-22 1q0 10 2 19t9 16 14 12 22 4 20-4 12-10 8-9 9-4q2 0 8 1t13 5 12 11 5 18q0 15-9 25t-24 17-31 10-34 3m9-219q-11 0-19 6t-13 16-8 21-4 22q31 0 50-10t20-29q0-10-7-18t-19-8" />
</svg>