<svg id="fnt-Poiret One" viewBox="0 0 2178 1000" xmlns="http://www.w3.org/2000/svg"><path id="poiret-one" class="f" d="M37 667v-375h17q52 0 88 35t37 85-38 83-83 35h-4v137h-17m17-361v210h4q42 0 73-31t31-73-32-74-72-32h-4m252 366q-48 0-83-36t-34-83 35-82 84-35 84 35 35 82-34 84-83 35h-4m105-118q0-42-31-73t-72-31-73 31-30 74 30 72 73 31 73-31 30-73m70-112h16v225h-16v-225m8-55q-15 0-15-13t15-14 14 14-14 13m206 85q-22-22-49-22t-47 20-20 47v150h-16v-225h16v33q9-17 28-28t43-11 45 16v20m155 201h-5q-47 0-83-36t-35-83 35-83 87-34 88 41l-157 155q33 26 63 26t53-14 40-37v26q-36 39-86 39m-6-222q-39 0-70 30t-31 71 27 70l145-144q-31-27-71-27m221 205v14q-35 0-60-24t-25-61v-234h16v91h69v14h-69v129q0 31 20 51t49 20m399 17q-78 0-135-58t-56-137 57-136 138-57 138 57 57 136-57 137-135 58h-7m182-194q0-74-52-127t-126-52-126 52-53 127 53 127 126 53 126-53 52-127m85 57v131h-16v-225h16v45q26-51 87-51 42 0 71 29t28 71v131h-16v-131q0-35-24-60t-59-26-61 26-26 60m359 137h-5q-47 0-83-36t-35-83 35-83 87-34 88 41l-157 155q33 26 63 26t53-14 40-37v26q-36 39-86 39m-6-222q-39 0-70 30t-31 71 27 70l145-144q-31-27-71-27" />
</svg>