<svg id="fnt-Poltawski Nowy" viewBox="0 0 3618 1000" xmlns="http://www.w3.org/2000/svg"><path id="poltawski-nowy" class="f" d="M23 668q-2-10 0-19h36q2-22 3-44t2-43v-140q0-23-2-44t-3-44h-36q-2-9 0-18 17 0 34 0t34 1h70q38 0 68 9t47 31 18 55q0 34-18 57t-48 36-67 12h-70v-20h75q30 0 48-21t17-61q0-37-18-58t-57-20h-32q-3 22-4 42t-1 43v140q0 22 1 43t4 44h46q2 9 0 19-25-1-43-1t-36 0q-17 0-34 0t-34 1m423-229l-3 20q-18 0-31 10t-21 31-7 52q0 35 8 58t23 33 33 11l-2 20q-33 0-59-14t-41-42-14-63q0-36 14-62t40-40 60-14m0 235l2-20q19 0 32-10t20-31 7-52q0-35-8-58t-22-33-34-11l3-20q33 0 59 15t40 41 15 64q0 35-14 61t-40 40-60 14m238-25h28q2 9 0 19-15-1-29-1t-28 0-28 0-29 1q-2-10 0-19h28q3-19 4-36t1-36v-170q0-36-5-72h-28q-2-9 0-18 17 0 41-2t47-5q-3 13-4 30t-3 36 0 31v170q0 18 1 36t4 36m149 25q-26 0-42-12t-16-40v-110q0-14 0-31t-1-35-3-32q9-3 16-8t13-12 10-15q8-1 16 0-2 34-3 67t0 67v107q0 17 5 24t15 8q8 0 16-4t13-9q4 2 7 6t6 7q-9 10-20 16t-32 6m47-207h-140q-1-10 0-20h140q2 10 0 20m109 207q-32 0-53-17t-21-47q0-23 12-38t32-23 47-7q19 0 31 3t22 6v20q-21-9-42-9t-37 11-15 35q0 20 9 32t28 13q19 0 32-9t25-20l3 20q-13 13-29 21t-44 9m117-159v109q0 15 8 20t23 5q2 9 0 19-8 2-17 3t-16 1q-20 0-30-8t-12-20l-3-20v-106q0-30-10-45t-32-15q-20 0-31 11t-9 35h-50q0-16 11-31t33-24 52-10q40 0 61 19t22 57m158 159q-27 0-42-11t-25-28q1-8 1-15t0-15v-68q0-36-5-72h-26q-2-9 0-18 20 0 41-2t45-5q-3 13-4 30t-3 36 0 31v68q0 18 8 31t29 13q18 0 31-9t24-28l5 22q-13 19-32 30t-47 10m270-228q2 9 0 19h-20q-4 21-5 40t0 47q0 23-5 45t-16 39-27 28-39 10q-16 0-34-4t-46-3q1-9 1-17t0-16l-5-22v-75q0-36-5-72h-28q-2-9 0-18 19 0 42-2t46-5q-3 13-4 30t-3 36 0 31v65q0 23 6 36t30 14q20 0 34-13t22-36 7-51q0-24-6-45t-20-42h-24q-2-10 0-19 18 0 34 0t26 1q9 0 19-1t20 0m127 228q-22 0-42-4t-43-11v-69q8-1 16 0 6 30 23 47t51 17q22 0 37-9t15-26q0-14-10-21t-26-12-33-9-33-13-25-22-10-36q0-31 23-49t65-18q18 0 36 4t33 10v64q-8 1-16 0-5-30-19-44t-40-14q-23 0-35 9t-12 25q0 13 10 21t27 12 34 11 34 12 26 21 11 34q0 34-26 52t-71 18m133-6q-2-10 0-19h29q2-19 3-36t2-36v-170q0-36-5-72h-29q-2-9 0-18 18 0 42-2t47-5q-3 13-5 30t-2 36-1 31v170q0 18 1 36t4 36h29q2 9 0 19-16-1-29-1t-28 0-29 0-29 1m208 4q-18 0-28-6t-14-17-7-26l-7-33q-1-9-6-17t-15-14-30-5h-20v-17h25q13 0 23-7t20-21q10-15 14-25t6-19h-35q-2-10 0-19 14 0 20 0t10 1 11 0q10 0 25-1t36 0q2 9 0 19h-23q-14 12-26 27t-21 28-20 21q28 2 41 16t16 33l6 28q4 19 10 25t21 6q2 9 0 18-6 2-15 3t-17 2m152-23h31q2 9 0 19-17-1-31-1t-28 0-29 0-31 1q-2-10 0-19h31q2-19 3-36t2-36v-40q0-36-5-72h-29q-2-9 0-18 20 0 43-2t46-5q-3 13-5 30t-2 36-1 31v40q0 18 1 36t4 36m-56-302l28-15 27 15v32l-27 15-28-15v-32m515 320q-5-14-12-26t-14-23-15-22l-172-244-15-35q11 0 22 0t22-1 20 0q6 12 13 25t20 30l138 196 23 100q-9 1-15 1t-15-1m-281 1q-2-10 0-19h34q4-22 5-44t2-43v-140q0-19-2-41t-5-47h-34q-2-9 0-18 18 0 31 0t22 1l15 35q-1 15-2 33t-1 37v140q0 22 1 43t6 44h39q2 9 0 19-17-1-33-1t-25 0q-9 0-22 0t-31 1m311-246v245l-23-100v-145q0-23-2-42t-6-46h-38q-2-9 0-18 17 0 33 0t25 1q9 0 22-1t30 0q2 9 0 18h-33q-4 26-6 46t-2 42m197 17l-2 20q-18 0-32 10t-20 31-7 52q0 35 8 58t22 33 34 11l-3 20q-33 0-59-14t-40-42-15-63q0-36 14-62t40-40 60-14m0 235l3-20q18 0 31-10t20-31 8-52q0-35-8-58t-23-33-33-11l2-20q34 0 59 15t40 41 15 64q0 35-14 61t-40 40-60 14m250 0q-27 0-42-11t-25-28q1-8 1-15t0-15v-68q0-36-5-72h-26q-2-9 0-18 20 0 41-2t45-5q-3 13-4 30t-3 36 0 31v68q0 18 8 31t29 13q18 0 31-9t24-28l5 22q-13 19-32 30t-47 10m270-228q2 9 0 19h-20q-4 21-5 40t0 47q0 23-5 45t-16 39-27 28-39 10q-16 0-34-4t-46-3q1-9 1-17t0-16l-5-22v-75q0-36-5-72h-28q-2-9 0-18 19 0 42-2t46-5q-3 13-4 30t-3 36 0 31v65q0 23 6 36t30 14q20 0 34-13t22-36 7-51q0-24-6-45t-20-42h-24q-2-10 0-19 18 0 34 0t26 1q9 0 19-1t20 0m128 218q-27 0-42-11t-25-28q1-8 1-15t0-15v-58q0-36-5-72h-26q-2-9 0-18 20 0 41-2t45-5q-3 13-4 30t-3 36 0 31v58q0 18 8 31t29 13q18 0 31-9t24-28v28q-8 11-18 19t-24 11-32 4m41-217q19 0 42-2t46-5q-3 13-4 30t-3 36 0 31v95q0 47-18 80t-45 50-62 17q-38 0-62-15t-23-44q0-26 17-43t40-27l14 8q-18 12-25 26t-6 31q0 21 10 32t35 12q29 0 46-15t24-39 7-50v-118q0-36-5-72h-28q-2-9 0-18" />
</svg>