<svg id="fnt-Poly" viewBox="0 0 945 1000" xmlns="http://www.w3.org/2000/svg"><path id="poly" class="f" d="M167 667h-142l-3-20q27-4 32-10t6-21v-245q0-16-6-21t-32-10l3-20h140q53 0 79 26t27 73-35 80-101 34h-26v95q0 12 10 13l50 6-2 20m-58-308v147h22q33 0 57-15 29-19 29-68 0-46-24-63-20-13-43-13h-31q-10 0-10 12m299 312q-54 0-83-32t-29-89 30-93 85-34 84 32 29 90-31 92-85 34m-64-128q0 45 18 73t49 29 44-15q9-10 15-32t5-47q0-45-18-73t-49-29-44 15q-9 10-14 32t-6 47m325 124h-109l-3-20q24-5 29-10t6-18v-291q0-10-8-15t-30-9l3-16q53-7 74-7l6 5v345q0 6 2 7t8 3l24 6-2 20m37 58q12 2 33 2t34-6 30-54l-83-199q-4-10-8-12t-19-6l3-20h103l2 20-30 7q-4 1-4 4 0 1 2 7l51 133q3 7 3 16h4l53-138q3-8 3-13t-8-9-25-7l3-20h89l2 20q-22 5-24 8l-79 196q-10 25-16 38t-16 30-22 26q-29 21-69 28-13-13-13-41 0-3 1-10" />
</svg>