<svg id="fnt-Pontano Sans" viewBox="0 0 2921 1000" xmlns="http://www.w3.org/2000/svg"><path id="pontano-sans" class="f" d="M78 667h-42v-358h99q58 0 93 10t51 30 16 58q0 41-17 64t-55 32-100 10h-45v154m0-325v138h57q42-1 68-6t37-21 12-44q0-29-13-44t-40-19-69-4h-52m365 331q-50 0-80-34t-30-97q0-64 30-97t80-33 80 33 29 97q0 64-29 97t-80 34m0-30q27 0 42-15t20-38 5-48-5-48-20-38-42-15q-27 0-42 15t-20 38-6 48 6 48 20 38 42 15m205 24h-41v-250h41v38q13-22 34-32t49-11q30 0 47 10t26 27 10 36 3 38v144h-42v-147q0-38-10-59t-41-20q-21 0-35 8t-23 21-13 30-5 36v131m312 4q-21 0-36-8t-23-26-8-47v-145h-37v-28h37l2-79 39-11v90h55v28h-55v152q0 24 9 33t23 10q7 0 16-2t16-6l7 27q-9 5-21 8t-24 4m146 2q-20 0-37-7t-27-21-10-36q0-23 9-38t25-23 39-13 52-9l28-4v-13q0-26-4-40t-16-22-32-6q-23 0-41 7t-36 19q0 0-3-4t-6-9-5-8-3-4q20-15 43-23t53-7q45 0 68 21t24 69v165h-36l-4-32q-13 19-33 28t-48 10m7-30q22 0 40-9t32-27v-59l-32 5q-34 6-52 12t-24 15-6 25q0 19 9 29t33 9m214 24h-42v-250h42v38q13-22 33-32t50-11q29 0 47 10t25 27 11 36 3 38v144h-42v-147q0-38-10-59t-41-20q-21 0-35 8t-23 21-13 30-5 36v131m331 6q-50 0-80-34t-30-97q0-64 30-97t80-33 80 33 30 97q0 64-30 97t-80 34m0-30q27 0 42-15t20-38 5-48-5-48-20-38-42-15q-27 0-42 15t-20 38-5 48 5 48 20 38 42 15m391 30q-24 0-47-6t-42-17-32-30-18-44l36-16q8 27 22 45t35 25 50 8q23 0 42-6t31-21 11-39q0-23-9-37t-32-22-59-22q-31-10-55-21t-40-29-14-49q0-30 16-50t44-30 62-9q29 0 51 6t40 19 32 36l-30 23q-15-26-37-38t-51-12q-24 0-42 5t-29 17-11 30q0 17 7 28t21 18 33 13 40 13q35 11 59 24t37 33 12 53q0 33-16 55t-46 35-71 12m244 0q-20 0-37-7t-27-21-10-36q0-23 9-38t25-23 40-13 52-9l27-4v-13q0-26-4-40t-15-22-32-6q-23 0-42 7t-36 19q0 0-3-4t-5-9-6-8-3-4q21-15 43-23t54-7q44 0 67 21t24 69v165h-36l-3-32q-14 19-34 28t-48 10m7-30q22 0 40-9t32-27v-59l-31 5q-34 6-52 12t-25 15-6 25q0 19 9 29t33 9m214 24h-41v-250h41v38q13-22 34-32t49-11q30 0 47 10t26 27 10 36 3 38v144h-42v-147q0-38-10-59t-41-20q-21 0-35 8t-23 21-13 30-5 36v131m309 6q-21 0-40-6t-33-19-21-37l30-12q6 16 14 26t21 14 32 4q26 0 42-9t16-33q0-12-3-20t-10-12-22-8-37-8q-26-6-42-13t-25-21-8-38q0-34 25-52t67-17q33 0 54 10t34 39q0 0-4 2t-9 5-9 5-4 2q-9-19-23-26t-37-8q-31 0-43 10t-13 31q0 13 5 20t18 12 36 9q31 6 50 14t27 23 9 37q0 37-23 56t-74 20" />
</svg>