<svg id="fnt-Poor Story" viewBox="0 0 1886 1000" xmlns="http://www.w3.org/2000/svg"><path id="poor-story" class="f" d="M55 392l9 113q19 0 41-2t41-8 33-18 14-34q0-17-7-28t-20-17-28-8-32-3q-14 0-28 2t-23 3m10 143l12 159-31 1-24-315 16-19q17-1 33-2t33-1q25 0 47 3t38 13 25 27 10 43q0 32-16 49t-39 27-51 12-53 3m263-40q-27 0-42 17t-15 53q0 14 3 28t12 25 17 19 23 7q13 0 24-7t18-16 12-22 4-25q0-43-16-61t-40-18m-3-33q25 0 42 9t28 24 15 36 5 43q-1 27-9 46t-19 32-28 19-32 6q-22 0-38-9t-28-24-16-34-6-41q0-22 6-42t17-34 27-23 36-8m196 33q-26 0-42 17t-15 53q0 14 4 28t11 25 18 19 23 7q13 0 23-7t19-16 11-22 4-25q0-43-15-61t-41-18m-2-33q24 0 41 9t28 24 16 36 4 43q-1 27-8 46t-20 32-28 19-31 6q-22 0-39-9t-27-24-17-34-5-41q0-22 6-42t17-34 27-23 36-8m164 213l-26 3-16-215 30-4 7 95 104-70 14 27-113 82v82m442-303l-14 30q-2-3-9-7t-16-7-21-5-22-2-20 2-17 7-12 13-4 20q0 16 12 31t37 25q32 12 51 27t27 28 11 28 3 25q-2 41-26 63t-72 23q-20 0-43-5t-51-13l11-34q15 6 38 11t45 5q13 0 25-2t21-8 14-15 5-23q-1-23-11-38t-26-23-34-17-34-17-25-26-10-42q0-21 6-35t18-24 27-13 33-4q23 0 45 6t38 16m93 305l-18-21v-148h-50l3-35h54v-100h33v102h80v35h-83v127l74-14 4 33-97 21m208-182q-27 0-42 17t-16 53q0 14 4 28t11 25 18 19 23 7q13 0 24-7t18-16 11-22 4-25q0-43-15-61t-40-18m-3-33q24 0 41 9t28 24 16 36 5 43q-1 27-9 46t-20 32-27 19-32 6q-22 0-39-9t-27-24-16-34-6-41q0-22 6-42t17-34 27-23 36-8m164 213l-25 3-17-215 30-4 7 95 105-70 13 27-113 82v82m176 62l34-100-85-148 26-20 72 129 47-140 28 15-96 281-26-17" />
</svg>