<svg id="fnt-Port Lligat Sans" viewBox="0 0 3081 1000" xmlns="http://www.w3.org/2000/svg"><path id="port-lligat-sans" class="f" d="M125 501q14 15 34 15t33-13q20-20 20-61 0-74-66-74-21 0-47 11-3 39-3 149t8 138q-16 5-30 5t-23-1q7-59 7-164t-8-153q42-14 99-14t82 27 25 75-26 78-76 30q-20 0-40-7 0-14 4-25t7-16m163 47q0-120 94-120t94 120q0 56-17 88-20 38-77 38t-76-38q-18-32-18-88m41-1q0 91 53 91t53-91-53-91-53 91m249-86q12-13 27-22t31-9 24 17 10 40q0 8-1 14-9 5-19 5t-22-2q1-8 1-11 0-27-20-27-5 0-15 7t-18 17q-1 16-1 49 0 82 9 125-18 5-30 5t-23-1q8-68 8-119t-10-111q20-5 31-5t18 2v26m132 125t1-112q0-7-1-11-21 0-30 0-3-8-3-16t1-11h31l-3-37q13-4 26-4t23 2l-4 38q27 0 55-3 3 7 3 14t-2 19q-18-1-58-2-1 10-1 30v101q0 13 1 21t6 15 16 7q22 0 42-15 10 15 10 40-27 12-48 12t-32-5-18-13-10-20q-5-18-5-50m279 83q7-69 7-172t-8-150q13-5 26-5t27 1q-7 56-7 149t3 137q18 1 53 1t62-4q4 13 4 25t-2 21q-9-2-40-5t-61-2-64 4m212-1q8-65 8-155t-2-118-7-64q13-5 26-5t27 1q-8 61-8 184t9 153q-16 5-30 5t-23-1m174-129q0 82 9 125-18 5-32 5t-21-1q8-68 8-125t-9-105q17-5 30-5t23 2q-8 77-8 104m10-179q0 31-32 31-25 0-25-25 0-32 32-32 25 0 25 26m145 68q25 0 44 8v-8q0-20 8-30t29-10q3 0 12 1 1 8 1 16t-3 24q-3 0-11 0t-11 4-4 16l-2 0q22 21 22 64 0 39-16 65-17 29-69 29-21 0-35-5-10 18-15 40 8 2 18 2t38-4 41-3q26 0 42 13t16 40-18 47q-30 35-95 35-43 0-66-11t-23-41q0-8 1-14 10-4 21-4t25 2q-1 4-1 13t11 18 39 9 47-11 20-33q0-24-26-24-13 0-41 3t-45 3-27-7-10-20q0-27 25-65-26-22-26-77 0-85 84-85m-44 85q0 59 44 59t44-59-44-59-44 59m272 44q-18 0-30 10t-11 30q0 41 36 41 14 0 28-7t23-16q2-32 2-40-20-18-48-18m89-63l-2 72q0 42 9 99-15 5-26 5t-21-1l-2-24q-38 29-67 29t-45-19-15-53 23-53 54-18 53 12q1-10 1-22t-1-21-5-21q-7-23-36-23-37 0-37 40l0 9q-11 1-20 1t-23-4q-1-8-1-12 0-31 23-47t60-15 57 16 21 50m80 92t1-112q0-7 0-11-21 0-30 0-3-8-3-16t1-11h30l-2-37q12-4 26-4t23 2l-5 38q28 0 56-3 3 7 3 14t-2 19q-19-1-59-2-1 10-1 30v101q0 13 1 21t7 15 15 7q22 0 42-15 11 15 11 40-28 12-48 12t-32-5-19-13-10-20q-5-18-5-50m280 11q15 21 37 33t47 12 39-14 13-34-16-36-39-27-45-25-38-34-16-54 23-56 73-23 72 25 24 64q0 6-2 12-13 5-26 5t-19-1q1-4 1-11 0-29-16-47t-38-17-36 12-13 34 15 39 39 28 45 25 39 36 16 55-27 54-66 22q-70 0-111-38 2-12 8-22t12-13l5-4m294-40q-18 0-29 10t-11 30q0 41 35 41 14 0 29-7t22-16q3-32 3-40-21-18-49-18m90-63l-2 72q0 42 8 99-15 5-26 5t-21-1l-1-24q-38 29-68 29t-44-19-15-53 22-53 54-18 54 12q0-10 0-22t-1-21-4-21q-7-23-37-23-37 0-37 40l1 9q-11 1-21 1t-22-4q-1-8-1-12 0-31 23-47t59-15 58 16 21 50m264 6l-1 40q0 65 10 122-16 7-32 7t-22-1q6-67 6-118t-7-70-32-20-56 32q-1 15-1 47 0 82 9 125-18 5-33 5t-20-1q7-68 7-119t-10-111q20-5 32-5t18 2v25q34-32 69-32t48 17 15 55m225 104q0 35-23 53t-57 17q-48 0-84-27 2-11 7-22t11-16l5-5q26 37 62 37 17 0 28-8t12-21-13-23-29-18-35-16-30-23-12-37q0-31 20-49t60-18 58 17 18 55q-11 4-21 4t-23-3q1-7 1-11 0-15-9-26t-26-10-28 8-11 23 12 28 30 18 35 15 30 22 12 36" />
</svg>