<svg id="fnt-Port Lligat Slab" viewBox="0 0 2977 1000" xmlns="http://www.w3.org/2000/svg"><path id="port-lligat-slab" class="f" d="M125 501q14 15 34 15t33-13q20-20 20-61 0-74-66-74-21 0-47 11-3 39-3 123t4 136l29 2q1 8 1 14t-2 13q-18 0-47 0t-44 0q-1-7-1-13t1-15l17-1q4-54 4-137t-5-124l-19-1q-1-7-1-16t0-12q21-1 58-5 25-4 56-4 59 0 84 27t25 75-26 78-76 30q-20 0-40-7 0-14 4-25t7-16m163 47q0-120 94-120t94 120q0 56-17 88-20 38-77 38t-76-38q-18-32-18-88m41-1q0 91 53 91t53-91-53-91-53 91m188 92l17-1q5-50 5-92t-4-83l-19-1q-1-8-1-17t0-11q26-1 62-5l3 3q-1 3-3 29 11-14 26-24t30-9 26 10 11 28q0 28-23 28-14 0-22-9t-8-23q-1-1-3-1-19 0-38 28-1 14-1 63t5 86l18 1q1 11 1 15t-1 13q-14 0-41 0t-40 0q-1-7-1-14t1-14m193-53t1-112q0-7-1-11-21 0-30 0-3-8-3-16t1-11h31l-3-37q13-4 26-4t23 2l-4 38q27 0 55-3 3 7 3 14t-2 19q-18-1-58-2-1 10-1 30v101q0 13 1 21t6 15 16 7q22 0 42-15 10 15 10 40-27 12-48 12t-32-5-18-13-10-20q-5-18-5-50m264 53l18-1q4-69 4-146t-4-117l-17-2q-1-8-1-14t1-14q18 1 41 1t40-1q1 8 1 13t-1 15l-19 2q-3 47-3 129t3 125q16 1 45 1t46-2l1-34q9-2 15-2t13 1q2 38 5 74l-3 2q-23-2-95-2t-89 0q-2-7-2-13t1-15m235-88v-69q0-90-3-122l-20-2q-1-6-1-15t0-13q46-2 65-4l2 2q-7 60-7 128v83q0 61 5 99l18 1q1 8 1 14t-1 14q-18 0-41 0t-40 0q-1-7-1-13t1-15l17-1q5-47 5-87m107 88l18-1q4-49 4-90t-4-85l-18-1q-2-9-2-17t1-11q29-1 62-5l2 3q-4 29-4 99t4 107l19 1q1 8 1 14t-2 14q-17 0-40 0t-40 0q-2-7-2-15t1-13m68-279q0 31-32 31-25 0-25-25 0-32 32-32 25 0 25 26m146 68q6 0 9 0 31-48 68-48 33 0 33 32 0 22-22 22t-25-23q-15 0-27 22 48 16 48 80 0 39-15 65-18 29-69 29-22 0-35-5-11 18-16 40 9 2 18 2t38-4 41-3q26 0 42 13t16 40-17 47q-31 35-95 35-44 0-67-11t-23-41q0-22 24-46-10-7-10-19 0-27 26-65-27-22-27-77 0-85 85-85m-44 85q0 59 44 59t44-59-44-59-44 59m-13 199q0 32 58 32 25 0 45-11t20-33q0-24-27-24-13 0-41 3t-45 3h-4q-6 14-6 30m374-218l-2 72q0 34 4 67l18 1q1 8 1 15t-1 14q-15 1-57 5-3-9-5-23-39 29-68 29t-44-18-15-52 21-53 53-20 56 12q0-5 0-18 0-37-10-53t-31-16-31 8q4 8 4 20t-8 20-21 9q-24 0-24-28t21-42 59-15 59 17 21 49m-41 81q-21-18-44-18-45 0-45 40 0 41 35 41 13 0 28-7t23-16q3-30 3-40m121 11t1-112q0-7-1-11-21 0-30 0-3-8-3-16t1-11h31l-3-37q13-4 26-4t23 2l-4 38q27 0 55-3 3 7 3 14t-2 19q-18-1-58-2-1 10-1 30v101q0 13 1 21t6 15 16 7q22 0 42-15 10 15 10 40-27 12-48 12t-32-5-18-13-10-20q-5-18-5-50m273-17q15 0 24 10t8 23-4 22q22 18 50 18t44-13 14-36-16-40-39-27-45-24-38-32-16-49q0-38 25-60t66-22 69 19 29 51-26 33q-15 0-24-10t-8-24 6-23q-18-16-43-16t-39 13-12 32 11 33 29 23 37 20 37 22 28 30 12 43q0 39-28 64t-69 25-76-20-32-55q0-30 26-30m244-18v-69q0-90-2-122l-20-2q-2-6-2-15t1-13q45-2 65-4l2 2q-7 60-7 128v83q0 61 4 99l19 1q1 8 1 14t-2 14q-17 0-40 0t-40 0q-2-7-2-13t1-15l18-1q4-47 4-87m274-57l-2 72q0 34 4 67l18 1q1 8 1 15t-1 14q-15 1-57 5-3-9-5-23-39 29-68 29t-44-18-15-52 21-53 53-20 56 12q0-5 0-18 0-37-10-53t-31-16-31 8q4 8 4 20t-8 20-21 9q-24 0-24-28t21-42 59-15 59 17 21 49m-41 81q-21-18-44-18-45 0-45 40 0 41 35 41 13 0 28-7t23-16q3-30 3-40m256-44q0-71-42-71-31 0-58 32v135q23 11 48 11 52 0 52-107m-100-69q35-34 70-34t54 29 19 81q0 70-25 103t-76 33q-32 0-86-13 8-49 8-159t-3-142l-20-2q-1-6-1-15t0-13q45-2 65-4l2 2q-7 60-7 134" />
</svg>