<svg id="fnt-Prata" viewBox="0 0 1306 1000" xmlns="http://www.w3.org/2000/svg"><path id="prata" class="f" d="M20 667v-11l46-7v-364l-46-7v-11h157q74 0 110 31t36 91-36 91-110 32h-56v137l46 7v11h-147m101-167h49q93 0 93-101v-20q0-100-93-100h-49v221m235 167v-10l35-5v-229l-35-5v-10h85v38q31-43 71-43 19 0 33 10t15 28q0 13-9 21t-22 9q-16 0-26-12 5-7 5-15 0-9-6-14t-15-5q-10 0-21 9t-25 31v187l40 5v10h-125m303 5q-32 0-52-17t-21-50q0-47 40-67t91-19h34v-39q0-26-6-40t-18-20-32-6q-24 0-35 9t-12 25q0 15 14 19 0 13-9 22t-23 10q-14 0-22-8t-9-24q0-29 29-46t73-18q100 0 100 87v143q0 11 4 17t14 6q9 0 14-6t5-16h10q0 18-11 28t-31 10q-23 0-39-14t-16-41q-12 26-37 40t-55 15m28-22q13 0 27-8t25-24 12-36v-52h-34q-41 0-61 18t-20 51q0 28 13 39t38 12m277 22q-33 0-53-17t-20-52v-180l-35-5v-10h35v-42l50-12v54h65v10l-65 5v179q0 53 38 53 8 0 15-3t12-5 5-3l7 8q-23 20-54 20m152 0q-32 0-52-17t-21-50q0-47 40-67t91-19h34v-39q0-26-6-40t-18-20-32-6q-24 0-35 9t-12 25q0 15 14 19 0 13-9 22t-23 10q-14 0-22-8t-9-24q0-29 29-46t73-18q100 0 100 87v143q0 11 4 17t14 6q9 0 14-6t5-16h10q0 18-11 28t-31 10q-23 0-39-14t-16-41q-12 26-37 40t-55 15m28-22q13 0 27-8t25-24 12-36v-52h-34q-41 0-61 18t-20 51q0 28 13 39t38 12" />
</svg>