<svg id="fnt-Preahvihear" viewBox="0 0 3178 1000" xmlns="http://www.w3.org/2000/svg"><path id="preahvihear" class="f" d="M349 447q-1 24-9 42-8 18-22 32t-32 25q-19 10-39 16-20 7-42 10t-42 3q-14 0-31-1t-36-5l1 98-52 2v-345q26-9 50-13t42-7q22-3 40-3 17 0 36 3 19 2 38 9t38 17q18 10 32 27 14 16 22 38t6 52m-172-92q-6 0-13 0t-15 1q-12 1-26 4t-29 7l1 152q16 3 30 4t28 1q14 0 30-1 16-2 31-5t30-10q14-6 26-16 11-10 17-24t7-33q0-37-32-58-31-21-85-22m452 156l-48 18q-1-21-6-33t-15-20q-8-6-19-6-7 1-14 6-8 4-16 12t-16 17q-5 4-8 9t-8 10q-8 10-15 20t-12 18q0 10 1 22t0 26 1 21q0 15 1 27t1 20l-52 7-5-137q-1-14-1-30t-1-30-1-23q-1-34-1-52l55-1q0 8 0 15t1 16q0 7 0 15t0 13q0 8 0 15t0 15q7-12 18-25t22-25q13-12 29-21t32-11q19-1 36 8 6 4 13 10t13 17q5 10 9 24t6 33m157 133q27 0 50-16t29-45l48 9q-7 22-20 40t-29 31-36 20-42 8q-32 0-57-10t-42-28q-35-36-35-99 0-30 10-57t29-46 42-31 53-11q26 0 48 10t40 27q17 18 28 41t15 52l-212 31q2 18 9 31t17 24q22 19 55 19m-79-119l147-18-2-4q-9-25-25-38t-41-14q-10 0-22 4t-24 12-21 23-12 35m496 165l-47-8 3-34q-30 19-59 27t-53 9q-18 0-34-5t-29-14q-13-9-20-24t-8-34 6-35 16-28 24-20 30-14q16-6 33-8t35-3q16 0 30 1t25 4q-4-18-12-33t-19-24-31-10q-10 0-22 3t-27 10-32 20-37 33l-30-36q24-22 45-36t41-22q19-7 35-10t29-3q23 0 40 7 18 8 31 21t22 31q9 18 15 39 6 21 9 43t2 44q0 24-2 50t-9 59m-41-97q1-12 1-24t-1-25q-12-4-25-6t-27-2q-22 0-42 5t-36 15-22 24-3 32q3 15 13 21t24 6q18 0 40-8t44-19 34-19m167 85l-48 1-4-376 56-2-1 148q13-15 28-23t28-13q16-5 30-6 56 0 89 37 16 19 25 45t11 59q0 18 0 36t-2 35q-1 17-4 33t-6 28l-56-4q7-23 10-45t5-40q1-21 0-39-1-26-8-45t-20-30q-11-11-25-17t-27-5q-13 1-28 8-12 6-26 18t-26 35l-1 162m306-257l73 210 78-219 50 7-96 257-69-1-86-246 50-8m313-80q0 14-10 25t-25 10q-14 0-24-10t-11-25q0-14 11-25t24-10q14 0 25 10t10 25m-63 193l1-105 51-2-3 117q-1 49-1 76-1 34-1 53h-50q0-13 0-29t1-34q1-31 2-76m173 144l-48 1-4-376 57-2-2 148q13-15 29-23t28-13q15-5 30-6 55 0 88 37 16 19 26 45t10 59q0 18 0 36t-1 35q-2 17-4 33t-7 28l-55-4q7-23 10-45t4-40q1-21 1-39-1-26-9-45t-19-30q-11-11-25-17t-27-5q-14 1-28 8-12 6-26 18t-26 35l-2 162m395-34q27 0 49-16t30-45l47 9q-7 22-19 40t-29 31-37 20-41 8q-33 0-57-10t-42-28q-35-36-35-99 0-30 10-57t28-46 43-31 53-11q25 0 47 10t40 27q18 18 29 41t14 52l-211 31q1 18 8 31t18 24q21 19 55 19m-80-119l147-18-1-4q-10-25-26-38t-40-14q-11 0-23 4t-24 12-20 23-13 35m497 165l-48-8 3-34q-29 19-58 27t-54 9q-17 0-34-5t-29-14q-12-9-20-24t-8-34 6-35 16-28 24-20 30-14q16-6 34-8t35-3q16 0 30 1t25 4q-5-18-12-33t-20-24-31-10q-9 0-22 3t-27 10-32 20-37 33l-29-36q23-22 45-36t40-22q19-7 35-10t29-3q23 0 41 7 17 8 31 21t22 31q9 18 15 39 6 21 8 43t3 44q0 24-3 50t-8 59m-41-97q0-12 1-24t-2-25q-12-4-25-6t-26-2q-22 0-43 5t-35 15-23 24-3 32q4 15 14 21t23 6q19 0 41-8t43-19 35-19m347-82l-48 18q0-21-6-33t-14-20q-9-6-20-6-7 1-14 6-8 4-16 12t-16 17q-4 4-8 9t-8 10q-7 10-14 20t-12 18q0 10 0 22t1 26 0 21q1 15 1 27t1 20l-52 7-5-137q0-14-1-30t-1-30-1-23q-1-34-1-52l56-1q0 8 0 15t0 16q0 7 0 15t0 13q1 8 1 15t0 15q7-12 17-25t23-25q13-12 28-21t32-11q19-1 36 8 7 4 14 10t12 17q6 10 10 24t5 33" />
</svg>