<svg id="fnt-Press Start 2P" viewBox="0 0 6939 1000" xmlns="http://www.w3.org/2000/svg"><path id="press-start-2p" class="f" d="M125 604h-125v-437h375v62h63v188h-63v62h-250v125m0-375v188h188v-188h-188m563 63v62h62v63h-62v187h-125v-312h125m62 0h188v62h-188v-62m625 312h-312v-62h-63v-188h63v-62h312v62h63v125h-313v63h250v62m-250-250v63h188v-63h-188m750 250h-375v-62h313v-63h-250v-62h-63v-63h63v-62h312v62h-250v63h250v62h63v63h-63v62m500 0h-375v-62h313v-63h-250v-62h-63v-63h63v-62h312v62h-250v63h250v62h63v63h-63v62m1000 0h-312v-62h-63v-63h125v63h188v-125h-250v-63h-63v-125h63v-62h312v62h63v63h-125v-63h-188v125h250v63h63v125h-63v62m438 0h-125v-250h-125v-62h125v-125h125v125h125v62h-125v250m625 0h-375v-62h-63v-63h63v-62h250v-63h-250v-62h312v62h63v250m-313-125v63h188v-63h-188m563-187v62h62v63h-62v187h-125v-312h125m62 0h188v62h-188v-62m563 312h-125v-250h-125v-62h125v-125h125v125h125v62h-125v250m1125 0h-438v-125h63v-62h62v-63h125v-62h63v-63h-188v63h-125v-63h63v-62h312v62h63v125h-63v63h-62v62h-125v63h250v62m187 0h-125v-437h375v62h63v188h-63v62h-250v125m0-375v188h188v-188h-188" />
</svg>