<svg id="fnt-Pridi" viewBox="0 0 1063 1000" xmlns="http://www.w3.org/2000/svg"><path id="pridi" class="f" d="M17 667v-37h13q11 0 15-4t5-14v-214q0-9-5-14t-15-4h-13v-37h171q50 0 78 26t29 74-29 75-78 28h-85v66q0 9 4 14t15 4h13v37h-118m86-158h78q31 0 46-16t16-50q0-35-15-49t-47-14h-78v129m225 158v-37h12q10 0 14-5t5-14v-129q0-9-4-14t-14-4h-10v-37h69l7 27q10-15 25-21t38-6h23v37h-28q-29 0-41 12t-12 40v95q0 10 4 14t14 5h12v37h-114m219-278v-46h57v46h-57m-31 278v-37h14q10 0 14-5t5-14v-129q0-9-5-14t-14-4h-14v-37h86v184q0 10 5 14t14 5h14v37h-119m245 7q-50 0-78-32t-27-91q0-63 27-97t80-35q30 0 48 8t31 25v-58q0-12-4-17t-16-5h-8v-36h79v277q0 11 4 15t13 5h10v34h-67l-5-35q-15 22-35 32t-52 10m12-39q32 0 50-21t18-55v-26q0-36-18-56t-48-19q-36 0-52 22t-15 70q0 46 15 66t50 19m201-246v-46h57v46h-57m-31 278v-37h14q10 0 14-5t5-14v-129q0-9-5-14t-14-4h-14v-37h86v184q0 10 5 14t14 5h14v37h-119" />
</svg>