<svg id="fnt-Prociono" viewBox="0 0 1924 1000" xmlns="http://www.w3.org/2000/svg"><path id="prociono" class="f" d="M113 498l-1 127q0 14 18 18 15 4 37 5l19 2v17h-171v-19q15-1 23-2t15-7 7-14q1-51 1-144t-1-145q-1-11-8-15t-27-4l-7-1v-18q28 2 71 2t69-3 30-2h10q30 0 51 8t32 25q20 28 20 68 0 27-20 56-39 54-115 54-35 0-53-8m0-32q17 15 58 15 20 0 35-6t22-13 12-19q5-17 5-34t-1-26-4-21q-6-25-33-38-10-5-15-5-53 0-71 6l-5 6q-2 40-3 135m303 20l-1 135q0 16 9 20t27 8 20 2v16h-140v-17q12-2 16-2t10-3 8-5 3-10 2-15v-39q0-101-4-118-4-20-29-20l-1-19q20-2 41-9t27-8 9 6 2 21l1 19q44-43 69-43 19 0 26 5t7 16q0 4-8 54h-18q-3-37-26-37-13 0-32 11t-18 32m141 151q-10-14-17-40t-7-65 20-73q14-21 47-38t56-17q44 0 76 28t31 89-22 94q-29 39-57 52-19 8-40 8t-33-3-28-11-26-24m23-98q0 54 21 77t60 24q15 0 22-3 35-13 35-104 0-42-12-62t-38-28q-14-4-26-4t-17 1-13 3-13 8-10 16q-9 18-9 72m218 68q-7-30-7-65t7-67q3-15 17-26 23-21 41-32t27-11 26-2 38 4 27 7q-1 15-1 75h-15q-5-22-8-32t-22-14-45-5-37 19-10 73q0 48 12 74 14 30 56 30 15 0 32-9t26-17l10-9 11 10q-20 24-35 37t-22 17q-42 22-93-5-20-19-35-52m271-243q-8 0-18-12t-10-18 8-21 18-15 20 9 11 22-11 23-18 12m59 303h-116v-17q25-2 32-7t6-20v-104q0-43-2-60t-7-22-19-5h-8l-1-16q37-4 55-8t20-4q9 0 9 8 0 6-1 33-2 107-2 184 0 10 8 15t26 6v17m49-30q-10-14-17-40t-7-65 20-73q14-21 47-38t56-17q44 0 76 28t31 89-22 94q-29 39-57 52-19 8-40 8t-33-3-28-11-26-24m23-98q0 54 21 77t60 24q15 0 22-3 35-13 35-104 0-42-12-62t-38-28q-14-4-26-4t-17 1-13 3-13 8-10 16q-9 18-9 72m214-100l-2-19q21-2 41-9t27-8 9 6 3 21v7q57-33 90-33t45 18 13 41v167q0 11 4 15t22 5v17h-102v-17q19-2 24-6t5-16v-159q0-12-8-19t-16-8-19-1-29 5-28 13q0 30-1 62-2 65-2 89t5 32 24 8v17h-105v-17q15-2 21-6t8-11q2-13 2-31t-1-81-2-66-2-4-2-4-2-2-2-2-3-2-4 0-4-1q-3-1-9-1m303 198q-10-14-17-40t-7-65 20-73q14-21 47-38t56-17q44 0 76 28t31 89-22 94q-29 39-57 52-19 8-40 8t-33-3-28-11-26-24m23-98q0 54 21 77t60 24q15 0 22-3 35-13 35-104 0-42-12-62t-38-28q-14-4-26-4t-17 1-13 3-13 8-10 16q-9 18-9 72" />
</svg>