<svg id="fnt-Prompt" viewBox="0 0 1731 1000" xmlns="http://www.w3.org/2000/svg"><path id="prompt" class="f" d="M33 667v-350h134q57 0 89 28t33 81q0 53-32 80t-90 27h-83v134h-51m51-176h78q35 0 55-15t21-50-21-51-55-15h-78v131m250 176v-240h49v43q15-22 42-33t64-10v39q-39 0-66 13t-38 39v149h-51m319 7q-41 0-72-15t-48-44-17-68q0-38 17-67t48-45 72-16 71 16 48 45 18 67q0 39-18 68t-48 44-71 15m0-40q39 0 62-24t23-63q0-40-23-64t-62-23-62 23-23 64q0 39 23 63t62 24m192 33v-240h48v34q17-21 38-31t45-11q29 0 46 10t25 30q16-20 39-30t47-10q44 0 63 22t20 66v160h-49v-153q0-30-11-42t-38-12q-38 0-62 33 1 7 1 24v150h-49v-153q0-30-10-42t-36-12q-38 0-68 43v164h-49m433 109v-349h49v35q37-43 100-43 36 0 65 16t45 45 16 67q0 37-16 66t-45 45-65 16q-30 0-56-10t-42-29v141h-51m138-142q24 0 44-11t31-30 11-46-11-46-31-31-44-10q-31 0-54 16t-33 44v54q8 27 32 44t55 16m267 40q-36 0-56-21t-20-59v-128h-36v-39h36v-72h51v72h59v39h-59v124q0 24 9 34t34 10q15 0 29-6v40q-19 6-47 6" />
</svg>