<svg id="fnt-Protest Strike" viewBox="0 0 2986 1000" xmlns="http://www.w3.org/2000/svg"><path id="protest-strike" class="f" d="M125 667h-97v-292l-28-68h144q45 0 75 12t44 41 14 79q0 69-33 100t-100 30h-19v98m0-290v121q24 0 36-13t12-47q0-25-5-38t-14-18-29-5m270 290h-90v-288h76l10 40h1q8-25 28-36t52-6v85q-20 0-41 2t-36 7v196m218 5q-45 0-72-15t-40-48-12-86 12-85 40-48 72-15q45 0 72 15t39 48 12 85-12 86-39 48-72 15m-1-71q17 0 24-18t7-59q0-42-7-60t-24-18q-16 0-23 18t-7 60q0 41 7 59t23 18m267-285v63h54v68h-54v124q0 14 7 21t23 6q8 0 14-1t10-1v66q-12 4-25 7t-27 3q-46 0-69-20t-23-71v-134h-38v-68h38v-63h90m206 356q-29 0-54-7t-41-23-27-45-10-74q0-73 27-111t88-37q55 0 80 30t25 90q0 14-1 29t-4 27h-119q3 30 17 40t47 11q11 0 23-2t24-5v68q-17 4-37 6t-38 3m-13-231q-20 0-24 54h41q0-11-1-23t-4-22-12-9m221 142q0-9-13-17l-43-28q-23-15-34-33t-10-47q0-42 24-62t81-21q21 0 38 2t29 4 11 2l-8 66t-7-1-20-2-24-1q-18 0-26 3t-8 11q0 5 3 8t10 8l44 28q24 16 34 33t11 46q0 45-26 67t-83 23q-26 0-47-3t-39-7l8-68t18 2 49 3q28 0 28-16m234-267v63h55v68h-55v124q0 14 7 21t24 6q8 0 14-1t10-1v66q-12 4-26 7t-26 3q-46 0-70-20t-23-71v-134h-37v-68h37v-63h90m302 269q19 0 29-5t9-18q0-9-4-14t-16-10l-53-24q-30-14-46-36t-16-66q0-55 29-82t95-28q28 0 50 3t36 5 14 3l-10 80t-13-1-30-3-35-1q-18 0-27 5t-9 20q0 8 7 13t19 11l43 18q34 15 49 37t16 64q0 55-29 85t-96 31q-33 0-61-5t-51-9l10-81t12 2 33 4 45 2m282-269v63h54v68h-54v124q0 14 7 21t23 6q8 0 14-1t10-1v66q-12 4-25 7t-27 3q-46 0-69-20t-23-71v-134h-38v-68h38v-63h90m174 351h-90v-288h77l10 40h1q8-25 28-36t51-6v85q-19 0-40 2t-37 7v196m105 0v-288h90v288h-90m-3-310v-68h95v68h-95m223-68v215l48-125h93l-56 141 56 147h-95l-46-129v129h-90v-366l90-12m287 383q-29 0-54-7t-41-23-27-45-10-74q0-73 27-111t88-37q55 0 80 30t25 90q0 14-1 29t-4 27h-119q3 30 17 40t47 11q11 0 23-2t24-5v68q-17 4-37 6t-38 3m-13-231q-20 0-24 54h41q0-11-1-23t-4-22-12-9" />
</svg>