<svg id="fnt-Protest Riot" viewBox="0 0 2556 1000" xmlns="http://www.w3.org/2000/svg"><path id="protest-riot" class="f" d="M93 673q-11 0-24-7t-23-24-10-43q0-3 0-7t0-6q3-28 6-66t6-82 5-84q-11-9-19-20t-9-20q0-4 3-6t7-2q14 0 33-1t37-2 32 0q29 0 53 9t44 25 29 32 11 32q0 30-14 56t-34 47-46 37q-12 9-23 12t-19 4-15-3-10-8q-2 28-5 57t-4 63q-1 4-4 6t-7 1m30-234q-2 20-4 38t-3 38q45-31 64-62t19-55q0-21-11-33-7 0-14-1t-14 0q-15 0-27 0t-24 1q7 8 11 21t4 33q0 5-1 9t0 11m244 238q-15 0-30-8t-26-22-12-31q-1-16-2-39t-1-48q0-37 2-76t11-75q2-10 8-10 13 0 27 6t24 16 10 20q0 6-1 15t-1 29h1q3-16 11-34t23-32 30-13q12 14 19 37t8 45q-26 6-46 18t-40 33q-6 26-10 55t-4 55-1 42 0 17m221-3q-17 0-32-6t-25-21q-24-12-37-40t-13-67q0-33 9-63t25-52 35-37 43-13q19 0 38 7t33 24q25 13 38 37t13 52q0 37-7 69t-23 57-40 39-57 14m-10-55q15 0 26-13t20-33 12-44 4-44q0-23-5-39t-17-15q-15 0-26 13t-20 33-12 44-4 44q0 23 5 39t17 15m257 55q-11 0-27-7t-22-23q-13-8-20-22t-6-32q0-12 0-35t2-53 4-63q-14-6-25-18t-10-19q0-6 2-10t9-4q14-2 29-3 2-16 4-31t4-30q2-8 5-11t8-2q15 0 29 7t24 17 8 16q-2 15-4 28 7 0 13 0 8 0 18 4t20 11 16 13 6 14q0 9-4 11t-14 3q-9 0-26 1t-37 3q-6 42-10 84t-6 85q19-6 31-16t18-18 14-11q3-2 7-2 9 0 15 9t6 23q0 15-9 29t-22 26-27 19-23 7m169-1q-14 0-28-9t-27-24-19-32-8-36q0-36 10-71t29-63 43-46 54-17q13 0 29 8t22 23q19 9 28 27t7 33q-1 12-10 27t-23 31-31 29-35 21-34 9q-6 0-13-4 1 16 9 22t21 7q19 0 42-13t49-36q11 5 17 14t5 22q-2 15-16 28t-35 25-43 18-43 7m75-243q-20 1-36 18t-27 42-16 49q17-3 31-17t26-32 18-34 4-26m187 243q-26 0-50-7t-39-24-15-39q0-13 5-23t15-10q8 13 20 23t27 14 26 5 19-5 8-15q0-6-5-11t-17-10l-43-15q-24-8-33-21t-9-34q0-18 9-40t24-40 34-32 41-12q17 0 31 3t24 17q17 8 24 21t8 23q0 10-5 22t-12 23-10 24q-1 3-3 6t-6 2q-6 0-13-5t-14-12-11-15-4-11q0-12 7-23t6-17q0-3 0-5t-4-1q-9 0-20 11t-18 29-8 35q0 10 16 15l49 19q40 16 40 50 0 26-14 45t-34 30-46 10m211 1q-11 0-27-7t-22-23q-13-8-20-22t-6-32q0-12 0-35t2-53 4-63q-14-6-25-18t-10-19q0-6 2-10t9-4q14-2 29-3 2-16 4-31t4-30q2-8 5-11t8-2q15 0 29 7t24 17 8 16q-2 15-4 28 7 0 13 0 8 0 18 4t20 11 16 13 6 14q0 9-4 11t-14 3q-9 0-26 1t-37 3q-6 42-10 84t-6 85q19-6 31-16t18-18 14-11q3-2 7-2 9 0 15 9t6 23q0 15-9 29t-22 26-27 19-23 7m299-1q-7 0-17-5t-19-18-15-34-6-54q0-20 1-53t4-70 7-77q-12-8-22-21t-9-24q0-5 3-7t7-1q14 0 33-2t39-3 36-1q28 0 52 9t42 24 29 33 10 35q0 16-12 38t-33 48-55 49l155 182q3 2 5 6t2 8q0 7-9 7-8 0-21-3t-27-10-24-15l-144-136q-1 16-1 30t-1 28q0 8 0 16t1 14v0q0 4-3 6t-8 1m75-312q-10 0-22 1t-21 3q-5 34-9 74t-7 79q27-18 45-40t26-43 9-39q0-13-5-23t-16-12m198 313q-13 0-28-5t-24-15-9-23q0-8 1-28t2-48 4-57 4-55 5-45q0-4 5-6t7-1q12 0 26 7t24 16 10 21q0 7-2 26t-5 46-5 55-5 56-2 48q0 2-2 5t-6 3m7-332q-17 0-31-4t-21-14-7-28q1-10 3-21t13-14q6-1 14-1t15-1q14 0 31 5 9 2 9 6 0 12-4 27t-7 43q-8 2-15 2m164 332q-16 0-32-6t-24-21q-24-12-37-40t-13-67q0-33 9-63t24-52 36-37 43-13q19 0 38 7t33 24q24 13 37 37t14 52q0 37-8 69t-23 57-39 39-58 14m-10-55q15 0 27-13t19-33 12-44 5-44q0-23-6-39t-16-15q-15 0-27 13t-19 33-13 44-4 44q0 23 6 39t16 15m257 55q-11 0-26-7t-23-23q-13-8-19-22t-7-32q0-12 1-35t1-53 4-63q-13-6-24-18t-11-19q0-6 2-10t9-4q14-2 29-3 2-16 4-31t5-30q1-8 4-11t9-2q15 0 29 7t23 17 9 16q-3 15-4 28 7 0 13 0 7 0 17 4t20 11 16 13 7 14q0 9-5 11t-14 3q-8 0-26 1t-37 3q-5 42-10 84t-5 85q19-6 30-16t19-18 14-11q3-2 6-2 9 0 15 9t7 23q0 15-9 29t-22 26-27 19-24 7" />
</svg>