<svg id="fnt-PT Mono" viewBox="0 0 2073 1000" xmlns="http://www.w3.org/2000/svg"><path id="pt-mono" class="f" d="M50 667v-347q19-4 41-6t44-1q23 0 46 4t44 17 31 33 13 53q0 32-12 54t-30 36-44 20-50 6q-3 0-9 0t-12-1-12 0-8-1v133h-42m86-318q-13 0-25 0t-19 3v145q2 1 8 1t11 0 12 1 8 0q17 0 33-4t31-11 21-24 9-40q0-20-8-34t-21-22-28-12-32-3m184 59v-91h260v91h-37v-54h-72v276h55v37h-152v-37h55v-276h-72v54h-37m809 259v-233l5-47h-3l-24 43-51 85h-12l-54-86-23-42h-2l6 47v233h-41v-350h39l83 133h1l80-133h37v350h-41m100-125q0-61 31-96t90-35q32 0 54 10t38 28 22 41 8 52q0 30-8 54t-24 41-38 26-52 10q-31 0-54-11t-38-27-22-42-7-51m41 0q0 17 4 35t14 31 25 23 37 8q40 0 60-25t21-72q0-18-5-36t-14-31-25-22-37-9q-40 0-60 25t-20 73m277 125v-163q0-4-1-12t0-15-2-15-1-13h-34v-32h67l5 40h2q5-8 13-17t20-15 24-10 29-4q23 0 40 5t30 17 18 35 6 55v144h-39v-136q0-42-14-63t-49-21q-13 0-25 5t-22 14-18 20-11 24v157h-38m282-125q0-61 31-96t90-35q32 0 54 10t38 28 22 41 8 52q0 30-8 54t-24 41-38 26-52 10q-31 0-54-11t-38-27-22-42-7-51m41 0q0 17 4 35t14 31 25 23 37 8q40 0 60-25t21-72q0-18-5-36t-14-31-25-22-37-9q-40 0-60 25t-20 73" />
</svg>