<svg id="fnt-PT Serif Caption" viewBox="0 0 4078 1000" xmlns="http://www.w3.org/2000/svg"><path id="pt-serif-caption" class="f" d="M62 345h-46v-28h52q23 0 49-2t51-2q27 0 54 5t47 18 33 33 13 52q0 29-13 50t-35 35-49 20-57 7q-3 0-9 0t-13-1-12 0-9-1v108h50v28h-152v-28h46v-294m56-1v158q2 1 7 1t12 1 11 1 9 0q20 0 37-5t30-15 21-26 7-38q0-41-26-61t-70-19q-13 0-22 0t-16 3m470 295v28h-159v-28h51v-294h-89l-10 11v64h-36v-103h327v103h-36v-64l-10-11h-90v294h52m295-81v60l9 12q9 6 24 10t35 5q18 0 33-4t27-11 18-19 7-28q0-20-14-34t-34-24-45-20-44-24-35-32-13-48q0-43 32-67t87-23q35 0 60 4t42 12v86h-32v-54l-8-12q-9-4-27-6t-36-2q-30 0-47 13t-17 39q0 21 14 34t34 25 45 21 44 24 34 32 14 46q0 48-37 74t-103 26q-35 0-61-8t-38-16v-91h32m471 55l13 19q-13 19-37 29t-55 11q-33 0-58-10t-42-27-26-43-9-56q0-67 34-102t94-35q20 0 39 5t34 17 24 30 10 47q0 9-1 18t-3 20h-174q0 22 5 40t18 31 29 20 42 8q19 0 36-7t27-15m-88-190q-16 0-28 4t-20 15-13 28-7 43h121q0-5 0-10t1-8q0-33-14-53t-40-19m338 26h-61q-12 6-19 14t-16 23v156h44v25h-134v-25h37v-213h-37v-25h90v51h2q8-17 20-29t26-22h48v45m162 193v25h-126v-25h37v-213h-37v-25h89v238h37m-100-319q0-14 10-23t26-8q17 0 27 8t10 23-10 23-27 9q-16 0-26-9t-10-23m294-31q18 0 31 3t21 5v49h-48v-32q-16 0-29 3t-20 11-12 23-4 39v11h64v32h-64v206h54v25h-143v-25h37v-206h-43v-32h43v-8q0-50 30-77t83-27m441 329v-46h32v78q-16 9-41 14t-51 6q-46 0-82-11t-62-33-39-56-13-81q0-49 15-84t40-56 59-31 71-10q18 0 32 1t26 4 22 6 20 7v86h-32v-53l-7-10q-6-2-18-6t-37-3q-27 0-51 8t-41 27-27 46-10 68q0 71 36 110t102 39q18 0 30-3t19-7l7-10m296-24q0 12 1 23t1 22h33v25h-78l-5-48h-3q-2 10-9 20t-17 17-24 12-31 4-32-5-24-14-17-22-5-28q0-25 10-41t30-25 50-13 70-5q1-8 1-15t0-14q0-31-10-48t-38-16q-10 0-21 1t-21 6v46h-45v-55q18-10 42-17t58-8q28 0 45 7t27 19 12 27 3 29q0 32-2 60t-1 56m-109 42q12 0 21-4t17-10 12-12 9-14v-59q-32 0-53 4t-31 11-16 17-4 21q0 22 12 34t33 12m305 103v25h-126v-25h37v-313h-37v-25h89v53h1q11-27 31-42t53-16q50 0 77 31t27 100q0 33-9 59t-27 45-41 28-54 10q-10 0-18 0t-14-2-13-3-13-4v79h37m29-309q-27 0-43 15t-23 43v147q10 6 22 8t33 3q19 0 33-9t25-25 15-37 5-48q0-22-3-40t-12-30-20-20-32-7m148 3v-32h45v-62h52v62h83v32h-83v146q0 32 8 45t26 13q16 0 27-6t21-12l12 20q-4 4-12 9t-18 10-22 8-25 3q-34 0-52-18t-17-57v-161h-45m350 206v25h-127v-25h37v-213h-37v-25h90v238h37m-101-319q0-14 10-23t27-8q17 0 26 8t10 23-10 23-26 9q-16 0-27-9t-10-23m144 213q0-33 9-59t27-43 42-26 55-9q35 0 60 10t41 27 24 43 8 57q0 33-10 58t-26 42-42 27-55 9q-34 0-59-10t-42-28-24-42-8-56m56 0q0 24 5 44t14 36 27 23 40 9q29 0 48-27t19-85q0-24-4-45t-15-36-25-24-37-8q-33 0-52 27t-20 86m558 106v25h-123v-25h33v-126q0-39-12-61t-44-22q-14 0-26 4t-21 12-16 18-10 21v154h33v25h-122v-25h37v-213h-37v-25h89v52h1q11-24 33-40t54-17q23 0 40 5t29 17 18 34 7 53v134h37" />
</svg>