<svg id="fnt-PT Sans Caption" viewBox="0 0 3890 1000" xmlns="http://www.w3.org/2000/svg"><path id="pt-sans-caption" class="f" d="M45 667v-347q21-4 45-6t49-2q26 0 52 5t48 16 35 33 14 55q0 32-13 54t-33 36-48 21-55 6q-3 0-9 0t-13-1-13 0-9-1v131h-50m96-312q-14 0-27 1t-19 2v135q2 1 8 1t12 1 12 0 9 0q18 0 35-3t32-10 23-23 9-37q0-20-9-33t-22-21-30-10-33-3m454-38v44h-118v306h-50v-306h-118v-44h286m351 258q0-21-13-33t-34-21-44-16-44-20-34-31-14-49q0-43 31-69t90-26q33 0 61 5t44 13l-15 42q-13-6-38-12t-55-5q-34 0-51 15t-17 33q0 20 14 32t34 21 44 18 44 21 34 30 13 47q0 24-9 43t-26 32-41 21-54 7q-41 0-70-6t-42-13l16-44q13 7 38 13t56 7q17 0 32-3t26-10 18-17 6-25m128-116l-13-38q45-22 112-22 30 0 48 8t28 20 13 26 4 30q0 27-2 55t-2 60q0 19 1 37t6 33h-33l-13-40h-5q-5 7-13 15t-19 14-26 10-32 4-34-6-27-14-18-24-6-30q0-23 9-39t26-27 35-16 39-5q16 0 26 1t18 1 13 1 9 2q1-8 1-13t1-14q0-14-3-24t-10-15-18-8-28-3q-10 0-21 2t-23 4-23 7-20 8m144 129v-40q-4-1-9-2t-11-1-16-1-23-1q-31 0-49 11t-18 38q0 20 14 30t37 10q16 0 29-5t22-10 15-14 9-15m370 79h-46v-145q0-42-14-63t-48-21q-30 0-51 15t-28 41v173h-46v-263h32l9 35h5q14-18 37-30t56-12q23 0 41 5t29 18 18 36 6 56v155m220-74q0-10-5-17t-12-11-19-8-22-7q-14-4-29-9t-27-13-19-21-7-33q0-39 23-58t65-19q32 0 53 6t38 13l-11 39q-14-7-33-13t-41-6q-24 0-36 8t-12 29q0 8 4 14t12 10 18 7 21 7q15 4 30 9t27 14 20 22 8 34q0 37-25 60t-75 24q-32 0-56-7t-39-15l13-40q14 8 36 15t44 8q25 0 40-9t16-33m499 20l12 39q-17 12-42 16t-54 5q-34 0-64-11t-53-33-37-56-13-81q0-49 15-84t39-56 54-32 59-10q33 0 54 4t36 9l-11 43q-25-12-75-12-22 0-44 7t-38 24-26 42-10 65q0 34 9 59t26 43 40 26 50 9q24 0 42-4t31-12m77-154l-13-38q45-22 112-22 30 0 48 8t28 20 13 26 4 30q0 27-2 55t-2 60q0 19 1 37t6 33h-33l-13-40h-5q-5 7-13 15t-19 14-26 10-32 4-34-6-27-14-18-24-6-30q0-23 9-39t26-27 35-16 39-5q16 0 26 1t18 1 13 1 9 2q1-8 1-13t1-14q0-14-3-24t-10-15-18-8-28-3q-10 0-21 2t-23 4-23 7-20 8m144 129v-40q-4-1-9-2t-11-1-16-1-23-1q-31 0-49 11t-18 38q0 20 14 30t37 10q16 0 29-5t22-10 15-14 9-15m137 179v-363h31l9 34h5q13-20 35-31t48-10q57 0 85 31t28 102q0 33-9 59t-27 46-42 29-55 10q-10 0-18-1t-15-3-14-4-15-5v106h-46m118-331q-30 0-47 15t-25 46v121q12 8 25 12t35 5q40 0 63-27t23-79q0-42-17-68t-57-25m165 7v-39h45v-53l46-12v65h79v39h-79v134q0 32 8 45t27 13q13 0 23-3t23-7l11 32q-16 7-35 12t-39 5q-35 0-50-19t-14-62v-150h-45m248 224v-263h46v263h-46m-10-325q0-12 9-21t24-9 24 9 9 21-9 20-24 9-24-9-9-20m141 194q0-33 9-59t25-43 40-28 54-9q32 0 56 10t40 29 24 44 8 56q0 32-9 57t-25 44-40 27-54 10q-33 0-57-11t-40-29-23-44-8-54m49 0q0 18 4 36t14 32 25 22 37 9q78 0 78-99 0-20-5-38t-13-32-24-22-36-8q-39 0-60 24t-20 76m513 131h-46v-145q0-42-13-63t-48-21q-31 0-51 15t-28 41v173h-46v-263h32l9 35h4q15-18 38-30t56-12q23 0 40 5t29 18 18 36 6 56v155" />
</svg>