<svg id="fnt-PT Sans Narrow" viewBox="0 0 2690 1000" xmlns="http://www.w3.org/2000/svg"><path id="pt-sans-narrow" class="f" d="M32 667v-347q16-4 34-6t36-1q20 0 39 4t35 17 26 33 10 53q0 32-10 54t-24 35-35 20-41 7q-2 0-6 0t-10-1-10 0-6-1v133h-38m72-320q-10 0-20 1t-14 2v149q2 1 6 1t9 1 8 0 7 0q14 0 27-3t23-13 16-25 6-40q0-21-6-35t-15-22-21-12-26-4m332-30v34h-86v316h-37v-316h-86v-34h209m114 338l13-35q9 7 26 12t40 6q28 0 45-14t18-43q0-19-10-34t-25-27-33-24-32-26-25-32-10-45q0-42 25-62t66-20q25 0 45 4t31 12l-12 33q-9-6-26-10t-38-5q-27 0-40 13t-13 34q0 17 10 31t25 25 32 24 32 28 25 34 10 45q0 44-26 69t-73 25q-30 0-50-6t-30-12m236-195l-12-28q15-9 35-14t44-5q21 0 34 6t20 17 9 24 3 29q0 30-2 59t-1 54q0 19 1 35t5 31h-27l-9-30h-2q-7 13-22 23t-39 9q-27 0-44-19t-17-51q0-22 7-36t20-24 32-13 41-3q5 0 10 0t10 0q2-15 2-27 0-29-9-40t-31-12q-14 0-30 4t-28 11m97 146v-53q-5-1-10-1t-10 0q-12 0-24 2t-20 7-15 13-5 22q0 20 10 31t25 11q21 0 33-10t16-22m258 61h-36v-153q0-37-9-54t-31-17q-20 0-33 12t-19 30v182h-36v-250h26l6 26h2q9-13 25-23t39-9q16 0 28 4t21 15 12 29 5 46v162m40-10l11-31q10 6 24 10t28 4q17 0 28-8t12-27q0-15-7-25t-18-18-23-15-24-16-17-23-7-33q0-32 17-48t49-16q20 0 35 3t26 11l-9 30q-10-5-22-9t-26-3q-18 0-26 8t-8 23q0 13 7 21t17 16 24 15 23 18 18 24 7 36q0 14-5 27t-14 21-23 15-32 6q-22 0-38-5t-27-11m475 15l-129-227-21-55h-2l6 55v222h-36v-356h22l130 227 20 53h2l-5-53v-221h36v355h-23m94-212l-12-28q14-9 35-14t44-5q21 0 33 6t20 17 10 24 2 29q0 30-1 59t-1 54q0 19 1 35t5 31h-28l-8-30h-2q-8 13-22 23t-39 9q-27 0-45-19t-17-51q0-22 7-36t21-24 31-13 41-3q5 0 10 0t11 0q1-15 1-27 0-29-8-40t-31-12q-14 0-31 4t-27 11m96 146v-53q-5-1-10-1t-10 0q-12 0-23 2t-21 7-14 13-5 22q0 20 9 31t26 11q21 0 32-10t16-22m94 61v-250h26l6 26h2q7-14 18-23t27-8q12 0 26 5l-7 36q-13-4-23-4-16 0-26 9t-13 25v184h-36m137 0v-250h26l6 26h2q7-14 18-23t27-8q12 0 26 5l-7 36q-13-4-23-4-16 0-26 9t-13 25v184h-36m126-125q0-68 23-100t67-31q46 0 67 32t22 99q0 68-23 99t-66 32q-46 0-68-33t-22-98m38 0q0 22 2 40t9 31 17 20 24 7q26 0 39-23t13-75q0-22-3-40t-9-31-16-21-24-7q-26 0-39 24t-13 75m292-125h26l45 146 9 48h1l7-49 34-145h34l-66 255h-21l-50-164-7-42h-1l-7 43-49 163h-21l-68-255h38l39 145 6 49h1l9-50 41-144" />
</svg>