<svg id="fnt-Public Sans" viewBox="0 0 2699 1000" xmlns="http://www.w3.org/2000/svg"><path id="public-sans" class="f" d="M95 667h-47v-362h122q39 0 69 13t48 39 17 62q0 36-16 62t-45 39-67 13h-81v134m0-323v150h80q38 0 61-21t23-56q0-36-24-55t-62-18h-78m355 328q-20-1-38-6t-32-17-22-27-7-38v-176h46v171q0 25 15 41t48 16q28 0 45-15t18-45v-168h46v259h-37l-5-50q-4 20-16 32t-27 17-34 6m326 0q-23 0-38-6t-26-16-15-19-8-17l-5 53h-36v-372h47v154q3-6 10-14t17-15 25-12 33-5q48 0 77 34t28 99q0 41-12 72t-36 47-61 17m-8-36q31 0 51-24t20-78q0-45-19-70t-53-25q-26 0-42 11t-23 33-7 51q0 54 17 78t56 24m244 34q-21 0-34-6t-20-15-9-23-2-26v-305h45v301q0 19 8 29t21 11l14 0v30q-6 2-12 3t-11 1m130-3h-45v-259h45v259m1-314h-47v-48h47v48m180 319q-35 0-62-16t-42-45-15-73q0-40 14-70t41-48 64-17q28 0 50 11t37 30 17 46h-41q-2-14-10-25t-22-18-30-7q-34 0-55 24t-20 74q0 45 19 72t56 26q18 0 31-6t21-19 11-24h40q-3 26-18 45t-36 29-50 11m418 0q-26 0-50-7t-43-19-32-31-16-44h49q4 20 17 34t34 21 43 7q23 0 43-7t31-21 12-34q0-21-14-34t-44-21l-74-20q-25-6-45-17t-30-30-11-47q0-30 17-53t46-36 66-12q42 0 71 14t45 39 15 51h-48q-2-24-14-39t-31-20-40-7q-38 0-58 18t-20 42q0 22 14 35t42 19l73 19q32 8 51 22t27 33 9 41q0 30-17 53t-47 37-71 14m274 0q-25 0-44-9t-30-26-11-40q0-43 30-64t96-23l46-1v-20q0-24-14-38t-44-14q-22 0-39 11t-22 33h-41q2-25 14-42t36-27 54-9q34 0 56 10t34 28 11 45v181h-40l-3-49q-15 30-38 42t-51 12m14-34q13 0 26-4t23-13 18-18 6-21v-45l-38 1q-30 1-50 6t-29 17-10 31q0 22 15 34t39 12m236 29h-46v-259h45v38q6-11 17-21t27-15 37-6q24 0 45 10t33 31 12 53v169h-46v-165q0-30-16-45t-41-14q-17 0-33 5t-24 17-10 29v173m333 5q-27 0-50-9t-38-26-19-46h42q3 16 12 26t23 15 30 5q26 0 42-10t16-30q0-14-8-22t-26-13l-54-13q-31-8-50-24t-19-45q0-22 11-40t33-27 55-10q42 0 68 19t27 55h-41q-3-18-17-29t-38-11q-24 0-40 10t-15 31q0 13 11 21t32 13l52 13q18 5 30 13t18 17 10 20 3 20q0 24-12 41t-34 26-54 10" />
</svg>