<svg id="fnt-Purple Purse" viewBox="0 0 2924 1000" xmlns="http://www.w3.org/2000/svg"><path id="purple-purse" class="f" d="M9 671v-9h64l4-328q-14 0-29 0t-32 1v-9q28-1 51-1t41 0 32 0 24 0h35q9 0 24 1t32 5 36 11 33 19 24 30 9 42q0 32-11 53t-35 34-56 17-78 5h-13l-2 120h62v9h-215m262-238q0-21-4-37t-10-26-16-17-21-11-25-5-28-2l-3 196q20-2 35-7t27-13 19-16 13-17q11-21 13-45m230 39l109 1-6 187 25-3 1 9-95 9 1-40q-4 9-9 16t-9 11-8 9-9 6q-9 5-18 6-21 0-37-9t-27-22-15-32-6-36l6-104-29 0v-9l106 1q-5 45-8 75t-4 50q-2 23-2 36 0 13 2 21t5 12 7 6 7 2q5-1 11-5t13-12 13-20 11-30l2-125-37-1v-9m257 5l1 35q7-15 15-23t16-13q8-5 16-7 10-1 18 1t12 9 7 12 2 16q0 8-2 16t-4 15-6 13-7 10h0q-7 8-13 11t-12 3q-11 0-18-7t-7-19q0-9 4-20t14-19q6-6 13-9 6-3 13-5t15 1q-2-9-9-15t-19-4q-9 2-18 8-8 6-16 17t-14 30l2 129 42-1v9l-150 3v-9l33 0 2-180-27-2v-9l97 4m89 292v-9l44 0 5-303-42-1v-9l116 2-1 49q3-4 8-9t10-9 11-6 13-2q9 0 20 3t22 8 21 14 18 20 13 24 5 30-6 30-15 25-21 22-26 16-26 10-23 3q-2 0-5-1t-7-2-9-4-10-6l-4 95h47v9l-158 1m146-101h2q8 0 15-5t11-13 8-18 5-20 3-21 1-18q0-8-1-18t-1-20-3-20-5-17-8-12-12-5q-6 0-12 4t-11 8-9 12-8 13l-5 131q4 6 8 10t9 5 8 3 5 1m135 4v-9h38l6-316-43-1v-9l116 2-7 324h50v9h-160m373-128q0 13-9 23t-21 18-29 12-31 4q-1 0-5 0t-8-2-11-4-12-8q0 21 4 37t9 25 13 15 16 4q5 0 14-3t18-11 18-18 15-26l7-18 9 3-4 11q-5 14-14 27t-20 23-26 16-30 8q-29-1-48-10t-32-23-17-31-6-35q0-11 4-25t10-27 17-27 22-23 28-16 32-6q16 1 29 5t22 11 16 16 11 18 7 19 2 18m-91-78q-8 1-14 9t-12 23-7 33-3 42q6 7 12 11t11 5 9 3 4 0q10 0 16-4t10-11 5-16 1-21q0-15-2-28t-5-24-10-16-15-6m246 205v-9h64l4-328q-14 0-29 0t-32 1v-9q28-1 51-1t41 0 31 0 25 0h35q8 0 24 1t32 5 36 11 33 19 24 30 9 42q0 32-11 53t-35 34-56 17-78 5h-13l-2 120h62v9h-215m262-238q0-21-4-37t-10-26-16-17-21-11-25-5-28-2l-3 196q20-2 35-7t27-13 19-16 13-17q11-21 13-45m230 39l109 1-6 187 25-3 1 9-95 9 1-40q-4 9-9 16t-9 11-9 9-8 6q-9 5-18 6-21 0-37-9t-27-22-15-32-6-36l6-104-30 0v-9l107 1q-5 45-8 75t-4 50q-2 23-2 36 0 13 2 21t5 12 7 6 7 2q5-1 11-5t13-12 13-20 11-30l2-125-37-1v-9m257 5l1 35q7-15 15-23t16-13q8-5 16-7 10-1 18 1t12 9 7 12 2 16q0 8-2 16t-4 15-6 13-7 10h0q-7 8-13 11t-12 3q-11 0-18-7t-7-19q0-9 4-20t14-19q6-6 13-9 6-3 13-5t15 1q-2-9-9-15t-19-4q-9 2-18 8-8 6-16 17t-14 30l2 129 42-1v9l-150 3v-9l33 0 1-180-26-2v-9l97 4m198 199q-15 0-29-4t-26-11-19-16-10-22q0-7 2-13t5-10 9-7 11-2q7 0 14 4t12 13q4 7 6 14t3 13 2 13 3 10 6 6 11 3q11 0 19-3t14-6 8-8 2-11q0-6-3-13t-10-12-16-11-23-6q-15-3-28-8t-22-13-14-20-6-28 8-30 19-21 26-14 29-4q7 0 15 0t16 4 17 5 15 10 10 13 4 18q0 6-2 11t-6 9-8 6-10 2q-12 0-18-5t-8-13-4-17-2-16-6-13-13-5q-16 1-26 8t-9 18q0 7 3 14t9 13 15 10 19 6q14 2 28 8t23 13 16 20 6 24-7 27-19 23-28 17-33 7m319-132q0 13-8 23t-22 18-29 12-31 4q-1 0-4 0t-9-2-11-4-12-8q1 21 4 37t9 25 13 15 16 4q5 0 14-3t18-11 18-18 16-26l7-18 8 3-3 11q-6 14-15 27t-20 23-26 16-30 8q-28-1-48-10t-31-23-18-31-6-35q0-11 4-25t10-27 17-27 23-23 27-16 32-6q16 1 29 5t22 11 17 16 11 18 6 19 2 18m-90-78q-8 1-15 9t-11 23-8 33-3 42q7 7 13 11t11 5 8 3 5 0q9 0 15-4t10-11 5-16 2-21q0-15-2-28t-6-24-10-16-14-6" />
</svg>