<svg id="fnt-Quattrocento" viewBox="0 0 2999 1000" xmlns="http://www.w3.org/2000/svg"><path id="quattrocento" class="f" d="M191 334q39 0 70 14t51 36 32 54 11 64q0 32-10 61t-30 53-48 39-67 17q26 0 46 6t38 12 35 12 38 6q7 0 17-2t21-8l1 1 2 4 0 2q-11 13-26 22t-34 9q-17 0-35-7t-38-16-40-15-44-7q-19 0-37 4t-25 11l-2-1-2-7 0-1q11-8 30-16t40-9q-39 0-69-14t-49-36-29-53-10-63q0-36 11-67t32-55 51-36 69-14m0 312q30 0 53-12t39-30 25-46 8-55q0-30-9-56t-25-46-40-30-54-10q-29 0-52 10t-38 30-24 45-7 56q0 34 9 60t25 45 39 29 51 10m407-21l-2-1q-13 21-33 34t-50 14q-14 0-28-3t-24-11-19-20-12-31q-2-13-2-28t0-28q0-7-1-18t0-23 0-22 0-14q0-6-2-10t-4-6q-5-6-13-7t-15-1l-2-2v-7l2-2h9q8 0 21 0t23-2l17-2 3 4q-1 2-1 7t-1 12-1 11 0 9q0 8 0 18t-1 21 0 20 0 16q0 11 0 25t4 24q5 23 20 35t36 11q16 0 29-6t22-15 16-20 9-18v-65q0-11-1-18t0-13-1-10 0-9q-1-6-3-10t-3-6q-5-6-13-7t-15-1l-2-2v-7l2-2h9q8 0 21 0t22-2l18-2 3 4q-1 2-2 7t-1 12 0 11 0 9q0 4-1 7t0 9 0 11 0 18v56q0 11 0 18t0 12 1 9 0 10q1 11 3 16t5 8q4 4 11 5t16 1l2 2 1 7-1 2q-9-1-19-2t-21 0q-19 0-34 1l-3-5q1-6 3-17t3-21m248 43l-3-5q2-5 2-16t3-21l-1-1q-6 9-15 17t-20 15-23 11-26 4q-15 0-27-5t-20-15-12-21-4-25q0-18 8-32t23-23q13-8 30-13t35-7 30-3 18-1h7q0-18-2-29t-4-18q-5-15-19-22t-32-6q-8 0-18 1t-17 6-14 11-7 19l-2 1h-11l-5-37 2-3q2-3 10-6t19-7 24-6 26-2q18 0 34 5t26 14 18 24 7 33q0 21-1 37t0 30-1 27 0 29q1 11 2 16t5 8q4 4 12 5t16 1l2 2 0 7 0 2q-9-1-20-2t-20 0q-19 0-35 1m-3-59q2-2 3-6t3-8l2-50h-4q-20 0-40 2t-36 9-26 18-10 29q0 19 11 30t29 12q10 0 21-4t19-9 17-11 11-12m237-151l-3 2h-65q0 33 0 60t0 48-1 34 0 15q0 20 8 26t17 7q9 0 20-4t18-7l5 4-5 14q-11 8-26 11t-25 4q-25 0-36-14t-10-36q0-4 0-18t1-35 1-49 1-60h-36l-2-2v-10l2-2 36-7q0-17-1-36t-2-35l4-3 7-1q4 0 13-2t12-3l5 2q-2 7-3 16t-2 20-1 21 0 21l65-3 3 2v20m163 0l-3 2h-65q0 33 0 60t0 48-1 34 0 15q0 20 8 26t17 7q9 0 20-4t18-7l5 4-5 14q-11 8-26 11t-25 4q-25 0-36-14t-10-36q0-4 0-18t1-35 1-49 1-60h-36l-2-2v-10l2-2 36-7q0-17-1-36t-2-35l4-3 7-1q4 0 13-2t12-3l5 2q-2 7-3 16t-2 20-1 21 0 21l65-3 3 2v20m99 31l2 1q5-10 11-20t14-20 18-15 24-6q9 0 20 3t15 7l4 5-6 38h-16q-2-7-8-13t-19-5q-13 0-23 7t-19 18-12 23-4 23v44q0 11 0 18t1 11 0 8 1 7l0 5q1 7 2 14t6 10q2 2 7 3t10 2 10 0 8 1l3 2 1 7-1 2q-4 0-12-1t-16-1-16 0-11 0h-12q-4 0-11 0t-15 0-16 1-10 1l-1-2 1-7 2-2q8 0 15-1t12-5q4-3 5-9t3-15l0-5q1-5 1-12t0-26v-61q0-11 0-18t0-13-1-10 0-9q-1-6-3-10t-4-6q-5-6-12-7t-16-1l-2-2v-7l2-2h9q9 0 22 0t22-2l18-2 3 4q-3 11-5 24t-1 26m260-60q29 0 52 10t39 28 24 40 8 46q0 23-7 45t-23 38-39 26-53 10q-32 0-55-10t-39-28-23-39-7-44q0-25 8-47t24-39 39-26 52-10m0 224q21 0 37-9t27-22 15-32 6-37q0-18-6-36t-17-34-27-24-37-9q-22 0-38 9t-26 23-15 32-5 36q0 18 6 36t17 33 27 24 36 10m370-163h-11l-2-1q0-12-7-19t-16-11-20-6-19-1q-23 0-40 8t-27 22-17 31-5 37q0 19 6 36t18 31 30 22 43 8q17 0 37-6t36-13l5 5-7 14q-6 4-15 8t-19 8-24 7-25 2q-25 0-47-9t-39-24-27-38-10-49q0-28 10-50t28-39 40-25 50-9q24 0 45 6t33 12l1 5-5 38m270 30l-3 12-8 4q-27 0-56 0t-56 1h-59q0 3 0 6t0 7q0 19 5 36t17 30 31 21 45 8q15 0 33-4t33-11l5 3v9l-5 5q-12 10-34 17t-49 8q-27 0-49-9t-37-24-25-38-8-49q0-28 9-50t24-39 37-25 46-9q13 0 29 4t32 13 27 27 16 47m-103-68q-16 0-29 5t-23 14-16 20-8 25h19q27 0 53-1t53-2q7 0 9-3t2-7q0-3 0-6t-2-5q-5-19-20-30t-38-10m210 27l1 1q13-22 34-36t51-15q14 0 28 4t25 13 20 21 10 32q2 13 2 27t0 29q0 18 0 36t1 37q1 11 2 16t5 8q4 4 12 5t16 1l1 2 1 7-1 2q-8-1-19-2t-20 0q-19 0-35 1l-3-5q2-6 3-17t1-18q1-21 2-42t0-33q0-12-1-25t-3-24q-5-23-20-35t-36-11q-17 0-31 7t-24 17-16 21-6 20v56q0 11 0 18t0 12 1 9 1 10q1 10 2 15t6 9 11 5 15 1l2 2 1 7-1 2q-3 0-10-1t-15-1-15 0-11 0h-7q-3 0-11 0t-15 0-15 1-10 1l-1-2 1-7 2-2q8 0 15-1t12-5q4-3 5-9t3-15q0-8 1-17t0-26v-61q0-11 0-18t0-13-1-10 0-9q-1-6-3-10t-4-6q-5-6-12-7t-16-1l-2-2v-7l2-2h9q9 0 22 0t22-2l18-2 3 4q-3 7-4 18t-1 22m367-21l-2 2h-65q0 33-1 60t0 48 0 34 0 15q0 20 7 26t18 7q8 0 19-4t19-7l4 4-4 14q-12 8-26 11t-25 4q-26 0-36-14t-11-36q0-4 1-18t1-35 1-49 0-60h-36l-2-2v-10l2-2 36-7q0-17-1-36t-1-35l3-3 7-1q4 0 13-2t13-3l4 2q-1 7-2 16t-2 20-1 21 0 21l65-3 2 2v20m158-29q30 0 53 10t38 28 24 40 9 46q0 23-8 45t-23 38-38 26-54 10q-31 0-55-10t-39-28-22-39-8-44q0-25 9-47t24-39 38-26 52-10m1 224q21 0 37-9t26-22 16-32 5-37q0-18-6-36t-16-34-27-24-37-9q-22 0-38 9t-26 23-15 32-5 36q0 18 5 36t17 33 27 24 37 10" />
</svg>