<svg id="fnt-Quattrocento Sans" viewBox="0 0 3999 1000" xmlns="http://www.w3.org/2000/svg"><path id="quattrocento-sans" class="f" d="M190 334q39 0 69 14t51 36 31 54 10 64q0 32-10 62t-29 53-48 38-67 17q17 2 34 8t34 13 34 12 37 5q20 0 42-9l-9 32q-10 5-19 6t-18 2q-21 0-41-7t-39-16-37-15-34-7q-12 0-29 5t-32 16l-7-24q13-10 28-15t30-6q-36-2-62-17t-45-37-26-51-9-61q0-36 11-67t31-55 51-36 68-14m-1 306q32 0 55-11t38-29 21-44 7-54q0-30-7-55t-22-42-38-28-55-10q-32 0-54 10t-36 28-21 42-6 55q0 68 30 103t88 35m224-203h35v152q0 15 4 26t10 16 15 9 19 3q13 0 25-4t23-11 18-18 13-26v-147h35v230h-28l-4-43h-2q-6 21-29 35t-56 14q-16 0-30-4t-25-14-17-24-6-38v-156m448 230h-27l-4-41h-2q-6 9-16 18t-23 15-26 10-28 4q-33 0-50-20t-16-48q0-28 14-45t36-26 44-11 41-2h22v-6q0-19-5-29t-15-17q-9-6-19-8t-25-2q-21 0-37 5t-31 15l-8-30q33-20 80-20 18 0 35 3t29 12q14 9 23 25t8 41v157m-116-24q21 0 44-13t37-37v-47h-4q-21 0-41 2t-38 7-27 17-10 31 10 30 29 10m202-22v-161h-38v-18l39-5 8-70h26v70h54v23h-54v160q0 16 5 21t15 5q11 0 20-4t16-8l7 26q-8 4-22 8t-30 4q-16 0-25-4t-14-12-6-17-1-18m157 0v-161h-39v-18l40-5 7-70h27v70h54v23h-54v160q0 16 4 21t15 5q12 0 21-4t16-8l7 26q-9 4-23 8t-30 4q-16 0-25-4t-13-12-6-17-1-18m280-180l-10 33q-8-5-16-8t-16-2q-10 0-19 5t-16 15-14 22-8 26v135h-35v-230h27l4 50h2q4-11 9-22t14-18 19-13 24-5q10 0 20 3t15 9m140-12q31 0 53 10t36 28 21 39 7 47-7 46-21 38-36 26-51 10q-30 0-53-10t-36-27-22-39-7-46 7-47 21-39 37-26 51-10m2 217q20 0 34-7t25-21 14-29 5-35q0-19-5-37t-15-31-25-21-36-8q-21 0-35 8t-24 20-14 29-5 35q0 19 5 37t14 31 25 21 37 8m366-197l-9 30q-11-9-33-16t-43-6q-22 0-37 7t-25 20-15 29-4 34q0 19 5 37t16 32 27 21 37 8q20 0 41-8t35-22l7 33q-14 9-38 17t-52 8q-29 0-51-10t-36-27-21-39-7-47q0-24 6-46t22-39 37-26 54-10q24 0 47 6t37 14m161-20q44 0 68 22t24 63q0 9-1 17t-3 13h-169v5q0 19 5 37t15 31 25 21 37 8q12 0 23-3t22-7 20-9 16-10l6 29q-7 4-16 8t-21 9-26 7-28 3q-28 0-50-10t-36-27-22-38-7-46q0-25 7-47t23-39 37-27 51-10m-1 28q-33 0-52 17t-24 44h136q1-3 1-5t0-4q0-13-5-23t-14-16-19-10-23-3m353 210h-35v-152q0-30-13-43t-35-13q-12 0-25 4t-22 11-19 19-12 26v148h-35v-230h27l4 43h2q7-21 29-36t56-15q16 0 30 4t25 14 17 25 6 38v157m87-46v-161h-39v-18l40-5 7-70h27v70h54v23h-54v160q0 16 4 21t15 5q12 0 21-4t16-8l7 26q-9 4-23 8t-30 4q-16 0-25-4t-13-12-6-17-1-18m247-192q30 0 52 10t36 28 21 39 7 47-7 46-20 38-36 26-51 10q-31 0-53-10t-37-27-21-39-7-46 7-47 21-39 36-26 52-10m1 217q20 0 35-7t24-21 15-29 4-35q0-19-5-37t-14-31-26-21-36-8q-20 0-35 8t-24 20-14 29-4 35q0 19 4 37t15 31 25 21 36 8m331-230q0 13 4 21t15 15 26 12 38 13q19 6 37 14t32 19 23 28 8 41q0 25-10 43t-26 29-38 17-45 5q-32 0-60-8t-49-20l11-36q9 6 19 12t20 10 25 6 31 3q23 0 39-4t26-12 14-17 5-21q0-17-8-29t-21-20-28-15-30-10q-22-7-39-15t-30-19-19-26-7-34q0-23 8-39t23-25 34-15 42-5q27 0 52 6t42 13l-10 39q-8-7-19-12t-23-8-23-4-21-1q-32 0-50 12t-18 37m419 251h-28l-4-41h-2q-6 9-16 18t-22 15-27 10-28 4q-33 0-49-20t-17-48q0-28 15-45t35-26 44-11 41-2h23v-6q0-19-6-29t-15-17q-8-6-18-8t-26-2q-21 0-37 5t-31 15l-8-30q34-20 80-20 19 0 35 3t29 12q15 9 23 25t9 41v157m-116-24q20 0 43-13t38-37v-47h-5q-20 0-41 2t-37 7-27 17-11 31 11 30 29 10m388 24h-35v-152q0-30-14-43t-34-13q-13 0-25 4t-23 11-18 19-13 26v148h-35v-230h28l4 43h2q6-21 29-36t56-15q16 0 30 4t25 14 16 25 7 38v157m143-210q-24 0-35 9t-10 24q0 5 1 10t6 10 11 9 20 7l35 8q21 5 34 12t20 17 9 18 2 18q0 15-6 29t-18 23-29 16-38 6q-26 0-49-8t-36-17l9-33q18 17 40 24t40 8q25 0 38-13t13-25q0-5-1-11t-4-11-10-12-20-8l-48-12q-17-4-27-10t-17-15-8-16-3-18q0-30 23-49t61-18q19 0 42 5t38 16l-10 30q-10-9-30-16t-43-7" />
</svg>