<svg id="fnt-Questrial" viewBox="0 0 1984 1000" xmlns="http://www.w3.org/2000/svg"><path id="questrial" class="f" d="M298 745q-24 0-47-9t-41-27-29-39q-48-1-85-24t-56-61-20-84q0-35 12-66t34-54 53-36 69-13 68 13 53 36 35 54 12 66q0 42-18 77t-48 59-71 31q5 9 15 19t26 19 39 7q18 0 32-6t28-16l20 27q-17 14-37 20t-44 7m-110-111q40 0 69-18t45-48 16-67q0-37-16-67t-45-48-69-18q-40 0-70 18t-45 48-16 67q0 37 16 67t45 48 70 18m317 37q-25 0-48-13t-38-36-14-60v-145h38v144q0 34 19 55t51 21q21 0 38-10t27-27 10-39v-144h38v250h-38v-39q-13 18-33 30t-50 13m297 0q-38 0-67-18t-44-46-16-65q0-36 15-66t43-46 66-17q39 0 66 17t43 46 15 66v15h-209q3 22 14 40t30 29 44 11q27 0 45-12t28-30h41q-13 33-42 54t-72 22m-88-149h170q-5-32-27-54t-58-21-58 21-27 54m346 149q-34 0-58-12t-36-30-14-41h39q1 13 8 24t23 19 39 8q7 0 18-2t21-5 18-12 7-21q0-15-12-24t-31-13-41-9-40-12-31-21-12-36q0-34 25-53t73-18q33 0 54 10t31 26 13 35h-38q-2-16-16-28t-45-11q-59 0-59 36 0 15 12 23t31 12 40 9 40 12 31 21 12 38q0 36-28 55t-74 20m215-4h-38v-217h-51v-33h51v-90h38v90h57v33h-57v217m136 0h-38v-250h38v61q2-6 7-17t17-22 28-19 40-7h2v37h-4q-28 0-49 15t-31 40-10 52v110m174-292h-41v-49h41v49m-2 292h-37v-250h37v250m171 4q-37 0-64-18t-42-46-15-65q0-36 15-66t42-46 64-17q31 0 53 12t36 32v-40h38v250h-38v-40q-14 20-36 32t-53 12m5-34q28 0 47-13t29-35 10-47q0-26-10-48t-29-34-47-13q-28 0-48 13t-30 34-11 48q0 25 11 47t30 35 48 13m224 30h-37v-350h37v350" />
</svg>