<svg id="fnt-Quicksand" viewBox="0 0 2399 1000" xmlns="http://www.w3.org/2000/svg"><path id="quicksand" class="f" d="M383 695q6 0 10 3t4 10q0 9-9 17t-23 14-30 11-30 4q-29 0-49-7t-35-15-31-15-37-6q-9 0-16 3t-12 5-12 3q-6 0-11-4t-4-11q0-9 9-13l86-31 46 2-80 27 7-7q21 0 37 6t32 14 32 14 39 7q20 0 32-6t21-10q8-5 13-10t11-5m-24-203q0 39-12 72t-35 57-53 37-67 14-68-14-53-37-35-57-12-72 12-73 35-57 53-37 68-13 67 13 53 37 35 57 12 73m-32 0q0-45-17-79t-48-52-70-19q-40 0-71 19t-48 52-17 79 17 78 48 53 71 19q40 0 70-19t48-53 17-78m291-79q7 0 11 4t4 11v141q0 49-28 75t-75 26q-47 0-75-26t-28-75v-141q0-6 4-11t11-4 11 4 4 11v141q0 36 19 54t54 19q34 0 54-19t19-54v-141q0-6 4-11t11-4m123 9v230q0 6-5 10t-10 5q-7 0-11-5t-4-10v-230q0-6 4-11t11-4 10 4 5 11m-15-49q-11 0-16-5t-5-13v-5q0-9 5-14t16-5q10 0 15 5t5 14v5q0 9-5 13t-15 5m205 32q24 0 44 5t32 15 13 19q0 5-4 10t-9 5-10-3-8-7-10-8q-7-3-19-5t-27-3q-28 0-51 14t-35 38-13 53q0 30 12 54t35 38 51 14q20 0 31-4t19-8q10-5 14-11t11-5q7 0 10 4t3 10q0 8-12 17t-32 17-47 8q-37 0-66-18t-44-48-15-68q0-36 16-66t44-49 67-18m165 262q-7 0-11-5t-4-10v-340q0-6 4-11t11-4 10 4 5 11v340q0 6-5 10t-10 5m170-257q5 0 10 5t4 10q0 7-5 12l-168 143-2-36 150-129q5-5 11-5m4 257q-7 0-11-6l-114-121 22-20 113 120q5 5 5 12 0 7-6 11t-9 4m58-41q-4-6-4-12t7-9q4-3 9-3t10 5q13 18 32 28t46 11q14 0 28-5t23-14 9-25q0-15-9-25t-24-15-30-9q-17-5-33-11t-28-14-20-21-7-31q0-21 11-37t31-25 45-9q13 0 27 3t29 11 25 21q4 4 4 10t-5 10q-4 3-9 3t-9-4q-12-13-28-20t-36-7q-14 0-27 4t-21 15-9 25q1 14 10 23t25 15 34 11q16 4 31 10t26 13 18 21 7 32q0 22-13 38t-32 24-46 9q-27 0-52-11t-45-35m463-215q6 0 10 5t5 11v225q0 6-5 10t-10 5q-7 0-11-5t-4-10v-60l8-4q0 14-8 29t-21 27-32 20-39 8q-34 0-61-18t-42-48-15-68q0-39 16-69t42-47 60-17q21 0 40 8t33 20 21 30 8 35l-10-8v-63q0-7 4-11t11-5m-104 233q26 0 47-14t32-38 12-54q0-30-12-53t-32-38-47-14q-26 0-47 14t-33 37-11 54q0 30 11 54t33 38 47 14m318-239q33 0 52 13t29 36 9 51v147q0 6-5 10t-10 5q-7 0-11-5t-4-10v-146q0-20-7-36t-21-27-39-10q-21 0-41 10t-31 27-12 36v146q0 6-4 10t-11 5q-7 0-11-5t-4-10v-224q0-6 4-11t11-4 11 4 4 11v42l-11 18q1-16 10-31t24-27 32-18 36-7m378-108q6 0 10 4t5 11v340q0 6-5 10t-10 5q-7 0-11-5t-4-10v-60l8-7q0 14-7 29t-22 29-32 21-39 8q-33 0-60-18t-42-47-16-69q0-38 16-68t42-48 60-17q20 0 39 8t32 20 23 30 8 35l-10-8v-178q0-6 4-11t11-4m-104 347q27 0 47-14t32-38 12-54q0-30-12-54t-32-37-47-14q-26 0-47 14t-33 37-11 54 11 54 33 38 47 14" />
</svg>