<svg id="fnt-Qwigley" viewBox="0 0 1064 1000" xmlns="http://www.w3.org/2000/svg"><path id="qwigley" class="f" d="M354 766q-41 0-93-31-8-5-28-20t-52-40q-36 18-70 18-35 0-58-23-23-22-23-59 0-54 48-98 49-45 107-45 22 0 24 9-5-3-19-3-24 0-61 26-19 12-35 27t-29 33q-27 34-27 59 0 54 65 54 26 0 58-12-49-35-82-35-19 0-30 9-1 0-1-1 0-7 13-12 14-6 23-6 31 0 87 40 51-23 87-67 35-44 35-86 0-33-22-51t-58-18q-51 0-112 32t-82 70q-3 0-3-4 0-5 15-22 35-39 82-63t94-25q38 0 72 30 33 29 33 67 0 36-35 80-35 44-86 71 31 22 54 37t39 23q33 15 63 15 31 0 31-23 0-25-37-48-8-5-19-10t-24-9q-14-4-20-6t-5-1q0-1 5-1 52 0 81 26 29 26 29 62 0 31-34 31m-45-96q-8 0-14-7t-5-16q0-32 63-108 4-5 6-7t5-1q3 0 3 3l-1 1q-5 8-13 23t-19 36q-9 19-14 33t-5 19q0 10 4 10 8 0 44-46 20-25 30-40t14-23q1-1 15-1 13 0 14 4-2 0-2 45 0 63 16 63 13 0 27-31 14-31 14-59 0-36-21-42 2-5 17-5 31 0 31 45 0 37-21 68t-49 31q-19 0-30-24t-10-61q0-14 2-21-22 34-38 57t-25 33q-18 21-38 21m285-178q-11 0-18-6 9-6 20-17t22-25q1 0 1 3l-2 14q-3 16-9 23t-14 8m-48 182q-19 0-19-27 0-42 30-110 0-2 2-7t5-7q3-4 9-4 18 0 19 7-8 13-15 30t-14 38q-8 22-11 36t-3 23q0 12 6 12 5 0 12-5 5-5 7-7t5-3q2 0 2 2 0 5-15 14t-20 8m-81 221q-35 0-58-19t-23-54q0-34 38-69 38-33 96-54 55-20 111-20 25 0 43 5 2-6 2-11 0-17-4-24-19 18-35 18t-28-16q-12-16-12-33 0-35 38-72 0-29 6-39 7-10 24-10 18 0 38 33 36 7 36 27 0 8-6 12t-6 0q5-4 5-8 0-15-24-15 1 2 1 4t0 6q0 48-29 85 7 14 7 37 0 3 0 5t0 5q20 8 34 22 14 13 14 25 0 13-6 13-2 0-3-3 4-6 4-11 0-10-13-21t-30-15q-6 50-38 97-33 46-81 73-49 27-101 27m177-357v1q16-11 31-11h4q-6-17-21-17-14 0-14 27m30 91q18-27 18-58 0-14-4-25-9 3-25 12-15 8-15 11t26 60m-38 32q18 0 33-25l-26-62q-10 11-19 29t-8 32q0 26 20 26m-178 213q36 0 69-13t66-42q62-55 79-124-6-1-14-2t-19-1q-47 0-93 12-46 13-79 32t-52 41q-10 11-15 23t-5 23q0 21 16 36t47 15m300-203q-24 0-24-40 0-25 16-84 16-59 41-108 25-51 44-51 11 0 22 7t11 16q0 36-106 160-4 19-7 35t-2 30q0 27 12 27l8-2q3 0 3 2 0 8-18 8m7-113q91-118 91-148 0-6-4-6-15 0-43 53t-44 101m71 114q-43 0-43-39 0-31 30-74 31-44 59-44 12 0 21 8t10 19q0 18-24 37-23 19-45 19-5 0-5-2l2-3q57-18 57-59 0-6-4-6-5 0-20 12-12 10-23 23t-19 27q-18 30-18 51 0 20 15 20 18 0 40-19 7-6 15-15t17-18q19-20 20-20 3 0 3 2t-1 5q-53 76-87 76m18 218q-33 0-33-33 0-39 56-102 59-67 129-106 0 0 0 0 0 3-5 9-169 140-169 203 0 24 19 24 33 0 78-63 24-33 44-69t35-74q16-40 24-70t9-55q0-18-6-24-67 69-93 117-8 21-15 21-15 0-15-9 0-3 5-18t15-41l14-39q7-20 7-40v-2q0-6-1-6-1-1-7-1t-5-3q0-4 8-4 32 0 32 24 0 11-30 85 17-24 51-60 34-36 42-36 0 4-4 8 22 2 24 10 1 7 1 12t1 10q0 48-33 127-37 86-89 145t-89 60" />
</svg>