<svg id="fnt-Racing Sans One" viewBox="0 0 3781 1000" xmlns="http://www.w3.org/2000/svg"><path id="racing-sans-one" class="f" d="M312 425q0 29-17 54t-54 38l58 150h-112l-44-139h-5l-30 139h-108l68-318h131q23 0 44 3t35 11 25 23 9 39m-168 71h24q13 0 22-9t15-21 8-27 3-24q0-13-5-23t-19-9h-23l-25 113m199 19l10-45q25-12 52-18t60-6q32 0 53 5t33 15 18 22 5 30q0 9-2 20t-2 19l-24 110h-80l-9-32h-3q-16 17-38 26t-42 10q-12 0-23-4t-21-11-14-18-6-27q0-26 14-42t38-23 52-9 59-2q1-5 3-15t1-16q0-9-5-17t-19-7q-18 0-26 10t-11 25h-73m117 82l8-39h-9q-15 0-25 4t-17 10-9 13-3 15q0 12 6 18t15 6q11 0 21-7t13-20m369-13l-14 71q-21 8-45 12t-52 4q-26 0-48-6t-38-16-25-30-9-44q0-27 9-51t28-40 48-28 69-10q33 0 57 5t39 24l-14 64h-68q1-8 1-15t1-14q0-16-4-23t-11-7q-14 0-25 14t-17 33-10 40-3 37q0 5 0 11t2 11 5 8 9 3q5 0 11-3t13-10 11-16 9-24h71m167-132l-46 215h-102l46-215h102m13-66q0 12-5 20t-12 15-18 9-20 3q-20 0-34-10t-13-30q0-11 4-20t12-14 18-9 22-3q19 0 33 10t13 29m122 98h3q10-10 23-19 12-7 27-13t35-6q26 0 43 13t17 37q0 6-2 15t-3 20-5 20-3 18l-21 98h-102l28-131q1-6 2-13t2-12q0-8-4-13t-11-4q-9 0-18 6t-12 11l-33 156h-102l45-215h82l9 32m343 0l23-32h81l-41 194q-5 23-15 42t-30 33-47 22-68 8q-8 0-18-1t-22 0-21-1-16-1l10-36q16 3 32 3t29 0q15 0 25-3t17-8 11-16 7-25l6-32h-3q-3 4-9 10t-15 12-21 10-28 4q-17 0-30-6t-19-14-11-22-4-28q0-6 1-20t5-30 11-35 19-32 31-24 44-10q8 0 18 2t18 5 16 12 11 19h3m-33 11q-12 0-20 13t-13 30-8 33-2 25q0 10 3 17t12 7q5 0 10-3t9-6 7-6 5-6l19-87q-4-6-10-11t-12-6m516-54h-83q2-7 2-20 0-8-1-15t-4-13-7-9-13-3q-9 0-17 4t-13 10-9 14-3 18q0 13 6 20t18 11 25 8 29 7q13 3 25 9t22 14 16 24 6 37q0 32-12 53t-35 35-52 20-66 6q-36 0-59-5t-35-10q-16-7-23-15l17-69h88q-1 5-1 12t-1 13q0 6 2 12t4 12 10 9 15 4q10 0 17-5t13-11 8-15 3-16q0-11-5-19t-14-13-21-9-24-7q-12-4-26-9t-24-14-18-23-7-35q0-32 16-54t41-35 54-19 56-6q35 0 60 8t39 20l-19 69m40 74l10-45q25-12 52-18t60-6q32 0 53 5t33 15 18 22 5 30q0 9-2 20t-2 19l-24 110h-80l-9-32h-3q-16 17-38 26t-42 10q-12 0-23-4t-21-11-14-18-6-27q0-26 14-42t38-23 52-9 59-2q1-5 3-15t1-16q0-9-5-17t-19-7q-18 0-26 10t-11 25h-73m117 82l8-39h-9q-15 0-25 4t-17 10-9 13-3 15q0 12 6 18t15 6q11 0 21-7t13-20m264-113h3q10-10 23-19 12-7 27-13t35-6q26 0 43 13t17 37q0 6-2 15t-3 20-5 20-3 18l-21 98h-102l28-131q1-6 2-13t2-12q0-8-4-13t-11-4q-9 0-18 6t-12 11l-33 156h-102l45-215h82l9 32m380 31h-65q1-3 1-5t1-6q0-9-4-17t-12-7q-9 0-17 7t-9 19q0 8 4 13t12 8 15 5 18 4q12 3 22 7t20 11 13 17 5 26q0 21-10 35t-27 23-40 12-50 4q-40 0-67-6t-37-12l11-50h67q0 3 0 5t0 5q0 11 5 18t18 7q15 0 21-9t6-15-5-12-13-9-18-7-19-5q-6-1-15-5t-15-10-13-17-5-25q0-22 11-37t28-24 39-13 44-4q27 0 52 5t40 13l-12 51m326-171q43 0 70 11t42 34q10 16 16 35t5 45q0 22-4 44t-11 42-18 38-22 32q-24 25-55 35t-75 11q-44 0-70-9t-42-29q-11-14-18-36t-6-54q0-55 20-99t56-69q22-16 49-23t63-8m-56 292q11 0 21-11t19-27 16-39 13-46 7-47 3-42q0-26-5-36t-15-9q-12 0-22 10t-20 26-17 39-12 45-8 45-3 42q0 28 6 39t17 11m324-152h3q11-10 24-19 11-7 27-13t34-6q26 0 43 13t17 37q0 6-1 15t-4 20-4 20-4 18l-21 98h-101l27-131q1-6 3-13t1-12q0-8-4-13t-11-4q-9 0-17 6t-13 11l-33 156h-102l46-215h81l9 32m412 82h-141q-2 11-3 21t0 18q0 5 0 10t2 10 5 8 10 4q4 0 10-3t11-9 11-13 9-18h82l-13 53q-10 7-23 11t-28 7-29 4-29 2q-25 0-46-5t-38-15-25-30-9-45q0-24 7-48t26-42 49-29 77-11q50 0 75 16t26 48q0 14-4 29t-12 27m-74-59q0-16-5-21t-12-6q-8 0-15 5t-12 14-10 20-8 24h57q1-6 2-12 1-6 2-12t1-12" />
</svg>