<svg id="fnt-Radio Canada" viewBox="0 0 3134 1000" xmlns="http://www.w3.org/2000/svg"><path id="radio-canada" class="f" d="M98 667h-48v-345h117q34 0 61 12t44 36 17 59q0 41-23 67t-57 35l89 136h-57l-81-130h-62v130m0-302v130h66q32 0 54-17t21-49q0-31-21-48t-54-16h-66m257 236q0-23 12-42t40-31 74-14l27-1v-3q0-33-15-48t-43-14q-20 0-37 6t-34 16l-16-39q17-11 43-19t48-8q29 0 51 11t36 33 13 56v102q0 10 1 19t3 20l4 22h-43l-8-37q-15 18-37 30t-48 12q-18 0-35-9t-26-24-10-38m47-4q0 15 9 24t25 9q19 0 37-9t35-25v-50l-25 2q-33 3-50 11t-24 17-7 21m222-57q0-42 13-73t37-47 56-16q19 0 38 9t31 28v-132l46-10v307q0 10 0 19t3 20l4 22h-43l-7-37q-17 18-38 30t-44 12q-26 0-48-16t-35-45-13-71m47-1q0 29 8 49t22 31 32 10 34-9 32-24v-71q0-29-9-47t-23-27-29-8q-31 0-49 26t-18 70m310 128h-46v-258h46v258m-54-334q0-13 9-22t22-9q14 0 22 9t8 22q0 13-8 22t-22 9q-13 0-22-9t-9-22m126 205q0-43 15-73t41-45 60-16 59 16 41 45 15 73q0 43-15 73t-41 45-59 16-60-16-41-45-15-73m47 0q0 30 8 51t24 31 37 11 36-11 24-31 8-51-8-51-24-31-36-11-37 11-24 31-8 51m367-44q0-43 12-76t34-55 50-35 60-11q30 0 57 12t50 34l-34 32q-16-16-34-24t-39-9q-30 0-55 15t-38 45-14 72 14 73 38 44 55 15q24 0 43-8t35-26l33 33q-23 23-51 35t-60 12q-32 0-60-12t-50-34-34-56-12-76m322 107q0-23 12-42t39-31 74-14l28-1v-3q0-33-16-48t-43-14q-20 0-37 6t-34 16l-16-39q18-11 43-19t49-8q28 0 51 11t35 33 14 56v102q0 10 0 19t3 20l4 22h-43l-7-37q-15 18-38 30t-47 12q-19 0-35-9t-26-24-10-38m47-4q0 15 9 24t25 9q19 0 37-9t35-25v-50l-26 2q-32 3-50 11t-24 17-6 21m236-166l-4-22h43l7 37q17-19 38-30t44-12q26 0 46 12t32 34 12 59v158h-46v-152q0-24-8-39t-19-21-29-7q-17 0-34 8t-33 24v187h-46v-197q0-10-1-19t-2-20m290 170q0-23 12-42t40-31 74-14l27-1v-3q0-33-15-48t-43-14q-20 0-37 6t-34 16l-16-39q17-11 43-19t48-8q29 0 51 11t36 33 13 56v102q0 10 1 19t3 20l4 22h-43l-8-37q-15 18-37 30t-48 12q-18 0-35-9t-26-24-10-38m47-4q0 15 9 24t25 9q19 0 37-9t35-25v-50l-25 2q-33 3-50 11t-24 17-7 21m222-57q0-42 13-73t37-47 56-16q19 0 38 9t31 28v-132l46-10v307q0 10 0 19t3 20l4 22h-43l-7-37q-17 18-38 30t-44 12q-26 0-48-16t-35-45-13-71m47-1q0 29 8 49t22 31 32 10 34-9 32-24v-71q0-29-9-47t-23-27-29-8q-31 0-49 26t-18 70m249 62q0-23 12-42t39-31 74-14l28-1v-3q0-33-16-48t-43-14q-20 0-37 6t-34 16l-16-39q18-11 43-19t49-8q28 0 51 11t35 33 14 56v102q0 10 0 19t3 20l4 22h-43l-7-37q-15 18-38 30t-47 12q-19 0-35-9t-26-24-10-38m47-4q0 15 9 24t25 9q19 0 37-9t35-25v-50l-26 2q-32 3-50 11t-24 17-6 21" />
</svg>