<svg id="fnt-Rajdhani" viewBox="0 0 1699 1000" xmlns="http://www.w3.org/2000/svg"><path id="rajdhani" class="f" d="M62 667h-14q-5 0-5-6v-310q0-6 5-6h114q32 0 51 19t19 52v48q0 28-14 46t-39 23v2l60 126q3 6-4 6h-15q-7 0-9-6l-59-126h-79q-5 0-5 4v122q0 6-6 6m11-154h86q23 0 36-13t12-36v-47q0-23-12-36t-36-13h-86q-5 0-5 4v137q0 4 5 4m329 154h-32q-33 0-52-19t-18-52v-113q0-33 18-52t52-19h106q5 0 5 6v243q0 6-5 6h-15q-5 0-5-6v-20h-2q-13 26-52 26m54-72v-156q0-5-5-5h-79q-23 0-35 13t-12 37v111q0 23 12 36t35 13h32q24 0 38-13t14-36m102-225v-48q0-6 5-6h15q5 0 5 6v48q0 6-5 6h-15q-5 0-5-6m-45 367h-15q-6 0-6-6v-12q0-5 6-5h11q49 0 49-51v-245q0-6 5-6h15q5 0 5 6v248q0 33-19 52t-51 19m245-70h-33q-32 0-51-19t-18-52v-113q0-33 18-52t51-19h33q39 0 53 26h2v-117q0-6 5-6h14q6 0 6 6v340q0 6-6 6h-14q-5 0-5-6v-20h-2q-14 26-53 26m55-72v-112q0-23-14-36t-38-13h-33q-23 0-35 13t-12 37v111q0 23 12 36t35 13h33q24 0 38-13t14-36m119 72h-14q-5 0-5-6v-340q0-6 5-6h14q6 0 6 6v117h2q14-26 52-26h33q32 0 50 19t19 52v178q0 6-5 6h-15q-5 0-5-6v-177q0-24-12-37t-35-13h-33q-24 0-38 13t-13 36v178q0 6-6 6m331 0h-32q-32 0-51-19t-19-52v-113q0-33 19-52t51-19h106q5 0 5 6v243q0 6-5 6h-14q-6 0-6-6v-20h-2q-13 26-52 26m54-72v-156q0-5-5-5h-79q-23 0-35 13t-12 37v111q0 23 12 36t35 13h33q24 0 37-13t14-36m120 72h-15q-5 0-5-6v-243q0-6 5-6h15q5 0 5 6v20h2q14-26 52-26h33q32 0 51 19t18 52v178q0 6-5 6h-14q-6 0-6-6v-177q0-24-12-37t-35-13h-32q-24 0-38 13t-14 36v178q0 6-5 6m236-297v-48q0-6 5-6h15q5 0 5 6v48q0 6-5 6h-15q-5 0-5-6m0 291v-243q0-6 5-6h15q5 0 5 6v243q0 6-5 6h-15q-5 0-5-6" />
</svg>