<svg id="fnt-Rakkas" viewBox="0 0 1471 1000" xmlns="http://www.w3.org/2000/svg"><path id="rakkas" class="f" d="M321 649l24 0v18h-120l-68-134 1-1q-11 1-32 2v115l24 0v18h-132v-18l25 0v-299l-25-1v-17l97 1 74-6q36 0 62 13t39 35 13 50q0 31-18 54t-54 37l90 133m-195-300v165q41-2 65-23t23-54q0-25-11-45t-32-31-45-12m421 277l6 15-74 34q-13-9-18-26-18 11-37 18t-31 7q-21 0-34-14t-13-37q0-10 2-22t6-19l106-17 1-14q1-23-9-36t-34-12q-11 0-22 2t-20 6l-8 17-13-5 23-72q38-17 73-17 35 0 58 19t22 59l0 10-5 67-1 18q0 9 1 14t5 11l16-6m-108 12q8 0 19-6l-1-10 1-11 1-29-38 9q-2 7-2 18 0 15 6 22t14 7m368-21l6 15-70 41q-32-26-52-79l-5-16-33 14 0 59 18 1v15h-107v-15l18-1-2-300-19 4-5-14 92-28 7 12-1 187 66-79q35 10 52 35t17 66l-46 20 3 6q8 19 22 37t26 27l13-7m-153-81l-1 38 68-32q0-11-9-24t-19-16l-39 34m412 81l6 15-70 41q-32-26-52-79l-5-16-33 14 0 59 18 1v15h-107v-15l18-1-2-300-19 4-5-14 92-28 7 12-1 187 66-79q35 10 52 35t17 66l-46 20 3 6q8 19 22 37t26 27l13-7m-153-81l-1 38 68-32q0-11-9-24t-19-16l-39 34m366 90l6 15-74 34q-13-9-18-26-18 11-37 18t-31 7q-21 0-34-14t-13-37q0-10 2-22t6-19l106-17 1-14q1-23-9-36t-34-12q-11 0-22 2t-20 6l-8 17-13-5 23-72q38-17 73-17 35 0 58 19t22 59l0 10-5 67-1 18q0 9 1 14t5 11l16-6m-108 12q8 0 19-6l-1-10 1-11 1-29-38 9q-2 7-2 18 0 15 6 22t14 7m199-159q0 14 10 25t33 26q27 18 41 33t14 37q0 20-11 37t-33 27-48 10q-26 0-49-12t-34-32l43-35q20 38 41 62 8-7 14-16t6-17q0-14-11-24t-31-25q-18-11-28-20t-18-20-7-27q0-19 12-36t34-27 50-11q22 0 41 9t31 24l-39 38q-24-30-53-54-8 11-8 28m-16 188h-1 1" />
</svg>