<svg id="fnt-Raleway" viewBox="0 0 1970 1000" xmlns="http://www.w3.org/2000/svg"><path id="raleway" class="f" d="M80 667h-35v-355h150q23 0 42 9t33 26 22 36 8 40q0 26-10 48t-28 38-41 21l87 137h-40l-83-131h-105v131m0-324v162h116q21 0 36-12t24-30 9-40q0-21-10-40t-26-29-36-11h-113m263 249q0-25 14-43t39-27 57-10q19 0 40 3t36 9v-22q0-33-19-52t-54-20q-21 0-42 8t-42 23l-13-24q26-18 50-27t50-8q48 0 76 27t28 76v121q0 7 3 10t10 4v27q-6 0-10 1t-6 0q-12-1-19-8t-7-16l0-19q-18 22-46 34t-57 13q-25 0-45-11t-32-29-11-40m175 20q5-7 8-14t3-11v-38q-17-7-35-10t-37-4q-36 0-59 15t-22 39q0 15 7 27t22 21 34 9q25 0 46-10t33-24m120 7v-317h34v306q0 19 7 25t17 6q9 0 18-2t16-4l6 28q-10 4-24 6t-23 3q-23 0-37-14t-14-37m247 53q-28 0-52-11t-41-30-28-43-9-52q0-37 16-67t47-49 67-18q38 0 67 18t45 49 17 66q0 4 0 8t-1 6h-223q3 28 16 49t34 35 47 13q25 0 48-13t32-34l29 8q-8 18-24 33t-39 23-48 9m-96-148h193q-2-28-16-50t-34-34-47-12-46 12-35 34-15 50m511 108l94-226h34l-112 261h-30l-54-130-54 130h-30l-112-261h33l95 226 48-118-44-107h31l33 84 33-84h30l-43 107 48 118m152-40q0-25 14-43t38-27 58-10q19 0 39 3t37 9v-22q0-33-20-52t-54-20q-21 0-41 8t-42 23l-13-24q25-18 50-27t50-8q48 0 76 27t28 76v121q0 7 3 10t9 4v27q-5 0-9 1t-6 0q-13-1-19-8t-7-16l-1-19q-17 22-45 34t-57 13q-25 0-46-11t-31-29-11-40m174 20q6-7 9-14t3-11v-38q-17-7-36-10t-36-4q-37 0-59 15t-23 39q0 15 8 27t22 21 34 9q24 0 45-10t33-24m134 165v-30q7 0 14 0t9 0q6-1 12-7t13-23 21-50l-114-261h36l96 226 88-226h34l-135 336q-4 10-11 18t-17 13-25 5q-5 1-10 0t-11-1" />
</svg>