<svg id="fnt-Ramaraja" viewBox="0 0 1817 1000" xmlns="http://www.w3.org/2000/svg"><path id="ramaraja" class="f" d="M48 377h31l68-1q67 0 89 45 7 16 7 32t-6 29-16 22q-18 19-38 23l64 82q20 26 48 37 14 6 25 6 2 3 1 9t-1 8q-19 1-51 1t-48-11-26-22l-71-95q-1-1-4-4t-4-3h-7v68q0 14 1 24t2 15 6 6 7 3q8 1 16 1 2 3 2 9t-2 8q-62-6-125 0-1-2-1-8t1-9q14 0 21-3t8-5q3-8 3-41v-162q0-32-3-42-5-6-29-6-1-3-1-9t1-8q15 1 32 1m123 40q-12-23-37-23-8 0-14 1t-8 4q-3 6-3 27v92h21q19 0 34-16t14-44-7-41m254 222q9 0 14-3t5-6v-61q-7 3-15 6t-16 8q-14 10-14 27 0 17 9 23t17 6m94-4l5-2q3 2 3 6t-2 8q-4 4-14 10-18 12-30 12t-21-7-13-15q-10 10-27 16t-26 7-20-5-18-12q-17-16-17-33t7-26 15-12 18-7 22-8q16-6 43-16v-21q0-17-7-30t-20-14-17 11-7 22q-5 23-26 23-8 0-15-6t-7-12q0-9 6-21 7-8 24-16 34-18 61-18t46 19q19 19 19 49v82q0 9 3 13t8 5 7-2m82 30q-27 0-60 4-2-2-2-8t2-9q14 0 20-3t8-5q4-8 4-41v-58q0-5-2-16t-2-13q-5-9-28-9-2 0-1-7t1-6q26-2 50-10t36-13q2 0 5 3 3 3 2 4-3 11-3 19t0 8 1 0 2-2q9-10 23-18 23-14 41-14t31 8 20 29q2 0 5-4t12-9 18-12q24-12 40-12t28 6 18 19q11 23 11 78v29q0 14 1 24t2 15 6 6 8 3q7 1 15 1 2 3 2 9t-2 8q-33-4-57-4t-58 4q-1-2-1-8t1-9q4 0 13-2t10-6q3-7 3-17t1-24v-35q0-42-16-57-6-5-13-5t-15 3-14 6q-14 8-14 15v3q2 19 2 41v29q0 33 2 38t6 7 8 3q7 1 15 1 1 3 1 9t-1 8q-33-4-59-4-23 0-56 4-2-2-2-8t2-9q4 0 13-2t11-7q3-8 3-40v-35q0-62-29-62-13 0-22 6-17 12-17 19v72q0 33 2 38t5 7 8 3q6 1 14 1 1 3 1 9t-1 8q-34-4-58-4m400-26q9 0 14-3t5-6v-61q-7 3-15 6t-16 8q-14 10-14 27 0 17 9 23t17 6m94-4l5-2q3 2 3 6t-2 8q-4 4-14 10-18 12-30 12t-21-7-13-15q-10 10-27 16t-26 7-20-5-18-12q-17-16-17-33t7-26 15-12 18-7 22-8q16-6 43-16v-21q0-17-7-30t-20-14-17 11-7 22q-5 23-26 23-8 0-15-6t-7-12q0-9 6-21 7-8 24-16 34-18 61-18t46 19q19 19 19 49v82q0 9 3 13t8 5 7-2m82 30q-27 0-60 4-2-2-2-8t2-9q14 0 20-3t8-5q4-8 4-41v-58q0-5-2-16t-2-13q-5-9-28-9-2 0-1-7t1-6q26-2 50-10t36-13q2 0 5 3 3 3 2 4t-1 6q0 5-1 10t-1 11-1 7 1 2 2 0q12-20 20-28 17-16 35-16 20 0 27 7 6 8 6 18 0 10-2 16t-6 12q-8 11-19 11-6 0-10-4t-8-7-8-7-9-3-12 5-9 10q-8 12-8 21v54q0 33 2 38t5 7 8 3q6 1 14 1 1 3 1 9t-1 8q-34-4-58-4m222-26q9 0 14-3t5-6v-61q-7 3-15 6t-16 8q-14 10-14 27 0 17 9 23t17 6m94-4l5-2q3 2 3 6t-2 8q-4 4-14 10-18 12-30 12t-21-7-13-15q-10 10-27 16t-26 7-20-5-18-12q-17-16-17-33t7-26 15-12 18-7 22-8q16-6 43-16v-21q0-17-7-30t-20-14-17 11-7 22q-5 23-26 23-8 0-15-6t-7-12q0-9 6-21 7-8 24-16 34-18 61-18t46 19q19 19 19 49v82q0 9 3 13t8 5 7-2m9 128q-7-4-7-7 0-3 1-4t8-5 15-18q21-34 21-90v-94q0-5-1-16t-3-13q-3-7-23-8-4-1-5-1-1 0-1-7t2-6q25-2 49-10t37-13q2 0 5 3 2 3 2 4-1 3-3 11t-1 15-1 15v95q0 68-21 97-15 21-39 37-22 15-35 15m63-335q-13 0-23-9t-9-23 9-23 23-10 23 10 10 23-10 23-23 9m148 211q9 0 14-3t5-6v-61q-7 3-15 6t-16 8q-14 10-14 27 0 17 9 23t17 6m94-4l5-2q3 2 3 6t-2 8q-4 4-14 10-18 12-30 12t-21-7-13-15q-10 10-27 16t-26 7-20-5-18-12q-17-16-17-33t7-26 15-12 18-7 22-8q16-6 43-16v-21q0-17-7-30t-20-14-17 11-7 22q-5 23-26 23-8 0-15-6t-7-12q0-9 6-21 7-8 24-16 34-18 61-18t46 19q19 19 19 49v82q0 9 3 13t8 5 7-2" />
</svg>