<svg id="fnt-Ramabhadra" viewBox="0 0 3030 1000" xmlns="http://www.w3.org/2000/svg"><path id="ramabhadra" class="f" d="M351 667h-81l-80-131h-85v131h-71v-344h171q62 0 95 26t34 76q0 36-21 62t-55 35l93 145m-90-239q0-49-63-49h-93v101h95q30 0 46-14t15-38m196 243q-39 0-60-20t-22-59q0-41 27-62t78-22l57-2v-13q0-26-9-38t-30-13q-19 0-28 9t-11 28l-72-3q7-39 36-59t78-20 77 25 27 71v95q0 23 5 31t17 8q8 0 15-1v37q-6 1-11 3t-10 2-10 1-13 1q-26 0-38-13t-15-37h-1q-30 51-87 51m80-113v-14l-36 1q-24 1-34 5t-15 13-5 24q0 18 9 28t23 9q16 0 29-9t21-25 8-32m360 109h-68v-149q0-69-40-69-20 0-34 21t-13 55v142h-69v-205q0-21 0-35t-1-25h65q0 5 2 25t1 28h1q13-30 32-44t45-14q61 0 74 58h1q13-31 32-44t48-14q38 0 59 27t20 75v168h-68v-149q0-69-40-69-20 0-33 19t-14 54v145m282 4q-39 0-60-20t-21-59q0-41 26-62t78-22l57-2v-13q0-26-9-38t-30-13q-19 0-28 9t-11 28l-71-3q6-39 35-59t78-20 78 25 27 71v95q0 23 5 31t16 8q8 0 15-1v37q-6 1-10 3t-10 2-11 1-13 1q-25 0-38-13t-15-37h-1q-29 51-87 51m80-113v-14l-36 1q-24 1-34 5t-15 13-5 24q0 18 9 28t23 9q16 0 30-9t21-25 7-32m387-24q0 65-26 101t-75 36q-29 0-49-12t-32-35h0q0 8-1 23t-3 20h-66q2-23 2-61v-301h68v100l-1 44h1q24-51 85-52 47 0 72 36t25 101m-72 0q0-46-13-67t-41-22q-27 0-42 23t-15 68q0 42 15 65t42 23q54 0 54-90m193-79h1q14-30 35-44t50-14q42 0 65 26t22 76v168h-68v-149q0-69-47-69-25 0-40 22t-16 54v142h-68v-362h68v98q0 27-2 52m299 216q-38 0-60-20t-21-59q0-41 27-62t77-22l57-2v-13q0-26-9-38t-29-13q-19 0-28 9t-11 28l-72-3q7-39 35-59t79-20 77 25 27 71v95q0 23 5 31t17 8q8 0 15-1v37q-6 1-11 3t-10 2-11 1-12 1q-26 0-38-13t-15-37h-1q-30 51-88 51m80-113v-14l-35 1q-24 1-34 5t-15 13-5 24q0 18 8 28t24 9q16 0 29-9t21-25 7-32m374 109h-66q-1-4-2-19t-1-24h-2q-22 47-84 47-46 0-71-35t-25-101q0-66 26-102t75-36q29 0 49 12t31 35h1l-1-43v-96h69v304q0 25 1 58m-69-134q0-43-14-66t-42-23-41 23-14 68q0 89 54 89 27 0 42-23t15-68m206 134h-69v-203q0-21-1-36t-1-26h65q1 4 2 27t2 30h0q11-28 18-39t19-17 27-6q13 0 21 4v57q-17-3-29-3-26 0-40 20t-14 62v130m186 4q-38 0-60-20t-21-59q0-41 27-62t77-22l57-2v-13q0-26-9-38t-29-13q-19 0-28 9t-11 28l-72-3q7-39 35-59t79-20 77 25 27 71v95q0 23 5 31t17 8q8 0 15-1v37q-6 1-11 3t-10 2-10 1-13 1q-26 0-38-13t-15-37h-1q-30 51-88 51m80-113v-14l-35 1q-24 1-34 5t-15 13-5 24q0 18 8 28t24 9q16 0 29-9t21-25 7-32" />
</svg>