<svg id="fnt-Rambla" viewBox="0 0 1562 1000" xmlns="http://www.w3.org/2000/svg"><path id="rambla" class="f" d="M248 432q0 55-32 80-17 13-38 18l92 121-36 24-103-138q-8 0-25 0h-18v130h-48v-334h79q38 0 61 6t39 22q29 25 29 71m-70 53q22-16 22-49t-17-50q-18-17-68-17h-27v128h19q55 0 71-12m193 188q-33 0-52-19t-19-51q0-21 9-35t23-22q26-12 55-12t53 2v-39q0-29-10-40t-37-10-66 13l-10-31q14-9 38-15t41-5q49 0 69 21t20 70v122q0 17 12 17 8 0 22-4l7 28q-17 11-44 11t-39-26q-11 11-31 18t-41 7m9-35q32 0 60-18v-58q-12-2-39-2-59 0-59 39 0 39 38 39m371-143v172h-45v-171q0-23-6-36t-25-13-38 9-32 24v187h-45v-253h38l5 30q14-13 36-24t45-11q45 0 59 37 15-14 39-26t45-11q67 0 67 84v174h-45v-171q0-24-6-37t-23-12-37 9-33 22q1 6 1 17m315-48q-31 0-61 21v159q19 8 47 8 63 0 63-98 0-90-49-90m-106-130h45v115q9-7 29-15t39-8q38 0 64 31t25 88q0 145-110 145-53 0-92-24v-332m259 299v-299h46v299q0 19 18 19 14 0 29-5l8 33q-21 10-51 10-50 0-50-57m187 57q-33 0-52-19t-19-51q0-21 9-35t23-22q26-12 55-12t53 2v-39q0-29-10-40t-37-10-66 13l-10-31q14-9 38-15t41-5q49 0 69 21t20 70v122q0 17 12 17 8 0 22-4l7 28q-17 11-44 11t-39-26q-11 11-31 18t-41 7m9-35q32 0 60-18v-58q-12-2-39-2-59 0-59 39 0 39 38 39" />
</svg>