<svg id="fnt-Rampart One" viewBox="0 0 3360 1000" xmlns="http://www.w3.org/2000/svg"><path id="rampart-one" class="f" d="M254 687l-50-25-36-64v91l-86 7-50-25v-380l126-11q4 0 7 0t8 0q29 0 56 9t48 26 34 42 13 57q0 79-58 114l84 151-96 8m38-38l-83-148q31-17 45-45t15-67q0-47-26-76t-72-28q-3 0-6 0t-7 0l-121 11v370l76-6v-132l22-2 71 131 86-8m-179-190v-98l33-3h6q16 0 27 10t12 34q0 25-12 38t-33 16l-33 3m55-68v53q18-13 18-42 0-4-1-7t0-6l-17 2m475 211l-8 74q-16 6-33 6-15 0-28-4t-20-8q-22 26-65 30-4 1-8 1t-8 0q-31 0-57-11t-42-33-15-53q0-35 19-55t58-39l-26-9-50-25q13-43 41-65t64-26q5 0 9-1t9 0q36 0 65 13t47 38 18 57v95l30 15m-63 46l7-63q-12 6-18 6-11 0-11-15v-109q0-77-78-77-3 0-7 0t-7 0q-35 4-62 24t-38 60l56 18q6-17 15-27t23-12q1 0 3 0t2 0q12 0 18 5t6 15q0 11-7 17t-18 12l-22 10q-39 18-59 38t-19 54q0 67 63 67 3 0 6 0t6-1q24-2 41-11t27-27q3 10 15 16t27 6q16 0 31-6m-124-36h-3q-9 0-14-5t-6-13q0-22 22-32l10-5q7-4 14-7t10-7v34q-2 16-12 25t-21 10m522 77l-47-25v24l-80 7-48-25v24l-81 7-50-25v-274l76-7 14 12q8-7 19-13t24-6q2 0 3 0t4 0q21 0 38 9t28 22q7-13 21-25t34-12q2 0 5-1t6 0q30 0 57 12t42 33 17 53v203l-82 7m27-36v-199q0-35-18-51t-45-17q-2 0-4 0t-5 1q-16 1-28 10t-20 20-10 25l-2-1q-4-18-19-33t-41-15q-2 0-4 0t-4 0q-24 2-40 19t-20 39l-2 0v-50l-66 5v265l71-6v-163q3-13 10-23t22-11h3q11 0 17 7t6 24v166l70-6v-164q3-12 10-22t21-11h4q11 0 16 7t6 24v166l72-6m152 134l-50-25v-361l76-7 12 6q8-6 19-11t24-6q3 0 6 0t6 0q27 0 52 10t45 30 33 50 12 71q0 71-28 109t-76 43q-2 0-5 0t-4 0q-14 0-25-3t-16-5v92l-81 7m26-142l2 0q4 9 15 15t29 7q2 0 4 0t4-1q48-4 74-41t26-106q0-66-24-99t-66-32q-2 0-4 0t-5 0q-23 2-38 14t-20 28h-2v-30l-66 5v352l71-6v-106m38-45h-4q-13 0-22-7t-12-17v-69q0-22 11-37t28-16h3q16 0 27 17t11 54q0 38-10 55t-32 20m17-68v57q9-7 15-22t5-42q0-10-1-19t-2-15q-9 3-13 12t-4 29m461 70l-8 74q-16 6-33 6-15 0-28-4t-20-8q-22 26-65 30-4 1-8 1t-8 0q-31 0-57-11t-42-33-15-53q0-35 19-55t58-39l-26-9-50-25q13-43 41-65t64-26q5 0 9-1t9 0q36 0 65 13t47 38 18 57v95l30 15m-63 46l7-63q-12 6-18 6-11 0-11-15v-109q0-77-78-77-3 0-7 0t-7 0q-35 4-62 24t-38 60l56 18q6-17 15-27t23-12q1 0 3 0t2 0q12 0 18 5t6 15q0 11-7 17t-18 12l-22 10q-39 18-59 38t-19 54q0 67 63 67 3 0 6 0t6-1q24-2 41-11t27-27q3 10 15 16t27 6q16 0 31-6m-124-36h-3q-9 0-14-5t-6-13q0-22 22-32l10-5q7-4 14-7t10-7v34q-2 16-12 25t-21 10m266 81l-50-25v-274l80-8 13 6q15-15 35-16h6q9 0 16 1t15 3l50 25 9 86q-23-9-39-9-2 0-5 0t-5 0q-12 1-22 9t-16 20-6 26v149l-81 7m26-36v-145q0-15 7-28t17-22 24-10q3 0 6 0t6 0q9 0 16 1t16 5l-8-74q-5-1-11-2t-15-1h-6q-17 1-32 15t-19 37h-2v-41l-70 6v265l71-6m382-49l-16 82q-11 1-22 1t-21 1q-71 0-105-26t-34-85v-96l-32-16v-75l32-3v-81l81-8 50 25v58l42 20v76l-42 3v101l17-2 50 25m-70 53l14-72q-11 1-20 2t-15 1q-21 0-26-8t-5-26v-103l42-4v-65l-42 3v-81l-71 6v82l-32 2v66l32-3v120q0 30 8 48t25 26 51 8q9 0 18-1t21-1m459 37q-3 0-7 0t-7 0q-26 0-48-7t-42-17q-54-26-79-75t-24-114q0-39 9-76t30-67 48-48 69-23q4 0 8 0t7 0q25 0 44 6t40 14q36 15 60 43t36 67 12 82q0 40-10 77t-29 67-48 48-69 23m-50-30q38-3 67-22t47-47 27-66 10-75q0-36-9-69t-25-58-43-41-60-14q-4 0-7 0t-7 0q-39 4-67 22t-48 47-28 65-9 75q0 37 8 70t26 59 43 40 60 14q4 0 8 0t7 0m0-78q-2 0-4 0t-4 1q-30 0-47-26t-17-87q0-44 9-70t26-40 37-14q2 0 4 0t4 0q29 0 46 25t16 86q0 65-20 94t-50 31m-2-5q30-2 48-30t19-90q0-28-3-48t-11-33q-2 0-5-1t-5 0q-29 0-44 31t-14 89q0 29 4 49t11 33m430 104l-50-24v-157q-6 6-7 14v166l-76 8-50-25v-275l77-7 16 13q8-7 18-13t24-6q3 0 5-1t4 0q22 0 44 8t39 22 27 34 11 41v195l-82 7m27-36v-199q0-35-19-51t-46-16q-2 0-5 0t-4 1q-25 2-42 18t-21 39h-1v-50l-67 6v265l72-7v-162q2-12 11-22t23-12h2q10 0 18 7t7 24v165l72-6m326-77l50 24q-13 42-40 68t-71 30q-5 0-11 0t-10 1q-44 0-79-18t-55-53-20-88q0-46 15-80t43-53 63-22q3 0 7 0t7 0q28 0 55 9t50 31 35 52 14 78q0 4 0 8t-1 8l-52 5m-7 3l-61-18q-4 17-16 28t-31 13h-4q-17 0-28-12t-11-35l155-13q1-5 1-10t0-9q0-63-27-98t-75-35q-2 0-5 0t-6 0q-33 3-60 21t-41 52-15 77q0 64 29 96t77 32q3 0 7 0t7 0q43-4 68-28t36-61m-69-87l-80 7q0-16 12-28t29-14h5q15 0 24 9t10 26m-10 91l-29 3q0 3 2 5t5 5q9-2 14-6t8-7" />
</svg>