<svg id="fnt-Ranchers" viewBox="0 0 1833 1000" xmlns="http://www.w3.org/2000/svg"><path id="ranchers" class="f" d="M100 667h-86q1-48 2-95t0-90q0-60-1-115t-1-109q24-3 49-5t50-1q37 0 69 5t55 19 37 40 14 64q0 49-20 77t-55 42l82 168h-89l-67-153q-20 2-42 2 0 38 0 75t3 76m-3-323v96q15 1 28 1 34 0 48-13t15-38q0-15-5-25t-11-15-17-7-21-2q-8 0-18 0t-19 3m443 24l-2 299h-69v-25q-18 15-38 22t-39 8q-22 0-41-11t-33-31-22-47-8-60q0-34 9-63t23-52 35-34 44-12q20 0 39 9t31 22v-25h71m-156 118q0 21 11 33t29 13q19 0 32-14t13-34q0-10-3-18t-9-15-14-10-17-3q-18 0-30 13t-12 35m180-118h73v27q12-15 29-24t35-9q22 0 39 12t23 29q2 7 4 20t2 30v214h-74v-145q0-23-8-31t-19-7q-15 0-23 9t-8 24v150h-73q0-17 0-35t1-37 0-36 0-34q0-9 0-28t-1-42 0-46 0-41m367-6q29 0 53 9 0 8 0 18t1 20q0 10-1 21t0 19q-16-14-40-14-15 0-25 5t-17 12-8 16-3 17q0 11 4 21t11 17 16 12 20 4q10 0 21-4t21-11q0 17 0 34t1 36q0 18-1 36t0 36q-28 6-55 6-34 0-61-11t-45-30-28-49-10-64q0-34 9-63t27-49 46-32 64-12m77-116h78q-2 28-3 49t-1 38-1 32 0 30q12-15 29-24t34-9q11 0 21 3t19 9 15 13 9 17q2 7 3 20t2 29v214h-74v-150q0-15-7-24t-19-9q-13 0-23 8t-9 20v155h-74q1-67 1-143t0-162q0-27 0-46t0-30 0-22 0-18m472 263h-140q6 22 21 35t42 14q8 0 17-2t18-3 17-5 14-5q1 14 1 30t1 33q0 26-2 47-39 19-87 19-23 0-46-5t-44-19q-19-12-32-29t-19-35-9-34-3-31q0-20 5-42t15-41 25-36 37-26q25-12 54-12 30 0 54 12t39 33q14 20 18 45t4 57m-112-93q-10 0-20 9t-12 31h65q-2-20-12-30t-21-10m131-48h63l3 38q6-10 15-18t17-14 19-9 17-3q1 13 2 30t1 34q0 20-1 40t-2 36q-4-2-12-3t-14-1q-18 0-27 8t-9 22v139h-73q0-81 0-154t1-145m185 18q17-13 36-19t40-5q14 0 28 3t28 6q1 31 1 50t0 30q0 15 0 21t-1 12q-1 0-5-1t-10-2-12-2-12-1q-9 0-15 2t-6 9q0 6 4 10t9 10 13 9 13 8q13 9 25 24t12 40q0 22-10 38t-25 25-34 15-36 4q-7 0-16 0t-19-2-18-4-16-6q-3-8-4-18t-1-19q0-5 0-11t1-14 2-13 2-11q5 3 12 5t16 6 15 4 15 2q10 0 16-4t5-11q0-6-3-11t-9-9-11-8-11-5q-9-5-19-11t-18-15-13-21-5-31q0-21 8-42t28-37" />
</svg>