<svg id="fnt-Ranga" viewBox="0 0 916 1000" xmlns="http://www.w3.org/2000/svg"><path id="ranga" class="f" d="M107 365l-32 124 29-2q31-1 48-27 16-24 16-67 0-12-8-20t-22-8-31 0m-111 287l73-288q-7 0-14 0t-9-4-2-9l3-9q1-4 4-7t6-3h79q31 0 51 16t19 47-12 59-26 39-21 15-17 6l21 137q3 16-10 16h-15q-7 0-9-4t-4-13l-17-130-29 1-35 136q-2 10-14 10h-13q-5 0-8-5t-1-10m341-185q-23-12-36-4t-25 36q-21 45-29 89-4 19-3 27t7 12 16-5 21-24 21-44 28-87m7-26q2-10 10-10l11-1q8 0 12 5t1 12l-56 184q15-10 29-30 5-7 11-3l11 7q8 5 3 12-19 22-35 34t-38 17q-3 1-5 0t-3-5l-9-25q-7 10-18 20t-18 10h-1q-4 0-12-5t-12-11-6-8-4-5-3-7-1-8q-2-8 0-23 5-38 24-86t36-65 44-17q15 0 29 8m190 40q0-4-3-4t-7 4-13 15q-9 14-21 34t-31 49q-35 53-43 68t-8 15-2 2-1 1-1 1-2 0-1 1q-8 0-13 0-11 0-8-12l56-211q1-6 3-9t6-3h19q6 0 7 3t0 11l-34 116 48-80q15-25 31-37t28-13h9q26 0 16 40l-52 188q-1 7-7 7h-24q-6 0-4-11l49-159q3-12 3-16m188-48t13-1q12 0 9 12-20 80-44 163t-23 83q-12 43-37 56-11 6-15 7-9 4-27-7l-47-26q-6-3-7-8t3-9l7-10q8-8 15-3l52 31q10 5 15-12l22-81q-10 17-23 28t-20 12h-1q-3 0-11-5t-15-14-11-19 1-38 22-78 36-65 44-16q16 0 30 9 2-6 4-8t8-1m-21 38l1-4q-22-12-35-4t-26 36q-21 45-29 89-3 19-2 27t6 12 17-5 21-24 21-44 26-83m171-4q-22-12-35-4t-26 36q-21 45-29 89-3 19-3 27t7 12 16-5 21-24 22-44 27-87m7-26q3-10 11-10l10-1q9 0 12 5t1 12l-55 184q14-10 28-30 5-7 12-3l11 7q7 5 2 12-19 22-35 34t-37 17q-3 1-6 0t-3-5l-9-25q-7 10-17 20t-19 10h-1q-4 0-11-5t-13-11-6-8-3-5-3-7-2-8q-1-8 1-23 5-38 23-86t36-65 44-17q16 0 29 8" />
</svg>