<svg id="fnt-Readex Pro" viewBox="0 0 2723 1000" xmlns="http://www.w3.org/2000/svg"><path id="readex-pro" class="f" d="M103 667h-54v-350h149q30 0 55 14t41 40 15 57q0 29-15 53t-40 39-56 15h-95v132m220 0l-66 0-89-158 56-13 99 171m-220-298v114h100q15 0 26-7t18-20 7-28q0-18-9-31t-23-21-33-7h-86m393 303q-40 0-72-18t-49-47-17-69q0-31 10-56t27-45 43-29 54-10q25 0 47 10t38 27 25 40 9 51l-1 22h-214l-12-41h182l-8 8v-12q-1-16-11-29t-24-21-31-7q-27 0-46 10t-28 30-9 49q0 27 11 47t33 32 48 11q20 0 36-7t37-23l26 36q-12 12-30 21t-36 14-38 6m373-5h-47v-171q0-22-16-36t-39-14q-22 0-40 9t-32 28l-34-34q24-25 51-38t59-12q30 0 52 10t34 29 12 47v182m-125 5q-26 0-46-10t-32-28-11-42q0-21 7-37t22-26 37-16 52-6h73l-5 41h-75q-15 0-27 3t-20 8-12 14-4 18q0 11 6 19t15 13 22 5q18 0 34-7t29-17 20-24l12 33q-11 18-26 31t-34 20-37 8m299 0q-36 0-64-18t-45-49-16-70 16-70 44-49 64-17q19 0 37 6t33 17 23 23 8 26l-15 1v-175h52v370h-52v-63h10q0 12-8 24t-21 22-31 16-35 6m7-45q24 0 42-12t28-33 10-47-10-47-28-33-42-12-41 12-29 33-10 47 10 47 29 33 41 12m323 45q-40 0-72-18t-49-47-17-69q0-31 10-56t27-45 43-29 54-10q25 0 47 10t38 27 25 40 9 51l-1 22h-214l-12-41h182l-8 8v-12q-1-16-11-29t-24-21-31-7q-27 0-46 10t-28 30-9 49q0 27 11 47t33 32 48 11q20 0 36-7t37-23l26 36q-12 12-30 21t-36 14-38 6m407-5h-63l-85-111-8-9-110-143h65l83 109 9 11 109 143m-205 0h-61l104-135 30 36-73 99m196-263l-97 136-29-36 65-100h61m259 263h-54v-350h143q28 0 51 14t38 39 14 54-14 55-38 39-51 15h-89v134m0-298v112h88q13 0 24-8t18-21 7-28-7-28-18-20-24-7h-88m302 298h-52v-263h52v83l-5-20q6-19 19-35t30-24 36-9q9 0 16 1t13 4l-14 56q-6-3-13-5t-14-1q-14 0-26 5t-22 14-14 22-6 27v145m257 5q-39 0-69-18t-48-49-17-70 17-70 48-49 69-17q38 0 68 17t48 49 17 70-17 70-48 49-68 18m0-47q23 0 42-12t29-32 10-46q0-26-10-46t-29-32-42-11-43 11-29 32-10 46q0 26 10 46t29 32 43 12" />
</svg>