<svg id="fnt-Red Hat Text" viewBox="0 0 2854 1000" xmlns="http://www.w3.org/2000/svg"><path id="red-hat-text" class="f" d="M83 667h-38v-350h143q34 0 59 12t39 36 14 53q0 35-20 59t-53 35l74 155h-42l-71-150h-105v150m0-316v134h102q35 0 55-18t21-49q0-31-21-49t-55-18h-102m376 321q-34 0-62-17t-43-46-16-64 15-65 41-45 59-16q32 0 57 16t40 44 15 63v11h-192q2 25 14 44t31 31 42 12q19 0 37-7t30-18l23 24q-21 17-43 25t-48 8m-85-145h155q-3-22-14-40t-27-27-36-10-36 10-28 27-14 40m355 143q-32 0-57-17t-41-45-15-63q0-35 15-64t42-45 58-16q22 0 42 8t34 26v-148l36-8v369h-36v-33q-14 18-34 27t-44 9m9-32q21 0 39-8t30-24v-121q-12-16-31-25t-38-8q-25 0-44 12t-31 33-11 48q0 26 11 47t31 34 44 12m342 29h-39v-350h39v156h201v-156h38v350h-38v-159h-201v159m391 4q-26 0-46-9t-31-27-11-38 11-39 32-25 48-9q21 0 40 5t35 14v-33q0-30-16-46t-47-15q-17 0-35 5t-39 16l-14-28q49-23 92-23 46 0 70 22t25 64v162h-36v-29q-16 17-36 25t-42 8m-53-75q0 21 16 34t45 13q20 0 37-7t33-21v-47q-16-9-32-13t-37-4q-28 0-45 12t-17 33m326 76q-31 0-48-16t-16-44v-159h-50v-30h50v-67l37-9v76h70v30h-70v150q0 19 8 28t27 8q10 0 17-1t18-5v32q-10 4-21 5t-22 2m349-5h-39v-316h-121v-34h281v34h-121v316m232 5q-34 0-61-17t-44-46-16-64 15-65 42-45 58-16q32 0 57 16t40 44 15 63v11h-191q2 25 13 44t31 31 43 12q19 0 36-7t31-18l23 24q-21 17-44 25t-48 8m-84-145h154q-2-22-13-40t-27-27-36-10-37 10-27 27-14 40m248 140h-41l93-127-88-117h44l67 93 67-93h42l-89 118 94 126h-43l-73-100-73 100m321 5q-31 0-48-16t-16-44v-159h-50v-30h50v-67l37-9v76h70v30h-70v150q0 19 8 28t27 8q10 0 17-1t18-5v32q-10 4-21 5t-22 2" />
</svg>