<svg id="fnt-Red Rose" viewBox="0 0 2245 1000" xmlns="http://www.w3.org/2000/svg"><path id="red-rose" class="f" d="M107 667h-76q3 0 6-7t4-23v-240q0-16-4-23t-7-7h164q47 0 73 11t36 32 11 50q0 19-8 37t-26 31-47 17v1q33 9 57 33t42 53q12 18 21 26t15 9h-105q6-1 9-7t-2-21q-11-24-30-43t-48-29-69-11h-6q-15 0-18 3t-2 12v66q0 16 3 23t7 7m10-151h62q40 0 60-14t20-42q0-18-8-30t-24-17-43-6h-67q-15 0-18 2t-2 11v83q0 10 2 11t18 2m382 156q-40 0-65-10t-40-25-21-39-5-48q0-56 32-89t96-33q37 0 59 10t35 26 16 36 4 38v23q0-1-14-3t-46-2h-131q0 37 22 59t65 21q38 0 62-9t32-18v10l5 33q-11 6-39 13t-67 7m-60-149h121q0-13-5-27t-20-24-39-9q-22 0-38 7t-25 19-8 24q0 5 3 8t11 2m329 149q-47 0-74-16t-36-44-10-62q0-35 10-62t36-44 74-16q20 0 36 3t27 10 19 15l1 0-1-10v-94q0-16-4-23t-6-7h61v315q0 16 3 23t7 7h-61v-16l1-9-1-1q-8 9-19 16t-27 11-36 4m4-36q25 0 41-8t23-20 11-28 3-30q0-13-3-28t-11-29-24-22-40-8q-42 0-58 24t-16 64q0 26 6 45t23 30 45 10m391 31h-77q4 0 7-7t3-23v-240q0-16-3-23t-7-7h164q46 0 72 11t37 32 11 50q0 19-8 37t-26 31-48 17v1q34 9 58 33t42 53q11 18 21 26t14 9h-105q6-1 10-7t-3-21q-10-24-30-43t-48-29-69-11h-5q-16 0-18 3t-3 12v66q0 16 4 23t7 7m10-151h61q40 0 60-14t20-42q0-18-8-30t-24-17-43-6h-66q-16 0-18 2t-3 11v83q0 10 3 11t18 2m379 156q-50 0-78-16t-40-44-11-62q0-35 12-62t40-44 77-16 78 16 39 44 12 62q0 35-11 62t-39 44-79 16m0-36q31 0 48-10t24-29 6-47-7-47-23-30-48-10q-30 0-47 10t-24 31-7 47q0 26 7 45t23 30 48 10m299 36q-47 0-79-5t-43-10v-10l-10-43q13 10 45 21t80 12q31 0 47-5t20-11 5-16q0-11-7-17t-27-11-58-8q-42-5-65-15t-31-24-9-35q0-16 9-32t31-25 67-10q46 0 78 5t43 10v10l10 38q-12-9-45-19t-80-9q-37 0-49 8t-13 21q0 8 3 13t12 11 28 8 51 7q42 4 64 14t30 23 9 34q0 20-12 36t-36 25-68 9m281 0q-39 0-65-10t-40-25-20-39-6-48q0-56 32-89t96-33q37 0 60 10t34 26 16 36 5 38v23q0-1-14-3t-46-2h-132q0 37 22 59t66 21q37 0 61-9t33-18v10l5 33q-11 6-39 13t-68 7m-60-149h122q0-13-6-27t-19-24-40-9q-21 0-37 7t-25 19-9 24q0 5 3 8t11 2" />
</svg>