<svg id="fnt-Redacted Script" viewBox="0 0 4025 1000" xmlns="http://www.w3.org/2000/svg"><path id="redacted-script" class="f" d="M176 647q-4 0-7-1-9-2-13-11-3-9 1-19t13-24q3-4 6-9t5-9q1-1 1-3t1-2q-15-2-35-1t-44 8q-21 5-46 14t-52 21q-6 2-12 0t-8-8q-3-5 0-12t8-8q28-12 54-22t49-14q61-16 100-5 12 3 16 14t-2 24-15 28q-1 1-2 3t-2 3q12-2 34-10t62-22q6-2 11 1t8 9q3 5 0 11t-9 8q-23 8-42 15t-34 11q-20 6-30 8t-16 2m159 34q-4 0-7-1t-7-1q-9-3-13-11-4-10 0-24t16-37q2-4 4-9t5-9q-7 2-14 8t-15 12q-5 3-11 2t-10-5q-4-5-3-11t5-10q7-5 15-11t16-10q20-11 37-6 8 2 12 10 4 8 0 20t-14 33q-3 6-6 12t-5 11q0 2-1 4t-1 3q10-2 30-11t55-37q19-14 34-28t24-23 9-9q6-7 14-4 4 0 7 3t4 5q3 7 0 16t-11 30q-3 7-6 13t-5 12q0 2-1 3t0 3q9-2 20-9t21-15 17-14q5-5 11-4t11 5q4 5 3 11t-5 10q-15 14-32 26t-32 17-33 2q-8-3-11-10-3-7-2-15t6-21q-6 5-12 9t-12 10q-69 55-107 55m266 0q-4 0-7-1t-7-1q-9-3-13-11-4-10 0-24t16-37q2-4 4-9t5-9q-7 2-14 8t-15 12q-5 3-11 2t-10-5q-4-5-3-11t5-10q7-5 15-11t16-10q20-11 37-6 8 2 12 10 4 8 0 20t-14 33q-3 6-6 12t-5 11q0 2-1 4t-1 3q10-2 30-11t55-37q19-14 34-28t24-23 9-9q6-7 14-4 4 0 7 3t4 5q3 7 0 16t-11 30q-3 7-6 13t-5 12q0 2-1 3t0 3q9-2 20-9t21-15 17-14q5-5 11-4t11 5q4 5 3 11t-5 10q-15 14-32 26t-32 17-33 2q-8-3-11-10-3-7-2-15t6-21q-6 5-12 9t-12 10q-69 55-107 55m266 0q-4 0-7-1t-7-1q-9-3-13-11-4-10 0-24t16-37q2-4 4-9t5-9q-7 2-14 8t-15 12q-5 3-11 2t-10-5q-4-5-3-11t5-10q7-5 15-11t16-10q20-11 37-6 8 2 12 10 4 8 0 20t-14 33q-3 6-6 12t-5 11q0 2-1 4t-1 3q10-2 30-11t55-37q19-14 34-28t24-23 9-9q6-7 14-4 4 0 7 3t4 5q3 7 0 16t-11 30q-3 7-6 13t-5 12q0 2-1 3t0 3q9-2 20-9t21-15 17-14q5-5 11-4t11 5q4 5 3 11t-5 10q-15 14-32 26t-32 17-33 2q-8-3-11-10-3-7-2-15t6-21q-6 5-12 9t-12 10q-69 55-107 55m266 0q-4 0-7-1t-7-1q-9-3-13-11-4-10 0-24t16-37q2-4 4-9t5-9q-7 2-14 8t-15 12q-5 3-11 2t-10-5q-4-5-3-11t5-10q7-5 15-11t16-10q20-11 37-6 8 2 12 10 4 8 0 20t-14 33q-3 6-6 12t-5 11q0 2-1 4t-1 3q10-2 30-11t55-37q19-14 34-28t24-23 9-9q6-7 14-4 4 0 7 3t4 5q3 7 0 16t-11 30q-3 7-6 13t-5 12q0 2-1 3t0 3q9-2 20-9t21-15 17-14q5-5 11-4t11 5q4 5 3 11t-5 10q-15 14-32 26t-32 17-33 2q-8-3-11-10-3-7-2-15t6-21q-6 5-12 9t-12 10q-69 55-107 55m401-34q-3 0-6-1-10-2-14-11-3-9 2-19t13-24q3-4 5-9t5-9q1-1 2-3t1-2q-15-2-35-1t-44 8q-22 5-47 14t-52 21q-5 2-11 0t-8-8q-3-5 0-12t8-8q28-12 53-22t49-14q62-16 101-5 11 3 16 14t-2 24-16 28q0 1-1 3t-2 3q11-2 34-10t62-22q5-2 11 1t8 9q2 5 0 11t-9 8q-23 8-42 15t-34 11q-20 6-31 8t-16 2m159 34q-3 0-7-1t-7-1q-9-3-12-11-5-10 0-24t16-37q2-4 4-9t4-9q-6 2-14 8t-14 12q-5 3-12 2t-10-5q-3-5-3-11t6-10q7-5 14-11t16-10q21-11 38-6 8 2 12 10 4 8-1 20t-14 33q-2 6-5 12t-5 11q-1 2-2 4t-1 3q11-2 31-11t55-37q18-14 33-28t24-23 9-9q6-7 15-4 4 0 6 3t4 5q4 7 1 16t-11 30q-3 7-6 13t-5 12q-1 2-1 3t-1 3q10-2 20-9t21-15 18-14q5-5 11-4t10 5q4 5 4 11t-5 10q-16 14-32 26t-33 17-32 2q-8-3-12-10-3-7-2-15t6-21q-5 5-11 9t-12 10q-69 55-108 55m266 0q-3 0-7-1t-7-1q-9-3-12-11-5-10 0-24t16-37q2-4 4-9t4-9q-6 2-14 8t-14 12q-5 3-12 2t-10-5q-3-5-3-11t6-10q7-5 14-11t16-10q21-11 38-6 8 2 12 10 4 8-1 20t-14 33q-2 6-5 12t-5 11q-1 2-2 4t-1 3q11-2 31-11t55-37q18-14 33-28t24-23 9-9q6-7 15-4 4 0 6 3t4 5q4 7 1 16t-11 30q-3 7-6 13t-5 12q-1 2-1 3t-1 3q10-2 20-9t21-15 18-14q5-5 11-4t10 5q4 5 4 11t-5 10q-16 14-32 26t-33 17-32 2q-8-3-12-10-3-7-2-15t6-21q-5 5-11 9t-12 10q-69 55-108 55m645-34q-4 0-7-1-9-2-13-11-3-9 1-19t13-24q3-4 6-9t5-9q1-1 1-3t1-2q-15-2-35-1t-44 8q-21 5-46 14t-52 21q-6 2-11 0t-8-8q-3-5-1-12t8-8q28-12 54-22t49-14q61-16 100-5 12 3 16 14t-2 24-15 28q-1 1-2 3t-2 3q12-2 34-10t62-22q6-2 11 1t8 9q3 5 0 11t-9 8q-23 8-42 15t-34 11q-20 6-30 8t-16 2m159 34q-4 0-7-1t-7-1q-9-3-13-11-4-10 0-24t16-37q2-4 4-9t5-9q-7 2-14 8t-15 12q-5 3-11 2t-10-5q-4-5-3-11t5-10q7-5 15-11t16-10q20-11 37-6 8 2 12 10 4 8 0 20t-14 33q-3 6-6 12t-5 11q0 2-1 4t-1 3q10-2 30-11t55-37q19-14 34-28t24-23 9-9q6-7 14-4 4 0 7 3t4 5q3 7 0 16t-11 30q-3 7-6 13t-5 12q0 2-1 3t0 3q9-2 20-9t21-15 17-14q5-5 11-4t11 5q4 5 3 11t-5 10q-15 14-32 26t-32 17-33 2q-8-3-11-10-3-7-2-15t6-21q-6 5-12 9t-12 10q-69 55-107 55m401-34q-3 0-6-1-10-2-14-11-3-9 2-19t13-24q3-4 5-9t5-9q1-1 2-3t1-2q-15-2-35-1t-44 8q-22 5-47 14t-52 21q-5 2-11 0t-8-8q-3-5 0-12t8-8q28-12 53-22t49-14q62-16 101-5 11 3 16 14t-2 24-16 28q0 1-1 3t-2 3q11-2 34-10t62-22q5-2 11 1t8 9q2 5 0 11t-9 8q-23 8-42 15t-34 11q-20 6-31 8t-16 2m186-10q-3 0-4 0-8-2-12-7t-4-6q-3-11 3-23t15-25q3-4 6-9t5-8q0 0 1-2-3 1-7 3t-10 6q-9 6-19 14t-20 19q-3 2-6 4t-5 5q-4 4-11 4t-10-5q-4-5-4-11t5-10q3-3 5-5t6-5q16-14 31-27t31-18 29-3q8 2 12 7t4 8q5 11-2 23t-16 27q-1 1-3 3t-2 5q7-3 19-8t29-11q7-2 12 1t8 9q2 5-1 11t-8 8q-16 6-29 10t-22 8q-5 2-9 3t-6 3q-4 1-6 1t-5 1m246 10q-3 0-6-1-10-2-14-11-3-9 2-19t13-24q3-4 5-9t5-9q1-1 2-3t1-2q-15-2-35-1t-44 8q-22 5-47 14t-52 21q-5 2-11 0t-8-8q-3-5 0-12t8-8q28-12 53-22t49-14q62-16 101-5 11 3 16 14t-2 24-16 28q0 1-1 3t-2 3q11-2 34-10t62-22q5-2 11 1t8 9q2 5 0 11t-9 8q-23 8-42 15t-34 11q-20 6-31 8t-16 2m295 0q-4 0-7-1-9-2-13-11-3-9 1-19t13-24q3-4 6-9t5-9q1-1 1-3t1-2q-15-2-35-1t-44 8q-21 5-46 14t-52 21q-6 2-11 0t-8-8q-3-5-1-12t8-8q28-12 54-22t49-14q61-16 100-5 12 3 16 14t-2 24-15 28q-1 1-2 3t-2 3q12-2 34-10t62-22q6-2 11 1t8 9q3 5 0 11t-9 8q-23 8-42 15t-34 11q-20 6-30 8t-16 2" />
</svg>