<svg id="fnt-Reddit Sans Condensed" viewBox="0 0 4683 1000" xmlns="http://www.w3.org/2000/svg"><path id="reddit-sans-condensed" class="f" d="M125 520h-58v-38h61q29 0 46-20t16-50q0-30-17-48t-47-18h-59v-39h66q30 0 53 12t35 36 12 53q0 33-13 58t-38 40-57 14m-44 147h-43v-360h43v360m172 0h-48l-83-154 32-26 99 180m149 4q-32 0-56-18t-38-48-13-73q0-39 12-69t35-47 53-17q29 0 51 15t33 43 12 64q0 8 0 16t-2 14h-163v-34h125q0-36-15-58t-41-22q-19 0-33 12t-20 34-7 51q0 30 8 52t23 34 36 12q14 0 30-5t28-17l15 37q-15 11-35 17t-38 7m358-38l-16 38q-14-8-22-15t-12-17-5-20l7 7h-19l11-30v-130l-10-29h5v-146h41v312q0 12 5 18t15 12m-130 38q-46 0-72-37t-26-100q0-63 26-99t73-36q45 0 69 36t24 99q0 64-25 100t-69 37m9-39q30 0 47-26t17-72q0-45-17-71t-47-26q-30 0-48 26t-18 71 18 72 48 26m387 1l-16 38q-13-8-21-15t-13-17-4-20l7 7h-19l11-30v-130l-11-29h5v-146h41v312q0 12 5 18t15 12m-129 38q-46 0-72-37t-26-100q0-63 26-99t72-36q45 0 69 36t24 99q0 64-24 100t-69 37m8-39q31 0 48-26t16-72q0-45-16-71t-48-26q-30 0-47 26t-18 71 17 72 48 26m214 35h-41v-264h41v264m-20-301q-14 0-23-9t-9-22 9-23 23-9 22 9 9 23-9 22-22 9m174 305q-33 0-50-22t-17-55v-270h41v266q0 20 8 31t21 11q4 0 9-1t8-4l16 36q-7 2-15 5t-21 3m29-230h-137v-38h137v38m252 230q-21 0-41-8t-35-18-28-26l19-44q9 15 23 27t28 21 32 8q16 0 29-9t21-22 8-32q0-17-8-30t-22-22-36-17q-27-11-46-26t-30-34-10-45q0-27 11-47t33-33 48-11q26 0 51 12t41 31l-17 40q-10-13-22-23t-26-15-26-5q-23 0-37 15t-14 37q0 26 18 42t47 27q23 9 44 22t32 33 12 50q0 30-13 53t-36 36-50 13m217 0q-22 0-39-11t-27-28-10-40q0-39 28-60t71-22h47v34h-45q-29 0-45 12t-17 34q0 20 12 33t31 12q16 0 29-8t20-22 8-33v-30l-1-14v-46q0-21-14-33t-34-12q-16 0-34 7t-29 18l-15-37q16-12 39-19t43-7q37 0 60 21t23 58v123q0 12 4 19t11 11l5 3-16 37-6-3q-15-8-23-20t-9-23l7 8h-14l12-9q-10 21-28 34t-44 13m210-4h-41v-264h41v29h10l-17 17q8-24 28-37t46-13q34 0 55 24t21 64v180h-41v-175q0-25-13-40t-35-16q-16 0-28 7t-19 20-7 29v175m275 4q-23 0-46-11t-40-29l17-37q14 18 32 29t35 10q17 0 29-11t11-28q0-16-12-28t-38-20q-19-6-34-18t-24-26-8-35q0-20 10-35t27-24 38-9q20 0 40 8t32 21l-15 37q-11-14-26-21t-30-8q-16 0-26 9t-10 24q0 16 12 27t37 20q19 6 34 17t24 26 9 36q0 22-10 39t-28 27-40 10m379 0q-46 0-81-23t-53-64-19-98q0-55 19-96t54-64 82-23q25 0 52 9t44 24l-17 40q-13-16-34-25t-42-9q-35 0-61 18t-39 50-15 76 14 77 39 50 60 18q22 0 44-10t34-28l17 40q-19 18-45 28t-53 10m242 0q-32 0-56-18t-37-48-13-72q0-40 13-70t37-47 56-17q32 0 56 17t36 47 13 70q0 42-13 73t-36 48-56 17m0-39q29 0 47-26t17-73q0-43-17-70t-47-26q-30 0-47 26t-18 70q0 45 18 72t47 27m198 35h-41v-264h41v29h9l-16 17q8-24 28-37t46-13q34 0 55 24t21 64v180h-41v-175q0-25-14-40t-35-16q-15 0-27 7t-19 20-7 29v175m421-34l-16 38q-13-8-22-15t-12-17-5-20l8 7h-19l10-30v-130l-10-29h5v-146h41v312q0 12 5 18t15 12m-129 38q-46 0-72-37t-26-100q0-63 26-99t72-36q45 0 69 36t24 99q0 64-24 100t-69 37m8-39q31 0 47-26t17-72q0-45-17-71t-47-26q-30 0-48 26t-17 71 17 72 48 26m267 39q-32 0-56-18t-38-48-13-73q0-39 12-69t35-47 53-17q29 0 51 15t33 43 12 64q0 8 0 16t-2 14h-163v-34h125q0-36-14-58t-42-22q-19 0-32 12t-21 34-7 51q0 30 8 52t23 34 37 12q13 0 29-5t28-17l15 37q-15 11-34 17t-39 7m182-4h-41v-264h41v29h9l-16 17q8-24 28-37t46-13q34 0 55 24t21 64v180h-41v-175q0-25-14-40t-35-16q-15 0-27 7t-19 20-7 29v175m275 4q-23 0-46-11t-40-29l16-37q15 18 33 29t35 10q17 0 28-11t12-28q0-16-12-28t-38-20q-19-6-34-18t-24-26-8-35q0-20 10-35t26-24 39-9q20 0 39 8t32 21l-15 37q-11-14-26-21t-29-8q-16 0-26 9t-10 24q0 16 12 27t37 20q19 6 34 17t24 26 9 36q0 22-10 39t-28 27-40 10m225 0q-32 0-57-18t-37-48-13-73q0-39 12-69t34-47 54-17q29 0 51 15t33 43 12 64q0 8-1 16t-1 14h-163v-34h125q0-36-15-58t-41-22q-19 0-33 12t-20 34-7 51q0 30 8 52t23 34 36 12q14 0 30-5t28-17l15 37q-15 11-35 17t-38 7m358-38l-16 38q-14-8-22-15t-13-17-4-20l7 7h-19l11-30v-130l-10-29h5v-146h41v312q0 12 5 18t15 12m-130 38q-46 0-72-37t-26-100q0-63 26-99t73-36q44 0 68 36t25 99q0 64-25 100t-69 37m9-39q30 0 47-26t17-72q0-45-17-71t-47-26q-30 0-48 26t-18 71 18 72 48 26" />
</svg>