<svg id="fnt-Reddit Mono" viewBox="0 0 3069 1000" xmlns="http://www.w3.org/2000/svg"><path id="reddit-mono" class="f" d="M129 521h-65v-38h69q19 0 35-9t24-24 8-37q0-31-19-49t-51-17h-66v-40h73q30 0 54 12t39 36 14 55q0 31-14 56t-40 40-61 15m-50 146h-44v-360h44v360m186 0h-50l-89-153 33-27 106 180m165 4q-35 0-63-17t-42-48-15-69q0-40 14-69t41-47 60-17q32 0 57 15t38 42 14 62q0 7-1 16t-2 15h-189v-34h151q0-23-9-40t-24-27-35-10q-22 0-39 12t-27 33-9 49q0 28 10 49t29 34 42 11q17 0 35-6t32-19l15 37q-15 12-38 20t-45 8m394-39l-15 39q-19-11-29-25t-10-27l7 6h-19l11-29v-131l-11-25h6v-149h42v304q0 12 5 23t13 14m-134 39q-31 0-54-17t-36-46-13-71q0-41 13-71t36-46 54-17q31 0 53 17t35 47 13 70q0 40-13 70t-35 47-53 17m8-39q21 0 36-11t25-34 8-50q0-29-8-51t-24-33-36-11q-21 0-37 11t-24 34-9 50 9 50 24 34 36 11m407 0l-15 39q-18-11-29-25t-10-27l8 6h-19l10-29v-131l-10-25h5v-149h42v304q0 12 5 23t13 14m-133 39q-32 0-55-17t-36-46-13-71q0-41 13-71t36-46 55-17q30 0 53 17t35 47 12 70q0 40-12 70t-35 47-53 17m7-39q21 0 37-11t24-34 8-50q0-29-8-51t-24-33-36-11q-21 0-37 11t-24 34-8 50 8 50 24 34 36 11m321 35h-42v-259h42v259m0-221h-122v-38h122v38m-20-80q-14 0-23-9t-9-22 9-23 23-9 22 9 10 23-10 22-22 9m305 305q-27 0-48-11t-33-30-12-45v-260h42v256q0 22 15 36t38 14q15 0 31-6t26-15l16 38q-16 10-35 16t-40 7m59-225h-212v-38h212v38m390 221h-43v-360h32l85 166h2l85-166h33v360h-43v-185l1-73h-2l-67 131h-15l-67-131h-2l1 73v185m357 4q-35 0-60-17t-40-47-15-70 15-69 40-48 60-17 60 17 40 48 14 69-14 70-40 47-60 17m0-40q22 0 38-11t25-33 9-50-9-50-25-33-38-11-39 11-25 33-9 50 9 50 25 33 39 11m220 36h-42v-259h42v32h10l-17 18q7-24 30-39t54-15q41 0 64 26t23 71v166h-42v-158q0-30-15-48t-44-18q-18 0-32 8t-22 23-9 35v158m342 4q-34 0-60-17t-40-47-14-70 14-69 40-48 60-17 60 17 40 48 14 69-14 70-40 47-60 17m0-40q23 0 39-11t25-33 8-50-8-50-25-33-39-11-39 11-24 33-9 50 9 50 24 33 39 11" />
</svg>