<svg id="fnt-Reem Kufi Ink" viewBox="0 0 3010 1000" xmlns="http://www.w3.org/2000/svg"><path id="reem-kufi-ink" class="f" d="M52 304h98q38 0 68 13t46 39 17 62q0 31-14 60t-46 45l90 144h-61l-84-131q-4 0-9 0h-53v131h-52v-363m52 182h52q28 0 43-11t22-26 6-29-7-29-21-26-40-10h-55v131m359 186q-36 0-62-15t-40-39-14-57q0-31 15-57t43-40 59-15q42 0 69 24t38 69l-164 56q9 15 24 23t33 8q13 0 26-5t23-13l23 38q-16 10-35 16t-38 7m-66-104l117-42q-7-15-20-26t-34-11q-28 0-46 19t-17 50q0 5 0 10m328 104q-36 0-62-15t-40-39-14-57q0-31 16-57t42-40 59-15q42 0 70 24t37 69l-163 56q9 15 23 23t33 8q14 0 26-5t24-13l23 38q-16 10-36 16t-38 7m-65-104l116-42q-6-15-19-26t-34-11q-28 0-46 19t-18 50q0 5 1 10m230-110h45l4 38q12-22 32-35t48-12q25 0 42 12t22 33q13-21 33-33t43-12q31 0 49 17t18 46v155h-50v-136q0-16-7-27t-24-11q-18 0-32 11t-22 28-8 38v97h-50v-136q-1-16-8-27t-25-11q-17 0-31 11t-21 28-8 38v97h-50v-209m545-154v143l-1 18 7-10 143-151h68l-150 157 157 206h-67l-129-173-28 28 0 145h-53v-363h53m344 371q-29 0-48-17t-19-45v-155h50v137q1 16 10 26t27 11q17 0 30-10t21-28 8-41v-95h51v209h-46l-3-39q-10 21-32 34t-49 13m277-8h-50v-164h-36v-45h36v-86q0-44 21-69t62-25q11 0 24 3t24 11l-21 36q-5-5-11-7t-11-1q-17 0-28 12t-10 41v85h66v45h-66v164m126 0v-209h51v209h-51m-2-284q0-12 9-20t20-8 20 8 9 20q0 12-9 20t-20 7-20-7-9-20m209 284v-363h52v363h-52m143-209h45l4 39q10-22 32-35t51-12q30 0 49 17t19 45v155h-50v-137q-1-16-10-27t-28-10q-26 0-44 22t-18 56v96h-50v-209m330 209h-50v-389h50v259l107-84 30 27-76 61 86 126h-59l-62-98-26 20v78" />
</svg>