<svg id="fnt-Rethink Sans" viewBox="0 0 2915 1000" xmlns="http://www.w3.org/2000/svg"><path id="rethink-sans" class="f" d="M79 667h-42v-350h104q37 0 63 10t40 33 14 54q0 41-22 62t-57 28l100 163h-52l-90-155h-58v155m0-315v124h61q28 0 44-7t24-20 7-35q0-21-7-35t-24-21-44-6h-61m349 321q-35 0-63-16t-43-46-16-68q0-39 15-69t43-45 65-16q35 0 61 15t40 42 15 59q0 7 0 11t0 12h-198q2 25 12 44t28 30 41 11q26 0 43-12t26-32h41q-6 23-21 41t-38 28-51 11m-80-153h156q-2-34-23-53t-53-19q-30 0-54 18t-26 54m381 147h-39q-34 0-53-17t-20-59v-137h-43v-35h43v-60h42v60h70v35h-70v137q0 23 10 31t33 9h27v36m99 0h-42v-350h42v144q12-23 35-36t50-12q43 0 69 26t26 83v145h-41v-141q0-38-16-58t-47-19q-32 0-54 23t-22 66v129m269-303q-12 0-21-9t-8-20q0-12 8-20t21-8q12 0 21 8t8 20q0 12-8 20t-21 9m21 303h-42v-248h42v248m115 0h-42v-248h38l3 44q12-23 34-37t51-13q44 0 70 26t27 83v145h-42v-141q0-38-16-58t-48-19-54 23-21 66v129m287 0h-42v-350h42v206l101-104h52l-110 112 124 136h-54l-113-129v129m456 6q-35 0-64-13t-46-38-16-60h44q0 35 23 55t59 20q32 0 53-15t22-44q0-20-7-32t-20-19-34-15-49-16q-25-9-43-21t-27-28-9-40q-1-31 14-53t40-32 56-11q31 0 55 11t40 33 16 53h-44q0-27-19-44t-50-17q-27-1-46 13t-19 43q0 18 8 29t27 19 52 19q24 8 43 17t32 20 20 28 7 40q0 32-16 53t-43 33-59 12m258 0q-26 0-47-9t-33-26-12-42q0-29 15-46t39-25 54-8h67q0-26-9-41t-23-21-31-7q-24 0-42 12t-22 36h-43q2-27 18-45t39-29 50-9q38 0 61 13t33 37 11 51v76q0 19 4 28t23 12v37q-16 0-30-5t-23-14-13-25q-12 21-34 35t-52 15m6-36q25 0 42-13t26-32 9-42v0h-64q-17 0-33 3t-25 14-9 27q0 23 16 33t38 10m239 30h-42v-248h38l2 44q12-23 35-37t51-13q44 0 70 26t26 83v145h-42v-141q0-38-16-58t-48-19-53 23-21 66v129m339 6q-29 0-53-11t-38-29-17-44h43q4 20 20 34t46 14q26 0 39-11t12-27q0-15-7-23t-21-12-34-8q-21-5-41-13t-33-21-13-35 11-39 31-26 48-9q40 0 65 19t29 57h-41q-3-19-17-30t-36-11q-23 0-35 10t-12 25q0 10 7 17t20 12 31 9q25 5 46 12t33 22 12 41q1 22-11 39t-33 28-51 10" />
</svg>