<svg id="fnt-Ribeye" viewBox="0 0 1728 1000" xmlns="http://www.w3.org/2000/svg"><path id="ribeye" class="f" d="M330 417q0-17-6-30t-15-22-25-16-31-9-36-5-39-1q-6 0-10 0t-9 0l-4 166q9 2 20 3t23 1q14 0 29-2t30-6 28-10 23-16 16-23 6-30m41 154q0 1 0 3t0 6q0 20-6 36t-17 29-26 19-35 7h-1q-18 0-31-6t-24-14-17-21-11-26-6-28-2-30q0-4 0-9t1-7q-11 0-22-1t-20-3l-4 127q0 6-3 9t-10 3q0 0-9 0t-25 1-34 2-36 3h-1q-6 0-9-4t-4-8 3-9 8-4q9-2 18-2t19-2l6-301q-19 3-28 5t-10 3q-1 1-3 1-6 0-9-4t-4-9q0-5 2-8t7-4q1-1 10-3t29-6 46-5 65-3q24 1 46 4t42 6 36 12 29 20 18 28 6 39q0 17-5 33t-15 29-24 22-30 15q0 5-1 11t0 12q0 5 0 15t1 20 4 22 5 21 9 16 13 6q10 0 16-7t10-16 6-19 1-17q0-3 0-5t0-3q0-5 4-9t9-3 8 3 5 8m198 102q-1 0-1 0t-2-1q-20-4-37-5t-36-2q-18 0-35 2t-37 5q-1 0-2 1t-1 0q-5 0-9-4t-3-9q0-5 2-8t8-5q8-2 17-3t17-2v-187q-16-1-26-2t-12-1q-5-1-8-5t-3-8q0-6 5-10t8-3h2q0 0 5 1t14 1 20 1 23 1 22-1 21-3h3q5 0 9 4t4 9l-1 203q9 1 17 2t18 3q5 1 8 5t3 8q0 5-5 9t-8 4m-36-321q0 9-3 17t-10 13-14 10-16 3-17-3-14-10-10-13-3-17 3-17 10-14 14-9 17-4 16 4 14 9 10 14 3 17m307 184q0-19-3-36t-11-29-21-20-30-7q-11 0-20 3t-16 9-14 13-11 13-7 13-3 10q0 15 0 29t1 28q1 18 5 33t11 27 18 17 27 6q19 0 33-10t24-25 13-35 4-39m26 0q0 31-9 58t-27 48-42 31-58 12q-23 0-43-8t-36-23-23-34-10-44q-1-16-1-39t0-51q0-20 0-41t0-39 0-34 1-25q-21 0-33-2t-14-2q-5-1-8-5t-3-8q0-3 2-5t3-5 4-2 4-1q1 0 1 0t1 1q0 0 4 0t9 1 14 1 17 1q15 0 33-2t37-7q2-1 3-1 6 0 10 4t3 9v0q0 0 0 11t0 28-1 41 0 49q5-8 13-14t17-11 19-7 21-3q24 0 41 9t29 25 16 38 6 46m257 2v-4q0-19-4-34t-12-28-22-20-31-10q-13 1-23 7t-16 13-11 19-7 21-4 22-1 20q4 1 10 3t13 3 17 2 18 1q21 0 39-4t34-11m25 9q-1 7-7 11t-15 8-20 6-22 4-20 2-14 1q-18 0-33-3t-25-5q2 15 6 30t12 26 19 19 29 7q6 0 14-1t15-5 14-7 10-10q4-5 10-5 5 0 9 4t4 9q0 5-3 8-6 9-17 16t-22 10-25 6-23 2q-29 0-54-11t-44-28-29-43-11-52q0-31 10-56t26-41 41-25 55-9q29 1 50 10t34 24 20 36 7 48q0 6-1 10t0 4m320-126q0 4-3 8t-8 4q-5 1-10 1t-9 1q-2 7-5 19t-7 29-9 34-10 38-10 38-11 36-9 31-8 23q-10 24-24 47t-32 40-40 29-49 11q-16 0-32-5t-27-13-19-22-7-31q0-11 3-22t9-19 15-14 21-5q9 0 16 4t14 9 10 14 3 17-3 17-10 13-14 10-16 3q-5 0-8 0t-7-2q5 7 13 11t15 4q11 0 21-6t18-17 16-23 14-25 10-24 7-19q2-5 4-11t4-13q-27-36-43-68t-25-57-12-45-4-30q-9 0-18 0t-19-2q-5 0-8-4t-3-8q0-6 4-9t9-4h1q9 1 17 1t19 1q14 0 28-1t30-4q1 0 2 0 6 0 9 4t4 9q0 4-3 8t-8 4q-10 2-19 3t-19 2q0 8 3 24t10 38 20 49 34 58q7-23 14-49t13-50 12-44 8-32q-5 0-11-1t-10-1q-5 0-8-4t-3-8q0-6 4-10t9-3h1q15 2 30 2t31 1q15 0 30-1t31-2h1q6 0 9 4t4 9m233 117v-4q0-19-3-34t-13-28-21-20-32-10q-13 1-23 7t-16 13-11 19-7 21-4 22-1 20q4 1 10 3t13 3 17 2 18 1q21 0 39-4t34-11m25 9q0 7-7 11t-15 8-20 6-22 4-20 2-14 1q-18 0-33-3t-25-5q2 15 6 30t12 26 19 19 29 7q6 0 14-1t15-5 14-7 10-10q4-5 10-5 5 0 9 4t4 9q0 5-3 8-6 9-17 16t-22 10-25 6-23 2q-29 0-54-11t-44-28-29-43-11-52q0-31 10-56t26-41 42-25 54-9q29 1 50 10t34 24 20 36 7 48q0 6 0 10t-1 4" />
</svg>