<svg id="fnt-Ribeye Marrow" viewBox="0 0 4026 1000" xmlns="http://www.w3.org/2000/svg"><path id="ribeye-marrow" class="f" d="M98 338l-5 303q12-1 32-1l9-305q-21 1-36 3m179 307q-23-31-23-105v-9q0-4 1-7-25 4-34 5-1 7-1 20t3 29 8 31q14 32 46 36m-118-311l-4 166q16 4 36 4t36-2 30-6 28-10 24-16q21-21 21-53 0-48-46-68-27-11-56-13t-43-2h-17q-5 0-9 0m186 246l0-8q0-5 4-9t9-3 8 3 5 8l0 9q0 40-23 65-23 26-61 26h-1q-64-2-83-67-8-26-8-58l1-16q-19 0-42-4l-4 127q0 6-3 9t-10 3q-57 0-104 6h-1q-6 0-9-4t-4-8 3-9 10-5 16-1 19-2l6-301-38 8q-1 1-5 1t-7-4-4-9q0-10 9-12 49-17 150-17 57 3 82 9t42 13 29 20q24 24 24 67 0 35-20 62-20 26-54 37-1 11-1 20t0 18 1 20 4 22 5 21q8 22 22 22 17 0 26-23 7-17 7-36m165 60v-186q-12 2-33 2h-2v184q5-1 9-1 9 0 16 0t10 1m-2-288q0-8-6-13t-12-5-13 5-5 13 5 12 13 6 12-6 6-12m61 321q-41-8-76-8t-75 8q-5 0-9-4t-3-9 2-8 10-5 15-3 17-2v-187l-38-3q-5-1-8-5t-3-9 5-9 8-3h2q0 0 5 1t14 1q23 2 43 2 26 0 43-4h3q5 0 9 4t4 9l-1 203q9 1 17 2t16 3q13 2 13 13 0 5-5 9t-8 4m-36-321q0 18-12 30-14 13-31 13-19 0-31-13t-13-30 13-31 31-13q17 0 31 13 12 12 12 31m110-6l-1 141q0 62 1 84t7 37 17 26q23 25 58 26-44-27-45-97-1-28-1-66t0-79 0-78q-15 4-36 6m197 190q0-19-3-36t-12-29q-16-27-50-27-28 0-50 25-19 20-21 36 0 68 5 87t12 30q15 23 45 23 36 0 57-35 17-31 17-74m-222 36q-1-27-1-107t1-118q-21 0-33-2t-16-2-6-5-3-7 2-6 3-5q4-3 6-3h3q1 0 1 0t4 1 9 1q15 2 31 2 39 0 70-9 2-1 5-1t8 4 3 9v0q0 0 0 11t0 28-1 41 0 49q17-25 49-32 10-3 28-3t34 9 29 25q22 32 22 84 0 64-36 106-37 43-100 43-47 0-78-31-33-31-34-82m378-124q-64 23-64 98 0 46 32 78 10 9 23 16-21-31-21-85 0-39 5-58 9-29 25-49m-4 96q27 9 62 9t69-15v-4q0-59-38-82-13-8-31-10-60 6-62 102m157-11l-1 14q-2 21-64 29-20 3-42 3t-50-8q6 56 37 75 12 7 23 7t20-1 15-5q17-7 24-17 4-5 9-5t10 4 4 9-3 8q-11 16-39 26-53 17-102-3-52-21-73-71-11-24-11-54t10-54 26-41q35-34 96-34 111 5 111 118m56 190q0-8-6-13t-12-5-13 5-6 13 6 12 13 6 12-6 6-12m207-287q-5 1-10 1h-27q-23 101-41 162t-24 75q-27 74-58 106 47-17 77-74 14-26 20-46t12-35 9-33 10-36 10-35 9-34 7-29 6-22m-81-28h1q26 3 61 3t61-3h1q6 0 9 4t4 9-3 8-8 4-10 1-9 1q-2 7-5 19t-7 29-9 34-10 38-10 38-11 36q-11 37-19 57t-22 44-32 40q-40 40-89 40-36 0-59-18-26-20-26-53 0-24 12-41 14-19 36-19 18 0 30 13t13 31q0 17-13 31-12 12-30 12-8 0-15-2 12 15 26 15t23-6 18-17 16-23 14-25q13-29 18-45t7-22q-46-63-68-125-14-41-16-75-40 0-45-6-3-3-3-9t4-8 9-4h1q14 2 32 2 33 0 48-3t18-2 7 4 4 8-3 9-11 5q-17 2-35 4 1 45 33 111 13 27 34 58 24-80 47-175-5 0-11-1t-10-1-8-4-3-9 4-9 9-3m243 40q-64 23-64 98 0 46 32 78 10 9 23 16-21-31-21-85 0-39 6-58 8-29 24-49m-4 96q27 9 63 9t68-15v-4q0-59-37-82-14-8-32-10-60 6-62 102m157-11l-1 14q-2 21-64 29-20 3-42 3t-50-8q6 56 37 75 12 7 23 7t20-1 15-5q17-7 24-17 4-5 10-5t9 4 4 9-3 8q-11 16-39 26-53 17-102-3-51-21-73-71-11-24-11-54t10-54 26-41q35-34 96-34 111 5 111 118m412 46l-125-231q-4 11-6 24t-3 24l118 230q4-9 8-21l8-26m162 58q19-1 38-2-7-101-33-262-3-18-5-27-18 2-40 3 31 130 40 288m-56-313l111-9 2-1q6 0 10 4t3 9-3 8-7 5q-9 1-34 4 2 10 5 29t7 42 7 52 8 56q7 63 10 111 14 0 25 0t16 0 9 4 4 9-4 9-10 3-12 0-13 0q-68 0-136 12h-3q-5 0-9-4t-3-8 3-8 9-5q17-4 36-6-10-155-35-265-36 88-92 254 0 0-8 24-3 9-3 10-2 8-12 8-8 0-11-6l-119-232q-19 144-21 204 44 2 51 10 2 3 2 9t-4 8-8 3h-3q-28-5-53-5t-43 3h-2q-6 0-9-4t-4-9q0-10 10-12 14-3 37-4 4-103 29-241 6-30 12-59-29-1-53-8-10-2-10-10t4-11 7-4h4q1 0 8 2 20 6 47 6l18-1q7 0 11 7l125 229q60-178 83-216 4-6 11-6m362 257q-1-8-1-17h-9q-40 0-79 14-49 19-49 53 0 13 11 20 10 6 25 6t31-7 29-18q23-19 42-51m59 61q1-8 1-30t-1-41-4-39-9-35-16-28q-22-26-62-26 0 0-1 0t-1 0h1q39 22 51 71 7 27 7 51t1 38q0 22-2 45 17-4 35-6m26-2l15-1 17 1q6 0 9 4t3 9-3 9-9 4h-1q-4-1-9-1h-8q-45 0-87 12l-3 1q-6 0-9-5t-4-8v-2q0-1 1-10t3-26q-50 55-103 55-25 0-42-14-19-14-19-35t8-34 21-24 30-18 33-11q32-8 62-8h6q0-31-20-54-21-24-51-24-22 0-42 23-19 22-19 46 0 5-4 8t-9 4-9-4-4-13 4-21 12-25 19-23 26-20q32-18 64-18t52 9 32 23 21 34 11 41q6 33 6 86l0 30m157-5v-180q-9 1-34 1h-2v180q5-1 9-1 0 0 27 0m136-126q2-3 2-9t-5-11-13-5-13 5-5 11 1 9 4 6q5 5 13 5 11 0 16-11m-110-69v17q24-34 64-34 33 1 54 21 21 19 21 50 0 21-12 36-13 16-33 16-18 0-31-13t-13-31q0-18 13-31 13-13 31-13 1 0 2 0t2 1q-13-10-30-10t-28 5-17 15-12 19-7 18q-4 15-4 23l-1 109q9 0 17 2t16 3q13 2 13 13 0 5-4 9t-9 3h-3q-40-7-73-7-31 0-72 7h-3q-5 0-9-4t-3-8q0-11 10-13 8-2 17-3t17-2v-182q-32-2-38-4-5 0-8-4t-3-9 5-9 8-3h2q2 1 26 2t36 2q27 0 35-2t13-2 7 4 4 9m270 195v-180q-9 1-33 1h-2v180q4-1 9-1 0 0 26 0m137-126q1-3 1-9t-5-11-13-5-13 5-5 11 2 9 3 6q6 5 13 5 12 0 17-11m-111-69v17q25-34 65-34 33 1 53 21 21 19 21 50 0 21-12 36-13 16-33 16-18 0-31-13t-12-31q0-18 12-31 13-13 31-13 1 0 2 0t3 1q-13-10-31-10t-28 5-17 15-12 19-6 18q-5 15-5 23l0 109q8 0 17 2t15 3q13 2 13 13 0 5-4 9t-9 3h-2q-41-7-73-7-32 0-73 7h-2q-6 0-9-4t-4-8q0-11 10-13 9-2 17-3t17-2v-182q-32-2-37-4-5 0-8-4t-3-9 4-9 9-3h1q2 1 26 2t36 2q27 0 36-2t12-2 7 4 4 9m257 7q-44 17-58 63-5 16-5 36t5 37 13 28q15 23 42 34-25-34-25-100t28-98m124 171q12-15 18-33t6-35-3-28-8-24-12-21-17-18q-19-16-43-16-47 0-62 56-5 20-5 38t1 29 3 24 7 23 11 19q14 19 37 19t39-9 28-24m49-71q0 28-10 53t-29 42q-38 37-92 37-59 0-95-37-35-35-35-96 0-57 38-95 37-38 92-38 57 0 95 40 36 38 36 94m152 97q14-26 17-32-27-43-45-100-12-36-16-70-7 1-15 1h-18q8 65 41 137 14 31 36 64m134 3q14-25 18-31-39-58-64-119-6 23-15 48 18 45 61 102m33-234q14 4 39 4t52-5q5 0 9 4t4 8-3 9q-6 7-44 9-19 120-47 180-11 22-31 55-4 6-10 6-6 0-11-5-41-52-64-100-28 61-50 96-4 6-11 6t-10-6q-60-82-83-179-8-31-10-53-5 0-11-1t-10-1-9-4-3-9 4-8 9-4h1q31 2 59 2t68-5l2 0q6 0 9 4t4 9-3 8-9 5-13 1-14 2q15 82 49 143 35-78 41-138 0-6 4-9t8-3q10 0 13 9 25 77 68 145 14-37 22-78t12-68q-16 0-27-2t-14-5-3-9 4-9 9-4" />
</svg>