<svg id="fnt-Roboto Flex" viewBox="0 0 2621 1000" xmlns="http://www.w3.org/2000/svg"><path id="roboto-flex" class="f" d="M42 311v356h46v-145h69q57 0 88-30t31-76-31-76-88-29h-115m115 173h-69v-135h69q41 0 57 19t15 48-15 48-57 20m-1 19l87 164h52l-92-171-47 7m170 31v8q0 58 33 95t88 37 88-37 33-95v-8q0-58-33-95t-88-37-88 37-33 95m46 8v-8q0-39 19-67t56-27 56 27 19 67v8q0 40-19 67t-56 28-56-28-19-67m253-250v375h41l2-34h1q10 16 30 27t47 12q49 0 78-37t30-93v-8q0-56-30-92t-78-37q-27 0-45 10t-31 25v-148h-45m45 298v-104q8-17 25-31t42-13q36 0 53 27t17 65v8q0 39-17 66t-53 26q-25 0-42-13t-25-31m225-56v8q0 58 33 95t88 37 88-37 33-95v-8q0-58-33-95t-88-37-88 37-33 95m47 8v-8q0-39 18-67t56-27 56 27 19 67v8q0 40-19 67t-56 28-56-28-18-67m216-132v34h147v-34h-147m46 21v172q0 37 17 54t45 17q12 0 22-2t17-5v-37q-7 2-14 3t-13 2q-15 0-22-7t-6-25v-257h-46v77 8m134 103v8q0 58 33 95t88 37 88-37 33-95v-8q0-58-33-95t-88-37-88 37-33 95m46 8v-8q0-39 19-67t56-27 56 27 18 67v8q0 40-18 67t-56 28-56-28-19-67m380-231v356h47v-157h149v-39h-149v-121h173v-39h-220m273-19v375h45v-375h-45m104 242v8q0 58 32 95t91 37q37 0 63-16t37-34l-29-23q-11 14-29 25t-42 11q-39 0-58-28t-19-67v-8q0-39 18-67t54-27q30 0 46 19t16 47v6h-152v36h197v-18q0-59-28-93t-81-35-84 37-32 95m347-9l-97 142h51l77-119h3l93-138h-52l-72 115h-3m-40-115h-52l92 138h2l78 119h52l-98-142h-2l-72-115" />
</svg>