<svg id="fnt-Rochester" viewBox="0 0 1596 1000" xmlns="http://www.w3.org/2000/svg"><path id="rochester" class="f" d="M227 257q26 0 45 6t32 19 19 27 7 33q0 19-7 37t-17 33-27 30-33 25-37 21-37 15q13 12 24 27t20 33 20 36 20 36 22 32 29 27 35 18 44 7l1 10q-3 1-7 1-3 1-8 1t-12 1q-32 0-56-8t-41-19-29-29-22-34-16-37-13-37-14-33-18-26q-5 1-10 2t-9 2q0 17-1 30t-1 22-1 17-2 15q-2 19-7 32t-13 22-17 12-20 4q-16 0-30-10t-24-27-15-46-6-62q0-38 8-72t23-64 36-53 46-41 56-26 63-9m-150 237q0-6 5-11t14-6q-1-24-1-44t-1-34q-1-17-2-30 2-1 4-2 2-1 5-2t6-1q12 0 18 4t7 14q0 29 0 53t0 46q8 2 15 6t13 7q23-6 46-18t40-29 30-42 11-56q0-20-5-35t-16-24-23-14-28-4q-25 0-49 7t-46 22-39 37-31 53-20 69-8 87q0 20 3 40t6 34 14 24 20 9q7 0 12-2t11-12 7-24 2-42q0-9 0-17t0-14 0-14 0-16q-9-2-14-7t-6-12m13 0q0 2 1 4t5 3v-11q-6 1-6 4m42 1v5q2 0 4 0t3-1q-2-1-3-2t-4-2m380 62l10 7-3 5q-8 17-22 27t-30 13q-4 12-11 23t-16 18-20 12-24 5q-19 0-34-8t-25-22-16-32-6-38q0-19 4-33t11-27 14-20 15-14 14-9 9-2l3 8q-10 7-17 21-7 11-13 29t-5 47q0 16 3 32t9 28 15 20 20 7q16 0 26-12t15-34q-13-3-24-10t-20-18-14-25-6-31q0-14 4-24t9-17 14-11 16-3q10 0 21 5t19 17 13 29 6 40q0 8-1 17t-3 16q12-4 21-11t16-20l3-5m-122-35q0 15 4 27t11 21 16 15 19 9q2-7 2-15t0-15q0-17-2-31t-7-24-11-15-12-6q-8 0-14 9t-6 25m207 12l-3-7q3-4 5-11t3-14q0-8-5-14t-14-6q-8 0-15 5t-13 15-11 26-3 37q0 16 3 30t10 23 16 16 21 5q9 0 18-4t18-14 19-24 20-35l2-5 10 7-2 5q-14 26-27 45t-25 30-25 17-24 6q-15 0-28-7t-21-18-13-26-4-32q0-26 7-48t18-37 26-24 29-8q12 0 19 3t12 8 7 10 2 11-2 11-7 10-10 9-13 5m103 48q0 12 0 25t-3 27-7 25-12 24l-19-6q7-20 8-43t1-45q0-24-2-49t-3-49-4-49-2-50q0-16 4-27t8-19 12-12 14-3q9 0 14 6t9 18 2 26-1 32-4 34-6 33-6 31-5 24q0 2 0 4t0 4q5-11 13-25t16-24 21-20 23-7q19 0 28 12t9 35q0 16-1 31t-4 28-4 26-2 25q0 15 8 15 4 0 9-6t13-18 15-24 15-29l3-5 10 7-3 5q-8 17-17 34t-19 32-20 23-20 9q-5 0-9-2t-9-5-6-10-2-16 1-21 2-24 3-24 3-22 3-19 1-14q0-14-4-20t-12-6q-10 0-19 8t-17 21-14 28-12 27q0 4 0 7t0 7m-15-209q0 10 0 24t3 31 3 35 3 35q3-13 5-30t5-33 3-33 1-28-4-19-7-8q-5 0-9 6t-3 20m247 266q8 0 17-4t18-14 19-24 20-35l3-5 10 7-3 5q-13 26-26 45t-26 30-24 17-24 6q-16 0-28-7t-21-18-13-26-5-32q0-26 8-48t19-37 27-24 32-8q17 0 26 8t9 22q0 12-7 23t-19 21-28 21-34 21q2 12 6 23t11 18 14 11 19 4m7-135q0-10-5-15t-13-6q-6 0-13 5t-13 14-10 25-4 38v5q9-4 19-11t19-16 14-19 6-20m212 78q0 16-5 32t-14 27-24 19-33 7q-13 0-23-5t-18-11-11-16-4-19 4-19 10-14 15-9 17-4q6 0 12 2v7q-7 0-15 3t-13 9-9 13-4 16q0 16 11 26t31 10q10 0 18-4t13-11 9-16 3-20q0-10-4-19t-11-17-15-16-18-13-17-13-15-12l-25 54-10-7 25-55q-9-8-13-16t-4-18q0-6 2-12t5-9 9-6 9-2q10 0 14 5t5 14q0 3-1 7t-2 8-2 8-2 6q8 5 18 10t21 11 22 13 20 14 14 18 5 24m-111-127q-4 0-6 3t-2 6q0 4 2 10t8 10q3-5 4-10t1-10q0-4-2-6t-5-3m130 132q0-26 2-52t5-53h-22l3-15h21q4-25 7-50t7-50h25q-1 5-2 15t-2 24-2 29-2 32h48l-3 15h-46q-1 14-1 27t-2 25 0 23-1 17q0 19 1 31t4 20 6 11 8 3q6 0 13-6t16-17 16-24 16-30l3-5 10 7-3 5q-11 23-22 41t-22 31-21 19-20 7-17-5-12-14-8-25-3-36m190 52q8 0 17-4t18-14 19-24 20-35l3-5 10 7-3 5q-13 26-26 45t-26 30-24 17-24 6q-16 0-28-7t-21-18-13-26-5-32q0-26 8-48t19-37 27-24 32-8q17 0 26 8t9 22q0 12-7 23t-19 21-28 21-34 21q2 12 6 23t11 18 14 11 19 4m7-135q0-10-5-15t-13-6q-6 0-13 5t-13 14-10 25-4 38v5q9-4 19-11t19-16 14-19 6-20m77 65l-10-7 3-5q3-8 6-16t6-14 3-13 2-8q-6-1-12-3t-11-7-7-10-2-12q0-6 2-10t5-8 7-4 9-2q6 0 10 3t7 6 5 9 1 11q7 0 15-2t16-4 16-4 14-2q6 0 9 2t4 8q0 4-3 13t-5 21-8 26-7 28-6 28-2 24q0 13 3 17t10 5q3 0 8-3t12-11 16-23 22-40l2-5 10 7-2 5q-15 30-26 48t-21 30-19 15-17 5q-14 0-23-11t-9-34q0-13 3-26t9-27 11-26 12-25 11-21 6-18l-1-1q-4 0-11 4t-14 9-18 10-19 6q0 3-2 10t-4 14-6 17-7 16l-3 5m2-105q-2 0-3 1t-2 4q0 3 2 5t3 3 5 2 4 1q0-7-2-12t-7-4" />
</svg>