<svg id="fnt-RocknRoll One" viewBox="0 0 3761 1000" xmlns="http://www.w3.org/2000/svg"><path id="rocknroll-one" class="f" d="M348 641l-36 32q-64-46-113-100t-81-115l59-31q4 6 7 11t7 12q16-2 29-9t23-21 9-36q0-28-17-44t-46-16q-18 0-37 1t-37 2l0 340-62 6-8-341-25 4-10-44q14-3 37-7t49-6 52-5 46-2q58 0 92 29t34 83q0 33-15 55t-41 34-52 15q47 73 136 153m178 31q-44 0-76-18t-49-50-17-76q0-44 17-76t49-51 76-18q44 0 75 18t49 51 17 76q0 44-17 76t-49 50-75 18m8-46q31-2 49-27t17-62q0-4 0-8t0-7q-4-43-24-68t-51-24q-2 0-4 0t-3 0q-31 2-49 27t-18 63q0 3 0 7t0 8q4 42 25 67t51 25q2 0 3-1t4 0m410-34l16 35q-14 20-42 32t-65 13q-38 0-71-16t-54-48-20-80q0-46 19-78t52-50 74-17q34 0 61 11t44 31l-17 38q-13-13-35-21t-43-9q-24 0-43 11t-31 32-11 52q0 45 24 69t62 25q25 0 46-8t34-22m324 68l-69 13-95-132-19 18v108l-58 7-10-407 68 10v227l97-123 74 15-122 117 134 147m281 7l-59 6v-186q0-25-16-39t-36-13-40 12-24 33v187l-61 6-10-292 71 8v33q10-19 29-29t55-10q30 0 53 13t36 35 12 51l-10 185m392-26l-36 32q-64-46-113-100t-81-115l59-31q4 6 7 11t7 12q16-2 29-9t23-21 9-36q0-28-17-44t-46-16q-18 0-37 1t-37 2l0 340-62 6-8-341-25 4-10-44q14-3 37-7t49-6 52-5 46-2q58 0 92 29t34 83q0 33-15 55t-41 34-52 15q47 73 136 153m178 31q-44 0-76-18t-49-50-17-76q0-44 17-76t49-51 76-18q44 0 75 18t49 51 17 76q0 44-17 76t-49 50-75 18m8-46q31-2 49-27t17-62q0-4 0-8t0-7q-4-43-24-68t-51-24q-2 0-4 0t-3 0q-31 2-49 27t-18 63q0 3 0 7t0 8q4 42 25 67t51 25q2 0 3-1t4 0m256 41l-63 6v-406l73 10-10 390m146 0l-62 6v-406l72 10-10 390m418 9q-54 0-93-26t-61-73-21-106q0-60 21-106t61-72 93-26 93 26 61 73 21 105q0 60-21 106t-61 73-93 26m13-57q28-2 49-19t33-47 12-69q0-6 0-11t-1-11q-3-44-19-75t-38-47-52-16q-2 0-5 0t-4 0q-28 2-49 19t-34 46-13 69q0 5 0 11t1 11q4 44 19 75t40 48 53 17q2 0 4-1t4 0m470 48l-59 6v-186q0-25-16-39t-36-13-40 12-24 33v187l-61 6-10-292 71 8v33q10-19 29-29t55-10q30 0 53 13t36 35 12 51l-10 185m305-83l18 34q-15 19-31 31t-37 18-52 5q-43 0-74-19t-48-52-16-73q0-41 17-74t47-52 72-19q40 0 69 18t44 52 16 81v8h-181l-11-39 123-10q-2-26-15-43t-42-17q-34 0-56 25t-21 70q0 33 12 54t31 31 38 11q32 0 57-11t40-29" />
</svg>