<svg id="fnt-Rokkitt" viewBox="0 0 1466 1000" xmlns="http://www.w3.org/2000/svg"><path id="rokkitt" class="f" d="M134 667h-115v-30h37v-232h-37v-30h154q49 0 74 21t24 63q0 42-25 63t-70 21h-8l27-14 67 108h39v30h-69l-76-124h-36v-30h46q34 0 48-14t15-40-14-40-49-14h-69v232h37v30m300 5q-31 0-55-14t-37-38-13-52q0-30 13-54t37-37 55-14q32 0 56 14t37 37 13 54q0 29-13 52t-37 38-56 14m0-30q32 0 51-21t19-53q0-33-19-54t-51-20q-31 0-50 20t-19 54q0 32 19 53t50 21m204-76v73h29v28h-100v-28h34v-236h-37v-28h74v188l86-67h-33v-28h99v28h-31l-95 73 10-17 88 87h37v28h-61l-100-101m242 0v73h29v28h-101v-28h35v-236h-37v-28h74v188l85-67h-33v-28h99v28h-30l-96 73 11-17 87 87h38v28h-62l-99-101m277 101h-104v-28h35v-143h-37v-28h74v171h32v28m-51-236q-12 0-19-7t-7-18q0-11 7-18t19-7q12 0 19 7t7 18q0 11-7 18t-19 7m172 241q-30 0-49-17t-19-52v-107h-37v-28h37v-66l37-7v73h56v28h-56v102q0 24 10 33t28 9q7 0 13-1t12-4l5 28q-7 4-17 6t-20 3m150 0q-30 0-49-17t-19-52v-107h-37v-28h37v-66l37-7v73h56v28h-56v102q0 24 10 33t28 9q7 0 13-1t12-4l5 28q-7 4-17 6t-20 3" />
</svg>