<svg id="fnt-Romanesco" viewBox="0 0 1332 1000" xmlns="http://www.w3.org/2000/svg"><path id="romanesco" class="f" d="M133 621q-5-16-8-29t-5-26-4-27-4-29q21-9 38-19t28-24 17-30 5-38q0-2 0-8t-2-12-4-11-5-5-8 4-12 10-13 14-13 14q-7 21-15 45t-16 48-16 49-15 47-13 41-10 32q-7 1-14 1-6 0-14 0t-17-1l-1-3q3-5 9-21t14-37 17-48 18-54 17-53 16-48 11-36 4-19q0-3-1-5-9 1-18 2t-16 4q-3 1-7 4t-7 7-5 9-2 11q0 3 1 7t1 10l-2 3q-13-9-20-19t-8-18q0-5 4-11t8-11 10-8 10-4q16 0 34 1t38 2q4 0 8 0t6 0 7-1 8 0l1 2q-2 6-7 19t-11 32q8-10 16-19t17-18 16-13 12-6q6 0 12 4t11 11 7 16 3 19q0 25-7 46t-20 36-30 27-37 19q2 10 4 22t4 25 6 29 7 30q5 20 10 34t11 24 11 15 12 10l-3 6q-9-1-20-5t-22-13-21-23-16-39m100-81q6-14 14-26t19-19 22-12 23-4q5 0 11 2t12 8 9 12 3 15q0 7-1 16t-5 19-6 19-6 18-5 13-3 8q-6 14-15 26t-18 19-22 12-23 4q-5 0-11-3t-12-7-9-12-3-15q0-8 1-17t5-19 6-19 6-17 5-14 3-7m68-48q-6 0-13 10t-12 25-13 34-10 35-8 30-3 17q0 7 3 10t7 3q5 0 9-6t10-15 9-22 10-26 8-26 6-24 5-20 1-11q0-7-2-11t-7-3m104 175l-2-3q3-8 9-23t11-32 12-35 10-32 8-25 3-12q0-4-2-4-3 0-8 5t-11 13-13 17-12 15q-5 15-11 30t-11 32-9 29-8 25q-2 0-6 0-5 1-14 1-4 0-9 0t-9-1l-2-3q2-2 5-10t7-18 8-24 10-27 9-27 8-24 5-19 2-10-1-4-1-3q0-1-1-2v-3q5-4 13-7t15-4q8-2 17-3l0 1q0 3-1 9t-3 14-3 15-3 11q7-9 14-19t15-17 12-12 10-4q2 0 6 1t8 5 7 7 4 11q0 2-3 10t-5 18q7-10 15-19t15-17 13-12 10-4q2 0 6 1t9 5 8 8 4 13q0 2-3 11t-9 21-11 26-11 29-8 26-3 19q0 3 0 4t3 2q3 0 8-3t12-8 16-12 16-18l5 5q-10 13-23 25t-25 20-23 14-18 5q-1 0-3-1t-4-3-4-6-1-10q0-3 1-7t1-10 2-8 2-6q2-9 6-20t9-22 9-23 9-21 6-17 3-11q0-4-2-4-2 0-8 5t-12 12-13 15-13 15q-6 22-12 39t-9 31-9 26-6 23q-3 0-6 0-6 1-15 1-4 0-8 0t-9-1m312-70l5 5q-11 13-23 25t-24 22-22 14-18 6q-1 0-3-1t-3-3q-3-5-4-12t-1-14q0-2 1-5t1-8q-8 9-17 17t-16 14-15 9-9 4q-2 0-3-1t-2-4-2-5-1-6q-1-8 1-18t3-21 6-21 6-18 5-15 3-7q1-3 3-7t6-8 5-8 6-7q6-5 14-11t19-11 21-11 20-10 18-6 11-2q3 0 6 0t4 1l1 1q-3 3-7 11t-9 20-9 24-10 27-9 26-7 23-5 18-2 9q0 5 4 5 2-1 7-3t13-8 15-12 17-18m-115 38q2 0 5-3t7-5 8-8 8-9q2-9 5-19t7-21 7-22 7-20 7-17 5-14q-3 1-10 4t-14 8q-7 5-12 16t-11 23-9 26-7 26-4 20-2 10q0 1 1 3t2 2m129 32q-2 0-5 0-6 1-15 1-4 0-9 0t-9-1l-2-3q2-2 5-10t7-18 9-24 9-27 9-27 8-24 5-19 2-10 0-4-2-3q0-1-1-2v-3q6-4 13-7t15-4q8-2 17-3l1 1q0 3-2 10t-3 14-3 15-3 11q8-9 15-19t15-17 14-13 10-4q2 0 6 1t9 5 8 8 4 13q0 2-4 11t-8 21-11 26-11 29-8 26-3 19q0 3 0 4t3 2q3 0 8-3t12-8 16-12 16-18l6 5q-11 13-24 25t-25 20-23 14-18 5q-1 0-3-1t-4-3-4-6-1-10q0-3 1-7t1-10 2-8 2-6q2-9 6-20t9-22 9-23 9-21 7-17 2-11q0-4-2-4-2 0-8 5t-13 14-15 16-12 16q-6 15-11 30t-11 31-9 29-8 25m154 3q-5 0-10-3t-10-10-7-12-3-12q0-8 2-17t4-19 6-20 7-18 5-14 4-8q4-11 15-22t23-20 24-14 23-5q7 0 12 9t5 21q0 7-3 13t-8 12-10 11-10 8l-51 39q-5 17-8 30t-2 17q0 7 2 11t8 4q13 0 26-13t28-41l7 4q-7 16-16 28t-18 22-22 14-23 5m65-180q-5 0-11 8t-11 19-11 28-10 30l42-33q3-10 5-20t3-16q0-2-1-5t-1-5-2-4-3-2m115-15q5 0 9 3t6 9 2 13-1 15q-2 9-8 14t-12 9q-7 4-16 6 5-10 7-17t1-13q0-2 0-5t-2-5-2-3-3-2q-3 0-6 2t-5 4-5 7-2 9q0 2 2 8t5 14 6 19 6 20 5 19 2 16-5 14-11 12-14 12-15 9-13 6-6 2q-3 0-6 0t-6-2q-3-2-6-6t-6-8-5-11-3-10l30-27q2 11 5 20 1 4 3 8t4 7 5 4 5 2q5 0 8-4t3-11q0-2-2-9t-5-16-6-20-6-20-5-15-2-8q0-5 2-11t5-11q1-2 5-6t11-10 13-11 13-11 12-8 9-3m55 176q13 0 27-13t27-41l7 4q-6 16-15 28t-19 22-21 14-23 5q-6 0-11-4t-10-9-7-12-3-12q0-8 2-17t4-19 6-20 6-18 5-14 4-8q5-11 14-22t21-20 25-14 25-5q4 0 7 3t7 6 4 9 2 12q0 10-3 16t-7 11-9 8-9 3-8 2-4 1q2-6 4-11t3-12 1-10 1-8q0-2-1-5t-1-5-2-4-3-2q-4 0-9 6t-9 14-10 22-8 25-8 25-6 24-4 19-2 11q0 7 3 11t7 4m97-111q5-14 14-26t19-19 21-12 24-4q5 0 11 2t12 8 9 12 3 15q0 7-2 16t-4 19-6 19-6 18-5 13-4 8q-5 14-14 26t-19 19-21 12-23 4q-6 0-12-3t-11-7-9-12-4-15q0-8 2-17t4-19 6-19 6-17 5-14 4-7m67-48q-5 0-12 10t-13 25-12 34-11 35-7 30-3 17q0 7 3 10t7 3q4 0 9-6t9-15 10-22 9-26 8-26 7-24 4-20 2-11q0-7-3-11t-7-3" />
</svg>