<svg id="fnt-Ropa Sans" viewBox="0 0 1922 1000" xmlns="http://www.w3.org/2000/svg"><path id="ropa-sans" class="f" d="M125 333q59 0 87 23t28 65v12q0 29-16 51t-46 32l85 151h-48l-79-142q-4 0-16 0-20 0-40-1v143h-42v-332q56-2 87-2m-1 36q-17 0-44 1v118q27 3 45 3 72 0 72-59v-10q0-27-17-40t-56-13m257 48q44 0 66 23t22 68v74q0 43-22 67t-66 24-67-24-21-67v-74q0-44 21-68t67-23m0 35q-22 0-34 14t-12 38v81q0 25 12 39t34 13 33-13 12-39v-81q0-25-12-39t-33-13m259-35q31 0 49 21t17 62v89q0 39-20 61t-55 23q-13 0-28-6t-27-12v104h-42v-336h40v35q27-41 66-41m-9 38q-14 0-29 10t-26 30v122q11 9 23 13t24 5q41 0 41-52v-77q0-51-33-51m213-38q43 0 63 19t20 61v170h-41v-39q-29 45-65 45-29 0-47-20t-17-55v-14q0-30 21-50t55-19q19 0 51 6v-27q0-22-10-31t-30-10q-24 0-67 8v-37q47-7 67-7m-1 131q-21 0-32 11t-11 31v5q0 19 9 29t21 11q14 0 28-12t26-33v-39q-19-3-41-3m326-215q27 0 70 8l-1 38q-41-8-69-8-29 0-42 11t-13 35v13q0 13 3 20t12 12 26 11l46 16q34 11 47 30t14 56v9q0 45-26 67t-84 22q-28 0-73-10l1-39q42 10 71 10 38 0 53-11t16-35v-17q0-17-8-27t-27-15l-52-17q-34-12-48-30t-13-55v-6q0-43 23-66t74-22m220 84q43 0 63 19t20 61v170h-41v-39q-29 45-65 45-29 0-47-20t-17-55v-14q0-30 21-50t55-19q19 0 51 6v-27q0-22-10-31t-30-10q-24 0-67 8v-37q47-7 67-7m-1 131q-21 0-32 11t-11 31v5q0 19 9 29t21 11q14 0 28-12t26-33v-39q-19-3-41-3m258-131q32 0 49 21t17 62v167h-42v-161q0-50-33-50-14 0-29 11t-26 30v170h-43v-244h40v36q14-20 30-31t37-11m206 0q21 0 51 6l-1 36q-26-6-48-6-45 0-45 29v4q0 9 5 15t17 11l47 22q43 20 43 59v11q-1 34-21 51t-64 18q-22 0-64-11l2-38q37 11 61 11 25 0 34-7t10-22v-5q0-12-5-19t-16-12l-48-21q-22-10-33-24t-10-33v-7q1-34 21-51t64-17" />
</svg>