<svg id="fnt-Rosario" viewBox="0 0 1561 1000" xmlns="http://www.w3.org/2000/svg"><path id="rosario" class="f" d="M43 336l-7-33h108q35 0 63 8t44 31 16 61q0 20-9 39t-26 32-34 20l102 173h-54l-94-164h-63v164h-46v-331m101 1h-55v132h40q25 0 45-6t33-20 12-43q0-21-11-35t-27-21-37-7m272 336q-37 0-62-18t-37-48-12-63q0-25 8-49t22-42 35-30 49-11q37 0 61 18t37 48 13 63q0 26-8 49t-22 43-35 29-49 11m0-31q20 0 33-10t21-24 12-32 4-33q0-17-4-34t-10-32-21-24-33-9-33 9-21 24-11 32-4 34q0 15 4 32t11 33 21 24 31 10m258-230q17 0 33 4t31 14l-14 32q-11-9-25-14t-26-4q-19 0-33 8t-13 26q0 12 5 20t16 13 20 11q13 6 25 12t24 15 17 21 7 31q0 25-12 41t-32 24-43 7q-20 0-40-5t-37-16l18-30q12 9 27 14t29 6q19 0 33-9t14-27q0-13-8-21t-19-15-25-12q-15-8-30-17t-23-22-9-34q0-24 13-40t33-25 44-8m219 0q40 0 60 22t20 60v125q0 10 4 14t9 4q5 0 10-2t9-3l9 27q-8 5-20 8t-25 4-24-7-13-27q-14 16-34 25t-41 10q-29 0-49-17t-19-48q0-29 13-46t36-25 47-12 46-3v-26q0-14-3-26t-13-18-25-6q-19 0-37 7t-35 22l-20-29q20-17 45-25t50-8m38 158v-16q-13 0-30 1t-33 6-27 15-10 29q0 17 11 24t29 8q18 0 31-10t21-25 8-32m107-151l45-5q9 22 12 46 13-20 35-33t46-13l-10 44q-24 0-41 12t-29 32v165h-42v-180q0-10-1-23t-5-24-10-21m243-84q0 12-9 21t-22 9q-12 0-21-9t-9-21 9-22 21-9 22 9 9 22m-57 83h48v249h-42v-219l-6-30m222 255q-36 0-61-18t-37-48-12-63q0-25 7-49t22-42 36-30 48-11q37 0 62 18t37 48 12 63q0 26-7 49t-22 43-36 29-49 11m1-31q19 0 32-10t22-24 12-32 3-33q0-17-3-34t-11-32-21-24-32-9-33 9-21 24-12 32-3 34q0 15 3 32t11 33 21 24 32 10" />
</svg>