<svg id="fnt-Rouge Script" viewBox="0 0 2005 1000" xmlns="http://www.w3.org/2000/svg"><path id="rouge-script" class="f" d="M194 387q6 0 8 4l0 2q-17 0-25 21t-13 61q34 6 52 40 26-17 40-44t14-55q0-27-20-46t-58-20q-72 0-112 52-27 36-27 77t21 56q9 6 19 6-4 9-12 9-30 0-42-32-6-15-6-34t9-44q18-52 66-79 37-21 84-21 34 0 58 11t34 28q11 18 11 40 0 21-8 41t-25 38-40 30q10 26 18 97 3 22 8 44 10 46 44 46-1 7-10 7-49 0-60-47-5-22-6-44t-3-51-5-46q-22 8-47 8h-4q-11 87-38 119-11 13-28 22t-38 8-36-7q-14-7-20-18-9-17-9-30t4-26 12-23q7-11 20-18 12-8 26-8 8 0 12 6l0 2q-34 0-53 30-10 16-10 34 0 8 2 16 9 32 44 32 17 0 30-9t22-21 16-32q11-32 19-82-15-5-22-15t-6-15q0-5 0-7 2-10 12-18t27-9q5-27 11-45t16-29 24-12m-35 144h1q23 0 44-9-12-32-40-38l-5 47m-18-49q-14 1-20 9t-6 12q0 16 19 24 4-30 7-45m179 132q0 42 23 42 15 0 28-19 25-35 31-93-14-6-20-19-3-9-3-15t1-10q4-11 14-11t14 13q5 12 5 31 0 1 0 2 5 2 14 2t17-8 7-14q0-1 2-2 2 0 4 0 2 1 2 3 0 11-10 22-10 10-26 10-4 0-11-1-2 28-11 54t-25 46-34 20q-35 0-43-38-2-10-2-22 0-25 11-54 16-37 38-46 12-4 16-2 4 3 6 7-19 0-33 34-15 35-15 68m260 43q10 0 29-28 19-27 33-55l13-27h11q-2 4-6 13-4 8-15 29-11 21-22 37t-22 29-24 13-19-7q-8-9-8-31t7-58h-3q-46 95-76 95-27 0-27-35 0-25 22-101 5-17 7-25t8-9q7 0 10 10 2 5 2 11t-2 15-9 30q-17 59-17 79 0 13 8 13 10 0 24-18 14-18 23-36t15-29q6-11 11-23t9-20 7-16q3-7 3-8 4-8 8-8 7 0 10 10 2 5 2 12t-2 14q-1 8-5 22t-5 24q-2 9-5 22-4 22-4 39t9 17m182-136q10 0 10 16 0 12-13 70t-24 95q-10 37-19 56t-23 36-28 25-36 7q-38 0-38-39 0-22 17-49 25-39 66-51 15-4 31-4 3 0 3 5t-3 6q-47 0-79 37-24 28-24 54t20 30l7 0q33 0 52-27 19-27 31-69 11-43 28-133h-3q-43 81-71 81-32 0-32-48 0-27 15-60 20-44 51-58 10-4 21-4t18 6 6 14q0 4-4 4t-3-4-4-7-11-3q-25 0-46 46-19 42-19 79 0 23 10 23 13 0 34-31 32-47 50-92 5-11 10-11m58 87q0 49 34 49 13 0 27-12t26-27q26-37 36-60l5-11h11q-7 16-20 39t-25 39-28 29-32 13q-59 0-59-66 0-31 18-62 25-42 61-42 26 0 26 28 0 20-16 43-22 30-52 31-5 0-6-4l0-2q20 0 39-27t19-46q0-13-9-13-21 0-40 38-15 31-15 63m276 63q-13-24-13-58 0-31 10-56 11-24 24-39t30-24 39-9q29 0 46 16l52-44q-1-14-1-28 0-88 47-88 12 0 18 8t8 22q0 19-12 38-13 19-37 42 12 83 12 113 0 29-7 57-8 28-24 51-15 23-42 35-28 13-64 13-51 0-78-35-7 25-7 57t17 58 44 26q2 0 2 4t-2 4q-32 0-52-30-20-29-20-66t10-67m190-201l-47 39q11 15 11 34t-6 34q-6 15-20 26t-34 12q-4 0-6-2t-3-7q17 0 31-16 21-22 21-50 0-12-4-23-45 39-76 76-31 36-45 80 23 36 72 36 30 0 52-12t36-34q25-43 25-103 0-15-7-90m-63 39q-13-14-35-14t-41 11q-33 20-47 67-7 20-7 42 0 23 8 43 27-69 122-149m80-100q0 11 2 29 40-39 40-66 0-21-15-21-27 0-27 58m82 201q0 47 33 47 12 0 27-12t25-27q26-37 36-60l6-11h10q-6 16-20 39t-25 39-28 29-31 13q-42 0-53-38-4-12-4-30 0-18 11-44 17-40 45-53 11-5 22-5t18 6q7 7 7 16 0 10-2 18t-8 14-14 6q-3 0-4-4 3 0 8-12 6-11 6-22 0-12-10-12-21 0-38 35-17 35-17 68m121 57q-11 0-11-18 0-9 22-134 2-8 7-8 8 0 11 10 2 6 2 13t-1 14l-7 33h2q35-80 63-80 16 0 22 15 2 6 2 14t-5 17q-7 16-23 16-3 0-5-2t-2-4q3 0 9-12t6-22-7-12q-14 0-33 37-20 36-31 69t-14 44-7 10m177-240q9 0 9 12t-12 20q-6 4-10 4-7 0-8-4l0-1q3 0 5-8t5-15 11-8m-26 230q11 0 29-28 19-27 33-55l13-27h11q-2 4-6 13-4 8-15 29-11 21-21 37t-23 29-22 13q-30 0-30-39 0-28 17-93 1-7 2-11t3-9 2-11q2-8 7-8 7 0 11 10 1 5 1 12t-1 14q-2 8-6 22t-5 24q-2 9-5 22-4 22-4 39t9 17m124-1q15 0 33-41 19-44 19-80 0-25-13-25-12 0-28 20t-29 47q-27 60-34 89-21 96-29 119-14 41-32 41-14 0-14-19 0-11 4-30 13-44 39-85l11-15q4-18 10-52 12-68 17-90t13-31q7-8 12-8 10 0 8 8-10 33-21 78h3q39-85 70-85 26 0 32 32 2 11 2 22 0 26-12 57-16 44-44 55-9 4-17 4-20 0-23-22 0-3 2-5t4-1 4 4q2 13 13 13m-115 159q16 0 39-120-24 36-38 81-7 20-7 30t6 9m217-323q0-5 6-5h21q2-8 5-20l5-20q3-10 5-17t7-8q6 0 9 11 1 4 1 10t-2 17l-8 27h25q4 0 5 3t0 4-5 3h-27q-25 93-25 132 0 28 13 28 10 0 29-28 19-27 33-55l13-27h11q-2 4-6 13-4 8-15 29-11 21-22 37t-22 29-24 13-18-7-10-20-3-27q0-31 23-117h-18q-3 0-5-2t-1-3" />
</svg>