<svg id="fnt-Rozha One" viewBox="0 0 2428 1000" xmlns="http://www.w3.org/2000/svg"><path id="rozha-one" class="f" d="M115 397v129q50 0 67-15t17-48-17-50-67-16m197 265v10h-22q-63 0-87-27-20-21-27-56-3-14-6-26-8-27-33-27h-22v121h25v10h-125v-10h25v-260h-25v-10h132q127 0 127 74 0 30-21 48t-55 19v3q50 0 69 66 10 35 20 50t25 15m107-26q11 26 38 26t39-26 11-84-11-85-39-25-38 25-11 85 11 84m37 36q-47 0-86-31t-38-88q0-31 11-55t30-38 40-21 44-7 44 7 41 21 30 38 12 54-12 54-30 37q-38 29-86 29m371-5h-223v-8l141-212h-29q-89 0-89 82h-8v-92h211v6l-140 214h30q27 0 44-3t30-12q26-18 26-75h7v100m305-139v129h25v10h-125v-10h25v-140q0-36-10-51t-32-15q-28 0-45 30v176h25v10h-125v-10h25v-315h-25v-10h100v131q9-14 29-23t44-9q89 0 89 97m303 129q-5 5-19 8t-33 4q-41 0-51-24-25 26-77 26-27 0-45-13t-18-38q0-33 26-52t91-25l20-3v-24q0-44-6-59t-26-15-25 5-4 12 5 18 4 18q0 15-11 26t-26 11-26-11-11-26q0-26 26-44t78-18 75 20 22 73v90q0 26 7 33t24 3v5m-173-47q2 19 14 29t26 11 27-15v-85l-18 2q-23 3-37 18t-12 40m511-84q0-64-18-100t-47-35-48 36-17 100 16 100 49 35q65 0 65-136m80 3q0 69-40 106t-106 37-105-37-40-106 40-108 106-40 106 39 39 109m293-1v129h25v10h-125v-10h25v-140q0-36-11-51t-31-15q-29 0-46 30v176h25v10h-125v-10h25v-210h-25v-10h100v26q10-13 30-23t44-9q89 0 89 97m281 39h-151q5 88 68 88 17 0 39-8t32-23l7 5q-11 19-38 31t-53 12-47-6-41-17-31-38-11-60q0-61 33-90t81-29 80 32 32 103m-152-16v6h82q0-46-10-81t-31-34-31 33-10 76" />
</svg>