<svg id="fnt-Rubik Gemstones" viewBox="0 0 4581 1000" xmlns="http://www.w3.org/2000/svg"><path id="rubik-gemstones" class="f" d="M52 668l-14-39-16-15 16-15-18-14 18-13-10-12 10-12-18-20 18-20-15-14 15-14-17-10 17-10-17-15 17-15-18-16 18-16-17-16 17-16-12-16 12-16 12-20 19 13 10-13 10 13 17-16 17 16 14-16 14 16 10-15 10 15 22-11 20 12 12-9 8 12 17-11 9 17 25-6 10 25 23 5 2 23 23 13-11 23 18 19-18 19 6 19-17 12 7 22-23 0-7 21-22 1 17 2-8 15 22 12-2 25 22 2-10 20 17 7-4 18 17 5-5 16-12 18-14-16-13 16-13-16-13 19-13-19-19 15-16-19-20-5 8-19-19-10 5-22-18-11 4-20-12-5 2-13-15 17-14-17 9 13-15 5 10 17-10 17 7 18-7 19v16l-16 4-20 11-20-11-12 13-12-13-11 11m113-307l6-9-10-11-10 11 5 10 9-1m-96 4l2-15-14-4-10 11 7 15 15-7m223 48l6-35-33-2-12 19 9 23 30-5m-142 50l10 10 10-9 10 9 9-7 10 5 5-10 11-1-5-12 12-7-6-9 3-11-11-4-1-12-12 4-8-9-9 5-10-5-10 6-9-6 4 10-10 4 9 9-9 10 9 10-9 10 7 10m-78-51l-10-6-11 6 6 10 8-2 7-8m36 25l6-5-6-7-8 3-1 9 9 0m165 15l1-8-8 1-3 6 5 6 5-5m28 34l11-14-16-14-12 13 0 18 17-3m-176 0l6-11-11-7-12 8 6 11 11-1m117 6l-2-21-21-1-8 18 15 9 16-5m13 24l0-4-5-2-2 5 4 3 3-2m-27 18l-5-9-9-4-1 11 6 6 9-4m-111 6l-13-12-14 2 2 13 11 9 14-12m115 30l5-9-9-8-13 5 5 14 12-2m-127 11l-6-18-16 9-3 14 15 7 10-12m171 51l7-24-19-13-11 16-2 21 25 0m-215-10l2-10-8-6-9 6 5 10h10m57-7l-13-8-9 7-2 14 13-3 11-10m377 60l-27-9-15 16-8-21-17 10-1-19-21 3 2-21-23-7 8-23-20-7 15-15-14-10 12-12-19-16 19-16-11-13 11-13-10-15 10-15-10-14 10-14-19-12 19-12 4-16 15 8 20-20 19 20 16-17 16 17 16-4 7 14 7 10-7 10 13 16-13 16 13 11-13 10 7 21-7 21 9 14-8 14 15 6 6 15 11-18 19 11-8-16 16-8-14-11 14-11-14-15 14-15-9-19 9-20-10-19 10-19 7-14 15 0 16-18 16 18 21-18 20 18 15 9 2 17 19 12-19 12 13 11-13 11 17 16-17 16 13 20-13 20 11 15-11 15 18 17-18 18 11 10-11 10 0 15-13 6-17 12-17-12-15 12-16-12-11 10-9-10-20-6 5-6-4-11v15l-16-2-7 21-21-10-15 12m118-231l9-15-14-12-13 10 4 13 14 4m-161 11l12-12-15-9-18 3 8 16 13 2m-30 6l-12-8-14 4 3 16 14 0 9-12m210 49l-11-40-50 13 14 44 35 20 12-37m-153 26v-17l-16-8-13 15 9 22 20-12m-2 65l7-27-23-10-22 12 12 23 26 2m33-5l2-8-6-1-3 3 1 5 6 1m87 24l8-27-25-4-13 11 2 25 28-5m71 0l-16-16-23 3 7 20 15 9 17-16m-187 23l-4-12-12-5-9 13 12 11 13-7m441 32l-27-9-15 15-7-19-26 3-9-25-4 20-21 2-11 19-10-19-15 16-15-16-21 9-15-18-15-16 15-16-17-18 17-18-19-10 19-10-16-11 16-11-13-10 13-10-14-18 14-18-18-21 18-21-13-13 13-13-18-19 18-19-12-14 12-14-15-14 15-14 6-14 14 6 18-14 17 14 13-11 13 11 13-11 11 12 20 19-16 22 12 14-12 13 16 18-16 18 11-2 6-11 25 2 10-20 16 16 10-16 10 17 16-10 9 16 24-1 7 22 17 6-1 18 18 6-10 16 13 9-9 13 11 15-10 15 16 17-17 16 11 20-17 14 10 17-20 5-1 26-26 4-9 19-20-7-13 11m-110-313l3-9-7-13-14 10 4 16 14-4m-16 20l-8-3-7 2 2 9h8l5-8m105 56l12-9-12-9-13 3-1 15h14m-37 4l-2-9-9 4-2 11 10 0 3-6m-70 48l3-21-13-19-25 14 8 29 27-3m52-14l1-13-6-10-11 7 2 12 14 4m145 2l-7-10-12 8 5 13 15 3-1-14m-102 5l-1-4-4-3-2 6 4 2 3-1m-30 90l14 14 3-14 13 2-6-12 12-7-8-11 9-9-8-10 7-10-9-8 2-11-13 2-4-12-9 9-11-7-1 13-12 2 7 11-10 9 7 10-7 10 6 9-4 11 11 5-2 13 13-9m91-50l-9-20-23-3-7 23 19 8 20-8m-134 28l-32-37-29 35-6 46 56 7 11-51m169 51v-35l-36 3-13 29 25 18 24-15m-144-5l2-4-3-3-3 2v5h4m41 47l7-19-9-18-22 9 4 21 20 7m205-260l-28-46-10-13 10-14 11-19 21 5 10-14 9 14 21-14 21 14 16 9-8 17 12 20-12 21-7 14-15-4-16 12-15-12-20 10m13-54l0-15-14-3-6 12 7 13 13-7m23 7v-5l-3-1-4 2 2 5 5-1m-46 341l-21-29-11-18 11-18-12-14 12-13-16-12 16-12-11-19 11-19-18-12 18-12-10-12 10-12-15-14 15-14-10-10 10-10 5-15 16-1 12-13 12 13 16-13 17 13 14-8 12 10 15 18-12 20 11 12-11 12 13 20-13 20 18 13-18 13 15 14-15 14 19 20-19 19 19 18-19 18 4 17h-17l-15 15-15-15-15 13-16-13-12 16m23-242l-10-16-13 6-3 12 12 9 14-11m58 25l-9-17-16-2-8 17 15 14 18-12m-48 42l12-27-30-3-22 15 16 26 24-11m36-3l1-4-3-1-4 1 1 4h5m-18 65l-11-23-24 3-3 22 18 10 20-12m16 40l-2-9-10-4-6 10 9 8 9-5m-32 0l-12-8h-15l2 16 14 3 11-11m12 20l-3-3-4 2 2 4 3 0 2-3m29 17l4-10-10-7-5 10 0 11 11-4m91 35l-26-38-19-17 19-17-16-17 16-17-13-10 13-10-12-20 12-20-19-15 19-15-15-18 15-18-10-21 10-21-16-16 16-16-10-10 10-10-10-17 12-15 8-16 12 14 16-12 16 12 18-15 18 15 14-2v14l19 14-19 14 15 18-15 18 13 20-13 20 12 12-12 12 8 15v1l12 0v-17l15-8 3-22 18-12 11-12 13 10 10-14 11 14 21-15 21 15 18-1 6 17 2 14-14 2 8 21h-22l2 16-16 4 3 14-14 2 14 22-23 12 21 8-1 22 24 7-4 25 18 8 1 20 18 10-1 22-5 18-13-13-18 15-18-15-17 15-16-15-15 18-14-19-15-2 1-15-17-6 3-18-18-12-2-22-10 14-9-15 9 16-9 16 8 14-8 14-10 17-20 0-15 10-15-10-18 15m7-307l-6-12-12 1-3 10 10 5 11-4m38 26l-5-15-15 1v13l7 6 13-5m-35 25l-5-11-12-3-2 13 9 9 10-8m183 15l-4-11-15-4 1 15 8 8 10-8m36 13l1-5-3-3-5 2 2 5 5 1m-83 50l3-8-3-8-13 2 5 10 8 4m-21 7l-4-6-6 1-4 7 8 3 6-5m-8 32l-7-8-12 6 8 9 9 4 2-11m-69 25l6-20-17-11-21 10 9 25 23-4m-51-2l-2-5-7 1-1 8 7 1 3-5m204 54l2-36-33-1-26 22 26 26 31-11m-139 28l-3-26-29-5-13 27 23 15 22-11m131 5l-3-4-5 2 1 5 4 1 3-4m372 28l-41-15-17 13-13-17-15 14-6-20-25 7-9-24h-27v-27l-25-11 7-27-21-9 17-16-15-13 14-13-11-18 11-17-14-12 14-12-10-20 13-18-6-21 17-11-1-25 23-4 11-19 21-2 9-23 22 12 9-18 15 14 21-13 23 11 10-10 10 11 18-15 13 20 20-13 9 22 18-5 7 17 15-4 2 16 18 0-2 18 18 1-8 16 5 15-8 13-12 7-12-7-11 9-11-9-13 9-14-9-19 6-18-8-21-2-10-20-14 13-14-12-7 15-16 0 10 22-20 14 12 21-12 21 12 14-12 14 9 12-7 12 18 10 2 21 20-10 15 17 11-22 24 8-9-21 20-10-13 3-1-14-18-3-5-18-10-18 10-18 9-12 13 7 15-9 15 9 19-12 18 12 21-7 21 7 17 11-3 20 16 19-16 18 16 21-21 15 6 14-14 7 1 27-26 6-9 24-25-3-15 15-21-3-9 18-13-15-15 16m-67-293l-16-30-33 15 5 31 29 13 15-29m42-22l-1-4-2-2-3 2 2 3 4 1m123 19l6-7-8-4-9 3 4 9 7-1m-240 44l-3-10h-14v14l11 8 6-12m17 58l-2-15-14-7-7 14 8 8 15 0m188 14l4-10-9-6-10 6 4 12 11-2m51 3l-4-11-8-2-4 7 3 11 13-5m-228 38l5-9-8-6-7 5-1 10 11 0m219 35l13-21-14-28-28 16 2 29 27 4m-264-19l4-5-6-3-5 2 0 7 7-1m59 9l-4-5-8 3 1 9 8-1 3-6m-26 5l2-6-6-2-6 5 5 4 5-1m53 5l1-5-3-2-4 1 1 4 5 2m-65 22l-3-10-11 2-3 10 9 2 8-4m171 20l-14-10-14 6 2 14 14 2 12-12m-118 35l3-5-4-5-6 4 2 5 5 1m436 33l-32-15-15 16-13-19-22 11-12-21-18 7-3-19-26-2v-26l-22-6 10-21-18-14 12-20-11-12 10-13-15-13 18-9-8-22 19-13-3-16 16-4-1-22 22 3 10-23 24 6 6-21 16 16 16-12 18 9 20-15 18 18 21-10 11 21 17-5 4 17 20 3 2 20 20 4-7 19 19 12-10 21 21 8-19 12-2 18-14 11-11 8-11-8-16 8-16-8-12 10-12-10-21 8-20-8-8 18h-19l12 6-5 13 18-12 20 5 15-12 17 9 17-12 16 12 19-11 19 11 11 16-13 14-3 18-19 3-10 21-23-4-10 16-16-9-18 19m-47-223l11-13-11-14-19 6 0 22 19-1m-53 32l14-22-12-29-34 12 12 27 20 12m91-39l-3-6-6 2-4 7 10 5 3-8m42 23l3-22-20-5-7 14 6 10 18 3m-74 24l16 10 10-8 10 8-4-11 12-1-12-7 7-12-12 0-4-11-7 11-12-6 1 11-10 6 5 10m-17 16l-7-8-8 3 1 8 8 5 6-8m116 14l0-10-8-6-8 8 5 10 11-2m36-8l-4-4-6 0v6l5 3 5-5m-136 6l-2-6h-6l-4 5 6 4 6-3m-77 19l-9-11-17 8 7 18 17-1 2-14m87 2l-8-4-9 2 5 8 8 3 4-9m103 61l-8-14-16 0-3 16 13 3 14-5m-148 10l1-17-15-3-7 9 7 9 14 2m71 6l-5-7-8 4 1 10 10 1 2-8m186 47l-20-29-15-19 15-19-13-20 13-21-17-18 17-18-17-17 17-17-11-18 11-18-17-15 17-15 10-14 16-2 20-11 20 11 20-5 14 15 7 4 4-10 23 3 4-19 16 10 20-18 23 16 17-9 9 17 20 4 3 19 8-19 8 19 6-20 21-1 7-23 20 13 10-18 12 17 19-15 10 22 21 1 6 20 21 2-8 19 20 7-13 18 11 9-9 11 15 16-14 16 17 16-17 16 11 13-11 13 19 14-19 14 18 17-18 17-7 16-16-7-10 17-10-17-19 10-19-10-19 4-5-19-10-16 10-16-8-14 8-14-13-16 13-17-10-17 10-17-14-13-1-19-11 14-13-12 3 22-14 18 9 21-9 21 9 16-9 17 8 16-8 16 8 15-14 10-15 18-15-18-12 13-12-13-13 13-13-13-15-4-4-15-13-15 13-15-9-20 9-19-9-10 9-10-9-16 9-16-15-13 2-20-12 13-15-11 3 13-12 6 10 16-11 16 14 21-14 21 13 10-13 11 13 17-13 17 13 12-15 8-9 18-13-15-14 14-14-14-12 19-12-19-11 10m274-228l3-11-11-10-6 13 2 11 12-3m-53 49l-11-39-37-3-25 34 35 32 38-24m-216-37l1-4-5-1-2 4 3 3 3-2m377 4l-6-6-8 0-2 9 9 2 7-5m-30 4l-8-9-7 6v7l8 5 7-9m-253 17l7-14-16-4-8 9 2 16 15-7m207-5l-8-9-10 5 1 9 10 6 7-11m67 29l3-14-13-5-12 10 11 9h11m-339 8l-14-8-11 8 5 11 14 5 6-16m319 12l-10-12-12 9 2 14 12-2 8-9m-148 28l-2-8-7-1-3 6 4 6 8-3m-145 3l-16-11-11 11 2 14 16 3 9-17m100 16l-5-4-6 2 1 8 7-1 3-5m158 28l0-13-15 1-3 14 11 10 7-12m-294 23l7-13-13-6-10 6 2 13 14 0m304 11l3-8-4-8-10 3 4 9 7 4m-256 2l4-15-15 1-8 10 9 9 10-5m138 5l-5-4-4 3 0 6 6-1 3-4m-28 17l3-3-4-2-5 1 2 5 4-1m399 24l-19-15-17 14-15-17-15 12-9-16-25 5-13-22-23-6-4-24 3-16 15-5 11-11 12 11 15-11 15 11 11-13 10 13 16-4 7 15 9-18 7 1-2-11-17 9-11-16-14 10-10-15-13 6-8-12-17 4-6-16-21-10-6-22-14-12 10-16-3-22 17-15 6-20 21-3 6-21 19 11 18-14 23 6 13-12 13 12 12-15 8 17 22-8 16 18 26-3 10 24 17 4v18 16l-15 4-14 12-15-12-12 7-12-7-22 9-16-18-15 7-14-8 12 9-3 15 14-4 9 11 17-8 13 13 15-5 11 11 23-3 11 21 21 9 3 23 11 13-8 15 5 21-17 12-3 24-24-2-7 22-21-10-17 18-22-11-14 16m26-253l-3-3-5 1 3 4 3 1 2-3m25 27l-13-9-15-2-1 19 16 3 13-11m-129 75l26-37-32-20-33 1 7 34 32 22m82-5l-2-7-8-4-1 8 4 6 7-3m43 52l0-27-27 6-11 21 21 9 17-9m43-6l4-3-4-3-5 1-1 6 6-1m-74 55l-12-6-8 6 3 9 10 3 7-12m33 8l1-5-2-3-3 2-1 4 5 2m291 40l-35-14-22 15-18-21-13 8-5-15-15 4-2-15-22-3 2-22-16-6 9-15-15-20 11-22-16-16 16-16-16-10 9-18-16 16-15-16-20-8 5-20-12-10 12-9-18-14 19-12 7-13 12 9 10-18 10 18-2-16 15 2-17-16 17-15-11-16 11-16-11-16 20-2 11-12 11 12 13-11 12 11 20-11 20 11 22 7-13 19 12 20-12 19 16 10-16 10 16-6-6 16 16-10 16 10 17-17 15 19 12 13-10 15 20 14-20 15-1 14-13 4-14 8-14-8-17 9-17-9 18 18-18 18 11 12-11 12 19 8-3 21 11-8 9 9 10-12 10 12 17 3 7 16 18 12-18 11 20 18-20 16-7 21-17-14-20 13m-70-263l3-23-19-2-20 8 17 14 19 3m-56 11l3-5-3-5-4 3-1 4 5 3m145 39l5-12-8-10-10 7 1 11 12 4m-36-9l-14-8-16 6 6 16 13-3 11-11m-99 14l2-12-10-7-8 9 3 12 13-2m47 23l4-9-10-10-8 12 3 13 11-6m-23 71v-8l-7-7-8 8 6 9 9-2m20 10l5-7-8-6-6 7 1 9 8-3m31 12l3-11-10-7-10 7 4 13 13-2m-25 29l2-5-2-5-6 2 0 7 6 1m99 19l-7-24-29-2-4 29 22 12 18-15m206 49l-45-15-15 14-11-18-24 9-13-23-26 1-2-26-18-10 3-21-16-11 11-16-11-10 10-10-14-11 14-11-17-12 19-8-9-16 15-10-1-23 22-9 0-24 24 6 1-21 17 13 10-22 19 14 20-13 22 10 11-15 9 16 24-10 18 18 21-6 10 20 22 2 3 21 18 8-4 19 20 6-15 14 14 9-12 13 16 15-16 15 14 21-20 16 5 21-19 10-3 20-20 3-13 22-25-5-12 15-16-10-15 15m-62-240l2-7-3-5-7 2 1 6 7 4m34 5l-8-12-16 6 5 16 14 2 5-12m103 31l-12-25-26 12 3 23 20 10 15-20m-121-2l-4-4-7-1 1 8 6 3 4-6m23 109l25 8-2-12 9-7-4-10 6-10-9-10 9-10-9-10 8-11-7-8 4-11-14-1v-13l-10 7-10-7-1 12-12 2 7 11-11 8 6 11-7 10 9 10-8 10 5 10-4 10 11 6-3 13 12-8m-76-71l0-8h-8l-5 6 7 5 6-3m179-1l-2-3-3 3 1 3 3 0 1-3m-202 23l-3-12-13-2-4 13 10 5 10-4m218 46l-17-28-31-6-21 37 39 27 30-30m-193-1l-8-12-12 3-2 12 10 6 12-9m-37 15l-2-5-5-3-4 6 6 3 5-1m73 30l2-20-12-16-20 12 5 24h25m54 26l7-11-10-6-7 4-3 10 13 3m197 31l-19-40-11-13 11-13-14-13 14-12-17-11 17-11-15-13 15-13-14-14 14-14-14-17 14-17-12-18 12-18-3-20 16-12 21-15 20 15 11-18 11 18 19 2 10 15 10-21 17 16 11-20 22 6 9-21 15 18 18-16 13 20 23-11 4 24 28 4-2 29 18 6-10 16 18 20-14 22 10 17-10 17 13 14-13 14 13 13-13 13 18 11-18 11 6 20-17 11-20 15-20-15-12 17-13-17-21 13-16-20-8-11 8-13-7-18 7-19-7-17 7-17-11-12 11-11-8-12 8-12-17-8-5-18-10 19-17-14 4 18-15 11 10 20-10 19 10 12-10 12 14 19-14 19 11 11-11 12-8 16-18 1-19 14-19-14-10 14-9-14-10 19m27-224l0-19-10-18-16 15 7 17 19 5m155-11l6-15-16-4-17 9 13 16 14-6m-39 7l-3-12-10 3-7 9 11 7 9-7m-64-7l-3-4-5 0-2 6 6 1 4-3m-6 54l6-29-30-12-14 25 13 21 25-5m150-1l2-34-41-1-4 37 25 14 18-16m-216 30l1-12-12 1-5 8 6 10 10-7m27 23l-7-5-10 2 3 10 9 1 5-8m44 2l-12-5-11 4 5 10 12 5 6-14m169 29l-20-13-21 10 3 27 25-5 13-19m-83 13l-1-3-4-3-4 6 6 2 3-2m-105 35l-5-18-18-10-16 20 20 15 19-7m124-22l-7-4-8 3 4 7 7 2 4-8m18 11l-1-5-5 0-1 4 3 4 4-3m268 62l-31-15-16 16-12-19-22 11-13-21-18 7-3-19-25-2v-26l-23-6 10-21-17-14 11-20-11-12 11-13-16-13 18-9-7-22 19-13-4-16 17-4-2-22 22 3 11-23 24 6 6-21 15 16 16-12 18 9 21-15 17 18 22-10 11 21 17-5 3 17 20 3 3 20 19 4-6 19 19 12-10 21 20 8-18 12-2 18-15 11-11 8-11-8-15 8-16-8-12 10-12-10-21 8-21-8-7 18h-19l11 6-4 13 17-12 21 5 15-12 16 9 17-12 17 12 19-11 18 11 11 16-13 14-2 18-19 3-11 21-23-4-9 16-16-9-19 19m-46-223l11-13-12-14-18 6-1 22 20-1m-53 32l13-22-12-29-34 12 12 27 21 12m90-39l-3-6-5 2-4 7 9 5 3-8m42 23l3-22-19-5-8 14 6 10 18 3m-73 24l15 10 10-8 10 8-4-11 12-1-12-7 7-12-11 0-5-11-7 11-12-6 1 11-10 6 6 10m-18 16l-6-8-9 3 2 8 7 5 6-8m117 14l-1-10-7-6-8 8 5 10 11-2m36-8l-5-4-6 0v6l5 3 6-5m-137 6l-2-6h-6l-4 5 6 4 6-3m-77 19l-9-11-17 8 8 18 16-1 2-14m87 2l-7-4-9 2 4 8 9 3 3-9m103 61l-8-14-16 0-2 16 12 3 14-5m-148 10l1-17-14-3-8 9 7 9 14 2m72 6l-6-7-8 4 1 10 10 1 3-8m298 57l-19-15-17 14-15-17-15 12-9-16-26 5-13-22-23-6-3-24 2-16 15-5 12-11 12 11 15-11 14 11 11-13 11 13 16-4 6 15 10-18 6 1-1-11-17 9-11-16-15 10-9-15-13 6-8-12-17 4-7-16-21-10-5-22-14-12 9-16-3-22 17-15 7-20 21-3 5-21 19 11 19-14 23 6 13-12 13 12 11-15 9 17 22-8 15 18 26-3 10 24 18 4v18 16l-15 4-15 12-15-12-12 7-11-7-22 9-16-18-15 7-14-8 12 9-3 15 13-4 10 11 17-8 13 13 14-5 11 11 24-3 10 21 21 9 3 23 12 13-8 15 5 21-18 12-2 24-24-2-8 22-20-10-17 18-23-11-13 16m26-253l-3-3-5 1 3 4 3 1 2-3m24 27l-13-9-15-2-1 19 16 3 13-11m-128 75l25-37-32-20-33 1 7 34 33 22m82-5l-3-7-8-4 0 8 3 6 8-3m43 52l-1-27-26 6-12 21 21 9 18-9m42-6l4-3-4-3-4 1-1 6 5-1m-74 55l-11-6-9 6 4 9 10 3 6-12m33 8l1-5-2-3-3 2 0 4 4 2" />
</svg>