<svg id="fnt-Rubik Iso" viewBox="0 0 2400 1000" xmlns="http://www.w3.org/2000/svg"><path id="rubik-iso" class="f" d="M203 419h-45v23h45v-23m112 113h-22l22-23v-22l23-23v-22l22 22-22 23v22l-23 23m0 67l-22-22v-45l22 22v45m-180 68h-112v-360h225l22 22h45v23l23 22v23l22 22v23h-22v-23l-23-22v-23l-22-22h-45v-23h-203v315h90v-67l23-23h45v68l22 22h113l-23-22v-23h23v23l22 22-22 23h-135v-23l-23-22v-45h-22v67l-23 23m90-203h-67l-23-22v-45h68l22 22v45m294 135l-23-22v-158h23v158h22v-158h23v180h-45m-90 68h-23v-23l-22-22v-23l-23-22v-158h23v158l22 22v23l23 22h22v23h45l23-23h135v-225h22v225l-22 23h-135v22h-68l-22-22m494-248h-90v-90h23v68h90l-23 22m90 45h-45v-22l-22-23v-22h22v22l23 23h22v22m0 45h-22v-45l22 23v22m0 45h-22v-45l22 23v22m0 45h-22v-45l22 23v22m-135 0h-45v-90l23-22h45v90l-23 22m-135 68l-22-23v-315h22v315h68l22-22h23v22l22 23h45v-23h45l23-22v-23l22 23-22 22v23h-45l-23 22h-67v-22l-23-23v23h-90m113-158v68h22v-68h-22m330-157h-22v-45l22 22v23m0 135h-22v-45l22 22v23m0 45h-22v-45l22 22v23m0 45h-22v-45l22 22v23m0 45h-22v-45l22 22v23m-22 45h-113v-360l23-23h112v23h-112v67h67v-22h23l22 22h-22l-23 23h23l22 22v23h-22v-23h-90v225h90v-22l22 22-22 23m71-338v315h90v-22l23-23h22v45h135l-22-22h-23v-45h-22v-23l-23-22 23-23v-22l22-23v-22h23v-23h-113v45h-22l-23-22v-113h-90m90 338h-112v-360h112l23 22v68h135l22 22v45h-22l-23 23v22l-22 23 22 22h23v45h22v23l23 22-23 23h-157v-23l-23 23m437-270h-22v-45l22 22v23m0 45h-22v-45l22 22v23m-112-23l-23 23v-135h113l22 22v23h-22v-23h-90v90m112 68h-22v-45l22 22v23m0 45h-22v-45l22 22v23m0 45h-22v-45l22 22v23m0 45h-22v-45l22 22v23m-22 45h-113v-225l23 22v180h90v-22l22 22-22 23m251-158h-67v-45h112v-22h-22l-23-23h45l23 23h22v22h-22l22 23h-67v22h22l23 23h22v22h-45v-22h-22l-23-23m90 90h-22v-45l22 23v22m0 23h-22v-23l22 23m-270 22h-22v-45l22-22h45l-22-23h-23v-22l-22-23v-45l22-22v-23h45v23h-22l-23 22v45l23 23h22v22h68l22 23-22 22h-113v23h23v22h45l22 23h68v-23h67l23-22v45h-68l-22 22h-90v-22h-45l-23-23m543-202h-45v-23h67v23l23 22h-23l-22-22m45 67h-23v-22l23 22m-158 68h23v-68l-23-22v90m-67 90h-45v-23l-23-22v-23l-22-22v-90l22-23v-22l23-23h45l-23 23h-22v22l-23 23v90l23 22v23l22 22h45v23h90l23-23h22v-22h23l22-23v45h-22l-23 23h-22v22h-113l-22-22m225-113h-23v-22l23 22m0 45h-23v-22l23 22m-158 0l-22-22v-90l22-23h23v23l22 22v90h-45" />
</svg>