<svg id="fnt-Rubik Bubbles" viewBox="0 0 3734 1000" xmlns="http://www.w3.org/2000/svg"><path id="rubik-bubbles" class="f" d="M43 605q-18 0-24-6t0-13 24-7q-9 0-15-8t-7-19 0-23 7-20 15-7q-13 0-19-9t-7-18 7-19 19-8q-17 0-23-7t0-13 23-6q-18 0-24-5t0-10 24-5q-18 0-24-6t0-12 24-6q-16 0-22-7t0-15 22-8q-8-11-5-19t12-9 17 12q0-20 8-26t15 0 7 26q0-15 7-22t16-7 16 7 7 22q0-12 7-18t15-6 15 6 7 18q2-12 12-16t24-3 22 9 8 18q7-18 15-21t11 4-4 27q7-7 16-3t19 13 12 19-3 16q13-3 20 1t10 12-4 14-18 10q9 3 11 13t-1 24-11 21-16 6q9 11 6 21t-12 16q3 7-12 13 10 1 17 8t11 16 1 20-12 15q15-8 23-7t7 8-15 15q12-6 19-1t7 14-12 18q0 10-7 16t-18 8-21 0-18-8-7-16q-4 10-13 11t-18-2-14-12 0-18q-9 4-17 1t-12-11-3-16 10-13q-10 4-21-3t-14-18q-4 2-8 2 2 9-3 18t-16 9q10 0 15 5t5 13-5 12-15 5q7 10 5 17t-11 8-15-8q0 12-8 18t-19 7-22-7-18-23-7-42m95-159q10 0 14 7t4 14q8-6 21-6t21 5q0-8 6-19t13-13q-6-2-3-7-10 2-16-5t-1-16q-6 3-15 3t-16-3-10-8q1 10-6 12 1 5-2 10t-10 4q9 0 12 6t0 11-12 5m306 206q-6 7-14 5t-15-7-9-14 3-14q-9 4-15 1t-9-9 0-12 12-10q-10 1-16-4t-7-14 4-14 16-8q-10 0-15-7t-5-18 5-17 15-8q-12 0-16-5t0-10 16-5q-13 0-17-6t0-13 17-7q-11-2-15-9t-3-15 9-11 18-2q0-9 7-14t18-7 21 0 18 7 7 14q10-6 18-1t8 13-9 15q7 0 10 6t3 14-3 14-10 6q8 0 12 6t4 15-4 15-12 7q8 0 12 5t4 13-3 14q9-1 20 3t18 12q2-6 6-10t10-5q-8-4-6-12t14-8q-7 0-11-9t-3-21 3-21 11-8q-10 0-13-6t0-11 13-5q-7-1-11-8t-2-14 6-14 12-5q0-11 6-16t13-6 13 6 6 16q0-11 6-15t13 0 7 15q4-7 10-8t12 2 8 9-2 14q10 0 15 5t5 12-5 12-15 5q13 0 17 7t0 14-17 7q8 0 12 8t4 21-4 20-12 9q10 0 15 7t5 17-5 16-15 7q6 2 8 10t-1 18-7 18-11 5q0 13-7 17t-14 0-7-17q0 13-7 17t-15 0-7-17q-4 11-9 14t-10-1-4-12q-4 8-15 11t-20-2-9-13q0 7-7 11t-21 6-27-2-29-14m448 6q-4 9-13 11t-19-3-16-10q-3 4-10 5t-13-4q-2 14-8 18t-11-1-3-18q-1 8-11 12t-21 4-20-5-9-13q-10 2-15-3t-2-11 12-9q-14 0-19-5t0-10 19-5q-7 0-11-7t-5-18 0-22 5-18 11-7q-9 0-14-10t-5-22 5-22 14-10q-10 0-15-7t-5-15 5-15 15-7q-8 0-12-10t-3-23 3-23 12-10q-8 0-12-6t-4-14 4-14 12-6q0-8 8-12t19-5 19 4 8 12q0-9 6-14t15-5 14 4 7 15q13 1 17 7t-1 13-17 5q9 0 14 6t5 14-5 14-14 6q8 0 12 3t5 8q9 0 16 5t7 13q2-6 12-10t23-4 21 3 10 11q5-6 15-3t20 11 16 18 1 15q10-2 17 6t10 20 0 22-13 13q9 0 13 7t4 17-5 16-13 7q8 3 9 12t-2 21-9 18-14 4q5 7 3 14t-7 12-13 6-13-5q3 11-4 17t-16 9-22-2-19-15m-65-130q8 0 10 3t0 7-10 4q5-1 8 4t3 11-3 10q6-1 13 2t14 9 10 11q0-7 9-16t15-8q-5-4-6-12t2-15 10-7q-4 0-7-7t-4-14 1-12q-5 2-10-1t-7-9q-4 6-12 6t-11-5q-1 4-3 6t-6-1q2 6-1 12t-9 6q8 3 7 9t-13 7m239-192q-10-2-14-9t-3-13 9-9 17-1q0-7 7-12t18-5 21 0 18 5 7 12q10-1 16 4t8 15-3 16-14 9q2 6-4 12t-15 9-17 4-10-6q0 8-6 11t-14 1-14-13-7-30m-2 317q-8 0-13-7t-6-19 0-22 6-18 13-7q-10 0-15-9t-5-18 5-19 15-8q-9 0-14-8t-7-18 0-22 7-19 14-7q-9 0-14-5t-4-12 4-12 14-5q0-9 6-13t14-4 15 5 6 13q0-7 5-11t13-3 13 3 6 11q8-6 13-3t7 8-7 12q9 0 13 9t5 19-5 19-13 9q8 0 12 8t4 20-4 19-12 9q6 0 10 7t5 20 0 23-5 19-10 8q11 2 14 10t-3 14-16 5q0 13-5 17t-10 0-5-17q0 11-10 16t-23 5-23-5-10-17m161-34q-14 0-19-6t0-12 19-6q-10 0-15-7t-5-15 5-15 15-7q-8 0-14-8t-7-19 0-23 7-20 14-8q-6 0-11-7t-5-18 0-22 5-18 11-7q-10 0-15-7t-5-17 5-17 15-7q-12 1-17-6t-1-15 15-9q1-8 6-13t12-4 11 5 5 13q0-9 8-15t21-6 21 4 10 14q9 1 13 11t4 24-5 23-13 10q8 0 12 8t4 18-4 18-12 8q9 0 13 8t4 18q2 1 3 2 1-9 9-15t18 0q-7-5-6-12t7-12 14 0q-2-8 6-14t19-8 20 1 11 10q0-11 6-15t12 0 6 15q0-12 7-17t15 0 7 17q7 4 6 13t-7 16-13 12-14 0q7 5 5 17t-11 23-18 16q9 4 13 13t3 18-11 14q7-3 16 3t15 17 9 21-6 15q8-5 15-2t12 11 4 15-7 13q0 10-9 15t-20 5-20-5-9-15q-1 10-9 13t-19 3-18-7-6-15q-11 7-18 4t-5-9 11-13q-5 3-13-2t-15-16-11-20q-7 5-14 3 4 6 5 17t-2 20-10 9q5 11-1 18t-15 6-13-11q0 8-6 12t-13 4-13-4-6-12q0 14-5 17t-12-9-6-43m422-32q-13 0-20-8t-7-20 7-19 20-8q-12 0-19-8t-6-19 6-18 19-7q-9 0-15-8t-8-18 0-21 8-18 15-7q-17 0-23-8t0-16 23-8q-11-1-16-8t-5-16 7-15 17-5q0-15 8-22t20-8 19 8 9 22q0-10 7-16t19-8 23 0 19 8 8 16q0-15 7-22t16-7 16 7 7 22q1-13 7-19t12-5 12 8 3 20q4-16 12-20t11 3 0 23q7-8 17-8t17 6 9 15-4 18q13-3 21 3t11 15-3 19-18 12q12 4 16 11t1 13-10 10-19-2q12 15 10 24t-11 9-21-15q6 7 6 14 13 5 23 16t3 22q12-3 20 0t9 10-3 13-16 10q14 3 19 11t4 16-10 15-22 2q10 10 10 20t-7 16-16 7-20-9q6 16 4 23t-9 4-14-19q2 11-6 19t-18 11-23 2-20-7-10-16q0 13-8 20t-19 7-19-7-8-20q0 11-6 17t-15 6-15-6-6-17q0 9-6 14t-16 4-19-10-15-26-6-47m95-158q8 0 12 7t5 15 1 11q1-8 7-11t12-1 8 10q-1-9 9-14t17 0q-1-6 2-12t9-7q-5-3-8-10t-1-12q-4 3-7 1t-2-8q-6 8-18 7t-16-9q0 6-5 10t-10 5q2 6-2 12t-13 6m46 167q-1-9 6-12t15-1q-3-9 1-19t11-14q-8-4-14-11t-8-15q-4 7-13 8t-17-1q2 8-4 15t-15 6q8 5 10 15t1 18q8-4 17-1t10 12m266 56q-5 7-13 5t-15-7-9-14 3-14q-9 4-16 1t-8-9 0-12 12-10q-11 1-17-4t-6-14 4-14 15-8q-10 0-15-7t-5-18 5-17 15-8q-11 0-15-5t0-10 15-5q-12 0-17-6t0-13 17-7q-11-2-15-9t-2-15 8-11 18-2q0-9 7-14t18-7 22 0 17 7 8 14q10-6 17-1t9 13-9 15q6 0 9 6t4 14-4 14-9 6q7 0 11 6t4 15-4 15-11 7q7 0 11 5t5 13-3 14q9-1 20 3t18 12q2-6 6-10t9-5q-7-4-5-12t14-8q-7 0-11-9t-4-21 4-21 11-8q-10 0-14-6t0-11 14-5q-8-1-11-8t-2-14 5-14 13-5q0-11 5-16t13-6 13 6 6 16q0-11 7-15t13 0 6 15q4-7 11-8t12 2 8 9-2 14q10 0 15 5t5 12-5 12-15 5q12 0 16 7t0 14-16 7q8 0 12 8t4 21-4 20-12 9q10 0 14 7t5 17-5 16-14 7q6 2 7 10t-1 18-7 18-10 5q0 13-7 17t-14 0-7-17q0 13-8 17t-14 0-8-17q-3 11-9 14t-10-1-3-12q-4 8-15 11t-20-2-10-13q1 7-7 11t-20 6-28-2-29-14m448 6q-4 9-13 11t-19-3-15-10q-4 4-10 5t-13-4q-2 14-8 18t-11-1-3-18q-2 8-11 12t-21 4-21-5-8-13q-11 2-15-3t-3-11 13-9q-15 0-20-5t0-10 20-5q-7 0-11-7t-6-18 0-22 6-18 11-7q-10 0-15-10t-5-22 5-22 15-10q-11 0-16-7t-5-15 5-15 16-7q-8 0-12-10t-4-23 4-23 12-10q-8 0-13-6t-4-14 4-14 13-6q0-8 8-12t18-5 19 4 9 12q0-9 6-14t14-5 15 4 6 15q13 1 17 7t-1 13-17 5q10 0 14 6t5 14-5 14-14 6q9 0 13 3t5 8q8 0 16 5t6 13q3-6 13-10t22-4 22 3 10 11q4-6 14-3t21 11 16 18 1 15q10-2 17 6t10 20 0 22-13 13q8 0 12 7t4 17-4 16-13 7q8 3 9 12t-2 21-10 18-14 4q6 7 4 14t-8 12-12 6-13-5q2 11-4 17t-17 9-22-2-19-15m-64-130q7 0 10 3t0 7-10 4q5-1 7 4t3 11-2 10q5-1 12 2t14 9 11 11q0-7 8-16t15-8q-5-4-6-12t3-15 10-7q-5 0-8-7t-4-14 2-12q-5 2-11-1t-6-9q-4 6-12 6t-12-5q0 4-3 6t-6-1q3 6-1 12t-9 6q9 3 7 9t-12 7m395 130q-4 9-13 11t-19-3-16-10q-3 4-10 5t-13-4q-2 14-8 18t-11-1-3-18q-1 8-11 12t-21 4-20-5-9-13q-10 2-15-3t-2-11 12-9q-14 0-19-5t0-10 19-5q-7 0-11-7t-5-18 0-22 5-18 11-7q-9 0-14-10t-5-22 5-22 14-10q-10 0-15-7t-5-15 5-15 15-7q-8 0-12-10t-3-23 3-23 12-10q-8 0-12-6t-4-14 4-14 12-6q0-8 8-12t19-5 19 4 8 12q0-9 6-14t15-5 14 4 7 15q13 1 17 7t-1 13-17 5q9 0 14 6t5 14-5 14-14 6q8 0 12 3t5 8q9 0 16 5t7 13q2-6 12-10t23-4 21 3 10 11q5-6 15-3t20 11 16 18 1 15q10-2 17 6t10 20 0 22-13 13q9 0 13 7t4 17-5 16-13 7q8 3 9 12t-2 21-9 18-14 4q5 7 3 14t-7 12-13 6-13-5q3 11-4 17t-16 9-22-2-19-15m-65-130q8 0 10 3t0 7-10 4q5-1 8 4t3 11-3 10q6-1 13 2t14 9 10 11q0-7 9-16t15-8q-5-4-6-12t2-15 10-7q-4 0-7-7t-4-14 1-12q-5 2-10-1t-7-9q-4 6-12 6t-11-5q-1 4-3 6t-6-1q2 6-1 12t-9 6q8 3 7 9t-13 7m237 123q-7 0-11-7t-5-17 0-21 5-18 11-7q-10 0-15-8t-4-20 4-19 15-9q-10 0-15-5t-5-11 5-11 15-5q-10 0-15-9t-5-22 5-22 15-9q-11 0-16-5t-5-12 5-12 16-5q-8 0-13-7t-6-17 0-21 6-18 13-7q-2-11 2-16t9-1 8 14q0-8 7-13t18-7 21 0 18 7 7 13q10 0 14 10t5 22-4 23-14 10q8 0 13 8t7 18 0 22-7 19-13 7q10 0 14 6t5 12-5 13-14 5q8 0 12 5t4 12-4 12-12 5q10 0 14 10t5 24-5 24-14 10q10 0 15 6t5 14-5 14-15 6q7 9 4 16t-10 6-13-9q0 15-8 19t-16 0-7-19q0 8-7 12t-14 4-14-5-6-14m255 7q-3 10-11 13t-17 1-14-9-2-17q-6 7-13 8t-14-4-8-12 4-15q-7 4-15-3t-12-18-5-21 7-14q-9 0-13-8t-5-20 5-20 13-9q-14-4-16-12t3-13 20-2q-4-4-3-12t8-16 14-15 14-10 12 1q-2-8 5-15t18-10 21-1 12 10q0-9 11-13t24-3 23 7 9 15q4-10 11-11t12 5 2 15q5-5 14-2t18 13 13 18-2 15q8-2 14 5t10 17 4 21-2 20-11 10q14 7 13 10t-16-3q0 6-9 9t-18 4-19-4-8-9q0 8-8 12t-17 5-17-4-8-12q1 8-8 13t-20 7q5 6 8 12t5 13q5-6 15-10t20-5 19 1 10 10q0-9 6-13t16-5 16 5 7 13q10 2 12 8t-3 11-14 3q5 6 2 13t-10 11-14 6-12-6q3 10-3 17t-15 10-18 0-12-12q1 13-7 18t-22 1-29-18m21-142q0-10 5-11t8 6q1-4 6-8t9-6q-6-4-10-13t-2-15q-5 3-11 3t-11-1q2 5 0 13t-7 13-9 7q6 1 9 7t13 5m264 139q-3 14-9 17t-10-3 0-18q-4 7-12 8t-16-3-12-11 0-14q-8-3-11-9t0-13 8-9 14-1q0-7 6-11t14-4 14 4 6 11q1-7 10-10t21-2 22 5q0-3 3-5-3-5 0-11-6 4-16 4t-22-3-17-10-5-13q-3 10-10 12t-10-4-1-16q-5 4-13 0t-14-13-12-18-6-19 4-12q-5-3-5-11t6-16 11-14 12-2q-5-8-1-15t12-7 13 8q-2-8 4-14t17-10 20-4 19 4 10 11q1-9 7-13t15-3 13 7 4 14q3-9 9-11t10 3 1 14q4-8 12-8t17 5 12 12 0 15q12 3 13 11t-4 12-16 2q0 9-7 13t-16 5-16-5-7-13q-1 6-9 8t-16 1-18-5q0 7-5 12 11 3 21 9t7 13q1-7 8-9t15-1 14 7 4 12q3-4 11-2t16 8 17 14 11 15 0 12q10-1 15 4t5 12-4 11-15 6q6 4 5 12t-7 16-13 10-14-1q4 9 1 16t-11 9-14 1-11-11q1 9-9 14t-25 7-35-4-35-15" />
</svg>