<svg id="fnt-Ruda" viewBox="0 0 1146 1000" xmlns="http://www.w3.org/2000/svg"><path id="ruda" class="f" d="M95 667h-42l2-165-1-183q5-1 18-2t28-2 33-2 31 0q34 0 59 10t39 34 13 64q0 43-19 69t-55 34v1l79 142h-50l-70-138-65-3v141m74-173q37 0 49-18t13-56q0-31-6-47t-14-21q-5-4-17-6t-24-1q-20 0-42 2t-32 3l-1 139q17 2 37 3t37 2m266 179q-20 0-37-10t-27-32-9-62v-193h41v178q0 27 2 45t5 24q4 6 11 8t18 3q23 0 45-9t42-18v-231h41v291h-28l-5-28h-3q-7 4-22 12t-34 15-40 7m310 0q-27 0-48-15t-33-48-11-83q0-49 8-80t24-47 33-24 38-7q17 0 29 2t22 5 15 5v-91h41v377h-27l-6-30h-2q-7 5-18 13t-28 16-37 7m2-37q10 0 21-3t20-6 19-9 15-8v-191q-6-2-17-5t-24-6-29-2q-28 0-38 12-4 6-8 18t-7 34-3 59q0 41 4 62t10 29 9 10q4 4 11 5t17 1m267 37q-23 0-41-11t-28-31-10-50q0-36 14-56t41-29 60-8h53q0-25-1-44t-8-28q-5-7-14-9t-18-2q-20 0-39 4t-34 9-24 8-9 4l-14-32t9-5 26-10 35-10 41-4q34 0 54 13t29 37 9 56v192h-27l-6-31h-3q-5 4-15 10t-21 12-27 11-32 4m7-36q18 0 34-6t29-11 19-11v-83q-6-1-19-2t-34-1q-47 0-58 9-6 5-10 18t-3 31q0 29 9 42t33 14" />
</svg>