<svg id="fnt-Rufina" viewBox="0 0 1542 1000" xmlns="http://www.w3.org/2000/svg"><path id="rufina" class="f" d="M113 347v144h25q90 0 90-75 0-37-18-54t-56-17q-15 0-41 2m-26-15h25l57-2q114 0 114 86 0 37-26 60t-65 24q-3 0-12-1v1q53 8 73 35t21 83q0 35 13 41 6 4 16 4t28-7v13q-26 9-48 9-49 0-61-42-3-11-3-31t-2-35-7-31q-12-34-69-34h-28v147l39 4v11h-128v-11l38-4v-304l-44-5v-13q32 2 69 2m363 341q-80 0-80-77 0-57 3-157l-40-2v-12l89-5q-3 132-3 179 0 29 10 43t35 14 47-28 22-49v-140l-41-2v-12l90-5v231l43 2 0 12-90 6 4-54h-6q-26 56-83 56m231-20v-217h-35v-13h35v-8q0-66 28-100t80-33q31 0 51 11t21 32-13 29q-8 5-16 5t-15-3q3-14 3-27t-9-23-25-10-27 9-17 20-8 32q-4 26-4 66h75v13h-75v216l56 3 0 12h-139l0-12 34-2m252-312q0 12-9 21t-21 9-21-9-9-21 9-22 21-8 21 9 9 21m30 326h-115v-12l33-3v-212l-44-2v-11l93-7v232l33 3v12m109-192l5 1q22-58 90-58 34 0 55 20t21 58q0 64-4 156l35 3v12h-111v-12l27-2q4-113 4-130t0-25-3-22-7-20q-11-18-34-18-32 0-53 26t-20 58v130l37 3v12h-119v-12l33-3v-211l-43-2v-12l90-6-3 54m282 138q0 32 27 38 6 2 11 2 19 0 40-17t21-43v-43q-99 1-99 63m20 60q-28 0-49-16t-20-44q1-39 39-58t109-19v-43q0-63-46-63-23 0-38 19-10 14-10 34 0 8 2 18-7 5-14 5t-14-3q-16-6-16-23 0-23 16-38 27-25 75-25t69 20 21 64v152l42 2 1 11-84 6-4-44q-23 45-79 45" />
</svg>