<svg id="fnt-Ruge Boogie" viewBox="0 0 1876 1000" xmlns="http://www.w3.org/2000/svg"><path id="ruge-boogie" class="f" d="M244 684q-16 0-31-8t-25-22-15-28q-6-21-9-41t-6-40q-5 1-10 2t-9 1q-5 0-10-5t-10-12-6-10q-1-7-1-14 0-2 0-5t1-5q2-8 9-19t19-11q7 0 11 5t7 9q1 6 3 9t3 8q1 5 2 10t2 10q11-8 21-19t17-20q12-14 17-35t9-38q1-9 1-13 0-26-12-42t-30-24-39-8q-38 0-70 20-11 6-23 11t-19 16q-13 16-25 32t-11 39q0 2 0 7t1 9 5 5q6 0 11-6t9-12 3-13q0-5 5-5 5 0 5 5h-1q0 8-5 17t-12 17-16 8q-8 0-12-6t-3-13 0-13q0-24 10-43t24-37q9-11 19-20t23-16q16-10 28-17t30-9q4-1 8-1t8 0q32 0 59 11t43 34 16 54q0 9-2 17t-4 17q-4 18-13 35t-18 29q-9 13-23 26t-30 22q4 20 10 39t12 42q3 10 10 20t17 16 22 7q10 0 15-9t6-20 2-22q0-15-4-29t-15-25q-5-4-11-4 0 0-2 0t-2 1q-1 1-2 1t-1 0q-5 0-5-5 0-4 4-5 2-1 4-1t4 0q11 0 17 6t12 14q7 9 13 21t7 26q0 15-5 32t-14 28-23 12m-194 19q-4 0-11-4t-11-8-7-7q-4-5-5-13t-1-13q0-9 3-23t10-24 20-10q7 0 12 12t4 25q0 11-3 18t-12 6q-8-3-8-8 0-5 7-4 1 0 2 1t2 1q4-1 5-6t2-9q0-9-4-18t-8-9q-9 0-14 10t-7 21-2 17q0 12 5 21 2 2 9 6t12 4q11 0 19-8t13-19 6-22q0-9 0-17t1-19q0-12-3-22t-4-18-3-22q-1-9-2-17t-2-18q-1-12-1-26t-1-23q0-3 0-6t0-5q0-22 9-39t21-37q2-2 4-2 2 0 4 3t0 5q-6 10-9 20t-2 20q0 9 1 18t2 20q1 9 1 17t0 17v26q0 7 0 13t0 13q1 12 1 22t1 19v22q0 11-3 19t-3 17q0 14-7 28t-17 25-26 10m89-173q4 0 8-1t9-2h-1q0-7-1-14t-3-13q0-3-1-9t-2-10-7-5q-4 0-10 8t-8 16q0 4 2 11t6 13 8 6m284 112q-5 0-9-3t-6-8q-4-15-5-33t-4-35q-4 14-13 30t-20 28-29 12q-9 0-16-10t-11-22-4-22q0-9 2-16t3-17q1-6 3-10t3-9q0-4 5-4 5 0 4 5 0 2 0 5 0 3 0 6t1 6q0 10-2 18t-2 16q0 6 1 15t4 15 9 7q12 0 22-11t16-26 12-31 6-25q2-5 8-5t9 5q1 2 2 4t3 5q6 21 10 46t11 45q1 2 1 3t0 2q0 7-4 10t-10 4m66 203q-12 0-22-9t-18-23-11-27-3-23q0-22 9-44t26-37 40-14q12 0 18 7t8 19 3 20q0 8-3 20t-8 24-13 21-19 8q-13 0-18-9t-5-20q0-4 1-12t4-18 7-15 12-7q3 0 6 2 1 0 3 5t2 4v1q0 2-2 3t-4 2q-5 0-5-5 0 0 1-1t2 0q-5-2-8 3t-6 12-2 9l-1 15q-1 5 3 9t10 5q6 0 11-7t8-17 5-18 2-14q0-4 0-11t-4-14-8-7q-19 0-33 12t-21 32-7 37q0 7 3 17t7 22 12 18 17 7q7 0 13-4t11-8q17-10 23-22t15-33q8-21 12-43t3-49q0-11-1-21t-1-21q-10 9-24 13t-28 4q-16 0-31-9t-23-25-8-30q0-24 3-45t17-37 40-24q3-1 6-1t7 0q16 0 28 13t12 32q0 10-7 21t-18 12q-3 0-7-6t-4-7q0-1-1-1t0-1q0-5 5-5 3 0 5 3v1q0 1 1 3t2 2q6 0 10-8t4-13q0-12-10-18t-20-7q-3 0-7 2t-7 3q-17 6-24 18t-9 28-2 35q0 16 11 29t26 14q18 0 31-3t21-10q-1-7-1-13t0-13q0-5 1-17t4-23 7-22 7-8q6 0 9 6t5 14 1 13l2 9q0 18-4 29t-12 23q1 15 3 29t1 31q0 31-4 54t-13 47q-6 15-12 26t-14 19-21 17q-8 5-15 10t-17 5m91-264v0q5-11 5-27l1-8q0-4-1-11t-5-7q-2 0-3 3t0 8q0 10 1 22t2 20m102 83q-26-1-41-18t-21-40l0-2q0-20 6-41t21-36 35-22q6-1 10-1t9 0q8 0 15 6t12 16 5 15q0 10-5 19t-12 17-18 7q-5 0-15-4t-20-9-14-8q-3 6-4 13t-3 14v3q0 2 0 4t1 5q4 18 14 32t23 14q7 0 15-5t17-11 9-12q4-10 9-10 3 0 3 4 0 3-2 7-6 16-19 29t-30 14m16-94q11 0 15-10t5-19q0-4-3-10t-8-9-6-4q-7 0-14 4-12 3-21 12t-13 19q0 0 1 1 3 2 12 6t19 7 13 3m219 149q-16 0-27-11t-16-27-6-29q0-10 2-20t4-17q1-4 5-4 2 0 3 2t1 4q-2 6-2 17 0 4 0 9t1 9q0 7 2 12t5 12q3 9 10 15t17 5q3 0 5-2t4-4q22-13 35-37t19-55 6-61q0-54-9-108 0-5-1-12t-1-14q0-5 0-10t1-10q-8 0-16 2t-16 5q-8 2-20 8t-23 14-18 18-7 22q0 6 3 14t10 15 14 7q5 0 8-1t9-1q5 0 5 5t-5 4q-5 0-9 2t-8 1q-21 0-32-13t-11-33q0-14 8-27t20-25 25-20 24-11q11-4 21-7t21-5q4-18 10-33t16-25 25-10q10 0 18 8t7 18q0 8-6 14t-11 11q-1 1-3 1-3 0-5-4t1-5q4-2 9-7t4-10q0-6-4-11t-10-5q-18 1-26 17t-9 39l19-1q30 0 54 5t53 19q11 6 22 14t19 20 8 27q0 23-10 40t-24 33q12 9 18 23t7 28q0 8-4 23t-11 35-17 36-25 28-31 11q-8 0-17-8t-14-17-5-20q0-6 2-10t3-8q1-4 3-6t4-6q1-3 4-3 3 0 4 2t1 4q0 3 0 6t-1 8q0 0-1 0t0 2q0 2 1 4t1 5q0 6 5 11t10 6q15 0 25-11t18-29 12-32 5-26q1-2 1-5t0-5q0-9-4-17t-11-14q-11 9-23 13t-24 11l-1 1q-2 1-10 5t-16 8-11 4q-15 0-20-8-2 28-9 58t-23 56-42 40q-5 3-12 3t-10 1m97-184v0q4-7 10-12t10-8q16-11 30-14t34-4q4 0 8 1t8 1q12-12 20-27t8-35q0-11-11-20t-28-17-31-11-24-6q-17-3-35-3-5 0-10 0t-10 1q1 28 4 44 4 27 10 55t7 55m22 12h0q2 1 8 0t13-2 8-2l1-1q8-4 16-10t15-13q-15 0-27 2t-24 11q-3 2-6 5t-4 10m214 129q-10 0-22-6t-20-11q-13-10-22-30t-9-39q0-9 1-18t4-17q3-15 9-26t17-22q9-10 18-16t25-6q12 0 22 7t10 21q0 4-2 11t-6 12-10 5q-8 0-14-6t-10-13q0-1 0-2 0-3 2-4t5 2q2 2 8 7t9 6q6 0 7-7t1-11q0-8-8-10t-14-1q-10 0-16 6t-12 12q-9 10-11 19t-3 18-2 22q-1 3-1 7t0 7q0 15 1 30t12 23q5 4 14 9t16 6q14 0 27-11t19-22q5-10 8-19t3-21q0-19-6-30t-11-11q-3 0-3 6 0 0 1 3t2 4 0 3q0 7-7 7-5 0-7-4-1-4-3-7t-2-6q0-7 6-15t11-7q9 0 16 10t9 23 4 24q0 14-6 30t-16 31-23 21q-5 2-10 4t-11 2m161 0q-9 0-22-6t-19-11q-14-10-23-30t-9-39q0-9 2-18t4-17q2-15 9-26t16-22q9-10 19-16t24-6q13 0 22 7t10 21q0 4-2 11t-5 12-10 5q-9 0-15-6t-9-13q-1-1-1-2 0-3 3-4t5 2q1 2 7 7t10 6q5 0 6-7t2-11q0-8-8-10t-15-1q-10 0-16 6t-12 12q-8 10-11 19t-2 18-3 22q0 3-1 7t0 7q0 15 1 30t12 23q6 4 15 9t16 6q13 0 26-11t19-22q6-10 9-19t3-21q0-19-7-30t-11-11q-3 0-3 6 0 0 1 3t2 4 1 3q0 7-8 7-4 0-7-4-1-4-3-7t-2-6q0-7 7-15t10-7q10 0 16 10t10 23 3 24q0 14-6 30t-15 31-23 21q-6 2-10 4t-12 2m132 169q-13 0-23-9t-17-23-11-27-4-23q0-22 9-44t26-37 40-14q13 0 19 7t8 19 2 20q0 8-3 20t-8 24-13 21-18 8q-14 0-19-9t-5-20q0-4 1-12t4-18 8-15 12-7q3 0 6 2 1 0 2 5t2 4v1q0 2-2 3t-3 2q-5 0-5-5 0 0 1-1t1 0q-4-2-8 3t-5 12-3 9l-1 15q0 5 3 9t11 5q6 0 10-7t9-17 5-18 2-14q0-4-1-11t-3-14-9-7q-19 0-32 12t-21 32-7 37q0 7 2 17t8 22 12 18 17 7q6 0 12-4t11-8q17-10 24-22t15-33q8-21 11-43t4-49q0-11-1-21t-2-21q-9 9-23 13t-28 4q-17 0-31-9t-23-25-9-30q0-24 4-45t17-37 40-24q3-1 6-1t7 0q15 0 27 13t12 32q0 10-7 21t-17 12q-4 0-7-6t-5-7q0-1 0-1t0-1q0-5 5-5 3 0 4 3v1q0 1 1 3t2 2q7 0 11-8t4-13q-1-12-11-18t-19-7q-4 0-7 2t-7 3q-17 6-25 18t-9 28-1 35q0 16 10 29t27 14q18 0 30-3t21-10q0-7-1-13t0-13q0-5 2-17t4-23 6-22 8-8q5 0 8 6t5 14 2 13l1 9q0 18-3 29t-13 23q2 15 3 29t2 31q0 31-5 54t-13 47q-6 15-11 26t-14 19-22 17q-8 5-14 10t-17 5m90-264v0q5-11 6-27l0-8q1-4 0-11t-5-7q-2 0-3 3t-1 8q0 10 2 22t1 20m95 119q-9 0-18-7t-16-18-6-19q0-12 1-23t3-22q1-9 2-18t3-20q1-6 0-11t-1-12q0-3 0-5t0-4q0-3 0-5t-3-7q-3-3-3-8 0-5 3-9t9-4q0 0 0 0t0-1q14-2 18 9t5 24q0 11-2 21t-2 16q-2 11-5 19t-4 19-3 20-1 21q0 6 2 14t7 14 11 7q3 0 8-6t9-10 8-5q2 0 2 5v1q0 4-5 10t-11 10-11 4m-19-224q-10 0-17-5t-6-12q0-9 7-15t18-6q6 0 10 5t5 11q0 7-5 14t-12 8m115 188q-26-1-41-18t-21-40l0-2q0-20 6-41t21-36 35-22q6-1 10-1t9 0q8 0 15 6t12 16 5 15q0 10-5 19t-12 17-18 7q-5 0-15-4t-20-9-14-8q-3 6-4 13t-3 14v3q0 2 0 4t1 5q4 18 14 32t23 14q7 0 15-5t17-11 9-12q4-10 9-10 3 0 3 4 0 3-2 7-6 16-19 29t-30 14m16-94q11 0 15-10t5-19q0-4-3-10t-8-9-6-4q-7 0-14 4-12 3-21 12t-13 19q0 0 1 1 3 2 12 6t19 7 13 3" />
</svg>