<svg id="fnt-Ruluko" viewBox="0 0 1425 1000" xmlns="http://www.w3.org/2000/svg"><path id="ruluko" class="f" d="M55 667l2-341q44-6 91-6t76 23 28 66q0 73-74 93l50 98q12 25 22 34t25 10l2 24q-2 2-20 2t-32-13-27-39l-56-110q-8 1-18 1h-31v158h-38m38-311v122h32q87 0 87-67 0-58-69-58-28 0-50 3m238 110q0-24-6-35l28-5q9 2 11 10t2 16q0 6-2 69t-2 70 1 15 5 19q7 19 34 19 20 0 34-14t21-38q12-42 12-93v-67h34v136q0 45 6 61t29 17l1 23q-8 2-20 2-25 0-35-15t-9-34q0-6 0-12h-3q-8 31-29 47t-56 16-47-21-14-58q0-4 2-64t3-64m267 158v-324l36-6v309q0 27 4 34t23 8l1 22q-8 4-27 4t-28-11-9-36m131-158q0-24-6-35l29-5q8 2 10 10t3 16q0 6-2 69t-2 70 0 15 5 19q7 19 34 19 20 0 34-14t21-38q13-42 13-93v-67h33v136q0 45 7 61t29 17l1 23q-8 2-20 2-25 0-35-15t-10-34q0-6 1-12h-3q-8 31-30 47t-55 16-48-21-13-58q0-4 2-64t2-64m301 201h-34v-367l34-6 0 138q0 26-4 49h3q9-25 29-40t48-15 45 15 18 42-21 45-54 26l29 50q14 23 25 32t26 10l1 22q-3 3-15 3-24 0-39-13t-28-38l-39-74v-9q32 0 55-14t23-40q0-14-10-22t-23-7q-24 0-40 17-29 32-29 93v103m288-21q25 0 41-15t22-38 6-50q0-90-64-90-23 0-39 15-28 27-28 85 0 93 62 93m106-103q0 55-28 92t-80 38-74-31-22-88 26-94 77-34 76 31 25 86" />
</svg>