<svg id="fnt-Rum Raisin" viewBox="0 0 1895 1000" xmlns="http://www.w3.org/2000/svg"><path id="rum-raisin" class="f" d="M238 673l-71-2q-6-7-8-16t-4-17-1-13 0-7q0-8-1-19t-3-23-6-23-11-20-17-14-24-6q-2 0-4 0t-5 1v152l-67 1q2-8 3-20t2-25 1-27 0-28 1-26 0-23q0-8 0-23t-1-34 0-40-1-40-1-35-1-24q13-3 28-4t29-2q15-1 30-1 25-1 46 4t38 16 26 31 10 45q-4 18-12 33-4 7-9 14t-12 13-15 11-19 8q16 6 25 14t16 19 8 21 4 25 1 26 3 28q2 10 5 20 3 8 7 16t10 14m-74-259q0-16-7-28-3-5-7-11t-11-9-17-6-21-2q-10 0-21 2l1 111q4 0 8 1t8 0q12 0 21-2t16-7 12-9 8-11q8-13 10-29m274 256l-64-1q1-10 1-19t1-17q-8 15-17 23t-18 11q-9 5-18 6-19 0-32-9t-22-26-13-40-5-52q0-40 3-78t8-74l62 7q-5 29-8 51t-5 39q-2 19-2 33 0 23 2 40t5 29 10 17 17 6q7-2 14-10 3-4 6-10t6-14 6-19 6-26q1-15 1-29t0-31q0-17 0-38t-1-47l56 1q-2 19-2 35t-2 29 0 26 0 24q0 17 0 34t1 36 2 41 2 52m193-131q0 15 0 26t-1 19-1 17-1 17-2 20-2 26l-55 1q4-40 5-76t2-72q0-34-7-49t-18-16q-5 2-10 7-4 4-8 13t-8 25q0 12 0 24t0 23q0 13 0 26t0 30 0 33 1 40l-56-1q2-29 3-51t2-40 2-35 0-34q0-12 0-24t-1-27 0-30-1-36l55 1-1 23q7-14 14-21t15-11 12-4 6-1q7 0 14 2t12 8 11 14 9 25q7-19 16-29t20-14 16-5 9-1q15 0 26 10t17 29 9 49 3 69q0 13-1 31t-3 35-5 37-3 32l-55-2q4-26 6-49t4-42q1-22 1-40 0-23-1-40t-4-28-8-16-13-5q-5 2-10 6-4 3-8 10t-8 19q1 22 1 52m465 134l-71-2q-5-7-8-16t-3-17-2-13 0-7q0-8 0-19t-3-23-6-23-11-20-18-14-24-6q-2 0-4 0t-4 1v152l-67 1q1-8 2-20t2-25 1-27 1-28 0-26 1-23q0-8-1-23t0-34-1-40-1-40-1-35-1-24q14-3 29-4t29-2q15-1 30-1 25-1 46 4t38 16 26 31 10 45q-4 18-13 33-3 7-8 14t-12 13-15 11-19 8q15 6 25 14t15 19 9 21 3 25 2 26 3 28q2 10 5 20 2 8 6 16t10 14m-73-259q-1-16-7-28-3-5-8-11t-11-9-16-6-22-2q-9 0-21 2l1 111q5 0 9 1t8 0q12 0 21-2t16-7 11-9 9-11q8-13 10-29m262 259l-57 4q-1-8-2-16t-2-16q-12 17-27 26t-34 9q-10 0-20-3t-18-11-14-21-5-33q0-16 5-29t13-21 17-16 20-13 18-10 15-9q10-8 18-18t13-20q-1-17-3-28t-7-17-10-9-14-3q-11 0-19 5t-12 12q6 4 9 8t5 9q2 4 2 9 0 17-9 25t-24 9q-8 0-14-3t-11-10-8-15-2-19 4-22 15-21 27-17 39-6 39 9 27 23 15 34 5 40q0 16 0 34t-1 37q0 16 1 31t1 31 1 28 4 23m-62-87l2-52q-9 10-19 17-7 5-15 12t-16 13-12 15-5 16q0 11 6 18t15 8q9 0 16-5t12-12 10-15 6-15m160-262q0 8-3 15t-8 12-13 8-14 3-15-3-12-8-8-12-3-15 3-15 8-12 12-8 15-3 14 3 13 8 8 12 3 15m-72 75l72-1q-2 19-4 42t-2 45-1 48-1 45 0 40 0 32v28l-56 2q1-17 1-33t0-32q0-27-1-54t-1-52-3-54-4-56m271 48q0 11-4 19t-10 12-12 7-11 3-10-2-12-6-9-11-4-17q0-6 2-12 2-5 5-10t10-9q-4-7-8-10t-8-5q-4-2-8-3-7 0-13 3t-11 8-6 12-3 14q0 9 1 16t6 15 13 16 24 21 27 23 18 21 11 22 4 23q0 7-2 17t-5 18-10 18-16 16-21 11-28 4q-24 0-41-8t-28-17-16-21-5-20q0-9 3-17t6-13 13-10 18-3q8 0 16 3t12 8 8 13 3 17q0 4-2 8-1 4-4 8t-8 9q4 2 7 4t6 1q3 1 6 1 3 0 7-2t8-5 7-10 3-13-2-15-5-13-13-15-21-20-23-23-17-23-11-25-4-29q0-16 7-31t17-26 28-18 37-6q20 0 35 6t24 17 15 24 4 30m93-123q0 8-3 15t-8 12-12 8-15 3-14-3-12-8-9-12-3-15 3-15 9-12 12-8 14-3 15 3 12 8 8 12 3 15m-72 75l72-1q-2 19-3 42t-2 45-2 48 0 45-1 40 0 32v28l-55 2q0-17 0-33t0-32q0-27 0-54t-2-52-3-54-4-56m105-4l63 1-1 20q8-13 17-20t17-10 13-4 6 0q18 0 31 9t22 24 13 38 5 51q0 21-1 43t-2 43-5 42-9 40l-56-7q5-29 8-55t5-43q2-22 2-41 0-23-2-40t-5-29-10-17-17-5q-7 1-14 9-6 8-12 23t-12 44q0 19 0 37t-1 40q0 18 0 38t1 47l-56-1q1-25 2-53t0-62q0-34-1-74t-1-88" />
</svg>