<svg id="fnt-Ruslan Display" viewBox="0 0 4431 1000" xmlns="http://www.w3.org/2000/svg"><path id="ruslan-display" class="f" d="M311 504l0 17q-40 21-100 33 43 12 83 12h10q28 40 36 101h-130q-5-35-20-61t-37-34q-1 9-1 34t3 61h-109q-14-73-14-135t7-115h261q11 50 11 87m-148-54q-6 44-9 87 28-4 45-20-9-33-36-67m455-33h64q2 32 2 94t-8 133q-52 34-124 34-97 0-156-34-7-54-7-105t8-122h134q-20 108-21 208 21 19 61 19t60-14q1-16 1-47 0-79-14-166m297 30q-20-3-43-3t-44 3q14 23 32 37t47 29 46 26 39 40 27 57q-24 31-63 55t-81 32q-28-3-71-16t-64-13-43 13q9-25 29-64h4q32 0 60 10t52 20 37 10 21-2q0-33-20-54-11-12-19-18t-24-17l-8-6q-34-24-56-48t-32-60q16-35 31-61 48-12 99-12h22q43 0 98 12-8 33-19 60-42 3-65 3 4-12 8-33m243 181q24 6 45 6t34-10 19-34l60 2q-7 45-20 75h-245q-10-64-10-133t7-117h144q-33 126-34 211m509 35v4h-116q-2-29-8-59-31 31-70 59h-117q-3-21-3-55t10-67q36-11 69-36t48-54q-13-21-28-38h166q49 107 49 246m-133-92q-13-44-34-84-24 69-27 131 36-19 61-47m406-154h60q3 52 3 110t-5 140h-48q-97-52-178-142 4 34 4 69t-3 73h-58q10-62 10-114t-5-83q-20-30-32-53h142q21 36 57 74t70 60q0-73-17-134m427-12q96 0 157 24 21 43 21 87 0 57-38 98-56 60-152 60-33 0-89-8-20-100-20-185 0-30 3-64 81-12 118-12m15 38q-9 94-9 134t1 67q27-15 42-49t16-70-13-57-37-25m222-26h135v13q0 132-17 237h-120q10-46 10-107t-8-143m374 30q-20-3-43-3t-44 3q13 23 32 37t46 29 46 26 40 40 27 57q-24 31-64 55t-81 32q-28-3-71-16t-64-13-43 13q9-25 30-64h4q32 0 60 10t51 20 38 10 21-2q0-33-21-54-11-12-19-18t-23-17l-9-6q-34-24-56-48t-32-60q16-35 32-61 47-12 98-12h22q43 0 99 12-8 33-20 60-42 3-65 3 5-12 9-33m253 147v10q0 29 2 63h-110q-20-80-20-169 0-46 5-81h271q15 56 16 134-74 33-164 43m0-34q32-4 54-16-8-53-43-94-8 49-11 110m322 68q24 6 45 6t34-10 19-34l60 2q-7 45-20 75h-245q-10-64-10-133t7-117h144q-33 126-34 211m509 35v4h-116q-2-29-8-59-31 31-70 59h-117q-3-21-3-55t10-67q36-11 69-36t48-54q-13-21-28-38h166q49 107 49 246m-133-92q-13-44-34-84-24 69-27 131 36-19 61-47m473-145q-17 4-29 4t-22-1q-15 18-28 49t-19 56-13 60q-38 181-76 257-25 7-62 14 50-85 81-198h-104q-39-128-41-250h146q-10 46-10 98t17 120q3-14 12-48t12-48 12-41 15-40 17-29q18-30 48-40 8-3 34-6t38-10q-14 31-28 53" />
</svg>