<svg id="fnt-Ruwudu" viewBox="0 0 1780 1000" xmlns="http://www.w3.org/2000/svg"><path id="ruwudu" class="f" d="M149 337q35 0 58 12t35 33 11 43q0 26-12 48t-36 36-61 14q-13 0-24-1t-27-5v-25q14 4 26 6t26 2q10 0 22-1 18-8 28-26t10-45q0-17-8-32t-22-25-35-10q-10 0-21 1t-17 4q0 36 0 66t-1 56 0 56q0 24 0 46t1 51l44 11-5 15q-29-2-63-2-18 0-33 1t-28 1l-5-15 44-11q1-44 2-89t1-85q0-23-1-51t-2-53l-44-11 5-15q15 0 32 1t29 1q15 0 26-1t21-1 24 0m27 174q6 10 16 26t25 33 27 37 27 34l47 11-8 15q-9-1-21-1t-25 0q-12 0-21 0t-19 1q-10-19-24-41t-27-42-24-37-17-25q6-7 15-9t18-2 11 0m251 160q-27 0-44-22t-18-58q-1-17-2-46t1-66l-36-5-5-16q18 0 41-3t45-5q-2 28-3 60t1 75q1 23 12 37t30 14q6-1 15-8t19-17 16-26 7-34l13 22q-3 24-17 47t-32 37-43 14m78-4q0-17-1-27t0-20 2-26l-3-114-36-6-4-16q12 0 27-2t31-3 27-3q-1 28-2 56t-1 57q0 17 2 35t3 45l37 10-6 14q-8-1-15-1t-13 0-19 0q-7 0-15 0t-14 1m199-210l6 13-32 11q8 27 15 48t15 42 21 49q1 5-2 13t-8 17-10 15-10 6q-9-29-18-53t-16-45-17-43-20-49l-35-11 5-13q25 2 53 2 14 0 26-1t27-1m72-3h23v31q-19 49-38 95t-35 91h-27q13-30 26-66t26-75 25-76m-5 48l28-48q13 35 24 63t23 55 24 53q1 6-4 17t-11 20-13 9q-20-50-37-90t-34-79m193-45l5 13-36 11q-13 34-24 65t-19 62-21 63h-27q18-43 31-91t28-99l-37-11 5-13q16 1 28 1t25 1q13 0 22-1t20-1m114 214q-28 0-45-22t-18-58q-1-17-1-46t0-66l-35-5-5-16q17 0 40-3t45-5q-2 28-3 60t2 75q1 23 12 37t30 14q6-1 15-8t19-17 16-26 6-34l13 22q-3 24-16 47t-33 37-42 14m77-4q0-17 0-27t0-20 2-26l-3-114-36-6-5-16q12 0 27-2t31-3 27-3q-1 28-2 56t0 57q0 17 1 35t4 45l37 10-6 14q-9-1-15-1t-14 0-19 0q-7 0-14 0t-15 1m309-373q-1 38-1 76t-1 82q0 39 0 75t1 66 2 50l40 10-6 14q-13-1-24-1t-20 0q-7 0-14 0t-14 1q-1-11-3-22t-3-22q1-26 1-51t0-49q0-9-1-19t0-20q0-23 0-46t0-51-2-62l-36-6-5-15q17-1 40-3t46-7m-107 155q26 0 48 15t33 47l-16 18q-2-14-13-27t-29-22-35-6q-18 9-27 32t-8 47q0 22 6 43t20 33 32 13q27 0 46-24t28-65l11 23q-11 42-36 68t-62 26q-24 0-45-12t-36-36-13-63q0-36 14-61t36-37 46-12m262 222q-28 0-45-22t-18-58q-1-17-1-46t0-66l-35-5-5-16q17 0 40-3t45-5q-2 28-3 60t2 75q1 23 12 37t30 14q6-1 15-8t19-17 16-26 6-34l13 22q-3 24-16 47t-33 37-42 14m77-4q0-17 0-27t0-20 2-26l-3-114-36-6-5-16q12 0 27-2t31-3 27-3q-1 28-2 56t0 57q0 17 1 35t4 45l37 10-6 14q-9-1-15-1t-14 0-19 0q-7 0-14 0t-15 1" />
</svg>