<svg id="fnt-Rye" viewBox="0 0 964 1000" xmlns="http://www.w3.org/2000/svg"><path id="rye" class="f" d="M138 664q-13 8-28 8t-29-8q-12 8-23 8t-17-2-12-5q-11-7-11-16 0-5 3-9 5 4 14 4 21 0 30-18v-120q0-11-5-16-7-9-25-18 17-7 21-13 9-10 9-22v-103q-9-19-30-19-9 0-14 4-3-3-3-8t3-9 8-7q11-7 26-7t26 8q13-8 29-8t28 8q28-10 61-10t56 6 39 17q33 23 41 63 4 19 24 28-19 11-25 34-12 48-60 60 25 7 40 27 16 22 16 50v25q0 35 23 45 7 3 15 3t13-4q3 4 3 9t-2 9-7 7q-9 7-21 7t-22-7q-21 11-39 2-7 5-14 5t-15-4-12-11q-12-17-12-52v-18q0-56-32-73-10-6-25-6h-28v119q6 17 25 17 8 0 13-4 3 4 3 11t-8 14-23 7-27-8m63-346q-46 0-46 37v99q0 13 10 18 9 4 28 4t26-2 13-8q11-10 11-35v-71q0-31-26-39-7-3-16-3m58 16q8 17 8 55 0 64-7 77 14-3 20-36l2-10q2-16 15-20-9-3-12-8-3-5-5-17t-5-20-5-12q-5-8-11-9m-171 236v32q12-5 14-32 1-27 1-76t0-64 0-26q-1-29-6-35t-9-8q0 85-3 97-3 10-16 14 14 5 16 13 3 11 3 85m169-35q9 11 9 27v32q0 41 16 43 5 1 9 0-9-14-9-29v-34q0-19-5-27-9-14-20-12m431-120q-6-3-18-3-23 0-35 31l-8 22q-8 23-8 31t3 14 14 11q-27 7-36 25-3 5-5 11l-41 110q-23 68-44 92-18 22-46 22-21 0-40-13-22-16-22-36 0-13 7-20t13-7 8 0 4 1q4 2 8 9-5 10 7 21 11 12 21 12t16-4 11-11q12-17 12-48 0-16-9-37-3-6-6-14l-35-78q-6-13-17-22t-25-13q16-9 16-23 0-10-8-29l-14-35q-6-14-11-18-7-5-17-5t-15 4q-3-3-3-9t2-9 5-7q7-7 21-7t26 9q10-9 24-9t26 9q10-9 24-9t22 7 8 13q0 9-3 13-6-5-12-5t-11 4-3 12l56 152 54-156q-3-13-18-13-10 0-18 5-3-5-3-12t7-13 18-7 20 8q9-8 20-8t20 7q8-7 19-7t16 6 5 13q0 9-2 13m-191 131l-45-107q-5 4-5 10t0 8 2 8q2 7 9 23t7 19-3 8-7 6q16 3 19 11 2 3 5 11l17 37q5 11 10 22 10-12-9-56m413 47q6-10 20-10 10 0 15 8 4 6 4 15t-4 19-13 17-18 13-22 10q-25 8-51 8t-49-9-39-24q-32-31-39-85-2-12-6-17-7-9-24-17 22-10 27-31 2-5 3-11 6-43 44-74 36-29 80-29 47 0 81 33 35 34 35 83 0 1 0 3t0 3q0 3 4 4 4 5 4 12 0 14-15 17-4 1-13 2l-137 22v24q0 28 17 44 16 16 40 16 27 0 42-10 15-11 15-27 0-4-1-9m-113-67l70-12v-68q0-16-6-24-11-13-22-13t-18 3-13 11q-11 15-11 46v57m91-16l16-2v-8q0-45-8-55-3-4-8-6v71m-131 92q3-3 3-6 0-6-2-14-10-38-10-53t1-24 3-17q3-16 6-29 2-8 2-11 0-6-3-9-10 13-16 33t-9 36q-1 7-14 13 13 6 14 12 9 41 15 53t10 16" />
</svg>