<svg id="fnt-Sacramento" viewBox="0 0 2022 1000" xmlns="http://www.w3.org/2000/svg"><path id="sacramento" class="f" d="M443 410q-1 4-3 6t-6 2q-4 0-7-3t-2-7 0-7 1-7q0-18-11-32t-31-24-49-14-64-5q-27 0-55 3t-53 10-47 17-38 24-26 29-9 36q0 15 7 26t17 20 27 14 33 10 37 7 39 4l37 3q29 3 51 5t39 7q28 7 41 20t14 36q0 21-12 37t-32 27-47 17-58 5q-34 0-60-4t-42-10-27-10-9-6q-5-2-5-7 0-5 3-7t7-3q2 0 4 2 1 0 9 4t24 9 40 10 56 4q32 0 56-5t40-15 25-21 9-27q0-8-3-15t-9-10-13-8-16-5q-9-3-20-4t-22-3-22-3-22-2l-38-3q-45-3-78-11t-55-20-33-29-11-39q0-23 11-42t28-35 42-27 51-18 57-12 58-4q35 0 61 5t45 11 31 15 19 17q18 20 18 46 0 8-2 16m165 189q-1 1-4 8t-7 14-12 17-14 16-17 12-19 5q-14 0-23-9t-14-23q-9 14-20 22t-23 8q-9 0-17-3t-12-9-8-14-3-18q0-19 7-33t16-25 22-14 24-5q7 0 14 2t10 4 7 5 3 2q3 3 3 7 0 3-3 6t-6 3q-4 0-7-3 0 0-2-1t-5-3-7-3-9-1q-7 0-16 3t-16 11-11 18-5 26q0 5 1 9t3 9 7 6 10 3q4 0 10-3t11-9 10-16 6-22q0-3 3-5t6-3q4 0 6 3t3 6q0 5 1 13t3 17 8 14 14 6q6 0 12-3t11-8 10-12 10-14 7-13 5-11q2-2 4-4t5-1q4 0 7 3t2 6q0 2-1 4m143 0q-1 3-5 10t-9 16-15 18-19 18-24 13-29 5q-14 0-24-5t-19-14-11-22-4-28q0-14 4-27t12-22 16-15 21-6q8 0 14 3t11 7 7 11 3 11q0 5-1 10t-4 8-5 6-5 2q-4 0-7-3t-2-6q0-2 1-4t2-3 2-4 0-6q0-5-4-9t-12-4q-7 0-14 4t-10 11-8 16-3 20q0 10 3 19t7 16 12 11 18 5q13 0 25-5t20-12 16-16 13-17 7-13 4-7q1-3 3-4t5-1q4 0 7 3t2 6q0 2-1 4m9-33q-1 7-2 13t-3 10-2 7-2 3q-2 5-8 5-3 0-6-2t-3-7q0-1 0-2t2-3 2-7 4-16q-4 0-9 0t-8-2-6-5-3-9q0-4 3-11t6-14 9-12 9-5q6 0 10 5t5 10 3 12 1 12q4 0 8 0t8 0q14 0 21 6t7 20q0 5-1 11t-1 13-2 13-1 12q0 9 3 15t6 9 8 5 7 1q11 0 20-7t17-16 14-21 10-19q2-2 4-3t5-1q4 0 6 3t3 6q0 2-1 4-6 10-13 23t-17 23-22 19-26 8q-8 0-16-4t-14-9-9-16-3-20q0-13 2-25t3-23q0-4-2-7t-10-2q-3 0-7 0t-9 0m-27-18h11q0-1 0-4t-1-6-1-4-1-2-2 1-2 5-2 5-2 5m342 51q-1 1-4 8t-8 14-11 17-14 16-17 12-19 5q-14 0-24-9t-14-23q-8 14-20 22t-23 8q-9 0-16-3t-12-9-8-14-3-18q0-19 6-33t17-25 22-14 23-5q8 0 14 2t11 4 7 5 3 2q2 3 2 7 0 3-2 6t-7 3q-4 0-6-3-1 0-3-1t-4-3-7-3-9-1q-8 0-16 3t-16 11-12 18-5 26q0 5 1 9t4 9 6 6 11 3q4 0 10-3t11-9 9-16 6-22q1-3 3-5t7-3q3 0 6 3t3 6q0 5 1 13t3 17 8 14 14 6q6 0 11-3t12-8 10-12 9-14 7-13 6-11q1-2 3-4t5-1q5 0 7 3t3 6q0 2-1 4m40 46q3-7 9-18t12-22 12-21 10-15q7-8 15-12t14-4 11 3 7 7 4 11 2 13q0 3 0 10t-1 13-1 16-1 14q4-7 9-16t9-18 9-16 8-13q11-14 20-19t16-5q9 0 14 3t8 8 5 11 1 11q0 8-1 17t-2 22q0 5 1 10t2 9 5 6 9 3q7 0 13-4t11-8 11-12 9-14 8-13 5-11q1-2 3-4t5-1q4 0 7 3t2 6q0 2 0 4-1 1-4 8t-8 14-12 17-14 16-17 12-19 5q-10 0-17-4t-11-10-5-15-2-17q0-12 1-22t2-16q0-6-2-9t-2-5-3-1-2 0q-6 0-13 6t-13 17-14 25-15 28q-4 7-7 13t-5 8-5 4-5 1q-7 0-10-4t-3-12q0-4 0-10t0-13 1-15 1-15 0-13 1-9q0-6-3-9t-5-3q-2 0-6 2t-7 8q-4 4-9 13t-11 18-12 21-10 20q-5 10-10 14t-10 4q-7 0-10-5t-4-11q0-1 1-9t0-20 2-24 1-25q0-6-1-11t-2-6q-2 0-8 9t-14 30q-1 2-4 4t-5 1q-4 0-6-3t-3-6q0-2 1-4 11-26 21-38t19-13q6 0 10 3t6 7 3 9 1 10q0 21-1 40t-2 36m292-5q5 7 13 11t20 4q12 0 22-5t17-15 15-21 11-23q2-3 4-4t5-1q4 0 6 3t3 6q0 1 0 2t-1 2q-17 37-37 56t-45 19q-16 0-28-6t-19-16-11-23-4-25 3-23 9-18 14-12 17-4q6 0 11 2t10 6 7 11 3 14q0 10-4 19t-9 16-14 14-18 11m-7-16q7-3 13-8t11-11 7-12 2-13q0-8-3-11t-9-4q-6 0-11 4t-8 9-4 13-1 14q0 5 1 10t2 9m160 21q3-8 9-18t11-20 12-19 13-19q8-8 15-12t13-4q13 0 19 9t6 23q0 4 0 8t-1 10-1 10 0 10q0 6 1 11t2 10 5 6 8 2q9 0 18-7t16-17 13-20 9-17q1-2 3-4t5-1q4 0 7 3t2 6q0 2 0 4-1 1-4 8t-8 14-11 16-14 17-17 12-18 5q-11 0-18-4t-11-12-5-15-2-17q0-4 1-8t1-10 1-10 0-10q0-8-2-11t-5-3q-4 0-9 5t-10 12-11 16-11 18-9 18-7 13q-5 10-10 14t-10 4q-7 0-11-5t-4-12q0-2 0-7t1-11 2-15 1-16 1-15 1-12q0-6-1-11t-2-7q-2 0-7 9t-15 30q-1 2-3 4t-6 1q-4 0-6-3t-3-6q0-2 1-4 11-26 21-38t19-13q6 0 9 3t7 8 3 10 1 11q0 5 0 14t-2 20-2 21-1 18m366-223q0 4-3 6t-7 3h-124v2q0 15-2 32t-6 34-8 32-10 30-10 23-9 15q3 11 8 21t10 16 12 12 13 4q9 0 17-7t16-17 13-20 8-17q2-5 8-5 4 0 7 3t2 6q0 2 0 3t-4 8-7 14-11 17-13 16-16 13-18 5q-17 0-31-11t-22-31-15-47-5-59q0-8 1-19t1-23 2-25 4-25h-88q-4 0-6-3t-3-6 3-6 6-2h92q2-9 6-16t7-13 10-9 11-3q6 0 11 3t8 9 5 13 3 16h124q4 0 7 2t3 6m-184 152q7-16 13-34t10-38 7-37 2-34h-29q-3 15-5 37t-2 55q0 17 1 30t3 21m22-182q-2 0-6 5t-8 17h23q-1-11-3-16t-6-6m-18 200v0 0m211 48q-6 0-11-1-3 7-8 13t-12 11-15 8-18 2q-12 0-21-4t-17-11-11-17-4-23q0-15 6-27t13-19 14-12 11-3q4 0 7 2t2 6q0 4-3 6t-6 4-9 5-8 9-6 13-3 16q0 8 3 15t7 12 11 8 14 3q14 0 23-7t14-16q-14-8-24-22t-9-31q0-14 7-22t18-9q6 0 12 3t10 10 8 17 2 26q0 8-2 16 2 1 3 1t3 0q9 0 15-2t12-6 10-10 8-14q1-2 3-3t5-1q3 0 6 2t3 7q0 2-1 4t-2 4q-4 8-10 14t-12 12-17 8-21 3m-42-62q0 5 2 10t3 10 7 10 9 7q0-5 0-10 0-6-1-13t-3-13-4-9-6-3q-2 0-4 2t-3 9" />
</svg>