<svg id="fnt-Sahitya" viewBox="0 0 1507 1000" xmlns="http://www.w3.org/2000/svg"><path id="sahitya" class="f" d="M110 673q-21 0-39-4t-29-8-11-5l-2-5q0-3 2-15t2-32 2-40l22-3q0 38 5 56t19 24 41 7q32 0 51-15t19-40q0-15-11-27t-24-20-41-23q-26-14-43-25t-28-27-11-36q0-26 15-47t42-34 58-12q20 0 37 3t27 6 13 4l1 3q0 3-2 14t-5 30-4 40l-19 2-3-2q0-2 1-10t0-16q0-27-13-37t-46-10q-28 0-46 14t-17 34q0 20 17 35t51 32q32 17 49 27t30 27 13 37q0 28-16 50t-43 35-64 13m288-152q0-25-12-39t-32-14q-14 0-31 7t-29 18l-3-2-6-21q26-15 49-25t33-10q32 0 51 17t18 47q0 11-3 45-6 55-6 70 0 11 6 17t15 6q7 0 15-3t15-9l7 8q-8 14-21 25t-23 15q-40 0-44-41l-2 0q-18 18-33 28t-22 11q-28 0-46-18t-18-44q0-15 7-26t19-14l95-26 1-22m-70 61q-14 5-14 21 0 15 9 24t25 10q10 0 22-7t24-17l2-51-68 20m178 65q14-1 20-7t6-20v-266q0-14-5-20t-14-6h-10l-2-2 2-16q21-3 44-8t30-6l3 6q-4 6-7 53t-5 119q57-39 75-39 32 0 50 17t18 47q0 10-3 46-5 59-5 73 0 14 4 21t14 7q5 0 10-1t7 0l1 2-4 21q-4 0-17-1t-27 0q-13 0-30 2t-22 4l2-21q15-4 22-12t6-20l3-99q0-25-11-39t-30-13q-17 0-35 9t-29 18q-1 58-1 122 0 15 4 21t14 7q5 0 10-1t7 0l1 2-4 21q-5 0-18-1t-28 0q-16 0-30 0t-19 1l3-21m316-281q-11 0-18-7t-7-19q0-12 9-21t21-8q10 0 17 7t7 18q0 13-8 21t-21 9m-43 286q15-4 22-12t6-20v-127q0-27-18-27-4 0-8 0t-5 2l2-19q21-3 43-8t29-6l3 6q-5 10-8 64t-4 113q0 14 4 21t14 7q5 0 10-1t7 0l1 2-4 21q-4 0-17-1t-27 0q-13 0-30 2t-22 4l2-21m158-163q0-13-6-19t-22-6l-2-3 2-15q15-7 28-17t23-18 11-10l10 4q0 2-1 12t-3 25l74-1 1 1-4 27-73-2q-3 55-3 125 0 26 8 36t31 11q7 0 15-2t12-5 7-2l5 13q-3 2-13 9t-21 14-17 7q-34 0-48-14t-14-47v-123m239 132q59-140 59-151 0-13-19-13h-23l-1-2 3-16q4 0 19 1t31 1l43-1-4 19q-11 2-17 7t-11 21l-64 152q-29 65-45 95t-31 41-37 12q-4 0-13-12t-9-16l3-4q29 0 54-23t43-65q-12-38-32-94t-33-90q-6-13-14-18t-20-6l-1-2 3-17 41 1q19 0 37-2t23-2l1 3-3 15q-17 1-23 3t-6 10q0 8 10 42t20 68 14 43h2m243-100q0-25-12-39t-32-14q-14 0-31 7t-29 18l-3-2-6-21q26-15 49-25t33-10q32 0 51 17t18 47q0 11-3 45-6 55-6 70 0 11 6 17t15 6q7 0 15-3t15-9l7 8q-8 14-21 25t-23 15q-40 0-44-41l-2 0q-18 18-33 28t-22 11q-28 0-46-18t-18-44q0-15 7-26t19-14l95-26 1-22m-70 61q-14 5-14 21 0 15 9 24t25 10q10 0 22-7t24-17l2-51-68 20" />
</svg>