<svg id="fnt-Sail" viewBox="0 0 892 1000" xmlns="http://www.w3.org/2000/svg"><path id="sail" class="f" d="M155 764q52 0 81-22t30-57q0-25-13-45t-32-32-39-25-36-32-23-43q-45-13-60-56-5-17-5-35t5-37q12-39 38-58l5 8q-23 17-34 53-5 18-5 34t5 32q12 36 50 49-1-6-1-17 0-66 47-106t116-41q45 0 72 25 23 21 23 52t-21 54-56 23q-20 0-32-7-26 19-61 28 10 9 47 35t55 48 18 55q0 57-44 92t-112 36-102-30q-30-26-30-63t23-63 60-26 52 16 17 38-14 40-35 18-35-14q-12-12-14-30 0-5 0-6l10 0q-1 18 11 29 9 11 27 11t30-15 11-33-13-30q-15-14-47-14t-53 23-21 56 27 56q16 14 33 20t45 6m85-344q0-22 11-37t31-14q33 0 33 36t-36 70q11 5 23 5 31 0 49-21t19-47-20-46q-25-22-65-22t-68 19q-43 31-43 80 0 41 27 59 33-7 62-27-23-20-23-55m41-42q-15 0-23 11t-8 31q0 32 20 49 15-10 25-28t10-36q0-27-24-27m280 293q-44 0-48-38-22 38-55 38t-54-20-19-57q0-57 28-89t72-33q37 0 49 35 2-15 5-30 37 0 55-3l7-2-35 189q15-1 25-14l8 6q-15 18-38 18m-120-51q0 22 6 31t18 9 24-13q17-17 27-43 1-7 5-32t8-40q-2-19-11-33t-22-14q-25 0-40 43t-15 92m278 33q-15 18-37 18t-36-11-12-30q0-7 8-55l16-89h-21l1-9h22q37 0 54-3l7-2-34 189q15-1 25-14l7 6m-44-229q-10-10-10-25t10-26 26-11 25 11 11 26-11 25-25 11-26-11m164 225q-6 8-18 15t-29 7-30-11-13-33q0-4 1-13l33-180q9-49 24-70t42-21q18 0 30 13t12 41-22 79-21 74h-9q0-26 21-76t21-78q0-18-8-31t-20-13q-1 13-18 116t-33 193q14 0 26-14t17-29l6-15 9 4q-2 7-8 20t-13 22" />
</svg>