<svg id="fnt-Saira Semi Condensed" viewBox="0 0 4511 1000" xmlns="http://www.w3.org/2000/svg"><path id="saira-semi-condensed" class="f" d="M140 671q-26 0-55-2t-49-5v-34q53 5 92 5 24 0 37-2t23-9q9-6 12-19t2-33q0-26-2-37t-12-15-31-7l-70-9q-26-4-39-15t-16-28-4-46q0-39 12-60t35-28 61-8q26 0 51 2t41 6v33q-37-6-83-6-25 0-40 3t-23 10q-9 6-12 17t-2 30q0 22 2 32t10 14 25 6l69 9q27 4 41 11t21 26q7 16 7 56 0 43-12 65t-33 30-58 8m228 0q-40 0-57-17t-18-58q0-29 6-45t22-24 43-7q14 0 81 3v-17q0-31-5-45t-18-17-45-3q-14 0-35 1t-34 4v-31q35-7 81-7 40 0 60 8t27 30 7 60v161h-34l-2-36h-2q-9 24-30 32t-47 8m14-33q21 0 34-5t20-17q9-19 9-52v-15h-71q-19 0-28 3t-12 13-3 29q0 19 4 28t14 12 33 4m215-299h-40v-44h40v44m-1 328h-38v-255h38v255m75 0v-255h34l2 48h3q8-30 26-41t50-11v38q-30 0-47 11t-23 32-7 58v120h-38m219 4q-40 0-57-17t-18-58q0-29 6-45t22-24 43-7q14 0 81 3v-17q0-31-5-45t-18-17-45-3q-14 0-35 1t-34 4v-31q35-7 81-7 40 0 60 8t27 30 7 60v161h-34l-2-36h-2q-9 24-30 32t-47 8m14-33q21 0 34-5t20-17q9-19 9-52v-15h-71q-19 0-28 3t-12 13-3 29q0 19 4 28t14 12 33 4m384 33q-26 0-55-2t-49-5v-34q53 5 92 5 24 0 37-2t23-9q9-6 12-19t2-33q0-26-2-37t-12-15-31-7l-70-9q-26-4-39-15t-16-28-4-46q0-39 12-60t35-28 61-8q26 0 51 2t41 6v33q-37-6-83-6-25 0-40 3t-23 10q-9 6-12 17t-2 30q0 22 2 32t10 14 25 6l69 9q27 4 41 11t21 26q7 16 7 56 0 43-12 65t-33 30-58 8m350-132v13h-153q0 39 4 56t19 24 49 6q32 0 72-5v31q-13 3-36 5t-44 2q-46 0-68-12t-28-38-7-81q0-54 6-81t27-39 68-12q43 0 62 12t24 38 5 81m-92-99q-29 0-41 6t-16 23-4 55h116v-5q0-36-5-52t-16-22-34-5m439 227v-147q0-37-4-52t-12-20-32-5q-26 0-37 9t-15 28-3 54v133h-38v-147q0-37-3-52t-13-20-32-5q-25 0-37 10t-14 28-3 53v133h-38v-255h34l2 36h2q7-19 23-30t47-10 45 9 21 31h3q7-19 23-30t48-10q30 0 45 10t20 30 6 57v162h-38m152-328h-40v-44h40v44m-1 328h-38v-255h38v255m366-3q-13 3-33 5t-36 2q-54 0-79-14t-33-49-8-113q0-78 8-114t33-49 79-13q17 0 36 2t32 5v33q-29-5-59-5-43 0-61 9t-23 36-5 96 5 96 23 36 61 8q36 0 60-4v33m151 7q-47 0-68-11t-26-37-6-84 6-84 26-37 68-10 67 10 26 37 6 84-6 84-26 37-67 11m0-33q31 0 43-7t15-25 3-67-3-67-15-25-43-6-43 6-15 25-3 67q0 49 3 67t15 25 43 7m316 29v-147q0-37-4-52t-14-20-36-5q-27 0-40 10t-16 29-3 52v133h-38v-255h34l2 36h2q8-20 25-30t50-10 48 10 22 30 6 58v161h-38m188 4q-34 0-52-12t-25-38-7-81 7-82 24-39 52-11q28 0 45 8t27 27h2v-148h38v372h-34l-1-36h-3q-9 23-28 31t-45 9m14-35q22 0 35-7t18-21q4-13 5-29t1-43q0-22-1-36t-4-24q-5-18-18-26t-37-8q-27 0-39 7t-16 25-4 65 4 65 16 26 40 6m355-97v13h-153q0 39 4 56t19 24 49 6q32 0 72-5v31q-13 3-36 5t-44 2q-46 0-68-12t-28-38-7-81q0-54 6-81t27-39 68-12q43 0 62 12t24 38 5 81m-92-99q-29 0-41 6t-16 23-4 55h116v-5q0-36-5-52t-16-22-34-5m309 227v-147q0-37-4-52t-14-20-36-5q-27 0-40 10t-16 29-3 52v133h-38v-255h34l2 36h2q8-20 25-30t50-10 48 10 22 30 6 58v161h-38m187 4q-18 0-41-2t-40-5v-31q40 5 79 5 22 0 32-4t14-13 4-24q0-18-3-25t-8-10-18-4l-58-8q-29-3-39-18t-10-50q0-31 11-47t29-22 50-5q17 0 37 2t34 5v31q-30-5-71-5-20 0-30 2t-17 11-5 26q0 16 2 23t8 10 18 5l57 7q20 2 30 8t15 20 5 43q0 30-9 46t-28 22-48 7m328-132v13h-153q0 39 4 56t19 24 49 6q32 0 73-5v31q-14 3-37 5t-44 2q-46 0-67-12t-29-38-6-81q0-54 6-81t27-39 67-12q43 0 62 12t24 38 5 81m-92-99q-28 0-41 6t-16 23-4 55h117v-5q0-36-5-52t-16-22-35-5m233 231q-34 0-52-12t-25-38-7-81 7-82 24-39 52-11q28 0 45 8t27 27h2v-148h38v372h-34l-1-36h-3q-9 23-28 31t-45 9m14-35q22 0 35-7t18-21q4-13 5-29t1-43q0-22-1-36t-4-24q-5-18-18-26t-37-8q-27 0-39 7t-16 25-4 65 4 65 16 26 40 6" />
</svg>