<svg id="fnt-Saira Extra Condensed" viewBox="0 0 3288 1000" xmlns="http://www.w3.org/2000/svg"><path id="saira-extra-condensed" class="f" d="M89 671q-16 0-35-2t-33-5v-31q35 6 57 6 16 0 26-3t16-9q6-6 8-19t2-35q0-30-2-41t-8-16-23-8l-48-9q-15-3-22-14t-10-27-2-44q0-51 18-73t61-22q20 0 37 2t24 5v30q-9-2-23-4t-29-1q-18 0-29 3t-16 12q-5 8-6 19t-2 29q0 23 2 34t6 14 17 7l42 9q18 4 28 10t16 24q3 7 3 20t1 36q0 38-6 60t-23 32-47 11m162 0q-21 0-34-7t-19-23-5-45 5-45 17-22 35-7q15 0 54 2v-20q0-31-4-45t-13-18-32-4q-28 0-52 5v-28q31-6 61-6 30 0 45 8t21 29 7 60v162h-30l-2-35h-2q-9 39-52 39m9-30q15 0 25-5t13-19q6-18 6-52v-18h-46q-14 0-21 3t-10 14-2 30q0 20 2 29t10 14 23 4m160-305h-34v-41h34v41m-1 331h-33v-255h33v255m52 0v-255h29l2 46h3q6-29 20-40t36-10v35q-32 0-45 22t-12 74v128h-33m163 4q-21 0-34-7t-19-23-5-45 5-45 17-22 35-7q15 0 54 2v-20q0-31-4-45t-13-18-32-4q-28 0-52 5v-28q31-6 61-6 30 0 45 8t21 29 7 60v162h-30l-2-35h-2q-9 39-52 39m9-30q15 0 25-5t13-19q6-18 6-52v-18h-46q-14 0-21 3t-10 14-2 30q0 20 2 29t10 14 23 4m340 26h-131v-344h131v32h-96v122h84v32h-84v126h96v32m182 0h-35l-44-102h-3l-44 102h-34l58-129-56-126h35l42 96h3l42-96h34l-56 124 58 131m78 0h-33v-226h-29v-29h29v-74h33v74h37v29h-37v226m70 0v-255h30l2 46h3q6-29 19-40t37-10v35q-32 0-45 22t-13 74v128h-33m164 4q-22 0-35-7t-18-23-6-45 5-45 18-22 34-7q16 0 54 2v-20q0-31-3-45t-13-18-32-4q-28 0-52 5v-28q31-6 61-6 29 0 44 8t22 29 6 60v162h-29l-2-35h-3q-9 39-51 39m8-30q16 0 25-5t14-19q5-18 5-52v-18h-46q-13 0-20 3t-10 14-3 30q0 20 3 29t10 14 22 4m329 23q-8 3-20 5t-23 2q-37 0-54-14t-23-49-6-113q0-77 6-113t23-50 54-13q11 0 23 2t19 4v30q-17-4-36-4-26 0-37 9t-14 37-3 98 3 97 14 37 37 10q22 0 37-4v29m106 7q-35 0-50-11t-21-36-4-84 4-85 21-37 50-10q35 0 50 10t20 37 5 85q0 58-5 84t-20 36-50 11m0-29q20 0 29-7t10-27 3-68q0-50-3-69t-10-27-29-7-29 7-11 27-2 69q0 48 2 68t11 27 29 7m231 25v-152q0-36-3-51t-10-21-24-5q-20 0-29 11t-10 30-2 57v131h-33v-255h29l2 35h3q5-19 18-29t36-10q24 0 36 9t16 29 4 57v164h-33m139 4q-26 0-40-11t-18-38-5-83q0-54 5-82t18-38 40-11q21 0 33 8t17 27h2v-148h33v372h-29l-2-35h-3q-5 22-18 30t-33 9m11-30q16 0 25-8t12-24q3-14 3-31t1-44q0-43-3-61-4-20-13-28t-26-7q-19 0-27 6t-11 27-2 68 3 68 11 27 27 7m264-102v11h-112q0 41 3 59t13 26 34 7q13 0 29-2t27-3v27q-10 3-28 5t-34 2q-34 0-51-12t-21-39-5-80q0-55 4-81t20-39 52-12q32 0 47 11t18 38 4 82m-70-102q-20 0-28 6t-12 23-2 59h80v-8q0-37-3-53t-11-22-24-5m225 230v-152q0-36-2-51t-10-21-25-5q-19 0-28 11t-11 30-2 57v131h-33v-255h30l2 35h3q5-19 17-29t36-10q24 0 36 9t16 29 4 57v164h-33m134 4q-14 0-31-2t-27-5v-27q9 2 24 3t30 2q23 0 31-11t9-33q0-19-2-28t-7-11-13-4l-42-7q-19-4-27-19t-8-47q0-42 18-58t52-16q13 0 28 2t24 4v28q-8-2-23-4t-28-1q-19 0-29 9t-9 33q0 17 2 25t6 11 13 5l40 6q13 2 21 8t12 20 4 42q0 41-16 58t-52 17m246-132v11h-112q0 41 3 59t14 26 34 7q12 0 28-2t28-3v27q-11 3-28 5t-34 2q-35 0-51-12t-22-39-5-80q0-55 4-81t21-39 51-12q33 0 47 11t18 38 4 82m-69-102q-20 0-29 6t-11 23-3 59h81v-8q0-37-3-53t-11-22-24-5m171 234q-27 0-40-11t-19-38-5-83q0-54 5-82t18-38 40-11q21 0 33 8t17 27h3v-148h33v372h-30l-2-35h-2q-5 22-19 30t-32 9m11-30q16 0 25-8t12-24q2-14 3-31t1-44q0-43-4-61-3-20-12-28t-27-7q-18 0-26 6t-11 27-3 68 3 68 11 27 28 7" />
</svg>