<svg id="fnt-Sanchez" viewBox="0 0 1988 1000" xmlns="http://www.w3.org/2000/svg"><path id="sanchez" class="f" d="M59 667h-28q-7 0-7-6v-117q0-7 7-7h31q6 0 6 7v10q0 10 12 25t23 26 30 17 42 8q39 0 60-16t22-45q0-16-12-28t-32-19-43-13-48-14-43-18-32-30-12-45q0-42 32-70t85-27q68 0 99 39l-1-31q0-6 7-6h28q6 0 6 6v109q0 6-6 6h-32q-6 0-6-6v-14q0-20-23-41t-67-21q-33 0-54 15t-20 41q0 17 13 30t32 20 44 13 48 14 44 18 33 29 12 43q0 44-31 73t-94 28q-46 0-76-18t-44-40l1 49q0 6-6 6m531 0h-44q-21 0-21-21v-26h-1q-37 51-98 51-36 0-59-19t-23-51q0-41 36-60t98-19h42v-6q0-63-65-63-30 0-44 6t-19 9-9 6q-7 6-11 1l-14-18q-3-4 1-8 9-11 35-21t63-11q105 0 105 100v116h28q6 0 6 6v22q0 6-6 6m-70-75v-40h-39q-29 0-48 3t-33 13-13 27 14 29 38 11q48 0 81-43m379 75h-47q-22 0-22-21v-132q0-29-14-45t-41-16q-38 0-60 32-2 3-6 11v137h26q7 0 7 6v22q0 6-7 6h-95q-7 0-7-6v-22q0-6 7-6h27v-179h-27q-7 0-7-6v-21q0-6 7-6h58q7 0 7 6l-1 34h1q26-44 81-44 40 0 62 24t23 63v129h28q7 0 7 6v22q0 6-7 6m245-72l15 14q3 2 3 4t-3 6-9 12-20 17-33 16-43 6q-53 0-88-34t-35-93 35-92 86-34 77 37h1l-1-27q0-7 7-7h19q6 0 6 7v85q0 6-6 6h-23q-6 0-6-6v-9q-1-18-21-34t-51-17-56 25-25 66 25 67 56 25 52-13 30-26q3-6 8-1m321 72h-48q-21 0-21-21v-132q0-29-14-45t-41-16q-21 0-32 6t-16 11-9 10q-6 8-10 16v137h27q6 0 6 6v22q0 6-6 6h-96q-6 0-6-6v-22q0-6 6-6h28v-292h-28q-6 0-6-6v-21q0-6 6-6h63q6 0 6 6v111q0 17-2 31h1q25-39 78-39 40 0 63 24t23 63v129h28q6 0 6 6v22q0 6-6 6m254-118h-180q2 41 26 64t55 22 52-13 29-25q4-5 9-2l14 14q3 3 3 5t-3 6-9 11-20 17-33 16-43 6q-52 0-88-34t-35-93 35-92 86-34 80 33 29 88q0 2 0 4 0 7-7 7m-35-31q-1-31-19-49t-48-19-52 17-25 51h144m296 149h-208q-7 0-7-6v-21q0-9 8-17l162-169h-136v39q0 6-6 6h-21q-7 0-7-6v-66q0-6 7-6h208q7 0 7 6v17q0 9-8 16l-164 173h137v-39q0-6 7-6h21q7 0 7 6v67q0 6-7 6" />
</svg>