<svg id="fnt-Sansita Swashed" viewBox="0 0 3504 1000" xmlns="http://www.w3.org/2000/svg"><path id="sansita-swashed" class="f" d="M102 678q-31 0-53-10t-33-25-12-39q0-18 7-32t20-21 28-8q11 0 19 4t13 11 4 16q0 3 0 6t-1 5q-2-1-5-1t-5 0q-10 0-17 6t-7 21q0 17 14 26t35 9q16 0 30-7t23-19 9-31q0-15-8-28t-20-23-25-22q-15-12-29-25t-23-29-9-38q0-23 10-42t26-30 39-19 45-6q25 0 44 6t28 20 11 29q0 16-6 28t-17 18-22 7q-10 0-17-3t-10-8q6-3 11-12t5-20q0-15-9-25t-31-9q-22 0-37 13t-15 35q0 16 8 28t21 24 26 21q15 11 29 24t22 30 9 39q0 25-11 45t-29 33-40 21-45 7m237-1q-25 0-41-13t-23-33-7-49q0-37 10-70t28-57 44-39 55-14q25 0 52 10l50-6-40 209q0 4-1 10t-1 11q0 7 3 12t12 5q-2 8-8 13t-13 8-16 3q-14 0-23-8t-11-21q-13 13-31 21t-39 8m22-30q19 0 31-13t19-31 10-36l22-120q-10-8-21-12t-19-3q-16 0-28 9t-22 24-15 36-9 44-3 47q0 23 7 39t28 16m355 30q-16 0-25-9t-9-29q0-11 3-28t8-38 9-39 7-35 4-25q0-16-9-25t-22-9q-20 0-33 14t-22 33-13 41l-27 139-57 6 51-261 48-6-6 45q13-24 36-37t47-12q31 0 47 15t16 45q0 14-3 32t-8 39-9 41-8 35-3 25q0 8 3 13t12 6q-3 12-14 18t-23 6m160 1q-16 0-31-4t-28-9-20-17-7-23q0-14 8-22t17-12 20-4q6 0 11 1t9 6q-2 7-4 13t-2 14q0 13 10 20t26 8q18 0 30-10t12-25q0-13-7-23t-18-19-23-17q-14-10-27-21t-21-24-8-33q0-18 9-33t25-23 35-15 38-4q18 0 35 4t29 15 11 30q0 19-13 30t-26 10q-6 0-12-1t-12-5q4-7 5-14t2-14q0-13-9-20t-24-7-28 8-11 25q0 11 6 20t14 17 20 15q15 11 30 22t26 26 10 35q0 25-16 42t-39 28-52 10m183-1q-16 0-25-9t-9-25q0-6 1-15t3-18 3-17 3-14l34-167 57-6-42 209q-1 4-2 10t-1 11q0 7 4 12t11 5q-3 12-14 18t-23 6m51-309q-16 0-27-8t-10-23q0-17 11-25t27-7 26 7 11 24q0 16-11 24t-27 8m94 309q-14 0-24-9t-11-26q0-10 3-28t7-39 8-39 7-30l14-72h-35l2-15q24-9 47-24t42-33h15l-10 50h39l-4 22h-40l-34 170q-2 8-3 14t-1 12q-1 14 5 19t20 2q-5 10-12 15t-15 8-20 3m174 0q-25 0-41-13t-23-33-7-49q0-37 10-70t28-57 44-39 55-14q25 0 52 10l50-6-40 209q0 4-1 10t-1 11q0 7 3 12t12 5q-2 8-8 13t-13 8-16 3q-14 0-23-8t-11-21q-13 13-31 21t-39 8m22-30q19 0 31-13t19-31 10-36l22-120q-10-8-21-12t-19-3q-16 0-28 9t-22 24-15 36-9 44-3 47q0 23 7 39t28 16m337 31q-31 0-53-10t-33-25-12-39q0-18 7-32t20-21 28-8q11 0 19 4t13 11 4 16q0 3 0 6t-1 5q-2-1-5-1t-5 0q-10 0-17 6t-7 21q0 17 14 26t35 9q16 0 30-7t23-19 9-31q0-15-8-28t-20-23-25-22q-15-12-29-25t-23-29-9-38q0-23 10-42t26-30 39-19 45-6q25 0 44 6t28 20 11 29q0 16-6 28t-17 18-22 7q-10 0-17-3t-10-8q6-3 11-12t5-20q0-15-9-25t-31-9q-22 0-37 13t-15 35q0 16 8 28t21 24 26 21q15 11 29 24t22 30 9 39q0 25-11 45t-29 33-40 21-45 7m221-4q-4 0-9 0t-9-2q-1-41-2-79t-4-73-7-58q-2-20-7-31t-13-16q5-6 13-10t22-3q16 0 25 6t14 20 6 34q1 8 1 21t1 30 1 38q0 21-1 42t0 38q15-18 27-41t23-48 16-50 6-47q0-8-1-15t-3-15q6-4 14-9t20-4q12 0 17 6t7 15 2 21q1 12 2 27t0 32 1 31 0 26q0 14 0 32t-1 39q15-18 28-41t22-48 16-50 6-47q0-8-1-15t-3-15q6-6 17-10t21-3 16 3 9 11 3 19q0 16-5 35t-14 40-19 40-22 35q-16 24-34 44t-35 32-39 13q-3 0-7-1t-7-1q0-29-2-52t-2-45q-23 37-40 58t-34 32-35 9m375 3q-26 0-42-13t-23-33-7-49q0-37 10-70t29-57 44-39 55-14q24 0 51 10l51-6-40 209q-1 4-2 10t-1 11q0 7 4 12t12 5q-3 8-9 13t-13 8-16 3q-13 0-23-8t-11-21q-13 13-31 21t-38 8m22-30q19 0 30-13t19-31 11-36l22-120q-10-8-21-12t-20-3q-15 0-28 9t-21 24-16 36-9 44-3 47q0 23 8 39t28 16m241 31q-16 0-32-4t-27-9-20-17-7-23q0-14 7-22t18-12 20-4q5 0 11 1t9 6q-3 7-5 13t-2 14q1 13 10 20t26 8q18 0 30-10t13-25q0-13-7-23t-19-19-23-17q-13-10-26-21t-22-24-8-33q0-18 10-33t25-23 34-15 39-4q17 0 34 4t29 15 11 30q0 19-12 30t-27 10q-5 0-12-1t-11-5q3-7 5-14t2-14q0-13-9-20t-25-7-27 8-11 25q0 11 5 20t15 17 19 15q16 11 31 22t25 26 10 35q0 25-15 42t-40 28-51 10m334-1q-16 0-25-9t-9-29q0-11 3-28t8-38 9-39 7-35 4-25q0-16-9-25t-22-9q-20 0-33 14t-22 33-13 41l-27 139-57 6 45-229 46 8q15-24 36-37t49-13q31 0 47 15t16 45q0 14-3 32t-8 39-9 41-8 35-3 25q0 8 3 13t12 6q-3 12-14 18t-23 6m-95-216l-48-10q4-20 8-45t7-49 4-41q0-6-1-11t-1-8q5-4 12-6t14-1q14 0 25 7t11 28q0 7-2 19t-6 29-8 33-8 31-7 24m277 216q-29 0-50-11t-31-33-11-55q0-32 8-63t27-57 44-41 65-15q19 0 35 5t24 18 9 34q0 29-17 49t-46 30-63 10q-6 0-14 0t-13-1q0 8-1 16t0 14q0 27 10 42t36 16q22 0 39-11t26-29q7 2 10 8t2 13q0 15-10 29t-31 23-48 9m-29-154q17 0 33-4t31-11 22-20 9-29q0-14-7-22t-19-7q-14 0-26 9t-20 23-15 30-8 31m237 154q-26 0-42-13t-23-33-7-49q0-37 10-70t29-57 44-39 55-14q15 0 27 2t26 9l47 7q-9 48-19 96t-19 99q-1 4-2 10t-1 11q0 7 4 12t12 5q-3 8-9 13t-13 8-16 3q-13 0-23-8t-11-21q-13 13-31 21t-38 8m22-30q19 0 30-13t19-31 11-36l22-120q-10-8-21-12t-20-3q-15 0-28 9t-21 24-16 36-9 44-3 47q0 23 8 39t28 16m143-222l-55-4q5-28 8-56t5-48q0-6-1-11t-1-9q5-3 12-5t15-2q13 0 24 7t11 28q0 6-3 22t-7 37-8 41" />
</svg>