<svg id="fnt-Sarala" viewBox="0 0 1337 1000" xmlns="http://www.w3.org/2000/svg"><path id="sarala" class="f" d="M146 309q42-1 87 19l-12 44q-45-18-76-18-32 0-51 13t-19 34q0 16 7 27t22 19 45 17q52 15 74 39t21 66q0 48-32 75t-87 27q-49 0-107-25l14-43q33 13 52 18t41 5q32 0 51-15t19-41q0-17-7-28t-25-20-48-17q-49-13-69-36t-21-61q0-47 32-73t89-26m245 97q48 0 74 25t26 72v164h-36l-7-30q-37 35-84 35-39 0-61-21t-23-56q0-40 33-63t93-23h38v-7q-2-55-56-55-17 0-37 5t-42 14l-13-38q22-11 47-17t48-5m18 139q-39 0-60 13t-22 36q0 17 12 27t33 9q21 0 40-9t32-23v-53h-35m201-99q14-20 32-31t39-10q15 0 34 6l-9 46q-24-5-33-5-21 0-35 8t-24 26v181h-47v-257h37l6 36m234-40q48 0 74 25t26 72v164h-36l-7-30q-38 35-85 35-38 0-61-21t-23-56q0-40 34-63t93-23h38v-7q-2-55-57-55-16 0-37 5t-42 14l-13-38q23-11 48-17t48-5m18 139q-39 0-61 13t-22 36q0 17 12 27t34 9q20 0 40-9t32-23v-53h-35m158 122v-375h47v375h-47m216-261q48 0 74 25t26 72v164h-36l-7-30q-38 35-85 35-38 0-61-21t-23-56q0-40 33-63t94-23h38v-7q-2-55-57-55-16 0-37 5t-42 14l-13-38q23-11 48-17t48-5m18 139q-39 0-61 13t-22 36q0 17 12 27t34 9q20 0 40-9t32-23v-53h-35" />
</svg>