<svg id="fnt-Sarpanch" viewBox="0 0 2335 1000" xmlns="http://www.w3.org/2000/svg"><path id="sarpanch" class="f" d="M241 622v-82q0-9-3-12t-13-3h-145q-40 0-40-40v-90q0-39 40-39h163q40 0 40 39v50h-44v-44q0-10-3-13t-13-3h-123q-10 0-13 3t-3 13v79q0 10 3 12t13 3h145q39 0 39 40v92q0 40-39 40h-164q-40 0-40-40v-49h44v44q0 10 3 12t13 3h124q10 0 13-3t3-12m182 15h110q9 0 13-4t4-13v-149q0-9-4-13t-13-4h-110q-10 0-13 3t-3 12v153q0 10 3 12t13 3m127-197v-16h43v243h-43v-16q-7 16-28 16h-118q-40 0-40-40v-163q0-40 40-40h118q21 0 28 16m215-16h52v31h-59q-32 0-32 37v175h-43v-243h43v31q8-31 39-31m292 198v-153q0-9-3-12t-12-3h-115q-9 0-13 4t-4 13v149q0 9 4 13t13 4h115q10 0 12-3t3-12m-120-198h124q39 0 39 40v163q0 40-39 40h-124q-21 0-27-16v86h-43v-313h43v16q6-16 27-16m302 213h110q9 0 13-4t4-13v-149q0-9-4-13t-13-4h-110q-10 0-13 3t-3 12v153q0 10 3 12t13 3m127-197v-16h43v243h-43v-16q-7 16-28 16h-118q-40 0-40-40v-163q0-40 40-40h118q21 0 28 16m204-16h118q39 0 39 40v203h-43v-198q0-9-3-12t-12-3h-110q-9 0-13 4t-4 13v17h0v179h-43v-243h43v18q5-18 28-18m460 40v39h-43v-34q0-9-3-12t-12-3h-106q-10 0-13 3t-3 12v153q0 10 3 12t13 3h106q9 0 12-3t3-12v-34h43v39q0 40-39 40h-144q-40 0-40-40v-163q0-40 40-40h144q39 0 39 40m146-40h119q39 0 39 40v203h-43v-198q0-9-3-12t-12-3h-110q-9 0-13 4t-4 13v16h-1v180h-43v-335h43v110q6-18 28-18" />
</svg>