<svg id="fnt-Sassy Frass" viewBox="0 0 1460 1000" xmlns="http://www.w3.org/2000/svg"><path id="sassy-frass" class="f" d="M123 691q-9 0-24-4t-30-9-30-11-21-13q-6-5-11-12t-6-16q0-7 5-11t11-4q3 0 8 1t11 4 5 5q0 2-2 2t-3 1q-2 0-4 0t-3-1q-3 0-7 2t-3 6q0 8 11 17t26 15 29 12 22 5q11 0 20-7t10-17q0-10-4-23t-8-24-8-21q-9-22-15-48t-5-53q0-27 7-52t27-43 49-23q3-1 5-1t4 0q20 0 34 11t22 30 8 35q0 9-2 20t-7 23-12 18-18 7q-10 0-15-7t-5-17q0-10 3-23t9-24 9-21q1 0 1-2t2-1 1 3v3q0 3-1 6-5 11-10 24t-5 27q0 8 3 15t10 8q3 0 6-3t6-10q5-10 7-22t3-22q0-14-6-30t-15-29-27-11h-3q-4 0-6 1-25 5-41 23t-22 41-6 51q0 24 4 47t12 40q4 10 10 26t11 33 5 26q0 15-9 21t-22 6m125-16q-10 0-12-10t-2-18q0-14 1-28t2-28q-2 7-6 20t-9 25-12 22-16 9q-6 0-9-5t-4-12-1-10q0-24 10-49t22-43q0-8 6-16t14-14 14-9q3-1 5-1t4 2 1 4q0 2 0 4t-2 4q-5 5-9 8t-9 9q-10 12-21 29t-18 35-7 35q0 2 0 7t2 11 6 5q4 0 8-6t6-8q5-10 10-25t9-31 6-26q1-4 2-7t1-7q0-1 0-4t1-4q1-3 4-3 3 0 5 2t2 4v1q0 17-3 33t-2 34q0 10 1 21t2 22q0 1 1 4t4 3q1 0 3-1t2-2q13-10 22-27t14-32q2-2 3-2 1 0 1 2v2q-2 9-9 23t-16 27-15 17q-5 4-12 4m82-5q-2 0-9 0t-8-3l-1-3q0-1 2-2t2 0h17q4 0 11-2t11-5 5-9q0-4-2-6t-5-4q-10-7-22-15t-18-19-8-25 9-27 22-26 29-18 29-7q8 0 18 4t10 15q0 3-3 9t-6 6q-1 0-1-2t0-2q0-3 0-6t1-5q0-9-9-9-7 0-18 5t-22 12-16 12q-5 5-12 13t-12 16-5 18q0 10 8 19t20 17 20 14 8 15q0 8-9 12t-19 6-17 2m121 0q-2 0-9 0t-7-3l-2-3q0-1 2-2t3 0h16q5 0 11-2t12-5 5-9q0-4-3-6t-5-4q-10-7-21-15t-19-19-7-25 8-27 23-26 29-18 28-7q9 0 18 4t10 15q0 3-2 9t-6 6q-1 0-2-2t0-2q0-3 1-6t0-5q0-9-9-9-7 0-18 5t-21 12-16 12q-6 5-13 13t-12 16-5 18q0 10 9 19t19 17 20 14 9 15q0 8-9 12t-20 6-17 2m106 82q-9 0-17-5t-8-15q0-12 9-23t18-19q13-10 30-23t32-16q0-22-9-43-8 11-17 21t-19 21q-5 4-15 10t-15 7q-5 0-5-6 0-5 2-11 5-12 9-24t9-22q4-9 8-21t5-21q0-1-1-4t-3-3q-3 0-7 4t-7 3q-1 0-1-1 0-3 4-6t10-4 8-2q7 0 11 4t3 12q0 8-6 22t-14 29-14 25-6 14q0 1 1 1 3 0 10-4t10-7q22-19 38-43-1-2-4-7t-2-7q0-3 5-6t10-6 8-2q4 0 4 3 0 4-6 13t-9 12q6 11 10 23t6 25q3 0 11 3t7 7q0 1-2 1-1 0-5-3t-10-2q0 4 0 8t1 8q0 19-7 34t-21 27q-10 7-23 13t-26 6m57-155q2-4 4-8t5-9q-4 2-8 4t-7 5q2 2 3 4t3 4m-55 151q10 0 20-7t16-14q13-14 20-32t7-37q-10 3-23 10t-27 18-22 22-8 23q0 8 4 12t13 5m302-255q-8 0-21-1t-28-2-28-6-23-11-8-17 7-18 16-12q19-11 46-19t56-13 57-7 50-3q5 0 17 1t26 2 29 5 22 8 9 13q0 2-2 6t-4 3q-4 0-4-3 0-2 1-3t1-3q0-3-4-6t-5-2q-13-6-33-8t-34-2q-21 0-48 3t-57 7-56 13-44 17q-5 3-15 10t-9 14q0 6 9 10t21 7 28 4 26 2 17 1q15 0 30-2t29-5h2q3 0 3 4 0 2-3 3-2 1-5 2t-5 1q-34 7-66 7m-47 203q-29 0-48-14t-28-37-8-50q0-11 2-28t7-27q1-3 3-3 4 0 4 3v1q-6 18-6 38 0 21 6 40 5 16 14 31t24 26 32 10q24 0 45-11t38-28 31-40 26-45 20-41q-17 2-34 8t-33 12q-7 3-19 7t-27 10-26 9-19 4q-5 0-11-3t-6-9q0-3 1-5 4-6 13-11t21-9 22-9 17-7q14-6 26-13t24-16q1-1 2-1 3 0 3 3 0 2-2 4-14 14-36 23t-39 20q-8 4-16 9t-14 12l-1 1h1q4 0 16-4t26-9 25-9 17-6q18-6 36-12t37-7q2-6 7-17t12-26 13-28 12-23 9-13q3-2 6-4t8-2q5 0 11 4t5 10q0 3-2 3-5 0-7-5t-7-4q-3 0-5 1t-4 3q-2 2-6 11t-9 23-11 27-9 25-5 15q6 2 13 6t6 12q0 7-5 15t-13 14-13 11q0 0-1 1t-1 0q-3 0-3-3 0-2 5-9t11-15 6-15q0-8-8-9-4 9-8 19t-8 20q-12 26-28 50t-35 44-45 31-57 11m227-36h-2q-3 0-6-3t-3-7q0-2 1-4 5-15 9-36t3-36q0-9-2-20t-9-17q-2 0-2-2 0-1 1-1 2 0 3 1 11 7 14 23t4 28q0 11-2 23t-4 24v2t0 1 1 1q1 0 2-1t1-2q7-11 12-25t11-27q1-4 4-9t8-4q4 0 5 3t1 7q0 6 2 10t3 6q0 2-3 2t-3 1q-4 0-7-2t-7-2q-1 0-3 2-3 5-5 10t-5 11q-4 8-8 16t-8 17q-1 3-2 6t-4 4m123 15q-11 0-13-10t-2-18q0-14 1-28t3-28q-2 7-6 20t-9 25-13 22-16 9q-6 0-9-5t-4-12 0-10q0-24 9-49t23-43q0-8 5-16t14-14 14-9q3-1 6-1t3 2 2 4q0 2-1 4t-2 4q-4 5-9 8t-8 9q-10 12-21 29t-18 35-8 35q0 2 1 7t2 11 5 5q5 0 8-6t6-8q6-10 11-25t9-31 6-26q1-4 1-7t1-7q1-1 1-4t0-4q1-3 5-3 2 0 4 2t2 4v1q0 17-2 33t-2 34q0 10 0 21t3 22q0 1 1 4t3 3q2 0 3-1t3-2q12-10 21-27t15-32q1-2 2-2 2 0 2 2v2q-3 9-10 23t-15 27-16 17q-5 4-11 4m81-5q-2 0-9 0t-7-3l-2-3q0-1 2-2t3 0h16q5 0 11-2t12-5 5-9q0-4-3-6t-5-4q-10-7-21-15t-19-19-7-25 8-27 23-26 29-18 28-7q9 0 18 4t10 15q0 3-2 9t-6 6q-1 0-2-2t0-2q0-3 1-6t0-5q0-9-9-9-7 0-18 5t-21 12-16 12q-6 5-13 13t-12 16-5 18q0 10 9 19t19 17 20 14 9 15q0 8-9 12t-20 6-17 2m122 0q-2 0-9 0t-8-3l-1-3q0-1 2-2t2 0h17q4 0 11-2t11-5 5-9q0-4-2-6t-5-4q-10-7-22-15t-18-19-8-25 9-27 22-26 29-18 29-7q8 0 18 4t10 15q0 3-3 9t-6 6q-1 0-1-2t0-2q0-3 0-6t1-5q0-9-9-9-7 0-18 5t-22 12-16 12q-5 5-12 13t-12 16-5 18q0 10 8 19t20 17 20 14 8 15q0 8-9 12t-19 6-17 2" />
</svg>