<svg id="fnt-Sawarabi Mincho" viewBox="0 0 4165 1000" xmlns="http://www.w3.org/2000/svg"><path id="sawarabi-mincho" class="f" d="M214 313q2-1-1-8t-4-13h25l48 84-14 12-10-14-20-19q-17-16-33-23t-47-7-54 22-22 45 15 35 36 21 32 11q56 14 81 31 48 32 48 82 0 28-15 49t-28 30q-35 23-94 23-35 0-65-17l-7-4 1 9q1 5 3 9h-25l-49-84 14-11 11 13 20 19q36 38 80 38 2 0 3 0 46-2 72-25t27-48-10-35q-21-22-36-26-74-22-115-42-48-24-48-73v-2q0-25 11-45t30-31q36-22 73-22t67 16m369 305v22q-8 33-35 33t-37-35q-28 36-63 36-43 0-74-22t-30-53v-1q0-56 63-86 35-16 55-16t49 12l0-22q0-28-9-37-19-18-51-18t-90 36l-1-39q48-24 98-24h3q30 0 61 22 16 12 25 31t10 42v135q3 3 8 3 1 0 18-19m-72-47v-24q-4-22-37-22h-3q-25 0-51 22t-27 48q0 4 1 7 5 41 55 41 26 0 39-12t16-21 5-22 2-17m112-133h-20v-22h119v22h-22l-8 7q-4 5-4 10v6l46 168 50-135-11-33q-7-22-15-23h-14v-22h102v22h-16l-8 7q-4 5-4 10v6l54 168 45-168h-1v-6q0-4-1-9l-10-8h-22v-22h100v22h-17q-15 3-20 23l-60 208h-45l-45-136-47 136h-45l-61-208q-6-21-20-23m630 180v22q-8 33-35 33t-38-35q-27 36-63 36-43 0-73-22t-31-53v-1q0-56 63-86 35-16 56-16t48 12l1-22q0-28-9-37-20-18-52-18t-89 36l-1-39q48-24 98-24h2q31 0 61 22 16 12 26 31t10 42v135q3 3 7 3 1 0 19-19m-73-47v-24q-4-22-36-22h-3q-25 0-52 22t-26 48q0 4 0 7 5 41 56 41 26 0 38-12t16-21 5-22 2-17m278-162h1q14 0 23 1-7 29-7 40-10-2-24-2-39 0-65 34t-26 69v78q4 15 18 15h24v23h-125v-23l26 0q10-2 16-15v-163h-38v-10l60-40h19v65q30-72 98-72m294 209v22q-8 33-35 33t-38-35q-27 36-63 36-43 0-73-22t-31-53v-1q0-56 63-86 35-16 56-16t48 12l1-22q0-28-9-37-20-18-52-18t-89 36l-1-39q48-24 98-24h2q31 0 61 22 16 12 26 31t10 42v135q3 3 7 3 1 0 19-19m-73-47v-24q-4-22-36-22h-3q-25 0-52 22t-26 48q0 4 0 7 5 41 56 41 26 0 38-12t16-21 5-22 2-17m230 71q34 0 53-28t19-73q-1-47-21-73t-51-26q-66 1-70 84v27q7 89 70 89m-70-345v150q29-37 78-37t81 35 33 94-33 98-81 37-78-39v33h-42v-321h-38v-10l60-40h20m264 56q-9-10-9-23t9-24 24-9 23 9 10 24-10 23-23 10-24-10m44 54v222q3 15 18 15h21v23h-123v-23l27 0q10-2 15-15v-172h-37v-10l59-40h20m313-17v224q0 30 42 30h13v23h-142v-23l18 0q38-1 38-30v-263q0-22-23-25h-33v-23h86l159 282 142-282h102v23h-35q-20 3-20 25v263q0 30 42 30h13v23h-159v-23l18 0q38-1 38-30v-248l-148 290-151-266m480-37q-10-10-10-23t10-24 23-9 23 9 10 24-10 23-23 10-23-10m43 54v222q4 15 18 15h21v23h-122v-23l26 0q10-2 16-15v-172h-38v-10l60-40h19m144 0v52q18-48 81-48 97 1 97 124v94q3 15 18 15h19v23h-116v-23l22 0q10-2 15-15v-84q0-106-58-106-78 0-78 101v89q3 15 18 15h19v23h-116v-23l22 0q10-2 15-15v-172h-37v-10l59-40h20m452 225v26q-30 14-56 14h-6q-59 0-98-38t-40-92 43-92 97-36q40 0 63 15l-13 36q-22-19-46-19-37 0-66 28t-28 69 30 71 73 30q26 0 47-12m117-335v167q24-49 67-49t70 28 26 78v108q4 15 13 15h22v23h-113v-23l24 0q1-2 10-15v-99q0-41-14-65t-38-24-46 22-21 55v111q4 15 13 15h22v23h-111v-23l24 0q2-2 11-15v-282h-38v-10l60-40h19m343 379q-50 0-85-39t-35-93 35-95 85-40 88 40 37 95-37 93-88 39m75-133q0-43-24-74t-54-31-51 31-20 75 24 74 53 30 51-31 21-74" />
</svg>