<svg id="fnt-Scada" viewBox="0 0 1224 1000" xmlns="http://www.w3.org/2000/svg"><path id="scada" class="f" d="M120 672q-44 0-75-14-17-6-27-14l17-30h5q7 5 21 12 27 11 54 11 34 0 52-17t18-43q0-18-9-30t-24-20-38-20q-30-13-48-24t-31-30-12-46 12-49 37-34 56-12q42 0 73 14 13 5 24 13l-17 30h-5q-7-5-18-11-25-11-52-11-26 0-43 16t-17 39q0 17 9 29t24 21 38 19q30 13 48 24t30 30 13 47q0 46-30 73t-85 27m268 0q-52 0-81-33t-29-97 28-97 77-33q33 0 60 14 13 6 22 13l-17 30h-5q-7-5-17-11-21-11-38-11-28 0-44 22t-16 73q0 50 16 72t49 23q18 0 38-11 11-6 17-12h5l17 30q-9 8-22 14-26 14-60 14m197 0q-39 0-61-21t-21-57q0-35 25-55t82-20h40v-12q0-30-14-45t-38-15q-18 0-39 11-11 6-16 11h-5l-18-30q10-7 23-13 27-14 60-14 28 0 50 12t35 34 12 49v160h-35l-5-30h-2q-7 10-18 17-22 18-55 18m13-38q18 0 37-15 9-7 15-15v-50h-40q-28 0-43 11t-14 29q0 20 11 30t34 10m252 38q-24 0-45-15t-33-44-12-71q0-64 28-97t72-33q17 0 39 7l16 8v-95l15-15h35v350h-35l-5-30h-2q-7 10-18 17-22 18-55 18m13-38q18 0 37-15 9-7 15-15v-147q-4-3-13-5-17-5-34-5-26 0-42 22t-16 73q0 47 15 70t38 22m245 38q-39 0-61-21t-22-57q0-35 26-55t82-20h40v-12q0-30-14-45t-39-15q-18 0-39 11-10 6-16 11h-5l-17-30q10-7 22-13 27-14 60-14 29 0 51 12t34 34 13 49v160h-35l-5-30h-3q-7 10-17 17-22 18-55 18m12-38q19 0 38-15 8-7 15-15v-50h-40q-29 0-43 11t-15 29q0 20 11 30t34 10" />
</svg>