<svg id="fnt-Schibsted Grotesk" viewBox="0 0 4251 1000" xmlns="http://www.w3.org/2000/svg"><path id="schibsted-grotesk" class="f" d="M160 673q-41 0-71-14t-49-39-24-62l52-11q2 43 25 66t65 23q26 0 44-8t27-23 9-36q0-27-16-41t-43-19l-46-10q-12-3-29-8t-32-16-26-27-11-43q0-34 18-55t45-31 59-10q37 0 63 12t42 33 21 50l-51 11q-2-22-11-38t-25-23-41-9q-20 0-37 6t-28 19-11 32q0 21 15 34t48 20l46 11q25 5 47 17t36 31 13 53-15 56-43 36-66 13m291 0q-37 0-64-17t-42-48-14-73 14-73 42-48 64-17q29 0 51 10t38 30 23 47l-42 11q-7-31-25-47t-45-17q-36 0-56 27t-19 77q0 50 19 76t56 27q28 0 45-16t25-46l41 12q-6 20-16 35t-24 27-32 17-39 6m212-6h-41v-367h41v165l-4-11q10-24 33-41t56-16q28 0 48 13t31 35 11 56v166h-41v-163q0-34-13-53t-44-20q-34 0-56 25t-21 73v138m284 0h-41v-264h41v264m-21-308q-14 0-24-10t-10-24q0-15 10-25t24-10q15 0 25 10t9 25q0 14-9 24t-25 10m227 314q-26 0-52-13t-38-44l2-2v53h-38v-367h41v158l-4-4q11-29 36-43t53-14q32 0 56 17t38 48 14 73-14 73-38 48-56 17m-12-35q33 0 54-27t21-77q0-49-20-76t-54-27q-21 0-38 11t-27 33-11 59q0 53 22 79t53 25m270 35q-28 0-52-10t-38-28-21-49l43-8q3 31 21 46t47 15q27 0 44-14t16-34q0-17-12-27t-33-14l-32-6q-13-3-27-7t-26-12-20-21-7-32q0-26 14-42t35-25 49-8q28 0 49 9t34 25 18 40l-45 9q-2-15-8-26t-18-17-31-6q-23 0-39 9t-17 29q0 11 6 18t17 13 28 9l32 7q20 4 38 12t28 22 10 39q0 26-13 45t-36 28-54 11m277-6h-54q-16 0-27-11t-12-26v-193h-43v-34h43v-55l41-9v64h52v34h-52v182q0 8 2 11t10 2h40v35m166 6q-37 0-65-17t-42-48-15-73q0-42 15-73t42-48 64-17q21 0 42 7t38 23 29 45 10 73h-213v-34h178l-12 16q-1-35-11-56t-26-30-36-10q-23 0-40 12t-26 36-9 56q0 50 20 76t57 27q27 0 45-13t27-39l40 14q-9 23-25 39t-38 25-49 9m269 0q-32 0-56-17t-38-48-14-73 14-74 38-47 56-17q26 0 52 13t38 44l-5 2v-156h41v367h-38v-55l1 4q-11 28-36 42t-53 15m11-35q21 0 38-10t27-34 10-58q0-54-21-79t-53-26q-33 0-54 27t-21 78q0 48 20 75t54 27m479 35q-58 0-97-24t-58-64-20-94q0-53 20-94t57-65 89-23q35 0 65 12t50 36 29 60l-48 11q-8-43-34-63t-62-20q-37 0-64 19t-40 52-14 78q0 39 12 71t40 52 71 19q27 0 53-8t45-32v-85l12 13h-130v-37h159v123q-19 27-43 40t-48 18-44 5m243-6h-41v-264h38v56l-1-6q12-28 35-42t48-14q7 0 14 1t12 4l-5 39q-14-4-27-4-8 0-20 3t-25 13-20 30-8 52v132m269 6q-37 0-66-18t-44-48-16-72 16-72 44-48 66-18 65 18 44 48 16 72-16 72-44 48-65 18m0-35q37 0 59-28t21-75q0-48-21-76t-59-28-59 28-22 76q0 48 22 75t59 28m300 29h-55q-16 0-27-11t-12-26v-193h-42v-34h42v-55l41-9v64h52v34h-52v182q0 8 2 11t10 2h41v35m166 6q-38 0-65-17t-43-48-15-73q0-42 15-73t42-48 64-17q21 0 42 7t39 23 28 45 10 73h-213v-34h178l-12 16q-1-35-11-56t-26-30-36-10q-23 0-40 12t-26 36-9 56q0 50 20 76t58 27q26 0 44-13t27-39l40 14q-9 23-25 39t-38 25-48 9m269 0q-28 0-52-10t-38-28-21-49l43-8q3 31 21 46t47 15q27 0 44-14t16-34q0-17-12-27t-33-14l-32-6q-13-3-27-7t-26-12-20-21-7-32q0-26 13-42t36-25 49-8q28 0 49 9t34 25 18 40l-45 9q-2-15-8-26t-18-17-31-6q-23 0-39 9t-17 29q0 11 6 18t17 13 27 9l33 7q20 4 38 12t28 22 10 39q0 26-13 45t-36 28-54 11m208-6h-41v-367h41v221l124-118h56l-109 100 111 164h-49l-92-137-41 38v99" />
</svg>