<svg id="fnt-Schoolbell" viewBox="0 0 1920 1000" xmlns="http://www.w3.org/2000/svg"><path id="schoolbell" class="f" d="M117 533q-12-12-25-23t-26-21-25-22-23-25q-11-14-17-31t-2-35q4-19 19-34t33-23q19-8 38-11t40-4 40 0 40-1q10 0 14 6t5 13-5 13-14 7q-14 1-28 1t-28-1q-19-1-38 0t-38 8q-6 3-14 6t-13 9-10 12-3 14q0 7 3 13t8 13 10 12 10 11q11 11 23 21t25 19q12 10 25 22t23 27 14 31 1 34q-3 17-13 29t-22 21-28 18-27 15q-8 5-16 2t-10-9-3-14 9-13q12-7 23-12t23-14q11-7 19-16t8-22q0-13-8-25t-17-21m246 96q2 6-2 14t-12 9q-26 5-52 0t-48-22q-21-18-30-44t-4-54q6-24 23-41t39-27q19-10 41-15t43-4q8 1 14 7t5 13q0 7-5 14t-14 6q-16-2-31 1t-29 9q-9 4-17 9t-13 9q-7 6-11 12t-6 14-2 16 4 18 7 15 12 12q14 10 31 14t33 1q8-2 15 2t9 12m52 28q-7-3-12-10t-2-14q9-23 12-46t4-48q0-8 0-15t0-14q-1-6 1-11 1-14 2-29t3-28q3-22 5-43t4-43q1-20 2-40t10-38q5-8 12-10t14 3 9 11-1 16q-4 8-5 17t-2 18 0 18-1 18q-2 22-5 44t-5 44q21-11 46-12 19 0 40 7t33 23q7 9 11 20t7 23 4 24 2 23q1 23 1 46t-1 46q0 9-6 14t-14 4-13-4-6-14q1-20 1-39t0-39q-1-10-2-20t-2-21q-1-5-2-9t-2-10q0-4-2-8-2-5-2-5-1-1-2-3t-1-2q-5-5-6-6-2-1-3-2t-3-2q-5-3-12-5t-13-1q-17-1-31 5t-26 21q-1 34-3 67t-15 65q-2 8-9 12t-14 2m353-215q15-2 32-2t33 6 28 16 20 26q5 12 5 24t-3 23-11 21-17 18q-20 18-43 31t-51 20q-11 3-23 5t-24 2-24-3-22-9q-7-4-9-11-3-9-6-16t-7-15-5-16-2-16q0-17 7-31t20-27q20-19 47-31t55-15m55 42q-13-5-29-5-16-1-32 3t-31 10q-13 5-28 15t-21 23q-4 7-4 15t3 15 6 15 6 15q8 2 10 2 1 0 3 0t2 0q10 1 18 0 5 0 13-2 13-2 25-7t21-9q11-5 22-11t18-14q5-4 9-9 3-2 4-4 2-3 4-5t2-4q2-3 2-5 1-1 1-3t1-2v-6q-1-2-1-3t0-2q-2-3-3-5t-3-3q1 0-1-2t-2-2l-4-4q-2-2-5-4t-6-2m212-42q15-2 32-2t33 6 28 16 20 26q5 12 5 24t-3 23-11 21-16 18q-20 18-44 31t-51 20q-11 3-23 5t-24 2-24-3-22-9q-7-4-9-11-3-9-6-16t-7-15-5-16-2-16q0-17 7-31t20-27q20-19 47-31t55-15m55 42q-13-5-28-5-17-1-33 3t-30 10q-14 5-29 15t-21 23q-4 7-3 15t2 15 6 15 6 15q8 2 10 2 1 0 3 0t2 0q10 1 18 0 5 0 13-2 13-2 25-7t21-9q11-5 22-11t18-14q5-4 10-9 2-2 3-4 2-3 4-5t2-4q2-3 2-5 1-1 1-3t1-2v-6q-1-2-1-3t0-2q-2-3-3-5t-3-3q1 0-1-2t-2-2l-4-4q-2-2-5-4t-6-2m123-201q9 0 14 6t5 14q5 46 6 93t-1 92-6 93-6 92q-1 9-6 14t-14 6q-7 0-14-6t-5-14q3-45 7-92t5-93 1-92-5-93q-1-8 5-14t14-6m75 19q0-9 5-14t14-5 13 5 7 14q2 40 6 79t4 79q26-8 53-11t53 3q15 4 30 13t22 24q6 15 8 29t1 30q-1 19-7 34t-17 30q-10 13-23 25t-28 19q-10 4-19 5t-17-3-18-7-16-9-15-9-14-11l-3 9q0 10-6 15t-13 5-14-5-6-15q0-32 3-63t5-63q-6-9-5-16t6-12q1-4 1-9t0-8q1-40-4-79t-6-79m46 201q-1 17-2 33t-3 34q11 8 21 18t22 16q3 2 8 6t11 7 11 5 10-1q10-5 19-13t17-17 12-20 5-23q1-10 1-21t-6-21q-5-9-15-13t-21-5q-23-3-45 1t-45 14m220-26q9-12 22-22t28-16 30-6 31 7q15 5 27 15t19 26q6 12 7 25t-8 25q-7 11-17 16t-23 8-24 2-24 0q-13-1-25-2t-25-3q4 22 15 39t32 26q6 2 8 3 2 0 3 1t3 0q4 0 6 0t6 0q3 0 4 0t3-1q5-2 9-4t10-6q3-2 8-7t9-9q4-7 11-9t15 2q6 3 9 12t-2 14q-14 19-34 33t-44 14q-20 1-39-7t-32-22q-18-17-28-39t-11-46q-5-3-7-9t-1-10 3-10 9-6q5-18 17-34m117 12q-5-7-17-12-9-4-21-4t-22 4q-11 6-20 15t-14 21q12 2 24 3t23 2q6 0 13 0t12 0q2 0 4-1t4 0q4-1 6-1t5-1q2-1 5-2 2-1 3-1t1-1l2-6q-1-2-2-4t-1-3q0-1-2-4t-3-5m118-206q8 0 13 6t6 14q5 46 5 93t-1 92-5 93-7 92q-1 9-6 14t-13 6q-8 0-14-6t-6-14q4-45 7-92t6-93 1-92-5-93q-1-8 5-14t14-6m105 0q8 0 13 6t6 14q5 46 5 93t-1 92-5 93-7 92q-1 9-6 14t-13 6q-8 0-14-6t-6-14q4-45 7-92t6-93 1-92-5-93q-1-8 5-14t14-6" />
</svg>