<svg id="fnt-Scope One" viewBox="0 0 2308 1000" xmlns="http://www.w3.org/2000/svg"><path id="scope-one" class="f" d="M26 637l-1-63q3-2 8-2 6 0 10 4l14 59q14 6 31 10t36 3q42 0 65-17t23-48q0-24-17-40t-60-29q-39-13-63-27t-33-31-10-38q0-37 27-58t75-21q42 0 79 18 3 4 6 8t4 7l1 60q-3 2-8 2-6 0-10-3l-14-57q-28-12-58-12-36 0-55 14t-19 42q0 16 7 27t26 22 51 21q54 19 77 40t23 55q0 41-31 65t-86 24q-25 0-49-6t-39-14q-3-4-6-8t-4-7m436-141l-12-53q-21-9-49-9-26 0-46 14t-30 38-11 56q0 49 25 77t67 29q17 0 36-4t32-11q4 4 6 8t3 10q-18 10-39 15t-43 6q-35 0-61-17t-40-45-15-68 15-69 40-45 61-16q17 0 36 3t31 10q6 7 10 15l1 57q-4 2-8 2-5 0-9-3m175 154q26 0 46-14t30-38 11-56-11-57-30-38-46-13-46 13-30 38-11 57 11 56 30 38 46 14m0 22q-35 0-61-17t-40-45-14-68 14-69 40-45 61-16 61 16 40 45 15 69-15 68-40 45-61 17m277 83l-1 4h-122q-1-3-1-7 0-4 3-9l34-4v-291q-17 6-30 12-7-8-8-18 23-14 55-22t61-8q37 0 65 16t44 45 16 67q0 39-14 69t-40 46-58 17q-37 0-64-20v86h54q8 0 8 7 0 3-2 10m-60-314v185q30 23 64 23 25 0 44-14t29-38 11-56q0-48-27-78t-72-29q-12 0-24 2t-25 5m415 95h-168v6q0 48 25 77t68 29q19 0 40-6t34-12q4 4 6 8t2 10q-41 24-87 24-35 0-61-17t-40-45-15-68q0-40 14-69t39-45 60-16q92 0 92 109-4 9-9 15m-166-21h149q0-81-66-81-33 0-55 22t-28 59m496 133q36 0 63-18t41-50 15-75-15-75-41-50-63-17-63 17-41 50-15 75q0 44 15 76t41 49 63 18m0 24q-44 0-78-21t-52-58-18-88q0-50 18-87t52-58 78-21 78 21 52 58 19 87q0 51-19 88t-52 58-78 21m467-9l-1 4h-97q-1-4-1-7 0-4 3-10l34-4v-142q0-70-60-70-23 0-43 13t-32 37-12 50v111h29q8 0 8 7 0 3-2 11l-1 4h-96q-2-4-2-7 0-4 3-10l34-4v-206h-38q-1-3-1-7 0-4 3-9l49-10q9 5 14 11l-3 50q14-30 38-47t57-16q40 0 61 23t21 69v141h29q8 0 8 7 0 3-2 11m232-127h-168v6q0 48 25 77t68 29q19 0 40-6t34-12q4 4 6 8t2 10q-41 24-87 24-35 0-61-17t-40-45-15-68q0-40 14-69t39-45 60-16q92 0 92 109-4 9-9 15m-166-21h149q0-81-66-81-33 0-55 22t-28 59" />
</svg>