<svg id="fnt-Secular One" viewBox="0 0 2805 1000" xmlns="http://www.w3.org/2000/svg"><path id="secular-one" class="f" d="M123 673q-29 0-56-6t-44-18l6-67q22 14 47 22t46 8q24 0 39-10t15-27q0-12-8-19t-19-11-27-11q-16-7-34-15t-32-18-24-28-9-43q0-47 33-75t90-28q45 0 90 18l-11 66q-18-10-40-16t-40-6q-23 0-36 9t-13 25q0 14 10 22t28 15 36 14 37 18 30 30 11 49q0 48-33 75t-92 27m302 1q-62 0-98-36t-36-100q0-42 15-72t44-47 66-17q56 0 86 36t30 104q0 5 0 9t0 8h-170q10 54 71 54 19 0 39-5t35-12l11 56q-41 22-93 22m-64-168h104q-2-21-15-34t-36-13q-22 0-36 13t-17 34m344 168q-64 0-100-34t-35-96q0-42 17-74t46-50 70-18q19 0 39 4t31 10l-14 60q-11-6-25-9t-26-3q-30 0-49 21t-19 55q0 35 19 54t55 19q23 0 50-9l11 57q-17 7-35 10t-35 3m205 0q-41 0-64-26t-24-68v-171h71v160q0 20 10 31t27 12q17 0 33-11t26-30v-162h70v258h-70v-34q-13 17-32 29t-47 12m364-7h-161v-61h45v-244h-43v-60h114v304h45v61m121 7q-39 0-63-34t-24-92q0-71 36-109t104-37q38 0 89 12v253h-67l1-41h-2q-26 48-74 48m15-61q17 0 32-18t27-43v-84q-8-2-17-3t-15-1q-61 0-61 81 0 31 9 49t25 19m261 54h-70v-258h70v42h4q13-23 27-36t38-13q9 0 15 2l-8 76q-5-2-10-3t-11-1q-18 0-29 11t-26 29v151m381 6q-50 0-87-21t-58-61-21-89q0-52 21-91t58-60 87-21 86 21 58 59 21 90q0 52-21 91t-58 60-86 22m0-63q41 0 66-30t24-78q0-33-11-57t-32-38-47-13q-27-1-48 13t-31 38-12 57 11 56 32 38 48 14m288 57h-71v-258h69v45q16-27 37-40t49-12q42 0 65 25t24 69v171h-71v-160q0-21-10-32t-27-11q-20 0-38 15t-27 38v150m357 7q-62 0-98-36t-36-100q0-42 15-72t44-47 66-17q56 0 86 36t30 104q0 5 0 9t0 8h-170q10 54 71 54 19 0 39-5t35-12l11 56q-41 22-93 22m-64-168h104q-2-21-15-34t-36-13q-22 0-36 13t-17 34" />
</svg>