<svg id="fnt-Sedan" viewBox="0 0 1315 1000" xmlns="http://www.w3.org/2000/svg"><path id="sedan" class="f" d="M245 581q0 28-17 48t-44 33-58 11q-22 0-41-5t-30-10l4 10q2 4-2 6t-9 3q-4 0-5-3-4-11-9-27t-7-34-4-33q0-2 3-4t6-1q2 0 5 1t3 3q3 9 9 22t18 25 27 20 36 8q31 0 47-17t16-36q0-24-11-41t-29-28-37-23-38-24-28-30-11-43q0-24 14-44t41-32 60-11q20 0 34 3t14 4q-1-1-2-6t0-5q-1-3 2-4t5-1q6 0 8 4 6 21 9 42t4 37q0 2-4 2t-6 1q-5 0-6-1-4-13-10-26t-20-22-36-9-35 8-18 20-4 25q0 20 11 34t29 25 38 22 38 24 29 33 11 46m218-39q-26 2-63 1t-84 3q0 23 8 39t22 27 29 14 31 5q20 0 33-4t20-9 11-9 8-4q5 0 5 6 0 3-5 13t-15 21-27 20-43 8q-30 0-54-16t-37-40-13-53q0-28 10-51t27-39 37-24 40-8q21 0 38 11t28 29 11 45q0 8-4 11t-13 4m-74-73q-15 0-30 7t-27 20-15 34q18-2 38-3t38-3 28-3q9-1 12-3t4-7q0-17-14-29t-34-13m355 10v115q0 17 1 26t6 14q4 3 11 3 4 0 9-1t8-1q1 0 2 3t2 5q0 6-3 7-22 4-35 9t-20 10-10 4q-5 0-8-7t-3-16-1-14h-1q-13 15-34 26t-49 11q-46 0-72-30t-25-78q0-34 15-62t43-45 58-16q27 0 41 7t23 15v-89q0-22-2-32t-5-14-6-3h-22q-2 0-3-3t-1-5q0-1 0-4t3-3q27 0 44-7t27-11q8 0 8 6 0 7 0 25t-1 44 0 54 0 57m-42 141v-90q-4-40-21-55t-42-15q-24 0-39 15t-22 37-6 45q0 22 9 41t26 32 41 13q23 0 35-9t19-14m274-115q0 15-1 33t-3 37-1 30q0 20 6 27t16 7q12 0 15-6t8-5q5 0 5 5 0 8-7 17t-17 16-23 6q-20 0-29-16t-8-39h-2q-8 24-30 40t-49 16q-20 0-32-9t-13-28q0-30 33-54t90-42q1-6 1-12t0-8q0-25-9-43t-33-19q-18 0-32 11t-13 35q0 2 0 5t1 6q-2 2-6 3t-8 2q-8 0-17-6t-8-18q0-16 14-28t35-19 40-7q35 0 56 14t21 49m-96 141q19 0 35-24t19-67q-30 11-46 22t-24 22-6 23q0 11 5 17t17 7m240-173h1q15-14 35-23t36-8q37 0 60 21t23 75v70q0 19 2 28t4 13 5 3h24q2 0 3 3t1 5q0 2-1 4t-2 3q-13 0-21-1t-16 0-17 0q-22 0-33 1t-25 1q-2 0-3-3t-1-5q0-2 1-5t2-2h29q6 0 6-9v-84q0-34-6-54t-20-28-37-9q-15 0-28 6t-21 14v119q0 19 2 28t4 13 5 3h24q2 0 3 3t1 5q0 2-1 4t-2 3q-13 0-22-1t-15 0-17 0q-22 0-33 1t-25 1q-2 0-3-3t-1-5q0-2 1-5t2-2h29q6 0 6-9v-117q0-22-2-32t-6-14-6-3h-10q-2 0-3-3t-1-5q0-1 0-4t3-3q11 0 21-5t18-13 13-12 8-5q7 0 7 6 0 9-1 14t0 11 0 14" />
</svg>