<svg id="fnt-Sedgwick Ave Display" viewBox="0 0 4467 1000" xmlns="http://www.w3.org/2000/svg"><path id="sedgwick-ave-display" class="f" d="M271 555q2 3 11 13t15 20 6 20q0 12-9 22-11 14-27 14-7 0-15-2t-11-3q-40-8-92-8-41 0-86 4-4 1-12 1t-13 1q-18 0-29-6t-11-21q0-9 4-20t10-24l5-11q7-18 16-28t26-10q13 0 21 9t8 22q0 9-5 18 32-2 72-2 23 0 35 0-46-58-68-87l-35-44q-8-10-13-15-19-22-28-37t-10-31q0-15 11-25t25-14 38-9l21-4q39-10 81-18 4-1 14-3 17-4 30-4 17 0 25 9 9 9 9 19 0 10-6 19t-18 25q-15 18-19 27-6 14-14 23t-16 10q-6 0-13-5-7-6-7-15 0-7 3-15t7-14 4-8q-25 4-75 17-6 2-25 7l60 69q77 87 100 114m265 41q7 3 7 9 0 8-9 18-11 10-27 10-8 0-14-2-26-8-48-8-37 0-76 24-7 4-16 7t-17 3q-8 0-12-3t-5-9q0-3 1-6 15-40 23-73t12-66q5-45 5-66 0-55-22-85-2-3-2-8 0-10 14-19t27-8q9 0 13 4 7 2 9 8 12 33 34 55t52 23q6 0 17-2 7-1 9-1 8 0 12 4t5 10q0 7-6 14t-15 10q-21 7-41 7-25 0-47-10-1 28-3 42l-3 32q19-4 39-6l7-1q20 0 20 14 0 9-10 16t-21 9q-15 3-42 6-6 25-12 46 33-12 67-12 37 0 75 14m86-33q53-41 83-86-40-12-81-49-1 46-2 135m145-114q3 3 3 7 0 3-2 7-26 51-70 90t-105 79q-6 4-14 6t-14 3q-8 0-13-4-6-4-6-11 0-8 9-15 1 0 2-1t3-2l2-124q1-41 2-124 0-1 0-3 0-1 1-5v-6q0-9 13-16t26-7q10 0 15 4t6 11v5q61 83 132 102 8 2 10 4m241 24q0 1 0 2 4 31 4 68 0 40-5 77-2 10-16 18t-27 8q-8 0-13-4t-4-10q5-46 5-81-15 39-42 66t-61 28q-8 0-15-2-33-5-47-30t-14-59q0-35 12-76 9-31 26-60t44-47 56-19q26 0 38 10t12 27q0 20-15 45t-32 38q-5 3-14 5t-16 3q-9 0-15-3t-5-7q0-6 10-15 6-5 17-24t12-28q0-10-11-10-15 0-35 45-12 23-17 49-7 32-7 59 0 49 26 54 11 1 21-16t18-41q-7 4-20 10-8 3-17 3-10 0-15-5-3-4-3-7 0-5 2-9t7-7q64-43 121-69 5-2 11-2 10 0 18 4t6 12m254-127q1-10 16-10 10 0 22 5t19 12 6 16q-23 156-83 290-4 9-17 9-9 0-20-4-31-9-42-36t-14-66l-1-12q-18 38-51 116-4 10-18 10-10 0-21-5t-18-13-6-15q7-43 7-101 0-26-2-78t-2-78l0-23q1-7 6-10t14-4q15 0 30 8t14 19l0 27q0 29 2 88 21-44 47-86 5-9 20-9 15 0 28 8t15 19q0 7 0 23 0 13-1 40-1 34 0 50v17q35-102 50-207m87 34q1-10 15-18t28-7q8 0 13 3t4 10l-14 272q-1 10-15 18t-28 8q-18 0-18-15l15-271m-1-66q-1 7 4 11t13 3q13 0 27-7t16-18q4-25 5-38 2-12-15-12-14 0-28 7t-16 17l-6 37m254 133q2-10 15-17t26-7q17 0 15 13l-2 12q-7 42-15 71t-24 57-41 44q-33 21-67 21-21 0-39-9t-29-26q-21-31-21-71 0-54 38-125 13-25 27-39t36-18q2 0 6 0 8 0 14 3 15-33 23-50 3-7 16-13t25-5q15 0 15 9 0 2-1 6-35 84-56 131-4 8-17 13t-24 6q-8 0-13-3t-5-8q0-3 2-7l7-17q-2-1-4-3l-10 24q-14 30-19 61-1 9-1 19 0 22 6 41t21 30q11 10 22 10 44 0 74-153m268 78l1 10q9 63 13 88 2 12-11 22t-28 9q-8 0-14-4t-6-11l-4-33q-7-55-12-82-2-16-7-27t-14-16q-7-3-15-3-11 0-24 3-9 75-29 154-3 10-18 18t-29 8q-9 0-14-4t-2-10q22-79 31-158-10 0-17-4t-8-9q0-7 10-14l20-14q4-45 4-101 0-32-2-64 0-10 13-18t28-8q8 0 13 3t6 10q2 34 2 76 0 36-1 53 18-16 35-33l15-15q7-6 16-11t18-4q6 0 12 3t7 8q0 3-2 5-31 43-89 89 16-4 29-4 37 0 55 24 8 11 11 23t5 24 2 17m368-44q8 3 18 8-15-54-23-92-19 39-51 95-3 6-9 16 20-31 46-31 10 0 19 4m80-71q21 69 49 129l5 11q7 12 11 20t3 17q0 13-11 27t-24 20q-8 5-17 5-15 0-30-10t-35-26q-14-12-22-17-5-4-21-11-28-14-43-25t-15-26q0-4 3-12-9 17-26 52-21 42-24 47-6 11-20 24t-25 14q-6 0-10-5-4-3-4-11 0-21 32-74 2-4 7-12l11-21q34-64 49-96 9-19 26-57l18-41q11-23 22-39t28-24q8-5 16-5 10 0 14 9t8 28q9 51 25 109m279-81q6-4 14-7t15-3q5 0 10 3 6 4 6 11 0 8-8 15-25 22-40 53t-30 76q-20 60-46 161-3 8-17 17t-27 10q-11 0-15-10-46-132-49-290-1-10 15-20t30-9q14 0 14 11 0 92 21 183 13-44 25-75 16-45 35-76t47-50m225 267q8 3 8 9 0 8-10 18-10 10-27 10-8 0-13-2-27-8-48-8-38 0-77 24-6 4-16 7t-17 3q-7 0-12-3t-4-9q0-3 1-6 14-40 23-73t12-66q4-45 4-66 0-55-21-85-3-3-3-8 0-10 14-19t28-8q9 0 13 4 6 2 8 8 13 33 35 55t52 23q5 0 16-2 7-1 9-1 9 0 13 4t4 10q0 7-6 14t-15 10q-20 7-41 7-24 0-47-10-1 28-2 42l-4 32q20-4 39-6l7-1q20 0 20 14 0 9-10 16t-20 9q-16 3-43 6-5 25-12 46 33-12 67-12 38 0 75 14m190-349q7-3 14-3 11 0 20 6 3 2 6 5t6 4q3 2 8 4t8 4q15 8 44 25l45 26q38 22 67 38l32 17q29 14 48 26t37 26q13 11 20 22t7 24l-1 6q-5 29-30 55-20 21-46 36t-60 29q-58 22-133 39-8 2-12 3l-20 5-29 5q-14 3-33 5-2 1-8 2t-9 1q-2 0-6-1-10-2-10-12 0-7 4-17t10-14q15-18 44-24 6-2 7-4t2-8q0-9 1-27 4-47 5-72 2-24 3-36 0-3 1-7t0-10q0-7-2-12-10-26-33-63 0 0 0 1t2 3q-7-12-22-34-2-2-4-6t-5-7q-1-1-4-4t-4-5q-2-5-2-9 0-11 10-23t22-19m122 302l-5 20q45-10 98-26 29-9 47-17t34-19q-15-18-33-31t-52-32l-37-23-61-37q19 52 19 98 0 34-10 67m268-169q1-10 15-18t28-7q8 0 13 3t4 10l-14 272q-1 10-15 18t-28 8q-18 0-18-15l15-271m-1-66q-1 7 4 11t13 3q13 0 27-7t16-18q4-25 5-38 2-12-15-12-14 0-28 7t-16 17l-6 37m255 117q-9-8-33-22t-35-13q-10 0-10 10 0 4 2 12 4 12 16 22t31 24q16 11 21 15 22 19 35 31t23 30 11 36q0 12-6 25-11 23-38 36t-55 12q-10 0-20-1-68-12-126-91-3-4-3-9 0-11 15-20t29-9q11 0 16 6 31 42 61 62 28 18 47 18 15 0 15-14 0-9-7-23-8-14-20-26t-30-27l-14-12q-2-2-18-14-14-10-23-19t-16-18q-9-14-9-28 0-23 19-42t45-25q16-5 30-5 27 0 52 13t52 34q4 4 4 9 0 9-15 18t-31 9q-10 0-15-4m223 74q8-19 8-36 0-23-13-38-20-23-66-22-9 79-14 191 29-15 51-40t34-55m-66-135q6 0 17 0 61 0 91 30 23 22 23 56 0 18-8 43-17 47-55 84t-88 57q-2 51-3 89t-2 64q0 61-3 123 0 10-15 18t-29 8q-18 0-18-13l1-40q0-19 1-94t5-139q-14 2-27 2-9 0-14-3t-5-8q0-9 12-19t25-10q7 0 10-1 6-107 17-206-3-2-3-7 0-6 6-14 0-3 1-10 2-10 16-18t28-8q9 0 13 4t4 10v2m189-117q1-10 16-18t28-7q16 0 16 12-8 89-27 247-12 107-15 139-1 11-16 19t-29 8q-19 0-18-14 18-172 45-386m181 210l-14 34-4 10 35 30-3-15q-4-14-14-59m43-112q7 44 18 88t26 103q15 55 19 73 1 2 1 5 0 12-14 20t-28 9q-12 0-18-6-15-16-31-30t-42-34l-16-14q-21 45-33 67-3 7-18 13t-27 7q-14 0-14-9 0-3 1-6 15-37 36-85l10-26q-12-12-12-12-4-4-4-8 0-9 11-17t25-10q24-57 45-117 2-7 12-12t23-7q9-2 15-2 14 0 15 10m158 12q-1-11 13-19t29-8q15 0 17 10 11 80 17 138t6 114q0 76-12 134-10 47-28 84t-49 57q-26 17-53 17-24 0-48-13t-44-35q-4-5-4-8 0-10 14-19t29-9q10 0 16 6 2 2 12 12t19 17 19 7q5 0 7-1 9-3 16-16t12-24 6-14q12-30 17-63t8-74q1-32 1-49-13 24-31 37t-42 13q-36 0-47-32t-11-77l0-20q0-78 16-147 2-9 17-17t28-7q7 0 11 3t3 8q-11 58-14 126-1 21-1 32 0 19 2 43 3 21 7 30l4 8q4-7 10-20 12-32 20-77l4-24q10-45 10-71 0-13-1-19l-5-33" />
</svg>