<svg id="fnt-Sedgwick Ave" viewBox="0 0 2745 1000" xmlns="http://www.w3.org/2000/svg"><path id="sedgwick-ave" class="f" d="M262 477q31 28 31 57 0 19-13 38-46 66-108 81-16 4-36 4-47 0-90-23-20-11-28-29t-8-41q0-17 4-49 1-9 14-9 14 0 28 9t13 20q0 4-2 18t-2 25q0 26 12 35t33 9 41-8q17-7 37-22t34-34 15-37q0-14-10-26-10-12-29-22t-48-25q-37-17-59-31t-38-31-16-41q0-11 2-19 12-45 59-65t103-19q24 0 42 3t30 13q13 11 13 31 0 12-4 23t-11 32q-5 14-6 17-3 8-17 8t-26-7-13-17q0-3 0-4l8-22q5-14 7-21l3-21q-63-1-100 26-15 10-24 23t-8 27q0 23 24 40 17 12 37 23t26 13q29 14 46 24t34 24m182-98q-25 20-41 63 49-18 88-31-16-23-33-31-4-1-7-2t-4 0q1 0-1 1t-2 0m2-35q8-2 17-2 48 0 87 64 2 2 2 5 0 6-7 12-6 6-14 9-50 22-139 53-5 25-5 52 0 13 0 18 1 23 9 39 3 6 7 11t8 6q1 1 5 1t8-2 11-5q14-9 27-20t30-28q7-7 23-7 9 0 15 2t7 8q0 5-5 10-31 34-64 57t-65 24q-15 0-29-7-22-10-32-33t-10-54q0-23 6-54l-4 1-4 1q-8 3-12 3-7 0-11-4t-4-9q0-6 5-13t16-10l24-9q5-14 14-37 14-31 35-53t49-29m170 261q10 8 25 8 17 0 44-12 16-92 25-182h-1q-27 0-49 19t-38 46-20 54q-2 13-2 25 0 29 16 42m106-344q1-9 13-16t24-7q16 0 15 12-8 165-36 340 8 4 8 11 0 7-12 14l-3 19q-2 9-14 16t-24 7q-8 0-12-4t-3-9q0-3 0-4-32 10-53 10-23 0-41-10-19-9-27-27t-9-41q0-8 2-22 7-40 30-78t58-61 76-26q6-68 8-124m145 335q21-28 36-58 13-25 27-62t15-61q0-8-2-13-15 1-18-9-4-12-8-12-3 0-6 3t-8 14q-7 10-15 29-17 35-27 68-12 35-19 63t-7 53q0 11 1 22l11-11q9-11 20-26m106-236q15 6 21 17t7 28q0 16-8 55-22 103-36 188t-20 168q0 7-2 12t-4 13q-6 11-18 19t-22 9q-9 0-14-8l-15-25q-31-55-53-90-2-2-2-5 0-9 13-16t25-8 18 9q7 13 16 28l10 17q11-88 25-167-23 32-49 55t-46 23q-17 0-29-15-10-12-10-36 0-13 2-25t8-34l3-12q15-68 44-133 14-29 28-49t37-29q13-7 30-7 24 0 37 17l4 1m319-16q5-6 13-9t17-3q8 0 13 3t6 8q0 4-5 10-41 55-69 119t-48 141q-2 8-13 14t-21 6q-8 0-14-4t-5-11q-5-46-12-135-43 86-67 140-2 8-12 14t-21 6q-6 0-12-3-7-3-7-9 0-1 1-4-6-62-14-186l-5-73q0-10 11-17t25-7q7 0 12 3t6 10l11 167q29-61 65-125 1-8 12-15t24-6q9 0 14 4 4 4 3 8l1 1q2 29 8 97 36-86 83-144m128-85q-5-1-11-1-11 0-19 5-11 6-13 12-6 24-8 31v2q0 2 2 4t4 4q4 2 9 2 8 0 19-5t15-13q3-9 9-30v-1q0-3-2-6t-5-4m-3 93l-16 108q-3 20-12 72t-13 95q-2 9-14 16t-23 7q-8 0-13-4t-3-9q9-50 18-115t14-91l11-69q1-9 13-15t24-7q7 0 11 3t3 9m193-30q2-7 13-12t21-5q15 0 15 10 0 2-1 6-22 73-38 111-3 8-14 13t-21 5q-13 0-15-8-9-40-28-40-9 0-20 9-24 22-38 60t-13 71q0 25 8 45t29 25q3 1 9 1 17 0 33-13t27-25 27-36q4-6 12-9t17-3q8 0 13 2t5 9q0 5-4 10-26 42-64 72t-80 30q-9 0-17-1-34-6-50-33t-17-63q0-13 3-28 8-48 32-90t63-61q19-10 39-10 18 0 34 10l20-52m271 106q17 12 17 38 0 17-6 39l-5 17q-7 27-15 56t-11 53q-2 9-14 15t-23 7q-8 0-12-3t-3-9q6-32 23-94l11-41q5-20 5-29 0-7-2-11-6-9-20-9-11 0-29 6-22 7-56 26l-9 127q-1 9-13 16t-25 7q-8 0-12-3t-4-10q6-71 9-106-8-1-13-3t-5-7q0-7 8-14 5-4 13-12 10-130 17-236 1-9 13-16t24-7q8 0 12 3t4 9q-8 98-15 197 57-53 111-96 5-3 11-5t14-2q7 0 12 2t5 7q0 6-8 13l-50 44-32 29q25-7 41-7 19 0 32 9m297 37q35-5 64-5l-5-117q-12 22-34 69-19 41-25 53m149 179q2 7-4 14t-16 11-19 4q-15 0-17-9-18-71-26-170-45 0-90 9-47 78-87 144-4 7-17 12t-24 5q-14 0-14-8 0-3 2-6 40-70 74-128l-8 3q-8 3-15 3t-10-3-4-8q0-5 5-10t14-9q23-11 42-17 27-46 57-105 35-68 59-106 2-2 4-4l0-2q0-9 12-17t26-7q16 0 17 12l1 34q5 120 12 202t26 156m167-300q3-5 14-9t20-3q7 0 11 2t5 6q0 4-3 8-41 68-69 135t-42 140q-2 9-15 17t-24 8q-13 0-17-11-19-56-27-114t-14-151l0-10q-1-11 13-20t27-8q13 0 14 9 1 12 1 19v1q5 96 16 155 34-99 90-174m142 35q-25 20-41 63 49-18 88-31-16-23-33-31-4-1-7-2t-4 0q1 0-1 1t-2 0m2-35q8-2 17-2 48 0 87 64 2 2 2 5 0 6-7 12-6 6-14 9-50 22-139 53-5 25-5 52 0 13 0 18 1 23 9 39 3 6 7 11t8 6q1 1 5 1t8-2 11-5q14-9 27-20t30-28q7-7 23-7 9 0 15 2t7 8q0 5-5 10-31 34-64 57t-65 24q-15 0-29-7-22-10-32-33t-10-54q0-23 6-54l-4 1-4 1q-8 3-12 3-7 0-11-4t-4-9q0-6 5-13t16-10l24-9q5-14 14-37 14-31 35-53t49-29" />
</svg>