<svg id="fnt-Sen" viewBox="0 0 787 1000" xmlns="http://www.w3.org/2000/svg"><path id="sen" class="f" d="M119 672q-29 0-53-10t-41-22v-46q19 14 44 24t56 11q24 0 42-13t19-33q0-13-8-21t-18-15-21-11l-54-25q-23-10-37-23t-18-28-6-34q0-25 15-46t40-33 54-12 47 8 33 17v46q-13-10-33-19t-42-9q-15 0-31 5t-26 16-11 29q0 19 14 30t34 19l45 21q34 15 51 33t17 50q0 27-16 47t-41 32-55 12m288 2q-28 0-51-10t-40-28-27-41-9-49q0-35 15-64t42-47 60-17q38 0 63 15t37 43 13 60v24h-193v-34h153q-2-24-13-39t-27-23-33-7q-23 0-40 12t-26 33-10 44q0 23 11 44t30 32 45 13q27 0 49-14t39-29v43q-7 9-21 18t-30 15-37 6m379-7h-40l-1-145q0-32-14-49t-43-16q-19 0-38 14t-34 34v-44q8-10 20-20t27-17 32-6q25 0 46 11t32 33 13 56v149m-170 0h-40v-244h40v244" />
</svg>