<svg id="fnt-Shadows Into Light" viewBox="0 0 3407 1000" xmlns="http://www.w3.org/2000/svg"><path id="shadows-into-light" class="f" d="M59 644q1-5 12-10t28-9 37-11 38-13 34-16 23-22q0-7-10-11t-25-7-36-4-42-5-41-8-36-13-26-22-9-32 8-38 22-36 32-33 37-26 39-18 36-6q5 0 9 0t9 0 6 4 3 9q0 14-10 20t-22 6l-19-14q-11 0-25 7t-27 16-27 25-24 28-16 29-6 27q0 17 10 27t25 17 37 9 41 5 42 3 36 6 25 12 10 20q5 8-2 18t-24 20-37 20-45 18-45 14-36 7q-5 0-8-3t-1-10m405 24l-6-215q-18-7-34 6t-32 34-29 51-25 53-21 44-18 20q-6 0-9-2t-3-11v-344q0-4 4-5t8-1 8 3 5 3l6 275q6-9 10-24t11-35 15-36 21-33 31-23 44-5q16 0 27 10t10 28l5 194q0 2-1 6t-3 6-9 4-15-3m191-14q-2-13-4-31t-4-36-4-34-8-26q-25 50-44 79t-34 42-24 12-16-9-9-21-4-24q0-11 5-31t13-42 20-48 25-43 27-32 29-13q21-3 31 9t3 42q0 32 3 55t6 44 6 44 2 55q0 6-1 10t-12 4q-1 0-4-2t-2-4m-26-218q-5-8-15-2t-19 21-21 35-20 42-16 40-10 31q0 17 6 19t13-5 18-23 19-31 18-32 14-25q4-11 7-20t4-16 2-17 0-17m179 266l-1-125q-5 12-13 26t-17 28-24 22-29 10q-7 0-11-2t-8-5-6-8-6-11q-2-24-2-52t3-55 10-52 20-41 32-25 48-1q1-13 0-36t-3-49-4-49-2-39q0-4 4-6t9-3 10 0 6 2q-1 60-1 118t1 115 2 114 1 113q0 5-1 12t-8 6q-3 0-6-2t-4-5m-22-266q-15-1-28 12t-23 33-15 45-7 48 3 40 14 24q11 0 20-9t18-21 13-30 10-31 7-28 2-19q0-5 0-15t0-22-4-19-10-8m71 164q-3-23-3-44t3-43 8-46 11-51q0-5 3-10t8-8 10-5 11-2q10 0 19 7t16 17 12 20 9 19q4 17 5 39t1 44-7 44-15 40-25 31-37 15q-11 0-17-8t-8-18-3-23-1-18m25-2q0 5 1 10t1 8 1 9 4 10h3q11 0 20-7t14-21 10-28 6-30 3-28 0-20v-10q0-6 0-15t-2-16-4-16-6-11-10-5q-11-3-18 2t-13 16-7 28-3 37 0 42 0 45m192 56q-2-7-8-23t-13-35-16-42-16-41-13-35-8-24q-3-4-6-10t-2-11 3-10 7-6q6 0 10 3t6 9l56 144q1-7 3-25t4-38 3-37 3-25q0-5 1-11t2-13 5-10 11-4q5 0 7 1t5 6l94 160v-165q14 0 20 7t7 17-1 22-1 21q0 4 1 15t1 26 1 31 1 32 2 26 0 14q4 10 0 13t-10 2-13-5-8-10l-100-169q-3 74-7 123t-6 83q-1 6-5 6t-7-1-7-5-6-6m239 5q0 1 10-6t25-16 30-23 25-24 10-19-13-11q-18-2-30 1t-21 7-19 7-18 2q-22 0-30-13t-8-37 10-43 27-36 37-24 43-9q8 0 15 1t6 11q0 7-6 13t-13 6q0 0-2 0t-4-2-4-3-3 0q-15-5-30 4t-26 24-18 32-7 31q0 5 2 8t6 5 8 2 10 0q9 0 19-3t20-7 20-7 20-3q5 0 11 3t11 8 8 12 4 14q3 7-2 18t-14 24-22 26-26 23-26 17-22 6q-10 0-11-5t-2-14m382-357q0-4 3-6t6-2 8 1 7 0q3 6 4 23t4 42 2 55 2 60 1 60 0 53 0 42v22q0 9-4 11t-17-2q-1-1-2-15t-1-37-1-53-1-62-2-64-1-58-3-44-5-26m85 358q-6-66-10-132t-9-137q0-12 13-12h4q1 0 3 4t4 14 5 32 7 56 9 85q10-33 16-64t15-57 26-46 49-28q17 3 28 21t17 45 9 58 3 61 0 51 1 33q-1 4-4 7t-7 4-7 0-6-5q0-5-1-22t-3-39-3-47-3-47-2-39-1-22q-11-18-21-21t-20 7-19 26-18 41-15 48-13 48-9 42-5 29q-1 3-6 7t-9 4-11 1-7-6m246 11l-12-213q-5 3-9 5t-8 5-8 3-8 0q-3 0-5-3t-3-9-2-9 0-7l47-27 3-125q1-6 8-5t14 3q1 0 3 1t3 1q-1 13-2 29t-2 30-1 31 1 26l73-21q2 0 3 3t3 8 1 8 1 5l-83 35q0 4 1 21t1 39 2 49 2 49 2 39 0 21q-1 15-8 15t-17-7m109-71q-4-23-4-44t3-43 8-46 12-51q0-5 3-10t8-8 10-5 10-2q11 0 20 7t15 17 13 20 8 19q4 17 6 39t0 44-7 44-15 40-25 31-36 15q-12 0-18-8t-8-18-3-23 0-18m25-2q0 5 0 10t1 8 2 9 3 10h3q12 0 20-7t14-21 10-28 6-30 3-28 1-20v-10q0-6-1-15t-2-16-3-16-7-11-10-5q-11-3-18 2t-12 16-7 28-3 37-1 42 1 45m345 50q-1-62-2-107t-3-74-2-48-1-29-1-15-1-9q0-8 5-11t12-2q9 0 13 3t5 17l9 262q1 0 5-1t10-3 12-4 11-4q6-2 17-8t27-12 31-14 31-14 26-13 18-8h5q3 0 6 1t5 2 3 6q0 5-2 8t-5 8q-29 6-56 20t-55 29-55 27-56 12q-12 0-12-19m265 9q0-32-1-67t-3-71 0-71 4-65q1 0 5 0t5-1q7 0 11 3t4 9q0 29 0 63t-1 69 0 69 1 62q0 8-3 11t-9 3q-6 0-10-3t-3-11m-11-350q0-6 4-8t9-1q10 0 12 6t3 15q-3 5-8 7t-9 1-8-6-3-14m103 551q43-3 68-23t37-52 14-72 1-84-6-88-3-81q-21 62-39 100t-35 57-29 23-22-1-16-18-9-26q1-23 9-50t21-53 30-49 36-35 40-14 40 16q0 0 1 13t3 33 4 45 4 51 4 49 3 40q2 28-3 59t-13 61-22 56-31 42-38 21-45-7q-2 0-5 0t-4-2-1-4 6-7m-13-268q5 15 13 15t17-10 20-30 22-41 21-47 20-44q0-5-3-10t-10-2q-14 2-27 13t-24 25-20 33-15 35-11 34-3 29m380 78l-6-215q-18-7-35 6t-32 34-29 51-25 53-21 44-18 20q-5 0-9-2t-3-11v-344q0-4 4-5t8-1 8 3 5 3l7 275q5-9 10-24t11-35 14-36 22-33 31-23 43-5q16 0 27 10t10 28l5 194q0 2 0 6t-4 6-9 4-14-3m77 3l-12-213q-5 3-9 5t-8 5-8 3-8 0q-3 0-5-3t-3-9-2-9 0-7l47-27 3-125q1-6 8-5t14 3q1 0 3 1t3 1q-1 13-2 29t-2 30-2 31 2 26l73-21q2 0 3 3t3 8 1 8 1 5l-83 35q0 4 0 21t2 39 2 49 2 49 2 39 0 21q-1 15-8 15t-17-7" />
</svg>