<svg id="fnt-Shadows Into Light Two" viewBox="0 0 4702 1000" xmlns="http://www.w3.org/2000/svg"><path id="shadows-into-light-two" class="f" d="M51 652q0-3 14-7t33-11 45-14 47-18 40-23 27-28q0-7-11-12t-28-7-40-5-46-5-47-9-40-15-28-24-11-36q0-21 10-43t25-42 36-38 42-32 44-22 40-7q5 0 10-1t9 1 7 4 3 10q0 15-10 22t-25 7l-21-7q-12 0-28 7t-31 19-30 28-27 31-18 33-7 30q0 16 10 27t29 17 40 9 46 6 46 5 41 8 28 14 11 24q0 15-12 30t-31 28-44 25-49 19-49 13-40 4q-5 0-9-4t-1-11m452 9q1-17 2-42t1-54-2-58-4-53-9-39-12-16q-16-5-30 2t-27 24-24 39-19 48-16 50-12 47-7 35-1 20q-4 0-9 1t-10 2-8-1-4-6l-8-402q0-4 4-5t8-1 10 3 6 3l2 309q3-8 8-27t12-41 18-47 26-44 36-30 49-9q9 5 16 12t13 21 10 34 7 51 4 74 3 101q-2 3-6 6t-10 5-10-2-7-10m219 1q-7-10-8-27t-2-35 0-36-3-31q-23 51-43 79t-37 40-31 10-23-9-15-21-6-24q-3-18 0-45t11-54 21-54 28-46 34-29 38-3q9-1 16 0t11 7 6 15 3 24q-1 48 3 81t8 59 10 46 6 42q0 8-4 12t-9 5-9 0-5-6m-26-165l-2-82q-12-15-26-13t-27 17-25 37-21 50-13 52-2 47q7 22 17 26t21-3 23-24 22-36 19-39 14-32m213 182l3-106q-5 12-16 28t-25 30-31 25-35 10q-8 0-12-2t-9-6-6-9-7-12q-5-25-5-54t5-60 15-58 28-47 40-28 55-2q3-30 1-61t-4-65q0-5 4-7t10-3 11 0 7 2q-1 44-1 80t0 69 0 63 0 62 0 67 1 77q2 8-2 13t-9 7-11-1-7-12m-20-264q-19-3-35 10t-29 35-21 50-11 53 2 47 18 28q12 0 23-9t23-21 19-30 16-32 11-29 3-19q0-6 0-19t-2-28-5-25-12-11m134 250q-20-3-32-16t-20-32-9-42-2-45q2-33 13-64t27-54 36-35 39-9q20 3 33 19t19 39 8 51 0 53q-3 29-13 54t-26 43-34 28-39 10m47-269q-16-2-30 10t-25 31-18 45-10 50q-2 17-1 36t4 34 14 24 24 10q12 0 25-8t26-24 20-34 12-39q4-21 2-43t-7-42-15-33-21-17m118 267q-1-9-4-30t-7-50-9-60-9-60-8-51-5-30q1-8 5-12t9-5 8 3 7 8l30 222q2-6 6-21t10-37 12-44 13-44 10-36 6-21q3-5 8-8t10-4 10 2 8 10l70 225 28-242q2-5 6-9t7-3 9 5 7 18q0 3-2 15t-4 31-5 40-6 46-6 46-5 41-4 30-2 15q-3 8-10 12t-13 3-12-4-6-9l-69-226q-9 41-18 75t-17 63-15 51-12 42q-3 5-8 7t-8 3-9-2-6-5m267-32q9 8 22 8t29-3 30-13 28-17 23-21 13-21-1-18-17-14q-25 6-50 10t-45 0-32-16-11-40q1-25 14-47t32-38 42-24 49-7q4 1 9 1t7 2 5 4 2 9q-1 7-6 12t-13 3q-29-6-52 2t-38 24-21 33-2 34q9 17 24 22t32 3 34-5 32-2 23 10 10 35q0 16-10 31t-26 28-36 24-39 17-36 9-27 0q-11-10-12-20t14-15m455 34l-11-408q2-2 7-4t8 0 9 2 5 4l8 401q0 6-3 8t-7 3-9-1-7-5m55-4l-1-285q1-5 4-8t8-4 9 1 7 5l-1 196q9-36 17-70t18-63 29-46 45-21q15-1 26 9t20 29 13 42 9 50 4 53 2 49 1 39-1 25q-4 9-12 11t-16-7q0-9 0-32t-1-52-3-61-7-59-14-46-23-20q-13-2-24 13t-22 40-20 56-16 62-12 55-6 39q-1 4-6 7t-9 2-11-1-7-8m260 10l-8-236-45 15q-5-2-9-6t-5-8-1-8 5-6l55-21-1-138q2-7 7-9t10-3 9 3 6 8q-1 15-1 32t-1 34 0 33 2 29l76-31q7-2 10 1t6 9-1 10-7 6l-84 38q0 5 1 24t1 43 0 53 1 53 1 44 0 23q-1 16-9 16t-18-8m143-6q-19-3-32-16t-20-32-9-42-1-45q1-33 12-64t27-54 37-35 38-9q20 3 33 19t19 39 8 51 0 53q-2 29-13 54t-25 43-35 28-39 10m48-269q-17-2-31 10t-24 31-19 45-9 50q-2 17-2 36t5 34 13 24 24 10q12 0 26-8t25-24 21-34 12-39q3-21 1-43t-7-42-15-33-20-17m349 250q-2-105-4-174t-3-113-3-64-1-27q0-8 5-12t9-4 9 5 5 17l15 357 212-44q33 0 14 27l-245 53q-13 0-13-21m295 10l-7-289q3-2 7-3t8-1 7 2 5 5q0 32 1 69t2 75 2 74 2 68q0 7-4 11t-10 4-9-4-4-11m-13-389q0-6 5-8t10-3q10 0 13 8t3 16q-3 6-8 8t-10 1-9-7-4-15m93 526q36-2 62-15t42-36 25-51 10-63q2-22 2-39t0-31-2-27-2-26-2-30-1-36q-23 69-44 111t-38 63-32 26-25-1-18-20-9-29q1-24 9-54t22-58 32-53 39-40 43-16 45 15q0-1 1 11t2 30 2 44 3 53 3 54 3 51q0 46-14 84t-38 64-54 39-63 6q-1 0-5-2t-4-6-1-8 7-10m-6-203q5 17 14 17t20-13 23-34 25-47 24-52 22-49q0-6-3-11t-12-3q-15 3-29 14t-28 29-23 37-18 41-11 39-4 32m396 71q1-17 2-42t1-54-2-58-4-53-9-39-12-16q-16-5-30 2t-27 24-24 39-19 48-17 50-11 47-7 35-1 20q-4 0-9 1t-10 2-8-1-4-6l-8-402q0-4 3-5t9-1 10 3 5 3l3 309q3-8 7-27t12-41 18-47 27-44 36-30 49-9q9 5 16 12t13 21 10 34 7 51 4 74 3 101q-2 3-6 6t-10 5-10-2-7-10m114 10l-7-236-45 15q-6-2-9-6t-5-8-1-8 4-6l56-21-1-138q1-7 6-9t10-3 10 3 5 8q0 15-1 32t-1 34 1 33 1 29l76-31q7-2 11 1t5 9-1 10-7 6l-84 38q0 5 1 24t1 43 1 53 1 53 0 44 0 23q-1 16-9 16t-18-8m491-380q-19-2-38-1t-38 5-38 4-38 1q-5-1-11-2t-5-11q1-5 6-10t10-5l147-9q0-3 2-7t4-9 6-8 7-3q7 1 10 5t7 7 4 8 5 4q78 0 161-3 2 0 8 0t9 1q3 8-6 13t-26 7-38 3-43 2-40 1-30 3q-3 26-4 55t0 60 3 64 4 63 2 61-2 55q3 15-2 17t-22 0q-3-20-5-48t-3-62-1-70-1-70-1-66-3-55m138 372q-2-9-5-30t-7-50-9-60-9-60-8-51-5-30q2-8 6-12t8-5 9 3 7 8l30 222q1-6 5-21t10-37 13-44 12-44 10-36 6-21q4-5 8-8t11-4 10 2 8 10l69 225 28-242q2-5 6-9t8-3 8 5 8 18q-1 3-2 15t-5 31-5 40-6 46-6 46-5 41-3 30-2 15q-4 8-10 12t-14 3-11-4-7-9l-69-226q-9 41-18 75t-17 63-15 51-12 42q-3 5-7 7t-9 3-8-2-6-5m314 2q-19-3-32-16t-19-32-10-42-1-45q1-33 12-64t28-54 36-35 39-9q20 3 32 19t19 39 9 51-1 53q-2 29-12 54t-26 43-35 28-39 10m48-269q-16-2-30 10t-25 31-18 45-10 50q-2 17-2 36t5 34 13 24 24 10q12 0 26-8t25-24 21-34 12-39q3-21 1-43t-7-42-14-33-21-17" />
</svg>