<svg id="fnt-Shalimar" viewBox="0 0 1062 1000" xmlns="http://www.w3.org/2000/svg"><path id="shalimar" class="f" d="M25 708h-2q-12 0-12-8 0-13 23-19 1 0 6-1t15-3q45-8 67-21 37-22 37-42 0-19-38-37-12-5-30-13t-41-19q-38-19-38-44 0-33 69-70 64-34 101-34 32 0 32 18 0 34-16 62-8 16-14 16-2 0-2-4 0-10 5-26 6-18 6-27 0-23-29-23-30 0-82 25-56 28-56 55 0 13 10 25t30 20l74 30q40 16 40 36 0 31-63 65-8 4-31 14t-61 25m189-9q0-1 0-1 0-3 1-9t2-15q10-69 14-129t5-109q0-50-20-50-1 0-5 1t-5 1q-2 0-2-2 0-4 17-10 17-6 23-6 12 0 12 20 0 15-1 33t-3 39l-14 150 45-58q5-8 19-31 7-12 21-12 7 0 8 3 0 1-1 1t-2 1q-14 6-24 44-8 30-8 53 0 37 18 37 6 0 14-9l9-10q0 1 0 1 0 7-12 21-11 14-17 14-24 0-24-49 0-44 2-51-4 3-9 9t-13 16q-32 39-34 94-11 12-16 13m134-42q-15 0-15-18 0-23 25-58 10-16 21-28t22-21q15-12 27-12 7 0 12 6t5 14q0 3-2 3 0 0-3-3t-12-4q-11 0-20 6-22 15-40 39-22 28-22 51 0 11 8 11 13 0 41-38 12-17 20-31t11-22q4-4 8-4 3 0 3 2-3 7-3 24 0 21 5 38 7 27 21 27 9 0 19-16l11-16q0 1 0 1 0 8-15 27-15 19-23 19-13 0-24-29-8-24-8-41-49 73-72 73m160 36q-18 0-18-45 0-7 0-13t1-12q5-71 8-117t3-70q0-50-19-50-5 0-9 2-1 0-2 0-2 0-2-2 0-4 18-10 16-6 23-6 11 0 11 20 0 11-1 30t-4 44q-12 122-12 154 0 60 16 60 4 0 8-3t7-6l7-9q2 0 2 3 0 7-15 18-15 12-22 12m69-219q-11 0-11-10 0-10 10-14l17-8q2-1 3-1 4 0 4 5 0 1-7 9t-7 12q-2 7-9 7m12 200q-15 0-15-34 0-12 1-34 2-22 2-34 0-34-19-34-2 0-6 1t-5 1q-2 0-2-2 0-4 17-9 17-6 22-6 8 0 8 22 0 5-1 14t-2 21-1 20-1 14q0 46 15 46 12 0 25-16 2 0 2 3 0 6-16 17-16 10-24 10m54-7q-4 0-4-10 0-8 2-16 6-34 9-59t4-39q0-13-4-17t-17-4q-3 0-9 1t-7 1q-2 0-2-1 0-1 13-8 27-13 28-13 12 0 12 25 0 7-3 30t-8 62l-2 13 0 1q47-83 60-83 8 0 7 65 3-5 13-19t28-37l20-18q4-4 6-4 1 0 1 1t-2 5q-12 26-12 70 0 37 18 37 7 0 22-19v2q0 6-11 20-11 14-17 14-25 0-25-52 0-23 3-42-17 8-40 46l-7 14q-3 4-6 4-7 0-8-22 0-4 0-11t1-17q-1-9-4-12-13 4-50 82-5 10-9 10m183-10q-14 0-14-18 0-23 24-58 11-16 22-28t22-21q14-12 26-12 8 0 13 6t5 14q0 3-2 3 0 0-4-3t-11-4q-12 0-20 6-22 15-41 39-21 28-21 51 0 11 8 11 13 0 41-38 12-17 19-31t12-22q3-4 8-4 2 0 3 2-4 7-4 24 0 21 5 38 8 27 22 27 9 0 19-16l10-16q1 1 1 1 0 8-15 27-15 19-23 19-13 0-24-29-9-24-9-41-49 73-72 73m132 25q-1-1-1-2 0-3 1-12t4-25q4-30 6-52t2-38q0-15-3-24-2-2-8-2-3 0-9 2t-8 1-3-1 13-9q27-13 25-13 10 0 10 29 0 12-5 38-2 12-3 21t-1 16v2q30-50 60-80 12-9 22-9 1 0 1 1-5 10-8 16t-3 8q-4 10-7 28 0 6-3 6-8 0-8-24 0-2 0-4t0-4q-12 12-23 26t-18 28q-21 37-19 64-2 3-6 6t-8 7" />
</svg>