<svg id="fnt-Shantell Sans" viewBox="0 0 3296 1000" xmlns="http://www.w3.org/2000/svg"><path id="shantell-sans" class="f" d="M90 671q-34 0-51-10t-16-25q0-7 3-11t13-4q6 0 10 1t9 2 11 2 17 1q30 0 53-3t40-9 28-14q-3-14-17-24t-34-19-42-18-40-21-31-27-12-37q0-25 14-48t37-39 50-30 52-20 44-6q9 0 15 3t8 8 3 11q0 9-5 14t-18 8q-49 10-84 25t-53 35-18 38q0 14 13 24t33 19 43 18 42 21 33 27 13 36q0 18-13 32t-36 22-52 14-62 4m252 0q-8 0-15-6t-11-18-4-32q0-52 6-94t13-76 11-62q1-15 1-28t-1-25 1-22q1-8 6-15t14-6q11 0 17 8t8 27-1 51q-3 32-11 68t-13 77-4 85l-11-9q25-66 46-105t41-56 40-17q22 0 34 14t17 40 9 63q4 32 7 51t7 30 9 20q2 4 4 9t1 9q0 9-6 14t-14 6q-13 0-23-15t-16-38-9-51q-3-31-6-51t-7-33-9-22q-11 1-29 24t-38 65-38 100q-4 12-11 16t-15 4m349 1q-22 0-39-11t-26-29-9-45q0-24 8-48t21-47 32-39 41-27 48-9q12 0 19 6t8 18q0 6-4 10t-11 5q-35 5-62 25t-40 48-15 60q0 14 3 26t11 30l-26-34q11 11 19 15t21 3q32 0 57-38t37-110q2-10 7-15t14-5q12 0 20 9t11 24q4 29 9 52t16 43 27 43q4 5 5 11t-2 13-7 10-11 4q-7 0-12-3t-8-7q-10-14-18-27t-16-31-12-41-7-56l17 0q-7 46-20 78t-31 51-37 29-38 9m475-1q-15 0-26-14t-18-45-6-81q0-24-1-39t-4-23-6-13-10-11q10 0 17 2t11 10 4 20q-7-11-12-14t-11-4q-10 0-23 13t-27 36-27 54-23 70q-5 22-12 31t-17 8q-19 0-28-22t-10-58q0-25 2-44t5-36 5-34 3-40q0-9 4-15t14-5q11 0 17 8t7 28q0 16-3 32t-6 33-5 42 0 56l-9-3q17-64 39-108t47-67 49-22q17 0 29 9t18 27 6 41q0 39 0 67t5 46 16 27q5 4 7 9t2 11-6 12-17 6m181 2q-39 0-62-18t-33-52-10-78q0-27 2-49t7-41 5-39q3-23 3-38t2-27q1-7 5-13t14-5q16 0 21 18t1 57q-3 20-6 36t-5 30-4 31-1 38q0 40 7 63t21 34 34 10q13 0 19-3t11-5 11-2q7 0 11 5t4 12q0 14-14 25t-43 11m-61-194q-13 6-20 1t-7-14q0-11 5-19t26-15q12-5 26-8t29-6 27-2q10 0 16 3t10 8 4 12q0 9-5 13t-15 5q-21 1-38 4t-30 8-28 10m276 193q-29 0-49-8t-34-23-19-35-6-44q0-26 9-52t27-47 42-34 55-13q23 0 41 9t27 25 10 42q0 21-10 36t-26 26-39 17-49 6q-30 0-42-9t-12-18q0-6 3-9t10-2q6 0 14 1t24 2q25 0 43-6t30-18 11-26q0-17-8-26t-28-8-36 9-28 24-18 35-7 42q0 18 6 32t20 23 36 9q27 0 45-7t31-15 20-14 15-6 10 4 2 13q0 10-10 21t-26 21-39 16-45 7m251 0q-11 0-22-3t-20-13-15-27-10-48-4-73q0-42 2-74t5-60 8-53q3-19 8-27t14-7q10 0 16 8t6 29q0 14-2 30t-5 39-5 52-2 73q0 33 2 54t6 35 10 17 11 6q7 0 11-2t6-3 7-1q9 0 12 5t3 12q0 9-6 16t-16 11-20 4m151 0q-12 0-23-3t-19-13-15-27-11-48-3-73q0-42 1-74t5-60 8-53q4-19 9-27t13-7q10 0 16 8t6 29q0 14-2 30t-5 39-4 52-2 73q0 33 2 54t6 35 9 17 11 6q7 0 11-2t7-3 6-1q9 0 12 5t3 12q0 9-6 16t-15 11-20 4m306-1q-34 0-51-10t-16-25q0-7 3-11t13-4q6 0 10 1t9 2 11 2 17 1q30 0 53-3t40-9 28-14q-3-14-17-24t-34-19-42-18-40-21-31-27-12-37q0-25 14-48t37-39 50-30 52-20 44-6q9 0 15 3t8 8 3 11q0 9-5 14t-18 8q-49 10-84 25t-53 35-18 38q0 14 13 24t33 19 43 18 42 21 33 27 13 36q0 18-13 32t-36 22-52 14-62 4m289 1q-23 0-40-11t-25-29-9-45q0-24 7-48t21-47 32-39 42-27 48-9q11 0 19 6t7 18q0 6-4 10t-11 5q-35 5-61 25t-41 48-14 60q0 14 2 26t11 30l-26-34q12 11 19 15t22 3q32 0 57-38t37-110q2-10 7-15t13-5q12 0 21 9t10 24q5 29 10 52t15 43 27 43q5 5 5 11t-2 13-7 10-11 4q-7 0-11-3t-9-7q-9-14-18-27t-15-31-12-41-7-56l16 0q-7 46-20 78t-30 51-37 29-38 9m475-1q-15 0-27-14t-18-45-6-81q0-24-1-39t-3-23-6-13-10-11q10 0 17 2t11 10 4 20q-7-11-12-14t-12-4q-10 0-23 13t-27 36-27 54-23 70q-5 22-11 31t-18 8q-18 0-28-22t-9-58q0-25 2-44t5-36 5-34 2-40q0-9 5-15t13-5q12 0 18 8t6 28q0 16-3 32t-5 33-5 42-1 56l-9-3q17-64 39-108t47-67 49-22q18 0 29 9t18 27 6 41q0 39 1 67t5 46 15 27q5 4 7 9t2 11-5 12-17 6m130 1q-22 0-37-6t-22-14-7-17q0-8 4-13t13-5q5 0 8 2t8 5 12 4 20 2q32 0 56-8t34-27q-4-11-16-17t-28-12-34-10-33-12-25-19-9-30q0-18 11-33t29-25 40-16 45-6q13 0 22 5t14 10 5 13q0 8-5 12t-12 5q-3 0-6-1t-8-1-10 0q-30 0-52 9t-33 28q2 10 14 17t28 11 35 9 34 13 26 19 10 31q0 20-11 34t-29 24-41 14-50 5" />
</svg>