<svg id="fnt-Shippori Mincho B1" viewBox="0 0 4737 1000" xmlns="http://www.w3.org/2000/svg"><path id="shippori-mincho-b1" class="f" d="M178 673q-19 0-43-5t-43-11q-6-2-12-2-10 0-20 8-4 3-7 3-5 0-7-8l-20-84-1-3q0-2 5-4l3-1q4 0 6 4 47 86 134 86 33 0 61-17t28-55q0-18-10-35t-29-26q-15-8-30-13t-35-11q-31-9-44-15-39-18-53-40t-14-49q0-19 9-41t32-38 63-17q15 0 31 3t34 10q8 3 13 3 10 0 18-7 4-3 7-3 5 0 7 7l21 72 0 3q0 3-4 5-3 1-4 1-3 0-5-3-6-10-22-27t-41-32-58-15q-31 0-47 14t-21 29-4 22q0 36 42 57 19 9 56 20 22 7 38 12t31 13q58 30 58 93 0 28-15 50t-43 34-65 13m435-20h6q4 0 4 7 0 7-4 7h-112q-4 0-4-7 0-7 4-7h7q14 0 23-4t9-17l-1-85q0-23-1-39-1-27-12-44t-39-17q-19 0-37 9t-31 30q-4 6-4 13v133q0 13 9 17t24 4h6q4 0 4 7 0 7-4 7h-112q-4 0-4-7 0-7 4-7h6q15 0 24-4t9-17l-2-276q0-10-5-15t-11-7-21-3q-5-1-5-5v-3q0-4 3-5 10-3 28-7t36-9q1 0 4 0 8 0 8 9l-1 137q0 9 5 9 3 0 8-4 29-31 66-31 39 0 58 22t21 54q1 8 1 31l0 103q0 13 9 17t24 4m104-295q-12 0-21-8t-8-21 8-21 21-9 21 9 9 21-9 21-21 8m60 309h-112q-4 0-4-7t4-7h6q15 0 23-4t9-17l-1-153q0-10-5-15t-11-7-22-3q-3 0-4-1t0-5q0-2 0-4t2-3q10-3 29-7t36-9q1 0 3 0 8 0 8 9l0 198q0 13 8 17t24 4h7q3 0 3 7t-3 7m195-245q30 0 54 17t37 46 13 64q0 32-14 61t-37 45-51 18q-36 0-65-21-4-3-7-3-3 0-4 2t-2 6v89q0 13 9 17t23 4h6q4 0 4 7 0 7-4 7h-111q-4 0-4-7 0-7 4-7h6q15 0 23-4t9-17l-1-266q0-11-5-16t-11-6-22-4q-3 0-4-2t0-6 3-4l54-14q12-3 10-3 2 0 4 0 8 0 8 9v2q0 7 2 9t7 0q31-23 66-23m-13 229q13 0 30-7t30-31 15-69q0-35-12-57t-29-32-35-10q-13 0-28 5t-27 15q-6 5-6 13l-1 137q0 7 6 13 12 10 27 16t30 7m316-229q30 0 54 17t37 46 13 64q0 32-14 61t-37 45-51 18q-36 0-65-21-4-3-7-3-3 0-4 2t-2 6v89q0 13 9 17t23 4h6q4 0 4 7 0 7-4 7h-111q-4 0-4-7 0-7 4-7h6q15 0 23-4t9-17l-1-266q0-11-5-16t-11-6-22-4q-3 0-4-2t0-6 3-4l54-14q12-3 10-3 2 0 4 0 8 0 8 9v2q0 7 2 9t7 0q31-23 66-23m-13 229q13 0 30-7t30-31 15-69q0-35-12-57t-29-32-35-10q-13 0-28 5t-27 15q-6 5-6 13l-1 137q0 7 6 13 12 10 27 16t30 7m286 23q-36 0-63-19t-41-48-14-59q0-32 14-61t41-47 63-18 63 18 41 47 14 61q0 30-14 59t-41 48-63 19m0-18q35 0 56-31t21-77q0-49-21-79t-56-29q-36 0-56 30t-21 78q0 30 9 55t27 39 41 14m323-234q15 0 26 8t10 20q0 8-6 14t-16 6q-7 0-19-7-7-4-12-6t-10-2q-22 0-49 31-5 6-5 13l0 134q0 12 8 16t24 4h7q4 0 4 7 0 7-4 7h-112q-4 0-4-7 0-7 4-7h6q15 0 23-4t9-16l-1-154q0-11-5-16t-11-6-22-3q-3-1-4-3t0-6q0-3 2-4 10-3 29-8t36-8q1-1 3-1 8 0 8 10v19q0 7 6 7 4 0 10-5 16-15 33-24t32-9m117-64q-12 0-21-8t-8-21 8-21 21-9 21 9 9 21-9 21-21 8m60 309h-112q-4 0-4-7t4-7h6q15 0 23-4t9-17l-1-153q0-10-5-15t-11-7-22-3q-3 0-4-1t0-5q0-2 0-4t2-3q10-3 29-7t36-9q1 0 3 0 8 0 8 9l0 198q0 13 8 17t24 4h7q3 0 3 7t-3 7m304 0h-121q-4 0-4-8 0-6 4-6h7q17 0 30-12t14-28v-264q0-18-11-25t-33-6h-7q-3 0-3-7t3-7h85q9 0 12 8l114 271q2 6 7 6 4 0 7-6l119-271q4-8 12-8h81q2 0 3 1t1 6q0 7-4 7h-8q-23 0-33 7t-9 24v272q0 18 10 25t32 7h8q3 0 3 6 0 8-3 8h-141q-3 0-3-8 0-6 3-6h9q23 0 33-8t10-24v-240q0-4-2-7t-4-2q-4 0-7 7l-121 280q-4 8-7 8t-6-8l-119-280q-3-6-6-6-3 0-4 2t-2 7v231q0 17 14 28t29 12h8q3 0 3 6 0 8-3 8m430-309q-12 0-21-8t-8-21 8-21 21-9 21 9 9 21-9 21-21 8m60 309h-112q-4 0-4-7t4-7h6q15 0 23-4t9-17l-1-153q0-10-5-15t-11-7-22-3q-3 0-4-1t0-5q0-2 0-4t2-3q10-3 29-7t36-9q1 0 3 0 8 0 8 9l0 198q0 13 8 17t24 4h7q3 0 3 7t-3 7m310-14h7q4 0 4 7 0 7-4 7h-112q-4 0-4-7 0-7 4-7h7q14 0 23-4t8-17l0-93-1-32q0-26-12-44t-39-17q-19 0-37 10t-31 30q-4 6-4 13l0 133q0 13 9 17t23 4h7q3 0 3 7 0 7-3 7h-112q-4 0-4-7 0-7 4-7h6q15 0 24-4t9-17l-2-153q0-10-5-15t-11-7-22-3q-3-1-4-3t0-5q0-4 2-5 10-3 29-7t36-9q1 0 3 0 8 0 8 9v14q0 8 5 8 4 0 8-4 28-30 66-30 39 0 59 22t22 54q1 9 1 36 0 41-2 98 0 13 9 17t23 4m168 20q-32 0-60-16t-44-44-16-64q0-29 14-59t41-49 66-19q27 0 46 8t30 21 11 23q0 9-6 15t-14 6q-9 0-16-7t-14-20q-16-27-44-27-20 0-37 13t-26 38-9 57q0 35 12 57t31 34 40 10q43 0 72-40 2-3 5-3t4 1q3 2 3 5 0 2-1 4-13 26-36 41t-52 15m401-20h7q3 0 3 7 0 7-3 7h-112q-4 0-4-7 0-7 4-7h6q15 0 23-4t9-17l0-85q0-23-1-39-2-27-13-44t-38-17q-19 0-37 9t-31 30q-4 6-4 13v133q0 13 8 17t24 4h6q5 0 5 7 0 7-5 7h-111q-4 0-4-7 0-7 4-7h6q15 0 23-4t9-17l-1-276q0-10-5-15t-11-7-22-3q-5-1-5-5v-3q0-4 3-5 10-3 29-7t36-9q1 0 3 0 8 0 8 9l0 137q0 9 5 9 3 0 7-4 29-31 67-31 39 0 58 22t21 54q0 8 0 31l1 103q0 13 9 17t23 4m171 21q-36 0-63-19t-41-48-14-59q0-32 14-61t41-47 63-18 63 18 41 47 14 61q0 30-14 59t-41 48-63 19m0-18q35 0 56-31t21-77q0-49-21-79t-56-29q-36 0-56 30t-21 78q0 30 9 55t27 39 41 14m304 11q-3 0-3-7t3-7h8q23 0 33-7t10-25v-272q0-17-11-24t-32-7h-8q-3 0-3-7v-3q0-3 2-4t7 0l82-1q48 0 71 1 52 1 86 24t34 61q0 30-23 50t-58 30q-6 1-6 4 0 2 6 3 44 11 72 34t29 57q0 31-18 53t-49 35-67 12h-165m91-212q0 5 3 8t8 3h2q73 0 100-21t28-58q0-31-26-50t-75-19q-21 0-31 7t-9 24v106m43 198h1q51 0 84-22t33-65q0-86-148-86h-2q-5 0-8 3t-3 8v130q0 18 10 25t33 7m403 14h-165q-3 0-3-7 0-8 3-8h8q25 0 40-7t15-24v-239q0-15-3-21t-13-7-38-1h-9q-3 0-3-8 0-7 3-7 27 0 49-7t41-21q4-3 7-3 6 0 6 9v305q0 31 54 31h8q2 0 2 2t1 6q0 7-3 7" />
</svg>