<svg id="fnt-Shippori Mincho" viewBox="0 0 4011 1000" xmlns="http://www.w3.org/2000/svg"><path id="shippori-mincho" class="f" d="M178 673q-19 0-43-5t-43-11q-6-2-12-2-7 0-14 3t-17 14l-23-98-1-3q0-2 5-4l3-1q4 0 6 4 47 86 134 86 33 0 61-17t28-55q0-18-10-35t-29-26q-15-8-30-13t-35-11q-31-9-44-15-39-18-53-40t-14-49q0-19 9-41t32-38 63-17q15 0 31 3t34 10q8 3 13 3 15 0 28-16l25 85 0 3q0 3-4 5-3 1-4 1-3 0-5-3-6-10-22-27t-41-32-58-15q-31 0-47 14t-21 29-4 22q0 36 42 57 19 9 56 20 22 7 38 12t31 13q58 30 58 93 0 28-15 50t-43 34-65 13m435-20h6q4 0 4 7 0 7-4 7h-112q-4 0-4-7 0-7 4-7h7q14 0 23-4t9-17l-1-85q0-23-1-39-1-27-12-44t-39-17q-20 0-39 11t-33 34v140q0 13 9 17t24 4h6q4 0 4 7 0 7-4 7h-112q-4 0-4-7 0-7 4-7h6q15 0 24-4t9-17l-2-276q0-10-5-15t-11-7-21-3q-5-1-5-5v-3q0-4 3-5 7-3 76-19l-1 168q34-45 79-45 39 0 58 22t21 54q1 8 1 31l0 103q0 13 9 17t24 4m104-295q-12 0-21-8t-8-21 8-21 21-9 21 9 9 21-9 21-21 8m60 309h-112q-4 0-4-7t4-7h6q15 0 23-4t9-17l-1-153q0-10-5-15t-11-7-22-3q-3 0-4-1t0-5q0-2 0-4t2-3q8-3 76-19l0 210q0 13 8 17t24 4h7q3 0 3 7t-3 7m195-245q30 0 54 17t37 46 13 64q0 32-14 61t-37 45-51 18q-44 0-78-32v105q0 13 9 17t23 4h6q4 0 4 7 0 7-4 7h-111q-4 0-4-7 0-7 4-7h6q15 0 23-4t9-17l-1-266q0-11-5-16t-11-6-22-4q-3 0-4-2t0-6 3-4q7-3 76-20v30q35-30 75-30m-13 229q13 0 30-7t30-31 15-69q0-35-12-57t-29-32-35-10q-14 0-31 7t-30 18l-1 152q13 13 30 21t33 8m316-229q30 0 54 17t37 46 13 64q0 32-14 61t-37 45-51 18q-44 0-78-32v105q0 13 9 17t23 4h6q4 0 4 7 0 7-4 7h-111q-4 0-4-7 0-7 4-7h6q15 0 23-4t9-17l-1-266q0-11-5-16t-11-6-22-4q-3 0-4-2t0-6 3-4q7-3 76-20v30q35-30 75-30m-13 229q13 0 30-7t30-31 15-69q0-35-12-57t-29-32-35-10q-14 0-31 7t-30 18l-1 152q13 13 30 21t33 8m286 23q-36 0-63-19t-41-48-14-59q0-32 14-61t41-47 63-18 63 18 41 47 14 61q0 30-14 59t-41 48-63 19m0-18q35 0 56-31t21-77q0-49-21-79t-56-29q-36 0-56 30t-21 78q0 30 9 55t27 39 41 14m323-234q15 0 26 8t10 20q0 8-6 14t-16 6q-7 0-19-7-7-4-12-6t-10-2q-12 0-26 10t-28 27l0 141q0 12 8 16t24 4h7q4 0 4 7 0 7-4 7h-112q-4 0-4-7 0-7 4-7h6q15 0 23-4t9-16l-1-154q0-11-5-16t-11-6-22-3q-3-1-4-3t0-6q0-3 2-4 8-3 76-19v49q19-21 40-35t41-14m117-64q-12 0-21-8t-8-21 8-21 21-9 21 9 9 21-9 21-21 8m60 309h-112q-4 0-4-7t4-7h6q15 0 23-4t9-17l-1-153q0-10-5-15t-11-7-22-3q-3 0-4-1t0-5q0-2 0-4t2-3q8-3 76-19l0 210q0 13 8 17t24 4h7q3 0 3 7t-3 7m304 0h-121q-4 0-4-8 0-6 4-6h7q17 0 30-12t14-28v-264q0-18-11-25t-33-6h-7q-3 0-3-7t3-7h94l124 295 130-295h89q2 0 3 1t1 6q0 7-4 7h-8q-23 0-33 7t-9 24v272q0 18 10 25t32 7h8q3 0 3 6 0 8-3 8h-141q-3 0-3-8 0-6 3-6h9q23 0 33-8t10-24v-270l-138 316h-6l-134-317v263q0 17 14 28t29 12h8q3 0 3 6 0 8-3 8m430-309q-12 0-21-8t-8-21 8-21 21-9 21 9 9 21-9 21-21 8m60 309h-112q-4 0-4-7t4-7h6q15 0 23-4t9-17l-1-153q0-10-5-15t-11-7-22-3q-3 0-4-1t0-5q0-2 0-4t2-3q8-3 76-19l0 210q0 13 8 17t24 4h7q3 0 3 7t-3 7m310-14h7q4 0 4 7 0 7-4 7h-112q-4 0-4-7 0-7 4-7h7q14 0 23-4t8-17l0-93-1-32q0-26-12-44t-39-17q-21 0-40 11t-32 35l0 140q0 13 9 17t23 4h7q3 0 3 7 0 7-3 7h-112q-4 0-4-7 0-7 4-7h6q15 0 24-4t9-17l-2-153q0-10-5-15t-11-7-22-3q-3-1-4-3t0-5q0-4 2-5 8-3 76-19v45q33-45 79-45 39 0 59 22t22 54q1 9 1 36 0 41-2 98 0 13 9 17t23 4m168 20q-32 0-60-16t-44-44-16-64q0-29 14-59t41-49 66-19q27 0 46 8t30 21 11 23q0 9-6 15t-14 6q-9 0-16-7t-14-20q-16-27-44-27-20 0-37 13t-26 38-9 57q0 35 12 57t31 34 40 10q43 0 72-40 2-3 5-3t4 1q3 2 3 5 0 2-1 4-13 26-36 41t-52 15m401-20h7q3 0 3 7 0 7-3 7h-112q-4 0-4-7 0-7 4-7h6q15 0 23-4t9-17l0-85q0-23-1-39-2-27-13-44t-38-17q-21 0-40 11t-32 34v140q0 13 8 17t24 4h6q5 0 5 7 0 7-5 7h-111q-4 0-4-7 0-7 4-7h6q15 0 23-4t9-17l-1-276q0-10-5-15t-11-7-22-3q-5-1-5-5v-3q0-4 3-5 8-3 76-19l0 168q33-45 79-45 39 0 58 22t21 54q0 8 0 31l1 103q0 13 9 17t23 4m171 21q-36 0-63-19t-41-48-14-59q0-32 14-61t41-47 63-18 63 18 41 47 14 61q0 30-14 59t-41 48-63 19m0-18q35 0 56-31t21-77q0-49-21-79t-56-29q-36 0-56 30t-21 78q0 30 9 55t27 39 41 14" />
</svg>