<svg id="fnt-Shippori Antique" viewBox="0 0 4088 1000" xmlns="http://www.w3.org/2000/svg"><path id="shippori-antique" class="f" d="M184 673q-67 0-106-24t-55-56l45-34q32 64 118 64 35 0 59-13t24-40q0-20-14-32t-42-20q-26-8-32-10-43-12-62-19-48-18-64-42t-15-49q0-21 13-45t42-42 72-17q49 0 81 13t63 44l-50 34q-31-40-89-40-30 0-47 9t-21 20-5 20q0 18 14 29t41 20q3 1 39 11 22 6 46 14 53 17 70 44t18 52q0 27-13 52t-44 40-86 17m337-275q38 0 70 22t32 80v167h-53q0-154-1-159-2-28-16-45t-36-16q-18 0-34 10t-27 30-11 51v129h-53v-367h53v140q14-20 35-31t41-11m210-45q-14 0-23-10t-10-23 10-23 23-9 23 9 9 23-9 23-23 10m26 52v262h-53v-262h53m214-7q48 0 75 23t36 53 9 62-9 61-36 53-75 23q-50 0-77-33v133h-51v-368h51v26q27-33 77-33m-5 229q39 0 57-26t18-65-18-65-57-27q-38 0-55 26t-17 66 17 65 55 26m322-229q48 0 74 23t36 53 10 62-10 61-36 53-74 23q-50 0-77-33v133h-51v-368h51v26q27-33 77-33m-5 229q38 0 56-26t19-65-19-65-56-27q-38 0-56 26t-17 66 17 65 56 26m304 46q-50 0-79-23t-40-54-11-60 11-61 40-54 79-23q49 0 78 23t40 54 12 61-12 60-40 54-78 23m0-46q40 0 60-26t19-65-19-65-60-27-60 27-20 65 20 65 60 26m244-222v45q32-49 90-49v56q-8-1-12-1-17 0-34 7t-30 22-14 31v151h-54v-262h54m174-52q-13 0-23-10t-9-23 9-23 23-9 23 9 10 23-10 23-23 10m27 52v262h-54v-262h54m365-105l141 367h-64l-39-109h-145l-39 109h-64l140-367h70m20 209l-55-154-55 154h110m294-111q37 0 69 22t32 80v167h-53v-159q-2-28-16-45t-37-16q-16 0-32 8t-26 27-13 44v141h-54v-262h54v34q13-19 35-30t41-11m306 7v42h-51v144q0 16 4 23t15 7q8 0 26-5v51q-25 6-47 6-23 0-35-8t-13-20-3-30v-168h-48v-42h48v-75h53v75h51m91-52q-13 0-23-10t-9-23 9-23 23-9 23 9 10 23-10 23-23 10m27 52v262h-54v-262h54m269 26v-26h51v368h-51v-133q-27 33-77 33-48 0-75-23t-36-53-9-61 9-61 36-54 75-23q50 0 77 33m-72 196q38 0 55-26t17-65-17-66-55-26q-38 0-57 27t-18 65 18 65 57 26m385-83v-139h53v262h-53v-35q-14 19-35 30t-41 10q-38 0-70-22t-32-79v-166h54v157q1 29 15 45t37 17q16 0 32-9t27-27 13-44m369 5h-199q3 34 21 56t52 22q26 0 41-10t26-36l50 16q-13 33-41 55t-76 21q-48 0-76-23t-39-54-11-60 11-61 39-54 76-23 77 23 39 54 11 61q0 8-1 13m-126-105q-30 0-48 18t-23 45h143q-6-28-24-45t-48-18" />
</svg>