<svg id="fnt-Short Stack" viewBox="0 0 3297 1000" xmlns="http://www.w3.org/2000/svg"><path id="short-stack" class="f" d="M52 613q0-3 3-10t7-12 9-7 9 4q8 15 15 23t14 12 16 5 22 1q15 0 31-5t29-13 21-17 8-17q0-6-5-12t-14-11-21-10-25-8q-15-2-32-5t-31-7-29-10-24-15-16-21-6-28q0-19 6-36t16-30 24-23 30-18 32-11 34-3q18 0 32 5t24 13 16 19 5 22q0 6 0 14t-2 15-6 11-13 5q-4 0-7-2t-4-5-1-6-1-6q0-13-3-22t-10-13-16-6-21-2q-9 0-18 3t-20 8-20 12-16 15-12 18-4 19q0 12 8 20t20 12 29 9 33 6q14 3 28 6t26 7 23 11 19 15 12 19 5 25q0 17-8 31t-20 24-28 18-31 13-30 7-24 2q-7 0-17-1t-19-3-19-6-17-10-12-16-4-22m305 29l0-305q0-4 2-9t6-10 8-8 11-3q8 0 14 5t6 13q0 10-1 21t-1 23 0 24-1 24v18q16-16 37-25t43-8q10 0 20 1t20 3 19 6 18 8q22 13 35 26t20 27 8 31 2 37l-1 91q0 5 0 12t-3 15-8 12-14 5q-6 0-11-2t-8-6-6-9-2-11q0-13 1-26t3-25 2-26 1-26q0-9-1-20t-3-22-10-22-16-18-27-13-39-5q-15 0-30 6t-25 14-18 18-7 18v103q0 8 1 17t2 18q0 5-1 10t-2 9-6 7-11 3q-3 0-8-1t-9-3-7-8-3-14m333-105q0-38 12-64t32-43 46-24 51-8q31 0 55 10t41 29 26 46 9 60q0 19-5 36t-14 32-22 26-27 19-32 13-33 4q-19 0-36-6t-33-15-28-24-22-28-15-31-5-32m42-6q0 18 8 36t21 33 29 24 34 9q18 0 36-7t31-18 21-30 8-40q0-22-6-40t-17-32-25-20-31-7q-19 0-39 6t-35 17-25 29-10 40m309 104q0-6 1-13t0-13q0-15-1-31-1-13-2-27t1-25l8-97q1-11 6-18t18-7q6 0 10 2t7 4 4 7 2 7q10-8 22-13t25-9 26-5 25-2q10 0 23 2t25 5 20 13 8 23q0 10-6 16t-17 6q-7 0-12-3t-8-8q-1-2-3-4t-6-4-9-2-14-1q-28 0-48 5t-33 18-20 32-6 46q0 10 0 19t1 17 1 18 2 19q0 8 1 17t1 16q0 2-1 6t-4 7-8 7-11 3q-8 0-14-2t-8-6-5-10-1-15m414 35q-24 0-40-9t-26-26-14-37-7-44-3-45 0-41q-7 0-12 0t-10 0q-3 0-6 0t-5 1-6 0-9 0q-3 0-8-2t-10-4-8-6-4-10 3-9 6-8 8-4 11-2l51 1q1-6 2-12t1-12q1-7 1-13t1-12 1-11 2-13q1-4 3-8t7-7 7-5 8-2q3 0 6 1t6 5 4 6 2 9q0 9 0 16t0 11-1 8-1 7q-1 3-1 6t-1 7-1 9-1 12q14-1 27-1t24-1 25 0 27-1q5 0 9 3t6 6 4 8 2 7q0 5-3 9t-5 7-7 4-7 1l-100-2q-1 1-1 2 0 13 0 30t-1 34 3 34 6 30 12 21 21 8q4 0 10-1t11-4 10-5 8-5q3-2 7-4t7-2q10 0 12 4t3 12q0 3-1 7t-4 6q-4 6-12 13t-16 11-17 9-16 3m341-57q0-3 2-10t7-12 9-7 10 4q8 15 15 23t14 12 16 5 21 1q16 0 31-5t29-13 22-17 8-17q0-6-5-12t-14-11-21-10-25-8q-16-2-32-5t-31-7-29-10-24-15-16-21-6-28q0-19 6-36t16-30 24-23 29-18 33-11 34-3q17 0 32 5t24 13 15 19 6 22q0 6 0 14t-3 15-6 11-12 5q-5 0-7-2t-4-5-2-6 0-6q0-13-4-22t-9-13-16-6-22-2q-8 0-18 3t-19 8-20 12-17 15-11 18-5 19q0 12 8 20t21 12 29 9 33 6q14 3 28 6t26 7 23 11 19 15 12 19 5 25q0 17-8 31t-20 24-28 18-31 13-30 7-24 2q-8 0-17-1t-20-3-19-6-16-10-12-16-4-22m437 57q-24 0-40-9t-26-26-14-37-7-44-2-45-1-41q-7 0-12 0t-10 0q-3 0-6 0t-5 1-6 0-9 0q-3 0-8-2t-9-4-9-6-3-10 2-9 6-8 9-4 11-2l51 1q1-6 1-12t1-12q1-7 1-13t1-12 1-11 2-13q1-4 4-8t6-7 8-5 7-2q3 0 6 1t6 5 5 6 2 9q0 9-1 16t0 11-1 8-1 7q0 3-1 6t0 7-1 9-2 12q14-1 27-1t25-1 25 0 27-1q5 0 8 3t7 6 4 8 1 7q0 5-2 9t-6 7-7 4-7 1l-100-2q-1 1-1 2 0 13 0 30t0 34 2 34 6 30 12 21 21 8q4 0 10-1t11-4 11-5 7-5q3-2 7-4t8-2q9 0 12 4t2 12q0 3-1 7t-3 6q-5 6-12 13t-16 11-18 9-16 3m139-107q0-19 6-40t16-38q9-18 24-34t31-27 38-18 43-7q17 0 33 4t29 13 25 18 19 23 13 26 4 27q0 12-1 21t-4 18q-1 9-2 19t-2 23q0 12 2 19t5 12 7 7 10 2q2 0 4-1t4-2 4-2 2-2q2-3 5-5t7-2q9 0 13 4t5 14q0 6-4 12t-10 12-15 8-19 4q-22 0-37-12t-22-33q-9 9-20 18t-23 15-29 10-35 4q-14 0-29-4t-29-11-27-17-21-22-14-27-6-29m46-1q0 15 8 28t21 22 29 14 32 5q20 0 37-8t30-20 19-28 7-31q0-8 4-15t7-12q1-1 1-4t0-5 0-6-1-3q0-5-3-12t-10-12-14-13-17-10-16-8-15-3q-19 0-35 5t-29 14-23 21-18 25-10 28-4 28m328 2q0-34 9-63t29-52 47-36 65-12q7 0 15 2t18 7 18 11 16 15 11 17 4 19q0 3-1 7t-4 9-5 6-6 2-8-5-8-16q-4-8-10-13t-14-9-18-6-18-1q-22 0-40 9t-30 24-19 33-6 38q0 24 7 39t20 24 31 11 40 4q7 0 13 0t12 0 13-1 12-4q6-2 10-4 4-2 8-3t6-2q3 0 7 2t9 5 7 8 3 14q0 4-3 8t-7 8-9 6-8 2h-19q-17 0-33 2t-34 1q-26 0-50-5t-42-17-28-33-10-51m317 86q0-9 1-20t3-22 2-21 1-18l3-244q0-5 3-9t5-7 8-4 8-2q4 0 7 1t8 5 5 7 3 10q0 19-1 36t-2 36-2 34-1 34q0 14 0 28t1 30q16-18 31-33t29-29 28-28 28-27q3-4 7-8t8-8 8-7 10-2q8 0 13 1t7 4 4 7 1 10q0 5-1 8t-4 6-6 5-7 5q-2 2-6 5t-9 7-10 9-10 9q-12 10-25 23l40 87q5 11 10 20t9 16 9 17 11 22q2 5 3 10 1 4 2 7t1 7q0 6-2 12t-6 12-8 9-10 3q-8 0-12-6t-6-13-4-16-5-14l-64-142-16 20q-6 7-12 14t-11 15-13 12-13 7l1 69q0 5-1 9t-5 9-8 6-11 2q-7 0-12-3t-8-7-5-8-2-7" />
</svg>