<svg id="fnt-Siemreap" viewBox="0 0 2081 1000" xmlns="http://www.w3.org/2000/svg"><path id="siemreap" class="f" d="M146 508q-60-17-88-42t-27-63q0-42 33-69t88-28q36 0 65 14t44 40 16 54h-47q0-32-21-51t-57-18q-35 0-54 15t-20 42q0 22 19 37t62 28 70 27 37 35 12 47q0 44-34 70t-90 26q-37 0-68-15t-49-38-17-55h47q0 32 23 51t64 18q37 0 57-15t20-41-19-41-66-28m234-106v265h-45v-265h45m-49-70q0-11 7-18t20-8 20 8 7 18-7 19-20 7-20-7-7-19m231 340q-54 0-88-36t-33-94v-8q0-40 15-71t42-48 58-17q52 0 80 34t29 97v19h-179q1 39 23 63t55 24q24 0 41-10t29-26l27 22q-33 51-99 51m-6-237q-27 0-46 20t-23 55h133v-3q-2-34-19-53t-45-19m161-33h43l1 30q29-34 78-34 56 0 76 42 13-19 34-31t50-11q87 0 88 92v177h-45v-175q0-28-13-42t-43-14q-26 0-42 15t-19 40v176h-46v-173q0-58-56-58-45 0-61 38v193h-45v-265m566-1v42q-10-2-22-2-45 0-61 38v188h-45v-265h44l1 31q22-35 63-35 13 0 20 3m146 271q-53 0-87-36t-34-94v-8q0-40 15-71t42-48 59-17q51 0 80 34t28 97v19h-178q0 39 22 63t56 24q24 0 40-10t29-26l28 22q-33 51-100 51m-5-237q-28 0-46 20t-23 55h132v-3q-2-34-18-53t-45-19m371 232h-47q-4-8-7-28-31 33-75 33-39 0-64-23t-25-56q0-41 32-64t88-23h44v-20q0-24-14-38t-42-14q-24 0-41 12t-16 30h-45q0-20 14-38t38-30 53-10q45 0 71 22t27 63v122q0 36 9 58v4m-122-35q21 0 40-11t28-28v-55h-36q-83 0-83 49 0 21 14 33t37 12m407-99v4q0 61-28 98t-74 37q-49 0-76-31v127h-45v-366h41l2 30q28-34 77-34 47 0 75 35t28 100m-45-1q0-44-19-70t-53-26q-41 0-61 36v127q20 36 62 36 32 0 52-26t19-77" />
</svg>