<svg id="fnt-Sigmar" viewBox="0 0 1872 1000" xmlns="http://www.w3.org/2000/svg"><path id="sigmar" class="f" d="M139 684q-33 0-63-8t-51-23q-3-12-5-23t-5-27-5-37v-1q1-5 7-9 18 12 32 17t24 6h15l9 0q11 0 21-3 13-5 15-13t-6-15-25-9q-23-3-44-18t-34-36-13-47q0-45 24-70t63-35q33-10 74-10 11 0 25 1t35 5q5 2 14 3l13 3q8 2 14 2t9 0q1 0 1 0t1 1q1 0 2 1 1 3 2 3t1 1h1l1 11q0 5 1 8t1 8q1 6 1 13t1 14q0 24-10 32l-44-6h-7q-3 0-13 0t-20-1-19 3-7 7q0 6 3 12t12 10q4 2 7 4t6 3q4 1 7 2t3 1q17 6 32 15t28 22q15 14 20 33t4 38q-5 38-27 65-12 12-27 21t-31 15q-30 11-73 11m246-350h-8l-3-1q0-1-1-1-1 0-2 0t-2 1l-4 1-4-1q-1 0-2-1t-2 0l-11-2-4-1h-2q0 1-1 1-4 0-5-1 0 0-2 0-4-3-6-8 0-1 0-3t-1-1 0-2-1-1v-47q1-2 1-6v-13q0-7-1-9v-1q0-1 4-1t9-1 5 0 2 1h7l10 1 9 3q4 0 13 1t12 1q2 0 9 2t10 1q2-1 5 1t4 3q9-2 19 2 5 2 9 3t5 6l0 15q1 15 2 24t0 25l-3 4-43 4q-4 0-11 0t-8 1q-2 0-4 0t-4 0m58 339l-12 2-12-2-23-2-7 0h-17q-1-2-3-2l-7 1q-4 0-7 1t-5 0q-1-1-3-1h-3q0-1-1-1l-1 1-1 0q-7 0-9-4-2-3-3-10t-1-18q0-4 0-8t-1-15l-2-20v-142q0-8 0-16t-1-20q-1-4-2-8 0 0 0-3 1-20 8-27t30-7q0 0 3-1 2 0 4 0h0q1 0 1 0 5 0 6 1h2q2 0 3-1l38 0q2 0 4 0t6-1q3 0 13 0 23 0 23 8v77q0 17 0 38t-1 39-2 29l-1 21q-1 17-2 29t-1 21q0 0 0 2t0 9q0 13-4 21t-9 9m206 120h-10q-16 0-25-1t-13-2-15-2q-20-4-30-9t-18-12h-6l0-4h-4l-4-4q-7-8-13-14t-8-14-2-27q0-10 8-23t22-22q-36-13-34-46 1-15 13-27t34-24l13-7h2q-11-2-24-9t-17-11h-5v-4q0 0-1-1t-1 0l-5-6q-9-11-14-29t-4-37q2-28 19-47t55-35q9-5 19-7t19-2q13 0 27 0t29 1h2q2 0 2 0 5 0 17 0 7 1 11 1t10 3l9 3q6 1 7-2t0-8 2-9q4-8 9-19t12-24l3-1 15 5q4 0 5 1 1 2 2 2t2 2l10 4q2-1 5 1l7 2 1 2q2 0 3 0 1 2 1 2 1-1 1 0 1 0 2 1l1 1 11 5 2 2q2 0 2 0 1 2 2 2l3 1q3 3 1 5-4 4-7 8t-15 15q-1 2-3 3t-3 2l-7 6q-3 2-3 3l-4 4q-2 2-4 4t-5 5q27 24 25 67-1 16-6 32t-9 25q-6 11-18 20t-23 13l-10 4q-2 0-3 1h-3q-1 1-6 2t-14 4q-3 0-7 0t-4 0q-7 0-11-1t-4 1q-3 0-7-1t-6 0q-15-1-22 2t-7 8 5 9 13 5q23 3 33 4t15 3 9 3 15 3q91 13 90 87-1 71-80 94-1 0-2-1t-3 1q0 0-2 0-3 2-9 2h-4q-14 0-26 3t-22 3q-2-1-7-1t-6 1m-6-285l10-1 9-8 3-1 3-7v-5q1-2 1-5t3-5v-2l1-4-13-32q-2-8-8-10-7-1-9-2t-6-1q-1 0-3 0t-6 2q-14 9-14 26v4q0 8 1 16t3 10q3 4 2 6t0 3q0 5 4 8t10 6q1 1 3 1t6 1m27 212q17-4 26-11t9-13-13-8q-5-1-5-1t-2-1h-13q-1 0-5-1t-8-1q-6-1-4-1t-3 0q-6 0-9-1t-5-1-8-1q-6 0-15-1t-10 0q-4 0-4 0t-1 2l-2 4q-3 6 0 15t9 15q9 6 23 7t40-2m613-135q0 2-1 7t-1 10q0 9-1 21t0 24q0 5 0 7t1 2q0 3 0 5t0 5q0 3-3 4t-10 2h-25q-9 0-20-1t-29 0q-33-1-41-13-1-4-1-22 0-19 0-30t0-24v-10q0-11 0-18t1-12q1-19 0-36t0-30q3-22-2-29t-20-5q-11 2-11 12t-1 27l-1 69 1 5-2 28q0 3-1 7t-1 10v57q0 11-13 11-16 0-25 0t-14 0-10-1q-11-2-16-1t-10 1-15-4q-3-5-3-25 0-19 0-33t1-25q1-2 1-10 0-12 0-18t0-11q1-21 0-39t1-31q0-18-5-24t-20-7q-7 0-11 4t-4 11-2 8v7h0v191q0 2-1 2-1 1-1 4 0 1-2 1-2 0-2 0-1 1-1 1t-2 0q-11 0-19 1t-15 1h-30q-23 0-37-1t-25-5q-3 0-3-3-1-3-2-5t0-5q-2-29-3-51t-3-38q-1-17-2-44t0-62v-15l0-22 1-19 1-9q0-7 1-8 0-2 2-2 4 0 8-2 1 0 2 0t3-1q4 0 5 1h81q7 0 9 0t4 1l16 0q13 1 15 21 11-11 33-18t46-6q20 0 37 9t26 27q13-17 34-25t54-7q34 0 56 17t25 47q2 16 3 32t1 37q0 16-1 33t-1 37m111 96q-47 2-70-20t-26-69q0-20 4-32t18-28q15-18 34-26t51-8q13 0 22-1t14 1q15 0 23 0-2-16-10-22-5-4-14-6t-26-2h-40q-5 0-6 0t-4 1h-4l-30 3q-7-2-7-19 0-3 0-7t0-11-1-26q1-4 1-9l0-8q2 0 3-1l3-3q0-1 1-1 2 0 6-1t9-1l11-2q4-1 6-1 14-3 18-4t13-2q28-1 56-1t49 4 32 7q31 12 45 36t16 65l2 73q0 14 1 25t0 15l1 11q-2 10-3 17t0 16q1 15-2 20t-8 7l-81 2q-4-1-19 0-6 0-10-1t-8-3q-7-3-7-15v-6q0-1 1-1v-2q-1-1-2-1-10 16-27 26t-35 11m38-80q23 0 29-24l1-10q0-10-6-19t-14-8q-10 1-17 9t-5 18l2 19q4 15 10 15m26 45 263 28h-19q-25 0-39-1t-24-5q-3 0-4-3-2-4-2-10l-6-84q-1-14-1-26t-1-27 0-33v-15l0-21 1-25 1-18q0-9 0-11t1-4q0-1 2-1 4 0 9-2 1 0 2 0t3-1q1 0 2 0t3 1h71q7 0 10 0t4 0l16 1q6 0 8 1t5 3l4 14v33q12-20 43-42 13-9 26-11t21-4q6-2 10 1t4 10q0 63-3 87t-11 25q-9-1-20-3t-23-2q-21 0-35 10t-13 27v125q0 3-1 3-1 1-1 3 0 2-2 2 0 0-2 1l-2 1q-20 0-37 1" />
</svg>