<svg id="fnt-Signika" viewBox="0 0 1568 1000" xmlns="http://www.w3.org/2000/svg"><path id="signika" class="f" d="M15 636q1-12 8-23t15-18q21 14 48 24t52 10q31 0 47-13t17-34q0-18-12-31t-34-23l-60-26q-31-13-50-34t-19-53q0-27 14-49t40-34 59-13q32 0 59 8t47 17q0 12-6 23t-13 19q-20-10-43-17t-43-7q-28 0-44 14t-16 33q0 17 12 27t30 19l60 24q21 9 38 23t27 31 10 40q0 28-14 51t-40 36-69 13q-31 0-63-10t-57-27m360-174v205q-5 1-12 1t-13 1-14-1-12-1v-184q0-13-5-19t-17-7h-6q-2-9-2-18 0-4 1-9t1-10q10-1 18-1t14-1h7q19 0 29 12t11 32m-67-109q0-5 1-11t4-11q4-3 12-5t15-1q7 0 16 1t12 5q2 4 3 11t1 11-1 12-3 10q-4 3-12 5t-16 2q-7 0-15-2t-12-5q-2-4-4-10t-1-12m345 90q-8 7-11 20t-3 27v148q0 29-3 49t-8 33-13 24q-12 15-33 24t-49 9q-23 0-47-5t-40-12q0-10 4-21t10-18q15 8 34 12t34 4q25 0 38-9t18-26 5-35v-185q0-24 10-42t35-24q6 4 12 12t7 15m-217 101q0-45 14-74t36-42 45-15q22 0 38 7t27 16 20 21l-7 44q-13-21-32-33t-38-13q-14 0-26 9t-18 30-7 50q0 45 13 64t32 20q20 0 38-13t29-33l8 39q-7 11-20 23t-29 19-37 8q-28 0-48-16t-29-45-9-66m284-126h19q16 0 22 9t7 27v213q-5 1-12 1t-14 1-13-1-12-1v-246l3-3m193 79v117q0 13 2 25t7 20q-6 5-15 8t-18 3q-15 0-21-8t-6-25v-127q0-25-7-37t-24-11q-13 0-28 6t-27 17-21 26v-50q17-19 41-32t51-14q23 0 38 11t21 30 7 41m134-35v205q-5 1-12 1t-13 1-14-1-12-1v-184q0-13-5-19t-17-7h-5q-3-9-3-18 0-4 1-9t2-10q9-1 17-1t14-1h7q19 0 30 12t10 32m-66-109q0-5 1-11t3-11q5-3 12-5t16-1q7 0 15 1t12 5q2 4 3 11t2 11-2 12-3 10q-3 3-12 5t-15 2q-8 0-16-2t-12-5q-2-4-3-10t-1-12m194-21v335q-5 1-12 1t-13 1-14-1-11-1v-365l3-3h19q17 0 22 8t6 25m112 242l17 41q6 15 11 25t13 14q-5 7-15 11t-20 5q-13 0-20-7t-12-22l-20-49q-8-20-17-26t-26-7q-7 0-15 1t-16 1l-18 2v-38h67q27 0 44 12t27 37m25-151l-55 86q-10 17-25 25t-36 7h-42v-23l38-2q4 0 7-1t5-6l44-69q6-11 13-16t21-6q8 0 14 0t13 1l3 4m46 177q0-29 13-47t34-28 49-8q14 0 31 1t33 5v34q-13-3-30-4t-31-1q-23 0-35 12t-13 32q0 15 9 26t25 10q18 0 39-12t34-38l8 40q-9 10-22 22t-31 21-39 8q-25 0-42-11t-24-28-8-34m209 44q-2 7-8 15t-12 11q-15-3-25-11t-15-21-5-25v-113q0-23-11-33t-30-11q-19 0-39 6t-40 13q-6-6-10-17t-5-21q14-6 32-11t36-8 36-3q25 0 43 9t28 27 11 47v103q0 14 2 25t12 18" />
</svg>