<svg id="fnt-Silkscreen" viewBox="0 0 3376 1000" xmlns="http://www.w3.org/2000/svg"><path id="silkscreen" class="f" d="M313 417h-188v-63h188v63m0 187h-63v-62h-125v-63h-62v-62h62v62h125v63h63v62m-63 63h-187v-63h187v63m250 0h-62v-313h62v313m313 0h-188v-313h63v250h125v63m187 0h-62v-313h62v125h63v63h62v62h63v63h-63v-63h-62v-62h-63v125m188-250h-63v-63h63v63m-63 62h-62v-62h62v62m438-62h-188v-63h188v63m0 187h-63v-62h-125v-63h-62v-62h62v62h125v63h63v62m-63 63h-187v-63h187v63m438-188h-63v-62h-125v-63h125v63h63v62m-63 188h-125v-63h-62v-187h62v187h125v63m63-63h-63v-62h63v62m187 63h-62v-313h187v63h63v62h-63v125h63v63h-63v-63h-62v-62h-63v125m0-250v62h123v-62h-123m500 250h-187v-313h187v63h-125v62h125v63h-125v62h125v63m313 0h-188v-313h188v63h-125v62h125v63h-125v62h125v63m187 0h-62v-313h62v63h63v62h62v63h63v-188h62v313h-62v-63h-63v-62h-62v-63h-63v188" />
</svg>