<svg id="fnt-Six Caps" viewBox="0 0 794 1000" xmlns="http://www.w3.org/2000/svg"><path id="six-caps" class="f" d="M70 628v-64q0-26-2-45t-7-32-10-24-12-19-11-18-10-21-8-26-2-36v-59q0-6 2-13t7-14 14-11 24-5 23 5 15 11 7 14 2 13v109h-32v-109q0-6-1-10t-4-6-5-3-5 0-6 0-5 3-4 6-1 10v47q0 28 5 47t11 32 15 25 15 24 12 31 5 42v96q0 3-1 10t-5 16-14 14-27 6-27-6-14-14-5-16-1-10v-141h31v141q0 3 0 7t2 7 5 6 9 3 9-3 4-6 2-7 0-7m59-336h31v375h-31v-375m101 172l4-63 8-109h31l-23 195 23 180h-31l-8-94-4-63-3 63-8 94h-31l23-180-23-195h31l8 109 3 63m218-180v133h-31v-133q0-6-1-10t-4-6-5-3-5 0-6 0-5 3-4 6-1 10v344q0 3 0 7t2 7 5 6 9 3 9-3 4-6 2-7 0-7v-164h31v164q0 3 0 10t-5 16-14 14-27 6-27-6-14-14-6-16 0-10v-344q0-11 4-20t11-13 15-7 17-3q9 0 17 3t15 8 11 13 3 19m86 8l32 375h-32l-4-81h-22l-5 81h-31l31-375h31m-24 268h18l-9-190-9 190m173-229v125q0 14-6 22t-14 12-20 4-23 1v172h-31v-375h39q21 0 32 4t16 9 6 13 1 13m-31 117v-117q0-6-2-9t-5-5-10-2-15 0v156q6 0 12 0t10-3 7-7 3-13m140-121v97h-31v-97q0-9-4-12t-8-4-8 4-3 12q0 26 2 48t6 40 9 34 10 28q4 10 9 23t8 32 7 43 3 56q0 11-3 18t-10 12-14 7-16 3-15-3-14-7-10-12-4-18v-97h32v97q0 9 3 13t8 3 8-3 4-13q0-31-3-55t-8-42-10-32-10-25q-5-11-9-25t-7-33-6-41-2-51q0-10 4-18t10-12 14-7 15-2 16 2 14 7 10 12 3 18" />
</svg>