<svg id="fnt-Sixtyfour" viewBox="0 0 4451 1000" xmlns="http://www.w3.org/2000/svg"><path id="sixtyfour" class="f" d="M142 660h216q14 0 21-8t8-17-8-17-21-7h-216q-14 0-21 7t-8 17 8 17 21 8m-62-63h90q14 0 22-7t8-17-8-17-22-8h-90q-14 0-22 8t-8 17 8 17 22 7m250 0h90q14 0 22-7t8-17-8-17-22-8h-90q-14 0-22 8t-8 17 8 17 22 7m0-62h90q14 0 22-8t8-17-8-17-22-7h-90q-14 0-22 7t-8 17 8 17 22 8m-188-63h216q14 0 21-7t8-17-8-17-21-8h-216q-14 0-21 8t-8 17 8 17 21 7m-62-62h90q14 0 22-8t8-17-8-17-22-7h-90q-14 0-22 7t-8 17 8 17 22 8m0-63h90q14 0 22-7t8-17-8-17-22-8h-90q-14 0-22 8t-8 17 8 17 22 7m250 0h90q14 0 22-7t8-17-8-17-22-8h-90q-14 0-22 8t-8 17 8 17 22 7m-188-62h216q14 0 21-8t8-17-8-17-21-7h-216q-14 0-21 7t-8 17 8 17 21 8m500 375h216q14 0 21-8t8-17-8-17-21-7h-216q-14 0-21 7t-8 17 8 17 21 8m63-63h90q14 0 22-7t8-17-8-17-22-8h-90q-14 0-22 8t-8 17 8 17 22 7m0-62h90q14 0 22-8t8-17-8-17-22-7h-90q-14 0-22 7t-8 17 8 17 22 8m-63-63h153q14 0 22-7t8-17-8-17-22-8h-153q-14 0-21 8t-8 17 8 17 21 7m63-125h90q14 0 22-7t8-17-8-17-22-8h-90q-14 0-22 8t-8 17 8 17 22 7m375 313h90q14 0 22-8t8-17-8-17-22-7h-90q-14 0-22 7t-8 17 8 17 22 8m250 0h90q14 0 22-8t8-17-8-17-22-7h-90q-14 0-22 7t-8 17 8 17 22 8m-188-63h216q14 0 21-7t8-17-8-17-21-8h-216q-14 0-21 8t-8 17 8 17 21 7m63-62h90q14 0 22-8t8-17-8-17-22-7h-90q-14 0-22 7t-8 17 8 17 22 8m-63-63h216q14 0 21-7t8-17-8-17-21-8h-216q-14 0-21 8t-8 17 8 17 21 7m-62-62h90q14 0 22-8t8-17-8-17-22-7h-90q-14 0-22 7t-8 17 8 17 22 8m250 0h90q14 0 22-8t8-17-8-17-22-7h-90q-14 0-22 7t-8 17 8 17 22 8m437 250h153q14 0 22-8t8-17-8-17-22-7h-153q-14 0-21 7t-8 17 8 17 21 8m-62-63h90q14 0 22-7t8-17-8-17-22-8h-90q-14 0-22 8t-8 17 8 17 22 7m0-62h90q14 0 22-8t8-17-8-17-22-7h-90q-14 0-22 7t-8 17 8 17 22 8m0-63h90q14 0 22-7t8-17-8-17-22-8h-90q-14 0-22 8t-8 17 8 17 22 7m-125-62h340q14 0 22-8t8-17-8-17-22-7h-340q-14 0-22 7t-8 17 8 17 22 8m125-63h90q14 0 22-7t8-17-8-17-22-8h-90q-14 0-22 8t-8 17 8 17 22 7m375 375h278q14 0 21-7t8-17-8-17-21-8h-278q-14 0-22 8t-8 17 8 17 22 7m250-62h90q14 0 22-8t8-17-8-17-22-7h-90q-14 0-22 7t-8 17 8 17 22 8m-188-63h278q14 0 22-7t8-17-8-17-22-8h-278q-14 0-21 8t-8 17 8 17 21 7m-62-62h90q14 0 22-8t8-17-8-17-22-7h-90q-14 0-22 7t-8 17 8 17 22 8m250 0h90q14 0 22-8t8-17-8-17-22-7h-90q-14 0-22 7t-8 17 8 17 22 8m-250-63h90q14 0 22-7t8-17-8-17-22-8h-90q-14 0-22 8t-8 17 8 17 22 7m250 0h90q14 0 22-7t8-17-8-17-22-8h-90q-14 0-22 8t-8 17 8 17 22 7m-250-62h90q14 0 22-8t8-17-8-17-22-7h-90q-14 0-22 7t-8 17 8 17 22 8m250 0h90q14 0 22-8t8-17-8-17-22-7h-90q-14 0-22 7t-8 17 8 17 22 8m375 250h90q14 0 22-8t8-17-8-17-22-7h-90q-14 0-22 7t-8 17 8 17 22 8m0-63h90q14 0 22-7t8-17-8-17-22-8h-90q-14 0-22 8t-8 17 8 17 22 7m0-62h90q14 0 22-8t8-17-8-17-22-7h-90q-14 0-22 7t-8 17 8 17 22 8m-63-63h278q14 0 22-7t8-17-8-17-22-8h-278q-14 0-21 8t-8 17 8 17 21 7m63-62h90q14 0 22-8t8-17-8-17-22-7h-90q-14 0-22 7t-8 17 8 17 22 8m62-63h153q14 0 22-7t8-17-8-17-22-8h-153q-14 0-21 8t-8 17 8 17 21 7m375 313h216q14 0 21-8t8-17-8-17-21-7h-216q-14 0-21 7t-8 17 8 17 21 8m-62-63h90q14 0 22-7t8-17-8-17-22-8h-90q-14 0-22 8t-8 17 8 17 22 7m250 0h90q14 0 22-7t8-17-8-17-22-8h-90q-14 0-22 8t-8 17 8 17 22 7m-250-62h90q14 0 22-8t8-17-8-17-22-7h-90q-14 0-22 7t-8 17 8 17 22 8m250 0h90q14 0 22-8t8-17-8-17-22-7h-90q-14 0-22 7t-8 17 8 17 22 8m-250-63h90q14 0 22-7t8-17-8-17-22-8h-90q-14 0-22 8t-8 17 8 17 22 7m250 0h90q14 0 22-7t8-17-8-17-22-8h-90q-14 0-22 8t-8 17 8 17 22 7m-188-62h216q14 0 21-8t8-17-8-17-21-7h-216q-14 0-21 7t-8 17 8 17 21 8m500 250h278q14 0 22-8t8-17-8-17-22-7h-278q-14 0-21 7t-8 17 8 17 21 8m-62-63h90q14 0 22-7t8-17-8-17-22-8h-90q-14 0-22 8t-8 17 8 17 22 7m250 0h90q14 0 22-7t8-17-8-17-22-8h-90q-14 0-22 8t-8 17 8 17 22 7m-250-62h90q14 0 22-8t8-17-8-17-22-7h-90q-14 0-22 7t-8 17 8 17 22 8m250 0h90q14 0 22-8t8-17-8-17-22-7h-90q-14 0-22 7t-8 17 8 17 22 8m-250-63h90q14 0 22-7t8-17-8-17-22-8h-90q-14 0-22 8t-8 17 8 17 22 7m250 0h90q14 0 22-7t8-17-8-17-22-8h-90q-14 0-22 8t-8 17 8 17 22 7m-250-62h90q14 0 22-8t8-17-8-17-22-7h-90q-14 0-22 7t-8 17 8 17 22 8m250 0h90q14 0 22-8t8-17-8-17-22-7h-90q-14 0-22 7t-8 17 8 17 22 8m250 250h90q14 0 22-8t8-17-8-17-22-7h-90q-14 0-22 7t-8 17 8 17 22 8m0-63h90q14 0 22-7t8-17-8-17-22-8h-90q-14 0-22 8t-8 17 8 17 22 7m0-62h90q14 0 22-8t8-17-8-17-22-7h-90q-14 0-22 7t-8 17 8 17 22 8m0-63h90q14 0 22-7t8-17-8-17-22-8h-90q-14 0-22 8t-8 17 8 17 22 7m250 0h90q14 0 22-7t8-17-8-17-22-8h-90q-14 0-22 8t-8 17 8 17 22 7m-250-62h278q14 0 21-8t8-17-8-17-21-7h-278q-14 0-22 7t-8 17 8 17 22 8" />
</svg>