<svg id="fnt-Slabo 27px" viewBox="0 0 2131 1000" xmlns="http://www.w3.org/2000/svg"><path id="slabo-27px" class="f" d="M109 673q-47 0-87-17v-70h34v46q21 8 56 8 34 0 53-16t19-43q0-14-5-24t-14-18-23-14-31-13q-17-6-33-14t-30-17-21-27-8-38q0-40 29-64t80-25q45 0 82 19v68h-33v-45q-23-9-52-9-34 0-51 16t-17 38q0 14 5 23t15 17 23 13 31 13 34 14 29 19 21 26 7 40q0 43-30 68t-83 26m150-6v-31h31v-309h-31v-31h68v340h31v31h-99m148-173v-50q43-24 87-24 39 0 59 17t21 56v143h31v31h-64l-2-28-1-1q-30 35-73 35-32 0-51-19t-19-48q0-39 34-58t98-19h10v-36q0-23-11-33t-36-9q-30 0-50 9v34h-33m130 62h-15q-42 0-65 10t-23 38q0 20 11 29t28 9q37 0 64-30v-56m157-85v167q19 4 37 4 37 0 56-23t20-73q0-44-15-70t-46-25q-27 0-52 20m0-175v145l2 1q26-22 61-22 40 0 64 34t25 87q0 61-31 97t-86 35q-35 0-72-12v-334h-30v-31h67m198 252q0-59 29-94t72-34 70 32 27 90q0 59-28 95t-73 36q-45 0-71-34t-26-91m39-6q0 49 16 74t45 26q28 0 43-24t16-72q0-95-61-95-29 0-44 22t-15 69m444 57h32v68h-185v-28q58-47 97-95t39-82q0-23-10-35t-39-13q-24 0-49 10v45h-32v-63q43-23 85-23 41 0 62 20t22 55q0 40-39 90t-86 87v1h103v-37m161 123h-42q2-39 12-79t27-80 34-76 36-66l-1-1h-125v41h-33v-72h198v26q-22 36-40 73t-34 75-23 78-9 81m128-296h66l1 20h2q27-26 62-26 40 0 64 32t24 86q0 60-30 97t-74 38q-23 0-46-11l-2 0v85h38v31h-105v-31h30v-290h-30v-31m67 51v156q19 9 44 9 32 0 51-24t18-74q0-48-16-71t-43-22q-30 0-54 26m291 42l42-61v-1h-21v-31h84v31h-29l-62 84 65 95h29v31h-93v-31h22v-1l-45-66-45 66v1h25v31h-87v-31h28l64-90-60-89h-29v-31h90v31h-20v1l42 61" />
</svg>