<svg id="fnt-Slackey" viewBox="0 0 2382 1000" xmlns="http://www.w3.org/2000/svg"><path id="slackey" class="f" d="M402 581q0 23-11 38t-32 23q-17 7-43 11t-53 6-55 2-45 1q-31 0-61-1t-60-3q1-50-3-99 36 1 73 2t73 2q14 0 28 1t29 0q3 0 8 0t10 0 10-2 7-3q2-2 2-5t1-7q0-5-2-13t-4-12q-1-1-3-1t-6-1-7-1-3 0q-31-2-62-3t-63-4q-14-1-29-3t-27-5q-12-3-21-15t-14-28-7-31-2-26q0-18 3-33t11-30 19-24 29-18q30-11 63-15t64-5q36 0 72 5t70 11q-1 14-1 28t0 28 1 29 3 28q-46 1-92 2t-93 3q-6 0-16 0t-19 1-17 2-6 0q-3 6-3 11t-1 12q0 3 0 7t3 7q0 0 8 1t17 2 18 2 11 1q16 2 38 4t44 4 44 6 36 9q15 4 27 15t20 24 14 30 5 30m36-280l108-10q-4 48-7 94t-6 95q-3 43-5 85t-6 85l-74 4q0-44 0-88t-1-88-4-88-5-89m497 145q0 41-3 82t-6 81q-54 5-109 8t-109 4q-4 0-18 0t-27-1-28-2-18-4q-16-9-22-22t-7-31q0-6 1-15t2-21 4-20 6-14q4-6 20-10t37-6 47-4 48-2 41-1 26 0q1-11 1-21 0-1 0-5t0-5q-2-3-9-5t-20-3-25-2-26-1-22 0-14 0q-31 0-62 2t-61 2q1-19 3-38t0-37q36-7 71-9t73-3q13 0 29 0t31 1 31 2 29 4q13 3 27 9t25 16 20 21 13 26q1 1 1 4t0 8 0 8 0 4m-109 115v-62q-14-1-28-1t-28 0q-3 0-17 0t-29 1-28 3-14 4q-3 4-4 8t0 9q0 3 0 9t2 12 3 12 4 8q1 2 6 3t10 2 11 1 8 0q12 0 25-1t28-2 27-3 24-3m476-152q0 23-6 44-3 0-20 1t-40 2-50 3-49 4-39 4-17 4q-8 7-12 16t-4 20q0 6 1 9t4 7q2 2 11 3t19 1 20 1 11 0q35 0 70-1t70-4l4 84q-48 3-98 7t-98 4q-2 0-7 0t-10 0-10-1-7-1q-10-3-20-7t-19-9-16-13-9-19q-2-8-3-20t-2-24-1-25 0-21q0-19 1-35t5-31 16-25 31-19q10-4 28-6t39-4 39-1 29-1q34 0 68 2t68 3q1 13 2 25t1 23m367-11l-125 90q1 6 6 19t10 27 11 26 12 15q3 3 8 4t11 3 12 1 9 0q7 0 14 0t14-2q-1 7-1 13t-1 14q0 11 1 23t0 23q-3 0-12 1t-19 2-23 1-23 2-18 1-10-1q-8-4-16-8t-13-13q-2-3-8-18t-12-33-11-34-6-20l-47 30v85l-97 8q3-68 6-136t4-136q0-21-1-42t0-42q20 4 40 5t39 3v183q38-24 75-48t70-54q26 3 51 5t50 3m340 87q-64 4-128 6t-127 5q-1 2-1 4t0 4q0 16 8 25t19 12 25 5 25 0q33 0 66-2t65-5l4 78q-32 1-64 2t-64 1q-7 0-25 0t-39-1-39-4-24-5q-15-9-24-22t-13-30-6-33-2-33q-1-2-1-5t1-5q0-26 5-48t21-43q10-15 30-25t44-15 47-8 40-2q15 0 37 3t44 9 39 16 24 25q1 3 2 10t3 16 3 19 2 20 2 16 1 10m-230-30l163-5q-3-22-11-34t-20-19-27-7-33-2q-6 0-15 0t-17 2-17 3-12 7q-3 3-6 8t-3 11-2 12-1 9q0 8 1 15m602 115q0 6 0 16t-1 23-1 27-2 26-2 22-4 14q-8 13-15 20t-16 10-18 3-25 1q-47 0-93-4t-93-9v-67q4 0 19 0t35 0 43-2 42-2 33-4 18-5q4-3 7-10t4-15 1-16 1-12 0-10-1-9q-7 16-19 24t-27 12-32 4-32 0q-32 0-61-3t-52-14-37-33-14-63q0-40 5-79t14-78l103 1q-8 31-15 63t-6 64q0 17 3 27t8 18 18 9 28 2q7 0 17-1t21-3 20-4 15-7q1-2 3-10t2-20 2-25 1-25 0-20 0-11q0-16 0-33t-1-33q24 3 47 4t47 3q2 47 4 94t5 94q1 11 1 23t0 23" />
</svg>