<svg id="fnt-Smooch" viewBox="0 0 1413 1000" xmlns="http://www.w3.org/2000/svg"><path id="smooch" class="f" d="M17 721q-5 0-11-2t-11-7q-5-4-5-8 0-3 2-5t4-5q5-6 17-15t29-21l-14 13q-2 2-4 6t0 2q5-6 21-19t35-27l-38 25q17-13 35-26t32-23 22-15q1 0 2 0 2 0 2 1 0 2-4 4-6 2-21 12t-30 22q20-13 37-24t28-16q-6-4-20-9t-31-13-35-17-31-23q-6-6-9-13t-3-13q0-16 13-32t34-33 46-30q12-6 25-13t25-11q-14 5-27 10t-26 12q-1 0-1 0t-1 0l9-5q27-13 54-23t52-17q-15 4-30 10t-30 13q30-11 59-19t56-12 42-4q9-1 9-3 0-1-5-1-17 0-41 3t-52 10q27-7 50-12t42-4q9 0 16 1 7 1 12 8t9 17 5 17l1-1q2-4 2-7t2-5q1-1 5 4t7 13 2 12q-1 9-9 19t-19 21-22 17-18 6q-2 0-5-1 6-5 11-10t9-11q-19 17-43 32t-45 25-34 9q-6 0-6-2t5-7 8-5q12-5 30-18t36-28 33-29 19-23q1-5-7-7t-21-2q-17 0-40 3t-49 10-49 16-41 20q-12 7-24 16t-20 21-8 22q0 8 8 16 20 18 43 30t43 21 29 19q2 3 3 8t2 10q0 10-3 18t-9 10q-42 8-72 20t-48 24-27 19-10 7q4 5 4 10 0 6-5 9t-12 3m202-358l2-1h1l1 0 1-1q2 0 2 0t1-1q0 0 0 0t-3 1q0 0-1 1-1 0-1 0-1 0-1 0t0 0q-1 1-2 1m39 328q-5 0-11-4t-11-10-4-9q0-3 2-3t5 1 9 2q-3-4-4-10t-2-9q0-8 8-23t20-35 25-39 23-34 15-20q-13 15-22 25t-9 11 8-15 34-49q5 0 13 5t15 11 7 12q-6 10-19 26t-28 34-25 30q2-2 13-12t27-23 32-27 29-23 16-9q2 0 8 4t11 9 8 11 2 8q-3 5-13 19t-20 33-19 34q7-5 18-17t26-27 30-32 30-31 27-23l2-2 2-2q2 0 7 4t10 11 8 12 1 8q-3 4-12 16t-21 28-24 33-18 30l41-26q5-3 0 0t-13 9-11 10q-2 1-4 5t-1 2q8-7 21-16t26-19 25-16q-10 5-20 10t-20 13l9-7q6-4 15-10t19-11 14-6l-17 11 26-12q3-1 4-2t3 0q5 0 0 6t-11 11q-12 6-29 18t-34 29-34 31-27 27q-11-10-12-19t0-17q0-1 5-12-1-5 0-10 1-7 7-24t16-37 23-41q-13 15-29 33t-32 36-27 34-17 26q-4 2-8 2-3 0-6-2-4-1-7-7t-4-15q0 1 0 3t-1 3v1q0 0-1-4t0-5l2-8v1q0 2 0 4t0 5q3-15 8-33t11-33 7-23q-2 5-7 15t-8 20-5 17q-3 11-4 16t-2 10q0-8 2-20t7-26 9-25 6-15q-8 7-25 23t-36 35-38 40-30 35q2 0 5 0 4 0 9 2t4 7q0 3-6 8t-14 10-13 4m365-20q-7 0-15-3t-13-8-13-17-7-22q0-5 2-8 16-43 52-79t88-60q7 0 14 5t13 13l9 3q-1-6-4-7t-3-4q1-4 7-5t8-1q8 0 13 7t6 16q12 2 25 2t22 1 11 0h2q1 0 1 2 0 4-4 6-5 4-23 5t-38 2q-3 7-8 16t-11 17q-5 7-14 17t-18 22-16 19q4-4 14-15t17-18q3-3 8-10t9-13 6-8q-6 14-16 26t-20 23-17 16-8 7q-21 22-43 37t-36 16m-16-17q3 0 6-2 6-3 14-9t19-14q8-7 19-17t23-24q11-13 23-28t25-30l-8 7q4-4 9-10t9-10q-16-1-19-1 0 1-1 1t-1-4q0-1 0-3t0-3q-5-1-11 1t-13 9q-9 8-22 20t-28 27-28 33-20 37q-2 6-2 12 0 8 7 5-2 1-2 2 0 1 1 1m1-3q10-5 30-22t43-39q7-8 16-18t17-18 13-14q-11 14-21 25t-19 21q-21 23-43 41t-36 24m219 20q-7 0-15-3t-14-8-13-17-6-22q0-5 1-8 16-43 52-79t88-60q7 0 15 5t12 13l9 3q0-6-3-7t-3-4q1-4 6-5t8-1q8 0 13 7t6 16q12 2 25 2t23 1 11 0h1q2 0 2 2 0 4-4 6-5 4-24 5t-38 2q-2 7-7 16t-12 17q-4 7-13 17t-19 22-16 19q5-4 15-15t17-18q2-3 7-10t10-13 6-8q-7 14-17 26t-20 23-17 16-8 7q-21 22-42 37t-36 16m-16-17q2 0 6-2 5-3 14-9t18-14q9-7 19-17t23-24q11-13 24-28t24-30l-7 7q3-4 8-10t9-10q-15-1-18-1-1 1-2 1t-1-4q0-1 0-3t1-3q-5-1-11 1t-14 9q-8 8-22 20t-28 27-27 33-20 37q-3 6-3 12 0 8 8 5-3 1-3 2 0 1 2 1m1-3q9-5 30-22t42-39q7-8 16-18t18-18 13-14q-12 14-22 25t-18 21q-21 23-43 41t-36 24m210 19q-11 0-23-8t-22-20-8-21q0-15 8-33t21-34 29-33 32-26q1-5 8-11t18-6q6 0 12 2 6 0 14 8t14 18 8 15q0 7-8 15t-18 15-13 6q-2 0-2-2 0-3 7-11 2-2 6-8t6-11 3-8q-9 0-24 8t-31 21-29 28-23 30-9 26q0 5 3 8t10 4q7-3 17-8t22-13l-10 9q-1 2-5 6t-2 4q10-8 22-18t27-20q-8 5-16 10t-16 9l28-20q20-15 37-26t34-18q-14 8-31 19t-32 23q19-12 37-23t34-20q8-4 12-4 4 0 4 2 0 2-5 7t-12 9q-11 5-25 16t-30 24-31 25-28 22q-6 5-11 8t-9 5m223-1q-5 0-11-4t-10-9-4-8q0-3 2-3 1 0 3 1t4 2q-1-4-2-7t-1-6q0 0 5-10t12-24 16-29 14-25 7-15l-1 2q-2 4-8 12t-11 19-10 16-4 6q2-8 6-17t11-21q-20 19-42 41t-41 42-28 35q-11-10-15-18t-4-15q0-3 0-6t2-6q3-11 15-32t32-48 39-56 41-55 34-47 21-28q0 0 0-1t0 0-3 2-6 6q-11 14-22 29t-21 26-16 19-6 7 7-11 18-26 22-30 19-25 8-10h0q2 0 5 2t6 2q4 1 11 7t12 13 4 13q-6 6-19 21t-31 36-37 43-39 46-35 42-26 33-11 16q4-3 17-13t31-26 37-32 36-33 27-27l6-8q6 2 14 6t13 9 6 10q0 2-1 4-25 35-40 56t-18 27q6-3 17-10t25-16q16-10 33-20t34-18q4-1 0 2t-10 7-11 7q8-4 14-7t15-6q5-2 8-2 3 0 1 4t-8 8-10 8q-6 3-22 15t-36 26-37 29q-9 6-16 13t-14 13q2 1 4 3t3 4q0 4-6 8t-13 9-11 3m36-69q7-6 21-16t32-20 31-19q-11 5-24 12t-22 13q-12 8-21 13t-14 11q-1 1-3 4t0 2" />
</svg>