<svg id="fnt-Smythe" viewBox="0 0 1151 1000" xmlns="http://www.w3.org/2000/svg"><path id="smythe" class="f" d="M69 645q7 0 13-3t11-8 7-12 2-12q0-19-6-35t-16-31-21-30-20-31-16-33-7-37q0-14 6-26t15-23 23-15 32-6q14 0 29 8t30 23l-34 56-1-1q2-10 2-19 0-10-2-18t-7-12-10-8-10-3q-8 0-14 3t-12 7-7 12-3 14q0 15 7 31t16 32 22 33 21 34 16 34 7 33q0 14-5 26t-15 23-23 15-32 5q-14 0-29-8t-30-23l34-48 1 0q-1 5-2 9t-1 9q0 7 3 14t6 11 9 7 11 3m252-134q1 15 1 30t1 33 0 32 0 32q0 6 2 11t4 7 6 6 9 3v2h-74v-2q8-3 12-9t5-19q0-10 0-20t1-19 0-18 0-13q0-26-1-48t-3-36-8-24-15-8q-8 0-16 4t-14 13-10 20-3 26v22q0 12 0 25t0 26 1 26 1 25q0 6 2 11t4 7 7 6 9 3v2h-84v-2q13-3 18-9t6-19q1-12 1-24t1-25 1-24 0-22q0-25 0-42t-4-27-9-14-17-4v-1l66-30q-2 6-2 14t-1 15q5-9 11-14t12-9 12-4 11-2q16 0 28 9t19 27q5-11 12-18t14-11 13-5 13-2q28 0 45 25t16 73q0 16 0 30t1 29 0 28 2 29q0 6 2 11t5 7 7 6 11 3v2h-81v-2q9-3 14-9t5-19q0-10 1-20t0-19 0-18 0-13q0-26 0-48t-4-36-9-24-16-8q-8 0-15 4t-13 12-9 20-4 24m262 123l0-72q0-26 0-52t-2-52q-1-9-6-16t-14-9v-1h86v1q-12 2-18 10t-6 16q-1 27-2 51t-1 46q0 20 0 34t0 25 0 24 0 27q0 34-5 57t-15 36-22 19-27 6q-10 0-22-4t-22-11-17-21-6-31q0-3 0-6t1-8l61-12 0 1q-14 7-21 17t-7 19q0 5 2 10t5 9 9 7 14 2q4 0 9 0t8-4 7-9 5-17 4-28 1-40q-17 13-34 13-16 0-29-6t-22-17-15-26-5-37q0-15 0-26t0-20 0-18-1-17 0-20-1-26q-1-9-6-16t-17-9v-1h84v1q-11 2-16 10t-6 16q0 17-1 34t0 32 0 28 0 23q0 35 10 53t31 18q6 0 13-2t16-8v-3m133-204h17q14 0 23 0t15-1q8 0 12-1l-10 32q-2-3-8-6-4-1-12-3t-20-2h-18q0 9 0 18t0 18q0 21 0 38t0 31 1 30 0 31 5 25 13 7q4 0 8-3t7-7 5-11 2-15q0-6-1-10l0-1 31 53q-15 11-29 16t-25 4q-12 0-22-5t-16-16-9-23-4-25q0-15 0-27t1-21 0-20 0-21q0-21 0-38t0-29q-7-1-12-1t-7-1q-3-1-5-1v-15h24q-1-14-1-22t-3-12-3-5-6-1v-1l56-27q-4 16-6 33t-3 35m247 92q0 16 0 29t1 27 0 26 2 29q1 12 6 20t16 12v2h-78v-2q10-3 14-12t5-21q1-42 1-65 0-26 0-48t-4-36-10-24-20-8q-9 0-17 4t-15 13-10 20-4 26v22q0 25 1 49t1 48q1 12 6 20t15 12v2h-82v-2q12-3 18-12t6-21q0-40 1-75t2-66q0-32 0-53t-2-37-3-23-6-13-10-5-15-1v-2l71-19q-1 10-1 22t-1 28 0 32 0 33q5-9 11-14t13-9 13-4 11-2q15 0 27 7t20 18 13 31 4 42m132 63l1-2 53 5q0 22-6 38t-16 27-21 16-23 5q-16 0-30-9t-24-24-17-39-5-53 5-53 17-39 24-24 30-9q13 0 25 7t19 22 14 35 7 48l-104 36q4 40 15 58t27 18q8 0 14-3t9-8 5-11 2-13q0-8-5-15t-16-13m-52-36v1q7-3 18-7t26-11q9-5 16-9t12-7q-3-34-11-50t-21-16q-19 0-29 25t-11 74" />
</svg>