<svg id="fnt-Sniglet" viewBox="0 0 1530 1000" xmlns="http://www.w3.org/2000/svg"><path id="sniglet" class="f" d="M152 314q14 0 32 2t35 8 27 15 11 23q0 8-5 13t-14 6q-8 0-16-3t-17-7-23-6-29-3q-33 0-49 12t-16 32q0 14 7 24t19 16 26 11 31 9q17 4 34 11t31 17 22 26 8 41q0 25-9 45t-26 35-40 22-50 8q-15 0-35-3t-38-10-30-18-13-27q0-10 5-16t16-6q9 0 14 3t10 7q15 13 34 18t39 4q11 0 24-2t23-7 18-16 7-27q0-16-7-27t-16-17-25-11-31-9q-18-5-36-11t-32-17-23-26-9-40 9-43 25-31 36-19 46-6m287 140q-18 0-33 6t-33 18q0 10 0 30t-1 44-1 47-2 39q-1 10-2 15t-4 9-6 4-9 1-10-1-6-4-4-8-3-15q-1-9-2-24t-1-33-1-36 0-33q0-26 1-42t3-28q3-21 8-27t13-5q13 0 19 7t8 23q18-16 39-26t44-9q22 0 39 10t30 32q7 14 10 30t5 34q1 8 1 16t1 16 0 20 0 26q0 16 0 30t-3 24-8 16-15 6q-23 0-24-22 0-1 0-13t0-26-1-30 0-26q-1-8-2-17t-2-19-3-18-5-16q-7-16-17-21t-23-4m165 182q-1-19-2-43t-1-52q0-35 1-61t2-41 8-24 14-8q8 0 15 6t7 26q3 53 3 102 0 25-1 46t-2 48q0 12-2 19t-5 10-7 4-8 1q-9 0-15-7t-7-26m22-319q12 0 21 9t10 21q0 12-10 21t-22 9q-11 0-20-9t-9-22q0-12 9-21t21-8m186 418q23 0 39-9t27-27 14-41 4-55q-4 16-13 27t-20 18-25 10-29 3q-23 0-43-7t-36-20-24-36-9-52q0-30 8-55t26-42 41-28 55-10q16 0 29 3t23 8 17 12 15 15q19 24 27 56t9 79q0 34-6 70t-21 64-41 47-68 18q-8 0-17-1t-19-2-19-4-18-7q-10-6-16-11t-6-16q0-10 4-18t15-7q5 0 11 3t15 6 21 6 30 3m2-120q20 0 33-7t23-19 13-27 4-30q0-13-3-26t-11-23-20-17-33-6q-33 0-53 20t-20 59q0 36 18 56t49 20m181 23q0-18-1-42t-1-52 0-59 0-64q0-35 0-61t3-42 7-24 14-8q9 0 15 6t8 25q2 36 2 75t1 76q0 23 0 43t-1 41-1 42-1 43q-1 12-3 19t-4 10-7 4-9 1q-9 0-15-7t-7-26m225-63q-18 0-37-3t-42-12q5 31 25 46t60 16q14 0 25-2t20-4 15-4 12-2q7 0 14 4t6 15q0 12-10 20t-25 13-31 6-29 2q-30 0-55-8t-42-24-28-40-10-56q0-31 9-55t27-41 40-25 51-8q21 0 40 5t35 17 25 27 9 40q0 20-7 34t-22 22-33 13-42 4m-4-116q-13 0-26 3t-23 10-17 19-9 30q19 8 37 11t38 4q29 0 43-8t15-26q0-17-14-30t-44-13m199 175q-2-31-2-75t0-98q-5 1-12 1t-11 0q-9 0-16-1t-13-3-8-7-3-13q0-24 36-24 5 0 13 0t14 1q0-27 1-43t3-25 8-11 12-3q8 0 13 6t8 14 3 19 1 20q0 7 0 13t0 10q7-2 14-2t15 0q18 0 28 5t10 19q0 8-3 13t-10 7-13 3-17 1q-5 0-11 0t-12-1q0 27 0 49t-1 42-1 40-1 43q-1 12-3 18t-4 10-7 4-9 1q-9 0-15-6t-7-27" />
</svg>