<svg id="fnt-Snippet" viewBox="0 0 1668 1000" xmlns="http://www.w3.org/2000/svg"><path id="snippet" class="f" d="M128 349q-30 0-46 14t-16 35q0 19 7 31t19 21 26 15 31 11q17 6 34 14t32 21 22 29 9 42-10 42-26 27-37 16-43 5q-33 0-62-11t-50-26l16-24q10 6 21 11t23 11 27 8 30 3 31-3 25-11 18-19 6-29q0-18-7-31t-18-22-27-16-31-12q-17-7-34-14t-31-19-23-28-9-42q0-15 7-29t19-25 31-17 41-6q15 0 27 1t18 0q17 0 27-4t20-13l17 17q-7 9-14 15t-15 8-16 4-19 1q-8 0-22-1t-28 0m384 318h-26q-8-15-11-34t-2-33q0-12 0-23t1-22 2-25 1-31q0-31-14-46t-43-14q-27 0-45 13t-36 37v1 177h-28v-177q0-20-5-34t-15-25l17-17q12 9 19 21t9 25q16-24 37-36t47-11q44 0 64 21t20 59q0 18-1 33t-1 28-1 25-1 24q0 16 3 31t9 33m55-236l17-17q10 7 15 16t10 19 4 20 2 21v177h-28v-177q0-20-5-34t-15-25m7-95q0-10 6-17t17-7q10 0 16 7t7 17q0 9-7 16t-16 7q-10 0-17-7t-6-16m231 77q26 0 45 10t34 27 21 41 7 50q0 28-9 52t-23 41-37 28-48 10q-21 0-37-2t-28-3v125h-27v-302q0-20-5-34t-15-25l17-17q11 9 17 19t9 23q11-20 31-32t48-11m0 26q-12 0-25 4t-23 12-18 20-9 28v138q9 1 27 3t38 2q20 0 36-8t28-21 18-32 6-42q0-20-5-39t-15-34-24-23-34-8m279-26q26 0 45 10t34 27 21 41 7 50q0 28-9 52t-23 41-37 28-48 10q-21 0-37-2t-28-3v125h-27v-302q0-20-5-34t-15-25l17-17q11 9 17 19t9 23q11-20 31-32t48-11m0 26q-12 0-25 4t-23 12-18 20-9 28v138q9 1 27 3t38 2q20 0 36-8t28-21 18-32 6-42q0-20-5-39t-15-34-24-23-34-8m251 128h-59q4 39 24 59t60 20q21 0 40-7t38-17l13 21q-18 12-41 20t-50 9q-57 0-86-34t-28-95q0-26 7-49t22-42 35-29 44-10q19 0 35 5t29 15 19 24 8 32q0 22-10 37t-25 24-35 13-40 4m19-130q-18 0-33 9t-25 24-16 33-6 38h61q25 0 41-5t25-12 12-17 3-18q0-24-17-38t-45-14m169 158v-180q0-20-5-35t-15-25l17-16q10 7 15 15t10 19 4 21 2 21v3h79v27h-79v150q0 15 3 24t8 16 12 8 14 3q9 0 19-3t19-7 16-8 12-6l13 21q-4 3-13 8t-20 9-25 8-26 4q-12 0-23-4t-19-13-13-23-5-37" />
</svg>