<svg id="fnt-Snowburst One" viewBox="0 0 3918 1000" xmlns="http://www.w3.org/2000/svg"><path id="snowburst-one" class="f" d="M218 319l1 22q0 14-12 9-9-4-15-12-8-11-20-24-42-5-67 13-24 17-24 50 0 28 29 57 18 18 32 28t24 18 21 18 17 20q17 25 17 54 0 57-63 81-36 14-75 14-14 0-37 27-10 11-14-4l0-25q0-25-2-38t-3-15q0-9 6-9 5 0 9 5t11 11q16 18 29 23 3 0 5 0h6q54 0 81-23 23-20 23-53 0-30-42-64l-47-38q-49-41-49-87 0-44 30-66 25-18 69-18l12 0q10 0 26-14 6-5 12-9t10-5q10 0 7 14-7 26-7 40m161 349q0 7-8 7l-13-1-44-2q-13 0-1-17l15-22q4-6 5-10t1-14 2-24 2-32 1-37 2-38 1-36q2-37 2-55-2-7-10-18t-11-14-4-7q0-5 8-5t16 0 16-1l32-2q14 0 3 17l-23 26q-4 5-4 7t-1 9-1 17q-1 12-1 38 12-32 35-58 29-33 63-33 48 0 73 70 7 20 12 49t9 48 5 32q4 21 5 24t3 7 7 9q9 9 16 12t8 9-5 8-12 2q-25 4-33 8-11 5-16 5-12 0-7-12l5-10q10-25 10-31t-1-13-2-19q-3-23-6-36t-5-27-5-28-8-30-13-27q-16-27-43-27-41 0-72 66-23 48-25 81-6 77-6 84t3 13 6 12l12 21q2 3 2 5m430-35q-14 4-25 5t-16 2-16-2-23-6-26-12-24-22q-25-30-25-78 0-47 31-83 28-33 62-38 22-7 51-3 27 5 51 22 27 20 39 59 6 21 6 48t-9 46-20 31-27 20-29 11m-74-23q10 4 19 5t14 2 14-1 20-4 23-9 22-17q23-23 23-61 0-78-56-100-43-17-87 7-7 3-11 5-18 12-28 38-9 22-9 44t5 36 13 26 18 18 20 11m538-303l30-12q18-5 18 5 0 6-18 38-6 11-6 15t0 12 1 18 2 26 1 29q3 65 1 89t-6 42-10 36-14 31q-19 29-46 29-31 0-49-34-11-25-16-44t-8-30-4-20l-5-22-5 26q-13 67-28 95-13 23-21 30-13 12-25 12-23 0-34-22-15-28-31-116-27-126-28-138-1-12-31-25-11-6-13-8t-2-6q0-7 18-10 23-3 34-8t16-7q26-12 26 1 0 5-5 14t-9 15-5 13q-4 10-4 19t3 27 7 35q0 4 19 78l9 48q14 66 31 66 11 0 28-35 14-31 18-49t6-29 5-26q11-59 3-97-2-12-21-27-4-3-7-5t-7-5-3-7q0-7 14-7t26-1 20-2q24-3 29-3 11 0-3 20-6 9-13 16t-7 8-2 4 0 6v11q0 25 4 40 10 57 14 76 11 47 28 77 6 13 20 19 21 8 34-18 14-29 18-43 19-71 7-182-4-33-6-38t-5-7-8-5-10-5-9-5q-15-10-6-17 3-3 11-4t15-3 14-4m111 370q-13 0-13-9 0-5 6-13t10-12 6-9q6-9 7-11t0-12 0-24 0-35 0-43 0-47-1-46 0-43-1-36q0-35-1-39t-8-12-14-15-8-13q0-7 10-7l23 2q14 0 23-1t15-1q12 0 12 8 0 6-7 11t-11 10-6 7q-5 5-5 11l2 134v46q18-25 50-33 29-6 58 5 37 14 49 55 4 15 4 34t-4 33-13 23-18 15-20 9q-46 16-87-9-10-5-18-15 1 24 3 32t7 13 8 10q18 22-7 22h-6q-28 0-34 3t-11 2m59-190q-8 10-13 23t-5 26 4 24 9 18 13 12 14 8q27 10 55 1 41-12 41-59 0-55-42-70-13-5-28-5t-27 6-21 16m399 120l1-6-7-111-12 35q-17 46-24 59t-13 22-15 16q-18 15-39 15-63 0-63-117l3-119q0-9-6-16t-11-11q-7-7-7-12 0-8 14-8l15 0q19 0 30-3t14-2q6 0 6 4 0 9-15 24-6 5-11 10t-6 10-1 15-1 28q-3 78-1 100t4 33 7 19q11 20 29 20 41 0 77-108 31-96 17-119-3-4-12-10-12-8-12-15 0-9 14-9l12 0q18 0 27-2 11-2 12-2 8 0 8 7t-8 16-12 15-4 11 1 15 1 24 1 31 3 35 2 35 2 32q3 32 4 37t2 8 3 7l15 18q5 8-4 11-7 2-23 2t-24 1q-17 6-17-4 0-6 3-9t6-7 6-9q9-12 9-16m210 40l-42-3q-13 0-17 1-14 3-14-6 0-5 9-13t14-16 7-12q1-5 2-72 3-125 1-135t-3-13q-2-6-10-11t-11-8-4-5 0-5 2-3q4-3 10-3l19 2q14 0 22-2t11-3 7 2 4 6-4 7-7 8q-12 11-14 18l-2 53q16-40 43-59 20-15 41-15 6 0 33-22h0q2-2 4-4t5-1q8 0 8 10l-1 34 0 15q0 5-2 8-5 8-15 0v0q-9-10-20-14t-17-5-15 5-18 14-15 19-12 23q-12 24-13 42t-2 30-2 27q-3 56 0 61t5 10l18 24q6 11-5 11m293-285l2 30q0 7-4 7t-8-3-9-8q-11-11-15-11t-9 0-12 2-13 5-12 8q-12 10-12 27 0 19 33 44 26 20 37 30t18 19q16 23 16 48 0 47-53 70-17 7-26 7t-16 5-12 10-10 11-7 5-4-1-2-3q-2-4-2-7l-1-44q0-29 10-22 2 2 6 7t7 8 6 4q15 8 40 0 29-8 39-31 17-35-30-75l-38-29q-34-28-34-56 0-42 47-58 15-5 27-5 3 0 13-9t14-13q8-7 10-7 4 0 4 15l0 20m129 209l0-8q1-28 4-57t4-59q-13 0-19 0 0 0-7 0-9 0-15 4t-9 9q-12 13-18 13-8 0-8-8 0-5 3-19t4-26l-2-16q0-9 6-9 3 0 13 11t14 15 8 5q16 0 32 1 4-54 4-68 0-7-19-26-6-6-6-12 0-8 14-8 4 0 10 1t15 2l30-3q10 0 10 9 0 5-4 10t-6 5q-6 3-12 12t-6 11-2 9-2 15l-3 44q74 4 85 2t17-6 10-8 6-5 4-4q6-4 10-4 8 0 8 16l-1 29q0 6 1 12 5 19-8 19-5 0-10-4t-11-8q-18-14-23-15l-89-4-5 67q-6 53-2 71t10 28q13 22 43 22 22 0 47-16 5-4 8-6t6-11 5-21 9-13q6 0 9 5l11 24q7 11 14 17t9 8 2 5q0 8-14 8l-26-2q-17 0-28 7-52 29-90 11-40-21-40-81m709 52q-20 27-47 40t-52 14-44-5-35-15-31-26-26-39q-22-49-22-118 0-85 43-138 42-53 110-53 64 0 103 39 45 47 45 146 0 98-44 155m-107 31q15 0 29-4t28-11 26-22 22-35q20-45 20-113 0-136-86-159-22-5-34-5t-27 3-28 10-28 19-24 29q-24 40-24 98 0 131 67 173 26 16 59 17m282 14q0 7-8 7l-12-1-44-2q-14 0-2-17l15-22q5-6 5-10t2-14 1-24 2-32 2-37 1-38 2-36q1-37 1-55-2-7-10-18t-11-14-4-7q0-5 8-5t16 0 17-1l32-2q14 0 3 17l-24 26q-4 5-4 7t-1 9-1 17q0 12-1 38 13-32 36-58 29-33 62-33 48 0 73 70 7 20 13 49t8 48 6 32q3 21 4 24t4 7 7 9q8 9 16 12t7 9-4 8-13 2q-25 4-33 8-11 5-15 5-12 0-8-12l5-10q10-25 10-31t-1-13-2-19q-3-23-5-36t-5-27-6-28-8-30-12-27q-17-27-44-27-41 0-72 66-23 48-25 81-5 77-5 84t2 13 6 12l13 21q1 3 1 5m558-42q0 14-14 9-24-7-29-5t-13 5-20 8q-40 14-89 8-35-4-65-22-34-20-48-60-8-21-8-49t8-50 19-39 29-30 34-20q50-24 107-13 43 9 62 39 10 16 10 35t-4 32-11 22-15 15-18 9q-17 7-28 7-28 0-42-4t-24-5-17-2-10-2-3-5q0-7 7-13 17-14 26-30 11-18 21-9 3 3 4 15 2 25 11 30 6 3 29 3 15 0 31-16 18-17 18-37 0-66-90-66-51 0-90 40-38 40-38 92 0 53 32 83 33 29 91 29 52 0 77-19 10-8 15-18t8-15 5-9 7-4 5 2 3 3q0 1 2 11 4 22 8 29 7 13 7 16" />
</svg>