<svg id="fnt-Sofia Sans Extra Condensed" viewBox="0 0 3744 1000" xmlns="http://www.w3.org/2000/svg"><path id="sofia-sans-extra-condensed" class="f" d="M84 670q-27 0-43-12t-22-33-4-47q0-5 3-5h25q4 0 4 5-4 30 6 45t32 15q20 0 29-12t10-36q0-22-6-37t-21-25l-40-32q-21-16-31-36t-9-49q0-35 18-55t49-20q37 0 54 24t14 66q0 5-4 5h-25q-4 0-3-5 3-28-7-43t-28-15q-16 0-26 10t-10 32q0 20 7 34t22 26l39 30q14 11 23 23t13 28 4 37q0 38-18 60t-55 22m171 0q-33 0-49-20t-16-61v-87q0-42 16-62t49-19 50 19 16 62v87q0 41-16 61t-50 20m0-32q18 0 25-11t8-38v-86q0-27-8-39t-25-12-25 12-8 39v86q0 26 8 38t25 11m146 29h-25q-3 0-3-5v-207h-22q-4 0-4-4v-23q0-4 4-4h22v-36q0-33 11-50t37-16q11 0 19 2t14 4q4 3 4 7v21q0 2-2 3t-4 0q-5-2-11-4t-13-1q-12 0-18 7t-5 27v36h39q4 0 4 4v23q0 4-4 4h-39v207q0 5-4 5m108 0h-25q-4 0-4-5v-234q0-4 4-4h25q4 0 4 4v234q0 5-4 5m-12-288q-11 0-17-5t-5-16v-5q0-10 5-16t17-6 16 6 5 16v5q0 10-5 16t-16 5m173 288h-23q-3 0-4-5-1-9-2-23t-1-23l-2-2v-126q0-21-5-29t-19-7q-14 0-19 7t-4 26q0 4-4 4h-22q-5 0-6-6-2-29 12-46t44-16q30 0 43 14t13 52v120q0 20 0 34t1 21q1 5-2 5m-77 3q-19 0-30-17t-11-48q0-34 15-55t49-24l26-3v27l-22 3q-18 2-27 14t-8 36q0 16 5 26t13 9 17-7 23-25l2 29q-15 19-26 27t-26 8m247 0q-27 0-43-12t-22-33-4-47q0-5 3-5h25q4 0 4 5-4 30 6 45t32 15q20 0 29-12t10-36q0-22-6-37t-21-25l-40-32q-21-16-31-36t-9-49q0-35 18-55t49-20q37 0 54 24t14 66q0 5-4 5h-25q-4 0-3-5 3-28-7-43t-28-15q-16 0-26 10t-10 32q0 20 7 34t22 26l39 30q14 11 23 23t13 28 4 37q0 38-18 60t-55 22m221-3h-23q-3 0-4-5-1-9-2-23t-1-23l-2-2v-126q0-21-5-29t-19-7q-14 0-19 7t-4 26q0 4-4 4h-22q-5 0-6-6-2-29 12-46t44-16q30 0 43 14t13 52v120q0 20 0 34t1 21q1 5-2 5m-77 3q-19 0-30-17t-11-48q0-34 15-55t49-24l26-3v27l-22 3q-18 2-27 14t-8 36q0 16 5 26t13 9 17-7 23-25l2 29q-15 19-26 27t-26 8m248-3h-26q-3 0-3-5v-178q0-17-5-25t-16-7q-10 0-22 8t-23 24l-3-27q15-18 29-27t31-9q20 0 31 15t10 46v180q0 5-3 5m-95 0h-26q-3 0-3-5v-178q0-21-1-35t-1-20q0-5 3-5h22q4 0 4 4 2 10 2 24t1 22l2 3v185q0 5-3 5m195 3q-31 0-45-19t-11-56q0-4 3-4h26q3 0 3 4-1 24 4 34t21 10q25 0 25-33 0-13-4-22t-14-17l-33-26q-16-12-23-27t-7-37q0-27 14-42t42-14q28 0 42 17t11 46q0 4-3 4h-25q-1 0-3 0t0-5q1-15-5-23t-18-9q-23 0-23 26 0 13 4 21t15 17l32 26q17 14 23 28t7 35q0 32-15 49t-43 17m278-3h-113q-4 0-4-5v-318q0-5 4-5h113q3 0 3 5v22q0 5-3 5h-84v114h77q3 0 3 4v21q0 5-3 5h-77v120h84q3 0 3 5v22q0 5-3 5m58 0h-26q-2 0-3-2t1-4l51-120-47-112q-1-2-1-4t3-1h27q4 0 5 3l18 49q4 9 7 20t8 22h0q4-10 8-22t7-20l19-50q1-2 4-2h27q2 0 3 1t-1 4l-48 111 53 121q0 2 0 4t-3 2h-28q-3 0-4-3l-21-56q-4-10-8-22t-8-21h-1q-3 10-7 21t-8 22l-22 56q-1 3-5 3m199 3q-26 0-37-16t-11-52v-147h-21q-4 0-4-4v-23q0-4 4-4h22l4-61q1-4 4-4h21q3 0 3 4v61h45q4 0 4 4v23q0 4-4 4h-45v146q0 21 5 29t17 9q6 0 12-2t11-3q4-2 4 2v23q0 5-3 6-7 2-15 3t-16 2m97-3h-26q-3 0-3-5v-178q0-21-1-35t-1-20q0-5 3-5h23q3 0 3 4 1 10 2 24t1 22l2 3v185q0 5-3 5m0-176l-2-32q6-9 14-18t17-15 20-5q4 0 7 0 2 1 3 2t1 4q0 9-1 16t-1 16q0 4-3 3-3-1-6-1t-6 0q-10 0-22 8t-21 22m194 176h-23q-3 0-4-5-1-9-2-23t-1-23l-2-2v-126q0-21-5-29t-19-7q-14 0-19 7t-4 26q0 4-4 4h-22q-5 0-6-6-2-29 12-46t44-16q30 0 43 14t13 52v120q0 20 0 34t1 21q1 5-2 5m-77 3q-19 0-30-17t-11-48q0-34 15-55t49-24l26-3v27l-22 3q-18 2-27 14t-8 36q0 16 5 26t13 9 17-7 23-25l2 29q-15 19-26 27t-26 8m263 0q-38 0-58-25t-20-74v-136q0-50 20-74t58-25q27 0 45 13t26 38 3 58q-1 4-3 4h-26q-4 0-3-5 3-38-8-57t-34-19q-22 0-34 16t-12 53v132q0 36 12 52t34 17q26 0 35-20t8-56q-1-5 3-5h24q4 0 5 5 3 52-16 80t-59 28m177 0q-33 0-49-20t-16-61v-87q0-42 16-62t49-19 50 19 16 62v87q0 41-16 61t-50 20m0-32q18 0 25-11t8-38v-86q0-27-8-39t-25-12-25 12-8 39v86q0 26 8 38t25 11m232 29h-26q-3 0-3-5v-178q0-17-5-25t-16-7q-10 0-22 8t-23 24l-3-27q15-18 29-27t31-9q20 0 31 15t10 46v180q0 5-3 5m-95 0h-26q-3 0-3-5v-178q0-21-1-35t-1-20q0-5 3-5h22q4 0 4 4 2 10 2 24t1 22l2 3v185q0 5-3 5m185 3q-22 0-33-16t-11-48v-113q0-36 14-54t40-18q15 0 26 3t19 9v31q-23-12-37-12-14 0-22 10t-7 35v109q0 18 5 25t16 7q11 0 22-8t23-26l2 29q-14 18-28 27t-29 10m81-3h-22q-3 0-4-5-1-10-2-25t-1-21l-2-3v-283q0-5 4-5h25q3 0 3 5v277q0 21 1 34t1 20q0 6-3 6m109 3q-34 0-50-21t-16-65v-84q0-41 16-60t48-19q31 0 47 19t16 59v50q0 4-3 4h-91v30q0 29 7 42t26 13q15 0 22-8t6-25q-1-5 3-5h24q3 0 3 4 1 32-14 49t-44 17m-33-170v22h62v-22q0-26-8-37t-23-11q-16 0-24 11t-7 37m259 167h-26q-3 0-3-5v-178q0-17-5-25t-16-7q-10 0-22 8t-23 24l-3-27q15-18 29-27t31-9q20 0 31 15t10 46v180q0 5-3 5m-95 0h-26q-3 0-3-5v-178q0-21-1-35t-1-20q0-5 3-5h22q4 0 4 4 2 10 2 24t1 22l2 3v185q0 5-3 5m195 3q-31 0-45-19t-11-56q0-4 3-4h26q3 0 3 4-1 24 4 34t21 10q25 0 25-33 0-13-4-22t-14-17l-33-26q-16-12-23-27t-7-37q0-27 14-42t42-14q28 0 42 17t11 46q0 4-3 4h-25q-1 0-3 0t0-5q1-15-5-23t-18-9q-23 0-23 26 0 13 4 21t15 17l32 26q17 14 23 28t7 35q0 32-15 49t-43 17m157 0q-33 0-49-21t-16-65v-84q0-41 16-60t47-19q31 0 47 19t17 59v50q0 4-4 4h-91v30q0 29 8 42t25 13q15 0 22-8t6-25q-1-5 3-5h24q4 0 4 4 1 32-15 49t-44 17m-33-170v22h62v-22q0-26-7-37t-24-11q-16 0-23 11t-8 37m176 170q-22 0-33-16t-11-48v-113q0-36 14-54t40-18q15 0 26 3t19 9v31q-23-12-37-12-14 0-22 10t-7 35v109q0 18 5 25t16 7q11 0 22-8t23-26l2 29q-14 18-28 27t-29 10m81-3h-22q-3 0-4-5-1-10-2-25t-1-21l-2-3v-283q0-5 4-5h25q3 0 3 5v277q0 21 1 34t1 20q0 6-3 6" />
</svg>