<svg id="fnt-Sometype Mono" viewBox="0 0 3745 1000" xmlns="http://www.w3.org/2000/svg"><path id="sometype-mono" class="f" d="M141 673q-34 0-63-11t-50-31l20-30q19 18 43 27t51 9q37 0 56-16t20-45q0-23-12-35t-37-18l-52-12q-38-9-57-29t-19-55q0-43 29-67t80-24q58 0 101 34l-19 30q-36-29-83-29-33 0-52 14t-18 41q0 20 11 32t37 17l53 12q38 9 57 29t18 58q0 47-30 73t-84 26m294 0q-35 0-62-16t-42-43-15-65 15-65 42-43 62-15q36 0 63 15t41 43 15 65-15 65-41 43-63 16m0-34q39 0 60-24t22-66-22-65-60-24q-38 0-60 24t-22 65 22 66 60 24m207 28h-35v-235h25l3 19q27-25 57-25 32 0 45 25 26-25 57-25 23 0 37 14t14 41v186h-35v-182q0-27-25-27-23 0-42 19v190h-34v-182q0-27-25-27-23 0-42 19v190m387 6q-61 0-96-33t-34-91q0-38 15-65t42-43 63-15q35 0 60 14t39 40 14 61q0 5 0 10t-1 11h-195q4 37 28 57t66 20 79-25l16 30q-23 15-46 22t-50 7m-92-143h159q-4-33-24-52t-54-18q-33 0-55 18t-26 52m414 143q-87 0-87-89v-119h-78v-33h78v-76l36-20v96h100v33h-100v114q0 31 13 45t41 15q31 0 59-15l10 32q-33 17-72 17m163 105q-33 0-58-16l13-30q20 12 43 12 22 0 35-11t23-39l9-22-100-240h39l80 193 77-193h37l-111 277q-15 38-34 53t-53 16m303-6h-36v-340h27l4 25q41-31 86-31 48 0 75 33t28 90-28 90-75 34q-21 0-42-7t-39-21v127m75-133q34 0 53-24t19-66-19-65-53-24q-18 0-39 7t-36 19v126q16 13 36 20t39 7m297 34q-61 0-96-33t-34-91q0-38 15-65t42-43 63-15q35 0 60 14t39 40 14 61q0 5 0 10t-1 11h-195q4 37 28 57t66 20 79-25l16 30q-23 15-46 22t-50 7m-92-143h159q-4-33-24-52t-54-18q-33 0-55 18t-26 52m580 137h-34v-325h51l61 202 61-202h51v325h-36v-276l-63 210h-27l-64-210v276m368 6q-35 0-62-16t-42-43-15-65 15-65 42-43 62-15q36 0 63 15t41 43 15 65-15 65-41 43-63 16m0-34q39 0 60-24t22-66-22-65-60-24q-38 0-60 24t-22 65 22 66 60 24m226 28h-36v-235h27l4 25q20-16 42-24t47-7q41 0 62 22t22 66v153h-36v-147q0-32-13-46t-41-14q-20 0-41 6t-37 20v181m354 6q-35 0-62-16t-42-43-15-65 15-65 42-43 62-15q36 0 63 15t41 43 15 65-15 65-41 43-63 16m0-34q39 0 60-24t22-66-22-65-60-24q-38 0-60 24t-22 65 22 66 60 24" />
</svg>