<svg id="fnt-Sono" viewBox="0 0 1207 1000" xmlns="http://www.w3.org/2000/svg"><path id="sono" class="f" d="M155 672q-38 0-66-12t-44-29q-12-10-12-23 0-7 5-12t14-5q7 0 13 3t11 10q12 15 31 25t49 10q20 0 38-6t28-18 11-28q0-24-22-38t-62-24q-55-14-82-36t-26-57q0-24 16-42t42-27 58-9q31 0 57 10t41 28q5 5 8 11t3 11q0 8-5 13t-12 4-14-4-10-10q-9-13-27-21t-42-9q-19 0-35 5t-26 16-10 24q0 21 19 34t59 23q37 10 62 23t38 30 13 43q0 27-16 47t-44 30-61 10m310 0q-22 0-44-7t-40-22-28-39-11-57 11-56 28-39 40-22 44-7 43 7 40 22 28 39 11 56-11 57-28 39-40 22-43 7m0-33q14 0 28-5t25-16 19-28 7-43q0-25-7-42t-19-28-25-16-28-6-29 6-25 16-19 28-7 42q0 25 7 43t19 28 25 16 29 5m393 30q-21 0-21-27v-107q0-40-13-59t-40-20q-14 0-26 6t-22 16-15 22-6 26v116q0 27-21 27-21 0-21-27v-191q0-27 21-27 18 0 20 20v24q13-19 34-32t48-13q26 0 45 11t28 34 10 60v114q0 13-5 20t-16 7m226 3q-22 0-44-7t-40-22-28-39-11-57 11-56 28-39 40-22 44-7 43 7 40 22 28 39 11 56-11 57-28 39-40 22-43 7m0-33q14 0 28-5t25-16 19-28 7-43q0-25-7-42t-19-28-25-16-28-6-29 6-25 16-19 28-7 42q0 25 7 43t19 28 25 16 29 5" />
</svg>