<svg id="fnt-Sonsie One" viewBox="0 0 3906 1000" xmlns="http://www.w3.org/2000/svg"><path id="sonsie-one" class="f" d="M29 648q-6-3-6-13t15-39 23-31q5 0 15 7t24 16 29 19q39 23 75 23 18 0 26-7t8-15-8-17-22-19-29-21-33-24-29-25q-30-28-30-55 0-19 10-35t26-24 36-16q36-12 74-12 10 0 16 3t5 8-4 12-4 15 9 17 23 21 32 23 34 26 31 28q32 32 32 61t-16 50-43 31-60 16-80 5-105-9-74-19m404-239q-32-38-79-57t-99-19q-94 0-181 36-11 4-16 4-10 0-10-9 0-8 13-18t38-22 55-20q71-22 152-22 120 0 181 34 3 2 3 11t-9 30-21 37-20 17q-2-2-7-2m87 241q-46-27-46-83 0-30 12-56t33-44 49-32q56-27 129-27 142 0 154 90 17 6 35 6t31-3 23-8 15-6q9 0 9 9t-14 19q-27 19-72 19-17 0-27-2-8 62-64 102-26 20-65 31t-80 11-71-6-51-20m88-62q0 45 33 45 21 0 39-23t29-57 10-69-25-35q-21 0-42 20t-32 53-12 66m764 9q9 0 9 8t-9 15-26 15-43 18-59 16-65 7q-73 0-73-33 0-21 25-77t25-74q0-22-34-22-16 0-35 4-10 33-33 104t-27 81-13 10l-126 3q-3 0-6-4t-3-8 10-32 23-59 23-69 10-63l0-9q0-13 24-13l115-2q7 0 10 4t3 9-3 18q86-36 142-36 23 0 42 13 22 14 22 43 0 30-23 79t-23 60q0 23 18 23 12 0 40-9t41-14 19-6m139 79q-6 0-18 0-56 0-106-10t-58-24q-3-5-3-11t15-22 22-14 12 4 14 11 17 12q22 14 53 14 12 0 20-6t8-16-7-17-16-12-23-11-25-11-23-14q-24-16-24-40t15-42 37-29 51-18q50-12 94-12t83 4 52 13q4 3 4 12t-6 27-17 32-18 15q-3 0-6-3-23-28-45-43t-47-15q-20 0-28 8t-8 17 9 16 23 14 31 15 30 17 24 22 9 33-14 38q60-12 95-30 5-3 10-3 9 0 9 9 0 8-10 15t-31 15-52 19q-71 21-152 21m449-354q0 27-28 46t-62 19-49-13-18-32 13-34 36-24 47-9 44 14 17 33m-68 303q16 0 45-8t41-14 18-6q11 0 11 10 0 5-8 11-25 18-90 38t-115 20q-32 0-53-10t-21-30q0-13 21-61 40-92 40-139l0-9q0-12 24-12l120-3q7 0 10 4t3 8q0 17-15 56t-31 76-16 53 16 16m481-28q9 0 9 8t-12 15-28 14-48 18q-69 24-156 24-165 0-165-101 0-50 32-88t84-59 115-20 91 19 29 53q0 35-28 57t-73 32q-46 11-106 15 4 38 54 47 13 3 27 3 58 0 165-35 7-2 10-2m-256-39q43-12 67-36t25-59q0-9-6-14t-18-5-24 10-22 27q-18 34-22 77m660-157q-40 33-62 98-11 35-11 71 0 64 41 64 21 0 44-18t40-45 30-65 11-77q0-53-19-76t-64-23q-25 0-53 6t-49 11-36 12-18 6q-9 0-9-8 0-6 12-15t33-20 48-19q61-21 119-21 112 0 158 65 27 38 27 95 0 42-15 80t-42 65-62 49q-73 40-164 40-180 0-180-122 0-35 15-66t39-55 55-41q61-35 123-35 10 0 14 3t4 7-1 7-4 6-6 5q-6 6-18 16m743 196q9 0 9 8t-9 15-26 15-43 18-60 16-64 7q-73 0-73-33 0-21 25-77t24-74q0-22-33-22-16 0-35 4-10 33-33 104t-27 81-13 10l-126 3q-3 0-6-4t-3-8 10-32 23-59 23-69 10-63l0-9q0-13 24-13l115-2q7 0 10 4t3 9-3 18q86-36 142-36 23 0 42 13 22 14 22 43 0 30-23 79t-23 60q0 23 18 23 12 0 40-9t41-14 19-6m376 0q9 0 9 8t-12 15-29 14-47 18q-69 24-156 24-165 0-165-101 0-50 31-88t85-59 115-20 91 19 29 53q0 35-28 57t-74 32q-46 11-105 15 4 38 54 47 13 3 27 3 57 0 165-35 7-2 10-2m-256-39q42-12 67-36t25-59q0-9-6-14t-18-5-25 10-21 27q-19 34-22 77" />
</svg>