<svg id="fnt-Sorts Mill Goudy" viewBox="0 0 3709 1000" xmlns="http://www.w3.org/2000/svg"><path id="sorts-mill-goudy" class="f" d="M228 322l11-4q7 0 8 4 10 61 10 71t-7 11q-4 0-9-11t-10-19-8-12-13-12q-27-24-62-24t-55 15-21 39 12 39 33 22 43 15q60 19 89 50 20 21 20 53 0 53-33 83t-83 31q-35 0-56-4t-43-15q-6-4-15-39t-9-44 6-8 9 5q18 44 43 63 27 20 65 20t61-20 23-51q0-24-15-40t-36-22q-74-25-101-41-45-27-45-72t32-73 84-26q19 0 45 8t27 8m201 354q-51 0-81-33t-30-78 31-80 82-34 86 30 35 82-36 82-87 31m-5-211q-26 0-47 20t-20 68 28 77 59 31 51-22 20-64-24-76-67-34m174 20l-6 0q-9 0-9-8 0-6 6-9t25-8 29-11 13-4q6 0 6 10l0 13q0 18 1 20t2 2 8-10 19-21 23-10 25 8 12 17-4 15q-7 12-13 12-4 0-14-6t-24-6-25 11-12 20v52l1 44 0 9q0 10 7 18t13 8 11 2 7 0 6 2q5 1 5 7t-6 6l-42-2-52 2q-9 0-10-2t-1-4q0-6 6-8 13-3 16-13t3-42l-1-80 0-15q0-6-2-9-4-10-23-10m193-4l-10 1q-8 0-8-7 0-5 4-9 19-12 38-37 8-12 13-17t10-5 5 11q0 0-2 29 0 7 2 8t18 2h18q22 0 27-3 9-4 11-4 5 0 5 5 0 4-6 16t-10 12q-22 0-31-1t-12-2-6 0-3 0l-1-1q-9 0-12 3t-3 14l-2 93q0 32 8 45t35 13q11 0 23-5t14-5q5 0 5 7t-17 17-37 11q-68 0-68-59v-7l2-117q0-5-2-6t-8-2m303-15l2 30q0 9-2 12t-6 3-8-8-9-15-17-16-27-7-24 7-10 16 2 13 5 10 6 6 10 6 9 4 11 5q46 16 59 31t13 44-27 52q-18 16-49 16-22 0-48-11-8-3-9-3t-4-1-4-2-3-1-3-2-2-2q-1-2-1-8v-43q0-6 2-10t6-3 6 2 3 9 3 10q19 46 52 46 16 0 30-8t14-26-12-29-28-17-33-13-28-20-11-33q0-28 22-45t50-17 41 4 16 8 3 6m212 200l-41 2q-11 0-11-8 0-7 15-7 6-1 13-9t10-20 6-89 4-120-10-62-42-26q-7-2-7-8 0-7 9-7l27 2 37-1q10 0 12 7 6 13 22 46t24 54 24 51 24 50 18 39 15 29 7 9 3-2 4-4 3-6 3-8 4-7l64-133q27-54 36-76l11-25q2-4 2-6t2-4 1-2 1-4 3-5q4-4 15-4l43 1q8 0 8 6 0 5-3 7t-15 4-16 13-5 60 3 104 3 69q0 50 8 63t34 14q3 0 6 3t3 4q0 8-6 8h-5l-51-2t-52 3q-9 0-9-7 0-8 13-9 5-1 11-7t8-16 2-30-1-41-1-44-2-40-2-31l-1-12q0-21-4-21-2 0-3 1t-2 3-2 3-2 4-3 4-2 5l-3 5q-2 4-3 6l-69 141q-12 24-24 48t-13 26-6 4-6-5-9-18-11-24q-91-186-93-189t-4-3q-4 0-4 20l-4 132v23q0 41 16 50 9 5 17 6 12 1 12 6t-1 7-6 2l-52-2m502 4l-36-1-35 1q-20 0-20-7t7-9q1 0 2-1 12-4 15-12t4-77v-44q0-15-4-23t-6-11-11-3-10-3-3-4 1-4 5-3 8-3q14-4 23-8t13-6 7-3q3-2 8-2 8 0 8 10l-3 24v137q0 15 4 23t10 11 13 2 9 1q7 1 7 7 0 8-9 8l-7 0m-44-270q-10 0-18-10t-7-18 9-17 16-11 16 10 7 19-9 17-14 10m116 208v-37l2-213q0-11-4-21t-8-11-20-2q-5 0-5-3t0-5 4-3 6-2q14-3 30-11 24-11 32-11 6 0 6 9 0 2-1 12-3 29-3 64v28l-1 67v149q0 10 1 17t12 13 27 6q3 0 5 3t2 5q0 7-16 7l-50-4q-13 0-25 2t-16 2-6-2-2-4 2-5 8-2q15-4 18-13t3-22l-1-13m140 0v-37l2-213q0-11-4-21t-8-11-20-2q-6 0-6-3t1-5 3-3 6-2q15-3 30-11 25-11 32-11 6 0 6 9 0 2-1 12-3 29-3 64v28l-1 67v149q0 10 2 17t11 13 28 6q2 0 4 3t2 5q0 7-15 7l-51-4q-13 0-25 2t-15 2-6-2-2-4 2-5 7-2q15-4 18-13t3-22l0-13m484-126l55 2 40 0h8q8 0 8 4 0 4-13 9t-14 14q-4 22-4 46t1 37 0 16 1 8 1 6-4 3-12 3-16 7-10 6-10 5-11 6-14 6-15 6-17 5q-19 4-36 4-54 0-95-15t-62-39q-43-50-43-119 0-54 22-98t67-70 107-27q59 0 103 23 10 5 15 9t6 4 7-4 7-4q8 0 8 12t2 29 3 26 2 13q0 8-6 8t-9-6q-17-38-58-64t-85-26q-62 0-103 39t-41 109q0 46 17 86t52 67 76 27 73-18 35-40q2-12 2-63 0-19-8-27t-22-9-18-5-1-6q0-5 9-5m256 194q-51 0-81-33t-30-78 31-80 82-34 86 30 35 82-36 82-87 31m-5-211q-26 0-47 20t-20 68 28 77 59 31 51-22 20-64-24-76-67-34m195 124l0-90q0-10-5-16t-10-6h-9q-9 0-9-7t10-9 24-2l28-3q9 0 10 4t2 17-2 38-1 54q0 44 17 62t39 19q32 0 46-14t15-47l-1-69q0-25-4-34t-17-10-13-7q0-11 44-11l18-3q7 0 9 3t3 7-1 12 0 19-1 27q-1 30-1 67t3 48 11 11l13 0q12 0 12 6t-3 7-14 2-30 2-22 3q-3 0-6-13t-3-12-9 8-26 16-37 8q-80 0-80-87m438 79l-2-18q0-9-4-9-2 0-8 5t-13 11-22 12-30 5q-47 0-73-31t-26-77 32-82 90-36q13 0 34 7t23 7 2-18l1-64q0-27-3-38t-8-15-15-3h-6q-7 0-9-1t-1-3v-1q0-3 5-5t20-7 24-8 13-6q10-5 14-5 6 0 6 10 0 1-4 42t-3 66l-1 183q0 34 3 45t15 15q1 1 8 2t10 3 3 6q0 6-38 9-8 0-19 2t-13 3q-5 0-5-6m-72-206q-33 0-51 24t-19 61 23 69 60 32q23 0 41-12t19-28l0-85q0-31-14-39-37-22-59-22m256 300h-2l-21 0q-10 0-10-6 0-2 11-16t23-34 12-37-29-77-49-102q-6-10-12-15t-9-6q-8-1-8-8t10-6l54 1 28-1q4 0 6 1t3 4q0 9-12 9h-7q-8 0-8 13 0 15 26 72 4 8 12 27 15 34 18 34t23-58 21-68-5-16-11-4q-15 1-15-9 0-6 9-6l36 1 31-1q11 0 11 7 0 5-9 7t-12 6q-8 12-27 63l-44 119q-6 14-11 29t-9 25-7 19-6 15-4 10q-4 8-7 8" />
</svg>