<svg id="fnt-Source Sans 3" viewBox="0 0 2886 1000" xmlns="http://www.w3.org/2000/svg"><path id="source-sans-3" class="f" d="M136 673q-35 0-64-14t-51-35l24-27q17 18 41 29t51 10q32 0 50-15t18-38q0-17-7-27t-20-17-27-14l-47-21q-16-7-32-17t-25-27-10-40q0-25 13-45t37-31 53-11 55 11 42 28l-22 27q-16-13-34-22t-41-8q-27 0-44 13t-17 35q0 16 8 26t21 16 26 13l46 20q20 8 35 19t24 28 9 40q0 26-14 47t-38 34-60 13m267 0q-30 0-56-15t-41-44-16-68q0-41 16-70t41-43 56-15q30 0 55 15t41 43 16 70q0 40-16 68t-41 44-55 15m0-34q21 0 37-12t24-33 9-48q0-28-9-50t-24-33-37-11-37 11-25 33-8 50q0 27 8 48t25 33 37 12m247 34q-38 0-56-25t-18-70v-154h41v148q0 34 11 49t35 16q18 0 33-10t32-31v-172h41v243h-34l-3-38h-2q-16 20-36 32t-44 12m242-6h-41v-243h34l4 44h1q12-23 30-37t39-13q8 0 14 1t12 4l-9 35q-5-2-10-3t-12 0q-16 0-33 12t-29 44v156m229 6q-32 0-58-15t-41-44-15-68q0-41 16-70t43-43 58-15q24 0 41 8t30 20l-21 26q-9-9-21-15t-28-5q-21 0-39 12t-27 33-10 49q0 27 10 48t26 33 40 12q17 0 31-7t25-16l18 25q-15 14-35 23t-43 9m230 0q-32 0-59-16t-42-43-16-69q0-39 16-68t41-44 53-15q31 0 53 14t33 40 11 60q0 6-1 12t-1 12h-175v-32h140q0-35-16-54t-43-19q-17 0-33 9t-26 30-10 55q0 31 10 52t30 31 40 11q18 0 33-5t28-13l15 27q-16 11-36 18t-45 7m345 0q-35 0-64-14t-51-35l23-27q18 18 42 29t50 10q33 0 51-15t18-38q0-17-8-27t-19-17-28-14l-47-21q-16-7-31-17t-25-27-10-40q0-25 13-45t36-31 54-11 55 11 42 28l-23 27q-15-13-34-22t-40-8q-28 0-45 13t-16 35q0 16 8 26t20 16 26 13l47 20q19 8 34 19t24 28 9 40q0 26-13 47t-39 34-59 13m228 0q-20 0-37-9t-25-23-10-37q0-41 36-62t114-30q0-15-5-29t-15-22-30-9q-21 0-40 8t-33 17l-16-28q11-7 26-15t33-12 37-4q29 0 48 12t27 35 9 53v149h-34l-3-29h-2q-17 14-37 24t-43 11m11-34q18 0 34-8t33-24v-65q-41 5-65 12t-34 20-10 27q0 20 12 29t30 9m226 28h-41v-243h34l3 35h2q17-18 37-30t44-11q39 0 56 24t18 71v154h-41v-149q0-34-11-50t-35-15q-18 0-33 10t-33 28v176m296 6q-27 0-51-10t-40-25l19-24q16 13 33 20t40 7q24 0 36-12t12-26q0-13-8-21t-21-14-26-11q-18-6-34-15t-27-22-10-33q0-30 22-50t62-19q22 0 42 7t33 20l-19 24q-13-9-26-14t-30-5q-23 0-34 10t-11 25q0 11 7 18t18 13 27 10q19 7 36 16t28 22 11 36q0 20-11 36t-30 27-48 10m323 0q-26 0-46-7t-34-16-25-22l21-27q14 15 33 26t48 12q29 0 48-16t18-43q0-19-10-33t-32-22-60-8v-32q34 0 54-8t28-21 9-30q0-24-15-37t-40-14q-20 0-37 9t-31 24l-22-26q18-18 41-29t50-11 50 9 33 28 13 44q0 29-16 47t-42 29v2q19 4 35 15t24 27 10 39q0 28-14 48t-38 32-53 11" />
</svg>