<svg id="fnt-Space Grotesk" viewBox="0 0 3482 1000" xmlns="http://www.w3.org/2000/svg"><path id="space-grotesk" class="f" d="M157 674q-38 0-68-14t-48-41-17-68v-10h42v10q0 44 25 65t66 21q41 0 62-18t22-47q0-19-10-31t-27-19-41-12l-26-7q-31-8-54-19t-37-31-13-48 14-51 42-33 62-11q35 0 63 12t45 36 16 60v21h-41v-21q0-26-11-41t-30-23-42-8q-35 0-56 15t-21 44q0 18 9 30t26 18 39 13l26 7q31 6 55 17t39 31 14 50-15 54-44 36-66 13m231 93h-40v-345h39v41h7q9-19 30-33t60-15q31 0 57 15t42 44 16 67v7q0 39-15 67t-42 44-58 15q-26 0-44-7t-28-17-17-22h-7v139m85-128q38 0 62-25t24-67v-5q0-43-24-68t-62-24q-37 0-62 24t-24 68v5q0 43 24 67t62 25m272 35q-25 0-46-9t-33-26-12-42q0-25 12-41t33-25 47-8h82v-18q0-26-15-41t-45-15q-30 0-46 14t-23 39l-37-12q6-21 19-38t35-27 52-10q47 0 73 24t26 69v110q0 15 14 15h23v34h-35q-16 0-26-10t-10-24v-3h-6q-6 10-15 20t-25 17-42 7m5-34q35 0 56-21t22-58v-6h-81q-23 0-39 10t-15 31 16 32 41 12m313 34q-35 0-64-16t-44-43-16-68v-5q0-40 16-68t44-44 64-15q35 0 60 13t39 35 18 46l-38 8q-3-18-12-33t-26-24-40-9q-25 0-44 11t-31 31-11 49v5q0 28 11 49t31 31 44 11q36 0 55-19t24-47l39 9q-5 24-20 45t-39 35-60 13m299 0q-37 0-65-16t-44-44-15-66v-6q0-38 15-67t43-44 63-16q35 0 61 15t42 42 15 65v18h-200q2 39 26 61t60 23q31 0 48-15t26-34l34 16q-7 16-21 31t-34 26-54 11m-84-152h159q-2-34-24-53t-54-19q-33 0-55 19t-26 53m517 152q-39 0-69-17t-47-47-16-78v-80q0-70 37-106t99-36q62 0 95 34t32 91v2h-41v-3q0-25-9-45t-28-31-49-11q-44 0-69 27t-25 77v82q0 49 25 76t70 27q44 0 64-25t21-66v-9h-106v-36h147v167h-38v-38h-7q-5 11-15 21t-27 17-44 7m249-7h-40v-245h39v30h7q6-16 20-23t35-8h29v36h-31q-27 0-43 15t-16 46v149m253 7q-37 0-66-16t-44-44-15-66v-7q0-38 15-66t44-44 66-16 65 16 44 44 16 66v7q0 38-16 66t-44 44-65 16m0-36q39 0 62-25t23-66v-5q0-42-23-67t-62-24q-39 0-62 24t-24 67v5q0 42 24 66t62 25m341 29h-65q-21 0-33-12t-11-31v-167h-73v-35h73v-87h40v87h80v35h-80v161q0 15 14 15h55v34m178 7q-37 0-65-16t-44-44-15-66v-6q0-38 15-67t43-44 63-16q35 0 61 15t42 42 15 65v18h-200q2 39 26 61t60 23q31 0 48-15t26-34l34 16q-7 16-21 31t-34 26-54 11m-84-152h159q-2-34-24-53t-54-19q-33 0-55 19t-26 53m366 152q-45 0-77-21t-37-67l37-8q4 24 15 37t27 20 35 6q28 0 44-11t16-30q0-19-16-27t-41-12l-21-4q-23-4-43-12t-31-23-11-37q0-33 25-51t68-19q41 0 67 19t33 53l-37 9q-4-26-21-37t-42-11-40 9-14 28q0 17 13 25t37 13l21 3q26 5 46 12t33 23 13 38q0 36-27 55t-72 20m205-7h-40v-350h40v206h7l112-101h55l-136 119 140 126h-55l-116-107h-7v107" />
</svg>