<svg id="fnt-Space Mono" viewBox="0 0 3033 1000" xmlns="http://www.w3.org/2000/svg"><path id="space-mono" class="f" d="M236 436v-18q0-17-7-30t-18-22-27-13-31-4q-15 0-28 3t-23 11-16 17-6 24v3q0 15 6 25t17 17 30 12 41 9q55 8 81 32t26 64v6q0 22-8 41t-23 32-38 21-52 8q-33 0-59-10t-43-27-26-41-9-50v-15h42v12q0 46 25 69t70 23q39 0 59-18t20-45v-3q0-28-21-42t-65-21q-27-4-48-11t-36-19-23-28-8-39v-6q0-21 8-38t24-29 36-20 47-6q30 0 53 8t39 23 24 33 9 41v21h-42m144 193v138h-39v-348h39v39h6q13-23 36-35t50-11q23 0 43 8t36 25 25 39 10 54v10q0 30-9 54t-25 39-37 24-44 9q-12 0-25-3t-24-9-20-14-16-19h-6m83 8q18 0 33-7t26-17 17-28 7-37v-10q0-20-7-37t-17-28-27-18-32-6-33 6-26 19-18 29-6 37v6q0 20 6 37t18 29 26 18 33 7m373-9v-3h-6q-12 25-34 37t-44 12q-25 0-46-9t-37-24-24-40-9-54v-8q0-31 9-54t24-40 37-25 45-8q25 0 46 11t33 35h6v-39h39v197q0 15 13 15h13v36h-27q-17 0-28-11t-10-28m-80 9q17 0 32-7t25-18 17-29 6-37v-6q0-20-6-37t-17-29-26-19-31-6q-18 0-32 6t-26 18-16 29-6 37v8q0 42 22 66t58 24m399-67l39 9q-4 20-14 38t-25 30-35 20-44 7q-26 0-50-9t-40-25-28-39-10-54v-6q0-30 10-54t28-41 40-25 50-9q23 0 43 7t35 19 25 31 14 38l-39 9q-2-13-8-26t-15-21-24-15-32-5q-18 0-34 6t-28 19-19 30-6 37v6q0 21 6 37t19 29 28 17 35 7 32-6 23-15 16-21 8-25m341-15h-200q2 37 23 59t60 23q18 0 31-4t22-11 15-17 9-19l37 10q-10 34-39 56t-76 22q-26 0-49-10t-38-26-25-40-9-52v-12q0-26 9-49t26-39 39-25 48-9q31 0 53 11t36 28 21 36 7 36v32m-117-106q-16 0-31 5t-25 15-17 22-9 28h160q-1-16-8-29t-17-22-25-14-28-5m480 218v-350h80l47 332h6l47-332h80v350h-39v-332h-6l-47 332h-76l-47-332h-6v332h-39m561-127v6q0 31-11 54t-27 40-40 25-47 9q-25 0-47-9t-40-25-27-40-10-54v-6q0-31 10-55t27-40 40-25 47-8 47 8 40 25 27 40 11 55m-125 97q18 0 33-7t27-18 18-29 7-37v-6q0-20-7-37t-18-29-27-19-33-6-33 6-27 19-18 29-6 37v6q0 21 6 37t18 29 27 18 33 7m236-99v129h-39v-248h39v42h6q23-49 80-49 43 0 68 26t26 81v148h-39v-140q0-39-18-59t-47-19q-36 0-56 24t-20 65m501 2v6q0 31-11 54t-27 40-40 25-47 9q-25 0-47-9t-40-25-27-40-10-54v-6q0-31 10-55t27-40 40-25 47-8 47 8 40 25 27 40 11 55m-125 97q18 0 33-7t27-18 18-29 7-37v-6q0-20-7-37t-18-29-27-19-33-6-33 6-27 19-18 29-6 37v6q0 21 6 37t18 29 27 18 33 7" />
</svg>