<svg id="fnt-Special Elite" viewBox="0 0 3485 1000" xmlns="http://www.w3.org/2000/svg"><path id="special-elite" class="f" d="M273 545q0 12-1 24t-3 25q-1-2-3-3t-5-1q-2 0-5 1t-2 5q0 3 2 4t6 1q3 0 4-1 0 3-2 6t-4 6-5 6-4 4q-2 2-3 5t-4 5-4 4-5 2q-2 0-4-1t-3-2q-3 0-4 3t0 6v3q0 1-5 3t-13 4-14 5-13 4q-10 4-21 7t-21 3q-8 0-15-2t-15-5-15-5-16-2q-3 0-8 1t-8 3q-1 1-2 4t-3 2q-1 0-3-1t-4-1q-5-3-9-8t-7-10-4-12-1-12q0-4 1-8t1-8q0-6-2-12t-1-11q0-5 1-9t2-8q0-3-2-6t-1-6q0-2 1-4t2-3q0-3 0-6t0-6q0-1 0-4t0-6 2-4 3-2q5 0 9 5t9 13 6 15 2 11q0 1-1 2t-2 1q1 2 2 5t1 6q0 3-1 5t0 6q0 2 1 5t2 4q2 3 3 4t4 2 3 1 6 1q5 7 11 13t13 11q11 2 22 4t22 1q9 0 15-2t13-5 11-7 11-9q4-3 9-5t9-6 8-6 7-8q1-3 5-6t3-7q0-2 0-2-1-8-2-16t0-15q-1-7-4-11t-6-6-9-5-9-7q-5-5-10-6t-12-2-12 0-11-5q-2-1-3-1-2 0-4 1t-5 2q-3 0-7-1t-8-2-7-3-7-1q-5-1-8-1t-6-1-5-2-8-5q-12-8-27-12-2-7-7-14-2-1-5-3t-5-4q-1-2-4-8t-4-13-4-13-2-9q0-6 2-11t5-9q1 0 2-1t1-2-2-2-2-3q0 0 1-1t0-1q2-5 5-10t8-9 9-8 9-7q3-3 6-6t5-5q1 0 3 0t4 0q2 0 3 0t4 0q2-1 3-2t2-3 3-2 6 0q2 0 5 0t5 0q10 0 19 0t18-1q7 0 13 0t13 1q5 1 9 2t9 2q4 0 6-2t3-4 2-3 5-2q6 0 11 3t10 4l0 1q-1 2-1 5 0 4 2 8t3 8 2 8 2 8q0 3-1 5t0 5q0 5 2 7t2 4q0 2-2 3t-2 4q0 7 1 13t1 12q0 3 0 7t-1 9-3 7-5 3q-4 0-7-3t-6-5q-3-4-5-8t-2-8-2-9-4-8q-4-5-7-11t-7-12q-3-4-5-6t-4-2-5-1-7 0q-4-1-9-2t-8-3-9-3-9-1q-7 0-14 2t-15 6-14 7-14 6q-6 13-6 27 0 11 2 18t7 12 10 8 12 8q6 4 12 5t14 2q4 0 8 0t8-1q5 0 9 1t8 3 8 3 9 1q4 0 8 0t7-1q4 0 6 2t6 4 5 3 7 2q4 3 8 5t5 4 5 5 5 8q3 5 8 8t7 8q1 2 1 4t1 5 1 3 4 2q0 3 0 6t0 5m295 3q0 10-3 20t-3 21q-1 3-1 6t0 5-2 5-4 5q-3 4-4 8t-3 8q-1 4-3 6t-4 3-4 3-5 4q-1 2-2 4t0 3-2 3-3 2q-4 2-5 4t-5 5-7 5-9 5-9 3-9 1q-5 0-9-1t-9-1q-3 0-4 1t-3 2-2 2-3 1q-4 0-12-4t-17-7-17-7-13-4q-4 0-6 3t-4 7-2 9-1 10 0 7 0 3q0 3-1 3t-2 1q-1 0-2 0t-2 0q0 2 1 6t3 7 3 8 2 6q2 8 3 12t5 4 7 1 12 1q3 0 7 1t6 3 5 5 2 6q0 8-5 12t-12 3q-10 0-20-1t-20-2q-11 0-21 1t-21 2q-3 0-8-1t-9-3-9-5-3-5q0-3 2-5t6-3 7-3 5 0q5 0 8-2t8-3 7-2 8-2q2-9 3-18t0-19q0-6 0-13t0-13q0-13 2-26t2-26q0-8-1-16t-1-16q-1-1-2-6t-1-12-2-13 0-8q0-3 1-5t2-3 1-3 1-2q0-1-1-2t-1-4-2-5 0-5q0-8 1-16t2-15q0-11-7-19-4-3-6-5t-5-3-5-1-8-1q-2-1-7-2t-10-3-8-5-3-6q0-4 4-7t9-5 10-2 9-1q3 0 7 0t6 3q2-2 6-3t8-1q10 0 16 3t9 7 5 7 5 3q2 0 4-1t4-1q5-3 15-6t22-7 22-6 16-2q3 0 8 2t11 3 12 5 13 6 9 5 6 5q3 5 6 8t8 5q1 2 2 4t0 5v4q0 5 2 8t3 4 4 4 2 4q0 2-1 3t-1 3q0 4 2 8t3 8 4 10 2 11m-112-104q0-1-1-3t-3-1q-2 0-3 3t-1 4q0 0 1 0 0 0 0 0l-1 0q2 0 5 0t3-3m83 111q0-7-2-14t-5-13-7-13-7-12q-1-1-1-3t0-4-1-4-1-3q-2-2-4-2t-3-1-4-1-3-5q-1-2-6-5t-8-5-10-4-7-1q-4 0-9 2t-10 2q-3 0-6-1t-5-3-6-2-5-2h-2q1 3 1 4 0 2-1 4t-3 2-3 2-3 2q-2 2-3 5t-2 3q-2 0-3-1 0 2-1 3t-2 1-2 1-2 2q-3 0-6 4t-4 9-4 12-2 13-2 11 0 8q0 9 1 18t1 17q0 7 0 13t-1 14q6 6 11 13t12 12 14 8 18 4q4 0 7 1t8 2 8 2 8 1q3 0 7-2t9-4 7-5 6-6q2-2 5-3t5-3q1-1 2-3t1-3 1-4 3-2q4-3 6-4t1-4v-5q0-2 1-3t3-2 2-3 2-6q0-4-1-7t0-6 1-6 2-5 3-5 1-5m300 61q0 6-2 11t-6 8-7 7-9 7q-3 3-6 4t-5 3-6 2-6 2q-5 3-8 5t-7 4-7 2-10 2q-10 1-20 3t-19 2q-2 0-4-1t-5-2-6-1-8-1q-5 0-8-2t-5-3-5-4-6-4q-15-7-25-16t-18-21-12-25-8-28q-3-10-3-21 0-13 7-24-3-7-3-14 0-4 3-13t7-19 9-17 9-9q4-1 5-2t1-5q0-2 3-4t5-4 7-2 6-2q9-4 17-7t16-5 17-3 19-1q5 0 10 1t10 4 10 5 9 5h-1q4 1 7 3t7 2q4 4 9 8t11 8 9 8 4 11q0 1 0 2t-1 2l1-1q1 1 2 3t2 3 1 5 1 3q2 3 5 5t5 5q-2 3-2 7 0 4 1 8t2 8q0 5 0 9t-1 10q0 4-3 6t-6 3-6 3-2 4q0 2-3 2t-4 0q-10 0-21-3t-21-3q-11 0-23 2t-22 2q-9 0-17-1t-17 0q-3 0-9 0t-12 3-13 3-9 3q0 2 0 4 0 11 7 23t17 23 25 16 28 7q8 0 16 0t15 4q7-3 12-7t11-9 10-10 10-9q1-1 5-2t8-2 8-1 6 0q5 0 10 2 2 5 2 11m-37-99q0-4-1-8t-2-7q-1-6-1-13t-2-13h-1q0 1-1 3t-2 1q-3 0-6-1t-5-4q-9-4-16-8t-15-6-16-5-19-1q-1 0-2 0t-2 1l1 2-2 1q-6 1-10 2t-8 3-7 5-8 7q-3 2-5 4t-6 1-5 2-5 3q-1 7-5 12t-3 12q0 4 3 7t8 5 10 3 12 2 10 1 7 1q10 0 19-2t18-2q10 0 19 1t19 1q3 0 8 0t9-2 8-3 4-5m311 99q0 3-2 4t-4 2q-2 1-4 3t-3 4-3 5-3 5q-3 5-9 7t-12 4-10 5-6 10h-2q-5 0-10 2t-9 4-10 4-10 2q-3 0-6-1t-5-2-5-2-6-1q-4 0-7 1t-8 0q-2 0-6-1t-7-2-5-3-2-6q0-1 0-2-1 1-3 1t-3 1q-7 0-13-3t-12-9-10-10-10-10q-5-6-8-13t-7-14q-9-14-11-29t-2-30q0-3 0-7t2-5q1-2 2-2t3-1 2-2 1-2q0-3-1-6t-2-6q0-3 1-5t2-3q2-3 4-11t3-15 5-13 7-6q4 0 7 1t6 1q3 0 6 0l0-2q0-3-2-4t-4-1-4-1-1-2q0-2 1-3t3-2 4-1 3-2q2-2 3-3t2-4 3-3 5-2q4-1 7-1t7 0 7-1 7-1l-3-2q1-2 3-4t5-2 6-1 5 0q9 0 17 2t16 3q3 0 7-1t6-1q5 0 10 2t9 5l1 0q2 0 3-1t3-2q1 0 2 1t2 2q2 2 5 3t4 2q2 3 4 5t5 1 4 1 5 2v7q5 6 9 10t8 7 5 8 2 16q0 10-2 18t-7 14-12 8-18 3l-16 0q-2-4-6-9t-7-12-7-12-3-8q0-4 1-8t1-7q-2-5-5-8t-6-4-8-2-9-1q-6 0-13 1t-12 3q0-2-1-4t-3-1q-4 0-9 2t-10 6-9 8-6 7q-2 2-5 8t-6 10-7 9-6 4q1 4 2 9t2 13 2 12 0 9q0 5 2 10t2 11q0 4-1 8t-1 8q0 4 1 5t5 2q4 1 5 4t3 6 3 6 5 2h2l3 0q2 3 3 8t4 9q1 0 2-1t1-3 1-2 4-1q3 0 5 1t3 4 3 3 4 2q4 0 9-2t10-4 11-4 9-3q10-3 19-9t14-15q3-5 7-9t6-9q2 0 4 0t6-1q0 0 2 0t3 1 3 0 2 2q0 2-2 3t-3 3-4 2-1 4l2 0q3 0 8 1t10 4 8 6 4 6m-18 14q0-1-1-3t-2-1q-2 0-3 3t-2 3q0 1 2 1t2 0q2 0 3 0t1-3m204-270q0 7-2 15t-7 13-10 11-14 4q-5 0-13-2t-14-4-12-8-5-12q0-6 1-12t2-13q2-1 4-4t5-6 5-6 5-3l-2 0q4-1 8-2t7-1q5 0 13 2t13 7 12 10 4 11m118 297q0 5-1 8t-5 7-6 4-8 2q-2 0-2-1t-2-1q-3-4-8-5t-10-1-10-2-8-9q-2-4-4-5t-7-2q-11 0-21 4t-19 8-19 7-21 4q-6 0-11-1t-11-4q-2 1-3 2t-4 0q-1 0-3 0t-3 0q0 0-2 1t-3 1l1 2q-1 2-7 4t-11 4-11 2-9 1q-8 0-13-2t-9-9q-2-3-5-5t-5-5-4-5-1-7q0-3 4-6t9-4 11-2 8 0q6 0 12 1t12 2q5 0 10-2t10-1q5 0 9 0t9 1q6 0 12-2t10-6q2-12 3-24t1-24q0-12-2-24t-2-23q0-1 0-1t1-1 2 0 0-2q0-5-1-10t-2-10q0-6 2-12t1-13q0-4-1-9t-6-7-7-6-9-2q-5 0-10 1t-10 3-11 3-12 1q-7 0-14-1t-14-2q-3-1-7-1t-8-2-7-4-3-7q0-8 3-13t8-6 10-3 11-1q9-1 18-1t19-1q11 0 22 1t23 2q8 0 15 2t13 8 9 12 3 18q0 6-3 13t-7 11q2 3 3 4t3 2 3 2 1 5q0 2 1 5t3 2q0 14 0 26t-1 26q0 11 0 22t2 22q1 7 4 11t11 3q11 0 21-2t22-2q6 0 12 3t11 7 10 6 10 4q2 0 3 1t2 3 0 4 0 3m281-33q0 4-1 8t-3 7q-1 4-1 6t-1 4-3 3-5 3q-7 4-15 8t-17 4q-7 0-13-4t-11-7-10-7-7-4q-3 0-6 2t-4 4-5 3-7 2q-4 0-7 1t-8 3-7 3-7 3q-11 3-22 3t-23 1q-3 0-9-1t-12-1-11-3-5-7q0-1 1-2-2 2-4 3t-5 2q-4 0-10-6t-11-12-8-14-4-11q0-2 2-5t1-4q0-4-1-7t-1-6q0-5 2-10t4-10 5-10 5-8q3-5 7-8t9-5 10-5 9-6q3 4 9 4 6 0 12-1t12-2q5 0 10 1t9 1q5 0 8-2t6-4 10-6 13-3 13-2 11-3 9-7 3-11q0-8-5-16t-11-16-16-12-16-5q-1 0-2 1t-2 0q-6 1-13 1t-14 2-11 6-4 13q0 5 1 10t1 9q0 8-4 13t-9 7-12 4-13 1q-7 0-12-1t-9-10q-3-5-6-11t-3-12q0-6 2-12t6-11 5-11 4-12q2-1 5-2t7-2 7-2 5-1q6-2 11-4t12-5 11-3 12-2l8 0q10 0 21 2t22 5 19 10 17 14q6 6 9 13t6 17 3 18 0 16q0 11 0 21t-1 20q0 9 1 19t3 19 2 20 2 19q0 6 1 7t2 1q6 0 9-3t6-7 6-8 8-3q2 0 5 0t4 1 3 3 1 4m-80-61q0-1 0-5t-1-7-1-7-4-3q0 0-1 0t-1 1q-9 5-16 8t-13 5-14 3-18 1q-2 0-8 1t-15 3-14 3-9 2q-3 1-4 3t-2 2-2 3-3 4q-2 2-5 3t-5 4q-4 3-7 9t-3 12q0 6 3 11t9 9 13 6 14 5 14 2 12 1q6 0 14-1t16-3 15-5 11-8q2-2 3-4t1-3 2-3 4-4q5-4 8-10t5-12 2-12 0-14m351 91q0 8-5 14t-14 7-17 3-15 1q-8 0-13-1t-9-3-7-3-6-2q-4 0-8 2t-8 1q-3 0-5-1t-3-2-2-3-3-1q-2 0-3 2t-2 3-3 3-7 1q-5 0-10-1t-10-1-10 2-10 2q-2 0-3-2t-2-1q-4 0-8 2t-10 2q-2 0-4-1t-5 0q-4 0-8 2t-11 2q-2 0-9-1t-16-2-14-3-6-4q0-6 2-13t3-12v0q-3 0-4-4 1-1 2-1t2-1 2-1 1-3v-1q10 1 19 2t20 0q10 0 21-1t22-3 16-9 7-17v-2-4q-1-26-3-52t-1-53q0-7-1-14t-1-14q0-8 3-17t10-14q-1-2-2-2t-2-1-3-1-2 0q-2-1-2-4t-1-6-1-6-1-5q0-7 2-13t2-14q0-5-2-8t-3-5-3-4-1-4q0-2 1-4l-2 0q-2 0-3 1t-3 3-2 3-3 1q-2 0-4-1-5 2-8 2-9 0-17-3t-17-2q-5 0-9 0t-9 1q-6 0-13-2t-11-6v-3q0-13 9-20t21-6q8 0 17 2t17 2q4 0 9-1t11-2 11-2 11-1q8 0 15 3t15 7l0 2q0 2 1 4t2 4 3 3 1 4-1 5 0 4q0 5 2 10t2 11q0 6-1 11t-2 12q0 7 2 14t2 14q0 6-2 11t-2 12q0 4 1 8t3 8 2 8 1 8v5q0 4 0 7t-4 7q2 5 3 10t1 10q0 3 0 6t-1 5-3 5-3 4q3 10 4 19t2 19q0 3 1 8t1 9 1 8 1 5q0 5-2 8t-1 8q0 4 1 7t6 4q3 0 5-2t4-3 6-2 9-2q6 0 12 2t12 2q5 0 9-1t10-2 9-2 9-1q10 0 17 5t6 17m-140-304q-1-1-2-2t-3-1q-1 0-2 1t-1 2l1 3q1 1 2 1 2 0 3-1t2-3m15 68q0-2-1-4t-4-2q0 0-1 0t-2 0v11q2 1 3 1 3 0 4-2t1-4m567 5q0 1-1 4t-3 6-3 7-3 4l0 0q0 0-1 0h-1q-1 0-2 0t-2 0l1 0q-6 0-10-2t-8-7q0-1-1-4t-2-5-2-6 0-3q0-2 0-5t0-4q0-7-1-15t-2-14q0-5 2-10t4-9h-1q-3 0-5-1t-5-2q-10 0-19 2t-18 2q-4 0-8 0t-8 0q-8 0-15 2t-14 1q-1 0-1 0 0 0 2-1t2-2q0-1-2-1t-2 0q-2 0-3 2t-4 3q-4 1-8 1t-8 0q-3 0-7 0t-10-1-8-3-4-5q-3 1-4 2t-1 4-2 4-5 2q-7 0-9 4t-2 9q0 2 1 5t0 5q0 10-1 20t0 19q0 4 0 11t1 14 3 12 5 6q2 1 4 1t4 0q9 0 17-2t17-2q3 0 6 1t6 1q5 0 7-5t4-10 1-12 1-9q0-6-1-12t0-13h1q7 0 12 2t11 2q3 0 4 0 0 5 2 10t1 10q0 6-7 8 2 3 4 7t1 7q0 3-1 5t0 5q0 3 1 4t2 3q0 3-2 8t-3 9q0 5 1 11t3 12 2 13 1 13q0 4-1 8t-1 8-4 7-6 5q-5 0-8-3t-5-5-3-8-2-8q-1-6-1-11t-2-10-9-6-20-2q-4 0-11 1t-14 3-13 5-5 8q0 3 1 6t0 6q0 2 0 5t0 5q0 6 0 13t1 13q0 7-2 14t-2 14q0 8 4 12t10 7 13 3 12 1q12 0 24-2t23-1q8 0 15 1t14 0q6 0 13 0t13-2 11-6 5-11q1-2 2-3t2-1 3-2 1-2q0-2-2-5t-2-4q-1-5-1-10t0-9q0-7 2-13t3-12q0-2-1-4t0-3q0-2 3-3t5-3 5-2 5 0q6 0 10 4t6 10 3 13 0 11q0 8-1 17t-3 20-5 19-5 17q-2 3-3 5t-3 3-3 2-4 3q-2 3-8 3t-11 1q-5 0-9 0t-7-1q-8 0-13 2t-9 2q-3 0-4-1t-3-1q-2 0-3 1t-5 2-6 0-6-1q-18 0-36 2t-37 1q-12 1-24 3t-25 2q-4 0-10 0t-11-3-8-6-3-10q0-5 3-10t10-9 11-8 10-7q-1-1-1-3t0-4q0-3 1-7t1-7q0-2 3-5t2-6q0-1-1-3t-1-3q-3-7-4-12t-1-12q0-5 0-8t1-6 1-7 2-7q-1-2-2-5t-1-6l3-34q0-1 0-3 0-2 1-4t0-5q0-5-2-11t-2-11q0-2 1-5t3-5 2-7 1-9q0-3-2-5t-2-6q0-3 2-6t1-6q0-5-2-10t-3-8q-3-6-5-10t-4-6-6-4-10-1q-4-1-7-2t-5-5-4-7-2-6q0-4 4-8t10-4 14-3 15-2 13-1 9-1q5 0 10-1t9 0q10 0 19 1t20 0q10 0 20-2t20-2q9 0 18 3t18 2q9 0 17-2t17-3q3 0 7 1 5 6 10 10t8 8 5 9 3 14q0 4 0 8t0 9 2 8 3 4q0 3-3 3 0 4 1 7t3 7 2 7 1 7m-212 60q-1 0-2 1t-2 2q9 5 15 10t8 8 5 3 3-3q2-5-1-8t-7-7-10-4-9-2m507 171q0 8-6 14t-14 7-17 3-14 1q-9 0-14-1t-9-3-7-3-6-2q-4 0-8 2t-8 1q-3 0-5-1t-3-2-2-3-3-1q-2 0-3 2t-2 3-3 3-7 1q-5 0-10-1t-10-1-10 2-10 2q-2 0-3-2t-2-1q-4 0-8 2t-10 2q-2 0-4-1t-5 0q-4 0-8 2t-11 2q-2 0-9-1t-16-2-14-3-6-4q0-6 3-13t2-12v0q-3 0-4-4 1-1 2-1t2-1 2-1 1-3v-1q10 1 19 2t20 0q10 0 21-1t22-3 16-9 7-17v-2-4q-1-26-3-52t-1-53q0-7-1-14t-1-14q0-8 3-17t10-14q-1-2-2-2t-2-1-3-1-2 0q-2-1-2-4t-1-6-1-6-1-5q0-7 2-13t2-14q0-5-2-8t-3-5-3-4-1-4q0-2 1-4l-2 0q-2 0-3 1t-3 3-2 3-3 1q-2 0-4-1-4 2-8 2-9 0-17-3t-17-2q-5 0-9 0t-9 1q-6 0-13-2t-11-6v-3q0-13 9-20t21-6q9 0 17 2t17 2q4 0 9-1t11-2 11-2 11-1q8 0 15 3t15 7l0 2q0 2 1 4t2 4 3 3 1 4-1 5 0 4q0 5 2 10t2 11q0 6-1 11t-2 12q0 7 2 14t2 14q0 6-2 11t-2 12q0 4 1 8t3 8 2 8 1 8v5q0 4 0 7t-4 7q2 5 3 10t1 10q0 3 0 6t-1 5-3 5-3 4q3 10 4 19t2 19q0 3 1 8t1 9 1 8 1 5q0 5-1 8t-2 8q0 4 2 7t5 4q3 0 5-2t4-3 6-2 9-2q6 0 12 2t12 2q5 0 9-1t10-2 9-2 9-1q10 0 17 5t7 17m-141-304q-1-1-2-2t-3-1q-1 0-2 1t-1 2l1 3q1 1 2 1 2 0 3-1t2-3m15 68q0-2-1-4t-4-2q0 0-1 0t-1 0v11q1 1 2 1 3 0 4-2t1-4m293-58q0 7-3 15t-6 13-11 11-14 4q-5 0-13-2t-14-4-12-8-5-12q0-6 1-12t2-13q2-1 5-4t4-6 5-6 5-3l-1 0q3-1 7-2t8-1q5 0 12 2t14 7 11 10 5 11m118 297q0 5-2 8t-4 7-7 4-8 2q-1 0-2-1t-2-1q-3-4-8-5t-10-1-10-2-8-9q-2-4-4-5t-7-2q-11 0-20 4t-20 8-19 7-20 4q-6 0-12-1t-11-4q-1 1-3 2t-3 0q-2 0-4 0t-3 0q0 0-2 1t-3 1l1 2q-1 2-6 4t-11 4-12 2-9 1q-7 0-12-2t-10-9q-2-3-5-5t-4-5-4-5-2-7q0-3 4-6t9-4 11-2 8 0q6 0 12 1t12 2q5 0 10-2t10-1q5 0 9 0t10 1q5 0 11-2t10-6q2-12 3-24t1-24q0-12-2-24t-2-23q0-1 1-1t1-1 1 0 0-2q0-5-1-10t-2-10q0-6 2-12t2-13q0-4-2-9t-5-7-8-6-8-2q-6 0-11 1t-10 3-11 3-11 1q-8 0-14-1t-14-2q-4-1-8-1t-8-2-7-4-2-7q0-8 3-13t7-6 10-3 11-1q9-1 19-1t18-1q11 0 23 1t22 2q8 0 15 2t13 8 9 12 3 18q0 6-3 13t-7 11q2 3 4 4t3 2 2 2 1 5q0 2 1 5t3 2q0 14 0 26t0 26q0 11 0 22t2 22q0 7 3 11t11 3q11 0 22-2t21-2q7 0 12 3t11 7 11 6 9 4q2 0 3 1t2 3 1 4 0 3m230-77q0 8-1 15t-4 13-5 14-3 14q-2 13-9 21t-16 12-21 8-23 3-23 2-22 1q-3-2-6-5t-5-6-4-5-7-2q-2 0-3-4t-1-9-2-9-2-4q-6 0-9-2t-5-7-3-8 0-9q0-3-2-6t-3-6-3-6-2-6q0-4 1-9t0-11 1-12 1-9q0-5 1-8t2-5 3-4 1-4q0-2-1-4t-2-4q0-3 2-6t2-5q3-11 3-21 0-2 0-4t0-4q-6-5-13-6t-14-2-13-2-11-5q-3-3-6-8t-8-5q-3-2-6-4t-2-6q0-6 4-9t8-4 10-4 9-4 9-2q2 0 4 0t4 0q6 0 10-2t7-6 3-8 1-10q0-8-1-15t-1-15q0-9 2-17t10-14q1-1 3-3t3-4 5-3 4-1q1 0 2 1t3 1q5 6 7 8t1 6q0 2 0 4t0 6q0 8 2 16t2 13q0 4-2 9t-2 8q0 4 2 7t3 5 4 6 2 6q2 2 11 3t19 2 21 2 18 0q6 0 10 1t6 2 4 3 5 1q4 1 7 2t2 6q0 6-3 10t-7 5-10 2-9 0q-7 0-14 0t-15-1q-11 0-21 2t-16 8-11 13-4 21q0 13 2 25t1 24q0 12 1 19t2 12q4 7 6 16t5 17 8 14 16 5q4 0 10-1t12-3 11-5 4-8q0-4-2-9t-3-9q0-3 2-6t4-5 5-3 6-3q4-6 11-9t13-4q5 0 9 2t9 4q0 4 0 9m262 36q0 6-2 11t-5 8-8 7-9 7q-3 3-6 4t-5 3-5 2-7 2q-5 3-8 5t-6 4-8 2-9 2q-10 1-20 3t-20 2q-2 0-4-1t-5-2-6-1-7-1q-5 0-8-2t-6-3-4-4-7-4q-14-7-25-16t-17-21-12-25-9-28q-2-10-2-21 0-13 6-24-2-7-2-14 0-4 2-13t7-19 10-17 9-9q3-1 5-2t1-5q0-2 2-4t6-4 7-2 5-2q9-4 17-7t17-5 17-3 18-1q6 0 11 1t10 4 9 5 9 5h0q4 1 7 3t7 2q3 4 9 8t11 8 9 8 3 11q0 1 0 2t0 2l1-1q1 1 2 3t1 3 1 5 1 3q2 3 5 5t6 5q-3 3-3 7 0 4 2 8t2 8q0 5-1 9t0 10q0 4-3 6t-6 3-6 3-3 4q0 2-2 2t-4 0q-11 0-21-3t-21-3q-12 0-23 2t-23 2q-8 0-17-1t-17 0q-2 0-8 0t-13 3-13 3-8 3q-1 2-1 4 0 11 7 23t18 23 25 16 27 7q8 0 16 0t16 4q6-3 12-7t10-9 10-10 10-9q1-1 5-2t8-2 9-1 5 0q6 0 11 2 1 5 1 11m-36-99q0-4-2-8t-2-7q-1-6-1-13t-2-13h0q0 1-1 3t-3 1q-3 0-5-1t-5-4q-9-4-17-8t-15-6-15-5-20-1q-1 0-2 0t-1 1l1 2-2 1q-7 1-11 2t-8 3-6 5-9 7q-2 2-5 4t-6 1-5 2-4 3q-2 7-5 12t-4 12q0 4 4 7t7 5 11 3 11 2 11 1 7 1q9 0 18-2t19-2q9 0 19 1t19 1q2 0 7 0t10-2 8-3 4-5" />
</svg>