<svg id="fnt-Spirax" viewBox="0 0 1342 1000" xmlns="http://www.w3.org/2000/svg"><path id="spirax" class="f" d="M90 495q-28-9-42-28t-13-52q0-46 35-74t71-28 64 16 28 45q0 17-11 26t-25 9-24-9-8-15 2-7 5 3 4 7q4 11 17 11t21-7 8-18q0-22-25-36t-55-14-58 19-27 48q0 19 13 32t31 18 45 13 44 15q54 24 54 86 0 32-12 56t-30 36q-35 24-71 24-33 0-68-20-17-10-28-28t-11-43 13-35 23-11 18 4 8 10-3 6-4-2-2-3q-3-5-16-5t-21 10-7 28q0 36 30 57t66 22q48 0 76-32 17-20 17-50t-21-46-58-24-53-14m204-60h50v29q44-33 78-33 29 0 57 24 15 12 25 37t9 60q0 57-27 88t-72 32q-28 0-48-12t-22-33v165h-50v-357m169 110q0-44-18-73t-40-29-61 32v137q1-12 8-22 12-16 23-16 4 0 4 5 0 2-9 8-17 12-17 31t18 31 37 13q55 0 55-117m100-109h50v231h-50v-231m6-48q-8-7-8-18t8-19 19-8 18 8 8 19-8 18-18 8-19-8m272 66q0 6-5 9t-10 3-11-4-5-8-6-9-14-3q-22 0-41 32t-22 72v121h-50v-232h50v59q12-29 31-48t39-19 31 6 13 21m97 218q-36 0-64-21t-28-56q0-21 10-36t27-23q29-15 57-15t64 15q-1-58-15-78t-42-19-49 11-21 28q0 6-5 6t-5-6q0-21 23-35t69-13q95 0 95 112v125h-50v-40q-4 20-23 32t-43 13m44-94q18 13 22 35v-68q-36-15-59-15t-36 19-13 47 11 46 32 20 39-12 16-26q0-27-18-37-7-5-7-9t3-4 10 4m352 41l3-12q4 0 4 6 0 22-18 39t-36 17-35-10-25-29l-31-61q-36 24-56 47t-21 51h-10q0-33 20-56t63-51l-29-56q-26-51-43-51-18 0-26 31-3 11-4 12-4 0-4-6t4-18 19-25 32-13 35 12 28 36l28 55q36-23 55-48t20-54h10q0 35-18 59t-62 52l43 86q10 18 27 18 11 0 17-10t10-21" />
</svg>