<svg id="fnt-Spline Sans Mono" viewBox="0 0 4770 1000" xmlns="http://www.w3.org/2000/svg"><path id="spline-sans-mono" class="f" d="M152 672q-38 0-67-12t-46-38-17-65h46q1 27 13 43t31 23 42 7q25 0 42-8t26-20 8-27q0-20-10-33t-30-21-47-18q-29-9-53-24t-39-35-14-50q0-32 16-54t42-32 58-11q48 0 78 26t36 76h-45q-2-17-10-31t-22-21-38-8q-32 0-51 14t-19 39q0 17 7 30t24 22 47 21q22 8 43 17t37 20 26 29 10 42q0 31-16 53t-43 34-65 12m239 95h-47v-373h46l1 37v174l-4 13 4 49v100m83-378q30 0 51 15t34 45 12 74q0 45-16 78t-41 51-56 18q-14 0-30-7t-26-19-15-28l-14-7 16-18q4 14 13 23t22 12 24 4q21 0 38-13t27-36 10-59q0-44-16-69t-49-24q-12 0-26 5t-25 17-16 28l-3-17 2-9q3-18 15-33t30-23 39-8m319 281q-27 0-46-8t-28-25-10-47v-245q0-11 5-18t13-8h-98v-41h129l-1 305q0 26 10 35t33 9q23 0 39-4t30-10v44q-14 6-34 10t-42 3m299-10h-45v-193q0-12 4-21t18-10l-22-8-2-21 47-13 0 266m81 7h-215v-38h215v38m-92-231h-131v-42h142l-11 42m-14-90q-15 0-26-11t-10-27q0-17 10-27t26-11 26 11 11 27q0 17-11 27t-26 11m228 321h-47v-274h40l5 99-5-16q6-43 29-65t60-23q38 0 58 25t20 70v184h-46v-169q0-35-12-50t-36-16q-22 0-39 12t-27 33v190m364 3q-34 0-62-16t-44-48-16-77q0-44 15-76t42-48 62-17q50 0 80 34t30 93q0 8 0 13t-1 11h-183q1 31 12 51t28 30 37 10q25 0 39-10t19-31h44q-3 26-16 44t-35 28-51 9m-77-148q2-10 9-14t18-4h110q0-37-16-56t-47-19q-36 0-55 25t-19 68m670 150q-38 0-67-12t-46-38-17-65h46q1 27 13 43t31 23 42 7q25 0 42-8t26-20 8-27q0-20-10-33t-30-21-47-18q-29-9-53-24t-39-35-14-50q0-32 16-54t42-32 58-11q48 0 78 26t36 76h-45q-2-17-10-31t-22-21-38-8q-32 0-51 14t-19 39q0 17 7 30t24 22 47 21q22 8 43 17t37 20 26 29 10 42q0 31-16 53t-43 34-65 12m272-2q-39 0-61-21t-23-56q0-30 20-49t61-28q16-3 32-5t31-3 28-2v-21q0-31-14-44t-44-13q-31 0-47 13t-15 44h-43q-3-29 9-51t37-33 59-12q51 0 77 25t26 73v180h-45l0-60q-5 19-18 33t-31 22-39 8m13-37q17 0 33-6t28-17 14-23v-53q-9 1-21 2t-23 4-21 3q-32 7-45 18t-13 30q0 19 13 31t35 11m258 34h-47v-274h40l5 99-5-16q6-43 29-65t60-23q38 0 58 25t20 70v184h-46v-169q0-35-12-50t-36-16q-22 0-39 12t-27 33v190m358 4q-19 0-38-4t-35-14-27-25-12-40h48q3 23 22 34t43 10q28 0 44-7t17-31q0-13-8-21t-23-14-36-11q-17-4-35-9t-31-15-22-23-8-37q0-22 12-39t34-27 55-9q26 0 48 8t36 25 16 46h-47q-1-12-7-21t-17-15-29-5q-17 0-29 4t-20 11-7 22q0 13 8 21t24 14 33 10q17 4 34 10t33 14 23 23 10 35q-1 36-27 58t-82 22m511-4h-42l7-364h67l40 148 14 63h1l14-63 39-148h67l8 364h-43l-4-144 2-183h-3l-21 82-44 148h-30l-46-148-21-82h-3l2 183-4 144m386 3q-35 0-62-16t-42-48-15-77q0-44 16-76t43-48 60-17q36 0 63 17t41 48 15 76q0 46-16 77t-43 48-60 16m0-41q32 0 52-24t20-76q0-49-20-74t-52-26q-32 0-52 26t-19 74q0 49 19 75t52 25m245 38h-47v-274h40l5 99-5-16q6-43 29-65t60-23q38 0 58 25t20 70v184h-46v-169q0-35-12-50t-36-16q-22 0-39 12t-27 33v190m355 3q-35 0-62-16t-42-48-15-77q0-44 16-76t43-48 60-17q36 0 63 17t41 48 15 76q0 46-16 77t-43 48-60 16m0-41q32 0 52-24t20-76q0-49-20-74t-52-26q-32 0-52 26t-19 74q0 49 19 75t52 25" />
</svg>