<svg id="fnt-Spline Sans" viewBox="0 0 2583 1000" xmlns="http://www.w3.org/2000/svg"><path id="spline-sans" class="f" d="M146 672q-38 0-67-13t-44-37-17-63h46q0 24 11 40t30 23 44 7q27 0 43-7t25-19 8-27q0-18-11-30t-30-22-48-19q-30-11-53-25t-37-36-13-49q0-48 31-73t84-25q35 0 58 12t36 33 17 55h-46q-3-17-10-30t-21-20-37-7q-31 0-49 13t-17 40q0 15 6 27t23 22 48 23q22 9 43 17t37 21 26 28 9 42q1 47-31 73t-94 26m301-2q-26 0-43-10t-23-21-10-21l-14-2 17-13q3 6 10 12t20 12 31 5q31 0 51-25t21-80q0-48-19-73t-48-24q-20 0-34 6t-21 15-11 17v-18q1-8 5-19t14-20 24-16 36-6q32 0 54 16t35 48 13 71q0 37-10 65t-25 45-34 27-39 9m-72 97h-47v-373h46l0 37v172l-3 15 3 49 1 100m291-100h-47v-389h47v389m131 0h-46v-272h47l-1 272m-23-315q-13 0-23-10t-10-24q0-15 10-25t23-9q14 0 23 9t10 25q0 15-10 24t-23 10m154 315h-46v-273h39l5 103-4-21q3-24 13-44t29-32 48-12q38 0 59 24t21 69v186h-46v-171q0-23-5-37t-17-21-29-6q-22 0-39 12t-28 34v189m348 3q-37 0-65-16t-44-48-15-77q0-44 16-76t44-48 64-17q35 0 60 16t40 43 13 68q0 8 0 13t-1 11h-190q2 45 23 69t53 23q28 0 43-12t19-30h46q-2 26-16 44t-37 28-53 9m-53-166h119q0-35-17-55t-51-20q-36 0-55 25t-21 68q2-10 8-14t17-4m420 168q-38 0-67-13t-45-37-16-63h45q1 24 12 40t29 23 44 7q28 0 44-7t25-19 7-27q0-18-10-30t-30-22-48-19q-30-11-54-25t-36-36-13-49q0-48 31-73t83-25q36 0 59 12t36 33 16 55h-46q-2-17-9-30t-21-20-37-7q-31 0-49 13t-17 40q0 15 6 27t23 22 48 23q22 9 43 17t37 21 26 28 9 42q1 47-31 73t-94 26m256-2q-26 0-45-10t-29-27-10-39q0-22 9-37t25-25 40-15q15-4 33-6t33-3 27-2v-15q0-33-13-47t-43-15q-18 0-32 5t-21 18-7 37h-44q-3-33 10-56t37-33 60-11q19 0 37 4t31 16 22 29 8 47v182h-45l0-60q-6 29-28 46t-55 17m11-37q18 0 33-7t26-17 13-22v-53q-14 1-32 4t-31 5q-27 7-40 17t-13 30q0 12 5 22t15 15 24 6m243 34h-47v-273h40l5 103-5-21q3-24 14-44t29-32 48-12q38 0 59 24t21 69v186h-47v-171q0-23-5-37t-16-21-30-6q-22 0-39 12t-27 34v189m325 4q-28 0-51-9t-38-27-16-47h46q4 25 19 34t40 10q16 0 29-4t21-12 8-22q0-11-5-18t-13-11-20-8-25-7q-25-7-46-16t-33-26-13-44q0-33 25-54t67-21q27 0 48 8t34 26 17 47h-46q-3-14-9-23t-18-14-26-5q-13 0-23 4t-17 11-6 21q0 14 7 22t21 14 33 11q14 5 30 10t31 13 23 21 9 35q0 38-28 60t-75 21" />
</svg>