<svg id="fnt-Squada One" viewBox="0 0 2132 1000" xmlns="http://www.w3.org/2000/svg"><path id="squada-one" class="f" d="M205 404v24h-67v-25q0-4-3-7t-6-3h-28q-4 0-7 3t-2 7v57q0 4 2 7t7 3h45q62 1 62 66v70q0 66-62 66h-59q-62 0-62-66v-34h67v36q0 4 2 7t7 3h31q4 0 7-3t3-7v-63q0-4-3-7t-7-3h-45q-62 0-62-66v-65q0-66 62-66h56q62 0 62 66m119 268h-10q-62 0-62-66v-122q0-66 62-66h10q36 0 52 23v-18h56v323h-67v-86q-15 12-41 12m41-58v-138q0-4-3-7t-6-3h-28q-4 0-7 3t-2 7v138q0 4 2 7t7 3h28q4 0 6-3t3-7m226 0v-191h67v244h-61v-13q-15 18-47 18h-10q-62 0-62-66v-183h67v191q0 4 2 7t7 3h28q4 0 6-3t3-7m237-173v-18h56v244h-56v-18q-16 23-52 23h-10q-62 0-62-66v-122q0-66 62-66h10q36 0 52 23m-11 173v-138q0-4-3-7t-6-3h-28q-4 0-7 3t-2 7v138q0 4 2 7t7 3h28q4 0 6-3t3-7m175-196h10q26 0 41 12v-87h67v324h-56v-18q-16 23-52 23h-10q-62 0-62-66v-122q0-66 62-66m51 196v-138q0-4-3-7t-6-3h-28q-4 0-7 3t-2 7v138q0 4 2 7t7 3h28q4 0 6-3t3-7m237-173v-18h56v244h-56v-18q-16 23-52 23h-10q-62 0-62-66v-122q0-66 62-66h10q36 0 52 23m-11 173v-138q0-4-3-7t-6-3h-28q-4 0-7 3t-2 7v138q0 4 2 7t7 3h28q4 0 6-3t3-7m407-210v202q0 66-62 66h-67q-62 0-62-66v-202q0-66 62-66h67q62 0 62 66m-70 210v-218q0-4-3-7t-7-3h-31q-4 0-7 3t-3 7v218q0 4 3 7t7 3h31q4 0 7-3t3-7m186-138v191h-67v-244h61v12q15-17 47-17h10q62 0 62 66v183h-67v-191q0-4-3-7t-6-3h-28q-4 0-7 3t-2 7m221-58h56q62 0 62 66v79h-113v51q0 4 2 7t7 3h28q4 0 6-3t3-7v-27h67v19q0 66-62 66h-56q-62 0-62-66v-122q0-66 62-66m5 56v45h46v-45q0-4-3-7t-6-3h-28q-4 0-7 3t-2 7" />
</svg>