<svg id="fnt-Sriracha" viewBox="0 0 1865 1000" xmlns="http://www.w3.org/2000/svg"><path id="sriracha" class="f" d="M244 403q-3-8-20-14t-43-6q-30 0-46 16t-17 42q0 15 11 23t35 19l18 7 15 7q27 12 43 22t27 27 11 43q0 29-19 49t-52 32-78 11q-33 0-62-11t-46-25-16-31q0-14 12-24t36-12q2 14 17 26t33 18 34 7q27 0 47-11t21-29q0-15-15-26t-44-22l-26-12q-33-16-52-36t-19-53q0-36 21-59t49-33 58-10q44 0 73 12t42 29 13 36q0 10-6 25t-15 26-25 11q-25 0-25-26 1-8 5-26t5-22m138 245q0 3-2 11t-9 13-21 3q-16 0-24-3t-7-15l24-96q20-82 26-105l-12-15q-2-1-2-3 0-5 11-9t31-3q17 0 23 10t8 25l-4 13q16-19 37-32t38-13q22 0 34 8t12 19q0 11-8 22t-18 19-21 9q-10 0-14-3t-3-7l3-17q-40 11-73 53l-29 116m205-278q0-16 9-28t28-12q18 0 32 12t14 26-14 25-33 10q-18 0-27-9t-9-24m52 88q-26 108-40 163-2 8-2 17l0 14q0 9-5 12t-22 4q-17 0-25-3t-9-15q0-6 13-59t35-138l-12-15q-1-1-1-3 0-5 11-9t30-3q17 0 22 10t5 25m86 190q0 3-2 11t-9 13-21 3q-16 0-24-3t-7-15l24-96q20-82 26-105l-12-15q-2-1-2-3 0-5 11-9t31-3q17 0 23 10t8 25l-4 13q16-19 37-32t38-13q22 0 34 8t12 19q0 11-8 22t-18 19-21 9q-10 0-14-3t-3-7l3-17q-40 11-73 53l-29 116m338-7q1 13 4 23-1 3-9 6t-13 3q-18 0-26-5t-8-16q0-10 2-20-11 15-32 25t-34 10q-34 0-56-20t-22-62q0-41 19-77t53-57 76-22q8 0 21 4t26 15 22 26q4 0 10 4t5 8q0 5-1 9l-37 146m-22-140q-3-11-12-19t-16-7q-23 0-43 16t-33 40-12 46q0 21 5 34t19 14q13 0 29-8t29-20 17-27l17-69m300 107q-6 16-23 32t-45 27-59 10q-49 0-72-20t-24-53q0-47 24-87t65-64 86-23q29 0 47 16t19 46q0 11-9 18t-24 7q-12 0-16-5t-4-15l0-11q0-6-6-10t-14-4q-16 0-42 19t-46 48-20 65q0 14 11 22t33 7q13 0 31-5t22-14q17-31 31-31 20 0 27 7t8 18m108-106q12-23 32-39t41-24 35-9q26 0 37 10t12 31q-30 77-39 166l7 24q-6 12-16 18t-31 7q-12 0-17-8t-6-20q0-33 10-74t23-82q5-16 5-16 0-7-8-7-11 0-31 15t-41 52-36 97q-1 2-3 10t-9 12-21 3q-18 0-27-4t-10-14q66-258 81-322 0-7-1-18t0-16q2-7 11-11t19-4q16 0 27 9t12 21l-56 193m377 139q1 13 3 23-1 3-9 6t-13 3q-18 0-26-5t-7-16q0-10 2-20-11 15-33 25t-34 10q-33 0-56-20t-22-62q0-41 19-77t54-57 75-22q8 0 21 4t26 15 23 26q4 0 9 4t6 8q0 5-2 9l-36 146m-23-140q-3-11-12-19t-15-7q-23 0-44 16t-32 40-13 46q0 21 5 34t20 14q12 0 28-8t29-20 17-27l17-69" />
</svg>