<svg id="fnt-Srisakdi" viewBox="0 0 1722 1000" xmlns="http://www.w3.org/2000/svg"><path id="srisakdi" class="f" d="M154 509q-32 0-51-18t-18-47q0-34 18-65t48-49 65-18q15 0 26 3t31 9q17 7 29 10t28 3q33 0 66-17-15 15-34 24t-40 8q-14 0-26-3t-30-10q-18-6-30-9t-24-3q-28 0-53 16t-40 43-14 53q0 25 15 40t45 15q31 0 58-21-24 36-69 36m87-79q41 0 65 18t23 53q0 46-28 84t-74 62q14 19 24 42-15-24-29-40-49 23-104 23-42 0-75-10t-46-24q-3-9-3-19 0-29 22-47t57-18q44 0 81 22t65 58q41-20 65-54t25-76q0-31-20-46t-56-15q-21 0-39 7t-36 23q27-43 83-43m-120 227q47 0 91-19-30-32-66-51t-76-18q-26 0-42 19t-15 50q12 9 40 14t68 5m250 13q-4 0-6-3t0-6l50-204q1-1 1-4 0-4-5-4-5 0-15 5t-27 16q17-18 33-29t27-11q8 0 8 7 0 5-2 13l-9 39q44-62 89-62 15 0 23 6t8 18-6 22-17 10q-8 0-10-8 6-1 10-6t4-12q0-14-18-14-20 0-44 20t-48 60l-34 138q-1 4-5 6t-7 3m258-301q-8 0-13-5t-5-12q0-11 9-19t20-8q8 0 13 5t5 12q0 11-9 19t-20 8m-71 301q-8 0-8-8 0-5 2-12l48-194q1-1 1-4 0-4-5-4-11 0-42 21 16-18 32-29t28-11q4 0 6 1t2 5-2 14l-48 193q-1 2-1 4 0 4 5 4 11 0 42-20-16 17-33 28t-27 12m191-108q-29 0-47-15t-17-39q0-23 12-42t33-29 44-10q26 0 44 12t25 34q-24-31-65-31-34 0-55 18t-20 48q0 22 18 35t56 15q-15 4-28 4m-30 110q-33 0-53-12t-20-31q0-18 14-32t35-14q14 0 22 7t8 18q0 8-4 16-6-27-28-27-13 0-21 9t-8 20q0 15 16 23t42 8q39 0 62-21t23-54q0-45-74-50 15-4 28-4 29 0 46 14t18 40q0 27-14 47t-38 32-54 11m320-30q-1 2-1 4 0 4 5 4 5 0 15-5t27-15q-17 18-33 29t-27 11q-4 0-6-2t-2-6q0-4 2-12l10-41q-17 28-44 45t-49 18q-17 0-30-10t-22-29q-5-18-5-36 0-44 18-83t51-63 74-24q44 0 79 40-42-25-82-25-35 0-63 23t-44 60-15 77q0 18 2 35 9 10 17 15t20 5q25 0 54-24t48-62l23-91q1-4 4-7t7-2 6 2 1 7l-40 162m291-215q15 0 24 6t8 18q0 13-10 22t-25 11q7-6 12-14t6-16q0-12-18-12-14 0-25 8t-33 31l-51 55q13 50 35 102t62 118q-47-58-74-108t-38-96l-47 52-15 57q-1 4-4 6t-7 3-6-3-1-6l87-346q0-1 0-4 0-4-4-4-11 0-42 21 16-18 32-29t28-11q4 0 6 1t2 5-2 14l-67 268 94-103q23-26 39-36t34-10m277-119l-84 334q0 2 0 4 0 4 4 4 12 0 42-20-16 17-32 28t-28 12q-4 0-6-2t-1-6q0-4 1-12l10-41q-17 27-44 45t-50 18q-18 0-30-10t-22-29q-5-18-5-36 0-44 17-84t47-63 63-23q18 0 30 6t20 19q-24-10-50-10-31 0-56 24t-40 61-14 75q0 18 3 35 9 10 17 15t20 5q16 0 35-11t37-30 32-45l64-256q0-1 0-4 0-4-4-4-11 0-42 21 16-18 32-29t28-11q8 0 8 7 0 5-2 13m85 61q-8 0-13-5t-5-12q0-11 9-19t20-8q8 0 13 5t5 12q0 11-9 19t-20 8m-71 301q-8 0-8-8 0-5 2-12l49-194q0-1 0-4 0-4-4-4-11 0-43 21 17-18 33-29t27-11q5 0 7 1t2 5-3 14l-48 193q0 2 0 4 0 4 4 4 11 0 42-20-16 17-32 28t-28 12" />
</svg>