<svg id="fnt-Staatliches" viewBox="0 0 2190 1000" xmlns="http://www.w3.org/2000/svg"><path id="staatliches" class="f" d="M105 672q-27 0-49-14t-36-37-13-50v-23q0-2 3-2h56q2 0 2 2v23q0 17 11 28t26 12 27-12 11-28q0-18-24-32-8-4-25-14t-32-18q-28-16-41-40t-13-55q0-28 13-50t36-35 48-13q27 0 49 13t35 35 14 50v41q0 2-2 2h-56q-2 0-2-2l-1-41q0-17-11-28t-26-11q-15 0-26 11t-11 28q0 17 7 28t25 21q3 1 10 5t16 8 15 9 8 4q25 14 40 34t14 50q0 29-13 51t-36 36-49 14m237-5h-56q-2 0-2-3v-285h-65q-3 0-3-2l1-56q0-2 2-2h190q2 0 2 2v56q0 2-2 2h-65l0 285q0 3-2 3m59-3l62-343q0-2 2-2h73q2 0 2 2l60 343q0 3-2 3h-56q-2 0-2-3l-6-36h-68l-5 36q-1 3-3 3h-55q-2 0-2-3m98-230l-23 140h48l-20-140-3-19-2 19m116 230l62-343q1-2 3-2h72q2 0 3 2l59 343q1 3-2 3h-55q-2 0-3-3l-5-36h-68l-6 36q0 3-2 3h-56q-2 0-2-3m98-230l-22 140h48l-21-140-3-19-2 19m215 233h-56q-2 0-2-3v-285h-65q-3 0-3-2l1-56q0-2 2-2h190q2 0 2 2v56q0 2-2 2h-65l0 285q0 3-2 3m267 0h-161q-2 0-2-3l0-343q0-2 3-2h55q3 0 3 2l-1 284h103q3 0 3 3v56q0 3-3 3m94 0h-56q-3 0-3-3l1-343q0-2 2-2h56q2 0 2 2l0 343q0 3-2 3m138 5q-27 0-50-14t-35-37-13-51l1-156q0-28 12-51t35-36 50-14 50 14 35 36 13 51v23q0 2-2 2h-56q-2 0-2-2v-23q0-17-11-29t-27-12q-18 0-27 12t-10 29v156q0 18 11 30t26 11q16 0 27-13t11-28v-23q0-2 2-2h56q2 0 2 2v23q0 28-13 51t-35 37-50 14m193-5h-56q-2 0-2-3l0-343q0-2 3-2h55q3 0 3 2l-1 136h75v-136q0-2 2-2h56q2 0 2 2l1 343q0 3-2 3h-56q-3 0-3-3v-147h-75v147q0 3-2 3m343 0h-162q-2 0-2-3l1-343q0-2 2-2h160q2 0 2 2v56q0 2-2 2h-102v78h102q2 0 2 2l1 57q0 2-2 2h-103v87h103q2 0 2 3v57q0 2-2 2m128 5q-27 0-49-14t-36-37-13-50v-23q0-2 3-2h56q2 0 2 2v23q0 17 11 28t26 12 27-12 11-28q0-18-24-32-8-4-25-14t-32-18q-28-16-41-40t-13-55q0-28 13-50t36-35 48-13q27 0 49 13t35 35 14 50v41q0 2-2 2h-56q-2 0-2-2l-1-41q0-17-11-28t-26-11q-15 0-26 11t-11 28q0 17 7 28t25 21q3 1 10 5t16 8 15 9 8 4q25 14 40 34t14 50q0 29-13 51t-36 36-49 14" />
</svg>