<svg id="fnt-Stalemate" viewBox="0 0 1126 1000" xmlns="http://www.w3.org/2000/svg"><path id="stalemate" class="f" d="M129 685q-4 0-8-2t-7-3-4-4-1-4q0-2 1-5t3-4 3-4 2-1q2 0 2 0t0 2 1 3 1 2q3 1 7 2t12 1q11 0 21-3t18-10 11-14 5-17q0-13-8-21t-21-12-30-8-34-6-34-9-30-15-21-25-8-37q0-25 10-48t28-42 40-35 47-27 49-17 46-6q35 0 53 12t18 37q0 11-5 21t-12 18-12 13-7 7l-1-2q0-1 4-5t9-11 9-15 4-17q0-20-17-30t-47-9q-33 0-60 7t-51 20-41 29-31 34-18 34-7 32q0 19 8 31t21 20 30 11 35 8 34 6 30 9 21 15 8 25q0 14-4 25t-12 18-16 12-17 8-16 4-11 2m195-72l2 1q-2 5-5 13t-10 16-15 14-21 5q-11-1-18-6t-11-17-6-28-2-41q0-23 1-41t3-33q-11 1-20 1t-12 0q-7 0-14-1t-13-4-11-6-8-10l1-2q0 0 2 2t7 4 15 3 24 2h30q4-22 8-33t6-14q2-4 6-7t6-3q5 0 8 10t4 30q0 4-1 8t0 8q12 0 22 0t19-1 15 0 7-1q1 0 4 0t4 0q4 0 4 2 0 3-2 6t-9 4q-1 0-7 0t-15 0-20 1-23 1q-2 21-9 45t-18 53q1 16 3 27t5 17 8 9 12 3q7 0 13-3t11-7 9-9 6-9 4-6 1-3m-54-117q-5 0-9 0t-8 0q0 14-1 29t0 28v27q7-22 12-43t6-41m-16-11q4 0 8-1t9 0v-8q0-12-1-20t-2-11-2-6-2-1q-2 0-3 4t-3 10-2 14-2 19m148 97q-2 0-4-2t-5-6-7-5-12-3q-10 0-19 5t-15 13-10 18-4 18q0 12 7 21t18 8q8 0 15-3t10-9q-1-6-1-16 0-11 2-17t3-11 5-5 4-1q2 0 5 3t2 9q0 9-3 18t-8 18q3 8 9 11t14 4q7 0 13-3t11-9 10-12 8-13l2 1q-3 9-8 18t-11 15-14 11-15 4q-7 0-14-4t-12-14q-7 9-17 15t-21 6q-6 0-11-3t-9-8-6-12-1-13q0-13 5-25t15-23 21-16 24-6q10 0 16 2t11 5 5 5 2 5q0 3-3 5t-7 1m-20 33q0 8 1 14 4-7 5-14t2-13q0-6-2-6t-4 5-2 14m152-2l1 1q0 1-3 9t-9 16-14 15-18 7q-13 0-23-10t-18-28-12-44-4-58q0-18 1-37t4-39 7-35 10-30 13-21 16-8q14 0 20 17t6 50q0 20-3 45t-10 51q-9 32-19 55t-18 37q3 10 6 17t8 14 9 9 11 3q7 0 13-4t12-11 8-12 6-9m-85-109q0 10 1 22t1 24 3 24 5 24q5-11 12-28t13-38 11-46 5-51q0-16-1-30t-4-24-7-15-9-6q-6 0-10 7t-7 19-6 27-4 31-2 32-1 28m147 42q3 1 3 4 0 1 0 3t-2 3-2 3-1 1q-2 0-3-1t-5-2-9-2-13-1q-12 0-20 4t-7 13q0 5 4 9t12 6 13 3 10 1q3 0 4 1t1 2q0 2-2 2t-4 1q-6 2-13 6t-12 7-9 11-3 12q0 11 9 18t25 7q18 0 30-5t20-13 13-15 6-11l2 1q-5 12-11 22t-16 18-21 11-28 5q-9 0-17-3t-14-6-9-10-4-14q0-9 5-16t9-11 11-6 7-4q-7-1-13-4-5-3-9-7t-4-13q0-8 3-14t10-11 15-6 17-2q5 0 11 0t11 3m44-4q2-2 4-2 4 0 7 5t2 16q0 4 0 10t0 14 0 16 0 15 0 12 0 7q0 5 2 5 1 0 2-3t4-8 4-11 5-12q5-10 8-18t7-15 7-9 9-4q7 0 10 7t3 21q0 6 0 14t0 17 0 13 0 8q0 3 0 3t2-3 3-6 3-10 5-11q4-12 7-20t6-15 6-9 7-3q1 0 3 0t5 2 4 4 2 7q0 3 0 11t1 17 1 17 1 13q0 6 2 9t4 5 3 3 2 2q0 1-3 2t-6 2q-10 0-13-6t-5-16-1-24-2-30q0-3-1-4t-2-1q-2 0-4 4t-4 10-6 14-5 14q-1 4-4 11t-5 14-6 11-6 5q-4 0-6-3t-2-8 0-16 0-23v-27q0-7-2-9t-3-1q-3 0-5 2t-4 9q-2 2-4 8t-5 12-6 14-6 14-6 12-3 7q-3 4-5 5t-5 2q-2 0-3-1t-3-2-2-5-1-8v-83q0-5-1-7t-3-3-4 0-1-1 2-3 4-2 4-2 2-1m247 40q-2 0-4-2t-4-6-8-5-12-3q-10 0-19 5t-15 13-10 18-3 18q0 12 6 21t18 8q8 0 15-3t11-9q-2-6-2-16 0-11 2-17t4-11 5-5 4-1q2 0 4 3t3 9q0 9-3 18t-9 18q3 8 9 11t14 4q7 0 13-3t11-9 10-12 9-13l1 1q-3 9-8 18t-11 15-14 11-15 4q-6 0-13-4t-12-14q-8 9-18 15t-21 6q-6 0-11-3t-9-8-5-12-2-13q0-13 5-25t15-23 21-16 25-6q9 0 16 2t10 5 6 5 1 5q0 3-3 5t-7 1m-20 33q0 8 1 14 4-7 6-14t1-13q0-6-2-6t-4 5-2 14m149-2l1 1q-1 5-5 13t-10 16-15 14-21 5q-10-1-17-6t-12-17-6-28-2-41q0-23 1-41t3-33q-11 1-19 1t-12 0q-7 0-14-1t-13-4-11-6-9-10l1-2q0 0 2 2t8 4 14 3 24 2h31q4-22 8-33t5-14q2-4 6-7t6-3q6 0 9 10t3 30q0 4 0 8t-1 8q12 0 23 0t19-1 14 0 7-1q2 0 5 0t3 0q4 0 4 2 0 3-2 6t-8 4q-1 0-7 0t-15 0-21 1-23 1q-2 21-8 45t-18 53q1 16 3 27t5 17 8 9 11 3q7 0 13-3t11-7 9-9 6-9 4-6 2-3m-55-117q-4 0-8 0t-8 0q-1 14-1 29t-1 28v27q7-22 12-43t6-41m-15-11q4 0 8-1t8 0v-8q0-12-1-20t-1-11-2-6-2-1q-2 0-4 4t-2 10-2 14-2 19m132 61q3 1 3 4 0 1-1 3t-1 3-2 3-2 1q-1 0-2-1t-5-2-9-2-13-1q-12 0-20 4t-7 13q0 5 4 9t12 6 13 3 10 1q3 0 4 1t1 2q0 2-2 2t-4 1q-6 2-13 6t-12 7-9 11-3 12q0 11 8 18t25 7q19 0 31-5t20-13 12-15 7-11l2 1q-5 12-11 22t-16 18-21 11-28 5q-9 0-18-3t-13-6-9-10-4-14q0-9 5-16t9-11 11-6 7-4q-7-1-13-4-5-3-9-7t-5-13q0-8 4-14t10-11 14-6 18-2q5 0 11 0t11 3" />
</svg>