<svg id="fnt-Stalinist One" viewBox="0 0 5602 1000" xmlns="http://www.w3.org/2000/svg"><path id="stalinist-one" class="f" d="M559 667h-514v-115l131 19v25h253v-44l-384-61v-174h514v121l-130-20v-30h-253v47l383 61v171m108-200h-63v-65h63v-85h125v85h122v65h-122v120l30 15h192v65h-225l-122-60v-140m710 200h-308v-133l323-40v-27h-198v22l-125 13v-100h448v265h-90l-25-25-25 25m-183-88v23h198v-47l-198 24m600 88h-187v-350h125v285h62v65m63-200h-63v-65h188v265h-125v-200m125-100h-125v-70h125v70m215 300h-125v-265h89l26 25 25-25h185l122 60v205h-125v-185l-30-15h-167v200m425-200h-63v-65h188v265h-125v-200m125-100h-125v-70h125v70m532 300h-442v-100l125 12v23h192v-23l-317-45v-132h442v100l-125-13v-22h-192v20l317 45v135m108-200h-63v-65h63v-85h125v85h122v65h-122v120l30 15h192v65h-225l-122-60v-140m1127 200h-520v-350h520v350m-389-279v208h258v-208h-258m609 279h-125v-265h89l26 25 25-25h185l122 60v205h-125v-185l-30-15h-167v200m425-200h-63v-65h505v132l-317 45v23h192v-23l125-12v100h-442v-200m125 0v48l192-26v-22h-192" />
</svg>