<svg id="fnt-Stardos Stencil" viewBox="0 0 3308 1000" xmlns="http://www.w3.org/2000/svg"><path id="stardos-stencil" class="f" d="M145 333v-20q18 2 30 8t18 9 8 3 6-1 3-4 3-4 3-4h22v114h-17q-6-5-13-24t-11-30-12-21q-16-22-40-26m-50 332q-14-6-20-9t-12-3-14 14h-23v-121h17q5 6 10 15t9 22 10 23 14 22q18 23 46 26v20q-22-2-37-9m57 9v-21q26-3 41-21 12-16 12-37t-7-34-20-23-28-18-33-16-32-17-28-20q-27-25-27-61 0-37 25-63 27-28 69-31v21q-30 4-41 31-3 8-3 22t8 24 20 21 29 16 34 16 33 17 29 21q28 27 28 65 0 42-30 72-32 33-79 36m248-222v-22h40v22h-40m-21-108v329q-42-2-49-38-3-11-3-25v-158h-33v-15q4-4 8-6t9-4q10-5 15-13t8-16 6-18 4-18 6-16l29-2m21 329v-22q18 0 28-26 3-8 6-18l16 4q-7 43-30 56-9 4-20 6m195-151v20q-65 24-65 69 0 19 9 30t26 11 30-13v23q-18 11-42 11t-38-4-24-13q-20-16-20-43 0-56 98-84 14-4 26-7m-57-67q13 5 13 23 0 12-8 19t-23 7-22-8-8-19 6-22 15-16q22-16 54-18v18q-20 2-27 16m145 187q13 0 17-24l12 7q-2 23-13 36t-33 12q-19 0-27-6-14-11-23-33v-152q0-15-8-26t-23-15v-20q83 4 83 87v116q0 18 15 18m126-216l3 58v135q0 22 11 26 3 1 7 2 13 4 19 7v13h-118v-13q5-3 10-5t9-4q10-5 10-17v-141q0-28-4-33t-9-6-9-3-8-4v-15h79m78 65q-11 0-17-5t-6-12 6-15q-2-2-5-2-17 0-32 24v-38q18-22 41-22 26 0 35 23 3 7 3 19t-7 20-18 8m202 176v-308q0-14-10-18-4-2-10-4t-11-4v-15h83v304q0 20 19 26 5 2 10 4v15h-81m-48-222q-52 0-52 103t49 104q15 0 31-18v29q-17 10-38 10t-40-8-31-24q-29-35-29-92t28-92q29-36 73-36 19 0 37 9v23q-12-8-28-8m256 209v19q-42-4-68-36-31-35-31-90 0-55 31-90 27-32 68-36v19q-21 4-31 28-11 27-11 79 0 78 24 98 8 7 18 9m20 19v-19q44-7 44-107 0-79-26-99-8-6-18-8v-19q42 3 70 35 30 35 30 91 0 56-30 91-28 32-70 35m235 0v-19q18-3 29-14t11-25-5-22-16-14-21-10-24-9-25-11-21-13q-21-17-21-45 0-26 19-45 22-23 56-25v19q-14 3-22 12t-9 21 6 19 16 13 22 9 25 9 25 11 22 14q21 19 21 50 0 26-20 47-24 25-68 28m16-195q0-18 14-23-8-14-28-16v-18q33 2 54 18 21 15 21 37 0 13-8 20t-22 8-22-7-9-19m-50 138q0 18-14 23 8 13 27 15v19q-31-2-53-18-21-15-21-37 0-13 8-21t22-7 22 7 9 19m411-283v-20q19 2 31 8t18 9 8 3 5-1 4-4 3-4 3-4h22v114h-17q-6-5-13-24t-11-30-12-21q-16-22-41-26m-49 332q-15-6-20-9t-12-3-14 14h-23v-121h17q5 6 10 15t9 22 10 23 14 22q18 23 46 26v20q-22-2-37-9m57 9v-21q26-3 41-21 12-16 12-37t-7-34-20-23-28-18-33-16-32-17-28-20q-28-25-28-61 0-37 26-63 26-28 69-31v21q-30 4-41 31-3 8-3 22t8 24 20 21 29 16 33 16 34 17 29 21q28 27 28 65 0 42-30 72-32 33-79 36m248-222v-22h40v22h-40m-21-108v329q-42-2-49-38-3-11-3-25v-158h-33v-15q4-4 8-6t8-4q11-5 16-13t8-16 6-18 4-18 6-16l29-2m21 329v-22q18 0 28-26 3-8 6-18l16 4q-7 43-30 56-9 4-20 6m152-152h80q0-70-36-79v-21q46 4 71 38 23 32 23 84h-138v-22m45 152v-21q43-2 61-40 5-11 8-23l21 8q-13 51-55 69-15 6-35 7m-66-141q0 105 46 118v22q-48-5-76-40-28-33-28-85 0-54 28-88 28-35 75-38v20q-45 5-45 91m339-85q-20 0-37 16v-27q21-15 50-15 34 0 55 17 21 18 21 52v128q0 23 9 27 3 1 7 2 9 3 14 7v13h-94v-17q0-5 4-8t6-7 2-8v-140q0-40-37-40m-58-21v191q0 23 10 28 3 1 7 2 10 3 14 7v13h-114v-13q5-4 12-6t9-3 6-5q4-6 4-22v-141q0-24-9-28-3-2-7-3-10-2-15-5v-15h83m368 34q-7-17-31-19v-20q33 2 52 22 17 16 17 38 0 23-18 31-6 3-16 3t-17-8-8-17 2-15 5-7 7-5 7-3m-31 212v-21q30-4 44-38 4-9 7-18l21 6q-14 47-45 63-12 6-27 8m-71-125q0 95 51 104v22q-46-1-77-33-33-34-33-91 0-50 31-87 31-38 79-41v21q-37 9-48 62-3 19-3 43m184-121l83-2v204q0 12 10 17 5 2 10 4t10 5v13h-113v-13q5-3 10-5t11-4q10-5 10-17v-163q0-13-10-18-4-2-10-4t-11-4v-13m22-78q0-14 9-22t20-9 16 2 11 7q9 9 9 23 0 13-9 22-10 9-24 9t-23-9-9-23m123-30h83v310q0 12 10 17 5 2 10 4t11 5v13h-114v-13q6-3 11-5t10-4q10-6 10-17v-269q0-11-10-17-5-2-11-4t-10-5v-15" />
</svg>