<svg id="fnt-Stint Ultra Condensed" viewBox="0 0 2725 1000" xmlns="http://www.w3.org/2000/svg"><path id="stint-ultra-condensed" class="f" d="M39 667h-27v-111h27v40q0 14 3 24t10 16 12 8 13 3q8 0 16-4t13-11 9-19 4-29q0-17-4-29t-12-21-17-17-19-14-19-15-17-18-11-25-5-34q0-24 6-40t14-27 20-14 20-5q6 0 11 1t11 4 10 6 8 9v-14h27v101h-27v-38q0-12-3-20t-8-14-10-6-10-2q-8 0-14 3t-12 11-8 18-3 26 5 26 11 20 17 16 19 15 19 15 17 20 11 25 5 35q0 28-6 46t-16 28-21 13-21 4q-31 0-48-23v17m196-23q7 0 12-4t10-7l13 23q-3 3-6 6t-9 5-11 4-13 2q-20 0-32-14t-11-41v-156h-28v-28h28v-70h30v70h41v28h-41v156q0 13 4 19t13 7m38-182v-28h50v205h25v28h-75v-28h20v-177h-20m8-93q0-10 7-17t16-7q10 0 17 7t7 17q0 10-7 16t-17 7q-10 0-16-7t-7-16m77 93v-28h51v26q8-15 18-23t22-9q18 0 26 16t8 45v150h20v28h-66v-28h15v-141q0-13 0-22t-2-13-4-6-5-2q-5 0-10 5t-10 12-7 17-5 19v131h15v28h-66v-28h20v-177h-20m223 182q7 0 12-4t10-7l13 23q-3 3-7 6t-8 5-11 4-13 2q-20 0-32-14t-12-41v-156h-27v-28h27v-70h31v70h40v28h-40v156q0 13 4 19t13 7m116-285v-28h90v28h-30v215q0 16 1 30t5 23 11 14 21 5 20-5 11-14 5-23 1-30v-215h-30v-28h90v28h-30v219q0 26-3 44t-12 30-21 16-31 5q-19 0-32-5t-21-16-12-30-3-44v-219h-30m199 0v-28h50v282q0 9 2 14t4 8 7 3 11 1h7v28h-7q-13 0-24-3t-17-9-10-17-3-28v-251h-20m155 285q7 0 12-4t10-7l13 23q-3 3-7 6t-8 5-11 4-13 2q-20 0-32-14t-12-41v-156h-27v-28h27v-70h31v70h40v28h-40v156q0 13 4 19t13 7m38-182v-28h50v22q9-15 19-22t19-6q5 0 9 1t8 3 6 3 3 3l-11 27q-1 0-2-2t-4-4-5-3-6-1q-7 0-12 4t-10 10-8 15-6 18v137h25v28h-75v-28h20v-177h-20m184 154v-71q-13 1-21 5t-12 11-6 18-1 24q0 22 4 33t12 11q3 0 7-2t7-7 6-10 4-12m-33-126l-29-5q2-17 6-28t11-18 14-9 16-2q10 0 18 3t14 11 10 22 4 35v140h20v28h-51v-16q-7 11-14 17t-19 5q-8 0-14-4t-12-13-8-22-3-29q0-24 5-40t15-24 22-13 28-7v-22q0-15-1-24t-4-13-5-7-5-1q-8 0-12 8t-6 28m272 183q-20 0-36-10t-27-32-18-54-6-78q0-43 7-76t18-54 27-33 32-11q15 0 26 7t18 17v-18h26v116h-26v-34q0-14-4-26t-8-19-14-11-15-4q-14 0-24 10t-17 29-9 46-3 61 2 61 9 46 17 29 27 10q11 0 19-6t13-16 10-21 6-21h28q-4 21-12 39t-16 29-23 18-27 6m211-122q0 32-4 55t-13 38-19 22-23 7q-13 0-24-7t-19-22-12-38-5-55q0-32 5-55t12-39 20-22 23-7 23 7 19 22 13 38 4 56m-29 0q0-48-8-73t-22-24q-15 0-23 25t-7 72 7 71 23 25q15 0 22-25t8-71m47-89v-28h51v26q9-15 18-23t22-9q18 0 26 16t8 45v150h20v28h-66v-28h15v-141q0-13 0-22t-2-13-4-6-5-2q-5 0-10 5t-9 12-8 17-5 19v131h15v28h-66v-28h20v-177h-20m293 177v28h-50v-16q-7 11-15 17t-18 5q-10 0-19-6t-15-20-11-38-4-60q0-31 4-54t11-37 16-23 19-7q10 0 18 5t14 19v-93h-22v-28h52v308h20m-76 8q9 0 15-9t11-25v-114q-2-8-4-16t-6-14-7-11-8-4q-6 0-11 6t-8 19-6 29-2 41q0 47 7 73t19 25m123-107h46q0-17-1-32t-4-27-7-18-11-7q-5 0-10 7t-7 18-4 27-2 32m27 107q7 0 12-5t8-11 4-15 3-14h24q-2 15-6 28t-10 23-16 15-20 5q-13 0-24-8t-18-23-12-38-4-52q0-28 4-51t12-39 17-24 23-9q26 0 40 34t14 97v5h-78q1 40 7 61t20 21m69-185v-28h51v26q8-15 18-23t22-9q18 0 26 16t8 45v150h20v28h-66v-28h15v-141q0-13-1-22t-2-13-3-6-5-2q-5 0-10 5t-10 12-8 17-4 19v131h14v28h-65v-28h20v-177h-20m187 205h-25v-86h26v21q0 12 3 21t5 13 7 7 8 2q4 0 7-2t7-5 5-11 1-17q0-15-5-25t-12-18-16-15-17-17-12-21-5-31q0-13 3-23t9-17 12-11 15-3q8 0 15 4t11 15v-14h24v79h-26v-20q0-11-1-18t-4-12-5-6-7-2q-3 0-6 1t-5 5-4 8-2 13q0 15 5 25t13 17 16 15 16 17 13 23 5 32q0 17-4 28t-11 18-13 11-14 3q-11 0-19-6t-13-14v16m128-127h46q0-17-1-32t-4-27-7-18-11-7q-5 0-9 7t-7 18-5 27-2 32m28 107q7 0 11-5t8-11 4-15 3-14h25q-2 15-7 28t-10 23-16 15-20 5q-13 0-24-8t-18-23-12-38-4-52q0-28 4-51t12-39 17-24 23-9q26 0 40 34t14 97v5h-78q1 40 7 61t21 21m203-8v28h-50v-16q-7 11-15 17t-18 5q-10 0-19-6t-16-20-10-38-4-60q0-31 4-54t11-37 15-23 20-7q10 0 18 5t14 19v-93h-22v-28h52v308h20m-76 8q8 0 15-9t11-25v-114q-2-8-4-16t-6-14-7-11-9-4q-5 0-10 6t-8 19-6 29-2 41q0 47 7 73t19 25" />
</svg>