<svg id="fnt-Stint Ultra Expanded" viewBox="0 0 6283 1000" xmlns="http://www.w3.org/2000/svg"><path id="stint-ultra-expanded" class="f" d="M58 667h-28v-121h28v35q0 14 7 24t19 18 27 12 33 7 33 3 31 1q29 0 54-4t44-10 28-19 11-29q0-15-9-26t-23-19-35-14-43-10-46-8-46-10-42-12-35-17-24-24-9-33q0-17 7-30t18-22 28-16 33-11 36-5 36-2q26 0 47 3t40 8 30 12 20 12v-29h27v106h-27v-22q0-13-9-25t-25-19-42-14-57-4q-30 0-54 3t-40 10-26 18-9 26q0 14 9 24t24 17 35 13 42 10 46 9 47 10 42 13 35 18 24 25 8 33q0 18-7 33t-20 24-30 17-35 10-39 6-39 1q-27 0-50-2t-42-8-34-11-24-14v29m348-205v-28h63v-80h31v80h164v28h-164v135q0 14 5 24t15 15 23 8 29 2 29-2 24-5 20-7 16-8l15 24q-9 5-20 10t-25 8-28 5-30 2q-24 0-43-4t-32-13-21-23-8-35v-136h-63m295 0v-28h86v205h55v28h-141v-28h55v-177h-55m40-93q0-6 2-11t6-8 8-6 11-2 10 2 9 6 6 8 2 11-2 11-6 8-9 6-10 2-11-2-8-6-6-8-2-11m120 93v-28h86v44q11-11 25-20t31-17 34-11 37-4q23 0 40 6t28 16 17 26 6 33v132h55v28h-141v-28h55v-123q0-18-4-30t-14-20-21-9-29-3q-18 0-35 5t-34 12-28 16-22 17v135h55v28h-141v-28h55v-177h-55m367 0v-28h63v-80h30v80h164v28h-164v135q0 14 6 24t14 15 23 8 29 2 29-2 24-5 20-7 16-8l15 24q-9 5-20 10t-25 8-28 5-30 2q-24 0-43-4t-32-13-21-23-7-35v-136h-63m476-103v-28h171v28h-70v205q0 16 9 31t26 27 44 18 60 6q34 0 59-6t44-18 26-27 9-31v-205h-70v-28h171v28h-70v202q0 25-11 46t-32 35-52 23-74 8-74-8-53-23-32-35-11-46v-202h-70m479 0v-28h85v260q0 14 3 24t7 14 14 6 20 2h24v30h-23q-20 0-34-4t-23-12-14-24-4-37v-231h-55m160 103v-28h63v-80h31v80h163v28h-163v135q0 14 5 24t15 15 23 8 29 2 29-2 24-5 19-7 17-8l15 24q-9 5-21 10t-24 8-28 5-31 2q-23 0-42-4t-33-13-20-23-8-35v-136h-63m295 0v-28h86v49q10-12 21-22t25-17 28-12 33-4q9 0 17 1t13 3 10 3 5 3l-11 28q-6-3-16-7t-24-3q-18 0-34 5t-28 15-22 19-17 19v125h60v28h-146v-28h55v-177h-55m485 205v-27q-11 5-25 11t-29 11-34 8-37 3q-22 0-40-4t-31-13-19-22-7-29q0-26 17-43t47-27 70-14 88-7v-11q0-13-7-23t-19-15-28-8-33-3q-21 0-36 2t-26 8-16 12-10 17l-31-8q8-27 38-42t80-15q26 0 47 4t38 14 24 25 9 37v131h58v28h-88m0-57v-70q-53 2-90 7t-59 13-33 18-10 25q0 22 19 33t55 11q15 0 33-3t34-9 30-12 21-13m671-178h-27v-72h-242v115h186v29h-186v134h246v-77h27v106h-373v-28h70v-280h-70v-28h369v101m226 235v-28h45l-74-73-74 73h47v28h-121v-28h39l91-91-86-86h-44v-28h121v28h-41l67 68 69-68h-39v-28h121v28h-46l-86 86 92 91h40v28h-121m137-205v-28h85v34q12-9 24-17t27-13 31-8 35-2q26 0 49 7t43 22 30 38 11 56-12 55-32 38-46 22-55 7q-16 0-31-2t-27-6-25-9-22-10v89h55v28h-140v-28h55v-273h-55m85 37v120q18 12 44 20t61 8q25 0 46-6t37-19 23-30 9-41q0-48-28-73t-82-24q-18 0-34 4t-30 10-25 15-21 16m519 168v-27q-11 5-24 11t-30 11-34 8-37 3q-22 0-40-4t-30-13-19-22-7-29q0-26 17-43t46-27 70-14 88-7v-11q0-13-7-23t-19-15-27-8-34-3q-20 0-35 2t-26 8-17 12-9 17l-31-8q8-27 37-42t80-15q26 0 48 4t37 14 25 25 9 37v131h58v28h-89m0-57v-70q-53 2-90 7t-59 13-32 18-10 25q0 22 19 33t54 11q16 0 33-3t34-9 30-12 21-13m105-148v-28h86v44q11-11 26-20t30-17 34-11 38-4q22 0 39 6t28 16 17 26 6 33v132h55v28h-141v-28h55v-123q0-18-4-30t-14-20-21-9-28-3q-19 0-36 5t-33 12-29 16-22 17v135h55v28h-141v-28h55v-177h-55m726 177v28h-86v-34q-11 9-24 16t-26 13-31 8-35 3q-25 0-50-7t-42-23-30-39-11-55q0-31 11-54t30-37 46-23 55-7q15 0 29 2t28 6 27 10 23 12v-99h-55v-28h86v308h55m-195 8q18 0 34-4t30-11 25-15 20-17v-111q-9-7-20-13t-25-11-29-8-33-3q-25 0-45 6t-36 19-23 29-8 41q0 47 28 73t82 25m257-108h214q-1-17-7-32t-19-26-32-18-47-7q-25 0-44 7t-34 18-21 26-10 32m109 134q-32 0-58-9t-44-24-29-38-10-50q0-27 11-50t29-39 45-25 56-9q32 0 58 9t43 26 27 41 9 55v5h-246q2 19 9 34t22 25 34 16 44 6q24 0 42-4t30-11 20-15 11-17h31q-14 37-49 56t-85 18m519-34v28h-86v-34q-11 9-24 16t-26 13-31 8-35 3q-26 0-50-7t-42-23-30-39-11-55q0-31 11-54t30-37 45-23 56-7q15 0 29 2t28 6 27 10 23 12v-99h-55v-28h86v308h55m-195 8q18 0 34-4t30-11 25-15 20-17v-111q-9-7-20-13t-25-11-29-8-33-3q-25 0-46 6t-35 19-23 29-8 41q0 47 28 73t82 25" />
</svg>