<svg id="fnt-STIX Two Text" viewBox="0 0 3162 1000" xmlns="http://www.w3.org/2000/svg"><path id="stix-two-text" class="f" d="M38 674h-16l-4-108h15q9 35 21 53t30 25 43 7q19 0 33-6t21-17 7-30q0-22-12-37t-31-26-40-22q-20-12-38-25t-31-31-11-44q0-26 13-44t34-27 48-10q23 0 35 4t20 8 13 4 10-4 6-11h13l3 100h-15q-10-41-28-61t-55-20q-26 0-40 12t-14 35q0 19 11 32t27 24 36 21q16 10 33 19t30 22 22 28 9 38q0 29-14 49t-36 30-52 11q-26 0-42-4t-26-8-15-3q-5 0-9 4t-4 12m438-22v15h-145v-15q21 0 31-4t14-14 4-33v-240h-32q-28 0-42 5t-19 20-12 42h-15l5-90h277l4 90h-16q-5-27-11-42t-20-20-41-5h-32v240q0 23 4 33t14 14 32 4m239 0v15h-144v-15q22 0 33-4t13-15 3-32v-197q0-19-2-31t-13-15-34-5v-15h144v15q-24 0-34 5t-13 15-2 31v197q0 22 3 32t13 15 33 4m347 0v15h-140v-15h5q15 0 21-3t6-11-4-17-14-25l-32-50-17-30-8-8-75-112q-12-18-20-27t-17-13-26-3v-15h139v15h-6q-14 0-20 3t-6 12q0 6 5 14t12 19 13 23l31 52 7 8 95 138q12 18 22 24t29 6m-218 0v15h-111v-15q14 0 22-4t17-11 20-24l87-115 17 23h-7l-61 86q-5 6-11 15t-5 16q0 7 6 10t26 4m145-254l-73 95-16-22h7l52-75q6-10 10-18t4-13q0-6-6-9t-24-3v-15h115v15q-16 1-26 4t-20 13-23 28m416 254v15h-145v-15q21 0 32-4t14-14 3-33v-240h-32q-27 0-41 5t-20 20-11 42h-16l6-90h276l4 90h-15q-6-27-12-42t-19-20-42-5h-31v240q0 23 3 33t14 14 32 4m422-174l-74 192h-24l-56-153-7-14-8-22q-6-16-11-24t-12-10-18-2v-15h104v15q-14 0-19 3t-6 9q0 5 1 10t4 11l40 109 9 29h3l10-29 40-112q0-2 1-7t2-11q0-7-7-10t-21-2v-15h86v15q-14 0-22 6t-15 27m-153 46l-59 146h-23l-75-189q-6-15-12-23t-12-11-18-2v-15h107v15q-15 0-21 3t-5 9q0 5 1 10t4 10l44 110 9 29h3l11-29 38-96 16 33h-8m313 148q-53 0-83-33t-29-93q0-37 14-64t39-43 59-15q51 0 81 32t30 88q0 42-15 70t-39 43-57 15m2-20q20 0 34-10t21-32 8-64q0-46-17-74t-50-29q-29 0-46 24t-18 72q0 60 18 86t50 27m467 0v15h-145v-15q21 0 31-4t14-14 4-33v-240h-32q-28 0-42 5t-19 20-12 42h-15l5-90h277l4 90h-16q-5-27-11-42t-20-20-41-5h-32v240q0 23 4 33t14 14 32 4m201 20q-30 0-54-15t-38-42-14-67q0-42 14-70t38-40 53-14q41 0 66 29t27 81h-162l-1-19h116q0-18-6-35t-18-26-29-10q-29 0-44 23t-14 64q0 35 11 58t29 34 38 11 33-5 22-15 17-19l10 7q-7 14-15 27t-20 22-25 15-34 6m350-20v15h-105v-15q13 0 18-2t6-9q0-5-4-10l-31-49-13-22-8-7-55-78q-8-13-14-19t-13-9-17-2v-15h108v14q-24 0-24 12 0 4 3 9t8 14 15 23l14 26 8 5 64 90q10 15 18 22t22 7m-159 0v15h-83v-15q13 0 21-5t21-20l63-82 16 20h-7l-41 59q-4 6-8 12t-4 9q0 4 5 5t17 2m110-184l-55 72-15-16h7l23-34q10-14 14-21t4-13q0-5-4-9t-16-3v-14h82v15q-12 0-22 6t-18 17m194 154l9 8q-9 13-18 22t-18 15-26 5q-25 0-36-15t-12-48v-155h-27v-12q17-11 30-30t26-50h13v71h56v21h-56v141q0 26 4 37t20 10q12 0 18-5t17-15" />
</svg>