<svg id="fnt-Strait" viewBox="0 0 1105 1000" xmlns="http://www.w3.org/2000/svg"><path id="strait" class="f" d="M124 673q-24 0-50-5t-46-14l9-31q14 5 36 10t46 4q28 0 42-14t15-50q0-13-3-26t-10-22-26-11l-50-7q-24-4-37-17t-17-33-4-49q0-45 24-71t70-26q25 0 46 5t37 11l-9 30q-10-3-30-7t-43-4q-14 0-26 4t-20 17-7 41q0 27 6 43t30 19l47 7q20 3 34 12t22 30 8 54q0 28-9 50t-30 36-55 14m182-266l22-45h19v45h46v29h-46v168q0 19 3 29t22 11q4 0 9-1t10-1l3 25q-8 2-16 4t-19 2q-26 0-37-9t-14-24-2-36v-168h-36v-22l36-7m194 57v203h-41v-260h23l8 30q12-12 32-24t55-12l-4 36q-30 0-47 9t-26 18m284 203h-22l-7-25q-13 15-26 21t-26 8-25 2q-29 0-44-12t-19-31-4-40q0-26 8-41t26-22 42-8 56-2v-38q0-28-12-36t-32-8q-18 0-37 3t-33 8l-8-25q16-8 37-14t46-5q36 0 53 9t22 27 5 41v188m-41-70v-52q-23 0-44 2t-34 9-13 28v12q0 14 2 24t11 15 31 5q29 0 38-12t9-31m126-190h41v260h-41v-260m21-106q9 0 15 1t10 7 3 19-3 20-10 7-15 1q-9 0-15-1t-10-7-4-20 4-19 10-7 15-1m126 106l22-45h19v45h46v29h-46v168q0 19 3 29t22 11q4 0 9-1t10-1l3 25q-8 2-16 4t-19 2q-26 0-37-9t-14-24-2-36v-168h-36v-22l36-7" />
</svg>