<svg id="fnt-Style Script" viewBox="0 0 1832 1000" xmlns="http://www.w3.org/2000/svg"><path id="style-script" class="f" d="M117 687q-9 0-17-1t-14-1q-40-7-58-21t-17-31q0-15 11-30t32-28 47-21 57-7q8 0 18 1t14 3 3 4q0 3-6 3h-3q-5 0-11-1t-11 0q-24 0-45 7t-38 18-26 24-10 26q0 14 13 25t42 15q5 1 11 1t12 1q27 0 52-9t45-24 31-32 12-34q0-12-7-22t-22-19q-18-9-39-15t-42-12-40-14-33-19q-11-9-16-20t-4-23q0-14 6-29t18-26q17-18 41-30t49-18 51-6h2q47 0 69 15t22 34q0 15-13 29t-37 25-56 10h-2q-3 0-5-3t-2-5q0-2 2-2 22 0 42-10t32-25 12-28q0-12-12-21t-39-8h-2q-24 0-49 8t-45 21-34 28-13 32q0 10 5 19t18 16q16 10 39 17t49 13 47 16 36 25 14 39q0 5-1 11t-2 11q-6 26-26 45t-46 30-57 17-54 6m250-18q-15 0-25-9t-14-24-7-30-1-28v-7q0-6 1-23t1-39 3-45h-15q-4 0-4-5 0-2 1-5t5-3h14q2-23 5-42t6-27q2-6 9-10t17-4q3 0 7 0t7 2q-2 8-6 30t-5 51h40q4 0 4 6 0 2-1 5t-5 2h-40q-2 28-4 57t-2 54v11q0 13 1 29t5 26 12 11h1q4 0 8-4t11-15q4-7 7-17t7-20q2-5 4-5 2 0 2 6v2q-1 13-7 30t-17 28-25 12m64 182q-27 0-39-14t-12-34q0-16 6-33t14-34q12-23 30-42t39-34 35-23q0-7-1-22t-1-33-2-36q-4 22-12 43t-17 44q-2 6-8 14t-12 15-15 6q-6 0-12-5-5-4-8-16t-5-25-3-30 0-27q0-5 0-10t0-7q1-10 1-25t3-29 6-25q8-19 30-19 2 0 4 0t5 0q1 1 2 1t2 2q0 1-1 1-5 12-8 31t-6 42-2 42q0 10 1 19t1 16q2 9 4 16t7 7q3 0 7-6 10-14 17-34t10-39 5-38q1-11 1-23t6-22q7-11 16-14t17-2h6q8 0 8 3 0 1-2 3-5 4-8 17t-4 31-1 37q0 21 1 41t0 31v5q15-8 25-14t17-5q1 0 1 0t1 1q3 0 3 4 0 1-1 3t-3 2q-6 0-17 6t-18 13-9 13v6q0 69-14 115t-38 67-52 23m-5-11h1q18 0 30-11t20-31 14-40 8-44 4-39 1-26q-8 5-24 19t-35 34-29 48q-7 14-10 28t-3 25q0 17 6 27t17 10m201-171q-18 0-29-12t-15-28-6-30q-1-13-2-29t0-32q0-31 1-64t6-64 9-56q3-12 10-28t17-28 25-12q29 0 29 45 0 17-6 50t-20 73q-8 21-18 42t-20 39q-1 4-1 8t0 9q0 17 1 34t5 32 9 24 16 9q11 0 17-9t11-18q2-4 3-10t4-11q2-6 6-6 2 0 2 6v1q0 3-1 9t-3 11q-6 18-18 31t-32 14m-19-155q13-27 24-57t18-58 7-53q0-14-3-24t-8-9q-5 0-10 11t-9 30-7 39-6 42-3 37-2 23q0 3 0 7t-1 12m135 162q-24 0-39-15t-21-36-7-43q0-24 5-48t16-44 27-33 39-12q16 0 25 10t9 28q0 25-12 44t-31 31-38 17v2q0 21 4 38t14 29 26 11q19 0 30-17t16-41q1-2 2-4t2-1q5 0 4 6-1 14-6 26t-9 20q-10 16-23 24t-33 8m-27-113v0q16-4 28-16t19-27 7-33v-2q0-9-3-17t-10-8q-9 0-16 8t-12 23-7 28-5 26-1 18m290 124q-8 0-16-1t-15-1q-40-7-57-21t-18-31q0-15 12-30t32-28 47-21 56-7q8 0 19 1t13 3 3 4q0 3-6 3h-3q-5 0-10-1t-11 0q-24 0-46 7t-38 18-26 24-9 26q0 14 12 25t42 15q6 1 12 1t11 1q28 0 53-9t44-24 32-32 11-34q0-12-7-22t-22-19q-18-9-39-15t-41-12-40-14-34-19q-10-9-15-20t-5-23q0-14 7-29t17-26q18-18 41-30t50-18 50-6h2q48 0 69 15t22 34q0 15-13 29t-36 25-56 10h-2q-3 0-6-3t-2-5q0-2 3-2 22 0 41-10t32-25 13-28q0-12-12-21t-40-8h-1q-24 0-49 8t-46 21-34 28-13 32q0 10 6 19t18 16q16 10 39 17t48 13 48 16 35 25 14 39q0 5 0 11t-2 11q-7 26-26 45t-47 30-56 17-55 6m269-11q-23 0-37-11t-20-29-8-38q0-3 0-7t0-7q0-21 4-44t14-45 27-33 40-13q15 0 24 11t9 26q0 15-5 22t-12 8q-12 0-12-26 0-10-3-18t-11-9q-10 0-16 9t-10 24-7 30-3 29 0 22v2q0 20 4 37t13 28 26 11q29 0 44-50 1-6 5-6 4 0 4 7 0 3-2 9-8 27-24 44t-44 17m158-7q-17 0-26-11t-14-28-3-37q0-21 2-42t6-37 5-22q-14-1-22-4t-13-9q-2 24-7 52t-9 52-12 44q-2 6-7 6-3 0-3-4 0-1 0-3t1-3q8-23 13-50t9-53 3-42v-6q-13-5-19-16t-5-20q0-7 2-12t9-6h1q7 0 12 10t9 21 4 19q6 5 13 7t12 2q7 0 9-2 4-4 9-12t19-7q8 0 20 5-6 12-11 28t-8 33q-1 4-3 16t-3 28-2 31q0 22 5 38t18 17q8 0 14-6t10-17 8-19 4-14q1-5 4-5 3 0 3 6v2q0 23-9 39t-21 23-27 8m97-255q-9 0-17-7t-7-17 7-17 17-7q10 0 17 7t7 17-7 17-17 7m-3 255q-18 0-29-15t-14-39-4-50q0-21 2-42t5-35 7-22q3-6 9-11t19-5q6 0 13 1-5 18-12 49t-7 68q0 13 0 28t3 27 6 21 11 8h1q4 0 8-4t11-15q7-14 14-37 1-5 4-5 2 0 2 6v2q-1 13-7 30t-17 28-25 12m31 170h-1q-18 0-25-17t-7-42q0-11 1-23t3-23q2-16 7-31t9-30q7-20 16-38t9-39v-2q0-29-3-55t-5-44-6-27q10-3 17-7t13-4h2q10 0 12 9t3 24q1 9 1 23t0 32q7-25 17-48t21-39 23-15q15 0 23 10t12 26 5 32 1 26q0 21-5 44t-13 42-24 31-36 13q-14 0-22-6v22q0 15 0 28t0 21q-2 31-6 51-5 25-15 40t-27 16m63-186q8 0 14-5 12-9 19-29t10-40q2-9 2-21t1-24q0-22-3-39t-14-17q-6 0-12 10t-12 28-12 36-9 37q1 14 1 29t0 29q6 6 15 6m-66 170q3 0 6-5t6-13q3-13 4-34t2-43q0-24-1-48t-2-38q-5 10-10 25t-10 30q-5 18-8 37t-3 38q0 16 3 32 1 7 5 13t8 6m226-154q-15 0-24-9t-14-24-7-30-2-28v-7q1-6 1-23t2-39 3-45h-16q-4 0-4-5 0-2 2-5t4-3h15q2-23 4-42t6-27q3-6 9-10t18-4q3 0 6 0t8 2q-3 8-6 30t-6 51h40q5 0 5 6 0 2-2 5t-4 2h-40q-3 28-4 57t-2 54v11q0 13 1 29t5 26 12 11h0q4 0 9-4t10-15q4-7 7-17t7-20q2-5 4-5 3 0 3 6v2q-1 13-7 30t-17 28-26 12" />
</svg>