<svg id="fnt-Suez One" viewBox="0 0 2157 1000" xmlns="http://www.w3.org/2000/svg"><path id="suez-one" class="f" d="M126 673q-55 0-112-17 3-50 8-92l39-8 25 43q30 10 53 10 8 0 34-4 1-10 1-14 0-12-4-18t-18-14-48-23q-43-21-62-46t-19-57q0-51 35-80t96-29q29 0 58 5t52 16q-1 28-5 70l-1 21-37 6-38-49q-18-5-45-5-17 0-25 3-3 10-3 15 0 11 6 19t19 17 42 22q40 19 60 34t29 30 8 38q0 50-39 78t-109 29m273 1q-40 0-60-24t-19-72v-89q0-11-2-15t-9-7l-22-12 2-37q7-1 10-2 6-1 39-7t57-7q5 12 8 29v126q0 22 1 31t8 13 24 5q24 0 46-8v-109q0-11-1-15t-8-7l-22-12 2-37q40-8 63-12t42-4q5 12 8 29v164q0 9 2 12t7 7l20 12-2 31q-21 5-49 9t-52 6q-2-6-5-15 0-4-2-10h-2q-20 12-43 19t-41 8m335-1q-59 0-91-36t-31-98q0-43 15-75t44-47 67-17q56 0 86 36t29 103l-152 28q7 21 20 30t34 10q14 0 34-4t41-12l11 50q-18 14-48 23t-59 9m-38-156l75-20q-1-19-11-28t-27-9q-14 0-27 4-11 25-10 53m182 150l-4-52 129-152-60 4-26 34-33-5q4-58 8-91h201l7 59-120 145 63-4 30-35 34 7q-2 38-9 90h-220m507 7q-83 0-124-42t-40-128q0-55 20-96t59-63 90-22q167 0 167 171 0 56-20 96t-60 62-92 22m11-69q28 0 54-15 6-15 9-39t3-45q0-56-21-84t-61-29q-28 0-55 11-5 9-8 31t-3 50q0 58 21 89t61 31m196 61l-2-47 31-9v-121q0-11-2-15t-8-7l-22-12 2-37 11-2q65-13 94-14 4 10 7 23 30-14 49-20t37-5q79 0 79 95v98q0 11 2 14t8 8l24 14-2 37h-138l-2-47 24-7v-95q0-22-1-31t-9-14-23-5q-18 0-46 5v121q0 11 2 14t8 8l24 14-2 37h-145m444 7q-58 0-90-36t-32-98q0-43 16-75t44-47 66-17q57 0 87 36t29 103l-152 28q7 21 19 30t34 10q15 0 35-4t40-12l12 50q-19 14-48 23t-60 9m-37-156l75-20q-1-19-11-28t-27-9q-15 0-28 4-10 25-9 53" />
</svg>