<svg id="fnt-Sulphur Point" viewBox="0 0 2794 1000" xmlns="http://www.w3.org/2000/svg"><path id="sulphur-point" class="f" d="M212 431v0q-2-19-12-33-19-30-64-30-38 0-55 17-15 16-15 43 0 31 17 42t47 14q29 3 49 8t34 14q35 22 35 69 0 19-7 35t-21 30q-30 30-83 30-54 0-85-30-26-24-32-66h35q4 25 21 41 21 20 61 20 34 0 55-17t22-43q0-17-7-28t-26-18-54-10q-96-9-96-91 0-20 7-38t19-29q28-28 78-28h1q51 1 78 28t33 70h-35m171 238q-27 0-50-14t-36-36-14-49v-153h35v153q0 17 8 32t24 24 33 9 32-9 24-24 9-32v-153h34v247h-34v-24q-13 14-30 21t-35 8m149-335h34v333h-34v-333m118 439h-34v-350h34v42q17-25 41-37t51-12q34 0 63 17t46 46 17 63-17 63-46 46-63 17q-35 0-58-15t-34-32v152m92-323q-25 0-46 12t-33 34-13 46 13 46 33 33 46 13 46-13 33-33 13-46-13-46-33-34-46-12m271-35q27 0 49 13t36 36 14 50v153h-35v-153q0-18-9-33t-23-24-32-8-33 8-24 24-8 33v153h-35v-334h35v110q12-14 28-21t37-7m243 254q-27 0-50-14t-36-36-13-49v-153h34v153q0 17 9 32t24 24 32 9 33-9 23-24 9-32v-153h34v247h-34v-24q-12 14-29 21t-36 8m264-215q-12-5-23-5-24 0-41 17t-17 40v161h-34v-161q0-27 14-49t38-33l1-1q18-8 39-8 32 0 57 19l-34 20m397-120q29 0 53 15t39 39 15 53-15 53-39 38-53 15h-59v120h-34v-333h93m0 179q19 0 36-10t26-26 10-36-10-36-26-27-36-9h-59v144h59m253 156q-34 0-63-17t-46-46-17-63q0-35 17-64t46-47 63-17q35 0 64 17t46 47 18 64q0 34-18 63t-46 46-64 17m0-33q26 0 47-13t34-34 12-46q0-26-12-47t-34-34-47-13q-25 0-46 13t-34 34-12 47q0 25 12 46t34 34 46 13m195-289q9 0 16 7t6 15q0 10-6 16t-16 7q-9 0-16-7t-6-16q0-9 6-15t16-7m-17 70h34v250h-34v-250m188 0q27 0 50 13t36 36 14 50v151h-35v-151q0-18-9-33t-23-23-33-9-32 9-24 23-9 33v151h-34v-244h34v22q13-14 29-21t36-7m257 0v34h-41v216h-35v-216h-41v-34h41v-83h35v83h41" />
</svg>