<svg id="fnt-Sunflower" viewBox="0 0 2149 1000" xmlns="http://www.w3.org/2000/svg"><path id="sunflower" class="f" d="M138 349q-75 0-75 57 0 15 4 25t13 18 27 12 44 11 44 13 30 18 17 25 5 37q0 106-110 106-19 0-42-2t-50-6l-18-3 4-32q69 9 104 9 74 0 74-69 0-14-4-24t-13-17-23-11-37-9q-29-6-50-14t-33-19-19-27-6-39q0-93 112-93 36 0 87 8l17 2-3 33q-35-4-60-7t-39-2m316 275l9-4v-203h38v250h-38v-18q-37 23-74 23-25 0-42-6t-26-21-13-38-3-60v-130h37v130q0 27 2 44t8 29 16 14 27 4 33-5 26-9m166-165l-10 5v203h-37v-250h37v17q40-22 77-22 25 0 41 6t26 21 14 38 4 58v132h-37v-131q0-26-3-44t-8-28-16-15-27-4q-16 0-34 5t-27 9m342-42v32h-73v218h-37v-218h-32v-32h32v-23q0-26 3-44t12-28 21-15 31-4l51 3-1 31q-14 0-25-1t-21 0q-18 0-26 12t-8 47v22h73m48 250h37v-359h-37v359m101-126q0-34 6-59t19-40 33-23 50-7 49 7 33 23 18 40 6 59-5 59-18 41-33 23-51 8-51-8-33-23-18-41-5-59m39-1q0 28 2 46t11 31 21 17 35 5 34-5 21-17 10-30 3-46-4-46-11-30-21-16-32-5-33 5-21 16-12 29-3 46m216-123l59 250h63l53-196 53 196h62l60-250h-38l-50 217h-8l-60-212h-39l-59 212h-8l-51-217h-37m571 219l15-2 1 30q-29 4-53 6t-45 2q-54 0-76-32t-23-97q0-131 105-131 51 0 75 28t25 89l-2 28h-165q0 42 15 62t53 20 75-3m-143-109h130q0-46-15-65t-48-19q-33 0-50 20t-17 64m263-44v184h-37v-250h37v34q43-30 91-40v38q-10 2-22 6t-22 7-19 8-15 7l-13 6" />
</svg>