<svg id="fnt-Sunshiney" viewBox="0 0 1793 1000" xmlns="http://www.w3.org/2000/svg"><path id="sunshiney" class="f" d="M260 554q0 3-2 3t-1 3q0 6-2 10t-1 10q-3 1-4 4t-3 5q1 7-2 10t-3 8q-2 2-4 2t-4 1q-1 5-2 10t-3 10q-2 1-3 2t-2 4q-4 6-10 11t-12 10q-3 2-5 3t-4 3q-3-1-4 0t-2 1q-5 2-6 5-2 0-4 0t-4 3q-3-1-6 0t-6 2q-2 1-4 1t-4 0q-6 1-15 2t-15-2q-3 2-6 1t-5 0q-3 2-9 0t-9-4q-6-2-12-2t-12 0q-1-1-7-3t-7-3q-1-1-2-2t-2-3q-6-4-10-7t-10-9q-5-5-5-6t-2-4q-2-4-4-8t-5-9q1-5 0-7t-4-7q-1-6-2-6t-1-1q-3-5-1-14t3-14q1-2 2-3t2-3q1-2 1-4t1-5q1-3 4-5t2-6q4-2 6-4t2-7q3 0 6-1t5-2q2-1 2-3t2-2q3-1 6-2t6-3q3 1 5 0t3 0q2-1 4-1t3-3q7 0 15-2t13-1q2 0 3-1t3-3q3 1 8 1t7-2q5 2 12 2t13 1q2 1 4 3t6 1q3 9 10 14-1 3 2 6t4 7q1 1 1 2t0 3q1 3 3 5t3 5q0 2 0 4t0 3q0 1 1 3t0 3q0 2-2 3t-2 3q-1 3-1 5t-1 5q-3 1-5 4t-5 5q-5 3-8 4t-6 1q-7 2-11 1t-7-1q-3 1-5 2t-5 0q-9 0-15-3t-14-7q-1-2-2-4t-2-3q-1-3-3-3t-4-3q0-3 0-9t0-11q2 0 3-1t3-2q4-1 7 1t7-1q2 1 4 4t4 2q2 5 2 8 2-1 3 0t3 2q6 1 7 1t2-1q4 0 7 1t6-3q1-4 1-9t-1-9q-1-2-3-2t-3-2q0-1-1-3t-3-2l-6 2q-1 0-5-1t-7-1-8-1-5 1q-2 0-4 2t-4 1q-6 3-9 3t-7 1q-3 1-6 3t-6 3q-9 5-12 12t-8 14q0 2 0 4t2 4q-1 3-3 6t5 7q-2 6 2 10t5 10q2 3 5 5t5 6q2 0 3 0t3 0q0 2 2 3t2 4q8 1 19 3t18 3q7 3 9 2t4 0q2 1 4 1t4 0q4 0 9-4 8 1 16-3t16-7q4-2 6-4t7-4q4-5 8-10t8-10q0-4 3-6t2-7q2-2 4-4t2-5q2-2 5-5t2-6q0-1 0-3t0-2q1-6 3-12t2-12q0-2-2-5t-3-4q-1-2-2-5t-3-3q0-6-2-10t-5-8-7-6-5-8q-6-1-9-3t-9-2q-1-2-3-2t-3-2q-3 2-6 0t-8-2q-2-1-5 0t-5 2q-4-1-9-2t-9 1q-3-1-6-2t-5-1-4 0-4 1q-12-4-16-5t-9-2q-4 0-6 0t-6-3q-4 1-10-2t-10-5q-1 0-1-2t-1-3q-2-2-5-3t-4-4q-1-1-1-2t-1-3q-2-4-5-6t-4-5q-2-3-4-6t-4-6q2-5 1-11t-2-11q1-5 2-6t1-3q1-2 0-3t0-4 2-4 1-3q1-4 1-8t2-8q2-5 2-7t1-3q1-2 2-4t4-4q0-2 0-3t1-3q2-2 2-3t1-2q1-1 3-2t3-3q4-4 9-6t10-6q5-1 10-3t8-4q3 1 6-1t6-3 6-4 6-3q6 0 13 0t12-5q3 0 8 2t7-1q5-1 10 0t9-1q5-2 8-1t6 1q3-1 4 0t2 1q2 1 5 2t6 2q3 1 6 3t6 3q2 2 3 3t1 4q5 1 7 6t7 5q0 6 5 11-1 4 1 6t3 6q-3 7-1 13t1 14q-1 6-3 11t-1 12q-3 3-4 6t-5 5q-6 7-17 8t-20 4q-2 0-4 1t-4 1q-2 0-4-1t-4 0q-2 0-4 1t-4 1q-4 0-10-3t-10-2q-5-4-6-5t0-1q-3-3-5-3t-2-2-1-2-3-2q1-4-1-7t-4-7q-1-8 0-15t4-14q4-1 8-1t8-3q2 3 6 3t6 2q1 7 2 10t1 7q1 2 2 3t3 2q1 1 1 4t1 3q4 0 9 0t10 0 10-1 7-3q2-7 4-7t2-2q1-6 2-12t1-11q-1-5-4-7t-4-7q-2-3-5-5t-5-6q-4-1-8-3t-7 1q-2 0-3-1t-3-2q-2 1-5 2t-4 2q-5-2-9 2-3 0-4-3t-4-2q-4 2-8 4t-7 2q-2 0-4-1t-4 1q-2 0-4 1t-4 2q-2 0-4 0t-5 1q-1 1-3 2t-6 3-6 4-4 2q-3 3-6 4t-6 4q-2 2-2 5t-4 2q-1 4-2 7t-1 6q-3 2-4 9t-2 11q0 3-2 5t-1 5q0 5 3 9t3 8q2 2 4 5t3 6q6 5 11 8t14 2q1 1 2 2t3 2q7-1 13 3 8 1 14 2t11 1q1 0 3-1t3-2q1 1 4 2t4-2q7 2 14 3t16 1q7 1 11 3t7 1q0 3 1 4t3 4q2-1 3 0t4 1q4 2 8 3t5 6q3 1 6 3 1 2 3 5t4 3q4 8 6 12t6 8q1 4 2 8t1 8q0 2 3 2t3 3q-1 6-1 13t1 14m218 107l2 12q-2 0-2 2t0 4q-3 0-5 1t-4 3q-3-1-6-1t-5-2l-7-1q-2-1-3-2t-2-3q-6-1-6-2t-1-1q-6-4-7-7t-4-3q1-6-2-9t-5-9q-1-2-3-3t-1-4q-3-1-4 2t-2 3q-3 2-5 5t-2 5q-4 1-7 4t-6 4q-8 4-11 6t-7 4q-3-2-6-1t-7 1q-8-3-12-2t-8-1q-6-4-11-5t-8-3q-3 0-3-2t-1-2q-4 0-6-1t-5-5-5-7-5-8-3-6q0-4 0-4t-1-2q-1-4-1-8t-1-7q2-2 2-7t0-8q1-4 3-9t3-8q1-4 1-8t4-7q1-5 1-11t2-11q1-4 3-9t0-9q1-1 1-2t2-3q2-3 1-3t1-2q4-3 7-4t5-2q2 1 3 2t3 2q6 1 10 2l3 5q2 4 1 9t-3 8q-1 3-1 7t-3 6q0 4 0 7t-1 5q0 1-1 4t-1 4q-4 7-6 11t1 8q-4 3-5 7t-2 7q2 2 2 6t0 7 0 6 5 3q1 4 3 7 4 1 8 2t6 4 7 3 9 1q2 0 5-1t5-2q1-3 3-3t4-2q3-5 7-8t4-8q5-7 8-13t4-12q0-6 0-6t1-1q-1-6 0-7t0-2q-1-5-1-6t1-2q-1-4-2-8t0-7q3-3 2-5t-1-4q-3-3-4-5t0-4 1-4 3-6q2-6 2-8t0-5q2 1 3-1t2-2q1 0 3 0t3 1q1 0 2-1t3 0q5 1 9 2t7 5q1 3 3 6t2 5q0 1 0 4t-2 3q2 1 1 4t2 4q-2 3-1 8t2 5q-1 5 0 7t0 5q1 3 0 6t0 5q0 2 1 3t1 3q0 2-1 4t2 3q-2 3-1 5t2 4q1 3 0 6t-1 6q1 5 2 11t3 10q4 4 3 8t4 9q2 1 5 4t4 4q4 2 5 4t4 4m194 21h2q-3 3-3 5t-2 4q-5 0-6 0t-5 3q-4 1-7 2t-8 2q-6-6-10-12-4-3-3-5t0-5q0-3-5-2 1-4 0-8t-1-8 1-9-1-9q2-1 1-4t0-5q1-4 2-7t-2-7q1-2 2-3t2-2q-2-5 0-11t2-11q0-2-1-4t0-4q1-5 1-6t-1-3q0-3 1-6t1-9-1-7-6-3q-1-4-2-6t-3 0q0-3-4-5-3 1-7 2t-7 2q-4-2-5-2t-2 0q-4 1-8 2t-8 4q-2 1-3 2t-1 2q-5 3-6 3t-2 1q-3 2-4 4t-5 4q-1 4-5 6t-3 6q-2 1-3 1t-3 0q1 4 0 7t-1 7q0 4 2 8t-1 8q2 5 2 8t-1 7q1 1 2 2t2 3q1 3-2 4t1 3q-4 8-5 12t-4 9q-6 0-9 3t-8 4q-3-1-4-3t-5-2q0-5-3-9t-1-11q0-3 1-3t1-2q-2-7-1-12t-2-6q0-1 1-2t2-3 0-3-2-2q2-3 1-4t-1-4q0-3 1-5t1-5q0-1-1-3t0-3q0-1 1-3t1-4q-1-2 0-5t-1-7q1-7-1-9t-2-4q-1-2 0-5t-3-3q0-5 0-6t-3-3q0-4-2-7t-5-6q-9-4-11-12t-1-17q6-2 7-3t3-2q7-1 9 0t9 2q3 2 6 4t6 3q2 4 3 6t3 2q-1 3 0 5t2 3 2 3 0 5q0 1 2 2t2 1q0 8 3 10 3 1 6-1t6-2q3-1 3-5 2 1 4-1t4-2q5-1 7-3t4-2q5-4 5-3t2 0q5-2 6-3t2-1q5-1 10 0t9-3q5 2 10 1t11 1q4 3 6 3t1 1q3-1 6 0t7 1q1 4 1 5t-1 3q6 1 7 3t6 6q-1 5 3 8-1 4 0 6t2 6q-1 3 0 8t2 8 0 8-1 7q-1 3-1 6t0 7q0 1-2 5 2 6 1 11t-1 12-2 12 1 11q-2 2-3 6t0 7 1 8 1 6q5 2 7 2-1 2 1 4t2 3q0 1-1 3t0 3m185-90q1 11 2 22t-5 21q-2 6-3 9t-3 5q0 4-2 5t-4 5q-3 0-6 1t-6 2q-2 4-3 3t-3 0q-5 3-9 3t-6 0q-2 2-4 3t-2 4q-3 1-3-1t-3-2q-4 2-6 0t-5-2q-2 0-4 1t-4 2-5 2-4-2q-2 0-3 1t-3 2q-6-1-11-1t-10 0q-1-2-4-3t-5 0q-1-2-2-2t-2-2q-2 1-6-1t-5-3q-2-3-6-6t-4-5q0-1 0-3t-2-3q0-4-1-5t0-2-2-1-2-4q1-2-1-5t1-5q-2-1-2-5t0-8 1-8 2-6q4-2 7-6t9-6q4 2 10 3t8 5q-1 4 0 6t-1 4q0 5-3 6-1 2 0 4t-1 5q2 4 1 4t0 2q0 3 2 4t2 5q5 4 10 6t11 3q1 0 3 0t3-3q2 1 6 1t5-3q3 0 7 1t7 0 7-1 4-4q7 0 10-2t5-5 4-5 5-4q0-3 1-5t0-5q0-3-3-4t-5-2q-1-6-5-8t-7-5q-6 1-9-1t-7-4q-2-1-4-1t-4-2q-2 0-3 1t-3 2q-1-2-3-3t-4-2q-5 0-12 0t-10-4q-2-1-4-1t-4 0q-1-5-6-5-1-2-2-3t-3-1q0-3-1-5t-4-3q-1-5-3-9t-2-8q1-6 0-7t0-2q0-6 3-12t3-13q3 0 4-3t1-6q5-1 5-7 4 1 5-1t4-4q3 1 4 0t4-3q2-1 4 0t4-1q2-1 4-2t5-2q0 0 2 0t6 0 7-1 3 0q4 1 8 2t7 0q3 0 6-1t7-1q1 2 3 5 3 0 4 1t3 3 2 2 4 1q0 2 2 4t2 3q3 3 3 8t1 9q-2 1-3 3t-3 3q-1 1-2 3t-3 2q-3 5-4 4t-1-2-3-2-4 3q-4-4-7-6t-4-8q-2-2-6-2t-5-3q-3 1-8 2t-7-1q-3 0-3 2t-5 1q-1 1-2 2t-1 3q-5 0-8 5t-3 10q-4 7-2 8t2 3q4 5 7 5t7 1q5 0 8 1t4 2q2-1 4-1t3-2q5 3 10 4t10 4q2 1 4 2t4 2q4 1 6 2t2 3q5-1 7 1t6 3q3 2 7 7t7 6q0 4 3 6t4 4m233-33q-2 4-1 9t0 8q-1 7-2 13t-1 13q-1 1-3 2t-1 2q0 2-1 4t2 3q-4 8-7 9t-4 6q1 3 1 5-2 4-2 4t0 2q0 1-1 3t-3 2q1 6 0 6t-3 1q-1 4-1 8t-4 8q1 2 1 2t1 4q-4 2-4 4t1 4 0 3 4 3q-1 4 0 8t0 9q-4 0-6 2t-5 0q-2 1-3 2t-4 3q-3-1-6-1t-6-1q-5-6-6-9t-5-4q1-2 0-4t-2-4q1-3 1-7t0-8 0-8 3-7q-2-2 0-5t-1-5q1-2 4-4t3-3q-2-7 0-8t1-4q6-9 9-14 0-7 1-9t-1-6q2 0 3-2t3 0q1-4 3-7t3-5q-1-4-1-7t0-7q3-3 3-7t-2-8q0-1-1-2t-2-2q-2-7-6-9t-7-6q-6-1-10-3t-10-2q-2 0-3 1t-3 2q-2-1-4-1t-5 1q-1-1-5-1t-8 1-7 3-3 4q-5 0-7 2t-4 3q-5 1-4 2t-1 3q-1 1-2 2t-2 1q-3 5-3 6t-1 2q0 1-4 5t-5 4q-1 2-1 4t-1 4q-3 1-4 3t-3 4q-1 2-1 5t-3 6q0 7 1 14t-1 14q1 1 1 3t-1 5-1 5 1 4q0 2 1 4t2 4q-3 2-3 6t0 6q-5 2-8 5t-6 7q-3 1-7-1t-5 1q-2-2-3-4t-3-5q-2-2-4-4t-3-4q-1-1-1-3t-2-2q2-6 1-7t0-1q2-5 1-6t-1-3q-1-3 0-5t1-4q-1-6-1-8t2-3q0-3-1-7t0-7q0-3 1-6t1-7q-1-2-1-5t2-4q0-3-2-3t-1-4q2-3 2-8t0-9q-3-7-4-9t0-5q-1-3-1-5t-1-3-1-4 0-6q-1-8-1-11t0-7-1-6 2-6q0-2-1-3t-2-3q2-4 0-6t0-7q-1 0-2-3t-2-8-1-8 0-4q0-4-1-8t0-7q-2-2-2-5t0-7-1-6-2-6q1-2 1-5t-2-6q-1-14 0-25t7-20q4 1 9 1t8 0q1 1 5 6t4 7q0 2-1 4t1 3q0 2-1 2t-3 1q1 5 3 9t2 9q0 3-1 7t2 5q-2 6 0 13t2 13q0 2 3 5t-2 7q1 2 2 6t1 8 2 7 2 4q-2 6 0 10 1 1 1 4t0 6q0 2 1 5t0 5q0 1 0 3t-1 2q0 2 1 3t0 3 0 3-1 4q3 6 3 9t2 5q-1 2 0 3t1 3q6-1 5-6 6-1 8-5t4-8q2 1 3-1t2-3 2-1 2-3q4-1 7-3t6-5q6-1 10-2t10-4q2 0 8-1t11-2 12-1 8 1 3-1 3-1q2 1 4 2t3 2q4 1 7 2t6 3q2 0 3-1t3 0q2 2 3 3t1 3q8 5 15 10-1 5 2 7t7 5q1 2 1 4t3 4q0 3 1 5t2 5q1 2 0 4t2 4m76-110q-3 5-3 8t3 5q-1 2-1 3t-1 4q-3-1-7 1t-5 5q-3-1-6-1t-5 1q-2-1-4-2t-4-2q-2-2-4-5t-3-4q1-7 0-8t-2-2-2-2 1-4q4-2 6-3t2-1 2-2 3-1q5-3 7-2t2 1q2 0 3-1t4 1q1 1 2 0t1-1 1-1 3 1q1 1 1 4t0 4q1 2 3 2t3 2m35 214q-2 4-5 7-6 2-8 3t-2 2q-8 1-16 1t-13-3q-5-5-8-6t-4-4q-5-7-7-10t-2-6q-5-15-10-23 2-5 2-9t-3-9q2-1 3-3t1-2q-1-3-3-8t2-7q-1-2-1-7t1-7q0-3-1-4t-2-3q2-5 4-7-2-2-2-6t-2-5q3-6 2-13t2-12q1-2 4-3t2-4q5-1 9 2t10 2q-2 3 1 3t4 1q1 2 2 4t2 5q-1 2-2 4t-1 5q1 6 1 7t-1 2q-1 7 0 13t1 13q0 2 0 3t-1 3q0 2 1 4t0 3q0 3-2 7t4 6q-2 1-2 3t1 4q1 4 0 9t4 8q-1 3 0 5t1 4q2 1 5 2t6 1q4 1 5 3t5 1q2 3 4 4t6 2q-1 2 0 3t2 3q0 3-1 6t2 3m192 19h2q-3 3-3 5t-2 4q-5 0-6 0t-5 3q-4 1-8 2t-7 2q-7-6-10-12-4-3-3-5t0-5q0-3-5-2 1-4 0-8t-1-8 1-9-2-9q3-1 2-4t0-5q1-4 1-7t-1-7q1-2 1-3t3-2q-2-5 0-11t2-11q0-2-1-4t0-4q1-5 0-6t0-3q0-3 1-6t1-9-2-7-5-3q-2-4-2-6t-4 0q0-3-3-5-4 1-7 2t-7 2q-5-2-6-2t-2 0q-3 1-8 2t-7 4q-3 1-3 2t-2 2q-4 3-5 3t-2 1q-3 2-5 4t-5 4q-1 4-4 6t-3 6q-2 1-3 1t-3 0q1 4 0 7t-1 7q0 4 2 8t-1 8q2 5 2 8t-1 7q1 1 2 2t2 3q1 3-2 4t1 3q-4 8-6 12t-4 9q-5 0-8 3t-8 4q-3-1-4-3t-5-2q0-5-3-9t-2-11q1-3 2-3t1-2q-2-7-1-12t-2-6q0-1 1-2t2-3 0-3-3-2q3-3 2-4t-2-4q0-3 1-5t1-5q1-1 0-3t-1-3q0-1 2-3t1-4q-2-2 0-5t-1-7q1-7-1-9t-2-4q-1-2-1-5t-2-3q0-5 0-6t-3-3q0-4-3-7t-5-6q-8-4-10-12t-1-17q5-2 7-3t2-2q7-1 10 0t9 2q3 2 6 4t6 3q2 4 3 6t3 2q-1 3-1 5t2 3 2 3 0 5q1 1 2 2t3 1q0 8 2 10 4 1 7-1t6-2q2-1 2-5 2 1 5-1t3-2q6-1 7-3t4-2q5-4 6-3t1 0q6-2 7-3t2-1q5-1 10 0t9-3q5 2 10 1t11 1q4 3 5 3t1 1q4-1 7 0t7 1q1 4 0 5t0 3q5 1 7 3t5 6q-1 5 3 8-1 4 0 6t3 6q-2 3 0 8t2 8 0 8-1 7q-1 3-2 6t1 7q0 1-2 5 1 6 1 11t-2 12-1 12 0 11q-2 2-2 6t0 7 1 8 1 6q5 2 7 2-1 2 1 4t2 3q0 1-1 3t0 3m188-131q0 3-2 5t0 4q-2 3-5 4t-3 5q-4-2-6 0t-4 4q-3-1-5 0t-5 0-4 0-5-3q-6 2-12 2t-13 0q-3 0-3 1t-2 3q-5-1-10 0t-10 2-10 2-8-2q-4 1-7 1t-8 0q-2 1-3 4-1 1-3 1t-2 1q2 4 2 8t5 6q0 6 2 11t6 9 6 6 2 5q5 2 7 2t3 0q0 1 3 3t8 3 8 1 5-2q3 0 5 0t3-1 3-1 4-1q2-1 4 0t3 0q3-1 6-2t6 0q1-1 5-3 2 1 4 0t4 1q2 1 4 0t4 0q2 0 4 1t4 2q-1 3 1 7t-3 4q1 3-1 5t-1 4q-4 1-7 3t-6 5q-2-1-4 0t-4 2-4 0-3 1q-6-2-8 0t-6 1q-3 0-4 0t-3 2l-6 2q-5-1-7 0t-5 1q-3 0-6-1t-6 1q-2 0-2-2t-2-2q-3 1-5 0t-6-1q-4-3-7-6t-8-6q-1-2-4-4t-4-4q-2-4-6-7t-6-7q0-1-1-4t-1-4q-2-4-6-6t-2-9q-3-6-4-11t-1-8q-1-2-2-5t-1-5 0-4 1-5q0-1-1-3t0-6 0-5 2-3q-2-4 0-6t1-7q2-1 3-3t4-4q0-4 1-5t4-3q0-2 2-6t4-6 6-6 5-3q4-5 9-8t8-9q2-1 4-2t4-2q1-1 2-3t3-2q1-1 4-1t4 0q6-1 11-3t10-4 11-1 10 5q10 1 12 4t9 4q2 4 6 7t7 5q1 3 2 6t5 4q-3 4-1 5t2 3q0 2-1 3t1 3q1 2 2 4t2 5q1 1 1 4t2 3q-1 4 0 9t0 8m-35-21q-2-3-3-5t-1-5q0-2-2-2t-4-1q0-3-1-4t-2-5q-7 1-12-2t-12-1l-9 2q-4 4-8 6t-8 3q-2 1-2 3t-2 3q-1 1-3 1t-3 0q-1 3-2 4t-3 2-3 2-2 4q-1 3-3 5t-3 3q1 3 2 4t2 2q1 1 4 1t6-1 7 0 5 1q3-2 6-3 8 0 10-1t5-2q3 0 5 0t5 0 4-1 5-1q8 2 12 1t9-1q2-6 1-12m245 206q-2 2-3 5t1 3q0 2-2 3t-3 2q-1 1 0 2t-1 4q-5 6-9 10t-5 10q-2 1-3 2t-3 1q-1 1-3 3t-5 4-5 3-3 3q-1 2-3 3t-2 4q-10 1-17 9-6 0-13 0-3-1-4 1t-2 3q-2 0-4 0t-2 0q-8 5-15 4t-13-1q-4 0-8 0t-9 0-9-1-6-5q-2 1-4 0t-3-1-4-1-4 1q0-3-2-3t-3-3q-5-3-6-4t-3-2-2-2-3-1q0-3-2-9t-3-9q-3-4-2-5t1-1l1-8q1-7 4-9t2-8q5-1 4-7l7-3q2-6 8-7 1-4 4-5t1-6q3 0 6-1t6-1q1-2 3-3t1-4q6 0 10-1t10 0q2 0 5 1t4 1q2 3 6 4t6 2q0 2 0 3t1 4q0 2 1 3t3 3q1 1 0 3t2 4q0 2-3 4t-4 2q-1 1-3 4t-3 3q-12 3-15-4-6-2-7 0t-3 3q-1-1-2 0t-4 0l-13 9q0 5-1 6t-1 2-2 1-1 5q-1 3 1 3t3 1q3 5 4 6t2 1q4 2 6 2t6 0q11 4 19 4t14-2q5-3 7-3t5-1 4-2 2-2q2 2 5 1t6-4 5-4 5-4q1-1 3-2t2-3q2 0 3-1t3-1q0-2 2-4t1-4q4-1 6-3t4-7 2-7 1-7q-1-3-2-8t2-6q-2-5-2-10t-2-9q-4-8-4-13t-5-8q2-6-1-11t-4-11q0-2-1-3t-2-2q-1-1 0-3t-2-3q-2-2-4 1t-5 3q-7 5-10 7t-6 5q-4-1-7 0t-7 2q-9-2-13 0t-7 0q-7-3-13-4t-9-1q-2 0-2-1t-2-3q-3 2-6 0-2-1-5-4t-7-6-6-7-4-6q0-4-1-4t-1-2q-2-3-3-7t-2-7q3-3 2-8t-1-7q0-5 2-9t1-9q0-4 0-8t3-7q0-6 0-11t0-12q1-4 2-9t-2-8q1-1 1-3t1-3q2-3 2-4t0-1q4-4 6-5t5-3q2 0 4 1t3 2q3 0 5 0t5 1l4 5q3 3 3 8t-3 8q0 3 1 7t-3 6q1 5 1 8t0 5q0 1-1 4t0 4q-3 8-4 12t2 7q-4 4-3 8t-2 7q2 2 2 6t1 6 2 6 5 3q1 2 4 6 5 0 8 1t8 3 7 2 9 0q2-1 5-2t5-3q1-3 3-3t4-2q0-3 1-5t3-3 3-5 1-5q5-8 7-14t2-12q-1-6-1-6t1-1q-2-6-2-7t1-2q-2-5-2-6t0-2q-1-4-3-7t-1-8q2-3 1-5t-1-4q-4-2-5-4t-1-4 1-4 2-6q1-6 1-8t-1-6q2 1 3 0t2-3q1-1 3-1t3 1q2-1 2-1t3-1q5 0 9 2t9 2q1 4 3 7 3 6 3 8t-2 3q2 2 2 5t2 3q-1 5 0 8t1 5v15q2 8 1 13t-1 9q0 2 1 3t0 2q0 2 0 5t-1 4q1 4 2 7t-2 7q1 3 2 4t2 4q-2 8 0 9t1 5q1 1 0 4t2 3q0 1 1 7t3 7q1 2 3 5-1 4 0 6t2 5 2 6-1 5q1 3 4 7t0 7q2 2 4 4t3 4q0 1 0 3t-1 3q3 6 4 13t2 13q-2 5-2 10t2 10" />
</svg>