<svg id="fnt-Sura" viewBox="0 0 1029 1000" xmlns="http://www.w3.org/2000/svg"><path id="sura" class="f" d="M65 574v24q0 9 6 33 34 13 65 13 31 0 48-16t18-46q0-18-10-32t-25-23-42-22q-30-16-49-28t-31-32-14-46q0-44 31-68t78-24q37 0 101 16l-7 75-29-3v-22q0-3-3-14t-4-14q-15-6-28-9t-32-2q-24 0-40 15t-16 41q0 16 9 29t25 22 40 23q32 15 51 28t34 34 13 50q0 48-33 73t-86 25q-30 0-54-6t-40-13-16-7l7-77 33 3m374-156q5 0 19 1t24 1h29l10 9q0 8-2 34t-2 42v78q0 16 2 32t3 21l35 4-4 29q-4 0-22-1t-42-1l-7-39q-25 44-77 44-33 0-51-14t-24-38-6-62v-68q0-6-2-20t-3-18l-33-8 2-26q5 0 18 1t23 1h29l10 9q-1 8-2 34t-1 42v70q0 65 49 65 29 0 46-23t17-55v-72q0-6-2-20t-3-18l-35-8 2-26m228 44q15-24 34-36t47-11q11 0 21 2t13 3l-5 83-29-2v-26q0-4-7-25h-2q-34 0-50 19t-17 56v58q0 16 1 32t2 21l49 4-3 29q-6 0-28-1t-47-1q-13 0-30 1t-25 1l-3-25 38-8q1-4 3-18t2-20v-108q0-6-2-20t-3-18l-38-8 3-26q6 0 20 1t26 1h18l9 9 3 33m286 165q-10 19-32 32t-48 13q-33 0-53-18t-19-46q0-56 67-67l80-13v-17q0-69-47-69-13 0-26 3t-22 7l-3 21v21l-29 1-6-68q45-12 91-12 44 0 63 24t19 82v62q0 16 2 32t3 21l35 4-4 29q-4 0-22-1t-42-1l-7-40m-77-60q-15 2-23 11t-8 22q0 19 9 29t27 11q25 0 44-16t23-41v-30l-72 14" />
</svg>