<svg id="fnt-Syne Mono" viewBox="0 0 2451 1000" xmlns="http://www.w3.org/2000/svg"><path id="syne-mono" class="f" d="M45 561q18 0 20 32l49 41h61l34-28v-40l-18-21-16-11q-13-5-30-11t-37-13l-40-19-31-37v-53l25-40 46-24h82l54 56q-1 48-19 48-18 0-19-34l-38-32h-56l-35 25v40l18 21 25 12q11 4 19 7t13 4q7 3 14 5 3 2 12 5t24 10l24 18 23 33v67l-53 50h-89l-56-35-25-48q0-13-1-19t4-7 16-2m465-144q6 0 3 14t-9 40-19 56-25 65-27 64-27 56-23 40-15 15q-21 0 2-52 22-51-27-175-48-123-27-123t59 99q38 98 76 0 38-99 59-99m166-5h55l37 16 26 40v116q0 83-20 83t-20-78v-137h-90l-35 43q-7 27-7 99 0 73-20 73t-20-125 20-125 20 37q0 37 9 8l45-50m378 174q19 0 13 38l-53 48h-78l-55-33-30-59v-75l29-60 54-33h89l54 72q-3 68-94 68-92 0-89 37l43 44h84q14-47 33-47m-57-136h-60l-36 35q-8 31 62 31t68-32l-34-34m611-108q20 0 20 162t-20 163-20-108q0-106-28 0-28 108-47 108t-48-107q-27-105-27 0 0 107-20 107t-20-163 20-162 57 135 75 0 58-135m213 330h-66l-51-32-28-58v-79l28-59 51-32h66l50 32 29 59v79l-28 58-51 32m-66-39h66l39-48v-86l-39-49h-65l-40 49v86l39 48m296-221h55l37 16 26 40v116q0 83-20 83t-20-78v-137h-90l-35 43q-7 27-7 99 0 73-20 73t-20-125 20-125 20 37q0 37 9 8l45-50m320 260h-66l-51-32-28-58v-79l28-59 51-32h66l50 32 29 59v79l-28 58-51 32m-66-39h66l39-48v-86l-39-49h-65l-40 49v86l39 48" />
</svg>