<svg id="fnt-Syne Tactile" viewBox="0 0 2304 1000" xmlns="http://www.w3.org/2000/svg"><path id="syne-tactile" class="f" d="M158 673q-39 0-63-8-18-7-34-22t-30-27l-3-7 9-38q4 1 7 7t6 7q13 11 26 24t29 18q6 2 18 4t35 2q17 0 27-3t20-11q7-6 12-16t6-18q0-7-1-13t-9-15-26-24q-13-10-29-16t-34-14-34-21-32-38q-11-19-11-36 0-23 10-37t30-22q18-6 34-9t32-3q21 0 40 6t39 19l-16 34q-15-10-30-15t-33-4q-28 0-55 10-15 5-18 8t-3 13q0 2 1 4t6 11q11 18 24 27t28 15 32 14 37 23q21 16 31 32t13 29 4 22q0 17-9 36t-20 29q-16 13-30 18t-36 5m-2 167h-10q-29-2-45-20-10-8-14-21t-1-23 11-13h1l20 27q0 1 4 3t12 4 12 3h10q20 0 42-4t40-10 26-13h1v-1h-1q18-14 28-24t17-18q8-9 10-15t10-15q9-11 17-20t13-15q2-2 3-4t3-4l3-10q3-13 5-25t1-27q0-40-10-76t-31-62q-7-9-17-16t-15-6q-10 0-15 13t-5 37h-27q0-24 6-44t19-30 27-12q23 0 48 34 15 18 25 45t17 56 6 61l-1 5q11-19 19-36t11-28q5-18 7-40t3-44 1-39h1l15 5 20-9h1q0 19-3 45t-9 50-10 43q-5 18-16 40t-24 45-24 40q1 5 0 10t-1 10q-1 9-8 12t-13-2q-6 7-12 13t-9 11q-5 6-10 15t-10 15q-13 15-25 27t-23 20q-19 16-54 27t-72 10m473-166q-7 3-13-1t-8-12 3-16q4-8 6-12t3-5q3-12 7-23t7-21q7-21 13-36t12-28 9-27 3-32q0-2-2-4t-9-8q-3 4-9 11t-14 17q-20 23-35 40t-25 33-25 40q-9 16-17 28t-13 23q-4 6-5 9t-2 4q-1 2-1 4t0 3q-1 10-8 13t-13 0-6-13v-3q-1-3 0-9 1-2 1-4t1-3q2-11 5-22t6-19q11-36 24-70t25-65q1-4 4-10t4-13h0q-4 3-13 11t-18 18-19 17-13 7h-1v-30h1q0 0 7-7t15-15 16-16 10-8q14-10 22-15t12-5 11 6q5 6 5 13t-2 14-4 9h1q-2 8-4 13t-3 11-5 15q-6 15-12 29t-11 29q15-25 30-46t35-43q2-2 8-9t12-15 14-14 10-6h1l10 7q4 4 10 10t11 15 5 23q0 31-6 53t-16 42-17 41q-4 12-7 25 0 0 1 2 2-8 8-19t13-22 11-16 5 0h25q0 5-4 16t-11 22-13 19-8 9q-1 10-6 15t-16 11-28 15m215 1q-12 0-24-3t-17-6q-9-7-20-19t-16-21l-1 0q-4-8-7-18t-3-23q-5 2-10 3t-6 2h-1v-40h1q1 0 6-2t12-4q3-26 11-53t17-48 21-30q4-4 9-6t13-4q9-1 16-1 11 0 22 7t21 17 17 20q14 15 9 25-2 7-7 11t-7 8q-23 26-50 45t-57 36q-2 1-10 4 0 10 1 15t3 11q0 2 8 11t19 17l4 3q3 0 10 1t16 1h8l32-36 21 26-37 43h1q-7 8-25 8m-58-143q17-8 31-16t30-20 32-32l0-1q-6-7-16-14t-18-7q-3 0-7 0t-5 1q-6 1-9-3t-2-6q-8 8-15 23t-12 35-9 40m402 135h-35q0-50 0-105t2-104q1-19 3-37t3-36h-2q-27 2-55 5t-55 4v-40q26 0 53-4t54-5q31-2 64-4t71-1v40q-26 0-49 1t-46 1q-1 20-3 39t-3 38q-1 49-2 104t0 104m236 12q-10 5-14-3-3-7-4-16t0-18q0-23 4-49t9-51 8-40q1-7 2-13t2-13q-1 2-2 4t-2 3l-3 14h-2q0 0-1 0t-1-1q-7 12-13 22t-10 17q-11 20-21 40t-22 39q-8 11-15 20t-14 19q-18 26-25 24-5-1-9-11t-8-24-5-24-2-15q0-16 0-32t2-32q2-13 7-32t14-39 18-35 24-22q5-2 12-2 9 0 20 5t22 13 20 14q10-18 10-25h1q25-1 33-2t8 3q0 0 0 5t0 10q-1 6-2 12t-2 11q-4 13-6 27t-4 27q-3 17-7 38t-8 43-4 42q4-5 9-12t17-22q0-1 3-6t7-11 4-6h2l11 18h10q0 7-4 11-3 3-6 8t-6 10q-9 13-19 26t-22 24q-6 5-10 6t-6 1m-117-56q9-11 15-19t9-13q15-21 23-39t20-37q4-8 10-18t12-20q-11-10-22-19t-21-9q-2 0-2-6t1-7q-10 5-18 19t-13 30-10 33-6 27q-2 14-2 28t0 30h-1q1 3 3 8t2 12m296 54q-8 0-17-3t-16-8q-10-7-15-11t-7-9q-4-6-4-15t-1-13q-2-9-5-19t-5-22q-1-7-1-12t0-10q0-26 6-52t17-46q13-25 32-40t38-14q18 0 35 12 17 12 26 31 2 3 2 6t1 7q0 9-3 16t-3 11h-27q0-8 1-15t3-10q-2-3-5-6t-11-7q-3-2-9-4t-10-1q-13 0-26 9t-20 24q-20 38-20 79 0 4 0 8t1 8q1 6 3 15t6 23l2 23q2-1 6-2t10 3q6 3 16 3 17 0 30-12 11-11 17-16t8-7h2l20 23q-6 10-14 16t-15 14q-25 23-48 23m139-5q-15 0-19-22-2-9-2-20 0-17 3-39t9-44 11-41 11-30q0-1 1-2t1-3h-24v-31h37q6-15 13-32t11-27 5-11h29q0 8-7 28t-17 43q16 0 32 0t30 0h1v31h-1q-17 0-36-1t-39 0q-3 8-6 13t-3 8q-6 14-12 32t-11 38-8 37-3 31q8-3 18-9t18-11 7-1h25q0 7-8 18t-20 21-25 17-21 7m212-302h-2l-14-43h1q11-6 22-13t25-6h1v49h-1q-10 0-16 4t-16 9m-43 295q-6 5-13 6t-12-5-4-23q0-17 4-33t6-24q5-22 8-37t7-27 6-25 9-33q1-2 1-3t1-3q-16 6-29 6v-41q9 0 16-2t22-7q13-5 16-7t9 3q6 5 1 21t-12 44q-6 21-10 35t-7 25-6 26-7 34q-2 7-4 15t-3 14q9-4 17-8t14-7l13 34q-14 9-25 13t-18 9m106 7q-4 0-7 0t-6-1q-12-2-12-32 0-3 0-6t0-6q3-22 7-43t7-40q4-32 10-56t12-46 14-49q3-9 5-15t3-12q-19 10-28 10h-1v-40h1q7 0 26-11 5-3 9-6t5-3q15-6 20-11t6-5q-1 1-3 8t-1 23q1 10-2 25t-8 29-5 19q-9 30-16 52t-12 45-8 48q-3 22-7 43t-7 39v1q14-1 21-6t13-13 14-16 22-12h1l9 38h-1q-5 2-13 9t-18 17-22 16-28 7m214 3q-12 0-23-3t-17-6q-9-7-20-19t-17-21l-1 0q-4-8-6-18t-3-23q-6 2-10 3t-7 2h-1v-40h1q2 0 7-2t11-4q4-26 11-53t18-48 21-30q4-4 9-6t13-4q8-1 15-1 11 0 22 7t21 17 18 20q13 15 9 25-3 7-8 11t-7 8q-23 26-49 45t-58 36q-2 1-10 4 0 10 1 15t4 11q-1 2 8 11t19 17l4 3q2 0 10 1t15 1h9l32-36 21 26-37 43h0q-6 8-25 8m-57-143q16-8 31-16t30-20 31-32l1-1q-7-7-17-14t-18-7q-2 0-6 0t-5 1q-7 1-9-3t-2-6q-8 8-15 23t-13 35-8 40" />
</svg>