<svg id="fnt-Tac One" viewBox="0 0 1383 1000" xmlns="http://www.w3.org/2000/svg"><path id="tac-one" class="f" d="M149 667h-84v-218h-60v-59h210l-16 59h-50v218m281 0h-179q-16-14-23-33t-6-37q0-21 8-41t21-30h90q-4-17-11-32t-17-26v-1h100q7 11 12 33t5 47v120m-85-17v-86q0-5-1-10t0-9q-14 6-25 19t-11 32q0 16 9 32t28 22m248 17h-106q-13-19-22-44t-9-57q0-31 6-54t20-45h106v0q-22 23-34 47t-12 53q0 29 14 53t37 46v1m275 0h-172q-17-34-25-67t-7-71q0-41 8-76t23-63h173q17 33 24 66t7 72q0 41-8 77t-23 62m-84-16q14-26 21-56t6-65-6-64-24-57q-29 53-29 119 0 35 7 65t25 58m233 16h-86v-200h183q14 15 21 42t8 58v100h-85v-95q0-34-11-55t-30-33v183m274 0h-99q-7-11-13-34t-5-46v-120h179q17 13 23 32t6 40q0 18-7 38t-22 30h-89q4 18 11 33t17 26l-1 1m-30-75q17-8 26-22t10-33q0-16-10-32t-27-22v86q0 12 1 23" />
</svg>