<svg id="fnt-Tai Heritage Pro" viewBox="0 0 3366 1000" xmlns="http://www.w3.org/2000/svg"><path id="tai-heritage-pro" class="f" d="M293 413h-11q-1-9-2-15t-3-12-5-8-5-6q-8-8-18-12t-27-4h-47v253q0 15 2 25t5 13q8 10 28 10h12v10h-141v-10h12q11 0 18-2t12-10q3-4 4-13t1-23v-253h-39q-10 0-17 0t-12 2-9 3-7 5q-9 7-14 19t-7 28h-11l4-77h274l3 77m154 206v-86q-29 11-45 20t-25 17-11 16-2 16q0 9 2 16t8 13 10 9 14 3q18 0 49-24m79 1v14q-27 37-53 37-5 0-10-2t-9-6-5-11-2-18q-15 12-25 19t-17 11-14 5-15 2q-12 0-22-4t-17-12-11-18-4-23q0-13 5-24t18-23 38-23 64-26v-9q0-16-3-27t-7-18-14-10-18-3q-6 0-12 2t-11 5-8 8-3 12q0 5 1 9t0 8-1 6q-2 9-8 12t-11 3q-10 0-16-6t-5-17q0-14 7-24t18-18 26-11 31-3q24 0 39 5t23 15 10 24 3 32v76q0 16 0 26t1 13q1 7 4 9t7 3q2 0 4 0t5-3 6-6 11-11m129 47h-110v-10q11 0 18-1t10-6 5-11 2-18v-120q0-16-4-24t-13-9q-7 0-18 4l-3-8 68-27h10v184q0 11 2 18t5 11 11 6 17 1v10m-30-300q0 10-7 18t-18 7-18-7-7-18q0-6 2-10t6-8 7-5 10-2 10 2 8 6 5 7 2 10m536 300h-142v-10h12q21 0 30-12 2-3 4-13t2-24v-101h-154v101q0 17 1 25t5 13q4 5 13 8t17 3h12v10h-142v-10h12q19 0 29-12 6-7 6-37v-214q0-9 0-15t-1-11-3-7-3-6q-2-2-5-4t-7-3-8-3-8-1h-12v-8h142v8h-12q-9 0-16 3t-13 8q-2 2-3 5t-2 7-2 11 0 16v95h154v-95q0-18-2-27t-5-12q-5-5-13-8t-16-3h-12v-8h142v8h-12q-7 0-15 3t-13 8q-3 3-4 5t-2 7-1 11 0 16v214q0 8 0 14t0 10 2 8 3 5q5 7 13 10t17 2h12v10m63-154h104q0-18-5-30t-13-18-16-9-14-2q-10 0-20 3t-16 12-13 19-7 25m148 67l7 5q-2 16-9 32t-20 29-27 20-36 8q-19 0-37-8t-31-24-21-36-8-49q0-28 7-51t22-38 33-24 41-8q19 0 35 6t27 18 18 29 6 38h-155q0 25 7 45t18 33 26 21 31 7q11 0 20-2t18-9 15-16 13-26m93-143h9v50q28-50 58-50 7 0 13 2t10 5 7 9 2 11q0 4-2 8t-5 7-7 5-8 2q-6 0-11-2t-9-6-7-6-8-3q-6 0-15 10t-18 28v108q0 10 2 18t6 14 12 8 20 2v10h-116v-10q10 0 17-1t11-5 6-12 2-23v-87q0-17-1-28t-1-16-2-8-4-5q-2-2-5-3t-7-1q-7 0-16 4l-2-8 69-27m228 230h-109v-10q10 0 17-1t10-6 6-11 1-18v-120q0-16-4-24t-13-9q-6 0-17 4l-3-8 67-27h11v184q0 11 1 18t5 11 11 6 17 1v10m-30-300q0 10-7 18t-18 7-18-7-6-18q0-6 1-10t6-8 8-5 9-2 10 2 8 6 5 7 2 10m171 259h10q-4 12-11 21t-14 15-16 9-15 3q-8 0-16-2t-14-9-10-18-4-30v-155h-36v-8q10-4 21-13t21-20q3-4 5-8t6-9 7-13 9-20h7v74h53v17h-53v149q0 11 2 18t5 11 7 6 9 2q9 0 16-5t11-15m152-7v-86q-29 11-45 20t-25 17-11 16-2 16q0 9 2 16t7 13 11 9 14 3q18 0 49-24m79 1v14q-27 37-53 37-6 0-10-2t-9-6-5-11-2-18q-15 12-25 19t-17 11-14 5-15 2q-12 0-22-4t-17-12-11-18-4-23q0-13 5-24t18-23 37-23 65-26v-9q0-16-3-27t-8-18-13-10-18-3q-6 0-12 2t-11 5-8 8-3 12q0 5 1 9t0 8-1 6q-2 9-8 12t-12 3q-9 0-15-6t-5-17q0-14 7-24t18-18 26-11 31-3q24 0 39 5t22 15 11 24 3 32v76q0 16 0 26t1 13q1 7 3 9t8 3q2 0 4 0t4-3 7-6 11-11m221 76q0-5-3-10t-9-7-19-4-32-3q-27-1-49-2t-36-3q-5 6-9 11t-7 11-5 10-2 10q0 8 7 15t17 11 27 7 34 3q22 0 38-4t27-11 16-16 5-18m-54-171q0-17-3-31t-10-24-15-16-21-6q-8 0-16 3t-14 11-9 18-3 26q0 17 3 31t10 24 15 16 21 5q9 0 16-3t14-10 9-18 3-26m74-62q0 6-2 9t-8 3q-2 0-5 0t-7 0-9-1-13 0q6 9 10 20t3 25q0 15-6 29t-17 24-28 17-37 6q-8 0-17-2t-17-3q-7 5-13 13t-5 14q0 5 3 9 3 2 6 4t13 2 25 2 44 0q4 0 11 1t17 2 17 5 16 9 12 15 5 21q0 17-10 33t-26 28-40 20-50 7q-18 0-36-4t-31-11-22-15-9-17q0-5 2-10t7-13 14-17 22-23q-11-7-17-13t-6-14q0-5 1-9t6-11 12-14 20-19q-11-5-19-12t-13-17-8-19-2-20q0-16 6-30t17-26 28-18 38-6q14 0 24 2t19 6 18 6 20 3 17-1 11-1q3 0 6 1 3 1 3 10m63 50h104q0-18-6-30t-13-18-16-9-14-2q-10 0-19 3t-17 12-13 19-6 25m147 67l8 5q-3 16-10 32t-19 29-28 20-35 8q-20 0-38-8t-31-24-21-36-8-49q0-28 8-51t21-38 33-24 42-8q18 0 34 6t27 18 18 29 7 38h-155q0 25 6 45t18 33 26 21 31 7q11 0 21-2t17-9 15-16 13-26m269-220v140q12 2 22 2t17 1q13 0 25-5t20-15 13-22 5-29q0-15-4-29t-14-25-22-17-30-6q-6 0-14 1t-18 4m47 297v10h-141v-10h12q10 0 18-3t12-10q2-3 3-13t2-23v-214q0-15-2-25t-5-14q-9-11-28-11h-12v-8h121q12 0 25 0t25 4 23 6 20 10q8 6 15 13t12 16 8 19 3 23q0 19-6 36t-19 29-36 19-55 7q-6 0-11 0t-9 0-10-1-12-1v92q0 15 1 25t6 13q5 6 12 8t16 3h12m199-220h10v50q28-50 58-50 6 0 12 2t10 5 7 9 3 11q0 4-2 8t-5 7-7 5-9 2q-6 0-10-2t-9-6-8-6-7-3q-6 0-15 10t-18 28v108q0 10 2 18t6 14 12 8 20 2v10h-117v-10q11 0 18-1t11-5 6-12 1-23v-87q0-17 0-28t-1-16-3-8-3-5q-3-2-6-3t-7-1q-6 0-16 4l-2-8 69-27m288 132q0-24-5-46t-14-37-22-25-29-9q-9 0-19 4t-18 14-13 26-5 41q0 24 5 45t14 39 22 26 29 9q12 0 22-4t18-15 11-27 4-41m46-18q0 21-7 43t-21 40-35 29-48 11q-23 0-43-10t-33-25-22-38-8-44q0-23 8-44t21-39 34-27 46-10q24 0 44 8t34 25 22 36 8 45" />
</svg>