<svg id="fnt-Tajawal" viewBox="0 0 1498 1000" xmlns="http://www.w3.org/2000/svg"><path id="tajawal" class="f" d="M109 382h-96v-32h238v32h-105v285h-37v-285m337 147v138h-25l-5-25q-30 31-76 31-34 0-55-20t-20-51q0-78 114-78h34v-3q0-59-58-59-33 0-63 22l-11-19q34-31 84-31 39 0 60 24t21 71m-33 81v-61h-30q-82 0-82 50 0 22 12 34t36 12q20 0 39-10t25-25m113-170h33v260q0 29-15 46t-40 16q-28 0-52-17l12-19q16 9 33 9 29 0 29-37v-258m-6-74q0-9 7-15t15-7 16 7 6 15q0 9-6 15t-16 7q-9 0-16-7t-6-15m287 163v138h-25l-5-25q-30 31-76 31-34 0-55-20t-20-51q0-78 114-78h34v-3q0-59-58-59-33 0-63 22l-11-19q34-31 84-31 39 0 60 24t21 71m-33 81v-61h-30q-82 0-82 50 0 22 12 34t36 12q20 0 39-10t25-25m240-130l-55 187h-36l-75-227h36l57 188 54-188h39l52 188 57-188h36l-76 227h-36l-53-187m373 49v138h-25l-5-25q-31 31-76 31-35 0-55-20t-21-51q0-78 114-78h35v-3q0-59-58-59-33 0-64 22l-11-19q35-31 84-31 40 0 61 24t21 71m-33 81v-61h-31q-82 0-82 50 0 22 13 34t36 12q20 0 38-10t26-25m110-248l33-18v323h-33v-305" />
</svg>