<svg id="fnt-Tangerine" viewBox="0 0 1211 1000" xmlns="http://www.w3.org/2000/svg"><path id="tangerine" class="f" d="M405 373q3 3-1 8-8 11-12 10-6-2-12-4t-12-3q-28 2-50 29t-40 84q-26 85-72 127t-112 42q-18 0-31-5t-21-12-13-18-4-21q0-30 30-50 2 0 2 2t0 4q-7 5-11 11t-3 18q0 26 18 40t53 15q24 0 44-6t36-23 31-42 28-66q18-56 43-91t56-42q-33-9-69-14t-72-5q-28 0-50 9t-36 25-21 36-3 44q-3 4-6 0-3-24 4-48t23-42 43-29 63-11q53 0 97 8t80 20m19 262q1-1 2 0t1 3q-10 15-21 22t-17 7q-4 0-7-5t-4-12 1-18 4-20q-13 21-28 36t-29 19q-9 0-16-9t-6-27q0-17 7-33t18-30 27-21 31-8q9 0 16 2t12 6q3-2 8-5t10-2q2 0 1 3-11 14-20 31t-12 33-6 28 2 17q2 3 9 0t17-17m-87 15q5 0 14-8t18-20 19-29 16-31q-2-7-9-11t-17-4q-11 0-21 6t-17 16-12 24-4 31q0 11 3 18t10 8m240-15q1-1 3 0t1 3q-9 11-19 20t-19 9q-16 0-16-20 0-17 6-38t17-42q2-3 2-7 0-5-5-5-19 0-41 25t-41 80q-1 3-6 5t-8 2q-6 0-4-5 8-21 17-48t17-54q2-9-4-9-5 0-10 5t-10 13q-1 1-3-1t0-3q5-8 15-17t20-9q13 0 9 17-2 11-6 23t-7 24q7-13 16-25t20-21 20-13 20-5q6 0 9 3t3 7q0 6-3 13-10 19-18 39t-7 39q0 12 8 12 11 0 24-17m117-103q2-1 3 0t1 3q-4 6-10 11t-15 4q4 8 4 20 0 11-3 21t-8 18-10 16-7 15-3 16 6 19q5 8 8 15t7 13 4 13 1 14q0 12-5 22t-14 19-23 13-31 5q-17 0-31-5t-24-13-15-19-5-22q0-15 11-27t31-16q2 0 3 1t-1 4q-10 4-17 12t-6 21q0 26 17 41t46 16q24 0 36-13t11-31q0-12-3-21t-11-20q-9-16-8-31t10-31q1-2 2-4t3-4q-6 6-13 11t-12 4q-25 0-25-32 0-10 4-23t11-23 17-18 22-7q18 0 27-1t15-6m-40 83q3-7 5-14t2-15q0-15-5-23t-15-8q-12 0-20 12t-8 34q0 14 4 21t15 6q5 0 12-3t10-10m135-54q0 7-5 13t-15 10-22 9-26 8q0 5-1 11t0 12q0 12 6 21t15 8 19-5 16-13q2-1 3 0t0 4q-9 11-22 19t-26 9q-13 0-22-9t-8-25q0-15 6-32t14-30 21-23 25-9q9 0 16 6t6 16m-33-9q-11 0-20 10t-13 31q24-3 35-10t11-15q0-7-3-12t-10-4m94 1q0 7-2 17t-4 20q10-24 22-38t26-13q6 0 10 3t5 8q0 4-3 10t-6 10q-3 2-3-2 0-8-12-8-17 0-31 26t-27 73q-1 5-7 6t-9 2q-6 0-3-6 5-10 9-23t7-24 7-25 4-22q2-15-5-15-4 0-10 5t-9 10q-2 1-4 0t0-3q7-10 16-18t18-7q11 0 11 14m63 21q-2 1-3-1t0-3q7-7 19-16t24-15q4 0 4 4-7 12-13 25t-11 27-8 25-3 21q0 10 7 10 6 0 11-5t12-12q1-1 3 0t0 4q-9 11-19 20t-19 9q-13 0-13-17 0-9 3-23t8-26 11-26 13-22q-6 4-14 10t-12 11m45-57q-2 2-3 0t-2-3 0-5 1-5q13-18 37-39 1 0 3 1t0 2q-10 10-20 23t-16 26m144 118q2-1 3 0t1 3q-8 11-19 20t-19 9q-15 0-15-20 0-17 6-38t16-42q2-3 2-7 0-5-5-5-18 0-41 25t-41 80q-1 3-5 5t-9 2q-5 0-4-5 9-21 18-48t16-54q2-9-3-9-5 0-10 5t-11 13q-1 1-2-1t-1-3q6-8 15-17t21-9q12 0 8 17-2 11-5 23t-8 24q7-13 17-25t19-21 21-13 19-5q6 0 9 3t4 7q0 6-3 13-11 19-18 39t-7 39q0 12 8 12 10 0 23-17m108-74q0 7-6 13t-15 10-22 9-25 8q-1 5-1 11t0 12q0 12 5 21t16 8 18-5 16-13q2-1 3 0t0 4q-8 11-21 19t-27 9q-13 0-21-9t-8-25q0-15 5-32t15-30 20-23 25-9q10 0 16 6t7 16m-33-9q-12 0-21 10t-13 31q24-3 35-10t12-15q0-7-4-12t-9-4" />
</svg>