<svg id="fnt-Tapestry" viewBox="0 0 1942 1000" xmlns="http://www.w3.org/2000/svg"><path id="tapestry" class="f" d="M38 667h0q-2 0-2-2 0-2 2-5t5-2q7 0 14 0t11 1q19 0 30-2t16-8 9-18 7-31q3-11 5-27t5-32 5-30q4-27 8-53t5-45q1-5 1-9t0-7q0-16-8-21t-31-4q-31 0-49 19t-30 54q-1 1-2 1-1 0-3-2t-1-3q2-6 5-17t6-23q4-15 8-27t10-20 20-7q20 1 51 3t63 2q19 0 33 0t31-2 37-2q14-1 19 4t6 17q0 3 0 5t-1 7q-2 18-2 30t-2 33q0 3-3 3-4 0-4-6 0-3 0-6t0-6q0-30-13-41t-32-12q-25 0-37 3t-15 11-6 21q0 0-3 15t-5 40-8 49q-3 25-6 47t-3 36-1 14q0 3-1 7t0 8q0 10 3 18t13 10q4 1 14 1t23 1 24 1 18 0h0q3 0 3 2t-3 4-5 3q-13 0-34-1t-44-1-42 0q-7 0-14 0t-11 0q-7 0-22 1t-33 0-34 1m355 3h-53q-9 0-16-6t-10-15-5-16-1-13q0-22 9-37t26-24 34-14 38-7 33-1q0 0 1-9t2-17q1-9 0-20t-6-19q-1-1-4-5t1-5q1-1 2-1 3 0 7 6 4 5 5 14t1 18q0 3 0 6t0 7q-1 8-2 16t-1 9q1 1 2 1 6 0 7-5 1-7 2-20t1-25q0-18-5-33t-19-15q-10 0-18 4t-15 10q-9 9-13 20t-6 21-7 15q-7 7-12 9t-13 7q-3 1-8 3t-8 3q-4 0-6-3t-2-11q2-11 3-24t4-16q6-11 18-19t28-14 29-8 26-4q21-1 40 5t30 18 12 32q0 6-2 14-5 21-8 43t-6 44q0 5-2 15t-1 20q0 12 3 21t12 11q5 1 14 2t16 0 12 0h0q3 0 3 2t-3 4-5 3q-18 0-35-1t-35 0q-9 0-18 0t-17 1h-5q-6 0-6-3 0-2 0-5t2-6q3-11 6-27t6-33 4-28 2-16v-1q0-3-3-4t-5-2q-2 22-9 44t-15 41-18 31-18 12m1-32q15 0 25-11 8-9 13-23t9-26 5-24 2-12q-3-1-6-1t-5 0q-13 0-24 4t-20 10q-11 8-19 22t-8 29q0 9 4 17 3 8 10 11t14 4m136 124h-1q-3 0-3-5 0-5 3-5 9 1 15 1t14 1q10 0 17-9t12-22q4-9 8-28t8-44 7-53 7-52 4-44 2-27q0-20-12-24t-30-5h-17q-6 0-6-2t2-5 6-1l31 0q18 1 37 1t37 1q7 0 12 0t11-1q11-1 21-3t21-2q9 0 17 2 29 7 41 28t12 56q0 15-3 35t-9 40-17 37-29 27-42 11q-21 0-29-14t-7-34q0-10 1-20t3-21q6-29 13-63t14-65q-4 0-7 1t-7 1q-2 6-9 37t-16 85q-4 23-8 48t-6 48-5 39-1 24q0 8 10 12t23 5 25 2q6 0 11-1t8 0h0q3 0 3 3 0 5-7 5-2 0-12-1t-23 0-29-1-26 0q-4 0-17 0t-28 0-29 1-21 1m177-104q19 0 29-15t14-39 4-46q0-19-1-35t-3-24q-4-20-13-34t-22-14q-3 0-7 1-8 32-13 57t-8 35q-2 11-4 28t-3 36q0 20 6 35t21 15m206 13q-15 0-30-6t-24-19q-10-15-15-34t-5-39q0-35 13-64 9-22 26-39t37-28 40-11q11 0 21 4t19 11q5 4 8 8t7 8q2 4 2 7 0 3-2 6-7 8-14 22t-10 29q3-1 17-2t26-1q4 0 7 0t6 1q7 0 7 4t-7 2q-2-1-5-1t-6 0q-8 0-18 1t-17 2-10 2q0 2-1 3-1 8-5 8-3 0-2-7 0-1 0-3-28 5-51 13t-43 20q9 35 26 48t36 14q17 0 31-8t23-16q2-1 3-1 1 0 1 2t-4 7-11 9-11 8q-10 7-18 18t-20 17q-13 5-27 5m-31-118q22-8 47-16t51-10q1-37-13-54t-32-18q-13 0-26 9t-20 27-8 44q0 4 0 9t1 9m203 123q-15 0-27-4t-21-13q-3-4-9-10t-6-13q0-4 2-6 7-10 14-19t14-27q1-4 2-9t5-3q1 1 0 8t-1 11q0 17 8 30t23 23 30 8q13 0 25-7t20-19 8-29q0-13-8-20t-19-11-23-5-21-2q-29-2-45-15t-15-26q0-16 12-31t30-27 42-20 44-7q17 0 31 5t25 16q6 6 6 12 0 4-2 8t-4 9q0 0-4 5t-11 13-10 17q-2 5-4 5-1 0-1-3 0-2 1-5 1-1 1-5t1-9q0-10-5-23t-20-20q-11-6-23-6t-25 5-19 16-8 24q0 18 11 26t26 10 29 2q16 0 30 2t23 9 9 23q0 21-13 41t-35 34-46 24-47 8m246-6q-27 0-39-14t-12-43q0-5 0-10t1-11q4-37 9-71t10-67h-32q-2 0 0-4t5-8 5-3h24q1-7 1-12t1-13q0-15-5-20t-18-5q-4 0-8 1t-9 0h0q-4 0-4-4t4-4h20q16 0 37 0t38-1q4 0 4 4 0 2-1 6t-1 11q-1 3-3 11t-5 25h76q4 0 2 4t-6 8-6 4h-68q0 2-2 16t-5 34-6 43-6 41q-1 7-2 16t-1 19q0 12 4 21t17 9q15 0 25-15t18-35q5-16 9-33t4-27q0-4 4-4 5 0 3 6l-7 37q-5 22-12 41t-20 32-34 15q-2 0-5 0t-4 0m102-3q-4 0-9 0t-10 0h0q-2 0-2-2 0-2 3-5t4-2q7 0 12 0t9 0q13 0 20-4t12-17 11-41q4-19 6-41t4-42 2-35q0-5-1-12t-5-12-12-6q-9-1-23-1t-22 0q-3 0-3-3 0-2 1-4t5-2q23 0 46-1t46 0q7 0 14 0t13 0q6 0 6 2 0 1-1 2t-1 4q-1 5-3 15t-5 23-5 23-3 16q-5 35-9 64t-4 48q0 15 4 15 3 0 4-4 3-14 6-35t8-44 9-48 14-44 21-31 29-12q10 0 18 2t15 2q7 0 12-2t8-3q1-1 2-1 1 0 1 1 0 3-1 4-3 6-10 17t-15 19-13 11-11 3-11 1-11-1-12-1q-9-2-16 8t-12 28-9 38-6 41-6 35-6 22q6 1 15 2t18 1 13 0h0q3 0 3 2t-3 4-5 3q-21 0-42-1t-40-1q-5 0-11 0t-10 0q-10 1-20 1t-26 1m268 109q-10 0-18-2t-12-5q-3-2-9-8t-5-10q0-3 1-5 4-6 8-10t8-8 7-16q1-4 1-8t4-2q1 0 1 3 0 2 0 6t-1 6q0 7 3 13t6 11q4 5 9 7t12 2q18 0 30-12 28-28 28-64 0-14-5-27-6-19-15-44t-17-49-17-44-10-28q-6-14-11-22t-13-11-22-3h-1q-2 0-2-2t2-4 4-2q20 0 42 0t46 1q25 0 33-1t13 0q1 0 1 1 0 2-3 5t-4 3q-6 0-14 1t-13 4-6 11q0 2 0 3t1 3q6 24 14 48t18 48 16 42q13-30 23-59t23-58q7-15 7-25 0-10-6-14t-14-4-15 0q-2 0-2-1 0-2 3-5t5-3q4 0 11 0t22 0h21q25 0 36 0t15 0q1 0 1 2t-2 4-4 3q-1 0-4 0t-5 0q-7 0-17 4t-19 20q-7 14-17 36t-20 49-22 54q-10 24-20 48t-20 45q-10 19-21 36t-28 27-41 10" />
</svg>