<svg id="fnt-Taprom" viewBox="0 0 1344 1000" xmlns="http://www.w3.org/2000/svg"><path id="taprom" class="f" d="M312 302l3 1q2 4 1 10 0 2-3 5-1 2-2 3t-2 3q-5 4-6 6-1 2-4 3-8 4-13 4-3 0-6-1t-8 0q-6 0-9 1t-8 2q-1 0-2 0t-1 1-1 0-2 0q-3 1-5 1-2 0-4 2-2-1-3 0 0 0-3 1-3 1-4 1t-3 2q-2-1-4 0-2 0-3 0t-2 1q-4 1-7 1-2 1-5 2 0 2-1 3t-1 3q-3 3-5 7-1 5-5 8l-3 5q-2 3-4 4-1 5-3 7-3 3-4 6-4 6-9 18t-8 19q-2 6-5 11t-6 10q-2 9-5 16t-6 15q-7 14-13 29-3 6-3 6t-1 3q-3 2-4 6-1 3-2 7-1 1-4 4 0 1-1 3t-1 3-1 2-1 3q-1 2-1 4 0 2-1 3-3 5-3 7 0 1-1 3-1 3-3 7t-1 5q-2 4-4 7 0 3-1 5 0 0-1 1t-1 2q1 4-1 9-1 2-3 4t-2 4q-3 8-5 11-2 3-3 6-3 7-4 8-2 2-3 5l-5 10q-2 5-5 9v4q0 2 0 5-1 2-4 5t-3 3q-5 0-7 1-2 0-4 0-2-1-5-3t-4-3q-3-4-5-6t-5-5q-5-4-5-11 0-3 1-7t5-4q6-12 8-19 2-4 3-8t4-8q1-2 1-3t2-5q1-2 1-4t2-4q1-4 3-7t5-8q3-6 7-14 3-6 8-14 1-3 3-5t2-5q1-3 0-5 0-2 0-5 0-3 3-5 2-2 2-5l5-8q1-1 2-3t2-4q3-4 4-6 0-2 2-5 2-3 2-5 2-4 3-7t4-6q1-5 3-8t5-7q2-6 5-12 2-2 3-5t3-6q2-5 4-14t5-14q6-11 12-22 2-6 5-12t6-11q-4 0-7 0t-8 0q-8 1-14 0-2 0-3 0t-3 1q-2 0-4-1t-5 0q-4-1-9 1-3 1-5 1t-5 1q-7 2-8 4t-6 3q-2 1-5 0-2 0-5 2-5-1-10-5t-7-9q-1-2-3-2-2 1-2-2-1-4 0-8 0-1 1-2 1-1 1-3 4-1 7-1t6-3q8-1 13-3 3-1 6-1t8-2q5-3 5-2 0 0 1 0l11-3q7-1 14-3 6-1 11-1t12 0q8 1 17 0l17-2q1-1 3-1t2-1l4 0q1-1 2-1t3 0q2 0 4-2 9-2 17-3t15-3q6-1 15-3t17-3q8-1 13-2 5-1 14 0 4 0 6 0 1 0 3 1t4 0q1 0 3 1t3 1q5 1 8-1m16 229l-1 4q1 2-1 6-2 3-3 6 0 2-1 3t-1 4q-1 3-1 7 0 2 0 4t0 4q-1 5-2 10t-1 11q0 5-1 12t-2 12q2 4 3 7 0 4 3 7 10-2 16-5t11-9q4-2 6-4 2-1 6-3l4-4q5-3 6-4 1-1 1-1t2-1q9-6 13-11 4-3 6-7 2-2 8-5 3-4 7-6t7-7q3 0 4 1 0 1 1 1t2 1q2 4 1 8t-4 8q-2 3-2 4 0 0-1 1-1 1-3 3-3 2-4 4-2 4-4 4t-2 1q-5 3-6 4-2 2-6 4-5 3-6 4t-2 1q-6 7-12 11-5 4-11 11-2 2-4 3t-3 4q-5 3-7 6t-6 7q-3 1-7 4-4 3-7 5-1 1-4 2-3 1-5 1-5 1-11-1-4-1-9-3-2-3-5-5-4-5-6-12t-4-16q-4 3-7 6-3 4-9 7-5 4-10 9t-11 9q-5 4-11 8t-11 9q-4 4-5 3-5 6-16 4-4-2-9-4-3-1-8-3-8-1-14-7t-9-14q-2-4-2-7-1-2-1-4t-1-4q0-4-1-6-1-3 0-5-1-2-1-4 1-2 1-3-1-7 1-15t4-14q2-2 4-5 2-1 2-3 0-1 1-2 1-2 3-3 3-2 4-3 1-2 2-3t3-3 3-3 3-3q2-2 3-3 1-2 4-3 2-4 4-6t5-4q9-11 21-18 12-7 22-15 3-2 6-4t5-4q6-5 13-3l13 3q4 5 9 9t8 10q2 0 4 0t4 0q4 0 9-1 2 0 3-1t3 0q7 2 7 7m-65 7q-13 7-23 15t-21 18q-1 2-3 3t-2 2q-1 1-3 2t-2 3q-2 2-3 6t-4 6q0 1-1 2t-1 1-1 1-1 2q0 2 0 5 0 1 0 5v5q0 1 0 5 2 5 2 11 0 3 1 9t3 8q4 2 6 1 4-2 6-2 17-13 32-27t27-33q-1-12 0-25 1-12-2-22-2-1-5-1-2 1-5 0m250 72q9-2 17-4t17-3q8-1 16-3l7-2q2-1 3-2t3-1q4-1 7-1t6-2q4 3 3 4t1 1l-4 7q-2 1-5 2-2 0-5 1-2 2-3 2-1 1-2 1-2 1-3 0-1-1-2-1-12 8-27 11-15 3-29 7-4 3-9 5t-11 6q-3 8-11 15t-14 13q-2 2-3 2-1 1-2 1t-1 1q-2 1-4 1t-3 2-4 0-4 1q-3 3-5 3-3 1-6-1-3-1-6-2-3-4-3-6 0-1-2-1-1-5-6-10-4-4-6-9-1-2-2-4t-1-4q1-6 5-9t8-7q3 5 5 4t3-2q2-1 5-2l3 0q7-2 15-3 6-1 9 0 3 1 7 0 3-5 7-9t7-7q2-6 6-13t8-13l4-9q1-1 2-1t2-3q1-4 0-8t0-8q-5-3-10-7-3 1-5 0t-6 0q-1 0-3 1-1 1-1 1t-2 1q-5 2-10 4-5 2-8 6-3 3-5 5t-4 5-3 4-4 4q-2 2-4 3t-2 2q-1 2-2 3t-3 3-3 3q-3 2-5 5-2 2-3 3t-3 2q-3 3-5 8-2 3-5 7l-9 16q-3 8-6 15t-7 15-6 14-6 16q-1 5-1 5t-1 1q0 2-1 4t0 4q-1 3-3 6-1 4-3 8t-3 8q-4 8-6 15-3 8-6 15-1 3-2 5t-2 6l-4 11q-1 2-2 5 0 2 0 3t-1 3q-1 5-4 11-2 7-2 12-7 7-10 11-5 6-11 10t-13 7q-5 0-13-1t-7-6q0-5 0-12t3-11q2-6 5-11t4-8q3-13 7-21 1-3 2-5t3-5q3-5 4-10 2-4 2-8t3-6q3-9 8-16t11-15q2-4 4-8 2-4 5-8 4-7 7-15 3-9 8-16 1-2 3-5t2-5l5-9q1-2 2-5t1-5q2-3 3-5t3-5q4-9 9-19t10-19q1-5 3-10 1-2 2-4t2-5q2-4 2-9 1-5 2-8 1-4 3-7 3-3 5-7 0-1 1-2t1-1 1-2 1-1q1-3 2-6 0-1 3-4 5-7 7-8 1 0 3-1t2-2q10 0 13 5t4 10q-1 4-2 8t-2 9q2-1 4-3t5-4q4-4 8-8 4-2 8-5t8-5q8-6 18-10 2-1 5-2t5-1q2 0 4 1 3 2 5 2 3 3 5 5 3 1 6 5 2 2 3 6 0 1 1 3t1 4 1 3 2 3q1 4 2 7 0 1-1 5t0 5q0 2 0 2t0 4q0 5-4 13l-5 12q-1 2-2 4t-2 3l-3 7q-3 6-5 10t-4 9m202 18q2-3 3-4 1-1 3-2 6-13 16-20t21-17q2 0 4-2t4-3q3-2 6-4 2-2 4-4 5-3 10-7 5-5 10-9 4-1 8 1 2 4 2 9t-5 4q-1 2-3 3t-4 2q-5 1-7 4 0 5-1 6t-1 2q-5 9-12 15t-13 16q-2 2-4 5-9 5-13 8t-7 6q-3 2-3 3 0 1-1 2-5 4-6 6t-2 4q-3 1-4 3t-3 3q-3 3-7 4-4 3-12 8t-17 7-14 0l-3-2q-1-1-4-2-3-4-7-7-3-3-6-7-4-5-5-11-1-5-4-11-1-12 2-21 3-8 6-15t7-13q8-12 11-28-6-6-6-10-1-3-1-6t-2-7q-13 8-23 21t-19 26l-6 10q-3 5-6 9-3 3-3 3t-1 2q-2 2-3 4t-1 3-1 2-1 1q-2 2-3 3t-2 3q-7 10-13 18l-11 18q-3 4-5 8-1 5-5 8-4 0-5-2t0-3q-6-4-6-15t2-18q-2-5-1-5t0-2q7-8 13-17t14-17q1-1 3-3t2-4q2-3 5-6 4-7 10-15 6-7 9-15 3-2 4-5 1-3 4-5 2-3 3-6t3-5q1-5 5-9 1-4 2-6t4-4q1-2 3-4t4-4q1-4 2-5 2-1 2-3 2-3 4-5t5-7q7-4 9-4t4-2q2 0 5 0t5-1q5 0 6 4 0 1 0 2-1 1-1 2t0 1q0 5 0 5-1 1-1 1 0 2 0 3 0 1 0 5 0 2 0 3t-1 3q0 2 2 5 1 2 3 3t3 3q2 1 2 3t2 3q1 1 3 2t3 4q2 2 1 2 0 1 3 2 5 7 8 15 3 7 5 10 3 4 0 8-1 1-3 6-2 2-4 5-1 1-1 3-1 2-2 4-4 7-9 12t-8 12q0 14 5 21 6 7 8 7 3 0 7-2l6-4q1-1 2-1t1-1q2-1 4-1 5-2 5-2-1 1 0 1m291-102q3 0 3 1 1 2 3 2 1 5-2 6t-2 6q-4 3-11 4-6 1-9 5-9 4-18 5-5 1-10 1t-10 2q-5 4-7 4-1 0-3 2-5-2-11-2t-10-2q-3 1-6 1t-6 1q-1 5-1 9 0 5-2 9l-3 6-1 4q0 3-1 5-1 1-2 3t-1 5q-4 4-5 9-2 5-6 8-1 5-4 8-3 3-6 7-6 7-10 13t-11 9q-2 4-6 5-2 3-4 5l-9 6q-6 4-12 5-8 2-16-1t-14-6q-5 0-7-2-3-2-7-3-5-5-12-9-6-4-9-11l-2-11q-1-4-2-9-1-5-1-10 1-4 1-9 0-3 0-5t-1-4q0-4 3-9 1-4 2-6t2-5 0-4 1-3q1-1 2-3t1-2 2-3 2-3q3-4 7-9t7-8q3-4 6-6 4-5 8-8t9-7q1-2 2-3l3-2q5-3 9-5t10-4q4-2 7-3 2 0 4-1t5 0h6q3 0 5-1-2-4 3-6t7-1q5 0 8 2t6 6q5 3 10 10 2 1 3 1t2 2q2 3 3 5 1 3 3 5 2 1 3 3t2 4q5 2 9 3 2 1 5 0 3 0 7 0 2 0 4 1 2 1 4 1 4 0 8-2 5-1 10 0 7 1 15-2 8-3 17-4 2 0 3 0t3-1q3-2 7-3t8-1m-140 14q-4-4-5-5-1-2-2-2-2-2-5-3-1 0-3 0t-2-1q-8-1-13 2-3 2-5 3t-5 3q-8 5-14 12-1 3-3 6t-3 6q-2 4-3 7t-2 8q-3 4-3 8-1 2-1 3t0 3q-1 2-1 5t-1 5q-1 6-1 9 0 1 1 4t2 3q1 3 2 6t3 4q2 4 6 5 2 0 4 1t5 1q5 3 7 2 2 0 3 0 6-1 11-5 4-4 10-7 2-3 4-6t4-7q3-3 5-6t4-7q1-2 2-5 1-1 1-2t1-2q4-4 4-4t0-2q3-7 3-11t0-8q-1-3-2-5t-2-7q-2-6-6-11m117 65q2-1 4-3 1-1 3-3 1 0 1-1t2-1 2-1 1-1q7-4 11-9 5-5 11-10 3-3 6-7t7-6q6-6 12-14 8-6 14-13 5-3 8-5t8-6q2-3 5-6t7-6q4-4 9-6t8-6q8-4 13-1t10 6q1 5 6 10 0 1 1 1t1 1q1 1 1 4 0 6-2 11-1 3-1 6t-1 5q-1 4-1 7t-1 7q0 6-2 13 3 4 5 8 2 5 4 8 2-1 5-4 1-1 2-2t4-2q3-2 5-4 2-2 4-4t3-3q4-3 7-7 2-2 3-3t4-3 3-3 4-4q2-1 4-4t3-4 3-4 4-4q2-2 3-2 2-1 3-3 4-2 7-6 2-3 7-5 5 0 6 0t5 4q2 1 4 5t3 4q5 9 7 11 2 4 1 8l-2 8q-1 3-1 5t0 2-1 2 0 3q-3 17-9 33 0 3 2 7 1 3 1 8 3 1 5 0t5-1q10-4 20-10 6-5 13-10 7-5 13-9 2-2 4-4t4-4q5-4 9-6t10-5q2-1 4-3t3-3q3-3 7-5t8-5q7 0 7 2l1 5q-6 4-12 9t-11 9q-2 1-3 2t-4 2q-2 1-2 2t-4 3q-1 1-3 2t-2 3q-3 2-6 4-3 3-6 5t-6 5q-2 3-4 6-1 2-5 5-2 1-4 2l-4 3q-1 3-1 5 0 2-3 5-4 3-5 5t-2 2q-1 1-3 2-1 0-2 1t-2 1q-2 1-5 3-1 1-2 2t-2 2q-2 1-4 2t-3 2q-2 2-7 3-5 3-7 3-1 0-5 0-1 1-2-1t-3-1q-3-3-5-3-2 1-3 0-5-6-5-8 0-2 0-3t0-4q-1-7-2-15t-2-15q0-4 1-7 1-3 1-6 0-1 0-4t-1-3q1-4 2-7 1-3 0-7-3 4-6 6t-4 4-3 4-3 3q-8 5-13 9-5 4-13 7-3 3-7 7t-6 5-7 6-6 6q-8 11-18 16-3 1-5 1t-4-1q-10-6-12-15t0-21q-2-4 1-13t1-12q0-4 1-8t3-8 2-7 1-8q2-3 1-5t-3-3q-9 4-16 11t-16 13q-2 2-4 4t-3 3q-2 2-4 3t-4 4l-8 6q-4 4-7 7-3 5-5 6l-3 3q-2 1-4 3-1 0-3 2-1 1-4 2l-4 2q-3 2-6 5t-6 6q-2 2-4 4-3 2-4 3-3 5-7 9-2 2-4 4t-3 5q0 2-3 4l-4 5q-1 1-2 2t-3 2q-2 2-4 4l-4 0q-2 1-4 2-1 0-3 1t-3 1q-3 1-7 1l-6-1q-2 0-5-2 0-4-2-5 1-7 3-12 2-5 3-11 4-5 6-11t5-12q2-6 5-13l5-12q1-3 2-5t1-5q2-6 4-9 3-5 4-7 5-7 5-14 3-3 4-8 1-5 3-9 1-2 2-4t1-4q0-3 0-4 0-2 1-5 1-1 2-2t2-2 2-2 2-2q2 0 3-3 2-2 3-3 6-1 7-2 0-1 1-1l7-4q1 0 2 0t1-1 2-1 1-1 2 0 1-1q2-1 4-3t4-3q5 2 8 6t2 11q0 3-1 5t-2 4q-1 2-1 5t-1 4q-4 6-5 9-1 4-2 6-2 3-4 7-1 3-2 6t-4 5q-2 2-3 3-2 2-3 4-2 2-3 5t-4 5q-3 5-7 10l-5 9q-3 5-5 11" />
</svg>