<svg id="fnt-Tauri" viewBox="0 0 1164 1000" xmlns="http://www.w3.org/2000/svg"><path id="tauri" class="f" d="M107 667v-335h-91v-49h241v49h-90v335h-60m187-76q0-44 32-68t91-24h35v-15q0-13-3-23t-9-17-18-11-26-3q-11 0-21 2t-19 4-18 7-21 9v-49q10-4 20-8t21-6 24-4 27-1q52 0 77 26t25 76v117q0 9 0 17t1 15 2 16 5 16h-61q-2-7-3-15t-2-15q-13 16-31 26t-44 9q-19 0-34-6t-27-18-17-26-6-31m60-8q0 8 3 16t7 14 14 10 20 3q15 0 29-6t25-18v-63h-33q-18 0-30 3t-20 9-11 14-4 18m239-17v-176h59v174q0 32 11 47t34 15q16 0 30-7t25-22v-207h59v277h-52l-4-30q-11 16-29 26t-46 9q-43 0-65-26t-22-80m301 101v-277h52l3 32q14-18 33-28t43-10q10 0 14 2v62q-9-4-20-6t-22 1-23 7-21 17v200h-59m229-338q-9 0-16-3t-12-8-8-11-3-16 3-15 8-11 12-8 16-2q18 0 29 10t10 26-10 27-29 11m-29 338v-277h58v277h-58" />
</svg>