<svg id="fnt-Teachers" viewBox="0 0 1895 1000" xmlns="http://www.w3.org/2000/svg"><path id="teachers" class="f" d="M148 666h-35v-307h-103v-33h240v33h-102v307m208 4q-33 0-61-14t-43-40-17-60q0-32 16-58t41-42 58-15q31 0 57 15t42 41 16 57v14h-208v-33h171q-6-25-28-42t-50-17q-23 0-41 11t-28 29-10 43q0 23 12 40t29 27 38 9q16 0 29-3t24-11 21-18l26 22q-11 14-27 24t-33 16-34 5m251 2q-31 0-55-17t-38-42-14-56q0-31 14-57t38-42 55-16q27 0 48 11t35 31v-37h35v220h-35v-38q-9 13-22 22t-28 15-33 6m6-35q22 0 40-12t27-29 10-39q0-22-10-40t-27-29-40-11-40 11-28 29-10 40q0 21 10 39t28 29 40 12m277 35q-20 0-40-9t-35-24-25-36-10-46q0-32 15-58t41-41 57-16q24 0 46 10t38 29 24 45h-38q-9-22-28-35t-39-12q-21 0-40 9t-29 28-11 41q0 21 10 39t28 28 39 11q21 0 38-11t28-29h40q-9 24-25 41t-38 27-46 9m201-5h-35v-375h35v193q10-18 27-31t42-12q28 0 46 11t27 30 10 46v138h-35v-138q0-13-4-25t-13-19-25-8q-27 0-44 12t-24 33-7 53v92m322 3q-33 0-60-14t-44-40-16-60q0-32 15-58t42-42 58-15q31 0 57 15t42 41 16 57v14h-208v-33h171q-6-25-28-42t-50-17q-24 0-42 11t-27 29-10 43q0 23 11 40t30 27 38 9q15 0 28-3t25-11 20-18l27 22q-11 14-27 24t-33 16-35 5m200-3h-35v-220h35v43q6-19 14-29t19-15 23-4q5 0 11 1t11 4v45q-6-5-13-8t-13-3q-16 0-28 11t-18 29-6 36v110m194 6q-25 0-44-7t-29-23-15-38h37q4 15 12 23t18 13 23 3q24 0 36-9t12-27q0-10-8-18t-26-14q-8-2-19-5t-23-7-21-7q-15-8-25-20t-9-29q0-22 11-37t29-22 38-7q31 0 53 12t29 47h-38q-3-11-9-18t-15-10-21-2q-15 0-27 6t-13 23 11 22 23 11q6 2 17 4t24 7 22 8q17 8 26 21t8 31q0 24-12 39t-31 23-44 7" />
</svg>