<svg id="fnt-Teko" viewBox="0 0 680 1000" xmlns="http://www.w3.org/2000/svg"><path id="teko" class="f" d="M55 667v-307h45v307h-45m-52-313h150v36h-150v-36m217 119v144q0 8 3 11t12 3h13v36h-25q-24 0-36-12t-11-32v-156q0-22 11-33t36-11h27v35h-15q-9 0-12 3t-3 12m99 79h-45v-79q0-9-3-12t-11-3h-16v-35h28q24 0 35 11t12 33v85m-46 64v-20h44v27q0 21-11 32t-35 12h-27v-36h14q10 0 12-3t3-12m-81-90h127v33h-127v-33m210-194v335h-45v-335h45m62 335l-54-128h46l56 128h-48m48-244l-56 116h-46l54-116h48m167 164h-44v-114q0-9-3-12t-12-3h-15v-35h28q24 0 35 11t11 33v120m-44 29v-50h44v57q0 21-11 32t-35 12h-31v-36h18q9 0 12-3t3-12m-57-143v114h-45v-120q0-22 11-33t35-11h29v35h-15q-9 0-12 3t-3 12m-45 90h45v53q0 9 3 12t12 3h13v36h-27q-24 0-35-12t-11-32v-60" />
</svg>