<svg id="fnt-Texturina" viewBox="0 0 2173 1000" xmlns="http://www.w3.org/2000/svg"><path id="texturina" class="f" d="M195 667q-3 0-13-2t-23-3-26-4-24-4-14-3q0-4 2-8t2-5l16-2q10-1 15-6t7-15 2-27v-217q0-12 2-19t4-9h-83l-10 80q-3 1-11 3t-17 2q-2-7-5-21t-6-31-3-35q7-7 19-15t25-11h222q13 3 25 11t19 15q-2 29-7 52t-8 35q-8 0-16-2t-11-3l-11-77q-8-2-22-3t-31-2q-12 0-17 5t-6 11-1 14v229q0 12-3 21t-6 12l51 6q1 0 2 4t2 8q-8 6-20 11t-21 5m235 0q-14 0-29-5t-27-13-22-13-11-10q-7-9-11-28t-4-41q0-21 2-40t5-34 6-25q7-4 19-11t28-14 31-12 31-4q8 0 20 5t23 13 16 13q3 3 5 14t4 25 1 23q-5 8-13 14t-14 12-13 8q-5 2-20 4t-38 4-47 2q1 16 3 30t5 18q2 2 9 7t15 9 17 9 14 4q6 0 16-2t22-4 21-4 14-3q2 2 4 5t2 9q-10 8-23 16t-30 13-31 6m-22-142q13 0 26-1t24-4 16-5q0-6-1-15t-2-17-2-11q-1-2-8-6t-14-8-14-4q-5 0-16 3t-23 6-16 6q-2 6-4 15t-2 19-1 18q6 2 16 3t21 1m186 142q-5 0-14-5t-16-11-14-13-5-9q0-8 8-20t22-24 30-26 29-23l-32-54q-5-7-9-14t-11-11-16-9l-19-5q0-4 2-9t3-5q4-3 12-6t15-4 11-2q16 0 27 12t22 28l32 57q13-12 24-22t19-20 12-14q-5-3-12-8t-15-8-12-5q1-4 2-7t2-6q4-1 12-3t14-3 12-1 11 3 14 9 12 10 5 8q0 9-8 20t-21 24-28 24-27 23l35 60q11 18 22 25t20 8h12q1 1 3 3t1 7q-3 6-10 12t-16 10-16 4q-12 0-26-12t-28-35l-35-60q-13 12-26 24t-21 22-12 16q4 3 11 6t15 8 13 6q2 2 3 6t1 9q-4 2-12 4t-15 4-12 2m316 0q-6 0-17-4t-24-9-21-10-8-8v-192l-39-3q0-9 2-14t3-7l26-3q7-1 9-6t3-13v-54q6-5 14-9t17-5l9 6v80l56 1 5 6q-1 8-3 14t-4 9l-53-2v183l59 10q1 2 2 5t1 8q-3 4-10 8t-15 6-12 3m175 2q-12 0-25-6t-25-14-19-16-7-12v-154q0-4-1-8t-7-4l-29-11q1-6 3-9t3-5q8-5 21-9t22-4q14 0 24 10t10 25v155q5 5 13 11t16 10 14 5q7 0 18-3t23-8 21-8v-147q0-4-2-8t-6-4l-34-12q1-5 2-9t3-4q5-3 15-6t19-5 15-2q14 0 24 10t10 25v182l36 4q1 1 3 4t1 8q-3 4-10 8t-16 6-13 3q-13 0-26-8t-16-17q-11 6-26 12t-29 10-25 5m279-2q-4 0-16-2t-25-4-26-6-18-4q0-4 1-7t3-5l14-3q6-1 10-4t6-12 2-23v-130q0-4-2-8t-6-4l-29-11q1-6 2-9t3-5q8-5 22-9t22-4q14 0 23 9t9 25v5q5-4 12-11t15-13 16-11 13-4 13 4 12 12 10 13 4 9-3 10-6 15-8 13q-6 0-11-2t-8-3q-3-6-7-13t-7-11-5-4q-2 0-8 3t-12 8-12 9-7 6v121q0 10-2 17t-4 11l43 4q1 1 2 4t2 7q-3 4-10 8t-15 6-12 3m197 0q-3 0-15-2t-25-4-26-6-18-4q0-4 2-7t3-5l14-3q5-1 9-4t6-12 2-23v-130q0-4-1-8t-7-4l-29-11q1-5 2-9t4-5q8-5 21-9t22-4q14 0 24 10t10 25v155q0 10-2 17t-4 11l42 4q1 2 2 4t1 7q-2 4-9 8t-15 6-13 3m-36-301q-3 0-8-5t-10-10-9-12-3-10q0-4 5-9t11-9 13-7 10-3q4 0 9 4t9 11 8 12 3 11q0 3-5 7t-10 10-12 7-11 3m191 301q-4 0-15-2t-25-4-26-6-18-4q0-4 2-8t3-4l14-3q8-1 13-9t5-30v-130q0-4-2-8t-6-4l-31-11q1-6 2-9t4-5q8-5 21-9t22-4q15 0 24 9t10 24q11-8 24-15t25-13 22-5q11 0 25 4t27 12 21 16 8 17v141q0 10-2 17t-4 11l42 4q1 2 2 5t2 6q-3 4-10 8t-15 6-12 3q-4 0-15-2t-25-4-25-6-18-4q0-4 2-8t3-4l13-2q5-1 8-4t6-12 3-24v-113q0-5-6-11t-14-9-15-7-12-2q-3 0-11 2t-18 6-18 7-12 5v131q0 10-2 17t-4 12l41 4q1 2 2 5t1 6q-3 4-10 8t-14 6-12 3m297 2q-9 0-22-6t-24-14-14-11q-4-5-7-18t-2-29q0-6 0-11t1-10q1-3 6-8t13-11 15-11 13-5q4-1 13-2t20-1q7 0 14-1t16-2 16-2 15-3v-57q-14-7-32-11t-32-4q-5 0-10 1t-9 1l-13 41q-2 1-7 2t-12 3q-5-6-11-18t-9-26q10-10 23-17t27-12 28-8 27-2q8 0 20 4t25 12 22 14 9 14v173l36 4q1 1 2 4t2 8q-3 4-11 8t-15 6-13 3q-9 0-18-4t-15-10-10-14q-11 7-27 13t-28 12-22 5m15-36q6 0 17-3t22-7 19-7v-63q-12 2-25 4t-25 3q-14 1-27 3t-20 7q0 9 0 22t4 23q5 5 15 11t20 7" />
</svg>