<svg id="fnt-Text Me One" viewBox="0 0 2705 1000" xmlns="http://www.w3.org/2000/svg"><path id="text-me-one" class="f" d="M121 355h5q10 0 10 9v293q0 4-3 7t-7 3h-5q-5 0-8-3t-2-7v-293q0-9 10-9m-108-38h222q4 0 7 3t3 7v5q0 9-10 9h-222q-10 0-10-9v-5q0-4 3-7t7-3m272 181q0-39 24-61t63-21 62 21 23 61v30q0 22-20 22h-108q-5 0-8-3t-2-7v-4q0-4 2-7t8-3h105v-27q0-29-18-44t-44-15-45 15-18 44v86q0 28 18 43t44 16 45-15 18-42q0-4 2-7t7-3h4q5 0 7 3t3 7q0 38-24 59t-61 22-63-22-24-61v-87m386-81h5q6 0 8 5t0 10q-11 17-34 52t-33 52v0q-3 4-3 5l3 5v-1l71 106q1 3 1 5 0 11-10 11h-5q-4 0-8-4l-66-101q-11 17-34 50t-33 51q-4 4-8 4h-5q-7 0-9-4t-1-6 1-6l71-106v0l3-4q-2-4-3-5l-67-104q-3-5 0-10t8-5h5q4 0 8 4l64 98 63-98q4-4 8-4m102-115h4q9 0 9 9l-1 279q0 25 14 39t36 14h13q4 0 6 3t3 7v4q0 10-22 10-33 0-53-21t-21-56l2-279q1-9 10-9m-39 115h12q5 0 7 3t3 7v3q0 4-3 7t-7 3h-12q-4 0-7-3t-3-7v-3q0-4 3-7t7-3m67 0h37q4 0 7 3t3 7v3q0 4-3 7t-7 3h-37q-4 0-7-3t-3-7v-3q0-4 3-7t7-3m602-102q8 0 14 5t6 17v320q0 4-3 7t-7 3h-4q-5 0-8-3t-2-7v-298l-87 215q-6 13-18 15-15 0-21-14l-92-218v300q0 4-3 7t-7 3h-5q-4 0-7-3t-2-7v-320q0-22 19-22 14 0 20 15l96 227 91-227q7-15 20-15m91 183q0-39 24-61t63-21 62 21 23 61v30q0 22-20 22h-108q-5 0-8-3t-2-7v-4q0-4 2-7t8-3h105v-27q0-29-18-44t-44-15-45 15-18 44v86q0 28 18 43t44 16 45-15 18-42q0-4 2-7t7-3h4q5 0 7 3t3 7q0 38-24 59t-61 22-63-22-24-61v-87m548-170q18-7 31-9t28-2 28 2 32 10 31 21 22 36 9 54v101q0 32-10 56t-22 37-31 21q-28 12-59 12-32 0-55-11t-36-24-22-37-9-54v-101q0-32 9-55t23-36 31-21m106 23q-14-6-25-8t-22-2-22 2-26 8-24 16-18 30-7 45v98q0 25 7 45t18 30 25 17 25 9 22 2 22-2 26-9 24-17 18-30 7-45v-98q0-26-7-45t-18-30-25-16m233 65q38 0 58 19t20 58v164q0 10-10 10h-4q-10 0-10-10v-158q0-60-54-60-29 0-49 23-5 4-9 4-9 0-10-10 0-4 2-8 11-14 28-23t38-9m-84 1h4q4 0 7 3t3 7v230q0 4-3 7t-7 3h-4q-4 0-7-3t-3-7v-230q0-4 3-7t7-3m235 81q0-39 24-61t62-21 62 21 24 61v30q0 22-21 22h-108q-4 0-7-3t-3-7v-4q0-4 3-7t7-3h105v-27q0-29-17-44t-45-15-45 15-17 44v86q0 28 17 43t45 16 44-15 18-42q0-4 3-7t7-3h4q4 0 7 3t3 7q-1 38-24 59t-62 22-62-22-24-61v-87" />
</svg>