<svg id="fnt-The Girl Next Door" viewBox="0 0 4293 1000" xmlns="http://www.w3.org/2000/svg"><path id="the-girl-next-door" class="f" d="M100 353h-86l-8-7q4-4 10-8t11-5q4-1 16-2t24-2 24-2 16-1q8 0 24 0t36-1 43 0 43-1 37 0 24-1v17q-5 0-16 0t-24 1-27 2-28 1-23 1-15 1q-3 0-10 1t-14 2-14 2-9 2q0 2 0 9t-1 16 0 15v9q0 30 2 58t5 56 6 56 2 58q0 2 0 6t0 7-1 7l0 3-13 14q-7-3-9-9t-4-13 0-13 0-12q-1-8-2-21t-3-32-2-39-4-42-3-42-3-38-2-32-2-21m404 247q-1-4-2-12t-3-19-4-22-5-23-3-18-3-13q-2-8-4-16t-6-12-10-9-16-3q-8 0-16 5t-15 13-13 13-7 9q-12 13-19 34t-9 43-4 44-1 39l-20 7v-307q0-3 0-9t2-15 3-14 2-9q0-2 3-4t3-3l7 7 13 167h7q6-6 14-13t19-13 20-10 21-4q18 0 28 9t18 23 9 34 7 38 8 38 12 33 21 24 35 9q10 0 18-1t16-2 16-6 18-12l1 1q0 2 0 2 0 8-9 16t-22 14-25 11-22 4q-16 0-28-6t-22-16-18-22-15-24m132-80q0-23 5-42t17-33 29-22 42-7q14 0 25 2t17 9 11 16 3 24q0 16-6 26t-16 17-23 11-26 3q-3 0-7 1t-10 2-11 3-11 2-9-1-3-4q0 0 2-3t5-6 4-6l3-2q13-2 28-3t29-5 21-13 9-26q0-9-3-14t-7-8-12-4-15-1q-17 0-29 6t-20 16-11 24-4 31q0 11 1 25t2 30 6 29 11 25 15 18 22 7q3 0 8-1t10-2 9-2 7-2q4-2 12-5t18-8 21-10 20-9 18-9 11-6q1 1 1 3t0 4q0 9-9 17t-21 16-30 14-32 11-28 7-19 3q-15 0-27-7t-21-19-15-27-10-31-5-33-2-31m699 142v-42q-2 2-10 6t-17 9-17 7-12 5h-4q-3 0-8 0t-10 1h-7q-28 0-54-9t-47-27-33-42-12-54q0-16 3-36t9-41 15-40 23-34 30-25 39-9q11 0 25 5t26 12 20 20 8 25h-10q-9-11-16-19t-14-13-15-7-22-2q-16 0-29 7t-24 19-18 28-13 31-7 32-3 29q0 26 7 49t22 41 35 29 48 10q23 0 39-4t27-13 20-25 17-39l-13-6q-21 3-38 5t-37 2q-3 0-5 0t-6 0-5-2-3-5q2-4 7-7t12-6 14-3 14-2 12-2 8 0q5 0 16-1t25-1 29 0 30-1 26 0 16 0q0 0 0 4t-1 9-3 9-5 4h-66q-5 0-6 8t-2 21 1 27 0 27-3 23-10 11q-5 1-11 2l-7 0m135-95v-8q0-4 0-12t1-20 2-24 1-23 1-21 1-13q3-4 5-5t5-1q1 0 2 0t1 0q5 14 5 34t0 44 1 46 6 42 16 30 32 11q22 0 38-9t30-25q0 1 0 4t1 3q0 11-9 20t-22 15-25 9-22 3q-22 0-36-8t-21-23-11-32-2-37m16-182q-7 0-11-4t-2-11 6-10 9-5q9 0 13 5t5 10-5 11-15 4m130 130v-71q0-3 1-6t2-4 5-2q6 5 9 13t4 16 4 15 9 9q8-14 17-26t18-21 23-15 31-4q10 0 21 2t20 6 15 14 6 21q-10 0-18-4t-14-8-16-8-20-3q-14 0-26 7t-21 20-16 30-12 35-8 37-5 36-3 32 0 24h-20q-2-13-3-30t-1-37-1-39-1-39m214-127q0-5 1-13t1-18 1-15 1-7l14-12 6 7q0 0 0 9t1 23 1 35 2 43 2 46 1 46 1 43 1 36v4q0 2 0 6t-1 8 0 5q0 2 0 5t-1 7 0 7 0 4q-1 1-3 2t-4 2-4 2-3 1q-1 0-3-3t-4-5q0-1-1-4t-2-9-1-8-1-5q0-7-1-21t-1-30-2-33-1-33-1-27-1-17v-6q0-6 0-13t1-17 0-17 0-15 1-13m479 259q-17-25-35-53t-33-57-29-58-24-60h-7q0 4 0 14t0 20 1 20v13q-1 6-1 18t-1 27-1 32-2 32-1 27-1 18q-1 2-4 4t-5 5-6 3-5 1q-3 0-5-2t-2-5 0-6 0-5q0-29 1-59t3-58 3-59 0-59q6-13 13-17t17-4q1 0 5 0t5 1q15 33 30 63t30 58 32 56 35 56q1 1 3 4t4 3q0-6 0-19t1-28 2-33 1-34 1-28 1-19q1-9 2-22t5-29 8-30 11-27 16-19 20-8q0 11-3 21t-8 20-11 18-11 19-9 21-3 23v214l-2 1q-2 1-5 2t-5 2-5 2h-1q-1 0-2 0h-2q0 0-1 0-1-1-4-4t-6-6-6-6-4-4m122-127q0-23 5-42t17-33 29-22 42-7q14 0 25 2t17 9 11 16 3 24q0 16-6 26t-16 17-23 11-26 3q-3 0-7 1t-10 2-12 3-11 2-8-1-3-4q0 0 2-3t5-6 4-6l3-2q13-2 28-3t29-5 21-13 9-26q0-9-3-14t-7-8-12-4-15-1q-17 0-30 6t-19 16-11 24-4 31q0 11 0 25t3 30 6 29 11 25 15 18 22 7q3 0 7-1t10-2 10-2 7-2q4-2 12-5t18-8 21-10 20-9 18-9 11-6q1 1 1 3t0 4q0 9-9 17t-21 16-30 14-32 11-28 7-19 3q-15 0-27-7t-21-19-15-27-10-31-5-33-2-31m242 200v-24q2-3 7-13t11-21 12-25 13-25 10-22 7-13q0-2 2-5t2-6 2-6 1-4q-1-4-4-11t-6-18l-20-60q-2-7-4-11-1-4-3-9t-6-9-8-6-9-3q-10 0-18 4t-16 10q-4-2-5-5t-2-6q0-9 5-13t10-7 13-3 13-1q14 0 24 6t17 15 12 22 9 25 8 25 10 22q11-13 21-29t17-33 16-34 12-31h15q0 21-6 43t-16 42-20 40-19 35v13q0 1 5 7t13 13 15 15 13 12q5 5 11 6t11 2 13 0 11 0q9 0 21-1t22-5 15-12q3-4 4-10 1 3 1 3 0 16-8 25t-18 14-25 5-25 1q-16 0-29-3t-25-10-23-14-22-21l-7 7-53 100q-4 8-11 12t-16 5m261-137q0 6 0 11v-3q0-2 0-5t0-3m93-120l-71 7q-3-13-2-19t5-7 11-1 16 0 19-4 19-13q1-5 3-18t3-30 3-35 3-35 3-29 2-18h4q1 0 3-1t4-1 4 0 3 2q1 17-1 38t-4 44-3 46 0 43l95-7-3 19-84 12q-11 20-15 43t-2 45 7 41 13 32 18 19 18 1q9 0 16-3t12-8 8-12 6-13 6-11 7-8q0 1 1 6t0 6q0 14-5 27t-13 21-20 13-24 5q-22-1-35-11t-21-28-10-38-3-42 1-42 3-36m381 190l7-13v-254q0-7 4-11t10-7 14-3 15 0 15 0 11 1q21 0 42 4t40 12 36 20 28 28 20 36 7 43q0 23-10 44t-26 38-37 32-45 24-47 15-44 5q-10 0-21-4t-19-10m33-239v8q0 27 1 56t1 59 3 57 2 53q1 0 2 0t2 0q17 0 37-4t40-13 38-20 32-27 22-33 8-37q0-31-14-56t-36-40-51-24-58-9q-2 0-5 1t-7 0-6 1-4 0l-7 7v4q0 3 0 8t0 9m238 182q1-18 5-38t11-38 17-35 24-28 33-18 42-4q32 28 45 56t14 53-10 48-27 39-38 26-40 10q-15 0-29-5t-24-13-17-22-6-31m168-50q0-15-3-27t-7-22-13-20-19-19l-1 4q-18-1-36 8t-33 28-23 41-7 51q0 16 6 28t21 22q1 0 5 0t8 0 8 1 5 0q22 0 39-7t27-19 17-29 6-40m42 50q2-18 6-38t10-38 17-35 25-28 32-18 42-4q32 28 46 56t14 53-10 48-28 39-37 26-40 10q-15 0-29-5t-25-13-16-22-7-31m168-50q0-15-2-27t-7-22-13-20-20-19l-1 4q-17-1-35 8t-33 28-24 41-6 51q0 16 6 28t20 22q2 0 6 0t8 0 8 1 5 0q22 0 38-7t28-19 17-29 5-40m50-31v-71q0-3 1-6t2-4 5-2q7 5 9 13t4 16 4 15 9 9q8-14 17-26t19-21 23-15 30-4q10 0 21 2t20 6 15 14 6 21q-10 0-17-4t-15-8-16-8-19-3q-15 0-27 7t-21 20-16 30-12 35-8 37-5 36-2 32-1 24h-20q-2-13-3-30t-1-37-1-39-1-39" />
</svg>