<svg id="fnt-Tienne" viewBox="0 0 1718 1000" xmlns="http://www.w3.org/2000/svg"><path id="tienne" class="f" d="M327 406h-31q0-21-2-36t-6-24h-90v257q0 11 1 18t3 13q5 1 11 2t14 0h22v34q-19-2-36-3t-33 0q-23 0-43 0t-43 3v-34h22q7 0 13 0t12-2q4-10 4-27v-261h-90q-4 9-6 24t-3 36h-33q0-8-1-19t-1-23-1-23 0-22q5-2 21-3t37 0q2 0 10 0t19 0 23 1 23 0 19 0 12 1q6 0 16-1t20 0 21 0 19-1 14 0 7 0q22 0 37 0t21 3q0 10 0 22t-1 23-1 23 0 19m60-83q0-15 10-25t24-9q7 0 13 2t11 7 7 11 2 14q0 7-2 14t-7 10-11 7-13 3-14-3-10-7-7-10-3-14m100 319l2 22q-13 3-29 4t-36 2q-5 0-11-1t-9-3-8-7-2-10q0-12 0-24t1-27v-137q0-5 0-10t-1-9q-9-4-21-4h-24v-23q3-1 9-2t14-1 17-2 19 0q12 0 22 1t17 4v186q0 14 1 24t3 17h36m89-123h127q1-1 1-2t0-2q0-16-4-31t-10-25-18-18-28-6q-33 0-49 21t-19 63m154 98l21 9q-14 24-39 35t-59 12q-29 0-54-9t-41-26-26-42-9-56q0-31 9-55t26-42 41-26 53-9q22 0 41 6t33 20 22 31 8 41q0 14-2 22t-7 13-12 5-16 2h-143q3 47 25 70t60 24q20 0 37-6t32-19m333-132v116q0 14 1 24t3 17h35l3 22q-25 6-65 6-6 0-11-1t-10-3-7-7-3-10q0-12 1-25t1-28v-88q0-20-4-33t-9-21-13-12-16-4q-10 0-21 4t-21 9-18 13-15 16v129q0 11 0 17t4 12 8 7 17 4l2 21q-14-2-29-2t-32-1q-15 0-28 0t-26 3l1-21q12-1 18-3t9-6 3-9 1-15v-156q0-5-1-9t-1-9q-4-2-8-3t-9-1h-28v-23q3-1 9-2t14-1 17-2 19 0q11 0 22 1t17 4v30q9-9 20-16t23-12 25-7 24-3q15 0 30 5t24 14 17 24 7 35m337 0v116q0 14 1 24t3 17h35l3 22q-25 6-65 6-5 0-11-1t-9-3-8-7-2-10q0-12 0-25t1-28v-88q0-20-3-33t-9-21-14-12-16-4q-10 0-20 4t-21 9-19 13-15 16v129q0 11 1 17t3 12 9 7 16 4l2 21q-13-2-29-2t-32-1q-14 0-28 0t-25 3l0-21q12-1 18-3t9-6 3-9 1-15v-156q0-5 0-9t-2-9q-3-2-7-3t-10-1h-27v-23q2-1 9-2t14-1 16-2 19 0q12 0 22 1t17 4v30q9-9 20-16t24-12 24-7 25-3q15 0 29 5t25 14 17 24 6 35m136 34h128q0-1 0-2t0-2q0-16-3-31t-10-25-19-18-28-6q-32 0-49 21t-19 63m154 98l21 9q-13 24-38 35t-59 12q-30 0-54-9t-41-26-26-42-9-56q0-31 9-55t26-42 40-26 54-9q22 0 41 6t33 20 22 31 8 41q0 14-3 22t-6 13-12 5-16 2h-143q2 47 25 70t60 24q20 0 37-6t31-19" />
</svg>