<svg id="fnt-Tilt Prism" viewBox="0 0 2334 1000" xmlns="http://www.w3.org/2000/svg"><path id="tilt-prism" class="f" d="M137 363h94v-8h-94-93v8h93m4 273v-277h-8v277h8m-6 3l50 31 4-7-50-31q0 0-2 0t-2 0l-49 31 4 7 49-31q1-1-2-1t-2 1m99-277l31-32-6-6-31 32q0 1-1 2t1 3l31 46 7-4-31-46q-1-2-1 2t0 3m-194-5l-31 46 7 4 31-46q1-1 1-3t-1-2l-31-32-6 6 31 32q1 0 0-3t-1-2m95-1l-37 31 5 6 37-31q1-1-3-1t-2 1l37 31 5-6-37-31q-1-1-3-1t-2 1m-47 315h99q2 0 3-2t0-4q-3-8-6-18t-4-29-2-49-1-77q0-35 1-60t1-42l-4 4q26 1 42 3t26 4 17 7q3 1 4 0t2-3v-78q0-2-1-3t-3-1h-249q-2 0-3 1t-1 3v78q0 2 2 3t4 0q7-4 16-7t27-4 42-3l-4-4q1 18 1 42t1 60q0 47-1 77t-2 49-4 29-6 18q-1 2 0 4t3 2m99-8h-99l4 6q4-8 6-19t4-29 3-50 1-79q0-35-1-60t-1-42q0-2-1-3t-3-1q-27 1-44 3t-27 5-18 7l6 4v-78l-4 4h249l-4-4v78l6-4q-7-4-18-7t-27-5-44-3q-2 0-3 1t-1 3q-1 18-1 42t-1 60q0 48 1 79t2 50 5 29 6 19l4-6m155-27v-228h-8v228h8m-6 3l47 31 4-7-47-31q-1 0-2 0t-2 0l-48 31 4 7 48-31q1-1-2-1t-2 1m4-235l-48-31-4 7 48 31q1 1 2 1t2-1l47-31-4-7-47 31q-1 1 2 1t2-1m-50 267h95q3 0 4-2t0-4q-4-7-6-16t-4-24-3-42 0-66q0-37 0-62t3-38 4-23 6-15q1-3 0-5t-4-1h-95q-2 0-4 1t0 5q4 6 6 15t4 23 2 38 1 62q0 41-1 66t-2 42-4 24-6 16q-1 2 0 4t4 2m95-8h-95l3 6q4-7 6-16t4-25 3-43 1-68q0-38-1-63t-3-40-4-24-6-15l-3 6h95l-3-6q-4 6-6 15t-5 24-2 40-1 63q0 42 1 68t2 43 5 25 6 16l3-6m105-28v-227h-8v227q0 1 1 2t3 2q36 0 62 0t42-2l-1-8q-15 1-41 2t-62 0q-2 0 1 2t3 2m-2-231l-48-31-4 7 48 31q1 1 2 1t2-1l47-31-4-7-47 31q-1 1 2 1t2-1m99 231l31 34 6-5-31-34q-1-1-1 3t1 2l41-48-6-5-41 48q-1 1-1 3t1 2m-103-4l-48 32 4 7 48-32q0 0 0 0l36-31-5-6-36 31q0 0 0-1t1 0m-46 40h183q1 0 2-1t2-3l10-82q0-3-2-4t-5 0q-7 6-19 10t-32 7-56 2l4 4q0-16-1-37t0-50q0-37 0-62t3-38 4-23 6-15q1-3 0-5t-4-1h-95q-2 0-4 1t0 5q4 6 6 15t4 23 2 38 1 62q0 41-1 66t-2 42-4 24-6 16q-1 2 0 4t4 2m183-8h-183l3 6q4-7 6-16t4-25 3-43 1-68q0-38-1-63t-3-40-4-24-6-15l-3 6h95l-3-6q-4 6-6 15t-5 24-2 40-1 63q0 29 0 50t1 37q0 2 1 3t3 1q37 0 59-3t33-7 20-11l-6-3-10 82 4-3m202-249l1-8q-15-2-36-3t-52 0q-29 0-51 0t-36 3l1 8q15-2 36-3t50 0q30 0 51 0t36 3m-83 222v-229h-8v229h8m-6 3l48 31 4-7-48-31q0 0-2 0t-2 0l-47 31 4 7 47-31q1-1-2-1t-2 1m93-227l31-33-6-5-31 33q-1 1-1 2t1 3l31 42 6-5-31-42q-1-1-1 3t1 2m-181-5l-31 42 6 5 31-42q1-1 1-3t-1-2l-31-33-6 5 31 33q1 1 1-2t-1-3m88-3l-36 30 5 6 36-30q1-1-3-1t-2 1l36 30 5-6-36-30q-1-1-3-1t-2 1m-45 267h95q3 0 4-2t0-4q-4-7-6-16t-4-24-3-42 0-66q0-26 0-46t1-34l-4 4q37 2 54 5t27 9q2 1 4 0t2-3v-75q0-2-2-3t-2-1h-237q-1 0-3 1t-1 3v75q0 2 2 3t4 0q10-5 27-9t54-5l-4-4q1 14 1 34t0 46q0 41-1 66t-2 42-4 24-6 16q-1 2 0 4t4 2m95-8h-95l3 6q4-7 6-16t4-25 3-43 1-68q0-26 0-46t-1-34q0-2-2-3t-2-1q-38 1-56 5t-29 10l6 4v-75l-4 4h237l-4-4v75l6-4q-11-5-29-9t-56-6q-1 0-3 1t-1 3q0 14-1 34t0 46q0 42 1 68t2 43 5 25 6 16l3-6m352-146h-81v8h81q43 0 68-24t24-62-24-62-68-23h-81q-1 0-3 1t-1 3v278h8v-278q0-2-3 1t-1 3h81q40 0 62 21t22 56-22 56-62 22m-78 7l35-32-5-6-35 32q-2 1-2 3t2 3l36 31 5-6-36-31q-1-1-1 3t1 3m-5 115l49 31 4-7-49-31q0 0-2 0t-2 0l-49 31 4 7 49-31q1-1-2-1t-2 1m4-285l-49-31-4 7 49 31t0 0 0 0l37 31 5-6-37-31t0-1-1 0m-51 317h98q3 0 4-2t0-4q-4-8-7-20t-4-34-2-59l-4 4h44q41 0 70-15t44-41 16-61q0-35-16-61t-44-41-70-14h-129q-2 0-4 1t0 5q4 7 7 17t3 27 2 46 1 73q0 47-1 77t-2 49-3 29-7 18q-1 2 0 4t4 2m85-186l4 4q0-33 0-58t2-41l-4 3h43q23 0 35 13t13 34-13 33-35 12h-45m13 178h-98l3 6q4-8 7-19t4-29 2-50 1-79q0-45-1-75t-2-47-4-28-7-17l-3 6h129q38 0 65 13t42 37 15 58q0 32-15 57t-42 38-65 14h-44q-1 0-3 1t-1 3q1 39 2 61t5 35 7 20l3-5m-17-174q0 2 1 3t3 1h45q27 0 41-15t15-38-15-40-41-15h-43q-2 0-3 1t-1 3q-1 18-2 42t0 58m258 48v99h8v-99-130q0-2-3 1t-1 3h66q35 0 55 16t20 45q0 24-15 40t-39 21q1 0 1 0h-88v8h88t0 0 0 0q28-5 44-24t17-45q0-31-22-50t-61-19h-66q-1 0-3 1t-1 3v130m159 97l-64-99-7 4 64 99 7-4m-157 5l48 31 4-7-48-31q0 0-2 0t-2 0l-48 31 4 7 48-31q1-1-2-1t-2 1m152 0l75 31 3-7-75-31q-1-1-2-1t-2 2l-35 31 5 6 35-31q1-1-2-1t-2 1m-148-236l-48-30-4 7 48 30t0 0 0 0l35 29 5-6-35-29t0-1-1 0m1 137l34-29-5-6-34 29q-2 1-2 3t2 3l34 28 5-6-34-28q-2-1-2 3t2 3m81-6l-19 29 7 5 19-29q1-1-2 0t-2 2l47 13 2-8-47-13q-1-1-3 0t-2 1m-132 137h96q2 0 3-2t0-4q-3-7-6-18t-4-29-2-53l-4 4h33l-3-2q21 35 31 54t13 29 4 17q0 2 1 3t3 1h110q2 0 3-3t-1-4q-7-7-15-14t-17-19-24-32-35-51l-1 6q22-13 35-35t13-48q0-29-15-51t-41-35-64-12h-113q-2 0-3 1t0 5q3 6 6 15t4 23 2 38 1 62q0 41-1 66t-2 42-4 24-6 16q-1 2 0 4t3 2m84-231h30q19 0 29 9t11 23-10 24-25 8h-37l4 4q0-23 1-41t1-31l-4 4m12 223h-96l4 6q3-7 6-16t4-25 3-43 1-68q0-38-1-63t-3-40-4-24-6-15l-4 6h113q35 0 60 11t38 31 14 48q0 25-12 44t-32 32q-2 0-2 2t0 3q22 32 36 52t25 32 17 20 15 14l3-7h-110l4 3q-1-7-4-18t-13-30-32-55q-2-2-4-2h-33q-2 0-3 1t-1 3q0 35 2 55t5 30 6 19l4-6m18-231h-30q-2 0-3 1t-1 3q-1 13-1 31t-1 41q0 2 1 3t3 1h37q19 0 31-11t12-29-13-29-35-11m228 204v-228h-8v228h8m-6 3l47 31 4-7-47-31q-1 0-2 0t-2 0l-48 31 4 7 48-31q1-1-2-1t-2 1m4-235l-48-31-4 7 48 31q1 1 2 1t2-1l47-31-4-7-47 31q-1 1 2 1t2-1m-50 267h95q3 0 4-2t0-4q-4-7-6-16t-4-24-3-42 0-66q0-37 0-62t3-38 4-23 6-15q1-3 0-5t-4-1h-95q-2 0-4 1t0 5q4 6 6 15t4 23 2 38 1 62q0 41-1 66t-2 42-4 24-6 16q-1 2 0 4t4 2m95-8h-95l3 6q4-7 6-16t4-25 3-43 1-68q0-38-1-63t-3-40-4-24-6-15l-3 6h95l-3-6q-4 6-6 15t-5 24-2 40-1 63q0 42 1 68t2 43 5 25 6 16l3-6m86-35l-3 8q15 5 30 8t29 3q38 0 62-17t23-45q0-19-10-31t-26-21-34-15q-15-6-30-14t-25-18-10-28q0-24 20-39t54-14q11 0 23 3t23 6l3-8q-12-4-25-6t-24-3q-38 0-60 17t-22 44q0 19 10 31t27 21 33 15q16 7 31 14t24 18 10 28q0 25-21 40t-56 14q-13 0-27-3t-29-8m130-215l31-25-5-6-31 25q-1 1-1 2t0 3l31 54 7-4-31-54q0-1-1 3t0 2m-134 216l-31 27 5 6 31-27q1-1 2-2t-1-3l-31-53-7 4 31 53q1 1 2-2t-1-3m159-165l6-3q-20-16-42-25t-42-9q-21 0-32 8t-10 21q0 15 16 23t40 19q18 7 36 17t30 26 12 41q0 28-15 48t-41 29-60 10q-20 0-41-4t-43-10l3 4v-80l-7 3q22 17 46 26t48 9q23 0 35-9t11-21q0-15-16-23t-40-19q-18-8-37-18t-30-26-12-41q0-26 14-45t40-29 59-10q18 0 36 3t39 10l-3-4v79m1 3q2 1 4 0t3-3v-79q0-2-1-3t-2-1q-21-6-40-10t-37-3q-36 0-64 11t-42 32-15 49q0 27 13 45t32 28 39 19q12 6 24 11t19 10 8 14q0 9-10 16t-28 6q-22 0-45-9t-44-24q-2-1-4 0t-2 3v80q0 2 0 3t3 1q23 6 44 10t42 4q36 0 64-11t44-33 16-51q0-27-13-44t-31-28-39-19q-12-6-24-11t-20-11-7-13q0-9 8-15t26-6q19 0 40 8t39 24m352-60v229h8v-229q0-1-2-3t-2-1h-44q-3 0-4 3l-83 228q-1 2 4 2t4-2l-81-228q-1-3-4-3h-46q-1 0-3 1t-1 3v229h8v-229q0-1-3 1t-1 3h46q1 0-2-2t-2 0l81 228q1 2 4 2t4-2l83-228q0-1-3 0t-1 2h44q1 0-2-3t-2-1m-252 232l44 31 5-7-44-31q-1 0-3 0t-2 0l-44 31 5 7 44-31q1-1-3-1t-2 1m253 0l46 31 5-7-46-31q-1 0-2 0t-3 0l-45 31 5 7 45-31q1-1-2-1t-3 1m-248-235l-44-31-5 7 44 31q0 0-1-1t0-1l31 54q2 2 4 1t4-2l14-54q0 0-1 1t0 1l33-30-5-6-33 30q-1 1-1 1t-1 1l-14 54q-1 2 4 1t3-2l-31-54q-1 0-1-1t0 0m210 0l-29-30-6 6 29 30q0 1-1-1t0-1l11 51q1 3 4 3t4-2l32-51q0 0-1 1t0 1l45-31-4-7-45 31q-1 0-1 0t-1 1l-32 51q-2 2 3 3t4-2l-11-51q-1 0-1-1t0-1m-89 229l-24 31 6 5 24-31q1-2-3-3t-4 2l19 32 7-4-19-32q-1-2-3-2t-3 2m1-81l-2 83h8l2-83h-8m-169 119h89q2 0 3-2t0-4q-3-7-6-16t-4-24-2-42-1-66q0-17 0-31t1-25l-8 1q6 13 12 29t12 37q15 38 23 62t13 40 7 23 4 15q1 1 2 2t2 1h43q1 0 2-1t2-2q1-6 4-15t8-23 14-40 23-62q8-21 14-38t12-30l-8-2q1 12 1 27t0 32q0 41-1 66t-2 42-4 24-6 16q-1 2 0 4t3 2h91q3 0 4-2t0-4q-4-7-6-16t-4-24-3-42 0-66q0-37 0-62t3-38 4-23 6-15q1-3 0-5t-4-1h-118q-2 0-3 1t-1 3q0 8-1 17t-5 24-13 41-24 66l-9 25h8l-9-25q-13-41-22-66t-13-41-5-24-1-17q0-2-1-3t-3-1h-123q-2 0-3 1t0 5q3 6 6 15t4 23 2 38 1 62q0 41-1 66t-2 42-4 24-6 16q-1 2 0 4t3 2m89-8h-89l4 6q3-7 6-16t4-25 3-43 1-68q0-38-1-63t-3-40-4-24-6-15l-4 6h123l-4-4q0 8 1 17t5 25 13 41 22 68l9 25q1 3 4 3t3-3l10-25q15-42 24-68t13-41 5-25 1-17l-4 4h118l-3-6q-4 6-6 15t-5 24-2 40-1 63q0 42 1 68t2 43 5 25 6 16l3-6h-91l4 6q3-7 6-16t4-25 3-43 1-68q0-18 0-32t-1-27q0-3-3-4t-4 3q-6 13-12 30t-14 38q-15 38-24 63t-14 40-8 23-4 15l4-3h-43l4 3q-1-6-4-15t-7-23-13-40-23-63q-7-20-13-37t-12-29q-1-3-4-2t-3 4q-1 11-1 25t0 31q0 42 1 68t3 43 4 25 6 16l4-6" />
</svg>