<svg id="fnt-Tilt Warp" viewBox="0 0 2088 1000" xmlns="http://www.w3.org/2000/svg"><path id="tilt-warp" class="f" d="M92 667q0-65 0-131t0-130q-19 0-38 0t-39 0q0-19 0-40t0-39q60 0 121 0t120 0q0 19 0 39t0 40q-18 0-38 0t-38 0q0 65 0 130t0 131q-22 0-44 0t-44 0m246-288q-15 0-27-7t-18-19-7-25 7-26 18-18 27-7q14 0 25 7t19 18 7 26-7 25-19 19-25 7m-42 288q0-64 0-130t0-129q21 0 42 0t41 0q0 64 0 129t0 130q-20 0-41 0t-42 0m143 0q0-91 0-183t0-182q20 0 41 0t41 0q0 90 0 182t0 183q-20 0-41 0t-41 0m167 0q0-46 0-93t0-92q-10 0-21 0t-20 0q0-18 0-37t0-37q10 0 20 0t21 0q0-17 0-35t0-34q20 0 41 0t41 0q0 17 0 34t0 35q12 0 24 0t23 0q0 19 0 37t0 37q-11 0-23 0t-24 0q0 46 0 92t0 93q-20 0-41 0t-41 0m341-340q11 51 23 104t22 105q12-52 23-105t23-104q20 0 40 0t39 0q12 51 24 104t24 104q12-52 23-104t22-104q20 0 40 0t41 0q-19 84-37 170t-37 170q-25 0-50 0t-50 0q-11-47-22-94t-21-94q-10 47-21 94t-20 94q-25 0-50 0t-49 0q-18-84-37-170t-37-170q22 0 43 0t44 0m536 340q0-4 0-8t0-7q-12 10-28 16t-34 6q-25 0-48-10t-40-28-27-43-9-56q0-31 9-56t27-43 40-27 48-10q18 0 34 6t28 16q0-4 0-8t0-7q21 0 42 0t41 0q0 64 0 129t0 130q-20 0-41 0t-42 0m-51-66q24 0 39-18t14-46-14-46-39-17q-24 0-39 17t-14 46 14 46 39 18m189 66q0-64 0-130t0-129q20 0 41 0t41 0q0 4 0 7t0 7q16-11 35-16t43-3q0 20 0 40t0 41q-40-6-59 6t-19 40q0 34 0 68t0 69q-20 0-41 0t-41 0m280 80q-20 0-41 0t-42 0q0-84 0-170t0-169q21 0 42 0t41 0q0 4 0 7t0 8q12-10 28-16t34-6q25 0 48 10t39 28 27 43 10 55q0 30-10 55t-27 43-39 29-48 10q-18 0-34-6t-28-16q0 23 0 47t0 48m51-146q24 0 38-18t15-46-15-46-38-17q-24 0-39 17t-14 46 14 46 39 18" />
</svg>