<svg id="fnt-Timmana" viewBox="0 0 1695 1000" xmlns="http://www.w3.org/2000/svg"><path id="timmana" class="f" d="M207 364l-8 52h-61l-35 251h-64l34-251h-62l7-52h189m101-43q15 0 24 10t6 27-14 27-26 10-24-10q-9-10-7-26 4-17 15-28t26-10m16 105l-34 241h-62l32-232 64-9m33 241l33-236h55l-3 31q3-3 9-9 6-6 14-12 20-16 42-16t32 8q10 8 13 28 13-19 43-32 10-4 22-4 30 0 41 19 11 19 5 63l-22 160h-62l21-155q3-15 1-24t-15-9q-10 0-19 8-13 10-16 18l-22 162h-60l22-155q2-15 0-24t-16-9q-10 0-18 8-14 12-16 18l-23 162h-61m323 0l33-236h55l-3 31q4-3 9-9 6-6 14-12 21-16 42-16t32 8q11 8 13 28 14-19 43-32 11-4 23-4 30 0 40 19 11 19 5 63l-21 160h-62l20-155q4-15 1-24t-15-9q-10 0-18 8-14 10-17 18l-22 162h-60l22-155q3-15 0-24t-15-9q-11 0-19 8-13 12-16 18l-23 162h-61m459-69l17-123q-12-1-31-1t-33 16-18 58 0 57 25 15q12 0 23-7t17-15m0 69v-28q-38 34-74 34-52 0-59-65-3-23 2-56t16-58 27-39q28-28 71-28 51 0 102 10l-33 230h-52m103 0l33-236h55l-3 30h2q3-2 9-8t17-12q24-16 48-16 34 0 44 20t5 62l-23 160h-60l19-144q3-26-1-35t-18-9q-12 0-22 8-18 14-20 18l-23 162h-62m367-69l16-123q-12-1-31-1t-32 16-19 58 1 57 25 15q11 0 22-7t18-15m0 69v-28q-38 34-74 34-52 0-60-65-2-23 2-56t16-58 27-39q29-28 71-28 51 0 102 10l-32 230h-52" />
</svg>