<svg id="fnt-Tiro Bangla" viewBox="0 0 2643 1000" xmlns="http://www.w3.org/2000/svg"><path id="tiro-bangla" class="f" d="M92 667q-1-7 0-16 25-2 35-5t13-9 3-26v-273h-36q-27 0-42 7t-25 22-18 37q-8 1-16 0 3-24 6-46t5-42q32 2 72 2t82 0q43 0 82 0t72-2q2 20 4 42t5 46q-8 1-16 0-10-23-19-37t-25-22-41-7h-35v267q0 15 1 24t5 13 16 6 29 3q1 8 0 16-11 0-26 0t-29-1-24 0q-10 0-24 0t-29 1-25 0m387 0q-14 0-29 0t-33-1q-16 0-32 1t-31 0q-2-8 0-15 17-1 25-4t10-9 3-24v-112q0-20-2-29t-9-14-27-6q-1-7 0-13 22-4 42-10t39-13l8 3q0 16-1 29t0 26v134q0 19 2 28t10 10 25 4q1 7 0 15m-100-334q0-14 10-24t25-10q14 0 24 10t10 24q0 13-10 23t-25 11q-14 0-24-10t-10-24m124 334q-2-8 0-15 17-1 25-4t10-9 3-24v-112q0-20-2-29t-10-14-26-6q-1-7 0-13 20-4 39-9t40-14l9 3v44q35-44 71-44 18 0 26 9t9 21q0 13-9 20t-21 8q-9 0-19-5t-13-16q-17 0-31 13t-13 31v108q0 19 2 28t12 10 32 4q1 7 0 15-17 0-35 0t-37-1q-18 0-33 1t-29 0m332 6q-37 0-64-16t-42-44-15-63q0-39 15-68t45-45 65-16q37 0 64 16t42 44 15 63q0 37-16 66t-44 46-65 17m-65-129q0 51 17 80t50 30q32 0 49-28t17-76q0-50-17-80t-49-30q-32 0-50 27t-17 77m503 124q-18 0-37-1t-33-1q-8 0-22 0t-30 1-25 0q-1-7 0-16 24-2 34-5t12-10 3-25v-232q0-21-3-30t-13-12-33-5q-1-7 0-16 11 0 25 0t29 1 24 0q15 0 35 0t33-1q61 0 90 20t30 58q0 64-79 86v1q27 2 49 12t36 30 14 47q0 35-22 59t-53 32q-14 4-30 5t-34 2m-14-172q-6 0-14 0t-15 2v111q0 12 0 21t0 14q22 4 40 4 38 0 59-19t22-59q0-38-22-56t-70-18m-29-157v137q4 0 7 0t6 0q48 0 68-17t21-52q0-70-73-70-7 0-14 0t-15 2m390 333q-33 0-42-33-35 34-72 34-26 0-44-16t-17-42q0-66 134-83 0-12 0-24t1-27q0-17-13-27t-31-10q-13 0-22 4 0 12-5 24t-14 20-21 8q-11 0-17-6t-6-15q0-12 11-23t29-19 36-12 34-4q19 0 34 6t26 20 10 33q0 12-1 31t-1 41 0 42-1 31q0 16 14 16 9 0 28-6 2 3 2 6t2 5q-13 14-27 20t-27 6m-42-47l1-75q-46 6-63 20t-17 34q0 18 9 27t23 9q9 0 20-4t27-11m267 42q-1-8 0-15 15-1 23-4t10-9 2-24v-101q0-30-9-45t-37-15q-14 0-28 5t-29 20v131q0 19 2 28t10 10 23 4q1 7 0 15-14 0-29 0t-33-1q-16 0-31 1t-31 0q-1-8 0-15 17-1 25-4t11-9 2-24v-112q0-20-2-29t-9-14-26-6q-2-7 0-13 43-8 79-23l8 3v38q23-21 45-30t42-8q33 0 51 19t17 56v114q0 19 2 28t10 10 24 4q1 7 0 15-15 0-29 0t-33-1q-19 0-33 1t-27 0m243 127q-44 0-71-15t-27-43q0-22 15-36t37-28q-20-4-30-16t-10-26q0-27 40-55-17-10-27-27t-10-39q0-27 14-47t38-31 50-10q39 0 65 21 27-21 53-21 13 0 20 5t8 17-7 18-17 6q-10 0-17-6t-8-16q-7 2-12 4t-9 5q17 22 17 51 0 28-14 47t-36 29-48 11q-25 0-47-9-12 12-12 26 0 13 9 16t35 3q12 0 28 0t23 0q50 0 72 17t22 49q0 25-12 43t-32 32-47 19-53 6m-25-119q-27 22-27 47 0 18 11 29t27 16 36 5q17 0 36-5t31-18 13-36q0-21-15-30t-54-9q-10 0-24 0t-31 1q-1 0-3 0m40-101q22 0 33-18t12-49q0-32-12-50t-35-19q-21 0-33 17t-12 49q0 32 12 51t35 19m283 93q-15 0-30 0t-33-1-33 1-30 0q-1-8 0-15 17-1 25-4t11-9 2-24v-251q0-15-3-23t-11-11-26-5q-2-6 0-13 20-3 41-8t43-15l8 3q0 11-1 25t0 31v262q0 19 2 28t10 10 25 4q1 7 0 15m202 5q-33 0-42-33-35 34-72 34-26 0-44-16t-17-42q0-66 134-83 0-12 0-24t1-27q0-17-13-27t-31-10q-13 0-22 4 0 12-5 24t-14 20-21 8q-11 0-17-6t-6-15q0-12 11-23t29-19 36-12 34-4q19 0 34 6t26 20 10 33q0 12-1 31t-1 41 0 42-1 31q0 16 14 16 9 0 28-6 2 3 2 6t2 5q-13 14-27 20t-27 6m-42-47l1-75q-46 6-63 20t-17 34q0 18 9 27t23 9q9 0 20-4t27-11" />
</svg>