<svg id="fnt-Titan One" viewBox="0 0 2546 1000" xmlns="http://www.w3.org/2000/svg"><path id="titan-one" class="f" d="M233 655q0 5-31 8t-62 4-39-3-8-9v-215h-69q-6 0-10-14t-4-42 6-50 16-22h271q7 0 10 14t3 40-6 50-15 24h-62v215m248-247v247q0 5-29 8t-59 4-39-3-9-9v-238q0-11 28-22t62-10q46 0 46 23m-68-131q33 0 51 9t19 36q0 45-70 45t-70-45 70-45m302 385q-9 9-41 9t-53-5-40-16q-37-25-37-102v-78h-25q-5 0-9-12t-4-31 6-36 16-15h16v-60q0-16 30-25t60-10q45 0 45 23v72h37q13 0 13 38 0 24-6 40t-14 16h-30v91q0 14 12 19t20 6 11 9 2 25q0 34-9 42m139 9q-45 0-71-21-11-9-19-27t-7-41 11-41 27-27 38-15q32-9 71-9h17q0-20-14-29-6-3-19-3t-29 6-29 13-15 7q-9 0-25-24t-15-43q0-6 18-17t52-19 66-9 55 5 38 13 25 20 16 23 8 26q3 18 3 45v151q0 5-27 8t-53 4-34-2-9-3-2-7l-4-29h-4q-13 45-69 45m67-83v-58q-13 0-21 11t-8 25q0 33 15 33 7 0 10-4t4-7m472-87v154q0 5-29 8t-59 4-39-3-8-9v-159q0-23-2-30t-3-12q-4-10-13-10-14 0-14 14v197q0 5-28 8t-59 4-39-3-9-9v-247q0-10 29-21t61-10 36 18l4 22h4q14-29 50-40 14-5 32-5 50 0 68 30t18 99m319 170q-42 0-72-8t-54-27q-51-40-51-152 0-47 14-82t38-55q48-40 125-40 39 0 68 7t56 25q52 38 52 145 0 96-47 142t-129 45m-17-86q6 8 17 8t16-8 10-31 4-66-4-65-10-30-16-7-17 7-10 30-4 65 4 66 10 31m525-84v154q0 5-29 8t-59 4-39-3-8-9v-159q0-23-2-30t-3-12q-4-10-13-10-14 0-14 14v197q0 5-28 8t-59 4-39-3-9-9v-247q0-10 29-21t61-10 36 18l4 22h4q14-29 50-40 14-5 32-5 50 0 68 30t18 99m183 53h-17q0 32 31 32 18 0 47-12t31-12q9 0 25 28t15 42q0 20-40 30t-78 10-64-6-42-16-29-22-18-26-9-27q-5-22-5-46 0-91 47-125 24-18 53-25t68-7q127 0 127 88 0 94-142 94m-18-73v33q15 0 24-12t9-28q0-30-15-30-18 0-18 37" />
</svg>