<svg id="fnt-Tomorrow" viewBox="0 0 2436 1000" xmlns="http://www.w3.org/2000/svg"><path id="tomorrow" class="f" d="M162 667h-46v-327h-109v-42h264v42h-109v327m278 0h-124l-53-53v-156l53-53h124l52 53v156l-52 53m-133-63l28 28h86l27-28 0-136-27-28h-86l-28 28v136m305 63h-44v-262h44v47l46-47h96l46 47 45-47h97l52 53v209h-44v-198l-26-29h-67l-51 51v176h-44l1-198-27-29h-67l-57 58v169m632 0h-124l-52-53v-156l52-53h124l53 53v156l-53 53m-132-63l27 28h86l28-28-1-136-27-28h-86l-27 28v136m305 63h-44v-262h44v47l45-47h67v44h-65l-47 49v169m203 0h-44v-262h44v47l45-47h67v44h-65l-47 49v169m324 0h-124l-53-53v-156l53-53h124l52 53v156l-52 53m-133-63l28 28h86l27-28 0-136-27-28h-86l-28 28v136m624-199l-84 262h-60l-59-193-58 193h-60l-85-262h47l62 218h11l59-218h48l59 218h11l63-218h46" />
</svg>