<svg id="fnt-Tourney" viewBox="0 0 2021 1000" xmlns="http://www.w3.org/2000/svg"><path id="tourney" class="f" d="M176 667h-70v-280h-87v-70h244v70h-87v280m-51-299v280h32v-280h87v-33h-207v33h88m349 299h-156l-51-52v-167l51-51h156l52 51v167l-52 52m-188-63l44 43h135l42-42v-147l-42-42h-136l-43 42v146m163 11h-104l-27-26v-116l26-25h105l25 25v117l-25 25m-112-34l16 15h87l15-15v-98l-15-16h-87l-16 16v98m438 86h-143l-51-52v-218h71v184l15 15h73l16-15v-184h70v218l-51 52m-175-63l43 43h122l42-43v-188h-32v172l-25 27h-91l-27-27v-172h-32v188m449 63h-168v-71h49v-125l-4-4h-44v-70h63l17 20 19-20h98l54 54-54 53-35-37h-28l-15 16v113h48v71m-149-52v32h131v-32h-50v-143l24-24h51l26 29 24-24-35-37h-82l-26 26-23-26h-40v32h32l17 19v148h-49m339 52h-71v-219l52-51h137l51 51v219h-70v-184l-15-16h-69l-15 16v184m-51-209v189h32v-174l26-25h86l25 25v174h32v-189l-42-42h-117l-42 42m327-61h155l52 51v71l-52 52h-136v10l15 15h169v71h-203l-52-52v-167l52-51m25 51h104l26 25v27l-22 22h-135v-47l27-27m162 10l-42-42h-136l-43 43v146l42 43h175v-32h-159l-26-26v-38h148l41-40v-54m-51 25l-15-16h-87l-15 16v20h107l10-11v-9m293 184h-116l-51-52v-218h70v184l16 15h61l25-25v-174h70v318l-51 52h-179v-71h140l20-20v-14l-5 5m-133 49v32h145l44-45v-287h-32v161l-38 38h-77l-25-25v-174h-32v189l42 42h100l30-30v68l-30 31h-127" />
</svg>