<svg id="fnt-Trade Winds" viewBox="0 0 3149 1000" xmlns="http://www.w3.org/2000/svg"><path id="trade-winds" class="f" d="M346 297q-1 2-1 5t0 5q-4 3-7 4t-5 5q-1 3-1 5t-1 6q-2 3-8 7t-8 5q-2 1-6 2t-6 2q-4 2-7 3t-5 2-7 0-9 1q-1 0-2 1t-2 2-4 1-9 2q-5 0-8 0t-8 2q-4 1-7 3t-6 3q-7 4-10 8t-5 6q-3 5-3 11t-2 13q-2 5-6 10t-7 10q0 2 0 5t0 7q-1 6-4 13t-6 14q-1 4-1 7t0 8q-2 10-5 20t-5 21q-1 6-1 12t-1 10q-1 5-4 9t-5 8-3 8 3 10q-2 18-5 37t-9 36q-2 5-5 14t-6 11-7 3-10 0-8-3-6-6q-3 2-5 5t-6 5q-5 3-10 2t-10 2q-5 2-9 5t-8 4q-2 1-5 0t-4 1q-3 2-4 5t-5 5q-3-1-8-1t-8-3q-1-12 4-22t8-19q2-5 2-10t2-11q2-7 5-14t4-16q2-5 2-11t2-11q1-4 5-8t6-10 3-13 4-13q3-8 7-14t4-13q0-4-1-5t-1-5q-1-4 1-11t2-12q3-10 5-18t5-17q1-4 2-8t2-6q1-4 3-7t3-5q1-4 2-9t2-9q1-3 3-6t2-6q1-6-1-12t-3-11q-6-4-13-5t-14 0-12 1-12 1q-12 0-20 1t-16 3-15 3-18 0q1-6 1-12t2-10q3-2 6-2t6-1q-2-3-1-5t1-5 2-4 1-5q1-4 1-9t4-8q7-1 12 0t11 1 10 1 12 0q15-1 25-2t25-2q10 0 20 0t18 1q8 2 12 2t8 0 7-1 12-1q8 0 16-1t16-1q9 0 13 2t6 2 5 1 11 0q5-1 7-2t7-2q5-1 9 0t11-1q14-1 29-5t31-1m57 115h65q4 1 8 1t7 1q2 0 3 1t3 1 3 0 3 0q11 3 18 9t14 15q3 5 7 12t8 14 3 17-3 18q-1 2-3 6t-4 7q-3 6-8 12t-9 8q-4 2-7 4t-6 4q-7 3-14 7t-13 8q-2 1-5 1t-5 1q-4 2-6 6t-7 4q12 3 23 14t15 22q3 6 7 12t4 12q3 3 6 8t3 10 3 11 3 10q3 6 6 10t8 8 8 8 6 10q2 0 4-1t3 0q8 5 17 8t22 5q11 2 21 1t21-2q3-1 8-3t11-4 9-1 4 5q0 3-5 8t-8 8q-8 6-19 9t-22 6-24 3-23 1q-7 0-13-2t-10-3q-9-2-17-4t-14-5q-6-4-11-10t-12-8q-12-11-25-22t-20-29q-3-4-6-8t-4-9q-1-4-2-8t-1-8q-1-6-3-12t-4-11q0-2-1-3t-2-3q-1-3-2-7t-3-7q-2-2-8-4t-10-4q-5-1-10 1t-10 2q-6 1-12 0t-10 1q-6 2-11 12t-5 22q-2 11-6 22t-6 20q-2 6-7 10t-12 3q-4 0-6 0t-6-2q-2 1-8 4t-9 5q-16 5-18-2t2-24q2-10 7-20t7-16q1-5 1-8t-1-7 0-6 2-6q0-5 3-8t3-9q1-5 3-10t2-10q0-6 0-11t3-12q3-6 6-13t3-13q1-5 1-10t3-10q1-4 4-6t4-7q0-3-1-5t0-5q3-10 2-15t-3-10-4-7 0-9q3 0 4-4t6-5q2 0 7 0t12-1 12 0 9 0q4 1 10 0t12-1 12 0 10 2m-9 124q3 0 7-2t7-1q5 1 10 2t11 1q2 1 5 0t6-1q8-6 14-8t11-12q3-5 6-9t4-7q3-11-1-19t-9-15q-5-7-9-10t-15-2q-8 0-17 0t-17-1-14 3-9 9q-3 7-6 16t-6 18-5 18-2 18q7-1 14 1t15 1m265-92q9-6 16-15t13-16q4 0 7-2t6-3q7-2 14 1t14 1q8-1 16-4t18-4q3 0 6 3t6 2q4 1 7-1t7-2q7 0 11 5t8 9q3 11 1 22t-1 22q1 7 2 14t1 14q1 6-1 13t0 14q0 3 1 5t1 5q-1 5-5 8t-4 8q-1 7 3 14t6 13q0 3-1 6t-1 7q-1 10 0 24t2 24q0 4 1 8t0 6q-1 3-3 4t-2 3q-1 3 0 7t1 9q0 3-1 6t0 6q0 1 1 3t0 3q-1 5-7 10t-11 4q-3 0-9-4t-8-7q-4-5-5-14t-4-15q-2-2-5-4t-4-5q-3-6-4-11t-1-12-1-11-2-11q-1-2-3-4t-4-4q-3-5-4-8t-6-5q-17 0-34-1t-34 1q-4 0-7 1t-7 2q-2 0-4 0t-3-1q-7 1-14 6t-9 10q-2 3-3 7t-1 8-5 7-3 8q-5 4-9 10t-7 12-7 12-10 7q-3 1-5 3t-5 1q-2 0-2-1t-3-3-7-4-9-6-7-6-4-6q-4-8-2-12t7-9q5-8 12-18t12-18q3-5 5-9t6-9q4-5 10-8t8-9q1-3 1-5t1-6q4-10 12-18t13-17q1-3 1-5t2-4q7-19 19-33t20-28m70 0l-2-1q-6 4-10 10t-11 8q-2 4-5 8t-7 7q-1 8-6 13t-8 11q-2 2-3 4t-4 5q-2 2-5 4t-4 3q-3 4-6 11t-7 11q-2 2-5 5t-1 6q1 4 6 5t10 2 11-1 9 0q7 0 14 0t13 0 12-3 8-5q5-16 2-32t-4-31q-1-5-1-10t0-10q0-5 3-10t1-10m123 193q3-7 6-15t6-15q2-5 3-11t4-10q2-5 6-9t5-10q3-8 1-19t0-21q3-10 6-20t4-18q1-5 1-11t1-12q1-6 4-12t3-11q1-12-5-21t-12-15q0-3 3-5t4-1q6 1 13 4t14 4q6 1 13 0t15 0q9 1 20 2t23 1q13 0 25-1t23 1q8 1 15 4t15 3q7 7 16 12t16 10q10 8 18 20t17 20q0 4 2 7t3 8q0 2-1 5t-1 6q0 5 3 8t2 8q-1 17-9 33t-17 30q-5 0-7 4t-6 9q-5 7-11 11t-12 12q-11 4-20 10t-20 12q-4 2-9 3t-8 4q-4 1-9 3t-8 3q-3 1-6 1t-6 0q-7 2-13 5t-11 5q-7 1-14-1t-13-3q-8 1-17 0t-17 0-18 0-21 2q-3 1-6 2t-7 2q-5 1-12 1t-12 0q-2 0-6 0t-6-1-6-2-3-3q0-3 2-5t5-4 7-3 5-2q6-3 10-8t10-6m130-189q-4 4-6 10t-3 11-2 13-3 12q-2 4-4 7t-3 8q-2 9-3 18t-2 19q-1 5-4 10t-4 11 0 10 0 10q-1 4-2 7t-3 8q-3 13 5 19t17 9q18 3 33-3t23-14q7-7 14-15t10-19q2-4 3-11t4-13q1-5 3-10t4-9q5-13 4-27t-5-23q-1-3-5-6t-6-7q-3-4-6-8t-4-6q-7-6-17-9t-17-9q-8 1-12 3t-9 4m418-9q-13 6-26 6t-30-1q-4 0-9 0t-10 1q-23 3-38 18t-23 37q-3 8-4 15t6 8q5 1 10 0t10-3 10-3 10-1q2 0 3 1t4 1q8 1 18-1t17-1q1 1 2 2t4 2q6 3 15 3t14 4q3 0 5 3t3 4q0 5-7 7t-10 2q-4 0-8 0t-8 0q-7 1-13 3t-14 4q-8 3-16 7t-16 5q-6 1-12 0t-13 0q-2 1-4 2t-5 1q-4 1-6 1t-4 2-2 2-4 6q-4 9-5 19t-2 21q6 6 10 9t16 3q5 0 8-1t9-2q5 0 10 1t13 0q14-1 24-4t23-1q3 0 11 0t15 1 14 3 6 4q0 2-3 6t-9 6-9 4-6 2q-8 3-16 1t-17 0q-7 1-12 3t-11 4-11 5-13 2q-10 1-17 2t-16 4q-4 1-7 2t-7 2q-15 3-31 1t-35 0q-13 2-22 4t-19 1q-4 0-7 0t-6-3q1-4 5-7t7-5q3-3 6-6t6-6q3-4 5-10t4-11 4-11 5-9q-3-9 1-20t7-24q1-3 1-6t1-5q1-5 5-9t4-7q0-3 0-5t0-5q1-7 4-14t4-12q1-4 0-8t0-8q1-10 4-19t4-15q0-6-2-12t-4-10q-1-2-4-5t-6-5-5-5-2-4q0-5 4-5t7-4q18 1 34 4t33 5q6 1 13 0t13-2q10-1 23 3t26 2q17-1 32-1t32-1q3 3 9 2t12-1 11 0 7 5q3 6-1 11t-11 7q-2 0-5 0t-7 1-8 1-5 0m768-107q-2 1-4 2t-5 1q-8 10-14 23t-13 24q-3 6-6 13t-6 14q-4 15-7 31t-10 28q-1 2-4 5t-5 5q-2 3-5 5t-4 4q-1 3 1 6t1 6q-1 5-4 8t-6 9q-2 5-4 9t-4 9q-4 8-10 17t-12 19q-7 15-14 30t-15 28q-4 5-8 8t-6 9q-1 2-1 4t-1 4q-2 5-7 9t-10 10q-4 5-8 9t-10 7q-10-2-19-4t-19-5q-3 0-4-3t-3-4q-5 4-8 2t-8-4q-3-1-5-2t-4-2q-9-5-12-11-3-18-5-37t-5-37q0-4-2-9t0-9q1-6 4-12t3-12q1-4-2-7t-3-6q-1-4-2-9t-2-11q-2-14 0-30t4-32 3-29-5-24q-4 0-7 2t-3 5-3 7-3 8q-2 5-6 8t-8 9q-5 7-8 17t-8 18q-3 6-7 13t-5 17q-2 1-4 3t-4 3q-7 13-15 26t-16 25-16 27-13 26q-2 3-6 5t-7 7q-1 3-1 6t-2 8q-2 5-6 11t-6 10q-5 10-11 19t-15 15q-4 3-9 5t-12 1q-2 0-4-2t-5-4-5-2-7 0q-4-3-5-7t-6-6q-2-2-5-4t-5-2-5-4-3-6q-2-6-2-15t-1-19 1-19-1-20q-1-10-1-19t-1-16q0-3-1-6t-1-5q1-6 4-10t3-8q0-6-3-12-4-8-6-18t-2-23q1-10 3-21t0-22q-1-12-2-22t1-23q0-5 2-12t1-15q0-3-2-8t-6-9-5-10-2-10q5-6 13-5t16 2q4 1 8 0t8 0q12 1 26 3t28 2q22-2 42-4t40-2q0 3 0 6t-2 6q-3 4-10 8t-14 6q-6 2-9 2t-9 3q-6 4-9 8t-6 8q-3 12-2 27t0 29q-1 8-2 15t-1 15 0 12-6 11q2 20 1 40t2 40q4-2 10-7t7-10q2-3 2-8t2-8q2-8 7-15t8-13 9-13 6-15q2-1 4-2t3-2q3-7 4-12t6-11q2-2 5-4t6-3 6-4 3-6q1-3-1-5t0-6q1-4 5-9t6-11q6-10 10-16t10-15q7-8 11-12t11-13q4-4 8-9t6-6q5-3 12-2t15 1q4-1 9-4t12-4q8-1 17-1t17 3 13 7 6 11q-2 7 0 15t0 15q-2 12-9 23t-9 23q-1 8 1 17t4 19q1 3 0 7t0 7q1 14 3 29 0 7-1 13t-3 13-4 13-1 12q0 9 1 19t3 15q1 2 4 5t3 4q2 6 1 12t1 9q6-1 6-5t2-7q2-7 7-14t11-16q10-16 17-30 3-5 5-11t4-10q3-4 7-7t4-8q2-4 1-8t0-9q0-5 3-11t8-12 7-13 6-14q3-9 5-16t6-14q3-5 7-10t5-9q3-6 3-11t3-12q2-5 4-11t3-9q0-3-1-5t0-3q1-3 4-6t6-5 8-4 7-3q10-2 24-1t26 3q7 0 17-1t21-1q11-1 23-3t22-2q3 0 6 1t4 4q1 2-1 4t-6 4-7 2-6 2q-9 3-19 4t-18 3-17 5-13 10m-35 310q1-11 8-21t10-18q2-7 3-14t1-14 1-14 3-14q-2-4-2-10t1-11q2-3 4-8t6-6q5-10 5-22t3-24q0-2 2-4t2-4q4-11 4-22t4-22q2-1 7-3t9-4 9-4 8-1q2 1 5 3t5 4q3 1 5 3t5 4q2 1 5 1t4 2q0 1 3 4t6 6 5 6 3 5q0 3-1 6t-3 8-3 7-3 6q-1 6-3 11t-4 10q-2 7-5 15t-4 18q-1 6-5 10t-6 10q-1 4-1 9t1 9 0 10-2 8q-2 2-5 3t-5 4q-3 5-5 12t-4 16-1 16 3 14q-3 8-9 14t-14 9-18 3-19-3q-4-6-9-11t-9-12m159 16q-10 3-18-3t-9-14q-1-4 0-12t3-13q2-6 8-13t10-16q3-9 5-17t7-13q3-4 7-6t5-7q0-4-3-7t-1-8q0-4 2-11t5-12q6-12 9-24 1-4 1-8t2-8q2-1 3-6t5-9 5-8 6-5q4-1 9-2t8-3q5-1 6-3t5-4q3-1 6-1t6-1q4-1 9-4t10 0q2 2 5 9t5 14q1 3 2 8t3 10 3 9 3 6q2 5 3 10t3 10q3 5 5 10t5 9 4 11 5 10q2 4 6 7t5 7q1 4 0 8t-1 9q2 5 7 9t9 7q2 3 3 6t4 4q1-9 2-16t3-14 3-13 2-16q5-7 9-12t3-15q0-3-1-6t-1-6q0-5 2-9t4-10q1-4 2-8t3-9q1-4 2-6t3-5 3-5 1-8q2-8 2-14t2-12q4-8 13-15t16-10q14 1 23 8t11 15q3 9-1 15t-7 12q-3 5-4 9t-2 7-2 8-2 8q-2 5-5 9t-3 6q1 7 1 11t-2 8-2 8-2 8q-1 3-1 7t-1 6q-2 6-4 11t-5 9q-4 7-8 14t-5 17q0 7-1 12t0 9-2 9-3 12q-1 4-2 8t-3 7q-3 13-8 20t-16 13q-6 2-12 3t-12 1-10-1-8-7q-3-4-6-12t-6-15q-1-3-3-6t-3-7q-2-5-3-9t-3-11q-3-11-11-16t-12-12q-1-5-2-9t-4-6q-1-1-3-1t-2-2q-2-2-2-4t-2-5q-1-1-3-4t-4-7-3-6-3-2q-3 0-5 4t-4 9-4 9-4 7q-2 3-3 10t-4 10q-3 6-6 12t2 13q0 3-2 5t-1 7q-3 6-6 13t-5 15q-2 5-3 10t-2 9-4 8-7 4q-6 1-10-1t-7-6-7-7-8-5m299-21q4-7 6-15t7-15q1-5 2-11t4-10q2-5 6-9t6-10q3-8 0-19t1-21q2-10 5-20t4-18q1-5 1-11t1-12q1-6 4-12t4-11q1-12-6-21t-12-15q1-3 3-5t4-1q6 1 14 4t14 4q6 1 13 0t15 0q8 1 20 2t22 1q13 0 25-1t23 1q8 1 15 4t15 3q7 7 16 12t16 10q11 8 18 20t18 20q0 4 1 7t3 8q0 2-1 5t-1 6q0 5 3 8t2 8q-1 17-9 33t-17 30q-5 0-7 4t-6 9q-5 7-11 11t-12 12q-11 4-20 10t-20 12q-4 2-8 3t-8 4q-5 1-10 3t-8 3q-3 1-6 1t-6 0q-6 2-12 5t-12 5q-7 1-14-1t-13-3q-8 1-16 0t-18 0-18 0-21 2q-3 1-6 2t-6 2q-6 1-12 1t-13 0q-2 0-6 0t-6-1-6-2-3-3q0-3 2-5t5-4 7-3 5-2q6-3 10-8t10-6m130-189q-4 4-5 10t-3 11-3 13-2 12q-2 4-4 7t-3 8q-3 9-3 18t-3 19q-1 5-4 10t-3 11 0 10 0 10q-1 4-3 7t-3 8q-2 13 5 19t18 9q17 3 32-3t24-14q6-7 13-15t11-19q1-4 3-11t3-13q1-5 4-10t3-9q6-13 4-27t-5-23q-1-3-4-6t-6-7q-4-4-6-8t-5-6q-7-6-16-9t-18-9q-8 1-12 3t-9 4m338 15q4 2 6 5t2 6 2 7 5 5q1 1 3 3t6 3 5 3 4 1q3-1 6-5t4-9 2-10 0-9q-1-1-6-4t-7-4q-7-2-12-6t-13-5q-3-1-6-4t-6-2q-2 0-5 1t-5 1q-2 1-7 0t-8 1-9 1-8 3q-7 6-9 12t-7 15q-1 2-4 5t-2 6q0 2 1 3t3 4q2 3 2 6t2 6q1 2 2 3t3 2q1 1 2 3t2 3q3 2 9 5t11 5q10 2 17 6t15 7q5 3 9 6t5 6 5 6 8 5q2 1 4 1t5 1 5 3 5 5q2 1 4 4t2 4q2 3 2 7t1 8q0 12-1 18t-3 13-6 12-8 15q-7 3-13 7t-12 7q-3 2-7 5t-8 4q-7 2-16 3t-19 3q-4 2-11 1t-12-1q-6 1-11 3t-10 0q-7-1-15-5t-15-8q-2-1-4-3t-4-3q-3-2-6-3t-7-3-5-5-5-4q-6-4-13-8t-10-9q-2-2-2-7t-2-8q-1-3-4-6t-3-4q-1-7 2-16t5-14q9-1 16 2t10 9 8 12 7 11q4 6 12 10t16 7q3 1 6 2t5 2q6 3 11 6t10 3q5 0 9-1t11-2q6-2 11-1t12-3q6-2 7-5t4-10q-2-9-4-13t-9-9q-2-2-5-3t-6-3q-10-6-22-13t-27-8q-10-3-20-9t-14-13q-1-2-2-4t-1-5q-4-10-11-18t-9-20q-1-4-1-7t1-8 2-7-1-8q2-2 2-4t2-4q2-3 3-6t4-6 5-6 5-5q2-1 3-2t4-1q2-1 4-3t5-5q9-7 22-12t25-8q1-3 6-4t9-3 10-1 9-1q15 2 24 5t17 6 17 6 24 5q6 4 13 11t11 13 7 15-1 17q-2 5-4 11t-4 11q-3 4-5 9t-7 9q-6 7-17 10t-21 1q-3-4-9-8t-12-7-12-8-6-12q-2-8 1-17t10-13" />
</svg>