<svg id="fnt-Train One" viewBox="0 0 2554 1000" xmlns="http://www.w3.org/2000/svg"><path id="train-one" class="f" d="M8 301v-24h301v24h-301m173 366v-338h128v24h-104v314h-24m-69 0v-314h-104v-24h128v338h-24m412-285l4 24q-31 0-53 6t-40 21-33 41v-86h24v28q15-18 37-26t61-8m-173 285v-279h24v279h-24m63 0v-183q16-29 38-42t57-13q6 0 11 0t12 1l4 26q-8-2-17-3t-15 0q-49 0-66 37v177h-24m434-67l-6 22q-3 1-7 1t-6 0q-22 0-33-11t-11-32v-106q0-36-25-52t-71-16q-35 0-62 10t-49 32l-11-20q20-22 50-34t72-12q61 0 90 23t30 69v106q0 11 7 16t18 5q4 0 7-1t7 0m-12 48l-5 22q-13 3-26 3-22 0-40-9t-22-23q-14 17-40 24t-55 8q-42 0-65-21t-22-56v-1q0-40 23-63t74-35q27-5 43-13t16-15q0-12-8-16t-28-4q-11 0-26 5t-30 15-24 21l-12-22q20-21 46-32t46-11q37 0 49 11t11 33q0 12-20 28t-58 24q-40 8-59 25t-19 49v1q0 25 17 39t46 14q20 0 37-2t33-12 33-29q5 27 21 36t34 9q8 0 15-1t15-2m-92-154v84q-4 16-16 28t-27 19-28 7q-27 0-39-13t-13-32q0-25 13-38t39-18q12-3 31-10t40-27m-24 82v-42q-12 11-40 18-19 5-27 12t-8 23q0 21 28 21 14 0 28-9t19-23m229-221v-78h24v78h-24m-67 0v-78h24v78h-24m66 312v-279h24v279h-24m-64 0v-279h24v279h-24m402 0v-183q0-22-10-40t-27-28-41-10q-19 0-38 3t-37 16-37 40v-77h24v26q11-15 32-24t56-8q31 0 54 13t35 37 13 52v183h-24m-245 0v-279h24v279h-24m181 0v-168q0-21-11-33t-29-11q-18 0-33 10t-21 29v173h-24v-176q9-30 30-45t48-15q28 0 46 17t18 51v168h-24m498 10q-54 0-95-25t-63-72-22-109q0-62 22-108t63-72 95-25 94 26 62 71 22 108q0 63-22 109t-62 72-94 25m0-24q47 0 82-22t53-64 19-96q0-54-19-95t-53-63-82-23-83 23-54 63-19 95q0 55 19 96t54 64 83 22m0-30q-30 0-56-18t-40-51-15-83q0-50 16-84t41-50 54-16q30 0 54 16t40 50 15 84q0 49-16 83t-40 51-53 18m0-24q23 0 42-15t31-44 12-69q0-61-24-94t-61-32q-23 0-43 14t-32 43-12 69q0 40 11 69t31 44 45 15m482 68v-183q0-22-9-40t-27-28-41-10q-19 0-38 3t-38 16-36 40v-77h24v26q10-15 32-24t56-8q31 0 53 13t36 37 12 52v183h-24m-245 0v-279h24v279h-24m181 0v-168q0-21-11-33t-28-11q-19 0-34 10t-20 29v173h-24v-176q8-30 29-45t49-15q28 0 45 17t18 51v168h-24m397-69l15 18q-24 29-53 43t-76 14q-43 0-75-18t-50-51-17-77q0-40 16-73t47-53 77-19q41 0 71 17t47 50 16 77q0 3 0 5t0 6l-193 24q4 19 22 31t45 12q25 0 46-10t35-29l16 19q-21 23-44 34t-53 10q-35 0-61-21t-35-67l198-24q-3-51-32-81t-78-29q-38 0-64 16t-39 44-13 61q0 37 14 65t41 42 63 15q28 0 48-6t36-17 30-28m-38-98l-167 21q6-49 29-72t59-23q33 0 53 19t26 55m-140-4l113-14q-2-12-16-22t-36-10q-17 0-30 6t-22 18-9 22" />
</svg>