<svg id="fnt-Trirong" viewBox="0 0 1741 1000" xmlns="http://www.w3.org/2000/svg"><path id="trirong" class="f" d="M94 667v-6q17-5 43-9v-317h-93q-1 12-5 32t-8 28h-11v-78h279v78h-10q-4-7-9-28t-5-32h-92v317q24 4 42 9v6h-131m216 0v-6q17-6 40-9v-217q-22-4-35-9v-4l75-8 4 43h2q8-18 25-31t37-13q24 0 41 11l-8 24q-13-10-28-10-21 0-38 14t-30 35v165q22 3 40 9v6h-125m270-276q-13 0-21-7t-7-20 7-20 21-7 20 7 8 20-8 20-20 7m-59 276v-6q9-3 23-6t17-3v-217q-20-3-35-8v-4l80-8v237q23 4 40 9v6h-125m148 0v-6q17-6 40-9v-217q-22-4-34-9v-4l74-8 4 43h2q8-18 25-31t37-13q25 0 42 11l-9 24q-12-10-28-10-20 0-38 14t-30 35v165q22 3 40 9v6h-125m343 5q-62 0-97-34t-35-95 35-96 97-34q62 0 97 34t35 96-35 95-97 34m0-18q40 0 63-30t24-81-24-82-63-30q-40 0-64 30t-23 82 23 81 64 30m425-2q24 3 40 9v6h-123v-6q22-7 38-9v-164q0-30-14-44t-39-13q-20 0-42 10t-39 30v181q20 3 40 9v6h-125v-6q20-6 40-9v-217q-21-4-35-9v-4l80-8v38q17-17 42-28t55-11q37 0 59 19t23 52v168m232-44q32 0 49 17t17 47q0 71-124 71-49 0-77-16t-28-46q0-28 26-44-10-6-15-15t-5-18q0-27 28-44-16-10-25-27t-8-37q0-39 28-61t78-22 77 22q7-8 11-17t5-14h34q-2 12-11 24t-24 23q14 18 14 45 0 39-29 60t-77 22q-27 0-50-7-16 10-16 21 0 10 9 13t29 3h84m-56-177q-30 0-46 18t-16 47 16 46 46 18 45-18 16-46-16-47-45-18m2 293q36 0 58-11t21-35q0-16-10-25t-32-8h-82q-6 0-16-1-12 13-12 34 0 22 19 34t54 12" />
</svg>