<svg id="fnt-Trispace" viewBox="0 0 2451 1000" xmlns="http://www.w3.org/2000/svg"><path id="trispace" class="f" d="M187 667h-49v-312h-103v-38h254v38h-102v312m326 0h-163v-38h53v-174h-53v-38h93l10 61v151h60v38m-61-146l-20-8q0-16 6-31t17-28 24-23 29-15 32-5q17 0 25 3t12 4l-12 43q-2-2-10-5t-21-2q-14 0-28 6t-25 15-19 22-10 24m393 146h-210v-38h82v-174h-70v-38h120v212h78v38m-129-298v-57h52v57h-52m309 303q-26 0-48-6t-38-15-25-23l40-27q4 7 11 13t16 10 21 7 25 3q13 0 25-2t20-7 14-13 5-18q0-13-10-20t-29-13-39-7q-17-3-33-7t-29-14-22-21-8-32q0-14 7-26t17-20 24-13 29-8 31-2q26 0 46 6t34 17 21 20l-39 25q-3-6-10-12t-14-10-19-6-22-2q-8 0-19 1t-19 5-15 10-6 16q0 11 9 19t24 11 34 7q13 2 27 5t28 8 25 13 18 19 6 28q0 17-6 30t-17 23-26 16-30 9-34 3m263 95h-49v-350h44l5 42v308m77-95q-24 0-42-10t-30-25-19-35-7-35l20-6q2 13 7 26t13 23 19 16 26 6q18 0 34-10t26-30 9-51q0-31-9-51t-25-29-34-10q-14 0-25 6t-20 15-14 21-7 24l-19-7q0-16 6-33t20-32 31-25 42-9q26 0 50 14t39 42 15 74q0 34-9 59t-25 41-34 23-38 8m287 0q-22 0-40-5t-30-16-21-26-7-35q0-16 6-29t17-22 23-16 28-8 30-3q18 0 33 3t25 10 15 10v-36q0-13-6-23t-14-15-21-8-25-3-24 2-22 7-18 8-14 9l-22-37q9-7 24-13t36-11 44-4q15 0 31 2t30 8 26 16 18 23 6 33v136h37v38h-77l-5-32q-4 8-15 17t-28 14-40 6m12-38q19 0 32-5t22-14 13-14v-31q-5-6-15-12t-23-10-27-4q-16 0-30 4t-24 14-9 26 8 26 21 16 32 4m350 38q-17 0-34-5t-34-14-28-26-20-36-7-50q0-28 7-50t20-36 28-25 34-15 34-4q21 0 37 5t31 13 22 20 15 24l-44 20q-3-10-11-20t-19-17-29-7q-13 0-26 5t-24 16-17 29-6 42q0 24 6 42t17 29 24 17 26 5q17 0 29-7t19-16 10-20l45 21q-5 11-14 22t-23 19-30 14-38 5m313 0q-23 0-45-8t-40-24-29-40-11-59 11-58 29-41 40-24 46-7q24 0 46 7t39 22 27 37 10 52q0 5-1 11t-1 10h-206v-32h156q0-1 0-2t0-2q0-20-10-35t-25-22-35-8q-13 0-26 5t-25 16-17 29-7 42q0 31 11 51t28 31 37 11q19 0 32-6t22-15 12-17l45 23q-5 10-16 20t-24 17-33 12-40 4" />
</svg>