<svg id="fnt-Trocchi" viewBox="0 0 1909 1000" xmlns="http://www.w3.org/2000/svg"><path id="trocchi" class="f" d="M263 667h-172v-35h56v-298h-93v114h-45v-149h333v149h-46v-114h-91v298h58v35m254 0h-155v-28h48v-207h-48v-27l93-4 6 57q7-21 23-39 8-10 21-16t27-5q20 0 34 11t14 31q0 19-11 29t-26 11q-14 0-25-9t-10-24q0-5 2-10t5-9l3-2q-15 0-26 9t-17 24q-13 30-13 67v113h55v28m209 6q-39 0-67-18t-45-49-16-70 16-71 44-49 68-18q39 0 68 18t44 49 15 71q0 39-15 70t-44 49-68 18m0-31q33 0 52-28t19-75q0-29-7-55t-22-41-42-16q-28 0-43 16t-22 42-7 54q0 47 20 75t52 28m289 31q-38 0-66-17t-44-47-16-68q0-39 15-72t45-52 72-19q18 0 36 5t33 16 25 26 10 38q0 15-11 27t-28 13q-16 0-27-10t-10-25q0-16 11-24t26-9q-8-13-23-22t-33-8q-29 0-48 16t-28 40-10 52q0 47 22 74t60 27q20 0 36-10t27-24 14-24l27 9q-9 40-39 64t-76 24m273 0q-38 0-66-17t-45-47-15-68q0-39 15-72t45-52 72-19q18 0 36 5t33 16 25 26 9 38q0 15-10 27t-28 13q-16 0-27-10t-10-25q0-16 11-24t26-9q-8-13-23-22t-34-8q-28 0-47 16t-28 40-10 52q0 47 22 74t60 27q20 0 36-10t27-24 13-24l28 9q-9 40-39 64t-76 24m285-6h-146v-28h45v-310h-47v-30h100v152q9-19 24-32t31-17q14-4 31-4 10 0 19 1t21 7q12 6 20 15t15 27 5 42v149h53v28h-152v-28h47v-151q0-28-11-42t-28-14q-12 0-26 7t-24 18q-11 12-18 29t-7 35v118h48v28m335 0h-148v-29h47v-206h-47v-27h100v233h48v29m-78-309q-15 0-26-10t-11-26q0-15 11-26t26-10q14 0 25 11t11 25q0 15-11 26t-25 10" />
</svg>