<svg id="fnt-Truculenta" viewBox="0 0 1877 1000" xmlns="http://www.w3.org/2000/svg"><path id="truculenta" class="f" d="M122 667l-43-1q1-8 1-25t1-38 2-45 0-45 1-37q0-22-1-48t-1-50 0-39-1-15l40 1t0 8-1 22 0 34-1 43 0 49 0 52 1 50 1 43 0 30 1 11m-117-315l1-36t10 0 25 0 29 0 23 0q8 0 20 0t27-1 28 0 21 0 8 0l2 33t-8 0-20 0-26 0-26 1-19 0-20 0-24 1-25 1-19 0-7 1m341 199h-31q5-24 8-45t3-36q0-19-6-29t-19-11q-9 0-20 7t-18 28-8 58l-19 21q0-12 2-31t5-38 12-36 20-28 32-10q17 0 28 9t15 25 5 37q0 17-3 37t-6 42m-89 115h-37q1-11 1-22t2-26 1-33 0-42q0-23 0-43t-1-37-1-30-2-25l34-1q0 11 0 28t0 39 1 49q0 24 0 45t1 40 0 33 1 25m192 6q-22 0-33-11t-14-30-3-44q0-2 0-13t1-25 1-33q1-20 1-39t1-33 1-25 0-12l35-3q-1 13-2 27t-2 29-2 32-1 33q-1 13-1 24t-1 21-1 16 0 12q0 14 2 24t7 17 14 6q12 0 22-8t18-24 13-38 5-49l12-3q0 23-2 45t-6 41-13 33-22 22-30 8m96-5h-33l-3-53q1-22 1-44t0-44q0-11 0-26t-1-30-1-33 0-33l35 0q0 10-1 24t0 28-1 29 0 25 0 15q1 14 1 28t1 28 1 29 0 28 1 29m134 6q-27 0-42-15t-22-39q-5-18-7-38t-2-41q0-24 2-47t10-40q6-14 15-25t22-17 33-6q23 0 36 11t19 29 6 41q0 9-1 19t-2 19l-31-1q1-11 2-22t1-21q0-14-3-25t-10-17-21-6q-16 0-26 10t-13 28q-4 16-5 34t-1 37q0 11 0 22t2 20 2 19q4 18 13 30t26 13q14 0 22-6t12-16 4-22q0-4 0-8t-1-9l31-1q0 4 0 7t0 8q0 22-7 39t-23 26-41 10m182-1q-22 0-33-11t-14-30-3-44q0-2 0-13t1-25 1-33q1-20 1-39t1-33 1-25 0-12l35-3q-1 13-2 27t-2 29-2 32-1 33q-1 13-1 24t-1 21-1 16 0 12q0 14 2 24t7 17 14 6q12 0 22-8t18-24 13-38 5-49l12-3q0 23-2 45t-6 41-13 33-22 22-30 8m96-5h-33l-3-53q1-22 1-44t0-44q0-11 0-26t-1-30-1-33 0-33l35 0q0 10-1 24t0 28-1 29 0 25 0 15q1 14 1 28t1 28 1 29 0 28 1 29m106-5l-37 4q0-12 0-31t1-44 0-51 0-52q0-19 0-42t0-47-1-44 0-37l37 0q0 15-1 36t-2 44-1 47-1 43q0 26 1 58t2 63 2 53m140 11q-28 0-43-15t-23-39q-6-19-8-41t-1-46q0-20 2-39t7-33q8-25 25-41t47-15q23 0 37 11t19 30 6 42q0 14-2 28t-4 30l-29-26q2-11 3-21t1-19q0-14-3-25t-11-16-20-6q-15 0-24 10t-14 25q-4 14-6 31t-1 34q0 13 0 25t1 24 3 21q4 19 13 31t27 12q14 0 22-7t12-16 3-22q0-4 0-8t-1-8h29q1 5 1 10t1 10q0 20-8 35t-23 25-38 9m-62-125l0-29 124-1v27t-8 0-20 0-29 1-34 1-33 1m346 120l-40-2q0-8 1-21t1-28 2-36 0-43q0-6 0-15t0-18 0-21q0-19-3-30t-10-15-15-5q-11 0-23 10t-20 32-7 61l-19 24q0-19 1-40t6-41 13-38 22-27 34-10q16 0 27 8t18 24 7 44q0 19 0 27t0 13 0 14q0 27 1 48t1 36 1 28 2 21m-112-2h-38q1-10 1-21t2-24 1-32 1-46q0-36-1-67t-1-49 0-19l33-1q0 11 0 31t-1 46 1 53q0 39 0 62t1 38 1 29m243 6q-19 0-32-7t-19-18-10-26-3-32q0-16 1-34t2-38q2-38 3-62t2-38 1-23 1-17-1-19l40 0q-2 22-5 45t-4 46-3 41-2 30q-1 17-2 32t-1 28q0 21 3 35t9 22 20 8q15 0 23-8t11-21 3-30q0-8 0-16t-2-18-2-17h30q2 8 2 16t2 17 0 15q0 26-6 46t-21 31-40 12m-85-234l3-29q-1 0 5 0t15 0 19 0 17 1 10 0q9 0 21-1t23 0 21 0 15-1 6 0l-3 26t-4 0-13 0-17 0-20 1-20 0q-12 0-26 1t-25 1-19 1-8 0m343 229h-31v-57l-2-127q0-29-11-42t-25-13q-17 0-26 13t-8 32q0 7 1 13t3 14l-29 2q-2-9-3-17t-1-15q0-21 7-35t22-23 35-8q21 0 34 7t20 21 10 29 2 33l0 44 2 129m-86 3q-17 0-29-8t-18-23-7-32q0-15 5-26t12-20 17-16 20-13 19-11 17-11 12-12 5-15l18 4q0 16-7 27t-19 19-24 16q-11 7-22 14t-16 18-6 24q0 11 3 19t8 13 16 5q16 0 27-11t17-30 7-45l16-32q0 37-4 64t-11 46-22 27-34 9" />
</svg>