<svg id="fnt-Tsukimi Rounded" viewBox="0 0 4165 1000" xmlns="http://www.w3.org/2000/svg"><path id="tsukimi-rounded" class="f" d="M39 267h241q6 0 10 4t5 11-5 10-10 5h-105v354q0 6-4 10t-11 5-12-5-4-10v-354h-105q-7 0-11-5t-4-10 4-11 11-4m375 405q-28 0-58-15t-44-38q-2-4-2-8 0-6 4-11t11-4q9 0 13 7 9 18 31 29t45 11q31 0 49-10t19-27q0-16-16-28t-54-26-63-31-24-46q0-19 12-34t33-24 46-9q33 0 59 15t36 39q1 2 1 6 0 7-4 11t-11 4q-4 0-8-2t-6-6q-7-17-26-27t-42-11q-26 0-43 11t-17 27 19 28 51 22q46 15 66 33t21 48q0 31-26 49t-72 17m394-26q13 7 13 15 0 7-5 10t-12 3q-15 0-27-13t-13-35q-14 20-35 33t-47 13q-25 0-45-12t-32-31-11-45q0-71 0-113 0-10-4-20t-10-13q-6-4-10-8t-3-7q0-7 5-10t12-4q17 0 29 16t11 44l0 112q0 26 17 43t42 18q19 0 37-12t31-29 13-38l3-136q0-6 4-10t11-4 10 4 5 11l-3 185q-1 9 4 19t10 14m142-134l149 132q5 3 5 11 0 6-5 10t-10 5q-6 0-11-5l-152-135-1 124q0 6-5 10t-10 5q-7 0-11-5t-4-10q0-55 1-178t3-195q0-10-5-20t-10-13q-6-4-9-8t-3-7q0-7 5-10t11-4q18 0 29 16t12 44q0 26-1 106-1 17-1 44t-1 62l151-81q3-2 8-2 6 0 10 4t5 11q0 4-2 8t-6 5l-142 76m251-178q-10 0-16-6t-7-16q0-9 7-16t16-6q9 0 15 6t7 16-7 16-15 6m0 339q-6 0-10-5t-5-10l2-103 1-84q1-10-4-20t-10-13q-6-4-9-7t-3-8q0-6 5-10t11-4q18 0 29 16t11 42q0 27-1 74t-1 71l-1 46q0 7-4 11t-11 4m498-26q6 4 9 7t4 8q0 6-5 10t-12 3q-18 0-30-16t-11-45l1-101q0-35-16-54t-46-19q-32 0-51 20t-22 51q0 26 0 80t-1 63q-1 6-5 10t-11 4q-6 0-10-4t-4-10q0-15 1-69t0-78q0-30-16-49t-43-19q-30 0-51 19t-24 48l-3 148q0 7-5 11t-11 4q-6 0-10-5t-4-10l3-183q0-10-4-20t-10-13q-6-4-10-8t-3-7q0-7 5-10t12-4q14 0 25 11t14 32q14-20 34-31t44-10q26 0 47 14t31 40q13-26 35-40t48-14q44 0 67 26t24 75l-1 102q0 9 5 20t10 13m109-313q-10 0-16-6t-7-16q0-9 7-16t16-6q9 0 15 6t7 16-7 16-15 6m0 339q-6 0-10-5t-5-10l2-103 1-84q1-10-4-20t-10-13q-6-4-9-7t-3-8q0-6 5-10t11-4q18 0 29 16t11 42q0 27-1 74t-1 71l-1 46q0 7-4 11t-11 4m511-29q9 7 9 14 0 7-4 11t-11 4q-5 0-8-2-29-15-38-80-2-11-4-33t-2-35q-1-22-16-36t-36-22-41-7h-56v196q0 6-4 10t-11 5-11-5-4-10v-372q0-8 4-12t13-5q17 0 47-1t50 0q52 0 83 25t30 71q0 34-22 57t-57 31q58 20 61 72 1 13 2 36t4 32q3 24 8 37t14 19m-207-349v134h74q43 0 68-17t25-52q0-33-21-49t-62-17q-76 0-84 1m392 378q-36 0-64-17t-44-48-15-67 15-68 44-47 64-17q35 0 63 17t43 47 16 68-16 67-43 48-63 17m0-30q27 0 48-13t32-37 12-52q0-29-12-53t-32-36-48-13q-28 0-49 13t-33 36-11 53q0 29 11 52t33 37 49 13m417 3q13 7 13 15 0 7-5 10t-12 3q-15 0-27-13t-13-35q-14 20-35 33t-47 13q-25 0-45-12t-32-31-11-45q0-71 0-113 0-10-4-20t-10-13q-6-4-10-8t-3-7q0-7 5-10t12-4q17 0 29 16t11 44l0 112q0 26 17 43t42 18q19 0 37-12t31-29 13-38l3-136q0-6 4-10t11-4 10 4 5 11l-3 185q-1 9 4 19t10 14m302 0q6 4 9 7t4 8q0 6-5 10t-12 3q-17 0-29-16t-11-44l0-65q1-16 1-39 0-33-19-52t-49-18-50 21-21 55v-1q-3 98-3 139 0 7-4 11t-10 4q-6 0-11-4t-5-11l2-101 1-82q1-10-4-20t-10-13q-6-4-9-8t-3-7q0-7 5-10t11-4q15 0 25 11t14 31q13-19 32-30t40-10q44 0 71 26t27 68l-1 108q0 9 4 19t10 14m322 0q6 4 9 7t4 8q0 6-5 10t-12 3q-16 0-28-14t-13-37q-16 23-40 36t-52 13q-37 0-66-18t-45-48-17-69q0-37 17-67t46-48 65-17q29 0 53 13t40 37q2-181 3-219 0-6 4-11t11-4q6 0 11 4t4 11q-1 54-4 313l0 64q0 9 4 19t11 14m-137-4q26 0 47-14t33-37 12-54q0-29-12-52t-33-37-47-13q-28 0-50 13t-35 37-13 52q0 30 13 54t35 37 50 14m416-31q7 0 10 4t4 10q0 6-4 11-14 18-43 28t-62 10q-36 0-65-16t-46-45-16-66q0-38 17-70t47-49 66-18q29 0 51 10t35 27 12 38q0 30-27 48t-70 18q-29 0-56-8t-43-20q-2 14-2 26 0 28 12 49t35 34 50 12q29 0 51-7t32-21q5-5 12-5m-92-171q-29 0-53 15t-36 40q14 12 38 20t52 8q31 0 49-10t18-27q0-19-19-33t-49-13m419 206q6 4 9 7t4 8q0 6-5 10t-12 3q-16 0-28-14t-13-37q-16 23-40 36t-52 13q-37 0-66-18t-45-48-17-69q0-37 17-67t46-48 65-17q29 0 53 13t40 37q2-181 3-219 0-6 4-11t11-4q6 0 11 4t4 11q-1 54-4 313l0 64q0 9 4 19t11 14m-137-4q26 0 47-14t33-37 12-54q0-29-12-52t-33-37-47-13q-28 0-50 13t-35 37-13 52q0 30 13 54t35 37 50 14" />
</svg>