<svg id="fnt-Tulpen One" viewBox="0 0 1035 1000" xmlns="http://www.w3.org/2000/svg"><path id="tulpen-one" class="f" d="M1 327h109v16h-45v324h-18v-324h-46v-16m173 91h19v204q0 11-3 20t-8 16-13 10-19 4-18-4-13-9-8-14-3-18v-209h18v210q0 12 6 19t18 8q12 0 18-9t6-21v-207m70 249h-18v-382h18v382m118-249v204q0 9-3 18t-8 14-13 9-19 4h-24v108h-18v-312q0-10 3-18t8-14 13-10 18-3h43m-19 206v-190h-24q-11 0-18 8t-6 19v189h24q12 0 18-7t6-19m115-190h-23q-12 0-18 8t-7 19v87h25q11 0 17-8t6-19v-87m-23-16h42v101q0 10-3 18t-8 14-13 10-18 3h-25v65q0 11 7 18t18 8q11 0 17-9t6-21l19-3q0 11-3 20t-8 15-13 11-18 4q-11 0-19-4t-13-9-8-14-3-18v-164q0-10 3-18t8-14 13-10 19-3m156 45v204h-18v-206q0-11-7-19t-17-8h-25v233h-18v-249h43q10 0 18 3t13 10 8 14 3 18m16 204 190-345v281q0 13-3 26t-8 22-17 15-27 6q-15 0-25-6t-17-15-9-22-2-26v-210q0-8 0-17t2-16 6-15 11-12 17-8 27-3h45m-18 289v-273h-22q-13 0-22 2t-16 8-9 14-3 23v226q0 9 2 16t6 15 11 10 17 3q10 0 17-3t11-10 6-14 2-17m139-148v204h-18v-206q0-11-6-19t-18-8h-24v233h-19v-249h43q10 0 18 3t13 10 9 14 2 18m97-29h-24q-12 0-18 8t-6 19v87h24q12 0 18-8t6-19v-87m-24-16h42v101q0 10-2 18t-8 14-14 10-18 3h-24v65q0 11 6 18t18 8q12 0 18-9t6-21l18-3q0 11-2 20t-8 15-14 11-18 4q-10 0-18-4t-14-9-8-14-2-18v-164q0-10 2-18t8-14 14-10 18-3" />
</svg>