<svg id="fnt-Twinkle Star" viewBox="0 0 2683 1000" xmlns="http://www.w3.org/2000/svg"><path id="twinkle-star" class="f" d="M130 689q-33 0-59-15t-40-41-15-57q0-5 1-11t1-12q4-22 18-40t34-28 41-10q17 0 33 8t28 28q9 14 9 31 0 17-10 32t-26 21q-4 1-10 2t-12 1q-6 0-11-4t-5-9q0-4 3-7t10-5q4-1 7-1t6 0h1q1 0 3 0t5-3q7-4 10-11t4-15q0-10-5-20-7-12-17-18t-23-5q-14 0-29 7t-26 21-13 29q-2 10-2 19 0 25 11 45t31 32 47 12q43 0 70-16t40-43 20-61 6-70q0-11-1-26t-2-31q-1-6-1-12t0-12q0-10 1-20t2-19q-23-7-44-14t-41-12-46-5q-23 0-39 11t-24 26-8 33q0 17 9 32t29 19q2 0 4 0t4 0q10 0 22-4t22-11 12-15l1-2q-3-1-3-7t4-12 8-6 10 8q2 3 2 9t1 9q-1 18-13 30t-29 19-34 7q-4 0-9-1t-8-1q-29-7-43-28t-14-45q0-23 11-45t33-37 52-14q24 0 45 4t44 11q12 4 24 8t24 8q7-15 17-25 2-1 9-5t9-4q7 0 11 4t3 10q0 4-2 7t-8 3q-10 0-15 17l2 1q9 2 22 3t26 2q13 0 25-2t19-7q2-2 2-2v-1q0-4 6-7t10-4q9 0 9 10 0 1 0 3t-1 3q0 2-4 6t-5 7q-11 11-26 15t-33 5q-16 0-31-3t-26-5q-1 11-2 22t0 24q0 5 0 10t0 10q1 17 1 30t1 18q1 41-6 79t-25 69-49 48-80 18m312-14q-24 0-37-11t-18-30-4-37q0-12 1-24t2-22q2-17 4-35t1-36q0-6-1-13t-10-7q-13 0-16 3t-8 14q-3 8-11 8-6 0-10-5t-3-12q4-14 18-24t31-10q14 0 25 11t11 37q0 18-2 36t-3 36q-1 8-2 20t-2 24q0 13 3 25t10 19 21 8q16 0 25-8t18-22q6-10 10-22t6-25q0-7 0-14t0-13v-23q0-3 0-12t1-19 1-20 2-12q2-4 5-6t7-2q4 0 8 2t6 8q0 1 0 9t1 19 0 19 0 11q0 11-2 26t-4 27q0 19 6 35t15 28 22 10q9 0 18-6t20-19q10-13 15-38t4-51q0-26-4-45-9-6-17-18t-8-23q0-5 2-10t10-7q1 0 4 0 7 0 13 6t9 12q3 5 5 10t4 11q6 2 13 2 7 0 13-2t12-5q3-1 7-1 5 0 9 4t4 9q0 7-6 11-8 5-17 7t-18 3q-2 0-5 0t-6-1q1 7 2 15t0 17q0 28-6 58t-18 50q-11 18-28 27t-33 10-33-11-24-34q-10 21-27 34t-41 14m303-273q-10 0-16-7t-7-17 7-16 16-7q9 0 15 7t7 16-7 17-15 7m24 274q-14 0-26-12-11-11-15-28t-4-38q0-20 3-41t4-40 3-30q0-15-5-19-13-6-13-16 0-5 4-8t9-3q7 0 12 4t9 9q6 7 7 17t2 21q0 14-1 30t-4 33q-1 14-3 26t-1 25q0 13 3 24t8 16q4 3 9 3 9 0 17-9t12-16q2-4 3-8t4-7q3-8 11-8 5 0 9 4t5 9q0 1-1 4-4 11-13 25t-22 23-26 10m262 0q-12 0-24-5t-19-16-9-27-3-32q0-25 3-49t2-39q0-13-2-24-4-16-14-23t-29-7q-16 0-26 11t-18 25q-17 32-20 71t-4 76v17q0 4-4 7t-10 3q-5 0-8-3t-4-9q0-2 0-4t1-3q0-9 1-25t1-38 1-43q0-34-2-63t-8-40q-4-4-4-10 0-5 3-9t8-4q2 0 4 0t4 2q8 6 13 25t7 41q10-21 26-37t39-16q25 0 43 13t24 37q2 7 2 15t1 18q0 20-2 44t-1 44q0 15 1 26t5 16q4 4 10 7t13 2q8 0 13-4 3-5 7-8t8-2q4 0 7 2t4 9q0 4-4 12-5 10-16 14t-20 3m187-2q-21 0-35-13t-23-29-15-33q-1-3-4-10t-5-17-5-17-2-10q-1-6 1-10t8-5q7-2 18-8t24-12 22-16 12-15q1-4 1-7 0-5-2-10t-5-5q-3-1-6-1t-6 0q-18 0-34 12t-25 28q-8 13-15 32t-11 38-4 35q0 14 0 27t-1 27q0 5-4 7t-8 3q-4 0-8-2t-5-6q-1-2-1-15t-1-28-1-29 0-16q0-26-1-52t0-50q0-14 0-27t2-26q3-34 13-60t33-39q5-3 11-4t12-1q5 0 10 0t9 4q4 2 5 5t2 7q0 5-3 8t-9 4q-3 0-4 0-4-1-7-2t-5-1q-2 0-4 1t-5 2q-6 2-11 10t-8 17-5 16q-6 21-8 43t-1 44q0 8 0 17t0 18q9-19 21-35t30-28 38-10q10 0 21 3 13 3 20 15t7 24q0 8-2 14-5 15-19 27t-32 23-31 14q2 10 7 26t13 33 18 27 20 12h1q18 0 27-11t15-24 11-26q2-5 5-7t7-2q5 0 9 4t3 12q-4 18-14 36t-25 31-36 13m138-3q-8 0-16-5-13-7-19-21t-8-30-1-27v-100q0-16 0-38t4-44 7-43 14-32 23-12q11 0 19 7t12 16 7 18q4 14 6 29t2 33q0 36-9 72t-29 59q-4 6-13 14t-18 8v13q0 4 1 14t2 19 5 17 11 7 12-7 11-16 7-13q4-7 13-7 4 0 8 3t4 8q0 2-1 5-3 10-11 23t-19 21-24 9m-19-165v41q7-5 12-10 9-11 16-31t11-43 5-46q0-20-4-38t-12-30q-4-5-6-5-2 0-4 3-2 5-4 10t-4 10q-3 13-5 31t-3 38-2 38 0 32m195 165q-32 0-54-17t-34-45-11-56q0-28 10-54t30-43q19-15 38-22t37-7q33 0 47 15t14 36q0 17-9 34t-25 29q-17 12-38 18t-41 7q-19 0-36-6 1 23 9 42t24 32 39 12q12 0 26-4t27-11 15-19q1-4 1-9t0-8q0-7 4-10t9-3q4 0 8 3t4 10q0 7 0 12t-2 13q-6 19-22 30t-34 16-36 5m-36-131q9 0 17-1 16-3 32-11t28-20 11-30q0-11-8-17t-19-8q-3 0-6-1t-6 0q-22 0-40 12t-29 30-14 40q7 3 16 5t18 1m454 159q-26 0-51-7t-47-23-34-36-13-49q0-9 2-18 5-35 28-55t57-21q4 0 7 0t8 1q20 3 37 14t28 28 11 37q0 12-3 23-7 19-25 31t-39 12q-14 0-26-6-2-1-8-6t-7-6q-3-6-3-9 0-5 4-8t8-2q5 0 9 2t6 6l1 1t5 2q4 1 7 1 9 0 18-4t17-9 10-12q1-5 1-13 0-18-9-31t-25-20-33-7q-50 0-60 55 0 4-1 7t0 7q0 28 19 49t45 32q13 5 27 7t29 3q23 0 46-7t43-20 31-32 12-45q0-28-13-47t-34-29-45-19q-15-5-32-10t-34-12-29-19-18-28q-3-12-3-25 0-27 15-47t39-31 51-11q15 0 30 4t29 12q15 9 25 25t11 34q0 9-4 18t-13 17q-6 5-14 8t-15 3q-14 0-26-9t-9-27q1-6 6-10t9-5q6 0 9 9 1 1 1 4 0 1-1 2t0 4q1 4 4 6t8 2q5 0 8-2 5-3 8-8t4-13q0-12-9-23t-19-17q-10-5-21-7t-21-2q-21 0-39 8t-30 23-12 36q0 9 2 16 3 11 14 19t28 15 31 11 24 7q29 8 53 23t41 37 15 58q0 31-14 55t-36 40-51 25-55 8m240-30q-2 0-4 0t-4-1q-12-4-19-15t-11-26-4-30 0-28q0-17-1-34t0-33q0-12 0-24t1-26h-17q-6 0-10-4t-3-9q0-4 3-8t10-4h19q1-19 1-41t1-41q0-6 4-10t9-3 9 3 4 10q0 19-1 41t-2 41h67q6 0 9 4t3 8q0 5-3 9t-9 4h-68q0 14-1 27t0 27v60q0 8 1 20t1 24 4 22 8 11q3 1 5 1 4 0 8-2t8-2q1-1 2-1t2 0q6 0 9 4t3 9q0 8-7 12-4 2-12 4t-15 1m157 2q-23 0-38-10t-24-26-13-34-4-37q0-35 17-69t47-54q26-17 57-17 19 0 35 7t26 21 11 39q0 9-3 32t-2 49q0 19 2 35t10 28 21 10q7 0 10 4t3 9q0 5-3 9t-10 4q-19 0-32-10t-19-24-8-30q-8 15-20 30t-28 24-35 10m0-26q17 0 29-10t23-27 16-35 11-37 7-30q2-9 2-16 0-6-2-12t-5-12q-7-8-17-12t-22-4q-11 0-22 3t-20 9q-24 17-39 45t-14 57q0 19 4 37t16 32 33 12m192 20q-5 0-10-3t-5-7q-1-9-1-17t0-14q0-14 0-27t1-31q0-22-1-43t0-43v-38q0-7 4-10t9-3 8 3 5 10v24q12-17 31-29t41-12q19 0 35 9t23 29q3 8 3 17 0 10-4 20t-13 16q-4 2-8 2-5 0-9-3t-3-9q0-5 4-10t6-8 2-7q0-5-2-9-3-11-13-16t-21-6q-13 0-24 7t-21 16q-13 12-20 30t-6 36v43q0 18 0 36t-1 37q0 5-3 7t-7 3" />
</svg>