<svg id="fnt-Ubuntu Mono" viewBox="0 0 2731 1000" xmlns="http://www.w3.org/2000/svg"><path id="ubuntu-mono" class="f" d="M125 673q-27 0-47-8t-31-22-17-36-6-47v-203h41v199q0 23 4 39t12 25 19 14 25 4 25-4 19-14 12-25 4-39v-199h41v203q0 26-5 47t-18 36-31 22-47 8m202-353v123q8-4 22-9t32-5q23 0 42 9t31 25 19 38 7 50q0 28-8 50t-22 38-35 25-46 8q-27 0-49-4t-34-8v-333l41-7m0 164v147q10 2 19 3t18 2q35 0 54-22t20-63q0-18-4-34t-11-27-19-18-28-6q-15 0-28 5t-21 13m388-49v225q-14 4-36 8t-52 4q-27 0-44-8t-29-22-15-34-5-43v-130h41v121q0 43 13 61t43 18q6 0 13 0t13-2 10-1 6-1v-196h42m71 232v-226q22-5 44-8t42-3q47 0 70 24t24 77v136h-41v-129q0-22-4-36t-11-22-18-11-22-3q-10 0-21 1t-22 4v196h-41m336-304v72h98v34h-98v108q0 18 2 29t8 17 15 10 22 2q18 0 29-3t21-8l6 35q-7 3-22 8t-38 5q-26 0-42-6t-26-18-13-30-3-41v-108h-49v-34h49v-65l41-7m343 72v225q-14 4-36 8t-52 4q-27 0-44-8t-29-22-15-34-5-43v-130h41v121q0 43 13 61t43 18q6 0 13 0t13-2 10-1 6-1v-196h42m362-78l49 154 48-154h38q10 73 14 150t8 160h-40q0-27-1-59t-1-65-2-68-1-67l-45 141h-36l-46-141q-1 33-2 67t-1 68-2 65-1 59h-40q2-38 4-78t4-80 7-78 8-74h38m403 194q0 27-8 49t-21 39-34 24-42 9q-23 0-42-9t-33-24-22-39-8-49 8-50 22-39 33-24 42-9q23 0 42 9t34 24 21 39 8 50m-42 0q0-40-17-63t-46-22q-29 0-46 22t-16 63q0 39 16 61t46 23q29 0 46-23t17-61m98 116v-226q22-5 44-8t42-3q47 0 70 24t24 77v136h-41v-129q0-22-4-36t-11-22-18-11-22-3q-10 0-21 1t-22 4v196h-41m444-116q0 27-8 49t-21 39-34 24-42 9q-23 0-42-9t-33-24-22-39-8-49 8-50 22-39 33-24 42-9q23 0 42 9t34 24 21 39 8 50m-42 0q0-40-17-63t-46-22q-29 0-46 22t-16 63q0 39 16 61t46 23q29 0 46-23t17-61" />
</svg>