<svg id="fnt-Uchen" viewBox="0 0 1368 1000" xmlns="http://www.w3.org/2000/svg"><path id="uchen" class="f" d="M18 303h130v22h-18q-8 0-16 6t-8 22v199q0 25 6 43t16 28 29 15 44 5q21 0 37-7t27-20 17-31 6-38v-194q0-16-7-22t-16-6h-20v-22h114v22h-20q-8 0-16 6t-7 22v167q0 38-6 67t-22 48-39 29-60 10q-64 0-97-28t-33-78v-215q0-16-7-22t-16-6h-18v-22m539 297l17 7q-13 38-32 53t-52 14q-21 0-38-9t-31-24-19-37-7-46q0-31 7-56t20-43 33-27 45-10q16 0 30 6t25 16 16 21 5 24q0 14-6 21t-17 7q-12 0-21-8t-9-20q0-11 4-17t5-8-3-5-7-6-11-5-12-3q-15 0-26 8t-19 20-12 32-4 41q0 47 18 74t50 27q17 0 30-12t21-35m122-304v176h2q9-21 30-33t45-13q33 0 53 22t20 73v100q0 16 7 22t17 6h9v18h-107v-19h9q8 0 16-5t8-21v-102q0-34-13-48t-31-15q-13 0-25 8t-21 19-14 28-5 34v75q0 16 8 22t16 6h9v18h-107v-19h9q9 0 16-6t8-21v-267q0-14-3-22t-14-8l-23-2v-19l81-7m377 304l17 7q-13 38-37 53t-56 14q-21 0-38-9t-30-24-20-37-7-46q0-31 7-56t20-43 33-27 45-10q21 0 38 12t30 30 20 41 6 43v6h-156q2 44 20 69t49 24q8 0 17-3t17-9 15-15 10-20m-15-90q0-28-14-46t-37-19q-26 0-42 23t-19 60h88q9 0 14 0t7-3 3-6 0-9m146-88v50h1q10-21 31-33t45-13q32 0 53 22t20 73v100q0 16 7 22t17 6h6v18h-104v-19h9q8 0 16-5t7-21v-102q0-34-13-48t-30-15q-13 0-25 8t-21 19-14 28-5 34v75q0 16 7 22t16 6h10v18h-107v-19h9q9 0 16-6t8-21v-141q0-15-3-22t-14-8l-17-2v-18l75-8" />
</svg>