<svg id="fnt-Ultra" viewBox="0 0 1600 1000" xmlns="http://www.w3.org/2000/svg"><path id="ultra" class="f" d="M10 307h217v91q-19 0-26 5t-7 19v113q0 9 2 17t7 15 12 10 21 4q23 0 34-12t11-33v-113q0-15-10-20t-24-5v-91h160v91q-16 0-25 4t-8 20v117q0 22-6 46t-23 45-47 33-82 14q-38 0-64-7t-46-18-29-25-17-29-8-29-2-26v-118q0-16-9-22t-31-5v-91m428 0h170v243q0 16 8 21t20 5h7v91h-205v-91h9q13 0 19-8t6-18v-125q0-14-8-21t-21-6h-5v-91m302 0h89v91h73v90h-73v75q0 16 4 27t19 10q8 0 13-3t7-8 4-12 0-14v-36h29v39q0 24-5 44t-18 36-32 23-53 9q-35 0-55-8t-32-24-14-35-3-45v-78h-38v-80q18 0 34-8t27-22 17-32 7-39m189 91h145l-4 67h4q9-39 29-59t52-19q18 0 32 6t22 16 12 23 3 27q0 11-3 22t-11 21-20 14-29 6q-25 0-39-13t-14-30q0-8 2-14t4-10 3-6-2-1q-5 0-11 11t-6 37v56q0 13 5 19t17 5h15v91h-206v-91h15q10 0 15-6t5-16v-46q0-12-6-16t-16-4h-13v-90m432 34q-12 0-21 1t-15 5-11 5-7 6l2 2q5-2 10-5t14-2q15 0 25 9t11 30q0 20-16 31t-43 12q-26 0-41-15t-15-41q0-15 8-30t26-27 44-19 65-7q46 0 75 8t44 22 22 31 6 34v96q0 22 2 30t11 8q7 0 11-8t3-24v-31h27v31q0 22-3 39t-14 29-28 18-45 7q-25 0-41-6t-26-13-13-16-4-15h-4q-2 10-9 19t-19 16-29 11-40 5q-21 0-38-4t-29-13-19-23-7-32q0-24 14-37t33-22 43-13 44-12 33-18 13-32q0-18-11-29t-38-11m49 142v-37q-5 8-13 13t-16 9-12 11-6 17q0 8 4 14t18 7q11 0 18-9t7-25" />
</svg>