<svg id="fnt-Underdog" viewBox="0 0 2167 1000" xmlns="http://www.w3.org/2000/svg"><path id="underdog" class="f" d="M333 312l-2 18-27 10-10 267-50 60-128 5-59-63-11-249-3-21-28-8 1-14 105-1 2 14-33 10 1 241 32 50 103-3 31-44-4-247-24-8 1-13 103-4m314 289l27 30-84 42-30-15v-152l-15-46-38-4-58 84v102l27 8-4 19-91-4-4-11 27-12v-182l-34-19 26-34 46 49 7 46 50-80 65 4 38 68-8 134 8 7 45-34m197-25l2-109-58-22-54 18-13 98 45 73 28-6 50-52m98 82l-80 6-20-45-33 44-76-4-51-101 30-117 73-29 67 27 2-125 32-37 28 23-21 17-9 319 48-9 10 31m68-123l0-2 117-19-14-65-33-13-66 22-4 77m31-125l71 5 40 35 14 86-156 25 27 80 59-2 70-21 4 40-141 20-62-91 7-129 67-48m316 9l35 42-30 26-27-39-40 14-12 26 2 150 29 10-3 17h-88l-2-13 24-10-1-200-24-14 21-27 37 23 3 17 25-10 51-12m222 157l2-109-58-22-54 18-13 98 45 73 28-6 50-52m98 82l-80 6-20-45-33 44-76-4-51-101 30-117 73-29 67 27 2-125 32-37 28 23-21 17-9 319 48-9 10 31m145-217l-51-4-44 57 9 99 56 52 37 0 47-92-21-87-33-25m-67-37h84l53 49 20 114-71 111-70 3-73-89-6-114 63-74m247 57l-16 37 37 51 72 12 31-59-18-46-71-11-35 16m15 126l-18-14-10 56 104 6 34 3 23 70-177 45-26-63 35 8 2 28 127-43-8-16-140-16-13-35 21-66-19-22 2-56 50-52 82-1 10 7 65-42 5 23-46 36 11 9 34 41-38 96-110-2" />
</svg>