<svg id="fnt-Unica One" viewBox="0 0 1994 1000" xmlns="http://www.w3.org/2000/svg"><path id="unica-one" class="f" d="M180 604v-262h35v262q0 33-21 51t-63 19-65-19-21-51v-262h35v262q0 19 13 29t38 11q25 0 37-11t12-29m165 63h-35v-325h15l13 32q10-17 27-29t39-11q28 0 44 9t23 25 7 36v263h-35v-263q0-17-8-28t-30-12q-16 0-30 8t-22 20-8 22v253m263 0h-35v-325h35v325m222-63v-27h35v27q0 33-20 51t-62 19-62-19-21-51v-200q0-32 20-51t62-19 63 19 20 51v48h-35v-48q0-19-12-29t-36-11q-24 0-35 11t-12 29v200q0 19 12 29t36 11q24 0 36-11t11-29m278 63h-15l-13-32q-10 17-27 28t-38 11q-27 0-43-9t-23-25-6-36v-50q0-20 6-36t23-25 43-9h58v-82q0-17-12-28t-34-10q-22 0-33 10t-11 28v30h-35v-28q0-33 19-51t60-19 61 19 20 51v263m-35-71v-82h-58q-23 0-30 12t-7 28v50q0 17 7 29t30 11q15 0 27-8t22-19 9-21m407-192v200q0 33-21 51t-63 19-65-19-21-51v-200q0-32 21-51t64-19 64 19 21 51m-35 200v-200q0-19-12-29t-38-11q-25 0-38 11t-12 29v200q0 19 13 29t38 11q25 0 37-10t12-30m163 63h-35v-325h15l12 32q11-17 28-29t39-11q27 0 43 9t23 25 7 36v263h-35v-263q0-17-7-28t-31-12q-15 0-29 8t-22 20-8 22v253m350-63v-27h35v27q0 33-20 51t-62 19-63-19-20-51v-200q0-32 20-51t62-19 62 19 21 51v110h-130v90q0 19 11 29t37 11q24 0 35-11t12-29m-95-200v80h95v-80q0-19-12-29t-36-11q-24 0-36 11t-11 29" />
</svg>