<svg id="fnt-UnifrakturCook" viewBox="0 0 2856 1000" xmlns="http://www.w3.org/2000/svg"><path id="unifrakturcook" class="f" d="M333 587l-52 72q-34-21-68-43 7-24 11-49l-83 92q-21-18-53-33t-69-27q48-32 61-74 3-12 3-24 0-32-26-70t-25-71q0-53 66-90 13 7 26 14-38 27-38 48 0 6 2 11 13 26 72 45 0 2 0 5 0 76-45 153 39 25 57 25 18 0 57-47 1-22 1-55t-4-80q0-2 0-4 0-11-10-18t-20-15l58-65q26 17 70 43-15 21-17 42t-3 42l-1 95q0 5 0 8 0 31 7 47t23 23m57-184l52 36 28-36 78 56-7 29-3 79q0 1 0 1 0 12 7 20t17 12l-49 59q-18-14-28-25t-9-45q0-3 0-5l1-91q0-10-31-34l-10 16-4 92q0 1 0 1 0 12 7 20t17 12l-49 59-52-42q14-17 14-33l2-111q0-12-18-24l37-46m187 46l37-46 55 26q-3 10-7 19t-3 20l-3 99q0 1 0 2 0 11 7 19t17 12l-49 59-52-42q14-17 14-33l2-111q0-12-18-24m100-116l-93 68 20-97 73 29m151 40q-18-11-43-14-4 7-13 19 5 10 7 25h40v61h-36q0 23-1 47t-1 44q-2 46-68 208-9-9-20-12 17-60 21-129t3-115-1-82q-1-20-20-36 21-22 38-44t39-44q23 3 48 8t51 10q-11 14-22 27t-22 27m38 30l51 36 31-33q50 34 67 69l-39 52q-7-19-18-33t-38-30l-8 11-5 83q0 12 17 26t26 18l-41 57-76-59q14-16 15-33l-1-94q-1-12-18-24l37-46m161 78l96-77 107 50q-19 17-19 38l-1 81q0 8 9 18t16 17l-49 51-38-39q-13 11-27 20t-25 20q-37-14-69-43 9-11 11-33l-1-74q0-1 0-2 0-14-10-27m122 2l-38-20q-14 21-14 37v60q0 19 7 26 5 8 10 15t15 9l20-14v-113m228 120q-42 47-54 60-43-32-72-55 26-23 27-50l1-67h-23l23-44 0-36q0-16-1-38t-11-37l80-44q-6 25-7 57l39-39 48 60-58 68h48l-27 53h-52l0 69q0 18 3 23t36 20m-24-236l-14 12q0 9 0 19v40h12l27-32q-5-32-25-39m185 233l-55 59q-17-14-35-27t-36-28q26-23 27-50l1-101h-21v-19q33-48 84-124l12 2q-5 27-10 44t-5 43h43v53h-44l0 104q0 18 3 21t36 23m138-151l37-46 54 26q-2 10-6 19t-3 20l-4 99q0 1 0 1 0 12 7 20t17 12l-49 59-53-46-63 46-52-42q14-17 14-33l2-111q0-12-18-24l37-46 55 26q-3 10-7 19t-3 20l-3 99q-1 12 8 24 3 4 8 4 13 0 38-22l2-100q0-12-18-24m157-46l51 36 32-33q49 34 66 69l-39 52q-6-19-18-33t-37-30l-8 11-5 83q-1 12 16 26t26 18l-40 57-76-59q14-16 14-33l0-94q-1-12-18-24l36-46m421-69l-22 67q-28-23-56-33-2 23-2 58t7 81l-77 34q20 20 52 31 18 5 39 5t42-3l-42 89q-71-23-113-45t-61-51-25-72q-3-26-3-53t1-51l201-99 59 42m-147 37q-40 19-40 71 0 46 23 81 15-10 19-40 2-12 2-38t-4-74m162 100q57-38 95-69 18 8 37 29 42 44 49 92 1 6 1 11 0 16-9 26l-81 103-104-51q16-35 16-60l0-57q-1-17-4-24m66-8l-1 103q2 12 17 19t19 7 7-1q21-5 21-27 0-5-1-11-8-41-24-61t-38-29m145 8q57-38 94-69 19 8 38 29 42 44 49 92 1 6 1 11 0 16-9 26l-81 103-104-51q16-35 16-60l0-57q-1-17-4-24m66-8l-1 103q2 12 17 19t19 7 7-1q21-5 21-27 0-5-1-11-8-41-24-61t-38-29m259 140q-42 47-55 60-42-32-71-55 26-23 27-50l1-67h-23l23-44 0-36q0-16-1-38t-11-37l80-44q-6 25-7 57l39-39 48 60-58 68h48l-27 53h-52l0 69q0 18 3 23t36 20m-24-236l-14 12q0 9 0 19v40h12l27-32q-5-32-25-39" />
</svg>