<svg id="fnt-Unlock" viewBox="0 0 1766 1000" xmlns="http://www.w3.org/2000/svg"><path id="unlock" class="f" d="M137 349v289h75v-289h107v19h-22v182q0 46-10 72t-29 37-42 13-49 2q-22 0-43-1t-38-7-31-19-20-36-8-61v-182h-22v-19h132m513 299v19h-115v-237h-73v237h-115v-19h20v-237h-20v-19h66l18 38h6q8-20 20-30t31-13 44-3q30 0 52 7t34 22 12 46v189h20m43-327v-19h115v346h20v19h-135v-19h20v-327h-20m448 189v39q0 37-7 61t-21 37-30 19-38 7-42 1q-25 0-47-2t-41-14-27-37-10-72v-39q0-38 7-62t20-37 31-19 38-7 42-1q25 0 47 2t40 14 28 37 10 73m-168 127h73v-215h-73v215m358 37q-20 0-40-1t-35-7-29-19-19-37-7-61v-39q0-38 7-62t19-37 29-19 35-7 40-1q26 0 51 4t49 11l-12 78h-57l-14-60h-52v225h52l14-61h57l12 78q-25 10-50 12t-50 3m253-141v134h-115v-19h20v-327h-20v-19h128v75l-9 3q-9 4-11 6t-2 9v92h9q11-38 23-60t29-31 37-9q11 0 26 1t27 3l-10 79h-61v26q0 10 4 11t11 2h42l33 139h20v19h-121l-24-134h-36" />
</svg>