<svg id="fnt-Vampiro One" viewBox="0 0 3272 1000" xmlns="http://www.w3.org/2000/svg"><path id="vampiro-one" class="f" d="M87 601q113-99 203-264l54 53q-73 137-183 240-34 32-69 56l-52-49q19-13 30-22l-51-45q31-98 82-175-17 8-56 29l-25-57q50-29 74-38t42-16l56 59q-76 119-105 229m415 77l-38-43q-40 31-91 45l-62-57q0-40 12-78t35-68 58-51 81-24l33 50q6-9 25-33l49 42q-49 65-82 138l-1 1q29-7 68-26t49-23l11 50q-29 22-98 56-27 13-49 21m-121-70q53-14 97-71 13-28 20-71-52 5-85 46-32 40-32 96m512-136l-7 25q41-32 90-59l61 48q-16 66-53 114 48-16 113-49l10 50q-20 14-62 35-72 35-100 44l-62-44q62-74 73-121-52 26-99 59-24 55-60 106l-58-39q24-32 41-62 26-49 32-77-48 22-88 51-14 9-30 20-22 53-39 107l-60-38q17-58 53-130 33-64 68-109l51 37q-18 24-32 50 45-37 97-65l61 47m327-37l-26 50q33-30 87-60l61 47q-4 40-13 69t-30 50q54-17 103-40l10 50q-63 36-177 64-35 9-70 15l-47-42q-43 97-64 171l-57-39q62-185 173-372l50 37m-75 145l-21 44q54-8 79-18 36-17 57-72 7-17 10-35-51 27-94 58-14 10-31 23m376-196q-12-12-12-29t12-29 29-12 28 12 12 29-12 28-28 12-29-11m-76 220q51-16 123-53l10 50q-48 32-117 62-23 10-45 17l-57-53q24-67 88-167 19-30 37-52l49 36q-36 50-71 121-10 21-17 39m139-161q24-33 60-68l47 36q-6 23-10 34 65-7 93-14t50-13l14 60q-21 6-43 10-35 55-58 116 83-29 123-53l11 50q-46 30-121 62-24 10-46 17l-53-53q33-74 70-128-35 3-62 4-8 15-43 75l-37 23-48-28q42-45 56-63t25-31q-14-16-28-36m478 195l-24-28q-48 56-127 70l-71-59q0-48 19-95 24-59 79-96 38-25 83-31l79 68q-8 54-29 94 36-2 82-10l11 50q-65 27-102 37m-155-26q57-13 95-70 16-25 23-47t8-36q-41 5-77 43-46 46-49 110m750-206l-22 68q-53-48-99-76-51 27-91 90-41 66-46 133 79-21 134-106 19-29 33-66l69 25q-34 94-88 145-58 56-151 74l-74-68q15-154 127-248 39-33 91-58 67 34 117 87m115 87q50-40 103-68l61 47q-17 71-58 128 50-17 113-49l11 50q-21 14-63 35-72 35-99 44l-62-44q30-36 50-71t26-62q-64 30-122 70-23 55-39 107l-59-38q17-58 53-130 32-64 68-109l50 37q-17 23-33 53m317 77q-23 0-37-3-8 19-10 48 86-5 166-38 27-11 52-26l11 50q-47 30-110 52-68 24-128 27l-62-57q0-69 38-126 27-40 61-63t66-33l84 70q-12 52-47 76t-84 23m-16-48q29 0 51-16 25-19 25-53-51 27-76 69" />
</svg>