<svg id="fnt-Varela" viewBox="0 0 1477 1000" xmlns="http://www.w3.org/2000/svg"><path id="varela" class="f" d="M175 620l121-302h49l-144 349h-54l-144-349h49l121 302h2m216-153v-41q44-19 93-19t77 29 26 69v162h-40l-5-32h-2q-36 37-92 37-34 0-58-21t-24-56 29-57 86-22h61v-4q0-33-17-48t-56-14-75 17h-3m151 127v-42h-55q-75 0-75 40t53 40q22 0 42-11t35-27m263-187h4v43h-4q-30 0-55 12t-40 32v173h-46v-255h40l6 32v7h1q36-44 94-44m277 132v16h-193q4 35 26 55t66 19 83-25h3v44q-42 24-99 24t-91-35-34-94 30-98 89-38 89 38 31 94m-193-21h147q-2-36-24-54t-50-19-49 19-24 54m258-216h45v365h-45v-365m133 165v-41q43-19 93-19t76 29 27 69v162h-40l-6-32h-1q-36 37-93 37-34 0-58-21t-23-56 29-57 86-22h60v-4q0-33-16-48t-56-14-75 17h-3m150 127v-42h-54q-76 0-76 40t53 40q22 0 43-11t34-27" />
</svg>