<svg id="fnt-Varta" viewBox="0 0 1066 1000" xmlns="http://www.w3.org/2000/svg"><path id="varta" class="f" d="M150 667h-46l-105-329h42l53 180q9 29 16 54t17 55h2q9-29 16-55t15-54l54-180h40l-104 329m205 6q-31 0-52-18t-21-51q0-40 36-63t115-27q0-19-5-33t-15-23-32-8q-21 0-41 7t-33 17l-15-27q16-11 41-20t54-9q45 0 64 26t20 73v150h-32l-3-30h-1q-18 15-36 25t-44 11m11-31q18 0 33-9t34-25v-69q-43 2-67 11t-35 22-11 29q0 22 13 31t33 10m222 25h-38v-243h32l3 44h2q12-23 30-36t38-14q8 0 14 1t12 4l-7 34q-7-2-12-3t-12-1q-15 0-32 12t-30 44v158m208 6q-38 0-53-22t-15-58v-138h-36v-29l38-2 4-68h33v68h66v31h-66v139q0 22 8 35t30 12q6 0 14-2t14-4l7 29q-10 3-21 6t-23 3m153 0q-32 0-52-18t-21-51q0-40 36-63t114-27q0-19-4-33t-16-23-31-8q-22 0-41 7t-33 17l-16-27q17-11 42-20t54-9q44 0 64 26t19 73v150h-31l-4-30h-1q-17 15-36 25t-43 11m10-31q18 0 34-9t33-25v-69q-42 2-67 11t-35 22-10 29q0 22 13 31t32 10" />
</svg>