<svg id="fnt-Vazirmatn" viewBox="0 0 2236 1000" xmlns="http://www.w3.org/2000/svg"><path id="vazirmatn" class="f" d="M144 667l12-54 105-302h51l-132 356h-36m-137-356h51l104 302 13 54h-37l-131-356m490 310v-136q0-23-14-37t-41-14q-17 0-30 6t-20 15-7 21h-46q0-19 13-37t37-30 55-11q29 0 51 9t35 30 12 49v123q0 13 3 28t7 26v4h-47q-4-8-6-21t-2-25m-44-115h52l1 32h-46q-39 0-60 12t-21 37q0 19 13 32t38 13q20 0 36-9t26-21 10-25l19 22q-2 10-9 22t-20 24-30 19-39 8q-27 0-47-11t-31-28-11-40q0-42 32-64t87-23m165 124h192v37h-192v-37m185-228v32l-175 233h-27v-34l173-231h29m-200 0h180v38h-180v-38m262 0h46v265h-46v-265m-3-70q0-11 7-18t19-8q13 0 20 8t7 18q0 11-7 18t-20 8q-13 0-19-8t-7-18m165 70l1 42v223h-45v-265h44m84-1l0 42q-6-1-11-2t-11 0q-21 0-36 9t-22 23-10 34l-12 7q0-31 8-58t27-42 47-16q5 0 11 1t9 2m84 1l3 53v212h-46v-265h43m-7 123l-21-1q0-37 13-65t35-45 59-16q38 0 62 21t24 72v176h-45v-174q0-21-7-33t-20-19-30-5q-20 0-33 7t-22 19-11 29-4 34m171-25l-30 9q1-29 13-55t35-41 57-15q28 0 48 10t30 31 11 54v174h-46v-174q0-23-7-35t-19-17-30-5q-15 0-26 5t-20 14-12 20-4 25m388 121v-136q0-23-14-37t-42-14q-17 0-30 6t-20 15-7 21h-45q0-19 13-37t36-30 56-11q29 0 51 9t34 30 13 49v123q0 13 2 28t7 26v4h-47q-3-8-5-21t-2-25m-45-115h53l0 32h-46q-38 0-59 12t-21 37q0 19 12 32t38 13q21 0 37-9t25-21 10-25l20 22q-2 10-10 22t-20 24-30 19-38 8q-27 0-47-11t-32-28-11-40q0-42 32-64t87-23m129-104h143v35h-143v-35m48 199v-263h45v263q0 14 4 20t11 10 14 2q6 0 12-1t10-2l0 37q-6 1-14 3t-21 2q-17 0-31-7t-22-22-8-42m190-199l3 57v208h-45v-265h42m-8 123l-19-1q1-37 14-65t38-45 56-16q26 0 45 9t29 31 10 56v173h-45v-174q0-21-6-33t-18-19-29-5q-17 0-30 7t-24 19-15 29-6 34" />
</svg>