<svg id="fnt-Viaoda Libre" viewBox="0 0 2422 1000" xmlns="http://www.w3.org/2000/svg"><path id="viaoda-libre" class="f" d="M200 297h104v12q-14-4-23-4-15 0-21 12-4 7-6 14l-79 312v1l-6 23h-30l-98-340q-2-10-10-16t-18-5q-8 0-18 3v-12h121v12q-10-3-18-3t-12 4-5 10q0 4 1 7l87 297 67-285 4-12q1-3 1-8 0-14-18-14-10 0-23 4v-12m123 104q-9 0-15-6t-6-14 6-14 15-5 15 5 7 14q0 9-6 14t-16 6m-44 258q9 3 13 3 9 0 11-7t3-18v-178q-8 2-16 2-4 0-11-1v-13h5q0 3 3 6t9 2q7 0 13-5t13-17h15v204q0 13 2 19t10 6q4 0 13-3v8h-83v-8m184 13q-28 0-47-18t-19-49q0-23 15-39t34-22q10-3 22-6t18-4q25-5 37-9t15-12q0-36-14-60t-45-24q-20 0-30 14t-10 39q0 6 3 9t11 3q6 0 10-3t4-6h4v14h-65q0-18 10-36t29-29 41-11q30 0 48 13t26 33 8 39v108q0 38 16 38 5 0 9-7t5-14h5q0 19-12 29t-25 10q-17 0-23-15t-5-42v-23q0 7-7 26t-23 37-45 17m11-14q17 0 32-14t23-32 8-31v-57q0 2-5 3t-12 3q-33 9-48 14-23 9-34 24t-11 34q0 22 12 39t35 17m258 14q-53 0-76-34t-23-91q0-52 23-88t76-36 76 36 24 88q0 57-23 91t-77 34m0-6q34 0 50-33t15-86q0-49-16-84t-49-34-49 34-15 84q0 53 15 86t49 33m233 6q-47 0-67-38t-21-96q0-31 10-57t30-42 48-16q24 0 42 14t28 37h8l0-131v-50q-7 2-16 2-3 0-10-1v-13h4q0 3 4 6t9 2q7 0 15-7t14-15h7v380q1 15 12 15 6 0 13-3v8h-43l-11-37h-9q-21 42-67 42m9-9q36 0 49-33t14-84q0-24-7-51t-21-47-36-19q-31 0-46 34t-15 82q0 50 15 84t47 34m222 9q-28 0-47-18t-19-49q0-23 15-39t34-22q10-3 22-6t18-4q25-5 37-9t15-12q0-36-14-60t-45-24q-20 0-30 14t-10 39q0 6 3 9t11 3q6 0 10-3t4-6h4v14h-65q0-18 10-36t29-29 41-11q30 0 48 13t26 33 8 39v108q0 38 16 38 5 0 9-7t5-14h5q0 19-12 29t-25 10q-17 0-23-15t-5-42v-23q0 7-7 26t-23 37-45 17m11-14q17 0 32-14t23-32 8-31v-57q0 2-5 3t-12 3q-33 9-48 14-23 9-34 24t-11 34q0 22 12 39t35 17m475-104h10q-7 6-10 20t-2 42v51h-199v-13q9 3 17 3 10 0 15-5t5-15v-310q0-10-5-16t-15-5q-8 0-17 3v-12h112v12q-9-3-17-3-10 0-15 5t-5 16v277q0 30 10 44t35 14q28 0 42-8t18-20 8-33q2-16 4-27t9-20m74-153q-9 0-15-6t-6-14 6-14 15-5 15 5 6 14q0 9-6 14t-15 6m-44 258q8 3 12 3 9 0 12-7t2-18v-178q-7 2-16 2-3 0-10-1v-13h4q0 3 4 6t9 2q7 0 12-5t14-17h14v204q0 13 2 19t11 6q4 0 12-3v8h-82v-8m107-378h5q0 3 3 6t9 2q8 0 14-6t14-16h9l0 207h8q11-23 28-37t42-14q28 0 48 16t30 42 10 57q0 58-21 96t-67 38-67-42h-9l-11 37h-18v-374q-8 2-16 2-4 0-11-1v-13m60 265q0 51 14 84t49 33q33 0 47-34t15-84q0-49-15-82t-46-34q-21 0-36 19t-21 47-7 51m324-81q0 6-2 14t-3 9q-4 13-4 17 0 10 15 10v5q-21 0-30-10t-8-27q0-8 1-16 3-14 3-22 0-9-3-12t-10-3q-15 0-23 30t-8 72v105q0 13 2 19t11 6q4 0 12-3v8h-82v-8q8 3 12 3 9 0 12-7t2-18v-178q-7 2-16 2-3 0-10-1v-13h4q0 3 4 6t9 2q7 0 13-5t13-17h5l0 41h5q6-26 17-39t23-12q17 0 26 13t10 29m125 207q-47 0-71-32t-23-93q0-32 10-60t31-46 52-18q51 0 72 31t22 74q0 7-1 19l-1 5h-150q2 112 62 112 27 0 40-17t13-37q0-9-4-13t-11-4q-5 0-9 3t-3 7h-5v-14h64q1 19-10 38t-31 32-47 13m45-128q9 0 10-2t3-8q0-6 0-17 0-38-14-63t-47-25q-32 0-44 32t-12 83h104" />
</svg>