<svg id="fnt-Vibes" viewBox="0 0 923 1000" xmlns="http://www.w3.org/2000/svg"><path id="vibes" class="f" d="M10 339q0-1 2-3l12-6q2-2 3 0 17 33 40 115t45 188q31-68 50-151t19-155q0-2 3-2h14q2 0 2 2 0 81-23 174t-60 164q0 2-2 2l-15-3q-1 0-2-4-22-110-46-199t-42-122m223 66q5-1 7-6t3-9q0-6-5-11t-10-5q-6 0-9 4t-4 10q0 8 5 13t13 4m-12 262q1-14 1-124 0-112-1-121h19q1 10 1 122 0 111-1 123h-19m156-241q34 0 63 13t46 38 17 50q0 39-22 71t-58 51-69 19q-28 0-51-13t-34-41-11-68v-221h19v151q16-24 42-37t58-13m-97 96q-2 19-2 32 0 48 22 71t57 24q30 0 59-17t49-44 20-62q0-22-15-41t-39-30-53-12q-24 0-45 11t-36 28-17 40m382 142q-19 3-36 3-16 0-33-3 21 16 44 29t37 19l-5 16q-16-4-44-21t-53-39-39-40q-17-22-17-57 0-35 18-70t50-57 72-22q27 0 50 17t37 46 14 63q0 29-11 53t-33 42-51 21m-5-224q-34 0-62 19t-45 49-16 60q0 35 24 57t71 22q13 0 32-2 22-3 40-18t28-35 11-45q0-28-12-53t-30-39-41-15m233-13l-12 15q-10-8-22-8-14 0-24 10t-10 25q0 18 13 32t37 34q23 18 35 31t14 30q1 8 1 11 0 27-17 43t-45 17q-38 0-62-25t-23-63h19q0 31 18 50t48 19q20 0 31-11t12-30q0-5-1-8-1-12-11-22t-31-27q-18-15-29-25t-20-25-8-31q0-23 16-39t37-15q18 0 34 12" />
</svg>