<svg id="fnt-Vidaloka" viewBox="0 0 1876 1000" xmlns="http://www.w3.org/2000/svg"><path id="vidaloka" class="f" d="M27 332l-37-3v-11h136v11l-33 3 97 247h1l85-247-33-3v-11h78v11l-30 3-116 340h-11l-137-340m334 109h-30v-10l51-5 35-9 4 7v230l25 3v10h-110v-10l25-3v-213m-3-111q0-7 2-13t7-10 10-7 13-2 12 2 11 7 7 11 2 12-2 12-7 11-10 7-13 2-13-2-10-7-7-10-2-13m122 220q0-21 4-41t13-37 21-30 30-20 40-8q10 0 22 3t20 10v-89h-30v-10l51-6 35-9 4 7v334l25 3v10h-81l-3-35h-1q-14 24-29 33t-37 9q-6 0-12-1t-15-5-16-9-15-15-13-23-9-30-4-41m63-2q0 105 43 105 18 0 31-20t13-45v-149q-14-11-31-11-11 0-20 5t-15 11-10 18-6 21-3 23-2 22 0 20m205 66q0-12 4-23t12-22 21-18 31-12 41-4q12 0 22 1v-34q0-16 0-26t-3-21-7-16-13-10-20-3q-35 0-52 28v1q4-1 8-1 12 0 20 8t7 22q0 13-9 22t-22 8q-14 0-22-9t-9-23q0-29 27-49t61-19q24 0 41 5t28 14 16 23 7 29 2 38v131l25 3v10h-77l-7-39h-1q-12 23-29 35t-41 11q-29 0-45-18t-16-42m59-5q0 19 7 31t22 12q16 0 30-21t13-50v-34q-9-1-15-1-13 0-23 3t-16 9-10 13-5 14-3 13 0 11m209-271h-30v-10l51-6 34-9 4 7v334l26 3v10h-111v-10l26-3v-316m119 208q0-37 14-67t40-48 58-17q27 0 49 11t34 30 20 41 7 48q0 36-13 66t-39 47-58 17q-29 0-51-10t-35-28-20-41-6-49m62-3q0 27 3 48t8 38 15 25 23 9q49 0 49-117 0-30-2-51t-8-38-15-24-24-8q-13 0-23 9t-15 25-8 37-3 47m190-205l0-10 51-6 34-9 5 7v334l25 3v10h-110v-10l25-3v-317l-30 1m164 316l-74-115v-6l95-99-28-2v-10h73v10l-27 2-70 75 98 145 25 3v10h-112v-10l20-3m107-40q0-12 4-23t12-22 21-18 31-12 41-4q12 0 23 1v-34q0-16-1-26t-3-21-7-16-13-10-20-3q-35 0-52 28v1q4-1 8-1 13 0 20 8t7 22q0 13-9 22t-22 8q-14 0-22-9t-9-23q0-29 27-49t61-19q24 0 42 5t27 14 16 23 8 29 1 38v131l26 3v10h-78l-7-39h0q-12 23-29 35t-42 11q-29 0-45-18t-16-42m59-5q0 19 7 31t22 12q16 0 30-21t14-50v-34q-10-1-16-1-13 0-23 3t-16 9-9 13-6 14-2 13-1 11" />
</svg>