<svg id="fnt-Viga" viewBox="0 0 940 1000" xmlns="http://www.w3.org/2000/svg"><path id="viga" class="f" d="M217 311h72l-112 336q-9 23-32 23-24 0-33-23l-110-336h72l71 232 72-232m143-39q24 0 31 7t7 31-8 30-30 8-31-8-7-30 7-31 31-7m32 120v275h-65v-275h65m144-9h69l65-4v275q0 47-27 72t-79 26q-41 0-71-16-16-8-26-24t-9-38l60-3q0 14 10 20t34 6 33-12 9-35l3-43-70 38q-58 0-78-39-18-35-18-85 0-59 9-84 10-27 27-39 23-15 59-15m19 193l50-25v-109h-50q-28 0-38 19t-11 53 11 48 38 14m384-197v288h-44l-20-35-69 38q-58 0-78-42-10-21-14-45t-4-49 1-38 2-29 6-27 11-23 17-18q22-16 58-16h69l65-4m-115 222l50-25v-134h-50q-27 0-38 21t-11 62 10 59 39 17" />
</svg>