<svg id="fnt-Voces" viewBox="0 0 1298 1000" xmlns="http://www.w3.org/2000/svg"><path id="voces" class="f" d="M306 317h-50l-80 226q-8 23-15 49t-8 33h-9q-2-7-8-33t-12-49l-72-226h-50l113 350h65l126-350m248 221q0 64-30 99t-91 36q-61 0-91-36t-30-99 30-100 91-35q61 0 91 35t30 100m-121 101q68 0 68-101t-68-101q-36 0-52 27t-16 74 16 73 52 28m295-1q30 0 60-9l10 31q-12 5-31 9t-39 4q-61 0-93-34t-31-101 31-101 93-34q20 0 39 4t31 9l-10 29q-27-8-60-8-36 0-54 27t-17 74 17 73 54 27m221-235q-56 0-85 37t-29 98q0 62 30 98t88 37q50 0 94-20l-10-30q-22 8-40 11t-38 3q-71 0-71-88h169v-19q0-127-108-127m-61 115q2-39 14-60t46-21q34 0 46 21t13 60h-119m409 76q0 40-27 59t-68 20q-46 0-93-23l13-31q23 9 39 14t36 6q23 0 37-9t15-29q0-14-8-22t-33-19l-31-12q-26-10-41-27t-15-43q0-35 26-55t67-20q35 0 77 16l-11 31q-35-13-68-13-46 0-46 35 0 14 10 21t34 19l34 15q27 12 40 27t13 40" />
</svg>