<svg id="fnt-Volkhov" viewBox="0 0 1990 1000" xmlns="http://www.w3.org/2000/svg"><path id="volkhov" class="f" d="M41 351l-45-11v-23h152v23l-41 8 85 240 80-237-39-11v-23h120v23l-46 11-110 319h-39l-117-319m426 58q55 0 91 37t36 95q0 58-36 96t-91 37-92-37-36-96q0-57 36-95t92-37m0 28q-31 0-48 28t-17 76 17 77 48 29 47-30 17-76q0-47-17-76t-47-28m301 230h-145v-22l42-10v-328h-42v-21l80-19h22v368l43 10v22m156 0h-135v-22l42-10v-328h-42v-21l80-19h22v368l33 10v22m64 0l-88-121 91-99-33-9v-21h113v21l-44 10-70 76 83 112 41 9v22h-93m244 0h-135v-22l42-10v-328h-42v-21l80-19h22v174q38-32 81-32 39 0 61 22t23 57v147l42 10v22h-134v-22l32-10v-138q0-51-43-51-30 0-62 23v166l33 10v22m329-258q55 0 91 37t36 95q0 58-36 96t-91 37-92-37-36-96q0-57 36-95t92-37m0 28q-31 0-48 28t-17 76 17 77 48 29 47-30 17-76q0-47-17-76t-47-28m176 11l-34-10v-21h133v21l-35 8 62 147 58-145-35-10v-21h103v21l-40 11-87 221h-30l-95-222" />
</svg>