<svg id="fnt-Vollkorn SC" viewBox="0 0 3266 1000" xmlns="http://www.w3.org/2000/svg"><path id="vollkorn-sc" class="f" d="M280 329q29 0 51-2 0 12-3 22-14 3-23 17t-20 42q-49 127-104 260-9 2-20 2-58-157-103-264-12-27-17-38t-11-14-15-5q-2-10-2-22 19 2 60 2 32 0 61-2 0 10-3 22-17 1-24 4t-7 14q0 11 11 37 34 80 75 192 43-99 74-186 7-20 7-33 0-13-6-20t-21-8q-3-10-3-22 22 2 43 2m224 342q-43 0-76-16t-52-45-18-67q0-38 18-68t52-46 77-16q43 0 76 16t51 45 18 68q0 38-18 67t-52 46-76 16m7-23q40 0 64-27t24-72q0-32-13-58t-37-40-52-15q-40 0-64 27t-23 72q0 34 13 59t36 40 52 14m326-4q23 0 37-5t22-15 16-28q13 2 22 11-9 23-14 60l-88 0q-72 0-116 1 0-16 2-23 12-1 19-4t9-11 3-24v-131q0-15-3-22t-9-11-19-4q-2-8-2-22 36 1 56 1 20 0 55-1 0 15-2 22-18 1-24 8t-6 29v130q0 16 3 24t11 12 25 3h3m276 0q23 0 37-5t22-15 16-28q13 2 22 11-9 23-14 60l-88 0q-72 0-116 1 0-16 2-23 12-1 19-4t9-11 3-24v-131q0-15-3-22t-9-11-19-4q-2-8-2-22 36 1 56 1 20 0 55-1 0 15-2 22-18 1-24 8t-6 29v130q0 16 3 24t11 12 25 3h3m351-39q15 16 33 28t36 12q0 14-3 22-43 0-69 3-18-24-51-59t-64-63v60q0 22 6 29t25 8q2 8 2 23-34-1-55-1-25 0-56 1 0-16 2-23 13-1 19-4t9-10 2-23v-133q0-15-2-22t-9-11-19-4q-2-7-2-22 32 1 56 1 20 0 55-1 0 15-2 22-18 1-25 8t-6 29v61l78-64q21-17 21-25 0-8-15-9-2-8-2-22 20 1 46 1 23 0 47-1 0 14-3 22-15 1-28 7t-35 23l-67 57q32 31 76 80m260 66q-43 0-76-16t-51-45-18-67q0-38 18-68t51-46 77-16q43 0 76 16t51 45 19 68q0 38-19 67t-51 46-77 16m7-23q41 0 64-27t24-72q0-32-13-58t-36-40-52-15q-41 0-64 27t-24 72q0 34 13 59t36 40 52 14m410-40q14 20 28 28t35 10q0 14-2 21-42 0-72 3-3-6-13-21l-23-36q-18-31-49-51l-16 1-14-1v46q0 16 2 24t8 11 18 4q2 6 2 21-18-1-54-1-27 0-55 1 0-14 3-21 12-1 18-4t9-11 3-22v-136q0-21-6-28t-24-8q-3-8-3-22 19 1 55 1l36-1q26-1 40-1 48 0 72 19t25 47-19 48-51 25q12 8 20 17t27 37m-107-70q36 0 59-13t23-37q0-51-70-51-16 0-31 3v96q10 2 19 2m474-121q19 0 42-1 0 15-2 22-11 1-16 6t-8 15-2 32v176q-7 3-21 3l-179-198v120q0 21 2 32t10 16 19 5q2 8 2 23-27-1-44-1-24 0-46 1 0-15 3-23 12-1 18-5t9-16 3-32v-146l0-1q-4-3-9-5t-21-2q-3-9-3-22 18 1 35 1 16 0 32-1l166 186v-111q0-21-3-32t-9-15-19-6q-2-11-2-22 25 1 43 1m315 254q-29 0-52-8t-49-24q4-28 4-71 12-3 27-3 2 40 20 61t57 21q33 0 48-14t16-38q0-19-10-33t-24-22-41-21q-30-14-48-26t-31-31-12-48q0-42 27-66t73-24q25 0 47 6t37 16q0 45 3 66-11 5-28 5-7-41-21-56t-38-15q-27 0-42 13t-15 37q0 19 10 33t25 23 41 22q30 14 47 26t31 30 12 45q0 26-12 48t-38 35-64 13m317 0q-46 0-82-22t-57-62-20-92q0-55 23-93t62-58 82-20q31 0 57 6t54 20q-5 26-5 78-11 4-27 4-2-50-20-69t-55-18q-40 0-67 19t-39 50-12 68q0 45 15 81t44 57 68 21q24 0 49-8t46-22q3 3 6 7t3 9q-30 23-59 34t-66 10" />
</svg>