<svg id="fnt-Vollkorn" viewBox="0 0 1938 1000" xmlns="http://www.w3.org/2000/svg"><path id="vollkorn" class="f" d="M161 670q-18-49-36-96t-35-90-32-78q-11-24-17-36t-11-16-15-5q-1-6-2-12t0-10q5 1 12 1t15 0 17 1 16 0q16 0 31-1t30-1q0 5-1 10t-2 12q-16 1-24 5t-7 15 11 35q14 32 27 65t25 66 26 70h-7q14-32 27-64t26-65 25-66q10-28 6-44t-26-17q-2-6-2-12t-1-10q8 1 14 1t14 0 15 1q11 0 25-1t26-1q0 6-1 11t-2 11q-15 3-24 18t-19 41q-25 64-51 129t-53 131q-5 1-10 1t-10 1m315 1q-34 0-59-15t-40-41-14-63q0-34 15-61t40-42 58-16q36 0 61 15t39 42 13 62q0 34-14 61t-40 43-59 15m4-24q30 0 45-25t14-64q0-31-9-54t-25-35-34-12q-29 0-43 24t-14 61q0 33 8 57t23 36 35 12m147 21q0-5 1-11t2-10q20 0 27-10t7-34v-224q0-12-2-20t-10-11-25-4q0-6 1-10t3-9q8 0 21-2t27-7 19-8q5 2 8 6t3 14v275q0 25 7 34t23 10q1 5 2 11t0 10q-8 0-18-1t-19 0-19 0-20 0-20 0-18 1m150 0q0-5 0-11t2-10q20 0 27-10t8-34v-224q0-12-3-20t-10-11-25-4q0-6 1-10t4-9q7 0 21-2t27-7 19-8q4 2 7 6t4 14v275q0 25 6 34t23 10q2 5 2 11t1 10q-9 0-18-1t-20 0-19 0-20 0-19 0-18 1m149 0q0-5 1-11t2-10q20 0 27-10t7-34v-224q0-12-2-20t-10-11-25-4q0-6 1-10t3-9q8 0 21-2t27-7 19-8q5 2 8 6t3 14v275q0 25 7 34t23 10q1 5 2 11t0 10q-13-1-27-1t-29 0q-10 0-20 0t-20 0-18 1m178 3q-8-13-20-29t-26-33-29-34-28-29l44-41q17-15 25-25t7-15q0-4-4-6t-10-2q-2-5-3-10t0-10q11 0 20 0t17 1 15 0q8 0 21-1t26 0q0 5-1 10t-3 11q-9 0-19 3t-19 9-23 18l-55 50-1-16q18 18 36 39t45 53q10 12 17 18t15 9 20 4q0 7-1 12t-2 10q-12 0-22 0t-21 1-21 3m210 0q-34 0-60-15t-39-41-14-63q0-34 14-61t40-42 59-16q35 0 60 15t39 42 14 62q0 34-15 61t-39 43-59 15m4-24q30 0 44-25t15-64q0-31-10-54t-24-35-34-12q-29 0-44 24t-14 61q0 33 8 57t24 36 35 12m229-94v40q0 22 5 33t14 15 26 6q1 4 2 9t0 12q-7 0-18-1t-21 0-24 0q-17 0-37 0t-29 1q0-7 1-12t2-9q13-1 21-5t10-13 3-26v-50h45m-8-40l8 7v40h-45v-56l45-49q0 17-3 31t-5 27m8 32l-11-29q6-14 9-23t6-15q11-17 26-29t35-11q19 0 34 12-1 8-2 18t-1 21 0 20q-5 1-13 3t-16 1q-1-24-8-31t-16-8q-9 0-19 10t-17 26-7 35m0-90l-45 105v-56q0-12-2-19t-11-12-24-4q0-6 1-10t3-9q16-1 36-6t31-11q5 2 8 6t3 16m210 0l-45 105v-56q0-12-3-19t-10-12-25-4q0-6 1-10t4-9q15-1 35-6t32-11q4 2 7 6t4 16m148 62v86q0 26 7 35t22 9q2 4 2 9t1 12q-11-1-25-1t-30 0q-10 0-21 0t-21 0-17 1q0-7 0-12t2-9q18 0 26-10t9-34v-76q0-35-13-48t-34-13q-13 0-26 8t-22 27-8 49v53q0 25 7 34t27 10q2 4 2 9t1 12q-7 0-17-1t-21 0-22 0q-10 0-21 0t-21 0-17 1q0-7 0-12t2-9q20 0 27-10t8-34v-99l45-49q0 6-1 14t-3 16q2-3 3-6t5-7q8-12 27-24t45-12q19 0 35 7t27 26 10 48" />
</svg>