<svg id="fnt-Waiting for the Sunrise" viewBox="0 0 4611 1000" xmlns="http://www.w3.org/2000/svg"><path id="waiting-for-the-sunrise" class="f" d="M4 423h8l135 198h6l1-10q2-10 4-25t3-29 4-26v-6q0-5 2-20t6-31 5-30 4-21q1-5 5-5t8-1q5 0 8 1t5 4 3 5 4 8q13 19 27 42t29 46 31 45 32 42q1 1 2 2t4 4 3 3 2 2l6-11q2-7 5-20t9-32 10-36 11-37 10-30 6-20q2-5 7-17t12-24 12-23 9-16q1-1 5-3t6-2q9 0 11 3t1 10q0 10-7 22t-18 25-20 26-12 27l-46 187q-1 4-4 5t-7 0q-5 0-7 0t-4-5l-140-200-8 8q-1 0-2 7t-3 15-3 18-2 16q-1 5-2 16t-3 25-2 29-2 30-2 25-1 16q-3 5-6 8t-8 4q-4 0-5-1t-4-5l-124-187q-7-10-13-24t-6-27m449 193q0-14 3-35t10-44 15-46 22-41 28-29 34-12q0 7-6 14t-12 12-15 12-10 11q-12 15-21 33t-16 38-11 39-4 40q0 2 1 9t3 12 5 11 6 5h1q1 0 1-1 13-14 22-32t15-35 11-37 9-38q1-5 1-16t1-21 5-18 14-7q2 0 5 0t3 1q18 37 31 63t21 44 14 26 8 15 4 7 1 3q0 2 1 7t1 11 0 10 0 7q-5 0-10-1t-9-6l-62-130-6-6q-1 6-5 19t-9 29-9 30-5 19q-3 7-8 20t-11 26-16 23-19 10q-9 0-15-5t-10-14-5-17-2-15m197-153v-19q3 0 7 2t5 6l34 169q6 9 8 14t3 15q0 4-1 11t-7 6h-2q-1 0-1 0-1-1-3-2l-7-8q-2-1-2-2l-34-192m-8-128q11 0 16 3t5 13q0 3 0 8t-6 6q-10-4-12-12t-3-18m187 179h-9q-10 0-21 3t-21 6-21 6-22 2q-6 0-10-2t-4-10q0-6 3-8t8-2 9 0 9-1q3-1 14-3t22-5 22-5 15-4q0-1 0-5t0-8 1-7v-6q0-14-2-28t-4-28-5-28-1-29q0-5 1-9t7-5q3 0 5 1t4 5l17 141q0 0 1 0h1q5 0 15-2t23-6 27-7 28-7 24-5 16 0q2 0 7 4t5 6q1 5-8 10t-24 9-33 7-35 6-28 5-14 3v10q0 7 0 14t0 15v9q0 25 3 49t3 47q0 4-2 6t-4 4-6 3-5 2q-4-21-5-39t-3-34-1-36-2-44m129-51v-19q3 0 7 2t5 6l34 169q6 9 8 14t3 15q0 4-1 11t-7 6h-2q-1 0-1 0-1-1-3-2l-7-8q-2-1-2-2l-34-192m-8-128q11 0 16 3t5 13q0 3 0 8t-6 6q-10-4-12-12t-3-18m87 150q0-3 0-7t1-7 4-6 6-3q1 0 4 0t3 1q0 34 3 71t13 71q1-6 3-19t5-27 5-27 4-18q3-10 9-21t15-21 19-15 22-6q19 0 35 9t27 23 20 33 14 37 7 37 3 31v6q0 3-1 6t-2 4-6 2q-5 0-9-6 0-12-2-28t-6-34-10-35-15-31-21-23-30-8q-13 0-23 5t-17 13-11 20-6 25q-2 7-4 24t-6 38-5 37-2 25q-2 5-6 6t-7 1q-1 0-3-1t-2 0l-27-170q0-1-1-5t0-7m298 369q0-5 1-9t3-6 5 2 9 17q15 0 28-7t23-18 18-26 12-30 7-31 2-29q0-50-10-103t-30-100q-9 21-17 44t-17 44-25 39-40 26q-9 0-14-5t-8-11-3-14-1-15q0-11 3-28t9-39 13-41 19-37 24-27 29-10q5 0 10 3t10 5l9 6q5 2 11 4 1 6 4 21t8 33 8 38 8 39 7 33 4 22q1 4 2 12t2 17 1 17 1 10q0 15-2 34t-7 39-13 39-19 35-28 25-36 10q-12 0-16-9t-4-19m-40-236v8q0 5 1 9t3 7 8 3q9 0 18-10t17-21 13-25 9-19q2-4 6-16t8-26 9-26 5-17v-2q0-4-3-7t-7-5-9-2-7-1q-11 0-21 10t-17 26-14 34-10 35-7 29-2 16m483-104h-3q-8 0-15 3t-14 6-13 6-15 2q-14 0-14-15v-1q0-1 0-1l74-23q1-21 1-42t-2-41 1-38 6-32 13-27 25-18q6 0 12 1t12 5 9 8 4 12q-21 0-34 7t-18 20-8 28-1 35 3 35 1 35q17 0 33-4t31-7 32-8 33-3q11 0 11 11 0 5-8 8t-21 6-30 6-32 6-29 6-22 8q-2 19 0 37t6 36 7 36 4 35q0 5-1 10t-7 5q-4 0-6-3t-4-6-3-8-2-6q-3-18-6-34t-5-31-3-31-2-34m133 79q0-10 0-26t3-35 5-39 12-35 18-25 28-10q23 0 37 13t21 31 11 40 2 39q0 18-5 40t-17 39-28 30-40 12q-15 0-24-7t-14-18-7-24-2-25m17-6q0 9 0 19t3 19 9 14 18 6q22 0 36-10t22-25 12-34 3-36q0-11-2-28t-7-33-16-27-27-12q-11 0-20 9t-14 24-9 33-5 33-3 30 0 18m137-107h13l29 119h6q1-16 5-33t12-35 17-34 23-28 28-20 35-7q0 12-9 21t-23 17-27 17-22 23q-8 13-13 30t-8 36-5 36-2 33q-3 5-7 8t-8 4q-2 0-5-1t-3-5l-36-181m510 34h-8q-11 0-22 3t-21 6-21 6-22 2q-6 0-10-2t-4-10q0-6 3-8t8-2 10 0 8-1q4-1 14-3t23-5 22-5 14-4q0-1 1-5t0-8 0-7v-6q0-14-2-28t-4-28-4-28-2-29q0-5 1-9t8-5q2 0 5 1t3 5l17 141q1 0 1 0h2q5 0 15-2t23-6 27-7 28-7 23-5 17 0q2 0 6 4t6 6q1 5-9 10t-24 9-33 7-34 6-28 5-14 3v10q0 7-1 14t0 15v9q0 25 4 49t3 47q0 4-2 6t-5 4-6 3-4 2q-4-21-6-39t-2-34-2-36-2-44m169 153l-37-376 21-4 22 266q3-16 10-36t19-35 28-26 39-4q16 2 27 12t20 23 13 30 9 33 4 33 1 27q0 10-2 14t-9 4q-3 0-7-1t-5-6q1-9 1-24t-1-31-6-33-11-29-18-22-27-8q-16 0-28 7t-20 19-13 25-7 28q0 4-1 13t-1 19-2 22-1 23-1 19 0 12q-1 5-4 5t-7 1q0 0-3 0t-3 0m207-114q-11 7-23 11t-19-5q0-9 7-12t14-5 16-5 11-12q3-10 5-23t7-27 13-21 23-9q8 0 21 6t23 14 19 16 8 16q0 4-1 7t-5 4l-96 34 0 2q0 2-1 5v6q0 4 0 5 0 10 2 24t6 28 13 23 22 10q5 0 9-2t7-5 8-5 8-2q0 7-3 14t-8 11-13 8-13 3q-19 0-30-13t-17-31-9-38-4-32m60-86q-9 0-15 5t-10 12-6 16-1 15q7 0 17-1t19-4 16-7 11-12q-7-11-14-18t-17-6m366 168q0-5 4-11t8-8q1 14 9 21t21 8q13 0 28-5t29-12 23-21 9-26q0-18-14-29t-35-18-45-14-45-17-35-24-14-38q-5-14 3-28t23-26 35-23 38-18 33-10 20-1-2 9-30 23q-3 0-7-1t-4-5q-11 4-26 13t-28 19-22 24-10 26q0 20 14 31t35 20 45 14 45 16 35 23 14 38q0 13-7 24t-16 20-24 16-27 12-27 7-24 3q-5 0-10-4t-9-8-7-10-3-10m229 32q-9 3-17-2t-13-16-11-24-6-26-4-24 1-16q0-5 0-15t1-23 1-27 2-27 1-23 0-15q1 0 2-1l1 0q5 0 8 4t6 9q0 6 0 24t0 38 0 37 0 25q1 6 2 18t5 26 8 23 13 12q20 0 34-15t24-38 14-50 10-50 7-39 8-17l11 2 28 189q3 2 5 5t3 6 3 7 0 5q-1 3-5 7t-9 4h-2q0 0-1 0-1-1-2-4t-4-7-3-7-2-5q-1-5-3-15t-3-22-3-27-2-27-3-23-3-15q-2 12-6 27t-11 33-15 33-19 30-23 24-28 12m168-182q0-3 0-7t1-7 3-6 7-3q1 0 3 0t4 1q0 34 3 71t13 71q1-6 3-19t5-27 5-27 4-18q3-10 9-21t14-21 19-15 23-6q19 0 34 9t27 23 21 33 13 37 8 37 3 31v6q0 3-1 6t-3 4-6 2q-5 0-8-6 0-12-3-28t-6-34-9-35-15-31-22-23-29-8q-14 0-24 5t-16 13-11 20-7 25q-1 7-3 24t-6 38-5 37-3 25q-1 5-5 6t-7 1q-1 0-3-1t-2 0l-28-170q0-1 0-5t0-7m242-5h12l29 119h6q1-16 6-33t11-35 17-34 23-28 29-20 35-7q0 12-10 21t-23 17-27 17-21 23q-9 13-14 30t-8 36-5 36-2 33q-3 5-6 8t-8 4q-2 0-5-1t-4-5l-35-181m177-17v-19q3 0 6 2t5 6l34 169q6 9 9 14t3 15q0 4-2 11t-7 6h-2q-1 0-1 0-1-1-3-2l-7-8q-1-1-1-2l-34-192m-8-128q10 0 15 3t6 13q0 3-1 8t-6 6q-10-4-12-12t-2-18m107 315q0-6 0-10t4-6 5 0 8 8q9 0 21-1t24-3 25-7 22-10 16-16 5-21-11-18-28-9-38-6-36-10-29-19-11-35q0-16 5-26t18-20q5-5 19-14t29-21 29-20 19-14q1 0 3 0t3 0q12 0 12 11 0 6-9 12t-22 13-29 16-29 18-22 22-9 24q0 15 7 21t21 11q6 1 21 5t30 9 31 9 21 5q12 7 20 15t8 22q0 14-7 25t-18 20-27 16-30 12-29 7-26 2q-11 0-14-3t-2-14m192-97q-11 7-23 11t-19-5q0-9 7-12t14-5 16-5 11-12q3-10 6-23t6-27 13-21 23-9q8 0 21 6t24 14 19 16 7 16q0 4 0 7t-5 4l-97 34 0 2q0 2-1 5v6q0 4 0 5 0 10 2 24t6 28 13 23 22 10q6 0 9-2t8-5 7-5 9-2q0 7-4 14t-8 11-12 8-14 3q-19 0-30-13t-17-31-9-38-4-32m60-86q-9 0-15 5t-10 12-6 16-1 15q8 0 17-1t19-4 17-7 10-12q-7-11-13-18t-18-6" />
</svg>