<svg id="fnt-Waterfall" viewBox="0 0 1508 1000" xmlns="http://www.w3.org/2000/svg"><path id="waterfall" class="f" d="M178 695q-29 0-46-19t-17-50 20-68 68-73q23-18 47-29t41-19q-11-4-22-9t-19-8q-29-12-59-22t-61-10q-8 0-17 1t-16 3q-33 8-50 30t-17 47q0 24 17 46t52 33q1 0 1 2 0 4-3 3-40-12-60-38t-19-54q0-28 19-52t57-30q7-2 14-2t15-1q32 0 63 11t63 25q13 5 25 10t25 11q3-1 4-1t4 0q9 0 13 3t5 6q0 3-7 3-3 0-8-1t-10-3q-18 9-44 22t-49 33q-40 33-59 67t-18 63q0 26 14 43t39 17q19 0 41-11 33-16 57-45t53-71q0-14 2-25t8-17q2-3 6-6t7 0q4 3 4 8 0 7-6 17t-10 17q-1 5-1 11t-1 11q0 18 5 36t13 34 21 25 27 9q12 0 26-8t28-25q16-19 28-46t19-52q7-30 7-56 0-35-12-55-7-1-13-5t-10-11q-1 0-1-2 0-2 2-4t4 0q13 4 22 14 6 1 11 2t10 0q5 0 9 0t9-1h1q3 0 3 2 0 3-4 3-7 2-16 3t-16 1q8 13 11 29t4 35q0 22-6 47-6 29-21 57t-33 47q-17 17-34 25t-32 8q-21 0-39-15t-26-39-10-55q-14 20-28 39t-32 36-46 31q-25 12-46 12m451-25q-9 0-14-6t-4-15q0-7 2-13 0-1 1-5t3-9q-7 11-18 24t-23 20q-8 4-15 4-10 0-16-8t-6-22q0-11 5-25t14-27q6-9 16-17t20-14 21-6 17 6 8 16q0 2-2 2t-2-1q-6-13-19-13-9 0-19 8t-20 21-16 25q-6 11-9 20t-3 15q0 14 11 14 5 0 12-4 6-3 14-12t18-20 16-22 11-16q7-13 15-22t16-10q4 0 4 2t-2 4q-10 12-19 28t-14 31-7 22q-1 16 10 16 1 0 3 0t3-1q11-3 21-13t18-21 14-19q2-2 3-2 1 0 1 2 0 2-1 4-4 5-7 10t-6 9q-1 2-2 3t-3 4q-7 8-17 17t-20 13q-8 3-13 3m68 0q-9 0-13-6t-4-15q0-7 2-13 1-7 9-24t18-34q-5 2-11 4t-8 5q-2 1-3 1-1 0-1-2 0-4 5-8t11-6 12-3q6-10 12-21t11-19q4-5 10-13t15-12q4-3 12-3 5 0 6 2-8 2-16 10t-14 18-12 20-8 14q11-1 18-1 4 0 7 0t5 1q4 0 4 2t-5 2q-4 0-10 0t-11 1q-4 1-9 3t-6 6q-11 20-20 38t-9 28q-2 16 9 16t22-10 22-22 16-22q2-2 2-2 2 0 2 2 0 2-2 5-8 13-19 26t-24 23-25 9m98 1q-20 0-30-10t-9-24q0-4 0-9t2-8q3-9 8-21t15-24 18-19 21-7q9 0 14 6t5 16q0 9-6 19t-15 16q-11 7-25 7-9 0-17-3-7 15-7 29 0 11 6 18t20 8q17 0 30-9t24-21 22-29q1-2 2-2 1 0 1 3t-1 5q-9 14-21 27t-25 23-32 9m-7-65q13 0 24-9 6-4 10-9t5-11 2-10q0-11-9-11-5 0-12 6-6 6-13 14t-10 16-6 12q3 2 9 2m122 64q-8 0-13-6t-5-14q0-7 4-14 5-12 14-23t16-20q5-6 5-11 0-6-7-12-6-4-11-10-4-5-5-10-8 16-21 38t-25 39q-2 3-4 3-1 0-1-2 0-1 0-2t3-5q13-18 21-33t14-29l11-25q1-1 1-3t2-2q1-1 2-1 2 0 3 2t0 5q-1 6 1 11t7 10q4 4 11 8t14 8 4 11q-2 10-10 19t-17 19q-6 6-11 13t-7 13q-1 2-1 3t0 3q0 9 9 9 3 0 8-1 12-5 23-15t18-21 11-15q4-6 5-6 1 0 1 3t-1 5q-11 17-25 33t-30 22q-8 3-14 3m81 139q-11 0-20-11t-10-31q-1-4-1-9t0-8q0-18 3-39t9-40q7-23 18-49t20-43q-8-1-18 3t-16 10q-1 1-2 1-2 0-2-2 0-6 5-9 7-8 16-11t24-6q4-7 9-17t10-16q16-26 38-47t45-26q2-1 4-1t4 0q9 0 14 3t6 8q0 1 0 3 0 2-1 2-2 0-3-3 0-3-4-4t-9-1q-13 0-27 9t-26 24-25 34q-4 6-9 14t-8 14q13-1 26-2t24-1q4 0 7 0t7 0q5 1 5 4 0 3-4 3-20 0-37 1t-34 6q0 2-1 3t-2 4q13 3 22 15t13 31 4 39q0 12-1 25-4 30-13 54t-19 39q-21 27-41 27m2-12q8 0 18-9t20-26q6-12 14-31t11-42q1-8 1-15t1-15q0-27-9-49t-26-26q-13 23-24 52t-18 58-9 55q-2 24 4 36t17 12m189-127q-9 0-13-6t-4-15q0-7 1-13 1-1 2-5t3-9q-7 11-18 24t-24 20q-7 4-15 4-10 0-16-8t-6-22q0-11 5-25t15-27q6-9 15-17t21-14 21-6 17 6 7 16q0 2-1 2t-2-1q-6-13-20-13-9 0-19 8t-19 21-17 25q-6 11-9 20t-2 15q0 14 10 14 6 0 12-4 6-3 15-12t17-20 16-22 11-16q8-13 16-22t16-10q4 0 4 2t-2 4q-10 12-19 28t-15 31-6 22q-2 16 9 16 2 0 3 0t4-1q10-3 20-13t19-21 14-19q1-2 2-2 2 0 2 2 0 2-2 4-3 5-6 10t-6 9q-1 2-3 3t-3 4q-6 8-17 17t-20 13q-7 3-13 3m95 1q-12 0-19-8t-9-20-2-24q1-22 9-49t21-57 28-54 34-44 34-25q6-3 10-4t7 0q12 0 16 11 2 4 2 10 0 12-8 28-7 15-20 33t-29 37-33 36-30 31-23 20q-3 17-3 31 0 16 5 27t18 12q12 0 24-10t21-22 16-23q2-2 3-2 1 0 1 2 0 2-1 5-9 14-20 27t-24 23-28 9m-10-87q11-10 29-29t37-41 35-44 24-39q3-6 5-13t2-13q0-11-8-11-11 0-30 18-20 19-39 48t-34 61-21 63m109 87q-12 0-19-8t-10-20-2-24q2-22 10-49t20-57 29-54 33-44 35-25q5-3 9-4t8 0q12 0 16 11 2 4 2 10 0 12-8 28-7 15-20 33t-30 37-32 36-31 31-22 20q-3 17-3 31 0 16 5 27t18 12q12 0 23-10t21-22 17-23q2-2 2-2 2 0 2 2 0 2-2 5-9 14-20 27t-24 23-27 9m-10-87q11-10 28-29t37-41 36-44 23-39q3-6 5-13t2-13q0-11-8-11-11 0-29 18-21 19-40 48t-33 61-21 63" />
</svg>