<svg id="fnt-Wendy One" viewBox="0 0 2760 1000" xmlns="http://www.w3.org/2000/svg"><path id="wendy-one" class="f" d="M437 364h90q0 59-12 112t-28 86-34 58-29 36l-11 11h-114l-37-122q-7 24-22 54t-26 49l-12 19h-108l-94-303h159l28 197q8-8 19-28t19-40 14-56 8-73h107l29 197q35-44 48-123 6-35 6-74m251 308q-57 0-95-33t-38-96q0-40 19-68 36-52 110-52 57 0 87 22t30 63q0 31-25 50t-72 20q-19 0-35-3l-5-1q2 18 15 26t32 9q31 0 52-18l31 37q-8 10-19 18t-35 17-52 9m40-168q0-10-8-17t-21-6-25 12-12 28q11 5 29 5t27-6 10-16m290-81q35 0 60 29t25 77-11 138h-88l-10-112q-5-54-29-54-28 0-30 54l-4 112h-92l-10-237h113l-2 42q2-5 11-15t18-17q22-17 49-17m113 120q0-35 9-60t26-37q30-23 66-23 18 0 33 7t21 15l6 7-4-110h114l-13 325h-75l-9-33q-30 37-74 37t-72-32-28-96m133-53q-30 0-30 60 0 11 2 21t9 21 22 11 22-17 8-36q0-60-33-60m342 121v-4q-2 9-8 19t-14 17-21 13-36 5-43-10-31-28q-21-34-21-74t12-119h97v108q0 55 32 55 15 0 22-13t7-33q0-3 0-6l-5-111h113l-7 153q-2 33-5 56t-12 47-23 39q-32 34-96 34-45 0-85-28l-4-3 21-43q24 11 45 11 29 0 45-22t17-63m226-94q0-78 46-119t131-41 131 41 46 119-49 117-128 38-129-38-48-117m221-2q0-101-44-101t-44 101 44 101 44-101m347-92q35 0 60 29t25 77-11 138h-88l-10-112q-5-54-29-54-28 0-30 54l-4 112h-92l-10-237h113l-2 42q2-5 11-15t18-17q22-17 49-17m246 249q-57 0-95-33t-38-96q0-40 19-68 36-52 110-52 57 0 87 22t30 63q0 31-25 50t-72 20q-19 0-35-3l-5-1q2 18 15 26t32 9q31 0 52-18l31 37q-8 10-19 18t-35 17-52 9m40-168q0-10-8-17t-21-6-25 12-12 28q11 5 29 5t27-6 10-16" />
</svg>