<svg id="fnt-WindSong" viewBox="0 0 2597 1000" xmlns="http://www.w3.org/2000/svg"><path id="windsong" class="f" d="M418 697q-7 0-15-3t-7-7q0-2 2-5l27-34q16-21 31-47t26-55 18-54 7-47q0-14-4-25-10-24-38-34t-67-10q-4 0-9 0t-9 1q-30 1-68 7t-78 19-78 27-69 34-48 42-18 47q0 12 10 20t27 13 36 8 40 3q4 0 8-1t7 0h2q4 0 7 1t3 2q0 2-6 4-7 1-19 2t-22 1-15 0q-22 0-43-6t-36-18-14-29q0-29 16-54t43-45 63-36 73-26 77-16 72-7q7-1 13-1t13 0q41 0 75 8t54 26 21 54q0 21-9 49t-22 56-28 53-25 39q18-19 43-45t56-56 63-57l7-14q9-14 14-23t11-15 15-4q4 0 10 2t12 6 3 7q-2 5-9 12t-13 13-9 6q-7 1-15 13t-15 32-11 42-5 43q0 25 9 42t32 18q25 0 48-12t43-32 36-42 27-45q8-15 14-39t6-46q0-17-4-32t-15-23-28-9q-9 0-22 4-6 0-6-2t4-3q16-6 30-6 24 0 39 10t21 27 6 36q0 26-9 53t-21 46q-14 21-34 43t-42 40-48 29-51 11q-21 0-33-13t-17-31-5-40q0-23 4-44t8-30l5-12q-28 25-55 52t-47 51q-12 13-23 25t-11 20q-4 5-11 13t-14 14-9 8q-4 1-8 1m525-182q-9 0-9-10 0-4 2-8 1-4 10-7t18-4 15-1q5 0 5 1 0 1-5 3t-11 5-7 7q-3 6-8 10t-10 4m-68 156q-14 0-25-6t-10-19q0-15 8-30t19-26 17-18q-4-1 2-9t17-13q3-1 6-1 5 0 11 3t6 7q0 2-2 5t-4 4q-8 6-23 18t-24 26q-18 23-18 36 0 14 22 14 19 0 36-6t34-13q24-13 45-31t44-35q1-1 2-1t2 2-2 4q-3 4-13 13t-24 21-31 22-35 20q-10 4-27 8t-33 5m123 0h-2q-5 0-5-6 0-5 2-11t3-6q4-9 12-23t20-30 23-30 23-23 18-9q2 0 8 3t9 6q3 1 3 4 0 4-4 4h-2q-2 0-3 0t-5 2q-7 3-18 12t-23 22-23 26-18 24-10 15q4-7 15-17t24-21 28-21 29-14q11-5 20-5 12 0 17 8t7 19 3 24q2 19 8 27t16 7q7 0 16-3t19-8q21-11 43-27t43-32l32-26q4-3 5-3 3 0-5 11t-25 26q-14 11-31 24t-35 24-36 19-34 8q-15 0-23-9t-10-20-5-25-6-21-14-8q-7 0-15 4t-21 12q-16 11-29 22t-23 22q-3 3-8 9t-9 9-4 5m431 3q-21 2-30-8t-8-24 6-32 14-29q-1 1-8 9t-19 19-25 23-27 20-23 10q-1 1-4 1-7 0-13-4t-9-8q-4-4-6-9t-2-11q0-14 9-30t23-31 29-27 30-17q11-5 23-5 16 0 28 9 5 3 8 7t4 11v0q0 6-4 6-3 0-4-3-3-6-8-13t-16-6q-16 0-34 11t-34 26-27 33-13 31q0 2 0 4t0 4q0 14 9 14 5 0 10-3t11-5q29-18 56-41t50-47q27-28 50-56t55-51q6-5 12-5 7 0 12 9t6 16q0 3-1 6-2 2-4 2-1 0-1-1t-1-3q0-4-5-4t-12 3-8 5q-31 21-60 55-7 8-13 16t-13 16q-4 6-12 19t-15 28-6 28q0 9 5 15t18 6q25 0 47-12t42-24q37-24 72-53 1-2 2-2t1 2-2 4q-5 7-23 24t-46 35q-23 16-46 25t-50 12m304 58q-36 0-66-17t-51-45-27-58q-19-2-34-9t-16-15q0-5 3-8t11-3q7 0 15 2 11 2 16 8t7 11q22 2 60 5t83 4q0-1-1-3t-1-3q-2-7-4-13t-4-11q-11-33-21-68t-9-65q2-28 18-47t43-31 56-17 56-5q29 0 57 5t51 14 35 24 14 33q0 14-12 25t-28 21-36 14-33 5q-3 0-4-2t-2-3q0-6 6-6 14 0 31-4t31-10 25-17 10-21q0-17-14-28t-37-18-46-8-45-3q-49 0-80 9t-48 21-25 28-9 26-1 19q0 28 8 56t17 53q2 5 5 12t5 13l2 5h16q38 0 74-2t69-10 55-18q1 0 3 0 1 0 1 1 0 2-5 6-16 11-49 19t-74 12-84 5q8 17 16 38t9 40q0 15-9 24t-33 10m-14-19q15 0 24-8t8-22q0-13-3-30t-9-33q-40 1-78-1t-65-7q14 34 34 55t42 32 40 13q2 1 4 1t3 0m222-37q-18 0-26-10t-7-21q0-4 0-8t2-7q4-12 13-25t19-22 22-11q2-1 7 1t10 5 5 4q1 1 1 4t-3 0q-5-3-14 3t-19 15-14 16q-6 7-11 16t-4 17q0 6 4 10t14 4q2 0 5-1t6 0q10-2 25-10t31-18 30-25q9-7 16-17t13-20q-18-1-38-2t-35-5-27-8q-6-4-9-8t-3-8 2-6 5-2 4 2 4 3 4 2q19-11 37-15t32-4q16 0 28 6t14 23q1 7 0 13 8 0 17 0t16 0q15 0 31-2t30-6 21-7q3-2 5-2t2 2q0 3-8 7-11 5-34 10t-47 6q-7 1-16 1t-19 0q-5 21-21 39t-37 31-43 22-40 8m129-110q2-5 2-11 0-9-6-15t-23-6q-17 0-32 4t-29 11q19 8 42 12t46 5m69 105h-2q-5 0-5-6 0-5 2-11t3-6q4-9 13-23t20-30 23-30 22-23 18-9q2 0 8 3t10 6q2 1 2 4 0 4-3 4h-3q-1 0-3 0t-4 2q-8 3-19 12t-23 22-23 26-18 24-10 15q5-7 15-17t24-21 29-21 28-14q12-5 21-5 12 0 17 8t7 19 3 24q2 19 8 27t15 7q7 0 16-3t20-8q21-11 43-27t43-32l31-26q4-3 5-3 3 0-5 11t-25 26q-13 11-30 24t-35 24-37 19-34 8q-15 0-22-9t-10-20-5-25-7-21-14-8q-6 0-15 4t-20 12q-16 11-29 22t-23 22q-4 3-9 9t-9 9-4 5m221 192q-11 0-22-3t-19-10-7-22q0-19 10-36t26-31 34-25q21-14 46-26t52-21 54-10q10-19 15-39t6-35q0-12-4-18-5 3-6 6-7 7-20 20t-27 25-31 22-29 9q-6 0-13-3t-10-9q-6-8-6-18 0-15 9-32t24-33 30-28 31-17q4-1 9-2t12-1q14 0 26 6t15 21v2q0 3-2 5t-3 3q-2 0-2-4 0-3-2-8t-5-8-14-4q-15 0-34 10t-36 28-30 34-14 31q0 2 0 3t0 3q0 15 11 15 8 0 18-7t21-13 14-11q13-12 28-25t29-25q-2-1-2-4t3-7 10-3q13 0 18 8t5 21q0 17-7 39t-17 44q12 0 25 4t16 13q1 1 0 2t-2-1q-4-7-17-9t-25-2q-4 9-8 17t-8 15q-16 30-38 56t-45 45-47 31-45 12m-6-8q27 0 51-14t46-38 42-54 36-61q-44 5-86 28t-78 52q-22 17-32 33t-9 28 8 19 22 7" />
</svg>