<svg id="fnt-Wittgenstein" viewBox="0 0 2957 1000" xmlns="http://www.w3.org/2000/svg"><path id="wittgenstein" class="f" d="M202 667l-26 5-130-339 12 11-58-17v-10h92l109 290-5-1 56-147-2 16-60-141 13 10-58-17v-10h88l45 114h-10l35-98 7 11-41-17v-10h97v9l-44 19 14-11-49 128-2-16 60 167-9 0 109-280 6 11-57-17v-10h128v9l-59 18 16-11-134 334-24 5-64-180h15l-70 175m429 0h-139v-10l56-18-9 12v-210l9 10-61-7v-8l93-27 5 3-1 38v200l-8-12 55 19v10m-79-301q-13 0-23-9t-9-23 9-22 23-10q13 0 22 10t10 22-10 23-22 9m180 308q-20 0-33-16t-14-41v-190l10 9h-54v-20h54l-10 9v-57l44-31v88l-9-9h81v20h-81l9-9v173q0 16 5 27t11 17 15 6q13 0 27-7t27-17l9 14q-16 15-41 25t-50 9m167 0q-20 0-33-16t-14-41v-190l10 9h-54v-20h54l-10 9v-57l44-31v88l-9-9h81v20h-81l9-9v173q0 16 5 27t11 17 15 6q13 0 27-7t27-17l9 14q-16 15-41 25t-50 9m223 101q-29 0-56-9t-43-23-16-33q0-16 10-33t24-30v8q-13-9-21-23t-8-31q0-7 4-18t13-21 15-15l3 7q-10-12-15-27t-5-31q0-26 13-46t37-30 55-11q22 0 38 5t27 13l-16-3 91-6v20l-4 4-70-4 8-4q10 10 15 23t5 29q0 28-12 50t-35 34-57 13q-21 0-40-7t-31-18l5-1q-2 3-6 10t-5 14-3 11q0 15 11 22t29 7h113q25 0 39 15t15 36q0 30-15 53t-43 36-69 14m8-27q29 0 50-6t31-16 11-26q0-10-7-17t-21-12-32-4h-80q-10 0-19-3t-16-6l9-2q-9 11-17 19t-8 23q0 15 15 26t37 18 47 6m-2-183q23 0 37-17t13-45q0-37-14-57t-42-19q-21 0-33 15t-13 46q0 36 13 57t39 20m279 108q-32 0-57-16t-40-44-14-64q0-41 15-73t41-50 59-18q29 0 50 14t33 38 12 56q0 4 0 7t0 8h-171l9-8q-1 35 8 62t28 43 42 15q16 0 36-8t33-22l11 14q-9 13-25 24t-33 16-37 6m-64-152l-9-8 126-3-2 8q-1-27-9-48t-22-31-32-11q-16 0-28 11t-19 33-5 49m327 146h-130v-10l55-18-8 12v-210l9 10-61-7v-8l93-27 5 3-1 48-5-5q12-11 27-22t29-17 29-7q25 0 43 10t29 26 11 39v167l-9-12 54 18v10h-127v-10l45-19-8 13v-153q0-29-15-46t-38-17q-11 0-23 6t-25 17-22 22l5-14v185l-9-13 47 19v10m283 8q-21 0-44-7t-37-18l4-58h11l12 28q9 18 23 29t31 11q25 0 41-14t15-34q0-11-7-18t-19-13-27-12q-15-6-30-13t-29-18-20-25-8-36q0-20 10-36t30-24 44-8q21 0 41 5t31 12v61h-11l-13-28q-7-17-20-26t-28-9q-21 0-35 12t-14 31q0 10 7 17t18 13 26 12q19 8 39 19t32 28 13 46q0 21-11 38t-30 25-45 10m205-1q-20 0-33-16t-14-41v-190l10 9h-54v-20h54l-10 9v-57l44-31v88l-9-9h81v20h-81l9-9v173q0 16 5 27t11 17 15 6q13 0 27-7t27-17l9 14q-16 15-41 25t-50 9m211-1q-33 0-58-16t-39-44-14-64q0-41 14-73t41-50 60-18q29 0 50 14t33 38 12 56q0 4 0 7t-1 8h-171l9-8q-1 35 9 62t27 43 43 15q16 0 35-8t34-22l11 14q-10 13-25 24t-34 16-36 6m-65-152l-9-8 126-3-2 8q0-27-9-48t-22-31-31-11q-16 0-29 11t-18 33-6 49m336 146h-139v-10l56-18-9 12v-210l9 10-61-7v-8l93-27 5 3-1 38v200l-8-12 55 19v10m-79-301q-13 0-23-9t-9-23 9-22 23-10q13 0 22 10t10 22-10 23-22 9m224 301h-130v-10l56-18-9 12v-210l9 10-61-7v-8l93-27 5 3-1 48-4-5q12-11 26-22t30-17 29-7q24 0 43 10t29 26 10 39v167l-8-12 54 18v10h-128v-10l46-19-9 13v-153q0-29-15-46t-38-17q-10 0-23 6t-24 17-22 22l4-14v185l-8-13 46 19v10" />
</svg>