<svg id="fnt-Wix Madefor Display" viewBox="0 0 4796 1000" xmlns="http://www.w3.org/2000/svg"><path id="wix-madefor-display" class="f" d="M506 309l-109 358h-47l-89-313h4l-89 313h-46l-110-358h42l100 338h-17l97-338h43l97 338h-15l100-338h39m92 112v246h-37v-246h37m-18-66q-11 0-19-8t-8-19q0-11 8-19t19-8q11 0 19 8t8 19q0 11-8 19t-19 8m180 207l-77 105h-44l97-128-88-118h43l69 97 69-97h43l-88 118 97 128h-44l-77-105m608-226l-144 301h-29l-144-301h13v331h-38v-358h51l145 304h-24l145-304h49v358h-37v-331h13m310 175v156h-35v-48l-1-14v-92q0-31-20-50t-54-18q-24 0-44 10t-35 29l-26-25q21-22 46-34t59-12 58 12 38 34 14 52m-129 164q-28 0-50-11t-33-27-11-40q0-26 14-45t40-27 57-10h81v30h-76q-33 0-56 12t-22 39q0 22 17 35t43 13q26 0 47-11t34-28 14-43l15 9q0 30-15 53t-40 37-59 14m442-368v360h-36v-67l-1-1v-48q0-31-11-55t-33-37-47-14q-27 0-47 13t-32 35-12 51 12 50 32 35 48 13q26 0 46-10t34-30 15-42l7 10q4 30-9 53t-38 38-59 14q-37 0-66-17t-45-47-16-67q0-38 16-67t45-47 64-17q27 0 49 10t38 29 19 43h-10v-188h37m278 290l26 24q-19 25-47 39t-63 15q-39 0-70-17t-48-47-17-67 16-68 47-46 67-17q36 0 63 16t44 46 16 67v3h-38v-3q0-29-11-51t-31-34-43-12q-27 0-48 13t-32 34-11 51 12 52 34 35 51 12q52 0 83-45m34-55v15h-222v-31h214l8 16m127-174v299h-37v-301q0-59 59-59h50v31h-42q-16 0-23 7t-7 23m72 53v31h-160v-31h160m168 254q-37 0-67-17t-46-47-17-67 17-68 46-46 67-17q38 0 67 17t46 46 17 68-17 67-46 47-67 17m0-33q27 0 48-12t32-35 11-51-11-52-32-34-48-13-47 13-32 34-12 52 12 51 32 35 47 12m315-225h6v36h-10q-22 0-42 11t-31 36-12 64v103h-37v-246h36v78h-6q6-30 21-48t34-26 41-8m276 250h-115v-358h115q55 0 97 23t65 63 24 93-24 92-65 64-97 23m-77-323v288h77q45 0 77-18t51-51 18-75-18-76-51-50-77-18h-77m362 77v246h-37v-246h37m-19-66q-11 0-19-8t-8-19q0-11 8-19t19-8q12 0 19 8t8 19q0 11-8 19t-19 8m68 274l26-25q17 18 39 29t50 10q30 0 49-13t19-32q0-18-16-28t-55-15q-56-8-79-24t-22-44q0-22 13-39t36-26 52-9q33 0 59 12t46 34l-26 25q-15-19-34-29t-45-11q-27 0-45 12t-18 30q0 14 15 22t52 14q58 8 81 25t24 50q0 23-14 40t-37 28-55 10q-36 0-65-13t-50-33m315-78v213h-37v-343h36v74h-9q5-24 20-43t38-29 49-10q36 0 64 17t44 47 16 67q0 38-17 67t-45 47-65 17q-34 0-59-14t-38-38-9-53l7-10q2 24 15 42t34 30 46 10q27 0 48-13t32-35 12-50-12-51-31-35-46-13q-27 0-48 14t-33 37-12 55m316-244v360h-37v-360h37m279 204v156h-36v-48l0-14v-92q0-31-20-50t-54-18q-25 0-45 10t-34 29l-26-25q20-22 46-34t59-12 57 12 39 34 14 52m-130 164q-28 0-49-11t-33-27-12-40q0-26 15-45t39-27 58-10h81v30h-76q-34 0-56 12t-22 39q0 22 16 35t44 13q26 0 47-11t33-28 15-43l15 9q0 30-15 53t-41 37-59 14m288-28l94-226h38l-125 290q-11 25-26 39t-47 14h-25v-32h25q16 0 26-8t17-24l13-32-107-247h40l93 226h-16" />
</svg>