<svg id="fnt-Work Sans" viewBox="0 0 2589 1000" xmlns="http://www.w3.org/2000/svg"><path id="work-sans" class="f" d="M165 667h-49l-98-330h42l81 293 78-293h45l78 294 81-294h40l-97 330h-50l-58-214-17-75h-1l-17 75-58 214m466-255q35 0 62 15t43 45 16 70-16 69-43 45-62 16q-35 0-63-16t-43-45-15-69 15-70 43-45 63-15m0 34q-26 0-44 12t-28 32-9 52q0 29 9 51t28 33 44 11 43-11 28-33 10-51q0-30-10-52t-28-32-43-12m236 221h-40v-250h33l5 41q11-23 31-35t49-11q7 0 14 1t14 4l-7 36q-6-2-12-3t-19-1q-15 0-31 9t-26 27-11 47v135m333-250h51l-108 108-10 9-82 82v-50l149-149m-169-115h40v365h-40v-365m82 225l33-23 111 163h-49l-95-140m486-195q43 0 75 17t52 53l-33 26q-19-32-42-46t-56-13q-27 0-44 8t-25 19-8 28q0 18 11 31t44 21l71 16q48 10 66 31t19 53q0 28-16 50t-44 34-67 12q-36 0-63-10t-47-26-32-37l35-29q10 19 25 34t36 22 49 8q25 0 44-6t29-19 10-29q0-16-11-29t-39-19l-78-18q-30-7-49-19t-27-29-8-36q0-27 14-49t43-36 66-13m353 242v-69q0-28-15-43t-43-15q-26 0-44 11t-26 36l-33-20q10-28 37-45t67-17q27 0 49 9t35 28 13 48v121q0 18 19 18 9 0 18-2l-2 31q-10 5-26 5-14 0-26-5t-18-17-6-28v-5l10 1q-6 20-21 32t-32 18-36 6q-22 0-41-8t-30-23-11-37q0-28 18-47t53-24l99-20v33l-81 17q-24 5-36 14t-12 25q0 15 12 25t35 10q14 0 27-4t24-12 17-19 6-28m177 93h-40v-250h35l3 56-6-6q8-20 21-32t31-18 37-5q27 0 49 10t35 31 14 54v160h-40v-146q0-42-18-58t-44-16q-18 0-36 8t-30 28-11 51v133m359 5q-36 0-67-16t-47-44l34-24q11 23 32 36t51 13q27 0 42-11t15-26q0-11-7-20t-26-12l-60-13q-36-7-52-25t-16-43q0-21 12-38t33-27 52-10q37 0 62 14t38 41l-33 22q-9-22-28-32t-39-10q-18 0-31 5t-20 13-6 20 7 20 28 14l63 13q35 7 49 23t14 39q0 23-13 41t-35 27-52 10" />
</svg>