<svg id="fnt-Yanone Kaffeesatz" viewBox="0 0 2828 1000" xmlns="http://www.w3.org/2000/svg"><path id="yanone-kaffeesatz" class="f" d="M180 317l-76 233-23-1-78-226q-1-3 1-5t12-1 33 0l20 68q4 12 8 28t8 31 6 28 3 18q0-6 3-18t6-28 8-31 8-28l17-61q1-4 3-5t12-2 29 0m-108 350v-171h41v163q0 4-2 5t-10 2-29 1m196 5q-14 0-27-3t-22-10-16-22-6-41 5-43 15-25 22-11 24-3q8 0 19 1t18 5q0 0 0-7t0-16 0-16q0-12-4-19t-10-9-17-2q-19 0-37 3t-29 8q-4-6-5-12t-1-11q0-4 1-8t5-6q6-4 27-9t49-4q32 0 47 13t15 48v26q0 29-1 57t0 54-2 45q-10 6-28 11t-42 6m4-34q8 0 16-3t10-6q1-8 1-22t1-29 0-29q-5-3-12-4t-11-1q-8 0-15 2t-12 7-8 15-3 27q0 13 2 22t7 13 11 6 13 2m110 29v-238q10-5 23-9t28-6 28-2q26 0 42 6t22 22 6 39v180q0 4-2 5t-10 2-30 1v-176q0-24-5-34t-24-10q-9 0-19 2t-19 7v203q0 4-2 5t-10 2-28 1m260 5q-19 0-34-5t-24-18-15-40-5-67q0-69 22-100t61-30q26 0 43 11t26 39 9 78q0 70-21 101t-62 31m1-35q11 0 19-8t14-28 5-60q0-40-4-61t-12-27-20-7q-11 0-19 8t-14 29-4 60q0 30 2 49t7 29 11 13 15 3m118 30v-238q10-5 23-9t28-6 28-2q26 0 42 6t22 22 6 39v180q0 4-2 5t-10 2-30 1v-176q0-24-5-34t-24-10q-9 0-19 2t-19 7v203q0 4-2 5t-10 2-28 1m263 5q-17 0-32-5t-26-17-16-36-6-59q0-47 8-76t20-43 28-19 33-5q31 0 47 20t16 60q0 17-1 34t-5 31q-17 4-38 5t-40 2-31 1-12 0l0-33t10 0 23 0 28-1 24-4q2-7 2-15t1-15q-1-27-7-39t-22-11q-8 0-16 5t-14 16-9 33-3 52q0 24 2 39t9 24 14 12 22 4q15 0 29-4t27-11q3 6 3 13t1 14q0 8-9 14t-26 10-34 4m331-4q-7 0-14-1t-14-1q-5-29-11-53t-12-44-15-35-18-26q-7-7-15-11t-15-6v-7l89-165q7-2 14-2t12-1q22 0 16 12l-80 140q30 22 50 70t30 120q0 5-3 7t-14 3m-146-1v-342q0-4 2-6t10-2 29 0v342q0 4-1 5t-11 2-29 1m260 5q-14 0-27-3t-23-10-16-22-6-41 6-43 15-25 21-11 25-3q8 0 18 1t19 5q0 0 0-7t0-16 0-16q0-12-4-19t-11-9-16-2q-20 0-38 3t-29 8q-3-6-4-12t-1-11q0-4 1-8t4-6q7-4 27-9t49-4q33 0 47 13t15 48v26q0 29 0 57t-1 54-2 45q-10 6-27 11t-42 6m4-34q8 0 15-3t11-6q1-8 1-22t0-29 1-29q-5-3-12-4t-12-1q-8 0-15 2t-11 7-8 15-3 27q0 13 2 22t7 13 10 6 14 2m160 29h-33v-216h-34q0-16 0-23t3-9 7-2h24v-31q0-29 8-46t20-27 27-13 29-3q23 0 35 6t12 15q0 5-2 11t-3 11q-9-4-18-5t-17-1q-10 0-19 2t-16 6-11 15-4 26v34h45q0 16-1 23t-2 9-6 2h-36v208q0 0-2 4t-6 4m127 0h-32v-216h-35q0-16 1-23t2-9 8-2h24v-31q0-29 7-46t21-27 27-13 29-3q23 0 34 6t12 15q0 5-1 11t-3 11q-9-4-18-5t-18-1q-10 0-19 2t-16 6-11 15-4 26v34h45q0 16 0 23t-3 9-5 2h-37v208q0 0-1 4t-7 4m149 5q-17 0-32-5t-25-17-17-36-5-59q0-47 7-76t20-43 29-19 32-5q32 0 48 20t16 60q0 17-2 34t-4 31q-17 4-38 5t-40 2-32 1-12 0l1-33t9 0 23 0 28-1 25-4q1-7 2-15t0-15q0-27-6-39t-22-11q-9 0-17 5t-13 16-10 33-3 52q0 24 3 39t8 24 15 12 21 4q15 0 30-4t27-11q2 6 3 13t1 14q0 8-10 14t-25 10-35 4m180 0q-17 0-32-5t-25-17-17-36-5-59q0-47 7-76t20-43 29-19 32-5q32 0 48 20t16 60q0 17-2 34t-4 31q-17 4-38 5t-40 2-32 1-12 0l1-33t9 0 23 0 28-1 25-4q1-7 2-15t0-15q0-27-6-39t-22-11q-9 0-17 5t-13 16-10 33-3 52q0 24 3 39t8 24 15 12 21 4q15 0 30-4t27-11q2 6 3 13t1 14q0 8-10 14t-25 10-35 4m162 0q-27 0-44-7t-17-19q0-4 1-11t6-12q11 6 23 9t27 3q19 0 29-8t11-23q0-10-4-19t-16-20l-48-41q-17-14-23-28t-6-25q0-18 9-31t27-21 46-7q26 0 39 5t18 11 6 12q0 10-9 20-11-7-23-10t-26-3q-18 0-29 6t-11 18q0 7 4 14t16 17l47 38q16 15 23 29t6 33q0 33-22 51t-60 19m182 0q-14 0-27-3t-22-10-16-22-6-41 5-43 15-25 22-11 24-3q8 0 19 1t18 5q0 0 0-7t0-16 0-16q0-12-4-19t-10-9-17-2q-19 0-37 3t-29 8q-4-6-5-12t-1-11q0-4 1-8t5-6q6-4 27-9t49-4q32 0 47 13t15 48v26q0 29-1 57t0 54-2 45q-10 6-28 11t-42 6m4-34q8 0 16-3t10-6q1-8 1-22t1-29 0-29q-5-3-12-4t-11-1q-8 0-15 2t-12 7-8 15-3 27q0 13 2 22t7 13 11 6 13 2m178 34q-21 0-31-10t-13-26-3-39v-145h-34q0-16 0-24t2-9 6-2h26v-76q0-8 3-11t12-3 25 0v90h51q0 15 0 23t-2 9-6 3h-43v145q0 11 1 20t4 14 13 6q9 0 15-2t14-6q1 4 2 9t1 12q0 9-7 13t-16 7-20 2m195-5h-123t-4-5-3-15q0-5 1-8t2-8l98-180h-52q-14 0-26 1t-19 1q-1-6-2-11t0-8q0-9 3-13t10-4h127t2 3 3 9q0 3-1 8t-4 12l-94 180h44q21 0 33-2t19-3q1 3 1 9t1 9q-1 12-4 18t-12 7" />
</svg>