<svg id="fnt-Yantramanav" viewBox="0 0 2682 1000" xmlns="http://www.w3.org/2000/svg"><path id="yantramanav" class="f" d="M158 554v113h-43v-116l-111-204h50l83 162 84-162h49l-112 207m202 118q-37 0-57-19t-19-53 27-53 75-19h47v-24q0-21-13-33t-34-12-35 11-14 25h-41l0-1q-2-27 25-48t67-21 64 21 25 59v114q0 28 6 48h-45q-5-23-5-36-13 19-32 30t-41 11m-33-71h0q0 16 10 25t31 9 40-11 25-28v-39h-48q-26 0-42 13t-16 31m213 66v-238h38l3 35q25-40 71-40 39 0 60 23t20 70v150h-43v-150q0-31-12-44t-38-13q-19 0-33 8t-23 25v174h-43m269-238v-57h44v57h45v33h-45v144q0 30 25 30 8 0 16-3l6 30q-12 9-33 9-28 0-43-17t-15-49v-144h-38v-33h38m185 68v170h-43v-238h39l4 35q21-40 59-40 9 0 16 3l-6 40-22-1q-33 0-47 31m179 175q-37 0-57-19t-19-53 27-53 75-19h47v-24q0-21-13-33t-34-12-35 11-14 25h-41l0-1q-2-27 25-48t67-21 64 21 25 59v114q0 28 6 48h-45q-5-23-5-36-13 19-32 30t-41 11m-33-71h0q0 16 10 25t31 9 40-11 25-28v-39h-48q-26 0-42 13t-16 31m256-110v176h-43v-238h38l4 31q24-36 72-36t65 44q25-44 73-44 37 0 58 26t20 75v142h-43v-143q0-34-12-49t-35-15-37 15-16 39v153h-44v-143q0-33-12-49t-36-15q-38 0-52 31m417 181q-37 0-56-19t-20-53 28-53 75-19h47v-24q0-21-13-33t-35-12-35 11-13 25h-41l-1-1q-1-27 25-48t67-21 65 21 24 59v114q0 28 6 48h-44q-5-23-5-36-13 19-32 30t-42 11m-32-71h0q0 16 10 25t31 9 40-11 25-28v-39h-48q-26 0-42 13t-16 31m212 66v-238h39l3 35q25-40 70-40 40 0 60 23t21 70v150h-43v-150q0-31-12-44t-38-13q-19 0-33 8t-24 25v174h-43m324 5q-37 0-57-19t-20-53 28-53 75-19h47v-24q0-21-13-33t-35-12-35 11-13 25h-41l-1-1q-1-27 25-48t67-21 65 21 24 59v114q0 28 6 48h-44q-5-23-5-36-13 19-32 30t-41 11m-33-71h0q0 16 10 25t31 9 40-11 25-28v-39h-48q-26 0-42 13t-16 31m187-172h45l56 168 4 16h1l4-16 55-168h44l-87 238h-33l-89-238" />
</svg>