<svg id="fnt-Yellowtail" viewBox="0 0 1870 1000" xmlns="http://www.w3.org/2000/svg"><path id="yellowtail" class="f" d="M397 327l14 1 9-1q4 0 10 4t5 6q-1 5-58 98-176 290-194 327 9-10 20-19t12-9 3 1 2 4-2 4-16 19-19 24-11 16-9 11-9 4q-15 0-25-13t-10-22q0-17 73-133t128-195q-128 151-204 198-27 17-43 17-8 0-16-5t-12-11-3-26 15-52 41-73q43-69 80-118-32 29-53 29-10 0-13-3t-8-8-5-14 2-11 5-6q8-9 11-10t6-1 3 1-2 3-3 3 3 2 7-2 10-5 13-6 16-10 17-9 17-12 16-11q9-5 15-3t9 3 6 2 5 3q7 5 7 13t-7 16-31 45-54 82-54 86-23 51q0 4 2 4t14-10q66-50 167-158 83-89 98-110 5-6 9-9t14-2m119 157q0 16-13 28t-30 13q-5 0-7-3t-2-7 1-8q-9 3-19 9t-27 18-15 18q0 2 5 2t18-4 17-4 6 1q3 1 7 7t3 9-6 9-14 8-11 4q-52 29-52 40 0 19 33 19 21 0 42-13 17-12 32-23t18-15 6-2q6 0 6 14t-2 19-10 11q-52 42-98 42-25 0-40-7-28-12-28-38 0-33 47-51-9-4-12-10t-3-21 14-30 32-27q43-23 77-23 8 0 16 4t9 11m193-184q11 0 20 7t9 21-15 43-36 59-48 65q-43 54-82 97 0 3-2 11t-2 16 8 15 18 6 24-8 22-17q24-25 30-25t6 18v4q0 10-4 14-20 26-46 38t-48 12-35-14-12-38q0-48 25-112t58-110q72-102 110-102m-11 41q0-4-3-4-8 0-45 49t-52 78-31 73q29-34 80-107t51-89m140-41q11 0 20 7t9 21-15 43-36 59-48 65q-43 54-82 97 0 3-2 11t-2 16 8 15 18 6 24-8 21-17q25-25 31-25t6 18v4q0 10-4 14-20 26-46 38t-49 12-35-14-11-38q0-48 25-112t58-110q72-102 110-102m-11 41q0-4-3-4-8 0-45 49t-52 78-31 73q29-34 80-107t51-89m103 140q7 0 15 6t8 20-10 36-26 43-37 42-42 33-42 12-30-12-12-33 11-46 26-46 36-35q39-32 69-32 14 0 21 7 2 2 2 4v1q4 0 11 0m-25 32h-1q-9 0-9-12-18 5-37 20t-35 35q-31 40-32 67 0 14 10 14t30-13 39-38 29-42 10-24-4-7m296-28l-3-11q0-10 7-16t17-6q21 0 21 26 0 19-19 52t-43 64-54 54-44 23-21-9-7-16 1-14q3-24 13-46-26 34-56 61t-50 28q-10 0-16-6t-6-20 17-53 32-62q-5 3-9 3t-10-4-5-8 4-8 28-25 33-20 18 3 8 10-34 70-34 69q0 0 1 0 5 0 51-52t72-86q4-6 11-6l2 0 14-2q3 0 6 2t3 5-9 17-28 59-19 61q0 5 3 5 9 0 38-34t48-64 19-44m180-131l11-2 10 3q2 0 4 2t2 4-5 10-12 20-8 12q19-2 27-2t11 1 7 6 7 8 3 8-6 8-14 5q-56 5-62 6-20 30-56 94t-37 80q-1 7-1 12 0 10 10 10t22-8 22-17q28-24 30-24 6 0 6 22 0 12-11 21-25 21-41 32t-34 11q-4 0-7-1-19-3-29-14t-9-29 11-44 27-54q26-48 53-89l-10 1q-28 3-33 3h-2q-7 0-14-3t-6-7 3-8 5-6q1-5 12-12t17-7 11 0 12-1 10 0l22-1q20-31 28-40t9-9 5-1m137 127q18 0 18 13 0 7-3 10t-13 21-23 46-17 48q0 2 0 6 0 14 7 14t17-7 18-15 15-16 9-10 5-1q4 0 5 7t1 15-1 10q-7 14-31 34t-44 19-29-12-9-26 5-26q-21 27-47 45t-43 18-27-10q-13-12-13-34t10-45 26-41 35-33q41-32 75-32 13 0 21 5t11 11q6-9 10-12t12-2m-33 27q-41 0-86 47-16 16-29 39t-14 32 5 9q7 0 38-27t42-40q11-14 44-60m209-109q0 13-13 28t-27 14-14-15 12-28 28-13q6 0 10 3t4 11m-39 213q0 7-2 10-12 25-38 40t-45 15-34-13-14-27 14-39 27-47 13-24-5-7-5-8 10-13 25-22 22-10 14 7 6 12-58 106q-1 1-4 6t-5 8-4 8q-5 10-5 17 0 8 11 8t23-8 21-17q23-24 26-24 7 0 7 22m184-312q12 0 20 7t9 21-15 43-36 59-48 65q-43 54-82 97 0 3-2 11t-2 16 8 15 18 6 24-8 22-17q24-25 30-25t6 18v4q0 10-4 14-20 26-46 38t-48 12-35-14-12-38q0-48 25-112t58-110q72-102 110-102m-11 41q0-4-3-4-8 0-44 49t-53 78-31 73q29-34 80-107t51-89" />
</svg>