<svg id="fnt-Yeon Sung" viewBox="0 0 2050 1000" xmlns="http://www.w3.org/2000/svg"><path id="yeon-sung" class="f" d="M101 574v-72q-7-12-16-29t-18-32-18-32-16-24q-4-5-8-10t-7-9-5-7 0-6q2-4 9-4t14 2 15 7 12 7q7 7 15 18t17 25 17 25 13 22q3-6 12-18t18-25 19-24 16-20q7-8 17-14t19-8 17-3 11 4q1 2-1 5t-6 8-8 9-6 7q-7 11-19 27t-23 33-23 35-18 29q0 7 0 21t-1 32-1 33-1 24q-1 9-3 20t-10 21q-3 4-8 8t-11 7-12 3-10-2q-3-2-3-6t1-8 3-8 2-6q3-19 4-38t1-27m259 98q-26 0-45-12t-31-29-17-39-1-43q3-23 12-42t25-32 35-20 44-5q20 2 33 11t22 20 13 23 5 18q5 4 8 10t4 9q-2 8-21 12-7 1-25 3t-38 4-39 3-30 1q-1 9 0 21t6 23 15 18 27 8q11 1 24-1t18-5q19-6 27-10t12 0q3 3-1 13t-18 23q-15 11-33 15t-31 3m51-151q-1-8-6-16t-11-13-15-9-19-1q-9 2-17 7t-12 13-9 16-5 17q27-4 49-8t45-6m70 43q0-24 8-45t25-38 38-27 49-9q22 0 40 9t31 26 20 36 8 43q0 22-9 44t-23 40-36 28-46 11q-24 0-44-9t-33-25-21-37-7-47m119-76q-17 0-31 6t-24 17-17 25-5 30q0 13 4 25t14 24 20 17 27 6 28-7 23-19 15-26 6-30q0-12-4-24t-12-22-19-16-25-6m187-1v1q3-5 9-9t12-7 15-5 13-1q41 0 61 26t21 81q0 13-1 26t-2 26 1 27 7 25q1 3 3 7t3 7 2 7-3 5q-2 2-6 1t-8-1-9-3-6-3q-9-6-15-17t-7-25-3-28-1-28q0-16-1-31t-6-26-13-20-21-9q-10-1-22 1t-21 13q0 27-1 54t-1 56q-1 15-4 27t-9 21-12 15-12 5q-4 0-5-10t-1-23 1-27 1-21q0-30 0-63t-1-70q-7-4-13-11t-8-15q0-2 0-5t0-6 2-6 4-2 6 1 6 2q4 2 9 4t10 4 9 5 8 4q5 4 7 8t2 13m326-56q0-22 8-39t22-29 33-17 41-5q24 1 42 8t29 18q4 3 8 9t7 11 3 12-4 8q-3 3-8 3t-10-2-9-3-7-4q-11-9-25-14t-26-6q-15 0-26 3t-20 9-11 14-4 16q0 14 11 24t24 16q14 6 29 12t30 14 29 17 23 20 17 27 6 35q0 16-7 31t-20 28-32 21-42 8q-18 1-37-3t-35-13-28-24-14-34q-1-8 0-14t5-12 6-7 8-3 7 4 6 8 4 10 3 6q5 12 13 20t18 13 21 7 19 2q11-1 22-4t18-10 13-16 5-20q0-13-10-25t-25-23-32-19-34-15q-28-11-46-30t-18-43m303 91v27q0 16 0 30t5 25 11 19 21 9q9 1 18-1t17-6q2 0 7-3t11-4l7-2v-151q-7-4-12-11t-7-15q-1-2-1-5t1-6 1-6 4-2 6 1 7 2q7 3 17 8t18 9q4 4 6 8t3 13v170q0 7 1 13t5 12q3 7 5 13t-1 8q-1 2-5 2t-8-1-9-2-7-3q-12-6-19-17-1-2-2-4t-1-3l-7 6q-10 10-26 17t-34 7q-34 0-55-25t-22-79q0-11 0-25t0-27-1-28-5-25q-1-3-3-7t-3-7-1-7 3-5q2-2 6-2t8 2 9 3 6 3q8 5 13 12t8 18 4 20 1 22m250-35v1q3-5 8-9t13-7 14-5 14-1q40 0 61 26t21 81q0 13-2 26t-1 26 1 27 6 25q2 3 3 7t4 7 1 7-2 5q-2 2-6 1t-9-1-9-3-6-3q-9-6-14-17t-8-25-3-28 0-28q0-16-2-31t-6-26-13-20-21-9q-9-1-22 1t-21 13q0 27 0 54t-2 56q0 15-4 27t-9 21-11 15-13 5q-4 0-5-10t-1-23 1-27 1-21q0-30 1-63t-2-70q-7-4-13-11t-7-15q-1-2-1-5t1-6 1-6 4-2 6 1 7 2q3 2 8 4t10 4 10 5 8 4q4 4 6 8t3 13m299 196l-78-17q-15-3-23-8t-12-11-4-11-1-6q0-7 4-15t9-13 11-12 12-7q-15-11-25-26t-10-29q0-11 5-25t15-25 29-19 44-9q10 0 19 3t18 9q6-12 18-21t29-13q3-1 10-2t9 2 2 6 0 10-2 9-2 6q-3 2-8 5t-12 7-13 5-12 4q9 9 12 22t3 25q-1 15-8 28t-17 22-26 15-33 5q-6 0-8-1-7 0-14 3t-12 8-8 9-3 8q0 5 7 8t15 4l71 10q22 3 36 10t23 18 11 20 3 20q0 18-7 33t-20 27-33 17-49 7-48-7-30-18-17-21-4-21q-1-11 4-23t11-19q5-6 10-10t9-2 2 7-2 14q-1 6-2 11t3 14q0 2 2 7t9 11 19 9 34 5q24 0 37-5t21-11 9-13 2-12q0-8-9-17t-35-14m-42-116q22-2 35-14t13-27q0-17-12-27t-32-9q-7 0-14 1t-14 5-11 10-4 16q-1 7 3 11t9 9q11 7 19 13t8 12" />
</svg>