<svg id="fnt-Yesteryear" viewBox="0 0 1772 1000" xmlns="http://www.w3.org/2000/svg"><path id="yesteryear" class="f" d="M144 912q-8-8-14-15t-14-14-13-14-15-15q10-30 22-61t26-64 32-72 41-82q-11 16-21 29t-17 21q-8 9-15 17-19 18-34 31t-25 21-20 12-15 5q-6 0-11-4t-12-9-10-11-8-10q-7-8-7-21t-1-30q0-28 5-59t13-62 21-62 28-59 34-54 37-44q5 5 12 12t13 14 13 15 10 12q-20 19-38 43t-34 50-27 56-20 58-13 59-4 57q27-13 49-33t42-42 34-49 28-51 23-51 18-47 14-41 11-30q3 3 7 9t9 11 10 13 9 12 7 9 5 6q-13 30-26 61t-26 65-27 73-30 89-35 110-41 136m318-317l12 12q-23 22-42 36t-38 24-35 13-32 4q-7 0-15-5t-15-11-11-15-5-13q0-20 5-37t15-30 21-24 24-17 25-10 23-3q7 0 15 4t13 11 10 13 4 12q0 9-7 17t-20 18-30 18-39 19q-1 6-1 12 0 7 3 10t12 3q17 0 31-6t27-14 26-19 24-22m-74-49q-5 0-11 5t-12 14-11 19-9 23q9-6 18-12t15-14 11-15 4-15q0-2-1-4t-4-1m69 53q6-5 13-12t14-15 14-17 10-20q1-6 3-12t5-11 5-9 4-3q3 1 9 6t11 10 11 10 4 6q-3 11-3 20t2 18 3 18 1 23q0 8-2 18t-9 18q12-7 25-16t21-17q12-10 22-19l11 12q-8 7-18 16t-19 17-21 15-21 14-19 9-18 4q-7 0-16-4t-16-8-13-10-7-9q0-1 1-3t3-3 2-3 2-1q2 0 6 2t15 2q6 0 10-3t6-8 4-11 1-13q0-10-1-20t-2-19q-4 5-9 10t-11 11-11 10-10 9l-12-12m186 81q-4 0-11-4t-13-9-11-11-4-10q0-8 4-24t10-36 15-43 17-46h-34 0q-1 0-1 0 0-2 2-5t2-5 4-6 4-3l32-2q7-16 13-30t11-24q1-3 2-6t4-6 7-7 12-6q5-3 13-6t15-6 14-5 8-1q3 0 3 1v0q0 0-1 1-1 3-5 11t-10 20-12 28-15 34l59-2q2 0 1 3t-3 6-7 8-6 7q0 0-2 1t-3 0h-49q-8 21-16 43t-15 41-10 36-4 27q0 2 2 2 2 0 8-3t12-8 14-11 15-12 12-10 8-7q3 2 6 5t5 7q-5 5-13 13t-18 15-19 17-20 14-18 10-14 4m248-85l12 12q-22 22-42 36t-38 24-35 13-32 4q-6 0-14-5t-15-11-12-15-5-13q0-20 6-37t14-30 21-24 24-17 25-10 23-3q8 0 15 4t14 11 10 13 3 12q0 9-6 17t-20 18-31 18-39 19q-1 6-1 12 0 7 4 10t12 3q16 0 30-6t28-14 25-19 24-22m-74-49q-4 0-10 5t-12 14-11 19-10 23q9-6 18-12t16-14 11-15 4-15q0-2-2-4t-4-1m185 20q-3 9-8 21t-9 24-8 21-3 14q0 2 2 2 3 0 8-4t12-8 15-11 14-12 13-11 8-7q3 2 6 5t5 7q-5 5-13 13t-18 15-19 17-20 14-18 10-14 4q-3 0-9-2t-11-7-8-8-4-9q4-17 7-29t7-21 6-14 3-8q-3-1-5-3t-6-2q-4 4-8 8t-10 10-10 9-9 8l-11-12q6-6 15-15t17-17q-6-4-11-7t-8-6q-4-3-7-6-2-1-2-3 0-3 2-8t6-10 7-12 7-11 6-8 3-3q0 0 3 1t6 3 6 4 3 3q1 1 1 5t0 10q10 5 20 11t18 12q10 6 19 13 3 2 4 4t0 6m241 28l11 12q-22 20-45 37t-47 34q-3 11-7 22t-11 26q-7 16-16 32t-19 29-21 24-21 20-20 13-18 4q-4 0-10-3t-10-7-9-10-4-9q0-16 9-31t22-29 35-30 42-32q7-19 14-39t13-40q-11 13-20 23t-18 17-15 11-9 7q-2 1-5 2t-5 0q-4 0-10-3t-10-7-8-9-4-10q0-5 4-17t9-29 14-38 18-44q0-2 1-1t1 0q5 0 13 3t15 7 14 7 5 5q0 1-3 8t-8 15-8 19-8 20-7 17-2 12q0 1 1 1 2 0 7-5t15-14 19-24 23-35q5-17 8-26t4-10q1 0 7 4t13 9 13 10 5 7q0 1 0 2t-1 3q-6 17-10 30t-7 26-6 21-5 19q18-14 36-27t36-29m-216 226q5 0 13-8t16-22 19-29 16-32q-9 8-21 17t-21 20-17 24-7 27q0 3 2 3m371-225l12 12q-22 22-42 36t-38 24-34 13-33 4q-6 0-14-5t-15-11-12-15-4-13q0-20 5-37t15-30 20-24 24-17 25-10 23-3q8 0 15 4t14 11 10 13 4 12q0 9-7 17t-20 18-31 18-39 19q-1 6-1 12 0 7 4 10t12 3q16 0 30-6t28-14 25-19 24-22m-74-49q-4 0-10 5t-12 14-11 19-10 23q10-6 18-12t16-14 11-15 4-15q0-2-2-4t-4-1m212 99q0 2 1 2 3 0 8-4t11-8 14-11 15-12 12-10 8-8q3 2 6 6t6 7q-6 5-14 13t-18 16-19 16-20 15-18 10-15 4q-4 0-9-2t-10-4-7-8-3-9q0-2 0-5t0-7 2-11 4-16q-8 9-18 18t-23 17-24 15-23 11q-1 0-2 0t-1 0q-3 0-7-2t-7-7-7-9-3-10q0-2 1-10t7-21 17-29 29-33q9-8 20-16 10-6 22-13t25-10q0 0 1-1t1 1q3 1 7 3t8 4 7 5 4 4q0 0 0 0l-1 1q-11 6-20 13t-18 13q-8 8-16 15-18 18-25 31t-6 18q0 4 3 4t9-3 11-7 15-11 16-14q8-6 15-13 6-6 13-14t11-15q0 0 0 0t1 0q3 2 6 6t6 10 5 10 3 8q-6 12-9 21t-5 16-2 12 0 8m180-79q-4 9-8 21t-10 24-7 21-3 14q0 2 1 2 3 0 9-4t12-8 14-11 15-12 12-11 9-7q2 2 5 5t6 7q-5 5-13 13t-18 15-19 17-20 14-18 10-14 4q-4 0-9-2t-11-7-9-8-4-9q4-17 8-29t7-21 5-14 4-8q-3-1-6-3t-5-2q-4 4-9 8t-9 10-10 9-9 8l-12-12q7-6 16-15t17-17q-6-4-11-7t-8-6q-4-3-8-6-1-1-1-3 0-3 2-8t5-10 7-12 7-11 6-8 3-3q1 0 4 1t6 3 6 4 3 3q0 1 1 5t0 10q10 5 20 11t18 12q10 6 18 13 4 2 4 4t1 6" />
</svg>