<svg id="fnt-Yomogi" viewBox="0 0 1405 1000" xmlns="http://www.w3.org/2000/svg"><path id="yomogi" class="f" d="M229 325q-30 90-96 198l0 123q-1 17-11 16-10 0-10-16v-125q-69-114-95-194-4-15 7-20 10-4 14 9 24 76 83 175 60-90 87-177 5-13 16-10 10 4 5 21m157 102q29-1 52 18 24 19 35 54 11 35 2 76-9 42-39 68-31 26-70 21-40-4-63-28-23-23-30-62-7-37 6-76 12-38 41-56 28-19 66-15m7 20q-39-3-62 13-24 15-33 47-10 32-5 62 2 16 8 28t15 23q17 19 50 22 32 3 59-18 25-21 31-55t-3-64-26-42q-7-5-16-10t-18-6m147-18l0 64q5-24 17-38 13-12 30-12 9 1 15 4t12 11q10 15 15 45 2-13 6-25t11-19q13-17 38-14 27 3 40 38 15 36 9 173 0 11-11 12-11 0-10-18 5-103-6-141-12-39-28-40-16-1-26 30-6 16-10 55t-4 103q-12 21-22-3-1-56-2-93t-5-55q-6-37-24-37-18 0-29 39-12 40-13 82-1 21-2 37t0 29q-11 22-22 4l-1-227q1-17 11-17 11 1 11 13m346-2q29-1 52 18 24 19 35 54 11 35 2 76-9 42-39 68-31 26-70 21-40-4-63-28-23-23-30-62-7-37 6-76 12-38 41-56 28-19 66-15m7 20q-39-3-62 13-24 15-33 47-10 32-5 62 2 16 8 28t15 23q17 19 50 22 32 3 59-18 25-21 31-55t-3-64-26-42q-7-5-16-10t-18-6m297 12q1-14 9-15 8 0 10 13 2 53 1 98t-5 83q-10 77-59 91-50 13-86-25-9-12-3-19t16 3q29 31 68 19t43-92q-16 14-34 20-20 5-43 2-24-3-45-23-21-22-26-58-5-36 11-69 16-33 42-43 27-12 52-8 26 4 49 23m-11 33q-12-23-25-30-12-5-27-6-15 0-32 9-16 9-28 34-12 25-8 53 4 29 18 43 15 17 37 20 20 3 39-6 18-9 24-23 7-14 10-43 2-27-8-51m209-112q-17 12-35 0t-17-31 15-28q14-10 32-3 18 7 21 28 2 22-16 34m-10 60l2 214q-4 16-16 15-12-1-10-15l-2-214q1-16 13-16 12 1 13 16" />
</svg>