<svg id="fnt-Young Serif" viewBox="0 0 2977 1000" xmlns="http://www.w3.org/2000/svg"><path id="young-serif" class="f" d="M260 292h125q7 0 7 7v15q0 8-7 8-17 0-33 11t-30 37l-77 130q-2 4-2 10v79q0 20 7 34t26 14h4q7 0 7 7v15q0 8-7 8h-154q-8 0-8-8v-15q0-7 8-7h3q19 0 26-14t8-34v-77q0-4-3-9l-90-133q-17-25-29-37t-28-11q-8 0-8-8v-15q0-7 8-7h173q8 0 8 7v15q0 8-8 8-13 0-24 5t-11 18q0 11 9 25l58 93 54-93q11-20 11-32 0-16-23-16-7 0-7-8v-15q0-7 7-7m208 118q28 0 52 11t42 31 27 43 10 49q0 37-17 66t-46 46-62 17q-29 0-53-11t-42-30-27-43-10-50q0-37 17-66t46-46 63-17m21 223q10 0 21-5t20-18 9-34q0-18-7-39t-18-41-28-33-34-12q-20 0-35 15t-15 42q0 17 6 38t19 41 28 33 34 13m400-209v142q0 13 1 25t8 22 20 10q4 1 5 2t1 5v16q0 7-7 7-25 0-41 3t-28 7-23 9q-2 1-4 1h-1q-1 0-1-1t1-16 7-47q-7 14-20 29t-30 25-41 10q-27 0-44-8t-25-22-13-31-3-35v-83q0-20-9-34t-28-13h-2q-7 0-7-8v-15q0-7 7-7h102q7 0 7 7v156q0 13 3 24t10 18 23 7q13 0 25-6t22-16 14-20v-93q0-20-9-34t-27-13h-1q-8 0-8-8v-15q0-7 8-7h100q8 0 8 7m335 80v85q0 28 9 38t23 10h4q8 0 8 7v15q0 8-8 8h-133q-7 0-7-8v-15q0-7 7-7h4q10 0 17-10t6-38v-85q0-24-7-37t-29-13q-12 0-25 6t-22 16-14 21v92q0 20 9 34t23 14h1q8 0 8 7v15q0 8-8 8h-140q-8 0-8-8v-15q0-7 8-7h1q18 0 27-14t9-34v-63q0-13-2-26t-8-21-20-10q-5-1-5-7v-17q0-5 7-6 36-6 61-17t36-19q3-2 4-2h1q1 0 1 1t-1 4l-8 62q7-12 18-25t29-23 39-10q27 0 44 8t26 22 12 30 3 34m268-94l36-8q2-1 4-1 3 0 3 8 0 24-10 38t-26 13q12 20 12 46 0 27-13 48t-38 35-59 13q-35 0-60-14-7 5-7 12t6 13 21 8 46 5q22 1 43 5t37 11 26 22 10 36q0 21-11 35t-29 23-40 12-44 4q-31 0-57-6t-41-20-16-35q0-16 9-28t21-19q-25-16-25-45 0-17 8-29t23-18q-30-27-30-68 0-26 13-48t38-35 59-13q21 0 38 5t31 15q3 1 4 1t3 1q4 0 7-3t2-10v-2q0-6 6-7m-91 30q-19 0-30 11t-15 25-4 30 4 30 15 26 30 10 29-10 13-26 4-30-4-30-13-25-29-11m-2 300q37 0 57-7t20-19q0-16-21-21t-59-7q-27-2-47-6-14 9-14 26 0 8 6 15t19 13 39 6m589-344l-17 9q-2 1-3 1t-3 1q-4 0-9-6-32-40-63-57t-64-18q-20 0-34 11t-14 33q0 18 11 30t30 20 37 13q29 8 56 18t51 24 36 33 13 48q0 34-17 61t-50 41-78 15q-23 0-43-6t-38-14q-4-2-7-2-5 0-5 5 0 1 1 5 2 4 2 6 0 6-9 6h-25q-9 0-12-7l-61-114q-2-4-2-6 0-5 6-8l22-13q1-1 3-1t3-1q5 0 8 6 34 52 75 77t85 25q32 0 50-15t17-37q0-22-11-35t-34-21-59-19q-24-7-48-17t-44-24-31-34-12-47q0-33 17-54t45-32 65-10q28 0 47 7t30 13q9 5 12 5 2 0 2-3 0-3-1-7t-1-10q0-7 9-7h18q9 0 12 8l35 90q1 2 2 3t0 4q0 4-5 7m270 118l-145 63q8 21 27 38t48 16q16 0 33-9t31-28q1-2 4-2t5 1 15 9q2 1 2 4 0 3-3 8-14 26-38 43t-63 16q-41 0-71-18t-47-49-16-67q0-34 10-59t28-40 38-23 43-7q25 0 44 10t32 25 20 31 7 32q0 4-4 6m-151 32l80-40q0-24-11-40t-29-15q-21 0-33 16t-12 41q0 7 1 18t4 20m291-77q14-29 38-44t50-15q24 0 40 13t17 39q0 11-2 19t-11 13l-47 19q-3 1-5 1-4 0-4-5 0-1 1-4 3-7 3-14t1-11q0-14-7-20t-16-6q-12 0-22 7t-17 17-11 19v92q0 20 9 34t27 14h1q8 0 8 7v15q0 8-8 8h-145q-8 0-8-8v-15q0-7 8-7h1q18 0 27-14t9-34v-63q0-13-2-26t-7-21-20-10q-6-1-6-7v-17q0-5 7-6 36-6 62-18t37-19q1-1 2-1h1q1 0 1 1 0 1-1 8t-3 17-4 22-4 20m307 168h1q8 0 8 7v15q0 8-9 8h-141q-9 0-9-8v-15q0-7 8-7h1q18 0 27-14t9-34v-53q0-11-2-23t-8-20-20-10q-6 0-6-6v-17q0-3 2-5t6-2q39-13 60-27t32-24q1-1 2-1h1q1 0 1 1v187q0 20 9 34t28 14m-70-340q13 0 25 12t13 25-13 25-25 13q-12 0-25-13-13-12-13-25 0-12 13-25t25-12m149 120v-4q0-23 6-48t18-48 34-36 55-14q40 0 59 15t20 38q0 13-5 25-2 3-5 6t-8 3q-9 2-21 5t-22 5-11 2q-3 0-3-5 0-2 1-5 10-19 10-33t-8-22-16-7q-12 0-21 11-9 11-13 31t-3 48v33h67q8 0 8 7v22q0 7-8 7h-67v136q0 20 9 34t28 14q8 0 8 7v15q0 8-8 8h-141q-7 0-7-8v-15q0-7 7-7 19 0 28-14t9-34v-85q0-14-2-27t-9-22-26-8q-7 0-7-8v-15q0-7 7-7h37" />
</svg>