<svg id="fnt-Ysabeau Office" viewBox="0 0 3134 1000" xmlns="http://www.w3.org/2000/svg"><path id="ysabeau-office" class="f" d="M171 521l-24 22-133-205h45l112 183m6 146h-38v-147h38v147m126-329l-133 203-20-20 113-183h40m104 333q-15 0-29-3t-24-7-19-10l10-28q12 11 29 18t35 7q20 0 32-11t12-24q0-12-8-20t-20-13-26-10-26-11-20-18-8-27q0-20 10-33t26-19 36-7q15 0 31 4t27 11l-10 27q-9-10-24-15t-26-4q-18 0-29 8t-10 21q0 12 8 19t20 12 26 10 26 12 21 18 8 29q0 13-6 24t-15 21-24 14-33 5m284-1q-19 0-30-14t-11-40l2-94q1-16-3-26t-11-14-17-5q-10 0-22 5t-21 16-11 27l-33-4q3-14 11-26t22-21 28-14 32-4q30 0 44 16t14 46l-1 105q0 11 3 17t11 6q6 0 11-3t10-7l11 16q-6 8-17 13t-22 5m-111 0q-22 0-36-13t-14-33q0-12 5-23t17-19 34-14l83-22 3 18-77 24q-19 6-26 14t-6 17q0 12 9 18t20 7q15 0 33-10t40-25l6 12q-22 20-44 34t-47 15m277 0q-25 0-49-7t-34-19l33-18q10 10 26 15t34 6q23 0 39-11t24-29 8-41q0-26-8-45t-24-28-35-10q-19 0-39 11t-33 37l-12-16q11-18 26-31t32-20 38-7q20 0 36 6t29 20 20 31 7 42q0 30-14 56t-39 42-65 16m-50-44l-33 18v-330l33-6v318m312 45q-29 0-52-12t-35-35-13-54q0-34 14-60t39-40 55-14q37 0 55 21t19 57q0 4-1 9t0 9h-30v-18q0-27-11-41t-34-13q-22 0-39 10t-25 30-9 46q0 36 20 57t54 21q17 0 32-6t30-19l13 18q-14 13-28 20t-27 11-27 3m76-119h-157l5-22h152v22m214 118q-19 0-30-14t-10-40l2-94q0-16-4-26t-10-14-17-5q-11 0-23 5t-21 16-10 27l-33-4q2-14 11-26t21-21 29-14 31-4q30 0 44 16t14 46l-1 105q0 11 4 17t11 6q5 0 11-3t9-7l12 16q-7 8-17 13t-23 5m-110 0q-23 0-37-13t-14-33q0-12 5-23t17-19 35-14l83-22 2 18-77 24q-19 6-25 14t-6 17q0 12 8 18t21 7q15 0 33-10t40-25l5 12q-21 20-44 34t-46 15m261-1q-31 0-51-21t-19-57v-128l34-6v123q0 30 13 47t37 17q13 0 27-6t25-16 21-29l12 12q-11 22-27 36t-35 21-37 7m113-5l-29 6-6-51v-156l35-6v207m357 7q-48 0-86-21t-59-60-22-86q0-38 13-70t37-54 55-35 68-12q48 0 85 22t59 59 22 87q0 38-14 69t-36 54-55 35-67 12m6-27q38 0 66-17t44-49 16-72q0-44-17-77t-48-51-68-18q-37 0-65 18t-44 48-16 72q0 44 17 77t48 51 67 18m285 23h-34v-214q0-47 15-79t40-47 61-16q15 0 29 4t26 12l-14 26q-11-8-24-13t-28-4q-23 0-37 10t-21 27-10 35-3 36v223m80-179l-156 0 2-23 157-2-3 25m95 179h-34v-214q0-47 14-79t41-47 60-16q16 0 30 4t26 12l-15 26q-10-8-24-13t-27-4q-23 0-37 10t-22 27-10 35-2 36v223m80-179l-157 0 3-23 156-2-2 25m85 179h-34v-205l34-5v210m-17-268q-10 0-17-7t-7-17 7-17 17-6q11 0 18 6t6 17-6 17-18 7m191 272q-30 0-54-14t-37-37-14-54q0-32 15-57t39-39 57-15q21 0 38 7t31 19l-15 27q-12-13-27-20t-31-7q-22 0-38 11t-24 29-8 42q0 24 10 43t27 28 40 10q16 0 31-6t27-18l11 20q-11 11-24 18t-27 10-27 3m216 0q-29 0-52-12t-35-35-13-54q0-34 14-60t39-40 55-14q37 0 55 21t19 57q0 4-1 9t0 9h-30v-18q0-27-11-41t-34-13q-22 0-39 10t-25 30-9 46q0 36 20 57t54 21q17 0 32-6t30-19l13 18q-14 13-28 20t-27 11-27 3m76-119h-157l5-22h152v22" />
</svg>