<svg id="fnt-Ysabeau Infant" viewBox="0 0 3214 1000" xmlns="http://www.w3.org/2000/svg"><path id="ysabeau-infant" class="f" d="M171 521l-24 22-133-205h45l112 183m6 146h-38v-147h38v147m126-329l-133 203-20-20 113-183h40m104 333q-15 0-29-3t-24-7-19-10l10-28q12 11 29 18t35 7q20 0 32-11t12-24q0-12-8-20t-20-13-26-10-26-11-20-18-8-27q0-20 10-33t26-19 36-7q15 0 31 4t27 11l-10 27q-9-10-24-15t-26-4q-18 0-29 8t-10 21q0 12 8 19t20 12 26 10 26 12 21 18 8 29q0 13-6 24t-15 21-24 14-33 5m215-1q-29 0-50-14t-34-36-12-52q0-32 14-57t39-40 54-15q18 0 32 6t27 17 18 28l-9 16q-10-21-27-31t-37-11q-21 0-38 11t-27 29-9 44q0 23 8 41t23 29 36 10q19 0 37-10t33-33l14 8q-11 20-25 33t-31 20-36 7m109-6l-28 6-6-47v-117l6-43 28-6v207m163 6q-25 0-48-7t-35-19l34-18q10 10 26 15t33 6q24 0 40-11t24-29 8-41q0-26-9-45t-23-28-36-10q-18 0-38 11t-34 37l-12-16q12-18 26-31t33-20 38-7q19 0 36 6t29 20 19 31 7 42q0 30-13 56t-40 42-65 16m-49-44l-34 18v-330l34-6v318m312 45q-30 0-52-12t-36-35-12-54q0-34 14-60t38-40 55-14q37 0 56 21t18 57q0 4 0 9t-1 9h-29v-18q0-27-11-41t-35-13q-22 0-38 10t-26 30-9 46q0 36 21 57t53 21q17 0 33-6t30-19l12 18q-13 13-27 20t-27 11-27 3m76-119h-157l4-22h153v22m145 118q-29 0-50-14t-34-36-12-52q0-32 14-57t39-40 54-15q18 0 32 6t27 17 18 28l-9 16q-10-21-27-31t-37-11q-21 0-38 11t-27 29-9 44q0 23 8 41t23 29 36 10q19 0 37-10t33-33l14 8q-11 20-25 33t-31 20-36 7m109-6l-28 6-6-47v-117l6-43 28-6v207m148 5q-31 0-51-21t-19-57v-128l34-6v123q0 30 13 47t37 17q13 0 27-6t25-16 21-29l12 12q-11 22-27 36t-35 21-37 7m113-5l-29 6-6-51v-156l35-6v207m258 3h-38v-329h38v329m284 0h-34v-120q0-31-13-48t-39-16q-13 0-27 5t-27 16-22 29l-11-12q11-22 28-37t36-21 37-6q22 0 38 9t25 27 9 42v132m-153 0h-34v-204l28-6 6 49v161m283 0h-34v-214q0-47 15-79t40-47 61-16q15 0 29 4t26 12l-14 26q-11-8-24-13t-28-4q-23 0-37 10t-21 27-10 35-3 36v223m80-179l-156 0 2-23 157-2-3 25m121 182q-29 0-51-14t-33-36-12-52q0-32 14-57t38-40 54-15q18 0 33 6t26 17 19 28l-10 16q-10-21-26-31t-37-11q-22 0-39 11t-26 29-10 44q0 23 8 41t24 29 36 10q18 0 37-10t32-33l14 8q-11 20-25 33t-30 20-36 7m109-6l-29 6-5-47v-117l5-43 29-6v207m264 3h-34v-120q0-31-13-48t-39-16q-13 0-27 5t-27 16-22 29l-11-12q11-22 28-37t36-21 37-6q22 0 38 9t25 27 9 42v132m-153 0h-34v-204l28-6 6 49v161m309 3q-18 0-32-7t-23-22-8-34v-137l12-54 23-5v190q0 22 10 33t27 11q11 0 22-4t22-13l10 17q-14 13-31 19t-32 6m53-207l-1 25-157 0 3-23 155-2" />
</svg>