<svg id="fnt-Yuji Hentaigana Akebono" viewBox="0 0 7595 1000" xmlns="http://www.w3.org/2000/svg"><path id="yuji-hentaigana-akebono" class="f" d="M243 752q-53 0-75-45-2-5-3-15t2-20 9-17 15-4q9 2 9 10t-1 16q-1 5-2 11t1 10q4 18 18 25t31 4 33-12 22-26q8-16 11-37t6-42q2-13 3-26t5-25q-10 4-21 15t-18 15q-20 13-43 18t-47 4-41-13-28-32-7-51q1-15 4-30t9-30q2-8 4-16t4-17q1-2 1-5t2-4q3-14 6-30t3-29-6-23q-10-14-27-16t-33 5q-12 5-22 15t-18 25-10 29 2 28q4 13 12 19t20 12q5 3 12 7t13 8q-6 13-20 15t-27-6-27-22q-13-18-15-40t7-44 23-40q16-19 36-30t42-11 45 18q19 15 22 37t-3 49-14 52l0 1q-5 17-10 34t-6 31q-5 41 14 62t57 16q42-5 73-33t45-73q8-24 11-49t8-50q2-20 5-41t8-42q2-9 11-11t10 2q8 17 5 37t-7 41v1q-1 7-3 15t-2 16q-4 22-7 44t-8 42q-4 27-9 55t-9 59q-5 28-10 55t-15 50-31 36-54 13m337-63q-24-1-46-13t-35-35-14-56q0-19 2-38t7-38q0-1 0-2 4-22 6-42t0-38q-2-16-7-21t-17-3q0 0-1 0-4 1-10 0t-8-5q-4-5-2-12t8-7q15-6 29-3t25 15 12 27q3 19 0 42t-7 46v1q0 1 0 2-4 24-7 47t0 44 13 37q12 16 29 21t36 4 37-12 29-24q11-13 22-34t14-39q1-5 1-11t-1-13v0q0-5 0-10t0-9q0-8 1-17t1-19q1-7 1-14t1-13q1-4 1-7t0-7q0-1 0-3 0-5 0-14t1-19 6-15 13-4q9 2 10 21t-2 61q-1 3-1 6t0 6q0 8-1 15t-1 15q-1 11-2 20t0 19q0 26 1 53t8 45 17 23q1 1 2 1t5 1h3q6 0 13 1t8 11q0 10-7 12t-17 2-19-5-11-6q-12-8-18-26t-10-34q-5 4-8 8t-6 10q-8 11-12 15-19 19-43 28t-49 9m403-27q-15 15-37 22t-43 4-42-11-32-25-14-39q-2-34 21-63 16-21 27-27t26-1q2 10-1 16t-14 13q-7 5-10 7-22 25-20 53 1 27 21 41t56 9q23-2 36-15t21-33 10-45 4-53 4-54 9-48q-8-3-21-3t-29 1h-1-13q-2 0-5 0t-4 0q-4 0-8 0t-8 0q-62-3-36-48l3-1q15-3 17 14 0 3 1 4t1 3q21 1 52 1t62 0q19 0 32 0t17 0h4q20-1 29 1t10 9q2 9-5 12t-17 4-20 0h-1q-21-2-27 0-11 23-14 51t-4 60q-1 28-4 54t-9 48-24 39m245 9q-16 12-33 12t-31-7-27-21-17-26q-7-18-8-30t6-18l1-1q11 0 16 5t8 21q1 4 2 7t2 5q4 11 12 20t19 15 21 3 19-13q-14-13-25-35t-17-50-7-57 2-57 14-51 26-37q14-13 26-13t21 9 17 22 11 29 5 30q2 33-1 69t-11 70-21 60-30 39m4-53q13-21 20-51t11-63 1-69q0-6-3-18t-6-23-8-18-12-2q-17 10-27 33t-12 54 1 60 13 56 22 41m267 65q-3-12 2-20t12-14q1 0 1-1 7-7 10-12 20-33 30-74t16-89q-6-4-15-5t-19 0q-12 0-25-2t-20-11q-7-9-6-18t6-15 11-7 11 4 5 21q12 3 26 3t26-2q4-47-6-79t-30-36q-4-2-13 0-16 2-26-4-4-12 2-17t16-7 21 0 14 2q18 6 28 21t16 35 8 42 4 41q22 3 49 4t53 0 53-2q4 0 7 0t7 0q7-46 15-77t24-49 42-25q13 5 13 11t-6 13-14 13l0 0q-23 19-31 47t-12 63q4 5 12 6t25 0q13-1 25-1t13 11q2 9-4 12t-17 4-20 0q-2 0-3 0-9-1-17-1t-12 1q-3 34 1 71t10 72q1 5 1 10t2 11q1 2 1 3t0 5q4 21 2 31t-12 11q-7 0-12-7t-7-25-7-50q-1-9-3-27t-5-37-3-38-2-27q-22-3-49-4t-54 0-52 2q-4 0-7 0t-6 0q-7 31-14 64t-18 63-26 56q-9 15-16 23t-14 9-17-2m574-6q-31-1-60-12t-47-32-21-51q-4-48 43-83 0 0-1-1t-1-1q-2-1-4-3t-5-4q-12-8-22-19t-12-29q-2-22 11-41t37-30 54-13q24-1 48 4t45 15 33 23q5 5 9 14t6 19-2 18-18 10h-2q-6-5-8-9t1-11q2-7 1-10-2-10-13-19t-28-14-34-10-30-3q-17 0-35 6t-32 16-16 23 9 28q11 12 34 20t53 11q3 0 7-1t7 0q21-4 31 5l0 2q-2 15-13 19t-41 0q0 0-1 0-5-1-10-2t-9 0q-27 1-46 18t-19 42q-1 27 13 45t38 25 51 9q33 1 62-10t44-29q0-1 1-3t3-7q7-14 11-20t10-5q11-1 13 8t-6 26q-8 16-19 27-20 20-52 30t-68 9m202 45q-23 8-37 6t-16-12q-1-13 38-18 11-2 21-8t14-15q9-14 12-36t2-48-2-53q0-3 0-5-3-39-3-77t10-62q16-40 43-28 4 8 3 12t-11 14q-4 4-7 7t-3 9q1 8 10 18t20 20q13 13 32 34t38 45 38 47 30 40q-2-111 17-183t57-102q11-9 21 1 1 4 1 6t-1 4q0 3-4 7t-10 13q-18 21-29 53t-17 71-7 80 2 81q1 2 1 4t1 5q2 18 1 26t-10 14q-8-1-13-5t-12-18q-1-3-3-5t-2-3q-29-48-71-102t-93-108q-6 21-5 48t3 56q2 27 2 53t-4 49-17 38q-2 2-8 7t-14 11-18 9m458-31q-20-1-35-11t-23-25-8-33 10-34q0 0 1-1 2-4 8-11t12-9 15 4q5 4 2 11t-11 19q-10 13-10 17-3 23 14 36t45 10q17-2 33-12t26-25q14-21 17-51t4-63q1-27 2-55t10-53q-5 0-10-1t-10 0q-5-1-10-1t-11 0q-1 0-3 0-26-2-54-3t-51 2-37 14-11 30q2 17 20 27t43 10q6-1 12-3t10-3q13-5 20-5t12 4l0 1q1 13-8 20t-21 9-19 4q-18 1-37-4t-33-15-21-23q-10-21-7-38t16-29 31-18 37-8q32-3 71-3t80 0 80 2q7 0 13 0t13 1q1 0 4 0 9 0 18 1t10 11q2 18-43 15-2-1-8-1t-13 0-10 0q-11-1-20-1t-14 1q-9 2-14 13t-6 24-3 25q0 8 0 16t-1 16q0 4 0 8t0 8q-1 37-5 71t-19 60q-8 12-23 24t-35 20-45 5m290-12q-8-2-10-11t-1-19 2-16q0-2 0-3 4-36 14-65t21-55q-4-1-7-2t-8 0q-12-2-25-5t-15-17q-2-11 2-19t12-7q7 0 10 5t4 14q2 1 6 1 10 2 20 3t18-2q6-3 17-18t25-30q19-22 57-47t87-41q4-2 10 0t10 7q0 13-2 26t-5 26q0 2-1 5t0 4q-3 16-5 35t-1 33q3 2 8 2t16-1q16-1 23 1t8 10q1 8-4 11t-13 4-16 0h-1-1q-6-1-12-1t-10 1q-4 23-3 51t7 59q1 4 2 8t2 9q5 18 6 27t-4 14l-1 1q-10 3-15-2t-8-13-4-16q0 0 0-1-1-2-1-4t0-4q-6-24-8-57t-1-68q-13-1-32-3t-40-1-40 0q-8 1-16 1t-15 0q-11 15-21 36t-16 47-9 50q0 3 0 10 0 6-1 13t-4 11-11 3m85-199q17 2 39 2t43 0 38-3q1-8 2-18t4-20q2-16 4-31t2-30q-42 15-75 42t-57 58m356 191q-16 12-33 12t-32-7-26-21-17-26q-8-18-9-30t6-18l1-1q12 0 16 5t9 21q1 4 1 7t2 5q5 11 13 20t18 15 21 3 19-13q-14-13-24-35t-17-50-8-57 2-57 14-51 26-37q14-13 26-13t22 9 16 22 11 29 5 30q3 33 0 69t-11 70-21 60-30 39m4-53q12-21 20-51t11-63 1-69q-1-6-3-18t-6-23-9-18-11-2q-18 10-27 33t-13 54 1 60 13 56 23 41m240 91q-10-1-20-5t-16-8q-12-11-16-24t1-25 20-14l1 0q5 5 5 10t1 12q0 0 0 1-1 3-1 6t1 5q4 11 16 15t30 1q19-5 29-21t14-38 7-45q0-3 0-6t1-5 1-6 1-6q-2 1-4 3t-3 5q-1 1-3 2t-1 2q-11 11-27 20t-35 14-38 2-36-15q-49-36-44-104 3-37 24-66t53-47q31-16 68-17t76 19q48 25 42 52l-6 3q-12 0-19-6t-12-12q-3-4-6-6t-5-5q-27-17-64-17-35 0-63 15t-45 42-16 60q0 38 21 59t57 20q17-1 33-10t28-22 22-28 12-27q2-8 2-15v-6q0-19 5-27t15-5q9 3 9 11t-1 16q0 3 0 4-1 13-3 27t-4 30q-1 8-2 15t-2 15q0 4-1 8t-1 8q-3 24-8 49t-15 46-29 33-49 8m209-30q-8-2-10-11t-1-19 2-16q0-2 0-3 4-36 14-65t21-55q-4-1-7-2t-8 0q-12-2-25-5t-15-17q-2-11 2-19t12-7q7 0 10 5t4 14q2 1 6 1 10 2 20 3t18-2q6-3 17-18t25-30q19-22 57-47t87-41q4-2 10 0t10 7q0 13-2 26t-5 26q0 2-1 5t0 4q-3 16-5 35t-1 33q3 2 8 2t16-1q16-1 23 1t8 10q1 8-4 11t-13 4-16 0h-1-1q-6-1-12-1t-10 1q-4 23-3 51t7 59q1 4 2 8t2 9q5 18 6 27t-4 14l-1 1q-10 3-15-2t-8-13-4-16q0 0 0-1-1-2-1-4t0-4q-6-24-8-57t-1-68q-13-1-32-3t-40-1-40 0q-8 1-16 1t-15 0q-11 15-21 36t-16 47-9 50q0 3 0 10 0 6-1 13t-4 11-11 3m85-199q17 2 39 2t43 0 38-3q1-8 2-18t4-20q2-16 4-31t2-30q-42 15-75 42t-57 58m259 242q-23 8-38 6t-15-12q-2-13 37-18 12-2 21-8t15-15q9-14 11-36t2-48-2-53q0-3 0-5-2-39-3-77t11-62q16-40 43-28 4 8 3 12t-11 14q-4 4-7 7t-3 9q0 8 10 18t19 20q14 13 32 34t38 45 38 47 30 40q-2-111 17-183t58-102q10-9 21 1 0 4 0 6t0 4q-1 3-4 7t-11 13q-17 21-29 53t-17 71-6 80 2 81q0 2 0 4t1 5q3 18 1 26t-9 14q-9-1-13-5t-12-18q-2-3-3-5t-2-3q-29-48-71-102t-94-108q-5 21-5 48t3 56q2 27 3 53t-4 49-18 38q-1 2-7 7t-15 11-17 9m375-43q-8-2-10-11t-1-19 2-16q0-2 0-3 4-36 14-65t21-55q-4-1-7-2t-8 0q-12-2-25-5t-15-17q-2-11 2-19t12-7q7 0 10 5t4 14q2 1 6 1 10 2 20 3t18-2q6-3 17-18t25-30q19-22 57-47t87-41q4-2 10 0t10 7q0 13-2 26t-5 26q0 2-1 5t0 4q-3 16-5 35t-1 33q3 2 8 2t16-1q16-1 23 1t8 10q1 8-4 11t-13 4-16 0h-1-1q-6-1-12-1t-10 1q-4 23-3 51t7 59q1 4 2 8t2 9q5 18 6 27t-4 14l-1 1q-10 3-15-2t-8-13-4-16q0 0 0-1-1-2-1-4t0-4q-6-24-8-57t-1-68q-13-1-32-3t-40-1-40 0q-8 1-16 1t-15 0q-11 15-21 36t-16 47-9 50q0 3 0 10 0 6-1 13t-4 11-11 3m85-199q17 2 39 2t43 0 38-3q1-8 2-18t4-20q2-16 4-31t2-30q-42 15-75 42t-57 58m417 203q-8-2-10-11t-2-20 3-19q0-4 0-6 5-44 17-79t26-68q-5-1-10-2t-10-1q-10-1-20-3t-17-6-10-15q-3-14 2-22t13-7q7 0 12 6t5 18q2 1 5 1 12 2 25 4t24-3q6-3 14-13t18-21q5-7 8-10t6-6q37-37 81-61t96-45q4-1 11 0t10 7q0 15-2 30t-5 32q-4 21-7 43t0 43q4 3 10 3t20 0q12-1 23-1t13 11q1 9-5 12t-15 4-19 0q0 0-1 0-8-1-16-1t-13 1q-9 57 5 135 1 5 2 10t3 11q6 22 6 32t-4 15q-11 4-18-2t-9-14-4-19q0 0 0-1-1-2-1-5t-1-4q-6-30-9-71t-1-82q-16-2-39-4t-49-1-49 0q-9 1-19 1t-18 0q-14 17-26 44t-20 58-10 61q0 3 0 6t0 6q0 8-1 15t-5 12-13 2m99-235q22 3 48 4t54 0 48-4q2-19 5-39 3-20 5-40t2-37q-54 19-94 49t-68 67m522 225q-15-9-22-24t-8-33-1-35q0-24-2-44t-15-29q-18-15-35-2-9 6-14 7t-11-1q-9-7-9-16t7-15 18-9q48-47 89-73t86-35q19 9 12 17t-33 15q-3 1-5 2-4 2-6 2-27 12-56 33t-49 42q8 3 17 9t18 17q12 15 14 37t1 42q0 18 1 34t7 26 22 13q10 2 24-2t30-10q14-6 21-6t15 8q-1 12-8 17t-22 10q-26 8-47 10t-39-7m-221 7l-1-1q-4-7-2-14t12-18q6-7 7-9 14-22 24-52t15-64 3-71q-2-17-6-32t-13-23-23-7q-9 2-14 0t-8-4h0q-3-11 3-17t18-7 22 2 21 12q14 13 21 35t7 49-3 54-9 52-13 41q-8 20-12 30t-8 17q-13 19-22 25t-19 2m499-3q-31-1-60-12t-47-32-21-51q-4-48 43-83 0 0-1-1t-1-1q-2-1-4-3t-5-4q-12-8-22-19t-12-29q-2-22 11-41t37-30 54-13q24-1 48 4t45 15 33 23q5 5 9 14t6 19-2 18-18 10h-2q-6-5-8-9t1-11q2-7 1-10-2-10-13-19t-28-14-34-10-30-3q-17 0-35 6t-32 16-16 23 9 28q11 12 34 20t53 11q3 0 7-1t7 0q21-4 31 5l0 2q-2 15-13 19t-41 0q0 0-1 0-5-1-10-2t-9 0q-27 1-46 18t-19 42q-1 27 13 45t38 25 51 9q33 1 62-10t44-29q0-1 1-3t3-7q7-14 11-20t10-5q11-1 13 8t-6 26q-8 16-19 27-20 20-52 30t-68 9m230-14q-1 0-3-1t-3 0q-10-1-16-4t-3-12q0-10 13-10t34 1q2 0 3 0t3 1q69 5 116-8t65-42q6-8 9-24t-2-29q-4-10-14-19t-22-14-24-5q-5 0-11 2t-11 4q-8 4-16 6t-19 2q-15-2-21-11t-3-21l1-1q9-8 23 2 1 1 3 2t5 2q18 1 32-8t23-24 7-31-18-28q-13-9-40-14t-52-4q-15 1-29 6t-23 12-11 16 10 20q0-1 0-2t1-3q0-5 2-10t11-4q8 0 11 10t1 32q0 5 0 7v121q0 3 0 6t0 6q1 23-2 32t-10 9q-10 0-13-19t0-57v-9q0-29 0-44t-1-24-1-17l-7-5q-8-6-16-13t-12-17-1-27q4-17 19-29t39-19 54-5q23 1 44 7t39 19 26 30 4 42q-1 6-4 14t-8 14q18 9 33 20t24 27 7 42q-2 14-10 29t-19 27-21 19q-15 10-37 16t-50 9-55 3-54-3m436 31q-30-2-55-16t-43-37-27-50q-14-38-10-81t28-78q4-7 14-18t21-20 25-14 24 5q0 0 2-1 10-5 18-9t21-6 29 0q39 4 67 28t42 62 11 85q-3 34-17 63t-36 48-52 31-62 8m-3-27q31 4 56-6t44-27 28-41 13-49q3-40-7-72t-33-52-53-24q-25-3-45 6t-29 28-6 40q3 11 12 22t21 18q2 1 3 1 2 1 4 1t4 2q7 2 15 6t10 16l-1 3q-16 14-51-7-8-5-18-14t-16-19q-9-17-10-38t9-45q-28 15-41 42t-14 61 11 63q11 33 35 57t59 28m233 55q-23 8-37 6t-16-12q-1-13 38-18 11-2 21-8t14-15q9-14 12-36t2-48-2-53q0-3 0-5-3-39-3-77t10-62q16-40 43-28 4 8 3 12t-11 14q-4 4-7 7t-3 9q1 8 10 18t20 20q13 13 32 34t38 45 38 47 30 40q-2-111 17-183t57-102q11-9 21 1 1 4 1 6t-1 4q0 3-4 7t-10 13q-18 21-29 53t-17 71-7 80 2 81q1 2 1 4t1 5q2 18 1 26t-10 14q-8-1-13-5t-12-18q-1-3-3-5t-2-3q-29-48-71-102t-93-108q-6 21-5 48t3 56q2 27 2 53t-4 49-17 38q-2 2-8 7t-14 11-18 9m493-28q-30-2-55-16t-42-37-28-50q-14-38-10-81t28-78q5-7 14-18t22-20 24-14 24 5q1 0 2-1 10-5 19-9t20-6 30 0q38 4 66 28t42 62 11 85q-2 34-16 63t-37 48-52 31-62 8m-3-27q32 4 57-6t43-27 29-41 12-49q4-40-7-72t-32-52-54-24q-24-3-44 6t-30 28-5 40q2 11 11 22t22 18q2 1 2 1 3 1 4 1t4 2q8 2 16 6t10 16l-2 3q-16 14-50-7-9-5-18-14t-16-19q-10-17-11-38t9-45q-27 15-41 42t-13 61 10 63q12 33 35 57t59 28" />
</svg>