<svg id="fnt-Yuji Syuku" viewBox="0 0 2782 1000" xmlns="http://www.w3.org/2000/svg"><path id="yuji-syuku" class="f" d="M344 358q-17 1-29 7t-20 16q-11 12-20 28t-17 31q-4 8-10 16-6 9-12 15t-12 15q-5 8-11 16t-12 13q2 12 2 26t-1 31q0 17 0 33t3 28q2 2 4 1t4-3q4 5 11 8t12 6q6 3 8 9t-6 12q-12-1-24-1t-25 0q-15 0-30 0t-31-3q-1-13 6-18t16-10q4-2 9-5t7-6q0-4 0-12t1-17q0-13 0-28t0-28-1-21q-1-10-9-20t-15-19q-6-9-13-19t-13-19q-9-14-18-28t-17-27q-1-4-5-5t-6-3q0-4-1-8t-2-5q-3-1-7-1t-6 0q-4 0-9-1t-9-1q-1-1-1-3t-3-2q-2-7 0-10t5-5q2-2 2-2 10 1 22 1t24-2q6 0 12-1t12 0q15-1 26 3t15 16q-7 5-18 6t-22 2q10 18 23 37t28 39q9 10 17 21t15 21q8-11 15-21t15-21q13-19 26-38t25-38q-4-1-11 0t-14 1q-4 0-8 0t-7 1q-8-4-6-14t8-13q10 1 21 0t22-1q6 0 13-1t12 0q15 0 26 4t14 17m308 299q-2 7-10 10t-16 3q-4 0-9-1t-10 0q-4 0-8 0t-6 0q-8-4-9-11t1-16q0-3 0-7t0-7q-6 3-11 7t-11 9q-11 9-24 17t-32 8q-10-1-17-5t-17-5q-15-18-19-42t-5-51q0-10 0-22t1-22q0-15 0-30t0-30q-2 0-5 0t-5 1q-5 1-11 1t-8-4q1-8 6-13t13-7q4-1 8-2t9 0q4 0 9 0t8 2q13 3 18 9-8 27-10 61t-1 71q0 12 2 25t5 22 12 13q11 5 24 3t23-8 18-14q9-10 14-25t6-33 1-36-1-37q0-6-1-12t0-11q-2 0-6 0-6 1-13 0t-10-8q1-3 2-6t2-7q8-1 16-4t15-3q8-2 14-2 3 0 6 1t5 1q8 3 14 9-7 2-7 9t-4 13q1 21 1 48t1 55q0 6-1 11t0 11q-1 13-1 25t7 20q8 3 14 7t13 9m205-212q-9 14-10 41t-1 59q0 5 0 10t1 10q2 34 2 68t-5 61q-4 18-13 31t-22 18q-4 1-14 2t-23 1-20-2q-8-2-14-8t-14-9q-3-8-5-19t1-22q10-12 18-11t15 8q7 8 13 20t8 22q15 0 27-8t14-23q4-24 2-60t-3-73q-1-27-3-51t0-43q-3-1-6-1t-7 3-9 2-12 0q-2-4-4-10t-2-11q11-7 27-10 12-3 25-3t24 3q3 0 5 2t5 3m-7-57q-6 11-18 11t-21-5-10-16q-1-15 8-22t19-6q11 1 19 11t3 27m232 267q0 5-10 7t-23 3-25 1q-3 0-7 0t-6 1q-1 0-6-1-5-2-10-3t-11 2q-6-3-6-7t2-8q1-1 2-3t0-4q9-4 17-7t14-10q0-30-1-55t0-51 1-56q-5-2-11-2t-10 0q-3 0-5 0t-5 0q0-2-1-4t-2-4q-2-3-3-5t4-7q5 0 10-1t11-1q13-2 26-3t24 2v1q0 25-1 55t-2 60-2 55q0 1 0 4-1 3-1 6t1 6q1 5 7 8t12 6q6 3 11 6t6 9m-31-290q6 12 2 21t-14 13-26-1q-9-12-7-23t9-18q8-7 19-6t17 14m456 237q-6 22-22 37t-38 24-48 6-52-10q-5 1-8 3t-7 7q-4 4-9 6t-12-4q-6-9-8-24t-1-31 4-32 7-23q12 4 16 13t6 19q2 11 4 22t11 19q8 9 20 12t25 4q17 0 33-6t28-16 16-22q3-21-1-34t-14-22q-12-11-29-18t-33-16q-6-4-12-9t-11-9q-7-4-15-7t-13-6q-12-7-20-19t-12-26q-2-7-3-15t-1-15q0-16 5-32t16-28q20-9 44-14t50-4 48 10q2-1 3-2t3-4q3-3 6-6t10 2q3 12 3 30t-1 34-6 26q-11-1-15-8t-5-16-1-21q0-1 0-2-11-10-29-16t-37-6q-15 0-29 4t-21 14q-7 7-10 18t0 25q1 5 5 12t8 11l3 3q12 11 30 20t38 19 37 22q17 11 29 25t16 33-1 43m331-148q-2 7-8 8t-13 3-12 7q-5 5-6 9t-4 13q-6 15-16 36t-21 45-24 49-23 47-18 39q-4 9-9 18t-13 14q-12 8-31 5-10-2-15-8t-15-12q-1-10 3-17t11-10q8-4 18-3t16 10q9-5 17-18t15-28 10-24q-1-4-5-6t-6-5q-14-42-31-81t-32-79q-9 0-17 0t-13-4q-4-4-3-6t2-4q1-1 2-3t1-4q2 0 5-1t6 0q9-1 21-2t24-1q16 1 28 4t18 11q-8 4-17 7t-18 6q11 33 24 64t25 64q19-28 32-61t27-66q-2-2-6-2t-9 0q-4 0-8 0t-6-2q0-2-1-4t0-4q-1-4-1-7t5-6q5 0 10-1t10 0q21 0 38 1t33 9m308 203q-3 7-10 10t-16 3q-5 0-10-1t-9 0q-4 0-8 0t-7 0q-7-4-8-11t0-16q0-3 0-7t1-7q-6 3-12 7t-10 9q-11 9-24 17t-32 8q-11-1-17-5t-18-5q-14-18-19-42t-5-51q0-10 0-22t1-22q1-15 1-30t-1-30q-2 0-4 0t-5 1q-6 1-11 1t-8-4q0-8 5-13t14-7q4-1 8-2t8 0q5 0 9 0t9 2q12 3 17 9-8 27-10 61t-1 71q1 12 2 25t6 22 11 13q12 5 24 3t24-8 17-14q10-10 14-25t7-33 1-36-2-37q0-6 0-12t-1-11q-2 0-6 0-6 1-12 0t-10-8q1-3 2-6t1-7q9-1 17-4t15-3q7-2 14-2 3 0 5 1t6 1q7 3 13 9-6 2-7 9t-3 13q1 21 1 48t0 55q0 6 0 11t-1 11q-1 13-1 25t8 20q7 3 14 7t13 9m321-8q-1 8-7 11t-13 4q-6 1-12 1t-11 0q-3-1-5-1t-4 0q-17-28-34-55t-35-56q-11 7-19 16t-17 18q0 6 0 12t0 10q0 6 0 11t-1 11q7 8 19 12t22 9q-2 7-11 10t-20 3-17-2q-12 2-27 4t-27-3q-3-4-2-6t2-4q1-2 1-3t1-4q5-5 12-7t15-4q2-45 1-94t-3-99v-3q0-19-1-37t-1-37q-5 0-8 1t-6 2q-4 2-8 3t-8-1q-2-3-2-6t2-8q1-2 1-4t1-3q12-3 24-7t22-3q7 0 12 2t11 10q-5 18-6 40t-1 48q1 27 1 55t1 55q22-16 43-40t39-47q-3 0-13-1t-20-2q1-6 1-11t2-9q1-1 2-2 9 2 19 1t20-1q4 0 8-1t8 0q7 0 13 1t11 2q3 1 6 3t6 4q-3 8-13 10t-18 6q-15 15-28 33t-27 34q8 17 20 35t22 33 17 31q11 4 22 8t18 12m314 8q-3 7-10 10t-16 3q-5 0-10-1t-9 0q-4 0-8 0t-7 0q-7-4-8-11t0-16q0-3 0-7t1-7q-6 3-12 7t-10 9q-11 9-24 17t-32 8q-11-1-17-5t-18-5q-14-18-19-42t-5-51q0-10 0-22t1-22q1-15 1-30t-1-30q-2 0-4 0t-5 1q-6 1-11 1t-8-4q0-8 5-13t14-7q4-1 8-2t8 0q5 0 9 0t9 2q12 3 17 9-8 27-10 61t-1 71q1 12 2 25t6 22 11 13q12 5 24 3t24-8 17-14q10-10 14-25t7-33 1-36-2-37q0-6 0-12t-1-11q-2 0-6 0-6 1-12 0t-10-8q1-3 2-6t1-7q9-1 17-4t15-3q7-2 14-2 3 0 5 1t6 1q7 3 13 9-6 2-7 9t-3 13q1 21 1 48t0 55q0 6 0 11t-1 11q-1 13-1 25t8 20q7 3 14 7t13 9" />
</svg>