<svg id="fnt-Yuji Mai" viewBox="0 0 2223 1000" xmlns="http://www.w3.org/2000/svg"><path id="yuji-mai" class="f" d="M418 399q-9 21-19 29t-13 10q-5-4-10-8t-13-6q-3-7 0-13t6-11q3-5 5-11t-1-12q-20-2-35 1t-28 13q-21 14-37 29t-34 34q-11 31-12 60t3 69q1 9 0 21t-2 21q19 9 30 25 1 7-1 16t-9 10q-4 0-10 0t-10 1q-18 1-37 1t-29-5q-6-8-4-22t11-22q5-1 8-3t9-4q0-13 0-27t0-27q1-34-1-68t-8-63-25-53q-6-9-18-17t-24-14-24-7q-14-2-23 4t-10 16 7 19q9 1 10-5t1-12q-1-3-1-7t2-5q14 1 20 9t6 19q-1 11-8 22t-19 16-25-2q-1-1-2-2t-2-2q-12-10-22-22t-6-33q2-18 16-33t30-19q25-7 49 0t44 16q1 5 8 13t17 20 20 31 14 46q12-13 25-30t27-33 32-29q21-15 47-21t58 8q5 7 8 19t6 26 3 24m305 244q1 9-3 12t-9 5q-11 0-23-3t-19-10-8-21q-15 9-27 20t-24 18-30 10q-13 1-25-5t-19-13q-14-14-23-39t-9-50q1-22 7-45t12-40q2-7 3-15t1-13q0-4-2-10t-5-9-11-3q-5 1-8 8t-7 10q4 9 0 15t-12 8-17 1-13-9q2-16 10-31t20-24q5-4 15-9t16-3q11 1 24 8t22 17 10 24q0 8-2 18t-5 19q-1 3-1 4-1 3-2 5t-1 6q-7 22-12 47t-3 47 20 41q15 6 29 1t27-15 22-25q7-11 10-19t3-17-1-20q0-2 0-4t0-4q-1-5 0-12t1-16q1-16 2-32t-3-22q0-14 3-26t9-21q9-4 18-5t16 5q0 1 0 3t0 4q1 8 0 17t-5 12q3 20 2 40t-2 43q-2 17-3 35t0 35q0 6 1 15t3 13q3 6 8 8t11 6 9 10m212-217q0 17 0 35t0 38q1 44 1 90t-7 83q-6 11-13 21t-19 17-30 15-50 12q-16-6-26-15t-18-22q-3-8-2-23t13-26q3 0 5-1t6-1q7-1 13-2t11 2q6 7 7 16t-2 19-7 13q0 5 4 6t5 4q39-7 54-32t18-64q1-17 0-41t-2-47q-1-12-2-23t0-18q0-9-1-18t-2-15q0-2-2-4t-3-5q-3-5-6-10t-1-12q5-4 12-6t12-2q11 3 17 8t15 8m9-101q6 17 2 28t-12 18-18 9q-20 1-29-8t-13-15q-1-3-2-4 1-2 1-6 1-10 4-21t13-11q5-7 11-7t13 0q3 1 6 1t5-1q6 3 10 8t9 9m191 329q-6 9-18 14t-25 5-25-3-18-14-4-25q6 0 8-4t9-4q6-4 8-10t3-14q1-16-1-38t-2-44q-1-8-1-15t-1-14q-1-9-2-16t-4-15q-2-12-4-22t1-22q18-3 29 7t16 27 4 31q-1 6-4 8 1 13 1 26t1 27q-1 24 0 47t7 42q11 0 16 4t6 11 0 11m-22-320q2 17-4 30t-17 18q-8 2-18 0t-18-7-11-12q-5-12-1-26t15-21 26-6q9 1 14 8t14 16m651 5q0 5-2 9t-2 8q-11-1-16 1t-12 5q-1 1-2 1-3 13-3 25t-1 26q0 7 0 14t-1 15q0 6-1 13t-1 14q-1 11-2 22t0 23q1 26 4 52t4 50q6 6 12 10t15 8q0 2 0 4t1 4q1 4 1 6-5 5-11 9t-10 10q-9 2-23 3t-28-2-24-11-9-24q5-9 12-13t22-4q3-38 2-82t-3-85-4-75q0-2 0-4t0-3q-15 7-29 14t-24 19q-8 8-17 20t-14 25q-2 3-2 7t-1 8q-1 3-4 5t-4 7q-3 11-2 22t2 25q3 18 3 35t-13 30q-16 2-26 0t-22-7q0-3-2-7t-3-7q-3-5-6-10t-1-12q1-4 5-11t8-13q1-3 1-7t1-5q2-5 7-10t5-10q1-7-2-18t-7-23-8-20q-10-22-22-36t-26-27q-7-6-20-10t-27-4-22 7-6 22q4-2 5-4t7-4q12 1 19 3t11 7 10 11q1 36 0 79t-3 81q0 10-2 27t-4 27q-1 6-10 12t-15 12q-17 16-41 26t-51 19q-3-4-9-5t-9-4q1-25 8-47t21-36 39-19q7 6 13 10t9 14q-9 8-20 15t-20 15-9 27q22-4 35-18t20-32q8-22 9-50t0-55-4-50q0-6-1-11t-1-10q-3 0-5 0t-3 0q-3 0-7 0t-9-1q-17-12-17-32t11-38q10-16 27-26t38-8q10 5 22 6t25 6q10 13 25 22t27 20q1 3 0 3t-1-1q-3-1-3 1 4 12 10 21t12 18 8 23q11-16 19-32t23-28q19-18 44-29t50-22q16 2 30 5t27 14m301 317q-6 11-19 13t-27-2-22-14-9-26q-2 2-4 3t-4 4q-16 12-34 23t-41 10q-10-1-21-3t-20-9q-12-10-18-28t-4-38 12-35q27-20 60-34t69-23q0-2 0-5t1-5q1-8 2-19t-2-21-12-13q-5-3-14-3t-13 0q-14 1-30 11t-20 25q-3 2-6 4t-6 5q-4 4-10 8t-12 3q-14 0-24-11t-6-22q4-10 13-18t20-12 22-11 19-10q17-5 40-6t48 6q6 4 12 12t10 18 7 16 5 10q1 12-1 27t-3 29q-2 21-3 43t1 41 13 35q9 2 18 7t13 15m-81-84q1-5 1-12t0-12q-1-5-1-9t0-9q-12 2-29 9t-35 15-29 17q-8 7-10 22t1 26q10 11 22 9t24-5q4-2 8-3t9-2q6-9 15-15t15-12 9-19m237 82q-6 9-18 14t-25 5-25-3-18-14-4-25q6 0 8-4t9-4q6-4 8-10t3-14q1-16-1-38t-2-44q-1-8-1-15t-1-14q-1-9-2-16t-4-15q-2-12-4-22t1-22q18-3 29 7t16 27 4 31q-1 6-4 8 1 13 1 26t1 27q-1 24 0 47t7 42q11 0 16 4t6 11 0 11m-22-320q2 17-4 30t-17 18q-8 2-18 0t-18-7-11-12q-5-12-1-26t15-21 26-6q9 1 14 8t14 16" />
</svg>