<svg id="fnt-Yusei Magic" viewBox="0 0 2689 1000" xmlns="http://www.w3.org/2000/svg"><path id="yusei-magic" class="f" d="M182 519v131q0 7-5 12t-12 5h-30q-7 0-12-5t-5-12v-126l-88-207q-5-11-5-19 0-11 18-11h20q5 0 10 2t7 7l68 171 71-171q3-5 7-7t11-2h20q18 0 18 11 0 5-5 19l-88 202m327-90v221q0 7-5 12t-12 5h-25q-6 0-11-4t-5-10q-16 9-36 14t-43 5q-35 0-56-11t-29-38-12-74-2-119q0-8 5-13t12-5h25q7 0 12 5t5 13q0 56 1 94t5 62 9 35 11 16 14 5q23 0 40-11t28-31 10-44v-127q0-7 5-12t12-5h25q7 0 12 5t5 12m42 186q-2-3-2-6 0-6 6-10t12-4h29q12 0 16 14 4 14 18 23t44 9q32 0 44-11t12-33q0-22-16-35t-47-12q-42 1-67-8t-35-24-11-34q0-36 32-57t90-20q64 0 98 27 13 11 13 20 0 5-4 7l-8 7q-5 3-10 3-5 0-8-2-21-16-41-24t-40-8q-28 0-43 13t-15 34q0 19 11 28t38 8q34 0 63 9t47 26 17 42q0 21-15 38t-43 27-62 9q-46 0-79-16t-44-40m487 18q-15 16-39 27t-52 12q-62 0-96-36t-34-96q0-38 15-68t44-48 64-17q38 0 66 16t44 44 16 64q0 7-5 12t-11 4h-179q2 45 23 70t53 25q16 0 26-9t19-24q5-11 17-8l18 4q16 4 16 18 0 6-5 10m-98-196q-14 0-28 10t-25 29-14 41h129q-3-35-20-58t-42-22m220-118v29q0 7-5 12t-12 5h-30q-7 0-12-5t-5-12v-29q0-7 5-12t12-5h30q7 0 12 5t5 12m0 110v221q0 7-5 12t-12 5h-30q-7 0-12-5t-5-12v-221q0-7 5-12t12-5h30q7 0 12 5t5 12m512-26l-86 192q-5 10-11 10t-11-10l-89-193v248q0 17-16 17h-22q-17 0-17-17v-347q0-16 17-16h19q13 0 19 12l99 206 98-206q5-12 19-12h19q17 0 17 16v347q0 17-17 17h-22q-16 0-16-17v-247m192 269q-32 0-54-17t-34-46-12-68q0-37 14-68t38-48 58-18q43 0 71 18t43 47 14 62q0 2 0 4 3 33 8 60t9 46q0 1 0 4 0 15-15 17l-29 4q-14 1-17-12-2-8-4-16-17 14-39 22t-51 9m0-30q25 0 41-17t24-41 8-51q0 0 0-1t0-1q0-3 0-6 0-2 0-4-2-22-9-42t-21-31-33-11q-11 0-21 15t-18 39-7 50 6 49 14 37 16 15m212 87q-5-6-5-12 0-13 15-18l16-5q1-1 4-1 8 0 13 8 13 19 22 25t23 6q27 0 42-12t15-36v-35q-13 11-29 17t-36 6q-36 0-63-18t-42-49-15-69q0-38 14-67t38-46 61-16q23 0 41 5t31 16q1-7 5-12t12-4h25q7 0 12 5t5 12v255q0 23-15 40t-42 28-59 10q-54 0-88-33m80-88q15 0 30-10t25-34 10-58q0-54-19-78t-53-24q-12 0-25 11t-21 33-8 55q0 30 6 54t20 37 35 14m238-322v29q0 7-5 12t-12 5h-30q-7 0-12-5t-5-12v-29q0-7 5-12t12-5h30q7 0 12 5t5 12m0 110v221q0 7-5 12t-12 5h-30q-7 0-12-5t-5-12v-221q0-7 5-12t12-5h30q7 0 12 5t5 12m288 51q1 4 1 7 0 6-5 10t-12 6l-27 2q-6 1-11-3t-6-9q-7-25-23-41t-36-15q-17 0-30 14t-22 37-8 52q0 48 17 75t50 27q22 0 35-17t20-47q4-14 18-13l28 2q7 1 12 5t5 11q0 2-1 5-11 38-42 61t-75 23q-62 0-97-36t-34-96q0-38 16-68t43-48 65-17q27 0 51 10t41 26 27 37" />
</svg>