<svg id="fnt-ZCOOL KuaiLe" viewBox="0 0 3566 1000" xmlns="http://www.w3.org/2000/svg"><path id="zcool-kuaile" class="f" d="M37 662l-19-40 233-246-218-17 4-48 267 23 15 39-224 236 260-22 4 47-322 28m391 7l-26-26 34-317 26-21 258 38-7 47-233-34-28 263 279-30 5 47-308 33m644-5l-255-3-23-25 22-282 22-21 221-23 26 23 11 307-24 24m-229-50l205 3-9-258-178 19-18 236m591 50l-255-3-23-25 22-282 22-21 221-23 26 23 11 307-24 24m-229-50l205 3-9-258-178 19-18 236m573 51l-235-6-23-27 36-323 47 5-33 298 210 7-2 46m216 8l-47-6 48-367 47 6-48 367m190-6l-139-146 3-35 147-116 29 37-127 100 121 127-34 33m315-13l-54-32-158 26-28-25 12-202 47 3-10 172 126-20 10-155 48 4-11 163 42 26-24 40m347 10l-50-14-9-11-207 33-27-28 29-115 23-18h158l-11-78-180 44-11-45 205-51 29 20 28 208 35 10-12 45m-238-44l166-27-5-34h-146l-15 61m308-190l-15-56 45-13 15 56-45 13m19 233l-47-6 25-198 47 5-25 199m336 2l-235-6-22-27 35-323 47 5-32 298 209 7-2 46m250 8l-194-36-19-27 24-178 21-20 147-12 23 13 42 84-16 33-156 33-10-46 126-27-21-41-112 8-18 138 172 32-9 46" />
</svg>