<svg id="fnt-ZCOOL XiaoWei" viewBox="0 0 3400 1000" xmlns="http://www.w3.org/2000/svg"><path id="zcool-xiaowei" class="f" d="M12 657l208-300h-120q-63 0-63 57h-10v-37q0-40 43-40h217l-212 310h205v20h-268v-10m452 20q-47 0-82-23t-54-61-19-86q0-49 20-91t57-65 78-24q40 0 70 11t45 29q8 10 10 27t2 48h-10q-9-49-35-72t-67-23q-54 0-87 38t-33 122q0 39 12 73t40 55 68 22q36 0 63-18t49-52l10 7q-23 45-57 64t-80 19m333 0q-46 0-82-23t-54-63-19-89 19-89 54-63 82-23 82 23 54 63 19 89-19 89-54 63-82 23m0-20q33 0 56-19t37-54 12-82-12-83-37-53-56-19-56 19-36 53-13 83 13 82 36 54 56 19m356 20q-46 0-82-23t-54-63-19-89 19-89 54-63 82-23 82 23 54 63 19 89-19 89-54 63-82 23m0-20q33 0 56-19t37-54 12-82-12-83-37-53-56-19-56 19-36 53-13 83 13 82 36 54 56 19m228-260q0-26-7-38t-28-12h-10v-10h45q18 0 27 4t14 18 4 38v250h177v20h-222v-270m496 107l-70-102q-12-18-21-28t-23-18-36-9v-10h60q22 0 37 14t33 41l50 75 100-130h25l-112 147 80 118q15 23 33 38t39 17v10h-52q-22 0-38-16t-32-39l-60-90-113 145h-25l125-163m251-102q-12 0-20-10t-8-22q0-11 6-17t17-6q11 0 19 10t9 22q0 11-7 17t-16 6m-19 90q0-26-7-38t-28-12h-10v-10h45q18 0 27 4t14 18 4 38v175h-45v-175m171 180q-16 0-32-7t-29-22-11-41q0-38 35-54t92-16h15q0-49-13-67t-39-18q-23 0-36 9t-19 33h-23q0-17 2-27t11-18q9-9 29-13t46-4q40 0 64 21t23 84v135h-25l-17-23h-3q-9 12-26 20t-44 8m23-23q16 0 27-8t20-22v-67h-15q-37 0-58 13t-22 37q0 23 14 35t34 12m258 23q-34 0-59-17t-38-44-13-62 13-62 38-44 59-16 59 16 38 44 13 62-13 62-38 44-59 17m0-20q19 0 33-14t22-37 8-52-8-52-22-37-33-13-33 13-22 37-7 52 7 52 22 37 33 14m141-257q-10-29-21-40t-34-12v-10q3 0 7-1t10 0q28 0 50 12t36 51l67 193 53-158-12-35q-10-29-21-40t-34-12v-10q3 0 7-1t10 0q28 0 50 12t36 51l67 193 85-251h22l-115 335h-10l-74-211-72 211h-10l-97-277m492 277q-34 0-58-17t-35-44-12-62q0-34 12-62t34-44 54-16q50 0 75 28t25 82l-1 20h-152q0 42 18 68t50 27q23 0 39-10t31-30l10 7q-17 28-39 40t-51 13m47-135q0-44-13-67t-39-23q-15 0-27 11t-19 33-7 46h105m132-135q-12 0-20-10t-8-22q0-11 6-17t17-6q11 0 19 10t9 22q0 11-7 17t-16 6m-19 90q0-26-7-38t-28-12h-10v-10h45q18 0 27 4t14 18 4 38v175h-45v-175" />
</svg>