<svg id="fnt-Zen Antique" viewBox="0 0 2915 1000" xmlns="http://www.w3.org/2000/svg"><path id="zen-antique" class="f" d="M301 667q-1 0-7 0-12-1-44-2t-85 0l-132 2q-10 0-12-6t4-15q5-9 18-30t32-50 39-60 42-64 38-57 29-44 15-21h-102q-25 0-42 12t-27 30-16 32q-1 2-3 4t-5 1q-4 0-5-3t-1-4q0-2 1-12t1-23 1-24 1-17q0-13 13-13 3 0 14 1t35 0 66 1h129q9 0 11 6t-2 14q-2 3-11 17t-25 37-32 50-38 57-37 58-34 51-25 38-13 18h134q20 0 34-10t22-23 13-28 8-22q2-5 9-5 4 0 4 2t1 5q0 2 0 13t-1 27-2 27 0 17q-1 13-13 13m174 6q-57 0-89-31t-32-89q0-37 14-66t41-46 63-17q27 0 47 11t33 27 19 37 7 39q0 8-10 8h-155q-1 38 6 59t24 30 37 9q26 0 46-11t33-28q6-6 13-2t2 12q-10 15-23 28t-31 21-45 9m-61-147h104q1-24-4-43t-14-30-29-11q-24 0-38 23t-19 61m207 141q-8 0-8-9 0-8 8-8 17 0 23-7t6-26v-144q0-10-1-16t-8-6q-4-1-11-2t-10-1q-7-1-7-8 0-8 7-8 2 0 12-1t22-1 23 0 14 0q12 1 12 13v28q7-11 19-22t28-18 37-7q18 0 34 7t25 24 9 45v116q0 19 6 27t18 7q8 0 8 8 0 9-8 9-3 0-12-1t-20-1-19 0q-9 0-19 0t-20 1-12 1q-8 0-8-9 0-8 8-8 15 0 20-7t4-26v-110q0-28-10-40t-30-12q-14 0-27 9t-22 23-8 32v97q0 19 6 27t16 7q8 0 8 8 0 9-8 9-5 0-21-1t-28-1q-8 0-20 0t-22 1-14 1m436 0q-6 0-6-7 0-8 6-8 18 0 28-6t18-24q4-8 11-27t18-45 22-57 23-60 21-56 17-44 9-25 6-8 11-2 12 2 6 8q4 10 12 33t21 52 24 61 24 63 21 55 15 39q9 23 19 32t20 9q7 0 7 8 0 7-7 7-5 0-20-1t-42 0q-21 0-41 0t-24 1q-7 0-7-7 0-8 7-8 16 0 22-5t6-13-2-12q-1-1-4-10t-7-22-9-25-7-22h-135q-3 10-8 25t-9 30-3 24q0 18 9 24t26 6q6 0 6 8 0 7-6 7-5 0-19-1t-36 0q-19 0-34 0t-21 1m165-305l-64 165h122l-58-165m229 305q-7 0-7-9 0-8 7-8 17 0 23-7t7-26v-144q0-10-2-16t-8-6q-3-1-10-2t-11-1q-7-1-7-8 0-8 8-8 1 0 11-1t23-1 23 0 13 0q13 1 13 13v28q7-11 18-22t29-18 36-7q19 0 34 7t25 24 10 45v116q0 19 5 27t19 7q7 0 7 8 0 9-7 9-4 0-13-1t-19-1-20 0q-8 0-19 0t-19 1-13 1q-7 0-7-9 0-8 7-8 16 0 20-7t5-26v-110q0-28-11-40t-29-12q-14 0-28 9t-21 23-8 32v97q0 19 5 27t17 7q8 0 8 8 0 9-8 9-6 0-21-1t-28-1q-9 0-21 0t-22 1-14 1m378 6q-22 0-38-10t-16-38v-175h-35q-8 0-8-8v-2q0-3 2-5t6-3q29-10 45-30t20-57q0-8 8-8h8q3 0 6 2t2 6v85h61q8 0 8 8v4q0 8-8 8h-61v158q0 27 29 27 13 0 24-8t16-18q4-8 13-3 3 2 3 5t-1 7q-9 22-30 38t-54 17m120-6q-8 0-8-8 0-9 8-9 19 0 25-8t7-26v-142q0-14-3-19t-10-5q-3 0-12-1t-11-1q-7-2-7-9 0-8 7-8 2 0 13 0t24 0 26-1 14 0q13 0 13 12v174q0 18 6 26t22 8q7 0 7 9 0 8-7 8-4 0-14-1t-21-1-21 0q-8 0-21 0t-23 1-14 1m55-291q-15 0-26-11t-10-25 10-26 26-10 25 10 11 26-11 25-25 11m240 394q-8 0-8-8 0-8 8-8 19 0 26-8t6-26v-79q-5 5-14 13t-23 13-32 6q-26 0-50-11t-37-38-15-73q0-35 10-59t27-39 37-22 39-7q25 0 40 8t24 17 14 15q7-9 13-19t12-15q2-3 8-2t5 8q-1 5-2 26t-2 57v202q0 18 8 25t27 8q8 0 8 8 0 8-8 8-3 0-15 0t-25-1-22 0q-8 0-21 0t-23 1-15 0m-26-116q13 0 26-8t24-26 9-45v-49q0-43-16-63t-39-20q-29 0-44 24t-14 84q0 41 6 64t19 31 29 8m281 19q-35 0-58-18t-22-58v-123q0-12-2-17t-10-7q-4-1-10-2t-9-1q-7-1-7-8 0-8 7-8 2 0 12-1t23 0 24 0 14 0q12 0 12 13v146q0 26 13 38t34 12q27 0 39-17t13-39v-109q0-12-2-17t-10-7q-4-1-10-2t-9-1q-7-1-7-8 0-8 7-8 2 0 12-1t23 0 24 0 14 0q12 0 12 13v180q0 14 3 18t9 6q4 0 6 1t6 2q7 0 7 8 0 8-8 8-1 0-10 0t-20 0-20 0-12 1q-12 0-13-12 0-4 0-13t-2-13q-1 0-5 7t-13 15-22 15-33 7m312 0q-57 0-89-31t-32-89q0-37 14-66t41-46 63-17q27 0 47 11t33 27 19 37 7 39q0 8-10 8h-155q-1 38 6 59t24 30 37 9q26 0 46-11t33-28q6-6 13-2t2 12q-10 15-23 28t-31 21-45 9m-61-147h104q1-24-4-43t-14-30-29-11q-24 0-38 23t-19 61" />
</svg>