<svg id="fnt-Zen Loop" viewBox="0 0 1169 1000" xmlns="http://www.w3.org/2000/svg"><path id="zen-loop" class="f" d="M142 667h-129q-5 0-5-5 0-2 1-5l121-325h-112q-5 0-5-5 0-5 5-5h119q5 0 5 4 0 1-1 4l-121 326h122q5 0 5 5 0 6-5 6m81 2q-17 0-31-16t-20-43-7-63 7-63 20-43 30-15q15 0 26 12t18 35 6 51q0 8-8 8h-88q0 8 0 15 0 32 6 57t16 40 25 15q13 0 22-11t15-29q1-5 5-5 4 0 5 3t0 6q-7 21-19 34t-28 12m-1-233q-17 0-30 24t-15 62h85q-1-37-12-61t-28-25m100 231q-5 0-5-5v-229q0-5 5-5 6 0 6 5v20q10-15 21-21t25-6q42 0 42 55v181q0 5-6 5-5 0-5-5v-181q0-24-8-35t-23-10q-15 0-27 9t-19 24v193q0 5-6 5m392 0h-118q-5 0-5-5v-335q0-5 5-5 5 0 5 5v329h113q5 0 5 5 0 6-5 6m87 2q-17 0-30-15t-20-43-7-64 7-63 20-43 30-15 30 15 20 43 8 63-8 63-20 43-30 16m0-10q14 0 24-15t17-40 6-57-6-57-17-39-24-15q-13 0-23 15t-17 39-6 57 6 57 17 40 23 15m160 10q-17 0-30-15t-20-43-7-64 7-63 20-43 30-15 29 15 21 43 7 63-7 63-21 43-29 16m0-10q13 0 24-15t16-40 6-57-6-57-16-39-24-15q-13 0-24 15t-16 39-6 57 6 57 16 40 24 15m154 10q-21 0-36-22v108q0 5-5 5-5 0-5-5v-305q-9 4-17 11-1 1-3 1-6 0-6-5 0-3 2-4 12-9 24-16v-28q0-5 5-5 5 0 5 5v24q17-7 31-7 30 0 44 32t14 89q0 36-6 63t-18 43-29 16m-5-233q-13 0-31 8v186q7 14 17 21t19 8q14 0 23-15t14-40 5-57q0-52-11-81t-36-30" />
</svg>