<svg id="fnt-Zeyada" viewBox="0 0 1299 1000" xmlns="http://www.w3.org/2000/svg"><path id="zeyada" class="f" d="M85 626q0-17 11-36t26-36 34-37 34-38 26-38 10-40q0-14-7-22t-19-10-23-4-24-1q-8 0-19 1t-21 2-21 4-20 6q-1 1-4 3t-8 4-8 4-5 1q-1 1-3 1t-4 1-6 0-4 0q-1 0-4 0t-5 0-5-1-3-1q-4-1-4-3t-1-5q0-6 10-11t25-9 33-7 36-4 31-2 19-1q15 0 30 2t28 9 20 18 8 29q0 21-11 40t-26 39-34 36-35 36-26 35-10 35q0 6 1 12t8 8q1 0 3 0t5 0 4 0 3 0q8 0 14-1t11-2 12-3 17-8q3-1 10-4t17-7 19-9 20-9 16-8 11-5h18q0 3-1 5t-4 4l-132 64q-1 0-4 0t-7 1-8 2-7 1h-7q-18 0-29-11t-11-30m242-27l-12 7q-3 2-5 1t-3-3-1-5 0-4q0-9 2-12t6-3 9-2 8-9q6-12 11-26t11-25 17-19 29-7q3 0 7 0t7 2 5 4 2 7q0 10-5 18t-12 15-17 12-16 12-12 11-5 13v46q0 6 4 9t9 5 11 3 9 1q12 0 24-4t22-11 21-14 19-14q3-2 5-5t4-5 5-4 7-3q0 0 0 2t0 2q0 4-1 7t-3 6q-11 12-23 23t-26 19-29 13-32 5-26-5-15-14-7-22-4-27m51-69q0-1-2 0t-4 3-3 4 0 2q3 0 6-3t3-6m72 358q-3-18-5-39t-3-47q0-4 0-15t1-22 3-26 5-25 7-21 9-13v4q0 14-2 29t-4 28-5 29-2 29q0 6 1 17t2 24 4 28 8 25 12 18 16 7q13 0 26-8t25-22 22-30 19-34 15-33 8-26q3-16 6-34t6-37 4-37 2-37q0-1 0-3t0-5-1-5 0-4q-6 7-14 17t-16 16-19 14-22 5q-9 0-16-6t-11-14-6-19-2-17q-1-5-1-16t-1-25-2-24 0-16l-5-5q-3 2-9 6t-11 8-12 6-10 2q-6 0-10-4t-4-9q0-2 5-7t12-9 16-9 17-9 15-7 10-2q2 0 7 0t4 5v115q0 3 1 8t3 12 5 10 8 4q2 0 6-2t8-3 7-4 4-4q17-15 31-33t21-39q0-2 1-7t3-11 3-12 1-9q0-3 1-7t1-9 3-7 8-3q8 0 8 4t1 11q0 6-1 12t-2 13-2 12 1 13q-6 91-23 164t-41 121-50 75-49 23q-8 0-16-3t-15-10-12-14-8-16m350-281q-8 9-17 19t-21 18-22 14-25 5q-26 0-26-25 0-10 9-27t22-35 30-36 33-29 31-14 22 8q0 13-2 26t-3 27-4 25-2 26q0 3 0 9t3 12 5 11 7 5q12 0 20-3t13-7 10-10 8-11 11-10 15-8q0 0 0 2t0 2q0 12-7 24t-19 22-25 15-27 5q-11 0-18-6t-11-15-6-20-4-19m9-64q4-16 3-22t-7-4-15 8-20 17-21 22-20 23-16 20-7 13q-3 11-1 17t7 8 10 1 10-5q8-7 21-20t25-26 20-28 11-24m188 94h-55q-9 0-15-6t-11-14-6-18-2-16q0-15 5-31t15-31 22-27 27-19q5-3 10-3t8 0 5-3 2-11v-81q0-4 4-8t9-5q2 0 4 3t2 5 2 6 0 5q0 55-1 109t-1 110q3 0 7-2t9-3 8-4 8-3q0 0 0 2t1 2q0 7-5 11t-11 8-11 7-8 9q0 1-1 6t-2 14-4 13-8 5q-6 0-9-4t-1-9 1-10 2-7m-72-54q0 16 10 27t26 10q4 0 8 0t10 0 9-3 6-6q-1-13-1-25t2-24 2-24 1-25q0-6-2-9t-9-4q-13 0-24 9t-20 21-14 28-4 25m256 24q-8 9-17 19t-21 18-23 14-24 5q-26 0-26-25 0-10 8-27t23-35 30-36 33-29 31-14 22 8q0 13-2 26t-4 27-3 25-2 26q0 3 0 9t3 12 4 11 8 5q12 0 19-3t14-7 9-10 9-11 11-10 15-8q0 0 0 2t0 2q0 12-7 24t-19 22-25 15-27 5q-12 0-18-6t-11-15-6-20-4-19m8-64q5-16 4-22t-7-4-15 8-20 17-22 22-20 23-15 20-7 13q-3 11-1 17t7 8 10 1 10-5q8-7 21-20t24-26 21-28 10-24" />
</svg>