<svg id="fnt-Dancing Script" viewBox="0 0 2691 1000" xmlns="http://www.w3.org/2000/svg"><path id="dancing-script" class="f" d="M82 710q-16 0-30-4t-24-18q5-24 12-52t16-57 17-58 17-52 15-43 10-28q1-4 5-12t8-16 12-14 14-5q7 0 14 5-16 36-32 79t-30 90-26 90-20 80q7 1 11 2t10 0q32 0 62-15t55-40 46-59 30-71 11-74q0-40-13-67t-36-38-54-13q-32 0-58 13t-41 35-15 50q0 6 0 10t2 8q-16 0-23-8t-7-20q0-17 12-35t34-33 51-24 60-9q45 0 72 18t40 49 13 70q0 43-14 83t-37 73-54 58-66 38-69 14m264-20q-16 0-27-10t-10-31q0-18 8-39t22-41 31-37 38-27 39-10 33 10 13 28q0 12-7 17t-18 4q1-4 2-9t1-8q0-12-6-20t-19-8q-14 0-28 9t-28 26-24 36-17 37-6 33q0 20 14 20 11 0 25-11t27-28 28-34 23-33q2-3 2-3 3 0 8 2t8 4 4 6q0 5-5 12t-10 18-10 20-4 20q0 7 4 14t13 8q13 0 35-20t45-59l5 5q-11 27-27 47t-36 32-36 12q-19 0-28-11t-8-24q0-3 0-7t1-8q-21 29-39 44t-36 14m355-13q-17 0-26-9t-9-23q0-11 4-22t7-24 4-24q0-14-6-19t-14-5q-16 0-32 12t-31 33-28 41-23 37q-8 0-15-3t-11-8q0-2 5-15t12-32 13-39 5-37q3-3 10-7t13-3q14 0 14 13 0 8-5 26t-11 40q13-21 30-41t36-34 38-13q19 0 28 14t9 31q0 15-5 28t-11 26-5 25q0 10 4 14t11 5q13 0 25-12t24-30 21-36l6 6q-11 25-24 44t-28 30-35 11m125 18q-24 0-40-16t-16-48q0-25 10-49t26-43 35-30 39-11q20 0 28 12t7 25q0 14-7 25t-18 11q-8 0-14-7 7-4 13-17t5-23q0-6-2-9t-9-3q-13 0-28 12t-26 31-20 40-8 39q0 16 8 29t29 13q20 0 40-11t38-32 28-48l6 5q-11 30-31 54t-44 37-49 14m144-15q-19 0-29-13t-9-29q0-12 4-29t11-37 16-36 20-28 21-11q4 0 7 3t4 8q0 6-8 20t-18 31-19 36-7 37q0 18 6 24t18 6q17 0 36-17t41-59l5 5q-15 43-42 66t-57 23m60-229q-8 0-14-4t-6-13q0-10 12-18t24-8q8 0 12 4t5 12q0 9-11 18t-22 9m186 226q-17 0-26-9t-9-23q0-11 4-22t7-24 4-24q0-14-6-19t-14-5q-16 0-32 12t-31 33-28 41-23 37q-8 0-15-3t-11-8q0-2 5-15t12-32 13-39 5-37q3-3 10-7t13-3q14 0 14 13 0 8-5 26t-11 40q13-21 30-41t36-34 38-13q19 0 28 14t9 31q0 15-5 28t-11 26-5 25q0 10 4 14t11 5q13 0 25-12t24-30 21-36l6 6q-11 25-24 44t-28 30-35 11m91 130q-11 0-20-7t-9-22q0-15 9-28t24-24 31-19 33-17q7-18 13-38t13-45q-19 28-40 46t-42 18q-18 0-28-13t-9-35q0-26 12-50t34-41 43-29 43-10q15 0 21 5t6 11q0 5-2 7t-4 3q-2-4-7-6t-13-1q-19 0-38 11t-32 30-22 37-8 35q0 12 4 18t13 7q15 0 35-20t39-46q2-7 3-13t3-14q2-7 7-16t19-9q2 0 5 0t5 1q0 8-5 29t-13 50-20 58q16-8 32-20t29-29 20-35l7 5q-8 22-24 41t-36 32-34 21q-14 33-29 61t-33 44-35 17m-2-16q10 0 27-20t38-68q-20 10-38 21t-28 23-11 26q0 8 4 13t8 5m409-81q-27 0-51-10t-39-29-15-50q0-26 10-41t26-20 28-6q-13 14-20 32t-7 35q0 18 8 34t25 26 43 10q23 0 44-9t35-24 14-40q0-22-11-37t-28-28-37-23-37-23-28-28-11-39q0-21 10-44t29-43 45-34 59-12q29 0 41 14t11 36q0 18-6 38t-15 40-17 32q-9-2-13-8t-4-14q0-10 5-24t10-28 10-28 5-25q0-10-6-16t-22-5q-24 0-44 11t-35 28-23 36-8 35q0 18 10 31t28 24 36 22 37 24 27 30 11 44q0 26-11 45t-31 34-42 20-46 7m220-15q-24 0-40-16t-16-48q0-25 9-49t26-43 36-30 38-11q21 0 28 12t8 25q0 14-7 25t-18 11q-9 0-15-7 8-4 13-17t6-23q0-6-3-9t-8-3q-14 0-28 12t-27 31-20 40-7 39q0 16 7 29t29 13q20 0 40-11t38-32 28-48l7 5q-12 30-32 54t-44 37-48 14m194-15q-17 0-27-9t-9-24q0-15 7-31t13-33 7-29q0-16-9-24t-19-14q-11 29-24 56t-20 40l-5-9q7-13 18-38t23-57q-5-5-5-12 0-15 8-24t13-10q5 0 6 5t1 7-3 10-3 9q0 7 8 12t18 13 17 18 8 26q0 15-6 31t-13 29-6 25q0 9 5 12t10 3q12 0 25-8t25-19 21-24 14-24l7 5q-10 21-26 41t-37 34-42 13m124 0q-20 0-29-13t-10-29q0-12 4-29t12-37 16-36 20-28 20-11q5 0 8 3t3 8q0 6-8 20t-18 31-18 36-8 37q0 18 6 24t19 6q17 0 36-17t41-59l4 5q-14 43-42 66t-56 23m60-229q-8 0-15-4t-6-13q0-10 12-18t25-8q7 0 12 4t4 12q0 9-10 18t-22 9m-7 356q-4 0-8-5t-6-9-2-5q7-25 14-44t13-40 14-47 13-68 14-100q1-5 2-7t8-2q13 0 18 7t6 16q0 7-3 25t-9 43q9-17 21-34t30-28 36-12q22 0 36 16t14 41q0 20-9 41t-24 41-37 32-48 12q-13 0-21-3t-8-6q0-2 4-3t9 0q20 0 38-10t33-25 22-36 9-38q0-16-7-28t-22-11q-13 0-26 8t-24 21-20 27-13 25q-9 37-18 72t-17 63-15 46-11 22q-3 3-6 3m269-117q-21 0-33-13t-11-37q0-22 8-54t21-66q-5-1-10-2t-8-2v-9q4 0 9 1t13 1q10-27 22-53t24-45 22-31 19-12q4 0 7 3t3 8q0 9-10 28t-26 46-30 57q4 0 9 0t9 0q17 0 35 0t37-3v9q-28 3-50 5t-38 1q-2 0-4 0t-4 0q-11 27-19 55t-8 54q0 22 6 31t22 9q26 0 51-23t44-62l6 5q-12 28-30 50t-40 36-46 13" />
</svg>