<svg id="fnt-Danfo" viewBox="0 0 1592 1000" xmlns="http://www.w3.org/2000/svg"><path id="danfo" class="f" d="M203 667h-188v-68q0-8 0-11t0-3 0-4v0q0-4 0-5t0-3 0-11v-25q0-9 0-11t0-3 0-4v-1q0-3 0-4t0-4 0-10v-50q19 0 26-8t7-23v-37q0-15-7-24t-26-9v-40h188q27 0 48 12t34 33 12 48v98q0 8 0 10t0 4 0 4v1q0 3 0 4t0 3 0 11v25q0 8 0 11t0 3 0 5v0q0 3 0 7t-1 6-1 5q-7 31-32 49t-60 19m-71-318v98h35q19 0 27-7t7-26v-32q0-19-7-26t-27-7h-35m323 318h-129v-68q0-8 0-11t0-3 0-4v0q0-4 0-5t0-3 0-11v-25q0-9 0-11t0-3 0-4v-1q0-3 0-4t0-4 0-10v-50q12 0 20-3t16-12 18-25l61-101h97l56 99q9 17 15 26t15 12 23 4v217h-163v-68q0-8 0-11t0-3 0-4v0q0-4 0-5t0-3 0-11v-25q0-9 0-11t0-3 0-4v-1q0-3 0-4t0-4 0-10v-53h8q8 0 12-5t5-12q0-7-5-11t-12-5h-50q-9 0-13 5t-4 12q0 8 5 12t12 4h13v220m11-324l-24 42h48l-24-42m357 324h-147v-68q0-8 0-11t0-3 0-4v0q0-4 0-5t0-3 0-11v-25q0-9 0-11t0-3 0-4v-1q0-3 0-4t0-4 0-10v-50q23 0 29-9t6-24v-34q0-15-7-25t-28-9v-40h116l91 118v-45q0-15-8-24t-26-9v-40h146v40q-18 0-26 10t-7 26v32q0 15 7 24t26 9v217h-145v-68q0-8 0-11t0-3 0-4v0q0-4 0-5t0-3 0-11v-25q0-9 0-11t0-3 0-4v-1q0-3 0-4t0-4 0-10v-53l-62-81v50q0 31 35 31v220m408 0h-207v-68q0-8 0-11t0-3 0-4v0q0-4 0-5t0-3 0-11v-25q0-9 0-11t0-3 0-4v-1q0-3 0-4t0-4 0-10v-50q19 0 26-9t8-24v-32q0-15-8-26t-26-10v-40h254v73h-45q0-15-7-24t-26-9h-59v32h59v35h-59q0 15 7 23t26 8h57v220m265 3h-99q-35 0-60-20t-32-51q-1-2-1-6t-1-6 0-5v-1q0-3 0-4t0-4 0-11v-25q0-9 0-11t0-3 0-4v-1q0-3 0-4t0-4 0-10v-101q0-27 12-48t34-33 48-12h99q28 0 49 12t33 33 13 48v101q0 8 0 10t0 4 0 4v1q0 3 0 4t0 3 0 11v25q0 8 0 11t0 3 0 5v0q0 3-1 7t0 6-1 5q-7 31-33 51t-60 20m-73-223q7 0 13-6t9-25h4q1 20 8 25t13 6q10 0 15-7t5-19v-39q0-15-7-24t-26-9h-20q-19 0-26 9t-7 24v39q0 12 4 19t15 7" />
</svg>