<svg id="fnt-David Libre" viewBox="0 0 2309 1000" xmlns="http://www.w3.org/2000/svg"><path id="david-libre" class="f" d="M136 667h-124v-11q17-3 26-7t10-8v-265q-10 2-19 3t-17 2l-2-15q14-4 34-7t42-5 40-2q46 0 79 18t51 51 18 81q0 45-13 77t-34 51-45 28-46 9m-5-21q17 0 35-8t33-25 24-42 10-60q0-65-32-102t-90-37q-13 0-24 1v256q0 8 6 11t17 5 21 1m237 28q-12 0-24-5t-20-17-8-31 6-31 16-21q8-8 19-15t33-13 58-11v-35q0-16-8-28t-33-10q-15 0-28 9t-11 24q0 3-9 6t-19 6-14 2l-3-10q7-16 25-30t39-23 42-9q27 0 42 14t14 39v138q0 19 10 19 3 0 9-1t15-5l3 11q-20 14-34 20t-20 7q-8 0-14-11t-6-31q-21 22-43 32t-37 10m14-32q15 0 31-7t35-24v-63q-27 4-42 9t-23 9-13 10q-6 6-10 15t-4 20q0 13 5 20t11 9 10 2m256 32l-80-207q-2-7-9-11t-18-6v-10h94v10q-19 3-25 6t-3 11l60 156 57-156q3-8-2-11t-24-6v-10h79v10q-14 4-19 7t-8 10l-69 185q-4 11-15 16t-18 6m201-282q-20 0-20-23 0-14 8-24t20-9q21 0 21 23 0 13-8 23t-21 10m56 275h-105v-11q34-7 34-15v-138q0-17-2-25t-8-12-24-4v-10q15-3 32-8t30-12h8v209q0 3 9 7t26 8v11m115 7q-19 0-38-14t-32-40-13-62q0-21 9-43t23-41 37-30 46-12q12 0 23 3t25 13v-92q0-18-2-27t-9-11-25-4v-10q20-3 36-7t29-9l7 8v309q0 17 2 25t4 11q2 2 9 1t20-6l4 10q-23 15-35 22t-20 6q-8 0-13-11t-7-38q-18 23-37 36t-43 13m17-32q16 0 32-12t31-27v-115q-8-13-23-21t-32-8q-31 0-51 23t-20 69q0 27 10 48t25 32 28 11m464 25h-208v-11q16-3 26-7t9-8v-256q0-3-9-8t-26-7v-11h110v11q-17 3-26 7t-10 8v242q0 8 10 13t36 5h35q15 0 24-3t15-11 13-28l11 4q-2 21-5 37t-5 23m84-275q-20 0-20-23 0-14 8-24t20-9q21 0 21 23 0 13-8 23t-21 10m56 275h-105v-11q34-7 34-15v-138q0-17-2-25t-8-12-24-4v-10q15-3 32-8t30-12h8v209q0 3 9 7t26 8v11m128 7q-10 0-32-8t-49-23v-293q0-15-2-21t-9-8-21-3v-10q17-4 31-8t29-12q2 2 5 5t4 4v192q24-29 47-43t38-14q33 0 54 31t22 84q0 21-8 43t-24 41-37 31-48 12m23-32q20 0 34-11t20-28 7-36q0-32-9-55t-22-35-30-12q-8 0-27 11t-40 42v99q19 15 39 20t28 5m241 25h-112v-11q16-4 26-7t9-8v-142q0-16-2-22t-4-9q-3-3-9-4t-20-2v-10q16-4 32-9t27-11l9 9 3 55q13-27 30-45t39-19q8 0 17 2t18 7q3 2 2 13t-5 25-8 23h-10q-3-20-10-28t-17-8q-11 0-28 19t-28 61v95q0 4 9 8t32 7v11m186 7q-24 0-46-14t-34-39-14-60q0-33 15-63t39-46q11-8 27-14t28-6q24 0 40 10t26 24 13 32 4 33q-4 5-11 9t-15 7h-129q0 25 9 47t25 35 38 13q11 0 20-2t22-9 31-22q3 2 5 5t4 5q-22 24-37 36t-29 15-31 4m-55-149h104q6 0 8-2t1-7q0-6-2-16t-7-20-15-16-26-6q-25 0-42 19t-21 48" />
</svg>