<svg id="fnt-Dawning of a New Day" viewBox="0 0 4162 1000" xmlns="http://www.w3.org/2000/svg"><path id="dawning-of-a-new-day" class="f" d="M10 669l35-272q2-20 3-23l2-14h10q0 12-3 32-14 98-26 212 1 0 4-3t3-3 4-3 3-3 3-2 4-2q7-2 11-2 15 0 28 11t20 25 21 25 30 11q26 0 57-28t51-66 20-64q0 0 0-1t0-1q-21 20-42 28t-47 9-46-10-30-28q-20-34-20-85 0-44 21-89 11-23 30-37t44-14 47 16 35 42q26 52 26 106 0 2 0 4 0 41-16 90t-45 88-67 49q-9 3-18 3-30 0-62-29-3-4-8-12-13-21-25-28-3-2-4-2-11 3-19 15t-11 23q-9 32-23 32m108-251q0 45 21 74t65 29q6 1 12 1 50 0 69-45 9-23 9-48t-8-54q-16-56-54-81-14-10-30-13-22 0-39 14t-26 35q-19 43-19 88m305 125q-14 36-14 67 0 52 56 52 14-2 22-6t15-14 16-15h3q-3 27-19 36t-45 10q-61 0-66-51-2 12-22 29t-36 17q0 0-2 0-30-8-30-36 0-36 37-70 30-27 58-27 15 0 27 8m-107 87q0 7 1 12t5 9 11 3q22-1 44-34t23-57q-8-10-22-10-17 0-36 22t-26 55m187-52q0-27 2-62 5 0 8 3t4 11-1 42 1 43q2 29 11 29 5 0 13-8 17-20 32-62 5-17 5-21t0-6h12q1 5 3 30 7 58 15 67 12-2 17-31t4-47l10-10q4 13 5 17t6 9 9 6 14 1q18-12 22-12t4 2q0 7-12 15t-15 9-4 0q-18 0-24-5-1 2-3 12t-4 17-7 16q-8 20-24 20-7 0-12-11-6-12-11-30t-5-19q-35 62-53 62-22 0-22-87m293 59v-21q0-9 1-31t0-37q-14 3-40 35t-28 34q-20 25-30 36-5 6-14 6v-11l21-68q0-35 12-53 3-4 6-4 5 0 5 16t-5 36-5 33q4-4 24-27t23-28q4-2 12-9 17-16 31-16 7 0 9 5 0 5 0 17t-4 38-4 41q0 23 19 23 14 0 26-8t21-17 18-22 18-18v4q0 24-30 49t-55 25h-16q-8-5-10-9t-3-6-1-7-1-6m106-75l2-6q10-31 16-31 10 0 10 7 0 1 0 3-19 45-19 86 0 19 9 31t29 13q48-19 60-19 4 0 4 2 0 6-26 17t-39 11-22-2-11-4-8-9-7-18-1-31 3-50m51-107 155 182v-21q0-9 0-31t0-37q-13 3-39 35t-29 34q-19 25-30 36-4 6-14 6v-11l21-68q0-35 12-53 4-4 7-4 5 0 5 16t-5 36-5 33q4-4 23-27t24-28q3-2 11-9 18-16 31-16 7 0 9 5 1 5 1 17t-4 38-4 41q0 23 19 23 13 0 26-8t21-17 18-22 18-18v4q0 24-31 49t-55 25h-16q-7-5-9-9t-4-6-1-7 0-6m214-74l-4 100q0 1 0 5t0 5q15-6 44-23t53-24q5 3 5 7 0 1-23 12-70 34-84 50-7 76-11 98t-6 29-6 18-9 17q-13 14-31 14t-33-6-24-17q-1-5-1-16 0-36 39-83 3-3 18-15 41-33 46-39 5-8 5-32 0-1 0-9t0-9q-35 23-59 23-20-1-30-23-3-10-3-24t12-32q21-29 68-43 34 0 34 17m-115 267q0 12 14 20t28 7 25-17 14-43q7-44 7-72v-11q-32 21-60 53t-28 63m19-187q0 11 17 11 30-1 46-23t16-39q0-2 0-3v-5q0-11-5-17t-13-7q-2 0-5 0-22 0-40 25t-18 44q0 7 2 14m537-115l1 19q0 10-2 16t-1 8-3 8-2 7-4 7-3 7-5 8-4 8h10q28 0 83-27l3 4q-46 38-110 41l-43 27q-6 5-26 5t-25-11-6-35 20-53 46-30q12 0 15 10-27 8-47 29t-19 47q0 9 1 15t5 10 17 4q26 0 43-22-5-8-5-27t3-36 13-32 25-16 20 9m-13 24v-1l0-6q0-10-5-12-13 8-21 27t-8 35 5 17q14-8 21-25t8-35m47 231q0-33 4-57t14-66l70-171q2 0 4 0 19 0 19 24 0 35-30 86-19 32-34 43 6 23 40 23 43 0 85-28 4-3 7-7t6-6 8-2q0 15-25 30t-50 23-42 9q0 9 4 25t4 30-6 39-21 51-30 25q-27 0-27-71m14-5q0 58 17 58 13 0 26-42t14-63-7-35-27-23q-12 8-17 42t-6 63m74-257l-27 74v5q13-15 23-37t10-39q0-1-1-4t0-3l-5 4m434 22q-14 36-14 67 0 52 56 52 14-2 21-6t15-14 17-15h2q-2 27-19 36t-44 10q-61 0-66-51-3 12-23 29t-35 17q-1 0-2 0-31-8-31-36 0-36 38-70 29-27 57-27 16 0 28 8m-108 87q0 7 1 12t5 9 12 3q21-1 43-34t23-57q-7-10-21-10-18 0-37 22t-26 55m680-49l1 51q10 79 87 79 4 0 19-2t18-3q-9 14-48 14t-60-19-30-60l-1-57q0-34 8-100t7-99v-30l-157 148-9 74q-4 30-25 61t-47 31q-13 0-22-9t-8-24q2-25 19-55t33-46 40-42q1-5 1-29t-10-67q-1-5-9-5-1 0-5 0-34 27-65 27 0-10 5-12 2-1 6-3t9-3 28-14 27-13l4-1q5 0 9 4t5 10l14 97 166-161 9 9 2 28q0 37-10 110t-11 111m-206-32q-18 17-30 41t-13 44 9 21q17 0 31-15t21-39q14-47 14-80h-5q-1 0-12 11t-15 17m240 66q0-4 0-8 0-31 21-64t53-34q6 0 10 4t4 12-4 20-15 24-16 19-19 19-15 14q-1 4-1 4 0 13 13 21t26 7q33 0 52-12t45-39q4-5 5-8t5-6q5 2 5 9-5 15-20 32t-34 30q-28 16-48 16t-37-13-30-47m75-88q-21 0-39 23t-18 43q0 7 1 10 18-10 37-34t19-42m91 51q0-27 2-62 5 0 8 3t3 11 0 42 1 43q2 29 11 29 5 0 12-8 18-20 33-62 5-17 5-21t0-6h12q1 5 3 30 7 58 15 67 12-2 16-31t5-47l10-10q3 13 5 17t6 9 9 6 14 1q18-12 22-12t4 2q0 7-12 15t-15 9-4 0q-18 0-25-5 0 2-2 12t-4 17-7 16q-8 20-24 20-7 0-12-11-6-12-11-30t-5-19q-35 62-53 62-22 0-22-87m417 91l35-272q2-20 3-23l2-14h10q0 12-3 32-13 98-26 212 1 0 4-3t3-3 4-3 3-3 3-2 4-2q7-2 12-2 14 0 27 11t20 25 21 25 30 11q26 0 57-28t51-66 20-64q0 0 0-1t0-1q-21 20-42 28t-47 9-46-10-30-28q-20-34-20-85 0-44 21-89 11-23 30-37t44-14 47 16 35 42q26 52 26 106 0 2 0 4 0 41-16 90t-45 88-67 49q-9 3-18 3-30 0-62-29-3-4-8-12-13-21-25-28-3-2-3-2-12 3-20 15t-11 23q-9 32-23 32m108-251q0 45 21 74t65 29q6 1 12 1 50 0 69-45 9-23 9-48t-8-54q-16-56-54-81-14-10-30-13-22 0-39 14t-26 35q-19 43-19 88m305 125q-14 36-14 67 0 52 56 52 15-2 22-6t15-14 16-15h3q-3 27-19 36t-45 10q-61 0-66-51-2 12-22 29t-35 17q-1 0-3 0-30-8-30-36 0-36 37-70 30-27 58-27 15 0 27 8m-107 87q0 7 1 12t5 9 12 3q21-1 43-34t23-57q-8-10-22-10-17 0-36 22t-26 55m205-93q5 0 5 12t-5 44-5 38v13q0 6 0 7t2 2 3 1 4 1 5 0q20 0 31-17 6-8 11-15t8-21 6-19 4-20l4-15q2-1 6-1t8 6v2q0 16-7 51t-7 58q5-4 30-19t28-18 7-7 4-2q0 3-13 25-2 2-24 20t-23 21q-16 33-21 108-2 24-8 47-11 42-55 42-5 0-13 0t-14-7-5-17q0-39 27-92t61-87q5-10 5-26t0-21q-29 38-56 38 0 0-1 0-21 0-21-49 0-4 0-20t10-59q0-1 4-3t5-1m52 168q-14 0-43 58t-28 81 16 23q1 0 6 0t13-6 14-16 9-24 6-29 4-31 3-30 2-26q0 0-1 0h-1" />
</svg>