<svg id="fnt-Days One" viewBox="0 0 2589 1000" xmlns="http://www.w3.org/2000/svg"><path id="days-one" class="f" d="M35 644v-304q0-10 7-17t16-6h137q106 0 154 42t48 133-48 132-154 43h-137q-9 0-16-7t-7-16m92-258v212h65q66 0 89-24t24-82-24-82-89-24h-65m332 263q-32-22-32-63t32-63 84-22h81q0-29-12-40t-42-11-42 14-30 15h-36q-7 0-11-4t-4-11q0-70 133-70 58 0 93 26t35 81v151q0 6-4 10t-11 5h-47q-7 0-11-5t-4-10v-8q-38 28-89 28t-83-23m90-93q-18 0-27 8t-10 22 10 22 29 8q38 0 73-22v-38h-75m257 136h9l32 4q35 0 48-50-41 0-69-25t-48-89l-36-118q-1-2-1-5t3-6 9-4h51q7 0 14 5t8 12l32 103q12 38 24 53t30 15l48-171q2-7 8-12t13-5h51q6 0 9 4t3 6 0 5l-64 228q-17 60-43 86t-65 26-56-3-21-7-4-10v-27q0-6 4-11t11-4m258-219q0-79 127-79 134 0 134 70 0 7-4 11t-11 4h-36q-18 0-30-15t-47-14q-48 0-48 23 0 11 19 18t46 13 54 14 46 27 19 48q0 79-134 79t-135-70q0-7 5-11t11-4h36q18 0 30 14t47 15q56 0 56-23 0-11-19-19t-47-13-54-14-46-27-19-47m817 157q-50 44-146 44t-147-44-50-138 50-139 147-44 146 44 50 139-50 138m-67-226q-24-29-79-29t-80 29-25 88 25 87 80 29 79-29 25-87-25-88m162 248v-238q0-6 5-11t10-4h55q6 0 11 4t4 11v16q42-36 89-36t78 29 29 89v140q0 6-4 10t-11 5h-54q-7 0-11-5t-4-10v-140q0-59-47-59-30 0-65 35v164q0 6-4 10t-11 5h-55q-6 0-10-5t-5-10m364-16q-38-36-38-103t38-103 105-36 105 35 37 101v14q0 6-4 10t-11 5h-184q3 30 18 43t47 14 44-15 30-14h36q7 0 11 4t4 11q0 70-133 70-68 0-105-36m48-129h113q-2-57-56-57t-57 57" />
</svg>