<svg id="fnt-Dekko" viewBox="0 0 1162 1000" xmlns="http://www.w3.org/2000/svg"><path id="dekko" class="f" d="M38 410q1-23 11-32t25-9h35q32 0 67 20t60 57 24 82q0 45-24 77t-60 47-67 16q-28 0-40-2-2 1-7 3-5 2-6 2-8 0-13-10t-7-23-1-26l3-202m80 211q24 0 49-10t43-28 18-48q0-32-17-60t-44-45-53-17q-9 0-22 1t-20 1q-4 22-4 48v42q0 82 5 114 1 1 5 1t9 1h31m351-10q10 0 14 5t5 18q0 23-34 30t-65 8q-24 0-46-15t-37-38-14-53q0-41 14-73t39-49 61-18q19 0 37 9t31 28 12 42q0 12-4 20t-10 11l-148 53q8 24 31 31t51 8q10 0 19-3t22-8q8-3 13-5t9-1m-147-59q18-5 42-15t60-24q24-10 33-14-6-14-22-21t-36-6q-12 0-28 8t-31 27-18 45m222 27l7-248q0-7 3-12t7-9 8-3q3 0 7 3t7 8 2 14q0 39-4 105-2 36-3 61t-1 52v4l95-124q4-6 8-9t9-4q10 0 14 5t4 17v3q0 9-12 22t-33 32l-12 12q3 8 7 17t5 14q7 22 14 37 6 13 12 24 6 9 11 22 1 1 3 6t3 10 2 8q0 12-7 20t-15 8q-6 0-10-5t-6-14q0 1-9-24t-36-94l-47 56q0 15 0 24l0 26q0 9-5 18t-14 9q-6 0-10-4t-6-11-2-11l0-20q0-13 2-29 1-8 2-16m218 0l7-248q0-7 3-12t7-9 8-3q4 0 7 3t7 8 3 14q0 39-4 105-3 36-4 61t-1 52v4l95-124q4-6 8-9t9-4q10 0 14 5t4 17v3q0 9-11 22t-33 32l-13 12q3 8 7 17t5 14q8 22 14 37 6 13 12 24 6 9 11 22 1 1 3 6t3 10 2 8q0 12-7 20t-15 8q-6 0-9-5t-7-14q0 1-9-24t-36-94l-47 56q0 15 0 24l1 26q0 9-6 18t-14 9q-6 0-10-4t-6-11-2-11l0-20q0-13 2-29 2-8 2-16m299 93q-25 0-48-18t-36-46-14-54q0-43 15-70t38-40 51-13q29 0 50 15t32 43 11 65q0 34-14 61t-37 42-48 15m67-120q0-22-7-39t-20-26-28-10q-19 0-37 9t-30 24-11 39q0 19 9 37t24 30 31 11q18 0 34-9t26-26 9-40" />
</svg>