<svg id="fnt-Delicious Handrawn" viewBox="0 0 3150 1000" xmlns="http://www.w3.org/2000/svg"><path id="delicious-handrawn" class="f" d="M228 417v9q0 34-8 66t-25 62q-15 28-36 52t-46 43q-7 5-14 9t-15 6q-2 1-5 1t-6 1q-12 1-24-8t-12-22q0-3 1-6t4-5q3-1 3-3t0-4q-5-19-8-40-2-13-4-27t-3-26q-3-37-6-74t-5-74v-27q0-9 3-16t7-14q12-19 28-29t39-15q22-4 41 2t36 20q24 20 37 47t17 58q1 4 1 7t0 7m-150 214q4-2 7-4t6-5q15-12 26-27t23-31q14-22 23-46t14-48q5-25 4-50t-11-48q-4-9-9-18t-12-15q-14-14-30-17t-28 4-24 16q-2 2-3 4t-1 5q0 5 0 10t1 11q4 26 5 53t4 53q1 13 2 25t2 26q1 23 1 46t0 46q0 2-1 4t1 6m158-54q0-23 7-45t18-43q5-10 13-19t17-15q13-9 27-11 15-1 27 7t18 20 4 29q0 4-2 9t-4 10q-6 12-15 23t-21 20q-8 6-17 9t-19 4q-3 0-4 1t-1 4q0 8 1 16t4 16q3 7 6 8t9-3q9-5 17-14 4-4 9-7t9-7q2-2 6-4 7-2 12 1t6 12q0 4-1 7t-1 7q-7 19-19 33t-32 21q-29 7-50-14-11-11-15-24t-7-28q-1-6-1-12t-1-11m94-82q0-4-1-7t-3-3q-3-2-9 2-2 1-3 3t-4 3q-6 8-11 18t-7 19q-3 3 0 5 1 1 3 1t3-1q22-12 31-37 1-1 1-2t0-1m123 124q0 7 0 15t0 15q0 2 0 5t-1 6q-1 10-10 12-10 0-16-6-4-4-6-9t-3-10q-2-9-4-18t-1-18q-3-28-4-55t-2-55q0-40-1-79t1-78q0-4 0-7t1-7q3-7 8-12t13-4q16 0 20 16 2 5 2 9 2 33 2 65t2 65q0 4 0 17t0 30-1 38 0 36 0 29m68-199q-14 6-25-4-3-4-4-11t1-12q3-7 10-11t14-4q15 0 20 13 2 6 0 12t-7 11q-2 2-4 3t-5 3m20 207q2 11-6 15-9 5-18-2-4-3-6-8t-4-9q-2-7-3-15t-2-14q-3-25-5-51t0-50q1-5 2-11t4-11q3-5 7-8t10-3q12 1 17 12 4 9 4 20v69q0 6-1 14t0 19q0 8 0 16t1 17m39-42q-1-25 7-46t23-40q14-18 37-26 10-3 19-2t19 6q4 3 6 7t4 8q3 12-5 20t-19 5q-6-2-11 0t-10 7q-32 36-21 82 4 14 11 17t21-3q10-5 16-14 1-2 3-4t3-3q5-6 12-3 8 4 8 11 1 11-4 20t-11 17q-10 9-21 15t-24 8q-11 2-21-1t-18-11q-10-10-15-22t-8-26q-1-5-1-11t0-11m191-165q-14 6-25-4-3-4-4-11t1-12q3-7 10-11t14-4q15 0 20 13 2 6 0 12t-7 11q-2 2-4 3t-5 3m20 207q2 11-6 15-9 5-18-2-4-3-6-8t-4-9q-2-7-3-15t-2-14q-3-25-5-51t0-50q1-5 2-11t4-11q3-5 7-8t10-3q12 1 17 12 4 9 4 20v69q0 6-1 14t0 19q0 8 0 16t1 17m188-71q-3 49-36 92-6 8-14 13t-18 9q-20 5-38-4-6-4-12-10t-10-12q-13-21-18-43t-3-44q2-21 9-40t21-34q11-12 27-15 8-2 14-1t11 7q2 1 4 1t4 1q14-2 24 4t19 16q9 13 12 27t4 33m-71-37q-6 0-12 1-5 0-7 3t-5 7q-7 18-7 37t5 37q3 8 10 17 3 3 5 3t5-3q5-4 9-9t7-10q3-6 5-13t5-13q2-9 4-19t-1-20q-3-10-8-14t-15-4m231 104q-2 3-5 6t-4 7q-4 5-8 9t-9 9q-17 12-33 10t-27-12q-13-11-19-27-14-31-17-64t6-66q3-16 13-24 5-4 10-6t10 1q6 2 8 7t3 10q0 5 0 9t-1 9q-2 15-2 31t2 32q1 11 3 21t8 21q1 2 2 3 3 6 5 7t8-2q12-7 18-18 8-10 12-21t6-22q5-18 6-36t1-37q0-16 12-24 10-7 22-3t16 19q2 8 2 16t0 17q-1 26-1 52t1 52q1 12 0 26t-1 26q-1 11-11 16-5 2-10 0t-9-6q-3-4-5-7t-2-7q-3-8-6-17t-4-17m173 6q-3-1-7-3t-6-2q-68-26-74-97-2-23 7-43t28-33q12-8 25-11t27 5q5 2 9 6t7 8q26 40 9 84-2 6-7 9t-10 2q-12-1-13-16 0-7 0-14t-1-13q0-5-2-11t-5-9q-6-6-12-2-6 5-9 12t-6 15q-2 17 7 34t24 24q9 5 17 7t18 5q5 1 9 3t9 2q11 5 16 15t2 22q-2 11-11 20-11 13-25 21t-28 17q-9 4-18 8t-19 5q-4 1-9 0t-8-1q-13-4-15-15t1-18q2-7 7-12 4-4 8-5t9 2q3 2 6 1t5-1q7-4 14-8t14-7q2-1 4-3t3-3m337-153q-14 4-27 8t-26 9q-4 2-9 4t-9 4q-6 0-6 8 0 20 1 39t2 39q1 12 2 24t3 24q1 5-2 8t-6 5q-4 1-8-1t-7-5q-3-7-4-14-5-19-8-38t-6-38q-1-9-3-18t-2-18q0-4-1-8t-4-7q-7-7-2-18 3-5 2-9-4-31-4-62t1-61q1-10 1-19t2-19q2-11 10-19 7-7 16-5t14 12q2 5 2 9t1 11q0 19 0 38t0 39q0 13 0 26t0 27q0 5 1 5t6 0q15-5 31-8t31-6q6-1 7-2t1-6q-1-15-1-30t1-29q1-13 2-26t5-25q2-9 7-16 4-4 7-6t9-2q5 1 8 4t5 8q2 8 3 17t1 17q0 22-1 44t-3 44q0 3 0 6t2 6q4 5 1 9-5 6-5 14t-1 15q-1 23-2 47t-2 47v41q0 5 0 9t2 9q2 9-6 14-6 4-14-3-5-3-7-8t-3-10q-3-9-4-19t-1-20q-2-25-2-49t-1-48q-1-4-1-9t1-9m196 152q-3 3-5 6t-4 7q-5 7-11 13t-15 10q-14 7-28 1t-20-20q-11-28-6-54t23-48q10-13 23-18t31-2q1 0 1 0t2 1q2-4 1-8t-1-6q-2-11-5-21t-7-20q-6-13-11-14t-15 8q-16 14-28 34-4 5-4 10 0 11-11 14-3 1-8-1t-8-6q-7-10-5-22 2-11 7-22t11-19q7-10 15-18t18-15q16-10 34-9t34 18q6 7 10 14t7 17q6 15 9 31t6 33q3 22 5 44t3 45q2 13 0 26-1 15-12 21t-24-1q-5-4-7-9t-3-10q-1-3-1-5t-1-5m-42-11q8-9 15-17t13-18q2-3 0-8t-5-6q-4-2-6-1t-4 3q0 1-1 2t-2 2q-6 10-9 20t-1 23m228-83q-9 8-13 17-11 18-17 39t-10 42q-1 5-2 10t-4 9q-8 12-20 11-7 0-11-4t-8-9q-2-4-3-9t-2-10q-2-20-5-41t-4-40q-1-13 0-27t3-27q0-2 1-5t2-4q4-12 16-11 5 1 9 5t5 9q1 12 2 24t4 23q0 2 0 4t2 6q2-1 3-3t1-3q5-10 10-20t11-18q3-4 6-8t7-6q13-11 28-9t25 17q4 8 7 17t3 18q3 15 4 30t4 30q1 9 3 18t3 18q1 3 2 6t5 5q11 5 7 17-5 13-16 16t-21-5q-4-4-7-9t-6-9q-8-15-12-30t-6-31q-1-12-2-24t-4-23q0-1 0-3t0-3m217 66q-4 8-8 14t-7 13q-6 9-13 17t-17 14q-18 12-37 9-22-4-34-25-6-10-9-22t-2-23q0-33 13-59t35-49q7-6 14-11t17-7q9-2 16-2t16 3q1 1 3 1t4-1q0-8 0-17t0-17q0-19 2-38 0-11 0-22t0-22q0-10 0-20t2-19q1-7 2-14t6-12q4-8 12-8 10-1 15 8 4 6 5 12t3 13q1 13 1 26t0 26q0 30 0 60t-1 61q0 17 0 33t0 34-1 34 2 35q0 8 2 15 5 13-7 20-11 5-20-6-2-4-3-8t-3-7q-2-9-4-19t-4-20m-25-86q-5-1-9 1t-8 4q-4 3-8 7t-7 8q-12 16-18 33t-4 36q0 5 0 10t6 6q4 1 7-3t5-7q10-13 16-27t11-30q3-9 5-19t4-19m151-10q3-3 4-6t2-4q5-9 11-17t14-12q12-7 23-9t23 6q8 5 12 14t3 18q-2 9-8 12t-15-2q-5-2-8-2t-7 4q-2 2-4 5t-3 5q-4 8-6 16t-5 16q-5 15-9 31t-6 32q-1 10-2 20t-1 20q0 3 0 7t-2 8q-5 15-20 15-16 2-23-12-2-4-3-9t-1-8q-4-21-6-42t-5-41q-2-21-3-42t0-43q0-14 11-20 9-6 18-2t13 14q3 8 3 16-1 2-1 5t1 7m227 124q-4 3-6 6t-4 7q-5 7-11 13t-14 10q-14 7-29 1t-19-20q-11-28-7-54t23-48q10-13 24-18t30-2q1 0 2 0t2 1q2-4 1-8t-2-6q-2-11-5-21t-6-20q-6-13-11-14t-15 8q-17 14-29 34-4 5-4 10 0 11-10 14-4 1-9-1t-8-6q-6-10-4-22 2-11 6-22t11-19q7-10 15-18t18-15q16-10 35-9t33 18q7 7 10 14t8 17q5 15 9 31t6 33q2 22 4 44t4 45q1 13 0 26-1 15-13 21t-24-1q-5-4-7-9t-3-10q0-3 0-5t-1-5m-43-11q8-9 16-17t13-18q1-3-1-8t-5-6q-3-2-5-1t-4 3q-1 1-2 2t-1 2q-7 10-10 20t-1 23m190-1q5-5 9-12t7-12q5-11 8-22t7-21q4-13 7-26t2-26q0-9 5-15t12-8q16-3 26 12 4 6 6 13 2 7 4 15t4 15q5 16 10 32t14 31q2 3 4 5t5 5q2-3 3-8 4-15 6-29t2-28q0-11 0-22t-1-20q0-6 0-10t-1-10q-2-6 0-12t10-10q12-5 21 6 6 5 9 13 7 17 9 35t0 36q-1 13-2 25t-4 23q-2 10-5 20t-8 19q-2 4-4 7t-5 7q-19 21-46 7-6-2-11-7t-9-9q-16-20-26-45-1-2-2-5t-3-4q-5 13-9 25-4 8-7 15t-7 15q-4 5-9 10t-9 10q-13 11-29 8t-24-11q-13-14-18-29-8-23-11-46t1-47q1-9 3-19t6-17q1-5 4-9t6-7q8-8 18-4t9 16q0 9 0 19t-1 19q0 14 0 28t3 28q1 8 4 16t7 15m326-82q-9 8-13 17-11 18-17 39t-10 42q-1 5-2 10t-4 9q-8 12-20 11-7 0-11-4t-8-9q-2-4-3-9t-2-10q-2-20-5-41t-4-40q-1-13 0-27t3-27q0-2 1-5t2-4q4-12 16-11 5 1 9 5t5 9q1 12 2 24t4 23q0 2 0 4t2 6q2-1 3-3t1-3q5-10 10-20t11-18q3-4 6-8t7-6q13-11 28-9t25 17q4 8 7 17t3 18q3 15 4 30t4 30q1 9 3 18t3 18q1 3 2 6t5 5q11 5 7 17-5 13-16 16t-21-5q-4-4-7-9t-6-9q-8-15-12-30t-6-31q-1-12-2-24t-4-23q0-1 0-3t0-3" />
</svg>