<svg id="fnt-Devonshire" viewBox="0 0 1628 1000" xmlns="http://www.w3.org/2000/svg"><path id="devonshire" class="f" d="M7 399l0-15-2-20q0-6 6-10 28-19 80-31 22-5 36-5 71 0 102 87 11 31 11 66 0 52-27 105t-57 85q-16 17-34 17t-28-14-10-36 8-48 25-34q-2 11-2 24t8 31 21 19 20-14q31-56 31-128 0-85-45-110-13-7-25-7t-26 7q4 22 4 54t-11 105-11 109v16q0 13-6 17t-13 4q-18 0-26-68-3-28-5-37 2-1 5-1 9 0 21 13v-13q-1-39 10-144 1-4 1-15t-2-22q-4 2-14 11-25 20-35 20t-10-18m392 202q0 76-77 76-32 0-47-17t-26-50q-4-13-4-28t13-40 30-43q2-27 12-27 6 0 8 6 10-9 25-18t27-9 25 14 13 28-21 41q-38 48-60 48-16 0-25-27-1 1-5 8t-6 11-5 10q-5 11-5 20 0 21 21 21 34 0 57-15t48-43q2 22 2 34m-82-61q8 0 24-19t16-27-6-7-18 13-20 22q-1 6-1 9 0 9 5 9m90-104l13 1 24-2q17 0 35 17 9 9 9 18 0 15-26 125-1 5-1 9t2 4 6-5q16-20 23-39t9-29 6-26 3-24q2-10 6-51 1-10 5-10t6 8q11 57 11 116t-28 100q-14 22-32 22-7 0-14-4-20-9-31-33t-12-47q0-16 4-30t7-24q6-18 6-23t-10-9-12-11-7-26-5-23 3-4m269 113q0 60-35 107-12 16-28 16t-24-7q-32-27-32-93 0-45 24-116 2-5 4-6t5-1 9-6 18-5 26 10 19 25q14 38 14 76m-41-33q0-46-12-46-5 0-10 9-20 47-20 113 0 17 1 25 41-31 41-101m226 40q0 24-3 42t-18 48-30 31q-7 0-13-7-29-36-29-68 0-9 6-43 9-51 9-57t-2-6-3 4q-13 23-21 52t-11 50-5 56q0 12-7 12-3 0-10-5-27-23-27-63 0-17 3-47t4-42q6-69 14-69 4 0 6 9t2 22 1 23 4 10 8-16 16-33 24-16 22 6q21 11 21 46 0 12-3 29t-5 38-2 24 2 3q4 0 20-20t22-20q5 0 5 7m112-114q13 0 31 10t18 24-11 25-24 11q-21 0-29-19-1-3-3-3t-17 6-19 8-5 5 7 6q89 24 89 73 0 18-14 36t-38 31-48 12-33-12-9-36 17-35q22-15 36-15 3 0 3 2t-8 6-16 13-9 14 12 5q32 0 63-18 7-3 7-8t-10-10-36-14-39-17-14-22q0-4 2-13t3-11q3-17 16-24t57-27q8-3 21-3m219 155q0 39-15 60-11 14-19 14t-16-8q-28-32-28-78 0-15 4-31 6-27 6-35t-1-8q-3 0-40 137-4 14-9 14-14 0-32-46-10-22-10-53 0-35 4-59t5-30 4-19 4-16q6-25 8-36-13 0-13-7 0-4 3-8 28-43 39-77 2-8 8-8 8 0 12 15t4 27q0 29-19 47-22 139-22 146t2 7 7-9 17-36 19-38q11-19 28-19 27 0 27 51 0 41-19 103-1 2-1 4 0 6 5 6t19-15 16-14 3 19m106-274q0 16-14 45t-27 43q-2 3-6 3-12 0-12-20t17-56q4-8 5-16t1-9 0-2 1-2 0-2 1-2 1-1q2-1 8-1t16 6 9 14m5 222q5-9 7-9t4 13 1 33-10 44-28 39q-10 8-19 8t-15-4-10-12q-7-12-15-31t-7-41 4-45 3-30-8-20-8-15 2-5 4-6 6-4 6-5q12-10 21-10t17 7 7 22-8 61q-9 57-9 65t4 9q10 0 51-64m172 9q3 0 3 21t-14 42q-6 12-19 27t-18 20q-13 9-22 9t-12-1-8-4-6-5-5-7-4-7-5-8-3-7q-10-17-10-33t3-30 9-33 7-26q-7 10-20 21-5 4-11 4t-9-6-10-22-6-24 8-20 10-17q2-9 7-9 3 0 12 5t13 20q1 6 4 6 2 0 9-5t16-6 26 16q6 6 6 17t-1 16-3 6q-4 3-7 9t-13 47-11 45 3 4q4 0 32-24t40-35q8-6 9-6m152 47q0 76-77 76-32 0-47-17t-25-50q-4-13-4-28t13-40 29-43q2-27 13-27 5 0 7 6 11-9 26-18t27-9 24 14 13 28-20 41q-39 48-61 48-16 0-25-27 0 1-5 8t-6 11-4 10q-5 11-5 20 0 21 20 21 34 0 58-15t47-43q2 22 2 34m-81-61q8 0 23-19t16-27-5-7-18 13-20 22q-1 6-1 9 0 9 5 9" />
</svg>