<svg id="fnt-Didact Gothic" viewBox="0 0 2837 1000" xmlns="http://www.w3.org/2000/svg"><path id="didact-gothic" class="f" d="M40 667v-341h85q52 0 90 20t58 59 20 92q0 80-44 125t-124 45h-85m38-34h46q61 0 95-34t35-102q0-70-35-103t-95-34h-46v273m327 34h-34v-234h34v234m-17-280q-12 0-20-8t-7-19q0-11 7-19t20-8q11 0 19 8t8 19q0 11-8 19t-19 8m282-83h34v363h-34v-35q-15 20-36 31t-46 12q-33 0-60-16t-41-45-15-65q0-36 14-64t41-44 60-16q26 0 47 11t36 32v-164m-83 340q24 0 43-12t29-34 11-48-11-49-29-33-43-12q-23 0-42 12t-29 33-10 48q0 28 10 49t29 34 42 12m363-211h34v234h-34v-35q-14 20-35 31t-46 12q-34 0-60-16t-42-45-15-65q0-36 15-64t41-44 60-16q25 0 46 11t36 32v-35m-82 211q24 0 42-12t30-34 10-48-10-49-30-33-42-12q-24 0-42 12t-29 33-11 48q0 28 11 49t29 34 42 12m281 31q-34 0-61-16t-41-45-15-64 14-65 42-44 60-16q28 0 49 12t39 35l-25 19q-24-35-63-35-24 0-43 12t-29 33-10 49 10 48 29 34 43 12q24 0 39-9t28-24l27 19q-17 20-41 32t-52 13m183-8h-34v-203h-40v-31h40v-78h34v78h54v31h-54v203m325 8q-43 0-75-22t-48-61-16-95q0-56 16-96t48-62 75-21q39 0 68 18t49 52l-29 21q-32-57-88-57-47 0-74 38t-26 107q0 67 27 105t73 39q26 0 46-13t33-37 12-60h-80v-31h117v31q0 47-16 79t-46 48-66 17m283 0q-34 0-60-16t-42-45-15-65 15-64 41-44 60-16 60 16 41 44 15 65-15 64-41 45-59 16m-1-31q24 0 42-12t30-34 10-48-10-49-30-33-42-12q-24 0-42 12t-29 33-11 48q0 28 11 49t29 34 42 12m211 23h-34v-203h-40v-31h40v-78h34v78h54v31h-54v203m202-242q25 0 45 10t33 29 13 46v157h-34v-142q0-69-62-69-36 0-54 25t-18 69v117h-34v-363h34v168q12-23 31-35t46-12m208 242h-34v-234h34v234m-17-280q-11 0-19-8t-8-19q0-11 8-19t19-8q11 0 19 8t8 19q0 11-8 19t-19 8m200 288q-34 0-60-16t-42-45-15-64 15-65 41-44 60-16q29 0 50 12t39 35l-25 19q-25-35-64-35-23 0-42 12t-29 33-11 49 11 48 29 34 42 12q24 0 40-9t28-24l26 19q-16 20-41 32t-52 13" />
</svg>