<svg id="fnt-Diphylleia" viewBox="0 0 2202 1000" xmlns="http://www.w3.org/2000/svg"><path id="diphylleia" class="f" d="M146 665h-133q-2 0-4-1t-3-3q-1-3 0-6t6-4q16-2 28-10t12-19l14-257q0-6-6-11t-14-8-13-4q-7-2-5-8 1-3 4-4t5 0h127q52 0 88 22t56 60 16 85q-2 53-25 91t-62 57-91 20m-47-288l-13 266h62q20 0 43-8t45-24 35-45 17-67q3-39-11-73t-42-55-72-21h-79q10 1 13 6t3 11-1 10m282-43q-1-5 5-8t15 0 19 6 13 14q4 10-3 19t-17 13q-4 1-13 0t-10-10q0-4-2-14t-7-20m8 307l11-178q-1 0-3 0t-6 3q-20 10-33-4 8-6 20-14t22-15 15-8q7-3 12 0t4 9l-11 194q0 6 2 11t10 5q5 0 13-4t14-13q2-3 6-2t3 6q-3 15-17 28t-32 14q-15 0-23-10t-7-22m175-160l-8 243-1 24q0 14-7 21t-25 6l10-255q-16 25-25 54-3 0-6-4t-1-14q5-19 13-37t20-32l2-49q0-12 10-18t20 0l-1 34q20-18 42-26t42-6q28 3 47 21t26 47 4 60q-3 29-16 53t-32 42-41 23q-14 4-32 2t-30-9q-5-4-5-9t2-6q13 8 31 8t36-11q18-11 32-33t19-53q4-28-1-51t-17-39-32-18q-18-4-38 5t-38 27m228 185l10-317q-1 0-3 0t-6 3q-20 11-34-4 9-6 21-14t23-15 15-8q7-3 11 0t5 9l-7 194q7-25 23-46t38-34 43-13q14 0 26 5t20 18 6 37l-8 145q-1 6 1 11t11 5q5 0 12-4t14-13q3-3 6-2t3 6q-3 15-17 28t-32 14q-15 0-22-10t-7-22l8-159q1-12-6-21t-28-9q-9 0-24 6t-31 21-26 37-11 54l-3 76q0 17-8 20t-23 2m439-153q7-33 1-54-2-2-6-2t-9-3q-3-2-3-7t4-9q5-6 15-10t17-4 11 8q3 10 3 26t1 33-3 34q-5 38-14 75t-28 74q-21 41-49 69t-63 30q-21 1-40-8t-24-24q-3-7 0-13t12-11q8-4 16-4t10 6q1 3 1 7t-2 6q1 9 9 15t23 5q15-1 28-11t26-26 21-31q14-25 24-53t14-46l-2-1q-6 13-17 30t-24 32-25 24q-4 3-9 2t-7-4l-67-200q-1 0-3 1t-4 5q-4 4-12 7t-16-2q6-8 14-18t15-20 11-11q5-6 10-4t8 7l65 207q16-16 30-38t24-45 14-44m101 130l16-291q-1 0-3 0t-6 3q-20 10-33-4 8-6 20-14t22-15 15-8q7-3 12 0t4 9l-16 306q0 6 2 11t10 6q5 0 13-5t14-12q3-4 6-2t3 6q-3 17-17 29t-32 12q-15 0-23-10t-7-21m128 0l16-291q-1 0-3 0t-6 3q-20 10-33-4 8-6 20-14t22-15 15-8q7-3 12 0t4 9l-16 306q0 6 2 11t10 6q5 0 13-5t14-12q3-4 6-2t3 6q-3 17-17 29t-32 12q-15 0-23-10t-7-21m218 3q20 2 36-5t27-16 16-18q2-5 8-6t10 3q-2 5-8 16t-18 22-29 20-43 8q-32 0-57-14t-40-41-13-60q1-32 13-57t32-44 43-27 46-9q22 0 35 7t22 16 11 19 4 15q0 20-13 36t-32 29-45 18-51 6q-9 0-12-5t-2-10q19 0 39-5t40-16 30-22 12-25q0-19-12-31t-31-12q-25 0-46 15t-32 41-14 55q-1 25 7 47t26 35 41 15m158-312q-2-5 4-8t16 0 18 6 13 14q4 10-3 19t-16 13q-5 1-14 0t-9-10q0-4-2-14t-7-20m8 307l10-178q0 0-2 0t-7 3q-20 10-33-4 8-6 20-14t23-15 14-8q7-3 12 0t5 9l-11 194q-1 6 1 11t11 5q5 0 12-4t14-13q3-3 6-2t3 6q-3 15-17 28t-32 14q-15 0-22-10t-7-22m193 31q-21 0-40-12t-31-34-12-54q0-28 10-55t29-48 41-34 52-13q28 0 46 9t27 17l-6 179q-1 6 1 11t11 6q5 0 12-5t14-12q3-4 6-3t3 6q-3 16-17 29t-32 13q-15 0-22-10t-7-21l2-52q-6 19-18 38t-29 32-40 13m-46-99q0 18 6 35t18 29 29 11q15 0 29-11t25-29 19-38 8-40l2-44q0-8-1-13t-3-9q-5-9-17-16t-26-6q-21 0-38 12t-28 33-17 42-6 44" />
</svg>