<svg id="fnt-DM Mono" viewBox="0 0 2071 1000" xmlns="http://www.w3.org/2000/svg"><path id="dm-mono" class="f" d="M107 667h-74v-350h74q86 0 127 47t41 128-41 128-127 47m-32-312v273h31q46 0 73-17t41-47 12-72-12-72-41-48-73-17h-31m291 312h-41v-350h45l80 166 80-166h45v350h-41v-269l-68 141h-32l-68-141v269m600 0h-41v-350h45l80 166 80-166h45v350h-41v-269l-68 141h-32l-68-141v269m384 6q-35 0-62-16t-42-46-16-68 16-69 42-45 62-16 62 16 43 45 15 69-15 68-43 46-62 16m0-40q22 0 39-10t28-29 10-51-10-51-28-30-39-9q-21 0-38 9t-28 30-11 51q0 46 23 68t54 22m236 34h-42v-248h35l5 37h2q10-18 32-31t49-12q46 0 68 27t23 78v149h-42v-144q0-33-14-52t-45-19q-30 0-50 20t-21 59v136m364 6q-35 0-62-16t-42-46-16-68 16-69 42-45 62-16 62 16 43 45 15 69-15 68-43 46-62 16m0-40q22 0 39-10t28-29 10-51-10-51-28-30-39-9q-21 0-38 9t-28 30-11 51q0 46 23 68t54 22" />
</svg>