<svg id="fnt-DM Serif Text" viewBox="0 0 2994 1000" xmlns="http://www.w3.org/2000/svg"><path id="dm-serif-text" class="f" d="M134 667h-122v-11l10-3q16-5 16-25 0-29 0-59t0-60v-18q0-29 0-58t0-58q0-20-16-25l-10-3v-11h131q53 0 91 20t58 56 21 89q0 53-23 90t-62 56-94 20m-24-15h26q35 0 57-14t33-47 11-90-11-89-32-47-56-14h-28q0 34 0 69t0 71v17q0 38 0 73t0 71m294 15h-70v-11l10-3q9-3 13-10t3-18v-247q0-10-2-17t-13-9l-11-5v-11h95l94 245 89-245h97v11l-8 3q-9 3-13 9t-3 16q-1 29-1 58t0 58v21q0 29 0 58t1 57q0 11 2 16t12 9l10 4v11h-121v-11l11-4q9-3 11-9t3-16v-108l1-134-102 282h-28l-108-279 2 114v124q0 11 3 17t13 9l10 4v11m545 8q-28 0-56-7t-47-17l3-70h14l16 35q7 14 14 24t20 14q9 4 16 5t18 1q30 0 48-16t18-41q0-24-13-37t-39-26l-20-9q-42-19-67-43t-24-65q0-30 15-52t43-32 63-12q26 0 49 7t41 19l-3 62h-15l-18-37q-8-17-16-24t-17-9q-6-1-11-2t-11 0q-24 0-42 14t-18 39q0 24 14 39t39 27l22 9q49 21 70 45t21 61q0 44-34 71t-93 27m277-256q31 0 54 13t34 36 13 52q0 7-1 12t-2 11h-150q0 52 19 74t55 23q25 0 40-9t29-23l8 8q-15 27-41 42t-61 16-63-15-42-44-15-67q0-41 17-70t46-44 60-15m-3 15q-14 0-25 8t-17 29-7 58h89q6-50-4-73t-36-22m254 233h-125v-10l8-2q10-3 13-9t4-16v-146q0-11-4-17t-13-8l-8-2v-9l82-29 6 6 4 44v3q8-14 19-26t25-19 27-8q19 0 29 10t9 26q0 17-9 25t-23 9q-20 0-35-18l-1-1q-5-6-11-7t-12 7q-5 5-10 11t-7 16v131q0 10 4 16t13 9l15 4v10m151-275q-17 0-28-11t-12-26q0-17 12-27t28-10 28 10 11 27q0 16-11 26t-28 11m57 275h-115v-10l8-2q10-3 13-9t4-16v-92q0-15 0-29t0-27q0-10-4-16t-14-7l-7-2v-9l88-29 6 6-2 71v135q0 10 4 16t13 9l6 1v10m151 0h-129v-10l8-2q20-5 20-24 0-18 0-35t1-34v-120h-29v-11l11-2q10-1 15-7t6-16q6-20 15-35t22-27q19-18 40-25t41-7q19 0 35 7t17 27q0 13-8 20t-22 8q-23 0-41-27l-6-7q-6-7-12-6t-8 10q-4 16-7 38t-2 45h57v15h-57v120q0 17 0 33t0 34q0 20 20 25l13 3v10m374 0h-154v-11l20-4q21-4 21-24v-137q0-35 0-70t-1-70h-39q-16 0-24 9t-15 24l-17 37h-14l2-85h287l3 85h-14l-18-37q-7-16-15-24t-23-9h-40v277q0 20 21 24l20 4v11m214-248q32 0 54 13t35 36 12 52q0 7 0 12t-2 11h-151q1 52 19 74t55 23q25 0 41-9t28-23l8 8q-15 27-41 42t-61 16-62-15-43-44-15-67q0-41 18-70t46-44 59-15m-2 15q-15 0-26 8t-17 29-7 58h90q5-50-4-73t-36-22m204 233h-79v-10l13-3q11-2 18-7t13-13l55-76-65-102q-5-8-10-12t-13-6l-8-2v-9h125v9l-8 2q-9 2-11 8t4 14l38 58 41-57q6-8 5-14t-9-8l-11-3v-9h77v9l-12 3q-11 2-17 7t-12 14l-54 70 66 102q11 17 32 23l10 2v10h-135v-10l8-1q9-3 11-9t-3-13l-41-63-44 62q-5 8-3 14t10 8l9 2v10m298 7q-31 0-49-16t-17-49q0-12 0-23t0-25v-119h-35v-11l13-2q15-2 25-9t19-18l32-45h15l-1 70h57v15h-58v171q0 18 8 27t19 9q10 0 18-5t16-13l7 8q-10 16-27 25t-42 10" />
</svg>