<svg id="fnt-Do Hyeon" viewBox="0 0 1908 1000" xmlns="http://www.w3.org/2000/svg"><path id="do-hyeon" class="f" d="M26 667v-341h155q17 0 31 7t26 20 17 28 7 35v161q0 19-7 35t-17 28-26 20-31 7h-155m62-63h78q7 0 13-3t11-8 7-12 3-15v-140q0-7-3-14t-7-12-11-8-13-3h-78v215m305-192h21q22 0 39 7t29 19 19 29 7 38v69q0 21-7 38t-19 29-29 19-39 7h-21q-21 0-39-7t-30-19-18-29-6-38v-69q0-21 6-38t18-29 30-19 39-7m21 58h-21q-15 0-26 10t-11 27v65q0 16 11 27t26 10h21q16 0 26-10t10-27v-65q0-17-10-27t-26-10m519-144v341h-63v-142h-110v142h-63v-341h63v142h110v-142h63m241 86l-102 342h-55l26-88-77-254h55l49 163 48-163h56m21 168v-77q0-19 7-35t19-29 26-20 30-7h57q20 0 35 8t25 21 16 29 6 31v64h-162v14q0 18 10 25t27 8h116v56h-129q-17 0-32-7t-27-18-17-28-7-35m60-65v3h103v-3q0-19-10-32t-27-13h-31q-8 0-14 4t-11 10-8 14-2 17m285-103h21q22 0 39 7t29 19 19 29 7 38v69q0 21-7 38t-19 29-29 19-39 7h-21q-21 0-39-7t-30-19-18-29-6-38v-69q0-21 6-38t18-29 30-19 39-7m21 58h-21q-15 0-26 10t-11 27v65q0 16 11 27t26 10h21q16 0 26-10t10-27v-65q0-17-10-27t-26-10m247-1h-12q-13 0-22 3t-12 9-7 13-1 17v156h-59v-255h59v7q17-7 37-7h26q22 0 39 8t28 19 17 28 6 32v168h-58v-156q0-9-2-17t-6-13-12-9-21-3" />
</svg>