<svg id="fnt-Doppio One" viewBox="0 0 2676 1000" xmlns="http://www.w3.org/2000/svg"><path id="doppio-one" class="f" d="M44 667v-349h125q20 0 37 3t33 9 28 20 21 31 14 46 4 63q0 37-4 65t-13 47-20 32-27 20-34 10-39 3h-125m59-55h51q12 0 24 0t22-5 18-11 15-21 9-34 3-52q0-28-3-48t-9-32-14-21-19-10-22-5-24 0h-51v239m254-74q0-33 8-58t22-43 38-26 54-9 56 9 38 26 21 43 8 58-8 58-21 43-38 26-56 9-54-9-38-26-22-43-8-58m122 87q20 0 32-6t18-16 9-28 3-37q0-21-3-37t-9-28-18-17-32-5q-19 0-31 5t-18 17-9 28-3 37q0 21 3 37t9 28 18 16 31 6m244 32v128h-58v-376h43l7 19q13-7 29-13 14-5 31-9t38-4 36 7 25 25 16 42 5 62q0 38-6 64t-18 42-29 23-40 7q-17 0-31-2t-25-7q-13-3-23-8m0-193v151q7 2 16 4 7 1 18 2t23 1q16 0 26-3t17-12 8-26 2-45q0-23-1-38t-7-26-14-14-23-5q-13 0-24 2t-21 4q-11 2-20 5m297 193v128h-58v-376h43l7 19q13-7 29-13 14-5 32-9t38-4 35 7 26 25 15 42 5 62q0 38-6 64t-18 42-29 23-40 7q-16 0-31-2t-25-7q-12-3-23-8m0-193v151q7 2 16 4 8 1 18 2t23 1q16 0 27-3t16-12 8-26 3-45q0-23-2-38t-7-26-14-14-23-5q-12 0-24 2t-21 4q-10 2-20 5m273-99q-10 0-16-1t-11-5-5-10-2-17 2-16 5-10 11-6 16-1 17 1 10 6 5 10 2 16-2 17-5 10-10 5-17 1m-29 302v-258h58v258h-58m126-129q0-33 7-58t22-43 38-26 55-9 55 9 38 26 22 43 7 58-7 58-22 43-38 26-55 9-55-9-38-26-22-43-7-58m122 87q19 0 31-6t19-16 8-28 3-37q0-21-3-37t-8-28-19-17-31-5q-19 0-31 5t-19 17-9 28-2 37q0 21 2 37t9 28 19 16 31 6m441 49q-22 0-42-3t-35-11-28-21-21-34-13-47-4-64q0-55 10-91t28-56 45-28 60-8q22 0 42 4t35 11 28 22 20 33 13 48 5 65-5 64-13 47-20 34-28 21-35 11-42 3m0-54q24 0 40-5t25-20 13-39 4-62q0-39-4-63t-13-39-25-21-40-5-40 5-25 21-13 39-4 63q0 37 4 62t13 39 25 20 40 5m211 47v-258h43l7 19q13-7 29-13 14-5 32-9t38-4q38 0 56 20t18 62v183h-58v-176q0-10-1-17t-6-12-12-7-23-2q-14 0-26 2t-21 4q-10 2-18 5v203h-58m286-132q0-40 11-66t28-41 39-21 46-5q29 0 49 8t31 22 16 35 4 45q0 11-1 24t-2 25h-161q0 17 4 29t11 19 22 11 34 3q17 0 32-1t26-2q13-1 24-3v41q-13 4-27 8-13 3-29 6t-36 2q-29 0-51-7t-38-24-24-43-8-65m59-18h112v-9q0-15-2-26t-7-17-16-11-28-3q-18 0-30 4t-18 13-8 20-3 29" />
</svg>