<svg id="fnt-Dorsa" viewBox="0 0 471 1000" xmlns="http://www.w3.org/2000/svg"><path id="dorsa" class="f" d="M10 317h42q34 2 34 31v287q0 32-37 32h-39v-350m40 7h-22v336h21q12 0 16-6t3-21v-284q0-13-4-19t-14-6m132 121v193q0 31-38 31t-38-32v-193q0-31 38-31t38 32m-18 192v-190q0-15-3-21t-16-6-17 5-4 20v191q0 14 3 20t16 6 16-5 5-20m38-220h17v0q9-3 22-3 37 0 37 33v34h-18v-34q0-15-4-22t-16-6-16 7-4 21v220h-18v-250m97 68v-40q0-31 37-31t38 33v31h-17v-31q0-14-4-21t-16-7-17 7-4 21v36q0 15 5 24 7 11 17 20t16 16 10 15q10 18 10 39v41q0 31-38 31t-37-33v-34h17v34q0 14 4 21t16 7 16-7 5-21v-35q0-32-16-50-5-6-14-15t-19-21-9-30m96 152v-97q0-31 39-31 10 0 19 3v-65q0-14-4-21t-16-7-17 7-4 21v32h-17v-34q0-31 37-31t38 33v220h-17v-1q-9 3-22 3-36 0-36-32m17-1q0 14 4 20t15 6 16-4 6-17v-96q0-16-4-23t-15-6-17 5-5 20v95" />
</svg>