<svg id="fnt-Dr Sugiyama" viewBox="0 0 2256 1000" xmlns="http://www.w3.org/2000/svg"><path id="dr-sugiyama" class="f" d="M122 597q3 33 3 40 0 11-9 11t-10-8q0-2-1-8t-2-18-2-22l-1-1q-26 0-26 31 0 22 24 39t49 17 57-23q-9-7-27-20-37-29-55-38m-26-221q6 0 8 7t3 14 11 154q17-5 31-5t31 6 25 12 26 19 23 17q13-23 13-49t-24-67-59-77-78-64-76-26q-26 0-53 25-21 23-30 41-3 5-7 5t-7-3-4-6l1-4q12-23 51-59 19-19 43-32t48-12 54 12 62 34 57 52 43 66 16 78-32 97q18 11 36 11 5 0 14-7t13-6q7 0 7 7 0 14-28 38t-55 25q-14 0-33-10-66 66-142 66-28 0-43-15t-15-44 20-63 52-53q-13-149-14-152t-3-6-3-8 6-12 12-6m256 225l-13 1q-9 0-9-4 0-7 17-27t32-20q6 0 11 4t5 8l3 23q1 2 3 2t8-8q21-25 37-25 7 0 11 2t9 8 6 6q3-1 7-1 5 0 5 6t-19 25-29 19-16-9-10-8q-11 0-11 12 0 9 8 30t8 26q0 10-10 15t-23 6-19-4-8-11l14-60q0-16-17-16m517-241q-3 0-6-2t-2-5 3-7 2-8q0-12-12-17t-24-5q-37 0-77 25t-47 60q2 21 20 39t43 31 47 27 40 32 16 38-14 37-28 31-14 13 2 1q30 0 83-33l5-4q4-2 5-2t4 3 2 7-6 7q-29 27-109 52t-143 25q-87 0-87-51 0-7 15-21 23-21 28-21t25 12 52 25 61 13 47-19 16-39-17-36-41-29-49-25-41-31-17-41q0-35 39-74t91-63 87-24q45 0 45 30 0 18-17 33t-27 16m268 258q-10 18-38 41t-48 24q-40 0-42-49 0-4-2-4-1 0-10 12t-26 24-33 12-28-10-10-29 11-46 20-29q5 0 8 5t4 10 2 13 11 18 24 10q25 0 41-43 0-1 1-3t1-4 2-3 2-3q7-6 11 0 3 4 4 14 0 16 13 31t36 16 35-13q5-6 10-6 4 0 4 4t-3 8m78 97q-16 23-20 41t-5 43 14 27q11 0 11-71 0-25 0-40m0-17q-1-16-1-49-1 0-8 6t-14 13-19 14-27 6-26-9-9-26q0-34 33-71t74-37q13 0 20 6t8 15q0 8-6 15-10 12-26 12-6 0-6-4 0-2 1-4t1-7q0-10-9-10-16 0-26 14t-11 26 6 19 15 7 18-8 14-17q3-13 15-13 5 0 5 7t-4 18-4 21-1 40q30-36 55-59 6-6 11-6t6 4-6 9q-43 39-66 67 1 36 1 59 0 61-9 98t-35 38q-17 0-26-16t-9-43q0-54 65-135m65-187q-7-8-7-21t7-21 20-8 19 8 8 21-8 21-19 9-20-9m104 109q5-4 9-4 7 0 7 9 0 13-31 37t-53 25-35-16-13-41 9-49 17-23q4 0 4 12t3 26 15 26 31 13 37-15m115 197q12 0 12-99 0-21 0-31-32 42-32 76 0 20 5 37t15 17m-79-260l-2 20q0 22 14 36t35 16q13-1 23-8t16-12l4-7q0-17 5-28 7-20 16-20h2q5 2 5 16 0 6-11 24l-4 6q0 39 0 57 29-27 43-45 7-5 10-5t4 4-6 9q-15 12-50 51l1 76q0 62-8 94t-32 32q-19 0-32-19t-12-43q0-44 18-76t52-65q-1-36-1-40t-3-3-6 5q-18 18-26 26-21 21-43 21t-35-15-12-41 10-49 19-22q6 0 6 5m261 46l-2 14q0 9 8 18t18 10q8 0 13-3 11-8 14-11t9-2 6 4q0 5-23 32-8 8-22 18t-26 9-17-4-8-11q-3-11-3-27 0-2-3-2t-11 10q-28 29-46 29t-26-9-9-23q0-25 13-47t31-36q40-29 62-29 33 1 33 23 0 8-7 16t-13 8-17-11-23-10-20 10-8 26q0 26 27 26 11 0 18-5t11-12q8-17 15-17 6 0 6 6m165 57l1-8q0-22-5-22t-13 13-18 25-17 13q-5 0-14-16t-20-32-20-16q-2 0-2-2 0-8 19-29t27-21 24 26 22 26 22-21 27-20 14 7 6 17 2 17 4 8q5 0 25-25t31-25q10 0 35 32 9 12 22 21t23 10 18-3 14-3 6 4q0 2-2 4t-8 7-11 10-12 10-13 10q-15 9-29 9t-29-15-28-30-17-14-18 15-25 30-22 15-14-9-5-18m343-57l-2 14q0 9 8 18t18 10q8 0 13-3 11-8 14-11t9-2 6 4q0 5-23 32-8 8-22 18t-26 9-17-4-8-11q-3-11-3-27 0-2-3-2t-11 10q-28 29-46 29t-26-9-9-23q0-25 13-47t31-36q40-29 62-29 33 1 33 23 0 8-7 16t-13 8-17-11-23-10-20 10-8 26q0 26 27 26 11 0 18-5t11-12q8-17 15-17 6 0 6 6" />
</svg>