<svg id="fnt-DynaPuff" viewBox="0 0 2433 1000" xmlns="http://www.w3.org/2000/svg"><path id="dynapuff" class="f" d="M101 678q-32 0-49-4t-24-11-7-16q0-14 17-24t62-12l-8 10q-6-26-8-60t-2-70 3-70 9-57l43-3q-11 5-27 8t-34 3q-32 0-48-7t-15-19q0-22 27-35t82-12q66 0 111 22t69 60 24 91q0 45-16 82t-46 66-71 43-92 15m71-77q17 0 36-14t33-40 13-66q0-29-8-51t-21-36-28-22-27-7q-11 0-17 13t-8 38-2 64q0 59 6 90t23 31m258 165q-27 0-27-29 0-16 11-38t32-47 52-52l0 4q-67-66-101-116t-34-87q0-18 9-28t25-10q33 0 65 48t62 146h2q19-103 40-151t51-48q14 0 21 9t7 28q0 14-7 38t-17 53-26 62-32 63q-45 81-76 118t-57 37m309-410q16 0 21 13t6 38q0 6-1 13t-2 12l-1-10q12-32 37-51t53-18q31 0 52 18t31 49 10 74q0 27-2 52t-6 47-8 35q-6 17-16 25t-22 9-20-10-7-25q0-17 2-42t5-49 2-46q0-70-46-70-24 0-41 22t-22 62q-1 13-1 33t0 40-1 33q-2 30-12 43t-25 13q-18 0-28-17t-9-58q0-21 1-47t2-53 5-47q5-41 14-65t29-23m486 316q-17 0-24-14t-7-42l5 3q-28 54-106 54-35 0-59-13t-35-34-11-46q0-43 30-68t80-25q32 0 56 9t41 27l-8-1q-4-51-22-73t-52-21q-19 0-36 6t-30 12-26 6-19-8-6-20q0-18 17-34t46-26 62-10q40 0 69 19t44 57q13 32 19 72t5 84q0 34-3 53t-11 25-19 8m-111-56q17 0 34-5t28-14 12-24q0-12-10-20t-26-11-33-4q-31 0-47 10t-15 28q0 19 14 29t43 11m346-309q60 0 88 31t28 80q0 34-16 59t-42 38-61 14q-16 0-34-3t-37-14l3-6q4 12 6 30t5 38 2 35q0 30-10 45t-29 16q-16 0-25-10t-13-33-3-61q0-74 6-127t24-82q13-23 40-36t68-14m-9 163q30 0 48-16t19-46q0-20-13-34t-41-13q-21 0-36 9t-23 26-7 37q0 20 12 28t41 9m393 194q-13 0-21-10t-9-24-3-31l3-2q-5 22-20 37t-33 24-38 8q-26 0-47-12t-32-37q-12-26-18-67t-7-82q0-23 2-43t7-32q4-13 12-19t20-6q15 0 23 11t10 31q2 17 3 41t1 48 3 41q3 30 15 44t31 15q26 0 40-20t14-56q0-18-2-41t-4-44-2-36q0-23 8-34t22-10q12 0 20 7t13 18q7 15 12 41t8 59 3 69q0 56-7 84t-27 28m182-278h-6q-4-22-4-43 0-36 19-57t65-21q28 0 40 8t13 27q0 32-37 35-18 2-29 7t-15 15-6 31l-9-1q13-5 29-7t31-3q22 0 35 8t13 27q0 19-14 28t-34 10q-13 0-27-2t-27-6l3-7q5 25 8 55t6 61 2 57q0 17-5 31t-14 24-23 9q-21 0-30-17t-9-42q0-24 2-54t7-63 12-62l6 5q-26 11-65 11-21 0-33-8t-11-25q0-18 14-28t37-9q16 0 30 1t26 5m266 0h-5q-5-22-5-43 0-36 19-57t66-21q28 0 40 8t12 27q0 32-36 35-19 2-29 7t-15 15-6 31l-9-1q12-5 28-7t32-3q21 0 34 8t14 27q0 19-14 28t-35 10q-12 0-26-2t-27-6l2-7q5 25 9 55t5 61 2 57q0 17-4 31t-14 24-23 9q-21 0-30-17t-9-42q0-24 2-54t7-63 11-62l6 5q-25 11-65 11-21 0-32-8t-12-25q0-18 14-28t38-9q16 0 30 1t25 5" />
</svg>