<svg id="fnt-Dynalight" viewBox="0 0 1631 1000" xmlns="http://www.w3.org/2000/svg"><path id="dynalight" class="f" d="M140 671q-12 0-23-3t-20-8-17-12-16-13q-14 18-29 27t-34 8q-7 0-13-2t-13-6-8-11-4-16q0-10 4-18t11-16 17-11 22-3q10 0 19 4t19 13q7-15 15-34t18-43l32-76h-29q-12 0-24-2t-21-9-15-13-6-20q0-17 11-33t31-29 49-21 64-7q27 0 52 9t44 28 32 45 12 60q0 24-7 49t-17 48-28 44-36 37-43 25-49 9m90-220h-79l-47 113q-15 35-30 57 8 7 15 13t15 11 17 8 19 3q21 0 40-9t35-24 29-36 22-43 15-47 5-47q0-26-7-48t-20-40-34-27-49-9q-28 0-51 6t-39 17-25 23-9 26q0 7 2 13t8 9 14 7 23 2h30l36-85h31l-36 85h79l-9 22m-231 207q7 0 14-2t12-7 11-13 11-17q-9-8-17-13t-17-6q-9 0-16 3t-12 9-7 11-3 11q0 11 6 18t18 6m515-85l6 5q-12 15-23 27t-22 23-22 21-23 20l-50 114-36 10q29-65 52-117 10-22 20-44t17-39 13-29 6-14q1-1 1-3t-2-1q-2 0-4 3-16 24-27 45t-22 38-21 25-24 10q-9 0-14-6t-6-17q0-4 1-9t2-9 2-7 2-5l37-87q0-2 0-3 0-1 0-2t-2-1q-3 0-5 3l-48 60-6-5 55-68q6-8 13-14t14-6q8 0 11 4t3 9-2 10-4 12l-37 87q-3 6-4 12t-2 11q0 5 3 7t6 1q4 0 9-5t10-14 13-20 13-23 13-24 13-21q8-14 14-23t11-14 9-8 12-2q5 0 8 3t3 6q0 4 0 7t-2 6l-61 140q17-14 36-33t41-46m56-46q0-2 0-3 0-1-1-2t-2-1q-2 0-4 3l-48 60-6-5 54-68q7-8 14-14t14-6q7 0 11 4t3 9-2 10-4 12l-34 80q-2 4-2 5 0 3 2 3 3 0 6-5l51-76q8-12 14-20t12-13 10-8 11-2q9 0 14 4t5 11q0 4-1 8t-3 8l-42 104q-1 3-2 5t-1 4q0 3 2 4t3 1q3 0 8-4t11-10l44-55 6 5-54 67q-5 7-11 12t-9 8-9 4-9 1q-8 0-13-4t-4-11q0-6 2-15t9-20l39-93q1-2 1-4 0-5-5-5-2 0-4 1t-5 5l-80 120q-10 14-17 20t-14 6q-11 0-11-11 0-5 2-14t8-20l41-95m243 98q-1 2-1 5t-1 4q0 3 1 4t4 1q3 0 8-4t10-10l45-55 6 5-54 67q-6 7-11 12t-10 8-9 4-9 1q-7 0-12-4t-5-11q0-8 3-15t8-20q2-4 5-11t6-14 6-15 6-14 4-10 1-5q0-2-1-2-2 0-5 3-1 2-6 9t-10 15-14 19-15 20-14 18-11 12q-12 12-21 19t-18 6q-2 0-6-1t-7-4-5-9-2-14q0-12 6-28t16-31 24-32 29-27 34-21 35-10v5q-14 4-28 13t-26 21-21 26-17 26-11 25-4 20q0 5 1 8t4 3q3 0 8-5t12-12 15-17 16-20 17-21 15-20q11-15 18-25t12-15 10-8 9-2q5 0 7 3t2 6q0 4-1 7t-2 6q-1 2-5 10t-8 20-9 24-10 25-9 20-5 12m209-256l-107 256q-1 3-2 5t-1 4q0 3 1 4t4 1q3 0 8-4t11-10l44-55 6 5-54 67q-5 7-10 12t-9 8-9 4-9 1q-7 0-12-4t-5-11q0-6 3-15t8-20l46-110q-4 6-9 14t-12 17-16 21-22 27l-6-5q17-21 30-38t21-29 16-24 11-20 9-17 8-18l28-66h29m70 25q7 0 12 6t4 12q0 4-2 8t-4 7-6 5-8 2q-7 0-11-5t-5-12q0-5 2-10t5-6 6-5 7-2m-97 223l39-90q1-2 1-3 0-1-1-2t-2-1q-2 0-4 3l-49 60-6-5 55-68q6-8 13-14t15-6q7 0 10 4t3 9-1 10-5 12l-41 99q-1 3-1 5t-1 4q0 3 1 4t4 1q3 0 8-4t10-10l45-55 6 5-54 67q-6 7-11 12t-10 8-9 4-9 1q-7 0-12-4t-5-11q0-6 3-15t8-20m262-44l6 5q-12 14-22 26t-22 23-21 20-22 20l-24 56q-8 19-16 34t-17 26-20 16-24 5q-9 0-14-2t-10-8-5-9-2-11q0-16 9-29t24-26 32-25 36-26l48-116q2-3 2-4 0-2-2-2-2 0-5 3-1 2-6 9t-10 15-14 19-15 20-14 18-11 12q-12 12-21 19t-17 6q-3 0-7-1t-6-4-5-9-2-14q0-12 5-28t16-31 24-32 29-27 34-21 36-10v5q-15 4-29 13t-26 21-21 26-17 26-11 25-4 20q0 5 2 8t3 3q3 0 8-5t12-12 15-17 17-20 16-21 15-20q11-15 18-25t13-15 9-8 9-2q5 0 7 3t2 6q0 4-1 7t-2 6l-56 136q16-14 34-33t40-44m-143 172l25-62q-19 14-35 25t-27 22-17 21-6 24q0 3 1 7t3 6 5 5 9 2q12 0 22-14t20-36m188-139q0 1 0 2-1 2-1 3 0 3 2 3 2 0 6-5l51-76q7-12 14-20t11-13 11-8 10-2q10 0 14 4t5 11q0 4-1 8t-2 8l-43 104q-1 3-2 5t0 4q0 3 1 4t4 1q3 0 8-4t10-10l45-55 6 5-54 67q-6 7-11 12t-10 8-9 4-9 1q-7 0-12-4t-5-11q0-6 3-15t8-20l40-93q0-2 0-4 0-5-4-5-2 0-5 1t-4 5l-81 120q-9 14-17 20t-14 6q-11 0-11-11 0-5 3-14t8-20l47-114q-3 6-9 13t-12 17-16 21-21 27l-6-5q17-21 29-37t21-29 15-24 11-19 9-18 9-17l29-68h29l-100 237m277-215l-19 45h69l-4 10h-69l-76 179q-1 3-1 6t-1 5q0 3 1 5t5 2q6 0 13-6t12-12l44-55 7 5-52 64q-12 14-23 21t-20 7q-4 0-7-1t-7-3-5-6-1-7q0-7 2-14t8-19l46-110q-4 6-9 14t-12 17-16 21-22 27l-6-5q23-28 38-48t24-36 16-27 12-24h-60l5-10h60l19-45h29" />
</svg>