<svg id="fnt-Abel" viewBox="0 0 758 1000" xmlns="http://www.w3.org/2000/svg"><path id="abel" class="f" d="M195 667l-24-82h-110l-23 82h-33l102-350h17l103 350h-32m-80-273l-46 161h94l-46-161-1-13-1 13m314 204q0 15-6 29t-16 23-23 16-29 6h-20q-15 0-28-6t-24-16-15-23-6-29v-281h30v121q10-13 25-19t31-7h7q16 0 29 6t23 15 16 24 6 28v113m-30 2v-116q0-9-3-17t-10-14-14-9-17-4h-20q-9 0-17 4t-13 9-10 14-3 17v116q0 9 3 17t10 14 13 9 17 3h20q10 0 17-3t14-9 10-14 3-17m257-2q0 15-6 29t-15 23-24 16-28 6h-20q-16 0-29-6t-24-16-15-23-6-29v-113q0-15 6-28t15-24 24-15 29-6h20q15 0 28 6t24 15 15 24 6 28v59h-137v56q0 9 3 17t10 14 14 9 17 3h20q9 0 16-3t14-9 10-14 3-17v-17l30 5v10m-30-77v-37q0-9-3-17t-10-14-14-9-16-4h-20q-10 0-17 4t-14 9-10 14-3 17v37h107m130 146h-30v-350h30v350" />
</svg>