<svg id="fnt-Abril Fatface" viewBox="0 0 2977 1000" xmlns="http://www.w3.org/2000/svg"><path id="abril-fatface" class="f" d="M181 657h35l-36-108h-99l-39 108h38v10h-77v-10h24l127-343h41l126 343h23v10h-163v-10m-5-119l-44-131-47 131h91m359-6q0-51-5-69t-20-18-26 18-11 50v93q0 21 8 36t25 15 23-22 6-77v-26m-183-240h121v175q19-43 65-43 93 0 93 124 0 64-26 94t-77 30q-26 0-40-8t-18-27l-4 30h-114v-9h28v-357h-28v-9m461 151q-18 0-32 24t-14 57v134h35v9h-156v-9h28v-220h-28v-9h121v48q6-26 25-40t42-13 38 13 15 37-11 38-34 13-34-15-2-42h18q12-25-11-25m154-49q-26 0-38-13t-11-34 12-33 38-13 38 12 13 33-13 35-39 13m-75 44v-9h122v229h28v9h-148v-9h27v-220h-29m158-137v-9h123v366h28v9h-149v-9h28v-357h-30m256 27v-11h260l5 104h-9q-19-54-43-74t-72-19h-14v162h22q24 0 40-17t22-48h8v148h-9q-8-38-22-54t-39-16h-22v153h62v11h-189v-11h29v-328h-29m383 221h14v-38q0-48-5-64t-20-16q-9 0-17 4t-7 13 3 17h13q4 11 4 25t-13 26-31 11q-43 0-43-42 0-61 104-61 60 0 82 20t23 74v102q0 26 15 26 17 0 20-52l7 1q-2 44-16 60t-48 17q-60 0-69-37-6 19-19 28t-38 9q-74 0-74-61 0-35 28-49t87-13m-20 62q0 26 2 33t11 8 14-13 7-35v-47h-3q-31 0-31 46v8m192-16v-157h-28v-9h28v-65l93-23v88h65v9h-65v168q0 24 4 35t20 11 26-15 15-41l9 1q-4 34-22 54t-60 21-63-17-22-60m323-306q-19 0-25 14t-6 46v80h66v9h-66v220h61v9h-181v-9h27v-220h-29v-9h29v-2q0-72 28-110t92-37q42 0 61 17t18 39-11 33-31 11-29-10-10-23 3-24h19q10-34-16-34m155 260h15v-38q0-48-6-64t-20-16q-9 0-16 4t-7 13 3 17h12q4 11 4 25t-12 26-32 11q-43 0-43-42 0-61 105-61 59 0 82 20t23 74v102q0 26 14 26 17 0 20-52l8 1q-2 44-17 60t-47 17q-60 0-69-37-7 19-20 28t-38 9q-74 0-74-61 0-35 28-49t87-13m-20 62q0 26 3 33t10 8 15-13 7-35v-47h-4q-31 0-31 46v8m315-178q-22 0-32 24t-9 79v26q0 50 11 71t40 22 47-20 23-46l9 1q-10 43-35 62-26 20-72 20-58 0-89-32t-31-91 35-93 99-32q44 0 68 17t23 43-11 38-31 12-32-10-12-31q0-9 3-18h16q4-10 4-18 0-24-24-24m233 239q-65 0-97-34t-32-92 36-91 92-31q114 0 109 114h-141v19q0 49 13 74t43 25q58 0 76-62l9 2q-9 36-34 56t-74 20m-32-169v25h51v-25q0-40-5-55t-19-15-21 16-6 54" />
</svg>