<svg id="fnt-Actor" viewBox="0 0 1149 1000" xmlns="http://www.w3.org/2000/svg"><path id="actor" class="f" d="M10 667l117-341h52l117 341h-44l-30-91h-138l-31 91h-43m87-131h112l-55-170h-2l-55 170m405-118l-8 34q-8-2-23-5t-31-2q-22 0-37 9t-22 23-11 32-3 34q0 25 7 43t17 30 25 17 29 5q11 0 20-1t18-3 16-4l8 33q-10 3-19 5t-22 4-26 1q-27 0-49-7t-36-22-23-41-7-61q0-35 9-60t26-41 37-23 43-8q12 0 23 1t20 3q10 2 19 4m73-73l40-5v75h73v33h-73v133q0 17 1 28t3 17 7 9 12 3q19 0 44-14l12 31q-17 11-31 14t-28 4q-33 0-47-19t-13-62v-144h-46v-33h46v-70m190 197q0 49 22 72t59 24q36 0 57-23t20-71q0-50-22-74t-59-25-57 24-20 73m-42 0q0-38 12-64t30-40 40-22 40-6q18 0 39 6t40 20 30 40 12 63q0 39-13 65t-30 41-40 22-40 6q-19 0-40-6t-39-21-30-40-11-64m301 125v-211q0-12-2-36l37-5 4 36h0q9-11 18-20t17-15 18-6q12 0 32 3l-9 38q-16-3-23-2-8 0-18 8t-16 17q-9 11-18 25v168h-40" />
</svg>