<svg id="fnt-ADLaM Display" viewBox="0 0 3617 1000" xmlns="http://www.w3.org/2000/svg"><path id="adlam-display" class="f" d="M228 336q13 19 27 48t27 65 24 73 17 71 8 61q1 13-11 13h-60q-11 0-11-12-1-27-9-66h-134q-6 38-7 66-1 12-13 12h-58q-4 0-7-3t-3-9q2-27 8-61t18-72 24-73 27-65 28-48q7-10 15-15t19-4h35q12 0 20 4t16 15m-54 58h-2q-16 25-29 61t-23 73h106q-11-37-24-73t-28-61m350 273h-75q-25 0-38-7t-18-20-4-39v-219q0-24 4-39t18-20 38-6h75q52 0 92 15t61 53 22 102-22 105-61 57-92 18m-18-286h-11q-16 0-22 7t-5 23v161q0 17 5 24t22 7h12q52 0 81-26t28-89q0-42-13-65t-38-33-59-9m436 286h-121q-26 0-39-7t-17-20-5-39v-245q0-7 3-11 11-16 30-34 4-3 7-3 3 0 6 3 11 9 18 18t13 16q2 4 2 11v216q0 17 6 24t22 7l75-1q6 0 9 2 6 5 13 11t14 15q3 3 3 5 0 2-3 5-7 8-14 14t-13 11q-4 2-9 2m131 6q-35 0-57-20t-21-56q0-18 7-34t24-28 46-19 77-9q0-22-11-32t-33-10q-20 0-33 7t-16 10q-3 3-8 2-6-1-14-4t-16-5q-1-1-3-2t-1-3q0-1 0-3t1-7 3-12 4-11q2-4 7-8 4-3 25-11t61-7q110 0 110 106v138q0 5-3 8t-9 4h-36q-4 0-7-1t-6-5l-15-19h-2q-11 16-30 23t-44 8m27-57q23 0 34-11t15-24v-27q-34 0-51 5t-23 14-5 18q0 14 9 20t21 5m393-89h2q3-14 7-26t10-29q5-14 13-33t15-37 16-36 14-26q8-12 17-18t27-5h32q13 0 22 3t12 18q3 11 5 31t4 56 3 92 1 139q0 5-3 8t-7 3h-56q-4 0-7-3t-3-8q0-64 0-109t0-75-1-47-1-27h-1q-13 30-28 67t-28 75-25 75q-3 11-8 16t-22 4h-28q-14 0-19-4t-8-16q-8-27-18-58t-20-61-20-56-17-42h-2q-2 29-3 70t-3 90-1 99q0 4-3 7t-7 3h-50q-4 0-7-3t-3-8q0-130 5-208t11-104q4-17 14-22t23-5h39q14 0 20 4t15 19q6 8 13 24t15 36 16 39 12 33q4 14 9 28t7 27m549 140h-75q-25 0-38-7t-18-20-5-39v-219q0-24 5-39t18-20 38-6h75q52 0 92 15t61 53 22 102-22 105-61 57-92 18m-18-286h-11q-16 0-22 7t-6 23v161q0 17 6 24t22 7h11q53 0 81-26t29-89q0-42-13-65t-38-33-59-9m237-46q0-4 2-6t5-6q7-8 16-17t18-17q6-4 9-4t9 4q20 18 34 34 3 3 5 6t2 6-2 5-6 7q-6 7-15 16t-18 17q-4 2-6 3t-3 1-4-1-5-3q-10-8-19-17t-15-17q-3-4-5-6t-2-5m88 95v224q0 7-3 10t-10 3h-51q-7 0-10-3t-3-10v-224q0-8 3-11t10-2h51q7 0 10 2t3 11m136 243q-26 0-43-5t-28-10-16-12q-4-4-1-9l25-37q5-8 12-1 7 7 19 14t30 6q17 0 27-5t10-16q0-8-4-12t-17-10-32-12q-31-12-47-27t-16-47q0-28 15-46t40-25 51-8q33 0 47 6t17 9q4 4 5 8 4 9 5 25 1 9-4 12-3 2-10 4t-12 3-10 1q-1 0-2 0t-4-3q-3-3-11-8t-21-4q-13 0-22 5t-9 15q0 11 12 17t37 15q21 7 36 16t23 22 9 36q0 30-17 48t-41 27-53 8m314-262q35 0 59 16t34 43 11 65q0 39-13 70t-39 49-64 19q-20 0-33-5t-20-11-13-11h-1v104q0 6-2 9-10 14-30 29-3 3-6 3-3 0-6-3-11-8-18-15t-12-14q-3-3-3-9v-301q0-6 3-9 5-7 12-14t18-15q3-2 6-2 4 0 7 2 10 8 18 15t12 16h2q4-6 12-13t25-13 41-5m-30 199q26 0 41-18t14-53q0-66-54-66-23 0-34 9t-16 20v53q0 24 13 40t36 15m270 38l-51 24q-5 2-8 2t-4-2q-6-4-13-19t-7-47v-283q0-5 2-9 11-13 30-29 4-2 6-2 4 0 6 2 11 8 18 15t13 14q2 4 2 9v268q0 16 3 28t6 18q4 8-3 11m126 25q-36 0-57-20t-22-56q0-18 7-34t24-28 46-19 77-9q0-22-11-32t-33-10q-20 0-33 7t-16 10q-3 3-8 2-6-1-14-4t-16-5q-1-1-3-2t-1-3q0-1 0-3t1-7 3-12 4-11q2-4 7-8 4-3 25-11t61-7q110 0 110 106v138q0 5-3 8t-9 4h-36q-4 0-7-1t-6-5l-15-19h-2q-11 16-30 23t-43 8m26-57q23 0 34-11t15-24v-27q-34 0-51 5t-22 14-6 18q0 14 9 20t21 5m198 168q-9 0-13-2t-8-4q-6-6-14-17-1-3-3-7t-2-6q0-2 1-4t3-5q4-5 9-10t10-9q3-2 4-3t3 0 4 0 7 1q17 0 35-11t36-42q-18-17-36-42t-32-56-23-61-9-55q0-5 3-8 11-14 32-30 3-2 6-2 3 0 7 2 11 9 19 16t13 14q2 3 2 9v-1q0 19 5 40t13 42 18 37 21 26h1q5-9 11-26t11-39 9-43 3-37v1q0-6 3-9 5-7 13-14t18-16q4-2 6-2 4 0 7 2 11 9 18 16t13 14q3 3 3 8-1 23-9 58t-24 78-39 82q-34 60-73 87t-82 28m227-333v1-1q0 0 0 0m-255 1v-1 0 1" />
</svg>