<svg id="fnt-Afacad" viewBox="0 0 1413 1000" xmlns="http://www.w3.org/2000/svg"><path id="afacad" class="f" d="M46 667h-40l133-323h0l133 323h-42l-37-93h-110l-37 93m75-188l-24 62h83l-25-62q-5-12-9-23t-8-28q-4 16-8 28t-9 23m252 188h-38v-177h-47v-32h48v-59q0-34 21-52 20-18 48-18 10 0 21 3t21 8l-9 36q-15-16-35-16-11 0-21 8t-10 31v59h52v32h-51v177m184 2q-29 0-52-14t-38-39-14-54 14-53 38-39 52-14q21 0 40 8t33 22v-28h35v209h-35v-28q-14 14-33 22t-40 8m4-34q20 0 36-9t26-27 10-37-10-36-26-27q-16-9-36-9t-35 9-26 27-10 36 10 37 26 27 35 9m266 36q-30 0-55-15-25-14-40-39t-15-55 15-54 40-39q25-15 55-15 23 0 42 8t35 21l-11 48q-9-18-27-30t-39-11q-20 0-37 9t-26 27-10 36q0 20 10 37t26 27 37 9q22 0 39-11t27-30l11 48q-15 13-35 21t-42 8m212-2q-28 0-52-14t-38-39-14-54 14-53 38-39 52-14q22 0 41 8t33 22v-28h34v209h-34v-28q-14 14-33 22t-41 8m5-34q20 0 36-9t26-27 9-37-9-36-26-27-36-9-36 9-26 27-9 36 9 37 26 27 36 9m259 34q-28 0-52-14t-38-39-14-54 14-53 38-39 52-14q21 0 39 7t32 20v-150h37v334h-35v-28q-14 14-32 22t-41 8m5-34q20 0 36-9t26-27 9-37-9-36-26-27-36-9-36 9-26 27-9 36 9 37 26 27 36 9" />
</svg>