<svg id="fnt-Akaya Kanadaka" viewBox="0 0 3476 1000" xmlns="http://www.w3.org/2000/svg"><path id="akaya-kanadaka" class="f" d="M257 672q-15 0-26-13t-21-44q-5-15-8-29t-5-28q-6 10-12 13t-15 4q-24 0-52-1t-49-1q-1 9-2 18t0 18q0 8 0 16t2 16q1 14-11 22t-31 9q-16 0-16-14 0-9 4-26 3-11 4-20t2-13q0-14-9-19-7-4-7-10 0-6 3-15t7-16 9-10q3-2 8-3t13-2q19-56 43-97t52-63 56-22q18 0 26 11t8 40v22q0 51 7 93t19 69q11 28 30 46 6 5 8 9t2 8q0 7-6 15t-14 12-19 5m-173-151q25-1 43-2t31-1h35q-1-14-2-29t0-33v-29q0-14-4-19t-12-5q-24 0-49 32t-42 86m254 151q-6 0-11-3t-4-9q8-40 13-81t5-83q0-37-2-67t-16-58q-3-5-4-9t-2-8q0-9 11-18t24-9q18 0 24 22t7 65q0 51-6 89t-11 59l2 1q10-25 26-48t35-37 45-15q23 0 36 14t13 33q0 23-17 41t-43 30q7 17 19 27t30 10q6 0 10-1 7-2 7 12 0 8-3 18t-12 17-26 8q-24 0-39-14t-23-34-12-40q-4-19 12-20 18-2 30-10t12-23q0-16-16-16-10 0-20 7t-19 18-14 19q-8 13-13 26t-9 25v20q0 18-11 30t-28 12m290 1q-30 0-48-19t-18-53q0-25 9-50t29-45 44-32 59-12q30 0 51 10t21 28q0 5-1 12t-2 12q-2 4-5 7t-7 3q-2 0-7-1-2 10-3 20t-1 20q0 19 5 34t23 18q5 1 7 3t3 9q0 5-3 14t-10 15-22 7q-20 0-30-15t-11-40q-13 24-34 40t-49 15m16-52q20 0 35-12t24-32q6-12 9-26t4-28q-9-4-20-7t-23-2q-30 0-50 18t-20 45q0 20 11 32t30 12m188 184q-20 0-35-11t-15-30q0-14 9-25t22-10q6 0 8 2t4 5q4 6 9 11t15 5q12 0 23-9t21-19q8-10 20-28t24-40q-11 10-20 14t-18 4q-11 0-21-8t-12-29q-2-16-6-36t-11-39-15-32q-3-6-8-9t-13-4q-6 0-8-3t-1-10q0-18 10-29t27-11q20 0 29 16t16 38q2 9 5 24t5 32 3 32q1 11 13 11 16 0 30-10t24-26 9-33q0-10-2-18t-9-14q-5-6-8-10t-3-9q0-8 8-16t19-12 20-5q15 0 20 14t3 31q-3 24-12 56t-24 67-32 67-39 58q-17 21-39 34t-45 14m287-132q-30 0-48-19t-18-53q0-25 9-50t29-45 44-32 59-12q30 0 51 10t21 28q0 5-1 12t-2 12q-2 4-5 7t-7 3q-2 0-7-1-2 10-3 20t-1 20q0 19 5 34t23 18q5 1 7 3t3 9q0 5-3 14t-10 15-22 7q-20 0-30-15t-11-40q-13 24-34 40t-49 15m16-52q20 0 35-12t24-32q6-12 9-26t4-28q-9-4-20-7t-23-2q-30 0-50 18t-20 45q0 20 11 32t30 12m336 51q-13 0-17-6t-1-17q7-37 13-80t5-88q0-30-2-53t-15-44q-2-3-3-6t-1-5q0-6 7-13t17-10 19-5q12 0 17 8t7 20 1 24-2 26-2 33q-3 23-5 50t-3 57q0 33 3 54t3 28q2 9-5 15t-16 9-20 3m191-1q-20 0-39-10t-34-26-29-35-22-37-13-33q-5-13-5-23 0-11 8-27 7-12 19-29t29-35 34-35 36-26 33-10q14 0 20 8t7 19q0 9-4 18t-9 16-14 7q-5 0-10-2t-10-1-16 3-19 9q-8 6-21 18t-25 27-24 32q7 17 19 34t25 32q23 27 45 40t53 12q7 0 9 3t2 10q0 14-11 28t-34 13m127 2q-30 0-49-19t-18-53q0-25 10-50t28-45 45-32 58-12q30 0 51 10t22 28q0 5-1 12t-3 12q-1 4-4 7t-7 3q-2 0-8-1-2 10-3 20t-1 20q0 19 6 34t23 18q4 1 7 3t3 9q0 5-3 14t-11 15-22 7q-19 0-30-15t-10-40q-14 24-35 40t-48 15m16-52q20 0 35-12t24-32q5-12 8-26t4-28q-8-4-19-7t-23-2q-31 0-51 18t-19 45q0 20 11 32t30 12m202 51q-18 0-16-12 5-21 9-44t4-42q0-27-4-39t-8-17-14-7q-3-2-6-4t-3-7q0-7 6-16t15-15 24-6q17 0 23 12t7 31q0 12-3 28t-5 28l2 0q10-26 24-49t33-37 44-14q27 0 41 16t14 40q0 10-3 19t-4 18q-3 8-5 16t-1 17q0 29 27 39 7 3 7 9 0 4-3 13t-11 15-24 8q-20 0-31-15t-11-36q0-12 3-25t6-24q2-8 3-17t2-14q0-23-24-23-20 0-36 15t-26 38-18 47v12q0 18-11 30t-27 12m302 1q-30 0-49-19t-18-53q0-25 10-50t28-45 45-32 58-12q30 0 51 10t22 28q0 5-1 12t-3 12q-1 4-4 7t-7 3q-2 0-8-1-2 10-3 20t-1 20q0 19 6 34t23 18q4 1 7 3t3 9q0 5-3 14t-11 15-22 7q-19 0-30-15t-10-40q-14 24-35 40t-48 15m16-52q20 0 35-12t24-32q5-12 8-26t4-28q-8-4-19-7t-23-2q-31 0-51 18t-19 45q0 20 11 32t30 12m236 52q-30 0-47-20t-17-54q0-26 8-50t23-44 35-31 44-12q15 0 26 5t21 11q0-34-3-61t-15-50q-2-4-3-7t-1-6q0-7 5-13t15-10 16-4q13 0 20 11t9 32 2 47q0 38-4 68t-6 54q-2 15-4 26t-1 18q0 35 30 42 8 1 8 10 0 6-3 14t-12 15-24 7q-22 0-29-14t-8-44q-14 25-35 43t-50 17m16-53q14 0 28-9t25-25q6-9 11-22t10-24q-25-23-56-23-27 0-43 16t-16 40q0 21 12 34t29 13m240 53q-30 0-49-19t-18-53q0-25 10-50t28-45 45-32 58-12q30 0 51 10t22 28q0 5-1 12t-3 12q-1 4-4 7t-7 3q-2 0-8-1-2 10-3 20t-1 20q0 19 6 34t23 18q4 1 7 3t3 9q0 5-3 14t-11 15-22 7q-19 0-30-15t-10-40q-14 24-35 40t-48 15m16-52q20 0 35-12t24-32q5-12 8-26t4-28q-8-4-19-7t-23-2q-31 0-51 18t-19 45q0 20 11 32t30 12m193 51q-6 0-11-3t-4-9q8-40 13-81t5-83q0-37-2-67t-16-58q-3-5-4-9t-2-8q0-9 11-18t24-9q18 0 24 22t7 65q0 51-6 89t-11 59l2 1q10-25 26-48t35-37 45-15q23 0 36 14t13 33q0 23-17 41t-43 30q7 17 19 27t30 10q6 0 10-1 7-2 7 12 0 8-3 18t-12 17-26 8q-24 0-39-14t-23-34-12-40q-4-19 12-20 18-2 30-10t12-23q0-16-16-16-10 0-20 7t-19 18-14 19q-8 13-13 26t-9 25v20q0 18-11 30t-28 12m290 1q-30 0-48-19t-18-53q0-25 9-50t29-45 44-32 59-12q30 0 51 10t21 28q0 5-1 12t-2 12q-2 4-5 7t-7 3q-2 0-7-1-2 10-3 20t-1 20q0 19 5 34t23 18q5 1 7 3t3 9q0 5-3 14t-10 15-22 7q-20 0-30-15t-11-40q-13 24-34 40t-49 15m16-52q20 0 35-12t24-32q6-12 9-26t4-28q-9-4-20-7t-23-2q-30 0-50 18t-20 45q0 20 11 32t30 12" />
</svg>