<svg id="fnt-Akshar" viewBox="0 0 1297 1000" xmlns="http://www.w3.org/2000/svg"><path id="akshar" class="f" d="M194 596h-128v-39h128v39m-93-282h45l-86 353h-45l86-353m1 0h45l86 353h-44l-87-353m351 353h-48l-89-140 43-14 94 154m-6-253l-130 163-35-24 110-139h55m-123 253h-46v-360h46v360m280-65q0-13-9-21t-23-15-30-14-30-16-23-24-9-34q0 0 4 0t11 0 13 0 11 0 5 0q0 12 9 20t23 15 30 14 30 17 23 23 10 35q0 0-5 0t-11 0-13 0-11 0-5 0m-42 72v-39q18 0 30-10t12-23h45q0 21-12 37t-30 26-45 9m-38-196h-44q0-21 10-37t29-26 41-9v40q-16 0-26 9t-10 23m-52 122l42-9q3 22 16 33t32 11v39q-23 0-43-9t-32-27-15-38m177-119l-42 8q-3-22-16-33t-31-10v-40q23 0 42 10t32 26 15 39m92 186h-45v-253h45v253m141 0h-46v-172h46v172m0-172h-46q0-21-13-35t-33-13l11-40q23 0 41 11t29 32 11 45m-141 1h-20q0-26 11-46t28-32 41-11l-11 40q-22 0-35 14t-14 35m0 171h-45v-360h45v360m373 0h-46v-172h46v172m-107 7l4-37q18 0 30-9t20-27 7-41l23-1q0 34-11 60t-30 40-43 15m4-37l-4 37q-22 0-41-10t-29-29-11-41l43-1q0 19 12 31t30 13m-42-44l-43 1q0-23 11-41t32-28 46-11l2 35q-21 0-35 12t-13 32m123-44h-75l-2-35h77v35m-1 10l-23 1v-65h23v64m23-63h-46q0-22-13-36t-34-14v-39q27 0 47 11t33 32 13 46m-140-6l-42-9q3-22 15-39t31-26 43-9v39q-18 0-32 10t-15 34m237 177h-46v-253h46v253m0-169h-21q0-26 9-46t23-32 33-11l-4 42q-18 0-29 13t-11 34m85-73l-15 38q-6-5-15-9t-15-3l4-42q11 0 22 4t19 12" />
</svg>