<svg id="fnt-Alef" viewBox="0 0 944 1000" xmlns="http://www.w3.org/2000/svg"><path id="alef" class="f" d="M329 667h-46l-46-120h-139l-46 120h-47l139-351h46l139 351m-162-300l-55 143h110l-55-143m243-51v252q0 20 1 34t1 23 2 19 4 18q-10 3-20 5t-21 4q-4-16-7-29t-2-26v-300h42m259 304l12 32q-27 11-51 16t-42 5q-29 0-51-10t-35-25-22-40-7-51q0-17 2-34t8-33 14-29 21-23 29-15 38-6q55 0 82 34t28 98v13h-179q0 21 5 36t13 27 23 16 34 6q10 0 21-1t21-5 19-5 17-6m-152-102h136q-2-39-19-57t-49-18-48 18-20 57m227-105h43v-28q0-18 3-31t12-25 25-16 41-6q31 0 75 10l-8 35q-41-9-62-9-11 0-18 1t-12 5-8 7-4 11-1 14-1 18v14h82v35h-82v183h82v36h-167v-36h43v-183h-43v-35" />
</svg>