<svg id="fnt-Alegreya SC" viewBox="0 0 2660 1000" xmlns="http://www.w3.org/2000/svg"><path id="alegreya-sc" class="f" d="M166 672l-1-4 2-19q25-2 35-6t9-13q0-10-4-24l-17-55q-12 0-52 0-24 0-54 4l-19 52q-4 13-4 19 0 11 7 16t23 5h28l1 2-3 21q-6 0-27-2t-42-1q-19 0-35 0t-21 1l4-23q15-2 23-10t17-29l97-255 32-9h4q3 12 15 56t30 103 34 109q6 19 16 26t32 10l1 2-3 20q-6 0-22-1t-31 0q-24 0-47 2t-28 3m-73-142h44q18 0 46-2l-39-131h-4l-47 133m230 141l3-21q16-3 21-10t6-23l1-159q0-12-3-17t-12-4l-14 1-1-2 3-19q2 0 15 0t33 1q11 0 27-2t22-2l-2 21q-14 2-19 5t-7 8-2 21q-5 67-5 148 0 13 2 18t9 8 21 2q24 0 35-4t17-16 11-37l22-2 1 3q-1 6-5 29t-6 49l-3 3q-11 0-49-2t-62-1q-20 0-38 1t-21 3m207 0l3-21q18-2 25-9t6-24l1-159q0-12-3-17t-12-4l-14 1-1-2 3-19q6 0 24 0t38 1q83 0 123-5l2 3q-1 5-5 25t-5 42l-24 2q0-2 1-7t0-10q0-13-4-18t-15-7-41-2q-13 0-18 1t-7 3-2 11l-3 71 41 0q9 0 27-2t23-2l2 3-6 26q-6 0-22-1t-34 0q-14 0-32 2-1 38-1 69 0 11 1 16t8 6 21 1q33 0 47-3t19-12 10-32l22-2 2 3q-2 5-6 25t-5 43l-3 2q-14 0-56-1t-69-1q-21 0-38 1t-23 3m358 0q-55 0-88-33t-32-88q0-41 18-72t50-48 76-17q16 0 33 2t31 5 16 3l2 3q0 2-3 11t-4 24-3 32l-25 2q0-2 1-8t0-13q0-18-13-26t-44-7q-45 0-69 24t-23 72q0 51 23 80t64 29q14 0 25-3t18-6 9-4v-44q0-12-5-16t-17-4h-26l-1-2 4-22q2 0 18 0t35 1q11 0 22-1t15-1l2 11q-8 6-11 18t-3 43q0 23 3 34l-3 4q-3 2-16 6t-34 7-45 4m358 2q-11 0-23-10t-21-27l-42-73h-32l-1 53q0 15 2 21t7 8 20 3l1 1-4 19q-6 0-22-1t-31 0q-16 0-27 1t-16 1l4-21q18-2 24-8t6-23l1-159q0-12-3-17t-12-4l-14 1-1-2 3-19q5 0 19 0t28 1q14 0 31-1t22-1q41 0 64 17t23 46q0 23-16 43t-43 32l42 64q12 18 23 25t27 8l2 2-3 16-38 4m-77-132q10-4 17-8t16-16 9-31q0-48-71-48-4 0-6 1t-1 8q-4 61-4 90l40 4m153 130l2-21q19-2 25-9t7-24l0-159q0-12-3-17t-12-4l-13 1-1-2 3-19q6 0 23 0t38 1q84 0 124-5l1 3q-1 5-4 25t-5 42l-24 2q0-2 0-7t1-10q0-13-4-18t-16-7-40-2q-14 0-19 1t-6 3-2 11l-3 71 41 0q9 0 26-2t23-2l2 3-6 26q-5 0-22-1t-34 0q-14 0-31 2-2 38-2 69 0 11 2 16t8 6 21 1q32 0 46-3t20-12 9-32l22-2 2 3q-1 5-5 25t-6 43l-3 2q-13 0-56-1t-69-1q-20 0-38 1t-22 3m275 0l3-20q15-3 22-7t9-11 2-23v-15q0-12-2-21t-10-22l-37-72q-10-18-15-26t-13-11-23-6l-1-2 3-18q5 0 18 0t29 1q14 0 34-2t26-1l2 3-2 16q-17 1-23 4t-6 10q0 6 17 43t26 51h2l43-77q7-12 7-19 0-10-25-11l-1-2 3-18q3 0 20 1t28 2q13 0 24-1t15-1l1 3-2 17q-14 3-21 8t-14 13-18 30l-41 69q-5 10-7 23t-1 45q0 13 4 18t14 5q7 0 12-1t8 0l1 1-4 21q-6 0-22-1t-34 0q-13 0-29 1t-22 3m296-1l-1-2 1-18q21-2 28-5t8-10q0-8-4-17l-12-38q-10-1-41-1-15 0-43 3l-14 37q-4 12-4 14 0 8 6 12t18 3h21l2 2-3 19q-5 0-23-1t-35-1q-16 0-29 0t-17 1l3-21q11-1 18-8t13-21l78-198 36-7 3 1q0 2 23 79t41 127q5 15 12 20t25 8l1 2-2 18q-5 0-19-1t-27 0q-20 0-39 1t-24 2m-56-111h34q17 0 36-2l-30-97h-4l-36 99m378 114q-21 0-39-4t-29-8-11-5l-2-5q0-3 2-15t2-32 2-40l22-3q0 38 5 56t19 24 41 7q32 0 51-15t19-40q0-15-11-27t-24-20-41-23q-26-14-43-25t-28-27-11-36q0-26 15-47t42-34 58-12q20 0 37 3t27 6 13 4l1 3q0 3-2 14t-5 30-4 40l-19 2-3-2q0-2 1-10t0-16q0-27-13-37t-46-10q-28 0-46 14t-17 34q0 20 17 35t51 32q32 17 49 27t30 27 13 37q0 28-16 50t-43 35-64 13m325 0q-45 0-79-19t-53-54-18-82q0-50 23-90t62-63 90-23q18 0 37 3t33 5 17 4l2 3q-1 3-4 15t-5 30-4 39l-24 2q1-3 1-10t1-15q0-46-74-46-33 0-58 16t-38 45-14 69q0 43 14 76t41 51 60 19 54-20 31-59l24-2q-2 7-7 33t-7 48l-3 5q0 0-15 5t-38 10-49 5" />
</svg>