<svg id="fnt-Alex Brush" viewBox="0 0 2282 1000" xmlns="http://www.w3.org/2000/svg"><path id="alex-brush" class="f" d="M77 725q-78-7-78-79 0-43 28-91 16-29 40-57t53-50 59-35 58-13q50 0 50 37 0 24-15 54t-31 38q-1 1-3 1-2 0-2-1l17-27q17-28 17-49 0-15-8-29t-29-13q-25 0-51 14t-51 37-44 50-32 55q-26 58-26 93 0 54 55 54 52 0 141-67 20-16 52-44t76-68q-6 1-15 1t-21 3q-5 1-9 2t-9 1q-10-1-8-5 2-19 19-19 15 2 29 3t26 1q20-18 52-50t77-79q57-61 70-61 5 0 5 10 0 4-1 10t-3 14q-5 19-10 23-16 11-26 28t-21 39q-10 21-19 38t-16 30l49-1q18 0 18 2 0 1-1 2-9 5-72 10-47 90-47 124 0 23 15 23 5 0 14-7 8-7 10-7 0-1 0 0t0 0q-3 9-15 16t-26 8q-12 0-16-8t-4-22q0-51 38-129l-60 2q-67 65-134 115-108 78-165 73m308-203l56 0q6-11 24-42t48-78l-128 120m163 146q-14 0-27-8t-12-24q0-23 16-56t39-67q58-95 83-95 5 0 10 3t6 9l-35 47q-21 27-37 50t-29 42q-6 10-13 22t-14 24-5 26q0 6 3 11t13 5q16 0 42-18t51-47q3-3 6-6t5-2q2 0 2 3 0 1-3 5t-5 7l-12 14q-10 11-24 24t-29 22-31 9m109 5q-16 0-29-10t-13-27q0-36 44-81 44-46 79-46 12 0 19 6t7 15q0 28-44 55-40 24-67 24-4 0-7-1-7 14-7 29 0 26 24 26 25 0 65-34 30-24 52-52 4-6 8-6 3 0 3 3t-4 9q-14 18-30 34t-35 28q-38 28-65 28m3-75q19 0 50-19 10-7 19-16t16-17 7-16q0-7-11-7-15 0-42 23-13 11-25 24t-20 27q3 1 6 1m91 120q-6 0-6-6 0-1 1-2 47-74 101-129 0-12 1-32t1-45q-5 1-18 16t-31 42q-17 25-32 41t-16 18q-4 3-7 3-2 0-2-2 0-2 1-5t9-9q9-10 15-18t13-16 15-22q5-8 13-21t17-23 16-17q5-5 10-7t11-2q6 0 11 3t4 11q0 0-2 15t-4 45q9-9 37-34t73-62q1-1 3-1 3 0 7 4t4 9q0 4-4 8-15 12-60 45-20 14-36 27t-25 22q-1 5-1 10t0 10q0 31 6 46t21 15q15 0 39-20t49-48q5-5 7-5t3 3q0 1-1 3t-3 5q-16 18-35 37t-38 32-36 13q-15 0-23-12t-10-28-2-37q-61 65-92 118-1 2-4 2m534-28q-79 0-108-54-51 43-73 43-11 0-17-10t-5-22q0-30 23-70 10-18 22-32t27-15q14 0 22 24l15 48q8-8 17-21t22-28l45-60q82-107 107-117 9-3 18-3 10 0 16 4t7 10q0 9-15 10-15 9-58 51-20 19-33 32t-16 19q-56 78-104 120 31 61 92 61 23 0 46-10t44-26 33-36 13-39q0-20-15-37t-35-23q0 0-8-1t-23-3q-23-3-23-10 0-4 5-8t12-3q5 0 11 2t10 3 5 2q4 1 9 1t10 0q33 0 60-10 26-11 38-29t12-43q0-25-16-40t-41-21-56-6q-58 0-111 17t-91 57q-30 30-30 51 0 14 8 24 2 3 4 5t6 5q3 2-3 2-31-7-31-42t35-65q27-23 62-38t73-21 77-6q27 0 52 4t45 13 32 24 12 37q0 31-17 50t-44 28q-33 12-71 12 21 1 36 11t25 26 9 35q0 26-16 47t-40 38-56 24-61 9m-175-22q16 0 62-46l-2-2q-20-66-32-66 0 0-2 1-37 53-37 86 0 7 2 17t9 10m474 1q-21 0-29-11t-8-30q0-21 13-50 5-12 10-21t12-17q-2 0-4 0t-3 0q-12 0-20-17l-37 48q-29 39-36 39-2 0-2-2 0-3 2-7 2-3 6-8 19-22 35-43t27-42q11-44 29-44 11 0 11 11 0 9-12 25-12 15-12 16 0 10 15 10 9 0 20-6l13-8q1-1 3-1 6 0 11 5t3 9l-35 44q-32 41-32 66 0 22 22 22 15 0 32-9t34-22 27-26l12-14q1-1 3-2t2-2q4 0 4 4 0 1-1 3t-4 6l-16 18q-11 13-28 26t-35 22-32 8m119 3q-23 0-23-28 0-11 7-27t19-32q0 0-9 9t-20 21q-2 2-5 2-2 0-2-2t4-9l69-81q13-15 29-15 11 0 11 9 0 4-3 7-9 9-23 25t-27 36-22 36-8 28q0 9 6 9 3 0 11-3t20-12 30-27q3-3 16-18t35-43q39-48 51-48 16 0 18 13 1 5-21 30-29 34-39 49-20 29-20 45 0 11 8 11t19-8 25-18 25-24 21-22q3-4 6-4t3 3q0 1 0 3t-3 5q-8 9-21 22t-27 26-28 22-23 8q-11 0-20-6t-8-17 3-23 6-19q-24 28-42 42t-29 20-19 5m246-4q-23 0-35-16t-18-43q-9 9-12 9-3 0-3-4 0-3 3-5 0 0 12-16t44-43l63-59q13-13 20-19t12-7q16 0 16 12 0 6-7 14-5 6-7 9t-3 4q-9 16-16 56-6 29-10 48t-6 28q21-1 41-13t44-41q1-1 3-3t4-2q3 0 3 2t-1 5-3 5q-16 18-29 30t-29 18-35 12l-16 10q-7 5-16 7t-19 2m6-26q12 0 19-5 6-3 11-17t10-34q4-18 6-35t5-32l2-17q-12 9-29 25t-35 33-22 26-5 12q-2 20 9 32t29 12m103 27q-15 0-15-8 0-5 6-16 23-41 41-73t33-54q59-95 84-103 1 0 1-1t1 0q7 0 9 11-2 10-52 76-27 33-42 55t-18 32q17-12 36-26t37-26 32-20 23-8q1 0 2-1t2 0q14 0 14 13 0 4-9 16t-27 37q-33 44-33 66 0 11 8 11 9 0 21-8t24-18 21-22 15-17q5-4 7-4 2 0 2 2 0 4-4 9-6 8-18 20t-25 24-26 20-18 9q-30 0-30-35 0-19 18-51 7-12 15-24t15-24q-64 32-116 95-7 9-14 19t-12 17-8 7" />
</svg>