<svg id="fnt-Alice" viewBox="0 0 1065 1000" xmlns="http://www.w3.org/2000/svg"><path id="alice" class="f" d="M3 668q-5 0-7-3t-2-8q0-8 4-9t9-1q13 0 20-6t11-14 9-19l87-207q5-12 2-18t-10-9-15-4q-8-2-10-3t-3-9q0-8 6-9t14-1q21 0 35 4t25 15 20 34l84 207q3 9 7 18t11 14 17 7q6 0 9 1t4 9q0 4-3 8t-6 3q-16-1-28-1t-27 0q-30 0-62 1-5 0-7-3t-2-8q0-8 4-9t8-1q25 0 27-9t-5-30l-17-41h-123q-8 19-11 27t-4 11-1 3q-6 17-6 25t8 11 28 3q5 0 8 1t4 9q0 4-2 8t-7 3q-16-1-28-1t-26 0q-10 0-17 0t-14 0-18 1m148-251l-53 128h105l-50-128h-2m175 251q-3 0-6-3t-2-7q1-7 4-8t8-1q14 0 19-5t6-12 1-17v-244q0-9-1-17t-6-12-19-5q-4 0-8-1t-4-9 8-9q23-3 35-7t19-6 12-3q4 0 6 2t3 8v303q0 9 1 17t6 12 19 5q5 0 8 1t4 8q0 4-2 7t-6 3q-15-1-27-1t-26 0-25 0-27 1m148 0q-3 0-6-3t-2-7q1-7 4-8t8-1q14 0 19-5t6-12 1-17v-114q0-9-1-17t-6-13-19-4q-4 0-8-2t-4-8 8-9q23-4 35-7t19-6 12-3q4-1 6 1t3 8v174q0 9 1 17t6 12 19 5q5 0 8 1t4 8q0 4-2 7t-6 3q-15-1-27-1t-26 0-25 0-27 1m50-292q-14 0-24-9t-9-21q0-12 11-21t26-9q13 0 21 9t8 22q0 12-10 21t-23 8m200 297q-52 0-81-33t-28-87q1-34 17-61t42-42 58-16q18 0 36 4t30 16 13 32q0 15-9 27t-25 12q-11 0-17-5t-6-8q0-1 4-5t8-9 4-14q0-16-11-23t-26-8q-22 0-36 9t-20 23-9 33-2 34q0 27 8 49t24 34 37 13q22 0 37-10t28-28q3-5 10-1 4 2 5 6t-1 7q-16 23-41 37t-49 14m245 0q-38 0-65-17t-39-44-13-60q0-22 8-43t22-38 35-27 47-10q46 0 69 24t27 60q0 18-10 23t-25 6h-122q0 29 8 51t25 36 46 14q21 0 36-9t29-32q4-5 11 0 4 2 5 6t-1 7q-15 25-39 39t-54 14m-66-145h82q12 0 19-5t8-16q0-22-12-39t-36-16q-25 0-42 20t-19 56" />
</svg>