<svg id="fnt-Alkatra" viewBox="0 0 1568 1000" xmlns="http://www.w3.org/2000/svg"><path id="alkatra" class="f" d="M6 674q-14 0-14-9 0-4 4-13l149-299q4-8 15-15t26-13 32-5q4 0 8 2t5 12q9 58 21 116t27 113q7 24 12 38t10 22q6 8 10 12t4 10q0 5-6 10t-14 9-17 6-16 3q-11 0-22-20t-23-71l-43-209 9-6-97 205q-7 14-10 24t-3 17-2 18q-1 9-9 17t-20 13-21 9-15 4m249-102h-186v-38h186v38m146 102h-35q-9 0-14-11t-5-26q1-17 3-40t5-47l14-118q3-22 2-40t-4-31-3-23q0-5 9-10t20-7 20-2q8 0 15 12t6 28q0 4-1 20t-4 36l-16 115q-5 36-7 72t-5 72m239-2q-11 0-23-10t-22-28-21-38-17-43q-2-6-4-14t-3-17q0-5 2-10t5-10q10-16 24-31t32-26 35-17 35-6q13 0 17 6t5 18q0 11-3 19t-7 13-7 5q-7 0-15-4t-21-4q-20 0-38 13t-26 29l5-21q21 57 39 86t31 43q9 8 15 11t7 9q0 6-9 12t-18 11-18 4m-117 2h-35q-9 0-14-11t-4-26q0-17 3-40t5-47l14-118q3-22 1-40t-4-31-2-23q0-5 8-10t21-7 19-2q9 0 15 12t7 28q0 4-1 20t-4 36l-16 115q-5 36-7 72t-6 72m233 1q-28 0-40-23t-12-64q0-36 11-67t29-53 43-34 52-12q22 0 39 5t31 12l-15 53q-13-9-30-17t-31-12-21-4q-14 0-26 14t-19 38-6 56q0 29 4 44t14 15q6 0 22-15t37-49 47-94l14 45q-27 60-52 95t-47 51-44 16m155-3h-35q-10 0-12-10t-2-21q0-8 2-21t6-27 7-28l11-38-14-13 12-75q16-3 28-7t20-7 12-3q6 0 6 6 0 3-7 21t-13 48-11 63l-10 112m114 3q-24 0-34-14t-6-44l20-153h-16q-8 0-8-8 0-5 7-14t17-21 22-22 21-18 14-6q6 0 8 4t1 11l-5 39h56q8 0 9 3t-1 8q-6 17-11 20t-19 4h-40l-13 107q-1 10-2 18t0 16q0 11 5 16t18 5q12 0 21-5t12-5q4 0 4 5t-5 14-16 18-25 15-34 7m176-20l-12-76q18-48 37-83t40-55 40-19q12 0 17 7t5 18q0 10-3 19t-6 16-10 6q-6 0-13-4t-18-3q-7 0-19 15t-24 41-21 57-13 61m-42 19q-7 0-10-3t-4-11 3-31l23-208h35q8 0 14 11t6 25q0 7-4 20t-9 29-9 27l-13 41 19-3-9 84q-1 5-6 8t-13 6-14 4-9 1m213 1q-28 0-40-23t-12-64q0-36 10-67t30-53 43-34 52-12q21 0 39 5t30 12l-14 53q-14-9-31-17t-31-12-21-4q-14 0-26 14t-18 38-7 56q0 29 4 44t14 15q7 0 22-15t38-49 46-94l14 45q-27 60-51 95t-47 51-44 16m154-3h-35q-10 0-12-10t-2-21q0-8 2-21t6-27 8-28l11-38-15-13 12-75q16-3 28-7t21-7 12-3q5 0 5 6 0 3-6 21t-14 48-10 63l-11 112" />
</svg>