<svg id="fnt-Allura" viewBox="0 0 1300 1000" xmlns="http://www.w3.org/2000/svg"><path id="allura" class="f" d="M71 708q-16 0-31-5t-25-18-9-30q0-5 2-9t4-3q4 0 4 12 0 17 15 26 11 8 31 8t40-7 40-20q23-15 50-44t58-61q-24-3-48-6t-47-3q-16 0-32 3t-29 13-20 26q0 2-1 5t-1 5q0 5 3 9 1 3 1 3 0 5-4 5-4 0-6-4-5-9-5-23 0-26 10-40t26-19 36-5q8 0 17 0t19 2q22 2 45 7t47 10q26-31 51-62t48-59 37-47q1-2 2-2 1-1 2-1 5-3 14-6t11-2q5 0 5 6 0 1-2 5-25 43-43 87t-31 92l-1 3q3 0 6 0t6 1q21 1 36-5 11-4 15-11 2-2 3-2 2 0 3 2t0 6q-6 9-20 14-8 3-18 4t-21 1h-3l-6-1h-3q-8 28-11 57 0 3 0 5t0 5q0 28 15 28 10 0 24-9t28-22 26-26 17-20q1-1 3-1 5 0 3 6-1 1-9 11t-20 25-31 28q-14 11-28 14t-20 4q-14 0-23-13t-8-33q0-14 3-30t7-31q-14-1-29-3t-30-4q-30 37-60 68t-56 52q-19 14-40 21t-42 8m259-151q9-35 21-71t25-64l2-6q-21 30-47 64t-52 68q13 2 26 4t25 5m146 115q-21 0-30-11t-8-26q0-14 7-36t18-48 23-51 26-46 22-34q10-13 21-25t24-21 31-9q11 0 19 6t9 19q0 5-2 12t-6 13q-30 53-73 98t-89 84q-2 7-4 13t-2 10q-1 2-1 5t0 5q0 12 4 21t14 9q9 0 22-9t27-21 24-25 16-18q1-2 3-2 2 0 3 2t0 5q-5 9-16 21t-25 25-26 23q-15 11-31 11m-1-95q19-13 40-34t40-45 36-49 26-43q3-6 4-10t2-8q0-9-8-9-7 0-18 7-27 21-50 54t-41 69-31 68m118 95q-21 0-30-11t-8-26q0-14 7-36t18-48 23-51 26-46 22-34q10-13 21-25t24-21 31-9q11 0 19 6t9 19q0 5-2 12t-6 13q-30 53-73 98t-89 84q-2 7-4 13t-2 10q-1 2-1 5t0 5q0 12 4 21t14 9q9 0 22-9t27-21 24-25 16-18q1-2 3-2 2 0 3 2t0 5q-5 9-16 21t-25 25-26 23q-15 11-31 11m-1-95q19-13 40-34t40-45 36-49 26-43q3-6 4-10t2-8q0-9-8-9-7 0-18 7-27 21-50 54t-41 69-31 68m219 95q-9 0-16-4t-10-15q-1-3-2-6t0-7q0-12 3-27t7-25q-2 2-7 10t-12 20-17 22-20 19-23 7q-8 0-19-4t-16-13-5-20q0-14 6-32t17-32q3-5 8-12t9-12 6-6q6-2 14-2 9 0 13 2 3 2 3 4 0 2-4 6-5 5-15 15t-19 24-15 31q-5 14-5 24 0 17 14 17 12 0 26-10t26-24 23-29 16-23q5-7 11-18t12-21 10-16q3 0 10 1t13 5 3 7q-3 5-10 16t-12 21-10 17q-12 23-15 50-1 2-1 3t0 4q0 20 14 20 7 0 20-9t25-21 24-25 15-17q1-2 3-2t3 2 0 4q-4 8-15 21t-24 25-25 22q-7 5-17 9t-20 4m155 1q-9 0-15-4t-9-14q-2-6-2-11 0-15 8-30t18-26 18-21q4-4 9-10t6-13q0-4-4-8t-15-5q-6-1-11-2t-11-1q-14 19-27 38t-28 38q-4 4-6 4-3 0-3-3t3-6q27-33 46-71-2 0-7 0t-8-1q-4-1-6-3t-2-4q0-3 3-3 6-2 14-6t14-11q7-7 13-15t9-11q4-3 8-3 2 0 4 2t3 4q0 4-3 9-5 7-10 16t-10 15q9 1 18 1t19 1q5 0 9-1t10 0q15 0 15 8 0 5-5 12t-13 16q-17 19-29 41t-16 33q-4 12-4 18 0 12 10 12 8 0 20-9t26-21 23-24 15-17q1-2 3-2t4 2 0 4q-6 9-16 21t-24 26-25 21q-7 5-18 9t-21 5m230-1q-8 0-16-4t-10-15q-2-5-2-13 0-11 3-24t7-23q-3 1-10 8t-16 19-22 21-24 18-24 7q-8 0-17-5t-15-12q-7-10-7-20 0-14 9-28t24-29 31-25 32-19 25-10q10-3 23-3 7 0 14 2t13 6q4 2 6 5t3 8-4 2q-4-6-11-8t-13-1q-20 0-44 13t-43 30q-6 5-17 17t-18 27-9 27q0 6 4 11 2 4 6 4 7 0 19-8t24-18 23-21 15-14q2-3 9-11t16-16 15-16 9-6q3 0 8 1t10 4 2 6q-13 19-21 40t-9 33q-1 2-1 3t0 4q0 20 14 20 8 0 20-9t26-21 23-25 15-17q2-2 3-2 2 0 4 2t0 4q-6 9-16 22t-24 25-25 21q-7 5-17 9t-20 4" />
</svg>