<svg id="fnt-Almarai" viewBox="0 0 1635 1000" xmlns="http://www.w3.org/2000/svg"><path id="almarai" class="f" d="M270 667l-37-108h-138l-38 108h-48l127-358h59l126 358h-51m-163-146h113l-55-163-58 163m254-212h41v358h-41v-358m110 358v-257h38v37q30-43 79-43 48 0 69 38 19-21 36-30t43-8q75 0 75 71v192h-41v-176q0-51-48-51-25 0-43 19t-17 47v161h-41v-176q0-51-48-51-25 0-43 19t-18 47v161h-41m637-35v33q-17 6-26 6-40 0-44-36-27 37-87 37-42 0-65-23-20-20-20-51 0-36 26-56 14-11 60-21l84-19 1-22q0-38-58-38-56 0-60 45h-41q1-34 17-52 26-31 86-31 96 0 96 70v144q0 19 17 19 2 0 10-3 3-1 4-2m-71-52v-45l-66 17q-36 9-49 19t-13 26q0 40 51 40 36 0 61-24 16-14 16-33m116 87v-257h38v47q22-53 71-53 6 0 14 1v42q-40 1-55 12-27 20-27 74v134h-41m392-35v33q-17 6-27 6-40 0-43-36-28 37-88 37-41 0-64-23-20-20-20-51 0-36 25-56 15-11 61-21l84-19 0-22q0-38-58-38-55 0-59 45h-42q2-34 17-52 27-31 86-31 97 0 97 70v144q0 19 16 19 2 0 11-3 3-1 4-2m-72-52v-45l-66 17q-35 9-49 19t-13 26q0 40 51 40 36 0 61-24 16-14 16-33m115-170h40v257h-40v-257m21-101q10 0 17 7t8 18q0 10-8 17t-17 8q-10 0-18-8t-7-17q0-10 7-18t18-7" />
</svg>