<svg id="fnt-Almendra SC" viewBox="0 0 2784 1000" xmlns="http://www.w3.org/2000/svg"><path id="almendra-sc" class="f" d="M247 328q-7 35-10 72t-2 119 6 130q27 3 55 10l-1 12q-37-4-81-4t-69 4l-2-13q22-7 48-10 4-33 5-107-26-3-57-3t-53 3q-12 49-12 79t22 42l-2 7q-16-2-53-2t-66 4l-2-13q22-7 48-10l79-280q-59 0-75 16-4 7-4 22t5 20l0 4q-13 7-25 21-7-1-10-5t-4-11q0-24 30-58t55-43q75 8 153 14 7-9 11-23l11 3m-119 40l-36 148q22 4 53 4t51-4q0-88-2-144l-2-2q-26-2-64-2m379 294l-3 10q-32-5-88-5t-93 5l-2-13q14-5 32-9 5-30 5-102v-23q0-62-5-102-16-3-31-8l2-13q25 4 60 4t59-4l1 13q-22 5-44 8-4 27-4 111t4 112q12 2 34 2t39-8q7-17 7-40h13q2 38 14 62m147-10v-13q0-31-15-93t-35-120l-2 1-12 93q-8 57-8 103 0 28 17 38l-2 8q-15-2-39-2t-53 4l-2-13q17-6 32-8l46-228q-26-5-38-8l1-13q36 5 67 5t48-3l1 8q-14 4-14 12 0 11 31 127l11 37 4-1q0-13 45-163 0-8-13-12l1-8q17 3 48 3t67-5l1 13q-13 3-34 7-2 12-2 35t7 96 12 99q18 2 38 7l-2 12q-26-3-58-3t-57 4l-2-13q17-5 36-8-2-118-16-222h-2q-51 152-55 197-10 3-24 12t-22 19l-6-4m277-109q1 45 16 70t51 25 67-31l7 7q-34 43-81 59-48 0-76-31t-27-83 32-98 83-61q37 0 83 8l-1 11q-9 0-18 3-9 23-12 54h-13q-4-17-4-35-19-10-45-10t-43 14q-17 31-19 74 21 4 45 4 41 0 50-18l10 2q-4 15-4 29t3 36l-12 2q-5-15-8-31-20-2-40-2t-44 2m302 115l-2 12q-26-3-58-3t-58 4l-2-13q16-5 30-8 5-39 5-102v-23q0-67-5-103-14-2-33-8l2-13q28 5 59 5t45-3l1 8q-13 4-13 12 0 6 11 25t23 37q33 53 78 129l2-1v-61q0-67-7-101t-24-39l1-8q13 2 39 2t53-5l2 13q-21 6-35 8-5 40-5 103v23q0 76 5 103 21 4 34 8l-2 13q-25-5-47-5t-34 2q0-11-15-37t-28-46q-40-66-79-133l-2 1v67q0 99 15 129 22 3 44 8m186-238v-13l115-3q57 0 87 27t31 80-34 101-83 61q-13 0-34-5t-34-10q-6 6-10 18l-11-2q10-45 10-126t-5-122q-17-6-32-6m172 37q-9-17-26-26t-35-10-33 6q-4 32-4 103t2 99q25 12 51 12t42-14q19-36 19-88 0-49-16-82m101-40v-10l115-3q45 0 67 13t23 48q0 24-15 43t-39 27l56 115q17 3 32 7l-2 13q-21-3-47-3t-41 2l-2-8q6-6 6-21 0-31-35-98-10-2-24-2l1-15h5q59 0 59-54 0-50-51-50-17 0-30 6-4 33-4 113t5 110q22 3 41 8l-2 12q-26-3-58-3t-58 4l-2-13q14-5 32-8 5-37 5-117t-5-109q-19-7-32-7m294-3l1-13q47 5 95 5t95-5l2 13q-15 6-31 9-6 41-6 114t6 114q10 1 37 7l-2 13q-24-4-62-4t-57 4l-2-13q17-6 38-8 3-29 5-81-24-2-47-2t-41 2q-10 41-10 57 0 25 17 35l-2 8q-11-2-43-2t-51 4l-2-13q12-5 33-8l65-228q-22-4-38-8m64 12l-29 120q19 3 43 3t41-3q0-93-4-120-17-1-26-1t-25 1m246 235q0-44 19-76t41-32q5 0 11 3l1 4q-6 12-8 31l-3 2q-2-1-7-1t-17 6-16 12q-4 7-4 16 0 24 32 40t61 17q62 0 62-70 0-26-51-66-21-17-42-34-50-40-50-70 0-35 31-65t72-44q43 0 81 8v10q-26 24-29 74h-12q0-26-3-46-21-10-47-10t-42 10-18 28 15 33 36 32 41 32 36 35 15 37q0 50-28 89t-75 58q-62-6-100-35-2-14-2-28m316-12q9 15 25 25t38 10 44-13 38-32l7 7q-37 57-99 78-43 0-71-22t-39-56-11-85 13-96 44-82 79-49q50 0 103 9l-1 11q-13 0-24 5-12 29-16 70h-13q-4-23-4-45-27-14-59-14t-52 19q-25 51-25 132 0 91 23 128" />
</svg>