<svg id="fnt-Almendra" viewBox="0 0 2028 1000" xmlns="http://www.w3.org/2000/svg"><path id="almendra" class="f" d="M48 348l1-12q57 5 119 5t119-5l2 12q-22 7-48 11-6 48-6 145t6 145q27 3 55 10l-1 12q-37-4-81-4t-69 4l-2-13q22-7 48-10 4-33 5-107-26-3-57-3t-53 3q-12 49-12 79t22 42l-2 7q-16-2-53-2t-66 4l-2-13q22-7 48-10l82-291q-28-3-55-9m81 13l-37 155q22 4 53 4t51-4q0-121-5-155-15-1-31-1t-31 1m265 97l-1 94q0 14 0 45t3 55q14 3 31 9l-1 10q-28-4-53-4t-50 3l-2-10q15-6 30-10 4-32 5-98l1-94q0-13 0-47t-4-69q-13-4-27-4v-10q50-4 96-17l2 9q-9 8-23 15-6 33-7 123m442 202l-2 10q-24-3-41-3t-30 1v-7q7-39 9-129 0-4 0-8 0-59-21-59-18 0-44 25t-35 45l-2 116q17 4 35 10l-1 10q-28-4-46-4t-31 1v-7q7-39 9-129 0-4 0-8 0-59-21-59-18 0-44 25t-34 45q0 73 5 117 14 3 32 9l-1 10q-28-4-53-4t-51 3l-1-10q15-6 29-10 5-34 5-78v-42q0-46-4-82-12-4-27-4v-10q32-2 68-10l3 2q-5 35-5 78l2 1q16-24 42-49t47-32q45 0 45 80l2 1q16-24 42-49t47-32q45 0 45 79 0 3 0 7l-3 140q15 4 30 10m136-22q32 0 62-26l5 5q-28 39-73 57-44 0-66-27t-22-77 28-91 73-55q34 0 47 13t14 47q0 19-5 33 10 4 24 4l0 10q-3 0-7 0-56 0-134 17 0 66 26 83 11 7 28 7m28-124q0-33-7-46t-26-13-34 12q-14 28-15 68 41-14 82-21m259 7q0-56-23-56-20 0-46 25t-36 45q0 73 6 117 13 3 31 9l-1 10q-28-4-53-4t-50 3l-2-10q15-6 30-10 4-34 4-78v-42q0-46-3-82-12-4-27-4v-10q32-2 67-10l4 2q-6 35-6 78l2 1q17-24 44-49t50-32q30 0 39 28 6 19 6 48 0 4 0 10l-2 140q14 4 29 10l-1 10q-24-3-41-3t-32 1v-7q8-39 10-129 1-5 1-11m106 58q0-52 28-96t75-59q27 0 49 5 0-65-4-94-12-4-27-4v-10q32-2 68-10l3 3q-8 49-8 165v91q0 51 3 80 12 4 27 4v11q-32 1-67 9l-4-2q6-34 6-78l-2 0q-18 25-42 48t-45 32q-28 0-44-30t-16-65m40-23q0 25 8 51t26 26q17 0 42-25t33-45q0-74-4-96-26-12-51-12t-38 12q-16 38-16 89m327 105l-1 10q-25-4-55-4t-59 3l-1-10q15-6 29-10 5-34 5-78v-42q0-46-4-82-12-4-27-4v-10q32-2 68-10l3 2q-5 35-5 78l2 1q7-20 25-47t35-34q23 0 44 8v7q-19 24-21 63h-11q0-20-1-31-7-5-17-5-15 0-32 24t-24 45q0 73 5 117 25 3 42 9m80-82q0-52 28-96t75-59q34 0 70 11 7-11 12-27l10 3q-11 45-11 159 0 51 4 80 12 4 27 4v11q-32 1-68 9l-3-2q5-34 5-78l-2 0q-17 25-41 48t-46 32q-27 0-44-30t-16-65m40-23q0 25 9 51t25 26q18 0 43-25t32-45q0-74-3-96-27-12-52-12t-37 12q-17 38-17 89" />
</svg>