<svg id="fnt-Alumni Sans Inline One" viewBox="0 0 3570 1000" xmlns="http://www.w3.org/2000/svg"><path id="alumni-sans-inline-one" class="f" d="M88 667h-86l42-296h118l41 296h-89l-4-43h-19l-3 43m-31-151l-14 127h2l1-10q1-6 2-12l1-16 52 0 51 0 4 38h2l-12-126-15-125-29 1-26-1-19 124m94 87l-50 1-51-1 12-86 16-123 24 0 27 0 11 123 11 86m-50-169l-9 151h18l-9-151m194 233h-78v-315h78v315m-43-167l2 143h2l3-143-2-129h-2l-3 129m123 170q-33 0-44-16t-11-49v-186h78v183q0 14 9 14 2 0 4-1t4-1v-195h78v248h-66l-6-33q-5 16-17 26t-29 10m6-27q13 0 22-7v-1q-10 7-22 7-11 0-15-8t-4-16l2-77-2-99h-2l-2 99 1 77q1 12 6 18t16 7m71-104l2 106h2l3-106-2-97h-2l-3 97m144 128h-78v-248h67l6 33q4-16 17-26t28-10q23 0 34 8t17 23q6-13 17-22t27-9q33 0 44 16t11 49v186h-78v-183q0-14-8-14-2 0-5 0t-4 2v195h-78v-183q0-14-8-14-2 0-5 0t-4 2v195m51-123l2 99h2l2-99-1-77q-1-11-6-18t-16-7q-13 0-22 8v1q10-8 22-8 11 0 15 9t4 15l-2 77m98 0l2 99h2l2-99-1-77q-1-11-6-18t-16-7q-13 0-22 8v1q10-8 22-8 11 0 15 9t4 15l-2 77m-191 3l2 96h2l3-96-2-95h-2l-3 95m333 120h-78v-248h66l6 33q5-16 17-26t29-10q33 0 44 16t11 49v186h-78v-183q0-14-9-14-2 0-4 0t-4 2v195m52-123l2 99h2l3-99-2-77q0-11-6-18t-16-7q-12 0-21 8v1q10-8 21-8 11 0 15 9t4 15l-2 77m-94 3l2 96h2l2-96-2-95h-2l-2 95m198-154q-16 0-27-11t-11-26q0-15 11-26t27-11 27 11 12 26q0 15-12 26t-27 11m0-18q19 0 19-19t-19-18-18 18 18 19m0-1q-7 0-11-6t-5-12q0-7 5-12t11-5 11 5 5 12q0 7-5 12t-11 6m39 293h-78v-248h78v248m-42-120l2 96h2l2-96-2-95h-2l-2 95m228 124q-31 0-52-8t-30-27-9-54v-9h83v22q0 17 2 24t9 7q6 0 8-5 2-4 2-22 0-17-6-26t-17-15-31-14q-28-13-38-34t-10-54q0-32 9-51t29-27 54-8q91 0 91 72v33h-80v-8q0-10 0-18t-1-13q-1-10-9-10-7 0-9 8t-1 19q0 14 5 21t15 12 21 8q23 9 37 18t19 25 6 44q0 49-25 69t-72 21m2-24q6 0 12 0t11-2q18-4 25-17t8-41q0-24-9-39t-29-21l-16-5-14-7q-19-10-27-24t-7-35q0-25 6-38t24-16q4-1 8-2t10 0q9 0 16 1 18 3 25 16t8 39h1q2-28-6-41t-28-15q-4-1-8-1t-8 0q-11 0-18 1-19 4-28 16t-8 40q0 45 39 61l15 6 15 6q19 9 26 22t7 36q0 27-6 40t-21 17q-4 1-11 1t-12 1q-4 0-10 0t-10-2q-18-3-25-16t-6-42h-2q-1 30 6 43t27 17q3 0 10 1t10 0m158 23q-10 0-22-3t-19-13-8-32v-40q0-21 10-33t26-18 32-13q16-5 20-12t5-22v-16q0-5-2-9t-7-4-7 5q-1 5-1 15v31h-71v-32q0-30 17-45t63-15q32 0 51 4t27 17 9 39v193h-78v-25q-3 10-13 19t-32 9m-13-201v15h4v-15q0-15 13-26t30-11v-1q-17 0-32 11t-15 27m92 78l2 96h2l3-96-2-95h-2l-3 95m-70 100v-1q-9 0-14-8t-4-27v-35q0-17 10-25t18-12v-1q-10 4-21 13t-12 25v35q0 20 7 28t16 8m26-20q7 0 8-7t1-17v-59q-8 4-13 11t-4 19v32q0 9 1 15t7 6m189 40h-78v-248h66l6 33q5-16 17-26t29-10q33 0 44 16t11 49v186h-78v-183q0-14-9-14-2 0-4 0t-4 2v195m52-123l2 99h2l3-99-2-77q0-11-6-18t-16-7q-12 0-21 8v1q10-8 21-8 11 0 15 9t4 15l-2 77m-94 3l2 96h2l2-96-2-95h-2l-2 95m242 127q-50 0-69-19t-19-60v-17h78v34q0 10 2 15t7 6q5 0 6-4t2-10v-23q0-13-5-19t-15-9-21-9q-19-7-34-20t-14-40v-14q0-38 20-54t68-17q48 0 66 18t19 58v16h-76v-31q0-10-1-15-2-5-7-5t-7 4-2 9v24q0 11 7 17t17 9 21 7q19 6 33 19t15 38v18q0 40-21 57t-70 17m0-22q5 0 11 0t10-1q16-4 23-18t7-37q0-21-9-33t-26-18l-13-5-13-6q-17-8-22-20t-6-30q0-22 6-33t21-14q3-1 8-1t8 0h8q2 0 3 0t3 1q17 2 23 13t7 34h1q2-24-5-35t-26-13q-3-1-6-1t-8 0-8 0-8 1q-17 3-25 14t-8 34q0 19 8 32t26 20l13 5 12 5q18 7 24 18t6 32q0 22-5 36t-20 17q-3 1-9 2t-11 1q-4 0-10-1t-9-1q-16-3-23-17t-6-38h-1q-1 26 5 40t24 16q3 1 10 1t10 0m265 15h-80v-296h80v296m-44-150l2 126h2l2-126-2-124h-2l-2 124m147 150h-78v-248h66l6 33q5-16 17-26t29-10q33 0 44 16t11 49v186h-78v-183q0-14-9-14-2 0-4 0t-4 2v195m52-123l2 99h2l3-99-2-77q0-11-6-18t-16-7q-12 0-21 8v1q10-8 21-8 11 0 15 9t4 15l-2 77m-94 3l2 96h2l2-96-2-95h-2l-2 95m237 120h-78v-315h78v315m-43-167l2 143h2l3-143-2-129h-2l-3 129m107-107q-16 0-27-11t-11-26q0-15 11-26t27-11 27 11 12 26q0 15-12 26t-27 11m0-18q19 0 19-19t-19-18-18 18 18 19m0-1q-7 0-11-6t-5-12q0-7 5-12t11-5 11 5 5 12q0 7-5 12t-11 6m39 293h-78v-248h78v248m-42-120l2 96h2l2-96-2-95h-2l-2 95m145 120h-78v-248h67l6 33q4-16 17-26t28-10q33 0 44 16t11 49v186h-78v-183q0-14-8-14-2 0-5 0t-4 2v195m53-123l2 99h2l2-99-1-77q-1-11-6-18t-16-7q-13 0-22 8v1q10-8 22-8 11 0 15 9t4 15l-2 77m-95 3l2 96h2l3-96-2-95h-2l-3 95m244 126q-30 0-49-7t-29-26-9-56v-104q0-37 23-51t64-14 64 14 22 51v70h-95v68q0 8 2 11t7 4 6-4 2-11v-45h78v10q0 37-9 57t-28 26-49 7m45-197v57h4v-57q0-17-9-28t-27-10v1q18 0 25 10t7 27m-64 174v-1q-11 0-20-9t-8-24l1-72-1-72q-1-14 11-24t26-9v-1q-18 0-29 9t-12 28l-2 69 2 71q0 16 11 25t21 10m10-180v47h17v-47q0-8-2-12t-6-3-7 3-2 12m18 179v1q18 0 29-12t11-28v-25h-4v25q0 16-9 27t-27 12m261 24q-30 0-51-8t-30-28-10-57v-146q0-37 25-52t66-15 64 15 23 52v146q0 37-9 57t-29 28-49 8m-18-29h13q3 0 5 0 1 0 3 0h12q32 0 33-34l2-93-2-97q0-15-10-22t-26-6l-12 1-15-1q-16 0-26 6t-10 22l-2 97 2 93q1 34 33 34m21-1h-8l-6-1h-7q-32-1-31-32l2-94-2-96q-1-14 9-20t25-6l15 0 12 0q16 1 25 6t9 20l-2 96 2 94q1 31-31 32h-7l-5 1m-3-16q4 0 6-4 2-2 2-11v-182q0-8-2-12-2-3-6-3-4 0-6 3-2 4-2 12v182q0 9 2 11 2 4 6 4m188 40h-78v-248h66l6 33q5-16 17-26t29-10q33 0 44 16t11 49v186h-78v-183q0-14-9-14-2 0-4 0t-4 2v195m52-123l2 99h2l3-99-2-77q0-11-6-18t-16-7q-12 0-21 8v1q10-8 21-8 11 0 15 9t4 15l-2 77m-94 3l2 96h2l2-96-2-95h-2l-2 95m243 126q-29 0-49-7t-28-26-9-56v-104q0-37 22-51t64-14 64 14 23 51v70h-95v68q0 8 2 11t6 4 6-4 3-11v-45h78v10q0 37-10 57t-28 26-49 7m45-197v57h4v-57q0-17-9-28t-26-10v1q17 0 24 10t7 27m-63 174v-1q-11 0-20-9t-9-24l2-72-2-72q0-14 11-24t26-9v-1q-17 0-29 9t-12 28l-1 69 1 71q1 16 11 25t22 10m10-180v47h17v-47q0-8-3-12t-6-3-6 3-2 12m18 179v1q18 0 28-12t11-28v-25h-4v25q0 16-9 27t-26 12" />
</svg>