<svg id="fnt-Amatic SC" viewBox="0 0 1421 1000" xmlns="http://www.w3.org/2000/svg"><path id="amatic-sc" class="f" d="M132 667q-4 0-7-3t-3-6v-65q0-6-25-11t-42-5q-1 0-4 7t-3 11q-6 26-13 56l-2 11q-1 4-5 4t-8-3-3-6l1-1v0l5-25q6-24 11-46 5-26 7-33 4-17 16-83l3-16q13-77 18-97 3-12 9-36 3-10 7-20 5-8 8-8 8 0 11 5 3 4 8 49t9 91l7 83q0 22 3 65 3 44 3 66v2q0 5-2 10-2 4-9 4m-20-97q10 0 10-5 0-31-4-85t-7-94q-1-18-4-39l-2-19q0 0-1-6l-1-6q-4 11-8 31t-8 46q-12 74-20 112l-5 17q-7 25-7 38v3q22 7 50 7h3q2 0 4 0m298 123q-10 0-10-32v-33q0-72-3-113l-1-18q-2-13-2-22 0-17 1-31l1-31q0-16-2-24-10 7-61 211l0 7q-2 13-4 20-2 6-5 9t-6 3q-8 0-11-4t-4-13q0-13-13-70t-27-108-20-58q-1 18-4 83-7 115-7 181l0 20q-2 6-10 6-2 0-5-3t-4-4q0-45 8-158 8-105 8-157 0-3-1-5-2-3-2-5 0-7 13-7 9 0 10 7 2 10 2 15l1 6q2 13 14 40 10 22 15 38 3 12 5 19 8 29 11 43l6 13q2 8 6 25 5 19 7 31t2 23q5-9 31-103t30-119q1-1 1-3t1-5q1-6 4-19 4-10 12-10 4 0 8 3t5 6q0 208 6 220v26q0 12 0 27 0 32 3 48 1 0 1 1t1 3q0 2 0 4 0 6-3 11t-8 6m-16-306v-1h-1l-1 1 2 0m201 284q-8 0-10-2t-3-9q-4-36-5-45l-3-20q-11-3-25-3l-18-1q-12-1-17-1-3 0-4 2 0 2 0 2l-1 10q-1 9-6 36-2 13-6 21-4 8-7 8-3 0-7-3t-3-5l0-2 1-1q9-36 15-71l6-31 6-38t5-33q3-13 9-43 7-34 9-47 0-1 2-18 2-19 3-28 2-13 3-15h4q1 0 3 0 6 0 9-3 4 0 6 2t3 6q0 24 4 55 2 16 3 26 5 65 28 242v2q0 5-4 7m-28-90h5q-5-72-19-212l-27 133q-12 58-12 73 0 2 19 4t34 2m124 83l-5-4-1-19q0-8 0-18 0-5 0-8l1-9q0-5-2-12 0-34-5-125-5-88-6-119-31 0-41-2-10-2-10-8 2-5 9-5 15 0 44 2 26 2 43 2h11l10 0q9 0 9 6 0 3-3 5t-8 2q-10 0-21-1l-21-1q-2 0-2 1-1 2-1 10 0 48 6 147 6 102 6 146 0 4-5 7t-8 3m137 3q-11 0-13-5-3 0-4 0h-4q-11 0-14-5 0-3 4-6l2-2h15l2-2 1-5 0-6q0-30-1-54l-1-19-1-36q0-20 1-59l1-58q0-38-2-58-5-1-15-1l-6 0q-3 1-6 1-10 0-10-9 0-2 5-4t7-2q19 0 38 2 12 1 23 5 9 3 9 8 0 1-1 4l-12 1q-3-3-14-3l-3 2q2 4 2 26 0 33-1 60l-1 59q0 23 2 55 2 36 2 55v6q-1 4-1 9 0 12 2 14l-1 1q0 5 11 5 5 0 8 0h7q15 0 15 7 0 4-3 7t-8 3q-5 0-8-1-4-1-9-1-3 0-9 3-6 3-9 3m141 8l-12-5q-10-3-17-8t-12-17q-11-20-13-57-1-17-1-30v-57q0-33 2-63 2-23 5-38t9-31q7-16 16-23 3-3 13-7 7-2 13-5h20 1q1 0 2 0l2 1 2 1q2 2 2 2 0 1 0 3l-6 8h-21q-10 0-18 9t-11 23q-4 13-7 30t-3 29q-1 16-1 22l-1 3q0 28-1 50l-1 51q0 22 3 40 3 20 15 36 11 16 35 16 8 0 13-4 7 0 7 5 0 4-6 8t-13 8h-16m200 3q-9 0-14-1t-10-3q-6-3-9-9 0-6 6-6t14 4q8 4 13 4 11 0 20-9t15-24q10-28 10-50 0-25-7-50t-19-47q-2-5-8-16-13-25-19-39t-12-31q-7-23-7-49 0-16 5-32t17-26q13-11 28-11 6 0 15 4t8 10q0 4-3 4t-8-3q-4-2-8-2-12 0-21 8t-12 21q-4 11-4 23 0 20 5 40t14 39l17 37 5 10q11 22 16 36t10 31q6 24 6 45 0 29-15 59-8 15-20 24t-28 9m195-3q-14 0-29-11t-22-25q-6-13-13-83t-6-103v-27q0-11 0-25 0-26 3-52 2-12 5-21t9-18q11-17 33-22 12-3 26-3 9 0 19 5t10 13q0 6-8 6-3 0-12-4-7-3-13-3-14 0-26 5t-17 16q-6 8-10 22t-5 28q-1 12-1 30l0 28q1 12 1 26 0 34 7 101t13 78q6 9 18 14t25 5q23 0 35-14 4-6 9-6 5 0 5 7 0 9-6 15t-15 11q-16 7-35 7" />
</svg>