<svg id="fnt-Amethysta" viewBox="0 0 2581 1000" xmlns="http://www.w3.org/2000/svg"><path id="amethysta" class="f" d="M277 644l-38-96h-129l-36 96 41 13v10h-116v-10l43-18 127-332h22l131 332 40 18v10h-125v-10l40-13m-102-263h-2l-53 141h109l-54-141m287 258l42 18v10h-132v-10l45-18v-183l-45-18v-10l85-17 5 5v29q17-16 39-25t44-9q22 0 40 10t27 31q17-19 41-30t49-11q15 0 28 4t23 14 17 25 6 36v149l45 18v10h-133v-10l43-18v-134q0-35-12-49t-41-13q-36 0-62 23 3 12 3 24v149l42 18v10h-130v-10l43-18v-134q0-35-12-49t-41-13q-35 0-59 21v175m605-103l-7 7h-158q0 27 7 48t21 31 28 17 34 6q26 0 55-17l7 14q-20 18-41 25t-46 6q-23 0-44-10t-37-27-25-41-10-53q0-27 7-50t18-37 27-25 31-15 33-4q21 0 38 7t32 23 22 39 8 56m-99-102q-28 0-45 22t-20 61h116q0-39-13-61t-38-22m296 2l-80 15v136q0 16 3 27t7 17 11 8 13 2q15 0 25-3t21-9l8 15q-35 29-76 29-24 0-40-19t-17-53v-150l-45-13v-10l47-10 18-67h25v67h72l8 3v15m131 203l43 18v10h-133v-10l45-18v-308l-45-18v-10l85-17 5 5v154q17-16 41-25t45-9q33 0 55 20t21 59v149l45 18v10h-132v-10l42-18v-134q0-35-12-49t-43-13q-37 0-62 21v175m250-195l-45-17v-10h129v10l-38 15 72 163 59-164-36-14v-10h107v10l-45 17-80 223-55 131-42-8-4-10 77-122-99-215v1m270 140h13l26 56q3 2 8 3t10 3 11 2 11 1q12 0 22-3t18-7 11-12 4-16q0-11-10-22t-26-20l-26-14q-14-8-26-16t-21-17-15-20-5-25q0-17 7-30t19-20 29-12 38-4q32 0 65 10l-1 71h-10l-26-58q-10-1-16-2t-11 0q-14 0-23 3t-16 8-9 11-3 13q0 8 3 15t9 12 15 12 21 12q17 9 28 15t16 9q38 26 38 59 0 18-8 32t-23 23-32 13-35 5q-9 0-20-1t-22-4-20-5-18-7v-73m381-148l-80 15v136q0 16 2 27t8 17 10 8 14 2q14 0 24-3t22-9l7 15q-34 29-75 29-24 0-41-19t-16-53v-150l-46-13v-10l48-10 18-67h25v67h71l9 3v15m238 197l45 12v9l-53 17q-15 3-26-4t-11-24q-31 30-74 30-36 0-53-19t-18-45q0-21 10-37t23-26 35-16 38-8 39-3v-24q0-34-10-47t-36-14q-19 0-44 6l-26 57h-12v-70q22-8 46-12t43-4q40 0 62 16t22 53v153m-99 11q14 0 29-7t25-18v-80q-49 2-74 20t-26 45q0 21 14 30t32 10" />
</svg>