<svg id="fnt-Anaheim" viewBox="0 0 1719 1000" xmlns="http://www.w3.org/2000/svg"><path id="anaheim" class="f" d="M76 577l-30 93-31-6 97-311h45l93 311-30 6-28-93 14 12h-145l15-12m60-207l-61 205-8-11h131l-8 11-60-205h6m196 297h-31v-241h23l5 16q25-12 41-16t34-3q24 0 40 9t24 27 8 46v162h-31v-163q0-29-10-43t-33-13q-15 0-34 4t-45 19l9-16v212m278 2q-33 0-55-17t-22-51q0-16 9-34t29-29 53-12q10 0 27 1t35 8l-13 8v-25q0-28-6-43t-18-21-26-6q-15 0-34 4t-36 9l-6-24q19-7 39-11t38-3q26 0 44 8t27 28 9 55v153h-23l-8-28 6 9q-4 4-15 9t-25 8-29 4m5-25q18 0 36-6t26-13l-4 14v-95l9 14q-15-6-26-7t-22-2q-33 0-51 12t-19 38q0 24 14 35t37 10m190 23h-31v-332h31v105q23-11 39-14t32-3q25 0 41 9t24 27 8 46v162h-31v-163q0-29-10-43t-33-13q-15 0-34 4t-45 19l9-16v212m301 2q-47 0-73-29t-26-94q0-32 7-55t20-39 31-22 39-7q27 0 47 12t30 33 10 51q0 6-1 14t-1 19h-162l11-13q-1 43 9 66t26 30 36 8q20 0 36-4t32-12l10 23q-16 9-37 14t-44 5m67-139l-11 11v-14q2-36-13-57t-45-22q-33 0-51 25t-15 67l-11-10h146m188 137h-125v-25h47v-191h-46v-25h77v216h47v25m-63-287q-9 0-16-7t-6-15 6-16 16-6 16 6 6 16-6 15-16 7m145 287h-31v-241h24l4 16q24-12 39-16t32-3q18 0 33 5t26 23l-10-2q21-13 44-20t42-6q25 0 41 9t23 27 7 46v162h-31v-163q0-29-9-43t-31-13q-15 0-33 4t-42 19l3-7q3 5 5 18t1 23v162h-31v-163q0-29-9-43t-31-13q-15 0-33 4t-42 19l9-16v212" />
</svg>