<svg id="fnt-Anek Devanagari" viewBox="0 0 3483 1000" xmlns="http://www.w3.org/2000/svg"><path id="anek-devanagari" class="f" d="M142 375l-88 292h-42l100-320h66l100 320h-42l-88-292h-6m76 163v34h-146v-34h146m309-28v157h-40v-152q0-20-6-34t-17-22-33-8q-20 0-34 7t-23 20-12 28l-7-29h9q4-16 14-30t26-22 42-8q29 0 47 11t26 32 8 50m-163-27v184h-41v-244h41l-2 58 2 2m328 189q-55 0-84-27t-28-78v-44q0-51 26-79t77-28q34 0 57 13t34 36 12 55v9q0 8-1 16t-2 16h-37q1-12 1-23t0-20q0-22-7-37t-22-24-35-8q-31 0-47 18t-16 53v23l0 5v23q0 15 5 28t14 21 24 13 36 5q24 0 44-6t39-17l-4 35q-16 10-38 16t-48 6m83-142v31h-174v-31h174m156 1l116 136h-49l-96-114h-26v-32h26l92-98h48l-111 117v-9m-51-196v332h-40v-332h40m425 332h-79v-35h77q43 0 64-23t22-67v-71q0-43-22-66t-64-23h-77v-35h79q62 0 94 32t31 92v72q0 59-31 92t-94 32m-66-320v320h-41v-320h41m352 325q-55 0-84-27t-28-78v-44q0-51 26-79t77-28q34 0 57 13t34 36 12 55v9q0 8-1 16t-2 16h-37q1-12 1-23t0-20q0-22-7-37t-22-24-35-8q-31 0-47 18t-16 53v23l0 5v23q0 15 5 28t14 21 24 13 36 5q24 0 44-6t39-17l-4 35q-16 10-38 16t-48 6m83-142v31h-174v-31h174m85-107l67 216h6l68-216h42l-80 244h-66l-79-244h42m412 86v158h-41l2-60-1-6v-78l0-14q0-30-15-44t-48-14q-26 0-48 7t-39 18l4-35q9-5 22-11t30-9 37-4q27 0 45 6t30 19 16 29 6 38m-125 163q-36 0-55-18t-20-50v-7q0-34 21-51t67-23l77-11 2 30-74 10q-28 4-40 14t-12 28v4q0 20 11 30t36 10q21 0 36-7t24-20 13-27l6 28h-8q-3 16-13 29t-27 23-44 8m390-162v157h-40v-152q0-20-6-34t-17-22-33-8q-19 0-34 7t-22 20-13 28l-7-29h9q4-16 14-30t27-22 41-8q29 0 47 11t26 32 8 50m-163-27v184h-40v-244h40l-2 58 2 2m411 26v158h-40l2-60-2-6v-78l0-14q0-30-15-44t-48-14q-26 0-48 7t-39 18l4-35q10-5 23-11t30-9 37-4q26 0 44 6t30 19 17 29 5 38m-124 163q-36 0-56-18t-19-50v-7q0-34 21-51t66-23l77-11 3 30-75 10q-28 4-40 14t-12 28v4q0 20 12 30t36 10q21 0 36-7t24-20 12-27l7 28h-8q-4 16-13 29t-27 23-44 8m281-78q-50 0-76-22t-27-62v-7q0-25 10-44t34-29 59-12l125-4v32l-74-2 0 2q17 3 28 12t16 21 6 30v5q0 39-26 59t-75 21m-2 134h6q23 0 39-3t25-11 8-19v-1q0-14-10-21t-34-10l-69-6 11-1q-14 2-25 7t-16 12-6 18v0q0 13 9 21t24 11 38 3m5 32h-7q-33 0-57-5t-37-18-13-34v-1q0-15 7-25t19-16 28-8l-1-1q-20-4-30-12t-10-23v0q0-10 5-16t13-11 23-5v-5l46 12-19-1q-17 0-23 4t-7 12v0q0 8 9 13t32 6l59 6q39 4 57 19t17 43v1q0 23-13 38t-38 21-60 6m-3-196q21 0 34-6t21-19 8-30v-6q0-18-7-30t-21-19-34-6h-2q-22 0-37 7t-20 19-6 29v6q0 18 7 30t21 18 36 7m346-55v158h-40l2-60-2-6v-78l1-14q0-30-16-44t-47-14q-27 0-49 7t-38 18l3-35q10-5 23-11t30-9 37-4q26 0 45 6t29 19 17 29 5 38m-124 163q-36 0-56-18t-19-50v-7q0-34 21-51t66-23l78-11 2 30-75 10q-28 4-40 14t-12 28v4q0 20 12 30t36 10q21 0 36-7t24-20 13-27l6 28h-8q-3 16-13 29t-27 23-44 8m225-155l-9-31 10 0q8-31 27-49t52-18q8 0 14 1t12 3l2 39q-6-2-14-3t-17-1q-27 0-48 15t-29 44m2-19v169h-41v-244h40l-2 72 3 3m187-75v244h-40v-244h40m-20-40q-13 0-19-7t-6-18v-1q0-12 6-19t19-6 19 6 6 19v1q0 12-6 18t-19 7" />
</svg>