<svg id="fnt-Anek Gujarati" viewBox="0 0 2789 1000" xmlns="http://www.w3.org/2000/svg"><path id="anek-gujarati" class="f" d="M54 667h-42l100-320h66l100 320h-42l-88-292h-6l-88 292m164-95h-146v-34h146v34m309 95h-40v-152q0-20-6-34t-17-22-33-8q-20 0-34 7t-23 20-12 28l-7-29h9q4-16 14-30t26-22 42-8q29 0 47 11t26 32 8 50v157m-163 0h-41v-244h41l-2 58 2 2v184m328 5q-55 0-84-27t-28-78v-44q0-51 26-79t77-28q34 0 57 13t34 36 12 55v9q0 8-1 16t-2 16h-37q1-12 1-23t0-20q0-22-7-37t-22-24-35-8q-31 0-47 18t-16 53v23l0 5v23q0 15 5 28t14 21 24 13 36 5q24 0 44-6t39-17l-4 35q-16 10-38 16t-48 6m83-111h-174v-31h174v31m272 106h-49l-96-114h-26v-32h26l92-98h48l-111 117v-9l116 136m-167 0h-40v-332h40v332m411 6q-36 0-61-15t-37-43-12-67v-76q0-63 32-97t95-34q23 0 41 4t33 10 24 12l4 37q-17-11-41-19t-54-8q-46 0-69 25t-23 71v74q0 43 20 67t61 23q20 0 35-7t24-18 13-26v-78l7 14h-75v-34h109v126l-41 0q-4 15-14 29t-27 22-44 8m85-6l2-66h39v66h-41m104-244h40v151q0 20 5 34t18 22 33 8q20 0 34-7t22-20 13-28l7 29h-9q-4 16-14 30t-27 22-41 8q-29 0-47-11t-26-32-8-50v-156m163 0h40v244h-40l2-59-2-2v-183m154 210h-40v-210h40v210m-20-250q-13 0-19-7t-6-18v-1q0-12 6-19t19-6 18 6 7 19v1q0 12-7 18t-18 7m-50 373q-11 0-21-2t-16-4l-3-34q7 3 14 5t16 2q23 0 31-12t9-35v-78h40v80q0 24-7 42t-22 27-41 9m322-89h-40l1-60-1-6v-78l0-14q0-30-15-44t-48-14q-26 0-48 7t-39 18l4-35q9-5 22-11t30-9 38-4q26 0 44 6t30 19 17 29 5 38v158m-124 5q-37 0-56-18t-19-50v-7q0-34 20-51t67-23l77-11 2 30-74 10q-28 4-40 14t-12 28v4q0 20 12 30t35 10q21 0 36-7t25-20 12-27l6 28h-7q-4 16-14 29t-26 23-44 8m224-155l-9-31 10 0q8-31 28-49t51-18q8 0 15 1t11 3l3 39q-7-2-14-3t-17-1q-28 0-48 15t-30 44m2 150h-40v-244h39l-2 72 3 3v169m331 0h-40l2-60-2-6v-78l1-14q0-30-16-44t-47-14q-27 0-49 7t-38 18l3-35q10-5 23-11t30-9 37-4q26 0 45 6t29 19 17 29 5 38v158m-124 5q-36 0-56-18t-19-50v-7q0-34 21-51t66-23l78-11 2 30-75 10q-28 4-40 14t-12 28v4q0 20 12 30t36 10q21 0 36-7t24-20 13-27l6 28h-8q-3 16-13 29t-27 23-44 8m275 0q-28 0-45-9t-25-26-8-43v-154h40v150q0 24 11 35t37 11q15 0 28-3t26-9l-4 35q-12 6-27 9t-33 4m58-213h-176v-33h179l-3 33m-97-29h-39l0-68 41-6-2 74m189 237h-40v-244h40v244m-20-284q-12 0-19-7t-6-18v-1q0-12 6-19t19-6 19 6 6 19v1q0 12-6 18t-19 7" />
</svg>