<svg id="fnt-Angkor" viewBox="0 0 2122 1000" xmlns="http://www.w3.org/2000/svg"><path id="angkor" class="f" d="M133 581h46v86h-171v-86h38l67-217h-51v-86h242l87 303h38v86h-218v-86h31l-10-42h-88l-11 42m23-101h64l-28-119-36 119m618 21v95h34v71h-151v-167q0-10-6-18t-17-8q-18 0-22 17-5 19-5 52v53h0v71h-152v-71h35v-115h-35v-66l152-15v37q17-20 38-29t49-8q80 0 80 101m201 261q-52 0-110-15v-71q32 10 53 15t42 6q59 0 59-59-13 12-33 20t-44 9q-35 0-60-18-24-18-36-48t-13-66q0-38 13-68 12-31 37-49t59-18q48 0 77 42l18-37h124v76h-23v153q0 42-20 70t-57 43-86 15m13-162q12 0 21-7t12-14v-89q-10-18-35-18-20 0-32 17t-12 47q0 29 12 46t34 18m543-119h-39l-42 35 50 77h39v74h-117l-71-107v107h-160v-74h43v-225h-43v-66l160-16v237l51-42h-27v-76h156v76m172 190q-44 0-77-16-33-16-52-48t-19-74q0-43 19-72 19-30 52-46t77-15q46 0 79 16t51 45 19 72q0 43-19 74-18 32-52 48t-78 16m0-71q16 0 24-16 8-15 8-51 0-32-8-47t-24-14q-15 0-23 14t-8 47q0 35 8 51 8 16 23 16m370-7v74h-187v-74h31v-112h-31v-66l148-15v43q8-13 23-22t33-15 31-6v104q-29-10-48-10-23 0-31 14t-8 35v50h39" />
</svg>