<svg id="fnt-Annie Use Your Telescope" viewBox="0 0 4290 1000" xmlns="http://www.w3.org/2000/svg"><path id="annie-use-your-telescope" class="f" d="M88 362q18 0 31 11t24 28 17 41 11 48 7 50 3 49 1 40 1 28h-12l-19-103q-2-2-11-3t-20 1-25 3-25 2-22 1-14-4v103h-25q0-1 0-5t1-9 0-8 1-5q3-29 4-58t5-56 6-52 12-46 20-34 29-22m8 23q-13 0-22 9t-13 23-9 32-4 35-1 31 0 22q24 0 49-3t47-8q0-2 0-6t1-10 0-10 1-7q0-16-2-30t-7-29-15-26-25-23m115 279q-1-8-2-22t-1-34-1-39-1-40-2-33-2-23q0 0 0-2t-1-5 0-4 0-2q7-6 13-4t8 8 5 17 2 19 1 18 0 11q1-8 3-19t6-23 9-23 14-20 19-14 24-4q22 1 36 12t22 28 11 42 5 50 1 53-1 52q-4 1-8 3t-8 2-4-4 1-16q0-9 2-27t1-41-3-47-9-43-19-33-32-12q-20 8-33 31t-22 54-11 67-5 70q0-1-3-1t-6 0-6-1-3-1m198 0q-1-8-2-22t-1-34-2-39-1-40-1-33-2-23q0 0 0-2t-1-5 0-4 0-2q7-6 12-4t9 8 5 17 2 19 1 18 0 11q1-8 3-19t6-23 9-23 14-20 19-14 24-4q21 1 35 12t22 28 12 42 5 50 1 53-1 52q-4 1-9 3t-7 2-4-4 1-16q0-9 1-27t1-41-2-47-9-43-19-33-32-12q-20 8-33 31t-22 54-12 67-4 70q-1-1-3-1t-6 0-6-1-3-1m221 4l-7-191q5 0 10 0t7 5q1 22 3 44t4 46 3 46 0 45q0 3-2 4t-4 0-6 0-8 1m-36-278q0-4 1-8t2-7 4-6 7-3q6 0 12 1t11 2 9 5 3 11q0 12-9 21t-21 9q-10 0-14-8t-5-17m29 2q-2 0-2 3t2 2q2 0 2-2t-2-3m50 160q0-15 7-33t17-33 25-26 29-10q8 0 16 3t16 9 14 13 9 15 4 15-4 13l-103 19q-2 0-4 4t-2 11-2 14-1 14-1 13 0 9q0 13 7 22t17 13 23 6 26 1 24-1 18-1q0 2-1 5t-4 4-4 4-2 2q-4 1-12 3t-17 3-17 3-11 1q-15 3-26-1t-19-12-13-20-7-25-3-29 1-28m71-84q-4 0-11 5t-14 12-10 15-2 14q12 1 26-1t25-6 18-10 7-11-9-11-30-7m491 189l-28-112q-19 49-39 76t-37 36-34 2-29-25-23-46-15-61-6-70 5-72l19 2q-5 63-1 109t14 77 21 47 23 18q17 0 30-8t23-23 17-33 12-36 6-36 2-30q0-17-1-30t-3-25-5-26-6-31l24-18q11 71 19 121t14 85 9 54 6 32 3 16 0 7h-20m66-30q9 0 16 4t15 7 15 7 16 4q11 0 22-4t20-10 15-16 6-21q0-4 0-8t-3-11-10-9-20-7-32-3-48 4q-8 0-15-5t-12-10-9-13-3-13q0-19 8-31t21-19 28-10 32-3q7 0 17 0t17 4 14 10 6 19q-1 9-3 10t-5-1-8-7-10-10-15-7-19 0q-11 0-23 2t-20 8-14 15-6 23q0 7 7 10t17 3 25-1 29-1 28 2 24 9 16 19 5 32q0 14-8 27t-21 22-27 15-30 4q-5-1-15-4t-20-7-16-12-7-17m170-75q0-15 6-33t17-33 25-26 29-10q9 0 17 3t15 9 14 13 10 15 3 15-4 13l-103 19q-2 0-3 4t-3 11-2 14-1 14 0 13 0 9q0 13 6 22t17 13 23 6 26 1 24-1 18-1q0 2-1 5t-3 4-4 4-3 2q-4 1-12 3t-17 3-17 3-10 1q-16 3-27-1t-19-12-13-20-7-25-3-29 2-28m71-84q-5 0-12 5t-13 12-10 15-3 14q13 1 26-1t25-6 19-10 7-11-9-11-30-7m411 204v-165q-8-10-20-26t-27-34-29-38-28-38-23-34-14-27l10-9q18 20 31 36t24 31 20 28 18 26 21 28 26 29q3-14 6-30t6-35 6-37 8-36 9-33 12-26q1 0 2 0t3 0q2 0 4 0t5 2 4 3 1 5q-6 11-11 30t-11 43-9 51-8 56-7 56-4 53-2 44 3 32q-1 6-2 8t-3 5-8 1-13 1m90-95q0-11 2-26t7-30 11-30 16-26 21-18 27-7q16 0 29 10t23 28 15 38 4 41q0 30-11 53t-29 37-37 19-37-3-29-29-12-57m19 2q1 30 10 46t21 21 27 1 27-18 22-31 10-42q1-18-2-34t-11-30-16-20-22-8q-11 0-21 6t-16 16-13 22-9 26-6 24-1 21m160-102q0-2 3-5t8-4 9-2 7 2q2 60 11 96t20 53 23 17 25-11 23-30 17-41 8-44-4-39l29-4q1 8 3 25t5 38 6 44 6 43 4 33 2 18h-21l-23-85q-7 17-16 33t-22 27-24 19-25 5-24-12-22-32-17-57-11-87m221-1q6-2 10-1t7 6 5 9 2 10q7-11 19-18t25-8 28-1 23 5 13 13-2 19q-12-7-26-12t-27-3-25 10-18 27-9 49 4 76h-19t-1-8-1-21-2-29-2-33-2-32-2-27q0-1 0-5t0-10 0-9 0-7m413-81l-81 7 8-26q0 0 7-1t19-2 26-3 30-3 31-3 27-3q0 0 5 0t10 0 10 0 6 0q12 0 16 5t5 19l-89 10q-1 31 1 65t5 68 5 68 3 64q0 5-3 6t-6 3-8-1-7-1q-1-7-2-22t-3-37-3-45-3-49-3-47-3-39-1-26-2-7m118 157q0-15 6-33t17-33 25-26 29-10q9 0 17 3t15 9 14 13 9 15 4 15-4 13l-103 19q-2 0-3 4t-3 11-2 14-1 14 0 13 0 9q0 13 6 22t17 13 23 6 26 1 24-1 18-1q0 2-1 5t-3 4-4 4-3 2q-4 1-12 3t-17 3-17 3-10 1q-16 3-27-1t-19-12-13-20-7-25-3-29 2-28m70-84q-4 0-11 5t-13 12-10 15-3 14q13 1 26-1t25-6 19-10 7-11-10-11-30-7m103-181q7 1 12 4t8 9q0 10 1 26t1 38 2 46 2 51 2 50 1 46 1 38 1 26q0 1 0 3t-1 6 0 7 0 4q-1 3-1 7t-1 8-3 7-7 4l-8-10q-1-1-1-18t-2-47-3-64-2-73-2-70-1-58q0-2 0-8t0-12 1-12 0-8m62 265q0-15 6-33t18-33 25-26 29-10q8 0 16 3t16 9 13 13 10 15 3 15-4 13l-103 19q-2 0-3 4t-3 11-1 14-2 14 0 13 0 9q0 13 7 22t16 13 24 6 25 1 24-1 19-1q0 2-2 5t-3 4-4 4-2 2q-4 1-12 3t-18 3-16 3-11 1q-15 3-26-1t-20-12-12-20-8-25-2-29 1-28m71-84q-5 0-12 5t-13 12-10 15-3 14q13 1 27-1t24-6 19-10 7-11-9-11-30-7m116 159q9 0 16 4t15 7 15 7 16 4q11 0 22-4t20-10 15-16 6-21q0-4 0-8t-3-11-10-9-19-7-33-3-48 4q-8 0-14-5t-13-10-8-13-4-13q0-19 8-31t21-19 28-10 32-3q7 0 17 0t17 4 14 10 6 19q-1 9-3 10t-5-1-7-7-11-10-15-7-19 0q-11 0-22 2t-21 8-14 15-6 23q0 7 7 10t17 3 25-1 29-1 28 2 24 9 17 19 4 32q0 14-8 27t-21 22-27 15-29 4q-6-1-16-4t-20-7-16-12-7-17m167-44q0-18 5-40t17-41 28-31 39-13q11-1 18 2t10 12 5 18 2 20 0 20 1 15h-13q0-3-1-14t-5-23-8-21-14-9q-14 0-26 10t-20 26-15 32-5 26q1 13 3 27t10 26 17 19 27 5q11 0 22-5t21-11 21-10 22-5q0 13-9 23t-23 15-28 9-25 3q-17 0-31-7t-24-19-16-26-5-33m185-6q0-11 2-26t6-30 11-30 16-26 22-18 27-7q16 0 29 10t23 28 14 38 4 41q0 30-11 53t-28 37-38 19-37-3-28-29-12-57m18 2q2 30 10 46t22 21 27 1 27-18 22-31 10-42q1-18-3-34t-10-30-16-20-22-8q-12 0-21 6t-17 16-13 22-9 26-5 24-2 21m177-39q-2 2-5 1t-6-2-5-3-3-5q0-17 11-31t25-24 32-15 31-6q23 0 41 8t31 21 20 30 8 38q0 25-12 46t-31 36-43 23-47 5q1 18 0 41t-4 49-6 57-8 62q0 0-3 0t-6 0-6-2-4 0q4-41 5-82t2-83-4-83-13-81m75-57q-10 0-20 2t-19 7-14 12-3 18q1 5 3 14t4 21 4 24 4 25 4 21 3 14q6-1 16-2t23-4 26-8 24-14 20-23 11-35q0-19-7-32t-18-23-28-13-33-4m134 69q0-15 6-33t18-33 24-26 29-10q9 0 17 3t15 9 14 13 10 15 3 15-4 13l-103 19q-2 0-3 4t-3 11-1 14-2 14 0 13 0 9q0 13 6 22t17 13 24 6 25 1 24-1 19-1q0 2-2 5t-3 4-4 4-3 2q-4 1-12 3t-17 3-17 3-10 1q-15 3-27-1t-19-12-12-20-8-25-2-29 1-28m71-84q-5 0-12 5t-13 12-10 15-3 14q13 1 26-1t25-6 19-10 7-11-9-11-30-7" />
</svg>