<svg id="fnt-Anonymous Pro" viewBox="0 0 3510 1000" xmlns="http://www.w3.org/2000/svg"><path id="anonymous-pro" class="f" d="M137 348l106 319h-36l-30-91h-126l-30 91h-35l106-319h45m-76 198h106l-53-164-53 164m428-20v141h-34v-141q0-30-13-47t-43-17q-19 0-34 9t-25 22-16 33-6 39v102h-33v-228h33v57q25-62 87-62 84 0 84 92m290 28q0 26-8 48t-24 37-38 24-49 9q-27 0-49-9t-37-24-25-37-8-48q0-26 8-49t25-38 37-24 49-9q27 0 49 9t38 24 24 38 8 49m-33 0q0-20-6-36t-17-29-27-20-36-7-36 7-27 20-17 29-6 36 6 36 17 28 27 19 36 7 36-7 27-19 17-28 6-36m288-28v141h-33v-141q0-30-13-47t-43-17q-19 0-34 9t-25 22-16 33-6 39v102h-33v-228h33v57q24-62 86-62 84 0 84 92m252-87h40l-123 285q-9 24-26 32t-39 7q-23 0-47-8l7-29q11 5 22 7t18 2q17 0 23-8t11-19l14-35-102-234h40l82 199 80-199m306 64v164h-33v-164q0-19-7-30t-20-11q-19 0-28 20t-9 56v129h-33v-164q0-19-7-30t-20-11q-12 0-19 7t-11 18-6 25-1 26v129h-33v-228h33v33q11-38 46-38 33 0 45 33 17-33 47-33 29 0 43 17t13 52m279 51q0 26-8 48t-24 37-38 24-49 9q-27 0-49-9t-38-24-24-37-8-48q0-26 8-49t24-38 38-24 49-9q27 0 49 9t38 24 24 38 8 49m-33 0q0-20-6-36t-17-29-27-20-36-7-36 7-27 20-17 29-6 36 6 36 17 28 27 19 36 7 36-7 27-19 17-28 6-36m85 26v-141h33v141q0 30 13 47t43 17q19 0 34-9t25-23 16-32 6-39v-102h33v228h-33v-57q-24 62-86 62-84 0-84-92m482 24q0 20-10 33t-26 21-35 11-38 3q-31 0-62-9t-53-23l15-29q25 16 50 24t50 9q76 0 76-39 0-10-7-16t-16-10-24-6-29-4q-19-2-38-6t-34-11-25-20-9-32q0-17 8-29t24-21 34-12 40-4q30 0 54 7t43 20l-14 26q-19-14-39-19t-44-6q-10 0-23 2t-24 6-18 12-8 18q0 10 6 15t17 10 24 6 29 4q18 3 37 6t34 11 26 19 9 33m552-165q0 46-29 69t-81 22h-72v137h-34v-319h105q53 0 82 23t29 68m-34 0q0-33-21-48t-55-14h-72v125h72q35 0 55-15t21-48m306 5l-11 27q-19-9-43-9-21 0-37 9t-27 23-18 33-6 38v73h52v29h-137v-29h52v-170h-52v-29h85v57q23-62 88-62 17 0 30 2t24 8m280 110q0 26-9 48t-24 37-38 24-49 9q-26 0-48-9t-38-24-24-37-8-48q0-26 8-49t24-38 38-24 48-9q28 0 49 9t38 24 24 38 9 49m-34 0q0-20-5-36t-17-29-28-20-36-7-36 7-27 20-16 29-6 36 6 36 16 28 27 19 36 7 36-7 28-19 17-28 5-36" />
</svg>