<svg id="fnt-Antic" viewBox="0 0 1053 1000" xmlns="http://www.w3.org/2000/svg"><path id="antic" class="f" d="M274 667l-33-93h-154l-32 93h-32l126-350h31l131 350h-37m-111-312l-67 194h136l-69-194m219 59v30q37-27 71-29 30 0 47 8t27 21 11 39v184h-33v-176q0-18-8-28-16-19-49-19-31 2-66 21v202h-33v-250l33-3m324 217l6 27q-9 9-32 9-33 0-45-17-19-19-19-50v-154h-28l4-29h24v-50l32-3v53h58v29h-58v162q0 29 30 29 13 0 28-6m62-214l33-3v253h-33v-250m15-67q-10 0-15-7t-5-16 5-17 16-6 16 6 7 18-7 16-17 6m243 153l-3-53q-20-6-42-6-43 0-70 28t-26 79q0 89 83 89 33 0 68-11 7-2 8-3l8 27q-17 10-63 15-13 1-28 1-42 0-70-21-38-29-38-96t35-102 93-36q18 0 38 5t31 15v65l-24 4" />
</svg>