<svg id="fnt-Antic Slab" viewBox="0 0 2178 1000" xmlns="http://www.w3.org/2000/svg"><path id="antic-slab" class="f" d="M345 667h-101v-28h31l-23-65h-154l-23 65h36v28h-101v-28h33l117-322h30l121 322h34v28m-102-118l-70-194-67 194h137m154-107h-33v-25h66v28q41-28 78-30 37 0 56 15 8 6 15 20t7 33v159h38v25h-101v-25h30v-147q0-48-57-48-31 1-66 20v175h37v25h-101v-25h31v-200m351 200l19-1 2 20q-1 0-7 2-15 3-34 3-17-1-31-6t-26-20-12-39v-155h-25l4-24 22-5 4-48 28-2v50h60v29h-60v147q0 49 56 49m79-200h-34v-25h66v225h38v25h-101v-25h31v-200m15-92q-10 0-15-7t-6-16 6-17 16-6 16 6 6 17-6 17-17 6m205 94q-43 0-69 28t-26 79q0 89 82 89 32 0 54-6t23-6l7 23q-11 8-38 13t-48 5-39-5-35-16-28-36-11-60q0-66 34-99 37-39 94-39 18 0 38 5t32 15v65l-25 4-2-53q-21-6-43-6m357 193q56 0 83-28 15-16 15-38t-11-36-27-22-38-14-42-12-37-15-28-26-11-39q0-40 30-66t80-25 93 10v0h1l6 63-25 4-5-42q-28-5-62-5t-59 14-25 42 20 41 49 21 57 17 48 31 20 58q0 48-36 73t-89 24q-68 0-113-30l0-53 25-3 1 38q38 18 80 18m201-320h-34v-25h66v350h38v25h-101v-25h31v-325m161 352q-67 0-71-53 0-3 0-7 0-42 50-56 28-7 108-16v-38q0-55-57-55-41 1-87 19l-8-21 5-2q39-17 59-21t30-4 18 1 23 4 24 11 18 22 8 35v154h38v25h-66l-5-19q-45 21-87 21m9-23q38 0 78-17v-72q-75 3-97 10-17 5-24 16t-7 19 0 10q2 18 16 26t34 8m203-329h-34v-25h66v145q30-25 67-25 34 0 64 21 16 12 26 36t10 60q0 66-33 100-38 38-95 38-22 0-43-4t-28-8v-338m32 137v185q15 3 32 3 49 0 76-29t26-82q0-61-36-80-17-10-42-10t-56 13" />
</svg>