<svg id="fnt-Antonio" viewBox="0 0 1380 1000" xmlns="http://www.w3.org/2000/svg"><path id="antonio" class="f" d="M60 667h-48l65-430h61l71 430h-47l-13-82h-77l-12 82m48-350l-31 227h66l-34-227h-1m198 350h-50v-367h50v39q5-17 21-30t38-13q28 0 43 19t16 60v292h-50v-292q0-20-9-28t-22-9q-10 0-19 4t-13 14-5 24v287m286 2h-35q-23 0-35-6t-16-18-4-33v-272h-34v-37h34v-66h50v66h39v37h-39v268q0 9 2 14t11 6 27 1v40m123 2q-26 0-42-9t-24-25-12-40-3-51v-130q0-35 6-62t24-42 51-16q25 0 41 9t25 25 12 38 3 48v130q0 28-3 51t-11 39-25 26-42 9m0-42q14 0 20-8t9-25 2-37v-153q0-21-2-36t-9-24-20-8q-13 0-20 8t-9 24-2 36v153q0 21 2 37t9 25 20 8m196 38h-50v-367h50v39q5-17 21-30t38-13q28 0 43 19t16 60v292h-50v-292q0-20-9-28t-22-9q-10 0-19 4t-13 14-5 24v287m238 0h-50v-367h50v367m0-400h-50v-46h50v46m149 404q-26 0-42-9t-25-25-12-40-3-51v-130q0-35 7-62t24-42 51-16q25 0 41 9t24 25 12 38 4 48v130q0 28-3 51t-12 39-24 26-42 9m0-42q13 0 20-8t8-25 2-37v-153q0-21-2-36t-9-24-19-8q-14 0-21 8t-9 24-2 36v153q0 21 2 37t9 25 21 8" />
</svg>