<svg id="fnt-Anybody" viewBox="0 0 2038 1000" xmlns="http://www.w3.org/2000/svg"><path id="anybody" class="f" d="M129 328l-113 339h53l30-94h134l29 94h53l-113-339h-73m95 210h-116l58-179h0l58 179m133-168v297h50v-239l-11-58h-39m185 127v170h51v-170q0-60-22-95t-72-35q-52 0-85 33t-33 68l25 16q0-35 21-58t53-23 47 21 15 73m81-127l87 297h77l86-297h-53l-71 262h-1l-72-262h-53m12 377v35q58 0 95-23t57-92h-47q-14 48-38 64t-67 16m276-473v393h47l4-48v-345h-51m145 395q54 0 80-38t26-113q0-75-26-113t-80-37q-48 0-82 24t-34 51l22 26q0-25 23-46t54-20q34 0 53 25t19 90q0 66-19 91t-53 24q-31 0-54-20t-23-47l-22 28q0 26 34 50t82 25m276 0q67 0 99-37t32-114-32-114-99-37q-66 0-98 37t-32 114 32 114 98 37m0-35q-34 0-57-24t-22-92 22-92 57-24 58 24 22 92-22 92-58 24m371-16l3 49h47v-393h-50v344m-94 51q49 0 82-25t34-50l-22-28q0 26-23 47t-54 20q-33 0-53-24t-19-91 19-91 53-24q32 0 54 20t23 46l22-26q0-27-34-51t-82-24q-53 0-80 37t-26 113 26 113 80 38m178-299l86 297h78l85-297h-53l-71 262h0l-72-262h-53m12 377v35q57 0 94-23t58-92h-47q-15 48-39 64t-66 16" />
</svg>