<svg id="fnt-Archivo Narrow" viewBox="0 0 2825 1000" xmlns="http://www.w3.org/2000/svg"><path id="archivo-narrow" class="f" d="M44 667h-45l110-343h56l109 343h-47l-24-77h-136l-23 77m82-269l-47 152h112l-47-152q-1-6-3-15t-4-16-1-7h-2t-1 7-3 16-4 15m219 269h-41v-263h31l5 34h3q5-15 16-28t29-12q8 0 14 2t5 2v42h-13q-13 0-25 6t-18 19-6 37v161m173 6q-46 0-68-34t-22-104 22-104 68-33q43 0 62 26t19 77h-43q0-34-8-50t-30-17q-24 0-36 23t-11 69v19q0 45 11 68t36 23q22 0 31-17t9-50h41q0 28-8 51t-26 38-47 15m168-6h-41v-362h41v126h3q10-17 25-25t34-8q30 0 47 17t18 62v190h-41v-187q0-27-10-37t-27-9q-19 0-34 19t-15 53v161m235 0h-41v-263h41v263m0-314h-42v-48h42v48m161 314h-44l-76-263h45l36 133q2 8 4 17t5 16 4 17 5 17h2q2-9 4-17t5-17 4-17 5-17l35-132h42l-76 263m194 6q-46 0-70-34t-24-104 24-104 70-33 70 33 24 104-24 104-70 34m0-37q26 0 38-23t13-68v-19q0-46-13-69t-38-23-38 23-13 69v19q0 45 13 68t38 23m303 31h-40v-343h38l128 215q4 7 8 18t9 19 4 9l1 0t0-9-1-20 0-17v-215h39v343h-36l-129-219q-4-7-9-18t-9-19-4-9l-1 1t0 8 1 19 1 18v219m307 6q-9 0-21-3t-23-11-18-22-7-38q0-37 17-56t48-25 68-7v-34q0-19-8-31t-33-12q-23 0-32 13t-9 29v6h-40q-1-3-1-5t0-6q0-36 24-55t61-18q40 0 59 19t20 54v148q0 9 5 13t9 4h16v29q-3 2-10 4t-17 2q-16 0-27-9t-14-24h-3q-10 16-27 25t-37 10m10-37q13 0 25-7t21-22 8-36v-24q-27 0-47 4t-32 14-11 31q0 23 9 31t27 9m203 31h-41v-263h31l6 34h3q5-15 15-28t29-12q9 0 14 2t6 2v42h-14q-13 0-24 6t-18 19-7 37v161m137 0h-41v-263h31l5 34h3q5-15 16-28t29-12q8 0 14 2t5 2v42h-13q-13 0-25 6t-18 19-6 37v161m179 6q-46 0-70-34t-24-104 24-104 70-33 70 33 24 104-24 104-70 34m0-37q26 0 38-23t13-68v-19q0-46-13-69t-38-23-38 23-13 69v19q0 45 13 68t38 23m226 31h-46l-65-263h45l33 148q2 10 5 25t4 26 1 11h2t1-10 3-24 4-28l27-148h47l27 148q2 10 3 20t3 21 2 15 0 6h2t1-5 2-15 3-20 5-22l33-148h41l-65 263h-46l-27-150q-3-14-5-28t-2-23-1-10h-2t-1 10-3 23-4 28l-27 150" />
</svg>