<svg id="fnt-Are You Serious" viewBox="0 0 2771 1000" xmlns="http://www.w3.org/2000/svg"><path id="are-you-serious" class="f" d="M365 710q-2 0-4-1t-4 0h-2q-14 0-20-6t-8-14-4-18-5-15q-2-3-3-6t-1-8q0-7 3-12t3-7q0-8 0-22t2-28 1-21q1-8 1-17t1-9q0-7-3-9t-2-8q-24 1-48 6t-47 10l-6 21q-6 17-10 34t-12 33q-11 18-29 33t-40 26-44 10q-40 0-62-22t-21-65q0-16 4-34t13-34 23-27 32-15q4-1 8-2t10 0q32 0 48 19t16 48q0 14-6 22t-16 12q-11 9-29 9-12 0-19-7-5-2-4-8 0-1 0-1t-1-1q-1-4-1-6 0-6 6-6 6 0 11 6 1 0 2 0t1 1q5 0 12-1t12-2q7-7 7-23 0-13-7-23t-19-15h-3q-10 0-17 1t-17 2q-2 8-7 9t-12 2l0 1q1 7-2 10t-5 5-8 5l1 2q1 5 1 10 0 6-5 11l-1 1q3 4 3 6 0 6-7 11 4 3 4 8 0 3-1 6t-3 7l1 1q3 5 8 10t5 12q0 2-1 3t0 3q10 3 11 14l0 1q4 3 11 6t15 5 13 2q3 0 6-1t6-1q3 0 5 0l0 0q6-3 9-1 28-10 50-33t28-51q3-11 6-22t6-22l-19 4q-5 2-8-2t-3-7q0-4 2-6 1-5 6-7 13-8 29-12 2-7 4-14t3-13q2-8 5-22t9-30 13-30 17-23 23-9q6 0 10 0t8 1q20 1 30 10t14 24 5 29q1 7 1 13t0 12v17q0 5 0 11t0 14q8 1 15 3t14 8q5 3 5 8 0 8-10 8-5 0-12-1t-13-3q0 8-1 16t0 16v43q0 1 0 6t0 11q0 4 0 7t-1 3q-1 4-2 13t0 19q0 14 2 27t10 17h7q2 0 4-2 3-2 6-2 7 0 8 7 0 2 0 4 0 4-3 7t-9 5q-2 0-4 0t-4 0m-133-214q1 0 3-1t4 0q4-2 7-5t9-3q3 0 5 1t4 2q9 0 19-3t20-2q6 0 11 1t12 2q0-7 0-15t0-15q0-15-1-29l-2-3q0-2-3-8t-6-15-6-15q-10-9-25-9-3 0-4 0-5 3-10 10t-9 13-6 11q-8 20-13 41t-9 42m162 201q-2 2-5 2-7 0-7-7 0-2 3-6 7-7 10-11t13-5q1 0 2-1t1 0q3-4 7-11t6-15 2-12q-1-2-1-4t0-3q0-8 3-12t5-9l3-2q0-1 0-1t0 0q0-2-4-4t-4-6q0-5 3-8t5-2v-10q0-3 0-6t3-5q-1-2-2-5t-3-4q-6 3-14 4t-14 1h-2q-3 0-5-2t-1-5 1-4 5-3q5-1 14-1t12-4l2-2q2-3 4-4t7-1l6 2q8-6 12-8t13-7q4-1 6-1 4 0 4 6 0 4-2 10t-3 9q3-2 9-8t10-7q3-4 6-6t8-3q4 0 8 5h8q2-1 4-2t4-1q6 0 12 4t7 8q2 2 5 3t4 4q2 3 1 7t0 7q0 6 0 15t-1 17-6 9h-3q-6 10-17 17t-28 7q-2 0-2 0-2 0-5 0-8 0-11-4t-4-10q-3-6-3-11 0-8 3-14 3-8 7-13t14-5q4 0 9 2 6 1 6 7 0 3-2 5t-7 2h-2q-7 0-11 7v7q0 1-1 3t0 5q3 4 7 4 6-1 13-2t10-3q-1-1-1-4 0-7 9-11-2-2-2-4 0-6 8-11-5-3-5-9 0-3 1-4t2-2q-3-3-3-6 0-2 1-3t0-2q0-1-2-2t-9-2q-2 0-4 1t-5 1q-4 0-7-2-2 0-4 0t-3 2q-4 4-12 9t-15 9q-5 5-8 11t-7 13q1 3-2 12t-5 12q-1 12-2 20t0 14-1 18q4 1 8 2t10 2l0 1q4 0 6 4 7 0 7 7 0 2-2 5t-6 2q-2 0-10-2t-15-3q-2 0-4 0t-4 1q-3 6-9 6h-3q-5 2-10 5t-11 3q-5 0-7 0t-4 1q0 0-1 1 0 0-1 2t-5 4m239-31h-16q-18 0-27-15-7-5-13-12t-5-13q0-4 1-7-2-6 0-8l0 0q-1-1-3-3t-1-6q0-5 2-7l-1-1q0-1 0-4 0-6 3-11t8-9q-3-5-3-9 0-10 7-20t13-15q-1-12 11-12 4 0 8-4t11-3q2 0 4 1t3 1q11 0 20 11t16 26 7 26q-1 3-4 3t-7 2h-4q-3 0-7-1t-4 0q-5 0-14 1t-18 1-14 3q-5 2-7 11t-2 20q0 5 3 15t9 17 14 7q11 0 17-3t9-8q1-3 5-5t4-5q1-3 4-7t4-7q0-1-1-3t0-3q0-2 1-4t4-1 5 3 3 11q0 2 0 3t0 3q-2 6-3 8-1 1-2 3t-3 4q-4 4-10 10t-14 11-13 5m-33-100q2 1 3 1t3 0q3 0 6-1t6 0q4-1 7-1t7 0h7q-1-1-1-3 0-7 8-12-1-6-2-12t-5-11l-5-2q-1 0-2 0-11 0-17 9t-10 18q-1 3-2 6t-3 8m302 153q-11-6-11-20v-2q-3-3-3-6 0-13 10-19t19-7q3 0 5 1t6 1q4 0 10-5t11-9 13-6l14-3 3-1-1-1q-1-4-1-7 0-8 4-17t4-22q-1-13 4-20t8-9q0-2 0-5 0-4 1-9t4-10q0-6-1-11t0-11q-2-2-4-7t-2-11q0-7 1-11t0-7q0-3-1-5t-5-5q-6-4-8-8t-2-8q0-5 2-10t2-11q0-7-5-12t-4-14q-22-4-25-25 0-1 0-3t-1-3q-8-4-12-7t-8-12q-12-5-27-5h-15q-16 0-33 2t-28 11-14 28q-1 3-1 7t0 9q1 19 6 38t14 36 24 26 32 10q22 0 31-9 1-8 7-14 0-2 0-5t0-6v-6q-3-2-5-4t-2-7q0-5 2-12-6-11-13-17-3-1-5-2t-5-2q-2 0-4-2-9 0-9 6 0 5 5 8 6 3 6 7 0 4-4 6t-9 3q-6 0-11-6t-6-18q0-10 5-15t12-8 11-2q8 0 14 3t12 7q8 4 14 11t6 18v2q1 3 2 6t1 7q5 2 8 6t3 10q0 8-3 13t-7 7l-2 2q-1 3-2 6t-3 5q0 1 0 2t0 3q0 3-1 7-3 7-11 13t-18 8-16 3q-8 0-14-4t-12-3q-3 0-6 0t-6 1q-7 0-10-3t-4-7-5-7q-11 0-15-5t-4-13-2-14q-14-4-17-8t-4-9q0-2 0-5t1-4q0-7-2-13-5-13-5-25 0-8 3-12t4-8q0-1 0-3t1-3q0-2-1-3t0-3q0-4 1-8t1-8q1-7 2-14t6-13q6-9 18-16t25-11 25-1q2 0 3 0t3 0q5-7 13-7 18 0 32 1t22 18q21 9 37 26t27 38 11 43l2 46q6 0 9 3 2 1 5 9 1-4 2-6t3-4q0-4-1-8t0-8q0-10 3-13t6-5 6-5q2-9 4-14t5-6q4-6 11-7t11-3q-1-4-1-6t2-11 6-19 6-13 7-4 8-2q2-2 4-2 0-3-1-5t0-4q1-12 9-14t16-1q2-3 5-6t7-4q2-4 4-6t11-4q9-3 18-3t18 0q6 0 8 7 9 4 17 10t7 17q0 8-2 17t-10 15-19 7q-5 0-7-3t-2-6 2-7 7-2q13-2 13-21 0-2-9-8t-18-6q-5 0-12 1t-13 6v0q-6 10-13 12v1q-3 12-9 16t-11 4q-1 3-4 4t-7 1q-6 9-9 17t-4 16-6 14q-1 10-6 13t-18 4q0 8-4 18t-8 21-10 14q0 7-3 13t-7 12l-2 4q1 3 2 4t0 3q0 5-1 7t-4 3q-1 2-3 4t-3 3q-1 3-1 4 0 2 0 4t0 4q0 4-1 7t-4 6h-1q2 7 3 13 2 9 2 13t1 9 5 13l0 2h6q5-2 9-4t10-2q10 0 21 3t18 9q5 3 5 8 0 4-3 6t-8 2q-13-1-22-3t-21-1h-6q-2 1-4 1t-4 2q-3 6-11 6-2 0-4-1t-5 0q-8 0-18 6t-25 6q-2 0-4-1t-3 0q-10 2-19 9t-23 9q-3 0-10 1t-9 3q0 0 3 7t3 12q0 5-3 5-3 0-10-4m301-52q-17 0-27-7t-17-18q-2-3-1-7-5-5-10-12t-4-14q0-3 1-5t4-5v0q0-4 3-7t6-5q-3-3-3-7 0-3 2-6t5-6l2-2q-1-7 3-9t9-3q3-4 8-7t9-5q7-6 15-10 5-3 10-6t12-3q2 0 4 1t5 1q8 2 12 7t4 10q0 6-5 6t-12-6q-2 3-6 3h-12q-2 0-4 0t-4 2q-3 2-6 3t-5 3q-3 4-7 7t-8 6q-7 10-6 15t0 19q0 0 0 4t0 6q6 3 7 9t3 14 4 12 10 5q15 0 27-6t17-17q0-2-1-4t0-4q0-3 1-6t5-4l2-1q4-8 4-18 0-8-3-14t-10-9q-11 0-17 2-2 1-5 2t-3 3q-4 3-6 8t-1 9q0 4 0 7t1 6q1 3 3 6t5 6q3 4 3 7 0 5-7 5-6 0-13-6t-6-18q-1-2-1-4t0-5h-1q0-13 6-24t17-14q16-8 37-8 14 0 21 9t9 21 3 23q0-1-2 4t-4 12-6 14-7 6q-5 0-8 4-3 7-11 7l-1 1q-1 1-2 1t-1 1l-2 2q-6 9-20 11t-24 2m251 6q-3 3-6 3-6 0-6-8 0-8-2-17t-3-16q-3 0-6 0t-5 1q-6 4-13 6-2 2-5 4t-7 6q-3 3-8 4t-10 2q-2 0-4 0t-3-1l-1-1-1 1q-2 2-4 3t-6 1q-4 0-7-3t-6-5q-16-2-16-12 0-5 4-15-7-7-7-13 0-5 6-10-5-5-5-9 0-4 3-7t5-8q0-2 0-5 0-8 2-15t3-11q0-6-6-9t-27-5q-4 0-5-3t-2-4q0-7 8-7h9q8 0 14-1t14 0q14 0 30-4 7-4 13-6t13-7q2-2 5-2t5 2 2 5q0 3-2 5-5 6-13 10t-17 6q-2 2-4 4-4 5-7 16t-5 24-1 20v15q0 5 0 10t2 9l6 4q3 3 7 3 4 0 8-3t9-2q1 0 3 0t2 0q5-3 13-5 4-2 8-4t10-1q7 0 11-8t8-19v-7q0-13 2-23t4-21q-4-7-13-12-2 1-3 1t-2 0q-1 0-1 0t-2 1q-4 0-6-3t-2-5q0-5 6-7 2-2 6-2 1 0 3 0t3 1q7-2 14-2 10 0 19 0t17-3q6-8 14-14t17-8q1 0 1 0t2 0q6 0 6 6 0 3-2 6-14 16-29 22-9 13-16 23t-7 21q0 8-1 15t-7 9q0 3-1 6t0 7q0 3 0 6t-1 7q0 3-1 8t-2 8q0 2 1 5 10-6 20-12t19-9q5-3 7 0t3 7q0 5-4 8-11 7-20 9t-25 8q-7 5-12 12t-10 14m224 58q-24 0-38-18-10-7-16-17t-8-23q-3-5-5-10t-2-9q0-5 2-10t3-8q1-6 2-13t3-13q2-16 5-32t13-25 30-10q9 1 15-4t16-5q11 0 18 5t15 11q1 0 1 1t1 1q15 13 15 41 0 28-14 41t-38 13q-7 0-12-5t-7-9l0-3v-18q0-5 2-7t7-2 6 2 3 7l1 17q17 0 25-8t9-28q0-18-8-26t-28-8q-21 0-36 15t-21 39q0 13-4 26-1 3-1 6t0 7 0 7 1 6q4 8 9 18t10 16q11 6 28 6 31 0 56-16t41-42 15-57q0-7-2-20t-6-18q-6-3-9-7t-5-7q-11-10-25-17t-27-13l-3-2q-7 0-16-7t-13-22q-9-13-15-27t-5-26v-1q-3-4-3-10 0-20 9-33t22-18 29-8 28-2q11 0 23 5 2 0 5 0t4 4q8 4 15 11 9 7 13 19t5 21q0 13-4 25t-13 20-29 7q-13 0-25-6t-12-22q0-9 5-18t17-12q5-1 8 2t3 7q0 3-2 6t-6 3q-2 1-4 3t-2 9q0 6 6 8t12 2q17 0 22-9t6-25q0-13-9-22-3-2-4-4-3-2-7-2-9 0-12-2t-2-6l-2 1q-1 0-3 0t-1 0h-3q-2 1-5 1h-16q-5 4-9 7t-7 8q-4 7-11 10t-8 4q-2 7-2 14t1 14q2 4 3 10 0 2 0 5t1 6q4 9 10 17t11 16l3 2q7 3 13 6t12 6q1 0 1-1t2 0q13 0 19 7t11 15q5 5 10 11 8 1 12 5t4 14q1 8 8 19t6 27q0 8-3 12t-2 13q1 12-3 16t-9 13q0 0-1 0t0-1q-2 10-4 17t-6 13-14 8l-4 2q-3 13-8 15t-10 2-12 3q0 0-1 2l-1 2q-3 6-12 9t-20 4-21 1-15 0m226-65h-16q-18 0-27-15-7-5-13-12t-5-13q0-4 1-7-2-6 0-8l0 0q-1-1-3-3t-1-6q0-5 2-7l-1-1q0-1 0-4 0-6 3-11t8-9q-3-5-3-9 0-10 7-20t13-15q-1-12 11-12 4 0 8-4t11-3q2 0 4 1t3 1q11 0 20 11t16 26 7 26q-1 3-4 3t-7 2h-4q-3 0-7-1t-4 0q-5 0-14 1t-18 1-14 3q-5 2-7 11t-2 20q0 5 3 15t9 17 14 7q11 0 17-3t9-8q1-3 5-5t4-5q1-3 4-7t4-7q0-1-1-3t0-3q0-2 1-4t4-1 5 3 3 11q0 2 0 3t0 3q-2 6-3 8-1 1-2 3t-3 4q-4 4-10 10t-14 11-13 5m-33-100q2 1 3 1t3 0q3 0 6-1t6 0q4-1 7-1t7 0h7q-1-1-1-3 0-7 8-12-1-6-2-12t-5-11l-5-2q-1 0-2 0-11 0-17 9t-10 18q-1 3-2 6t-3 8m93 131q-2 2-5 2-7 0-7-7 0-2 3-6 7-7 10-11t13-5q1 0 2-1t1 0q3-4 7-11t6-15 2-12q-1-2-1-4t0-3q0-8 3-12t5-9l3-2q0-1 0-1t0 0q0-2-4-4t-4-6q0-5 3-8t5-2v-10q0-3 0-6t3-5q-1-2-2-5t-3-4q-6 3-14 4t-14 1h-2q-3 0-5-2t-1-5 1-4 5-3q5-1 14-1t12-4l2-2q2-3 4-4t7-1l6 2q8-6 12-8t13-7q4-1 6-1 4 0 4 6 0 4-2 10t-3 9q3-2 9-8t10-7q3-4 6-6t8-3q4 0 8 5h8q2-1 4-2t4-1q6 0 12 4t7 8q2 2 5 3t4 4q2 3 1 7t0 7q0 6 0 15t-1 17-6 9h-3q-6 10-17 17t-28 7q-2 0-2 0-2 0-5 0-8 0-11-4t-4-10q-3-6-3-11 0-8 3-14 3-8 7-13t14-5q4 0 9 2 6 1 6 7 0 3-2 5t-7 2h-2q-7 0-11 7v7q0 1-1 3t0 5q3 4 7 4 6-1 13-2t10-3q-1-1-1-4 0-7 9-11-2-2-2-4 0-6 8-11-5-3-5-9 0-3 1-4t2-2q-3-3-3-6 0-2 1-3t0-2q0-1-2-2t-9-2q-2 0-4 1t-5 1q-4 0-7-2-2 0-4 0t-3 2q-4 4-12 9t-15 9q-5 5-8 11t-7 13q1 3-2 12t-5 12q-1 12-2 20t0 14-1 18q4 1 8 2t10 2l0 1q4 0 6 4 7 0 7 7 0 2-2 5t-6 2q-2 0-10-2t-15-3q-2 0-4 0t-4 1q-3 6-9 6h-3q-5 2-10 5t-11 3q-5 0-7 0t-4 1q0 0-1 1 0 0-1 2t-5 4m264-219q-7 0-15-7t-8-15q0-4 4-8t8-7l7-6q1-1 3-1t4 0q6 0 11 6t4 11q0 4-2 10t-5 12-11 5m5 193t-3-1q-1 0-2-1t-3-1q-4-1-7-2t-4 0q-2 0-5 1t-4 1q0 0-2-1t-1 0q-2-1-3-1t-4-1q-2-1-6-1t-5 1l-30 0q-2 0-2 0-4 2-7 2h-2q-3 5-7 5t-5-4-2-9q0-7 7-7h1q3-3 7-3 2 0 5 1 3-1 5-1 3 0 5 1t5 1q3 0 7-2t7-4l1-5q-3-6-3-10 0-6 7-10-2-3-2-6 0-3 4-7-5-2-5-6 0-3 2-6 1-1 2-2-6-3-6-10 0-6 6-7 0-1 0-1t0-1q0-3 1-5t4-4q-4-4-3-8-2-2-6-1-1 0-1 0t-2 0q-3 1-4 1l-5-1q-1 1-1 2-5 5-10 6t-4 1q-7 0-7-8 0-2 2-5t5-2h2q4-7 13-11t17-5q2-1 5-3t4-3q1 0 2-1t1-2l1-1q1 0 1-1t0 0l4-2 4-3q1 0 3-2 1-1 4-4t5-2q5 0 6 3t1 6q1 4 0 5 0 0-1 2t-2 6q-2 6-4 14t-3 15q-1 2 0 4t0 5q-1 5-2 10t-2 10q0 6-1 14t0 16 0 8 1 7 2 8q3 7 10 13 1 0 3 1t2 1l6 1q2 1 4 2t2 2v1q0 2-3 4t-5 3m84-4q-17 0-27-7t-16-18q-2-3-1-7-5-5-10-12t-5-14q0-3 2-5t3-5v0q0-4 3-7t6-5q-2-3-2-7 0-3 2-6t5-6l1-2q0-7 4-9t8-3q4-4 8-7t10-5q6-6 14-10 6-3 10-6t12-3q3 0 5 1t4 1q9 2 13 7t4 10q0 6-5 6t-12-6q-3 3-6 3h-12q-2 0-5 0t-4 2q-2 2-5 3t-5 3q-4 4-8 7t-8 6q-6 10-6 15t0 19q0 0 1 4t0 6q5 3 7 9t3 14 3 12 11 5q14 0 26-6t17-17q0-2 0-4t0-4q0-3 1-6t4-4l2-1q5-8 5-18 0-8-4-14t-10-9q-10 0-17 2-2 1-4 2t-4 3q-4 3-5 8t-1 9q0 4 0 7t1 6q1 3 3 6t5 6q3 4 3 7 0 5-8 5-6 0-13-6t-6-18q0-2-1-4t0-5h0q0-13 5-24t18-14q16-8 36-8 14 0 21 9t10 21 2 23q0-1-1 4t-5 12-6 14-6 6q-5 0-8 4-3 7-12 7l-1 1q0 1-1 1t-2 1l-1 2q-7 9-21 11t-24 2m252 6q-4 3-7 3-6 0-6-8 0-8-1-17t-3-16q-4 0-7 0t-5 1q-6 4-13 6-2 2-4 4t-7 6q-4 3-9 4t-10 2q-2 0-4 0t-2-1l-1-1-1 1q-2 2-5 3t-5 1q-5 0-8-3t-5-5q-17-2-17-12 0-5 4-15-6-7-6-13 0-5 6-10-6-5-6-9 0-4 3-7t6-8q-1-2-1-5 0-8 3-15t3-11q0-6-7-9t-27-5q-3 0-5-3t-1-4q0-7 7-7h9q9 0 15-1t14 0q14 0 30-4 6-4 13-6t12-7q2-2 5-2t5 2 3 5q0 3-3 5-5 6-13 10t-16 6q-3 2-5 4-4 5-7 16t-4 24-1 20v15q0 5 0 10t1 9l6 4q3 3 7 3 5 0 9-3t9-2q1 0 2 0t3 0q4-3 12-5 4-2 9-4t9-1q7 0 12-8t7-19v-7q0-13 2-23t4-21q-4-7-12-12-2 1-4 1t-2 0q0 0-1 0t-1 1q-4 0-6-3t-2-5q0-5 5-7 3-2 7-2 1 0 2 0t3 1q7-2 14-2 11 0 19 0t17-3q7-8 14-14t17-8q1 0 2 0t1 0q7 0 7 6 0 3-3 6-13 16-29 22-9 13-16 23t-7 21q0 8-1 15t-6 9q-1 3-1 6t0 7q0 3 0 6t-1 7q0 3-2 8t-1 8q0 2 1 5 10-6 19-12t20-9q4-3 7 0t3 7q0 5-4 8-12 7-21 9t-25 8q-6 5-11 12t-10 14m105 18q-6 0-15-3t-15-7-7-12q0-4 4-8-4-3-4-9 0-14 9-23t21-14 24-4h7q1 0 3 0t3 1q5 1 6 2 7 3 12 7t6 12q0 7-8 13t-13 7q-1 1-4 1-5 0-5-5 0-8 6-11l1-1q0-9-3-11-3-1-4-1-6 0-15 2t-16 6-6 13q0 4 0 10t3 11 8 5q5 0 9 2t8 2l8 0q3-2 7-4t14-3h3q0-1 1-2 3-7 10-11t13-7q2-5 2-19 0-8-7-16t-16-14q-13-5-26-11t-23-16-9-28q0-9 6-17t17-13 18-9 15-3q10 0 21 2t19 9 8 20q0 13-10 18t-18 7q-2 1-3 1t-3 0q-5 0-9-3t-6-6l-1-2q-3-3-3-7 0-5 6-5 3 0 5 1t5 5l1 1t0 0 0 1l1 0q2 0 3 0 4-2 7-7t4-9q0-2-5-6t-11-4q-4 0-14 2t-11 9q-2 4-3 7t-3 5q0 1 0 2t0 2q0 4 1 9t4 12q1 2 1 3t0 2q5 4 10 7t11 7q16 7 28 16t13 31q0 10-4 16t-10 9q-3 4-8 8t-14 9q-1 2-2 4t-2 3q-2 3-5 6t-10 2h-15q-1 1-3 1t-3 0h-5q-3 0-7 0t-8 0" />
</svg>