<svg id="fnt-Armata" viewBox="0 0 1866 1000" xmlns="http://www.w3.org/2000/svg"><path id="armata" class="f" d="M12 667l122-374h57l131 374h-44l-38-110h-150l-35 110h-43m89-145h128l-66-196-8 28-54 168m391-110q-32 0-64 31v224h-41v-291h36l4 39q11-18 25-28t22-12q12-4 23-4t27 5l-3 38q-13-2-29-2m232-3q-40 0-87 28v230h-41v-291h36l4 30q43-35 96-35 30 0 47 9t26 28q54-37 102-37 46 0 64 21 17 20 17 72v203h-41v-195q0-35-7-45t-16-14-22-4-24 3-22 6q-23 8-45 20 2 15 2 26v203h-42v-195q0-35-6-45t-17-14-24-4m594 64v91q0 48 5 101l-36 3-6-34q-31 25-83 34-16 4-29 4t-23-2-19-4-17-10-14-17q-12-22-12-54t5-48 15-29q20-22 69-22t105 18v-31q0-53-44-63-14-3-32-3-42 0-87 16l-9-35q13-8 64-15 16-2 38-2t45 6 36 17q29 24 29 79m-41 62q-57-15-105-15-30 0-40 17-7 12-7 36t3 34 8 17q12 13 38 13 42 0 82-21 13-6 23-14-2-27-2-67m281 86l14 32q-40 19-74 19-61 0-69-53-2-12-2-36v-173h-35v-30l35-4 6-66h34v66h85v34h-85v172q0 30 5 39 8 15 32 15t54-15m302-148v91q0 48 4 101l-36 3-6-34q-31 25-82 34-17 4-30 4t-22-2-19-4-17-10-14-17q-13-22-13-54t5-48 15-29q21-22 70-22t105 18v-31q0-53-44-63-14-3-33-3-41 0-86 16l-9-35q12-8 63-15 16-2 39-2t44 6 36 17q30 24 30 79m-41 62q-58-15-106-15-30 0-39 17-7 12-7 36t3 34 8 17q11 13 38 13 41 0 82-21 12-6 22-14-1-27-1-67" />
</svg>