<svg id="fnt-Arya" viewBox="0 0 891 1000" xmlns="http://www.w3.org/2000/svg"><path id="arya" class="f" d="M216 667l-29-92h-122l-29 92h-29l99-307h61l99 307h-50m-143-116h106l-53-167-53 167m284-79q12-21 32-34t50-13v37q-77 0-77 60h0v145h-51v-240h22l24 45m280-45h29l-122 341-41-6 46-86-104-249h51l76 189 65-189m123 246q-31 0-49-17t-17-46q0-31 22-49t68-25l55-9v-25q0-56-43-56-25 0-37 14t-13 45l-42-5q3-39 24-59t69-20q47 0 70 20t23 63v163h-32l-16-35q-15 20-37 30t-45 11m18-27q17 0 33-10t28-23v-66l-49 10q-25 5-38 17t-12 33q0 18 10 28t28 11" />
</svg>