<svg id="fnt-Asset" viewBox="0 0 3073 1000" xmlns="http://www.w3.org/2000/svg"><path id="asset" class="f" d="M222 667h-205v-23q7 0 19-5t27-13q15-9 31-23t30-35l152-217h246l134 211q13 22 30 38t32 25q16 10 30 14t24 5v23h-469v-23q15 0 28-6t22-16 9-26q0-6-3-14h-194q-2 6-2 11 0 17 8 28t22 17 29 6v23m-39-119h162q-5-10-12-22t-16-30-21-36-26-45q-17 25-31 45t-24 37q-11 17-19 29t-13 22m653 132q-3-6-5-16t-4-24-3-23-1-17h31q6 11 25 21t46 15q58 13 143 13 24 0 38-6 14-7 14-16 0-8-9-13t-23-9q-20-4-48-5t-59-4-62-8q-29-5-54-14t-40-27-15-43q0-28 16-47t45-33q27-12 64-18t79-6q32 0 65 2t64 4q30 2 55 4t39 2q17 0 37-3t31-9q3 8 6 22t5 29 1 23h-29q-5-9-23-17t-45-16q-27-7-62-11t-75-5q-5 0-14 2t-16 5-7 13q0 8 8 13t23 9 33 6 41 4q21 3 44 6t44 7q29 7 53 18t38 28 14 44q0 21-14 39t-40 31q-26 13-61 20t-77 8q-34 0-67-2t-65-4-62-4-58-2q-16 0-35 3t-29 11m596 0q-2-6-5-16t-4-24-2-23-1-17h30q7 11 25 21t47 15q57 13 143 13 23 0 38-6 14-7 14-16 0-8-9-13t-24-9q-19-4-47-5t-59-4-62-8q-30-5-55-14t-39-27-15-43q0-28 16-47t44-33q28-12 64-18t79-6q33 0 66 2t63 4q31 2 56 4t38 2q17 0 37-3t31-9q4 8 7 22t4 29 2 23h-30q-5-9-22-17t-45-16q-28-7-63-11t-74-5q-5 0-14 2t-17 5-7 13q0 8 8 13t23 9 34 6 40 4q22 3 44 6t44 7q30 7 53 18t38 28 14 44q0 21-14 39t-40 31q-25 13-61 20t-76 8q-35 0-68-2t-65-4-62-4-57-2q-16 0-35 3t-30 11m873-2q-70 0-127-7t-97-23-63-41-22-62q0-36 23-64t64-46q28-12 61-19 33-8 73-12t82-4q57 0 104 8t79 25q33 17 51 44t19 63h-319q4 57 32 80t90 22q30 0 58-4t53-12q24-8 39-21t15-29h32q0 27-22 46t-55 32q-35 12-79 18t-91 6m-72-165h99q0-22-4-38t-9-26q-6-10-15-14t-17-5q-11 0-20 5t-17 14q-7 11-12 26t-5 38m624 165q-14 0-28-1t-27-1q-26-2-48-7t-40-14q-18-10-31-24-13-14-20-34t-7-49v-103h-66v-23q44 0 85-8t75-22q34-14 56-37t27-54h52v110h153v34h-153v76q0 33 3 57t10 37q15 28 56 28 22 0 42-6t33-21 13-42h29q0 26-9 45t-33 32q-16 9-39 14-24 7-57 10t-76 3" />
</svg>