<svg id="fnt-Assistant" viewBox="0 0 1863 1000" xmlns="http://www.w3.org/2000/svg"><path id="assistant" class="f" d="M40 667h-38l113-329h41l112 329h-39l-60-186q-9-28-17-56t-17-56h-2q-7 29-16 56t-17 56l-60 186m169-104h-150v-29h150v29m165 110q-26 0-49-10t-41-24l19-24q15 12 32 21t41 8q25 0 37-12t13-28q0-13-9-22t-21-15-27-11q-17-6-34-15t-28-21-11-34q0-28 21-48t61-20q22 0 41 8t33 19l-18 24q-12-9-26-16t-30-6q-24 0-35 11t-12 26q0 12 8 20t20 13 27 11q18 7 35 15t29 22 11 37q0 19-10 35t-29 26-48 10m208 0q-26 0-49-10t-41-24l19-24q15 12 32 21t41 8q25 0 37-12t13-28q0-13-9-22t-21-15-27-11q-17-6-34-15t-28-21-11-34q0-28 21-48t61-20q22 0 41 8t33 19l-18 24q-12-9-26-16t-30-6q-24 0-35 11t-12 26q0 12 8 20t20 13 27 11q18 7 35 15t29 22 11 37q0 19-10 35t-29 26-48 10m182-6h-36v-243h36v243m-17-295q-11 0-18-7t-7-18q0-11 7-18t18-7q11 0 18 7t7 18q0 11-7 18t-18 7m164 301q-26 0-49-10t-41-24l19-24q15 12 32 21t41 8q25 0 37-12t13-28q0-13-9-22t-21-15-27-11q-17-6-34-15t-28-21-11-34q0-28 21-48t61-20q22 0 41 8t33 19l-18 24q-12-9-26-16t-30-6q-24 0-35 11t-12 26q0 12 8 20t20 13 27 11q18 7 35 15t29 22 11 37q0 19-10 35t-29 26-48 10m220 0q-38 0-53-22t-14-57v-140h-37v-27l38-3 5-68h30v68h67v30h-67v141q0 22 8 35t31 13q6 0 14-2t14-5l7 28q-10 3-22 6t-21 3m147 0q-20 0-36-8t-26-24-9-36q0-40 36-62t115-29q0-16-5-32t-15-24-32-9q-22 0-41 8t-33 18l-14-25q10-7 25-14t32-13 37-5q29 0 47 13t26 34 9 52v150h-30l-3-30h-2q-17 15-38 25t-43 11m9-30q19 0 35-9t36-25v-71q-43 5-68 14t-36 21-11 29q0 22 13 31t31 10m222 24h-36v-243h30l3 36h2q17-18 37-30t44-12q39 0 56 24t18 71v154h-36v-150q0-35-12-51t-36-16q-20 0-35 10t-35 29v178m309 6q-38 0-52-22t-15-57v-140h-36v-27l38-3 4-68h31v68h66v30h-66v141q0 22 8 35t30 13q7 0 14-2t14-5l8 28q-10 3-22 6t-22 3" />
</svg>