<svg id="fnt-Astloch" viewBox="0 0 1296 1000" xmlns="http://www.w3.org/2000/svg"><path id="astloch" class="f" d="M192 512l29 27 46-35v-110q0-75 40-101 14-9 36-9v12q-34 0-49 28t-14 70v189q0 40 30 65 10 8 20 15l-7 10q-27-19-37-32-19-26-19-57v-66l-46 37-36-33q-31 40-46 56l-27 30-26 26q-26 25-46 39l-9-9q45-33 93-86 78-85 105-153 10-22 10-40 0-35-30-62t-69-27-57 17-19 36 6 31q9 18 33 36 9 8 18 17 20 21 20 51t-24 46q-18 12-37 12-1 0-1 0-31 0-48-16-17-16-17-39 0-23 17-39 16-16 38-16v12q-17 0-30 13t-12 31q0 17 13 29t33 13q0 0 0 0 35-1 50-26 6-9 6-23 0-15-6-25t-14-18-19-16q-38-31-38-71 0-25 22-46 22-21 65-21l0 0q43 0 77 29 34 29 34 74t-58 125m222-110l-48 45 50 60q2-2 7-5l59-45q12 9 22 24t17 32 8 37q0 40-27 74t-71 50q-4-7-11-15l-29-32q-28-31-28-57 0-18 20-37l7 9q-15 15-15 28t6 24 17 23 20 21 18 22q37-16 59-47t22-62-25-66q-6-9-10-13l-68 51-64-76 65-64q14 20 23 27 16 11 30 11 26 0 42-16t15-38q0-23-15-39t-39-15-38 16-16 38h-12q0-27 20-47t46-19q27-1 47 19t20 47q0 27-20 47t-49 19-55-31m250 260l-3 12q-57-16-57-74l0-191h-10q-12 0-29 13-4 4-9 7l-7-10q29-23 45-23h11l23-80 12 3-22 77h67v13h-69v105q0 40 1 87t47 61m123-409l6 11q-36 19-47 58-4 13-4 28v317h-12v-317q0-48 35-81 10-10 22-16m53 153l52-39q41 27 41 65v131q0 25-12 39-5 6-14 13l-80 59-13-6v-204q0-38 26-58m52-25l-45 35q-21 16-21 48v196l74-54q13-9 17-20t4-23v-131q0-30-29-51m113 91v128q0 46 41 60l49-38 8 10-54 42q-26-8-41-26t-15-48v-128q0-26 8-44t28-32l42-30 38 73-8 5-34-61-31 23q-31 21-31 66m170-45l73-60q46 52 46 109v88q0 38-23 84t-59 87l-9-8q55-60 73-123 6-21 6-40v-88q0-51-35-92l-72 59v224h-12v-317q0-49 35-81 10-10 22-16l6 11q-36 19-47 58-4 13-4 28v77" />
</svg>