<svg id="fnt-Asul" viewBox="0 0 922 1000" xmlns="http://www.w3.org/2000/svg"><path id="asul" class="f" d="M187 545q-20-1-56-1t-56 1q-14 56-17 74t-3 39v9h-69v-5q23-18 61-139t49-159 12-48l59-6q0 18 31 109t51 142 30 70 23 31v5h-84v-9q0-18-5-33t-6-20l-20-60m-58-191q-10 26-48 162h98q-9-27-27-86t-23-76m238 98q-9 9-9 25t10 24 25 13 33 10 33 13 25 22 10 36q0 38-28 58t-74 19-81-23q2-26 15-46 45 41 82 41 16 0 29-6 12-11 12-29t-14-27-33-15-39-13-34-22-13-39q0-35 26-54t66-18 79 17q-5 22-18 44-35-36-74-36-16 0-28 6m267 220q-42 0-59-22t-17-67v-71q0-48-15-82v-3h70v3q-8 27-8 67v78q0 30 8 43t36 13 68-27v-92q0-49-14-82v-3h69v3q-8 27-8 67v84q0 22 8 43t17 29l1 6-59 14q-8-23-12-44-24 21-44 32t-41 11m287-11v6h-65v-6q9-25 9-79v-209q0-40-23-62v-6l68-12 3 5q-1 15-1 96l0 188q0 54 9 79" />
</svg>