<svg id="fnt-Atkinson Hyperlegible" viewBox="0 0 4792 1000" xmlns="http://www.w3.org/2000/svg"><path id="atkinson-hyperlegible" class="f" d="M55 667h-50l126-335h52l125 335h-50l-25-73h-152l-26 73m102-287l-62 173h123l-61-173m285 287h-32q-23 0-36-5t-18-18-4-39v-153h-42v-33h42v-63h42v63h48v33h-48v146q0 19 3 25t22 7h23v37m97 0h-42v-334h42v197l100-111h50l-93 102 106 146h-52l-82-115-29 32v83m246-295q-13 0-22-10t-9-22 9-22 22-9q13 0 22 9t9 22-9 22-22 10m21 295h-42v-215h-35v-33h77v248m117 0h-42v-248h31l11 37q10-17 29-29t51-12q45 0 63 26t19 69v157h-42v-145q0-19-4-35t-15-26-36-10q-30 0-48 20t-17 61v135m315 6q-21 0-42-7t-37-21-25-34l41-15q5 22 24 31t39 10q15 0 28-4t22-13 9-20q0-20-17-29t-38-13l-35-7q-18-4-33-11t-25-21-10-36 14-38 36-23 46-8q29 0 55 12t38 39l-40 14q-6-15-23-22t-33-7q-19 0-35 8t-15 25 13 23 33 11l32 7q20 4 38 11t30 22 11 42q0 23-14 40t-38 25-49 9m254 0q-21 0-42-8t-39-23-27-40-11-58 11-58 27-41 39-23 42-7 43 7 38 23 28 41 10 58-10 58-28 40-38 23-43 8m0-37q18 0 35-10t28-30 11-52-11-53-28-30-35-9q-17 0-35 9t-28 30-11 53 11 52 28 30 35 10m215 31h-42v-248h31l11 37q11-17 30-29t50-12q45 0 64 26t18 69v157h-42v-145q0-19-3-35t-16-26-35-10q-31 0-48 20t-18 61v135m421 0h-47v-334h47v142h175v-142h47v334h-47v-152h-175v152m300 80h-21v-37h17q18 0 27-3t15-12 12-28l-90-248h47l61 191 61-191h46l-88 259q-9 26-19 41t-24 22-44 6m252 0h-42v-328h30l12 39q11-20 31-32t49-11q29 0 53 15t39 44 15 70q0 40-15 69t-39 44-53 16q-29 0-49-12t-31-32v118m69-110q32 0 51-25t20-68q0-45-20-69t-51-24-51 24-19 69q0 44 19 68t51 25m277 36q-39 0-66-18t-41-46-14-66q0-39 16-68t43-45 61-15q30 0 52 11t37 32 22 45 5 51h-191q1 31 13 49t31 25 32 8q21 0 35-7t23-18l41 12q-14 22-39 36t-60 14m-76-152h146q0-18-9-34t-24-26-38-10q-18 0-35 7t-27 22-13 41m282 146h-42v-248h31l13 46q13-23 35-37t54-13v43q-4 0-8 0t-7 1q-42 3-59 29t-17 72v107m205 0h-18q-24 0-37-5t-17-18-5-39v-272h42v265q0 19 4 25t22 7h9v37m148 6q-39 0-66-18t-41-46-14-66q0-39 16-68t43-45 61-15q30 0 52 11t37 32 22 45 5 51h-191q1 31 13 49t31 25 32 8q21 0 35-7t23-18l41 12q-14 22-39 36t-60 14m-76-152h146q0-18-9-34t-24-26-38-10q-18 0-35 7t-27 22-13 41m342 242q-20 0-40-6t-35-19-21-33l42-12q7 20 23 26t31 7q39 0 52-19t14-54v-33q-11 19-30 31t-49 11q-27 0-51-14t-39-42-15-67q0-40 15-68t39-42 51-14q30 0 49 11t30 32l12-39h30v224q0 59-24 89t-84 31m-2-136q19 0 34-9t26-28 10-51-10-51-26-29-34-8q-31 0-51 22t-19 66 19 65 51 23m223-255q-12 0-22-10t-9-22 9-22 22-9q13 0 22 9t10 22-10 22-22 10m21 295h-42v-215h-34v-33h76v248m198 6q-29 0-49-12t-32-32l-11 38h-31v-334h42v125q12-20 32-32t49-11q28 0 52 15t39 44 15 70-15 69-39 44-52 16m-11-36q32 0 51-25t19-68q0-45-19-69t-51-24-52 24-19 69q0 44 19 68t52 25m248 30h-18q-24 0-37-5t-17-18-5-39v-272h42v265q0 19 4 25t22 7h9v37m148 6q-39 0-66-18t-41-46-14-66q0-39 16-68t43-45 61-15q30 0 52 11t37 32 22 45 5 51h-191q1 31 13 49t31 25 32 8q21 0 35-7t23-18l41 12q-14 22-39 36t-60 14m-76-152h146q0-18-9-34t-24-26-38-10q-18 0-35 7t-27 22-13 41" />
</svg>