<svg id="fnt-Atomic Age" viewBox="0 0 2808 1000" xmlns="http://www.w3.org/2000/svg"><path id="atomic-age" class="f" d="M40 667l15-93h-56q1-9 5-16t9-14 13-9 16-3h21l32-189q2-10 7-19t11-15 14-9 16-3h59q8 0 16 3t14 10 11 14 7 19l55 324h-58l-15-93h-120l-15 93h-57m79-135h106l-31-194h-45q-7 47-15 96t-15 98m259 73v-156h-19v-38h19v-68l59-29v97h65v38h-65v176h87q-1 8-5 16t-9 13-14 9-15 4h-56q-10 0-19-5t-14-14-10-19-4-24m180 0v-132q0-13 3-24t10-20 15-13 18-5h204q-1 9-5 16t-9 14-13 8-16 4h-15q5 3 9 9t8 12 6 16 2 18v97q0 13-4 24t-10 20-15 13-17 5h-125q-10 0-18-5t-15-13-10-20-3-24m58 20h101v-172h-101v172m260 42v-256h58v98l59-79q8-10 17-14t20-5q10 0 19 5t16 13 10 20 4 24v27l52-70q7-9 17-14t22-5q10 0 19 5t15 13 11 20 4 24v152h43q-1 8-4 16t-10 13-13 9-15 4h-13q-10 0-18-5t-15-14-10-19-3-24v-147l-82 99v110h-58v-209l-87 107v102h-58m462-315q-8 0-16-3t-13-9-9-13-3-16 3-16 9-13 13-9 16-3 16 3 13 9 9 13 3 16-3 16-9 13-13 9-16 3m-28 253v-194h58v214h52q-1 8-4 16t-10 13-13 9-15 4h-22q-9 0-18-5t-15-14-10-19-3-24m152 0v-132q0-13 4-24t9-20 15-13 18-5h129q9 0 18 5t14 13 10 20 4 24v45h-58v-65h-105v172h171q-1 8-5 16t-9 13-13 9-16 4h-140q-9 0-18-5t-15-13-9-20-4-24m464 62l16-93h-56q1-9 5-16t9-14 13-9 15-3h21l33-189q2-10 6-19t12-15 14-9 16-3h59q7 0 15 3t15 10 11 14 6 19l56 324h-58l-15-93h-120l-15 93h-58m79-135h107l-31-194h-45q-8 47-15 96t-16 98m253 73v-132q0-13 3-24t10-20 15-13 18-5h171v214h51q-1 8-4 16t-10 13-13 9-15 4h-9v69q0 13-4 25t-10 19-14 14-18 5h-119v-43h107v-116q-8 12-18 19t-21 8h-74q-10 0-18-5t-15-14-10-19-3-24m58 20h101v-172h-101v172m253-20v-132q0-13 4-24t9-20 15-13 18-5h130q9 0 18 5t15 13 10 20 3 24v81h-164v71h179q-1 8-4 16t-10 13-13 9-15 4h-149q-9 0-18-5t-15-14-9-19-4-24m58-85h106v-67h-106v67" />
</svg>