<svg id="fnt-Audiowide" viewBox="0 0 2828 1000" xmlns="http://www.w3.org/2000/svg"><path id="audiowide" class="f" d="M380 349v318h-63v-86h-223v86h-64v-175q0-39 13-71t37-55 55-37 70-12h143q7 0 13 2t10 7 7 10 2 13m-286 143v25h223v-137h-112q-3 0-12 1t-22 4-26 11-25 19-19 31-7 46m640-89v232q0 7-2 12t-7 10-10 7-12 3h-144q-11 0-25-3t-26-9-25-15-21-22-15-30-5-39v-146h63v146q0 13 5 23t11 17 17 10 22 4h111v-200h63m349-112v287q0 16-4 29t-11 23-16 17-18 11-20 7-20 2h-114q-16 0-29-5t-23-11-17-16-11-19-7-20-2-18v-86q0-25 9-42t22-27 29-16 29-4h114v63h-114q-12 0-19 7t-7 19v85q0 13 7 20t19 6h114q13 0 20-6t6-19v-287h63m125 0v58h-63v-58h63m0 112v264h-63v-264h63m348 89v86q0 16-4 29t-11 23-16 17-19 11-20 7-19 2h-114q-13 0-29-5t-29-15-22-28-9-41v-86q0-25 9-42t22-27 29-16 29-4h114q25 0 42 9t27 22 16 29 4 29m-63 86v-86q0-13-7-19t-19-7h-114q-12 0-19 7t-7 19v86q0 12 7 19t19 6h114q13 0 20-6t6-19m481-175h71q-15 34-33 67t-37 62-39 54-39 42-39 29-35 10q-7 0-13-3t-10-7-7-10-2-12v-119l-126 141q-5 5-11 7t-12 3q-6 0-12-3t-10-7-7-10-3-12v-232h64v150l126-141q7-7 17-9t18 2q9 4 14 12t5 17v151q21-20 38-42t30-45 27-47 25-48m157-112v58h-63v-58h63m0 112v264h-63v-264h63m351-112v287q0 16-4 29t-11 23-16 17-19 11-20 7-19 2h-115q-16 0-29-5t-23-11-17-16-11-19-7-20-2-18v-86q0-25 9-42t22-27 29-16 29-4h115v63h-114q-13 0-20 7t-6 19v85q0 13 6 20t19 6h115q13 0 19-6t6-19v-287h64m344 199q0 13-4 29t-15 28-28 22-40 9h-115v-61h115q13 0 20-8t7-19q0-13-8-20t-19-7h-115q-13 0-20 8t-7 20v88q0 13 8 20t20 7h114v61h-115q-13 0-28-5t-28-15-22-27-9-41v-89q0-13 5-28t15-29 27-21 40-9h115q13 0 28 4t29 15 21 27 9 41" />
</svg>