<svg id="fnt-Gabriela" viewBox="0 0 2028 1000" xmlns="http://www.w3.org/2000/svg"><path id="gabriela" class="f" d="M187 806q-31 0-51-11t-30-27-10-34q0-15 7-29t21-23 35-8q6 0 8 1t2 4q0 3-6 9t-13 16-6 29q0 19 13 33t38 14q32 0 49-25t17-82v-47q-18 15-40 23t-48 9q-53 0-87-24t-51-65-17-90q0-36 10-68t30-57 52-39 73-14q36 0 63 10t42 27 16 41q0 26-16 42t-38 17q-8 0-9-2t-1-4q0-3 3-8t8-15 4-23q0-25-20-41t-52-16q-31 0-53 13t-34 36-19 48-5 50q0 41 12 75t36 55 57 20q26 0 47-9t37-25v-25q0-24-7-33t-25-14l-12-3 6-17h105l7 8-7 9q-12 17-17 35t-5 49v58q0 53-15 85t-41 47-63 15m271-132q-24 0-44-14t-33-40-13-68q0-43 16-75t45-48 69-17q23 0 49 5t51 7l5 7-6 9q-3 4-5 8t-1 11v164q0 15 15 15 12 0 25-9l9 13q-13 15-28 23t-27 9q-21 0-30-13t-9-40q-21 30-43 41t-45 12m20-39q19 0 36-11t32-34v-135q-23-16-49-16-36 0-56 27t-20 77q0 34 8 54t21 29 28 9m312 39q-29 0-54-9t-39-23v-312q0-11-10-11h-22l-5-13q15-13 33-22t33-8q7 0 12 4t4 12v338q12 8 24 12t29 4q33 0 53-28t19-75q0-31-9-54t-24-36-36-13q-15 0-22 3t-10 3q-3 0-5-3t-2-8q0-6 4-9 13-8 25-11t26-3q31 0 55 15t38 43 13 63q0 40-17 72t-46 50-67 19m271-7h-88l-5-16 10-2q13-3 17-11t4-27v-140q0-11-10-11h-22l-4-13q14-13 33-22t33-8q7 0 11 4t5 12v53h3q8-33 26-54t39-20q20 0 34 13t14 38q0 19-14 32t-35 13q-9 0-9-6 0-2 3-7t7-11 4-16-5-15-12-5q-10 0-23 13t-23 44-9 84q0 22 3 36t13 26l6 8-6 8m193 7q-21 0-30-13t-9-40v-155q0-11-10-11h-22l-4-13q14-13 33-22t33-8q7 0 11 4t4 12v195q0 17 15 17 13 0 25-11l10 13q-13 15-28 23t-28 9m-15-304q-6 0-13-5t-13-13-5-14 5-15 13-13 13-5q6 0 13 5t13 13 5 15-5 14-13 13-13 5m216 304q-35 0-61-16t-40-45-14-67q0-41 16-71t45-47 68-16q29 0 48 10t28 27 9 36q0 21-11 40t-32 32-52 13q-5 0-15-2t-18-4-16-7-6-11q0-4 2-7t5-4q4 0 10 3t22 4q22 0 36-9t21-21 7-27q0-19-12-34t-36-14q-32 0-50 28t-18 81q0 44 19 69t55 26q21 0 40-7t33-22q2-2 5-2 4 0 8 5t5 10q0 2-2 4-39 45-99 45m214 0q-20 0-29-13t-9-40v-291q0-11-10-11h-22l-5-13q15-13 33-22t33-8q7 0 11 4t5 12v331q0 17 15 17 12 0 25-11l9 13q-13 15-28 23t-28 9m176 0q-24 0-44-14t-33-40-13-68q0-43 16-75t45-48 69-17q23 0 49 5t51 7l5 7-6 9q-3 4-5 8t-1 11v164q0 15 15 15 12 0 25-9l9 13q-13 15-28 23t-27 9q-21 0-30-13t-9-40q-21 30-43 41t-45 12m20-39q19 0 36-11t32-34v-135q-23-16-49-16-36 0-56 27t-20 77q0 34 8 54t21 29 28 9" />
</svg>