<svg id="fnt-Gajraj One" viewBox="0 0 2888 1000" xmlns="http://www.w3.org/2000/svg"><path id="gajraj-one" class="f" d="M88 334h270v35h-198v263h60v-145h145v162q0 6-9 9t-23 5-24 3-16 1h-205q-5 0-16-1t-25-3-22-5-10-9v-297q0-6 10-9t22-6 25-2 16-1m492 117h-175v-34h245q4 0 15 0t24 3 22 5 9 9v216q0 5-9 8t-22 5-24 3-15 1h-185q-4 0-15-1t-24-3-22-5-9-8v-138q0-5 9-9t22-5 24-2 15-1h45q5 0 15 1t22 2 21 5 11 7q1 1 1 2v-61m0 182v-104h-45v104h45m313-299v57h-140v-40q0-5 9-9t21-5 24-2 16-1h70m-140 381v-298h140v315q0 5-9 9t-22 5-24 2-15 1h-115v-34h45m310-264v216h-140v-233q0-6 9-9t22-5 24-3 15 0h151v34h-81m290 0h-175v-34h245q4 0 15 0t24 3 22 5 9 9v216q0 5-9 8t-22 5-24 3-15 1h-184q-4 0-16-1t-24-3-21-5-9-8v-138q0-5 9-9t21-5 24-2 16-1h44q6 0 16 1t22 2 20 5 12 7q0 1 0 2v-61m0 182v-104h-44v104h44m313-299v57h-140v-40q0-5 9-9t22-5 24-2 15-1h70m-139 381v-298h140v315q0 5-9 9t-22 5-24 2-15 1h-115v-34h45m588-48h-216q-4 0-16-1t-24-3-23-5-9-9v-297q0-6 9-9t23-6 24-2 16-1h216q4 0 16 1t24 2 23 6 9 9v297q0 6-9 9t-23 5-24 3-16 1m-143-298v263h70v-263h-70m385 82v216h-140v-250h250q4 0 15 0t24 3 22 5 9 9v233h-140v-216h-40m350 182h175v34h-245q-4 0-15-1t-24-3-22-5-9-8v-216q0-6 9-9t22-5 24-3 15 0h180q4 0 15 0t24 3 22 5 9 9v145q0 5-9 8t-22 5-24 3-15 1h-40q-5 0-16-1t-22-2-20-5-12-7v52m0-182v111h40v-111h-40" />
</svg>