<svg id="fnt-Galada" viewBox="0 0 1478 1000" xmlns="http://www.w3.org/2000/svg"><path id="galada" class="f" d="M145 571q15 0 25-5t17-14l22-95 64 1-41 188q-14 68-44 96t-84 28q-31 0-50-19t-19-50q0-29 17-49t44-19 38 8 11 25q0 4-1 9t-2 11q-9-7-15-10t-15-3q-16 0-26 11t-9 27q0 15 8 25t23 9q21 0 32-14t18-47l20-90q-15 9-33 13t-28 5q-53 0-80-33t-27-95q0-37 12-72t36-62q25-28 57-43t72-15q42 0 67 17t26 50q0 22-9 34t-26 12q-11 0-20-4t-15-9q9-3 15-16t7-25q0-16-9-26t-25-10q-22 0-44 18t-38 49q-14 25-22 52t-7 54q0 39 15 61t43 22m307-131v3l5-26h72l-36 170q-1 4-1 8t-1 8q0 11 5 16t16 5q13 0 23-12t17-35h21q-16 46-41 69t-59 24q-22 0-35-12t-14-34q-16 23-35 34t-40 12q-31 0-49-21t-17-60q0-28 8-58t24-56q18-29 43-45t53-16q20 0 30 7t11 19m-29 137l24-113q0-7-5-13t-15-6q-28 0-49 46t-21 91q0 20 5 29t20 10q13 0 25-12t16-32m125 33q0-7 1-15t3-18l54-250 74-10-58 270q-1 4-1 8t-1 8q0 10 5 14t16 4q14 0 26-12t19-32h21q-16 46-43 69t-62 24q-25 0-40-16t-14-44m288-170v3l5-26h72l-36 170q-1 4-1 8t-1 8q0 11 5 16t16 5q13 0 23-12t17-35h21q-16 46-41 69t-59 24q-22 0-35-12t-14-34q-16 23-35 34t-40 12q-31 0-49-21t-17-60q0-28 8-58t24-56q18-29 43-45t53-16q20 0 30 7t11 19m-29 137l24-113q0-7-5-13t-15-6q-28 0-49 46t-21 91q0 20 5 29t20 10q13 0 25-12t16-32m191 5q0 20 6 29t19 10q13 0 25-12t16-29v-3l25-114q-2-8-7-13t-14-5q-27 0-49 46t-21 91m95-142v2l25-115 74-10-58 270q-1 4-1 8t-1 8q0 10 5 14t16 4q13 0 23-11t17-33h21q-15 45-40 67t-60 23q-21 0-34-12t-15-31q-15 23-34 34t-40 12q-31 0-49-21t-18-60q0-28 9-58t23-56q19-29 43-45t54-16q19 0 30 7t10 19m263 0v3l5-26h72l-36 170q-1 4-1 8t-1 8q0 11 5 16t16 5q13 0 23-12t17-35h21q-16 46-41 69t-59 24q-22 0-35-12t-14-34q-16 23-35 34t-40 12q-31 0-49-21t-17-60q0-28 8-58t24-56q18-29 43-45t53-16q20 0 30 7t11 19m-29 137l24-113q0-7-5-13t-15-6q-28 0-49 46t-21 91q0 20 5 29t20 10q13 0 25-12t16-32" />
</svg>