<svg id="fnt-Gantari" viewBox="0 0 1658 1000" xmlns="http://www.w3.org/2000/svg"><path id="gantari" class="f" d="M195 672q-52 0-90-23t-58-61-21-88 21-89 58-61 90-22q36 0 67 10t56 29l-18 33q-22-16-49-25t-56-9q-38 0-66 16t-44 47-15 71 15 70 44 47 66 17q32 0 56-11t40-32v-68h-101v-38h144v120q-22 31-57 49t-82 18m280 0q-27 0-47-9t-31-24-11-37 11-37 31-24 47-12l85-10q-3-29-21-43t-45-14q-17 0-36 7t-38 22l-17-31q19-15 42-24t49-9q53 0 80 24t27 73v143h-39v-37q-13 21-36 31t-51 11m7-36q26 0 43-10t26-27 9-35v-12l-75 10q-28 3-43 11t-14 28q0 17 14 26t40 9m238 31h-40v-235h39v37q10-20 31-31t49-11q41 0 64 23t23 72v145h-41v-140q0-34-14-50t-42-15q-33 0-51 23t-18 62v120m335 3q-35 0-53-17t-17-52v-134h-52v-35h52v-67h41v67h62v35h-62v131q0 18 9 27t27 10q6 0 14-1t12-1v33q-6 2-15 3t-18 1m168 2q-27 0-47-9t-31-24-11-37 11-37 31-24 47-12l85-10q-3-29-21-43t-45-14q-17 0-36 7t-38 22l-17-31q19-15 42-24t49-9q53 0 80 24t27 73v143h-39v-37q-13 21-36 31t-51 11m7-36q26 0 43-10t26-27 9-35v-12l-75 10q-28 3-43 11t-14 28q0 17 14 26t40 9m238 31h-40v-235h39v43q9-23 26-35t41-11q7 0 12 0t10 3v38q-7-2-13-3t-13 0q-27 0-44 22t-18 64v114m184 0h-40v-235h40v235m-20-287q-11 0-18-7t-7-17 7-17 18-7q11 0 18 7t7 17-7 17-18 7" />
</svg>