<svg id="fnt-Georama" viewBox="0 0 1963 1000" xmlns="http://www.w3.org/2000/svg"><path id="georama" class="f" d="M22 498q0-63 17-104t51-62 84-20q14 0 28 1t26 2 25 5 23 6l-8 35q-23-6-46-9t-45-3q-37 0-62 16t-37 49-13 84q0 48 12 78t36 46 57 15q24 0 43-3t36-8v-103h-83v-35h122v163q-23 10-55 15t-67 6q-48 0-80-19t-48-58-16-97m429 174q-28 0-49-8t-37-23-22-41-8-60q0-41 9-69t27-45 39-25 49-7q51 0 76 27t25 88q0 3-1 9t0 10q-11 1-29 2t-41 3-51 3-59 1q-1 3-1 5t0 6q0 32 9 52t27 29 44 9q16 0 32-2t32-5 28-6l6 32q-14 4-31 8t-35 5-39 2m-72-164q24 0 46-1t41-1 32-2 19-2q0-28-7-45t-20-25-34-7q-13 0-26 3t-23 13-18 26-10 41m217 24q0-35 6-62t19-43 36-25 56-8 55 8 37 25 19 43 6 62q0 37-6 63t-21 43-36 25-54 9q-32 0-54-9t-36-25-21-43-6-63m42 0q0 40 8 63t24 34 43 10q26 0 43-10t24-34 7-63q0-39-7-62t-23-34-44-10q-28 0-44 10t-24 34-7 62m243-133h38v33q15-14 28-22t26-12 28-4q11 0 21 1t18 4l-7 38q-9-2-19-4t-18-1q-17 0-36 7t-38 26v202h-41v-268m176 203q0-24 10-39t30-25 51-15 70-8v-38q0-23-16-35t-45-12q-10 0-22 1t-26 3-28 7l-8-34q22-6 44-10t43-3q33 0 55 9t33 28 12 46v130q0 16 4 22t13 6q3 0 7-1t7-2l5 31q-8 4-16 6t-17 3q-18 0-29-10t-13-28q-12 10-27 18t-32 14-38 6q-15 0-28-5t-21-13-14-22-4-30m42-3q0 21 11 32t29 11q14 0 28-5t27-12 24-18v-67q-27 2-49 5t-38 10-24 17-8 27m271 68h-41v-268h38v23q14-9 28-15t28-9 31-4q15 0 26 4t20 10 13 17q13-9 27-16t31-11 36-4q15 0 27 3t20 11 13 16 7 21 3 22v200h-42v-188q0-9-2-18t-7-16-14-11-23-4q-13 0-26 3t-23 8-20 11q2 6 3 12t1 13v190h-42v-187q0-9-2-18t-7-16-14-11-22-5q-12 0-23 3t-22 7-22 12v215m353-65q0-24 10-39t30-25 51-15 70-8v-38q0-23-16-35t-45-12q-10 0-22 1t-26 3-28 7l-8-34q22-6 44-10t43-3q33 0 55 9t33 28 12 46v130q0 16 4 22t13 6q3 0 7-1t7-2l5 31q-8 4-16 6t-17 3q-18 0-29-10t-13-28q-12 10-27 18t-32 14-38 6q-15 0-28-5t-21-13-14-22-4-30m42-3q0 21 11 32t29 11q14 0 28-5t27-12 24-18v-67q-27 2-49 5t-38 10-24 17-8 27" />
</svg>