<svg id="fnt-GFS Didot" viewBox="0 0 2346 1000" xmlns="http://www.w3.org/2000/svg"><path id="gfs-didot" class="f" d="M208 531h116v16h-17v102q-11 3-30 9t-22 8q-33 8-75 8-62 0-109-52-44-53-43-131t45-128q44-48 107-48 43 0 68 6 10 2 37 12v79h-15q-4-44-24-64t-63-18q-98 6-98 164 0 72 26 116t68 46q25 0 54-11 26-9 29-18 2-5 2-20v-60h-56v-16m162-209h282l1 102h-15q-4-44-24-64t-67-21l-86-1v145h61q22 0 32-13 11-16 11-46h16v138h-16q0-29-12-46t-31-16h-61v151h47v16h-138v-16h47v-313h-47v-16m546 235q0 58-46 88-40 27-101 27-36 0-81-17l0-80h15q3 40 24 57 9 8 28 14t33 5q35-1 61-19 25-18 26-49 0-33-23-52t-62-24q-107-13-107-89 0-53 41-81 34-24 84-24 14 0 34 4t26 5 8-8h14v90h-15q-4-37-23-54t-55-16q-73 1-72 66 1 57 80 65 111 12 111 92m533-58q0 70-47 120t-106 49q-91-3-171-1v-16h47v-313h-47v-16q45 3 79 2t93 0q71 1 111 48t41 127m-77 104q25-39 24-108t-20-105q-23-48-79-52-45-3-80 2v311q34 3 51 3t28-1q52-7 76-50m180-269q11 0 19 7t8 19-8 19-19 8-19-8-8-18 8-19 19-8m-58 105h81v203q0 11 11 11h29v14h-121v-14h29q11 0 11-11v-178q-2-12-11-12h-29v-13m392 214h30v14h-82l2-44q-9 18-30 32-25 18-57 18-50 0-76-34t-27-89 37-89 91-34q21 3 39 10 16 9 21 18v-108q0-18-18-18h-23v-14h82v326q1 12 11 12m-52-102v-63q-5-17-25-30t-47-12-46 21q-23 25-27 75-3 39 19 69 23 33 59 33t53-30q14-25 14-63m312-85q32 31 32 83t-36 87-93 36q-45 0-77-32-30-32-30-86t34-87 91-34q47 0 79 33m-77 190q32 0 47-27t16-69-21-76q-22-34-55-34-68 0-68 87 0 47 17 79 21 40 64 40m188-260h26v62l62-1-1 23h-61v129q0 33 26 33 11 0 28-9l4 6q-17 34-52 34-48-1-48-52v-141l-38 1v-14q4-1 10-2 23-6 33-22t11-47" />
</svg>