<svg id="fnt-Gideon Roman" viewBox="0 0 3407 1000" xmlns="http://www.w3.org/2000/svg"><path id="gideon-roman" class="f" d="M210 668q-34 0-62-7t-51-19q-64-37-75-120 0-7-1-14t-1-14q0-74 53-118 50-41 127-43h15q72 0 133 22l-1 4q-8 0-15 29-3 13-5 24t-2 19q0 2 1 3l-7-1q0-3 0-6t0-6q0-21-9-33-11-13-35-23-32-13-77-13-62 0-98 32-37 33-37 102 0 46 20 84 22 43 65 64 37 18 87 18 30 0 63-7 5-21 5-62 0-53-12-57-18-5-35-5-3 0-6 0t-6 0l2-10q23 4 52 4h14q38-1 60-9l-1 10q-26-1-30 24-1 7-2 17t0 23v18q1 42 6 57l-1 3q-4-1-7-1t-7 0q-5 0-18 1t-31 4-37 4-34 2m237-283q-7 0-17-9-9-8-9-13 0-4 15-16 12-9 15-9 2 0 5 3 3 2 6 3t5 3q7 4 17 4 3 0 3 3 0 2-1 4t-6 4-10 9q-18 14-23 14m-69 283l5-10q49 0 54-23 2-8 3-28t1-54v-24q0-78-10-87-10-7-24-7-4 0-8 1t-9 1l4-9q6 0 19 1t31 1q3 0 7 0t10-1q5-1 8-2t4 0q6 0 6 4v2q-4 16-6 41t-1 59l-1 20q0 59 5 83 3 21 54 21l-5 11q-19-5-58-5-3 0-7 0t-7 0q-8 0-27 1t-48 4m352 3q-7 0-8-9 0-3-1-12t-2-25q-20 35-73 41-3 1-7 1t-6 0q-41 0-62-30-19-28-19-77 0-63 19-93 25-39 84-39 21 0 40 8 19 8 29 20-3-96-11-106-9-8-24-8-4 0-8 1t-9 1l4-9q6 0 19 1t31 1q7 0 16-1 6-1 9-2t4 0q6 0 6 4v3q-8 39-8 133v56q0 82 6 106 5 20 45 20 4 0 8 0t6 0l-7 11q-13-1-29-1-9 0-19 0t-20 2q-1 0-6 1-5 2-7 2m-80-21q39 0 60-36 12-22 12-63 0-43-11-70-15-37-52-37-40 0-60 36-13 22-13 63 0 43 11 70 16 37 53 37m287 21q-55 0-78-31-19-28-19-87 0-48 16-79 25-49 101-49 44 0 66 21 21 19 21 53l-14 19q-12 17-16 17-11-2-23-2-2 0-5 0t-5 1l-37 1q-20 0-37 0t-29 2v8q0 51 9 73 15 37 64 37 69 0 81-62 0-2 0-4t0-3l11-5q-1 10-2 34 1 5 1 11t0 14q0 5-6 10-21 21-99 21m-19-152q5 0 11 0t12-1q21 0 36-1t25-2q10-2 10-17 0-4-1-8t-2-8q-12-42-58-42-62 0-71 62 0 1 0 5t-1 9q5 1 15 2t24 1m266 153q-32 0-54-15t-34-43-11-59q0-58 29-88 3-2 12-10t27-23q14-12 40-12 35 0 58 16t35 44 12 63q0 27-7 48t-20 33q-5 5-14 13t-22 18q-16 15-51 15m15-22q23 0 38-13t23-33 8-43q0-29-11-55t-31-43-44-16q-22 0-36 13t-21 34-7 44q0 28 9 53t28 42 44 17m120 18l4-10q49 0 54-22 2-9 3-36t2-74q0-73-11-84-6-5-24-7-3 0-6 0t-5 0q-9 0-15 1l5-9q4 0 18 1t40 1q3 0 7 0t8-1q4-1 7-1t4 0q6 0 6 6v3q-1 5-2 11t-2 14q10-6 18-11t15-10q25-18 56-18 9 0 17 2 42 6 42 42 0 8 0 18t1 20l0 25q1 13 1 27t1 32q0 9 1 22t2 26q1 12 14 17t35 5q5 0 8 0t5-1l-6 11q-18-2-35-3t-33-1q-28 0-69 4l6-11q1 1 5 1 7 0 16-6t11-14q5-12 5-43v-77q0-75-43-75-2 0-5 0t-5 0q-7 1-15 4t-18 8q-11 5-18 11t-12 13v50q0 83 4 107 4 21 39 21l-5 11q-13-4-52-5-4 0-24 1t-55 4m812 3q-61 0-92-45l-51-75q-5-8-9-14t-7-9q-9-12-17-18-7 1-14 1t-13 1l5-10q40 0 65-20 27-24 27-63 0-28-19-48-19-21-52-21-25 0-32 2-14 2-15 13-2 17-3 42t0 58v72q0 88 5 103 7 17 57 17l-6 11q-15-2-31-4t-34-1q-13 0-37 1t-56 4l4-10q2 1 8 1 15 0 28-5 17-7 20-20 6-23 6-109 0-164-11-176-9-8-25-8-9 0-17 2l4-10q17 3 67 5 1 0 11-1t30-2q27-1 40-1 44 0 66 13 30 18 30 63 0 31-23 58-21 23-42 28 31 56 73 102 56 62 101 62l-5 9q-11 1-20 1t-16 1m142 1q-33 0-55-15t-33-43-11-59q0-58 29-88 2-2 12-10t26-23q15-12 41-12 35 0 58 16t35 44 12 63q0 27-7 48t-20 33q-5 5-15 13t-21 18q-16 15-51 15m15-22q22 0 38-13t23-33 8-43q0-29-12-55t-31-43-44-16q-22 0-36 13t-21 34-6 44q0 28 9 53t27 42 45 17m256 6l-7 13q-20-6-48-6h-7q-6 0-25 1t-50 4l5-10q2 1 4 1t4 0q16 0 27-5 17-7 20-19 4-18 4-109 0-72-10-84-7-5-24-7-3 0-6 0t-5 0q-8 0-15 1l4-9q4 0 19 1t40 1q3 0 6 0t8-1q5-1 7-1t4 0q7 0 7 6 0 2-1 3 0 5-1 11t-2 14q7-4 14-9t16-12q23-18 51-18 8 0 15 2 37 6 39 37 9-5 17-11t14-10q23-18 51-18 8 0 15 2 41 6 41 42v60l0 62q0 17 1 30t3 21q5 19 48 19 5 0 8 0t4-1l-4 11q-16-2-33-3t-32-1q-18 0-36 1t-36 3l5-10h3q10 0 18-6 9-6 12-14 5-13 5-48l0-72q1-75-39-75-2 0-4 0t-5 0q-10 2-26 13-9 5-17 11t-13 13q0 5 0 13t1 17v19q0 26 1 59 0 9 1 22t3 29q1 8 11 14 8 5 18 5 1 0 2-1t2 0l-4 11q-15-2-29-3t-28-1q-24 0-48 3l5-10q1 1 3 1 8 0 15-6 9-6 11-14 4-13 4-43v-77q1-75-39-75-2 0-4 0t-5 0q-11 2-28 12-18 11-27 24v50q0 41 1 68t3 39q3 20 38 20m488 14q-23 0-23-37 0-1 0-3t0-4q-3 2-7 5t-6 5q-42 32-78 32-17 0-30-10t-18-25-6-33q0-12 5-19t12-11 12-9q13-11 21-17t17-10q7-3 21-5t31-2 27-1v-7q0-35-5-49-9-26-37-26-35 0-55 18-22 21-22 54 0 2 0 3t1 3l-8 6 0-2q0-14-6-38-5-15-5-16 0-5 5-11 13-17 47-26 13-3 27-5t28-1q66 0 66 61 0 5-1 14t0 20q-1 11-1 19t0 14q0 60 4 82 4 16 27 18 3 0 5 0t5 0q8 0 12-1l-6 12q-5 0-13 0t-17 1q-20 1-29 1m-90-30q11 0 23-5t21-9q19-13 22-33 1-8 1-21t0-28q-29 1-49 3t-33 7q-15 6-23 18t-8 24q0 16 12 30t34 14m155 28l5-10q48 0 53-22 3-9 4-36t1-74q0-73-10-84-7-5-25-7-2 0-5 0t-5 0q-9 0-15 1l4-9q4 0 19 1t40 1q3 0 6 0t8-1q4-1 7-1t4 0q6 0 6 6v3q-1 5-2 11t-1 14q10-6 18-11t15-10q25-18 56-18 8 0 16 2 43 6 43 42 0 8 0 18t0 20l1 25q0 13 0 27t1 32q0 9 1 22t2 26q1 12 14 17t36 5q4 0 7 0t5-1l-5 11q-18-2-35-3t-33-1q-29 0-69 4l5-11q1 1 6 1 7 0 15-6t12-14q5-12 5-43v-77q0-75-44-75-2 0-5 0t-5 0q-7 1-15 4t-17 8q-11 5-19 11t-12 13v50q0 83 5 107 3 21 38 21l-5 11q-12-4-52-5-4 0-24 1t-55 4" />
</svg>