<svg id="fnt-Gilda Display" viewBox="0 0 3067 1000" xmlns="http://www.w3.org/2000/svg"><path id="gilda-display" class="f" d="M379 493l-1 5q-19 0-29 6t-12 22-2 47v62q-23 15-59 26t-73 11q-41 0-74-14t-56-39-35-57-13-70q0-50 21-91t60-65 94-24q25 0 50 5t44 12 29 14v64l-6-1q-4-29-21-47t-43-27-53-8q-44 0-74 21t-43 60-14 87 15 86 45 60 74 22q36 0 59-10t38-32v-39q0-27-1-43t-5-25-13-10-24-3l-1-5h123m119-68v159q0 26 1 41t5 23 13 10 23 3l1 6h-122l1-6q16 0 24-3t13-10 5-23 1-42v-40q0-36-1-58t-6-32-15-14-27-3l-1-5t12-2 33-3 40-1m-47-80q0-11 8-20t20-8 20 8 9 20-9 20-20 9-20-9-8-20m197-46v281q0 27 1 43t5 25 13 10 23 3l1 6h-122l1-6q15 0 24-3t13-10 5-25 1-43v-191q0-27-1-43t-5-24-13-10-24-2l-1-5t11-2 29-3 39-1m247 312q-4 16-14 29t-25 23-38 9q-26 0-44-11t-28-29-15-39-5-41q0-35 15-64t43-46 67-17q14 0 25 2t21 4v-47q0-26-1-41t-5-21-13-9-23-2l-1-6t10-1 29-3 39-2v257q0 35 1 55t6 27 13 8q7 0 12-3t11-4l2 5t-10 6-27 13-38 6q-2-9-5-23t-2-35m-70 45q21 0 34-12t22-32 12-40 4-38v-76q-22-17-50-17-24 0-40 11t-26 28-13 36-4 36q0 16 3 34t9 34 19 26 30 10m368-151v51q0 35 1 55t6 27 14 8q6 0 12-3t10-4l3 5t-10 6-28 13-38 6q-2-9-3-28t-2-39q-5 17-15 33t-24 26-40 11q-30 0-48-17t-19-46q0-24 15-42t46-29 85-10v-18q0-21-4-38t-14-26-31-10q-14 0-22 5t-13 13-8 15-9 13-13 6q-17 0-17-17 0-15 12-25t31-15 41-6q35 0 59 19t23 61m-106 151q19 0 33-11t21-30 13-38 4-37q-39 0-63 10t-34 26-11 35q0 19 9 32t28 13m315-334l-1-5h101q21 0 47 1t52 6 52 16 44 31 32 48 12 73q0 42-12 71t-31 48-42 31-47 16-42 7-31 2h-135l1-6q17 0 27-4t14-13 7-32 1-58v-124q0-37-1-58t-7-33-14-14-27-3m103 333q4 0 9 0t11 0q21 0 45-4t46-15 41-29 29-47 11-68q0-40-11-68t-28-47-41-29-46-15-46-5q-22 0-39 3v229q0 34 1 53t5 28 13 14m354-230v159q0 26 1 41t5 23 12 10 24 3l1 6h-122l1-6q15 0 24-3t13-10 5-23 1-42v-40q0-36-2-58t-6-32-15-14-27-3l-1-5t13-2 32-3 41-1m-48-80q0-11 9-20t20-8 20 8 8 20-8 20-20 9-20-9-9-20m201 312q24 0 39-11t15-30q0-17-9-27t-23-17-30-13-29-15-23-22-9-33 11-35 29-22 37-7q18 0 37 4t31 10q0 16-2 34t-4 30l-6-1q0-24-8-38t-20-19-26-6q-17 0-31 10t-13 33q0 15 9 24t23 16 29 14 30 15 23 21 9 33q0 22-12 37t-32 22-42 8q-18 0-39-6t-34-16q0-16 1-31t4-28l6 1q0 24 9 38t22 21 28 6m277-232q26 0 44 11t28 29 16 40 5 44q0 35-14 62t-40 44-59 17q-19 0-32-4t-25-10v59q0 27 1 43t5 25 13 10 24 3l1 6h-121l1-6q14 0 23-3t12-10 5-25 1-43v-211q0-24-1-38t-5-21-12-8-23-2l-1-6t10-1 29-3 38-2v66q5-16 14-31t25-25 38-10m-26 232q24 0 39-9t25-26 13-34 4-39q0-15-2-34t-10-36-19-27-32-11q-16 0-28 8t-19 23-13 30-7 29-2 22v78q7 12 21 19t30 7m231-358v281q0 27 1 43t5 25 13 10 23 3l1 6h-122l1-6q15 0 24-3t13-10 5-25 1-43v-191q0-27-1-43t-5-24-13-10-24-2l-1-5t11-2 29-3 39-1m264 206v51q0 35 1 55t6 27 14 8q6 0 12-3t10-4l3 5t-10 6-28 13-38 6q-2-9-3-28t-2-39q-5 17-15 33t-24 26-40 11q-30 0-48-17t-19-46q0-24 15-42t46-29 85-10v-18q0-21-4-38t-14-26-31-10q-14 0-22 5t-13 13-8 15-9 13-13 6q-17 0-17-17 0-15 12-25t31-15 41-6q35 0 59 19t23 61m-106 151q19 0 33-11t21-30 13-38 4-37q-39 0-63 10t-34 26-11 35q0 19 9 32t28 13m213 116q26 0 43-21t33-61l-75-188q-12-30-22-44t-19-18-20-4l-1-6h124l-1 6q-18 0-25 6t-6 17q0 13 6 34t17 48l39 97 39-120q7-21 9-34t2-21q0-12-7-19t-28-8l-1-6h94l-1 6q-10 0-17 3t-12 11-12 28-18 53l-45 137q-22 68-52 104t-61 37q-14 0-24-6t-10-16 7-17 13-5q11 0 16 3t15 4" />
</svg>