<svg id="fnt-Give You Glory" viewBox="0 0 3360 1000" xmlns="http://www.w3.org/2000/svg"><path id="give-you-glory" class="f" d="M98 678q-35-9-54-35t-26-61-3-75 15-78 29-69 38-49 41-16 40 27q17 24 25 51t6 57q-8 10-18 13t-18 1-17-7-13-11-6-9 3-4h42q1-5 0-15t-3-22-7-25-9-21-14-14-17-2q-17 6-29 22t-22 36-15 42-10 35q-22 71-18 118t23 70 52 27 68-12 72-48 62-80q6-10 14-20t9-22q-3-1-15 3t-30 11-35 12-34 9-25 2-7-10q2-6 9-13t18-12 20-8 15 2q12-2 26-8t28-11 28-11 25-4q15 0 19 4t3 11-6 14-8 12q-15 28-32 55t-35 52-39 44-45 32-55 15-65-5m302-23q-1-3-1-20t-1-41 0-52 2-52 2-43 2-23q3-1 7 0t6 4 4 6 2 6v215q0 5-3 8t-7 3-7-3-6-8m4-307q0-2 0-4t-1-6 1-6 0-4q4-2 9-3t10-1q9 11 11 18t0 10-7 4-9 0-9-3-5-5m197 307q-18-24-34-50t-33-52-35-49-44-41q-12-8-11-13t6-7 17 0 18 8q15 18 32 41t32 45 30 46 25 38q1 2 4 3t4 0q4-7 9-25t9-42 9-48 12-45 12-31 15-9q2 1 8 4t7 4q5 3 3 7t-5 9-8 10-5 8q-1 3-2 11t-4 18-4 22-4 22-4 18-2 10q0 1-2 8t-4 16-5 19-4 14q-2 8-6 18t-9 16-12 7-15-10m215 8q-19-8-28-20t-14-27-5-31-3-34q-11 2-22 2t-19-2-11-5-1-7 14-8 31-7q3 0 9-3t6-4q4-5 7-17t6-27 8-29 11-26 18-15 24 2q2 1 4 4t6 5 6 6 3 4q2 24-3 41t-13 28-18 19-20 15-16 14-7 18q-1 13-1 23t3 20 8 18 17 16q8 6 20 3t25-10 25-17 21-16 13-8 0 5q-7 17-16 33t-22 27-29 15-37-5m-16-178q0 3-2 10t-1 10q0 1 2 1t1-1q2-1 5-3t6-5 5-4 4-3q14-15 21-27t6-20-5-11-13 2-15 17-14 34m605 174q-8-7-11-24t-3-36 3-43 5-44 4-39 2-29h-4q-19 30-36 43t-33 13-30-9-26-23-22-29-16-28l-52-78q-3-6-3-12t3-10 7-5 12 4q6 5 13 16t13 27 16 32 22 33 29 26 38 15q15 3 27-5t21-20 16-30 14-36 12-35 12-30 13-19 15-3q-3 24-7 55t-10 65-9 68-7 67-4 62 3 50q1 6-1 11t-7 5-10 1-9-6m127 4q-14-11-21-24t-9-27 0-30 6-31q3-10 6-24t7-27 9-26 13-19q5-4 13-6t16-3 16 0 13 1q21 2 33 15t15 32 2 42-11 46-20 43-27 33-30 15-31-10m7-27q12 10 26 4t28-20 23-35 14-42 2-38-16-27q-18-12-34-7t-28 19-21 36-10 43 1 40 15 27m373 27q-12-4-21-13t-18-21-14-27-10-29-8-27-6-22h-4q-6 13-18 31t-26 34-31 29-31 14-27-9-17-41q-2-46-3-92t0-92q1-2 5-5t7-4 8 1 3 11v162q0 4 1 10t4 11 6 11 8 6q17 8 31 0t26-24 21-40 17-44 15-41 13-28q1 0 2 2t2 2q1 2 6 8t5 8q0 8 0 24t2 33 4 38 8 38 13 33 20 22 27 7 36-14q10-6 12-12t1-11 0-11 6-14q13-4 19 3t7 19-5 26-18 26-32 15-46-3m422 15q-35-9-54-35t-27-61-3-75 16-78 29-69 38-49 41-16 40 27q17 24 25 51t6 57q-8 10-18 13t-18 1-17-7-13-11-6-9 3-4h42q0-5 0-15t-3-22-7-25-10-21-13-14-17-2q-17 6-29 22t-22 36-15 42-10 35q-22 71-19 118t24 70 52 27 68-12 72-48 62-80q6-10 13-20t10-22q-3-1-15 3t-30 11-36 12-34 9-24 2-7-10q2-6 9-13t18-12 20-8 15 2q12-2 26-8t28-11 28-11 25-4q15 0 19 4t3 11-6 14-8 12q-16 28-32 55t-35 52-39 44-45 32-55 15-65-5m321-19q-2-7-3-21t-1-31 0-35 1-36 0-33-1-25q-1-7-1-22t-2-32-2-38-2-38 0-34 1-24q7-6 11 3t8 28 3 40 0 42 0 34 0 14q2 46 3 91t4 90q5 9 5 20t-2 17-10 5-12-15m77 4q-14-11-21-24t-9-27 0-30 6-31q3-10 6-24t7-27 9-26 13-19q5-4 13-6t16-3 16 0 13 1q21 2 33 15t16 32 1 42-11 46-20 43-27 33-30 15-31-10m7-27q12 10 27 4t27-20 23-35 15-42 1-38-16-27q-18-12-34-7t-28 19-20 36-11 43 1 40 15 27m291 17q-20-11-31-22t-20-23-23-21-35-18q-4 10-5 23t-4 27-2 25-1 19q-7 8-13 7t-10-7-8-12-3-11q11-26 15-53t4-55-3-59-5-63q2-4 6-7t9 0q7-7 17-16t22-17 25-12 24-5 20 9 12 25q4 26-1 48t-17 41-30 38-40 33q-2 3 1 6t7 5 8 3 7 2q9 7 21 18t25 24 26 22 27 12 25-4 24-26h8q2 14-5 27t-18 19-28 7-31-9m-113-160q0 2 1 7t1 11 1 10 1 7q21-8 37-26t25-38 13-40 0-34-15-16-29 10q-18 13-26 25t-11 24-1 28 3 32m298 473q-17-8-23-34t-4-60 11-74 23-72 34-57 40-29q0-3 1-10t1-14 1-14 0-9q1-11 1-28t0-32 0-28-1-12l-3-3q-4 7-16 23t-28 36-35 39-40 32-39 14-34-14q-8-7-11-22t-2-35 3-39 6-40 6-33 5-23q2-5 7-7t10-1 8 6 2 10q-5 20-9 39t-7 38-4 39 1 41q10 13 24 11t30-12 33-27 31-35 24-33 15-23 7-16 6-19 8-17 11-13l15 15v200q2 1 11 0t16-1 8 2-12 11q-7 4-13 8t-14 7q-5 42-8 73t-9 60-12 59-17 70q-4 9-9 20t-11 22-16 14-22-3m4-38l11 8q5 3 12-13t14-43 14-61 11-63 9-55 2-31q-22 19-39 44t-27 54-14 59-1 59q0 4 2 11t2 14 2 12 2 5" />
</svg>