<svg id="fnt-Gloock" viewBox="0 0 1700 1000" xmlns="http://www.w3.org/2000/svg"><path id="gloock" class="f" d="M236 674q-67 0-116-24t-75-68-26-104q0-58 26-101t74-68 112-24q20 0 32 1t23 3 22 2 31 2l15 100h-5q-9-48-40-75t-78-27q-28 0-52 14t-40 37q-16 25-26 59t-9 77q0 42 9 77t24 59q16 25 38 38t50 14q21 0 39-7t29-18v-127q0-18-11-29t-29-11h-1v-5h161v5h-2q-18 0-29 11t-11 29v127q-10 10-32 17t-49 12-54 4m318-7h-153v-5q18 0 29-11t11-29v-285q0-18-11-29t-29-11v-5h51q25 0 39-6 12-5 17-13h5v349q0 18 11 29t30 11v5m137 7q-41 0-72-17t-47-46-17-71 17-71 47-47 72-16 72 16 47 47 17 71-17 71-47 46-72 17m0-7q17 0 30-17t19-47 7-64q0-37-7-66t-20-45-29-16q-17 0-30 17t-19 47-7 63q0 38 7 67t20 45 29 16m299 7q-41 0-72-17t-48-46-17-71 17-71 48-47 72-16 71 16 48 47 17 71-17 71-48 46-71 17m-1-7q18 0 30-17t20-47 7-64q0-37-8-66t-20-45-28-16q-17 0-30 17t-20 47-7 63q0 38 8 67t20 45 28 16m279 7q-34 0-61-17t-41-47-15-68q0-40 17-71t45-48 65-17q42 0 69 22t34 62l-60 34q0-51-13-81-13-30-37-30-16 0-28 13t-18 35-6 49q0 35 11 61t29 41 45 15q24 0 46-12t36-33l5 2q-9 27-27 47t-44 31-52 12m270-7h-153v-5h1q18 0 29-11t11-29v-285q0-18-12-29t-29-11v-5h51q26 0 39-6 13-5 18-13h5v263l85-72q20-17 24-30 3-13-6-15l-7-1v-5h75v5l-5 1q-12 2-25 10t-37 28l-34 29 99 153q10 12 17 17t15 6v5h-132v-5q13 0 17-2 4-2 4-7 0-4-3-11-2-4-5-10t-7-11l-57-92-18 16v77q0 18 11 29t29 11h0v5" />
</svg>