<svg id="fnt-Gluten" viewBox="0 0 1672 1000" xmlns="http://www.w3.org/2000/svg"><path id="gluten" class="f" d="M179 686q-38 0-68-11t-52-32-32-53-11-73q0-35 10-62t28-46 41-31 49-17 52-5q19 0 37 3t32 9 23 14 9 16q0 10-6 15t-17 6q-6 0-13-3t-16-6-23-5-32-3q-23 0-43 8t-33 23-23 37-7 49q0 40 12 66t37 38 58 12q18 0 33-3t27-11 18-18 7-26q0-12-7-21t-21-15-35-7q-21-1-33-6t-11-16q0-10 7-15t21-7 33-2q26 0 46 5t35 15 23 25 7 38q0 32-12 54t-34 36-51 19-65 6m280-6q-25 0-40-10t-23-35-10-65q-2-10-2-25t-1-33 0-34 1-32 1-24q1-24 3-39t10-24 19-8q16 0 22 10t6 32q0 7-1 19t-1 25-2 29-1 30-1 26-1 21q0 30 2 49t6 29 9 14 12 3q10 0 16-3t12-7 11-4q6 0 9 4t3 11q0 8-5 16t-13 13-19 9-22 3m222 3q-36 0-61-11t-42-32-23-51-8-67q0-9 1-18t2-17 3-16q4-17 13-24t20-8q12 0 17 5t8 12 2 14q0 5 0 11t0 14 0 13 1 12q1 32 7 57t22 38 40 13q27 0 43-10t24-32 13-50q1-7 2-15t2-16 1-16 2-16q3-17 10-26t21-9q12 0 17 8t9 22q0 10 1 19t0 18-1 18-1 18q-3 46-20 78t-48 48-77 16m329-11q-13 0-27-4t-23-15-11-32q-1-7-2-16t-1-20-1-22-1-23 0-24q-1-11-5-15t-11-4q-5-1-13-1t-15-1-13-1q-10-1-15-6t-5-15q0-7 3-11t8-5 12-3q13-1 22-2t16-2q8-1 11-4t5-12q0-6 1-13t1-13 1-12q3-13 8-18t16-6q9 0 14 3t8 9 4 15q0 8 0 14t1 11 1 9 1 8q0 7 4 10t12 4q7 1 15 2t16 1 12 2q11 1 18 5t7 14q0 9-6 14t-15 6q-16 0-29 0t-20 0q-6 1-9 4t-3 14q0 10 0 20t0 20 1 20 1 18 2 15q2 15 7 20t15 5q10 0 16-4t11-9 10-5q6 0 9 4t3 9q0 9-6 16t-16 13-21 10-24 3m237 12q-42 0-73-13t-48-39-16-68q0-34 11-60t31-43 47-26 56-8q20 0 38 4t32 13 22 23 8 32q0 21-8 33t-23 20-34 11-39 5q-10 1-24 3t-27 1-20 1q-8 0-11 2t-2 7q0 6 3 15t10 16q12 15 28 20t39 5q20 0 37-5t30-10 24-5q10 0 16 4t5 14q0 9-8 18t-24 16-36 10-44 4m-20-139q20 0 38-4t28-13 11-26q0-20-14-29t-40-10q-16 0-30 5t-26 15-18 21-7 26q0 7 6 10t18 4 34 1m194 127q-12 0-18-6t-10-20q-1-7-1-15t0-19 1-23q3-50 20-84t48-53 73-18q43 0 74 17t46 53 17 91q0 10-1 19t-1 15-2 13q-4 16-11 23t-19 7q-12 0-19-4t-9-12-3-20q-1-18-2-33t-2-25-2-22-4-20q-6-25-19-38t-40-14q-26 0-42 15t-24 39q-4 10-6 22t-4 24-3 25-2 29q-1 14-6 21t-12 10-17 3" />
</svg>