<svg id="fnt-Goldman" viewBox="0 0 2257 1000" xmlns="http://www.w3.org/2000/svg"><path id="goldman" class="f" d="M276 667h-149q-36 0-56-10t-28-30-8-50v-111q0-48 22-71t70-23h150q35 0 53 4t18 8l-10 41q-8-1-50-3t-121-2h-26q-40 0-40 36v127q0 17 9 26t31 10h21q48 0 81-1t54-1v-68l-30 0-65 5v-49h161v141l5 10q0 4-21 7t-71 4m351 0h-138q-34 0-50-14t-16-44v-102q0-8 1-19t7-21 19-17 39-7h138q25 0 38 7t19 17 7 21 2 19v96q0 9-2 20t-7 21-19 16-38 7m-119-43h100q24 0 24-20v-98q0-20-24-20h-100q-24 0-24 20v98q0 20 24 20m306 43h-61v-277l-5-40h66v317m146 0h-25q-25 0-39-7t-19-16-7-21-1-20v-96q0-8 1-19t7-21 19-17 39-7h25q46 0 74 1t44 4v-98h61v317h-41l-20-10q-21 3-50 6t-68 4m-6-43h108q11 0 13-3t3-12v-120q-17-1-43-2t-56-1h-25q-24 0-24 20v98q0 20 24 20m311 43h-61v-224h41l12 6q15-3 36-5t50-1h25q14 0 28 3t20 11q13-6 36-10t60-4h25q25 0 38 7t19 17 7 21 2 19v160h-61v-161q0-20-24-20h-70q-8 0-11 2t-3 9v170h-61v-161q0-20-24-20h-69q-10 0-13 1t-2 10v170m485 0h-25q-38 0-55-18t-17-49q0-32 17-50t55-17h25q38 0 68 2t49 4v-33q0-5-1-10t-6-7-17-3h-25q-54 0-91 1t-49 4l-6-38q0-7 38-9t127-1h25q25 0 39 7t19 17 7 21 1 19v160h-41l-19-10q-21 3-51 6t-67 4m-12-43h114q11 0 13-2t2-13v-38h-129q-14 0-19 6t-5 21 6 20 18 6m309 43h-61v-224h41l20 10q21-4 50-7t68-3h25q25 0 38 7t19 17 7 21 2 19v160h-61v-161q0-20-24-20h-109q-10 0-13 1t-2 10v170" />
</svg>