<svg id="fnt-Graduate" viewBox="0 0 2581 1000" xmlns="http://www.w3.org/2000/svg"><path id="graduate" class="f" d="M235 591v-77h-69v-40h109v138l-52 55h-131l-52-55v-265l52-55h131l52 55v63h-40v-43l-31-32h-92l-26 26v236l26 27h91l32-33m115-209v-40h200l52 55v100l-50 53 46 77h27v40h-89v-40h14l-45-75h-74v75h30v40h-111v-40h35v-245h-35m181 3h-100v124h99l29-30v-65l-28-29m450 282h-106v-40h33l-22-62h-125l-21 62h33v40h-106v-40h27l84-245h-21v-40h134v40h-22l85 245h27v40m-108-142l-49-142-49 142h98m155-143v-40h213l52 55v215l-52 55h-213v-40h35v-245h-35m81 3v239h112l26-27v-186l-25-26h-113m448-3v-40h111v40h-30v230l-52 55h-136l-52-55v-230h-30v-40h111v40h-35v215l26 27h96l26-27v-215h-35m467 285h-106v-40h33l-21-62h-125l-22 62h34v40h-106v-40h26l85-245h-21v-40h133v40h-21l84 245h27v40m-108-142l-49-142-49 142h98m314 102v40h-146v-40h50v-245h-69v58h-38v-98h260v98h-38v-58h-69v245h50m112-245v-40h238v98h-40v-58h-117v102h117v40h-117v103h117v-58h40v98h-238v-40h35v-245h-35" />
</svg>