<svg id="fnt-Grandstander" viewBox="0 0 3410 1000" xmlns="http://www.w3.org/2000/svg"><path id="grandstander" class="f" d="M176 679q-52 0-87-21t-52-60-18-93q0-51 16-90t48-61 78-22q29 0 51 9t38 21 24 27q-3 3-9 10t-15 13-14 10q-10-16-22-25t-24-13-31-3q-16 0-31 7t-29 23-21 38-8 55q0 40 12 69t34 44 60 16q27 0 43-11t23-30 7-39q0-5-1-9t0-9q-6-1-19-3t-29-4-31-3-25-2q0-5 0-12t0-15 1-12q19 1 45 3t54 7 49 8q1 10 2 22t1 21q0 39-13 69t-39 47-68 18m213-234q7-13 22-23t32-17 37-6q11 0 23 2t19 6l-10 50q-6-2-15-5t-23-3q-15 0-30 5t-27 15-20 21q3 18 7 43t6 52 4 48 2 33q-11 1-26 1t-29 0q0-23-1-49t-3-53-5-54-8-52-10-49q7-2 16-4t17-3 11-2q3 9 6 22t5 22m276 227q-32 0-57-8t-40-27-15-50q0-30 16-49t46-29 64-10q16 0 32 3t27 5 16 5q-1-8-3-17t-6-15q-10-17-28-27t-45-11q-29 0-49 12t-30 29l-41-26q11-17 29-29t42-20 50-7q42 0 70 16t40 42q7 13 10 29t5 39q0 25 1 42t1 30q2 16 5 21t11 4q8 0 14-6t6-20l24 27q-2 21-15 32t-31 11q-14 0-25-6t-16-14-8-17q-5 9-19 19t-35 16-46 6m9-39q16 0 31-5t29-14 22-18q-1-15 0-27t0-23q-7-2-27-6t-47-5q-22 0-40 6t-29 17-10 27q0 18 9 29t25 14 37 5m264 37q-5 0-11 0t-14 0q-6 0-14-1t-12-1q3-20 4-45t4-55 2-71 0-89q6-1 15-2t17-1q5 0 11 1t10 1q0 2 0 10t0 16 0 15q9-10 26-21t38-18 43-7q38 0 57 15t27 44 7 74q0 17-1 38t-2 46-5 48q-4 1-11 1t-15 1-15-1-12-1q4-21 6-44t5-46 2-43q0-26-4-46t-16-30-33-11q-23 0-42 8t-33 18-23 18q-1 42-3 77t-4 62-4 40m471-4q0-4-1-13t0-17 0-12q-2 3-8 9t-17 15-27 12-39 6q-34 0-57-15t-37-41-12-61q0-32 13-60t37-45 63-17q22 0 40 5t29 12 17 12q0-11 1-27t3-35 2-35 3-30 1-19q10 0 22 1t21 3q-4 59-7 117t-3 116 0 120q-4 0-13 0t-18 0-13-1m-80-46q17 0 31-5t23-13 15-15 9-12q0-5 0-16t0-24 0-23 1-16q-6-5-17-12t-27-10-33-5q-35 0-54 21t-19 57q0 36 18 54t53 19m289 67q-23 0-46-7t-42-17-30-24q2-4 5-10t8-12 8-12 8-9q10 12 25 23t33 18 34 7q17 0 30-5t21-14 8-22q0-15-9-26t-26-19-35-16q-23-8-43-18t-30-26-11-39q0-24 13-40t36-24 49-8q29 0 53 7t37 17q-1 5-4 12t-7 13-9 13q-12-8-29-15t-38-7q-13 0-26 3t-20 10-8 20q0 11 7 19t22 15 30 13q21 7 38 16t31 19 20 26 7 32q0 29-15 48t-39 29-56 10m334-67q-4 12-11 25t-22 23-35 9q-28 0-45-13t-23-32-7-43q0-13 0-29t1-35 1-35 1-30 1-19q-24 3-42 6t-23 4q-2-8-3-17t-1-16 0-10q14-2 32-4t37-4q1-9 1-24t0-27q-1-11-1-21t-2-17l47-2q1 3 1 18t1 34q0 7 0 18t0 19q8-1 19-1t17-1q12 0 23 0t18 0 10 1q1 6 1 18t1 20q-3 0-17 0t-29 0q-10 0-23 1t-21 1q0 7-1 19t-1 29-1 32 0 31-1 23q0 15 2 30t9 23 23 9q10 0 17-7t10-18 5-16q3 3 7 7t9 8 10 8 5 5m148 52q-31 0-57-8t-40-27-15-50q0-30 17-49t45-29 64-10q17 0 33 3t27 5 15 5q0-8-3-17t-6-15q-9-17-28-27t-45-11q-29 0-49 12t-30 29l-40-26q11-17 29-29t41-20 51-7q42 0 69 16t41 42q6 13 10 29t4 39q1 25 1 42t2 30q1 16 5 21t11 4q8 0 13-6t6-20l24 27q-1 21-14 32t-31 11q-14 0-25-6t-17-14-7-17q-5 9-20 19t-35 16-46 6m9-39q16 0 32-5t28-14 22-18q0-15 0-27t1-23q-7-2-28-6t-46-5q-22 0-41 6t-28 17-11 27q0 18 9 29t25 14 37 5m265 37q-5 0-12 0t-13 0q-7 0-15-1t-11-1q2-20 4-45t3-55 2-71 1-89q6-1 14-2t17-1q6 0 11 1t10 1q1 2 1 10t0 16 0 15q9-10 26-21t38-18 42-7q38 0 58 15t27 44 7 74q0 17-1 38t-3 46-5 48q-3 1-10 1t-15 1-16-1-11-1q3-21 6-44t4-46 2-43q0-26-4-46t-15-30-33-11q-23 0-42 8t-33 18-23 18q-1 42-3 77t-4 62-4 40m470-4q0-4 0-13t0-17 0-12q-2 3-8 9t-17 15-27 12-40 6q-33 0-57-15t-36-41-12-61q0-32 12-60t38-45 62-17q23 0 40 5t30 12 17 12q0-11 1-27t2-35 3-35 2-30 2-19q10 0 22 1t21 3q-5 59-7 117t-3 116-1 120q-4 0-13 0t-17 0-14-1m-80-46q18 0 31-5t23-13 16-15 8-12q0-5 0-16t1-24 0-23 0-16q-5-5-17-12t-26-10-33-5q-36 0-55 21t-19 57q0 36 19 54t52 19m425-9q-5 7-15 16t-24 18-34 13-43 6q-38 0-66-15t-44-45-15-72q0-40 16-70t47-46 68-16q48 0 74 29t30 79q1 8 1 15t-1 15q-3 0-13 0t-24-1-27-1-23 0q-26 0-52 2t-47 6q0 6 1 13t2 12q5 15 16 26t27 17 33 6q18 0 32-5t24-14 16-15 9-11q2 1 6 6t9 9 10 12 7 11m-192-101q18-3 43-5t55-2q16 0 28 0t16 1q0-8-2-17-3-13-10-25t-20-19-31-8q-22 0-39 9t-28 26-12 40m278-65q8-13 22-23t32-17 37-6q12 0 24 2t18 6l-10 50q-6-2-15-5t-23-3q-15 0-30 5t-26 15-21 21q4 18 7 43t6 52 5 48 1 33q-10 1-26 1t-28 0q0-23-1-49t-4-53-5-54-8-52-9-49q6-2 15-4t17-3 11-2q3 9 7 22t4 22" />
</svg>