<svg id="fnt-Grand Hotel" viewBox="0 0 1977 1000" xmlns="http://www.w3.org/2000/svg"><path id="grand-hotel" class="f" d="M191 638q-15 23-35 36t-42 13q-23 0-41-11t-31-32-18-49-7-64q0-25 5-51t15-51 24-46 33-38 39-26 47-9q13 0 25 4t20 12 14 20 4 26q0 13-4 26t-13 24-18 21-22 16-24 10-23 4q-9 0-15-6t-7-18q0-3 1-6t1-6 2-5 2-1q1 0 2 0t3 2 5 2 9 1q10 0 20-5t21-14 15-20 6-23q0-4-1-9t-6-9-9-7-14-3q-16 0-31 8t-27 21-23 31-19 38-11 43-4 44q0 27 4 48t12 37 18 23 22 9q13 0 23-6t20-14 15-20 10-24 7-24 2-22q0-4-1-9t0-8q0-4 1-5t4-3 5-2 6 0q3 0 8 2t8 4 7 6 3 7q-2 20-3 39t0 37q0 17 0 36t0 42q8-1 14-1t13-1q9-1 11 5t1 14-7 14-12 6q-5 0-10 0t-11 1q0 14-2 29t-4 28-9 25-13 21-19 14-26 5q-12 0-23-5t-17-12-12-19-3-23q0-19 7-34t21-26 29-19 34-13v-5q0-16 0-29t-1-21m-34 167q9 0 15-6t10-17 6-24 3-28q-25 7-38 21t-14 33q0 11 6 16t12 5m224-124q-9 0-18-3t-17-9-12-18-5-27q0-24 7-51t18-60h-38-5q-1 7-1 19t-2 24-4 25-6 24q-2 8-8 9t-10-2-8-9-2-12q2-7 4-18t2-23 1-24 1-22q-9-5-15-13t-6-19q0-5 2-9t5-8 8-4 10-2q4 0 9 1t9 5 8 8 5 13q6 0 11 1t7 0 5 1 4 0h26q2 0 6 2t9 7 7 9 2 10q0 1-2 7t-4 14-6 20-5 23-4 25-2 26q0 5 1 10t4 8 6 6 9 3q9 0 15-6t10-13 7-18 4-17q2-8 5-12t7-3q3 0 6 2t6 4 4 7 2 7q0 1-1 2t0 2q-3 12-9 26t-14 25-20 19-28 8m186-33q7 0 13-6t9-13 7-18 4-17q2-8 5-12t7-3q3 0 6 2t6 4 4 7 2 7q0 1 0 1t-1 3q-3 12-9 26t-14 25-20 19-28 8q-14 0-23-6t-16-15q-7 9-18 15t-25 6q-14 0-25-6t-19-16-11-24-4-30q0-31 10-56t26-42 38-27 45-9q10 0 16 5t7 16q0 6-2 9t-5 2q-3 0-7 0t-7-1q-15 0-29 6t-27 19-19 33-8 47q0 19 8 30t21 11q10 0 17-8t11-18v-77q0-4-1-7t0-4-1-3 0-2q0-4 4-7t9-2q12 0 19 7t8 15v83q0 4 1 8t3 7 5 6 8 2m35 11v-159q0-7-1-10t-1-6q0-4 4-6t9-2q13 0 20 6t7 16v22q5-10 11-19t13-16 15-11 17-3q13 0 21 4t12 12 7 17 2 17v104q0 1 0 5t2 8 3 7 8 3q7 0 13-6t9-13 7-18 4-17q2-8 5-12t7-3q3 0 6 2t6 4 4 7 2 7q0 1 0 1t-1 3q-3 12-8 26t-15 25-20 19-28 8q-10 0-18-4t-13-10-8-15-3-18v-102q0-6-1-11t-1-9-3-6-6-2q-5 0-13 7t-15 19-14 26-7 30v73q0 4 0 8t-1 6-5 5-8 3q-3 0-8-1t-8-3-5-7-3-11m237 22q-15 0-27-6t-20-15-13-25-5-35q0-29 8-51t22-39 32-26 39-12v-113q0-6-1-9t-1-5-2-3-1-2q0-2 2-3t3-1 6-2 5 0q13 0 20 7t7 15v269q0 4 1 8t3 7 5 6 8 2q8 0 13-6t10-13 6-18 5-17q1-8 5-12t7-3q3 0 6 2t5 4 5 7 1 7q0 1 0 1t0 3q-3 12-9 26t-14 25-21 19-28 8q-13 0-23-6t-15-14q-8 9-19 14t-25 6m7-33q10 0 17-6t12-14v-123q-12 2-23 8t-20 16-14 28-5 40q0 13 3 23t7 16 10 9 13 3m406-310v178h78v-171q0-26 8-40t18-13q5 0 10 3t9 7 5 9 2 7-2 3-4 3-5 9-2 23v313q0 6-4 9t-10 3q-5 0-9-2t-8-3-6-4-2-6v-115h-78v118q0 6-4 9t-10 3q-5 0-9-2t-8-3-6-4-2-6v-115h-36q-4 0-7-3t-6-6-3-8-2-8q0-5 2-7t6-3h46v-162q-23 0-43 8t-33 22-22 34-8 46q0 16 3 28t8 22 8 14 7 5q2 0 3-2t3-1 3 3 0 5q0 8-3 15t-8 11-10 5-12-2q-6-5-14-14t-13-21-11-30-4-37q0-26 7-48t19-38 28-28 34-19 38-12 39-3q4 0 8 1t6 5 4 6 2 9m346 246q0-3 3-5t7-2 7 0 7 3 5 7-1 12q-2 10-7 19t-12 15-18 11-23 4q-7 0-13-1t-11-2q-10 16-24 26t-37 10q-19 0-32-8t-23-20-13-30-5-35q0-28 7-50t15-37 17-23 12-8q5 0 9 4t6 10 1 12-6 9q-2 4-6 10t-8 16-6 22-2 32q0 15 2 27t8 20 12 12 13 4q11 0 18-6t12-13q-18-16-27-39t-9-50q0-12 3-23t7-18 13-13 17-5q9 0 17 6t14 18 9 27 3 33q0 14-2 28t-5 26q3 1 5 1t5 0q8 0 14-3t11-7 7-12 4-14m-96-46q0 17 6 32t13 26q2-12 2-23 0-13 0-23t-2-19-4-12-6-5q-9 0-9 24m51-106q6 0 12 0 6 1 15 1t18 0v-84q0-6-1-9t-1-5-2-3-1-2q0-2 1-3t4-1 6-2 5 0q13 0 20 7t7 15v88q23 0 48-1t52-1q3-4 5-3t3 4 0 10-2 10-4 9-6 3q-30 1-53 1t-43 0v159q0 12 5 17t12 6q8 0 13-6t10-13 6-18 5-17q1-8 4-12t7-3q3 0 7 2t5 4 4 7 2 7q0 1 0 1t0 3q-4 12-9 26t-14 25-21 19-28 8q-10 0-18-3t-15-10-9-17-4-26v-159q-8 0-15 0t-10 0q-6-1-10-1-5 0-10-5t-6-12-1-11 7-5m251 89q0 14-5 29t-14 27-23 24-32 16q2 6 6 12t10 10 13 6 17 3q15 0 25-6t18-14 12-21 6-22q2-9 7-11t11-2 9 6 4 12q-1 7-4 17t-7 20-11 20-18 17-25 12-32 5q-17 0-33-7t-29-19-19-31-8-42q0-24 7-44t17-36 24-23 29-8q10 0 18 3t15 11 9 16 3 20m-81 59q0 2 0 5t1 4q9-4 16-11t13-16 9-19 3-21q0-9-3-13t-8-5q-6 0-11 4t-8 11-6 15-4 17-2 16 0 13m152-204v143q3-5 5-14t5-19 4-22 4-23 2-20 1-17q0-25-4-36t-9-12q-2 0-4 2t-2 5-2 7 0 6m71 218q2-7 5-10t6-4 7 2 7 5 4 8 0 8q-3 10-10 24t-16 25-23 20-30 9q-14 0-25-5t-19-14-11-20-4-27v-228q0-14 4-26t9-20 15-13 18-5q11 0 18 4t13 11 7 15 4 17 2 18 0 16q0 18-3 38t-9 40-12 37-12 32-10 23-6 10v29q0 15 6 25t21 10q8 0 16-6t13-13 9-17 6-18" />
</svg>