<svg id="fnt-Grape Nuts" viewBox="0 0 2121 1000" xmlns="http://www.w3.org/2000/svg"><path id="grape-nuts" class="f" d="M129 694q-31 0-57-11t-38-30q-9-13-13-26t-4-27q0-21 7-42t18-39 23-33q22-28 51-53t62-42 64-24q7-1 14-1 11 0 19 3t7 9q0 6-9 13-4 2-8 2-5 0-11-2t-8 0q-26 5-57 21t-58 40-47 48q-17 22-29 48t-12 52q0 11 3 21t9 18q5 7 18 16t30 15 36 6q8 0 15-2t15-4q26-11 41-21t25-20 18-15q9-12 13-20t4-13q0-9-11-9-14 1-41 6t-56 11q-9 2-14 5t-9 6-11 6q-3 1-4 1-5 0-8-4t-3-8q0-9 9-12 4-2 17-6t32-8 37-10 35-8 22-3q31 1 31 23 0 19-23 48-2 2-10 12t-22 21-33 23-45 16q-8 2-17 2t-17 1m207-35q-4 0-8-4t-4-13q0-2 0-4t1-5q5-22 12-46t15-47 11-34q2-8 7-11t10-4q5 0 9 3t4 9q0 5-3 10t-8 18-8 24-7 18q18-17 32-28t37-22q10-5 26-5 11 0 23 5t19 16 7 32q0 8-9 8-3 0-7-3t-6-10q-4-11-11-18t-19-7q-7 0-16 3-11 4-27 13t-34 25-32 33q0 3-1 8t-1 10q0 1 1 5t1 8q0 5-5 9t-9 4m251-3q-14 0-27-6t-22-17-8-24q0-20 10-35t27-25 33-16q17-6 36-6 21 0 40 7t27 25q4-13 6-26t2-22q0-16-6-24t-22-9q-7 0-15 5t-17 12q-3 3-4 4t-6 1q-5 0-8-3t-2-8q0-6 4-11t10-10 14-10 23-4q28 0 41 13t13 43q0 14-4 30t-9 33q-3 11-8 24t-13 28-20 23q-3 3-7 3-5 0-9-4t-3-8 4-9q6-4 12-14t12-25q-2-21-20-30t-39-10q-12 0-24 3-12 4-25 12t-21 19-8 23q0 10 10 17t23 8q12 0 18-1t13-3 17-10q4-3 7-3 4 0 7 2t2 7q0 5-5 9-17 14-30 18t-29 4m161 139q-8 0-16-6t-6-21q1-13 7-35t15-48 20-55 22-55 21-48 17-35q5-8 13-8 5 0 8 3t4 10q0 4-3 12t-8 15q-7 9-15 22t-15 28q26-36 55-57t62-30q5-1 9-2t9 0q20 0 29 14t9 30q0 17-8 29-13 27-31 45t-39 29-43 21q-11 5-20 6t-14 2q-9 0-12-4t-4-9q0-7 4-13t8-5q3 1 8 2t11 1q13 0 22-5 14-7 30-17t31-25 27-39q3-8 3-16 0-9-5-15t-14-6q-16 0-42 15t-53 41-53 62q-11 28-21 55t-14 48-7 31q0 6 6 12t7 12q0 4-5 7-3 2-9 2m325-100q-4 0-10-1-30-10-44-34t-14-49q0-4 0-8t1-7q4-28 19-50t33-37 35-18q10-2 20-4t19-2q24 0 41 11t17 34q0 14-8 25t-21 18-23 13q-18 7-40 10t-42 4q-12 0-23-2v1q0 2 0 3t-1 4q0 2 0 4t0 3q0 16 6 27t15 20 14 14q9 4 12 8t4 7q0 6-10 6m-3-118q15 0 31-2t31-9q11-5 20-15t10-22q0-10-8-15t-23-5q-16 0-36 6-7 2-17 10t-21 20-17 30q6 1 13 1t17 1m476 66q-3 0-7-2t-6-6q-8-20-17-44t-17-44q-13-41-21-79t-8-59q0-4 0-7t1-5q1-6 6-9t10-3 8 2 3 9q-1 3-2 11t-1 12q0 10 3 29t9 44 15 52q3 9 8 21t11 23 9 19q6-9 16-31t23-50 27-58 27-57 24-44 19-21q7-4 15-4 3 0 6 1t2 4q0 4-3 8t-8 8q-10 8-23 27t-26 47-26 56-26 58-22 51-18 36q-3 5-11 5m-162 38q-9 0-18-6t-7-19q6-52 21-94t32-77 32-61q6-12 14-12 7 0 5 11h1q-1 2-5 11t-9 19-11 22-7 16q-10 20-17 35t-12 27-7 24-5 29-4 41q0 4 3 8t6 8 4 8-5 7q-3 3-11 3m314-28q-8 0-17-2t-18-8q-17-9-23-24t-7-32q0-8 1-16t3-16q4-16 14-30t23-23 24-12q1-1 4-1 7 0 11 4t5 9q0 6-7 10v0q-12 5-21 10t-15 15-12 26q-3 9-3 24 0 11 3 21t12 14q8 4 18 4 20 0 40-15t36-29q14-14 26-32t21-33 10-22q2-9 11-9 5 0 10 4t2 12q-3 10-12 27t-21 35-25 34q-11 12-26 25t-31 21-36 9m217 41q-2 0-3 0t-4-1q-14-3-27-11t-22-22-8-39q0-9 1-20 3-18 9-42t17-49h-1q-3 0-5 1t-5 1q-8 0-8-10 0-5 4-10t9-5l15-1q12-32 25-62t22-46q2-4 7-7t10-2 8 2 4 7q0 1-1 4l-31 67q-4 10-8 18t-8 17q10 0 21 1t24 2q3 0 5 3t3 7q0 2-2 4t-7 3q-12 2-27 2t-26 1q-11 30-18 55t-11 47q0 4-1 7t0 7q0 22 12 33t27 16q9 3 13 6t4 6q0 4-5 7t-12 3m58-8q-3 0-8 0t-8-2q-7-1-7-9 0-5 4-9t10-2q5 0 17-3t28-8q22-8 36-17t23-21q9-12 9-23 0-5-2-10t-7-9q-9-7-21-14t-23-14-20-16-7-23q0-12 8-21t20-14 19-8 16-4 16-1q10 0 18 2t17 8q5 3 7 7t2 8q0 5-4 9t-8 5q-4 0-11-4h1q-11-8-26-8-8 0-14 2-11 2-21 6t-12 13q-2 6 7 14t24 15 26 16q11 6 18 17t7 24q0 15-11 30-19 22-39 35t-44 20q-13 5-22 7t-18 2" />
</svg>