<svg id="fnt-Grenze Gotisch" viewBox="0 0 2621 1000" xmlns="http://www.w3.org/2000/svg"><path id="grenze-gotisch" class="f" d="M68 385l13 10q-3 18-6 34t-4 36-1 46q0 37 4 59t11 34 14 16 13 6q11 4 31 5t37 1q1-4 2-13t1-20 0-20 0-15l-37-10 7-44q14 0 30 2t28 6 15 8q1 8 1 20t1 28-1 27-1 23-2 13q-3 3-12 7t-18 9-21 9-19 7-12 2q-8 0-21-2t-27-6-27-11-19-16q-9-11-15-26t-10-35-3-47q0-34 4-63t11-45q6-8 15-18t18-17m50 244h-16v-224q0-5 4-17t10-26h12v238q0 3-2 10t-8 19m103-263l-6 86h-27l-6-51q-6-1-18-3t-22-2-16-1q-5 0-9 0t-6 1l5-34q2-1 4-1t3 0q4 0 15 0t26 1 30 2 27 2m89 305q-2 0-6-3t-8-8-3-5v-184l-18-6v-19t6-1 14-3 14-3 9-1 6 4 9 9 5 6l-1 19q7-7 13-14t12-12 9-9 5-3q5 0 16 3t17 5q1 3 2 8t1 8q0 1-2 5t-4 9-4 8-3 4q-4-2-8-3t-10-3-9-1q-1 0-5 1t-8 4-10 5-11 6v138l26 8v20t-5 1-13 2-15 2-14 2-7 1m165-114q0 33 9 50t20 23 18 6q2 0 9-1t18 0 20-1 17-1v21q-9 3-20 6t-23 5-21 4-12 2q-20 0-39-11t-32-35-12-59q0-25 4-46t8-30q4-6 14-15t23-17 23-14 15-6q28 0 45 9t26 34 8 73l-140 14v-19l92-15q0-30-7-48t-28-18q-4 0-9 1t-10 3q-7 3-11 26t-5 59m187 114q-1 0-5-3t-8-8-4-5v-183l-17-7v-19t6-1 15-3 15-2 9-1 6 3 7 7 3 6v19q7-5 15-11t16-12 14-9 7-4q22 0 38 8t25 26 9 51v114l17 8v18t-6 1-15 3-16 3-8 1-6-3-8-8-4-5v-132q0-24-6-34t-12-12-11-1q-3 0-11 3t-17 7-19 9v142l17 8v18t-7 1-14 3-16 3-9 1m365-4h-149q-2-4-6-12t-5-11q25-42 46-80t48-84l-1-6-55-3-4 33h-26l-4-61h137q2 3 6 10t6 12q-23 41-46 81t-47 81v7l67 3 6-42h26l1 72m84-110q0 33 9 50t20 23 18 6q2 0 9-1t18 0 20-1 17-1v21q-9 3-20 6t-23 5-21 4-12 2q-20 0-39-11t-32-35-12-59q0-25 4-46t8-30q4-6 14-15t23-17 23-14 15-6q28 0 45 9t26 34 8 73l-140 14v-19l92-15q0-30-7-48t-28-18q-4 0-9 1t-10 3q-7 3-11 26t-5 59m283-172l13 10q-3 18-6 34t-4 36-1 46q0 37 4 59t11 34 14 16 13 6q11 4 31 5t37 1q1-4 2-13t1-20 0-20 0-15l-37-10 7-44q14 0 30 2t28 6 15 8q1 8 1 20t1 28-1 27-1 23-2 13q-3 3-12 7t-18 9-21 9-19 7-12 2q-8 0-21-2t-27-6-27-11-19-16q-9-11-15-26t-10-35-3-47q0-34 4-63t11-45q6-8 15-18t18-17m50 244h-16v-224q0-5 4-17t10-26h12v238q0 3-2 10t-8 19m103-263l-6 86h-27l-6-51q-6-1-18-3t-22-2-16-1q-5 0-9 0t-6 1l5-34q2-1 4-1t3 0q4 0 15 0t26 1 30 2 27 2m160 305q-51 0-78-26t-26-82q0-22 4-43t8-30q4-6 14-15t23-17 23-14 15-6q50 0 76 27t26 78q0 25-4 46t-7 33q-4 5-14 13t-23 17-22 14-15 5m3-28q2-1 8-4t11-6 6-3q3-11 6-30t3-50q0-25-7-44t-18-28-32-10q-5 0-10 0t-10 4q-6 3-11 25t-5 59q0 36 9 54t23 26 27 7m172 28q-4 0-11-4t-12-11-10-13-4-11v-163h-32v-15l32-16 28-34q3 0 7 2t11 5v32h48v29h-48v138q0 16 2 21t10 6l41 1v24q-7 1-17 3t-19 3-16 2-10 1m123 0q-1 0-6-4t-10-8-4-6v-183l-17-5v-19t5-1 14-3 15-3 8-1q2 0 7 4t9 8 4 7v183l18 5v18t-6 1-14 3-15 3-8 1m-26-299l1-11q0-1 4-4t10-7 10-7 6-3q2 0 6 4t9 8 9 10 3 7l-2 10q-1 1-5 4t-9 7-10 7-6 3q-2 0-6-4t-9-9-8-9-3-6m196 299q-5 0-16 0t-25-2-27-2-22-2l1-72 25-1 10 38q8 3 18 5t19 4 14 2q3 0 6-5t6-11 3-12q0-10-4-16t-15-13-29-16q-19-11-31-20t-17-18-5-23q0-7 0-14t2-11q4-6 11-14t16-14 15-11 12-5q6 0 16 1t24 1 24 1 19 2l-2 61h-28l-3-27q-2-1-10-2t-17-3-17-2-10-1q-3 0-5 2t-4 7-2 12q0 10 6 16t13 12 17 11q9 5 21 12t24 15 20 18 7 21q0 5 0 12t-3 14q-4 6-11 15t-15 16-17 14-14 5m162 0q-17 0-34-11t-27-35-11-60q0-25 4-46t8-31q4-6 14-15t22-16 22-14 15-5q11 0 26 3t29 7l-2 64h-30l-7-35q-5-2-15-5t-16-3q-2 0-4 1t-3 1q-5 4-8 16t-5 31-2 41q0 28 6 44t14 24 15 8h57v21q-9 3-20 5t-20 5-18 4-10 1m116-294l-18-7v-18t4-1 11-2 13-3 11-2 7 0 5 3 8 7 4 6l-2 113 2 1q7-5 15-11t16-12 13-9 6-4q23 0 39 8t25 26 8 51v130q0 15-5 31t-16 31-25 21l-15-12q7-11 10-23t5-24 1-22v-132q0-24-6-34t-13-12-10-1q-2 0-12 4t-21 8-15 7v142l17 8v18t-6 1-15 3-16 3-9 1-5-3-8-8-3-5v-278" />
</svg>