<svg id="fnt-Gugi" viewBox="0 0 1056 1000" xmlns="http://www.w3.org/2000/svg"><path id="gugi" class="f" d="M246 583v-97q0-24 30-24 29 0 29 23v102q0 40-27 60-13 10-27 15t-26 5h-104q-13 0-27-5t-27-15q-13-10-20-25t-7-35v-238q0-20 7-35t20-25h0q13-8 27-14t27-5h99q13 0 27 5t27 14h-1q27 20 27 60v35q0 24-30 24t-29-24v-30q0-13-8-23t-26-11h-73q-19 0-27 11t-7 23v229q0 6 1 12t6 11 11 8 16 3h78q19 0 26-11t8-23m-24-102q0 8-3 16t-9 13-13 9-17 3q-17 0-29-12t-12-29q0-17 12-29t29-12q9 0 17 3t13 9 9 13 3 16m396-94v200q0 20-7 36t-20 25h1q-13 8-27 13t-27 6h-80q-13 0-27-6t-27-13h1q-13-10-20-25t-7-36v-200q0-24 27-24t28 24v196q0 14 7 25 6 12 27 12h62q20 0 27-12l-1 0q8-12 8-25v-196q0-24 28-24t27 24m204 245h-61q-13 0-27-5t-26-13q-27-17-27-59v-113q0-21 7-36t20-23q13-8 26-13t27-4h84q12 0 26 5t25 14q11 10 18 25t7 35v212q0 21-7 36t-18 25q-12 9-25 14t-26 6h-84q-27 0-54-16-14-8-20-20t-6-29v-6q0-10 6-16t21-6q28 3 28 22v5q0 6 7 12t27 7h62q19 0 26-11t8-23v-211q0-13-8-23t-26-10h-62q-19 0-27 10t-7 23v105q0 13 7 23t27 11h52q18 0 18 23 0 11-5 17t-13 7m223-244v258q0 24-28 24-28 0-28-24v-258q0-24 28-24 28 0 28 24m10-87q0 16-11 27t-27 11-27-11-11-27q0-17 11-28t27-11 27 11 11 28" />
</svg>