<svg id="fnt-Gwendolyn" viewBox="0 0 1707 1000" xmlns="http://www.w3.org/2000/svg"><path id="gwendolyn" class="f" d="M16 817q-14 0-23-3-17-6-17-23 0-13 11-29t32-31q18-13 41-21t46-11 43-2q5-11 10-23t9-22q-19 9-38 14t-36 4q-38 0-63-19t-30-53q0-4 0-7t0-7q0-36 15-70t39-57q-14-10-21-21t-6-20q0-19 19-33t49-13q11 0 21 2t18 6q2 1 2 4 0 3-5 1t-15-3-20-1q-25 0-40 11t-16 27q0 8 5 17t14 17q23-22 50-36t56-21 55-7q34 0 50 11t17 26q0 15-16 29t-48 24q-15 4-31 6t-34 3q-22 0-44-5t-41-13q-19 23-32 55t-13 65q0 28 10 44t26 23 34 7q19 0 39-6t34-14q13-34 28-63t33-42q6-5 13-5 6 0 11 4t5 12q0 7-5 18t-16 25q-9 12-21 24t-28 23q-4 15-9 30t-10 30q10 2 17 5t12 6q3 2 3 5 0 1-1 2t-4-2q-4-3-12-5t-18-4q-5 14-12 27t-14 24q-17 21-40 35t-46 19-42 7m142-338q35 0 62-8 25-8 37-21t12-25-13-22-38-9q-34 0-72 17t-68 52q17 8 38 12t42 4m38 146q9-7 17-15t17-18q13-15 19-27t6-17q0-9-8-9-4 0-10 3-14 8-23 31t-18 52m-181 184q16 0 36-8t39-23 36-38q5-8 10-17t10-19q-27 0-61 8t-60 26q-18 12-29 26t-10 25q0 13 13 18 4 1 8 1t8 1m285-139q-9 0-16-8t-7-23q0-7 2-16t7-19q11-25 17-37t7-14 0-2-7 9-14 20-15 19q-1 2-3 2t-2-2 2-4q14-21 23-36t19-29q5-9 12-9t15 1q-2 3-8 17t-13 30-13 30q-6 15-10 27t-4 20q0 14 10 16 7 1 16-6t19-20 19-27 15-30q6-13 12-27t9-23q3-6 11-6t15 1q-5 4-12 18t-13 31-12 36-4 31q0 9 3 15t10 6q10 0 21-10t20-24 15-29q0-1-1-6t0-15q0-6 0-13t2-16q2-17 8-26t14-9q6 0 8 4t3 9q0 10-6 24t-11 26-8 18q2 16 7 22t12 6q12 0 22-11t19-24q1-1 2-1 2 0 2 3 0 3-2 7-8 10-19 22t-25 11q-8 0-15-5t-10-16q0 0-4 9t-13 22-21 21-26 10q-11 0-18-9t-7-26q0-6 1-13t3-15q-12 25-29 44t-34 19m252 1q-23 0-33-16t-10-35q0-7 2-15t3-14q6-16 15-30t20-23q10-9 20-14t20-5q9 0 14 4t5 16q0 9-3 19-6 18-23 31t-36 14q-4 0-7-1t-8-2q-2 8-3 15t-1 15q0 14 6 24t21 10q11 0 26-8t29-22 27-27 19-24q1-3 3-3 2 0 2 3 0 2-1 4-13 18-29 36t-33 30q-12 8-24 13t-21 5m-9-72q10 0 20-7t19-17 12-17q8-16 8-25 0-10-9-10-6 0-15 6t-18 18q-9 12-16 25t-11 24q4 3 10 3m90 74t8-18 21-51q11-25 16-37t7-14 1-2-8 9-14 20-14 19q-2 2-4 2t-2-2 2-4q14-21 24-36t19-29q5-9 12-9t15 1q-2 4-7 15t-10 23-11 27q9-15 23-33t30-28q13-8 24-8 8 0 13 4t5 13q0 8-5 19-6 12-16 29t-18 34-11 29q-1 2-1 4t0 4q0 11 12 11 4 0 12-3 14-6 30-21t30-32 23-30q1-2 3-2t2 2-1 4q-8 14-23 31t-31 32-31 21q-5 2-9 3t-9 1q-10 0-17-7t-7-17q0-14 9-32t20-35 18-32q2-4 2-8 0-12-11-12-5 0-12 4-11 7-23 22t-22 32q-15 23-27 46t-17 36q-7 0-14 2t-6 3m307-3q-13 0-19-10t-6-24q0-10 3-21-2 3-6 11t-12 18-16 16-19 9q-1 0-3 0t-3 0q-16 0-25-11t-10-31q0-20 11-47 5-13 15-26t24-23 32-10q18 0 24 6t11 10q11-33 25-68t32-62q8-11 17-17t17-5 13 5 5 17-6 28q-10 23-33 57t-66 75q-2 5-5 16t-7 26-2 26q0 11 3 19t13 8q5 0 11-3 15-6 30-21t29-30 23-30q3-5 5-5 2 0 2 2 0 2-3 8-9 14-23 30t-30 31-31 21q-11 5-20 5m8-113q31-31 54-65t34-59q4-9 6-15t1-12q0-10-6-10-4 0-11 5t-14 19q-20 31-35 66t-29 71m-87 105q3 0 5 0 12-3 22-14t20-29 16-37 15-38q-3-4-8-8t-13-7q-2-1-5-1t-5-1q-12 0-23 10t-18 23-12 25q-11 23-11 48 0 12 4 21t13 8m214 11q-23 0-34-17t-10-41q0-22 8-44t22-38 33-15q4 0 5 1 5-6 12-10t15-3q17 0 24 12t7 30q0 18-5 38t-14 37-18 26q2 1 5 1t5 0q18 0 33-10t27-23 23-28q2-1 3-1 2 0 2 2t-1 4q-4 6-13 16t-20 22-26 18-29 8q-4 0-8-1t-7-2q-8 8-18 13t-21 5m36-27q11-12 18-28t11-34 4-33q0-17-5-28t-14-9q-13 3-22 15t-14 27-4 33q0 18 6 34t20 23m-34 19q9 0 16-4t13-9q-15-9-22-27t-6-39q0-16 3-31t11-26h-2q-8 0-16 8t-13 22-10 30-4 31q0 18 7 31t23 14m155 11q-12 0-21-9t-8-26q0-13 6-36t20-57q15-37 34-74t42-67q9-11 18-17t18-5q7 0 11 4t5 15q0 5-2 13t-7 18q-11 23-36 52t-70 70q-22 55-22 86 0 13 5 19t12 6 15-5 16-10q16-12 32-31t29-38q1-1 3-1 1 0 2 1t1 3q-14 20-32 41t-35 34q-18 14-36 14m16-133q34-32 57-59t36-51q10-19 10-29 0-8-6-8-4 0-11 5t-16 19q-15 21-26 40t-22 38-22 45m39 283q-13 0-21-6t-8-16q0-7 3-16t13-18q14-17 36-31t46-27 43-24q4-21 9-40t10-38q-7 15-17 29t-21 23-26 10q-11 0-18-10t-7-24q0-16 8-34 6-12 12-25t10-20 3-8-8 9-14 20-14 19q-2 2-4 2t-2-2 2-4q14-21 23-36t20-29q5-9 12-9t15 1q-2 6-8 20t-13 29-12 29q-6 15-10 28t-4 23q0 15 12 15 9 0 22-11t24-30 18-37q1-2 4-10t5-17 6-17 3-10q5-9 12-11t15-1q-5 6-11 23t-14 40-14 48-11 47q27-18 45-34t30-32 26-35q2-2 4-2 2 0 2 3 0 3-2 5-11 15-25 32t-34 36-48 39q-8 39-26 64t-39 41-35 23q-14 6-27 6m-3-7q14 0 27-8 27-16 48-44t36-69q-18 10-39 22t-41 25-32 29q-8 11-12 18t-4 14q0 6 5 9t12 4m210-146t8-18 21-51q11-25 17-37t7-14 0-2-7 9-14 20-15 19q-1 2-3 2t-2-2 2-4q14-21 23-36t19-29q5-9 12-9t15 1q-2 4-6 15t-11 23-10 27q8-15 22-33t30-28q13-8 24-8 8 0 13 4t5 13q0 8-5 19-6 12-15 29t-18 34-12 29q0 2-1 4t0 4q0 11 12 11 5 0 12-3 15-6 30-21t30-32 23-30q2-2 3-2t2 2 0 4q-9 14-23 31t-31 32-31 21q-5 2-10 3t-8 1q-11 0-18-7t-6-17q0-14 9-32t20-35 18-32q2-4 2-8 0-12-11-12-5 0-12 4-12 7-24 22t-22 32q-14 23-26 46t-18 36q-6 0-13 2t-7 3" />
</svg>