<svg id="fnt-Nabla" viewBox="0 0 1301 1000" xmlns="http://www.w3.org/2000/svg"><path id="nabla" class="f" d="M65 342l108-63q18-10 31-2t13 27v250l65-37v-300l43-25v350l-108 62q-17 10-31 3t-13-28v-250l-64 38v300l-44 25v-350m217-175l43 25-43 25-44-25 44-25m-44 25l44 25v300l-44-25v-300m0 300l44 25-65 37-44-25 65-37m-108-188l43 25v250q0 20 13 28l-43-25q-13-8-13-28v-250m30-52l44 25q-13-8-31 2l-108 63-43-25 108-63q17-10 30-2m-138 65l43 25v350l-43-25v-350m390 155v-50l130-75q17-10 30-3t13 28v240l-43 25v-50q0 13-6 28t-16 27-22 20l-43 25q-17 10-30 2t-13-27v-70q0-14 6-29t16-27 21-19l87-50v-70l-130 75m43 95v70l87-50v-70l-87 50m43-195l44 25v70l-44-25v-70m0 190l44 25v50l-44-25v-50m0-70l44 25v70l-44-25v-70m0 70l44 25-87 50-43-25 86-50m0-120l44 25-87 50q-11 6-21 19t-16 27-6 29v70q0 20 13 27l-44-25q-13-7-13-27v-70q0-14 6-29t16-27 22-19l86-50m31-123l43 25q-13-7-30 3l-130 75-44-25 130-75q18-10 31-3m-161 78l44 25v50l-44-25v-50m390-25l44-25q17-10 30-3t13 28v170q0 13-6 28t-16 27-21 20l-130 75v-400l43-25v180q0-14 6-29t16-27 21-19m44 195v-170l-87 50v170l87-50m-44-195l44 25v170l-44-25v-170m0 170l44 25-87 50-43-25 86-50m31-223l43 25q-13-7-30 3l-44 25q-11 6-21 19t-16 27-6 29l-43-25q0-14 6-29t16-27 21-19l43-25q18-10 31-3m-117-77l43 25-43 25-44-25 44-25m-44 25l44 25v400l-44-25v-400m347 0v370l65-38v50l-65 38q-17 10-30 2t-13-27v-370l43-25m-43-25l43 25-43 25-44-25 44-25m65 332l43 25-65 38-43-25 65-38m-109-307l44 25v370q0 20 13 27l-44-25q-13-7-13-27v-370m239 205v-50l130-75q17-10 30-3t13 28v240l-43 25v-50q0 13-6 28t-16 27-22 20l-43 25q-17 10-30 2t-13-27v-70q0-14 6-29t16-27 21-19l87-50v-70l-130 75m43 95v70l87-50v-70l-87 50m43-195l44 25v70l-44-25v-70m0 190l44 25v50l-44-25v-50m0-70l44 25v70l-44-25v-70m0 70l44 25-87 50-43-25 86-50m0-120l44 25-87 50q-11 6-21 19t-16 27-6 29v70q0 20 13 27l-44-25q-13-7-13-27v-70q0-14 6-29t16-27 22-19l86-50m31-123l43 25q-13-7-30 3l-130 75-44-25 130-75q18-10 31-3m-161 78l44 25v50l-44-25v-50" />
</svg>