<svg id="fnt-Namdhinggo" viewBox="0 0 2511 1000" xmlns="http://www.w3.org/2000/svg"><path id="namdhinggo" class="f" d="M301 370v11q-17 3-25 7t-9 8v263l-29-9v-254q0-3-8-7t-26-8v-11h97m-34 267v37q-14-2-22-6t-13-10l-177-247q-9-14-20-21t-24-9v-11h54q7 0 10 3t12 15l152 212q3 4 10 13t13 17 5 7m-159 30h-97v-12q17-3 25-7t8-8v-254l30-7v261q0 3 8 7t26 8v12m417-33l4 12q-19 13-34 20t-21 7q-9 0-14-12t-5-32v-123q0-16-8-26t-29-10q-13 0-25 9t-10 22q1 2-5 5t-14 5-15 4-10 0l-4-9q8-17 24-31t38-22 43-8q27 0 40 14t14 38v125q0 18 9 18 4 0 9-1t13-5m-68-98v19q-25 4-38 8t-21 8-12 9q-6 6-10 14t-4 18q0 18 9 23t15 6q13 0 28-7t33-23l2 19q-22 23-43 33t-37 10q-11 0-23-5t-19-16-8-29q0-17 6-29t15-20q7-7 18-14t32-12 57-12m451 131h-102v-12q16-4 23-8t7-6v-119q0-28-6-37t-19-9q-14 0-31 14t-34 39v112q0 3 7 6t25 8v12h-102v-12q17-4 23-8t7-6v-119q0-28-5-37t-20-9q-14 0-30 14t-35 39v112q0 3 9 7t22 7v12h-102v-12q15-4 23-7t9-7v-137q0-12-2-18t-8-8-22-4v-11q19-3 33-7t26-11l9 9 2 46q22-29 43-42t37-13q22 0 35 11t15 38l0 4q21-27 42-40t37-13q22 0 37 13t15 40v143q0 3 7 6t25 8v12m249-33l4 11q-21 15-35 22t-20 6q-10 0-15-16t-6-55v-228q0-17-1-25t-9-11-22-3v-11q20-3 37-7t28-8l7 7v289q0 16 2 24t4 10q2 2 7 1t19-6m-55-25q-16 21-30 35t-28 22-33 7q-18 0-36-13t-30-37-13-59q0-21 8-42t23-38 34-28 44-11q14 0 28 5t32 22q0 14-3 20t-11 10q-7-14-21-22t-31-8q-27 0-45 20t-18 64q0 25 9 44t22 29 26 11q17 0 33-13t32-29q2 2 5 6t3 5m318 58h-103v-12q32-8 32-14v-117q0-28-7-37t-21-9-35 14-38 42v107q0 3 8 7t24 7v12h-103v-12q15-4 23-7t8-7v-272q0-13-1-19t-9-8-21-4v-11q21-3 34-7t28-11l9 8v186q22-28 47-43t43-15q20 0 35 13t16 40v143q0 3 7 6t24 8v12m102-292q0 14-9 23t-21 10q-23 0-23-23 0-14 9-23t21-10q11 0 17 6t6 17m24 292h-103v-12q32-6 32-14v-128q0-16-2-23t-8-11-22-5v-11q16-3 33-8t29-10h9v196q0 2 8 7t24 7v12m269 0h-103v-12q31-8 31-14v-118q0-27-6-36t-21-9q-14 0-32 13t-41 43v107q0 3 8 7t23 7v12h-103v-12q15-4 24-7t8-7v-137q0-12-2-18t-8-8-22-4v-11q17-3 32-7t28-11l8 9 3 51q21-29 47-45t44-15q19 0 35 13t15 40v143q0 3 7 6t25 8v12m233 27q0 18-10 34t-28 28-37 19-42 7q-16 0-34-4t-34-11-25-19-10-29q0-8 5-18t20-21 45-28q0 0 5 1t10 2 6 5q-24 13-35 22t-13 16-3 12q0 12 10 23t28 16 39 6q29 0 47-15t17-36q0-8-6-15t-19-11-41-8q-45-6-63-16t-18-21q0-4 8-15t35-28l35-4q-21 14-28 23t-7 12q0 3 5 6t16 6 36 6q34 4 53 13t26 19 7 23m-1-249l5 7q-2 6-5 13t-8 11q-12 2-25 4t-32 0l-11-19q29-1 47-7t29-9m-31 74q0 23-13 41t-34 28-45 11q-34 0-57-20t-23-51q0-23 13-42t34-30 44-11q23 0 42 10t28 27 11 37m-37 9q0-24-15-42t-44-17q-8 0-17 5t-15 15-6 26q0 24 14 41t44 17q14 0 26-11t13-34m302 166q0 18-10 34t-28 28-37 19-42 7q-16 0-34-4t-34-11-25-19-10-29q0-8 5-18t21-21 45-28q0 0 4 1t10 2 6 5q-24 13-34 22t-14 16-3 12q0 12 10 23t29 16 38 6q30 0 47-15t17-36q0-8-5-15t-20-11-41-8q-45-6-63-16t-18-21q0-4 8-15t35-28l35-4q-20 14-27 23t-8 12q0 3 5 6t16 6 36 6q34 4 53 13t26 19 7 23m0-249l5 7q-3 6-6 13t-8 11q-12 2-25 4t-32 0l-10-19q28-1 46-7t30-9m-32 74q0 23-13 41t-34 28-45 11q-34 0-57-20t-23-51q0-23 13-42t34-30 44-11q23 0 42 10t29 27 10 37m-37 9q0-24-15-42t-44-17q-7 0-16 5t-16 15-6 26q0 24 14 41t44 17q14 0 26-11t13-34m297 27q0 23-8 44t-23 38-34 27-41 9q-29 0-51-14t-34-39-12-56q0-23 8-44t23-38 33-27 42-10q30 0 51 14t34 39 12 57m-41 7q0-24-9-45t-24-33-29-13q-22 0-35 12t-18 31-6 44q0 24 10 44t24 33 29 12q31 0 44-23t14-62" />
</svg>