<svg id="fnt-Nanum Gothic Coding" viewBox="0 0 4721 1000" xmlns="http://www.w3.org/2000/svg"><path id="nanum-gothic-coding" class="f" d="M58 688h-20q-7 0-7-7v-320q0-10 2-12t12-2h22q6 0 8 1t5 6l90 248 15 44v-292q0-7 7-7h20q7 0 7 7v320q0 11-2 12t-12 2h-26q-4 0-6-1t-4-5l-90-245-14-41v285q0 7-7 7m377-115v-16h-9q-28-1-47 2t-33 10q-16 7-25 21t-9 31q0 9 4 19t12 16q15 12 33 12 17 0 29-7t22-21 17-32 6-35m-128-94q-3 2-5 1t-2-3v-20q0-6 7-9 17-10 34-14t39-4q43-1 66 25t23 64v117q0 14 1 25t1 21q0 6-7 6h-18q-7 0-7-6v-36q-10 24-32 37t-50 13q-43 0-67-28-8-9-12-21t-4-25q0-26 14-48t44-32q29-13 97-13h6v-12q0-25-14-42t-41-17q-22 0-39 5t-34 16m412 57v145q0 7-7 7h-20q-7 0-7-7v-137q0-46-13-66t-42-19q-27 0-45 21t-18 65v136q0 7-7 7h-20q-7 0-7-7v-180q0-21 0-33t-1-23q-1-4 1-6t6-1h18q7 0 7 7v28q12-22 29-32t40-10q44 0 65 27t21 78m251 145q0 7-7 7h-18q-7 0-7-7v-41q-13 30-32 43t-45 13q-81 0-81-104v-147q0-7 7-7h20q7 0 7 7v138q0 85 53 85 12 0 24-9t23-22 16-33 5-40v-119q0-7 7-7h20q7 0 7 7v181q0 16 0 29t1 26m51 0v-180q0-21 0-33t-2-23q0-7 7-7h19q7 0 7 7l-1 21q4-16 14-25t21-9q19 0 30 15t14 35q2-16 11-32t31-18q19 0 30 6t18 20 9 29 2 35v159q0 7-7 7h-19q-7 0-7-6v-153q0-66-26-66-10 0-16 8t-9 20-4 30-1 38v122q0 7-7 7h-18q-7 0-7-7v-152q-1-66-28-66-14 0-21 20t-7 57v141q0 7-7 7h-19q-7 0-7-7m596-178h96q7 0 8 2t1 12v144q0 5-2 9t-5 6q-15 10-33 14t-33 5q-29 0-52-13t-41-37-27-55-10-72q0-37 9-68t26-56 42-39 53-13q15 0 28 2t30 11q5 2 4 10l-2 19q0 6-5 4-16-8-29-12t-26-3q-21 0-37 11t-30 32-20 46-7 56q1 33 7 59t20 45 32 30 38 11q23 0 34-9v-119h-69q-5 0-5-7v-18q0-7 5-7m328 60q0-20-5-39t-14-34q-19-30-51-30-34 0-52 30-9 15-14 34t-4 39q0 21 4 40t14 33q22 30 52 30 34 0 51-30 10-14 14-33t5-40m34 0q0 27-6 51t-19 41q-15 20-35 30t-44 11-45-11-34-30q-12-18-19-41t-6-51q0-57 25-93 28-40 79-40 25 0 44 9t35 31q25 37 25 93m235 125q-21 8-49 8-46 0-59-26-8-18-8-64v-128h-65q-7 0-7-7v-15q0-7 7-7h65v-70q0-8 6-8h21q7 0 7 8v70h80q7 0 7 7v15q0 7-7 7h-80v151q0 37 41 37 20 0 39-8 2-1 4 0t3 4l1 16q1 7-6 10m258-143v136q0 7-7 7h-20q-7 0-7-7v-135q0-24-4-41t-13-27-18-15-26-4q-28 0-45 19t-18 54v149q0 7-7 7h-20q-7 0-7-7v-354q0-7 7-7h20q7 0 7 7v137q14-19 30-26t36-8q45 0 68 29t24 86m176 112h60q7 0 7 7v17q0 7-7 7h-160q-7 0-7-7v-17q0-7 7-7h64v-188h-58q-7 0-7-7v-17q0-7 7-7h87q7 0 7 7v212m-51-300q0-12 8-20t20-8 19 8 9 20-9 19-19 9-20-9-8-19m358 332q-13 4-24 5t-28 1q-29 0-52-10t-40-28-25-43-9-52q0-28 9-52t26-42 39-28 52-10q15 0 27 1t26 5q6 2 6 9l-2 17q-1 6-7 4-12-4-23-6t-23-1q-21 0-39 8t-30 22-18 33-6 40q0 20 7 38t17 34 30 24 39 9q13 0 23-2t23-6q5-1 7 4l2 18q0 7-7 8m505-38q2-1 4-1t2 4l1 20q0 6-6 9-12 5-25 8t-27 2q-60 0-98-53-17-26-26-58t-8-65q0-30 8-63t26-58q38-53 98-53 14 0 27 3t25 8q6 2 6 9l-1 19q0 3-2 4t-4 0q-12-5-24-8t-27-3q-43 0-71 44-13 22-20 48t-6 50q0 25 6 52t20 48q28 45 71 45 17 0 28-3t23-8m235-88q0-20-5-39t-14-34q-19-30-51-30-34 0-52 30-9 15-14 34t-4 39q0 21 4 40t14 33q22 30 52 30 34 0 51-30 10-14 14-33t5-40m34 0q0 27-6 51t-19 41q-15 20-35 30t-44 11-45-11-34-30q-12-18-19-41t-6-51q0-57 25-93 28-40 79-40 25 0 44 9t35 31q25 37 25 93m241-238v357q0 6-7 6h-19q-7 0-7-6v-37q-21 48-70 48-23 0-42-11t-32-32-20-44-5-51q0-47 26-86t73-39q25 0 42 12t28 32v-149q0-6 7-6h19q7 0 7 6m-167 236q0 15 3 33t12 35 21 26 31 9 31-9 20-26 12-35 3-33q0-15-3-34t-12-34-20-26-31-9-31 9-21 26-12 34-3 34m345 96h60q7 0 7 7v17q0 7-7 7h-160q-7 0-7-7v-17q0-7 7-7h64v-188h-58q-7 0-7-7v-17q0-7 7-7h87q7 0 7 7v212m-51-300q0-12 8-20t20-8 19 8 9 20-9 19-19 9-20-9-8-19m372 179v145q0 7-7 7h-20q-7 0-7-7v-137q0-46-13-66t-42-19q-27 0-45 21t-18 65v136q0 7-7 7h-20q-7 0-7-7v-180q0-21 0-33t-1-23q-1-4 1-6t6-1h18q7 0 7 7v28q12-22 29-32t40-10q44 0 65 27t21 78m74 218q-5-2-4-7l1-23q0-6 6-3 19 9 35 12t29 4q34 0 54-26t23-75q-11 22-29 32t-41 11q-21 0-39-8t-31-24-19-38-7-50q0-27 7-51t19-41 31-26 39-9q23 0 42 12t29 31l-1-31q0-6 7-6h19q7 0 7 6v184q0 29-8 57t-23 45-34 27-46 9q-15 0-31-3t-35-9m14-199q0 15 3 31t11 33 21 24 30 7 29-9 21-23 11-32 2-31q0-13-2-31t-11-31-21-24-29-8-30 8-21 24-11 31-3 31" />
</svg>