<svg id="fnt-Nanum Gothic" viewBox="0 0 3372 1000" xmlns="http://www.w3.org/2000/svg"><path id="nanum-gothic" class="f" d="M82 681q0 7-7 7h-22q-7 0-7-7v-350q0-10 1-12t13-2h23q6 0 8 1t5 6l189 324v-324q0-7 7-7h22q7 0 7 7v350q0 11-2 12t-12 2h-31q-4 0-6-1t-4-5l-184-318v317m482-117v-17h-9q-28-1-50 2t-36 9q-21 8-32 22t-10 36q0 12 4 23t12 17q15 12 40 12 18 0 32-7t26-20 17-33 6-44m-142-104q-3 1-5 0t-2-3v-19q0-7 7-10 17-10 37-14t43-3q50 0 73 23t23 72v126q0 15 1 26t1 23q0 7-7 7h-18q-7 0-7-7v-38q-10 25-35 39t-54 14q-50 0-74-29-8-10-12-24t-4-26q0-30 14-52t44-33q36-13 111-13h6v-15q0-32-14-48t-48-17q-22 0-42 5t-38 16m475 56v165q0 7-7 7h-20q-7 0-7-7v-157q0-46-17-66t-46-19q-41 0-62 23t-21 63v156q0 7-7 7h-20q-7 0-7-7v-200q0-21-1-33t-1-23q0-4 2-6t5-1h18q7 0 7 7v27q14-21 34-31t54-10q48 0 72 27t24 78m304 165q0 7-7 7h-18q-7 0-7-7v-41q-13 30-35 43t-55 13q-93 0-93-104v-167q0-7 7-7h20q7 0 7 7v158q0 85 65 85 19 0 34-9t26-22 16-33 5-40v-139q0-7 7-7h20q7 0 7 7v201q0 16 0 29t1 26m88 0v-200q0-21 0-33t-2-23q0-7 7-7h19q7 0 7 7v27q11-19 31-30t48-10q30 0 52 14t28 44q10-29 33-44t54-14q20 0 35 7t27 19 18 29 6 35v179q0 7-7 7h-19q-7 0-7-6v-173q0-69-58-69-17 0-31 8t-24 21-14 32-4 38v142q0 7-7 7h-20q-7 0-7-7v-172q0-69-58-69-34 0-54 22t-19 58v161q0 7-7 7h-20q-7 0-7-7m756-193h123q11 0 12 2t2 12v159q0 5-3 9t-7 6q-24 9-51 14t-54 5q-42 0-77-13t-61-37-40-60-14-82q0-42 13-77t38-60 61-40 80-14q28 0 48 2t45 10q7 2 6 10l-3 19q0 6-7 4-23-8-43-11t-46-3q-36 0-65 12t-49 33-31 50-10 65q0 39 11 69t32 50 49 31 63 10q55 0 79-13v-130h-101q-7 0-7-7v-18q0-7 7-7m434 65q0-23-6-44t-17-36q-26-32-68-32-21 0-38 8t-29 24q-12 16-18 36t-6 44q0 24 6 45t18 36q26 32 67 32 21 0 38-8t30-24q11-16 17-36t6-45m37 0q0 30-8 55t-23 44q-17 21-42 33t-55 11-55-11-42-33q-14-19-23-44t-8-55q0-60 31-99 35-43 97-43 32 0 56 10t41 33q31 40 31 99m194 136q-21 7-41 7-41 0-54-26-8-18-8-64v-159h-47q-7 0-7-7v-15q0-7 7-7h47v-68q0-7 6-7h21q7 0 7 7v68h55q7 0 7 7v15q0 7-7 7h-55v176q0 45 36 45 14 0 31-6 3-1 5 0t2 4l1 13q1 7-6 10m270-162v154q0 7-7 7h-20q-7 0-7-7v-154q0-24-5-41t-12-27-19-14-26-5q-41 0-63 20t-21 54v167q0 7-7 7h-20q-7 0-7-7v-384q0-7 7-7h20q7 0 7 7v145q14-16 34-23t52-7q49 0 71 28t23 87m124 154q0 7-7 7h-22q-7 0-7-7v-256q0-7 7-7h22q7 0 7 7v256m-42-358q0-10 7-17t17-7 17 7 7 17-7 17-17 7-17-7-7-17m301 367q-15 3-29 4t-33 1q-31 0-56-11t-41-30-25-45-9-56q0-31 9-57t27-44 43-30 56-10q16 0 30 1t29 5q7 2 6 9l-1 16q-1 6-8 5-13-4-25-6t-26-2q-26 0-45 8t-32 24-20 35-6 46q0 22 6 43t20 36 31 25 42 9q17 0 29-1t26-6q7-2 8 4l1 18q1 8-7 9" />
</svg>