<svg id="fnt-Narnoor" viewBox="0 0 1698 1000" xmlns="http://www.w3.org/2000/svg"><path id="narnoor" class="f" d="M86 667h-44v-317h48l109 192 33 66h2q-2-24-4-51t-2-52v-155h44v317h-47l-109-192-34-66h-2q2 24 4 50t2 52v156m322 5q-31 0-50-18t-20-49q0-38 34-59t109-29q0-14-5-27t-14-20-28-8q-19 0-37 8t-32 17l-17-31q18-11 42-21t52-10q44 0 64 27t20 72v143h-37l-4-27h-1q-17 14-36 23t-40 9m13-35q16 0 30-8t30-22v-61q-55 7-77 21t-22 35q0 18 11 26t28 9m222 30h-45v-236h37l4 43h1q13-23 30-36t37-13q15 0 26 5l-8 40q-7-2-12-3t-12-1q-14 0-31 11t-27 41v149m172 0h-45v-236h37l4 33h1q17-16 35-27t44-12q37 0 54 24t18 69v149h-46v-143q0-32-10-46t-31-13q-17 0-31 8t-30 25v169m314 5q-29 0-54-14t-41-42-15-67q0-39 15-67t41-42 54-15 54 15 41 42 15 67q0 39-15 67t-41 42-54 14m0-37q29 0 46-23t18-63q0-38-18-62t-46-24-46 24-17 62q0 39 17 63t46 23m263 37q-29 0-54-14t-41-42-15-67q0-39 15-67t41-42 54-15 54 15 41 42 15 67q0 39-15 67t-41 42-54 14m0-37q29 0 46-23t18-63q0-38-18-62t-46-24-46 24-17 62q0 39 17 63t46 23m215 32h-45v-236h37l4 43h1q13-23 30-36t37-13q15 0 26 5l-8 40q-7-2-12-3t-12-1q-14 0-31 11t-27 41v149" />
</svg>