<svg id="fnt-Nerko One" viewBox="0 0 2037 1000" xmlns="http://www.w3.org/2000/svg"><path id="nerko-one" class="f" d="M81 667q-18 0-27-5t-13-10-4-10 0-4-2-15-4-39-5-51-6-52-4-43-2-22q0-13 6-23t31-11q16-1 26 5t15 12 4 6l47 114 19 35-12-95t0-17 2-39q1-12 8-18t14-8 15-3 6 0 6 0 13 4 13 13 6 27q-1 22 1 49t5 56 7 53 6 41 3 21q1 6 1 14t-8 15-27 7q-19 0-29-4t-13-10-3-4l-75-135t2 10 5 26 5 35 5 35-4 25-13 12-14 3-6 0m401-151q-2 25-14 40t-31 23-35 10-29 3-12 0q3 18 9 25t12 9 13-2 9-5 4-3 6-4 17-9 30-4q20 0 27 5t7 12-3 12-2 5-5 5-15 11-30 12-50 6q-30 0-50-8t-33-23-20-29-9-28-3-21 1-19 7-26 16-25 30-19 50-8q37-1 58 6t31 17 11 19 3 13m-128 42q31-3 46-13t17-24-5-22-21-8q-15 0-22 10t-11 24-3 23-1 10m188 75q0-6-1-19t-4-31-5-35-5-31-5-19q-5-15 6-22t30-8 28 3 9 5q8-8 25-11t36-2q25 0 36 7t11 15q0 6-2 9t-12 6-36 9q-16 4-23 17t-10 30 0 34 4 28 2 13 0 6-1 13-11 12-27 5-28-6-13-11-4-12 0-5m208 7t-1-10-3-25-5-34-6-35-8-28q-5-15-1-23t10-11 14-3 6 0 7-1 17 2 17 8 10 19q3 17 4 22t1 3 1-1l56-52t6-4 18-7 34 4q14 4 16 11t-1 12-6 8q-2 1-9 8t-18 17-20 20-17 16-6 6l80 56t5 4 9 10 2 12-13 13-25 5-21-6-14-8-6-4l-57-40 4 41t-1 5-9 11-27 6-29-7-12-13-2-7m341-176q19-2 29 4t12 6q5 3 9 6t4 3 8 2 17 12 19 29 10 53q1 22-7 37t-22 25-28 15-29 8-23 2-8 1-10 0-24-4-29-13-24-28-8-51 12-52 26-31 30-17 26-6 10-1m2 49t-6 8-13 22-6 34q0 19 5 30t9 16 9 5 9-3 13-13 5-31q-1-18-4-29t-9-20-12-19m256 8q0-40 14-73t38-53 53-20q21 0 41 11t34 32 24 47 8 56-8 57-24 46-34 32-41 11q-29 0-53-20t-38-52-14-74m76-2q0 29 4 53t11 39 16 14 15-14 11-39 4-53q0-29-4-53t-11-39-15-14-16 14-11 39-4 53m217 148t-7 0-15-2-14-8-8-18q0-9-2-27t-3-38-3-40-3-30-1-12 1-5 3-9 12-10 23-5 24 3 12 8 4 8 1 4 9-5 24-9 32-6q2 0 9 0t16 3 18 12 15 26 7 46q1 35 2 57t-2 35-10 17-24 5q-16 0-23-5t-10-11-2-11q0-3 1-16t2-31-1-34-4-27-10-10q-8 0-16 6t-12 13-9 12-3 6l5 75t0 5-3 11-11 12-24 5m380-151q-1 25-14 40t-30 23-35 10-30 3-11 0q3 18 8 25t12 9 13-2 10-5 4-3 5-4 17-9 30-4q21 0 28 5t7 12-3 12-3 5-4 5-15 11-31 12-50 6q-29 0-49-8t-33-23-20-29-10-28-2-21 1-19 6-26 17-25 30-19 49-8q38-1 59 6t30 17 12 19 2 13m-127 42q30-3 45-13t18-24-5-22-22-8q-14 0-22 10t-10 24-4 23 0 10" />
</svg>