<svg id="fnt-Neuton" viewBox="0 0 1411 1000" xmlns="http://www.w3.org/2000/svg"><path id="neuton" class="f" d="M12 381l45 13v243l-41 12-2 18h116l3-20-45-8v-207l162 242 37-8v-275l41-10 3-18h-116l-3 18 45 11v208l-157-237h-85l-3 18m419 293q24 0 45-9t35-24l-5-13q-12 7-21 10t-16 3-18 1q-22 0-37-13t-22-31-9-40l118-1q1-7 3-17t1-15q0-25-9-43t-23-26-33-9q-25 0-48 14t-38 40-15 61q0 36 13 61t34 38 45 13m-3-203q33 0 33 46 0 3 0 8t-1 8l-77 6q2-22 8-38t17-22 20-8m133 18v112q0 38 14 55t40 16q44 0 70-37h3v2q0 16 9 25t27 10q11 0 18-1t19-3l2-21-11-2q-10-2-15-5t-9-8-3-18v-157l-5-6-72 7-2 22 39 10v130q-9 9-20 14t-26 5q-37 0-37-50v-132l-6-6-66 5-3 19 34 14m244-9l-1 123q-1 38 13 54t39 15q20 0 37-9t29-27l-5-13q0 0-6 4t-14 7-15 3q-13 0-21-5t-12-14-3-29l0-108h68l2-22h-69v-58h-13q-13 18-29 36t-31 30v13h31m233 193q29 0 52-14t37-41 14-59q0-33-12-59t-33-40-52-14q-28 0-52 14t-39 41-15 62q0 31 12 56t34 40 54 14m-4-201q22 0 36 16t21 40 6 51q0 18-5 34t-18 26-27 11q-23 0-38-15t-21-39-7-51q0-20 6-36t18-27 29-10m242 195l3-20-36-8v-137q9-10 21-16t27-5q19 0 31 11t11 34v113l-33 10-3 18h110l2-20-35-8v-123q0-33-15-51t-44-18q-21 0-40 11t-33 28h-3l4-32-4-4-72 9-3 19 38 13v148l-37 10-3 18h114" />
</svg>