<svg id="fnt-New Tegomin" viewBox="0 0 3117 1000" xmlns="http://www.w3.org/2000/svg"><path id="new-tegomin" class="f" d="M30 664q-6 0-10-8-4-13 10-20 27-9 28-41v-181q7-15-3-31-6-8-11-10-3-3-7-5-8-4-6-9 3-4 6-7 0 0 2-2t6-3q4-2 6-2h27q30 0 40 23 1 1 1 2t1 3q25 56 86 156 4 6 6 10t4 7q0 10 10 17 5 4 11 4 6-41 0-137 0-14-1-26t-1-19-13-21q-1 0-2 0t-3 0q-15 3-17-6 0-2 0-4t1-4q43-7 111 0 0 13-9 20-12 8-16 18-8 21-8 68-1 10-3 37t-7 70q-2 20-3 37t-1 29q5 5 1 15 0 2-1 3t0 3q-3 6-10 9t-12 3-6-5q-1-2-4-5t-5-8q-7-10-12-15-5-10-13-26t-17-36q-25-51-43-87t-30-59q-18 0-20 10 0 2-1 4t0 7v118q0 41 5 56 2 5 5 15t11 26q-14 4-35 5t-48 2m507-5q-44 22-96 5-12-4-44-18-41-28-45-75-1-21 5-39 16-65 80-86 8-3 16-5t17-2h34q46 0 64 20 12 17 22 60 8 14-9 22-4 2-10 5-10 0-64 6-34 3-57 0-33 0-53 7-9 35 10 58 4 5 10 9 29 22 48 25 16 1 32-5 26-9 42-14t23-6q5-6 12-1 10 6-1 18-1 1-2 3-4 4-22 9-6 2-12 4m-122-131q7 4 15 4 17 0 106-6 4 0 8 0t6-1q16-1 10-24-6-21-20-32-5-4-9-4h-27q-62-10-88 30-3 5-6 10-7 15 5 23m451 131q-8 24-28 13-4-2-7-5t-7-5q-5-3-13-12t-11-15l-4-7q-2-3-4-9t-6-14q-7-15-9-21 0-8-9-4-3 2-4 4-27 28-38 71-3 2-6 7-3 4-7 5-17-1-19-12-7-22-17-57t-22-83q0-2-2-5t-2-6q-6-17-15-21-1-2-6-5-15-9-14-17 0-1 0-2t1-1q4-14 17-10 13 3 15 3 3 0 6-1t9 0q34-2 49 2 10 6 11 9 1 4-9 10-1 0-1 0t-1 1q-26 13-28 18-2 5 3 18 12 51 12 77 3 2 8 13 1 2 2 3t3 2q15-10 28-37 1-2 2-4t2-3q0-10 8-17 2-2 5-3 12-18 26-14 8 4 12 14 12 18 20 32t12 25q0 3 5 26 1 7 1 12 17-6 19-16 1-2 1-5t0-5q8-24 14-51t11-57q5-14 2-19-2-2-9-6t-18-8q-17-4-17-12 1-6 11-5 7 0 16-1t22 0 22-1 16 0q16-1 18 9 1 1 1 3-1 11-14 19-6 5-7 7-4 40-34 116-8 20-14 34t-8 23m365 7q-17 1-24-15-6-13 3-18 4-2 7-2h56q12-20 13-47v-8q0-55-2-97t-5-69q0-22-13-25-5-2-14-2h-14q-35-6-43 5-5 8-5 29-1 36-7 49-7 11-19 6-9-4-9-13 1-13 2-40 0-22 1-38t4-26q9-14 21-14 60 18 153 12 9-1 27-2 16-1 28-2t20-1q23 0 26 4 2 2 4 6t4 11q0 2 2 10t4 24q1 9 1 14 0 15-13 25-5 3-8 3-20-7-20-48 0-9-11-15-4-2-6-4t-4-2h-34q-21 11-26 18-2 5-2 9-7 7-7 21v200q11 8 38 10 11 2 17 4 6 0 10 9 4 10-6 11-2 1-4 1-19 0-122 6-6 0-12 0t-11 1m435-7q-44 22-96 5-12-4-44-18-41-28-45-75-1-21 5-39 16-65 80-86 8-3 16-5t17-2h34q46 0 64 20 12 17 22 60 8 14-9 22-4 2-10 5-10 0-64 6-34 3-57 0-33 0-53 7-9 35 10 58 4 5 10 9 29 22 48 25 16 1 32-5 26-9 42-14t23-6q5-6 12-1 10 6-1 18-1 1-2 3-4 4-22 9-6 2-12 4m-122-131q7 4 15 4 17 0 106-6 4 0 8 0t6-1q16-1 10-24-6-21-20-32-5-4-9-4h-27q-62-10-88 30-3 5-6 10-7 15 5 23m433 236q-38 28-103 22-58-6-92-34-29-30-14-65 0-1 1-3t1-1q1-3 3-8t6-10q17-27 17-44 0-8-1-14-3-9 9-21 11-12 10-20 0-2 0-3-2-5-16-19-3-3-6-7t-3-5q-11-38 17-66 19-19 45-22 56 0 80 10 4 2 8 4t6 5q7 6 19 6 2 0 4-1t6 0q15-2 20 5 1 2 2 2 0 9-12 14-7 2-10 3t-4 2q-11 12-12 21 0 1 0 4 0 41-54 54-2 1-4 1t-5 1q-25 1-37 7-17 1-25 19-8 7 3 21 2 3 3 4 12 4 42 1 6-1 11-1t10 0h50q11 0 27 11 7 5 10 8 42 36 22 81-11 23-34 38m-113-207h38q36-11 37-51 0-17-12-28-3-2-6-5t-7-4q-36-9-63 0-26 6-30 37-1 4-1 9t0 10q6 23 16 28 10 4 28 4m4 208q46 2 69-6 1-1 1-1t1 0q44-7 48-44 1-15-4-31 0-23-20-30-4-2-11-2-2 0-6 0t-11-1q-34-2-57-2t-33 3q-21 6-39 30-15 22-11 39 0 3 5 13 1 4 1 6 17 16 44 25 4 0 10 0t13 1m332-100q-33 16-77 3-40-12-62-41-13-38-7-64v-38q8-51 53-78 5-3 11-6t12-5q61-7 114 45 34 38 27 90-7 51-47 80-11 8-24 14m-64-19q48 13 76-17 7-7 11-15t8-19q7-13 7-38 0-33-7-51-5-22-29-37-18-11-34-7-46 13-63 38-29 49-19 108 1 23 25 31 4 0 13 4 10 3 12 3m366 16q-33 8-62 6-9-1-12-4-4-16 5-19 10-5 13-8 7-9 6-29 0-2 0-17t-2-43q-1-28-1-43t-1-17q2-14-18-19-2 0-4-1t-3 0q-51 19-52 70-6 22-6 63 0 24 7 38 1 2 2 4t3 4q9 9 1 19-3 0-8-1t-13 0-13-1-8 0q-17 0-23-6-4-4 6-12 2-2 4-3t2-2q5-13 5-29v-109q0-28-23-29-4-3-5-6 0-5 3-9l2-2q2-1 25-8 3-1 5-2t5-2q1 0 3 0t4-1q12-2 16 1 13 12 35 12 14-7 41 0 20 6 27 6 7 0 37-8 9-2 15-3t13-1q55 11 63 58 2 14 4 34t1 46q3 5 3 22 1 4 1 7t2 5q-1 10 6 12 9 4 12 11 2 7 3 20-7 0-77-2h-2q0-21 8-28 9-8 12-20 3-14 3-38-2-12-4-32t-1-49q0-17-18-26-6-3-11-3-29 1-46 18-17 10-18 23 0 74 6 114 0 10 11 16 11 6 12 11 1 6-1 12m268-288q-8 5-16 5-24 0-36-19-6-8-6-17 4-7 10-14t14-11q7-4 12-4 18 0 29 17 6 9 6 18 0 15-13 25m67 286q-91 16-162 2-10 3-13-4-2-6 1-12 10-7 34-3 9 2 15 2t11-1q13 0 15-4 2-3 2-8 0-1 0-3t1-3q3-13-1-18-2-17 1-64 3-41-7-66-14-4-44-1-3 1-5 1t-4 0q-15 1-20-8t13-15q0 0 1 0 6 0 63-5 18-1 32-1 6 32 3 102-3 58 3 87h26q8 0 15 0t12 0q4 0 8 5t4 11-4 6m84 5q-30 3-48-1-4-9 1-15 3-2 4-3t1-1q21-9 24-19 1-2 1-5 0-9-5-95-1-23-1-39 0-11-10-14-13-3-15-4-7 0-8-7 1-7 8-11 5 0 20-5 6-1 11-1h18q9 18 23 13 1 0 4-1t6-2 5-3 4-1q36-12 55-12 29 0 46 28 2 3 4 7t4 7q13 76 6 122 0 26 9 34 6 6 16 8 12 2 11 10 0 6-8 9h-3q0-1-28-1l-27 1q-16 0-17-9 0-5 5-10 12-34 12-91-6-25-6-67-2-23-24-24-33 0-47 8-8 4-14 10-22 16-24 38v102q-3 8 13 23 11 12 8 16-4 3-15 4-3 0-8 0t-11 1" />
</svg>