<svg id="fnt-News Cycle" viewBox="0 0 2235 1000" xmlns="http://www.w3.org/2000/svg"><path id="news-cycle" class="f" d="M67 667h-36v-370h58l149 282v-282h36v370h-31l-176-334v334m281-36q-12-18-18-40t-6-46 3-44 9-34 14-25 16-18 19-10q17-8 33-8t27 3 23 12 22 23q21 33 21 97h-155q0 66 33 89 16 12 36 12 38 0 64-47l22 16q-9 17-24 31-30 27-58 27t-49-10-32-28m9-117h122q0-36-17-60-14-20-41-20-42 0-57 39-7 19-7 41m250 153l-70-258h30l57 194 51-194h29l55 195 54-195h33l-73 258h-29l-55-198-49 198h-33m265-49l24-16q13 20 29 30t39 10q24 0 39-13 12-11 12-26t-5-25-15-15q-17-10-34-14t-28-8-21-9-19-14q-18-17-18-46t23-47 59-19q41 0 70 30 5 6 9 11l-22 17q-2-2-7-7t-7-7l-6-5q-4-4-7-5l-8-3q-8-3-27-3t-32 10-13 24 4 20 13 13q14 9 33 15t25 7 16 6 16 8 13 10 11 12q9 17 9 36 0 33-24 54t-57 20-55-12-39-39m348-60q-4-19-6-38t-3-43 5-50 14-51 25-43 37-29 46-11 40 6 28 15 21 21 14 24q11 24 14 36l2 6v0l-38 10q-3-28-9-40t-12-21-14-14q-17-13-41-13-95 0-95 158 0 68 20 111 22 48 75 48 43 0 67-33 16-24 16-53l36 5q-1 3-5 13t-6 18-8 17-11 19-14 17-20 15q-24 13-50 13t-44-6-31-16-23-25-18-30-12-36m325 201q-14 4-30 4t-30-2l3-30q8 4 23 4t24-4 16-9 11-13 8-15q5-14 7-27l-92-258h34l73 210 69-210h32l-89 273q-14 42-28 57-16 16-31 20m173-219q0-134 104-134 25 0 43 13 17 12 23 22 9 16 13 27l-26 12q0-5-5-15t-10-15-16-11-22-5q-72 0-72 103 0 51 19 78t53 27q23 0 38-18 14-15 18-27l2-6 26 13q-9 23-28 43-9 8-24 15t-32 7q-54 0-79-34t-25-95m271 127h-32v-370h32v370m81-36q-12-18-18-40t-6-46 3-44 9-34 14-25 16-18 19-10q17-8 33-8t27 3 23 12 22 23q21 33 21 97h-155q0 66 33 89 16 12 36 12 38 0 64-47l22 16q-9 17-25 31-29 27-57 27t-49-10-32-28m9-117h121q0-36-16-60-15-20-41-20-42 0-57 39-7 19-7 41" />
</svg>