<svg id="fnt-Niconne" viewBox="0 0 1463 1000" xmlns="http://www.w3.org/2000/svg"><path id="niconne" class="f" d="M372 598l12 10q-12 30-31 47t-39 17q-12 0-20-10t-8-30 10-56 22-72q33-96 33-135 0-29-15-29t-33 18-36 47-35 63-33 70-27 64-19 47-7 18h-46l25-72q46-130 47-196t-51-67q-19 0-35 11t-26 27-18 36q-13 38-13 73 0 66 31 117l-10 8q-17-27-25-60t-9-59 4-47 12-45 21-39 32-28 39-11 32 5 21 14 14 22q11 24 11 51t-6 65q-8 44-17 81 8-22 13-34t14-28 13-30 17-33 18-33 21-31 22-26q26-23 48-23t34 14 11 38-6 53-17 60-19 57q-22 65-22 86t7 21 21-18 18-28m66 73q-11 0-17-7t-5-17 5-31 12-34 5-21-3-5q-8 0-28 33l-16-9q36-61 66-61 21 0 21 26 0 8-5 24l-18 51q-3 7-3 12t5 6q8 0 30-31l11 10q-14 24-32 39t-28 15m69-224q0 10-7 18t-17 8-17-7-6-17 7-18 18-8 17 7 5 17m132 169l10 7q-11 22-33 35t-47 13-41-15-17-42 17-50 41-33 50-12q30 0 41 15 4 6 4 15t-6 15-15 6-14-6-6-14 11-15q-10-3-18-3-16 0-31 12t-21 30-7 35 8 27 23 11 30-9 21-22m37-7q0-19 9-36t23-28q31-26 63-26t54 18 20 43-14 47-38 32-51 12-47-18-19-44m80 46q11 0 21-7t15-19q10-22 10-46t-9-37-25-12-32 21-16 54q0 46 36 46m176-57q51-79 91-79 14 0 21 8t7 21-12 44-11 39 3 8q5 0 15-11t17-21l10 10q-15 26-32 40t-28 14-17-8-6-19 9-41 10-40-8-12q-9 0-22 12t-24 29q-19 27-39 63l-7 12h-34l7-23q22-64 22-76t-4-11q-7 0-17 16-2 4-4 7t-3 5-2 4l-17-9q19-31 35-46t33-15q7 0 13 7t5 15-1 18-3 14-5 15-2 10m220 0q51-79 92-79 14 0 20 8t7 21-11 44-11 39 3 8q5 0 15-11t16-21l11 10q-15 26-32 40t-29 14-17-8-6-19 10-41 10-40-8-12q-9 0-22 12t-25 29q-19 27-39 63l-6 12h-35l8-23q21-64 21-76t-4-11q-7 0-16 16-3 4-4 7t-3 5-3 4l-16-9q19-31 35-46t32-15q8 0 13 7t6 15-2 18-3 14-4 15-3 10m210 21l-10 0q1 28 37 28 14 0 28-8t24-18l10 7q-20 34-64 41-10 2-19 2-26 0-44-18t-18-43 16-46 38-33 46-12 39 10 17 28-11 30-26 19q-32 13-63 13m-12-14q27-1 44-9t23-17 6-21-6-16-11-5q-16 0-29 11t-20 26-7 31" />
</svg>