<svg id="fnt-Niramit" viewBox="0 0 1564 1000" xmlns="http://www.w3.org/2000/svg"><path id="niramit" class="f" d="M34 667v-310q0-10-7-17-3-3-4-6t0-6q3-8 10-14t15-6q12 0 20 11l166 269v-271h43v350h-37l-163-263v263h-43m334-295q-13 0-22-9t-9-21 9-22 22-8 22 8 9 22-9 21-22 9m-22 295v-243h42v243h-42m116 0v-182q0-17-3-29t-8-22l38-15q4 8 7 19t5 24q13-21 29-32t38-11q12 0 21 3t20 10l-16 30q-13-7-29-7-29 0-44 22t-16 56v134h-42m261 5q-33 0-57-17t-37-44-12-63q0-37 12-66t38-46 59-17q49 0 76 40v-35h41v180q0 35 12 54l-35 14q-12-15-14-42l-1-1q-31 43-82 43m5-35q36 0 55-23t19-58v-21q0-20-8-38t-25-31-40-12q-34 0-52 26t-18 68q0 40 18 64t51 25m486 35q-16-28-16-60v-96q0-32-10-47t-36-14q-26 0-41 18t-14 47v147h-41v-151q0-29-11-45t-35-16q-27 0-42 21t-15 55v136h-42v-182q0-18-3-29t-8-22l37-15q5 9 8 19t5 23q10-20 28-31t39-11q46 0 64 46 12-22 32-34t45-12q42 0 62 24t20 65v104q0 25 11 45l-37 15m121-300q-13 0-22-9t-9-21 9-22 22-8 22 8 9 22-9 21-22 9m-22 295v-243h42v243h-42m205 5q-32 0-47-18t-15-49v-146h-43l9-35h34v-61l41-19v80h62l-8 35h-53v147q0 17 5 24t21 7q16 0 28-6l11 32q-8 3-21 6t-24 3" />
</svg>