<svg id="fnt-Nixie One" viewBox="0 0 2370 1000" xmlns="http://www.w3.org/2000/svg"><path id="nixie-one" class="f" d="M31 652h35q7 0 7-8v-305q0-7-7-7h-35q-8 0-8-8t8-7h55q8 0 12 7l205 313q1 2 3 1t2-4v-295q0-7-7-7h-30q-8 0-8-8t8-7h95q7 0 7 7t-7 8h-35q-8 0-8 7v305q0 8 8 8h35q7 0 7 7t-7 8h-55q-8 0-13-8l-205-312q-1-2-3-2t-2 4v295q0 8 8 8h30q7 0 7 7t-7 8h-95q-8 0-8-8t8-7m385 15q-7 0-7-8t7-7h35q8 0 8-8v-205q0-7-8-7h-35q-7 0-7-8t7-7h50q8 0 8 7v220q0 8 7 8h35q8 0 8 7t-8 8h-100m33-296q-5-6-5-14t5-15 15-5 14 5 6 15-6 14-14 6-15-6m103 281h30q6 0 12-8l72-99q3-5 0-9l-69-97q-5-7-13-7h-30q-7 0-7-8t7-7h95q8 0 8 7t-8 8h-30q-4 0-6 2t1 5l60 84q4 5 7 0l61-84q2-3 0-5t-5-2h-30q-8 0-8-8t8-7h95q7 0 7 7t-7 8h-30q-8 0-13 7l-69 97q-3 4 0 9l72 99q6 8 12 8h30q8 0 8 7t-8 8h-95q-7 0-7-8t7-7h30q4 0 6-3t-1-5l-63-87q-3-5-7 0l-62 87q-3 3-1 5t6 3h30q7 0 7 7t-7 8h-95q-8 0-8-8t8-7m297 15q-8 0-8-8t8-7h35q7 0 7-8v-205q0-7-7-7h-35q-8 0-8-8t8-7h50q7 0 7 7v220q0 8 8 8h35q7 0 7 7t-7 8h-100m33-296q-6-6-6-14t6-15 14-5 14 5 6 15-6 14-14 6-14-6m303 261q8-6 12-10t7-3 6 5-2 10q-18 15-42 26t-60 12q-53 0-85-37t-32-93 32-94 84-36 86 33 33 79v8q0 15-15 15h-197q-9 0-8 7 3 44 30 73t73 30 78-25m-180-106q0 6 7 6h189q8 0 8-8 0-40-30-69t-74-28-72 31-28 68m456 95q-46-51-46-129t46-130 122-50 121 50 46 130-46 129-121 51-122-51m11-248q-42 47-42 119t42 118 111 47 110-47 42-118-42-119-110-46-111 46m330 279h35q7 0 7-8v-205q0-7-7-7h-35q-8 0-8-8t8-7h50q7 0 7 7v28q0 5 2 7t6-2q41-45 88-45t73 25 26 75v132q0 8 8 8h35q7 0 7 7t-7 8h-95q-8 0-8-8t8-7h30q7 0 7-8v-132q0-43-22-64t-60-21-72 34q-15 15-26 33v150q0 8 8 8h30q7 0 7 7t-7 8h-95q-8 0-8-8t8-7m528-20q8-6 12-10t7-3 6 5-2 10q-18 15-42 26t-60 12q-53 0-85-37t-32-93 32-94 84-36 86 33 33 79v8q0 15-15 15h-197q-9 0-8 7 3 44 30 73t73 30 78-25m-180-106q0 6 7 6h189q8 0 8-8 0-40-30-69t-74-28-72 31-28 68" />
</svg>