<svg id="fnt-Notable" viewBox="0 0 2812 1000" xmlns="http://www.w3.org/2000/svg"><path id="notable" class="f" d="M14 667v-350h147l146 175v-175h30v350h-117l-175-233v233h-31m585 2q-67 0-121-20t-85-61-31-97q0-56 31-96t85-61 121-20q67 0 120 20t85 61 32 96q0 57-32 97t-85 61-120 20m0-29q21 0 31-19 9-15 12-52 1-19 1-78 0-59-2-83-2-30-11-46-10-19-31-19-21 0-31 19-9 15-11 46-2 26-2 83 0 65 1 78 2 35 11 52 11 19 32 19m318 27v-321h-131v-29h438v29h-132v321h-175m224 0l132-350h146l155 350h-189l-53-116h-110l-45 116h-36m92-147h85l-45-101-40 101m364 147v-350h334q25 0 46 12t34 33 13 47q0 25-12 47t-32 35q20 14 32 36t12 47q0 25-13 46t-34 34-46 13h-334m183-190q18 0 33-9t24-24 9-32q0-18-9-34t-24-24-33-9h-7v132q2 0 7 0m0 161q18 0 33-9t24-24 9-33q0-18-9-33t-24-24-33-9h-7v131q2 1 7 1m274 29v-350h175v320h190v30h-365m394 0v-350h363v29h-187v130h92v30h-92v131h187v30h-363" />
</svg>