<svg id="fnt-Noto Traditional Nushu" viewBox="0 0 5803 1000" xmlns="http://www.w3.org/2000/svg"><path id="noto-traditional-nushu" class="f" d="M332 310v357h-53l-191-297h-2q1 18 3 44t1 53v200h-41v-357h52l190 295h2q0-8-1-24t-2-35 0-35v-201h42m324 222q0 45-16 76t-43 47-66 17q-36 0-64-17t-43-47-16-76q0-66 33-102t91-36q37 0 64 16t44 47 16 75m-203 0q0 48 19 75t60 28q40 0 59-28t19-75q0-32-8-54t-26-35-45-12q-41 0-59 27t-19 74m362 104q10 0 20-2t17-4v34q-7 3-20 5t-25 3q-21 0-39-8t-28-25-11-50v-156h-38v-21l38-18 18-57h26v62h77v34h-77v155q0 24 11 36t31 12m324-104q0 45-16 76t-43 47-66 17q-36 0-64-17t-43-47-16-76q0-66 33-102t91-36q37 0 64 16t44 47 16 75m-203 0q0 48 19 75t60 28q40 0 59-28t19-75q0-32-8-54t-26-35-45-12q-41 0-59 27t-19 74m691-183v318h-45v-318h-111v-39h267v39h-111m284 45q8 0 16 0t16 3l-6 40q-6-1-14-2t-15-1q-20 0-38 11t-29 31-11 48v143h-44v-268h36l5 49h2q13-22 34-38t48-16m183 0q49 0 73 22t23 68v183h-32l-8-38h-2q-18 22-37 32t-53 11q-37 0-61-20t-24-60q0-40 32-62t97-23l45-2v-16q0-33-14-46t-41-13q-21 0-40 6t-36 14l-13-33q17-9 41-16t50-7m53 142l-40 1q-50 2-69 16t-19 40q0 22 13 33t36 10q34 0 56-19t23-57v-24m221 136q-50 0-80-35t-30-104 30-104 81-35q31 0 50 11t33 28h3q-1-6-2-19t-1-20v-107h44v380h-36l-6-36h-2q-12 17-32 29t-52 12m7-37q43 0 60-23t17-70v-8q0-50-16-77t-61-27q-36 0-54 28t-17 76q0 48 17 75t54 26m206-236h44v268h-44v-268m22-101q10 0 18 7t8 21q0 14-8 21t-18 7q-11 0-18-7t-8-21q0-14 8-21t18-7m196 338q10 0 21-2t17-4v34q-7 3-20 5t-25 3q-21 0-39-8t-29-25-11-50v-156h-38v-21l39-18 17-57h26v62h78v34h-78v155q0 24 12 36t30 12m91-237h44v268h-44v-268m23-101q10 0 17 7t8 21q0 14-8 21t-17 7q-11 0-19-7t-7-21q0-14 7-21t19-7m339 234q0 45-15 76t-43 47-67 17q-35 0-63-17t-44-47-16-76q0-66 34-102t91-36q36 0 64 16t43 47 16 75m-202 0q0 48 18 75t60 28q41 0 60-28t19-75q0-32-9-54t-26-35-44-12q-41 0-60 27t-18 74m401-138q48 0 72 23t25 75v175h-44v-172q0-32-14-48t-46-16q-44 0-61 25t-17 72v139h-44v-268h35l7 36h2q13-21 36-31t49-10m281 0q49 0 73 22t23 68v183h-32l-8-38h-2q-18 22-37 32t-53 11q-37 0-61-20t-24-60q0-40 32-62t97-23l45-2v-16q0-33-14-46t-41-13q-21 0-40 6t-36 14l-13-33q17-9 41-16t50-7m53 142l-40 1q-50 2-69 16t-19 40q0 22 13 33t36 10q34 0 56-19t23-57v-24m170-249v380h-44v-380h44m674 23v357h-52l-191-297h-2q1 18 2 44t2 53v200h-42v-357h52l191 295h2q-1-8-2-24t-1-35-1-35v-201h42m271 89h44v268h-36l-6-36h-2q-13 21-36 31t-49 10q-49 0-73-24t-25-74v-175h45v172q0 32 14 48t45 16q45 0 62-25t17-72v-139m304 194q0 39-29 59t-78 20q-28 0-49-5t-35-12v-40q16 8 38 14t47 7q33 0 48-11t15-28q0-10-5-18t-20-16-41-18q-26-10-44-20t-29-24-10-36q0-34 28-53t73-18q24 0 45 4t40 14l-15 35q-17-7-35-12t-38-5q-27 0-42 8t-14 24q0 11 7 19t21 15 41 17q26 10 44 20t27 24 10 36m109-306v111q0 10-1 20t-2 18h3q13-21 35-31t49-11q49 0 73 23t25 75v175h-44v-172q0-32-14-48t-46-16q-45 0-62 25t-16 72v139h-44v-380h44m445 112h44v268h-36l-7-36h-2q-13 21-36 31t-49 10q-48 0-73-24t-24-74v-175h44v172q0 32 15 48t45 16q44 0 61-25t18-72v-139" />
</svg>