<svg id="fnt-Noto Rashi Hebrew" viewBox="0 0 4613 1000" xmlns="http://www.w3.org/2000/svg"><path id="noto-rashi-hebrew" class="f" d="M145 667h-126v-21h7q11 0 20-3t15-10 6-23v-245q0-15-6-23t-15-9-20-2h-7v-21h92l179 276v-221q0-15-6-23t-15-9-20-2h-7v-21h126v21h-7q-11 0-20 2t-15 10-6 24v300h-35l-188-288v231q0 15 6 23t15 10 20 3h7v21m380 5q-54 0-85-35t-31-105q0-70 30-104t88-34q54 0 85 34t31 104q0 71-30 105t-88 35m1-26q25 0 40-13t22-38 6-63q0-56-15-84t-53-28-53 28-15 84 15 85 53 29m264 26q-38 0-55-18t-17-60v-167h-38v-20q9 0 20-4t19-12q8-9 14-22t9-32h23v62h65v28h-65v169q0 25 10 37t28 12q9 0 16-1t16-2v22q-7 3-20 5t-25 3m200 0q-54 0-85-35t-31-105q0-70 29-104t88-34q54 0 85 34t31 104q0 71-30 105t-87 35m1-26q25 0 40-13t21-38 7-63q0-56-16-84t-53-28-53 28-15 84 16 85 53 29m438 21h-145v-21h6q11 0 20-3t15-9 6-22v-247q0-15-6-23t-15-9-20-2h-6v-21h134q44 0 72 10t43 32 14 54q0 27-11 45t-28 29-35 17l69 109q13 20 25 30t27 10h2v21h-7q-31 0-49-4t-27-13-22-28l-68-113h-41v103q0 15 5 22t15 9 21 3h6v21m-47-181h35q44 0 60-20t16-58q0-27-7-44t-25-23-45-7h-34v152m313 186q-22 0-40-9t-27-27-10-44q0-40 28-59t86-21l41-2v-30q0-18-3-32t-13-21-30-8q-19 0-29 7t-14 19-3 28q-21 0-32-7t-10-24q0-18 12-28t33-16 45-4q46 0 68 19t23 67v130q0 14 3 21t10 11 18 4h2v21h-68l-8-43h-4q-10 14-20 24t-24 17-34 7m12-31q20 0 35-9t23-24 8-37v-40l-32 1q-28 1-45 9t-23 20-7 33q0 16 5 26t13 15 23 6m272 31q-25 0-43-6t-29-18-10-29q0-14 5-21t13-11 13-3q0 26 12 45t42 19q27 0 41-13t14-33q0-12-5-20t-19-16-37-18q-26-12-43-23t-25-25-8-35q0-34 26-53t68-18q24 0 40 6t25 17 8 23q0 14-9 22t-27 8q0-25-10-39t-33-14q-25 0-36 11t-11 29q0 19 14 29t48 24q26 11 43 22t24 26 8 35q0 39-27 59t-72 20m264-5h-134v-21h4q11 0 20-3t15-10 6-23v-268q0-15-6-23t-15-9-20-2h-4v-21h92v110q0 9-1 18t-1 17 0 7h2q8-15 18-25t25-15 31-5q43 0 65 23t23 75v118q0 15 5 23t14 10 20 3h1v21h-87v-173q0-32-12-50t-43-18q-20 0-34 10t-20 28-6 43v105q0 15 5 22t15 9 21 3h1v21m328 0h-142v-21h6q11 0 20-3t15-9 6-22v-158q0-15-6-23t-15-9-20-2h-1v-21h89v211q0 15 6 23t15 10 20 3h7v21m-73-318q-12 0-21-7t-8-24q0-18 8-25t21-6q11 0 20 6t8 25q0 17-8 24t-20 7m374 318h-146v-21h7q11 0 20-3t15-10 6-23v-245q0-15-6-23t-15-9-20-2h-7v-21h146v21h-7q-11 0-20 2t-15 10-6 24v101h163v-101q0-16-6-24t-15-10-20-2h-7v-21h146v21h-7q-11 0-20 2t-15 10-6 24v245q0 15 6 22t15 9 20 3h7v21h-146v-21h7q11 0 20-3t15-10 6-23v-117h-163v117q0 15 6 23t15 10 20 3h7v21m375 5q-54 0-85-36t-31-101q0-70 29-106t82-35q49 0 76 30t28 89v23h-166q1 55 19 79t55 25q26 0 44-11t28-24q3 2 6 6t3 11q0 10-9 22t-29 19-50 9m-66-163h115q0-40-13-64t-42-24q-27 0-43 22t-17 66m368 163q-29 0-48-13t-29-31h-3l-9 39h-80v-21h4q12 0 21-3t15-10 5-23v-268q0-15-6-23t-15-9-20-2h-4v-21h92v92q0 8 0 21t-1 26-1 18h2q12-23 30-37t47-13q49 0 75 33t27 105q0 73-27 106t-75 34m-8-32q33 0 47-28t14-80q0-54-14-80t-48-26q-39 0-53 26t-15 80q0 35 6 59t22 36 41 13m298 27h-144v-21h1q12 0 21-3t15-10 5-23v-156q0-15-6-23t-15-9-20-2h-1v-21h77l9 49h3q6-15 14-27t20-20 34-7q28 0 41 9t13 27q0 16-11 26t-35 10q0-21-6-30t-21-9q-14 0-23 11t-15 28-8 35-3 33v78q0 15 6 22t15 9 20 3h14v21m218 5q-54 0-85-36t-31-101q0-70 29-106t82-35q49 0 76 30t28 89v23h-166q1 55 19 79t55 25q26 0 44-11t28-24q3 2 6 6t3 11q0 10-9 22t-29 19-50 9m-66-163h115q0-40-13-64t-42-24q-27 0-43 22t-17 66m293 158l-65-221q-4-10-9-16t-11-8-16-2h-1v-21h123v21h-6q-15 0-23 4t-7 17q0 4 1 10t3 11l23 84q4 12 7 27t6 28 5 22h1q2-9 5-21t7-25 9-26l52-151h31l50 148q3 9 6 19t7 21 5 20 4 15h1q3-13 7-31t13-42l25-81q2-6 3-14t1-11q0-13-8-19t-25-5h-3v-21h107v21h-7q-9 0-16 2t-11 12-10 25l-65 208h-40l-68-209-71 209h-40" />
</svg>