<svg id="fnt-Noto Sans Mono" viewBox="0 0 4174 1000" xmlns="http://www.w3.org/2000/svg"><path id="noto-sans-mono" class="f" d="M79 667h-44v-357h60l130 297h1q-1-14-2-28t-1-26-1-26 0-28v-189h43v357h-54l-137-311h-2q1 14 2 28t3 28 1 28 1 28v199m372 5q-26 0-49-9t-39-26-26-44-9-61q0-47 15-77t44-46 62-15 63 15 44 46 17 78q0 35-10 61t-25 43-39 26-48 9m-1-37q26 0 43-12t26-36 8-55q0-32-8-55t-26-35-43-12q-39 0-59 27t-19 75q0 32 9 55t26 36 43 12m351 37q-28 0-51-8t-36-26-13-53v-149h-73v-31l73-8 9-70h36v72h105v37h-105v141q0 20 6 33t19 19 33 6q13 0 28-2t26-5v36q-12 3-26 5t-31 3m250 0q-26 0-49-9t-39-26-26-44-9-61q0-47 15-77t44-46 62-15 63 15 44 46 17 78q0 35-10 61t-25 43-39 26-48 9m-1-37q26 0 43-12t26-36 8-55q0-32-8-55t-26-35-43-12q-39 0-59 27t-19 75q0 32 9 55t26 36 43 12m591 37q-29 0-56-6t-42-13v-41q18 8 45 14t54 7q25 0 42-7t26-21 9-34q0-17-7-27t-25-20-50-23q-21-9-41-21t-33-30-12-50 13-52 40-32 61-11q27 0 51 5t42 15l-15 37q-17-8-38-13t-41-4q-20 0-35 5t-24 18-8 33q0 17 7 28t23 19 41 20q29 12 50 24t34 30 13 49q0 24-8 43t-24 31-38 20-54 7m282 0q-39 0-64-20t-24-59q0-29 14-48t41-29 67-11l57-1v-11q0-36-18-50t-48-13q-22 0-41 6t-37 15l-16-34q19-9 42-16t54-7q51 0 78 22t27 71v180h-36l-5-37h-2q-11 14-24 23t-29 14-36 5m8-37q22 0 41-8t31-25 11-42v-24l-48 1q-32 1-51 8t-29 18-8 29q0 23 14 33t39 10m254 32h-45v-268h36l7 39h2q8-15 21-25t30-15 37-4q40 0 65 22t25 72v179h-45v-171q0-34-14-50t-44-16q-41 0-58 26t-17 73v138m355 5q-25 0-48-5t-39-12v-42q17 8 38 15t51 7q33 0 47-11t14-29q0-11-5-18t-18-13-40-18q-26-12-44-22t-29-24-10-35q0-24 12-40t36-23 55-8q22 0 42 4t42 13l-14 35q-20-9-37-12t-33-3q-31 0-45 8t-14 25q0 11 6 19t20 14 38 17q27 11 45 21t28 22 10 37q0 25-13 42t-36 27-59 9m528-5h-43v-357h65l59 209h2l59-209h65v357h-42v-194q0-10 0-20t0-20 1-20 1-20 2-20 2-18h-2l-66 223h-42l-66-224h-2q1 8 2 17t1 19 2 20 1 22 0 21 1 20v194m383 5q-26 0-49-9t-39-26-26-44-9-61q0-47 15-77t44-46 62-15 63 15 44 46 17 78q0 35-10 61t-25 43-39 26-48 9m-1-37q26 0 43-12t26-36 8-55q0-32-8-55t-26-35-43-12q-39 0-59 27t-19 75q0 32 9 55t26 36 43 12m235 32h-45v-268h36l7 39h2q8-15 21-25t30-15 37-4q40 0 65 22t25 72v179h-45v-171q0-34-14-50t-44-16q-41 0-58 26t-17 73v138m366 5q-26 0-49-9t-39-26-26-44-9-61q0-47 15-77t44-46 62-15 63 15 44 46 17 78q0 35-10 61t-25 43-39 26-48 9m-1-37q26 0 43-12t26-36 8-55q0-32-8-55t-26-35-43-12q-39 0-59 27t-19 75q0 32 9 55t26 36 43 12" />
</svg>