<svg id="fnt-Noto Music" viewBox="0 0 2651 1000" xmlns="http://www.w3.org/2000/svg"><path id="noto-music" class="f" d="M332 310v357h-53l-191-297h-2q1 18 3 44t1 53v200h-41v-357h52l190 295h2q0-8-1-24t-2-35 0-35v-201h42m324 222q0 67-34 103t-91 37q-36 0-64-17t-43-47-16-76q0-66 33-102t91-36q37 0 64 16t44 47 16 75m-203 0q0 48 19 75t60 28q40 0 59-28t19-75-19-74-60-27-59 27-19 74m362 104q10 0 20-2t17-4v34q-7 3-20 5t-25 3q-21 0-39-8t-28-25-11-50v-156h-38v-21l38-18 18-57h26v62h77v34h-77v155q0 24 11 36t31 12m324-104q0 67-34 103t-91 37q-36 0-64-17t-43-47-16-76q0-66 33-102t91-36q37 0 64 16t44 47 16 75m-203 0q0 48 19 75t60 28q40 0 59-28t19-75-19-74-60-27-59 27-19 74m603 135h-37l-118-313h-2q2 15 3 41t1 55v217h-42v-357h67l110 292h2l112-292h66v357h-45v-220q0-26 1-51t3-42h-2l-119 313m433-268h44v268h-36l-7-36h-2q-13 21-36 31t-49 10q-48 0-73-24t-24-74v-175h44v172q0 64 60 64 44 0 61-25t18-72v-139m303 194q0 39-29 59t-78 20q-28 0-48-5t-36-12v-40q16 8 39 14t46 7q34 0 49-11t15-28q0-10-6-18t-20-16-40-18q-26-10-45-20t-28-24-10-36q0-34 27-53t73-18q25 0 46 4t40 14l-15 35q-17-7-36-12t-38-5q-27 0-41 8t-14 24q0 11 6 19t22 15 41 17q25 10 43 20t28 24 9 36m88-295q10 0 17 7t8 21q0 14-8 21t-17 7q-11 0-19-7t-7-21q0-14 7-21t19-7m-23 101h44v268h-44v-268m237 273q-36 0-64-15t-43-45-16-78q0-49 17-80t44-46 65-14q20 0 39 4t31 10l-13 37q-12-5-28-9t-30-4q-79 0-79 102 0 48 19 74t57 26q22 0 39-5t31-11v39q-14 7-30 11t-39 4" />
</svg>