<svg id="fnt-Noto Sans Kaithi" viewBox="0 0 3838 1000" xmlns="http://www.w3.org/2000/svg"><path id="noto-sans-kaithi" class="f" d="M332 310v357h-53l-191-297h-2q1 18 3 44t1 53v200h-41v-357h52l190 295h2q0-8-1-24t-2-35 0-35v-201h42m324 222q0 67-34 103t-91 37q-36 0-64-17t-43-47-16-76q0-66 33-102t91-36q37 0 64 16t44 47 16 75m-203 0q0 48 19 75t60 28q40 0 59-28t19-75-19-74-60-27-59 27-19 74m362 104q10 0 20-2t17-4v34q-7 3-20 5t-25 3q-21 0-39-8t-28-25-11-50v-156h-38v-21l38-18 18-57h26v62h77v34h-77v155q0 24 11 36t31 12m324-104q0 67-34 103t-91 37q-36 0-64-17t-43-47-16-76q0-66 33-102t91-36q37 0 64 16t44 47 16 75m-203 0q0 48 19 75t60 28q40 0 59-28t19-75-19-74-60-27-59 27-19 74m615 39q0 48-34 74t-93 27q-30 0-56-5t-42-12v-43q18 8 44 14t56 7q40 0 60-16t20-42q0-17-7-29t-26-23-51-21q-45-17-69-41t-23-65q0-29 15-49t40-31 59-11q30 0 54 5t45 15l-14 38q-19-8-41-13t-45-6q-33 0-50 14t-17 38q0 18 7 30t25 22 46 20q31 12 53 25t33 32 11 46m168-177q49 0 72 22t24 68v183h-32l-9-38h-2q-17 22-37 32t-53 11q-36 0-60-20t-24-60q0-40 31-62t97-23l46-2v-16q0-33-15-46t-41-13q-21 0-40 6t-35 14l-14-33q18-9 42-16t50-7m52 142l-39 1q-50 2-70 16t-19 40q0 22 14 33t35 10q34 0 57-19t22-57v-24m256-142q48 0 72 23t25 75v175h-44v-172q0-64-60-64-44 0-61 25t-17 72v139h-44v-268h35l7 36h2q13-21 36-31t49-10m354 199q0 39-29 59t-78 20q-28 0-48-5t-36-12v-40q16 8 39 14t46 7q34 0 49-11t15-28q0-10-6-18t-20-16-40-18q-26-10-45-20t-28-24-10-36q0-34 27-53t73-18q25 0 46 4t40 14l-15 35q-17-7-36-12t-38-5q-27 0-41 8t-14 24q0 11 6 19t22 15 41 17q25 10 43 20t28 24 9 36m320-128l147 202h-53l-127-171-36 32v139h-45v-357h45v176q15-17 30-34t31-34l97-108h52l-141 155m291-71q49 0 72 22t24 68v183h-32l-9-38h-2q-17 22-37 32t-53 11q-36 0-60-20t-24-60q0-40 31-62t97-23l46-2v-16q0-33-15-46t-41-13q-21 0-40 6t-35 14l-14-33q18-9 42-16t50-7m52 142l-39 1q-50 2-70 16t-19 40q0 22 14 33t35 10q34 0 57-19t22-57v-24m149-238q10 0 18 7t8 21q0 14-8 21t-18 7q-11 0-18-7t-8-21q0-14 8-21t18-7m-22 101h44v268h-44v-268m218 237q10 0 21-2t17-4v34q-7 3-20 5t-25 3q-21 0-39-8t-29-25-11-50v-156h-38v-21l39-18 17-57h26v62h78v34h-78v155q0 24 12 36t30 12m135-349v111q0 20-2 38h3q13-21 35-31t48-11q49 0 74 23t24 75v175h-43v-172q0-64-60-64-45 0-62 25t-17 72v139h-44v-380h44m288 11q10 0 17 7t8 21q0 14-8 21t-17 7q-11 0-19-7t-7-21q0-14 7-21t19-7m-23 101h44v268h-44v-268" />
</svg>