<svg id="fnt-Noto Serif Sinhala" viewBox="0 0 4524 1000" xmlns="http://www.w3.org/2000/svg"><path id="noto-serif-sinhala" class="f" d="M145 667h-126v-21h7q11 0 20-3t15-10 6-23v-245q0-15-6-23t-15-9-20-2h-7v-21h92l179 276v-221q0-15-6-23t-15-9-20-2h-7v-21h126v21h-7q-11 0-20 2t-15 10-6 24v300h-35l-188-288v231q0 15 6 23t15 10 20 3h7v21m380 5q-54 0-85-35t-31-105q0-70 30-104t88-34q54 0 85 34t31 104q0 71-30 105t-88 35m1-26q25 0 40-13t22-38 6-63q0-56-15-84t-53-28-53 28-15 84 15 85 53 29m264 26q-38 0-55-18t-17-60v-167h-38v-20q9 0 20-4t19-12q8-9 14-22t9-32h23v62h65v28h-65v169q0 25 10 37t28 12q9 0 16-1t16-2v22q-7 3-20 5t-25 3m200 0q-54 0-85-35t-31-105q0-70 29-104t88-34q54 0 85 34t31 104q0 71-30 105t-87 35m1-26q25 0 40-13t21-38 7-63q0-56-16-84t-53-28-53 28-15 84 16 85 53 29m517 26q-24 0-43-5t-31-15-19-22-6-29q0-10 4-17t12-12 20-4q1 20 8 38t21 30 38 11q34 0 53-16t19-47q0-18-8-31t-24-24-46-23q-31-13-51-28t-31-35-10-48q0-28 14-49t39-31 57-10q30 0 50 8t32 20 11 28q0 16-11 24t-28 8q0-15-6-30t-17-24-33-9q-29 0-45 15t-16 42q0 20 7 33t24 25 46 23q30 12 50 26t32 33 11 44q0 32-15 54t-43 35-65 12m292 0q-54 0-85-36t-31-101q0-70 29-106t82-35q49 0 76 30t28 89v23h-166q1 55 19 79t55 25q26 0 44-11t28-24q3 2 6 6t3 11q0 10-9 22t-29 19-50 9m-66-163h115q0-40-13-64t-42-24q-27 0-43 22t-17 66m351 158h-144v-21h1q12 0 21-3t15-10 5-23v-156q0-15-6-23t-15-9-20-2h-1v-21h77l9 49h3q6-15 14-27t20-20 34-7q28 0 41 9t13 27q0 16-11 26t-35 10q0-14-3-23t-8-12-16-4q-14 0-23 11t-15 28-8 35-3 33v78q0 15 6 22t15 9 20 3h14v21m228 0h-142v-21h7q11 0 20-3t15-9 6-22v-158q0-15-6-23t-15-9-20-2h-2v-21h90v211q0 15 5 23t15 10 21 3h6v21m-73-318q-12 0-20-7t-8-24q0-18 8-25t20-6q12 0 20 6t9 25q0 17-9 24t-20 7m248 318h-155v-21h7q11 0 20-3t15-10 6-23v-188h-46v-23h46v-25q0-45 23-69t65-23q26 0 41 4t22 12 7 19q0 9-5 15t-15 9-21 4q0-10-3-20t-10-15-20-5q-21 0-29 16t-8 48v30h70v23h-70v188q0 15 5 23t15 10 21 3h19v21m390 5q-25 0-44-5t-31-15-19-22-6-29q0-10 4-17t13-12 19-4q1 20 8 38t22 30 38 11q33 0 52-16t19-47q0-18-7-31t-24-24-46-23q-31-13-52-28t-30-35-10-48q0-28 14-49t39-31 56-10q30 0 51 8t32 20 11 28q0 16-11 24t-29 8q0-15-5-30t-18-24-33-9q-29 0-45 15t-16 42q0 20 7 33t25 25 46 23q29 12 50 26t32 33 11 44q0 32-15 54t-43 35-65 12m302-5h-142v-21h6q11 0 20-3t15-9 6-22v-158q0-15-6-23t-15-9-20-2h-1v-21h89v211q0 15 6 23t15 10 20 3h7v21m-73-318q-12 0-21-7t-8-24q0-18 8-25t21-6q11 0 20 6t8 25q0 17-8 24t-20 7m228 318h-135v-21h4q12 0 21-3t15-10 5-23v-156q0-15-5-23t-15-9-20-2h-2v-21h81l6 40h3q15-28 34-37t44-8q39 0 61 23t23 75v118q0 15 4 23t14 10 19 3h3v21h-87v-173q0-32-13-50t-42-18q-23 0-36 11t-19 30-6 40v105q0 15 6 22t14 9 20 3h3v21m317 0h-134v-21h4q11 0 20-3t15-10 6-23v-268q0-15-6-23t-15-9-20-2h-4v-21h92v110q0 9-1 18t-1 17 0 7h2q8-15 18-25t25-15 31-5q43 0 65 23t23 75v118q0 15 5 23t14 10 20 3h1v21h-87v-173q0-32-12-50t-43-18q-20 0-34 10t-20 28-6 43v105q0 15 5 22t15 9 21 3h1v21m277 5q-22 0-40-9t-28-27-10-44q0-40 28-59t86-21l42-2v-30q0-18-3-32t-13-21-31-8q-19 0-29 7t-13 19-3 28q-21 0-32-7t-11-24q0-18 12-28t33-16 45-4q46 0 69 19t23 67v130q0 14 3 21t10 11 18 4h1v21h-67l-8-43h-4q-11 14-21 24t-23 17-34 7m11-31q21 0 35-9t23-24 9-37v-40l-32 1q-29 1-45 9t-23 20-7 33q0 16 4 26t14 15 22 6m316 26h-142v-21h7q11 0 20-3t15-10 6-23v-268q0-15-6-23t-15-9-20-2h-7v-21h95v323q0 15 5 23t15 10 21 3h6v21m109 5q-22 0-40-9t-27-27-10-44q0-40 28-59t86-21l41-2v-30q0-18-3-32t-13-21-30-8q-19 0-29 7t-14 19-3 28q-21 0-32-7t-10-24q0-18 12-28t33-16 45-4q46 0 68 19t23 67v130q0 14 3 21t10 11 18 4h2v21h-68l-8-43h-4q-10 14-20 24t-24 17-34 7m12-31q20 0 35-9t23-24 8-37v-40l-32 1q-28 1-45 9t-23 20-7 33q0 16 5 26t13 15 23 6" />
</svg>