<svg id="fnt-Noto Serif Display" viewBox="0 0 4255 1000" xmlns="http://www.w3.org/2000/svg"><path id="noto-serif-display" class="f" d="M135 667h-116v-5h15q13 0 22-4t14-12 5-20v-277q0-12-5-19t-14-12-22-3h-15v-5h98l190 285v-244q0-12-4-20t-14-12-23-4h-14v-5h116v5h-15q-13 0-22 4t-14 12-5 20v316h-15l-217-326v285q0 12 4 20t14 12 23 4h14v5m390 5q-54 0-85-35t-31-105q0-70 30-104t88-34q54 0 85 34t31 104q0 71-30 105t-88 35m1-5q25 0 40-14t21-43 7-78q0-48-7-77t-21-43-40-13q-25 0-40 13t-22 43-6 77q0 49 6 78t22 43 40 14m264 5q-38 0-55-18t-17-60v-190h-38v-5q18 0 31-4t23-10q10-7 16-19t10-29h5v62h70v5h-70v209q0 26 10 39t29 13q7 0 15-2t16-4v5q-7 3-20 5t-25 3m200 0q-54 0-85-35t-31-105q0-70 29-104t88-34q54 0 85 34t31 104q0 71-30 105t-87 35m1-5q24 0 39-14t22-43 7-78q0-48-7-77t-22-43-40-13q-24 0-39 13t-22 43-7 77q0 49 7 78t22 43 40 14m385 5q-24 0-44-6t-33-14-21-22-7-27q0-12 4-20t13-11 19-4q1 32 8 54t24 34 41 11q32 0 51-19t20-55q0-23-8-37t-27-25-47-25q-16-7-32-16t-30-21-22-30-8-42q0-30 13-51t36-31 56-10q30 0 51 8t34 21 13 28q0 15-11 23t-29 8q0-41-13-62t-45-21q-19 0-34 7t-22 23-8 39q0 24 9 39t27 26 46 24q25 11 46 24t35 31 13 50q0 31-14 53t-40 34-64 12m289 0q-56 0-87-36t-31-101q0-70 29-106t82-35q48 0 76 30t28 89v12h-167q1 51 8 82t22 45 42 15q19 0 33-7t25-21 14-34q6 1 9 6t3 11q0 10-10 21t-28 20-48 9m-70-152h116q0-44-5-70t-18-39-31-12q-21 0-34 12t-19 39-9 70m345 147h-142v-5h7q15 0 24-4t13-13 4-22v-180q0-14-4-23t-13-12-24-4h-2v-5h89v50h1q4-13 11-26t21-21 38-8q25 0 38 9t14 28q0 15-11 25t-36 10q0-31-10-43t-24-12q-14 0-23 10t-12 27-5 33-1 32v108q0 15 4 24t13 13 24 4h6v5m236 0h-142v-5h6q15 0 24-4t13-13 4-22v-180q0-14-4-23t-13-12-24-4h-1v-5h89v222q0 15 4 24t13 13 24 4h7v5m-74-316q-9 0-16-7t-6-21q0-16 6-22t16-6q9 0 16 6t6 22q0 15-6 21t-16 7m248 316h-154v-5h6q15 0 24-4t13-13 4-22v-219h-45v-5h45v-25q0-45 24-69t71-23q21 0 35 4t21 12 8 19q0 9-6 15t-14 9-21 4q0-32-8-45t-25-13q-21 0-29 18t-9 64v30h71v5h-71v217q0 15 4 24t13 13 24 4h19v5m301 0h-153v-5h7q13 0 22-4t14-12 5-20v-277q0-12-5-19t-14-12-22-3h-7v-5h153q52 0 88 20t56 61 19 97q0 54-18 94t-54 63-91 22m-55-5h44q42 0 68-18t38-57 13-99q0-61-13-99t-38-56-68-18h-44v347m400 5h-142v-5h7q15 0 24-4t13-13 4-22v-180q0-14-4-23t-13-12-24-4h-2v-5h90v222q0 15 4 24t13 13 24 4h6v5m-73-316q-10 0-16-7t-6-21q0-16 6-22t16-6q9 0 15 6t7 22q0 15-7 21t-15 7m187 321q-25 0-44-6t-30-18-11-29q0-14 6-21t12-11 14-3q0 27 5 45t17 28 32 10q26 0 42-14t15-41q0-17-6-28t-20-18-38-18q-28-13-45-25t-23-25-7-33q0-34 24-53t66-18q24 0 41 6t27 17 9 23q0 14-10 22t-26 8q0-38-11-55t-32-16q-17 0-29 6t-17 16-5 26q0 18 7 28t21 18 37 17q29 12 45 23t23 26 7 34q0 39-26 59t-70 20m262 115h-135v-5h4q15 0 24-4t13-13 4-22v-300q0-14-4-23t-13-12-24-4h-6v-5h93v69h1q7-38 26-56t53-18q49 0 74 35t26 103-26 104-75 36q-32 0-51-19t-26-57h-1q0 13 0 25t0 25v95q0 14 4 23t13 14 24 4h2v5m27-123q22 0 35-13t19-43 6-76q0-47-6-76t-19-42-36-13q-24 0-39 15t-23 44-7 72q0 45 8 74t23 44 39 14m285 3h-142v-5h6q15 0 24-4t13-13 4-22v-292q0-14-4-23t-13-12-24-4h-6v-5h94v334q0 15 4 24t13 13 24 4h7v5m114 5q-38 0-61-20t-22-54q0-39 28-58t86-21l42-1v-38q0-28-3-46t-13-27-31-8q-29 0-37 18t-8 56q-21 0-32-7t-11-23q0-18 12-29t33-15 45-5q46 0 69 19t23 67v150q0 12 3 19t10 10 18 3h1v5h-75v-53h-1q-5 20-16 33t-27 19-33 6m10-7q18 0 32-10t23-25 8-35v-72l-32 2q-43 2-59 19t-16 59q0 20 4 34t15 21 25 7m183 122v-5q35 0 57-6t34-16 21-29 19-42l-110-258q-4-11-9-17t-8-8-11-2h-10v-5h120v5h-2q-14 0-22 4t-8 15q0 5 1 10t5 13l43 105q4 9 8 19t8 22 7 21 7 18q6-19 12-37t10-30l37-115q2-7 3-12t1-10q0-12-8-18t-25-5h-21v-5h104v5h-4q-12 0-20 3t-12 11-11 25l-73 226q-11 36-22 59t-26 36-36 18-55 5h-4" />
</svg>