<svg id="fnt-Noto Serif Tangut" viewBox="0 0 4413 1000" xmlns="http://www.w3.org/2000/svg"><path id="noto-serif-tangut" class="f" d="M369 311v17l-46 6v337h-16l-217-302 0 274 57 6v18h-126v-18l46-6 1-304-5-7-40-5v-16h76l203 283-1-259-57-7v-17h125m166 363q-54 0-88-38-32-36-32-94 0-74 50-111 31-22 70-22 51 0 85 37 34 37 34 96 0 74-50 110-31 22-69 22m0-20q53 0 71-56 8-24 7-56 0-80-43-105-16-8-35-9-52 0-71 55-8 25-8 59 0 87 50 107 13 5 29 5m304-17l10 12q-22 24-59 25-57-1-58-62 0-5 1-16 0-16 0-26v-132h-48v-18l50-6 12-72h27l-3 74h73v22h-74v172q1 41 32 41 17 0 37-14m158 37q-53 0-88-38-32-36-32-94 0-74 50-111 31-22 70-22 52 0 86 37 34 37 34 96 0 74-50 110-31 22-70 22m0-20q54 0 72-56 7-24 7-56 0-80-44-105-16-8-35-9-52 0-70 55-9 25-8 59 0 87 49 107 14 5 29 5m526-194l21 8q69 27 87 62 10 19 10 45 0 54-47 81-32 18-76 19-55 0-98-27-2-1-4-2l3-73h25l11 64q27 15 60 16 62 0 82-38 7-14 7-32 0-32-29-52-15-10-42-21l-20-8q-77-31-88-84-2-9-2-20 0-54 48-80 29-16 68-16 48 1 86 28l-3 69h-26l-11-62q-21-12-47-13-52 0-70 33-7 14-7 31 0 44 52 68l10 4m380 79l-175-1q1 73 48 98 19 10 43 10 45 0 76-38l10 8q-36 55-99 58-63 0-95-47-22-34-22-84 0-67 44-106 32-28 75-28 53 0 80 38 18 26 18 62 0 20-3 30m-174-19h114q24 0 26-21 1-3 0-6 0-33-25-52-17-13-38-13-37 0-59 35-15 23-18 57m299-106l5 64q19-48 55-63 12-6 24-6 24 0 35 14 2 2 3 4-1 32-28 33-15-1-31-14l-7-6q-33 22-51 71v44q0 35 1 90l45 6v16h-124v-16l40-6q1-41 1-90v-26q0-29-2-75l-43-3v-16l70-26 7 5m205-71q-20 0-28-17-2-6-2-13 0-20 18-27 6-2 12-3 22 0 29 18 3 6 3 12 0 20-19 28-6 2-13 2m21 302l38 6v16h-119v-16l42-6q1-54 1-90v-27q0-50-1-74l-45-3v-16l77-26 7 5-1 70v71q0 36 1 90m76-225l47-6q5-73 30-106 3-4 7-8 29-32 71-32 38 0 48 23 0 2 0 3-1 16-19 19-4 1-8 1-17 0-37-15l-14-11q-14 7-23 21-21 33-19 107h76v22h-75v117q0 31 1 90l50 6v16h-135v-16l46-6q1-60 1-90v-117h-47v-18m690-88h-90q-1 47-1 143v27q0 95 1 142l57 5v18h-156v-18l56-5q1-47 1-142v-27q0-96-1-143h-89l-14 72h-24l4-93h289l5 93h-25l-13-72m304 306l8 10q-17 24-43 25-33 0-43-35-1-5-1-9-33 34-57 41-12 3-25 4-43 0-61-30-9-15-9-35 0-35 36-58 19-12 50-22 38-12 65-18v-16q0-48-22-60-12-6-32-7-19 0-34 6l-11 36q-6 21-24 21-18 0-21-16 0-1 0-2 11-42 57-58 20-6 43-6 60 0 75 44 6 18 6 44v116q1 36 21 37 11-1 22-12m-80-27v-84q-34 9-55 17-52 20-56 51 0 4 0 7 0 37 34 42 5 1 11 1 20 0 46-19 8-6 20-15m359 34l39 6v16h-120v-16l42-6q1-53 1-90v-48q0-54-26-65-9-3-20-3-38 1-80 39v77q0 36 1 90l38 6v16h-119v-16l41-6q2-41 2-90v-26q0-29-2-75l-44-3v-16l71-26 6 5 4 45q39-43 86-49 6-1 12-1 50 0 62 50 5 19 5 46v50q0 50 1 90m316-230v29l-56-1q15 21 15 53 0 52-41 75-23 12-52 12-22 0-41-7-16 22-16 38 1 26 35 26h72q80 1 81 65 0 40-37 66-35 24-90 24-86 0-105-44-5-11-5-23 1-35 52-60-34-10-35-39 1-26 36-58-40-23-41-75 0-52 43-75 22-12 52-12 38 0 64 19l60-19 9 6m-135 151q37 0 51-35 7-16 7-36 0-46-29-62-12-7-27-6-37 0-51 33-7 16-7 36 0 46 29 63 13 7 27 7m45 107h-63q-14 0-26-1-24 24-24 50 0 43 51 51 10 2 22 2 63 0 85-32 8-13 8-27 0-37-41-42-6-1-12-1m356-28l38 6v16l-70 4-3-49q-42 51-96 52-54 0-66-56-3-18-3-41l1-136-40-7v-15l73-7 5 6-2 74v82q0 56 29 66 8 2 18 2 42 0 80-39l1-162-41-7v-15l73-7 5 6-2 74v153m217-8l10 12q-22 24-58 25-57-1-58-62 0-5 0-16 1-16 0-26v-132h-47v-18l49-6 12-72h27l-3 74h73v22h-73v172q0 41 31 41 18 0 37-14" />
</svg>