<svg id="fnt-Noto Serif Ahom" viewBox="0 0 3892 1000" xmlns="http://www.w3.org/2000/svg"><path id="noto-serif-ahom" class="f" d="M145 667h-126v-21h7q17 0 29-7t12-29v-245q0-22-13-28t-28-6h-7v-21h92l179 276v-221q0-22-13-28t-28-6h-7v-21h126v21h-7q-17 0-29 6t-12 30v300h-35l-188-288v231q0 23 12 29t29 7h7v21m380 5q-54 0-85-35t-31-105q0-70 30-104t88-34q54 0 85 34t31 104q0 71-30 105t-88 35m1-26q38 0 53-29t15-85-15-84-53-28-53 28-15 84 15 85 53 29m264 26q-38 0-55-18t-17-60v-167h-38v-20q9 0 20-4t19-12q8-9 14-22t9-32h23v62h65v28h-65v169q0 25 10 37t28 12q9 0 16-1t16-2v22q-7 3-20 5t-25 3m200 0q-54 0-85-35t-31-105q0-70 29-104t88-34q54 0 85 34t31 104q0 71-30 105t-87 35m1-26q37 0 52-29t16-85-16-84-53-28-53 28-15 84 16 85 53 29m377 26q-49 0-74-20t-25-51q0-15 9-24t27-9q1 20 8 38t21 30 38 11q34 0 53-16t19-47q0-18-8-31t-24-24-46-23q-46-19-69-44t-23-67q0-28 14-49t39-31 57-10q44 0 69 17t24 39q0 16-11 24t-28 8q0-15-6-30t-17-24-33-9q-29 0-45 15t-16 42q0 20 7 33t24 25 46 23q44 18 69 41t24 62q0 48-33 74t-90 27m292 0q-54 0-85-36t-31-101q0-70 29-106t82-35q49 0 76 30t28 89v23h-166q1 55 19 79t55 25q26 0 44-11t28-24q3 2 6 6t3 11q0 10-9 22t-29 19-50 9m-66-163h115q0-40-13-64t-42-24q-27 0-43 22t-17 66m351 158h-144v-21h1q17 0 29-7t12-29v-156q0-22-12-28t-29-6h-1v-21h77l9 49h3q6-15 14-27t20-20 34-7q28 0 41 9t13 27q0 16-11 26t-35 10q0-21-6-30t-21-9q-14 0-23 11t-15 28-8 35-3 33v78q0 22 12 28t29 6h14v21m155-318q-12 0-20-7t-8-24q0-18 8-25t20-6q12 0 20 6t9 25q0 17-9 24t-20 7m73 318h-142v-21h7q16 0 28-6t13-28v-158q0-22-13-28t-28-6h-2v-21h90v211q0 23 12 29t29 7h6v21m175 0h-155v-21h7q17 0 29-7t12-29v-188h-46v-23h46v-25q0-45 23-69t65-23q39 0 55 9t15 26q0 13-11 20t-30 8q0-15-7-28t-26-12q-21 0-29 16t-8 48v30h70v23h-70v188q0 23 12 29t29 7h19v21m248 0h-122v-21h10q14 0 21-8t17-31l111-297h39l113 309q5 16 13 21t22 6h7v21h-138v-21h12q30 0 30-24 0-4-1-9t-3-10l-20-56h-132l-19 53q-4 12-4 21 0 25 33 25h11v21m23-237l-34 92h113l-31-87q-8-22-15-42t-10-37q-4 18-9 34t-14 40m351 237h-134v-21h4q17 0 29-7t12-29v-268q0-22-13-28t-28-6h-4v-21h92v110q0 9-1 18t-1 17 0 7h2q23-45 74-45 43 0 65 23t23 75v118q0 23 11 29t28 7h1v21h-87v-173q0-32-12-50t-43-18q-31 0-46 22t-14 59v105q0 22 12 28t29 6h1v21m318 5q-54 0-85-35t-31-105q0-70 29-104t88-34q54 0 85 34t31 104q0 71-30 105t-87 35m1-26q37 0 52-29t16-85-16-84-53-28-53 28-15 84 16 85 53 29m292 21h-134v-21h6q17 0 28-7t11-29v-156q0-22-11-28t-28-6h-1v-21h78l7 40h2q15-28 34-37t42-8q24 0 43 10t29 35h4q15-28 35-37t44-8q38 0 60 23t21 75v118q0 23 11 29t28 7h1v21h-87v-173q0-32-12-50t-40-18q-21 0-33 10t-18 27-5 37v110q0 23 11 29t28 7h1v21h-87v-173q0-32-12-50t-40-18q-22 0-35 11t-18 30-5 40v105q0 22 12 28t29 6h1v21" />
</svg>