<svg id="fnt-Noto Sans Adlam" viewBox="0 0 3984 1000" xmlns="http://www.w3.org/2000/svg"><path id="noto-sans-adlam" class="f" d="M332 310v357h-53l-191-297h-2q1 18 3 44t1 53v200h-41v-357h52l190 295h2q0-8-1-24t-2-35 0-35v-201h42m324 222q0 67-34 103t-91 37q-36 0-64-17t-43-47-16-76q0-66 33-102t91-36q37 0 64 16t44 47 16 75m-203 0q0 48 19 75t60 28q40 0 59-28t19-75-19-74-60-27-59 27-19 74m362 104q10 0 20-2t17-4v34q-7 3-20 5t-25 3q-21 0-39-8t-28-25-11-50v-156h-38v-21l38-18 18-57h26v62h77v34h-77v155q0 24 11 36t31 12m324-104q0 67-34 103t-91 37q-36 0-64-17t-43-47-16-76q0-66 33-102t91-36q37 0 64 16t44 47 16 75m-203 0q0 48 19 75t60 28q40 0 59-28t19-75-19-74-60-27-59 27-19 74m606 39q0 48-35 74t-93 27q-30 0-55-5t-43-12v-43q18 8 45 14t55 7q40 0 60-16t21-42q0-17-8-29t-26-23-50-21q-23-9-41-19t-28-22-18-28-5-37q0-29 14-49t40-31 60-11q29 0 54 5t44 15l-14 38q-18-8-40-13t-45-6q-34 0-51 14t-17 38q0 18 8 30t24 22 46 20q32 12 53 25t33 32 12 46m167-177q49 0 73 22t23 68v183h-32l-8-38h-2q-18 22-37 32t-53 11q-37 0-61-20t-24-60q0-40 32-62t97-23l45-2v-16q0-33-14-46t-41-13q-21 0-40 6t-36 14l-13-33q17-9 41-16t50-7m53 142l-40 1q-50 2-69 16t-19 40q0 22 13 33t36 10q34 0 56-19t23-57v-24m255-142q48 0 73 23t24 75v175h-43v-172q0-32-15-48t-45-16q-45 0-62 25t-17 72v139h-44v-268h36l6 36h3q13-21 36-31t48-10m355 199q0 39-29 59t-78 20q-28 0-49-5t-35-12v-40q16 8 38 14t47 7q33 0 48-11t15-28q0-10-5-18t-20-16-41-18q-26-10-44-20t-29-24-10-36q0-34 28-53t73-18q24 0 45 4t40 14l-15 35q-17-7-35-12t-38-5q-27 0-42 8t-14 24q0 11 7 19t21 15 41 17q26 10 44 20t27 24 10 36m466 74h-46l-43-111h-142l-42 111h-46l140-359h40l139 359m-103-151l-40-108q-1-4-5-14t-7-22-5-17q-2 10-5 20t-6 19-4 14l-41 108h113m241 156q-50 0-80-35t-30-104 30-104 81-35q31 0 50 11t33 28h3q-1-6-2-19t-1-20v-107h44v380h-36l-6-36h-2q-12 17-32 29t-52 12m7-37q43 0 60-23t17-70v-8q0-50-16-77t-61-27q-36 0-54 28t-17 76q0 48 17 75t54 26m250-348v380h-44v-380h44m186 107q49 0 73 22t23 68v183h-32l-8-38h-2q-18 22-37 32t-53 11q-37 0-61-20t-24-60q0-40 32-62t97-23l45-2v-16q0-33-14-46t-41-13q-21 0-40 6t-36 14l-13-33q17-9 41-16t50-7m53 142l-40 1q-50 2-69 16t-19 40q0 22 13 33t36 10q34 0 56-19t23-57v-24m420-142q46 0 68 23t23 75v175h-44v-173q0-63-54-63-39 0-56 22t-17 66v148h-43v-173q0-63-55-63-41 0-56 25t-16 72v139h-44v-268h36l6 36h3q12-21 33-31t46-10q31 0 51 11t31 34h2q14-23 37-34t49-11" />
</svg>