<svg id="fnt-Noto Sans Telugu" viewBox="0 0 4125 1000" xmlns="http://www.w3.org/2000/svg"><path id="noto-sans-telugu" class="f" d="M332 310v357h-53l-191-297h-2q1 12 2 27t1 34 1 36v200h-41v-357h52l190 295h2q0-8-1-24t-2-35 0-35v-201h42m324 222q0 34-9 59t-25 44-40 27-51 10q-27 0-49-10t-39-27-26-44-9-59q0-44 15-75t43-47 66-16q37 0 64 16t44 47 16 75m-203 0q0 32 8 55t26 36 45 12 44-12 26-36 8-55q0-32-8-54t-26-35-45-12q-41 0-59 27t-19 74m362 104q10 0 20-2t17-4v34q-7 3-20 5t-25 3q-21 0-39-8t-28-25-11-50v-156h-38v-21l38-18 18-57h26v62h77v34h-77v155q0 24 11 36t31 12m324-104q0 34-9 59t-25 44-40 27-51 10q-27 0-49-10t-39-27-26-44-9-59q0-44 15-75t43-47 66-16q37 0 64 16t44 47 16 75m-203 0q0 32 8 55t26 36 45 12 44-12 26-36 8-55q0-32-8-54t-26-35-45-12q-41 0-59 27t-19 74m622 39q0 32-15 54t-45 35-67 12q-20 0-39-2t-33-6-26-9v-43q18 8 44 14t56 7q26 0 44-7t27-20 9-31-7-29-26-23-51-21q-23-9-40-19t-29-22-17-28-6-37q0-29 15-49t40-31 59-11q30 0 54 5t45 15l-14 38q-19-8-41-13t-45-6q-22 0-37 7t-23 18-7 27q0 18 7 30t25 22 46 20q31 12 53 25t33 32 11 46m168-177q49 0 72 22t24 68v183h-32l-9-38h-2q-11 14-24 24t-28 14-38 5q-24 0-43-9t-30-26-11-45q0-40 31-62t97-23l46-2v-16q0-33-15-46t-41-13q-21 0-40 6t-35 14l-14-33q18-9 42-16t50-7m52 142l-39 1q-50 2-70 16t-19 40q0 22 14 33t35 10q34 0 57-19t22-57v-24m256-142q48 0 72 23t25 75v175h-44v-172q0-32-14-48t-46-16q-44 0-61 25t-17 72v139h-44v-268h35l7 36h2q9-14 22-23t30-14 33-4m354 199q0 26-13 43t-37 27-57 9q-28 0-48-5t-36-12v-40q16 8 39 14t46 7q34 0 49-11t15-28q0-10-6-18t-20-16-40-18q-26-10-45-20t-28-24-10-36q0-34 27-53t73-18q25 0 46 4t40 14l-15 35q-17-7-36-12t-38-5q-27 0-41 8t-14 24q0 11 6 19t22 15 41 17q25 10 43 20t28 24 9 36m326-244v318h-45v-318h-112v-39h268v39h-111m262 45q35 0 59 15t38 42 14 64v26h-184q1 46 23 69t63 24q25 0 45-5t41-13v38q-21 9-41 13t-47 5q-38 0-68-16t-45-46-16-75q0-44 14-76t42-48 62-17m0 36q-32 0-50 20t-22 56h137q0-23-7-40t-22-27-36-9m223-143v380h-44v-380h44m265 112h44v268h-36l-7-36h-2q-8 14-22 23t-29 13-34 5q-32 0-54-11t-32-31-11-56v-175h44v172q0 32 15 48t45 16q30 0 47-11t24-33 8-53v-139m224-5q26 0 47 10t37 30h2l6-35h35v272q0 38-13 64t-39 39-68 13q-29 0-53-5t-43-12v-41q19 10 44 16t55 5q34 0 54-20t20-55v-11q0-6 0-17t1-16h-2q-14 21-35 31t-48 10q-52 0-81-37t-29-102q0-64 29-102t81-37m6 37q-23 0-39 12t-24 35-8 56q0 49 18 75t54 27q20 0 35-6t24-16 14-29 4-41v-11q0-36-8-59t-26-33-44-10m386-32h44v268h-36l-6-36h-2q-9 14-22 23t-30 13-33 5q-32 0-54-11t-33-31-11-56v-175h45v172q0 32 14 48t45 16q30 0 47-11t25-33 7-53v-139" />
</svg>