<svg id="fnt-Noto Sans Ethiopic" viewBox="0 0 4389 1000" xmlns="http://www.w3.org/2000/svg"><path id="noto-sans-ethiopic" class="f" d="M332 310v357h-53l-191-297h-2q1 12 2 27t1 34 1 36v200h-41v-357h52l190 295h2q0-8-1-24t-2-35 0-35v-201h42m324 222q0 34-9 59t-25 44-40 27-51 10q-27 0-49-10t-39-27-26-44-9-59q0-44 15-75t43-47 66-16q37 0 64 16t44 47 16 75m-203 0q0 32 8 55t26 36 45 12 44-12 26-36 8-55q0-32-8-54t-26-35-45-12q-41 0-59 27t-19 74m362 104q10 0 20-2t17-4v34q-7 3-20 5t-25 3q-21 0-39-8t-28-25-11-50v-156h-38v-21l38-18 18-57h26v62h77v34h-77v155q0 24 11 36t31 12m324-104q0 34-9 59t-25 44-40 27-51 10q-27 0-49-10t-39-27-26-44-9-59q0-44 15-75t43-47 66-16q37 0 64 16t44 47 16 75m-203 0q0 32 8 55t26 36 45 12 44-12 26-36 8-55q0-32-8-54t-26-35-45-12q-41 0-59 27t-19 74m611 39q0 32-16 54t-44 35-68 12q-20 0-38-2t-33-6-27-9v-43q18 8 45 14t55 7q27 0 45-7t27-20 9-31-8-29-26-23-50-21q-23-9-41-19t-28-22-18-28-5-37q0-29 14-49t40-31 60-11q29 0 54 5t44 15l-14 38q-18-8-40-13t-45-6q-23 0-38 7t-22 18-8 27q0 18 8 30t24 22 46 20q32 12 53 25t33 32 12 46m167-177q49 0 73 22t23 68v183h-32l-8-38h-2q-12 14-24 24t-28 14-38 5q-24 0-44-9t-30-26-11-45q0-40 32-62t97-23l45-2v-16q0-33-14-46t-41-13q-21 0-40 6t-36 14l-13-33q17-9 41-16t50-7m53 142l-40 1q-50 2-69 16t-19 40q0 22 13 33t36 10q34 0 56-19t23-57v-24m255-142q48 0 73 23t24 75v175h-43v-172q0-32-15-48t-45-16q-45 0-62 25t-17 72v139h-44v-268h36l6 36h3q9-14 22-23t29-14 33-4m355 199q0 26-13 43t-37 27-57 9q-28 0-49-5t-35-12v-40q16 8 38 14t47 7q33 0 48-11t15-28q0-10-5-18t-20-16-41-18q-26-10-44-20t-29-24-10-36q0-34 28-53t73-18q24 0 45 4t40 14l-15 35q-17-7-35-12t-38-5q-27 0-42 8t-14 24q0 11 7 19t21 15 41 17q26 10 44 20t27 24 10 36m400 34v40h-199v-357h199v39h-154v112h145v39h-145v127h154m162 9q10 0 21-2t17-4v34q-7 3-20 5t-25 3q-21 0-39-8t-29-25-11-50v-156h-38v-21l39-18 17-57h26v62h78v34h-78v155q0 24 12 36t30 12m135-349v111q0 10-1 20t-1 18h3q8-14 21-23t29-14 33-5q33 0 54 10t33 32 11 56v175h-43v-172q0-32-15-48t-45-16q-30 0-47 11t-25 33-7 53v139h-44v-380h44m265 112h44v268h-44v-268m23-101q10 0 17 7t8 21q0 14-8 21t-17 7q-11 0-19-7t-7-21q0-14 7-21t19-7m339 234q0 34-9 59t-25 44-39 27-52 10q-26 0-49-10t-39-27-26-44-9-59q0-44 15-75t43-47 67-16q36 0 64 16t43 47 16 75m-202 0q0 32 8 55t26 36 44 12 45-12 25-36 9-55q0-32-9-54t-26-35-44-12q-41 0-60 27t-18 74m399-138q50 0 80 34t30 104q0 46-14 77t-38 47-58 16q-21 0-37-6t-27-14-19-19h-3q1 8 2 21t1 23v110h-44v-388h36l6 36h2q8-11 19-21t27-15 37-5m-8 37q-27 0-43 10t-24 31-8 52v8q0 33 7 56t23 35 46 12q25 0 40-13t24-37 8-53q0-46-18-74t-55-27m188-32h44v268h-44v-268m23-101q10 0 17 7t8 21q0 14-8 21t-17 7q-11 0-19-7t-7-21q0-14 7-21t19-7m214 374q-36 0-64-15t-43-45-16-78q0-49 17-80t44-46 65-14q20 0 39 4t31 10l-13 37q-12-5-28-9t-30-4q-27 0-45 12t-26 34-8 56q0 32 8 54t26 34 42 12q22 0 39-5t31-11v39q-14 7-30 11t-39 4" />
</svg>