<svg id="fnt-Noto Sans KR" viewBox="0 0 3106 1000" xmlns="http://www.w3.org/2000/svg"><path id="noto-sans-kr" class="f" d="M94 667h-43v-367h47l134 231 39 76h3q-3-28-5-58t-2-58v-191h44v367h-47l-134-232-39-75h-2q1 28 3 56t2 58v193m419 6q-33 0-62-17t-46-48-17-77q0-45 17-77t46-49 62-17q25 0 48 10t40 28 28 45 10 60q0 45-18 77t-46 48-62 17m0-38q24 0 41-13t28-36 10-55q0-31-10-55t-28-36-41-13-41 13-28 36-9 55q0 31 9 55t28 36 41 13m272 38q-29 0-46-11t-24-32-7-47v-151h-41v-34l43-3 5-76h38v76h74v37h-74v152q0 25 9 38t33 14q8 0 16-2t15-5l9 34q-11 4-24 7t-26 3m200 0q-33 0-62-17t-47-48-17-77q0-45 17-77t47-49 62-17q25 0 47 10t41 28 27 45 10 60q0 45-17 77t-46 48-62 17m0-38q23 0 41-13t28-36 10-55q0-31-10-55t-28-36-41-13-42 13-27 36-10 55q0 31 10 55t27 36 42 13m415 38q-39 0-72-14t-56-40l28-32q19 21 46 33t55 13q36 0 56-17t21-43q0-19-9-31t-22-19-31-15l-52-23q-17-8-35-19t-28-30-12-45q0-29 15-51t41-34 60-12q33 0 60 12t47 33l-24 29q-17-15-37-25t-46-9q-31 0-50 14t-19 39q0 18 9 30t24 18 28 14l52 22q21 9 38 22t28 31 10 45q0 29-15 53t-43 37-67 14m255 0q-23 0-41-9t-28-26-10-42q0-44 39-68t127-33q0-18-5-34t-16-25-35-10q-23 0-44 9t-37 20l-18-31q13-8 29-17t36-13 42-6q33 0 53 14t31 39 10 59v167h-38l-4-33h-1q-19 16-42 28t-48 11m13-37q19 0 37-9t37-26v-76q-45 5-72 14t-39 23-11 31q0 24 14 33t34 10m252 31h-46v-272h37l5 40h1q19-20 41-33t50-14q43 0 63 27t20 80v172h-46v-166q0-39-12-56t-39-17q-21 0-38 11t-36 31v197m330 6q-29 0-56-11t-45-26l22-31q18 15 37 24t43 9q27 0 40-13t14-30q0-14-10-23t-23-16-29-12q-19-8-38-17t-30-24-11-38q0-22 11-39t32-28 50-10q25 0 47 9t37 22l-22 29q-14-10-29-17t-32-7q-26 0-39 11t-12 28q0 13 8 21t22 14 29 12q15 6 29 12t27 16 19 22 7 33q0 22-11 40t-33 29-54 11m325-6h-46v-367h46v184h1l154-184h52l-115 139 133 228h-52l-110-191-63 75v116m323 0h-46v-367h115q37 0 66 10t45 32 17 61q0 36-17 60t-45 36-66 12h-69v156m0-329v136h62q43 0 66-18t23-53-23-51-66-14h-62m207 329h-52l-96-168 37-24 111 192" />
</svg>