<svg id="fnt-Noto Sans Arabic" viewBox="0 0 3997 1000" xmlns="http://www.w3.org/2000/svg"><path id="noto-sans-arabic" class="f" d="M332 310v357h-53l-191-297h-2q1 12 2 27t1 34 1 36v200h-41v-357h52l190 295h2q0-8-1-24t-2-35 0-35v-201h42m324 222q0 34-9 60t-25 43-40 27-51 10q-27 0-49-10t-39-27-26-43-9-60q0-44 15-75t43-47 66-16q36 0 64 16t44 47 16 75m-203 0q0 32 8 55t26 36 45 12 44-12 26-36 8-55-8-54-26-35-45-12q-41 0-59 27t-19 74m362 104q10 0 20-2t17-4v34q-7 3-20 5t-25 3q-21 0-39-8t-28-25-11-50v-156h-38v-21l38-18 18-57h26v62h77v34h-77v155q0 24 11 36t31 12m324-104q0 34-9 60t-25 43-40 27-51 10q-27 0-49-10t-39-27-26-43-9-60q0-44 15-75t43-47 66-16q36 0 64 16t44 47 16 75m-203 0q0 32 8 55t26 36 45 12 44-12 26-36 8-55-8-54-26-35-45-12q-41 0-59 27t-19 74m611 39q0 32-16 54t-44 35-68 12q-20 0-38-2t-33-6-27-9v-43q18 8 45 14t55 7q27 0 45-7t27-20 9-31-8-29-26-22-50-22q-23-8-41-18t-28-23-18-28-5-37q0-28 14-49t40-31 60-11q29 0 53 5t45 15l-14 38q-18-8-40-13t-45-6q-23 0-38 7t-22 18-8 27q0 18 8 30t24 22 46 20q32 12 53 25t33 32 12 46m167-177q49 0 73 22t23 68v183h-32l-8-38h-2q-12 15-24 24t-28 14-38 5q-25 0-44-9t-30-26-11-45q0-40 32-62t97-23l45-2v-16q0-33-14-46t-41-13q-21 0-40 6t-36 14l-13-33q17-9 41-16t50-7m53 166v-24l-40 1q-50 2-69 16t-19 40q0 22 13 33t36 10q33 0 56-19t23-57m255-166q48 0 73 23t24 75v175h-43v-172q0-32-15-48t-45-16q-45 0-62 25t-17 72v139h-44v-268h36l6 36h3q9-14 22-23t29-14 33-4m355 199q0 26-13 43t-37 27-57 9q-28 0-49-5t-35-12v-40q16 8 38 14t47 7q33 0 48-11t15-28q0-10-5-18t-20-16-41-18q-26-10-44-20t-29-24-10-36q0-34 28-53t73-18q24 0 45 5t40 13l-15 35q-17-7-35-12t-38-5q-27 0-42 8t-14 24q0 12 7 19t21 15 41 17 44 20 27 24 10 36m471 74h-46l-43-111h-142l-42 111h-46l140-359h40l139 359m-216-151h113l-40-108q-1-4-5-14t-7-22-5-17q-2 10-5 20t-6 19-4 14l-41 108m384-122q8 0 16 0t16 3l-6 40q-6-1-14-2t-15-1q-15 0-29 6t-25 18-18 29-6 37v143h-44v-268h36l5 49h2q9-15 21-28t27-19 34-7m183 0q49 0 73 22t23 68v183h-32l-8-38h-2q-12 15-24 24t-28 14-38 5q-25 0-44-9t-30-26-11-45q0-40 32-62t97-23l45-2v-16q0-33-14-46t-41-13q-21 0-40 6t-36 14l-13-33q17-9 41-16t50-7m53 166v-24l-40 1q-50 2-69 16t-19 40q0 22 13 33t36 10q33 0 56-19t23-57m126-273h44v92q0 17-1 32t-1 23h2q12-17 32-28t51-12q50 0 80 35t31 104q0 46-14 77t-39 46-58 16q-31 0-51-12t-32-27h-3l-9 34h-32v-380m120 144q-29 0-45 10t-24 33-7 57v2q0 50 16 76t61 26q36 0 53-26t18-77q0-50-18-76t-54-25m188-32h44v268h-44v-268m22-101q10 0 18 7t8 21-8 21-18 7q-11 0-18-7t-8-21 8-21 18-7m214 374q-36 0-63-15t-44-45-15-78q0-49 16-80t45-46 64-14q20 0 39 4t32 10l-14 37q-12-5-28-9t-30-4q-27 0-44 12t-26 34-9 56q0 32 9 54t25 34 43 12q21 0 38-5t31-11v39q-13 7-30 11t-39 4" />
</svg>