<svg id="fnt-Noto Serif NP Hmong" viewBox="0 0 5072 1000" xmlns="http://www.w3.org/2000/svg"><path id="noto-serif-np-hmong" class="f" d="M145 667h-126v-21h7q17 0 29-7t12-29v-245q0-22-13-28t-28-6h-7v-21h92l179 276v-221q0-22-13-28t-28-6h-7v-21h126v21h-7q-17 0-29 6t-12 30v300h-35l-188-288v231q0 23 12 29t29 7h7v21m380 5q-54 0-85-35t-31-105q0-70 30-104t88-34q54 0 85 34t31 104q0 71-30 105t-88 35m1-26q38 0 53-29t15-85-15-84-53-28-53 28-15 84 15 85 53 29m264 26q-38 0-55-18t-17-60v-167h-38v-20q9 0 20-4t19-12q8-9 14-22t9-32h23v62h65v28h-65v169q0 25 10 37t28 12q9 0 16-1t16-2v22q-7 3-20 5t-25 3m200 0q-54 0-85-35t-31-105q0-70 29-104t88-34q54 0 85 34t31 104q0 71-30 105t-87 35m1-26q37 0 52-29t16-85-16-84-53-28-53 28-15 84 16 85 53 29m397 26q-32 0-55-9t-33-25-11-37q0-10 4-17t12-12 20-4q1 20 8 38t21 30 38 11q34 0 53-16t19-47q0-18-8-31t-24-24-46-23q-31-13-51-28t-31-35-10-48q0-28 14-49t39-31 57-10q44 0 69 17t24 39q0 16-11 24t-28 8q0-15-6-30t-17-24-33-9q-29 0-45 15t-16 42q0 20 7 33t24 25 46 23q44 18 69 41t24 62q0 32-15 54t-43 35-65 12m292 0q-54 0-85-36t-31-101q0-70 29-106t82-35q49 0 76 30t28 89v23h-166q1 55 19 79t55 25q26 0 44-11t28-24q3 2 6 6t3 11q0 10-9 22t-29 19-50 9m-66-163h115q0-40-13-64t-42-24q-27 0-43 22t-17 66m351 158h-144v-21h1q17 0 29-7t12-29v-156q0-22-12-28t-29-6h-1v-21h77l9 49h3q6-15 14-27t20-20 34-7q28 0 41 9t13 27q0 16-11 26t-35 10q0-21-6-30t-21-9q-14 0-23 11t-15 28-8 35-3 33v78q0 22 12 28t29 6h14v21m228 0h-142v-21h7q11 0 20-3t15-9 6-22v-158q0-15-6-23t-15-9-20-2h-2v-21h90v211q0 15 5 23t15 10 21 3h6v21m-73-318q-12 0-20-7t-8-24q0-18 8-25t20-6q12 0 20 6t9 25q0 17-9 24t-20 7m248 318h-155v-21h7q11 0 20-3t15-10 6-23v-188h-46v-23h46v-25q0-45 23-69t65-23q26 0 41 4t22 12 7 19q0 13-11 20t-30 8q0-10-3-20t-10-15-20-5q-21 0-29 16t-8 48v30h70v23h-70v188q0 15 5 23t15 10 21 3h19v21m291 0h-126v-21h7q17 0 29-7t12-29v-245q0-22-13-28t-28-6h-7v-21h92l179 276v-221q0-22-13-28t-28-6h-7v-21h126v21h-7q-17 0-29 6t-12 30v300h-35l-188-288v231q0 23 12 29t29 7h7v21m411 0h-155v-21h6q17 0 29-7t12-29v-245q0-22-12-28t-29-6h-6v-21h140q63 0 93 27t30 77q0 30-13 56t-42 42-79 16h-31v84q0 22 12 28t29 6h16v21m-57-163h26q46 0 65-20t20-68q0-42-17-62t-60-20h-34v170m479 163h-145v-21h6q17 0 29-7t12-29v-245q0-22-12-28t-29-6h-6v-21h145v21h-6q-17 0-29 6t-12 30v101h162v-101q0-24-12-30t-29-6h-6v-21h145v21h-6q-17 0-29 6t-12 30v245q0 22 12 28t29 6h6v21h-145v-21h6q17 0 29-7t12-29v-117h-162v117q0 23 12 29t29 7h6v21m381 0h-135v-21h7q17 0 27-7t11-29v-156q0-22-11-28t-27-6h-2v-21h79l6 40h3q10-19 21-29t25-13 29-3q24 0 44 10t29 35h4q10-19 22-29t26-13 30-3q39 0 60 23t22 75v118q0 23 10 29t28 7h2v21h-87v-173q0-32-12-50t-41-18q-20 0-33 10t-17 27-5 37v110q0 23 10 29t28 7h2v21h-87v-173q0-32-12-50t-41-18q-21 0-34 11t-18 30-6 40v105q0 22 12 28t29 6h2v21m467 5q-54 0-85-35t-31-105q0-70 30-104t88-34q54 0 85 34t31 104q0 71-30 105t-88 35m1-26q38 0 53-29t15-85-15-84-53-28-53 28-15 84 15 85 53 29m293 21h-135v-21h4q17 0 29-7t12-29v-156q0-22-12-28t-28-6h-2v-21h81l6 40h3q10-19 22-29t26-13 30-3q39 0 61 23t23 75v118q0 23 10 29t27 7h3v21h-87v-173q0-32-13-50t-42-18q-23 0-36 11t-19 30-6 40v105q0 22 12 28t28 6h3v21m289 120q-52 0-78-20t-26-53q0-30 19-45t44-19q-10-5-19-15t-9-26q0-15 8-26t25-21q-22-9-34-30t-11-46q0-43 23-68t71-24q18 0 34 5t23 11q7-8 19-17t29-10q15 0 22 8t8 18-7 18-20 8q0-5-3-11t-13-6q-12 0-22 6 9 11 14 25t6 36q0 37-23 61t-67 25q-6 0-14-1t-13-2q-9 5-16 13t-7 19q0 9 5 14t26 5h56q45 0 64 21t19 53q0 43-33 68t-100 26m1-25q36 0 56-8t27-21 8-31q0-23-13-31t-38-8h-49q-14 0-27 4t-20 14-8 30q0 14 5 26t20 18 39 7m10-215q25 0 35-15t10-48q0-34-11-50t-34-16q-24 0-35 17t-10 50q0 32 10 47t35 15" />
</svg>