<svg id="fnt-Noto Kufi Arabic" viewBox="0 0 3883 1000" xmlns="http://www.w3.org/2000/svg"><path id="noto-kufi-arabic" class="f" d="M332 310v357h-53l-191-297h-2q1 12 2 27t1 34 1 36v200h-41v-357h52l190 295h2q0-8-1-24t-2-35 0-35v-201h42m324 222q0 45-16 76t-43 47-66 17q-36 0-64-17t-43-47-16-76q0-66 33-102t91-36q37 0 64 16t44 47 16 75m-203 0q0 32 8 55t26 36 45 12 44-12 26-36 8-55q0-32-8-54t-26-35-45-12q-41 0-59 27t-19 74m362 104q10 0 20-2t17-4v34q-7 3-20 5t-25 3q-21 0-39-8t-28-25-11-50v-156h-38v-21l38-18 18-57h26v62h77v34h-77v155q0 24 11 36t31 12m324-104q0 45-16 76t-43 47-66 17q-36 0-64-17t-43-47-16-76q0-66 33-102t91-36q37 0 64 16t44 47 16 75m-203 0q0 32 8 55t26 36 45 12 44-12 26-36 8-55q0-32-8-54t-26-35-45-12q-41 0-59 27t-19 74m562-67l147 202h-53l-126-171-37 32v139h-45v-357h45v176q15-17 31-34t31-34l96-108h53l-142 155m370-66h44v268h-36l-7-36h-2q-8 14-22 23t-29 13-34 5q-32 0-54-11t-32-31-11-56v-175h44v172q0 32 15 48t45 16q44 0 61-25t18-72v-139m252 0v34h-67v234h-44v-234h-47v-21l47-15v-15q0-35 10-56t30-32 47-10q16 0 29 3t23 6l-12 35q-8-3-18-5t-22-3q-22 0-33 15t-10 46v18h67m49 0h44v268h-44v-268m22-101q10 0 18 7t8 21q0 14-8 21t-18 7q-11 0-18-7t-8-21q0-14 8-21t18-7m553 369h-46l-43-111h-142l-42 111h-46l140-359h40l139 359m-103-151l-40-108q-1-4-5-14t-7-22-5-17q-2 10-5 20t-6 19-4 14l-41 108h113m271-122q8 0 16 0t16 3l-6 40q-6-1-14-2t-15-1q-20 0-38 11t-29 31-11 48v143h-44v-268h36l5 49h2q13-22 34-38t48-16m173 0q49 0 73 22t23 68v183h-32l-8-38h-2q-12 14-24 24t-28 14-38 5q-37 0-61-20t-24-60q0-40 32-62t97-23l45-2v-16q0-33-14-46t-41-13q-21 0-40 6t-36 14l-13-33q17-9 41-16t50-7m53 142l-40 1q-50 2-69 16t-19 40q0 22 13 33t36 10q34 0 56-19t23-57v-24m170-249v92q0 17-1 32t-1 23h2q12-17 32-28t51-12q50 0 80 35t31 104q0 46-14 77t-39 46-58 16q-31 0-51-12t-32-27h-3l-9 34h-32v-380h44m76 144q-43 0-59 24t-17 76v2q0 50 16 76t61 26q36 0 53-26t18-77q0-50-18-76t-54-25m188-32h44v268h-44v-268m22-101q10 0 18 7t8 21q0 14-8 21t-18 7q-11 0-18-7t-8-21q0-14 8-21t18-7m214 374q-35 0-63-15t-44-45-15-78q0-49 16-80t45-46 64-14q21 0 40 4t31 10l-14 37q-12-5-28-9t-30-4q-27 0-44 12t-26 34-9 56q0 32 9 54t25 34 43 12q22 0 38-5t31-11v39q-13 7-30 11t-39 4" />
</svg>