<svg id="fnt-Nova Mono" viewBox="0 0 2480 1000" xmlns="http://www.w3.org/2000/svg"><path id="nova-mono" class="f" d="M69 650l-39 17v-261q0-45 33-76t77-32 78 32 32 76v244l-39 17v-261q0-30-21-50-21-21-50-21-29 0-50 21-21 20-21 49 0 0 0 1v244m299-164v88q0 23 17 38 16 15 37 15 21 0 36-15 16-15 16-38v-88q0-23-16-38-15-15-39-15-20 0-35 15-16 15-16 36v2m-39 89v-90q0-38 27-65t65-27 65 27 27 65v90q0 38-27 65t-65 27-65-27-27-65m397 75l-44 17-102-257 35-17 87 218 87-218 35 17-98 240m204-55q0 8 6 16 12 16 38 16 15 0 27-7l15 37q-19 10-42 10-37 0-65-27-19-20-19-45 0-1 0-2 0-46 46-65l100-41q0-23-16-38t-39-16q-20 0-36 15-15 15-15 38v3l-39 17v-21q0-34 29-65 25-27 63-27t65 27 27 65v165l-39 17v-137l-81 33q-25 12-25 32m540 55l-39 17v-303q0-27 19-47t47-19q29 0 47 19 20-19 47-19 30 0 48 19 18 19 19 47v286l-39 17 0-302q0-12-8-20t-19-9q-12 0-20 9-8 8-8 20v0l0 285-39 17 0-302q0-12-8-20t-19-9q-11 0-20 9t-8 20l0 285m302-164v88q0 23 16 38 17 15 38 15 21 0 36-15 15-15 16-38v-88q-1-23-16-38-15-15-39-15-20 0-36 15-15 15-15 36v2m-39 89v-90q0-38 27-65t65-27 65 27 27 65v90q0 38-27 65t-65 27-65-27-27-65m320 75l-39 17v-182q0-38 27-65t64-27 66 27 27 65v165l-39 17v-181q-1-23-16-38-16-15-37-15-22 0-38 15-15 16-15 37 0 0 0 1v164m280-164v88q0 23 17 38 16 15 38 15 20 0 36-15 15-15 15-38v-88q0-23-15-38-16-15-39-15-21 0-36 15-15 15-16 36v2m-39 89v-90q0-38 27-65t65-27 65 27 28 65v90q0 38-28 65t-65 27-65-27-27-65" />
</svg>