<svg id="fnt-Nova Flat" viewBox="0 0 2161 1000" xmlns="http://www.w3.org/2000/svg"><path id="nova-flat" class="f" d="M51 676h-2v-302q0-45 55-68 31-13 68-13t68 13q55 23 55 68v280l-46 22h-2v-302q0-17-30-29-20-8-45-8t-45 8q-29 12-29 29v280l-47 22m379-214v141q0 12 15 18t37 7 37-7 16-18v-141q0-13-16-19t-37-6-37 6-15 19m-49 150v-159q0-32 46-50 24-10 55-10t56 10q45 18 45 50v159q0 32-45 50-25 10-56 10t-55-10q-46-18-46-50m336 64h-3l-94-268 42-20h3l69 204 68-204h2l42 20-87 248-42 20m351-223v201l-46 22h-2v-13q-24 9-51 9-28 0-53-10-45-18-45-50v-66q0-33 45-50 25-10 53-10 27 0 51 8v-32q0-13-16-19t-37-6h-59v-2l19-42h40q31 0 56 10 45 17 45 50m-149 101v49q0 12 16 18t34 7 35-7 16-18v-49q0-12-16-18t-35-6-34 6q-16 6-16 18m433 122h-3v-366l26-12h155v2l-20 42h-112v118h132v3l-20 42h-112v149l-46 22m273 0h-2v-366l46-22h2v366l-46 22m317-223v201l-46 22h-2v-13q-24 9-50 9-29 0-54-10-45-18-45-50v-66q0-33 45-50 25-10 54-10 26 0 50 8v-32q0-13-16-19t-37-6h-59v-2l19-42h40q31 0 56 10 45 17 45 50m-149 101v49q0 12 16 18t35 7 34-7 16-18v-49q0-12-16-18t-34-6-35 6q-16 6-16 18m257 122h-2v-233h-63v-3l20-42h43v-88l46-22h3v110h62v3l-19 42h-43v211l-47 22" />
</svg>