<svg id="fnt-NTR" viewBox="0 0 825 1000" xmlns="http://www.w3.org/2000/svg"><path id="ntr" class="f" d="M264 385q7 0 13 6t5 13v239q0 10-8 18t-18 8h-5q-13 0-21-11l-155-224v217q0 7-5 12t-13 6q-8 0-13-6t-5-12v-239q0-11 7-19t19-8h5q13 0 22 13l154 222v-216q0-7 5-13t13-6m278 2q8 0 13 5t5 12-5 12-13 6h-81v229q0 7-5 12t-13 6q-7 0-13-6t-5-12v-229h-82q-7 0-12-5t-5-13q0-6 5-12t12-5h199m279 245v19q0 7-5 12t-13 6-13-5-5-13v-13q0-32-7-47t-20-24-35-9h-83v93q0 7-5 12t-13 6q-8 0-13-6t-5-12v-245q0-7 5-13t13-6h93q55 0 83 24 26 22 26 57 0 23-13 44t-40 29q29 7 42 42 9 22 8 49m-181-109h72q34 0 55-13t20-39q0-24-16-36-19-13-61-13h-70v101" />
</svg>