<svg id="fnt-Numans" viewBox="0 0 2162 1000" xmlns="http://www.w3.org/2000/svg"><path id="numans" class="f" d="M50 662v-340q0-5 5-5h35q15 0 25 15l185 275v-285q0-5 5-5h35q5 0 5 5v340q0 5-5 5h-35q-15 0-25-15l-185-275v285q0 5-5 5h-35q-5 0-5-5m395-105v-153q0-5 5-5h35q5 0 5 5v153q0 39 20 61t53 21q14 0 28-5t23-13 17-16q14-15 14-18v-183q0-5 5-5h35q5 0 5 5v258q0 5-5 5h-28q-4 0-5-5l-5-28q-3 5-12 13t-19 13q-25 14-56 14-50 0-83-31t-32-86m345 105v-258q0-5 5-5h28q4 0 5 5l5 28q1-2 4-5t10-9 18-13q23-13 51-13t51 13 33 39q7-10 17-21t32-21 44-10q44 0 70 30t27 85v155q0 5-5 5h-35q-5 0-5-5v-155q0-40-15-60t-38-20-41 13-29 26-10 13v183q0 5-4 5h-36q-4 0-4-5v-155q0-40-16-60t-37-20-42 13-29 26-9 13v183q0 5-5 5h-35q-5 0-5-5m503-11q-28-22-28-62t29-62 81-23h85v-2q0-75-75-75-23 0-40 11t-22 29q-2 5-6 5h-32q-5 0-5-5 4-34 32-55t73-20q58 0 89 28t31 82v160q0 5-5 5h-27q-5 0-6-5l-4-28q-3 5-13 13t-20 13q-27 14-60 14-48 0-77-23m17-62q0 25 16 37t47 13q16 0 31-5t24-13 18-16 11-13 3-5v-48h-85q-65 0-65 50m290 73v-258q0-5 5-5h28q4 0 5 5l5 28q3-5 12-13t19-14q24-13 56-13 51 0 83 31t32 86v153q0 5-5 5h-35q-5 0-5-5v-153q0-39-20-61t-52-21q-15 0-29 5t-23 13-17 15q-14 16-14 19v183q0 5-5 5h-35q-5 0-5-5m316-67q-1-1-1-2 0-4 6-4h31q3 0 6 5 25 45 88 45 35 0 52-10t18-27-12-26-41-17l-62-15q-80-19-80-77 0-33 29-54t82-21 84 21 42 58q2 6-5 6h-31q-3 0-6-5-25-45-83-45-33 0-50 10t-17 27 11 26 41 17l63 15q80 19 80 77 0 33-31 54t-84 21-88-21-42-58" />
</svg>