<svg id="fnt-Nunito" viewBox="0 0 1479 1000" xmlns="http://www.w3.org/2000/svg"><path id="nunito" class="f" d="M63 670q-9 0-14-5t-5-15v-318q0-10 5-16t13-5 11 2 9 10l218 291h-12v-283q0-10 5-15t15-5q9 0 13 5t5 15v319q0 10-4 15t-12 5q-8 0-12-3t-10-9l-217-291h11v283q0 10-5 15t-14 5m431 1q-29 0-49-11t-29-32-9-53v-134q0-11 5-16t15-5q10 0 15 5t5 16v133q0 32 13 48t42 16q31 0 51-21t19-55v-121q0-11 5-16t16-5q9 0 14 5t6 16v208q0 21-20 21-9 0-15-5t-5-16v-45l7 7q-10 29-33 45t-53 15m215-1q-10 0-15-5t-5-16v-208q0-10 5-16t14-5 15 5 5 16v43l-5-6q10-29 34-44t55-15q29 0 48 11t29 31 9 54v134q0 10-5 16t-15 5q-10 0-15-5t-5-16v-131q0-34-14-50t-42-16q-33 0-53 21t-20 55v121q0 21-20 21m284-1q-10 0-15-6t-5-16v-204q0-11 5-16t15-6q9 0 15 6t5 16v204q0 11-5 16t-15 6m0-304q-13 0-20-7t-7-18q0-12 7-18t20-6q13 0 19 6t7 18q0 12-7 18t-19 7m193 306q-28 0-48-10t-28-30-10-48v-128h-33q-9 0-13-4t-5-12 5-11 13-4h33v-58q0-10 6-15t15-5 14 5 6 15v58h63q8 0 13 4t4 11-4 12-13 4h-63v124q0 28 12 43t39 15q9 0 16-2t11-2q5-1 8 3t3 12q0 6-3 11t-7 7q-6 2-16 3t-18 2m176 0q-35 0-61-15t-41-44-14-67q0-29 8-52t24-40 36-25 48-9q36 0 62 16t40 43 14 67q0 29-8 52t-23 40-37 25-48 9m0-32q23 0 40-11t26-32 9-51q0-45-20-69t-55-24q-23 0-40 10t-26 32-9 51q0 45 21 69t54 25" />
</svg>