<svg id="fnt-Nuosu SIL" viewBox="0 0 2257 1000" xmlns="http://www.w3.org/2000/svg"><path id="nuosu-sil" class="f" d="M320 672h-9l-228-277v212q0 31 7 40 9 10 30 10h12v10h-120v-10h12q23 0 31-13 6-8 6-37v-240q-4-5-8-10t-8-10q-16-16-42-16v-9h84l210 258v-198q0-32-7-40-10-11-30-11h-11v-9h119v9h-12q-22 0-31 13-5 8-5 38v290m156 2q-60 0-60-90v-104q0-23-9-29-8-7-31-7v-10h82v156q0 52 38 52 26 0 59-32v-133q0-20-9-27-7-6-29-6v-10h80v171q0 35 16 35 11 0 20-4l4 9-71 29h-11v-49q-14 14-26 24t-19 15q-17 10-34 10m288 0q-47 0-79-36-32-36-32-86t30-85q33-40 83-40 49 0 81 34 31 34 31 85 0 50-28 87-33 41-86 41m10-19q57 0 57-90 0-53-20-87-20-34-53-34-24 0-39 18-18 23-18 70 0 51 19 87 21 36 54 36m228 19q-14 0-34-7-23-8-28-8-4 0-9 11h-8v-83h8q7 34 27 54 19 18 44 18 19 0 29-10 11-11 12-25 0-17-11-30-11-13-48-32-37-18-50-35-13-16-13-37 0-28 20-45 20-18 56-18 13 0 30 5 9 2 14 3t7 2q7 0 11-10h9v79h-9q-15-64-63-64-44 0-45 31-1 30 38 48l38 17q53 26 53 70 0 26-23 46-24 20-55 20m196 0q-60 0-60-90v-104q0-23-8-29-8-7-31-7v-10h82v156q0 52 38 52 26 0 59-32v-133q0-20-9-27-8-6-29-6v-10h80v171q0 35 16 35 11 0 20-4l4 9-71 29h-11v-49q-15 14-26 24t-19 15q-17 10-35 10m333 1h-9v-118h9q6 49 36 75 27 23 67 23 30 0 49-17 19-16 19-39 0-25-19-42-15-13-64-41-61-35-80-57-20-22-20-54 0-38 27-64 28-27 73-27 24 0 49 10 27 10 30 10 12 0 17-20h10v119h-10q-5-47-31-73-27-26-64-26-26 0-43 16-18 16-18 37 0 20 17 36 8 9 26 19t42 25q23 12 40 22t27 18q37 28 37 72 0 39-31 68-31 28-78 28-27 0-58-11-30-9-35-9-12 0-15 20m405-8h-148v-10h13q20 0 30-12 6-8 6-39v-223q0-32-5-39-11-13-31-13h-13v-9h148v9h-13q-21 0-30 13-7 8-7 39v223q0 30 6 39 4 4 13 8 8 4 18 4h13v10m289 0h-267v-10q25 0 36-7 14-9 14-36v-239q0-27-14-36-11-7-36-7v-10h149v10q-25 0-36 7-14 9-14 36v227q0 27 10 36 9 7 33 7h35q56 0 73-15 21-18 38-58l9 1-30 94" />
</svg>