<svg id="fnt-Zain" viewBox="0 0 737 1000" xmlns="http://www.w3.org/2000/svg"><path id="zain" class="f" d="M200 439l-138 192h123q11 0 17 6t5 16v8q0 6-6 6h-180q-4 0-4-5v-21q0-5 1-9t5-9l141-199h-140q-4 0-4-4v-27q0-4 4-4h154q13 0 20 5t8 20v7q0 8-6 18m187 223v-21q-11 15-27 23t-34 7q-28 0-47-13t-29-35-10-48q0-28 11-50t30-34 46-13q21 0 37 8t25 21q2-13 10-19t19-5h2q4 0 4 4v175q0 5-4 5h-29q-4 0-4-5m-56-26q13 0 25-5t22-19 9-37q0-25-9-38t-21-18-24-5q-22 0-38 15t-17 46q0 22 8 36t21 19 24 6m143-203q0-10 6-16t16-7q9 0 16 7t6 16q0 10-6 16t-16 7q-9 0-16-7t-6-16m37 234h-30q-4 0-4-5v-175q0-4 4-4h3q14 0 22 8t9 26v145q0 5-4 5m92-159q8-13 23-21t35-8q35 0 55 21t20 59v103q0 5-4 5h-30q-4 0-4-5v-96q0-27-12-40t-34-13q-22 0-35 13t-13 42v94q0 5-4 5h-29q-4 0-4-5v-175q0-4 4-4h2q12 0 20 6t10 19" />
</svg>