<svg id="fnt-ZCOOL QingKe HuangYou" viewBox="0 0 4419 1000" xmlns="http://www.w3.org/2000/svg"><path id="zcool-qingke-huangyou" class="f" d="M224 651q0 20-20 20h-159q-20 0-20-20v-25q0-14 7-25l132-221q3-7 3-12 0-5-4-9t-13-3h-105q-20 0-20-20v-6q0-20 20-20h159q20 0 20 20v27q0 14-7 25l-131 220q-3 6-3 11 0 6 4 9t13 4h104q20 0 20 20v5m222-200q-20 0-20-20v-54q0-20-20-20h-67q-20 0-20 20v229q0 20 20 20h67q20 0 20-20v-49q0-20 20-20h6q20 0 20 20v63q0 15-10 25l-17 16q-10 10-24 10h-96q-15 0-25-10l-16-16q-10-10-10-25v-257q0-15 10-25l16-16q10-10 25-10h96q14 0 24 10l17 16q10 10 10 25v68q0 20-20 20h-6m274 169q0 15-10 25l-16 16q-10 10-25 10h-96q-15 0-25-10l-16-16q-10-10-10-25v-258q0-14 10-25l16-16q10-10 24-10h97q15 0 25 11l16 16q10 10 10 24v258m-66 6q20 0 20-20v-229q0-20-20-20h-67q-20 0-20 20v229q0 20 20 20h67m314-6q0 15-10 25l-16 16q-10 10-25 10h-96q-15 0-25-10l-16-16q-10-10-10-25v-258q0-14 10-25l16-16q10-10 24-10h97q15 0 25 11l16 16q10 10 10 24v258m-66 6q20 0 20-20v-229q0-20-20-20h-67q-20 0-20 20v229q0 20 20 20h67m293 0q20 0 20 20v5q0 20-20 20h-127q-14 0-24-10l-16-16q-10-10-10-25v-288q0-20 20-20h5q20 0 20 20v274q0 20 20 20h112m332 45q20 0 20 20v5q0 20-20 20h-57q-15 0-25-10l-16-16q-10-10-10-24 0-8-4-12t-12-4h-2q-15 0-25-10l-16-16q-10-10-10-24v-237q0-15 10-25l16-16q10-10 25-10h96q14 0 24 10l16 16q10 10 10 25v237q0 14-10 24l-16 16q-10 10-24 10h-12q-10 0-15 3t-5 8 5 7 15 3l42 0m-45-66q20 0 20-20v-208q0-20-20-20h-67q-20 0-20 20v208q0 20 20 20h67m128-247q7-7 15-7t16 7 7 16-7 15-16 8-15-8-8-15 8-16m-7 86q0-20 20-20h5q20 0 20 20v207q0 20-20 20h-5q-20 0-20-20v-207m151 208q0 20-20 20h-6q-20 0-20-20v-177q0-14 10-24l17-17q10-10 24-10h62q15 0 25 11l16 16q10 10 10 24v177q0 20-20 20h-5q-20 0-20-20v-162q0-20-20-20h-33q-20 0-20 20v162m270 19q20 0 20-20v-12q0-20-20-20h-46q-15 0-25-10l-16-16q-10-10-10-24v-94q0-14 10-24l16-17q10-10 25-10h92q20 0 20 20v221q0 8-3 13t-8 12l-16 16q-10 10-24 10h-88q-20 0-20-20v-5q0-20 20-20h73m-52-117q0 20 20 20h32q20 0 20-20v-64q0-20-20-20h-32q-20 0-20 20v64m371 97q0 20-20 20h-6q-20 0-20-20v-29q0-8-2-14t-9-11l-71-58q-6-6-13-6-5 0-9 5t-3 12v101q0 20-20 20h-5q-20 0-20-20v-320q0-20 20-20h5q20 0 20 20v109q0 8 3 13t8 5q6 0 14-8l72-73q10-11 10-25v-21q0-20 20-20h6q20 0 20 20v39q0 15-10 25l-84 86q-7 6-7 14 0 8 8 14l81 66q7 5 9 11t3 14v51m207-93q0 20-20 20h-77q-20 0-20 20v7q0 20 20 20h77q20 0 20 20v6q0 20-20 20h-92q-14 0-24-11l-16-16q-10-10-10-24v-145q0-15 10-25l16-16q10-10 24-10h62q14 0 24 10l16 16q10 10 10 25v83m-117-40q0 20 20 20h32q20 0 20-20v-29q0-20-20-20h-32q-20 0-20 20v29m410-187q0-20 20-20h5q20 0 20 20v320q0 20-20 20h-5q-20 0-20-20v-130q0-20-20-20h-67q-20 0-20 20v130q0 20-20 20h-6q-20 0-20-20v-320q0-20 20-20h6q20 0 20 20v104q0 20 20 20h67q20 0 20-20v-104m218 113q0-20 20-20h5q20 0 20 20v176q0 15-10 25l-16 16q-10 10-24 10h-62q-14 0-24-10l-17-16q-10-10-10-25v-176q0-20 20-20h6q20 0 20 20v162q0 20 20 20h32q20 0 20-20v-162m151 227q-14 0-24-10l-17-17q-10-10-10-24v-58q0-8 3-14t8-11l16-16q10-10 24-10h48q20 0 20-20v-1q0-20-20-20h-77q-20 0-20-20v-6q0-20 20-20h91q15 0 25 10l16 17q10 10 10 24v176q0 20-20 20h-93m68-99q0-20-20-20h-33q-20 0-20 20v38q0 20 20 20h33q20 0 20-20v-38m151 80q0 20-20 20h-6q-20 0-20-20v-177q0-14 10-24l17-17q10-10 24-10h62q15 0 25 11l16 16q10 10 10 24v177q0 20-20 20h-5q-20 0-20-20v-162q0-20-20-20h-33q-20 0-20 20v162m270 19q20 0 20-20v-12q0-20-20-20h-46q-15 0-25-10l-16-16q-10-10-10-24v-94q0-14 10-24l16-17q10-10 25-10h92q20 0 20 20v221q0 8-3 13t-8 12l-16 16q-10 10-24 10h-88q-20 0-20-20v-5q0-20 20-20h73m-52-117q0 20 20 20h32q20 0 20-20v-64q0-20-20-20h-32q-20 0-20 20v64m163-242q16 0 24 14l57 100q8 14 11 14 4 0 11-14l57-100q7-14 24-14h3q8 0 12 4t5 9-3 11l-79 138q-7 11-7 25v153q0 20-20 20h-5q-20 0-20-20v-153q0-14-7-25l-80-138q-3-5-3-11 0-6 4-9t13-4h3m378 138q10 11 10 25v145q0 15-10 25l-16 16q-10 10-25 10h-62q-14 0-24-10l-17-16q-10-10-10-25v-145q0-14 10-24l17-17q10-10 24-10h62q15 0 25 10l16 16m-36 40q0-20-20-20h-32q-20 0-20 20v116q0 20 20 20h32q20 0 20-20v-116m218-46q0-20 20-20h6q20 0 20 20v176q0 15-10 25l-16 16q-10 10-25 10h-61q-15 0-25-10l-16-16q-10-10-10-25v-176q0-20 20-20h5q20 0 20 20v162q0 20 20 20h32q20 0 20-20v-162" />
</svg>