<svg id="fnt-Zen Antique Soft" viewBox="0 0 4062 1000" xmlns="http://www.w3.org/2000/svg"><path id="zen-antique-soft" class="f" d="M301 667q-1 0-7 0-12-1-44-2t-85 0l-132 2q-10 0-12-6t4-15q5-9 18-30t32-49 39-61 41-62 36-57 28-41 13-18q3-4 1-6t-6-2h-91q-25 0-42 12t-27 30-16 32q-1 2-3 4t-5 1q-4 0-5-3t-1-4q0-2 1-12t1-23 1-24 1-17q0-13 13-13 3 0 14 1t35 0 66 1h129q9 0 11 6t-2 14q-2 3-11 17t-24 37-33 50-37 56-37 57-32 49-24 36-11 16q-2 3-1 5t5 3h124q20 0 34-10t22-23 13-28 8-22q2-5 9-5 4 0 4 2t1 5q0 2 0 13t-1 27-2 27 0 17q-1 13-13 13m174 6q-57 0-89-31t-32-89q0-37 14-66t41-46 63-17q27 0 47 11t33 27 19 37 7 39q0 8-10 8h-148q-7 0-7 8 0 35 8 54t23 28 36 8q26 0 46-11t33-28q6-6 13-2t2 12q-10 15-23 28t-31 21-45 9m-52-147h85q10 0 10-9 0-33-11-54t-36-21q-23 0-36 20t-20 56q-1 8 8 8m198 141q-8 0-8-9 0-8 8-8 17 0 23-7t6-26v-144q0-10-1-16t-8-6q-4-1-11-2t-10-1q-7-1-7-8 0-8 7-8 2 0 12-1t22-1 23 0 14 0q12 1 12 13v20q0 2 2 2t3-1q10-16 31-28t48-12q18 0 34 7t25 24 9 45v116q0 19 6 27t18 7q8 0 8 8 0 9-8 9-3 0-12-1t-20-1-19 0q-9 0-19 0t-20 1-12 1q-8 0-8-9 0-8 8-8 15 0 20-7t4-26v-110q0-28-10-40t-30-12q-14 0-27 9t-22 23-8 32v97q0 19 6 27t16 7q8 0 8 8 0 9-8 9-5 0-21-1t-28-1q-8 0-20 0t-22 1-14 1m436 0q-6 0-6-7 0-8 6-8 18 0 28-6t18-24q4-8 11-27t18-45 22-57 23-60 21-56 17-44 9-25 6-8 11-2 12 2 6 8q4 10 12 33t21 52 24 61 24 63 21 55 15 39q9 23 19 32t20 9q7 0 7 8 0 7-7 7-5 0-20-1t-42 0q-21 0-41 0t-24 1q-7 0-7-7 0-8 7-8 16 0 22-5t6-13-2-12q-1-1-3-9t-7-19-7-23-7-20q-2-6-4-7t-6-1h-123q-2 0-4 1t-2 4q-3 10-8 24t-8 28-3 22q0 18 9 24t26 6q6 0 6 8 0 7-6 7-5 0-19-1t-36 0q-19 0-34 0t-21 1m108-140h108q2 0 4-1t1-6q-4-12-10-29t-13-36-13-37-11-30-6-18q-1-2-3-3t-3 2q-1 4-6 17t-14 33-15 40-15 36-8 24q-2 8 4 8m286 140q-7 0-7-9 0-8 7-8 17 0 23-7t7-26v-144q0-10-2-16t-8-6q-3-1-10-2t-11-1q-7-1-7-8 0-8 8-8 1 0 11-1t23-1 23 0 13 0q13 1 13 13v20q0 2 1 2t3-1q11-16 32-28t47-12q19 0 34 7t25 24 10 45v116q0 19 5 27t19 7q7 0 7 8 0 9-7 9-4 0-13-1t-19-1-20 0q-8 0-19 0t-19 1-13 1q-7 0-7-9 0-8 7-8 16 0 20-7t5-26v-110q0-28-11-40t-29-12q-14 0-28 9t-21 23-8 32v97q0 19 5 27t17 7q8 0 8 8 0 9-8 9-6 0-21-1t-28-1q-9 0-21 0t-22 1-14 1m378 6q-22 0-38-10t-16-38v-171q0-4-4-4h-31q-8 0-8-8v-2q0-3 2-5t6-3q29-10 45-30t20-57q0-8 8-8h8q3 0 6 2t2 6v81q0 4 4 4h57q8 0 8 8v4q0 8-8 8h-57q-4 0-4 4v154q0 27 29 27 13 0 24-8t16-18q4-8 13-3 3 2 3 5t-1 7q-9 22-30 38t-54 17m120-6q-8 0-8-8 0-9 8-9 19 0 25-8t7-26v-142q0-14-3-19t-10-5q-3 0-12-1t-11-1q-7-2-7-9 0-8 7-8 2 0 13 0t24 0 26-1 14 0q13 0 13 12v174q0 18 6 26t22 8q7 0 7 9 0 8-7 8-4 0-14-1t-21-1-21 0q-8 0-21 0t-23 1-14 1m55-291q-15 0-26-11t-10-25 10-26 26-10 25 10 11 26-11 25-25 11m240 394q-8 0-8-8 0-8 8-8 19 0 26-8t6-26v-73q0-4-2-4t-4 2q-5 5-13 11t-20 12-30 5q-26 0-50-11t-37-38-15-73q0-35 10-59t27-39 37-22 39-7q19 0 32 6t24 13 14 13q8 9 14 1 3-4 9-13t10-14q2-3 8-2t5 8q-1 5-2 26t-2 57v202q0 18 8 25t27 8q8 0 8 8 0 8-8 8-3 0-15 0t-25-1-22 0q-8 0-21 0t-23 1-15 0m-26-116q13 0 26-8t24-26 9-45v-49q0-43-16-63t-39-20q-29 0-44 24t-14 84q0 41 6 64t19 31 29 8m281 19q-35 0-58-18t-22-58v-123q0-12-2-17t-10-7q-4-1-10-2t-9-1q-7-1-7-8 0-8 7-8 2 0 12-1t23 0 24 0 14 0q12 0 12 13v146q0 26 13 38t34 12q27 0 39-17t13-39v-109q0-12-2-17t-10-7q-4-1-10-2t-9-1q-7-1-7-8 0-8 7-8 2 0 12-1t23 0 24 0 14 0q12 0 12 13v180q0 14 3 18t9 6q4 0 6 1t6 2q7 0 7 8 0 8-8 8-1 0-10 0t-20 0-20 0-12 1q-12 0-13-12 0-3 0-9t-1-9q0-4-2-4t-4 3q-4 5-12 14t-23 16-33 7m312 0q-57 0-89-31t-32-89q0-37 14-66t41-46 63-17q27 0 47 11t33 27 19 37 7 39q0 8-10 8h-148q-7 0-7 8 0 35 8 54t23 28 36 8q26 0 46-11t33-28q6-6 13-2t2 12q-10 15-23 28t-31 21-45 9m-52-147h85q10 0 10-9 0-33-11-54t-36-21q-23 0-36 20t-20 56q-1 8 8 8m486 147q-23 0-44-6t-35-12-21-9q-5-3-10-2t-10 5q0 0 0 0-1 0-3 2t-10 10q-5 5-10 3t-4-8v-97q0-6 6-7t9 3q9 28 29 50t46 34 59 13q26 0 42-11t25-27 8-32q0-21-12-35t-32-21-43-14-47-13-43-19-32-30-12-47q0-35 17-58t45-35 60-12q17 0 34 3t31 9 22 10q12 7 19 0 5-5 7-7t3-1q4-4 9-2t4 9v85q0 7-6 8t-9-5q-11-24-28-45t-38-34-48-13q-21 0-38 9t-26 24-9 34q0 21 12 33t32 20 44 13 49 12 44 19 32 30 12 51q0 35-17 61t-46 38-67 14m278 0q-36 0-62-17t-41-44-15-64 15-64 41-44 62-16 62 16 41 44 15 64-15 64-41 44-62 17m0-17q31 0 45-30t14-78q0-47-14-77t-45-30-45 30-14 77q0 48 14 78t45 30m162 11q-8 0-8-9 0-8 8-8 21 0 30-7t10-26v-163q0-4-5-4h-36q-8 0-8-8v-4q0-8 8-8h36q5 0 5-4v-17q0-39 12-63t31-37 39-11q25 0 43 11t19 34q0 15-8 23t-25 9q-12 0-20-8t-5-26q2-10-3-16t-12-4q-8 2-13 17t-5 50v38q0 4 5 4h55q3 0 5 2t3 6v4q0 8-8 8h-55q-5 0-5 4v163q0 18 10 26t38 7q7 0 7 8 0 9-7 9-4 0-17-1t-28-1-30 0q-12 0-26 0t-26 1-14 1m291 6q-22 0-38-10t-16-38v-171q0-4-4-4h-31q-8 0-8-8v-2q0-3 2-5t6-3q29-10 45-30t20-57q0-8 8-8h8q3 0 6 2t2 6v81q0 4 4 4h57q8 0 8 8v4q0 8-8 8h-57q-4 0-4 4v154q0 27 29 27 13 0 24-8t16-18q4-8 13-3 3 2 3 5t-1 7q-9 22-30 38t-54 17" />
</svg>