<svg id="fnt-Zen Tokyo Zoo" viewBox="0 0 3008 1000" xmlns="http://www.w3.org/2000/svg"><path id="zen-tokyo-zoo" class="f" d="M100 667h-18l250-402h17l-249 402m-77 0h-18l250-402h17l-249 402m38 0h-17l249-402h18l-250 402m164-387h-184v-15h193l-9 15m-21 33h-163v-15h173l-10 15m-20 33h-143v-15h152l-9 15m129 255h-154l9-15h145v15m0 33h-175l10-15h165v15m0 33h-195l9-15h186v15m204 0h-120v-201h120v15h-105v18h105v15h-105v28h89v15h-89v18h89v15h-89v29h105v15h-105v18h105v15m-138 0h-15v-201h15v201m182 0h-15v-201h15v201m167 0h-15v-201h15v201m-48-26v-30l-86-120v31l86 119m-86 26h-15v-201h15l86 119v-119h15v201h-15l-86-120v120m609-387h-310v-15h310v15m0 33h-310v-15h310v15m0 33h-310v-15h310v15m-114 321h-15v-305h15v305m-66 0h-15v-305h15v305m33 0h-15v-305h15v305m329-101q0-26-12-46t-34-32-47-12-48 12-34 32-12 46q0 26 12 46t34 33 48 12 47-12 34-33 12-46m-33 0q0-25-17-41t-43-16-44 16-17 41q0 25 17 41t44 17 43-17 17-41m-60 73q-22 0-39-10t-27-26-10-37 10-37 27-26 39-9 38 9 27 26 10 37-10 37-27 26-38 10m0 33q-31 0-55-14t-39-38-15-54q0-30 15-54t39-37 55-14 55 14 39 37 14 54q0 30-14 54t-39 38-55 14m309-5h-20l-92-115 49-86h18l-49 84 12 15 58-99h17l-65 111 72 90m-118 0h-15v-201h15v107l75 94h-19l-56-70v70m-33 0h-15v-201h15v201m291-98h-19l-71-103h19l41 60 42-60h18l-50 74 10 16 62-90h19l-71 103m-41 0h-18l-71-103h18l71 103m35 98h-15v-86h15v86m-33 0h-15v-86h15v86m312-101q0-26-13-46t-33-32-48-12-48 12-33 32-12 46q0 26 12 46t33 33 48 12 48-12 33-33 13-46m-33 0q0-25-18-41t-43-16-43 16-17 41q0 25 17 41t43 17 43-17 18-41m-61 73q-21 0-38-10t-27-26-10-37 10-37 27-26 38-9 39 9 27 26 10 37-10 37-27 26-39 10m0 33q-30 0-55-14t-39-38-14-54q0-30 14-54t39-37 55-14 55 14 39 37 15 54q0 30-15 54t-39 38-55 14m363-5h-17l249-402h18l-250 402m-77 0h-17l249-402h18l-250 402m39 0h-18l250-402h17l-249 402m163-387h-183v-15h192l-9 15m-20 33h-163v-15h172l-9 15m-21 33h-142v-15h152l-10 15m130 255h-155l10-15h145v15m0 33h-175l9-15h166v15m0 33h-195l9-15h186v15m248-101q0-26-13-46t-33-32-48-12-48 12-33 32-12 46q0 26 12 46t33 33 48 12 48-12 33-33 13-46m-33 0q0-25-18-41t-43-16-43 16-17 41q0 25 17 41t43 17 43-17 18-41m-61 73q-21 0-38-10t-27-26-10-37 10-37 27-26 38-9 39 9 27 26 10 37-10 37-27 26-39 10m0 33q-30 0-55-14t-39-38-14-54q0-30 14-54t39-37 55-14 55 14 39 37 15 54q0 30-15 54t-39 38-55 14m341-106q0-26-13-46t-33-32-48-12-48 12-33 32-12 46q0 26 12 46t33 33 48 12 48-12 33-33 13-46m-33 0q0-25-18-41t-43-16-43 16-17 41q0 25 17 41t43 17 43-17 18-41m-61 73q-21 0-38-10t-27-26-10-37 10-37 27-26 38-9 39 9 27 26 10 37-10 37-27 26-39 10m0 33q-30 0-55-14t-39-38-14-54q0-30 14-54t39-37 55-14 55 14 39 37 15 54q0 30-15 54t-39 38-55 14" />
</svg>