<svg id="fnt-Zen Old Mincho" viewBox="0 0 3412 1000" xmlns="http://www.w3.org/2000/svg"><path id="zen-old-mincho" class="f" d="M297 667q-1 0-7 0-12 0-45-1t-85 0l-135 1q-10 0-12-7t5-14q8-9 23-30t36-48 42-59 43-62 39-55 29-42 13-20q3-4 1-6t-6-3h-106q-25 0-42 10t-27 26-16 29q-2 4-5 5t-5 0q-6 0-6-7 0-2 0-11t1-21 1-23 1-13q1-12 13-12 3 0 14 0t35 0 67 1h129q9 0 11 6t-2 14q-2 2-12 16t-25 37-36 50-40 57-40 57-35 50-26 36-11 16q-2 2-1 4t5 2l139-1q20 0 34-7t22-19 14-24 9-22q1-4 3-5t6 0q7 1 7 7 0 2-1 12t-1 23-1 25-1 16q0 12-13 12m170 6q-32 0-57-15t-38-39-14-56q0-22 8-43t22-38 34-26 42-10q25 0 42 10t29 27 17 34 6 32q0 8-9 8h-135q-5 0-6 1t-2 6q0 33 9 52t24 27 33 8q18 0 31-7t23-15 14-15q5-7 12-2 6 4 2 11-5 9-16 20t-29 21-42 9m-51-136h83q10 0 10-8 0-14-4-30t-14-26-28-11q-15 0-26 10t-17 26-10 33q-2 6 6 6m188 130q-7 0-7-8t7-8q15 0 19-6t5-19v-134q0-8-1-14t-8-6q-4-1-9-2t-7-1q-7-1-7-8 0-3 2-6t5-2q2 0 9-1t16 0 18 0 10 0q12 0 12 12v18q0 1 1 1t3-1q10-13 26-25t36-11q16 0 31 5t23 21 10 43v110q0 14 4 20t15 6q7 0 7 8t-7 8q-5 0-17-1t-23 0q-12 0-23 0t-17 1q-7 0-7-8t7-8q14 0 17-6t3-19v-105q0-25-10-36t-26-11q-13 0-25 8t-20 21-7 30v92q0 14 3 20t14 6q7 0 7 8t-7 8q-5 0-15-1t-23 0-26 0-18 1m549 6q-33 0-61-13t-51-38-34-59-12-77q0-43 13-78t35-59 50-38 60-13 59 13 51 38 35 59 13 78q0 42-12 77t-35 59-50 38-61 13m0-18q27 0 51-16t38-52 15-101-15-102-38-53-51-15q-27 0-51 15t-39 53-14 102 14 101 39 52 51 16m214 12q-7 0-7-8t7-8q18 0 22-6t5-19v-281q0-12-3-17t-9-4q-3-1-9-2t-9-1q-7-1-7-8 0-3 2-6t5-2q2 0 10-1t19 0 19 0 11 0q12 0 12 12v309q0 14 4 20t21 6q7 0 7 8t-7 8q-5 0-20-1t-26 0q-12 0-27 0t-20 1m226 6q-20 0-41-11t-35-35-14-63q0-30 9-52t22-37 29-22 28-7q23 0 37 8t23 16q3 3 4 2t2-4v-123q0-10-4-15t-11-6q-4-1-11-2t-10-1q-7-1-7-8 0-3 2-6t5-2q2 0 11-1t20 0 22 0 12 0q12 0 12 12v309q0 12 2 16t9 6q3 1 7 1t7 2q6 0 6 8 0 8-7 8-1 0-9 0t-17 0-18 0-10 1q-12 0-12-11v-12q0-3-1-4t-4 3q-4 4-12 11t-19 13-27 6m10-19q12 0 24-9t21-25 9-38v-56q0-16-7-30t-18-22-29-9q-30 0-42 28t-13 74q0 29 5 46t14 26 18 12 18 3m300 13q-7 0-7-8 0-4 1-6t6-3q17 0 28-15t10-52v-228q0-23-10-29t-26-6q-4 0-6-2t-1-6q0-3 1-6t6-2q4 0 22 0t56 1q9 0 14 3t7 10q1 3 7 18t13 39 18 49 19 53 18 48 12 36 6 14q1 3 3 2t2-2q1-3 6-17t13-37 17-48 18-52 17-48 13-36 6-17q3-8 8-12t14-3q37 0 53-1t20 0 5 2 2 6q0 3-2 6t-5 2q-15 0-24 6t-9 24v268q0 20 8 26t23 6q3 0 5 3t2 6q0 8-7 8-5 0-20-1t-38 0-38 0-20 1q-7 0-7-8 0-4 2-6t5-3q19 0 30-5t11-27v-279q0-3-3-3t-3 2q0 2-7 19t-15 44-21 59-23 65-21 60-16 46-7 21q-2 5-7 5t-6-4q0-2-7-19t-17-45-23-59-24-64-23-58-16-43-6-16q-1-2-3-2t-2 3v233q0 26 6 40t16 21 21 6q3 0 5 3t2 6q0 8-7 8-5 0-17-1t-33 0q-26 0-36 0t-14 1m438 0q-7 0-7-8t7-8q17 0 22-6t4-20v-132q0-12-2-17t-9-4q-4-1-10-2t-9-1q-6-1-6-8 0-3 2-6t5-2q1 0 9-1t19 0 19 0 12 0q11 0 11 12v161q0 14 4 20t19 6q7 0 7 8t-7 8q-5 0-18-1t-25 0q-12 0-27 0t-20 1m43-287q-11 0-19-8t-8-19q0-12 8-20t19-8 20 8 8 20q0 11-8 19t-20 8m97 287q-7 0-7-8t7-8q15 0 20-6t4-19v-134q0-8-1-14t-8-6q-3-1-8-2t-8-1q-6-1-6-8 0-3 1-6t6-2q1 0 8-1t17 0 17 0 11 0q11 0 11 12v18q0 1 1 1t4-1q9-13 25-25t37-11q16 0 30 5t24 21 9 43v110q0 14 4 20t15 6q7 0 7 8t-7 8q-5 0-16-1t-23 0q-12 0-24 0t-16 1q-7 0-7-8t7-8q14 0 16-6t3-19v-105q0-25-9-36t-27-11q-13 0-25 8t-19 21-8 30v92q0 14 4 20t14 6q7 0 7 8t-7 8q-5 0-16-1t-22 0-26 0-19 1m354 6q-26 0-50-12t-39-36-16-62q0-31 14-58t39-43 59-16q18 0 35 6t27 17 11 28q0 12-9 22t-20 11q-11 0-19-7t-8-17q0-14 14-24 6-5-1-11t-27-6q-9 0-20 4t-23 16-17 31-7 47q0 40 19 64t46 24q19 0 33-9t22-19 13-19q3-8 11-4 7 3 5 10-4 11-15 26t-29 26-48 11m118-6q-3 0-5-3t-2-5q0-4 2-6t5-3q18 0 22-5t5-19v-281q0-12-3-17t-9-4q-3-1-9-2t-9-1q-7-1-7-8 0-3 2-6t5-2q2 0 10-1t19 0 19 0 11 0q12 0 12 12v165q0 2 1 2t3-1q11-14 26-25t37-11q16 0 30 6t23 22 9 49v102q0 14 3 20t12 5q4 0 5 3t2 6q0 3-2 5t-5 3q-5 0-15-1t-21 0q-12 0-23 0t-17 1q-3 0-5-3t-2-5q0-4 2-6t5-3q14 0 17-5t3-19v-99q0-29-9-42t-28-13q-12 0-24 8t-20 20-7 29v96q0 14 4 20t16 5q4 0 5 3t2 6q0 3-2 5t-5 3q-5 0-17-1t-24 0-27 0-20 1m354 6q-29 0-53-16t-37-41-14-57 14-57 37-41 53-15q29 0 52 15t38 41 14 57-14 57-38 41-52 16m0-16q28 0 42-27t14-71-14-71-42-27q-28 0-42 27t-14 71 14 71 42 27" />
</svg>