<svg id="fnt-Zen Dots" viewBox="0 0 2877 1000" xmlns="http://www.w3.org/2000/svg"><path id="zen-dots" class="f" d="M399 667h-384v-61l269-231h-257v-65h373v61l-269 231h268v65m378 2h-203q-67 0-104-33t-38-98q0-65 38-98t104-33h125q44 0 67 20t24 60q0 78-91 78h-189q11 47 64 47h203v57m-81-205h-122q-51 0-63 44h185q10 0 15-6t6-17q0-21-21-21m211 203h-72v-258h224q44 0 64 22t21 57v179h-73v-170q0-30-30-30h-134v200m691 0h-219v-358h59l160 0q97 0 150 45t54 134-54 133-150 46m-6-293h-133v228h133q63 0 96-28t32-86q0-60-32-87t-96-27m477 295h-93q-67 0-104-33t-38-98q0-65 38-98t104-33h93q67 0 104 33t38 98q0 65-38 98t-104 33m-93-57h93q32 0 49-18t18-56q0-38-18-56t-49-18h-93q-32 0-50 18t-17 56q0 38 17 56t50 18m533 55h-109q-44 0-64-22t-21-57v-121h-74v-58h74v-79h73v79h107v58h-107v112q0 30 30 30h91v58m287 2h-258v-57h245q21 0 21-24 0-23-21-23h-159q-44 0-67-20t-23-58q0-39 23-60t67-20h228v57h-224q-22 0-22 21 0 11 6 17t16 6h168q39 0 59 20t21 59q0 39-21 60t-59 22" />
</svg>