<svg id="fnt-Zen Kurenaido" viewBox="0 0 2827 1000" xmlns="http://www.w3.org/2000/svg"><path id="zen-kurenaido" class="f" d="M223 667h-187q-7 0-10-7-2-2-2-6 0-4 2-6 48-82 80-137t52-89 30-51 14-23 4-6h-157q-5 0-8-4t-4-9 4-9 8-3h179q7 0 10 6 2 2 2 6 0 3-2 7-48 82-80 137t-53 88-30 51-13 24-4 6h165q6 0 9 3t4 9q0 5-4 9t-9 4m155 6q-42 0-67-29t-24-79q0-51 24-80t67-29q37 0 62 26t28 69v1q0 5-4 8-3 4-8 4h-145q0 38 16 62t51 23q18 0 34-8t24-20q3-4 8-5t9 2q4 3 5 8t-2 9q-12 17-33 28t-45 10m-66-133h130q-5-28-22-44t-42-15q-27 0-44 15t-22 44m224 133q-5 0-9-3t-3-8v-194q0-5 3-9t9-3 8 3 4 9v16q11-13 27-20t35-8q34 0 54 23t20 62v120q0 5-4 8t-8 4-8-4-4-8v-120q0-12-3-26t-15-24-32-10q-29 0-46 16t-16 45v120q0 5-4 8t-8 3m361 0q-5 0-9-3t-3-9v-339q0-5 3-9t9-4q6 0 9 4t4 9v186l181-194q3-4 8-4t9 4q4 3 4 8t-4 9l-117 126 127 197q3 4 2 9t-5 8q-5 3-10 2t-8-5l-123-192-64 69v116q0 5-4 9t-9 3m347 0q-34 0-54-22t-20-62v-120q0-5 3-8t9-4 8 4 4 8v120q0 11 3 25t14 25 33 11q30 0 46-16t16-46v-119q0-5 4-9t8-4 8 4 4 9v193q0 5-4 8t-8 3-8-3-4-8v-16q-11 13-27 20t-35 7m155 0q-5 0-9-3t-3-8v-193q0-5 3-9t9-3 8 3 3 9v12q8-9 21-16t26-8q18-3 36 2t32 18 20 33q1 5-1 9t-7 6q-5 1-10-2t-5-7q-4-14-14-23t-23-11-24-1q-22 2-36 16t-15 43v122q0 4-3 8t-8 3m280 0q-43 0-67-29t-25-79q0-51 25-80t67-29q37 0 62 26t27 69v1q0 5-3 8-3 4-9 4h-145q0 38 16 62t52 23q18 0 33-8t25-20q3-4 7-5t9 2q4 3 5 8t-2 9q-12 17-33 28t-44 10m-66-133h129q-5-28-22-44t-41-15q-27 0-44 15t-22 44m223 133q-5 0-8-3t-3-8v-194q0-5 3-9t8-3 9 3 3 9v16q12-13 28-20t34-8q35 0 54 23t20 62v120q0 5-3 8t-8 4-9-4-3-8v-120q0-12-4-26t-14-24-33-10q-29 0-45 16t-17 45v120q0 5-3 8t-9 3m360 1q-5 0-8-4t-4-8v-4l-61 12q-23 5-39 3t-27-10q-8-7-13-17t-6-22q-3-29 13-48t49-24l84-14v-14q0-10-3-22t-13-16q-8-5-21-5-31 0-76 28-5 2-9 1t-7-5q-3-5-2-10t5-6q30-18 52-25t37-7q11 0 18 2t14 6q14 8 22 23t7 36v138q0 5-3 8t-9 4m-77-28l65-12v-72l-80 13q-20 4-30 12t-11 17-1 18q1 15 9 21 12 9 48 3m209 28q-5 0-9-4t-3-8v-174h-57q-5 0-9-4t-3-9 3-8 9-3h69q5 0 9 3t3 8v187q0 5-3 8t-9 4m-6-301q-7 0-12-4t-4-9v-31q0-5 4-9t12-4 11 4 4 9v31q0 5-4 9t-11 4m248 301q-5 0-8-4t-3-8v-21q-12 15-28 23t-38 9q-43 0-67-29t-25-79q0-51 25-80t67-29q21 0 38 9t28 24v-176q0-5 3-8t8-4 9 4 3 8v349q0 5-3 8t-9 4m-77-25q32 0 49-22t17-62q0-40-17-62t-49-22-50 22-18 62q0 40 18 62t50 22m242 24q-43 0-67-29t-25-79q0-51 25-80t67-29q42 0 66 29t25 80q0 50-25 79t-66 29m0-24q32 0 50-22t17-62q0-40-17-62t-50-22q-32 0-50 22t-18 62q0 40 18 62t50 22" />
</svg>