<svg id="fnt-Zen Kaku Gothic New" viewBox="0 0 4620 1000" xmlns="http://www.w3.org/2000/svg"><path id="zen-kaku-gothic-new" class="f" d="M253 667h-229v-30l190-291h-183v-29h220v29l-190 291h192v30m158 5q-32 0-58-15t-39-44-14-66q0-38 14-66t39-44 57-15q33 0 55 16t35 42 12 54v10h-182q-1 45 21 73t61 28q28 0 47-15t31-42l25 15q-32 69-104 69m-79-154h150q-2-19-12-35t-25-26-35-9q-30 0-51 18t-27 52m274 149h-31v-240h29l1 34q11-17 30-28t44-12q39 0 62 25t24 70v151h-30v-147q0-35-17-52t-43-18q-20 0-36 9t-25 23-8 33v152m409 0h-31v-350h31v153l168-153h42l-182 164 192 186h-42l-178-177v177m316 4q-35 1-57-16t-22-48q0-24 16-42t42-28 52-10q37 0 59 17v-41q0-33-14-44t-45-10q-20 0-45 7t-41 19l-15-24q20-13 47-21t54-9q45 0 67 18t21 64v133q0 9 5 10t24-2v22q-5 2-14 3t-16 2q-17 0-22-7t-6-26q-15 17-41 25t-49 8m1-27q24-1 45-8t33-20 11-32q-1-16-17-24t-40-7q-20 0-39 7t-31 19-12 29q0 18 14 27t36 9m233 23h-31v-361h31v219l109-98h42l-124 109 129 131h-39l-117-121v121m289 5q-38 0-62-24t-23-70v-151h30v147q0 35 16 52t44 18q30 0 49-19t19-47v-151h31v239h-29l-1-33q-10 16-30 28t-44 11m467 1q-47 0-84-23t-57-64-21-95 21-95 57-64 84-23q37 0 66 13t52 36l-21 23q-36-41-97-41-39 0-68 19t-46 53-17 79q0 45 17 79t46 54 68 19q28 0 48-5t38-17v-104h-75v-29h106v152q-16 11-45 22t-72 11m285-1q-32 0-57-16t-39-44-15-65 15-66 39-44 57-16q33 0 58 16t39 44 15 66-15 65-39 44-58 16m0-28q24 0 42-12t29-34 10-51-10-52-29-33-42-12q-35 0-58 26t-22 71q0 44 22 70t58 27m266 28q-32 0-48-13t-16-49v-155h-52v-28h52v-88h30v88h73v28h-73v150q0 23 9 31t30 8q8 0 18-2t16-6v30q-7 2-18 4t-21 2m125-5h-30v-361h30v155q11-17 30-28t44-12q38 0 62 25t23 70v151h-30v-147q0-35-17-52t-43-18q-20 0-36 9t-24 23-9 33v152m272 0h-30v-240h30v240m-15-292q-9 0-16-7t-7-16q0-10 7-16t16-7 16 7 7 16q0 10-7 16t-16 7m195 297q-32 0-57-16t-40-44-14-65 14-66 40-44 57-15q25 0 47 10t37 30l-24 18q-22-30-60-30-35 0-58 26t-23 71 23 70 58 27q38 0 60-30l24 18q-32 40-84 40m320-5h-30v-350h30l198 295v-295h31v350h-30l-199-298v298m406 5q-33 0-58-15t-40-44-14-66q0-38 14-66t40-44 57-15q32 0 55 16t35 42 12 54v10h-182q-1 45 21 73t60 28q28 0 47-15t31-42l25 15q-32 69-103 69m-79-154h150q-3-19-13-35t-25-26-34-9q-31 0-52 18t-26 52m309 149h-24l-75-240h30l58 191 56-191h25l56 191 58-191h30l-75 240h-25l-56-191-58 191" />
</svg>