<svg id="fnt-Zen Maru Gothic" viewBox="0 0 3576 1000" xmlns="http://www.w3.org/2000/svg"><path id="zen-maru-gothic" class="f" d="M236 667h-196q-16 0-16-15v-4q0-10 6-20l184-282h-167q-16 0-16-15t16-14h188q16 0 16 14v4q0 10-6 20l-184 282h175q17 0 17 15 0 15-17 15m175 5q-32 0-58-15t-39-44-14-66q0-38 14-66t39-44 57-15q33 0 55 16t35 40 12 50q0 9-4 13t-12 3h-166q-1 45 21 73t61 28q47 0 70-43 10-13 20-7 13 9 4 23-32 54-95 54m-79-154h150q-2-19-12-35t-25-26-35-9q-30 0-51 18t-27 52m259 149q-16 0-16-17v-206q0-17 15-17t14 11l1 23q11-17 30-28t44-12q39 0 62 25t24 70v134q0 17-15 17t-15-17v-130q0-35-17-52t-43-18q-20 0-36 9t-25 23-8 33v135q0 17-15 17m409 0q-16 0-16-17v-317q0-16 18-16 13 0 20 11l113 169 113-169q4-7 9-9t12-2q17 0 17 16v317q0 17-16 17-16 0-16-17v-280l-104 158q-6 11-15 11-9 0-15-11l-105-158v280q0 17-15 17m429 4q-35 1-57-16t-22-48q0-24 16-42t42-28 52-10q37 0 59 17v-41q0-33-14-44t-45-10q-17 0-37 5t-35 13q-15 6-22-4-7-13 8-20 19-10 42-16t44-6q45 0 67 18t21 64v133q0 6 3 8t10 1q7 0 11 2t5 8q0 12-13 14-4 1-8 2t-9 0q-17 0-22-7t-6-26q-15 17-41 25t-49 8m1-27q24-1 45-8t33-20 11-32q-1-16-17-24t-40-7q-20 0-39 7t-31 19-12 29q0 18 14 27t36 9m218 23q-16 0-16-17v-206q0-17 16-17 6 0 10 3t5 11v28q10-21 31-35t49-13q13 0 20 4t8 13q0 7-5 11t-10 3q-3 0-8-1t-8 0q-21 0-39 9t-28 26-10 37v127q0 17-15 17m253 5q-38 0-61-24t-24-70v-134q0-17 15-17t15 17v130q0 35 17 52t43 18q31 0 50-19t19-47v-134q0-17 15-17 15 0 15 17v206q0 16-14 16-14 0-14-11l-1-22q-11 16-30 28t-45 11m468 1q-47 0-84-23t-58-64-21-95 21-95 58-64 84-23q31 0 58 10t47 28q13 11 2 23-9 10-23 0-34-30-84-30-39 0-69 19t-46 53-16 79q0 45 16 79t46 54 69 19q27 0 47-5t39-17v-104h-59q-16 0-16-15 0-14 16-14h73q17 0 17 16v123q0 14-7 18-16 9-43 19t-67 9m285-1q-32 0-57-16t-40-44-14-65 14-66 40-44 57-16q32 0 57 16t40 44 14 66-14 65-40 44-57 16m0-28q23 0 41-12t29-34 11-51-11-52-29-33-41-12q-35 0-58 26t-23 71q0 44 23 70t58 27m265 28q-32 0-48-13t-16-49v-155h-35q-17 0-17-14 0-14 17-14h35v-71q0-17 15-17t15 17v71h57q16 0 16 14 0 14-16 14h-57v150q0 23 10 31t29 8q3 0 5 0t6 0q10-1 16 0t7 11q0 11-12 14t-27 3m111-5q-16 0-16-17v-328q0-16 16-16 15 0 15 16v139q10-17 29-28t44-12q39 0 62 25t24 70v134q0 17-15 17t-15-17v-130q0-35-17-52t-43-18q-20 0-36 9t-25 23-8 33v135q0 17-15 17m272 0q-15 0-15-17v-206q0-17 15-17t15 17v206q0 17-15 17m0-292q-10 0-17-7t-7-16q0-10 7-16t17-7 16 7 6 16q0 10-6 16t-16 7m194 297q-32 0-57-16t-39-44-15-65 15-66 39-44 57-15q43 0 73 28 6 5 6 11t-6 10q-6 4-11 4t-11-6q-22-19-51-19-35 0-58 26t-22 71 22 70 58 27q30 0 50-19 6-5 11-6t12 3q5 5 6 10t-6 12q-30 28-73 28" />
</svg>