<svg id="fnt-Zhi Mang Xing" viewBox="0 0 2326 1000" xmlns="http://www.w3.org/2000/svg"><path id="zhi-mang-xing" class="f" d="M146 306l15 0q52 0 69 43 3 9 3 17 0 24-21 45t-60 56-55 49q-38 36-38 59 0 14 19 14 37 0 118-14l4 0q7 0 7 6t-3 15q-13 43-98 43-29 0-47-7t-29-30q-6-13-6-28 0-29 25-58t71-79 59-64 13-19q0-8-36-8-18 0-53 3-29 17-74 17-12 0-18-4t-6-18 4-23 19-16 49-18 41-12 9 3 6 13l4 8q3 7 9 7m242 266q0 39-14 60-11 14-19 14t-16-8q-28-32-28-78 0-15 3-31 6-27 6-35t-1-8q-3 0-39 137-5 14-10 14-13 0-32-46-10-22-10-53 0-35 4-59t6-30 3-19 4-16q6-25 8-36-12 0-12-7 0-4 3-8 27-43 39-77 2-8 8-8 8 0 12 15t4 27q0 29-19 47-23 139-23 146t2 7 7-9 17-36 19-38q11-19 28-19 27 0 27 51 0 41-19 103 0 2 0 4 0 6 5 6t18-15 16-14 3 19m106-274q0 16-14 45t-26 43q-2 3-6 3-13 0-13-20t18-56q3-8 4-16t1-9 1-2 0-2 1-2 1-2 1-1q1-1 8-1t15 6 9 14m5 222q6-9 8-9t3 13 2 33-10 44-28 39q-11 8-20 8t-14-4-10-12q-8-12-15-31t-7-41 3-45 4-30-8-20-8-15 1-5 5-6 5-4 7-5q11-10 21-10t16 7 7 22-7 61q-10 57-10 65t5 9q10 0 50-64m469-39q2 0 2 5t0 11q-8 95-48 139-13 15-42 16-36-13-36-64 0-9 2-23t33-193q-44 89-56 217-2 15-3 22-2 16-13 16-16 0-33-23-6-8-6-20t0-27 3-32 3-28 5-32 5-28 5-31 6-29q-8 8-14 23t-9 24-7 22-6 23-6 23-4 20q-4 13-12 49t-10 44-4 15-2 8-2 7q-4 7-13 7t-15-7-8-11-6-13-3-14 3-17 7-31 6-24 5-22 5-24 5-23 4-24 4-22 4-24q5-33 6-46v-4q0-9-4-9t-13 14-12 22-5 20q-7 70-36 113-4 5-11 5t-16-8-8-16q0-51 34-118 14-26 22-76 14 20 17 27t7 6q2 0 9-6t21-6 22 7 11 16 3 27q3-2 11-9 16-14 28-14t22 13 9 27q6-7 22-34 11-18 30-18 32 0 32 28 0 13-12 72t-18 97-5 73v9q16-14 32-35t23-34 24-41q4-7 6-7m121 95q-41 73-63 73-15 0-28-19-3-5-7-16t-10-19-6-25 6-27q41-81 87-111 6-4 14-4t20 9q7 7 8 12 3 11 3 13 17 6 17 22 0 11-6 50t-7 58q0 10 7 10 8 0 29-28t24-28q5 0 5 17l-1 24q0 14-13 38t-32 25q-12 0-19-8-2-3-7-10-16-23-21-56m4-116q-63 58-80 132 51-44 80-132m262 71q0 24-3 42t-18 48-30 31q-7 0-13-7-29-36-29-68 0-9 6-43 9-51 9-57t-2-6-3 4q-13 23-21 52t-11 50-5 56q0 12-7 12-3 0-10-5-27-23-27-63 0-17 3-47t4-42q6-69 14-69 4 0 6 9t2 22 1 23 4 10 8-16 16-33 24-16 22 6q21 11 21 46 0 12-3 29t-5 38-2 24 2 3q4 0 20-20t22-20q5 0 5 7m67 188l1-6q0-4 3-5t5-3 5-3q7-5 11-5t8 1 5 2q5 0 5-21 3-48 10-114-15 23-38 48t-38 26-23-12q-16-24-16-54 0-45 47-98 17-18 25-26t26-24 31-16 22 10 7 22-6 35q4 3 4 7t-1 10q-22 141-25 185t-3 70l1 26q0 7-4 11t-9 4-18-10-24-9l-12 1q-6 0-6-6l7-46m59-238q3-6 3-11t-4-6q-2 0-4 1-29 15-52 39t-33 53q-2 6-2 11 0 10 7 10 4 0 9-3 23-16 44-41t32-53m376-178q9 8 9 18t-9 37-17 26q-6 0-9-39-30 43-57 100 0 78 8 109 8 28 23 48 14-10 37-50 6-9 9-9 6 0 6 27t-16 60q-8 17-26 17-5 0-17-4t-25-15-20-29q-11-28-16-67-24 59-35 84t-22 25q-5 0-14-5-15-8-20-23t-5-36q0-8 5-8t13 8l8 8q2 0 4-7 49-106 59-126 0-36-3-70-5-55-15-55-3 0-8 9t-16 33-18 37-16 13-17-9-8-21 15-42 27-42q1-9 3-24 4 2 7 15 11-8 24-8t25 5q39 14 41 53 1 18 1 27 30-50 51-81 7-9 11-9t9 3 8 10 6 7m111-5q0 16-14 45t-26 43q-2 3-6 3-13 0-13-20t18-56q3-8 4-16t1-9 1-2 0-2 1-2 1-2 1-1q1-1 8-1t15 6 9 14m5 222q6-9 8-9t3 13 2 33-10 44-28 39q-11 8-20 8t-14-4-10-12q-8-12-15-31t-7-41 3-45 4-30-8-20-8-15 1-5 5-6 5-4 7-5q11-10 21-10t16 7 7 22-7 61q-10 57-10 65t5 9q10 0 50-64m188 11q0 24-2 42t-18 48-31 31q-6 0-12-7-30-36-30-68 0-9 7-43 9-51 9-57t-2-6-4 4q-13 23-21 52t-10 50-6 56q0 12-6 12-3 0-10-5-27-23-27-63 0-17 3-47t4-42q5-69 13-69 5 0 7 9t2 22 0 23 4 10 9-16 16-33 23-16 22 6q22 11 22 46 0 12-3 29t-6 38-2 24 2 3q4 0 20-20t23-20q4 0 4 7m67 188l1-6q0-4 3-5t5-3 5-3q7-5 12-5t8 1 4 2q6 0 6-21 2-48 9-114-14 23-38 48t-37 26-23-12q-17-24-17-54 0-45 48-98 16-18 24-26t26-24 32-16 21 10 8 22-6 35q4 3 4 7t-1 10q-23 141-26 185t-2 70l0 26q0 7-3 11t-9 4-19-10-24-9l-11 1q-6 0-6-6l6-46m60-238q2-6 2-11t-4-6q-1 0-3 1-30 15-52 39t-34 53q-2 6-2 11 0 10 8 10 4 0 9-3 23-16 43-41t33-53" />
</svg>