<svg id="fnt-Zilla Slab" viewBox="0 0 1940 1000" xmlns="http://www.w3.org/2000/svg"><path id="zilla-slab" class="f" d="M270 570l-13 97h-240l-1-22 192-270v-1h-140l-14 66-31-4 13-94h224l1 20-193 271v2h157l14-69 31 4m109-183h-38v-46h38v46m40 251v29h-113v-29h39v-165h-40v-29h75v194h39m133 0v29h-113v-29h39v-287h-40v-28h75v315h39m133 0v29h-113v-29h39v-287h-40v-28h75v315h39m42-125l8-52q18-11 37-16t42-5q79 0 79 74v106q0 24 19 24 9 0 15-3l1 23q-14 8-29 8-40 0-41-45v-1q-10 18-30 32t-46 14q-22 0-45-14t-22-49q0-42 33-55t71-13q10 0 20 0t19 2v-20q0-24-10-39t-40-15q-25 0-43 9l-9 38-29-3m131 70v-17q-9 0-20-1t-21-1q-25 0-46 7t-20 34q0 22 14 30t28 8q23 0 43-16t22-44m437-7q0 47-34 71t-82 25q-68 0-105-27l7-64 30 3-2 41q17 9 33 12t35 3q32 0 55-14t23-47q0-37-25-48t-56-18q-23-5-45-13t-38-25-15-48q0-46 31-68t73-22q27 0 54 7t43 20l3 64-30 3-5-48q-15-8-31-11t-31-3q-30 0-49 14t-19 40q0 30 23 41t50 17q22 5 46 12t43 27 18 56m144 62v29h-113v-29h39v-287h-39v-28h74v315h39m43-125l8-52q17-11 37-16t41-5q80 0 80 74v106q0 24 19 24 8 0 15-3l0 23q-13 8-29 8-39 0-40-45v-1q-11 18-30 32t-46 14q-22 0-45-14t-23-49q0-42 33-55t71-13q10 0 20 0t20 2v-20q0-24-11-39t-40-15q-24 0-43 9l-8 38-29-3m131 70v-17q-10 0-20-1t-22-1q-25 0-45 7t-20 34q0 22 13 30t28 8q23 0 43-16t23-44m326-33q0 29-10 57t-32 46-57 19q-56 0-78-42l-5 37h-35q2-15 4-32t3-33v-251h-39v-28h74v167q10-20 28-35t51-15q42 0 69 28t27 82m-37 3q0-41-20-62t-47-21q-32 0-51 23t-20 48v34q0 28 19 47t49 20q37 0 53-27t17-62" />
</svg>