<svg id="fnt-Zilla Slab Highlight" viewBox="0 0 4150 1000" xmlns="http://www.w3.org/2000/svg"><path id="zilla-slab-highlight" class="f" d="M293 773h-299v-565h299v565m-278-128l1 22h240l13-97-31-4-14 69h-157v-2l193-271-1-20h-224l-13 94 31 4 14-66h140v1l-192 270m417 128h-151v-565h151v565m-55-432h-38v46h38v-46m-74 297v29h113v-29h-39v-194h-75v29h40v165h-39m260 135h-143v-565h143v565m-128-135v29h113v-29h-39v-315h-75v28h40v287h-39m259 135h-143v-565h143v565m-128-135v29h113v-29h-39v-315h-75v28h40v287h-39m367 135h-251v-565h251v565m-206-312l-8 52 29 3 9-38q18-9 43-9 30 0 40 15t10 39v20q-9-1-19-2t-20 0q-38 0-71 13t-33 55q0 36 22 49t45 14q27 0 46-14t30-32v1q1 45 41 45 15 0 29-8l-1-23q-6 3-15 3-19 0-19-24v-106q0-74-79-74-22 0-42 5t-37 16m123 105v17q-2 28-22 44t-43 16q-15 0-28-8t-14-30q0-26 20-34t46-7q11 0 21 1t20 1m472 207h-276v-565h276v565m-26-197q0-37-18-56t-43-27-46-12q-28-7-50-17t-23-41q0-26 19-40t49-14q15 0 31 3t31 11l5 48 30-3-3-64q-15-12-43-20t-54-7q-42 0-73 22t-31 68q0 32 15 48t38 25 45 13q30 7 56 18t25 48q0 33-23 47t-55 14q-18 0-35-3t-33-12l2-41-30-3-7 64q37 27 105 27 49 0 82-25t34-71m157 197h-143v-565h143v565m-128-135v29h113v-29h-39v-315h-74v28h39v287h-39m368 135h-252v-565h252v565m-206-312l-8 52 29 3 8-38q19-9 43-9 30 0 40 15t11 39v20q-9-1-20-2t-20 0q-37 0-71 13t-33 55q0 36 23 49t45 14q27 0 46-14t30-32v1q1 45 40 45 16 0 29-8l0-23q-7 3-15 3-19 0-19-24v-106q0-74-80-74-22 0-41 5t-37 16m123 105v17q-2 28-23 44t-43 16q-14 0-28-8t-13-30q0-26 20-34t45-7q11 0 22 1t20 1m346 207h-275v-565h275v565m-23-223q0-53-27-82t-68-28q-32 0-51 15t-29 35v-167h-73v28h38v251q0 16-2 33t-5 32h35q1-2 3-19t2-18q22 42 78 42 35 0 57-19t32-46 10-57m-37 3q0 35-16 62t-53 27q-29 0-49-20t-20-47v-34q1-24 20-48t51-23q28 0 48 21t19 62m561 220h-388v-565h388v565m-145-138v32h118v-32h-41v-261h41v-32h-118v32h41v112h-181v-112h41v-32h-118v32h41v261h-41v32h118v-32h-41v-118h181v118h-41m283 138h-150v-565h150v565m-55-432h-38v46h38v-46m-73 297v29h113v-29h-39v-194h-75v29h40v165h-39m234 135h-118v-565h285v565h-155q50-2 77-33t28-81v-186h36v-29h-72v35q-22-39-75-39-52 0-76 38t-24 83q0 53 28 81t68 28q31 0 50-15t29-34v36q0 42-20 64t-52 22q-23 0-44-12t-29-37l-28 14q8 32 34 48t58 17m81-241v39q-1 25-21 46t-51 22q-27 0-46-20t-19-60q0-35 16-62t55-27q27 0 47 17t19 45m364 241h-290v-565h290v565m-123-135v29h113v-29h-38v-114q0-44-22-64t-55-20q-53 0-78 44v-161h-74v28h39v287h-39v29h113v-29h-39v-105q1-24 19-44t48-20q23 0 37 15t15 51v103h-39m254 135h-143v-565h143v565m-128-135v29h113v-29h-39v-315h-75v28h40v287h-39m266 135h-150v-565h150v565m-55-432h-38v46h38v-46m-73 297v29h113v-29h-39v-194h-75v29h40v165h-39m234 135h-118v-565h285v565h-155q50-2 77-33t28-81v-186h36v-29h-72v35q-22-39-75-39-52 0-76 38t-24 83q0 53 28 81t68 28q31 0 50-15t29-34v36q0 42-20 64t-52 22q-23 0-44-12t-29-37l-28 14q8 32 34 48t58 17m81-241v39q-1 25-21 46t-51 22q-27 0-46-20t-19-60q0-35 16-62t55-27q27 0 47 17t19 45m364 241h-290v-565h290v565m-123-135v29h113v-29h-38v-114q0-44-22-64t-55-20q-53 0-78 44v-161h-74v28h39v287h-39v29h113v-29h-39v-105q1-24 19-44t48-20q23 0 37 15t15 51v103h-39m306 135h-195v-565h195v565m-13-166l-27-9q-5 27-14 35t-22 8q-20 0-28-12t-8-32v-125h87v-28h-87v-71h-35v71h-36v28h36v129q0 33 17 52t50 19q57 0 67-65" />
</svg>