<svg id="fnt-Saira" viewBox="0 0 1146 1000" xmlns="http://www.w3.org/2000/svg"><path id="saira" class="f" d="M165 671q-19 0-41-1t-43-3-37-3v-37q18 2 37 3t39 3 32 1q26 0 42-3t27-8q8-5 11-12t4-18 1-21q0-17-1-28t-5-16-14-9-25-4l-86-9q-24-3-38-11t-22-18-10-27-2-35q0-32 8-51t24-29 39-13 52-3q19 0 39 1t38 2 29 5v35q-13-2-30-3t-35-3-33 0q-28 0-45 2t-27 9q-11 7-14 18t-2 29q0 19 2 30t12 15 28 6l84 10q18 1 31 4t24 11 15 22q3 7 5 15t2 19 1 23q0 28-6 47t-15 30-25 16-32 7-38 2m261 0q-28 0-47-7t-28-22-9-45 6-46 24-24 48-7q5 0 15 0t25 1 28 0 27 1v-16q0-22-3-35t-11-19-24-8-40-2q-11 0-26 1t-30 2-22 3v-33q19-4 42-6t50-1q27 0 45 3t31 10 18 19 8 28 2 38v161h-36l-2-36h-3q-8 17-23 26t-32 11-33 3m15-34q14 0 27-2t22-6 15-15q5-11 7-23t3-29v-13h-85q-20 0-30 3t-15 13-3 28q0 19 4 28t17 13 38 3m243-297h-43v-45h43v45m-1 327h-41v-255h41v255m127 0h-41v-255h36l2 49h3q7-22 19-33t29-16 37-4v40q-34 0-53 11t-25 34-7 58v116m206 4q-28 0-47-7t-28-22-9-45 6-46 24-24 48-7q5 0 15 0t25 1 28 0 27 1v-16q0-22-3-35t-11-19-24-8-40-2q-11 0-26 1t-30 2-22 3v-33q19-4 42-6t50-1q27 0 45 3t31 10 18 19 8 28 2 38v161h-36l-2-36h-3q-8 17-23 26t-32 11-33 3m15-34q14 0 27-2t22-6 15-15q5-11 7-23t3-29v-13h-85q-20 0-30 3t-15 13-3 28q0 19 4 28t17 13 38 3" />
</svg>