<svg id="fnt-Saira Stencil One" viewBox="0 0 3997 1000" xmlns="http://www.w3.org/2000/svg"><path id="saira-stencil-one" class="f" d="M270 402q-17-2-58-6-23-1-37-1-18 0-34 1v-77h12q41 0 85 5 14 2 32 6v72m-83 268v-105q0-10-1-15t-5-7-12-2l-62-8q-54-6-73-35-9-13-12-31t-3-44q0-55 29-80 23-20 72-23v100q0 7 0 11t2 7q2 3 5 4t11 2l69 9q21 3 35 7t23 14q22 24 22 84 0 63-28 89-12 11-30 16t-42 7m-26 1q-50 0-93-5-26-2-39-5v-73q30 3 68 5 24 1 34 1 27 0 35-1v78h-5m304-4v-158q0-13-1-19t-6-8q-4-2-17-3-7-1-32-1-24 0-45 2l-26 2v-65q47-9 101-9 42 0 66 6t36 19q10 12 13 30t4 52v152h-93m-74 3q-34 0-51-19t-16-58q0-24 3-39t12-23q9-9 24-13t39-4l42 1v45h-5q-11 0-15 0-10 1-10 10-1 3-1 12 0 8 1 12t3 6q2 4 7 4 7 1 15 1h5v51q-11 9-23 11t-30 3m223-303v-72h92v72h-92m0 300v-255h92v255h-92m263-162v-79q10-10 24-14t36-4v83q-23 0-37 3t-23 11m-114 162v-255h93v255h-93m338 0v-158q0-13-1-19t-6-8q-4-2-17-3-7-1-32-1-24 0-45 2l-26 2v-65q47-9 101-9 42 0 66 6t36 19q10 12 13 30t4 52v152h-93m-74 3q-34 0-51-19t-16-58q0-24 3-39t12-23q9-9 24-13t39-4l42 1v45h-5q-11 0-15 0-10 1-10 10-1 3-1 12 0 8 1 12t3 6q2 4 7 4 7 1 15 1h5v51q-11 9-23 11t-30 3m594-268q-17-2-58-6-23-1-37-1-18 0-34 1v-77h12q41 0 85 5 14 2 32 6v72m-83 268v-105q0-10-1-15t-5-7-12-2l-62-8q-54-6-73-35-9-13-12-31t-3-44q0-55 29-80 23-20 72-23v100q0 7 0 11t2 7q2 3 5 4t11 2l69 9q21 3 35 7t23 14q22 24 22 84 0 63-28 89-12 11-30 16t-42 7m-26 1q-50 0-93-5-26-2-39-5v-73q30 3 68 5 24 1 34 1 27 0 35-1v78h-5m149-189v-70h47v-74h93v74h56v70h-196m47 185v-165h93v165h-93m289-107v-46h35q0-28-5-36-3-4-8-6t-15-1h-7v-63h7q43 0 66 7t35 23q10 14 12 36t2 66v20h-122m17 111q-46 0-72-8t-39-25q-12-15-15-37t-4-61q0-36 3-58t10-36q9-16 28-26t51-11v151q0 17 2 24t7 11q6 4 18 4 16 1 34 1 32 0 47-1l25-2v64q-20 6-55 8-17 2-40 2m301-4v-121q0-26-1-35-1-14-2-18-2-5-7-7t-16-1h-5v-62q19-15 51-15 45 0 60 28 7 12 10 29t2 42v160h-92m-145 0v-255h93v255h-93m475-185l-15-2q-13-2-36-2-16 0-22 2v-72q35 0 73 9v65m-77 189q-39 0-62-10t-34-28q-10-16-13-37t-2-56q0-32 2-53t11-37q9-18 28-29t53-12v130q0 22 1 33t5 17q5 6 13 9t24 2q26 0 36-1l17-2v65q-37 9-79 9m129-304v-72h92v72h-92m0 300v-255h92v255h-92m149 0v-372h93v372h-93m475 2v-174q0-44-1-57-1-21-5-30t-15-11q-10-2-28-2-22 0-28 2v-78q4 0 13 0h15q56 0 86 8t45 29q13 19 16 49t4 90q0 52-3 80t-11 47q-10 21-31 32t-57 15m-49 2q-73 0-105-16-17-8-26-22t-14-33q-4-18-5-41t-1-64q0-53 2-81t11-47q10-20 31-31t58-15v174q0 29 1 56 1 21 5 30t14 11q9 2 29 2 20 0 28-1v77q-5 1-14 1h-14m347-4v-121q0-26 0-35-1-14-3-18-2-5-7-7t-16-1h-5v-62q20-15 51-15 45 0 61 28 7 12 9 29t3 42v160h-93m-144 0v-255h92v255h-92m399-107v-46h35q0-28-5-36-3-4-8-6t-15-1h-7v-63h7q43 0 66 7t35 23q10 14 12 36t2 66v20h-122m17 111q-46 0-72-8t-39-25q-12-15-15-37t-4-61q0-36 3-58t10-36q9-16 28-26t51-11v151q0 17 2 24t7 11q6 4 18 4 16 1 34 1 32 0 47-1l25-2v64q-20 6-55 8-17 2-40 2" />
</svg>