<svg id="fnt-Saira Condensed" viewBox="0 0 2887 1000" xmlns="http://www.w3.org/2000/svg"><path id="saira-condensed" class="f" d="M113 671q-47 0-86-7v-32q18 2 39 4t35 2q20 0 32-3t19-10q7-6 9-19t3-33q0-28-2-39t-10-16-25-7l-58-9q-21-4-32-15t-14-27-3-46q0-52 22-74t71-21q46 0 76 8v31q-34-6-68-6-21 0-34 3t-19 12-8 18-2 28q0 23 2 33t8 15 20 6l56 9q21 4 33 11t18 24q6 14 6 57 0 39-8 61t-28 32-52 10m192 0q-35 0-51-16t-15-58q0-29 5-46t20-23 39-7q14 0 66 3v-18q0-32-5-46t-15-18-37-4q-12 0-30 2t-31 4v-29q33-7 71-7 35 0 52 8t24 29 6 60v162h-31l-2-35h-3q-7 23-24 31t-39 8m11-31q18 0 29-4t16-18q8-20 8-54v-16h-57q-16 0-24 3t-11 13-3 30q0 20 3 29t12 13 27 4m186-303h-37v-42h37v42m-1 330h-35v-255h35v255m63 0v-255h31l2 47h3q6-29 22-40t44-11v36q-26 0-41 11t-20 32-6 59v121h-35m189 4q-35 0-51-16t-15-58q0-29 5-46t20-23 39-7q14 0 66 3v-18q0-32-5-46t-15-18-37-4q-12 0-30 2t-31 4v-29q33-7 71-7 35 0 52 8t24 29 6 60v162h-31l-2-35h-3q-7 23-24 31t-39 8m11-31q18 0 29-4t16-18q8-20 8-54v-16h-57q-16 0-24 3t-11 13-3 30q0 20 3 29t12 13 27 4m398 25q-11 2-27 4t-29 2q-45 0-66-14t-28-49-7-113q0-77 7-113t28-50 66-13q14 0 29 2t26 5v30q-28-4-47-4-35 0-49 9t-18 37-4 97 4 97 18 37 49 9q25 0 48-5v32m126 6q-40 0-58-11t-23-36-5-85 5-84 23-37 58-10 58 10 23 37 5 84-5 85-23 36-58 11m0-31q25 0 35-7t13-26 3-68-3-68-13-26-35-7q-25 0-35 7t-13 26-3 68 3 68 13 26 35 7m271 27v-149q0-36-4-52t-12-21-29-5q-23 0-34 11t-13 29-2 54v133h-36v-255h31l2 35h3q6-19 21-29t42-10q28 0 42 10t19 30 5 58v161h-35m161 4q-29 0-45-11t-21-39-6-81q0-54 6-82t21-39 45-11q24 0 38 8t22 27h2v-148h36v372h-32l-2-35h-2q-7 23-23 31t-39 8m13-32q19 0 29-7t15-23q3-13 4-30t1-44q0-42-4-60-4-19-15-27t-31-8q-22 0-32 6t-14 27-3 66 4 67 13 26 33 7m306-100v12h-131q0 40 4 58t16 24 41 7q33 0 63-5v29q-11 3-31 5t-39 2q-40 0-59-12t-24-38-6-81 5-81 23-39 59-12q38 0 54 12t21 37 4 82m-80-101q-23 0-34 6t-14 23-3 57h97v-6q0-36-4-53t-13-22-29-5m265 229v-149q0-36-3-52t-12-21-30-5q-23 0-33 11t-13 29-3 54v133h-35v-255h31l2 35h3q6-19 20-29t43-10q28 0 42 10t19 30 5 58v161h-36m159 4q-17 0-36-2t-32-4v-30q32 6 66 6 19 0 28-5t13-14 3-25q0-18-2-26t-7-11-16-4l-50-7q-24-4-33-19t-8-48q0-30 9-46t26-22 44-6q15 0 33 2t28 5v29q-12-3-29-5t-32-1q-24 0-34 8t-11 34q0 16 2 24t7 11 16 4l48 7q16 2 25 8t14 21 5 41q0 42-18 58t-59 17m285-132v12h-131q0 40 4 58t16 24 41 7q33 0 63-5v29q-11 3-31 5t-39 2q-40 0-59-12t-24-38-6-81 5-81 23-39 59-12q38 0 54 12t21 37 4 82m-80-101q-23 0-34 6t-14 23-3 57h97v-6q0-36-4-53t-13-22-29-5m200 233q-29 0-45-11t-21-39-6-81q0-54 6-82t21-39 45-11q24 0 38 8t22 27h2v-148h36v372h-32l-2-35h-2q-7 23-23 31t-39 8m13-32q19 0 29-7t15-23q3-13 4-30t1-44q0-42-4-60-4-19-15-27t-31-8q-22 0-32 6t-14 27-3 66 4 67 13 26 33 7" />
</svg>