<svg id="fnt-Salsa" viewBox="0 0 1171 1000" xmlns="http://www.w3.org/2000/svg"><path id="salsa" class="f" d="M188 420q2-10 2-21 0-48-47-48-22 0-37 9-14 16-14 39 0 15 13 26t32 17 42 15 42 19 32 30 13 48q0 53-40 86t-97 33q-45 0-77-23t-32-64q0-21 13-35t30-14 27 4q-4 15-4 27 0 27 15 43t42 16 44-14 16-38-18-38-44-24-52-19-45-30-18-49q0-47 41-78t92-31q38 0 66 15t28 46q0 23-15 38t-36 16q-6 0-14-1m348 11q-14 58-14 115t13 115q-18 6-37 6t-26-12-8-32 7-58q-36 76-69 96-15 9-31 9-38 0-59-29t-21-70q0-64 36-112t92-48 117 20m-66 30q-26-8-45-8-37 0-56 17-17 42-17 85 0 23 7 47t23 23q17 0 45-51t43-113m115-163q16-6 33-6t28 11 12 30-6 77-5 91q0 82 12 160-16 6-34 6-39 0-39-38 0-18 6-71t5-84q0-107-12-176m174 278q-2 7-2 11 0 21 12 32t33 11 35-8 14-23-15-25-36-15-41-12-36-21-15-37q0-34 37-58t76-23q44 0 67 18 14 10 14 27t-14 28-32 11q-4 0-10-1 2-6 2-11 0-15-11-22t-30-8-34 8q-6 8-6 20t14 20 35 14 42 13 36 22 14 39q0 37-37 62t-77 25-65-15-26-43q0-18 13-29t33-11q4 0 10 1m411-145q-13 58-13 115t13 115q-18 6-37 6t-27-12-7-32 6-58q-35 76-68 96-15 9-31 9-38 0-59-29t-21-70q0-64 35-112t92-48 117 20m-65 30q-27-8-45-8-38 0-56 17-17 42-17 85 0 23 7 47t22 23q18 0 45-51t44-113" />
</svg>