<svg id="fnt-Sancreek" viewBox="0 0 2131 1000" xmlns="http://www.w3.org/2000/svg"><path id="sancreek" class="f" d="M164 592q0-32-16-52t-43-21q-7 0-15 2t-10 2l-2 0q-3-1-5-7-5-19-20-31-47-38-47-100 0-51 33-78t92-28q26 0 45 10t30 19q24 21 24 55 0 12-6 30t-6 23q0 15 12 28-4-1-12-1t-15-4-12-11q-8-11-12-26-2 3-12 6t-18 3-14-3-8-4-3-6q-2-4-2-7 15-1 26-8t12-23-10-24-21-9q-38 0-38 46 0 39 20 58 10 10 21 10t22-4 14-3 4 6q7 22 18 30 27 17 43 45t15 59-11 53-29 35q-37 27-86 27-45 0-77-24-16-11-25-30t-10-35 7-36 6-28-8-22q4-2 9-2 15 0 27 15t12 31q16-9 28-9t18 2 8 6q4 6 4 11v2q-14 2-25 12t-10 26 10 23 25 7 29-12 14-34m269 49q-6 24-26 34-10 5-19 7t-25 2-31-7q-11-4-19-10t-14-18-9-25-17-32q-4-5-4-6t8-11 11-20q7-33 33-47 11-6 23-10t25-7 21-9 16-13 6-27-1-33q-1-9-3-14t-5-10-7-6-13-2-15 7-6 18 8 26 20 18q-6 16-22 16t-28-10q1 1-5 12-3 5-7 10t-11 8-14 3-9-3q12-13 12-24 0-4-3-18t-3-20q0-30 22-48 10-9 28-17t41-9q98 0 98 107 0 25 9 46 5 9 21 18 0 1-3 3t-7 6-8 11-7 19-3 37 6 42 19 31q-2 5-9 8-4 2-10 4t-14 1-17-4q-21-11-33-34m-75-56v5q0 55 24 55 9 0 14-4 3-2 5-4t4-6 4-10 3-42q0 0 0-42 0-37 0-37-6 6-20 17t-22 21q-12 15-12 47m267-196q40-43 80-43t65 27 25 75q0 23 3 38t7 21 8 8 3 5-2 2-6 6-6 10q-7 15-7 46t7 48 23 34q-6 13-28 13t-43-26q-19 26-38 26t-21-13q14-16 20-35t6-42-2-35-6-18-7-10-6-6-2-3 3-5 8-10 9-20 3-34q0-62-28-62-19 0-31 17t-12 50q0 19 4 32t7 19 7 9 4 4-3 3-5 7-6 10q-7 17-7 47t6 48 24 34q-1 5-8 9t-15 4q-24 0-46-26-19 26-40 26-10 0-16-3-8-4-10-10 17-16 24-34t6-41-1-35-6-18-6-10-7-7-4-3q0-1 3-3t6-6 7-10q8-15 8-47t-7-51-26-36q6-13 34-13t48 37m445 106q-2 6-11 6t-20-7-14-12l-5-7q-10 6-20 6t-15-1-8-3-4-5q-3-3-3-6l0-1q13 0 24-16t11-29q0-29-29-29-15 0-19 6t-7 10-2 12q-1 11-1 31t2 32 6 18 7 9 6 5 3 3-3 3-6 5-7 9q-8 13-8 44t11 46 33 15q23 0 33-17 10-17 10-53 0-4 6-7t13-2 14 3 6 7q0 59-27 89-24 25-62 25-97 0-110-103-4-32-10-42t-9-13-5-6-2-3v0q0-1 3-3t6-5 7-10q9-14 9-46 1-50 29-78t74-28q29 0 59 18 15 8 25 24t10 30-4 31-3 25 7 20m234-11l-6 2q-20 0-29-21-4-9-4-13v0q-9 5-17 5t-14-2-8-5q-5-7-6-14 1 0 4 0 14 0 23-10t9-19-2-14-5-9q-6-7-14-7t-12 4-10 10q-10 15-10 48 0 26 6 41t10 24q8 14 11 14l-5 5q-5 4-9 9t-8 20-4 38 7 42 24 34q-2 5-9 9t-15 4q-24 0-45-26-20 26-41 26-9 0-16-3-8-4-10-10 17-16 24-34t7-41-2-35-5-18-6-10-7-7-5-3q0-1 3-3t6-6 7-10q9-15 9-47t-7-51-27-36q7-13 31-13t47 38q33-43 75-43 51 0 62 37 3 11 3 23 0 27-18 56 0 2 0 3t0 3 2 4 1 3 3 4 2 4m208 85q0-5 5-7t12-3 14 3 6 7q0 79-46 104-15 9-28 10t-20 1q-46 0-74-28t-33-86q-3-35-25-50-5-2-5-3 0 0 3-2t7-5 9-9q11-13 11-38 0-117 102-117 48 0 73 32 21 26 21 77 0 32 3 41t5 14 5 7q-10 11-21 11-4 0-7-1-20-10-53-10t-45 4q-10 13-10 47t12 53 36 19 33-18 10-53m-35-93l1-31q0-54-24-54-17 0-25 9-6 6-6 19t-1 37 5 36q20-1 35-5t15-11m293 93q0-5 4-7t12-3 14 3 6 7q0 79-46 104-15 9-28 10t-20 1q-46 0-74-28t-33-86q-3-35-25-50-5-2-5-3 0 0 3-2t7-5 9-9q11-13 11-38 0-117 102-117 48 0 73 32 22 26 22 77 0 32 2 41t5 14 5 7q-10 11-21 11-4 0-7-1-20-10-53-10t-45 4q-10 13-10 47t12 53 36 19 33-18 11-53m-36-93l1-31q0-54-24-54-17 0-25 9-6 6-6 19t-1 37 6 36q19-1 34-5t15-11m168-193q20-26 41-26t26 13q-20 27-27 54t-7 77 2 92q6 1 14 1 15 0 32-2l6-1q2-10 5-31t4-34q6-35 22-64 3-9 11-14 4-1 9-1t12 5 9 12l2 6q8-9 18-16t21-7 17 2 8 5 2 5q-35 16-50 61-4 10-6 25t-8 31-13 21-13 10-11 4-4 4 3 5 8 3 10 6 11 12q13 16 18 55 4 24 24 49 13 15 29 21-2 13-30 13-7 0-17-6t-14-11l-5-6q-4 13-16 20-4 3-10 3t-10-4-7-11q-5-9-17-56t-12-70q-8-3-27-3t-24-1l-3 52q0 31 7 48t27 32q-7 13-28 13t-39-26q-19 26-40 26-15 0-19-4-6-6-7-9 17-15 24-32t6-41-3-36-6-20-8-10-7-6-3-5 3-6 7-9 8-16q9-25 9-80t-6-83-25-51q7-14 27-14 13 0 21 7 13 11 19 19" />
</svg>