<svg id="fnt-Sankofa Display" viewBox="0 0 3211 1000" xmlns="http://www.w3.org/2000/svg"><path id="sankofa-display" class="f" d="M32 666q-5 0-5-3 1-4-2-6t-4-6q0-1 0-9t0-18 0-18 0-10q0-5-1-11t4-9 10-4 13 0q6 0 10-1t9 4q1 1 3 0t4-2q3 1 9 1t13 1 6 0q3 0 8 1t6-2q1-4 0-7t-1-9v-52q0-2 0-4t-1-3-4-2-4 0q-3-2-7-2t-7 4q-3-3-12-3t-16 0-10 3q-1 0-3 0t-3-1q-4-3-12-2t-9-2q-4-5-5-9t0-11v-56q0-3 0-5t2-4q2-2 0-3-4-5 0-12 5-8-1-16-2-3-1-7t1-6q2-9 2-16t-3-14q-2-6 1-9t8-7q3-1 11 2 2-3 4-1t4 1q1-1 4-2t10-1 24 0 46 0 74 0q5 0 6 1h2q6 0 7 1t5 7q2 4-1 10t1 11q1 2-1 3t-1 3q1 3 3 7t0 7q-1 3-2 9t-2 13 0 8q1 12-4 11t-15-6q-5-3-10-6t-7-7q-3-7-12-13t-15-8q-4-1-11-10t-15-15q-3-2-5-5t-4-4q-2 0-5-2-5 1-13 1t-11-1h-57q-3 0-3 2t2 3-1 4 2 5q1 1 0 3t-1 4q-3 4-2 6t3 6q2 4-1 7-3 3-3 13t0 20-4 13q0 0 0 2t2 2q2 2 0 4t-1 3q0 5 1 5t2 5q0 5 0 9t0 10-1 9-3 9q-1 2 3 5t7 3h65q4 0 12-1t10 1q2 1 3 1t4 0q10-4 19-4t23 1 29 2q7 0 12 4t5 11q1 23 1 53t-1 53q0 3 0 6t-2 6q-2 7-2 16t1 16q5 3 3 6t-4 7q-2 3-7 3t-8 0q-21 0-44 0t-45 0q-2 0-13-1t-22-1-16 2q-1 0-6 0t-27 0m179-279q1-19 0-26t0-8 0-3q0-9 0-12t-5-3q-7 0-22-1t-41-1q6 5 15 13t20 17 19 16 14 8m-92 55q-9 0-13-7t-3-9q0-6 5-11t15-4q5-1 8 1t6 6q4 6 0 12-3 3-8 7t-10 5m1-12q4 0 5-3 1-1 0-3-2-2-3-2-5 0-5 4 0 0 0 2t3 2m82 225q5 0 5-4l3-61q0-2 0-5t1-4q4-5 3-13t-3-14q0-1-1-11t0-22 0-19q-7-5-17-5t-17 0l-42 0q-7 0-7 5v49q0 2 1 3t0 3q-1 13 0 15t1 9q0 2-3 4t-3 3q-9 0-14-1t-10 0h-57q-5 0-6 2t-1 7v49q0 4 2 6t7 1q2 0 11 0t21-1 21 0 11 1q4 3 6 1t5-1q1 0 3-1t3 1q3 2 13 2t23 1 24 0 17 0m214 14q-9 0-25-3t-31-2-25 4q-4-3-12-3t-17 1-13 1h-6q-13 0-18-4t-5-8q0-11 14-22 6-4 11-9t11-9q6-8 15-14t17-10 13-11q9-11 21-18t21-14q9-8 18-15t18-16q4-4 11-8t16-7q5-5 10-7t10-4 5-9q0-7-4-16t-12-10q-2 0-13 1t-20 1-13 1q-5 0-10-1t-9-3q-2-1-6-1t-8 0q-9 1-12 1t-12-1q-4 0-7 1t-7 2q-10 1-13 2t-5 0q-5 0-10-2t-9-3q-2-1-2-4t2-3q5-1 7-4t7-2q3 0 16 0t32 0 36 0 31 0 15 0q14-3 23-2t12 6q2 2 3 8t1 12q0 27 1 44t1 27 0 21 0 22-2 34q0 3 0 7t0 7q0 5 0 9t3 9q-2 8-5 14t-11 6q-9-1-13 0t-7 1-6 1-13 1q-5 0-10 0t-10 1m-81-15q4-3 15-4t22-1 23 1 15 1q9 0 18 0t18-1q4 0 10-1t12-4 4-14q0-11 0-28t0-36 1-36 2-28q-5 8-15 11t-19 8-14 12q-11 9-22 20t-23 16q-4 1-8 5t-7 7q-7 7-20 16t-23 16-16 11q-2 1-6 5t-7 9-4 9 4 3q3 0 11 0t16 0 13 3m72-37q-9 0-13-6t-3-10q0-6 5-10t15-4q5-1 8 1t6 6q4 5 0 11-3 4-8 8t-10 4m1-11q4 0 5-4 1-1 0-3-2-2-3-1-5 0-5 3 0 1 0 3t3 2m318 61q-3 0-6-3t-3-8v-32q0-2 1-5t2-4 0-3 1-3q0-6-2-10t-2-11q0-4 0-13t1-18 1-18 1-9q-3-6-3-12t0-11q0-3 0-14t1-31q0-1-8-1t-15-1q0 0-5 0t-9-1-6 0q0 0-1 0-7 15-15 29t-19 30-25 38q-23 34-39 64t-26 42q-6 7-13 4-6-3-6-12 0-3 0-7t1-5q1-3 2-8t0-9q-1-2-2-6t0-5q3-19 4-34t1-33v-95q0-3 3-6t6-3q1 0 13-1t33 0 41 0 42 0 33 0 15 0q13 0 13 12v202q0 5-3 8t-7 3m-172-115v33q0 5-1 14t-2 18 0 15q3-7 10-19t15-25 16-24 10-18q2-4 7-10t9-12 6-9q4-12 8-16t7-8 8-15q1 0 3-6t6-10q-2-2-5-2-2 0-4 1t-3 2-3 1q-4 0-7-2t-7-2q-2 0-9 1t-15 3-14 1q-6 0-8-2-2-1-5-3t-7-1q-3 0-6 1t-7 3q-2 2-3 4t1 5q3 5 3 10 0 4-3 8 3 7 3 12 0 5-1 9t-1 9q-1 6-1 14t0 20m114 39q-2 0-8 0t-10 0-6-4q-1-4-2-9t4-10q2-3 8-8t9-2q10 4 10 20 0 3-1 8t-4 5m-8-12q1 0 1-1t1-3q0-4-2-5-1-1-3 0t-2 3q-1 1-1 2t0 3q0 1 3 1t3 0m126 87q-10 2-10-7 0 0 0-8t0-15q0-3 1-6t3-6q2-2 0-4-1-1-2-3t-1-11 0-27 0-50 0-80 1-119q0-2 0-7t3-5q4 0 6-2t5 3l4 19q0 3 0 7t-1 8q-1 1 0 4t0 5l-1 22q1 33 1 68t-1 60l0 33 15-7q1-3 4-5t6-3q8-6 14-14 3-4 7-6t7-7q1-1 2-1t11-6q4-4 12-10t21-17q4-4 8-8t9-7q6-5 10-10t7-5 11 6q0 5 0 5t-1 2q-4 2-7 6t-7 6-7 6-7 7q-3 3-15 12t-25 21q0 1 0 3l46 62q1 4 7 9t8 10q0 1 4 6t10 13 9 13 6 7q3 2 5 4t2 6q-1 4 3 6 3 4 7 7t3 7q-1 2-3 3t-6 1q-2-1-6-3t-12-15q-15-13-21-25t-12-19q-7-8-19-23t-23-31-21-31q-20 16-38 31t-24 22q-1 4-1 17t0 28-1 28-3 19q0 0-2 1t-1 0m80-56l-7 7q-5 5-13 1t-10-9q-3-4-3-8t2-9 7-5q5-1 13 0t8 8q0 6 3 8t0 7m-14-3l2-2q1-1 0-2t-1-2-2-3-3 1q-3 1-3 4 0 1 1 2 1 1 3 2t3 0m213 62q-3-2-7-2t-7 0q-2 0-12 0t-18 0-12 0q-9 0-10-11v-214q19 0 43 0t49 0 47 0 40 0q3 0 5 1t2 4v208q0 2 0 4t-1 4q-4 2-7 3t-7 2q-8 0-15 1t-14-4q-4 5-7 2t-6-1q-2 0-9 0t-15 1-16 0-10 0q-4-1-7 2t-6 0m38-15q4 0 15-1t24-1 26-1q1-2 1-10t0-18-1-11v-63q2-20 2-30t0-16 0-16-1-27q-1 0-9-1t-12-1q-2 0-13 0t-24 0-25 1-12 0q-3-4-6-2t-9 2q-3-4-7-4t-7 1q-6 0-16 0t-15 2q-2 5-3 9t3 8q1 0 1 2t0 3v31q1 2 0 4-5 5-1 12 1 2 2 5t0 5q0 5-3 10-3 4-1 6 3 4 3 11 0 6 0 18t0 24 0 18q0 3-1 7t-1 15q0 6 4 6 6 0 17 0t22 0 12 2q2 1 4-1 3-2 5-1t4 2q2 0 4-2t4 0q4 2 7 2t7 0m3-91l-7 7q-5 5-12 1t-11-8q-3-4-3-8t3-9 6-5q6-1 13-1t8 9q0 5 4 8t-1 6m-13-3l2-2q1-1 0-1t-1-3-2-2-4 0q-2 1-2 4 0 2 1 2 1 1 2 2t4 0m130 107q-6 0-8-2t-4-6q-2-4 3-7t11-2h41q4 0 5-1t2-5v-107l2-13-2-15 2-10-2-42q-6 0-9 0t-5 1-12 1q-4 0-8 2l-17-4q-2-4 2-10t9-5h40q0-9-1-15t-3-9q3-3 3-15t1-28 0-29 0-16 3-6 6-3 5-1 4-2q0-1 4-1t15 0 33 0q6 0 7 1t5 7q2 4-5 7t-14 2q-4 0-5 0t-4 1-10 0-23 0q-6 0-5 3t1 6v98h61q3 0 6 3t3 7q-1 2-4 5t-5 2q-5 1-11 1t-10-3q-5-4-9-3t-8 3-7 3q-4-1-7-1t-7-1-3 3q-1 2-1 6t0 11q0 2-1 2t1 5q1 2-1 3t1 7q1 2 0 5t-1 7q-1 12 0 20t1 25q-1 5-1 10t2 11q0 0-2 3t0 8q3 7 0 14-2 3 1 8t2 9q-2 3-1 6t-1 6q-2 4 0 9t2 10q0 1 1 2t3 2q13 0 17 0t6 0 6 0 20 0q4 0 12 3t7 6l-6 7q-16 0-24 0t-14 1-17 0-28 0-50 0m311 2q-9 0-25-3t-31-2-25 4q-4-3-12-3t-17 1-13 1h-6q-13 0-18-4t-5-8q0-11 14-22 6-4 11-9t11-9q6-8 15-14t17-10 13-11q9-11 21-18t21-14q9-8 18-15t18-16q4-4 11-8t16-7q5-5 10-7t10-4 5-9q0-7-4-16t-12-10q-2 0-13 1t-20 1-13 1q-5 0-10-1t-9-3q-2-1-6-1t-8 0q-9 1-12 1t-12-1q-4 0-7 1t-7 2q-10 1-13 2t-5 0q-5 0-10-2t-9-3q-2-1-2-4t2-3q5-1 7-4t7-2q3 0 16 0t32 0 36 0 31 0 15 0q14-3 23-2t12 6q2 2 3 8t1 12q0 27 1 44t1 27 0 21 0 22-2 34q0 3 0 7t0 7q0 5 0 9t3 9q-2 8-5 14t-11 6q-9-1-13 0t-7 1-6 1-13 1q-5 0-10 0t-10 1m-81-15q4-3 15-4t22-1 23 1 15 1q9 0 18 0t18-1q4 0 10-1t12-4 4-14q0-11 0-28t0-36 1-36 2-28q-5 8-15 11t-19 8-14 12q-11 9-22 20t-23 16q-4 1-8 5t-7 7q-7 7-20 16t-23 16-16 11q-2 1-6 5t-7 9-4 9 4 3q3 0 11 0t16 0 13 3m72-37q-9 0-13-6t-3-10q0-6 5-10t15-4q5-1 8 1t6 6q4 5 0 11-3 4-8 8t-10 4m1-11q4 0 5-4 1-1 0-3-2-2-3-1-5 0-5 3 0 1 0 3t3 2m232 66q-5 0-7-1t-2-6v-67q0-3 1-6t3-4q1-1 0-4t0-4v-35q0-2 0-5t-2-6q-1-1 1-4t2-6q0-4-2-6t-1-5q0-3 2-5l-2-23q3-3 1-7t-3-7q-1-3 2-5t0-5q-1-1-2-9t0-16 1-15 2-7q-3-7-3-18t4-15q0-4 1-7t-3-6q-2-4-2-7t3-6q4-6 1-13-5-5-4-11t4-12q2-1 4-2t4 1q1 1 6 3t9 7 4 7q1 2 5 2t3 5q39 25 57 39t22 18q2 4 6 6t8 5q20 16 36 27t30 23q4 3 8 6t7 7q2 3 7 7t11 9 5 8q0 1-8 9t-18 18-16 14q-2 1-14 10t-31 23-40 29-39 29-31 23-13 12q-2 3-5 5-3 1-6 2t-6 1m5-21q0 1 1 1t6-3q4-4 11-9t10-9q2-2 12-10t24-17 23-16 13-9q3-2 9-7t9-8 6-5 8-4q3-2 5-5t7-4q17-12 30-22t25-22q4-4 3-7t-2-2q-3-2-7-4t-5-5q-1-2-5-3t-3-4q-1-1-3-4t-3-3q-11-5-17-9t-15-10q-2-4-9-11t-17-14-18-13-10-8q0 0-8-5t-17-13-22-15-21-15-13-11q-1-1-2 2t-1 6q-1 25-1 48t0 49q0 3 3 7 1 1 0 4-2 1-2 7t-1 15 0 14 1 8l-1 119q0 2-2 5t2 6q1 1-1 3-1 2-2 6t0 6m76-136q-9 0-12-7t-4-9q0-6 5-11t15-4q9 0 15 7 4 6 0 12-4 4-9 8t-10 4m2-12q3 0 5-3 1-1 0-3-2-2-4-1-5 0-5 3 0 1 1 2t3 2m271 164q-8-1-11-1t-6 0h-34l-47 1q-8 0-12-2t-3-5q-1-3 1-6t2-3q4-1 20 0t39 0q1 0 2 0t0-3q-2-3-1-7t1-7q0-4-1-7t0-7 2-7 1-6v-136q0-4-1-9t-3-4q-6-2-16-2-8 0-16 0t-15 1q-2 0-6 0t-7-1q-2-1-4-3t-2-4q3-7 10-7h143q4 1 4 8 0 4-8 7t-16 3q-3 0-5-1t-4-1q-4 3-9 3l-17-3q-6 0-9 4t-3 11v9q-1 7-2 13t-1 16q1 4 2 8t2 10q0 6-1 12t1 14q1 3 0 6t-1 4q-2 3 0 6t1 7q0 4-1 8t1 6q2 3 1 7t-2 14q0 0 0 11t-1 25q0 0 3 1t10 1h55q2 0 3 3t1 6q0 2-5 3t-13 3-14 1-8 0m-38-241q-7 0-13-3t-7-7q-1-3 0-11t8-10q4-4 9-6t9 1q2 2 6 4t6 3q6 5 3 10-3 7-8 13t-13 6m145 242q-2-1-5-1t-5 0q-4-1-7-1-2 0-4 0t-5 1q-11-2-11-8 0-3 3-6t11-1q6 0 12-3 5 0 8 3 0 0 1 0t2 0q9-4 15-4 16 1 25 1t17 1 16 0 26 1q4-3 9-4t9 0h2v-83q-6 0-19 0t-30 0-33 0-29-1-18 0q-12 0-16-3t-7-15q0-25 0-37t-1-17q0-6 1-11t4-10q1-1 0-2-2-3-3-9t-1-11 3-6q4-2 11-2 6 0 12 1t7 1q10-2 15-2 6 0 14 2 9 0 10 0t3 0 11 0q18 0 28 0t18 0q5-2 13-2h6q3 1 5 1t5 1q4 0 7 2t0 6q-3 4-6 7t-6 8q-11 8-27 19t-33 22-32 22-27 20q36 0 61 0t27 1q8-4 16-4t18 3q2 1 4 2t4 3l1 5 1 8q0 7 0 23t1 30q0 16-2 29t-9 14q-5 1-9 2t-10 2-6 0-7 0l-81 1q-3-4-6-1t-7 2m-16-125q9-6 24-17t30-21 27-18 16-8q5-6 14-13t13-10h-95q-4-4-7-1t-6 2q-2-1-8-3t-8-2q0 3 0 13t0 23 0 26 0 21 0 8m78 76q-9 6-22-1-3-2-7-6t-2-6q1-2 3-7t6-8 6-4q4 2 8 3t8 8q2 4 3 11t-3 10m-8-9q1-1 0-4t-1-2q-1-2-4-4-1 0-3 3t-1 3 0 1 3 2q1 0 3 1t3 0m131 157q-3-1-5-3t-2-7v-125q0-8 3-13-2-3-3-7t-1-6l1-149v-13q0-2 2-5t12-3l20 2q3 1 6 1t6 3q2 1 5 1t6-1h109q3 0 6 0t5 1q3 0 6 2t3 7v80q0 3-3 5t2 6q2 2 0 4t-2 5q-1 11-1 22t0 24q6 6 1 12 2 3 2 6t-2 7q4 4 1 9t-2 13q1 4-2 6t-6 3q-1 2-4-1-4-2-15-13t-27-28-33-34-32-35-25-26q-3-3-9-11t-12-17q-5 4-2 7t2 6q-1 4-3 8t1 8q4 6 1 12-4 4-3 9t0 11q4 4 4 10l0 134q0 2 0 5t0 5q0 3-1 5t-2 5q0 2 1 4t-1 5q-2 1 0 5t3 6q0 2 0 8t0 12 0 8q-2 5-10 5m160-136q0-3 1-12t3-12q0-2 0-4t0-4q-4-6-1-10-4-4-4-11t-1-11 0-6 2-6q-3-4 0-7t2-8q-1-2-1-7t0-20 0-48q0-6-4-6h-122q-4 0-7-1t-6-2q-2-2-6-1t-5 2 2 7q2 2 7 9t12 16 7 12q1 3 5 7t6 7q27 28 54 57t56 59m-35-112l-7 7q-5 5-12 1t-11-9q-3-4-3-8t3-9 6-5q6-1 13 0t8 8q0 6 4 8t-1 7m-13-3l2-2q1-1 0-2t-1-2-2-3-4 1q-2 1-2 4 0 1 1 2 1 1 2 2t4 0m120 156q-4-1-7-4t-3-6q0-3 0-11t0-17 1-17 0-11q0-4-1-10t-3-20q2-10 3-23t1-22q0-4 0-9t-1-16 0-32q0-10 1-19t-1-12q-2-3-2-9t1-9 1-5q0-2 1-6t-1-5q-3-3-1-9t1-12q0-3 2-7t-2-7q0 0 1-6t-1-10q0-2 0-4t0-4q-2-3-1-7t1-7q0-9 2-15t12-3q5 5 5 10t-2 11-1 8v294q0 4 3 5l58-39q15-11 22-15t11 2q2 3 0 4t-3 6q0 8-6 9t-10 6q-11 8-24 18t-25 17-22 13-10 5m258-3q-9 0-25-3t-31-2-25 4q-4-3-12-3t-17 1-13 1h-6q-13 0-18-4t-5-8q0-11 14-22 6-4 11-9t11-9q6-8 15-14t17-10 13-11q9-11 21-18t21-14q9-8 18-15t18-16q4-4 11-8t16-7q5-5 10-7t10-4 5-9q0-7-4-16t-12-10q-2 0-13 1t-20 1-13 1q-5 0-10-1t-9-3q-2-1-6-1t-8 0q-9 1-12 1t-12-1q-4 0-7 1t-7 2q-10 1-13 2t-5 0q-5 0-10-2t-9-3q-2-1-2-4t2-3q5-1 7-4t7-2q3 0 16 0t32 0 36 0 31 0 15 0q14-3 23-2t12 6q2 2 3 8t1 12q0 27 1 44t1 27 0 21 0 22-2 34q0 3 0 7t0 7q0 5 0 9t3 9q-2 8-5 14t-11 6q-9-1-13 0t-7 1-6 1-13 1q-5 0-10 0t-10 1m-81-15q4-3 15-4t22-1 23 1 15 1q9 0 18 0t18-1q4 0 10-1t12-4 4-14q0-11 0-28t0-36 1-36 2-28q-5 8-15 11t-19 8-14 12q-11 9-22 20t-23 16q-4 1-8 5t-7 7q-7 7-20 16t-23 16-16 11q-2 1-6 5t-7 9-4 9 4 3q3 0 11 0t16 0 13 3m72-37q-9 0-13-6t-3-10q0-6 5-10t15-4q5-1 8 1t6 6q4 5 0 11-3 4-8 8t-10 4m1-11q4 0 5-4 1-1 0-3-2-2-3-1-5 0-5 3 0 1 0 3t3 2m173 161q-4 0-4-5 0-3 2-6t3-7q1-1 1-5t0-5q0-2 1-4t3-5q1-1 4-7t6-12 3-7q0-6 5-11t5-10l4-10q-2-4-4-8t-3-7q-8-13-12-24t-14-23q-1-6-4-16t-7-19-6-15q-4-9-9-17t-7-17q-2-7-7-18t-10-22-8-18-4-10q0-6-2-10t-1-5q0-3 4-3t16-1q18 1 46 1t60 1q18 0 35-1t35-1q7 0 12 1t6 4q2 3 2 8 0 6-4 13t-7 13-3 14q0 2-2 3-5 5-8 11t-5 12q-4 10-11 24t-15 32-14 31-9 24q-2 8-9 19t-11 21-5 10q-3 6-8 16t-8 16q-3 5-5 13t-10 19q-4 14-9 19t-8 4m42-111q2-3 7-15t13-29 14-33 14-31 9-18q8-12 14-26t13-25q3-4 2-11t4-12q-5 1-14 2t-18 1q-4 0-7 0t-6-1q-12-3-24-3-8 0-20 0t-26 1-23 0-15 0q-1-1-6-1t-11 1-8 0q0 8 5 15t8 15q1 6 4 11t4 11q2 5 4 8t4 9q0 3 3 11t8 16 6 12q2 4 8 16t12 27 13 29 9 20m7-112q-17 0-18-2-3-3-4-7t-3-7q-1-2 3-7t8-5q3 0 5-2t7 0q5 2 8 6t5 9q1 2-4 8t-7 7m-5-11q1 0 2-2t1-3q-1-1-2-3t-2-1q-1-1-2-1t-1 1q-1 1-3 2t-1 2q1 2 3 4 0 1 5 1" />
</svg>