<svg id="fnt-Sansita" viewBox="0 0 1471 1000" xmlns="http://www.w3.org/2000/svg"><path id="sansita" class="f" d="M122 327q43 0 69 16t27 53q0 18-11 29t-28 12q-18 0-26-8 4-11 4-25 0-44-39-44-19 0-30 9t-11 27q0 17 9 30t21 24 35 26q26 17 41 31t27 33 11 44q0 45-30 69t-79 25q-44 0-73-18t-29-55q0-18 11-30t28-11 26 8q-4 10-4 25 0 48 45 48 22 0 36-13t14-33q0-16-8-30t-22-24-34-25q-26-18-42-32t-27-33-11-44q0-40 28-62t72-22m283 317q-10 17-28 25t-41 9q-35 0-58-21t-23-55q0-81 144-81v-43q0-25-7-38t-29-12q-17 0-29 9t-11 26q0 11 4 23-7 5-20 5-18 0-29-9t-10-26q0-24 27-39t72-15q33 0 52 9t27 30 8 55v130q0 24 16 33-4 7-12 11t-18 4q-14 0-24-8t-11-22m-50 0q22 0 33-17t11-41v-40q-84 0-84 54 0 20 10 32t30 12m164 23v-255l46-6 3 45q9-24 29-37t46-12q42 0 59 23t16 71v130q0 24 16 33-4 7-13 11t-19 4q-20 0-29-11t-10-31v-129q0-32-7-47t-31-16q-30 0-41 27t-10 70v130h-55m345-239q-15 0-24 8t-9 22q0 20 13 32t41 27q22 12 35 22t23 24 10 36q0 38-28 58t-69 21q-36 0-61-13t-25-41q0-17 11-26t28-9q13 0 20 5-4 12-4 23 0 16 10 25t27 9q19 0 28-10t10-28q0-20-13-32t-41-27q-22-13-35-22t-23-25-9-35q0-34 27-52t65-18q36 0 58 12t23 42q0 17-11 26t-28 9q-13 0-20-5 4-12 4-23 0-16-9-26t-24-9m169-121q17 0 27 8t10 23q0 15-11 23t-27 9q-17 0-27-8t-10-23q0-16 11-24t27-8m26 105v214q0 24 16 33-4 7-13 11t-20 4q-19 0-28-11t-10-31v-220h55m73 22h-35l-1-15q23-9 43-24t34-33h16v50h46v22h-47v182q0 15 5 23t18 9q-3 12-14 19t-24 7q-41 0-41-46v-194m273 210q-9 17-28 25t-41 9q-34 0-58-21t-23-55q0-81 145-81v-43q0-25-8-38t-28-12q-18 0-29 9t-12 26q0 11 4 23-7 5-20 5-18 0-28-9t-11-26q0-24 27-39t72-15q33 0 52 9t27 30 9 55v130q0 24 15 33-4 7-12 11t-17 4q-15 0-24-8t-12-22m-49 0q22 0 33-17t11-41v-40q-85 0-85 54 0 20 11 32t30 12" />
</svg>