<svg id="fnt-Sarabun" viewBox="0 0 1745 1000" xmlns="http://www.w3.org/2000/svg"><path id="sarabun" class="f" d="M131 672q-34 0-64-15t-48-40l28-28q16 20 39 32t47 13q29 0 47-15t19-40q0-16-7-28t-21-23-43-25q-54-26-76-49t-21-54q0-40 29-64t77-24q33 0 61 14t40 39l-30 22q-12-17-31-27t-40-10q-28 0-44 13t-16 36q0 13 6 23t22 19 51 28q48 24 68 48t21 59q0 28-15 50t-40 34-59 12m238 0q-37 0-61-22t-23-55q0-38 28-58t80-21h52v-13q0-28-15-43t-43-14q-22 0-41 9t-31 27l-22-26q17-22 42-33t54-11q47 0 73 23t25 66v117q0 20 6 49h-37q-4-12-6-35h-1q-14 19-35 29t-45 11m6-34q19 0 35-7t25-20 10-27v-37h-53q-32 0-49 12t-17 36q0 20 13 31t36 12m180 29v-189q0-43-1-61h39q2 20 2 44v5h2q9-26 30-40t50-14q8 0 14 1v35q-6-1-17-1-21 0-39 12t-27 35-10 48v125h-43m246 5q-37 0-61-22t-23-55q0-38 28-58t80-21h52v-13q0-28-15-43t-43-14q-22 0-41 9t-31 27l-22-26q17-22 42-33t54-11q47 0 73 23t25 66v117q0 20 6 49h-37q-4-12-6-35h-1q-14 19-35 29t-45 11m6-34q19 0 35-7t25-20 10-27v-37h-53q-32 0-49 12t-17 36q0 20 13 31t36 12m296 34q-24 0-46-13t-33-32h-1q1 16-1 40h-39q2-17 2-63v-308h42v154h1q25-38 76-38 48 0 76 33t28 92q0 63-29 99t-76 36m-6-34q32 0 50-27t18-73q0-44-18-69t-50-25q-31 0-51 21t-19 56v46q0 32 19 51t51 20m246 34q-43 0-66-28t-22-83v-144h43v145q0 76 54 76 21 0 38-11t26-30 10-43v-137h42v197q0 25 5 53h-39q-5-22-5-45h-2q-11 23-34 36t-50 14m188-5v-187q0-48-2-63h39q2 16 2 44h2q11-23 33-36t51-13q44 0 66 28t22 85v142h-42v-142q0-40-14-60t-41-19q-21 0-38 10t-26 30-10 44v137h-42" />
</svg>