<svg id="fnt-Satisfy" viewBox="0 0 1264 1000" xmlns="http://www.w3.org/2000/svg"><path id="satisfy" class="f" d="M179 443q0-2 3-8t8-15 8-21 6-23 0-25-11-23q-5-6-14-7t-22 3-24 11-24 18-18 22-9 25q-1 10 1 19t4 16 7 14 6 11q4 7 12 15t18 19 20 24 17 30 10 37 0 45q-6 36-17 60t-26 39-28 21-23 9q-8 1-18 3t-21-1-22-7-20-16q-10-12-16-26-6-12-8-28t2-33q4-4 9-8t9-6q4-3 10-5 6-2 13-3 5-1 11-2t11 2q-7 8-10 16-2 4-3 7-2 9-1 22t5 25 14 20 23 9q36 1 61-55 8-18 8-36t-4-35-12-31-16-24-18-23-22-26-19-31-12-36q-4-27 5-50t25-40 33-27 33-14q78-16 103 26 10 16 11 34t-2 34-8 26-6 11q-3 3-9 7t-21 6q-4 1-8 1-3 0-7-1t-7-1m309 126q-7 10-18 25t-22 28-22 27-19 17q-5 3-11 5t-13 2-12-1-11-4q-4-3-7-10-2-5-5-14t-1-22q-12 20-26 30t-27 16q-15 5-29 6-7 0-15-5t-13-14-7-26 4-38q7-30 22-54t32-42 35-26 28-8q13 3 22 8 6 5 9 14t-8 25q6-1 11-2t7 0q3 0 4 0 0 1 0 5t-1 11-4 23-8 36q-1 5-2 8t-1 8-2 8-3 12q0 5 0 10t2 9 5 7 9 3q5 0 12-6t17-16 18-21 18-22 15-19 9-12q4-4 8-5t6 2 1 9-7 13m-143 22q2-10 6-23t5-25 4-21-1-7q-2 0-5 1-2 1-6 2t-8 1q4-8 4-13t1-8q-1-3-2-5-6-5-19 7t-31 42q-7 13-12 27t-6 27-1 23 4 12q6 5 13 5t13-4 15-9 12-13 10-11 4-8m290-48q2-3 5-4t6 1 2 5-3 9q-10 19-26 40t-33 41-34 31-28 12q-16 0-27-6t-17-16-8-20-2-21q1-7 4-28t7-47 11-57 13-59q-8 1-16 2t-15 1q-16 0-30-3t-21-7q-4-2-3-6t3-7 6-7 7-2q9 1 20 1t23 1q9-1 18-2t17-2q6-24 12-41t11-24q2-3 7-4t11-3 11 0 8 4q2 4 2 20t-6 41q21 0 37 2t27 5 18 5 10 4 4 5-2 8-5 7-9 2q-5-1-11-2t-15-2-20-2-27-1q-3 0-7 0t-7 0q-2 8-4 16t-5 15q-6 20-14 43-8 20-18 46t-23 55q-3 21 1 32t9 16q6 5 15 6 8 1 18-5t22-17 23-22 21-24 17-21 10-14m78-164q-1 5-5 11t-10 8-10 4-9-2q-10-8-11-17t5-17 12-14 13-6 9 2 5 8 3 12-2 11m-67 104q2-3 9-5t14-3 14-1 7 0q0 0-2 10t-8 23-9 27-7 23-6 20-6 21-4 20 1 14q3 6 6 8t6 2q10 0 25-11t30-25 29-30 19-25q4-5 8-6t7 0 3 6-3 11q-8 13-23 32t-32 36-34 30-26 13q-9 0-17-3t-14-9-11-13-5-16q-2-12 0-33t5-44 10-42 14-30m166 167q3 2 8 2t9-2 9-5 6-9 0-15-6-22-9-23-9-22q-3-7-5-13-2-6-3-11t-3-7q-2 4-8 13t-14 18-13 18-9 11q-4 4-7 5t-7-2-2-6 3-10q3-4 9-12t12-18 11-16 5-9q1-4-3-10t-1-15q2-6 9-15t16-17 19-11 18 0q6 4 10 9t3 9q-1 3-3 7t-6 9-11 15q1 11 4 20t5 16q3 9 6 16 5 8 10 18t9 18 6 17 1 13q-1 8-8 20t-18 23-24 18-28 8q-10 0-20-6t-16-15-9-17-1-13q3-5 5-9t8-8q1-1 4-3 3-2 7-3t11-3q4 15 8 23t7 14q3 5 5 7m117-34q-6-6-8-11t-3-10q-1-5 0-10 2-7 6-13 3-5 9-11t16-11q6-15 11-33t9-31q5-17 8-33 12-42 13-68t-1-34q-1-4-1-7-1-3-2-7t-2-7q6-3 10-5t7-3q3-1 6-2 12-2 22-2t11 3q0 3 1 9t1 16-2 21-5 24q-4 11-10 31-5 17-14 46t-23 73q15-5 33-10t35-7 37-4 34-1q3 0 4 3t0 5-5 6-12 3q-10 1-22 2t-24 4-25 5-22 8q-9 3-17 6-7 2-14 5t-13 6l-11 36q28 20 44 41t22 38q8 21 9 40 0 22-6 43t-17 42-25 37-29 29-31 19-30 5q-10-1-17-7t-11-14-3-19 2-21q1-10 8-38 5-24 16-68t31-119m29 23q-7 24-12 45t-9 36q-4 18-7 33-4 18-9 36t-7 33-2 23 6 9q14 1 30-11t28-31 21-39 8-39q0-20-6-40-5-10-11-20-5-8-13-18t-17-17m252-152q6-5 12-8t11-3q6-2 11-1 13 1 16 8t1 23q-1 9-6 21t-10 31-12 42-13 53q-6 24-12 55-6 27-14 66t-18 88q-2 13-10 15t-17-2q-3-2-6-5-3-2-6-5t-5-9q12-41 20-75t15-58q8-29 14-52 3-10 5-20t4-20q-6 10-13 20t-16 16-19 10-21 2q-26-3-37-19t-10-42q1-10 3-23t6-23 5-20 4-13q6-19 9-32t-4-22q7-4 13-6t11-3q5 0 10 0 14 2 16 10t-2 23q-2 9-6 22t-10 26-8 25-5 17q-4 22 0 34t17 12q6 0 14-6t16-15 16-21 14-24 12-24 7-21q4-18 5-28t-7-19" />
</svg>