<svg id="fnt-Sawarabi Gothic" viewBox="0 0 3680 1000" xmlns="http://www.w3.org/2000/svg"><path id="sawarabi-gothic" class="f" d="M239 373l40-16q-21-56-124-56-58 0-89 24t-31 71v2q0 60 69 86 132 35 132 92 0 57-89 57-63 0-91-43l-41 12q23 72 132 72 139 0 139-102 0-73-122-118-82-23-82-62 0-25 21-38t57-13q70 0 79 32m247 110l-1 7q-122 2-152 49-15 25-15 57v1q0 31 25 53t74 22q44-5 68-46 2 29 22 41l37 1q-15-30-15-50v-113q0-107-99-107h-2q-68 0-107 39l25 24q30-28 85-28t55 50m-114 135q-8-11-8-27 0-29 31-47 31-19 90-21v39q0 6-4 16-8 28-25 39-17 12-47 12-30 0-37-11m324 49l54-219 54 219h50l74-267h-48l-52 212-49-206h-56l-52 207-47-213h-48l69 267h51m432-184l-1 7q-122 2-151 49-15 25-15 57v1q0 31 25 53t73 22q44-5 68-46 2 29 23 41l36 1q-15-30-15-50v-113q0-107-98-107h-3q-67 0-107 39l25 24q30-28 85-28t55 50m-114 135q-7-11-7-27 0-29 31-47 31-19 89-21v39q0 6-3 16-9 28-26 39-16 12-46 12-31 0-38-11m345-220q-26 0-48 17-22 17-32 48v-53h-46v258h46v-147q0-39 20-59t62-21q10 0 20 2l0-44q-17-1-22-1m220 85l-1 7q-122 2-152 49-15 25-15 57v1q0 31 25 53t74 22q44-5 68-46 2 29 22 41l37 1q-15-30-15-50v-113q0-107-99-107h-2q-68 0-107 39l25 24q30-28 85-28t55 50m-114 135q-8-11-8-27 0-29 31-47 31-19 90-21v39q0 6-4 16-8 28-25 39-17 12-47 12-30 0-37-11m340-219q-49 0-71 46v-148h-45v371h45v-37q15 43 71 43 48 0 77-39 30-40 30-103t-30-97q-29-36-77-36m61 137q-1 42-18 67-18 26-49 26-59 0-65-77v-35q4-72 65-73 64 0 67 92m106-219v49h50v-49h-50m3 89v262h46v-262h-46m562 247l10-5v-172h-139v36h93v105q-32 13-67 13-148 0-148-145 0-142 150-142 80 0 99 29l5-46q-38-23-104-23-198 0-199 187 0 183 198 183 57 0 102-20m264-218q-37-39-90-39-54 0-89 39t-35 99 35 101 88 42 90-42q37-41 37-101t-36-99m-148 28q21-30 56-30t57 30q21 29 21 70t-21 74q-22 32-57 32t-56-32q-20-32-20-73 0-42 20-71m365 176l-3-18q-13 13-40 13-41 0-41-41v-146h74v-37h-74v-77h-46v77h-36v37h36v153q0 70 69 70 50 0 61-31m212-145v174h49v-182q0-88-105-88-41 0-64 48v-149h-47v371h47v-143q0-36 12-63 13-28 55-28 53 0 53 60m119-177v49h50v-49h-50m4 89v262h45v-262h-45m326 212l-35-3q-5 17-46 17-41 0-64-30-23-30-23-70t26-67q26-26 63-26 37 0 44 25h35q-10-62-87-62-48 0-88 33-40 34-40 97t38 102q38 39 101 39t76-55" />
</svg>