<svg id="fnt-Scheherazade New" viewBox="0 0 3477 1000" xmlns="http://www.w3.org/2000/svg"><path id="scheherazade-new" class="f" d="M227 590q0 26-13 45t-35 29-46 10q-16 0-31-4t-29-9-20-5q-8 0-10 6t-4 12h-8v-104h8q5 39 27 63t62 23q15 0 28-5t23-17 9-27q0-17-12-30t-29-24-39-22-38-23-30-29-11-40q0-24 12-42t32-27 43-9q13 0 27 4t24 8 18 5q7 0 10-6t4-11h9v103h-9q-2-23-12-43t-28-31-43-12q-13 0-25 6t-20 16-8 24q0 16 12 29t31 22 39 22 40 23 30 30 12 40m204-3l7 3q-4 21-15 40t-29 31-41 12q-30 0-49-16t-28-41-10-50q0-29 12-53t34-39 51-16q14 0 30 6t27 16 12 27q0 10-6 14t-15 5q-12 0-16-6t-7-13-3-16-8-13-21-5q-20 0-31 11t-17 29-5 34q0 14 4 30t11 30 20 22 30 9q25 0 40-16t23-35m245 71v9h-99v-9q19 0 26-6t6-27v-79q0-15-2-29t-8-23-22-9q-16 0-29 10t-22 19v111q0 20 6 27t26 6v9h-100v-9q20 0 26-7t6-26v-213q0-14-3-23t-12-8q-5 0-9 1t-8 2l-3-7 61-24h10v148q12-18 29-30t38-13q20 0 30 9t16 23 6 29 1 31v75q0 19 6 26t24 7m184-70l6 5q-3 21-14 39t-29 30-40 11q-29 0-48-15t-30-40-10-50q0-30 10-54t31-40 53-16q36 0 57 24t20 59h-139q0 21 7 44t25 37 41 15q23 0 38-14t22-35m-133-60h93q0-13-4-26t-15-20-25-8q-22 0-35 17t-14 37m376 130v9h-99v-9q19 0 26-6t6-27v-79q0-15-2-29t-8-23-22-9q-16 0-29 10t-22 19v111q0 20 6 27t26 6v9h-100v-9q20 0 26-7t6-26v-213q0-14-3-23t-12-8q-5 0-9 1t-8 2l-3-7 61-24h10v148q12-18 29-30t38-13q20 0 30 9t16 23 6 29 1 31v75q0 19 6 26t24 7m184-70l6 5q-3 21-14 39t-29 30-40 11q-29 0-48-15t-30-40-10-50q0-30 10-54t31-40 53-16q36 0 57 24t20 59h-139q0 21 7 44t25 37 41 15q23 0 38-14t22-35m-133-60h93q0-13-4-26t-15-20-25-8q-22 0-35 17t-14 37m306-45q0 8-6 14t-14 7q-7 0-12-4t-10-8-9-4q-6 0-14 10t-15 24v98q0 19 7 29t28 9v9h-104v-9q15 0 21-3t9-12 2-22v-87q0-21-3-34t-16-12q-6 0-13 3l-3-8 63-25h9v46q5-9 12-20t18-18 22-8q11 0 20 7t8 18m202 142v12q-9 12-21 23t-27 11q-15 0-19-11t-5-23q-15 12-30 23t-35 11q-23 0-35-15t-13-37q0-19 12-33t30-24 38-17 33-12v-8q0-14-3-26t-10-20-25-7q-20 0-25 10t-5 27q0 10-3 16t-15 5q-11 0-15-5t-4-16q0-18 12-29t30-16 32-6q38 0 53 16t15 53v69q0 9 0 20t1 16q0 4 3 7t6 4q4 0 9-4t9-8 7-6m-72-2v-78q-15 6-33 14t-30 21-13 28q0 13 9 25t23 12q11 0 23-8t21-14m266-158v8l-136 179h74q21 0 31-4t13-14 7-29h7l-3 62h-178v-9l134-179h-66q-17 0-26 3t-14 12-6 26h-8l1-55h170m207 160v12q-8 12-20 23t-28 11q-14 0-18-11t-5-23q-15 12-30 23t-35 11q-23 0-35-15t-13-37q0-19 12-33t30-24 38-17 33-12v-8q0-14-3-26t-10-20-25-7q-20 0-25 10t-5 27q0 10-4 16t-14 5q-11 0-15-5t-4-16q0-18 12-29t30-16 32-6q38 0 53 16t15 53v69q0 9 0 20t1 16q0 4 2 7t7 4q4 0 9-4t9-8 6-6m-71-2v-78q-15 6-33 14t-30 21-13 28q0 13 9 25t23 12q11 0 23-8t21-14m298 17l2 8-61 25h-10v-29q-12 12-27 21t-32 8q-27 0-45-15t-28-37-10-47q0-21 7-41t19-37 31-27 41-11q12 0 24 4t20 13v-65q0-13-3-21t-12-8q-4 0-8 1t-8 2l-3-7 61-24h10v252q0 17 2 28t14 11q4 0 8-1t8-3m-69-12v-104q0-13-6-25t-17-20-24-7q-15 0-26 8t-17 21-9 28-2 27q0 14 3 30t10 30 19 24 29 9q12 0 22-6t18-15m250-40l7 5q-3 21-14 39t-29 30-40 11q-29 0-49-15t-29-40-10-50q0-30 10-54t31-40 52-16q37 0 57 24t21 59h-140q0 21 8 44t24 37 42 15q23 0 37-14t22-35m-133-60h94q0-13-5-26t-14-20-25-8q-23 0-35 17t-15 37m503-161h105v8q-19 0-28 4t-12 12-3 28v252h-8l-198-241v184q0 19 3 28t12 13 28 3v9h-105v-9q19 0 28-3t12-13 3-28v-208q-11-15-21-23t-29-8v-8h73l183 225v-173q0-18-3-28t-12-12-28-4v-8m292 221l6 5q-3 21-14 39t-29 30-39 11q-29 0-49-15t-30-40-10-50q0-30 11-54t31-40 52-16q37 0 57 24t20 59h-139q0 21 8 44t24 37 41 15q24 0 38-14t22-35m-133-60h93q0-13-4-26t-14-20-25-8q-23 0-36 17t-14 37m411-63h64v8q-10 1-17 8t-11 17l-68 175h-9l-51-129-58 129h-8l-65-170q-6-14-11-21t-22-9v-8h85v8q-7 0-13 2t-5 12q0 8 3 16l43 116 44-94q-5-14-9-26t-11-19-24-7v-8h97v8q-10 0-19 3t-9 14q0 3 5 15t11 29 13 33 13 30 7 17l42-111q2-5 3-10t2-9q0-8-8-10t-14-1v-8" />
</svg>