<svg id="fnt-Seaweed Script" viewBox="0 0 2803 1000" xmlns="http://www.w3.org/2000/svg"><path id="seaweed-script" class="f" d="M92 383l5-7q2-4 3-7t3-8q9-5 17-12t18-13q7-5 11-7t8-4q5-2 9-4t9-3q4-1 7-3t6-3q7-2 14-4t13-4q2-1 6-3t6-1q5 1 7 1t2-1q4 0 6 1t7 3q2 1 5 1t5 2 4 2 4 4q2 1 3 2t4 3q4 8 9 17t5 20q-3 4-4 4t-1 1q-5 3-8 6t-5 6l-7 7q-1 1-3 1t-3 3q-4 2-6 5t-6 5q-5 5-11 8t-12 7q-5 4-7 5t-3 2q-5 3-10 5t-9 4q-3 1-5 3t-5 1q-3-1-5-2t-5 2q-6 1-12-2t-6-9q-6-5-3-14 1-3 4-7t4-8q3-4 5-8t4-8q7-8 14-14t18-9q3-1 7-2t6-2q1 1 3 0t3 0q2 2 1 4t0 4q-2 2-4 3t-5 1-4 2-2 4q-14 12-25 30 2 1 4 2t5 2q4 1 9-2t8-4q14-7 24-17 3-3 7-6t4-6q2-2 4-4t4-4q0-5-2-7t-4-6-4-5-4-6q-2-1-4-3t-4-4q-1 0-4 0t-4-1q-12 3-19 6t-13 6q-17 8-31 20-2 1-4 2t-3 2q-2 2-4 5t-4 6q-2 3-5 6t-4 7q-3 2-4 6t-3 7q-1 4-2 7t-3 7q4 9 7 14t4 10q1 5 3 9t6 10q6 11 12 23t13 24q2 7 5 14t8 11q1 3 3 7t3 6q2 6 5 13 2 4 4 7t3 6q2 4 3 11t1 11q0 5-1 6t-1 4-2 2-2 6q-5 8-10 14t-11 15q-3 4-6 7t-7 6q-3 2-7 4t-7 5q-8 7-17 10t-17 9q-3 0-6 1t-5 1q-3 1-6 2t-5 2q-3 1-4 2t-4 2q-7 2-15 2t-16-2q-10-3-15-3t-9-4q-2-1-2-2t-3-3q-5-4-6-5t-3-3q-8-6-12-13-2-3-3-5t-2-5q-1-3 0-6t-1-6q0-3 0-7t-1-7q0-4 1-9t0-7q1-6 3-9t5-7q8-4 14-7t11-6q3-1 4-2t4-2q5-3 9-4t11-4q4-3 9-5t9-4q3 0 5-1t6-2q1 0 3 0t3 1q2 0 5 0t6 1 4 2 5 2q4 4 6 8t4 9q1 2 1 6t1 8q0 7-5 11t-9 9q-6 3-15 8-5 0-9 2t-9 4q-2 0-5 0t-6 0q-2 1-4 2t-5 1-4-4 0-6q3-5 8-6t11-4q5-3 9-7t7-7q3-3 6-6t2-8q-5-3-10-2t-10 3q-9 4-18 9t-16 8q-4 1-6 3-1 2-2 4t-1 5q-4 7-2 14 1 3 2 5t2 5q2 2 3 3t3 4q1 1 2 1t3 1q5 3 12 5 3 1 9 3t9 2q2 1 6-1t7-2q11-6 23-11t23-12q4-2 7-5t6-7q4-6 7-14t5-16q0-2 0-3t0-4q-3-5-3-6t0-2q-4-6-4-8t-2-5q-4-5-8-9t-7-12q-3-2-4-6t-5-5q-1-2-2-4t-1-5q-3-3-5-7-3-2-5-5t-4-7q-4-3-6-5-1-3-3-6t-3-5q-2-3-4-5t-3-4q-4-5-7-10t-3-13q1-6-2-10t-2-11q3-7 6-14t4-13q3-1 3-3t2-6m225 144q-3 5-6 9t-8 7q-3 5-7 10t-8 8q-2 4-4 6t-6 5q-1 2-3 5t-4 5-3 5 1 6q5 1 10-1t10-4q3-3 8-5t7-4l13-12q3-3 6-7t5-7q1-5 4-10t2-10q0-3-1-5t-2-5q-5 0-8 2t-6 2m-78 32q1-1 4-4t7-9 7-8 5-4q2-3 3-4t4-3q3-8 10-12t12-11q9-4 19-10t21-7q5 2 11 1t9 3q3 4 4 5t3 3q2 7 3 8t2 4q0 8 1 11t0 6q-2 13-5 25-1 3-2 6t-3 6q-3 4-5 7t-3 5q-6 6-10 10-4 3-9 5t-10 4q-2 2-4 3t-5 2q-5 3-10 5t-10 4q-3 1-6 3t-7 4q-3 1-7 2t-7 2q3 5 2 12t3 12q6 2 14 2t14 0q2 0 5-2t6-1q6-1 11-3t9-4q14-5 27-13t23-18q6-4 13-11t11-12q7-8 13-13t10-3q4 0 8 4t-1 10q-5 3-10 9t-11 8q-5 3-11 11t-11 12q-2 2-5 4t-6 6q-6 5-14 10-3-1-5 1t-3 4q-2 1-4 2t-3 2q-4 3-8 7t-10 6q-10 6-19 10t-19 10q-3 1-6 1t-5 1q-3 1-5 1t-6-1q-9-3-15-6t-11-10q-3-3-7-5t-5-6q-1-2-3-7t-4-12-2-12-1-9q1-2 2-7t2-10 2-11 1-6q1-1 2-5t5-8 3-8 2-4m311-28l0 4q0 1-1 6-3 3-3 6-1 2-2 3t-1 4q-1 3-1 7t0 8q-1 5-1 10t-1 11q0 5-1 12t-2 12q2 3 2 7t3 7q10-2 16-5t11-9q5-2 6-4t6-3q1-1 2-2t2-2q5-3 7-4t3-2q8-6 12-11 5-4 7-7t7-5q4-4 7-6t7-7q3 0 4 1t4 2q1 4 0 8t-3 8-3 4 0 1q-2 2-4 3t-4 4q-2 4-4 4t-2 1q-4 3-6 4t-6 4q-5 3-6 4t-2 1q-6 7-11 11t-11 11q-2 2-4 3t-4 4q-4 3-7 6t-6 7q-3 1-6 4t-8 5q-2 1-4 2t-4 1q-6 1-11-1t-9-3q-2-3-5-5-5-5-7-12t-4-16q-3 3-7 6t-9 7q-9 9-20 18t-23 17q-1 2-3 3t-2 0q-2 3-7 4t-9 0q-5-3-8-4t-8-3q-9-1-14-7t-10-14q-1-3-2-7t-2-8q0-4-1-6t0-5q-1-2-1-4t1-3q-1-7 1-15t5-14q1-2 4-5 1-1 1-3t2-2q1-2 3-3t3-3q2-4 6-6t6-6q1-1 2-3t4-3q2-4 4-6t6-4q8-11 20-18t22-15q4-2 6-4t5-4q6-5 13-3t13 3q5 5 9 9t9 10q3 0 7 0t10-1q1 0 3-1t2 0q7 2 7 7m-64 7q-13 7-24 15t-21 18q-2 3-5 5t-4 5-4 6-3 6q-1 2-2 3t-2 3q-1 2-1 5t0 5q0 2 0 5t1 5q1 5 1 11 0 3 1 9t4 8 6 1 5-2q18-13 33-27t27-33q-1-13-1-25t-2-22q-2-1-5-1t-4 0m151 94q6-2 11-7 4-5 9-10t9-10q3-3 6-6t6-6q1-1 2-2t2-2q2-3 4-7t5-6q3-2 6-6t6-6q1-1 2-2t3-2q1-1 2-3t1-4q4-7 8-12 11-6 22-11t22-3q1 0 3 1t3 4q2 4 1 9t-5 8q-4 11-6 25t-1 27q-1 2 0 4t-2 4q2 4 5 8t9 4q5-2 7-2t2 0q2-1 3-2t3-2q1-2 2-3t2-2q5-6 10-13t9-13q3-5 5-9t4-9q1-3 3-6t2-5 0-8 0-8q2-3 2-6 4-5 4-6t0-2q1-1 2-2t1-3q8-8 20-13 9-1 15-4t11 2q-1 1 0 2t2 3q0 2 0 4t-1 3q-3 5-3 5t-1 1q-1 2-2 4t-2 6q-1 4-3 8t-5 9q-3 6-1 8t2 4q1 1 3 2t3 1 3 3 3 2q2 0 5 0t5 0q4 1 5 0t4-2q5-3 7-4t2-3q2-1 4-1t5-1q5-2 12-5t12-6q2 0 4-1t3-4q2 0 3-1t3 0q1 3 3 5t-2 4q-5 6-13 10t-13 10q-6 3-10 6t-12 5q-7 5-11 7t-6 2q-9 0-16 1-2 0-4-1t-5-1q-6-2-9-5t-6-6q-4 6-6 12t-7 11q-1 5-4 8t-4 9q-5 5-9 12t-8 11q-12 14-29 24-4-1-7 1t-6 1q-10 2-13-2t-7-5q-4-7-5-12t-2-11q-1-3-2-5t-1-5q-2-6-3-10t-3-10q0-4 0-9t-1-9q-9 1-11 6t-7 7q-2 6-5 8t-6 8q-5 3-9 8t-10 9q-5 3-6 5t-5 3q-1 3-3 5t-5 4-5 5-4 4q-2 3-4 4t-3 2-3 3-2 2q-7 4-11 7t-7 0q-4 1-7-1t-7-4q-2-3-4-6t-4-7q-3-4-5-9t-5-11q0-10-1-14t-1-10q1-6 4-11t5-9q0-4 2-6t1-5q4-12 9-18t8-14 6-15 6-13q2-4 3-8t4-8q1-1 2-3t3-2q4-1 7-3t7-4q3-1 5-1t5-1q6-4 9-5t4-1q4 3 6 6t1 8q-3 3-4 5t-1 3q-1 2-3 3t-3 4-2 3-2 3q-1 1-2 2t-2 2q-1 1-1 3t-2 3q-2 2-5 4t-3 4q-1 3-2 7t-2 8q-1 5-5 13t-6 13q-1 4-2 8t-1 8q-1 2-2 4t-1 3q-3 6-3 14t6 10m353-105q-4 5-7 9t-8 7q-3 5-7 10t-8 8q-2 4-4 6t-5 5q-2 2-4 5t-4 5-3 5 1 6q5 1 11-1t9-4q4-3 8-5t8-4l12-12q4-3 6-7t5-7q1-5 4-10t3-10q-1-3-2-5t-2-5q-4 0-7 2t-6 2m-79 32q1-1 4-4t7-9 8-8 5-4q1-3 2-4t4-3q4-8 10-12t12-11q10-4 19-10t21-7q6 2 11 1t9 3q3 4 5 5t3 3q2 7 3 8t1 4q1 8 1 11t0 6q-1 13-5 25-1 3-2 6t-2 6q-4 4-5 7t-3 5q-6 6-11 10-4 3-8 5t-10 4q-3 2-5 3t-5 2q-4 3-9 5t-11 4q-2 1-6 3t-7 4q-3 1-7 2t-6 2q2 5 2 12t2 12q6 2 14 2t14 0q3 0 6-2t6-1q5-1 10-3t9-4q14-5 27-13t23-18q6-4 13-11t11-12q8-8 13-13t11-3q4 0 7 4t0 10q-5 3-11 9t-11 8q-4 3-11 11t-11 12q-2 2-5 4t-5 6q-7 5-15 10-3-1-4 1t-4 4q-2 1-3 2t-3 2q-4 3-9 7t-10 6q-9 6-19 10t-19 10q-3 1-5 1t-5 1q-3 1-5 1t-7-1q-8-3-14-6t-12-10q-3-3-6-5t-6-6q-1-2-3-7t-3-12-3-12-1-9q1-2 2-7t3-10 2-11 0-6q1-1 3-5t4-8 4-8 1-4m240-32q-3 5-6 9t-8 7q-3 5-7 10t-8 8q-2 4-4 6t-6 5q-1 2-3 5t-4 5-3 5 1 6q5 1 10-1t10-4q3-3 8-5t7-4l13-12q3-3 6-7t5-7q1-5 4-10t2-10q0-3-1-5t-2-5q-5 0-8 2t-6 2m-78 32q1-1 4-4t7-9 7-8 5-4q2-3 3-4t4-3q3-8 10-12t12-11q9-4 19-10t21-7q5 2 11 1t9 3q3 4 4 5t3 3q2 7 3 8t2 4q0 8 1 11t0 6q-2 13-5 25-1 3-2 6t-3 6q-3 4-5 7t-3 5q-6 6-10 10-4 3-9 5t-10 4q-2 2-4 3t-5 2q-5 3-10 5t-10 4q-3 1-6 3t-7 4q-3 1-7 2t-7 2q3 5 2 12t3 12q6 2 14 2t14 0q2 0 5-2t6-1q6-1 11-3t9-4q14-5 27-13t23-18q6-4 13-11t11-12q7-8 13-13t10-3q4 0 8 4t-1 10q-5 3-10 9t-11 8q-5 3-11 11t-11 12q-2 2-5 4t-6 6q-6 5-14 10-3-1-5 1t-3 4q-2 1-4 2t-3 2q-4 3-8 7t-10 6q-10 6-19 10t-19 10q-3 1-6 1t-5 1q-3 1-5 1t-6-1q-9-3-15-6t-11-10q-3-3-7-5t-5-6q-1-2-3-7t-4-12-2-12-1-9q1-2 2-7t2-10 2-11 1-6q1-1 2-5t5-8 3-8 2-4m325 66q4 0 5 0t3 1q2 0 5-3t8-5 7-6 5-4q4-1 8-5t9-9 7-9 6-8q12-12 16-17t6-8 2-1 3 0q4 0 5 4t4 6q-1 1-1 3t-1 3-3 3-4 3l-5 6q-5 6-10 13t-8 13-7 13-9 8q-13 8-21 18t-17 14q-1 0-1 0t-1 0q-2 0-3 1t-3 1q-4-2-7-3t-6-4-6-7-9-13q-2-3-4-8t-4-8q-4-7-6-12t-3-16q0-5 1-15t2-16q-8 8-14 19t-12 20q-8 13-17 24t-9 17q-3 3-5 7t-4 7-3 6 0 1q-6 11-19 16t-25 4q-4 0-8-1t-9-3l-7-5q-8-4-11-13t-3-18q6-15 7-27t6-24q7-18 19-32t26-26 27-21 19-18q4-1 8-3t9-5 10-5 11-2q6 0 9 2t5 3 3 5 2 5q3-8 5-16t5-16q3-15 10-32t14-32 13-24 7-11q7-12 16-20t15-18q5-5 9-13t8-10q7 2 11 6t4 7 1 8-1 6q0 8-1 15l-17 35q-7 13-13 26t-11 27q-10 17-20 31t-19 28q-2 5-6 10t-6 9l-8 21q-3 4-3 8 1 2 1 4t0 2q0 5-1 9t0 9q0 13 1 25t1 24q-1 2-1 2 0 4 4 8t4 6m-46-119l-13 8q-4 1-9 7t-11 9l-10 10q-3 6-9 10t-10 10q-5 7-10 16t-5 16q-3 9-5 15t-3 14q0 7 4 7t6 0q6-4 12-10t12-14 9-14 6-12q6-9 13-20t15-19l12-20q1-3 2-5t1-4q0-4-2-6-2 0-3 1t-2 1m343-123l5-7q3-4 3-7t3-8q10-5 18-12t18-13q7-5 11-7t8-4q4-2 8-4t10-3q4-1 7-3t6-3q6-2 13-4t13-4q3-1 6-3t7-1q5 1 6 1t2-1q4 0 7 1t6 3q3 1 6 1t5 2 4 2 3 4q2 1 4 2t3 3q4 8 9 17t5 20q-3 4-3 4t-1 1q-6 3-8 6t-5 6l-7 7q-2 1-4 1t-2 3q-4 2-7 5t-6 5q-4 5-11 8t-11 7q-6 4-7 5t-4 2q-5 3-9 5t-10 4q-2 1-4 3t-6 1q-2-1-5-2t-4 2q-6 1-12-2t-6-9q-6-5-4-14 1-3 4-7t5-8q2-4 4-8t4-8q7-8 14-14t18-9q4-1 7-2t6-2q2 1 3 0t3 0q2 2 2 4t-1 4q-1 2-4 3t-4 1-4 2-3 4q-14 12-24 30 1 1 4 2t4 2q4 1 9-2t9-4q13-7 24-17 3-3 6-6t5-6q2-2 3-4t4-4q1-5-1-7t-4-6-5-5-3-6q-3-1-4-3t-4-4q-1 0-5 0t-3-1q-12 3-19 6t-14 6q-17 8-31 20-1 1-3 2t-3 2q-3 2-4 5t-4 6q-3 3-6 6t-3 7q-3 2-4 6t-4 7q0 4-2 7t-2 7q4 9 6 14t5 10q0 5 3 9t5 10q7 11 13 23t12 24q3 7 6 14t8 11q1 3 2 7t4 6q2 6 5 13 1 4 3 7t3 6q2 4 3 11t1 11q0 5 0 6t-2 4-2 2-2 6q-4 8-10 14t-10 15q-3 4-7 7t-6 6q-4 2-7 4t-7 5q-8 7-17 10t-17 9q-3 0-6 1t-6 1q-2 1-5 2t-6 2q-2 1-4 2t-4 2q-7 2-15 2t-16-2q-9-3-14-3t-9-4q-3-1-3-2t-2-3q-5-4-7-5t-3-3q-7-6-12-13-1-3-2-5t-2-5q-1-3-1-6t-1-6q1-3 0-7t0-7q0-4 1-9t0-7q1-6 3-9t4-7q9-4 14-7t12-6q2-1 4-2t4-2q4-3 9-4t10-4q5-3 9-5t9-4q3 0 6-1t6-2q1 0 2 0t3 1q3 0 6 0t5 1 4 2 6 2q3 4 5 8t4 9q1 2 2 6t1 8q-1 7-6 11t-8 9q-7 3-15 8-5 0-9 2t-9 4q-3 0-6 0t-5 0q-3 1-5 2t-5 1-4-4 0-6q3-5 9-6t11-4q5-3 8-7t8-7q2-3 6-6t1-8q-4-3-10-2t-10 3q-9 4-17 9t-17 8q-4 1-6 3-1 2-1 4t-2 5q-3 7-2 14 1 3 3 5t1 5q2 2 4 3t3 4q1 1 2 1t3 1q5 3 12 5 3 1 9 3t8 2q3 1 7-1t6-2q12-6 23-11t23-12q4-2 8-5t5-7q5-6 8-14t4-16q1-2 1-3t0-4q-3-5-3-6t-1-2q-3-6-4-8t-2-5q-3-5-8-9t-6-12q-3-2-4-6t-6-5q-1-2-1-4t-2-5q-3-3-4-7-3-2-5-5t-5-7q-4-3-5-5-2-3-3-6t-4-5q-1-3-3-5t-4-4q-4-5-6-10t-4-13q1-6-2-10t-1-11q2-7 5-14t5-13q2-1 3-3t1-6m347 171q4 6 4 9t0 5q-3 3-4 6t-4 6q-3 2-6 2t-4 4q-3 1-5 2t-6 1q-12 12-21 19t-18 14q-8 7-16 12t-16 11q-3 2-5 4t-4 4q-6 6-12 10t-12 10q-5 4-11 5t-12 4q-9 4-14 2-5 1-9 1t-9 0q-2-1-3-2t-3-2q-5-2-8-4t-5-4q-1-1-3-4t-3-5q-2-4-3-9t-2-11q-1-6-3-11t-2-11q1-4 2-8t2-7q3-7 5-13t4-11q2-3 4-4t3-4q1-1 1-3t1-3q4-5 9-10t7-10q3-3 5-6t6-6q3-4 4-4t2-3q3-3 5-6t5-6q4-4 7-8t8-6q4-2 9-4t10-5q2-1 5-2t4-3q3-1 6-1t4-3q3 1 5-1t5-2q3 0 5 0t3-1q2 1 4 1t2 1q2 1 4 2t2 5q1 7-3 15t-9 12q-2 4-5 6t-7 5q-6 0-12 1t-11 0q-1 2-2 3t-1 2q-17 14-29 30t-20 38q-3 8-5 12t-3 7q3 10 10 18t14 8q8 1 14-3t11-7q7-5 14-9t13-8q2-1 4-2t4-3q7-5 12-9t10-8q3 0 4-1t4-2q8-7 19-14t21-12q3-3 7-6t7-6q4 0 5-2t5-2m106 74q2-2 3-4t3-2q3-7 7-12t9-9 9-7 12-9q2 0 4-2t4-3q4-3 6-4t3-4q6-3 11-7t10-9q4-1 8 1 2 4 2 9t-5 4q-2 2-3 3t-4 2q-3 1-5 2t-2 2q0 5-1 6t-1 2q-3 4-6 8t-6 7-6 7-7 9q-3 2-4 5-9 5-13 8t-8 6q-2 2-2 3t-1 2q-5 4-6 6t-2 4q-5 3-8 6t-6 4q-3 2-8 6t-12 6-12 4-11-1q-2-1-3-2t-4-2q-3-4-7-7t-6-7q-4-5-5-11t-4-11q0-6 0-11t2-10q6-16 13-28t11-28q-6-6-6-10t-3-13q-13 8-24 21t-19 26q-3 6-5 10t-6 9q-3 3-3 3t-1 2q-4 5-5 7t-2 3-2 3-2 3q-7 10-13 18t-11 18q-3 4-5 8t-5 8q-5 0-5-2t0-3q-3-2-5-6t-2-9 1-10 2-8q-2-5-1-5t0-2q6-8 13-17t14-17q2-3 5-7t5-6q4-8 10-15t9-15q3-2 4-5t4-5q3-6 5-11t6-9q1-4 2-6t4-4q1-3 3-4t4-4q0-4 2-5t1-3q3-3 5-5t5-7q7-4 9-4t4-2q4 0 10-1t5 4q1 1 0 2t0 3q0 5 0 5t-1 1q0 1 0 3t0 5q0 4-1 6t2 5q1 2 3 3t3 3q2 2 2 3t2 3q1 2 3 2t3 4q2 2 1 2t3 2q5 8 8 15 3 6 5 10t0 8q-1 1-2 2t-1 4q-2 2-4 5-1 2-2 3t-1 4q-4 6-9 12t-8 12q0 15 5 21 6 7 8 7 2 0 6-2t7-4q2-1 3-2t4-1q5-2 4-2t1 1m156-206l5 1q1 2 1 3t2 3q-1 4-2 9t-1 9q0 2 1 3t2 3q-3 6-4 7t-1 3q-3 1-4 2t-4 2q-1 2-2 3t-2 2q-8 4-18 0-2-5-6-7-7-9-1-21 1-3 2-6t2-3q6-4 8-5 2-1 4-3t6-2q0-1 2-1t4-1q2 0 3 0t3-1m-73 216l2 1q5-2 11-1t10-2q2-2 4-3t3-1q8-3 13-6t12-4q2-1 4-2t3-3q8-2 11-5t7-4 6-6 8-6q7-4 12-7t10-7q1-3 2-4t3-3q9 0 10 7-3 5-7 8t-7 8q-4 3-7 5t-5 6q0 0-3 2t-2 2q-3 3-5 4t-2 2-1 1-5 4q-4 5-9 8-10 10-22 17t-22 14q-2 1-3 3t-4 3q-2 2-7 4t-9 3q-3 2-6 3-10 1-16-3-7-3-10-5t-6-7q-5-2-6-9t-3-13q-1-2-1-5t0-7q1-5 1-11t3-11q2-5 2-11t3-10q3-5 3-6t0-1q1-2 2-3t2-4l3-7q2-3 5-7t4-8q1-3 2-5t4-6q1-3 2-6t3-7q1-3 4-7t4-8q2-4 4-6t5-2q2-1 5 0t5 0q6-3 9-3t3-2q5 1 8 4t6 5q-3 15-7 22t-8 16q-2 4-5 9t-4 9q-3 5-5 9t-5 10q-1 2-2 4t-2 5q-1 3-3 6t-3 5q-2 3-3 6t-3 6q-2 6-3 7t-1 3q-1 5-3 8t2 5m228-28q8-2 17-4t17-3q7-1 16-3 3-1 7-2t6-3q3-1 7-1t5-2q4 3 4 4t1 1l-4 7q-2 1-5 2t-5 1q-2 1-3 2t-2 1q-2 1-3 0t-2-1q-12 8-27 11t-29 7q-5 3-10 5t-10 6q-4 8-11 15t-14 13q-2 1-4 2t-2 2q-4 2-8 3t-7 1q-1 1-3 2t-2 1q-3 1-6-1t-7-2q-2-4-2-6t-2-1q-2-6-6-10t-7-9q-1-2-1-4t-1-4q0-6 4-9t8-7q3 5 5 4t4-2q2-1 4-2t3 0q4-1 8-2t8-1q5-1 8 0t8 0q2-5 6-9t7-7q3-6 7-13t7-13l5-9q1-1 1-1t2-3q1-4 1-8t-1-8q-4-2-9-7-3 1-6 0t-5 0q-2 0-3 1t-4 2q-4 2-9 4t-8 6q-6 6-9 10t-7 8q-5 4-6 5t-3 3q-3 3-6 6t-5 5q-1 1-3 3t-2 2q-3 4-5 8t-5 7-5 8-5 8q-5 15-12 30t-12 30q-1 5-2 5t0 1q-1 4-2 8t-2 6q-1 4-3 8t-4 8q-3 7-6 15t-6 15q-2 5-4 11t-3 11q-2 2-2 5t-1 6q-2 6-4 11t-3 12q-7 7-9 11-6 6-12 10t-13 7q-2 0-6 0t-6-1-5-2-2-4q-1-5 0-12t3-11q2-6 4-11t4-8q3-12 8-21 2-6 4-10t5-10q1-4 1-8t3-6q4-9 9-16t10-15q3-4 5-8t4-8q5-7 7-15t9-16q2-5 5-10t5-9q0-3 1-5t2-5q3-5 5-10 5-9 9-19t11-19q0-5 3-10t4-9q1-4 2-9t2-8q1-3 3-7t4-7q1-2 2-3t2-3q2-3 2-6t3-4q6-7 8-8t5-3q10 0 12 5t4 10q-1 4-1 8t-2 9q3-3 8-7t9-8q8-5 16-10t17-10q3-1 5-2t6-1 4 1 4 2q3 3 6 5t6 5q2 2 3 6t1 7 3 6 2 7q0 2 0 5t-1 5q0 1 1 2t0 4q-1 6-4 13t-6 12q-2 4-3 7t-4 7q-2 6-4 10t-4 9m208-213q7 1 11 2t8 0 8 0 10-1q10-1 19-3t19-2q3 0 6 0t6 1q6 0 12-1t12-1q2 0 3-1t3 0q5 0 9 0t8 3q1 5 1 6t-1 1q-1 6-2 6t-1 1q-4 1-7 2t-4 3q-8 2-15 1t-15 2q-3 2-7 4t-9 0q-5 0-11 1t-12 1q-11 1-20 1t-15 1-15 1-18 0q-4 4-5 9t-5 8q-4 9-7 12t-3 8q-7 8-13 18t-13 18q0 5-3 9t-4 11q-5 8-8 16t-6 19q-1 4-2 7t-3 8q-2 5-5 9t-5 9q-1 1-1 3t0 2q-2 4-3 7t-2 5-2 5-1 5q0 1-1 3t-1 2q-1 7 0 10t3 4q1 3 2 6t1 4q2 1 5 2t4 1q3 1 7-3t5-3q4-1 7-1t6-2q3-2 5-5t5-3q8-2 8-3t4-4q3-2 6-4t6-5q5-2 6-3t4-3q5-3 8-6t8-5q5-2 6-3t1-1 1-1 5-4q2-4 4-6t6-7q3-3 6-5t6-5q1-1 2-3t4-1q3-3 4-4t6-6q1-1 2-2t3-2q2 0 3 2t3 1q0 6 0 8t-1 4q-3 4-7 5t-5 5q-2-1-4-1t-3 2q1 2 1 3t0 4q-9 9-12 14-5 6-6 7t0 1-1 0-3 4q-7 5-11 10t-10 9q-5 4-7 6t-6 5q-2 2-4 4t-4 4q-3 3-6 5t-6 5q-7 3-10 7t-10 9q-4 3-12 7t-13 6q-1 1-3 1t-2 1q-4-2-8-5t-6-6q-4-4-7-5t-5-4q-5-9-11-17t-10-18q-1-2-1-5t-1-4q-1-4-2-7t0-7q0-3 1-7t2-7q2-6 5-12t4-13q1-5 3-10t3-9q1-3 1-5t3-3q2-10 6-19t9-17q5-11 10-21t10-21q1-6 4-10 0-6 4-11t5-10q-6-2-12 0t-12 2q-8 0-18 0-4-1-7-1t-6-1q-4 0-7-1t-4 0q-6-6-9-7t-6-4-5-4-4-7q0-1 2-2t2-2q4-1 9-1t8-1q8 1 14-1t14-2q2 0 3 1t3 0q3 1 4 0t4-1q3 0 7 0t7 0q6 0 15 1t16 0q2-7 5-14t6-14q2-3 3-7t3-7q3-5 5-8t4-6q4-6 5-13t5-14q6-7 13-17 3 0 5-2t7 1q0 1 1 2t0 4q3 2 4 4t3 5q1 4-1 9t1 9q1 3 0 5t1 4q1 2 2 5t2 6q0 2-1 4t-1 5q-2 7-3 10t-2 6q-4 4-4 5t0 2q-2 3-3 8t-4 6" />
</svg>