<svg id="fnt-Send Flowers" viewBox="0 0 2485 1000" xmlns="http://www.w3.org/2000/svg"><path id="send-flowers" class="f" d="M110 692q-49 0-82-23-38-27-38-73 0-35 27-61 28-26 62-26 22 0 37 13t16 36q0 8-8 8-6 0-9-10-4-15-9-19-8-11-26-11-28 0-51 21-22 21-22 49 0 38 32 60 28 19 69 19 28 0 52-7t45-21q45-31 45-78 0-49-47-72l-85-31q-46-21-46-63 0-42 37-66 33-21 75-21 33 0 55 16 26 19 26 51 0 21-16 35-14 14-35 14-13 0-21-8t-9-20q0-8 9-8 6 0 9 11 2 8 12 8 12 0 22-9t11-23q0-25-20-39-17-11-45-11-34 0-62 17-31 20-31 51 0 36 46 54l86 33q46 26 46 80 0 56-49 92-45 32-108 32m242-19q-38 0-58-23t-21-61q0-56 38-91 32-31 71-31 21 0 33 10t13 29q0 30-34 49-29 16-67 16-21 0-34-5-1 6-2 11t0 12q0 30 15 49t45 20q53 0 85-50 4-6 7-9t7-4q5 0 5 6 0 4-1 6t-1 3q-17 29-44 46t-57 17m-27-119q32 0 57-12 29-14 29-37 0-21-30-21-28 0-51 20-21 18-32 46 11 4 27 4m263 117q-19 0-29-10t-11-28q0-7 4-21t9-31q7-20 11-33t5-17q1-6 1-10t1-9q0-28-24-28-34 0-66 53-16 27-38 84-2 7-6 17t-10 24q-2 6-6 6-4 0-7-4t-3-6q0-2 17-48 33-90 33-139 0-9 8-9 5 0 8 6t3 12q0 14-4 33 34-47 73-47 42 0 42 45 0 20-21 78-3 10-7 22t-3 22q0 9 4 15t14 6q11 0 23-7t24-17 19-22q4-7 7-11t7-3q6 0 6 7 0 1-1 4t-2 5q-9 16-22 30t-29 22-30 9m258 4q-42 0-52-49-35 44-79 44-29 0-46-24-15-21-15-51 0-52 42-90 37-35 77-35 20 0 31 12 34-126 82-126 26 0 26 26 0 33-42 113-5 11-21 38t-42 72q2 26 12 40t27 14q21 0 38-16t28-35q2-4 6-8t8-5q3 0 4 2t1 4q0 1-1 4t-1 5q-8 14-21 29t-28 26-34 10m-39-105q19-32 31-54t19-34q34-63 38-91 1-2 1-4t0-3q0-12-9-12-13 0-30 25-20 30-35 82-12 46-15 91m-91 83q42 0 74-52 0-4 0-9t0-9q0-10 0-20t2-21q-5 2-12 2-14 0-14-8 0-10 9-10 2 0 3 1h3q13 0 15-8l3-12q-2-19-28-19-39 0-69 34-30 33-30 73 0 24 10 40 12 18 34 18m434 29q-44 0-75-22-35-26-35-68 0-42 26-68t68-27q28 0 48 14 22 16 22 44 0 9-5 15-6 9-15 9-9 0-9-10 0-8 8-9 4 0 4-5 0-19-17-30-16-10-36-10-34 0-55 22t-21 55q0 35 30 55 26 17 64 17 129 0 172-197h-70q-8 0-8-9t8-9h74q12-50 38-86-18-4-68-23-41-16-76-16-40 0-69 19-33 22-33 58 0 16 7 26t22 11q7 0 15-4t10-4q8 0 8 9 0 6-11 12-11 5-19 5-23 0-37-16t-13-39q0-44 38-71 35-24 81-24 37 0 75 14l41 16q13 4 23 7t20 4q23-24 48-24 19 0 19 16 0 12-19 21-17 7-30 7-1 0-4 0t-7-1q-28 33-40 83h20q9 0 9 9t-9 9h-24q-46 215-193 215m277-7q-41 0-45-57-2-43 26-128 26-76 51-121 29-54 56-54 22 0 22 36 0 38-29 89-46 80-102 125-2 13-4 24t-1 22q0 47 29 47 18 0 34-10t38-40q1-2 6-8t8-6q5 0 5 6 0 1 0 4t-2 6q-8 15-21 30t-31 25-40 10m-13-140q45-46 79-104 28-49 28-83 0-16-7-16-5 0-14 8-17 19-37 65-13 28-25 61t-24 69m159 136q-32 0-49-25-14-21-14-54 0-34 16-70 17-39 46-54 11-5 19-5 9 0 14 5 13-8 25-8 24 0 36 24 10 19 10 44 0 45-28 91-31 52-75 52m-1-17q36 0 63-46 24-40 24-80 0-16-7-33-8-18-22-18-15 0-27 17t-11 35q0 21 15 21 8 0 8 8t-8 9q-32 0-32-37 0-28 18-50-1-1-2-1-2 0-11 4-24 13-39 47-14 30-14 61 0 25 10 43 12 20 35 20m163 18q-46 0-46-56 0-6 0-13t2-13q2-9 7-25t13-40q19-54 27-54 9 0 9 8 0 2-1 3-40 96-40 136 0 37 29 37 43 0 74-89 4-14 10-34t17-47q2-4 7-4 11 0 9 8-4 12-10 33t-14 52q-8 31-8 47 0 31 26 31 36 0 69-53 30-48 30-91 0-29-12-44-9-14-24-14-17 0-17 17 0 8 4 10t10 4 5 7q0 8-8 8-12 0-20-8t-8-20q0-16 10-25t25-9q20 0 35 17 18 21 18 57 0 49-31 100-37 61-90 61-38 0-39-50-30 53-68 53m320 1q-37 0-58-23t-20-61q0-56 37-91 33-31 72-31 20 0 33 10t13 29q0 30-34 49-30 16-68 16-20 0-33-5-1 6-2 11t-1 12q0 30 16 49t45 20q53 0 84-50 4-6 7-9t7-4q5 0 5 6 0 4-1 6t-1 3q-17 29-44 46t-57 17m-26-119q32 0 57-12 29-14 29-37 0-21-31-21-27 0-51 20-21 18-32 46 12 4 28 4m244 118q-16 0-27-13t-11-35q0-42 36-107-15 5-27 5-25 0-43-20-3 17-11 36t-17 39-17 33q-2 4-5 5t-4 1q-8 0-8-8 10-16 20-37t19-45 13-45q-3-12-3-27 0-25 11-25 12 0 12 25 0 5-1 12t-1 15q2 11 12 17t23 7q17 0 44-18 5-4 6-4 10 0 10 9 0 1-1 2t0 2q-13 22-23 41t-17 39q-10 26-10 47 0 32 21 32 16 0 30-15t25-32q2-4 7-10t8-7q3 0 4 1t1 5q0 3-1 7t-2 6q-14 24-31 43t-42 19m122 5q-28 0-47-15-21-16-21-44 0-18 9-35t24-25q10-15 24-32t30-37q-6-16-6-30 0-16 6-29 8-17 24-17 24 0 24 25 0 15-8 26l-19 27 31 44q9 13 13 26t5 25q0 38-26 64t-63 27m32-203q7-8 12-16 7-13 7-20 0-7-8-7-13 0-13 29 0 3 0 7t2 7m-32 185q31 0 51-21 21-21 21-52 0-21-16-43l-28-38-37 46q35 2 35 35 0 10-7 20-4 5-9 5-7 0-7-9 0-3 3-8t3-8q0-18-19-18-6 0-12 2 1 10-8 23t-21 21q3 45 51 45" />
</svg>