<svg id="fnt-Sevillana" viewBox="0 0 1832 1000" xmlns="http://www.w3.org/2000/svg"><path id="sevillana" class="f" d="M302 553q0 26-9 49t-24 39-40 26-54 10q-23 0-42-8t-33-22-21-33-7-42q0-26 9-44t21-29 28-16 29-5q18 0 32 5t23 15 14 22 5 26q0 10-3 21t-9 19-17 15-25 6q-28 0-39-19t-12-45h17q0 10 1 18t5 16 11 11 17 4q15 0 27-11t11-35q0-25-16-39t-42-14q-13 0-26 4t-22 14-17 24-6 37q0 25 9 42t22 28 29 15 27 5q23 0 40-8t29-21 17-32 6-37q0-20-7-40t-18-38-24-38-26-36q-26 11-58 11-22 0-44-6t-39-17-28-31-11-44q0-22 12-36t32-14q17 0 26 10t10 26q0 18-10 26t-27 9v-15q7 0 14-4t7-15q0-10-5-16t-16-6q-11 0-19 8t-7 26q0 21 8 37t24 26 34 15 39 6q13 0 25-2t24-6q-16-23-24-44t-9-42q0-14 4-26t13-21 20-15 28-5q27 0 42 16t14 40q0 30-13 53t-36 40q14 17 28 35t26 38 18 40 8 44m-47-247q0-9-2-17t-7-14-11-10-17-3q-17 0-28 11t-11 35q0 19 10 38t24 39q20-14 31-34t11-45m72 261q0-23 6-44t15-35 26-23 35-8q30 0 48 18t17 46q0 19-6 33t-20 25-29 15-38 5h-20q2 11 5 22t8 20 15 15 22 6q16 0 26-7t15-17 8-23 2-24h17q0 17-4 32t-12 28-22 19-32 7q-40 0-61-28t-21-82m33 0v17h18q28 0 46-15t18-46q0-9-2-18t-5-17-10-12-18-4q-15 0-24 9t-14 22-7 31-2 33m233-71q0 9 4 13t10 5q9 0 12-7t2-13h16q0 15-7 25t-23 10q-14 0-23-9t-8-24q0-19 13-29t29-10 30 8 20 23 12 35 3 43q0 21-4 41t-13 35-25 25-37 10q-21 0-36-8t-25-23-15-35-5-45v-61h-5q-1 8-8 16t-17 8v-15q8-2 13-8t10-13 5-14 2-12h33v91q0 13 1 31t5 34 14 28 28 11q17 0 27-10t13-26 6-33 1-32q0-23-1-39t-4-26q-8-24-30-24-10 0-17 6t-6 18m149-112q9 0 16 7t7 17-7 16-16 7q-10 0-16-7t-7-16 7-17 16-7m-16 186v-65h-5q-2 8-8 16t-17 8v-15q7-2 13-8t9-13 6-14 2-12h32v103q0 17 1 32t2 28q3 15 9 23t16 9q9 0 14-5t7-12 4-17 1-16v-21h16v20q0 14-2 26t-8 21-14 14-22 5q-14 0-26-6t-19-19q-7-12-9-31t-2-51m129 0v-57q-7 4-15 9t-15 7v-15q8-3 16-9t14-9q0-16 0-28t1-23 0-22 1-25q1-27 5-55t13-50q7-18 22-32t35-14q23 0 35 17t12 45q0 14-3 30t-9 30-13 30-15 27q-14 22-28 36t-23 25v83q0 17 0 32t3 28q3 14 8 23t17 9q9 0 13-5t8-12 4-17 0-16v-21h17v21q0 14-3 26t-8 20-14 14-22 5q-14 0-26-6t-18-19q-7-12-9-31t-3-51m74-156q18-27 26-53t8-50q0-21-7-35t-21-13q-14 0-22 10t-14 28-7 39-3 45q-1 9-1 32t0 50q11-12 22-25t19-28m79 156v-57q-8 4-16 9t-14 7v-15q7-3 16-9t14-9q0-16 0-28t0-23 0-22 1-25q1-27 5-55t13-50q7-18 22-32t35-14q23 0 35 17t12 45q0 14-3 30t-9 30-12 30-16 27q-14 22-27 36t-24 25v83q0 17 1 32t2 28q3 14 8 23t17 9q9 0 14-5t7-12 4-17 1-16v-21h16v21q0 14-3 26t-8 20-14 14-22 5q-14 0-25-6t-19-19q-7-12-9-31t-2-51m74-156q17-27 25-53t8-50q0-21-7-35t-21-13q-14 0-22 10t-14 28-7 39-3 45q0 9-1 32t0 50q11-12 22-25t20-28m120 43q38 0 59 28t21 94q0 16 1 31t3 26 8 19 17 7q8 0 13-5t8-13 3-16 1-16v-21h16v21q0 14-2 26t-8 20-14 14-23 5q-21 0-34-12t-16-33h-5q-5 18-18 31t-36 14q-20 0-34-9t-23-24-13-35-4-42q0-53 21-82t59-28m0 15q-47 0-47 94 0 47 11 71t36 25q24 0 36-24t12-71q0-47-12-71t-36-24m202 16h5q9-15 23-23t30-8q31 0 45 18t14 50v45q0 17 1 32t3 28q2 15 8 23t17 9q8 0 13-5t8-12 3-17 1-16v-21h16v20q0 14-2 26t-8 21-14 14-22 5q-14 0-26-6t-19-19q-6-12-9-31t-2-51v-45q0-11-2-21t-6-17-11-11-19-4q-13 0-21 7t-15 20q-4 8-6 18t-3 19-2 20 0 17q0 14 0 25t1 20 1 22 1 27h-32q-2-32-3-59t0-48v-55h-6q-1 8-8 16t-16 8v-15q7-2 13-8t9-13 6-14 2-12h32v21m277-31q38 0 59 28t21 94q0 16 1 31t3 26 8 19 17 7q8 0 13-5t8-13 3-16 1-16v-21h16v21q0 14-2 26t-8 20-14 14-23 5q-21 0-34-12t-16-33h-5q-5 18-18 31t-36 14q-20 0-34-9t-23-24-13-35-4-42q0-53 21-82t59-28m0 15q-47 0-47 94 0 47 11 71t36 25q24 0 36-24t12-71q0-47-12-71t-36-24" />
</svg>