<svg id="fnt-Seymour One" viewBox="0 0 4818 1000" xmlns="http://www.w3.org/2000/svg"><path id="seymour-one" class="f" d="M249 679q-31 0-67-4t-71-10-71-19q6-24 12-46t12-45q0-2 2-2 36 9 66 15t62 11 72 4q9 0 18-1t15-4 6-9q0-8-6-10t-11-2q-38-6-75-12t-67-14-56-21-37-34-13-50q0-32 15-53t41-34 58-19 70-9 71-2q21 0 46 3t49 8 44 10 32 12q-9 31-14 52t-13 36q-33-9-66-15t-59-10-45-3q-9 0-21 1t-22 4-9 11q0 7 13 10t35 7q31 5 63 10t61 13 53 20 37 31 14 47q0 35-18 59t-51 38-77 20-98 6m490-3q-34 0-67-6t-59-21-42-40-16-64q0-40 17-66t44-41 61-21 63-6q25 0 52 6t49 20 37 35 12 52q0 3 0 6l-3 30h-198q6 22 29 34t56 12q21 0 45-5t51-16h13l-5 62q-10 7-30 14t-49 11-60 4m-45-162h88q0-24-11-33t-29-9q-21 0-33 13t-15 29m320 315l-42-69q5 0 20-4t34-11 34-19 20-24l-20-37q-12-20-26-48t-30-59-30-59-24-49-15-27l143-7 68 159q4-9 9-25t11-35 13-39 12-35 9-24q5-1 10-1t11 0l105 4-13 31-100 230q-12 27-28 54t-38 47-55 34-78 13m502-160l-150 0 2-25q1-17 2-43t1-56 2-56 1-44 0-20l80-10 26 51q23-30 58-41t74-11q42 0 67 11t44 34q25-26 60-35t71-10q46 0 77 15t47 43 16 63q0 9 0 23t-2 39-2 70q-9 0-24 0t-34 1-37 0-31 1-19 0v-124q0-28-11-46t-37-15q-8 1-16 4t-14 13-11 30-4 57v76l-146 5v-20q0-15 1-34t1-36 1-29 0-13q0-34-11-47t-35-11q-23 1-33 16t-13 38-2 50v10q0 13 0 33t1 43m724 7q-33 0-67-6t-61-19-44-39-17-65q0-52 26-83t72-45 105-14q52 0 93 16t65 45 23 72q0 36-12 60t-32 40-45 24-53 11-53 3m4-67q31 0 45-20t14-50q0-25-15-43t-45-18q-20 0-33 10t-18 25-5 32q0 30 14 47t43 17m401 67q-28 0-55-6t-49-18-36-33-13-52q0-34 1-58t3-42 2-41q10-2 29-5t42-4 40-2q10 0 19 1t17 1q-1 16-2 37t-2 41-1 33-1 15q0 26 12 45t37 19q18 0 29-7t17-18 11-20q5-11 7-30t2-39 0-39 2-31q17-1 36-2t44-3 59-3q0 7 0 14t0 14l-12 216q-13 3-30 5t-47 7q-2-4-7-13t-10-19-6-19q-25 29-63 42t-75 14m347-7l-24 0q0-4-1-8t0-9l9-219 67-15 29 49q25-33 49-46t44-14q13 0 27 4t25 10 15 11l-26 71q-15-7-28-9t-22-3q-17 0-27 5t-16 8-5 4l-10 156-106 5m667 9q-36 0-74-5t-73-18-63-32-45-51-16-74q0-40 15-70t41-51 57-35 63-22 59-12 46-3q39 0 79 5t77 16 65 32 46 51 17 74q0 47-18 80t-49 56-69 35-79 18-79 6m11-99q43-2 66-24t23-70q0-30-11-47t-30-24-45-8q-41 0-65 23t-25 66q0 45 24 65t63 19m491 88l-146 2q0-6 1-25t1-45 2-54 1-53 2-41 0-18l82-18 26 51q16-20 39-31t51-16 52-5q58 0 98 21t51 64q2 9 3 18t1 18q0 9-1 23t-2 39-2 70l-145 1 1-116q0-25-13-42t-36-16q-27 0-41 14t-19 37-5 48q0 6 0 18t0 25-1 22 0 9m505 9q-34 0-67-6t-59-21-43-40-16-64q0-40 17-66t45-41 60-21 64-6q25 0 52 6t49 20 36 35 13 52q0 3-1 6l-2 30h-198q6 22 29 34t56 12q20 0 45-5t50-16h14l-5 62q-10 7-31 14t-49 11-59 4m-45-162h88q0-24-11-33t-29-9q-22 0-33 13t-15 29" />
</svg>