<svg id="fnt-Shanti" viewBox="0 0 1350 1000" xmlns="http://www.w3.org/2000/svg"><path id="shanti" class="f" d="M122 673q-22 0-47-7t-54-22l16-38q46 24 82 24 40 0 59-16t18-41q0-25-17-38t-57-27q-52-19-72-43t-21-60q0-29 15-50t38-30 55-10q24 0 49 8t52 25l-19 36q-22-14-42-21t-39-6q-30 0-46 13t-16 34q0 17 6 28t21 18 39 16q44 15 65 30t29 33 7 40q0 48-32 76t-89 28m230-6h-46v-332h46v123q15-16 34-26t41-9q43 0 64 24t21 67v153h-45v-150q0-14-4-28t-15-23-32-9q-22 0-35 8t-18 18q-6 11-9 25t-2 30v129m295 4q-37 0-59-19t-21-51q0-15 7-33t28-31q14-8 32-12t37-5 36 0h13v-18q0-26-12-35t-32-10q-20 0-42 8t-35 16l-14-30q20-12 45-20t48-8q24 0 43 7t32 25 11 44v97q0 26 2 43t4 28h-41q-1-5-2-15t-1-24q-16 26-37 34t-42 9m3-34q17 0 32-5t24-15q9-10 12-25t2-40h-7q-17 0-35 1t-33 6-24 15-10 28q0 13 9 24t30 11m247 30h-46v-205h-30v-36h73l2 31q15-17 32-26t43-8q14 0 29 3t28 14 21 26 8 42v159h-45v-155q0-27-13-41t-39-14q-29 0-46 19t-17 58v133m312 4q-30 0-48-13t-17-51v-146h-39v-35h40l8-57 37-8v65h58v35h-58v141q0 14 5 24t25 11q7 0 15-1t14-2v32q-8 2-18 3t-22 2m56-245h83v241h-46v-205h-37v-36m83-52h-46v-52h46v52" />
</svg>