<svg id="fnt-Share Tech" viewBox="0 0 2051 1000" xmlns="http://www.w3.org/2000/svg"><path id="share-tech" class="f" d="M192 582q0 42-23 63t-67 22h-66v-38h71q19 0 30-11t12-27v-52q0-15-8-24t-23-9h-10q-37 0-59-22t-21-63v-19q0-43 23-64t67-21h66v38h-71q-19 0-30 11t-12 26v38q0 16 10 26t26 10h10q36 0 55 21t20 62v33m68 85v-350h42v110q15-10 38-10h13q40 0 60 19t20 61v170h-43v-180q0-15-9-24t-23-9h-23q-16 0-25 8t-8 18v187h-42m398 0q-7 0-15-4t-13-11q-11 15-30 15h-35q-38 0-55-16t-17-52v-10q0-77 73-77h52v-25q0-16-10-24t-28-9h-67v-37h62q44 0 64 19t21 61v120q0 7 6 11t19 4v35h-27m-63-38q15 0 19-7t4-18v-55h-53q-13 0-21 9t-9 21v25q0 13 6 19t19 6h35m150 38v-250h40v13q17-13 40-13h37v40h-42q-16 0-24 11t-8 21v178h-43m239 0q-44 0-64-19t-21-61v-90q0-43 19-62t61-18h14q35 0 53 19t19 58v65h-123v38q0 15 9 24t28 8h70v38h-65m-42-145h81v-38q0-13-8-21t-22-9h-19q-18 0-25 8t-7 25v35m490-167h-77v312h-43v-312h-77v-38h197v38m93 312q-44 0-65-19t-20-61v-90q0-43 18-62t62-18h13q36 0 54 19t18 58v65h-123v38q0 15 10 24t28 8h69v38h-64m-43-145h82v-38q0-13-9-21t-21-9h-19q-18 0-26 8t-7 25v35m276 145q-44 0-65-19t-20-61v-90q0-42 20-61t65-19h54v37h-59q-19 0-28 9t-10 24v110q0 15 10 24t28 8h59v38h-54m119 0v-350h43v110q15-10 37-10h13q41 0 60 19t20 61v170h-42v-180q0-15-9-24t-24-9h-23q-16 0-24 8t-8 18v187h-43" />
</svg>