<svg id="fnt-Share Tech Mono" viewBox="0 0 4009 1000" xmlns="http://www.w3.org/2000/svg"><path id="share-tech-mono" class="f" d="M220 582q0 42-24 63t-66 22h-71v-38h76q18 0 30-11t11-27v-52q0-15-8-24t-23-9h-15q-37 0-58-22t-22-63v-19q0-43 23-64t67-21h72v38h-77q-18 0-30 11t-11 26v38q0 16 10 26t26 10h15q35 0 55 21t20 62v33m94-265h42v110q15-10 38-10h23q40 0 60 19t20 61v170h-43v-180q0-15-9-24t-23-9h-33q-16 0-24 8t-9 18v187h-42v-350m435 350q-7 0-15-4t-13-11q-11 15-30 15h-45q-38 0-55-16t-17-52v-10q0-77 73-77h62v-25q0-16-10-24t-28-9h-77v-37h72q44 0 64 19t21 61v120q0 7 6 11t19 4v35h-27m-63-38q15 0 19-7t4-18v-55h-63q-13 0-21 9t-9 21v25q0 13 6 19t19 6h45m174 0h37v-175h-37v-37h77v13q16-13 40-13h51v40h-56q-16 0-24 10t-9 21v141h55v38h-134v-38m352 38q-44 0-64-19t-21-61v-90q0-43 19-62t61-18h24q35 0 53 19t19 58v65h-133v38q0 15 9 24t28 8h80v38h-75m49-145v-38q0-13-8-21t-22-9h-29q-18 0-25 8t-7 25v35h91m516 145h-44v-312h-79v-38h202v38h-79v312m245 0q-44 0-64-19t-21-61v-90q0-43 19-62t61-18h24q35 0 53 19t19 58v65h-133v38q0 15 9 24t28 8h80v38h-75m49-145v-38q0-13-8-21t-22-9h-29q-18 0-25 8t-7 25v35h91m234 145q-44 0-64-19t-21-61v-90q0-42 21-61t64-19h65v37h-70q-18 0-28 9t-9 24v110q0 15 9 24t28 8h70v38h-65m169-350h42v110q15-10 38-10h23q40 0 60 19t20 61v170h-43v-180q0-15-9-24t-23-9h-33q-16 0-24 8t-9 18v187h-42v-350m701 36l-50 196h-41l-49-196v314h-38v-350h69l40 179 41-179h67v350h-39v-314m293 234q0 42-21 61t-64 19h-16q-44 0-65-19t-20-61v-90q0-42 20-61t65-19h16q44 0 64 19t21 61v90m-42-100q0-16-10-24t-28-9h-26q-19 0-28 9t-10 24v110q0 15 10 24t28 8h26q19 0 28-8t10-24v-110m128-70h40v12q15-12 40-12h23q40 0 60 19t20 61v170h-43v-180q0-15-9-24t-23-9h-33q-17 0-25 9t-8 19v185h-42v-250m454 170q0 42-21 61t-64 19h-16q-44 0-65-19t-20-61v-90q0-42 20-61t65-19h16q44 0 64 19t21 61v90m-42-100q0-16-10-24t-28-9h-26q-19 0-28 9t-10 24v110q0 15 10 24t28 8h26q19 0 28-8t10-24v-110" />
</svg>