<svg id="fnt-Share" viewBox="0 0 1077 1000" xmlns="http://www.w3.org/2000/svg"><path id="share" class="f" d="M191 567q0 31-7 51t-20 32-32 16-40 4q-12 0-29-2t-29-5v-37q11 3 27 5t36 3q26 0 37-15t12-47q0-18-2-30t-8-20-13-12-17-6q-21-4-36-11t-23-18-14-27-4-38q0-27 7-46t21-29 31-17 40-5q12 0 27 2t26 6v36q-13-3-29-5t-29-2q-10 0-19 3t-15 9-11 17-4 25 1 25 6 17 12 10 19 7q18 3 33 10t24 18 16 30 6 46m109 100h-43v-350h43v118q11-10 25-16t32-6q22 0 36 5t23 16 13 28 4 40v165h-43v-170q0-24-8-36t-32-12q-11 0-20 4t-16 11-11 13-3 15v175m388 0h-15q-3 0-9-1t-10-4-11-7-7-13q-10 14-25 21t-41 7q-14 0-27-3t-24-11-17-22-7-38q0-40 24-62t65-21h40v-27q0-16-10-27t-28-10q-21 0-37 3t-35 8v-37q14-4 31-7t36-3q25 0 41 5t26 15 14 26 4 37v120q0 7 5 11t17 5v35m-108-33q13 0 21-4t14-10 7-11 2-10v-52h-42q-8 0-16 2t-14 8-10 15-3 21q0 24 10 32t31 9m213 33h-42v-250h35l3 25q8-13 21-21t31-8q9 0 15 1t11 2v44q-6-1-15-3t-15-1q-12 0-21 5t-13 13-8 18-2 21v154m283-110h-129q1 24 4 39t9 24 13 11 17 3q21 0 38-3t29-5v36q-12 4-31 6t-31 2q-22 0-39-4t-28-18-17-39-6-67q0-35 5-59t18-40 28-23 40-7q43 0 61 28t19 78v38m-81-108q-12 0-21 3t-14 12-8 23-4 36h87v-14q0-28-9-44t-31-16" />
</svg>