<svg id="fnt-Shippori Antique B1" viewBox="0 0 4758 1000" xmlns="http://www.w3.org/2000/svg"><path id="shippori-antique-b1" class="f" d="M184 673q-62 0-100-21t-57-50q-1-3-1-6 0-5 5-9l28-21q3-3 6-3 5 0 9 6 33 54 112 54 35 0 59-13t24-40q0-20-14-32t-42-20q-26-8-32-10-43-12-62-19-48-18-64-42t-15-49q0-21 13-45t42-42 72-17q46 0 77 11t59 38q3 3 3 7 0 5-5 8l-32 21q-4 3-6 3-5 0-9-5-30-32-82-32-30 0-47 9t-21 20-5 20q0 18 14 29t41 20q3 1 39 11 22 6 46 14 53 17 70 44t18 52q0 27-13 52t-44 40-86 17m337-275q38 0 70 22t32 80v156q0 5-3 8t-8 3h-32q-10 0-10-12 0-142-1-147-2-28-16-45t-36-16q-18 0-34 10t-27 30-11 51v118q0 5-3 8t-7 3h-33q-5 0-8-3t-2-8v-345q0-5 2-8t8-3h33q5 0 7 3t3 8v111q0 7 5 7t11-6q13-12 29-19t31-6m210-45q-14 0-23-10t-10-23 10-23 23-9 23 9 9 23-9 23-23 10m26 303q0 5-3 8t-7 3h-33q-5 0-8-3t-2-8v-241q0-5 2-8t8-2h33q5 0 7 2t3 8v241m214-258q48 0 75 23t36 53 9 62-9 61-36 53-75 23q-39 0-65-21-3-3-7-3-5 0-5 8v105q0 5-3 8t-7 3h-30q-5 0-8-3t-3-8v-347q0-5 3-8t8-2h30q5 0 7 2t3 8q0 4 1 6t4 3q2 0 4-2 27-24 68-24m-5 229q39 0 57-26t18-65-18-65-57-27q-38 0-55 26t-17 66 17 65 55 26m322-229q48 0 74 23t36 53 10 62-10 61-36 53-74 23q-39 0-65-21-4-3-7-3-5 0-5 8v105q0 5-3 8t-8 3h-30q-5 0-8-3t-2-8v-347q0-5 2-8t8-2h30q5 0 8 2t3 8q0 4 1 6t3 3q3 0 5-2 26-24 68-24m-5 229q38 0 56-26t19-65-19-65-56-27q-38 0-56 26t-17 66 17 65 56 26m304 46q-50 0-79-23t-40-54-11-60 11-61 40-54 79-23q49 0 78 23t40 54 12 61-12 60-40 54-78 23m0-46q40 0 60-26t19-65-19-65-60-27-60 27-20 65 20 65 60 26m233-222q5 0 8 2t3 8v15q0 4 1 6t3 3q4 0 7-5 27-30 68-33h1q5 0 8 3t2 7v35q0 10-6 10-2 0-6 0-17 0-34 7t-30 22-14 31v140q0 5-3 8t-8 3h-32q-5 0-8-3t-3-8v-241q0-5 3-8t8-2h32m185-52q-13 0-23-10t-9-23 9-23 23-9 23 9 10 23-10 23-23 10m27 303q0 5-3 8t-8 3h-32q-5 0-8-3t-3-8v-241q0-5 3-8t8-2h32q5 0 8 2t3 8v241m501-1l1 4q0 8-9 8h-42q-9 0-12-9l-33-92q-3-8-12-8h-127q-9 0-12 8l-33 92q-3 9-12 9h-42q-10 0-10-8l1-4 133-346q3-9 12-9h52q9 0 12 9l133 346m-164-281q-2-7-7-7-2 0-4 2t-3 5l-43 123-1 4q0 8 9 8h84q10 0 10-8l-1-4-44-123m342 24q37 0 69 22t32 80v156q0 5-3 8t-7 3h-33q-5 0-8-3t-2-8v-148q-2-28-16-45t-37-16q-16 0-32 8t-26 27-13 44v130q0 5-3 8t-8 3h-32q-5 0-8-3t-3-8v-241q0-5 3-8t8-2h32q5 0 8 2t3 8v6q0 4 1 5t3 2q4 0 11-5 14-12 30-18t31-7m295 7q5 0 8 2t3 8v21q0 5-3 8t-8 3h-29q-5 0-8 2t-3 8v134q0 16 4 23t15 7q3 0 14-2 2 0 4 0 8 0 8 9v30q0 10-9 11-20 4-38 4-23 0-35-8t-13-20-3-30v-158q0-5-3-8t-7-2h-27q-5 0-8-3t-3-8v-21q0-5 3-8t8-2h27q5 0 7-3t3-8v-53q0-5 3-8t8-3h32q5 0 7 3t3 8v53q0 5 3 8t8 3h29m102-52q-13 0-23-10t-9-23 9-23 23-9 23 9 10 23-10 23-23 10m27 303q0 5-3 8t-8 3h-32q-5 0-8-3t-3-8v-241q0-5 3-8t8-2h32q5 0 8 2t3 8v241m257-237q4 4 7 4 5 0 5-8 0-5 2-8t8-2h31q5 0 7 2t3 8v347q0 5-3 8t-7 3h-31q-5 0-8-3t-2-8v-105q0-8-5-8-4 0-7 3-26 21-65 21-48 0-75-23t-36-53-9-61 9-61 36-54 75-23q39 0 65 21m-60 208q38 0 55-26t17-65-17-66-55-26q-38 0-57 27t-18 65 18 65 57 26m385-83v-129q0-5 2-8t8-2h33q5 0 7 2t3 8v241q0 5-3 8t-7 3h-33q-5 0-8-3t-2-8v-6q0-8-5-8-2 0-7 4-14 13-31 19t-33 7q-38 0-70-22t-32-79v-156q0-5 3-8t8-2h32q5 0 8 2t3 8v147q1 29 15 45t37 17q16 0 32-9t27-27 13-44m370-2q0 7-11 7h-178q-5 0-8 3t-2 8q6 30 23 49t49 18q24 0 38-9t24-28q4-7 10-7 1 0 4 1l30 9q8 2 8 9 0 3-1 5-14 29-42 48t-71 18q-48 0-76-23t-39-54-11-60 11-61 39-54 76-23 77 23 39 54 11 61v6m-127-98q-26 0-43 14t-25 38q0 1 0 3 0 8 9 8h119q5 0 8-3t1-7q-7-24-24-38t-45-15m573 27q-5 3-5 5 0 1 5 4 24 10 38 30t15 50q0 107-122 107h-189q-5 0-8-3t-2-8v-345q0-5 2-8t8-3h171q63 0 96 21t34 74q0 22-10 43t-33 33m-87-122q-10-1-115-1-12 0-12 11v83q0 5 3 8t8 3h116q43 0 57-14t14-38q0-22-11-34t-25-14-35-4m-127 259q0 5 3 8t8 3h107q26 0 44-3t32-16 13-40-13-40-29-16-38-3h-116q-5 0-8 2t-3 8v97m438 48q0 5-3 8t-8 3h-33q-5 0-8-3t-3-8l1-253q0-5-3-8t-8-3h-50q-5 0-8-3t-3-7v-16q0-10 11-11 29-2 48-14t27-35q2-9 11-9h18q5 0 8 2t3 8v349" />
</svg>