<svg id="fnt-Shizuru" viewBox="0 0 1518 1000" xmlns="http://www.w3.org/2000/svg"><path id="shizuru" class="f" d="M143 311q16 1 34 7t38 17q17 11 28 27t17 33q4 9 1 18t-11 15q-9 5-18 3t-14-13q-9-18-19-31t-26-19-41-4q-12 0-24 7t-20 18-10 23q-1 4 0 9t3 11q9 18 24 31t34 22q15 8 30 14t30 15q31 16 50 41t20 62q1 23-11 43t-32 35-43 16q-35 4-65 0t-58-21q-5-3-15-12t-19-21-13-27 3-28q7-12 17-15t18 8q7 8 16 18t16 18q21 20 46 24t51 3q12-1 19-9t9-19q4-21-5-37t-27-26q-25-14-50-29t-49-30-37-42-17-54q-2-25 8-43t27-32q16-13 35-20t50-6m11 392h7q30-2 53-12t37-38q7-16 7-35t-8-38-23-33q-26-23-59-36-26-10-49-25t-41-37q-13-16-13-34t12-33 29-22q24-10 42-9t32 8 22 17 13 16q4 6 7 12t8 11q2 2 5 3t6 1q3-2 5-5t3-6q0-4-1-8t-3-7q-6-23-25-39t-45-23-52-6-45 13q-16 10-27 26t-15 35 3 38q9 28 28 45t42 33q19 12 39 22t41 21q20 11 28 29t8 40q-1 16-12 29t-27 15q-35 3-67-6t-55-40q-7-10-16-17-2-3-6-5t-8-1q-2 1-5 5t-3 12q0 8 2 14t7 14q14 21 33 32t41 17 45 7m216-224q0 4 3 5t6-1q19-16 40-20t45-5q18 0 35 11t30 28 12 36q0 23 0 45t-2 47-4 59q0 16-11 26t-21 9q-9-2-15-15t-4-28q2-28 5-58t4-58q1-17-7-28t-21-17-29-2q-25 4-43 20t-27 40-6 52q1 15 2 31t-1 32q0 16-7 23t-18 6q-14 0-27-9t-11-24q1-41 3-83t4-83q1-15 2-37t2-47 2-47 2-40 1-21q1-10 10-17t21-7q10 0 19 9t9 19q0 26-1 51t-1 51q-1 10-1 23t0 24m-12-78q0-17 0-35t0-36q-1-4-5-8t-7-5q-9 0-14 6t-7 16-2 18 0 15q-3 65-5 130t-5 129q-1 15-1 29t1 29q1 4 7 10t11 6q7 0 10-4t4-7q3-6 4-12t1-13q1-17 0-34t1-34q0-28 14-50t36-36 50-13q24 0 38 20 11 17 14 35t2 37-3 37q-1 13-2 27t-1 27q0 5 2 12t9 8q6 1 11-7t6-19q0-36 0-72t0-71q-1-18-11-33t-27-22-37-10-41 8-40 30q-5 7-10 5t-6-11q-1-5 0-12 0-11 1-26t1-30 1-24 0-10m230-58q0-18 10-30t24-11q8 0 16 6t14 13 6 18q0 10-6 19t-15 16-19 6q-13 0-22-10t-8-27m12 0q0 25 17 25 11 1 19-8t9-20q0-10-7-18t-16-8q-10 0-15 7t-7 22m-8 148q3-18 11-24t19-5q14 2 21 12t7 26q0 30 0 60t1 61q-1 17-2 34t-2 35q0 12-9 21t-21 11q-14 1-19-7t-8-19q-2-9-3-19t-1-19q0-15 0-31t0-30q0 0 0-12t1-28 2-35 3-31m43 35q0-9 0-17t-1-17q0-3-4-6t-6-4q-1-1-5-2t-8 0-8 7-3 21q1 26 1 51t-1 52q0 17 0 37t1 37q0 5 1 12t3 11 12 4q7-1 10-5t4-11 1-12q0-15 0-36t1-42 0-40 1-29 1-11m125 152q18 0 34-1t34 0q7 1 15 0t15 2q3 1 5 6t1 12q0 3-3 5t-7 5q-2 1-5 2t-5 0q-31 1-63 1t-62 2q-2 0-4-1t-4 0q-8-1-14-4t-9-10q-4-14 5-23 9-11 22-27t26-31 26-30 21-25 9-11q-4 0-14 0t-21 0-23 0-16 0q-5 0-10-2t-8-4q-2-1-5-5t-2-6q0-5 2-9t10-7 24-3q11 0 26 0t31-1 26-1 12 0q15 1 22 9t2 23q-7 16-18 29-18 22-37 44t-38 44q-2 3-6 7t-4 7 10 3m55-135q1 3-4 10t-9 11q-25 29-50 57t-51 56q-2 3-4 9t-1 8q2 3 7 5t9 2q36 2 69 2 33 0 66-2 5 0 5-4t0-7-4-3q-3-2-7-3t-8 0q-23 1-46 1t-46 1q-8 0-9-3t1-7 3-6q21-20 35-37t28-35 30-37q3-3 7-9t6-14 1-10q-2-5-9-5t-12 0q-14-1-34-1t-40 1-32 4q-3 0-5 3t0 5q1 5 9 6t19 0q16 0 32-1t32 0q3 0 6-1t6 4m225 1q0-16 0-29t0-29q0-9 3-15t11-8q11-3 18 2t8 18q1 22 1 43t-1 44q0 14-1 29t-4 30q-2 15-6 29t-7 29q-4 11-13 18t-19 10q-24 7-50 7t-49-11q-14-7-22-17t-11-25q-8-35-9-70t2-70q1-11 1-22t2-21q0-4 1-8t3-8q3-7 9-9t12-1q11 4 14 14 2 5 2 9t0 10q-3 38-4 77t6 76q8 40 48 37 22-2 33-10t14-30q2-12 4-29t3-33 1-26 0-11m-114-59q-1-4-4-9t-6-5-8 3-5 8-3 18-1 35 1 44 2 44 5 39q5 23 17 34t36 16q15 3 29 2t29-4q18-4 27-15t12-26q11-43 12-87t3-86q0-2-1-7t-2-10-6-5q-3-1-7 2t-5 5q-2 2-2 6t-1 8q0 25 0 50t-1 51q-1 17-4 33t-8 33q-4 13-15 21t-25 11-28-1-23-13q-10-10-14-23t-3-26q-1-13-1-31t0-37 1-36 0-29-1-13m241 4v12q13-12 27-19t29-6q28 2 46 21t20 58q1 5 1 10t-1 9q0 9-5 14t-14 5q-16 0-18-18 0-8-1-15t-3-15q-3-18-16-20t-26 4q-13 5-20 14t-13 22q-4 9-5 26t0 36 2 35 1 22q0 8-6 18t-12 14q-6 4-14 3t-13-5-7-11q-1-9-1-20t1-19q1-12 1-31t0-40 0-40 1-32 0-17q1-6 3-14t4-15q4-7 12-10t16 0q8 2 10 9t1 15m-3 36q-3 2-4 0t-1-7 0-6q0-5 1-11t1-10q0-5-2-10t-9-5q-6-1-10 3t-4 10q-1 7-2 15t-1 15q0 34-1 68t-1 69q0 10 0 21t2 22q1 7 7 9t10-3q7-9 8-22 1-20 0-42t-1-42q2-22 9-41t26-33q11-8 23-12t25 4q12 6 15 18t3 25q1 4 0 8t1 8q1 3 4 5t5 3 6-2 4-4q1-7 1-13t0-13q-2-33-20-49t-45-14q-5 1-13 4t-15 8q-12 9-16 16t-6 8m313 19q0-16-1-29t0-29q0-9 3-15t12-8q10-3 18 2t8 18q0 22 0 43t-1 44q0 14-1 29t-3 30q-2 15-6 29t-8 29q-3 11-12 18t-19 10q-25 7-50 7t-49-11q-14-7-22-17t-11-25q-8-35-9-70t1-70q1-11 2-22t1-21q1-4 1-8t3-8q4-7 9-9t12-1q11 4 15 14 2 5 2 9t0 10q-3 38-4 77t6 76q7 40 48 37 22-2 32-10t15-30q2-12 3-29t3-33 2-26 0-11m-114-59q-2-4-4-9t-7-5-8 3-5 8-2 18-1 35 0 44 3 44 5 39q4 23 16 34t37 16q15 3 29 2t28-4q18-4 27-15t13-26q11-43 12-87t2-86q1-2 0-7t-3-10-6-5q-3-1-6 2t-5 5q-2 2-3 6t0 8q0 25 0 50t-1 51q-1 17-4 33t-9 33q-4 13-15 21t-25 11-27-1-23-13q-11-10-14-23t-4-26q0-13 0-31t0-37 0-36 0-29 0-13" />
</svg>