<svg id="fnt-Shojumaru" viewBox="0 0 3638 1000" xmlns="http://www.w3.org/2000/svg"><path id="shojumaru" class="f" d="M397 500q1 5 1 10t0 10q0 26-7 48t-22 42-33 33-41 25-47 16-49 6q-22 0-44-2t-40-2q-15 0-28 2t-24 8q-9-33-19-60t-18-47q-10-22-20-40 29 15 58 24t55 13 48 6 37 2q16 0 32-2t33-6q-4-6-9-10t-8-7q-4-4-8-6-7-3-19-7t-27-7-32-8-33-11-31-14-27-18q-9-8-15-17t-10-20-5-19-2-19q-9 3-15 6t-12 6l-10 5q9-27 25-47t35-35 42-25 44-17q52-16 111-18 19 0 40-1 18-1 41-4t49-7q-8 11-13 25t-7 28-4 27-1 25q0 7 1 13t0 11q1 5 2 9-43-19-84-27t-78-7q-13 0-25 0t-23 3q3 11 10 19t14 13q8 6 17 9 19 6 41 14t43 21 42 29 35 39q9-8 18-17t16-20m167 174q-22-4-39-6t-34-2q-31 0-73 9 18-42 28-86t11-92q0-29-4-58t-13-59q16 4 31 8t30 6 31 3 32 2q3 62 3 125 19-2 37-4t36-5q3-36 8-73t17-74q14 5 27 9t25 6 25 3 27 2h16q-14 26-23 53t-13 55q11-2 22-5t22-5q-4 27-4 56 0 14 1 28t3 28q-11-1-22-1t-22-1q3 18 7 36t11 36q-7 0-12 0t-9 0-7-1-6 0q-21 0-43 4t-46 11q-3-25-5-51t-1-52q-18-4-36-9t-35-11q0 29-1 57t-2 58m571-291h3q-9 7-16 14t-15 16q23 5 44 14t36 25 24 34 8 43q0 27-8 48t-25 39-37 29-47 20-53 12-56 4q-10 0-21 0t-21-1-19-2-14-4q7-5 13-11t11-12q-23-4-43-13t-36-22-24-33-9-43q0-28 10-51t29-41 42-30 53-21 58-12 61-4q12 0 25 0t27 2m-21 129q0-21-9-34t-24-21q-3 6-5 13t-4 14q-18-5-29-7t-20-2q-15 0-31 5t-28 15-20 24-8 31q0 16 8 30t23 26q2-8 3-16t1-16q19 8 32 12t25 3q16 0 31-5t28-16 19-24 8-32m420 48q-19 29-46 51t-62 40-80 26-98 14q0-16 0-29t-3-27-6-27-12-28q34 10 65 15t59 4q13 0 26-1t26-2q-5-59-15-119t-27-116q36 13 69 21t63 8h17q-3 17-6 36t-4 38-3 39-1 37q0 9 0 17t1 17q9-3 18-7t19-7m393-183q0 74-14 131t-43 95-69 58-97 19q-15 0-29-2t-31-5q3-1 7-4 3-2 6-4t8-7q-25-8-45-26t-33-44-20-58-7-70q0-9 0-16t1-15 2-15 3-18q6 0 12 1 6 0 13 0t15 1q10 0 23-1t25-3 28-5 30-9q-9 21-16 38t-11 33-7 30-2 29q0 25 6 47t19 40l1-8q17 5 27 5 14 0 26-6t20-14 15-21 9-24 6-26 1-24q0-10-2-23t-7-27-10-28-13-27q10 3 22 5t25 4 25 3 24 1q14 0 29-2t28-8m476 11q-9 19-16 37t-10 33-6 31-1 29q0 26 6 48t14 40 21 32 22 26q-9 0-18-1t-18-1q-10 0-20 1t-20 4-22 6-24 10q-11-29-18-58t-10-58q-12 24-21 50t-12 57q-2 0-12 0t-23 1-29 4-33 7q-3-33-11-61t-21-55q-3 28-10 56t-18 57q-50-21-100-21-8 0-18 1t-21 1q38-37 58-82t20-102q0-7-1-14t-1-15q-18-17-39-34t-43-34q10 2 27 5t41 4q21 0 46-4t53-16q17 22 32 51 14 25 29 60t27 78l17-43q9-21 16-40t15-38 12-37 10-40q18 9 36 15t35 7 33 3 26 0m429 187q-10 4-20 9t-21 9q23 40 50 76-38 0-72 8t-70 23q2-7 3-13t1-14q0-12-3-26t-6-29q-10 1-21 2t-20 0q-17 0-34-2t-32-7q-4 18-7 37t-7 39q-13-6-28-11-12-4-29-8t-35-4q-16 0-34 3t-39 9q16-17 31-34t26-32 22-30 16-24q-7-8-13-18t-12-21q10 5 20 9t18 7q12-20 24-40t27-39q-3-7-8-16t-10-19-11-19-11-17q23 6 47 10t47 5q13-11 28-21t31-16q-5 9-10 18t-10 18q12-1 25-3t26-4q9 33 19 64t24 62q10-6 21-13t21-14q8 26 17 47t19 39m-164-26q-8-19-18-39t-22-39q-15 39-27 82 5 1 9 1t9 0q12 0 24-1t25-4m573 105q-35 2-69 12t-68 27q-5-53-26-97-9 2-19 3t-21 1q-4 0-8 0t-9 0q1 38 3 75-7-1-15-1t-15-1q-24 0-53 6t-62 16q12-33 21-67t14-67q-16-11-28-21t-18-18q12 4 25 6t25 6q3-28 3-57v-9q-13 4-26 9t-26 10q8-24 8-45 0-17-4-33t-13-29q52-7 93-10t72-2q15 0 34 0t39 3 40 7 36 13 29 20 16 30q5-3 10-6t11-6q-2 18-9 35t-17 34-24 31-29 27q36 56 80 98m-165-212q-10 0-23 1t-30 3q0 23-1 46t-1 47q15-2 28-7t23-14 17-19 8-27q9-2 19-3t19-4q0 0 0 0v0h0q-4-6-10-10t-12-7-16-4-21-2m560-65q0 74-14 131t-43 95-69 58-97 19q-15 0-29-2t-31-5q3-1 7-4 3-2 6-4t8-7q-25-8-45-26t-33-44-20-58-7-70q0-9 0-16t1-15 2-15 3-18q6 0 12 1 6 0 13 0t15 1q10 0 23-1t25-3 28-5 30-9q-9 21-16 38t-11 33-7 30-2 29q0 25 6 47t19 40l1-8q17 5 27 5 14 0 26-6t20-14 15-21 9-24 6-26 1-24q0-10-2-23t-7-27-10-28-13-27q10 3 22 5t25 4 25 3 24 1q14 0 29-2t28-8" />
</svg>