<svg id="fnt-Sigmar One" viewBox="0 0 3385 1000" xmlns="http://www.w3.org/2000/svg"><path id="sigmar-one" class="f" d="M168 679q-35 0-71-8-36-9-59-23-6-18-9-36t-7-52v-1q1-6 6-9 19 11 37 17t38 6h12l8 0q12 0 24-3 6-3 9-10l-27-13q-30-14-55-31-25-18-36-47-6-15-6-34 0-45 28-72 24-25 65-35 35-9 78-9 25 0 69 6 4 1 12 2l15 3q17 3 25 3 1 0 2 1t2 3q2 3 4 3h1 0l1 11q0 7 2 16 1 12 1 27 0 12-1 18-3 10-9 14l-47-6h-5-7q-17 0-39 4l-16 3q-6 1-6 2 0 12 15 23 8 4 15 6t10 4q37 11 64 37 12 12 19 25t7 26q0 8-2 16-3 38-28 65-25 25-62 36-32 12-77 12m241-6q-9 0-12-18-1-7-1-13 0-8-1-10 0-15-2-46l-2-19q-3-44-3-65v-122q0-4 9-6 5-1 14-1 6 0 13 0t11 1q7 1 23 1l2-1h22q2 1 4 1h2q0 0 2 0 1-1 3-1 1 0 1 0t1 0q1 0 3 0t3 1h37l2 86q0 1-1 3t-1 8q-2 18-2 28v98l-1 19q-2 12-1 20 0 11-1 17t-3 10q-3 3-10 3l0 0-2-1q-1 0-1 1h-2q-3 1-4 1-2 0-11-1l-7-1q-3 0-3 2h-38-7l-13 3-12 1-11 1m310 5q-32 0-60-15-32-16-50-48-21-37-21-90 0-37 13-66t37-50q24-20 56-31t69-10q54 0 115 28l-18 74q-9-2-16-5-20-5-36-8-11-2-17-2-26 0-40 15-17 18-17 57 0 34 10 52 10 14 27 14 13 0 26-6-1-5-1-12t-1-15q-2-18-4-26v-19q0-4 3-4h3q1 0 3 0t3-1q5-1 6-1 3 0 9 1 2 0 5 1t5 0q2-2 12-2 8 0 13 0 3-1 7-1l6-2q5 1 13 1 4 0 10 0 1 0 2 0t2 1h11l2 1v14q0 2 0 7v7 13 44 2q0 2 0 4-1 2-1 5v2q0 27-1 38-1 16-3 22-11 0-17 1h-10-1-4l-1-1-2 1h-43-2-5-5q-1 1-3 1-4 0-5-10-3-11-3-26-5 22-27 34-22 11-54 11m289-10q-4 0-7-1h-9-7-4l-19-4-1-4v-5l-1-13q-1-9-1-16l0-38q-1-5-1-15 0-23 2-44 1-14 1-45 0-5-1-9v-5l-1-3q0-11 2-22l0-27 0-12v-11q-2-2-2-4 0-7 12-11 7-2 18-2h73l34 1t0 0 2 2q4 4 8 10 5 8 8 16 3 10 13 35 8 21 14 33 4 13 9 13 4 0 7-7 1-1 3-6l8-19q1-2 7-15 1-2 8-18l8-16q1-3 3-7t4-9q5-8 8-10 1-2 3-2l34-1h73 6 4 6q2 1 9 1 1 0 2 6 2 26 2 41 1 19 1 58v25q0 22-4 64v15q0 7 0 18l1 21q0 6 0 16 0 9 1 12v5l-2 4-19 4h-4-7-8q-3 1-8 1-19 0-40-2t-25-2l-2 1h-3q-3 0-3-10-2-13-2-57-1-13-1-34 0-4-4-4-1 0-3 4-7 18-9 23l-3 10-4 8q-9 20-20 31-6 7-13 7h-7-9q-6 0-9-1-6 0-8 0-18-27-33-60-2-6-4-10t-2-7q-4-5-4-5-3 0-3 4v20q0 30-1 44 0 21-3 32 0 2-1 3t-2 2h-2l-2-1q-5 1-25 2t-41 2m400-1q-9 0-7-17 0-6 2-13 0-4 1-6t0-4q12-54 26-107l34-133q0-1 1-3t3-2h4q6 0 9-2 3 0 11 0 12 0 18 0 9 2 18 2l26-1q4-1 10-1l22-1h16q10 0 19 1h14q5 0 14 0h19q2 0 3 1t3 1q2 1 5 1h4q4 2 4 5l35 132q17 63 26 107 0 3 2 10 2 10 2 16 0 3-1 9-3 5-7 5h-6q-6 0-10 0h-11-10-9q-3 0-4-1h-27l-1-1q-1-1-3-1l-1 1q0 1-1 1h-2-3q-3-1-9-1-12-1-20-1-6-11-13-50-11 1-24 1h-13-13q-2 8-2 13-1 2-4 17t-7 19l-3 1q-1 1-2 1t-1 0h-1q-3 0-4-1-2-1-3-1l-19 1h-14q-2 1-4 1t-2 0h-40-4q-4 1-18 1h-12q-3 0-10 0h-6m201-107q-3-17-3-20l-4-24q-1-7-2-13t-2-10q-1-6-2-12t-2-9q0-3-1-8t-1-7l-1-6q0-2-1-3l-1-3q-1 3-1 3v2 1q0 1 0 2t-1 4q-1 3-1 6t-2 9l-3 20-4 23-2 11q-1 4-2 13-4 23-4 21h22q1-1 2-2t1 0h2q2 0 4 0t3 1q3 1 6 1m429 112q-22-21-37-43-11-15-34-52l-9-13q0-1-1-1t0 0h-2l-2 1q-1 6-1 35 0 18-2 43l0 15q-2 6-3 6h-3-2q-55 4-80 4h-7-10q-5 0-8-1h-3l-16-5-1-3q-1 0-1-2t0-3q-2-21-3-31-2-27-2-39-1-12-1-16l-3-27 0-15q-1-5-1-13v-4q1-3 1-8v-9q1-2 1-4l-1-4v-5q0-4-1-6v-3l1-12q0-4 0-11 1-15 1-28v-5q0-2 0-7v-7-5q-2-1-2-3 0-7 13-10 6-2 18-2 117 0 175 8 57 8 80 28 10 9 14 22t5 30q0 28-16 47-11 11-25 18 3 7 18 30 3 3 5 7t7 9q10 13 22 28 1 2 4 9 3 1 3 2t-1 3q-4 6-23 18-3 2-6 5-10 8-28 16-16 9-27 12-5 3-6 1m-91-176q7 0 18-2 10-3 15-6 7-5 13-10 5-7 5-15 0-14-8-23-8-6-19-6h-21q0 7-1 21l-1 10q-1 10-1 31m554 183q-59 0-94-10-48-12-73-46-29-41-29-113 0-51 12-87t35-59 62-34 92-11q43 0 80 13 46 17 72 51 31 40 31 106 0 77-23 120-23 40-66 56-36 14-99 14m-4-49q6 0 10-7 7-16 10-51 3-31 3-59v-20-13q0-22-3-53-3-34-10-52-4-8-10-8-11 0-16 21-5 29-5 52-1 20-1 63 0 28 1 47 0 23 5 54 5 26 16 26m296 38h-7-8-7-4l-20-5-1-3q0 0 0-5 0-7-1-11l0-19q-1-6-1-19 0-12 0-18v-15q-3-32-3-65v-4-8q0-6 0-8v-4-4q0-1 0-5v-5-3-5-8q0-6 0-9v-5l1-2v-7q0-5 0-13 0-7 0-12l-1-11 0-2q-2-1 0-2 2-8 12-11 5-2 17-2 8 0 44-2 18-1 23-1 7 0 18 0 5 0 7 1t3 5 3 4l10 15q0-1 13 18 12 19 29 44 2 4 6 9t7 11v-17q1-7 1-20 0-17 1-38 0-4 0-8t1-5q0-5 0-5 2-3 7-6 6-4 13-4h25 5q7 0 12 1h15q5 0 15 0h11 5q10 0 15 4 3 2 4 5t1 10 0 11q-1 5-1 12v3q1 2 1 5v13l-1 57v57 13q0 54-1 69l-1 16q-3 12-7 12-1 0-3 1t-4 0q-18 0-26-1h-26-26-7q-1 1-4 1-6 0-12-3-4-1-9-5l-44-62q-2-4-9-12l-7-6q-2-2-4-2t-2 1-1 2v9q-1 4-1 12v15q0 5 0 15v12 7q-1 1-1 3 0 1-1 8-1 2-2 3t-3 0q-1 0-2 0t-1 0q-40 3-66 3m348-3q-1 0-1-2-4-5-5-11-2-3-3-7-4-9-6-25-2-23-2-36-1-6-1-17v-12q0-15 0-23-1-9-1-36 0-71 3-109 0-6 17-9h15 13q28 0 42 1 21 1 43 1 5 0 7 0h8l2 2q17-4 34-5t43-1q1 0 2 2h16q4 0 6 4t4 13q2 7 3 16 2 13 4 17 0 14-5 14-1 0-2-2l-2 0q-2-1-5 0-3 2-7 2-3 0-5-2-1 0-4 0-5 0-11 1-2 1-8 2t-13 1q-21 0-31 1-5 0-10 3v-1q-2 0-4 5-3 8-4 23-1 5-1 10t2 8 6 2q3 0 5-2 1 0 2 0t3 2h42q1-1 2-2t2 0q5 0 7 1 3 2 12 3 5 0 7 3 3 4 3 7l10 33q2 8-15 10-9 2-36 2h-22-15q-7 0-10 1t-5 4q-2 2-2 8v2q0 2 1 3l-1 11q0 4 0 11v5 4 3q22 0 46-1 23-2 45-2 2 0 3 2t1 6q1 3 1 6 1 8 3 14l3 15v10 1 4l-4 4h-3-2q-5 0-7-1-1-1-3-1-1 1-3 2t-4 2v-3l-6 1h-7q-2 0-3-1l-4-1q-19 0-26 4h-159" />
</svg>