<svg id="fnt-Signika Negative" viewBox="0 0 3564 1000" xmlns="http://www.w3.org/2000/svg"><path id="signika-negative" class="f" d="M16 636q1-11 7-22t15-17q21 14 48 24t52 10q31 0 49-14t17-35q0-19-12-32t-35-24l-60-25q-32-13-50-34t-19-52q0-27 14-49t40-35 58-12q31 0 58 8t47 17q0 11-5 22t-13 18q-20-10-43-17t-43-7q-28 0-45 14t-16 35q0 17 12 28t31 19l59 25q21 8 38 21t27 31 10 41q0 28-13 51t-41 35-68 13q-31 0-63-10t-56-27m357-175v206q-10 2-24 2t-25-2v-185q0-14-5-20t-16-6h-6q-2-9-2-17 0-5 1-9t1-9q9-2 17-2t14-1h6q18 0 28 12t11 31m-64-107q0-13 4-22 5-2 12-4t15-2q6 0 14 2t12 4q2 4 3 11t2 11q0 12-5 21-3 3-12 5t-14 1q-7 0-15-1t-12-5q-4-9-4-21m341 88q-8 7-11 20t-3 28v150q0 28-2 48t-8 33-13 23q-12 14-33 24t-49 9q-23 0-46-5t-40-12q1-9 4-20t9-17q16 7 35 12t34 4q26 0 39-10t18-26 5-36v-186q0-23 9-41t33-24q7 4 12 12t7 14m-215 102q0-45 14-73t36-43 45-14q21 0 37 6t28 16 20 21l-6 42q-13-20-33-33t-39-13q-14 0-26 10t-19 30-7 51q0 46 13 66t33 20q20 0 39-13t30-34l7 38q-7 11-19 23t-30 19-37 8q-28 0-48-16t-29-44-9-67m284-126h18q16 0 22 9t6 26v214q-10 2-24 2-15 0-25-2v-246l3-3m192 79v118q0 13 2 24t6 20q-6 5-14 8t-17 3q-14 0-20-8t-6-23v-130q0-26-6-37t-26-12q-13 0-28 6t-28 17-22 26v-47q17-20 41-33t52-13q24 0 38 11t21 29 7 41m133-36v206q-11 2-25 2t-24-2v-185q0-14-5-20t-17-6h-5q-2-9-2-17 0-5 0-9t2-9q9-2 17-2t13-1h7q18 0 28 12t11 31m-65-107q0-13 5-22 4-2 12-4t14-2q7 0 15 2t12 4q2 4 3 11t1 11q0 12-4 21-4 3-12 5t-15 1q-7 0-14-1t-12-5q-5-9-5-21m192-23v336q-10 2-24 2-14 0-24-2v-365l3-3h18q16 0 21 8t6 24m111 243l18 42q6 15 11 25t13 14q-5 6-15 10t-18 5q-14 0-20-7t-12-22l-21-49q-8-20-17-27t-27-7q-6 0-14 1t-16 1l-18 2v-36h66q27 0 43 11t27 37m26-151l-57 88q-10 16-24 24t-35 7h-41v-23l37-1q5 0 7-2t5-5l46-71q6-11 13-16t20-6q7 0 13 1t13 0l3 4m47 177q0-29 13-47t34-27 48-9q15 0 32 2t33 5v33q-13-4-30-5t-32-1q-23 0-36 12t-13 33q0 16 9 27t26 11q18 0 39-13t35-38l8 38q-9 11-23 23t-30 21-40 8q-24 0-41-11t-24-28-8-34m207 45q-2 7-8 14t-11 11q-15-3-25-12t-13-20-5-25v-113q0-24-11-35t-31-10q-19 0-39 5t-40 14q-6-6-10-16t-5-20q14-6 31-11t36-9 36-3q25 0 43 9t28 28 10 47v102q0 15 2 25t12 19m180 22v-341q6-2 15-2t15-1q6 0 15 1t15 1l-13 59-4 1q1 17 2 38t1 42 1 40v162q-7 1-13 1t-11 1q-4 0-11-1t-12-1m186 0l-109-213q-10-19-18-36t-15-34l-23-28 39-31 109 213q10 19 18 38t16 34l25 26-42 31m58-344l3 3v340q-6 1-15 2t-16 1q-7 0-15-1t-15-1l14-57 4 0q-1-20-2-42t-1-43-1-39v-131q0-17 6-24t21-8h17m271 236h-169v-36h125v-7q0-18-5-33t-17-24-30-9q-26 0-39 22t-14 61v15q0 24 5 43t18 31 36 11q20 0 37-6t34-14q6 6 10 15t5 17q-18 13-42 20t-51 8q-29 0-49-10t-31-29-17-42-5-48q0-38 11-67t35-46 57-17q33 0 55 14t33 39 11 53q0 12-1 20t-2 19m267-117q-8 7-11 20t-3 28v150q0 28-3 48t-8 33-13 23q-11 14-32 24t-49 9q-23 0-46-5t-40-12q0-9 4-20t9-17q16 7 35 12t33 4q26 0 40-10t18-26 5-36v-186q0-23 9-41t33-24q6 4 12 12t7 14m-216 102q0-45 14-73t36-43 45-14q22 0 38 6t27 16 21 21l-7 42q-13-20-32-33t-39-13q-15 0-27 10t-19 30-7 51q0 46 14 66t32 20q21 0 40-13t29-34l7 38q-6 11-19 23t-29 19-37 8q-29 0-48-16t-29-44-10-67m264 56q0-29 12-47t34-27 49-9q14 0 32 2t33 5v33q-13-4-30-5t-32-1q-24 0-37 12t-12 33q0 16 8 27t26 11q19 0 40-13t35-38l7 38q-9 11-22 23t-31 21-39 8q-25 0-41-11t-24-28-8-34m207 45q-2 7-8 14t-11 11q-16-3-25-12t-13-20-6-25v-113q0-24-11-35t-30-10q-19 0-40 5t-39 14q-6-6-11-16t-4-20q14-6 31-11t36-9 36-3q24 0 43 9t28 28 10 47v102q0 15 2 25t12 19m73-26v-244q0-17 5-24t21-8h18l4 4v261q0 10 4 16t16 6h35q4 11 4 25 0 2 0 5t-1 5q-12 2-26 3t-29 1q-24 0-38-13t-13-37m29-198l81-1q2 9 2 18 0 9-2 18l-81-1-66 1q-2-9-2-18 0-9 2-18l66 1m191 40v206q-11 2-25 2t-24-2v-185q0-14-5-20t-17-6h-5q-2-9-2-17 0-5 0-9t2-9q9-2 17-2t13-1h7q18 0 28 12t11 31m-65-107q0-13 5-22 4-2 12-4t14-2q7 0 15 2t12 4q2 4 3 11t1 11q0 12-4 21-4 3-12 5t-15 1q-7 0-14-1t-12-5q-5-9-5-21m221 273l61-207q5-1 9-2t9 0q7 0 13 1t12 3l1 2q-8 29-19 62t-22 68-20 63-17 50q-8 1-17 2t-18 0q-14 0-22-5t-13-23l-71-217q9-4 16-6t13-2q10 0 16 5t10 16l35 112q4 12 7 27t8 26 5 21q1 4 4 4m331-68h-168v-36h124v-7q0-18-5-33t-17-24-29-9q-27 0-40 22t-13 61v15q0 24 5 43t18 31 36 11q19 0 36-6t34-14q6 6 10 15t5 17q-17 13-42 20t-51 8q-29 0-49-10t-31-29-17-42-5-48q0-38 12-67t34-46 58-17q32 0 54 14t33 39 11 53q0 12 0 20t-3 19" />
</svg>