<svg id="fnt-Simonetta" viewBox="0 0 2079 1000" xmlns="http://www.w3.org/2000/svg"><path id="simonetta" class="f" d="M111 656q14 0 27-5t22-13 15-21 6-28q0-15-7-27t-18-23-23-20-23-18q-11-8-24-18t-24-22-19-26-8-32q0-9 2-19t6-18 11-18 17-14 25-10 33-4q24 0 46 4t38 9l-5 73h-14v-6q0-10-2-21t-8-20-20-15-33-6q-13 0-23 4t-18 10-12 15-4 21q0 15 6 27t16 21 21 17 22 16q16 11 31 23t26 24 18 28 6 32q0 21-9 38t-25 31-35 21-41 8q-26 0-50-4t-40-10l5-77h16v8q0 10 2 22t10 21 21 15 37 7m223-208q-2 19-5 39t-3 40-3 39 0 38q0 16 0 26t5 16 9 7 17 2h11v12h-4q-23 0-41 1t-36 7q6-40 9-79t3-77q0-12-2-21t-5-14-12-9-21-3h-5v-11q25-1 45-5t38-8m-18-58q-10 0-17-6t-7-19q0-6 2-11t5-9 8-6 10-2q9 0 16 7t7 19q0 5-2 10t-4 9-8 6-10 2m444 265v12q-12 0-23 1t-21 1-20 2-19 4q3-14 5-32t5-36 3-36 1-30q0-13-2-25t-6-22-12-16-20-5q-9 0-17 3t-15 8-15 10-12 12v7q0 14-2 29t-2 29-2 28-2 25q0 9 2 15t5 10 9 5 14 1h13v12q-12 0-23 1t-21 1-20 2-19 4q3-14 5-32t5-36 3-36 1-30q0-13-1-25t-7-22-12-16-20-5q-9 0-17 3t-17 9-14 11-13 12q-1 11-2 24t-2 26 0 24-1 23q0 16 1 25t4 16 8 7 17 2h13v12h-5q-23 0-42 1t-36 7q5-36 8-74t4-77q0-9-1-19t-5-16-12-12-22-4h-5v-12q11-1 20-2t19-1 19-4 22-6q-2 11-4 23t-4 23q13-12 24-20t21-15 21-8 22-3q7 0 14 1t15 7 13 12 8 22q12-11 22-19t20-13 20-8 22-2q7 0 16 2t17 9 13 20 6 34q0 14-1 29t-3 29-2 28-1 25q0 9 1 15t5 10 9 5 14 1h13m135-193q-19 0-32 8t-24 21-14 31-5 36q0 18 4 36t14 31 23 23 35 9q17 0 31-7t23-19 14-30 5-39q0-16-4-34t-13-32-24-25-33-9m-111 109q0-23 8-45t24-40 38-28 52-10q27 0 46 7t31 21 17 30 6 37q0 26-10 50t-25 41-39 27-47 11q-29 0-49-9t-31-22-16-32-5-38m507 84v12q-13 0-24 1t-21 1-19 2-19 4q2-14 4-32t5-36 3-36 1-30q0-13-1-25t-6-22-13-16-26-5q-9 0-19 3t-18 8-17 11-14 12q-1 11-1 25t-2 25-1 25 0 23q0 16 0 25t4 16 9 7 17 2h12v12q-26 0-46 1t-37 7q6-36 9-74t3-77q0-9-1-19t-4-16-12-12-23-5h-4v-11q11-1 20-2t18-1 19-4 23-6q-2 11-4 23t-4 23q27-23 50-35t47-11q7 0 17 2t18 9 15 20 6 34q0 14-1 29t-3 29-2 28-1 25q0 9 1 16t5 9 10 5 14 1h13m169-117q-26 0-53-2t-55-4q-2 11-2 22 0 26 7 44t17 27 25 14 29 4q10 0 18-1t18-4 18-8 19-12l7 10q-25 20-49 32t-51 12q-22 0-40-9t-29-22-19-32-6-38q0-26 9-49t24-39 35-26 42-9q22 0 37 7t24 19 12 26 4 27q0 3 0 5t0 5q-22 1-41 1m-44-76q-13 0-23 5t-17 12-13 19-9 22q18 1 29 1t21 0h24q8 0 17 0t21-1v-2q0-13-4-24t-10-17-16-11-20-4m114-9h43q0-17 1-34t0-36l37-8q-3 16-4 36t-3 42q24 0 41-2t28-3l-11 23h-16q-11 0-22 0t-22 0q-1 16-2 32t-2 31-1 27 0 23q0 16 1 27t6 18 9 10 16 3q10 0 22-6t21-18l8 9q-8 9-16 17t-18 14-19 10-19 4q-14 0-22-5t-13-13-7-20-2-24q0-26 3-60t5-81q-10-1-20-2t-23-3l1-11m163 0h42q1-17 1-34t1-36l36-8q-2 16-4 36t-3 42q25 0 41-2t29-3l-11 23h-16q-12 0-22 0t-22 0q-2 16-3 32t-1 31-1 27-1 23q0 16 2 27t5 18 10 10 15 3q11 0 23-6t21-18l8 9q-8 9-17 17t-18 14-18 10-20 4q-13 0-21-5t-14-13-6-20-2-24q0-26 2-60t6-81q-11-1-21-2t-22-3l1-11m169 176q0-15 7-25t20-18 26-13 29-8 28-4 21-2q2-11 2-21t0-19q0-12-1-22t-7-19-13-13-23-4q-10 0-18 3t-14 10-10 15-3 18q0 3 1 7t1 8q-2 3-7 5t-10 2q-3 0-7-1t-6-4-4-6-2-10q0-13 10-25t23-19 32-12 32-4q28 0 45 13t16 44q0 13-1 28t-3 32-2 29-2 23q0 15 4 24t12 8q4 0 9-3t9-6 7-8 5-6l9 7q-8 12-15 20t-14 11-13 6-12 2q-9 0-16-4t-11-9-6-14-3-15q-5 8-11 15t-16 14-20 9-25 4q-16 0-27-5t-16-10-8-15-2-13m66 25q16 0 27-7t18-19 12-26 7-30q-8 0-19 1t-20 3-21 6-17 9-12 14-5 19q0 9 3 15t8 9 9 4 10 2" />
</svg>