<svg id="fnt-Single Day" viewBox="0 0 1902 1000" xmlns="http://www.w3.org/2000/svg"><path id="single-day" class="f" d="M189 391q4 9 4 16 0 7-5 12t-15 5q-6 0-10-2-19-17-42-17-25 0-43 21 0 2-1 4t-2 5q0 20 11 34t27 24 34 19 35 22 27 29 11 44q0 21-10 36t-25 23-33 14-31 4q-26 0-50-11t-43-31q-4-6-7-14t-4-16q0-8 5-14t15-7q9 0 15 9t10 19q12 13 27 19t30 6q6 0 15-1t17-4 16-8 10-11q1-4 1-7t2-5q-3-17-12-29t-21-21-26-16-24-14q-20-11-36-27t-25-46q-2-9-2-16 0-17 8-31t21-23 30-15 34-5q20 0 35 7t27 19m122 209l2-66q3-11 9-15t15-3q7 1 12 7t5 16q-1 19-2 34t-2 29-1 29 0 36q0 8-6 14t-13 5-14-5-7-15q0-38 2-66m-19-137q-5-2-9-8t-4-10q0-7 5-14t17-7q14 2 25 8t22 8q8 2 12 8t4 12q0 7-5 13t-13 7q-8 0-14-2t-13-5-13-6-14-4m142 14q2-1 4-1t6 0h0q18 0 27 5t17 19q10-10 20-14t21-4q19 0 34 10t26 25 16 36 6 43q0 20-3 40t-5 37q-5 13-19 16h-1q-7-1-14-6t-6-15l0-5q0-3 1-4t1-4l3-21q1-9 2-18t0-18q0-9-1-23t-7-25-14-20-23-8q-5 3-12 6t-13 4h-1q-2 0-2 1 0 1 0 1t1 0q2 14 3 30t1 30q0 13 0 28t-4 31-8 24-16 10q-8 0-14-5t-7-16q0-3 1-4 9-32 9-72 0-42-8-70l-1-2q-5 0-11-2t-10-4-9-7-3-10q0-12 13-18m306 45q-8-2-15-5t-14-3q-6 0-12 4t-8 11-6 15-2 17q0 6 2 12t4 12 6 9 10 4q9 0 16-6t11-15 7-19 2-19q0-4 0-8t-1-9m-37 256h-19q-11 0-16-7t-4-14 5-12 14-6q21 0 34-6t23-18 11-25 4-30q0-11-1-22t-2-22q-20 21-47 21-15 0-26-6t-19-17-12-24-4-28q0-14 4-30t13-29 21-22 29-8q8 0 18 2t17 5 14 7 7 6q3 6 3 11l2 1q5 5 8 13 2 17 4 33t6 31 4 32 2 33q0 19-5 42t-16 43-29 33-43 13m159-246v-137q3-9 8-14t12-4q14 0 20 17 0 37 0 69t-1 62q0 48 6 106 5 1 11 3t13 5 10 8 4 12-5 13-14 5q-5 0-11-3-18-8-27-11t-13-7-6-14-3-29q-4-18-4-39t0-42m160 6q-1 0-1 1h1q3 0 7 1t6 4 4 4 2 2q7 3 16 3 14 0 24-4t10-20q-3-10-7-16t-12-12l-10-5h-7q-4 0-10 2t-13 6q-2 2-4 8t-3 11-2 10-1 5m4 47l-2-5q6 26 29 42 5 4 12 7t15 5 14 4 7 1q5-4 12-4 9 1 14 7t5 13q0 11-10 17t-21 7q-24 0-46-10t-37-25-27-37-11-45q0-16 3-35t10-34 23-27 40-10q15 0 29 6t24 18 16 26 5 30q0 14-5 25t-14 18-20 10-26 4q-5 0-12-1t-12-2-10-3-5-2m311-199l0 1q2-2 9-2l47 13q18 4 33 15t28 27 20 31 11 29q3 13 3 30 0 11-1 24t-6 28-12 26-18 21q-14 11-22 17t-14 8-13 5-22 7q-4 1-6 1-5 0-9-3t-6-2h0-1q0 0-5 3t-10 4q-7 0-14-5t-7-13q0-64-5-125t-12-126q4-15 20-18 7 0 12 4m25 245q-1 0-1 0 0 1 1 1t3 0 3-1q8-3 18-6t19-8 18-14 16-24q11-23 11-46t-11-47-31-39q-11-8-24-13t-25-8l-12-3q3 25 5 52t5 54 3 53 2 49m288-23l2-10-4 0q-7-2-13-5t-12-7-11-6-11-3q-17 2-29 12t-13 23q0 4 2 9t6 11q13 8 28 8 18 0 31-4l6-6q5-6 14-6h2q0-4 1-8t1-8m9 49l-11 11q-6 6-20 9t-29 2q-21 0-35-4t-25-17q-18-24-18-44 0-14 6-27t15-24 26-18 33-7q8 1 15 4t14 5 11 6 8 4l-3-13q-2-8-5-16t-9-15l-9-8q-4-1-8-3t-9-2q-14 1-27 4t-28 7q-1 1-4 1-10 0-16-6t-6-13q0-6 3-10t12-10q12-4 28-8t31-5q26 0 44 11t29 28 14 38 4 42q0 12 0 26t-4 26-7 20-13 7q-2 0-4 0t-3-1m71-163q2-9 8-13t12-5q10 0 14 7t6 17 2 22 1 21q1 9 3 18t5 17 10 12 19 5q3 0 5 0t5-2l12-6q3-2 7-8t9-14 7-20 3-26q0-5 0-10t0-8l4-10 1-2q10-7 17-7 6 0 10 3t5 5l3 7 0 3q0 12 1 25t1 27 0 33 1 41q0 28-4 50t-15 39-30 31-50 24q-5 2-13 2-5 0-10-1t-9-4-8-7-3-12q0-12 6-18t14-6h3 1q6 0 11 7l1-1q5-2 9-4 4-1 8-3t5-3q15-7 24-18t14-24 6-29 1-33v-9q-8 8-21 16t-36 8q-25 0-40-13t-21-32-10-45-4-47" />
</svg>