<svg id="fnt-Sintony" viewBox="0 0 1841 1000" xmlns="http://www.w3.org/2000/svg"><path id="sintony" class="f" d="M175 469q53 15 74 36t22 66-31 74-91 29-86-25-35-70l36-7q10 66 82 66 81 0 81-64 0-28-15-42t-50-23l-33-9q-51-14-72-36t-21-67 30-73 87-29 83 24 33 71l-36 6q-9-66-76-66-77 0-77 65 0 28 13 41t47 23l35 10m177 198v-286h43v286h-43m22-334q-26 0-26-28t26-28q26 0 26 28t-26 28m153 48l12 30q50-37 99-37t69 22 20 68v203h-43v-202q0-30-11-43t-39-13q-46 0-90 33v225h-43v-286h26m308 29h-49v-29h49v-52l43-17v69h60v29h-60v190q0 22 6 31t18 10 30-4l5 29q-27 8-46 8t-31-6-17-18q-8-18-8-49v-191m222 219q17 10 42 10t41-10 25-26 11-36 4-43-4-44-11-36-25-26-41-9-42 9-25 26-11 36-3 44 3 43 11 36 25 26m166-105q0 150-124 150t-124-150 124-150 124 150m105-143l12 30q51-37 100-37t69 22 20 68v203h-43v-202q0-30-12-43t-38-13q-47 0-90 33v225h-43v-286h25m512 0l-152 408-39-7 44-113-108-288h44l85 231 82-231h44" />
</svg>