<svg id="fnt-Sirin Stencil" viewBox="0 0 2328 1000" xmlns="http://www.w3.org/2000/svg"><path id="sirin-stencil" class="f" d="M131 473q19 4 35 9t25 11 18 14 12 15 7 17 3 18 1 18q0 20-7 37t-19 30-22 18-21 7q-6 0-6-5 0-3 4-7 13-12 19-29t6-31q0-8-1-13t-1-13-4-13-8-11-12-11-19-8-26-6q-19-3-33-7t-25-10-16-12-11-12-6-14-2-13-1-11q0-7 3-14 3-10 15-20t22-9q4 0 6 1t3 8q0 19 2 29t10 18 18 11 31 8m-40 201q-18 0-32-5t-31-19q-8-8-8-16 0-6 5-12 17-16 29-16 9 0 19 9 14 12 24 16t22 3q10 0 20-4t10-4q7 0 7 8 0 4-4 10t-10 13-20 12-31 5m122-328q0 9-13 19t-22 9q-5 0-15-4t-23-9-25-4q-20 0-38 7t-37 25q-14 11-17 11-5 0-5-6 0-4 4-12t9-13q43-52 114-52 13 0 29 3t27 10 12 16m110 74v218q0 9-4 15-6 7-15 12t-16 4q-8 0-8-10v-218q0-10 4-15 6-8 15-12t16-5q8 0 8 11m0-128v36q0 9-4 15-6 7-15 12t-16 4q-8 0-8-10v-36q0-9 4-15 6-7 15-11t16-5q8 0 8 10m61 367v-123q0-14 7-21 6-8 15-14t14-6q8 0 8 10v133q0 14-12 22t-23 9q-9 0-9-10m105-250q14 0 29 6t15 16q0 8-10 16t-18 9q-6 0-18-6-12-6-21-6-6 0-11 2t-13 7-11 9-16 14-17 16q-5 4-9 4-5 0-5-9v-47q0-13 12-22t23-9q9 0 9 11v13q0 8 3 8 3 0 9-6 26-26 49-26m118 11v218q0 9-4 15-6 7-15 12t-16 4q-9 0-9-10v-218q0-10 5-15 6-8 15-12t16-5q8 0 8 11m0-128v36q0 9-4 15-6 7-15 12t-16 4q-9 0-9-10v-36q0-9 5-15 6-7 15-11t16-5q8 0 8 10m61 367v-132q0-13 7-21 6-7 15-13t14-6q8 0 8 10v141q0 13-12 22t-23 9q-9 0-9-10m57-229q14-10 29-16t27-5q43 0 63 24t20 80v125q0 13-12 22t-24 9q-8 0-8-10v-97q0-23-1-35t-2-28-5-24-10-16-16-12-24-3q-28 0-77 38-8 6-12 6-5 0-5-9v-38q0-14 12-23t23-9q9 0 9 11v6q0 8 4 8 3 0 9-4m401 43q19 4 35 9t25 11 18 14 12 15 7 17 3 18 1 18q0 20-8 37t-18 30-22 18-22 7q-5 0-5-5 0-3 4-7 13-12 19-29t5-31q0-8 0-13t-1-13-4-13-8-11-12-11-19-8-26-6q-19-3-33-7t-25-10-16-12-11-12-6-14-2-13-1-11q0-7 3-14 3-10 15-20t21-9q5 0 7 1t2 8q0 19 3 29t10 18 18 11 31 8m-40 201q-18 0-32-5t-31-19q-8-8-8-16 0-6 5-12 16-16 29-16 9 0 19 9 14 12 23 16t23 3q10 0 19-4t11-4q6 0 6 8 0 4-3 10t-10 13-20 12-31 5m122-328q0 9-13 19t-22 9q-6 0-16-4t-22-9-25-4q-20 0-38 7t-38 25q-13 11-16 11-6 0-6-6 0-4 5-12t9-13q43-52 114-52 13 0 29 3t27 10 12 16m133 132v85q0 21 3 36t7 23 12 13 17 4q11 0 19-3t13-6 8-6 7-3q3 0 5 2t1 5q0 4-3 12t-11 15-21 13-32 6q-19 0-32-5t-21-18-12-31-4-48v-94q0-6 3-8t6-5 7-1 7 0q4 0 8 1t7 1 5 4 1 8m-56-53v14q0 6-3 9t-10 4h-12q-8 0-8-6 0-6 10-18t17-11q6 0 6 8m56-53v32q0 7 4 10t9 3h66q8 0 8 5 0 6-8 15t-16 12q-8 3-28 3h-66q-6 0-9-3t-4-10v-47q0-13 12-22t24-8q8 0 8 10m170 139q0 7 4 9t13 2q21 0 36-4t23-10 12-14 3-16q0-15-10-25t-34-9q-36 0-68 23-10 7-12 7-4 0-4-4 0-6 7-15 13-17 30-28t31-14 27-4q18 0 32 4t25 11 17 21 6 31q0 38-36 59t-99 21q-18 0-40-2-11-1-11-11 0-27 8-41t20-21q12-7 19-7 6 0 6 8 0 3-3 14t-2 15m-46 68q0-12 12-12h21q6 0 9 2t4 11q9 59 65 59 14 0 26-3t19-8 12-7 9-4q5 0 5 6 0 5-5 13t-16 17-29 15-39 6q-44 0-69-26t-24-69m234 80v-132q0-13 6-21 7-7 16-13t14-6q8 0 8 10v141q0 13-12 22t-24 9q-8 0-8-10m57-229q14-10 29-16t27-5q43 0 63 24t19 80v125q0 13-12 22t-23 9q-9 0-9-10v-97q0-23 0-35t-2-28-5-24-10-16-16-12-24-3q-28 0-77 38-8 6-12 6-5 0-5-9v-38q0-14 12-23t23-9q9 0 9 11v6q0 8 4 8 3 0 9-4m234 113q0 96 69 96 14 0 26-4t19-7 13-8 8-3q6 0 6 6 0 5-6 13t-17 17-28 15-35 6q-52 0-76-31t-25-88q0-41 11-58 6-8 17-16t20-7q6 0 6 7 0 0-4 21t-4 41m126-120q8 6 8 12 0 6-10 14t-18 9q-7 0-17-4-20-10-37-10-37 0-72 24-10 7-12 7-4 0-4-4 0-3 3-8t5-8q18-23 41-35t57-11q15 0 31 4t25 10m107-3v218q0 9-5 15-6 7-15 12t-16 4q-8 0-8-10v-218q0-10 4-15 6-8 15-12t16-5q9 0 9 11m0-128v36q0 9-5 15-6 7-15 12t-16 4q-8 0-8-10v-36q0-9 4-15 6-7 15-11t16-5q9 0 9 10m60 367v-337q0-13 12-22t23-8q9 0 9 10v337q0 13-12 22t-24 8q-8 0-8-10" />
</svg>