<svg id="fnt-Slabo 13px" viewBox="0 0 2425 1000" xmlns="http://www.w3.org/2000/svg"><path id="slabo-13px" class="f" d="M101 667q-50 0-101-22v-81h38v58q30 9 70 9 40 0 62-15t22-38q0-13-4-22t-16-16-26-14-38-13q-20-7-39-14t-36-19-26-27-10-40q0-41 34-67t91-26q53 0 96 22v81h-39v-57q-24-10-62-10-38 0-58 15t-21 38q0 14 6 23t16 17 27 13 38 14q19 6 39 14t35 18 25 26 10 38q0 45-35 70t-98 25m168 0v-36h39v-314h-39v-35h77v349h39v36h-116m167-212v-35q48-23 98-23 44 0 66 20t22 64v150h38v36h-74l-3-39h-2q-34 39-82 39-38 0-59-20t-20-54q0-86 136-86h27v-27q0-23-13-35t-42-12q-42 0-92 22m147 87h-33q-88 0-88 48 0 21 11 31t35 10q41 0 75-39v-50m186-83v169q23 5 46 5 47 0 70-26t22-76q0-45-19-72t-55-26-64 26m0-177v144h1q34-29 76-29 47 0 75 37t28 92q0 62-34 101t-97 40q-39 0-87-13v-337h-39v-35h77m244 251q0-63 35-99t90-37q54 0 86 35t32 96q0 64-34 101t-89 38q-54 0-87-36t-33-98m41-5q0 51 22 77t61 26q37 0 58-25t20-74q0-50-20-75t-62-24q-36 0-57 22t-22 73m446 139h-38v-273h-39v-35h77v308m77 64v-37q41 14 83 14t66-20 23-58q0-36-22-54t-64-18h-22v-34h14q37 0 56-18t20-53q0-29-16-44t-44-15q-31 0-56 12v36h-37v-55q44-28 94-28 47 0 75 24t28 66q0 59-62 86v0q39 10 60 34t22 60q0 51-38 83t-99 32q-42 0-81-13m346 16h39v35h-116v-35h39v-314h-39v-36h75l2 31h3q33-31 73-31 46 0 75 37t29 93q0 62-34 101t-86 39q-30 0-59-13l-1 1v92m0-282v155q24 11 55 11 39 0 61-23t22-75q0-48-20-74t-54-26q-34 0-64 32m367 42h2l58-74h-29v-36h102v36h-35l-79 98 77 100h37v36h-115v-36h28l-53-75h-1l-58 75h32v36h-102v-36h30l81-99-76-99h-35v-36h115v36h-31l52 74" />
</svg>