<svg id="fnt-Slackside One" viewBox="0 0 2655 1000" xmlns="http://www.w3.org/2000/svg"><path id="slackside-one" class="f" d="M194 447q3 4 1 8t-7 7q-6 2-14 2t-17 1q-5 0-10 2t-9 2q-10 1-15-2t-14 0q-2 2-5 4t-5 5q-6 4-8 11-3 8 3 13 4 5 8 9t8 8q3 4 7 5 2 0 6 2 7 7 16 13t13 14q1 1 2 3t3 3q11 9 14 25t0 32-17 28q-5 5-10 10t-14 8q0 1-2 0t-2 0q-10 2-20 5t-22 3q-5 0-11-1t-11-2q-9 0-15-6 0-1-1-1t-1-1q-3-2-6-5t-3-7q-1-4-3-8t-3-8q0-5 4-7t8 1q5 4 11 4 21 3 37-2t30-15q4-3 7-10 1-2 2-3t2-3q3-4 4-9 3-10-4-17-10-10-22-17t-26-15q-5-3-9-9-3-4-6-8t-6-9q-5-5-6-11-3-15-5-28t6-24q3-7 11-15t15-11q6-4 21-6t31-2 27 4q4 2 8 5t7 4q8 4 13 13 1 2 2 4t2 4m142 9q-4 21-11 48t-13 56-12 54-7 41q0 7-5 14-5 8-13 5-2 0-4-1t-3-1q-10-4-13-14 0-1-1-3t-1-3q-3-8-1-18 5-21 12-50t13-62 14-60 12-50q2-4 5-8t9-5q17-3 23 11t-4 46m244 189q0 5-4 8t-9 3q-11-1-21-6t-17-12q-2-3-5-2t-4 3q0 3-5 5-2 2-4 3t-3 4q-4 4-8 7t-8 8q-6 9-17 10-9 2-18 1t-17-2q-7-2-13-7-1-1-2-2t-2-1q-7-4-11-11-6-11-11-25t-2-28q3-11 9-25t12-22q11-18 30-28t42-6q19 3 33 13t25 25q2 3 1 7t-5 4q-8 2-14-3-12-11-30-11t-32 8q-2 1-3 2t-2 2q-6 6-13 14t-10 21q-2 6-5 14t-2 15q0 5 4 8t9 3q17-2 28-11t20-19 21-19q4-3 10-3t9 5q5 4 7 11t5 16q1 5 5 8t10 3h5q6-1 9 3t3 9m195-97q2 5-1 9t-7 6q-11 1-24-2t-26 1q-15 3-25 13t-15 24 1 26q4 11 15 12 10 0 20 0t19-2q2-1 5-2t8-3q4-2 9-1t7 7q1 1 2 5 4 11-6 19-10 7-24 9t-29 3q-1 0-3 0t-4-1q-2 0-3 0-5-2-9-2-12-2-22-13t-16-21q-1-3-2-6t-2-5q-1-13-2-25t1-23q2-11 10-18t15-15q3-5 8-7 10-5 22-8t23-4q8-3 15 0 13 4 24 9t16 15m133-99q-1 2-1 4t-1 4q1 8-1 22t-3 28-5 28-4 19q-2 7-3 16t-1 17q-2 11-6 21t-5 19q0 8-1 15t-2 14q-3 12-15 13-5 1-10-2t-8-7q-1-2-2-4t-1-4q-4-8-3-17 2-17 6-39t9-45 9-46 8-38q2-15 4-29t8-24q4-5 9-6t9 4q2 2 3 4t2 2q4 5 5 15t0 16m87 81q0 4-8 11t-18 19-19 25-7 32q1 10 4 18t5 18q1 5-2 9t-9 4q-6 0-12-3t-9-7q-7-6-10-15-3-14-5-29t0-30 13-28q4-5 9-10t10-9q4-5 9-11t11-10q9-7 19-2 7 4 13 7t6 11m172 92q3 12-7 18-2 2-4 4t-2 4q-3 4-7 7t-7 5q-19 7-38 10t-38-2q-5-1-13-7t-13-11q-1-2-4-6t-4-6q-1-4 2-8t7-2q7 1 13 4t10 5q6 3 12 3 15 0 29-4t22-14q3-4 1-9t-6-5q-13-3-26-4t-27-7q-11-7-13-17-1-1-1-3t-2-3q-2-4-2-9t1-10q2-8 7-15t10-15q5-7 13-10 10-4 21-4t19 1q6 0 11 2 7 2 14 5t13 8q3 3 4 11t-1 12-10 2q-5-2-9-6t-10-4q-5 0-15-1t-14 0q-9 2-15 9-1 1-1 6t0 10 2 6q4 2 15 2t19 0q2 0 3 1 1 2 4 2 11 2 18 8t12 14q6 7 7 16 0 2 0 3t0 4m136-118q0 1 0 2t0 3-2 2-3 2q-14 7-28 4-8-1-13-6-3-2-6-3t-6-4q-4-3-5-9t2-10q4-6 10-9t12-3q10-1 18 4 2 0 3 1t2 1q10 4 14 14 2 4 2 11m-20 48q-1 9-3 24t-2 31-4 30-5 23q-4 12-16 10-3-1-6-1t-5 0q-11-4-12-15-1-5-2-11t0-9q1-4 3-17t5-27 6-28 3-16v-1q0-6 3-9t9-4q5 0 9 0t7 2q12 5 10 18m268-107q-1 3-3 6t-3 6q-5 21-8 46t-6 52-14 52q-1 2-1 4t-1 4q0 12-6 22t-10 22q-2 4-6 8-1 2-2 2-7 1-12 0t-7-2q-10-7-7-18 13-60 23-122t23-112q2-8 10-8 6 0 12 4 6 5 11 8t7 9 0 17m-91 130q0 5-4 7t-8 2q-8-2-18-5t-17 0q-5 2-10 3t-10 2q-12 3-15 15-2 9-3 23 0 3 4 8t6 7q6 4 15 4t20-3q4-1 9 1t7 6q0 2 1 3t1 4q2 4 0 9t-6 8q-8 4-17 3t-17 0q-6 2-11 0-18-5-28-18t-18-28q-2-6-2-12 0-5-1-9t0-10 2-12q7-14 19-22t27-14q7-3 15-2 13 1 26 4t23 8q10 6 10 18m284-18q7 11-1 20-1 0-1 0t-1 0q-4 4-5 9-4 8-12 11t-18 5-18 2q-5 2-10 3t-9 3q-12 3-20-5-2-2-4-4t-4-3q-3-3-7-2t-3 6q-1 9 4 19t12 14q9 4 22 4t25-4 24-5q4-1 8 1t8 5q0 1 1 2t1 2q2 5 0 10t-6 7q0 1 0 1t-1 1q-2 2-5 3t-6 2q-8 2-16 3t-18 3q-4 1-8 0-12-2-26-4t-25-7-17-18q-1-1-2-2t-1-2q-8-11-8-28t4-33 13-26q5-7 12-10t15-7q17-10 37-9t38 9 28 24m-33-1q0-1-2-2t-3-1q-7 0-18 0t-11 2q-1 1-4 2-7 3-14 5t-11 5q-4 2-3 6t6 5q13 2 27-1t25-8q4-3 8-7 3-3 0-6m474-67q5 42-7 73t-32 53-46 41q-2 1-5 2t-5 2q-25 7-44 10t-40 2q-8 0-13-4-10-6-20-11t-17-15q-11-14-15-28t-9-32q0-2 0-4t0-4q0-9 0-17t2-18 9-27 13-28q7-14 19-30t25-29 30-16 31 8q5 4 5 12 0 6-4 11 0 0-1 1t0 1q-3 4-8 8-25 19-44 48t-26 62q-2 9-3 21t1 28q1 3 1 5t2 5q5 10 15 11 10 2 19 1t19-2q4-1 7-3t7-4q2-1 5-1t5 1q17-6 32-21t26-35 16-39 2-37q-3-14-9-23t-16-17q-2-2-5-3t-6-2-6-4q-3-4-1-9t8-5q7 0 14 0t12 1q3 0 6 1t6 3q3 2 6 4t7 3q4 1 8 6 9 7 13 16t9 21q2 3 2 7m248 88q8 27 7 49t-5 34-14 10q-3-1-9-2t-11-3-6-11q0-6 0-10t0-11-1-21q-1-17-11-28t-26-14-36 12q-10 7-18 19t-13 24-9 22q-3 6-7 12t-13 5q-6 0-13 1t-7-5q2-32 7-64t10-57q1-5 5-7t8-2q11 2 17 7t5 24q0 3 2 4t5-1q14-13 36-21t49-3q16 3 27 10t19 21q2 3 2 6m218-20q7 11-1 20-1 0-1 0t-1 0q-4 4-5 9-4 8-12 11t-18 5-18 2q-5 2-10 3t-9 3q-12 3-20-5-2-2-4-4t-4-3q-3-3-7-2t-3 6q-1 9 4 19t12 14q9 4 22 4t25-4 24-5q4-1 8 1t8 5q0 1 1 2t1 2q2 5 0 10t-6 7q0 1 0 1t-1 1q-2 2-5 3t-6 2q-8 2-16 3t-18 3q-4 1-8 0-12-2-26-4t-25-7-17-18q-1-1-2-2t-1-2q-8-11-8-28t4-33 13-26q5-7 12-10t15-7q17-10 37-9t38 9 28 24m-33-1q0-1-2-2t-3-1q-7 0-18 0t-11 2q-1 1-4 2-7 3-14 5t-11 5q-4 2-3 6t6 5q13 2 27-1t25-8q4-3 8-7 3-3 0-6" />
</svg>