<svg id="fnt-Smokum" viewBox="0 0 1406 1000" xmlns="http://www.w3.org/2000/svg"><path id="smokum" class="f" d="M21 431l0-34 0-49q0-50 44-56 12-2 27-2 23 0 40 10 7 4 11 10h2v-18h19l-1 132h-17v-31q0-11-7-17t-19-6h-55q-11 0-18 6t-7 17 0 22-1 21 3 15 5 8q6 5 24 5h45q28 0 44 20 13 17 13 41v81q0 34-16 48-18 15-61 15-42 0-60-28h-3v26h-18l4-155 16 0q0 11 0 21t0 20v18q0 14 4 18 5 6 16 6l30 0 43 0q23 0 26-18 1-6 1-13v-36q0-43-46-43h-37q-23 0-32-6-19-12-19-48m219 87v-14q0-12-11-12h-21l0-75h60v36h3q5-26 31-35 8-3 17-3 15 0 28 15 6 6 10 14 10-15 28-25 10-4 21-4 33 0 38 37 2 11 2 25l-3 106q0 11 14 11 4 1 9 1h14v72h-57l4-154q0-15-9-20t-23-6-21 2-13 7q-11 8-11 21l-2 64q0 11 9 13 3 1 5 1h23v72h-59q6-140 6-145t0-12-2-11q-6-14-29-14-23 0-34 16-8 11-8 22v58q0 8 2 11t9 3h23l-2 72h-85l2-73h22q11 0 11-12v-6l-1-58m260 80v-16l0-54q0-21 1-36t0-24 2-16 5-15 13-12q17-11 52-11 52 0 65 24 7 12 7 25v134q0 29-6 41t-14 17q-18 15-52 15-50 0-64-24-9-13-9-27t0-21m17-80v49q0 18 12 24 12 8 36 8t36-2 16-6q10-6 10-22v-51q0-18-11-25-12-8-36-8-40 0-51 7t-12 26m156-226l83 0-3 74h-15q-7 0-10 1t-4 10v135q0 1 0 2t2 0q45-25 49-29t7-6 3-5q4-5 4-15v-41l80-1-2 75h-46q-17 0-28 4l55 93q3 5 9 5h27l1 73-82 0 1-72h23q4 0 0-5l-49-87-53 33q-1 0-1 2v37q0 7 5 13t14 7h17l0 72h-88l2-73h16q10 0 14-8 1-4 1-8v-199q0-8-3-10t-9-2h-20v-75m255 216v-10q0-7-8-7h-24l-2-74h85v74h-19q-9 0-11 2-3 2-3 10v65q0 24 28 27 9 1 23 1t24-4 15-9q9-9 9-23v-58q0-8-4-9t-11-2h-10q-6 0-6 0l1-74 81 1 0 73h-17q-15 0-15 10v5l0 24v15q0 17 0 30t3 16 11 3h18l0 73h-51v-34h-2q-3 16-17 26t-34 10-32-3-19-11q-14-14-14-49v-12l1-86m237 10v-14q0-12-12-12h-20l-1-75h60v36h3q5-26 31-35 8-3 17-3 16 0 28 15 6 6 10 14 10-15 28-25 10-4 22-4 32 0 37 37 2 11 2 25l-3 106q0 11 14 11 4 1 9 1h15v72h-58l4-154q0-15-9-20t-23-6-21 2-13 7q-11 8-11 21l-2 64q0 11 9 13 3 1 5 1h24v72h-60q6-140 6-145t0-12-2-11q-6-14-29-14-23 0-34 16-8 11-8 22v58q0 8 3 11t8 3h24l-3 72h-85l3-73h21q11 0 11-12v-6l0-58" />
</svg>