<svg id="fnt-Smooch Sans" viewBox="0 0 2087 1000" xmlns="http://www.w3.org/2000/svg"><path id="smooch-sans" class="f" d="M95 669q-21-1-38-4t-26-12-10-24v-65l26-3v59q0 13 10 21t37 7q18 0 27-4t12-12 4-21v-45q0-19-9-30t-26-15l-39-11q-22-7-32-17t-10-33v-55q0-22 10-33t26-14 38-3 36 4 23 12 8 24v65l-25 4v-58q0-17-9-24t-34-7q-27 0-37 8t-10 30v42q0 16 9 25t23 14l41 11q23 7 32 19t10 35v59q0 21-8 32t-23 15-36 4m144-2h-25v-236h20l3 24q8-12 22-20t35-7q21 0 33 6t19 14 8 18l-6 5q3-16 12-26t24-13 26-4q26 0 39 8t17 20 4 23v188h-25v-179q0-21-12-30t-33-9q-19 0-32 9t-13 30v179h-25v-180q0-20-13-29t-33-9q-18 0-29 7t-16 18v193m351 2q-28 0-43-8t-19-21-5-25v-132q0-13 5-26t20-20 45-8q29 0 44 8t20 20 6 26v126q0 16-6 30t-22 21-45 9m0-21q23 0 36-10t12-31v-120q0-19-12-29t-33-9q-21 0-33 9t-12 29v124q0 19 12 28t30 9m191 21q-28 0-42-8t-20-21-5-25v-132q0-13 5-26t20-20 46-8q28 0 43 8t21 20 6 26v126q0 16-6 30t-22 21-46 9m0-21q24 0 36-10t13-31v-120q0-19-13-29t-33-9q-20 0-33 9t-12 29v124q0 19 12 28t30 9m192 21q-28 0-43-8t-19-21-5-25v-132q0-13 5-26t20-20 45-8q29 0 44 8t20 20 6 26v34l-25 3v-33q0-19-12-29t-33-9q-21 0-33 9t-12 29v124q0 19 12 28t30 9q23 0 36-10t12-31v-29l25-3v34q0 16-6 30t-22 21-45 9m127-2v-315h25v103q8-12 21-19t34-7q26 0 38 8t18 20 4 23v187h-25v-179q0-21-12-30t-33-9q-19 0-29 7t-16 18v193h-25m345 2q-22-1-38-4t-27-12-9-24v-65l25-3v59q0 13 10 21t37 7q18 0 27-4t13-12 3-21v-45q0-19-9-30t-25-15l-39-11q-22-7-32-17t-10-33v-55q0-22 9-33t26-14 38-3 36 4 23 12 9 24v65l-26 4v-58q0-17-8-24t-35-7q-26 0-37 8t-10 30v42q0 16 9 25t24 14l40 11q23 7 33 19t10 35v59q0 21-8 32t-23 15-36 4m213-2h-60q-18 0-26-5t-9-19-2-40v-125q0-19 4-29t16-14 34-3h87v235h-25v-215h-64q-14 0-20 4t-6 11-1 23v119q0 16 2 24t6 10 16 3h51l-3 21m104 0v-236h20l2 24q8-12 22-19t36-8q30 0 45 13t15 38v188h-25v-179q0-21-12-30t-33-9q-18 0-29 7t-16 18v193h-25m255 3q-35 0-50-15t-15-41v-34l22-4v37q0 9 4 18t12 15 27 6q22 0 34-8t12-31q0-21-6-32t-24-18q-3-2-10-5t-15-6-15-6-10-4q-12-7-19-14t-10-16-2-22v-6q0-28 16-42t52-13q36 0 51 13t15 40v35l-23 3v-35q0-22-11-30t-33-8q-20 0-30 6t-12 16-2 17q0 18 4 26t17 14q6 4 15 7t19 8 18 8q22 10 30 22t8 36v5q0 28-15 43t-54 15" />
</svg>