<svg id="fnt-Sofadi One" viewBox="0 0 2666 1000" xmlns="http://www.w3.org/2000/svg"><path id="sofadi-one" class="f" d="M169 640q25 0 43-5t32-12 19-19 7-21q0-7-2-12t-7-10-15-8-26-8l-98-29q-37-11-52-29t-15-45q0-18 10-35t27-28 46-19 62-6q23 0 46 4t43 12 32 19 12 24q0 10-8 18t-24 8q-10 0-17-4t-12-8q-17-21-39-31t-50-9q-34 0-53 14t-19 36q0 14 10 23t36 17l106 31q18 5 30 11t20 14 11 18 3 22q0 16-12 34t-33 32-50 25-65 10q-35 0-63-7t-47-20-31-29-10-36q0-15 7-23t21-9 19 7 13 25q4 12 12 23t21 18 28 12 32 5m372-177q46 0 66 17t21 45q0 25-14 51t-38 48-55 36-66 14q-46 0-66-18t-20-44q0-26 14-52t37-48 55-35 66-14m-21 32q-21 0-39 8t-30 21-21 31-7 36q0 24 14 38t38 13q20 0 38-8t32-22 21-31 8-36q0-23-14-37t-40-13m214 6v151q0 8-6 14t-19 6q-13 0-19-6t-5-14v-151h-23q-14 0-14-16 0-15 14-15h23v-5q0-6-2-12t-2-12q0-19 14-41t37-41 50-31 57-12q17 0 26 7t9 20q0 18-8 27t-18 10q-10 0-17-5t-6-13-4-12-14-4q-12 0-25 8t-24 21-17 32-7 37v26h64q14 0 14 15 0 16-14 16h-64m258-38q45 0 66 17t20 45q0 8-3 17t-2 15v95q0 8-6 14t-19 6q-13 0-19-6t-6-14v-34q-22 26-53 41t-65 15q-45 0-66-18t-20-48q0-26 14-52t38-47 55-33 66-13m-17 30q-22 0-41 8t-32 22-22 31-7 36q0 23 13 36t38 13q21 0 39-9t32-21 22-31 9-37q0-22-14-35t-37-13m321 76v-78q-6-1-11-2t-13 0q-18 0-35 7t-29 22-21 32-8 40q0 23 13 36t30 14q16 0 34-6t38-18q1-11 1-22t1-25m49-233v257q0 7 1 11t1 7q0 4-4 8t-13 11q-12 10-27 18t-31 13-31 9-28 4q-43 0-64-19t-21-49q0-28 13-54t33-45 46-32 52-12q7 0 13 0t10 1v-128q0-9 6-15t19-5q13 0 19 5t6 15m120 149v167q0 8-6 14t-19 6q-13 0-19-6t-6-14v-167q0-8 6-14t19-6q13 0 19 6t6 14m-25-65q-15 0-22-7t-7-14v-19q0-9 7-15t22-6q14 0 21 6t8 15v19q0 8-8 14t-21 7m467-66q33 0 61 8t47 23 30 36 11 46q0 24-9 49t-23 47-36 43-48 35-58 24-64 9q-35 0-62-8t-47-23-29-37-10-47q0-41 20-78t52-66 75-45 90-16m-20 34q-33 0-62 12t-50 33-34 49-12 60q0 24 8 42t21 30 33 19 43 6q36 0 66-13t52-34 34-49 12-55q0-23-9-41t-23-32-35-20-44-7m271 100v41q41-66 121-66 44 0 65 18t21 46q0 15-5 33t-16 37-23 36-31 32q-5 6-10 7t-9 2q-6 0-11-5t-5-10q0-2 1-5t5-7q12-12 21-27t16-28 10-26 3-22q0-26-13-39t-37-12q-19 0-38 8t-32 24-22 36-9 45v47q0 8-6 14t-19 6q-13 0-19-6t-5-14v-165q0-9 5-15t18-5q13 0 19 5t5 15m425-25q43 0 62 15t20 35q0 25-17 42t-59 24l-124 21q0 19 10 29t38 11q25 0 46-6t41-15q9-5 14-5 11 0 11 14 0 9-10 14-58 32-117 32-23 0-40-5t-27-14-16-21-5-26q0-26 14-52t38-46 55-34 66-13m-16 29q-18 0-35 6t-31 18-23 25-13 29l109-17q25-4 33-12t8-19q0-12-12-21t-36-9" />
</svg>