<svg id="fnt-Sofia Sans Condensed" viewBox="0 0 3656 1000" xmlns="http://www.w3.org/2000/svg"><path id="sofia-sans-condensed" class="f" d="M105 671q-48 0-69-26t-17-67q1-6 5-6h27q4 0 4 6-2 31 11 45t41 15q27 0 39-13t13-37q0-14-3-25t-11-18-20-16l-53-31q-26-16-38-36t-11-48q0-38 21-59t61-20q44 0 66 24t19 66q-1 7-4 7h-28q-4 0-4-7 3-27-10-42t-39-14q-22 0-34 10t-12 33q-1 20 7 33t28 24l52 31q18 10 28 22t16 28 5 37q0 39-22 61t-68 23m213 0q-40 0-60-22t-20-66v-76q0-44 20-66t60-22 60 22 20 66v76q0 44-20 66t-60 22m0-34q23 0 33-13t11-43v-72q0-29-11-43t-33-13q-23 0-34 13t-10 43v72q0 29 10 43t34 13m176 30h-28q-2 0-3-2t-1-3v-206h-28q-4 0-4-4v-24q0-5 4-5h28v-31q0-35 16-53t45-18q11 0 21 2t17 5q5 3 5 7v23q0 6-8 3-6-3-14-5t-15-2q-16 0-23 9t-8 29v31h52q5 0 5 5v24q0 4-5 4h-52v206q0 2-1 3t-3 2m131 0h-28q-4 0-4-5v-234q0-5 4-5h28q4 0 4 5v234q0 5-4 5m-14-287q-12 0-18-6t-6-18v-4q0-11 6-18t18-6 18 6 6 18v4q0 11-6 18t-18 6m209 287h-25q-3 0-5-6 0-7-2-21t-1-23l-2-9v-115q0-23-7-32t-25-8q-34 0-32 32 0 5-4 5h-26q-5 0-6-8-2-29 16-46t53-17q35 0 51 17t16 56v115q0 19 1 33t1 21q1 6-3 6m-95 4q-23 0-35-17t-13-49q0-36 18-56t61-24l35-3v29l-33 3q-24 3-35 14t-10 34q0 17 6 26t16 9q12 0 25-8t32-32l1 32q-19 22-35 32t-33 10m309 0q-48 0-69-26t-17-67q1-6 5-6h27q4 0 4 6-2 31 11 45t41 15q27 0 39-13t13-37q0-14-3-25t-11-18-20-16l-53-31q-26-16-38-36t-11-48q0-38 21-59t61-20q44 0 66 24t19 66q-1 7-4 7h-28q-4 0-4-7 3-27-10-42t-39-14q-22 0-34 10t-12 33q-1 20 7 33t28 24l52 31q18 10 28 22t16 28 5 37q0 39-22 61t-68 23m272-4h-25q-3 0-5-6 0-7-2-21t-1-23l-2-9v-115q0-23-7-32t-25-8q-34 0-32 32 0 5-4 5h-26q-5 0-6-8-2-29 16-46t53-17q35 0 51 17t16 56v115q0 19 1 33t1 21q1 6-3 6m-95 4q-23 0-35-17t-13-49q0-36 18-56t61-24l35-3v29l-33 3q-24 3-35 14t-10 34q0 17 6 26t16 9q12 0 25-8t32-32l1 32q-19 22-35 32t-33 10m306-4h-28q-4 0-4-5v-171q0-20-7-29t-22-9q-14 0-28 9t-33 30l-2-31q19-21 37-32t37-10q27 0 40 17t14 53v173q0 5-4 5m-121 0h-28q-4 0-4-5v-178q0-19 0-33t-2-22q0-6 4-6h25q4 0 4 5 2 9 3 23t1 24l1 6v181q0 5-4 5m244 4q-36 0-54-20t-15-56q0-5 4-5h28q3 0 3 4 0 24 8 34t27 10q17 0 26-9t9-24q0-12-6-21t-17-16l-43-25q-20-11-29-27t-8-37q0-29 17-45t49-15q34 0 52 17t16 48q-1 5-4 5h-28q-2 0-3-1t-1-5q1-15-7-23t-25-8q-15 0-23 7t-8 20q0 12 5 20t19 15l41 26q21 12 29 26t9 37q0 33-18 50t-53 18m292 0q-47 0-72-27t-24-79v-124q0-52 24-79t72-27q32 0 54 13t32 38 6 58q0 5-4 5h-28q-4 0-4-4 3-37-11-57t-45-19q-29 0-45 18t-15 55v122q0 37 15 55t45 18q31 0 46-20t11-56q-1-4 4-4h27q4 0 5 5 4 51-21 80t-72 29m218 0q-39 0-60-22t-20-66v-76q0-44 20-66t60-22 60 22 20 66v76q0 44-20 66t-60 22m0-34q24 0 34-13t10-43v-72q0-29-10-43t-34-13q-23 0-33 13t-11 43v72q0 29 11 43t33 13m286 30h-28q-4 0-4-5v-171q0-20-8-29t-22-9q-14 0-28 9t-33 30l-1-31q19-21 36-32t38-10q26 0 40 17t14 53v173q0 5-4 5m-121 0h-28q-4 0-4-5v-178q0-19-1-33t-1-22q-1-6 3-6h25q4 0 5 5 1 9 2 23t2 24l1 6v181q0 5-4 5m233 4q-27 0-41-19t-14-56v-95q0-40 18-61t50-21q16 0 31 5t25 10l1 33q-13-7-26-11t-23-3q-20 0-30 13t-10 40v91q0 21 7 31t22 9q14 0 28-10t33-31l0 33q-18 21-35 31t-36 11m98-4h-24q-4 0-5-5-1-10-2-23t-1-21l-2-9v-279q0-5 4-5h28q4 0 4 5v278q0 17 1 31t1 22q1 6-4 6m133 4q-39 0-59-22t-20-66v-77q0-44 20-66t58-21 57 22 20 63v45q0 5-4 5h-115v25q0 31 11 44t33 14q19 0 28-8t8-24q0-5 4-5h28q3 0 4 4 1 32-18 49t-55 18m-43-165v15h83v-15q0-28-10-41t-31-12q-21 0-32 13t-10 40m323 161h-28q-4 0-4-5v-171q0-20-7-29t-22-9q-14 0-28 9t-33 30l-2-31q19-21 37-32t37-10q27 0 40 17t14 53v173q0 5-4 5m-121 0h-28q-4 0-4-5v-178q0-19 0-33t-2-22q0-6 4-6h25q4 0 4 5 2 9 3 23t1 24l1 6v181q0 5-4 5m244 4q-36 0-54-20t-15-56q0-5 4-5h28q3 0 3 4 0 24 8 34t27 10q17 0 26-9t9-24q0-12-6-21t-17-16l-43-25q-20-11-29-27t-8-37q0-29 17-45t49-15q34 0 52 17t16 48q-1 5-4 5h-28q-2 0-3-1t-1-5q1-15-7-23t-25-8q-15 0-23 7t-8 20q0 12 5 20t19 15l41 26q21 12 29 26t9 37q0 33-18 50t-53 18m192 0q-39 0-59-22t-20-66v-77q0-44 19-66t58-21 58 22 19 63v45q0 5-3 5h-115v25q0 31 10 44t34 14q18 0 27-8t9-24q0-5 4-5h27q3 0 4 4 1 32-18 49t-54 18m-43-165v15h82v-15q0-28-10-41t-30-12q-22 0-32 13t-10 40m221 165q-27 0-41-19t-14-56v-95q0-40 18-61t50-21q16 0 31 5t25 10l1 33q-13-7-26-11t-23-3q-20 0-30 13t-10 40v91q0 21 7 31t22 9q14 0 28-10t33-31l0 33q-18 21-35 31t-36 11m98-4h-24q-4 0-5-5-1-10-2-23t-1-21l-2-9v-279q0-5 4-5h28q4 0 4 5v278q0 17 1 31t1 22q1 6-4 6" />
</svg>