<svg id="fnt-Sofia" viewBox="0 0 1102 1000" xmlns="http://www.w3.org/2000/svg"><path id="sofia" class="f" d="M230 590q0-24-11-41t-29-26-39-17-43-16-40-18-29-30-11-46q0-46 34-73t88-26 86 24 32 54q0 20-8 29t-18 10q-19 0-25-7l-1-3q5-6 5-25 0-28-24-45t-56-16-50 17-19 42 11 40 30 26 39 16 44 15 40 20 29 33 11 52q0 54-38 82t-95 29-100-30-42-73q0-20 8-32t19-12q20 0 25 7l2 2q-5 13-5 31 0 34 28 59t73 26q32 0 56-23t23-55m168-149q44 0 72 29t28 80-26 85-70 33-74-30-29-84 27-84 72-29m0 19q-13 0-23 7t-10 19q0 32 25 61t60 39q1-19 1-32 0-52-11-73t-42-21m-51 94q0 51 12 73t42 22q20 0 31-11t15-33q-33-7-60-29t-40-50q0 8 0 28m306-89h-75v385q-5 7-18 7t-20-8-7-23v-439q0-63 13-93t48-30q50 0 50 67 0 77-52 117h44q11 0 14 4t3 13m-31-134q0-48-24-48-6 0-10 4t-5 22q-4 30-5 128 44-32 44-106m54 61q-8-9-8-21t8-22 21-8 21 8 9 22-9 21-21 8-21-8m-2 79q0-15 8-23t19-7 18 7v143q0 29 11 43t30 15 36-23 16-75q1-3 8-3 9 0 9 27 0 38-21 66t-54 27q-40 0-60-24t-20-68v-105m288-16q6-14 20-14t22 7v143q0 29 9 43t24 15q47 0 47-98 1-3 8-3 9 0 9 27 0 42-19 68t-51 25q-50 0-67-44-9 20-26 32t-37 12q-88 0-88-114 0-58 27-86t73-27q34 0 49 14m-94 160q7 22 16 28t24 6 32-19 18-49v-68q0-24-12-38t-28-15-24 3-17 13q-16 18-16 78 0 39 7 61" />
</svg>