<svg id="fnt-Sofia Sans Semi Condensed" viewBox="0 0 5639 1000" xmlns="http://www.w3.org/2000/svg"><path id="sofia-sans-semi-condensed" class="f" d="M131 672q-57 0-83-25t-23-68q0-8 5-8h30q6 0 5 7 0 31 17 45t52 14q35 0 52-13t17-38q0-14-5-24t-14-17-27-15l-66-30q-22-10-36-22t-19-27-6-35q0-40 26-61t75-21q52 0 80 24t26 66q-1 8-5 8h-31q-2 0-3-1t-1-7q2-26-16-41t-51-14q-29 0-44 11t-16 34q0 13 4 23t14 17 27 15l66 30q22 10 36 22t20 27 6 37q0 41-27 64t-85 23m264 0q-47 0-72-24t-25-71v-64q0-48 24-72t73-24q48 0 73 24t25 72v64q0 47-25 71t-73 24m0-35q30 0 44-16t14-47v-58q0-32-14-47t-44-16q-30 0-44 16t-14 47v58q0 32 14 47t44 16m214 30h-31q-2 0-3-2t-1-3v-204h-37q-2 0-3-2t-1-3v-25q0-3 1-4t3-1h37v-27q0-37 19-57t57-19q11 0 23 2t21 5q7 3 7 8v25q0 6-9 2-8-3-19-6t-18-2q-21 0-31 11t-10 33v25h68q5 0 5 5v25q0 2-1 3t-4 2h-68v204q0 5-5 5m159 0h-31q-5 0-5-5v-234q0-5 5-5h31q4 0 4 5v234q0 5-4 5m-15-286q-14 0-20-7t-6-18v-5q0-12 6-19t20-7 19 7 7 19v5q0 11-7 18t-19 7m253 286h-27q-4 0-5-6t-3-19-2-24l-1-15v-105q0-25-10-36t-33-10q-44 0-44 34 0 4-4 4h-30q-5 0-5-8-2-29 20-47t64-18q41 0 61 20t21 60v110q0 17 0 31t3 24q1 5-5 5m-118 5q-27 0-42-17t-15-50q0-25 10-42t30-25 56-12l47-5v30l-46 4q-32 3-44 13t-13 34q0 17 7 26t22 10q16 0 33-12t43-39l1 33q-25 28-46 40t-43 12m388 0q-58 0-84-25t-23-68q1-8 5-8h31q6 0 5 7-1 31 16 45t53 14q34 0 51-13t17-38q0-14-4-24t-15-17-26-15l-67-30q-21-10-35-22t-20-27-6-35q1-40 27-61t75-21q51 0 80 24t25 66q0 8-5 8h-30q-2 0-4-1t0-7q1-26-16-41t-51-14q-29 0-45 11t-16 34q0 13 4 23t15 17 27 15l65 30q23 10 36 22t20 27 6 37q0 41-27 64t-84 23m335-5h-28q-4 0-5-6t-2-19-2-24l-2-15v-105q0-25-10-36t-33-10q-43 0-43 34 0 4-4 4h-31q-4 0-5-8-2-29 21-47t63-18q42 0 62 20t20 60v110q0 17 1 31t2 24q1 5-4 5m-118 5q-28 0-43-17t-14-50q0-25 9-42t31-25 56-12l47-5v30l-46 4q-32 3-45 13t-12 34q0 17 7 26t21 10q16 0 33-12t44-39l0 33q-25 28-45 40t-43 12m378-5h-31q-4 0-4-5v-162q0-24-10-36t-29-11q-19 0-37 11t-44 37l-1-34q16-17 31-28t30-16 31-6q34 0 51 20t18 61v164q0 5-5 5m-152 0h-31q-5 0-5-5v-178q0-14-1-30t-2-25q-1-6 5-6h28q4 0 5 5 2 7 3 22t2 24l0 12v176q0 5-4 5m303 5q-43 0-65-19t-20-58q0-5 5-5h30q4 0 4 4 0 23 11 34t35 10q24 0 36-8t12-25q0-13-7-21t-22-15l-54-25q-25-11-36-26t-11-37q0-31 20-48t60-16q41 0 63 18t21 50q0 4-4 4h-31q-5 0-5-7 1-14-11-22t-32-8-31 7-10 22q0 12 6 18t23 15l53 24q25 12 36 26t12 39q0 33-23 51t-65 18m342 0q-57 0-83-25t-23-68q0-8 5-8h30q6 0 5 7 0 31 17 45t52 14q35 0 52-13t17-38q0-14-5-24t-14-17-27-15l-66-30q-22-10-36-22t-19-27-6-35q0-40 26-61t75-21q52 0 80 24t26 66q-1 8-5 8h-31q-2 0-3-1t-1-7q2-26-16-41t-51-14q-29 0-44 11t-16 34q0 13 4 23t14 17 27 15l66 30q22 10 36 22t20 27 6 37q0 41-27 64t-85 23m261 0q-46 0-70-22t-24-66v-72q0-46 24-71t70-24q46 0 70 24t24 69v39q0 5-4 5h-145v21q0 33 14 47t43 15q24 0 36-8t12-25q0-5 5-5h30q4 0 5 4 1 32-23 51t-67 18m-55-159v8h109v-8q0-31-13-46t-41-15-41 15-14 46m249 154h-31q-5 0-5-5v-178q0-15 0-29t-3-26q-1-6 5-6h28q4 0 5 4 1 8 2 16t2 18q21-22 41-33t42-11q23 0 38 12t21 34q22-23 42-35t43-11q31 0 47 20t16 59v166q0 5-5 5h-31q-4 0-4-5v-163q0-23-9-34t-26-12q-15 0-32 10t-38 31v168q0 5-4 5h-31q-5 0-5-5v-163q0-23-8-34t-26-12q-16 0-32 10t-38 31v168q0 5-4 5m400 0h-31q-5 0-5-5v-234q0-5 5-5h31q4 0 4 5v234q0 5-4 5m-15-286q-14 0-20-7t-6-18v-5q0-12 6-19t20-7 19 7 7 19v5q0 11-7 18t-19 7m309 291q-58 0-88-29t-30-86v-108q0-56 30-86t88-29q37 0 65 13t41 38 10 59q-1 2-2 4t-3 2h-31q-5 0-4-5 2-36-18-56t-57-19q-38 0-59 20t-20 59v108q0 39 20 59t59 20q38 0 58-20t17-55q-1-5 4-5h30q5 0 6 6 3 34-11 58t-41 39-64 13m275 0q-47 0-72-24t-25-71v-64q0-48 24-72t73-24q48 0 73 24t25 72v64q0 47-25 71t-73 24m0-35q30 0 44-16t14-47v-58q0-32-14-47t-44-16q-30 0-44 16t-14 47v58q0 32 14 47t44 16m351 30h-31q-5 0-5-5v-162q0-24-9-36t-30-11q-18 0-37 11t-43 37l-1-34q16-17 30-28t30-16 32-6q34 0 51 20t17 61v164q0 5-4 5m-153 0h-31q-4 0-4-5v-178q0-14-1-30t-2-25q-1-6 4-6h29q4 0 5 5 1 7 2 22t2 24l1 12v176q0 5-5 5m292 5q-34 0-51-22t-17-65v-73q0-45 22-70t62-25q19 0 39 5t32 14l2 34q-16-9-33-13t-32-4q-26 0-39 15t-13 48v70q0 26 9 38t30 13q19 0 36-12t43-37v34q-15 17-30 28t-29 17-31 5m121-5h-27q-5 0-6-5-1-9-2-21t-1-20l-3-18v-273q0-5 5-5h31q4 0 4 5v279q0 13 1 28t2 23q2 7-4 7m161 5q-46 0-70-22t-24-66v-72q0-46 24-71t70-24q46 0 70 24t24 69v39q0 5-4 5h-145v21q0 33 14 47t43 15q24 0 36-8t12-25q0-5 5-5h30q4 0 5 4 1 32-23 51t-67 18m-55-159v8h109v-8q0-31-13-46t-41-15-41 15-14 46m401 154h-31q-4 0-4-5v-162q0-24-10-36t-29-11q-19 0-37 11t-44 37l-1-34q16-17 31-28t30-16 31-6q34 0 51 20t18 61v164q0 5-5 5m-152 0h-31q-5 0-5-5v-178q0-14-1-30t-2-25q-1-6 5-6h28q4 0 5 5 2 7 3 22t2 24l0 12v176q0 5-4 5m303 5q-43 0-65-19t-20-58q0-5 5-5h30q4 0 4 4 0 23 11 34t35 10q24 0 36-8t12-25q0-13-7-21t-22-15l-54-25q-25-11-36-26t-11-37q0-31 20-48t60-16q41 0 63 18t21 50q0 4-4 4h-31q-5 0-5-7 1-14-11-22t-32-8-31 7-10 22q0 12 6 18t23 15l53 24q25 12 36 26t12 39q0 33-23 51t-65 18m234 0q-46 0-71-22t-24-66v-72q0-46 24-71t70-24q47 0 71 24t24 69v39q0 5-5 5h-144v21q0 33 13 47t44 15q23 0 35-8t12-25q0-5 5-5h31q3 0 4 4 2 32-22 51t-67 18m-55-159v8h109v-8q0-31-14-46t-40-15-42 15-13 46m276 159q-34 0-51-22t-17-65v-73q0-45 22-70t62-25q19 0 39 5t32 14l2 34q-16-9-33-13t-32-4q-26 0-39 15t-13 48v70q0 26 9 38t30 13q19 0 36-12t43-37v34q-15 17-30 28t-29 17-31 5m121-5h-27q-5 0-6-5-1-9-2-21t-1-20l-3-18v-273q0-5 5-5h31q4 0 4 5v279q0 13 1 28t2 23q2 7-4 7" />
</svg>