<svg id="fnt-Sofia Sans" viewBox="0 0 2224 1000" xmlns="http://www.w3.org/2000/svg"><path id="sofia-sans" class="f" d="M139 673q-60 0-88-26t-25-67q1-9 6-9h32q6 0 6 8 0 30 18 43t55 14q35 0 53-13t19-39q0-13-5-22t-14-16-27-14l-73-31q-23-9-38-21t-20-27-6-35q0-41 27-63t80-21q35 0 61 10t40 31 11 49q-1 9-6 9h-32q-2 0-4-2t0-7q2-26-18-40t-54-13q-31 0-47 11t-16 34q0 12 4 21t15 16 28 15l73 31q23 9 37 21t20 26 6 37q0 42-28 66t-90 24m279 0q-50 0-77-25t-26-74v-58q0-50 26-75t77-24q51 0 77 24t26 75v58q0 50-26 74t-77 25m0-38q32 0 46-16t15-49v-50q0-33-15-50t-46-16-46 16-14 50v50q0 33 14 49t46 16m225 32h-32q-2 0-4-2t-1-3v-203h-39q-2 0-3-1t-2-4v-26q0-3 2-4t3-1h39v-26q0-37 21-58t60-20q12 0 24 2t20 6q10 4 10 9v26q0 3-3 4t-9-2q-8-3-19-6t-20-2q-20 0-31 11t-11 31v25h73q5 0 5 5v26q0 2-2 4t-3 1h-73v203q0 2-1 3t-4 2m168 0h-33q-5 0-5-5v-234q0-5 5-5h33q5 0 5 5v234q0 5-5 5m-16-285q-15 0-21-8t-7-20v-5q0-12 7-20t21-7 21 7 6 20v5q0 12-6 20t-21 8m266 285h-29q-3 0-4-2t-2-5q0-4-2-18t-2-23l-2-19v-100q0-25-10-35t-35-11q-45 0-45 31 0 5-4 5h-33q-5 0-6-9-2-29 22-47t68-17q43 0 64 20t22 62v107q0 18 1 31t2 24q1 6-5 6m-124 6q-29 0-45-18t-15-51q0-26 10-42t33-26 61-12l47-4v33l-48 4q-34 3-47 12t-13 32q0 17 7 26t21 8q16 0 34-11t48-42v38q-18 19-33 30t-30 17-30 6m407 0q-60 0-88-26t-25-67q1-9 6-9h32q6 0 6 8 0 30 18 43t55 14q35 0 53-13t19-39q0-13-5-22t-14-16-27-14l-73-31q-23-9-38-21t-20-27-6-35q0-41 27-63t80-21q35 0 61 10t40 31 11 49q-1 9-6 9h-32q-2 0-4-2t0-7q2-26-18-40t-54-13q-31 0-47 11t-16 34q0 12 4 21t15 16 28 15l73 31q23 9 37 21t20 26 6 37q0 42-28 66t-90 24m353-6h-29q-3 0-4-2t-2-5q0-4-2-18t-2-23l-2-19v-100q0-25-10-35t-35-11q-45 0-45 31 0 5-4 5h-33q-5 0-6-9-2-29 22-47t68-17q43 0 64 20t22 62v107q0 18 1 31t2 24q1 6-5 6m-124 6q-29 0-45-18t-15-51q0-26 10-42t33-26 61-12l47-4v33l-48 4q-34 3-47 12t-13 32q0 17 7 26t21 8q16 0 34-11t48-42v38q-18 19-33 30t-30 17-30 6m399-6h-33q-5 0-5-5v-160q0-25-10-36t-31-12q-19 0-38 12t-48 39l1-38q17-18 32-29t30-16 33-5q36 0 55 21t19 62v162q0 5-5 5m-161 0h-32q-5 0-5-5v-178q0-13-2-30t-2-25q-1-6 5-6h31q4 0 5 5 1 4 2 12t2 18 1 16v13 175q0 5-5 5m320 6q-45 0-68-20t-22-59q0-5 5-5h33q4 0 4 4 0 23 11 33t37 10q25 0 37-9t13-23q0-12-7-20t-22-14l-57-23q-28-12-39-26t-12-38q0-33 21-50t63-16q42 0 66 17t23 51q0 4-5 4h-33q-5 0-5-8 0-13-12-20t-33-7q-21 0-32 7t-10 22q0 11 5 17t24 13l57 24q26 11 38 26t12 38q0 35-24 53t-68 19" />
</svg>