<svg id="fnt-Solitreo" viewBox="0 0 1537 1000" xmlns="http://www.w3.org/2000/svg"><path id="solitreo" class="f" d="M113 666q-32 0-57-12t-39-28-14-31q0-15 9-15 6 0 14 7t18 16 24 17 32 7q23 0 43-8t33-22 13-27q0-12-12-27t-28-31-35-33-29-31-11-26q0-23 14-42t36-33 48-22 48-8q14 0 24 10t10 20q0 6-12 9t-31 7-37 11q-29 11-43 19t-14 19q0 8 11 20t30 28 35 33 29 37 12 40q0 27-17 49t-45 34-59 13m230 3q-17 0-30-11t-22-29-7-43q0-20 6-42t17-44 26-40 33-28 39-11q19 0 35 12t25 31 9 44q0 32-11 61t-30 51-42 36-48 13m3-34q15 0 30-13t28-33 21-42 7-41q0-11-3-24t-8-21-10-8q-12 0-24 9t-23 25-20 34-13 36-5 33q0 16 6 30t14 15m186 34q-4 0-10-5t-11-12-4-11q0-2 4-19t11-45 14-63 14-73 10-76 5-71q0-7 2-10t8-3q5 0 12 7t13 16 6 19q0 35-4 73t-12 78-17 74-17 62-14 43-10 16m204-280q-8 0-18-7t-17-16-7-16q0-10 8-19t17-9q5 0 12 10t13 22 6 22q0 5-5 9t-9 4m-90 280q-7 0-12-6t-5-13q0-2 3-19t10-42 12-52 13-52 10-39q7-25 15-25 6 0 12 6t10 13 4 15q0 14-7 42t-18 66-26 81q-8 25-21 25m172 0q-16 0-29-6t-20-16-7-18q0-22 12-60t29-93q-12 3-20 4t-12 2q-8 0-16-9t-7-15q0-12 65-23 9-42 9-74 0-15 10-15 4 0 11 4t15 12 7 21q0 8-2 19t-6 27q14-1 25-2t20-1q30 0 30 13 0 3-6 7t-23 9-55 12q-2 8-7 25t-11 38-12 40-9 33-4 16q0 10 11 10 11 0 23-4t23-7 20-8 11-3q9 0 9 10 0 7-9 16t-21 17-28 14-26 5m145 1q-9 0-14-10t-5-17q0-12 4-26t10-33 10-44 5-58q0-9-1-21t-1-21q0-8 3-13t8-6q12 0 20 14t8 30q0 13-2 23 44-66 83-66 24 0 24 12 0 6-5 11t-18 11q-17 8-31 21t-27 33-25 56-28 84q-3 10-8 15t-10 5m237-1q-26 0-46-11t-31-29-11-42q0-20 7-42t19-45 28-39 35-29 39-11q15 0 28 8t25 20 18 27 7 28q0 16-10 28t-24 18-33 11-32 3q-32 0-61-8-7 22-7 39 0 18 11 27t36 10q18 0 35-5t29-9 15-4q13 0 13 10 0 7-8 15t-22 14-30 12-30 4m15-137q26 0 45-8t19-22q0-9-6-19t-14-16-17-6q-18 0-38 19t-34 48q20 4 45 4m190 137q-17 0-30-11t-22-29-7-43q0-20 6-42t17-44 26-40 33-28 39-11q19 0 35 12t25 31 9 44q0 32-11 61t-30 51-42 36-48 13m3-34q15 0 30-13t28-33 21-42 7-41q0-11-3-24t-8-21-10-8q-12 0-24 9t-23 25-20 34-13 36-5 33q0 16 6 30t14 15" />
</svg>