<svg id="fnt-Solway" viewBox="0 0 1683 1000" xmlns="http://www.w3.org/2000/svg"><path id="solway" class="f" d="M166 469q42 13 65 27t34 33 10 45q0 28-15 50t-42 35-61 13q-37 0-66-11t-43-30-15-46q0-16 8-25t23-10q12 0 20 8t9 20q0 16-13 25 10 13 29 21t46 8q34 0 54-15t21-40q0-18-6-28t-22-19-50-19q-42-13-66-28t-35-32-11-45 16-49 43-33 63-12q49 0 78 21t28 59q0 16-8 25t-23 10q-12 0-21-8t-8-20q0-14 10-23-12-25-60-25-33 0-53 15t-20 38q0 17 7 27t23 19 51 19m287 203q-36 0-63-16t-41-45-15-67q0-39 15-69t42-47 63-16q36 0 63 15t41 45 15 67q0 40-15 70t-42 46-63 17m0-39q35 0 55-25t19-68q0-43-19-66t-54-23-55 24-19 69q0 42 19 65t54 24m181 34q-17 0-17-14v-12q0-14 17-14h13v-291h-13q-17 0-17-13v-13q0-13 17-13h39q8 0 13 5t5 13v312h13q17 0 17 14v12q0 14-17 14h-70m480-250q16 0 16 13v13q0 13-16 13h-13l-63 200q-1 5-5 8t-10 3h-14q-12 0-16-11l-52-142-53 142q-4 11-16 11h-14q-6 0-10-3t-5-8l-63-200h-13q-16 0-16-13v-13q0-13 16-13h72q16 0 16 13v13q0 13-16 13h-13l45 147 50-134q4-12 16-12h12q11 0 16 12l49 134 46-147h-13q-16 0-16-13v-13q0-13 16-13h67m270 210q16 0 16 14v12q0 14-16 14h-40q-7 0-13-6t-5-13v-31q-9 23-33 39t-49 16q-35 0-56-21t-22-53q0-35 24-54t68-19q33 0 68 8v-23q0-31-14-46t-45-15q-24 0-35 9 3 6 3 13 0 12-8 20t-19 8q-14 0-22-9t-8-23q0-24 26-40t65-15q49 0 75 26t27 75v114h13m-129 8q19 0 35-10t26-28 10-37q-22-4-62-4-54 0-54 40 0 19 12 29t33 10m410-218q17 0 17 13v13q0 13-17 13h-13l-102 252q-19 44-37 61t-45 18q-21 0-35-12t-14-30q0-13 8-21t22-8q11 0 19 8t8 20q0 2-1 6 10-2 17-12t17-33l18-46-83-203h-13q-16 0-16-13v-13q0-13 16-13h69q16 0 16 13v13q0 13-16 13h-9l60 149 58-149h-10q-16 0-16-13v-13q0-13 16-13h66" />
</svg>