<svg id="fnt-Song Myung" viewBox="0 0 2693 1000" xmlns="http://www.w3.org/2000/svg"><path id="song-myung" class="f" d="M125 475l22 8q17 6 33 14t28 20 20 26 8 36q0 24-11 42t-28 30-39 17-43 6q-24 0-47-5t-41-15q-8-4-8-15l1-46q1-13 13-13h11q11 0 14 12l6 36q1 7 7 11t13 6 16 3 14 1q33 0 51-15t19-40q0-12-5-21t-13-15-17-10-20-8l-21-7q-40-16-64-40t-23-59q0-24 10-41t25-29 36-17 42-5q22 0 41 5t35 15q9 5 8 15l-2 43q-1 12-13 12h-11q-11 0-13-12l-7-35q-1-10-10-13-14-5-29-5-12 0-23 3t-20 10-13 16-5 23q0 22 13 34t40 22m260-45q26 0 48 9t36 27 24 39 8 48q0 26-8 48t-23 38-37 26-48 9-48-9-36-26-24-38-8-48q0-26 8-48t24-39 36-27 48-9m0 22q-57 0-57 100 0 99 57 99t58-99q0-100-58-100m386 64v115q1 10 12 13l8 1q11 3 11 12t-12 10h-92q-13 0-13-10t11-11l10-2q11-3 12-13v-109q0-30-8-43t-26-13q-15 0-30 8t-30 22v135q1 10 12 13l9 2q11 2 11 11t-13 10h-93q-12 0-12-10 0-9 11-11l11-2q11-3 11-13v-91q0-10 0-18t0-14q-1-4-1-7t0-8q-1-11-12-13l-12-1q-11-2-11-11 0-8 10-12l58-23q4-2 9-2 3 0 4 1 4 3 4 12l3 29q19-22 38-33t44-10q33 0 50 20t16 66m289-71v10q0 13-13 13h-34q11 17 11 40 0 20-7 35t-20 24-30 15-34 5q-20 0-36-5-3 5-5 10t-2 11q0 10 7 15t24 6h51q46 0 65 15t20 43q0 24-13 40t-32 26-42 13-42 4q-53 0-75-14-24-13-24-37 0-15 11-27t33-24q-14-7-20-18t-6-21q0-15 9-26t24-23q-18-10-28-27t-10-40q0-19 8-34t20-25 29-14 34-5q38 0 63 19l47-16q3-1 5-1t4-1q5 0 6 5t2 9m-128 121q21 0 32-16t12-42q0-27-11-43t-32-15q-21 0-32 16t-10 42q0 27 10 43t31 15m36 105h-52q-8 0-15-1t-12-2q-12 17-12 34 0 22 16 31t41 9q38 0 58-13t20-30q0-12-10-20-5-4-13-6t-21-2m632-311q0 11-12 13l-17 2q-12 1-12 12 0 13-1 25t0 24v143q0 13 0 25t1 25q1 12 12 13l17 2q12 1 12 12 0 11-12 11h-116q-12 0-12-11 0-11 12-12l16-2q12-1 12-13 0-12 0-25t0-24v-155l-108 242h-18l-109-243v203q0 12 11 13l20 3q11 2 11 13t-12 11h-88q-12 0-12-11t11-13l22-3q11-1 11-13v-239q0-12-11-13l-19-2q-11-2-11-13t12-11h79l110 241 106-231q4-10 15-10h68q12 0 12 11m185 78h66q12 0 12 10t-11 13l-8 1q-10 2-13 11l-72 196q-5 15-13 34t-19 36-26 29-35 11q-19 0-33-9t-13-24q3-11 12-16t19-5q9 0 17 3t19 13q1 2 4 2 5 0 12-8t12-18 11-20 6-14l-85-210q-4-9-13-11l-7-1q-11-2-11-13 0-10 12-10h99q12 0 12 10 0 11-11 13l-12 2q-14 2-9 15l50 135 47-136q4-12-9-15l-11-1q-12-2-12-13 0-10 13-10m323 69v123q0 12 11 14l8 1q11 3 11 12t-12 11l-53 3h-1q-11 0-13-11l-3-29q-37 43-83 43-14 0-26-5t-21-15q-8-10-13-26t-4-40l1-111q0-11-11-13l-7-2q-11-2-11-11 0-9 12-10l58-5q2 0 3-1t3 0q3 0 5 1 2 2 2 12l-2 59v74q0 31 9 44t25 12q14 0 29-8t30-22l1-130q0-11-11-13l-7-2q-11-2-11-11t12-10l57-5q2 0 3-1t3 0q3 0 5 1 1 1 2 4t1 8l-2 59m296 9v115q0 10 11 13l9 1q11 3 11 12t-13 10h-92q-12 0-12-10t11-11l10-2q11-3 11-13v-109q0-30-7-43t-26-13q-16 0-30 8t-30 22v135q0 10 11 13l9 2q11 2 11 11t-12 10h-93q-13 0-13-10 0-9 12-11l10-2q11-3 12-13v-91q0-10 0-18t-1-14q0-4 0-7t0-8q-1-11-12-13l-12-1q-12-2-12-11 0-8 10-12l58-23q5-2 9-2 3 0 4 1 4 3 5 12l2 29q19-22 39-33t44-10q33 0 49 20t17 66m288-71v10q0 13-12 13h-34q11 17 11 40 0 20-8 35t-20 24-29 15-35 5q-20 0-35-5-4 5-6 10t-2 11q0 10 7 15t25 6h51q45 0 65 15t20 43q0 24-13 40t-33 26-42 13-41 4q-53 0-76-14-23-13-23-37 0-15 10-27t34-24q-14-7-20-18t-6-21q0-15 8-26t25-23q-18-10-28-27t-10-40q0-19 7-34t20-25 29-14 35-5q38 0 63 19l47-16q2-1 4-1t4-1q6 0 7 5t1 9m-127 121q21 0 32-16t11-42q0-27-11-43t-31-15q-21 0-32 16t-11 42q0 27 11 43t31 15m36 105h-53q-8 0-14-1t-12-2q-12 17-12 34 0 22 15 31t41 9q38 0 58-13t20-30q0-12-9-20-5-4-13-6t-21-2" />
</svg>