<svg id="fnt-Sora" viewBox="0 0 1133 1000" xmlns="http://www.w3.org/2000/svg"><path id="sora" class="f" d="M172 676q-46 0-78-15t-49-42-17-60h49q0 17 9 33t29 28 57 11q33 0 54-10t31-26 10-34q0-22-20-37t-57-18l-40-4q-49-4-78-30t-29-68q0-34 16-59t46-39 67-14q38 0 67 14t45 39 17 60h-49q0-17-9-33t-25-25-46-10q-27 0-45 9t-26 25-9 33q0 20 16 35t46 18l40 4q38 3 65 15t42 34 15 51q0 34-18 60t-51 40-75 15m342 0q-35 0-62-12t-45-32-27-44-9-50v-9q0-26 9-51t28-44 45-32 61-11 60 11 45 32 28 44 10 51v9q0 25-10 50t-27 44-45 32-61 12m0-43q30 0 51-14t32-35 12-51q0-28-12-51t-33-35-50-13q-29 0-51 13t-33 35-11 51q0 28 11 51t32 35 52 14m263 34h-48v-267h38v110h-2q0-59 25-86t78-27h9v43h-17q-40 0-62 21t-21 61v145m355 0h-38v-80h-8v-93q0-27-14-41t-42-14q-15 0-32 0t-31 1-26 2v-42q11-1 23-2t25-1 25 0q41 0 67 9t39 32 12 60v169m-125 7q-30 0-52-11t-34-29-11-47q0-29 12-48t38-29 59-9h72v36h-74q-29 0-45 14t-15 36 15 35 45 14q17 0 32-7t26-21 11-40l13 19q-2 28-14 47t-31 30-47 10" />
</svg>