<svg id="fnt-Source Serif 4" viewBox="0 0 3240 1000" xmlns="http://www.w3.org/2000/svg"><path id="source-serif-4" class="f" d="M124 674q-33 0-61-8t-43-18l2-74h31l15 76-33-7v-28q15 10 28 17t27 10 33 4q26 0 43-7t26-21 9-31q0-16-6-27t-20-19-36-16l-18-8q-27-10-49-24t-33-32-12-46q0-29 15-49t41-31 60-11q29 0 52 7t36 18l-2 69h-31l-15-74 32 8v29q-17-15-35-22t-39-7q-21 0-36 6t-23 19-8 29q0 15 6 26t20 19 33 17l19 7q30 12 52 25t33 32 11 46q0 30-15 51t-44 33-65 12m293-1q-32 0-60-15t-44-43-17-70 17-71 44-44 60-15 59 14 45 44 17 70-17 71-45 44-59 15m0-26q23 0 39-12t24-34 9-56q0-35-9-58t-24-34-39-12q-23 0-39 12t-24 34-9 57q0 34 9 57t24 34 39 12m267 26q-35 0-54-21t-18-66l1-143 15 17-56-11v-21l74-9 12 3-1 60v96q0 30 11 43t32 13q13 0 27-4t27-13 27-19l4 23h-14q-11 16-24 27t-30 18-33 7m174-6l-77 4-5-57-2 0 1-158-41-7v-21l73-9 13 3-1 60v155l39 8v22m174 0h-134v-24l57-5h14l63 5v24m-48 0h-47q0-15 0-34t1-38 0-36v-26q0-13 0-24t-1-21 0-21l-42-2v-22l66-25 14 2 5 68 3 1v70q0 17 0 36t0 38 1 34m-5-141l-4-37h11q9-22 19-39t24-25 30-9q15 0 24 7t14 16q-1 15-9 26t-24 11q-10 0-18-4t-14-10l-12-11 26-2q-25 12-41 32t-26 45m268 147q-37 0-64-16t-42-44-14-66q0-40 16-70t44-46 61-16q27 0 47 8t33 22 17 30q-2 11-8 17t-17 7q-13 0-19-8t-10-18l-14-46 29 25q-12-5-25-9t-28-3q-23 0-41 12t-27 35-10 55 11 53 28 32 42 11q17 0 29-4t24-13 19-18l17 16q-9 15-22 27t-31 19-45 8m260 0q-38 0-65-16t-41-43-14-67q0-39 15-69t42-46 60-17q31 0 53 11t35 34 13 53q0 9-1 18t-3 16h-187v-24h131q10-3 13-10t3-15q0-19-7-32t-19-19-31-6q-19 0-35 10t-25 33-10 58q0 31 10 52t29 34 44 11q27 0 44-10t32-25l16 12q-11 17-25 30t-32 20-45 7m366 1q-34 0-61-8t-43-18l1-74h32l14 76-32-7v-28q14 10 27 17t28 10 33 4q26 0 43-7t26-21 9-31q0-16-7-27t-20-19-35-16l-19-8q-27-10-48-24t-34-32-12-46q0-29 15-49t41-31 60-11q29 0 52 7t36 18l-1 69h-31l-15-74 32 8v29q-18-15-35-22t-39-7q-21 0-36 6t-24 19-8 29q0 15 7 26t19 19 33 17l19 7q31 12 52 25t33 32 12 46q0 30-16 51t-43 33-65 12m291-1q-38 0-65-16t-41-43-14-67q0-39 15-69t42-46 60-17q31 0 53 11t35 34 13 53q0 9-1 18t-3 16h-187v-24h131q10-3 13-10t3-15q0-19-7-32t-19-19-31-6q-19 0-35 10t-25 33-10 58q0 31 10 52t29 34 44 11q27 0 44-10t32-25l16 12q-11 17-25 30t-32 20-45 7m280-6h-134v-24l56-5h14l64 5v24m-49 0h-46q0-15 0-34t0-38 0-36v-26q0-13 0-24t0-21 0-21l-42-2v-22l66-25 14 2 5 68 3 1v70q0 17 0 36t0 38 0 34m-5-141l-4-37h11q9-22 20-39t24-25 29-9q15 0 25 7t13 16q0 15-8 26t-24 11q-11 0-19-4t-14-10l-11-11 26-2q-25 12-42 32t-26 45m270 141h-124v-24l56-5h14l54 5v24m-38 0h-47q1-15 1-34t0-38 0-36v-26q0-19 0-34t-1-32l-41-2v-22l74-25 14 2-1 61v78q0 17 0 36t1 38 0 34m-25-300q-14 0-24-9t-9-24 9-23 24-10q15 0 24 10t10 23-10 24-24 9m237 300h-135v-24l54-5h22l59 5v24m-47 0h-47q1-18 1-36t0-36 0-36v-109h-43v-24l57-8-13 14 0-8q3-27 7-46t14-33 22-26q14-13 31-19t37-6 33 6 18 21q-1 10-8 17t-22 7q-12 0-21-6t-20-13l-20-15 8 0h2l7-1q-7 2-12 5t-10 11q-6 9-10 19t-8 22-3 30-1 40v122q0 18 0 36t1 36 0 36m64-217h-85v-29h85v29m335 224h-47v-97l1-8v-185h-13l20-9-62 99-68 88 5-19v13h217v35h-245v-30l157-221h35v334" />
</svg>