<svg id="fnt-Source Code Pro" viewBox="0 0 4471 1000" xmlns="http://www.w3.org/2000/svg"><path id="source-code-pro" class="f" d="M153 673q-36 0-67-14t-52-35l25-29q18 19 43 30t53 11q34 0 52-14t19-38q0-17-8-28t-21-17-30-14l-47-21q-16-7-33-17t-27-27-11-40q0-25 14-45t38-31 56-11 57 11 44 29l-22 27q-16-14-36-23t-45-8q-28 0-46 13t-17 35q0 16 8 26t23 16 27 13l46 20q21 8 37 19t26 28 10 40q0 26-14 47t-40 34-62 13m297 0q-32 0-59-15t-44-44-17-68q0-41 17-70t44-43 59-15 59 15 44 43 17 70q0 40-17 68t-44 44-59 15m0-34q24 0 41-12t27-33 10-48q0-28-10-50t-27-33-41-11-41 11-27 33-9 50q0 27 9 48t27 33 41 12m273 34q-43 0-64-25t-20-73v-151h41v145q0 35 13 51t43 17q21 0 38-11t38-34v-168h41v243h-34l-3-43h-2q-19 21-41 35t-50 14m291-6h-41v-243h34l4 57h1q19-29 47-46t62-17q13 0 25 2t23 8l-10 35q-12-4-21-6t-24-2q-27 0-53 15t-47 54v143m359 6q-38 0-68-15t-48-44-17-68q0-41 19-70t49-43 68-15q30 0 51 10t37 25l-20 27q-15-13-31-21t-36-7q-28 0-49 11t-34 33-11 50q0 27 11 48t33 33 49 12q23 0 41-9t34-22l19 27q-20 18-45 28t-52 10m292 0q-36 0-66-15t-47-44-18-69q0-40 18-68t45-44 61-15q35 0 60 14t38 40 13 60q0 7 0 13t-2 12h-205v-32h181l-11 11q0-43-20-64t-53-22q-22 0-42 11t-30 32-12 52q0 31 13 52t34 32 48 11q22 0 40-7t34-16l15 27q-18 12-41 20t-53 9m611 0q-31 0-57-12t-45-33-31-54-10-71q0-53 19-91t52-59 76-20q29 0 52 12t37 28l-23 26q-13-14-29-22t-37-8q-32 0-55 16t-36 46-13 71q0 41 13 71t36 47 55 16q22 0 40-9t34-27l23 25q-19 23-44 35t-57 13m274 0q-32 0-59-15t-44-44-17-68q0-41 17-70t44-43 59-15 59 15 44 43 17 70q0 40-17 68t-44 44-59 15m0-34q24 0 41-12t27-33 10-48q0-28-10-50t-27-33-41-11-41 11-27 33-9 50q0 27 9 48t27 33 41 12m286 34q-48 0-77-34t-29-93q0-40 16-69t41-44 54-15q21 0 39 8t33 23h2l-2-45v-93h41v356h-34l-4-32h-1q-15 15-36 26t-43 12m8-35q18 0 35-9t34-27v-121q-17-16-33-22t-31-7q-21 0-39 12t-27 32-10 49q0 44 19 68t52 25m321 35q-36 0-66-15t-47-44-18-69q0-40 18-68t45-44 61-15q35 0 60 14t38 40 13 60q0 7 0 13t-2 12h-205v-32h181l-11 11q0-43-20-64t-53-22q-22 0-42 11t-30 32-12 52q0 31 13 52t34 32 48 11q22 0 40-7t34-16l15 27q-18 12-41 20t-53 9m528-6h-42v-328h99q37 0 64 9t42 30 16 57q0 35-16 57t-42 33-64 12h-57v130m0-295v131h52q43 0 64-17t21-51q0-35-21-49t-64-14h-52m321 295h-41v-243h34l4 57h1q19-29 47-46t62-17q13 0 25 2t23 8l-10 35q-12-4-21-6t-24-2q-27 0-53 15t-47 54v143m336 6q-32 0-59-15t-44-44-17-68q0-41 17-70t44-43 59-15 59 15 44 43 17 70q0 40-17 68t-44 44-59 15m0-34q24 0 41-12t27-33 10-48q0-28-10-50t-27-33-41-11-41 11-27 33-9 50q0 27 9 48t27 33 41 12" />
</svg>