<svg id="fnt-Spectral" viewBox="0 0 1777 1000" xmlns="http://www.w3.org/2000/svg"><path id="spectral" class="f" d="M132 672q-31 0-52-6t-45-17l-5-82h8l25 53q18 15 35 21t34 7q30 0 46-15t17-42q0-22-10-35t-28-22-43-22q-23-12-40-24t-25-27-8-38q0-17 8-33t22-30 32-21 37-7q23 0 43 5t40 16l5 80h-8l-23-53q-18-13-31-19t-30-5q-22 0-36 15t-14 37q0 25 15 39t49 31q30 15 50 27t29 30 9 42q0 23-10 41t-26 30-34 18-36 6m265 110h-107v-8l31-16v-264l-30-26v-4l62-27h3l4 30h4q19-16 36-23t38-7q26 0 45 13t31 36 11 57q0 41-15 70t-41 44-57 15q-28 0-51-5v91l36 16v8m14-311q-12 0-25 4t-25 11v141q15 12 31 16t34 5q24 0 42-21t17-67q0-31-10-51t-27-29-37-9m268 201q-49 0-77-30t-28-78q0-37 15-66t39-45 53-16q39 0 62 27t23 79l-3 3h-149q0 23 9 43t27 33 50 12q28 0 65-20h1v5q-11 22-34 37t-53 16m-6-213q-24 0-40 16t-18 48h113q-6-34-20-49t-35-15m248 213q-49 0-77-30t-28-78q0-37 15-66t42-45 58-16q20 0 39 6t29 18q8 10 8 15 0 7-6 12l-19 16h-4l-17-23q-7-10-19-16t-27-6q-28 0-44 21t-15 61q0 24 8 45t26 35 52 13q28 0 65-20h1v5q-11 22-34 37t-53 16m214 0q-22 0-38-13t-16-37v-157h-41v-3l42-20 36-55h3v55h66v23h-66v149q0 13 11 19t27 6q10 0 18-1t14-3h2v5q-5 12-20 22t-38 10m206-5h-107v-8l31-16v-149l-30-26v-4l62-27h3l5 42h2q11-18 21-28t18-12 17-2q4 0 9 1t9 3q6 3 10 6t5 8-2 9l-10 25h-3l-19-8q-6-2-11-3t-10 0q-21 0-36 21v144l36 16v8m143 5q-23 0-39-14t-15-38 18-43 61-28l48-11v-36q0-17-14-30t-31-12q-19 0-27 10t-7 28v14l-3 2h-26q-7 0-10-2t-3-12q0-11 7-22t20-20q14-9 29-15t33-6 34 5 27 16 11 33v142q3 4 10 6t18 3h19l1 1v1q-6 11-18 19t-28 9q-16 0-26-9t-13-21h-3q-13 13-33 21t-40 9m-15-62q0 31 37 31 12 0 24-3t27-9v-74q-40 8-59 16t-24 18-5 21m307 57h-103v-8l31-16v-294l-30-26v-4l67-27h3v351l32 16v8" />
</svg>