<svg id="fnt-Spectral SC" viewBox="0 0 3105 1000" xmlns="http://www.w3.org/2000/svg"><path id="spectral-sc" class="f" d="M132 672q-31 0-52-6t-45-17l-5-82h8l25 53q18 15 35 21t34 7q30 0 46-15t17-42q0-22-10-35t-28-22-43-22q-23-12-40-24t-25-27-8-38q0-17 8-33t22-30 32-21 37-7q23 0 43 5t40 16l5 80h-8l-23-53q-18-13-31-19t-30-5q-22 0-36 15t-14 37q0 25 15 39t49 31q30 15 50 27t29 30 9 42q0 23-10 41t-26 30-34 18-36 6m286-5h-120v-8l36-17v-231l-36-16v-8h111q115 0 115 79 0 26-16 44t-43 28-62 10h-26v94l41 17v8m-17-255h-24v111h27q35 0 55-15t20-41q0-30-21-43t-57-12m407 255h-226v-8l36-17v-231l-36-16v-8h214v71h-8l-24-46h-104v97h76l15-34h8v93h-8l-15-34h-76v108h115l25-54h8v79m219 5q-43 0-77-18t-53-50-19-70q0-33 13-61t34-49 49-32 60-11q32 0 51 6t37 15l1 70h-8l-26-48q-13-10-27-14t-29-4q-33 0-58 16t-40 42-14 60q0 59 30 91t83 32q16 0 29-3t24-8l33-52h8l-4 66q-18 10-41 16t-56 6m367-5h-132v-8l44-17v-230h-77l-24 58h-8v-83h262v83h-8l-25-58h-77v230l45 17v8m231 0h-111v-8l36-17v-231l-36-16v-8h111q46 0 73 19t27 52q0 24-16 42t-42 27l78 117 33 15v8h-71l-81-128h-34v103l33 17v8m-7-255h-26v102h28q27 0 43-14t17-37q0-26-17-39t-45-12m267 255h-93v-8l25-13 111-262h21l111 261 29 14v8h-109v-8l35-14-32-76h-104l-31 77 37 13v8m46-224l-41 101h83l-42-101m431 224h-224v-8l35-17v-231l-35-16v-8h118v8l-40 16v231h108l30-71h8v96m292 5q-31 0-53-6t-44-17l-5-82h8l24 53q18 15 35 21t35 7q29 0 46-15t17-42q0-22-10-35t-28-22-43-22q-24-12-40-24t-25-27-9-38q0-17 8-33t23-30 32-21 37-7q23 0 42 5t40 16l5 80h-8l-23-53q-17-13-30-19t-30-5q-22 0-37 15t-14 37q0 25 16 39t48 31q31 15 50 27t29 30 10 42q0 23-10 41t-26 30-35 18-35 6m333 0q-51 0-88-21t-57-58-20-82q0-36 14-68t37-57 55-40 67-14q25 0 42 3t31 8 28 13l3 87h-9l-31-61q-19-13-33-19t-32-6q-36 0-65 18t-44 49-16 72q0 47 15 81t43 51 59 18q28 0 46-8t34-17l30-53h8l-5 79q-15 8-30 13t-35 9-47 3" />
</svg>