<svg id="fnt-Spicy Rice" viewBox="0 0 2139 1000" xmlns="http://www.w3.org/2000/svg"><path id="spicy-rice" class="f" d="M262 388q0 12-5 22t-12 17-19 11-24 4q-14 0-23-3t-17-9-11-12-6-12-2-12-1-7q3 5 7 6t7 1q6 0 9-3t3-8q0-3-1-6t-4-5-8-5-11-1q-5 0-10 1t-10 6-7 9-2 14q0 7 3 14t8 14 12 11 16 9q13 5 28 11t27 11 26 15 20 19 15 27 5 35q0 28-12 52t-31 40-45 26-53 9q-25 0-48-7t-40-21-27-30-10-38q0-15 5-26t13-19 21-11 25-3q10 0 20 2t18 6 16 11 11 14q-5-2-9-2-7 0-11 4t-3 12q0 4 1 7t5 7 8 4 8 1q5 0 9-2t7-5 5-8 2-8q0-9-5-18t-16-15q-19-12-35-21t-31-16-26-15-19-18-12-25-5-33q0-23 10-44t26-36 42-24 57-8q31 0 54 7t36 20 20 27 6 30m28-1q5 0 12 1 6 0 15 0t17 1q14 0 30-1t31-4q-3 6-5 15t-4 22q10-22 27-34t43-12q5 0 14 0t18 5 19 13 18 25 12 40 5 59q0 29-4 52t-12 41-17 30-20 20-22 11-21 4q-12 0-22-5t-18-14-13-20-9-27q0 11 1 26t2 31 2 32 3 30 3 24 4 15q-20-4-36-5t-31-1q-9 0-16 0t-12 1q-6 1-10 1 2-12 5-32t3-44 3-53 1-57q0-28-1-54t-3-52-5-46-7-38m100 120v39q0 7 1 13t3 13 7 9 14 4q5 0 10-5t6-12 5-16 2-18 1-17 0-12q0-7 0-16t-3-19-7-15-12-6q-9 0-14 6t-8 15-4 19-1 18m287 159q-4-1-10-1-5 0-11-1t-16 0q-15 0-36 2t-45 5q4-10 8-24t5-30 3-32 2-30 0-23 0-12q0-32-2-60-1-11-2-23t-2-23-3-19-5-13q20 3 37 4t30 2q9 0 16-1t12-1q6 0 10-1-4 22-7 53t-3 67q0 20 1 41t3 41 6 40 9 39m-112-349q0-12 4-22t12-17 17-12 21-4 22 4 17 12 12 17 4 22-4 21-12 17-17 12-22 4-21-4-17-12-12-17-4-21m341 143q0 10-4 20t-10 19-16 13-22 5q-10 0-18-3t-12-10-7-13-3-16q0-17 9-30 1 4 3 6t4 3q3 1 5 2 7 0 9-3t3-8q0-4-3-8t-11-4q-3 0-7 1t-9 3-10 7-9 13-7 21-3 31q0 18 5 29t13 18 16 8 14 3q5 0 13-2t16-7 14-14 8-22q7 10 11 23t4 29q0 20-8 39t-21 34-32 23-42 9q-18 0-32-5t-27-16-21-23-15-29-10-32-3-34q0-19 4-39t12-38 19-35 25-28 32-18 36-7q17 0 31 4t23 11 16 16 10 18 5 19 2 17m260-74q-3 10-5 25t-3 31-2 34-2 36q-1 40-1 85 0 24-3 49t-10 45-18 40-25 32-36 21-45 8q-24 0-41-5t-29-14-17-21-5-28 5-27 13-20 19-13 21-4q14 0 26 7t19 25q-2-1-4-2t-3 0q-3 0-6 1t-5 4-4 5-1 6q0 3 2 6t3 4 5 2 5 1q3 0 8-2t11-6 11-13 9-22 7-34 3-47q-7 17-14 28t-14 16-16 8-18 2q-12 0-25-4t-24-15-18-30-7-48q0-4 0-5t0-3 0-2 0-5 0-10 1-18q0-14-1-32t-2-34-4-31-8-20q20 3 37 4t32 2q10 0 17-1t14-1q6 0 11-1-2 4-4 16t-5 28-3 36-2 39q0 15 2 25t6 18 9 10 11 3q9 0 15-8t9-19q0-15-2-35t-3-43-5-44-8-41q7 2 18 4 9 2 22 4t30 1q21 0 47-3m383 285q-16-2-30-2t-26 0q-23 0-38 1t-25 3q-12 1-18 4 1-8 2-15t1-12 1-13 1-13q0-27-3-45t-6-29-9-20-13-13q0 11 0 21t-1 22q0 11 1 24t2 26 3 29 6 33q0-1-6-2t-16-2-24-2-28 0q-18 0-37 1t-34 5q6-7 11-19t8-25 6-30 5-30q4-35 6-74 0-10 0-25t-1-33-2-36-4-35-8-32-13-22q18 2 35 3t28 1q10 0 19 0t17-1 18-1 20-1q16 0 31 2t30 5 27 11 21 18 15 25 5 35q0 11-3 22t-9 22-16 20-25 18q17 7 26 17t13 24 4 29 1 33q1 18 5 34 1 7 4 14t5 12 8 11 10 7m-163-211q6-4 13-10t12-13 10-15 4-16q0-8-5-13t-10-5q-8 0-13 7t-7 17-3 20-1 15q0 3 0 6t0 7m290 206q-5-1-10-1-5 0-12-1t-15 0q-16 0-36 2t-45 5q4-10 7-24t6-30 3-32 1-30 1-23 0-12q0-32-2-60-1-11-2-23t-2-23-4-19-4-13q20 3 37 4t30 2q9 0 16-1t12-1q6 0 10-1-4 22-7 53t-3 67q0 20 1 41t3 41 6 40 9 39m-113-349q0-12 5-22t11-17 18-12 21-4 21 4 18 12 11 17 5 22-5 21-11 17-18 12-21 4-21-4-18-12-11-17-5-21m342 143q0 10-4 20t-10 19-16 13-22 5q-10 0-18-3t-12-10-8-13-2-16q0-17 8-30 2 4 4 6t4 3q3 1 5 2 7 0 9-3t2-8q0-4-3-8t-11-4q-2 0-6 1t-9 3-10 7-9 13-7 21-3 31q0 18 5 29t13 18 16 8 14 3q5 0 13-2t15-7 14-14 9-22q7 10 10 23t4 29q0 20-7 39t-21 34-33 23-42 9q-17 0-31-5t-27-16-21-23-15-29-10-32-3-34q0-19 4-39t12-38 19-35 25-28 31-18 37-7q17 0 30 4t23 11 16 16 11 18 5 19 2 17m230-20q0 18-5 35t-18 31-36 21-57 9q1 12 5 20t10 13 12 7 12 3 9 1 3 0q15-1 27-8 6-2 10-6t9-9 7-12 3-15q6 16 9 29t2 26q0 22-7 41t-22 31-33 21-42 8q-22 0-42-8t-37-24-25-43-9-64q0-41 12-72t31-53 46-32 54-11q15 0 28 3t23 10 15 19 6 29m-117 55q7 0 16-3t17-7 14-11 5-16q0-5-4-9t-10-3q-8 0-15 5t-11 12-8 16-4 16" />
</svg>