<svg id="fnt-Spinnaker" viewBox="0 0 2487 1000" xmlns="http://www.w3.org/2000/svg"><path id="spinnaker" class="f" d="M33 627l21-38q46 29 93 38 16 4 32 4t34-4 31-10q30-16 30-49 0-35-51-48-15-4-32-7l-35-7q-66-11-93-33-24-20-24-55 0-47 45-76 40-26 94-26 53 0 94 17 15 6 31 15l-16 40q-36-22-84-28-15-2-29-2-32 0-57 12-29 15-29 41 0 27 37 40 16 6 37 9l44 8q54 10 76 23t31 29 10 43-12 47-33 35q-41 27-104 27-58 0-110-26-17-8-31-19m470 45q-30 0-55-6v115h-47v-358h36l6 23q35-28 84-28 52 0 84 33 32 33 32 86 0 60-40 98-39 37-100 37m-55-182v134q34 8 57 8t40-6 28-18q23-25 23-68 0-36-19-59-20-24-54-24-38 0-63 19-8 6-12 14m316-168q0 14-8 22t-22 8-22-8-8-22 8-22 22-8 22 8 8 22m-53 345v-244h46v244h-46m172-244l7 24q38-29 88-29 111 0 111 122v127h-47v-124q0-42-14-63-17-23-54-23-39 0-66 19-9 6-14 14v177h-47v-244h36m326 0l7 24q38-29 88-29 111 0 111 122v127h-46v-124q0-42-15-63-16-23-53-23-40 0-67 19-9 6-14 14v177h-46v-244h35m450 212q-44 37-94 37-34 0-57-19-26-19-26-51 0-65 87-86 35-9 84-10-2-40-39-47-12-2-23-2t-19 1-17 2q-20 4-33 9l-13-34q34-17 83-17 75 0 99 48 8 16 8 39v78q0 25 4 33 6 16 23 21l-7 30q-46 5-60-32m-87-81q-23 9-33 19t-10 22 3 19 9 10q12 8 27 8t28-3 23-8q20-11 34-26v-53q-59 3-81 12m221 113v-381h47v244l109-107h54l-114 112 68 74q22 22 52 25l-7 33q-37 5-60-14-7-6-14-13l-88-96v123h-47m446-223q12 13 20 33t7 41-5 51h-169q5 30 23 47t53 16q45 0 83-16l8 35q-25 14-72 19-13 2-33 2t-44-9-37-24q-30-32-30-94 0-54 35-91 36-36 90-36 44 0 71 26m-149 89h132l1-13q0-45-33-59-12-5-27-5t-29 6-22 16q-20 22-22 55m395-108l-10 49q-15-9-31-9t-25 8-18 19q-15 23-20 54v121h-46v-244h38l8 44q19-34 48-45 10-4 19-4t13 0 8 1q8 2 16 6" />
</svg>