<svg id="fnt-Square Peg" viewBox="0 0 1364 1000" xmlns="http://www.w3.org/2000/svg"><path id="square-peg" class="f" d="M43 688l-3 0q-7 0-7-13 0-8 4-10 5-4 14-8t21-10q9-3 24-8 24-10 42-25 8-6 21-21 4-6 4-15 0-11-5-18t-12-11l-14-9q-3-3-9-8t-12-10q-6-2-17-11-9-7-19-27-7-14-10-25t-4-21q0-23 14-39 9-11 19-23t24-25q19-16 40-21 14-4 27-4 6 0 6 10 0 15-8 15-11 0-23 3-26 7-50 35-4 4-10 11t-15 17q-7 13-7 17 0 5 3 14t7 18q7 16 16 24l15 9q5 4 10 9t11 9q8 5 15 10t15 15q8 11 8 31 0 19-9 35-6 11-24 26-11 10-22 17t-23 13l-25 7-32 17m235 134q-10 0-16-14-4-10-5-22-3-103 41-187-5 2-35 25-25 20-34 29-8 9-25 9-9 0-16-10t-5-18q2-13 11-29t22-30 28-27 30-17q5-2 10-3t10-1q22 0 22 15 0 6-5 6-3 0-5-2-10-7-17-7-7 0-22 8-11 7-22 18t-21 23q-10 13-15 22t-7 18q0 2 0 5 0 8 6 8 8 0 30-15 53-35 73-62 2-2 4-6t6-11q5-12 11-12 4 0 7 4h1q4 0 4 5 0 4-3 11-1 9-8 19-4 7-10 18t-13 26q-36 81-36 168 0 19 9 19t25-16q2-2 3-2 4 0 4 6t-4 10q-18 19-33 19m178-155q-11 0-17-13-1-3-2-9t-4-15q-2-13-7-10-8 12-23 27-19 19-28 19-11 0-18-16-7-12-7-24 0-38 10-67 3-6 8-6 4 0 8 4t4 10q0 3-4 12-9 19-9 42 0 25 9 25 5 0 22-15 31-26 45-69 2-6 8-6 9 0 9 8 0 5-2 11t-3 13q-2 8-3 14t-1 11q0 3 0 8t2 10q2 15 5 18 0 0 5-3t12-6 12-6 5-3q5 0 5 4t-9 12-17 13-15 7m173 6q-3 0-5-2-13-14-14-41 0-2 1-5t0-6l1-11v-1q0-9-7-7-10 7-27 20t-40 33q-10 9-25 9-9 0-16-10t-4-18q1-13 10-29t22-30 29-27 29-17q6-2 11-3t10-1q21 0 21 15 0 5-4 5-1 0-3 0t-3-1q-9-8-16-8t-22 9q-12 7-23 18t-21 23q-9 13-15 22t-6 18q-1 2-1 5 0 8 7 8 8 0 30-15 52-35 73-62 5-6 9-17 2-7 10-7 9 0 9 10 0 8-7 20-12 36-12 50 1 22 10 35 2 1 2 4 0 4-5 9t-8 5m71-10q-5 0-7-12t-1-24q0-8 0-15t0-10q0-5 1-13t1-17q2-21 2-31 0-5-1-10t0-9v-2q0-6 6-6 5 0 6 6 1 6 1 23t1 45q0 7 3 7 4 0 11-11 14-24 31-41 13-11 23-11 13 0 22 11 3 3 3 7 0 7-6 7-2 0-4-2l-1 1q-9-7-12-7-12 0-23 13-36 45-45 91-2 10-11 10m158 14q-22 0-36-13t-13-37q0-5 0-10t2-10q6-21 31-46 28-26 48-26 17 0 16 19 0 24-27 48-11 9-24 17t-25 8h-1q2 33 34 33 10 0 23-5 1-1 3-1 7 0 7 7 0 4-5 7-14 9-33 9m-15-73q15-4 26-13 20-17 20-32v-1q0-3-3-5t-3-1q-16 0-33 22-3 4-6 9t-8 14q0 1 0 2 0 5 7 5m209-51q-3-3-3-9 0-9 7-15l18-16q7-4 17-12t25-19q7-7 14-14t12-16q3-7 4-11t1-6q0-3-2-7t-4-7q-3-5-9-7-11-3-13-4-4-2-10-6t-13-7q-8-4-21-10t-27-13q-3-3-7-7t-11-9q-2-2-2-6 0-6 3-11t7-5q2 0 3 1l1 1q4 4 14 12 4 3 10 6t12 5q4 2 10 5t14 8q4 2 9 5t14 8l13 4q4 2 8 4t7 8q11 14 11 32 0 16-9 32-8 14-30 35-10 9-23 18-11 7-16 10t-10 8-16 15q-4 3-8 0m-29 147q-3 0-5-3-8-17-8-39 0-8 2-24 0-7 0-13t1-9q0-11 1-22t2-23l6-44q2-14 5-37t6-54q2-17 3-30 1-13 9-13 10 0 10 14-1 5-3 12t-4 19l-9 91q-2 13-4 34t-5 51l-1 25q-1 7-1 12t0 8q0 14 5 25 1 3 1 5 0 6-4 10t-7 5m136-23q-22 0-36-13t-14-37q0-5 1-10t2-10q5-21 30-46 28-26 49-26 17 0 16 19-1 24-27 48-12 9-24 17t-26 8h0q1 33 33 33 11 0 24-5 1-1 3-1 6 0 6 7 0 4-4 7-14 9-33 9m-16-73q16-4 27-13 19-17 19-32v-1q0-3-2-5t-4-1q-15 0-33 22-2 4-6 9t-7 14q-1 1-1 2 0 5 7 5m80 259q-32 0-32-46 0-28 20-62 8-14 18-27t23-24l54-52q0-11 0-18t1-10q-6 7-24 16-19 9-35 9-11 0-18-8t-6-20q0-17 9-34t25-36q31-37 63-37 7 0 7 8t-7 8q-26 0-48 23-20 20-31 51-2 4-2 10 0 18 15 18 4 0 7-1 49-15 60-79 2-7 9-7 6 0 6 5 0 1 0 2t-1 3q-1 5-3 15t-3 21-3 20-1 12q0 6 5 6 3 0 5-2 5-3 15-10 5-3 8-3 4 0 4 6 0 5-5 7-7 4-16 10t-18 15q-3 26-5 45t-5 32q-9 51-28 86-26 48-63 48m-4-16q66 0 83-155 0-1 0-3t0-2q0-10-4-10-4 0-10 6-5 5-10 10t-14 12q-24 23-42 53-21 34-21 60 0 29 18 29" />
</svg>