<svg id="fnt-Sree Krushnadevaraya" viewBox="0 0 4445 1000" xmlns="http://www.w3.org/2000/svg"><path id="sree-krushnadevaraya" class="f" d="M35 454q0-33 28-54t71-20 63 18q4-6 4-15h18v69h-18q-2-27-23-42t-46-15-43 11q-17 11-17 29t16 33 63 35q46 19 63 37t18 47q0 39-27 61t-66 23-68-16q-8-5-14-10-8 9-8 22h-16v-75h19q7 28 30 45t59 18 51-22q4-8 4-18 0-20-14-34t-49-27q-60-22-80-46-18-21-18-54m310 23v26q30-29 64-29 12 0 20 8t9 18-8 19-17 7q-10 0-18-7t-7-15 2-11q-27 8-45 28v132h40v14h-116v-14h28v-161h-28v-15h76m286 148l10 9q-29 36-83 37-18 0-37-8t-33-21q-28-27-28-71t29-70 71-27q64 0 80 54 6 16 6 38h-135v6q0 56 33 75 11 6 25 6 34 0 62-28m-118-74h82q0-29-9-45t-28-16q-41 0-45 61m338 74l10 9q-29 36-83 37-18 0-37-8t-33-21q-28-27-28-71t29-70 71-27q64 0 80 54 6 16 6 38h-135v6q0 56 33 75 11 6 26 6 34 0 61-28m-118-74h82q0-29-8-45t-29-16q-40 0-45 61m302 116v-15h34v-254h-34v-15h123v15h-39v128l130-128h-27v-15h83v15h-33l-101 101 126 153h26v15h-117v-15h27l-95-121-19 18v103h39v15h-123m381-190v26q30-29 64-29 12 0 20 8t8 18-7 19q-7 7-18 7-9 0-17-7t-7-15 1-11q-27 8-44 28v132h40v14h-116v-14h27v-161h-27v-15h76m262 190v-18q-25 22-54 22t-48-12q-27-16-27-54v-113h-27v-15h75v137q0 39 36 39 25 0 45-23v-138h-33v-15h80v175h24v15h-71m194-12q34 0 37-25 0-9-13-17t-42-19-45-26-17-40 22-39 48-15 44 13q10-2 10-13h14v52h-16q-3-18-17-27t-32-10-28 7-10 18 11 18 32 16 33 12q38 19 38 54t-39 50q-15 7-31 7-33-1-56-18-5 4-6 14h-18l1-56h17q0 14 18 29t45 15m94 12v-15h30v-283h-32v-14h80v146q28-27 64-27 25 0 43 13 25 16 25 51v114h30v15h-109v-15h31v-117q0-22-5-30-4-8-10-11t-17-2-26 7-26 21v132h30v15h-108m385-175q-30 0-55 28v132h34v15h-112v-15h30v-160h-30v-15h78v24q28-27 64-27 25 0 43 13 25 16 25 51v114h30v15h-111v-15h33v-117q0-22-4-29-9-14-25-14m174 7q13 3 15 21 0 11-7 17t-18 7-18-7-7-16 4-16q10-18 37-26 18-5 33-5 42 0 61 17t20 47v99q0 16 8 15t14-9l10 8q-12 19-41 19-10 0-21-6t-14-18q-21 25-57 25-27 0-47-15t-21-41 20-39 50-14 51 15v-44q0-22-5-30-9-14-27-14-30 0-40 10m33 153q23 0 41-21v-37q-16-16-35-16t-29 9-9 28q0 29 21 35 5 2 11 2m293 15v-20q-21 23-64 24-15 0-31-6t-28-18q-25-26-25-73t27-73 64-27q25 0 46 10 7 3 11 7v-122h-38v-14h87v297h28v15h-77m0-42v-115q-19-20-48-20-49 0-49 82 0 60 27 76 9 5 23 5t26-8 21-20m271 0l9 9q-29 36-82 37-18 0-38-8t-33-21q-28-27-28-71t29-70 71-27q64 0 81 54 5 16 5 38h-135v6q0 56 33 75 11 6 26 6 34 0 62-28m-119-74h82q0-29-8-45t-28-16q-41 0-46 61m254 120l-85-179h-19v-15h97v15h-24l56 127 50-127h-25v-15h67v15h-24l-74 179h-19m182-172q13 3 15 21 0 11-7 17t-19 7-17-7-8-16 5-16q10-18 37-26 18-5 33-5 41 0 61 17t20 47v99q0 16 8 15t14-9l10 8q-13 19-41 19-10 0-21-6t-14-18q-21 25-57 25-27 0-48-15t-20-41 20-39 50-14 51 15v-44q0-22-5-30-9-14-27-14-30 0-40 10m33 153q23 0 41-21v-37q-16-16-36-16t-28 9-9 28q0 29 20 35 6 2 12 2m215-175v26q30-29 64-29 12 0 20 8t8 18-7 19-18 7q-10 0-17-7t-7-15 1-11q-27 8-44 28v132h40v14h-117v-14h28v-161h-28v-15h77m162 22q14 3 16 21 0 11-8 17t-18 7-18-7-7-16 4-16q10-18 38-26 17-5 32-5 42 0 62 17t19 47v99q0 16 8 15t15-9l9 8q-12 19-41 19-10 0-20-6t-14-18q-22 25-58 25-27 0-47-15t-20-41 19-39 50-14 52 15v-44q0-22-6-30-9-14-26-14-31 0-41 10m33 153q24 0 41-21v-37q-16-16-35-16t-29 9-9 28q0 29 21 35 5 2 11 2m135 90q0-16 14-23 5-2 14-2t15 7 6 14-5 14q13-1 31-41l17-40-85-179h-20v-15h100v15h-26l56 127 50-127h-33v-15h71v15h-20l-74 179-22 50q-13 26-25 38t-28 11-26-8-10-20m274-243q13 3 15 21 0 11-7 17t-18 7-18-7-7-16 4-16q10-18 37-26 18-5 33-5 42 0 61 17t20 47v99q0 16 8 15t14-9l10 8q-12 19-41 19-10 0-21-6t-14-18q-21 25-57 25-27 0-47-15t-21-41 20-39 50-14 51 15v-44q0-22-5-30-9-14-27-14-30 0-40 10m33 153q23 0 41-21v-37q-16-16-35-16t-29 9-9 28q0 29 21 35 5 2 11 2" />
</svg>