<svg id="fnt-Stick No Bills" viewBox="0 0 2378 1000" xmlns="http://www.w3.org/2000/svg"><path id="stick-no-bills" class="f" d="M131 668v-37q8 0 18-5t21-14 17-20 7-27q0-18-10-29t-24-19-31-11-30-7-20-5q-17-6-31-16t-23-27-8-40q0-26 10-44t25-29 29-16 25-5v38q-5 0-13 3t-17 11-14 17-6 26q0 15 8 24t20 16 28 10 30 8 28 8q17 7 31 17t24 27 9 42q0 27-14 50t-38 39-51 15m-25-37v37q-21 0-38-8t-29-22-19-26-7-24l37-13q3 18 12 30t22 18 22 8m114-241l-38 12q-3-16-12-26t-20-16-19-5v-38q20 0 36 8t28 20 17 24 8 21m165 277h-16q-32-1-50-12t-24-30-7-46v-140h-32v-37h32v-88h39v88h32v37h-32v145q0 19 9 31t34 13h6l9 39m67 0h-38v-267h38v267m-19-289q-9 0-16-7t-7-16 7-16 16-6 15 6 7 16-7 16-15 7m148 252v37q-24 0-40-8t-25-20-14-24-4-22v-121q0-11 5-24t15-24 26-19 37-7v37q-14 0-25 6t-15 15-5 17v120q0 8 5 17t16 14 24 6m22 37v-37q12 0 22-5t17-15 7-21v-11l37 14q0 20-12 37t-31 28-40 10m77-194l-36 13-1-11q0-14-7-23t-15-13-18-4v-37q21 0 39 10t27 27 11 38m246 194h-47l-108-135 108-133h47l-108 133 108 135m-167 0h-40v-353h40v353m539 0h-20l-203-325v-25h35l188 300v50m-183 0h-40v-277h4l36 58v219m183-98h-4l-36-59v-193h40v252m125 61v37q-20 0-36-7t-26-19-17-25-6-28v-110q0-14 5-28t17-26 27-19 36-7v37q-15 0-26 7t-15 19-6 22v100q0 10 6 21t17 18 24 8m22 37v-37q14 0 24-8t16-18 6-20v-101q0-11-6-22t-15-18-25-8v-37q21 0 36 7t26 19 16 26 6 28v110q0 14-6 28t-17 25-26 19-35 7m347 0h-46v-36h30q23 0 38-6t25-16 14-22 4-23q0-23-14-39t-47-16h-50v-36h50q23 0 35-7t19-20 6-27q0-15-8-30t-22-26-40-10h-40v-36h44q28 0 48 9t33 23 19 33 6 35q0 24-10 44t-25 30q10 8 18 18t13 24 5 33q0 28-13 51t-36 36-56 14m-70 0h-40v-350h40v350m258 0h-39v-267h39v267m-20-289q-9 0-16-7t-7-16 7-16 16-6 16 6 7 16-7 16-16 7m107 289h-41v-353h41v353m83 0h-41v-353h41v353m137 2v-36q11 0 23-5t20-15 9-25q0-12-10-20t-26-12-35-10-36-9q-9-3-20-10t-20-19-8-32q0-22 8-37t21-25 26-13 26-4v36q-12 0-22 5t-17 15-6 21q0 13 11 20t34 14 56 14q7 1 17 5t18 12 15 19 6 28q0 26-12 44t-33 29-45 10m-21-36v36q-27 0-46-11t-29-28-10-34l37-7q0 13 7 22t19 16 22 6m106-162l-36 6q0-16-10-26t-21-14-19-4l1-36q25 0 44 11t30 28 11 35" />
</svg>