<svg id="fnt-Stylish" viewBox="0 0 1309 1000" xmlns="http://www.w3.org/2000/svg"><path id="stylish" class="f" d="M126 670h-2q-10 0-21-2t-23-4-19-5-14-5q-10-6-15-16t-6-21q0-9 5-15t10-5q4 0 20 13 14 12 29 18t37 6q22 0 36-11t13-33q0-11-4-18t-12-14-22-14-32-16q-16-7-29-15t-24-18-16-24-6-33q0-34 27-55t79-21q31 0 52 9 10 4 17 14t6 19q0 21-14 21-3 0-26-15-23-15-45-15t-37 11-14 29q0 10 3 17t11 13 21 14 34 16q16 7 30 15t25 18 18 25 6 34q0 9-2 17t-5 16q-13 26-39 38t-52 12m228-4h-8q-32 0-44-24t-12-74q0-49-5-68-3-7-11-16t-9-15v-3q0-5 10-12 5-3 8-5t4-5 3-7 3-13q5-18 10-26t15-7 12 5 8 22q2 8 3 13t5 9 8 6 14 6q18 6 18 15 0 8-19 15-17 6-23 16-9 18-9 64 0 47 8 57 8 10 26 13 18 2 18 13 0 9-10 15t-23 6m115-89q-40-88-40-97 0-10 8-15t23-4q8 0 12 2t7 7 4 12 5 20 7 30 11 34 11 29 10 12q2 0 6-6 5-7 11-21t12-31 10-35 5-32q1-13 4-20t19-6h5q20 0 20 15 0 9-8 28-8 20-11 32-35 119-52 152-16 34-36 52t-40 18q-20 0-20-13 0-8 19-16 19-7 30-20t11-36q0-11-17-41-8-15-15-28t-11-22m198-207q0-17 28-17h4q20 0 22 17v70l-1 25v20l0 4v33l0 27q1 3 1 20 0 16 4 33t10 28 7 18q0 7-9 13t-26 6h-7q-31 0-31-24 0-1 1-4t1-8q1-4 1-13t1-21l1-52 1-4v-24l0-4v-41l1-8v-41q0-24-5-37-4-13-4-16m159 297h-11q-9 0-15-6t-7-11q0-5 4-18 4-10 4-20l1-17v-84q-1-13-4-20l-2-4q-4-12-4-12v-5q0-12 26-12h7q8 0 12 1t6 7 2 15 0 27v49l2 30q0 26 10 44 4 8 4 16 0 9-10 14t-25 6m-3-302h7q9 0 16 6t7 16v5q0 9-6 16t-15 7l-4 1h-7q-2-1-7-1-4 0-9-5t-5-12l-1-7v-1l1-7q0-5 5-11t18-7m89 143q0-13 5-24t17-19 25-12 31-4q7 0 18 1t22 3 18 9 8 17q0 18-12 18-4 0-22-9-18-8-34-8-16 0-25 7t-8 20q0 6 3 10t8 7 15 8 25 10q30 12 45 26t15 40q0 13-6 24t-16 20-25 13-32 5q-58 0-73-23-4-7-4-13 0-18 11-18 4 0 26 11 21 12 38 12t27-8 10-20q0-6-2-11t-9-9-16-9-24-10q-11-4-22-10t-19-13-13-17-5-24m396 128q0 24-27 24-12 0-18-4t-5-14v-5l0-5v-12l-2-52q0-22-2-37t-7-23-13-12-19-3q-11 0-23 7t-17 22q-7 14-7 78 0 9 2 22 0 6 0 10 1 2 1 4 0 12-8 19t-22 8h-5q-23 0-23-18v-5q0-3 3-12l3-12q4-19 4-75v-81l1-48 0-7v-13q0-3 0-6t-1-5l-1-4q-1-7-1-8 0-10 12-10h5q11 0 17 3t9 10 4 17 1 24q1 14 1 24t2 17q2 14 9 14 1 0 3 0t5-2l5-2q22-9 40-9 19 0 32 6t20 21 10 37 3 55q0 24 5 41 4 17 4 21" />
</svg>