<svg id="fnt-Sue Ellen Francisco" viewBox="0 0 2669 1000" xmlns="http://www.w3.org/2000/svg"><path id="sue-ellen-francisco" class="f" d="M82 215l20-3q49 0 69 59 3 6 3 17 0 12-15 13-13 0-16-32-17-28-38-28h-6q-30 0-36 59v1q0 71 90 213 28 54 28 91 0 49-51 77l-17 3q-45 0-86-62-8-13-8-29 0-25 17-28h5q10 7 10 14l-3 14v1q0 32 53 58l9 2h4q26 0 37-43v-6q0-52-68-154-48-96-48-151 0-61 47-86m225 288q16 0 16 34 0 39 5 95 16 7 16 17v2q0 12-17 15-11 0-18-21-21 27-40 27-44-1-56-43-5-47-5-100v-9q0-17 16-17 11 0 14 18v8q-10 116 31 111 26-18 27-48v-13l-5-45v-5q0-26 16-26m93-9l8-2q27 0 37 50-13 55-52 55h-2v1q7 45 41 45 26 0 42-45l11-4q11 0 14 16 0 31-48 58l-23 4q-42 0-63-60-6-24-6-40v-6q0-50 41-72m-10 60v1l10 11q8 0 14-20v-8q-2-15-6-15h-3q-8 0-15 31m278-355h1q13 0 15 18h-2l2 5q16 0 92-10 12 4 12 15 0 16-66 20l-43 6v22q0 23 19 186h62q13 0 16 14 0 15-23 15h-55v2l-2 101q0 36 8 53l96-7q16 2 16 14 0 16-34 16-88 4-88 9-18 0-25-54l-2-37 1-111-18-201v-16q0-60 18-60m202 35q7 1 13 12-3 6-4 20l-1 6 3 193q-2 130 3 191l1 4q-4 10-14 9-22-1-17-60-3-33-3-297-3-16-2-42v-2q3-35 21-34m83 0q7 1 14 12-4 6-5 20l0 6 3 193q-3 130 3 191l1 4q-5 10-14 9-22-1-18-60-3-33-3-297-3-16-1-42v-2q2-35 20-34m96 260l7-2q27 0 37 50-12 55-52 55h-2v1q8 45 42 45 25 0 42-45l10-4q11 0 14 16 0 31-47 58l-24 4q-42 0-63-60-6-24-6-40v-6q0-50 42-72m-11 60v1l11 11q7 0 14-20v-8q-3-15-7-15h-3q-7 0-15 31m213-60q50 4 41 118l-4 44q-3 17-17 17-14-1-12-18l3-47q7-84-14-85-23-2-34 87l2 52q-1 11-16 11-18-1-14-52l-12-112q1-11 18-12 11 1 13 22l2 1q22-28 44-26m216-275q11 0 14 19h86q17 0 17 17-3 12-19 12h-80l16 152h44q18 0 18 17-3 12-19 12h-40v2q14 146 14 180v29q0 19-14 19h-6q-9-6-9-14v-23q0-85-37-409 3-13 15-13m154 251q13 0 20 32h1q19-22 40-22 35 6 35 22-4 14-15 14l-18-6h-5q-29 5-29 119v23q-3 15-14 15-15 0-15-19v-57q0-62-16-109 4-12 16-12m171 38l24-5 30 5v-2q10 0 16 18l-1 30v22q0 47 14 71-4 12-16 12-16 0-23-37l-1-8h-4q-18 41-50 55l-8 2q-42-12-42-61v-3q0-62 61-99m-31 92v16q3 24 15 24h2q17 0 54-103v-1l-15-3h-1q-39 0-55 67m217-106q49 4 40 118l-4 44q-3 17-17 17-13-1-12-18l4-47q7-84-15-85-23-2-33 87l2 52q-1 11-17 11-18-1-13-52l-12-112q1-11 18-12 10 1 12 22l2 1q22-28 45-26m150-20q12 0 12 29l5 42q0 10-17 14-10 0-26-45l-2-2h-3q-19 0-22 55v7q0 55 36 65h9q15 0 46-27h3v-1q16 4 16 17-11 20-46 35l-24 6q-46 0-66-70l-3-27v-3q0-74 45-86h5l15 2q7-11 17-11m107-55q13 0 15 16 0 8-10 15h-5q-14 0-14-16 4-15 14-15m3 66q17 2 10 49-6 38-2 129-8 14-19 12-14-2-12-48-1-81 9-136 1-7 14-6m92 0l17-4q26 0 31 22 0 10-14 12h-4q-6-4-11-4h-5q-32 14-32 41v4q2 16 15 16h5l33-6q25 3 25 24 0 32-38 68-19 14-37 14-34-7-34-28 5-12 17-12l15 11h8q35-14 35-45l-2-2q-12 5-27 5-36 0-44-47 0-43 47-69m159-11q12 0 12 29l4 42q0 10-16 14-10 0-27-45l-1-2h-3q-20 0-22 55v7q0 55 36 65h9q15 0 46-27h3v-1q15 4 15 17-10 20-45 35l-24 6q-46 0-66-70l-3-27v-3q0-74 45-86h5l15 2q7-11 17-11m125 26l10-2q42 15 44 93v3q-2 65-34 79l-13 2q-53-12-53-78v-2q0-71 46-95m-17 91v11q6 46 28 46 14-15 14-57v-3q-3-52-17-57-25 11-25 60" />
</svg>