<svg id="fnt-Sumana" viewBox="0 0 1731 1000" xmlns="http://www.w3.org/2000/svg"><path id="sumana" class="f" d="M75 389q0 20 11 34t28 23 46 22q34 15 55 27t35 32 15 51q0 27-14 49t-42 34-64 13q-22 0-45-6t-40-16l2 18h-33l-3-109h26q2 44 28 67t67 23q29 0 49-17t19-45q0-21-11-36t-29-24-46-23q-33-14-54-26t-34-32-14-49q0-20 9-41t33-34 63-14q20 0 42 5t41 16l-2-17h33v112h-25q-2-40-24-67t-62-27q-28 0-44 16t-16 41m476 256v25h-71q-3-12-4-25-15 14-35 23t-38 9q-40 0-60-23t-19-79v-81q0-17 1-27l-31 2v-25h17q19 0 27-3t15-9h17v142q0 38 11 56t36 18q16 0 32-10t25-23v-116q0-19 2-32l-32 2v-25h16q19 0 28-3t14-9h18l-1 175q0 23-2 39l34-1m414 0v25h-99v-20h0q13 1 19-5t7-16 1-31v-64q0-38-12-57t-37-18q-14 0-28 6t-24 15q4 13 4 32l-1 107q0 18-1 27l28-1v25h-99v-20h0q13 1 19-5t7-16 1-31l0-64q1-39-11-57t-36-19q-14 0-28 6t-22 15v23 117q0 18-1 27l28-1v25h-99v-20h1q13 1 18-5t7-16 1-31v-104q0-17 2-27l-33 2v-25h0q21 0 32-2t15-4 10-6h16q1 6 2 22 15-11 32-18t34-7q22 0 38 8t26 22q17-13 37-22t39-8q42 0 61 25t20 80l-1 85q0 18-1 27l28-1m130-216q37 0 59 22t23 65l-1 99q0 11-1 27l32-1v26h-68q-2-11-4-25-34 32-71 32-34 0-53-16t-19-42q0-27 22-46t54-28 66-9v-21q0-30-9-46t-36-16q-13 0-26 6t-18 17q3 3 4 7t1 10q0 8-6 15t-16 8q-10 0-16-8t-6-18q0-25 25-42t64-16m39 126q-38 2-69 15t-30 39q0 15 11 24t28 8q18 0 32-6t28-19q-1-7-1-21 0-3 0-12t1-28m353 86v26h-97v-21q13 1 19-5t7-16 1-31v-60q-1-39-12-57t-39-18q-16 0-32 7t-27 21q1 4 1 16l-1 112q0 19-1 27l29-1v26h-98v-21q14 1 19-5t7-15 1-32l1-100q0-17 1-26l-32 2v-26q29 0 39-3t17-9v-1h15v1q1 8 2 27v-1q16-13 36-21t38-8q40 0 60 25t19 80v81q0 19-1 27l28-1m130-212q37 0 60 22t22 65l0 99q0 11-2 27l33-1v26h-69q-2-11-4-25-33 32-71 32-34 0-53-16t-18-42q0-27 21-46t54-28 66-9v-21q0-30-8-46t-36-16q-13 0-26 6t-19 17q4 3 5 7t1 10q0 8-6 15t-17 8q-9 0-15-8t-6-18q0-25 24-42t64-16m39 126q-38 2-68 15t-31 39q0 15 12 24t28 8q18 0 31-6t28-19q0-7 0-21 0-3 0-12t0-28" />
</svg>