<svg id="fnt-Supermercado One" viewBox="0 0 3877 1000" xmlns="http://www.w3.org/2000/svg"><path id="supermercado-one" class="f" d="M142 423q4-4 7-8t3-12-2-11-7-10q-9-8-20-8t-17 3-12 9q-10 12-10 33 0 28 16 49 5 6 11 11l55 44q34 28 34 67 0 33-23 55-23 22-54 22h-34q-9 0-16-7t-7-13 2-11 5-7q7-7 16-7h20q15 0 24-7t9-18q0-18-15-32l-42-34q-30-24-42-45-14-24-14-62 0-44 24-69 24-25 67-25 39 0 62 20t23 54q0 30-12 49-13 19-33 19-12 0-18-6-11-10-11-19t4-15 7-9m269-11q6-6 11-8t11-2 11 2 10 6q8 8 8 20v212q0 12-6 19-10 11-20 11t-14-3-7-4q-5-4-7-8t-3-6-5-2-5 2-6 6q-15 15-32 15t-29-6-21-16q-18-21-18-51v-169q0-18 17-26 5-2 11-2t12 2 9 6q8 8 8 20v169q0 12 7 18 10 11 22 11 19 0 27-16 2-4 2-11v-171q0-12 7-18m127 342v-323q0-12 6-19 11-10 20-10t14 2 8 4q4 4 6 8t4 6 4 2 5-2 6-6q15-14 32-14t29 5 21 16q19 21 19 51v120q0 30-21 51-22 22-52 22h-43v87q0 12-6 18-10 10-23 10-12 0-18-6-11-10-11-22m116-160v-122q0-12-8-19t-18-8-14 2-9 5q-9 8-9 18v152h29q12 0 18-6 11-10 11-22m264 28q9 0 16 7t6 16-6 15-16 7h-58q-29 0-51-22t-21-51v-119q0-34 23-53 23-20 64-20 41 0 64 20 23 20 23 53v68q0 13-6 19-11 10-23 10h-87v22q0 12 6 18 11 10 23 10h43m-14-93v-54q0-13-6-19-11-11-23-11-12 0-19 7-10 10-10 23v54h58m247-127q6 0 12 1t11 6q12 8 12 23 0 12-7 19-11 10-20 10-12 0-22-8-8-5-18-5t-15 6-6 16v173q0 11-6 18-11 11-20 11t-14-3-9-6q-9-9-9-20v-212q0-12 7-19 10-10 19-10t14 2 8 4q5 4 6 8t4 6 4 2 5-2l5-4q19-16 39-16m151 259q-6 6-11 8t-12 3-11-3-9-6q-9-8-9-20v-212q0-12 7-19 10-10 19-10t15 1 7 5q4 4 7 8t3 6 4 2 6-2l4-4q18-16 35-16 32 0 52 25 2 3 5 3 5 0 11-8t17-14 27-6 28 5 23 16q20 21 20 51v169q0 19-18 26-5 3-11 3t-11-3-10-6q-8-9-8-20v-168q0-13-6-19-11-11-20-11t-14 3-9 6q-9 9-9 20v169q0 19-17 26-5 3-11 3t-12-3-9-6q-9-8-9-20v-168q0-13-6-19-10-11-22-11-20 0-27 16-3 4-3 11v171q0 12-6 18m448-39q10 0 16 7t6 16-6 15-16 7h-57q-30 0-51-22t-21-51v-119q0-34 22-53 24-20 65-20 40 0 63 20 23 20 23 53v68q0 13-6 19-10 10-23 10h-87v22q0 12 7 18 10 10 22 10h43m-14-93v-54q0-13-6-19-11-11-22-11-13 0-19 7-11 10-11 23v54h58m248-127q6 0 12 1t11 6q11 8 11 23 0 12-6 19-11 10-21 10-12 0-22-8-8-5-17-5t-16 6-5 16v173q0 11-6 18-11 11-20 11t-14-3-10-6q-8-9-8-20v-212q0-12 6-19 10-10 20-10t14 2 8 4q4 4 6 8t3 6 5 2 5-2l4-4q19-16 40-16m208 56q-11-13-26-13-13 0-19 7-11 10-11 23v119q0 12 6 18 11 10 23 10h60q15 0 20 14 2 4 2 9t-2 8-4 7q-7 7-16 7h-74q-30 0-51-22t-22-51v-121q0-31 22-50 23-21 65-21 57 0 76 26 6 8 6 16t-2 14-6 9q-9 8-19 8-17 0-28-17m158-29q0-15 13-21 4-2 9-2h57q30 0 51 22t22 51v164q0 19-18 26-5 3-12 3t-10-3-8-4q-3-3-6-7t-4-7-4-2-5 2l-4 4q-17 17-39 17-26 0-45-22-19-21-19-51v-33q0-30 21-51 21-21 51-21h44v-15q0-12-6-18-11-11-23-11h-43q-9 0-14-4-8-8-8-17m36 137v33q0 12 6 18 11 10 20 10t14-1 9-5q9-7 9-18v-66h-29q-12 0-19 6-10 11-10 23m365-246v323q0 19-17 26-5 3-12 3t-11-2-8-5q-4-4-6-7t-3-7-5-2-5 2l-4 4q-16 17-38 17-26 0-45-22-19-21-19-51v-120q0-30 21-51t51-22h44v-86q0-12 6-18 10-11 22-11 13 0 19 6 10 11 10 23m-115 159v122q0 13 8 20t17 6 15-1 9-5q9-7 9-18v-153h-29q-12 0-19 7-10 10-10 22m192 120v-126q0-33 22-52 24-19 65-19 40 0 64 19 22 20 22 53v126q0 51-50 67-16 5-36 5t-37-5-27-15q-23-19-23-53m115 2v-126q0-13-6-19-10-11-22-11-13 0-19 7-11 10-11 23v126q0 13 9 20t20 6 21-6 8-20m319-219q-4 4-6 10t-3 12 3 12 7 10q11 12 11 21t-3 13-6 9q-8 8-19 8t-20-5-14-16q-12-21-12-54 0-33 24-52 23-20 65-20 41 0 65 20 22 19 22 52v197q0 33-23 53-23 19-64 19t-64-19q-22-19-22-52v-80q0-12 6-18 10-11 20-11t14 3 9 6q8 8 8 20v81q0 13 9 19t20 7 21-7 8-19v-198q0-12-8-21t-20-8-17 2-11 6m242 279q-6 6-12 8t-11 3-11-3-9-6q-9-8-9-20v-212q0-12 6-19 11-10 20-10t14 2 8 4q4 4 6 8t4 6 4 2 5-2 6-6q15-14 32-14t30 5 20 16q19 21 19 51v169q0 19-18 26-5 3-11 3t-11-3-10-6q-8-8-8-20v-168q0-12-6-19-10-11-22-11-20 0-28 16-2 4-2 11v171q0 12-6 18m328-39q9 0 15 7t7 16-7 15-15 7h-58q-30 0-51-22t-21-51v-119q0-34 22-53 24-20 65-20 40 0 64 20 22 20 22 53v68q0 13-6 19-10 10-23 10h-86v22q0 12 6 18 11 10 23 10h43m-14-93v-54q0-13-6-19-11-11-23-11-12 0-19 7-10 10-10 23v54h58" />
</svg>