<svg id="fnt-Suranna" viewBox="0 0 1618 1000" xmlns="http://www.w3.org/2000/svg"><path id="suranna" class="f" d="M183 355l29-13h9v82h-9l-28-58q-30-14-64-14t-55 17-19 43 14 37 41 19l71 19q34 8 51 30t17 64-27 69-69 25-77-22l-33 17h-8v-101h8l34 73q33 23 71 23t61-18 23-52q0-24-14-38t-48-22l-65-16q-34-9-52-32t-18-51q0-42 25-68t64-26 68 13m79 107h68v151q0 43 33 43 34 0 66-41v-141l-28-4v-8h67v193l28 3v9h-67v-38q-32 41-77 41-29 0-45-14t-17-42v-140l-28-4v-8m350 205h-99v-9l28-3v-181l-28-4v-8h68v30q25-34 56-34 15 0 26 8t12 20-7 19-19 7-19-9q5-6 4-13t-5-11-12-4q-15 0-36 32v148l31 3v9m209-39q-11 20-30 31t-44 11-40-13-16-36 10-36q27-36 105-36h15v-38q0-44-40-44-18 0-29 9t-12 19 11 14q0 10-8 18t-17 7q-10 0-17-7t-8-19q0-20 23-35t57-15q80 0 79 61v121q0 18 15 18t15-17h8q0 13-9 21t-26 8-30-10-12-32m0-29v-40h-15q-30 0-51 15t-21 44q0 16 9 25t26 9 33-14 19-39m251 56v-139q0-44-33-44t-65 47v136l23 3v9h-91v-9l28-3v-181l-28-4v-8h68v42q32-46 77-46 28 0 45 15t16 42v140l27 3v9h-90v-9l23-3m250 0v-139q0-44-34-44t-65 47v136l24 3v9h-91v-9l27-3v-181l-27-4v-8h67v42q32-46 77-46 28 0 45 15t17 42v140l26 3v9h-90v-9l24-3m217-27q-10 20-29 31t-44 11-41-13-15-36 9-36q27-36 106-36h14v-38q0-44-40-44-18 0-29 9t-11 19 10 14q0 10-7 18t-18 7q-9 0-17-7t-7-19q0-20 23-35t56-15q80 0 80 61v121q0 18 15 18t14-17h9q0 13-9 21t-27 8-29-10-13-32m0-29v-40h-14q-31 0-52 15t-20 44q0 16 8 25t26 9 34-14 18-39" />
</svg>