<svg id="fnt-Suravaram" viewBox="0 0 1976 1000" xmlns="http://www.w3.org/2000/svg"><path id="suravaram" class="f" d="M62 462q-3 7-3 15 0 16 12 26t32 18q43 16 66 34t22 45q0 52-52 69-16 4-31 4-58 0-91-29l7-46 27 1q0 27 7 40 13 13 46 13 20 0 35-11t15-30q0-28-41-47-12-7-27-12t-27-12q-38-21-38-57 0-45 53-61 18-5 40-5t42 5 25 12q0 2 0 4l-1 7q-2 20-5 37l-22-2q0-24-9-33t-36-9q-35 0-46 24m274 44v-16q12-3 35-3t31 3v131q0 13 3 28h28v15q-21 5-41 5t-24-3-5-13v-6l-14 9q-21 15-52 15-50 0-50-55v-91q0-9-2-17-6-2-14-2h-14v-16q12-3 35-3t32 3v116q0 23 3 30 7 13 28 13t43-14q5-3 5-4 3-16 3-55v-51q0-10-2-17-6-2-15-2h-13m116 0v-16q12-3 35-3t32 3v41q16-24 24-31 17-15 34-15t28 5l-5 48h-15l-4-25q-10-1-15-1t-13 4-16 13q-17 19-17 41v57q0 16 4 21t17 6l1 15q-24-2-41-2t-39 2l1-15q15-2 18-5t3-18v-110q0-6-1-12-6-3-12-3h-19m211 113q0 30 34 30 17 0 41-18 3-23 3-48h-27q-25 0-38 9t-13 27m114-69v71q0 18 3 28h27v15q-19 6-55 5-10-1-12-7t-2-12l-1-3q-26 24-55 24-39 0-51-29-4-9-4-22 0-56 89-56h25v-12q0-26-6-34t-12-12-20-3q-27 0-48 35l-24-15q2-15 23-26t52-12q71 0 71 65m49-44l-3-16q10-3 42-3t48 3l3 16h-9q-9 0-14 3 1 4 3 7t14 41 33 83l44-116q1-4 2-8t2-7q-4-3-13-3h-9l1-16q10-3 38-3t38 3v16h-9q-9 0-16 3-6 7-28 63t-28 67l-13 29h-19q-9 0-11-1t-4-4l-59-139-3-8q-2-3-5-7-6-3-15-3h-10m275 113q0 30 34 30 17 0 41-18 3-23 3-48h-27q-25 0-38 9t-13 27m114-69v71q0 18 3 28h27v15q-19 6-56 5-9-1-11-7t-2-12l-1-3q-26 24-55 24-39 0-52-29-4-9-4-22 0-56 90-56h25v-12q0-26-6-34t-12-12-21-3q-26 0-47 35l-24-15q2-15 23-26t52-12q71 0 71 65m56-44v-16q13-3 36-3t32 3v41q16-24 24-31 17-15 34-15t27 5l-4 48h-15l-4-25q-10-1-15-1t-14 4-15 13q-17 19-17 41v57q0 16 4 21t17 6l1 15q-24-2-42-2t-38 2l1-15q15-2 18-5t3-18v-110q0-6-1-12-7-3-12-3h-20m212 113q0 30 34 30 17 0 41-18 3-23 3-48h-27q-25 0-38 9t-13 27m114-69v71q0 18 3 28h27v15q-19 6-56 5-9-1-11-7t-2-12l-1-3q-26 24-55 24-39 0-51-29-5-9-5-22 0-56 90-56h25v-12q0-26-6-34t-12-12-21-3q-26 0-47 35l-24-15q2-15 23-26t52-12q71 0 71 65m311 104l1-35 0-65q0-28-5-35t-9-10-14-3q-23 0-41 22-5 6-7 11v87q0 16 3 20t19 8l2 15q-21-2-43-2t-40 2l1-15q14-2 18-5t3-7 0-9v-79q0-29-4-36-7-12-23-12t-30 11-18 22v87q0 16 3 21t17 7l1 15q-19-2-41-2t-39 2l1-15q15-2 18-6t3-17v-108q0-8-1-14-6-3-15-3h-16v-16q12-3 35-3t33 3v22q30-27 65-27t45 31q12-14 22-20 21-11 45-11 49 0 49 54v82q0 16 2 28h25l2 16q-18 4-34 4t-22-1q-11-2-11-14" />
</svg>