<svg id="fnt-SUSE" viewBox="0 0 1144 1000" xmlns="http://www.w3.org/2000/svg"><path id="suse" class="f" d="M131 673q-37 0-65-14t-47-36l27-27q19 21 40 30t46 10q35 0 55-17t21-46q0-20-10-32t-26-20-36-13-38-11-36-16-26-27-9-42q0-31 14-54t41-35 61-12q32 0 57 10t41 29l-27 27q-15-15-32-22t-39-8q-33 0-54 17t-20 44q0 19 10 30t26 18 36 12 39 11 35 17 27 27 10 44q0 32-16 56t-42 37-63 13m312 0q-60 0-95-32t-36-93v-231h43v228q0 43 24 65t64 23q40 0 64-23t24-65v-228h42v231q0 41-16 69t-45 42-69 14m302 0q-37 0-65-14t-47-36l27-27q19 21 40 30t46 10q35 0 55-17t21-46q0-20-10-32t-26-20-36-13-38-11-36-16-26-27-9-42q0-31 14-54t41-35 61-12q32 0 57 10t41 29l-27 27q-15-15-32-22t-39-8q-33 0-54 17t-20 44q0 19 10 30t26 18 36 12 39 11 35 17 27 27 10 44q0 32-16 56t-42 37-63 13m398-6h-161q-24 0-40-16t-16-40v-239q0-24 16-40t40-15h161v39h-148q-11 0-19 7t-8 19v219q0 11 8 19t19 8h148v39m-10-157h-185v-37h185v37" />
</svg>