<svg id="fnt-Swanky and Moo Moo" viewBox="0 0 4044 1000" xmlns="http://www.w3.org/2000/svg"><path id="swanky-and-moo-moo" class="f" d="M9 612q0-5 1-9t4-8q9 6 14 12t8 11 6 10 11 7 22 6 37 2q5 0 13 0t20-1 21-4 20-6 14-11 6-14q0-2-1-4t0-3l-24-24-157-43q-4-1-7-3t-3-5-1-7v-7q0-13 9-23t23-16 31-10 35-7 31-2 22-1h5q4 0 8 0t8 0h5q5 2 5 5t1 8q0 6-9 10t-23 4-32 4-34 4-30 8-20 14l9 5 138 38q8 3 15 9t13 16 8 18 3 17q0 12-5 21t-14 15-19 10-22 5-22 3-20 1q-9 0-22 0t-27-2-27-4-24-10-16-15-7-24m242-79q0-6 4-12t11-7q9 0 13 8t5 17 1 20 0 17q0 4 1 12t3 17 3 17 2 12q1 0 4 0t4 1q9 0 15-6t11-13 7-18 7-18 9-13 12-6q11 0 18 6t13 14 12 19 13 19 16 14 19 6q0 0 3-1t4 0q4-7 9-19t9-26 9-29 9-27 10-20 9-8q0 0 0 0t2 0h0q1 1 2 2t3 3 3 3 2 2v1q0 1 0 1t0 1 0 1 0 1q-2 4-4 13t-6 19-7 23-7 23-6 19-4 13q-3 8-7 14-3 5-6 10t-5 4h-48q-6 0-12-4t-12-11-11-15-11-15-9-13-7-9q-11 7-16 14t-10 15-7 16-9 14-14 9-23 4q-5 0-10-9t-8-22-8-29-5-31-3-27-2-16m436 110q-8 0-16 2t-17 5-18 5-18 2q-14 0-27-4t-23-13-16-21-6-29q0-13 8-25t22-19 27-13 26-4q6 0 14 1t17 2 20 5 18 7 13 10 7 13q0 2-1 8t-2 13-1 13-1 9v3q0 11 5 16t12 8 15 2h15q8 0 10 0t2-1 3 0 9 0q7 0 10 2t3 11q0 8-5 11t-13 5-14 1-12-1q-11 0-21-4t-18-8-15-9-12-3m-112-48q0 12 5 19t13 10 16 4 18 1q4 0 12 0t17-3 16-4 8-8l9-38q1-4-1-7t-9-4-11-4-12-2-10-2-6 0q-9 0-20 1t-22 6-16 12-7 19m343-33q-17 0-30 6t-23 16-17 20-12 21-8 16-4 7q-13 0-18-7t-7-17 0-21 1-19v-9q0-6 0-12t0-12v-8q2-4 4-4t6-1q4 0 7 5t5 13 4 14 3 11q5-1 10-5t10-9 11-11 14-11 18-9 25-3q27 0 44 12t28 31 12 44 4 49q-15 0-23-5t-11-12-4-17-1-20-1-20-6-17-14-12-27-4m158 23q-3 0-6 1t-4 4v67q0 0-3 2t-6 3h-5q-4-2-8-3-2-2-4-4t-2-3v-57q-1 0-4-2t-6-4-6-5-3-5q0-6 5-12t9-10v-7q0-5 0-11t0-11v-6q0-15 0-26t-1-22-3-22-6-28q0-1 2-4t3-6 5-4 5 0q5 2 10 12t7 22 5 29 3 29 2 25 1 16q8-6 17-10t17-8 18-9 15-11q3-3 6-9t7-11 8-9 10-4q3 0 5 1t2 3 0 5v4q0 13-6 23t-17 19-22 15-22 10q20 23 38 39t36 27 43 18 55 12q6 0 8 2t2 7q0 0 0 3t-1 2q-9 3-15 4t-16 1q-11 0-24-1t-26-3-25-6-22-9-20-17-18-20-19-18-24-8m176 247q0-6 0-14t4-17 7-13 13-7q0 0 0 2t0 3q0 7-3 12t-2 14q0 14 5 25t14 20 20 15 25 11 26 6 24 2q16 0 28-6t19-14 13-21 7-25 4-26 2-25q0-2-1-12t-1-23-3-29-4-28-6-22-7-8q-10 0-19 2t-18 6-18 5-20 3q-2 0-6 0t-10-1-10 0-7 0q-10-4-17-12t-10-18-6-21-1-20q0-14 1-25t5-23q0-1 3-1t4 0q8 0 11 7t4 18 1 23 3 23 12 18 24 7q23 0 35-5t20-17 7-26-1-38q0-6 3-8t7-2q5 0 10 11t11 27 9 36 9 37 5 30 3 17q0 2 1 7t2 14 2 17 2 16 2 14 1 8v2q0 26-6 49t-19 42-33 29-48 11q-11 0-26-2t-29-6-28-10-25-16-17-21-7-27m532-189q-8 0-16 2t-17 5-17 5-19 2q-14 0-27-4t-23-13-16-21-6-29q0-13 9-25t21-19 27-13 27-4q5 0 13 1t18 2 19 5 18 7 13 10 7 13q0 2-1 8t-1 13-2 13-1 9v3q0 11 5 16t12 8 15 2h15q8 0 10 0t2-1 3 0 9 0q7 0 10 2t4 11q0 8-6 11t-13 5-14 1-11-1q-12 0-22-4t-18-8-15-9-12-3m-112-48q0 12 5 19t13 10 17 4 18 1q3 0 11 0t17-3 16-4 8-8l10-38q1-4-2-7t-8-4-12-4-12-2-10-2-6 0q-8 0-20 1t-21 6-17 12-7 19m343-33q-17 0-30 6t-23 16-17 20-12 21-8 16-4 7q-13 0-18-7t-7-17 0-21 1-19v-9q0-6 0-12t0-12v-8q2-4 4-4t6-1q4 0 7 5t5 13 4 14 3 11q6-1 11-5t10-9 11-11 13-11 19-9 24-3q27 0 45 12t27 31 13 44 3 49q-15 0-23-5t-11-12-4-17-1-20-1-20-6-17-14-12-27-4m271 90q-16 0-31 3t-31 2q-11 0-24 0t-24-2-25-5-20-10-15-17-6-24q0-18 10-30t23-21 31-11 33-4q20 0 41 7t40 17v-90q0-6 2-8t6-2q7 0 12 14t8 34 6 46 3 49 1 42 0 26q-8 0-13-3t-10-5-8-6-9-2m-147-53q0 10 6 16t14 10 19 6 22 2 20 1h16q1 0 9 0t18 0 17-3 8-7v-53q-6 6-10 8t-10 3q-1 0-6-3t-13-7-18-7-23-3q-8 0-20 1t-23 6-18 12-8 18m608 53q-1-4-2-13t-1-20-2-24-2-24-2-20-1-13q0-1-1-5t-1-8-4-7-6-4q-8 0-18 3t-21 7-22 5-19 3q-18 0-31-6t-26-14-26-14-29-6q0 29 2 56t3 55q0 3-1 6t0 7q0 4 0 8l-24 14-4-4q-1-1-1-6t-1-14-1-20-1-21-1-22-1-18v-6q0-5 0-11t0-14v-20q0-6 0-13t0-13v-8q1-4 5-5t8 0q0 0 3 0t4 1q17 11 31 22t31 19 32 13 37 5q10 3 22-1t23-10 21-14 17-12q5 0 9 3t7 8 6 9 2 10q0 5 1 15t3 22l6 54q1 12 2 22t2 15q0 5 2 8l3 9q2 4 4 9t1 7q0 4-3 6t-5 3-8 1h-6q-8 0-11-4t-5-11m51-43q0-17 6-34t17-32 26-24 35-10q27 0 46 6t30 16 17 28 5 41q0 2 0 6t-1 8 0 9 0 6q-3 12-13 20t-22 11-26 6-24 1q-15 0-32-2t-31-8-23-17-10-31m25-6q0 12 7 20t19 13 23 6 21 1 15 0 13-1 14-5 16-8q5-8 5-15t1-16q0-17-7-29t-17-21-26-11-32 1q-8 2-17 9t-17 17-13 20-5 19m180 6q0-17 6-34t17-32 26-24 34-10q28 0 46 6t31 16 16 28 6 41q0 2-1 6t0 8 0 9 0 6q-4 12-13 20t-22 11-26 6-24 1q-16 0-32-2t-31-8-24-17-9-31m24-6q0 12 8 20t18 13 23 6 22 1 15 0 13-1 13-5 16-8q5-8 6-15t0-16q0-17-6-29t-17-21-26-11-33 1q-7 2-16 9t-18 17-13 20-5 19m578 49q-1-4-1-13t-2-20-1-24-3-24-2-20-1-13q0-1 0-5t-2-8-4-7-6-4q-7 0-18 3t-21 7-21 5-20 3q-17 0-31-6t-26-14-25-14-29-6q0 29 2 56t2 55q0 3 0 6t0 7q-1 4-1 8l-23 14-5-4q0-1-1-6t0-14-1-20-1-21-1-22-1-18v-6q0-5 0-11t-1-14v-20q0-6 1-13t0-13v-8q1-4 5-5t7 0q1 0 4 0t3 1q17 11 32 22t30 19 32 13 37 5q10 3 22-1t23-10 21-14 17-12q5 0 9 3t8 8 5 9 2 10q0 5 1 15t3 22l6 54q1 12 3 22t1 15q1 5 2 8l4 9q2 4 3 9t2 7q0 4-3 6t-6 3-8 1h-6q-7 0-10-4t-6-11m52-43q0-17 6-34t16-32 27-24 34-10q28 0 46 6t30 16 17 28 5 41q0 2 0 6t0 8 0 9-1 6q-3 12-13 20t-22 11-25 6-25 1q-15 0-31-2t-31-8-24-17-9-31m24-6q0 12 8 20t18 13 23 6 21 1 16 0 13-1 13-5 16-8q5-8 5-15t1-16q0-17-6-29t-17-21-26-11-33 1q-7 2-17 9t-17 17-13 20-5 19m180 6q0-17 6-34t17-32 26-24 35-10q27 0 46 6t30 16 17 28 5 41q0 2 0 6t-1 8 0 9 0 6q-3 12-13 20t-22 11-26 6-24 1q-15 0-32-2t-31-8-23-17-10-31m25-6q0 12 7 20t19 13 23 6 21 1 15 0 13-1 14-5 16-8q5-8 5-15t1-16q0-17-7-29t-17-21-26-11-32 1q-8 2-17 9t-17 17-13 20-5 19" />
</svg>