<svg id="fnt-Syncopate" viewBox="0 0 3859 1000" xmlns="http://www.w3.org/2000/svg"><path id="syncopate" class="f" d="M327 346v35q-9-5-22-10t-28-10-36-6-44-3q-30 0-53 3t-39 11-25 18-8 26q0 13 8 22t21 17 32 13 39 12 42 10 42 12 38 14 32 18 22 23 7 31q0 18-7 33t-19 24-28 17-35 10-38 6-39 1q-43 0-79-6t-68-17v-38q34 20 71 27t77 8q29 0 54-4t42-11 28-19 9-29q0-14-7-25t-22-18-32-14-38-12-42-10-42-11-38-13-32-17-22-23-7-30q0-17 6-30t17-22 26-16 32-11 35-5 37-2q19 0 37 2t33 4 32 7 31 8m465-15v213q0 33-15 57t-42 40-64 24-79 7q-47 0-86-6t-68-16v-36q16 7 33 12t35 10 40 7 47 2q35 0 65-7t54-19 36-32 13-43v-63q-11 15-28 30t-38 26-45 17-52 7q-31 0-54-6t-42-15-30-24-19-30-11-34-4-36v-85h31v78q0 28 7 51t22 39 41 26 62 9q28 0 52-8t44-21 36-30 28-36v-108h31m469 336h-31v-222q0-28-7-46t-21-28-34-15-44-4q-29 0-56 7t-52 18-45 23-35 25v242h-30v-336h30v59q17-11 38-23t44-21 51-17 57-6q34 0 59 8t42 24 25 36 9 48v228m455-27q-18 7-35 13t-35 11-40 7-44 2q-30 0-57-5t-52-14-43-25-33-33-21-44-7-53 7-53 21-43 33-34 43-24 51-15 58-5q24 0 44 3t40 6 35 11 35 13v37q-14-9-30-17t-34-14-39-9-45-3q-49 0-84 10t-59 30-34 46-11 61 11 61 34 46 59 30 84 10q24 0 45-3t40-10 34-13 29-16v36m493-141q0 45-16 78t-45 54-67 32-84 10q-45 0-84-10t-68-32-45-54-17-78q0-30 8-54t21-44 33-34 43-23 51-14 58-5q45 0 84 10t67 32 45 54 16 78m-31 0q0-35-12-63t-34-46-57-28-78-10-79 10-57 28-35 47-11 62q0 36 11 63t35 46 57 28 79 10 78-10 57-28 34-46 12-63m448-65q0 25-8 45t-26 32-45 20-67 7h-151v129h-30v-336h181q39 0 67 7t45 20 26 32 8 44m-32 0q0-24-8-38t-24-23-42-11-60-2h-131v149h131q14 0 29 0t30-1 28-6 24-12 17-22 6-34m448 233h-30v-37q-18 9-40 17t-47 14-51 9-51 3q-33 0-59-6t-44-17-28-29-10-40q0-22 11-39t33-31 50-21 67-15 79-11 90-6v-26q0-16-6-28t-16-20-25-15-31-10-34-5-37-2q-25 0-45 3t-38 6-33 10-33 12v-35q34-9 72-16t82-7q37 0 69 6t55 20 37 35 13 53v228m-30-69v-113q-80 4-137 12t-92 20-53 27-16 36q0 16 8 28t23 21 38 13 49 4q16 0 33-2t35-5 33-8 32-10 26-11 21-12m424-239h-153v308h-30v-308h-153v-28h336v28m394 255v35q-21 6-38 11t-35 7-35 4-39 2q-49 0-89-12t-68-35-43-54-15-71q0-38 15-70t40-55 63-36 80-12q46 0 82 12t60 35 37 55 12 73v7h-357q2 31 15 57t37 42 59 27 81 10q20 0 40-3t39-7 34-10 25-12m-330-130h327q-1-26-11-49t-29-42-50-28-71-10q-40 0-69 10t-50 28-32 41-15 50" />
</svg>