<svg id="fnt-Syne" viewBox="0 0 1050 1000" xmlns="http://www.w3.org/2000/svg"><path id="syne" class="f" d="M18 561h36q2 21 13 38t30 26 45 9q23 0 38-7t23-18 8-28q0-17-8-27t-23-17-36-13q-19-6-39-14t-38-20-27-28-11-39q0-22 12-42t36-32 58-12q52 0 78 28t25 76h-36q-1-36-20-51t-49-16q-26 0-45 12t-19 37q0 11 4 19t14 15 27 14 41 15q16 5 33 12t31 17 23 27 9 41q0 23-12 43t-35 33-61 13q-32 0-55-9t-37-23-22-29-10-29-1-21m360 106l-97-250h43l89 240-35 10m93-250h42l-139 350h-44l61-135 80-215m85 250v-250h40v250h-40m126-255q20 0 36 6t27 17 17 28 6 37v167h-40v-157q0-29-14-44t-40-14q-21 0-38 10t-29 29-14 42l0-29q2-21 10-38t19-29 27-19 33-6m328 174h37q-4 25-18 44t-36 30-51 12q-35 0-63-17t-44-46-16-67 15-67 44-46 62-17q36 0 61 16t38 47 10 77h-190q2 25 13 43t29 29 41 10q26 0 43-13t25-35m-69-137q-31 0-52 18t-28 49h147q-2-33-22-50t-45-17" />
</svg>