<svg id="fnt-Jacquard 12 Charted" viewBox="0 0 4741 1000" xmlns="http://www.w3.org/2000/svg"><path id="jacquard-12-charted" class="f" d="M-2 762q-12 0-21-2t-16-5v-38q8 2 17 4t19 1q13 0 24-5t18-17 7-35v-355h45v351q0 35-11 57t-33 33-49 11m283-368q49 0 72 22t24 68v183h-32l-9-38h-2q-11 14-24 24t-28 14-38 5q-24 0-43-9t-30-26-11-45q0-40 31-62t97-23l46-2v-16q0-33-15-46t-41-13q-21 0-40 6t-35 14l-14-33q18-9 42-16t50-7m52 142l-39 1q-50 2-70 16t-19 40q0 22 14 33t35 10q34 0 57-19t22-57v-24m234 136q-35 0-63-15t-44-45-15-78q0-49 16-80t45-46 64-14q21 0 40 4t31 10l-14 37q-12-5-28-9t-30-4q-27 0-44 12t-26 34-9 56q0 32 9 54t25 34 43 12q22 0 38-5t31-11v39q-13 7-30 11t-39 4m311 115v-115q0-9 1-21t2-20h-3q-12 17-32 29t-52 12q-49 0-79-35t-30-104q0-46 14-77t39-47 57-15q32 0 52 12t32 29h2l6-36h35v388h-44m-76-152q28 0 44-10t25-31 8-51v-9q0-51-17-78t-61-26q-36 0-53 28t-18 76 18 74 54 27m385-236h44v268h-36l-6-36h-2q-9 14-22 23t-30 13-33 5q-32 0-54-11t-33-31-11-56v-175h45v172q0 32 14 48t45 16q30 0 47-11t25-33 7-53v-139m231-5q49 0 72 22t24 68v183h-32l-9-38h-2q-11 14-24 24t-28 14-38 5q-24 0-43-9t-30-26-11-45q0-40 31-62t97-23l46-2v-16q0-33-15-46t-41-13q-21 0-40 6t-35 14l-14-33q18-9 42-16t50-7m52 142l-39 1q-50 2-70 16t-19 40q0 22 14 33t35 10q34 0 57-19t22-57v-24m252-142q7 0 16 0t15 3l-5 40q-7-1-15-2t-14-1q-16 0-30 6t-25 18-17 29-6 37v143h-44v-268h36l5 49h2q8-15 20-28t28-19 34-7m176 278q-50 0-80-35t-30-104 30-104 81-35q21 0 36 5t27 14 20 20h3q-1-6-2-19t-1-20v-107h44v380h-36l-6-36h-2q-8 11-20 20t-27 15-37 6m7-37q43 0 60-23t17-70v-8q0-50-16-77t-61-27q-36 0-54 28t-17 76q0 48 17 75t54 26m471-325v357h-43v-250q0-14 0-24t1-19 1-18q-8 8-15 13t-16 14l-38 31-23-29 96-75h37m368 317v40h-236v-37l94-94q27-27 45-48t28-42 10-44q0-29-18-45t-45-15q-26 0-46 9t-40 25l-24-29q14-12 31-22t36-15 43-5q33 0 57 11t37 33 14 51q0 28-12 52t-32 48-48 51l-74 74v2h180m358-283q-29 0-52 10t-39 28-24 46-9 60q0 44 14 77t41 50 68 17q24 0 45-4t41-10v39q-20 8-42 11t-50 4q-55 0-91-23t-55-64-18-97q0-41 11-74t33-58 54-38 73-13q28 0 53 5t46 16l-18 38q-17-8-37-14t-44-6m201-57v111q0 10-1 20t-2 18h3q9-14 22-23t29-14 33-5q32 0 54 10t33 32 11 56v175h-44v-172q0-32-14-48t-46-16q-30 0-47 11t-24 33-7 53v139h-44v-380h44m366 107q49 0 73 22t23 68v183h-32l-8-38h-2q-12 14-24 24t-28 14-38 5q-24 0-44-9t-30-26-11-45q0-40 32-62t97-23l45-2v-16q0-33-14-46t-41-13q-21 0-40 6t-36 14l-13-33q17-9 41-16t50-7m53 142l-40 1q-50 2-69 16t-19 40q0 22 13 33t36 10q34 0 56-19t23-57v-24m251-142q8 0 16 0t16 3l-6 40q-6-1-14-2t-15-1q-15 0-29 6t-25 18-18 29-6 37v143h-44v-268h36l5 49h2q9-15 21-28t27-19 34-7m171 242q10 0 21-2t17-4v34q-7 3-20 5t-25 3q-21 0-39-8t-29-25-11-50v-156h-38v-21l39-18 17-57h26v62h78v34h-78v155q0 24 12 36t30 12m195-242q34 0 59 15t38 42 13 64v26h-183q1 46 23 69t62 24q26 0 45-5t41-13v38q-20 9-40 13t-48 5q-38 0-67-16t-46-46-16-75q0-44 15-76t41-48 63-17m-1 36q-31 0-50 20t-21 56h136q0-23-7-40t-21-27-37-9m274 242q-50 0-80-35t-30-104 30-104 81-35q21 0 36 5t27 14 20 20h3q-1-6-2-19t-1-20v-107h44v380h-36l-6-36h-2q-8 11-20 20t-27 15-37 6m7-37q43 0 60-23t17-70v-8q0-50-16-77t-61-27q-36 0-54 28t-17 76q0 48 17 75t54 26" />
</svg>