<svg id="fnt-Jacquarda Bastarda 9" viewBox="0 0 4970 1000" xmlns="http://www.w3.org/2000/svg"><path id="jacquarda-bastarda-9" class="f" d="M-2 762q-12 0-21-2t-16-5v-38q8 2 17 4t19 1q13 0 24-5t18-17 7-35v-355h45v351q0 35-11 57t-33 33-49 11m283-368q49 0 72 22t24 68v183h-32l-9-38h-2q-11 14-24 24t-28 14-38 5q-24 0-43-9t-30-26-11-45q0-40 31-62t97-23l46-2v-16q0-33-15-46t-41-13q-21 0-40 6t-35 14l-14-33q18-9 42-16t50-7m52 142l-39 1q-50 2-70 16t-19 40q0 22 14 33t35 10q34 0 57-19t22-57v-24m234 136q-35 0-63-15t-44-45-15-78q0-49 16-80t45-46 64-14q21 0 40 4t31 10l-14 37q-12-5-28-9t-30-4q-27 0-44 12t-26 34-9 56q0 32 9 54t25 34 43 12q22 0 38-5t31-11v39q-13 7-30 11t-39 4m311 115v-115q0-9 1-21t2-20h-3q-12 17-32 29t-52 12q-49 0-79-35t-30-104q0-46 14-77t39-47 57-15q32 0 52 12t32 29h2l6-36h35v388h-44m-76-152q28 0 44-10t25-31 8-51v-9q0-51-17-78t-61-26q-36 0-53 28t-18 76 18 74 54 27m385-236h44v268h-36l-6-36h-2q-9 14-22 23t-30 13-33 5q-32 0-54-11t-33-31-11-56v-175h45v172q0 32 14 48t45 16q30 0 47-11t25-33 7-53v-139m231-5q49 0 72 22t24 68v183h-32l-9-38h-2q-11 14-24 24t-28 14-38 5q-24 0-43-9t-30-26-11-45q0-40 31-62t97-23l46-2v-16q0-33-15-46t-41-13q-21 0-40 6t-35 14l-14-33q18-9 42-16t50-7m52 142l-39 1q-50 2-70 16t-19 40q0 22 14 33t35 10q34 0 57-19t22-57v-24m252-142q7 0 16 0t15 3l-5 40q-7-1-15-2t-14-1q-16 0-30 6t-25 18-17 29-6 37v143h-44v-268h36l5 49h2q8-15 20-28t28-19 34-7m176 278q-50 0-80-35t-30-104 30-104 81-35q21 0 36 5t27 14 20 20h3q-1-6-2-19t-1-20v-107h44v380h-36l-6-36h-2q-8 11-20 20t-27 15-37 6m7-37q43 0 60-23t17-70v-8q0-50-16-77t-61-27q-36 0-54 28t-17 76q0 48 17 75t54 26m307-241q49 0 73 22t23 68v183h-32l-8-38h-2q-12 14-24 24t-28 14-38 5q-24 0-44-9t-30-26-11-45q0-40 32-62t97-23l45-2v-16q0-33-14-46t-41-13q-21 0-40 6t-36 14l-13-33q17-9 41-16t50-7m53 142l-40 1q-50 2-69 16t-19 40q0 22 13 33t36 10q34 0 56-19t23-57v-24m262-226h102q67 0 101 19t35 69q0 21-8 37t-23 27-37 15v3q22 3 40 13t29 27 11 45q0 33-15 55t-43 35-66 12h-126v-357m45 152h66q46 0 63-15t17-44q0-29-21-42t-66-13h-59v114m69 37h-69v130h72q48 0 66-19t19-48q0-19-9-33t-27-22-52-8m307-105q49 0 72 22t24 68v183h-32l-9-38h-2q-11 14-24 24t-28 14-38 5q-24 0-43-9t-30-26-11-45q0-40 31-62t97-23l46-2v-16q0-33-15-46t-41-13q-21 0-40 6t-35 14l-14-33q18-9 42-16t50-7m52 142l-39 1q-50 2-70 16t-19 40q0 22 14 33t35 10q34 0 57-19t22-57v-24m301 57q0 26-13 43t-37 27-57 9q-28 0-48-5t-36-12v-40q16 8 39 14t46 7q34 0 49-11t15-28q0-10-6-18t-20-16-40-18q-26-10-45-20t-28-24-10-36q0-34 27-53t73-18q25 0 46 4t40 14l-15 35q-17-7-36-12t-38-5q-27 0-41 8t-14 24q0 11 6 19t22 15 41 17q25 10 43 20t28 24 9 36m155 43q10 0 20-2t17-4v34q-7 3-20 5t-25 3q-21 0-39-8t-28-25-11-50v-156h-38v-21l38-18 18-57h26v62h77v34h-77v155q0 24 11 36t31 12m192-242q49 0 73 22t23 68v183h-32l-8-38h-2q-12 14-24 24t-28 14-38 5q-24 0-44-9t-30-26-11-45q0-40 32-62t97-23l45-2v-16q0-33-14-46t-41-13q-21 0-40 6t-36 14l-13-33q17-9 41-16t50-7m53 142l-40 1q-50 2-69 16t-19 40q0 22 13 33t36 10q34 0 56-19t23-57v-24m251-142q8 0 16 0t16 3l-6 40q-6-1-14-2t-15-1q-15 0-29 6t-25 18-18 29-6 37v143h-44v-268h36l5 49h2q9-15 21-28t27-19 34-7m177 278q-50 0-80-35t-30-104 30-104 80-35q21 0 37 5t27 14 19 20h3q0-6-2-19t-1-20v-107h44v380h-35l-7-36h-2q-8 11-19 20t-28 15-36 6m7-37q42 0 59-23t18-70v-8q0-50-17-77t-61-27q-35 0-53 28t-18 76q0 48 18 75t54 26m307-241q49 0 72 22t24 68v183h-32l-9-38h-2q-11 14-24 24t-28 14-38 5q-24 0-43-9t-30-26-11-45q0-40 31-62t97-23l46-2v-16q0-33-15-46t-41-13q-21 0-40 6t-35 14l-14-33q18-9 42-16t50-7m52 142l-39 1q-50 2-70 16t-19 40q0 22 14 33t35 10q34 0 57-19t22-57v-24m474-74q0 31-4 61t-15 57-29 47-47 33-69 12q-10 0-23-2t-22-3v-38q9 3 21 5t23 2q35 0 58-12t36-31 20-46 7-55h-3q-8 11-19 21t-28 15-38 5q-31 0-54-13t-36-36-13-59q0-37 14-64t40-42 60-14q26 0 48 9t38 30 26 49 9 69m-121-120q-31 0-51 20t-19 63q0 34 16 54t52 20q24 0 42-10t27-25 10-31-5-32-14-30-24-21-34-8" />
</svg>