<svg id="fnt-Jaro" viewBox="0 0 835 1000" xmlns="http://www.w3.org/2000/svg"><path id="jaro" class="f" d="M74 708h-58q-6 0-6-6v-40q0-4 3-7l37-37q3-3 3-8v-270q0-7 6-7h71q6 0 6 7v305q0 2-1 4t-2 4l-52 52q-3 3-7 3m223-41h-39q-5 0-10-5l-50-50q-4-4-4-10v-146q0-6 4-10l50-50q5-4 10-4h134q6 0 6 6v262q0 7-6 7h-52q-3 0-5-2t-3-3l-13-12-12 12q-4 5-10 5m-9-59h17q8 0 11-3t3-11v-144h-31q-9 0-12 3t-3 12v129q0 8 3 11t12 3m242 59h-67q-6 0-6-7v-262q0-6 6-6h38q5 0 8 4l25 28 27-29q3-3 7-3h27q6 0 6 6v54q0 4 0 5t-3 3l-62 46v154q0 7-6 7m239 0h-75q-6 0-10-5l-50-50q-5-4-5-10v-146q0-6 5-10l50-50q4-4 10-4h75q6 0 10 4l50 50q5 4 5 10v146q0 6-5 10l-50 50q-4 5-10 5m-46-59h17q8 0 11-3t3-11v-129q0-9-3-12t-11-3h-17q-8 0-11 3t-3 12v129q0 8 3 11t11 3" />
</svg>