<svg id="fnt-Jersey 15 Charted" viewBox="0 0 4074 1000" xmlns="http://www.w3.org/2000/svg"><path id="jersey-15-charted" class="f" d="M-2 762q-12 0-21-2t-16-5v-38q8 2 17 4t19 1q13 0 24-5t18-17 7-35v-355h45v351q0 35-11 57t-33 33-49 11m285-368q34 0 59 15t38 42 13 64v26h-183q1 46 23 69t62 24q26 0 45-5t41-13v38q-20 9-40 13t-48 5q-38 0-67-16t-46-46-16-75q0-44 15-76t41-48 63-17m-1 36q-31 0-50 20t-21 56h136q0-23-7-40t-21-27-37-9m304-36q8 0 16 0t16 3l-6 40q-6-1-14-2t-15-1q-15 0-29 6t-25 18-18 29-6 37v143h-44v-268h36l5 49h2q9-15 21-28t27-19 34-7m256 199q0 26-13 43t-37 27-57 9q-28 0-48-5t-36-12v-40q16 8 39 14t46 7q34 0 49-11t15-28q0-10-6-18t-20-16-40-18q-26-10-45-20t-28-24-10-36q0-34 27-53t73-18q25 0 46 4t40 14l-15 35q-17-7-36-12t-38-5q-27 0-41 8t-14 24q0 11 6 19t22 15 41 17q25 10 43 20t28 24 9 36m169-199q34 0 59 15t38 42 13 64v26h-183q1 46 23 69t62 24q26 0 45-5t41-13v38q-20 9-40 13t-48 5q-38 0-67-16t-46-46-16-75q0-44 15-76t41-48 63-17m-1 36q-31 0-50 20t-21 56h136q0-23-7-40t-21-27-37-9m245 238l-108-269h47l58 152q5 14 9 26t8 24 6 23h2q3-12 9-33t14-40l54-152h48l-116 305q-9 25-22 43t-31 29-44 11q-12 0-21-2t-16-2v-35q6 1 13 2t17 1q15 0 26-6t20-17 13-25l14-35m454-358v357h-43v-250q0-14 0-24t1-19 1-18q-8 8-14 13t-17 14l-38 31-23-29 97-75h36m246 138q37 0 64 12t41 36 15 57q0 37-16 63t-46 41-71 15q-28 0-52-5t-41-15v-41q18 11 44 17t49 6q27 0 46-8t31-26 11-43q0-35-21-54t-68-18q-14 0-32 2t-29 5l-22-14 13-168h179v40h-141l-9 103q9-1 23-3t32-2m480-104q-28 0-51 10t-39 28-25 46-8 60q0 44 13 77t41 50 69 17q23 0 44-4t41-10v39q-20 8-41 11t-51 4q-54 0-91-23t-55-64-18-97q0-41 11-74t33-58 54-38 74-13q27 0 53 5t45 16l-18 38q-16-8-37-14t-44-6m201-57v111q0 10-1 20t-1 18h3q8-14 21-23t29-14 33-5q33 0 54 10t33 32 11 56v175h-43v-172q0-32-15-48t-45-16q-30 0-47 11t-25 33-7 53v139h-44v-380h44m367 107q49 0 72 22t24 68v183h-32l-9-38h-2q-11 14-24 24t-28 14-38 5q-24 0-43-9t-30-26-11-45q0-40 31-62t97-23l46-2v-16q0-33-15-46t-41-13q-21 0-40 6t-35 14l-14-33q18-9 42-16t50-7m52 142l-39 1q-50 2-70 16t-19 40q0 22 14 33t35 10q34 0 57-19t22-57v-24m252-142q7 0 16 0t15 3l-5 40q-7-1-15-2t-14-1q-16 0-30 6t-25 18-17 29-6 37v143h-44v-268h36l5 49h2q8-15 20-28t28-19 34-7m171 242q10 0 20-2t17-4v34q-7 3-20 5t-25 3q-21 0-39-8t-28-25-11-50v-156h-38v-21l38-18 18-57h26v62h77v34h-77v155q0 24 11 36t31 12m194-242q35 0 59 15t38 42 14 64v26h-184q1 46 23 69t63 24q25 0 45-5t41-13v38q-21 9-41 13t-47 5q-38 0-68-16t-45-46-16-75q0-44 14-76t42-48 62-17m0 36q-32 0-50 20t-22 56h137q0-23-7-40t-22-27-36-9m274 242q-50 0-80-35t-30-104 30-104 80-35q21 0 37 5t27 14 19 20h3q0-6-2-19t-1-20v-107h44v380h-35l-7-36h-2q-8 11-19 20t-28 15-36 6m7-37q42 0 59-23t18-70v-8q0-50-17-77t-61-27q-35 0-53 28t-18 76q0 48 18 75t54 26" />
</svg>