<svg id="fnt-JetBrains Mono" viewBox="0 0 4159 1000" xmlns="http://www.w3.org/2000/svg"><path id="jetbrains-mono" class="f" d="M135 672q-52 0-82-30t-30-80h45q0 33 17 51t50 19 50-19 18-51v-219h-88v-41h133v260q0 51-31 80t-82 30m315 0q-32 0-57-13t-37-37-13-55v-75q0-32 13-56t37-36 57-13 57 13 37 36 14 56v48h-171v27q0 32 16 49t47 18q26 0 42-10t20-27h45q-5 34-34 54t-73 21m67-166l-3 4v-18q0-33-17-50t-47-18q-30 0-47 18t-16 50v14h130m338 161h-75q-35 0-55-19t-20-54v-161h-77v-41h77v-78h45v78h110v41h-110v161q0 32 30 32h75v41m203 0h-111v-365h103q50 0 78 25t29 69q0 25-11 44t-30 28-46 10v-8q29 0 50 11t33 33 12 51q0 31-13 54t-37 35-57 13m-67-171v130h62q31 0 49-17t19-45q0-30-19-49t-49-19h-62m0-154v115h59q29 0 45-15t17-42-16-42-46-16h-59m310 325h-45v-275h44v52h10l-14 33q0-45 19-68t57-22q44 0 69 27t26 74v16h-45v-12q0-33-16-50t-44-17q-29 0-45 17t-16 50v175m325 5q-43 0-68-23t-25-60q0-38 25-60t67-22h85v-28q0-25-15-39t-43-14q-25 0-41 10t-19 28h-45q4-35 33-56t73-21q47 0 75 24t27 67v189h-44v-53h-7l7-7q0 30-23 47t-62 18m11-36q32 0 53-16t20-41v-39h-84q-22 0-35 13t-13 34q0 23 15 36t44 13m441 31h-235v-41h97v-193h-85v-41h130v234h93v41m-120-325q-17 0-26-8t-10-23q0-15 10-24t26-9 26 9 9 24q0 14-9 23t-26 8m233 325h-45v-275h45v52h10l-10 11q0-33 20-51t54-17q41 0 66 25t24 70v185h-45v-180q0-30-16-46t-42-15q-28 0-45 17t-16 49v175m372 4h-21q-28 0-49-9t-33-25-15-38h45q3 15 16 23t36 9h21q26 0 39-11t13-29q0-17-12-28t-34-13l-37-6q-41-7-61-26t-19-53q0-37 23-57t71-20h19q39 0 63 18t29 50h-45q-3-13-15-21t-32-7h-19q-26 0-38 9t-11 29q0 17 10 25t31 11l37 6q45 7 65 26t20 55q0 38-24 60t-73 22m519-4h-44v-365h59l38 118q6 16 10 31t7 25q2-9 6-25t9-32l36-117h59v365h-44v-133q0-22 2-50t4-57 5-56 5-47l-59 183h-48l-59-183q2 20 5 45t4 55 4 57 1 53v133m368 4q-33 0-57-13t-37-36-13-56v-73q0-33 13-57t37-36 57-12 57 12 37 36 14 56v74q0 32-14 56t-37 36-57 13m0-40q30 0 46-17t17-48v-73q0-32-17-49t-46-16q-29 0-46 16t-16 49v73q0 32 16 48t46 17m241 36h-45v-275h45v52h10l-10 11q0-33 20-51t54-17q41 0 66 25t24 70v185h-45v-180q0-30-16-46t-42-15q-28 0-45 17t-16 49v175m359 4q-33 0-57-13t-37-36-13-56v-73q0-33 13-57t37-36 57-12 57 12 37 36 14 56v74q0 32-14 56t-37 36-57 13m0-40q30 0 46-17t17-48v-73q0-32-17-49t-46-16q-29 0-46 16t-16 49v73q0 32 16 48t46 17" />
</svg>