<svg id="fnt-Joan" viewBox="0 0 963 1000" xmlns="http://www.w3.org/2000/svg"><path id="joan" class="f" d="M34 810l-11-12q10-8 21-23t22-35 17-44q3-10 4-20t1-19v-321q-11-5-24-6t-20-2v-15h132v15q-7 0-20 2t-24 6v331q-8 33-22 58t-31 43-28 28-17 14m300-139q-32 0-58-16t-42-42-16-59 15-60 42-43 58-16q33 0 59 16t42 43 15 57q0 33-15 60t-41 43-59 17m8-22q20 0 34-12t21-32 8-40q0-27-11-52t-28-41-41-16q-19 0-33 12t-22 31-8 41q0 26 11 51t28 42 41 16m195 22q-26 0-43-17t-17-43q0-9 2-18t5-16q5-2 18-8t32-11 35-13 27-9v-39q0-10-1-16t-4-11q-3-5-9-9t-17-4q-18 0-29 12t-7 32l-40 16q-1-26 11-45t33-28 45-9q26 0 42 12t16 38v128q0 14 0 20t6 10q5 3 12 2t12-2l6 13q-9 6-20 10t-22 5q-14 0-22-8t-10-19q-16 10-30 18t-31 9m15-31q8 0 19-3t25-10v-69q-15 5-32 11t-29 12-17 8q-5 22 5 36t29 15m263 27h-119v-15q6 0 18-2t21-6v-170q-6-2-15-3t-16 1l-4-13 66-27 10 7v33q11-8 24-17t29-14 29-6q9 0 20 3t24 13q9 8 14 22t6 37v134q10 5 22 6t18 2v15h-116v-15q6 0 16-2t20-6v-122q0-12-1-21t-6-17q-6-9-15-14t-21-4q-19 0-36 9t-27 19v150q10 5 21 6t18 2v15" />
</svg>