<svg id="fnt-Jomolhari" viewBox="0 0 2218 1000" xmlns="http://www.w3.org/2000/svg"><path id="jomolhari" class="f" d="M155 359v206q0 52-24 81t-71 28q-24 0-39-11t-16-29q0-11 8-19t20-8q21 0 29 27 3 11 6 16t9 4q21 0 21-37v-258q0-16-2-25t-7-15-16-7-27-3v-11h160v11q-17 1-27 3t-15 7-7 15-2 25m201 51q27 0 49 10t39 26 26 39 9 51q0 30-10 54t-26 43-39 29-49 10-49-10-38-27-26-42-9-52q0-29 9-53t25-41 39-27 50-10m-8 16q-30 0-47 24t-18 63q0 30 7 58t18 50q8 17 23 27t32 9q31 0 48-27t17-75q0-35-10-66t-28-46q-9-9-19-13t-23-4m158 19v-10q12-3 21-6t19-6 18-6 20-7l4 1v42q17-13 30-21t21-14 18-6 17-2q45 0 59 48 23-25 45-36t46-12q65 0 65 99v115q0 32 25 33l14 2v8h-122v-8q12-2 19-4t11-6 5-12 1-19v-117q0-18-2-30t-7-18-13-11-20-3q-19 0-33 8t-27 26v141q0 13 1 21t7 14 12 7 20 3v8h-125v-8q12-1 19-3t12-6 5-12 2-19v-121q0-59-36-59-16 0-33 7t-26 17q-8 8-8 9v158q0 16 8 22t30 7v8h-124v-8q12-1 20-3t12-6 6-12 1-19v-141q0-20-4-28t-15-7q-5 0-9 0t-9 2m562-35q27 0 50 10t38 26 26 39 9 51q0 30-9 54t-26 43-40 29-49 10-48-10-39-27-25-42-10-52q0-29 9-53t25-41 39-27 50-10m-8 16q-29 0-47 24t-17 63q0 30 6 58t18 50q9 17 23 27t32 9q31 0 48-27t18-75q0-35-11-66t-27-46q-10-9-20-13t-23-4m158-107v-9q15-3 26-6t22-6 21-5 20-7l3 1v333q0 11 1 19t6 11 12 6 22 3v8h-131v-8q13-2 21-4t13-7 7-12 2-18v-266q0-19-5-26t-19-7q-4 0-8 0t-9 0h-4m233 157v134q0 14 1 23t6 14 11 8 20 4v8h-121v-8q12-2 19-5t11-7 5-14 1-23v-263q0-8-1-14t-4-9-9-4-15-1q-4 0-6 0v-9l15-4q12-4 20-6t16-5 14-5 14-4l3 2v170q19-26 38-37t43-11q35 0 52 23t17 66v111q0 14 1 23t4 13 11 8 18 5v8h-118v-8q12-2 19-4t12-8 5-14 1-23v-110q0-59-41-59-17 0-31 8t-31 27m396 23v109q0 19 4 26t13 7q11 0 24-10v14q-14 15-25 21t-25 6q-17 0-25-10t-10-31q-25 21-44 31t-37 10q-27 0-43-17t-16-43q0-13 5-26t15-22q8-8 16-13t20-12 31-14 52-21v-36q0-23-11-34t-31-12q-17 0-29 8t-11 19q0 5 1 12t1 11q0 10-7 16t-18 7-17-7-7-17q0-10 6-22t17-20q12-9 30-15t41-5q25 0 43 8t26 24q6 10 9 23t2 35m-45 99v-80q-25 9-43 18t-29 17-16 19-5 23v2q0 9 3 17t8 14 12 9 15 4q8 0 19-4t21-9 13-11 2-19m92-149v-8q12-4 22-8t20-7 19-8 21-8l3 1v52q10-16 19-26t16-16 15-8 16-3q15 0 23 8t8 22q0 12-6 18t-15 7q-6 0-11-2t-12-9q-4-4-8-6t-6-2q-6 0-13 5t-12 11-10 15-4 14v126q0 12 2 19t7 13 15 7 23 3v8h-134v-8q13-3 21-5t13-7 5-10 1-17v-139q0-19-4-27t-15-7q-5 0-9 0t-10 2m279-39l2 2v198q0 15 2 24t5 14 13 7 22 4v8h-133v-8q15-1 24-3t13-8 6-14 1-24v-129q0-19-4-27t-14-7q-4 0-9 0t-10 2l-4 0v-8l86-31m-26-124q12 0 20 8t9 21q0 12-8 20t-21 8q-12 0-20-8t-8-20q0-12 8-21t20-8" />
</svg>