<svg id="fnt-Judson" viewBox="0 0 1497 1000" xmlns="http://www.w3.org/2000/svg"><path id="judson" class="f" d="M162 395v186q0 17-4 32t-13 29-26 22-40 8q-36 0-56-15t-19-30q0-12 6-19t15-6q9 0 16 4t7 13q0 17-13 21 14 14 39 14 11 0 19-5t13-11 6-19 3-25 1-31v-168q-5-10-32-10v-11h109v11q-27 0-31 10m277 52v189t31 3v11q-9 0-37 11t-39 11v-23q-27 23-60 23-46 0-67-18t-21-53v-134q-4-10-31-10v-10h76v157q0 51 46 51 32 0 57-22v-166q-5-10-32-10v-10h77m224 5v-65t-32-2v-12q10 0 37-11t40-10v284l31 3v11q-9 0-37 11t-39 11v-17q-24 17-60 17-17 0-33-6t-33-18-26-36-10-56q0-56 31-86t82-30q28 0 49 12m0 187v-172q-18-10-46-10-28 0-48 26t-21 73q0 30 18 64t42 35q33 0 55-16m190 18q14 0 31-9t17-27q0-29-60-50-14-5-24-10t-20-12-16-20-6-27q0-28 21-44t49-16q17 0 35 7t20 8q6 0 6-10h12v60h-11q-3-21-21-36t-39-14q-16 0-27 7t-11 21q0 7 3 13t6 10 11 9 13 6 15 6 16 5q26 10 44 28t19 43q0 30-25 48t-62 19q-18 0-35-9t-19-8q-3 0-7 4t-4 8h-12v-71h11q4 26 24 43t46 18m167-114q0 57 21 85t56 29q27 0 44-25t16-62q0-113-78-113-27 0-43 25t-16 61m71 129q-56 0-88-33t-31-86q0-49 28-80t87-31q59 0 89 31t29 86q0 48-28 80t-86 33m257-5h-108v-11q27 0 32-10v-169q-31-2-32-2v-12q10 0 37-11t40-10v23q27-23 59-23 47 0 67 17t21 54v133q5 10 32 10v11h-108v-11q27 0 31-10v-137q0-50-46-50-31 0-56 22v165q4 10 31 10v11" />
</svg>