<svg id="fnt-Julius Sans One" viewBox="0 0 4172 1000" xmlns="http://www.w3.org/2000/svg"><path id="julius-sans-one" class="f" d="M66 627v-318h24v302q0 67-28 107-14 20-28 34t-36 29l-11-16q79-57 79-138m381 6q-33 39-100 39t-101-39-33-106v-185h23v185q0 124 111 124t110-124v-185h23v185q0 68-33 106m322 34h-172v-325h23v304h149v21m91 0h-23v-325h23v325m351-34q-33 39-100 39t-101-39-33-106v-185h23v185q0 124 111 124t110-124v-185h23v185q0 68-33 106m216-277q-27 0-44 13t-17 37q0 27 22 48 16 16 41 33t35 25 23 20q25 25 25 57 0 41-28 62t-78 22-83-26l12-18q34 23 72 23t59-16 22-45q0-25-22-46-15-15-40-32t-35-26-24-20q-25-26-25-59t23-53 66-19 76 17l-9 18q-31-15-71-15m526-35l-9 20q-36-16-72-16-73 0-73 54 0 24 16 44t40 36 47 32 40 40 17 50q0 45-31 68t-84 24-92-28l12-18q36 24 79 24t66-18 23-49q0-23-16-43t-40-37-47-33-40-40-17-51q0-35 26-56t71-21 84 18m264 233h-144l-46 113h-24l136-327h14l137 327h-26l-47-113m-72-177q-8 23-14 38l-50 120h128l-49-120q-12-28-15-38m234 290h-23v-327h11l213 245q11 13 21 26t10 13q-1-12-1-47v-235h23v327h-11l-217-249-27-34q1 10 1 47v234m440-311q-27 0-44 13t-17 37q0 27 22 48 16 16 41 33t35 25 23 20q25 25 25 57 0 41-28 62t-78 22-83-26l12-18q34 23 72 23t59-16 22-45q0-25-22-46-15-15-40-32t-35-26-24-20q-25-26-25-59t23-53 66-19 76 17l-9 18q-31-15-71-15m391 263q-49-53-49-131t49-132 126-53 126 53 50 132-50 131-126 54-126-54m18-247q-41 47-41 116t41 116 108 47 108-47 42-116-42-116-108-47-108 47m412 295h-23v-327h11l213 245q12 13 21 26t11 13q-1-12-1-47v-235h23v327h-11l-217-249-28-34q1 10 1 47v234m531 0h-156v-325h151v20h-128v118h116v20h-116v146h133v21" />
</svg>