<svg id="fnt-Junge" viewBox="0 0 1319 1000" xmlns="http://www.w3.org/2000/svg"><path id="junge" class="f" d="M135 341v231q0 18-4 35t-9 28-12 19-11 14-7 5q-7 4-23 4-32 0-61-16 9-17 30-32l4 3q16 26 38 26 4 0 7-2t6-9 3-16 3-25 1-34 0-47v-139q0-33-7-45t-29-12h-7l-1-4q40-12 74-12 5 13 5 28m291 104v154q0 16 2 27t5 17 11 10 15 2 10 0l1 5q-40 12-74 12-5-14-5-28v-12q-13 12-24 20t-22 14-22 8-24 3q-15 0-29-4t-26-12-19-24-7-38v-151q0-10-9-15t-24-10l2-6q14 3 37 3 14 0 32-4l2 3q-5 7-5 26v145q0 20 4 33t13 21 18 10 22 3q11 0 21-2t19-8 19-13 22-19v-161q0-8-1-13t-5-8-11-5-19-6l2-6q14 2 24 3t16 1q14 0 33-4l1 3q-5 7-5 26m123 197v-156q0-17-2-28t-5-17-11-9-15-3-10 0l-1-4q40-12 74-12 5 13 5 28v7q14-10 26-17t24-12 24-7 27-3q13 0 26 4t23 12 17 24 7 38v152q0 6 2 10t8 6 10 5 12 4l-2 6q-14-3-36-3-14 0-33 4l-1-3q5-7 5-26v-146q0-20-4-33t-11-21-15-10-19-3q-13 0-23 2t-21 7-22 11-24 16v168q0 8 1 13t6 8 11 5 18 6l-2 6q-14-2-24-3t-16-1q-14 0-32 4l-2-3q5-7 5-26m512 87q0 24-18 43t-47 29-62 9q-26 0-46-7t-34-22-14-39q0-24 21-44t55-34q-31-7-44-15t-14-26q0-15 10-25t32-15q-27-8-42-28t-15-53q0-23 14-44t36-33 48-12q28 0 50 9l80-9 2 8-18 18-43-4q25 23 25 65 0 22-13 42t-36 33-48 13q-35 6-45 11t-10 15q0 6 13 12t53 15q18 5 31 8t25 8 20 9 15 11 11 14 6 17 2 21m-112-59l-10-2q-31 11-49 31t-18 39q0 14 8 25t21 17 27 9 31 3q71 0 71-56 0-27-20-42t-61-24m-18-240q-31 0-43 16t-12 52q0 17 6 31t14 21 19 12 21 7 19 2q25 0 37-18t12-49q0-18-6-32t-13-21-19-13-19-6-16-2m179 118q0-26 9-50t24-44 39-30 50-11q18 0 33 6t28 18 18 33 7 46l-10 9h-159q-1 4-1 8t0 8q0 27 6 48t17 37 25 25 31 8q10 0 21-2t20-5 20-8 18-13l10 10q-20 19-42 27t-53 9q-23 0-44-9t-35-26-23-41-9-53m117-118q-38 0-56 19t-21 57h136q-2-40-18-58t-41-18" />
</svg>