<svg id="fnt-Jura" viewBox="0 0 1002 1000" xmlns="http://www.w3.org/2000/svg"><path id="jura" class="f" d="M127 667h-21q-46 0-68-20t-25-61q-1-6 2-10t10-4q13 0 14 14 2 31 17 43t50 11h21q25 0 40-6t21-21 7-41v-214q0-14 13-14 13 0 13 14v214q0 50-23 72t-71 23m383-237q14 0 14 13v210q0 14-14 14-13 0-13-14v-23q-23 37-86 37h-14q-46 0-68-22t-22-69v-133q0-13 13-13 14 0 14 13v133q0 36 14 50t49 14h14q39 0 61-12t25-38v-147q0-13 13-13m120 237q-13 0-13-14v-210q0-13 13-13 13 0 13 13v39q13-25 38-38t58-14q14 0 14 13 0 14-14 14-44 0-69 20t-27 57v119q0 14-13 14m259 0h-28q-39 0-57-18t-18-58 18-57 57-18h114q-1-33-15-46t-49-13h-29q-32 0-47 6t-18 23q-2 7-5 10t-9 2q-6 0-10-3t-2-10q3-29 25-42t66-13h29q47 0 68 22t22 68v133q0 14-13 14-13 0-13-14v-24q-24 38-86 38m-28-27h28q24 0 42-5t30-17 14-32v-44h-114q-28 0-39 11t-10 38q0 28 10 39t39 10" />
</svg>