<svg id="fnt-Cabin Condensed" viewBox="0 0 3203 1000" xmlns="http://www.w3.org/2000/svg"><path id="cabin-condensed" class="f" d="M175 674q-48 0-84-23t-56-63-20-96q0-55 20-96t57-64 81-22q40 0 76 15l-5 42q-32-16-62-16-37 0-63 19t-40 50-13 72 13 71 40 51 64 18q32 0 61-15l5 43q-32 14-74 14m163-2q-28 0-46-20t-18-51q0-46 39-67t86-21q0-32-10-44t-32-13q-29 0-59 23l-5-37q31-25 73-25 39 0 58 22t19 74v71q0 29 4 40t18 12h5l-5 36h-10q-23 0-34-9t-18-27q-11 16-28 26t-37 10m14-36q12 0 25-9t22-24v-59q-39 2-59 15t-20 39q0 38 32 38m260-219q29 0 51 17t33 47 12 63q0 36-12 65t-34 46-50 17q-20 0-38-8t-28-21l-2 24h-40v-375h44v153q26-28 64-28m-8 216q27 0 43-26t16-63q0-38-16-63t-43-25-44 22-16 66q0 45 16 67t44 22m150-267v-49h44v49h-44m0 301v-245h44v245h-44m206-250q38 0 58 29t20 81v140h-43v-135q0-39-12-58t-33-18q-17 0-31 9t-23 26v176h-44v-245h37l3 30q11-16 28-26t40-9m373 257q-49 0-85-23t-56-63-19-96q0-55 20-96t56-64 82-22q40 0 76 15l-5 42q-32-16-62-16-37 0-64 19t-39 50-14 72 14 71 39 51 64 18q33 0 62-15l5 43q-32 14-74 14m201-2q-33 0-57-17t-37-46-13-65 13-65 37-46 57-16q32 0 56 16t37 46 12 65-12 65-37 46-56 17m0-39q29 0 45-23t16-66-16-65-45-23q-30 0-46 23t-16 65q0 43 16 66t46 23m250-216q38 0 58 29t20 81v140h-43v-135q0-39-12-58t-33-18q-17 0-31 9t-23 26v176h-44v-245h37l3 30q11-16 28-26t40-9m276-125h43v375h-38l-4-23q-11 14-27 21t-35 7q-29 0-51-17t-36-46-13-64q0-35 12-64t35-47 53-17q36 0 61 25v-150m-57 341q28 0 44-22t17-66q0-44-17-67t-44-22q-17 0-30 11t-22 32-7 46q0 24 7 44t22 32 30 12m257 39q-37 0-63-18t-40-46-13-66q0-34 12-63t36-46 55-16q41 0 67 27t26 76q0 9-2 24h-149q1 43 21 66t53 22q16 0 33-4t30-10l4 39q-27 15-70 15m-69-159h104q0-25-12-41t-35-15q-23 0-38 14t-19 42m292-96q38 0 58 29t20 81v140h-43v-135q0-39-12-58t-33-18q-17 0-31 9t-23 26v176h-44v-245h37l3 30q11-16 28-26t40-9m192 255q-43 0-75-20l6-44q32 25 66 25 18 0 28-8t10-22q0-11-5-18t-15-13-34-17q-27-13-40-29t-12-41q0-30 21-49t56-19q36 0 63 16l-5 40q-14-9-26-13t-28-4q-18 0-28 7t-10 21 9 21 34 18q36 16 50 32t15 43q0 35-22 54t-58 20m218 0q-37 0-63-18t-40-46-13-66q0-34 12-63t36-46 55-16q41 0 67 27t26 76q0 9-2 24h-149q1 43 21 66t53 22q16 0 33-4t30-10l4 39q-27 15-70 15m-69-159h104q0-25-12-41t-35-15q-23 0-38 14t-19 42m334-221h44v375h-39l-3-23q-12 14-28 21t-35 7q-28 0-51-17t-35-46-13-64q0-35 12-64t35-47 52-17q37 0 61 25v-150m-56 341q27 0 44-22t16-66q0-44-16-67t-44-22q-17 0-31 11t-21 32-8 46q0 24 8 44t21 32 31 12" />
</svg>