<svg id="fnt-Caesar Dressing" viewBox="0 0 3240 1000" xmlns="http://www.w3.org/2000/svg"><path id="caesar-dressing" class="f" d="M110 533q1 3 7 11t15 17 15 19 11 12q9 14 19 27t19 28q2 2 4 6t1 7q0 5-2 5t-5 1q-5 4-8 4t-7 1q-5 0-12-1t-10 1q-2 1-4 2t-3 1q-4 0-5-1t-5-2q-4-5-7-10t-7-9q-2-4-6-7t-6-6q-8-11-16-22t-16-20q-4-6-9-10t-9-10q-3-6-7-11t-7-12q-3-5-8-12t-12-14-12-14-10-10q0-3-2-5t-5-3q-1-3-2-5t-1-5q0-2 0-3t1-3q1-2 1-4t1-4q3-6 8-11t7-11q0-2 0-4t1-3q2-3 4-6t6-7q2-4 5-8t5-9q6-11 15-22t15-21q7-10 13-19t13-19q3-5 8-11t9-12 9-11 10-8q8-1 11 3t6 4q7 1 10 4t5 5q6 0 10 3t9 7q-2 5-5 10t-6 9q-3 2-5 5t-5 6q-6 8-11 16t-11 16q-2 3-5 4t-6 5q-1 2-1 4t-1 3q-6 9-14 18t-12 18q-3 4-4 7t-4 7q-2 3-5 9t-8 11-6 11-3 8q1 2 7 10t13 15 13 16 9 9m213-236l1 0q3 9 5 17t6 17q7 1 9 2t4 1q6 13 7 27t3 28q10 13 14 26t9 29q2 4 2 6t1 2q3 8 6 17t6 17q1 4 3 9t3 8q2 4 3 10t3 10q3 9 7 19t8 20q1 3 5 15t9 24 8 24 4 14q0 4 0 8t2 8q-2 5-5 6t-6-1q-2 1-4 2t-4 2q-2 1-3 2t-2 1q-6 0-8 1t-5 1q-4-1-6 0t-2 2q-2 1-4 1t-5 0q-1-2-2-4t-2-4q-5-8-8-15t-3-12q-3-6-4-11t-4-11q-3 1-6 3t-4 3q-6 0-6 1t-1 3q-3 1-4 2t-6 1q-2 2-5 4t-6 2q-4 4-8 7t-10 1q-6 1-13 2t-14 2q-8-3-10-5t-6-2q1-7-3-9 0-1 1-5t1-4q6-3 7-6t6-5q1-1 2-3t2-4q2-1 4-1t3-3q2 0 7-3t7-6q3-1 4-2t3-2q5 0 6-1 4 2 9 2 2 0 3-1t4 0q4-4 10-5t10-5q-2-4-3-10t-3-9q-1-6-3-12t-4-11q-5-21-13-40t-12-40q-1-3-2-5t-2-5q-3 5-3 6t-1 2q0 2-1 4t-1 4q-1 4-3 9t-2 8q-2 8-4 18t-5 17q-5 15-10 30t-10 30q-1 7-2 11t-2 7-2 7-1 6q-7 15-12 31t-11 32q-2 1-3 2t-4 2q-4 0-4-2t-2-2-4 0-3 2q-2-1-5-1t-5-2q-3 2-7 2-4 0-7-2-3 1-6 1-2 0-4-1t-3-1q0-2 0-4t0-5q0-4-1-7 9-25 17-50t17-52q4-13 8-24t8-24q2-7 4-13t4-12q3-13 8-26t7-25q2-2 3-4t1-4l0-7q3-5 4-8t2-8q2-6 4-12t3-13q1-8 1-18t3-17q1-2 2-2t1-4q1-1 2-2t2-3q2-3 1-6t-1-7q5-2 4-4t0-4q0-2 3-5t4-4q3 0 6 0t6 0q3 7 8 7m227 242q1 2 7 10t14 17 15 18 10 12q5 7 10 14t10 14l9 14q3 5 7 9t5 9q1 4 1 5 0 4-3 5-4 0-4 1t-2 3-6 1-7 0q-4 0-11 0t-10 1q-1 1-3 1t-3 1q-4 0-6-1t-4-1q-4-5-7-10t-6-9q-3-3-7-6t-6-6q-7-11-15-21t-16-20q-4-6-8-10t-9-10q-4-5-7-10t-7-11q-3-5-8-12t-10-14-12-13-10-10q0-3-2-5t-5-3q-1-2-2-5t-1-4q0-4 1-7 1-1 2-3t1-4q2-5 6-10t7-11q1-2 1-4t1-3q1-4 4-6t5-6q3-4 5-8t5-9q7-13 15-24t16-23q7-10 13-19t12-18q4-5 7-11t9-11 10-11 9-8q8 0 10 3t7 4q7 1 9 4t4 5q7 0 11 2t8 7q-1 6-4 10t-6 8q-4 2-5 6t-5 5q-5 9-11 16t-10 15q-3 4-6 8t-6 7q-1 2-2 3t-1 3q-6 10-13 18t-13 18q-2 3-3 7t-3 7q-2 3-6 8t-7 10-6 11-3 8q1 3 6 10t13 15 14 15 8 9m32-89q3 7 7 13 2 2 4 3t3 4q1 1 2 4t2 5q1 4 5 8t5 9q0 3-1 6t-2 5q0 3 0 6t-2 6q-2 2-5 3t-6 2q-1 1-3 3t-4 6-3 5-2 5q-6 0-8 0t-3 0q-3-2-5-4t-7-3q-1-4-4-9t-6-9l-4-4q-7-10-13-20t-9-21q9-7 14-10t11-7 12-5 10-7q4 0 6 0t2 1 1 2 3 3m178-143q1 2 2 2t2 4q4 2 6 3t2 4q4 4 5 5t1 2q3 2 5 4t3 4q4 4 5 5t1 5q-1 3-7 9t-14 13-14 12-10 10q-1 2-3 3t-2 4q-3 2-6 5t-6 4q-4 7-13 13t-12 13q1 2 2 3t3 3q4 4 9 7t10 7q3 3 7 6t8 7q2 2 5 6 5 4 10 7t9 7q9 8 18 16t18 16l4 4q0 4 2 9t4 9q-1 5 1 6t2 2q-1 9 0 12-8 8-15 14t-12 12q-5 5-9 9t-10 9q-3 4-5 6-4 3-7 5-6 5-12 10t-11 10q-4 3-7 7t-7 7q-3 3-6 6t-8 7q-1 3-4 5t-4 5q-4 2-7 3t-6 4q-4-3-8-5t-8-3q-3-3-4-5t-6-4q-1-1-2-3t-2-4q-6 0-10-7 1-3 3-4t1-6q3-5 7-8t8-8q4-4 8-8t8-8q3-2 5-4t5-5q6-5 11-10t12-10q8-8 16-15t15-16q0-2-1-3t-2-2q-8-7-15-14t-17-13q-3-3-3-5-9-6-17-14t-18-13q-2-2-5-4t-5-3q-1-3-3-4t-4-3q-4-3-5-6t-5-2q0-3-3-4t-4-4q-1-3-3-5-1-3 0-5t2-3q-1-3-3-4t-2-5q0-2 1-3t2-2l1-7q4-3 7-7t7-7q5-7 12-12 3-4 6-7t6-6q4-2 7-5t6-6q1-2 3-3t1-3q14-12 24-21t20-19q3-2 6-5t7-6q1-1 2-1t3-1q6 0 6 0m182-10l1 0q2 9 5 17t6 17q7 1 9 2t4 1q5 13 6 27t4 28q9 13 13 26t10 29q1 4 2 6t0 2q3 8 6 17t7 17q1 4 3 9t3 8q1 4 3 10t2 10q4 9 8 19t8 20q1 3 5 15t9 24 8 24 3 14q0 4 1 8t1 8q-2 5-5 6t-5-1q-2 1-5 2t-4 2q-1 1-2 2t-3 1q-5 0-7 1t-5 1q-5-1-6 0t-2 2q-2 1-4 1t-5 0q-1-2-2-4t-2-4q-6-8-8-15t-4-12q-2-6-4-11t-4-11q-3 1-5 3t-4 3q-6 0-6 1t-1 3q-3 1-5 2t-5 1q-3 2-5 4t-6 2q-4 4-8 7t-10 1q-7 1-14 2t-13 2q-8-3-10-5t-6-2q1-7-3-9 0-1 0-5t2-4q6-3 7-6t5-5q1-1 2-3t3-4q2-1 4-1t3-3q2 0 7-3t6-6q4-1 5-2t3-2q4 0 6-1 4 2 9 2 2 0 3-1t3 0q4-4 10-5t10-5q-1-4-2-10t-3-9q-1-6-4-12t-3-11q-6-21-13-40t-12-40q-1-3-2-5t-2-5q-3 5-3 6t-1 2q0 2-1 4t-1 4q-2 4-3 9t-2 8q-3 8-5 18t-4 17q-5 15-10 30t-10 30q-1 7-2 11t-3 7-2 7 0 6q-7 15-12 31t-11 32q-2 1-4 2t-3 2q-4 0-4-2t-3-2-3 0-3 2q-2-1-5-1t-5-2q-4 2-7 2-4 0-8-2-3 1-6 1-1 0-3-1t-3-1q0-2 0-4t0-5q0-4-1-7 8-25 17-50t16-52q5-13 9-24t8-24q2-7 3-13t4-12q4-13 8-26t8-25q2-2 2-4t2-4l-1-7q4-5 5-8t2-8q2-6 4-12t3-13q1-8 1-18t3-17q1-2 2-2t0-4q1-1 2-2t2-3q3-3 2-6t-1-7q5-2 4-4t0-4q0-2 3-5t4-4q3 0 6 0t6 0q3 7 8 7m372 323q-1 7 3 11t6 9q-1 7 2 11-2 2-3 6t-5 6q-7 4-9 6t-6 3q-2 2-5 5t-5 5q-3-1-4-3t-3-4q-5-1-9-5t-6-8-6-10-5-9q-7-13-14-26t-14-26q-4-6-8-12t-7-14q-1-1-2-2t-2-3q-4-5-5-11t-7-10q-10-1-17 3t-14 9q1 4 1 7t0 6q0 11-1 21t-1 22q0 4 0 10t2 10q-2 5-2 11 0 4 1 7t1 6q0 5-3 7t-2 6q-6 2-12 5t-11 3q-2 1-5 0t-4 1q-3 1-4 4t-4 2q-3 0-3-2t-2-4q-3 0-4 0t-3-2q0-4-2-7t-3-9q0-5 1-10t1-10q0-4-1-8t-3-8q0-2 0-4t1-4q0-9-1-18t-1-18q0-3 0-6t1-6q1-3 2-5t0-5q0-9-2-18t-2-18q0-5 1-10t0-10q0-14-1-28t0-27q0-10 0-19t1-20q0-12-1-24t-1-24q0-5 0-6t-2-2-2 0-2-2q0-3 2-4t3-8q0-4-1-8t-1-8q0-6 3-12t4-11q6 0 8 0t5 0q1 5 6 5t9 1q4 1 8 3t8 1q1 3 5 4t6 3q4-1 6-4t6-3q3 0 7 4t6 7q2 2 7 6t12 10 12 10 7 5q20 20 37 37t38 29q0 2 1 3t2 2q0 4-2 6t-1 5q0 1 1 3t0 3q1 2 1 3t-1 4q0 5 3 9t4 9q-1 4-4 5t-5 2q-1 1-2 3t-2 2q-10 5-15 9t-10 8q-2 1-5 4t-7 4-6 5-3 4q0 3 4 9t6 10q6 8 10 17t10 17q10 15 18 31t17 31m-80-182q-11-14-24-26t-24-24l-6-1q-3-5-6-8t-8-8q1 6 1 10t0 11q0 15-1 30t-1 30 2 29q10 0 18-6 3-2 6-5t7-5q4-2 9-6t10-7 10-7 7-7m295 235q-2-2-2-6 0-2 0-4t1-4q2-11 2-23t1-23q1-6 1-13t0-14q0-40-2-81t-3-81q0-28 1-57t2-57q4-3 11-2t10-5q2 0 5 0t5 0q5 0 10-3t11-6q2 1 4 1t2 0 7 3 10 8 11 8 7 5q12 9 22 20t19 22q8 12 19 23t20 21q3 4 7 7t7 7q1 2 2 4t3 5q3 3 7 6t7 6q3 2 8 7t5 9q0 2-1 4t-2 3q-1 2-1 4t0 4q-5 4-6 5t-1 2q-2 2-4 3t-3 4q-1 1-1 3t-1 3q-2 6-7 11t-10 10q-5 9-10 18t-13 17q-2 4-6 8t-6 7q-2 3-4 6t-5 7q-5 7-10 14t-10 13q-6 8-13 17t-12 16q-5 9-11 16t-13 14q-2 2-5 5t-6 3q-2 0-3-2t-3-1q-1 0-3 0t-6 1l-9 1q-8 4-11 4t-7 0q-2 0-3 1t-3 1q-3 0-5-3t-6-2m146-211q0-3-4-7t-7-7q-4-3-8-5t-8-6q-2-3-5-6t-4-7q-9-9-18-19t-16-22q-4-2-8-6t-10-7q-1 3 0 6t0 6q0 12-1 22t-1 22q0 26 1 52t1 51q0 10 1 20t1 20q-1 2-1 5t1 6q4-2 7-6t5-7q8-11 16-22t17-22q5-7 11-14t11-15q1-2 4-7t7-10 6-10 2-5m318 158q0 7 3 11t6 9q-1 7 2 11-2 2-3 6t-4 6q-8 4-10 6t-6 3q-2 2-5 5t-5 5q-3-1-4-3t-3-4q-5-1-8-5t-7-8-6-10-5-9q-6-13-13-26t-15-26q-4-6-7-12t-8-14q-1-1-2-2t-2-3q-3-5-5-11t-7-10q-9-1-17 3t-13 9q0 4 0 7t0 6q0 11-1 21t-1 22q0 4 1 10t1 10q-1 5-1 11 0 4 0 7t1 6q0 5-3 7t-2 6q-6 2-11 5t-12 3q-2 1-5 0t-4 1q-2 1-4 4t-4 2q-3 0-3-2t-2-4q-3 0-4 0t-3-2q0-4-2-7t-2-9q0-5 0-10t1-10q0-4-1-8t-2-8q-1-2 0-4t0-4q0-9-1-18t0-18q0-3 0-6t0-6q1-3 2-5t1-5q0-9-2-18t-2-18q0-5 0-10t0-10q0-14 0-28t-1-27q0-10 1-19t0-20q0-12-1-24t-1-24q0-5 0-6t-2-2-2 0-2-2q0-3 2-4t3-8q0-4-1-8t-1-8q0-6 3-12t4-11q6 0 8 0t5 0q1 5 6 5t9 1q4 1 9 3t8 1q1 3 4 4t6 3q4-1 6-4t7-3q2 0 6 4t6 7q2 2 8 6t11 10 12 10 7 5q20 20 37 37t38 29q0 2 1 3t2 2q0 4-2 6t-1 5q0 1 1 3t0 3q1 2 1 3t-1 4q0 5 4 9t3 9q-1 4-4 5t-5 2q-1 1-2 3t-1 2q-11 5-16 9t-10 8q-2 1-5 4t-7 4-6 5-3 4q0 3 4 9t6 10q6 8 10 17t10 17q10 15 18 31t17 31m-79-182q-12-14-25-26t-24-24l-6-1q-3-5-6-8t-8-8q1 6 1 10t0 11q0 15-1 30t-1 30 2 29q10 0 18-6 4-2 7-5t6-5q4-2 9-6t10-7 10-7 8-7m189 101q1 2 7 10t14 17 15 18 10 12q5 7 10 14t10 14l9 14q4 5 7 9t5 9q1 4 1 5 0 4-3 5-3 0-4 1t-2 3-6 1-7 0q-4 0-11 0t-10 1q-1 1-3 1t-3 1q-4 0-6-1t-4-1q-4-5-7-10t-6-9q-3-3-7-6t-6-6q-7-11-15-21t-16-20q-4-6-8-10t-8-10q-4-5-8-10t-7-11q-2-5-7-12t-11-14-12-13-10-10q0-3-2-5t-4-3q-1-2-3-5t-1-4q0-4 2-7 1-1 1-3t1-4q2-5 7-10t6-11q1-2 1-4t1-3q1-4 4-6t5-6q3-4 5-8t5-9q7-13 15-24t16-23q7-10 13-19t12-18q4-5 8-11t8-11 10-11 10-8q7 0 9 3t8 4q6 1 8 4t4 5q7 0 11 2t8 7q-1 6-4 10t-5 8q-4 2-6 6t-5 5q-5 9-10 16t-11 15q-3 4-6 8t-6 7q-1 2-2 3t-1 3q-6 10-13 18t-13 18q-2 3-3 7t-3 7q-2 3-6 8t-7 10-6 11-2 8q0 3 6 10t12 15 14 15 8 9m32-89q4 7 8 13 1 2 3 3t3 4q1 1 2 4t2 5q1 4 6 8t4 9q0 3-1 6t-1 5q-1 3-1 6t-2 6q-2 2-5 3t-6 2q-1 1-2 3t-4 6-4 5-2 5q-6 0-7 0t-4 0q-2-2-5-4t-7-3q-1-4-4-9t-6-9l-3-4q-8-10-14-20t-9-21q9-7 15-10t11-7 11-5 11-7q3 0 5 0t2 1 1 2 3 3m178-143q1 2 3 2t1 4q4 2 6 3t2 4q5 4 5 5t2 2q2 2 4 4t3 4q4 4 5 5t2 5q-2 3-8 9t-13 13-14 12-11 10q-1 2-3 3t-2 4q-3 2-5 5t-6 4q-5 7-14 13t-12 13q1 2 2 3t3 3q4 4 9 7t10 7q4 3 8 6t7 7q2 2 5 6 5 4 10 7t9 7q9 8 18 16t18 16l4 4q0 4 3 9t4 9q-1 5 0 6t2 2q0 9 1 12-9 8-16 14t-12 12q-5 5-9 9t-10 9q-3 4-5 6-4 3-7 5-6 5-11 10t-11 10q-4 3-8 7t-7 7q-3 3-6 6t-8 7q-1 3-4 5t-4 5q-3 2-6 3t-7 4q-4-3-8-5t-8-3q-3-3-4-5t-6-4q-1-1-2-3t-2-4q-6 0-9-7 1-3 2-4t1-6q3-5 7-8t8-8q5-4 8-8t8-8q3-2 5-4t6-5q5-5 11-10t11-10q8-8 16-15t15-16q0-2-1-3t-2-2q-7-7-15-14t-16-13q-3-3-4-5-9-6-17-14t-18-13q-2-2-5-4t-5-3q-1-3-3-4t-4-3q-4-3-5-6t-4-2q-1-3-3-4t-5-4q-1-3-3-5-1-3 0-5t2-3q-1-3-3-4t-2-5q0-2 1-3t2-2l1-7q4-3 7-7t7-7q5-7 12-12 3-4 6-7t7-6q3-2 6-5t7-6q1-2 2-3t2-3q13-12 23-21t21-19q2-2 5-5t7-6q1-1 2-1t3-1q6 0 6 0m177 0q1 2 2 2t2 4q4 2 6 3t2 4q4 4 5 5t1 2q3 2 5 4t3 4q4 4 5 5t1 5q-1 3-7 9t-14 13-14 12-10 10q-1 2-3 3t-2 4q-3 2-6 5t-6 4q-4 7-13 13t-12 13q1 2 2 3t3 3q4 4 9 7t9 7q4 3 8 6t8 7q2 2 5 6 5 4 10 7t9 7q9 8 18 16t18 16l4 4q0 4 2 9t4 9q-1 5 1 6t2 2q-1 9 0 12-8 8-15 14t-12 12q-5 5-10 9t-10 9q-2 4-4 6-4 3-7 5-6 5-12 10t-11 10q-4 3-7 7t-7 7q-3 3-6 6t-8 7q-1 3-4 5t-4 5q-4 2-7 3t-6 4q-4-3-8-5t-8-3q-3-3-5-5t-5-4q-1-1-2-3t-2-4q-6 0-10-7 1-3 3-4t1-6q3-5 7-8t8-8q4-4 8-8t8-8q3-2 5-4t5-5q6-5 11-10t12-10q8-8 16-15t15-16q0-2-1-3t-2-2q-8-7-15-14t-17-13q-3-3-3-5-9-6-17-14t-18-13q-2-2-5-4t-5-3q-1-3-3-4t-4-3q-4-3-5-6t-5-2q-1-3-3-4t-4-4q-1-3-3-5-1-3 0-5t2-3q-1-3-3-4t-2-5q0-2 1-3t2-2l1-7q4-3 7-7t7-7q5-7 12-12 3-4 6-7t6-6q4-2 7-5t6-6q1-2 3-3t1-3q14-12 24-21t20-19q3-2 6-5t7-6q0-1 2-1t3-1q6 0 6 0m161 28q0 4-3 6t-5 6q-5 4-8 9t-9 9q-2 2-5 5t-7 6-8 6-6 2q-4 0-10-2t-10-4q-4 0-7-1t-5-2q-8-2-11-6t-5-9q0-2 1-2t3-2q5-7 8-11t8-8q8-8 16-16t16-14q3-1 5-3t6-3 7 3 5 5 4 7 5 4q4 3 10 7t5 8m-67 90q4 2 6 6t5 4q3 2 6 2t6 1q2 1 3 2t2 3q3 2 9 4t8 5q3 4 5 11t3 14 1 16 2 13q1 11 2 22t2 22-1 23-1 23q0 6-1 14t-4 14q0 2 0 7v16q0 3 0 5t1 7q0 5-3 8-2-1-3-1t-4 0q-5 0-7 2-6 0-11-1t-10 0q-8 0-18 2-2-5-2-10t-2-10q0-1-1-3t0-2q2-6 2-8t0-5q0-7-1-14t1-14q0-2 0-4t1-5-1-3-1-2 0-5 2-5q0-4 0-7t0-7q0-8 0-16t-1-15q0-4 0-5t-1-1-2-1-1-1q2-22-2-43t-3-44q0-3 1-5t2-3 3-2 2-4q4 1 6 0m277-123q8-1 12 2t9 2q2 1 5 1t6-1q6 0 10 2t7 6q1 1 3 3t2 3q0 4-2 7t-2 8q0 8 2 16t2 17q2 30 3 61t0 60q0 4 0 7t-2 6v6q-1 13 0 26t1 25q0 11-1 23t-1 23q0 10 1 21t1 21q-2 4-2 6t-2 5q-2 1-4 0t-2 1q-3 3-4 7t-5 7q-1 6-5 10t-6 10q-6 0-8-1t-4-2q-1-8 0-12t0-7q0-5-2-8t-3-6q-6-4-8-5t-3-3q-3-4-5-8t-4-9q-7-11-14-22t-16-23q-1-3-3-5t-4-4q-8-13-15-27t-17-26q-4-5-6-11t-6-10q0 2 0 5t0 5q0 17 0 33t1 33q0 4-1 6t0 6q0 5 0 10t1 8q0 6-1 11t0 10q-1 6-3 11t-1 12q0 3 0 6t1 6q-3 5-8 5t-9 4q-3-1-5 0t-3 1q-2 0-3 0t-3-1q-2 0-5 3t-4 2q-2 0-6-2t-7-4-8-6-3-4q-1-2-1-7 0-5 1-11t2-12q1-16 1-33t0-32q0-7 0-14t1-14q0-16-2-32t-1-33q0-11 1-22t1-22q0-8 0-16t-1-16q0-5 0-11t1-12q0-6-2-12t-2-10q0-3 1-6t2-6q0-3-2-7t-1-8 1-8 1-7q7-3 12-3t8 4q0 8 1 13t2 10q0 3-1 6t1 8 2 6 6 3q1 2 2 4t2 5q3-2 4-6t0-6q2 1 4 1t4 1q1 6 2 12t1 11q10 8 17 21t14 24q3 6 8 10t7 11q4 3 6 7t5 8q9 17 21 33t24 31q1-3 1-6t0-7l-1-44q0-4 0-7t-1-7q0-13 0-25t0-25q-1-13-1-27t-1-27q-1-9-1-17t-1-16q0-11 2-19 1-1 2-2t3 0q3 0 4 4m368 178h2q1 3 4 7t3 6q-4 9-6 14t-6 9q0 2-3 7t-6 10-8 11-4 7q-3 4-4 7t-4 8q-4 7-9 14t-8 15q-3 3-5 6t-4 5q-6 11-14 20t-13 21q5 5 5 13 0 5-3 5t-4 1q-5 4-9 4t-6 1q-5 0-12-1t-11 1q-1 1-3 2t-3 1q-4 0-5-1t-5-2q-4-5-7-10t-7-9q-3-4-6-7t-6-6q-8-11-16-22t-17-20q-4-6-8-10t-9-10q-4-6-7-11t-7-12q-3-5-9-12t-11-14-12-14-10-10q0-3-2-5t-5-3q-1-3-2-5t-2-5q0-3 2-6 1-2 1-4t1-4q3-6 7-11t7-11q1-2 1-4t1-3q1-4 4-7t6-6q2-4 4-8t5-9q7-11 16-22t15-21q7-10 13-19t13-19q3-5 7-11t9-12 10-11 10-8q8-1 10 3t7 4q7 1 10 4t4 5q7 0 11 3t9 7q-2 5-5 10t-6 9q-4 2-5 5t-6 6q-5 8-10 16t-11 16q-2 3-5 4t-6 5q-1 2-1 4t-2 3q-6 9-13 18t-13 18q-2 4-3 7t-4 7-6 9-7 11-6 10-3 9q1 2 6 10t14 15 14 16 8 9q1 3 7 11t14 17 16 19 11 12l4 7q1-1 5-7t9-14 8-15 4-9q2-1 5-7t8-14 7-14 4-8h-6q-8 0-16 1t-15 3q-3-1-6-2t-6-3q-1-5-1-7t0-3q-1-2-1-3t-1-3q0-3-1-5t-2-5q0-2 0-4t-1-4q1-9-1-12 0-7 2-9t3-6q4 1 7-1t7-2q8 0 13-2 4-1 9-1t9-1q2 0 4-1t4-1q3 0 6 0t7 0q8-1 15-2t16 0q3 1 5 1t4 2q1 1 2 2t4 1q2 3 3 5-1 5 1 7-3 2-3 6t-1 8q4 1 6 5t3 5" />
</svg>