<svg id="fnt-Cagliostro" viewBox="0 0 2201 1000" xmlns="http://www.w3.org/2000/svg"><path id="cagliostro" class="f" d="M239 311q23 0 57 9t34 14-5 16-8 11q-5 0-29-6-32-5-42-5-45 0-71 10-19 7-37 20t-27 27-19 35-9 46q0 57 40 98t116 44q25 0 74-9 18-6 21-6 4 1 6 7t3 11q0 12-36 25t-77 15q-57-1-109-28-58-30-81-81-12-29-12-63 0-81 60-136t151-54m294 356q-15 0-14-16 0-6-2-6-4 2-16 9-59 36-104 4-21-14-21-40 0-38 36-56t89-17q9 0 14 0 0-8 0-12 0-28-16-43t-43-14q-14 0-29 4t-20 4-8-5-2-15 22-14 43-5q48 0 73 25t26 75v103q0 13-5 16t-23 3m-19-52q1-14 1-30t0-18q-69 6-84 25-8 9-8 22 0 26 39 26 20 0 36-9t16-16m163-98q0 44 39 44 19 0 29-13t11-36-11-33-28-10-29 12-11 36m31 168h-10q-9 0-27-4-16 0-16 39 0 47 71 50 33 0 52-13t19-37q0-23-24-29-20-6-65-6m85-194q2 12 2 16 0 33-24 59-7 7-25 15t-39 9q-19 0-24 2t-9 5-4 5q-4 7-4 14t3 13 6 7 12 4q12 1 48 2t55 5q56 12 56 63 0 26-20 47t-47 30-52 10-41-3-34-10-26-21-10-32 9-35 20-23q-22-19-22-41 0-11 5-20t9-13 13-9 11-8q-9-7-15-13t-11-19-6-31q0-33 26-54t68-20 57 19q32-22 55-22 7 0 10 10t4 18-2 12-9 2q-27 0-45 7m96 59v-53l-1-102q0-10 0-19t1-16v-24q0-22 3-30t19-8 21 2 4 10l0 185 1 110q0 15 9 24t20 9 23-3 15-3q7 0 7 8 0 17-24 25-16 5-35 5t-30-6-18-16-10-27q-5-25-5-71m176-171q-5-1-12-10t-6-17 10-16 25-8q23 0 23 22 0 16-10 23t-17 8-13-2m31 107v72l2 99q0 6-2 8-5 2-21 2t-20-2-3-14l-2-91q0-48 0-61l2-30q0-14 4-16t17-3 22 2q1 22 1 34m294 68q0 51-36 85t-84 34-82-31-32-84 34-83 95-30q33 0 66 21 17 11 28 34t11 54m-113 82q31 0 50-23t20-56-17-56-49-22-54 20-22 57 20 58 52 22m155 6l18 2q20 0 36-9t16-25q0-6-3-13t-16-19-25-29-11-37q0-20 18-42 8-11 25-18t33-7 20 3 3 11l-4 15q-7-2-17-2t-20 7-11 20 9 24 20 22 20 24 9 34q0 34-30 52t-73 18q-11 0-16-5t-5-13 4-13m245-120l-1 72q0 21 7 31t24 11 28-3q21-6 21 6 0 34-62 34-35 0-54-32-10-20-10-47l1-58 1-42q0-7-2-9t-7-2l-20 2q-12 0-12-8 0-14 3-20t12-6l20 2q7 0 7-17 0-2 0-3v-28q0-13 0-15 6-3 40-3 9 0 9 9l-2 55q6 1 20 1l40-3q8 0 8 9 0 28-27 28l-33-2q-8 0-10 1-1 9-1 37m129 92l3-111q1-4 1-14t0-15 3-12q3-13 14-13 25 0 25 11 0 9 1 12 3 0 29-13t44-14q8 0 10 4t3 17-3 21q-3 0-11 1t-12 2-10 1-11 2-10 2-10 3-7 3q-8 3-11 8v33l1 85v7q0 2 0 8t-1 11-2 8q-4 6-21 6t-19-2q-6-4-6-51m394-60q0 51-35 85t-85 34-81-31-32-84 34-83 94-30q34 0 67 21 17 11 27 34t11 54m-113 82q32 0 51-23t19-56-17-56-49-22-54 20-21 57 20 58 51 22" />
</svg>