<svg id="fnt-Cambay" viewBox="0 0 1730 1000" xmlns="http://www.w3.org/2000/svg"><path id="cambay" class="f" d="M302 336q-33-11-48-14-22-4-57-4-34 0-71 14-31 13-53 36-22 21-34 53t-11 73q0 80 46 128 23 23 56 37t73 13q57 0 103-22l-10-33q-45 17-81 17-44 0-77-18-30-17-47-49t-18-73q0-44 15-75t45-49q27-15 76-15 24 0 41 4t40 11l12-34m134 123q-13 0-31 2t-33 8l-8-30q42-15 78-15 41 0 62 13 19 13 26 29t7 46v155h-31l-8-23q-36 29-74 29-32 0-54-19t-22-47q0-28 17-47t42-25q32-8 89-9v-2q0-25-5-37-10-28-55-28m-6 181q21 0 36-7t30-20v-58q-43 1-63 5-24 5-35 15t-11 27q0 18 13 28t30 10m461-126q0-59-47-59-23 0-57 22 2 7 2 27v163h-41v-153q0-59-47-59-23 0-56 19v193h-41v-240h29l8 20q22-15 40-20 14-4 33-4 20 0 36 8t26 23q21-15 40-23t41-8q37 0 56 22t20 59v163h-42v-153m140 153h-29v-333h41v99q24-11 58-11 50 0 82 30 33 33 33 97 0 56-28 89t-82 34q-35 0-68-22l-7 17m65-30q40 0 59-22t19-68q0-42-20-67t-58-25q-30 0-53 9v159q14 7 25 11t28 3m257-178q-14 0-32 2t-33 8l-8-30q42-15 78-15 41 0 62 13 19 13 26 29t7 46v155h-30l-9-23q-36 29-73 29-33 0-55-19t-22-47q0-28 17-47t42-25q32-8 90-9v-2q0-25-5-37-10-28-55-28m-7 181q21 0 37-7t30-20v-58q-44 1-64 5-23 5-35 15t-11 27q0 18 13 28t30 10m382-213l-137 368h-42l47-116-97-252h43l74 198 73-198h39" />
</svg>