<svg id="fnt-Cantarell" viewBox="0 0 2045 1000" xmlns="http://www.w3.org/2000/svg"><path id="cantarell" class="f" d="M241 317q47 0 94 19l-13 34q-47-16-82-16-30 0-55 12t-41 31-26 44-9 52q0 29 10 54t27 45 45 30 58 11q37 0 78-14l13 31q-51 22-102 22-31 0-59-10t-47-25-35-38-22-49-8-56q0-50 21-90t61-63 92-24m237 104q27 0 46 6t28 18 15 27 4 34v161h-28l-9-22q-30 27-68 27-34 0-58-21t-24-48q0-15 6-27t15-19 23-14 30-8 35-4 38-1v-19q0-9-1-15t-4-14-9-14-17-10-28-4q-25 0-65 11l-7-29q40-15 78-15m53 194v-55h-15q-14 0-24 0t-24 3-23 7-15 12-6 19q0 15 16 27t37 12q31 0 54-25m128 52v-242h28l9 21q47-25 85-25 20 0 34 6t23 15 13 24 6 27 1 30v144h-40v-147q0-63-54-63-29 0-65 18v192h-40m410-32l5 27q-35 10-55 10t-33-7-21-18-10-25-3-31v-134h-33v-32h33v-69h40v69h73v32h-73v133q0 50 39 50 8 0 38-5m146-214q27 0 46 6t29 18 14 27 5 34v161h-29l-9-22q-30 27-68 27-34 0-58-21t-23-48q0-15 5-27t15-19 24-14 30-8 34-4 38-1v-19q0-9 0-15t-4-14-10-14-17-10-28-4q-25 0-64 11l-8-29q40-15 78-15m53 194v-55h-15q-13 0-24 0t-24 3-22 7-15 12-7 19q0 15 16 27t37 12q31 0 54-25m157-190l7 19q31-23 68-23 25 0 46 9l-13 32q-19-7-39-7-31 0-57 17v195h-41v-242h29m271-4q17 0 31 4t24 11 16 17 10 21 5 23 3 25 0 24v19h-165q0 13 6 26t16 24 29 18 39 7q26 0 55-9l7 27q-39 14-77 14-27 0-47-8t-33-18-21-27-11-32-3-33q0-27 6-50t18-37 26-26 32-15 34-5m-9 34q-21 0-37 12t-22 30-7 38h126q0-80-60-80m179 212v-369h40v369h-40m138 0v-369h40v369h-40" />
</svg>