<svg id="fnt-Caprasimo" viewBox="0 0 2710 1000" xmlns="http://www.w3.org/2000/svg"><path id="caprasimo" class="f" d="M343 574q0 11-4 21t-9 18q-15 22-37 36t-47 21-51 6q-54 0-94-22t-62-63-22-94q0-36 13-68t35-57 55-39 68-14q11 0 22 1t23 5q7 2 14 5t14 2q6 0 12-3t10-6 11-4q12 0 16 8t7 18l22 76q1 3 1 7 0 12-9 17t-20 6q-12 0-19-8t-14-21-15-24-22-21-36-8q-21 0-35 11t-20 29-10 38-3 36q0 30 9 57t29 45 55 17q18 0 33-7t27-17 21-18 15-7q9 0 13 6t4 15m27 36q0-22 10-37t28-24 36-13 38-4q6 0 11 0t11 1v-63q0-6-2-15t-11-8q-7 0-9 7t-2 11q0 3 0 5t0 6q0 25-17 35t-39 10q-19 0-33-8t-13-29q0-9 3-17t8-13q15-19 38-28t47-13 47-4q25 0 46 7t33 24 13 44v113q0 4 2 7t6 3q4 0 7-2t6-2q7 0 10 5t4 11q0 17-10 29t-26 19-31 7q-18 0-37-8t-26-25q-12 17-34 25t-42 8q-19 0-36-7t-26-22-10-35m110-21q0 10 4 18t16 9q2 0 4 0v-51q-4-2-8-2-9 0-13 10t-3 16m284-180q15 0 18 10t4 21q0 2 0 3 15-15 33-25t42-9q26 0 45 11t31 28 19 40 7 45q0 37-15 70t-43 51-69 20q-25 0-45-11v27q0 8 0 13t3 8 8 10q5 5 7 9t2 11q0 10-7 16t-17 6h-104q-10 0-17-6t-7-16q0-9 3-13t8-8 7-9 4-17v-186q0-11-4-17t-9-8-8-7-4-12q0-10 7-15t14-9l48-21q9-5 19-7t20-3m46 63q-10 0-19 7v129q4 5 10 7t12 3q12 0 19-8t11-20 5-24 2-21q0-9-2-22t-5-24-12-19-21-8m311 50v71q0 14 3 19t18 8q12 2 19 6t8 18q0 11-7 17t-17 6h-129q-10 0-17-6t-7-17q0-8 3-13t8-8 7-9 4-17v-89q0-11-4-17t-9-8-8-7-4-12q0-10 6-15t15-9l61-24q5-3 12-5t12-2q9 0 13 6t6 15 2 15q1 4 1 9t2 9q7-23 23-39t44-15q19 0 31 10t16 25 5 32q0 16-4 31t-15 24-29 9q-21 0-30-6t-12-16-3-18-1-16-9-6q-7 0-10 9t-3 20-1 15m127 88q0-22 11-37t27-24 37-13 38-4q5 0 11 0t11 1v-63q0-6-3-15t-10-8q-7 0-9 7t-2 11q0 3 0 5t0 6q0 25-17 35t-40 10q-18 0-32-8t-14-29q0-9 4-17t8-13q15-19 38-28t47-13 47-4q25 0 46 7t33 24 12 44v113q0 4 2 7t7 3q4 0 6-2t6-2q8 0 11 5t4 11q0 17-11 29t-26 19-31 7q-18 0-37-8t-25-25q-13 17-34 25t-43 8q-19 0-35-7t-27-22-10-35m110-21q0 10 5 18t16 9q2 0 4 0v-51q-4-2-8-2-10 0-13 10t-4 16m288-138q-8 0-14 3t-7 13q0 8 4 12t10 7q7 4 16 5t15 3q23 5 42 17t32 30 12 43q0 33-15 53t-40 28-55 9q-8 0-21-2t-20-6h0q-2-1-8-2t-8-2q-8 0-13 6t-13 6q-11 0-17-7t-9-16-6-17q-1-7-3-14t-3-14q0-12 7-20t20-8q13 0 21 6t15 13 13 16 16 14 24 5q10 0 15-6t5-15q0-14-7-18t-19-6q-21-4-40-9t-33-16-23-26-8-41q0-30 16-49t42-28 51-9q10 0 20 1t19 3q1 1 5 2t9 4 5 1q8 0 14-5t13-6q11 0 15 8t7 18 4 18q1 6 2 11t1 12q0 9-5 18t-16 9-20-8-18-18-20-18-29-8m240-42q10 0 15 7t6 16v161q0 7 0 14t6 12q6 7 10 11t5 14-7 17-17 6h-104q-10 0-17-6t-7-17q0-10 4-14t11-11q5-5 6-12t0-14v-85q0-5-1-10t-4-9q-1-1-2-2t-2-2q-6-5-10-9t-5-12q0-10 6-16t15-8l52-21q10-4 20-7t20-3m-37-1q-16 0-31-5t-27-15-10-30 10-29 27-15 31-4 31 4 27 15 11 29q0 19-11 30t-26 15-32 5m212 1q10 0 15 7t6 16v25q19-18 42-33t45-15q26 0 41 15t22 37q13-13 28-25t31-19 33-8q23 0 38 12t22 31 7 40v101q0 6 1 14t5 13v0q6 5 10 11t4 13q0 11-6 17t-18 6h-100q-10 0-16-7t-5-16q0-9 4-13t9-11 4-18v-84q0-7-2-15t-6-13-13-5q-8 0-14 4t-12 10v101q0 13 4 19t9 12 4 13q0 10-6 17t-15 6h-100q-10 0-16-7t-5-16q0-9 4-14t9-10 4-18v-84q0-7-2-15t-6-13-13-5q-8 0-14 4t-11 10v101q0 13 4 20t8 11 4 13q0 10-5 16t-16 7h-100q-11 0-17-6t-7-17 5-15 10-12 5-18v-91q0-11-4-17t-7-8-8-7-4-12q0-10 6-16t15-8l51-21q9-4 19-7t20-3m512 0q41 0 71 16t48 47 17 71q0 39-19 69t-50 45-71 17q-40 0-71-17t-47-47-17-71q0-40 19-69t51-45 69-16m14 211q7 0 9-7t3-14 1-11q0-14-2-28t-6-27q-1-6-4-17t-9-24-10-21-13-9q-5 0-8 6t-3 14-1 12q0 7 2 21t6 33 9 34 12 27 14 11" />
</svg>