<svg id="fnt-Capriola" viewBox="0 0 2101 1000" xmlns="http://www.w3.org/2000/svg"><path id="capriola" class="f" d="M321 372q0 30-27 30h-17q-8 0-12-6t-5-16-6-18-14-14q-17-9-44-9t-47 11-32 31q-24 35-24 95 0 107 70 134 22 9 42 9 37 0 66-14l13-6q7-3 12-3t8 3 8 11 5 16-5 13-11 12q-12 7-29 12-31 10-72 10t-73-15-55-41q-45-54-45-141 0-86 46-137 46-53 128-53 45 0 80 20 40 23 40 66m278 282q0 13-13 13h-23q-10 0-12-4t-2-7-1-7q-2-12-4-26-19 35-60 46-15 4-32 4t-35-6-30-17q-31-25-31-67 0-45 34-69 27-19 70-19t73 25q0-8 0-21t-4-24-14-21q-19-17-52-17-30 0-61 17-6 3-10 3-7 0-13-13-6-13-6-19 0-11 16-21 31-19 82-19 47 0 78 26 36 31 36 87 0 25-8 62 21 60 22 94m-164-104q-10 8-14 15t-4 17 3 18 10 12q14 11 30 11t28-4 18-10q17-13 17-28-1-18-20-29-17-9-40-9-18 0-28 7m295 74q3 25 3 61v101q0 18-15 18h-30q-15 0-15-19v-270q0-69-8-100 0-3 0-9t4-10 12-5h15q13 0 19 12 6 14 10 35 17-29 46-43 21-10 48-10t48 11 35 28q27 36 27 96 0 63-31 107-33 46-85 46-56 0-83-49m-3-100v14q0 35 23 60 23 24 51 24 35 0 52-34 14-28 14-69 0-34-16-57-18-26-46-26-33 0-56 27-22 26-22 61m269-115q0-18 16-18h13q13 0 19 12 8 17 12 47 0 1 0 1t2-9 7-20 14-20q17-17 43-17 28 0 39 9 5 5 4 12l-4 31q-2 12-13 12-5 0-13-2-15-4-24-4t-18 8-17 19q-15 24-15 51v130q0 6-4 11t-11 5h-28q-8 0-12-5t-4-11v-169q0-43-3-56t-3-17m244-65q-16 0-28-11-12-12-12-29 0-16 12-28 11-11 28-11 27 0 37 24 3 7 3 15 0 17-11 29-12 11-29 11m29 63v193q0 17 12 17 3 0 8-2 10-5 13-5 5 0 9 8l7 17q2 4 2 7 0 11-18 20-17 9-34 9t-27-4-17-12q-14-18-14-57v-191q0-6 4-11t9-5h33q6 0 9 5t4 11m93 121q0-32 10-58t30-46q38-39 98-39 66 0 102 39 35 38 35 104 0 64-40 105-38 40-97 40-63 0-101-41-37-40-37-104m78-62q-9 13-13 31t-4 35 5 33 14 29q21 28 58 28 39 0 59-27 17-24 17-65 0-62-40-86-15-8-36-8t-36 8-24 22m331-216v350q0 17 12 17 4 0 10-2 11-5 13-5 6 0 9 8l8 17q1 4 1 7 0 5-9 13-19 16-49 16-54 0-54-73v-348q0-7 4-12t9-4h33q5 0 9 4t4 12m328 404q0 13-13 13h-23q-10 0-12-4t-2-7-1-7q-1-12-4-26-19 35-60 46-14 4-32 4t-34-6-31-17q-30-25-30-67 0-45 33-69 27-19 70-19t73 25q1-8 1-21t-5-24-14-21q-19-17-52-17-30 0-60 17-6 3-11 3-6 0-12-13-7-13-7-19 0-11 16-21 31-19 82-19 47 0 78 26 36 31 36 87 0 25-8 62 21 60 22 94m-163-104q-10 8-15 15t-4 17 4 18 9 12q14 11 31 11t27-4 19-10q16-13 16-28-1-18-20-29-17-9-40-9-17 0-27 7" />
</svg>