<svg id="fnt-Cardo" viewBox="0 0 1300 1000" xmlns="http://www.w3.org/2000/svg"><path id="cardo" class="f" d="M362 583l-34 74q-1 2-6 1t-11-1-18 3-36 8-46 5q-46 0-90-22t-69-62-26-93 26-96q38-63 115-82 24-6 48-6 34 0 80 11 14 4 23 7t12 4l7-2h8q3 0 3 4v76q0 3-4 3t-6-1-1-3-2-3-1-4-1-2q-37-73-112-73-67 0-105 42t-37 114 41 121 113 50q39 0 72-23t50-57q0-1 3-1h3q3 0 3 3t-2 5m188 43q0 7 6 10t14 4 13-4 7-4 2 5-5 9q-36 27-49 27-16 0-26-32 0-3-1-2-30 22-38 27-20 11-40 4t-29-26q-5-10-5-20 0-21 16-33t58-23q15-4 27-10t12-8 0-3v-47q0-28-21-39-7-4-17-4t-20 8-10 22l1 10q-2 3-18 9t-18 8q-4 0-4-10t5-20 16-21q24-23 55-23t50 17 19 41v128m-112-7q0 12 9 21t20 8 29-10 16-20v-49q0-3-1-3t-2 0l-56 26q-9 7-12 11t-3 16m326-127q-3-1-9-4-20-9-31-9t-24 14-13 26v111q0 18 21 24 10 2 18 3t10 3 2 3-2 4h-122q-3-1-3-4 0-4 12-6 26-4 26-27v-130q0-10-11-14-5-1-11-3t-9-2-4-1-1-4 4-5l62-29q3-2 4-2 4 0 4 6v40q0 3 1 3 2 0 10-12 24-32 39-32 8 0 26 7t18 11q0 6-6 17t-11 12m184-42q11 4 14 4t3 0 1-3v-126q0-10-11-14-5-2-10-3t-9-2-4-2-1-3 3-5l63-29q3-2 3-2 4 0 4 6v348q2 10 6 15t16 5l15-1q1 0 1 2t-4 5l-65 27q-3 1-5 1t-2-6v-22q0-3-1-3-2 0-20 11-57 34-96 10-31-19-42-60-5-19-5-41t8-43 25-37q34-35 83-35 20 0 30 3m-110 105q0 37 21 65t57 28q16 0 33-8t17-12v-126q0-5-6-11-20-27-52-27t-51 27-19 64m227 2q0-48 34-83t82-34 83 33 35 83-33 83-84 34-84-34-33-82m61 63q24 40 65 40 32 0 49-26t17-63-24-76-64-40q-29 0-46 26t-17 65 20 74" />
</svg>