<svg id="fnt-Castoro" viewBox="0 0 1742 1000" xmlns="http://www.w3.org/2000/svg"><path id="castoro" class="f" d="M333 563q-6 44-9 90-27 8-56 14t-61 7q-55 0-96-22t-63-62-23-94q0-54 23-96t63-65 97-24q20 0 36 3t37 7q10 2 18 4t15 2q3 0 6 0t5-1q1 22 2 46t3 49q-10 1-17 1-20-91-103-91-33 0-57 13t-38 36-21 52-6 59q0 44 13 81t41 59 72 22q41 0 66-22t36-68q4 0 8 0t9 0m219 109q-33 0-41-33-36 34-73 34-25 0-43-16t-18-42q0-66 135-83 0-12 0-24t0-27q0-17-13-27t-30-10q-13 0-22 4 0 12-5 24t-14 20-21 8q-11 0-18-6t-6-15q0-12 11-23t29-19 37-12 34-4q18 0 34 6t25 20 10 33q0 12 0 31t-1 41-1 42 0 31q0 16 14 16 9 0 27-6 2 3 3 6t1 5q-12 14-26 20t-28 6m-41-47l1-75q-46 6-64 20t-17 34q0 18 9 27t24 9q9 0 20-4t27-11m133-37q7 33 24 50t42 17q20 0 33-9t14-29q0-15-8-24t-20-16-28-12q-19-8-35-17t-27-22-10-34q0-24 13-40t33-23 43-8q12 0 23 1t13 2q10 1 18 1t9 1 2 0 5-1q0 16 1 33t2 35q-1 0-2 0-5 0-9 0t-7 0q-6-28-19-41t-36-12q-20 0-33 9t-12 25q0 13 8 21t20 14 22 9q19 8 37 17t29 24 11 39q0 26-13 42t-34 25-43 8q-13 0-26-2t-13-2-9-1-16-2-15-1q0-16-1-35t-3-42q1 0 3 0 4 0 7-1t7 1m285 85q-30 0-48-15t-17-41q0-44 0-85t2-79h-38q-2-7 0-13 49-21 74-69 4 0 8 0t7 1q0 13-1 28t0 30h76q1 11 0 23h-76q-1 35-2 74t0 78q0 40 42 40 18 0 34-9 4 6 5 15-29 22-66 22m207 0q-37 0-64-16t-42-44-15-63q0-39 15-68t45-45 65-16q37 0 64 16t42 44 15 63q0 37-16 66t-44 46-65 17m-65-129q0 51 17 80t50 30q32 0 49-28t17-76q0-50-17-80t-49-30q-32 0-50 27t-17 77m223 123q-1-8 0-15 17-1 25-4t11-9 2-24v-112q0-20-2-29t-9-14-26-6q-2-7 0-13 20-4 39-9t40-14l8 3v44q35-44 72-44 17 0 26 9t8 21q0 13-9 20t-20 8q-10 0-19-5t-14-16q-17 0-30 13t-13 31v108q0 19 2 28t12 10 32 4q1 7 0 15-17 0-35 0t-37-1q-19 0-33 1t-30 0m322 6q-36 0-64-16t-42-44-15-63q0-39 16-68t44-45 66-16q36 0 63 16t42 44 15 63q0 37-16 66t-43 46-66 17m-64-129q0 51 16 80t51 30q32 0 49-28t17-76q0-50-17-80t-50-30q-32 0-49 27t-17 77" />
</svg>