<svg id="fnt-Catamaran" viewBox="0 0 2221 1000" xmlns="http://www.w3.org/2000/svg"><path id="catamaran" class="f" d="M254 368l13-29q-12-7-28-11t-31-6-26-2q-37 0-67 13t-51 38-31 57-11 71q0 35 9 67t30 55 49 39 69 14q14 0 31-3t31-7 26-10l-15-29q-14 6-31 10t-44 5q-27 0-48-11t-36-31-22-45-8-55q0-42 16-75t42-51 61-18q17 0 29 1t22 5 21 8m86 230q0-19 12-34t38-14h63v56q-12 14-30 25t-38 10q-16 0-26-6t-15-17-4-20m-21-159l11 30q14-6 30-11t40-6q29 0 41 17t12 41v14h-62q-39 0-64 19t-24 55q0 32 20 53t63 22q20 0 40-10t32-21l5 25h30v-167q0-24-12-43t-33-29-49-10q-10 0-26 2t-30 8-24 11m343 19l-13-30h-44v-72l-40 11v61h-35l1 30h34v146q0 23 9 38t24 24 36 8q7 0 14-1t13-3 10-4l-10-31q-3 1-10 3t-12 2q-18 0-26-12t-8-30v-140h57m82 140q0-19 12-34t38-14h63v56q-12 14-30 25t-38 10q-16 0-26-6t-15-17-4-20m-21-159l11 30q14-6 30-11t40-6q29 0 41 17t12 41v14h-62q-39 0-64 19t-24 55q0 32 20 53t63 22q20 0 40-10t32-21l5 25h30v-167q0-24-12-43t-33-29-49-10q-10 0-26 2t-30 8-24 11m235 228h39v-172q12-13 25-23t28-15 24-6q16 0 25 7t12 20 3 30v159h40v-165q0-24-8-44t-23-30-42-11q-14 0-30 5t-31 15-26 22l-7-35h-29v243m188-208l3 36q12-13 26-23t27-15 25-6q15 0 24 7t12 20 4 30v159h39v-165q0-24-7-44t-24-30-42-11q-14 0-30 5t-31 15-26 22m251 139q0-19 12-34t38-14h63v56q-12 14-30 25t-38 10q-16 0-26-6t-15-17-4-20m-21-159l11 30q14-6 30-11t40-6q29 0 41 17t12 41v14h-62q-39 0-64 19t-24 55q0 32 20 53t63 22q20 0 40-10t32-21l5 25h30v-167q0-24-12-43t-33-29-49-10q-10 0-26 2t-30 8-24 11m235 228h39v-167q11-11 25-21t31-17 30-6l-9-32q-13 0-29 7t-29 15-23 17l-12-39h-23v243m192-69q0-19 12-34t38-14h63v56q-12 14-30 25t-38 10q-16 0-26-6t-15-17-4-20m-21-159l11 30q14-6 30-11t40-6q29 0 41 17t12 41v14h-62q-39 0-64 19t-24 55q0 32 20 53t63 22q20 0 40-10t32-21l5 25h30v-167q0-24-12-43t-33-29-49-10q-10 0-26 2t-30 8-24 11m235 228h39v-172q12-13 26-23t28-15 27-6q25 0 34 16t10 41v159h39v-164q0-25-8-45t-25-30-43-11q-16 0-33 5t-32 15-26 22l-7-35h-29v243" />
</svg>