<svg id="fnt-Changa" viewBox="0 0 1577 1000" xmlns="http://www.w3.org/2000/svg"><path id="changa" class="f" d="M227 620l5 41q-18 7-38 10t-47 3q-35 0-57-8t-35-26-17-50-5-79q0-49 5-81t18-50 36-26 60-7q11 0 24 1t27 3 23 6l-7 41q-12-3-27-5t-29-3-22-1q-29 0-42 7t-13 31v198q13 4 28 6t32 2q21 0 41-4t40-9m113 47h-50v-329l49-4v99q16-11 35-16t45-5q35 0 53 10t18 32v213h-50v-214h-58q-24 0-33 6t-9 23v185m297 5q-41 0-59-18t-18-57q0-26 5-42t20-24 44-11 76-3h23v33h-82q-23 0-32 6t-8 23v54h67q23 0 31-6t9-23v-147q-19-6-51-6-19 0-41 3t-43 9l-7-36q13-5 29-8t35-6 36-1q34 0 54 6t29 22 9 42v185h-23l-14-25q-18 15-40 22t-49 8m263-5h-50v-250h23l14 25q19-16 41-23t52-7q35 0 53 10t18 32v213h-50v-214h-58q-25 0-34 6t-9 23v185m314-73q-37 0-59-9t-30-28-9-55 9-55 30-29 59-9q38 0 59 9t31 29 9 55q0 34-9 54t-31 29-59 9m-49-121v88h62q21 0 29-7t8-24v-88h-62q-21 0-29 7t-8 24m151 213q0 23-9 37t-32 20-58 6q-27 0-53-4t-44-11l6-38q26 7 44 9t38 3q20 0 35-1t29-4v-37q-51-3-73-8t-21-14l15-57h32l-3 43q30 3 48 7t29 10 13 15 4 24m18-271l-38 44-30-36 43-32 25 24m116 257q-41 0-59-18t-17-57q0-26 5-42t19-24 44-11 77-3h22v33h-81q-24 0-32 6t-9 23v54h67q24 0 32-6t8-23v-147q-18-6-50-6-20 0-41 3t-44 9l-6-36q12-5 29-8t35-6 35-1q34 0 54 6t29 22 9 42v185h-23l-13-25q-18 15-40 22t-50 8" />
</svg>