<svg id="fnt-Charm" viewBox="0 0 1231 1000" xmlns="http://www.w3.org/2000/svg"><path id="charm" class="f" d="M122 672q-44 0-67-32t-24-95q0-71 28-123t69-80 82-27q26 0 46 10t20 31q0 14-12 32-3 4-5 5t-5 2q-3 0-5-3t-2-8-1-6q-3-17-16-27t-35-10q-41 0-68 31t-41 76-13 87q0 49 18 75t51 27q27 0 51-18t40-50q3-5 6-5 2 0 2 5 0 3 0 6t-1 5q-8 26-25 47t-42 33-51 12m154 0q-4 0-4-3 1-3 3-13t5-19q3-14 21-119-1 6 12-76 10-57 26-102t45-73q17-16 32-22t33-9q6 0 12-3t8-2q3 0 3 4 0 5-9 14-4 5-8 6t-9 2-6 1q-14 2-24 8t-20 18q-20 25-30 58t-17 82q-2 16-3 24l-11 70h0q24-41 51-65t48-24q21 0 21 30 0 14-4 36-10 48-10 48-14 73-14 84 0 9 7 9 8 0 15-11t15-30q1 0 2-3t3-2q4 0 4 6l-1 8q-4 18-15 33t-24 25-24 10q-18 0-18-29 0-14 3-33t10-47 9-47 4-32q0-10-2-13t-8-4q-16 0-34 20t-31 50-19 55l-8 44q-2 13-15 24t-24 12m256 0q-25 0-25-49 0-46 20-92t55-74 74-28q21 0 36 6-7 26-9 38l-11 54q-14 64-17 88 0 4 0 9 0 11 6 11 8 0 15-11t16-29q1 0 2-3t3-2q3 0 3 6l-1 8q-3 16-14 32t-24 26-24 10q-17 0-17-29 0-11 2-22l9-44h-1q-24 42-51 68t-47 27m24-41q14 0 32-22t34-53 22-57l8-32q-15-10-32-10-21 0-39 25t-28 60-10 64q0 12 3 18t10 7m193 41q-2 0-4-1t-1-2q0-1 3-6t5-14q2-11 3-20t3-16q13-68 17-96t4-39q0-7-1-10t-5-3q-4 0-11 8t-13 17q-3 5-5 8t-3 5-3 1q-2 0-3-1t-1-4q0-10 11-27t25-30 27-13q9 0 13 7t4 24q0 22-10 59h1q48-90 88-90 11 0 16 5t6 17q0 11-5 22t-11 19-12 8q-4 0-3-5 2-7 2-11 0-12-13-12-16 0-31 18t-28 44-16 48q-6 23-7 48-1 9-9 19t-18 16-15 7m192 0q-5 0-5-3 0-2 2-8t7-24q5-24 10-51t14-88q3-19 3-26 0-7-3-7-5 0-11 8t-15 22q-2 5-4 8t-4 5-2 1q-4 0-4-5 0-10 11-29t26-32 27-14q8 0 11 7t4 18q0 11-5 45l-3 17h1q24-43 47-65t45-22q10 0 14 6t5 21q0 14-5 39l-2 14h1q22-39 45-60t41-20q21 0 21 30 0 10-5 36l-11 60q-13 64-13 72 0 9 8 9 8 0 15-11t15-30q2-5 5-5t3 6q0 4 0 8-4 18-15 33t-24 25-24 10q-18 0-18-27 0-21 12-80 2-8 7-35t6-46q0-9-1-13t-8-4q-11 0-26 17t-26 41-19 49l-16 80q0 6-11 12t-17 6q-7 0-7-6 4-20 16-86t14-96v-5q0-6-1-9t-7-3q-13 0-30 21t-30 50-17 54l-8 44q-3 13-16 24t-23 12" />
</svg>