<svg id="fnt-Charis SIL" viewBox="0 0 2231 1000" xmlns="http://www.w3.org/2000/svg"><path id="charis-sil" class="f" d="M294 574v81q-1 1-16 6t-36 9-48 5q-42 0-74-15t-55-39-34-57-11-66q0-52 22-91t61-62 92-22q24 0 46 5t53 15v78h-30l-7-45q-1-4-4-7t-5-5q-6-3-19-8t-32-5q-34 0-61 17t-43 49-16 81q0 70 34 110t93 39q17 0 28-4t12-4q8-3 9-10l12-55h29m295 73v20h-111v-20l20-1q4-1 8-4t3-7v-129q0-22-10-36t-40-14q-13 0-28 4t-26 11v164q0 10 10 11l22 1v20h-113v-20l24-1q10-1 10-11v-301h-37v-16l64-20h20v153q9-6 23-13t31-13 29-5q28 0 48 18t19 57v140q0 4 4 7t7 4l23 1m258 0v20h-74l-7-30t-7 5-20 13-27 12-29 6q-27 0-46-18t-19-50q0-14 5-26t20-23 44-21 79-21q0-1 0-6t0-10 0-5q0-50-47-50-12 0-22 3t-13 4v43h-36q-7 0-13-2t-6-12q0-21 16-34t39-19 49-6q31 0 48 9t24 27 7 39v140q0 4 3 7t8 4l24 1m-81-27v-87q-34 8-53 17t-30 17-13 17-3 18q0 15 10 28t28 13q10 0 20-3t20-9 15-8 6-3m279-193v50h-19q-5-6-11-10t-16-4q-12 0-25 8t-25 23v141q0 10 10 11l33 1v20h-125v-19l25-2q4-1 8-4t3-7v-174h-37v-16l62-19h21v44q21-25 37-37t29-13q8 0 17 2t13 5m114-84q0 13-8 22t-22 9-22-9-9-22q0-13 9-22t22-8 22 8 8 22m26 304v20h-117v-20l24-1q11-1 11-11v-179h-35v-17l61-19h20v215q0 4 3 7t7 4l26 1m192-216v59h-26l-4-35q-6-4-16-8t-22-3q-21 0-31 9t-10 24q0 11 5 19t18 15 33 18q26 12 43 26t17 39q0 37-25 58t-70 21q-23 0-43-5t-27-8v-66h26l6 42q7 5 18 10t26 4q22 0 33-12t12-27q0-19-16-30t-45-25q-27-14-42-28t-14-36q0-33 23-53t67-19q22 0 39 4t25 7m412 142q0 25-14 48t-43 39-76 15q-30 0-54-7t-35-12v-88h32l6 56q1 3 3 7t6 4q7 4 20 8t30 4q32 0 53-16t21-43q0-18-11-30t-31-23-46-24q-21-10-38-21t-29-27-10-42q0-30 15-52t41-34 59-12q26 0 49 6t39 11v78h-28l-8-48q0-2-3-5t-4-3q-4-3-14-7t-30-5q-30 0-48 17t-17 42q0 23 18 38t52 28q45 17 70 39t25 59m168 72v22h-132v-22l29-2q6 0 8-4t3-7v-266q0-4-3-7t-8-4l-29-2v-22h132v22l-31 2q-5 0-8 4t-2 7v266q0 4 2 7t8 4l31 2m273-71v93h-243v-22l29-2q5 0 8-4t2-7v-266q0-4-2-8t-8-3l-29-2v-22h127v22l-26 2q-6 0-9 3t-2 8v276h105q3 0 7-2t4-6l8-60h29" />
</svg>