<svg id="fnt-Chathura" viewBox="0 0 951 1000" xmlns="http://www.w3.org/2000/svg"><path id="chathura" class="f" d="M98 667h-36q-19 0-30-12t-10-34v-110q0-21 10-34t30-12h36q19 0 29 12t11 34v13q0 4-1 6t-5 3h-4q-6 0-6-9v-13q0-28-24-28h-36q-23 0-23 28v109q0 29 23 29h36q24 0 24-29v-13q0-8 6-8h4q3 0 4 3t2 5v14q0 22-10 34t-30 12m166 0h-4q-5 0-5-7v-101q0-26-22-26h-18q-23 0-23 25v102q0 7-6 7h-3q-3 0-4-2t-1-5v-189q0-7 5-7h3q6 0 6 7v53q7-4 13-6t10-1h18q17 0 27 11t10 31v101q0 7-6 7m127 0h-3q-3 0-6-7-14 7-23 7h-18q-17 0-26-11t-10-30v-65q0-19 10-30t26-11h50q6 0 6 6v134q0 7-6 7m-7-111v-6q0-2-1-6-1-4-4-6t-8-3h-30q-22 0-22 26v64q0 26 22 26h18q24 0 24-24 0-34 0-50t1-21m108 111h-9q-16 0-26-11t-10-30v-92h-14q-5 0-5-6v-3q0-7 5-7h14v-19q0-3 1-5t4-2h4q2 0 3 2t2 5v19h28q6 0 6 7v3q0 4-2 5t-4 1h-28v92q0 25 22 25h9q5 0 5 6v4q0 3-2 4t-3 2m122 0h-3q-5 0-5-7v-101q0-26-22-26h-18q-24 0-24 25v102q0 7-5 7h-4q-2 0-4-2t-1-5v-189q0-7 5-7h4q5 0 5 7v53q8-4 13-6t11-1h18q16 0 26 11t10 31v101q0 7-6 7m130 0h-3q-3 0-6-7-7 4-12 5t-11 2h-18q-16 0-26-11t-10-30v-100q0-6 5-6h4q3 0 4 1t2 5v99q0 26 21 26h18q24 0 24-24v-101q0-6 5-6h3q3 0 4 1t2 5v134q0 7-6 7m79-132h-9q-10 0-15 8t-6 20v97q0 7-5 7h-3q-4 0-4-7v-134q0-6 4-6h3q2 0 3 1t3 6q7-4 11-6t10-1h8q2 0 4 1t1 5v3q0 6-5 6m121 132h-3q-4 0-7-7-13 7-22 7h-18q-17 0-27-11t-9-30v-65q0-19 9-30t27-11h50q6 0 6 6v134q0 7-6 7m-8-111v-6q0-2-1-6-1-4-3-6t-8-3h-30q-22 0-22 26v64q0 26 22 26h17q25 0 25-24 0-34 0-50t0-21" />
</svg>