<svg id="fnt-Cherry Swash" viewBox="0 0 3132 1000" xmlns="http://www.w3.org/2000/svg"><path id="cherry-swash" class="f" d="M291 404q0 30-16 51t-49 21-49-22-15-55h40q0 40 24 40 12 0 19-10t6-25q0-24-22-38t-51-14q-52 0-84 39t-31 101 31 100 83 40 93-43l31 25q-45 58-121 58t-120-50-42-129 43-131 117-50q45 0 79 25t34 67m108 75v155h43v33h-124v-33h38v-310h-38v-32h81v149q51-29 93-29t58 25 17 71v129h41v21q-19 11-43 11t-33-8-8-27v-126q0-29-7-44t-35-15-83 30m450 46v26h-176q2 37 21 60t51 23q21 0 38-4t23-9 18-11l19 28q-38 34-95 34t-88-37-30-93 30-94 83-36 79 31 27 82m-42-9q-3-31-19-49t-43-18-46 18-24 49h132m148-41v159h44v33h-125v-33h39v-185h-39v-32h72l6 26q17-9 27-15t30-11 39-5l28 7-12 41-22-6q-42 0-87 21m211 0v159h43v33h-124v-33h38v-185h-38v-32h71l6 26q17-9 28-15t30-11 38-5l28 7-11 41-23-6q-42 0-86 21m155-26h-31v-32h95v32h-18l56 170 52-170h-23v-32h90v32h-23l-73 218q-19 55-42 84t-64 29q-23 0-50-9l12-35q21 6 35 6 43 0 66-68l-82-225m404-46q0-44 33-69t81-26 80 23 31 56-15 55-47 21-47-21-15-51h40q0 34 23 34 21 0 21-34 0-21-19-33t-50-12-53 14-21 39 19 40 49 31 33 17 20 10 19 11 16 12 15 14 9 15q10 15 10 38 0 42-35 63t-96 21-106-26v-67h35v40q34 15 73 15t62-14 24-36q0-20-24-37-18-13-68-37t-73-47-24-59m510 14h106v32h-29l-58 218h-44l-50-187-50 187h-44l-58-218h-28v-32h106v32h-35l40 167 47-199h44l48 199 39-167h-34v-32m204 255q-34 0-54-20t-19-53 26-56 77-22h54v-26q0-46-44-46-37 0-68 9v34h-35v-60q23-9 53-15t52-5q40 0 62 22t23 61v142h41v21q-19 11-43 11t-32-8-9-27q-37 38-84 38m5-38q43 0 79-48v-32h-55q-30 0-45 12t-15 30 9 28 27 10m188 18v-57h35v31q19 8 46 8t41-9 15-22-11-21-51-30-56-36-16-39q0-31 24-48t66-17 80 20v60h-35v-34q-22-9-47-9t-35 9-11 21 8 17q14 11 49 29 44 24 61 39t16 39q0 31-26 49t-74 19-79-19m290-173v155h44v33h-125v-33h39v-310h-39v-32h81v149q52-29 94-29t58 25 16 71v129h41v21q-18 11-43 11t-32-8-8-27v-126q0-29-8-44t-34-15-84 30" />
</svg>