<svg id="fnt-Cherish" viewBox="0 0 1088 1000" xmlns="http://www.w3.org/2000/svg"><path id="cherish" class="f" d="M56 696q-8 0-13-5t-6-5q-1-5-6-8t-8-5q-2-2-4-4t-2-4q-5-7-8-10t-2-13q0-9 3-21t8-19q1-2 3-6t3-5h0q0 4-2 6t-2 7q2-2 7-9t5-9q0 0 0 0t0 0h-1q-1 0-1 1t-1 2q-1-2-1-3 0-3 3-6t3-5v-4q4-2 7-8t5-9q1-2 3-3t3-2q2-3 2-6t3-4q2-2 5-2t3-4l-1 0 0-2q8-9 15-19t16-18q2-2 4-3t4-4q5-4 10-9t10-9q9-9 18-18t19-16q3-2 5-3t6-3q10-7 20-14t20-13q7-4 14-7t15-7q8-4 16-7t17-6q7-3 17-6t17-4q6 0 10 2t8 6q4 4 11 9t13 12 6 11q0 7-5 12t-10 8q-5 3-10 7t-12 8q-3 5-12 10t-14 5v1q-4 3-9 7t-8 5q-1 0-2 0-1 1-2 2t-1 2v0q-3 1-5 2t-4 1q-2 3-5 3 0 1-2 1t-2 3h0l-2-1q-1 2-3 2t-5 1q0 1-3 2t-3 2h-1l1-1q12-8 23-17t23-16q4-3 13-10t19-16 17-17 7-13-6-7-9-2q-10 0-15 4t-11 4l-1 1q-3 0-6 3t-7 3q-1 1-6 3t-10 5-7 4q-9 5-18 10t-17 11q-2 1-4 3t-4 3l-13 7q-1 0-5 4t-9 7-4 3q-3 2-10 8t-18 14-19 17-15 15-7 8q-5 3-9 9t-8 11q-21 26-37 49t-27 56q-1 4-2 7t-1 8q0 9 5 10t11 2q15 0 31-4t29-17q8-5 15-8t14-7q3-2 6-6t7-6q3-1 3-1t1 0 4-2v-1l1 1h1q4-2 13-9t17-14 10-7q1-1 3-2t4-2q5-3 10-10t10-8q1 0 1 3-3 5-12 13t-18 16-16 13-6 6q-2 0-8 5t-13 11-14 11-9 7q-6 5-17 11t-24 11-22 10-14 4m246-11l-5 4q-2 0-6 1t-8 0q-5 0-10-1t-7-3q0-2 0-2t-1-3q-2-3-2-2t-1-2q-1-1-1-5 0-6 1-14t1-9q0-7 1-13t4-11q2-10 7-20t9-18q4-7 9-15t9-13l2-2q-3 0-5 2t-3 5q-4 5-9 9-9 8-21 20t-23 25-21 24-13 19-6 5-3-1q-3-2-5-4t-2-5q0-3 2-6 5-8 12-18t19-29q7-10 12-19t10-19q6-6 6-9t1-5 3-7q1-1 3-6t3-5q2-4 4-9t5-8q5-7 8-13t8-12q2-1 6-9t8-14 5-7q0-3 3-6t4-5q3-4 6-8t5-8q3-4 5-7t6-7q6-9 12-15t13-14q2-2 5-6t7-5l15-6q2-2 1-4t0-3q3-3 6-5t7-4q3-1 5-3t6-3q2-1 8-5t9-4l17-9q2-1 4-1t3-1l11-2 2 0q1-2 6-3t10-1 8 0h4q1-1 2-1 7 0 12 1t10 2q2 0 4 0t4 2q2 1 8 4t7 5l-2 2-2-2q-3-2-6-4t-7-3q-2-1-4-1t-3 0q-7 0-13 2t-12 2l-9 1-8 5-2-1q-1 1-6 2t-5 3q-2 0-2-1-5 4-8 7t-9 7q-3 2-10 3t-10 3q-2 4-9 7t-11 6q-14 11-27 22t-27 22l-6 9q-20 20-37 45t-23 44l-2 4q0 2-2 3t-3 3l0 3q-9 16-13 23t-5 11-2 6l-7 10-8 15-4 6-4 7-3 4-2 6q-1 2-4 6t-5 9q2-2 3-4t4-4l7-8 4-6q5-7 11-12t12-12q0-1 4-5t4-3q1-4 5-7t7-5l12-13 0 0 1 0v0q1-3 4-5t5-4q3-3 9-10t14-7q4 0 7 2 2 0 5 4t7 6 1 4q-2 2-3 3-2 1-7 6t-7 4q0 0-2 3t-12 16q-1-1-5 6t-5 9q-3 5-6 9t-6 9v0q0 2-1 3t-2 2v3q0 2-3 6t-4 11q1 1 1 4 0 6-4 9t-3 11q0 2 0 11t4 14q2 2 4 2 5 0 11-4t8-4l3-2q0 1 0 1-1 1-3 3t-2 4q-1 0-1 0m50-11q-4 2-11 2-7 0-13-3-9-3-12-12-2-2-3-5t-1-7q0-6 3-12t6-10q7-11 11-22t15-20q1-1 6-7t11-11 7-5q-1 0 1-2t2-1l14-15 1 0q1 0 1-2t3-3l3 0 1-4q2-4 3-6t5-3l14-9 16-12q1-1 1-2t1-1q4-1 4-1t0 0q2-1 5-2t7-1q4 0 9 5t9 9 5 10l-1 5q2 6-5 12t-15 11-13 8l-7 6-8 4h-3l-3 3q0-1-1-1-3 3-7 3h0q-2 2-5 3t-5 3l-7 5q-2 1-5 1t-4 2l-4 2-12 3-2 1q-1 1-2 0t1-2 2-1q4-3 8-6t9-5q2-1 5-4t7-2q0-1 4-4t7-5 5-2q1 0 1 0 2-4 6-6t7-3l11-8q5-4 11-10t10-11q1-1 2-3t1-3v0h-1q-3 3-7 4t-8 3l-5 4q-7 4-15 8t-14 10q-2 0-2 2-1 0-7 4t-10 8-5 4q-1 2-5 4t-3 5h-4v4h-2v0q0 1-2 3t-2 2q-1 1-1 0-1 1-2 1t-2 2l-3 6h-1l2 4q-1 0-4 2t-4 3h0v3q-4 0-5 3t-2 5l-5 6-5 7-4 5q-1 1-2 2t1 2h0l2-4q1 2-3 9t-4 9q-1 1-1 2t0 3q0 3 0 5l-1 3q0 1-1 1t0 1q0 3 4 4t7 0q2 0 7-3t9-5 5-4l0 1h2q2-3 5-5t6-4q8-6 16-13 14-11 28-25t26-27q2-2 3-2t1 1-1 4q-2 3-8 8t-12 14l-21 23q-8 10-17 18t-18 15q-4 3-9 6t-8 5m98-93q-1 0-1-2t1-2q0 0 2-1t2-1 0 1-2 2-2 3m-14 109q-4-1-8-3t-6-6q-1-1-1-4 0-4 2-7t4-6q5-8 10-16t12-16q4-6 8-12t8-11q0 0 2-2t8-9h-1q0-2 1-2 1-2 1-4 2-1 4-5t3-3l-1-2q3-2 6-8t5-8q6-7 11-14t10-14l0-1h0q-2 2-5 2-3 0-6-2t-5-3l-3-2q-3 3-6 6t-6 6l-28 32-11 12q-2 2-4 2t-2-1q0-2 4-6 5-6 11-11t10-11q4-5 8-10t8-9q3-4 6-8t6-8v-1q0-1-1-2t-1-3q0-3 1-7t2-6q6-10 13-19t16-18q3-4 7-7t7-6l6-5 5-2q4 0 10 5t5 8q0 3-5 7t-6 8l-8 9-4 3-6 6q-1 2-3 4t-3 3q-1 2-3 2-2 3-10 8t-7 9q0 0-2 4t2 4v0h1q1 0 4-2t4-1h1q2-2 3-2t4-1q2-1 3-2t3-2q2 0 5 0 6 0 11 3t8 9l0 1q0 2-1 3l-7 3-4 3-3 1-7 7 0 0q-2 0-2 1-2 3-4 3h0v3q-1 0-2 1t-2 2q-1 0-1 0h-1l1 2q-4 1-6 3-1 1-2 3t-1 2q-2 2-5 6t-4 5q0 1-1 1v0l-3 2q0 2-4 6t-7 7-3 5l1 1h-1q-2 2-6 7t-4 7h0t-2 1-4 7q-2 1-6 6t-4 8q0 0-1 0-2 4-5 10t0 7q9-6 17-13 7-7 15-14t15-14q5-6 10-12t11-11l10-9q1-2 2-2 1 0-2 4t-3 5q-4 4-7 8t-6 8q-4 4-8 9t-8 10q-2 2-4 4t-4 3q-3 4-7 8t-6 9q-1 2-3 5t-3 5l0 0-6 8q-2 2-3 2t-3 2l-2 3q-6 10-17 15 0 0-2 0t-2 1m98-108q-2 0-2-2t2-2q0 0 1-1t2-1 1 1q0 1-2 3t-2 2m118-90t-6-1-11-5q-2-1-5-3t-1-5q1-1 2-1 2-2 3-4t3-3q10-12 20-23t23-19q4-4 7-7t8-6q6-2 7-1t2 2q0 0-1 0-1 3-2 5-2 3-5 5t-4 5q0 2 0 2-2 2-8 7t-5 7q-1 0-1 1h-1q0 3-3 5t-5 5q-2 2-3 4t-2 6q-2 2-4 3t-2 3q-2 4-1 8t0 8q-1 2-3 2t-2 0m-135 185q-13-5-11-20l2-4q2-4 4-8t3-7q11-18 21-36t23-35q1 0 1-1t1-1v-1q2-2 7-9t9-14 9-12q-3 3-7 6t-7 7q-1 2-7 8t-13 14-12 14-7 8q-6 7-9 7-1 0-1-1 0-2 4-7l16-18q3-4 6-7t7-7q2-2 4-5t5-6l8-8q3-3 5-6t5-6q15-15 21-19t9-2q1-1 3-1t3 1 2 1q2 1 6 4t7 6-1 6q-3 4-7 5t-7 5q-3 2-6 5t-4 5l0 1q0 5-7 11t-12 10q-1 1-2 5h-1l-2 0q-1 4-5 6t-3 6q-3 1-5 7t-5 5v2q0 2-3 5t-5 4q0 0 0 1t0 1q-2 2-2 6h-2v0l1 3-3 0q0 2-3 7t-6 5v0h0l2 3h0v0h-1q-2-1-3-1v1q1 2 1 3 0 3-3 3 0 0 0 0l1 1v1q-4 0-4 5h-1l-1 0q-1 3-2 7t-3 7q0 3-2 5t-1 5h1v0q5-4 13-9t12-9l39-37 15-14q1-1 4-4t5-3q1-1 3 0t1 2l-14 12q-6 5-9 10t-9 10q-4 4-8 9t-9 8l-13 12q-5 4-9 9t-9 9l-7 6q-2 1-5 3t-6 1q-2 0-5-1m105-92q-1 0-1-2t1-2 2-1 2-1 1 1q0 1-2 3t-3 2m-18 139q-3-2-7-5t-4-5l-3-8q-1-4-3-7t-2-8q1-16 9-29t18-26q9-11 18-22t21-19q4-3 7-6t8-4l4-2 1 1q-3 3-6 5t-7 5l-3 3-5 3q-2 2-3 3t-3 3q-3 3-7 7t-6 8q-1 1-3 4-4 5-7 10t-6 11q-2 3-4 6t-3 8q-2 4-3 9t-3 9v6q0 3 0 8t-1 11q0 7 2 12t9 6q3-2 9-2l9-4 17-13q11-8 19-19t16-21q8-11 16-24t7-27q0-4 0-7t-3-6q-2-1-6-8t-7-9q-3-3-7-9t-8-14q-1-3-3-7t-3-7q-1 0-2 2t-2 2l-3 3q-4 3-7 7t-7 7q-5 6-12 12t-12 12q-1 1-5 5t-7 7l-1 0q-1 0-2-2t1-3q1-3 4-6t4-4q6-6 10-10t10-10q4-4 8-9t9-8q6-5 8-10t4-8q-1-4-1-8 0-5 2-11t8-13 16-16 21-15q5-2 11-5t11-4q2 0 2 1t1 1 3-1 3-1q4 0 8 6t5 9q1 1 3 4t1 5q0 0 0 1t-3 1q-3 0-9-4-7 1-8 2t-5 3q0 0-2 2t-4 3h-1q-1 2-2 2l-2 2q-2 4-10 10t-11 9l-16 16q-2 2-6 5t-4 6q-1 5 3 13t11 17 9 12q4 6 7 11t5 11l4 15q1 2 1 3t0 4q0 4 0 7t-1 8q0 2-1 4t0 4q-1 1-1 1t0 0q-1 0-2-1t-3 3q-1 2-1 2 0 2 2 1t-1 4q0 1-4 4t-6 8-3 5l-1-1v3q-3 0-4 2t-3 5q-1 1-4 2t-3 2l-1 4h-1l0 1h0v1q-2 0-5 2t-2 4q0 1-1 1l-3-1v-1h-1q0 4-7 7t-6 4l1 2q-5 0-10 3t-9 5q-4 2-10 3t-12 2-10-3m73-191v0h0q5-7 13-14t15-14q3-2 5-5t4-5h1l3-3q1-4 1-5t0-1 0 0q-1 0-4 2t-5 3l-7 6q-6 6-11 12l-9 8q-3 2-4 4t-3 5q0 1 0 4t1 3m169 152l-5 4q-2 0-6 1t-8 0q-5 0-10-1t-7-3q0-2 0-2t-1-3q-2-3-2-2t-1-2q-1-1-1-5 0-6 1-14t1-9q0-7 1-13t4-11q2-10 7-20t9-18q4-7 9-15t9-13l2-2q-3 0-5 2t-3 5q-4 5-9 9-9 8-21 20t-23 25-21 24-13 19-6 5-3-1q-3-2-5-4t-2-5q0-3 2-6 5-8 12-18t19-29q7-10 12-19t10-19q6-6 6-9t1-5 3-7q1-1 3-6t3-5q2-4 4-9t5-8q5-7 8-13t8-12q2-1 6-9t8-14 5-7q0-3 3-6t4-5q3-4 6-8t5-8q3-4 5-7t6-7q6-9 12-15t13-14q2-2 5-6t7-5l15-6q2-2 1-4t0-3q3-3 6-5t7-4q3-1 5-3t6-3q2-1 8-5t9-4l17-9q2-1 4-1t3-1l11-2 2 0q1-2 6-3t10-1 8 0h4q1-1 2-1 7 0 12 1t10 2q2 0 4 0t4 2q2 1 8 4t7 5l-2 2-2-2q-3-2-6-4t-7-3q-2-1-4-1t-3 0q-7 0-13 2t-12 2l-9 1-8 5-2-1q-1 1-6 2t-5 3q-2 0-2-1-5 4-8 7t-9 7q-3 2-10 3t-10 3q-2 4-9 7t-11 6q-14 11-27 22t-27 22l-6 9q-20 20-37 45t-23 44l-2 4q0 2-2 3t-3 3l0 3q-9 16-13 23t-5 11-2 6l-7 10-8 15-4 6-4 7-3 4-2 6q-1 2-4 6t-5 9q2-2 3-4t4-4l7-8 4-6q5-7 11-12t12-12q0-1 4-5t4-3q1-4 5-7t7-5l12-13 0 0 1 0v0q1-3 4-5t5-4q3-3 9-10t14-7q4 0 7 2 2 0 5 4t7 6 1 4q-2 2-3 3-2 1-7 6t-7 4q0 0-2 3t-12 16q-1-1-5 6t-5 9q-3 5-6 9t-6 9v0q0 2-1 3t-2 2v3q0 2-3 6t-4 11q1 1 1 4 0 6-4 9t-3 11q0 2 0 11t4 14q2 2 4 2 5 0 11-4t8-4l3-2q0 1 0 1-1 1-3 3t-2 4q-1 0-1 0" />
</svg>