<svg id="fnt-Chonburi" viewBox="0 0 2678 1000" xmlns="http://www.w3.org/2000/svg"><path id="chonburi" class="f" d="M253 648q28 0 50-9t42-25l10 11q-22 20-57 34t-78 14q-84 0-138-45t-54-141q0-91 54-134t141-42q35 0 69 6t53 16l-7 86h-14q-14-42-38-68t-63-26q-45 0-65 37t-20 112q0 87 26 130t89 44m459-5q0 5 2 7t10 4l17 4v9h-104q-13 0-19-7t-6-21v-152q0-23-8-32t-24-10q-30 0-61 25v173q0 5 2 7t9 4l17 4v9h-158v-9l18-4q7-2 9-4t3-7v-302q0-6-3-8t-9-3l-18-4v-9l120-15h10v153q19-16 46-27t60-10q47 0 67 19t20 59v147m377-98q0 65-40 96t-116 32-116-32-40-96 40-96 116-31 116 31 40 96m-208 0q0 45 4 69t16 35 32 11 33-11 15-35 4-69-4-68-15-35-33-11-32 11-16 35-4 68m568 98q0 5 2 7t10 4l17 4v9h-104q-13 0-19-7t-6-21v-152q0-23-8-32t-24-10q-30 0-61 25v173q0 5 2 7t9 4l17 4v9h-158v-9l18-4q7-2 9-4t3-7v-189q0-6-3-8t-9-3l-18-4v-9l120-15h9v40q19-15 46-26t61-11q47 0 67 19t20 59v147m82-302q0-6-3-8t-9-3l-18-4v-9l120-15h10v141q33-25 86-25 55 0 88 30t32 95q0 67-33 98t-87 32q-56 0-87-34v28h-129v-9l18-4q7-2 9-4t3-7v-302m154 98q-31 0-54 19v165q11 13 26 20t30 8q18 0 28-11t15-35 4-62q0-56-11-80t-38-24m409 15q0-6-3-8t-9-3l-18-4v-9l121-15h9v228q0 5 2 7t10 4l17 4v9h-101q-15 0-21-7t-6-19v-6q-18 16-46 27t-61 11q-46 0-66-20t-20-58v-141q0-6-3-8t-9-3l-18-4v-9l121-15h9v189q0 22 7 32t24 9q30 0 61-25v-166m282 10q43-45 88-45 17 0 26 4l-7 78h-4l-102-22v164q0 5 2 7t9 4l17 4v9h-158v-9l18-4q7-2 9-4t3-7v-189q0-6-3-8t-9-3l-18-4v-9l120-15h9v49m222-78q-24 0-38-11t-14-31 14-32 38-10 37 10 14 32-14 31-37 11m-80 281v-9l18-4q7-2 9-4t3-7v-189q0-6-3-8t-9-3l-18-4v-9l120-15h10v228q0 5 2 7t10 4l17 4v9h-159" />
</svg>