<svg id="fnt-Codystar" viewBox="0 0 2665 1000" xmlns="http://www.w3.org/2000/svg"><path id="codystar" class="f" d="M316 356q0 7-4 9t-10 2q-1-3-3-4t-2-5q0-4 3-8t8-3q3 0 6 3t2 6m-27-23l-1 7q-3 2-5 3t-3 3q-5-1-8-4-1-2-2-3t-1-4q0-1 1-3 2-3 5-4t7-2h4q0 4 1 4t2 3m-32-22q-1 4-2 7t-4 5h-9q-1-2-2-4t-2-3q1-5 2-7l1-5q3 0 4 0t3 0q3 0 5 2t4 5m-41-8q0 5-2 8t-7 3q-4 0-7-3t-3-6q0-4 5-7t8-2h3q1 2 2 3t1 4m-43 2q-2 2-1 2t0 3q0 3-2 4t-3 5q-2-1-5-1t-5-1q-2-3-3-4t-2-5q0-6 6-8t11-2q0 3 1 4t3 3m-47 22q-1 2-4 6t-6 3q-1 0-4-1t-4-1q-1-2-2-4t-2-4q1-1 2-4t2-3q2-2 3-2t1-3q3 1 6 2t6 2q0 2 0 5t2 4m-36 31q-2 4-4 7t-6 4q-2-1-5-1t-4-3q-2-5-2-7 0-4 3-5t5-5q8 3 13 10m229 259q0 3-2 6-2 1-4 3t-5 2q-4 0-7-4t-3-7q0-5 3-7t5-3q4 0 6 0t6 1q0 2 0 4t1 5m-251-219q0 4-3 7t-7 3q-9 0-9-9 0-2 1-5t1-6h5q5 0 9 3t3 7m219 249q0 2-1 4t-2 4q-3 0-4 1t-5 0q-4 0-6-2t-2-6 2-7 6-3 8 2 4 7m-244-216l5 8q0 5-4 9-2 1-5 2t-6 2q-1-4-3-7t-2-6q1-2 5-5t6-4q1 0 2 1t2 0m205 235v4q-2 2-4 3t-5 1q-4 0-6-2t-4-6q0-4 1-4t0-4q3-1 4-2t3-3q2 1 5 2t5 2q1 2 1 4t0 5m-201-177q0 3-1 8-3 2-4 3t-6 1q-9 0-9-8 0-5 3-8t7-4q4 0 7 2t3 6m151 185l-2 3h-3q-2 0-3 1t-2 0q-2-2-4-4t-3-4q1-4 2-7t5-5q2 0 4 0t4 0q2 4 5 7-1 3-1 4 0 4-1 4 0 1-1 1m-142-138q0 4-1 6t-3 5q-2 1-3 1t-4 1q-3 0-6-2t-4-5q1-3 1-6 0-2 1-4 2-1 5-2t5-1q1 0 5 3t4 4m98 125q-1 2-2 3t0 4q-3 2-6 3t-5 2q-4 0-7-3t-3-6q0-3 3-7t6-5q1 1 2 1t3 0h2q2 3 3 4t4 4m-82-71q-1 5-3 8t-8 4h-4q-1-2-2-4t-2-4q-1-3-1-3 0-1 0-3t1-2q5-3 10-3 1 0 4 1 1 2 2 3t3 3m41 47q-2 4-3 6t-6 4q-3-1-7-3t-4-6q0-3 2-6 2-1 4-2t5-1q4 0 6 2t3 6m575-264q-2 4-4 6t-5 5h-3q-2 0-4 0t-3 0q-1-3-3-4t-2-5q0-6 2-7t7-2q3-1 5-1 1 0 4 4t6 4m-38-33q0 3-2 6t-3 5q-5-1-11-2t-5-8q0-2 1-4t0-3q5-4 10-4 3 0 5 1t4 3q0 2 1 3t0 3m-47-32l5 1q-1 3-1 5t-4 4q0 6-7 6-3 0-6-1-1-3-3-5t-1-4q0-2 1-4l5-5h3q4 0 8 3m108 121q-3 5-9 5-4 0-6-1t-6-4v-6q0-2 1-4 2-1 5-3t5-2q1 0 4 1 3 5 3 7t3 7m-159-121q0 4-5 6t-8 2q-3-2-5-4t-5-2q1-2 2-3t0-4q0-2 5-5t6-4q2 2 4 4t5 3q0 2 0 3t1 4m167 164l1 10q-4 7-12 7-1 0-2 0t-3-1q-1-2-3-4t-1-5q0-3 2-7 2-2 5-2t5-2q3 3 8 4m-4 69q0 1-1 4-4 4-9 4-2 0-4-1t-3 0q-1-2-2-4t-1-4q0-2 1-3t0-3q1-1 3-1t2-3q2-1 4-1 3 0 4 1t4 2q1 2 2 4t0 5m-221-213q-4 2-6 4t-6 2h-3q-1-1-3-3t-2-3q-1-2-1-3t0-3q0-2 1-3t1-3q4-2 6-2 3 0 6 2t5 3v2q0 2 1 4t1 3m195 268q-1 11-11 11-5 0-7-3t-3-6q1-4 4-7t7-3q2 0 6 2 0 2 1 3t3 3m-245-241q0 5-4 8t-8 3q-3 0-6-3t-3-6q0-3 2-6t4-4l4-1q4 1 7 3t4 6m202 289v5q-2 1-5 2t-6 0q-3 0-6-2t-5-4q2-4 5-8t8-4q4 0 6 4t3 7m-236-237q0 2-1 3t0 3q-2 2-5 3t-6 1q-2 0-5-1-1-2-2-3t-3-4q1-6 4-9 2-1 4-2t5 0h5q1 2 2 4t2 5m-15 56q0 7-3 12t-11 5q-2-2-4-4t-3-4q0-2 1-4t0-3q2-1 5-3t5-3 4 2 6 2m191 206q0 4-1 5-2 2-5 3t-5 2q-2-2-4-3t-4-2q0-1 0-2t-1-3 1-4q1-2 4-4t4-2q4 0 5 1t3 1q3 4 3 8m-189-136v2q-2 4-4 6t-6 3q-6 0-10-5-1-4-1-7t2-5 3-4q2 1 4 1t4 0q2 3 5 3t3 6m129 139q0 3-3 6t-6 3q-5 0-7-2t-3-4-1-5-3-6q3 0 5-1t2-1 2-1 3-2q5 1 8 4t3 9m-107-76q0 2-1 4t-2 3q-1 1-4 2t-3 1q-2 0-3-1t-3-1q-1 0-1 0t-2 1q-1-4-1-5t-1-5l-1-2 6-8q0 1 2 2 1 0 2-1t2 0q2 0 5 2t4 3q1 4 1 5m47 46q0 3-2 4t-3 4q-2 1-3 2t-4 0q-3 0-6-3t-5-4q1-4 2-7t4-7q5 0 11 3t6 8m586-303q-2 2-2 4t0 4q-2 2-5 4t-5 3q-4 0-8-4-1-4-1-6 0-4 2-8t8-3q3 0 5 2t6 4m32 42q-1 1-2 3 0 0 0 2 0 1 0 2-2 0-3 1t-4 0q-7 0-11-7 2-4 4-9t8-4q4 2 6 5t2 7m-78-57q0 1-1 5-5 4-9 4t-7-3q-2-4-2-7 0-2 1-5 2-1 3-3t4-1 7 3 4 7m91 93l-1 13q-2 0-3 1t-4 0q-3 0-6-1t-4-3q-1-2-1-6 0-2 1-3t1-4q3-2 5-3t5-1q1 3 3 4t4 3m-137-101q0 1-1 3-1 2-3 4t-3 3q-6 0-9-3t-4-8v-3q2-1 4-3t2-2q3-1 5-1 2 0 4 1t4 2q0 2 1 3t0 4m147 150q0 3 0 5t-1 4q-2 2-4 3t-4 1q-4 0-6-3t-3-7q0-4 4-8 4-1 5-1 5 0 8 2 1 3 1 4m-193-154q-3 4-4 7t-7 4q-4-2-7-4t-2-7q0-2 1-5 2-1 5-2t5-1q4 0 6 3t3 5m191 200l2 6q-1 4-5 8-2 1-3 1t-4 0q-2 0-3-1-1-2-3-3t-3-3q0-7 2-9l11-5q1 2 2 4t4 2m-236-198q0 1 0 2t0 3q-3 1-4 3t-4 3q-1 0-3 0t-3 1q-3 0-5-4t-3-7q0-4 4-7t7-2q3 0 7 2t4 6m231 245q0 4-3 8t-8 3q-3 0-6-1 0-2-2-3t-3-2q1-3 1-4t0-4q4-3 7-4t8-3l-1 2q4 2 6 2 1 3 1 6m-283-241q0 3-2 5t-4 4q-3 0-6-1t-5-3q-4-2-4-5 0-4 4-7t8-3 6 3 3 7m257 278l8 9q-1 4-4 8t-8 4q-4 0-6-3t-4-5q0-3 1-6 1-1 1-2 0-1 1-2 2-1 3-1 4-2 6-2h2m-256-235v3q0 2 0 3t0 4q-3 1-5 3t-6 2q-4 0-6-4t-3-7q0-4 4-6t8-2q2 0 4 1t4 3m223 277q-1 3-2 6t-2 7q0 0-2 0-2 0-3 1t-3 0q-2-1-4-2t-3-1q-1-4-1-8 2-3 3-6t6-4q2 0 5 1 2 1 3 3t3 3m-225-226q-1 2-1 4t-1 4q-2 1-4 3t-5 2q-4 0-7-2t-5-7q1-2 2-4t2-4q3-1 5-2t5-1q2 2 4 4t5 3m3 44v4q0 3-1 5t-1 4q-3 0-5 1t-5 1q-3 0-5-4t-2-6q0-4 2-7t7-4q3 0 5 3t5 3m170 201l-5 10q-4 2-7 2-2 0-4-1t-3 0l-3-14q4-5 11-5 4 0 7 3 1 3 1 3t3 2m-177-154l1 4q1 3 1 4 0 3-1 5t-4 5q-3 1-5 1-2 0-7-2-3-3-3-8 0-5 2-7 5-4 9-4 3 0 3 1t4 1m111 157q0 4-1 4t-1 5q-2 0-5 2t-5 1q-3 0-5-4t-3-7q0-4 4-7t7-2h3q3 1 4 4t2 4m-104-95q-1 4-4 7t-6 5q-3-3-6-4t-3-6q0-2 0-3t0-4q2-1 5-3t5-2q3 0 6 3t3 7m56 94q0 3-1 6t-2 6q-3 0-5 1t-3 1q-5 0-7-4t-3-8q0-4 2-6t5-4q5 1 8 2t6 6m-57-47q0 4-4 5-1 2-3 4t-5 1q-2 0-5-2l-5-10 6-6q4-2 8-2 5 0 8 5 0 1 0 3t0 2m0 49q0 2-2 4t-2 5h-2q-1 1-3 1t-2 1-4-1q-1-3-2-3t-3-2q-1-3-1-4t-1-4q1-2 3-3t4-3q1-1 5-1h2q3 2 5 4t3 6m587-356l3 6q-2 2-3 5t-3 4q-2 0-3 0t-2 0q-4 0-6-1t-4-2q0-2-1-4t0-4q0-3 4-5t7-3q4 0 5 2t3 2m-25 51q-1 4-4 5t-5 5q-3-2-8-3-2-3-3-5t-2-4 2-5 3-5h4q2 0 4 1t4 0q4 6 5 11m-30 45q-3 1-4 2t-2 4q-3 1-5 1-8 0-13-7 0-2 0-4t1-4q3-4 7-5t9-2q2 2 3 4t3 3q-1 1-1 2t0 1q1 2 2 5m-33 40v2q0 2-1 4t-1 5q-1-1-3-1-1 1-3 1t-2 1q-3 0-6-3t-5-4v-2q0-8 5-9t10-2q2 4 3 4t3 4m-156-124v4q-5 1-8 1t-6 0-5-2q-2-2-3-5t-2-6q2-3 5-4t6-4q3 1 6 3t7 4q0 2 0 4t0 5m32 37q0 2-1 3t0 3q-6 3-11 3-4 0-8-1-1-2-1-5t-1-5q0-7 4-7t9-2q3 2 6 5t3 6m27 34q-2 5-2 8-2 4-4 7t-7 2q-3 0-5-1t-4-2v-4q0-7 3-11t10-4q3 4 9 5m32 56q-2 2-3 6-2 1-4 2t-4 1q-4 0-6-2t-6-5q1 0 2-2-1-1-1-3 0-6 6-7t10-2q2 3 4 5t2 7m34 43q-1 3-2 6t-1 6l-3-1q-1 0-2 1t-2 1q-3 0-5-2t-5-2q0-3-1-4t-1-4q2-3 5-6t6-3q1 0 3 0t2 1q2 1 3 3t3 4m1 48q-1 4-2 7t-1 7q-2 0-4 2t-5 1q-5 0-10-4 0-1 0-3t-2-2q2-13 15-13 4 4 9 5m1 71q-3 2-5 5t-7 3q-5 0-7-1t-3-4-2-5-3-6q6-2 8-3t6-5q3 2 6 4t3 4q2 3 1 4t3 4m-4 49l4 2q-1 1-2 3 0 1 0 2t0 3l-4 7q-2 0-4 1t-3 0q-3 0-5-1t-4-2q-1-2-2-4t0-4 1-7q3-1 5-2t5-2q6 0 9 4m353-315q0 2-1 4t-2 4q-5 2-8 2-11 0-11-10 0-3 2-5t3-5l7 0 9 5q1 3 1 5m29 28v2q0 2-1 2t0 3q-2 3-3 3t-4 1q-2 1-5 1-1 0-1 0t-2 1q-1-2-3-3t-3-2v-12q3 0 5-2t6-2q4 0 6 2t5 6m-64-58v4q0 3-1 6t-4 4q-4 1-5 1-3 0-5-1t-5-2q0-2-1-3t0-4q0-3 4-7t7-3 5 2 5 3m-44-1q-2 2-5 4t-5 4l-12-2-3-12q3-3 6-4t7-2q1 0 4 1 3 2 4 6t4 5m-50 8q0 2-1 3-4 3-5 3t-5 1q-1 0-2 1t-3 1h-3q0-4 0-5t-3-4q2-4 5-8t8-3q2 0 3 1 2 2 4 4t2 6m132 190v4q0 4-3 6t-6 4q-4-1-7-2t-6-5v-5q0-2 1-5l6-5 6-1 6 5q1 3 3 4m-172-157q-5 2-8 2t-7 2q-3-2-5-4t-3-6q0-4 3-7t7-4l3 4q1-1 3-1 5 0 5 4t0 5q0 3 2 5m201 209q0 2 0 3-1 1-2 3t-3 2q-1 0-2 0t-2 1q-2 0-4-1-1-1-4-2t-3-3q-2-3-2-4 0-3 2-5t2-4q2-1 5-1t4-2q4 2 7 5t2 8m-82-74q0 2-1 4t0 4q-3 1-5 3t-5 1-5-1-5-2l2-3q-1-1-2-2t-1-3q0-1 1-3t1-4q5-3 10-3 3 0 6 2 0 2 2 3t2 4m-53-13q-1 6-4 10-4 1-8 1-2 0-7-2-2-3-2-7 0-6 2-9 2 0 3-1t3 0h2q5 2 6 3t5 5m-78-77q0 2 0 5 0 4-4 6t-6 2q-5 0-8-3t-3-7 2-6 5-4q4 1 7 3t7 4m204 220q-1 2-2 5t0 5q-3 0-5 1t-4 1q-1 0-4-2-1 0-3 1-2-7-6-10l5-10q2 1 3 1t2-1 2-2q2 2 3 3 1 0 3 0 2 2 3 4t3 4m-180-171v6q0 5-3 7t-6 4q-7-2-9-5-2-4-2-6t1-5 1-5q1 0 3 0t2 1q1 0 3-1t2 0q3 2 4 3t4 1m139 209q0 5-4 8t-7 4q-2-1-4-2t-4-1q-1-3-3-4t-2-5q1-2 2-4t3-4q2-1 4-2t4-1q2 0 5 1 2 3 4 5t2 5m-59 14q0 4-3 7t-7 3q-3 0-5-1t-5-1q-1-2-2-4t0-5v-5q3-2 6-2t6-3l9 7q1 3 1 4m-61-18l5 8q-4 11-13 11h-2q-3-2-4-4t-4-5q2-4 2-7 3-4 7-4 2 0 4 1t5 0m-44-11q-2 2-5 4t-6 2q-2 0-3 0t-3-1q-4-4-4-5t-2-5q3-3 5-6t7-4q3 0 6 2t5 3q0 2 0 5t0 5m557-325q0 1-1 4l-5 5h-3q-2 0-4 0t-4-1q-1-2-3-4t-1-6q5-8 11-8 1 0 3 1t2 0q2 2 4 4t1 5m-47-3v3q0 3-2 5t-3 4q-2 0-4 1t-3 0-5-1l-6-6q2-2 2-3t-1-3q0-1 1-2l5-5q3 0 5 0t6 0q1 2 2 4t3 3m-47 2q-1 6-4 8t-9 3q-1 0-5-1 0-1-3-4t-1-4q0 0 0-2 0-3 3-6t7-4q2 0 4 1t4 2q1 2 2 4t2 3m-50 4q-2 2-4 3v2q-2 1-4 1t-5 2q-2-1-4-3t-6-3q0-2 0-5t0-5q3-1 5-3t6-4l8 3q1 4 2 6t2 6m-48-2q0 3-2 3-1 2-2 3t-2 3h-4q-9 0-10-3t-3-9q0-3 2-4t1-3q3-1 4-2t5 0 4 1 3 1q0 3 2 5t2 5m49 55q-2 4-4 7t-7 5q-3-1-3-1t-3 1l-2-1q-2-3-3-5t-3-4q3-3 3-7 5-4 9-4 2 0 3 1t3 0q1 2 2 3t0 2 2 2 3 1m-99-52q-4 4-7 5t-8 0q-5 0-6-4t-2-9q3-2 6-5t6-2l3-1q2 3 3 4t3 3 1 4 1 5m99 112q-1 1-2 4t-1 3q-2 1-3 2t-4 3q-2-2-4-2t-3 0q-2-3-3-3t-4-1q1-5 3-11t8-6q6 0 8 4t5 7m-150-115q0 3-3 7-2 1-4 1t-4 1q-4 0-6-3t-5-6q1-5 1-7 3-2 6-3t5-1q2 0 4 0t3 1q1 2 2 5t1 5m149 173q-2 4-3 7t-8 4q-2 0-3-1t-4-1q-2-2-2-4t-3-3q0-4 1-5t3-5l9-3q2 2 3 3t5 1q0 4 0 4t2 3m0 56v2q0 3-2 3t0 3q-2 2-4 3t-6 2q-1 0-2-1t-4-1q0-1-3-4t-2-4q0-4 4-7t8-4q2 0 5 3t6 5m-4 55l2 8q-1 3-3 4t-2 4l-12-1q-1-3-4-5t-2-5q2-4 4-7t7-3q6 0 10 5m4 64q0 1-1 4-2 2-4 4t-6 2-3-1-3 0q-2-3-4-5t-2-6 3-5 4-4h3q3 0 8 1 1 2 3 5t2 5m340-353q0 4-1 7t-3 6h-8q-3-2-5-3t-3-4q0-2 1-4t0-3q3-5 9-5 2 0 6 1 1 2 1 3t3 2m27 48q-1 2-3 4t-3 4l-2 1q-4 0-7-1t-6-4q1-4 3-9t6-4q5 0 8 2t4 7m23 63l-6 6q-3 1-4 1-2 0-5-1t-4-2q-1-1-1-2t-1-4q0 0 1-3 5-5 13-5 4 4 7 10m-73-54q0 4-4 6t-7 3q-2 0-4-1-1 1-2 1t-2 1q0-3-1-6t-1-7 2-4 3-3q3 0 6 0t5 0q1 3 3 5t2 5m96 106q0 2-1 4t-1 4q-2 0-4 1t-4 2-5-2-5-2q0-1 0-2t1-2-1-2-1-2q3-3 6-6t6-2q4 0 6 2t3 7m15 55q0 6-4 7t-8 3q-2-2-4-3t-3-4q-1-2-1-5t-2-5q3-1 7-3t7-1q4 0 6 3t2 8m21 39q0 3-2 8-2 1-4 2t-5 0q-9 0-9-8 0-1 1-3t0-2l5-6q2 1 4 1t5 1q3 3 5 7m-158-146q-3 3-7 5t-8 3q-2 0-5-3-2-3-2-7 0-2 1-3t0-3q2-1 4-2t4-2q2 0 3 2 2 0 4 0t3 1q1 3 1 5t2 4m89 116q0 5-4 8-4 1-10 3l-7-5q1-2 0-4t0-4q2-5 4-6t3-2 2 0 3-2l7 4v2q0 2 1 3t1 3m82 80l2 2q-2 6-5 8t-9 5q-2-3-4-5t-4-4q0-2 1-3t0-5q2-1 3-2t3-3q3 1 6 1t6 2q0 3 1 4m19 52q-1 2-3 3t-3 2q-4 0-7 0t-5-1q-1-2-2-5t0-5q0-3 3-5t6-2q4 0 9 2 1 2 1 5t1 6m-143-135q0 3-1 5t0 4l-2 2q-6 2-12 2-4-4-4-7t-1-8q5-5 12-5h3q1 2 2 4t3 3m-73-52q-3 2-5 3t-6 2q-4-2-6-4t-3-7l-1-3q6-3 8-3t7-1l2 1q3 3 3 6t1 6m30 57l-5 7q-2 1-4 1t-4-1-4-1q0-2-1-4t-3-2q1-5 3-7t5-5q3 1 5 1t5 0q1 3 1 6t2 5m-51-9q-2 3-4 6t-6 3q-3 0-7-3t-4-6q0-3 3-7t6-3q2 0 4 1t4 1q2 2 2 4t2 4m-22 47h0q0 5-4 7t-7 4q-4-3-9-4 0-2 0-4t-1-3q0-2 2-5t4-3q7 0 12 1 1 2 1 4t2 3m-20 50q0 3-3 6t-6 2q-2 0-4-2-2-1-4-2t-2-5v-3q1-2 2-2t2-4h5q2 0 4 1t4 2q2 5 2 7m-14 38q0 2-1 5-2 1-3 1t-2 3h-5q-4 0-7-3t-3-6q0-6 6-11 1 0 2 1t2 0 2 0 1 0q3 0 4 1t3 2q0 2 0 4t1 3m574-328l10 10q-1 3-1 4t-1 4q-3 1-4 3t-5 2q-3 0-4-2t-5-1q-1-3-2-5t0-5q0-1 0-2t1-3q3-1 6-2t5-3m-36-23q0 2 0 3t0 4q-3 1-6 3t-5 2q-4 0-6-2t-3-4q-3-4-1-5t0-5q2-2 4-3t4-1q4 0 8 2t5 6m57 84v5q0 2-1 3t-3 4l-10 3q-2-3-3-5t-4-5q1-4 3-7t3-6q3 0 4 1t5 0q1 2 3 3t3 4m-108-90q0 4-1 6t-4 4q-1 0-3 0t-4 1q-5 0-6-4t-4-7q3-4 4-9 2 0 4 0t3 0q3 0 5 1t5 2q1 4 1 6m91 139v5q0 2 0 4t0 5l-8 2q-3 0-6 0t-6-3q-1-3 0-4t-1-5q4-6 7-7t9-3l5 6m-146-138q0 3-3 4 0 2 1 4-2 0-4 1t-5 2-4-1-4-1q-3-2-3-4t-3-4q4-4 4-8 3-2 10-2h2q1 1 3 2t2 2q2 1 2 2t2 3m-57 1q-1 5-1 9-3 1-6 1t-6 1q-4 0-7-3 0-2-1-4t-1-4q2-2 2-5t3-5l2 2q2-1 3-1 2 0 5 2t4 2q0 2 0 3t3 2m159 177q0 12-11 12-6 0-10-4 1-5 1-7t3-7q1-1 3-1t3-1q4 0 6 3t5 5m-160-128l1 9q-3 3-6 5t-8 2q-4-4-7-8-1-5-1-6t0-1 1-1 1-2q2-1 4-2t5-1 5 1 5 4m143 171q0 4-1 6t-2 6q-2 0-4-1t-4 0q-1 0-3 1t-3 1q0-3-2-6t-1-6v-6l10-4q3 1 5 2t5 2q0 2 0 3t0 2m-42-36q1 3 1 4t0 5q0 4-3 6t-8 2q-3 0-6-2-1-2-2-4t-2-4q0-3 1-5t3-5q2 0 4 0t4-1q4 0 4 1t4 3m61 95q-4 0-6-2t-4-5q0-3 1-7t2-6q3-1 6-1t5-1q1 1 3 2t2 3q3 4 1 10t-10 7m42 33q0 4-3 6l-3 4q-3-1-7-1t-6-3q-1-2-2-5t-1-4 4-5 6-3 5 2 5 2q2 4 2 7m-203-200q0 3-2 6t-4 5q-1 0-3 1t-3 0q-8 0-10-9 1-3 0-6 3-1 3-3t3-3q3 0 7 1t8 3q1 3 1 5m232 238q0 3-2 10t-6 6q-3 0-5-1t-4-1q-1-1-3-2t-3-3q0-5 1-7t2-5 5-2 7-2q4 3 8 7m-188-168l4 7q0 4-1 6t-3 4q-3 2-6 2-4 0-7-4t-3-7q0-2 1-4t1-3q4-2 7-2 2 0 3 1t4 0m-43-12q-1 3-3 7t-8 4q-3 0-5-1t-5-1q-1-3-1-4t-2-4q3-3 5-6t8-3h4q2 2 3 4t4 4m-1 64q-1 2-5 6t-8 3q-1-1-4-3t-6-2q2-3 2-4t0-4v-3q4-1 6-2t5-2q2 0 3 1t3 0q4 6 4 10m0 59q0 2-1 4t-4 4q-4 1-8 1-5 0-5-1t-4-5v-2q0-2 0-3t1-3q2-2 5-3t5-2q2 0 4 0t3 1q1 2 3 4t1 5m0 62q0 2-1 5-2 1-3 3t-4 2q-3-1-6-1t-6-1q-1-3-2-5t0-4q0-4 3-6 1-1 2-3t3-1q6 0 10 3t4 8" />
</svg>