<svg id="fnt-Comme" viewBox="0 0 1798 1000" xmlns="http://www.w3.org/2000/svg"><path id="comme" class="f" d="M196 672q-48 0-84-22t-55-62-20-99 20-99 55-63 84-21q17 0 35 3t33 12 28 18 22 26 13 34l-34 12h-4q-4-19-17-35t-32-24-41-9q-26 0-47 9t-36 28-22 45-9 64q0 48 15 80t39 49 60 16q22 0 41-9t33-24 17-35h4l34 13q-4 18-13 33t-22 26-29 19-33 11-35 4m302 0q-38 0-65-18t-40-48-14-72q0-42 13-73t41-47 65-17 66 17 40 47 14 73q0 41-14 72t-41 48-65 18m0-33q26 0 42-14t24-37 8-53q0-31-8-55t-24-37-42-13q-38 0-56 29t-18 76q0 30 8 53t24 37 42 14m233 28h-44v-265h37l4 52q12-30 34-44t47-13q20 0 36 7t26 22 15 33q13-32 36-47t51-15q41 0 63 25t21 74v171h-44v-158q0-19-3-37t-14-30-31-12q-17 0-33 10t-27 31-11 50v146h-44v-149q0-31-5-50t-16-29-29-9q-20 0-34 10t-23 29-12 42v156m448 0h-44v-265h37l5 52q12-30 33-44t47-13q21 0 36 7t26 22 16 33q13-32 35-47t52-15q40 0 62 25t22 74v171h-44v-158q0-19-4-37t-14-30-31-12q-16 0-33 10t-26 31-11 50v146h-45v-149q0-31-5-50t-16-29-28-9q-20 0-35 10t-23 29-12 42v156m520 5q-35 0-64-17t-46-47-16-73q0-44 16-75t44-47 61-16q32 0 55 14t36 41 12 63q0 4-1 10t-1 12 0 5h-177q2 34 14 55t30 32 43 10q23 0 39-7t32-16h3l11 29q-17 12-40 19t-51 8m-80-158h140q-1-40-16-62t-47-22q-32 0-53 22t-24 62" />
</svg>