<svg id="fnt-Concert One" viewBox="0 0 2640 1000" xmlns="http://www.w3.org/2000/svg"><path id="concert-one" class="f" d="M136 323q27 0 46 6t33 16 21 22 12 25 6 24 1 21q0 3 0 9t-5 10-11 8-23 3q-5 0-12 0t-14-3-12-8-5-13q0-13-1-24t-6-17-11-12-19-4q-12 0-19 5t-9 11q-4 7-4 16v155q0 11 4 19 3 7 9 13t19 5q11 0 19-4t11-13 6-19 1-22q0-3 2-7t5-7 13-6 23-2 23 3 11 8 5 8 0 5q0 27-9 48t-25 36-39 22-51 8q-4 0-14-1t-22-4-25-9-24-18-17-28-7-41v-137q0-20 5-35t13-27 18-19 21-13q25-11 57-13m154 252v-61q0-22 6-38t16-26 21-16 24-9 21-4 16 0 15 0 21 4 22 9 21 16 15 26 6 38v61q0 22-6 38t-15 26-21 16-22 9-21 4-15 1-16-1-21-4-24-9-21-16-16-26-6-38m75-71v88q0 7 4 12 2 5 8 9t17 4q10 0 15-4t8-9q3-5 4-12v-88q-1-8-4-14-2-5-8-9t-15-4q-11 0-17 4t-8 9q-4 6-4 14m384 5v102q0 10-2 20t-5 18-11 13-21 5q-12 0-19-5t-12-13-5-18-1-20v-95q0-7 0-14t-3-11-7-8-11-3q-10 0-16 6t-10 18-5 27-1 34v46q0 10-1 20t-5 18-12 13-20 5q-12 0-20-5t-11-13-5-18-1-20v-133q0-11 1-21t4-17 11-13 21-4 21 4 11 11 5 13 1 13q2-8 6-15t11-13 15-10 21-3q14 0 27 4t24 15 18 26 7 41m123-3v76q0 4 0 10t4 12 8 10 14 4q11 0 17-3t9-6 3-10 1-12q0-4 1-8t6-7 12-6 22-2q13 0 20 3t11 7 3 8 1 7q0 15-5 27t-13 20-18 15-23 9-24 5-23 2q-19 0-37-5t-33-17-22-28-9-41v-57q0-23 6-40t14-26 20-17 22-9 21-4 18 0q22 0 38 3t28 10 19 14 12 17 7 17 1 17q0 4 0 9t-4 10-10 8-20 3q-5 0-12 0t-13-3-12-6-4-14q0-5-1-11t-3-10-9-6-17-3q-9 0-14 3t-8 7-4 10 0 8m378 6v15q0 4-1 10t-4 10-10 8-20 3h-97v24q0 6 1 12t5 12 10 8 14 4q10 0 15-2t8-6 6-8 6-7 11-6 20-2q6 0 12 1t10 4 7 7 3 12q0 16-10 27t-25 17-33 9-33 3q-20-1-39-5t-32-16-22-28-9-43v-57q0-23 6-39t14-27 20-17 22-9 22-3 17-1q25 0 42 4t29 12 19 16 10 19 5 20 1 19m-132-7v17h61q0-12-1-21t-4-15-9-9-19-3q-10 0-15 3t-9 8-4 10 0 10m340-46q0 19-9 28t-27 9q-3 0-7 0t-10 2-10 5-10 8-7 13-3 20v69q0 10-1 20t-5 17-11 12-20 5q-12 0-19-5t-11-12-5-17-1-20v-136q0-11 1-20t5-17 11-12 19-5q13 0 20 5t9 15 4 19 1 21h3q4-14 10-25t12-19 15-12 15-4q10 0 16 2t9 7 5 11 1 16m55-36h13v-43q0-11 1-20t5-18 12-12 19-5q13 0 20 5t11 12 5 18 1 20v43h20q6 0 13 0t11 4 8 8 3 17q0 10-3 16t-8 8-11 4-13 1h-20v86q0 4 0 10t3 10 7 8 12 3q9 0 15 1t10 5 6 9 2 16q0 10-4 17t-12 12-18 6-21 3q-17 0-30-4t-20-10-13-17-7-21-3-25-1-28v-81h-13q-7 0-13-1t-11-4-8-8-3-16q0-11 3-17t8-8 11-4 13 0m383 145v-146q0-24 7-40t17-28 24-17 25-9 21-4 15-1h8q5 0 15 1t21 4 25 9 23 17 17 28 7 40v146q0 24-7 41t-17 28-23 17-25 10-21 4-15 1h-8q-5 0-15-1t-21-4-25-10-24-17-17-28-7-41m81-150v159q1 9 4 16 3 6 10 11t18 5q12 0 18-5t10-11q3-7 4-16v-159q-1-9-4-16-3-6-10-11t-18-5q-12 0-18 5t-10 11q-3 7-4 16m405 91v102q0 10-1 20t-6 18-11 13-20 5q-13 0-20-5t-11-13-5-18-1-20v-95q0-7-1-14t-3-11-6-8-12-3q-10 0-16 6t-10 18-4 27-2 34v46q0 10-1 20t-5 18-12 13-20 5q-12 0-19-5t-12-13-5-18-1-20v-133q0-11 1-21t4-17 11-13 21-4 21 4 12 11 4 13 1 13q2-8 7-15t10-13 16-10 21-3q13 0 26 4t25 15 17 26 7 41m257 3v15q0 4-1 10t-4 10-10 8-20 3h-97v24q0 6 1 12t5 12 10 8 14 4q10 0 15-2t8-6 6-8 6-7 12-6 20-2q6 0 11 1t10 4 8 7 2 12q0 16-10 27t-25 17-33 9-33 3q-20-1-38-5t-33-16-22-28-8-43v-57q0-23 5-39t14-27 20-17 22-9 22-3 17-1q25 0 42 4t29 12 19 16 10 19 5 20 1 19m-132-7v17h61q0-12-1-21t-3-15-10-9-18-3q-10 0-16 3t-9 8-3 10-1 10" />
</svg>