<svg id="fnt-Condiment" viewBox="0 0 2022 1000" xmlns="http://www.w3.org/2000/svg"><path id="condiment" class="f" d="M117 679q-82 0-82-84 0-25 11-60t35-73 52-70 68-53 79-21q18 0 28 4t11 4 12-5 28-5 17 9-20 41-46 59-43 29q-2 0-5 0-9 0-9-5 0-1 7-12t14-27 7-28-1-15-7-10-16-6q-27 0-64 41t-64 96-27 94q0 46 42 46 50 0 97-65 2-4 4-4t4 0 3 3 3 11-11 25-27 36-44 31-56 14m167-6q-12-5-19-19t-7-35q0-32 20-67t59-60 80-25q19 0 32 11t13 20-3 17-3 8q0 6 10 6t14-3 6-2q4 0 4 10t-10 24-24 20q-2 4-6 11t-16 25-28 32-39 25-44 11-39-9m111-86q0-4-4-4-7 0-15 3t-9 3q-3 0-3-4 0-20 14-34 5-6 16-10t16-10 6-20q0-17-18-17-32 0-61 45t-29 81q0 12 8 21t20 8q26 0 42-22t17-40m201 101q-14 0-14-6l1-3q30-45 52-87t21-54q0-4-2-7t-6-2q-19 0-52 25t-58 51-36 43-36 17q-13 0-13-6 0-13 49-92t65-85q8-5 21-5t14 5-12 23-12 23q1 4 4 4t6-2q74-58 118-58 18 0 18 22 0 14-21 60t-52 90-55 44m206-81q26-23 46-50t20-33-6-11-18-4q-29 0-61 39t-32 68q0 15 10 15 14 0 41-24m28 73h-1q-24 0-24-27l1-10-3-5q-3 0-8 3-43 42-75 42-10 0-19-8t-8-27q0-38 33-87 52-79 131-79 11 0 20 3t12 4 8-8 39-63q75-129 88-155 11-22 56-22 13 0 13 8 0 3-21 31t-61 85-72 118q-87 138-103 191-2 6-6 6m82 12q-7 0-15-9t-9-21q0-7 33-71t34-86q0-7 9-13 16-9 47-9 6 0 13 2t7 6q0 2-2 4-19 24-55 86t-55 102q-3 9-7 9m110-237q-22 0-23-18v0q0-15 14-25t30-9q22 0 23 17 0 15-15 25t-29 10m226 237q-8 0-13-11t-4-17q0-26 40-91 14-22 14-30t-7-7q-19 0-49 28t-51 57l-21 28q-8 12-26 12t-18-7q0-10 24-50t25-53q0-4-3-6t-4-2q-16 0-36 12t-36 32q-34 36-54 68l-8 12q-11 15-38 15-13 0-13-6 0-14 52-105t67-98q8-5 23-5t15 5-18 30-17 35q2 3 5 3t8-3 13-12 33-20 44-13 20 17q0 12-5 22t-5 12q0 4 4 4t8-4q7-8 19-19t41-29 47-18q25 0 25 21 0 18-13 42t-17 32-19 31-19 31-14 25-13 24-6 8m147 3q-29 0-43-17t-13-43 11-53 30-53 50-44 68-18q16 0 25 10t8 25q0 29-20 54t-46 38-44 14-26 8-6 22 7 25 15 11 8 6q0 7-8 11t-16 4m88-181q0-15-14-15-20 0-45 28t-24 50q0 6 9 6 20 0 47-21t27-48m156 174q-14 0-14-6l1-3q30-45 52-87t21-54q0-4-2-7t-6-2q-19 0-52 25t-58 51-36 43-36 17q-13 0-13-6 0-13 49-92t65-85q8-5 21-5t14 5-12 23-12 23q1 4 4 4t6-2q74-58 118-58 18 0 18 22 0 14-21 60t-52 90-55 44m353-341l24-1q5 0 5 2t-1 5-4 8-8 8q-12 9-30 9t-26 1-14 5-8 6-7 10-7 11q-26 37-86 140t-73 158q-2 5-10 5t-21-13-13-26 40-81 82-132 41-72-6-9-21-1h-16q-7 0-7-6t6-13 17-12 24-10 32-22 40-45q13-17 43-17 11 0 11 6 0 4-23 37t-22 40 15 9q6 0 23 0" />
</svg>