<svg id="fnt-Contrail One" viewBox="0 0 2465 1000" xmlns="http://www.w3.org/2000/svg"><path id="contrail-one" class="f" d="M184 656q-1 3-2 4t-24 5-46 4q-38 0-58-24t-20-67q0-76 18-176 9-53 23-75 15-23 35-32 26-11 55-11t39 1 11 2q4 1 4 6l-6 46q-1 6-5 6t-18-2-23-2q-23 0-36 12t-18 45-11 90-6 87q0 35 31 35 9 0 32-3t25-3q5 0 5 6l-5 46m145 13q-43 0-63-26t-21-75q0-24 5-61t10-54 12-34 20-26q24-24 65-24 59 0 76 43 9 23 9 56t-5 67-9 52-13 33-19 26q-24 23-67 23m43-107q3-13 7-48t4-53q0-41-30-41-14 0-23 13t-15 45q-11 63-11 103t30 40q14 0 23-14t15-45m210-184l-3 22q35-31 67-31 42 0 52 45 3 12 3 23t-1 18l-23 204q-1 6-6 7l-49 2q-6-1-6-5l22-193q1-7 1-12 0-20-9-27t-24-7-30 6l-26 229q-1 6-6 7l-50 2q-5-1-5-5l32-284q1-5 6-6l48-2q7 1 7 7m183-5l23-1q6-53 7-55t6-2l46-2q7 1 7 6-5 27-8 52l57-2q6 1 6 7l-7 38q-1 6-6 7l-56 2q-17 149-17 165 0 28 25 28 12 0 24-4t14-4q6 0 6 7l-6 42q0 4-1 6t-12 4-37 2q-37 0-55-17t-18-52 19-177l-24 1q-6 0-6-6l7-39q0-6 6-6m331 61l-26-3q-32 0-54 13l-24 215q-1 6-6 7l-49 2q-6-1-6-5l33-284q1-5 6-6l47-2q7 1 7 7l-3 25q16-16 30-25t30-9 22 2q5 0 5 6 0 17-5 50-1 7-7 7m246-56l-32 281q-1 7-6 7l-50 2q-5-1-5-5l5-33q-11 19-25 29t-30 10-28-5-19-16-12-22q-9-24-9-64t6-69 9-43 12-31 15-26q20-24 51-24 23 0 35 11t20 32l2-33q1-5 7-6l47-2q7 1 7 7m-149 177q0 58 31 58 14 0 22-12t15-51 6-55 0-22-1-12-3-13-5-11q-6-10-20-10t-23 12-13 34q-9 45-9 82m255-210q-15 0-24-10t-9-24 12-27 27-12 25 10 9 24-12 27-28 12m27 33l-32 281q0 4-1 5t-5 2l-49 2q-5-1-5-5l32-284q1-5 6-6l48-2q6 1 6 7m147-118l-45 399q-1 3-2 5t-5 2l-49 2q-5-1-5-5l45-401q1-4 2-5t4-2l48-1q7 0 7 6m220 410q-41 0-62-24t-21-61q0-93 19-184 15-72 41-96 25-23 66-23t62 25 21 61-4 87-12 85-11 50-14 32-19 26q-24 22-66 22m7-57q31 0 39-57 6-38 12-95t6-79-7-32-22-10q-28 0-38 57-6 34-12 92t-5 81 7 33 20 10m251-235l-3 22q35-31 68-31 41 0 51 45 3 12 3 23t0 18l-24 204q-1 6-6 7l-49 2q-6-1-6-5l22-193q1-7 1-12 0-20-9-27t-24-7-30 6l-26 229q-1 6-6 7l-50 2q-5-1-5-5l32-284q1-5 6-6l48-2q7 1 7 7m184 243q-6-15-8-29t-2-39 5-62q18-122 111-122 36 0 55 25t19 64-5 76q-1 7-8 7l-120 4q0 4 0 10 0 28 9 44t29 16 37-6 19-6 5 2 3 6l-5 43q-1 3-2 4t-4 3q-29 8-57 8t-42-6-25-17-14-25m53-137l-3 16 64-4q4 0 6-1 3-4 3-20t-1-23-4-14q-5-16-19-16t-21 5q-18 11-25 57" />
</svg>