<svg id="fnt-Copse" viewBox="0 0 1328 1000" xmlns="http://www.w3.org/2000/svg"><path id="copse" class="f" d="M226 341q-15-9-38-9t-43 9q-19 10-33 28-30 37-30 97 0 124 61 155 19 10 39 10 0 0 0 0 20 0 32-3t22-8 16-9q15-10 18-10 4 0 7 3t6 6q7 9 7 15 0 7-4 11t-14 10-23 12q-33 14-68 14t-62-11q-28-11-49-34-45-49-45-140 0-94 47-145 44-48 117-48h1q38 0 70 19 35 20 35 51 0 15-10 27-11 10-27 10-16 0-27-10-11-11-11-26 0-15 6-24m211 331q-26 0-46-10t-33-28q-27-35-27-92 0-60 37-94 33-31 85-31h0q48 0 77 37 28 34 28 90 0 61-34 95-32 33-87 33m-35-200q-9 10-15 27t-6 41q0 25 4 43 5 17 13 28 17 23 47 23 31 0 48-27 15-24 15-64 0-66-39-83-11-5-23-5-13 0-24 4t-20 13m329 302h-138q-6 0-6-15 0-12 3-16t7-4q30 0 34-5 2-2 2-5v-269h-43q-8 0-10-12 0-4 0-7 0-12 5-14t14-3 19-3q23-4 37-4 13 0 16 2 2 1 3 4 1 2 1 14v4q34-19 54-22 7-2 21-2h2q15 0 33 9t32 25q28 34 28 92 0 61-33 95-32 32-83 32-20 0-41-11-5-2-8-3v83h55q6 0 6 15 0 12-3 16t-7 4m-51-289v134q17 13 46 13 47 0 63-44 6-18 6-44 0-27-6-43t-15-25q-16-16-39-16h-1q-21 0-40 13-8 5-14 12m270 149h28q34 0 45-21 4-6 4-14t-4-13-11-10q-11-7-38-15t-41-14-24-15q-21-17-21-48 0-45 51-61 19-6 37-6 19 0 34 3 16 2 29 8 29 14 29 38v2q0 13-9 23-10 9-24 9-23 0-32-20-2-6-2-10t3-18h-24q-20 0-30 7-17 12-17 26 0 19 34 31l19 6q47 16 60 27t20 24 6 29q0 17-7 29-6 13-18 21-25 20-65 20-36 0-64-11-21-8-30-23-4-7-4-16 0-8 2-14 3-6 8-11 9-9 23-9 15 0 24 10 10 9 10 21v0q0 12-1 15m161-93q0-30 10-54 10-22 26-38 34-31 84-32h0q46 0 71 29 24 28 24 82 0 11-10 20-11 8-26 8h-129q5 57 40 73 11 5 24 5t22-3 19-7 17-10q18-11 21-11 3 0 7 3 2 3 5 7 7 9 7 16v0q0 6-3 8-44 35-101 35-51 0-80-36-28-35-28-95m50-22h115v-1q0-48-28-60-9-3-19-3t-23 4q-12 4-21 12-22 18-24 48" />
</svg>