<svg id="fnt-Cormorant Garamond" viewBox="0 0 4400 1000" xmlns="http://www.w3.org/2000/svg"><path id="cormorant-garamond" class="f" d="M206 349q31 0 53 4t43 16q3 2 4 3t1 8l6 59q0 2-3 2t-3-1q-23-84-103-84-42 0-74 19t-50 52-17 80q0 44 19 80t52 57 72 21q41 0 66-20t39-61q0-1 3-1 3 0 3 2l-5 55q0 6-1 7t-4 4q-26 12-49 17t-52 5q-53 0-94-21t-64-58-23-86q0-47 23-83t65-56 93-20m253 324q-29 0-52-14t-34-39-12-52q0-33 16-56t40-34 51-11q29 0 51 15t34 38 12 50q0 31-15 54t-39 36-52 13m14-9q28 0 43-20t15-60q0-31-11-55t-28-39-41-13q-27 0-42 19t-14 56q0 31 10 56t28 41 40 15m179-138q27-33 41-45t27-12q11 0 21 6t10 15q0 6-4 11t-12 4q-5 0-8-2t-8-5q-4-4-8-6t-10-2q-7 0-16 8t-31 33l-2-5m-47 141q-1 0-1-3t1-3q14 0 20-3t9-10 2-22v-99q0-17-4-24t-13-8q-8 0-27 8h-1q-2 0-3-3t1-3l58-27q1-1 3-1 5 0 10 12t5 29v116q0 15 3 22t14 10 31 3q2 0 2 3t-2 3q-16 0-25-1l-37 0-28 0q-6 1-18 1m440 0q-2 0-2-3t2-3q13 0 20-3t9-10 2-22v-79q0-30-10-44t-33-15q-17 0-36 12t-31 32l-2-6q21-30 42-44t44-13q26 0 40 15t14 45v97q0 15 3 22t9 10 20 3q1 0 1 3t-1 3q-12 0-19-1l-27 0-27 0q-7 1-18 1m-129 0q-2 0-2-3t2-3q13 0 20-3t8-10 3-22v-79q0-30-11-44t-32-15q-18 0-36 12t-31 32l-2-6q21-30 42-44t43-13q27 0 41 15t14 44v98q0 15 3 22t9 10 20 3q1 0 1 3t-1 3q-12 0-19-1l-27 0-27 0q-7 1-18 1m-129 0q-1 0-1-3t1-3q14 0 20-3t9-10 2-22v-99q0-17-4-24t-13-8q-8 0-27 8h-1q-2 0-3-3t1-3l58-27q1-1 3-1 5 0 10 12t5 29v116q0 15 2 22t9 10 20 3q1 0 1 3t-1 3q-12 0-18-1l-27 0-28 0q-6 1-18 1m475 6q-29 0-52-14t-34-39-12-52q0-33 16-56t40-34 51-11q29 0 51 15t34 38 12 50q0 31-15 54t-39 36-52 13m14-9q28 0 43-20t15-60q0-31-11-55t-28-39-41-13q-27 0-42 19t-14 56q0 31 10 56t28 41 40 15m179-138q27-33 41-45t27-12q11 0 21 6t10 15q0 6-4 11t-12 4q-5 0-8-2t-8-5q-4-4-8-6t-10-2q-7 0-16 8t-31 33l-2-5m-47 141q-1 0-1-3t1-3q14 0 20-3t9-10 2-22v-99q0-17-4-24t-13-8q-8 0-27 8h-1q-2 0-3-3t1-3l58-27q1-1 3-1 5 0 10 12t5 29v116q0 15 3 22t14 10 31 3q2 0 2 3t-2 3q-16 0-25-1l-37 0-28 0q-6 1-18 1m309 3q-2 1-4 1-8 0-13-12t-6-30v-95q0-56-31-56-17 0-26 11t-12 26q-2 10-6 15t-13 6q-8 0-12-5t-4-10q0-12 15-24t37-20 39-8q20 0 31 13t10 37v94q0 17 5 25t14 8 25-6h1q2 0 3 2t-2 3l-51 25m-90 0q-19 0-29-10t-10-24 12-26 39-21l60-23 2 7-53 20q-14 6-21 13t-6 17q0 12 8 20t20 9q10 0 24-8l32-19 1 6-37 24q-13 8-22 12t-20 3m299-3q-1 0-1-3t1-3q14 0 20-3t9-10 2-22v-81q0-30-11-44t-35-13q-18 0-37 11t-32 32l-2-6q22-30 43-44t45-14q27 0 42 16t16 45v98q0 15 2 22t9 10 20 3q1 0 1 3t-1 3q-12 0-18-1l-27 0-28 0q-6 1-18 1m-134 0q-2 0-2-3t2-3q13 0 20-3t8-10 3-22v-99q0-17-4-24t-14-8q-8 0-27 8h-1q-2 0-3-3t2-3l58-27q1-1 3-1 4 0 9 12t5 29v116q0 15 2 22t9 10 20 3q2 0 2 3t-2 3q-11 0-18-1l-27 0-27 0q-7 1-18 1m330 6q-21 0-35-10t-13-31v-118q0-13-2-18t-7-8-17-1q-2 0-2-4t2-3q20 0 33-11t14-27q0-1 4-1 4 0 4 1v173q0 40 39 40 23 0 40-14l1 0q2 0 3 2t0 3q-19 15-34 21t-30 6m48-175q-32-8-76-8v-11q32 0 78-5 1 0 2 4t2 8q0 4-2 8t-4 4m348 175q-55 0-96-22t-62-60-22-82q0-49 25-85t67-56 96-19q26 0 50 5t39 14q4 2 4 4t1 7l6 59q0 2-3 2t-3-1q-23-82-104-82-39 0-71 17t-50 51-18 76q0 43 17 80t52 61 85 23q36 0 50-14t15-47q0-26-4-36t-14-14-39-3q-3 0-3-4 0-2 0-3t2-1q39 2 63 2 24 0 50-1 1 0 1 1t1 2q0 4-2 4-13-1-18 3t-6 15-2 40q0 23 2 32t2 12q0 3-1 4t-5 2q-61 14-105 14m309-3q-2 1-4 1-7 0-13-12t-5-30v-95q0-56-32-56-17 0-26 11t-11 26q-2 10-6 15t-13 6q-8 0-13-5t-4-10q0-12 16-24t37-20 38-8q21 0 31 13t11 37v94q0 17 4 25t15 8 25-6h1q2 0 2 2t-1 3l-52 25m-90 0q-18 0-29-10t-10-24 12-26 40-21l60-23 1 7-53 20q-14 6-20 13t-6 17q0 12 7 20t21 9q10 0 24-8l31-19 1 6-37 24q-12 8-22 12t-20 3m212-144q27-33 41-45t27-12q11 0 21 6t10 15q0 6-4 11t-12 4q-5 0-8-2t-8-5q-4-4-8-6t-10-2q-7 0-16 8t-31 33l-2-5m-47 141q-1 0-1-3t1-3q14 0 20-3t9-10 2-22v-99q0-17-4-24t-13-8q-8 0-27 8h-1q-2 0-3-3t1-3l58-27q1-1 3-1 5 0 10 12t5 29v116q0 15 3 22t14 10 31 3q2 0 2 3t-2 3q-16 0-25-1l-37 0-28 0q-6 1-18 1m309 3q-2 1-4 1-8 0-13-12t-6-30v-95q0-56-31-56-17 0-26 11t-12 26q-2 10-6 15t-13 6q-8 0-12-5t-4-10q0-12 15-24t37-20 39-8q20 0 31 13t10 37v94q0 17 5 25t14 8 25-6h1q2 0 3 2t-2 3l-51 25m-90 0q-19 0-29-10t-10-24 12-26 39-21l60-23 2 7-53 20q-14 6-21 13t-6 17q0 12 8 20t20 9q10 0 24-8l32-19 1 6-37 24q-13 8-22 12t-20 3m422-3q-1 0-1-3t1-3q14 0 20-3t9-10 3-22v-79q0-30-11-44t-32-15q-18 0-36 12t-31 32l-2-6q21-30 41-44t44-13q27 0 41 15t14 45v97q0 15 2 22t9 10 20 3q2 0 2 3t-2 3q-11 0-18-1l-27 0-27 0q-7 1-19 1m-129 0q-1 0-1-3t1-3q14 0 20-3t9-10 2-22v-79q0-30-10-44t-32-15q-18 0-36 12t-31 32l-2-6q21-30 41-44t44-13q26 0 40 15t15 44v98q0 15 2 22t9 10 20 3q2 0 2 3t-2 3q-11 0-18-1l-27 0-28 0q-6 1-18 1m-128 0q-2 0-2-3t2-3q13 0 20-3t8-10 3-22v-99q0-17-4-24t-14-8q-8 0-27 8h-1q-2 0-3-3t2-3l58-27q1-1 3-1 4 0 9 12t5 29v116q0 15 2 22t9 10 20 3q2 0 2 3t-2 3q-11 0-18-1l-27 0-27 0q-7 1-18 1m474 6q-29 0-51-14t-34-39-12-52q0-33 15-56t41-34 50-11q30 0 52 15t33 38 12 50q0 31-14 54t-39 36-53 13m15-9q27 0 42-20t15-60q0-31-10-55t-28-39-41-13q-27 0-42 19t-15 56q0 31 10 56t28 41 41 15m266 3q-1 0-1-3t1-3q14 0 20-3t9-10 2-22v-81q0-30-11-44t-35-13q-18 0-37 11t-32 32l-2-6q22-30 43-44t45-14q27 0 42 16t16 45v98q0 15 2 22t9 10 20 3q1 0 1 3t-1 3q-12 0-18-1l-27 0-28 0q-6 1-18 1m-134 0q-2 0-2-3t2-3q13 0 20-3t8-10 3-22v-99q0-17-4-24t-14-8q-8 0-27 8h-1q-2 0-3-3t2-3l58-27q1-1 3-1 4 0 9 12t5 29v116q0 15 2 22t9 10 20 3q2 0 2 3t-2 3q-11 0-18-1l-27 0-27 0q-7 1-18 1m332 6q-21 0-39-12t-29-34-10-49q0-36 17-61t44-37 53-13q34 0 61 23l-6 33q-13-22-29-34t-40-12q-31 0-50 22t-18 64q0 27 9 48t23 33 33 11q21 0 38-11t35-31l4 3q-23 26-45 42t-51 15m112-61q0 18 4 26t14 8q14 0 26-7l1-1q2 0 2 3t0 3l-55 26q-2 1-4 1-7 0-12-12t-4-33v-258q0-18-4-26t-13-8q-6 0-23 7h-1q-2 0-3-2t1-3l64-31q1-1 2-1t3 1 2 3v304" />
</svg>