<svg id="fnt-Cormorant Upright" viewBox="0 0 3738 1000" xmlns="http://www.w3.org/2000/svg"><path id="cormorant-upright" class="f" d="M191 673q-58 0-97-25t-55-61-18-79q0-47 24-83t63-56 85-20q24 0 49 4t39 13q4 3 5 5t2 7l5 56q0 2-2 2t-3-1q-12-39-42-57t-71-18q-36 0-63 16t-40 47-14 71q0 47 18 86t49 63 68 23q32 0 58-20t41-59q1-2 3-2t3 2l-5 56q-1 6-2 8t-6 3q-45 19-94 19m227 1q-26 0-46-13t-29-35-11-49q0-31 13-56t34-40 51-14q38 0 62 25t24 70q0 34-14 60t-36 38-48 14m15-13q24 0 40-20t16-56q0-27-9-51t-26-40-38-15q-24 0-41 20t-16 55q0 27 9 51t27 41 38 15m233-192q12 0 22 7t11 17q0 7-5 12t-11 5q-6 0-9-2t-8-6q-2-2-5-4t-6-2q-12 0-23 29t-18 68-8 70q0 4-4 6t-12 2-10-1-3-2q0-2 1-12t0-26l1-93q0-48-19-48-15 0-32 18l-1 0q-1 0-3-1t0-3q12-16 27-25t28-9q14 0 21 14t7 53v58q7-52 23-89t36-36m412 159q0 0 1 0 2 0 4 1t1 3q-16 21-28 30t-24 9q-28 0-28-39l0-89q0-56-28-56-18 0-33 21t-24 61-9 94q0 4-5 6t-11 2-10-1-3-2q0-2 0-12t1-26l0-87q0-56-27-56-18 0-33 21t-24 60-9 91v4q0 4-5 6t-12 2q-7 0-9-1t-4-2l2-36 1-114q0-15-4-22t-11-7q-11 0-34 24-1 1-2 1-1 0-3-2t0-3q15-20 28-30t27-10 20 10 6 29v66q9-50 30-79t50-28q21 0 31 16t10 50v42q9-51 30-80t50-28q22 0 32 16t10 50l0 89q0 29 14 29 12 0 32-23m104 46q-26 0-46-13t-29-35-11-49q0-31 13-56t34-40 51-14q38 0 62 25t24 70q0 34-14 60t-36 38-48 14m15-13q24 0 40-20t16-56q0-27-9-51t-26-40-38-15q-24 0-41 20t-16 55q0 27 9 51t27 41 38 15m233-192q12 0 22 7t11 17q0 7-5 12t-11 5q-6 0-9-2t-8-6q-2-2-5-4t-6-2q-12 0-23 29t-18 68-8 70q0 4-4 6t-12 2-10-1-3-2q0-2 1-12t0-26l1-93q0-48-19-48-15 0-32 18l-1 0q-1 0-3-1t0-3q12-16 27-25t28-9q14 0 21 14t7 53v58q7-52 23-89t36-36m263 159q0 0 1 0 2 0 3 1t1 3q-14 20-27 30t-24 9q-28 0-28-39l1-62q-17 46-44 75t-56 28q-19 0-31-13t-12-42q0-35 17-70t44-58 55-23q10 0 20 4t19 10q8-8 9-17 1-1 4-1t3 1l-1 158q-1 29 14 29 12 0 32-23m-157 21q20 0 39-20t31-49 12-54q0-19-11-30t-28-11q-20 0-37 14t-27 40-10 57q0 27 7 40t24 13m407-21l1 0q2 0 4 1t1 3q-16 20-28 30t-24 9q-29 0-28-39l1-89q0-56-30-56-19 0-35 20t-25 61-10 95q0 4-4 6t-12 2q-8 0-10-1t-4-2q0-2 1-14t1-24l1-112q0-15-4-22t-11-7q-11 0-34 24-1 1-1 1-2 0-4-2t0-3q15-20 28-30t27-10 20 10 6 29v71q10-53 31-82t53-30q22 0 33 16t11 50l-1 89q0 15 3 22t11 7q12 0 32-23m151 3h0q2 0 3 2t1 3q-21 19-38 28t-34 9q-19 0-31-10t-12-33l0-116q0-13-2-19t-6-7-16-2q-2 0-3-3t2-3q19 0 31-11t14-27q0-2 4-2 5 0 5 2v37q18-1 69-4 2 0 3 1t2 4q-1 5-6 11t-10 5q-35-5-58-5l-1 124q0 20 7 29t26 10q14 0 26-6t24-17m482 30q1 0 1 3t-1 3l-43-1-27 1q-6 0-7-2t-2-8v-33q-27 26-54 37t-56 12q-33 0-59-12t-41-35-14-52v-179q0-15-3-22t-11-10-26-3q-1 0-1-3t1-3l23 1q19 1 32 1t34-1l23-1q1 0 1 3t-1 3q-18 0-26 3t-11 10-3 23l0 160q0 49 24 76t71 27q26 0 48-10t49-35l0-218q0-15-3-23t-11-10-25-3q-1 0-1-3t1-3l22 1q20 1 33 1 12 0 33-1l23-1q1 0 1 3t-1 3q-17 0-26 3t-11 10-3 22v231q0 15 3 22t13 10 31 3m109 6q-12 0-27-1v90q0 17 5 24t18 7q4 0 14-1h0q2 0 2 2t-1 3l-92 13q-2 1-3-2t1-4q12-2 17-5t7-10 2-24l1-237q-3 1-22 17l-1 0q-2 0-3-2t-1-3q9-8 27-23v-37q0-1 6-7t12-13 5-16q0-2 3-2t3 2v54q37-22 70-22 32 0 49 19t17 56q0 34-14 62t-38 44-57 16m23-179q-24 0-50 15v142q21 8 41 8 37 0 52-23t15-66q0-76-58-76m240-19q11 0 22 7t11 17q0 7-5 12t-12 5q-5 0-9-2t-7-6q-3-2-6-4t-6-2q-11 0-22 29t-19 68-7 70q0 4-5 6t-11 2-10-1-3-2q0-2 0-12t1-26l1-93q0-48-19-48-15 0-32 18l-1 0q-2 0-3-1t-1-3q13-16 27-25t28-9q14 0 21 14t7 53v58q8-52 23-89t37-36m124 202q-14 0-21-10t-7-29l2-114q0-29-15-29-12 0-33 24-1 1-2 1-2 0-3-2t-1-3q15-20 28-30t27-10 21 10 6 29l-1 114q0 29 14 29 12 0 32-23 0 0 1 0 2 0 4 1t1 3q-16 20-28 30t-25 9m-17-260q-11 0-17-6t-6-16q0-10 6-15t17-6q9 0 15 6t6 15q0 10-6 16t-15 6m250 52q0-1 3-1t3 2l-1 234q0 49-26 79t-71 30q-27 0-46-11t-18-28q0-14 15-14 7 0 11 4t10 12q9 12 18 19t30 7q22 0 36-19t13-67v-139q-16 46-43 74t-55 28q-40 0-43-52-1-35 15-71t44-60 56-23q23 0 39 14 8-8 10-18m-24 62q0-18-11-29t-30-11q-18 0-35 15t-27 39-10 56q0 54 31 54 20 0 39-20t31-48 12-56m300 103q1 0 2 0 2 0 3 1t1 3q-16 21-28 30t-24 9q-28 0-27-39l0-89q1-56-30-56-19 0-34 20t-25 61-11 95q0 8-16 8-7 0-10-1t-3-2l1-12 0-26 4-273q0-23-17-23-9 0-25 7h-1q-2 0-3-2t1-3l65-32h1q2 0 4 2t2 2l-2 271q9-52 31-82t53-30q22 0 32 16t11 50l-1 89q0 15 4 22t11 7q12 0 31-23m151 3h1q1 0 3 2t0 3q-21 19-38 28t-33 9q-19 0-32-10t-12-33l1-116q-1-13-2-19t-7-7-16-2q-2 0-2-3t2-3q19 0 30-11t14-27q0-2 4-2 5 0 5 2v37q19-1 70-4 2 0 3 1t1 4q0 5-5 11t-11 5q-34-5-58-5l0 124q0 20 7 29t26 10q14 0 25-6t24-17" />
</svg>