<svg id="fnt-Cousine" viewBox="0 0 2069 1000" xmlns="http://www.w3.org/2000/svg"><path id="cousine" class="f" d="M77 500q0 67 21 100t63 34q25 0 45-17t34-52l39 16q-37 91-118 91-64 0-99-45t-34-127q0-168 130-168 83 0 114 82l-41 16q-9-28-28-44t-44-16q-42 0-62 32t-20 98m491 34q0 67-31 102t-88 36q-57 0-87-36t-30-102q0-68 31-102t87-34q60 0 89 34t29 102m-46 0q0-52-17-78t-54-26q-38 0-55 26t-18 78q0 52 18 78t52 27q39 0 56-26t18-79m123-132h44v168q0 38 12 53t43 15q31 0 50-22t18-60v-154h44v208q0 46 2 57h-42q0-2 0-7t-1-12-1-27h-1q-15 28-35 39t-49 12q-43 0-64-22t-20-71v-177m514 189q0 38-29 59t-78 22-77-16-34-50l39-7q4 21 20 30t52 10q66 0 66-42 0-16-12-25t-37-16q-64-16-82-25t-26-22-10-34q0-36 26-56t75-21q43 0 69 17t32 47l-40 5q-2-18-17-27t-44-9q-60 0-60 37 0 15 11 23t32 15l29 7q40 10 57 19t28 24 10 35m223-189v230h93v35h-240v-35h103v-195h-78v-35h122m0-51h-49v-47h49v47m374 316h-44v-170q0-33-13-49t-41-16q-30 0-49 22t-20 60v153h-44v-208q0-46-1-57h41q1 2 1 7t1 12 0 27h1q26-50 85-50 42 0 63 22t20 71v176m311-123h-188q0 44 20 69t53 26q26 0 44-11t26-30l38 11q-10 30-39 46t-69 17q-57 0-88-36t-31-103q0-65 30-100t88-35 87 35 29 105v6m-116-114q-32 0-51 21t-21 59h143q-7-80-71-80" />
</svg>