<svg id="fnt-Crete Round" viewBox="0 0 2767 1000" xmlns="http://www.w3.org/2000/svg"><path id="crete-round" class="f" d="M22 499q0-48 14-85t38-56q46-39 104-39t105 25q6 4 6 10v65q0 7-7 7h-28q-8 0-7-7l1-35q-31-21-70-21-96 0-96 128 0 40 9 69t34 50 64 19 60-16l-2-35q-1-7 7-7h28q8 0 8 7v64q0 7-5 9-44 22-101 22-82 0-122-47t-40-127m393-37q8-20 27-34t42-14 34 4q6 2 6 9v67q0 8-7 8h-33q-7 0-7-8l2-29q-2 0-8 0-23 0-38 18t-15 51v93h55q7 0 7 8v24q0 8-7 8h-138q-7 0-7-8v-24q0-8 7-8h27v-167h-27q-8 0-8-7v-26q0-8 8-8h66q7 0 8 8l6 35m258 211q-60 0-88-35t-27-92 29-95 85-37q28 0 47 10t31 28q20 34 20 78 0 21-2 23t-8 2h-147q3 36 18 56t53 20q27 0 56-13 7-4 10 4l10 23q2 6-5 10-33 18-82 18m-60-155h104q1-62-49-62-29 0-42 18t-13 44m322-58h-51v126q0 24 6 34t23 11 32-7q5-2 8 4l9 23q0 1 0 4t-5 6q-24 12-57 12-44 0-58-23-10-15-12-29-2-19-2-40v-121h-28q-8 0-8-7v-26q0-8 8-8h28v-67q0-8 8-8h41q7 0 7 8v67h51q7 0 7 8v26q0 7-7 7m167 213q-60 0-88-35t-27-92 29-95 85-37q28 0 47 10t31 28q20 34 20 78 0 21-2 23t-8 2h-147q3 36 18 56t53 20q27 0 56-13 7-4 10 4l10 23q2 6-5 10-33 18-82 18m-60-155h104q1-62-49-62-29 0-42 18t-13 44m292 141v-24q0-8 7-8h26v-260h-26q-7 0-7-7v-25q0-8 7-8 64-3 107-3 130 0 130 93 0 33-17 57t-44 38l59 115h31q7 0 7 8v24q0 8-7 8h-66q-8 0-11-7l-68-134h-10q-16 0-29-2v103h32q7 0 7 8v24q0 8-7 8h-114q-7 0-7-8m107-293h-18v120q4 1 12 1 40 0 63-16t22-48q0-57-79-57m198 181q0-38 12-65t30-42q35-26 77-26 30 0 51 9t33 22 20 36 8 55q0 67-34 102t-86 35-82-32-29-94m115 85q30 0 44-23t14-66-14-66-45-22q-57 0-57 81 0 96 58 96m389-205v200h22q7 0 7 8v24q0 8-7 8h-56q-6 0-8-8l-4-28q-32 42-84 42-81 0-81-85v-128h-27q-7 0-7-7v-26q0-8 7-8h75q8 0 8 8v146q0 30 7 42t33 13 42-15 17-34v-119h-32q-7 0-7-7v-26q0-8 7-8h80q8 0 8 8m57 26v-26q0-8 7-8h68q7 0 8 8l5 29q28-42 80-42 77 0 77 85v128h29q8 0 8 8v24q0 8-8 8h-109q-7 0-7-8v-24q0-8 7-8h24v-103q0-32-8-46t-33-15-41 15-17 34v115h31q8 0 8 8v24q0 8-8 8h-113q-8 0-8-8v-24q0-8 8-8h26v-167h-27q-7 0-7-7m537-152v326h21q8 0 8 8v24q0 8-8 8h-56q-7 0-8-8l-4-29q-25 43-81 43-49 0-76-31t-26-96 30-98 80-34q22 0 39 8t25 20v-107h-27q-7 0-7-7v-27q0-7 7-7h75q8 0 8 7m-56 272v-88q-7-10-23-19t-33-8q-62 0-62 84 0 64 28 80 12 7 33 7t39-15 18-41" />
</svg>