<svg id="fnt-Croissant One" viewBox="0 0 3677 1000" xmlns="http://www.w3.org/2000/svg"><path id="croissant-one" class="f" d="M191 333q-43 0-66 44t-22 112 23 110 69 42q25 0 46-10t31-22 23-29l18 12q-24 39-54 60t-76 22q-70 0-114-52t-44-131 44-130 122-52q41 0 78 16t38 38q0 9-6 20l-30 58-18-6 5-31q2-12 2-23 0-19-19-34t-50-14m331 76q15 0 15 29v173q0 14 6 21t20 8 31-14l9 12q-40 36-80 36-61 0-61-73v-141q-24 10-57 13-4 46-27 92l-20-6q14-35 15-84-19 0-31-11t-12-28 11-27 28-11 27 11 11 30h10q39 0 84-22 14-8 21-8m140 227q-36-38-36-94t36-95 96-38 96 38 37 95-37 94-96 38-96-38m55-175q-14 32-14 81t14 80 42 31 41-31 14-80-14-81-41-31-42 31m283-101q-11-12-11-28t11-29 29-11 28 11 12 29-12 28-28 12-29-12m19 49q47 0 47 41v161q0 14 7 21t20 8 31-14l9 12q-40 36-80 36-62 0-62-73v-168q-27 7-42 25l-13-16q14-15 36-24t47-9m191 49q-12-19-12-33t11-26 28-11 27 11 11 27-15 33q41 30 63 58t22 67-29 64-81 26q-24 0-48-10t-37-26l12-12q22 17 47 17t42-14 16-42q0-46-34-96l-75 94-13-11q38-61 65-116m237 0q-12-19-12-33t11-26 28-11 27 11 11 27-15 33q41 30 63 58t22 67-29 64-81 26q-24 0-48-10t-37-26l12-12q22 17 47 17t42-14 16-42q0-46-34-96l-75 94-13-11q38-61 65-116m373-41h75v194q0 14 7 21t20 8 31-14l9 12q-40 36-80 36-48 0-59-44-26 44-76 44-58 0-88-37t-30-95 32-95 91-38q44 0 68 36v-28m-99 49q-14 28-14 76t14 76 42 28 44-29 16-75-16-76-44-28-42 28m293-49q41 0 74 25 19-18 39-26t51-7 51 20 20 54v128q0 14 6 21t20 8 31-14l9 12q-40 36-80 36-61 0-61-73v-129q0-15-10-24t-26-8-33 13-16 35v179h-75v-230q-23 0-40 7l-7-18q21-9 47-9m352 27h-41v-20h41v-72h75v72h56v20h-56v167q0 14 6 21t20 8 31-14l9 12q-40 36-80 36-61 0-61-73v-157m326 48q0-79 43-131t124-52 124 52 43 131-43 131-124 51-124-51-43-131m167-159q-29 0-50 23-39 43-39 136 0 93 39 136 21 23 50 23 43 0 66-46t24-113-24-113-66-46m254 84q41 0 74 25 19-18 39-26t51-7 51 20 20 54v128q0 14 7 21t20 8 31-14l9 12q-40 36-80 36-62 0-62-73v-129q0-15-9-24t-27-8-33 13-16 35v179h-75v-230q-22 0-40 7l-7-18q22-9 47-9m429 134q32-3 50-25t18-44-10-34-30-12-37 28-18 75 17 76 48 28q48 0 82-37l14 9q-17 27-45 43t-63 16q-60 0-95-39t-36-95 38-93 105-38q44 0 69 21t25 52-28 58-73 27q-16 0-30-4l-1-12" />
</svg>