<svg id="fnt-Crushed" viewBox="0 0 1459 1000" xmlns="http://www.w3.org/2000/svg"><path id="crushed" class="f" d="M59 499q0 35 6 62t16 46 25 27 32 10q11 0 19-3t15-7 13-9 11-9v49q-14 3-27 5t-31 2q-26 0-48-10t-39-32-25-54-9-77 9-77 26-54 39-31 47-11q17 0 31 2t27 6v49q-6-5-11-10t-13-9-15-7-19-2q-18 0-32 9t-25 28-16 45-6 62m307-174v45q-33 0-56 9t-36 27q-1 48-1 96 0 23 0 43t1 40 1 40 3 42h-46q2-22 2-42t2-40 1-40 0-43 0-44-1-42-2-42-2-43h46q-1 12-2 21t-1 20q8-9 20-18t23-15 25-10 23-4m64 167q0 18 0 34t1 30 1 26 2 21q4 21 13 30t23 10q8 0 16-4t17-11 15-16 13-18q1-48 1-98 0-23 0-43t-1-41-1-39-2-42h45q-1 22-2 42t-2 39-1 41 0 43 0 44 1 42 2 42 2 43h-46q1-10 1-19t1-19q-7 9-15 17t-17 14-20 9-23 4q-29 0-45-23t-16-69q0-11 0-24t1-25 0-23 0-17q0-23 0-43t-1-38-1-39-2-41h45q-2 22-3 41t-1 39-1 38 0 43m248 154q10 0 19-3t17-10 12-18 4-26q0-13-5-24t-14-22-19-20-23-19-22-20-20-22-14-25-5-29q0-24 9-39t21-26 30-14 31-4q16 0 30 3t29 5v49q-8-7-15-12t-14-9-14-6-16-2q-10 0-19 2t-16 9-11 15-4 22q0 17 9 31t23 27 29 26 30 28 23 33 9 40q0 17-4 30t-11 23-15 16-19 11-21 6-20 1q-12 0-22-1t-19-2-16-4-15-4v-50q8 7 15 13t16 11 17 7 20 3m268-315h46q-1 21-2 43t-1 43-1 42 0 40 0 39 0 43 2 43 1 43h-45q1-21 2-43t1-43 1-43 0-39h-100q0 18 0 39t1 43 1 43 2 43h-46q2-21 3-43t1-43 1-43 0-39 0-40-1-42-1-43-3-43h46q-2 34-3 70t-1 69h100q0-33-1-69t-3-70m204 314q11 0 20-3t16-7 13-9 12-9v48q-7 1-13 2t-15 3-17 2-23 1q-25 0-46-12t-34-34-22-54-8-73q0-39 7-71t18-56 31-35 42-13q25 0 42 11t29 33 17 54 5 72v9h-147q1 38 6 65t13 44 23 24 31 8m-73-170h105q0-14-1-29t-3-28-6-26-9-20-14-14-19-5q-15 0-24 10t-16 29-9 39-4 44m186-144h77q26 0 47 8t38 28 24 51 9 81q0 48-9 80t-24 52-38 28-48 8h-76q2-21 3-43t1-43 1-43 0-39 0-40-1-42-1-43-3-43m77 28h-32q-2 36-3 72t0 68 0 67 2 73h33q11 0 20-3t18-8 15-16 12-26 7-37 3-50-3-51-7-37-12-26-15-15-18-9-20-2" />
</svg>