<svg id="fnt-B612 Mono" viewBox="0 0 2888 1000" xmlns="http://www.w3.org/2000/svg"><path id="b612-mono" class="f" d="M145 667h-92v-323l-8-50q15-2 31-3t32-2q29 0 55 4t46 13 32 26 12 42q0 28-12 47t-33 31l-39 11 37 3q15 5 29 12t23 17 16 24 5 33q0 21-5 38t-16 29-22 22-28 15-31 8-32 3m-46-183v143h27q25 0 44-4t33-12 21-22 7-35q0-19-7-32t-18-22-29-12-37-4h-41m-9-157l9 53v65h26q15 0 30-4t27-12 18-20 8-29q0-17-8-28t-20-17-27-9-29-2q-8 0-17 1t-17 2m481-39l-6 43q-2-1-5-1t-6 0q-18 0-35 6t-32 15-28 25-22 31-16 37-8 40l20-29q7-4 15-8t18-6 18-4 18-2q22 0 42 6t36 18 25 33 9 46q0 27-9 52t-25 42-40 28-51 11q-24 0-43-8t-33-21-24-30-15-34-8-35-3-31q0-30 6-58t18-53 29-46 38-36 47-23 55-9q4 0 8 1t7 0m-156 229q0 7 0 13t1 11 1 12 3 12q3 14 9 26t15 20 20 13 26 4q20 0 33-7t23-20 13-28 4-32q0-16-5-28t-13-20-20-12-26-4q-14 0-27 4t-24 8-19 13-14 15m520 150h-225v-40h86v-242l14-57-34 47-53 47-27-30 115-105 37 5v335h87v40m319 0h-233v-42q11-19 25-36t27-35 27-31 25-28q13-15 25-28t21-25 15-25 6-29q0-12-5-23t-13-18-19-13-25-4q-15 0-26 4t-20 11-14 15-11 17l-36-15q7-17 17-30t24-24 31-15 39-6q25 0 45 9t33 24 21 33 7 38q0 19-7 36t-18 33-22 30-23 25q-13 16-26 30t-25 29-22 28-18 25h175v40m659 0h-45v-226l15-124-1 0-39 119-43 106h-25l-44-105-41-120-1 0 18 124v226h-45v-323l-7-52 54-5 61 142 18 63 17-63 57-137 51-5v380m199 4q-27 0-51-11t-39-30-27-45-9-57q0-30 9-56t26-44 39-30 52-11q28 0 51 11t39 30 25 44 9 56q0 31-8 57t-25 45-39 30-52 11m77-136q0-20-4-40t-14-34-24-25-36-10q-20 0-34 8t-25 22-14 32-4 36q0 20 4 39t14 35 25 25 36 9q20 0 34-8t24-22 13-31 5-36m184-77v209h-45v-275l45-5v48l15-29q5-3 11-7t15-5 20-5 29-2q19 0 35 7t27 18 17 29 6 38v188h-45v-188q0-13-5-23t-12-16-18-10-22-3q-12 0-23 3t-20 8-18 10-12 10m389 213q-27 0-51-11t-39-30-27-45-9-57q0-30 9-56t26-44 39-30 52-11q28 0 51 11t39 30 25 44 9 56q0 31-8 57t-25 45-39 30-52 11m77-136q0-20-4-40t-14-34-24-25-36-10q-20 0-34 8t-25 22-14 32-4 36q0 20 4 39t14 35 25 25 36 9q20 0 34-8t24-22 13-31 5-36" />
</svg>