<svg id="fnt-B612" viewBox="0 0 1240 1000" xmlns="http://www.w3.org/2000/svg"><path id="b612" class="f" d="M95 327l5 53v65h28q16 0 31-3t27-12 19-20 8-30q0-17-7-28t-19-17-25-9-29-3q-4 0-9 0t-10 1-10 1-9 2m55 340h-102v-323l-8-50q8-1 17-2t21-1 21-1 18-1q28 0 53 4t46 13 32 26 12 42q0 28-13 47t-34 31l-39 11 37 3q15 5 29 12t24 17 16 24 6 33q0 21-6 38t-16 29-23 22-28 15-31 8-32 3m-50-183v143h35q25 0 44-4t31-12 19-22 7-35q0-19-7-32t-18-22-29-12-37-4h-45m464-196l-7 43q-1-1-5-1t-6 0q-18 0-35 6t-32 15-28 25-22 31-16 37-8 40l21-29q6-4 14-8t18-6 19-4 18-2q22 0 42 6t35 18 25 33 10 46q0 27-9 52t-26 42-39 28-51 11q-25 0-44-8t-33-21-23-30-15-34-9-35-2-31q0-30 6-58t18-53 28-46 38-36 47-23 55-9q4 0 9 1t7 0m-157 229q0 7 0 13t1 11 2 12 3 12q3 14 9 26t15 20 20 13 25 4q20 0 34-7t23-20 12-28 5-32q0-16-5-28t-13-20-21-12-26-4q-13 0-26 4t-24 8-20 13-14 15m506 150h-175v-40h61v-242l14-57-34 47-53 47-27-30 115-105 37 5v335h62v40m326 0h-226v-42q12-19 26-38t28-35 28-33 25-28q13-14 24-26t21-25 14-25 5-27q0-12-5-23t-12-18-20-13-24-4q-16 0-27 4t-19 11-15 15-11 17l-35-15q6-17 16-30t24-24 31-15 39-6q26 0 45 9t34 24 20 33 8 38q0 19-8 36t-17 33-23 30-23 25q-13 16-26 30t-25 29-22 28-17 25h167v40" />
</svg>