<svg id="fnt-Bacasime Antique" viewBox="0 0 3589 1000" xmlns="http://www.w3.org/2000/svg"><path id="bacasime-antique" class="f" d="M23 667v-8q23-1 34-3t15-11 4-21v-201q0-14-4-21t-15-10-34-3v-8q11 0 28 1t41 0q16 0 32 0t30-1 20 0q51 0 80 17t29 48q0 30-21 45t-71 26v0q122 4 122 71 0 37-35 58t-95 21q-12 0-38-1t-53-1q-24 0-42 1t-27 1m137-278l-46 0v126h45q42 0 63-17t22-48q0-32-20-46t-64-15m-1 269q113 0 113-72 0-64-95-64h-63v104q0 14 3 20t13 10 29 2m256 14q-25 0-39-14t-15-41q0-20 8-31t19-18 26-10 26-7 21-9 11-16q-2-30-10-46t-25-16q-16 0-27 4t-12 13q0 8 5 17t6 17q0 7-5 12t-14 4q-9 0-15-6t-6-18q0-15 10-27t28-19 39-8q34 0 49 24t14 67v98q0 19 11 19 7 0 13-2t10-11l4 6q-9 11-17 15t-23 3q-34 0-34-37-11 17-25 27t-33 10m16-17q12 0 23-6t18-22v-86q0-4 0-7-2 12-10 17t-19 8-21 7-16 15-7 33q0 20 9 31t23 10m232 17q-41 0-65-29t-25-77q0-34 12-59t33-39 49-15q30 0 50 16t20 38q0 16-6 26t-17 11q-9 0-15-6t-5-14q0-9 6-21t6-23q0-8-10-13t-24-4q-29 0-44 26t-16 74q0 46 16 71t46 25q20 0 36-9t23-33l7 8q-8 24-29 36t-48 11m173 0q-24 0-39-14t-15-41q0-20 8-31t19-18 26-10 26-7 22-9 10-16q-1-30-10-46t-25-16q-15 0-27 4t-12 13q0 8 6 17t5 17q0 7-5 12t-13 4q-10 0-16-6t-5-18q0-15 10-27t28-19 39-8q34 0 48 24t14 67v98q0 19 12 19 6 0 12-2t11-11l4 6q-9 11-18 15t-22 3q-35 0-35-37-10 17-25 27t-33 10m17-17q11 0 22-6t19-22v-86q0-4 0-7-3 12-11 17t-19 8-20 7-17 15-7 33q0 20 9 31t24 10m210 17q-16 0-26-3t-15-7-11-4q-4 0-8 3t-5 10h-8q1 0 2-6t1-24-2-54h8q4 35 18 57t39 21q21 0 32-12t12-33q0-20-9-31t-32-18q-31-9-46-20t-16-36q0-29 16-45t43-17q14 0 21 4t13 7 11 3q7 0 12-13h7q-2 13-2 29t1 43h-7q-3-30-17-48t-35-17q-16 0-26 10t-10 28q0 19 12 28t37 16q28 8 41 22t13 39q0 32-18 50t-46 18m96-5v-8q18 0 25-6t7-23v-128q0-15-7-24t-25-12v-7q8 1 14 1t13 0q25 0 42-6v176q0 17 7 23t26 6v8q-8-1-22-1t-29-1-29 1-22 1m53-257q-10 0-17-8t-7-18q0-11 7-18t17-7q9 0 16 7t7 18q0 10-7 18t-16 8m70 257v-8q22 0 31-7t9-22v-128q0-18-9-26t-31-10v-7q7 1 14 1t16 0q12 0 24-1t22-5v45q10-24 28-35t39-11q45 0 59 47 11-26 30-36t43-11q32 0 48 23t17 69v85q0 16 9 23t31 6v8q-8-1-25-1t-33-1q-14 0-28 1t-21 1v-8q18 0 24-6t7-23v-105q0-30-11-45t-31-14q-17 0-32 10t-25 35q3 16 3 34v85q0 16 6 23t24 6v8q-7-1-20-1t-28-1q-14 0-28 1t-21 1v-8q18 0 24-6t7-23v-105q0-30-11-45t-31-14q-33 0-54 50v114q0 16 6 22t24 7v8q-10-1-23-1t-26-1q-14 0-29 0t-28 2m505 5q-28 0-49-13t-33-38-12-54q0-51 26-83t71-31q25 0 43 13t29 35 9 44h-139q0 3 0 7 0 55 18 81t49 26q21 0 38-10t27-32l7 8q-10 24-32 36t-52 11m0-211q-13 0-24 11t-20 29-10 36h100q0-42-11-59t-35-17m234 206v-8q19-2 31-9t20-24l113-249h12l118 254q6 13 18 20t30 8v8q-13-1-28-1t-32-1q-23 0-42 1t-29 1v-8q34 0 42-8t-2-28l-29-63h-132l-7 14q-20 43-11 64t41 21v8q-11-1-29-1t-35-1q-11 0-20 1t-29 1m157-258l-64 143h126l-62-143m200 258v-8q22 0 30-7t8-22v-128q0-18-9-26t-29-10v-7q7 1 15 1t15 0q11 0 23-1t21-5v44q10-23 28-34t39-11q30 0 46 24t17 68v85q0 16 8 23t30 6v8q-8-1-25-1t-31-1q-14 0-27 1t-20 1v-8q16 0 22-6t6-23v-105q0-30-10-45t-31-14q-32 0-52 50v114q0 16 7 22t22 7v8q-9-1-21-1t-26-1q-15 0-30 0t-26 2m330 5q-25 0-35-14t-11-48v-143h-34v-8h34v-61q9 0 19-2t17-4v67h49v8h-49v169q0 12 5 18t15 6q11 0 19-13t12-32l5 2q-9 55-46 55m59-5v-8q18 0 25-6t7-23v-128q0-15-7-24t-25-12v-7q8 1 14 1t13 0q25 0 42-6v176q0 17 7 23t26 6v8q-8-1-22-1t-29-1-29 1-22 1m53-257q-10 0-17-8t-7-18q0-11 7-18t17-7q9 0 16 7t7 18q0 10-7 18t-16 8m166 262q-26 0-45-15t-30-39-10-53q0-31 12-56t32-41 49-15q22 0 37 10t21 31q11-8 21-19t17-23l5 6q-5 10-7 18t-3 19v228q0 17 9 23t30 6v8q-8-1-24-1t-34-1q-18 0-38 1t-30 1v-8q28 0 39-7t12-25v-84q-8 16-24 26t-39 10m-46-115q0 47 16 75t44 28q17 0 29-11t20-31v-107q-6-26-18-36t-28-11q-30 0-46 25t-17 68m298 115q-31 0-47-23t-17-69v-78q0-18-8-26t-30-10v-7q5 1 13 1t15 0q12 0 23-1t24-5v155q0 27 10 39t31 12q14 0 27-12t23-36v-110q0-19-8-26t-28-10v-7q6 1 13 1t15 0q11 0 22-1t22-5v170q0 18 9 26t30 10v7q-14-1-29-1-12 0-23 1t-23 4v-42q-10 23-27 33t-37 10m265 0q-28 0-49-13t-32-38-12-54q0-51 26-83t71-31q24 0 43 13t28 35 10 44h-139q0 3 0 7 0 55 17 81t50 26q20 0 38-10t27-32l7 8q-10 24-32 36t-53 11m1-211q-13 0-25 11t-19 29-10 36h99q1-42-10-59t-35-17" />
</svg>