<svg id="fnt-Bagel Fat One" viewBox="0 0 3149 1000" xmlns="http://www.w3.org/2000/svg"><path id="bagel-fat-one" class="f" d="M203 667l-79-1q-23-1-43-6t-34-19-24-37-8-60q0-35 10-61t23-42 25-19l-3-9h-8q-23 0-37-15t-13-40 13-40 37-15h137q54 0 78 25t24 67q0 33-15 55t-46 27v7q33 2 54 23t21 63q0 45-26 71t-86 26m-92-247v22q0 11 4 14t15 4h46q19 0 29-6t10-23q0-17-10-23t-29-5h-46q-11 0-15 3t-4 14m0 96v26q0 11 4 15t16 4h51q20 0 30-7t11-25-11-25-30-6h-51q-12 0-16 3t-4 15m299 151q-37 0-58-20t-21-56 24-53 62-16q22 0 40 3t32 9h2v-8q0-11-9-18t-21-6q-13 0-22 1t-21 5q-24 6-42-1t-24-27q-6-22 3-36t27-23q15-7 34-12t42-5q66 0 96 31t31 107v77q0 21-12 34t-35 14q-24 0-36-14t-11-33v-11h-10q0 13-5 26t-20 23-46 9m5-110q0 9 6 12t27 4q19 0 27-4t7-12q0-8-7-11t-27-3q-21 0-27 3t-6 11m313 213q-31 0-52-7t-41-20q-17-12-24-33t7-44q9-13 20-18t22-5 19 5q18 9 27 12t23 4q18 0 31-13t13-36v-41h-9q-4 27-21 42t-45 15q-22 0-43-11t-35-35-13-63q0-58 25-87t66-28q28 0 48 18t20 53l2-1v-28q0-17 11-31t35-13q26 0 37 13t11 31l1 158q0 52-13 88t-43 56-79 19m-37-257q0 27 36 27 23 0 33-6t9-21q0-14-10-20t-33-5q-17 0-26 5t-9 20m195 24q0-40 16-70t45-47 70-17q31 0 56 12t40 30 15 43q0 24-14 34t-42 10h-105q0 13 10 21t35 9q13 0 23-3t22-5 26-2q20 0 33 14t13 40q0 29-31 46t-79 16q-34 0-65-13t-49-43-19-75m83-22h79q8 0 5-7-2-7-12-14t-29-8q-22 0-33 10t-10 19m229 152q-24 0-37-13t-12-33v-290q0-21 12-36t37-14q22 0 34 14t12 35v291q0 20-12 33t-34 13m217 0q-25 0-39-14t-14-39v-71q0-53 16-80t40-40l-2-9h-9q-23 0-36-15t-14-40q0-25 13-40t37-15h175q54 0 54 50 0 22-13 36t-41 13h-97q-19 0-19 22v36q24-7 49-15t49-9q25 0 39 12t14 38q0 24-14 36t-39 13q-23 1-49-8t-49-14l-1 100q0 26-14 39t-36 14m315 0q-37 0-58-20t-21-56 24-53 62-16q22 0 40 3t32 9h2v-8q0-11-9-18t-21-6q-13 0-22 1t-21 5q-24 6-42-1t-24-27q-6-22 3-36t27-23q15-7 34-12t42-5q66 0 96 31t31 107v77q0 21-12 34t-35 14q-24 0-36-14t-11-33v-11h-10q0 13-5 26t-20 23-46 9m5-110q0 9 6 12t27 4q19 0 27-4t7-12q0-8-7-11t-27-3q-21 0-27 3t-6 11m341 111q-26 0-48-12t-33-34-12-52v-88l-18 2q-15 2-27-10t-11-32 11-31 27-10l18 2 0-34q-1-20 11-32t35-11 36 11 11 32l-1 34 27-3q27-4 41 9t14 33-14 33-40 10l-28-3v74q0 7 5 12t11 3q7-2 15-8t22-7q19 0 30 14t10 35q0 16-11 30t-32 24-49 9m369 0q-54 0-91-23t-56-65-19-96q0-53 19-95t56-66 91-23 90 23 56 66 19 95q0 54-19 96t-56 65-90 23m-103-192q0 16 8 29t29 22 66 9 65-9 29-22 8-29q0-16-8-29t-29-20-65-8-66 8-29 20-8 29m340 191q-22 0-35-14t-13-32v-166q0-21 12-35t36-15q23 0 35 15t12 36v25h9q0-28 10-45t27-24 32-7q38 0 56 28t18 79v109q0 19-13 32t-35 14q-22 0-36-14t-13-32v-89q0-18-7-28t-19-10q-15 0-22 11t-7 28v88q0 19-12 32t-35 14m223-130q0-40 16-70t45-47 70-17q31 0 56 12t40 30 15 43q0 24-14 34t-42 10h-105q0 13 10 21t35 9q13 0 23-3t22-5 26-2q20 0 33 14t13 40q0 29-31 46t-79 16q-34 0-65-13t-49-43-19-75m83-22h79q8 0 5-7-2-7-12-14t-29-8q-22 0-33 10t-10 19" />
</svg>