<svg id="fnt-Bahiana" viewBox="0 0 1021 1000" xmlns="http://www.w3.org/2000/svg"><path id="bahiana" class="f" d="M105 480q12 2 19 4t7 7v151q0 9-13 12t-25 3h-68v-345h57q15 0 29 5t15 19l-1 5-14 127q0 6-1 8t-5 4m-51-21q0 4 6 4l19-7q4-1 4-5l5-108q0-2-7-2h-21q-6 0-6 2v116m24 170q9 0 12-4t4-8q0-3-1-3v-113q2-1 2-1 0-2-4-2h-21q-1 0-3 1t-2 2v126q0 1 2 1t3 1h8m192-317l21 355h-22l-18-133-40 19-11 114h-31l22-355h79m-26 24q0-3-3-3l-21 5q-3 1-3 5v176q0 2 3 2l18-3q3 0 3-3l3-179m183 331l-15-155-43-9v164h-37v-355h36l-5 157 49-2v-155h37v355h-22m103-355l11 345h-42v-345h31m148 0l21 355h-22l-18-133-40 19-11 114h-31l22-355h79m-26 24q0-3-3-3l-21 5q-3 1-3 5v176q0 2 3 2l18-3q3 0 3-3l3-179m211-24l-10 365h-34l-49-287h-2l-10 287h-25l16-365h30l51 289h3v-289h30m137 0l20 355h-22l-18-133-40 19-11 114h-31l23-355h79m-26 24q0-3-3-3l-22 5q-3 1-3 5v176q0 2 3 2l19-3q3 0 3-3l3-179" />
</svg>