<svg id="fnt-Bahianita" viewBox="0 0 1110 1000" xmlns="http://www.w3.org/2000/svg"><path id="bahianita" class="f" d="M20 657v-345h57q15 0 29 5t15 19l-1 5-14 127q-1 6-2 8t-4 4q12 2 19 4t7 7v151q0 9-13 12t-25 3h-68m35-194l19-7q4-2 4-5l5-108q0-2-7-2h-21q-6 0-6 2v116q0 4 6 4m10 166h8q15 0 15-15v-113q0-1 0-2t-2-1h-21q-1 0-3 1t-2 2v126q0 1 2 1t3 1m129 38q-14 0-23-7t-10-17l1-122q-1-10 5-17t17-6l42 3 1-94-6-3-54-3v-25h66q14 0 20 7t6 25l-1 229 9 5v25h-73m29-29l3-4-1-105h-28l-3 3-2 102q0 1 1 2t4 1l26 1m146 30l5-258q0-2-1-3t-3-1l-34 0 3 261h-33l-3-353 13-8h21l-1 70h49l20 14v250l7 8v19l-43 1m83 11l-2-303h37l-4 265 7 15 0 23h-38m-5-331l-2-49h47v47l-45 2m112 319q-14 0-23-7t-10-17l1-122q-1-10 5-17t17-6l42 3 1-94-6-3-54-3v-25h66q14 0 20 7t6 25l-1 229 9 5v25h-73m29-29l3-4-1-105h-28l-3 3-2 102q0 1 1 2t4 1l26 1m80 29v-281q10-6 23-9t41-2q14 0 22 7t9 17l-1 268h-31l3-258q0-2-1-2t-3-1h-30l-3 261h-29m142 12l-2-303h37l-4 265 7 15 0 23h-38m-5-331l-2-49h47v47l-45 2m111 319l-21-25 3-239h-21v-15l21-12 9-64h24v64h49v30h-50v225l28 9 5-42h18v69h-65m120 0q-14 0-23-7t-10-17l1-122q-1-10 5-17t17-6l42 3 1-94-6-3-54-3v-25h66q14 0 20 7t6 25l-1 229 9 5v25h-73m29-29l3-4-1-105h-28l-3 3-2 102q0 1 1 2t4 1l26 1" />
</svg>