<svg id="fnt-Bakbak One" viewBox="0 0 2754 1000" xmlns="http://www.w3.org/2000/svg"><path id="bakbak-one" class="f" d="M298 581q0 40-25 61t-87 20h-156v-316h20 131q42 0 65 8t33 26 9 43q0 35-17 54t-62 23v2q34 2 53 11t28 25 8 43m-139-172h-49v62h49q25 0 36-7t11-24q0-18-11-25t-36-6m10 127h-59v64h59q25 0 36-7t11-25q0-19-11-26t-36-6m267-120q48 0 77 10t43 37 14 77v122h-72l-3-23h-1q-10 13-30 20t-52 8q-86 0-86-81 0-35 22-55t72-19h74q-3-21-18-29t-49-7q-22 0-44 3t-37 8l-1-1 0-58q10-3 26-6t32-4 33-2m-3 192q31 0 46-8t16-25v-12h-56q-22 0-31 6t-9 17q0 12 9 17t25 5m270-59v113h-80v-336h80v196h1l63-103h88v2l-74 115v2l86 124h-92l-71-112-1-1m435-19q0 67-27 102t-94 35q-37 0-69-3t-55-7l-2-1v-330h80v130h2q7-18 23-29t47-11q95 0 95 114m-167 8v59q12 2 28 2 24 0 37-5t19-16 5-36q0-30-8-44t-35-14q-20 0-33 12t-13 42m302-122q48 0 78 10t43 37 14 77v122h-73l-2-23h-2q-9 13-29 20t-52 8q-87 0-87-81 0-35 23-55t72-19h74q-4-21-18-29t-50-7q-22 0-43 3t-37 8l-2-1 1-58q10-3 25-6t33-4 32-2m-3 192q31 0 47-8t16-25v-12h-57q-22 0-31 6t-8 17q0 12 9 17t24 5m270-59v113h-80v-336h80v196h1l63-103h88v2l-74 115v2l86 124h-92l-70-112-2-1m329-45q0-61 13-96t48-51 94-16q46 0 76 9t47 27 25 50 7 77q0 45-7 76t-25 51-47 27-76 9-75-9-48-27-25-51-7-76m155 93q32 0 48-8t22-29 5-56q0-36-5-56t-22-29-48-8q-31 0-48 8t-22 29-5 56q0 36 5 56t22 29 48 8m285-60v125h-80v-243h76l4 44h2q7-22 25-35t50-12q43 0 64 25t21 85v136h-80l-1-121q0-28-8-40t-32-12q-22 0-31 11t-10 37m431 62v55q-14 5-39 9t-58 4q-43 0-74-12t-45-38-16-76q0-66 30-95t94-30q46 0 72 13t37 37 12 56q0 10-1 21t-3 21l-2 2h-164q3 22 20 29t57 7q26 0 43-1t35-4l2 2m-159-85h102q0-12-4-21t-14-14-33-4q-31 0-41 10t-10 29" />
</svg>