<svg id="fnt-Ballet" viewBox="0 0 1374 1000" xmlns="http://www.w3.org/2000/svg"><path id="ballet" class="f" d="M326 397q-37 0-69 13t-50 35-19 47q0 21 14 41t44 31 74 13 80-12 60-32 38-46 13-54q0-32-16-56t-44-40-62-24-73-8q-63 0-115 15t-92 40-68 60-42 73-15 79q0 43 18 84t52 75 89 53 127 20q27 0 57-4t62-14 60-23 49-34l4 4q-21 19-49 33t-59 24-64 14-60 5q-74 0-129-20t-91-55-54-77-17-86q0-41 15-81t43-73 69-61 94-41 116-15q39 0 74 8t64 25 45 41 17 59q0 29-14 56t-38 48-62 33-82 12q-47 0-78-13t-44-34-15-43q0-27 20-50t52-36 71-14q27 0 43 6t24 17 7 20q0 14-13 29t-40 26-66 10q-27 0-54-8t-48-25-34-38-12-50q0-34 19-68t55-61 87-45 114-17q58 0 102 15t74 42 45 58 15 65q0 25-9 49t-28 43-45 32-61 12q-16 0-27-4t-10-12q0-7 6-11t15-3q18 0 31 9t19 25 7 33q0 24-15 49t-42 46-68 35-93 14q-34 0-63-8t-54-17-47-18-42-7q-15 0-23 4t-8 13q0 22 52 22 44 0 79-14t66-39 66-61 75-81 96-96q18-18 35-31t34-23h26q-19 6-45 22t-46 36q-27 27-50 60t-45 67-46 65-52 55-64 40-82 14q-35 0-58-4t-34-11-12-20q0-12 9-18t25-6q20 0 43 8t49 17 55 18 61 8q44 0 82-15t66-37 43-48 16-48q0-12-5-25t-13-20-25-8q-8 0-13 2t-5 8q0 5 8 8t23 3q33 0 59-12t43-31 27-42 9-47q0-32-15-64t-44-56-73-40-100-15q-59 0-108 16t-86 43-56 60-19 66q0 28 12 49t33 37 46 23 52 8q38 0 63-9t38-24 13-27q0-9-7-18t-21-14-41-6m231 273q-17 0-17-25 0-17 10-36t27-37 38-32 43-23 43-9q17 0 17 13 0 12-16 31t-39 43q-18 19-39 36t-38 28-29 11m0-3q10 0 26-10t36-26 42-38q23-25 38-43t14-28q0-9-11-9-10 0-25 8t-33 21-34 30-31 32-22 31-9 24q0 8 9 8m198-85h5l-4 5q-21 24-42 43t-39 30-28 11q-6 0-10-4t-4-11q0-17 18-45t52-63h2l30-33h39q-9 5-19 13t-18 16q-37 37-58 59t-30 35-9 20q0 10 8 10 9 0 25-10t36-28 41-41l5-7m-17 89q-17 0-17-19 0-31 34-70l312-352h41q-10 5-32 24t-48 48-58 62l-186 210q-30 34-42 52t-11 31q0 11 9 11 17 0 46-21t62-58l5-7h5l-4 5q-36 41-66 62t-50 22m98 0q-17 0-17-19 0-31 34-70l312-352h41q-10 5-32 24t-48 48-58 62l-186 210q-30 34-42 52t-11 31q0 11 9 11 17 0 46-21t62-58l5-7h5l-4 5q-36 41-66 62t-50 22m120-3q17 0 39-10t45-29 44-40l6-7h5l-5 5q-21 24-46 43t-48 30-40 11q-13 0-21-9t-7-25 9-34 25-34 36-30 40-22 40-8q9 0 14 4t5 9q0 10-12 22t-30 21-40 17-40 6l5-4q18-1 37-7t36-16 27-20 10-19q0-8-10-8-12 0-30 10t-37 27-35 36-27 37-10 30q0 14 15 14m417-198h-257v-4h257v4m-255 104q-29 33-41 51t-12 32q0 11 9 11 10 0 22-7t29-25 45-47l6-7h5l-4 5q-41 46-65 65t-39 19q-18 0-18-19 0-31 35-70 10-12 19-23t20-23 29-31 43-46 64-67q8 0 19-2t22-4q-16 11-45 39t-67 67-76 82" />
</svg>