<svg id="fnt-Barlow Condensed" viewBox="0 0 3081 1000" xmlns="http://www.w3.org/2000/svg"><path id="barlow-condensed" class="f" d="M207 572q1 45-24 70t-65 25h-77q-5 0-5-5v-340q0-5 5-5h72q43 0 68 23t24 68q0 56-41 77-1 0-1 1t0 1q44 25 44 85m-133-224q-2 0-2 2v120q0 2 2 2h39q27 0 42-16t15-45q0-30-15-47t-42-16h-39m41 287q27 0 42-18t15-49q0-33-15-51t-42-18h-41q-2 0-2 2v132q0 2 2 2h41m214-225q35 0 56 22t21 61v169q0 5-5 5h-25q-5 0-5-5v-15q0-1-1-2t-2 1q-18 25-55 25-28 0-48-16t-20-56q0-42 24-62t65-20h35q2 0 2-2v-19q0-25-12-40t-31-15q-15 0-26 10t-12 25q0 5-5 5l-28 0q-3 0-4-2t-1-3q3-30 24-48t53-18m-9 230q21 0 36-14t15-36v-42q0-2-2-2h-36q-24 0-38 12t-14 38q0 22 11 33t28 11m227-229q13 0 22 6 3 2 2 6l-6 26q0 5-6 3-6-3-15-3-4 0-6 1-18 1-29 18t-12 44v150q0 5-5 5h-25q-5 0-5-5v-243q0-5 5-5h25q5 0 5 5v30q0 1 1 1t2-1q14-38 47-38m63 256q-5 0-5-5v-340q0-5 5-5h25q5 0 5 5v340q0 5-5 5h-25m161 4q-36 0-57-21t-21-56v-107q0-34 21-56t57-21q36 0 58 21t21 56v107q0 35-21 56t-58 21m0-32q19 0 31-13t13-34v-103q0-22-13-35t-31-13-31 13-12 35v103q0 21 12 34t31 13m168 28q-5 0-6-5l-53-243v-1q0-4 5-4h24q5 0 6 4l36 191q0 1 1 1t1-1l37-191q1-4 5-4h23q5 0 5 4l37 191q1 1 1 1t1-1l37-191q1-4 6-4l24 0q5 0 4 6l-53 242q0 5-5 5h-26q-4 0-5-5l-37-183q-1-1-1-1t-1 1l-36 183q0 5-5 5h-25m419 4q-39 0-62-24t-23-63v-185q0-39 23-63t62-23q39 0 62 23t23 63v8q0 5-5 5l-26 2q-5 0-5-5v-13q0-23-13-38t-36-14q-22 0-36 14t-14 38v191q0 24 14 38t36 15q22 0 36-15t13-38v-12q0-5 5-5l26 1q5 0 5 5v8q0 40-23 63t-62 24m208 0q-36 0-58-21t-21-56v-107q0-34 22-56t57-21q36 0 57 21t22 56v107q0 35-22 56t-57 21m0-32q19 0 31-13t12-34v-103q0-22-12-35t-31-13-31 13-12 35v103q0 21 12 34t31 13m224-229q31 0 47 21t17 59v172q0 5-5 5h-25q-5 0-5-5v-169q0-25-11-38t-30-14q-20 0-31 15t-11 39v167q0 5-5 5h-26q-5 0-5-5v-243q0-5 5-5h26q5 0 5 5v16q0 1 1 1t1-1q9-12 23-19t29-6m237-88q0-5 5-5h26q5 0 5 5v340q0 5-5 5h-26q-5 0-5-5v-11q0-1-1-2t-1 1q-19 21-48 21-32 0-51-22t-19-55v-108q0-35 19-56t51-20q29 0 48 21 1 1 1 1t1-2v-108m-42 318q19 0 30-14t12-34v-103q0-22-12-35t-30-13q-19 0-31 13t-12 35v103q0 21 12 34t31 14m290-91q0 5-5 5h-114q-2 0-2 2v36q0 21 11 34t31 14q16 0 27-10t15-25q2-5 6-5l25 1q2 0 3 2t1 4q-4 29-24 46t-53 18q-35 0-57-21t-21-56v-108q0-34 21-55t57-21q36 0 57 21t22 55v63m-79-108q-19 0-31 13t-11 35v33q0 2 2 2h82q2 0 2-2v-33q0-22-12-35t-32-13m221-31q31 0 47 21t17 59v172q0 5-5 5h-25q-5 0-5-5v-169q0-25-11-38t-30-14q-20 0-31 15t-11 39v167q0 5-5 5h-26q-5 0-5-5v-243q0-5 5-5h26q5 0 5 5v16q0 1 1 1t1-1q9-12 23-19t29-6m188 259q-34 0-55-18t-21-47v-3q0-5 5-5h24q5 0 5 5v3q0 16 12 27t31 11q18 0 29-11t11-28q0-13-7-22t-17-14-27-13q-20-8-33-16t-22-22-9-36q0-32 20-50t53-19q34 0 54 19t20 51v1q0 5-5 5h-23q-5 0-5-5v-3q0-17-11-28t-29-11-29 11-11 28q0 12 7 20t16 14 26 13q21 9 34 17t23 22 10 36q0 31-20 50t-56 18m272-120q0 5-5 5h-114q-2 0-2 2v36q0 21 12 34t31 14q16 0 27-10t15-25q1-5 5-5l25 1q2 0 4 2t1 4q-4 29-25 46t-52 18q-36 0-57-21t-21-56v-108q0-34 21-55t57-21q36 0 57 21t21 55v63m-78-108q-19 0-31 13t-12 35v33q0 2 2 2h82q2 0 2-2v-33q0-22-12-35t-31-13m246-119q0-5 5-5h25q5 0 5 5v340q0 5-5 5h-25q-5 0-5-5v-11q0-1-1-2t-2 1q-19 21-48 21-32 0-51-22t-19-55v-108q0-35 19-56t51-20q30 0 48 21 1 1 2 1t1-2v-108m-42 318q18 0 30-14t12-34v-103q0-22-12-35t-30-13q-19 0-32 13t-12 35v103q0 21 12 34t32 14" />
</svg>