<svg id="fnt-Barriecito" viewBox="0 0 1982 1000" xmlns="http://www.w3.org/2000/svg"><path id="barriecito" class="f" d="M45 670q-8 0-11-5t-3-14l1-111v-24q0-19 1-34l2-61q0-11 0-32t1-26q1-4 1-14 0-17-2-25 0-1 0-2 0-3 5-5 5-1 27-4t39-3q47 0 75 19t28 72q0 48-29 75-13 11-29 17 29 10 60 35t31 74q0 32-23 46t-46 18-49 3l-48 1-31 0m54-184q10 0 31-5t41-24 19-52q0-36-12-53t-32-23-47-4l-1 32q-1 36-1 53v57q0 5-1 9t0 6q0 3 0 3t3 1m13 173q49 0 74-16t24-42q0-67-57-91-26-9-58-9 0 2 0 4-1 3-1 12l1 32 1 27q0 7 0 10l-1 13 1 29 1 23q0 6 2 7t7 1 6 0m240 13q-37 0-59-14t-22-52q3-24 36-35t74-12q13 0 31-2t33-2q-2-54-7-85t-16-46-32-15q-15 0-28 7t-34 22q-16 12-16 12-1 0-4 1t-5 2q-4-1-4-5-2-3-5-13t-3-15q0-3 6-7 26-19 43-29t31-11 30-3q50 0 67 32t17 86q0 14-1 38 0 15-2 43l0 12 0 29q1 20 1 31l0 15q-1 11-9 11l-4 0h-21q-2 0-4-2t-1-4v-4q-30 8-48 12t-44 3m0-28q54 0 92-18l1-47q-23-2-40-2l-30 1q-24 0-43 9t-20 26q0 18 8 24t32 7m272 24q-1 0-8-1t-19-1l-39 1q-7 0-7-6 0-2 0-14t0-39q0-29 2-55t2-30l3-90 0-52q0-5 3-6 2 0 11 1t21 0q10 0 20 0t12-1q1 0 2 2t2 3l1 14q17-11 39-19t35-8q3 0 4 1t2 4 3 6q5 13 6 30 1 8 3 19 1 4 1 11 0 4-1 4-4 6-12 8t-23 5q-20 2-34 6l-22 5 1 20q0 16 0 17l1 42q1 33 1 90 0 22-2 30 0 3-8 3m207 0q0 0-8-1t-19-1l-38 1q-8 0-8-6 0-2 0-14t1-39q0-29 1-55t2-30l3-90 1-52q0-5 2-6 3 0 11 1t22 0q10 0 19 0t12-1q2 0 3 2t1 3l1 14q17-11 40-19t35-8q3 0 4 1t2 4 2 6q5 13 7 30 0 8 2 19 1 4 1 11 0 4 0 4-4 6-12 8t-24 5q-19 2-33 6l-22 5 0 20q0 16 1 17l0 42q1 33 1 90 0 22-2 30 0 3-8 3m139 3q-4 0-5-1t-1-3q0-2 0-5t1-9l0-54 1-87q0-14 2-60 2-52 2-57l-1-8q0-6 2-9t5-2l21 0q5 0 5 6 0 2-1 5t0 5q-1 10-2 46 0 11-2 58-1 16-1 30t-1 26q0 24 1 61t2 44q0 2 0 5t-1 5-3 2q-4 2-13 2t-11 0m17-314q-11 0-20-8t-8-20q0-10 7-19t19-8q12 0 22 7t10 18q0 14-10 22t-20 8m187 321q-75 0-100-51t-25-109q0-56 17-90t41-47 49-13q46 0 69 26t30 62 7 76q0 4-5 5-17 0-76 5-10 1-23 2t-30 3q4 48 52 48 16 0 25-3t28-12q4 0 6 4t8 16q2 3 4 10t4 10q10 24 9 25-1 2-5 6-11 10-34 18t-51 9m-46-160l58-5q-4-57-28-57-14 0-21 16t-9 46m282 155q-55 0-85-43t-29-112q0-43 14-77t39-52 58-18q32 0 52 11t28 22q0 1 2 3t3 6-5 7q-5 4-12 14-5 8-8 8-2 0-4-3t-3-3q-9-9-22-18t-26-8q-28 0-46 8t-30 35-11 74q0 74 25 96t53 23q13 0 31-12t32-37q5-5 7-5t5 2l8 6q4 4 9 10t6 10q0 2-2 4-10 16-31 32t-58 17m136-2q-4 0-5-1t-1-3q0-2 0-5t0-9l1-54 1-87q0-14 2-60 2-52 1-57l0-8q0-6 1-9t6-2l21 0q4 0 4 6 0 2 0 5t-1 5q-1 10-2 46 0 11-2 58 0 16-1 30t0 26q0 24 0 61t2 44q1 2 1 5t-1 5-4 2q-4 2-13 2t-10 0m16-314q-10 0-19-8t-9-20q0-10 8-19t18-8q13 0 23 7t10 18q0 14-10 22t-21 8m128 312q-20 0-30-6t-13-17-3-29l0-31 3-59 1-44v-73q-24 0-27-8-2-4-2-9 0-5 1-9t1-9q9 1 27 1l1-2 0-19v-22q0-12 2-16t7-4q2 0 4 0h1q1 0 3 0t5 1q10 1 10 8 0 2-1 12-3 17-4 42h48q4 0 7 6t2 15q0 10-4 11-10 3-23 3-12 0-30-2v119l-1 20q-1 19-1 40v10q0 16 7 24t18 8q11 0 19-1t12-1q5 0 5 20l2 8q2 3 0 4-16 6-24 7t-23 2m188 9q-66 0-88-51t-22-109q0-56 17-90t41-47 49-13q46 0 69 24t30 57 7 75q0 34-12 69t-34 60-57 25m-4-97q17 0 24-16t8-37q0-29-7-41t-22-11q-31 0-31 56 0 21 6 35t22 14" />
</svg>