<svg id="fnt-Barrio" viewBox="0 0 1531 1000" xmlns="http://www.w3.org/2000/svg"><path id="barrio" class="f" d="M151 493q29 10 60 35t31 74q0 32-23 46t-46 18-49 3l-48 1-31 0q-8 0-11-5t-3-14l1-111v-24q0-19 1-34l2-61q0-11 0-32t1-26q1-4 1-14 0-17-2-25 0-1 0-2 0-3 5-5 5-1 27-4t39-3q47 0 75 19t28 72q0 48-29 75-13 11-29 17m-54-26q0 5-1 9t0 6q0 3 0 3t3 1q10 0 31-5t41-24 19-52q0-36-12-53t-32-23-47-4l-1 32q-1 36-1 53v57m15 192q49 0 74-16t24-42q0-67-57-91-26-9-58-9 0 2 0 4-1 3-1 12l1 32 1 27q0 7 0 10l-1 13 1 29 1 23q0 6 2 7t7 1 6 0m429-2q3 5 3 6 0 4-9 4h-36q-2 0-4-3t-4-7-2-6q-3-5-10-23t-10-29q-1-5-6-15t-6-13q-2-6-4-8t-5-2-9 0-11 1q-4 1-25 1-15 0-29 1-4 1-16 1l-26-1q-3 0-4 2t-2 5-1 4l-3 13q-1 7-4 16t-3 17l-6 22-4 14q-1 6-3 8t-3 2h-30q-2 0-2-2 0-1 2-7 4-10 7-19 18-62 22-81 4-25 18-65 5-17 9-31 1-7 4-17 10-35 19-65l13-40q4-16 10-32 3-8 7-4 3 2 4 7t2 7q2 6 27 60 10 21 21 54 5 14 28 62 11 24 15 33 8 17 43 85l6 12q11 26 17 33m-131-165q4-1 6-1t4 0 2-2-2-4q-2-4-11-25t-13-31q-5-12-8-20t-4-11q-1-3-2-5t-2-4-2-2q-2 0-4 8t-2 11q-9 29-13 44-2 8-6 18t-5 15q-2 5-2 8t5 3q10 0 32-1t27-1m396 154q13 14 13 19 0 1-2 3-5 3-23 3-13 0-16-2t-6-5-2-6q-2-3-13-18t-16-21q-26-34-46-62-12-17-44-58l-8-10-35-43-2 20q-2 15-1 36 2 14 2 72t1 86q0 8-6 10t-14 2q-4 0-5-3t-1-6 0-5q-1-8-1-23 0-10 0-15 1-27 2-95t1-120q0-58-2-67 0-4 0-11 0-7 2-9t7-2q10 0 19 0l55 1q30 0 62 11t33 39q0 27-20 42t-45 20-43 6q-7 0-7-1 3 3 39 53 110 148 122 159m-199-232q16 0 25 0 29-1 45-4 23-4 34-11t12-22q0-10-10-18t-26-11-25-3q-13-1-35-1h-17l-3 70m479 232q14 14 14 19 0 1-3 3-4 3-22 3-13 0-17-2t-5-5-3-6q-1-3-12-18t-16-21q-27-34-46-62-12-17-45-58l-8-10-34-43-2 20q-2 15-1 36 1 14 2 72t0 86q0 8-6 10t-14 2q-3 0-4-3t-2-6 0-5q-1-8-1-23 0-10 1-15 0-27 1-95t1-120q0-58-1-67-1-4-1-11 0-7 2-9t7-2q10 0 20 0l54 1q30 0 63 11t32 39q0 27-20 42t-45 20-43 6q-6 0-7-1 3 3 40 53 110 148 121 159m-199-232q17 0 25 0 29-1 45-4 23-4 35-11t12-22q0-10-11-18t-25-11-26-3q-12-1-35-1h-17l-3 70m269-100q6 1 12 0t11 0q11 0 16 1 6 0 9 2t2 6q0 2 0 5t-1 6q-6 42-6 87-1 13-1 40l1 61q0 7 0 15l1 20q1 26 1 39 0 9-1 11t0 12l0 27q1 6 1 15 0 7-4 8t-11 2h-46q-7 0-9-4t-3-12q-1-3 1-18 2-14 2-24 0-4 4-68 3-47 3-51l1-49 1-46 1-27 1-18v-21q0-19 10-19 2 0 4 0m293 4q30 20 48 54t26 66 7 51q0 31-10 72t-41 76-93 35q-83 0-118-96-15-44-17-97 0-44 18-84t49-64 62-24q29 0 43 2t26 9m-65 326q53 0 79-44t26-111q0-41-13-76t-34-56-51-20q-3 0-14 0t-18 3-15 11q-16 16-28 30t-22 41-11 62q0 42 10 78t33 59 58 23" />
</svg>