<svg id="fnt-Bayon" viewBox="0 0 1074 1000" xmlns="http://www.w3.org/2000/svg"><path id="bayon" class="f" d="M111 667h-89q-2 0-2-3l1-343q0-2 2-2h96q28 0 51 13 22 14 35 37t13 49q0 21-10 40t-23 30q15 14 23 33t8 40q0 29-14 53-14 24-38 38t-53 15m8-289h-38v79h38q17 0 28-13t11-26q0-16-12-28t-27-12m-8 139h-30l-1 89h31q18 0 31-14t13-31-13-31-31-13m124 147l62-343q0-2 2-2h73q2 0 2 2l60 343q0 3-2 3h-56q-2 0-2-3l-6-36h-68l-5 36q0 3-3 3h-55q-2 0-2-3m123-90l-20-140-3-19-2 19-23 140h48m201 93h-57q-2 0-2-2l1-142-67-202q-1-2 1-2h56q2 0 3 2l37 134 37-134q1-2 3-2h56q2 0 1 2l-67 200 0 144q0 2-2 2m189 5q-27 0-49-14-22-14-36-37t-13-50l0-158q0-28 14-50 13-23 35-36t49-14q27 0 49 14 22 13 35 36t14 50l0 158q0 28-13 50-13 23-36 37t-49 14m0-61q15 0 26-12t12-28l-1-158q0-17-10-28t-27-12q-15 0-26 11t-11 29v158q0 17 11 28t26 12m190 56h-50q-4 0-4-4l0-340q0-4 4-4h45l84 197-2-193q0-4 4-4h50q3 0 3 4l0 341q0 3-2 3h-44l-87-184 4 180q0 4-5 4" />
</svg>