<svg id="fnt-Beau Rivage" viewBox="0 0 2071 1000" xmlns="http://www.w3.org/2000/svg"><path id="beau-rivage" class="f" d="M207 690q-23 0-46-3-1 0-1-1 0-2 5-8t10-10 9-5q4 0 8 1t10 1q10 1 20 2t21 1q18 0 36-4t33-14q12-10 24-24t13-31q0-17-13-29t-30-18-37-10-32-2q-8 0-15 1t-16 2h-1q-2 0-2-2 0-3 3-8t8-8 6-4q19 0 40-5t42-12 36-18q12-8 28-20t27-27 12-30q0-17-13-29t-30-19-36-13-31-7q-17-2-34-4t-34-1q-20 0-46 3t-52 9-49 17-41 28-23 40q-1 7-1 14 0 12 5 23t17 15h2q4 0 7-1t8 0q0 0 2 0t1 1q0 4-5 5t-8 2q-9 0-15-4t-9-4q-1 0-1 0t-1 1q-1 1-1 2t-3 2q-3 0-5-6t-4-11-2-9q0-11 3-22 6-29 24-50t45-36 55-24 59-14 56-4q36 0 71 8 15 3 34 9t35 17 28 24 12 33q0 19-13 36t-30 30-32 22q-5 3-14 8t-20 11-21 9-14 4q15 1 31 4t30 11 24 20 9 30q0 17-9 30t-22 24q-32 25-64 38t-73 13m-195 43h-7q-6 0-14 0t-12-3q-2-2-7-5t-6-6q0-4 3-4t3-3-2-8-1-8q0-5 2-13t8-7q2 0 2 1 0 5-3 10t-3 9q0 7 6 13t14 11 15 4q3 0 6 0t5 0q26-4 48-25t42-54 35-71 30-76 23-71 17-52q2-8 5-13t10-10q9-7 21-10t23-3q1 0 3 0t2 2q0 2-3 3t-5 1q-7 0-15 11t-16 29-15 36-12 34-7 21q-6 18-13 36t-13 37q-8 21-16 41t-20 41q-15 28-33 51t-41 37-59 14m405-64q-29 0-29-30 0-22 9-47t24-49 30-37q19-17 45-17 6 0 14 2t16 5 6 13q0 11-8 26t-16 24q3 0 6 1t4 4q0 2-2 2-5 0-9-1t-9-1q-17 0-35 5t-34 10q-5 12-9 27t-3 27q0 10 3 17t15 8q14 0 28-8t27-20 24-26 17-24q0 0 0 2 0 4-5 12t-12 15-6 11q-1 4-2 6t-3 6q-8 8-24 17t-33 14-29 6m19-106q13-2 26-4t26-1q4 0 8 0t8 0q4-8 6-18t3-20q0-7-3-15t-13-8q-9 0-19 8t-16 15q-8 9-14 20t-12 23m103 105q-8 0-11-7t-2-12q0-24 9-51t24-52 31-40q18-17 43-17 10 0 19 2t20 7q8-6 18-11t21-4q2 0 4 3v1q0 2-2 1t-2 0q-8 0-17 12t-19 32-18 40-12 38-5 27q0 3 1 8t6 4q3 0 4-1t4-2q11-6 22-18t20-24 15-24q1 0 1 2 0 3-4 8t-8 13-8 11-4 6q0 4-1 6t-3 6q-7 6-17 15t-21 14-20 7q-16 0-16-17 0-10 4-23t10-27 11-22q0 0 0-1t-1-1-1 1q-6 8-18 23t-25 30-28 26-24 11m22-22q5 0 13-7t18-18 16-19 11-14q6-9 13-23t14-28 6-24q0-16-16-16-9 0-19 8t-16 15q-6 8-15 23t-15 32-12 34-4 26q0 3 1 7t5 4m230 22q-9 0-12-5t-3-13q0-13 4-30t8-28q-13 20-30 39t-39 31q-4 2-8 4t-9 2q-7 0-9-5t-2-11v-2q0-8 3-16t5-16q4-11 10-29t10-34 5-29q0-4-1-8t-7-5q0 0-1 0t0 0q0-2 5-4t13-3 14-4 8-1q1 0 4 1t3 3q0 1-1 1-5 12-11 29t-13 34-10 36-4 31q0 2 1 5t4 2q5 0 13-6t12-10q19-20 34-48t23-53q2-8 5-11t9-8q8-6 17-10t20-5q1 0 3 1t1 3q0 1-1 1t-2 1q-7 0-14 8t-13 20-12 26-9 25-5 17q-2 9-5 19t-2 19q0 4 1 10t8 7q3 0 7-3 11-6 21-18t18-24 14-24q1 0 1 2 0 4-6 12t-10 17-6 9q0 4-1 6t-2 6q-6 6-16 15t-20 15-20 6m223 65h-7q-5 0-13 0t-12-3q-2-2-7-5t-6-6q0-4 3-4t3-3-2-8-1-8q0-5 2-13t8-7q2 0 2 1 0 4-3 10t-3 9q0 7 6 13t14 11 15 4q2 0 5 0t6 0q22-3 42-21t37-42 31-55 25-55 17-46q-1-2-4-9t-3-9q0-5 6-8t11-3q8-25 16-51t16-50q3-8 6-13t9-10q9-7 21-10t23-3q1 0 3 0t3 2q0 2-4 3t-4 1q-7 0-16 13t-18 32-16 41-13 38-8 22q3 8 6 15t7 15q1-1 2-3t4-1q19 0 40-5t42-12 36-18q12-8 27-20t28-27 11-30q0-17-12-29t-30-19-37-13-30-7q-17-2-34-4t-34-1q-20 0-46 3t-52 9-50 17-40 28-23 40q-2 7-2 14 0 12 5 23t18 15h1q4 0 8-1t7 0q1 0 2 0t2 1q0 4-6 5t-8 2q-8 0-14-4t-10-4q0 0-1 0t0 1q-1 1-2 2t-2 2q-3 0-6-6t-4-11-1-9q0-11 2-22 7-29 25-50t44-37 56-23 59-14 55-4q37 0 72 8 15 3 33 9t36 17 28 24 11 33q0 20-15 39t-40 36-52 30-53 22-42 10q5 11 15 26t21 33 27 33 28 24 28 10q12 0 20-7t12-18 7-19q1-4 2-9t2-8h1q1 0 1 3 0 2 0 5 0 5-1 10-2 8-2 15t-3 15q-6 15-17 24t-28 10q-20 0-39-11t-35-27-31-37-26-40-18-35q-9 24-19 49t-22 48q-16 28-33 51t-41 37-60 14m479-281q-4 0-12-4t-8-8q0 0 0-1t0 0q3-5 11-6t14-3q10-4 19-7t18-9q2 1 2 2 0 2-4 6t-6 6q-2 3-9 8t-14 11-11 5m-84 216q-8 0-11-4t-3-11q0-17 6-40t16-48 13-43q2-7 10-10t13-7q8-5 17-9t19-4q3 0 3 1t1 2q0 3-3 3-7 0-15 8t-15 21-13 27-11 26-6 17q-2 8-5 19t-2 20q0 3 1 8t6 5q3 0 7-3 11-6 22-18t20-24 15-24q1 0 1 2 0 3-4 8t-8 13-8 11-4 6q0 4-1 6t-3 6q-6 6-16 14t-21 16-21 6m84-1q-8 0-12-5t-3-12 0-13q0-9 1-28t6-38 9-37 14-23 20-9 22-3q1 0 2 1t2 2v1q0 2-1 1t-2 0q-9 0-17 10t-14 23-10 26-5 20q-2 10-3 20t-1 20q0 5 1 12t8 8 16-7 14-13q22-24 36-53t24-59q2-5 4-8t6-6q2-1 6-3t5-2q3 0 3 4 0 6-5 16t-7 15q-5 10-15 27t-22 37-26 36-29 29-27 11m123 1q-8 0-11-7t-2-12q0-24 9-51t24-52 31-40q18-17 43-17 10 0 19 2t20 7q8-6 18-11t21-4q2 0 4 3v1q0 2-2 1t-2 0q-8 0-17 12t-19 32-18 40-12 38-5 27q0 3 1 8t6 4q3 0 4-1t4-2q11-6 22-18t20-24 15-24q1 0 1 2 0 3-4 8t-8 13-8 11-4 6q0 4-1 6t-3 6q-7 6-17 15t-21 14-20 7q-16 0-16-17 0-10 4-23t10-27 11-22q0 0 0-1t-1-1-1 1q-6 8-18 23t-25 30-28 26-24 11m22-22q5 0 13-7t18-18 16-19 11-14q6-9 13-23t14-28 6-24q0-16-16-16-9 0-19 8t-16 15q-6 8-15 23t-15 32-12 34-4 26q0 3 1 7t5 4m74 160q-3 0-12-3t-16-6-7-8q0-1 2-1 3 1 5 1 0 0 2-1-2-3-2-6 0-3 2-3-1-3-3-6t-3-6q-1-2-4-6t-4-6q0-2 1-5 11 15 18 23t18 12 30 4q22 0 41-16t35-41 28-54 21-56 13-44q-6 8-17 23t-26 30-28 26-24 11q-8 0-10-7t-2-12q0-23 9-51t23-52 32-40q19-17 42-17 10 0 20 2t19 7q9-6 19-11t20-4q3 0 4 3v1q0 2-1 1t-2 0q-10 0-18 11t-15 25-11 30-6 21q-11 39-28 80t-42 74q-6 7-12 14t-14 15q-19 20-44 34t-53 14m92-160q6 0 14-7t17-18 17-19 10-14q6-9 14-23t13-28 6-24q0-16-15-16-9 0-19 8t-16 15q-7 8-15 23t-15 32-12 34-5 26q0 3 1 7t5 4m151 23q-29 0-29-30 0-22 9-47t24-49 30-37q19-17 45-17 6 0 14 2t16 5 6 13q0 11-8 26t-16 24q3 0 6 1t4 4q0 2-2 2-5 0-9-1t-9-1q-17 0-35 5t-34 10q-5 12-9 27t-3 27q0 10 3 17t15 8q14 0 28-8t27-20 24-26 17-24q0 0 0 2 0 4-5 12t-12 15-6 11q-1 4-2 6t-3 6q-8 8-24 17t-33 14-29 6m19-106q13-2 26-4t26-1q4 0 8 0t8 0q4-8 6-18t3-20q0-7-3-15t-13-8q-9 0-19 8t-16 15q-8 9-14 20t-12 23" />
</svg>