<svg id="fnt-Beiruti" viewBox="0 0 1165 1000" xmlns="http://www.w3.org/2000/svg"><path id="beiruti" class="f" d="M180 507q41-16 41-68 0-38-21-54t-71-16h-65q-13 0-18 5t-5 18v252q0 10 4 16t16 7h67q34 0 56-8t34-25 12-51q0-31-11-50t-39-26m-62-11h-44v-99h50q19 0 33 3t22 13 8 29q0 23-8 34t-23 16-38 4m5 142h-49v-115h47q24 0 41 4t25 17 8 38q0 24-8 36t-24 16-40 4m184-52v-9h108q10 0 16-5t7-14q0-21-5-37t-14-27q-19-24-61-24t-63 23-21 68v23q0 44 22 66t64 22q20 0 38-5t29-12q4-3 6-6t2-7q0-5-4-10t-10-4q-2 0-6 2-11 7-25 11t-28 3q-28 0-42-14t-13-44m99-33h-99q2-30 14-43t37-14q25 0 36 13t12 44m105-167q-9 0-14 6t-5 18q0 11 5 18t14 6q10 0 15-6t5-18q0-11-5-18t-15-6m-16 105v160q0 9 4 15t12 5 12-5 5-15v-160q0-9-5-15t-12-5-12 5-4 15m134 10q-2-19-6-24t-10-6-11 4-4 12v164q0 9 4 15t13 5 12-5 4-15v-75q0-38 14-54t47-19q9-1 13-4t5-11q0-6-4-10t-10-4q-43 0-67 27m241 151q1 12 5 15t8 4q8 0 12-3t5-12v-165q0-9-4-15t-13-5-12 5-4 15v93q0 17-2 27t-7 17q-12 15-39 15-13 0-22-5t-13-13q-5-11-5-38v-96q0-9-5-15t-12-5-12 5-4 15v99q0 15 1 26t3 17q12 39 64 39 36 0 56-20m81-147h26v96q0 18 2 31t7 22q12 18 42 18 15 0 28-4t22-9 8-12q0-6-4-11t-10-4q-1 0-2 0t-2 1q-9 4-17 6t-14 3q-15 0-21-10t-6-33v-94h63q8 0 13-4t4-11q0-7-4-11t-13-3h-63v-47q0-9-4-14t-11-5q-15 0-16 18l-2 48h-26q-7 0-12 4t-4 10 4 11 12 4m193-119q-9 0-14 6t-5 18q0 11 5 18t14 6q10 0 15-6t5-18q0-11-5-18t-15-6m-16 105v160q0 9 4 15t12 5 12-5 5-15v-160q0-9-5-15t-12-5-12 5-4 15" />
</svg>