<svg id="fnt-Belgrano" viewBox="0 0 2197 1000" xmlns="http://www.w3.org/2000/svg"><path id="belgrano" class="f" d="M199 667h-173v-22l45-17v-276l-45-16v-22h146q67 0 99 39 18 22 18 54 0 47-32 71 59 22 59 87 0 27-11 48t-29 32q-35 22-77 22m-77-165v127h54q46 0 68-14t23-48-19-50-50-15h-76m0-151v118h49q69 0 69-62 0-32-23-44t-68-12h-27m370 321q-56 0-92-33t-35-94 36-98 84-36q114 0 114 135h-185v2q0 36 25 60t68 25q18 0 35-5t24-8l7-4 14 26q-1 1-4 3t-12 7-19 9q-27 11-60 11m61-158q-3-31-21-48t-46-16-46 16-24 48h137m212 131v22h-131v-22l42-16v-309h-42v-30q19-9 45-9t35 12 9 37v299l42 16m266-140q0 42-33 68t-77 25q-25 0-48-8l-23 41h97q54 0 78 21t24 60-35 67-96 27-94-24-32-61 36-52q-21-7-21-30l2-13q28-43 34-53-32-26-32-68t32-68 78-26q28 0 55 12l87-12-1 44-51-5q20 24 20 55m-195 211q0 23 21 37t60 14 61-15 23-40q0-41-53-41l-89 1q-23 13-23 44m85-155q31 0 48-17t18-39-18-40-49-17-48 16-17 40 17 40 49 17m305 84v22h-132v-22l42-16v-179h-42v-30q20-9 44-9t34 10 11 31q5-15 20-27 19-14 49-14 14 0 26 3t18 7l6 4v59h-30l-7-30q-3-3-16-3t-26 3-20 10q-14 12-20 24v141l43 16m310-12h42v30q-19 9-43 9t-34-9-11-26q-28 35-73 35t-67-18-23-50q0-63 87-72l75-8v-15q0-29-12-44t-38-15q-48 0-78 11l-10 3-9-32q14-8 43-15t53-6q53 0 76 21t22 60v141m-120-69q-19 3-30 12t-11 24 12 24 34 9q42 0 68-23v-54l-73 8m492 81v22h-132v-22l40-16v-120q0-29-10-44t-35-14q-41 0-73 32v146l42 16v22h-131v-22l42-16v-179h-42v-30q19-9 44-9t34 11 11 33q7-9 21-21 29-23 67-23t58 21 19 60v137l45 16m251-9q-36 36-92 36t-92-36-36-94 36-95 92-36 92 36 37 95-37 94m-149-28q22 25 57 25t58-25 22-65-23-67-57-26-57 26-23 67 23 65" />
</svg>