<svg id="fnt-BenchNine" viewBox="0 0 1518 1000" xmlns="http://www.w3.org/2000/svg"><path id="benchnine" class="f" d="M70 466h50q15 0 25-14t9-39q0-66-45-66h-39q-3 0-3 5v110q0 4 3 4m0 171h38q27 0 40-19t13-55q0-30-12-49t-31-18h-48q-3 0-3 5v131q0 3 0 4t3 1m43 30h-79q-2 0-3-1t-3-3-1-7v-330q0-7 2-9t5-1h84q72 0 72 96 0 46-24 64-2 2-2 3 0 2 2 3 33 22 33 81 0 30-5 50t-18 32-26 17-37 5m158-138h64q1 0 1-4-2-41-9-60t-24-20q-29 0-33 71 0 13 1 13m92 73v5q0 27-14 45t-43 17q-71 0-71-125 0-31 4-55t11-36 16-22 19-11 19-2q61 0 61 116 0 17-7 17h-87q-1 0-1 5 0 24 3 43t13 31 22 12q9 0 15-5t9-12 5-14 2-14q0-5 3-5h16q5 0 5 10m76 65h-21q-6 0-6-13v-218q0-15 5-15h5q4 0 5 2t3 10l4 32q1 3 2 3t2-3q3-14 10-24t13-15 14-6 15-2q17 0 28 9t16 31 7 61v135q0 8-2 10t-4 3h-22q-3 0-4-3t-2-10v-140q0-35-6-52t-18-16q-16 0-27 21t-11 50v137q0 8-2 10t-4 3m217 2h-1q-9 0-15-1t-14-4-14-9-11-15-9-23-6-32-3-42q0-32 5-55t10-36 16-21 19-11 20-2q16 0 30 5 1 0 2 2t1 2v21q0 1-1 2t-2 1q-14-4-23-4-7 0-12 1t-11 6-10 16-6 28-2 45q0 26 2 45t6 28 9 16 12 7 13 2q9 0 22-5 1 1 2 2t1 3v19q0 1-1 3t-2 2q-12 4-27 4m96-2h-22q-2 0-4-3t-1-10v-325q0-13 5-13h22q6 0 6 13v127q0 3 1 3 1 0 1-1 8-21 21-30t26-10q16 0 26 9t17 33 6 65v129q0 13-6 13h-21q-3 0-5-3t-1-10v-135q0-38-7-56t-20-17q-15 0-27 22t-11 53v133q0 8-2 10t-4 3m182 0h-23q-6 0-6-13v-326q0-7 1-10t5-2h27q5 0 8 8l95 245q1 0 1-2 1-1 1-2v-237q0-7 2-10t4-2h23q5 0 5 12v327q0 5 0 8t-2 3-3 1h-20q-2 0-5-4t-5-7l-100-253q-1-1-2 1 0 1 0 2v248q0 7-2 10t-4 3m226-285h-24q-3 0-5-3t-1-10v-25q0-7 1-10t5-3h24q6 0 6 13v25q0 8-2 10t-4 3m-2 285h-21q-6 0-6-15v-216q0-15 6-15h21q6 0 6 15v216q0 15-6 15m84 0h-21q-6 0-6-13v-218q0-15 5-15h5q4 0 5 2t3 10l4 32q1 3 2 3t1-3q4-14 11-24t13-15 14-6 15-2q17 0 28 9t16 31 7 61v135q0 8-2 10t-4 3h-22q-3 0-4-3t-2-10v-140q0-35-6-52t-18-16q-16 0-27 21t-11 50v137q0 8-2 10t-4 3m180-138h65q1 0 1-4-2-41-9-60t-24-20q-29 0-34 71 0 13 1 13m93 73v5q0 27-15 45t-42 17q-72 0-72-125 0-31 5-55t11-36 16-22 18-11 20-2q61 0 61 116 0 17-8 17h-86q-2 0-2 5 0 24 4 43t12 31 22 12q10 0 16-5t9-12 4-14 2-14q1-5 3-5h17q5 0 5 10" />
</svg>