<svg id="fnt-Benne" viewBox="0 0 1190 1000" xmlns="http://www.w3.org/2000/svg"><path id="benne" class="f" d="M137 669l-48-2t-16 0-49 2q-14 0-14-6 0-5 18-9 18-3 28-11t9-26v-225q0-18-7-26t-25-10-18-10q0-6 15-6l52 1 55-3q57 0 84 17t27 58q0 20-7 34t-19 22-24 13q-2 1-2 3t2 2q52 16 64 47 7 15 7 35 0 39-19 59-10 10-16 14-39 27-97 27m-33-293v87q0 18 23 18 31 0 56-14 8-5 15-17t7-35q0-15-6-29t-22-24-40-9q-19 0-26 5t-7 18m0 137v100q0 20 10 27t30 8q20 0 37-10t29-28 12-38q0-29-14-46t-35-24-40-7q-15 0-22 6t-7 12m361 118q-2 9-12 19t-28 17-39 7-41-14-30-38-11-54 13-55 36-39 51-14q30 0 47 12t17 34-11 27-27 5h-82q-7 0-10 3t-3 16q0 23 10 43t27 32 38 12q30 0 48-22 3-4 5-4 4 0 4 5 0 4-2 8m-120-116q0 8 9 8h41q12 0 21-1t16-2q5 0 5-14 0-14-13-22t-30-9q-12 0-23 7t-19 16-7 17m241 153l-40-2-41 2q-10 0-10-5 0-3 4-5t9-4 5-1 5-2 5-4q5-5 5-11v-108q0-32-20-36-4-1-4-6t3-6q26-6 55-28 1 0 2 0 1 0 3 4l-4 33q0 3 1 4 9-8 23-16t30-12 31-5 27 9 20 25 8 35v107q0 10 6 13t17 6q10 4 10 8 0 5-10 5l-40-2-41 2q-10 0-10-5 0-4 11-8 1 0 2-1 17-5 19-13 1-1 1-3t0-2v-105q0-22-13-34t-36-13q-25 0-40 11t-16 38v103q0 10 6 13t17 6q10 4 10 8 0 5-10 5m264 0l-41-2-40 2q-10 0-10-5 0-3 4-5t8-4 6-1 5-2 5-4q5-5 5-11v-108q0-32-21-36-4-1-4-6t4-6q26-6 55-28 0 0 2 0 1 0 2 4l-3 33q0 3 0 4 10-8 23-16t30-12 31-5 28 9 20 25 7 35v107q0 10 6 13t17 6q10 4 10 8 0 5-10 5l-40-2-41 2q-10 0-10-5 0-4 12-8 1 0 2-1 17-5 19-13 0-1 0-3t0-2v-105q0-22-12-34t-37-13q-24 0-40 11t-15 38v103q0 10 6 13t17 6q10 4 10 8 0 5-10 5m336-37q-2 9-12 19t-28 17-39 7-41-14-30-38-11-54 13-55 36-39 51-14q30 0 47 12t17 34-11 27-27 5h-82q-7 0-10 3t-3 16q0 23 10 43t27 32 38 12q30 0 48-22 3-4 5-4 4 0 4 5 0 4-2 8m-120-116q0 8 9 8h41q12 0 21-1t16-2q5 0 5-14 0-14-13-22t-30-9q-12 0-23 7t-19 16-7 17" />
</svg>