<svg id="fnt-Berkshire Swash" viewBox="0 0 3513 1000" xmlns="http://www.w3.org/2000/svg"><path id="berkshire-swash" class="f" d="M206 347v276q0 6 1 11t4 8 9 6 15 3q14 0 25-8t19-20 13-27 4-30q0-22-6-39t-17-29-25-18-32-7l5-13q11 1 20-3t18-12 12-23 4-36q0-15-4-27t-9-20-14-13-17-4q-5 0-9 1t-9 4-5 8-2 12m4-45q71 0 105 22t33 64q0 11-2 19t-6 16-9 13-9 10q-12 10-26 16v3q23 3 41 14 7 5 15 12t13 16 9 23 3 30q0 26-9 46t-27 35-46 22-64 8q-33 0-54-5t-33-12-16-19-4-25v-267q0-14-19-14-13 0-27 4t-25 11-18 17-7 21q0 8 2 12t5 7 5 3 4 1q7 0 10-2t8-5 6-4 6-2q3 0 6 1t6 4 5 8 2 12q0 9-4 16t-10 12-13 7-15 3q-12 0-22-4t-16-11-10-17-3-20q0-21 8-36t21-27 33-18 43-12 50-7 55-1m373 196l-97 57q0 7 2 17t7 18 11 18 15 15 19 10 22 4q9 0 16-2t14-5 12-8 11-10l7 6q-6 8-15 17t-21 17-29 13-38 5-41-8-36-23-25-38-10-54q0-22 6-41t15-33 23-26 27-19 29-11 28-4q18 0 32 4t22 11 13 15 5 18q0 12-7 21t-17 16m-99 37l51-30q3-2 5-4t4-4 2-6 0-10q0-6-1-13t-5-14-8-11-11-5q-9 0-16 5t-10 14-6 19-4 21-1 21 0 17m248-70q10-14 20-26 5-5 10-9t10-9 12-6 11-2q13 0 20 8t7 21q0 8-1 16t-6 18h-6q-2-7-7-12t-16-5q-7 0-15 2t-14 7-13 9-12 10v158q0 3-1 8t-4 8-12 7-20 3-20-3-12-8-5-8-1-7v-189q0-7-3-12t-11-5q-4 0-7 1t-6 4l-5-6q5-5 12-9t15-8 17-6 20-2q10 0 18 3t12 7 8 10 4 12 1 11 0 9m192-138v153q8-12 18-24t21-21 24-16 29-6q14 0 23 6t15 13 8 16 3 14q0 11-3 22t-10 23-18 22-28 20q23 48 45 83t42 58 38 33 36 11q3 0 6-1t5-1q3-1 6-3l4 9q-6 3-13 7t-16 5-20 4-27 2q-15 0-29-4t-28-12-29-23-30-37-31-54-33-72q23-18 37-32t20-27 8-21 2-16q0-1 0-4t-2-4-4-4-7-2q-9 0-18 8t-18 19-15 24-11 24v126q0 3-2 8t-5 8-11 7-21 3-20-3-11-8-5-8 0-7v-315q0-7-4-13t-11-5q-4 0-7 2t-6 4l-5-6q5-5 12-9t15-8 18-6 19-2q16 0 25 4t13 11 5 13 1 12m268 106q-6 0-11 1t-9 5-6 8-2 12q0 10 7 19t17 20 23 21 22 23 18 25 7 30q0 17-6 31t-18 23-26 15-35 5q-17 0-31-5t-24-12-18-15-12-14l8-6q4 4 8 8t11 8 13 6 14 2q18 0 29-8t11-25q0-10-6-19t-15-21-20-22-20-23-16-24-6-27q0-15 6-27t17-19 24-11 27-4q16 0 30 3t23 9 15 15 5 21q0 9-6 16t-17 7q-11 0-16-4t-6-13q0-5 3-8t6-5 5-3 3-3q0-7-7-11t-19-4m182-106v133q9-13 20-24 5-4 10-8t13-8 13-5 15-2q16 0 29 7t22 21 14 39 4 61q0 36-6 62t-17 44-23 30-26 18-25 9-21 3l-3-10q11-3 20-10t14-24 9-45 3-73q0-31-3-49t-7-28-10-13-12-3q-7 0-12 4t-10 9-7 9-4 8v163q0 3-1 7t-5 9-11 7-21 3-20-3-12-8-4-8-1-7v-315q0-7-4-13t-11-5q-4 0-7 2t-6 4l-5-6q5-5 12-9t15-8 18-6 19-2q16 0 25 4t13 11 5 13 1 12m269 127v191q0 3-2 7t-5 9-11 7-21 3-20-3-11-8-5-8 0-7v-189q0-7-4-12t-11-5q-4 0-7 1t-6 4l-5-6q5-5 12-9t15-8 18-6 19-2q16 0 25 5t13 10 5 13 1 13m-83-96q0-7 3-13t9-11 12-8 16-2q8 0 16 2t12 8 9 11 3 13q0 7-3 13t-9 10-12 8-16 2q-8 0-16-2t-12-8-9-10-3-13m222 107q9-14 20-26 4-5 9-9t11-9 11-6 12-2q12 0 20 8t7 21q0 8-2 16t-5 18h-7q-1-7-7-12t-15-5q-8 0-15 2t-14 7-14 9-11 10v158q0 3-1 8t-5 8-11 7-20 3-21-3-11-8-5-8-1-7v-189q0-7-3-12t-11-5q-5 0-7 1t-7 4l-5-6q6-5 13-9t15-8 17-6 20-2q10 0 17 3t13 7 7 10 4 12 2 11 0 9m270 33l-96 57q0 7 2 17t7 18 10 18 15 15 19 10 22 4q9 0 16-2t14-5 12-8 12-10l6 6q-6 8-14 17t-22 17-29 13-37 5-42-8-36-23-25-38-9-54q0-22 6-41t15-33 22-26 27-19 29-11 29-4q18 0 31 4t22 11 14 15 4 18q0 12-6 21t-18 16m-99 37l52-30q3-2 5-4t3-4 2-6 1-10q0-6-2-13t-4-14-8-11-12-5q-9 0-15 5t-10 14-7 19-3 21-2 21 0 17m360 167q9 0 19-3t17-12 12-22 4-32q0-20-10-40t-25-38-33-37-33-37-25-40-10-42 8-41 22-30 33-20 40-6q22 0 40 4t30 13 19 20 6 23q0 6-2 12t-5 12-9 8-14 4q-9 0-13-6t-6-13-4-18-4-18-10-13-18-6q-7 0-14 3t-11 9-9 15-3 22q0 15 6 29t16 27 23 27 26 28 26 28 23 30 16 33 7 36q0 27-11 49t-29 36-43 23-52 8q-24 0-44-7t-32-16-20-23-7-27q0-6 2-13t6-12 9-10 12-3q7 0 12 3t7 10 4 14 4 16 5 16 8 14 13 9 21 4m473-211q0-16-2-27t-5-17-5-12-2-8q0-4 3-6t7-5 8-2 7-1q7 0 11 2t5 8q2 7 3 18t1 25q0 19-3 41t-7 46-12 44-18 37-24 27-31 10q-14 0-24-6t-20-15-15-22-11-28q-6 15-13 28t-16 22-20 15-23 6q-16 0-27-7t-21-18-16-27-11-33-8-35-6-35-3-31-3-26q-2-10-5-15t-11-5q-4 0-7 1t-7 4l-5-6q6-5 13-9t15-8 17-6 20-2q14 0 23 5t15 13 7 16 3 15q5 37 9 65t9 47 11 29 13 9q5 0 10-4t10-12 8-19 7-25q-3-13-5-26t-3-26-2-22-3-19q-3-23 4-34t32-12q11 0 18 2t12 7 8 14 4 22q5 36 9 65t10 49 10 30 14 10q8 0 15-10t12-27 8-39 3-45m186 109v-60q0-6-4-9t-10-3q-9 0-16 4t-14 11-9 19-4 26q0 14 2 23t6 15 8 7 10 3q6 0 12-4t10-8 6-12 3-12m-39-167q-8 0-16 2t-12 5-8 7-3 6q0 4 4 6t8 3 9 6 4 12q0 5-2 9t-6 8-8 5-10 2q-14 0-22-10t-9-24q0-15 8-26t21-17 28-10 32-4q19 0 36 4t31 14 21 23 8 33v138q0 2 0 5t1 5 3 4 6 1q4 0 8-3t7-7l6 5q-4 5-9 11t-12 12-17 9-23 4q-15 0-27-10t-16-28q-7 11-16 18t-17 11-18 7-18 2q-11 0-22-4t-20-12-14-20-5-31q0-23 9-37t23-24 32-16 37-14q14-6 21-17t6-23q0-18-10-29t-29-11m256 0q-5 0-10 1t-9 5-6 8-3 12q0 10 7 19t18 20 22 21 23 23 17 25 7 30q0 17-6 31t-17 23-27 15-35 5q-17 0-31-5t-24-12-18-15-12-14l9-6q3 4 8 8t11 8 12 6 14 2q18 0 29-8t11-25q0-10-6-19t-15-21-20-22-20-23-15-24-7-27q0-15 7-27t16-19 24-11 27-4q17 0 30 3t23 9 15 15 5 21q0 9-6 16t-17 7q-10 0-16-4t-5-13q0-5 2-8t6-5 6-3 2-3q0-7-7-11t-19-4m182-106v133q9-13 20-24 5-4 11-8t12-8 14-5 14-2q17 0 30 7t21 21 14 39 4 61q0 36-6 62t-16 44-24 30-26 18-25 9-21 3l-3-10q11-3 20-10t14-24 9-45 3-73q0-31-3-49t-7-28-10-13-12-3q-7 0-12 4t-10 9-6 9-5 8v163q0 3-1 7t-5 9-11 7-21 3-20-3-11-8-5-8-1-7v-315q0-7-3-13t-12-5q-4 0-7 2t-6 4l-5-6q6-5 12-9t15-8 18-6 19-2q16 0 25 4t13 11 5 13 1 12" />
</svg>