<svg id="fnt-BhuTuka Expanded One" viewBox="0 0 8370 1000" xmlns="http://www.w3.org/2000/svg"><path id="bhutuka-expanded-one" class="f" d="M338 667h-310v-11h92v-237h-92v-12h307q38 0 59 17t22 47q0 24-14 40t-42 23q33 4 53 19t19 46q0 35-25 51t-69 17m-4-248h-202v109h200q31 0 51-15t20-42-20-40-49-12m-5 121l-197 0v116h203q38 0 61-13t24-44q0-21-13-34t-32-19-46-6m352 116v11h-184v-11h92v-237h-91v-12h104v149q12-10 29-23t37-24 42-18 47-7q39 0 61 16t32 43 9 57v56h87v11h-180v-11h81v-56q0-19-4-38t-14-34-27-24-45-9q-24 0-47 8t-42 18-37 24-29 23v88h79m693-8l5 10q-10 6-20 10t-22 4q-18 0-30-12t-14-35q-36 18-72 32t-78 15q-45 0-72-20t-26-67v-85h-86v-12h99v97q0 39 22 57t63 19q37 0 75-15t75-32v-114h-80v-12h93v132q0 21 9 31t23 10q10 0 18-4t18-9m93-230v81h-13v-92h387v92h-13v-81h-174v238h96v11h-205v-11h96v-238h-174m841 230l5 10q-10 6-20 10t-22 4q-18 0-30-12t-14-35q-36 18-72 32t-78 15q-45 0-72-20t-26-67v-85h-86v-12h99v97q0 39 22 57t63 19q37 0 75-15t75-32v-114h-80v-12h93v132q0 21 9 31t23 10q10 0 18-4t18-9m245 8v11h-195v-11h91v-237h-91v-12h103v140q42-28 87-46t87-17q40 0 63 13t24 38q0 31-36 47t-95 18q24 31 45 48t50 18q22 0 40-13t22-38l11 3q-5 25-24 42t-49 17q-33 0-59-22t-49-55q-35 0-66-4t-51-7v67h92m79-161q-42 0-85 18t-86 44v23q13 1 33 3t42 4 43 1q38 0 67-6t46-17 17-29q0-20-21-31t-56-10m547 153l7 10q-9 6-19 10t-22 4q-17 0-29-10t-14-30q-41 20-85 30t-85 10q-47 0-73-14t-25-38q0-28 32-43t87-14q44 0 80 5t68 11v-10q0-32-25-53t-79-21q-39 0-77 8t-75 21l-4-12q41-14 80-21t76-7q59 0 88 23t28 62v52q0 20 10 30t22 10q11 0 19-4t15-9m-332-28q0 19 22 30t63 11q40 0 83-11t86-29v-31q-31-7-69-11t-79-5q-49 0-78 12t-28 34m825-149v120h-12v-54h-155v119h288v-81h12v92h-404v-11h92v-237h-92v-12h404v92h-12v-80h-288v106h155v-54h12m381 185v11h-155v-11h55l119-78-119-78h-55v-12h155v12h-79l108 72 108-72h-81v-12h155v12h-56l-117 77 119 79h54v11h-155v-11h80l-109-73-109 73h82m453 82v12h-199v-12h90v-238h-90v-12h103v65q42-30 86-50t92-19q54 0 87 22t33 64q0 32-21 55t-56 35-76 12q-45 0-82-11t-63-26v103h96m82-243q-42 0-87 19t-91 51v59q28 14 66 25t79 12q39 0 70-11t51-32 19-48q0-34-28-54t-79-21m551 153l6 10q-8 6-19 10t-22 4q-17 0-29-10t-14-30q-40 20-85 30t-84 10q-47 0-73-14t-26-38q0-28 32-43t88-14q44 0 80 5t67 11v-10q0-32-25-53t-79-21q-39 0-76 8t-76 21l-3-12q41-14 79-21t76-7q60 0 88 23t29 62v52q0 20 9 30t23 10q10 0 18-4t16-9m-333-28q0 19 22 30t64 11q39 0 83-11t85-29v-31q-31-7-69-11t-78-5q-50 0-78 12t-29 34m555 36v11h-184v-11h91v-156h-91v-12h104v68q12-10 29-22t37-24 42-19 47-7q39 0 62 16t31 43 10 57v56h86v11h-179v-11h80v-56q0-19-4-38t-13-34-28-24-45-9q-24 0-47 8t-42 19-37 23-29 23v88h80m689-8l5 10q-9 6-20 10t-22 4q-19 0-31-14t-12-38v-17q-42 30-87 50t-92 20q-53 0-86-23t-33-63q0-33 21-56t55-35 76-12q45 0 82 11t64 26v-103h-92v-11h104v213q0 21 10 31t22 10q10 0 18-4t18-9m-365-61q0 33 28 53t78 21q42 0 87-20t92-51v-57q-28-14-67-26t-79-11q-38-1-70 10t-50 32-19 49m728 36l6 10q-29 17-63 28t-86 11q-40 0-73-11t-52-31-20-48q0-24 14-43t36-30 52-19 58-6q57 0 92 15t35 43q0 20-16 32t-43 17-61 6q-40 0-77-7t-76-19q-1 5-1 11 0 23 17 41t47 27 68 11q47 0 81-11t62-27m-128-128q-32 0-62 8t-52 22-30 36q75 24 151 24 30 0 54-4t39-14 14-25q0-22-30-35t-84-12m594 153l5 10q-9 6-19 10t-22 4q-19 0-32-14t-12-38v-17q-42 30-86 50t-92 20q-54 0-87-23t-32-63q0-33 20-56t56-35 76-12q44 0 81 11t64 26v-103h-92v-11h105v213q0 21 9 31t22 10q11 0 19-4t17-9m-365-61q0 33 28 53t79 21q41 0 87-20t91-51v-57q-28-14-66-26t-79-11q-38-1-70 10t-51 32-19 49m1003-50q0 43-25 73t-69 46-98 16q-54 0-98-16t-69-46-25-73q0-43 25-73t69-47 98-16q54 0 98 16t69 47 25 73m-372 0q0 39 23 66t64 43 93 15q52 0 92-15t64-43 24-66q0-39-24-67t-64-42-92-15q-52 0-93 15t-64 42-23 67m619 119v11h-184v-11h91v-156h-91v-12h104v68q12-10 29-22t37-24 42-19 47-7q39 0 62 16t31 43 10 57v56h86v11h-179v-11h80v-56q0-19-4-38t-13-34-28-24-45-9q-24 0-47 8t-42 19-37 23-29 23v88h80m599-33l6 10q-29 17-63 28t-86 11q-40 0-73-11t-52-31-20-48q0-24 14-43t36-30 52-19 58-6q57 0 92 15t35 43q0 20-16 32t-43 17-61 6q-40 0-77-7t-76-19q-1 5-1 11 0 23 17 41t47 27 68 11q47 0 81-11t62-27m-128-128q-32 0-62 8t-52 22-30 36q75 24 151 24 30 0 54-4t39-14 14-25q0-22-30-35t-84-12" />
</svg>