<svg id="fnt-Big Shoulders Text" viewBox="0 0 2954 1000" xmlns="http://www.w3.org/2000/svg"><path id="big-shoulders-text" class="f" d="M107 667h-77v-400h75q40 0 58 15t18 51q0 25 0 43t0 35q-1 21-9 34t-27 17v7q19 5 28 18t9 33q1 22 1 40t-1 40q-1 36-18 51t-57 16m-37-184v147h37q20 0 27-7t9-23q0-21 0-39t0-39q-1-22-8-30t-27-9h-38m0-181v145h39q18 0 25-8t7-28q1-22 1-40t-1-40q0-16-8-22t-28-7h-35m210 5h-53v-40h53v40m-6 360h-40v-300h40v300m126 84q-37 0-57-11t-23-32q0-3-1-6t0-6q1-13 11-22t23-10v-7q-15-4-20-10t-7-16q0-2 0-4t0-6q1-10 9-17t19-9v-7q-16-7-23-21t-8-37q-1-9-1-22t0-29 0-28 1-22q2-24 9-39t24-21 41-6q27 0 43 7t23 23h7q1-13 10-20t24-6v31h-5q-13 0-20 8t-7 27v12q0 1 0 12t0 24 0 28-1 21q-1 24-9 38t-23 21-42 6q-20 0-29 5t-10 14v3q0 6 5 10t13 6 25 2q41 1 61 13t22 37q0 4 0 8t0 7q-2 19-13 31t-29 15-42 5m0-29q16 0 26-2t17-7 7-15q1-3 1-6t-1-6q-1-8-6-13t-16-6-28-3q-21 0-33 4t-14 19q0 4 0 6t0 5q1 10 7 15t16 7 24 2m-3-157q19 0 27-7t8-24q1-8 1-24t0-32 0-32-1-22q-1-16-8-23t-26-7-27 7-9 24q-1 7-1 21t0 32 0 33 1 22q1 17 8 24t27 8m312 105q-40 0-58-16t-19-53q0-14-1-27t1-25 0-27h39q-1 22-2 43t2 41q0 17 9 23t29 7q19 0 28-7t9-23q1-11 1-23t0-26-1-23q0-20-8-30t-24-14l-28-7q-21-5-32-15t-17-26-6-41q0-16 0-34t0-35q1-25 9-40t25-22 44-7q39 0 57 16t18 53q1 16 1 34t-1 39h-39q1-23 1-41t0-37q-1-17-9-23t-28-7-29 7-9 23q-1 19-1 37t1 37q1 22 6 32t19 13l26 6q24 6 37 15t20 26 7 41q1 10 1 22t-1 23 0 22q-2 37-19 53t-58 16m168-3h-40v-400h40v127h8q9-16 20-23t31-8q28 0 41 15t13 48l1 241h-40l-1-244q0-16-7-23t-22-7q-16 0-27 7t-17 22v245m239 3q-27 0-43-7t-24-22-8-41q-1-15-2-36t0-44 0-45 2-42q1-25 8-41t24-22 43-7q28 0 44 7t23 23 9 40q1 17 1 38t0 44 0 44-1 41q-1 25-9 41t-23 22-44 7m0-31q20 0 28-7t8-24q1-22 1-45t1-45 0-47-2-46q0-17-8-24t-28-7-27 7-9 24q-1 20-1 43t-1 45 1 48 1 47q1 17 9 24t27 7m181 31q-27 0-41-15t-15-48v-240h41l0 243q0 16 6 23t22 7q15 0 27-8t18-21v-244h40v300h-40v-28h-7q-9 16-22 24t-29 7m193-3h-39v-400h39v400m101 3q-28 0-41-14t-14-49q-1-20-1-44t0-48 0-47 1-42q1-34 15-49t41-14q19 0 30 8t20 23h7v-127h40v400h-40v-28h-8q-8 15-20 23t-30 8m14-30q15 0 27-7t17-22v-189q-6-15-17-22t-27-7q-15 0-22 7t-7 22q-1 31-1 65t0 65 1 57q0 17 7 24t22 7m205 30q-39 0-56-15t-19-50q-1-18-1-40t0-47 0-47 1-42q2-36 19-51t56-15q38 0 55 15t18 49q0 6 0 22t0 37 0 38h-109q0 21 0 42t1 43q0 17 9 24t26 6 25-6 8-24q1-7 1-20t-1-27h40q0 8 0 22t0 21q-2 35-18 50t-55 15m-36-176h70q0-14 0-28t0-26-1-16q-1-17-9-24t-24-6q-19 0-27 7t-8 23q0 17-1 35t0 35m198 173h-41v-300h41v29h8q5-17 16-24t29-7q5 0 9 1t10 0v32h-19q-22 0-35 7t-18 26v236m163 3q-38 0-53-15t-17-50q0-11 0-21t1-22h36q-1 16-1 27t0 20q1 17 8 24t26 6q19 0 27-6t9-24q0-7 0-13t0-10 0-11q-1-17-5-26t-19-13l-28-7q-19-6-31-15t-17-22-6-36q-1-9-1-15t1-12q1-35 16-51t56-15q37 0 53 15t17 50q0 5 0 19t-1 23h-37q0-8 0-17t0-16 0-14q0-16-7-23t-25-6-25 6-8 24q0 4 0 12t0 16q0 18 4 28t20 16l26 6q28 8 41 24t13 48q0 9 0 16t0 16q-1 34-17 49t-56 15m294-3h-39v-365h-61v-35h161v35h-61v365m142 3q-40 0-57-15t-19-50q0-18-1-40t0-47 0-47 1-42q2-36 20-51t55-15q39 0 55 15t19 49q0 6 0 22t0 37-1 38h-109q0 21 1 42t0 43q1 17 9 24t26 6 25-6 9-24q0-7 0-20t-1-27h40q1 8 1 22t0 21q-2 35-19 50t-54 15m-37-176h70q1-14 1-28t0-26-1-16q-1-17-9-24t-25-6q-19 0-26 7t-9 23q0 17 0 35t-1 35m173 173h-39l47-155-46-145h39l17 64 14 65h9l14-65 17-64h40l-46 146 47 154h-40l-19-79-13-62h-8l-13 62-20 79m220 3q-40 0-57-15t-16-51l0-206h-24v-31h25v-85h40v85h52v31h-53l0 211q0 18 7 24t27 7q7 0 12-1t13-1v30q-6 1-12 2t-14 0" />
</svg>