<svg id="fnt-Big Shoulders Stencil Text" viewBox="0 0 4194 1000" xmlns="http://www.w3.org/2000/svg"><path id="big-shoulders-stencil-text" class="f" d="M70 667h-40v-400h40v400m39 0h-12v-37h12q20 0 28-7t8-23q1-21 1-39t-1-39q-1-22-8-30t-27-9h-13v-36h14q18 0 25-8t8-28q0-22 0-40t0-40q-1-16-9-22t-28-7h-10v-35h10q40 0 58 15t18 51q0 25 0 43t0 35q-1 21-9 34t-26 17v7q18 5 27 18t9 33q1 22 1 40t-1 40q-1 36-18 51t-57 16m173-360h-52v-40h52v40m-6 360h-40v-300h40v300m110 55v28q-29-1-45-11t-18-30q0-3-1-6t1-6q0-14 10-22t23-11v-7q-26-6-28-26 0-3 0-5t0-4q1-11 9-18t19-9v-7q-15-7-22-21t-9-37q-1-15-1-27t0-23 0-23 1-28q2-32 16-48t45-18v32q-11 2-17 9t-5 21q-1 16-1 35t0 39 1 35q0 13 6 20t17 10v32q-14 1-20 6t-6 12q0 1 0 2t0 1q0 8 6 12t19 5v29q-14 0-23 6t-10 18q-1 3-1 6t1 5q1 13 10 18t23 6m27 28v-28q16-1 26-6t12-19q0-2 0-5t-1-6q-1-13-11-17t-26-6v-28q34 3 52 14t19 36q1 3 1 7t-1 8q-1 27-21 38t-50 12m0-155v-31q10-3 15-10t7-20q0-16 0-35t0-38-1-37q0-13-5-20t-16-9v-32q40 3 52 30h7q1-13 10-19t24-7v31h-5q-13 0-20 8t-7 27v13q0 17 0 30t0 25-1 29q-1 32-15 47t-45 18m285 40v35q-33-3-48-19t-16-50q0-14-1-27t1-25 0-27h39q-1 22-2 43t2 41q0 14 6 20t19 9m26 35v-35q13-2 18-9t6-20q1-11 1-23t0-26-1-23q0-20-8-30t-24-14l-28-7q-21-5-32-15t-17-26-6-41q0-16 0-34t0-35q1-34 16-50t49-18v34q-13 2-19 9t-6 20q-1 19-1 37t1 37q1 22 6 32t19 13l26 6q24 6 37 15t20 26 7 41q1 10 1 22t-1 23 0 22q-2 34-16 50t-48 19m62-265h-39q1-23 1-41t0-37q-1-13-6-20t-18-9v-34q32 2 47 18t15 50q1 16 1 34t-1 39m93 262h-40v-400h40v400m114 0h-40l-1-244q0-16-7-23t-22-7q-10 0-18 3v-24q6-5 14-7t19-2q28 0 41 15t13 48l1 241m50-67q-1-15-2-36t0-44 0-45 2-42q1-35 15-51t47-19v32q-12 2-17 10t-6 20q-1 20-1 43t-1 45 1 48 1 47q1 13 6 21t17 9v32q-33-3-47-19t-15-51m89 70v-32q12-2 17-9t5-21q1-22 1-45t1-45 0-47-2-46q0-14-6-21t-16-9v-32q22 2 35 10t20 23 7 37q1 17 1 38t0 44 0 44-1 41q-1 23-8 38t-19 23-35 9m109-63v-240h40l0 243q0 16 7 23t22 7q10 0 18-4v26q-14 8-31 8-28 0-42-15t-14-48m153 60h-40v-300h40v300m96 0h-40v-400h40v400m51-60q-1-20-1-44t0-48 0-47 1-42q1-34 15-49t41-14q10 0 18 2t13 6v26q-8-4-18-4-15 0-21 7t-7 22q-2 31-2 65t0 65 1 57q1 17 8 24t21 7q11 0 18-3v25q-6 4-14 6t-18 2q-27 0-41-14t-14-49m154 60h-41v-400h41v400m51-62q-1-18-1-40t0-47 0-47 1-42q1-32 16-48t46-18v32q-12 2-17 10t-5 19q-1 23-1 46t0 45 0 47 1 47q0 14 6 20t16 9v32q-32-3-47-18t-15-47m88 65v-32q11-2 15-9t5-20q1-8 1-20t-1-27h39q1 8 1 22t0 21q-2 32-15 47t-45 18m59-145h-85v-29h47q0-15 0-30t0-26-1-16q0-13-5-20t-15-9v-32q31 3 45 18t15 46q0 6 0 22t0 37-1 39m90 142h-41v-300h41v300m26-266v-30q11-6 27-6 5 0 9 1t10 1v31h-19q-16 0-27 3m73 204q0-11 0-22t0-21h37q-1 15-1 27t0 20q0 14 5 20t15 9v32q-30-3-43-18t-13-47m83 65v-32q11-2 17-8t5-21q1-7 1-13t0-10-1-11q0-17-5-26t-18-13l-28-7q-20-6-31-15t-18-22-6-36q0-9 0-15t0-12q1-32 14-48t45-18v32q-10 2-14 9t-5 20q0 4 0 12t-1 16q1 18 5 28t20 16l26 6q28 8 41 24t13 48q0 9 0 16t0 16q-1 31-15 47t-45 17m57-199h-37q1-8 1-17t0-17 0-14q-1-13-5-19t-14-9v-32q30 3 42 18t14 47q0 4 0 12t0 16-1 15m212 164v35q-33-3-48-19t-16-50q0-14 0-27t0-25 1-27h38q-1 22-1 43t1 41q1 14 6 20t19 9m27 35v-35q12-2 17-9t7-20q1-11 1-23t-1-26 0-23q-1-20-8-30t-25-14l-28-7q-20-5-32-15t-17-26-5-41q-1-16-1-34t1-35q1-34 16-50t48-18v34q-13 2-18 9t-6 20q-1 19-1 37t1 37q0 22 6 32t19 13l26 6q23 6 37 15t20 26 7 41q0 10 0 22t0 23-1 22q-1 34-16 50t-47 19m61-265h-38q1-23 1-41t-1-37q0-13-6-20t-17-9v-34q32 2 46 18t16 50q0 16 0 34t-1 39m57-7h-24v-31h24v-85h40v327q0 18 6 24t27 7q8 0 13-1t12-1v30q-6 1-12 2t-14 0q-40 0-56-15t-16-51v-206m93 0h-34v-31h34v31m37 207q-1-18-1-40t0-47 0-47 1-42q1-32 16-48t46-18v32q-12 2-17 10t-5 19q-1 23-1 46t0 45 0 47 1 47q0 14 6 20t16 9v32q-32-3-47-18t-15-47m88 65v-32q11-2 15-9t5-20q1-8 1-20t-1-27h39q1 8 1 22t0 21q-2 32-15 47t-45 18m59-145h-85v-29h47q0-15 0-30t0-26-1-16q0-13-5-20t-15-9v-32q31 3 45 18t15 46q0 6 0 22t0 37-1 39m89 142h-40v-300h40v300m114 0h-40v-244q0-16-7-23t-22-7q-5 0-10 1t-8 3v-24q6-5 14-8t18-2q28 0 41 15t14 48v241m50-62q-1-18-1-40t0-47 0-47 1-42q1-32 16-48t45-18v32q-11 2-16 9t-5 20q-1 23-1 46t0 45 0 47 1 47q0 13 5 20t16 9v32q-32-3-46-18t-15-47m88 65v-32q11-2 15-9t5-20q1-11 1-22t-1-25h39q1 9 1 22t0 21q-1 32-15 47t-45 18m59-199h-39q1-8 1-17t0-16-1-15q0-13-5-19t-15-9v-32q31 3 45 18t15 46q0 11 0 22t-1 22m96-164h-53v-40h53v40m-6 360h-40v-300h40v300m95 0h-40v-400h40v400m231 0h-40v-347h40v347m60-365h-161v-35h161v35m6 303q-1-18-1-40t-1-47 1-47 1-42q1-32 16-48t45-18v32q-11 2-16 10t-5 19q-1 23-1 46t0 45 0 47 1 47q0 14 5 20t16 9v32q-32-3-46-18t-15-47m88 65v-32q10-2 15-9t5-20q1-8 1-20t-1-27h39q1 8 1 22t0 21q-2 32-15 47t-45 18m59-145h-85v-29h46q1-15 1-30t0-26-1-16q0-13-5-20t-15-9v-32q31 3 45 18t15 46q0 6 0 22t0 37-1 39m178 142h-40l-19-79-13-62h-32l-47-159h39l16 64 15 65h32l49 171m-114 0h-39l36-116h32l-9 37-20 79m79-197h-31l10-39 17-64h39l-35 103m66-72h-24v-31h24v-85h40v327q0 18 6 24t27 7q8 0 13-1t13-1v30q-6 1-13 2t-13 0q-41 0-57-15t-16-51v-206m93 0h-34v-31h34v31" />
</svg>