<svg id="fnt-Big Shoulders Display" viewBox="0 0 3111 1000" xmlns="http://www.w3.org/2000/svg"><path id="big-shoulders-display" class="f" d="M86 667h-59v-400h59q34 0 50 15t16 49q0 25 0 44t0 36q-1 21-8 33t-22 17v9q15 5 22 17t8 33q1 22 1 41t-1 41q-1 34-16 50t-50 15m-26-187v157h26q17 0 25-9t8-26q1-22 1-40t-1-40q0-23-9-32t-26-10h-24m0-183v153h26q16 0 24-9t9-30q1-22 1-41t-1-40q-1-17-9-25t-24-8h-26m184 10h-53v-40h53v40m-10 360h-33v-300h33v300m116 81q-32 0-50-10t-21-32q0-2 0-5t0-6q1-15 9-23t21-9v-7q-11-4-17-10t-6-16q0-2 0-4t0-4q0-10 7-17t17-9v-6q-13-7-20-20t-7-34q0-16-1-29t0-25 0-26 1-31q1-22 8-36t20-19 37-7q24 0 38 7t20 22h7q1-13 8-19t22-6v26h-8q-10 0-15 9t-6 26l-1 28q1 10 1 20t0 19-1 19 0 22q-1 22-8 35t-21 20-36 6q-19-1-27 4t-9 16v3q1 6 4 10t12 6 23 2q34 1 52 11t21 37q0 3 0 7t0 6q-2 19-11 30t-26 15-37 4m0-26q13 0 22-2t15-7 7-15q0-3 0-6t0-5q-1-10-7-15t-14-6-23-2q-19-2-29 3t-12 20q0 3 0 6t0 5q1 10 6 15t14 7 21 2m-2-152q17 0 24-6t8-25q1-13 1-28t0-29 0-31-1-30q-1-18-8-24t-24-7-25 7-7 24q-1 15-1 31t0 30 0 29 1 28q0 17 8 24t24 7m285 100q-35 0-50-15t-16-51q-1-15-1-28t1-26 0-28h32q-1 22-1 44t1 43q1 17 9 25t25 8q16 0 23-8t9-25q0-14 1-25t0-23-1-27q-1-19-6-31t-19-17l-26-6q-19-5-29-15t-14-25-5-39q0-16 0-35t0-38q1-23 8-37t20-21 39-7q33 0 47 15t16 51q1 14 1 34t-1 42h-32q1-20 1-40t-1-41q0-17-8-25t-24-8q-17 0-24 8t-8 25q-1 19-1 38t1 39q0 22 5 34t20 14l24 6q20 5 30 15t15 26 4 38q1 15 1 26t-1 21 0 23q-1 35-16 51t-49 15m145-3h-33v-400h33v126h7q8-15 17-22t27-8q24 0 35 14t12 46v244h-33v-247q0-16-6-24t-20-7q-14 0-24 7t-15 24v247m213 3q-23 0-37-6t-20-21-8-38q0-20-1-42t0-46 0-46 1-43q1-23 8-37t20-21 37-7q24 0 38 7t20 21 7 37q1 20 1 43t0 45 0 46-1 43q-1 23-7 38t-20 21-38 6m0-26q17 0 24-7t8-25q1-27 1-50t1-45-1-46-1-50q-1-17-8-24t-24-7-24 7-8 24q0 27-1 50t0 46 0 45 1 50q1 18 8 25t24 7m162 26q-23 0-36-14t-12-45v-244h33v246q0 16 6 24t20 7 24-8 15-22v-247h34v300h-34v-27h-6q-7 15-18 23t-26 7m171-3h-33v-400h33v400m96 3q-24 0-36-14t-12-45q-1-22-1-45t0-47 0-48 1-48q1-32 13-46t35-14q17 0 27 8t17 22h6v-126h33v400h-33v-27h-6q-8 14-17 22t-27 8m11-26q14 0 24-7t15-23v-194q-5-16-15-24t-24-7q-13 0-19 7t-7 24q-1 35-1 68t0 64 1 61q1 16 6 24t20 7m185 26q-34 0-49-14t-16-47q-1-20-1-43t0-49 0-48 1-44q1-33 16-47t48-15q32 0 47 14t16 46q0 8 0 23t0 35-1 43h-94q0 20 0 42t1 46q0 18 8 25t23 7q16 0 23-7t7-25q1-9 1-21t-1-28h32q1 12 1 24t0 22q-2 33-16 47t-46 14m-33-172h63q0-16 0-31t0-28-1-19q-1-16-8-23t-22-7q-16 0-23 7t-8 23q0 22-1 41t0 37m176 169h-33v-300h33v28h7q4-16 13-23t25-6q4 0 8 0t8 0v27h-16q-21 0-31 8t-14 25v241m142 3q-32 0-46-14t-14-47q0-10 0-22t1-23h30q-1 14-1 26t0 22q1 18 7 25t23 7q17 0 24-7t8-25q0-7 0-13t0-11 0-12q0-19-5-28t-16-14l-24-8q-17-6-27-15t-15-22-5-36q0-8 0-14t0-14q1-33 14-48t48-14q32 0 45 14t14 47q1 9 0 21t0 24h-31q1-9 1-17t0-17-1-15q0-17-6-24t-22-6q-16 0-23 6t-6 24q0 9-1 15t0 16q1 18 4 30t18 16l22 7q24 8 36 23t11 48q0 8 0 17t0 18q-1 32-15 46t-48 14m275-3h-63v-400h64q34 0 49 15t16 51q1 48 1 91t0 86-1 90q0 36-16 51t-50 16m-30-370v340h30q17 0 25-8t8-26q1-34 1-68t0-68 0-69-1-68q0-17-8-25t-24-8h-31m190 10h-52v-40h52v40m-9 360h-33v-300h33v300m106 3q-32 0-45-14t-14-47q-1-10-1-22t1-23h30q-1 14-1 26t1 22q0 18 7 25t22 7q17 0 24-7t8-25q0-7 0-13t0-11 0-12q0-19-4-28t-17-14l-24-8q-17-6-27-15t-15-22-5-36q0-8 0-14t1-14q0-33 13-48t48-14q33 0 46 14t14 47q0 9 0 21t-1 24h-30q0-9 0-17t0-17 0-15q-1-17-7-24t-22-6q-16 0-22 6t-7 24q0 9 0 15t0 16q0 18 3 30t18 16l22 7q24 8 36 23t12 48q0 8-1 17t0 18q-1 32-15 46t-48 14m142 97h-33v-400h33v26h7q7-15 17-22t27-8q23 0 35 14t13 46q0 17 0 40t1 50-1 52 0 46q-1 31-14 45t-36 14q-15 0-25-7t-17-23h-7v127m38-123q14 0 20-7t7-24q1-27 1-53t1-48-1-47-1-45q0-16-6-24t-19-7q-14 0-24 7t-16 24v194q6 16 14 23t24 7m145 23h-34v-400h34v400m95 3q-24 0-36-14t-14-43q0-6 0-13t0-12q1-18 6-32t15-26 29-22q11-7 23-12t23-11v-64q0-16-7-24t-22-7q-14 0-21 6t-8 24q0 6-1 15t0 18 1 16h-32q-1-10-1-23t0-23q1-21 7-34t20-19 36-7q23 0 36 7t19 21 5 37v239h-33v-27h-5q-6 14-15 22t-25 8m11-26q13 0 21-7t14-22v-103q-9 4-18 9t-21 13q-14 10-19 24t-5 30q0 4 0 11t0 12q1 16 9 25t19 8m136 124q-7 0-16 0t-15-2v-26q5 0 14 1t16 1q19 0 25-7t9-25l6-43h-29l-39-300h33l15 146 14 127h14l14-127 15-146h34l-44 341q-3 21-10 35t-20 19-36 6" />
</svg>