<svg id="fnt-BioRhyme Expanded" viewBox="0 0 9284 1000" xmlns="http://www.w3.org/2000/svg"><path id="biorhyme-expanded" class="f" d="M508 489q76 18 76 84 0 45-34 69t-97 25h-419v-42h110v-260h-110v-41h411q55 0 84 24t30 65q0 26-14 46t-37 30m-65-124h-247v110h237q35 0 55-14t20-42q0-28-19-41t-46-13m5 260q84 0 84-56 0-29-22-43t-62-13l-252 0v112h252m346-247q-19 0-32-9t-12-21q0-14 12-23t32-8q20 0 32 8t12 23q0 13-12 21t-32 9m30 249h102v40h-256v-40h105v-156h-105v-40h154v196m375 46q-60 1-110-15t-79-43-29-67q0-39 29-67t80-42 111-14q59 0 109 14t78 43 30 66-29 67-79 44-111 14m0-39q47 0 85-10t60-30 22-46q0-40-47-62t-120-22q-74 1-121 22t-46 62q0 27 22 46t60 30 85 10m879-96h45v16q0 33-15 60t-41 44-59 16q-32 0-57-13t-45-30-42-47q-23-27-37-40t-33-20-50-7h-101v108h108v42h-270v-42h110v-260h-110v-41h425q63 0 98 26t35 71q0 28-15 49t-45 34-69 12h-67q16 7 31 19t35 34q20 22 34 34t29 20 36 7q19 0 35-10t26-27 9-38v-17m-171-173h-264v112h264q39 0 60-15t21-41q0-25-21-41t-60-15m732 262h99v40h-236v-40h88v-48q0-48-23-79t-79-31q-85 0-187 91v67h89v40h-243v-40h105v-264h-105v-39h154v196q45-41 93-68t102-27q77 0 110 45t33 113v44m569-196v40h-78l-144 212q-36 52-68 77t-77 26q-29 0-50-6t-59-22l17-39q27 12 48 17t45 6q32 0 55-15t46-47l-150-209h-73v-40h194v40h-65l121 168 114-168h-63v-40h187m721 196h101v40h-232v-40h81v-63q0-46-18-71t-58-26q-71 0-142 85 0 5 0 14v61h82v40h-210v-40h81v-63q0-97-76-97-73 0-142 85v75h81v40h-235v-40h105v-156h-105v-40h154v80q29-39 67-62t81-24q94 0 113 92 28-41 68-66t84-26q63 0 91 39t29 102v61m531-35l17 34q-83 48-194 48-60 0-109-14t-77-42-29-66q0-38 29-67t79-45 112-15q82 0 130 21t47 59q0 37-42 55t-118 19q-87 0-189-33v5q0 25 22 44t61 30 90 10q51 0 93-11t78-32m-168-132q-55 0-101 15t-65 42q44 13 90 19t89 7q56 0 83-9t28-30-33-32-91-12m1021-6h-46v-89h-335v109h165v-55h42v149h-42v-55h-165v112h335v-89h46v131h-542v-42h110v-260h-110v-41h542v130m492 17l-132 76 139 81h63v39h-213v-36h82l-111-66-114 66h82v36h-197v-39h62l138-78-132-79h-68v-40h213v36h-78l106 64 109-64h-76v-36h197v40h-70m507-46q48 0 84 13t57 40 20 62q0 41-26 71t-71 46-97 17q-98 0-191-42v104h104v40h-258v-40h105v-265h-105v-40h154v74q58-38 112-59t112-21m-38 207q42 1 76-11t53-31 19-47q0-36-31-56t-86-20q-48 0-104 19t-113 55v57q42 16 91 25t95 9m747-11l14 34q-26 18-57 18-23 0-40-14t-24-36q-49 24-106 37t-113 13q-64 0-98-19t-34-54q0-38 42-59t121-20q92 0 184 26-2-42-36-63t-103-21q-85 0-191 33l-11-37q103-34 210-34 88 0 132 34t44 94v38q0 20 9 30t24 11q17 0 33-11m-406-23q0 18 22 27t69 9q45 0 100-10t105-29v-20q-92-18-185-18-53 0-82 11t-29 30m952 29h98v40h-235v-40h88v-48q0-48-23-79t-80-31q-85 0-186 91v67h88v40h-242v-40h105v-156h-105v-40h154v89q44-41 93-68t102-27q76 0 109 45t34 113v44m640-7l13 35q-12 9-26 13t-33 5q-31 0-51-20t-19-57v-2q-58 38-113 59t-112 21q-48 0-84-13t-57-40-20-62q0-41 26-71t70-47 97-16q96 0 193 42v-104h-103v-39h152v264q0 22 9 33t23 11q18 0 35-12m-334 12q47 0 104-20t114-55v-55q-41-16-91-26t-96-10q-43 0-76 11t-53 32-19 47q0 35 31 56t86 20m799-40l17 34q-83 48-194 48-60 0-109-14t-77-42-28-66q0-38 29-67t79-45 112-15q82 0 129 21t48 59q0 37-43 55t-118 19q-86 0-189-33v5q0 25 22 44t62 30 89 10q52 0 94-11t77-32m-167-132q-55 0-101 15t-65 42q43 13 90 19t89 7q55 0 83-9t28-30-33-32-91-12m765 160l13 35q-12 9-26 13t-33 5q-31 0-51-20t-19-57v-2q-58 38-113 59t-112 21q-48 0-84-13t-57-40-20-62q0-41 26-71t70-47 97-16q96 0 193 42v-104h-103v-39h152v264q0 22 9 33t23 11q18 0 35-12m-334 12q47 0 104-20t114-55v-55q-41-16-91-26t-96-10q-43 0-76 11t-53 32-19 47q0 35 31 56t86 20" />
</svg>