<svg id="fnt-Bitter" viewBox="0 0 1322 1000" xmlns="http://www.w3.org/2000/svg"><path id="bitter" class="f" d="M183 491l3-5q34 1 58 11t35 29 12 46q0 28-14 49t-41 34-72 12h-139v-22l49-10-6 9v-302l8 9-51-9v-22l82-2h62q36 0 60 10t36 29 12 46q0 36-22 59t-72 29m-22-143h-60l8-8v141l-8-7h47q30 0 49-8t29-22 10-35q0-21-9-34t-25-21-41-6m-60 289h60q29 0 49-8t29-23 10-36q0-21-9-36t-26-23-40-8h-73l8-8v149l-8-7m320-236v240l-5-5 44 9v22h-118v-22l43-9-4 5v-211l4 5-43-9v-22l79-3m-23-54q-12 0-19-7t-8-21q0-13 8-21t19-7q12 0 20 7t7 21q0 14-8 21t-19 7m181 324q-26 0-41-16t-15-49v-182l7 7h-52v-22l52-8-7 8v-66l40-6v72l-5-6h78l-1 28h-77l5-7v176q0 21 8 31t24 9q9 0 19-3t23-8l8 23q-35 19-66 19m181 0q-26 0-41-16t-15-49v-182l7 7h-52v-22l52-8-7 8v-66l40-6v72l-5-6h78l-1 28h-77l5-7v176q0 21 8 31t24 9q9 0 19-3t23-8l8 23q-35 19-66 19m212 0q-34 0-60-15t-40-45-14-72q0-43 15-75t42-49 65-17q35 0 57 15t34 41 12 59q0 6-1 11t-1 14h-193v-29h158l-5 3q1-22-5-41t-21-31-38-11q-26 0-43 13t-26 37-9 55q0 33 10 56t27 37 45 13q19 0 41-7t45-22l15 22q-28 19-56 29t-54 9m282-4h-128v-22l44-9-5 7v-215l6 7-45-9v-22l70-3 6 49-6-2q23-24 44-37t47-13q16 0 34 5l-3 70h-25l-6-49 4 9q-3-1-7-2t-8 0q-20 0-39 12t-36 31l4-12v181l-6-7 55 9v22" />
</svg>