<svg id="fnt-BIZ UDPMincho" viewBox="0 0 4133 1000" xmlns="http://www.w3.org/2000/svg"><path id="biz-udpmincho" class="f" d="M15 305v-18h171q52 0 81 15 15 7 27 20 21 23 21 54 0 74-97 86v2q52 1 83 22 41 27 41 76 0 48-34 74-15 12-38 20-32 11-71 11h-184v-18q32-4 40-11 9-8 9-29v-265q0-22-12-29-10-7-37-10m85 43v105h60q46 0 76-16 40-20 40-62 0-37-29-51-25-12-71-12h-37q-22 0-30 7-9 8-9 29m60 129h-60v128q0 22 9 29 10 8 41 8h28q54 0 84-14 40-19 40-66 0-51-48-71-33-14-94-14m231-172v-18h149v18q-39 3-48 12-8 9-8 33v253q0 26 11 34 9 8 45 12v18h-149v-18q36-4 46-12 10-9 10-34v-253q0-30-15-37-11-6-41-8m212 92l8-110h269v29l-249 326h129q66 0 88-23 18-19 28-77h17l-7 125h-299v-27l250-328h-123q-47 0-68 20-19 20-25 65h-18m491-92v-18h135v18q-35 3-42 10-9 7-9 29v167q0 62 24 92 33 42 96 42 44 0 73-23 20-16 30-37 14-30 14-76v-165q0-22-9-29-9-7-41-10v-18h128v18q-35 3-43 11-7 6-7 28v165q0 75-35 118-41 49-114 49-78 0-122-54-20-25-26-63-3-20-3-48v-167q0-22-9-29-9-6-40-10m415 0v-18h171q89 0 139 56 47 52 47 133 0 91-52 142-49 49-136 49h-169v-18q31-4 40-11 9-7 9-29v-265q0-22-10-29-10-8-39-10m85 43v257q0 22 9 29 10 8 41 8h28q78 0 117-47 36-42 36-119 0-84-42-125-39-39-113-39h-37q-21 0-30 7-9 8-9 29m312-43v-18h167q54 0 94 18 11 6 20 12 40 29 40 78 0 39-24 66-21 22-60 33-32 8-86 8h-65v107q0 20 12 29 11 8 41 11v18h-139v-18q34-4 42-12 8-7 8-28v-265q0-21-11-29-11-8-39-10m86 43v129h61q68 0 99-18 33-19 33-63 0-84-119-84h-35q-22 0-30 7-9 8-9 29m265-43v-18h97l132 287 136-287h93v18q-32 4-41 10-9 7-9 29v265q0 22 11 30 7 7 39 10v18h-135v-18q32-3 41-11 9-8 9-29v-272h-2l-138 292h-20l-134-299h-2v279q0 22 9 29 9 7 40 11v18h-126v-18q31-5 40-11 9-8 9-29v-265q0-21-10-29-8-6-39-10m555-42q8 0 16 5 15 9 15 26 0 12-9 21-9 10-22 10-8 0-15-4-16-9-16-27 0-14 11-23 8-8 20-8m67 404h-134v-18q34-2 43-11 7-8 7-29v-159q0-20-10-27-10-6-35-8v-18q37 0 81-10v222q0 23 9 32 9 7 39 8v18m148 0h-123v-18q28-2 37-10 9-8 9-30v-159q0-22-10-28-7-5-35-7v-18q44 0 80-10v47q16-22 41-36 23-11 46-11 47 0 74 33 22 28 22 77v112q0 23 9 31 9 7 38 9v18h-124v-18q25-2 34-10 8-7 8-30v-114q0-36-18-58-17-21-46-21-46 0-84 56v137q0 22 8 30 9 8 34 10v18m452-83l15 16q-39 77-117 77-42 0-75-23-57-39-57-123 0-55 27-92 25-34 67-47 20-5 42-5 44 0 73 22 25 20 25 44 0 8-3 16-7 15-25 15-14 0-22-11-4-6-4-15 0-18 12-24-16-23-56-23-44 0-72 37-24 33-24 83 0 37 13 64 13 26 34 40 22 14 49 14 60 0 98-65m168 83h-123v-18q28-2 37-10 9-8 9-30v-269q0-22-10-28-7-5-35-7v-18q44 0 80-10v157q16-22 41-36 23-11 46-11 47 0 74 33 22 28 22 77v112q0 23 10 31 8 7 37 9v18h-124v-18q25-2 34-10 8-7 8-30v-114q0-36-18-58-17-21-46-21-46 0-84 56v137q0 22 8 30 9 8 34 10v18m355-280q66 0 102 51 28 38 28 94 0 57-27 95-36 50-103 50-58 0-94-38-36-39-36-107 0-63 34-102 37-43 96-43m-1 24q-33 0-57 24-32 33-32 96 0 51 27 87 26 35 63 35 33 0 59-31 31-36 31-91 0-51-22-84-26-36-69-36" />
</svg>