<svg id="fnt-Blaka Hollow" viewBox="0 0 2302 1000" xmlns="http://www.w3.org/2000/svg"><path id="blaka-hollow" class="f" d="M148 675l-140-38 20-73 12 3v-145h59l-70-19 20-73 179 49v100l-40 11 40 11v128l-80 46m-84-307l-3 10 124 34v49l10-3v-43l8 2 2-10-141-39m88 112v-44l-37-10v84l10-37 27 7m-69 134v-174h-10v172l-31-9-2 10 109 30 12-7-78-22m53-93l49 13v88l10-6v-79l8 2 2-9-66-19-3 10m-21 60h-25l62 17v-39l-37-10v32m213 86l-88-24 16-58v-229l75-19v252l17 5-20 73m-30-53v-244l-10 3v239l-14-4-2 10 41 11 3-10-18-5m164 31l-6 23-96-26 6-20v-151h39l15-59 149 39-19 73-10-2v66l26 7-20 73-84-23m-29-184l64 18v133l-12-4-2 11 48 12 3-9-27-8v-132l26 8 3-10-101-28-2 9m10 163l-34-10v-125h-10v123l-5-2-3 11 49 12 3-9m-2-129v91l23 6v0-91l-23-6m231 172l-88-24 15-58v-208l76-30v85l101-60v87l-34 20-32-7 66 39v125l-75 31v-113l-26-15v50l16 5-19 73m-40-277v222l-14-4-3 10 41 11 3-10-17-4v-229l-10 4m122 33l-43 25 14 3 29-16v-12m-75 69l-5 8 60 35v93l10-4v-94l-65-38m214 153l-6 23-96-26 6-20v-151h39l15-59 149 39-19 73-10-2v66l26 7-20 73-84-23m-29-184l64 18v133l-12-4-2 11 48 12 3-9-27-8v-132l26 8 3-10-101-28-2 9m10 163l-34-10v-125h-10v123l-5-2-3 11 49 12 3-9m-2-129v91l23 6v0-91l-23-6m313 173l-95-26 19-73 8 2v-137l-22-6 20-73 88 24-11 38v60l37 11v-84h76v185l16 4-19 73-88-24 15-58v-80l-10 37-27-8v51h-28l41 11-20 73m-59-61l-3 10 46 13 3-10-13-4v-114l43 12 2-10-45-13v-80l9 2 3-10-42-11-2 10 22 6v206l-23-7m123 1l-2 10 40 11 2-10-17-5v-186h-10v184l-13-4m205 66l-118-32 5-20v-151h23l18-68 151 42-12 42v137h-53l-14 50m25-200v125h10v-122l10 3 2-9-104-30-2 10 84 23m-62 17v95l29 8v-95l-29-8m24 139l-57-16v-119h-10v117l-5-2-3 10 73 19 2-9m192 37l-88-24 16-58v-229l75-19v252l17 5-20 73m-30-53v-244l-10 3v239l-14-4-2 10 41 11 3-10-18-5m148 53l-88-24 15-58v-229l76-19v252l16 5-19 73m-30-53v-244l-10 3v239l-14-4-3 10 41 11 3-10-17-5m180 60l-119-32 6-20v-151h23l18-68 150 42-11 42v137h-54l-13 50m24-200v125h10v-122l11 3 2-9-104-30-3 10 84 23m-62 17v95l29 8v-95l-29-8m25 139l-57-16v-119h-10v117l-6-2-2 10 72 19 3-9m286 56l-180-49 17-62v-79l-17-4 20-73 83 23-11 40v102l28 7 4-16v-79l-16-4 19-73 84 23-11 40v102l32 9v-72l-14-78 74-14 15 88v96l-19 73-100-27-8 27m-144-229l-2 10 16 5v134l-13-4-3 10 131 36 2-10v-19l105 29 3-10v-121l-10-57-10 2 10 57v117l-98-27v-145l-23-7-3 10 16 5v164l-97-27v-145l-24-7" />
</svg>