<svg id="fnt-Blaka Ink" viewBox="0 0 1636 1000" xmlns="http://www.w3.org/2000/svg"><path id="blaka-ink" class="f" d="M228 629l-80 46-140-38 20-73 12 3v-145h59l-70-19 20-73 179 49v100l-40 11 40 11v128m-113-119l10-37 27 7v-44l-37-10v84m0 39v32h-25l62 17v-39l-37-10m233 45l-20 73-88-24 16-58v-229l75-19v252l17 5m114 51l-6 23-96-26 6-20v-151h39l15-59 149 39-19 73-10-2v66l26 7-20 73-84-23m-21-150v91l23 6v0-91l-23-6m250 99l-19 73-88-24 15-58v-208l76-30v85l101-60v87l-34 20-32-7 66 39v125l-75 31v-113l-26-15v50l16 5m202 51l-6 23-96-26 6-20v-151h39l15-59 149 39-19 73-10-2v66l26 7-20 73-84-23m-21-150v91l23 6v0-91l-23-6m325 99l-19 73-88-24 15-58v-178l-15-4 19-73 88 24-16 62v173l16 5m123 0l-20 73-88-24 16-58v-83l-16-4 20-73 78 21 8-29 109 30-16 62v80l16 5-19 73-88-24 15-58v-85l-27-8-5 19v78l17 5m230 0l-20 73-88-24 16-58v-208l75-30v85l102-60v87l-34 20-32-7 66 39v125l-76 31v-113l-26-15v50l17 5" />
</svg>