<svg id="fnt-Bodoni Moda" viewBox="0 0 3047 1000" xmlns="http://www.w3.org/2000/svg"><path id="bodoni-moda" class="f" d="M171 667h-155v-10h150q21 0 39-11t30-33 11-51-11-48-30-27-39-8h-60v-6h65q35 0 65 8t47 29 18 52q0 56-35 80t-95 25m-63-4h-47v-368h47v368m53-187h-55v-7h55q19 0 36-7t28-25 11-48-11-49-28-29-36-10h-145v-9h145q56 0 90 22t35 70q0 49-33 70t-92 22m308 196q-36 0-61-17t-40-44-14-59 14-60 40-44 61-16 60 16 40 44 14 60-14 59-40 44-60 17m0-10q20 0 32-10t19-28 9-36 3-36q0-18-3-37t-9-36-19-27-32-11-33 11-19 27-9 36-3 37q0 17 3 36t9 36 19 28 33 10m268 9q-26 0-49-14t-39-41-15-64 15-64 39-42 49-14q31 0 51 21t29 57v-209h-33v-9h78v365h33v10h-78v-73q-8 36-29 57t-51 20m9-13q19 0 35-13t26-36 10-57-10-58-26-36-35-13q-19 0-33 13t-20 37-7 57 7 57 20 36 33 13m307 14q-35 0-61-17t-39-44-14-59 14-60 39-44 61-16 61 16 40 44 14 60-14 59-40 44-61 17m0-10q21 0 33-10t19-28 9-36 3-36q0-18-3-37t-9-36-19-27-33-11-32 11-20 27-9 36-2 37q0 17 2 36t9 36 20 28 32 10m159-225h76v220h32v10h-108v-10h32v-211h-32v-9m229 70v150h32v10h-109v-10h33v-143q0-21-2-36t-9-25-20-9q-20 0-35 11t-24 28-14 36-5 35l-6 2q0-17 4-38t15-41 28-32 44-13q29 0 43 10t20 26 5 39m126-159q-12 0-21-9t-9-21q0-13 9-21t21-9q13 0 21 9t9 21q0 12-9 21t-21 9m-55 89h77v220h33v10h-110v-10h32v-211h-32v-9m466 235h-13l-139-380h48l116 312 108-312h11l-131 380m-195-380h48v365h37v10h-82v-10h35v-356h-38v-9m323 0h83v9h-35v356h35v10h-123v-10h40v-365m238 380q-35 0-61-17t-39-44-14-59 14-60 39-44 61-16 61 16 40 44 14 60-14 59-40 44-61 17m0-10q21 0 33-10t19-28 9-36 3-36q0-18-3-37t-9-36-19-27-33-11-32 11-20 27-9 36-2 37q0 17 2 36t9 36 20 28 32 10m269 9q-26 0-50-14t-38-41-15-64 15-64 38-42 50-14q31 0 51 21t29 57v-209h-33v-9h78v365h33v10h-78v-73q-8 36-29 57t-51 20m9-13q19 0 35-13t26-36 10-57-10-58-26-36-35-13q-20 0-33 13t-20 37-7 57 7 57 20 36 33 13m377 14q-11 0-21-4t-16-14-6-26v-114q0-18-3-34t-13-27-29-11q-12 0-24 3t-22 8-17 12-7 19h-11q0-13 8-20t18-8q11 0 20 7t9 20q0 15-9 21t-20 7q-11 0-19-7t-8-20q0-12 8-21t20-16 29-11 33-3q35 0 52 12t23 30 6 39v123q0 9 2 14t13 6q6 0 14-5t12-14l5 9q-7 10-19 18t-28 7m-116 0q-33 0-52-17t-19-45q0-34 28-53t82-19h57v9h-57q-22 0-35 9t-20 23-6 27q0 13 4 25t12 19 21 7q14 0 27-9t22-27 9-46h6q0 29-10 50t-26 34-43 13" />
</svg>