<svg id="fnt-Bokor" viewBox="0 0 1027 1000" xmlns="http://www.w3.org/2000/svg"><path id="bokor" class="f" d="M85 317q57-34 61-34t14 8 20 21 10 27v84q0 12-41 29 7 2 17 12t17 22 7 23v111q0 2-10 7t-28 12-33 13-32 10-18 5q-8 0-19-10t-18-27-7-36v-240q0-27-21-32v-11l51-28q11 4 20 15t10 19m45 81v-31q0-14-6-24-6-11-17-9t-22 15v103q45-12 45-54m-20 223q10 0 20-8v-78q0-37-26-37-10 0-19 8v78q0 37 25 37m125-27v-166q0-2 12-7t28-11 35-13 31-11 17-4q4 0 11 5t15 15 12 19 5 18v181q0 2-11 7t-27 12-34 13-31 10-19 5q-8 0-18-10t-18-27-8-36m86 27q10 0 19-8v-148q0-37-25-37-10 0-20 8v148q0 37 26 37m190-84v56q0 30 20 34v11l-50 29q-11-5-21-15t-9-19v-248q0-13-5-19t-15-6v-14q32-17 61-33t55-31l8 16q-5 3-14 10t-15 15q-15 18-15 43v46q46-30 55-30 9 0 20 8t20 22 8 29v54q0 5-52 26 31 83 61 96 9 4 21 5v15q-46 30-58 30-7 0-15-10t-17-24-18-32-15-34-10-30m16-107l-16 3v79q10 0 36-12l9-5v-22q0-43-29-43m129 164v-166q0-2 11-7t28-11 35-13 31-11 17-4q4 0 12 5t14 15 12 19 5 18v181q0 2-11 7t-27 12-34 13-31 10-19 5q-8 0-18-10t-18-27-7-36m85 27q10 0 19-8v-148q0-37-25-37-10 0-19 8v148q0 37 25 37m105-198v-11l55-30q2 0 4 1t5 1q5 2 13 10t8 18q2 0 24-16 21-14 27-14 11 0 21 10t16 24 7 25v25l-52 29-8-7q0-42-8-48-9-7-27-7v160q0 30 20 34v11l-50 29q-11-5-21-15t-9-19v-166q0-22-8-33t-17-11" />
</svg>