<svg id="fnt-Bonbon" viewBox="0 0 1990 1000" xmlns="http://www.w3.org/2000/svg"><path id="bonbon" class="f" d="M340 450q26 11 40 32t15 49-9 53-25 46-38 33-49 12q-14 0-26-3t-20-10-15-15-5-23q0-21 11-36t30-15q12 0 19 8t8 18q0 19-19 19-16 0-25-13-3 6-3 14 0 15 12 25t29 10q23 0 41-10t32-28 21-40 7-47q0-19-9-35t-27-21q-3 12-12 25t-21 24-25 18-25 7q-27 0-27-22 0-17 8-31t21-25 29-16 34-6q3-10 3-21 0-12-3-22t-11-18-16-12-23-5q-5 0-7 1-53 151-102 227t-95 76q-21 0-35-15t-13-44q0-31 12-63t32-62 46-56 54-46 55-30 52-11q16 0 30 6t25 18 16 26 6 31q0 12-3 23m-85 77q5 0 13-6t17-14 16-19 10-20h-5q-11 0-21 5t-19 13-13 17-5 17q0 7 7 7m-23-151q-34 9-79 46t-79 91-35 99q0 17 6 27t19 10q15 0 33-15t31-34 28-49 24-49 52-126m298 295q-51 0-79-29t-27-74q0-17 4-35t15-39 25-36 38-26 52-10q51 0 79 29t27 75q0 16-4 35t-15 38-25 36-38 26-52 10m0-21q33 0 59-19t37-46 12-55q0-22-6-40t-25-33-48-14q-33 0-59 19t-38 47-12 55q0 21 7 39t25 33 48 14m-3-116q-10-9-10-13 0-5 6-9t11-3q3 0 4 3t2 9 1 7q4 0 8 1 1-1 2-7t4-9 5-2q6 0 12 5t6 10q0 3-16 10 3 3 3 5 12-6 15-6 10 0 10 11 0 16-13 16-1 0-12-5-1 2-5 6 11 12 11 16 0 5-5 8t-11 3q-6 0-8-21-4 1-7 0-1 0-3 7t-5 11-5 4q-6 0-12-5t-6-11q0-2 16-13-2-2-4-6-3 2-14 2-8 0-8-11 0-9 8-9 12 0 14 2 2-4 6-6m5 5q-4 4-4 10t4 9 10 5 10-5 4-9-4-10-10-4-10 4m218 88q0 13-16 22 6 2 11 2 16 0 32-24t28-58 18-64 8-47q0-24-25-24-26 0-54 21t-28 46q0 12 6 12 0 0 1-6t6-11 13-5q9 0 15 5t6 15q0 12-11 18t-25 7q-15 0-26-9t-10-28q0-35 35-62t75-27q47 0 47 49 0 1-1 10 17-18 43-32t45-13q45 0 45 49 0 25-16 75t-16 67q0 16 11 24t27 8q18 0 32-11t14-30q0-11-6-17t-15-5q-6 0-10 2t-4 7q8 7 8 18 0 9-6 13t-13 5q-8 0-14-5t-5-14q0-18 10-32t32-13q18 0 32 12t14 31q0 29-21 46t-49 16q-26 0-45-14t-18-41q0-21 17-70t17-73-21-23q-21 0-49 19t-46 39q-6 28-15 54t-21 53-29 43-36 17q-16 0-30-10t-13-28q0-13 8-20t18-7q9 0 14 5t6 13m337-291q0-23 14-34t31-12q16 0 30 12t14 35q0 11-2 21t-4 22-6 26-9 30q-5 16-9 31t-7 29q15-37 41-57t58-19q18 0 33 7t25 21 16 31 6 38q0 27-10 55t-26 50-41 36-54 14q-36 0-59-26t-22-78q0-46 23-124t22-105q0-11-5-19t-13-8q-7 0-15 7 7 7 7 17 0 9-6 15t-13 6-14-6-5-15m113 244q-11-10-11-25 0-11 6-17t14-6q9 0 15 7t6 19q0 18-10 29t-29 12q-27 0-41-21t-13-57q-6 27-6 50 0 35 14 56t46 21q21 0 39-11t33-29 23-41 8-48q0-37-17-56t-39-19q-15 0-29 6t-26 18-18 26-6 34q0 9 2 18t8 17 13 12 18 5m256 91q-51 0-78-29t-27-74q0-17 4-35t14-39 25-36 39-26 52-10q51 0 78 29t28 75q0 16-5 35t-14 38-26 36-38 26-52 10m0-21q34 0 59-19t38-46 12-55q0-22-7-40t-25-33-47-14q-34 0-60 19t-37 47-12 55q0 21 6 39t25 33 48 14m-3-116q-10-9-10-13 0-5 6-9t12-3q2 0 4 3t2 9 0 7q5 0 9 1 0-1 2-7t4-9 4-2q6 0 12 5t6 10q0 3-15 10 2 3 3 5 12-6 15-6 9 0 9 11 0 16-12 16-2 0-13-5 0 2-5 6 12 12 12 16 0 5-6 8t-11 3q-5 0-8-21-3 1-7 0 0 0-3 7t-5 11-5 4q-5 0-11-5t-6-11q0-2 15-13-2-2-4-6-2 2-14 2-8 0-8-11 0-9 9-9 11 0 14 2 2-4 5-6m6 5q-4 4-4 10t4 9 10 5 9-5 5-9-5-10-9-4-10 4m218 88q0 13-17 22 6 2 12 2 15 0 32-24t27-58 19-64 7-47q0-24-25-24-26 0-54 21t-28 46q0 12 6 12 1 0 2-6t5-11 14-5q8 0 14 5t6 15q0 12-11 18t-25 7q-15 0-25-9t-10-28q0-35 35-62t74-27q47 0 47 49 0 1-1 10 18-18 43-32t46-13q45 0 45 49 0 25-17 75t-16 67q0 16 11 24t27 8q18 0 32-11t15-30q0-11-7-17t-14-5q-6 0-11 2t-4 7q9 7 9 18 0 9-6 13t-13 5q-8 0-14-5t-6-14q0-18 10-32t33-13q18 0 31 12t14 31q0 29-21 46t-49 16q-26 0-44-14t-19-41q0-21 17-70t17-73-20-23q-21 0-50 19t-46 39q-6 28-14 54t-21 53-29 43-36 17q-17 0-30-10t-13-28q0-13 7-20t18-7q9 0 15 5t6 13" />
</svg>