<svg id="fnt-Boogaloo" viewBox="0 0 1510 1000" xmlns="http://www.w3.org/2000/svg"><path id="boogaloo" class="f" d="M37 334q58-18 105-18t81 25 33 63q0 55-62 88 58 23 58 78 0 41-43 72t-89 32q-6 0-85-7 7-107 7-181t-5-152m151 77q0-15-15-26t-31-10-36 6q2 60 2 91 23-2 52-21t28-40m-57 202q17 0 35-13t19-31-22-30-55-16q-1 59-2 89 9 1 25 1m201-36q0 56 25 56 11 0 19-32t7-60q0-64-21-64-13 0-22 34t-8 66m-58-5q0-46 19-91 10-22 28-37t41-14 38 10 25 28q17 33 17 73 0 54-23 96t-62 43q-83 0-83-108m242 5q0 56 25 56 11 0 19-32t7-60q0-64-21-64-13 0-22 34t-8 66m-58-5q0-46 19-91 10-22 28-37t41-14 38 10 25 28q17 33 17 73 0 54-23 96t-62 43q-83 0-83-108m268 162q16 0 25-32t10-79q-27 48-55 48t-46-20-17-58 14-78 33-62 38-23q31 0 58 25l35 5q-7 33-7 100t-4 99-12 62-25 49-43 18-52-22-39-52l42-18q19 38 45 38m14-253q-12 0-25 36t-13 76q0 16 4 24t10 8 14-10 18-32 14-49l1-38q-14-15-23-15m115 38q7-39 28-66t55-27 50 28 17 80-6 144l-42-4-4-16q-24 14-48 14t-41-17-16-46 30-53 70-23v-13q0-40-19-40-9 0-17 13t-11 31l-46-5m44 93q0 16 19 16 13 0 28-6l1-42q-24 2-36 11t-12 21m167-311l59 5q-8 126-8 228t3 142l-59-5q-2-52-2-148t7-222m149 276q0 56 25 56 11 0 19-32t7-60q0-64-21-64-13 0-22 34t-8 66m-58-5q0-46 19-91 10-22 28-37t41-14 38 10 25 28q17 33 17 73 0 54-23 96t-62 43q-83 0-83-108m242 5q0 56 25 56 11 0 19-32t7-60q0-64-21-64-13 0-22 34t-8 66m-58-5q0-46 19-91 10-22 28-37t41-14 38 10 25 28q17 33 17 73 0 54-23 96t-62 43q-83 0-83-108" />
</svg>