<svg id="fnt-Borel" viewBox="0 0 1367 1000" xmlns="http://www.w3.org/2000/svg"><path id="borel" class="f" d="M166 667h-116v-361h106q52 0 81 24t30 70q0 49-42 76 30 12 47 35t18 55q0 48-32 74t-92 27m-71-318v115h60q32 0 49-15t17-43q0-57-68-57h-58m0 156v119h77q37 0 54-14t18-45q0-29-18-45t-53-15h-78m219 126q17 0 32-16t27-42q-2-12-2-25 0-36 16-64t42-44 60-16 60 16 42 44 15 64-15 65-42 44-60 17q-30 0-55-14t-41-36q-31 50-82 50-7 0-11-6t-4-16q0-21 18-21m175 0q32 0 51-23t19-60q0-18-5-34-30-1-55-12t-38-30q-20 9-31 29t-12 48q0 37 19 59t52 23m137 43q-6 0-10-6t-4-16q0-21 18-21 22 0 39-19t27-49 11-70q0-9-1-17t-3-12q-4-5-10-15t-9-21-3-18q6-10 19-15t29-3q10 18 16 44 15 0 40-6 16-4 26-5t17-1q27 0 42 20t16 55v80q0 28 7 40t23 12q7 0 11 6t4 16q0 8-5 14t-13 7q-73 0-73-89v-78q0-22-5-31t-18-9q-4 0-10 1t-19 4q-25 5-37 6 0 8 0 16 0 54-15 94t-44 63-66 23m287 0q-7 0-11-6t-4-16q0-21 18-21 15 0 30-5t35-16q-20-34-20-80 0-31 12-55t32-38 46-13q22 0 39 10t27 28 9 42q0 32-19 58t-63 58q16 11 43 11 7 0 11 6t4 16q0 10-4 15t-13 6q-24 0-45-8t-35-22q-48 30-92 30m92-148q0 39 14 63 32-23 48-44t16-41q0-18-9-29t-24-10q-20 0-33 18t-12 43m129 148q-7 0-11-6t-4-16q0-10 5-16t13-5q16 0 34-12t36-31q-4-19-6-44t-3-60-1-86h0l0 0q0-45 1-76t4-52 7-36 13-26q11-18 27-26t36-8q39 0 60 34t21 95q0 73-29 149t-81 146q7 17 20 25t31 8q7 0 11 6t5 16q0 21-19 21-27 0-48-12t-32-29q-42 41-90 41m107-273q0 52 1 86t2 56q38-63 58-123t19-117q0-42-9-64t-27-22q-20 0-30 23-5 12-8 30t-5 49-1 82" />
</svg>