<svg id="fnt-Bowlby One SC" viewBox="0 0 4257 1000" xmlns="http://www.w3.org/2000/svg"><path id="bowlby-one-sc" class="f" d="M22 633v-328l211-7q20 0 37 2t35 9 29 17 20 29 8 40q0 31-13 50t-40 33q31 9 48 31t16 54q0 25-9 44t-24 32-35 20-39 11-39 3q-12 0-36 0t-35 0q-68 0-125 1-8-12-9-41m141-247q0 11 0 33t1 33q0 4 6 5 3 0 12-1t13-2 12-4 11-6 7-12 3-17q0-37-52-37-10 1-12 3-1 2-1 5m4 178v8q0 18 2 18h8q9 0 16 0t15-3 13-7 8-12 4-19q0-6-1-11t-4-9-5-6-8-4-8-3-9-2-9-1-9-1-8 0v9q0 3-3 18t-2 25m221-59v-15l0-5q4-40 8-56 10-37 35-61l6-6q11-14 35-23h9q24-10 79-19 14 0 29 2t33 7 35 15 29 25v7q40 50 40 112 0 70-33 114l-9 12q-12 14-28 24t-36 16-36 7-34 2q-25 0-48-6t-43-18-35-32-24-44-12-58m134-24v11q0 86 33 86 9 0 16-4t11-10 7-15 3-18 2-19 0-20v-9q0-13-1-24t-5-24-11-19-18-7q-37 0-37 72m335-141l18 155q4-18 8-41t6-40 6-43 6-40h140q1 6 2 12t1 13 2 13 2 13 1 13 2 13 1 13 2 12l10 69 20-168q1-1 2-2t4-2 4-1 6 0 6 0 7 0 5 0q8 0 23 0t22 1q1 0 5-1t7 0q9 0 11 2 1 0 4-1t5 0q2 0 3 0t4 2 3 2 2 3 2 5l-71 312h-143l-27-157-17 130q0 1-1 8t-2 9-2 6-4 6-5 2q-9 0-27-1t-27-1q-16 0-41 1t-37 1h-8l-65-304 2-17q0 0 0-2t0-2 0-1 1-2 1-1 3-1q6 1 10 1h16q5 0 5-1h8q1 0 4 0t4-1h7q3 0 8 0t8 0h16v1h16q8 0 12 2t4 10m597 317h-225q0-1-2-2t-3-5v-105q0-21 1-64t2-65q0-5-1-21t-1-25q0-35 8-42 51 1 76 1h24q8 0 12 0 1 0 3 0 0 0 4 0t6 1q6 0 10 10v3q0 3 0 8t0 8v11q-1 1-3 4t-3 5v178h103q4 0 6 1t4 2 2 6v81q-2 10-23 10m303-173q13 0 23 8t17 19 10 25 4 24q-1 30-17 52t-43 32l-21 12h-230v-328h186q55 0 87 23 14 9 21 27t8 37q0 25-11 40t-34 29m-126 31l-10 61q0 1 4 2t5 2h19q16-1 26-8t10-22q0-6-2-10t-3-8-5-6-6-5-7-3-8-1-8-1-8-1-7 0m-5-107q2 11 2 25v5q0 1 0 3t-1 2q0 1 1 4t0 6v8q0 2 2 3 6 0 10 0t11-1 11-3 9-6 7-10 2-14q0-11-7-18t-17-8-21-2q-1 0-5 0v0q-4 1-4 6m200-78h129l39 120q18-49 34-99 1-2 3-7t3-9q2-6 27-6 1 0 4 0t5 1q40-1 86-1 6 0 9 12l-111 200 4 17q0 14 0 43t1 40v8q-1 3-4 5t-8 3-9 1-11 0-9-1h-93l-8-10v-102l-56-120-27-37q-20-40-20-51 0-7 12-7m486 153v-27q2-34 15-62t32-48 44-32 52-20 57-6q16 0 34 3t37 8 37 18 30 26q24 30 35 62t11 72q1 83-36 133l-11 15q-14 19-41 32t-52 18-54 5q-31 0-58-6t-46-17-34-26-25-33-16-37-8-39-3-39m194-97q-10 0-18 5t-13 11-8 18-6 20-2 22-1 21 0 20q0 11 0 21t4 21 7 20 13 14 18 7q11 0 19-4t14-9 9-15 6-18 4-21 1-22 0-23q0-10 0-19t-2-19-5-19-9-16-12-11-19-4m464-55h83q3 1 5 8t2 19 0 21-1 21 0 14q-1 9-1 27v26q0 17 1 47t0 44v89q-1 8-14 8h-136q-5-1-12-21-4-13-15-42t-19-52-14-43v-2 2q-1 16-1 48t-2 47v50q0 8-2 10t-9 5h-100l-11-11q1-40 2-127t2-128v-52q2-9 6-9v1q16 0 52-1t53-1h41q1 0 1 0 4 2 5 4l0 2q9 23 18 49t22 61 17 50v-36q5-86 5-122 0-4 5-5t17-1m136 318v-298q0-14 1-17 2-3 7-3h6q4 0 5 0h13q25 0 75-1t75-1h65q6 0 6 6v82q0 1-1 2t-1 2-2 1-3 2h-113v31h11q14 0 43-1t44-1q7 0 10 2t2 8q0 1 0 4t-1 4v10q0 1 0 4t1 5v7q0 5 0 10t1 10v6q-2 3-2 4t-3 1v-1q-9 0-31 2t-35 1h-39v31q2 0 6 0t5 1q11 0 33-1t31-1h31q13 0 16 3 2 2 2 3v78q0 5-2 8t-7 3h-242l-7-6m592 32q-29-1-52-5t-44-12-36-21-24-33-12-46q0-5 5-6 2 1 5 1 20 0 62-1t61-1q5 0 8 3t5 8 4 10 9 8 16 3q12 0 21-7t9-18q0-7-7-14t-21-10-25-7-23-5-14-2q-60-17-86-41t-26-65q0-29 11-53t28-38 41-24 48-14 50-4q69 0 109 25 15 15 22 23t14 18 9 20 3 24l-9 9q-50 2-112 2-8 0-13-2t-6-4-3-6-3-5-6-5-11-2q-2 0-6 1t-10 2-10 5-4 8q0 5 5 10t12 6 15 4 11 3q53 14 64 17 53 17 75 44 21 26 21 64 0 23-6 42t-16 32-24 24-30 16-34 11-35 5-35 3m558-145q-4 36-19 65t-39 46-54 26-66 9q-33 0-60-7t-47-19-33-29-23-36-14-39-7-41-1-39v-21q2-36 16-64t35-46 46-29 51-16 49-5q39 0 69 10t49 26 30 39 14 50v23q0 8-54 8-12 0-35-1t-30 0q-1 0-3 0t-4 0q-6 0-10-5t-4-13-3-15-6-13-14-5-16 3-10 9-6 13-4 16-2 17 0 19-1 17q0 3 0 11t-1 12q0 61 33 63 8 0 14-6t8-15 4-16 6-12h133q8 1 9 10" />
</svg>