<svg id="fnt-Braah One" viewBox="0 0 2396 1000" xmlns="http://www.w3.org/2000/svg"><path id="braah-one" class="f" d="M152 667h-127v-301q24-10 54-15t60-4q66 0 99 23t33 62q0 24-12 44t-35 27q26 6 42 26t15 52q0 27-12 46t-41 29-76 11m-43-253v62h43q15 0 24-10t9-23q0-12-10-22t-36-10q-6 0-15 0t-15 3m0 126v63h49q16 0 26-9t9-23q0-14-8-23t-27-8h-49m302 127h-85v-212q18-20 43-34t60-13q41 0 72 21l-21 57q-8-5-18-7t-19-3q-10 0-19 3t-13 6v182m370-26l-62 52-31-38q-24 14-59 14-46 0-72-24t-26-64q0-36 22-56t64-19h61v-8q0-15-13-22t-37-7q-18 0-34 4t-30 13l-20-58q19-11 43-16t47-4q58 0 91 24t33 67v114l23 28m-139-34q19 0 28-12t9-25v-14h-37q-16 0-24 7t-7 18q0 12 8 19t23 7m420 34l-62 52-32-38q-23 14-58 14-47 0-73-24t-26-64q0-36 22-56t64-19h62v-8q0-15-13-22t-37-7q-19 0-35 4t-30 13l-19-58q19-11 42-16t47-4q58 0 91 24t33 67v114l24 28m-140-34q19 0 28-12t9-25v-14h-37q-15 0-23 7t-8 18q0 12 9 19t22 7m429 32l-61 52-39-40v-126q0-21-11-32t-32-11q-9 0-17 2t-14 6v177h-80v-325h79v83q9-4 26-6t31-3q43 0 70 27t27 74v99l21 23m316 30q-50 0-86-20t-56-55-19-86 19-86 56-56 86-19 85 19 54 56 19 86q0 75-42 118t-116 43m0-72q34 0 52-23t18-65-18-67-52-23-54 23-19 67 19 65 54 23m459 52l-62 52-40-40v-136q0-21-11-32t-32-11q-9 0-17 2t-14 6v177h-80v-216q19-19 51-31t72-11q55 0 83 25t28 68v121l22 26m167 21q-40 0-71-16t-48-47-18-73q0-61 34-94t91-32q40 0 65 15t37 41 12 56q0 11-1 23t-4 23h-155q2 26 21 35t43 9q21 0 38-5t27-13l22 50q-13 11-38 19t-55 9m-58-154h90q0-20-11-34t-34-14q-21 0-33 13t-12 35" />
</svg>