<svg id="fnt-Bree Serif" viewBox="0 0 2203 1000" xmlns="http://www.w3.org/2000/svg"><path id="bree-serif" class="f" d="M20 377v-43h141q108 0 108 84 0 46-46 70 29 7 46 27t17 52q0 49-33 74t-95 26h-141v-41l17-1q14-2 14-14v-233l-28-1m139 138h-50v105h47q65 0 65-53 0-25-16-39t-46-13m-9-135h-41v91h37q31 0 46-13t15-36-15-32-42-10m199 231v-139q0-8-3-11t-10-4l-21-1v-41h85v38q9-20 28-33t43-12 48 11v74l-47 4v-23q0-10-5-13-5-2-13-2-20 0-33 14t-13 36v116l44 2v40h-134v-38l16-2q8-1 11-4t4-12m325-203q38 0 60 18t22 51q0 22-10 39t-23 26-34 16q-34 10-76 10 2 26 17 42t46 17 62-22l19 40q-10 9-34 19t-54 9q-61 0-90-34t-28-92 32-99 91-40m-23 114q19-3 34-15t16-26q0-31-30-31-28 0-43 22t-17 54q22-1 40-4m265-114q38 0 60 18t22 51q0 22-10 39t-23 26-34 16q-34 10-76 10 2 26 17 42t46 17 62-22l19 40q-10 9-34 19t-54 9q-61 0-90-34t-28-92 32-99 91-40m-23 114q19-3 34-15t16-26q0-31-30-31-28 0-43 22t-17 54q22-1 40-4m344 100q60 0 60-48 0-25-27-37-14-7-36-13t-37-13-30-17q-29-22-29-68t31-72 83-26 96 21v75l-51 3v-29q0-7-2-11-6-9-36-9t-44 10-14 33q0 16 12 28 8 8 24 13t33 11 32 12 29 18q30 22 30 69t-34 74-89 27-99-20v-79l51-4v31q0 7 2 11t12 6 33 4m282-214q38 0 60 18t22 51q0 22-10 39t-23 26-34 16q-34 10-76 10 2 26 17 42t46 17 62-22l19 40q-10 9-34 19t-54 9q-61 0-90-34t-28-92 32-99 91-40m-23 114q19-3 34-15t16-26q0-31-30-31-28 0-43 22t-17 54q22-1 40-4m171 89v-139q0-8-3-11t-10-4l-21-1v-41h85v38q9-20 28-33t43-12 48 11v74l-47 4v-23q0-10-5-13-5-2-13-2-20 0-33 14t-13 36v116l44 2v40h-134v-38l16-2q8-1 11-4t4-12m201-196h89v210l29 2v40h-119v-38l16-2q15-1 15-16v-139q0-8-3-11t-10-3l-17-1v-42m26-43q-10-10-10-26t10-27 28-11 27 11 11 27-11 26-27 10-28-10m152 239v-154h-43v-42h43v-19q0-49 23-70 21-21 61-21t72 18l-14 40q-24-13-45-13t-29 10-8 32v23h74v42h-74v168l42 2v40h-133v-38l17-2q7-1 11-4t3-12" />
</svg>