<svg id="fnt-Bricolage Grotesque" viewBox="0 0 4770 1000" xmlns="http://www.w3.org/2000/svg"><path id="bricolage-grotesque" class="f" d="M176 667h-133v-330h121q28 0 50 5t39 15 25 27 9 39q0 19-8 34t-24 23-42 14v6q46 4 66 25t21 55q0 28-13 47t-41 29-70 11m-89-152v113h94q37 0 55-13t19-39q0-31-26-46t-76-15h-66m0-140v106h57q49 0 73-14t24-39-21-40-62-13h-71m327 292h-46v-140-119h41l-4 90h9q4-29 14-51t25-33 39-12q5 0 12 0t15 4l-3 48q-7-3-15-5t-14-1q-20 0-34 13t-24 33-15 48v125m200 0h-46v-259h46v259m-23-304q-16 0-24-6t-8-20 8-19 24-7q16 0 24 7t8 19q0 13-8 19t-24 7m213 310q-34 0-58-11t-39-29-21-43-7-50q0-28 8-53t22-45 38-30 54-10q29 0 52 10t36 29 19 44l-44 12q-1-14-8-27t-21-22-35-8q-19 0-33 8t-23 21-14 31-5 39q0 29 8 51t26 33 45 12q21 0 35-7t23-21 11-31l42 10q-3 21-13 38t-24 27-33 16-41 6m274 0q-37 0-65-16t-44-47-16-74q0-45 17-75t45-44 62-15q36 0 64 15t45 46 17 75-17 75-44 45-64 15m2-37q24 0 41-12t27-33 9-51q0-31-10-53t-27-35-44-12q-23 0-41 11t-26 32-10 52q0 47 22 74t59 27m233 31h-45v-350h45v350m138 6q-21 0-38-8t-27-25-10-41q0-18 7-32t21-24 37-17 55-11q18-2 30-5t17-8 6-17q0-19-13-32t-41-13q-15 0-30 5t-26 16-14 33l-42-14q4-18 13-32t24-25 33-16 43-5q33 0 54 11t33 33 11 59v57q0 16 0 34t3 36 3 35h-42q-2-16-3-32t-2-32h-6q-8 18-20 34t-32 26-44 10m14-37q11 0 22-3t22-12 22-20 18-30v-50l13 2q-8 8-21 12t-29 7-32 5-30 8-21 15-8 26q0 20 12 30t32 10m302 118q-41 0-68-6t-38-19-13-32q0-23 18-38t55-20v-9q-27 0-40-6t-14-20q0-13 14-23t44-17v-9q-31-1-47-19t-16-46q0-25 14-44t40-29 63-10h122v38l-80-12v9q29 6 44 20t16 39q0 21-13 37t-37 25-59 9q-7 0-15-1t-20-3q-14 9-22 16t-8 12 7 9 19 4 21 1h58q10 0 25 2t31 9 26 20 10 37q0 27-16 44t-46 25-75 7m1-37q33 0 54-5t30-13 10-23q0-13-7-20t-16-10-20-4-17-1h-59q-29 7-40 18t-11 25q0 14 10 21t27 9 39 3m6-175q31 0 47-13t16-35q0-23-16-39t-49-15q-31 0-48 15t-17 37q0 15 8 26t22 18 37 6m298 131q-30 0-54-9t-39-27-24-41-8-54q0-31 8-56t24-45 38-29 51-10q26 0 47 8t35 26 23 45 6 63l-203 1v-31l175-1-15 21q2-32-6-52t-25-31-37-11q-23 0-40 12t-27 35-9 54q0 46 20 70t61 25q16 0 27-4t20-11 14-15 8-20l40 10q-4 18-14 32t-23 24-31 16-42 5m429 0q-40 0-72-19t-50-56-18-95q0-40 10-72t29-54 48-35 65-12q27 0 49 7t39 20 27 32 13 43l-44 13q-2-27-15-44t-31-23-39-8q-31 0-54 14t-36 42-13 76q0 37 8 62t22 40 31 22 39 7q27 0 46-10t30-31 15-51h-75v-36h121v49 113h-38l10-90h-8q-6 32-20 53t-36 32-53 11m263-6h-45v-140-119h41l-4 90h8q5-29 14-51t25-33 40-12q5 0 11 0t15 4l-2 48q-8-3-15-5t-15-1q-19 0-34 13t-23 33-16 48v125m265 6q-37 0-65-16t-44-47-16-74q0-45 17-75t45-44 62-15q36 0 64 15t45 46 17 75-17 75-44 45-64 15m2-37q24 0 41-12t27-33 9-51q0-31-10-53t-27-35-44-12q-23 0-41 11t-26 32-10 52q0 47 22 74t59 27m268 36q-36 0-53-20t-18-59v-147h-39l1-38h24q13 0 18-4t7-15l5-39h28v58h75v39h-75v145q0 20 9 28t27 9q10 0 20-2t20-10v45q-14 6-27 8t-22 2m216 1q-30 0-54-9t-39-27-24-41-8-54q0-31 8-56t24-45 38-29 51-10q26 0 47 8t35 26 23 45 6 63l-203 1v-31l175-1-15 21q2-32-6-52t-25-31-37-11q-23 0-40 12t-27 35-9 54q0 46 20 70t61 25q16 0 27-4t20-11 14-15 8-20l40 10q-4 18-14 32t-23 24-31 16-42 5m267 0q-27 0-48-6t-35-16-21-26-8-33l38-10q-1 17 8 29t27 19 42 6q29 0 45-10t17-27q0-14-9-22t-25-13-37-8q-18-4-36-9t-33-14-24-21-9-34q0-23 13-40t35-27 55-9 55 9 35 28 15 41l-40 10q0-17-9-28t-23-18-35-5q-26 0-42 10t-15 27q0 13 9 21t25 13 36 9q20 4 38 9t33 13 23 21 8 34q0 25-13 42t-38 26-57 9m394 75h-46v-70q0-13 1-28t4-28 4-28h-8q-6 20-17 38t-28 30-45 11q-33 0-56-18t-35-48-12-69q0-39 11-70t36-48 59-18q26 0 43 9t27 26 16 38h8l-3-66h41v128 211m-122-114q15 0 28-7t21-17 15-22 9-25 3-23v-6q0-16-5-32t-16-30-24-22-32-8q-21 0-37 11t-23 33-8 51q0 27 8 49t23 35 38 13m284 39q-43 0-65-30t-22-89v-146h46v142q0 42 13 62t41 21q15 0 27-8t22-21 16-34 8-41v-121h45v151 108h-40l4-83h-8q-6 31-18 50t-29 30-40 9m321 0q-30 0-54-9t-39-27-24-41-8-54q0-31 8-56t24-45 38-29 51-10q26 0 47 8t35 26 23 45 6 63l-203 1v-31l175-1-15 21q2-32-6-52t-25-31-37-11q-23 0-40 12t-27 35-9 54q0 46 20 70t61 25q16 0 27-4t20-11 14-15 8-20l40 10q-4 18-14 32t-23 24-31 16-42 5" />
</svg>