<svg id="fnt-Brygada 1918" viewBox="0 0 3069 1000" xmlns="http://www.w3.org/2000/svg"><path id="brygada-1918" class="f" d="M207 495v-6q33 0 59 10t41 28 16 44q0 27-12 45t-31 30-41 16-41 5h-173v-18h40l3-2v-295l-3-3h-40v-17h153q21 0 43 3t41 13 29 24 12 38q0 33-27 54t-69 31m-39-146h-53l-2 3v137l-23-5h78q24 0 44-6t31-22 12-42q0-22-12-37t-32-21-43-7m-53 300h73q24 0 44-7t31-24 12-43q0-22-12-39t-32-25-43-9h-98l23-6v151l2 2m331-122v-35q15-26 36-43t46-17q12 0 20 4t11 12 4 16q0 13-9 22t-21 8-22-8-8-22q0-4 3-12t6-11l0 13q-10 3-20 10t-21 22-25 41m0-35v155l3 2h57v18h-140v-18h38l2-2v-190l-2-3h-38v-17q13 0 25-1t25 0 25-2l3 3v55h2m272 175l-26 15-87-228h-35v-17h115v17h-32l-3 3 61 165h2l61-165-2-3h-35v-17h91v17h-30l-80 213m-98 130q-18 0-29-8t-14-19-4-17q0-12 7-20t18-7 18 7 7 18-7 16-18 7q-5 0-10-3t-8-7-3-11h15q0 5 2 12t8 12 18 5q16 0 29-15t23-37 20-48l26-15q-10 24-19 47t-21 42-25 30-33 11m329-365q23 0 46 8t39 27 16 45-16 44-39 27-46 9q-23 0-46-9t-38-27-15-44 15-45 38-27 46-8m3 142q22 0 39-16t16-43q0-22-9-37t-23-22-29-7q-24 0-39 17t-15 43q0 21 9 36t22 22 29 7m-67 39q0 12 10 17t27 8 37 4 41 3 37 8 27 19 11 35q0 41-34 65t-92 25q-16 0-35-3t-34-10-26-21-9-34q0-21 12-36t34-25l15 4q-12 11-17 23t-4 26q0 25 17 42t52 16q26 0 48-7t34-20 14-32q0-15-11-23t-28-11-38-4-42-3-38-7-28-16-10-30q0-20 10-32t25-20l13 6q-10 8-14 17t-4 16m115-162l-15-10q12-21 29-34t34-13q14 0 20 8t7 17q0 10-7 16t-16 7q-9 0-16-7t-6-16q0-4 2-9t5-8l0 14q-8 2-18 11t-19 24m307 221q-17 0-29-8t-16-22v-125q0-31-11-48t-40-17q-15 0-29 3t-24 12q8 4 11 11t3 14q0 11-7 18t-18 7q-10 0-18-8t-7-20 8-24 22-18 30-11 34-4q24 0 43 6t31 24 12 47v119q0 7 3 14t13 7q7 0 13-5t10-11l14 11q-6 9-13 15t-16 9-19 4m-117 0q-40 0-61-20t-22-46q0-28 22-47t61-19q25 0 43 8t29 22v22q-16-17-32-23t-31-7q-24 0-38 12t-14 32q0 19 14 31t38 12q14 0 31-6t32-24v23q-11 13-29 21t-43 9m410-370v345l2 2h38v18q-13 0-26 0t-26 1-26 1l-2-2v-43q-10 18-30 33t-50 15q-30 0-53-15t-37-42-13-62 13-64 37-42 53-15q32 0 51 14t29 33v-157l-3-3h-37v-17q13 0 26-1t25 0 26-2l3 3m-40 287v-75q-14-32-33-46t-40-14q-28 0-47 22t-18 71 18 75 47 27q21 0 40-14t33-46m313 83q-17 0-29-8t-16-22v-125q0-31-11-48t-40-17q-15 0-29 3t-24 12q8 4 11 11t3 14q0 11-7 18t-18 7q-10 0-18-8t-7-20 8-24 22-18 30-11 34-4q24 0 43 6t31 24 12 47v119q0 7 3 14t13 7q7 0 13-5t10-11l14 11q-6 9-13 15t-16 9-19 4m-117 0q-40 0-61-20t-22-46q0-28 22-47t61-19q25 0 43 8t29 22v22q-16-17-32-23t-31-7q-24 0-38 12t-14 32q0 19 14 31t38 12q14 0 31-6t32-24v23q-11 13-29 21t-43 9m435-5h-45v-286q-10 11-27 23t-32 20l-9-16q6-3 18-11t25-19 25-22 17-24h28v335m67 0h-180v-18h65l3-2h45l2 2h65v18m154 5q-25 0-46-9t-35-25-13-35q0-14 8-23t20-8 19 8 8 20q0 7-5 14t-17 12q9 14 27 20t34 6q32 0 50-21t26-58 8-89q0-56-11-85t-27-41-39-11q-30 0-48 20t-18 63 19 63 46 20q24 0 47-15t41-46v27q-13 22-36 38t-56 16q-19 0-38-6t-35-18-26-31-9-44q0-36 17-60t43-35 55-12q22 0 43 7t40 25 28 47 11 75q0 58-15 101t-45 66-71 24m311-5h-45v-286q-9 11-26 23t-32 20l-9-16q6-3 17-11t25-19 25-22 18-24h27v335m68 0h-180v-18h65l2-2h45l3 2h65v18m160 5q-19 0-39-5t-37-14-27-27-10-40q0-26 12-45t29-32 38-20l24 7q-20 8-39 19t-30 28-11 39q0 20 8 33t23 22 29 11 29 4q21 0 40-8t29-21 12-33q0-19-10-32t-27-21-36-16-40-16-36-19-26-28-10-40q0-29 14-49t39-31 54-11q26 0 48 8t38 26 14 45q0 25-14 45t-46 38l-29-5q36-18 51-36t16-40-12-36-30-19-36-6q-30 0-50 15t-20 41q0 19 10 31t27 21 36 16 39 15 37 20 26 29 10 43q0 21-7 37t-19 27-28 17-31 10-32 3" />
</svg>