<svg id="fnt-Bubbler One" viewBox="0 0 2237 1000" xmlns="http://www.w3.org/2000/svg"><path id="bubbler-one" class="f" d="M38 668l0-351q77 2 117 21t39 56-21 55-51 22q40 4 67 28t28 70-46 72-133 27m161-102q0-26-15-43t-39-25q-41-14-88-14v165q40 0 70-9t44-22q28-26 28-52m-23-172q0-28-32-43t-88-15v127q120-2 120-69m91 23h19l-1 132q0 42 20 73t51 31 67-41v-195h18v250h-18v-30q-33 35-71 35-25 0-52-24-15-13-24-39t-9-60l0-132m244 250v-375h19v155q32-36 68-36 27 0 55 25 14 12 23 38t10 59-10 60-26 39-40 22-46 11-53 2m156-129q0-51-19-80t-51-28-67 42v176q137 0 137-110m72 129v-375h19v155q32-36 68-36 27 0 55 25 14 12 23 38t10 59-10 60-26 39-40 22-46 11-53 2m156-129q0-51-19-80t-51-28-67 42v176q137 0 137-110m93-246v375h-19v-375h19m231 357v18q-30 0-53-2t-47-11-40-22-26-39-10-59 9-60 24-38q27-24 52-24 43 0 66 25t24 66q0 27 0 32h-157q0 64 39 89t119 25m-157-133h138v-11q0-33-19-54t-50-21-48 24-21 62m231-38v189h-19v-250h19v36q10-12 32-27t41-14 35 11 15 37h-18q0-14-9-22t-25-8-38 15-33 33m481 17q0 82-28 127t-81 45-84-46-31-128 30-131 85-48q33 0 55 17t34 45q20 53 20 119m-19-9q0-69-23-111t-68-41-70 41-26 118q0 90 41 132 22 23 51 23t48-13 28-36q19-43 19-113m253 181h-19l1-132q0-42-21-74t-50-31-67 42v195h-18v-250h18v30q33-35 71-35 25 0 53 24 14 13 23 38t9 60l0 133m228-18v18q-30 0-53-2t-47-11-40-22-26-39-10-59 9-60 24-38q27-24 52-24 43 0 66 25t24 66q0 27 0 32h-157q0 64 39 89t119 25m-157-133h138v-11q0-33-19-54t-50-21-48 24-21 62" />
</svg>