<svg id="fnt-Buda" viewBox="0 0 978 1000" xmlns="http://www.w3.org/2000/svg"><path id="buda" class="f" d="M170 667h-117v-342h105q55 0 84 21t29 60q0 33-22 56t-51 29q96 6 96 85 0 24-10 42t-26 28-39 16-49 5m-7-166h-81v136h83q51 0 74-16t23-52q0-35-22-52t-77-16m-81-147v134h64q26 0 44-5t29-16 15-21 5-25q0-33-19-50t-65-17h-73m426 102h24v177q0 7 1 10t3 7 8 6 17 1v10h-53v-45q-29 24-51 36t-45 11q-48 0-48-59v-154h25v142q0 30 8 40t27 10q21 0 45-13t39-27v-152m283 211h-54v-46q-1 3-3 6t-7 12-13 14-18 11-25 5q-11 0-22-3t-21-12-19-20-12-31-5-41q0-24 5-42t14-30 19-20 23-10 23-3q13 0 25 3t17 7 11 10 7 7 1 3v-128q0-7 0-10t-3-7-9-6-17-1v-10h54v307q0 7 1 10t3 7 8 5 17 2v11m-113-185q-30 0-45 22t-15 61q0 44 16 67t44 24q13 0 25-8t19-20 11-23 4-19v-57q0-6-4-13t-10-16-19-13-26-5m225-28q19 0 32 3t22 10 12 14 6 18 1 20v148h-22l-2-39q-12 19-34 29t-39 11q-23 0-41-14t-17-42q0-15 6-27t16-20 23-12 29-7 28-3 29-1q0-2-1-22 0-11-2-18t-6-13-15-10-25-3q-28 0-57 12l-4-21 7-3q7-4 22-7t32-3m49 140t0-41q-104 0-104 56 0 19 11 31t31 12q24 0 43-19t19-39" />
</svg>