<svg id="fnt-Bungee Hairline" viewBox="0 0 4936 1000" xmlns="http://www.w3.org/2000/svg"><path id="bungee-hairline" class="f" d="M90 622v-270h102q28 0 42 7t18 19 5 27v32q0 15-5 27t-27 18q28 0 42 8t18 20 5 30v32q0 14-5 26t-18 17-42 7h-135m135-135h-130v130h130q25 0 38-6t17-16 5-23v-32q0-15-4-27t-18-19-38-7m-130-5h97q27 0 40-6t16-17 4-22v-32q0-14-4-25t-18-17-38-6h-97v125m355 78v-208h5v208q0 19 8 33t29 22 58 8q37 0 58-8t29-22 8-33v-208h5v208q0 20-9 35t-30 24-61 9q-39 0-61-9t-31-24-8-35m386-204l184 207v-211h5v270h-5v-52l-189-212q-1-1-2-1t-1 1v264h-5v-265q0-6 6-6 3 0 7 5m544 165h5v101h-99q-37 0-56-7t-27-21-7-37v-140q0-24 6-38t24-21 50-6h86v5h-86q-30 0-46 5t-23 19-6 36v140q0 22 7 35t26 19 52 6h94v-96m180 96h164v5h-169v-270h169v5h-164v125h123v5h-123v130m327 0h164v5h-169v-270h169v5h-164v125h123v5h-123v130m631-265h5v270h-5v-133h-192v133h-5v-270h5v132h192v-132m379 163v107h-5v-86h-195v86h-5v-107q0-14 2-26t7-22l32-82q5-14 12-24t24-9h49q17 0 23 9t13 24l35 82q4 11 6 22t2 26m-200 0v16h195v-16q0-13-2-25t-6-21l-34-82q-6-13-12-22t-20-8h-49q-15 0-21 8t-11 22l-32 82q-3 10-6 21t-2 25m352-158v-5h159v5h-77v260h77v5h-159v-5h77v-260h-77m526 265h-5v-67q0-49-55-49h-142v116h-5v-270h114q30 0 43 16t14 41v34q0 23-6 38t-24 20h6q60 0 60 54v67m-202-265v144h109q31 0 42-15t10-42v-35q0-24-13-38t-39-14h-109m546 161h5v104h-184v-270h5v265h174v-99m151-161v-5h159v5h-76v260h76v5h-159v-5h78v-260h-78m332-1l184 207v-211h5v270h-5v-52l-189-212q-2-1-3-1t-1 1v264h-5v-265q0-6 6-6 3 0 8 5m370 261h163v5h-168v-270h168v5h-163v125h123v5h-123v130" />
</svg>