<svg id="fnt-Bungee Inline" viewBox="0 0 4242 1000" xmlns="http://www.w3.org/2000/svg"><path id="bungee-inline" class="f" d="M245 667h-192q-18 0-18-18v-324q0-18 18-18h159q49 0 73 18t23 58v24q0 42-29 54 32 3 47 22t16 56v46q0 42-24 62t-73 20m-53-315h-102v270h135q28 0 42-7t18-17 5-26v-32q0-17-5-30t-18-20-42-8q22-5 27-18t5-27v-32q0-15-5-27t-18-19-42-7m-97 265v-130h130q26 0 38 7t18 19 4 27v32q0 13-5 23t-17 16-38 6h-130m97-135h-97v-125h97q25 0 38 6t18 17 4 25v32q0 12-4 22t-16 17-40 6m20 41h-65v59h65q19 0 19-20v-20q0-19-19-19m-22-131h-43v54h43q19 0 19-20v-14q0-20-19-20m514-67v247q0 23-7 42t-24 32-47 21-77 7-76-7-48-21-24-32-6-42v-247q0-18 18-18h78q18 0 18 18v228q0 10 8 16t33 7q27 0 34-7t8-16v-228q0-18 18-18h76q18 0 18 18m-249 27h-5v208q0 20 8 35t31 24 61 9q39 0 61-9t30-24 9-35v-208h-5v208q0 19-8 33t-29 22-58 8q-37 0-58-8t-29-22-8-33v-208m408 315h-75q-18 0-18-18v-324q0-18 18-18h52q18 0 30 13l97 111v-106q0-18 18-18h75q18 0 18 18v324q0 18-18 18h-75q-18 0-18-18v-62l-86-103v165q0 18-18 18m157-104l-184-207q-4-5-7-5-6 0-6 6v265h5v-264q0-1 1-1t2 1l189 212v52h5v-270h-5v211m402 104h-158q-63 0-93-25t-30-77v-156q0-52 30-77t93-25h125q18 0 18 18v60q0 18-18 18h-104q-30 0-30 25v120q0 24 23 24h48v-78q0-18 18-18h78q18 0 18 18v155q0 18-18 18m-37-45v-101h-5v96h-94q-34 0-52-6t-26-19-7-35v-140q0-22 6-36t23-19 46-5h86v-5h-86q-32 0-50 6t-24 21-6 38v140q0 23 7 37t27 21 56 7h99m366 45h-232q-18 0-18-18v-324q0-18 18-18h232q18 0 18 18v58q0 18-18 18h-138v39h97q18 0 18 18v53q0 18-18 18h-97v43h138q18 0 18 18v59q0 18-18 18m-27-45v-5h-164v-130h123v-5h-123v-125h164v-5h-169v270h169m354 45h-232q-18 0-18-18v-324q0-18 18-18h232q18 0 18 18v58q0 18-18 18h-138v39h97q18 0 18 18v53q0 18-18 18h-97v43h138q18 0 18 18v59q0 18-18 18m-27-45v-5h-164v-130h123v-5h-123v-125h164v-5h-169v270h169m439 45h-213q-18 0-18-18v-60q0-18 18-18h50v-168h-50q-18 0-18-18v-60q0-18 18-18h213q18 0 18 18v60q0 18-18 18h-48v168h48q18 0 18 18v60q0 18-18 18m-27-315h-159v5h78v260h-78v5h159v-5h-76v-260h76v-5m200 315h-75q-18 0-18-18v-324q0-18 18-18h52q18 0 29 13l97 111v-106q0-18 18-18h75q18 0 18 18v324q0 18-18 18h-75q-18 0-18-18v-62l-85-103v165q0 18-18 18m157-104l-184-207q-5-5-8-5-6 0-6 6v265h5v-264q0-1 1-1t3 1l189 212v52h5v-270h-5v211m399 104h-255q-18 0-18-18v-324q0-18 18-18h78q18 0 18 18v247h68v-81q0-18 18-18h73q18 0 18 18v158q0 18-18 18m-34-45v-104h-5v99h-174v-265h-5v270h184m332 45h-213q-18 0-18-18v-60q0-18 18-18h49v-168h-49q-18 0-18-18v-60q0-18 18-18h213q18 0 18 18v60q0 18-18 18h-49v168h49q18 0 18 18v60q0 18-18 18m-27-315h-159v5h77v260h-77v5h159v-5h-77v-260h77v-5m199 315h-75q-18 0-18-18v-324q0-18 18-18h52q18 0 30 13l97 111v-106q0-18 18-18h75q18 0 18 18v324q0 18-18 18h-75q-18 0-18-18v-62l-86-103v165q0 18-18 18m157-104l-184-207q-4-5-7-5-6 0-6 6v265h5v-264q0-1 1-1t2 1l189 212v52h5v-270h-5v211m377 104h-232q-18 0-18-18v-324q0-18 18-18h232q18 0 18 18v58q0 18-18 18h-138v39h97q18 0 18 18v53q0 18-18 18h-97v43h138q18 0 18 18v59q0 18-18 18m-27-45v-5h-164v-130h123v-5h-123v-125h164v-5h-169v270h169" />
</svg>