<svg id="fnt-Bungee Spice" viewBox="0 0 3819 1000" xmlns="http://www.w3.org/2000/svg"><path id="bungee-spice" class="f" d="M245 667h-192q-18 0-18-18v-324q0-18 18-18h159q49 0 73 18t23 58v24q0 42-29 54 32 3 47 22t16 56v46q0 42-24 62t-73 20m-33-144h-65v59h65q19 0 19-20v-20q0-19-19-19m-22-131h-43v54h43q19 0 19-20v-14q0-20-19-20m514-67v247q0 23-7 42t-24 32-47 21-77 7-76-7-48-21-24-32-6-42v-247q0-18 18-18h78q18 0 18 18v228q0 10 8 16t33 7q27 0 34-7t8-16v-228q0-18 18-18h76q18 0 18 18m159 342h-75q-18 0-18-18v-324q0-18 18-18h52q18 0 30 13l97 111v-106q0-18 18-18h75q18 0 18 18v324q0 18-18 18h-75q-18 0-18-18v-62l-86-103v165q0 18-18 18m559 0h-158q-63 0-93-25t-30-77v-156q0-52 30-77t93-25h125q18 0 18 18v60q0 18-18 18h-104q-30 0-30 25v120q0 24 23 24h48v-78q0-18 18-18h78q18 0 18 18v155q0 18-18 18m329 0h-232q-18 0-18-18v-324q0-18 18-18h232q18 0 18 18v58q0 18-18 18h-138v39h97q18 0 18 18v53q0 18-18 18h-97v43h138q18 0 18 18v59q0 18-18 18m327 0h-232q-18 0-18-18v-324q0-18 18-18h232q18 0 18 18v58q0 18-18 18h-138v39h97q18 0 18 18v53q0 18-18 18h-97v43h138q18 0 18 18v59q0 18-18 18m356 0h-158q-18 0-18-18v-59q0-18 18-18h135q6 0 9-4t4-10q0-9-4-13t-9-4l-75-11q-35-5-57-23t-21-60v-52q0-43 28-66t76-22h140q18 0 18 18v59q0 18-18 18h-117q-13 0-13 15 0 15 13 16l75 10q23 4 41 12t27 26 10 45v53q0 42-28 65t-76 23m254 0h-78q-18 0-18-18v-324q0-18 18-18h153q46 0 71 12t37 34 10 51v64q0 29-10 51t-37 34-71 13h-57v83q0 18-18 18m62-267h-45v76h45q14 0 19-8t4-17v-26q0-10-4-18t-19-7m406 267h-213q-18 0-18-18v-60q0-18 18-18h50v-168h-50q-18 0-18-18v-60q0-18 18-18h213q18 0 18 18v60q0 18-18 18h-48v168h48q18 0 18 18v60q0 18-18 18m319 0h-122q-63 0-93-25t-30-77v-156q0-52 30-77t93-25h122q18 0 18 18v60q0 18-18 18h-100q-31 0-31 25v119q0 24 31 24h100q18 0 18 18v60q0 18-18 18m325 0h-232q-18 0-18-18v-324q0-18 18-18h232q18 0 18 18v58q0 18-18 18h-138v39h97q18 0 18 18v53q0 18-18 18h-97v43h138q18 0 18 18v59q0 18-18 18" />
</svg>