<svg id="fnt-Hahmlet" viewBox="0 0 2153 1000" xmlns="http://www.w3.org/2000/svg"><path id="hahmlet" class="f" d="M125 667h-49v-371h49v371m-49-179v-28q37 2 74 3t74 2 74-2 75-3v28q-37 2-75 3t-74 2-74-2-74-3m297 179h-49v-371h49v371m54 0h-157q-4 0-4-5v-7q0-5 5-5l43-8q6-1 8-4t2-8v-71h49v71q0 6 2 9t8 3l45 8q4 1 4 6v6q0 5-5 5m-248 0h-157q-4 0-4-5v-7q0-5 5-5l43-8q6-1 8-4t2-8v-71h49v71q0 6 2 9t8 3l45 8q4 1 4 6v6q0 5-5 5m87-360v-6q0-5 4-5h157q5 0 5 4v7q0 4-4 6l-45 7q-6 1-8 4t-2 8v71h-49v-70q0-6-2-9t-8-4l-43-7q-5-1-5-6m-248 0v-6q0-5 4-5h157q5 0 5 4v7q0 4-4 6l-45 7q-6 1-8 4t-2 8v71h-49v-70q0-6-2-9t-8-4l-43-7q-5-1-5-6m521 364q-30 0-49-18t-19-45q0-31 22-48t70-22l69-9-1 23-59 8q-30 4-44 14t-13 29q0 16 11 25t29 10q19 0 34-7t25-14 14-13l6 6q-2 8-10 18t-20 20-29 16-36 7m88-85v-83q0-28-15-44t-41-15q-13 0-23 3t-18 11-11 25l-3 17q-2 5-6 5h-6q-5 0-5-5-3-14-6-28t-5-27q-1-4 3-7 13-6 35-14t50-7q45 0 71 22t26 62v85h-46 46v67l-10-16 43 10q5 2 5 6v6q0 5-5 5l-27 3q-22 2-33 1t-15-7-3-18v-26l-1-4v-27m188 81h-46v-285h46v285m132 0v-163q0-24-12-37t-37-13q-21 0-44 11t-43 32l-4-12q12-20 31-35t40-25 41-8q37 0 56 20t18 61v169h-46m-91 0h-117q-4 0-4-5v-5q0-5 5-6l19-4q7-2 9-4t1-9v-57h46v58q0 6 2 8t9 3l31 6q4 0 4 5v5q0 5-5 5m-41-284h-46v-73l9 15-43-7q-4-1-4-6v-6q0-4 5-5l66-10q7-1 10 1t3 8v83m219 284h-117q-4 0-4-5v-5q0-5 5-6l19-4q7-2 9-4t1-9v-57h46v58q0 6 2 8t9 3l31 6q4 0 4 5v5q0 5-5 5m496 0h-123q-5 0-5-5v-5q0-5 5-6l26-4q7-2 9-4t1-9v-130q0-24-11-37t-33-13q-41 0-81 43l-5-12q12-20 30-36t37-24 40-8q34 0 52 20t17 61v137q0 6 2 8t9 3l31 6q4 0 4 5v5q0 5-5 5m-340 0h-112q-4 0-4-5v-5q0-5 5-6l20-4q7-2 8-4t2-9v-125h46v126q0 6 1 8t9 4l26 4q4 2 4 6v5q0 5-5 5m163 0h-111q-4 0-4-5v-5q0-5 5-6l22-4q7-2 8-4t2-9v-130q0-24-11-37t-33-13q-41 0-82 43l-4-12q19-30 48-49t60-19q34 0 51 20t17 61v137q0 6 1 8t9 4l22 4q5 2 5 6v5q0 5-5 5m-198-158h-46v-73l9 15-43-7q-5-1-5-6v-6q0-4 5-5l64-10q7-1 10 1t3 8v50l3 8v25m485 158h-46v-285h46v285m41 0h-117q-5 0-5-5v-5q0-5 5-6l20-4q7-2 8-4t2-9v-57h46v58q0 6 1 8t9 3l31 6q5 0 5 5v5q0 5-5 5m-41-284h-46v-73l9 15-43-7q-5-1-5-6v-6q0-4 5-5l67-10q7-1 10 1t3 8v83m195 288q-33 0-60-16t-43-44-15-69q0-41 16-69t44-42 61-14q28 0 51 13t37 38 14 58q0 2 0 5t0 6q-2 4-6 4h-178v-23h154l-12 11q0-2 0-5t0-4q0-22-8-39t-24-27-33-10q-33 0-52 25t-18 71q0 28 11 51t30 36 43 14q39 0 65-22 3-3 6 1l4 6q3 4 0 8-16 17-39 27t-48 10m246-1q-35 0-52-19t-17-57v-168l1-5v-48q0-5 5-6 5-1 11-2t12-2 12 0q5 0 5 5v225q0 25 11 36t38 11q8 0 16-1t19-4q5-1 5 4l1 7q0 4-4 7-8 5-19 9t-22 6-22 2m63-225h-164q-4 0-3-5l2-10q1-5 6-5l28-4h103l31-2q4 0 4 5 1 4 0 8t-1 9q-1 4-6 4" />
</svg>