<svg id="fnt-Hammersmith One" viewBox="0 0 4321 1000" xmlns="http://www.w3.org/2000/svg"><path id="hammersmith-one" class="f" d="M108 529v139q-24-1-56-1h-8v-326q16 1 22 1h10q19 0 32-2v130h115v-129q20 1 39 1t24-2v328q-12-1-46-1h-17v-138h-115m429 123q-34 18-62 18t-48-5-34-15q-29-21-29-60 0-36 35-59 38-25 102-25l10 0q3 0 6 0t7 1q-2-39-34-46-10-2-22-2t-23 2-22 5q-24 8-34 18l-1-1-7-54q43-22 94-22 80 0 102 57 7 18 7 41v89q0 28 20 38l-44 41q-14-8-23-21m-13-50v-51q-6-2-14-2h-9q-54 0-69 24-4 7-4 15t3 14 9 10q13 7 38 7t46-12q0-2 0-5m202-107v101q0 55 2 71h-64v-255h62v21q34-26 69-26 41 0 60 36 19-20 31-26 21-10 42-10t35 7 25 20q19 26 19 72v97q0 41 1 49t3 11 4 4l-1 1q-19-1-28-1h-19q-9 0-22 0v-132q0-57-18-68-5-3-13-3t-14 2-12 6q-9 6-20 26 0 2 0 4t0 64 3 101q-21 0-35 0t-28 0v-132q0-40-5-52t-10-15-13-4q-32 0-54 31m418 0v101q0 55 2 71h-64v-255h62v21q33-26 68-26 42 0 60 36 19-20 32-26 20-10 41-10t36 7 24 20q19 26 19 72v97q0 41 2 49t3 11 3 4l0 1q-20-1-29-1h-18q-9 0-22 0v-132q0-57-18-68-6-3-14-3t-14 2-11 6q-9 6-21 26 0 2 0 4t0 64 3 101q-20 0-35 0t-28 0v-132q0-40-4-52t-11-15-13-4q-32 0-53 31m339 46q0-28 10-53t27-43q38-38 100-38 52 0 83 34 31 33 31 84 0 19-3 26-24 7-99 7h-86q6 26 30 40t60 15q39 0 67-14 7-4 11-7-1 10-2 21l-2 38q-19 13-60 18-13 1-24 1-62 0-102-36-41-36-41-93m186-31q-10-52-57-52-37 0-56 32-6 10-9 21 6 1 14 1h18q9 0 18 0h14q12 0 24 0l20-1q8 0 14-1m176-21v150q0 21 1 28h-61v-255h60v18q21-23 44-23t36 5l-5 66-1 1q-8-15-35-15-10 0-21 6t-18 19m195 181q-69 0-103-25 0-7 1-16l2-18q2-17 3-22t0-4 4 4 14 10 24 11q29 10 60 10 43 0 43-28 0-9-8-14-15-7-43-11t-46-11-29-18q-20-19-20-50 0-38 29-60 29-21 80-21 51 0 87 28-2 7-4 13-5 16-8 23l-6 14q0 2 0 2-1 0-4-5-16-18-48-23-10-2-21-2-44 0-44 27 0 9 9 14 18 9 48 13t45 12 26 18q17 19 17 51 0 34-27 56-29 22-81 22m231-175v101q0 55 2 71h-64v-255h62v21q33-26 68-26 42 0 61 36 18-20 31-26 21-10 42-10t35 7 24 20q20 26 20 72v97q0 41 1 49t3 11 4 4l-1 1q-19-1-29-1h-18q-9 0-22 0v-132q0-57-18-68-6-3-14-3t-14 2-11 6q-9 6-21 26 1 2 1 4t0 64 3 101q-21 0-36 0t-27 0v-132q0-40-5-52t-10-15-14-4q-32 0-53 31m398-117l-54-39q19-31 40-54l53 41q-11 13-20 26 0 0-19 26m10 34v227q0 21 1 28h-62v-255h61m182 201q31 0 43-16h2l1 56q-12 12-45 16-8 1-22 1t-28-5-26-15q-22-23-22-71v-111h-37q0-7 0-15v-37q0-4 0-4h37v-70h60v70h67v56h-67v99q0 39 21 44 7 2 16 2m161-116v142q0 21 1 28h-60v-349h59v113q32-24 65-24 41 0 66 27 25 27 25 72v97q0 41 1 49t3 11 4 4l-1 1q-19-1-29-1h-17q-8 0-21 0v-141q0-34-15-50-11-12-30-12-29 0-51 33m424 131q-22-21-35-51t-13-65 12-68 34-55 54-39 71-14q67 0 113 42 49 46 49 123 0 75-50 124-32 31-75 42-21 6-49 6t-59-12-52-33m20-120q0 23 8 42t21 33q28 29 73 29 43 0 69-28 26-28 26-78 0-46-25-77-27-33-74-33-46 0-73 33-25 32-25 79m386-12v139q0 22 2 32h-61v-255h59v21q33-26 69-26 40 0 64 27t24 72v97q0 41 1 49t4 11 3 4l0 1q-20-1-29-1h-17q-8 0-21 0v-133q0-71-44-71-32 0-54 33m216 45q0-28 10-53t27-43q39-38 100-38 52 0 84 34 31 33 31 84 0 19-3 26-25 7-100 7h-86q7 26 30 40t60 15q39 0 67-14 7-4 11-7-1 10-1 21l-3 38q-19 13-60 18-12 1-24 1-62 0-102-36-41-36-41-93m187-31q-10-52-57-52-38 0-57 32-6 10-9 21 6 1 14 1h19q9 0 17 0h14q12 0 24 0l20-1q8 0 15-1" />
</svg>