<svg id="fnt-Hanalei" viewBox="0 0 1712 1000" xmlns="http://www.w3.org/2000/svg"><path id="hanalei" class="f" d="M304 511q0 3 1 6t0 6q0 7-1 14t-3 12-4 8-1 4l-2 3q-4 0-8-1t-9 0q-2 0-4 0t-3 1q-1 5-1 10t0 10q0 14 2 27t4 26l1 2-1 2q0 0-3 4t-8 9-15 9-23 4q-13 0-23-4t-15-7-9-8-3-4l-1-3 1-2q4-12 7-27t4-29q-8 2-15 4t-14 5-12 5-11 6l-2 1q-5 0-13 0t-14 0q2 13 4 22t4 13l1 3-1 2q-1 0-3 4t-8 8-15 8-25 4-23-4-15-9-8-8-2-5l-1-2 1-2q6-14 8-28t3-29q0-11-1-21t-4-21v-3q3-12 5-24t2-23q0-14-3-26t-5-25l-1-2 1-2q11-27 11-53 0-11-2-21t-5-22l-1-3 2-2q0-1 3-3t8-6 14-6 20-3q11 0 20 3t14 7 9 7 3 3l2 3-1 3q-4 13-7 26t-2 26q0 10 1 20t5 19v4q-4 11-5 22t-2 22q0 11 1 22t4 24l8-5 4 0q1 0 3 0 1 0 4 1t5 0q9 0 23-3t29-11q0-4 1-9t0-9q0-14-2-27t-5-23v-4q7-23 7-45 0-13-2-25t-7-25l-2-3 2-2q0-1 3-4t8-8 15-8 21-3 22 3 16 8 10 7 4 4l2 3 0 3q-6 14-8 29t-2 28q0 9 1 19t3 19v4q-3 8-5 18t-2 21q1-1 3-2t2-3l3 1q0 0 4 2t9 6 9 11 6 17m-200-171q-1-1-4-3t-7-5-11-3-12-1q-7 0-13 1t-9 3-7 3-4 3q3 11 5 22t1 21q0 11-2 23t-6 23q6-2 12-3t10 0q13 0 20 1t10 4q3 3 3 5 0 2-2 4t-4 1q0 0-1 0t-3-2-7-1-12-1q-6 0-13 1t-15 5q3 11 5 23t2 24q0 10-1 21t-4 21q4 0 7-1t8 0q5 0 13 1t13 2 12 3 4 4q0 2-2 4t-3 1q-6 0-13-2t-15-1q-7 0-13 0t-12 2q2 10 3 20t1 19q0 29-10 58 1 1 3 4t6 5 11 5 15 2 16-2 11-4 7-5 4-4q-8-26-8-51 0-13 2-27t7-26q-4-13-6-25t-2-26q0-12 2-25t6-27q-7-20-7-41 0-26 9-53m159 98q-2-10-4-20t-1-20q0-14 2-29t8-29q-2-1-6-4t-9-5-11-4-15-2q-8 0-14 2t-10 4-6 4-5 5q5 12 8 25t2 26q0 9-1 19t-4 19q4-2 9-2t9 0q5 0 11 0t12 2 10 4 4 5q0 2-2 3t-3 2q-6 0-13-3t-15-2q-6 0-12 1t-11 3q2 10 3 21t2 23q0 4 0 7t-1 8l2-2h5q12 0 24-3t23-9q1-13 3-26t6-23m-132 153q21-12 41-17t39-5q18-10 36-14t40-4q2-4 4-12t2-16q0-9-2-15t-5-10-6-7-5-3q-18 12-33 17t-30 6q3 6 5 13t1 13q0 3 0 7t-2 7-2 6-4 2q-2 0-3-1t-1-3q0-3 1-7t1-7q0-7-2-14t-6-13q-16 10-33 14t-34 5q3 6 4 13t1 15q0 3 0 7t-1 7-2 5-4 3-4-1-1-3q0-3 1-6t1-8q0-8-2-16t-7-14q0 1-2 1t-3 2v1q-5 12-6 25t-2 24v4q6-1 13-1t12 0m85-10l-4 1q-2-1-4-1t-4 0q-2 0-3 0t-3 1q0 14-3 30t-7 28q1 1 4 4t8 5 11 4 15 1 15-2 11-5 7-5 4-5q-3-11-5-24t-1-27q0-11 1-21-11 1-22 5t-20 11m351-42q1 8 1 15 0 8-1 14t-3 10-4 7-2 3l-2 2-3 0q-3-1-7-1t-7 0q4 12 9 23t11 22l3 4-3 4q0 0-3 2t-7 6-12 6-16 6q-5 1-10 2t-9 0q-6 0-11-1t-9-2-6-2-2-1l-4-2 1-4q0-3 0-6t0-6q0-17-2-34-1 1-2 1l-4 1q-15 0-31 2t-32 7v8q0 10 1 21l1 2-2 2q0 0-2 3t-7 5-12 5-17 3q-19 0-31-6t-17-13q-7-8-10-18l0-2 1-2q13-19 19-41t6-46v-9l1-3q9-19 14-38t4-38q0-5 0-10t-1-9l0-3 1-2q24-36 24-77 0-4 0-8t-1-8v-3l2-2q0-1 3-2t6-4 10-3 14-1q15 0 26 4t17 10 10 11 3 5l1 3-1 3q-1 1-1 1h3q11 0 17 2t7 1l3 2-1 4q0 3 0 5t0 6q0 44 20 80l1 3v6q0 13 1 25t4 22q5-2 10-5t9-4l2-2 4 1q0 0 3 2t7 7 8 11 7 18m-117-188q-1-2-4-6t-9-7-13-5-17-3q-9 0-14 2t-8 3q0 4 0 7t0 7q0 20-5 38t-14 35q2 0 4 0t3 0q10 0 17 1t13 5 9 4 4 3q2 1 2 4 0 2-2 4t-4 1q-1 0-2-1 0-1-3-2t-7-3-11-3-14-1q-6 0-14 1 0 4 1 7t0 6q0 39-17 75 7 1 17 2t17 5 15 6 6 7q0 2-2 3t-3 1q-1 0-1 0t-2 0q-9-5-22-8t-27-3q0 27-7 50t-19 44q1 1 3 5t8 8 13 8 21 3q12 0 18-4t9-5q-1-5-1-10t0-10q0-22 5-42t17-40q-2-10-2-20 0-20 6-40t15-41q0-3 0-6t0-6q0-21 5-40t16-39m12 245q17-9 36-14t39-5q3 0 7 0t7 1q1-3 4-9t2-14q0-9-2-17t-6-12-6-8-5-4q-34 19-72 19-3 0-5 0t-6 0q6 10 8 20t2 16q0 6-1 9t-1 5-2 2-3 0q-1 0-3-1t-1-3v-7q0-3 0-7t-2-10-4-11-6-12q-3 2-9 4t-11 4q0 1 0 1t0 0l1 2-2 2q-8 14-13 28t-7 29q16-5 32-6t29-2m28-136v0q0 2-2 3t-3 1q-1 0-1 0-1 0-1 0t-2 0q-4 0-13 2t-18 9q-1 0-1 0t-1 0q11 24 16 46h1q22 0 41-6-3-13-5-27t-1-29q-21-39-21-83 0-2 0-4t0-5q-1 0-4-1t-7 0q-3 0-6 0t-6 1q-8 16-12 32t-3 32q0 3 0 6t0 6l1 1-1 2q0 0 0 0h-1q2 6 4 11t1 7q10-6 18-8t14-1q9 0 11 1t2 4m-10 141q2 9 3 18t0 19v10q3 2 8 3t12 1q8 0 15-2t13-4 10-5 5-5q-6-11-11-23t-8-23q-13 0-24 3t-23 8m-45-124l-3-12q-6 15-8 29t-3 29v6q10-3 20-8l4-1q2 0 3 0t3 1q-2-11-6-22t-10-22m408-141l2 3-1 3q-5 13-7 26t-3 26q0 10 2 20t4 19v4q-7 26-7 50 0 13 2 25t6 24v4q-5 12-7 25t-3 26q0 25 9 49l1 3-1 2q0 0-3 4t-8 8-15 8-24 4q-11 0-20-3t-14-6h-2q-7 0-12-1t-8-3-6-3-2-2l-2-2v-2q-1-25-10-48t-26-45l-1-2q-3-17-8-32t-13-28q0 12 2 22t6 22l1 2-1 2q-5 12-7 25t-2 25q0 13 2 25t6 25l1 3-1 2q0 0-2 4t-8 8-16 8-24 4-24-4-14-9-8-8-2-5l-1-2 1-2q5-14 8-28t3-29q0-11-1-21t-4-21v-3q3-12 5-24t1-23q0-14-2-26t-6-25l0-2 1-2q10-27 10-53 0-11-1-21t-5-22l-1-3 2-2q0-1 3-3t8-7 14-5 19-3q11 0 19 3t14 6h4q10 0 16 2t7 3l3 1 0 3q6 50 35 85l2 1v2q6 40 25 69v-1q0-13-2-25t-6-26v-4q11-27 11-54 0-21-6-42l-1-3 2-2q0-1 3-3t8-7 14-5 19-3 20 3 15 7 9 7 3 3m-179 5q-1-1-4-3t-8-5-10-3-13-1q-6 0-12 1t-9 3-7 3-4 3q3 11 4 22t2 21q0 11-2 23t-6 23q6-2 11-3t11 0q13 0 20 1t9 4q4 3 3 5 0 2-1 4t-4 1q0 0-1-1t-3-1-7-1-12-1q-6 0-13 1t-15 5q3 11 5 23t2 24q0 10-1 21t-4 21q4 0 8-1t7 0q6 0 13 1t14 2 10 3 5 4q0 2-2 4t-3 1q-6 0-13-2t-17-1q-5 0-11 0t-12 2q2 10 3 20t1 19q0 15-3 29t-8 29q1 1 4 4t6 5 11 5 15 2 16-2 11-4 7-5 4-4q-9-26-9-51 0-13 3-27t7-26q-4-13-6-25t-2-26q0-25 7-52-6-20-6-41 0-26 9-53m14-2h0l-1 3q-5 13-7 26t-2 26q0 10 1 20t4 19v1q6-2 11-4t9-2 6 0 3 0q2 0 3 1t2 4-2 3-3 2q-1 0-3 0t-8 2-10 4-11 6q-1 5-2 11t-2 10q12 15 19 32t12 38q6-4 13-7t14-6 13-4 11-2q2 0 4 1t1 3q0 2-1 4t-3 2q-10 1-23 7t-24 13q16 22 24 44t10 47q2 2 7 3t11 2q14 0 24-5t15-12 8-12 3-6q-38-41-43-95-18-18-28-41t-16-51q-15-18-24-40t-13-47q-1 0-1 0t-1 0m140 202v1q-1 3-5 3-5 0-13-2t-15-1h-8q5 18 14 34t23 31l2 1v3q0 0 0 5t-4 10-11 14-20 14l-4 2q3 0 6 0t7 1q9 0 16-2t11-4 7-5 3-4q-4-13-6-26t-2-25q0-28 9-53-4-12-6-25t-2-25q0-25 8-53-6-20-6-41 0-26 9-53-2-1-5-3t-7-5-10-3-13-1-12 1-10 3-6 3-5 3q6 21 6 42 0 25-7 47 5-2 11-3t10 0q14 0 21 1t9 4 3 4 0 1q0 2-2 4t-3 1q-1 0-1-1t-3-1-7-1-12-1q-6 0-13 1t-15 5q3 11 5 23t1 23q0 5 0 9t-1 9l6 6 2 3q0 7 2 15 6 0 14 1t14 2 11 3 4 5m302-2q1 8 1 15 0 8-1 14t-3 10-4 7-2 3l-2 2-3 0q-3-1-7-1t-7 0q4 12 9 23t11 22l3 4-3 4q0 0-3 2t-7 6-12 6-17 6q-4 1-9 2t-9 0q-6 0-11-1t-9-2-6-2-2-1l-4-2 1-4q0-3 0-6t0-6q0-17-3-34 0 1-1 1l-4 1q-15 0-31 2t-32 7v8q0 10 1 21l1 2-2 2q0 0-2 3t-7 5-12 5-17 3q-19 0-31-6t-17-13q-7-8-10-18l0-2 1-2q13-19 19-41t6-46v-9l1-3q9-19 14-38t4-38q0-5 0-10t-1-9l0-3 1-2q24-36 24-77 0-4 0-8t-1-8v-3l2-2q0-1 3-2t6-4 10-3 14-1q15 0 26 4t17 10 10 11 3 5l1 3-1 3q-1 1-1 1h3q11 0 17 2t7 1l3 2-1 4q0 3 0 5t0 6q0 44 20 80l1 3v6q0 13 1 25t4 22q5-2 10-5t9-4l2-2 3 1q1 0 4 2t7 7 8 11 7 18m-117-188q-1-2-4-6t-9-7-13-5-17-3q-9 0-14 2t-8 3q0 4 0 7t0 7q0 20-5 38t-14 35q2 0 4 0t3 0q10 0 17 1t13 5 9 4 4 3q2 1 2 4 0 2-2 4t-4 1q-1 0-2-1 0-1-3-2t-7-3-11-3-14-1q-6 0-14 1 0 4 1 7t0 6q0 39-17 75 7 1 17 2t17 5 15 6 6 7q0 2-2 3t-3 1q-1 0-1 0t-2 0q-9-5-22-8t-27-3q0 27-7 50t-19 44q1 1 3 5t8 8 13 8 21 3q12 0 18-4t9-5q-1-5-1-10t0-10q0-22 5-42t17-40q-2-10-2-20 0-20 6-40t15-41q0-3 0-6t0-6q0-21 5-40t16-39m12 245q17-9 36-14t39-5q3 0 7 0t7 1q1-3 4-9t2-14q0-9-2-17t-6-12-6-8-5-4q-34 19-72 19-3 0-5 0t-6 0q6 10 8 20t2 16q0 6-1 9t-1 5-2 2-3 0q-1 0-3-1t-1-3v-7q0-3 0-7t-2-10-4-11-6-12q-3 2-9 4t-11 4q0 1 0 1t0 0l1 2-2 2q-8 14-13 28t-7 29q16-5 32-6t29-2m28-136v0q-1 2-2 3t-3 1q-1 0-1 0-1 0-1 0t-2 0q-4 0-13 2t-18 9q-1 0-1 0t-1 0q11 24 16 46h1q22 0 41-6-3-13-5-27t-1-29q-22-39-22-83 0-2 1-4t0-5q-1 0-4-1t-7 0q-3 0-6 0t-6 1q-8 16-12 32t-3 32q0 3 0 6t0 6l1 1-1 2q0 0 0 0h-1q2 6 4 11t1 7q10-6 18-8t14-1q9 0 11 1t2 4m-10 141q2 9 3 18t0 19v10q3 2 8 3t12 1q8 0 15-2t13-4 10-5 5-5q-6-11-11-23t-8-23q-13 0-24 3t-23 8m-45-124l-3-12q-6 15-8 29t-3 29v6q10-3 20-8l4-1q2 0 3 0t3 1q-2-11-6-22t-10-22m369 142q0 11-3 19t-7 14-7 9-3 3l-3 2-3-1q-26-9-51-9-20 0-40 6h-4q-5-1-10-3t-12-2q-6 4-15 7t-23 4q-14 0-24-4t-14-9-8-8-2-5l-1-2 1-2q5-14 8-28t3-29q0-11-1-21t-4-21v-3q3-12 5-24t1-23q0-14-2-26t-6-25l0-2 1-2q10-27 10-53 0-11-1-21t-5-22l-1-3 2-2q0-1 3-3t8-6 14-6 19-3q12 0 21 3t14 7 9 7 3 3l2 3-1 3q-5 13-7 26t-2 26q0 10 1 20t4 19v4q-7 26-7 51 0 12 2 24t6 24l1 2-1 2q-4 8-6 17t-3 18q3 0 5-1t5-1q3 0 5 0l2-1 2 1q13 5 27 7t26 3q11 0 22-2t21-5l4-1 2 2q1 0 3 3t6 8 6 13 3 19m-140-279q-1-1-4-3t-8-5-10-3-13-1q-6 0-12 1t-9 3-7 3-4 3q3 11 4 22t2 21q0 11-2 23t-6 23q6-2 11-3t11 0q13 0 20 1t9 4q4 3 3 5 0 2-1 4t-4 1q0 0-1 0t-3-2-7-1-12-1q-6 0-13 1t-15 5q3 11 5 23t2 24q0 10-2 21t-3 21q4 0 7-1t7 0q6 0 13 1t14 2 11 3 5 4q0 2-2 4t-3 1q-6 0-13-2t-16-1q-6 0-12 0t-12 2q2 10 3 20t1 19q0 29-11 58 1 1 4 4t6 5 11 5 15 2 16-2 11-4 7-5 4-4q-9-26-9-51 0-13 3-27t7-26q-4-13-6-25t-2-26q0-12 2-25t5-27q-6-20-6-41 0-26 9-53m9 299l1 3-1 2q0 0 0 1t-2 2l14 3q10-3 20-4t21-1q13 0 26 2t27 6q1-2 3-5t4-7 4-10 1-12q0-7-1-12t-3-9-3-7-3-4q-22 6-44 6-11 0-23-1t-22-5q2 6 2 11t1 10q0 13-2 19t-3 9-4 3-1 0q-2 0-4-2t-1-3q0-1 0-2t2-2 1-7 0-11q0-6-1-13t-4-14q-4 0-7 0t-6 2v2q0 13 2 25t6 25m318-145q0 11-3 19t-6 14-7 9-3 3l-3 2-3-1q-14-5-24-7t-21-2q-7 0-15 1l2 3 1 2-1 2q-6 17-8 33 4-1 8-2t10-1 7 0 3-1l2 0 2 1q14 5 24 8t20 3q6 0 14-1t19-4l3-1 2 2q0 0 3 3t5 7 6 14 2 19q0 11-3 19t-7 13-7 9-3 3l-3 1-3-1q-15-5-24-7t-19-3q-6 0-13 1t-16 4h-3q-7-2-14-3t-13-3q-3 2-7 5t-9 6-13 4-16 2q-14 0-24-4t-15-9-7-9-2-4l-1-2 1-3q5-13 8-28t3-28q0-11-2-21t-3-22v-3q3-12 4-24t2-23q0-13-2-25t-6-25l0-2 1-2q5-13 8-27t2-26q0-11-1-22t-5-21l-1-3 2-3q0 0 3-3t8-6 13-6 20-2q13 0 23 3t15 8q7-1 15-2t15-4l2-1 3 0q11 4 20 6t17 2q8 0 17-3t22-6l3-1 3 1q0 0 3 3t6 7 7 13 4 19v4q0 10-3 17t-5 13-6 8-3 3l-2 2-4-1q-12-3-20-4t-15-1q-9 0-17 2t-19 5l-4 1q-10-2-19-3t-19-1q0 6 2 13t3 14v3q-1 5-2 9t-2 9q7 2 14 2t13 1q9 0 18-1t20-5l3-1 3 2q0 0 3 2t6 8 6 13 2 19m-93-153q-2-2-4-4t-8-4-10-3-13-2q-7 0-12 1t-9 3-7 4-4 3q3 11 4 21t2 22q0 23-8 46 6-2 12-3t10 0q13 0 20 1t9 4q4 2 3 5 0 2-1 3t-4 2q0 0-1-1t-3-1-7-2-12 0q-6 0-13 1t-15 4q3 12 5 24t2 24q0 10-2 21t-3 21q3-1 7-1t7 0q6 0 13 0t14 2 11 3 5 5-2 3-5 2q-5-2-13-3t-15-1q-5 0-12 1t-11 1q2 10 3 20t1 19q0 30-11 58 1 2 4 5t6 5 11 4 15 2 16-2 11-4 7-4 4-5q-4-13-7-25t-2-25q0-14 3-27t7-27q-4-12-6-25t-2-25q0-13 2-26t5-26q-6-20-6-41 0-27 9-53m13-4l1 1-1 3q-5 14-7 27t-2 25v1q9 0 19 1t20 3q12-5 21-6t17-2q8 0 16 1t20 4q1-1 3-4t4-7 2-8 2-12q0-7-2-12t-3-10-5-7-3-4q-13 4-22 6t-17 2q-6 0-14-1t-16-3q2 6 3 13t2 12q0 11-2 17t-3 7-3 3-1 0q-2 0-4-2t-1-3q0-1 0-1t1-3 1-5 0-8q0-7-1-15t-6-16q-5 0-10 1t-9 2m-12 247v6q0 13 2 25t6 25v1q6 1 12 2t12 3q9-2 16-3t14-1q5 0 10 0t10 2 11 3 13 4q1-1 3-4t5-7 4-11 1-12q0-12-3-20t-7-10q-10 2-17 3t-14 2q-9 0-17-2t-21-6q2 5 2 10t1 9q0 13-2 19t-4 10-4 3-1 0q-3 0-4-2t-1-3q0 0 0-1t2-4 1-7 1-12q0-5-1-11t-4-14q-7 0-14 1t-12 2m22-65q10 0 21 2t24 6q2-1 4-4t4-7 4-10 1-12q0-7-1-12t-3-9-4-6-3-4q-11 3-19 4t-17 2q-8 0-15-1t-16-3q-1 5-1 11t0 11q0 9 0 17t3 17q9-2 18-2m234-184l2 3-1 3q-5 13-7 26t-2 26q0 10 1 20t4 19v4q-7 26-7 51 0 12 2 24t6 24l1 2-1 2q-5 12-7 25t-2 25q0 13 2 25t6 25l1 3-1 2q0 0-2 4t-8 8-16 8-24 4-24-4-14-9-8-8-2-5l-1-2 1-2q5-14 8-28t3-29q0-11-1-21t-4-21v-3q3-12 5-24t1-23q0-14-2-26t-6-25l0-2 1-2q10-27 10-53 0-11-1-21t-5-22l-1-3 2-2q0-1 3-3t8-6 14-6 19-3q12 0 21 3t14 7 9 7 3 3m-12 5q-1-1-4-3t-8-5-10-3-13-1q-6 0-12 1t-9 3-7 3-4 3q3 11 4 22t2 21q0 11-2 23t-6 23q6-2 11-3t11 0q13 0 20 1t9 4q4 3 3 5 0 2-1 4t-4 1q0 0-1 0t-3-2-7-1-12-1q-6 0-13 1t-15 5q3 11 5 23t2 24q0 10-2 21t-3 21q4 0 7-1t7 0q6 0 13 1t14 2 11 3 5 4q0 2-2 4t-3 1q-6 0-13-2t-16-1q-6 0-12 0t-12 2q2 10 3 20t1 19q0 29-11 58 1 1 4 4t6 5 11 5 15 2 16-2 11-4 7-5 4-4q-9-26-9-51 0-13 3-27t7-26q-4-13-6-25t-2-26q0-12 2-25t5-27q-6-20-6-41 0-26 9-53" />
</svg>