<svg id="fnt-Hanken Grotesk" viewBox="0 0 3576 1000" xmlns="http://www.w3.org/2000/svg"><path id="hanken-grotesk" class="f" d="M84 667h-44v-349h44v150h172v-150h44v349h-44v-158h-172v158m492 0h-39l-3-50v-105q0-28-16-44t-46-15q-20 0-38 8t-34 28l-30-26q20-24 47-36t58-11q48 0 75 25t26 71v155m-120 4q-28 0-49-10t-32-27-11-41q0-20 8-35t21-22q13-8 30-12t35-3h80v32h-74q-11 0-23 2t-21 9q-6 5-10 12t-4 18q0 19 15 31t39 11q20 0 37-9t27-27 10-37l18 18q-3 26-16 47t-34 31-46 12m232-4h-43v-247h43v53l-10 3q7-19 19-32t29-21 37-7q41 0 64 24t23 70v157h-43v-141q0-38-14-56t-41-17q-21 0-35 9t-22 30-7 52v123m449 0h-50l-82-127-49 52v-55l114-117h54l-88 91 101 156m-176 0h-42v-349h42v349m315 4q-29 0-51-10t-36-27-22-41-7-48 7-49 21-41 35-28 49-11q28 0 49 10t34 27 20 38 6 43q0 2 0 9t-1 13h-178q2 36 21 56t53 20q22 0 38-7t30-22l29 26q-13 14-28 23t-32 14-37 5m77-146l-14 10q1-4 1-8t1-8q0-12-5-24t-12-22-21-16-30-5q-22 0-37 10t-24 26-10 37h151m131 142h-42v-247h42v53l-10 3q7-19 19-32t29-21 38-7q40 0 63 24t23 70v157h-42v-141q0-38-14-56t-42-17q-20 0-35 9t-21 30-8 52v123m509 6q-47 0-83-23t-56-63-20-95 20-94 57-63 84-23q53 0 91 26t56 72l-41 16q-13-34-40-53t-66-19q-35 0-62 17t-41 48-14 73 14 74 41 48 62 17q18 0 37-5t35-18 26-34 10-55v-26l10 30h-98v-39h127v183h-39l-6-68 7 5q-9 24-26 39t-39 22-46 8m260-6h-42v-247h42v66l-11 3q4-22 17-39t31-25 35-9q11 0 22 3t21 8l-21 38q-6-3-14-5t-16-2q-12 0-24 5t-21 14-14 25q-2 7-4 18t-1 31v116m256 4q-35 0-62-17t-43-45-15-66 15-66 42-45 63-16 61 16 43 45 15 66-15 66-43 45-61 17m0-38q23 0 40-11t27-32 10-47q0-27-10-48t-27-31-40-11q-24 0-42 11t-27 32-9 47q0 27 9 47t27 32 42 11m256 38q-17 0-32-7t-22-22-8-38v-250l43-24v263q0 20 7 31t23 12q5 0 12-2t15-3v33q-9 4-19 5t-19 2m38-218h-151v-33h151v33m152 218q-29 0-51-10t-36-27-21-41-7-48 7-49 20-41 35-28 49-11q29 0 49 10t34 27 20 38 7 43q0 2-1 9t-1 13h-177q1 36 21 56t53 20q21 0 37-7t30-22l30 26q-14 14-29 23t-32 14-37 5m78-146l-14 10q1-4 1-8t0-8q0-12-4-24t-13-22-21-16-30-5q-21 0-37 10t-24 26-10 37h152m170 146q-25 0-45-8t-35-20-22-26l29-25q10 19 28 31t45 12q24 0 38-10t14-27q0-14-9-22t-22-13-31-9q-14-3-28-8t-26-13-18-19-7-30q0-30 23-49t63-19q28 0 51 12t36 35l-27 20q-10-17-26-25t-36-8-32 8-13 22q0 11 6 17t17 11 29 9q16 3 32 8t29 13 22 21 8 35q0 23-11 40t-33 27-49 10m372-4h-51l-82-127-48 52v-55l113-117h55l-89 91 102 156m-176 0h-43v-349h43v349" />
</svg>