<svg id="fnt-Happy Monkey" viewBox="0 0 3739 1000" xmlns="http://www.w3.org/2000/svg"><path id="happy-monkey" class="f" d="M37 653v-323q0-13 19-13 7 0 12 3t6 10v122h212v-122q0-13 19-13 7 0 12 3t6 10v323q0 6-6 10t-13 4q-18 0-18-14v-164h-212v164q0 6-6 10t-13 4q-18 0-18-14m341-77q0-67 53-116t119-48q45 0 77 34t32 79l0 131q0 6-7 10t-13 4q-17 0-17-14v-85q-40 53-77 76t-76 24q-36 0-63-30t-28-65m36 1q0 28 20 43t43 15q26 0 59-26t56-58 22-49q0-15-9-27t-21-17-23-9-18-2q-49 0-89 39t-40 91m301 201v-347q0-7 6-11t13-3q18 0 18 14v54q48-72 141-72 42 0 72 28t30 66q0 45-25 82t-64 58-82 20q-41 0-72-27v138q0 14-19 14-7 0-13-4t-5-10m37-210q0 31 24 46t48 16q29 0 59-14t51-42 22-61q0-34-22-49t-51-15q-28 0-59 19t-52 47-20 53m292 210v-347q0-7 5-11t13-3q19 0 19 14v54q47-72 140-72 43 0 72 28t30 66q0 45-24 82t-64 58-82 20q-42 0-72-27v138q0 14-19 14-8 0-13-4t-5-10m36-210q0 31 24 46t49 16q29 0 59-14t51-42 21-61q0-34-21-49t-51-15q-28 0-60 19t-51 47-21 53m289-3v-135q0-7 5-11t13-3q18 0 18 14v130q0 19 10 33t25 22 30 11 28 4q35 0 67-22t44-58v-120q0-14 19-14 8 0 13 4t5 10v239q0 30-13 54t-34 40-46 23-48 8q-41 0-81-19t-39-51q0-8 5-12t13-4q8 0 14 4t6 12q0 16 28 24t56 9q23 0 45-8t40-29 17-47v-58q-45 52-116 52-49 0-86-29t-38-73m464 88v-323q0-6 8-11t17-4q11 0 14 6l118 175 119-175q3-6 12-6t18 5 8 10v323q0 6-5 10t-13 4q-19 0-19-14v-269l-91 132q-12 18-29 18-16 0-29-18l-91-132v269q0 6-5 10t-13 4q-19 0-19-14m370-110q0-43 22-75t55-45 68-14q50 0 92 38t43 95q0 55-38 93t-98 39q-59 0-102-39t-42-92m37 0q0 36 32 65t76 29q40 0 69-29t29-66q0-35-28-65t-71-31q-51 0-79 31t-28 66m292 111v-224q0-6 5-10t13-3q19 0 19 13v40q25-27 60-43t72-16q47 0 79 29t32 77q0 4-1 45t0 91q0 6-5 10t-13 4q-19 0-19-14v-132q0-35-25-54t-52-19q-37 0-75 24t-53 61v121q0 13-19 13-8 0-13-3t-5-10m336-1v-348q0-13 19-13 8 0 13 3t5 10v214l172-99q5-3 10-3 8 0 12 7t5 15q0 8-4 10l-112 65 154 127q2 4 2 7 0 9-10 15-6 4-13 4-7 0-11-6l-157-127-48 27v92q0 6-5 10t-13 4q-19 0-19-14m287-118q0-32 14-57t37-40 49-22 54-7q49 0 76 21t27 53q0 33-31 57t-90 23q-52 0-99-15 6 37 35 62t71 25q23 0 47-7t38-20q2-4 8-4 7 0 15 6t8 13q-12 26-49 37t-70 12q-61 0-101-40t-39-97m39-25q38 16 93 16 44 0 66-14t23-30q0-15-19-26t-56-10q-40 0-67 18t-40 46m267 55v-135q0-7 5-11t12-3q19 0 19 14v130q0 19 10 33t25 22 30 11 27 4q36 0 67-22t45-58v-120q0-14 19-14 7 0 12 4t6 10v239q0 30-14 54t-34 40-45 23-49 8q-41 0-80-19t-40-51q0-8 5-12t13-4q8 0 14 4t6 12q0 16 29 24t56 9q22 0 44-8t40-29 18-47v-58q-46 52-116 52-49 0-87-29t-37-73" />
</svg>