<svg id="fnt-Hedvig Letters Serif" viewBox="0 0 4628 1000" xmlns="http://www.w3.org/2000/svg"><path id="hedvig-letters-serif" class="f" d="M402 667h-147v-15l21-2q12-2 18-6t9-11 2-17v-248q0-11-2-18t-9-11-18-5l-21-2v-15h147v15l-20 2q-12 1-19 5t-9 11-2 18v248q0 10 2 17t9 11 19 6l20 2v15m-240 0h-147v-15l21-2q12-2 18-6t9-11 2-17v-248q0-11-2-18t-9-11-18-5l-21-2v-15h147v15l-20 2q-12 1-19 5t-9 11-2 18v248q0 10 2 17t9 11 19 6l20 2v15m160-175h-232v-20h232v20m237 180q-37 0-65-18t-44-46-15-67q0-40 18-72t48-49 66-18q39 0 63 22t24 66q0 3 0 6t-1 9l-1 7h-179v-19h132q1-10 1-19 0-25-13-39t-37-14q-34 0-55 27t-20 71q0 33 12 60t35 42 54 15q17 0 34-6t35-20l10 10q-24 27-49 39t-53 13m251 0q-34 0-60-17t-42-45-14-66q0-41 17-73t49-51 68-18q18 0 35 4t34 14v-86q0-16-7-23t-32-10v-12l77-22h7v337q0 15 7 22t33 10v14l-77 18h-7v-35h-4q-14 15-29 24t-28 11-27 4m24-33q15 0 31-6t32-21v-116q0-27-11-43t-27-25-34-7q-41 0-63 26t-21 75q0 35 11 62t33 41 49 14m307 32h-25l-83-210q-8-21-16-29t-19-9l-10-1v-15h122v15l-11 1q-15 1-20 12t0 26l68 181h-13l69-181q7-19 2-28t-23-10l-11-1v-15h105v15q-21 3-31 11t-18 28l-86 210m266-4h-125v-15l15-3q15-2 20-8t5-21v-149q0-16-7-23t-32-10v-12l77-22h7v216q0 15 5 21t20 8l15 3v15m-67-302q-13 0-21-8t-9-21 9-21 21-8q12 0 20 8t9 21-9 21-20 8m182 430q-42 0-68-17t-26-44q0-10 6-24t23-30l27-27 19 3q-17 19-26 32t-9 27q0 22 21 34t60 12q42 0 66-16t24-42q0-17-11-24t-40-10l-97-7q-23-2-37-12t-14-25q0-13 9-21t23-22l15-15h22l-15 17q-7 8-10 12t-2 8q0 6 5 10t18 5l95 8q64 5 64 58 0 31-19 56t-51 39-72 15m10-216q-28 0-50-12t-35-31-12-45q0-26 12-46t36-32 51-11l20 1q34 6 55 29t22 57q0 26-13 46t-35 32-51 12m5-20q24 0 37-16t13-47q0-23-7-40t-20-26-31-9q-24 0-37 16t-13 47q0 23 7 40t20 26 31 9m130-150h-133v-7l124-24h9v31m401 162l-13 99q-16-2-35-3t-37 0h-188v-15l20-2q17-2 23-9t7-25v-248q0-18-7-25t-23-9l-20-2v-15h152v15l-26 2q-16 1-23 8t-6 26v248q0 13 4 20t19 9 40 3q31 0 49-7t30-23 18-47h16m144 101q-37 0-65-18t-43-46-15-67q0-40 17-72t48-49 66-18q40 0 64 22t24 66q0 3 0 6t-1 9l-1 7h-180v-19h132q2-10 2-19 0-25-13-39t-38-14q-33 0-54 27t-21 71q0 33 12 60t35 42 54 15q18 0 34-6t35-20l10 10q-24 27-48 39t-54 13m228 0q-31 0-50-16t-18-52v-167h-32v-15q39-22 62-57h15v41 14 170q0 20 7 30t17 13 25 3q17 0 29-5t24-11l9 10q-16 16-38 29t-50 13m69-235h-114v-30h127v7l-13 23m126 235q-31 0-49-16t-19-52v-167h-31v-15q39-22 62-57h15v41 14 170q0 20 6 30t18 13 24 3q17 0 30-5t23-11l9 10q-15 16-37 29t-51 13m69-235h-113v-30h126v7l-13 23m158 235q-37 0-65-18t-44-46-15-67q0-40 18-72t48-49 66-18q39 0 63 22t24 66q0 3 0 6t-1 9l-1 7h-179v-19h132q1-10 1-19 0-25-13-39t-37-14q-34 0-55 27t-20 71q0 33 12 60t35 42 54 15q17 0 34-6t35-20l10 10q-24 27-49 39t-53 13m263-5h-135v-15l15-3q15-2 20-8t5-21v-149q0-17-8-24t-31-9v-12l75-22h7v40h5q12-18 30-30t42-11q18 0 27 7t10 20q0 8-7 14t-14 9-17-2l-24-14q-6-4-14 1t-17 11-14 14-5 8v149q0 15 5 21t20 8l25 3v15m162 5q-19 0-41-5t-34-12v-67h14q6 35 24 50t43 15q23 0 36-12t13-31q0-18-10-28t-28-18l-36-19q-32-17-42-34t-11-34q0-23 12-40t34-26 49-9q19 0 35 4t29 10v58h-14q-3-15-10-27t-19-19-30-8q-22 0-34 12t-12 28q0 14 8 25t29 21l33 17q28 14 42 29t15 40q0 26-14 43t-35 27-46 10m344 0q-23 0-45-6t-46-20v-84h15q4 43 27 66t59 23q33 0 53-18t20-46q0-20-12-35t-39-30l-56-30q-34-19-49-39t-15-45q0-28 16-50t42-34 61-12q21 0 40 4t40 15v63h-15q-5-30-24-46t-51-16q-32 0-51 16t-18 40q0 18 11 33t34 27l58 32q27 14 43 28t21 28 7 32q0 31-16 54t-45 36-65 14m288 0q-37 0-65-18t-43-46-15-67q0-40 17-72t48-49 66-18q40 0 64 22t24 66q0 3 0 6t-1 9l-1 7h-180v-19h132q2-10 2-19 0-25-13-39t-38-14q-33 0-54 27t-21 71q0 33 12 60t35 42 54 15q18 0 34-6t35-20l10 10q-24 27-48 39t-54 13m263-5h-135v-15l15-3q16-2 20-8t5-21v-149q0-17-8-24t-31-9v-12l76-22h7v40h4q13-18 31-30t42-11q18 0 27 7t9 20q0 8-6 14t-15 9-16-2l-24-14q-6-4-15 1t-17 11-13 14-6 8v149q0 15 5 21t20 8l25 3v15m199 0h-125v-15l15-3q15-2 20-8t5-21v-149q0-16-7-23t-32-10v-12l77-22h7v216q0 15 5 21t20 8l15 3v15m-68-302q-12 0-21-8t-8-21 8-21 21-8q12 0 21 8t8 21-8 21-21 8m224 302h-135v-15l15-3q16-2 20-8t5-21v-183h-44v-8l13-22h31v-8q0-27 11-52t31-43 43-29 49-10q19 0 35 7t16 20q0 9-9 15t-19 2l-38-18q-6-3-12-3-12 0-27 12t-25 32-10 48v27h85v7l-13 23h-72v178q0 17 6 24t22 10l22 3v15" />
</svg>