<svg id="fnt-Hepta Slab" viewBox="0 0 2953 1000" xmlns="http://www.w3.org/2000/svg"><path id="hepta-slab" class="f" d="M95 460h255v34h-255v-34m-21-135h-60v-34h158v34h-60v307h60v35h-158v-35h60v-307m264 0h-61v-34h158v34h-60v307h60v35h-158v-35h61v-307m274 346q-41 0-71-17t-47-48-17-72q0-40 17-72t46-49 70-17q40 0 69 17t45 49 16 71q0 5 0 8t-1 4h-35q0-3 0-6t0-9q0-29-11-52t-32-37-51-13q-29 0-50 14t-34 37-12 55q0 31 12 54t34 37 52 13q31 0 54-15t35-40l34 12q-15 36-47 56t-76 20m127-126h-239v-27h229l10 27m187 227h-142v-31h54v-310h-54v-31h90v96l-1 28v16l1 22v179h52v31m48-100q-33 0-59-15t-43-41-23-65l24-17q0 31 11 55t34 37 52 13q30 0 52-13t34-38 12-54q0-32-12-55t-35-38-51-13q-29 0-51 13t-34 38-12 55l-6-57h8q5-22 18-40t34-30 51-12q28 0 51 11t40 28 27 44 9 56q0 40-16 71t-46 49-69 18m254-241l0 165q0 21 8 32t24 10q17 0 25-10t8-32v-25h33v25q0 24-8 41t-21 26-37 8q-24 0-39-9t-22-26-7-40l0-165h-47v-31h47v-67h36v67h94l0 31h-94m413 236h-55q-10 0-15-7t-6-18v-80l4-8-2-31-2-15v-21q0-20-8-33t-24-19-38-7q-33 0-52 14t-24 39l-34-7q5-27 19-44t36-26 56-9q35 0 58 10t35 29 12 51v151h40v31m-180 3q-42 0-63-18t-22-54q0-33 19-51t61-26l120-25v25l-114 26q-24 6-36 17t-12 31q0 22 13 33t40 11q28 0 51-13t36-39 13-64l9 59h-12q-7 42-33 65t-70 23m539 2q-53 0-84-22t-39-60h-9l7-37q7 40 39 63t81 23q44 0 67-18t23-52q0-23-10-38t-34-25-62-15q-49-7-80-21t-45-36-15-52q0-45 31-71t86-25q35 0 59 10t38 28 18 44h9l-7 37q-7-41-37-64t-75-23q-39 0-62 17t-22 46q0 19 10 33t35 23 62 17q50 8 81 22t44 36 15 54q0 50-33 78t-91 28m-125-5h-37v-114h37v114m235-262h-37v-114h37v114m141-133v364h55v31h-146v-31h55v-333h-55v-31h91m363 395h-54q-10 0-16-7t-5-18v-80l3-8-1-31-2-15v-21q0-20-8-33t-24-19-38-7q-34 0-52 14t-24 39l-34-7q5-27 18-44t37-26 56-9q34 0 58 10t35 29 12 51v151h39v31m-179 3q-42 0-63-18t-22-54q0-33 19-51t61-26l120-25v25l-114 26q-24 6-37 17t-12 31q0 22 14 33t39 11q29 0 52-13t36-39 13-64l9 59h-13q-6 42-32 65t-70 23m253 2h-3v-369h-54v-31h90v222l-2 31v33l2 49-33 65m131 0q-33 0-60-13t-43-36-23-56l26-33q0 30 12 54t34 38 52 13q31 0 52-13t34-37 12-56q0-31-13-55t-34-37-51-13q-30 0-52 13t-34 37-12 56l-6-57h9q5-22 17-40t35-30 51-12q28 0 51 11t40 28 26 44 10 56q0 40-17 71t-46 49-70 18" />
</svg>