<svg id="fnt-Hind Guntur" viewBox="0 0 2603 1000" xmlns="http://www.w3.org/2000/svg"><path id="hind-guntur" class="f" d="M283 330v337h-40v-153h-164v153h-40v-337h40v148h164v-148h40m117 83v254h-40v-254h40m-2-98q8 8 8 19t-8 18-18 7-19-7-7-18 7-19 19-7 18 7m277 177v175h-40v-164q0-28-14-43t-37-15q-29 0-50 22t-20 61v139h-39v-254h39v44q22-47 80-47 37 0 59 22t22 60m96 51q0 41 20 66t50 26q31 0 53-23t22-74q0-48-23-70t-49-23q-32 0-53 25t-20 73m184-230v354h-39v-38q-27 42-78 42-51 0-80-38t-28-91q0-59 30-96t79-37q49 0 77 43v-139h39m460 326l0 1q-40 31-104 31-78 0-126-47t-47-126q0-77 47-126t119-48q60 0 99 23v43q-41-27-95-27-57 0-92 37t-36 98q0 62 35 98t97 36q34 0 63-14v-105h-74v-35h114v161h0m267-226v254h-39v-44q-20 47-80 47-37 0-59-23t-22-59v-175h40v165q0 27 14 42t38 14q31 0 50-22t19-59v-140h39m273 79v175h-39v-164q0-28-15-43t-37-15q-28 0-49 22t-21 61v139h-39v-254h39v44q23-47 80-47 37 0 59 22t22 60m197 131v37q-16 9-37 9-75 0-75-76v-148h-40v-32h40v-63h40v63h70v32h-70v149q0 40 38 40 19 0 34-11m255-210v254h-40v-44q-20 47-79 47-38 0-60-23t-21-59v-175h39v165q0 27 14 42t38 14q32 0 50-22t19-59v-140h40m112 115v139h-40l1-254h39v45q20-47 69-47 9 0 14 1v39q-11-4-22-4-26 0-44 25t-17 56" />
</svg>