<svg id="fnt-Hind Vadodara" viewBox="0 0 3149 1000" xmlns="http://www.w3.org/2000/svg"><path id="hind-vadodara" class="f" d="M283 330v337h-40v-153h-164v153h-40v-337h40v148h164v-148h40m117 83v254h-40v-254h40m-2-98q8 8 8 19t-8 18-18 7-19-7-7-18 7-19 19-7 18 7m277 177v175h-40v-164q0-28-14-43t-37-15q-29 0-50 22t-20 61v139h-39v-254h39v44q22-47 80-47 37 0 59 22t22 60m96 51q0 41 20 66t50 26q31 0 53-23t22-74q0-48-23-70t-49-23q-32 0-53 25t-20 73m184-230v354h-39v-38q-27 42-78 42-51 0-80-38t-28-91q0-59 30-96t79-37q49 0 77 43v-139h39m459 17l-117 337h-51l-114-337h43l44 133 53 167q19-63 54-167l45-133h43m132 306q27 0 43-15t16-39v-32h-44q-32 0-48 12t-16 32 13 30 36 12m60 31v-30q-20 32-71 32-36 0-58-21t-21-53q0-36 27-57t76-20h46v-13q0-30-13-45t-46-15q-40 0-72 21v-39q29-18 75-18 96 0 96 97v161h-39m135-124q0 41 20 66t50 26q31 0 53-23t22-74q0-48-23-70t-49-23q-32 0-53 25t-20 73m184-230v354h-39v-38q-27 42-78 42-51 0-80-38t-28-91q0-59 30-96t79-37q49 0 77 43v-139h39m296 228q0 56-32 93t-88 37q-54 0-86-37t-32-92q0-57 33-95t85-37q58 0 89 37t31 94m-197 0q0 40 21 67t56 28q38 0 59-27t20-68q0-42-19-69t-60-27q-36 0-56 28t-21 68m281 2q0 41 20 66t51 26q31 0 52-23t22-74q0-48-22-70t-50-23q-31 0-52 25t-21 73m185-230v354h-40v-38q-27 42-78 42-50 0-79-38t-29-91q0-59 31-96t78-37q50 0 77 43v-139h40m150 323q27 0 43-15t16-39v-32h-44q-32 0-48 12t-16 32 13 30 36 12m60 31v-30q-20 32-71 32-36 0-58-21t-21-53q0-36 27-57t76-20h46v-13q0-30-13-45t-46-15q-40 0-72 21v-39q29-18 75-18 96 0 96 97v161h-39m148-139v139h-40l1-254h39v45q20-47 69-47 9 0 14 1v39q-11-4-22-4-26 0-44 25t-17 56m201 108q27 0 43-15t16-39v-32h-44q-32 0-48 12t-16 32 13 30 36 12m60 31v-30q-20 32-71 32-36 0-58-21t-21-53q0-36 27-57t76-20h46v-13q0-30-13-45t-46-15q-40 0-72 21v-39q29-18 75-18 96 0 96 97v161h-39" />
</svg>