<svg id="fnt-Hind Madurai" viewBox="0 0 2836 1000" xmlns="http://www.w3.org/2000/svg"><path id="hind-madurai" class="f" d="M283 330v337h-40v-153h-164v153h-40v-337h40v148h164v-148h40m117 83v254h-40v-254h40m-2-98q8 8 8 19t-8 18-18 7-19-7-7-18 7-19 19-7 18 7m277 177v175h-40v-164q0-28-14-43t-37-15q-29 0-50 22t-20 61v139h-39v-254h39v44q22-47 80-47 37 0 59 22t22 60m96 51q0 41 20 66t50 26q31 0 53-23t22-74q0-48-23-70t-49-23q-32 0-53 25t-20 73m184-230v354h-39v-38q-27 42-78 42-51 0-80-38t-28-91q0-59 30-96t79-37q49 0 77 43v-139h39m244 221l-10 133h-40l24-337h52l44 123 54 157q29-82 57-157l47-123h51l30 337h-41l-11-133-12-150q-27 74-55 150l-47 125h-38l-45-125-51-147q0 20-9 147m457 102q27 0 43-15t16-39v-32h-44q-32 0-48 12t-16 32 13 30 36 12m60 31v-30q-20 32-71 32-36 0-58-21t-21-53q0-36 27-57t76-20h46v-13q0-30-13-45t-46-15q-40 0-72 21v-39q29-18 75-18 96 0 96 97v161h-39m135-124q0 41 20 66t50 26q31 0 53-23t22-74q0-48-23-70t-49-23q-32 0-53 25t-20 73m184-230v354h-39v-38q-27 42-78 42-51 0-80-38t-28-91q0-59 30-96t79-37q49 0 77 43v-139h39m270 100v254h-39v-44q-20 47-80 47-37 0-59-23t-22-59v-175h40v165q0 27 14 42t38 14q31 0 50-22t19-59v-140h39m112 115v139h-39l0-254h39v45q20-47 69-47 9 0 14 1v39q-10-4-21-4-27 0-44 25t-18 56m202 108q27 0 43-15t16-39v-32h-44q-32 0-48 12t-16 32 12 30 37 12m59 31v-30q-19 32-71 32-35 0-57-21t-22-53q0-36 28-57t76-20h46v-13q0-30-14-45t-45-15q-41 0-72 21v-39q28-18 75-18 95 0 95 97v161h-39m151-254v254h-40v-254h40m-2-98q8 8 8 19t-8 18-18 7-19-7-7-18 7-19 19-7 18 7" />
</svg>