<svg id="fnt-Holtwood One SC" viewBox="0 0 5888 1000" xmlns="http://www.w3.org/2000/svg"><path id="holtwood-one-sc" class="f" d="M251 667h-231v-106l38-6v-151l-38-6v-106h231v106l-36 6v46h125v-46l-37-6v-106h231v106l-38 6v151l38 6v106h-231v-106l37-6v-49h-125v49l36 6v106m511 4q-62 0-108-19t-72-59-25-103q0-61 26-100t72-58 107-18 108 18 72 58 26 100q0 63-25 103t-71 59-110 19m0-106q34 0 47-21t12-54-12-53-47-19q-33 0-46 19t-12 52q0 34 12 55t46 21m506 102h-280v-98l30-5v-139l-30-6v-96h206v96l-30 6v148q22 0 37-10t26-21h41v125m277 0h-205v-98l29-5v-150q-12 0-24 4t-20 11-8 19h-41v-125h333v125h-41q0-11-8-19t-20-11-24-4v150l29 5v98m384 0h-163l-94-243-35-5v-96h223v96l-26 5 40 128 40-128-25-5v-96h223v96l-26 5 40 128 40-128-26-5v-97h169v97l-34 5-94 243h-163l-45-132-44 132m605 4q-63 0-109-19t-71-59-25-103q0-61 25-100t73-58 107-18 107 18 73 58 26 100q0 63-25 103t-72 59-109 19m0-106q34 0 47-21t12-54-13-53-46-19q-33 0-46 19t-12 52q0 34 11 55t47 21m427 106q-63 0-109-19t-71-59-25-103q0-61 25-100t73-58 107-18 107 18 73 58 26 100q0 63-25 103t-72 59-109 19m0-106q34 0 47-21t12-54-13-53-46-19q-33 0-46 19t-12 52q0 34 11 55t47 21m401 102h-176v-98l29-5v-148l-29-5v-88h267q43 9 75 29t51 53 18 85q0 51-17 85t-49 54-75 29-94 9m0-251v148h23q26 0 41-7t19-24 5-43q0-26-5-43t-19-23-41-8h-23m630 255q-67 0-117-21t-75-64-26-111q0-65 27-107t77-62 114-20q65 0 115 20t77 62 27 107q0 67-27 110t-76 65-116 21m0-118q36 0 50-21t13-57q0-36-13-57t-50-20-49 20-13 57q0 35 13 57t49 21m395 114h-147v-98l29-5v-139l-29-6v-96h176l118 185v-83l-30-6v-96h147v96l-29 6v139l29 5v98h-176l-118-181v78l30 5v98m599 0h-302v-98l30-5v-139l-30-5v-97h302v125h-33q-17-12-40-20t-52-7v53l67-14v69l-67-14v54q28 0 52-8t40-19h33v125m343 4q-46 0-84-6t-71-23v-96h74q10 14 25 24t36 10q17 0 24-9t8-27q-33-3-64-10t-54-22-38-38-14-60q0-48 22-75t58-40 86-11q48 0 84 7t68 22v95h-74q-9-14-24-24t-35-10q-17 0-24 10t-8 29q37 1 69 7t55 22 36 40 13 63q0 35-13 58t-36 38-53 20-66 6m408 0q-65 0-112-22t-73-66-26-108q0-65 26-107t72-62 111-20q47 0 84 8t68 23v121h-74q-9-17-24-30t-35-13q-25 0-42 11t-25 27-8 37q0 30 13 48t33 25 46 8q29 0 60-7t56-17v119q-35 12-71 18t-79 7" />
</svg>