<svg id="fnt-Hubballi" viewBox="0 0 1600 1000" xmlns="http://www.w3.org/2000/svg"><path id="hubballi" class="f" d="M254 667q-5 0-9-4t-3-9v-117h-168v117q0 5-3 9t-9 4q-5 0-9-4t-4-9v-242q0-6 4-9t9-4q5 0 9 4t3 9v100h168v-100q0-6 3-9t9-4q6 0 9 4t4 9v242q0 5-4 9t-9 4m255 0q-5 0-9-4t-3-9v-22q-17 15-36 25t-39 10q-19 0-35-8t-25-26-9-50v-100q0-5 4-9t9-3q5 0 9 3t3 9v100q0 31 12 45t32 14q20 0 40-13t35-32v-114q0-5 3-9t9-3q6 0 9 3t4 9v171q0 5-4 9t-9 4m189 0q-36 0-66-13-1 5-4 9t-9 3-9-4-3-8v-255q0-6 3-9t9-4q6 0 9 4t4 9v107q34-35 73-35 24 0 44 12t32 34 12 52-13 52-33 34-49 12m0-25q31 0 50-20t20-53q0-32-18-53t-45-20q-20 0-39 13t-34 34v84q15 7 31 11t35 4m253 25q-37 0-67-13 0 5-4 9t-8 3-9-4-4-8v-255q0-6 4-9t9-4q5 0 9 4t3 9v107q34-35 73-35 24 0 44 12t32 34 12 52-12 52-34 34-48 12m0-25q31 0 50-20t19-53q0-32-18-53t-45-20q-20 0-39 13t-34 34v84q15 7 32 11t35 4m297 20q-11-11-17-29-17 16-37 25t-44 9q-23 0-36-9t-19-21-6-23q0-12 4-24t14-19q12-12 33-20t52-8q16 0 34 2-2-23-15-36t-39-13q-10 0-21 1t-16 4q-6 3-9 3-5 0-9-4t-4-8q0-10 8-13 9-2 23-5t28-3q41 0 60 22t19 59v45q0 17 4 28t11 20q4 4 4 9t-4 8-9 4-9-4m-98-20q22 0 41-10t35-30v-32q-18-2-34-2-48 0-67 20-6 6-9 12t-2 14q0 10 9 19t27 9m185 12v-255q0-6 3-9t9-4q6 0 9 4t4 9v255q0 5-4 9t-9 4q-5 0-9-4t-3-9m116 0v-255q0-6 3-9t9-4q6 0 9 4t4 9v255q0 5-4 9t-9 4q-5 0-9-4t-3-9m128-286q8 0 14 7t6 18-6 18-14 6q-9 0-15-7t-6-17q0-11 6-18t15-7m-12 286v-171q0-5 3-9t9-3q6 0 9 3t4 9v171q0 5-4 9t-9 4q-5 0-9-4t-3-9" />
</svg>