<svg id="fnt-Hurricane" viewBox="0 0 1459 1000" xmlns="http://www.w3.org/2000/svg"><path id="hurricane" class="f" d="M24 685q-10 0-14-6t-5-15q0-15 7-34t18-39 17-31l-7 0q-3 1-10-1t-6-6q0-7 7-12t18-7 14-3q4-7 13-22t21-33 26-39 26-37 24-27 16-11 10 6 6 11q-30 36-60 74t-54 79q28-1 56-2t57-1q29 0 56 2 2-6 10-20t21-33 26-39 27-38 25-28 17-10q6 0 11 6t6 13q0 3-4 7-33 30-62 68t-53 76q4 1 11 3t7 7q0 2-7 5t-16 7-12 12q-4 6-10 20t-14 29-11 29-4 21q0 2 0 4t4 3q9 0 9 3 0 4-6 4-12 0-16-6t-5-16q0-18 7-38t16-39 16-35q-2-1-4-1t-5 0q-30 0-61 2t-60 5q-17 2-27 3t-17 4-13 11-14 22q-3 6-9 16t-11 22-10 23-3 17q0 2 0 4t4 2q5 0 10-5t7-4q1 0 1 1 0 6-5 11t-12 6m410-15q-10 0-21-8t-11-20q0-10 5-23t12-25q-16 17-32 33t-30 34q-5 6-12 6-10 0-18-10t-8-19q0-3 0-4 4-10 8-19t10-18q6-9 12-18t13-18q2-3 4-6t5-7q1-2 1-6t0-6q5-6 13-13t17-6q2 0 6 1t9 3 5 4-2 4q-3 3-6 5t-5 6q-12 11-22 24t-20 26q-3 4-10 13t-11 18-5 14q0 5 5 5 5 0 14-7t22-17 22-22 20-21 13-14q10-13 20-28 4-6 10-11t13-5q4 0 10 1t6 6q0 2-1 4t-3 4q-16 17-31 35t-25 41q-3 8-7 20t-3 21 6 8q5 0 9-3 6-3 15-12t20-21 21-23 14-16q1-1 2-2t2-1q4 0 4 4 0 2-1 3t-2 3q-16 18-31 36t-31 37q-3 4-8 7t-12 3m120 3q-8 0-17-9t-9-16q0-10 7-23t17-24 16-21 7-12v-1q-4-4-8-8t-11-3q-5 0-13 6t-16 14-14 15-10 9q-2 2-4 3t-2 0q-2 0-2-2t2-4q8-10 18-21t19-21 10-13q4-11 8-20t14-17q4-4 10-7t11-2q5 0 8 2t3 9q0 6-5 12t-12 11-13 9-4 7q3 2 11 5t13 3q4 0 7-2t7-1q5 0 10 3t5 9q0 5-4 9t-7 7q-6 5-16 14t-21 20-17 21-7 19q0 2 1 4 0 1 2 1 10 0 22-9t25-22 24-26 20-20q1-1 2-2t3-1q3 0 3 4 0 2-7 10t-17 19-22 22-21 20-13 13q-6 4-8 5t-5 2m128 0q-8 0-17-9t-9-16q0-10 7-23t17-24 16-21 7-12v-1q-4-4-8-8t-11-3q-5 0-13 6t-16 14-14 15-10 9q-2 2-4 3t-2 0q-2 0-2-2t2-4q8-10 18-21t19-21 10-13q4-11 8-20t14-17q4-4 10-7t11-2q5 0 8 2t3 9q0 6-5 12t-12 11-13 9-4 7q3 2 11 5t13 3q4 0 7-2t7-1q5 0 10 3t5 9q0 5-4 9t-7 7q-6 5-16 14t-21 20-17 21-7 19q0 2 1 4 0 1 2 1 10 0 22-9t25-22 24-26 20-20q1-1 2-2t3-1q3 0 3 4 0 2-7 10t-17 19-22 22-21 20-13 13q-6 4-8 5t-5 2m182-195q-11 0-11-8 0-6 6-13t19-10q8-2 12-3t10-1q-2 9-9 20t-16 14q-5 1-11 1m-80 199q-8 0-15-6t-8-14q2-10 7-24t12-28 14-29 12-21q-9 9-20 19t-20 20q-1 0-3 2t-3 1q-3 0-3-3 0-2 2-4 13-15 28-30t29-31q4-6 7-9t11-3q3 0 9 1t10 4 2 8q-4 5-12 18t-20 28-21 32-16 30-7 19q0 3 2 3 3 0 10-5t15-12 10-8q14-13 28-26t27-28q1-1 2-3t4-2q3 0 3 3 0 4-3 7-6 8-14 16t-15 15q-13 13-26 26t-24 26q-2 3-6 6t-8 2m99-3q-16 0-26-11t-10-28q0-16 10-35t27-37 34-32 31-18q7-3 12-3 7 0 9 3t3 7 4 5q6 3 6 11 0 5-3 13t-8 13-12 6q-6 0-6-5 0-4 3-8t7-9 4-9-5-4q-8 0-21 8t-25 23-25 30-18 30-7 23q0 6 3 10t10 5q10 0 23-6t25-15 19-15q14-12 27-25t27-26q1-1 3-1 5 0 5 4 0 2-8 10t-19 20-21 20-12 12q-8 7-20 15t-23 13-23 6m190-3q-4 0-10-4t-10-9-4-10q0-7 6-20t12-25 12-19q-7 6-18 19t-23 28-24 26-19 10q-11 0-18-8t-6-18q0-15 8-33t22-33 30-30 32-21 29-8q13 0 22 6t8 19q0 2-1 7t-3 6q-2 0-5-5t-9-9-14-4q-14 0-29 10t-29 26-25 32-16 29q-1 3-3 7t-1 8q0 5 3 5t10-6 12-8q18-12 33-28t29-33q4-6 7-11t7-11q3-3 5-3 6 0 11 7t5 13q0 3-1 3t-3 3q-7 8-15 21t-12 27-8 24q0 1-1 3t3 2q5-1 16-11t24-23 24-23 15-16q1-1 2-2t3-1q3 0 3 3 0 2-8 12t-20 22-24 25-22 21-12 8m167 1q-7 0-17-4t-9-13q0-11 8-25t19-31 21-30 15-24q-3 1-10 5t-13 9-9 7q-22 16-38 33t-31 39q-4 6-9 12t-8 13q-2 2-7 5t-9 2q-6 0-6-7 0-6 6-18t16-29 20-32 19-28 12-18q-1 1-6 5t-9 7-6 6q-9 9-18 18t-18 19q-1 1-4 3t-5 2q-2 0-2-2t7-11 17-19 22-22 20-21 11-12q5-7 11-11t14-4q4 0 11 4t6 10q0 2-1 3-15 12-29 29t-27 35-23 34q12-14 27-27t29-25l36-29q3-3 7-6t7-6q4-3 9-3t10 1q5 0 10 3t6 9-4 10-7 7q-8 8-21 21t-24 28-20 30-8 29q0 1 0 3t1 3q10-4 23-14t26-20 24-23 19-21q1-1 2-2t3-2q3 0 3 4 0 2-2 4-9 13-25 30t-33 32-31 23q-3 2-8 2m103-10q-30 0-30-29 0-12 6-27t17-31 23-29 27-21 26-8q4 0 5 1t3 6q1 2 2 5t1 5q2 3 4 7t1 7q0 5-2 9t-6 7q-5 4-15 11t-22 13-23 12-17 6q-4 7-9 17t-5 19q0 5 2 8t8 4q8 0 21-8t28-19 26-22 19-17l16-17q3-3 6-3 3 0 3 3 0 3-8 12t-21 20-21 21-13 12q-11 9-24 17t-28 9m9-69q5-3 15-9t21-15 19-16 8-14q0-1-1-2 0-1-2-1-6 0-15 7t-18 17-17 19-10 14" />
</svg>