<svg id="fnt-Varela Round" viewBox="0 0 3184 1000" xmlns="http://www.w3.org/2000/svg"><path id="varela-round" class="f" d="M179 669h-11q-20 0-31-23l-123-299q-2-4-2-9 0-10 6-16t17-7q15 0 21 16l118 293 117-293q7-16 22-16 10 0 16 7t6 16q0 5-1 9l-124 299q-10 23-31 23m273 3q-22 0-41-9t-30-26-11-40q0-36 28-59t87-22h61v-4q0-34-17-48t-50-14q-21 0-37 3t-30 9q-4 1-6 1-8 0-13-6t-6-13q0-14 13-19 18-8 39-13t48-5q36 0 59 14t34 37 11 47v142q0 9-7 16t-16 6-16-6-6-16v-13q-14 14-36 26t-58 12m17-40q23 0 44-12t33-26v-42h-55q-35 0-55 9t-20 31q0 16 11 28t42 12m221 37q-9 0-16-6t-6-16v-215q0-9 6-16t16-7 16 7 7 16v22q14-18 33-33t46-14h2q10 0 16 6t6 16-6 16-17 6h-2q-25 0-45 12t-33 32v152q0 9-7 16t-16 6m283 3q-61 0-95-35t-34-98q0-34 12-64t39-49 68-19q39 0 65 17t40 47 14 62q0 9-6 16t-17 6h-169q4 34 25 54t62 20q23 0 38-4t30-11q4-2 9-2 8 0 14 5t6 14q0 6-4 11t-9 8q-17 9-36 15t-52 7m-83-154h147q-1-26-13-42t-28-23-33-8-32 8-28 23-13 42m275 151q-10 0-16-6t-7-16v-325q0-10 7-16t16-7q10 0 16 7t7 16v325q0 9-7 16t-16 6m167 3q-22 0-41-9t-30-26-11-40q0-36 28-59t87-22h61v-4q0-34-17-48t-50-14q-21 0-37 3t-30 9q-4 1-6 1-8 0-13-6t-6-13q0-14 13-19 18-8 39-13t48-5q36 0 59 14t34 37 11 47v142q0 9-7 16t-16 6-16-6-6-16v-13q-14 14-36 26t-58 12m17-40q23 0 44-12t33-26v-42h-55q-35 0-55 9t-20 31q0 16 11 28t42 12m360 37q-9 0-16-6t-6-16v-306q0-10 6-17t16-6h117q47 0 77 13t44 36 15 52-17 54-49 37q21 5 34 19t18 33 9 34 2 28v23q0 9-7 16t-16 6q-10 0-17-6t-6-16v-15q0-13-2-30t-8-33-23-28-44-10h-104v116q0 9-7 16t-16 6m23-308v127h91q42 0 67-17t26-48q0-19-8-33t-30-22-58-7h-88m414 311q-38 0-67-17t-45-47-16-69 16-69 45-47 67-16 67 16 45 47 16 69-16 69-45 47-67 17m0-42q19 0 38-9t32-29 13-53-13-53-32-29-38-9-38 9-32 29-12 53 12 53 32 29 38 9m279 42q-29 0-49-14t-30-35-11-49v-142q0-10 7-16t16-7 16 7 7 16v137q0 28 13 44t42 17q27 0 47-15t35-33v-150q0-10 6-16t17-7 16 7 6 16v214q0 10-6 16t-16 7-17-7-6-16v-20q-16 17-38 31t-55 15m240-3q-10 0-16-6t-7-16v-215q0-10 7-16t16-7 16 7 7 16v21q16-18 37-32t56-14q28 0 48 13t31 35 10 50v142q0 9-7 16t-16 6-16-6-6-16v-137q0-29-13-45t-42-16q-27 0-47 14t-35 34v150q0 9-7 16t-16 6m387 3q-30 0-58-16t-45-45-18-72 18-72 45-45 58-15q27 0 48 10t38 28v-123q0-10 6-16t17-7 16 7 6 16v325q0 9-6 16t-16 6-17-6-6-16v-13q-17 18-38 28t-48 10m7-43q24 0 44-11t35-26v-105q-15-16-35-27t-44-11q-36 0-59 23t-23 67q0 44 23 67t59 23" />
</svg>