<svg id="fnt-Vast Shadow" viewBox="0 0 4547 1000" xmlns="http://www.w3.org/2000/svg"><path id="vast-shadow" class="f" d="M222 667l-152-265h-58v-39h195v39h-71l116 214 117-214h-70v-39h183v39h-55l-152 265h-53m18 17h47l150-265h63v-44h10v53h-67l-150 265h-47l-6-9m14-101l-88-164h59v-44h9v53h-52l78 145-6 10m61-155v-9h31l-5 9h-26m-287 0v-9l35 9h5-40m508 122q0-23 10-45t28-41 46-29 64-11q11 0 24 1t26 6 26 10 23 16v-26h105v42h-54v157h54v37h-105v-32q-10 9-22 17t-26 12-28 7-29 3q-35 0-61-10t-45-27-27-40-9-47m316 65v-125h53v-40h10v49h-54v116h-9m-263-67q0 20 8 36t19 28 30 18 37 6q11 0 23-2t23-7 21-12 17-17 11-23 5-28q0-17-8-33t-22-27-32-19-38-6-37 6-30 17-19 27-8 36m17 1q0-15 6-28t16-22 24-15 31-5q13 0 23 2t18 7 13 9 6 7q-13-7-27-12t-33-4q-15 0-27 5t-21 13-14 20-5 24q0 12 3 22t9 19 15 16 24 12q-16-2-27-9t-19-16-11-20-4-25m191 135h108v-40h10v49h-118v-9m-229-28q10 8 23 15t27 11 30 7 31 2q27 0 50-7t42-18v11q-18 11-42 17t-50 6q-18 0-35-2t-32-9-26-14-18-19m416 11v-67h50q7 10 19 17t28 13 35 7 38 2q17 0 28-2t19-7 10-10 3-13q0-15-24-26t-75-16q-34-4-57-10t-37-16-20-21-6-26q0-13 8-25t23-22 41-15 56-6q11 0 22 1t21 4 20 7 17 9v-14h53v66h-53q-3-7-11-14t-20-12-25-8-25-3q-16 0-29 2t-24 6-16 10-6 12q0 6 5 12t15 9 28 8 44 7q36 5 60 11t39 17 22 23 7 31q0 12-8 24t-22 21-36 15-48 6q-18 0-33-1t-30-5-27-8-26-12v19h-53m231-143v-10h58v-72h10v82h-68m-150-34q1-3 6-6t13-4 18-4 19-1q8 0 17 1t17 4 15 5 10 8q-6-3-14-4t-16-3-16-1-13-1q-20 0-34 2t-22 4m-67 48q7 9 17 16t23 12 31 9 41 7q21 2 37 5t26 6 16 8 8 10q-5-4-12-6t-17-5-25-4-37-5q-46-6-73-18t-35-35m-2 146h58v-11q7 4 18 7t23 5 28 4 30 2q30 0 54-7t42-18 26-26 9-32q0-6-1-12t-2-11-5-10-8-11q26 15 26 44 0 20-10 37t-29 29-44 19-59 7q-12 0-24-1t-24-3-21-4-19-7v9h-68v-10m401-105v-106h-54v-42h54v-49l52-22v71h122v42h-122v116q0 18 12 27t31 9h69v42h-69q-20 0-37-5t-30-14-21-27-7-42m70-163v-43l10-4v47h-10m0 183v-112h121v-45h10v54h-122v113q-8-2-9-10m-109-100v-9h29v9h-29m38 147q7 11 17 18t22 12 26 6 31 2h87v-48h9v57h-98q-18 0-34-2t-27-8-20-15-13-22m429 21v-88h50q32 29 69 43t77 13q18 0 33-3t25-10 17-14 6-17q0-11-7-20t-22-16-38-13-57-9q-39-4-66-12t-44-22-25-28-8-33q0-16 9-31t28-27 45-19 64-7q21 0 38 3t32 9 28 14 23 16v-33h55v88h-55q-7-13-19-23t-27-18-33-12-38-5q-21 0-37 4t-26 10-16 13-5 14q0 10 4 18t17 15 33 12 53 10q45 5 75 14t49 20 26 29 8 36q0 15-9 30t-25 28-42 20-60 8q-22 0-42-3t-38-8-36-14-34-18v36h-55m292-190v-9h58v-93h10v102h-68m-196-44q0-5 5-9t15-7 22-5 27-2q22 0 41 7t31 18q-7-3-15-6t-18-5-19-3-20-2q-26 0-44 5t-25 9m-79 63q8 11 19 20t27 15 37 11 49 8q28 3 48 7t32 7 20 9 9 12q-7-4-15-7t-20-6-31-6-48-7q-30-3-53-10t-39-14-25-18-10-21m-2 188h57v-24q30 15 62 23t71 8q29 0 57-6t49-19 34-32 13-45q0-16-3-29t-13-26q6 4 10 10t9 14 5 15 2 16q0 26-13 47t-35 35-52 22-64 7q-38 0-68-6t-53-19v18h-68v-9m414-17v-37h53v-265h-53v-39h106v142q7-9 18-17t24-14 28-10 33-3q25 0 46 7t35 22 23 38 8 54v85h53v37h-147v-37h41v-64q0-20-2-35t-5-25q-4-11-11-19t-15-12-19-8-21-2q-12 0-25 5t-24 12-23 19-17 23v106h41v37h-147m123-233v-95h10v89q-2 1-5 3t-5 3m-109-42v-10h29v10h-29m324 223v-68q0-22-3-40t-10-33-16-26-22-17q16 4 28 14t19 25 11 35 3 43v67h-10m-215 0v-85q7-11 15-20t18-15 21-9 21-4q17 0 28 7t15 16q-7-6-18-10t-26-3q-9 0-19 3t-18 9-16 13-11 15v83h-10m118 69h151v-40h10v49h-161v-9m-227 0h151v-40h10v49h-161v-9m428-134q0-23 10-45t28-41 46-29 64-11q11 0 24 1t26 6 26 10 22 16v-26h105v42h-53v157h53v37h-105v-32q-9 9-21 17t-26 12-28 7-29 3q-35 0-62-10t-44-27-27-40-9-47m315 65v-125h54v-40h10v49h-54v116h-10m-262-67q0 20 7 36t20 28 29 18 37 6q12 0 24-2t23-7 21-12 17-17 11-23 4-28q0-17-8-33t-21-27-32-19-38-6-37 6-30 17-20 27-7 36m17 1q0-15 6-28t16-22 24-15 31-5q13 0 23 2t18 7 12 9 7 7q-13-7-27-12t-33-4q-15 0-28 5t-21 13-13 20-5 24q0 12 3 22t8 19 16 16 23 12q-15-2-27-9t-18-16-11-20-4-25m191 135h108v-40h10v49h-118v-9m-229-28q10 8 22 15t27 11 30 7 31 2q27 0 51-7t42-18v11q-18 11-42 17t-50 6q-18 0-35-2t-32-9-26-14-18-19m405-104q0-23 10-45t28-39 46-29 64-10q11 0 24 1t26 6 26 10 23 16v-97h-54v-39h106v304h42v37h-94v-31q-19 18-46 28t-59 10q-30 0-56-8t-45-23-30-38-11-53m317 63v-276h9v276h-9m-109-223v-10h28v10h-28m-155 158q0 20 7 36t18 27 30 17 39 6q11 0 23-2t23-7 21-12 17-17 11-23 5-28q0-17-8-32t-22-26-32-16-38-7q-19 0-36 7t-30 17-20 26-8 34m17 0q0-14 6-26t15-21 25-14 31-5q25 0 42 7t23 19q-13-9-29-13t-36-4q-15 0-27 5t-21 12-14 19-5 22q0 46 52 68-15-2-26-8t-19-15-12-21-5-25m191 134h97v-40h10v49h-107v-9m-229-28q10 8 23 15t27 11 30 7 31 2q27 0 50-7t42-18v11q-18 11-42 17t-50 6q-40 0-68-11t-43-33m381-103q0-27 12-51t32-41 49-27 63-10q37 0 65 9t48 27 30 41 10 51q0 26-11 49t-32 38-50 26-65 9q-34 0-62-10t-47-27-31-39-11-45m38 102q24 18 53 27t65 9q33 0 64-9t55-27 38-44 14-59q0-17-4-33t-13-33-20-28-26-23q16 8 30 19t23 28 15 33 5 37q0 24-7 44t-19 37-29 29-36 21-43 13-46 4q-20 0-37-3t-34-8-27-15-21-19m16-103q0 18 8 34t20 27 32 17 40 6q23 0 42-6t32-18 20-26 8-34q0-19-8-35t-20-28-32-20-40-7q-24 0-42 7t-32 19-20 28-8 36m17 1q0-16 7-29t17-24 26-15 35-6q12 0 23 2t21 8 16 12 12 16q-16-15-33-22t-40-7q-16 0-29 5t-24 14-15 21-6 25q0 11 3 20t9 18 17 15 27 11q-15-1-27-6t-20-14-14-20-5-24m459 114l-104-199h-51v-37h162v37h-50l75 153 86-153h-50v-37h163v37h-49l83 155 72-155h-50v-37h155v37h-52l-99 199h-59l-84-159-89 159h-59m249 17h55l99-199h56v-40h10v49h-60l-99 199h-57l-4-9m-35-199h34v-40h10v49h-28l43 82-5 11-54-102m-178 101l-49-101h38v-40h10v49h-33l40 82-6 10m263-92v-9h20l-4 9h-16m-219 0v-9h18l-5 9h-13m-221 0v-9h36l5 9h-41m156 190h56l82-146 6 10-82 145h-59l-3-9" />
</svg>