<svg id="fnt-Vesper Libre" viewBox="0 0 2648 1000" xmlns="http://www.w3.org/2000/svg"><path id="vesper-libre" class="f" d="M178 617l85-257-44-8 4-23h111l-4 23-31 9-113 306-36 8-124-314-33-9 5-23h129l-3 22-41 10 95 256m240 21q11 0 24-4t25-7 16-7l6 9q-8 9-22 19t-31 18-34 7q-28 0-50-12t-36-38-14-67q0-35 14-65t40-46 57-16q24 0 42 10t26 28 9 39q0 17-5 33-1 5-3 7t-7 2h-131q2 23 12 44t25 33 37 13m-29-181q-18 0-24 6-7 7-13 25t-8 41l106-8q0-20-8-35t-22-21-31-8m248-7q-16 2-32 7t-27 12q-8 6-8 17 0 20 24 32 7 4 14 6t18 6q15 4 24 8t17 8q12 8 19 20t7 30q0 25-12 42t-31 26-45 9q-20 0-35-4t-25-9-21-14l11-54 26 6 9 47q21 0 42-3t33-11q9-6 9-20 0-9-4-17t-14-14q-6-4-14-7t-20-7q-2 0-9-3t-12-5-11-5q-16-9-26-24t-9-34q0-22 12-37t33-22 45-7q27 0 46 10 17 11 17 24 0 7-4 14t-12 11-13 4q-8 0-15-4l-7-38m163 302l61 12-4 19h-139l3-22 36-12v-272l-38-19 2-11 67-15 8 33q17-11 28-18t26-13 28-5q25 0 44 14t28 39 10 61q0 33-13 63t-37 48q-11 8-24 14t-27 5q-18 0-34-7t-25-19v105m-1-273q1 7 1 17v112q13 16 33 23t41 7q15 0 22-4 5-2 10-12t8-26 3-33q0-33-10-57t-27-37q-7-5-16-5-10 0-30 4t-35 11m314 159q11 0 24-4t25-7 16-7l6 9q-8 9-22 19t-31 18-34 7q-28 0-50-12t-36-38-13-67q0-35 13-65t40-46 57-16q24 0 42 10t26 28 10 39q0 17-6 33-1 5-3 7t-7 2h-131q2 23 12 44t26 33 36 13m-29-181q-18 0-24 6-7 7-13 25t-8 41l106-8q0-20-8-35t-22-21-31-8m174 20l-38-19 2-11 67-15 11 49q16-28 30-40t30-11q6 0 13 2t13 5q6 3 10 8t4 13q0 7-4 15t-12 14-13 5q-5 0-9-1t-8-2l-5-27q-11 4-24 14t-24 19v141l63 11-4 20h-142l4-22 36-12v-156m521 152l32-46 18 5-18 79h-255l4-21 44-14v-270l-46-13 4-20h138l-4 21-45 13v279l128-13m144-249q-3 2-13 2-10 0-19-2t-12-6q-3-3-3-13 0-10 3-19t6-12q3-3 13-3t19 3 12 6q3 3 3 12 0 9-3 19t-6 13m-76 266l36-10v-159l-38-19 2-11 80-16v205l40 11-5 20h-118l3-21m207-5l-50 32-11-15 23-43v-263l-38-19 2-11 79-15v158q18-15 40-26t40-10q29 0 47 16t26 42 7 56q0 27-8 52t-25 42q-14 16-30 26t-39 10q-20 0-35-7t-28-25m5-33q13 16 33 23t40 7q16 0 24-4 6-3 11-16t7-30 3-32q0-28-9-52t-25-36q-7-4-16-4-9 0-31 5t-37 9v130m234-131l-38-19 3-11 66-15 11 49q17-28 30-40t31-11q6 0 13 2t12 5q7 3 11 8t4 13q0 7-5 15t-11 14-14 5q-4 0-9-1t-8-2l-5-27q-10 4-24 14t-23 19v141l62 11-4 20h-142l4-22 36-12v-156m281 161q11 0 25-4t24-7 16-7l6 9q-8 9-22 19t-31 18-33 7q-28 0-51-12t-36-38-13-67q0-35 14-65t39-46 57-16q25 0 42 10t27 28 9 39q0 17-5 33-2 5-4 7t-6 2h-132q2 23 12 44t26 33 36 13m-28-181q-19 0-25 6-7 7-13 25t-8 41l106-8q0-20-8-35t-22-21-30-8" />
</svg>