<svg id="fnt-Vibur" viewBox="0 0 1125 1000" xmlns="http://www.w3.org/2000/svg"><path id="vibur" class="f" d="M98 289q5 0 10 3 9 6 10 16-10 79-16 125-14 112-14 127 0 62 32 62 58 0 104-55 39-47 60-120-44-2-71-23-32-25-32-70 1-30 25-52 21-18 47-18 34 0 57 22 25 25 25 67 0 10-1 31 5-1 10-3 14-5 33-17 14-9 23-9 4 0 8 3 9 5 9 15 0 16-24 30-29 16-68 22 0 0-1 0-22 85-67 143-61 79-145 79-12 0-21-3-42-16-42-99 0-45 11-116 11-72 13-99-24 15-38 23-24 15-29 15-5 0-10-3-10-6-10-17 1-10 12-18 1 0 2-1 84-57 98-60m123 71q0 12 5 22 15 27 67 27 4-21 4-37 0-11-3-21-9-25-34-25-12 0-22 5-17 10-17 29m224 117q0 8-3 31-7 69-7 86 0 11 4 21 7 15 19 15 2 0 5-1 7-1 20-11 13-10 21-10 4 0 7 2 7 5 7 13-1 13-19 27-23 15-47 15-21 0-35-14-20-22-20-70 0-16 6-64 3-22 4-32 1-3 1-5 4-24 20-24 3 0 5 0 12 3 12 21m-28-64q0-4 2-8 5-9 16-9 4 0 8 2 9 4 9 15 0 5-2 9-4 9-15 9-5 0-9-2-9-5-9-16m167-120q2 0 5 0 42 3 42 49 0 50-42 111-28 40-59 65 2 16 5 30 17 83 62 83 17 0 33-10 28-19 45-64-12-2-22-7-26-14-26-46 0-16 12-28 13-13 31-13 18 0 30 9 17 14 17 37 0 10 0 10 4-2 10-5 10-6 16-6 4 0 7 2 8 4 8 14 0 5-4 10-11 14-44 21-11 40-34 70-34 42-76 42-61-1-89-76-19-52-19-124 0-4 0-11 4-51 20-94 25-69 72-69m-53 143q-2 20-3 38 15-15 31-37 39-54 39-92 0-2-1-4-4-11-13-11-20 0-33 26-12 25-20 80m142 60q-2 0-5 1-8 3-8 11 1 14 24 16 0-1 0-5 1-5 1-7 0-1-1-3-1-13-11-13m160 39q2-15 5-56 0-2 1-4 3-15 18-16 1 0 2 0 13 2 13 21 0 5-1 15 0 4 0 6-5 66-5 84 0 6 1 13 4 31 22 31 2 0 5-1 7-2 21-11 13-10 21-10 3 0 6 2 8 4 8 14 0 1 0 2-2 12-21 24-22 16-45 16-30-1-43-28-21 26-59 27-9 0-16-2-43-13-43-94 0-40 8-79 1-2 1-4 8-27 22-27 17 0 18 19 0 4-2 17-9 55-9 79 0 51 26 52 33-1 46-90m209 72q0 1 0 1 8 23 21 23 7-1 24-11 15-10 23-10 4 0 7 2 7 5 7 11-1 14-20 28-22 16-46 16-16 0-28-8-27-20-27-80 0-11 1-24 2-25 4-31-17 9-34 9-2 0-6-1-2 0-3 0 0 0-5 3-17 10-27 10-3 0-6-2-7-4-7-11 0-1 0-3 1-4 7-10 3-2 4-3-15-14-15-38 0-11 5-20 11-18 34-18 12 0 23 6 18 11 18 30 0 12-4 21 4-2 13-8 18-13 26-13 10 0 17 6 4 3 4 7 0 2-1 5-1 2-1 3-12 43-12 74 0 13 3 30 1 4 1 6m-77-128q0-1-1-3-2-6-9-6-1 0-3 0-7 2-7 9 1 12 13 18 7-8 7-18" />
</svg>