<svg id="fnt-Victor Mono" viewBox="0 0 3265 1000" xmlns="http://www.w3.org/2000/svg"><path id="victor-mono" class="f" d="M169 667h-38l-112-400h40l91 331 91-331h40l-112 400m313 0h-37v-298l23 23h-86v-34h100v309m88 0h-213v-35h213v35m-117-366q-19 0-27-7t-7-25q0-18 7-25t27-7q19 0 26 7t8 25q0 18-8 25t-26 7m306 373q-46 0-73-16t-39-51-11-95q0-60 11-95t39-51 75-15q26 0 44 5t33 18 29 35l-31 19q-11-17-21-26t-23-13-31-4q-33 0-53 12t-27 39-8 76q0 48 8 76t26 39 52 12q19 0 31-4t24-13 22-26l31 19q-14 22-29 35t-34 18-45 6m324 0q-34 0-54-12t-29-37-8-66v-169h-62v-35h62v-88h37v88h104v35h-104v169q0 44 12 62t42 18q18 0 28-3t16-9 10-19l35 12q-7 20-17 32t-28 17-44 5m267 0q-42 0-67-16t-36-51-10-95q0-60 10-95t36-51 67-15q43 0 68 15t35 51 11 95q0 60-11 95t-35 51-68 16m0-35q30 0 46-12t24-39 7-76q0-49-7-76t-24-39-46-12q-29 0-46 12t-23 39-7 76q0 48 7 76t23 39 46 12m244 28h-37v-309h37v47q6-14 18-26t28-20 36-8q26 0 43 6t29 21 22 40l-34 15q-6-19-14-29t-18-15-28-4q-23 0-39 10t-25 27-14 36-4 37v172m568 0h-38l7-400h36l83 215 83-215h37l7 400h-38l-5-304-67 178h-34l-66-178-5 304m388 7q-42 0-67-16t-36-51-10-95q0-60 10-95t36-51 67-15q43 0 68 15t35 51 11 95q0 60-11 95t-35 51-68 16m0-35q30 0 46-12t24-39 7-76q0-49-7-76t-24-39-46-12q-29 0-46 12t-23 39-7 76q0 48 7 76t23 39 46 12m231 28h-38v-309h38v22q13-15 32-22t51-7q38 0 60 11t30 37 9 72v196h-37v-196q0-33-6-52t-19-26-37-8q-33 0-51 7t-25 23-7 50v202m369 7q-42 0-67-16t-36-51-10-95q0-60 10-95t36-51 67-15q43 0 68 15t35 51 11 95q0 60-11 95t-35 51-68 16m0-35q30 0 46-12t24-39 7-76q0-49-7-76t-24-39-46-12q-29 0-46 12t-23 39-7 76q0 48 7 76t23 39 46 12" />
</svg>