<svg id="fnt-Voltaire" viewBox="0 0 1361 1000" xmlns="http://www.w3.org/2000/svg"><path id="voltaire" class="f" d="M118 676h-3l-114-398h50l55 208 10 59h1l10-59 55-208h50l-114 398m228-5q-41 0-68-33t-28-101 28-101 68-33 68 33 28 101-28 101-68 33m0-42q13 0 24-9t18-28 7-55-7-55-18-28-24-9q-13 0-24 9t-18 28-7 55 7 55 18 28 24 9m181 38h-44v-389h44v389m157-39v43q-35 0-54-9t-28-28-8-46v-140h-20v-41h20v-86h44v86h42v41h-42v141q0 12 3 21t13 14 30 4m103 43q-36 0-55-24t-20-60q0-39 30-64t92-25v-5q0-25-8-37t-33-12q-14 0-30 5t-25 11l-17-39q14-8 34-13t44-5q41 0 60 21t19 67v180h-28l-12-27q-7 11-20 19t-31 8m13-40q11 0 21-6t13-14v-74h-4q-37 0-55 14t-18 37q0 18 9 31t34 12m156-268q-15 0-24-9t-8-21q0-13 8-22t24-9q14 0 23 9t9 22q0 12-9 21t-23 9m20 304h-44v-260h44v260m110 0h-46v-264h29l9 26q15-12 33-19t37-7v48q-20 0-35 4t-27 12v200m198 4q-30 0-53-16t-37-46-14-74q0-44 14-73t37-44 48-15q31 0 51 19t27 53-2 80h-129q3 28 13 45t23 23 27 7q13 0 26-4t19-9l17 37q-11 7-30 12t-37 5m-6-226q-20 0-34 18t-18 52h88q2-28-3-43t-13-21-20-6" />
</svg>