<svg id="fnt-VT323" viewBox="0 0 973 1000" xmlns="http://www.w3.org/2000/svg"><path id="vt323" class="f" d="M180 427q2 8 2 20 0 11-2 20 2 8 2 20 0 11-2 20h-15q2 8 2 20 0 11-2 20h-15q2 8 2 20 0 11-2 20h-10q2 8 2 20 0 11-2 20h-20q2 8 2 20 0 11-2 20h-40q-2-9-2-20 0-12 2-20h-20q-2-9-2-20 0-12 2-20h-10q-2-9-2-20 0-12 2-20h-15q-2-9-2-20 0-12 2-20h-15q-2-9-2-20 0-12 2-20-2-9-2-20 0-12 2-20-2-9-2-20 0-12 2-20h40q2 8 2 20 0 11-2 20 2 8 2 20 0 11-2 20 2 8 2 20 0 11-2 20h15q2 8 2 20 0 11-2 20h15q2 8 2 20 0 11-2 20h20q-2-9-2-20 0-12 2-20h15q-2-9-2-20 0-12 2-20h15q-2-9-2-20 0-12 2-20-2-9-2-20 0-12 2-20-2-9-2-20 0-12 2-20h40q2 8 2 20 0 11-2 20m202-20q0 11-2 20h-60q2 8 2 20 0 11-2 20 2 8 2 20 0 11-2 20 2 8 2 20 0 11-2 20 2 8 2 20 0 11-2 20 2 8 2 20 0 11-2 20 2 8 2 20 0 11-2 20h-40q-2-9-2-20 0-12 2-20-2-9-2-20 0-12 2-20-2-9-2-20 0-12 2-20-2-9-2-20 0-12 2-20-2-9-2-20 0-12 2-20-2-9-2-20 0-12 2-20h-60q-2-9-2-20 0-12 2-20h160q2 8 2 20m190 80q0 11-2 20h-20q2 8 2 20 0 11-2 20h20q2 8 2 20 0 11-2 20 2 8 2 20 0 11-2 20h-20q2 8 2 20 0 11-2 20h-100q-2-9-2-20 0-12 2-20h-20q-2-9-2-20 0-12 2-20h40q2 8 2 20 0 11-2 20h60q-2-9-2-20 0-12 2-20-2-9-2-20 0-12 2-20h-50q-2-9-2-20 0-12 2-20h50q-2-9-2-20 0-12 2-20-2-9-2-20 0-12 2-20h-60q2 8 2 20 0 11-2 20h-40q-2-9-2-20 0-12 2-20h20q-2-9-2-20 0-12 2-20h100q2 8 2 20 0 11-2 20h20q2 8 2 20 0 11-2 20 2 8 2 20m200 0q0 11-2 20h-25q2 8 2 20 0 11-2 20h-25q2 8 2 20 0 11-2 20h-25q2 8 2 20 0 11-2 20h75q2 8 2 20 0 11-2 20h-140q-2-9-2-20 0-12 2-20h25q-2-9-2-20 0-12 2-20h25q-2-9-2-20 0-12 2-20h25q-2-9-2-20 0-12 2-20h25q-2-9-2-20 0-12 2-20-2-9-2-20 0-12 2-20h-70q2 8 2 20 0 11-2 20h-30q-2-9-2-20 0-12 2-20h20q-2-9-2-20 0-12 2-20h100q2 8 2 20 0 11-2 20h20q2 8 2 20 0 11-2 20 2 8 2 20m200 0q0 11-2 20h-20q2 8 2 20 0 11-2 20h20q2 8 2 20 0 11-2 20 2 8 2 20 0 11-2 20h-20q2 8 2 20 0 11-2 20h-100q-2-9-2-20 0-12 2-20h-20q-2-9-2-20 0-12 2-20h40q2 8 2 20 0 11-2 20h60q-2-9-2-20 0-12 2-20-2-9-2-20 0-12 2-20h-50q-2-9-2-20 0-12 2-20h50q-2-9-2-20 0-12 2-20-2-9-2-20 0-12 2-20h-60q2 8 2 20 0 11-2 20h-40q-2-9-2-20 0-12 2-20h20q-2-9-2-20 0-12 2-20h100q2 8 2 20 0 11-2 20h20q2 8 2 20 0 11-2 20 2 8 2 20" />
</svg>