<svg id="fnt-Vujahday Script" viewBox="0 0 3044 1000" xmlns="http://www.w3.org/2000/svg"><path id="vujahday-script" class="f" d="M69 686q-6 0-9-3-3-3-5-11t-1-16q0-4 0-8t1-6q4-16 6-23t3-10 1-4 0-3q0-1 0-4t0-6q1-6 4-16t6-20 4-14v-1l21-60q2-11 8-24t6-29q0-7-1-11t-3-11q0-5-2-8t-2-8q0-3 1-4 2-7 8-11t13-3q2 0 3 0t4 1q5 1 7 5t7 6 5 17q0 10-2 24t-6 27-7 25-7 16q-15 21-23 46t-14 49-10 45q-1 7-1 9 0 2 0 2t2 3q0 1 2 5t3 5q22-22 40-43t35-41 38-43 46-47q2-2 8-7t9-7q1-1 2-4t4-4q38-35 69-58t56-39 41-27q11-7 23-12t18-5q5 0 5 4 0 2-3 7-3 2-9 6t-13 8-8 6-8 6-13 6-8 5q-9 8-27 20t-37 26-38 28-30 25q-33 32-55 56t-37 41-25 30-21 23-23 21q-2 1-7 8t-10 14-8 10v-1q-3 3-9 6t-9 6q-2 1-8 3t-10 2m188-13q-6 0-10-4t-4-11q0-2 0-4t1-4q2-10 8-26t15-33 18-33q8-13 16-22t13-16q4-5 4-9t2-6q2-6 6-8t8-4q8-3 16-7t14-3q3 0 6 5t2 1v0q1 1 1 4 0 6-6 11t-20 22q-15 15-25 28t-17 24h0q-13 20-18 34t-8 25q-1 2 0 3t2 1q2 0 4 0 8-3 18-11t22-17 18-15q3-3 5-4t4-2q2-2 3-4t4-4q18-15 34-33t29-30 16-18q7-6 15-6 12 0 15 12 2 7-3 10t-7 7q-2 3-8 11t-14 20-13 21-10 17q-3 5-4 8t-3 6v0q0 1-1 5t-1 6q-2 4-2 7t1 2q0 1 3-1t5-4q1-1 4-2t4-1l5-2q0 0 7-5t14-8 7-5q6-3 6-3t3-1 11-7q9-6 14-6 3 0 3 3 0 2-3 6t-11 9q-13 8-28 19t-28 17q-4 3-9 6t-9 7l-1 0q-1 0-5 4t-4 4q-2 2-3 5t-5 5h1q-2 1-5 1t-4 0q-7 0-8-1-1-1-3-2t-3-3q-1-4-1-7 0-9 5-22t13-27q6-12 9-19t5-12 3-9q-7 6-14 13t-18 16q-1 1-4 2t-4 2l-13 13q-15 13-27 25t-27 20v0q0 0-1 1t-2 3v0q-2 1-4 1t-2 0q-3 2-6 3t-6 3q-6 3-10 3m311-219h-1q-5 0-6-4t-2-6q0-2 0-5t-1-6q0-4 1-8t5-5q21-11 32-11 8 0 10 4t3 12q0 2 0 4t-1 4q-1 7-9 9t-14 5q-4 2-9 4t-8 3m-229 400q-17 0-27-12t-14-26-4-27q3-12 4-19t9-16q4-4 6-4 2 0 2 5t0 11q0 8 0 20t1 24 7 20 16 9q19 0 33-10t27-25 23-32q4-6 9-11t8-10q4-6 6-13t6-11q16-22 26-48t23-51q0-2 0-5t0-4q0-19 7-37t14-35q6-15 7-25t1-15 6-10q8-6 17-6 12 0 14 8 1 2 1 4t0 5q0 4-1 8-3 3-3 6 0 1 0 1t1 3-1 4-4 8q-2 5-3 8t-3 6q0 4-2 14t-10 21-12 25-6 25-11 26q-6 17-14 33t-19 34q-12 16-26 37t-32 41-38 33-44 13m230-181q-6 0-10-4t-4-11q0-2 0-4t1-4q4-16 13-39t25-48 40-50q17-18 37-26t43-7h0q17 0 23 8t5 18q0 11-3 17l0 0q-2 2-5 2-3 0-5-2t-2-5q0-5-2-9t-4-6q-1-1-3-1t-4 0h-1q-1 0-3-1t-3-1q-19 0-47 27-28 28-42 48t-20 35-7 27q-1 4 2 4 6 0 14-5t17-12 18-15 13-11q3-3 5-4t4-2q2-2 3-4t4-4q18-15 29-25t17-14 11-10q6-6 14-6 12 0 15 12 2 7-4 10t-8 6q-4 5-8 15t-12 23q-5 9-8 19t-2 15l8-5q7-3 14-6t13-5q3-2 6-2 4 0 4 3 0 4-6 8-15 11-23 15t-18 14q-2 2-9 9t-8 9q-2 1-5 1t-4 0q-7 0-8-1-1-1-3-2t-3-3q-1-4-1-7 0-9 5-22t13-27q6-12 9-19t5-12 3-9q-7 6-14 13t-18 16q-1 1-4 2t-3 3l-14 12q-14 11-25 21t-22 18-28 17q-6 3-10 3m212-6q-5-2-5-11 0-5 2-12t5-17v2q1 0 2-4t1-4q0-3 4-7t3-4v0q1-2 0-3t1-4q5-11 9-16t7-12v1q1 0 1-4t3-6v1q0-2 2-4t2-2q5-8 6-12t4-8 8-11h0q2-2 5-8t7-11 4-2v1q0 1 4-5t9-15 10-16 6-8v0q1-1 4-7t4-5h-1q5-8 7-13t4-8 8-12l18-22q2-3 6-9t8-8q7-4 17-7t18-3q6 0 9 2t5 7q-1 7-6 17t-15 19q-6 5-14 7t-12 7h0q-5 8-14 19t-12 16q-4 5-9 9t-8 9q-7 10-11 17t-7 14-11 15q-14 16-19 25t-6 21q2-3 4-5 11-11 31-24t41-25h1q0 0 5-3t10-6 10-7 3-2h-1q6-4 19-8 23-8 39-8 11 0 16 4 5 4 5 12 0 6-3 15v-1q-1 0-2 3t-4 7q0 2-3 6t-3 4v0q-3 6-5 8t-6 8q-5 6-12 17t-14 24-9 24q-1 3-5 9t-3 8v0q0 1 2 3t3 2q1 2 1 5 0 5-4 9t-13 5q-6 0-8-3t-4-7v-5l-2 1h-1q-2 0-4-3v0q0-2-1-6t0-6q0-3 3-10t6-15 5-10q2-6 10-17t17-22 14-18q2-5 3-9t1-6q0-6-3-9t-8-3q-2 0-7 1t-10 3q-2 0-8 4t-10 6-3 3h0q-4 3-7 4t-8 6q-2 1-8 5t-13 8-8 6q-25 17-47 37t-39 43q-2 2-3 7t-2 7q-2 4-4 5t-3 2q-4 5-8 6t-6 2m248 6q-6 0-10-4t-4-11q0-2 0-4t1-4q5-16 14-39t25-48 39-50q7-7 20-13t25-11 17-8-3-2h0q1-1 3-2t4 0q4 0 7 1t7 2h1q12 0 18 4t8 12 2 13q0 1 0 3t-1 3q6-10 12-22t10-19 5-10v1q0 2 2-2t2-4q7-12 8-20t10-20h0q1-2 5-9t9-13 6-9q6-5 19-11t25-6q6 0 10 3t5 8q0 8-4 13t-11 9-15 13q-6 7-19 27t-32 47q-17 25-26 38t-13 19-4 9l0 0q-5 5-9 15t-12 23q-4 8-5 12t-3 13q-2 4-3 7t1 2q0 1 3-1t6-4q1-1 4-2t4-1l0 0q5-2 6-2h1q1 0 3-1t8-5q4-2 6-2 4 0 4 3 0 4-6 8-14 11-23 15t-18 14l0 0q-1 0-5 4t-4 4q-2 2-4 5t-4 5h0q-2 1-4 1t-4 0q-7 0-9-1-1-1-3-2t-2-3q-1-4-1-7 0-9 4-22t13-27q7-12 10-19t4-12 4-9q-7 6-15 13t-17 16q-2 1-5 2t-4 2l-12 13q-16 13-28 25t-26 20v0q-1 0-2 1t-2 3v0q-2 1-3 1t-3 0q-3 2-6 3t-5 3q-6 3-11 3m25-32q1 0 4 0 7-3 18-11t21-17 19-15q2-3 4-4t4-2q3-2 4-4t3-4q18-15 29-25t17-14 11-10q2-1 4-4t4-6h-1q-3 0-5-2t-3-5q0-5-2-9t-4-6q0-1-2-1t-5 0h0q-2 0-3-1t-3-1q-19 0-47 27-29 28-43 48t-19 35-8 27q0 2 0 3t3 1m191 32q-6 0-10-4t-4-11q0-2 0-4t1-4q4-16 13-39t25-48 40-50q17-18 37-26t43-7h0q17 0 23 8t5 18q0 11-3 17l0 0q-2 2-5 2-3 0-5-2t-2-5q0-5-2-9t-4-6q-1-1-3-1t-4 0h-1q-1 0-3-1t-3-1q-19 0-47 27-28 28-42 48t-20 35-7 27q-1 4 2 4 6 0 14-5t17-12 18-15 13-11q3-3 5-4t4-2q2-2 3-4t4-4q18-15 29-25t17-14 11-10q6-6 14-6 12 0 15 12 2 7-4 10t-8 6q-4 5-8 15t-12 23q-5 9-8 19t-2 15l8-5q7-3 14-6t13-5q3-2 6-2 4 0 4 3 0 4-6 8-15 11-23 15t-18 14q-2 2-9 9t-8 9q-2 1-5 1t-4 0q-7 0-8-1-1-1-3-2t-3-3q-1-4-1-7 0-9 5-22t13-27q6-12 9-19t5-12 3-9q-7 6-14 13t-18 16q-1 1-4 2t-3 3l-14 12q-14 11-25 21t-22 18-28 17q-6 3-10 3m176 181q-17 0-27-12t-14-26-4-27q3-12 4-19t9-16q4-4 6-4 2 0 2 5t0 11q0 8 0 20t1 24 7 20 16 9q19 0 33-10t27-25 23-32q4-6 9-11t8-10q4-6 6-13t6-11q16-22 27-48t26-51q2-6 7-17t10-24 8-17q4-12 5-14v-1q-5 4-6 5t-2 2-9 8l-1 0q-1 0-6 4t-10 9-7 5q-3 2-10 9t-9 8q-13 12-25 21t-27 18q0 0-1 2t-2 2h-1q-1 1-3 1t-2 1l-12 5q-6 3-11 3-5 0-9-4t-4-11q0-1 0-4t1-4q4-15 11-35t22-43q3-6 4-8t1-4v-2q0-1 0-2t3-5q4-6 4-9t2-6q2-6 6-9t8-3q8-4 16-7t14-3q7 0 9 6 0 2 0 3t0 3q0 9-5 16t-16 15q-4 4-6 6t-5 5-7 11h0q-13 19-19 33t-7 25q-1 2 0 3t2 1q2 1 4 0 8-3 18-11t22-17 20-15q2-2 5-4t4-2q3-2 4-4t4-4q20-15 31-28t16-21 11-12q6-5 11-5 5 0 8 4t4 8q1 4 1 8 0 6-2 10-3 5-3 8t-2 9q-3 5-6 12t-6 11q-4 11-11 26t-16 28-13 22-5 9q-6 17-15 36t-20 36q-12 16-26 37t-32 41-38 33-44 13m476-151q-9 0-16-1-12-3-12-12 0-7 7-15t20-11q4 0 2 4t-4 7-3 8q0 3 5 3 2 0 3 0t4-1q7-1 18-3t22-2 18-3q11-3 22-9t19-9q2 0 4 0t4 0 4-1q5-3 9-6t8-6q6-6 10-12t4-12q0-7-4-14-5-9-24-18t-42-17q-4-1-8-5t-7-4q-1 0-3-1t-2 0q-4 0-7 1t-8 0q-7 0-13-5t-12-6q-39-14-39-40 0-15 11-33v1q2-3 5-3t5-2q3-4 3-10t3-8q7-9 15-18 18-20 41-38t45-33 41-19q20-7 48-15t55-7q23 0 40 9t21 31q1 4 1 7t0 6q0 20-10 36t-22 28-18 21q-2 3-5 5t-7 6q-2 2-6 5t-8 6-10 8-11 7q-1 1-4 1-5 0-9-4t-4-8q0-3 2-8t8-10l1 0q0 0 7-2t15-7q3-3 7-8t10-12q1-1 3-5t4-7q6-8 10-19t10-20v0q2-4 2-8 0-8-4-18t-8-18-13-6q-21 3-45 6t-41 9q-14 5-29 13t-29 18q-3 3-7 3t-6 3q-3 3-7 8t-7 7q-26 23-43 47t-17 43q0 13 8 22t26 14q17 5 37 12t40 16 32 18 18 18q3 7 3 13 0 15-14 29t-35 24-46 19-49 13-42 4m278-29q-1 0-6-2t-10-5-7-2h0q-7 0-10-4t-3-10-2-10q-2-6-2-13 0-22 15-52t41-59q18-20 37-32t33-13q8-1 17 4t12 5h0q14 0 19 9t5 18q0 8-3 15-4 5-11 5-10 0-13-6-3-8-13-12t-18-5-18 8-20 18q-30 31-42 58t-12 43q0 2 0 4t1 3v1q0 3 6 7t15 3q13-2 22-5t23-11q1 0 5-2t9-6 6-2q5-3 6-3t3-2 10-6q9-6 14-6 4 0 4 2 0 2-4 6t-11 10q-10 6-16 10t-11 6-11 10l-1 0q-1 0-5 2t-8 4-5 2q-2 2-10 5t-17 7-14 3m132-7q-5-1-5-11 0-16 10-35 3-4 5-7t2-8q0-3 3-10t7-13 7-13 3-6q1-3 2-6t1-3q5-8 12-19t18-25h-1q7-12 13-20t11-13q16-16 36-16 13 0 13 11 0 9-12 19-4 4-9 8t-9 8q-4 4-11 13t-16 22q-1 1-6 7t-8 12-6 12 2 4q7-10 34-29 12-8 19-16t15-13q3-1 6-3t6-6h1q13-7 29-16t32-19q2-1 4 0 23-8 31-8t9 7q0 2-2 8t-4 11-9 6h-22q-17 6-36 13t-38 22h-1q-73 49-110 103 0 2-2 6t-3 8q-8 13-21 15m320-213h-1q-4 0-6-4t-1-6q-1-2-1-5t-1-6q0-4 1-8t5-5q12-6 20-8t13-3q7 0 10 5t2 11q0 2 0 4t0 4q-2 7-10 9t-14 5q-3 2-8 4t-9 3m-110 215q-2 0-3-3-1-4-3-7t-1-9q0-7 3-20t11-41q7-20 12-33t12-24v0q1-2 4-4t4-3h0q1-1 0-3t0-4q0-6 3-10t8-7q4-4 13-9t20-7q1 0 3 0t3 0q8 0 13 3t6 8q1 1 2 2t1 4-2 5-7 8q-2 3-7 6t-9 8q-5 5-9 11t-9 11q-3 5-7 9t-8 9q-2 2-3 7t-5 9q-3 5-8 7t-6 7v0q-3 4-6 10t-6 12q-5 10-6 14t-2 8q0 3 1 4t1 5q-2 4-6 11t-7 6m19 138q-6 0-7-4v1q-1-4-2-6t-1-6q0-4 1-11t7-17q3-8 10-20t13-24q3-9 12-27t22-39 23-43 21-36 12-21v1q1-2 4-4t5-3q0-2 0-5t1-5v0q2-5 5-8t7-6q4-4 13-9t22-7h-1q2-1 5-1 7 0 7 6 0 2-2 5t-2 6q0 2-2 3t-1 4q15-11 35-22t43-18q21-6 33-6 12 0 19 6 13 10 13 29 0 4-1 9t-2 11q-1 4-2 7t-3 9q-7 14-19 27t-27 27q-2 2-3 4t-3 6q-3 2-8 5t-6 4q-14 11-36 24t-53 21h0q-9 1-20 3t-21 2q-11 0-20-4t-11-14q-6 12-13 24t-9 15q-2 2-6 10t-7 15-6 12h0q-3 4-4 10t-3 13q-4 10-5 16t-1 9-1 8q-2 4-11 9t-14 5m124-146q9 0 21-3 17-4 29-7t21-10q8-5 16-12 2-2 8-7t7-8q5-4 9-8t8-8q3-4 9-12t13-17 12-20 4-19q0-9-6-13-3-2-7-4t-7-1q-7 0-18 4-11 3-16 4t-9 2-13 6q-2 2-9 8t-8 6h0q-4 2-12 8t-12 9q-3 2-8 6t-7 6q-10 8-16 19t-16 22q-1 0-4 7t-7 15-4 8q-2 2-2 6 0 2 1 4t1 4q2 2 8 3t14 2m212 9q-5 0-6-4-2-5-5-10t-1-15q0 0 2-6t4-10q3-6 5-12t6-17q2-5 5-15t8-19v0q8-13 16-27t17-26q-3 2-7 3-6 2-12 4t-11 3q-7 0-9-5t-2-5v-1q0-5 0-12t8-10h0q1 0 3 0t3 1q2-1 5-3t7-2h0q9 0 18-1t16-2q3-4 6-8t2-4q0-3 3-8t5-6q1-3 4-6t4-4v-1q0-1 0-3v-4q0-3 1-6t3-4q3-4 5-9t9-9q5-3 9-3 7 0 10 6t6 9q0 2 5 4t5 6q0 4-6 10-2 2-7 7t-9 10q-4 3-13 16 8 0 17-2t17-2q3 0 9-2t11-1q2 0 3 2t2 5q-2 3-9 5t-9 3q-2 0-10 2t-18 3-12 2q-3-1-6 3t-7 4q-3 4-6 6t-6 5q-6 10-11 16t-6 10q-3 3-7 9t-9 13-7 9q-2 3-7 10t-7 10q-3 3-4 6t-4 8v-1q-3 5-6 12t-4 14q0 2-1 5t0 6q0 6 1 11t1 10q0 7-6 12t-11 5m171-199v0t0 1l0-1" />
</svg>