<svg id="fnt-Quintessential" viewBox="0 0 2835 1000" xmlns="http://www.w3.org/2000/svg"><path id="quintessential" class="f" d="M455 690q-19 10-33 16t-25 9q-12 3-20 4-15 0-34-7t-38-15-39-19-33-17q-17 5-34 8t-32 3q-14 0-31-4t-33-14-32-22-27-31-18-39-7-47q0-31 6-56t18-45 25-36 30-26 33-19 32-12 28-7 22-2q18 0 36 4t36 12 33 20 27 32 19 42 7 55q0 29-7 53t-19 44-28 35-34 28q16 10 33 20t32 19 34 14 35 5q8 0 18-1t20-4m-129-198q0-40-12-69t-30-48-46-27-54-9q-17 0-33 3t-29 10-25 18-20 28-12 41-5 53q0 27 7 49t18 39 26 29 32 20 35 12 34 4q22 0 43-9t36-27 25-47 10-70m351 91v21q-11 10-19 17t-12 11q-6 5-9 8-4 4-10 9t-13 11-15 8-14 4q-10-1-14-18t-5-47v-23q-8 11-16 20t-13 16q-7 7-13 13-12 12-23 20t-19 12-16 6-12 1q-5-1-9-5t-7-12-4-20-2-31 1-38 2-35 2-31 2-24q1-12-3-19t-11-8q-5 0-11 3t-14 9q6-6 14-13t16-16 18-12 16-5q6 0 9 3t4 7 2 10 0 8q0 18-1 35t-3 34-3 34-1 34q0 11 1 22t4 19 8 13 13 4q10-1 20-9t19-20 17-27 11-32q1-2 2-4 0-3 1-5t2-6q1-24 4-47t6-46l47-34q-9 45-14 86t-5 82q0 19 2 31t5 18 8 8 10 0q5-2 11-9 6-5 14-14t20-27m-279-121l2-1-2 1m404 129l-6 20q-4 4-10 10t-13 13-15 14-15 12-15 9-12 2q-8-1-12-12t-4-35q0-5 1-15t1-23 1-29 2-31 2-32 2-28q1-9-3-13t-10-3q-5 0-11 2t-10 7q10-10 17-16t13-11q6-5 11-8 6-3 12-4t10 3 7 9 2 13q0 6-1 17t-2 27-2 32-3 33-2 28-1 20q0 14 3 22t12 9q6 0 13-5t16-12 13-14 9-11m-82-326l40-34q1 12 0 21t-3 16q-2 8-4 14-3 5-9 12-5 6-14 14t-23 16q4-9 7-20t4-19q2-10 2-20m159 161q1 5 2 13t0 20q0 7 0 16t-1 18q7-10 16-21t17-21 19-18 21-14 22-6 22 2q7 2 11 6t6 9 3 13 1 16q0 19-1 38t-3 36-4 37-1 36q0 12 2 19t7 8q6 0 12-4 6-4 14-12t17-22l-2 19q-7 7-15 17t-18 20-20 15-18 5q-9-1-15-11t-6-29q0-10 1-24t2-28 3-31 2-29 3-25 1-19-1-14-6-10-9-7-11-2q-6 0-14 3t-15 11q-3 3-9 10t-11 17-13 24-13 34q0 6-1 11t0 10q0 12-1 25-1 11-2 25t-2 29l-39 34q3-59 5-98t3-61q2-26 3-40 1-17-5-23t-12-7q-6 0-13 3t-13 10q6-7 14-15t16-14 17-11 17-5q5 0 9 3t6 9m344 160l-5 25q-5 4-13 11t-16 15-18 15-18 12-19 7-16-1q-5-2-9-5t-5-10-4-16-1-24q0-44 2-85t4-81q-10 1-20 3t-15 6q15-14 24-26t13-20l3-45 42-35-5 88q6 0 10 0t9 0q22 0 40-4t35-10q-16 13-30 20t-27 13-22 7-17 3q-2 44-4 71t-2 42q-1 17-1 26 0 12 2 21t7 15 11 9 14 0q6-2 14-8 7-4 16-14t21-25m-155-127l2-1-2 1m313 110v27q-13 14-24 25t-19 19q-10 9-18 15-21 17-37 17-9 0-16-4t-11-13-7-17-5-19-2-19-1-14q0-17 4-36t11-38 18-36 24-31 30-22 35-8q5 0 8 2t6 5 3 7 1 8q0 11-5 22t-13 21-19 20-22 19-22 17-21 14v5q0 6 1 15t2 18 4 19 7 16 10 12 13 5q4 0 7-2t8-3q6-5 14-14 7-8 16-21t20-31m-46-117q-2-4-7-5t-10 1-10 5-9 11q-5 10-10 28t-9 42q8-5 16-11t16-13 14-14 10-15 4-15-5-14m204-29q-1 3-6 8-3 3-11 10t-20 15q0-4-1-7t-3-4q-2-2-5-2-16-3-25 0-2 1-3 4t-1 10q0 13 5 24t12 20 17 17 16 17 13 18 5 21q0 10-4 20t-13 19q-7 8-15 15t-17 15-17 13-18 10q-15 5-29 5-9 0-16-3t-8-8q-1-4 2-11t10-13 13-12 10-9q-1 12 5 17t19 6q7 0 14-1t14-4 10-8 4-10q-1-14-6-25t-13-21-16-20-16-20-13-21-5-24q0-6 1-11t5-10q5-8 15-17t21-17 22-13 18-6q8-1 14 0t10 3 5 5 1 5m156 0q-1 3-6 8-3 3-11 10t-20 15q0-4-1-7t-3-4q-2-2-5-2-16-3-25 0-2 1-3 4t-1 10q0 13 5 24t12 20 17 17 16 17 13 18 5 21q0 10-4 20t-13 19q-7 8-15 15t-17 15-17 13-18 10q-15 5-29 5-9 0-16-3t-8-8q-1-4 2-11t10-13 13-12 10-9q-1 12 5 17t19 6q7 0 14-1t14-4 10-8 4-10q-1-14-6-25t-13-21-16-20-16-20-13-21-5-24q0-6 1-11t5-10q5-8 15-17t21-17 22-13 18-6q8-1 14 0t10 3 5 5 1 5m169 146v27q-13 14-24 25t-19 19q-10 9-18 15-21 17-37 17-9 0-16-4t-11-13-7-17-5-19-2-19-1-14q0-17 4-36t11-38 18-36 24-31 30-22 35-8q5 0 8 2t6 5 3 7 1 8q0 11-5 22t-13 21-19 20-22 19-22 17-21 14v5q0 6 1 15t2 18 4 19 7 16 10 12 13 5q4 0 7-2t8-3q6-5 14-14 7-8 16-21t20-31m-46-117q-3-4-7-5t-10 1-10 5-9 11q-5 10-11 28t-8 42q8-5 16-11t16-13 14-14 10-15 4-15-5-14m146-26q2 5 2 13t1 20q0 7 0 16t-1 18q7-10 15-21t18-21 19-18 20-14 22-6 23 2q6 2 10 6t7 9 3 13 1 16q0 19-2 38t-3 36-3 37-2 36q0 12 2 19t8 8q5 0 12-4 5-4 13-12t17-22l-2 19q-6 7-15 17t-18 20-19 15-18 5q-10-1-15-11t-6-29q0-10 0-24t2-28 3-31 3-29 2-25 2-19-2-14-5-10-9-7-11-2q-7 0-14 3t-15 11q-4 3-9 10t-11 17-13 24-13 34q-1 6-1 11t0 10q-1 12-2 25-1 11-2 25t-2 29l-38 34q2-59 4-98t4-61q1-26 2-40 1-17-4-23t-13-7q-6 0-12 3t-13 10q6-7 13-15t16-14 17-11 17-5q6 0 9 3t6 9m345 160l-5 25q-6 4-13 11t-16 15-18 15-19 12-18 7-17-1q-5-2-8-5t-6-10-3-16-2-24q0-44 2-85t5-81q-11 1-20 3t-16 6q16-14 24-26t14-20l3-45 42-35-5 88q5 0 10 0t9 0q21 0 39-4t35-10q-15 13-30 20t-26 13-22 7-17 3q-3 44-4 71t-2 42q-1 17-1 26-1 12 1 21t7 15 11 9 14 0q6-2 14-8 7-4 17-14t21-25m-155-127l1-1-1 1m296 132l-6 20q-4 4-10 10t-13 13-15 14-15 12-15 9-12 2q-9-1-12-12t-4-35q0-5 1-15t1-23 1-29 2-31 2-32 2-28q1-9-3-13t-10-3q-5 0-11 2t-10 7q10-10 17-16t13-11q6-5 11-8 6-3 12-4t10 3 7 9 2 13q0 6-1 17t-2 27-2 32-3 33-2 28-1 20q0 14 3 22t12 9q6 0 13-5t15-12 14-14 9-11m-82-326l40-34q1 12 0 21t-3 16q-2 8-4 14-3 5-9 12-5 6-14 14t-23 16q4-9 7-20t4-19q2-10 2-20m323 319v19q-3 4-6 8t-8 10q-5 5-10 11-6 8-13 15t-15 13-14 9-12 3q-10 0-14-12t-4-35q0-13 0-27t3-31q-6 8-11 15t-8 13q-5 6-9 11-13 16-25 28t-22 21-18 12-12 5-11-3-12-13-9-27-4-46 6-49 15-38 20-27 22-20q23-18 44-28t41-11q6 0 13 0 5 1 12 2t12 3l7-5q-1 6-3 18t-3 26-3 32-2 33-3 33-1 28-1 22 0 13q2 14 7 19t14-1q4-3 9-10 5-5 12-14t16-25m-89-79l5-57q-23-3-38-3-16 0-27 5t-21 14-13 20-9 24-4 26-1 25q0 4 1 11t1 15 4 16 5 15 8 11 10 5q7 0 16-7t22-24q7-10 15-24 6-13 13-30t13-42m232 70l-5 28q-5 6-11 14t-12 15-15 16-15 13-17 9-17 3q-8-1-12-7t-8-15-3-22 0-25q0-7 1-24t2-39 3-51 3-55 3-55 3-49 2-37 0-20q0-14-2-21t-10-7q-8 0-24 7 11-9 19-16t13-11q6-4 10-7 7-6 16-6 7 0 13 5t4 18q0 4-1 20t-2 37-2 50-2 57-3 58-2 54-2 44-1 29q0 14 2 24t4 15 7 9 9 3q6 0 11-3t11-9 10-12 9-14 6-13 5-10" />
</svg>