<svg id="fnt-Qwitcher Grypen" viewBox="0 0 2132 1000" xmlns="http://www.w3.org/2000/svg"><path id="qwitcher-grypen" class="f" d="M292 711q-13 0-29-4t-27-8q-6-2-12-5t-12-2v-1q-13-4-26-9t-27-7q-17-4-32-3t-29-3-27-17q-2-3-5-7t-4-7q-8-3-18-6t-20-3q-4 0-10 2t-5 7q0 2 1 4t2 5h-1q-1 0-1-1-7-7-7-18 0-13 14-13 12 0 22 4t22 9h0l1-1v-1q0-4 1-7t2-5h1v1q2 4 3 9t4 9q6 4 17 7t17 6q3 1 10 3t16 6 15 6 9 2q8-3 15-6t15-7q5-2 13-8t12-6l1-1q21-17 42-34t37-41q1-1 2-4t4-2q1-6 5-10t6-9q5-9 8-21t4-21q0-17-10-27t-23-14-28-4q-23 0-50 7t-47 18q-13 7-31 19t-34 28-27 32-10 34q0 15 7 22t19 10 24 3q5 0 11-1t12 0q5-2 18-6t27-8 26-10 10-10h2q-1 5-5 8t-7 7q-16 14-37 20t-41 6q-11 0-26-2t-28-8-18-18q-3-5-5-12t-2-13q0-5 1-10t3-9l5-5q0-3 4-10t10-15 13-15 9-8q0 0 1-1t1 0q2-3 5-5t7-2q0-2 2-4t3-2q5-5 8-7t5-3 10-5q12-6 24-11t26-9q1 0 6-2t8-2 5-2l3 1 5-2h4q2-2 5-2t5 1q3 0 7-1t10-1q7 0 14 0t13 1q4 0 8 1t8 2q16 5 30 16t18 28q2 6 2 14 0 16-8 32t-19 30-22 24q-2 2-5 3t-5 4q-6 5-11 11t-12 10q-18 14-39 24t-40 21q-3 1-5 2t-4 1q22 7 43 14t44 11q5 1 10 2t11 1q7 1 14 1t14 0q4 0 9-1t8-1q4-2 8-5t4-7q0-7-6-13t-10-11-5-7v0q10 7 16 10t8 9 2 20q0 3-4 7t-9 8-8 3q-2 0-3-1t-4 0q-3 2-8 3t-8 1m-165-42q2-1 6-2t4-2q-7-3-19-8t-25-9-19-4q2 11 11 16t21 7 21 2m203 4q-3 0-4-1t-4-2q-12-7-12-21 0-11 5-23t11-24 10-20 5-9q0 1 0 0t0 0l-4 1q0-1-1-1t0 0q1-2 3-4t3-3q4-4 7-11t10-7q3 0 10 2t7 6q0 1-5 7t-11 12-7 9q-5 8-12 22t-12 28-5 24q0 2 1 4t1 4h1q11-6 19-16t15-19 15-19 15-18q3-4 9-14t9-11q2-1 4-1t5 0q4 0 7 3t3 6q0 3-5 10t-5 10q-4 8-6 19t-2 20q0 5 1 11t7 9v-1h2v0q8-2 16-10t16-16 12-15q2-3 3-5t2-6q5-3 5-8 0-2-1-2 0-3 2-5t3-6q3-6 5-14t2-14q0-3-1-8t-4-5q-3 0-5 1t-5 1-2-3q2-1 5-3t5-2q9 1 15 4t8 14q0 1 1 3t0 3q0 5-3 11t-3 15l-2 1q0 1-2 5t-1 6q-4 2-7 6t-3 9q-6 4-8 9t-6 10q-7 6-10 12-7 5-16 12t-17 7q-3 0-5-1-13-4-18-11t-5-21q0-9 1-17t4-17q-4 1-10 8t-10 17-8 12q-6 11-15 20-5 5-7 8t-9 8q-3 1-6 3t-6 2m233-131q-2 0-5-2t-3-5q0-1 3-5t8-7 5-5q4 1 4 5 0 2-2 6t-5 9-5 4m-53 130q-2 0-3-1t-3-2q-3-3-5-5t-1-7q0-16 7-31t14-28q1-1 1-2t-1-2q0-5 4-11t9-11 8-8q3 0 9 1t6 5q0 0-5 6t-6 7q-7 10-16 23t-15 29-6 27q6-1 12-7t11-11h0v1q0 2-2 4t-3 3q-2 4-6 12t-9 8m86 32q-2 0-8-3t-7-5q-4-4-5-10t-1-10q0-17 7-38t16-35q1-2 4-8t6-11 3-6l-9 3-3 0v0q-5 4-13 5t-13 4l-15 8h-1q-2 0-4-3t-1-3 6-4 13-5 14-4 9-3q7-1 12-3h1v-1q3 0 7-2 10-14 19-28t21-25l11-10q4-4 6-6t7-5q4 0 10 3t6 7q0 2-5 5t-9 7-7 5l-4 1q-6 5-11 10t-10 11q-3 3-5 7t-5 7v2q-1 0-4 2t-2 4q9 0 18 1t16 8q-5-1-10-3t-10-1q-10 0-19 3 0 0-3 5t-6 8-3 5q-2 2-6 10t-9 15-4 8q0 2-1 6t-3 7l0 0v1q0 3-2 6t-2 6q-5 14-5 28 0 4 1 10t6 9q1 0 5 1t4 2q0 2-3 2m71-128q-1 0-1 0t1 0m21 96q-9 0-19-4t-15-13q-2-4-2-11 0-9 2-15t4-11 6-13q1-1 4-5t7-7 5-5l5-7q1-2 3-3t4-1q4-7 11-12 3-2 12-6t11-4q3 0 5 1t4 1l1 0q1 3 4 5t4 7q0 1-2 5t-4 8-4 4q1-3 2-6t1-6q0-2-2-5t-4-3q-6 0-15 6t-16 14-11 12q-8 9-15 18t-10 20q-1 4-2 7t-1 8q1 2 1 3t1 4q3 4 7 6t8 2q9 0 17-4t12-3q3-3 7-5t7-3q2 0 6-4t7-4q11-6 21-13t20-14q2-2 6-6t7-4q0 0 0-1 2 1 2 3 0 5-8 10t-12 8q-1 2-3 4t-4 3l0 1q-4 2-10 6t-6 5q-4 1-6 2t-6 5q-4 2-8 6t-8 3q0 1-1 1t0 0q0 3-4 3t-5 2q-5 3-10 4t-11 1m109 8q-5 0-9-2t-4-7q0-9 4-23t9-29 8-26 4-16v-1h-2q-6 0-13-4t-6-11 5-11 10-9q2-1 3-3t4-1l4-2v1q0 0-4 4t-5 6q-2 3-5 10t-2 10q0 3 2 4t4 0 5-2 4-1q0 0 3-5t3-6v-2q2-4 4-10t6-9v-1q2-5 7-15t10-20 11-20 9-13q0-1 4-6t5-7q5-7 15-17t21-19 18-11l7-3q7 2 13 6t5 12q0 9-6 22t-14 25-13 20q-4 5-8 9t-8 10q-3 2-6 5t-5 6q-3 3-10 10t-17 14-17 13-11 7l0 0q-4 4-8 5t-7 4q-2 2-5 8t-4 13-4 10q-2 6-3 12t-4 11l-3 11q0 2-2 8t-2 12 0 5q1 0 9-10t21-24 25-28 24-24 15-10h2q7 0 11 1t3 12q-6 18-15 36t-8 38q0 3 0 8t3 10 6 4q7 0 14-7t14-15 12-13v6q-1 1-2 3t-2 4q-3 5-11 13t-12 12q-1 1-4 2t-5 0q-3 0-5-1t-4-2q-17-8-17-27 0-9 0-17t4-17q2-9 4-17t4-17l-16 15q-3 2-5 5t-4 6q-2 4-6 6t-6 6q-5 5-9 10t-8 11q-3 3-7 7t-6 7q-2 3-5 8t-8 12-6 6m29-119h1q36-22 67-55t47-71q1-3 0-5t0-5q0-1-3-1t-4 0q-3 2-9 4t-8 5q-1 1-2 2t0 2l-7 6q-1 1-3 2t-3 3q-2 2-4 3t-3 4-4 4-4 3q-1 1-6 7t-9 12-10 14-5 8q0 0-1 2t-2 2q0 2-1 2l0 2h-1q-1 2-4 7t-5 5q0 0 0 0t1 0v1q0 0-3 6t-6 12-6 12-3 7m150 108q-13 0-25-8t-13-22q0-2 0-5t1-4q0-3-5-6t-4-5q0 0 1 0 2 0 4 0t4 1q2 0 4-1 1-1 4-9t10-19 16-23 24-16q3-1 6-3t7-1q5 0 11 4t7 11q0 3-2 6t-3 6l-2 1q-2 3-6 7t-3 6q0 0-1 0t0 1l-2 0q-3 2-5 5t-4 5q-10 6-19 12t-20 11q-2 1-4 2t-4 2q-2 3-3 7t-1 8q0 6 3 13t11 8q1 0 1-1t2 0q3 0 5 0t6-1l3-2h1q2 0 9-4t15-8 8-5q1-1 2-2t1-1q9-7 18-13t17-14v1h1q-1 2-4 5t-5 5q-5 10-17 19t-22 15q-4 3-7 5t-7 5q-8 2-14 2m-20-55v0q4 0 8-3t6-4l0 1v-1q10-4 18-12t17-16h1q0-3 4-7t5-6q1-1 2-3t1-3q-2-1-5-1-2 1-6 3t-7 3q0 0-5 4t-10 7-6 6q-3 2-8 9t-10 13-5 10m100 62q-3 0-6-2t-4-5q0 0 0-2t1-2l24-56q4-9 8-21t6-23 1-20q-3 0-6 1t-7 1q-1 0-1-2t1-3 5-1q1 0 5 0 6 0 13 0t8 7q0 3-3 12t-8 20-9 22-5 15q-3 5-3 7h2q4-6 9-12t9-11q3-2 9-10t13-16 13-12q1 0 4-3t4-2q2 0 3-1t4 0 2 0 3 1 7 2 9 5 5 4q0 5-4 7t-6 5q-3 4-8 9t-5 12l0 2-1 1t0-1-1 0l0 0q0-10 5-19t5-19q0-2-2-2-4 0-10 4t-11 8-6 5q-1 2-6 6t-6 6q-4 3-7 7t-5 8q-1 1-2 2t-3 2q-2 3-5 6-1 2-2 4t-2 4l-3 1q-2 4-5 7t-5 7q-2 3-4 7t-3 7q-3 4-7 9t-3 11h0q-2 1-4 1m252 87q-20 0-30-9t-10-29q0-5 1-10t3-11h1v1h1v1q-2 2-2 6 0 8 4 14t4 14q0 1 1 1 4 6 10 12t14 7q6 0 11-3t11-4q33-18 52-48t32-64q1-2 2-7t4-9 2-5h-1q6-13 10-28t8-28v-3l0 0v-1q-23 22-47 42t-51 36q-11 6-22 11t-25 6q-9 0-19-6t-16-14-6-19q0-2 1-8t3-11 3-6l-1-3q3-4 4-9t8-5l0 1q1-3 0-6 9-22 21-35t29-29q2-3 4-6t5-5q10-11 23-20t25-17q4-2 7-5t7-5q6-4 12-7t13-5q3-2 9-5t12-6 9-3v1l1-1q2-1 7-2t11-3 7-1q5 0 10 0t10 2 5 9q0 8-4 14t-8 14q0 1-1 2t-1 2q-1 0-1 0t-2 1q0 1-1 3t-2 2v0h0v-1q3-4 4-12t2-13q0-4-2-9t-7-5l-1 1q-17 0-34 7t-34 18-29 20q-3 3-7 5t-6 6l-4 5q-2 2-4 4t-4 3q-4 4-8 7t-8 8q-14 14-26 30t-21 33q-8 16-14 27t-5 31q0 12 7 16t19 4q0 0 4-2t9-3 5-1q8-3 21-11t26-17 20-15q12-10 22-21t22-20q3-3 5-6t5-4q2-2 7-9t12-13 7-7q3-1 5-1t7 1 11 4 5 5q-6 1-11 5t-11 5v0q0-1 0-1t1-1q0 0-1 0t0 0v-1h-1v1h0q-1 1-1 2t1 2 1 2h1q-1 2-5 9t-6 13-5 7q0 6-2 10t-5 10q-1 3-2 6t-1 5q-2 7-6 14t-6 13q-1 5-2 9 0 4-3 7t-3 9q-5 5-8 12t-6 13q-9 18-24 37t-32 33-41 13m166-87q-3 0-6-2t-4-5q0 0 0-2t1-2l24-56q3-9 7-21t6-23 2-20q-3 0-7 1t-6 1q-1 0-1-2t1-3 5-1q1 0 4 0 6 0 14 0t8 7q0 3-4 12t-8 20-8 22-6 15q-2 5-2 7h1q4-6 9-12t10-11q3-2 9-10t12-16 13-12q1 0 5-3t4-2q1 0 3-1t3 0 3 0 3 1 6 2 10 5 4 4q0 5-3 7t-6 5q-4 4-8 9t-5 12l-1 2 0 1t-1-1 0 0l-1 0q0-10 5-19t5-19q0-2-2-2-3 0-9 4t-11 8-6 5q-1 2-6 6t-7 6q-3 3-6 7t-6 8q0 1-2 2t-2 2q-2 3-5 6-1 2-2 4t-3 4l-2 1q-2 4-5 7t-6 7q-2 3-3 7t-4 7q-3 4-6 9t-3 11h-1q-2 1-3 1m62 142q-10 0-14-6t-4-15q0-10 4-21t10-19q4-7 9-14t9-14q13-16 31-34t36-29q12-9 25-15t26-13v1l1-1q4-2 10-5t11-2q3-1 3-2 3-3 4-10t4-13 3-10q2-3 3-6 0-1 0-3t0-3q1-5 2-10t2-11q-4 1-10 8t-9 10q-5 5-10 10t-11 10q-5 4-13 13t-17 17-19 15-15 6q-6 0-13-5t-9-9l1-1q-1-1-1-5 0-8 4-19t11-20 11-17q2-2 3-3t4-4q4-5 8-10t12-5q3 0 10 3t7 6q0 1-1 1t-3 0-2-1q-5 0-14 10t-18 23-16 25-6 18q0 3 3 3 5 0 10-3t10-7h1q22-16 42-34t40-36q4-3 6-6t7-6q4 0 9 2t6 8q0 2-1 4t-1 5q-1 5-3 10t-2 10q-1 3-2 6t-3 6q0 3-1 6t-1 6q-1 2-4 7t-2 7 2 2 4 0q10 0 15 4t6 5q-1 0-3 0t-2 1q-1-2-3-3t-4 0q-3 0-9 1t-10 5-5 8q-2 1-7 8t-6 10q0 1 0 3t-1 2q0 2-3 4t-3 8q-3 1-7 6t-3 7l-2 1v1l1 1q-1 0-3 1t-1 3q-2 1-5 6t-5 5v2l-3 2v2q-2 1-7 7t-6 6v2q-1 1-1 2-2 0-4 2t-3 3l0 1q0 1-2 2t-2 3h-1q-1 2-5 6t-6 6q-2 2-4 5t-4 5q-4 4-8 7t-9 7l-5 5q-3 3-6 4t-5 4q-8 6-18 12t-20 7m-4-4q2 0 4-1t4-1l1 0v0q2-1 9-5t13-9 7-5q6-4 11-9t10-10q6-5 11-11t10-10q3-4 6-8t6-8q4-5 8-11t9-10q5-6 9-12t8-12l12-18q1-2 1-4t2-3q2-3 5-9t7-10 3-8q0-1-1-1-1 1-9 3t-14 6-7 4q-2 0-10 6t-18 12-11 8q-9 7-18 15t-17 16q-3 3-5 6t-4 6q-2 2-7 8t-6 8q-2 1-7 7t-9 15-9 16-6 11v2q-2 2-2 7t-1 9q0 2 1 6t4 4m204-23q0 0-2 0t-2-1q-6 0-10-6t-5-12-1-12q0-4 1-9t1-9q2-2 3-6t1-7q2-7 5-13t5-11q1-3 2-4v-2q3-3 4-6t2-7q3-6 6-11t6-10q4-7 8-13t7-13q2-2 5-6t3-5q5-9 13-22t14-21l0-1 1-2q1-4 5-10t3-10v-1h0q-5 0-14 3t-18 9-16 10-6 10q0 3 2 5t4 3v1q0 0 0 0-5-1-13-4t-9-8q0-5 8-11t18-11 20-9 14-4q1-1 6-2t9-1 5-1q4-5 8-9t8-10h1l0-1 3 1 0-1q4 0 9 5t5 8q0 4-5 5t-4 5q0 2 6 5t13 9 7 19q0 4-1 7t0 7l-1 1q0 0 0 0t0 1q2 0 3-1t4 0q2 0 8 2t8 3q2 1 2 3t3 3v0l-2 1q-3-1-5-3t-5-1q-2 0-5 1t-4 2q-7 2-13 5t-8 12q-2 2-3 2t-1 4q-3 3-6 7t-5 7-6 7-6 6q-2 2-4 4t-3 4-6 4-11 5-7 3q-5 0-10-5t-4-10q0-11 10-22t23-19 22-13q2-1 10-4t9-4q3-3 4-9t1-11q0-9-4-16t-15-7q-7 0-13 5-3 2-8 7t-9 12-7 10q-15 22-28 44t-24 46q-1 1-2 2t-1 2q0 1-3 7t-5 13-3 8q0 1-1 2t-1 2q-1 3-2 6t-2 7q-2 8-5 18t-2 19q0 2 0 5t2 6q1 2 4 4t4 2-2 1m61-124q2 0 4-2 11-7 18-12t13-11 15-18q1-1 2-2t1-3q0-1-1-2-7 5-14 9t-14 9q-4 4-8 8t-9 9q0 1-4 7t-5 7q1 1 2 1m139 2q-12 0-25-8t-12-22q0-2 0-5t0-4q0-3-4-6t-5-5q1 0 2 0 2 0 4 0t4 1q1 0 3-1 1-1 4-9t10-19 17-23 24-16q3-1 6-3t6-1q6 0 12 4t6 11q0 3-1 6t-3 6l-3 1q-1 3-5 7t-4 6q0 0 0 0t0 1l-2 0q-3 2-5 5t-5 5q-9 6-19 12t-19 11q-2 1-5 2t-4 2q-2 3-3 7t0 8q0 6 3 13t10 8q1 0 2-1t1 0q3 0 6 0t6-1l3-2h0q3 0 10-4t14-8 9-5q1-1 1-2t2-1q8-7 17-13t17-14v1h1q0 2-4 5t-4 5q-6 10-18 19t-22 15q-3 3-7 5t-7 5q-7 2-14 2m-19-55v0q4 0 7-3t6-4l1 1v-1q9-4 18-12t16-16h1q0-3 5-7t4-6q1-1 2-3t1-3q-1-1-4-1-3 1-7 3t-7 3q0 0-5 4t-9 7-7 6q-2 2-8 9t-10 13-4 10m108 46q-3 0-7-3t-4-6q0-10 5-23t12-28 15-28 12-21q3-5 4-10t6-9q4 1 9 3t5 7q0 4-5 9t-7 8q-11 12-20 27t-15 29q-2 3-3 6t-2 5-2 5-2 5q0 1 1 2t2 2q4-4 12-14t19-21 18-18 11-10q1 0 2-1t2 0q8 0 13 7t4 15q0 8-1 15t-2 15q0 6 3 16t10 9q2-1 5-2t4-1q2 0 2 2 0 3-3 4t-5 2q-7 0-15-7t-10-14q-2-7-3-15t-1-15q0-4 1-11t1-8q-3 0-8 4t-10 9-6 7q-1 1-3 2t-3 3q-2 2-5 5t-5 6q-1 1-4 4t-4 4q-3 5-7 9t-7 10q-1 1-2 3t-3 4q-1 2-4 2" />
</svg>