<svg id="fnt-Palanquin" viewBox="0 0 2106 1000" xmlns="http://www.w3.org/2000/svg"><path id="palanquin" class="f" d="M89 667h-39v-340h93q53 0 89 23t36 81q0 56-39 81t-92 26h-48v129m54-307h-54v145h50q37 0 62-17t26-56q0-41-23-56t-61-16m211 238q0 15 11 29t35 14q21 0 38-10t30-25v-56h-64q-24 0-37 14t-13 34m-21-159q14-9 40-15t40-6q42 0 68 22t27 60v167h-24l-11-25q-12 12-32 21t-40 10q-42 0-63-22t-20-53q0-36 24-55t63-19h63q0-30-10-51t-43-21q-25 0-41 6t-29 11q-3-7-6-15t-6-15m291 228h-40v-348l40-5v353m102-69q0 15 10 29t35 14q21 0 39-10t30-25v-56h-64q-25 0-38 14t-12 34m-21-159q14-9 39-15t41-6q42 0 68 22t26 60v167h-24l-10-25q-13 12-33 21t-40 10q-42 0-62-22t-21-53q0-36 24-55t64-19h62q0-30-9-51t-44-21q-24 0-40 6t-30 11q-2-7-5-15t-6-15m274-15l12 35q16-17 40-30t46-12q42 0 62 24t20 61v164h-40v-158q0-25-12-41t-37-16q-15 0-38 10t-38 29v177h-39v-243h24m430 0h23v347l-40 5v-128q-14 11-33 18t-34 7q-53 0-79-36t-26-91q0-56 26-93t80-36q18 0 37 8t36 21l10-22m-77 27q-39 0-56 27t-16 67q0 41 16 67t56 27q14 0 30-7t30-19v-136q-14-12-30-19t-30-7m348 216l-12-27q-16 15-37 24t-40 10q-43 0-63-25t-19-61v-164h39v160q0 24 12 40t37 16q14 0 33-8t35-22v-186h39v243h-24m122-291q-11 0-19-8t-7-19q-1-11 7-19t19-7q11 0 19 7t9 19q0 12-9 19t-19 8m21 291h-40v-243h40v243m102-243l13 35q15-17 40-30t46-12q41 0 61 24t20 61v164h-39v-158q0-25-12-41t-37-16q-16 0-38 10t-38 29v177h-40v-243h24" />
</svg>