<svg id="fnt-Pangolin" viewBox="0 0 1741 1000" xmlns="http://www.w3.org/2000/svg"><path id="pangolin" class="f" d="M239 355q5 1 7 6t1 10q7 5 6 10 0 9-12 19 2 5 2 9 0 7-4 13t-8 9q-2 18-11 24-1 5-10 9t-15 5q-4 3-13 5t-13 2q-6 8-17 8-4 0-5-1-3 2-8 2-6 0-12-3-8 5-33 5 2 7 2 10 0 6-4 11 6 7 6 23 0 13-3 20 6 8 6 20 0 11-5 21 3 4 5 12t1 15q0 12-3 16 1 7 1 11 0 21-23 21-10 0-16-11t-5-25 4-23q-5-9-5-22 0-5 1-13-4-6-4-25 0-15 3-20-3-6-3-18 0-12 3-17-3-6-3-10t2-7q-5-7-5-17 0-7 2-11-2-4-2-9 0-6 2-9-5-8-5-12 0-5 4-11-3-6-3-11 0-8 6-13-8-7-8-18 0-2 1-8-6-4-6-15 0-8 4-15t8-7q1-6 6-9t14-3q7 0 12 2t7 8q10-5 16-5 3 0 4 1 1 0 7-2t10-2q6 0 13 4 3-2 8-4t12-1q5 0 9 1 2 0 5 0 8 0 15 4t12 9q9-1 14 3t9 14q5 1 10 6t4 9m-150 93q3-2 10-2 9 0 11 2 4-3 14-3t13 3q3-2 10-2 5 0 7 1 6-6 12-6 4 0 6 1 1-4 11-10t15-3q0-4 3-11t6-8q-2-2-2-8 0-7 2-16t5-11q-20-11-20-21-8-1-19-8-14 7-23 7-6 0-16-2-10 6-21 6-7 0-12-3 0 2-7 4t-8 1q0 5 3 13 4 8 4 15t-5 12q2 4 2 14 0 8-2 11 5 5 5 13 0 6-4 11m195 25q-4-7-4-13 0-9 6-15 1-7 7-14t12-11 11-2q3-6 14-11t19-4q2 0 6 1 6-6 15-6 7 0 10 4 6-5 17-5 12 0 22 6t11 16q9 3 14 9t6 18q6 6 9 15t3 18q0 11-4 18 4 5 6 15t3 20q0 4-1 10 3 7 3 10 0 1-1 7 0 2 1 4t0 7q0 8-5 14 2 5 2 13 0 11-5 17 1 2 1 7 0 10-9 17-2 7-7 11t-12 4-11-4q-13 5-21 5-4 0-6 0-13 4-22 4-6 0-18-3-7 4-13 4-6 0-11-3-3 0-8 0-19 0-30-17-19-11-19-33 0-6 1-9-5-3-5-12 0-7 3-12-2-9-2-11 0-15 14-26 5-12 12-16t19-6q3-8 14-11t21-2q3-2 9-4t11-2q6 0 10 2 1-1 5-1 3 0 6 1t4 1q7-9 17-9 3 0 6 2v-2q0-8 3-12-5-1-11-9t-6-13q-8-3-11-11-6 4-14 4-6 0-11-3-8 3-11 2-7 5-15 5-8 10-18 9-4 8-12 14t-16 6q-9 0-14-8m27 111q6 6 6 12 0 4-2 10 2 0 6 2t4 5q4-2 10-2 11 0 15 5 5-2 11-2 10 0 15 6 4-4 13-7t17-2q5-9 16-11 1-3 6-9-2-3-4-8t-1-10q0-10 5-15-6-7-6-17 0-6 2-11-4 3-9 3-4 0-7-4-5 5-13 5-5 0-10-3-5 6-13 6-3 0-8-2-7 7-13 4-3 7-8 10t-13 2q-2 6-7 9t-10 3q3 3 3 8 0 7-5 13m290-131q1 5-3 9t-10 5q-4 10-19 12 1 9-3 14t-9 7q0 13-6 27 1 4 1 7 0 10-4 18 3 5 3 12 0 8-3 17 4 6 4 14 0 4-2 10 1 3 1 10 0 11-4 16 2 7 2 11t-2 7q0 8-6 13t-16 5q-8 0-15-5t-5-13q-2-5-2-10 0-10 4-20-5-6-5-13 0-4 3-10-4-6-4-13 0-5 2-9t5-6q-7-8-7-19 0-10 7-17-2-2-4-7t-1-10q0-7 3-10-4-9-4-20 0-10 3-14-5-10-5-19 0-10 5-14-8-10-8-21 0-14 12-21 6-3 12-3 9 0 16 8t6 18q0 6-2 12 6 6 6 16 0 7-1 12 4-15 12-17 0-10 6-18t14-12 14-2q12-14 27-14 6 0 11 3 5-4 14-4 7 0 14 3t8 8q18 1 26 15 6 1 12 8t7 16q0 4-3 10 12 4 12 17 0 5-1 7 7 3 9 7t3 9q0 6-3 16 6 5 6 15 0 11-5 17 4 7 4 18t-5 18q3 15 3 21 0 10-4 14 4 9 4 18 0 11-6 17 1 8-7 13t-16 5q-7 0-12-4t-5-10q-4-9-4-21 0-19 9-27-3-5-6-15t-3-19q0-13 5-16-4-7-4-15 0-9 6-22-5-4-8-11t-3-13q0-2 1-6-5-5-10-15t-3-18q-5 0-9-3t-7-7h-6q-8 0-12-3-4 5-13 8t-16 3h-1m320 262q-1-4 3-10t7-6q-1-4-1-7 0-7 2-13t6-8q0-2 0-6 0-6 2-12t6-8q-30 15-38 12-13 3-21 3-10 0-14-4-5 3-12 3-10 0-20-5t-12-12q-14-1-25-15t-13-30q-9-3-14-14t-4-24q0-14 5-21-3-3-6-12t-2-20q0-23 12-31-2-2 0-10t7-15 9-10q-1-4 3-10t10-8 8-2q2-9 9-12t16-6q3-7 11-11t21-4 21 3 16 9q5-4 15-4 15 0 19 12 4-1 8-1 8 0 15 6t6 15q0 4-1 6 5 7 8 13t2 12q1 5 1 8 0 8-4 12 1 2 1 4 0 6-4 12 3 5 3 11t-3 11q1 9 1 12 1 13 1 17 0 3-1 7 4 5 4 16t-3 16q7 14 7 21 0 6-3 11 2 4 2 8 0 5-3 11 3 5 3 14 0 11-5 19 2 0 1 6t-5 11q2 5 2 9 0 6-3 12t-9 8q-7 19-19 22 1 6-4 11t-11 7q-2 11-19 11-3 5-11 7t-17 3q-19 0-28-10-7 0-13-5t-9-10q-7 0-13-6t-5-13q-4-6-4-11 0-9 7-15t16-5q6 0 10 3t8 10q10 2 14 11 8 1 13 6 2-2 7-4t10-1 9 2q0-4 4-8t8-4m-23-97q5-5 14-5 7 0 10 2 2-2 8-7t13-6q-6-6-6-22 0-11 3-20-4-8-4-15 0-7 2-11-2-3-2-9 0-9 4-15-3-6-3-14 0-3 1-7-5-6-5-17 0-8 3-14-3-2-5-7t-3-10q-6 1-12-2t-8-6q-6 4-13 4-9 0-19-7-2 4-11 9t-14 6q-1 5-5 9t-11 6q0 4-4 12t-7 10l0 8q0 9-2 17t-7 10q3 3 5 9t2 13q0 11-3 18 4 2 8 7t4 13q0 4-2 8 3 2 7 10t4 10q8 1 15 3t10 8q8-5 15-5 9 0 18 7m270 43q-6 6-18 6-10 0-16-3-9 2-16 2-19 0-28-10-2 0-5 0-12 0-18-10-5 0-13-6t-6-11q-8-2-14-10t-4-17q-6-2-9-8t-3-14q0-8 3-11-6-9-6-20 0-11 7-18-5-4-5-12 0-5 2-10t7-7q-1-7 1-14t8-9q-1-1-1-4 0-5 3-9t8-6q-1-1-1-4 0-10 8-18t16-7q0-7 6-12t16-4q5 0 7 0 4-7 12-12t18-5q6 0 10 3 7-6 17-6 9 0 15 4t9 11q8 0 17 5t10 12q12 4 23 15t12 24q0 2-1 6 21 5 19 44 5 7 5 16 0 10-7 20 2 4 2 8 0 6-3 12t-6 8q0 8-3 13t-12 14q1 2 1 6 0 15-17 19-2 8-9 13t-16 5q-8 11-19 11-4 0-6 0m-47-35q4-4 14-4 7 0 7 2 4-4 10-7t11-2q9-8 19-8 3 0 5 0-1-4 2-9t7-5q0-7 3-12t9-7q0-10 4-16-2-4-2-8 0-5 3-11t7-8q-5-5-5-11 0-6 3-12-10-6-13-12t-3-21q-5 0-10-5t-5-13q-6 2-14-3t-7-12q-4 2-10 2-10 0-17-8-5 6-14 9t-15 2q-1 5-9 12t-15 9q2 3 2 7 0 5-3 10t-7 8q1 7-3 14t-10 9q1 4 1 6 0 7-4 11 2 4 2 7 0 6-6 12 13 9 13 25 0 8-3 14 5 1 7 3t3 8q13 2 19 12 5 0 13 4t11 8m238-22q5 6 5 17 0 8-3 14t-5 10q1 10-5 16t-16 6q-6 0-11-3t-8-10-3-15q0-11 4-18-3-4-3-13 0-9 3-19-3-4-3-15 0-13 4-20-3-7-3-13 0-9 4-18-4-11-4-19 0-7 3-16-5-6-5-14 0-4 1-5-6-7-6-15 0-6 3-11-3-8-3-15 0-12 6-18-3-7-3-17 0-8 2-12-2-1-4-5t-1-9q0-9 4-14-2-4-2-11 0-5 1-9-6-6-6-14 0-8 7-15t17-6q6 0 11 4t7 11q7 5 7 16 0 2-1 6 6 6 6 15 0 8-5 13 3 2 5 6t2 11q0 9-7 15 4 5 4 13t-3 13q2 2 2 10 0 5-1 10t-3 7q8 6 8 16 0 6-2 10 3 4 3 13 0 12-4 19 3 7 3 18 0 14-4 20 3 5 3 13 0 6-3 15 5 5 5 16 0 9-3 16m68-294q-7 3-11 9t-4 11q0 8 7 16-1 7 7 13t17 6q7 0 12-4 14-7 14-19 0-7-6-17 0-10-6-16t-15-5q-9 0-15 6m32 221q4 2 6 10t3 17q0 11-4 15 3 7 3 14 0 9-4 15 3 9 3 20 0 10-3 16 2 4 2 8 0 9-7 14t-15 6q-9 0-15-6t-5-14q-3-3-4-9t-2-14q0-13 6-17-4-6-4-19t3-19q-2-2-3-10t-1-16q0-9 1-16t3-8q-3-3-3-17 0-15 4-22-3-4-5-11t-2-12q0-5 1-7-4-13-4-21 0-8 4-17-1-8 4-12t13-4q23 0 23 28 4 3 6 8t3 12q0 11-5 18 2 3 3 9t1 12q0 8-2 11 2 3 2 11 0 7-2 16t-4 11m148-78q1 5-3 9t-10 5q-4 10-19 12 1 9-3 14t-9 7q0 13-6 27 1 4 1 7 0 10-4 18 3 5 3 12 0 8-3 17 4 6 4 14 0 4-2 10 1 3 1 10 0 11-4 16 2 7 2 11t-2 7q0 8-6 13t-16 5q-8 0-15-5t-5-13q-2-5-2-10 0-10 4-20-5-6-5-13 0-4 3-10-4-6-4-13 0-5 2-9t5-6q-7-8-7-19 0-10 7-17-2-2-4-7t-1-10q0-7 3-10-4-9-4-20 0-10 3-14-5-10-5-19 0-10 5-14-8-10-8-21 0-14 12-21 6-3 12-3 9 0 16 8t6 18q0 6-2 12 6 6 6 16 0 7-1 12 4-15 12-17 0-10 6-18t14-12 14-2q12-14 27-14 6 0 11 3 5-4 14-4 7 0 14 3t8 8q18 1 26 15 6 1 12 8t7 16q0 4-3 10 12 4 12 17 0 5-1 7 7 3 9 7t3 9q0 6-3 16 6 5 6 15 0 11-5 17 4 7 4 18t-5 18q3 15 3 21 0 10-4 14 4 9 4 18 0 11-6 17 1 8-7 13t-16 5q-7 0-12-4t-5-10q-4-9-4-21 0-19 9-27-3-5-6-15t-3-19q0-13 5-16-4-7-4-15 0-9 6-22-5-4-8-11t-3-13q0-2 1-6-5-5-10-15t-3-18q-5 0-9-3t-7-7h-6q-8 0-12-3-4 5-13 8t-16 3h-1" />
</svg>