<svg id="fnt-Paprika" viewBox="0 0 1975 1000" xmlns="http://www.w3.org/2000/svg"><path id="paprika" class="f" d="M88 670q-17 0-28-14t-11-52q0-18 4-48t9-66 12-75 9-72 4-59q0-10-2-25t-5-24q26-5 54-9t55-4q33 0 61 9t45 31 17 63q0 33-13 59t-36 47-49 35-55 25-50 16q-2 22-4 41t-1 36q0 19 3 37t16 31q-10 11-19 15t-16 3m26-197q27-6 53-17t47-27 33-40 13-54q0-30-11-48t-29-26-42-8q-16 0-34 3 0 23-5 58t-12 77-13 82m266 201q-34 0-54-34t-19-92q0-47 11-88t31-71 47-47 57-17q43 0 71 33 4-15 10-22t17-6q16 0 27 13-4 12-8 33t-7 47-5 55-2 54q0 45 5 72t18 48q-14 18-34 18-21 0-32-27t-11-78q0-8 1-19t2-22 1-19q-17 48-39 86t-45 61-42 22m17-53q12 0 26-16t30-40 30-57 24-63 13-60q-34-26-65-26-28 0-50 23t-34 62-12 92q0 39 10 62t28 23m298 181q-19 0-31-16t-12-60q0-23 4-56t9-74 10-88 4-99q0-18-2-36t-9-31q6-6 16-9t17-3q17 0 26 12t9 41q0 19-2 35t-4 36-9 48q33-84 65-131t60-46q21 0 39 14t30 46 12 83q0 36-8 72t-25 67-42 48-60 19q-21 0-46-8t-38-20q-1 13-2 25t-1 26q0 24 4 47t20 40q-9 11-19 15t-15 3m93-162q28 0 47-21t30-57 10-79q0-28-5-52t-13-39-25-14q-12 0-29 19t-36 52-33 78-23 94q17 10 36 14t41 5m261 30q-18 0-29-14t-10-52q0-29 5-61t10-65 6-72q0-16-2-33t-9-31q6-6 16-9t18-3q13 0 23 9t10 29q0 15-5 46t-9 67q19-50 41-85t42-53 33-18q10 0 15 6t8 15 2 16q0 6-1 13t-2 12q-7-2-14-2-20 0-40 15t-37 37-29 50-20 51-7 42q0 22 3 40t16 32q-9 11-19 15t-15 3m288-424q0 6-1 13t-4 18q-19 11-35 11-15 0-21-6t-6-17q0-6 1-13t3-16q18-11 34-11 12 0 20 5t9 16m-47 424q-18 0-29-14t-10-52q0-29 5-61t10-65 6-72q0-16-2-33t-9-31q6-6 16-9t18-3q13 0 23 9t10 29q0 13-3 38t-8 56-8 63-4 59q0 19 3 37t16 31q-9 11-19 15t-15 3m333 2q-10 0-23-9t-29-26q-14-18-34-52t-43-73l-23 20q-1 14-2 27t0 25q0 19 3 37t16 31q-10 11-19 15t-16 3q-17 0-28-14t-11-52q0-18 4-46t9-64 10-73 9-75 4-69q0-18-1-36t-9-32q5-5 15-8t18-3q17 0 25 12t9 41q0 16-3 41t-8 58-10 66-9 68q33-32 59-62t43-54 20-35q21 0 33 6t12 17q0 5-15 23t-42 45-57 55q18 31 36 59t34 49q12 15 27 26t33 15q0 18-7 28t-16 12-14 4m152 2q-34 0-54-34t-19-92q0-47 11-88t31-71 47-47 57-17q43 0 71 33 4-15 10-22t17-6q16 0 27 13-4 12-8 33t-7 47-5 55-2 54q0 45 5 72t18 48q-14 18-34 18-21 0-32-27t-11-78q0-8 1-19t2-22 1-19q-17 48-39 86t-45 61-42 22m17-53q12 0 26-16t30-40 30-57 24-63 13-60q-34-26-65-26-28 0-50 23t-34 62-12 92q0 39 10 62t28 23" />
</svg>