<svg id="fnt-Parisienne" viewBox="0 0 1981 1000" xmlns="http://www.w3.org/2000/svg"><path id="parisienne" class="f" d="M451 304l4 6q-18 13-33 31 15 10 25 21t16 22 9 23 3 21q0 24-9 42t-24 29-34 17-40 6q-23 0-45-5-10 22-22 43t-26 41-30 37-36 29-41 20-47 7q-24 0-44-8t-36-23-23-37-8-49q0-36 12-70t34-62 51-53 63-40 71-26 74-10q29 0 52 5t40 13q10-9 20-16t24-14m-148 193q11-24 22-45t22-41 24-37 26-31q-16-6-35-9t-40-3q-30 0-58 7t-55 19-50 29-44 37-37 41-28 44-18 43-6 41q0 19 7 35t19 28 29 19 36 7q31 0 56-12t46-35 40-55 38-70q-26-10-47-26l4-7q11 6 23 11t26 10m146-83q0-22-9-37t-26-26q-23 29-43 67t-41 85q7 2 14 2t14 1q19 0 35-7t29-19 20-28 7-38m166 87l8 3q-4 7-9 17t-13 22-13 26-12 26-9 25-4 19 3 10 8 2q7 0 15-4t14-11 14-15 13-16 11-16 8-13l9 6q-4 8-10 17t-12 18-14 18-17 15-18 11-20 4q-14 0-21-9t-7-23q0-1 0-4t1-5q-12 15-24 25t-21 16-20 8-18 2q-10 0-18-3t-14-9-10-14-4-20q0-14 7-32t22-38q13-18 28-30t28-20 27-11 23-3q22 0 34 8t14 23q4-7 10-13t11-12m-67 96q3-5 7-13t10-16 10-17 9-13q0-2-1-7t-3-10-9-8-16-4q-8 0-17 2t-20 8-22 15-22 22q-17 20-26 41t-10 36q0 14 7 22t18 7q13 0 25-5t22-16 20-21 18-23m246-21l9 6q-3 6-8 15t-12 20-14 21-18 20-20 15-23 5q-7 0-13-2t-11-6-7-11-3-16q0-12 5-25t11-25 12-22 10-16 3-11q0-3-2-6t-6-4-6-5-5-6q-7 9-13 19-6 9-12 20t-13 20l-9-6 53-82 7 3q-1 2-2 5t-1 7q0 3 1 5t3 5q10 9 16 13t8 8 3 5 1 4-1 8-3 10-7 13-10 19q-4 6-7 13t-7 13-4 13-2 13q0 4 2 7t3 4 5 2 5 1q8 0 16-5t16-12 14-18 14-19 12-19 10-16m110-126q0 5-2 10t-7 10-8 6-9 3q-4 0-7-3t-2-7q0-4 2-10t4-10 7-8 10-3q5 0 8 4t4 8m-53 51l7 3q-3 7-9 17t-12 23-13 26-13 26-9 24-3 19q0 7 3 10t8 2q10 0 20-6t19-18 18-24 18-27l9 6q-7 13-16 28t-20 26-24 21-29 8q-14 0-22-9t-8-23q0-16 7-34t19-35 25-34 25-29m113-26q-2 2-4 5t-3 6-4 7-1 11q0 5 3 14t5 20 6 25 2 27q0 21-5 37t-15 27q19-11 37-30t37-48l8 7q-10 17-24 34t-29 31-34 22-39 8q-18 0-31-9t-15-26l9-1q0 1 1 5t4 6 8 6 13 2q9 0 17-4t13-12 10-17 6-19 3-20 1-17 0-18-2-18-1-15-1-8v-1q-3 4-7 10t-10 15-10 15-9 15-6 11-3 4l-9-6q0-1 6-11t16-26 22-35 25-37l10 8m168-25q0 5-3 10t-6 10-8 6-10 3q-4 0-6-3t-2-7q0-4 1-10t5-10 7-8 9-3q5 0 9 4t4 8m-54 51l8 3q-3 7-9 17t-12 23-14 26-12 26-9 24-3 19q0 7 3 10t8 2q10 0 19-6t19-18 19-24 18-27l9 6q-7 13-16 28t-20 26-24 21-29 8q-15 0-23-9t-8-23q0-16 8-34t19-35 25-34 24-29m53 110q0 3 0 6t-1 6q0 8 3 16t8 14 12 10 17 3q32 0 62-22t59-68l8 7q-16 27-32 45t-33 30-33 17-30 5q-11 0-22-3t-22-10-16-18-7-29q0-18 6-35t17-32 23-26 26-21 26-13 22-5q7 0 13 2t12 6 9 11 3 16q0 13-6 25t-16 21-23 17-28 13-29 9-28 3m2-11q17-1 31-6t26-13 22-16 16-18 9-17 4-15-4-11-8-4q-11 0-24 8t-27 21-26 32-19 39m362-60q0 10-4 21t-9 22-12 21-12 21-9 18-4 17q0 5 3 7t5 2q9 0 21-9t23-23 24-30 21-31l9 6q-2 3-8 12t-12 20-17 23-20 22-22 17-23 7q-7 0-12-3t-9-6-6-9-3-11q0-10 5-21t10-23 14-23 14-23 11-20 4-15q0-8-4-13t-11-5q-8 0-18 6t-23 19-28 31-33 41q-10 14-19 26-4 6-8 11t-9 11-8 11-6 8l-22-8 29-40q6-8 12-17t13-20 12-21 10-20q7-14 10-24t3-15q0-7-3-9t-7-2q-4 0-10 5t-13 12-12 17-13 18-11 18-8 13l-9-6q12-20 23-36t19-28 18-18 19-7q6 0 11 2t9 7 6 10 2 14q0 7-2 14 11-11 20-18t17-11 15-5 12-2q4 0 10 2t12 6 9 13 4 21m251 0q0 10-4 21t-9 22-12 21-12 21-10 18-3 17q0 5 2 7t6 2q9 0 20-9t24-23 23-30 21-31l9 6q-2 3-7 12t-13 20-16 23-21 22-22 17-23 7q-6 0-11-3t-10-6-6-9-2-11q0-10 4-21t11-23 14-23 14-23 11-20 4-15q0-8-4-13t-12-5q-7 0-18 6t-23 19-27 31-33 41q-10 14-19 26-5 6-9 11t-8 11-8 11-6 8l-22-8 29-40q6-8 12-17t13-20 11-21 11-20q7-14 10-24t2-15q0-7-2-9t-7-2q-4 0-10 5t-13 12-13 17-12 18-11 18-8 13l-9-6q12-20 22-36t20-28 18-18 19-7q5 0 10 2t9 7 6 10 2 14q0 7-1 14 11-11 20-18t17-11 14-5 12-2q5 0 11 2t12 6 9 13 4 21m65 71q0 3-1 6t0 6q0 8 3 16t7 14 13 10 17 3q32 0 61-22t60-68l8 7q-16 27-33 45t-33 30-32 17-30 5q-11 0-23-3t-21-10-17-18-6-29q0-18 6-35t16-32 23-26 27-21 26-13 22-5q6 0 13 2t12 6 8 11 4 16q0 13-6 25t-16 21-23 17-28 13-29 9-28 3m2-11q16-1 31-6t26-13 21-16 16-18 10-17 3-15-3-11-9-4q-10 0-24 8t-27 21-25 32-19 39" />
</svg>