<svg id="fnt-Passions Conflict" viewBox="0 0 2108 1000" xmlns="http://www.w3.org/2000/svg"><path id="passions-conflict" class="f" d="M-1 711q-2 0-2-2-1-2-1-5t0-7q0-30 38-118-21-10-21-28 0-13 14-27t38-25l2 0q6-18 9-33t5-27q-22 4-38 4-40 0-40-26 0-13 13-21t30-8q39 0 43 35l34-6q27-5 61-5 13 0 25 1t23 2q83 10 83 55 0 37-41 67-17 12-40 22t-49 18q-49 14-86 14-7 0-13 0t-12-1q-24 49-24 69 0 14 5 23 6 11 17 11l3-1q1 0 2-1t1 0q2 0 2 4 0 2-2 2-18 1-29-9t-11-27q-1-26 19-74-9-2-16-5-40 90-40 119 0 5 0 7 0 2-2 3m39-283q7 0 18-1t25-3q-3-33-38-31-12 1-21 7t-9 16q0 12 25 12m54 156q53 0 102-20 31-12 53-28t36-34 13-33q0-37-66-44-17-2-38-2-19 0-35 1t-29 5q-6 1-16 3t-22 5q-1 23-12 59 14-6 31-8 11-19 20-31 6-9 19-9 9 0 9 5 0 2-2 4-8 8-21 28 14-2 26-2 49 0 60 19 2 3-2 3-3 0-5-1-10-6-25-10t-37-3q-5 0-11 0t-11 1q-28 44-51 91 3 0 7 0t7 1m-31-5q9-19 20-40t23-43q-8 1-16 3t-14 5q-4 11-12 28t-17 41q7 4 16 6m-22-10q16-38 24-60-35 19-35 40 0 11 11 20m195 98q-11 0-11-15 0-12 9-26 21-31 45-42 11-5 21-5 5 0 11 2t6 8q0 3-4 3-2 1-3 1t-1 1q-11 22-11 40 0 24 18 24 20 0 49-31 2-3 4-3t1 2-1 5q-34 36-59 36-12 0-19-11-8-11-9-26-12 16-25 27-13 10-21 10m11-15q5 0 14-7 8-7 14-14t8-14q1-8 3-15t5-12q-26-1-45 36-5 10-5 18 0 8 6 8m140 18q-7 0-13-5t-7-11q-2-6-2-11 0-3 1-4 0-4 3-4 1 0 2 1 9 11 23 16 0-4-1-9-2-8-7-14-10-14-10-29 0-36 44-53 12-4 21-4 19 0 19 16 0 10-6 20-3 4-5 4t-2-2q0-2 1-4 4-6 4-11 0-7-11-7-1 0-2 0t-3 0q-34 6-46 40-2 5-2 9 0 8 8 21 8 13 8 21 0 4 0 5 3 1 6 1t6 0q9 0 17-2 13-3 24-10t21-18q2-2 4-2t2 3-2 4q-27 25-50 30-9 1-17 1-4 0-7 0t-6-1q-6 9-15 9m-3-9q4 0 7-2-12-4-21-13 0 7 4 11t10 4m116 9q-7 0-13-5t-7-11q-2-6-2-11 0-3 1-4 0-4 3-4 1 0 2 1 9 11 23 16 0-4-1-9-2-8-7-14-10-14-10-29 0-36 44-53 12-4 21-4 19 0 19 16 0 10-6 20-3 4-5 4t-2-2q0-2 1-4 4-6 4-11 0-7-11-7-1 0-2 0t-3 0q-34 6-46 40-2 5-2 9 0 8 8 21 8 13 8 21 0 4 0 5 3 1 6 1t6 0q9 0 17-2 13-3 24-10t21-18q2-2 4-2t2 3-2 4q-27 25-50 30-9 1-17 1-4 0-7 0t-6-1q-6 9-15 9m-3-9q4 0 7-2-12-4-21-13 0 7 4 11t10 4m157-119q-5 0-9-4t-3-8q0-6 5-10 4-4 9-4 12 0 12 10 0 16-14 16m-34 125q-29-1-26-40 1-17 19-44 3-5 13-5 7 0 7 4l0 3-13 21q-7 14-8 22 0 2-1 5t0 5q0 21 15 21 20 0 50-32 3-3 5-3 1 0 1 2 0 2-1 4-35 38-61 37m74 9q-21 0-21-24 0-18 9-42 0-3-1-6t0-5q0-27 26-29 6-8 12-8 9 0 9 5 0 2-2 3l-1 2q11 3 19 13t7 20q0 20-10 39l-1 1q29-1 47-20 2-1 4-1 1 0 1 2t-3 5q-23 21-54 21-8 10-20 17t-21 7m36-32q11-20 11-39 0-12-6-20t-15-9q-15 17-24 39 6 26 34 29m-29 23q14 0 25-16-23-3-35-19-1 5-2 10t-1 8q0 17 13 17m81 0q-3 0-6-3t-2-5l15-34q13-31 13-37 2-2 10-6 2-1 4-2t3 0q3 0 3 4-3 10-10 26t-17 38l53-58q7-7 11-7 2 0 2 3 0 1 0 2t-1 3q-10 36-10 50 0 17 11 17 11 0 25-12 3-2 8-7t13-13q2-2 4-2 1 0 1 2 1 1-1 4-31 35-56 35-22 0-22-35 0-4 0-8t1-8l-23 22q-4 4-8 8t-7 8l-10 12q-1 3-4 3m147 3q-8 0-14-5t-7-11q-2-6-2-11 0-3 1-4 0-4 4-4 1 0 1 1 9 11 24 16 0-4-2-9-2-8-7-14-10-14-10-29 0-36 44-53 12-4 21-4 20 0 20 16 0 10-7 20-3 4-5 4t-2-2q0-2 2-4 3-6 3-11 0-7-10-7-1 0-3 0t-3 0q-34 6-46 40-1 5-1 9 0 8 7 21 8 13 9 21 0 4-1 5 3 1 6 1t6 0q9 0 17-2 13-3 25-10t21-18q1-2 3-2t2 3-2 4q-26 25-50 30-9 1-17 1-3 0-7 0t-6-1q-5 9-14 9m-3-9q4 0 6-2-12-4-21-13 0 7 5 11t10 4m364 22q-37 0-63-12t-40-31-14-44q0-24 14-51-25-15-25-44 0-29 24-46 23-17 58-17 26 0 53 9 62-29 126-29 34 0 52 14 14 12 14 31 0 14-6 25-10 19-30 35t-49 30l-1 1q-3 1-4 1t-1-1q0-2 3-4 2-5 2-10 0-14-18-34-6-7-12-13t-12-9q-13-9-25-16t-26-12q-62 27-97 74-3 3-6 7t-5 8q21 9 43 9 28 0 33-11 0-1 1-1 2 0 2 1t0 2q-3 6-15 10t-27 3q-21 0-41-7-15 26-15 50 0 32 30 50t80 19q13 0 26-1 38-4 61-9 44-12 68-34 2-2 3-2 2 0 2 3-1 1-3 4-20 18-65 34-18 6-34 10t-31 6q-8 1-16 1t-14 1m119-138q11-6 19-11t13-9q21-16 30-35 5-10 5-20 0-18-18-28-17-9-46-9-45 0-96 21 12 5 24 11t23 16q16 11 29 26 17 19 17 33 0 1 0 2t0 3m-219-6q3-6 6-11t8-10q32-41 86-68-22-6-44-6-32 0-57 16-22 15-22 39 0 26 23 40m274 137q-21 0-21-24 0-18 9-42 0-3-1-6t0-5q0-27 26-29 6-8 12-8 9 0 9 5 0 2-2 3l-1 2q11 3 19 13t7 20q0 20-10 39l-1 1q29-1 47-20 2-1 4-1 1 0 1 2t-3 5q-23 21-54 21-8 10-20 17t-21 7m36-32q11-20 11-39 0-12-6-20t-15-9q-15 17-24 39 6 26 34 29m-29 23q14 0 25-16-23-3-35-19-1 5-2 10t-1 8q0 17 13 17m81 0q-3 0-6-3t-2-5l15-34q13-31 13-37 2-2 10-6 2-1 4-2t3 0q3 0 3 4-3 10-10 26t-17 38l53-58q7-7 11-7 2 0 2 3 0 1 0 2t-1 3q-10 36-10 50 0 17 11 17 11 0 25-12 3-2 8-7t13-13q2-2 4-2 1 0 1 2 1 1-1 4-31 35-56 35-22 0-22-35 0-4 0-8t1-8l-23 22q-4 4-8 8t-7 8l-10 12q-1 3-4 3m-2 104q-18 0-29-10-10-10-10-24 0-14 10-24 1-2 3-2 2 0 2 2 0 1-2 4-7 7-7 19 0 11 8 20 8 9 23 9 23 0 46-18 11-9 21-22t20-27q16-28 30-55t27-53l-13 1q-11-1-11-6v-1q0-4 7-4h22q11-24 18-40t11-23q22-41 40-58 9-9 16-9 14 0 14 22 0 11-5 23-18 35-74 85 10 0 18 0t14 0 10 0 6 0q5 1 5 4 0 4-11 6-6 1-51 1-19 39-60 114-18 32-40 48-24 18-58 18m165-195q47-44 66-86 6-13 6-22 0-6-3-6-6 0-20 24-11 20-24 42t-25 48m63 91q-24-1-24-28 0-7 2-17t5-23q5-17 14-38t23-45q34-64 59-64 13 0 13 16 0 7-3 15-14 45-83 104-15 27-15 53 0 20 13 20 9 0 21-8 7-4 15-10t15-15q3-3 5-3 2 0 2 2t-2 4q-35 38-60 37m10-90q10-10 19-21t20-23q11-15 18-27t12-24q4-9 4-15 0-8-6-8-8 0-19 19-14 23-26 48t-22 51m109-35q-5 0-9-4t-3-8q0-6 5-10 4-4 9-4 12 0 12 10 0 16-14 16m-34 125q-29-1-26-40 1-17 19-44 3-5 13-5 7 0 7 4l0 3-13 21q-7 14-8 22 0 2-1 5t0 5q0 21 15 21 20 0 50-32 3-3 5-3 1 0 1 2 0 2-1 4-35 38-61 37m83 3q-27 0-27-30 0-19 19-42 21-25 41-25 16 0 16 14 0 5-4 13-2 3-3 5t-3 5q-1 1-2 1-3 0-1-5 3-5 3-10 0-6-7-6-9 0-19 8-12 9-20 22t-7 25q0 18 19 18 9 0 24-6 19-8 40-30 4-3 5-3 2 0 2 2 0 2-2 4-37 40-74 40m99-3q-20-1-24-21-1-3-1-6t0-6q0-19 10-44-6 1-9 1t-2 0q-8-1-8-6v-1q0-4 7-4l9 0h9q2-4 6-12t10-19q4-6 8-13t11-16q7-6 17-6 9 0 9 4 0 1-1 2-7 9-17 24t-23 36h49q4 1 4 4 0 4-11 6-2 0-14 0t-34 0q-15 29-15 47 0 21 17 21 9 0 19-6 7-4 14-10t16-15q2-3 4-3t2 2q0 3-1 4-35 37-61 37" />
</svg>