<svg id="fnt-Patrick Hand" viewBox="0 0 2272 1000" xmlns="http://www.w3.org/2000/svg"><path id="patrick-hand" class="f" d="M29 616q-4-52-4-140t3-113q2-16 22-22t51-5q47 0 79 20t33 60q0 33-9 54t-23 33q-22 17-65 17-18 0-48-5 2 100 2 126t-18 26q-11 0-14-4t-4-6-2-5-1-6-1-7-1-7q0-7 0-16m142-199q0-20-22-32t-47-11-35 4q-2 30-2 54t2 45q14 2 19 3 13 1 22 1t12 0 13-2 13-4 10-8 9-11q6-18 6-39m228 16q22 0 22 38 0 4 0 8l-1 35q0 17 0 33l7 113q0 12-25 12-2 0-8 0t-8-4 0-11-1-15q-23 25-61 25-71 0-71-109 0-61 23-92t65-31q20 0 40 7 7-9 18-9m-52 46q-28 0-42 16t-14 61q0 74 40 74 10 0 23-10t18-21q9-27 9-59t-8-47-26-14m121-46l25 1q9 0 10-1v-102q0-9 8-15t15-6 11 5 4 14 0 104l58-2q15 0 15 17 0 13-8 20t-16 7-17 0l-31 0q0 20 4 81t7 78 1 23-5 7q-7 3-18 3t-13-12q-10-65-13-180-5 1-35 1t-30-18q0-25 28-25m224 161l1 51q0 9-9 17t-16 7q-11 0-14-18-1-4-4-73t-14-109q-4-19-4-22 0-17 20-17 8 0 13 7t6 13 3 18 1 15q11-25 32-38t46-12q41 0 41 21 0 10-8 16t-16 7q-43 0-60 27t-18 90m161-243q9 0 17 8t8 18-9 19-18 9-17-8-8-20q0-24 26-26 1 0 1 0m21 150v112l1 35q0 9-8 15t-16 7q-12 0-13-13-6-159-6-176t1-42q1-9 12-9 26 0 30 22 1 11 1 17l-2 32m51 49q0-34 18-61t45-42 54-13 41 6 16 16-6 21-15 10q-3 0-19-6t-20-5q-29 0-50 21t-20 56 11 52 39 18q11 0 37-13t34-13 10 4 4 10q0 12-15 25t-38 22-40 9q-40 0-63-31t-23-86m380 94q0 24-22 24-9 0-24-45t-42-68q-2 4-21 20t-22 20v50q-1 7-3 11t-7 8-14 3q-13 0-13-16 0-47-4-145t-4-175q0-9 7-15t17-5q11 0 14 14v89q0 16 0 24t1 24q1 33 4 74 14-11 37-35t34-40q18-29 33-29 4 0 8 2 11 6 11 14t-7 21q-18 31-42 57 23 25 45 71 14 30 14 47m193-289l-2 120q39 7 71 7t42-1q-1-38-1-73t0-47 1-16 6-6 16-3q15 0 15 18v177q0 55-2 121-1 14-25 14-12 0-12-14l2-133q-16 1-44 1t-69-6q0 66 6 138 0 8-7 12t-19 5-12-12q-7-71-7-140l3-156q0-10 8-15t16-4q14 0 14 13m324 78q22 0 22 38 0 4 0 8l-1 35q0 17 0 33l7 113q0 12-25 12-2 0-8 0t-8-4 0-11-1-15q-23 25-61 25-71 0-71-109 0-61 23-92t65-31q20 0 40 7 7-9 18-9m-52 46q-28 0-42 16t-14 61q0 74 40 74 10 0 23-10t18-21q9-27 9-59t-8-47-26-14m128 172l-6-203q0-9 7-15t13-6q16 0 18 13 2 14 2 28 27-35 68-35 62 0 62 141 0 13 0 39t-3 39q-4 15-22 15-12 0-12-16l1-28q0-58-4-80t-7-33q-9-27-28-27-25 0-35 18-11 19-13 46-3 46-3 98 0 10-8 16t-18 6q-12 0-12-16m326-218l0-97q0-27 17-27t19 15q1 7 3 79t4 135 4 117q0 15-23 15-15 0-15-21-21 17-51 17-37 0-61-28t-23-69 17-77 52-51q22-9 43-9 7 0 14 1m3 68q-4-11-9-17t-11-7-13-1-20 6-19 20q-16 27-16 56t11 49 34 19 34-22 13-55q0-37-4-48" />
</svg>