<svg id="fnt-Paytone One" viewBox="0 0 3232 1000" xmlns="http://www.w3.org/2000/svg"><path id="paytone-one" class="f" d="M138 667h-110v-345h116q85 0 128 28t44 82q0 37-19 63t-53 40-80 14h-26v118m0-187h22q26 0 41-11t14-33q0-21-14-31t-40-10h-23v85m314 191q-34 0-62-17t-45-46-16-68 16-66 45-45 62-16q25 0 48 13t35 45v-55h104v251h-105v-47q-12 25-32 38t-50 13m33-79q20 0 35-15t14-36-14-36-35-13q-22 0-36 14t-15 36 15 35 36 15m336 172q-19 0-36-2t-26-6l8-73q9 2 20 3t20 2q34 0 48-14t15-43v-29q-12 31-34 44t-52 14q-46 0-72-34t-25-95v-115h105v121q0 44 32 44 19 0 31-16t12-42v-107h105v192q0 80-39 118t-112 38m308-93q-35 0-58-12t-32-33-10-46v-102h-32v-62h40l46-79h52v79h58v62h-58v88q0 11 7 17t20 7 24-6l7 69q-12 9-30 13t-34 5m227 0q-43 0-75-17t-51-46-18-67q0-39 18-68t52-44 74-16q43 0 76 16t50 45 18 67-18 68-51 45-75 17m1-75q20 0 33-16t14-39-13-39-33-15q-22 0-35 15t-13 39 13 39 34 16m286 71h-105v-251h104v55q11-28 34-43t54-15q49 0 76 33t27 96v125h-105v-131q0-44-36-44-22 0-35 15t-14 43v117m393-66q15 0 31-3t33-11l12 64q-18 10-40 15t-50 5q-50 0-85-17t-51-45-18-67q0-39 19-68t50-45 70-16q56 0 86 35t30 100l-149 19q17 34 62 34m-70-80l79-16q-2-16-11-24t-23-8q-20 0-32 14t-13 34m458 154q-55 0-96-23t-65-64-23-93q0-53 23-93t65-64 96-23 96 23 64 63 24 94q0 53-24 93t-64 64-96 23m0-91q31 0 51-25t21-64q0-27-10-48t-25-32-38-12q-31 0-51 25t-20 67q0 40 20 64t52 25m327 83h-105v-251h104v55q11-28 34-43t54-15q49 0 76 33t27 96v125h-105v-131q0-44-36-44-22 0-35 15t-14 43v117m393-66q15 0 31-3t33-11l12 64q-18 10-40 15t-50 5q-50 0-85-17t-51-45-18-67q0-39 19-68t50-45 70-16q56 0 86 35t30 100l-149 19q17 34 62 34m-70-80l79-16q-2-16-11-24t-23-8q-20 0-32 14t-13 34" />
</svg>