<svg id="fnt-Peralta" viewBox="0 0 2079 1000" xmlns="http://www.w3.org/2000/svg"><path id="peralta" class="f" d="M97 606l-15-221q-18 5-33 10t-28 10l-13-69q26-8 51-15t47-10 43-7 38-5q40-5 74-5 36 1 63 7t45 19 27 29 9 37q0 27-13 48t-33 38-47 28-55 20-57 12-50 8l0 67 83 0v56l-207 13-2-70 73 0m151-253q-9 0-20 1t-23 3-27 5-29 6l1 132q17-4 37-9t39-13 36-17 30-20 20-23 5-27q-1-10-6-18t-15-11-22-7-26-2m367 213l74 17q-10 24-26 42t-37 29-44 18-46 5q-31 0-56-10t-41-26-27-39-11-47q0-39 13-66t35-44 51-25 63-8q12 0 26 1t25 7 24 12 20 19 16 29 9 40l-201 36q2 17 7 33t14 28 21 20 30 7q19-2 33-12 6-3 12-9t9-14 7-19 0-24m-135-41l116-20q-1-12-4-20t-8-15-10-10-12-7q-14-5-31-5-16 2-26 9t-15 18-8 24-2 26m354 87l76-1v41l-188 24-7-63 62 0 3-136-76-5v-42l158-14-8 55q5-6 14-13t20-16 22-15 25-14 24-12 21-6l7 81q-35 0-60 6t-42 13q-20 9-33 20l-18 97m415 19l59 8-13 45-121-9q0-4 1-8t2-9q0-4 1-8-21 11-43 16t-42 5q-15 0-32-3t-30-9-22-18-9-28q0-18 8-31t22-22 29-14 34-9 34-5 29-1q13 0 23 1t19 2q3-18 3-34 0-12-3-22t-10-15-20-10-31-2q-12 1-22 6-5 3-9 7t-9 8-7 12-5 16l-79 4q2-17 9-30t17-23 21-16 25-12q28-10 64-12 32-1 54 6t36 17 23 24 11 28 5 25 0 20q-1 10-4 24-2 13-6 31t-12 45m-56-64q-6-1-13-1t-13 0q-6 0-15 0t-19 2-19 4-18 6-13 10-4 13q0 6 3 11t10 9 14 5 17 0q19-3 35-8t28-10q2-10 3-21t4-20m231 48l72-5-8 63-182-5-2-44 61-4 0-257-71-3v-44l154-5-24 304m189-42q0 13 4 23t10 16 15 9 20 4 21-4 22-9 22-16 19-22q3 9 5 19 3 9 6 21t7 26q-15 11-29 18t-28 11-25 6-23 1q-27 0-46-7t-32-20-19-29-10-37-5-41 0-42q0-6 0-13t1-14l-59 2 5-51 59-5q3-21 5-40t5-36q3-19 6-35l79 6q-3 13-6 28-3 14-6 32t-7 39l106-9-1 63-113 4q-4 27-6 53t-2 49m406 58l58 8-12 45-122-9q1-4 2-8t1-9q1-4 2-8-21 11-43 16t-43 5q-15 0-31-3t-30-9-22-18-9-28q0-18 8-31t21-22 30-14 34-9 33-5 29-1q13 0 24 1t19 2q3-18 3-34 0-12-3-22t-11-15-20-10-30-2q-12 1-23 6-4 3-9 7t-8 8-7 12-5 16l-79 4q2-17 8-30t17-23 22-16 24-12q29-10 64-12 32-1 54 6t37 17 22 24 12 28 4 25 0 20q0 10-3 24-2 13-7 31t-11 45m-57-64q-5-1-12-1t-14 0q-6 0-15 0t-18 2-20 4-17 6-13 10-5 13q0 6 4 11t9 9 15 5 17 0q18-3 34-8t28-10q2-10 4-21t3-20" />
</svg>