<svg id="fnt-Petit Formal Script" viewBox="0 0 5138 1000" xmlns="http://www.w3.org/2000/svg"><path id="petit-formal-script" class="f" d="M67 676q-67 0-67-79 0-36 12-74t36-78q24-40 54-72t65-54 72-33 76-12q27 0 47 5t35 15 21 25 7 34q0 26-12 49t-33 40-50 27-62 10v-3q29-4 52-16t40-28 25-38 8-46q0-26-9-40t-31-21q-13 6-26 16t-22 24q-2 4-5 8t-5 11-7 16-10 25-13 36-19 51q-18 51-39 90t-42 63-47 37-51 12m186-310q8-14 19-26t22-23 24-19 26-13q-6-1-13-1t-14-1q-36 0-73 12t-69 33-63 52-53 68q-22 37-34 75t-11 74q0 36 12 53t39 16q13 0 24-3t21-11 20-19 19-29 20-40 23-54q10-26 18-46t14-35 10-24 7-17 7-12 5-10m265 305q-44 0-68-23t-24-69q0-12 2-26t6-28q8-33 24-61t37-48 45-32 48-11q24 0 38 11t14 32q0 12-4 23t-14 22-21 18-28 15q-19 8-42 12t-52 4q-7 20-11 42t-4 43q0 34 14 49t45 15q26 0 49-10t43-26 36-37 29-42l13-22 6 5-12 22q-16 27-34 49t-39 39-45 25-51 9m77-289q-16 0-32 10t-31 25-27 37-23 48q27-1 46-5t33-11q12-5 22-13t19-19 13-23 5-25q0-7-2-11t-5-7-8-4-10-2m78 5v-10h72l23-64h36l-23 64h73v10h-77l-58 161q-4 10-7 20t-6 19-4 19-2 16q0 17 9 27t28 10q18 0 35-7t34-21 33-36 33-51l13-22 6 5-13 22q-19 34-37 57t-36 38-36 21-37 6q-15 0-27-4t-19-13-12-20-4-26q0-13 3-28t9-32l59-161h-68m202 161l62-171h36l-62 171q-3 10-7 20t-6 19-4 19-1 16q0 17 8 27t28 10q17 0 32-7t30-21 30-36 32-51l12-22 7 5-13 22q-17 31-34 55t-32 38-33 22-36 7q-15 0-26-4t-19-13-12-20-4-26q0-13 3-28t9-32m82-235q0-8 6-14t14-6 15 6 6 14q0 4-2 8t-4 7-7 4-8 1q-8 0-14-5t-6-15m89 74v-10h71l24-64h36l-23 64h73v10h-77l-59 161q-3 10-6 20t-6 19-4 19-2 16q0 17 9 27t28 10q18 0 35-7t34-21 33-36 33-51l12-22 7 5-13 22q-19 34-37 57t-36 38-36 21-38 6q-14 0-26-4t-19-13-12-20-4-26q0-13 3-28t9-32l59-161h-68m671-18q8-15 20-29t26-26q-22-2-43-6t-42-7-40-6-37-3q-23 0-38 5t-25 12-14 17-4 19q0 9 3 18t10 14 17 11 23 4q7 0 15-1t17-4 16-6 15-7l5 6q-8 5-17 8t-18 7-17 3-17 2q-15 0-26-4t-20-12-12-18-4-21q0-16 7-29t22-22 36-15 49-5q21 0 41 2t43 6 42 6 45 4q19-11 40-17t41-7q11 0 15 2t4 7q0 9-8 16t-21 12-32 8-39 3q-3 0-7 0t-7-1q-7 7-11 14-2 3-4 7t-5 11-7 15-9 23-11 33-16 43h71v10h-75q-19 54-41 93t-46 63-50 37-54 12q-18 0-33-4t-27-14-18-23-7-31q0-12 3-22t8-19 12-13 14-5q5 0 9 2t4 10q0 5-3 8t-7 6-9 5-10 6-6 10-3 16q0 14 5 25t14 18 24 12 31 4q13 0 24-2t23-10 21-18 20-29 22-41 25-57q4-11 8-20t7-19h-66v-10h70q10-24 16-40t10-25 7-16 6-11m158-94q-15 0-31 5t-31 12q14 0 27-2t24-3 16-4 6-5q0-3-11-3m-39 250q8-33 25-61t38-48 46-32 50-11q21 0 35 7t22 18 13 27 3 33q0 18-3 36t-9 35q-11 31-27 57t-37 45-44 30-46 10q-17 0-31-6t-23-18-15-29-5-38q0-13 2-27t6-28m70 134q18 0 36-10t35-28 32-43 25-54q3-8 5-18t6-21 4-23 1-22q0-11-2-22t-8-18-14-13-22-5q-19 0-38 11t-35 28-30 44-23 57q-6 21-9 42t-4 37q0 58 41 58m413-264q0-4-5-8t-15-4q-10 0-21 6t-26 21-33 41-41 67l-12 21-47 128h-36l105-290h37l-43 118q20-35 37-58t30-38 27-20 24-6q16 0 26 9t9 25q0 6-2 12t-5 10-7 7-10 2q-4 0-7-1t-7-4-5-6-2-9q0-4 2-8t3-7 6-5 8-2q3 0 5 1 0 0 1 1t2 0q2 0 2-3m-8 272l105-290h36l-38 105q16-28 31-48t29-34 29-21 32-6q15 0 26 5t19 13 12 21 4 28q0 9-2 20t-6 26q16-28 31-49t29-36 30-21 32-7q15 0 27 5t19 14 12 20 4 24q0 14-4 30t-10 34-14 35-13 34-10 30-4 25q0 15 9 25t29 10q31 0 61-28t61-87l13-22 6 5-12 22q-18 31-34 54t-32 38-33 23-36 7q-15 0-27-4t-19-13-12-19-3-22q0-13 4-29t10-33 13-35 13-34 10-32 4-27q0-8-2-15t-7-12-12-8-16-3q-16 0-30 8t-28 22-29 38-31 51l-13 22-51 141h-36l53-145q6-18 11-32t8-26 5-21 2-18q0-18-9-29t-28-11q-16 0-30 7t-28 23-29 37-31 52l-13 23-51 140h-36m578-143q8-26 21-48t26-38 30-29 32-21 31-11 28-4q14 0 24 4t15 12 8 18 2 25l20-55h36l-62 171q-4 10-7 20t-6 19-4 19-2 16q0 17 9 27t28 10q16 0 32-7t30-21 30-36 31-51l13-22 6 5-12 22q-18 32-34 55t-33 38-33 22-35 7q-15 0-27-4t-19-13-11-20-4-26q0-10 1-21t6-23q-32 54-64 81t-63 26q-15 0-26-5t-17-16-10-23-4-29q0-17 4-36t10-38m52 135q13 0 27-7t27-19 26-28 24-35 21-38 16-38 11-36 4-31q0-13-3-21t-8-14-12-7-13-3q-14 0-30 9t-34 26-34 43-31 62q-12 29-17 54t-6 42q0 19 8 30t24 11m303-111l109-299h37l-109 299q-4 10-7 20t-6 19-4 19-2 16q0 17 9 27t28 10q16 0 31-7t30-21 31-36 31-51l13-22 6 5-12 22q-18 31-34 55t-33 38-33 22-36 7q-15 0-26-4t-19-13-12-20-4-26q0-13 3-28t9-32m683-153l-8-4q9-14 14-26t4-25q0-13-4-24t-13-18-19-12-26-4q-17 0-31 6t-24 16-16 25-5 31 5 35 12 33 16 33 16 32 12 32 5 33q0 18-5 33t-15 29-23 23-29 18-33 11-35 4q-27 0-47-9t-35-22-21-33-7-38q0-13 3-24t8-20 11-14 14-5q6 0 10 3t4 10q0 5-3 9t-6 5-8 4-7 3q-6 3-11 10t-4 22q0 15 6 31t17 28 29 21 43 7q21 0 40-6t33-19 23-32 8-43q0-19-5-35t-11-30-14-28-15-28-11-29-5-34q0-23 8-42t23-34 35-22 46-8q18 0 33 5t25 12 16 19 6 26q0 16-7 30t-22 29m227 41q-9 0-13-5t-5-13q0-8 4-13t11-4q2 0 5 1 1 0 1 0t1 0q2 0 2-3t-2-6-7-6-9-3-12-2q-15 0-30 9t-30 24-28 36-22 44-15 48-5 49q0 18 3 31t10 20 18 12 26 4q23 0 45-7t41-23 39-35 34-50l12-22 7 5-13 22q-35 62-77 92t-92 30q-46 0-69-23t-22-68q0-13 2-27t5-28q9-33 25-61t37-48 44-32 49-11q26 0 40 13 6 6 9 13t3 13q0 11-6 18t-16 6m257-41q0-4-5-8t-15-4q-10 0-21 6t-26 21-33 41-41 67l-12 21-47 128h-36l106-290h36l-43 118q20-35 37-58t30-38 27-20 24-6q16 0 26 9t9 25q0 6-2 12t-4 10-8 7-10 2q-4 0-7-1t-7-4-5-6-2-9q0-4 2-8t3-7 6-5 8-2q3 0 5 1 0 0 1 1t2 0q2 0 2-3m35 153l62-171h36l-62 171q-3 10-7 20t-6 19-4 19-1 16q0 17 9 27t27 10q17 0 32-7t30-21 30-36 32-51l12-22 7 5-13 22q-17 31-34 55t-32 38-33 22-36 7q-15 0-26-4t-19-13-12-20-4-26q0-13 3-28t9-32m82-235q0-8 6-14t14-6 15 6 6 14q0 4-2 8t-4 7-7 4-8 1q-8 0-14-5t-6-15m9 482l155-426h36l-39 108q31-52 62-78t63-26q15 0 26 5t17 16 10 23 3 28q0 17-3 36t-10 39q-12 38-32 66t-43 48-49 28-48 9q-13 0-22-3t-14-9-9-16-3-24l-64 176h-36m269-410q-13 0-27 7t-28 20-26 30-25 36-22 39-17 39-11 36-4 29q0 9 2 16t6 13 11 8 16 4q11 0 28-7t35-22 36-43 34-68q6-14 10-27t7-26 4-24 2-20q0-18-8-29t-23-11m113 2v-10h71l24-64h36l-23 64h73v10h-77l-59 161q-3 10-6 20t-6 19-4 19-2 16q0 17 9 27t28 10q18 0 35-7t34-21 33-36 33-51l12-22 7 5-13 22q-19 34-37 57t-36 38-36 21-37 6q-15 0-27-4t-19-13-12-20-4-26q0-13 3-28t9-32l59-161h-68" />
</svg>