<svg id="fnt-Philosopher" viewBox="0 0 2513 1000" xmlns="http://www.w3.org/2000/svg"><path id="philosopher" class="f" d="M98 667h-45v-270q0-23-6-37t-29-13h-10v-10h130q13 0 29 1t33 8 31 17 23 29 9 45q0 25-8 42t-23 28-28 16-29 7-22 2h-55v135m38-153q10 0 23-4t26-13 20-25 8-38-8-38-20-24-26-14-23-4q-10 0-20 2t-18 3v150q8 2 18 4t20 1m221 153h-45v-270q0-23-6-37t-29-13h-10v-10h45q18 0 27 4t14 18 4 38v55q10-10 26-18t39-7q22 0 41 7t32 27 12 56v150h-45v-150q0-25-8-40t-20-21-27-7q-15 0-28 8t-22 19v191m246-265q-11 0-20-10t-8-22q0-11 6-17t17-6q12 0 20 10t8 22q0 11-6 17t-17 6m26 265h-45v-175q0-23-6-37t-29-13h-10v-10h45q18 0 27 4t14 18 4 38v175m122 0h-45v-270q0-23-7-37t-28-13h-10v-10h45q17 0 27 4t14 18 4 38v270m170 5q-35 0-59-17t-38-44-13-62q0-34 13-62t38-44 59-16 60 16 37 44 13 62q0 34-13 62t-37 44-60 17m0-20q19 0 33-14t22-37 8-52q0-29-8-52t-22-37-33-13q-18 0-33 13t-22 37-7 52q0 29 7 52t22 37 33 14m247 20q-30 0-49-6t-28-14-11-22-2-31h10q4 25 21 39t49 14q29 0 42-10t13-25-11-26-34-19l-30-13q-28-11-44-27t-16-40q0-32 24-49t59-16q28 0 47 5t28 15 11 21 1 31h-10q-4-24-21-38t-46-14q-25 0-38 10t-12 25q0 13 10 23t30 19l30 13q32 13 48 28t17 42q0 31-25 48t-63 17m241 0q-35 0-59-17t-38-44-13-62q0-34 13-62t38-44 59-16 60 16 37 44 13 62q0 34-13 62t-37 44-60 17m0-20q19 0 33-14t22-37 8-52q0-29-8-52t-22-37-33-13q-18 0-33 13t-22 37-7 52q0 29 7 52t22 37 33 14m221 110h-45v-270q0-23-6-37t-29-13h-10v-10h45q19 0 29 5t14 17h2q8-9 24-18t44-9q30 0 50 16t30 44 10 62q0 34-11 62t-31 44-53 17q-21 0-36-5t-27-10v105m48-110q22 0 36-14t20-37 6-52q0-29-6-52t-19-37-32-13q-21 0-33 9t-20 21v160q12 5 24 10t24 5m214 15h-45v-270q0-23-7-37t-28-13h-10v-10h45q17 0 27 4t14 18 4 38v55q9-10 26-18t39-7q21 0 40 7t32 27 13 56v150h-45v-150q0-25-8-40t-21-21-26-7q-15 0-28 8t-22 19v191m311 5q-35 0-59-17t-35-44-11-62q0-34 12-62t34-44 54-16q51 0 75 28t25 82l-1 20h-152q0 41 18 68t50 27q24 0 40-11t30-29l10 7q-17 29-40 41t-50 12m-58-135h105q0-44-13-67t-39-23q-15 0-27 11t-19 32-7 47m259 130h-45v-175q0-23-6-37t-29-13h-5v-10h40q19 0 29 5t14 17h2q8-9 23-18t37-9q8 0 16 1t14 6 10 10 8 13l-20 15q-6-8-17-12t-23-3q-15 0-28 6t-20 19v185" />
</svg>