<svg id="fnt-Philosopher" viewBox="0 0 2513 1000" xmlns="http://www.w3.org/2000/svg"><path id="philosopher" class="f" d="M53 667v-270q0-26-7-38t-28-12h-10v-10h130q48 0 87 20t38 80q0 39-20 60t-45 28-45 7h-55v135h-45m83-153q16 0 34-8t30-26 13-46-13-45-30-27-34-8q-18 0-38 5v150q20 5 38 5m176 153v-270q0-26-7-38t-28-12h-10v-10h45q19 0 28 4t13 18 4 38v55q11-11 27-18t38-7q38 0 61 20t24 70v150h-45v-150q0-35-16-52t-39-16q-26 0-50 27v191h-45m291-265q-11 0-20-10t-8-22q0-11 6-17t17-6q12 0 20 10t8 22q0 11-6 17t-17 6m-19 265v-175q0-26-7-38t-28-12h-10v-10h45q19 0 28 4t13 18 4 38v175h-45m122 0v-270q0-26-7-38t-28-12h-10v-10h45q18 0 27 4t14 18 4 38v270h-45m215 5q-34 0-59-17t-38-44-13-62 13-62 38-44 59-16 59 16 38 44 13 62-13 62-38 44-59 17m0-20q19 0 33-14t22-37 8-52-8-52-22-37-33-13-33 13-22 37-7 52 7 52 22 37 33 14m247 20q-57 0-77-20-9-9-11-20t-2-33h10q5 25 22 39t48 14q28 0 41-10t14-25q0-15-11-25t-34-20l-30-13q-30-12-45-28t-15-39q0-31 23-48t60-17q55 0 75 20 8 8 10 19t2 33h-10q-4-25-21-39t-46-13q-24 0-37 9t-13 26q0 26 40 42l30 13q34 14 49 29t16 41q0 30-25 47t-63 18m241 0q-34 0-59-17t-38-44-13-62 13-62 38-44 59-16 59 16 38 44 13 62-13 62-38 44-59 17m0-20q19 0 33-14t22-37 8-52-8-52-22-37-33-13-33 13-22 37-7 52 7 52 22 37 33 14m176 110v-270q0-26-7-38t-28-12h-10v-10h45q19 0 29 5t14 17h2q9-11 26-19t42-8q43 0 66 34t24 88q0 54-25 88t-70 35q-19 0-34-4t-29-11v105h-45m93-110q32 0 47-28t15-75q0-46-14-74t-43-28q-34 0-53 30v160q15 7 26 11t22 4m169 15v-270q0-26-7-38t-28-12h-10v-10h45q18 0 27 4t14 18 4 38v55q10-11 27-18t38-7q37 0 61 20t24 70v150h-45v-150q0-35-16-52t-39-16q-27 0-50 27v191h-45m356 5q-34 0-58-17t-35-44-12-62q0-34 12-62t34-44 54-16q50 0 75 28t25 82l-1 20h-152q0 42 18 68t50 27q23 0 39-10t31-30l10 7q-17 28-39 40t-51 13m-58-135h105q0-44-13-67t-39-23q-15 0-27 11t-19 33-7 46m214 130v-175q0-26-7-38t-28-12h-5v-10h40q19 0 29 5t14 17h2q9-11 24-19t36-8q20 0 30 7 9 7 18 23l-20 15q-6-8-16-12t-24-3q-15 0-28 6t-20 19v185h-45" />
</svg>