<svg id="fnt-Piedra" viewBox="0 0 1241 1000" xmlns="http://www.w3.org/2000/svg"><path id="piedra" class="f" d="M157 475l-6-9q0-1 1-2t3-5 4-9q5-12 5-40 0 0-7-6t-6-7q0-5 8-24l3-6q0-6-6-11t-12-8l-5-3q-21 18-21 26l3 33q-10 9-10 13t1 5q8 7 8 10t-2 4-1 9l1 22q0 11-2 14 8 8 13 8t17-5 11-9m100-70l-1 32q0 9 1 14v1q0 10-20 37t-26 28-23 13-18 17q0 3-27 7t-26 6q0 49 8 79l2 9q0 4-15 11t-18 10q-5 5-23 8-9 0-35-6t-26-12q5-11 9-54l1-15q0-1 2-2 7-4 7-11t-9-13-8-7q0-6 7-18l2-5 1-34q0-17-1-19t-2-3l6-25q1-7 1-16 0-26-6-65l-2-14 7-12q0-9-13-35l-5-10q28-24 52-24 32 3 34 6 5 5 11 24l2 6q3 3 5 3t3-1q14-21 18-30 28-2 41-2l6 1h1q6 1 21 5t17 8q16 16 30 49 5 11 7 12v0q0 2-8 10t-8 12v0q0 5 4 8t10 4q4 0 4 13m26-72l4-27q0-3-1-9v0q0-3 6-9t20-12 32-5q15 3 15 6v1q-2 10-2 18t1 9 6 3 6 3q1 6 1 13t-1 11-14 17-16 12q-16 0-30-7t-21-13-6-11m83 191l-3 81q0 24 3 29 10 22 10 27t-1 5-11 4q-36 12-40 14t-11 2-23-7-17-11l7-61q0-1 6-5t7-7-7-8-7-6v-1q3-11 3-32l-3-59q0-1 3-5t4-12-6-23-6-19q0-3 23-17t31-14q47 2 47 7 0 10-6 34t-6 34 1 17q-13 8-13 19 6 6 14 6 1 0 1 8m142-52q-1-1-1-7t5-17q0-4-7-4l-8 1q-9 4-16 22 1 9 1 18t-2 12q0 3 1 6t9 10 18 6q3 0 4-7t1-15 2-11 3-4q0-4-10-10m85 115v3l4 39q0 3-1 6t-11 14-11 15-18 10-21 7-6-1-3-6q-4-11-8-11-6 0-13 7t-6 8q-29 0-54-10-9-4-9-6 0-6-29-32l-10-8q-4-4-6-32t-2-48 0-19 7-4 8-5 2-5l-1-6q-10-10-10-11 0-4 11-28t19-32q59-34 85-34 53 0 60 7 23 32 23 62-12 5-15 8t-3 10 6 6l11-2q1 0 1 1 0 41-23 64-7 7-33 12t-33 6q-2 0-11-8t-10-8-5 5-5 9q8 24 19 35 4 4 18 4 42 0 62-20 6-8 8-8t8 2 5 4m138-89l-1-33q0-9 1-12v0q0-2-3-2t-11 5-10 7-4 12-1 16 0 8v1q0 2-6 8t-5 14 3 11 4 6q-2 10-2 20t3 13q10 9 14 9t12-14 7-17-5-8-5-6l6-17q3-2 3-21m95 173q-4 2-9 4t-8 6q-6 6-23 9l-6 1-36-7q-9-9-17-23l-2-5q4-11 7-26l1-6q-1-1-4-1-6 0-16 8-1 2-4 12-9 29-12 29-36 0-48-5-5-2-26-29l-7-9-6-28 7-5q6-4 6-7 0-6-13-13-3-2-3-20l1-20 7-4q6-5 6-9t-5-9-5-7q0-9 7-34t9-26 19-14 21-15q15-15 61-15 3 0 3-21t-3-34q6-3 6-11-13-36-13-39t25-17 34-14q45 0 45 5-7 37-7 52-17 8-17 17t10 9q4 0 4 0t1 5-4 31-4 36q6 3 6 6-3 26-3 59t2 57q-18 15-18 23 4 11 13 11 3 62 14 73 8 14 8 16t-4 4m75-288l15 2q4 0 9-2 8 11 8 15-5 18-5 42 2 9 8 9 36-53 46-53 25 2 42 19 7 20 7 41-3 34-6 37-8 2-12 2h-1q-18-12-29-12t-33 19-21 27q1 13 6 13 4-2 8-2t4 3q-3 34-3 53t2 23q-4 9-4 12t5 13 5 14q0 4-24 17t-33 12-29-2-21-5q0-1 3-18t3-30l6-4q5-3 5-10t-13-13q2-11 5-63l0-16-7-34q0 0 3-4t4-9-7-29-6-29 1-7 6-3 8-4 9-7 11-8q13-9 25-9m244 178l1-25q0-3-1-3-6 0-22 8t-16 14q4 6 4 10t-1 5q-6 3-6 8t6 12 12 7 15-9 11-13l0-1q-3-3-3-13m82-24v3l2 38q0 4-1 4-16 10-16 24 0 4 7 7l8 3 4 26 9 17q0 1-5 4-13 9-20 9-11 0-26 9l-4 2h-1q-8 0-32-9l-8-3q-1-1-1-4l1-24v-2l-6-2q-2 0-6 6-6 8-31 25l-9 5q-14 0-29-9t-21-17-8-9 2-3q5-4 5-9 0-9-18-14l-5-1q0-23 4-44t8-30l5-10q6-8 38-25t52-17q1 0 5 3t6 3 7-2q9-5 9-8 0-7-7-19-6-6-36-9l-10-1q-10 0-28 7t-19 8-5-6-4-9 9-21 13-20q6-3 37-12t45-8q22 14 38 18t33 15 15 22q0 1-5 11t-4 15 2 11l3 4q0 25-1 29-6 11-6 12l5 7" />
</svg>