<svg id="fnt-Pixelify Sans" viewBox="0 0 2981 1000" xmlns="http://www.w3.org/2000/svg"><path id="pixelify-sans" class="f" d="M81 673h-51v-276h46v-46h141v46h46v140h-46v45h-136v91m0-271v130h131v-130h-131m293 271h-51v-231h51v231m0-271h-51v-51h51v51m111 271h-51v-50h46v-46h45v-40h-45v-45h-46v-50h51v45h45v45h41v-45h45v-45h51v50h-46v45h-45v40h45v46h46v50h-51v-45h-45v-46h-41v46h-45v45m404 0h-141v-45h-46v-141h46v-45h141v45h46v50h-51v-45h-131v40h91v50h-91v41h131v-46h51v50h-46v46m157 0h-51v-322h51v322m111 0h-51v-231h51v231m0-271h-51v-51h51v51m111 271h-51v-276h46v-46h141v46h46v50h-51v-45h-131v85h91v50h-91v136m389 90h-141v-45h-46v-50h51v45h131v-85h-136v-46h-46v-140h51v135h131v-135h51v276h-46v45m393-90h-141v-45h-46v-51h51v46h131v-86h-136v-45h-46v-95h46v-46h141v46h46v50h-51v-45h-131v85h136v45h46v96h-46v45m278 0h-141v-45h-46v-141h46v-45h141v45h46v136h45v50h-50v-45h-41v45m-136-181v131h131v-131h-131m323 181h-50v-231h186v45h46v186h-51v-181h-131v181m419 0h-186v-50h181v-41h-136v-45h-45v-50h45v-45h187v50h-182v40h136v45h46v51h-46v45" />
</svg>