<svg id="fnt-Plaster" viewBox="0 0 2422 1000" xmlns="http://www.w3.org/2000/svg"><path id="plaster" class="f" d="M195 577v-243h18q73 0 109 35 32 32 32 91 0 52-34 84-36 33-100 33h-25m-175 89v-332h131v332h-131m392 1v-374h132v374h-132m378-97v-152h134v249h-15q-64 0-91-23-28-22-28-74m-177-25q0-27 7-50t22-40q33-37 93-37h18v249h-12q-62 0-95-34-33-32-33-88m401-34h-2q-1-3-1-6l-1-7q-1-7-1-17t4-23 15-22q22-21 68-21l181 160q3 8 3 23t-5 28-16 22q-23 21-67 21l-178-158m150-93h117q8 11 8 30 0 37-27 54l-98-84m-41 249h-118q-7-12-7-31 0-36 26-54l99 85m379 0h-19q-121 0-121-111v-137l104-68h36v316m36-168v-81h117v81h-117m0 168v-105h135v22q0 41-25 61-28 22-89 22h-21m375-112v-137h16q92 0 113 62 6 21 6 48v27h-135m-176-10q0-27 7-50t22-40q32-37 92-37h19v249h-13q-62 0-95-34-32-32-32-88m176 122v-64h122v7q0 22-16 38-20 19-57 19h-49m384-125v-55q0-69 89-69h35v124h-124m-171 125v-249h136v249h-136" />
</svg>