<svg id="fnt-Playwrite DE VA" viewBox="0 0 4521 1000" xmlns="http://www.w3.org/2000/svg"><path id="playwrite-de-va" class="f" d="M70 674q-23 0-21-15l84-467q2-7 8-11t17-3h94q51 0 86 12t52 37 17 65q0 41-15 71t-43 51-63 34-77 18q-21 3-43 4t-39 2l-34 188q-1 7-6 10t-17 4m103-456l-39 214q12 0 26-1t28-2 27-3q44-7 77-23t51-43 19-65q0-28-13-45t-37-24-64-8h-75m135 457q-9 0-13-6t-2-13 6-13 14-5q13 0 29-9t35-23 40-36 41-46 40-53 35-58 29-59 20-59 7-54q0-8 6-12t15-3 14 3 7 12q0 25-8 55t-22 61-32 64-41 63-46 60-47 52-47 42-43 27-37 10m163 0q-16 0-24-7t-12-16-3-22 2-25l57-324q10-59 31-86t53-27q17 0 30 9t19 25 7 39q0 9-7 14t-14 4-15-4-6-14q0-11-2-18t-6-11-10-4q-8 0-15 7t-12 26-12 50l-59 324q-1 8-1 13t2 6 5 2q5 0 9-3t10-9 10-14q4-5 8-6t10 2q8 4 10 9t0 9q-6 12-15 23t-22 20-28 8m200 0q-21 0-36-11t-24-33-8-50q0-24 6-49t18-47 29-40 40-28 50-10q15 0 30 4t31 11v-2q1-6 6-8t15-3q14 0 18 4t3 13l-34 189q-2 8-2 13t3 6 5 2q5 0 9-3t9-9 11-14q3-5 7-6t10 2q8 4 10 9t0 10q-4 11-13 22t-22 20-29 8q-16 0-25-7t-12-16-4-23 3-24q1-4 1-9t0-10q-16 29-33 49t-36 30-36 10m-23-99q0 18 3 31t11 21 20 7q18 0 38-19t39-54 38-84l3-19q-16-7-30-10t-25-2q-18 0-34 7t-27 21-20 29-12 36-4 36m460 129l3-45q9-7 18-14t18-13 16-10 13-8q8-5 13-2t8 9 0 13-7 11q-9 5-19 12t-21 15-21 16-21 16m-112 211q-19 0-33-8t-22-21-8-29q0-17 6-34t18-34 30-35 44-40q13-9 26-19t26-19l18-104q-12 26-27 45t-30 32-31 18-30 7q-21 0-35-10t-19-30 1-51l28-160q2-9 7-12t15-3q13 0 18 4t3 13l-29 162q-3 14-2 24t6 17 19 6q17 0 35-14t35-39 33-60 28-76l2-22q2-9 7-12t15-3q13 0 18 4t3 13l-64 358q-6 34-16 58t-24 41-31 25-40 8m5-39q12 0 22-6t17-18 14-30 10-41l9-52q-7 5-14 11t-15 10q-18 16-31 29t-20 26-12 23-3 23q0 7 2 12t8 9 13 4m306-201q-19 0-32-7t-18-21-8-32 4-38l25-154q1-7 6-11t16-4q15 0 19 4t2 12l-26 151q-3 17-4 30t5 22 20 8 27-11 26-28 21-40 16-42l17-91q2-7 6-11t16-4q15 0 18 4t3 12l-24 144q-1 11-2 23t2 22 8 16 19 6q14 0 27-9t26-25 20-35 14-41 5-39q0-8-1-17t-3-17-6-17q-4-9-2-15t7-10 14-4q9 0 14 6t10 17q4 9 6 17t4 16 1 17q0 25-7 52t-20 53-30 46-40 33-48 12q-21 0-35-8t-21-25-9-36q-11 21-25 36t-29 24-34 9m376-2q-10 0-16-3t-4-12l42-235q2-9 6-12t15-3q14 0 19 4t3 13l-15 82q13-25 26-44t28-32 26-19 24-6q13 0 24 6t17 16q4 4 3 10t-6 11q-5 6-10 8t-10-2q-5-3-11-6t-12-3q-13 0-29 14t-34 39-33 59-28 76l-2 26q-1 7-7 10t-16 3m256 1q-26 0-36-19t-1-54l30-178q2-9 6-12t15-3q14 0 19 4t3 13l-34 189q-2 11-1 16t9 5q4 0 7-3t8-8 11-15q3-5 7-6t11 2q7 4 10 9t-1 9q-8 17-18 28t-21 17-24 6m31-343q-12 0-19-7t-7-21q0-14 8-25t24-10q12 0 19 7t7 22-8 24-24 10m-5 343q-7 0-10-6t-2-13 6-13 13-5q11 0 27-14t35-39 40-58 41-69 39-76 36-75 28-68 19-54q2-9 7-12t15-3q14 0 18 4t3 12l-76 426q20-5 41-18t45-36 56-55q3-3 7-4t11 4q6 5 6 9t-3 8q-25 27-51 52t-56 46-61 27l-3 16q-1 7-7 10t-16 3q-9 0-15-3t-5-12l2-11q-15-1-27-6t-20-14-8-22q0-15 11-25t27-10q8 0 15 3t13 7l45-252q-18 43-38 85t-40 80-43 72-43 57-42 38-40 14m170-69q0 3 2 5t8 4 15 2q-1-8-7-13t-10-4q-8 0-8 6m315 70q-30 0-51-13t-32-37-11-54 10-60 28-53 46-38 61-14q23 0 39 7t25 21 9 34-11 36-31 30-44 22-51 17-53 11l2-35q17-3 36-8t39-11 34-15 25-19 9-24q0-14-10-20t-24-6q-21 0-38 10t-30 28-19 38-7 44q0 21 6 37t18 24 31 8q17 0 30-7t24-17 22-23q5-7 13-6t13 7q6 5 7 11t-4 13q-17 22-35 36t-37 20-39 6m447-9h-86q-22 0-19-14l83-461q2-7 8-11t17-3h91q53 0 92 14t66 40 39 58 13 70q0 55-14 102t-41 85-64 64-84 41-101 15m17-446l-73 403h56q45 0 84-11t70-34 54-55 35-73 12-91q0-31-11-57t-32-44-51-28-68-10h-76m483 455q-43 0-75-15t-48-42-17-65q0-26 9-50t26-44 40-33 51-19q-23-7-39-22t-23-33-8-40q0-25 7-47t21-40 33-30 42-20 50-6q28 0 54 7t45 21 34 32q6 9 6 16t-9 13q-7 6-14 5t-14-8q-12-13-28-23t-36-15-44-5q-22 0-41 7t-33 21-21 31-7 40q0 23 11 41t31 27 48 10h64q8 0 10 4t1 16q-2 11-6 15t-11 5h-65q-29 0-54 9t-44 26-29 39-10 47q0 26 12 44t34 28 53 9q27 0 51-9t45-27 37-43q7-11 14-11t15 5q8 5 8 12t-6 17q-20 32-46 54t-57 34-67 12m525-2q-10 0-16-5t-8-19l-78-458q-1-9 4-14t17-8q11-1 15 1t6 12l71 422 219-421q6-10 12-13t17-1q12 2 16 9t-1 15l-242 460q-6 11-13 15t-19 5m231 0q-13 0-18-7t2-18l241-459q6-12 13-16t19-4q10 0 16 4t8 19l85 458q2 10-3 16t-19 7q-11 0-15-5t-6-14l-22-123h-208l-64 122q-7 12-12 16t-17 4m246-436l-132 254h180l-48-254" />
</svg>