<svg id="fnt-Playwrite AU NSW" viewBox="0 0 5267 1000" xmlns="http://www.w3.org/2000/svg"><path id="playwrite-au-nsw" class="f" d="M58 674q-23 0-19-15l137-477q2-7 8-11t17-3h90q50 0 84 12t51 36 17 62q0 42-16 73t-44 54-69 36-88 20q-21 3-44 4t-44 2l-55 193q-3 7-8 10t-17 4m154-466l-63 219q13 0 28-1t30-2 30-3q51-8 87-26t55-45 19-67q0-27-12-44t-37-24-64-7h-73m241 466q-27 0-35-21t5-62l121-416q3-10 8-13t14-3q15 0 19 5t2 14l-128 437q-3 11-2 16t8 5q4 0 8-3t10-9 13-15q3-5 7-6t10 3q8 5 10 10t-1 10q-10 16-21 27t-23 16-25 5m164 1q-18 0-32-9t-21-28-7-41q0-24 7-50t20-51 33-45 45-32 56-12q14 0 30 4t31 11l0-2q3-7 8-9t13-2q15 0 20 5t1 14l-56 187q-2 9-2 14t2 6 4 1q5 0 10-3t11-9 13-15q4-5 8-6t9 3q8 5 10 10t-1 10q-4 8-14 20t-24 20-31 8q-18 0-27-8t-11-19 0-26 6-25q1-2 1-4t1-5q-20 30-39 49t-39 29-35 10m-14-86q0 14 3 25t9 16 15 5q17 0 39-19t46-54 48-87l5-17q-16-7-30-9t-26-2q-20 0-38 9t-30 25-23 34-14 38-4 36m325 85q-22 0-35-11t-15-32 7-54l45-152q3-10 7-13t15-3q15 0 19 5t2 14l-48 159q-4 13-5 24t5 17 18 6q18 0 38-15t40-41 40-63 37-79l2-11q3-10 8-13t14-3q15 0 20 5t1 14l-109 376q-13 46-29 72t-38 38-56 12q-18 0-34-5t-30-12-24-16q-8-7-11-14t8-15q9-8 14-9t14 7q14 11 29 18t36 7q21 0 35-8t24-27 19-49l67-231q-15 25-31 44t-32 32-34 20-33 6m322 2q-22 0-35-9t-17-25-3-35 8-41l40-142q2-7 7-11t16-4q16 0 19 4t2 14l-43 147q-4 16-6 31t3 23 20 8q14 0 28-10t27-27 25-38 20-42l27-95q2-7 7-11t16-4q16 0 19 4t0 14l-37 140q-2 8-4 20t-2 23 7 19 19 7q16 0 32-10t29-28 23-39 17-44 6-43q0-5-1-11t-1-13-2-13q-2-9-1-16t7-9 13-3q9 0 15 6t8 18q2 5 3 11t1 11 1 11q0 27-8 56t-22 57-34 50-44 36-52 13q-23 0-36-9t-19-24-6-32q-12 19-27 34t-30 23-35 8m373-2q-8 0-15-3t-4-13l67-233q3-10 8-13t14-3q15 0 20 5t1 14l-23 81q15-25 30-44t30-32 28-19 25-7q13 0 23 7t17 15q4 5 3 11t-6 11q-6 6-11 8t-9-2q-5-4-11-7t-11-3q-13 0-32 14t-39 41-40 62-37 78l-4 19q-2 7-7 10t-17 3m258 0q-27 0-35-21t5-62l47-166q3-10 8-13t14-3q15 0 20 5t1 14l-54 187q-3 11-2 16t8 5q4 0 8-3t10-9 13-15q4-5 8-6t10 3q7 5 9 10t-1 10q-10 16-21 27t-22 16-26 5m67-342q-11 0-18-7t-7-19q0-14 9-25t26-12q11 0 18 7t7 19q0 14-8 26t-27 11m101 342q-20 0-32-9t-14-27 6-44l39-137h-38q-6 0-8-5t0-15 7-15 11-5h40l29-100q3-9 7-12t15-3q15 0 20 4t1 15l-29 96h64q5 0 7 4t0 16q-2 9-7 14t-10 6h-65l-44 147q-5 17-2 25t12 7q10 0 23-8t27-28q4-4 9-5t12 4q7 4 8 9t0 9q-6 11-19 24t-29 23-40 10m226 2q-30 0-50-12t-29-35-9-48q0-29 10-60t30-57 48-41 66-16q24 0 40 8t24 20 8 32q0 21-13 38t-33 29-48 23-55 15-54 11l3-35q17-3 38-8t41-10 37-14 28-20 10-25q0-13-9-19t-22-5q-24 0-43 12t-33 31-21 43-7 45q0 17 5 31t16 20 28 7 30-7 26-18 23-24q6-7 14-5t13 7q5 6 6 12t-5 13q-18 24-37 37t-38 19-38 6m297-2q-13 0-17-8t3-18l294-469q7-11 14-16t19-4q10 0 15 5t7 20l38 467q2 10-4 16t-19 7q-11 0-14-5t-5-14l-10-130h-209l-81 129q-8 13-13 16t-18 4m296-445l-159 256h181l-22-256m291 447q-33 0-55-11t-34-35-11-55 12-74l92-328q2-7 8-11t17-3 17 4 4 11l-95 332q-10 33-11 57t5 40 20 23 35 8q21 0 44-8t45-24 47-39 47-55 49-69l75-266q3-7 9-11t17-3q11 0 16 4t3 11l-138 486q-2 7-9 10t-17 4-16-4-3-10l34-122q-24 33-49 59t-51 43-53 27-54 9m529-2q-22 0-18-14l140-487q3-7 9-11t17-3q9 0 14 3t7 11l139 413 120-413q2-7 8-11t17-3q23 0 18 14l-140 487q-1 7-8 10t-17 4q-8 0-12-3t-6-11l-141-419-121 419q-2 7-9 10t-17 4m611 2q-25 0-47-6t-41-18-33-24-26-29q-4-6-2-12t8-9q7-6 12-8t11 5q13 15 30 28t40 22 48 9q28 0 51-7t40-20 27-32 10-45q0-16-6-30t-15-26-26-22-34-21q-18-9-34-20t-29-22-23-26-15-32-6-40q0-29 11-54t32-41 50-27 65-10q28 0 51 8t42 22 35 29q6 6 4 11t-8 12q-5 6-11 7t-11-3q-13-12-28-22t-32-15-43-6q-24 0-44 5t-35 17-23 28-8 39q0 18 4 32t15 25 26 22 38 23q24 12 42 25t33 31 21 36 8 45q0 32-13 59t-37 46-55 30-69 11m366-2q-9 0-15-5t-7-21l-21-466q-1-10 5-16t18-7q12 0 15 4t5 13l17 423 231-420q7-13 13-17t19-3q12 0 16 4t4 14l19 423 232-422q7-12 13-16t19-3q13 1 16 8t-3 18l-260 469q-7 11-14 15t-20 5q-10 0-16-5t-6-21l-20-405-226 411q-6 11-14 15t-20 5" />
</svg>