<svg id="fnt-Playwrite GB S" viewBox="0 0 3771 1000" xmlns="http://www.w3.org/2000/svg"><path id="playwrite-gb-s" class="f" d="M85 674q-22 0-22-14v-417q0-7 5-11t17-3h95q50 0 84 11t50 35 18 64q0 38-15 65t-38 44-51 26-56 15q-18 2-35 3t-30 2v166q0 7-6 10t-16 4m22-405v185q9 0 20 0t22-2 23-3q29-5 55-17t43-34 17-59q0-25-12-41t-36-22-59-7h-73m338 406q-23 0-35-14t-12-40v-386q0-7 5-10t16-3q11 0 16 3t6 10v380q0 12 3 17t9 5q4 0 7-3t6-7 7-12q3-4 7-5t11 3q6 2 8 7t1 9q-6 14-14 24t-18 16-23 6m172 0q-26 0-46-14t-29-41-11-66q0-26 5-49t14-41 23-31 31-19 40-7q17 0 32 4t30 12v-1q0-6 5-10t17-3 16 3 5 10v193q0 8 1 13t4 7 7 2 7-3 7-7 8-12q2-4 6-5t11 3q6 3 9 7t0 11q-5 12-13 22t-18 16-23 6q-12 0-21-3t-15-11-9-16-4-21q0-7 0-14t0-15q-10 27-24 44t-30 27-35 9m-42-122q0 24 5 42t16 30 28 10q17 0 33-15t29-44 20-68v-46q-16-9-30-13t-26-3q-14 0-26 5t-21 13-15 21-10 30-3 38m356 122q-21 0-38-8t-26-26-9-49v-170q0-6 5-10t16-3q11 0 16 3t6 10v166q0 16 3 27t12 16 21 5q17 0 31-11t25-30 20-47 14-58v-68q0-6 5-10t16-3 17 3 5 10v321q0 40-11 67t-34 40-55 14q-20 0-39-6t-35-15-25-19q-5-7-6-14t9-14q8-6 13-6t13 6q19 15 35 22t36 7q21 0 33-9t17-26 6-48v-155q-9 24-20 41t-25 27-26 15-25 5m308-1q-11 0-16-3t-7-10l-79-227q-3-10 2-17t20-8q8 0 12 3t7 10l62 190 66-190q2-7 7-10t13-3q7 0 12 3t7 10l68 190 61-190q3-7 7-10t12-3q15 0 20 7t2 18l-80 227q-2 6-7 10t-16 3-15-4-6-9l-65-183-64 183q-2 6-7 9t-16 4m356 0q-11 0-16-3t-5-10v-239q0-6 5-10t16-3q11 0 16 3t6 10v72q8-23 19-40t22-27 22-15 22-5q13 0 25 5t18 13q4 4 3 9t-4 12-10 9-12-1-12-5-13-2q-11 0-24 10t-23 30-20 46-13 59v69q0 7-6 10t-16 3m253 1q-23 0-35-14t-12-40v-199q0-6 5-10t16-3q11 0 16 3t6 10v193q0 12 3 17t9 5q4 0 7-3t6-7 7-12q3-4 7-5t11 3q6 3 8 7t0 9q-5 15-14 25t-18 15-22 6m-28-343q-14 0-21-8t-7-23q0-16 7-24t21-8 21 8 7 24q1 16-7 23t-21 8m200 343q-19 0-32-7t-19-23-7-36v-152h-38q-8 0-11-5t-3-15q0-12 3-16t11-4h38v-102q0-7 5-10t17-3 16 3 6 10v102h63q7 0 10 4t4 16q0 11-4 15t-10 5h-63v147q0 18 4 25t15 8q10 0 19-7t18-24q3-4 7-5t12 2q7 4 9 9t0 10q-7 19-18 30t-24 18-28 5m216 1q-34 0-58-15t-37-43-12-63q0-31 9-58t25-47 41-32 54-11q21 0 39 7t27 21 11 37q0 19-9 35t-25 28-37 22-46 17-52 10l-1-34q17-3 34-8t34-11 29-14 20-19 8-22q0-16-11-23t-27-6q-17 0-31 7t-26 21-16 31-6 41q0 29 8 48t23 31 36 10q17 0 29-6t21-15 18-21q6-8 13-7t13 6q7 5 8 11t-2 12q-14 21-30 34t-35 20-39 6m466-1q-35 0-63-14t-48-40-30-65-10-87q0-37 6-70t19-60 29-50 40-36 49-23 56-8q29 0 54 6t45 19 41 32q6 6 6 13t-11 15q-7 7-13 5t-13-9q-18-14-35-23t-36-12-38-4q-23 0-44 7t-38 19-30 30-22 41-14 50-5 58q0 39 7 70t21 51 33 32 46 11q29 0 54-15t44-41 35-61 24-72q0-7 5-10t17-4q22 0 22 14v213q0 7-6 10t-16 4q-22 0-22-14v-111q-13 30-30 54t-37 40-43 26-49 9m419-8h-89q-22 0-22-14v-410q0-14 23-14h100q41 0 71 8t46 29 17 58q0 23-10 41t-25 31-33 23-34 15v1q24 1 45 6t39 17 26 29 10 44q0 24-7 45t-22 38-35 28-45 18-55 7m-67-212v172h67q32 0 55-8t37-22 20-31 7-34q0-21-7-35t-22-24-35-14-49-4h-73m0-186v146h67q21 0 39-7t32-19 22-29 8-36q0-24-12-35t-31-16-46-4h-79m576 407q-19 0-37-4t-37-12-32-20-26-26q-4-5-4-10t7-11q8-8 13-9t14 8q10 9 24 19t34 16 44 7q23 0 41-5t29-15 18-25 6-36q0-18-6-30t-18-22-28-18-37-15q-17-6-35-15t-35-19-29-26-20-35-8-44q0-26 10-46t27-33 41-21 52-7q25 0 45 6t37 18 33 27q5 5 4 10t-6 11q-6 6-12 9t-11-2q-12-11-25-20t-28-13-37-4q-20 0-35 4t-27 12-16 20-5 29q0 20 6 35t19 25 29 18 37 16q21 7 43 17t40 25 30 36 11 52-10 53-28 39-44 23-58 8" />
</svg>