<svg id="fnt-Playwrite NZ" viewBox="0 0 3484 1000" xmlns="http://www.w3.org/2000/svg"><path id="playwrite-nz" class="f" d="M54 674q-24 0-20-15l155-477q2-7 8-11t17-3h88q50 0 83 12t50 35 17 61q0 42-16 74t-45 54-70 37-90 21q-22 2-45 3t-45 2l-63 193q-2 7-8 10t-16 4m170-466l-71 219q14 0 29-1t31-2 30-3q53-8 89-26t56-47 19-67q0-26-12-42t-36-24-64-7h-71m225 466q-28 0-35-22t7-65l136-412q4-10 8-13t15-3q15 0 19 5t1 15l-144 436q-3 11-2 16t7 5q5 0 10-3t10-9 13-15q4-5 8-6t9 3q8 5 10 10t-1 10q-10 17-22 27t-23 16-26 5m163 1q-17 0-30-9t-19-25-7-39q0-23 7-50t21-52 34-46 46-34 58-13q14 0 30 4t31 11l1-2q2-7 7-9t14-2q15 0 19 5t1 15l-62 186q-3 9-4 14t2 6 5 1q5 0 10-3t11-10 14-14q4-5 8-6t9 3q8 5 10 10t-1 10q-4 8-14 19t-25 20-32 9-28-8-10-21 1-26 7-26q1-1 1-3t1-2q-21 29-41 49t-39 29-36 9m-11-81q0 12 3 22t9 14 13 5q18 0 40-19t48-54 52-88l5-17q-16-6-30-8t-26-2q-21 0-39 10t-32 26-23 36-15 39-5 36m323 80q-23 0-36-11t-14-34 10-54l50-150q3-10 8-13t14-3q16 0 20 5t1 15l-53 158q-5 12-6 23t3 18 19 6q17 0 38-15t42-42 43-64 39-80l2-8q4-10 8-13t15-3q15 0 19 5t1 15l-122 375q-15 47-31 73t-39 38-57 11q-18 0-34-5t-29-11-23-16q-9-7-11-14t7-16q9-8 15-8t14 7q12 10 28 17t36 7q21 0 35-8t25-27 21-49l75-231q-16 25-32 44t-33 32-34 19-34 7m312 0q-10 0-14-4t-5-15l-6-226q0-7 4-14t18-6q11 0 16 4t5 16l1 177 120-181q6-9 13-13t16-3q8 0 14 5t7 18l6 173 115-182q6-9 11-11t13-3q14 0 19 7t-1 17l-148 228q-4 6-11 9t-19 4-15-4-4-15l-6-177-121 183q-4 5-10 9t-18 4m357 0q-8 0-15-3t-3-13l75-233q3-10 8-13t14-3q16 0 20 5t1 15l-26 80q15-24 31-43t31-32 29-20 25-7q13 0 23 7t16 15q4 6 3 11t-6 12q-5 5-10 8t-9-2q-5-4-11-8t-12-3q-13 0-32 15t-40 41-43 62-40 80l-5 16q-2 7-7 10t-17 3m259 0q-28 0-35-22t7-65l53-162q3-10 8-13t14-3q16 0 20 5t1 15l-61 186q-4 11-3 16t8 5q4 0 9-3t10-9 14-15q4-5 8-6t9 3q8 5 10 10t-1 10q-11 17-22 27t-24 16-25 5m78-342q-10 0-17-6t-7-19q0-14 9-26t27-12q11 0 18 6t7 20q0 13-9 25t-28 12m89 342q-20 0-31-9t-14-28 7-44l44-136h-38q-5 0-7-5t0-15q3-10 8-15t11-5h40l32-99q3-10 8-13t15-3q15 0 19 4t1 15l-32 96h63q6 0 8 4t-1 16q-2 9-7 14t-11 6h-65l-49 147q-5 17-3 25t12 7q10 0 23-9t28-27q5-5 9-5t12 4q8 4 9 9t-1 9q-6 10-18 23t-31 24-41 10m228 2q-30 0-49-12t-28-33-9-46q0-30 10-62t31-57 49-43 67-16q24 0 40 8t23 20 8 32q0 21-13 37t-35 30-49 22-55 16-55 10l4-35q17-3 38-7t42-10 38-14 29-20 11-26q0-12-9-18t-22-5q-25 0-45 12t-34 33-21 44-7 46q0 16 4 28t16 19 27 7 30-7 26-18 24-24q6-7 14-5t13 7 6 12-5 13q-19 24-39 38t-38 19-37 5m353-2q-22 0-17-14l158-487q2-7 9-11t17-3q9 0 13 3t8 11l124 414 134-414q3-7 9-11t17-3q23 0 18 14l-158 487q-2 7-9 10t-16 4q-8 0-12-3t-7-11l-125-420-137 420q-2 7-8 10t-18 4m723-7h-298q-6 0-9-5t-2-12 6-12l388-430h-222q-5 0-8-5t1-15q3-10 8-15t10-5h274q9 0 11 10t-5 19l-389 430h246q6 0 8 4t-1 16q-3 9-8 14t-10 6" />
</svg>