<svg id="fnt-Playwrite CL" viewBox="0 0 3730 1000" xmlns="http://www.w3.org/2000/svg"><path id="playwrite-cl" class="f" d="M250 449q-8 0-13-5t-4-14q0-9 3-14t11-5q36-2 66-10t55-23 41-35 25-44 9-53q0-27-11-49t-32-35-51-21-67-7q-50 0-91 9t-73 30-58 50q-6 6-13 6t-14-4q-8-7-9-14t5-13q20-25 47-45t58-33 70-20 80-7q50 0 88 10t64 30 40 48 13 64q0 35-11 65t-31 55-50 42-66 29-81 13m-135 227q-23 0-42-9t-31-21-20-23q-5-9-5-16t9-13q9-5 15-4t13 10q9 10 18 18t20 11 24 5q23 0 34-19t10-56v-358q0-7 6-10t16-3 17 3 5 10v362q0 35-10 60t-30 39-49 14m367-1q-10 0-14-6t-5-13 5-13 14-5q15 0 30-8t30-24 28-36 25-48 22-57 19-64 14-71 9-74 3-76q0-8 7-12t15-4 15 4 7 12q0 39-4 78t-12 78-17 76-23 70-27 63-32 54-34 41-37 26-38 9m139 0q-13 0-23-3t-15-10-9-17-2-21v-437q0-48 17-72t51-24q22 0 37 10t21 29 8 50q0 9-7 14t-15 4-15-4-7-14q0-17-2-28t-8-16-13-5-13 5-9 18-2 33v432q0 6 2 10t5 7 8 2 8-2 8-4 7-5q4-4 9-2t8 7q4 5 4 10t-2 9q-5 8-14 13t-18 8-19 3m215 0q-28 0-50-14t-35-41-12-71q0-26 4-48t15-39 23-30 31-18 38-7q16 0 33 5t32 14v-2q0-8 6-11t16-4 16 3 6 11v196q0 6 2 10t5 7 8 2q5 0 8-2t7-3 8-6q3-3 8-2t9 5q4 5 5 11t-2 9q-6 8-14 14t-19 8-19 3q-12 0-20-2t-15-8-9-13-5-17q0 0 0-2t-1-4q-11 19-25 29t-27 13-27 4m-53-128q0 28 6 47t20 31 33 10q15 0 28-5t25-16 20-30v-121q-15-10-30-13t-30-3q-13 0-24 4t-20 12-16 20-9 28-3 36m500 170l-7-40q8-7 15-13t15-12 14-10 12-8q7-4 12-1t9 8 2 14-8 11q-6 4-14 10t-16 13-17 14-17 14m-88 276q-36 0-57-21t-21-60q0-20 4-40t15-42 25-42 35-42q9-8 17-16t17-16 18-15v-70q-6 10-15 19t-20 15-22 9-26 3q-29 0-48-10t-30-31-9-50v-102q0-21-7-28t-18-7q-8 0-14 4t-9 13-4 20q-1 8-5 12t-13 4q-8 0-13-4t-4-16q1-22 8-38t22-24 32-9q18 0 30 5t21 16 13 26 4 36v92q0 17 5 29t17 18 28 6q14 0 26-4t21-13 18-19 12-23v-156q0-6 5-10t17-3q10 0 16 3t5 10v444q0 30-7 54t-19 39-30 25-40 9m2-39q17 0 28-10t17-30 6-49v-118q-6 5-12 9t-10 9-10 10q-13 15-23 32t-18 34-10 34-4 34q0 14 4 24t12 16 20 5m290-279q-18 0-32-6t-24-17-16-28-5-40v-102q0-21-6-28t-18-7q-9 0-15 4t-9 13-4 20q0 8-4 12t-13 4q-8 0-13-4t-5-16q1-22 9-38t21-24 33-9q17 0 30 5t21 16 12 26 4 36v92q0 17 4 29t14 18 24 6q10 0 21-4t20-13 16-26 6-42v-130q0-6 5-9t17-4q11 0 16 4t5 9v139q0 23 2 38t8 22 14 12 20 3q10 0 20-3t18-10 16-17 11-27 4-35q0-19-3-38t-9-36-15-34q-5-9-3-15t10-10 14-4q7 0 11 3t7 9q7 12 14 30t13 41 5 49q0 21-5 41t-15 38-24 30-32 21-42 7q-16 0-31-5t-25-17-17-29q-9 17-21 28t-28 16-31 6m280 0q-9 0-14-6t-5-13 4-13 14-5q16 0 29-12t23-36 19-59 13-81l30 5q-5 56-14 97t-23 69-33 41-43 13m258 0q-13 0-23-3t-15-11-9-17-3-23q0-14 1-32t2-37 3-36 1-30q0-19-5-27t-17-7q-14 0-32 5t-35 10-28 5q-9 0-17-10t-14-24-5-28q0-9 3-16t8-11 15-4q17 0 22 12t6 27q0 3 0 7t-1 7q6 0 20-5t31-11 36-6q20 0 32 8t18 23 6 41q0 12-1 29t-3 38-2 37-1 29q0 13 3 18t12 5q5 0 9-2t7-4 8-5q4-3 9-1t8 6q4 5 4 10t-2 9q-5 8-14 13t-18 8-19 3m150 0q-26 0-38-13t-11-38v-202q0-6 5-10t16-3q11 0 16 3t6 10v197q0 10 4 14t11 5q6 0 9-2t7-4 8-6q3-2 8 0t8 6q4 4 5 9t-3 9q-5 8-14 14t-18 8-19 3m-27-343q-14 0-22-8t-7-23q0-16 7-24t22-8q13 0 20 8t7 24q1 16-7 23t-20 8m202 343q-21 0-35-8t-20-22-7-34v-154h-39q-7 0-10-5t-3-15q0-12 3-16t10-4h39v-102q0-7 5-10t16-3q11 0 17 3t5 10v102h63q8 0 11 4t3 16q0 11-3 15t-11 5h-63v149q0 17 5 24t17 8q12 0 20-6t17-13q6-6 11-4t10 6q6 5 6 10t-3 10q-8 13-19 20t-22 11-23 3m223 0q-20 0-39-8t-35-24-27-37-18-47-7-53q0-17 4-32t12-28 18-21 23-13 28-5q29 0 46 12t26 30 8 40q0 17-6 35t-17 35-26 34q-21 24-49 42t-58 30-63 10q-7 0-11-6t-3-13 7-13 16-5q23 0 47-9t47-24 37-33q11-12 19-26t12-26 4-26q0-27-10-37t-27-10q-9 0-16 3t-13 12-8 19-3 25q0 29 8 52t22 41 28 27 29 9q10 0 19-4t18-11 20-18q7-8 14-8t13 6 8 11-3 13q-12 19-29 30t-34 16-31 5m503 1q-52 0-95-21t-72-60-46-93-16-118q0-43 7-81t22-71 34-58 47-44 57-28 66-9q29 0 58 8t55 26 47 49q5 7 3 12t-8 12q-7 6-13 6t-11-6q-27-32-59-48t-72-17q-27 0-52 8t-45 22-37 37-29 49-17 61-6 72q0 58 13 105t37 78 58 50 74 17q21 0 40-6t37-15 33-25 30-32q6-8 12-8t14 7q7 5 7 11t-4 13q-23 34-50 55t-57 32-62 10m276 1q-22 0-38-7t-25-20-9-33q0-20 9-35t25-25 36-8 38 6 34 15 33 19 35 19 39 15 47 6q30 0 53-11t39-29 22-41q3-8 9-11t16 0q9 3 12 8t0 16q-9 32-30 57t-53 39-67 14-65-9-50-20-40-24-36-21-38-8q-12 0-19 7t-6 18q0 11 8 17t20 7q23 0 37-23t14-60v-306q0-38 9-67t26-49 43-30 59-10q31 0 55 10t42 33 26 54q4 11 1 17t-12 9q-11 4-17 0t-10-13q-7-22-18-38t-29-23-39-8q-23 0-40 7t-29 21-18 36-6 51v306q0 37-11 65t-33 42-49 15" />
</svg>