<svg id="fnt-Playwrite DK Loopet" viewBox="0 0 5088 1000" xmlns="http://www.w3.org/2000/svg"><path id="playwrite-dk-loopet" class="f" d="M45 674q-24 0-20-15l135-416q2-7 8-11t17-3h78q46 0 77 11t47 33 15 54q0 38-15 66t-41 48-64 31-81 18q-19 2-40 3t-38 1l-54 166q-2 7-8 10t-16 4m150-405l-60 185q12 0 26 0t27-2 26-3q46-7 78-22t48-38 17-56q0-23-10-37t-33-20-58-7h-61m82 406q-10 0-13-6t-1-13 8-13 15-5q16 0 35-8t40-22 43-34 43-42 42-47 37-51 29-51 20-50 7-44q0-7 6-10t15-4 16 4 7 10q0 22-9 47t-22 54-35 57-43 57-49 53-51 47-51 37-48 25-41 9m159 0q-21 0-32-8t-14-21-1-29 8-32l91-281q14-44 34-64t50-20q16 0 28 8t19 25 7 36q0 10-7 14t-16 5-15-5-6-14q0-8-2-15t-6-9-10-3q-5 0-11 4t-12 15-11 29l-96 299q-2 7-3 13t1 11 10 4 13-3 11-10 9-11q3-4 8-6t13 4q8 5 8 10t-2 11q-5 8-14 18t-22 18-30 7m201 0q-21 0-37-10t-24-28-8-43q0-22 6-48t19-50 32-45 46-32 59-12q16 0 32 5t30 14l1-2q3-9 8-12t14-3q16 0 20 5t1 15l-60 180q-2 7-3 13t2 11 10 4q6 0 12-3t11-10 10-11q3-4 8-6t13 4q8 5 8 10t-2 11q-5 8-14 18t-22 18-30 7q-15 0-25-5t-14-12-6-17-1-19q0-2 0-3t1-2q-18 22-35 35t-34 18-28 5m-24-87q0 16 4 26t13 16 21 5q17 0 35-11t35-33 34-51l26-81q-13-7-26-10t-25-2q-25 0-44 9t-34 26-22 35-13 37-4 34m443 116l4-42q10-5 19-9t19-9 17-7 15-6q8-3 12 1t5 11-1 13-8 9q-10 5-20 9t-21 10-20 10-21 10m-123 160q-19 0-34-8t-23-20-8-29q0-19 8-34t24-28 37-24 47-24q12-6 24-12t25-12l18-56q-11 14-24 25t-25 18-26 11-26 4q-27 0-43-12t-19-35 6-52l50-151q3-10 8-13t14-3q16 0 20 5t1 15l-50 150q-6 19-5 32t8 18 26 7q13 0 28-8t30-21 29-33 26-43l34-106q3-10 8-13t14-3q16 0 20 5t1 15l-98 301q-12 37-25 62t-28 41-33 23-39 8m6-39q12 0 22-6t19-17 18-29 17-44l3-9q-7 3-14 7t-14 7q-18 8-32 16t-25 16-16 16-5 19q0 8 3 13t10 8 14 3m312-151q-10 0-14-4t-5-15l-6-226q0-7 4-14t18-6q11 0 16 4t5 16l1 177 120-181q6-9 13-13t16-3q8 0 14 5t7 18l6 173 115-182q5-9 11-11t13-3q14 0 19 7t-1 17l-148 228q-4 6-11 9t-19 4-15-4-4-15l-6-177-121 183q-4 5-10 9t-18 4m357 0q-8 0-15-3t-3-13l75-233q3-10 8-13t14-3q16 0 20 5t1 15l-13 39q12-15 25-26t25-19 26-12 24-4q13 0 23 4t16 11q5 4 6 10t-5 14q-6 9-11 11t-11-2q-8-5-15-7t-13-1q-14 0-29 7t-31 21-30 33-27 43l-36 110q-2 7-7 10t-17 3m270 1q-32 0-43-23t3-61l53-166q4-10 8-13t15-3q15 0 19 5t1 15l-58 178q-4 15-2 22t11 8q7 0 13-3t11-10 9-11q3-4 8-6t13 4q8 5 9 10t-3 11q-6 11-16 21t-23 16-28 6m67-343q-10 0-17-6t-7-19q0-14 8-26t28-12q10 0 17 6t7 20q0 13-9 25t-27 12m96 343q-27 0-39-13t-10-33 9-48l40-124h-39q-6 0-8-5t1-15q3-10 8-15t10-5h41l32-99q3-10 8-13t15-3q15 0 19 4t1 15l-31 96h63q6 0 8 4t-1 16q-2 9-7 14t-11 6h-64l-48 145q-5 18-3 26t14 9q15 0 27-10t20-20q3-5 8-6t13 3q9 5 9 10t-2 11q-6 10-18 22t-27 20-38 8m234 1q-17 0-32-6t-28-17-22-25-14-34-5-38q0-20 5-40t13-40 24-35 33-25 43-9q19 0 33 8t21 21 7 30q0 29-14 55t-36 50-48 41q-27 19-57 33t-60 22-55 8q-7 0-10-6t-2-13 7-13 16-5q22 0 47-8t48-20 46-29q18-14 34-31t28-36 11-38q0-14-6-22t-20-7q-15 0-27 11t-20 27-12 35-4 33q0 19 5 34t14 26 20 17 25 6 25-5 24-13 23-18q7-7 13-6t12 7q7 6 8 13t-6 13q-16 17-34 28t-36 16-37 5m386-9h-94q-22 0-17-14l133-410q3-7 9-11t18-3h76q45 0 77 11t55 30 32 45 11 53q0 52-16 98t-44 82-66 64-82 40-92 15m57-395l-115 352h58q37 0 73-11t69-33 56-53 38-72 14-87q0-23-9-41t-26-30-39-19-51-6h-68m282 402q-11 0-16-4t-2-10l138-425q5-13 27-13t17 13l-57 174 236-180q10-7 16-6t12 10q6 9 5 14t-11 13l-238 180q21 41 42 75t43 66 48 63q7 8 4 14t-12 14q-7 5-14 3t-11-6q-20-25-39-52t-36-54-31-56-28-55l-67 208q-2 7-9 10t-17 4m704-7h-204q-23 0-16-20l132-412q3-7 8-10t16-3q11 0 17 3t2 12l-125 390h182q5 0 7 4t-1 16q-2 9-7 14t-11 6m183 9q-31 0-52-12t-33-35-10-50q0-27 9-57t28-56 47-42 66-17q31 0 52 12t32 33 11 49q0 20-6 44t-17 47-30 42-42 31-55 11m5-40q25 0 43-13t31-33 19-43 7-41q0-19-7-32t-18-20-29-7q-25 0-44 13t-32 33-19 42-6 40q0 20 6 33t20 21 29 7m289 40q-31 0-52-12t-33-35-10-50q0-27 9-57t28-56 47-42 66-17q31 0 52 12t32 33 11 49q0 20-6 44t-17 47-30 42-42 31-55 11m5-40q25 0 43-13t31-33 19-43 7-41q0-19-7-32t-18-20-29-7q-25 0-44 13t-32 33-19 42-6 40q0 20 6 33t20 21 29 7m140 226q-8 0-15-4t-4-13l136-420q3-10 8-13t14-3q16 0 20 5t1 15l-9 28q16-19 31-30t30-15 27-5q32 0 50 22t18 60q0 23-6 49t-20 50-32 44-45 31-57 12q-16 0-32-5t-29-13l-62 192q-2 6-8 9t-16 4m127-331l-31 93q14 7 26 9t24 3q24 0 43-10t33-25 22-35 13-37 5-35q0-15-5-25t-12-16-21-6q-15 0-32 10t-33 28-32 46m323 145q-17 0-32-6t-28-17-22-25-14-34-5-38q0-20 5-40t13-40 24-35 33-25 43-9q19 0 33 8t21 21 7 30q0 29-14 55t-36 50-48 41q-27 19-57 33t-60 22-55 8q-7 0-10-6t-2-13 7-13 16-5q22 0 47-8t48-20 46-29q18-14 34-31t28-36 11-38q0-14-6-22t-20-7q-15 0-27 11t-20 27-12 35-4 33q0 19 5 34t14 26 20 17 25 6 25-5 24-13 23-18q7-7 13-6t12 7q7 6 8 13t-6 13q-16 17-34 28t-36 16-37 5m182-1q-27 0-39-13t-10-33 9-48l40-124h-39q-6 0-8-5t1-15q3-10 8-15t10-5h41l32-99q3-10 8-13t15-3q15 0 19 4t1 15l-31 96h63q6 0 8 4t-1 16q-2 9-7 14t-11 6h-64l-48 145q-5 18-3 26t14 9q15 0 27-10t20-20q3-5 8-6t13 3q9 5 9 10t-2 11q-6 10-18 22t-27 20-38 8" />
</svg>