<svg id="fnt-Playwrite DK Uloopet" viewBox="0 0 5303 1000" xmlns="http://www.w3.org/2000/svg"><path id="playwrite-dk-uloopet" class="f" d="M45 674q-24 0-20-15l135-416q2-7 8-11t17-3h78q46 0 77 11t47 33 15 54q0 38-15 66t-41 48-64 31-81 18q-19 2-40 3t-38 1l-54 166q-2 7-8 10t-16 4m150-405l-60 185q12 0 26 0t27-2 26-3q46-7 78-22t48-38 17-56q0-23-10-37t-33-20-58-7h-61m229 406q-33 0-44-23t3-61l114-353q4-10 8-13t15-3q16 0 20 4t1 15l-119 366q-5 15-3 22t11 8q7 0 13-3t11-10 10-11q3-4 8-6t12 4q9 5 9 10t-2 11q-7 11-17 21t-23 16-27 6m166 0q-22 0-37-10t-24-28-8-43q0-22 6-48t19-50 32-45 45-32 59-12q17 0 33 5t30 14l0-2q4-9 8-12t14-3q16 0 20 5t1 15l-59 180q-2 7-3 13t1 11 10 4q7 0 13-3t11-10 9-11q3-4 8-6t13 4q8 5 9 10t-3 11q-4 8-14 18t-22 18-29 7q-16 0-25-5t-15-12-6-17 0-19q0-2 0-3t0-2q-17 22-35 35t-33 18-28 5m-24-87q0 16 4 26t13 16 21 5q17 0 34-11t35-33 34-51l27-81q-14-7-26-10t-25-2q-25 0-45 9t-33 26-23 35-12 37-4 34m337 87q-27 0-43-12t-20-35 7-52l49-151q4-10 8-13t15-3q15 0 19 5t1 15l-49 150q-6 19-6 32t9 18 25 7q14 0 28-8t30-21 30-34 25-42l34-106q4-10 8-13t15-3q15 0 19 5t1 15l-101 313q-15 44-32 71t-42 39-60 12q-19 0-36-6t-29-15-19-21q-5-8-6-15t11-12q9-6 15-5t10 8q9 16 24 21t34 6q23 0 39-9t27-26 22-50l39-123q-12 14-25 25t-25 18-26 11-25 4m295-1q-11 0-15-4t-4-15l-6-226q0-7 4-14t18-6q11 0 15 4t5 16l2 177 120-181q6-9 12-13t16-3q9 0 15 5t7 18l5 173 115-182q6-9 12-11t13-3q14 0 19 7t-1 17l-149 228q-3 6-11 9t-18 4-16-4-4-15l-5-177-122 183q-3 5-10 9t-17 4m357 0q-8 0-15-3t-4-13l75-233q4-10 8-13t15-3q15 0 19 5t1 15l-12 39q12-15 24-26t26-19 25-12 25-4q12 0 22 4t16 11q6 4 6 10t-5 14q-5 9-11 11t-10-2q-9-5-15-7t-13-1q-14 0-30 7t-31 21-30 33-26 43l-36 110q-2 7-8 10t-16 3m270 1q-32 0-43-23t2-61l54-166q3-10 8-13t14-3q16 0 20 5t1 15l-58 178q-5 15-3 22t12 8q6 0 12-3t11-10 10-11q3-4 8-6t13 4q8 5 8 10t-2 11q-7 11-17 21t-22 16-28 6m66-343q-10 0-17-6t-7-19q0-14 9-26t27-12q11 0 18 6t7 20q0 13-9 25t-28 12m96 343q-27 0-38-13t-11-33 9-48l41-124h-40q-5 0-7-5t0-15q3-10 8-15t11-5h41l32-99q3-10 7-13t15-3q16 0 20 4t1 15l-31 96h63q5 0 7 4t0 16q-3 9-8 14t-10 6h-65l-47 145q-6 18-3 26t13 9q15 0 27-10t21-20q3-5 8-6t13 3q8 5 9 10t-3 11q-6 10-17 22t-28 20-38 8m235 1q-17 0-33-6t-28-17-22-25-14-34-4-38q0-20 4-40t14-40 23-35 33-25 43-9q20 0 33 8t21 21 7 30q0 29-14 55t-36 50-48 41q-27 19-57 33t-59 22-56 8q-7 0-10-6t-2-13 7-13 17-5q22 0 46-8t49-20 45-29q18-14 35-31t27-36 11-38q0-14-6-22t-19-7q-16 0-28 11t-20 27-12 35-4 33q0 19 5 34t14 26 21 17 25 6 25-5 24-13 22-18q7-7 14-6t12 7q6 6 7 13t-5 13q-17 17-34 28t-36 16-37 5m385-9h-93q-23 0-18-14l134-410q2-7 9-11t17-3h77q44 0 77 11t54 30 33 45 10 53q0 52-16 98t-44 82-66 64-82 40-92 15m57-395l-115 352h58q38 0 74-11t68-33 57-53 38-72 14-87q0-23-9-41t-26-30-40-19-51-6h-68m282 402q-11 0-15-4t-2-10l138-425q4-13 26-13t18 13l-57 174 236-180q9-7 15-6t12 10q7 9 6 14t-11 13l-238 180q21 41 41 75t43 66 48 63q7 8 5 14t-12 14q-8 5-15 3t-10-6q-21-25-40-52t-35-54-32-56-27-55l-68 208q-2 7-8 10t-18 4m639 2q-38 0-66-10t-44-30-19-49 10-68l90-284q3-7 8-10t18-3q12 0 17 3t3 12l-93 288q-13 39-6 63t29 35 56 11q39 0 68-13t50-37 30-59l89-290q3-7 8-10t18-3q24 0 19 15l-90 293q-15 48-43 80t-66 49-86 17m321-1q-33 0-44-23t3-61l114-353q4-10 8-13t15-3q16 0 20 4t1 15l-119 366q-5 15-3 22t11 8q7 0 13-3t11-10 10-11q3-4 8-6t12 4q9 5 9 10t-2 11q-7 11-17 21t-23 16-27 6m196 1q-31 0-52-12t-33-35-10-50q0-27 9-57t28-56 47-42 66-17q31 0 52 12t32 33 11 49q0 20-6 44t-17 47-30 42-42 31-55 11m5-40q25 0 43-13t31-33 19-43 7-41q0-19-7-32t-18-20-29-7q-25 0-44 13t-32 33-19 42-6 40q0 20 6 33t20 21 29 7m289 40q-31 0-52-12t-33-35-10-50q0-27 9-57t28-56 47-42 66-17q31 0 52 12t32 33 11 49q0 20-6 44t-17 47-30 42-42 31-55 11m5-40q25 0 43-13t31-33 19-43 7-41q0-19-7-32t-18-20-29-7q-25 0-44 13t-32 33-19 42-6 40q0 20 6 33t20 21 29 7m140 226q-8 0-15-4t-4-13l136-420q3-10 8-13t14-3q16 0 20 5t1 15l-9 28q16-19 31-30t30-15 27-5q32 0 50 22t18 60q0 23-6 49t-20 50-32 44-45 31-57 12q-16 0-32-5t-29-13l-62 192q-2 6-8 9t-16 4m127-331l-31 93q14 7 26 9t24 3q24 0 43-10t33-25 22-35 13-37 5-35q0-15-5-25t-12-16-21-6q-15 0-32 10t-33 28-32 46m323 145q-17 0-32-6t-28-17-22-25-14-34-5-38q0-20 5-40t13-40 24-35 33-25 43-9q19 0 33 8t21 21 7 30q0 29-14 55t-36 50-48 41q-27 19-57 33t-60 22-55 8q-7 0-10-6t-2-13 7-13 16-5q22 0 47-8t48-20 46-29q18-14 34-31t28-36 11-38q0-14-6-22t-20-7q-15 0-27 11t-20 27-12 35-4 33q0 19 5 34t14 26 20 17 25 6 25-5 24-13 23-18q7-7 13-6t12 7q7 6 8 13t-6 13q-16 17-34 28t-36 16-37 5m182-1q-27 0-39-13t-10-33 9-48l40-124h-39q-6 0-8-5t1-15q3-10 8-15t10-5h41l32-99q3-10 8-13t15-3q15 0 19 4t1 15l-31 96h63q6 0 8 4t-1 16q-2 9-7 14t-11 6h-64l-48 145q-5 18-3 26t14 9q15 0 27-10t20-20q3-5 8-6t13 3q9 5 9 10t-2 11q-6 10-18 22t-27 20-38 8" />
</svg>