<svg id="fnt-Playwrite FR Trad" viewBox="0 0 5849 1000" xmlns="http://www.w3.org/2000/svg"><path id="playwrite-fr-trad" class="f" d="M299 393q-8 0-13-5t-5-15q0-10 4-15t12-5q43-1 79-12t67-29 50-44 31-57 11-68q0-34-13-62t-40-46-63-28-86-10q-65 0-116 13t-91 40-72 67q-5 5-12 5t-14-6q-8-6-8-13t4-12q25-32 56-57t71-43 85-27 98-9q59 0 105 13t78 37 48 58 17 79q0 43-13 80t-37 68-60 52-78 35-95 16m-162 283q-25 0-47-9t-37-25-26-32q-5-9-4-16t8-12q9-6 15-5t13 10q12 15 24 25t25 17 31 5q30 0 44-23t14-72v-461q0-7 5-11t17-3 16 3 6 11v467q0 42-12 71t-35 45-57 15m445-1q-9 0-14-6t-4-13 4-13 14-5q17 0 32-10t31-28 29-45 27-59 23-72 20-82 14-91 10-98 3-102q0-10 7-14t15-5 15 5 6 14q0 55-4 108t-11 103-18 97-23 88-29 76-33 64-36 47-38 31-40 10m139 0q-13 0-22-3t-16-10-8-17-3-21v-572q0-48 19-74t55-25q23 0 38 11t23 33 7 54q0 9-6 14t-15 4-15-4-7-14q0-20-3-33t-9-19-15-6q-10 0-16 6t-10 20-3 33v567q0 6 2 10t6 7 8 2 8-2 7-4 7-5q4-4 9-2t9 7q4 5 4 10t-2 9q-6 8-14 13t-18 8-20 3m216 0q-29 0-51-14t-34-41-13-71q0-26 5-48t14-39 23-30 31-18 39-7q16 0 33 5t32 14v-2q0-8 5-11t17-4 16 3 5 11v196q0 6 2 10t6 7 8 2q5 0 8-2t6-3 8-6q4-3 8-2t9 5q5 5 5 11t-2 9q-5 8-14 14t-18 8-20 3q-11 0-20-2t-14-8-10-13-4-17q0 0-1-2t0-4q-12 19-25 29t-27 13-27 4m-54-128q0 28 7 47t19 31 34 10q14 0 27-5t25-16 21-30v-121q-16-10-30-13t-31-3q-13 0-24 4t-20 12-15 20-10 28-3 36m487 200l-11-39q8-8 16-16t16-15 15-13 13-10q7-5 13-3t10 8 3 13-7 12q-6 5-14 12t-18 15-18 18-18 18m-83 383q-25 0-44-11t-28-34-10-55q0-29 6-62t17-67 30-69 43-66q8-10 17-20t18-20v-98q-6 11-15 20t-19 15-23 9-26 3q-29 0-48-10t-30-31-9-50v-162q0-6 5-10t16-3q11 0 16 3t6 10v162q0 17 5 29t17 18 28 6q14 0 26-4t21-13 18-18 12-24v-156q0-6 5-10t17-3q10 0 16 3t5 10v590q0 28-6 50t-18 37-29 23-39 8m3-37q11 0 20-6t14-16 9-25 3-34v-229q-4 4-9 9t-9 10q-16 23-28 51t-22 58-14 60-4 58q0 20 5 34t13 22 22 8m285-418q-18 0-32-6t-24-17-16-28-5-40v-102q0-21-6-28t-18-7q-9 0-15 4t-9 13-4 20q0 8-4 12t-13 4q-8 0-13-4t-5-16q1-22 9-38t21-24 33-9q17 0 30 5t21 16 12 26 4 36v92q0 17 4 29t14 18 24 6q10 0 21-4t20-13 16-26 6-42v-130q0-6 5-9t17-4q11 0 16 4t5 9v139q0 23 2 38t8 22 14 12 20 3q10 0 20-3t18-10 16-17 11-27 4-35q0-19-3-38t-9-36-15-34q-5-9-3-15t10-10 14-4q7 0 11 3t7 9q7 12 14 30t13 41 5 49q0 21-5 41t-15 38-24 30-32 21-42 7q-16 0-31-5t-25-17-17-29q-9 17-21 28t-28 16-31 6m280 0q-9 0-14-6t-5-13 4-13 14-5q16 0 29-12t23-36 19-59 13-81l30 5q-5 56-14 97t-23 69-33 41-43 13m258 0q-13 0-23-3t-15-11-9-17-3-23q0-14 1-32t2-37 3-36 1-30q0-19-5-27t-17-7q-14 0-32 5t-35 10-28 5q-9 0-17-10t-14-24-5-28q0-9 3-16t8-11 15-4q17 0 22 12t6 27q0 3 0 7t-1 7q6 0 20-5t31-11 36-6q20 0 32 8t18 23 6 41q0 12-1 29t-3 38-2 37-1 29q0 13 3 18t12 5q5 0 9-2t7-4 8-5q4-3 9-1t8 6q4 5 4 10t-2 9q-5 8-14 13t-18 8-19 3m150 0q-26 0-38-13t-11-38v-202q0-6 5-10t16-3q11 0 16 3t6 10v197q0 10 4 14t11 5q6 0 9-2t7-4 8-6q3-2 8 0t8 6q4 4 5 9t-3 9q-5 8-14 14t-18 8-19 3m-27-343q-14 0-22-8t-7-23q0-16 7-24t22-8q13 0 20 8t7 24q1 16-7 23t-20 8m202 343q-21 0-35-8t-20-22-7-34v-154h-39q-7 0-10-5t-3-15q0-12 3-16t10-4h39v-102q0-7 5-10t16-3q11 0 17 3t5 10v102h63q8 0 11 4t3 16q0 11-3 15t-11 5h-63v149q0 17 5 24t17 8q12 0 20-6t17-13q6-6 11-4t10 6q6 5 6 10t-3 10q-8 13-19 20t-22 11-23 3m223 0q-20 0-39-8t-35-24-27-37-18-47-7-53q0-17 4-32t12-28 18-21 23-13 28-5q29 0 46 12t26 30 8 40q0 17-6 35t-17 35-26 34q-21 24-49 42t-58 30-63 10q-7 0-11-6t-3-13 7-13 16-5q23 0 47-9t47-24 37-33q11-12 19-26t12-26 4-26q0-27-10-37t-27-10q-9 0-16 3t-13 12-8 19-3 25q0 29 8 52t22 41 28 27 29 9q10 0 19-4t18-11 20-18q7-8 14-8t13 6 8 11-3 13q-12 19-29 30t-34 16-31 5m360 1q-26 0-48-9t-37-25-25-32q-5-9-5-16t9-12q9-6 15-5t12 10q12 15 24 25t26 17 30 5q30 0 44-23t14-72v-531h-3q-30 0-53 7t-44 25-44 46q-5 7-11 8t-15-6q-7-6-8-12t5-15q14-21 31-38t39-29 48-19 58-7h316q8 0 11 4t3 16-3 15-11 5h-275v289h230q7 0 10 4t3 16q0 11-3 16t-10 4h-230v208q0 42-12 71t-34 45-57 15m994 0q-18 0-34-6t-32-18-32-31-33-45-37-61q-9-16-17-29t-15-26-13-25-13-23-13-24-13-26q-24 1-41-10t-16-28q0-15 10-23t25-7q12 0 25 5t20 17q36-7 66-24t52-42 34-55 12-63q0-31-13-56t-37-43-59-27-80-9q-65 0-116 13t-91 40-73 67q-4 5-11 5t-15-6q-7-6-8-13t5-12q24-32 56-57t71-43 84-27 98-9q56 0 100 12t74 35 46 55 16 73q0 30-10 59t-26 54-40 47-52 36-63 25q4 8 9 17t10 19 11 21 13 23 14 25 16 28q20 37 37 62t30 43 26 27 23 14 22 4q20 0 34-10t29-30q4-7 11-8t15 5q7 5 8 12t-3 12q-11 19-27 33t-33 21-36 7m-450 0q-26 0-47-9t-38-25-25-32q-5-9-5-16t9-12q9-6 15-5t13 10q11 15 23 25t26 17 31 5q29 0 43-23t14-72v-454q0-7 6-10t16-3 17 3 5 10v460q0 42-12 71t-34 45-57 15m1088-1q-63 0-109-28t-71-82-25-127q0-16 2-31t4-29h-89q-7 0-10-5t-3-15 3-15 10-5h101q14-40 37-73t55-62 66-55 72-52 73-51q-15 5-33 8t-37 3q-29 0-55-6t-50-15-48-17-46-15-46-5q-33 0-56 13t-36 39-12 60q0 8-5 13t-16 4-16-4-5-13q0-47 17-82t50-54 79-19q28 0 53 6t48 15 47 17 51 15 58 6q31 0 59-5t50-15 38-22q7-5 13-5t12 8q7 8 7 14t-5 13q-35 31-72 59t-73 53-71 51-64 51-53 57-38 65h157q7 0 9 5t3 15-3 15-9 5h-170q-3 14-4 29t-2 31q0 61 20 105t55 66 86 24q41 0 77-15t66-40 52-60q6-8 12-9t15 3q9 5 11 11t-3 16q-28 42-63 73t-77 47-93 16m260 0q-10 0-15-6t-5-13 5-13 14-5q15 0 28-12t24-36 18-59 13-81l30 5q-4 56-14 97t-23 69-33 41-42 13m257 0q-13 0-22-3t-16-11-9-17-3-23q0-14 1-32t3-37 2-36 2-30q0-19-5-27t-18-7q-14 0-32 5t-35 10-27 5q-9 0-18-10t-13-24-6-28q0-9 3-16t9-11 15-4q16 0 22 12t5 27q0 3 0 7t0 7q6 0 19-5t31-11 36-6q20 0 33 8t18 23 6 41q0 12-2 29t-2 38-3 37-1 29q0 13 4 18t11 5q5 0 9-2t8-4 7-5q4-3 9-1t9 6q4 5 4 10t-2 9q-6 8-14 13t-18 8-20 3m183 0q-28 0-50-14t-35-41-12-71q0-26 4-48t15-39 23-30 31-18 38-7q16 0 33 5t32 14v-2q0-8 6-11t16-4 16 3 6 11v196q0 6 2 10t5 7 8 2q5 0 8-2t7-3 8-6q3-3 8-2t9 5q4 5 5 11t-2 9q-6 8-14 14t-19 8-19 3q-12 0-20-2t-15-8-9-13-5-17q0 0 0-2t-1-4q-11 19-25 29t-27 13-27 4m-53-128q0 28 6 47t20 31 33 10q15 0 28-5t25-16 20-30v-121q-15-10-30-13t-30-3q-13 0-24 4t-20 12-16 20-9 28-3 36m364 128q-28 0-50-14t-35-41-12-71q0-26 5-48t14-39 23-30 32-18 39-7q15 0 32 5t32 13v-457q0-6 6-10t16-3q11 0 16 3t5 10v651q0 10 4 14t12 5q4 0 8-2t7-4 8-5 8-1 9 6q4 4 4 9t-2 9q-5 8-14 14t-18 8-20 3q-19 0-29-7t-15-17-4-21q0 0 0-1t0 0q-12 19-26 29t-28 13-27 4m-53-128q0 28 6 47t20 31 33 10q15 0 28-5t25-16 21-30v-119q-15-10-30-14t-31-4q-13 0-24 4t-20 12-16 20-9 28-3 36" />
</svg>