<svg id="fnt-Playwrite NL" viewBox="0 0 4052 1000" xmlns="http://www.w3.org/2000/svg"><path id="playwrite-nl" class="f" d="M315 421q-9 0-13-5t-2-15q2-9 7-14t15-6q46-1 88-12t78-28 61-43 40-55 14-66q0-27-11-48t-31-36-49-21-66-8q-49 0-96 10t-88 32-78 55q-8 8-15 7t-14-8q-6-6-6-13t7-14q29-29 63-50t72-34 78-20 81-6q48 0 86 10t62 31 39 47 13 64q0 43-17 79t-48 67-72 51-93 34-105 15m-218 255q-23 0-42-11t-32-30-19-42q-2-10 0-17t12-9q10-3 16-1t9 12q6 19 15 31t19 18 24 6q24 0 41-20t34-71l130-403q2-7 8-10t17-3q12 0 17 3t3 12l-131 404q-14 43-31 72t-39 44-51 15m385-1q-10 0-13-6t-1-13 8-13 15-5q15 0 37-14t47-39 53-57 56-71 55-79 49-81 39-79 27-71 10-57q0-8 6-13t15-4 15 4 6 13q0 26-10 60t-29 76-43 84-54 87-60 85-63 76-62 61-56 41-47 15m161 0q-20 0-30-8t-13-21 0-29 7-29l154-475q16-49 38-71t52-21q18 0 30 8t19 24 6 37q0 10-6 14t-15 5-15-5-6-14q0-9-2-15t-7-10-11-3-14 6-13 18-14 35l-159 490q-2 7-3 13t1 9 8 4 12-4 11-9 11-12q3-5 8-6t12 3q8 5 9 10t-2 11q-5 8-15 19t-23 18-30 8m200 0q-20 0-35-9t-22-28-8-42q0-22 7-48t19-51 33-45 46-33 58-12q16 0 32 5t30 12l1-2q3-8 8-11t14-2q15 0 19 5t1 15l-60 182q-2 7-3 13t1 9 8 4q7 0 12-4t12-9 10-12q4-5 8-6t12 3q8 5 9 10t-2 11q-5 8-14 19t-23 18-31 8q-16 0-25-6t-13-15-4-20 2-22q0-1 0-3t1-2q-19 25-37 40t-35 21-31 7m-20-85q0 14 4 24t12 16 18 5q17 0 36-14t39-40 40-63l20-60q-14-7-27-9t-26-2q-24 0-43 9t-32 26-23 35-13 39-5 34m449 149l3-46q9-7 18-15t20-15 19-12 16-10 12-2 7 10 2 13-6 10q-10 6-21 14t-24 16-24 18-22 19m-179 324q-30 0-47-19t-17-45 9-54 27-56 44-57 60-58q13-12 25-21t24-19 25-19l36-112q-13 17-27 30t-27 23-29 14-28 5q-26 0-41-12t-17-34 7-53l37-112q3-9 0-14t-9-4q-6 0-13 3t-14 12-17 22q-5 7-9 9t-13-1q-10-4-11-10t3-13q10-17 22-30t26-22 33-8q17 0 27 6t15 17 3 23-5 28l-33 100q-5 16-6 28t7 19 23 6q15 0 31-10t34-28 34-43 31-55l24-74q3-10 8-13t14-3q16 0 20 5t1 15l-163 499q-12 36-24 61t-28 42-33 24-39 8m6-38q15 0 28-11t25-32 23-57l48-150q-6 5-13 10t-12 11-12 10q-28 27-50 52t-35 48-22 44-7 42q0 11 4 18t9 11 14 4m404-349q-23 0-37-9t-18-25-4-35 8-38l34-105q3-9 1-14t-10-4q-6 0-12 3t-14 12-17 22q-5 7-10 9t-13-1q-10-4-11-10t4-13q9-17 21-30t27-22 33-8q17 0 27 6t14 17 3 23-5 28l-30 93q-4 14-6 28t4 24 23 9q12 0 25-7t26-21 24-31 19-38l37-114q3-9 7-13t16-3q16 0 19 4t1 15l-40 127q-4 12-8 26t-2 27 7 20 22 8q18 0 34-10t29-27 23-38 15-43 6-41q0-7-1-15t-1-14-2-13q-2-10 0-16t7-9 13-3q9 0 14 6t9 18q1 7 2 14t2 14 0 15q0 24-7 52t-21 54-33 48-44 35-54 13q-23 0-37-8t-21-21-7-28q-12 18-26 31t-30 19-35 7m263-1q-9 0-12-6t-2-13 8-13 16-5q17 0 35-12t37-35 40-59 43-86l28 13q-26 61-49 102t-46 67-47 36-51 11m279 0q-18 0-29-7t-13-17-3-23 6-25q3-11 9-26t14-33 14-34 11-32 1-21-13-5q-12 0-27 5t-30 10-31 5q-10 0-17-8t-11-18-4-24q0-12 4-22t11-18 20-6q12 0 17 6t6 17q0 8-3 16t-6 17q7 0 22-5t32-11 36-6q15 0 25 7t14 22-4 42q-3 14-10 31t-15 36-15 35-11 31q-4 13-2 18t10 5q6 0 12-4t11-9 10-12q4-5 8-6t12 3q8 5 9 10t-2 11q-5 8-14 19t-23 18-31 8m152 0q-31 0-40-23t4-63l53-164q3-10 8-13t15-3q15 0 19 5t1 15l-59 181q-4 13-3 20t11 7q6 0 11-4t11-9 11-12q3-5 8-6t11 3q9 5 9 10t-2 11q-7 13-18 23t-23 16-27 6m71-343q-10 0-18-6t-7-19q0-14 9-26t28-12q10 0 17 6t7 20q0 13-9 25t-27 12m93 343q-24 0-36-12t-12-32 9-46l41-128h-38q-6 0-8-5t1-15q3-10 7-15t11-5h41l32-99q3-10 7-13t15-3q16 0 20 4t1 15l-31 96h63q5 0 7 4t0 16q-3 9-8 14t-11 6h-64l-48 146q-6 17-3 25t13 9q13 0 25-10t23-23q4-4 9-6t13 4q8 5 8 10t-2 10q-6 10-17 22t-29 22-39 9m234 1q-18 0-33-6t-27-17-20-25-13-32-5-37q0-19 4-40t14-40 23-37 33-25 44-10q18 0 31 7t21 20 7 30q0 27-14 52t-36 49-49 43q-28 20-59 35t-60 24-54 8q-7 0-10-6t-2-13 6-13 17-5q20 0 44-8t50-22 48-31q19-15 36-32t27-35 11-36q0-13-6-20t-18-7q-15 0-27 11t-20 29-13 36-4 35q0 17 5 31t13 25 19 16 26 6q13 0 26-6t26-15 23-20q7-6 14-5t12 7q6 6 7 12t-5 14q-18 19-36 31t-37 16-39 6m762 0q-29 0-44-15t-17-43 13-70l120-360q13-40 12-68t-18-41-48-14q-20 0-44 8t-50 24-53 43-53 65-48 88l-118 367q-3 7-9 10t-17 4q-11 0-17-4t-2-11l172-533q10-31 6-47t-24-15q-12 0-27 8t-32 26-36 43q-7 9-14 10t-15-5q-8-5-9-12t6-15q23-33 46-55t46-32 44-10q19 0 32 6t20 19 8 30-4 40l-15 48q26-38 54-65t57-44 55-25 49-8q46 0 72 20t30 59-13 90l-121 363q-9 28-11 46t4 25 18 8q10 0 21-7t22-22 27-37q6-9 11-11t15 3q9 6 10 12t-3 15q-12 21-25 37t-27 28-28 18-28 6m204 1q-21 0-36-7t-24-22-9-32q0-22 11-40t30-27 44-10q22 0 41 6t38 17 37 21 38 22 42 16 48 7q32 0 58-12t49-36 39-59q5-10 11-13t17 2q9 4 10 11t-3 18q-22 44-50 73t-62 43-75 15q-33 0-62-9t-53-23-46-27-42-22-38-9q-17 0-27 8t-9 24q0 11 7 18t20 8q27 0 49-27t42-84l109-336q14-44 31-76t39-52 47-31 58-9q29 0 52 13t38 37 20 61q2 10-2 16t-13 8q-10 2-16-1t-7-13q-5-27-16-45t-26-27-37-9q-21 0-40 8t-34 25-28 41-24 59l-110 338q-16 50-37 82t-45 46-54 15" />
</svg>