<svg id="fnt-Playball" viewBox="0 0 1645 1000" xmlns="http://www.w3.org/2000/svg"><path id="playball" class="f" d="M79 667h-65q6-25 16-56t24-64 27-67 27-63 30-61q4-6 6-11t7-9q-20 1-42 5t-43 12-34 17-18 22q-1 2-2 2-5 0-5-7 0-2 1-5 5-13 11-23t14-17q17-17 37-21t44-3h126q35 0 55 10t30 28 7 37q-3 39-28 65t-56 38q-23 9-51 14t-56 5q-6 0-12 0t-11-1q-6 16-14 36t-13 40-10 37-4 29q0 7 2 11m53-185l-11 24q23 1 48-4t48-16 39-29q12-13 18-30t7-33q0-20-11-37t-33-21q-6-2-12-2t-13-1q-11 13-23 33t-22 40-20 41-15 35m182 188q-14 0-21-11t-7-27q0-3 0-5t1-5q2-19 8-43t15-51q5-15 13-38t18-49 23-52 29-47 32-34 37-13q16 0 22 7t6 19q0 11-4 22t-8 19q-9 18-23 40t-31 42q-9 13-23 28t-27 29-17 18l-8 23q-4 9-7 22t-6 26-3 22q-1 2-1 4t0 4q0 15 12 15 7 0 17-7 10-6 19-16t14-14q10-13 19-28t15-27q3-4 4-4 3 0 3 8 0 4-2 9t-3 10q-7 12-17 27t-19 28q-8 10-21 21t-29 20-30 8m53-180q25-29 50-63t43-69q1-2 5-10t6-17 3-15q0-9-6-9h-4q-6 0-15 9t-18 24q-11 19-22 44t-22 52-20 54m197 180q-16 0-22-12t-5-30q0-16 3-31 1-7 3-15t4-15q-8 16-18 30t-18 26q-16 19-34 32t-35 13q-14 0-24-10t-10-36q0-26 9-53t25-52 39-38 49-14q8 0 18 2t19 9 11 19q1-1 1-1t2-1q7-11 16-19t20-7q5 0 15 0t15 0q-3 2-7 8t-8 12-5 10q-14 26-25 52t-17 49q-1 5-2 9t0 8q0 13 8 13 8 0 20-10 18-14 31-35t23-40q2-4 4-4 3 0 3 9 0 4-2 9t-3 9q-7 12-19 30t-25 34-29 28-30 12m-100-44q2 1 5 1 9 0 20-8t22-21 20-26q22-35 32-52t12-20q-2-9-9-13t-14-4q-11 0-24 6t-20 15q-13 13-25 33t-19 41-7 33q0 13 7 15m200 141q-12 0-26-4t-23-12-9-24q0-11 6-20t18-9q7 0 13 4t8 9q-1 1-3 3t-2 4q-4 7-4 14 0 10 7 15t17 6q14 0 28-10 16-11 25-30t15-32l29-76q-9 11-19 22t-12 14q-19 19-34 24t-27 5q-12 0-20-11t-8-30q0-10 3-26t8-33 13-35 16-31q13-20 29-26t40-6q2 0 2 2t-3 5q-7 6-17 21t-19 33-15 34q-4 12-8 27t-4 27q0 8 2 13t8 5q8 0 22-12 21-18 38-43t29-53q7-16 11-28t10-18 16-10 27-3h20q-9 6-19 22t-18 38q-6 16-13 35t-14 39q-6 18-13 39t-16 41-21 36q-17 21-41 33t-52 12m237-95q-23 0-35-8t-11-31q0-16 6-41 4-16 12-42t18-56 21-57 22-47q13-25 20-36t17-12q4-1 9-1t12-1q6 0 13 0t10 0q-9 7-23 29t-29 55-29 68-22 68q8-14 17-27t16-23q16-19 34-32t35-13q15 0 24 10t10 36q0 26-11 53t-30 49q1 8 5 13t12 5 14-5q7-5 14-13t13-15q10-13 19-28t16-28q2-4 3-4 3 0 3 9 0 4-1 9t-4 10q-6 10-14 23t-18 27-21 22-24 12q-1 0-2 0t-3 0q-8 0-16-5t-12-14q-6 6-12 11t-12 9q-14 10-30 15t-36 6m11-18q9 0 20-9t22-22 18-26q12-19 20-40t8-35q0-13-8-15-1 0-2 0t-3 0q-10 0-22 10-9 7-21 20t-22 30-18 34-6 32q0 2 0 4t1 5q2 12 13 12m322 16q-15 0-21-12t-6-30q0-16 3-31 2-7 3-15t5-15q-9 16-18 30t-19 26q-16 19-34 32t-35 13q-14 0-24-10t-9-36q0-26 9-53t25-52 38-38 49-14q9 0 19 2t18 9 12 19q0-1 1-1t1-1q7-11 16-19t20-7q6 0 16 0t14 0q-2 2-7 8t-7 12-6 10q-13 26-24 52t-17 49q-2 5-2 9t-1 8q0 13 9 13 8 0 20-10 17-14 30-35t24-40q2-4 3-4 3 0 3 9 0 4-1 9t-4 9q-7 12-18 30t-25 34-30 28-30 12m-99-44q1 1 4 1 10 0 21-8t22-21 19-26q22-35 33-52t12-20q-3-9-9-13t-15-4q-11 0-23 6t-21 15q-13 13-25 33t-19 41-7 33q0 13 8 15m210 44q-14 0-21-11t-7-27q0-3 0-5t0-5q3-19 9-43t15-51q5-15 12-38t19-49 23-52 28-47 33-34 37-13q16 0 22 7t6 19q0 11-4 22t-8 19q-9 18-24 40t-30 42q-10 13-24 28t-26 29-18 18l-8 23q-3 9-7 22t-5 26-4 22q0 2 0 4t0 4q0 15 11 15 7 0 18-7 10-6 19-16t13-14q10-13 19-28t16-27q2-4 3-4 3 0 3 8 0 4-1 9t-4 10q-7 12-16 27t-20 28q-7 10-21 21t-29 20-29 8m52-180q25-29 51-63t43-69q1-2 4-10t7-17 3-15q0-9-7-9h-3q-7 0-16 9t-17 24q-12 19-23 44t-21 52-21 54m71 180q-14 0-21-11t-7-27q0-3 0-5t1-5q2-19 8-43t15-51q5-15 13-38t18-49 23-52 29-47 32-34 37-13q16 0 22 7t6 19q0 11-4 22t-8 19q-9 18-23 40t-31 42q-9 13-23 28t-27 29-17 18l-8 23q-4 9-7 22t-6 26-3 22q-1 2-1 4t0 4q0 15 12 15 7 0 17-7 10-6 19-16t14-14q10-13 19-28t15-27q3-4 4-4 3 0 3 8 0 4-2 9t-3 10q-7 12-17 27t-19 28q-8 10-21 21t-29 20-30 8m53-180q25-29 50-63t43-69q1-2 5-10t6-17 3-15q0-9-6-9h-4q-6 0-15 9t-18 24q-11 19-22 44t-22 52-20 54" />
</svg>