<svg id="fnt-Playwrite CO" viewBox="0 0 3689 1000" xmlns="http://www.w3.org/2000/svg"><path id="playwrite-co" class="f" d="M237 474q-10 1-14-5t-1-17q2-10 7-15t14-4q49-3 90-17t70-37 46-55 16-66q0-32-17-50t-48-17q-18 0-39 8t-40 24-38 39-35 51-29 61l-92 286q-2 7-8 10t-18 4q-11 0-16-4t-3-11l128-395q-12 12-26 23t-30 19-32 18q-11 5-18 1t-10-13q-3-9-1-16t13-11q34-16 59-33t43-39 33-50q5-8 10-11t17-3q11 0 16 4t3 11l-20 63q22-26 46-43t49-26 50-9q30 0 52 13t34 36 13 55q0 46-21 86t-56 69-87 47-110 19m132 201q-10 0-13-6t-1-13 8-13 15-5q16 0 36-10t43-29 47-42 47-53 46-59 40-62 33-61 21-57 8-48q0-7 7-11t15-4 15 4 7 11q0 23-9 51t-24 61-38 67-46 68-52 65-55 57-55 47-51 31-44 11m159 0q-21 0-32-8t-14-21-1-29 8-32l114-353q15-45 35-65t50-20q17 0 29 9t19 24 7 37q0 10-7 14t-15 5-15-5-7-14q0-9-2-15t-6-10-10-3q-6 0-12 5t-12 14-12 30l-119 371q-2 7-3 13t1 11 10 4 13-3 11-10 9-11q3-4 8-6t13 4q8 5 8 10t-2 11q-5 8-14 18t-22 18-30 7m201 0q-21 0-37-10t-24-28-8-43q0-22 6-48t19-50 32-45 46-32 59-12q16 0 32 5t30 14l1-2q3-9 8-12t14-3q16 0 20 5t1 15l-60 180q-2 7-3 13t2 11 10 4q6 0 12-3t11-10 10-11q3-4 8-6t13 4q8 5 8 10t-2 11q-5 8-14 18t-22 18-30 7q-15 0-25-5t-14-12-6-17-1-19q0-2 0-3t1-2q-18 22-35 35t-34 18-28 5m-24-87q0 16 4 26t13 16 21 5q17 0 35-11t35-33 34-51l26-81q-13-7-26-10t-25-2q-25 0-44 9t-34 26-22 35-13 37-4 34m452 130l4-44q10-6 19-11t19-11 18-9 15-7q8-4 12 0t6 10 0 14-8 9q-9 5-20 11t-22 12-22 12-21 14m-143 218q-30 0-48-17t-17-42q0-23 9-43t26-39 40-36 52-36q10-6 19-12t18-11 19-11l23-71q-11 13-24 24t-25 18-26 11-25 4q-27 0-43-12t-20-35 7-52l35-108q3-11 0-16t-11-6q-7 0-13 4t-14 13-16 23q-4 7-8 9t-14 1q-10-2-12-9t2-14q9-18 21-33t27-23 33-8q16 0 27 5t16 17 5 24-5 29l-30 95q-6 19-6 32t9 18 25 7q13 0 28-8t30-21 29-33 26-43l34-106q4-10 8-13t15-3q15 0 19 5t1 15l-121 373q-12 37-25 62t-28 42-33 23-39 7m7-38q15 0 28-11t26-32 21-54l20-61q-5 3-11 6t-10 7-9 6q-22 14-39 28t-30 28-18 28-6 27q0 9 3 15t10 10 15 3m354-222q-24 0-38-9t-20-24-4-34 7-36l48-148q3-9 8-13t15-3q15 0 19 5t1 14l-48 148q-4 13-6 27t5 24 24 10q10 0 21-5t23-14 21-23 17-32l45-138q4-9 8-13t15-3q16 0 19 5t1 14l-38 122q-5 14-10 29t-5 29 7 20 24 8q19 0 35-10t29-26 22-37 14-42 5-39q0-9 0-17t-2-16-3-14q-1-9 0-15t8-10 14-3 13 6 9 19q2 7 3 15t2 17 0 18q0 22-6 48t-20 52-32 47-43 34-54 13q-22 0-37-6t-21-18-9-25q-10 16-24 27t-29 17-33 5m263-1q-10 0-13-6t-1-13 8-13 16-5q17 0 34-12t36-36 37-60 38-84l29 13q-24 61-46 102t-43 67-45 36-50 11m278 0q-19 0-30-6t-15-17-3-23 5-27q4-12 10-27t14-32 14-34 12-32q4-15 0-20t-13-5q-12 0-28 5t-32 10-31 5q-11 0-19-8t-11-18-4-23q0-12 4-23t12-19 19-7q12 0 18 7t5 17q0 8-3 17t-7 17q9 0 24-5t34-11 36-6q15 0 25 7t15 22-3 42q-4 14-11 31t-14 34-15 35-12 32q-4 13-1 19t11 5q7 0 13-3t11-10 9-11q3-4 8-6t13 4q8 5 8 10t-2 11q-5 8-14 18t-22 18-30 7m151 0q-32 0-43-23t2-61l54-166q3-10 8-13t14-3q16 0 20 5t1 15l-58 178q-5 15-3 22t12 8q6 0 12-3t11-10 10-11q3-4 8-6t13 4q8 5 8 10t-2 11q-7 11-17 21t-22 16-28 6m66-343q-10 0-17-6t-7-19q0-14 9-26t27-12q11 0 18 6t7 20q0 13-9 25t-28 12m96 343q-27 0-38-13t-11-33 9-48l41-124h-40q-5 0-7-5t0-15q3-10 8-15t11-5h41l32-99q3-10 7-13t15-3q16 0 20 4t1 15l-31 96h63q5 0 7 4t0 16q-3 9-8 14t-10 6h-65l-47 145q-6 18-3 26t13 9q15 0 27-10t21-20q3-5 8-6t13 3q8 5 9 10t-3 11q-6 10-17 22t-28 20-38 8m235 1q-17 0-33-6t-28-17-22-25-14-34-4-38q0-20 4-40t14-40 23-35 33-25 43-9q20 0 33 8t21 21 7 30q0 29-13 55t-36 50-48 41q-27 19-58 33t-59 22-56 8q-7 0-10-6t-2-13 7-13 17-5q22 0 46-8t49-20 46-30q18-13 34-30t27-36 11-38q0-14-6-22t-19-7q-16 0-28 11t-20 27-12 35-4 33q0 19 5 34t14 26 21 17 25 6 25-5 24-13 22-18q7-7 14-6t12 7q6 6 7 13t-5 13q-17 17-34 28t-36 16-37 5m488 0q-37 0-67-13t-52-37-33-58-11-76q0-36 8-75t25-77 42-73 57-61 73-42 87-15q32 0 58 7t47 20 33 34q5 6 2 10t-9 11q-7 5-13 5t-12-7q-17-18-45-28t-68-9q-35 0-66 12t-58 35-48 51-36 62-22 67-8 66q0 36 7 64t24 46 38 29 54 10q21 0 39-6t34-16 34-25 36-33q6-6 12-5t12 8q6 7 7 13t-5 12q-33 35-64 56t-59 29-53 9m439 0q-42 0-74-13t-54-37-33-59-11-78q0-34 7-69t20-70 32-65 43-57 52-44q14-8 20-7t12 9q7 9 5 16t-15 15q-24 17-45 40t-36 51-27 57-16 62-6 62q0 33 8 60t25 46 41 29 57 10q33 0 65-13t59-35 50-52 38-66 25-73 9-77q0-33-6-57t-18-40-28-23-39-7q-18 0-35 6t-32 19-30 29-27 38q-6 9-14 10t-16-4q-7-5-7-12t5-16q17-26 36-47t40-35 44-22 48-8q31 0 54 11t39 33 24 53 8 72q0 45-10 89t-30 85-46 73-60 59-72 38-79 14" />
</svg>