<svg id="fnt-Playwrite AU TAS" viewBox="0 0 4823 1000" xmlns="http://www.w3.org/2000/svg"><path id="playwrite-au-tas" class="f" d="M54 674q-24 0-20-15l155-477q2-7 8-11t17-3h88q50 0 83 12t50 35 17 61q0 42-16 74t-45 54-70 37-90 21q-22 2-45 3t-45 2l-63 193q-2 7-8 10t-16 4m170-466l-71 219q14 0 29-1t31-2 30-3q53-8 89-26t56-47 19-67q0-26-12-42t-36-24-64-7h-71m229 466q-29 0-37-22t5-64l136-413q3-10 8-13t14-3q16 0 20 5t1 15l-143 434q-3 11-2 17t9 7q5 0 10-4t11-9 11-14q4-5 8-6t11 4q8 5 9 10t-1 10q-9 15-20 25t-23 16-27 5m165 1q-19 0-33-9t-21-27-7-40 6-49 21-51 33-46 46-33 59-13q15 0 31 4t30 12l1-2q3-8 7-10t14-2q16 0 20 5t1 15l-62 184q-2 8-3 13t2 8 6 3q6 0 11-4t11-9 12-14q4-5 8-6t11 4q8 5 9 10t-1 10q-4 8-14 19t-24 19-31 8-27-7-12-18-1-23 5-24q0-1 0-2t1-3q-20 27-39 45t-37 25-33 8m-16-83q0 13 4 23t10 15 16 5q17 0 38-16t43-48 46-75l13-38q-16-7-29-9t-26-2q-22 0-41 9t-32 26-23 36-14 39-5 35m328 82q-25 0-39-11t-15-34 8-53l50-151q4-10 8-13t15-3q15 0 19 5t1 15l-52 155q-5 15-6 26t6 18 20 7q16 0 35-13t38-35 38-54 35-67l13-41q4-10 8-13t15-3q15 0 19 5t1 15l-122 375q-15 46-32 72t-39 39-58 11q-18 0-35-5t-29-13-22-17q-7-8-9-15t9-14q9-7 14-8t13 8q11 12 27 19t35 6q22 0 36-8t26-27 21-49l70-216q-14 21-29 37t-31 28-31 16-31 6m306 0q-10 0-14-4t-5-15l-6-226q0-7 4-14t18-6q11 0 16 4t5 16l1 177 120-181q6-9 13-13t16-3q8 0 14 5t7 18l6 173 115-182q6-9 11-11t13-3q14 0 19 7t-1 17l-148 228q-4 6-11 9t-19 4-15-4-4-15l-6-177-121 183q-4 5-10 9t-18 4m357 0q-8 0-15-3t-3-13l75-233q3-10 8-13t14-3q16 0 20 5t1 15l-22 66q15-21 29-37t29-28 28-17 25-6q13 0 23 6t16 14q5 5 4 10t-6 13-10 9-10-2q-6-4-12-7t-12-3q-13 0-31 12t-38 34-38 53-35 67l-16 48q-2 7-7 10t-17 3m263 0q-30 0-38-22t5-64l54-163q3-10 8-13t14-3q16 0 20 5t1 15l-60 184q-4 11-3 17t9 7q5 0 10-4t11-9 12-14q4-5 8-6t11 4q8 5 9 10t-2 10q-9 15-20 25t-23 16-26 5m74-342q-10 0-17-6t-7-19q0-14 9-26t27-12q11 0 18 6t7 20q0 13-9 25t-28 12m91 342q-22 0-33-10t-13-30 8-45l43-132h-39q-5 0-7-5t0-15q3-10 8-15t11-5h40l32-99q3-10 8-13t15-3q15 0 19 4t1 15l-31 96h63q5 0 7 4t0 16q-3 9-8 14t-10 6h-65l-49 147q-5 17-3 25t12 8q12 0 25-10t26-25q4-4 8-5t13 4q7 4 8 9t-1 9q-6 10-18 23t-30 23-40 9m228 2q-30 0-49-12t-30-34-9-47q0-29 10-60t31-57 49-43 68-16q23 0 39 7t24 21 9 31q0 21-13 37t-32 30-48 22-56 16-58 9l6-36q19-2 41-6t42-10 37-14 26-19 9-24-8-19-23-5q-26 0-46 12t-34 33-21 44-7 44q0 17 5 30t17 19 27 7 29-6 24-17 23-22q7-7 14-5t13 7q5 6 6 12t-5 14q-18 21-37 34t-37 18-36 5m293-2q-13 0-17-8t3-19l310-468q7-11 15-16t19-4q10 0 15 5t7 21l22 466q1 10-5 16t-19 7q-11 0-14-5t-5-14l-6-131h-208l-85 130q-9 13-14 16t-18 4m312-444l-167 254h179l-12-254m280 446q-33 0-56-12t-34-35-11-56 13-74l104-326q3-7 8-11t18-3q12 0 17 4t3 11l-107 330q-10 33-12 57t5 41 21 24 35 8q21 0 44-8t46-23 47-39 48-54 49-69l86-268q2-7 8-11t18-3 16 4 3 11l-156 486q-2 7-9 10t-17 4-16-5-3-10l36-113q-24 31-49 56t-50 41-52 25-53 8m622-2q-21 0-18-14l148-452h-147q-8 0-10-5t2-15q4-12 9-16t12-4h336q8 0 9 4t-2 16q-3 11-8 15t-12 5h-146l-147 452q-2 7-9 11t-17 3m226 0q-13 0-17-8t4-19l310-468q7-11 14-16t20-4q9 0 15 5t6 21l22 466q1 10-5 16t-18 7q-11 0-15-5t-4-14l-6-131h-208l-85 130q-9 13-15 16t-18 4m312-444l-167 254h179l-12-254m284 447q-26 0-49-7t-40-17-33-24-25-27q-5-6-2-11t8-10q7-6 12-7t10 4q13 14 31 27t39 21 49 8q28 0 51-7t42-20 27-33 10-45q0-17-5-30t-15-25-24-22-34-21q-17-9-33-20t-28-22-22-27-15-31-5-39q0-29 11-54t33-42 50-27 66-10q28 0 52 8t43 22 35 29q6 5 4 11t-8 12q-5 5-11 6t-11-3q-13-11-28-21t-33-15-44-6q-24 0-45 5t-35 17-24 28-8 39q0 18 4 32t14 25 25 23 38 23q24 12 42 26t31 30 20 35 6 43q0 33-13 60t-37 47-56 31-70 11" />
</svg>