<svg id="fnt-Playwrite TZ" viewBox="0 0 3551 1000" xmlns="http://www.w3.org/2000/svg"><path id="playwrite-tz" class="f" d="M58 674q-23 0-19-15l137-477q2-7 8-11t17-3h90q50 0 84 12t51 36 17 62q0 42-16 73t-44 54-69 36-88 20q-21 3-44 4t-44 2l-55 193q-3 7-8 10t-17 4m154-466l-63 219q13 0 28-1t30-2 30-3q51-8 87-26t55-45 19-67q0-27-12-44t-37-24-64-7h-73m108 467q-10 0-13-6t-2-13 8-13 15-5q16 0 35-10t41-26 44-40 45-51 42-57 38-60 30-60 20-56 8-49q0-8 6-12t15-3 16 3 6 12q0 23-8 52t-23 60-35 65-43 66-49 63-52 56-52 44-49 30-43 10m157 0q-20 0-31-7t-14-20-1-28 6-31l99-346q13-45 33-65t50-21q17 0 29 9t19 25 7 38q0 9-6 14t-16 4-15-4-6-14-2-17-6-10-11-3-12 4-11 16-11 30l-103 361q-2 7-3 13t2 10 9 4q7 0 13-3t10-9 9-11q3-4 8-5t13 3q8 5 8 10t-2 11q-5 9-15 19t-21 16-29 7m202 0q-22 0-38-10t-25-30-8-46q0-23 6-48t18-49 31-43 44-30 57-12q16 0 32 5t31 14l0-2q3-9 8-12t14-3q15 0 19 5t2 14l-53 182q-1 7-2 13t2 10 9 4q7 0 12-3t11-9 9-11q3-4 8-5t12 3q8 5 9 10t-2 11q-5 9-15 19t-21 16-29 7q-14 0-24-4t-14-12-7-17-1-19q0-2 0-3t0-3q-16 22-33 35t-33 18-29 5m-26-91q0 17 4 28t14 17 22 6q17 0 34-11t34-32 32-50l24-83q-14-7-27-10t-25-2q-24 0-43 9t-31 24-22 33-12 37-4 34m457 131l4-43q9-6 18-12t18-10 17-9 16-7q7-3 12 0t6 10 0 14-8 10q-9 4-20 10t-21 12-21 12-21 13m-135 211q-30 0-48-17t-18-43q0-21 9-40t24-37 38-35 50-34q10-6 18-11t18-11 19-11l19-70q-11 14-23 25t-24 18-26 11-26 4q-26 0-43-12t-20-33 4-53l31-108q3-11 0-17t-11-6q-7 0-14 4t-13 13-15 23q-4 6-8 9t-13 1q-10-2-12-8t1-14q8-19 20-34t26-23 33-8q17 0 27 5t17 16 5 25-4 30l-27 95q-5 19-4 31t9 19 26 6q13 0 28-8t29-21 28-32 24-42l31-108q3-10 7-13t15-3q15 0 19 5t2 14l-106 365q-10 36-22 61t-27 41-33 24-40 7m7-38q15 0 29-11t24-32 20-53l15-55q-5 3-10 6t-10 6-9 6q-21 14-37 27t-28 26-17 25-5 27q0 9 3 15t10 9 15 4m343-212q-24 0-38-9t-20-23-6-33 6-36l43-150q3-9 8-13t15-3q15 0 19 5t1 14l-42 149q-4 14-5 27t5 23 24 10q11 0 22-5t22-15 20-23 17-31l40-138q3-9 7-13t15-3q16 0 19 5t2 13l-35 124q-4 16-8 31t-3 27 7 20 24 7q18 0 33-9t28-25 21-35 14-40 5-39q0-10-1-19t-2-18-5-16q-2-9 0-15t8-10 14-3 13 6 8 18q3 8 5 17t3 19 1 20q0 23-7 48t-19 51-31 45-42 33-53 12q-21 0-36-6t-21-18-10-26q-10 16-23 27t-29 17-33 6m264-1q-10 0-13-6t-2-13 8-13 15-5q17 0 34-12t35-36 35-59 36-84l29 12q-22 60-43 102t-41 66-44 37-49 11m276 0q-18 0-29-6t-15-16-4-22 4-27q4-12 9-27t13-33 13-34 10-32 0-21-13-5q-13 0-29 5t-32 10-31 5q-10 0-18-8t-11-19-4-23 3-23 12-17 19-7q12 0 18 7t5 18q0 7-2 16t-7 16q8 0 23-5t34-11 36-6q15 0 26 7t15 22-2 42q-3 14-10 31t-13 35-13 35-11 32q-3 12-1 18t11 5q7 0 12-3t11-9 9-11q3-4 8-5t12 3q8 5 9 10t-2 11q-5 9-15 19t-21 16-29 7m151 0q-31 0-42-21t0-60l48-169q3-10 8-13t15-3q15 0 19 5t1 14l-51 180q-4 15-2 22t11 7q7 0 12-3t11-9 9-11q3-4 8-5t12 3q8 5 9 10t-3 11q-6 11-16 20t-22 16-27 6m56-343q-10 0-18-7t-7-19q0-14 9-25t27-12q10 0 17 7t8 19q0 14-9 26t-27 11m108 343q-26 0-38-12t-12-33 7-45l36-128h-39q-6 0-8-5t0-15q3-10 8-15t10-5h41l28-100q3-9 8-12t15-3q15 0 19 4t2 15l-28 96h63q6 0 8 4t0 16q-3 9-8 14t-10 6h-64l-42 146q-5 17-2 26t13 8q15 0 26-9t20-20q4-5 9-6t13 4q8 4 8 9t-2 11q-7 11-18 22t-27 19-36 8m233 1q-18 0-34-7t-28-17-23-27-14-34-5-40q0-19 5-39t13-39 23-34 32-23 41-9q21 0 35 8t21 22 7 31q0 28-13 53t-34 48-45 41q-27 19-57 34t-60 23-55 8q-7 0-11-6t-2-13 7-13 17-5q22 0 46-8t49-21 45-30q17-13 32-30t26-35 10-37q0-15-6-22t-20-8q-15 0-27 10t-19 26-11 33-4 33q0 19 5 35t15 27 21 18 26 7q12 0 24-5t24-13 22-18q7-7 13-6t13 7q6 6 7 12t-5 14q-16 17-34 28t-35 16-37 5m371-1q-19 0-36-8t-28-23-16-28q-3-9-1-16t11-9q9-4 14-2t11 11q6 11 14 18t16 11 18 4q19 0 32-15t24-53l102-357h-66q-27 0-46 6t-32 17-19 31q-4 9-11 12t-17 0q-7-1-10-6t0-14q5-19 17-35t30-27 40-18 51-6h268q8 0 9 4t-1 16q-3 11-8 15t-11 5h-149l-102 355q-10 36-24 61t-34 38-46 13m558 0q-21 0-43-4t-44-10-42-10-39-3q-16 0-29 2t-27 8-26 12q-8 4-16 4t-12-6q-5-6-4-11t9-13l392-421q-5 1-11 1t-11 1q-17 0-33-4t-31-8-31-9-33-3q-16 0-32 5t-32 15-30 24q-7 7-14 7t-14-7q-7-7-7-13t8-15q19-18 38-31t40-20 46-7q20 0 37 3t34 9 32 9 35 4q21 0 37-4t33-12q6-3 12-3t10 6q6 5 5 11t-11 17l-380 411q7-2 15-3t18-1q20 0 39 4t40 9 40 10 39 5q25 0 44-10t36-28 29-44q3-6 9-8t16 2q10 4 12 10t-1 14q-17 35-39 58t-49 35-64 12" />
</svg>