<svg id="fnt-Playwrite AU QLD" viewBox="0 0 5028 1000" xmlns="http://www.w3.org/2000/svg"><path id="playwrite-au-qld" class="f" d="M58 674q-23 0-19-15l137-477q2-7 8-11t17-3h90q50 0 84 12t51 36 17 62q0 42-16 73t-44 54-69 36-88 20q-21 3-44 4t-44 2l-55 193q-3 7-8 10t-17 4m154-466l-63 219q13 0 28-1t30-2 30-3q51-8 87-26t55-45 19-67q0-27-12-44t-37-24-64-7h-73m241 466q-27 0-35-21t5-62l121-416q3-10 8-13t14-3q15 0 19 5t2 14l-128 437q-3 11-2 16t8 5q4 0 8-3t10-9 13-15q3-5 7-6t10 3q8 5 10 10t-1 10q-10 16-21 27t-23 16-25 5m164 1q-18 0-32-9t-21-28-7-41q0-24 7-50t20-51 33-45 45-32 56-12q14 0 30 4t31 11l0-2q3-7 8-9t13-2q15 0 20 5t1 14l-56 187q-2 9-2 14t2 6 4 1q5 0 10-3t11-9 13-15q4-5 8-6t9 3q8 5 10 10t-1 10q-4 8-14 20t-24 20-31 8q-18 0-27-8t-11-19 0-26 6-25q1-2 1-4t1-5q-20 30-39 49t-39 29-35 10m-14-86q0 14 3 25t9 16 15 5q17 0 39-19t46-54 48-87l5-17q-16-7-30-9t-26-2q-20 0-38 9t-30 25-23 34-14 38-4 36m325 85q-22 0-35-11t-15-32 7-54l45-152q3-10 7-13t15-3q15 0 19 5t2 14l-48 159q-4 13-5 24t5 17 18 6q18 0 38-15t40-41 40-63 37-79l2-11q3-10 8-13t14-3q15 0 20 5t1 14l-109 376q-13 46-29 72t-38 38-56 12q-18 0-34-5t-30-12-24-16q-8-7-11-14t8-15q9-8 14-9t14 7q14 11 29 18t36 7q21 0 35-8t24-27 19-49l67-231q-15 25-31 44t-32 32-34 20-33 6m322 2q-22 0-35-9t-17-25-3-35 8-41l40-142q2-7 7-11t16-4q16 0 19 4t2 14l-43 147q-4 16-6 31t3 23 20 8q14 0 28-10t27-27 25-38 20-42l27-95q2-7 7-11t16-4q16 0 19 4t0 14l-37 140q-2 8-4 20t-2 23 7 19 19 7q16 0 32-10t29-28 23-39 17-44 6-43q0-5-1-11t-1-13-2-13q-2-9-1-16t7-9 13-3q9 0 15 6t8 18q2 5 3 11t1 11 1 11q0 27-8 56t-22 57-34 50-44 36-52 13q-23 0-36-9t-19-24-6-32q-12 19-27 34t-30 23-35 8m386-2q-9 0-15-3t-4-13l58-200q1-6-1-10t-6-3q-5 0-11 3t-13 10-19 20q-6 7-12 8t-12-4q-9-7-8-13t5-11q11-14 22-26t26-18 32-7q18 0 27 7t11 17 1 22-4 22l-10 33q14-25 28-44t28-31 25-19 22-7q8 0 11 4t2 15q0 13 1 21t5 11 10 4q10 0 23-6t39-21q5-3 10-1t8 9 3 11-6 10q-24 17-42 25t-39 8q-10 0-20-4t-17-14-7-26q-11 7-27 24t-31 40-33 54-29 66l-8 24q-1 7-7 10t-16 3m294 0q-28 0-35-21t4-62l48-166q3-10 7-13t15-3q15 0 19 5t2 14l-55 187q-3 11-2 16t8 5q4 0 9-3t9-9 14-15q3-5 7-6t10 3q8 5 10 10t-1 10q-10 16-21 27t-23 16-25 5m66-342q-10 0-17-7t-7-19q0-14 8-25t27-12q11 0 18 7t7 19q0 14-9 26t-27 11m101 342q-19 0-31-9t-14-27 5-44l39-137h-38q-5 0-8-5t1-15 7-15 11-5h39l29-100q3-9 8-12t15-3q15 0 19 4t1 15l-28 96h63q6 0 8 4t0 16q-2 9-7 14t-11 6h-65l-43 147q-5 17-3 25t12 7q10 0 23-8t27-28q5-4 9-5t12 4q8 4 9 9t-1 9q-6 11-18 24t-30 23-40 10m227 2q-31 0-50-12t-29-35-9-48q0-29 10-60t30-57 48-41 66-16q24 0 39 8t24 20 8 32q0 21-12 38t-34 29-48 23-54 15-55 11l4-35q17-3 37-8t41-10 38-14 27-20 11-25q0-13-9-19t-23-5q-23 0-43 12t-33 31-20 43-8 45q0 17 5 31t16 20 28 7 31-7 25-18 24-24q6-7 13-5t14 7q5 6 5 12t-4 13q-19 24-38 37t-38 19-37 6m296-2q-13 0-17-8t3-18l294-469q7-11 14-16t20-4q9 0 15 5t7 20l38 467q1 10-5 16t-18 7q-11 0-15-5t-5-14l-10-130h-209l-80 129q-8 13-14 16t-18 4m297-445l-159 256h180l-21-256m291 447q-33 0-56-11t-33-35-12-55 12-74l92-328q3-7 8-11t18-3 17 4 3 11l-95 332q-9 33-11 57t6 40 20 23 34 8q22 0 44-8t46-24 46-39 48-55 48-69l76-266q2-7 8-11t17-3q11 0 17 4t3 11l-139 486q-2 7-8 10t-17 4-17-4-3-10l35-122q-24 33-49 59t-51 43-53 27-54 9m809 96q-9 2-15-1t-9-13l-62-174q-4-10 0-17t14-9q9-3 15 1t9 12l62 175q4 9 0 16t-14 10m-92-96q-39 0-70-13t-54-39-35-61-11-80q0-36 7-74t24-75 38-68 53-56 66-37 80-14q38 0 69 14t54 38 34 61 12 79q0 39-9 78t-24 75-39 68-53 54-65 37-77 13m6-42q34 0 62-12t53-32 42-47 31-58 19-64 7-64q0-38-8-67t-25-48-41-30-55-10q-33 0-62 11t-52 32-43 48-31 57-20 63-7 65q0 37 9 66t25 49 40 30 56 11m550 33h-228q-22 0-16-20l135-474q3-7 8-11t16-3q11 0 17 4t2 11l-129 453h205q6 0 8 4t-1 16q-2 9-7 14t-10 6m215 0h-97q-22 0-18-14l136-471q2-7 9-11t17-3h88q49 0 86 12t61 35 37 52 12 64q0 59-17 110t-46 93-71 71-91 46-106 16m57-457l-120 414h63q46 0 88-13t77-38 61-61 41-82 15-99q0-28-11-50t-29-38-46-24-61-9h-78" />
</svg>