<svg id="fnt-Playwrite VN" viewBox="0 0 4261 1000" xmlns="http://www.w3.org/2000/svg"><path id="playwrite-vn" class="f" d="M272 424q-8 0-13-5t-4-15q0-9 3-14t12-5q39-2 72-11t60-26 45-39 28-50 10-59q0-31-13-55t-35-40-56-25-76-8q-57 0-102 11t-81 35-65 57q-5 6-12 6t-14-5q-8-7-9-14t5-12q22-29 51-51t64-37 76-23 89-8q54 0 95 11t71 33 43 53 15 71q0 38-12 71t-34 61-54 47-72 31-87 15m-147 252q-24 0-44-9t-34-23-22-27q-6-9-5-16t8-12q9-6 15-5t13 10q10 12 21 21t22 14 28 5q26 0 38-21t12-63v-404q0-7 5-11t16-3q11 0 17 3t5 11v409q0 38-10 65t-32 41-53 15m402-1q-10 0-14-6t-5-13 5-13 14-5q16 0 31-9t30-26 28-40 26-53 23-64 19-72 15-80 9-85 3-87q0-9 7-13t15-5 15 5 6 13q0 46-4 91t-11 90-18 85-23 78-28 69-32 58-35 44-38 28-38 10m139 0q-13 0-23-3t-15-10-9-17-2-21v-498q0-48 18-73t53-24q22 0 37 10t22 31 7 52q0 9-6 14t-15 4-15-4-7-14q0-19-3-30t-8-18-14-5q-9 0-15 5t-9 19-2 33v493q0 6 2 10t5 7 8 2 8-2 8-4 7-5q4-4 9-2t8 7q4 5 4 10t-2 9q-5 8-14 13t-18 8-19 3m215 0q-28 0-50-14t-35-41-12-71q0-26 4-48t15-39 23-30 31-18 38-7q16 0 33 5t32 14v-2q0-8 6-11t16-4 16 3 6 11v196q0 6 2 10t5 7 8 2q5 0 8-2t7-3 8-6q3-3 8-2t9 5q4 5 5 11t-2 9q-6 8-14 14t-19 8-19 3q-12 0-20-2t-15-8-9-13-5-17q0 0 0-2t-1-4q-11 19-25 29t-27 13-27 4m-53-128q0 28 6 47t20 31 33 10q15 0 28-5t25-16 20-30v-121q-15-10-30-13t-30-3q-13 0-24 4t-20 12-16 20-9 28-3 36m486 187l-8-40q8-7 16-14t15-13 15-11 13-8q7-5 13-2t9 9 2 13-8 11q-6 4-14 10t-17 14-19 16-17 15m-85 321q-24 0-42-11t-28-30-10-49q0-25 6-52t17-55 28-56 41-54q10-10 19-19t21-18v-83q-7 11-16 20t-19 15-23 9-25 3q-29 0-49-10t-29-31-10-50v-162q0-6 5-10t16-3q11 0 17 3t5 10v162q0 17 6 29t16 18 28 6q14 0 26-4t22-13 17-18 13-24v-156q0-6 5-10t16-3q11 0 16 3t6 10v510q0 29-7 52t-18 38-30 24-40 9m3-38q12 0 21-6t15-17 9-26 4-36v-169q-7 5-13 10t-13 12q-14 18-26 40t-19 45-12 47-4 46q0 17 4 29t13 18 21 7m291-342q-20 0-34-6t-24-18-15-31-4-45v-93q0-21-7-28t-18-7q-8 0-14 4t-9 13-4 20q-1 8-5 12t-13 4q-8 0-13-4t-4-16q1-22 8-38t22-24 32-9q18 0 30 5t21 16 13 26 4 36v72q0 19 1 33t6 23 13 13 21 4q10 0 21-4t21-13 15-26 6-42l14 60q-6 15-15 27t-20 20-23 12-26 4m152 1q-20 0-35-6t-26-20-16-32-5-46v-150q0-6 5-10t16-3q11 0 16 3t6 10v142q0 19 1 33t7 23 13 12 23 4q9 0 18-2t15-8 13-13 10-20 6-28 3-35q0-41-5-63t-11-31-16-8q-9 0-13 5t-3 11q0 7 5 13t18 11 35 4q19 0 36-8t35-20q6-4 11-1t8 9 3 12-4 10q-22 15-42 23t-47 8q-30 0-50-8t-30-22-9-31q0-13 5-24t16-16 26-5q26 0 43 17t24 46 8 68q0 23-4 42t-9 36-16 29-21 21-29 14-34 4m125-1q-10 0-15-6t-5-13 5-13 14-5q12 0 23-8t20-23 17-38 13-52 10-67l30 5q-4 56-14 97t-23 69-33 41-42 13m257 0q-13 0-22-3t-16-11-9-17-3-23q0-14 1-32t3-37 2-36 2-30q0-19-5-27t-18-7q-10 0-23 3t-26 7-26 7-25 3q-22 0-38-8t-25-23-8-31q0-21 12-33t31-12q18 0 29 10t16 24 5 33q4 0 13-3t21-8 26-8 27-3q20 0 33 8t18 23 6 41q0 12-2 29t-2 38-3 37-1 29q0 13 4 18t11 5q5 0 9-2t8-4 7-5q4-3 9-1t9 6q4 5 4 10t-2 9q-6 8-14 13t-18 8-20 3m-175-236q0-12-2-22t-6-16-10-6q-5 0-9 4t-3 11q0 10 8 19t22 10m326 236q-26 0-38-13t-12-38v-202q0-6 5-10t16-3q11 0 17 3t5 10v197q0 10 5 14t11 5q5 0 9-2t7-4 7-6q3-2 8 0t9 6q4 4 4 9t-2 9q-6 8-14 14t-18 8-19 3m-28-343q-14 0-21-8t-7-23q0-16 7-24t21-8q14 0 21 8t7 24q0 16-7 23t-21 8m203 343q-21 0-35-8t-21-22-6-34v-154h-39q-8 0-11-5t-3-15q0-12 3-16t11-4h39v-102q0-7 5-10t16-3q11 0 16 3t6 10v102h63q7 0 10 4t4 16q0 11-4 15t-10 5h-63v149q0 17 4 24t18 8q11 0 19-6t18-13q6-6 11-4t10 6q5 5 5 10t-2 10q-9 13-19 20t-22 11-23 3m222 0q-20 0-39-8t-34-24-28-37-18-47-6-53q0-17 4-32t11-28 18-21 24-13 28-5q28 0 46 12t26 30 8 40q0 17-7 35t-17 35-25 34q-22 24-49 42t-59 30-63 10q-7 0-10-6t-3-13 6-13 17-5q23 0 47-9t46-24 38-33q11-12 18-26t12-26 4-26q0-27-10-37t-27-10q-8 0-16 3t-12 12-9 19-3 25q0 29 8 52t22 41 29 27 29 9q9 0 18-4t19-11 20-18q7-8 13-8t14 6 8 11-3 13q-13 19-30 30t-33 16-32 5m577 0q-11 0-18-4t-9-13q-19-111-38-198t-35-151-35-111-36-73-37-41-40-12q-15 0-26 7t-16 20-5 31q0 13 2 26t7 26q2 8-1 13t-13 8-16 0-9-11q-6-16-9-32t-4-30q0-22 6-41t18-31 28-20 38-7q28 0 52 11t45 38 42 69 39 104 37 143 36 189q19-98 35-175t32-136 30-100 30-69 32-45 35-23 41-6q13 0 27 3t27 9 23 14q9 7 9 13t-6 15q-5 7-12 8t-13-3q-8-6-17-10t-18-6-18-2q-16 0-31 7t-27 25-26 46-27 74-29 106-34 143-40 185q-2 11-8 14t-18 3m451 0q-30 0-51-14t-31-40-11-57q0-24 5-47t14-43q3-8 10-11t16 1q10 4 13 10t0 13q-6 17-10 36t-3 36q0 24 5 41t17 25 29 9q17 0 31-9t25-28 17-50 10-75 4-102v-320q0-8 5-11t17-4 16 3 9 11l262 517v-348q0-47 8-82t24-59 39-35 55-11q17 0 34 5t34 14 28 21q6 5 5 12t-6 14q-6 7-12 8t-13-4q-15-12-35-21t-36-8q-21 0-36 8t-25 26-15 45-5 67v440q0 8-5 12t-17 4q-5 0-9-1t-7-5-6-8l-265-522v233q0 65-5 115t-16 86-26 59-37 33-50 11" />
</svg>