<svg id="fnt-Playwrite HR Lijeva" viewBox="0 0 5447 1000" xmlns="http://www.w3.org/2000/svg"><path id="playwrite-hr-lijeva" class="f" d="M205 500q-9 1-13-5t-4-13 3-13 10-6q30-1 54-7t44-17 32-26 21-33 7-39q0-21-9-36t-26-26-39-15-50-4q-34 0-65 6t-56 22-47 37q-6 7-13 9t-14-3q-8-6-10-13t5-14q16-22 38-37t48-26 56-16 62-5q40 0 70 8t52 23 32 38 11 52q0 27-9 50t-26 43-42 34-55 22-67 10m-110 175q-21 0-37-8t-26-20-15-19q-6-8-6-16t10-12q9-5 15-3t13 10q7 8 13 14t15 9 19 3q16 0 23-13t7-41v-263q0-7 6-10t16-3 17 3 5 10v266q0 28-8 49t-24 32-43 12m288 0q-10 0-14-6t-5-13 5-13 14-5q14 0 28-7t29-19 27-29 25-37 23-44 19-49 15-52 9-53 3-51q0-7 7-11t15-4 15 4 6 11q0 23-4 50t-11 55-18 56-24 55-27 51-32 44-34 36-35 23-36 8m144 0q-13 0-22-3t-16-10-8-17-3-22v-307q0-50 16-74t49-24q21 0 34 9t20 26 7 44q0 9-6 14t-15 4-15-4-7-14q0-14-2-23t-6-12-11-4q-7 0-12 5t-7 19-2 37v298q0 7 2 12t5 6 7 2q5 0 8-2t8-5 7-7q3-4 8-3t9 5q5 5 6 9t-2 10q-5 10-14 17t-18 10-20 4m212 0q-28 0-49-14t-33-41-12-69q0-26 5-49t14-40 23-30 31-18 39-7q16 0 33 5t31 13v-2q0-7 6-10t16-4 16 3 6 11v194q0 7 1 12t5 6 8 2q5 0 8-1t6-5 8-8q3-4 8-3t9 4q5 5 6 10t-1 10q-5 9-14 16t-18 11-21 4q-11 0-20-3t-15-8-9-14-4-19q0-2-1-6t0-7q-11 21-24 34t-29 18-29 5m-50-126q0 26 6 46t19 30 31 10q16 0 30-8t26-26 20-43v-96q-15-9-30-12t-29-3q-13 0-25 4t-20 12-15 20-10 29-3 37m495 149v-42q8-5 16-10t15-8 14-7 11-5q8-4 14-1t7 10 1 13-10 11q-7 4-15 8t-17 10-18 10-18 11m-86 168q-33 0-52-17t-20-44q0-13 5-26t15-26 26-26 36-27q9-5 16-10t15-10 15-8v-57q-7 15-17 26t-21 19-24 11-25 4q-26 0-45-9t-28-30-10-50v-108q0-18-5-25t-16-7q-7 0-13 4t-9 13-6 19q-1 8-6 11t-13 3q-8-1-12-5t-3-16q3-20 11-35t21-23 32-8q16 0 28 4t20 15 11 24 3 34v99q0 17 5 29t15 17 26 6q15 0 27-7t23-18 18-29 13-35v-126q0-6 5-10t17-3q10 0 16 3t5 10v311q0 32-7 56t-20 42-31 26-41 9m2-39q18 0 29-11t19-32 6-53v-17q-6 3-12 6t-10 7-10 7q-13 10-23 18t-16 17-9 15-3 16 3 14 10 9 16 4m291-152q-17 0-31-5t-23-17-15-27-5-39v-109q0-18-6-25t-15-7q-8 0-13 4t-9 13-6 19q-2 8-7 11t-13 3q-7-1-12-5t-3-16q3-20 11-35t22-23 31-8q17 0 29 4t19 15 11 24 4 34v97q0 17 3 29t13 18 22 7q11 0 22-6t22-17 16-30 7-42v-120q0-6 5-9t17-4q12 0 16 4t5 9v142q0 21 2 35t8 22 13 12 20 3q10 0 20-4t19-13 15-20 11-28 4-35q0-18-3-35t-8-33-15-31q-5-9-3-16t9-10 15-4 11 4 8 11q8 12 14 28t11 37 5 44q0 21-5 42t-15 40-24 32-33 23-41 8q-18 0-33-6t-25-19-16-33q-9 19-22 31t-27 19-32 7m391-1q-11 0-16-3t-5-10v-183q0-18-6-25t-15-7q-8 0-13 4t-9 13-6 19q-2 8-7 11t-13 3q-7-1-12-5t-3-16q3-20 11-35t22-23 31-8q14 0 24 3t18 10 12 17 7 23v12q6-17 14-29t17-21 18-13 19-4q7 0 12 4t5 15q0 14 3 23t7 14 12 4q12 0 25-10t28-25q4-4 10-3t10 7 5 10-2 10q-17 20-37 32t-40 13q-12 0-24-6t-19-17-10-28q-8 4-15 13t-15 22-12 29-9 35v112q0 7-6 10t-16 3m291 1q-26 0-38-13t-11-39v-201q0-6 5-10t16-3q11 0 16 3t6 10v195q0 11 4 16t10 4q5 0 9-2t6-5 8-8q2-3 7-2t9 5q5 4 6 9t-1 9q-6 10-14 17t-18 11-20 4m-28-343q-14 0-21-8t-7-23q0-16 7-24t21-8 20 8 7 24q1 16-6 23t-21 8m201 343q-20 0-33-8t-21-22-6-35v-153h-39q-7 0-11-5t-3-15q0-12 3-16t11-4h39v-102q0-7 5-10t16-3 17 3 5 10v102h63q8 0 11 4t3 16q0 11-3 15t-11 5h-63v149q0 17 5 24t16 7q11 0 20-6t17-16q5-6 10-5t10 5q7 5 7 10t-1 10q-8 14-19 23t-23 13-25 4m219 1q-38 0-63-16t-37-45-13-62q0-32 9-59t26-46 41-30 52-11q23 0 41 7t28 22 11 37q0 19-9 35t-24 27-36 21-46 13-53 7l0-35q16-1 34-4t33-9 29-12 19-18 8-21q0-16-11-23t-28-7q-17 0-31 7t-25 20-18 31-6 40q0 28 9 48t24 32 38 11q15 0 26-4t20-13 20-20q7-7 13-7t14 6 8 11-3 13q-13 19-30 31t-35 18-35 5m381-1q-22 0-37-11t-23-27-8-36q0-17 5-33t17-31 30-29 44-26v-179q0-21-7-31t-19-9q-10 0-20 4t-19 14-19 24q-4 7-10 9t-14-3q-9-5-10-11t4-14q12-19 25-34t29-22 37-8q34 0 51 20t16 61v160q27-12 53-25t53-25 52-26v-55q0-37 7-61t24-37 42-12q21 0 36 9t23 26 9 36q0 16-6 31t-16 29-30 28-46 27v171q0 19 4 31t11 17 21 6q10 0 19-4t17-9 12-12q6-9 12-11t14 3 9 11-5 15q-5 10-16 21t-28 20-34 8q-21 0-36-7t-25-19-14-29-4-38v-150q-18 10-38 19t-40 20-41 19-39 18v57q0 37-7 61t-24 37-41 12m0-38q15 0 22-14t6-52v-45q-13 6-23 14t-17 18-10 20-3 23q0 15 8 25t17 11m273-311v39q15-8 25-16t17-16 9-18 3-22q0-13-7-23t-17-10q-15 0-23 14t-7 52m535 350q-14 0-26-3t-24-10-22-18-21-26-23-35q-5-9-10-18t-10-18-10-17-9-18-9-18-9-17q-15-1-26-9t-11-20q0-10 6-19t24-8q9 0 17 4t17 10q22-4 39-14t30-22 19-29 7-36q0-18-8-33t-24-23-36-15-46-4q-34 0-65 6t-57 22-47 37q-6 7-12 9t-15-3q-8-6-9-13t5-14q15-22 37-37t49-26 56-16 60-5q38 0 67 7t50 23 31 37 10 48q0 20-5 37t-17 34-25 28-35 21-42 15q3 7 7 14t7 14 7 14 7 14 8 13 8 14q11 18 20 31t18 24 16 16 15 9 16 3q15 0 25-6t18-18q4-7 11-10t15 4q7 5 8 11t-3 13q-7 14-19 24t-26 16-29 6m-305-1q-21 0-37-8t-27-20-15-19q-6-8-5-16t10-12q8-5 14-3t13 10q7 8 14 14t15 9 18 3q17 0 24-13t7-41v-263q0-7 5-10t17-3 16 3 6 10v266q0 28-8 49t-25 32-42 12m591 2q-19 0-34-6t-22-17-8-28q0-17 7-31t22-21 32-7q17 0 31 4t28 12 26 16 28 15 32 12 39 4q25 0 42-8t30-23 18-29q4-9 10-11t15 0q9 2 11 8t1 15q-8 26-26 46t-43 32-57 12q-32 0-56-7t-41-16-32-20-28-16-31-7q-9 0-14 5t-4 12q0 7 7 12t14 5q19 0 29-16t10-38v-243q0-30 7-53t22-39 36-23 49-8q26 0 46 8t36 24 24 44q4 10 2 17t-12 10q-12 3-18 0t-10-14q-6-14-15-25t-23-17-31-5q-17 0-30 4t-22 15-13 25-4 37v243q0 27-10 48t-28 32-42 11m417-2q-25 0-37-13t-12-39v-201q0-6 5-10t16-3q11 0 17 3t5 10v195q0 11 4 16t11 4q5 0 8-2t7-5 7-8q3-3 8-2t9 5q5 4 6 9t-2 9q-5 10-14 17t-18 11-20 4m-28-343q-14 0-21-8t-7-23q0-16 7-24t21-8 21 8 7 24q1 16-7 23t-21 8m166 366l-1-42q8-5 16-9t16-9 13-7 12-5q8-4 13-1t7 10 1 13-10 11q-6 4-15 8t-17 10-17 10-18 11m-68 168q-17 0-31-8t-22-22-8-32q0-15 5-31t17-32 28-31 39-30q3-2 6-4t7-5v-249q0-6 5-10t16-3q11 0 17 3t5 10v324q0 27-5 49t-16 38-26 24-37 9m4-39q9 0 16-6t12-15 7-25 2-31v-36q-2 1-4 3t-4 3q-12 9-22 18t-16 20-9 21-3 22q0 7 2 13t8 9 11 4m58-495q-14 0-21-8t-7-23q0-16 7-24t21-8 21 8 7 24q0 16-7 23t-21 8m224 344q-37 0-62-16t-38-45-12-62q0-32 9-59t26-46 40-30 52-11q24 0 42 7t28 22 10 37q0 19-8 35t-24 27-36 21-46 13-53 7l-1-35q17-1 34-4t34-9 28-12 20-18 7-21q0-16-11-23t-28-7q-16 0-31 7t-25 20-17 31-6 40q0 28 8 48t24 32 38 11q16 0 27-4t20-13 20-20q7-7 13-7t13 6 9 11-3 13q-13 19-30 31t-35 18-36 5m269 0q-20 0-37-7t-28-19-19-33-6-46v-93q0-18-6-25t-15-7q-8 0-13 4t-9 13-6 19q-2 8-7 11t-13 3q-7-1-12-5t-3-16q3-20 11-35t22-23 31-8q17 0 29 4t19 15 11 24 4 34v78q0 20 3 34t9 22 16 12 23 4q11 0 21-4t18-14 15-21 10-28 3-33q0-18-2-35t-8-33-15-31q-5-9-3-16t8-10 16-4q7 0 11 4t8 11q7 12 14 28t11 37 4 44q0 21-4 42t-14 40-23 32-32 23-42 8m277-1q-27 0-49-14t-33-41-11-69q0-26 4-49t15-40 23-30 31-18 39-7q16 0 32 5t32 13v-2q0-7 5-10t17-4 16 3 5 11v194q0 7 2 12t5 6 7 2q5 0 8-1t7-5 8-8q3-4 7-3t10 4q5 5 6 10t-1 10q-6 9-14 16t-18 11-21 4q-12 0-20-3t-15-8-9-14-5-19q0-2 0-6t0-7q-11 21-25 34t-28 18-30 5m-49-126q0 26 6 46t18 30 32 10q15 0 29-8t26-26 21-43v-96q-16-9-30-12t-29-3q-14 0-25 4t-20 12-16 20-9 29-3 37" />
</svg>