<svg id="fnt-Playwrite ES" viewBox="0 0 3373 1000" xmlns="http://www.w3.org/2000/svg"><path id="playwrite-es" class="f" d="M94 674q-22 0-22-14v-478q0-7 5-11t17-3h106q55 0 92 12t56 40 19 73q0 42-16 72t-41 49-57 30-63 17q-21 3-40 4t-34 2v193q0 7-6 10t-16 4m22-466v219q10 0 22-1t26-2 26-3q34-5 64-20t49-40 19-68q0-31-14-49t-41-28-67-8h-84m244 467q-9 0-14-6t-4-13 4-13 14-5q16 0 30-8t29-20 27-33 25-42 22-50 18-56 14-60 9-63 3-64q0-7 6-11t15-4 16 4 6 11q0 31-4 64t-11 66-17 65-22 63-28 56-31 48-34 38-36 25-37 8m139 0q-13 0-22-3t-16-10-8-17-3-21v-372q0-48 16-71t50-24q22 0 36 10t21 28 7 47q0 10-6 14t-16 5-15-5-6-14q0-15-3-25t-7-15-11-5q-8 0-13 5t-7 17-3 33v367q0 6 2 10t6 7 8 2 8-2 7-4 7-5q4-4 9-2t9 7q4 5 4 10t-2 9q-6 8-14 13t-18 8-20 3m216 0q-29 0-51-14t-34-41-13-71q0-26 5-48t14-39 23-30 31-18 39-7q16 0 33 5t32 14v-2q0-8 5-11t17-4 16 3 5 11v196q0 6 2 10t6 7 8 2q5 0 8-2t6-3 8-6q4-3 8-2t9 5q5 5 5 11t-2 9q-5 8-14 14t-18 8-20 3q-11 0-20-2t-14-8-10-13-4-17q0 0-1-2t0-4q-12 19-25 29t-27 13-27 4m-54-128q0 28 7 47t19 31 34 10q14 0 27-5t25-16 21-30v-121q-16-10-30-13t-31-3q-13 0-24 4t-20 12-15 20-10 28-3 36m484 164l-2-41q8-5 16-10t15-9 14-8 12-6q8-3 13 0t8 10 0 13-9 11q-6 3-14 8t-17 10-18 11-18 11m-87 215q-23 0-40-8t-27-25-9-38q0-17 5-34t16-35 26-35 38-34q12-8 24-16t23-16v-57q-6 11-15 20t-19 15-23 9-26 3q-29 0-48-10t-30-31-9-50v-162q0-6 5-10t16-3q11 0 16 3t6 10v162q0 17 5 29t17 18 28 6q14 0 26-4t21-13 18-18 12-24v-156q0-6 5-10t17-3q10 0 16 3t5 10v374q0 31-7 55t-20 41-31 25-41 9m3-38q13 0 22-7t17-17 11-29 3-41v-64q-10 6-19 12t-20 13q-11 10-20 21t-16 25-9 25-3 25q0 12 3 20t12 12 19 5m295-213q-19 0-34-6t-24-18-14-31-5-45v-93q0-21-6-28t-18-7q-8 0-14 4t-10 13-4 20q0 8-4 12t-13 4q-8 0-13-4t-5-16q1-22 9-38t22-24 32-9q17 0 30 5t21 16 12 26 4 36v72q0 19 2 33t6 23 12 13 22 4q10 0 21-4t20-13 15-26 6-42l15 60q-6 15-15 27t-20 20-24 12-26 4m153 1q-20 0-36-6t-25-20-16-32-6-46v-150q0-6 5-10t16-3q11 0 17 3t5 10v142q0 19 2 33t6 23 14 12 22 4q10 0 18-2t16-8 13-13 10-20 6-28 2-35q0-41-4-63t-11-31-17-8q-9 0-12 5t-3 11q0 7 5 13t17 11 36 4q19 0 36-8t35-20q6-4 11-1t8 9 3 12-5 10q-21 15-42 23t-46 8q-31 0-51-8t-29-22-10-31q0-13 6-24t16-16 25-5q27 0 43 17t24 46 8 68q0 23-3 42t-10 36-15 29-22 21-28 14-34 4m124-1q-9 0-14-6t-5-13 4-13 14-5q16 0 29-12t23-36 19-59 13-81l30 5q-5 56-14 97t-23 69-33 41-43 13m258 0q-13 0-23-3t-15-11-9-17-3-23q0-14 1-32t2-37 3-36 1-30q0-19-5-27t-17-7q-14 0-32 5t-35 10-28 5q-9 0-17-10t-14-24-5-28q0-9 3-16t8-11 15-4q17 0 22 12t6 27q0 3 0 7t-1 7q6 0 20-5t31-11 36-6q20 0 32 8t18 23 6 41q0 12-1 29t-3 38-2 37-1 29q0 13 3 18t12 5q5 0 9-2t7-4 8-5q4-3 9-1t8 6q4 5 4 10t-2 9q-5 8-14 13t-18 8-19 3m150 0q-26 0-38-13t-11-38v-202q0-6 5-10t16-3q11 0 16 3t6 10v197q0 10 4 14t11 5q6 0 9-2t7-4 8-6q3-2 8 0t8 6q4 4 5 9t-3 9q-5 8-14 14t-18 8-19 3m-27-343q-14 0-22-8t-7-23q0-16 7-24t22-8q13 0 20 8t7 24q1 16-7 23t-20 8m202 343q-21 0-35-8t-20-22-7-34v-154h-39q-7 0-10-5t-3-15q0-12 3-16t10-4h39v-102q0-7 5-10t16-3q11 0 17 3t5 10v102h63q8 0 11 4t3 16q0 11-3 15t-11 5h-63v149q0 17 5 24t17 8q12 0 20-6t17-13q6-6 11-4t10 6q6 5 6 10t-3 10q-8 13-19 20t-22 11-23 3m223 0q-20 0-39-8t-35-24-27-37-18-47-7-53q0-17 4-32t12-28 18-21 23-13 28-5q29 0 46 12t26 30 8 40q0 17-6 35t-17 35-26 34q-21 24-49 42t-58 30-63 10q-7 0-11-6t-3-13 7-13 16-5q23 0 47-9t47-24 37-33q11-12 19-26t12-26 4-26q0-27-10-37t-27-10q-9 0-16 3t-13 12-8 19-3 25q0 29 8 52t22 41 28 27 29 9q10 0 19-4t18-11 20-18q7-8 14-8t13 6 8 11-3 13q-12 19-29 30t-34 16-31 5m554-8h-239q-11 0-16-5t-6-15v-465q0-7 6-11t16-3h239q7 0 10 4t4 16q0 11-4 15t-10 5h-217v175h182q8 0 11 4t3 16q0 11-3 15t-11 5h-182v204h217q7 0 10 4t4 16q0 11-4 15t-10 5m217 9q-16 0-35-3t-38-11-36-19-29-28q-4-5-4-10t8-11q7-8 11-9t15 8q12 12 28 21t36 14 44 6q29 0 50-6t36-19 22-31 8-44q0-21-8-36t-21-27-32-20-41-16q-20-6-40-15t-38-20-32-28-22-38-8-50q0-30 11-53t29-39 46-25 56-8q29 0 52 8t43 21 38 29q5 5 4 10t-6 11q-6 7-12 9t-11-1q-15-13-32-23t-35-16-41-5-40 5-30 15-19 26-6 36q0 24 7 41t23 29 33 21 41 16q24 8 48 18t44 27 32 39 13 59q0 35-11 61t-32 44-51 28-68 9" />
</svg>