<svg id="fnt-Playwrite CU" viewBox="0 0 3797 1000" xmlns="http://www.w3.org/2000/svg"><path id="playwrite-cu" class="f" d="M258 455q-9 0-13-5t-2-17q1-10 6-15t13-5q55-3 99-20t77-43 50-61 18-75q0-34-17-52t-48-19q-21 0-44 10t-46 30-44 47-41 61-33 73l-96 296q-2 7-8 10t-17 4q-11 0-17-4t-3-11l143-442q-13 15-29 27t-33 25-38 23q-10 5-17 2t-11-13q-4-9-2-16t12-11q35-18 63-39t49-45 38-54q5-8 10-11t17-3 16 3 3 12l-27 83q25-32 52-54t56-33 57-11q31 0 53 13t35 37 13 57q0 50-22 94t-61 76-93 53-118 23m134 220q-9 0-12-6t-1-13 8-13 14-5q15 0 35-12t45-32 49-47 52-59 50-67 45-69 36-68 25-63 9-52q0-8 6-12t15-4 15 4 7 12q0 24-10 55t-27 67-41 74-50 75-57 72-58 64-58 52-53 35-44 12m161 0q-20 0-30-8t-13-21 0-29 8-29l128-395q16-49 37-71t52-22q17 0 29 8t19 24 7 37q0 10-7 14t-15 5-15-5-6-14q0-9-2-15t-6-10-11-3q-7 0-13 5t-14 18-14 36l-133 411q-2 7-3 13t2 9 8 4 12-4 11-9 10-12q4-5 8-6t12 3q9 5 9 10t-2 11q-4 8-14 19t-23 18-31 8m200 0q-20 0-34-9t-23-28-7-42q0-22 6-48t20-51 32-45 46-33 59-12q16 0 32 5t30 12l0-2q3-8 8-11t14-2q16 0 20 5t1 15l-61 182q-2 7-3 13t2 9 8 4q6 0 12-4t11-9 11-12q3-5 8-6t11 3q9 5 9 10t-1 11q-5 8-15 19t-23 18-30 8q-16 0-26-6t-13-15-4-20 2-22q1-1 1-3t0-2q-18 25-37 40t-35 21-31 7m-19-85q0 14 4 24t11 16 19 5q17 0 36-14t39-40 40-63l20-60q-15-7-28-9t-25-2q-24 0-43 9t-33 26-22 35-14 39-4 34m452 134l4-45q9-7 18-13t20-13 18-11 15-8q8-4 12-1t7 10 1 13-7 10q-10 5-21 12t-22 15-23 15-22 16m-158 260q-29 0-46-17t-17-43q0-23 8-46t26-45 40-44 54-45q11-8 22-16t22-16 22-15l30-94q-12 17-26 30t-28 23-28 14-29 5q-25 0-40-12t-18-34 8-53l36-112q3-9 1-14t-10-4q-6 0-12 3t-14 12-17 22q-5 7-10 9t-13-1q-10-4-11-10t4-13q9-17 21-30t27-22 33-8q17 0 27 6t14 17 3 23-5 28l-32 100q-6 16-6 28t7 19 23 6q15 0 31-10t34-28 34-43 30-55l24-74q4-10 8-13t15-3q15 0 19 5t1 15l-137 420q-12 36-24 62t-28 42-33 23-40 8m7-39q15 0 28-10t26-32 22-55l30-96q-6 5-12 9t-12 9-11 8q-24 20-42 38t-31 36-18 33-6 32q0 9 3 16t9 9 14 3m366-269q-23 0-37-9t-18-25-4-35 8-38l47-144q3-9 8-13t15-3q16 0 20 4t0 15l-47 147q-5 14-7 28t4 24 23 9q11 0 23-6t25-19 22-27 19-35l40-124q3-9 8-13t15-3q16 0 20 4t0 15l-40 127q-4 12-8 26t-4 27 7 20 23 8q18 0 34-10t29-27 23-38 15-43 6-41q0-7-1-15t-1-14-2-13q-2-10 0-16t7-9 13-3q9 0 14 6t9 18q1 7 2 14t2 14 0 15q0 24-7 52t-21 54-33 48-44 35-54 13q-22 0-36-7t-20-20-8-27q-11 17-25 29t-29 19-35 6m380-2q-8 0-15-3t-3-13l62-194q3-9 1-14t-10-4q-6 0-12 3t-14 12-17 22q-5 7-10 9t-13-1q-10-4-11-10t4-13q9-17 21-30t27-22 33-8q15 0 24 5t14 14 5 19-1 20l-5 16q12-18 24-32t24-24 23-14 20-5q8 0 12 4t3 15q0 13 2 21t5 14 11 4q11 0 25-8t34-23q5-3 10-1t9 7 5 11-4 10q-21 18-42 28t-41 11q-11 0-22-5t-17-15-8-30q-11 5-24 17t-28 29-28 41-25 51l-24 73q-2 7-7 10t-17 3m303 1q-31 0-41-23t4-63l54-164q3-10 7-13t15-3q16 0 20 5t1 15l-59 181q-5 13-3 20t10 7q6 0 12-4t10-9 11-12q4-5 8-6t12 3q8 5 9 10t-2 11q-8 13-18 23t-23 16-27 6m70-343q-10 0-17-6t-7-19q0-14 9-26t27-12q10 0 17 6t8 20q0 13-9 25t-28 12m94 343q-25 0-36-12t-12-32 8-46l42-128h-39q-5 0-7-5t0-15q3-10 8-15t10-5h41l32-99q3-10 8-13t15-3q15 0 19 4t1 15l-31 96h63q6 0 8 4t-1 16q-3 9-8 14t-10 6h-65l-48 146q-5 17-3 25t13 9q13 0 26-10t23-23q4-4 9-6t12 4q8 5 9 10t-2 10q-6 10-18 22t-28 22-39 9m234 1q-18 0-33-6t-27-17-21-25-13-32-4-37q0-19 4-40t13-40 24-37 33-25 43-10q19 0 32 7t20 20 7 30q0 27-14 52t-36 50-49 42q-28 20-59 35t-60 24-53 8q-7 0-11-6t-2-13 7-13 16-5q20 0 44-8t50-22 48-31q19-14 36-32t27-35 11-36q0-13-6-20t-17-7q-16 0-28 11t-20 29-12 36-4 35q0 17 4 31t13 25 20 16 25 6q14 0 27-6t25-15 24-20q6-6 13-5t13 7q6 6 7 12t-6 14q-17 19-36 31t-37 16-38 6m508 0q-40 0-71-13t-54-39-34-62-12-82q0-41 9-85t28-86 46-79 62-67 78-45 93-16q34 0 61 7t48 22 36 36q4 7 2 11t-10 11q-7 6-13 5t-12-8q-19-20-48-31t-71-11q-38 0-72 14t-63 38-53 57-40 69-25 76-9 76q0 39 8 68t24 50 41 31 58 11q22 0 42-7t39-18 39-30 41-41q6-6 12-5t12 8q7 7 7 12t-5 13q-35 41-69 65t-65 35-60 10m437-1q-42 0-66-18t-27-54 13-86l104-322q9-26 5-39t-19-13q-11 0-24 7t-26 21-31 36q-7 9-14 10t-15-5q-7-6-8-12t5-15q22-30 43-48t41-28 38-8q38 0 51 26t-3 76l-101 312q-13 40-13 66t15 38 45 12q20 0 42-8t43-24 41-38 39-49 34-59l111-337q2-7 8-10t17-4q12 0 17 4t3 11l-148 448q-8 24-10 39t3 22 15 8q12 0 26-13t33-42q5-8 11-10t14 3 10 11-3 15q-10 17-21 31t-24 25-26 16-27 6q-22 0-35-10t-17-30 2-49q2-6 4-13t4-12q-19 26-40 46t-45 36-47 23-47 8" />
</svg>