<svg id="fnt-Playwrite BE WAL" viewBox="0 0 6471 1000" xmlns="http://www.w3.org/2000/svg"><path id="playwrite-be-wal" class="f" d="M299 394q-9 0-14-5t-4-15q0-11 3-15t12-5q43-2 80-13t66-29 50-44 31-56 11-68q0-34-13-62t-40-45-63-29-86-9q-64 0-115 13t-91 39-72 67q-5 5-12 5t-14-6-8-13 4-12q25-32 56-57t71-43 85-26 97-9q60 0 106 12t77 37 48 58 17 79q0 43-13 80t-37 67-59 53-78 35-95 16m-162 282q-26 0-47-9t-37-25-26-31q-5-9-4-17t8-12q9-5 15-5t13 10q12 15 24 26t25 16 31 5q29 0 43-23t15-71v-461q0-7 5-11t16-3q11 0 17 3t5 11v466q0 42-12 71t-34 45-57 15m444-1q-9 0-14-6t-4-13 4-13 14-5q17 0 32-10t31-28 29-45 27-59 23-72 19-82 15-91 10-97 3-102q0-9 6-14t15-4 16 4 6 14q0 55-4 108t-11 103-18 97-23 87-29 76-33 64-36 47-38 31-40 10m139 0q-13 0-22-3t-16-10-8-17-3-21v-570q0-49 19-74t55-25q23 0 38 11t23 32 7 54q0 9-6 14t-16 4-15-4-6-14q0-20-3-32t-9-19-15-6q-10 0-16 6t-10 19-3 34v565q0 6 2 10t6 7 8 2 8-2 7-4 7-5q4-4 9-2t9 7q4 5 4 10t-2 9q-6 8-14 13t-18 8-20 3m216 0q-29 0-51-14t-34-41-13-71q0-26 5-48t14-39 23-30 31-18 39-7q16 0 33 5t32 14v-2q0-8 5-11t17-4 16 3 5 11v196q0 6 2 10t6 7 8 2q5 0 8-2t6-3 8-6q4-3 8-2t9 5q5 5 5 11t-2 9q-5 8-14 14t-18 8-20 3q-11 0-20-2t-14-8-10-13-4-17q0 0-1-2t0-4q-12 19-25 29t-27 13-27 4m-54-128q0 28 7 47t19 31 34 10q14 0 27-5t25-16 21-30v-121q-16-10-30-13t-31-3q-13 0-24 4t-20 12-15 20-10 28-3 36m487 200l-11-39q8-9 16-17t16-15 15-13 13-9q7-5 13-3t10 8 3 13-7 12q-6 4-14 11t-18 16-18 18-18 18m-83 382q-25 0-44-12t-28-34-10-54q0-30 6-62t17-67 30-69 43-66q8-10 17-20t18-19v-98q-6 11-15 20t-19 15-23 9-26 3q-29 0-48-10t-30-31-9-50v-162q0-6 5-10t16-3q11 0 16 3t6 10v162q0 17 5 29t17 18 28 6q14 0 26-4t21-13 18-18 12-24v-156q0-6 5-10t17-3q10 0 16 3t5 10v589q0 28-6 49t-18 37-29 24-39 8m3-38q11 0 20-6t14-16 9-25 3-33v-229q-4 5-9 9t-9 11q-16 23-28 50t-22 58-14 60-4 58q0 19 4 34t14 22 22 7m288-416q-19 0-34-6t-24-18-14-31-5-45v-93q0-21-6-28t-18-7q-8 0-14 4t-10 13-4 20q0 8-4 12t-13 4q-8 0-13-4t-5-16q1-22 9-38t22-24 32-9q17 0 30 5t21 16 12 26 4 36v72q0 19 2 33t6 23 12 13 22 4q10 0 21-4t20-13 15-26 6-42l15 60q-6 15-15 27t-20 20-24 12-26 4m153 1q-20 0-36-6t-25-20-16-32-6-46v-150q0-6 5-10t16-3q11 0 17 3t5 10v142q0 19 2 33t6 23 14 12 22 4q10 0 18-2t16-8 13-13 10-20 6-28 2-35q0-41-4-63t-11-31-17-8q-9 0-12 5t-3 11q0 7 5 13t17 11 36 4q19 0 36-8t35-20q6-4 11-1t8 9 3 12-5 10q-21 15-42 23t-46 8q-31 0-51-8t-29-22-10-31q0-13 6-24t16-16 25-5q27 0 43 17t24 46 8 68q0 23-3 42t-10 36-15 29-22 21-28 14-34 4m124-1q-9 0-14-6t-5-13 4-13 14-5q13 0 23-8t20-23 17-38 14-52 10-67l30 5q-5 56-14 97t-23 69-33 41-43 13m258 0q-13 0-23-3t-15-11-9-17-3-23q0-14 1-32t2-37 3-36 1-30q0-19-5-27t-17-7q-11 0-24 3t-26 7-26 7-24 3q-23 0-39-8t-24-23-8-31q0-21 11-33t31-12q18 0 29 10t16 24 5 33q4 0 13-3t21-8 26-8 28-3q20 0 32 8t18 23 6 41q0 12-1 29t-3 38-2 37-1 29q0 13 3 18t12 5q5 0 9-2t7-4 8-5q4-3 9-1t8 6q4 5 4 10t-2 9q-5 8-14 13t-18 8-19 3m-175-236q0-12-2-22t-6-16-10-6q-6 0-9 4t-3 11q0 10 8 19t22 10m325 236q-26 0-38-13t-11-38v-202q0-6 5-10t16-3q11 0 16 3t6 10v197q0 10 4 14t11 5q6 0 9-2t7-4 8-6q3-2 8 0t8 6q4 4 5 9t-3 9q-5 8-14 14t-18 8-19 3m-27-343q-14 0-22-8t-7-23q0-16 7-24t22-8q13 0 20 8t7 24q1 16-7 23t-20 8m202 343q-21 0-35-8t-20-22-7-34v-296q0-7 5-10t16-3q11 0 17 3t5 10v102h63q8 0 11 4t3 16q0 11-3 15t-11 5h-63v149q0 17 5 24t17 8q12 0 20-6t17-13q6-6 11-4t10 6q6 5 6 10t-3 10q-8 13-19 20t-22 11-23 3m223 0q-20 0-39-8t-35-24-27-37-18-47-7-53q0-17 4-32t12-28 18-21 23-13 28-5q29 0 46 12t26 30 8 40q0 17-6 35t-17 35-26 34q-21 24-49 42t-58 30-63 10q-7 0-11-6t-3-13 7-13 16-5q23 0 47-9t47-24 37-33q11-12 19-26t12-26 4-26q0-27-10-37t-27-10q-9 0-16 3t-13 12-8 19-3 25q0 29 8 52t22 41 28 27 29 9q10 0 19-4t18-11 20-18q7-8 14-8t13 6 8 11-3 13q-12 19-29 30t-34 16-31 5m605 1q-18 0-35-3t-35-9-31-13q-8-5-11-12t2-15q5-9 10-11t16 3q13 6 27 10t28 6 29 2q39 0 71-14t57-38 37-57 14-72q0-46-21-78t-60-49-92-17q-12 7-23 10t-22 3q-18 0-27-8t-9-20q0-9 4-17t13-12 22-5q13 0 23 2t17 6q33-5 58-18t43-33 27-44 9-55q0-39-22-66t-67-39-109-14q-63 0-112 13t-89 40-72 66q-5 5-12 5t-14-6-8-13 4-12q25-32 57-57t69-42 83-27 95-9q77 0 131 19t84 54 29 87q0 30-10 56t-27 49-42 37-54 24v2q37 0 68 12t54 34 36 53 12 66q0 39-11 74t-31 62-48 48-62 31-73 11m-247 0q-25 0-47-9t-37-25-25-31q-5-9-5-17t9-12q9-5 15-5t13 10q11 15 23 26t26 16 30 5q30 0 44-23t14-71v-461q0-7 6-11t16-3q11 0 16 3t6 11v466q0 42-12 71t-35 45-57 15m792 0q-63 0-110-24t-73-67-26-101q0-33 11-64t29-56 45-42 57-25q-34-10-60-34t-40-57-14-72q0-31 9-58t26-49 40-38 52-24 62-8 64 8 57 24 49 39q7 7 9 15t-7 16q-9 8-16 6t-15-9q-20-18-43-31t-48-19-52-7q-31 0-57 10t-45 28-28 42-10 54q0 42 17 75t49 52 71 19h88q7 0 10 4t3 16q0 11-3 15t-10 5h-87q-37 0-67 12t-52 34-35 51-12 65q0 47 20 81t57 53 86 19q31 0 61-11t56-30 50-50q7-8 13-10t14 6q9 7 10 13t-7 18q-26 35-58 58t-66 36-74 12m712 0q-57 0-90-48t-47-144q-6-44-11-90t-9-97-7-106-6-121q-2-26-6-43t-12-24-21-7q-16 0-28 8t-25 27-28 48q-4 7-10 9t-15-1q-8-4-10-12t1-15q18-36 36-60t37-34 44-11q26 0 43 12t26 38 12 64q2 47 4 87t4 76 5 68 6 61 6 58 8 59q7 51 20 86t33 54 46 18q20 0 37-11t31-33 26-54 21-77 15-101 10-125q-4-12-8-25t-3-24q0-12 4-21t11-15 17-5q17 0 26 13t9 34q0 12-2 22t-5 20q4 40 7 75t8 68 9 59 11 51q13 51 29 84t35 49 43 16q23 0 42-17t35-51 26-81 16-107 6-130q0-34-1-66t-3-61-5-53-6-43q-23-6-34-19t-10-25q0-12 8-21t22-8q19 0 31 10t21 27q6 7 23 15t41 16 47 12q8 1 10 6t2 11q0 7-5 13t-13 6q-8-1-19-3t-23-5-22-7-19-8-15-8q4 25 7 56t5 70 2 91q0 63-6 119t-16 103-25 84-34 62-42 39-49 13q-34 0-61-18t-45-57-33-99q-4-16-7-34t-5-38-5-41-4-44h-2q-6 67-16 120t-24 93-34 66-44 39-54 13m714-1q-15 0-27-2t-23-4-17-6-9-10 0-14q2-9 7-12t11-2q10 4 25 7t33 3q21 0 40-9t39-28 38-53 38-84 39-118 41-159 42-204q2-14 11-19t23-4q14 0 22 4t12 19q9 47 19 96t22 102 27 109 31 120 39 130q8 27 15 45t17 30 19 18 22 5q18 0 33-18t26-54 19-89q1-8 7-12t16-1q10 1 14 6t3 12q-8 65-25 109t-39 65-54 22q-20 0-36-6t-29-22-25-38-23-59q-7-24-14-47t-14-45h-215q-18 50-37 87t-38 61-40 41-41 22-44 6m214-255h190q-21-76-38-144t-31-132-25-123q-24 129-48 228t-48 171m839 252q-40 0-72-10t-59-26-50-31-44-26-41-10q-18 0-29 9t-11 25q0 14 11 23t28 9q20 0 34-13t22-38 8-63v-306q0-60 12-108t35-81 55-52 74-17q35 0 64 14t46 41 18 65q0 34-13 60t-35 46-57 29-74 10q-55 0-102-12t-87-33-74-47q-7-5-8-12t5-15q6-9 12-11t14 5q31 24 68 43t79 30 93 11q31 0 56-7t42-21 26-32 9-44q0-25-11-43t-29-26-44-9q-30 0-55 14t-41 43-26 69-9 91v305q0 50-13 84t-38 52-58 18q-24 0-43-9t-29-26-11-37q0-22 11-39t30-26 43-9q26 0 50 10t49 25 51 31 56 25 65 10q36 0 64-12t47-36 27-56q2-9 8-11t18 1q8 2 11 8t2 13q-9 42-34 72t-62 47-84 16" />
</svg>