<svg id="fnt-Playwrite BE VLG" viewBox="0 0 5287 1000" xmlns="http://www.w3.org/2000/svg"><path id="playwrite-be-vlg" class="f" d="M250 477q-9 0-11-6t-1-14q3-8 7-13t13-6q33-1 65-7t60-19 50-30 34-42 12-53q0-22-9-39t-27-27-42-16-55-5q-38 0-74 8t-69 24-58 42q-9 8-16 5t-13-9q-4-5-4-12t7-14q21-21 48-37t56-27 62-16 64-5q45 0 78 9t54 27 33 40 11 51q0 38-15 67t-42 53-61 37-75 24-82 10m-180 198q-20 0-36-8t-28-23-16-29q-3-9 0-15t10-10q9-3 15-1t11 11q6 11 13 19t16 10 18 4q19 0 32-15t26-54l97-303q3-7 9-11t17-3q11 0 17 3t2 12l-96 300q-12 36-27 61t-34 39-46 13m318 0q-10 0-13-6t-1-13 8-13 15-5q16 0 36-10t42-27 47-41 47-52 45-57 40-61 32-60 21-55 8-48q0-7 6-11t15-4 16 4 6 11q0 23-8 51t-25 60-36 65-46 66-52 64-54 56-55 45-51 30-43 11m159 0q-21 0-32-8t-14-21-1-29 8-32l111-343q15-45 35-65t50-20q17 0 29 9t19 24 6 37q0 10-6 14t-16 5-15-5-6-14q0-9-2-15t-6-10-11-3q-5 0-11 5t-12 14-12 30l-116 361q-2 7-3 13t1 11 10 4 13-3 11-10 9-11q3-4 8-6t13 4q8 5 8 10t-2 11q-5 8-14 18t-22 18-30 7m201 0q-21 0-37-10t-24-28-8-43q0-22 6-48t19-50 32-45 46-32 59-12q16 0 32 5t30 14l1-2q3-9 8-12t14-3q16 0 20 5t1 15l-60 180q-2 7-3 13t2 11 10 4q6 0 12-3t11-10 10-11q3-4 8-6t13 4q8 5 8 10t-2 11q-5 8-14 18t-22 18-30 7q-15 0-25-5t-14-12-6-17-1-19q0-2 0-3t1-2q-18 22-35 35t-34 18-28 5m-24-87q0 16 4 26t13 16 21 5q17 0 35-11t35-33 34-51l26-81q-13-7-26-10t-25-2q-25 0-44 9t-34 26-22 35-13 37-4 34m436 132l5-43q10-6 19-11t20-10 18-8 15-7q8-3 12 0t6 11-1 14-8 9q-9 4-20 10t-22 11-22 12-22 12m-137 206q-19 0-34-8t-23-21-8-30q0-22 9-42t27-38 40-36 54-35q12-7 25-15t27-14l22-69q-12 13-24 24t-25 18-26 11-26 4q-27 0-43-12t-19-35 6-52l50-151q3-10 8-13t14-3q16 0 20 5t1 15l-50 150q-6 19-5 32t8 18 26 7q13 0 28-8t30-21 29-33 26-42l34-107q3-10 8-13t14-3q16 0 20 5t1 15l-119 364q-11 36-24 61t-28 42-33 23-40 7m7-38q12 0 22-6t19-18 18-30 17-43l17-54q-6 4-13 8t-14 8q-22 14-40 27t-29 27-18 27-7 26q0 9 4 15t9 9 15 4m363-212q-24 0-38-9t-19-24-5-34 7-36l35-105q3-11 0-16t-11-6q-7 0-13 4t-14 13-16 23q-4 7-8 9t-14 1q-10-2-12-9t2-14q9-18 21-33t27-23 33-8q16 0 27 5t16 17 5 24-5 29l-29 92q-5 13-6 27t4 24 24 10q12 0 24-6t23-16 22-26 19-36l41-128q4-9 8-13t15-3q16 0 20 5t0 14l-39 122q-4 14-8 29t-4 29 8 20 23 8q19 0 35-10t29-26 22-37 14-42 5-39q0-9-1-17t-1-16-3-14q-2-9 0-15t7-10 14-3 14 6 8 19q2 7 3 15t2 17 1 18q0 22-7 48t-20 52-32 47-43 34-54 13q-22 0-37-7t-22-19-9-26q-10 17-24 28t-30 18-34 6m266-1q-9 0-12-6t-2-13 8-13 16-5q17 0 35-12t36-36 37-60 38-84l28 13q-23 61-45 102t-44 67-45 36-50 11m279 0q-19 0-30-6t-16-17-3-23 5-27q4-12 11-27t14-32 14-34 11-32q4-15 0-20t-12-5q-13 0-28 5t-32 10-32 5q-11 0-18-8t-12-18-3-23q0-12 4-23t11-19 20-7q12 0 17 7t6 17q0 8-3 17t-8 17q9 0 25-5t34-11 36-6q14 0 25 7t15 22-3 42q-4 14-11 31t-15 34-15 35-11 32q-4 13-2 19t11 5q7 0 13-3t11-10 9-11q3-4 8-6t13 4q8 5 9 10t-3 11q-4 8-14 18t-22 18-29 7m150 0q-32 0-43-23t3-61l53-166q4-10 8-13t15-3q15 0 19 5t1 15l-58 178q-4 15-2 22t11 8q7 0 13-3t11-10 9-11q3-4 8-6t13 4q8 5 9 10t-3 11q-6 11-16 21t-23 16-28 6m67-343q-10 0-17-6t-7-19q0-14 8-26t28-12q10 0 17 6t7 20q0 13-9 25t-27 12m96 343q-27 0-39-13t-10-33 9-48l85-263q3-10 8-13t15-3q15 0 19 4t1 15l-31 96h63q6 0 8 4t-1 16q-2 9-7 14t-11 6h-64l-48 145q-5 18-3 26t14 9q15 0 27-10t20-20q3-5 8-6t13 3q9 5 9 10t-2 11q-6 10-18 22t-27 20-38 8m234 1q-17 0-32-6t-28-17-22-25-14-34-5-38q0-20 5-40t13-40 24-35 33-25 43-9q19 0 33 8t21 21 7 30q0 29-14 55t-36 50-48 41q-27 19-57 33t-60 22-55 8q-7 0-10-6t-2-13 7-13 16-5q22 0 47-8t49-20 45-30q18-13 35-30t27-36 11-38q0-14-6-22t-20-7q-15 0-27 11t-20 27-12 35-4 33q0 19 5 34t14 26 20 17 25 6 25-5 24-13 23-18q7-7 13-6t12 7q7 6 8 13t-6 13q-16 17-34 28t-36 16-37 5m519-3q-18 0-33-3t-28-10-21-13q-8-6-9-12t5-14q5-7 10-8t13 2q10 6 20 10t22 6 22 2q29 0 57-9t50-27 35-44 14-60q0-24-14-41t-36-26-51-9q-10 4-19 7t-18 3q-13 0-19-6t-6-13q0-7 4-16t13-14 26-6q10 0 18 2t13 4q27-4 51-14t41-26 28-34 10-36q0-24-13-39t-40-22-68-7q-39 0-76 8t-69 24-60 42q-8 8-15 5t-13-9q-4-6-4-13t7-13q21-21 48-37t56-27 63-16 66-5q55 0 91 13t55 36 18 55q0 24-11 46t-29 40-42 30-53 17v1q21 3 38 11t29 21 19 28 7 36q0 31-10 59t-28 50-43 38-56 25-65 8m-201 2q-20 0-36-8t-28-23-15-29q-3-9-1-15t10-10q9-3 15-1t11 11q6 11 13 19t16 10 18 4q19 0 32-15t26-54l97-303q3-7 9-11t17-3q11 0 16 3t3 12l-96 300q-12 36-27 61t-34 39-46 13m603 1q-42 0-73-14t-46-39-16-60q0-28 10-55t30-48 46-37 57-21q-17-5-30-18t-21-31-7-38q0-27 8-51t24-43 37-33 48-22 57-7q28 0 52 7t44 20 32 33q6 8 5 14t-8 12q-7 6-14 5t-15-9q-13-12-29-21t-36-13-41-4q-27 0-49 8t-37 25-24 35-9 43q0 20 9 36t27 25 46 10h67q8 0 9 4t-1 16q-4 10-8 15t-12 5h-65q-32 0-61 10t-49 29-33 43-12 51q0 24 11 41t34 25 54 9q24 0 48-9t48-24 44-40q8-9 15-9t14 7q8 8 7 14t-10 16q-28 31-57 51t-60 28-60 9m605-1q-13 0-18-4t-4-16q8-91 12-160t4-120-2-84-9-54-15-28-21-9q-14 0-22 10t-13 24-4 33q0 3 0 6t1 6q0 8-4 12t-15 4q-11 1-15-3t-5-12q-1-4-1-8t0-5q0-22 5-41t14-35 25-23 36-9q20 0 35 8t27 26 17 50 8 79-1 111-11 151q34-72 63-130t54-102 47-77 41-55 38-36 35-19 35-6q12 0 23 3t21 8 16 13q6 5 6 11t-5 12q-5 6-11 8t-12-2q-4-3-10-6t-13-5-17-1q-12 0-26 6t-30 20-34 38-40 59-48 83-58 110-68 141q-6 12-13 15t-18 3m584-1q-26 0-50-8t-46-19-42-23-39-20-35-7q-15 0-21 6t-7 14 7 13 19 5q13 0 23-7t17-23 17-43l76-228q14-43 31-75t39-55 47-34 56-11q25 0 45 10t31 28 12 42q0 26-12 48t-32 38-50 25-62 9q-37 0-72-8t-67-23-60-38q-7-6-7-12t5-15q7-8 13-10t13 5q23 19 51 33t61 20 70 7q22 0 40-6t33-16 22-24 8-31q0-12-6-21t-16-14-26-5q-21 0-39 9t-34 28-29 44-25 62l-74 224q-13 40-28 63t-33 34-43 10q-19 0-34-7t-24-20-8-28q0-19 9-33t26-22 37-8q24 0 45 7t42 19 42 23 42 19 44 8q29 0 50-9t36-28 27-44q4-8 10-9t16 2q11 4 13 10t-1 15q-17 35-39 58t-50 35-64 11m394 252q-22 0-39-8t-25-24-8-34q0-24 11-47t37-49 65-53 96-61 132-71q7-4 13-2t11 10q5 9 4 16t-10 11q-69 36-121 65t-89 55-60 46-33 40-11 35q0 13 9 21t23 8q27 0 49-24t36-70l83-253q-17 21-36 40t-41 35-42 26-43 17-42 6q-35 0-60-13t-39-38-13-63q0-32 8-68t24-74 37-73 47-67 55-55 61-38 64-13q28 0 47 10t30 27 11 43q0 33-21 69t-61 75-92 76-117 73-134 66q-9 4-16 1t-10-12q-4-9-2-16t11-9q65-29 124-61t109-67 86-68 57-66 20-59q0-13-5-22t-16-13-24-4q-26 0-52 12t-50 33-46 50-40 59-32 65-20 65-7 60q0 23 8 39t25 24 41 9q27 0 57-14t62-39 59-59 52-74q3-7 8-11t17-3q24 0 19 14l-117 362q-14 44-34 73t-46 44-54 15" />
</svg>