<svg id="fnt-Playwrite HR" viewBox="0 0 3715 1000" xmlns="http://www.w3.org/2000/svg"><path id="playwrite-hr" class="f" d="M221 501q-8 1-10-6t0-13q2-8 7-13t12-6q27 0 55-5t52-15 45-25 31-36 11-47q0-20-9-34t-24-23-38-14-49-4q-32 0-64 7t-61 21-53 37q-8 8-16 5t-12-9q-4-5-4-12t7-14q19-19 43-33t50-23 56-15 56-4q42 0 73 8t51 24 30 37 10 46q0 35-15 61t-38 46-57 32-67 19-72 8m-162 174q-18 0-34-8t-25-20-15-25q-3-9-1-16t11-9q9-4 14-1t11 11 12 14 15 9 16 3q16 0 27-13t22-46l83-259q2-7 8-11t18-3q11 0 16 3t3 12l-82 254q-10 33-24 56t-31 37-44 12m285 0q-10 0-13-6t-1-13 8-13 15-5q16 0 35-8t40-23 43-33 44-42 41-48 37-51 30-52 19-50 7-43q0-8 7-11t15-4 15 4 7 11q0 21-8 47t-23 53-34 57-43 57-49 54-52 47-51 38-48 25-41 9m159 0q-21 0-32-8t-14-21-1-29 8-32l91-283q15-44 35-64t49-20q16 0 28 8t19 25 7 37q0 9-7 14t-15 4-15-4-7-14q0-9-2-16t-5-9-10-3-12 4-11 15-12 29l-96 301q-2 7-3 13t1 11 10 4 13-3 11-10 9-11q3-4 8-6t13 4q8 5 8 10t-2 11q-5 8-14 18t-22 18-30 7m201 0q-21 0-37-10t-24-28-8-43q0-22 6-48t19-50 32-45 46-32 59-12q16 0 32 5t30 14l1-2q3-9 8-12t14-3q16 0 20 5t1 15l-60 180q-2 7-3 13t2 11 10 4q6 0 12-3t11-10 10-11q3-4 8-6t13 4q8 5 8 10t-2 11q-5 8-14 18t-22 18-30 7q-15 0-25-5t-14-12-6-17-1-19q0-2 0-3t1-2q-18 22-35 35t-34 18-28 5m-24-87q0 16 4 26t13 16 21 5q17 0 35-11t35-33 34-51l26-81q-13-7-26-10t-25-2q-25 0-44 9t-34 26-22 35-13 37-4 34m455 117l5-42q9-5 19-10t18-9 17-7 16-6q7-3 11 1t6 11-2 13-8 9q-9 5-20 10t-20 9-21 10-21 11m-123 161q-30 0-48-16t-18-41q0-18 9-34t24-28 37-25 47-24q9-4 17-8t16-9 16-7l18-57q-11 14-24 25t-25 18-26 11-25 4q-27 0-43-12t-20-35 7-52l35-108q3-11 0-16t-11-6q-7 0-13 4t-14 13-16 23q-4 7-8 9t-14 1q-10-2-12-9t2-14q9-18 21-33t27-23 33-8q16 0 27 5t16 17 5 24-5 29l-30 95q-6 19-6 32t9 18 25 7q13 0 28-8t30-21 30-34 25-42l34-106q4-10 8-13t15-3q15 0 19 5t1 15l-98 303q-12 37-25 62t-28 41-33 23-39 8m6-39q15 0 29-11t27-33 20-52l3-10q-4 2-9 4t-9 5-9 4q-18 9-33 17t-25 17-16 16-5 19q0 8 3 13t10 8 14 3m344-151q-24 0-38-9t-20-24-4-34 7-36l34-105q3-11 0-16t-10-6q-7 0-14 4t-14 13-15 23q-5 7-9 9t-13 1q-10-2-12-9t2-14q9-18 20-33t27-23 33-8q17 0 27 5t16 17 5 24-5 29l-29 92q-4 13-6 27t5 24 24 10q11 0 23-6t24-16 22-26 18-36l42-128q3-9 8-13t14-3q17 0 20 5t1 14l-39 122q-5 14-9 29t-3 29 7 20 23 8q19 0 35-10t29-26 22-37 14-42 5-39q0-9 0-17t-2-16-3-14q-1-9 0-15t8-10 14-3 13 6 9 19q2 7 3 15t2 17 0 18q0 22-6 48t-20 52-32 47-43 34-54 13q-23 0-37-7t-22-19-9-26q-11 17-25 28t-29 18-34 6m380-2q-8 0-15-3t-3-13l61-190q3-11 0-16t-10-6q-7 0-14 4t-14 13-15 23q-5 7-9 9t-13 1q-10-2-12-9t2-14q9-18 20-33t27-23 33-8q15 0 24 4t15 12 7 17 1 19l-3 9q11-16 22-27t22-20 21-12 20-4q7 0 12 4t4 15q0 13 2 22t6 14 11 5q12 0 26-9t31-24q5-4 10-2t10 6 5 11-3 10q-19 19-40 31t-43 11q-11 0-22-5t-17-16-9-31q-11 4-24 13t-24 24-25 35-21 43l-32 97q-2 7-7 10t-17 3m306 1q-32 0-43-23t3-61l53-166q4-10 8-13t15-3q15 0 19 5t1 15l-58 178q-4 15-2 22t11 8q7 0 13-3t11-10 9-11q3-4 8-6t13 4q8 5 9 10t-3 11q-6 11-16 21t-23 16-28 6m67-343q-10 0-17-6t-7-19q0-14 8-26t28-12q10 0 17 6t7 20q0 13-9 25t-27 12m96 343q-27 0-39-13t-10-33 9-48l40-124h-39q-6 0-8-5t1-15q3-10 8-15t10-5h41l32-99q3-10 8-13t15-3q15 0 19 4t1 15l-31 96h63q6 0 8 4t-1 16q-2 9-7 14t-11 6h-64l-48 145q-5 18-3 26t14 9q15 0 27-10t20-20q3-5 8-6t13 3q9 5 9 10t-2 11q-6 10-18 22t-27 20-38 8m227 1q-29 0-50-13t-31-34-11-50q0-27 10-58t30-56 50-42 69-16q22 0 38 7t26 19 9 32q0 19-10 36t-29 29-44 23-56 15-67 7l10-35q25-1 48-5t42-10 33-15 21-18 8-19q0-13-8-20t-26-6q-27 0-48 13t-34 33-20 43-7 42q0 18 7 31t18 20 27 7 27-5 22-13 21-18q6-6 13-5t12 6q7 6 8 13t-6 13q-17 18-33 28t-34 16-35 5m376-1q-19 0-32-7t-21-21-7-30q0-26 12-47t32-38 44-31 51-24l57-175q7-21 2-30t-19-9q-8 0-19 3t-23 13-30 24q-6 5-11 5t-12-7q-6-6-6-12t5-11q16-17 33-30t35-19 37-7q37 0 51 21t1 64l-50 153q30-11 60-23t60-24 60-24l17-52q12-36 24-61t29-37 41-12q21 0 34 8t20 23 7 31q0 21-12 39t-32 35-43 30-49 26l-53 161q-6 18-6 29t7 18 19 6q12 0 22-6t20-14 17-21q5-9 11-11t15 3q7 3 9 9t-3 16q-10 18-24 33t-32 24-37 9q-21 0-36-7t-23-21-9-33 8-44l43-131q-21 8-44 17t-46 19-46 18-44 17l-18 55q-12 37-24 61t-30 37-42 12m3-38q13 0 23-15t23-51l14-42q-16 7-30 16t-25 20-18 23-6 28q0 9 5 15t14 6m371-303l-11 31q15-7 28-15t24-18 17-20 6-23q0-9-5-16t-14-7q-13 0-23 15t-22 53m430 342q-11 0-22-3t-19-9-18-16-16-25-13-34q-3-9-6-19t-5-18-5-19-5-18-4-18-4-18q-13-2-20-10t-7-18q0-11 7-20t22-8q11 0 19 5t13 11q27-5 50-14t43-24 29-33 11-42q0-17-8-30t-23-20-35-12-46-4q-32 0-64 7t-60 21-54 37q-8 8-15 5t-13-9q-4-6-4-13t8-13q19-19 42-33t51-23 55-15 56-4q41 0 70 8t49 22 28 34 9 42q0 25-9 46t-25 38-38 30-47 21-53 15q2 7 3 14t4 14 3 13 4 14 4 14 5 14q6 19 11 32t11 22 11 14 11 7 12 2q13 0 25-10t31-32q6-7 12-8t15 7q5 6 6 11t-4 14q-10 15-24 28t-30 22-34 8m-306-1q-19 0-34-8t-26-20-14-25q-3-9-1-16t11-9q9-4 14-1t11 11 12 14 14 9 16 3q17 0 28-13t21-46l83-259q3-7 9-11t17-3q12 0 17 3t2 12l-81 254q-11 33-24 56t-32 37-43 12" />
</svg>