<svg id="fnt-Pompiere" viewBox="0 0 1376 1000" xmlns="http://www.w3.org/2000/svg"><path id="pompiere" class="f" d="M66 559q2 59 3 91 0 8-4 12t-9 4-9-4-4-12v-55l-1-76v-68q0-66-1-84t-1-27-1-19-2-19 1-13 5-5 6-2 12-3q30-7 53-7t40 5 27 18q25 25 25 72 0 64-45 117-36 42-95 75m-1-23q118-64 118-167 0-56-39-72-29-12-71 2-4 2-9 3-1 43-1 88v74q0 5 0 9t0 9 1 13 0 20q1 9 1 21m254-34q-8-6-19-6t-20 6-15 17q-12 22-12 59t12 55 32 18q22 0 35-25 12-22 12-55 0-50-25-69m-22 170q-14 0-26-6t-21-18q-20-27-20-77 0-44 21-70 20-24 52-24 27 0 45 23 18 25 18 69 0 48-21 77-19 26-48 26m145-100v18q0 12 2 61 0 11-10 15-3 1-6 1t-7-4-3-15 1-23 0-24q1-26 1-41 0-24-2-59 0-7 4-12t9-5 10 5 4 9-1 9 0 8q0 2 0 4 14-26 34-34 7-2 15-2t14 3 13 10q7 9 10 23 20-36 49-36 29 0 38 36 4 13 4 31v30q0 43 2 71 1 7-4 11t-8 5-6-1-5-3q-5-5-4-12t1-15 1-19q1-23 1-36t0-20 0-21-6-24-16-11-17 5-13 12q-10 15-13 39v17q0 42 2 73 0 7-5 11t-9 5-9-4-4-11 1-17 1-20q1-23 1-36v-20q0-7 0-13-1-20-7-30t-17-11-18 5-13 13q-10 16-15 39 0 6 0 10m265 100q0 16 0 33t3 75q0 9-10 12-2 1-5 1t-5-1-4-3q-4-4-3-14 2-33 2-97 0-115-3-177 0-8 4-13t10-5 9 4 3 11q-1 10-1 19 8-16 22-27 18-13 41-13t34 17 13 42-5 45-15 32-20 25-24 18q-24 15-46 16m0-112q-1 64 1 90 9 2 21-4 16-7 27-16t19-21q19-28 19-68 0-21-8-32t-21-11-22 6-18 15q-16 19-18 41m195-152q1 4 1 9t-3 10-5 6q-5 4-11 4t-9-1-7-4q-6-6-6-15t5-14q8-7 16-7 13 0 19 12m-8 92q-1 25-3 50t-1 44 1 41 0 24-3 5q-4 4-9 4t-9-3-3-15q3-31 3-63t-1-51-1-30 0-13 4-5q4-3 9-3t9 3 4 12m159 61q1-42-18-58-7-7-17-7t-18 4-12 11-9 15-5 17q-3 9-4 18l34 2q33 0 49-2m4 20l-88 1q1 34 13 52 12 19 36 19 21 0 31-21 6-14 15-14 4 0 7 3t2 9-5 15-12 14q-18 14-42 14-27 0-46-23-20-24-20-57t5-54 16-34q18-28 46-28 36 0 50 29 10 19 11 57 0 11-4 14t-15 4m171-90q0 13-13 15-17 3-37 27-22 27-24 52-1 12-1 21 0 22 2 46 0 9-4 13t-10 4-9-4-3-11 1-18 1-22q0-19 0-42 0-40-1-59t1-22 3-5q4-3 9-3t9 3 4 10-1 11-2 13q-1 13-2 28 10-25 28-46 21-24 36-24 7 0 10 4t3 9m124 70q0-42-18-58-8-7-18-7t-17 4-13 11-8 15-6 17q-2 9-3 18l33 2q33 0 50-2m4 20l-88 1q0 34 12 52 13 19 36 19 21 0 31-21 6-14 15-14 4 0 7 3t3 9-5 15-13 14q-17 14-42 14-27 0-46-23-20-24-20-57t6-54 15-34q18-28 46-28 36 0 50 29 10 19 11 57 0 11-3 14t-15 4" />
</svg>