<svg id="fnt-Poppins" viewBox="0 0 1965 1000" xmlns="http://www.w3.org/2000/svg"><path id="poppins" class="f" d="M272 420q0 44-30 72t-91 29h-67v146h-45v-349h112q59 0 90 29t31 73m-121 64q38 0 56-17t18-47q0-64-74-64h-67v128h67m297 187q-39 0-70-17t-49-50-18-75q0-42 18-74t50-50 71-17 70 17 50 50 18 74-19 75-50 50-71 17m0-40q24 0 46-11t34-35 14-56-13-56-34-34-46-11q-25 0-46 11t-33 34-12 56q0 34 12 57t33 34 45 11m246-188q13-23 40-39t62-16q37 0 66 18t47 49 17 74q0 41-17 74t-47 50-66 18q-35 0-62-16t-40-39v181h-46v-404h46v50m186 86q0-31-13-54t-34-35-46-12q-25 0-47 12t-34 35-12 54q0 31 12 54t34 36 47 12q25 0 46-12t34-36 13-54m152-86q13-23 40-39t62-16q37 0 66 18t47 49 17 74q0 41-17 74t-47 50-66 18q-35 0-62-16t-40-39v181h-46v-404h46v50m186 86q0-31-13-54t-34-35-46-12q-25 0-47 12t-34 35-12 54q0 31 12 54t34 36 47 12q25 0 46-12t34-36 13-54m130-181q-13 0-22-9t-9-22 9-22 22-9q12 0 21 9t9 22-9 22-21 9m-24 45h46v274h-46v-274m257-5q50 0 81 30t31 87v162h-45v-155q0-41-21-63t-56-22q-36 0-57 23t-21 65v152h-46v-274h46v39q13-21 36-33t52-11m283 283q-31 0-56-11t-40-30-16-44h47q2 21 19 34t46 13q26 0 41-12t15-29q0-18-16-27t-50-17q-30-8-50-16t-33-25-13-42q0-21 12-39t36-28 52-10q46 0 74 23t30 63h-46q-1-21-17-34t-42-13q-25 0-39 10t-15 28q0 13 9 22t22 14 37 12q29 8 48 15t31 24 14 40q0 23-12 41t-36 28-52 10" />
</svg>