<svg id="fnt-Potta One" viewBox="0 0 2785 1000" xmlns="http://www.w3.org/2000/svg"><path id="potta-one" class="f" d="M257 269q37 6 58 20t33 33 13 36 3 30q0 16-5 37t-19 40-33 34-53 18q-5 0-14 1t-15 0-8 1q-19 1-35 11t-25 25-10 36v18q0 13 4 24t5 15q-12 11-21 15t-22 7q-11 1-25-2t-23-14-14-27q0-3 0-19t0-41 0-53 1-58 0-54q-1-27-3-45t-7-24q-11-9-17-28t-5-36q2 1 11 1t19 2q5 0 17 0t25-1 27-2 21-1q11-1 29-2t41-1 47 4m-60 156q7 1 18-1t22-6 19-11 7-18q0-14-11-22t-26-11-29-3q-20 1-35 11t-14 26q0 9 7 17t19 13 23 5m484 89q5 42-6 72t-33 50-47 28-52 10q-26 0-52-10t-47-28-32-50-7-72q5-38 23-67t48-46 65-19q2 0 4-3t8-5 18-1q28 8 52 27t39 49 19 65m-143 80q16 0 28-8t18-19 10-25 4-23q0-22-7-34t-32-21q-7-3-10-8t-7-6q-17-2-28 9t-18 30-6 40 8 36 20 21 20 8m397-205q5 5 7 18t2 29-8 29-18 17q-20 7-29 25t-10 46v42q1 8 6 13t12 7 6 2-2 7-6 17-13 18-22 12q-7 2-19 1t-24-5-20-11q-4-4-7-8t-5-14-1-25v-54q0-29-12-48t-32-33q-9-7-13-22t-4-31-1-28q3 1 14 2t19 2q16-1 22-13t6-30l-1-44q5-1 15-2t24 1 25 4 21 12 11 22q0 1 0 3t0 6h1q0 6 1 15t6 15q3 5 11 7t14 3 11-1q6-1 8-3t5-3m252 0q5 5 7 18t2 29-8 29-18 17q-20 7-29 25t-10 46v42q1 8 6 13t12 7 6 2-2 7-6 17-13 18-22 12q-7 2-19 1t-24-5-20-11q-4-4-7-8t-5-14-1-25v-54q0-29-12-48t-32-33q-9-7-13-22t-4-31-1-28q3 1 14 2t19 2q16-1 22-13t6-30l-1-44q5-1 15-2t24 1 25 4 21 12 11 22q0 1 0 3t0 6h1q0 6 1 15t6 15q3 5 11 7t14 3 11-1q6-1 8-3t5-3m310 187q1 11 2 27t6 31 16 24q-12 9-25 12t-26 2q-3-1-7-2t-11-3q-12-4-27-2t-33 5-32 4q-26 0-52-10t-47-28-32-50-7-72q3-29 17-53t33-42 42-28 43-9q16 1 25 1t23 3q8 1 21-3t26-8 23-4q15 0 21 1t10 2q-3 9-5 27t-3 41-1 47-1 47 1 40m-188-46q1 25 9 39t20 19 23 6q22 0 33-17t10-49q0-8-2-20t-6-22-12-19-18-7q-23 0-41 17t-16 53m838-78q5 47-4 83t-29 62-45 43-55 25-58 8-58-7-56-24-46-41-29-61-4-82q4-40 20-75t41-60 59-40 70-13q3 0 8-4t13-7 21-3q22 2 47 19t48 43 38 62 19 72m-189 129q17-1 33-5t28-17 20-34 9-56q0-24-11-47t-30-38-45-18q-27-3-46 5t-31 24-19 35-8 40q-3 34 7 56t25 34 34 17 34 4m503 22q1 22 7 31t6 9-9 6-23 13-32 6q-27 0-35-14t-8-38q0-4 0-17t1-31 0-32-2-21q-6-20-22-17-12 1-23 14t-18 30-7 33q0 8-1 16t-1 14q-1 5 1 11t7 11q-4 6-14 15t-22 17-20 9q-8 1-19-5t-19-16-8-27q0-4 0-18t1-35 0-44 1-44 0-37q0-14-4-27t-6-21-3-8q4-1 15-1t26 0 27 5 24 11q10 7 20 9t16-2q18-11 36-20t35-10q8-1 20 0t22 8 20 17 10 28q4 29 2 71t-1 101m305-62q13 9 16 24t-1 35-18 35-38 28-57 11q-28 1-55-7t-49-23-35-40-15-58q0-7 0-15t1-15q0-2 0-4t1-4q5-30 21-55t39-43 49-26 52-5q39 4 61 21t28 41 1 54q-4 14-16 27t-30 25-39 16-39 5q-9 0-10 6t6 13 16 10q23 5 44 0t32-13q9-7 19-19t16-24m-109-50q11-1 20-8t9-13q0-10-5-16t-18-6q-14 1-27 4t-15 15q-2 7 4 13t15 8 17 3" />
</svg>