<svg id="fnt-Pragati Narrow" viewBox="0 0 2514 1000" xmlns="http://www.w3.org/2000/svg"><path id="pragati-narrow" class="f" d="M73 667h-41v-315h113q46 0 70 24t24 67-25 68-69 26h-72v130m0-167h71q24 0 38-16t15-41q0-26-14-40t-39-15h-71v112m284-81q6 0 11 2t6 2v39h-12q-20 0-32 14t-13 43v148h-38v-242h29l5 32h3q5-16 15-27t26-11m123 0q36 0 55 18t18 50v136q0 7 4 11t8 5h16v26q-10 5-25 5-15 0-25-8t-13-21h-3q-9 15-25 23t-34 8q-24 0-44-14t-19-54q0-46 31-64t91-17v-31q0-19-8-29t-30-10q-20 0-29 11t-8 27v6h-37q-1-3-1-11 0-32 21-49t57-18m35 138q-41 0-62 9t-21 36q0 20 8 28t25 9q20 0 35-16t15-44v-22m272-171q0 22-11 37t-29 21q21 23 21 57 0 37-21 59t-56 22h-25q-10 0-16 6t-6 16 6 15 16 6h69q25 0 41 17t16 40q0 30-19 49t-52 19h-69q-28 0-44-16t-16-41q0-18 9-32t23-20q-9-6-15-16t-5-20q0-14 9-25t25-17q-13-10-21-26t-7-36q0-38 21-60t58-22q19 0 35 9 15-8 22-18t8-24h33m-98 65q-20 0-30 13t-11 37q0 24 10 37t31 13 30-14 11-36q0-24-11-37t-30-13m-30 210q-14 0-22 8t-7 20 8 21 21 8h66q12 0 20-9t9-20q0-12-8-20t-21-8h-66m240-242q36 0 55 18t18 50v136q0 7 4 11t8 5h16v26q-10 5-25 5-15 0-25-8t-13-21h-3q-9 15-25 23t-34 8q-24 0-44-14t-19-54q0-46 31-64t91-17v-31q0-19-8-29t-30-10q-20 0-29 11t-8 27v6h-37q-1-3-1-11 0-32 21-49t57-18m35 138q-41 0-62 9t-21 36q0 20 8 28t25 9q20 0 35-16t15-44v-22m169-132v34h-32v158q0 10 5 16t16 6h11v26q-5 3-12 4t-15 2q-23 0-33-16t-10-39v-157h-21v-34h21l8-67h30v67h32m31-45v-46h38v46h-38m0 287v-242h38v242h-38m405 0h-33l-118-201q-5-8-12-23t-9-20l-1 1q0 5 1 17t1 25v201h-37v-315h35l117 198q5 7 11 22t9 20l1-1-1-41v-198h36v315m135-248q36 0 55 18t18 50v136q0 7 4 11t8 5h16v26q-10 5-25 5-15 0-25-8t-13-21h-3q-9 15-25 23t-34 8q-24 0-44-14t-19-54q0-46 31-64t91-17v-31q0-19-8-29t-30-10q-20 0-29 11t-8 27v6h-37q-1-3-1-11 0-32 21-49t57-18m35 138q-41 0-62 9t-21 36q0 20 8 28t25 9q20 0 35-16t15-44v-22m177-138q6 0 11 2t6 2v39h-12q-20 0-32 14t-13 43v148h-38v-242h29l5 32h3q5-16 15-27t26-11m125 0q6 0 11 2t7 2v39h-13q-19 0-32 14t-12 43v148h-38v-242h28l6 32h2q5-16 15-27t26-11m126 0q86 0 86 127 0 126-86 126-87 0-87-126 0-127 87-127m0 34q-48 0-48 84v17q0 85 48 85 47 0 47-85v-17q0-41-12-63t-35-21m273 214l-25-138q-3-16-5-33t-2-23h-2q-1 5-3 22t-4 34l-25 138h-42l-60-242h41l31 136q3 12 5 32t4 25h2q0-5 2-22t5-35l25-136h43l25 136q3 19 5 35t3 22h1q1-5 3-22t7-35l30-136h39l-61 242h-42" />
</svg>