<svg id="fnt-Praise" viewBox="0 0 1091 1000" xmlns="http://www.w3.org/2000/svg"><path id="praise" class="f" d="M83 679q-4-2-11-3t-12-3q-10-5-15-16t-4-24q0-20 6-44t16-50 20-47 19-38 11-20q9-14 22-20t28-6q34 0 29 6-11 12-21 30t-20 38-16 34q-4 6-7 13t-6 14q2 2 9 2t12 1q12 0 26-12t27-33 21-41 8-41-10-32-36-12q-16 0-38 6t-41 16-36 28-19 40q-2-1-10-3t-16-8-7-13q0-26 23-44t61-28 88-9q51 0 75 19t24 49q0 24-15 50t-38 47-55 30q-6 2-19 4t-22 2q-6 0-11-1t-7-3q-13 33-22 61t-9 44q0 8 3 12 1 1 1 3 0 4-6 2m253-8q-25 0-35-15t-10-32q0-17 7-37t17-41 21-40 19-34q-5 1-10 2t-10 1q-12 0-20-4-1 2-2 4t-1 3q-11 29-24 57t-22 45q-7 11-12 11-4 0-4-6 0-4 2-7 10-19 23-48t25-59q0-1 1-4t1-5q-6-8-6-21 0-8 4-17t14-8q6 0 10 4t5 13q0 10-7 22 1 3 7 5t12 2q7 0 13-2t10-6q4-6 15-6 9 0 20 5 6 3 10 8t4 15q0 15-13 38-14 26-29 56t-22 54q-2 6-2 12 0 11 7 11 7 0 15-9t18-22q11-16 20-34t13-25q1-3 4-3t6 3 1 8q-7 13-18 34t-26 40q-11 14-23 23t-28 9m107-1q-24 0-34-12t-10-28q0-18 7-39t15-38 14-27q21-38 47-56t60-17q11 0 27 1t31 1q8 0 16-1t14 0h2q9 0 9 3 0 2-6 4-7 3-16 17t-18 34-18 41q-5 11-12 30t-11 40q-1 3-1 6t0 5q0 13 6 13 8 0 17-9t16-20q7-11 14-24t13-24 8-16q1-3 4-3 3 0 5 4t1 9q-10 18-21 39t-24 38q-22 29-51 29-22 0-32-14t-10-32q0-9 1-17-5 9-13 23t-19 26-22 13q-2 0-4 0t-5 1m19-26q5 0 13-9t17-23 15-27q2-4 7-18t13-31 15-35 13-32q1-1 1-3 0-3-3-3t-7 2-8 5q-6 5-17 20t-21 37-21 43-17 39-6 27q0 8 6 8m200 27q-18 0-32-11t-15-33q0-16 5-36t14-43 16-40 16-31q11-17 25-21t34-4q14 0 24 3t3 7q-10 7-25 29t-29 51q-4 8-10 21t-12 28-9 28-4 22q0 12 11 12 12 0 27-11 7-6 13-13t11-14q10-13 18-29t16-30q1-3 4-3 3 0 6 4t0 7q-7 15-18 35t-26 38q-12 14-28 24t-35 10m72-244q-9 0-14-6t-5-15q0-12 6-21t15-16 19-6q8 0 13 6t5 14q0 11-6 21t-15 16-18 7m68 243q-30 0-50-18t-20-50q0-11 2-23t8-20 15-9q5 0 8 4 6-12 13-23t14-24q8-13 18-29t25-28 31-13q2-1 4-1t4 0q6 0 12 1t9 1q1 0 1 3t-2 2q-2 0-8 3t-7 13q-1 35-5 70t-9 58q-3 12-10 26t-15 25-19 15q10 0 21-6t21-15 15-16q11-16 20-33t14-27q1-2 3-2 3 0 5 3t2 6q0 1-1 2t0 2q-9 18-20 36t-25 34-32 24-42 9m-32-31q5 0 11-4t9-11q7-16 13-38t11-43 7-38 5-24q-7 9-18 26t-21 33-14 26q0 12-9 21t-17 18v6q0 2 0 5t1 5q3 8 9 13t13 5m198 35q-37 0-53-16t-16-44q0-20 8-45 7-20 18-41t25-38 32-29 37-10q25 0 41 7t16 26q0 13-11 32-14 27-41 45t-60 20q-8 20-9 33-1 3-1 5t0 5q0 16 8 23t18 8q21 0 36-11t27-26 21-32q5-9 8-17t6-11q2-4 5-4t6 3 0 7q-6 13-18 35t-26 38q-16 19-34 28t-43 9m6-117l-4 9q23-8 40-30t23-49q1-2 1-4t0-4q0-10-6-10-5 0-10 7-8 9-17 25t-16 32-11 24" />
</svg>