<svg id="fnt-Prosto One" viewBox="0 0 3124 1000" xmlns="http://www.w3.org/2000/svg"><path id="prosto-one" class="f" d="M35 317h180q38 0 67 8t51 24 31 38 11 52-11 52-31 38-51 24-67 9h-107v105h-73v-350m180 37h-107v170h107q40 0 61-21t22-64-22-64-61-21m403 53v35h-60q-34 0-52 18t-18 54v153h-70v-153q0-51 32-79t93-28h75m165 237q16 0 30-6t24-19 17-33 6-49-6-50-17-33-24-19-30-6-30 6-25 19-17 33-6 50 6 49 17 33 25 19 30 6m0-247q33 0 61 9t49 27 31 44 11 60q0 34-11 60t-31 43-49 27-61 10q-34 0-62-10t-48-27-32-43-11-60q0-34 11-60t32-44 48-27 62-9m270 65q0 11 10 21t35 16l77 23q36 10 56 28t19 47q0 18-7 32t-25 26-44 16-66 6q-21 0-41-3t-37-9-32-12-25-14l20-30q21 13 49 23t66 10 52-10 15-25q0-12-10-21t-37-17l-78-22q-32-10-52-28t-20-47q0-16 7-30t23-24 39-16 58-5q42 0 75 11t55 26l-20 30q-20-13-46-23t-64-9q-26 0-39 8t-13 22m260 110v-130h-48v-35h48v-80h70v80h77v35h-77v130q0 19 4 32t11 21 17 13 20 4q15 0 29-5t24-10l15 32q-15 8-35 13t-38 5q-56 0-87-28t-30-77m355 72q16 0 30-6t24-19 17-33 6-49-6-50-17-33-24-19-30-6-30 6-25 19-17 33-6 50 6 49 17 33 25 19 30 6m0-247q33 0 61 9t49 27 31 44 11 60q0 34-11 60t-31 43-49 27-61 10q-34 0-62-10t-48-27-32-43-11-60q0-34 11-60t32-44 48-27 62-9m575-55q-26 0-48 9t-39 27-26 47-10 67 10 66 26 47 39 28 48 9 47-9 39-28 26-47 10-66-10-67-26-47-39-27-47-9m0-35q45 0 81 12t63 35 41 58 15 80-15 79-41 58-63 36-81 12-82-12-64-36-40-58-14-79 14-80 40-58 64-35 82-12m535 202v158h-70v-158q0-36-18-52t-52-15h-65v225h-70v-260h135q71 0 105 25t35 77m217 133q25 0 46-9t42-24l20 30q-10 9-23 16t-27 11-31 8-32 3q-35 0-65-10t-49-27-32-43-11-60q0-34 10-60t30-44 46-27 59-9q30 0 56 9t46 26 31 42 12 55v35h-214q6 42 29 60t57 18m-17-213q-15 0-27 6t-22 17-15 31-6 46h140q0-26-6-45t-16-31-23-18-25-6" />
</svg>