<svg id="fnt-Protest Guerrilla" viewBox="0 0 3497 1000" xmlns="http://www.w3.org/2000/svg"><path id="protest-guerrilla" class="f" d="M125 377h-97l-28-70h144q45 0 75 12t44 41 14 79q0 68-31 98t-96 32v-76q11-5 17-19t6-36q0-25-5-38t-14-18-29-5m-97 290v-265h97v265h-97m386-201v-79q23-16 58-9v84q-14 0-29 1t-29 3m-19-48v249h-90v-288h76l14 39m230 253v-73q18-12 18-74 0-64-18-75v-73q60 2 86 37t25 110-25 110-86 38m-25-73v73q-60-3-85-38t-26-110 26-110 85-37v73q-9 6-14 24t-4 51q0 63 18 74m333-151h-182v-68h38v-63h90v63h54v68m-144 134v-114h90v104q0 14 7 21t23 6q8 0 14-1t10-1v66q-12 4-25 7t-27 3q-46 0-69-20t-23-71m296 91q-29 0-54-7t-41-23-27-45-10-74q0-70 25-108t81-40v74q-11 17-11 72 0 33 5 50t19 24 41 7q11 0 23-2t24-5v68q-17 4-37 6t-38 3m83-121h-95v-56h16q0-11-1-24t-5-22v-73q48 4 69 34t21 85q0 14-1 29t-4 27m128-76l6 4-46 72-19-13q-23-15-34-33t-10-47q0-42 24-62t81-21q21 0 38 2t29 4 11 2l-8 66t-7-1-20-2-24-1q-18 0-26 3t-8 11q0 5 3 8t10 8m-16 91l-3-2 46-71 17 10q24 16 34 33t11 46q0 45-26 67t-83 23q-26 0-47-3t-39-7l8-68t18 2 49 3q28 0 28-16 0-9-13-17m302-119h-182v-68h37v-63h90v63h55v68m-145 134v-114h90v104q0 14 7 21t24 6q8 0 14-1t10-1v66q-12 4-26 7t-26 3q-46 0-70-20t-23-71m395-105h-105q2-62 23-100t57-56 84-17q17 0 36 3t39 7l-9 82q-16-3-28-5t-24-2q-24 0-40 8t-24 26-9 54m61 196v-115l-28-68h118v161q-16 10-40 15t-50 7m-25-86v85q-42-2-74-20t-48-55-19-95h105q1 38 9 58t27 27m252 14v65q-17 6-32 6-35 0-58-22t-22-64v-206h90v191q0 27 22 30m33 67l-13-39v-249h90v288h-77m239 5q-30 0-54-7t-42-23-27-45-9-74q0-70 25-108t80-40v74q-11 17-11 72 0 33 5 50t19 24 41 7q12 0 24-2t24-5v68q-18 4-37 6t-38 3m83-121h-96v-56h17q0-11-1-24t-5-22v-73q47 4 68 34t21 85q0 14-1 29t-3 27m141-85v-79q23-16 58-9v84q-14 0-29 1t-29 3m-19-48v249h-90v-288h76l14 39m213 48v-79q23-16 58-9v84q-14 0-29 1t-29 3m-19-48v249h-90v-288h77l13 39m105 249v-288h90v288h-90m-3-310v-68h95v68h-95m223-68v378h-90v-366l90-12m130 0v378h-90v-366l90-12m160 335v-154q0-14-10-20t-26-5q-19 0-36 4t-35 10v-70q22-5 46-10t49-4q28 0 51 7t37 24 14 50v211h-78l-12-43m-25-19v61q-13 6-28 6-20 0-38-11t-28-29-11-47q0-42 29-65t76-22v53q-8 3-13 9t-5 16q0 12 5 19t13 10" />
</svg>