<svg id="fnt-Proza Libre" viewBox="0 0 2647 1000" xmlns="http://www.w3.org/2000/svg"><path id="proza-libre" class="f" d="M101 347v320h-48v-358h98q28 0 52 7t43 21 28 35 10 48q0 19-5 35t-14 30-22 24-26 18-29 10-31 4q-3 0-7 0t-8-1l4-37q4 1 7 1t6 0q16 0 30-4t24-15 16-25 6-35q0-20-6-35t-19-25-29-14-39-4h-41m250 320v-259h36l7 77q3-6 7-12t7-13 7-11 6-9q6-8 12-15t15-11 16-8 19-3q7 0 14 2t10 5l-5 43q-4-1-8-1t-9-1q-17 0-30 6t-23 15-18 23-17 28v144h-46m309 5q-29 0-52-11t-38-27-23-41-8-48q0-30 10-55t29-46 44-30 55-11q29 0 52 10t38 28 23 41 8 48q0 30-10 56t-29 45-44 30-55 11m10-38q18 0 32-7t25-19 16-30 6-36q0-20-6-38t-16-32-26-23-34-9q-18 0-33 7t-25 20-16 30-6 36q0 20 6 38t16 32 26 23 35 8m180 33v-19l116-169 24-31v-5l-46 2h-89l10-37h183v18l-115 166-26 35v4l43-1h106l-10 37h-196m415-39q-6 5-15 13t-19 14-24 12-27 5q-13 0-25-5t-22-13-15-23-6-30q0-10 2-21t9-21 16-18 24-15 35-10 45-4h22v-23q0-11-4-20t-11-15-16-10-22-4q-8 0-18 2t-20 6-19 8-16 11l-4-2-10-36q14-8 27-13t26-8 23-4 21-1q45 0 67 19t23 57v127q0 3 0 8t2 8 6 8 9 2q4 0 9-1t12-3v25q-12 9-24 14t-23 5q-10 0-16-4t-11-11-7-14-4-15m0-31v-57h-18q-29 0-46 4t-26 11-12 15-2 19q0 10 3 18t8 14 12 9 16 2q7 0 14-1t15-6 16-11 20-17m450 70h-188v-358h47v320h148l-7 38m70 0v-259h46v259h-46m23-315q-6 0-11-2t-10-7-6-9-2-11 2-12 7-10 9-7 12-2q6 0 11 2t9 7 6 10 3 11q0 7-3 12t-6 10-10 6-11 2m110 303v-379h46v174q11-10 22-19t23-15 24-9 26-4q24 0 42 10t32 28 20 40 7 47q0 30-10 56t-30 45-48 31-66 12q-19 0-42-4t-46-13m46-174v141q15 6 30 9t27 3q23 0 40-8t28-21 17-31 6-37q0-18-5-35t-14-30-23-22-31-8q-16 0-34 8t-41 31m266 186v-259h36l8 77q3-6 6-12t7-13 7-11 7-9q5-8 12-15t14-11 17-8 19-3q7 0 13 2t10 5l-4 43q-5-1-9-1t-8-1q-18 0-31 6t-23 15-18 23-16 28v144h-47m408-49v27q-9 6-21 11t-25 9-26 5-24 2q-25 0-48-9t-39-24-27-40-10-55q0-32 11-58t28-45 41-28 49-10q21 0 39 7t31 21 21 35 8 48q0 6-1 14t-2 16h-177q0 21 8 38t21 27 32 18 42 5q5 0 13 0t18-2 19-4 19-8m-172-103h136q0-18-6-32t-13-24-21-14-25-5q-14 0-27 6t-23 16-15 24-6 29" />
</svg>