<svg id="fnt-PT Sans" viewBox="0 0 1639 1000" xmlns="http://www.w3.org/2000/svg"><path id="pt-sans" class="f" d="M43 667v-347q19-4 41-6t43-1q23 0 47 4t43 17 32 33 12 53q0 32-11 54t-31 36-43 20-51 6q-2 0-8 0t-12-1-12 0-9-1v133h-41m85-318q-13 0-25 0t-19 3v145q3 1 8 1t12 0 11 1 8 0q17 0 34-4t30-11 22-24 8-40q0-20-8-34t-20-22-29-12-32-3m412-32v37h-109v313h-41v-313h-109v-37h259m323 261q0-21-12-35t-32-23-40-19-41-22-31-32-13-47q0-41 29-65t81-24q30 0 55 4t39 12l-12 36q-12-5-34-10t-50-5q-33 0-50 14t-16 35q0 20 12 33t31 23 41 20 41 23 31 32 13 46q0 23-8 41t-24 31-37 20-50 7q-38 0-62-6t-38-13l14-37q11 6 34 12t50 7q17 0 31-4t25-10 17-18 6-26m112-113l-12-30q19-11 44-17t53-5q26 0 41 7t24 18 11 25 3 27q0 30-1 58t-2 54q0 19 2 35t5 31h-29l-11-35h-2q-5 7-12 13t-16 12-22 9-28 4-30-5-24-15-16-22-5-29q0-22 9-37t25-24 39-12 50-4q7 0 14 0t14 1q1-15 1-27 0-27-11-38t-40-11q-8 0-18 1t-20 3-20 6-16 7m59 171q14 0 25-4t19-10 13-12 8-14v-41q-7-1-15-1t-14 0q-15 0-30 1t-26 7-18 13-7 21q0 17 13 28t32 12m381 31h-40v-143q0-39-11-59t-41-19q-27 0-44 14t-24 36v171h-40v-250h28l7 30h2q12-16 32-26t49-10q20 0 36 4t25 17 16 32 5 52v151m183-68q0-15-9-24t-22-14-29-11-29-14-22-21-9-35q0-36 20-53t57-16q27 0 45 4t32 12l-9 33q-12-6-28-10t-35-4q-22 0-32 7t-10 26q0 13 9 20t22 13 29 12 29 14 22 23 9 36q0 16-5 30t-16 24-28 16-38 6q-28 0-48-6t-34-13l12-34q12 7 30 12t38 6q21 0 35-9t14-30" />
</svg>