<svg id="fnt-PT Serif" viewBox="0 0 1791 1000" xmlns="http://www.w3.org/2000/svg"><path id="pt-serif" class="f" d="M104 530v110q13 2 25 5t23 7v15h-137v-15q10-5 20-7t21-5v-296q-12-2-22-6t-19-7v-14h45q20 0 43-2t45-2q25 0 48 5t42 18 29 33 12 52q0 29-12 50t-31 35-43 19-51 7q-2 0-8 0t-11-1-11 0-8-1m34-191q-12 0-20 0t-14 2v162q2 1 7 1t10 1 10 1 8 0q18 0 33-5t27-15 19-27 7-38q0-41-23-62t-64-20m385 313v15h-140v-15q11-4 22-7t24-5v-297h-76l-27 71h-12q-2-10-3-23t-2-26-1-26 0-22h290q0 10 0 22t-2 26-1 26-2 23h-13l-26-71h-77v297q13 3 24 5t22 7m261-93l20 73q6 6 16 10t28 5q16 0 30-5t24-12 17-20 6-27q0-20-13-33t-30-24-40-21-40-24-30-33-12-48q0-21 7-37t21-28 33-18 43-6q30 0 55 4t40 12q0 9-1 20t-3 23-4 23-4 20h-13l-20-68q-9-4-23-6t-29-2q-25 0-41 14t-15 40q0 20 12 34t31 25 39 21 40 24 31 32 12 46q0 23-8 41t-24 32-38 20-51 7q-31 0-56-8t-36-16q1-8 2-20t3-25 4-25 4-20h13m429 65l7 8q-4 8-12 16t-20 13-24 8-26 4q-30 0-52-10t-38-26-23-41-7-54q0-64 29-98t84-33q17 0 34 4t30 16 22 29 8 46q0 8-1 17t-2 19h-156q0 21 5 39t16 32 26 21 38 8q17 0 35-5t27-13m-84-191q-29 0-44 19t-18 68h110q1-5 1-9t0-8q0-32-12-51t-37-19m308 21h-66q-6 3-14 12t-15 28v148q10 1 20 4t20 8v13h-118v-13q9-5 17-7t16-5v-196l-33-4v-13q16-7 33-12t33-6h12v53h2q5-10 13-20t19-18 23-13 27-2q3 6 6 14t5 16v13m135 200v13h-111v-13q8-4 16-7t17-5v-196l-33-4v-13q15-6 32-11t34-7h12v231q10 3 18 5t15 7m-87-322q0-14 8-22t24-8 23 8 8 22-8 21-23 8-24-8-8-21m259-41q5 0 11 0t12 1 13 2 10 3q-1 17-4 31t-7 26h-12l-22-43q-15 0-25 3t-17 11-10 25-3 42v25h57v25h-57v200q26 3 48 12v13h-126v-13q15-9 33-12v-200h-38v-13q17-11 38-17v-17q0-31 7-52t21-32 32-16 39-4" />
</svg>