<svg id="fnt-Puppies Play" viewBox="0 0 1593 1000" xmlns="http://www.w3.org/2000/svg"><path id="puppies-play" class="f" d="M99 710q-3 0-4-2-34-40-34-114 0-11 0-23t3-24q9-76 61-130-49 2-78 19-39 21-39 61 0 12 19 29 1 1 1 2 0 2-2 5-3 3-5 3-1 0-2-1-24-19-24-40 0-42 44-66 23-12 47-16t50-5q8-6 16-11t16-8l2-1q1 0 2 0t2 1q4 0 4 0 0 1-3 3-8 5-20 16 57 4 83 28 23 20 23 52 0 39-32 71-34 34-81 34-20 0-31-12-11-11-11-26 0-14 9-24 10-10 28-10 7 0 12 6t5 14q0 3-1 3-1 1-1 1t-2-2q-1-6-5-10-4-5-8-5-13 0-22 9-7 9-7 19 0 12 8 20 10 9 26 9 40 0 67-27 25-24 25-59 0-31-22-53-26-25-72-28-55 59-64 130-3 22-3 42 0 41 11 72 8 26 20 40l0 1v1q0 2-3 4-4 2-8 2m238-7q-2 0-6-3-11-10-18-26t-5-36l1-10q0-3 0-8t2-11q-10 25-18 37-9 12-16 17-7 5-14 5-13 0-20-20-2-5-2-18 0-10 1-21t3-23q2-11 4-20t4-12q2-6 11-6 4 0 10 2 4 3 4 8 0 2-2 5l-7 13q-1 3-3 6t-3 7q-6 12-8 24t-3 26q0 18 11 18 8 0 19-11 10-12 16-28 12-31 12-48 0-12 13-12 5 0 9 3 4 2 4 7l-1 5q-6 13-9 29t-4 33q0 1 0 3v4q0 38 16 53 3 2 3 5 0 3-4 3m35 81q-2 0-2 0-19-3-19-37 0-7 1-16t2-17q5-27 12-55t17-55q-5-12-10-23t-10-18q-2-4-2-6 0-4 3-7 4-3 7-3h0q0 0 1 0h0q6 7 10 15t10 22q14-21 28-30t31-9q22 0 31 12t9 34q0 10-3 23-5 25-19 39-11 11-26 11-11 0-18-6-7-7-7-19 0-2 3-2t3 2q1 18 18 18 12 0 21-12 11-15 11-41 0-19-7-29-8-13-21-13-24 0-48 39 5 20 8 40t3 42q0 12-1 22t-2 21q-4 19-11 35-10 23-23 23m-1-5h1q5 0 10-6 4-7 8-20 6-16 8-32 1-7 1-14t1-13q0-35-12-76-10 23-16 46t-10 51q-2 12-3 21t-1 14q0 13 3 20t10 9m148 5q-2 0-2 0-19-3-19-37 0-7 1-16t2-17q5-27 12-55t17-55q-5-12-10-23t-10-18q-2-4-2-6 0-4 3-7 4-3 7-3h0q0 0 1 0h0q6 7 10 15t10 22q14-21 28-30t31-9q22 0 31 12t9 34q0 10-3 23-5 25-19 39-11 11-26 11-11 0-18-6-7-7-7-19 0-2 3-2t3 2q1 18 18 18 12 0 21-12 11-15 11-41 0-19-7-29-8-13-21-13-24 0-48 39 5 20 8 40t3 42q0 12-1 22t-2 21q-4 19-11 35-10 23-23 23m-1-5h1q5 0 10-6 4-7 8-20 6-16 8-32 1-7 1-14t1-13q0-35-12-76-10 23-16 46t-10 51q-2 12-3 21t-1 14q0 13 3 20t10 9m205-276q-5 0-10-4t-4-10q0-6 4-10t10-4q6 0 10 4t4 10q0 6-4 10t-10 4m-36 150q-2 0-4-1t-3 0q-10-2-15-13t-5-30q0-16 10-42 5-14 11-21 5-6 11-6 3 0 5 2 1 1 1 3 0 3-2 7l-4 9q-1 3-2 6t-3 7q-13 30-13 44 0 9 4 16 6 8 15 8 11 0 24-15 4-5 7-12t6-11q1-3 3-3 3 0 2 5-3 7-7 14t-7 12q-16 21-34 21m87 16q-26 0-40-18t-14-44q0-31 16-52 12-16 30-22 5-1 8-2t8 0q13 0 20 7t8 18q0 12-11 25-5 6-13 9t-17 4q-8 0-16-4t-11-10q-3 5-4 11t-1 15q0 20 9 37t30 16q19 0 29-11t10-21q0-8-6-11-3-2-3-4 0-3 3-3 5 0 9 5t5 14q0 20-15 30t-34 11m-4-86q5 0 11-2t9-6q7-9 7-18 0-7-3-11t-11-5h-3q-13 0-21 8-9 8-13 20 0 6 7 10t17 4m96 104q-13 0-22-8t-8-21 7-23 18-10q4 0 4 4 0 2-5 2-7 0-11 9t-5 15q0 8 7 13t14 6q17 0 23-11t7-26q0-8-2-16t-3-16q-2-6-6-14t-10-16-9-12q-6 14-13 29t-13 28q0 1-2 1-4 0-3-4 2-3 4-7t4-9l11-24q3-5 5-11t4-10q-8-10-8-25 0-7 3-12t9-4q4 0 7 4 4 5 3 17-1 2-3 8t-2 9q0 2 4 8t9 13 7 9q9 12 14 27t6 30q0 18-10 33t-35 14m230 23q-3 0-4-2-34-40-34-114 0-11 0-23t3-24q9-76 61-130-49 2-78 19-39 21-39 61 0 12 19 29 1 1 1 2 0 2-2 5-3 3-5 3-1 0-2-1-23-19-23-40 0-42 43-66 23-12 47-16t50-5q8-6 16-11t16-8l2-1q1 0 2 0t2 1q4 0 4 0 0 1-3 3-8 5-20 16 57 4 83 28 23 20 23 52 0 39-32 71-34 34-81 34-20 0-31-12-11-11-11-26 0-14 9-24 10-10 28-10 7 0 12 6t5 14q0 3-1 3-1 1-1 1t-2-2q-1-6-5-10-4-5-8-5-13 0-22 9-7 9-7 19 0 12 8 20 10 9 26 9 40 0 67-27 25-24 25-59 0-31-22-53-26-25-72-28-55 59-64 130-3 22-3 42 0 41 11 72 8 26 20 40l0 1v1q0 2-3 4-4 2-8 2m185-44q-12 0-21-8-19-16-19-65 0-16 3-33t8-34q11-38 31-66 13-18 29-18 11 0 19 10 7 10 7 28v7q0 2 0 3t-1 4q-10 71-79 125 5 37 26 37 11 0 27-12 18-12 35-40 2-2 2-2 2 0 2 4 0 1-1 3-20 38-46 51-11 6-22 6m-24-69v13q59-56 68-116 1-6 2-12t0-9q0-10-2-17t-9-6q-13 0-27 24-9 13-15 28t-10 34q-7 25-7 61m113 78q-22 0-29-27-1-5-2-10t-1-10q0-20 9-39t24-31 35-12h4q1 1 4 1 22 4 22 24 0 4-4 4-4 0-4-4-1-5-5-7t-11-2q-3 0-4 0-17 3-29 15t-17 30-5 34q0 8 4 17t14 9q7 0 14-6t11-14q5-10 7-23t2-30q0-6 8-6 5 0 9 2 3 3 4 6 0 3 0 5t-1 6 0 5 0 6q0 17 3 26 3 8 10 8 5 0 9-5 4-3 9-11t11-15 7-13q1-2 3-2 1 0 1 1t0 3q-5 12-12 24t-16 22q-3 3-7 5t-10 3q-4 0-9-2t-6-6q-3-7-5-15t-1-15q-1-3-1-3-1 0-1 2-3 23-16 37-13 13-28 13m144 82q-13 0-25-5t-19-14q-10-9-10-28 0-17 8-29t27-13q10 0 18 6t9 18q0 11-8 16t-14 6q-4 0-4-3 0-3 4-3 5 0 10-4t5-12q0-9-6-13t-14-4q-12 0-18 11t-5 23q0 7 3 15t10 13q13 10 31 10 21 0 34-11t20-31 6-40q0-6-2-18t-6-23-8-14q-7 17-19 29t-32 13q-22 0-31-12t-8-28q0-14 7-26t16-23 16-21 7-20q0-11-5-19t-17-8q-10 0-15 6-6 6-6 14 0 3 1 6t2 7l2 3 1 2q1 1 1 2 0 2-1 3t-3 1q-5-2-9-10t-3-17q0-5 2-11t6-9q10-9 24-9 15 0 23 11t8 29q0 13-6 24t-14 23-13 23-6 25q0 9 4 17t15 8q15 0 24-8t15-20 8-26 5-27q1-7 2-13t3-8q4-7 10-7 10 0 10 14 0 12-7 26t-12 25q11 20 19 38t8 42v7q0 20-11 36t-29 26-38 9" />
</svg>