<svg id="fnt-Kadwa" viewBox="0 0 1619 1000" xmlns="http://www.w3.org/2000/svg"><path id="kadwa" class="f" d="M22 667v-30l43-10v-270l-43-10v-28l143-2v30l-48 10v110h47l86-148 83-2v30l-50 10-76 126 103 144 43 10v30h-143v-30l42-10-85-120h-50v120l48 10v30h-143m361-250q3-2 19-7t37-9 41-4q45 0 69 18t24 59v153l40 10v27l-78 3-11-35q-16 16-37 28t-45 12q-35 0-55-20t-20-55q0-42 30-60t85-18h40v-40q0-22-12-33t-35-12q-14 0-25 2t-18 3-7 3l-8 37h-32l-2-62m105 135q-38 0-54 10t-16 32q0 17 10 27t27 11q17 0 32-9t25-20 10-11v-40h-34m434 85v27l-85 3-4-29q-33 34-78 34-53 0-79-35t-26-95q0-67 33-106t99-39q25 0 48 8v-83l-43-10v-28l93-2v345l42 10m-92-190q-2-1-8-4t-17-4-28-2q-75 0-75 100 0 44 16 69t47 26q19 0 33-9t23-18 9-11v-147m182-10l43 185 65-218 48-7 62 225 40-183-35-7v-28l112-2v30l-29 5-61 230h-57l-48-155-12-48-10 48-48 155h-57l-63-228-25-7v-28l113-2v30l-38 5m375-20q4-2 20-7t37-9 41-4q45 0 69 18t23 59v153l40 10v27l-77 3-11-35q-16 16-37 28t-45 12q-35 0-55-20t-20-55q0-42 30-60t85-18h40v-40q0-22-12-33t-36-12q-13 0-24 2t-18 3-8 3l-7 37h-32l-3-62m105 135q-37 0-53 10t-16 32q0 17 10 27t27 11q16 0 31-9t26-20 10-11v-40h-35" />
</svg>