<svg id="fnt-Kaisei Tokumin" viewBox="0 0 3804 1000" xmlns="http://www.w3.org/2000/svg"><path id="kaisei-tokumin" class="f" d="M361 659q0 2-1 4t-3 3q-16 0-32 0t-31 0q-8 0-16-1t-13-6q-2-1-3-3t-3-4q-62-87-130-171l-18 15v144q0 9 8 11t18 2 15 0q7 0 7 7t-6 6q-17 0-33-1t-34-1q-16 0-33 1t-33 1q-4-2-4-7 0-3 0-4t5-2q3 0 6 0t6 0q4 0 11 0t12-4 5-9v-314q0-5-7-9t-10-4h-11q-4 0-7 0t-6 1q-5 0-6-3t0-7q0-4 3-4 18 0 35 1t34 1q16 0 32-1t31-1q6 0 6 7 0 2-1 4t-4 3q-5 0-11-1t-11 0-11 4-6 9v76q0 20 0 39t0 39q50-47 98-96 18-19 35-38t32-39q4-5 8-5 8 0 15 0t15 0q7 0 13 0t13 0q2 0 3 2t1 4-2 4-3 3q-14 0-27 4t-23 14l-124 118q38 48 76 95t80 94q8 8 17 10t16 3 7 6m181-51q-2-22-2-45t-1-46h-7q-15 0-34 5t-36 14-28 24-10 33q0 24 13 36t37 12q11 0 24-5t25-13 19-15m88 32q0 2-1 3-5 11-17 17t-23 6q-21 0-30-13t-15-30q-19 18-42 29t-49 12q-19 0-35-7t-26-21-10-34q0-21 10-37t28-26 36-17 36-10q12-3 24-5t23-4q0-14-1-32t-8-31q-6-11-17-20t-25-9q-23 0-36 12t-18 34q-1 2-1 5t-1 5q0 3-4 5t-6 3q-10 0-18-5t-7-15q0-6 2-10 6-16 21-26t32-16 33-5q27 0 49 10t35 29 14 48q0 33-1 66t2 66q1 11 5 19t16 8q7 0 14-3t9-3q2 0 2 2m162 19q0 3-2 5t-4 2q-14 0-28-1t-28 0h-13q-15 0-30 0t-29 1q-2 0-3-2t-1-4q0-3 1-4t3-2q2-1 5-1t7 1q3 0 6 0t7 0q7 0 12-3t6-11v-200q0-9-3-14t-12-4q-7 0-15 0t-14 2q-4 0-4-4 0-5 4-7 6-2 13-3t13-1q14-3 28-6t27-6q2-1 4-1 6 0 6 6 0 59-1 119t0 119q0 8 7 11t14 3q5 0 10 0t11-1q2 0 2 3t1 3m-41-346q0 13-9 21t-21 9-22-9-9-21 9-21 22-9 21 9 9 21m261 282q0 23-10 37t-26 22-35 10-37 3q-16 0-33-3t-32-5q-4-14-7-27t-7-27q-1-1-3-7t-1-6q0-4 2-6t6-1 5 2q3 4 5 10t5 10q4 8 7 12t9 11q20 21 49 21 16 0 29-4t21-13 8-28q0-16-10-27t-26-19-33-17-33-18-26-23-10-34q0-25 13-40t33-24 41-7q14 0 25 3t24 8q4 2 8 2t8 1q3 0 5 0t4-1q1 9 2 18t3 19q0 4 1 8t1 9q0 4-2 7t-6 4q-3 0-6-1t-3-4q-3-5-5-11t-3-10q-7-18-23-29t-34-10q-24 0-36 13t-12 37q0 8 4 16t10 13q11 10 25 15t27 11q17 8 35 18t31 26 13 36m220-104q0-20-3-39t-15-31-37-12q-24 0-39 12t-22 32-12 40q12 0 24 0t24 1q20 0 40-1t40-2m58 115q0 2-1 3-2 5-8 12t-12 13-12 9q-16 12-37 19t-41 7q-17 0-38-6t-35-15q-28-18-41-48t-13-63q0-37 14-68t47-51q14-9 32-15t35-5q29 0 52 12t35 33 13 52q0 9-4 11t-11 3q-10 0-20-1t-20-1q-14-1-28-1t-28 0q-17 0-34 0t-34 1q0 8-1 16t0 15q0 19 4 38t15 37 25 27 38 10q22 0 43-7t37-22q5-5 8-10t9-9q2-3 5-3 3 0 4 2t2 5m169 53q0 3-1 5t-4 2q-14 0-28-1t-28 0h-14q-15 0-30 0t-29 1q-2 0-3-2t0-4q0-3 0-4t3-2q3-1 6-1t6 1q4 0 7 0t6 0q7 0 13-3t6-11v-200q0-9-3-14t-13-4q-7 0-14 0t-14 2q-4 0-4-4 0-5 4-7 6-2 12-3t13-1q14-3 28-6t28-6q1-1 4-1 5 0 5 6 0 59 0 119t0 119q0 8 7 11t14 3q5 0 10 0t10-1q2 0 3 3t0 3m-40-346q0 13-9 21t-22 9-21-9-9-21 9-21 21-9 22 9 9 21m520 81q0 7-6 7-2 0-4 0t-2-2q-1-1-2-5t0-5q-3-15-8-34t-14-29q-5-6-17-8t-25-2-19 0q-8 0-19 0t-19 4-8 16q0 75 1 151t1 152q0 6 5 9t13 5 11 1q4 0 7-1t7 0q5 0 5 5 0 2 0 5t-3 4q-18 0-36-1t-36 0q-24 0-49 1-5 0-11 1t-12 0q-4 0-4-5 0-6 1-8t7-1q1 0 2 0t2 0q6 0 14-1t15-4 7-10q1-39 1-77t0-77q0-38 0-76t-1-76q0-6-5-11t-10-5q-4-1-9-1t-10 0h-44q-18 0-27 8t-12 23-7 28q0 1-1 7t-3 11-1 6q-2 2-6 2-6 0-6-5 0-2 0-6t1-7q1-12 2-28t1-30q1-5 1-10t0-9q0-7 9-6 36 3 73 3t74 0h43q20 0 41-1t42 0q9-1 18-1t20 0q6 0 7 5 1 1 1 10t1 21 1 22 0 15q1 5 1 10t1 10m239 141q0-22-3-44t-12-40-25-30-43-11q-25 0-41 12t-25 31-12 41-3 42q0 21 3 43t13 38 25 28 44 11q26 0 41-11t24-29 11-40 3-41m52 1q0 38-18 68t-48 47-68 18q-36 0-66-18t-47-48-17-66q0-37 17-69t46-51 69-20q42 0 72 18t44 49 16 72m318 123q0 4-7 5t-15 2-10 1q-7 0-16-1t-15-2q-7-2-11-7t-7-10q-23-34-45-69t-43-69l-29 21v112q0 12 12 12 4 0 9 0t8 0q3 0 5 1t3 5q0 6-5 6-14 0-28-1t-27 0q-10 0-20 0t-20 1q-3 0-7 1t-6 0q-2 0-4-2t-1-4q0-4 3-5t6-1 5 0 6 1q8 0 12-2t5-11v-322q0-11-4-15t-16-4q-4 0-8 0t-8 1q-5 0-5-5 0-3 4-4 9-3 19-4t20-3q5-1 13-3t15-3 11-1q3 0 3 3l-1 232q26-19 49-40t47-42q8-8 16-16t14-16q3-3 8-3 5 0 10 0t10 1q6 0 12-1t12 0q8 0 8 8 0 4-6 4-8 0-16 1t-14 7q-23 16-44 34t-44 35q9 16 19 30t20 30q13 20 27 39t28 40q7 9 17 18t23 11q3 0 3 4m310-6q0 6-9 9t-19 4-15 1q-17 0-27-13t-15-28q-17 21-43 32t-53 10q-45 0-62-23t-17-66q0-37 0-75t1-75q0-15-15-15-4 0-8 0t-8 1q-1 0-2-2t-1-3q0-5 5-6 18-2 35-3t36-2q4 4 4 10 0 12-1 25t0 26q-1 31-1 61t0 62q0 10 0 20t4 20q6 14 21 20t29 6q16 0 31-6t27-17 13-28q1-9 1-18t1-17l-1-136q0-6-4-9t-10-3q-5 0-10 0t-9 1q-5 0-5-5t5-6q6-1 12-1t13-1l35-3q3-1 7-1t7-1q3 0 4 3t1 4q-2 109-2 217 0 12 6 20t19 8q4 0 7-1t7-1q6 0 6 5m460 7q0 7-5 7-14 0-29-1t-29-1-29 1-29 1q-2 0-3-2t-1-4q0-5 5-6t10 0 9 0q7 0 12-3t4-11q0-33 1-66t1-66q0-6 0-11t-1-11q0-12-1-25t-4-24-12-18-25-7q-11 0-25 6t-26 16-21 17q1 7 1 14t0 15q0 14 0 29t0 29q0 26 0 51t0 51q0 8 6 11t13 3q4 0 8-1t8 0q3 0 3 2t1 4q0 3-1 5t-5 2q-14 0-28-1t-29-1q-14 0-28 1t-29 1q-2 0-3-2t-1-4q0-4 4-6 4-1 9 0t10 0q7 0 12-3t5-11v-127q0-11-1-26t-2-31-5-24q-4-9-12-14t-18-5q-13 0-27 6t-25 16-21 19v186q0 7 6 10t12 4q4 0 8-1t7-1q2 0 3 3t0 4q0 2-1 4t-4 3q-10 0-19-1t-19-1q-19 0-38 1t-38 1q-2 0-3-3t-1-4q0-6 5-6 5 0 10 0t10 1q7 0 12-4t5-10q0-51 0-102t0-101q0-5-1-11t-7-7q-3-2-7-2-7 0-13 2t-14 2q-4 0-4-6 0-4 3-5 2-1 5-2t7 0q11-2 23-4t23-5q4-1 8-2t9-1q6 0 8 9t3 19 0 14q11-9 24-19t27-16 29-7q26 0 43 8t30 32q11-9 25-19t29-17 31-6q33 0 50 9t23 29 7 51q0 39-1 78t0 79q0 8 6 11t14 3q4 0 7-1t8 0q2 0 2 2t1 4m163-1q0 3-1 5t-4 2q-14 0-28-1t-28 0h-14q-15 0-30 0t-29 1q-2 0-3-2t0-4q0-3 0-4t3-2q3-1 6-1t6 1q4 0 7 0t6 0q7 0 13-3t6-11v-200q0-9-3-14t-13-4q-7 0-14 0t-14 2q-4 0-4-4 0-5 4-7 6-2 12-3t13-1q14-3 28-6t28-6q1-1 4-1 5 0 5 6 0 59 0 119t0 119q0 8 7 11t14 3q5 0 10 0t10-1q2 0 3 3t0 3m-40-346q0 13-9 21t-22 9-21-9-9-21 9-21 21-9 22 9 9 21m362 346q0 7-7 7-11 0-23-1t-23-1q-17 0-35 1t-35 1q-2 0-2-4t-1-5q0-4 5-4t8 0q3 0 5 0t6 1q14 0 16-15 1-29 1-59t0-60q0-5 0-11t0-11q-1-12-2-29t-4-27q-8-26-35-26-25 0-45 13t-36 31q0 37 0 73t0 72v34q0 8 6 11t13 4q4 0 8-1t7-1q2 0 3 3t0 4q0 2-1 4t-4 3q-11 0-22-1t-22-1q-17 0-34 1t-34 1q-3 0-3-4t0-5q0-4 4-4t7 0 5 0 5 1q15 0 16-15 1-7 1-14t0-14q0-43 0-86t-1-86q0-7-3-14t-11-7q-7 0-13 2t-12 2q-4 0-4-5 0-1 0-3t1-1 2-1 1-1q9-2 19-3t19-3q8-2 16-5t16-2q4 0 6 3 2 5 4 13t2 17 1 14q11-11 26-22t32-18 33-7q46 0 62 20t16 64q0 39 0 78t0 78q0 9 5 12t14 4q4 0 8-1t8-1q3 0 4 2t1 5" />
</svg>