<svg id="fnt-Kalam" viewBox="0 0 1266 1000" xmlns="http://www.w3.org/2000/svg"><path id="kalam" class="f" d="M53 657h0q-7 0-17-12t-9-25 33-138 32-158q0-9 2-13t9-3 18 15 10 36-26 118q45-62 96-114t64-52q10 0 18 6t9 13-24 28-63 61-69 78q0 20 11 44 18 40 72 67 24 11 37 19t13 17q0 13-19 13t-41-9-43-23-40-40-24-54q-15 28-29 73-16 53-20 53m391-246q23 0 42 23t19 41-13 37q6 8 6 13 0 14-6 48t-8 45-2 16-2 13q-2 12-9 12-9 0-15-16t-7-40q-44 56-82 56-23 0-46-20t-22-40q0-30 22-75t57-78 66-35m23 89v-1q0-46-18-46-20 0-46 27t-44 63-18 56q0 8 7 13t17 6q23 0 53-32t41-77q1-8 8-9m177-187q0 94-39 244-25 102-35 102-7 0-16-11t-9-17 14-62 29-138 15-147q0-7 2-10t8-3 19 14 12 28m157 98q23 0 42 23t19 41-13 37q6 8 6 13 0 14-6 48t-8 45-2 16-2 13q-2 12-9 12-9 0-15-16t-7-40q-44 56-82 56-23 0-46-20t-22-40q0-30 22-75t57-78 66-35m23 89v-1q0-46-18-46-20 0-46 27t-44 63-18 56q0 8 7 13t17 6q23 0 53-32t41-77q1-8 8-9m402-89q15 0 27 21t12 47-10 68-24 77-31 35q-10 0-10-14t17-67 17-86-10-31q-12 0-29 22t-34 53-20 33-4 6-5 9-14 27-20 35-15 13-13-8-8-15 9-29q26-65 26-121 0-11-4-18t-10-7-12 4-15 17-16 24-21 34-22 34-16 26-15 23-12 18q-13 18-20 18t-16-11-10-17 2-14 4-17 7-24 11-37 10-58 5-55 8-17q11 0 22 12t11 23q0 44-33 145 56-105 70-125t25-31q20-22 40-22 12 0 28 21t17 42-6 52q59-115 107-115" />
</svg>