<svg id="fnt-Kalnia Glaze" viewBox="0 0 3168 1000" xmlns="http://www.w3.org/2000/svg"><path id="kalnia-glaze" class="f" d="M309 674q-13 0-25-7t-22-22-26-44q-9-17-19-32t-21-28-25-25-30-21h-26v160l31 7v5h-119v-5l31-7v-331l-31-6v-5h88v175q8 0 16-1t15-1q15-1 29-10t26-22 23-28q8-14 14-28t10-27 3-23q0-14-9-22t-27-8v-5h120v5l-30 6q0 17-6 35t-16 37-25 34q-14 17-32 29t-33 21-30 10v2q23 1 40 6t32 15 25 25 21 37q13 29 23 46t18 26 16 11q5 2 11 0v5q-7 5-14 7t-14 3-12 1m-10-355h-61q10 3 14 11t5 18q0 11-3 24t-10 29-15 28q-12 19-27 32t-30 21q20-5 42-20t40-36q21-24 34-52t11-55m-128 180h-7q17 14 30 29t25 32 22 38q13 26 24 41t22 22 22 7q20 0 30-6-1 0-3 0t-4-1q-8-3-16-13t-19-26-21-45q-12-26-26-42t-33-26-46-10m-107-180v342h46v-342h-46m448 90q29 0 49 7t35 21 19 35 6 50v127q0 8 3 11t9 4q6 0 14-4t15-9v6q-6 5-14 9t-17 6-18 2q-22 0-34-12t-13-38q0-10 0-15t0-7 0-5l-4-3q-9 19-23 34t-29 25-33 16-34 5q-19 0-34-6t-24-19-9-30q0-42 49-65t141-22q0-42-6-67t-23-36-44-11q-18 0-33 3t-22 8-7 8q0 3 4 5t18 8q23 9 23 26 0 15-13 22t-32 8q-18 0-31-8t-12-23q0-12 10-24t27-21 40-15 47-6m54 163v-34q-47 0-78 10t-46 28-15 39q0 13 5 21t14 13 21 4q12 0 26-5t29-15 25-25 19-36m-123 96q18 0 36-6t34-17q-12 6-25 10t-24 3q-14 0-24-5t-15-16-5-22q0-28 24-48t64-27q-59 6-93 26t-33 53q0 15 7 26t21 17 33 6m77-253q12 3 21 9t15 16q8 13 12 33t5 49v106q0 13 5 21t13 12 17 5q4 1 8 1t7 0q-4-3-6-7t-2-12v-126q0-32-9-54t-26-35q-9-6-19-10t-21-5-20-3m-89 85q18 0 28-7t10-17q0-10-8-15t-16-8q-5-1-10-4t-7-5q-3-4-2-8-9 5-17 12t-11 14-4 13q0 11 10 18t27 7m346-206v363l28 5v5h-111v-5l28-5v-340h-31v-6l86-17m-49 14v353h43v-359l-43 6m385 349l31 5v5h-114v-5l28-5v-167q0-30-10-45t-31-15q-13 0-27 8t-25 22-22 29-17 30v138l29 5v5h-111v-5l27-5v-225h-30v-6l85-17v82l4 4q14-26 31-46t37-29 43-11q20 0 34 6t22 18 12 28 4 36v160m-236-234v238h44v-244l-44 6m187 67v171h43v-164q0-27-7-46t-21-27-38-9q-19 0-38 9t-36 27q14-14 28-20t27-5q22 2 32 18t10 46m168-121q-13 0-23-4t-16-11-5-16q0-10 5-17t16-10 23-4 23 4 15 10 6 17q0 9-6 16t-15 11-23 4m58 298h-111v-5l28-5v-225h-31v-6l86-17v248l28 5v5m-77-244v238h43v-244l-43 6m19-61q11 0 19-3t13-9 5-12-5-13-13-8-19-3q-11 0-19 3t-14 8-5 13 5 12 14 9 19 3m237 47q29 0 50 7t34 21 20 35 6 50v127q0 8 3 11t9 4q6 0 13-4t16-9v6q-6 5-15 9t-17 6-17 2q-22 0-35-12t-12-38q0-10 0-15t0-7 0-5l-4-3q-10 19-23 34t-30 25-33 16-34 5q-18 0-33-6t-24-19-9-30q0-42 48-65t142-22q0-42-7-67t-22-36-44-11q-19 0-33 3t-22 8-8 8q0 3 5 5t17 8q23 9 23 26 0 15-13 22t-31 8q-18 0-31-8t-13-23q0-12 10-24t28-21 39-15 47-6m55 163v-34q-48 0-79 10t-46 28-15 39q0 13 5 21t15 13 20 4q13 0 27-5t28-15 26-25 19-36m-124 96q19 0 37-6t33-17q-12 6-24 10t-24 3q-15 0-25-5t-15-16-4-22q0-28 23-48t65-27q-60 6-93 26t-33 53q0 15 7 26t21 17 32 6m78-253q11 3 20 9t15 16q9 13 13 33t4 49v106q0 13 5 21t14 12 16 5q4 1 8 1t8 0q-5-3-7-7t-1-12v-126q0-32-9-54t-26-35q-9-6-20-10t-20-5-20-3m-89 85q17 0 27-7t11-17q0-10-8-15t-17-8q-5-1-10-4t-6-5q-4-4-2-8-10 5-17 12t-12 14-4 13q0 11 10 18t28 7m668 28l-57-9v-5h114v112q-13 13-30 22t-35 14-37 9-35 3q-29 0-55-8t-47-24-36-39-22-52-8-65q0-41 12-75t34-57 54-36 70-13q22 0 41 3t37 10 33 14 27 17l-26 126h-9l-7-62q-4-27-13-47t-23-31-32-17-39-6q-23 0-42 12t-32 34-21 50-7 61q0 29 5 57t15 54 26 45 36 30 47 12q14 0 29-4t33-10v-125m-101 138q-29-11-51-38t-34-68-11-91q0-33 7-62t19-51 31-32q-48 16-75 58t-27 104q0 39 10 71t28 55 45 36 58 18m107-146v129q15-3 26-9t20-17v-103h-46m20-105l4 50 23-113q-9-6-19-11t-22-11-24-8-25-5q17 6 30 20t22 34 11 44m175-121v363l27 5v5h-110v-5l28-5v-340h-31v-6l86-17m-50 14v353h44v-359l-44 6m251 101q29 0 50 7t34 21 20 35 6 50v127q0 8 3 11t9 4q6 0 13-4t16-9v6q-6 5-15 9t-17 6-17 2q-22 0-35-12t-12-38q0-10 0-15t0-7 0-5l-4-3q-10 19-23 34t-30 25-33 16-34 5q-18 0-33-6t-24-19-9-30q0-42 48-65t142-22q0-42-7-67t-22-36-44-11q-19 0-33 3t-22 8-8 8q0 3 5 5t17 8q23 9 23 26 0 15-13 22t-31 8q-18 0-31-8t-13-23q0-12 10-24t28-21 39-15 47-6m55 163v-34q-48 0-79 10t-46 28-15 39q0 13 5 21t15 13 20 4q13 0 27-5t28-15 26-25 19-36m-124 96q19 0 37-6t33-17q-12 6-24 10t-24 3q-15 0-25-5t-15-16-4-22q0-28 23-48t65-27q-60 6-93 26t-33 53q0 15 7 26t21 17 32 6m78-253q11 3 20 9t15 16q9 13 13 33t4 49v106q0 13 5 21t14 12 16 5q4 1 8 1t8 0q-5-3-7-7t-1-12v-126q0-32-9-54t-26-35q-9-6-20-10t-20-5-20-3m-89 85q17 0 27-7t11-17q0-10-8-15t-17-8q-5-1-10-4t-6-5q-4-4-2-8-10 5-17 12t-12 14-4 13q0 11 10 18t28 7m499 167h-241l175-243h-85q-24 0-39 12t-16 40l-1 41h-5l-20-100h233l-176 242h98q18 0 30-11t14-38l5-37h5l23 94m-225-244l16 81-1-28q0-17 4-27t11-17 15-9h-45m168 0l-173 238h47l173-238h-47m2 238h48l-19-75-1 25q0 24-8 35t-20 15m225-252q40 0 66 16t39 43 14 63h-198v-5l147-6q0-33-8-56t-22-36-38-12q-24 0-41 13t-27 41-10 67q0 23 7 44t18 38 30 27 40 9q15 0 29-4t27-12 23-19 18-26l5 5q-11 22-25 37t-31 23-34 12-35 3q-30 0-54-10t-40-29-25-41-9-50q0-30 10-55t28-43 42-27 54-10m-128 135q0 36 16 64t43 44 63 16q20 0 35-3t29-11q-8 4-19 5t-22 2q-24 0-43-10t-32-28-19-40-6-46q0-40 9-69t29-43q-25 8-44 25t-29 40-10 54m202-19h39q0-25-8-45t-23-34-37-21q13 14 21 37t8 63" />
</svg>