<svg id="fnt-Kameron" viewBox="0 0 2037 1000" xmlns="http://www.w3.org/2000/svg"><path id="kameron" class="f" d="M3 667v-25h12q15 0 21-2t7-6 2-8v-232q0-10-4-14t-26-4h-12v-24q17 0 32 0t30 0q2 0 11 0t22 0 22 0 11 0v24h-12q-15 0-21 2t-8 7-1 8q0 1 0 11t0 27 0 31 0 26 0 11l122-109q9-8 9-11t-5-3-13 0h-13v-24q7 0 14 0t16 0 17 0 14 0h55v24q-6 0-11 0t-8 0q-8 0-14 1t-13 8-22 17l-103 92 128 135q8 9 15 11t21 2q3 0 6 0t7 0v25q-6 0-14 0t-15-1-17 0-18 0q-9 0-18 0t-17 0-16 1-13 0v-25h26q13 0 13-2t-8-10l-109-115-16 13v99q0 5 1 9t8 5 21 1h12v25q-6 0-14 0t-15-1-17 0-18 0q-8 0-17 0t-17 0-16 1-14 0m412 5q-35 0-56-19t-21-48q0-31 25-50t70-19q15 0 31 2t31 7v-37q0-22-14-33t-46-12q-50 0-59 40l-23-2 3-43q16-7 37-12t47-4q52 0 74 18t22 59v93q0 17 2 24t7 8 14 1h11v22q-4-1-7-1t-8 1-8 0q-13 0-26 0t-24 1v-34q-15 19-35 28t-47 10m12-24q16 0 32-6t26-20 10-33v-24q-14-4-27-7t-26-2q-29 0-46 13t-17 35q0 20 13 32t35 12m167 19v-23q17 0 25-1t9-5 2-7v-150q0-8-8-10t-27-1v-22q5 0 9 0t12 0q13 0 26 0t26-1v36q17-19 39-29t47-11q22 0 39 11t26 31q17-20 39-31t47-10q30 0 45 12t20 35 5 53v90q0 8 7 9t27 1v23q-13 0-27-1t-31 0q-17 0-29 0t-25 1v-23q21 0 29-2t8-11v-94q0-33-8-50t-36-16q-23 0-39 11t-27 25q0 9-1 18t0 19v88q0 9 7 11t28 1v23q-13 0-24 0t-29-1q-18 0-32 0t-27 1v-23q21 0 28-2t8-11v-94q0-32-8-50t-35-17q-24 0-39 10t-28 27q0 0-1 7t0 16q0 8 0 19t0 21-1 21 0 18q0 19 2 26t8 8 28 1v23q-13 0-26 0t-30-1q-17 0-31 0t-27 1m560 6q-37 0-64-14t-40-40-15-61q0-35 15-61t40-41 61-14q35 0 61 14t39 41 14 65l-15 4h-173q1 39 23 62t59 22q26 0 45-10t28-34h29q-10 34-38 51t-69 16m-76-128h147q-3-37-22-59t-51-21q-31 0-51 22t-23 58m219 122v-23q19 0 26-1t10-4 2-10v-148q0-8-7-10t-30-1v-22q4 0 12 0t15 0 7 0q10 0 21 0t21-1v45q12-23 33-36t49-13q11 0 23 1v54q-4 0-8 0t-7 0q-5-12-12-19t-20-7q-24 0-40 23t-16 58q0 0 0 7t0 19 0 23 0 20 0 9q0 10 9 12t33 1v23q-15 0-30-1t-36 0q-18 0-30 0t-25 1m322 6q-34 0-60-14t-41-40-15-61 15-62 41-40 60-14q35 0 61 14t41 40 15 62q0 34-15 61t-41 40-61 14m0-25q34 0 54-25t21-66q0-41-21-66t-54-24-54 24-20 66q0 42 20 66t54 25m147 19q0-2 0-5t0-6 0-7 0-5q19 0 26-1t10-3 2-8v-154q0-6-7-7t-29-1q0-3 0-7t0-8 0-7q8 0 16 0t15 0q12 0 23 0t22-1v34q16-18 38-28t46-9q35 0 54 19t19 60v111q0 8 8 9t27 1v23q-12 0-24 0t-29-1q-17 0-32 0t-28 1v-23q19 0 26-1t10-3 1-7v-96q0-33-8-49t-36-16q-27 0-44 12t-27 24q0 9 0 18t0 19v88q0 9 8 10t29 1v23q-13 0-25 0t-30-1q-19 0-33 0t-28 1" />
</svg>