<svg id="fnt-Karantina" viewBox="0 0 1203 1000" xmlns="http://www.w3.org/2000/svg"><path id="karantina" class="f" d="M60 667h-47v-304h-8l5-46h50v97l44-97h52l-63 141 68 209h-52l-49-149v149m175 0h-13q-23 0-37-14t-14-33v-157q0-20 14-33t37-13h2q13 0 24 6v-6h47v203h7l5 47h-59v-20l-13 20m13-204h-27q-2 0-2 3v152q0 2 2 2h27v-157m74-46h55v22l13-22h34v48h-47v202h-48v-204h-12l5-46m178 250h-13q-23 0-37-14t-14-33v-157q0-20 14-33t37-13h2q13 0 24 6v-6h47v203h7l5 47h-59v-20l-13 20m13-204h-27q-2 0-2 3v152q0 2 2 2h27v-157m126 204h-47v-204h-12l5-46h54v19l13-19h13q23 0 37 13t14 33v157h12l-5 47h-55v-201q0-3-2-3h-27v204m158-47h28v47h-29q-21 0-34-13t-13-34v-157h-21l4-46h17v-54h-12l4-46h56v100h28l-4 46h-24v157m46-270h42l5 47h-47v-47m-3 67h50v250h-47v-204h-8l5-46m125 250h-48v-204h-12l5-46h55v19l12-19h14q23 0 36 13t14 33v157h13l-5 47h-55v-201q0-3-3-3h-26v204m165 0h-13q-23 0-37-14t-14-33v-157q0-20 14-33t37-13h2q13 0 24 6v-6h47v203h7l5 47h-59v-20l-13 20m13-204h-27q-2 0-2 3v152q0 2 2 2h27v-157" />
</svg>