<svg id="fnt-Karla" viewBox="0 0 1134 1000" xmlns="http://www.w3.org/2000/svg"><path id="karla" class="f" d="M85 504l146-151h54l-200 206v-55m28 7l28-26 153 182h-51l-130-156m-62 156v-314h39v314h-39m485 0h-34l-5-53v-102q0-33-13-47t-42-14q-15 0-28 5t-20 14-7 24h-44q0-26 13-42t35-23 51-7q28 0 49 9t33 29 12 53v154m-115 6q-30 0-49-11t-29-27-9-35q0-25 12-40t33-22 47-7q19 0 38 3t37 11v24q-15-6-34-9t-35-4q-24 0-40 10t-17 34q0 17 13 30t40 12q20 0 35-9t25-23 9-27h10q0 24-11 44t-29 33-46 13m248-6h-39v-240h39v240m0-108h-12q0-46 8-76t26-45 41-15q8 0 15 1t13 4l-2 38q-7-2-16-4t-14-1q-22 0-35 12t-19 34-5 52m180 108h-39v-341h39v341m283 0h-34l-5-53v-102q0-33-13-47t-42-14q-15 0-28 5t-20 14-7 24h-44q0-26 13-42t35-23 51-7q28 0 49 9t33 29 12 53v154m-115 6q-30 0-49-11t-29-27-9-35q0-25 12-40t33-22 47-7q19 0 38 3t37 11v24q-15-6-34-9t-35-4q-24 0-40 10t-17 34q0 17 13 30t40 12q20 0 35-9t25-23 9-27h10q0 24-11 44t-29 33-46 13" />
</svg>