<svg id="fnt-Kaushan Script" viewBox="0 0 3191 1000" xmlns="http://www.w3.org/2000/svg"><path id="kaushan-script" class="f" d="M167 508q31-46 61-85t58-66 51-44 40-15q6 0 14 5t14 13 12 17 4 18q-31 10-61 26t-57 37-52 48-44 55q8 21 19 44t26 45 30 40 33 30q-3 5-9 10t-13 9-15 7-14 3q-13 0-24-13t-22-37-24-61-27-86m-75 199q-19-4-32-16t-23-28q5-9 11-25t15-38 22-55 29-74q10-27 17-45t11-37 10-39 10-54q21 4 38 18t30 35q-5 7-13 21t-16 35-20 44-23 52q-27 60-42 110t-24 96m431-242q5 0 12 1t12 5 9 6 4 5q-10 21-18 42t-15 41-9 37-3 29q0 14 3 23t10 14q-6 4-16 6t-17 3q-27 0-27-37 0-29 19-78-10 23-23 43t-26 36-28 25-25 12q-18-1-30-18t-11-43q0-28 12-59t30-57 41-45 43-18q5 1 11 6t12 10 10 12 4 11q-20 3-41 20t-39 39-28 50-11 50q0 9 7 12 15-3 34-25t46-67q5-9 11-20t13-23 12-25 12-23m197 191q-10-8-13-20t-3-21q0-10 2-18-2 0-9 8t-15 19-16 22-12 15q-7 7-13 11t-9 5q-8-1-17-4t-16-7-14-12-7-16q0-14 0-23t4-20q4-19 13-43t20-47 26-44 30-31q5 0 11 0t12 3 12 5 10 7q-5 5-23 34t-41 82q-2 5-6 16t-7 22-6 22-2 18q0 4 1 6t3 3q7-3 19-17t32-41q5-7 11-16t14-20 13-21 11-22q2-6 5-14t8-17 11-19 15-17q6 0 14 2t14 3 12 5 7 6q-9 22-20 44t-20 42-16 41-7 40q0 11 2 18t4 13 3 9 2 6q0 1-1 2 0 0-1 0-3 0-9-1t-12-5-14-6-12-7m283-188q0 9-3 19t-7 19-8 14-9 5q-5 0-6-7 0-2 1-5t3-7 2-8 2-7q0-7-4-12t-8-5q-20 0-31 25t-10 74q0 5 0 6 11-1 19-1t16 0q1 1 1 4 0 4-2 6-12 3-19 4t-10 4-4 3-1 5q0 4 0 8t1 10q0 42-23 67t-63 30q-7-1-15-4t-14-9-12-13-7-13q0-19 8-37t22-30 32-22 41-9q0-13-2-25t-6-23-5-22-2-21q0-14 5-27t15-25 21-19 25-11q5 2 14 9t19 16 16 18 8 16m-165 228q12-5 23-15t19-21 12-26 5-26q-10 1-22 9t-22 18-18 23-7 20q0 11 10 18m165-38q0-17 4-41t10-51 16-56 21-59q10-27 23-54t29-53 32-49 34-43q8 0 17 2t18 5 16 8 12 9q-38 38-68 77t-47 74q-10 19-18 36t-14 32-12 33-9 34q96-122 142-122 13 0 28 8t27 23q-16 17-32 41t-31 48-22 45-9 31q0 5 2 7t6 2q8 0 12-2t6-2q2 4 3 5t0 3q0 2-6 5t-14 8-16 7-12 3q-5 0-10-3t-9-7-6-10-2-12q0-7 4-22t12-35 18-43 22-48q0-2-2-2-1 0-8 4t-11 8q-18 14-37 33t-35 44-33 49-26 53q-1 4-4 7t-5 3q-2 0-5-4t-5-9-4-10-2-10m432-193q5 0 11 1t13 5 9 6 4 5q-10 21-19 42t-14 41-10 37-3 29q0 14 3 23t10 14q-6 4-15 6t-17 3q-27 0-27-37 0-29 19-78-10 23-23 43t-27 36-27 25-25 12q-19-1-30-18t-12-43q0-28 12-59t31-57 41-45 42-18q5 1 11 6t12 10 10 12 5 11q-20 3-42 20t-38 39-28 50-11 50q0 9 7 12 14-3 33-25t46-67q5-9 11-20t13-23 13-25 12-23m143-41q13 4 25 18t17 30q-6 14-17 33t-23 38-21 38-11 29q8-8 18-20t19-22 17-21 13-13q9-10 22-24t27-25 29-20 27-8q13 0 21 9t14 18q0 1-4 3t-10 10q-7 9-16 24t-17 34-14 38-5 34q0 13 3 16t9 4q6 0 12-3t9-2q2 1 3 4t2 6q-4 3-10 7t-11 6-12 5-10 2q-15 0-24-4t-15-11-7-17-2-21q0-6 1-13t4-18 9-25 14-34q-1 0-14 7t-27 22q-23 22-42 44t-38 49q-11 16-20 26t-14 15q-10-6-15-17t-8-22q0-10 3-24t7-33 12-37 16-39q19-44 34-69t20-27m636-94q2 8 2 11t1 9q0 17-7 31t-20 20q-10-13-24-23t-32-16-36-9-36-3-33 2-27 8-18 12-7 16q2 11 14 22t29 22 39 21 42 20q25 12 44 22t30 23 18 28 6 37q0 26-8 48t-25 39-39 25-52 10q-28 0-60-9t-61-23-47-34-19-41q0-10 6-25t21-33q1 15 16 36t44 38q28 16 57 23t55 7q28 0 45-7t28-17 14-19 4-16q0-10-9-20t-24-18-34-17-40-18q-32-14-55-27t-37-25-22-26-6-32q0-28 17-53t49-38q16-7 34-10t36-3q33 0 64 9t63 23m21 249q0-29 12-56t31-47 44-34 51-12q26 0 40 13t14 37q0 11-3 22t-9 19-12 14-14 5q-6 0-12-4t-10-9q33-31 33-56 0-14-11-14-10 0-25 9t-29 25q-22 24-33 53t-11 62q0 40 18 48 7-1 17-4t22-10 23-13 24-16q2 2 4 5t1 5q-8 11-19 21t-23 18-24 14-19 7q-17-1-31-10t-26-23-17-32-6-37m195 78q3-15 9-39t15-50 18-54 18-48q7-16 12-25t11-14q7 1 14 3t15 6 12 7 9 8q-14 16-24 36t-21 53q27-24 48-46t39-49q3-3 10-3 7 0 14 2t9 7q-9 24-9 47 0 22 6 33 0 3-7 12t-13 16q-14-7-24-20t-16-26q-23 16-40 32t-28 35-20 44-16 60q-4-1-11-4t-12-6-11-9-7-8m214-24q0-4 1-11t3-18 5-27 8-39q1-5 5-16t9-23 14-24 20-17q8 2 22 10t24 23q-11 13-19 26t-14 27-12 29-11 32q-6 14-10 28t-5 26q0 9-1 13t-2 4q-2 0-8-3t-13-8-11-13-5-19m96-217q0-3 1-9-2-2-4-7t-2-9q0-5 1-13t4-16 5-19 6-18q6 0 14 3t18 9 17 11 11 12q-5 6-14 15t-18 21-15 20-9 14q-6-1-11-6t-4-8m-15 416q-7-2-8-15-2-6-3-15t0-21q0-10 3-29t10-41 15-50 20-54q14-34 24-60t16-43 11-31 7-20q2-6 6-15t9-17 11-17 10-11q18 2 33 9t19 12q-7 7-16 20t-17 30-16 34-10 30q5-9 13-19t24-27q19-19 35-30t28-10q19 0 31 11t13 27q0 36-12 71t-35 64q-8 11-20 21t-24 17-24 13-22 4q-9 0-16-4t-9-9q20-11 38-32t34-47 28-58 18-63q-19 10-35 22t-30 31q-18 22-28 35t-18 23-11 18-9 20q-7 16-16 42t-19 59-20 69-18 74q-6-1-10-8-4-5-6-7t-4-3m341-357h-29q-2-3-4-13t-2-16q13 1 25 1t22 2q7-15 16-30t17-27 15-21 12-11q5 0 12 2t16 4 15 6 9 6q-15 19-26 35t-23 38q10 0 20-1t21-1q2 2 4 6t1 8q-24 9-59 10-13 24-23 47t-16 46-11 42-3 35q0 22 16 24 15-2 29-7t24-14q3 4 3 7-3 5-10 11t-16 11-16 10-12 5q-13-1-25-6t-23-12-17-17-6-18q0-12 3-31t9-39 14-45 18-47" />
</svg>