<svg id="fnt-Kavoon" viewBox="0 0 1798 1000" xmlns="http://www.w3.org/2000/svg"><path id="kavoon" class="f" d="M33 642q0-26 0-56t-1-40q-2-63-2-95 0-47 2-81l-32-5q-3-13-5-22t-1-20v-5q5-7 16-14t27-11 31-5q29 0 46 12t17 38q0 53-6 177l15-3q16-28 34-73t25-69l-30-5q-3-14-5-23t-1-19v-6q5-6 18-13t28-12 33-4q17 0 31 6t23 18 8 30q0 30-26 74t-62 86q12 25 25 47t25 33q5-2 10-7t12-12l5-6 30 23v5q0 39-19 63t-59 23q-14 0-27-4-19-5-32-22t-21-39-11-45q-12 3-32 5-2 41-5 95-20 11-44 11-21 0-40-8l0-22m383-136q14 0 31 3t32 7v-8q0-7 0-17t-1-12q-2-4-13-8t-33-5q-15 0-30 4t-34 9q-10-16-16-31t-6-31q0-4 1-9 39-31 102-31 35 0 62 8t44 30 17 64q0 40-9 78t-10 39l36-16q7 8 12 19t7 25q-3 7-15 19t-28 20-34 9q-21 0-31-12t-10-31q0-11 3-22l-8-2q-6 38-29 52t-49 15q-17 0-34-10t-26-29-11-44q0-41 21-62t59-21m27 93q6-1 15-7t15-13 8-15l-2-6q-13-2-27-2-13 0-17 2-8 9-8 20 0 7 4 14t12 7m189-126l-18-3q-4-11-6-25t-2-26q6-18 22-30t39-12q21 0 35 14t24 43q11 31 18 72t9 91l7 0q11-21 19-61t8-76l-30-5q-4-12-5-21t-1-21l0-6q5-7 15-14t24-11 30-5q63 0 63 64 0 37-13 80t-39 82-59 64q-12 5-33 5-11 0-24-5t-21-10l-5-17q-17-60-32-103t-25-64m276 49q0-44 14-76t44-51 73-18q49 0 77 19t39 50 11 79q0 42-15 75t-44 52-73 20q-66 0-96-41t-30-109m136 78q13 0 15-2 6-10 9-28t3-38q0-19-3-36t-6-26q-3-3-11-5t-18-1q-12 0-17 2-12 21-12 59 0 17 3 35t6 34q3 3 12 4t19 2m155-78q0-44 14-76t43-51 74-18q49 0 76 19t39 50 12 79q0 42-15 75t-45 52-72 20q-67 0-96-41t-30-109m136 78q12 0 15-2 5-10 8-28t3-38q0-19-2-36t-7-26q-3-3-11-5t-17-1q-13 0-17 2-13 21-13 59 0 17 3 35t7 34q3 3 12 4t19 2m178-18q0-40 1-60t5-60l-29-4q-5-16-6-28t-2-33q4-3 13-8t22-8 26-4q29 0 42 13t12 38q0 14-4 38-7 39-7 41 0 1 2 3t3 1q3 0 3-2 10-39 20-65t29-46 52-21q39 0 56 24t17 60q0 32-8 62t-19 63q1-2-3 9l1 1 35-15q19 16 22 43 0 2-10 14t-29 23-41 11-38-13-15-42q0-24 2-64t4-65q-6-7-15-7-9 11-26 44t-23 49q-1 4-1 7 0 12 4 33t9 38q-4 8-18 14t-34 6q-18 0-29-3t-15-7-4-4q0-2-1-11t-2-27-1-38" />
</svg>