<svg id="fnt-Kdam Thmor Pro" viewBox="0 0 3742 1000" xmlns="http://www.w3.org/2000/svg"><path id="kdam-thmor-pro" class="f" d="M110 667h-63v-397h63v169h81q4 0 5-2t2-5l69-162h63l-62 144q-10 22-17 34t-20 18q14 6 22 18t20 35l72 148h-67l-80-167q-1-3-2-5t-5-1h-81v173m427-421h61v421h-54l-6-35q-4 19-17 29t-38 10h-35q-37 0-55-15t-17-52v-174q0-40 18-56t61-15l82 1v-114m-94 376h87q7 0 7-7v-206l-94-1q-7 0-7 7v200q0 7 7 7m313 49h-32q-37 0-55-15t-17-52v-45q0-40 18-56t61-16h79v-69q0-7-7-7l-132 1v-52h119q43 0 62 16t19 59v232h-55l-5-35q-4 20-17 29t-38 10m-37-49h91v-91h-91q-7 0-7 7v77q0 7 7 7m324-266h29q29 0 46 9t23 31q9-40 57-40h28q38 0 55 15t18 53v243h-61v-255q0-7-6-7h-81q-6 0-6 7l-1 2q1 5 1 10v243h-61v-255q0-7-7-7h-81q-7 0-7 7l1 255h-61l0-306h54l4 31q10-36 56-36m561 311h-63v-342h-96v-55h255v55h-96v342m246-311h35q38 0 56 15t17 53v243h-61v-255q0-7-6-7h-88q-6 0-6 7l0 255h-60l-1-421h61v139q12-29 53-29m280 0h29q30 0 47 9t23 31q9-40 57-40h28q38 0 55 15t17 53v243h-60v-255q0-7-7-7h-80q-7 0-7 7l0 2q0 5 0 10v243h-61v-255q0-7-6-7h-82q-6 0-6 7l1 255h-61l-1-306h54l5 31q10-36 55-36m310 239v-163q0-41 20-59t66-17h54q46 0 66 17t20 59v163q0 42-20 59t-66 17h-54q-46 0-66-17t-20-59m159-188h-91q-7 0-7 7v200q0 7 7 7h91q6 0 6-7v-200q0-7-6-7m243-51h29v49h-75q-7 0-7 7l0 255h-60l-1-306h54l5 31q10-36 55-36m254 311h-63v-397l167-2q47-1 70 20t24 65v81q0 40-24 63t-70 23h-104v147m125-344h-125v143h125q8 0 8-8v-127q0-8-8-8m238 33h29v49h-76q-7 0-7 7l1 255h-60l-1-306h54l4 31q10-36 56-36m56 239v-163q0-41 20-59t66-17h54q46 0 66 17t20 59v163q0 42-20 59t-66 17h-54q-46 0-66-17t-20-59m159-188h-91q-7 0-7 7v200q0 7 7 7h91q6 0 6-7v-200q0-7-6-7" />
</svg>