<svg id="fnt-Kenia" viewBox="0 0 996 1000" xmlns="http://www.w3.org/2000/svg"><path id="kenia" class="f" d="M28 667v-363h8q12 0 23 2t21 10 14 18 6 30v243q0 19-6 30t-15 18-22 9-24 3h-5m171-121v121h-5q-13 0-26-3t-23-9-17-18-6-30v-121h8q12 0 25 3t22 9 16 19 6 29m5-180v47q0 30-13 49t-40 19q-10 0-18-4t-13-8-9-11-3-13 1-9 1-6q2 3 4 4t7 2q7-1 8-6t2-13v-113h6q11 0 22 2t22 8 16 19 7 33m107 118v183h-5q-12 0-23-3t-20-10-14-17-5-27v-135q0-27 13-45t43-17q20 0 33 10t13 33q0 7-2 11-7-6-15-6-11 0-15 7t-3 16m44 5v-76q3 0 5 0h5q27 0 42 13t15 40v27q0 34-17 51t-41 16h-4q-19-1-31-13t-11-28q0-2 0-4t2-6q4 4 7 6t10 2q11 0 15-9t3-19m65 129q0 14-5 23t-12 15-16 8-18 3q-25 0-36-13t-10-28q0-2 0-6t2-7q7 6 15 6 12-1 14-8t2-18v-18q8-2 18-2 13 0 22 4t14 10 8 15 2 16m159-11v-116q0-6-1-12t-3-10-7-7-11-2q-4 0-9 1t-7 4q-2-4-3-8t0-7q0-16 14-27t37-10q27 0 42 16t15 48v190h-3q-30 0-47-15t-17-45m-114 3v-197h5q26 0 44 14t18 44v196h-3q-12 0-23-3t-21-10-15-18-5-26m223-274q0-17 12-29t29-12 28 12 12 29-12 28-28 12-29-12-12-28m8 274v-197h5q26 0 44 14t18 44v196h-3q-12 0-23-3t-21-10-15-18-5-26m232-2v-117q0-6-1-12t-3-10-7-7-11-2q-4 0-9 1t-7 4q-2-4-3-8t0-7q0-16 13-27t33-10q30 0 46 15t16 44v195q-12 0-24-3t-21-10-16-18-6-28m-47-195v176q0 6 0 11t3 10 7 7 12 3q4 0 8-2t8-4q2 4 2 8t1 8q0 16-14 26t-32 11q-30 0-46-16t-16-40v-139q0-17 6-28t16-18 21-10 24-3" />
</svg>