<svg id="fnt-Khand" viewBox="0 0 1070 1000" xmlns="http://www.w3.org/2000/svg"><path id="khand" class="f" d="M35 667v-336h35v336h-35m61-168l70-168h38l-70 167 74 169h-39l-73-168m155 168v-360h35v87q29-13 58-13t48 17 18 49v220h-35v-216q0-37-37-37-25 0-51 13v240h-36m242-81v15q0 20 9 29t36 10 50-20v-93l-57 16q-22 6-30 16t-8 27m45-206q85 0 85 72v215h-34v-21q-26 23-61 23-70 0-70-69v-16q0-52 61-69l70-19v-44q-1-20-12-30t-44-9-61 10v-34q28-9 66-9m185 2v13q34-14 61-14t46 17 18 49v220h-35v-216q0-37-37-37-24 0-51 13v240h-36v-285h34m311 237v-204h-41q-48 0-48 43v136q0 42 41 42 30 0 48-17m0-237v-75h35v360h-34v-17q-23 18-56 18t-52-18-17-53v-140q0-35 21-55t56-20h47" />
</svg>