<svg id="fnt-Kiwi Maru" viewBox="0 0 2623 1000" xmlns="http://www.w3.org/2000/svg"><path id="kiwi-maru" class="f" d="M349 637q8-1 14 5t7 14-7 14-14 6q-15-2-27-3t-23 0-22 0-25 3q-8 0-15-6t-6-14 6-14 13-5q5 0 10 0t11 2h1q3 0 3-2t-1-4l-97-147q-2-4-6-1l-60 56q-2 2-2 5v89q0 4 4 4 8-1 15-1t14-1q8 0 13 6t6 13q0 9-7 14t-14 6q-14-2-25-3t-21 0q-10 0-21 0t-25 3q-8 0-15-6t-6-14 6-14 15-5l17 1q5 0 5-4v-291q0-5-5-4l-17 1q-8 1-14-5t-6-14 6-15 14-5q15 2 26 2t20 1q10 0 21-1t25-2q9-1 15 5t6 15-6 14-15 5q-6-1-13-1t-14-1q-4 0-4 4v143q0 3 1 4t4-1l156-144q2-2 2-3 0-3-4-3-6 0-13 1t-11 1q-9 1-15-5t-6-14 6-15 15-5q15 2 27 2t22 1 22-1 26-2q8-1 14 5t6 15q0 8-5 13t-14 6q-2 0-4 0t-4 0h-2q-2 0-4 2l-122 111q-3 3 0 7l115 176q1 3 6 3 5-1 11-1t11-1m115-270q-12 0-21-9t-9-21q0-13 9-21t21-9 21 9 9 21q0 13-9 21t-21 9m-43 309q-9 0-15-6t-6-14 6-14 15-5q4 0 9 1t11 1h1q3 0 3-5v-182q0-4-3-4-11 0-21 2-9 0-15-6t-6-14 6-14 15-5q14 1 19 1t8 1 5 0q13 0 21 9t9 21v191q0 5 4 5 5 0 10-1t11-1q8-1 14 5t6 14-6 14-14 6q-10-1-22-2t-22-1-22 1-21 2m536-265q8-1 13 4t6 13q0 8-6 13t-13 5l-15-1q-4 0-5 3l-70 212q-2 7-9 11t-13 5-14-5-8-11l-56-181q0-3-3-3-2 0-3 3l-56 180q-2 8-9 12t-13 5-14-5-8-12l-69-211q-1-3-6-3l-14 1q-7 0-13-5t-5-13q0-7 5-13t13-4q13 1 23 1t19 1 18-1 23-1q8-1 13 4t6 13-5 13-12 5q-6 0-13-1t-12-1q-6 0-4 5l53 164q1 3 3 3t3-4l53-177q2-9 9-14t15-5q9 0 15 5t10 14l53 177q1 4 3 4 2 0 3-3l53-164q0 0 0-1t0-1q0-3-3-3-7 0-13 1t-12 1q-7 0-12-5t-5-13 5-13 13-4q13 1 23 1t19 1 19-1 22-1m115-44q-13 0-22-9t-8-21q0-13 8-21t22-9 21 9 9 21q0 13-9 21t-21 9m-44 309q-8 0-15-6t-6-14 6-14 15-5q5 0 10 1t10 1h1q4 0 4-5v-182q0-4-4-4-11 0-21 2-8 0-15-6t-6-14 6-14 15-5q14 1 20 1t7 1 6 0q12 0 21 9t9 21v191q0 5 3 5 6 0 11-1t10-1q9-1 15 5t6 14-6 14-15 6q-10-1-21-2t-22-1-22 1-22 2m665-38l16-1q9-1 15 5t6 14-6 14-15 6q-14-2-25-3t-21 0q-9 0-20 0t-26 3q-8 0-14-6t-6-14 6-14 14-5q7 0 14 1t14 1q4 0 4-4v-270q0-3-2-4t-3 3l-108 251q-3 7-10 11t-13 5q-7 0-14-5t-9-11l-101-253q0-3-2-3-3 0-3 4v272q0 4 5 4 7-1 14-1t13-1q9-1 15 5t6 14-6 14-15 6q-14-2-25-3t-21 0-21 0-25 3q-8 0-15-6t-6-14 6-14 15-5l17 1h1q3 0 3-4v-291q0-5-4-4-5 0-9 1t-9 0q-8 0-13-6t-6-13q0-9 7-15t15-4q16 2 27 3t23 1q13 0 24 7t16 20l95 241q1 3 3 3 2 0 3-3l101-241q5-12 16-20t25-7q12 0 23-1t26-3q8-1 15 5t6 14-6 14-15 5l-15-1h-1q-4 0-4 4v291q0 5 5 4m317-1q8 0 13 6t5 13q0 9-6 15t-15 4q-7-1-14-2t-15-2q-10 0-18-6t-11-15q-2-5-5-2-17 13-37 20t-48 7q-33 0-55-19t-22-50q0-36 25-58t66-23q16 0 33 4t36 11q1 0 1 0t1 0q4 0 4-4v-20q0-35-19-53t-44-17q-16 0-34 7-3 2-2 6 1 5 1 9 0 11-8 20t-20 9q-14 0-22-10t-7-21q0-12 9-23 13-15 33-24t44-8q39 0 62 14t33 39 11 52v121q0 4 4 4 5 0 11-2t10-2m-151 2q29-1 49-9t38-28q2-2 2-5v-14q0-4-3-5-11-6-27-12t-43-6q-31 0-44 14t-13 32q0 12 6 19t16 11 19 3m434-211q3 6 3 12 0 12-8 20t-20 8q-9 0-16-5t-10-12q-2-3-6-3-18 1-34 14t-29 34-20 43q-1 2-1 5v94q0 4 4 4 6 0 11-1t12 0q7 0 12 5t5 12-5 13-14 5q-15-2-25-3t-18 0q-11 0-20 0t-24 3q-8 0-13-5t-6-13 5-12 12-5q5 0 11 0t11 1h1q4 0 4-4v-186q0-4-4-4-11 0-21 2-8 0-15-6t-6-14 6-14 15-5q11 1 16 2t12 0 16 0q8 0 13 6t5 13v29q0 3 2 3t4-1q15-22 35-37t49-18q3 0 6-1t6 0q13 0 24 5t15 16m308 210q9-1 15 5t6 14q0 8-6 13t-15 5q-7-1-15-2t-15-2q-13 0-22-9t-8-21v-7q0-3-2-4t-4 2q-15 19-34 31t-45 12q-34 0-60-18-11-8-22-24t-11-41v-144q0-4-3-4-6 0-12 1t-11 1q-7 0-12-5t-5-13 5-13 13-4q12 1 18 1t15 1q12 0 21 9t9 21v149q0 16 7 25t17 14 19 6 12 1q25 0 46-17t37-40q2-3 2-6v-127q0-4-4-4-5 0-12 1t-11 1q-7 0-12-5t-5-13 6-13 13-4q11 1 18 1t14 1q13 0 21 9t9 21v194q0 4 4 4 5 0 10-1t9-2" />
</svg>