<svg id="fnt-Knewave" viewBox="0 0 1972 1000" xmlns="http://www.w3.org/2000/svg"><path id="knewave" class="f" d="M90 312q10-23 27-17 5-11 9-14t8-5 8-3 14-4 21-2 23 2 20 6q20 12 9 37 1 0-1 1l-4 9-4 4q-2 3-15 31-11 20-22 39-18 34-22 43 18-9 41-27 43-34 55-40t17-8 9-1 10 3l12 5q12 4 13 29 1 24-10 37-45 59-102 79-18 6-36 11 26 3 50 35 20 26 28 53t14 41 4 20-8 11-26 8q-9 1-35-20-12-10-25-21t-26-21q-30-24-42-25-1 0-4-1l-9 23q-7 16-14 34t-17 33q-16 11-36 9-24-3-32-19-5-16 17-91 15-53 25-93t18-67 11-41 7-28q9-33 20-55m283 138q34-13 45 0 6 7 6 19v3q19-22 65-36 48-15 80-9 41 9 46 54 4 38-18 96-7 15-11 24t-6 17q-7 14-21 34-8 15-25 23t-33 9-26-5-6-20q11-31 19-56t15-44q8-25 2-32-4-5-15 2-10 6-14 14-9 6-34 52-7 12-14 24t-12 23-10 18-8 9-5 3-4 2-2 6q-2 12-24 17-36 9-64-3-10-4-15-11-12-23 39-156 18-47 24-56 12-19 16-22t10 1m417 143q-9 4-18 7t-21 5q-32 6-46 7 2 5 15 12 9 2 20-3t22-8 23-4 22 9q4 9 6 10t5 2 4 1 7 12-2 19-22 15-35 11-40 5q-45 4-69-7-34-11-44-45-13-45 15-105 12-28 39-60 24-28 53-41 33-14 70-13 39 1 54 34 7 17 3 49-8 41-21 58-13 16-40 30m-29-79q-26-6-41 30-5 9-7 20 17 2 36-19 7-9 10-18t2-13m333-30q-3 29-5 38t-3 17q-1 4 2 2t7-10 11-16 12-19q12-24 14-37 0-2 0-4t-1-7 1-14 7-15q12-13 36-10 21 1 28 5 14 8 25 27 6 12-6 55-15 53-47 122-9 18-17 30t-23 21-32 12q-38 8-64-7-4-3-8-6t-9-9q-18-24-20-66-8 26-18 41-16 21-39 42-25 14-56 12-11-1-19-5-7-6-10-10t-3-17q0-23 12-65 3-11 7-27t9-32q11-48 12-61t2-16q5-9 14-13t20-5 19 5 11 16h1v0q15 28 15 57 13-18 23-27t21-12q15-6 22-7t17-3 18-1q19 1 14 19m346-32l2 1q1 0 1 0 13-5 22 8 5 8 8 26 1 24-5 66-11 86-12 103 1 17-22 24-19 6-39-1-20-7-17-21-4 7-8 10t-16 9-33 10-43 2-39-11-24-27q-11-36 3-91 10-37 36-65 30-32 68-53 29-15 55-18 9-1 16 0t14 3 15 5q18 7 18 20m-92 133q3-7 5-18t7-23q-41 17-62 41-24 26 3 36 23 6 33-7 5-6 8-15t9-19q-2 3-3 5m242-140q2 30 4 60t6 60q9-18 17-39t17-40q21-47 47-69 16-18 48-18 19 0 24 12 3 6-1 16 24 18 10 41-4 6-8 11-21 36-39 66-30 51-53 87-8 12-23 26t-31 26q-40 26-63 9-16-2-29-10t-21-21q-10-27 5-126 4-22 5-33t2-20 3-17 2-16 4-15q9-16 31-18h6q9 2 17 5 14 5 18 19 1 1 2 4m318 148q-9 4-18 7t-21 5q-32 6-46 7 2 5 15 12 9 2 20-3t22-8 23-4 22 9q4 9 6 10t5 2 4 1 7 12-2 19-22 15-35 11-40 5q-45 4-69-7-34-11-44-45-13-45 15-105 12-28 39-60 24-28 53-41 33-14 70-13 39 1 54 34 7 17 3 49-8 41-21 58-13 16-40 30m-29-79q-26-6-41 30-5 9-7 20 17 2 36-19 7-9 10-18t2-13" />
</svg>