<svg id="fnt-Kodchasan" viewBox="0 0 2689 1000" xmlns="http://www.w3.org/2000/svg"><path id="kodchasan" class="f" d="M298 671q-14 0-18-15-16-60-49-101t-90-73l-63 51v119q0 9-5 14t-14 6q-8 0-13-6t-5-14v-320q0-10 5-15t13-5q9 0 14 5t5 15v158l200-172q5-4 11-4 7 0 12 5 5 5 5 12 0 7-6 12l-133 117q65 38 101 85t46 105l1 4q0 8-5 13t-12 4m191 1q-44 0-75-18t-47-47-15-63 15-63 47-47 75-17 74 17 46 47 16 63-16 63-46 47-74 18m0-32q45 0 72-25t27-71-27-70-72-26q-46 0-73 26t-27 70 27 71 73 25m314 32q-62 0-98-34t-36-92q0-37 16-67t46-46 73-16q36 0 61 13t45 38l0-161q0-9 5-15t14-5q8 0 13 5t5 15v345q0 9-5 14t-13 6-14-6-5-14v-32q-17 25-45 38t-62 14m3-32q48 0 76-26t28-70q0-29-14-51t-38-33-52-12q-47 0-73 27t-27 71q0 47 26 70t74 24m332 32q-40 0-71-16t-47-45-16-67q0-38 16-67t47-45 71-15q37 0 65 10t43 31q4 6 4 11 0 7-7 13-4 3-9 3-9 0-16-7-27-30-80-30-47 0-72 25t-25 71q0 45 25 71t72 25q25 0 47-8t35-22q9-8 16-8 5 0 10 4 7 6 7 13 0 6-5 11-25 22-51 32t-59 10m191 0q-9 0-14-6t-4-14v-345q0-9 4-15t14-5 13 5 5 15v159q19-24 45-37t57-12q48 0 73 26t26 76v133q0 9-5 14t-13 6q-9 0-14-6t-4-14v-133q0-71-67-71-44 0-71 26t-27 69v109q0 9-5 14t-13 6m378 0q-49 0-77-22t-27-59q0-38 29-60t80-22q29 0 52 8t35 22v-32q0-29-19-44t-54-15q-47 0-81 22-8 5-14 5-5 0-10-4-5-4-5-11 0-8 6-13 18-14 46-22t57-8q53 0 82 24t29 67v144q0 20-18 20-8 0-13-6t-5-13v-18q-31 37-93 37m5-31q39 0 63-15t25-38-23-36-64-13q-35 0-54 13t-19 39q0 24 18 37t54 13m298 31q-35 0-66-14t-49-36q-3-5-3-10t2-9 8-6q4-1 6-1 5 0 8 2t8 7q32 35 86 35 26 0 42-9t16-25q0-12-6-19t-21-14-48-17q-33-11-51-21t-28-23-9-31q0-29 25-47t68-17q31 0 57 10t40 29q4 6 4 11 0 7-8 12-5 3-10 3-8 0-16-8-13-13-28-19t-40-6q-26 0-40 8t-14 24q0 12 5 18t19 12 45 16q36 12 55 23t29 24 9 32q0 30-27 48t-68 18m244 0q-49 0-77-22t-28-59q0-38 29-60t80-22q30 0 52 8t36 22v-32q0-29-19-44t-55-15q-46 0-80 22-9 5-14 5-5 0-10-4-6-4-6-11 0-8 7-13 18-14 45-22t57-8q53 0 82 24t30 67v144q0 20-18 20-8 0-13-6t-5-13v-18q-31 37-93 37m4-31q39 0 64-15t24-38-23-36-64-13q-35 0-54 13t-19 39q0 24 19 37t53 13m211 31q-9 0-14-6t-4-14v-215q0-10 4-15t14-5q8 0 13 5t5 15v29q18-24 44-37t58-12q48 0 73 26t26 76v133q0 9-5 14t-13 6q-9 0-14-6t-4-14v-133q0-71-67-71-44 0-71 26t-27 69v109q0 9-5 14t-13 6" />
</svg>