<svg id="fnt-Konkhmer Sleokchher" viewBox="0 0 5420 1000" xmlns="http://www.w3.org/2000/svg"><path id="konkhmer-sleokchher" class="f" d="M108 667h-76v-364h76v160h5l131-160h92l-135 163 137 201h-92l-100-150-38 46v104m390 5q-41 0-71-18t-47-49-16-74q0-42 16-74t47-49 71-18q42 0 72 18t46 49 17 74q0 42-17 74t-46 49-72 18m-57-141q0 36 15 59t43 23q28 0 42-23t15-59-15-59-42-23q-29 0-43 23t-15 59m317-22v158h-76v-273h75v48h2q10-24 30-38t50-14q43 0 69 28t26 75v174h-76v-161q0-25-13-39t-35-14q-23 0-38 15t-14 41m236 158v-364h76v194h4l87-103h87l-101 118 106 155h-88l-75-110-20 23v87h-76m367-158v158h-76v-364h73v139h4q9-24 29-38t52-14q43 0 68 28t26 75v174h-75v-161q0-25-13-39t-36-14q-23 0-38 15t-14 41m313 158h-76v-273h72v48h3q9-24 29-38t47-14q28 0 48 14t26 38h3q8-23 30-38t52-14q38 0 62 24t24 69v184h-75v-169q0-23-12-34t-31-11q-20 0-32 13t-11 34v167h-74v-171q0-20-11-31t-30-12q-19 0-32 14t-12 36v164m505 5q-42 0-72-17t-47-49-16-75q0-42 16-73t46-50 70-18q36 0 65 16t46 46 17 77v20h-186q2 31 18 49t44 18q19 0 33-8t19-24l70 5q-8 37-40 60t-83 23m-60-169h113q-3-26-17-41t-39-15q-25 0-40 15t-17 41m311 164h-76v-273h73v48h3q8-26 25-39t41-13q5 0 12 1t11 2v67q-5-2-14-3t-18-1q-25 0-41 15t-16 41v155m381 5q-66 0-106-30t-41-90h75q1 28 21 42t50 13q29 0 47-12t18-33q0-18-17-28t-45-17l-40-10q-46-11-73-35t-26-64q0-33 18-58t49-38 71-14q40 0 70 14t48 38 17 57h-74q-2-21-18-33t-44-12q-28 0-43 12t-15 29q0 20 17 29t40 16l33 8q31 7 56 21t39 34 14 52q0 50-37 79t-104 30m191-369h76v364h-76v-364m260 369q-42 0-72-17t-46-49-17-75q0-42 16-73t46-50 70-18q36 0 65 16t46 46 18 77v20h-186q1 31 18 49t44 18q18 0 32-8t19-24l70 5q-8 37-40 60t-83 23m-60-169h113q-2-26-16-41t-39-15q-26 0-41 15t-17 41m358 169q-41 0-71-18t-46-49-17-74q0-42 17-74t46-49 71-18q42 0 72 18t46 49 17 74q0 42-17 74t-46 49-72 18m-57-141q0 36 15 59t43 23q28 0 42-23t15-59-15-59-42-23q-29 0-43 23t-15 59m241 136v-364h76v194h4l87-103h87l-101 118 106 155h-88l-75-110-20 23v87h-76m414 5q-42 0-72-18t-46-49-16-74q0-42 16-73t46-50 72-18q35 0 62 13t43 37 17 55h-72q-3-20-15-33t-34-13q-26 0-42 21t-16 60q0 39 16 61t42 22q19 0 33-12t16-34h72q-2 31-17 55t-42 37-63 13m246-163v158h-75v-364h73v139h3q10-24 30-38t52-14q42 0 68 28t26 75v174h-75v-161q0-25-13-39t-36-14q-23 0-38 15t-15 41m313 0v158h-75v-364h73v139h3q10-24 30-38t52-14q42 0 68 28t26 75v174h-75v-161q0-25-13-39t-36-14q-23 0-38 15t-15 41m362 163q-42 0-72-17t-47-49-16-75q0-42 16-73t46-50 69-18q36 0 66 16t46 46 17 77v20h-186q1 31 18 49t44 18q19 0 32-8t20-24l70 5q-8 37-41 60t-82 23m-60-169h113q-3-26-17-41t-39-15q-25 0-40 15t-17 41m310 164h-75v-273h73v48h3q7-26 25-39t40-13q6 0 12 1t12 2v67q-5-2-15-3t-17-1q-25 0-41 15t-17 41v155" />
</svg>