<svg id="fnt-Kosugi" viewBox="0 0 1401 1000" xmlns="http://www.w3.org/2000/svg"><path id="kosugi" class="f" d="M63 665h-43v-376h43v177l110-177h51l-96 145 109 231h-53l-83-190-38 57v133m312 3q-31 0-52-11t-33-29-17-44-5-52q0-38 10-67t34-48 65-17q29 0 49 11t32 31 18 43 6 49q0 26-6 50t-18 43-33 30-50 11m0-38q20 0 33-9t19-23 10-30 2-34-2-33-10-31-20-23-33-8q-20 0-32 8t-19 23-10 31-2 33q0 17 2 34t10 30 19 23 33 9m257 38q-46 0-70-18t-36-63h50q4 23 19 34t38 10q19 0 33-7t14-29q0-12-11-21t-27-16-36-15-35-17-28-23-10-32q0-25 13-41t34-23 43-7q78 0 95 78h-49q-3-21-16-31t-33-10q-16 0-30 7t-13 25q0 10 10 19t25 16 29 12 20 8q18 7 32 16t23 21 8 34q0 26-14 42t-34 24-44 7m219 0q-43 0-60-24t-18-64v-177h41v173q0 22 9 38t33 16q21 0 39-11t29-28 12-38v-150h41v262h-41v-45q-16 21-37 35t-48 13m272 59q-15 0-33-2t-35-8-28-17-10-32q0-23 15-37t35-21q-9-4-18-11t-9-19q0-13 11-22t22-12q-19-11-30-27t-11-37q0-27 14-45t35-27 45-10q36 0 62 23 11-10 24-16t28-7v42q-8 0-17 1t-16 4q3 9 6 18t2 19q0 25-13 43t-33 25-44 8q-6 0-12-1t-13-1q-5 0-13 4t-8 11q0 6 11 10t28 7 37 8 36 12 28 21 11 34q0 21-10 33t-28 19-35 8-34 2m2-201q22 0 37-11t14-35q0-24-14-35t-37-10q-20 0-37 12t-17 35 17 33 37 11m-7 166q7 0 20-1t24-3 21-9 8-17q0-14-12-22t-23-10q-5-2-13-4t-16-5-14-1q-10 0-24 4t-23 14-10 22q0 11 6 18t17 9 21 4 18 1m282-353h-50v-50h50v50m-4 326h-42v-262h42v262" />
</svg>