<svg id="fnt-Kulim Park" viewBox="0 0 2212 1000" xmlns="http://www.w3.org/2000/svg"><path id="kulim-park" class="f" d="M111 489l143 178h-46l-125-145-18 10v135h-40v-351h40v164l140-164h50l-144 173m382-72v250h-39v-26q-10 15-29 22t-40 8-43-5-36-19q-15-13-23-33t-8-46v-151h40v151q0 34 19 50t51 16q16 0 31-7t27-22 11-37v-151h39m90-100v350h-40v-350h40m76 67q-11 0-19-8t-7-19 7-19 19-7 19 7 8 19-8 19-19 8m19 33v250h-37v-250h37m438 102v148h-39v-148q0-34-18-50t-45-17q-29 0-48 17t-19 50v148h-39v-148q0-35-19-51t-47-16q-15 0-31 7t-26 22-10 38v148h-39v-250h39v25q13-14 30-21t37-7q24 0 48 9t40 31q13-20 37-30t49-10q26 0 49 12t37 36 14 57m275 148h-40l1-350h133q26 0 46 14t31 37 12 50q0 19-8 36t-19 33-29 23-34 9h-93v148m0-311v125h92q14 0 25-10t19-23 8-30q0-17-7-31t-18-23-26-8h-93m280 313q-35-1-59-20t-23-54q0-38 22-59t60-27 85 2v-18q0-17-11-28t-29-13-36-1-35 11-25 23l-25-26q16-19 38-29t46-14 47 2 39 16q17 10 23 26t7 36 1 44v127h-40v-24q-18 14-41 20t-44 6m84-61v-66q-59-7-94 4t-35 48q0 16 9 25t24 12 32 1 35-8 29-16m131 59h-40v-247h40v23q16-19 40-23t62 7l-19 35q-22-8-42-3t-30 18-11 28v162m182 0h-40v-350h40v183l83-80h55l-103 102 108 145h-46l-93-118-4 8v110" />
</svg>