<svg id="fnt-Kumar One Outline" viewBox="0 0 5583 1000" xmlns="http://www.w3.org/2000/svg"><path id="kumar-one-outline" class="f" d="M165 287v360h35v20h-190v-20h40v-360h-40v-20h190v20h-35m234 360h35v20h-57-101l-93-191v-19l138-170h-45v-20h72 51v20h-51l-137 170h96l92 190m-326-360v360h70v-360h-70m217 360h85l-83-170h-85l83 170m487 0h40v20h-109l-35-36-35 36h-112l-47-47v-233h-40v-20h106l47 46v234h35l35-35v-236-9h68l47 46v234m-275-35l35 35h32v-225l-35-35h-32v225m182 0l35 35h35v-225l-35-35h-35v225m680 35h40v20h-111l-41-42v-238h-35l-35 35v225h30v20h-145v-280h-35l-35 35v225h30v20h-185v-20h40v-260h-40v-20h108l36 35 35-35h114l36 35 35-35h112l46 46v234m-460 0h70v-225l-35-35h-35v260m185 0h70v-225l-35-35h-35v260m185-30l30 30h38v-225l-35-35h-33v230m460 30h40v20h-113l-30-31-31 31h-109l-42-42v-77l42-41h128v-120h-52v80h-105v-59l41-41h190l41 41v239m-190-200v-60h-30l-30 30v30h60m98 170l30 30h40v-230l-30-30h-40v230m-170 0l30 30h42v-120h-42l-30 30v60m117 30l30-30v-90h-52v120h22m449-280l36 36-15 16-32-32h-43l-35 35v225h40v20h-108l-47-47v-233h-40v-20h109l35 35 35-35h65m-146 280h35v-225l-35-35h-35v225l35 35m613-380l52 51v297l-52 52h-224l-52-52v-297l52-51h224m-253 340l40 40h30v-360h-30l-40 40v280m190-320h-98v360h98v-360m92 320v-280l-40-40h-30v360h30l40-40m398 40h40v20h-114l-41-42v-238h-35l-35 35v225h25v20h-180v-20h40v-260h-40v-20h108l36 35 35-35h114l47 46v234m-278 0h70v-225l-35-35h-35v260m185-30l30 30h40v-225l-35-35h-35v230m440-12l15 15-46 47h-195l-46-47v-207l46-46h192l47 46v82l-47 47h-123v105h115l42-42m-250 7l35 35h35v-260h-35l-35 35v190m93-225v135h55v-135h-55m147 35l-35-35h-35v135h35l35-35v-65m474-155l51 51v297l-51 52h-225l-51-52v-297l51-51h225m-254 340l40 40h30v-360h-30l-40 40v280m190-320h-97v360h97v-360m93 320v-280l-40-40h-30v360h30l40-40m395 40h40v20h-109l-35-36-35 36h-112l-47-47v-233h-40v-20h106l47 46v234h35l35-35v-236-9h68l47 46v234m-275-35l35 35h32v-225l-35-35h-32v225m182 0l35 35h35v-225l-35-35h-35v225m360-7l15 15-46 47h-100l-46-47v-318h-35v-20h101l41 41v74h70v20h-70v230h28l42-42m-155 7l35 35h28v-315l-30-30h-33v310m330 35h35v20h-103l-47-47v-373h-35v-20h104l46 46v374m-92-35l35 35h35v-365l-35-35h-35v365m315-361l-77 76-76-77 77-76 76 77m-76-47l-47 46 46 47 47-46-46-47m63 443h40v20h-108l-47-47v-233h-40v-20h109l46 46v234m-92-35l35 35h35v-225l-35-35h-35v225m492 35h40v20h-113l-42-42v-238h-35l-35 35v225h25v20h-180v-20h40v-260h-40v-20h109l35 35 35-35h115l46 46v234m-277 0h70v-225l-35-35h-35v260m185-30l30 30h40v-225l-35-35h-35v230m439-12l16 15-47 47h-194l-47-47v-207l47-46h192l46 46v82l-46 47h-124v105h115l42-42m-249 7l35 35h35v-260h-35l-35 35v190m92-225v135h55v-135h-55m148 35l-35-35h-35v135h35l35-35v-65" />
</svg>