<svg id="fnt-Kurale" viewBox="0 0 1413 1000" xmlns="http://www.w3.org/2000/svg"><path id="kurale" class="f" d="M24 667l-6-16 11-2q18-6 23-14t6-28v-205q0-21-6-30t-23-12l-11-3 6-15h99l6 7-6 8q-11 15-16 31t-4 44v178q0 19 5 27t22 13l9 2-4 15h-111m229 6q-20 0-34-11t-26-33l-54-98q-5-9-10-13t-14-8q-1-1-1-5 0-11 9-11h10l62-91q6-9 7-15t2-11-3-12-3-8l-3-8 8-7h82l6 15-11 3q-11 2-19 7t-16 17l-82 118q20 9 32 29l57 104q6 8 9 10t9 3q9 0 17-6l8 13q-18 18-42 18m165 0q-32 0-50-20t-18-55v-113q0-11-9-11h-21l-3-11q11-12 28-19t31-8q6 0 10 4t5 10v137q0 27 11 41t32 15q31 0 48-27t17-72q0-33-4-52t-14-37l-6-7 6-6 56-6v191q0 14 12 14 11 0 22-8l9 11q-11 13-25 21t-25 8q-18 0-26-11t-8-33q-11 21-32 32t-46 12m198-6l-4-14 8-3q12-2 16-9t4-25v-127q0-5-2-8t-7-2h-20l-4-12q13-12 30-19t30-8q6 0 10 4t4 10v50h3q8-31 24-49t35-19 31 12 13 34q0 17-13 29t-31 11q-9 0-9-4 0-2 3-7t6-11 3-13q0-9-4-14t-11-4q-10 0-22 13t-20 41-8 73q0 20 3 33t12 24l5 7-5 7h-80m273 6q-22 0-41-13t-30-37-11-60q0-59 31-93t86-34q18 0 49 6 23 4 42 5l6 6-7 8q-3 6-5 9t-1 9v148q0 14 15 14 11 0 22-8l9 11q-12 14-26 21t-24 8q-19 0-28-11t-8-37q-18 27-38 37t-41 11m17-35q38 0 62-41v-123q-20-13-44-13-33 0-51 24t-18 69q0 43 14 63t37 21m233 35q-19 0-27-11t-8-37v-264q0-5-2-8t-7-2h-20l-4-11q13-12 30-20t30-8q7 0 11 4t4 11l-1 300q0 7 3 11t10 4q13 0 23-9l9 11q-12 13-26 21t-25 8m181 0q-31 0-55-14t-36-41-13-61q0-36 14-63t41-43 62-15q37 0 57 20t21 47q0 19-11 36t-30 29-46 11q-15 0-32-6t-18-15q0-4 2-7t5-3q1 0 9 2t20 3q28 0 43-15t15-36q0-18-12-31t-31-13q-30 0-46 26t-16 73q0 41 17 63t50 23q40 0 66-26 1-1 4-1 4 0 8 4t4 8q0 2-1 3t-1 2q-17 20-40 30t-50 10" />
</svg>