<svg id="fnt-Radio Canada Big" viewBox="0 0 3873 1000" xmlns="http://www.w3.org/2000/svg"><path id="radio-canada-big" class="f" d="M165 537h-102v-48h97q37 0 55-15t18-45-18-45-55-14h-97v-48h102q55 0 89 28t33 79q0 50-33 79t-89 29m-75 130h-52v-345h52v345m205 0h-62l-93-150h57l98 150m258 0h-51q-3-13-5-27t-1-26v-112q0-33-17-47t-40-14q-22 0-37 11t-21 36l-47-16q11-36 40-56t68-19q49 0 76 26t28 73v112q0 29 7 59m-148 5q-34 0-55-20t-21-51q0-30 20-52t63-29l94-16v39l-77 15q-27 5-38 15t-12 25q0 11 10 21t30 10q19 0 36-9t29-25 12-39h16q0 36-15 62t-39 40-53 14m298 0q-31 0-55-17t-37-47-14-74 14-74 37-47 55-16q42 0 67 30t26 85v44q0 55-26 85t-67 31m14-44q30 0 48-23t19-71-19-71-48-22-49 22-19 71 19 71 49 23m115 39h-50v-62l7-71-7-71v-154h50v358m115 0h-50v-265h50v265m-25-301q-13 0-22-9t-9-22q0-14 9-22t22-9 22 9 9 22q0 14-9 22t-22 9m197 306q-35 0-63-17t-42-48-16-73q0-42 16-73t42-47 63-17q36 0 63 17t43 47 16 73q0 42-16 73t-43 48-63 17m0-45q32 0 51-23t19-70-19-70-51-22q-31 0-50 22t-19 70 19 70 50 23m423 45q-44 0-78-22t-53-61-19-95q0-55 19-95t53-61 78-21q36 0 64 12t48 37 28 59l-52 14q-8-37-31-55t-58-19q-43 0-69 33t-26 96q0 62 26 96t69 33q37 0 59-19t32-56l52 14q-9 36-29 60t-49 37-64 13m405-5h-51q-3-13-5-27t-2-26v-112q0-33-17-47t-40-14q-21 0-36 11t-21 36l-47-16q11-36 39-56t68-19q50 0 77 26t27 73v112q0 29 8 59m-148 5q-35 0-56-20t-20-51q0-30 20-52t63-29l93-16v39l-77 15q-26 5-38 15t-11 25q0 11 9 21t31 10q18 0 36-9t29-25 11-39h17q0 36-15 62t-39 40-53 14m427-5h-50v-155q0-35-18-53t-43-18-43 18-18 53h-16q0-35 12-61t35-40 49-14 48 12 32 36 12 56v166m-172 0h-50v-265h50v265m448 0h-51q-3-13-5-27t-1-26v-112q0-33-17-47t-40-14q-22 0-37 11t-21 36l-47-16q11-36 40-56t68-19q49 0 76 26t28 73v112q0 29 7 59m-148 5q-34 0-55-20t-21-51q0-30 20-52t63-29l94-16v39l-77 15q-27 5-38 15t-12 25q0 11 10 21t30 10q19 0 36-9t29-25 12-39h16q0 36-15 62t-39 40-53 14m298 0q-31 0-55-17t-37-47-14-74 14-74 37-47 55-16q42 0 67 30t26 85v44q0 55-26 85t-67 31m14-44q30 0 48-23t19-71-19-71-48-22-49 22-19 71 19 71 49 23m115 39h-50v-62l7-71-7-71v-154h50v358m276 0h-51q-3-13-5-27t-2-26v-112q0-33-17-47t-40-14q-21 0-36 11t-21 36l-47-16q11-36 39-56t68-19q50 0 77 26t27 73v112q0 29 8 59m-148 5q-35 0-56-20t-20-51q0-30 20-52t63-29l93-16v39l-77 15q-26 5-38 15t-11 25q0 11 9 21t31 10q18 0 36-9t29-25 11-39h17q0 36-15 62t-39 40-53 14m459-5h-114v-47h106q38 0 55-15t17-39q0-27-17-41t-55-15h-106v-34h111q58 0 89 26t32 68q0 43-31 70t-87 27m-86 0h-53v-345h53v345m80-172h-108v-28h103q33 0 48-14t16-37-16-35-48-13h-103v-46h111q33 0 57 11t38 32 14 47q0 36-29 59t-83 24m224 172h-50v-265h50v265m-25-301q-13 0-22-9t-9-22q0-14 9-22t22-9 22 9 9 22q0 14-9 22t-22 9m191 393q-42 0-69-17t-39-43l47-20q9 18 24 27t39 8q17 0 32-7t26-23 10-44v-47l7-71-7-71v-49h50v241q0 41-17 66t-44 38-59 12m-9-112q-31 0-55-16t-37-43-14-66 14-66 37-44 55-15q42 0 66 27t25 76v44q0 47-25 75t-66 28m14-44q30 0 48-20t19-61-19-61-48-20-49 20-19 61 19 61 49 20" />
</svg>