<svg id="fnt-Radley" viewBox="0 0 1512 1000" xmlns="http://www.w3.org/2000/svg"><path id="radley" class="f" d="M170 534q-6-8-10-13t-10-6-15-3l-16-1v94q0 18 3 26t9 11 15 5q8 1 14 2t12 5l0 13h-155l0-13q6-4 12-5t13-3q10-2 15-4t7-13 3-30v-185q0-17-3-26t-8-12-18-7q-12-3-21-8l0-12h113q45 0 79 4t62 22 27 55q0 23-13 40t-33 26-43 13q3 4 29 40 19 28 33 46t27 34q8 9 14 14t16 8 24 2v14q-24 6-43 6-26 0-48-16t-37-37-36-56q-12-20-18-30m-51-39h13q31 0 54-4t38-17 17-41q0-31-18-45t-41-18-57-3h-6v128m386 23q0-18-4-31t-13-21-28-7q-6 0-16 2t-16 8-7 12q0 2 1 5t3 6q2 4 3 7t1 5q0 10-6 17t-16 6q-12 0-19-9t-7-22q0-19 15-31t36-19 39-5q34 0 51 10t23 29 5 55l0 12q0 5-1 18t0 23q0 54 11 54 9 0 22-16l10 11q-11 17-21 26t-28 9q-16 0-26-11t-12-26q-15 17-35 27t-41 10q-15 0-28-6t-20-16-8-27q0-23 18-38t41-24 57-16q2 0 16-4v-23m0 38q-4 1-10 2-21 7-36 14t-26 16-12 25q0 14 8 23t22 8 28-7 26-19v-62m294-176q-3-5-13-10t-17-8-12-4l1-9 69-17 17-1v287q0 15 13 21t27 6v14l-65 11h-17l-2-38q-17 20-36 30t-41 10q-28 0-51-14t-36-37-13-55q0-36 15-65t41-44 58-16q14 0 29 5t33 13v-79m0 162q0-24-4-38t-17-26q-10-8-21-13t-23-5q-19 0-34 13t-23 33-8 44q0 23 8 45t24 34 40 13q19 0 33-8t25-22v-70m188-211v279q0 20 8 31t28 13q0 4 0 8t0 5h-120l-1-13q3-1 6-2t7-2q11-3 17-7t7-11q2-10 2-21l0-230q-3-5-12-9t-17-8-11-4l0-9 68-19 18-1m112 207q0 3 0 7 0 31 11 52t30 30 42 10q31 0 59-17l7 6q-6 15-19 25t-32 15-33 6q-31 0-56-15t-38-40-14-59q0-34 15-61t40-42 53-14q23 0 42 9t30 26 15 39q3 12 3 21v2h-155m88-15q11-1 18-4-1-29-13-46t-34-16q-16 0-28 9t-20 26-10 34l87-3m123-30q-6-13-11-20t-10-9-11-3q-4 0-7-1v-13h115q0 2 1 8t0 6q-16 3-24 7t-7 11q0 6 3 16l48 120 42-113q4-10 4-17 0-10-8-16t-24-8q0-2 0-6 0-3 0-5t0-3h89l1 13q-4 3-11 5-6 3-11 5t-8 9-7 15l-86 213q-11 27-26 42t-37 14q-17 0-27-8t-11-20q0-10 7-16t16-7q9 0 13 3t8 9q3 4 6 6t8 3q8 0 13-7t12-18 14-37l2-4-76-174" />
</svg>