<svg id="fnt-Rammetto One" viewBox="0 0 4698 1000" xmlns="http://www.w3.org/2000/svg"><path id="rammetto-one" class="f" d="M277 400q0-34-26-34-11 0-30 8l-33 13v96q89-33 89-83m145 4q0 78-77 124l106 139h-193l-69-113v113h-159v-390q155-11 203-11t73 6q69 15 99 68 17 29 17 64m87 236q-19-19-31-46t-11-60 6-55q13-47 44-79 15-15 34-26 38-22 80-22t75 28q10 9 18 21l35-38h80v304h-80l-35-51q-40 59-122 59-22 1-48-8t-45-27m198-98v-87q-9-5-21-5t-26 9-24 22q-24 29-24 60 0 21 13 30 12 8 37-2t45-27m513-137q42-53 106-53 18 0 36 7t33 21q30 31 30 80v207h-142v-157q0-30-9-47t-23-17-17 17q-1 4-1 11v193h-139v-157q0-30-10-47t-22-17q-20 0-20 31v190h-145v-304h80l35 48q18-27 51-43t67-16q45 0 74 30 10 10 16 23m585 0q42-53 106-53 17 0 36 7t33 21q30 31 30 80v207h-142v-157q0-30-9-47t-23-17-17 17q-1 4-1 11v193h-139v-157q0-30-10-47t-23-17q-19 0-19 31v190h-145v-304h80l35 48q18-27 51-43t67-16q45 0 74 30 10 10 16 23m460 51l0-6q0-21-20-21-23 2-29 23-4 11-5 24t-4 29l53-12 5-37m-33 105t-13 0q-6 0-12 0 0 29 31 31 8 1 16 1 21 0 53-9t56-31l15 76q-55 47-165 47-63 0-108-37-50-40-50-112 0-53 28-96 26-39 70-60t96-20q66 0 100 29t34 72-41 76-110 33m432 22v62q-47 31-98 31t-85-29-32-79v-127h-28v-78h28v-82l146-15v97h69v78h-69v76q0 35 15 50t54 16m274 0v62q-46 31-98 31t-84-29-33-79v-127h-28v-78h28v-82l146-15v97h69v78h-69v76q0 35 16 50t53 16m255-133q-5-3-12-3t-17 5-18 12q-20 17-32 40t-13 44 15 27q5 2 13 2t16-5 17-13q18-16 32-40t13-44-14-25m-47 226q-70 0-120-45-54-46-54-118t50-116 125-45 125 44 51 119q0 47-25 84t-65 56-87 21m622-251q0-41-39-41-18 0-39 21-31 33-44 78-3 14-3 26 0 40 41 40 16 0 37-22 30-32 43-78 4-14 4-24m-67 251q-86 0-150-56-20-18-35-41-32-48-32-109t29-106 79-72 102-26 93 14 71 41 47 64 17 87q0 60-31 107t-81 72-109 25m433-230q-19 0-19 31v190h-145v-304h80l35 48q19-28 54-43t64-16q56 0 88 29t32 79v207h-146v-147q0-74-43-74m444 10l1-6q0-21-20-21-23 2-30 23-4 11-5 24t-4 29l53-12 5-37m-32 105t-14 0q-6 0-12 0 0 29 31 31 9 1 17 1 20 0 52-9t56-31l15 76q-54 47-164 47-64 0-109-37-49-40-49-112 0-53 27-96 26-39 71-60t95-20q66 0 100 29t34 72-40 76-110 33" />
</svg>