<svg id="fnt-Rammetto One" viewBox="0 0 4679 1000" xmlns="http://www.w3.org/2000/svg"><path id="rammetto-one" class="f" d="M189 667h-159v-390t15-1 40-3 55-3 58-3 52-1q47 0 80 12t53 33 30 44 9 49q0 43-22 74t-55 50l106 139h-193l-69-113v113m-1-280v96q48-18 68-39t21-44q0-20-7-27t-19-7q-7 0-14 2t-16 6l-33 13m279 142q0-40 13-73t37-56 53-36 63-12q26 0 51 13t40 36l35-38h80v304h-80l-35-51q-19 28-51 44t-65 16q-37 0-70-16t-52-49-19-82m145 12q0 12 6 22t18 11q12 0 31-7t40-25v-87q-9-5-19-5-14 0-28 9t-24 21-17 30-7 31m482 126v-157q0-33-11-48t-21-16q-11 0-16 9t-4 22v190h-145v-304h80l35 48q12-19 32-32t41-20 45-7q29 0 53 14t37 39q20-25 47-39t56-14q28 0 51 13t37 37 14 58v207h-142v-157q0-33-10-48t-21-16q-10 0-14 8t-5 20v193h-139m585 0v-157q0-33-11-48t-22-16q-11 0-15 9t-4 22v190h-145v-304h80l35 48q12-19 32-32t41-20 45-7q29 0 53 14t37 39q20-25 47-39t55-14q29 0 52 13t37 37 14 58v207h-142v-157q0-33-10-48t-21-16q-10 0-14 8t-5 20v193h-139m534 9q-29 0-57-10t-51-27-36-46-14-63q0-45 16-78t44-56 62-34 72-11q47 0 77 15t43 37 14 48q0 27-17 52t-51 42-83 16q-4 0-12 0t-13 0q0 15 7 22t19 8 22 2q10 0 28-3t40-12 40-25l15 76q-29 24-73 36t-92 11m-6-171l53-12 5-37q0-2 0-3t0-3q0-21-20-21-17 1-24 11t-9 28-5 37m214-64v-78h28v-82l146-15v97h69v78h-69v76q0 33 15 50t54 16v62q-21 14-48 23t-55 8q-30 0-56-13t-41-37-15-58v-127h-28m257 0v-78h28v-82l146-15v97h69v78h-69v76q0 33 15 50t54 16v62q-21 14-48 23t-54 8q-31 0-57-13t-41-37-15-58v-127h-28m448 235q-32 0-63-12t-56-32-39-52-15-66q0-37 14-67t37-51 56-33 66-11q50 0 91 19t63 57 24 87q0 37-14 66t-40 51-57 32-67 12m-15-99q11 0 24-10t25-26 21-33 7-32q0-11-5-20t-20-9q-13 0-27 10t-26 25-20 33-8 33q0 11 6 20t23 9m571 99q-41 0-80-14t-69-42-49-65-18-85q0-46 17-83t47-65 69-42 83-14q47 0 87 14t70 41 47 65 17 86q0 47-18 85t-49 64-70 41-84 14m-17-127q13 0 28-12t27-32 21-42 9-40q0-17-10-28t-30-11q-13 0-28 12t-28 32-22 41-8 40q0 17 9 29t32 11m494 118v-147q0-40-12-57t-31-17q-11 0-16 9t-4 22v190h-145v-304h80l35 48q20-28 55-44t71-15q31 0 57 13t40 37 16 58v207h-146m349 9q-29 0-58-10t-50-27-36-46-14-63q0-45 16-78t43-56 62-34 72-11q48 0 77 15t44 37 14 48q0 27-17 52t-51 42-83 16q-5 0-12 0t-14 0q0 15 8 22t18 8 23 2q10 0 28-3t39-12 40-25l16 76q-29 24-73 36t-92 11m-7-171l54-12 5-37q0-2 0-3t0-3q0-21-20-21-17 1-24 11t-9 28-6 37" />
</svg>