<svg id="fnt-Rancho" viewBox="0 0 1098 1000" xmlns="http://www.w3.org/2000/svg"><path id="rancho" class="f" d="M148 616q-5-15-10-26t-8-21q-19 7-41 9 0 32 1 53 1 14 2 24t1 16 2 12 3 11q-10 8-19 11t-16 5q-8 2-15 1-2-7-4-14t-3-21 0-33 1-51q0-3 0-7t1-7q-4 0-9-1t-9-1q-3-7-4-14t-1-10q0-4 1-7 8 1 16 1h7q1-20 2-42t2-41 1-39 1-33q-15 10-26 25t-14 36q-7-1-11-6t-7-10q-4-7-6-14-3-10 0-19t7-18 11-15 13-11q10-6 21-11t25-9q5-5 11-10t13-5q8-2 9 10 5 0 9-1t11 0q18 0 38 6t37 19 28 34 10 50q0 34-15 62t-46 47q4 9 9 22t11 30q8 20 17 38t19 31 20 21 22 10q-7 10-15 13t-17 5q-9 2-19 0-14-3-25-13t-17-26-14-33-11-33m-57-208q0 11 0 26t-1 33-1 37 0 38q13-2 29-6t29-15 23-27 10-44q0-21-7-35t-19-23-24-14-27-4q-2 0-5 0t-5 1q-2 15-2 33m306 234q1 3 3 6 2 3 5 5t6 2q-3 7-7 10-2 1-3 2-5 1-13 1t-17-5q-3-3-6-8-2-3-4-11t-3-18q-6 15-15 23t-17 13q-9 5-19 6-12 1-23-4t-19-16-11-25-3-34q2-20 8-36t15-28 19-21 19-14 15-8 9-3q5-2 9-1t7 4q1 2 2 3 1 2 3 6t2 7q-11 5-22 12t-18 16-15 22-10 32q-5 24 3 39t20 12q8-2 16-9 6-6 13-18t13-32q3-29 5-46t3-26q2-10 3-14 1-2 5-4t10-4 10-2 6 1q1 0 1 12t-1 28-2 38-1 38-1 32 0 17m93 11q0 3-5 7t-11 5-11 3-7-1-7-7-5-18q-1-12-1-32t-1-42v-20q0-9 0-21t-1-24q5-2 9-5t9-3q4-2 8-3 11-3 16-4t6 4q1 3 0 14-1 10-3 30t-5 54q7-15 11-26t7-18q3-9 5-14 3-6 7-14t8-14 8-13 5-6q2-1 9 0t16 5 16 10 10 16q3 11 2 28t-2 36-3 35 2 26q1 5 3 9 1 3 3 7t3 4q-11 6-19 8t-11 4q-5 1-7 0-4-1-7-7t-6-18q-1-4-1-13t2-21 2-24 2-23 1-19 0-11q-3-9-7-13t-7 0q-6 7-13 23t-14 36-10 38-6 32m263-48q0 5-3 16t-12 22-21 20-32 8q-26 0-44-14t-25-42q-6-22-3-48t13-47 32-38 49-17q14 0 24 6t15 15 6 20-2 21-10 16-16 7q-11 1-17-2t-10-9-5-12-1-10q2-6 5-11 3-5 9-10t15-8q-2-1-3-1t-3-1q-2 0-3 0-8 0-18 5t-19 17-15 30-6 45q0 11 2 22t8 19 13 14 17 5q12 0 21-5t15-12 11-14 5-10q1-3 5-3t3 6m70-15q6-18 10-30t7-19q3-9 6-14 3-8 6-16t8-15 7-11 6-5q2-1 9 0t16 4 16 10 10 16q3 11 2 29t-2 37-3 36 2 26q2 5 4 10 2 4 5 8t6 7q-14 6-23 8t-13 4q-5 1-7 0-4-1-7-7t-6-18q-1-4-1-14t2-22 2-26 2-25 1-20 0-12q-3-8-7-12t-7-1q-6 8-13 25t-13 39-11 41-6 34q0 3-5 6t-10 6-11 3-7-2q-2-1-6-7t-5-18q-1-12 0-33t0-45v-36q0-22 0-61t-1-103q6-3 10-5t8-3q5-2 9-3 20-6 21 0 1 4-1 31 0 11-1 28t-2 42-3 57-4 76m273-7q-1 19-6 35t-16 28-23 19-30 7q-14 1-26-7t-22-20-14-32-2-40q1-25 9-42t16-30 17-17 9-7q4-1 7-1t6 2q1 1 2 3 2 3 2 12 3-5 7-8t8-5q4-2 9-3 4 0 12 6t17 18 14 33 4 49m-33-6q0-12-1-24t-4-22-6-16-8-6q-4 1-10 4-4 3-10 10t-10 18q0-2-1-6 0-3-1-9t1-15q-7 8-10 19t-6 22q-2 12-3 24 0 14 1 26t6 23 10 15 14 6 15-7 11-16 8-22 4-24" />
</svg>