<svg id="fnt-Rationale" viewBox="0 0 1675 1000" xmlns="http://www.w3.org/2000/svg"><path id="rationale" class="f" d="M96 471h41q16 0 20-7t4-22v-68q0-15-4-22t-20-6h-61v307q0 8-3 11t-10 3h-27v-337q0-8 3-11t11-2h103q26 0 37 10t11 37v88q0 24-9 34t-29 13l51 168h-26q-8 0-12-3t-6-11l-46-153h-15q-8 0-11-3t-2-11v-15m281 182v-183q0-15-4-22t-20-6h-86q3-15 9-22t21-7h72q26 0 37 10t11 37v207h-27q-8 0-11-3t-2-11m-33 14h-40q-26 0-37-11t-10-37v-55q0-26 10-37t37-10h43q14 0 20 7t10 22h-57q-15 0-19 6t-4 22v39q0 16 5 20t22 5h33v15q0 8-3 11t-10 3m178-254h49q8 0 10 2t3 11v16h-62v167q0 16 4 22t20 7h43q-1 14-6 21t-19 8h-34q-26 0-37-11t-11-37v-251q0-8 3-11t11-2h26v58m110-27v-27q0-8 2-11t11-2h31v26q0 8-3 11t-11 3h-30m15 27h27v240q0 8-3 11t-11 3h-26v-241q0-8 2-11t11-2m91 206v-159q0-26 10-37t37-10h70q26 0 37 10t11 37v159q0 26-11 37t-37 11h-70q-26 0-37-11t-10-37m101-177h-38q-15 0-19 6t-4 22v139q0 16 4 22t19 7h38q16 0 20-7t4-22v-139q0-15-4-22t-20-6m198-29h47q26 0 37 10t11 37v193q0 8-3 11t-11 3h-26v-197q0-15-4-22t-20-6h-61v211q0 8-3 11t-11 3h-26v-241q0-8 2-11t11-2h27v29q3-15 9-22t21-7m272 240v-183q0-15-4-22t-19-6h-87q3-15 9-22t21-7h73q26 0 36 10t11 37v207h-26q-8 0-11-3t-3-11m-32 14h-40q-26 0-37-11t-11-37v-55q0-26 11-37t37-10h42q15 0 21 7t9 22h-56q-16 0-20 6t-4 22v39q0 16 6 20t21 5h33v15q0 8-2 11t-10 3m154-350h26v336q0 8-3 11t-10 3h-27v-337q0-8 3-11t11-2m156 321h72v15q0 8-2 11t-10 3h-76q-26 0-37-11t-10-37v-159q0-26 10-37t37-10h55q26 0 37 10t11 37v56q0 26-11 37t-37 11h-30q-8 0-10-3t-2-11v-15h29q15 0 19-7t4-22v-38q0-16-5-21t-20-5h-22q-16 0-21 5t-4 23v139q0 16 4 22t19 7" />
</svg>