<svg id="fnt-Ravi Prakash" viewBox="0 0 2542 1000" xmlns="http://www.w3.org/2000/svg"><path id="ravi-prakash" class="f" d="M233 682l-109-117q-7 3-11 3l-11 100-40 4-23-257q21-7 56-13t68-5q51 0 82 19 6 21 6 39 0 51-57 84l67 127-28 16m-59-216q0-28-25-43-9 0-21 4l-12 115q28-13 43-34t15-42m160 210q-7 0-10-1-13-9-22-27t-8-41 20-34 71-11q19 0 40 2l-1-9q-1-16-15-25t-35-9-42 13l-18-58q35-14 79-14t69 20 26 62q0 9-1 15l-11 110-40 4-6-58h-3q-13 29-38 45t-55 16m93-95l-21 0q-27 0-44 3-5 11-5 20t2 17 5 10q48-7 63-50m97-107l85-12 27 153h3l51-152 33 8-78 197-33 5-88-199m298 195l-39 4-20-199 85-12-26 207m-47-239q-11-11-11-26t11-26 26-11 26 11 11 26-11 26-26 11-26-11m282 242l-23-257q56-18 113-18t88 19q7 21 8 41 0 46-38 77t-98 45l-10 89-40 4m109-204q0-30-25-45-7 0-18 2l-14 126q27-14 42-37t15-46m234 67q-27 0-41 19t-21 70l-5 45-40 4-20-199 85-13-8 64h3q32-69 82-73l-12 85q-14-2-23-2m88 141q-7 0-10-1-14-9-22-27t-8-41 20-34 71-11q19 0 40 2l-1-9q-1-16-15-25t-35-9-42 13l-18-58q34-14 78-14t70 20 26 62q0 9-1 15l-11 110-40 4-6-58h-3q-14 29-38 45t-55 16m93-95l-21 0q-27 0-44 3-5 11-5 20t2 17 5 10q48-7 63-50m268-129l27 21-62 65 87 130-76 5-50-94-15 14-7 76-39 4-20-279 85-13-15 172 85-101m109 224q-7 0-10-1-13-9-21-27t-9-41 20-34 71-11q19 0 40 2l-1-9q-1-16-15-25t-35-9-42 13l-18-58q35-14 79-14t69 20 26 62q0 9-1 15l-11 110-40 4-6-58h-3q-13 29-38 45t-55 16m93-95l-21 0q-27 0-44 3-5 11-5 20t2 17 5 10q48-7 63-50m109-46q0-51 54-94l65 44q-44 29-44 60 0 17 18 43t18 41q0 52-72 81l-17-24q31-17 31-37t-26-50q-11-11-19-29t-8-35m331-78q7 0 14 3 21 25 28 86t8 121l-72 6q0-93-7-168-53 20-71 164l-39 4-20-279 85-13-15 164h4q16-40 38-64t47-24" />
</svg>