<svg id="fnt-Recursive" viewBox="0 0 2356 1000" xmlns="http://www.w3.org/2000/svg"><path id="recursive" class="f" d="M145 523l40-19q14 26 28 51t27 52q6 10 11 14t14 4q3 0 4 0t4 0h7q0 10 0 18t0 18q0 3-1 4t-4 2q-4 0-9 0t-8 0q-14 0-25-4t-18-11-14-20q-14-28-28-55t-28-54m-130-206q35 0 71 0t70 0q27 0 47 6t33 20 19 30 7 41v24q0 22-7 39t-20 30-31 19-42 7q-19 0-38 0t-37 0l-6 3v-44q19 0 38 0t38 0q19 0 32-6t19-19 7-30v-24q0-13-4-23t-10-17q-7-7-18-11t-26-3q-23 0-46 0t-45 0-45 0q-3 0-4-2t-2-4q0-9 0-18t0-18m77 350q-11 0-21 0t-20 0q-3 0-4-2t-2-4q0-41 0-81t0-80 0-79 0-81h53l-6 9q0 23 0 46t0 45q0 30 0 58t0 58 0 61q0 13 0 26t0 24m355-272q29 0 54 12t39 37 15 64v36q0 2-1 3t-2 2-3 1h-129q-9 0-17 0t-17 0h-15l-6-33h145q0-2 0-5t0-5q0-19-5-34t-13-23q-8-7-19-11t-26-4q-33 0-50 17t-18 57v52q0 11 2 20t6 17 9 14q10 10 26 14t38 5q18 0 32-2t26-6 25-12h8q0 9 0 18t0 18q0 1-1 2t-1 2q-6 6-20 11t-31 7-38 3q-31 0-55-7t-40-22-23-34-8-48v-52q0-29 8-50t25-36 36-21 44-7m301 0q19 0 33 3t23 7 12 8q2 1 2 2t0 3q0 9 0 18t0 19h-7q-12-7-27-12t-37-4q-23 0-39 8t-24 25-9 43v41q0 18 5 32t14 23q9 9 23 13t30 5q15 0 26-2t20-5 18-8h7q0 10 0 19t0 18q0 1 0 2t-1 2q-4 4-13 8t-22 6-35 3q-28 0-50-7t-37-22-24-36-7-49v-44q0-38 15-65t42-40 62-14m184 6q2 0 3 0t1 2 1 3q0 23 0 46t0 46 0 46 0 44q0 19 10 29t26 10q12 0 23-3t22-10 21-16 22-23v47h-14q-12 15-24 27t-28 17-33 6q-17 0-30-5t-22-16-14-23-4-29q0-23 0-45t0-45 0-45q0-16 0-32t0-31q10 0 20 0t20 0m162 0q2 0 3 0t2 2 1 3q0 35 0 70t0 71 0 70q0 11 0 20t0 17 0 13q-7 0-14 0t-14 0-13 0q-1 0-3-1t-2-2 0-3q0-43 0-87t0-87 0-86q7 0 14 0t13 0 13 0m138 100v-53h16q10-19 21-30t23-17 27-5q9 0 15 1t10 3q2 1 3 3t1 5q0 4 0 9t0 10 0 10 0 10h-8q-5-2-11-3t-15-1q-16 0-29 6t-27 18-26 34m8 166q-7 0-14 0t-14 0-15 0q-1 0-2-1t-2-1-1-1 0-3q0-10 0-28t0-41 0-48 0-49 0-45q0-16 0-29t0-20q8 0 15 0t14 0 13 0q2 0 3 0t2 2 1 3q0 13 0 35t0 50 0 59 0 61 0 56m259-40q36 0 51-10t16-27q0-9-4-16t-14-12-24-7l-50-10q-24-5-40-15t-23-22-7-32q0-17 7-32t22-25 36-17 50-6q18 0 32 2t24 4 17 6q3 1 4 2t2 3 0 4q0 8 0 17t0 19h-7q-12-5-24-8t-25-4-29-1q-23 0-37 5t-20 12-7 18q0 8 4 14t12 10 27 8l49 10q22 4 38 14t23 24 9 35q0 24-14 43t-38 28-60 10q-18 0-33-2t-28-4-23-8-16-8q-2-2-3-3t0-3q0-9 0-20t0-20h7q11 7 21 11t22 8 24 4 29 1m215 34q0-18 0-40t0-46 0-47 0-45 0-41h-7q-4 0-9 0t-10 0-10 0-9 0q-2 0-4-1t-2-4q0-9 0-18t0-18q9 0 18 0t19 0 20 0 18 0 16 0q2 0 3 0t2 2 1 3q0 26 0 53t0 55 0 54 0 53q0 7 0 15t0 15 0 16q-11 0-21 0t-20 0q-2 0-4-2t-1-4m-9-332v-49q7 0 14 0t14 0 15 0 14 0q3 0 4 1t2 4v49q-7 0-15 0t-14 0-15 0-14 0q-2 0-4-1t-1-4m168 72q2 0 3 0t1 2 2 3q12 35 24 70t24 74 25 84h7q8-27 15-52t15-48 15-46 15-44 14-43q11 0 21 0t21 0q2 0 3 1t2 2 0 4q-11 32-23 64t-22 65-23 65-22 65q-16 0-31 0t-29 0q-3 0-6-1t-4-4-4-9q-8-24-17-48t-17-50-18-51-18-52-18-51q12 0 23 0t22 0m374-6q29 0 54 12t39 37 15 64v36q0 2-1 3t-2 2-3 1h-129q-9 0-17 0t-17 0h-15l-6-33h145q0-2 0-5t0-5q0-19-5-34t-13-23q-8-7-19-11t-26-4q-33 0-50 17t-18 57v52q0 11 2 20t6 17 9 14q10 10 26 14t38 5q18 0 32-2t26-6 25-12h8q0 9 0 18t0 18q0 1-1 2t-1 2q-6 6-20 11t-31 7-38 3q-31 0-55-7t-40-22-23-34-8-48v-52q0-29 8-50t25-36 36-21 44-7" />
</svg>