<svg id="fnt-Red Hat Display" viewBox="0 0 3469 1000" xmlns="http://www.w3.org/2000/svg"><path id="red-hat-display" class="f" d="M77 667h-38v-350h150q34 0 60 12t39 35 15 53q0 35-21 59t-54 35l79 156h-43l-75-151h-112v151m0-316v133h109q36 0 57-18t21-49q0-30-21-48t-57-18h-109m380 320q-36 0-66-17t-46-47-17-66q0-36 16-65t45-47 62-17q34 0 60 17t43 47 16 65v12h-206q3 24 16 44t33 30 45 12q20 0 38-6t31-17l23 24q-21 16-44 23t-49 8m-92-148h168q-3-22-15-40t-29-28-39-10q-21 0-39 10t-30 27-16 41m371 148q-35 0-64-18t-46-46-16-66 16-65 46-47 64-17q22 0 43 7t37 22v-124l37-9v359h-36v-27q-33 31-81 31m3-33q24 0 44-9t33-26v-124q-13-16-33-25t-44-9q-26 0-47 12t-34 34-12 50 12 49 34 35 47 13m330 29h-38v-350h38v156h204v-156h38v350h-38v-159h-204v159m386 4q-27 0-48-9t-33-27-11-39q0-36 27-56t73-21q40 0 73 17v-33q0-30-17-45t-49-15q-19 0-38 5t-41 17l-14-29q27-13 50-19t46-6q48 0 73 23t26 64v169h-36v-25q-17 15-37 22t-44 7m-57-76q0 21 18 34t46 13q22 0 41-7t33-22v-47q-15-10-33-15t-39-5q-30 0-48 13t-18 36m327 77q-32 0-50-16t-17-45v-163h-54v-32h54v-63l36-10v73h76v32h-76v154q0 20 9 28t30 9q10 0 18-1t18-5v32q-9 4-21 5t-23 2m237-320v280h79q31 0 57-11t45-29 30-45 11-55-11-56-30-44-45-30-57-10h-79m77 315h-115v-350h115q40 0 74 13t58 36 38 56 14 70-13 70-39 55-58 37-74 13m275 0h-37v-251h37v251m-19-299q-10 0-17-7t-8-18q0-10 8-18t17-7q11 0 18 7t7 18q0 10-7 18t-18 7m162 304q-31 0-59-11t-47-28l23-24q17 16 38 24t43 9q30 0 49-12t19-33q0-16-11-26t-35-12l-44-6q-37-6-56-23t-18-46q0-21 12-37t33-26 49-10 52 8 47 25l-20 25q-21-14-41-21t-40-7q-26 0-42 12t-16 30q0 17 11 25t36 13l43 6q38 5 56 22t19 46q0 22-13 39t-37 28-51 10m180 97h-37v-353h36v27q33-31 81-31 36 0 64 17t45 47 17 65-17 66-45 46-64 18q-22 0-43-8t-37-21v127m77-131q26 0 47-13t33-34 13-49-13-50-33-35-47-12q-24 0-44 9t-33 26v124q13 16 33 25t44 9m218 29h-37v-350l37-9v359m142 4q-28 0-49-9t-32-27-12-39q0-36 27-56t73-21q41 0 74 17v-33q0-30-17-45t-50-15q-18 0-37 5t-41 17l-14-29q27-13 50-19t46-6q47 0 73 23t26 64v169h-36v-25q-17 15-38 22t-43 7m-57-76q0 21 17 34t46 13q23 0 41-7t34-22v-47q-16-10-33-15t-40-5q-30 0-48 13t-17 36m241 179q-7 0-13-1t-10-2v-33q8 2 21 2 33 0 50-39l15-35-102-250h41l81 206 87-206h40l-125 290q-10 24-22 39t-28 22-35 7" />
</svg>