<svg id="fnt-Reddit Sans" viewBox="0 0 2624 1000" xmlns="http://www.w3.org/2000/svg"><path id="reddit-sans" class="f" d="M142 521h-71v-38h74q22 0 38-9t26-24 9-36q0-32-21-49t-55-18h-71v-40h78q32 0 58 12t40 36 15 55q0 31-14 56t-42 40-64 15m-56 146h-44v-360h44v360m204 0h-51l-96-153 34-27 113 180m163 4q-36 0-64-17t-45-46-16-71q0-41 16-71t42-46 61-16q34 0 59 15t41 42 14 62q0 10-1 18t-2 13h-198v-34h160q0-21-9-39t-25-28-39-10q-23 0-40 12t-28 33-10 49q0 28 11 49t29 34 46 11q16 0 29-4t22-10 17-11l16 38q-15 11-37 19t-49 8m411-39l-16 39q-15-8-24-15t-13-17-4-20l12 6h-24l13-29v-131l-12-25h5v-149h42v304q0 16 4 24t17 13m-145 39q-24 0-45-10t-37-27-26-42-9-55q0-41 16-71t43-46 58-17q32 0 57 17t40 47 15 70q0 39-15 69t-40 47-57 18m7-39q23 0 41-12t28-34 11-49q0-30-11-51t-29-33-40-11q-24 0-42 12t-29 33-10 50q0 27 10 49t29 34 42 12m441 0l-17 39q-15-8-24-15t-13-17-4-20l12 6h-24l13-29v-131l-12-25h6v-149h42v304q0 16 4 24t17 13m-146 39q-24 0-45-10t-37-27-26-42-9-55q0-41 16-71t43-46 58-17q32 0 58 17t40 47 14 70q0 39-14 69t-40 47-58 18m7-39q23 0 41-12t29-34 10-49q0-30-11-51t-29-33-40-11q-23 0-42 12t-29 33-10 50q0 27 10 49t29 34 42 12m237 35h-42v-259h42v259m-21-301q-14 0-23-9t-9-22 9-23 23-9q13 0 22 9t9 23-9 22-22 9m188 305q-36 0-55-22t-19-54v-270h42v265q0 20 9 31t24 10q6 0 12-1t9-4l16 37q-7 3-16 5t-22 3m32-225h-149v-38h149v38m284 225q-29 0-52-12t-41-31-24-39l41-18q5 16 16 29t26 22 34 9q17 0 32-8t25-21 9-32q0-18-9-30t-23-21-27-13-21-8q-24-9-45-22t-34-34-13-49q0-27 13-47t34-32 53-11q27 0 48 9t35 24 21 31l-39 15q-5-8-13-17t-22-16-30-6q-23 0-40 13t-17 38q0 16 7 27t17 19 23 14 22 9q11 3 29 10t34 19 28 31 12 46q0 30-15 53t-40 36-54 13m242 0q-24 0-43-10t-30-26-12-42q0-25 14-43t40-28 64-9h54v34h-51q-38 0-59 12t-21 34q0 13 7 23t18 14 24 4q16 0 33-7t29-21 12-34v-26l-1-16v-28q0-7-1-17t-5-19-16-17-32-6q-12 0-26 3t-26 8-24 12l-16-37q13-8 29-13t33-9 34-4q26 0 44 8t28 22 14 31 4 37v90q0 17 4 26t13 14l4 1-16 39-7-3q-13-6-23-18t-10-22l9 3h-17l11-7q-9 19-32 33t-54 14m234-4h-42v-259h42v32h9l-18 18q7-18 20-30t30-18 38-6q33 0 53 14t29 37 10 46v166h-42v-158q0-33-17-49t-44-17q-20 0-35 8t-24 22-9 36v158m311 4q-23 0-41-9t-32-23-18-29l38-15q6 15 20 26t33 10q12 0 22-4t17-13 7-19q0-11-6-19t-16-13-20-9-18-6q-15-5-31-14t-28-22-11-37q0-23 12-39t30-24 39-8q32 0 53 16t29 36l-38 16q-6-12-16-21t-28-9q-15 0-28 8t-12 25q0 13 9 21t20 13 23 9q10 3 24 8t25 14 21 22 8 31q0 23-12 40t-32 28-43 10" />
</svg>