<svg id="fnt-Redressed" viewBox="0 0 1815 1000" xmlns="http://www.w3.org/2000/svg"><path id="redressed" class="f" d="M296 606l8 8q-6 9-15 19t-20 19-23 15-25 6q-8 0-15-2t-14-7-12-10-10-12q-16-20-31-41t-30-41l3-10q15-2 32-8t31-14 28-19 22-24 15-29 6-34q0-17-6-32t-16-25-24-17-32-6q-22 0-41 5t-36 13-33 19-31 22l-8-9q15-14 32-28t38-26 47-19 60-7q22 0 40 8t33 22 21 33 7 41q0 35-17 61t-48 42q-4 2-9 5t-12 7-13 7-14 7-11 5-9 3q5 6 12 16t16 20 16 19 14 14q6 5 12 9t15 4q7 0 13-3t13-7 11-9 10-10m-198-223v273l-50 18v-273l50-18m400 228l8 8q-9 11-19 21t-22 16-25 11-27 5q-18 0-34-7t-26-18-17-27-6-33q0-15 4-29t12-26 18-23 23-19 26-11 29-5q10 0 19 3t16 7 12 14 4 19q0 10-6 20t-14 20-20 20-23 19-23 14-18 10q9 11 21 19t25 7q9 0 17-4t17-8 16-11 13-12m-51-85q0-5-2-10t-5-9-8-6-11-3q-11 0-21 8t-16 19-10 24-4 22q0 9 3 19t8 19q10-6 21-15t22-21 16-24 7-23m279 104l7 8q-3 6-7 12t-11 10-12 7-14 2q-19 0-28-11t-8-28v-5q-5 8-10 17t-12 15-16 10-19 5q-17 0-29-7t-21-17-12-26-4-30q0-20 6-41t18-38 30-27 41-11q14 0 28 7v-150l45-15v314q0 5 2 9t8 4q5 0 10-5t8-9m-73-66v-52q-6-6-13-9t-15-4q-15 0-25 8t-16 20-9 25-3 25q0 9 2 21t6 22 12 17 19 7q9 0 15-4t12-11 7-15 5-17 2-17 1-16m237 70l6 6q-5 7-11 12t-14 10-16 6-16 2q-11 0-19-4t-12-11-8-15-2-18q0-13 4-27t10-28 15-26 17-20q-8 6-18 9t-21 3q-7 0-13-1t-12-5l-26 53-10-4 26-54q-4-3-9-7t-7-9l34-38q2 6 6 13t9 12 12 9 14 3q13 0 25-5t23-11l7 6q-10 9-19 19t-17 22-12 25-5 26q0 8 2 17t7 18 11 14 15 6q7 0 13-3t11-5m197-23l7 8q-9 11-19 21t-22 16-25 11-27 5q-18 0-33-7t-26-18-17-27-7-33q0-15 5-29t11-26 18-23 23-19 26-11 29-5q10 0 19 3t17 7 11 14 4 19q0 10-5 20t-15 20-20 20-23 19-22 14-19 10q9 11 21 19t25 7q9 0 18-4t17-8 15-11 14-12m-52-85q0-5-2-10t-5-9-8-6-11-3q-11 0-20 8t-16 19-11 24-4 22q0 9 3 19t8 19q10-6 22-15t21-21 17-24 6-23m202 73q0 15-6 29t-15 23-23 15-29 6q-7 0-14-2t-15-3-15-6-11-9l29-38q3 5 7 10t10 10 11 8 12 3q7 0 13-2t11-7 7-11 3-13q0-10-7-18t-15-16-19-16-16-18l-26 37-9-7 29-40q-3-7-5-15t-2-16q0-7 2-14t6-13 10-10 14-4q8 0 13 4t5 13q0 5-1 9t-4 9-5 8-5 8q6 8 13 14t13 11 13 11 10 12 8 16 3 22m-56-115q0-4-2-6t-5-1q-5 0-6 3t-2 6q0 5 2 9t4 9q1-2 2-4t3-6 3-6 1-4m203 115q0 15-6 29t-15 23-23 15-29 6q-7 0-14-2t-16-3-14-6-11-9l29-38q3 5 7 10t10 10 11 8 12 3q7 0 13-2t11-7 7-11 3-13q0-10-7-18t-15-16-19-16-16-18l-26 37-9-7 29-40q-4-7-5-15t-2-16q0-7 2-14t6-13 10-10 14-4q8 0 13 4t5 13q0 5-1 9t-4 9-5 8-5 8q6 8 13 14t13 11 13 11 10 12 8 16 3 22m-56-115q0-4-2-6t-5-1q-5 0-6 3t-2 6q0 5 2 9t4 9q1-2 2-4t3-6 3-6 1-4m251 127l7 8q-8 11-18 21t-22 16-25 11-28 5q-18 0-33-7t-26-18-17-27-6-33q0-15 4-29t12-26 18-23 23-19 26-11 28-5q11 0 20 3t16 7 11 14 4 19q0 10-5 20t-14 20-21 20-22 19-23 14-19 10q10 11 21 19t26 7q8 0 17-4t17-8 16-11 13-12m-51-85q0-5-2-10t-5-9-9-6-11-3q-11 0-20 8t-16 19-10 24-4 22q0 9 3 19t8 19q10-6 21-15t22-21 16-24 7-23m279 104l7 8q-3 6-8 12t-10 10-12 7-14 2q-19 0-28-11t-9-28v-5q-4 8-9 17t-12 15-16 10-19 5q-17 0-29-7t-21-17-12-26-5-30q0-20 7-41t18-38 30-27 41-11q14 0 27 7v-150l46-15v314q0 5 2 9t8 4q5 0 10-5t8-9m-74-66v-52q-5-6-12-9t-15-4q-15 0-25 8t-16 20-9 25-3 25q0 9 1 21t7 22 12 17 18 7q9 0 16-4t12-11 7-15 5-17 2-17 0-16" />
</svg>