<svg id="fnt-Reem Kufi" viewBox="0 0 2239 1000" xmlns="http://www.w3.org/2000/svg"><path id="reem-kufi" class="f" d="M52 304h98q38 0 68 13t46 39 17 62q0 22-7 43t-21 38-38 27-58 10h-53v131h-52v-363m52 182h52q28 0 43-11t22-26 6-29q0-10-4-21t-11-22-21-16-32-6h-55v131m51 32l62-1 94 150h-61l-95-149m308 154q-36 0-62-15t-40-39-14-57q0-31 15-57t43-40 59-15q42 0 69 24t38 69l-171 59-12-29 137-50-10 7q-6-16-19-28t-36-12q-28 0-46 19t-17 50q0 32 19 51t48 20q13 0 26-5t23-13l23 38q-16 10-35 16t-38 7m262 0q-36 0-62-15t-40-39-14-57q0-31 16-57t42-40 59-15q42 0 70 24t37 69l-170 59-12-29 137-50-11 7q-6-16-19-28t-35-12q-28 0-46 19t-18 50q0 32 19 51t48 20q14 0 26-5t24-13l23 38q-16 10-36 16t-38 7m165-214h45l5 45-3-4q12-23 33-37t49-13q26 0 43 12t22 34l-3 2q13-22 34-35t44-13q31 0 49 17t18 46v155h-50v-136q0-16-7-27t-24-11q-18 0-32 11t-22 28-8 38v97h-50v-136q-1-16-8-27t-25-11q-17 0-31 11t-21 28-8 38v97h-50v-209m545-154v143l-1 18 7-10 143-151h68l-150 157 157 206h-67l-129-173-28 28 0 145h-53v-363h53m344 371q-29 0-48-17t-19-45v-155h50v137q1 16 10 26t27 11q17 0 30-10t21-28 8-41v-95h51v209h-46l-4-49 2 8q-9 21-32 35t-50 14m277-8h-50v-164h-36v-45h36v-86q0-44 21-69t62-25q11 0 24 3t24 11l-21 36q-5-5-11-7t-11-1q-17 0-28 12t-10 41v85h66v45h-66v164m126 0v-209h51v209h-51m-2-284q0-12 9-20t20-8 20 8 9 20q0 12-9 20t-20 7-20-7-9-20" />
</svg>