<svg id="fnt-Reenie Beanie" viewBox="0 0 2355 1000" xmlns="http://www.w3.org/2000/svg"><path id="reenie-beanie" class="f" d="M296 690q0 3-2 7t-7 4q-3 0-6-1-18-9-42-14t-49-9-49-9-42-12q3 6 6 10t5 7 4 6 1 7q0 4-3 6t-6 2q-6 0-13-7t-13-19-14-26-12-28-10-25-5-17l-22-88q0-1 0-4t4-5q-2-4-2-8 0-14 16-26t39-20 48-13 42-4q5 0 15 0t20 4 17 9 7 18q0 10-11 24t-26 28-35 31-34 31-27 31-11 27q0 10 8 17t21 13 27 9 28 7 23 3 12 2q7 0 23 1t32 5 30 10 13 16m-96-255q0-3-4-6t-9-5-13-2-13-1q-10 0-24 3t-28 8-26 9-18 7q-10 6-20 13t-10 15q0 1 1 2t2 3q0 3 3 15t7 28 8 30 9 24q21-29 44-51t44-38 33-30 14-24m215 179q1 1 1 3 0 3-5 9-1 2-6 7t-14 9-21 8-28 3q-12 0-23-5t-19-16-14-25-6-36q0-19 5-36t13-30 17-21 19-7q8 0 16 3t15 8 11 11 4 13q0 8-7 16t-16 14-19 11-15 5q-3 0-6-3t-2-7q0-7 6-11t14-7 14-8 6-12q0-1-2-5t-14-4q-5 0-11 5t-13 16-10 23-4 29q0 13 5 23t12 18 18 11 20 4q8 0 16-3t17-7 13-7 8-3 3 1 2 3m175 0q0 1 0 3 0 3-4 9-2 2-7 7t-13 9-21 8-29 3q-11 0-22-5t-20-16-14-25-5-36q0-19 5-36t12-30 18-21 18-7q8 0 16 3t15 8 11 11 4 13q0 8-7 16t-16 14-19 11-15 5q-3 0-5-3t-2-7q0-7 6-11t14-7 13-8 7-12q0-1-3-5t-13-4q-5 0-12 5t-12 16-10 23-4 29q0 13 4 23t13 18 17 11 21 4q7 0 16-3t16-7 14-7 7-3 3 1 3 3m185-9q0 3-2 6t-5 6-6 4-5 2q-9 0-22-4t-21-12q-9-8-15-20t-15-35q-5 22-13 44t-23 39q-1 1-3 1-3 0-7-3t-4-7-1-17-2-28-2-32 0-27q0-5 0-13t3-14q1-1 4-4t7-3q4 0 4 4t1 10v79q0 3 0 7t3 7q5-12 10-29t9-31 9-25 9-10q5 0 8 2t5 8q3 15 4 26t4 20 6 17 12 14q7 7 16 10t15 3q3 0 7-2t5-1q2 0 3 4t2 4m56-168q0 1-4 4t-8 6-10 6-8 2q-2 0-5 0t-7-2-5-4-3-7q0-7 5-14t13-6q2 0 7 1t11 4 9 4 5 6m16 187q0 3-5 6t-8 2q-5 0-9-6t-7-15-5-17-3-10q-1-5-4-12t-5-14-3-11-2-6q0-7 3-13t7-6q4 0 9 7t10 18 9 23 7 24 4 20 2 10m171-10q0 1 0 3 0 3-4 9-2 2-7 7t-13 9-21 8-29 3q-11 0-22-5t-20-16-14-25-5-36q0-19 5-36t12-30 18-21 18-7q8 0 16 3t15 8 11 11 4 13q0 8-7 16t-16 14-19 11-15 5q-3 0-5-3t-2-7q0-7 6-11t14-7 13-8 7-12q0-1-3-5t-13-4q-5 0-12 5t-12 16-10 23-4 29q0 13 4 23t13 18 17 11 21 4q7 0 16-3t16-7 14-7 7-3 3 1 3 3m480-98q0 13-6 26t-15 23-19 20-19 16q-9 7-21 15t-24 15-19 13-11 8l-14 11q-3 2-6 3t-5 0q-4 0-6-4t-2-7q0-3 6-11t13-13 19-11 30-18q9-6 23-16t25-21 21-23 8-24q0-4-11-9t-30-5q-20 0-42 6t-41 13-32 13-16 6q1 12 3 28t5 33q3 18 6 37h2q1 5 4 15t3 15q0 8-6 8-3 0-7-6t-8-13-6-15-4-10q-4-16-9-38t-7-43-5-41-2-32q0-3 2-6t2-5-2-4-1-4q0-1 1-3t4-2q4 1 7 1t6 1 4 5 1 9v3q0 1 0 2t0 3q0 8 0 13t2 5q1 0 10-7t23-18 28-25 29-26q6-5 15-14t19-20 16-20 7-14-3-5q-4 0-17 4t-30 9-34 13-31 16q-14 9-28 21t-25 21-19 18-7 8q-1 1-1 2t0 3 1 3q0 1-2 2t-4 1q-4 0-10-2t-6-9q0-7 8-18t20-22 29-24 30-22q15-9 33-18t35-15 33-11 25-3q4 0 9 1t10 3 7 5 3 8q0 13-8 27t-21 29-29 29-33 29-31 26-25 24q6-2 18-7t27-10 30-8 27-3q3 0 15 0t24 4 22 11 10 22m184 98q0 1 0 3 0 3-4 9-2 2-7 7t-13 9-21 8-29 3q-11 0-22-5t-20-16-14-25-5-36q0-19 5-36t12-30 18-21 18-7q8 0 16 3t15 8 11 11 4 13q0 8-7 16t-16 14-19 11-15 5q-3 0-5-3t-2-7q0-7 6-11t14-7 13-8 7-12q0-1-3-5t-13-4q-5 0-12 5t-12 16-10 23-4 29q0 13 4 23t13 18 17 11 21 4q7 0 16-3t16-7 14-7 7-3 3 1 3 3m273-51q0 9-9 22t-22 26-32 21-39 9q-9 0-19-3t-19-9-17-14-11-19q-3 3-8 10t-9 14-11 13-12 5-11-7-7-15-3-15-1-9q0-6 3-23t11-34 17-32 26-14q5 0 7 4t2 10v15q2 2 5 2t5 2 3 4 2 8q0 4-1 6t0 6q0 13 2 25t8 22 16 16 28 7q22 0 37-10t26-20 16-21 10-9q7 0 7 7m-176-22q0-2-1-4t-1-3q0-2 1-4t1-4q0-1-1-2t-1-2q-4 1-9 9t-9 17-7 20-2 17q0 4 2 12t4 10q9-17 16-34t7-32m332 64q0 3-2 6t-5 6-6 4-6 2q-8 0-22-4t-21-12q-8-8-15-20t-14-35q-6 22-13 44t-23 39q-1 1-3 1-4 0-8-3t-4-7-1-17-1-28-2-32-1-27q0-5 1-13t3-14q0-1 3-4t8-3q3 0 4 4t0 10v79q0 3 1 7t2 7q6-12 10-29t10-31 9-25 9-10q5 0 8 2t5 8q2 15 4 26t3 20 7 17 12 14q7 7 15 10t16 3q3 0 6-2t5-1q2 0 4 4t2 4m55-168q0 1-3 4t-9 6-9 6-8 2q-2 0-6 0t-6-2-6-4-2-7q0-7 5-14t13-6q1 0 6 1t11 4 10 4 4 6m17 187q0 3-6 6t-7 2q-5 0-9-6t-7-15-5-17-3-10q-2-5-4-12t-5-14-4-11-1-6q0-7 2-13t7-6q5 0 10 7t9 18 9 23 7 24 5 20 2 10m170-10q1 1 1 3 0 3-5 9-1 2-6 7t-14 9-21 8-28 3q-12 0-23-5t-19-16-14-25-6-36q0-19 5-36t13-30 17-21 19-7q8 0 16 3t15 8 11 11 4 13q0 8-7 16t-16 14-19 11-15 5q-3 0-6-3t-2-7q0-7 6-11t14-7 14-8 6-12q0-1-2-5t-14-4q-5 0-11 5t-13 16-10 23-4 29q0 13 5 23t12 18 18 11 20 4q8 0 16-3t17-7 13-7 8-3 3 1 2 3" />
</svg>