<svg id="fnt-Reggae One" viewBox="0 0 3177 1000" xmlns="http://www.w3.org/2000/svg"><path id="reggae-one" class="f" d="M353 674l-6-1-206-183 0-7q30-6 53-22t40-35 23-39q5-13 5-24 0-20-14-32t-41-13q-35 0-73 10l-7 339h-64l-19-390h91l0 27q23-13 47-20t47-7q42 0 67 13t36 35 12 43q0 15-5 28-7 21-24 38t-40 29-43 17l121 194m303-7l-2 6q-77 0-128-7t-82-23-43-42-13-63q0-49 18-84t47-54 62-18q26 0 53 8t49 26 38 47 16 72l-212 24q4 27 25 46t63 34 109 28m-198-116l130-57q-3-20-12-37t-23-29-31-10q-20 0-34 9t-23 36-8 79q0 2 0 4t1 5m392 162h10q26 0 35-8t9-34q0-3 0-6t0-6l-2-46q-20 17-48 28t-59 11q-43 0-68-23t-24-71q0-39 22-72t60-55 87-37 104-12l-9 271q-2 45-10 70t-24 37-41 11q-7 0-14-1t-14-2q-32-4-72-21t-83-56l3-4q13 5 32 10t40 8 38 6 28 2m50-132l-6-163q-60 20-88 53t-28 77q0 29 11 40t34 12q20 0 39-5t38-14m279 132h10q27 0 36-8t9-34q0-3-1-6t0-6l-2-46q-19 17-47 28t-60 11q-42 0-67-23t-25-71q0-39 22-72t60-55 88-37 104-12l-10 271q-1 45-10 70t-24 37-41 11q-6 0-13-1t-15-2q-32-4-71-21t-83-56l2-4q14 5 33 10t40 8 38 6 27 2m51-132l-7-163q-60 20-88 53t-28 77q0 29 12 40t33 12q21 0 39-5t39-14m418 43l2 3q-23 21-41 34t-31 12q-11 0-20-9t-16-28q-16 14-38 23t-49 12q-8 1-15 2t-15 0q-70 0-70-50 0-6 1-13t3-14q4-16 18-30t33-24 40-20 38-17 29-16 12-16q0-22-6-30t-21-8q-11 0-34 2t-50 6-53 11l-2-5q13-13 34-25t46-22 48-15 44-5q31 0 46 6t20 24 6 55v127q0 18 3 25t15 8q4 0 10-1t13-2m-112-20l-3-88q-11 10-30 20t-35 23-25 28q-7 14-7 24 0 10 6 17t18 6q3 0 5 0t6-1q10-2 23-7t25-10 17-12m397 63l-2 6q-77 0-128-7t-82-23-43-42-13-63q0-49 18-84t47-54 62-18q26 0 53 8t49 26 38 47 16 72l-212 24q4 27 25 46t63 34 109 28m-198-116l130-57q-3-20-12-37t-23-29-31-10q-20 0-34 9t-23 36-8 79q0 2 0 4t1 5m599 126q-28 0-60-15t-58-41-45-65-17-85q0-37 11-69t31-57 42-43 48-27 48-9q23 0 47 10t48 27 43 43 30 56 11 69q0 47-17 85t-44 65-58 41-60 15m20-43q24 0 42-16t28-43 10-64q0-51-11-89t-30-62-40-38-39-12q-23 0-41 15t-30 42-10 64q0 53 11 92t31 63 40 36 39 12m475 33h-62l-8-172q-2-33-9-44t-23-10q-12 0-33 6t-42 19l-10 201h-61l-13-279h87l-2 53q15-17 35-31t43-21 42-7q37 0 51 20t13 59q0 3 0 6t0 8l-8 192m332 0l-2 6q-77 0-128-7t-82-23-43-42-13-63q0-49 18-84t47-54 62-18q26 0 53 8t49 26 38 47 16 72l-212 24q4 27 25 46t63 34 109 28m-198-116l130-57q-3-20-12-37t-23-29-31-10q-20 0-34 9t-23 36-8 79q0 2 0 4t1 5" />
</svg>