<svg id="fnt-Revalia" viewBox="0 0 2309 1000" xmlns="http://www.w3.org/2000/svg"><path id="revalia" class="f" d="M175 294q25 0 50 2t50 8 45 16 38 25 25 38 9 50q0 40-14 68t-40 44q11 16 18 34t13 34 7 30 2 24h-63q0-15-2-28t-7-25-10-23-12-21q-24 7-49 9t-54 3q-17 0-35-1t-34-2v87h-60v-358q5-2 17-4t28-5 36-4 42-1m18 53q-16 0-31 2t-26 3q-13 2-24 4v167q8 2 18 3 8 1 18 2t23 1q16 0 34-1t35-4 33-9 28-17 19-26 8-37q0-18-6-32t-16-23-23-16-29-10-30-5-31-2m429 41q13 0 30 2t37 4 37 8 33 14 24 21 9 28v83h-279v62q29 5 57 6t52 2q38 0 70-3t53-7q26-4 47-9v54q-46 7-89 10t-81 4q-38 0-69-2t-53-5q-26-3-47-7v-188q0-16 8-28t22-21 31-14 36-8 37-4 35-2m-109 93v28h219v-28q0-10-5-18t-13-12-19-8-23-4-23-2-23-1q-11 0-23 1t-25 2-25 5-21 8-14 12-5 17m420-94q-1 12-2 24t0 25q0 32 4 59t14 49 25 40 38 32q23-15 38-32t25-40 14-49 4-59q0-13 0-25t-2-24q22 2 38 4t29 3q14 3 25 5v57q-8-3-14-5t-11-3q-5-1-10-2-1 32-4 58t-10 47-17 40-25 33-35 29-45 26q-25-13-45-26t-34-29-26-33-17-40-10-47-5-58q-4 1-9 2-5 1-11 3t-14 5v-57q11-2 24-5 12-2 29-3t39-4m587 224v-44q-6-5-15-10t-22-10-32-6-42-3q-22 0-41 1t-35 5-23 13-8 24v31q21 4 47 6t58 2q25 0 54-2t59-7m-110-223q12 0 30 2t36 4 37 8 33 14 24 20 9 28v188q-20 5-46 8-23 2-53 4t-69 3q-37 0-80-4t-88-11v-87q0-15 6-25t19-18 27-13 35-8 38-4 39-1q30 0 51 4t35 8q17 6 27 12v-39q0-10-5-18t-13-12-19-8-23-5-23-2-23 0q-11 0-23 0t-25 3-24 4-20 9-14 12-5 17l-61-16q0-16 8-28t22-21 30-14 36-8 37-4 35-2m310-88v367h-56v-367h56m160 88v279h-62v-279h62m-31-96q18 0 29 6t10 19v12q0 11-10 17t-29 5q-17 0-28-5t-10-17v-12q0-13 10-19t28-6m399 319v-44q-6-5-15-10t-22-10-32-6-42-3q-22 0-41 1t-34 5-24 13-8 24v31q21 4 47 6t58 2q25 0 54-2t59-7m-110-223q12 0 30 2t36 4 37 8 33 14 24 20 9 28v188q-20 5-46 8-22 2-53 4t-69 3q-37 0-80-4t-88-11v-87q0-15 6-25t19-18 27-13 35-8 38-4 39-1q30 0 51 4t35 8q17 6 27 12v-39q0-10-5-18t-13-12-19-8-23-5-23-2-23 0q-11 0-23 0t-25 3-24 4-20 9-14 12-5 17l-61-16q0-16 8-28t22-21 30-14 36-8 38-4 34-2" />
</svg>