<svg id="fnt-Rhodium Libre" viewBox="0 0 3714 1000" xmlns="http://www.w3.org/2000/svg"><path id="rhodium-libre" class="f" d="M312 624l34 15v28h-58l-94-141h-86v98l37 15v28h-117v-28l37-15v-254l-37-15v-28h199q49 0 74 25t25 74q0 44-21 68t-61 30l68 100m-204-261v127h110q34 0 48-15t15-49q0-33-14-48t-44-15h-115m536 261l34 15v28h-76v-166q0-29-14-43t-42-13q-17 0-34 5t-49 16v158l34 15v28h-110v-28l34-15v-270l-34-14v-28h76v121q26-13 49-19t48-5q31 0 50 9t26 31 8 58v117m199-215q58 0 92 31t35 101-35 101-92 32-92-32-35-101 35-101 92-31m0 36q-30 0-48 8t-26 30-9 58 9 59 26 29 48 9 48-9 26-29 9-59-9-58-26-30-48-8m408 179l34 15v28h-59l-13-36q-21 21-45 31t-55 10q-34 0-56-12t-32-40-11-78q0-70 27-102t77-31q23 0 45 6t46 21v-82l-34-14v-28h76v312m-193-78q0 35 6 54t21 27 37 8q46 0 87-32v-137q-31-12-48-16t-33-5q-38 0-54 25t-16 76m319-240q15 0 24 9t10 26-10 25-24 9-25-9-9-25 9-26 25-9m25 110v208l34 15v28h-110v-28l34-15v-166l-34-14v-28h76m324 208l34 14v29h-56l-13-21q-29 15-54 21t-50 7q-32 0-50-10t-26-31-8-57v-118l-34-15v-27h76v165q0 30 14 43t42 13q17 0 34-4t49-16v-160l-34-14v-27h76v208m498 0l34 15v28h-76v-166q0-29-13-43t-38-13q-18 0-33 4t-48 17v158l34 15v28h-76v-166q0-29-13-43t-38-13q-17 0-32 4t-49 17v158l34 15v28h-110v-28l34-15v-166l-34-14v-28h56l13 20q29-15 53-21t48-6 42 7 28 22q30-16 54-23t50-6q30 0 48 9t25 31 7 58v117m336-297v28l-37 15v261h162l13-58h29v94h-284v-28l37-15v-254l-37-15v-28h117m251-21q16 0 25 9t9 26-9 25-25 9-25-9-9-25 9-26 25-9m25 110v208l34 15v28h-110v-28l34-15v-166l-34-14v-28h76m237-7q50 0 77 31t27 102q0 50-11 78t-33 40-55 12q-31 0-55-10t-45-31l-13 36h-25v-313l-34-14v-28h76v124q24-14 46-21t45-6m-4 226q23 0 37-8t20-27 7-54q0-51-16-76t-54-25q-17 0-34 5t-47 16v137q41 32 87 32m329-227q22 0 32 10t10 33q0 40-46 40l-20-45q-20 5-40 14t-35 19v145l47 15v28h-123v-28l34-15v-166l-34-14v-28h56l19 30q25-19 51-29t49-9m200 1q51 0 83 31t32 95v20h-196q2 33 12 51t28 25 52 7q48 0 94-12v36q-19 5-45 8t-50 4q-66 0-101-30t-34-103q0-67 34-100t91-32m-2 36q-39 0-57 17t-22 57h151q-3-37-20-56t-52-18" />
</svg>