<svg id="fnt-Righteous" viewBox="0 0 2329 1000" xmlns="http://www.w3.org/2000/svg"><path id="righteous" class="f" d="M173 387h-70v140h70q14 0 27-6t22-15 15-22 5-27-5-28-15-22-22-15-27-5m-70 210v70h-71v-350h141q19 0 37 5t33 14 28 22 22 28 14 34 6 37q0 18-5 35t-13 32-21 29-27 22l39 92h-75l-30-71-78 1m327-263q0 9-4 17t-9 15-15 9-17 4-17-4-15-9-9-15-4-17q0-9 4-17t9-14 15-10 17-3 17 3 15 10 9 14 4 17m-12 71v262h-67v-262h67m237 129q0-14-5-27t-14-23-21-15-26-6-26 4-21 14-14 22-5 31q0 16 5 29t14 22 21 15 26 5 26-6 21-16 14-23 5-26m67-128v228q0 27-10 51t-29 43-42 28-52 11l-34-1v-66l33 0q16 0 27-4t19-11 12-16 7-19q-4 6-11 10t-17 7-18 4-18 1q-28 0-52-10t-42-27-29-44-11-57q0-30 11-55t29-44 42-29 52-11q13 0 25 3t24 9 23 13 19 17l26-31h16m118 111v150h-67v-366h67v116q12-9 25-13t25-4q25 0 46 9t37 25 25 38 9 45v150h-67v-150h0q0-10-4-19t-10-16-16-11-20-4q-10 0-19 4t-17 11-10 16-4 19m392 150h-50q-24 0-46-10t-37-25-25-37-9-45v-78h-33v-66h33v-105h66v105h101v66h-101v78q0 10 4 19t11 16 16 11 20 4h50v67m267-215l-125 151q4 1 8 1t7 1q10 0 19-3t17-8 14-12 10-16l49 49q-9 13-21 24t-26 18-30 11-32 4q-27 0-51-11t-43-28-29-44-10-55q0-31 10-57t29-44 43-28 51-10q17 0 32 4t30 11 26 18 22 24m-169 116l78-103q-5-1-9-2t-10 0q-13 0-25 5t-21 14-14 22-6 30q0 3 1 8t1 9 2 9 3 8m453-34q0 29-11 54t-28 44-42 29-53 11q-27 0-51-11t-43-29-29-44-10-54q0-30 10-56t29-43 43-29 51-11q28 0 53 10t42 28 28 44 11 57m-67 0q0-17-5-30t-15-22-21-14-26-5-25 5-21 14-14 22-6 30q0 15 6 28t14 22 21 15 25 6 26-5 21-15 15-22 5-29m318 133l-22-31q-8 7-17 14t-19 11-21 8-22 3q-24 0-45-9t-37-24-25-39-10-50v-145h67v145q0 13 4 23t11 18 16 10 19 4q11 0 20-5t16-12 10-18 4-20v-145h67v262h-16m210 0h-152v-67h152q7 0 12-5t5-11q0-7-5-10t-12-2h-69q-17 0-32-6t-27-18-17-27-7-32 7-33 17-26 27-18 32-6h135v66h-135q-7 0-12 5t-5 12q0 7 5 12t12 5h69q17 0 33 5t26 16 18 25 6 32q0 17-6 32t-18 26-26 18-33 7" />
</svg>