<svg id="fnt-Risque" viewBox="0 0 1424 1000" xmlns="http://www.w3.org/2000/svg"><path id="risque" class="f" d="M315 570q-7 33-17 55t-21 34-19 17-14 5q-7 0-19-6t-25-17-29-22-28-25-25-24-19-18l2 61 52 28-155 11 52-48 9-245-64-31q48-3 81-4t55-2 33 0 17 0q10 0 23 2t24 6 24 11 20 16 14 22 6 28q0 4-1 10t-4 15-8 18-14 19-23 18-32 16-44 11-58 5q16 12 35 25t37 25 38 19 34 7q8 0 16-2t17-6 16-13 14-21m-94-134q0-8-1-15t-5-15-12-13-19-10-31-7-43-3q-4 0-7 0t-8 1l2 130q16 0 31-3t29-6 25-10 21-13 13-17 5-19m224 216l-124 17 38-30-8-168-45-30 105-18-19 196 53 33m-31-288q0 7-3 14t-8 11-12 8-14 3q-8 0-15-3t-11-8-8-11-3-14q0-7 3-14t8-11 11-8 15-3q7 0 14 3t12 8 8 11 3 14m133 54q9 0 19 2t18 4 18 8 14 9l40-49-18 122q-3-13-10-25t-18-23-25-15-31-6q-9 0-18 2t-15 7-10 11-4 17q0 12 7 19t17 12 23 9 28 7 28 10 24 13 17 21 6 30q0 20-8 35t-20 23-28 13-29 5q-12 0-24-3t-23-7-20-10-18-13l-38 49 12-121q8 17 19 31t24 25 29 17 32 6q19 0 31-8t11-24q0-10-6-16t-17-11-24-9-28-9-27-11-24-15-17-23-7-33q0-17 5-29t13-20 18-14 19-8 19-4 16-1m304 1l91 15-57 21 12 265 44 15-96 24 2-122q-6 8-13 15t-16 13-18 8-22 4q-18-1-35-9t-30-23-21-37-7-50q0-34 8-60t22-42 32-26 40-8q19 0 35 6t28 19l1-28m-65 227q4 0 11-2t15-7 18-15 18-29l1-107q-7-13-19-23t-27-9q-16 0-28 9t-20 22-11 35-4 44q0 17 3 32t9 26 14 17 20 7m285-217h82l10 210 44 21-101 18 5-71q-7 14-16 27t-19 23-24 16-29 6q-18 0-31-7t-23-17-14-26-5-32q0-16 2-33t7-34 10-33 13-29l-51-12 97-33q-10 25-15 47t-7 41q-3 20-4 38 0 22 4 39t8 27 14 16 17 6q14 0 25-8t20-20 15-30 10-36 6-39 3-38l-53-37m352 105l-159 43q4 14 9 27t13 23 18 17 23 6q17 0 30-7t21-18 11-24 1-25q7 3 12 7t7 10 3 11 1 10q0 12-7 23t-19 19-29 14-37 5q-27 0-48-11t-35-28-23-42-8-52q0-28 8-51t23-40 38-26 51-6q20 1 37 11t29 26 20 36 10 42m-163 4q0 3 0 6t0 7l107-39q-5-17-12-30t-14-21-14-12-15-3q-10 0-18 4t-13 10-10 16-7 19-3 21-1 22" />
</svg>