<svg id="fnt-Roboto Mono" viewBox="0 0 3272 1000" xmlns="http://www.w3.org/2000/svg"><path id="roboto-mono" class="f" d="M89 522h71l70 145h48l0-3-76-152q15-6 27-16t21-20 14-26 5-32q0-27-9-47t-26-33q-17-13-39-20t-47-7h-104v356h45v-145m61-37h-61v-137h59q17 1 31 5t23 13q10 9 16 21t6 30q0 16-6 29t-16 21q-10 8-24 13t-28 5m180 47v5q0 29 8 53t24 43q15 18 38 28t50 11q28 0 50-11t38-28q15-18 24-43t8-53v-5q0-28-8-53t-24-43q-16-18-38-28t-50-10q-28 0-50 10t-38 28q-16 18-24 43t-8 53m45 5v-5q0-19 5-37t14-31q9-13 23-21t33-8 33 8 23 21q9 13 14 31t5 37v5q0 20-5 38t-14 31q-9 13-23 21t-33 8q-19 0-33-8t-23-21q-10-14-14-31t-5-38m491 0v-5q0-20-3-39t-10-34q-6-14-15-25t-18-19q-12-8-27-13t-31-4q-14 0-25 2t-22 8q-8 4-15 10t-12 13v-139h-45v375h41l3-30q4 5 9 10t10 8q11 8 25 12t31 5q15 0 28-4t24-10q15-10 25-24t17-33q5-14 8-30t2-34m-45-5v5q0 12-1 23t-5 21q-4 13-10 24t-17 17q-7 6-16 8t-21 3q-11 0-21-3t-18-9-14-13-10-16v-115q4-9 10-17t14-13q7-5 17-8t22-3q10 0 19 2t16 7q10 6 17 17t12 24q3 10 5 22t1 24m109 0v5q0 29 8 53t24 43q16 18 38 28t50 11q28 0 50-11t38-28q16-18 24-43t8-53v-5q0-28-8-53t-24-43q-15-18-38-28t-50-10q-28 0-50 10t-38 28q-15 18-24 43t-8 53m45 5v-5q0-19 5-37t14-31q9-13 23-21t33-8 33 8 23 21q9 13 14 31t5 37v5q0 20-5 38t-14 31q-9 13-23 21t-33 8q-19 0-33-8t-23-21q-10-14-14-31t-5-38m375-135v-63h-46v63h-69v35h69v144q0 24 7 42t17 28q12 11 27 16t33 5q10 0 21-1t20-3q9-2 18-5t13-6l-6-32q-4 1-11 3t-14 2q-7 1-15 2t-15 1q-10 0-19-2t-16-9q-7-6-10-16t-4-25v-144h100v-35h-100m180 130v5q0 29 8 53t24 43q16 18 38 28t50 11q28 0 50-11t38-28q16-18 24-43t8-53v-5q0-28-8-53t-24-43q-15-18-38-28t-50-10q-28 0-50 10t-38 28q-15 18-24 43t-8 53m45 5v-5q0-19 5-37t14-31q9-13 23-21t33-8 33 8 23 21q10 13 14 31t5 37v5q0 20-5 38t-13 31q-10 13-24 21t-33 8q-18 0-33-8t-23-21q-10-14-14-31t-5-38m675-48l-58-178h-56v356h44v-142l-3-144 60 187h26l66-192-4 149v142h44v-356h-56l-63 178m180 43v5q0 29 8 53t24 43q16 18 38 28t51 11q27 0 50-11t37-28q16-18 24-43t8-53v-5q0-28-8-53t-24-43q-15-18-38-28t-50-10q-28 0-50 10t-38 28q-15 18-24 43t-8 53m45 5v-5q0-19 5-37t14-31q9-13 23-21t33-8 33 8 23 21q10 13 14 31t5 37v5q0 20-4 38t-14 31q-10 13-24 21t-32 8q-19 0-33-8t-24-21q-9-14-14-31t-5-38m268-135v265h45v-190q5-8 11-15t14-13q9-6 19-10t23-3q15 0 26 3t19 11q7 8 11 20t4 30v167h45v-168q0-26-6-46t-18-31-29-19-38-5q-15 0-29 4t-26 12q-8 5-15 12t-12 16l-4-40h-40m287 130v5q0 29 9 53t24 43q15 18 37 28t51 11q27 0 50-11t38-28q15-18 23-43t9-53v-5q0-28-9-53t-23-43q-16-18-38-28t-51-10q-28 0-50 10t-37 28q-16 18-24 43t-9 53m45 5v-5q0-19 5-37t14-31q10-13 23-21t33-8 33 8 24 21q9 13 14 31t4 37v5q0 20-4 38t-14 31q-10 13-24 21t-32 8q-19 0-33-8t-24-21q-9-14-14-31t-5-38" />
</svg>