<svg id="fnt-Roboto Condensed" viewBox="0 0 3707 1000" xmlns="http://www.w3.org/2000/svg"><path id="roboto-condensed" class="f" d="M39 667v-356h99q35 0 58 12t36 36 12 59q0 24-8 44t-24 35-37 20l-12 6h-89l0-39h63q21 0 35-9t20-24 7-33q0-21-6-36t-20-24-35-8h-55v317h-44m218 0h-48l-71-161 47-1 72 159v3m32-120v-25q0-31 8-54t21-39 33-23 40-8q21 0 40 8t33 23 21 39 8 54v25q0 31-8 54t-21 39-33 24-40 8-40-8-33-24-21-39-8-54m43-25v25q0 22 4 38t13 28 19 16 23 6q15 0 26-6t18-16 11-28 4-38v-25q0-22-4-38t-13-27-19-17-23-5q-13 0-24 5t-18 17-13 27-4 38m217 145v-375h43v323l-4 52h-39m191-144v24q0 32-6 55t-16 39-28 23-37 8q-20 0-35-9t-25-24-16-38-8-50v-33q3-28 8-50t16-38 25-24 35-8q21 0 37 7t28 23 16 38 6 57m-43 24v-24q0-22-3-39t-9-27-17-16-26-5q-13 0-23 5t-17 15-12 20-7 24v70q3 16 10 30t19 24 30 9q15 0 25-5t17-16 10-27 3-38m89 0v-25q0-31 8-54t22-39 32-23 40-8q22 0 40 8t33 23 22 39 8 54v25q0 31-8 54t-22 39-32 24-40 8-40-8-33-24-22-39-8-54m44-25v25q0 22 4 38t12 28 19 16 24 6q14 0 25-6t19-16 11-28 4-38v-25q0-22-5-38t-12-27-19-17-24-5q-12 0-23 5t-19 17-12 27-4 38m190-120h123v35h-123v-35m40 199v-263h43v263q0 14 3 20t9 10 11 2q4 0 9-1t8-2l0 37q-5 1-12 3t-19 2q-14 0-26-7t-19-22-7-42m125-54v-25q0-31 8-54t22-39 32-23 40-8q22 0 40 8t33 23 22 39 8 54v25q0 31-8 54t-22 39-32 24-40 8-40-8-33-24-22-39-8-54m44-25v25q0 22 4 38t12 28 19 16 24 6q14 0 25-6t19-16 11-28 3-38v-25q0-22-4-38t-12-27-19-17-24-5q-12 0-23 5t-19 17-12 27-4 38m515 32h45q-2 36-15 63t-38 40-62 15q-26 0-48-11t-37-30-23-47-8-62v-66q0-34 8-62t24-47 38-30 50-11q35 0 59 14t37 40 15 65h-45q-2-28-9-46t-21-26-36-8q-19 0-33 8t-24 22-13 35-5 45v67q0 23 4 43t12 36 22 24 33 8q25 0 39-8t22-25 9-46m90-7v-25q0-31 8-54t22-39 32-23 40-8q22 0 41 8t32 23 22 39 8 54v25q0 31-8 54t-22 39-32 24-40 8-40-8-33-24-22-39-8-54m44-25v25q0 22 4 38t13 28 18 16 24 6q14 0 26-6t18-16 11-28 4-38v-25q0-22-5-38t-12-27-19-17-24-5q-12 0-23 5t-19 17-12 27-4 38m257-120l3 57v208h-44v-265h41m-8 123l-17-1q-1-27 6-50t18-41 29-26 38-9q16 0 29 5t22 17 15 29 5 45v173h-43v-174q0-21-5-33t-14-19-23-5q-12 0-23 7t-20 19-12 29-5 34m352 142l-4-52v-323h43v375h-39m-152-120v-24q0-33 7-57t18-38 28-23 36-7q21 0 35 8t25 24 16 38 8 50v33q-3 28-8 50t-16 38-25 24-35 9q-20 0-36-8t-28-23-18-39-7-55m44-24v24q0 22 3 38t10 27 17 16 26 5q18 0 29-9t19-23 11-31v-70q-3-12-7-24t-12-20-17-15-23-5q-15 0-26 5t-17 16-10 27-3 39m308 149q-23 0-43-8t-32-21-21-37-7-52v-30q0-35 9-59t22-39 31-22 36-6q25 0 43 8t28 24 17 39 5 53v25h-165v-37h122v-6q-1-20-6-36t-15-24-29-9q-12 0-22 4t-17 14-11 27-4 44v30q0 21 4 36t12 25 19 15 27 5q21 0 36-9t24-21l23 27q-7 10-19 19t-27 15-40 6m181-270l2 57v208h-43v-265h41m-8 123l-18-1q0-27 6-50t19-41 29-26 37-9q16 0 30 5t22 17 14 29 5 45v173h-43v-174q0-21-4-33t-14-19-23-5q-13 0-24 7t-19 19-13 29-4 34m337 74q0-10-4-18t-16-14-30-15q-19-8-33-15t-25-17-15-20-5-27 6-30 17-24 26-16 35-5q27 0 46 10t29 29 10 41h-43q0-11-5-21t-14-16-23-6q-15 0-24 5t-13 13-4 18q0 7 2 13t7 9 14 10 23 11q27 10 45 21t28 25 10 36q0 17-7 31t-17 24-28 15-35 6q-30 0-51-12t-31-31-11-41h43q1 18 9 28t19 15 22 3q14 0 24-4t14-12 5-19m195 73q-24 0-43-8t-32-21-21-37-7-52v-30q0-35 8-59t22-39 32-22 36-6q25 0 42 8t29 24 16 39 5 53v25h-165v-37h122v-6q-1-20-5-36t-15-24-29-9q-12 0-22 4t-18 14-11 27-4 44v30q0 21 4 36t12 25 20 15 26 5q22 0 36-9t25-21l22 27q-7 10-18 19t-28 15-39 6m282-5l-4-52v-323h43v375h-39m-152-120v-24q0-33 7-57t18-38 28-23 36-7q21 0 35 8t25 24 16 38 8 50v33q-3 28-8 50t-16 38-25 24-35 9q-20 0-36-8t-28-23-18-39-7-55m44-24v24q0 22 3 38t10 27 17 16 26 5q18 0 29-9t19-23 11-31v-70q-3-12-7-24t-12-20-17-15-23-5q-15 0-25 5t-18 16-10 27-3 39" />
</svg>