<svg id="fnt-Roboto Serif" viewBox="0 0 3225 1000" xmlns="http://www.w3.org/2000/svg"><path id="roboto-serif" class="f" d="M233 495l-44 11 88 161h75v-28h-4q-10 0-18-1t-15-7-12-14l-70-122m-112 139v-292h61q26 0 43 8t25 24 9 39-9 40-25 26-45 9h-67v28h77q5 0 10-1t10-2 10-4q27-6 47-20t31-34 11-45q0-31-15-53t-43-34-68-11h-156v27h5q19 0 31 3t12 15v264q0 11-12 15t-31 3h-5v28h145v-28h-8q-8 0-16 0t-14-1-10-2-3-2m539-101q0 42-17 74t-47 48-70 17q-41 0-72-17t-47-48-16-74q0-32 9-58t28-44 42-28 56-10 55 10 42 28 28 44 9 58m-222 0q0 36 10 60t29 37 49 12 48-12 29-37 10-60q0-35-10-60t-29-37-48-12-49 12-29 37-10 60m434 139q-22 0-39-7t-32-22-27-35l2-32q13 22 27 36t30 22 37 8q19 0 34-8t24-21 15-35 5-47q0-26-4-46t-14-33-24-21-33-7q-21 0-38 7t-32 22-28 37l-1-30q14-21 28-36t33-23 42-8q37 0 64 18t40 48 14 72q0 41-15 73t-42 50-66 18m-133 1v-336q0-7-4-11t-13-6-22-5l-5-1v-26h89v318l-3 4-12 63h-30m574-140q0 42-17 74t-47 48-71 17q-41 0-71-17t-47-48-17-74q0-32 10-58t27-44 43-28 55-10 55 10 43 28 27 44 10 58m-223 0q0 36 10 60t30 37 48 12 49-12 29-37 10-60q0-35-10-60t-29-37-49-12-48 12-30 37-10 60m439-105h-185v-27h5q17 0 29-3t17-9 6-21l32 30h96v30m-87-106v263q0 21 6 33t17 17 28 5q13 0 24-2t15-2v30q-5 1-13 3t-15 2-17 1q-23 0-44-7t-33-26-13-53v-180l4-4v-80h41m401 211q0 42-17 74t-47 48-70 17q-41 0-72-17t-47-48-16-74q0-32 9-58t28-44 42-28 56-10 55 10 42 28 28 44 9 58m-222 0q0 36 10 60t29 37 49 12 48-12 29-37 10-60q0-35-10-60t-29-37-48-12-49 12-29 37-10 60m554 112q26 0 42-7t25-20 9-37q0-20-9-34t-23-21-32-14-37-10q-22-6-43-13t-36-18-25-29-9-46q0-29 13-50t38-32 57-11q27 0 47 8t36 26 23 52l-12-10 6-70h31v102h-34q-7-25-21-43t-31-26-43-9-39 7-22 20-7 32 7 30 22 19 31 12 39 11q21 6 42 13t38 18 27 30 10 46q0 35-16 58t-42 35-61 11q-31 0-58-10t-44-32-25-60l15 14-6 82h-32v-117h34q7 30 23 51t39 31 53 11m215-110q0 29 7 50t19 33 29 18 35 6q21 0 37-7t26-19 20-25l24 20q-10 17-25 31t-37 22-46 8q-38 0-68-16t-49-47-17-74q0-43 16-75t44-49 65-18q30 0 51 10t36 28 22 48 8 66h-207v-29h174l-13 11q-1-28-6-48t-12-32-21-18-32-5q-17 0-32 6t-26 21-16 35-6 49m428-140v48q-3-1-8-2t-11-1-10 0q-14 0-25 2t-20 9-18 15-17 22v-23q12-24 25-40t30-24 36-8q6 0 11 0t7 2m-49 272h-139v-24h1q20 0 31-6t11-22v-167q0-8-4-12t-13-6-21-5l-5-1v-26h80l6 67 2-2v169q0 4 7 7t16 3 17 1h11v24m149-324q-15 0-24-8t-9-24q0-15 9-23t24-8q14 0 23 8t9 23q0 16-9 24t-23 8m-63 55h88v219q0 16 12 21t31 5h1v24h-132v-24h2q19 0 31-5t11-21v-169q0-11-9-15t-30-8l-5-1v-26m168 30v-30h179v30h-179m201-142v33q-8-2-20-4t-28-3q-16 0-28 5t-19 17-6 35v269q0 1 7 2t18 2 21 1h12v24h-156v-24h8q22 0 33-6t12-22v-248q0-34 14-53t36-25 48-8q15 0 28 2t20 3" />
</svg>