<svg id="fnt-Roboto Slab" viewBox="0 0 2741 1000" xmlns="http://www.w3.org/2000/svg"><path id="roboto-slab" class="f" d="M147 667h-127v-31l40-7v-280l-40-7v-31h158q39 0 66 12t40 34 14 53q0 32-13 53t-39 32-59 11l-79 2v121l39 7v31m167 0h-60l-79-178 48 0 66 142 25 4v32m-206-318v121h65q41 0 59-15t18-45q0-28-17-45t-55-16h-70m368 323q-37 0-64-17t-40-48-15-70v-5q0-39 15-69t40-48 63-17q37 0 63 17t41 48 15 69v5q0 40-15 70t-41 48-62 17m0-38q23 0 38-12t23-35 8-50v-5q0-28-8-50t-23-34-39-13q-23 0-38 13t-24 34-8 50v5q0 28 8 50t24 35 39 12m295 38q-26 0-45-10t-32-29l-4 34h-42v-343l-39-7v-31h88v148q12-18 30-27t44-9q32 0 55 17t36 50 12 74v6q0 38-12 66t-36 45-55 16m-12-39q34 0 50-24t17-64v-6q0-30-8-53t-22-36-38-13q-22 0-37 10t-24 29v117q9 18 24 29t38 11m280 39q-36 0-63-17t-41-48-14-70v-5q0-39 14-69t41-48 63-17q36 0 63 17t41 48 14 69v5q0 40-14 70t-41 48-63 17m0-38q23 0 39-12t23-35 8-50v-5q0-28-8-50t-23-34-39-13q-23 0-39 13t-23 34-8 50v5q0 28 8 50t23 35 39 12m249 37q-30 0-47-17t-17-55v-161h-42v-36h42v-63h48v63h57v36h-57v161q0 19 8 28t20 9q8 0 19-2t16-3l7 32q-11 3-26 5t-28 3m199 1q-37 0-63-17t-41-48-14-70v-5q0-39 14-69t41-48 63-17q36 0 63 17t41 48 14 69v5q0 40-14 70t-41 48-63 17m0-38q23 0 39-12t23-35 8-50v-5q0-28-8-50t-24-34-38-13q-23 0-39 13t-23 34-8 50v5q0 28 8 50t23 35 39 12m409 38q-32 0-62-10t-58-29v-76h38l8 56q16 10 34 15t40 5q25 0 42-7t26-21 9-30q0-17-8-29t-26-22-49-17q-36-8-62-22t-38-35-13-47q0-28 15-50t41-34 61-13q38 0 66 11t48 28v71h-38l-8-51q-11-9-27-15t-41-5q-20 0-36 7t-24 20-9 30q0 16 8 27t26 20 48 17q56 14 85 41t29 67q0 29-16 51t-43 34-66 13m290-5h-128v-31l40-7v-305l-40-7v-31h88v343l40 7v31m120 5q-42 0-63-20t-22-57q0-38 31-61t86-22h47v-26q0-24-15-37t-41-14q-16 0-28 4t-23 12l-5 36h-37v-60q18-15 42-22t52-7q48 0 76 23t27 65v127q0 6 0 10t1 10l25 3v31h-69q-2-11-3-20t-2-17q-14 18-35 30t-44 12m7-41q24 0 43-11t29-28v-47h-49q-33 0-50 15t-16 36q0 17 10 26t33 9m324 41q-26 0-45-10t-32-29l-4 34h-42v-343l-39-7v-31h88v148q12-18 30-27t43-9q33 0 56 17t36 50 12 74v6q0 38-12 66t-36 45-55 16m-12-39q34 0 50-24t17-64v-6q0-30-8-53t-22-36-38-13q-22 0-37 10t-24 29v117q9 18 24 29t38 11" />
</svg>