<svg id="fnt-Roboto" viewBox="0 0 1581 1000" xmlns="http://www.w3.org/2000/svg"><path id="roboto" class="f" d="M249 667l-77-144h-84v144h-47v-356h118q60 0 92 28t32 79q0 33-17 58t-50 37l83 151v3h-50m-161-317v135h72q35 0 56-19t20-48q0-33-19-50t-57-18h-72m242 185v-3q0-39 15-70t43-48 62-16q54 0 87 37t34 99v3q0 39-15 70t-42 47-64 18q-53 0-87-38t-33-99m45 2q0 44 21 71t54 27q35 0 55-27t20-76q0-43-20-70t-55-27q-33 0-54 26t-21 76m476-3v3q0 61-28 98t-75 37q-50 0-77-36l-2 31h-42v-375h45v140q28-34 76-34t75 36 28 100m-45-2q0-46-18-71t-51-25q-45 0-65 41v115q21 41 65 41 33 0 51-25t18-76m90 3v-3q0-39 15-70t42-48 63-16q54 0 87 37t33 99v3q0 39-15 70t-42 47-63 18q-54 0-87-38t-33-99m45 2q0 44 21 71t54 27q35 0 55-27t20-76q0-43-21-70t-54-27q-34 0-54 26t-21 76m268-198h45v63h49v35h-49v164q0 16 7 24t22 8q8 0 22-3v37q-18 5-35 5-30 0-46-19t-15-52v-164h-48v-35h48v-63m130 196v-3q0-39 16-70t42-48 62-16q54 0 88 37t33 99v3q0 39-15 70t-42 47-63 18q-54 0-87-38t-34-99m46 2q0 44 20 71t55 27q34 0 54-27t21-76q0-43-21-70t-55-27q-33 0-54 26t-20 76" />
</svg>