<svg id="fnt-Rock Salt" viewBox="0 0 3084 1000" xmlns="http://www.w3.org/2000/svg"><path id="rock-salt" class="f" d="M589 687q-1 9-6 15t-16 6q-4 0-9-2-9 8-22 11t-24 8q-13 0-27-2t-27-1q-5-4-10-5t-11-1-11-1-10-7h-24q-4 0-10-4t-15-6-17-6-17-3h-3q-5-5-12-7t-15-4-14-4-12-5-11-7-13-3q-9-6-19-9t-21-8l-20-7q-9-4-19-9-2 0-4 0t-3-1q-3 0-3 2-4-3-8-6t-8-6q-2 1-4 1t-4 0q-4 0-8-1t-8-2q-5 10-6 22t-3 25-1 26-5 24q1 4 1 7v9q0 8 3 13-1 4-2 8t-2 8q1 5 1 10t0 10v8q0 5-1 9-5 3-9 6t-10 6q-4-6-12-7-2 2-3 7t-4 4q-7-6-11-9t-10-10q-1-1-1-3 0-2 1-4t1-4q0-6-1-10-1-7-2-13t0-12q0-8 1-16t5-16q5-14 7-30t3-31 2-32 1-31q-3-8-8-12t-4-15q0-10 6-15t10-12q-1-3 1-4l6-51q1-6 2-12t2-12q1-11 1-22t0-21q3-24 5-48t2-46q0-12 0-23t-4-22q-8 2-18 5t-17 9h-4q-12 0-23 5t-23 9q-4 2-9 3t-11 2q-2 1-5 3t-5 4l-9 2q-3 1-3 4t-2 4q-2 3-7 3t-7-1h-2q-12 9-23 15t-27 8l-11 7q-5 4-12 4-6 0-9-2-4-6-6-14t-8-12q3-3 3-7t2-7q15-7 30-13t28-14q2 1 5 1 4 0 8-2t8-3 8-4 9-1q17-9 35-15t36-16q2 0 4 1t3 1 3 0q3-4 8-6t10-3 9-3 7-7q2 2 7 2 8 0 15-4t16-3q2 0 3 0t4 1q4 0 4-2t3-5q30-5 59-9t60-5q4-3 10-3t9 3q9-1 17-1t17-1q19 0 39 3t40 7 37 14 34 20q2 5 4 9t6 7q0 1 0 1t0 2q0 5 3 10t3 12-2 13-2 14q-5 8-9 14t-4 16q-9 9-16 20t-14 20-16 18-21 14q0 4-4 10h-10q-1 4-5 6l-7 4q-3 2-5 5t-3 8q0 0-2 0-5 0-11 5t-11 8q-8 5-17 10t-15 14q-19 8-37 19t-38 18q-8 8-18 12t-20 10v2q0 4 3 8t6 6 9 4 8 0q10 8 22 14t27 9 27 10 24 12h12q11 10 26 15t30 8q6 6 15 8t17 3h3q2 0 3 0v1q0 2 2 3t3 1 4 1 2 2h5q10 0 20 4t19 4q5 0 7-1 3 1 4 4t4 5q4 0 7-1t6 0q10 0 20 3t19 7q15-7 30-11t33-5v1q0 6 3 11t5 11m-187-390q0-6-2-9t-5-6-8-5-6-7q-13-4-25-9t-25-8q-6-1-13-3t-12-1h-11q-3 0-6-1t-6-1q-7-1-14-2t-13 0q-13 0-26 1l-25 2q-5 0-11 0t-11 1q-2 1-7 2t-9 4-10 3-8 3q1 4 1 7v7q0 7-1 14t-2 15q0 3-1 6t-1 6q-1 4-1 9v10q-1 11-2 22t-1 22q-3 32-6 64t-5 63q16-3 31-10t29-15 28-16 30-13q4-5 10-8t9-9q5 0 7-2t7-4q23-20 48-38t46-39q2-7 7-13t9-14 8-13 3-15m343 87q-3 4-3 10t-1 9q0 6 0 12t1 11v7q-1 4-3 7t-3 7q-7 18-7 36v1q-2 6-5 11t-4 9-3 10 0 12q-7 17-18 31t-22 29q-10 4-19 10t-16 14q-16 5-30 11t-27 17q-9 1-18 3t-18 6h-6q-4 0-6-2-7 4-14 5t-13 1q-9 0-18-1t-17-3q-5-7-14-10t-15-7q-14-20-21-38t-13-42q1-6 4-13t1-14q9-26 24-47t33-39q0-3 1-5t0-6q1 0 2 0 4 0 5-2t0-5q18-11 32-26t33-24q2-5 5-8t6-6q15-5 28-14t27-15q8-5 15-6t15-4q3-1 5-1t6-1q9 0 17 3t17 3q2 0 4 0t4-1q8 11 21 16 3 7 7 13t8 10 8 12 5 14m-49 25q0-2 0-4-5-2-9-4t-10-2q-4 0-7 1-1-3-3-5t-5-3-5-1-5-3q-1-4-3-8t-6-6q-4 4-10 7t-12 5-12 6-9 8h-9q-3 5-8 8t-10 8q-8 4-14 9t-13 12-13 12-12 12q-7 14-14 24t-15 20-11 22-4 30v5q0 2 0 5 6 6 11 14t13 11q10 4 21 4t21 2q24-4 46-14t41-24q3-3 7-5t6-6q3-2 4-5t4-6q4-6 9-12t10-12q2-11 6-21t8-20 7-20 2-21q0-3 0-6t-1-5q4-5 4-12m447 170h2q0 5-3 8t-6 5-7 5-7 5q-2 2-3 4t-2 4q-3 2-7 3t-7 1-7 2-6 5q-23 2-45 6t-45 4q-5 0-10 1t-10 1q-10 1-20 1t-20 1q-14 0-28-1t-28-4q-4-3-8-4t-9-3-9-4-5-6q-8 0-13-3t-11-5-9-7-11-6q-5-6-10-13t-13-11q-1-9-5-19t-6-18-5-18-2-19q0-7 2-17t5-20 7-18 9-15q1-1 3-2t4-3q4-5 9-8t10-8q2-1 4-4t3-4q2-1 4-1t5-1 2-3 1-4q1 0 3 0t3 0q4 0 8-4t7-6q4-2 7-3t8-3q5-3 10-4t11-5q3-1 5-3t5-3q4-2 9-3t10-1 9-2 9-5h4q9 0 17-2t17-2q2 0 7 0 4-2 9-2 8 0 17 4t17 4h3q2 0 4 0 5 5 13 6t13 4q3 3 5 7t4 8l3 9q1 4 4 8-3 17-15 28t-30 10q-7 0-11-1t-9-4-7-4-9-3q5-10 7-21-5-2-11-3t-10-4q-13 4-26 5t-23 11q-2-1-5-1t-5-1q-3 0-12 4t-19 10-19 10-12 8q-4 2-7 6t-6 7-6 7-7 4q-1 6-3 9t-6 9q0 9-2 17t-1 18v6q0 3 1 6 5 6 8 14t11 11q1 2 0 2t-1 2q3 6 7 9t10 6 9 7 7 9q7 0 14 2t13 6 11 5 12 2q5 0 10-1 12 4 25 5t26 2q16 0 33-2t32-3q6-1 11-1t11-1q7-1 13-6t12-8q5 3 12 3 9 0 16-3t17-2m384 63q0 4-3 6t-8 5l-9 4q-4 2-6 6-5-2-10-2t-10-1q-6 0-13 2t-11 6q-2-1-4-1h-4q-8 0-15 1t-15 2q-4 0-8-1t-6-3q-5 2-9 2-7 0-13-2t-11-5-12-5-11-4l-4-7q-8-1-14-4t-13-8-13-7-12-5q-2-2-4-4t-3-5q-7-2-12-4l-10-5q-5-3-11-5t-15-3q-3-5-8-8t-11-4q-3 0-5 1v3q0 5 3 11t9 9q0 1 0 3 0 2 1 5t4 4q-2 6-4 11t-8 11-9 8-12 3q-2 1-2 3t-1 4-1 4-3 3q-2 1-5 1-5 0-8-2t-8-4v-2q0-6-2-9t-5-7-5-6-2-9q-1 1-3 1t-2 2q-1-5-1-8 0-10 3-19t3-18v-8q0-11 0-22t-1-21q0-9 1-18t2-19q5-32 9-64t12-64q-1-2-2-5t0-5q0-1 0-2 2-10 9-16t18-7h1q6 3 9 7t10 4q0 1 0 2t0 2q0 5 3 8t6 5q-2 5-3 11t-1 13-2 12-4 10q2 5 2 10t1 10-1 11 0 11q0 6 1 10 11 0 12-10 13-4 23-10t19-13 19-14 20-12v-1q0-3 1-4t1-4q7-2 12-6t10-9l9-11q5-5 11-9 4-8 7-18t8-17q10 0 21 2t18 7q0 4 4 5-5 21-16 37t-28 28q-2 5-6 9t-8 7-8 8-6 9q-6 1-10 4t-8 5-8 6-9 4q-4 5-9 9t-10 6-10 7-6 9h-13q-5 10-14 16t-17 11q1 6 5 10t9 6 9 7 8 7q21 8 40 18t36 24q1 0 2 0 4 0 7 2t6 2q2 4 6 6t7 3 7 3 5 7q7 0 13 3t11 7h6q16 0 30 3t30 3q8 0 15-1t14-5q3 2 6 3t6 2q3 0 8-1 0 5 3 10t3 11m526 7q0 4 0 7-3 1-4 3t-5 1q-1 7-5 12t-8 9-8 9-5 12q-7 4-14 10t-13 9q-4 2-8 4t-9 3q-14 6-29 13t-31 7h-3q-2 2-5 2t-6 2-6 1-4 3q-6-2-12-2h-3q-9 2-16 3t-16 1q-14 0-29-2t-29-3q-10-8-15-19t-6-23q0-9 4-17t10-15h1q5 0 9-2t9-2q5 0 8 4t5 10 3 11 0 9q5 2 11 3t13 0 14-1 16-2 16-4 13-7q26-2 47-12t43-23q1-5 4-8t4-10q0-1-1-2t0-2q-10-12-20-22t-27-12q-2-4-7-7t-9-4-9-4-6-7q-14-3-28-6t-23-14q-8 0-15-3t-14-5-14-5-15-3q-2-3-6-5t-7-3-8-4-6-5q-2 1-3 2t-3 2h-2q-1-3-4-4t-3-5q-9-1-16-4t-13-6-13-8-14-5q-5-4-9-8t-11-5q-1 0-5 1-1-9-7-13t-14-6q-5-13-13-23t-18-18q1-3 1-4 0-5-3-9t-5-6q-7-22-7-43 0-29 13-54t41-38q0-4 3-7t2-7q5 0 7-2t5-4 4-4 7-2q18-17 39-27t43-20q5-2 8-8h3q4 0 7-2t8-1q2-3 5-4t7-2 6-2 4-4h3q8 0 16-3t16-6h3q10 0 18-4t19-5q4-1 8 0t7 0q3 0 6 0t5-3h1q3 0 4 2t3 2q3 0 6-1t7-1q15 0 29 3t29 5q1 6 5 8t9 5v2q0 4 2 6-2 7-7 10t-11 6q3 2 3 6t1 6v6l-3-1q-8 0-8 8-6-4-13-5t-15-1q-10 0-21 0t-21 0q-4 5-10 7t-11 2q-7 0-13-2t-8-8q-2-1-4-1h-5q-7 0-15 1t-15 4-16 5-15 2q-3 4-8 6t-8 5q-10 2-18 7t-16 10l-16 10q-7 5-16 8-7 8-13 12t-15 8q-6 2-7 6t-4 8q-3 3-7 5t-7 5q-2 4-4 8t-2 9-4 9-6 7q0 2 0 4t0 3q0 7 2 14t2 14q10 17 23 31t28 26 32 22 32 20q6-1 11 1t10 2q6 5 14 7l15 5q8 2 16 6t12 8q2 1 4 1t5 1q2 0 3-2 22 8 43 18t44 16q10 8 21 13t22 12 22 14 18 16q1 10 4 18t3 19m390-18q-2 7-6 11t-11 7-13 3-12 0q-3 0-5 0t-4 0-3 2-2 4q-3-1-5-2t-5 0q-3 0-7 0t-6 1q-4 0-5-1t-3-2-3-3-3-2q-4-2-6-1t-7-3q-5-5-10-12t-8-15-8-15-10-14h-4q-9 0-12 7-3-1-5-3t-6-4q-11 3-23 6t-24 2h-7q-3 0-7-1-5 2-8 5t-9 3q-3 0-7-2-3 0-3 2t-3 3h-4q-7 0-14 0t-13 1q-9 0-19-3-3 2-6 2-2 1-2 3t-2 4-3 3-5 0q-1 6-5 10t-4 10q-5 3-8 7t-7 9-7 10-9 7q-3 3-2 9-5 4-13 8t-15 3q-14 0-19-15 0-5 1-11t2-10 4-10 9-6q0-4-3-6t-3-6q13-6 23-16t18-22 16-23 19-21v-11q14-15 19-35 5-1 7-5t2-9q2 0 3-2t4-1q4-12 10-22t10-20 10-20 6-24q7-1 8-7t1-11q8-7 11-16t7-19 7-20 10-18v-2q0-2-2-3t-2-3q1 0 1-1 5-2 8-8t9-8q10 8 18 10t21 3q6 6 7 16t3 19q4 15 9 30t7 31q1 9 5 17t5 18q1 6 0 15t2 15l4 8q2 5 4 11t3 12q4 14 7 31t10 31q3 4 8 6t11 3 13 1 10-1h5q3 0 6 1 2 4 2 7 0 6-4 9t-4 8q0 3 2 6-2-1-6-1-11 0-22 4 4 8 11 14t14 10q4-3 10-3 6 0 11 2t11 3q4 0 6-2 4 5 7 9t6 9m-153-78q-1-8-3-12t-4-9q-2-7-2-15t-3-15q-3-17-7-33t-11-32q2-3 2-6v-1q-4-5-6-12t-4-14-4-13-9-10q-1 2-1 6 0 4 1 7t0 6q-5 2-7 8t-7 8q-4 15-11 29t-16 28-15 27-12 29q-6 5-8 12t-2 13q4 3 10 3t11 0 10 1 9 5q6-2 14-3t12-4q10 4 21 4 6 0 12-1t11-3q4 1 6 3t8 2q2-2 3-4t2-4m415-12q0 6-4 8t-4 7q0 2 2 5-7 0-9 5t-5 9h-6q-3 0-4 1t-3 3-3 5q-9 2-18 6t-16 9-17 9-17 8q-4 7-13 12h-1q-3 0-4-1t-4-1q-2 0-2 0-15 10-33 10-5 0-9-1t-10-1q-1 0-2 1l-1 2q0 1-1 2t-3 1q-6 0-11-1t-11-1q-12-6-18-12t-12-17q-2-6-6-11t-6-10q-1-2-2-8t-2-11-2-11 0-7q0-6 0-12t2-11q3-19 4-37t8-37q-1-5-1-10v-11q0-9-2-15 4-7 4-15 0-8-7-10v-1q0-11-7-16 0-17 8-26t23-15q2-3 1-5 4 1 7 2t6 1q5 0 8-1 2 6 8 7t10 3v6q0 15 7 29-2 4-2 8t-1 9q0 6 1 11t0 12q0 6-1 11t-5 11q-1 6-1 14t-1 16-3 16-6 13q0 8 0 15t-1 14q0 11 2 26t6 24q3 4 10 6t11 2q6 0 11-2t8-6q3 1 4 3t4 4q27-12 55-22t55-25q4 2 8 2 5 0 10-1t10-1h3q1 3 1 4m376-188h1q-2 6-6 11l-9 11q-4 5-6 10t-2 13q-1 0-2 0t-3 0q-8 0-12 3t-11 6q-1-3-2-5t-5-4q-11 3-23 4t-23 3q-6 1-11 3t-11 3q-3 1-7 1t-7 0q-11 0-25 1t-24 8q-5-1-11-1t-10-1q-12 0-26 2t-25 9q-2-1-5-2t-6 0q-1 0-1 0t-2 0q0 5 1 9t6 7q-1 5-1 11 0 9 1 17t1 16q0 10-2 15 4 15 4 31 0 6 0 12t-1 12q0 5 4 8t4 9q0 2-1 4 7-2 13-4t13-3q4 0 8 1t6 4q0 3 0 6t-1 6q0 5 1 10t0 10q-4 6-9 12t-7 13q-7 0-13 4t-10 6-10 7-11 3q-7 0-10-2t-4-4-3-5-5-1q-1-7-4-12t-6-11-7-11-4-12q-3-12-3-26t-4-26q1-7 1-14t1-14q0-14-1-27t-1-28q-3-4-4-10t-1-11q-2-1-4-3t-2-4q-4-1-6-1-7 0-11 3t-9 4-7-1-7-1q-3 0-3 1t-2 2q-2 1-7 2t-12 2-13 1-8 0q-8 0-12-3t-10-7q1-3 1-4 0-5-3-8t-3-5q0-6 5-9t4-9q11-5 23-7t24-4 24-4 24-6q3 1 6 1t7 0q15 0 29-3t30-3q4 0 7 0t8 2q20-3 39-7t40-6q10-1 19-1t19-2q4-1 6-2t1-5q5 2 10 2 8 0 16-3t16-3q2 0 4 0t3 0q3 0 3-3t5-4q3-1 10-2t13-1 13-2 9-3l4-6q9 1 13 8t4 15q2 2 6 2t7 0" />
</svg>