<svg id="fnt-Rock 3D" viewBox="0 0 2602 1000" xmlns="http://www.w3.org/2000/svg"><path id="rock-3d" class="f" d="M269 439q1 4 4 4 11 2 18 10t12 18q3 7 6 11 3 3 5 7t6 8q8 13 7 26t-7 26q-10 18-25 34-1 1-1 1-15 8-24 23t-19 27q-14 16-33 14-3 0-4-2-4-9-11-15t-13-14q-10-16-19-33t-16-35q-1-2-2-4t-2-4q-2 2-2 4t-1 5q0 19-1 38t1 38q0 16-1 32t-8 31q-6 11-14 13-8 3-16 3t-16-1q-8-1-11-8-12-20-19-42t-7-47q1-11-1-22t-5-21q-7-26-7-52t2-52q3-21 2-42-1-10 0-20t4-20q4-10 5-21t1-22q0-12 1-23 4-25 27-34 16-6 31-8t32-3 31 0 31 5q4 1 8 0t8-3q10-5 19-3 10 2 20 1t19 0q26 1 44 20t19 49q0 13-1 27t-7 26q-11 30-39 41-8 2-16 4t-15 5m-124 70q1-3 1-6t-1-4q0-3-1-6t1-5q3-1 5 2t4 5q0 1 0 1t0 1q36 66 64 137 3 8 8 3 7-8 14-15t14-17q9-12-2-25-2-3-4-6t-4-5q-13-20-24-41t-22-42q-3-4-5-9t-4-9q-3-12-2-19t11-15q3-3 6-5t5-6q3-6 7-9t10-2q8-2 15-2t16-1q18 1 34-6 10-6 10-17 0-16-4-29t-13-25q-2-4-7-6t-9-2q-7 0-15 1t-14 4q-11 3-22 5t-22 10q-10 6-22 9t-23 4q-4 0-9-1t-8-2q-5-2-4-7 4-20 12-37t22-32q1-1 3-3t2-5q-5 0-10 0t-10 1q-16 0-32 2t-32 9q-6 3-6 10 1 14 0 28t-5 28q-2 7-3 14t-1 15q0 41-6 81t-5 81q0 19 1 38t7 37q4 14 8 29t6 30q2 19 22 19 17 1 21-17 4-19 4-38t-1-38q0-15-3-28t-4-27q-1-12-3-23t2-23q1-2 1-6t5-4q7-1 12 7 2 3 4 7t5 7m98-72q19 0 40-7 9-2 16-8t13-14q14-23 18-54 1-10-2-18t-8-15q-15-19-34-34-9-8-20-12t-24 1q-9 4-19 3t-19-4q-5-1-10-2t-11-2q-6-1-9 3-16 13-25 30t-13 38q-1 4 0 5t5-1q4-1 8-2t8-2q14-1 28-4t27-6q14-4 28-8t29-4 27 6 17 21 3 30q-3 17-16 25-10 7-20 9t-22 2q-18 0-34 3-3 1-6 2t-2 5q0 7 6 10 5 2 10 3t11 1m28-165q14 7 24 17t21 21q9 9 15 20t4 26q-2 14-6 28t-12 25q-1 2-2 3t0 4q5-5 9-10t8-11q7-16 9-33t0-35-12-31-26-21-32-3m-218 284q1-3 1-5t0-3q1-16 1-32t1-31q2-21 4-42t3-42q0-14 1-29t5-28q3-11 3-23t1-23q0-1 0-2t-2-2-2 0-2 3q-3 5-4 13-1 9-2 18t0 19q0 13-4 25-3 8-5 16t-1 17q1 11 1 23t-2 23q-3 20-3 39t1 40q0 6 1 12t4 14m234-229q9 14 14 28t6 31q6-9 5-22t-8-23-17-14m-82 70q-1 1-1 4t-1 6q-5 9-10 19t-12 18q-8 10-20 7-3-1-7-2t-6-1q-8-2-12-7t-5-13q-1-10-1-20t1-18q1-5 1-10t-2-9q-1-2-1-4t5-1q5 0 10-2t11-2q20-3 38 10 6 4 9 10t3 15m-42-32q-3 1-7 1t-6 1q-5 1-4 4 2 7 4 13t6 13q3 2 7 1 7-2 14-3t14-4q11-4 3-13-7-7-15-9t-16-4m-26 69q4-9 7-16t6-15q1-2 1-3t-1-3q-2-6-5-12t-4-11q-1-1-1-3t-3 0q-2 1-1 4 1 7 0 14t-1 14 0 15 2 16m7 0q0 8 6 10 6 1 11 3 10 4 16-5 6-9 11-18t9-17q2-3 2-6 1-8-6-6-8 2-17 4t-17 4q-4 1-5 4-3 6-6 13t-4 14m134 152q3 1 6-1t4-3q9-8 17-18t12-20q5-10 6-21t-5-21q-4-6-9-12t-10-10q-12-10-24-19t-26-17q-2-1-5-2t-6-1q-7 0-14-2t-12-7q-4-3-6 0t-4 5q-4 3 0 7 11 13 19 29t14 32q7 19 16 36t16 37q1 4 4 6t7 2m-17-4v-4q-11-26-22-52t-23-52q-3-7-7-13t-8-11q-1-1-3-3t-3 0q-2 0-2 2t0 4q0 5 0 9t3 10q9 20 19 39t22 38q5 8 10 17t14 16m-175 112q1 1 1 1t0 2q1 0 2 1t1 1q10 2 19 1t19-5q2-1 5-6 3-6 6-13t3-15q1-17 1-35t0-34q-1-13-1-27t3-26q2-14-3-25t-13-20q-2-3-4-2t-3 5q0 3-1 7t-1 8q1 16 2 31t5 31q5 25 4 50t-4 50q-2 14-10 19t-20 3q-6-1-11-2m126-60q1-3 0-5t-1-3q-9-20-17-40t-18-39q-5-10-10-20t-9-18q-1-1-2-3t-2-1q-2 1-2 2t0 4q0 6 0 13t4 13q7 15 14 31t15 31q6 10 12 19t16 16m15 7q6 4 10-1 11-9 19-21t16-23q1-1 1-3t-1-3q-4-1-6 1-2 2-3 6-2 7-5 12t-8 11q-6 5-12 10t-11 11m-164-24q-2 14 2 27t9 25q-1-13-5-26t-6-26m581-85q1 26 0 50t-7 48q-3 12-9 24t-19 23q-8 8-26 14t-38 10-35 3q-36-3-46-24-4-9-6-17t-2-17q-2-33 1-65t2-65q0-27 13-53 6-12 14-24t25-21q33-19 82-16 9 1 16 4t11 7q10 9 15 18t6 19q1 22 3 42t0 40m-12-47q0-9 1-18t-1-18q-2-26-26-36t-60-3q-11 2-19 6t-14 9q-21 19-31 39t-11 42q-1 31-3 62t-4 62q0 14 2 27t10 26q4 7 12 10t19 6q11 1 26-1t29-5 26-10 17-10q14-15 19-31t9-33q4-31 2-62t-3-62m-31 12q-5 24-3 49t7 50q1 7-2 14t-12 12q-19 10-38 8t-34-14q-23-21-28-44t3-48q4-12 12-23t25-20q12-7 26-10t25-1q19 5 19 27m-13 29q0-2 0-4t1-4q0-8 0-17t-1-16q-1-4-4-7t-12-3q-9-1-13 1t-7 7q-1 2-2 4t-2 5q-10 30-3 61 2 13 8 24t25 20q3 2 6 3t8 0q4-1 3-3t0-4q-3-17-5-34t-2-33m-50-41q-15 9-22 18t-9 19q-10 24-6 47t28 45q11 10 26 12t29-7q7-4 8-7t-10-7q-30-10-40-30-11-22-11-44t7-46m381 165h-2q0 3-1 6t-1 7q-4 19-10 29t-17 13-33 6q-16 1-32-5t-30-15-17-23q-6-19-16-37t-12-39q-8-48 8-89t57-71q14-10 14-26-1-16 4-19t22 1q39 8 54 24t14 41q0 7-3 11t-13 6q-17 0-33 4t-26 17q-28 27-33 65-2 11-2 23t2 23q4 21 25 15 6-2 12-4t11-4q9-7 18-7t19 1 19 2q7 1 8 4t0 9q-2 8-3 16t-3 16m-82-241q-3 8 1 16t19 14q5 1 10 4t6 7q4 8 9 11t15 2 12-9 3-13q0-9-6-18t-17-17-22-10-22-2q-5 1-6 4t-2 11m37 208q-6-2-11 1t-10 4q-26 8-39 0t-14-33q0-35 11-66t45-53q12-7 11-13t-14-13q-15-9-28-6t-26 17q-15 16-24 35t-16 38q-11 28-7 55t20 54q11 19 32 23t46 1q25-3 24-44m11 8q1 2 0 6t-2 6 5 4q9 2 15-3t9-13q1-6 0-9t-8-5q-10-2-14 2t-5 12m-99 39q14 23 33 32t51 6q17-2 25-10t12-29q1-3 2-7t-3-6q-4-2-8-1t-8 4q-34 23-78 16-9-2-26-5m289-281q4 0 6 0t6-1q7-1 7 8 3 12 8 24t9 23q2 6 4 5t5-4q6-10 12-19t11-19q13-22 31-30t37-11q13-2 15 0t5 18q1 1 1 4 7 23 3 43t-16 39q-3 6-3 12t3 13q15 34 30 68t34 66q6 12 0 23-4 8-9 15t-6 18q-1 4-3 4t-5 1q-13 0-25 1t-25 5q-3 1-5-2t-3-6q-4-23-9-47t-9-48q-1-7-3-15t-2-15q-2-7-6-8t-8 3q-8 11-17 22t-18 23q-3 4-3 8t1 9q6 17 9 35t8 36q1 5 0 8t-6 4q-14 0-28 4t-29 5q-2 0-5 0t-5 1q-10 0-12-3t-1-16q2-38 2-78t-3-78q-2-24-4-49t-5-48q-1-12 2-23t7-22q3-7 8-6t9 0m119 40h9v0h20q3 0 5-1t2-6q-1-11-3-22t-2-21q-1-3-2-5t-4-3q-10-2-19 2t-17 8q-6 3-6 10t-1 14q-1 12-1 17t4 6 15 1m-22-44q-5 1-8 4t-5 7q-10 13-19 28t-17 29q-2 3-2 8t1 8q1 2 1 4t2 4q2 0 3-1t2-3q15-20 32-36 2-3 4-7t2-7q1-9 2-19t2-19m-107 46q5 0 10-5t8-13 2-13q0-4-3-4-7-4-14 0t-9 12q0 3-1 5t-1 5q-4 15 8 13m19-1q1 2 1 3t0 2q6 14 12 28t12 26q1 2 3 4t4 1q2-2 2-5t-1-4q-3-18-10-33t-12-31q-1-2-2-4t-3-2q-2 1-2 3t-2 4q0 2-1 4t-1 4m-8 276q3-1 6-1t7-1q13 1 11-15 0-7 0-15t-2-14q-5-16-2-28t16-21q14-12 25-27t23-30q4-6 9-7t10 0q6 1 5 5t1 9q5 29 10 57t11 56q2 14 13 12 8-1 15-3t16-1q5-1 6-4t-1-7q-12-40-28-78t-31-75q-4-9 0-16 9-13 14-27t12-28q6-12-6-12-8 0-17 0t-17 0q-6-1-12 3t-10 9q-18 19-33 43t-26 49q-2 3-3 7t-6 3q-3-1-4-6t0-8q-3-21-6-42t-5-42q-2-16-14-14-7 2-7 7t1 10q6 59 8 118t-1 119q-1 17 12 15m8-253t-2 1q3 18 5 36t5 36q1 2 1 5t4 1q2-1 5-8t4-15 1-10q-5-12-11-23t-12-23m196 184q-1-2-2-5t-2-4q-17-31-32-62t-29-64q0-2-1-5t-4-3q-3 0-4 3t-3 5q-2 4-2 7t2 7q9 19 15 39t16 39q8 16 13 33t11 34q1 3 2 6t4 1q5-7 9-14t7-17m-166 61q5-1 10-2t9-1q3 0 4-2t1-5q-3-17-7-34t-9-34q0-2-2-4t-3 0q-7 3-12 12t-3 20q4 20 4 41 1 10 8 9m951-352q2 18-3 37t-10 38q-1 2-1 4t1 5q8 13 16 25t13 26q9 24 19 47t12 48q2 12 5 23t2 23q-2 23-21 43t-50 27q-11 2-21 5t-19 8q-11 7-26 8t-29-3-23-16q-9-13-20-26t-23-25q-3-2-4-6t0-6q2-21 8-41t16-39q3-8 13-11 15-3 32-2 10 1 15 8 10 15 14 30t6 32q1 9 0 19t1 20q1 2 1 3t3 3q3 0 4-2t4-2q5-7 7-13 9-26 4-50t-12-49q-6-21-19-39t-31-34q-11-10-20-11t-24 4q-13 4-14 3t-4-11q-3-12 4-18t20-9q38-11 66-34 14-13 17-27t-2-28q-3-8-9-9t-14 5q-4 3-7 7t-5 8q-4 6-7 6t-10-5q-7-5-13-11t-13-10q-4-3-7-6t-8-5q-11-5-1-11 10-5 20-11t21-10q11-5 24-7t25 1q5 1 10 0t8-4q1-1 2-2t3-1q34-16 43 13 6 15 9 31t2 34m-7-1q3-16-2-32t-10-32q-4-12-13-13t-20 5q-4 3-5 6t5 6q15 9 17 23 2 22 0 44t-12 43q-5 11-14 20t-17 18q-1 1-3 3t1 3q1 1 3 1t4-1q12-1 22-5t20-7q10-4 12-11 5-17 9-35t3-36m-38 259v14q-2 22-13 33t-35 15q-4 1-7 1t-6 1q-12 1-22-5t-11-14q-2-9-1-17t3-16q2-8-8-8-4 1-9 0t-8 0q-2 0-4 0t-3 2q-2 7-5 15t2 14q13 14 24 27t22 28q8 10 24 12t26 0q16-6 28-15t21-19q10-12 15-26t9-26q9-29 7-58t-21-56q-12-18-31-31t-41-25q-5-2-6-5t2-6q4-6 9-11t10-10q24-24 29-52t2-55q-1-16-20-26t-42-6q-16 4-28 11t-26 14q-4 2 0 5 9 7 17 15t16 14q9 7 14-2 2-4 6-7t7-5q11-7 21-5t14 13q12 40-29 67-14 10-31 17t-34 13q-13 5-13 16 1 5 2 7t11 0q16-5 28-3t23 14q9 8 17 18t14 20q15 25 22 51t9 52m-37-157q18 10 31 21t27 21q20 16 26 37 10 29 9 57t-13 58q-5 12-11 23t-15 22q2 0 4 0t2 0q31-5 50-24t18-43q0-25-6-49t-14-47q-8-22-20-43t-23-42q-2-3-4-6t-8 0q-22 11-53 15m-72 157q5-3 13-2t12-5q8-11 12-23t7-25q1-4-3-6-4-2-13 0t-16 4-9 7q-4 9-8 19t-8 19q-3 7 0 9t13 3m52-48q-4 12-8 23t-11 22q-7 12-9 23t0 24q0 6 5 9 4 3 11 4t15 0 11-3q3-2 3-4t0-3q-2-13-1-27t-1-26q-1-11-4-22t-11-20m284 72q0-18 3-37t5-36q3-33 0-65t-8-64q-7-48 8-91 4-13 12-26t14-26q1-2 4-3t6-1q16 0 32 1t31 5q6 1 13 1 37-1 72 7t65 30q11 7 22 13t23 13q27 16 35 46 6 25 12 50t4 52q-2 24-12 43t-31 33q-13 8-27 16t-28 16q-12 6-21 17t-20 22q-3 3-6 6t-6 5q-19 6-38 15t-38 16-41 9q-20 1-40-4t-41-7q-5-1-6-6t-1-9q1-10 1-20t2-21m73-305q13 2 27 3t26 4q33 7 61 22t44 47q21 42 27 88t-3 93q-1 3-2 7t1 6q2 2 5 0t7-2q24-8 37-24t17-41q6-42-3-82t-29-76q-8-16-21-25t-31-13q-28-8-58-14t-56-19q-15-7-32-11t-34-1q-13 2-19 7t-6 20q0 11 10 10 8 0 16 0t16 1m67-30q4 4 17 8t29 10 30 7 23 3q-22-17-48-21t-51-7m-121 336q1 9 0 19t-3 20q0 4-1 7t6 4q18 3 35 7t35 2q27-3 49-16t44-29q25-17 37-39t16-47 2-51q-2-41-20-74t-49-61q-29-27-64-35t-72-5q-17 1-17 19 0 26 1 52t0 53q-2 43 1 86t0 88m270-278q13 24 22 48t15 49q4 24 5 50t-8 53q13-14 18-37t4-47-9-50-19-41-28-25m-45 127q-2-27-11-54t-27-46-46-26q32 26 53 56t31 70m-155-87q33 2 58 18t40 41 14 55q0 21-11 40t-29 34-41 20q-18 5-38 8-13 1-18-4t-5-16q-1-33-2-65t-2-65q0-9 0-17t-2-17q-4-15 1-22t20-10q5 0 9 0t6 0m103 124q3-40-15-66t-46-41q-22-13-51-11-10 1-15 6t-2 17q1 7 1 13t0 13q-2 35 1 70t3 71q-1 15 14 12 11-1 22-3t22-6q29-10 46-30t20-45m-106 5q-1-16-1-32t0-34-6-34q-2-7 2-7t7-1q17-1 32 4t26 20q18 22 17 41t-18 42q-8 11-18 18t-23 12-16 3-3-15q0-3 0-7t1-10m17-100q-5-1-9 1t-3 10q2 21 2 43t2 44q0 8 4 9t9-2q12-7 21-16t15-21q4-7 7-13t1-14q-3-14-18-27t-31-14m133 177q7-6 11-19t5-26-3-25q-2 18-4 35t-9 35" />
</svg>