<svg id="fnt-Rosarivo" viewBox="0 0 2011 1000" xmlns="http://www.w3.org/2000/svg"><path id="rosarivo" class="f" d="M25 305l76 2h59q57 0 89 24t33 75q0 39-21 63t-55 35q18 31 44 70t42 57 28 20 34 2q1 4 1 7t-1 8q-37 2-57 5t-24 4-15-13-26-36-28-42-27-45-19-30q-32 0-49-2v74q0 30 3 66 16 4 44 4 2 4 2 8t-2 7l-66-1q-38 0-70 4-2-3-2-9l0-4q26-6 34-18 7-10 9-25 6-46 6-123 0-166-9-169-10-2-33-2-2-4-2-7t2-9m213 106q0-36-21-62t-55-26-48 2q-5 22-5 166 18 1 50 1t55-22 24-59m389 134q0 111-129 132-53 0-90-38t-36-94q0-112 130-133 52 0 88 39t37 94m-118 110q72 0 72-92 0-52-24-91t-64-39-57 25-18 72 25 86 66 39m297-212q-15-13-38-13-49 0-49 39 0 13 9 24t23 18l39 18q57 28 57 74 0 34-27 54t-64 20q-19 0-41-4t-30-8q-1-22-9-62 6-4 9-4t6 1q10 30 17 39 6 5 20 12t33 6 33-10 14-32q0-14-5-21t-10-11-8-6-8-5-7-4-3-1l-38-18q-48-23-48-67 0-35 27-53t61-17q16 0 37 4t31 9q-3 12-8 56-2 2-7 2t-8-1q-4-25-8-39m270 42l-2 122q0 36 24 36l18 0q2 2 2 8l-1 5q-39 7-55 21-11-3-19-14t-9-23q-40 25-79 37-17 0-35-20t-18-48q0-14 6-26t16-16q37-19 110-33v-47q0-28-9-41t-21-14-26 4-20 17-6 34q0 2-7 4t-17 2-14-5-3-14q0-18 26-39 6-4 35-13t34-10q36 0 53 21t17 52m-130 122q0 12 10 26t21 14 29-9 26-18q2-29 2-68-42 6-74 24-14 7-14 31m212-165l-19 1q-3-3-3-8l1-6q34-4 56-14 7-3 8-3 6 0 13 20t8 39q38-39 68-59 20 0 33 12t13 29q0 20-35 20-8-26-26-26-12 0-50 41-3 38-3 121 0 42 7 42 11 2 40 2 2 3 2 8t-2 7l-56-1q-41 0-72 4-3-3-3-9l1-4q26-5 34-15 5-8 8-26t2-70 0-57-1-15-2-13-4-10q-5-10-18-10m313 226l-45-1q-35 0-66 4-3-4-3-9l1-4q21-5 29-15 5-8 8-20t3-64v-48q0-31-3-43t-8-16-14-5l-19-2q-1-2-1-6l1-7q26-5 42-11t39-17q5 0 7 6-6 34-6 162 0 23 2 51t5 28q7 2 28 2 1 3 1 8t-1 7m-47-321q-18-12-26-33 6-7 16-15t18-10q19 14 25 33-14 18-33 25m117 73l42-1q1 2 1 7l-1 8q-16 0-22 1 4 36 23 78l44 96 35-92q18-49 22-80-15-3-32-3-1-3-1-8t1-7q20 1 44 1t42-3q3 6 3 13-12 6-18 11-17 17-31 54l-74 182h-8l-74-174q-20-50-32-63-7-8-20-12-1-1-1-5t3-8q35 5 54 5m469 125q0 111-129 132-53 0-90-38t-36-94q0-112 130-133 52 0 88 39t37 94m-118 110q72 0 72-92 0-52-24-91t-64-39-57 25-18 72 25 86 66 39" />
</svg>