<svg id="fnt-Rubik" viewBox="0 0 1300 1000" xmlns="http://www.w3.org/2000/svg"><path id="rubik" class="f" d="M81 667h-26q-5 0-8-4t-3-8v-326q0-6 3-9t8-3h122q57 0 90 26t33 79q0 38-20 62t-52 34l77 133q2 3 2 6 0 4-4 7t-7 3h-24q-8 0-12-5t-7-9l-73-127h-87v129q0 5-4 8t-8 4m12-308v125h82q38 0 56-16t19-47q0-30-19-46t-56-16h-82m369 313q-32 0-55-15t-33-39-12-59v-141q0-5 3-8t9-3h25q5 0 8 3t3 8v139q0 74 65 74 31 0 50-20t19-54v-139q0-5 3-8t8-3h25q5 0 8 3t3 8v237q0 5-3 8t-8 4h-23q-5 0-9-4t-3-8v-22q-13 18-33 28t-50 11m332 0q-30 0-50-11t-32-27v21q0 5-3 8t-8 4h-23q-5 0-9-4t-3-8v-332q0-5 3-8t9-3h24q5 0 8 3t3 8v115q13-15 32-26t49-10q28 0 48 9t32 27 20 39 7 45q1 8 1 15t-1 15q-1 24-7 45t-20 38-32 27-48 10m-10-41q26 0 40-11t22-30 7-39q1-14 0-29-1-21-7-39t-22-30-40-11q-24 0-39 11t-24 28-8 35q0 8 0 19t0 19q1 19 8 36t23 30 40 11m215 36h-24q-5 0-9-4t-3-8v-237q0-5 3-8t9-3h24q5 0 8 3t3 8v237q0 5-3 8t-8 4m3-309h-31q-5 0-9-3t-3-8v-27q0-5 3-9t9-3h31q5 0 9 3t3 9v27q0 5-3 8t-9 3m118 309h-24q-5 0-8-4t-3-8v-332q0-5 3-8t8-3h24q5 0 8 3t3 8v174l99-82q6-5 9-7t11-1h26q5 0 8 3t3 7q0 2-2 5t-4 5l-116 96 128 124q6 5 6 9 0 5-3 8t-7 3h-26q-8 0-11-2t-9-7l-112-106v103q0 5-3 8t-8 4" />
</svg>