<svg id="fnt-Rubik Mono One" viewBox="0 0 5914 1000" xmlns="http://www.w3.org/2000/svg"><path id="rubik-mono-one" class="f" d="M350 536l61 115q1 2 1 6t-3 6-8 4h-113q-15 0-21-13l-44-99h-42v98q0 6-4 10t-10 4h-108q-5 0-9-4t-4-10v-323q0-5 4-9t9-4h195q68 0 108 32t40 89q0 68-52 98m-107-126h-62v53h62q11 0 17-8t6-18-6-19-17-8m528 225q-49 37-133 37t-134-37-49-114v-191q0-5 4-9t10-4h104q6 0 10 4t4 9v199q0 21 13 32t38 11 37-11 14-32v-199q0-5 4-9t9-4h105q5 0 9 4t4 9v191q0 78-49 114m482-78q0 110-141 110h-206q-5 0-9-4t-4-10v-323q0-5 4-9t9-4h201q71 0 105 25t34 78v2q0 24-13 41t-27 21q19 6 33 26t14 47m-158-25h-72v49h72q12 0 17-8t6-17v-1q0-9-6-16t-17-7m10-91q5-7 5-16t-5-16-15-6h-67v45h67q10 0 15-7m541-22h-90v145h90q6 0 10 4t4 10v75q0 6-4 10t-10 4h-317q-5 0-9-4t-4-10v-75q0-6 4-10t9-4h92v-145h-92q-5 0-9-4t-4-9v-76q0-5 4-9t9-4h317q6 0 10 4t4 9v76q0 5-4 9t-10 4m338 60l135 170q2 3 2 7t-3 7-8 4h-129q-11 0-18-8l-87-108v102q0 6-4 10t-9 4h-103q-6 0-10-4t-4-10v-323q0-5 4-9t10-4h103q5 0 9 4t4 9v94l79-99q8-8 19-8h120q5 0 8 3t3 7-2 8l-119 144m866-162h91q6 0 10 4t4 9v323q0 6-4 10t-10 4h-90q-6 0-10-4t-4-10v-155l-36 72q-3 6-9 9t-12 4h-34q-9 0-14-5t-7-8l-37-72v155q0 6-4 10t-9 4h-91q-5 0-9-4t-4-10v-323q0-5 4-9t9-4h92q14 0 21 13l66 120 65-120q8-13 22-13m524 144v61q0 52-25 86t-66 49-95 15-96-15-65-49-25-87v-59q0-75 51-113t135-37 134 37 52 112m-237-9v80q0 20 13 31t38 11 37-11 14-32v-79q0-20-14-32t-37-11-38 11-13 32m539-135h93q6 0 10 4t4 9v323q0 6-4 10t-10 4h-80q-12 0-20-11l-109-139v136q0 6-4 10t-10 4h-93q-5 0-9-4t-4-10v-323q0-5 4-9t9-4h81q12 0 20 10l109 150v-147q0-5 4-9t9-4m548 144v61q0 52-25 86t-66 49-95 15-96-15-65-49-25-87v-59q0-75 51-113t135-37 134 37 52 112m-237-9v80q0 20 13 31t38 11 37-11 14-32v-79q0-20-14-32t-37-11-38 11-13 32m1087 9v61q0 52-25 86t-66 49-95 15-96-15-65-49-25-87v-59q0-75 51-113t135-37 134 37 52 112m-237-9v80q0 20 13 31t38 11 37-11 14-32v-79q0-20-14-32t-37-11-38 11-13 32m539-135h93q6 0 10 4t4 9v323q0 6-4 10t-10 4h-80q-12 0-20-11l-109-139v136q0 6-4 10t-10 4h-93q-5 0-9-4t-4-10v-323q0-5 4-9t9-4h81q12 0 20 10l109 150v-147q0-5 4-9t9-4m324 221v31h200q5 0 9 4t4 10v70q0 6-4 10t-9 4h-316q-6 0-10-4t-4-10v-323q0-5 4-9t10-4h311q5 0 9 4t4 9v71q0 5-4 9t-9 4h-195v32h167q6 0 10 4t4 9v65q0 6-4 10t-10 4h-167" />
</svg>