<svg id="fnt-Rubik Vinyl" viewBox="0 0 2957 1000" xmlns="http://www.w3.org/2000/svg"><path id="rubik-vinyl" class="f" d="M127 691q-2 1-4 3t-4 2q-4 2-8 3t-9 1q-6 0-13 0t-13 0q-11 0-21 0t-21 0q-5 0-11-2-1 0-3-1t-3-2q0-1-2-1t-1-1q-1-1-2-2t-1-2q0-1-2-3t-1-3q-1-1-1-3t0-4q-1-6-1-13t0-13q-1-8-1-19t-1-23-1-19v-243q0-7 0-15t1-15q0-4 1-9t2-8q3-5 7-8t10-5q7-1 14-1t14 0h88q8 0 16 0t16 1q10 0 20 1t21 2q12 1 26 3t25 7q8 4 21 14t28 21 21 18q6 13 10 27 3 8 3 16t1 18q0 3 0 7t-1 8l-4 6q0 2 0 2t-1-1 0-1q0-2 0-3t-1-4q-1-7-3-14t-3-14q-4-8-12-19t-17-21-16-17q-4-4-17-8t-28-7-32-6-29-3-16-1h-67q-10 0-21-1t-20 1q-4 1-8 1t-8 3q-2 0-3 1t-3 3q0 0-1 1t-2 1q-1 1-1 3t-2 2q-2 5-3 10t-1 11q-1 11-1 26t1 27v212q0 6 0 14t2 14q0 1 1 3t2 3q3 7 10 11 3 2 7 2t8 1q11 1 26 1t27 0q5 0 11-1t10 2q1 0 3 1t3 1 0 2-1 3q0 4-1 6 0 1-1 1t-2 2q-1 2-2 3t-4 4m34-236q-1-2-3-4t-2-4q-2-4-2-8t1-8q0-1 0-2t0-3q1-1 1-2t2-1q1-1 1-3t2-3 3-2 3-1q7-4 17-2t16 7q2 1 4 4t2 4q1 2 1 3t1 4q0 1 0 2t0 2q0 2-1 4 0 1 0 3t-1 3q-1 2-4 5t-4 3q-5 4-12 5t-13 0q-1 0-3 0t-3-1q-1-1-3-2t-3-3m171 162l-23-43q-4-6-7-13t-5-13q-1-6 1-13t7-10q1-1 4-3 1-1 1-1 1 0 0 0t1 1q0 2 0 3t1 3q1 3 1 6t1 6q1 2 2 4t1 4q5 7 10 19t12 25 11 20q1 2 2 5t1 5q0 1 0 3t-1 3q0 0 0 3t0 3-3 0-3-1q0 0-2 0t-2 0-1-2-1-1q-2-3-4-6t-4-7m-37 83h-55q-10 0-20-1t-17-7q-4-3-6-7t-5-7q-4-7-8-14t-6-15q-1-2-3-5t-2-5q-1-3-3-5 0-1-1-1t-2-1q-2-1-5-3t-4-2q-1 0-3-1t-2-1q0-1 0-3t0-3q0-4 0-8t0-8q0-6 0-13t1-12q1-1 1-3t1-3 1-2 2-1q1-1 2-2t2-2q1 0 3 0t2 1q1 1 3 1t2 1q1 0 2 1t2 3q2 2 4 5t3 6q6 11 11 22t10 24q4 6 7 13t9 12q7 7 16 9t19 3q11 1 24 1t23 0q4 0 8 0t7 0q1 0 3 0t3 1q1 0 3 1t3 2q1 1 2 1t1 1q0 0 0 2t0 2q1 4 0 6t-2 2q-1 1-2 3t-3 3q-6 5-14 7t-17 2m400-252v135q0 7 0 19t-3 25-10 20q-7 8-18 11-7 1-14 0t-14-2q-9-2-18-4t-19-3q-5-1-11-2t-11-3l-4-2q-2 0-2-1 1 0 1 0t1 0q1-1 2-1t2 0q5-2 10-3t11 0q11 0 26 1t27-1q6 0 12-3t10-8q1-2 1-4 1-4 1-7t1-6v-152q0-10 0-20t-5-18q-1-1-2-3t-1-2q-1-1-3-2t-3-1l-3-2q-6-2-13-2t-12 0q-11 0-27-1t-27 2q-3 0-6 1t-7 3q-1 0-2 0t-2 2q-2 1-4 4t-2 5q-1 1-1 2t-1 3q-1 6-1 12t0 12v53q0 10 0 19t-1 20q0 4-1 9t-2 9q-1 2-3 4t-2 5q-1 1-3 1t-3 2q-2 2-3 3-1 0-3 0t-4 0q-1 0-2 0t-2 0q-2 0-3-1t-2-1q-1-1-3-2t-2-1q-1-1-2-3t-2-2q-5-7-6-16t-1-17q0-5 0-17t0-24 0-23 0-17q0-8-1-17t-5-16q-1-1-2-2t-1-2q-1-1-2-2t-1-1q-2-1-3-2t-3-1q-4-2-8-2t-8-1q-8 0-16 0t-17 0q-6 0-13-1t-12 1q-6 0-11 2-2 0-3 1t-3 2q-1 1-2 1t-2 1q-1 1-2 2t-1 2q-1 1-2 2t-1 3q-2 3-3 8t0 9q-1 11-1 27t0 29v29q0 3 0 5t0 6q0 0 0 2t-1 1 0-2q-1-3-1-7t0-6v-94q0-7 0-13t2-13l1-6q1-1 2-3t2-2q1-2 2-4t5-2q5-4 11-5t13-1q12-1 28 0t28 0q6 0 12 0t12 2q2 0 3 0t4 1q11 3 16 14 2 4 2 9t1 9q1 8 0 15t0 16v57q0 6 0 13t2 12q1 6 4 10 1 1 2 3t2 2 3 0q1 0 3 0t4 0q1-1 2-3t1-2q4-6 5-13t1-13q0-6 0-18t0-26 0-25 0-18q0-9 1-20t10-17q6-5 15-7t18-1h37q7 0 14 0t13 1q5 0 10 1t9 3q1 0 4 3 1 1 3 1t2 2q2 4 4 8t2 8q2 10 1 20t0 20m330 96q0 11 0 25t-1 27q-1 11-4 26t-9 27q-5 9-13 18t-15 16q-8 7-23 12t-29 6-22 0q-9-1-17-3t-16-5q-8-4-15-6-1 0-3-1t-2 0q-2 0-3 0t-3 1q-7 1-13 4t-13 5q-10 2-20 1t-20 0q-8 0-18 0t-17-3q-7-2-12-7t-11-10q-2-2-5-5t-5-5q-9-10-12-22t-3-23q0-11 0-24t0-24v-227q0-7-1-15t2-15q1-6 3-11t7-8q3-3 7-5t9-4q7-5 22-7t29-1 22 0q11 0 23 1t19 11q3 4 4 8t2 8q3 10 3 20t0 21q0 3 0 6t1 6q0 1 0 2t1 3l3 5q1 0 2 2t2 2q1 1 2 1t3 0q4 1 5 1 6 1 11-1t12-3q11-2 28-2t28 6q6 2 12 4t11 7q13 9 23 21 9 11 14 27t9 28q2 6 3 16t1 24 1 23 1 16m-13 14q1-4 0-17t-4-28-6-31-8-28-8-17q-10-11-24-20-6-4-12-6t-12-4q-11-4-28-5t-29 4q-6 1-13 4t-12 2q-2 0-4 0t-3 0q-1-1-2-3t-2-2q-1-1-3-4-1-1-1-4 0-3-1-6t0-5q0-10 0-21t0-20q-1-5-1-10t-2-9q-5-10-18-14-5-2-11-2t-12 0q-11 0-23-1t-23 2q-6 0-13 3t-11 9q0 1-1 2t-1 3q-2 5-2 10t-1 11v228q0 11-1 25t1 25q0 5 1 10t3 11q0 1 1 2t1 3q1 1 2 1t2 2q8 7 18 8 9 0 17 0t16 1 16-1 15-2q6-2 11-4t11-4q1 0 3 0t2-1q6 0 11 2t11 5q8 3 16 5t16 3q5 1 17 0t25-6 25-8 17-11q9-7 15-18t10-21q4-12 6-24t3-24m-121-25q0 9-1 18t-5 18q0 1-1 3t-2 3q-1 0-3 1t-2 2q-1 0-3 1t-2 1q-1 1-3 1t-2 0q-2 0-3 0t-3 0q-5-1-10-5t-7-7q0-1-1-3t-1-4q-2-6-2-13t0-13q0-7 0-14t3-14q1-1 1-3t1-2l3-3q1-1 2-2t2-2q2-1 5-2t6-2l5 1q1 0 2 0t3 1 2 1 3 1 2 1 2 2q2 3 3 5 4 6 5 13t1 16m292-54v144q0 9 1 20t-2 20q-1 4-3 8t-5 8q-3 3-8 4t-8 3q-9 2-18 1t-18 0q-7 0-19 0t-25-1-19-6q-5-3-9-7t-6-9q-2-4-3-8t-2-7q-2-6-6-13t-5-13q-1-5-1-11t0-10q0-5 0-18t0-31 0-35 0-31 0-17v-44q0-7 0-14t0-13q1-3 2-6t1-4q1-3 3-5t3-4l3-6q1-1 1-2t1-2q0-2-1-6 0-4 0-5-1-6-4-11t-4-10q-2-6-3-13t0-14q0-5 0-9t1-9q0-4 1-8t2-7q0-1 0-2t1-1q1-1 2-2t2-2q1-1 2-2t3-2q1-1 2-1t3 0q7-2 13-3t14 0h25q11 0 24 2t23 9q4 3 8 7t6 9q5 7 10 14t7 15q2 6 2 13t1 14q0 6 0 13t-1 12q-1 7-4 13t-4 12q-1 1-2 3t0 3q-1 9 3 16t7 15q4 10 3 22t0 24m-55-187q-11 0-23-1t-21 1q-5 1-10 2t-9 3q-1 1-2 2t-2 2l-3 5q-1 1-1 3t-1 3q-2 6-2 13t0 14q0 3 0 6t1 7q1 4 2 8t3 8l4 3q1 1 2 2t3 2q4 3 10 3t11 1q11 1 25 1t24-2q4 0 7-1t7-3q1-1 2-2t3-2l3-3q2-4 3-9t1-9q0-3 0-6t0-6q0-7 0-14t-3-15q0-1-1-2t-1-3q0-1-2-2t-2-1q-1-3-4-4l-5-2q-4-1-9-2t-10 0m-18 115q-8 0-17-1t-17 2q-7 1-12 4-1 0-2 1t-2 1q-3 2-4 6t-3 8q-2 8-2 17t0 17v168q1 5 1 10t3 11q1 4 2 5l4 4q1 0 2 1t2 2q5 2 10 3t11 1q24 1 48 0 4-1 8-1t8-1q1-1 3-2t3-2q1-1 2-1t1-1q3-3 5-8t2-8q2-10 2-20t0-20v-133q0-9 0-19t-1-18q-1-4-2-9t-3-7q-4-5-9-7-2-1-4-1t-3-1q-8-2-17-2t-19 1m373 283h-44q-9 0-20-1t-19-3q-5-2-10-4t-10-5q-2-1-5-3t-5-3q-1 0-3 0t-4 0q-1 0-2-1t-2 1q-2 0-4 1t-2 2q-6 3-11 7t-11 5q-9 3-18 3t-19 1q-7 0-20 0t-24-1-20-4q-6-2-12-6t-11-8q-6-8-8-18t-2-20q0-7 0-19t0-24 0-19v-210q0-7 1-15t3-14q2-4 5-7t6-7q6-6 14-11t17-8q5-1 11-1t10-1h39q5 0 9 1t10 1l6 2q4 2 7 5t6 8q4 8 8 16t7 17q2 11 1 24t0 24q0 4 1 6t2 6q0 3 1 4 1 1 2 0t1 0q2 0 4 0t5-1q6-4 13-9t14-6q8-3 17-3t16 0q11 0 22 0t22 0q7 1 15 2t12 6q1 1 2 2t2 3q2 3 3 6t4 6q1 3 3 6t3 5q2 6 2 11 0 1-1 3t-1 3q-2 5-5 10t-7 10q-7 11-15 22t-14 21q-4 5-7 10t-4 11q-1 1-1 2t-1 3q0 3 1 6 1 8 5 16t9 15q7 7 14 20t14 26 13 20q3 5 5 9t3 9q2 4 3 7 0 1-1 3t0 2q0 2 0 3t-1 3q0 1-1 2t-2 2q-1 1-2 2t-2 2q-3 3-8 5t-10 2-11 1-13 1m-270-316v246q0 7 0 15t3 15q5 11 16 15 4 1 7 1t8 0q6 1 12 1t13 0h17q6-1 11-1t11-3q1-1 3-1t2-1q1-1 2-3t2-1q1-1 2-3t1-1q1-2 1-4t1-3q2-7 2-14t0-14q0-7 2-15 0 0 0-2t0-2 2 0 2 0q1-1 3-1t3 0q1 0 2 2 1 1 3 3t3 4q5 8 10 16t10 16q4 5 8 11t11 9q8 5 18 6t19 2q12 0 28 0t27-1q3 0 7-1t6-2q1 0 2-1t2-2q3-2 5-3 0-1 0-3 2-4 2-7 0-2 0-4t-1-3q-2-7-6-13t-7-11q-7-8-13-19t-13-22-13-18q-5-8-10-18t-3-19q1-7 5-14t9-13l32-46q3-5 5-10t4-9q0-1 1-3t0-2q0-2-1-3t-1-3-1-2 0-2q-1-1-3-2t-3-1q-5-3-11-3t-13 0h-49q-9 0-19 1t-17 7q-6 5-10 13-4 6-8 12t-7 12q-1 2-3 4t-2 4l-5 5q-1 2-2 2-1 0-1-1t-2-1q-3-1-5-3-1-1-1-4t0-4q-1-5-1-11t0-11 0-17 0-24 0-24 0-17q0-9-2-18t-10-15q-5-3-12-4t-12-1q-11 0-22-1t-23 1q-5 1-10 2t-10 4q-3 1-4 3-4 3-5 7t-3 9q-2 9-2 18t1 19m748-4l0 2q-7 21-13 47t-13 52-12 50-13 40-12 25l-9 31q-2 6-5 13t-6 13q-5 7-11 13t-12 13q-5 6-11 12t-13 11q-6 3-13 4t-13 1q-8 0-15 0t-15 0q-13 0-27 0t-26 0q-7-1-15-2t-13-7q-5-4-8-11t-5-12q-3-10-6-21t-6-20q-6-10-12-28t-12-42-12-46-11-44l-18-61q-3-10-6-20t-3-20q0-6 1-12t2-12q1-6 2-12t3-12q1-1 1-3t1-3q3-4 7-6t7-3q9-3 19-3t19 1q10 0 20-1t21 2q6 1 12 2t13 4q6 2 13 5t11 9q7 7 10 18t6 20q3 13 6 25t7 26q0 2 1 3t1 4q1 3 4 6 0 0 1 2t1 2q0 0 1-1 3-2 4-3 3-2 3-4t2-4q3-9 5-17 4-14 7-29t8-30q3-9 7-18t12-14q8-5 17-6t18-1q18 0 35 0t35 4q6 1 13 3t12 8q1 0 2 1t3 3q1 2 1 4 1 2 1 3t1 4q0 2-1 6 0 10-3 19t-6 17m-45-53h-1q-11 0-23-1t-23 1q-6 1-14 2t-12 7q-6 5-9 13t-5 15q-5 14-8 29t-8 30q-3 15-8 31t-8 32q0 3-1 6t-2 5q0 1-1 2t-2 2q-1 1-2 3t-1 2-2-1-2-2q-1-1-2-2t-3-1q-1-2-1-4t-1-4q-4-13-7-27t-7-25q-4-19-9-38t-10-37q-3-10-7-19t-15-15q-3-2-8-3t-8-1q-10-1-19-1t-19 1q-6 0-13 0t-13 0q-3 0-6 1t-5 1q0 1-2 1t-2 0q0 1-1 1t-2 2-2 3-3 2q0 1 0 2t-1 2q-1 4-1 7 0 2 0 3t1 4q1 6 2 12t4 11q2 8 5 16t4 16q7 24 14 53t14 57 15 50 14 32q3 9 5 19t6 19 8 18 14 13q8 4 17 4t17 1q16 0 33 0t33 0q10-1 20-3t17-9q5-6 8-14t5-15q4-14 8-27t8-27q6-10 11-28t12-41 12-47 12-43l14-48q1-5 3-11t2-10q0-1 1-3t0-4q0-2-1-4t-1-3q0-1 0-2t0-1q-2-2-5-4 0-1-2-2t-2-1q-1-1-3-1t-3-1q-6-1-12-1t-11 0m206 162v144q0 9 1 20t-2 20q-1 4-3 8t-5 8q-3 3-8 4t-8 3q-9 2-18 1t-18 0q-7 0-19 0t-25-1-19-6q-5-3-9-7t-6-9q-2-4-3-8t-2-7q-2-6-6-13t-5-13q-1-5-1-11t0-10q0-5 0-18t0-31 0-35 0-31 0-17v-44q0-7 0-14t0-13q1-3 2-6t1-4q1-3 3-5t3-4l3-6q1-1 1-2t1-2q0-2-1-6 0-4 0-5-1-6-4-11t-4-10q-2-6-3-13t0-14q0-5 0-9t1-9q0-4 1-8t2-7q0-1 0-2t1-1q1-1 2-2t2-2q1-1 2-2t3-2q1-1 2-1t3 0q7-2 13-3t14 0h25q11 0 24 2t23 9q4 3 8 7t6 9q5 7 10 14t7 15q2 6 2 13t1 14q0 6 0 13t-1 12q-1 7-4 13t-4 12q-1 1-2 3t0 3q-1 9 3 16t7 15q4 10 3 22t0 24m-55-187q-11 0-23-1t-21 1q-5 1-10 2t-9 3q-1 1-2 2t-2 2l-3 5q-1 1-1 3t-1 3q-2 6-2 13t0 14q0 3 0 6t1 7q1 4 2 8t3 8l4 3q1 1 2 2t3 2q4 3 10 3t11 1q11 1 25 1t24-2q4 0 7-1t7-3q1-1 2-2t3-2l3-3q2-4 3-9t1-9q0-3 0-6t0-6q0-7 0-14t-3-15q0-1-1-2t-1-3q0-1-2-2t-2-1q-1-3-4-4l-5-2q-4-1-9-2t-10 0m-18 115q-8 0-17-1t-17 2q-7 1-12 4-1 0-2 1t-2 1q-3 2-4 6t-3 8q-2 8-2 17t0 17v168q1 5 1 10t3 11q1 4 2 5l4 4q1 0 2 1t2 2q5 2 10 3t11 1q24 1 48 0 4-1 8-1t8-1q1-1 3-2t3-2q1-1 2-1t1-1q3-3 5-8t2-8q2-10 2-20t0-20v-133q0-9 0-19t-1-18q-1-4-2-9t-3-7q-4-5-9-7-2-1-4-1t-3-1q-8-2-17-2t-19 1m411 153v80q0 8 0 15t-5 15q0 1-1 2t-1 2q-1 1-2 1t-3 2l-4 3q-1 1-3 1t-2 0q-6 1-12 1t-12 1q-6 0-16 0t-23-1-22 0-16-2q-5-1-11-1t-10-1q-5-1-11-4t-8-8q-1-1-1-2t-1-2q-2-6-3-12t0-11v-51q0-7 0-15t-1-16q0-1 0-4t-2-4q-1-1-2-1 0 0 0 1 0 2 0 4t0 3v24q0 8 0 21t0 27-1 21q0 4-1 8t-1 8q-5 11-16 15-1 0-3 0t-4 1q-6 2-14 2t-14 0q-7 0-21-1t-27-1-21-1-15-2-14-4q-3-1-5-3-3-3-5-7t-3-8q-3-10-3-22t1-22v-124q0-8 0-17t0-17q0-6 1-13t4-12q6-11 16-15 4-2 9-2t10 0q6 1 11 2t12 2l35 7q5 0 10 1t10 2 9-1 10-2q2-1 5-2t4-3q5-2 9-4t10-3q2-1 4-1t5 0q1 0 2-1t2 0q1 0 1 2t0 1q0 1-2 2t-3 1l-12 8q-5 3-11 6t-11 4q-7 1-14 0t-14-1q-9-1-19-2t-18-2q-6-1-12-2t-12 1q-1 0-3 0t-3 1q-1 0-3 1t-2 2q-1 0-2 1t-2 2q-1 1-1 2t-1 2q-1 3-2 6t-1 7q0 9 0 18t0 19v133q0 8 0 15t4 15q0 1 1 2t1 3q1 1 2 2t3 2q1 1 2 2t2 1q2 1 5 2t5 1q4 0 8 0t8 1h28q5 0 11 0t12-1q2 0 3 0t4 0q12-3 18-12l2-5q2-6 2-11t1-10v-85q0-7 0-14t2-13q0-2 1-5t3-5q2-3 4-5 1-1 2-2t1-1q1-1 3-1t2 0 3-1 2-1q2 0 4 1 2 0 3 0t4 1q1 0 1 1t2 1q1 1 3 2t2 3q2 1 3 4t2 5q2 6 2 13t1 13v85q0 6 0 11t1 11q0 2 1 5 1 2 3 5t3 4l3 2q6 3 13 4 11 2 23 1t23 0q8 0 16 0t16-1q2-1 5-2t5-2q1-1 2-3t1-2q1-1 2-2t2-2q1-1 1-3t0-3q2-7 2-15t0-14v-79q0-8 0-22t-2-28-5-21q-6-18-18-32-2-3-4-6t-5-4l-5-4q0-1 1-2t2-1q1 0 1 1t1 1q2 1 4 2t4 3q8 7 14 14t11 17q5 5 8 19t5 32 2 31 0 21m325-105q-4 11-10 29t-12 29q-5 11-10 23t-11 24q-4 4-11 19t-14 35-14 40-14 36-11 19q-6 11-12 28t-12 28q-4 9-10 17t-16 12q-8 2-17 2t-18 0q-6 0-12 0t-12 0q-3 0-8-1t-8-1q-8-3-13-8t-11-10q-2-3-5-5t-4-6q-6-10-4-22t7-23q3-8 6-16t7-16q3-7 5-14t3-15q1-5 0-11t-3-10q-4-11-10-26t-11-26q-5-6-10-19t-10-28-10-29-10-18q-4-9-8-18t-7-17q-2-7-4-14t-2-13q1-6 2-11t3-10 5-11 6-8q1-1 2-2t3-1q8-4 17-5t19 0q10 0 21 0t22 2q4 1 8 3t9 5q7 3 14 8t13 12q6 8 9 18t8 20q2 5 6 9 0 0 1 1t1 2q1 0 3-2t2-1q1-1 2-1t1-1q1-1 2-3t1-2q2-3 3-6t2-6q4-7 10-19t13-23 14-14q7-2 15-2t16 0q10 0 22 0t21 2q5 1 9 3t9 5q4 2 8 4t8 6q1 0 2 1t2 2l1 4q1 2 1 3t1 3q0 2 0 4t-1 3q-1 8-4 16t-6 17m-60-48q-9 0-21 0t-20 4q-7 4-13 13t-10 19-7 17q-4 11-8 21t-9 21q0 1-1 3t-2 3q0 1-2 1t-3 2q-2 2-4 2-1-1-2-2t-2-2q-4-3-6-8t-3-8q-3-10-7-20t-7-19q-2-6-4-12t-4-11q-2-4-6-9t-7-8q-3-3-8-4t-8-2q-9-2-19-2t-20 1q-5 0-11 0t-11 1q-2 0-4 0t-3 1q-1 0-2 1t-2 2q-1 0-3 1t-2 1l-2 4q0 1-1 3t-2 3 0 3 1 4q0 5 1 9t4 9q2 6 4 11t5 11q5 6 10 19t11 31 10 30 11 19q6 11 12 28t11 28q3 8 4 16t1 16q-1 7-3 13t-5 13q-4 8-7 15t-6 17q-2 4-4 8t-3 9q0 2-1 5t0 6q1 3 3 5 0 1 0 2t1 3q1 0 3 1t2 1q7 5 15 5 6 1 12 1t13 0q12 0 25-1t24-8q7-5 11-14t7-16q6-11 11-25t10-24q4-4 10-17t13-31 15-39 14-38 14-32 9-16q5-12 11-25t10-24q2-5 4-10t3-10q0-1 1-3t0-2q0-2-1-4t-1-4q0-2 0-2-1-1-3-2-1-1-2-3t-3-2q-7-3-14-3-7 0-13 0t-14 0m178 275q-11 0-27 0t-27-1q-9-1-17-3t-16-5q-10-2-21-4t-17-11q-3-4-4-9t-2-11q0-7 0-15t0-15v-211q0-8-1-22t1-29 3-22q2-6 4-13t6-12q6-8 16-10t19-2h22q12 0 23 0t22 5q10 3 18 10t16 12q8 5 16 10t13 12q4 6 5 12t1 14v278q0 6 0 12t-2 11l-2 5q0 0-1 1t-2 2-2 3-3 3q-1 0-3 1t-3 1q-8 3-17 3t-18 0m-96-318v257q0 6 0 12t2 13q0 2 1 5l3 5q1 0 2 1t1 3q3 2 6 2 5 3 11 3t12 2q10 0 21 0t20 0q6-1 10-1t10-3q1-1 3-1t3-1q4-3 6-9t4-10q2-7 1-14t0-15v-206q0-12 0-29t0-27q0-6-1-12t-3-10q0-1-1-3t-1-2q-1-1-2-2t-1-1q-2-1-3-3t-3-2q-3-2-8-3t-8-1q-11-1-27-1t-28 1q-3 1-7 1t-7 2q-2 1-3 1t-2 2q-1 1-2 2t-2 2q-1 0-2 2t-1 2q-4 8-4 18t0 20" />
</svg>