<svg id="fnt-Russo One" viewBox="0 0 2686 1000" xmlns="http://www.w3.org/2000/svg"><path id="russo-one" class="f" d="M30 667v-350h210q53 0 76 23t24 77v45q0 41-14 64t-43 31l62 110h-97l-58-105h-70v105h-90m220-205v-45q0-30-30-30h-100v105h100q30 0 30-30m240 137h18q26 0 60-10v-187h87v265h-77l-5-25q-24 15-49 22t-41 8h-23q-34 0-54-21t-21-54v-195h88v180q0 7 5 12t12 5m205 63v-65q102 7 160 7 8 0 13-5t5-12v-18h-108q-34 0-54-20t-21-55v-17q0-34 21-55t54-20h170v65h-140q-7 0-12 5t-5 12 5 13 12 5h90q34 0 55 20t20 55v20q0 34-20 54t-55 21q-88 0-190-10m290 0v-65q102 7 160 7 8 0 13-5t5-12v-18h-108q-34 0-54-20t-21-55v-17q0-34 21-55t54-20h170v65h-140q-7 0-12 5t-5 12 5 13 12 5h90q34 0 55 20t20 55v20q0 34-20 54t-55 21q-88 0-190-10m570-185v115q0 37-21 58t-59 22h-115q-37 0-59-22t-21-58v-115q0-38 21-59t59-21h115q38 0 59 21t21 59m-87 107v-100q0-20-20-20h-60q-20 0-20 20v100q0 20 20 20h60q20 0 20-20m512-12v-160q0-30-30-30h-85q-30 0-30 30v160q0 30 30 30h85q30 0 30-30m90-160v160q0 52-24 76t-76 24h-125q-52 0-76-24t-24-76v-160q0-53 24-77t76-23h125q53 0 76 23t24 77m210 57h-17q-27 0-60 10v188h-88v-265h78l5 25q23-16 48-23t42-7h22q34 0 55 20t20 55v195h-87v-180q0-8-5-13t-13-5m298-10h-45q-20 0-20 20v28h85v-28q0-20-20-20m97 140v63q-96 10-175 10-34 0-54-21t-21-54v-120q0-38 21-59t59-21h100q38 0 59 21t21 59v92h-172v20q0 8 5 13t12 5q50 0 145-8" />
</svg>