<svg id="fnt-Ruthie" viewBox="0 0 1164 1000" xmlns="http://www.w3.org/2000/svg"><path id="ruthie" class="f" d="M453 766q-33 0-69-32-43-37-78-112-5-9-11-23t-15-30h-9q-82 169-189 169-37 0-59-24-22-23-22-62 0-41 23-72 27-33 66-33 11 0 21 7 10 5 10 17 0 2-1 3-2-6-5-9-5-9-20-9-35 0-57 36-20 30-20 67 0 32 15 51 16 23 47 23 59 0 115-80 15-22 28-43t23-43q-7-1-14-4t-13-4q-13 27-28 50t-31 46q-47 63-85 63-4 0-4-4 0-3 4-3 3-1 7-2t10-2q17-7 35-23t37-42q14-19 26-40t24-45q-34-16-34-35 0-9 10-17 10-7 19-7 13 0 26 10 30-79 36-148-45 2-88 16-50 16-78 45-19 19-19 43 0 39 42 56 6 3 20 6 3 0 3 2 0 2-3 2h-1q-15 0-29-7t-27-17q-28-23-28-53 0-21 18-38 14-15 36-27t53-20q47-13 102-16v-32q0-4 3-4 1 0 1 3 2 14 2 33h22q21 0 39 2t36 5q44 10 73 30 38 26 38 64 0 37-37 67-28 23-71 36-19 6-41 9t-46 4q16 22 32 43t33 44q22 30 40 49t30 28q25 17 43 17 27 0 27-36 0-33-21-61-1-1-1-2 0-2 1-2 3 0 5 3 24 28 24 60 0 24-14 38-14 16-37 16m-174-213l4 5q26 0 49-3t44-8q34-10 57-28 28-23 28-54 0-36-33-63-14-11-30-19t-36-14q-36-9-75-9h-10q-4 67-37 151 5 4 11 9t11 12q19-46 32-104 0-3 1-7t2-8q4-15 19-15 9 0 9 7 0 3-1 8t-3 14q-13 62-42 126m-60-6q4-8 7-17t7-17q-7-4-13-7t-11-2q-14 0-14 14 0 16 24 29m32 10q2-5 4-9t4-9q-5-7-11-12t-11-10q-3 8-6 16t-7 16q12 6 27 8m224 112q-5 0-5-3 0-18 14-46 18-35 21-46 5-18 5-42-1 5-6 14t-14 25q-8 14-14 23t-10 15q0 0-1 0-3 0-3-2 0 0 4-6t11-19q24-42 31-71 3-13 12-13t9 21q0 11-3 28t-10 38q-5 16-10 33t-11 32q19-14 36-32t31-41l3-5q3-18 6-30t8-16q3-4 9-4 10 0 10 6 0 15-9 27-11 38-11 73 0 24 15 24 7 0 17-8t10-9q1 0 1 3v1q-17 24-38 24-21 0-21-37 0-9 0-19t2-23q-19 36-62 70-3 2-7 5t-10 8q-3 2-10 2m202 10q-25 0-25-31 0-22 11-54-2-7-7-12t-13-9q-6-3-13-5t-14-6q-6-3-6-10 0-8 7-10h13q27 0 56-6l0-1 33-73q3-5 6-14t9-19q4-9 19-9 11 0 11 5 0 1-19 42-19 42-21 44-1 1-3 3t-5 5q-2 3-6 12 7-3 25-9t48-16q2-1 3-1t2 0q2 0 2 1 0 8-84 32-10 20-17 33t-11 23q-6 16-10 30t-3 29q0 17 11 17 14 0 36-19 11-10 17-15t5-5q2 0 2 2t-2 4q-8 12-25 26-21 16-32 16m-12-92q4-10 8-21t9-21q-12 3-25 5t-25 5q26 13 33 32m82 100q-6 0-5-4-1-4-7-12-6-9-6-11 0-4 4-5 5-3 10-7t12-10q16-46 42-110t63-143q2-5 5-12t8-16q6-12 26-12 8 0 8 4 0 1-1 2-5 9-12 22t-17 32q-34 65-59 117t-38 92q28-28 46-51t28-39q1-1 2-3t2-4q3-5 10-5 6 0 6 4 0 3-1 7t-1 11-2 12-1 8q0 31 9 62 13 43 36 43 4 0 10-3t7-2q4 0 4 4 0 5-10 9-11 4-16 4-25 0-46-41-17-36-17-68 0-2 0-4t0-4q-9 13-27 32t-44 44q-3 8-5 16t-4 15q0 2-1 5t-1 8q-4 13-17 13m-2-15q1-4 2-9t3-10q-3 2-5 4t-5 4q2 4 5 11m241-174q-10 0-10-10 0-6 6-12 4-4 6-7t6-3q18-9 21-9 2 0 2 1 0 2-12 15 0 0-2 4t-5 11q-5 10-12 10m-30 161q-25 0-25-26 0-19 10-48-2 4-5 7t-4 7q-7 11-9 11-1 0-1-1 0-4 3-8 12-16 26-47 2-4 4-10t7-14q3-4 13-4 8 0 8 5t-4 15q-6 10-9 11-26 52-26 77 0 16 11 16 18 0 39-26 23-26 22-26 1 0 1 2 0 0-1 3-4 8-11 16t-15 18q-22 22-34 22m103 17q-36 0-36-46 0-7 1-15t3-18q-2-1-4-4t-4-7q2 1 4 2t6 2q5-25 30-49 26-27 50-27 5 0 5 1 0 1-7 5-18 10-34 31-17 21-25 42 1 1 1 1t0 0q24 0 50-23t26-47q0-7-4-13-3-6-11-6-9 0-22 7-13 8-14 8-1 0-1 0 0-6 17-13 15-6 24-6 12 0 19 6 8 7 8 18 0 27-35 52-31 22-60 24-4 12-4 23 0 42 30 42 23 0 48-20 21-17 35-40 5-7 8-7 0 0 0 1 0 2-4 9-15 24-43 45-31 22-57 22" />
</svg>