<svg id="fnt-IBM Plex Sans Devanagari" viewBox="0 0 5799 1000" xmlns="http://www.w3.org/2000/svg"><path id="ibm-plex-sans-devanagari" class="f" d="M170 667h-140v-35h49v-279h-49v-35h140v35h-49v279h49v35m77 0v-349h143q44 0 68 24t25 66q0 19-5 33t-14 22-19 13-18 6v3q9 0 21 5t22 14 18 25 7 37-7 40-18 32-29 21-36 8h-158m42-162v125h103q27 0 43-14t15-40v-17q0-27-15-41t-43-13h-103m0-150v114h96q25 0 39-13t14-36v-17q0-23-14-36t-39-12h-96m556 312v-294h-2l-30 58-83 152-84-152-29-58h-3v294h-41v-349h56l100 188h3l100-188h54v349h-41m294 0h-42v-349h139q47 0 72 26t26 74-26 73-72 27h-97v149m0-312v126h97q25 0 39-13t14-37v-26q0-24-14-37t-39-13h-97m335 312h-35q-21 0-32-12t-11-30v-328h40v335h38v35m155 6q-26 0-48-10t-36-27-24-43-8-55q0-31 8-56t24-43 36-27 48-9q26 0 47 9t35 26 22 40 8 51v19h-186v12q0 16 5 30t15 25 24 17 33 6q24 0 42-12t29-33l28 21q-12 26-39 42t-63 17m0-237q-16 0-30 6t-23 16-15 25-6 31v4h143v-6q0-34-19-55t-50-21m184 231h-44l95-130-91-128h47l65 96h2l68-96h44l-91 125 93 133h-47l-67-101h-1l-73 101m461 6q-42 0-72-17t-51-44l31-26q18 24 41 37t53 13q37 0 57-18t20-48q0-25-15-39t-50-21l-28-7q-48-11-74-33t-25-63q0-23 9-41t23-30 37-18 47-6q39 0 67 14t48 43l-31 23q-15-20-35-32t-51-11q-34 0-53 14t-19 43q0 25 16 37t49 21l29 6q51 12 74 35t23 63q0 24-8 43t-24 33-38 21-50 8m399-6h-23q-22 0-32-12t-12-30h-3q-8 24-28 36t-46 12q-41 0-64-21t-23-57q0-37 27-56t83-20h51v-25q0-28-15-42t-46-15q-23 0-39 11t-26 28l-24-23q10-21 33-36t58-14q47 0 73 23t26 64v142h30v35m-138-28q15 0 28-4t21-10 14-15 5-18v-43h-53q-34 0-50 10t-16 29v11q0 19 14 29t37 11m235 28h-40v-258h40v42h2q9-22 26-35t47-13q40 0 63 25t23 73v166h-40v-159q0-69-58-69-12 0-24 3t-20 9-14 15-5 22v179m321 6q-36 0-60-14t-42-37l29-23q15 19 33 29t43 11q26 0 40-11t14-31q0-15-10-26t-35-15l-20-3q-18-2-33-8t-27-14-17-21-6-31q0-19 7-34t19-23 29-15 37-4q31 0 52 11t38 30l-27 24q-8-12-25-22t-41-9-38 10-13 30q0 19 13 27t37 13l20 3q43 6 61 24t18 48q0 38-26 59t-70 22m288-6v-349h117q33 0 59 11t45 32 29 55 10 76-10 76-29 55-45 33-59 11h-117m42-37h75q22 0 40-8t31-21 20-34 7-46v-57q0-26-7-47t-20-34-31-21-40-7h-75v275m387 43q-27 0-48-10t-37-27-23-43-8-55q0-31 8-56t23-43 37-27 48-9q26 0 46 9t35 26 22 40 8 51v19h-185v12q0 16 5 30t15 25 24 17 32 6q25 0 43-12t28-33l29 21q-13 26-39 42t-63 17m0-237q-17 0-30 6t-24 16-15 25-5 31v4h142v-6q0-34-19-55t-49-21m277 231h-47l-90-258h40l45 128 28 88h2l28-88 46-128h39l-91 258m348 0h-23q-22 0-32-12t-12-30h-3q-8 24-28 36t-46 12q-41 0-64-21t-23-57q0-37 27-56t83-20h51v-25q0-28-15-42t-46-15q-23 0-39 11t-26 28l-24-23q10-21 33-36t58-14q47 0 73 23t26 64v142h30v35m-138-28q15 0 28-4t21-10 14-15 5-18v-43h-53q-34 0-50 10t-16 29v11q0 19 14 29t37 11m235 28h-40v-258h40v42h2q9-22 26-35t47-13q40 0 63 25t23 73v166h-40v-159q0-69-58-69-12 0-24 3t-20 9-14 15-5 22v179m454 0h-23q-22 0-32-12t-12-30h-3q-8 24-28 36t-46 12q-41 0-64-21t-23-57q0-37 27-56t83-20h51v-25q0-28-15-42t-46-15q-23 0-39 11t-26 28l-24-23q10-21 33-36t58-14q47 0 73 23t26 64v142h30v35m-138-28q15 0 28-4t21-10 14-15 5-18v-43h-53q-34 0-50 10t-16 29v11q0 19 14 29t37 11m412 56q0 40-31 59t-94 19q-60 0-87-17t-26-47q0-21 11-33t30-17v-5q-23-11-23-36 0-20 12-30t32-15v-2q-23-11-36-32t-12-47q0-20 7-36t19-29 31-18 40-6q27 0 49 10v-5q0-15 7-25t23-9h38v35h-49v16q14 12 22 29t8 38q0 19-7 36t-20 28-31 18-40 7q-12 0-25-3-13 4-23 10t-11 19q0 12 11 16t29 4h55q48 0 69 18t22 50m-37 3q0-15-12-25t-42-9h-86q-24 11-24 35 0 17 13 29t43 12h37q34 0 52-10t19-32m-90-149q26 0 41-13t15-37v-14q0-26-15-38t-41-12-40 12-15 38v14q0 25 15 37t40 13m382 118h-22q-23 0-33-12t-12-30h-2q-9 24-28 36t-47 12q-41 0-64-21t-22-57q0-37 26-56t84-20h51v-25q0-28-15-42t-46-15q-24 0-40 11t-26 28l-24-23q11-21 34-36t58-14q47 0 73 23t26 64v142h29v35m-137-28q15 0 27-4t22-10 14-15 5-18v-43h-53q-35 0-51 10t-15 29v11q0 19 13 29t38 11m234 28h-40v-258h40v47h3q7-18 25-33t49-14h16v40h-24q-32 0-51 12t-18 31v175m164-319q-13 0-19-6t-6-16v-7q0-10 6-16t19-6 18 6 6 16v7q0 10-6 16t-18 6m-20 319v-258h40v258h-40" />
</svg>