<svg id="fnt-IBM Plex Sans JP" viewBox="0 0 4057 1000" xmlns="http://www.w3.org/2000/svg"><path id="ibm-plex-sans-jp" class="f" d="M178 632v35h-146v-35h52v-297h-52v-35h146v35h-52v297h52m246 35h-165v-367h149q45 0 71 26t26 68q0 37-18 56t-41 22v4q16 1 32 10t28 28 12 47q0 30-13 54t-33 38-48 14m-123-207h102q27 0 42-14t15-39v-17q0-25-15-39t-42-14h-102v123m0 170h110q29 0 45-16t17-42v-19q0-27-17-42t-45-15h-110v134m341-274v311h-41v-367h56l107 199h2l107-199h55v367h-41v-311h-3l-29 58-91 163-90-163-30-58h-2m551 154v157h-42v-367h146q48 0 75 28t26 77q0 49-26 77t-75 28h-104m104-173h-104v136h104q27 0 41-15t15-40v-26q0-26-15-41t-41-14m248 330h-37q-20 0-32-12t-11-30v-347h40v354h40v35m163 6q-36 0-63-17t-43-50-15-75q0-42 15-74t42-50 64-17q35 0 61 17t41 47 14 68v19h-195v13q0 37 22 61t59 23q26 0 46-12t30-36l29 21q-13 28-41 45t-66 17m-79-165v3h152v-5q0-37-21-60t-52-22q-35 0-57 23t-22 61m348 52l-77 107h-45l101-137-97-134h47l70 102h2l72-102h45l-96 132 98 139h-47l-72-107h-1m406 113q-81 0-129-64l32-25q19 26 43 39t56 13q40 0 61-19t21-52q0-26-16-41t-53-23l-30-7q-51-11-77-36t-26-64q0-48 33-74t88-26q79 0 120 59l-31 23q-33-45-91-45-37 0-57 15t-20 46q0 27 16 41t54 22l30 7q53 12 77 36t25 65q0 51-34 80t-92 30m267 0q-42 0-66-22t-24-60q0-38 29-59t86-20h54v-27q0-30-16-45t-49-16q-45 0-70 41l-24-22q12-24 37-39t59-14q49 0 76 24t27 67v151h31v35h-21q-42 0-47-44h-3q-8 24-29 37t-50 13m7-34q31 0 52-15t20-36v-46h-56q-36 0-53 11t-18 31v11q0 21 15 33t40 11m245 28h-40v-271h40v44h2q22-50 77-50 42 0 66 27t25 76v174h-40v-166q0-37-16-56t-46-19q-28 0-48 14t-20 39v188m338 6q-35 0-61-14t-45-39l29-23q16 21 35 31t45 11q28 0 43-12t16-33q0-18-12-30t-38-14l-21-3q-87-12-87-78 0-39 27-59t69-20q32 0 54 11t40 32l-26 24q-11-14-29-24t-41-9q-27 0-41 11t-14 32q0 19 13 29t40 14l21 3q43 6 63 25t20 51q0 39-27 62t-73 22m369 0q-41 0-67-22t-34-60l38-9q6 25 21 39t43 15q30 0 45-18t16-54v-227h-126v-37h168v272q0 30-13 53t-37 36-54 12m242-163v157h-42v-367h146q48 0 75 28t26 77q0 49-26 77t-75 28h-104m104-173h-104v136h104q27 0 41-15t15-40v-26q0-26-15-41t-41-14" />
</svg>