<svg id="fnt-IBM Plex Sans Condensed" viewBox="0 0 5255 1000" xmlns="http://www.w3.org/2000/svg"><path id="ibm-plex-sans-condensed" class="f" d="M155 667h-128v-33h44v-283h-44v-33h128v33h-44v283h44v33m68 0v-349h132q39 0 60 22t22 68q0 21-5 34t-13 22-17 13-19 4v5q9 0 20 4t21 13 17 24 7 39q0 48-22 74t-58 27h-145m40-163v128h93q24 0 36-13t13-40v-23q0-27-13-40t-36-12h-93m0-151v116h87q21 0 33-12t11-35v-23q0-24-11-35t-33-11h-87m498 314v-240l3-60h-5l-26 60-75 154-75-154-26-59h-5l4 59v240h-39v-349h53l63 135 23 65h4l24-65 63-135h53v349h-39m267 0h-40v-349h129q86 0 86 99t-86 100h-89v150m0-314v129h88q44 0 44-48v-33q0-48-44-48h-88m301 314h-31q-21 0-30-10t-9-29v-331h38v336h32v34m141 6q-22 0-42-8t-33-24-22-42-8-61 8-62 22-42 33-24 42-7 41 7 32 24 20 42 8 62v9h-166v17q0 38 17 56t48 19q26 0 43-11t26-34l26 19q-12 27-36 43t-59 17m0-238q-31 0-48 19t-17 58v6h125v-6q0-77-60-77m168 232h-42l85-132-81-126h43l57 94h5l59-94h41l-81 125 84 133h-43l-60-101h-5l-62 101m415 6q-38 0-66-16t-46-44l29-24q16 24 36 36t47 13q71 0 71-66 0-27-13-41t-45-22l-26-7q-46-11-68-34t-22-62q0-47 29-71t77-23q37 0 61 13t44 43l-30 21q-13-21-31-32t-45-11q-32 0-49 14t-17 46q0 25 14 38t44 21l26 6q25 6 42 14t27 21 16 28 5 38q0 49-30 75t-80 26m360-6h-27q-37 0-37-37v-5h-5q-7 23-24 35t-41 13q-38 0-56-19t-19-56q0-36 24-57t74-21h47v-29q0-28-13-42t-40-13q-23 0-37 9t-23 29l-23-21q10-21 32-36t52-14q44 0 67 21t23 63v146h26v34m-125-27q13 0 24-5t20-12 12-16 5-19v-39h-48q-30 0-44 10t-13 29v14q0 19 12 28t32 10m214 27h-38v-258h38v42h5q8-24 23-36t43-12q35 0 54 23t20 73v168h-38v-166q0-31-13-47t-39-17q-23 0-39 14t-16 40v176m290 6q-32 0-55-13t-38-36l26-22q14 19 29 29t38 10q23 0 36-12t13-32q0-17-8-27t-32-15l-19-3q-38-7-56-24t-18-50q0-19 6-34t17-23 26-14 33-4q29 0 49 10t34 30l-24 23q-9-12-23-22t-36-9q-45 0-45 42 0 19 9 27t32 13l20 4q39 7 56 24t16 48q0 37-22 58t-64 22m369 0q-30 0-53-11t-40-33-25-56-9-81 9-81 25-56 40-33 53-10q43 0 69 18t41 56l-32 19q-10-28-28-43t-50-15q-40 0-62 29t-22 77v78q0 49 22 77t62 29q34 0 52-16t28-45l32 20q-15 37-42 57t-70 20m254 0q-23 0-42-8t-34-24-22-42-8-61 8-62 22-42 34-24 42-7 42 7 33 24 22 42 8 62-8 61-22 42-33 24-42 8m0-34q31 0 47-19t17-56v-52q0-38-17-57t-47-18-48 18-17 57v52q0 38 17 56t48 19m202 28h-38v-258h38v42h5q7-24 23-36t43-12q34 0 54 23t20 73v168h-38v-166q0-31-13-47t-39-17q-23 0-39 14t-16 40v176m366 0v-42h-5q-7 25-24 36t-41 12q-23 0-40-10t-30-27-18-42-6-56 6-56 18-43 30-27 40-9q24 0 41 11t24 37h5v-154h38v370h-38m-58-28q12 0 22-4t19-10 12-15 5-20v-104q0-11-5-20t-12-16-19-10-22-3q-32 0-48 19t-17 56v52q0 35 17 55t48 20m260 34q-22 0-42-8t-33-24-22-42-8-61 8-62 22-42 33-24 42-7 41 7 32 24 20 42 8 62v9h-166v17q0 38 17 56t48 19q26 0 43-11t26-34l26 19q-12 27-36 43t-59 17m0-238q-31 0-48 19t-17 58v6h125v-6q0-77-60-77m198 232h-38v-258h38v42h5q7-24 23-36t43-12q34 0 54 23t20 73v168h-38v-166q0-31-13-47t-39-17q-23 0-39 14t-16 40v176m290 6q-32 0-55-13t-39-36l27-22q13 19 29 29t38 10q22 0 35-12t14-32q0-17-9-27t-31-15l-20-3q-37-7-56-24t-18-50q0-19 6-34t17-23 26-14 34-4q29 0 48 10t35 30l-25 23q-8-12-22-22t-36-9q-46 0-46 42 0 19 10 27t32 13l19 4q40 7 56 24t17 48q0 37-22 58t-64 22m236 0q-23 0-42-8t-34-24-22-42-8-61 8-62 22-42 34-24 42-7 41 7 32 24 20 42 7 62v9h-165v17q0 38 17 56t48 19q26 0 42-11t26-34l26 19q-12 27-35 43t-59 17m0-238q-31 0-48 19t-17 58v6h125v-6q0-77-60-77m307 232v-42h-5q-7 25-24 36t-41 12q-23 0-40-10t-30-27-18-42-6-56 6-56 18-43 30-27 40-9q24 0 41 11t24 37h5v-154h38v370h-38m-58-28q12 0 22-4t19-10 12-15 5-20v-104q0-11-5-20t-12-16-19-10-22-3q-32 0-48 19t-17 56v52q0 35 17 55t48 20" />
</svg>