<svg id="fnt-Inclusive Sans" viewBox="0 0 3420 1000" xmlns="http://www.w3.org/2000/svg"><path id="inclusive-sans" class="f" d="M201 667h-163v-37h59v-275h-59v-38h163v38h-60v274h60v38m125 0h-42v-250h42v47q3-9 12-22t26-22 46-9q36 0 60 23t24 69v164h-42v-158q0-33-16-47t-40-13q-35 0-52 23t-18 60v135m357 6q-32 0-59-16t-44-45-16-69q0-41 16-71t44-45 59-16q33 0 59 17t40 48l-38 15q-8-19-24-31t-38-11q-26 0-43 12t-25 33-8 47 8 47 25 34 43 13q22 0 38-12t24-30l38 15q-13 31-40 48t-59 17m209-6h-42v-356h42v356m169 6q-37 0-61-24t-23-68v-164h42v158q0 32 15 46t41 14q34 0 52-24t17-59v-135h42v250h-42v-47q-2 8-11 21t-27 22-45 10m294 0q-25 0-47-11t-37-30-14-43h45q0 15 9 25t22 16 26 5q25 0 40-9t15-28q0-16-11-25t-28-12-37-8-36-10-28-20-11-37q0-19 10-36t30-28 51-11q36 0 57 11t31 29 9 32h-43q0-12-14-23t-41-11q-24 0-36 9t-12 26q0 14 11 22t28 11 36 9 37 12 28 22 11 38q0 20-11 37t-33 27-57 11m194-304q-12 0-21-9t-8-20q0-12 8-21t21-8q12 0 20 8t9 21q0 12-9 20t-20 9m21 298h-42v-250h42v250m195 0h-52l-91-250h42l76 208 75-208h40l-90 250m244 6q-31 0-58-16t-44-45-16-69q0-41 16-71t44-45 58-16q32 0 58 13t41 41 15 71v16h-191q2 36 21 59t55 24q23 0 41-10t29-30l37 15q-31 63-106 63m-1-224q-30 0-49 18t-24 48h146q0-14-8-30t-24-26-41-10m432 224q-43 0-72-17t-43-42-18-54h49q5 32 27 52t57 21q22 0 40-8t30-20 10-31q0-21-11-32t-29-18-39-12-43-10-39-17-29-29-11-47q0-26 13-48t39-37 68-13q28 0 50 9t38 23 24 33 10 34h-47q-2-15-11-28t-26-23-42-8q-18 0-35 6t-27 19-10 30q0 20 11 32t29 18 39 11 43 11 39 17 29 28 11 46q0 34-16 57t-44 35-64 12m290 0q-32 0-57-16t-39-45-14-70q0-43 14-72t40-44 59-15q22 0 38 8t26 20 16 27v-49h40v250h-41v-48q-5 17-18 29t-30 18-34 7m6-38q24 0 41-13t25-34 9-46q0-42-20-68t-56-26q-25 0-41 12t-24 34-8 47 8 47 24 34 42 13m248 32h-42v-250h42v47q3-9 12-22t26-22 46-9q36 0 60 23t24 69v164h-42v-158q0-33-16-47t-40-13q-35 0-52 23t-18 60v135m334 6q-25 0-48-11t-36-30-14-43h45q0 15 9 25t22 16 25 5q25 0 40-9t15-28q0-16-11-25t-28-12-36-8-37-10-28-20-11-37q0-19 10-36t30-28 51-11q37 0 58 11t30 29 10 32h-43q0-12-14-23t-41-11q-25 0-37 9t-12 26q0 14 11 22t28 11 37 9 36 12 29 22 11 38q0 20-11 37t-33 27-57 11" />
</svg>