<svg id="fnt-Inconsolata" viewBox="0 0 2724 1000" xmlns="http://www.w3.org/2000/svg"><path id="inconsolata" class="f" d="M202 667h-161v-30h61v-252h-58v-30h155v30h-62v253h65v29m119 0h-35v-229h35v41q9-14 21-25t27-16 30-5q19 0 34 9t24 31 9 55v139h-35v-138q0-24-6-38t-15-21-21-6q-12 0-24 5t-21 14-17 23-6 29v132m322 5q-25 0-46-9t-37-25-23-38-9-47q0-26 9-48t23-37 37-25 45-9q28 0 50 11t37 31l-23 22-3 4-3-3q0-4-2-7t-7-10q-11-10-24-14t-29-4q-14 0-27 6t-24 17-16 28-6 35 6 36 17 28 25 19 32 7q11 0 22-4t20-9 17-15l21 24q-17 18-38 27t-44 9m232-1q-31 0-55-16t-37-42-13-61q0-35 13-62t37-42 55-15 55 15 37 42 14 62q0 35-14 61t-37 42-55 16m0-30q20 0 35-12t24-31 9-46-9-46-24-32-35-11q-19 0-35 11t-24 32-8 46 8 46 24 31 35 12m196 26h-35v-229h35v41q9-14 21-25t27-16 30-5q19 0 34 9t24 31 9 55v139h-35v-138q0-24-6-38t-15-21-21-6q-12 0-24 5t-21 14-17 23-6 29v132m305 5q-19 0-37-4t-32-12-28-20l20-34 3-5 3 2q1 4 2 8t7 11q10 10 25 17t38 7q18 0 31-5t20-13 7-19q0-7-3-13t-10-11-18-10-27-10q-26-7-45-17t-30-24-11-30q0-17 10-30t28-20 46-7q16 0 29 2t24 7 20 11 18 16l-20 25-4 4-2-3q-1-4-3-8t-7-9q-11-9-26-14t-28-4q-20 0-34 7t-15 21q0 8 5 15t20 14 40 15q28 9 45 18t25 22 8 28q0 19-10 36t-31 26-53 10m249-1q-31 0-55-16t-37-42-13-61q0-35 13-62t37-42 55-15 55 15 37 42 14 62q0 35-14 61t-37 42-55 16m0-30q20 0 35-12t24-31 9-46-9-46-24-32-35-11q-19 0-35 11t-24 32-8 46 8 46 24 31 35 12m336 26h-171v-29h67v-275h-64v-29h101v304h67v29m145 5q-39 0-60-18t-21-45q0-18 9-33t24-25 37-16 45-5q8 0 17 0t18 1 21 2l1 28q-9-2-19-3t-18-1-17 0q-18 0-33 3t-26 9-17 15-6 23q0 11 3 18t11 11 15 7 19 2q20 0 35-7t26-18 16-29 6-40q0-34-8-53t-24-27-40-8q-17 0-33 6t-29 19l-17-23q16-16 37-24t44-8q23 0 41 6t32 18 20 34 8 54v122h-39v-35q-7 12-16 20t-20 12-21 6-21 2m294-2q-22 0-36-7t-22-24-10-39-1-57l6-163 38-5 5 0 0 3q-2 4-4 7t-3 12l-4 57 1 9-3 82q-2 38 2 59t12 28 24 8q17 0 29-6t27-17l11 29q-17 12-35 18t-37 6m-115-202v-30h165v30h-165m321 204q-39 0-60-18t-21-45q0-18 9-33t24-25 37-16 45-5q8 0 17 0t18 1 21 2l1 28q-9-2-19-3t-18-1-17 0q-18 0-33 3t-26 9-17 15-6 23q0 11 3 18t11 11 15 7 19 2q20 0 35-7t26-18 16-29 6-40q0-34-8-53t-24-27-40-8q-17 0-33 6t-29 19l-17-23q16-16 37-24t44-8q23 0 41 6t32 18 20 34 8 54v122h-39v-35q-7 12-16 20t-20 12-21 6-21 2" />
</svg>