<svg id="fnt-Ingrid Darling" viewBox="0 0 2189 1000" xmlns="http://www.w3.org/2000/svg"><path id="ingrid-darling" class="f" d="M288 379q4 13 6 25t2 25q0 18-3 34t-7 30q-6 23-15 46t-18 41-14 28q0 2 0 8t4 13q3 7 7 11t6 11q1 1 1 1t0 0q0 2-5 2-2 0-4-1t-4-3q-7-16-12-18t-5-1q-14 19-27 34t-29 26-41 20q-21 9-50 9-17 0-35-5t-30-14-19-27q-3-7-4-14t-1-13q0-21 12-37t28-25 35-14q2-1 4-1t4 0q10 0 20 6t15 26q1 2 1 4t0 4q0 11-6 22t-18 16q-14 5-21 5-3 0-5-1t-3-3q-1-1-3-3t-1-5q0-5 5-10 3-2 5-2 4 0 7 1t8 2q5 0 9-3 9-9 9-19 0-7-4-14t-9-11q-4-4-11-4-9 0-22 6t-22 14q-12 10-19 22t-7 26q0 5 1 10t3 12q6 17 25 26t43 10q23 0 47-9 24-9 42-24t31-32 19-29 6-15q1-4-4-16t-10-31-5-46q1-15 6-35t13-41 17-39 15-27q7-9 15-9 1 0 3 0t2 1q6 0 10 9t7 15m-14 55q2-15 2-30 0-15-2-26t-8-10q-7-2-17 13-8 12-14 28t-13 34q-5 13-8 31t-3 38q0 14 2 27t6 27q5 13 6 15t4 0q7-9 14-26t13-38 11-43 7-40m108 142q0 11-2 17t-4 9-6 8-5 13-1 25q0 7 5 11t11 4q3 0 3 2 0 2-4 6t-6 4q-11 0-16-9t-5-19q0-16 1-26t2-19 0-21q0-9-2-15t-11-5q-4 0-6 2t-4 5q-6 8-10 22t-6 30-4 28-3 16q-1 4-4 5t-4 2q-2 0-4-1t-3-1q-2-2-2-5t1-9 3-8 3-15 5-21 4-20 2-8q-2 0-5 0t-5 1q-7 0-7-6 0-4 3-12t11-21q2-4 10-10t12-5q2-1 4-1t2 0q6 0 6 3t1 8 0 3q7-3 14-3 11 0 18 8t8 28m178-57q3 3 3 11 0 11-5 28t-11 37-11 38-5 36q0 20-2 34t-5 28-10 31-16 42q-20 24-42 33t-47 8q-9-1-20-13t-18-30-8-42q0-9 2-18 2-15 7-30t15-25 25-10q13 0 24 10t19 22 11 22q1 6 2 13t2 13q0 12-5 16-5 6-12 6-6 0-13-3-5-1-12-7t-6-15q0-6 2-11t5-8q3-3 5-3t3 2 1 5v0q0 2-2 3t-1 6q0 8 4 12t7 4q7 0 7-13 0-11-6-26-5-12-14-22t-21-11q-6-1-14 3t-12 16q-4 7-5 15t-1 16q0 10 1 18 1 29 16 44t37 16q3 0 5 0t5 0q15-2 29-15t24-30q6-11 8-26t4-32 3-29q1-5 1-8t0-5q0-6-1-12t0-19q0-4 0-9t0-12q-23 13-42 13-22 0-37-19-6-7-6-16 0-12 8-26t22-25 30-21 32-11q7-1 14-4t14-2q8 0 13 7m-25 37q1-5 2-9t2-8q0-2-1-5t-3-5q-3-3-9-3-9 0-21 6t-23 18-17 27q-3 6-5 16t-3 18q0 8 3 12 3 4 11 4 7 0 16-4t16-8q15-14 22-30t10-29m151 84q2-2 5-2t4 3q0 3-8 11t-18 12-18 6q-4 1-11-3t-8-6q-2-5-3-11t-1-12q0-15 4-32t6-28q-6 2-13 2t-13 1q-3 5-6 11t-7 14q-8 13-18 25t-19 21-20 8q-6 0-6-3t8-7q12-4 25-19t22-30q5-7 7-14t1-9q0 0-4-6t-4-10q0-11 7-20t15-6q6 1 7 5t2 7q0 5-1 9t-3 9q1 2 6 2 8 0 17-3 6-10 12-15t11-5q4 1 7 3t3 7q0 5-5 14-7 13-14 29t-10 28-3 18q1 7 4 9t6 2q3 0 5-1t6-1q7-3 12-6t11-7m-75-85q0-4-3-6 0-1-1-1-3 0-5 3t-2 7q0 2 1 5t3 2 5-4 2-6m193-90q-4 0-7-2t-6-3q-7-3-7-13 0-4 2-10t8-10q3-4 8-4 5 0 9 4 2 2 2 6t1 9q0 6-1 12t-3 8q-4 3-6 3m-51 196q-19 0-26-8t-7-21q0-5 1-11t3-11q-5 9-16 21t-19 19q-2 1-4 1-3 0-3-3 0-4 3-7 21-22 32-36t17-23 11-18q5-14 8-28t12-28q3-5 10-5 5 0 9 3t4 8q0 3-1 7-6 16-12 26t-16 28q-11 17-17 33t-6 27q0 7 3 11t10 5q14 0 21-5t13-10q6-7 11-13t9-11q3-3 3 1 0 3-2 7t-2 6q-5 7-12 15t-16 14-21 6m254-270q-5 32-17 62t-25 57-27 47-22 35-8 19q0 0 1 6t4 13 6 14 10 6q7 0 15-5t14-8q10-9 13-9 1 0 1 2 0 2-2 6t-5 7q-8 7-17 13t-16 6q-14 0-21-8t-11-18-6-16q-13 6-22 12t-18 11-19 5q-17 0-30-12t-13-26q0-27 11-43t31-25 37-7q13 0 24 3 8-27 13-44t11-29 14-30q7-17 17-35t23-32q4-6 9-10t11-4q10 0 13 6t3 15q0 9-2 16m-12-8q-6 5-19 24t-25 44q-9 19-18 38t-15 34-9 20q3 3 3 14t-3 22q3-3 13-20t24-40 25-50q5-12 11-28t9-33 4-25m-108 190q1-4 1-8t1-6q0-6-4-6-4-2-8-2-14 0-27 12t-22 26q-2 3-5 11t-2 16q0 7 2 12t9 8q1 0 4 0 7 0 17-5t19-15 13-20q2-5 2-11t0-12m504-43q1 4 1 8t0 9q0 21-4 42t-13 34q-3 5-9 15t-11 14q-18 15-43 23t-52 12-48 4q-23 0-43-10t-39-19q-10 9-22 15t-26 6-28-2-21-8-9-22q0-8 10-15t22-11q4-1 8-2t11 0q4 0 8 0t9 2q9 3 17 7t18 9q10-10 17-23t14-29q-19-5-36-18t-28-31-10-37q0-24 11-49t31-45 43-33 50-12q39 0 71 13t57 39 35 66q2 7 5 19t4 29m-30 15q0-7 0-14t1-13q0-12-2-23t-6-17q-4-7-6-13t-5-15-11-18q-11-14-25-23t-25-18q-11-9-25-13t-34-4q-22 0-42 12t-36 31-25 42-9 45q0 15 4 32t17 29q6 5 14 9t16 5q4-11 7-23t5-21q5-16 15-39t23-41q-2-1-4-1t-4 0q-6 0-13 2t-13 5q-6 3-10 10t-7 15-6 7q-1 0-4-2-3-4-3-10 0-5 2-10t5-9q6-8 13-11t17-6q8-1 16-1 9 0 18 1 9-10 18-16t17-7q10 0 17 9 3 3 3 7 0 3-3 3-3 0-6-3-5-6-11-6-6 0-12 5t-11 12q11 4 15 9 11 12 17 25t6 28q0 12-5 27-17 55-85 55-2 0-3-1t-3 0q-6 16-14 30t-18 28q16 9 33 17t38 7q35 0 66-15t55-35q15-12 21-33t7-46m-112-11q3-10 3-19 0-14-6-27t-14-21q-4-5-9-8-11 19-20 42t-12 38q-3 10-6 21t-8 22q2 0 5 0t4 1q28 0 42-14t21-35m-137 118q-12-6-26-11-10-3-16-3-6 0-7 3t-1 8q0 7 1 10t4 2q3 0 8-2t12-1 13-2 12-4m457-24q1-2 4-2 3 0 3 4 0 2-2 6t-9 9q-7 6-15 11t-19 5q-14 0-22-5t-11-11-4-10q-6 5-12 12t-18 13-33 6q-12 0-22-6t-9-25q0-6 0-12t3-14q6-23 14-37t24-20q10-4 25-7t25-6q4-1 6-7t7-11q2-2 4-4t6-2q2 0 6 3 4 2 5 9t1 13q0 3-2 7t-3 10q-1 6-5 18t-4 20q0 7-1 17t0 15q6 12 16 15t17 3q6-1 13-7t12-10m-81-57q-1-4-5-9t-9-4q-1 0-4 1-9 3-18 11t-17 21-8 31q0 5 3 13t9 13 11 3q12-5 20-14t14-23q3-6 4-14t1-13q0-6 0-11t-1-5m194 69q2-2 6-2t3 3q0 3-8 11t-17 12-18 6q-4 1-11-3t-8-6q-2-5-3-11t-1-12q0-15 3-32t7-28q-6 2-14 2t-12 1q-4 5-6 11t-7 14q-8 13-18 25t-20 21-19 8q-7 0-7-3t9-7q12-4 24-19t23-30q5-7 6-14t2-9q0 0-5-6t-4-10q0-11 7-20t16-6q5 1 7 5t2 7q0 5-2 9t-3 9q2 2 7 2 7 0 16-3 7-10 13-15t11-5q3 1 6 3t3 7q0 5-4 14-8 13-14 29t-10 28-3 18q1 7 3 9t7 2q2 0 5-1t5-1q8-3 13-6t10-7m-74-85q0-4-3-6-1-1-2-1-2 0-4 3t-2 7q0 2 0 5t4 2 4-4 3-6m225 67q-4 9-18 21t-31 22-35 9q-26 0-35-15t-9-41q0-18 3-43t9-55 15-60q9-28 19-55t32-47q3-6 9-6 4 0 8 4t3 9q0 0-1 12t-1 30-5 34q-4 27-16 57t-25 55q-10 20-17 29t-9 13-5 11q0 3-1 7t0 9q0 9 1 17t4 11q5 6 12 8t13 3q5 0 10-2 17-5 34-16t26-23q3-5 5-7t4-1q3 0 3 3 0 1-1 3t-1 4m-46-236q-5-1-16 22t-22 62q-3 12-8 31t-8 38-6 36q16-33 29-59t20-48q7-18 10-39t3-32q0-10-2-11m136 79q-4 0-7-2t-6-3q-7-3-7-13 0-4 2-10t8-10q3-4 8-4 5 0 9 4 2 2 2 6t1 9q0 6-1 12t-3 8q-4 3-6 3m-51 196q-19 0-26-8t-7-21q0-5 1-11t3-11q-5 9-16 21t-19 19q-2 1-4 1-3 0-3-3 0-4 3-7 21-22 32-36t17-23 11-18q5-14 8-28t12-28q3-5 10-5 5 0 9 3t4 8q0 3-1 7-6 16-12 26t-16 28q-11 17-17 33t-6 27q0 7 3 11t10 5q14 0 21-5t13-10q6-7 11-13t9-11q3-3 3 1 0 3-2 7t-2 6q-5 7-12 15t-16 14-21 6m135-85q0 11-2 17t-5 9-5 8-5 13-2 25q0 7 5 11t12 4q3 0 3 2 0 2-4 6t-7 4q-11 0-16-9t-5-19q0-16 1-26t2-19 1-21q-1-9-3-15t-10-5q-5 0-7 2t-4 5q-5 8-9 22t-6 30-4 28-3 16q-2 4-4 5t-5 2q-2 0-4-1t-2-1q-3-2-3-5t2-9 3-8 3-15 5-21 4-20 2-8q-3 0-5 0t-5 1q-8 0-8-6 0-4 3-12t11-21q3-4 10-10t13-5q2-1 3-1t3 0q5 0 6 3t0 8 1 3q7-3 14-3 10 0 18 8t8 28m178-57q3 3 3 11 0 11-5 28t-11 37-11 38-5 36q-1 20-3 34t-5 28-10 31-16 42q-19 24-42 33t-46 8q-10-1-21-13t-18-30-7-42q0-9 1-18 3-15 8-30t14-25 26-10q13 0 24 10t19 22 10 22q2 6 3 13t1 13q0 12-4 16-5 6-12 6-6 0-14-3-5-1-11-7t-7-15q0-6 3-11t4-8q4-3 6-3t2 2 1 5v0q0 2-1 3t-2 6q0 8 5 12t7 4q6 0 6-13 0-11-6-26-5-12-14-22t-20-11q-7-1-14 3t-13 16q-3 7-5 15t-1 16q0 10 2 18 1 29 15 44t38 16q2 0 5 0t5 0q15-2 29-15t23-30q6-11 9-26t3-32 4-29q1-5 1-8t0-5q0-6-1-12t-1-19q0-4 0-9t1-12q-24 13-42 13-23 0-38-19-5-7-5-16 0-12 8-26t22-25 30-21 32-11q7-1 14-4t13-2q9 0 14 7m-25 37q1-5 2-9t1-8q0-2 0-5t-3-5q-3-3-10-3-8 0-20 6t-24 18-17 27q-2 6-5 16t-2 18q0 8 2 12 3 4 11 4 8 0 17-4t16-8q15-14 21-30t11-29" />
</svg>