<svg id="fnt-Inspiration" viewBox="0 0 1402 1000" xmlns="http://www.w3.org/2000/svg"><path id="inspiration" class="f" d="M111 774q-19 0-38-11t-39-38q-16-20-23-47t-6-52q0-13 1-25 2-13 8-31t11-28q2-4 6-8t5-4q0 0 0 1 0 2-5 12-7 15-11 32t-3 34q0 32 10 63t27 54q16 22 31 31t29 10q20 0 36-16t26-38q8-15 13-41t7-56 3-65q0-34-3-67t-10-62-16-50-25-30q-4-2-7-2-4 0-8 2t-7 7q-6 9-9 24t-3 34q0 21 3 42t10 38 14 23q5 4 9 4 3 0 5-2t4-2q4 0 1 3t-7 5-11 2q-14-1-23-15t-13-34-5-43q0-23 5-45t14-35 24-13q7 0 14 3 19 8 31 30t19 54 9 66 3 65q0 26-1 47t-3 34q-3 27-12 52t-22 45-31 32-37 11m238-101q-7 0-12-8t-5-32q0-18 3-41t7-44 7-39 3-25q0-14-9-14-8 0-16 8t-16 19-12 22-7 16q-7 20-10 39t-3 40q0 8 1 17t1 19q1 5-3 12t-8 7q-4 0-6-4t-4-8q-2-6-3-13t-2-12q-3-20-6-42t-9-41q-1-5-4-12t-6-10q-1-1-3-2t-2-2q0-2 5-2 6 0 12 6t11 16q6 12 10 26t7 23q3-18 7-32 3-12 9-29t15-33 22-27 29-11q24 0 24 28 0 15-5 32t-11 32-8 20q-2 7-5 19t-5 25-1 24q0 9 2 15t7 7 9-5 7-9 3-1q1 7-6 17t-14 9m81 15q-7 0-10-4t-2-8q0-8 7-17 2-3 7-8t6-8q-6-9-17-17t-22-19q-9-10-16-26t-6-29q0-16 7-31t19-26q12-12 26-20t30-7q11 0 21 5t10 17q0 13-6 13-3 0-4-5 0-2 0-5t0-4q0-5-5-9t-10-3q-11 0-25 9t-24 21q-9 12-15 28t-6 30q0 18 8 31t19 23 20 20q5-6 10-11t10-8q4-2 5-2t2 1q0 3-5 6-1 1-6 6t-11 12q4 4 7 9t2 11q0 8-9 17t-17 8m5-13q4 0 7-7t3-12q0-3-1-5t-1-3q-4 5-8 10t-3 11q0 6 3 6m64 155q-7 0-12-10t-7-23-2-25q0-6 1-16t1-23 2-22 2-16q4-34 13-66t20-62q0-1 1-3t1-2v-2q-5 2-13 10t-11 11q-3 4-6 7t-7 4-4-4q0-6 5-12t13-10q7-6 15-10t12-7q2-1 2-2t2-3q3-6 7-11t10-7q5 1 10 2t7 7q0 2 1 2v1q2 0 6-1t9-1q19 0 31 10t12 27q0 15-9 33t-19 29q-17 16-35 28t-31 13q-8 0-11-5t-3-10q0-8 8-17t15-14q8-7 17-13t16-10q4-3 7-5t6-2q1 0 1 2 0 1-6 5t-9 7q-3 2-11 8t-16 14-14 16-6 14q8 0 18-7t19-15 17-15q7-6 16-17t16-22 7-22q0-13-10-20t-23-6q-5 0-12 1t-8 2q-11 17-21 35t-19 36q-14 30-22 61t-11 67q0 8-1 18t0 19q0 5 2 16t5 20 9 9q1 0 2 0t2 0v2q-4 2-7 2m178-330q-5 0-7-5t-1-7q0-8 4-15t11-8h2q6 0 8 3t2 7q0 7-6 16t-13 9m-26 179q-17 0-23-13t-6-30 4-36 8-34 8-22q5-12 11-20t12-8q4 0 6 3t3 8q0 10-6 20t-10 20q-10 20-16 36t-5 40q0 16 3 23t9 7q8 0 19-10t21-24 20-34q5-11 8-11 2 0 2 4 0 5-4 15t-10 21-11 17q-8 11-19 19t-24 9m122 13q-16 0-25-15t-8-32q0-17 5-35t14-35 17-32q-9 3-17 3-4 0-7-1t-5-1q-2 6-9 20t-13 29-11 26q-8 17-14 17-3 0-3-4 0-3 2-8 12-22 22-43t19-40q-1-3-2-7t-1-9q0-6 1-12t4-12q1-4 5-11t9-12 10-6q8 0 8 9 0 9-5 20t-11 20-5 14q0 4 4 4 5 0 13-6t14-11q2-2 8-8t10-5 7 3 2 7q0 5-4 11t-10 14-8 11q-7 10-16 26t-16 34-6 35q0 11 5 23t15 12q9 0 18-9t19-21 15-24 10-16q1-3 3-7t6-3q3 0 3 3 0 2-1 5t-2 6q-5 11-11 22t-9 16q-7 11-21 23t-28 12m79-29q-9 0-13-8t-4-18q0-14 5-32t13-37 18-36 22-26 22-10q10 0 17 8t8 20q0 7-2 11t-5 4q-2 0-3-3-5-11-11-16t-12-5q-10 0-20 11t-15 26q-5 11-10 26t-7 30-2 24q0 17 8 17 10 0 25-22 12-16 21-37t16-36q2-5 5-7t6-1q6 0 7 5t2 8q0 13-2 23t-3 25q0 11 2 19t6 9q6 0 14-14 2-4 6-4 5 0 5 5 0 6-9 13t-18 8q-12 0-17-10-9-17-9-30t0-18q-3 6-10 18t-16 27-20 23-20 10m158 84q-5 0-11-7t-9-17q-8-18-11-38t-3-39q0-22 3-43t7-38q2-12 6-26t6-21q-3 0-9 3t-14 6-11 3q-8 0-8-8 0-5 3-8t9-6q10-4 22-7t16-4l13-33q2-5 7-17t12-24 15-23q5-8 10-13t11-5q9 0 9 7 0 4-3 12t-12 21q-9 15-19 30t-17 31q0 2-2 6t-3 5l10-1q4-1 9-1t11 0q9 0 16 0t13 3q3 1 5 2t2 3q0 2-13 2-7 0-21 2t-31 8q-9 3-12 7t-8 22q-7 27-12 51t-7 51q0 5-1 10t0 12q0 17 3 36t10 32q2 3 3 5t5 4q3 1 3 3 0 2-2 2m93-247q-5 0-7-5t-1-7q0-8 4-15t11-8h2q6 0 8 3t2 7q0 7-6 16t-13 9m-26 179q-17 0-23-13t-6-30 4-36 8-34 8-22q5-12 11-20t12-8q4 0 6 3t3 8q0 10-6 20t-10 20q-10 20-16 36t-5 40q0 16 3 23t9 7q8 0 19-10t21-24 20-34q5-11 8-11 2 0 2 4 0 5-4 15t-10 21-11 17q-8 11-19 19t-24 9m105 5q-17 0-27-10t-15-26-5-33q0-10 2-20t4-15q-1-4-1-8t0-7q0-15 3-32t9-32 17-26 26-9q13 0 25 10t22 32q6 11 8 24t2 27q0 19-4 37t-10 34q-5 12-14 24t-18 22-24 8m2-11q17 0 32-23 10-17 15-38t4-43q0-16-2-31t-6-29q-3-12-12-22t-23-8q-12 1-21 12t-14 24-4 24q0 6 1 9 2-4 8-14t13-17 14-7q6 0 6 4-7 1-13 8t-12 17-8 20-5 15q0 2-1 5t-1 6q0 4 4 11t13 15 24 6q5 0 10-1t9-2l4-1q1 0 1 1 0 2-4 4t-5 3q-7 4-16 4-12 0-24-8t-19-18q-1 4-1 8t0 7q0 29 10 44t23 15m190 0q-6 0-11-8t-5-32q0-18 3-41t6-44 7-39 3-25q0-14-8-14-8 0-17 8t-15 19-13 22-6 16q-7 20-10 39t-3 40q0 8 0 17t2 19q1 5-3 12t-9 7q-3 0-6-4t-3-8q-2-6-3-13t-2-12q-4-20-7-42t-8-41q-2-5-4-12t-7-10q-1-1-3-2t-2-2q0-2 6-2 6 0 12 6t11 16q6 12 10 26t7 23q3-18 6-32 4-12 10-29t15-33 21-27 29-11q24 0 24 28 0 15-5 32t-11 32-7 20q-3 7-6 19t-4 25-2 24q0 9 2 15t8 7 9-5 6-9 3-1q1 7-5 17t-15 9" />
</svg>