<svg id="fnt-Instrument Sans" viewBox="0 0 3758 1000" xmlns="http://www.w3.org/2000/svg"><path id="instrument-sans" class="f" d="M84 667h-41v-360h41v360m123 0h-40v-255h38v60h2v195m183 0h-40v-167q0-29-15-44t-43-14q-25 0-44 11t-30 30-11 46l-6-61q13-28 39-45t61-16q40 0 64 22t25 60v178m163 5q-47 0-75-22t-32-62h39q3 25 21 38t48 13q27 0 42-10t15-29q0-13-9-23t-34-16l-41-10q-35-9-52-28t-18-45q0-33 25-52t66-19q42 0 68 20t29 55h-38q-4-20-19-31t-41-11q-25 0-38 9t-14 26q0 13 10 23t33 16l40 11q35 9 53 29t18 47q0 33-25 52t-71 19m252-1q-42 0-62-19t-19-56v-244l40-15v259q0 21 11 31t36 10q10 0 17-1t12-3v34q-5 2-14 3t-21 1m35-225h-168v-34h168v34m92 221h-40v-255h37v65h3v190m0-133l-7-61q9-32 32-49t53-17q13 0 17 2v38q-2-1-7-1t-11 0q-38 0-58 22t-19 66m230 138q-25 0-44-11t-31-29-11-43v-177h40v167q0 29 14 43t41 15q24 0 43-11t29-31 11-45l6 60q-12 29-39 45t-59 17m132-5h-38v-60h-2v-195h40v255m120 0h-40v-255h37v60h3v195m172 0h-40v-169q0-29-13-43t-38-13q-23 0-41 11t-30 30-10 46l-7-61q13-28 39-45t57-16q37 0 60 21t23 59v180m172 0h-40v-169q0-29-13-43t-38-13q-23 0-41 11t-30 30-10 46l-10-61q13-28 40-45t58-16q37 0 60 21t24 59v180m181 5q-36 0-64-18t-44-47-16-69 15-69 45-46 65-16q36 0 62 15t40 44 15 66q0 5-1 9t-1 10h-210v-33h186l-13 18q0-46-21-71t-57-24q-38 0-61 26t-23 71q0 45 23 72t62 28q25 0 43-11t27-31h38q-12 35-42 55t-68 21m218-5h-40v-255h37v60h3v195m182 0h-40v-167q0-29-14-44t-43-14q-25 0-45 11t-30 30-10 46l-7-61q13-28 40-45t61-16q40 0 64 22t24 60v178m179 4q-42 0-62-19t-19-56v-244l40-15v259q0 21 11 31t36 10q10 0 17-1t12-3v34q-5 2-14 3t-21 1m35-225h-168v-34h168v34m277 225q-63 0-101-31t-43-88h40q5 41 31 62t72 21q39 0 59-15t20-43q0-24-14-39t-42-24l-60-21q-46-16-68-39t-22-57q0-29 14-51t41-33 62-12q54 0 86 28t38 81h-40q-7-38-27-55t-58-18q-36 0-56 15t-20 41q0 22 14 36t43 23l65 23q42 14 63 39t21 63q0 45-31 69t-87 25m374-4h-39q-2-9-3-20t0-28h-3v-122q0-29-13-43t-43-13q-29 0-46 11t-19 34h-39q3-37 31-58t75-21q47 0 70 22t23 68v122q0 11 2 23t4 25m-126 5q-40 0-63-20t-23-52 23-52 67-26l89-15v33l-83 13q-28 4-43 15t-14 30q0 20 13 30t39 10q34 0 55-16t21-39l7 35q-8 26-32 40t-56 14m237-5h-40v-255h38v60h2v195m183 0h-40v-167q0-29-15-44t-43-14q-25 0-44 11t-30 30-11 46l-6-61q13-28 39-45t61-16q40 0 64 22t25 60v178m163 5q-47 0-75-22t-32-62h39q3 25 21 38t48 13q27 0 42-10t15-29q0-13-9-23t-34-16l-41-10q-35-9-52-28t-18-45q0-33 25-52t66-19q42 0 68 20t29 55h-38q-4-20-19-31t-41-11q-25 0-38 9t-14 26q0 13 10 23t33 16l40 11q35 9 53 29t18 47q0 33-25 52t-71 19" />
</svg>