<svg id="fnt-Instrument Serif" viewBox="0 0 2817 1000" xmlns="http://www.w3.org/2000/svg"><path id="instrument-serif" class="f" d="M108 667h-91q-7 0-7-6 0-4 6-6l12-2q10-2 13-5t4-14v-294q0-11-4-14t-13-6l-12-2q-6-1-6-6 0-5 7-5h91q7 0 7 5 0 5-6 6l-12 2q-10 2-14 6t-3 14v294q0 10 3 14t14 5l12 2q6 2 6 6 0 6-7 6m116 0h-84q-8 0-8-6 0-4 7-6l6-1q10-2 13-6t4-15v-168q0-9-3-12t-10-4l-10-2q-7 0-7-5 0-4 8-6 16-2 24-8t17-13q5-5 8-5 4 0 4 6v23q0 4 3 5t8-2q20-19 35-26t32-7q23 0 36 15t14 47v162q0 11 3 15t14 6l11 1q5 1 5 6 0 6-6 6h-84q-7 0-7-6 0-5 6-6l7-1q10-1 13-6t4-15v-157q0-24-9-34t-26-10q-16 0-29 9t-20 24-7 34v134q0 11 3 15t14 6l13 1q6 1 6 6 0 6-8 6m201 4q-11 0-24-3t-21-6q-5-3-5-9l-1-56q0-8 6-8 6 0 8 8 8 35 20 48t30 13q15 0 24-11t10-31-11-36-37-34q-26-17-38-35t-12-39q0-28 20-46t53-17q10 0 19 2t17 7q5 3 5 8l1 55q0 8-6 8-4 0-5-3t-3-5q-10-33-20-46t-24-12q-13 0-22 9t-8 22q0 18 10 31t38 32q25 18 38 38t13 46q0 32-21 51t-54 19m162 0q-17 0-29-12t-11-40v-187q0-6-6-6h-14q-8 0-8-6 0-4 4-7 17-12 27-25t17-36q4-11 9-11 5 0 5 8v56q0 7 7 7h33q8 0 8 7t-8 7h-33q-7 0-7 7v186q0 11 4 17t13 7q10 0 17-11t9-34q1-7 6-7 6 0 6 8-1 38-16 55t-33 17m133-227q21-35 50-35 16 0 24 9t8 22q0 10-5 16t-14 6q-8 0-12-4t-6-9-5-9-10-3q-9 0-17 10t-14 29-5 41v116q0 11 3 15t14 6l14 1q5 1 5 6 0 6-7 6h-85q-7 0-7-6 0-4 6-6l6-1q11-2 14-6t3-15v-168q0-9-3-12t-9-4l-11-2q-6 0-6-5 0-4 8-6 15-2 23-8t18-13q4-5 7-5 5 0 5 6v27q0 4 3 4t5-3m168 227q-13 0-24-5t-19-18-8-32v-174q0-9-3-12t-9-4l-9-1q-8-1-8-7 0-6 9-6h47q7 0 7 7v187q0 23 9 32t24 10 28-9 19-23 7-32v-142q0-9-3-12t-9-4l-9-1q-8-1-8-7 0-6 9-6h47q7 0 7 7v194q0 9 3 12t10 5l10 1q7 1 7 5t-8 6q-16 2-25 8t-16 15q-5 4-8 4-4 0-4-6v-23q0-4-3-5t-6 3q-18 18-33 26t-31 7m241-4h-85q-7 0-7-6 0-4 6-6l6-1q11-2 14-6t3-15v-168q0-9-3-12t-9-4l-11-2q-6 0-6-5 0-4 8-6 15-2 23-8t18-13q4-5 7-5 5 0 5 6v23q0 3 3 5t6-2q21-19 36-26t31-7q14 0 25 7t17 24q2 4 5 4t8-2q20-19 35-26t31-7q21 0 34 15t13 47v162q0 11 3 15t14 6l11 1q6 1 6 6 0 6-6 6h-86q-7 0-7-6 0-5 6-6l7-1q11-1 15-6t3-15v-157q0-24-9-34t-23-10-28 9-19 24-8 34v134q0 11 4 15t14 6l11 1q6 1 6 6 0 6-6 6h-85q-7 0-7-6 0-5 5-6l7-1q11-1 14-6t3-15v-157q0-24-9-34t-23-10-28 9-19 24-8 34v134q0 11 3 15t14 6l14 1q5 1 5 6 0 6-7 6m348 4q-24 0-43-16t-30-45-11-68q0-39 11-69t32-47 44-17q30 0 48 24t18 79q0 16-12 16h-95q-10 0-10 12 0 53 15 79t40 27q19 0 31-14t19-45q2-6 7-6 6 0 4 10-8 45-25 62t-43 18m-40-155h51q24 0 24-25 0-33-8-51t-24-19q-20 0-33 23t-17 64q-1 8 7 8m221 151h-84q-8 0-8-6 0-4 7-6l6-1q10-2 13-6t4-15v-168q0-9-3-12t-10-4l-10-2q-7 0-7-5 0-4 8-6 16-2 24-8t17-13q5-5 8-5 4 0 4 6v23q0 4 3 5t8-2q20-19 35-26t32-7q23 0 36 15t14 47v162q0 11 3 15t14 6l11 1q5 1 5 6 0 6-6 6h-84q-7 0-7-6 0-5 6-6l7-1q10-1 13-6t4-15v-157q0-24-9-34t-26-10q-16 0-29 9t-20 24-7 34v134q0 11 3 15t14 6l13 1q6 1 6 6 0 6-8 6m209 4q-17 0-29-12t-11-40v-187q0-6-6-6h-14q-8 0-8-6 0-4 4-7 17-12 27-25t17-36q4-11 9-11 5 0 5 8v56q0 7 7 7h33q8 0 8 7t-8 7h-33q-7 0-7 7v186q0 11 4 17t13 7q10 0 17-11t9-34q1-7 6-7 6 0 6 8-1 38-16 55t-33 17m233 0q-10 0-22-2t-23-5-17-6q-3-2-5-5t-2-7l-2-79q0-10 6-10 6 0 8 9l4 19q17 72 64 72 25 0 39-17t15-47q0-30-15-55t-49-51q-37-26-54-51t-17-53q0-37 26-59t66-22q15 0 29 3t23 10q3 2 4 5t2 6l2 76q0 8-7 8-4 0-6-7l-4-12q-11-39-23-57t-33-17q-22 0-35 14t-12 39q0 22 14 41t49 48q37 30 54 58t18 61q0 28-13 49t-34 32-50 12m208 0q-24 0-43-16t-31-45-11-68q0-39 12-69t31-47 45-17q29 0 47 24t19 79q0 16-13 16h-95q-10 0-10 12 0 53 16 79t39 27q19 0 31-14t20-45q1-6 6-6 6 0 5 10-8 45-26 62t-42 18m-40-155h50q24 0 24-25 0-33-8-51t-24-19q-19 0-33 23t-17 64q-1 8 8 8m198-72q21-35 50-35 16 0 24 9t8 22q0 10-5 16t-14 6q-8 0-12-4t-6-9-5-9-10-3q-9 0-17 10t-14 29-5 41v116q0 11 3 15t14 6l14 1q5 1 5 6 0 6-7 6h-85q-7 0-7-6 0-4 6-6l6-1q11-2 14-6t3-15v-168q0-9-3-12t-9-4l-11-2q-6 0-6-5 0-4 8-6 15-2 23-8t18-13q4-5 7-5 5 0 5 6v27q0 4 3 4t5-3m139-80q-10 0-18-7t-7-19 7-19 18-7 18 7 7 19-7 19-18 7m42 303h-84q-7 0-7-6 0-4 6-6l6-1q13-2 16-6t4-15v-168q0-9-3-12t-10-4l-10-2q-7 0-7-5 0-4 8-6 16-2 25-8t19-13q4-5 7-5 5 0 5 6v217q0 11 3 15t11 6l13 1q5 1 5 6 0 6-7 6m55-34v-195q0-12-12-12h-11q-6 0-6-5t6-6q23-2 23-20v-3q0-26 8-49t22-36 37-14q20 0 33 11t14 28q0 9-5 14t-13 5q-10 0-14-7t-7-15-6-14-13-7q-10 0-16 11t-6 43v44q0 6 6 6h43q8 0 8 7t-8 7h-43q-6 0-6 6v201q0 11 3 15t14 5l27 2q5 1 5 6 0 6-7 6h-104q-8 0-8-6t7-6l12-1q11-1 14-6t3-15" />
</svg>