<svg id="fnt-Inter Tight" viewBox="0 0 2181 1000" xmlns="http://www.w3.org/2000/svg"><path id="inter-tight" class="f" d="M32 303h44v364h-44v-364m145 200v164h-42v-273h40v43h4q10-21 29-34t51-13q27 0 48 12t32 34 12 57v174h-41v-171q0-32-17-50t-46-18q-20 0-36 9t-25 25-9 41m205-109h141v35h-141v-35m41 206v-271h41v260q0 21 9 31t28 10q4 0 9-1t10-1l8 37q-6 2-14 4t-17 1q-33 0-54-19t-20-51m254 73q-39 0-68-18t-44-49-15-74q0-42 15-74t43-50 64-18q21 0 42 7t38 23 28 42 10 65v18h-210v-37h187l-19 14q0-27-8-48t-26-34-42-12-43 12-28 32-9 43v24q0 31 11 52t30 33 44 11q17 0 30-5t23-14 15-24l41 12q-7 20-22 36t-37 24-50 9m194-6h-41v-273h40v41h3q7-20 27-33t44-12q4 0 11 0t11 0v43q-2-1-10-2t-16-1q-20 0-35 9t-25 22-9 33v173m338-325h-114v-39h273v39h-115v325h-44v-325m239 325h-41v-273h41v273m-20-319q-12 0-21-8t-9-20 9-20 21-8 21 8 9 20-9 20-21 8m184 427q-46 0-72-17t-40-38l34-24q5 8 14 18t24 16 40 7q33 0 54-15t22-50v-56h-4q-4 8-13 19t-24 19-43 8q-32 0-59-15t-41-46-15-72q0-42 15-73t41-49 60-17q27 0 43 9t24 20 13 18h4v-43h40v280q0 36-15 58t-43 32-59 11m-2-150q38 0 58-26t20-71q0-30-8-52t-27-35-43-13q-26 0-44 13t-26 37-9 50q0 28 9 50t26 34 44 13m215-122v164h-42v-364h42v134h4q9-22 28-34t52-13q28 0 49 11t32 34 12 58v174h-42v-171q0-32-17-50t-47-18q-20 0-36 9t-26 25-9 41m208-109h141v35h-141v-35m41 206v-271h41v260q0 21 9 31t28 10q4 0 9-1t9-1l9 37q-6 2-14 4t-17 1q-33 0-54-19t-20-51" />
</svg>