<svg id="fnt-Inter" viewBox="0 0 1063 1000" xmlns="http://www.w3.org/2000/svg"><path id="inter" class="f" d="M44 303h46v364h-46v-364m173 200v164h-44v-273h42l0 66h-6q13-38 36-54t54-16q27 0 48 12t33 34 11 57v174h-44v-170q0-32-16-49t-45-18q-20 0-36 8t-24 25-9 40m218-109h141v37h-141v-37m41 205v-270h44v267q0 18 7 27t25 8q4 0 10-1t12-2l9 37q-7 3-15 4t-17 1q-36 0-56-19t-19-52m271 74q-40 0-69-18t-44-49-15-74 15-74 43-50 64-18q22 0 43 7t39 24 27 42 10 64v18h-212v-37h189l-21 14q0-27-8-48t-25-33-42-12-42 12-27 32-9 42v24q0 30 11 52t29 32 44 10q16 0 29-4t23-14 14-24l43 12q-6 21-22 36t-37 25-50 9m220-6h-44v-273h43v42h3q7-21 27-34t44-12q4 0 11 0t11 1v44q-2-1-10-2t-17-1q-19 0-35 8t-24 23-9 33v171" />
</svg>