<svg id="fnt-Istok Web" viewBox="0 0 2220 1000" xmlns="http://www.w3.org/2000/svg"><path id="istok-web" class="f" d="M76 667h-22q-12 0-12-14v-323q0-13 12-13h22q12 0 12 13v323q0 14-12 14m74-24q-7-7-3-13l11-16q5-7 16 1 14 11 32 17t40 7q14 0 24-3t19-13 8-24q0-9-4-16t-12-13-15-7q-13-5-25-8t-33-9q-13-5-25-12t-21-21-9-37q0-23 15-40t36-24 42-6q30 0 49 7t32 17q7 5 2 13l-11 14q-5 7-16 0-9-7-26-12t-29-6q-15 0-26 4t-18 11-7 20q0 8 3 15t10 12 20 9q21 6 38 10t31 11q17 8 27 18t13 22 4 26q0 26-15 44t-35 24-46 6q-36 0-62-11t-34-17m261-200h-28q-11 0-11-9v-15q0-9 11-9h28v-22q0-5 3-9l17-31q5-8 7-8h9q7 0 7 8v62h52q11 0 11 9v15q0 9-11 9h-52v155q0 26 8 33t18 8q9 0 20-5t16-8 7 2l8 19q2 5-3 8-9 5-28 11t-36 5q-26 0-39-19t-14-51v-158m155 95q0-57 30-94t89-38 89 38 31 94-31 95-89 38-89-38-30-95m45 0q0 52 21 76t53 25 54-25 20-76-20-75-54-25-53 25-21 75m281 129h-21q-11 0-11-11v-339q0-11 11-11h21q11 0 11 11v203q0 8 0 15h0l99-118q5-7 13-7h22q19 0 6 15l-76 91 87 136q10 15-6 15h-24q-8 0-14-9l-70-110-37 44v64q0 11-11 11m441-19l-84-317q-4-14 6-14h30q7 0 10 11l55 234q3 15 7 31t8 31h1q2-14 6-28t7-33l56-233q3-13 15-13h34q13 0 16 13l55 233q5 19 8 33t6 28h1q3-14 7-31t8-31l54-234q3-11 11-11h30q10 0 6 14l-84 317q-5 19-18 19h-31q-12 0-17-21l-59-234q-4-18-6-29t-3-24h-1q-1 12-3 24t-7 29l-59 234q-5 21-17 21h-30q-14 0-18-19m386-110q0-60 30-96t86-36q47 0 78 33t31 105q0 11-10 11h-170q4 47 25 65t48 19q29 0 44-10t22-19q8-10 15-3l15 12q5 5 0 13-5 8-27 23t-69 16q-61 0-90-36t-28-97m44-15h138q-1-34-18-60t-49-26q-28 0-48 19t-23 67m269 144h-21q-11 0-11-11v-339q0-11 11-11h21q11 0 11 11v109q0 7 0 15h0q14-16 31-26t45-9q48 0 74 40t25 92-25 93-74 40q-28 0-45-9t-31-26h0l-1 20q-1 11-10 11m11-157v57q0 36 18 54t44 18q37 0 52-28t16-73-16-72-52-28q-27 0-44 18t-18 54" />
</svg>