<svg id="fnt-Italianno" viewBox="0 0 1267 1000" xmlns="http://www.w3.org/2000/svg"><path id="italianno" class="f" d="M60 672q-15 0-29-9t-21-27q-3-6-4-14t-1-14 3-7q3 0 3 4 0 24 11 36t30 12 34-10 30-26q23-25 39-51t29-53 27-56q7-15 17-29t23-21h-15q-8 0-21 1t-27 5-22 11-8 22q0 4 3 10t3 9l-5 4q-3-6-8-13t-8-14-4-11q-1-5 0-13t8-14q8-6 21-8t27-2q14 0 26 1t21 1l80-1-7 8q-5 0-14 0t-19 3q-12 2-28 13t-26 30l-5 8q-7 17-17 40t-21 50-26 50-31 42q-12 14-31 23t-37 10m160-4q-5 0-9-2t-3-7q0-7 3-17t9-19 7-15q3-5 7-15t9-20 8-18 3-8q-4 5-12 14t-15 19-15 18-10 13q-1 2-2 2t-1-3q0-4 2-7 6-8 15-19t17-21 15-20q-4 0-10 1t-11 1-6 1q-2 0 1-4t8-8 7-4q1 0 8 0t11 0q10-13 20-31t19-38q4-1 14-6t15-11q3-2 4-2 3 0 0 4-3 4-12 16t-19 31-20 37h41q5 0 5 2 0 2-7 4-9 2-18 3t-17 2-11 6q-3 4-9 15t-12 26-10 30-6 25v2q0 4 3 6t5 3q6 0 16-8t22-20 19-20q3-4 6-8t3-4q1 2 1 3 0 3-2 6t-3 6q-10 13-23 26t-29 24-31 9m147 0q-5 0-9-2t-3-7q0-7 3-16t8-18 8-14q-17 18-36 35-10 8-21 15t-25 7q-5 0-7-4t-2-7q0-3 1-4 2-19 12-40t25-40 29-30q17-13 38-13h57q3 0 3 2 0 4-5 4-5 0-10 6t-7 11q-4 5-11 18t-16 28-13 29-5 19q0 7 7 7 7 0 17-7t19-18 18-20 13-16q3 3 0 8t-6 8q-10 13-23 27t-28 23-31 9m-54-17q6 0 16-9t24-22 23-28 18-27 8-19q0-5-4-7t-8-2q-8 0-17 5t-15 12q-6 5-14 17t-16 26-14 27-5 21q0 6 4 6m166 17q-15 0-21-8t-5-17q0-14 6-30t10-25q-6 7-12 13t-9 10q-1 2-2 2t-1-3q0-4 2-7 7-9 16-19t18-21q10-19 22-44t25-51 26-48 23-36q9-3 16-9t16-10 16-5q6 0 8 3t4 7q1 2 1 6 0 11-8 28t-18 32-18 26q-20 28-41 50t-38 38-24 23q-3 6-8 17t-8 22-4 22q0 9 4 14t14 6q1 0 3 0t3 0q9-2 19-10t20-18 18-20q3-4 6-8t4-5q4 3 0 8t-6 9q-4 5-10 12t-15 17q-10 10-24 19t-28 10m21-115q15-13 39-38t47-58q2-4 8-14t12-22 11-24 4-20q0-8-4-8-6 0-15 10-10 11-24 32t-27 47-28 51-23 44m157-77q-7 0-10-5-2-2-2-6 0-8 7-13 6-3 10-3 8 0 11 4 2 3 2 7 0 8-8 13-5 3-10 3m-87 192q-5 0-9-2t-3-7q0-7 4-17t8-19 8-15q3-7 8-19t10-21 7-14q-7 7-17 18t-18 22-13 17q-1 2-2 2t-1-3q0-4 2-7 10-12 21-27t22-28 12-17q5-1 16-3t15-5q1-2 3-2 1 0 1 2t-1 4q-3 3-11 17t-16 29-15 30q-7 13-12 26t-5 18q0 7 7 7 7 0 17-8t21-20 18-20q3-3 6-8t5-5q1 1 1 4 0 3-2 6t-4 6q-11 13-23 27t-28 23-32 9m147 0q-5 0-9-2t-3-7q0-7 3-16t8-18 8-14q-17 18-36 35-10 8-21 15t-25 7q-5 0-7-4t-2-7q0-3 1-4 2-19 12-40t25-40 29-30q17-13 38-13h57q3 0 3 2 0 4-5 4-5 0-10 6t-7 11q-4 5-11 18t-16 28-13 29-5 19q0 7 7 7 7 0 17-7t19-18 18-20 13-16q3 3 0 8t-6 8q-10 13-23 27t-28 23-31 9m-54-17q6 0 16-9t24-22 23-28 18-27 8-19q0-5-4-7t-8-2q-8 0-17 5t-15 12q-6 5-14 17t-16 26-14 27-5 21q0 6 4 6m136 23q-2 0 0-4 2-5 4-10t5-12q5-12 11-27t12-30 9-24 6-13q-7 7-17 18t-18 22-13 17q-1 2-2 2t-1-3q0-4 2-7 10-12 21-27t22-28 12-17q5-1 16-3t15-5q1-2 3-2 1 0 1 2t-1 4q-3 3-11 16t-15 28-15 28q6-8 13-15t13-15q6-6 17-15t22-16 20-9q2 0 3 0t3 0q11 0 11 8 0 6-6 16-4 5-11 18t-15 27-12 28-5 19q0 7 7 7 8 0 18-9t23-22 24-28q1 1 1 4 0 3-3 6t-4 6q-5 7-13 16t-17 19-15 15q-5 4-13 8t-16 4q-9 0-13-5t-3-12q0-8 3-17t6-17 6-12q9-18 17-33t10-22q2-3 2-5 0-4-6-1t-13 9-14 12-9 8q-18 19-32 43t-23 49q-7 0-13 3t-9 3m165 0q-2 0 0-4 2-5 4-10t5-12q5-12 11-27t12-30 9-24 6-13q-7 7-17 18t-18 22-13 17q-1 2-2 2t-1-3q0-4 2-7 10-12 21-27t22-28 12-17q5-1 16-3t15-5q1-2 3-2 1 0 1 2t-1 4q-3 3-11 16t-15 28-15 28q6-8 13-15t13-15q6-6 17-15t22-16 20-9q2 0 3 0t3 0q11 0 11 8 0 6-6 16-4 5-11 18t-15 27-12 28-5 19q0 7 7 7 8 0 18-9t23-22 24-28q1 1 1 4 0 3-3 6t-4 6q-5 7-13 16t-17 19-15 15q-5 4-13 8t-16 4q-9 0-13-5t-3-12q0-8 3-17t6-17 6-12q9-18 17-33t10-22q2-3 2-5 0-4-6-1t-13 9-14 12-9 8q-18 19-32 43t-23 49q-7 0-13 3t-9 3m170-6q-8 0-15-4t-6-14q0-17 9-35t19-31q8-12 19-22t23-18q8-5 22-11t23-5q8 0 14 4t6 15q0 17-9 35t-18 31q-4 6-9 11t-10 11q19 0 34-11t27-26l1-1q2 0 2 3 0 4-2 7-10 14-25 24t-34 11q-2 0-4 0t-4 0q-28 26-63 26m13-9q7 0 15-5t13-9q8-9 15-19t13-19q7-12 14-29t7-31q0-11-8-11-6 0-16 5t-13 10q-17 18-29 38-6 12-14 27t-7 29q0 2 0 3t1 4q2 7 9 7" />
</svg>