<svg id="fnt-Italiana" viewBox="0 0 1544 1000" xmlns="http://www.w3.org/2000/svg"><path id="italiana" class="f" d="M58 322h-23v-5h89v5h-24v340h24v5h-89v-5h23v-340m124 99h-10v-4h10v-50h35v50h77v4h-77v182q0 32 7 47t31 14 47-9l2 4q-25 9-58 9t-48-13-16-53v-181m371 246h-15q-34 0-47-13-11-11-11-19v-11q-25 45-79 45-63 0-71-57-1-6-1-13t2-13 11-17q19-18 84-22 16-1 29-1t25 1v-83q-1-1 0-5t-2-11-7-13-16-12-30-4-44 6-36 14l-2-4q45-20 91-20 51 0 68 18 13 15 13 31v167q0 15 5 22t12 9l6 1h15v4m-144-2q27 0 48-19t23-35v-60q-14-1-28-1t-27 1q-38 5-49 17t-12 35q0 4 1 9 4 53 44 53m261 2h-16q-44 0-55-23-3-5-3-9v-343h35v339q0 15 6 22t12 9l5 1h16v4m109 0h-31q-20 0-31-9t-11-18l-1-9v-214h35v214q0 15 6 22t11 9l6 1h16v4m-71-306q-6-6-6-15t6-16 15-6 15 6 7 16-7 15-15 6-15-6m323 306h-16q-34 0-46-13-12-11-12-19v-11q-24 45-78 45-63 0-72-57-1-6-1-13t2-13 12-17q19-18 83-22 16-1 30-1t24 1v-83q-1-1 0-5t-2-11-7-13-16-12-30-4-43 6-36 14l-2-4q44-20 90-20 52 0 68 18 13 15 13 31v167q0 15 6 22t12 9l5 1h16v4m-144-2q26 0 47-19t23-35v-60q-13-1-27-1t-27 1q-38 5-50 17t-11 35q0 4 0 9 5 53 45 53m409 2h-30q-21 0-32-9t-11-18l0-9v-157q0-39-21-50-10-5-26-5-32 0-57 25t-26 45v178h-35v-250h35v57q9-22 32-41t50-18 45 5 25 15q13 15 13 40v156q0 15 5 22t12 9l6 1h15v4m247 0h-15q-34 0-47-13-11-11-11-19v-11q-25 45-79 45-63 0-71-57-1-6-1-13t2-13 11-17q19-18 84-22 16-1 29-1t25 1v-83q-1-1 0-5t-2-11-7-13-16-12-30-4-44 6-36 14l-2-4q45-20 91-20 51 0 68 18 13 15 13 31v167q0 15 5 22t12 9l6 1h15v4m-144-2q27 0 48-19t23-35v-60q-14-1-28-1t-27 1q-38 5-49 17t-12 35q0 4 1 9 4 53 44 53" />
</svg>