<svg id="fnt-Itim" viewBox="0 0 915 1000" xmlns="http://www.w3.org/2000/svg"><path id="itim" class="f" d="M117 391q-2 32-2 61 0 31 4 90 1 9 2 36t2 50q5-1 10-2t9-1q11 0 18 6t6 17q0 7-6 11t-21 6-42 2q-31 0-47-2t-21-8-6-17q0-9 5-12t16-3l10 1 17 1-3-59q-3-48-3-88 0-22 2-59l1-28q-17 1-27 1-11 0-15-4t-3-16q0-14 19-18t59-4q30 0 45 2t16 9q0 17-8 22t-27 5l-10 1m120 105l-24-2q-7-1-11-6t-4-12q0-4 1-8t6-7q6-6 35-6 4-20 4-40 0-7-1-13t0-8q0-11 8-17t19-5q13 0 17 6t5 24q0 26-4 51 8 0 22-1 19-1 27-1t15 4 6 12q0 20-17 23-19 5-58 6-1 19-1 42 0 36 4 59 3 16 10 23t22 8q9 0 18-5 6-3 11-3 7 0 10 4t3 12q0 14-15 23t-38 10q-15 0-30-7t-24-18q-2-1-6-11t-7-22q-5-23-5-66 0-18 2-49m190-150q17 1 30 9t13 23q0 12-11 18t-25 7q-15 0-20-7t-6-16q0-15 3-25t16-9m40 131v90 15q0 19 1 36t3 35q0 5-7 10t-13 6q-9 0-19-4t-12-9q-3-16-3-29 0-41-2-92-2-45-2-63 0-9 9-15t19-7q14 0 20 7t6 20m378 172q-8-14-10-31t-2-48q0-29-8-50t-33-22q-9 0-19 6t-13 14q-7 14-10 29t-2 37q0 13 1 26 0 4 1 13t1 16q0 30-21 30-28 0-29-29 0-21 0-22v-22q0-18-1-35t-4-25q-4-17-12-26t-22-9q-22 0-36 19-9 15-12 37-3 27-5 43t-1 36q0 15-5 24t-17 9q-10 0-20-6t-10-14q0-9 2-19 4-28 4-102 0-12-6-23t-13-11q-2 0-8 2t-7 2q-7 0-12-6t-5-10q0-13 12-22t26-8q18 0 31 11t20 32q12-20 31-32t44-12q15 0 24 3t15 11 16 20q12-16 32-25t41-9q25 0 45 20t27 47q3 14 3 52l2 29q3 26 17 32 17 5 17 10 0 12-6 18-4 3-12 6t-13 4q-27 0-38-20" />
</svg>