<svg id="fnt-Wallpoet" viewBox="0 0 2451 1000" xmlns="http://www.w3.org/2000/svg"><path id="wallpoet" class="f" d="M126 667h-57l-59-269 59-19 45 219 58-69v85l-46 53m172 0h-57l-46-53v-85l56 69 47-219 57 19-57 269m93-34v-64l57-34h82v38h-76v41h76v53h-82l-57-34m63-117h-63v-34l57-35h82v47h-76v22m237 151v-185l-57-35h-82v47h75v41h-75v38h75v41h-73v53h137m95 0v-288h64v288h-64m164 0v-288h64v288h-64m462-186v122l-56 34h-79v-40h73v-103h-76v-47h82l56 34m-298 282v-316h138v47h-75v103h73v40h-73v126h-63m347-131v-151l59-34h79v47h-75v119h75v53h-79l-59-34m294 0v-151l-59-34h-79v47h75v119h-75v53h79l59-34m382-151v57l-59 35h-80v-39h75v-41h-75v-47h80l59 35m-66 116h66v35l-59 35h-80v-53h73v-17m-236-116v151l59 35h79v-53h-75v-41h75v-39h-75v-41h75v-47h-79l-59 35m477 14v-47h75v47h-75m75 97h63v40l-57 35h-81v-53h75v-22m-205-119l107-59v200 53l-62-35v-137l-45 0v-22" />
</svg>