<svg id="fnt-Warnes" viewBox="0 0 2412 1000" xmlns="http://www.w3.org/2000/svg"><path id="warnes" class="f" d="M536 343v4q0 80-14 136t-38 93-51 56h231q0 21-11 28t-24 7h-298q-26 0-36-14t-9-31v-124q-16 35-35 66t-41 56-43 38-42 14q-26 0-35-14t-10-31v-305q0-4 3-7t7-3h25q4 0 7 3t3 7v310q13 0 33-17t42-45 42-65 31-78 13-84v-31h15q20 0 30 11t10 34q0 14-3 26t-7 24v220q31 0 60-15t52-47 36-92v-161h14q25 0 34 5t9 26m173 158v128q18 0 41-12t46-36 37-62 14-91v-31h18q38 0 38 45 0 14-3 26t-8 24v140h161q0 21-11 28t-24 7h-140q-11 0-21-6t-10-24v-69q-17 31-41 53t-48 36-49 12q-26 0-35-13t-10-32v-123q0-56 26-83t88-26q21 0 33 8t11 27v5h-44q-24 0-39 5t-23 20-7 44m373 97l-23 63q-3 6-9 6h-28q-7 0-7-7 0-3 2-8l27-70q5-12 6-26t2-26v-93q-18 0-27-11t-9-25 9-26 27-11q17 0 26 10t10 23h65q36 0 56 5t30 16 13 31 3 48v135h155q0 21-11 28t-24 7h-135q-11 0-21-6t-9-24v-140q0-24-4-37t-15-18-38-5h-59v93q0 17-3 34t-9 34m373 37v32h-15q-20 0-30-11t-10-35q0-13 2-26t8-24v-164q0-4 3-7t7-3h25q4 0 7 3t3 7v90q19-33 43-58t50-39 51-13q26 0 35 13t10 32v200h160q0 21-11 28t-24 7h-140q-11 0-21-6t-9-24v-210q-14 0-33 8t-38 25-36 42-27 58-10 75m374-88v20q0 22 2 35t8 19 22 9 39 2h223q0 21-11 28t-24 7h-188q-41 0-64-5t-35-15-14-30-3-50v-21q0-43 6-73t24-47 55-26 99-8q26 0 35 13t10 31q0 52-14 80t-41 40-73 11q-14 0-20-5t-5-21v-10l39-2q19-1 32-4t21-12 12-29 4-52q-46 0-73 3t-42 16-19 34-5 62m294-146q0-15 9-26t27-11 27 11 10 26q0 6-2 11t-2 8l32 25q17 13 35 29t30 36 13 47q0 21-8 41t-31 34h148q0 21-11 28t-24 7h-187q-11 0-20-6t-10-24v-5h17q30 0 48-12t25-30 8-33q0-24-13-38t-31-28l-36-28-81 198q-2 6-8 6h-28q-7 0-7-7 0-3 2-8l88-217-8-6q-12-10-12-28" />
</svg>