<svg id="fnt-Wavefont" viewBox="0 0 401 1000" xmlns="http://www.w3.org/2000/svg"><path id="wavefont" class="f" d="M0 212v430h50v-430h-50m25 405q-7 0-13 3t-9 9-3 13 3 12 9 9 13 4 13-4 9-9 3-12-3-13-9-9-13-3m0-430q-7 0-13 3t-9 9-3 13 3 12 9 9 13 4 13-4 9-9 3-12-3-13-9-9-13-3m25 500v-45h50v45h-50m25-70q-7 0-13 3t-9 9-3 13 3 12 9 9 13 4 13-4 9-9 3-12-3-13-9-9-13-3m0 45q-7 0-13 3t-9 9-3 13 3 12 9 9 13 4 13-4 9-9 3-12-3-13-9-9-13-3m25-180v160h50v-160h-50m25 135q-7 0-13 3t-9 9-3 13 3 12 9 9 13 4 13-4 9-9 3-12-3-13-9-9-13-3m0-160q-7 0-13 3t-9 9-3 13 3 12 9 9 13 4 13-4 9-9 3-12-3-13-9-9-13-3m25 195v-10h50v10h-50m25-35q-7 0-13 3t-9 9-3 13 3 12 9 9 13 4 13-4 9-9 3-12-3-13-9-9-13-3m0 10q-7 0-13 3t-9 9-3 13 3 12 9 9 13 4 13-4 9-9 3-12-3-13-9-9-13-3m25 15h50-50m25-25q-7 0-13 3t-9 9-3 13 3 12 9 9 13 4 13-4 9-9 3-12-3-13-9-9-13-3-13 3-9 9-3 13 3 12 9 9 13 4 13-4 9-9 3-12-3-13-9-9-13-3m25-65v90h50v-90h-50m25 65q-7 0-13 3t-9 9-3 13 3 12 9 9 13 4 13-4 9-9 3-12-3-13-9-9-13-3m0-90q-7 0-13 3t-9 9-3 13 3 12 9 9 13 4 13-4 9-9 3-12-3-13-9-9-13-3m25 35v80h50v-80h-50m25 55q-7 0-13 3t-9 9-3 13 3 12 9 9 13 4 13-4 9-9 3-12-3-13-9-9-13-3m0-80q-7 0-13 3t-9 9-3 13 3 12 9 9 13 4 13-4 9-9 3-12-3-13-9-9-13-3m25-35v140h50v-140h-50m25 115q-7 0-13 3t-9 9-3 13 3 12 9 9 13 4 13-4 9-9 3-12-3-13-9-9-13-3m0-140q-7 0-13 3t-9 9-3 13 3 12 9 9 13 4 13-4 9-9 3-12-3-13-9-9-13-3" />
</svg>