<svg id="fnt-Wellfleet" viewBox="0 0 2240 1000" xmlns="http://www.w3.org/2000/svg"><path id="wellfleet" class="f" d="M43 348l-23 2q-7 0-7-7l3-41q0-4 2-6t5-1l113-5q5 0 5 2t1 6l3 40q-1 4-2 6t-6 1l-39-1 55 244 59-285q1-5 6-5l37-3q5 0 6 5l64 289 49-245-38-1q-3 0-4-2t-2-4l2-39q0-7 7-8l109 3q5 1 5 8l-2 39q-1 3-2 5t-6 2l-23-1-76 316q-1 4-6 5l-38 2q-6-1-7-6l-60-260-57 259q-1 4-6 5l-40 2q-5-1-6-6l-81-315m621 335l1-18q-31 8-79 8-49 0-71-30-24-32-24-100 0-72 20-107 23-39 72-48 17-3 38-3 45 0 66 22t20 68q0 30-10 46-4 5-9 12t-22 11-36 8q-32 4-87 4 3 41 20 56 13 12 45 12 30 0 60-5l1-13q0-3 1-4t4-2l35-8q6 0 7 5 0 4 1 16t2 21 1 17l1 14q0 6 0 10 0 7-11 8l-40 5q-6 0-6-5m-21-178q6-5 7-13t2-17-2-18-6-14q-10-11-31-11-42 0-56 21-13 19-15 67 86-1 101-15m175-172l-37 3q-4 0-4-6l1-48q0-3 2-3t4-2l80 2q2 0 3 2t1 4l-2 39 4 292 33-3q3 0 4 5l3 44q-1 3-2 4t-4 1l-133-2q-3 0-3-6v-41q0-5 4-5l46 3v-283m167 0l-37 3q-4 0-4-6l1-48q0-3 2-3t4-2l79 2q3 0 4 2t1 4l-2 39 4 292 33-3q3 0 4 5l3 44q-1 3-2 4t-4 1l-133-2q-3 0-3-6v-41q0-5 4-5l46 3v-283m181-46q11-10 28-14t32-5 25 0l0-6q0-5 5-5h38q4 0 5 6l-4 72q0 5-3 5l-37 1q-6 0-6-6l1-26q-10-1-19-1t-17 3-12 9q-10 12-10 35t1 44l72-1q3 0 4 1t1 4l-2 38q-1 4-6 5l-66-2v172l45-1q4 0 4 5l-5 42q0 3-1 4t-5 1l-118-2q-3 0-3-6l2-37q1-4 4-4l25-1 2-172-43 2q-4 0-5-4l-5-38q0-5 5-5l47-1q-3-21-3-46t6-41 18-25m194 46l-37 3q-4 0-4-6l1-48q0-3 2-3t4-2l80 2q2 0 3 2t1 4l-2 39 4 292 33-3q3 0 4 5l3 44q-1 3-2 4t-4 1l-133-2q-3 0-3-6v-41q0-5 4-5l46 3v-283m305 350l1-18q-31 8-79 8-49 0-72-30-23-32-23-100 0-72 20-107 22-39 72-48 17-3 38-3 45 0 66 22t20 68q0 30-10 46-4 5-10 12t-21 11-36 8q-32 4-87 4 3 41 20 56 13 12 45 12 30 0 60-5l1-13q0-3 1-4t4-2l35-8q6 0 6 5 1 4 2 16t1 21 1 17l1 14q1 6 1 10 0 7-11 8l-41 5q-5 0-5-5m-22-178q7-5 8-13t1-17-1-18-7-14q-9-11-31-11-41 0-55 21-13 19-15 67 85-1 100-15m314 178l1-18q-31 8-79 8-49 0-72-30-23-32-23-100 0-72 20-107 22-39 72-48 17-3 38-3 45 0 65 22t21 68q0 30-10 46-4 5-10 12t-21 11-36 8q-32 4-87 4 3 41 20 56 13 12 45 12 30 0 60-5l1-13q0-3 1-4t4-2l35-8q6 0 6 5 1 4 2 16t1 21 1 17l1 14q1 6 1 10 0 7-11 8l-41 5q-5 0-5-5m-22-178q7-5 8-13t1-17-1-18-7-14q-9-11-31-11-41 0-55 21-13 19-15 67 85-1 100-15m258 168l-1-8q-12 1-35 1t-37-5-24-15q-18-20-18-65 0-29 1-55t1-47 2-41l-33-3q-5 0-5-6l0-28q0-6 6-6l34-1q0-12 1-24l2-37q0-13 2-14t4-3l45-5q6 0 6 5 0 8-3 36l-4 41 96-3q5 0 5 6v40q0 5-5 5l-99-4q-4 57-4 100t2 54 6 20q9 11 36 11 8 0 14 0-1-9-1-13t5-5l41-5q5 0 5 6l1 62q0 4-4 5l-36 6q-6-1-6-5" />
</svg>