<svg id="fnt-Whisper" viewBox="0 0 1447 1000" xmlns="http://www.w3.org/2000/svg"><path id="whisper" class="f" d="M72 697q-13 0-13-10 0-3 2-9 16-28 50-56l69-51q18-32 33-62t27-57l14-32q6-12 7-22t2-16q0-20-26-20-24 0-66 18-17 7-31 14t-27 16q-25 16-53 43-34 34-34 54 0 15 26 15h3q4 0 4 3 0 5-12 5-20 0-31-8t-12-21q0-1 0-3t1-3q4-17 38-50 30-28 55-44 76-49 132-49 23 0 37 11t14 30q0 45-63 149 19-14 47-34t67-45q43-54 71-62 6-2 14-2 10 0 10 6 0 8-14 22-2 2-8 6t-13 10-21 13-26 17q-20 22-42 64-23 43-23 75 0 26 14 39t36 14q40 0 95-42t94-99q48-71 48-101 0-20-21-20-8 0-24 4-1 1-3 1-5 0-5-4 0-5 8-8 14-4 23-4 34 0 34 40 0 41-40 102-20 30-46 55t-57 46q-30 20-56 30t-49 9q-26 0-45-14-21-17-21-49 0-34 24-81 6-10 11-19t11-17q-68 41-108 72-20 32-38 55t-32 38q-36 38-61 38m13-22q18 0 41-25 13-14 38-53-7 5-18 13t-23 18q-8 7-13 12t-9 8q-6 7-12 12t-7 10l-1 2q0 3 4 3m422-5q-4 0-2-3 18-34 41-71t53-76q49-66 88-114 2-4 23-11 19-8 26-8t7 5q0 4-8 4-9 0-32 23-17 17-83 99-19 23-34 44t-27 43q120-83 134-83 8 0 16 15-32 32-51 75-7 16-7 23 0 9 9 9 11 0 38-14l38-20q2 0 2 2t-1 6-4 5l-33 21q-23 14-44 18-31-12-31-27 0-1 0-2t1-3q4-10 12-23t19-30q17-26 15-28 0-1-2-1-9 0-46 25-30 22-42 32-34 31-46 55-24 10-29 10m216-3q-5 0-5-3 0-1 1-3 4-7 9-14t11-16q6-8 12-18t14-19q9-13 12-22 0-2 0-4t1-4l1-9q1-4 20-12 13-7 21-7 4 0 3 3-4 12-16 29l-25 34q-4 6-12 15t-16 21q1 0 4-2t9-3 13-5 19-6q7-2 18-6t25-6q3 0 3 3v1q0 2-3 3-70 18-107 46-6 4-12 4m105-194q-3 0-5-5t-3-6q0-4 5-8t10-6 9-3 3 2q0 2-2 5t-3 7q-3 3-5 8t-9 6m33 189q-21 0-32-1t-11-1q-3-3-3-5 0-6 16-6 30 0 66-10 2-1 2-3 0-6-16-23t-15-25q0-29 29-51 38-28 85-28 23 0 23 10 0 9-16 12-2 0-6-1t-8-2q-8-2-14-2-26 0-46 13-25 16-25 42 0 9 12 26 3 6 6 10t5 8q4 6 4 7 4 0 10-1 3-2 5-2 4 0 4 3 0 5-6 7-5 2-7 7t-6 7q-14 9-56 9m20 146q-2 0-2-5 1-30 87-170l12-19q5-8 11-19t15-24q-4 1-5 1-6 0-6-5 0-5 6-8l22-10 36-55q11-17 20-28t15-15q8-6 21-6 7 0 7 2 0 1-2 2-7 5-19 20t-30 40l-22 32q33-14 52-14 40 0 40 32 0 2-1 5t0 5q-2 14-12 29 9-1 22-3t28-5q6-1 6 1 0 6-13 7l-62 16q-20 16-48 27-30 12-53 12-12 0-12-5 0-6 13-12 14-6 29-11t32-11q5-2 12-5t17-4q19-18 19-47 0-17-16-17-21 0-37 6-2 1-4 2t-7 3q-3 2-8 5t-11 6q-27 40-52 78t-50 77q-35 55-40 77-3 13-10 13m298-139q-16 0-27-8t-11-19q0-4 2-12 15-42 76-97l25-9q24-8 26-8 19 3 19 16 0 24-39 47-34 21-60 21-3 0-5 0t-5-1q-5 7-9 13t-7 12q-4 9-4 16 0 16 14 16t43-12q29-11 40-19 4-3 7-3t3 3q-1 3-5 6-8 6-18 11t-21 13q-31 14-44 14m26-80q18 0 38-19 19-19 19-32 0-7-6-7-22-4-65 53 5 5 14 5m63 76q-3 0-3-3l1-3q1-2 3-5t4-5l8-12q1-2 4-5t5-8l16-25q8-12 18-33 0-3 1-8t1-9q1-3 18-10 16-8 22-8 3 0 3 1 0 1-2 4-8 11-18 25t-19 31l33-27q6-5 10-8t5-4q37-25 65-25 3 0 3 7t-3 15-7 8q-1 0-2-1v-1q0-1 0-2t0-3v-1q0-4-2-4-42 0-102 55-5 6-13 16t-17 24l-5 11-13 7q-10 6-14 6" />
</svg>