<svg id="fnt-Wire One" viewBox="0 0 1005 1000" xmlns="http://www.w3.org/2000/svg"><path id="wire-one" class="f" d="M229 323l-52 339q1 3 1 3 0 7-6 7t-7-7q0-2 1-3l-47-310-48 310q1 1 1 3 0 7-6 7t-7-7q0-2 1-3l-52-339q-2-2-2-5 0-6 7-6t6 6q0 3-1 4l48 309 47-309q-1-1-1-4 0-6 7-6t6 6q0 3-1 4l48 309 47-309q-1-1-1-4 0-6 7-6t6 6q0 2-2 5m40 19v15q1 1 1 4 0 6-6 6t-7-6q0-3 2-4v-15q-2-2-2-4 0-7 7-7t6 7q0 2-1 4m0 81v238q1 2 1 4 0 7-6 7t-7-7q0-2 2-4v-238q-2-3-2-5 0-6 7-6t6 6q0 2-1 5m51 51v187q1 2 1 4 0 7-6 7t-7-7q0-2 2-4v-238q-2-3-2-5 0-6 7-6t6 6q0 2-1 5v17q7-11 16-17t25-6h9q2-2 4-2 7 0 7 7t-7 6q-2 0-4-1h-9q-21 0-31 15t-10 32m178-5v57h-93v88q0 12 4 23t13 18 25 7q23 0 32-14t9-29q-1-2-1-4 0-7 6-7t7 7q0 2-2 4-1 13-6 25t-16 20-29 8q-20 0-31-9t-16-22-5-27v-145q0-14 5-27t16-22 31-8 30 8 16 22 5 27m-93 47h83v-47q0-11-3-22t-13-18-25-7q-16 0-25 7t-13 18-4 22v47m315-147v247q0 14-5 27t-16 21-31 8q-20 0-31-8t-16-21-5-27v-247q0-15 5-28t16-21 31-8q20 0 31 8t16 21 5 28m-94 0v247q0 18 9 32t33 14 33-14 9-32v-247q0-12-4-23t-13-17-25-7-25 7-13 17-4 23m237 100v192q2 2 2 4 0 7-7 7t-6-7q0-2 1-4v-192q0-11-3-22t-13-18-25-7q-14 0-24 7t-13 18-5 22v192q2 2 2 4 0 7-7 7t-6-7q0-2 1-4v-238q-1-3-1-5 0-6 6-6t7 6q0 2-2 5v12q13-23 42-23 20 0 31 8t16 22 4 27m140 0v57h-93v88q0 12 3 23t13 18 25 7q24 0 32-14t10-29q-2-2-2-4 0-7 7-7t6 7q0 2-1 4-1 13-6 25t-16 20-30 8q-19 0-31-9t-16-22-4-27v-145q0-14 4-27t16-22 31-8 31 8 16 22 5 27m-93 47h83v-47q0-11-4-22t-12-18-26-7q-15 0-25 7t-13 18-3 22v47" />
</svg>