<svg id="fnt-Wix Madefor Text" viewBox="0 0 4015 1000" xmlns="http://www.w3.org/2000/svg"><path id="wix-madefor-text" class="f" d="M479 309l-102 358h-47l-79-303-79 303h-47l-102-358h43l84 308 80-308h43l81 310 84-310h41m112 19q0 12-8 19t-19 8-20-8-7-19 7-20 20-8 19 8 8 20m-8 93v246h-38v-246h38m163 142l-70 104h-46l92-128-83-118h45l62 96 64-96h44l-83 118 92 128h-46l-71-104m594-194l-120 267h-29l-119-267v298h-39v-358h51l122 277 123-277h50v358h-39v-298m202 306q-26 0-46-10t-31-28-11-40q0-38 28-60t78-22h69v-2q0-31-19-49t-51-18q-43 0-72 35l-25-24q42-44 99-44 32 0 55 12t37 34 13 53v155h-37v-34q-14 19-36 30t-51 12m6-32q29 0 50-15t31-39v-43h-65q-33 0-52 13t-18 36q0 22 14 35t40 13m427 24h-38v-39q-12 21-35 34t-52 13q-35 0-62-17t-42-47-15-67q0-38 15-68t42-46 60-17q29 0 53 14t36 37v-157h38v360m-204-123q0 28 11 50t30 35 43 12q29 0 51-16t31-43v-31q0-31-11-55t-29-37-43-13q-24 0-43 13t-29 34-11 51m476 52l26 25q-19 27-46 40t-57 14q-37 0-66-17t-44-47-15-67 15-68 43-46 62-17q33 0 59 16t40 46 15 67v15h-194q4 37 27 61t60 23q23 0 42-11t33-34m-82-150q-31 0-53 22t-26 58h153q-4-37-24-58t-50-22m233 8v213h-39v-213h-47v-33h47v-54q0-60 57-60h49v32h-39q-15 0-22 7t-6 23v52h67v33h-67m215 221q-36 0-64-17t-44-47-15-67 15-68 44-46 64-17q36 0 64 17t43 46 16 68-16 67-43 47-64 17m0-34q25 0 43-12t29-35 11-50q0-29-11-51t-29-34-43-13q-25 0-43 13t-29 34-11 51q0 28 11 50t29 35 43 12m318-224h8v37h-8q-23 0-43 11t-32 36-12 63v103h-38v-246h38v55q12-32 37-46t50-13m303-72v322h-40v-322h-111v-36h262v36h-111m319 251l26 25q-19 27-46 40t-57 14q-37 0-66-17t-44-47-15-67 15-68 43-46 62-17q33 0 59 16t40 46 15 67v15h-194q4 37 27 61t60 23q23 0 42-11t33-34m-82-150q-31 0-53 22t-26 58h153q-4-37-24-58t-50-22m251 117l-70 104h-46l92-128-83-118h45l62 96 64-96h44l-83 118 92 128h-46l-71-104m292 71v33h-55q-26 0-40-15t-13-40v-158h-47v-33h47v-72h38v72h66v33h-66v154q0 26 24 26h46" />
</svg>