<svg id="fnt-Workbench" viewBox="0 0 2232 1000" xmlns="http://www.w3.org/2000/svg"><path id="workbench" class="f" d="M13 660h37q11 0 18-8t7-17-7-17-18-7h-37q-11 0-18 7t-7 17 7 17 18 8m156 0h37q11 0 18-8t7-17-7-17-18-7h-37q-11 0-18 7t-7 17 7 17 18 8m-156-63h68q11 0 18-7t7-17-7-17-18-8h-68q-11 0-18 8t-7 17 7 17 18 7m125 0h68q11 0 18-7t7-17-7-17-18-8h-68q-11 0-18 8t-7 17 7 17 18 7m-121-62h185q13 0 21-8t8-17-8-17-21-7h-185q-14 0-21 7t-8 17 8 17 21 8m-4-63h37q11 0 18-7t7-17-7-17-18-8h-37q-11 0-18 8t-7 17 7 17 18 7m88 0h17q8 0 14-7t5-17-5-17-14-8h-17q-8 0-14 8t-5 17 5 17 14 7m68 0h37q11 0 18-7t7-17-7-17-18-8h-37q-11 0-18 8t-7 17 7 17 18 7m-156-62h37q11 0 18-8t7-17-7-17-18-7h-37q-11 0-18 7t-7 17 7 17 18 8m156 0h37q11 0 18-8t7-17-7-17-18-7h-37q-11 0-18 7t-7 17 7 17 18 8m-156-63h37q11 0 18-7t7-17-7-17-18-8h-37q-11 0-18 8t-7 17 7 17 18 7m156 0h37q11 0 18-7t7-17-7-17-18-8h-37q-11 0-18 8t-7 17 7 17 18 7m-156-62h37q11 0 18-8t7-17-7-17-18-7h-37q-11 0-18 7t-7 17 7 17 18 8m156 0h37q11 0 18-8t7-17-7-17-18-7h-37q-11 0-18 7t-7 17 7 17 18 8m161 375h90q14 0 22-8t8-17-8-17-22-7h-90q-14 0-22 7t-8 17 8 17 22 8m-36-63h37q11 0 18-7t7-17-7-17-18-8h-37q-11 0-18 8t-7 17 7 17 18 7m125 0h37q11 0 18-7t7-17-7-17-18-8h-37q-11 0-18 8t-7 17 7 17 18 7m-125-62h37q11 0 18-8t7-17-7-17-18-7h-37q-11 0-18 7t-7 17 7 17 18 8m125 0h37q11 0 18-8t7-17-7-17-18-7h-37q-11 0-18 7t-7 17 7 17 18 8m-125-63h37q11 0 18-7t7-17-7-17-18-8h-37q-11 0-18 8t-7 17 7 17 18 7m125 0h37q11 0 18-7t7-17-7-17-18-8h-37q-11 0-18 8t-7 17 7 17 18 7m-89-62h90q14 0 22-8t8-17-8-17-22-7h-90q-14 0-22 7t-8 17 8 17 22 8m187 250h91q14 0 21-8t8-17-8-17-21-7h-91q-14 0-21 7t-8 17 8 17 21 8m27-63h37q11 0 18-7t7-17-7-17-18-8h-37q-11 0-18 8t-7 17 7 17 18 7m0-62h37q11 0 18-8t7-17-7-17-18-7h-37q-11 0-18 7t-7 17 7 17 18 8m125 0h37q11 0 18-8t7-17-7-17-18-7h-37q-11 0-18 7t-7 17 7 17 18 8m-125-63h68q11 0 18-7t7-17-7-17-18-8h-68q-11 0-18 8t-7 17 7 17 18 7m125 0h37q11 0 18-7t7-17-7-17-18-8h-37q-11 0-18 8t-7 17 7 17 18 7m-156-62h68q11 0 18-8t7-17-7-17-18-7h-68q-11 0-18 7t-7 17 7 17 18 8m125 0h37q11 0 18-8t7-17-7-17-18-7h-37q-11 0-18 7t-7 17 7 17 18 8m125 250h68q11 0 18-8t7-17-7-17-18-7h-68q-11 0-18 7t-7 17 7 17 18 8m156 0h37q11 0 18-8t7-17-7-17-18-7h-37q-11 0-18 7t-7 17 7 17 18 8m-125-63h37q11 0 18-7t7-17-7-17-18-8h-37q-11 0-18 8t-7 17 7 17 18 7m94 0h37q11 0 18-7t7-17-7-17-18-8h-37q-11 0-18 8t-7 17 7 17 18 7m-90-62h91q14 0 22-8t7-17-7-17-22-7h-91q-13 0-21 7t-8 17 8 17 21 8m-4-63h37q11 0 18-7t7-17-7-17-18-8h-37q-11 0-18 8t-7 17 7 17 18 7m94 0h37q11 0 18-7t7-17-7-17-18-8h-37q-11 0-18 8t-7 17 7 17 18 7m-94-62h37q11 0 18-8t7-17-7-17-18-7h-37q-11 0-18 7t-7 17 7 17 18 8m125 0h37q11 0 18-8t7-17-7-17-18-7h-37q-11 0-18 7t-7 17 7 17 18 8m-125-63h37q11 0 18-7t7-17-7-17-18-8h-37q-11 0-18 8t-7 17 7 17 18 7m-31-62h68q11 0 18-8t7-17-7-17-18-7h-68q-11 0-18 7t-7 17 7 17 18 8m317 375h90q14 0 22-8t8-17-8-17-22-7h-90q-14 0-22 7t-8 17 8 17 22 8m-36-63h37q11 0 18-7t7-17-7-17-18-8h-37q-11 0-18 8t-7 17 7 17 18 7m125 0h37q11 0 18-7t7-17-7-17-18-8h-37q-11 0-18 8t-7 17 7 17 18 7m-125-62h37q11 0 18-8t7-17-7-17-18-7h-37q-11 0-18 7t-7 17 7 17 18 8m125 0h37q11 0 18-8t7-17-7-17-18-7h-37q-11 0-18 7t-7 17 7 17 18 8m-125-63h68q11 0 18-7t7-17-7-17-18-8h-68q-11 0-18 8t-7 17 7 17 18 7m125 0h37q11 0 18-7t7-17-7-17-18-8h-37q-11 0-18 8t-7 17 7 17 18 7m-125-62h37q11 0 18-8t7-17-7-17-18-7h-37q-11 0-18 7t-7 17 7 17 18 8m94 0h37q11 0 18-8t7-17-7-17-18-7h-37q-11 0-18 7t-7 17 7 17 18 8m-94-63h37q11 0 18-7t7-17-7-17-18-8h-37q-11 0-18 8t-7 17 7 17 18 7m-31-62h68q11 0 18-8t7-17-7-17-18-7h-68q-11 0-18 7t-7 17 7 17 18 8m317 375h90q14 0 22-8t8-17-8-17-22-7h-90q-14 0-22 7t-8 17 8 17 22 8m-36-63h37q11 0 18-7t7-17-7-17-18-8h-37q-11 0-18 8t-7 17 7 17 18 7m4-62h154q13 0 21-8t8-17-8-17-21-7h-154q-13 0-21 7t-8 17 8 17 21 8m-4-63h37q11 0 18-7t7-17-7-17-18-8h-37q-11 0-18 8t-7 17 7 17 18 7m125 0h37q11 0 18-7t7-17-7-17-18-8h-37q-11 0-18 8t-7 17 7 17 18 7m-89-62h90q14 0 22-8t8-17-8-17-22-7h-90q-14 0-22 7t-8 17 8 17 22 8m214 250h37q11 0 18-8t7-17-7-17-18-7h-37q-11 0-18 7t-7 17 7 17 18 8m125 0h37q11 0 18-8t7-17-7-17-18-7h-37q-11 0-18 7t-7 17 7 17 18 8m-125-63h37q11 0 18-7t7-17-7-17-18-8h-37q-11 0-18 8t-7 17 7 17 18 7m125 0h37q11 0 18-7t7-17-7-17-18-8h-37q-11 0-18 8t-7 17 7 17 18 7m-125-62h37q11 0 18-8t7-17-7-17-18-7h-37q-11 0-18 7t-7 17 7 17 18 8m125 0h37q11 0 18-8t7-17-7-17-18-7h-37q-11 0-18 7t-7 17 7 17 18 8m-125-63h37q11 0 18-7t7-17-7-17-18-8h-37q-11 0-18 8t-7 17 7 17 18 7m125 0h37q11 0 18-7t7-17-7-17-18-8h-37q-11 0-18 8t-7 17 7 17 18 7m-121-62h122q14 0 22-8t8-17-8-17-22-7h-122q-13 0-21 7t-8 17 8 17 21 8m282 250h90q14 0 22-8t8-17-8-17-22-7h-90q-14 0-22 7t-8 17 8 17 22 8m-36-63h37q11 0 18-7t7-17-7-17-18-8h-37q-11 0-18 8t-7 17 7 17 18 7m125 0h37q11 0 18-7t7-17-7-17-18-8h-37q-11 0-18 8t-7 17 7 17 18 7m-125-62h37q11 0 18-8t7-17-7-17-18-7h-37q-11 0-18 7t-7 17 7 17 18 8m0-63h37q11 0 18-7t7-17-7-17-18-8h-37q-11 0-18 8t-7 17 7 17 18 7m125 0h37q11 0 18-7t7-17-7-17-18-8h-37q-11 0-18 8t-7 17 7 17 18 7m-89-62h90q14 0 22-8t8-17-8-17-22-7h-90q-14 0-22 7t-8 17 8 17 22 8m183 250h68q11 0 18-8t7-17-7-17-18-7h-68q-11 0-18 7t-7 17 7 17 18 8m156 0h37q11 0 18-8t7-17-7-17-18-7h-37q-11 0-18 7t-7 17 7 17 18 8m-125-63h37q11 0 18-7t7-17-7-17-18-8h-37q-11 0-18 8t-7 17 7 17 18 7m125 0h37q11 0 18-7t7-17-7-17-18-8h-37q-11 0-18 8t-7 17 7 17 18 7m-125-62h37q11 0 18-8t7-17-7-17-18-7h-37q-11 0-18 7t-7 17 7 17 18 8m125 0h37q11 0 18-8t7-17-7-17-18-7h-37q-11 0-18 7t-7 17 7 17 18 8m-125-63h68q11 0 18-7t7-17-7-17-18-8h-68q-11 0-18 8t-7 17 7 17 18 7m125 0h37q11 0 18-7t7-17-7-17-18-8h-37q-11 0-18 8t-7 17 7 17 18 7m-125-62h37q11 0 18-8t7-17-7-17-18-7h-37q-11 0-18 7t-7 17 7 17 18 8m94 0h37q11 0 18-8t7-17-7-17-18-7h-37q-11 0-18 7t-7 17 7 17 18 8m-94-63h37q11 0 18-7t7-17-7-17-18-8h-37q-11 0-18 8t-7 17 7 17 18 7m-31-62h68q11 0 18-8t7-17-7-17-18-7h-68q-11 0-18 7t-7 17 7 17 18 8" />
</svg>