<svg id="fnt-M PLUS Rounded 1c" viewBox="0 0 4480 1000" xmlns="http://www.w3.org/2000/svg"><path id="m-plus-rounded-1c" class="f" d="M75 661q-5 6-13 6t-14-6-5-14v-325q0-8 5-14t15-6q20 0 30 18l110 201q0 1 1 1 0 0 0-1l110-201q9-18 31-18 8 0 14 6t7 15v324q0 8-6 14t-14 6-15-6-5-14v-278q0 0-1 0t0 0l-94 173q-9 16-27 16t-28-16l-94-173q0 0 0 0t-1 0v278q0 8-6 14m551-323v147q0 4 4 5 24 4 54 4 50 0 76-22t26-61-26-61-76-21q-27 0-54 4-4 1-4 5m-6 323q-6 6-14 6t-15-6-5-14v-314q0-12 8-22t20-10q38-4 73-4 68 0 103 28t36 83q0 58-36 88t-103 30q-27 0-57-3-4 0-4 4v120q0 8-6 14m467 6h-173q-11 0-20-9t-8-20v-315q0-9 6-15t15-6 14 6 7 15v305q0 5 4 5h155q7 0 12 5t5 12-5 12-12 5m280-28q-32 33-94 33t-94-33-32-97v-220q0-8 6-14t14-6q8 0 14 6t6 14v221q0 49 21 72t66 23 65-23 22-72v-222q0-8 5-14t14-5 14 5 6 14v221q0 64-33 97m199-144q-104-35-104-109 0-42 27-66t76-23q45 0 83 13 8 3 13 10t5 17q0 6-5 9t-12 1q-40-18-81-18-30 0-49 14t-18 43q0 49 66 71 62 20 87 47t25 68q0 49-30 74t-86 26q-43 0-78-16-17-8-17-28 0-6 5-9t11 0q34 19 76 19 79 0 79-66 0-27-17-45t-56-32m360-157v133q0 5 5 5h35q60 0 88-20t28-57q0-70-106-70-22 0-45 4-5 1-5 5m-6 323q-5 6-14 6t-14-6-6-14v-314q0-13 8-22t20-11q30-3 66-3 70 0 105 25t36 74q0 38-20 63t-58 35q0 0 0 1 0 0 0 0 22 13 44 65l36 88q3 6-1 12t-12 7q-9 0-17-6t-11-14l-35-86q-15-36-29-45t-52-8h-35q-5 0-5 4v135q0 8-6 14m436-124q0-105-80-105t-80 105 80 105 80-105m7 99q-31 36-87 36t-88-36-31-99 31-100 88-35 87 35 32 100-32 99m171 36q-44 0-64-24t-20-80v-142q0-8 5-14t13-5 14 5 5 14v137q0 45 14 62t43 17q27 0 51-24t24-50v-142q0-8 5-14t14-5 14 5 5 14v223q0 7-5 12t-13 6-13-6-5-12v-21q0 0-1 0t-1 0q-34 44-85 44m231-11q-6 6-14 6t-13-6-6-13v-223q0-8 5-13t13-5 13 5 6 13v20q0 1 0 1t1-1q36-43 86-43 45 0 66 25t20 85v136q0 8-5 13t-13 6-14-6-5-13v-131q0-50-14-68t-45-17q-26 0-51 24t-24 50v142q0 8-6 13m348-229q-75 0-75 105 0 52 19 78t56 27q29 0 52-21t23-46v-77q0-25-23-46t-52-20m-8 240q-47 0-76-37t-29-98q0-65 28-100t77-35q49 0 81 38 1 1 1 1t1-1v-129q0-8 5-14t14-5 14 5 5 14v338q0 7-5 12t-13 6-13-6-5-12v-19q0 0-1 0t-1 0q-33 42-83 42m296-241q-69 0-76 82 0 4 5 4h134q4 0 4-4-3-82-67-82m11 241q-62 0-94-34t-32-101q0-70 31-103t84-32q99 0 105 116 0 12-9 20t-20 9h-148q-4 0-4 4 4 92 90 92 29 0 59-11 5-2 10 1t5 10q0 17-15 21-32 8-62 8m257-240q-75 0-75 105 0 52 19 78t56 27q29 0 52-21t23-46v-77q0-25-23-46t-52-20m-8 240q-47 0-76-37t-29-98q0-65 28-100t77-35q49 0 81 38 1 1 1 1t1-1v-129q0-8 5-14t14-5 14 5 5 14v338q0 7-5 12t-13 6-13-6-5-12v-19q0 0-1 0t-1 0q-33 42-83 42m453-325l-85 68q-5 4-11 1t-6-9q0-22 17-36l71-57q16-12 36-12 8 0 14 6t6 14v325q0 8-6 14t-14 6-15-6-5-14v-300q0-1-1-1l-1 1m296 325q-59 0-91-35t-32-100q0-66 31-101t87-34q26 0 55 5 7 2 11 7t5 14q0 6-5 9t-11 2q-26-6-53-6-80 0-80 104 0 54 21 79t64 25q28 0 51-8 6-2 11 2t5 9q0 8-5 14t-12 8q-23 6-52 6" />
</svg>