<svg id="fnt-M PLUS 1p" viewBox="0 0 2484 1000" xmlns="http://www.w3.org/2000/svg"><path id="m-plus-1p" class="f" d="M81 667h-38v-365h40l130 220h1l130-220h42v365h-40v-298h-1l-113 189h-37l-113-189h-1v298m535 0v-362q52-8 102-8 68 0 103 28t35 83q0 58-35 88t-103 30q-33 0-62-3v144h-40m40-333v156q29 4 59 4 49 0 75-22t27-61-26-61-76-21q-28 0-59 5m260-32h42v331h178v34h-220v-365m303 223q0 113 94 113t93-113v-223h39v221q0 73-34 111t-99 38-99-38-34-111v-221h40v223m402-196q-34 0-53 15t-19 43q0 48 71 70 62 18 88 45t26 70q0 48-30 74t-86 26q-62 0-110-32l12-33q43 31 98 31 37 0 56-17t20-49q0-30-17-48t-58-31q-110-32-110-106 0-41 30-66t82-24q57 0 105 23l-10 31q-43-22-95-22m484 338h-40v-317h-1l-99 91-15-33 115-106h40v365m273 5q-56 0-84-46h-1v151h-36v-370h35l0 44h1q28-49 85-49 49 0 77 34t28 101q0 64-29 99t-76 36m69-135q0-51-20-78t-57-27q-34 0-56 27t-21 74v7q0 49 22 75t55 27q36 0 56-28t21-77" />
</svg>