<svg id="fnt-M PLUS 1 Code" viewBox="0 0 3224 1000" xmlns="http://www.w3.org/2000/svg"><path id="m-plus-1-code" class="f" d="M59 667h-39v-365h68l36 250h2l36-250h68v365h-39v-313h-2l-36 243h-55l-37-243h-2v313m479 0v-364q22-4 38-5t31-1q46 0 73 12t40 39 13 71q0 44-13 71t-40 39-73 13q-14 0-26-1t-27-3l13-36q12 2 22 3t22 1q30 0 47-9t26-27 8-51q0-32-8-51t-26-27-47-8q-12 0-23 1t-22 3l13-14v344h-41m437 0h-185v-365h41v329h144v36m150 5q-50 0-74-25t-23-78v-267h40v263q0 38 13 54t44 17q31 0 44-17t14-54v-263h40v267q0 53-24 78t-74 25m237 0q-19 0-39-4t-38-9v-39q19 8 37 12t37 4q34 0 52-14t19-45q0-16-6-29t-21-24-41-27q-33-18-52-34t-26-35-8-41q0-47 27-69t86-21q18 0 35 2t38 6v107h-40v-91l16 18q-14-3-26-5t-24-1q-36 0-53 13t-18 41q0 16 6 28t22 25 41 27q32 18 51 34t26 35 8 42q0 47-27 70t-82 24m566-5h-41v-317h-1l-118 95v-47l119-96h41v365m477 5q-65 0-98-44t-33-129v-30q0-85 32-129t94-43q18 0 34 3t30 10v122h-40v-116l20 31q-19-14-45-14-41 0-63 35t-21 104v25q0 71 23 105t71 34q14 0 28-3t27-6v37q-13 4-29 6t-30 2m220 0q-51 0-76-31t-24-94v-20q0-65 24-95t76-30q52 0 76 30t24 95v20q0 64-24 94t-76 31m0-35q33 0 46-22t14-71v-15q0-49-14-71t-46-21q-32 0-46 21t-14 71v15q0 50 14 71t46 22m257 35q-39 0-63-14t-34-45-11-81q0-48 9-77t30-41 54-12q22 0 41 4t37 14l-13 33q-15-8-31-12t-31-4q-21 0-34 8t-18 30-5 57q0 39 6 62t20 33 39 10q33 0 56-15l-9 22v-342h39v354q-15 7-36 11t-46 5m261 0q-58 0-87-31t-28-94v-20q0-65 23-95t74-30q51 0 74 30t24 95v27h-176v-33h146l-9 12v-5q0-49-14-71t-45-21-45 21-13 71v17q0 35 7 55t25 29 47 9q15 0 30-2t33-7v35q-15 3-33 5t-33 3" />
</svg>