<svg id="fnt-Ma Shan Zheng" viewBox="0 0 2436 1000" xmlns="http://www.w3.org/2000/svg"><path id="ma-shan-zheng" class="f" d="M355 476q3 0 3 5t-1 11q-8 95-47 139-13 15-43 16-36-13-36-64 0-9 2-23t34-193q-44 89-57 217-1 15-2 22-2 16-14 16-15 0-33-23-6-8-6-20t1-27 3-32 3-28 4-32 5-28 6-31 5-29q-7 8-13 23t-9 24-7 22-6 23-6 23-5 20q-3 13-11 49t-11 44-3 15-2 8-3 7q-4 7-13 7t-15-7-8-11-5-13-3-14 3-17 7-31 5-24 5-22 6-24 4-23 5-24 4-22 4-24q5-33 6-46v-4q0-9-4-9t-13 14-13 22-5 20q-7 70-36 113-3 5-11 5t-16-8-8-16q0-51 35-118 13-26 22-76 13 20 16 27t8 6q2 0 9-6t20-6 23 7 10 16 4 27q3-2 10-9 16-14 28-14t22 13 9 27q6-7 22-34 12-18 31-18 31 0 31 28 0 13-12 72t-17 97-6 73v9q17-14 32-35t24-34 23-41q5-7 6-7m121 95q-41 73-62 73-16 0-28-19-4-5-8-16t-10-19-5-25 6-27q41-81 86-111 6-4 14-4t20 9q7 7 9 12 2 11 2 13 18 6 18 22 0 11-6 50t-7 58q0 10 7 10 8 0 28-28t24-28q5 0 5 17l-1 24q0 14-12 38t-32 25q-12 0-19-8-3-3-8-10-15-23-21-56m5-116q-63 58-80 132 50-44 80-132m387-163q22 26 22 31t-5 11q-24 26-55 53-7 6-11 6-5 0-5-8t7-20 7-15-2-2-5 1q-57 20-80 64-5 10-5 17 0 13 20 24 3 2 27 15 49 26 61 42 20 25 20 49 0 9-5 19t-13 16q-85 52-151 52-35 0-35-32 0-10 7-20-12-8-12-18t14-20q32-24 103-24 7 0 18 5t17 12q12-7 12-13t-6-11q-10-7-36-18t-32-16q-21-12-33-34t-11-48 13-46 36-36q35-24 87-43 7-2 11-2 12 0 20 9m-95 277q-5-1-12-1t-25 6-19 13q0 3 4 3 13 0 52-21m274-2q0 39-14 60-11 14-19 14t-16-8q-28-32-28-78 0-15 3-31 6-27 6-35t-1-8q-3 0-39 137-5 14-10 14-13 0-32-46-10-22-10-53 0-35 4-59t6-30 3-19 4-16q6-25 8-36-12 0-12-7 0-4 3-8 27-43 39-77 2-8 8-8 8 0 12 15t4 27q0 29-19 47-23 139-23 146t2 7 7-9 17-36 19-38q11-19 28-19 27 0 27 51 0 41-19 103 0 2 0 4 0 6 5 6t18-15 16-14 3 19m122 4q-41 73-62 73-16 0-28-19-4-5-8-16t-10-19-5-25 6-27q41-81 86-111 6-4 14-4t20 9q7 7 9 12 2 11 2 13 18 6 18 22 0 11-6 50t-7 58q0 10 7 10 8 0 28-28t24-28q5 0 5 17l-1 24q0 14-12 38t-32 25q-12 0-19-8-3-3-8-10-15-23-21-56m5-116q-63 58-80 132 50-44 80-132m261 71q0 24-2 42t-18 48-31 31q-6 0-12-7-30-36-30-68 0-9 7-43 9-51 9-57t-2-6-4 4q-13 23-21 52t-10 50-6 56q0 12-6 12-3 0-10-5-27-23-27-63 0-17 3-47t4-42q5-69 13-69 5 0 7 9t2 22 0 23 4 10 9-16 16-33 23-16 22 6q22 11 22 46 0 12-3 29t-6 38-2 24 2 3q4 0 20-20t23-20q4 0 4 7m247-225l15 0q52 0 69 43 3 9 3 17 0 24-21 45t-60 56-55 49q-38 36-38 59 0 14 19 14 37 0 118-14l4 0q7 0 7 6t-3 15q-13 43-98 43-29 0-47-7t-29-30q-6-13-6-28 0-29 25-58t71-79 59-64 13-19q0-8-36-8-18 0-53 3-29 17-74 17-12 0-18-4t-6-18 4-23 19-16 49-18 41-12 9 3 6 13l4 8q3 7 9 7m242 266q0 39-14 60-11 14-19 14t-16-8q-28-32-28-78 0-15 3-31 6-27 6-35t-1-8q-3 0-39 137-5 14-10 14-13 0-32-46-10-22-10-53 0-35 4-59t6-30 3-19 4-16q6-25 8-36-12 0-12-7 0-4 3-8 27-43 39-77 2-8 8-8 8 0 12 15t4 27q0 29-19 47-23 139-23 146t2 7 7-9 17-36 19-38q11-19 28-19 27 0 27 51 0 41-19 103 0 2 0 4 0 6 5 6t18-15 16-14 3 19m162 4q0 76-77 76-32 0-47-17t-25-50q-4-13-4-28t13-40 29-43q2-27 13-27 5 0 7 6 11-9 26-18t27-9 24 14 13 28-20 41q-39 48-61 48-16 0-25-27 0 1-5 8t-6 11-4 10q-5 11-5 20 0 21 20 21 34 0 58-15t47-43q2 22 2 34m-81-61q8 0 23-19t16-27-5-7-18 13-20 22q-1 6-1 9 0 9 5 9m267 16q0 24-3 42t-18 48-30 31q-7 0-13-7-29-36-29-68 0-9 6-43 9-51 9-57t-2-6-3 4q-13 23-21 52t-11 50-5 56q0 12-7 12-3 0-10-5-27-23-27-63 0-17 3-47t4-42q6-69 14-69 4 0 6 9t2 22 1 23 4 10 8-16 16-33 24-16 22 6q21 11 21 46 0 12-3 29t-5 38-2 24 2 3q4 0 20-20t22-20q5 0 5 7m67 188l1-6q0-4 3-5t5-3 5-3q7-5 11-5t8 1 5 2q5 0 5-21 3-48 10-114-15 23-38 48t-38 26-23-12q-16-24-16-54 0-45 47-98 17-18 25-26t26-24 31-16 22 10 7 22-6 35q4 3 4 7t-1 10q-22 141-25 185t-3 70l1 26q0 7-4 11t-9 4-18-10-24-9l-12 1q-6 0-6-6l7-46m59-238q3-6 3-11t-4-6q-2 0-4 1-29 15-52 39t-33 53q-2 6-2 11 0 10 7 10 4 0 9-3 23-16 44-41t32-53" />
</svg>