<svg id="fnt-Madimi One" viewBox="0 0 2618 1000" xmlns="http://www.w3.org/2000/svg"><path id="madimi-one" class="f" d="M106 427v210q0 34-35 34-17 0-27-9t-10-25v-206q0-59 25-90t75-30q36 0 60 15t32 43q8-28 32-43t62-15q51 0 75 29t25 91v201q0 21-8 30t-27 9-28-10-9-29v-205q0-50-43-50-21 0-32 14t-10 46v190q0 21-8 30t-27 9-28-10-9-29v-190q0-60-43-60t-42 50m467 244q-50 0-78-24t-28-60q0-43 37-63t108-13q-4-23-15-32t-26-8q-13 0-21 1t-15 3-17 2q-14 0-22-5t-8-19q0-21 18-31t56-9q61 0 91 34t29 93q0 67-24 99t-85 32m-34-84q0 29 39 29 12 0 19-5t10-18 5-40q-2 2-6 3t-8 1q-33 0-46 6t-13 24m297 84q-55 0-87-35t-32-103q0-45 13-71t36-38 53-11q27 0 43 6t26 22q-3-10-5-20t-3-21 0-32v-43q0-39 33-39 37 0 37 39v211q0 68-30 101t-84 34m-4-60q21 0 33-15t12-56q0-28-6-42t-15-20-24-5-24 5-15 20-5 42q0 41 11 56t33 15m215-241q-18 0-31-12t-12-30q0-18 12-30t31-12q19 0 31 12t13 30q0 18-13 30t-31 12m36 77v190q0 34-35 34-17 0-27-9t-10-25v-190q0-16 8-25t28-9 28 9 8 25m98 224q-36 0-36-34v-120q0-51 24-78t70-26q62 0 84 44 22-44 84-44 46 0 70 26t24 78v120q0 34-36 34t-36-34v-116q0-26-8-37t-27-11q-36 0-36 48v114q0 34-35 34t-35-34v-114q0-48-36-48-35 0-35 48v116q0 34-36 34m418-301q-18 0-31-12t-12-30q0-18 12-30t31-12q19 0 31 12t13 30q0 18-13 30t-31 12m36 77v190q0 34-35 34-17 0-27-9t-10-25v-190q0-16 8-25t28-9 28 9 8 25m301 224q-44 0-74-18t-47-56-15-107 15-107 47-55 74-17q44 0 74 17t46 55 16 107-16 107-46 56-74 18m0-66q20 0 34-10t22-34 8-71q0-47-8-71t-22-33-34-9q-20 0-34 9t-23 33-7 71q0 46 7 71t23 34 34 10m226 66q-36 0-36-34v-120q0-48 31-76t81-28 81 28 31 76v120q0 34-36 34t-36-34v-116q0-24-10-36t-30-12-29 12-11 36v116q0 34-36 34m366 0q-50 0-78-17t-40-45-12-67q0-69 31-99t82-30q31 0 55 10t37 30 14 47q0 80-114 80h-29q4 15 13 24t33 9q13 0 21-2t15-3 17-1q13 0 21 4t8 20q0 20-18 30t-56 10m-58-128q4-6 9-8t16-1q29 0 40-6t12-21q0-19-11-29t-26-10q-19 0-29 15t-11 60" />
</svg>