<svg id="fnt-Magra" viewBox="0 0 1257 1000" xmlns="http://www.w3.org/2000/svg"><path id="magra" class="f" d="M250 317h70l19 350h-47l-12-247 3-60h-3l-67 287-58 5-77-292h-4l6 59-8 248h-41l13-350h70l60 235 11 55h2l9-54 54-236m272 195v-28q0-46-41-46-27 0-72 14l-16-31q43-23 93-23 61 0 74 36 7 19 7 49v107q0 36 21 57l-27 26q-9-6-18-17t-13-21h-1q-28 38-76 38-72 0-72-75 0-66 93-79l48-7m-93 92q0 29 36 29t57-25v-61q-63 8-77 20-16 12-16 37m300-206q8 0 14 1t29 1q70 3 76 3l-5 29-35 4q13 21 13 50 0 43-26 68t-74 25q-8 0-20-1-10 8-13 11t-3 8q0 15 32 18l37 3q40 3 63 16t23 46-19 51q-34 36-102 36-103 0-103-62 0-25 31-51 4-3 5-5t5-3 4-2q-20-12-20-33 0-13 7-22t24-20q-43-20-43-76 0-44 26-70t74-25m-69 296q0 19 18 28t48 9 50-9 21-28q0-16-10-22-5-3-9-6t-14-3q-18-3-38-4t-36-5q-20 15-25 23t-5 17m62-260q-25 0-36 13t-11 42q0 55 53 55 26 0 36-14t11-42q0-54-53-54m277-36q13 0 19 2t12 4 5 2l-8 45q-15-5-36-5t-37 17-17 43v161h-45v-191l-4-69 37-5 5 50h2q9-24 26-39t41-15m191 114v-28q0-46-41-46-27 0-72 14l-16-31q43-23 93-23 61 0 74 36 7 19 7 49v107q0 36 21 57l-27 26q-9-6-18-17t-13-21h-1q-28 38-76 38-72 0-72-75 0-66 93-79l48-7m-93 92q0 29 36 29t57-25v-61q-63 8-77 20-16 12-16 37" />
</svg>