<svg id="fnt-Maitree" viewBox="0 0 1811 1000" xmlns="http://www.w3.org/2000/svg"><path id="maitree" class="f" d="M22 667q-8 0-8-11 0-6 5-10t13-4h16l59-296-16-2q-19-3-19-16 0-9 7-9h88l80 265q4 13 7 30t3 23h3q1-5 3-23t7-30l75-265h88q7 0 7 9 0 13-19 16l-16 2 64 296 22 5q13 3 13 12 0 8-5 8h-102q-4 0-6-3t-2-8q0-6 5-10t13-4h22l-56-262q-2-8-3-19t-1-13h-3q0 3-3 12t-4 20l-81 287h-47l-87-287q-2-8-5-19t-2-13h-3q0 3-1 13t-3 19l-51 262 28 6q14 2 14 12 0 7-5 7h-94m588 6q-32 0-54-18t-23-51q0-35 25-52t66-23l71-11v-22q0-24-15-39t-42-15q-16 0-35 5t-32 14l-4 22q-2 14-13 14-3 0-5-2t-2-4v-46q20-12 46-20t50-8q39 0 64 21t25 59v147l19 5q7 2 10 4t3 8q0 6-5 6h-63v-35h-2q-14 18-35 29t-49 12m11-26q19 0 36-9t27-23 11-33v-40l-62 10q-30 5-46 16t-16 34 14 34 36 11m227-265q-12 0-20-8t-7-19 7-20 20-7 19 7 8 20-8 19-19 8m-43 285q-8 0-8-10 0-7 4-10t13-4h16v-197h-25q-8 0-8-10 0-7 4-11t13-3h54v221l23 6q7 1 10 4t4 8q0 6-6 6h-94m225 6q-27 0-45-17t-18-45v-162h-34q-4 0-7-3t-2-8q0-7 5-11t13-4h25l7-53h30v53h76q6 0 6 6t-5 9-15 4l-62 7v164q0 17 9 26t24 9q10 0 18-3t16-10q6-5 9-5 5 0 8 2t3 8q0 10-15 20-19 13-46 13m106-6q-8 0-8-10 0-7 5-10t13-4h15v-197h-25q-8 0-8-10 0-7 5-11t13-3h51v50h1q19-23 42-39t42-16q11 0 16 5t6 15q0 5-2 9t-5 8q-52 0-98 45v144l24 6q7 1 10 4t3 8q0 6-6 6h-94m314 6q-35 0-62-16t-42-43-15-67q0-60 31-95t84-35q49 0 77 29t28 76q0 15-7 31h-175q0 46 23 71t60 24q19 0 34-5t30-15q1 0 4-2t7-2q4 0 7 3t3 9q0 9-15 18-31 19-72 19m-81-145h142q2-4 2-14 0-34-19-53t-49-19q-32 0-53 23t-23 63m341 145q-36 0-63-16t-42-43-15-67q0-60 31-95t85-35q48 0 76 29t28 76q0 15-6 31h-176q0 46 24 71t59 24q19 0 34-5t31-15q1 0 4-2t6-2q5 0 8 3t3 9q0 9-16 18-31 19-71 19m-82-145h142q2-4 2-14 0-34-18-53t-49-19q-32 0-53 23t-24 63" />
</svg>