<svg id="fnt-Major Mono Display" viewBox="0 0 6621 1000" xmlns="http://www.w3.org/2000/svg"><path id="major-mono-display" class="f" d="M45 666v-348h20l121 215 121-215h19v348h-281m18-313v295h244v-292l-112 198h-18l-114-201m340 314l143-348h19l143 348h-20l-47-115h-171l-48 115h-19m152-324l-78 191h157l-79-191m364 331q-35 0-66-16t-50-45-23-63h19q3 30 20 54t43 38 57 14q34 0 62-17t44-45 17-65v-192h-156v-18h174v210q0 41-19 74t-51 52-71 19m376-363q39 0 72 19t52 53 20 72v76q0 39-20 72t-52 52-72 19-72-19-52-52-19-72v-76q0-39 19-72t52-53 72-19m-125 220q0 34 17 62t45 46 63 17 63-17 45-46 17-62v-76q0-34-17-63t-45-46-63-16-63 16-45 46-17 63v76m571-201q30 14 47 42t17 61q0 39-24 69t-60 41l88 124h-22l-85-120-16 0h-126v120h-18v-348h132q22 0 38 2t29 9m-181 199h131q26 0 48-13t35-35 13-48q0-29-16-53t-42-35q-19-8-55-8h-114v192m705 137v-348h20l121 215 121-215h19v348h-281m18-313v295h244v-292l-112 198h-18l-114-201m492-42q39 0 72 19t52 53 20 72v76q0 39-20 72t-52 52-72 19-72-19-52-52-19-72v-76q0-39 19-72t52-53 72-19m-125 220q0 34 17 62t45 46 63 17 63-17 45-46 17-62v-76q0-34-17-63t-45-46-63-16-63 16-45 46-17 63v76m378 136h-19v-348h20l243 236v-236h18v348h-18v-86l-244-238v324m487-356q39 0 72 19t52 53 20 72v76q0 39-20 72t-52 52-72 19-72-19-52-52-19-72v-76q0-39 19-72t52-53 72-19m-125 220q0 34 17 62t45 46 63 17 63-17 45-46 17-62v-76q0-34-17-63t-45-46-63-16-63 16-45 46-17 63v76m870 136h-130v-348h130q38 0 70 19t51 51 19 70v67q0 38-19 70t-51 52-70 19m253-348h225v18h-104v311h104v19h-225v-19h103v-311h-103v-18m490 181q-43-8-70-19t-42-28-15-45q0-29 15-51t43-34 65-12q35 0 64 14t46 42 17 60h-18q0-29-15-52t-39-35-56-12q-27 0-50 9t-39 26-14 44q0 24 14 38t36 22 63 16q41 8 64 16t38 26 16 50-17 55-46 33-62 11q-41 0-73-15t-48-44-17-65h19q0 32 14 56t41 37 64 14q46 0 76-22t31-60q0-26-13-40t-33-21-59-14m265 61v106h-18v-348h140q35 0 64 15t48 42 17 64q0 34-18 63t-48 45q-26 13-63 13h-122m0-224v206h122q32 0 52-10 27-13 43-38t16-55q0-30-16-55t-43-38q-21-10-52-10h-122m621 330h-261v-348h18v329h243v19m64 0l143-348h19l143 348h-20l-47-115h-171l-48 115h-19m152-324l-78 191h157l-79-191m225-24h22l124 186 122-186h22l-135 205v143h-19v-143l-136-205" />
</svg>