<svg id="fnt-Mandali" viewBox="0 0 1753 1000" xmlns="http://www.w3.org/2000/svg"><path id="mandali" class="f" d="M238 610h1l116-255q8-21 16-27 11-9 22-9t17 2 11 6q10 12 10 30v291q0 9-6 14t-14 5-14-5-6-14v-287l-126 279q-7 18-26 18-17 0-26-18l-126-277v285q0 9-6 14t-14 5-14-5-6-14v-291q0-29 21-36 7-2 14-2t13 1 11 6q9 6 19 29l113 255m392-91l28 1v-21q0-49-56-49-26 0-37 4-14 5-26 12t-17 6-10-4-4-10 5-10q31-29 90-29 67 0 86 46 7 16 7 37l-1 148q0 8-6 13t-13 4-13-4-5-13v-23q-16 33-55 42-13 3-28 3t-30-5-27-14q-24-19-24-53 0-81 136-81m28 51v-22q-11 1-25 1t-27 1-27 3-23 7q-22 13-22 38 0 21 15 33 13 10 37 11 29 0 49-18 21-19 23-54m112 78v-205q0-9 6-14t16-4q21 0 17 40 14-31 56-43 12-3 27-3t31 6 28 16q26 25 26 73v134q0 10-7 14t-13 5-14-5-6-14v-137q0-44-34-58-11-3-24-3t-26 5-23 13q-21 19-21 58v122q0 10-6 14t-14 5-14-5-5-14m475 19q-18 0-20-18v-23q-17 25-39 35t-48 11-47-11-31-29q-24-36-24-88 0-52 25-86 26-39 78-39 40 0 70 25 9 8 16 19v-127q0-9 6-13t13-4 14 4 6 13v312q0 10-6 14t-13 5m-60-210q-15-7-35-7t-35 8-22 21q-16 26-16 64 0 75 45 95 10 4 28 4t34-8 24-22q16-25 16-71 0-63-39-84m265 62l28 1v-21q0-49-56-49-26 0-37 4-13 5-26 12t-17 6-9-4-5-10 6-10q30-29 89-29 67 0 86 46 7 16 7 37l-1 148q0 8-6 13t-12 4-13-4-6-13v-23q-15 33-55 42-13 3-28 3t-30-5-26-14q-24-19-24-53 0-81 135-81m28 51v-22q-11 1-25 1t-27 1-26 3-23 7q-23 13-23 38 0 21 16 33 12 10 36 11 29 0 50-18 21-19 22-54m113 77v-309q0-9 6-14t11-5 9 1 6 4q6 5 6 14v309q0 10-6 15t-14 5-13-5-5-15m160-306q0 9-7 15t-19 7-20-7-7-15 7-16 20-7 19 7 7 16m-45 306v-203q0-9 6-14t11-5 9 1 6 4q6 4 6 14v203q0 10-6 15t-14 5-13-5-5-15" />
</svg>