<svg id="fnt-Mansalva" viewBox="0 0 2061 1000" xmlns="http://www.w3.org/2000/svg"><path id="mansalva" class="f" d="M431 657q-3 0-9-2-32-6-34-38-1-4-1-11t0-16q0-9 0-23t1-33l1-28 1-39q-4 3-23 31-18 27-59 102-9 25-21 25-5 0-15-6-27-16-33-45-5-22-11-46t-13-47q-1-6-6-15t-8-18-5-11l-6-13q-73 97-99 178-6 18-10 24-4 8-10 8-10 0-27-17-14-12-14-27 0-8 3-16 11-31 26-61t37-57l15-20q16-21 28-37t20-28q12-18 32-18 2 0 4 0t7 1q6 1 25 38 9 19 21 43t25 54l16 33q11-11 20-27t22-41q8-14 13-24t9-14q12-18 25-38t27-39q4-6 12-8 1 0 5 0 8 0 18 4t17 12 11 14q1 3 1 8 0 6 0 7-2 9-5 27-8 61-14 107t-9 76q-1 7-1 15t-1 17l-1 16q0 2 0 5t0 6q0 6-7 12m170 9q-14 0-30-5t-27-11-19-16q-10-15-10-30 1-24 20-48 13-15 24-24t23-14 31-6q4 0 11-1t12-3 6-4q0-7-6-13-7-5-26-5-3 0-9 0t-12 1-12 0-7 1q-17 0-25-6-2 0-2-9 0-16 11-19 11-4 22-6t22-3q29 0 54 13t36 32q12 18 15 52 2 19 3 43t1 53q0 16-4 18-4 3-8 3-4 0-10-4t-11-8l-3-6q-2-5-5-6-4 0-10 4t-9 9q-3 3-6 6t-7 4q-5 4-22 7-3 0-6 0t-5 1m-16-35q4 0 7-1 11-4 23-8t23-9q5-3 9-9t5-7 1-9 1-12q-1-1-2-8 0-3-2-6t-2-5q-2-4-8-8t-10-3q-9 1-20 7t-21 18q-9 11-15 23t-5 22q1 8 8 12 4 3 8 3m201 38q-31-3-32-26 0-29 5-69 2-14 3-26t3-20q1-8 3-19l3-27q1-8 2-13t5-8 20-9q31 0 36 25v1q0 2 0 3t-1 5q-1 6 0 6 34-7 58-7 38 0 57 36 15 30 15 67 0 5 0 12t-2 16q-1 12-9 19t-19 7q-8 0-13-1t-7-9-3-21l0-11q-1-15-2-28t-2-24q-3-16-21-16-4 0-9 0t-10 2q-11 3-17 5t-10 5-12 8q-4 2-5 10t-2 8q-3 16-7 35t-7 42q0 1-1 3t-1 6q-1 8-18 13m286 9q-42 0-54-36 4 0 11 0t11 1q4 1 6 1t4 0q23 0 38-20 10-14 10-29 0-10-5-20-5-10-12-21t-15-22q-5-8-10-15t-9-14q-10-16-10-36 0-18 10-32t31-17l16-3q13-2 22-4t17-1q21 0 38 10 3 3 7 9t6 10q-2 0-5 1t-5 3q-3 2-6 3t-5 1q-3 1-9 1t-12 0q-6 0-12 0t-8 1q-16 1-26 10t-9 23q0 10 6 20 13 22 38 52 18 22 18 46 0 13-6 28-20 50-71 50m237-12q-14 0-29-5t-28-11-19-16q-10-15-9-30 1-24 20-48 13-15 23-24t24-14 31-6q4 0 10-1t13-3 5-4q0-7-6-13-7-5-25-5-4 0-9 0t-12 1-12 0-8 1q-16 0-24-6-2 0-2-9 0-16 10-19 11-4 22-6t23-3q29 0 53 13t37 32q11 18 15 52 2 19 3 43t1 53q0 16-5 18-4 3-7 3-5 0-11-4t-10-8l-4-6q-2-5-4-6-5 0-10 4t-10 9q-3 3-6 6t-6 4q-6 4-22 7-4 0-7 0t-5 1m-15-35q3 0 6-1 12-4 23-8t23-9q5-3 9-9t5-7 2-9 0-12q-1-1-1-8-1-3-2-6t-2-5q-3-4-8-8t-10-3q-10 1-21 7t-20 18q-10 11-15 23t-5 22q0 8 7 12 4 3 9 3m243 50h-15q-11 0-33-13-13-16-13-30 0-59 0-103t-1-73l0-88q0-9-1-17t-3-15q0-2 0-6 0-19 25-19 16 0 27 11t11 28q-1 13-2 33t-2 47l-3 60q-2 42-4 74t-2 53q0 5 1 11t1 8l5 2q10-13 15-19 5-8 11-8t9 8q7 21 7 31 0 6 0 8-2 10-12 14t-21 3m178 5q-16 0-29-14-3-4-7-12t-8-19q-12-35-21-66t-18-55q0-2-2-4t-2-6q-3-6-3-10 0-8 8-13 8-5 16-5 9 0 23 9 10 8 15 17t8 25 8 24q2 4 4 13 3 9 4 13t3 6q10-19 19-37 15-30 23-42 14-22 34-39 4-4 10-4 5 0 8 4t4 10q1 1 1 6 0 6-1 11t-3 11l-59 151q-4 13-14 19t-21 7m238-20q-14 0-29-5t-28-11-19-16q-10-15-9-30 1-24 20-48 13-15 23-24t24-14 31-6q4 0 10-1t13-3 5-4q0-7-6-13-7-5-25-5-4 0-9 0t-12 1-12 0-8 1q-16 0-24-6-2 0-2-9 0-16 10-19 11-4 22-6t23-3q29 0 53 13t37 32q11 18 15 52 2 19 3 43t1 53q0 16-5 18-4 3-7 3-5 0-11-4t-10-8l-4-6q-2-5-4-6-5 0-10 4t-10 9q-3 3-6 6t-6 4q-6 4-22 7-4 0-7 0t-5 1m-15-35q3 0 6-1 12-4 23-8t23-9q5-3 9-9t5-7 2-9 0-12q-1-1-1-8-1-3-2-6t-2-5q-3-4-8-8t-10-3q-10 1-21 7t-20 18q-10 11-15 23t-5 22q0 8 7 12 4 3 9 3" />
</svg>