<svg id="fnt-Manuale" viewBox="0 0 1909 1000" xmlns="http://www.w3.org/2000/svg"><path id="manuale" class="f" d="M205 667l-25 5-93-261-8 229 45 10v17h-113v-17l41-10 8-253-40-9v-17h93l87 245 82-245h96v17l-45 10 9 252 46 10v17h-131v-17l45-10-8-227-89 254m278 5q-17 0-29-9t-18-23-6-29q0-12 4-27t18-26 41-17l76-13v-42q0-19-9-31t-35-11q-11 0-24 1t-25 6l-12 43h-15l-9-59q21-8 45-13t49-5q23 0 40 5t27 16 9 33v167l43 9v14q-14 4-27 6t-23 2q-12 0-22-7t-11-21q-19 14-41 23t-46 8m27-31q14 0 30-6t29-12v-73l-52 8q-25 4-35 17t-9 28q0 22 11 30t26 8m295 26h-127v-14l44-13v-188l-44-5v-12l72-18h14v20q10-5 24-9t32-8 33-3q18 0 33 5t24 17 10 32v169l45 13v14h-128v-14l41-13v-160q0-20-10-27t-40-6q-15 0-33 2t-31 6v185l41 13v14m278 5q-22 0-34-9t-18-22-5-29v-160l-45-5v-12l74-18h13v190q0 16 7 25t33 9q14 0 33-5t35-11v-173l-45-5v-12l74-18h13v221l46 9v14q-16 4-30 6t-23 2q-10 0-20-7t-12-18q-14 5-30 12t-32 11-34 5m276 0q-18 0-30-9t-18-23-6-29q0-12 4-27t18-26 42-17l75-13v-42q0-19-8-31t-35-11q-11 0-25 1t-25 6l-12 43h-15l-8-59q21-8 44-13t50-5q23 0 40 5t26 16 10 33v167l42 9v14q-14 4-27 6t-23 2q-12 0-21-7t-12-21q-19 14-40 23t-46 8m26-31q15 0 31-6t28-12v-73l-52 8q-25 4-34 17t-9 28q0 22 10 30t26 8m293 26h-132v-17l45-10v-301l-45-5v-12l73-19h14v337l45 10v17m141 5q-28 0-49-8t-35-24-21-40-7-55 7-55 20-41 34-24 46-8q48 0 71 22t23 72q0 4-1 8t0 8 0 9h-154v16q0 29 8 50t26 32 39 12q16 0 36-3t39-8l3 15q-21 12-40 17t-45 5m-65-154l109-5v-11q0-21-5-34t-15-20-26-7q-22 0-35 8t-20 24-8 45" />
</svg>