<svg id="fnt-Marcellus" viewBox="0 0 2173 1000" xmlns="http://www.w3.org/2000/svg"><path id="marcellus" class="f" d="M18 667v-1q2-4 6-12t5-19q3-17 6-39t7-45 7-48 7-48 6-46 6-40 4-32 2-20h31l154 287 152-287h23l40 290q2 13 4 23t4 17 3 11 4 8v1h-62v-1q2-3 3-9t1-15q0-3 0-6t-1-7l-31-234-144 271-17-2-145-272q-9 58-15 107-3 21-5 42t-5 39-3 32-2 20q0 9 1 15t1 11q1 5 1 9h-48m509-72q0-20 8-34t21-24 30-16 35-10 36-5 32-1v-13q0-16-4-28t-12-19-18-12-23-3q-9 0-18 1t-17 5-20 9-22 15l-2-1 17-35q8-3 15-6t16-4 17-2 17 0q26 0 44 6t30 17 17 25 5 32v79q0 21 1 36t2 27 2 19 3 13v1h-54v-1q1-4 1-9t2-12q-6 5-13 9t-15 9-20 6-24 2q-43 0-66-20t-23-56m162-24v-47q-22 0-43 2t-36 10-25 21-10 36q0 28 15 44t40 15q11 0 21-4t17-8 13-11 7-11q1-10 1-21t0-26m116 0v-59q0-21 0-36t-2-27-2-19-3-12v-1h56v1q-1 5-3 13t-2 21q9-8 19-15t20-13 21-9 21-3q7 0 12 0t8 2 8 3 6 2l-12 47-4-1q-3-11-11-17t-22-7q-8 0-16 3t-17 7-17 11-17 13q0 7 0 16t0 17v63q0 21 0 36t2 27 2 19 2 13v1h-56v-1q2-5 3-13t2-19 2-27 0-36m396 42l3 2-18 43q-7 3-15 5t-18 5-18 2-18 1q-29 0-54-9t-44-25-28-41-10-55q0-27 10-51t30-41 44-27 56-10q14 0 29 3t28 6l18 41-3 2q-6-8-15-14t-18-11-22-6-23-3q-19 0-34 7t-27 19-18 31-6 42q0 27 6 49t18 40 30 26 42 9q11 0 22-3t21-8 18-12 14-17m162 58q-27 0-51-9t-41-25-28-40-10-56q0-27 9-51t26-41 38-27 48-10q25 0 46 9t37 25 25 41 10 55q-27 0-55-1t-57 0q-22 0-42 0t-36 1q1 26 8 46t18 35 27 22 37 8q14 0 27-3t23-9 18-14 14-17l3 1-19 44q-13 7-31 11t-44 5m-32-149q24 0 49 0t44-1q-2-21-8-38t-16-29-22-18-29-6q-14 0-26 6t-21 18-14 29-6 39q11 0 23 0t26 0m195 49v-174q0-21 0-36t-2-27-2-19-3-12v-1h56v1q-1 5-2 12t-2 19-2 27 0 36v174q0 21 0 36t2 27 2 19 2 13v1h-56v-1q2-5 3-13t2-19 2-27 0-36m121 0v-174q0-21-1-36t-1-27-3-19-2-12v-1h56v1q-1 5-3 12t-2 19-1 27-1 36v174q0 21 1 36t1 27 2 19 3 13v1h-56v-1q1-5 2-13t3-19 1-27 1-36m160-59v69q0 32 13 48t34 15q8 0 18-4t20-8 21-13 19-16q0-7 0-15t0-17v-59q0-21 0-36t-2-27-2-19-3-12v-1h57v1q-2 5-3 12t-2 19-2 27 0 36v59q0 21 0 36t2 27 2 19 3 13v1h-57v-1q2-6 3-16t3-25q-10 9-22 17t-24 15-26 11-25 4q-19 0-32-7t-22-17-12-25-4-28v-83q0-21 0-36t-2-27-2-19-3-12v-1h57v1q-2 5-3 12t-2 19-2 27 0 36m351-87l2 41-3 0q-2-5-6-12t-10-11-14-9-19-4q-8 0-15 2t-11 7-8 10-3 15q0 12 7 23t19 22 24 21 25 22 18 25 8 29q0 13-5 24t-13 22-24 15-34 5q-12 0-22-2t-18-5-15-8-12-7l2-47h4q3 12 7 21t13 16 16 11 20 4q18 0 29-10t11-26q0-13-8-24t-18-21-23-20-24-22-18-24-7-31q0-14 5-26t15-21 22-13 28-4q21 0 34 4t21 8" />
</svg>