<svg id="fnt-Marhey" viewBox="0 0 2015 1000" xmlns="http://www.w3.org/2000/svg"><path id="marhey" class="f" d="M110 662l-56 10q1-51 2-97t-1-90-4-90-9-94l76-13q2 38 3 75t0 75-1 74-4 74-6 76m221-4l-74 12q3-28 4-59t2-64-1-64-6-59-11-49-17-33-24-12q-22 0-40 27t-31 78-15 118l-36 4q8-79 21-131t29-83 38-43 46-13q31 0 52 18t34 53 20 81 8 102 1 117m227 0l-74 10q3-30 4-63t0-65-5-64-9-57-13-46-18-32-24-11q-14 0-26 13t-21 36-16 54-11 67-9 77-5 81l-29-87q1-25 3-55t8-63 15-63 23-54 33-38 44-14q34 0 57 21t40 59 24 85 10 102-1 107m144 16q-21 0-40-10t-29-27-11-43q0-28 16-55t54-51 101-42l17 34q-39 8-63 20t-38 26-18 26-4 23q0 20 10 34t29 14q17 0 33-11t27-31 10-50l29-21q-3 44-15 75t-29 51-38 28-41 10m156-12l-50 11q-4-20-7-49t-4-57-3-56-1-44 0-21l71-7q-8 63-9 117t3 106m139 8l-18-66q2-43 14-78t34-59 48-31 55 6l-12 67q-32-15-54-12t-35 25-21 58-11 90h-67q5-39 8-76t1-74-4-73l53-11q5 33 7 62t4 57 0 55-2 60m240-6l-53 5q3-47 4-98t0-101-2-100-6-94l71-11q3 94 0 194t-14 205m185 8l-70-5q7-29 10-57t3-53-6-45-14-30-24-11-29 14-25 41-19 62-11 76l-35-62q2-20 9-43t19-45 27-40 36-29 43-11q28 0 46 15t29 41 13 56 3 64-5 62m256-38l-6 34q-28 3-57 2t-53-8-44-19-30-34-11-52q0-30 11-52t29-37 42-22 46-7q35 0 58 13t36 32 11 39q0 16-8 32t-25 26-49 11q-11 0-26-2t-30-6-28-9-23-12l13-22q10 6 25 11t39 4q15 0 27-4t20-14 7-24q0-9-4-18t-13-16-26-6-32 11-25 29-10 37q0 27 10 45t29 29 43 13 54-4m75 147l26-60q32 23 60 34t51 8 38-24 20-60q3-22 4-41t1-38-1-42-2-51-3-65l65-16q2 45 1 91t-3 87-10 79q-8 49-30 77t-54 39-74 5-89-23m97-109q-28 0-46-15t-28-39-14-55-3-63 5-61l70-2q-6 29-10 57t-3 54 5 45 15 31 24 12q15 0 29-15t24-42 18-61 11-76l26 64q-1 21-7 43t-17 45-24 40-34 28-41 10" />
</svg>