<svg id="fnt-Marko One" viewBox="0 0 2969 1000" xmlns="http://www.w3.org/2000/svg"><path id="marko-one" class="f" d="M447 373q18 121 27 160t17 74 14 59q-17 6-42 6t-34-6q-19-36-45-227-5-32-6-36-45 107-61 191-5 31-5 43t0 15q-16 10-40 10-27 0-33-10-4-11-18-54-37-117-66-198l-1 14q-4 79-10 111t-11 53-11 36-16 30q-19 31-48 31-24 0-39-18-7-8-7-17 21-14 39-39t28-50 19-57q17-63 17-109 0-15-2-20t-4-7-4-4-3-3-5-1-4-2q-4-5-4-16t1-15q12-3 33-3t54 3q12 2 75 164 24 62 30 74 13-45 84-238 25-2 33-2t17 3 18 18 13 37m334 156l-1 82q0 1 0 2 0 14 13 14 9 0 20-7 4 3 7 8t3 9q-30 38-62 38t-46-32q-22 16-46 24t-40 8-31-3-26-12q-27-17-27-57 0-21 12-36t32-25q38-17 91-19l28-1q2-20 2-31 0-26-10-39t-36-13q-17 0-25 11t-9 33q0 3-9 7-14 7-27 7t-22-8-9-22 11-27 27-19q34-13 77-13 46 0 67 14 19 13 27 36 9 28 9 71m-73 89q-3-18-3-31t1-37l-34 2q-26 0-40 12t-14 32 8 27 34 9 48-14m325-112v-3q0-42-19-42-14 0-27 8t-27 22q0 25-2 176-27 5-44 5t-30-5q3-40 3-139v-57q0-18-13-22-9-3-23-4-2-7-2-11t0-6q35-20 87-20 9 0 13 1 7 12 8 25t2 25q33-40 55-48 11-4 23-4 25 0 39 13t15 40q0 20-15 33-14 13-34 13-5 0-9 0m353 122q10 0 19-6l10 16q-17 25-42 35-11 4-23 4t-22-6-19-16-16-23-14-27-10-29q-7-19-15-52-17 26-32 43 0 28-1 100-24 4-42 4t-32-5q6-37 6-138t-3-173q-2-23-31-27-1-1-1-4-1-6-1-8t0-5q46-18 93-18 3 0 5 0 5 7 7 28t1 84 0 117q27-51 48-73 25-27 42-34t32-7q24 0 39 14t16 36-15 36-36 14q-5 0-9-1 0-28-11-39-5-5-14-5t-19 7-22 25q33 60 64 96t48 37m352-94q0 32-11 60t-33 46q-42 36-111 36-35 0-64-17t-47-45-17-71 21-73q41-65 138-65 49 0 86 34 38 35 38 95m-211 7q0 42 24 73t57 31q60 0 60-98 0-48-22-79t-57-30q-17 0-30 9t-19 24q-13 28-13 70m783-58q0 70-32 118t-90 66q-28 8-60 8t-66-12-59-33-42-56-15-74q0-76 34-123t101-64q23-6 49-6t51 7 50 21 40 35q39 44 39 113m-253 116q15 19 35 30t43 10 39-8 28-21 18-32q14-33 14-78 0-68-33-113t-79-44q-19 0-36 7t-30 21-19 35q-13 36-13 75t9 68 24 50m511 15l2-93q0-32-2-40t-5-13q-7-8-20-8t-22 3q-20 6-49 35 0 32-2 169-27 5-45 5t-30-5q4-59 4-109t-1-87q0-18-13-22-9-3-24-4-1-6-1-10t1-7q35-20 87-20 9 0 13 1 9 16 10 56 46-59 107-59 28 0 44 19t19 52q1 15 1 30t-2 32q-4 53-4 81 0 6 9 10t18 3 12-1q2 7 2 12t0 8q-46 23-68 23t-32-15-9-46m226-53q8 36 31 59t56 22 65-28q12 8 15 19-23 26-67 38-18 4-41 4t-48-8-45-25-31-42-11-58 11-58 31-43q41-35 93-35 45 0 79 25 16 12 26 31t9 44q0 42-27 44l-146 11m108-62q0-29-17-45t-42-17-39 25-14 68q61-7 110-14 2-9 2-17" />
</svg>