<svg id="fnt-Martel Sans" viewBox="0 0 2771 1000" xmlns="http://www.w3.org/2000/svg"><path id="martel-sans" class="f" d="M342 327h41v340h-46v-119l3-147-105 156h-31l-106-157 3 148v119h-45v-340h41l122 182 123-182m362 307l3 32q-18 7-36 7-20 0-33-8t-16-28q-47 37-88 37-31 0-51-19t-20-45q0-26 14-43t39-27 68-24l37-10v-20q0-60-45-60-25 0-46 10t-48 39l-18-28q56-56 120-56 43 0 62 22t20 75v131q0 11 4 15t12 5q8 0 22-5m-197-28q0 17 10 25t27 8q17 0 35-8t42-26v-70l-28 9q-48 14-67 28t-19 34m395-215v42q-24 0-46 8t-48 30v196h-45v-267h35l8 36q24-25 47-35t49-10m204 234l8 32q-26 16-56 16-43 0-64-23t-20-67v-150h-43v-19l47-13 13-64h27v63h80v33h-80v143q0 33 11 47t34 15q11 0 21-3t22-10m177 16q25 0 45-11t38-30l17 28q-20 23-45 35t-56 13q-42 0-71-20t-43-51-14-71q0-40 14-73t44-51 70-19q29 0 52 11t37 35 13 53q0 11-4 30h-180q-1 4-1 13 0 49 21 79t63 29m-2-217q-30 0-49 17t-27 46h135v-4q0-29-18-44t-41-15m175 243v-400h44v400h-44m361 8q-38 0-66-8t-51-24l16-34q42 30 101 30 34 0 56-17t23-45q0-17-11-29t-26-20-44-17q-33-12-54-22t-34-28-14-47q0-45 32-69t82-25q60 0 104 32l-16 33q-40-29-87-29-31 0-50 14t-20 42q0 17 11 29t26 18 43 18q33 12 54 22t35 29 14 47q0 31-15 53t-44 35-65 12m416-41l3 32q-18 7-36 7-20 0-33-8t-15-28q-48 37-88 37-32 0-52-19t-20-45q0-26 14-43t39-27 69-24l37-10v-20q0-60-46-60-25 0-46 10t-47 39l-19-28q56-56 121-56 43 0 62 22t19 75v131q0 11 4 15t13 5q7 0 21-5m-196-28q0 17 10 25t26 8q17 0 35-8t43-26v-70l-29 9q-47 14-66 28t-19 34m391-215q44 0 60 23t17 67v186h-44v-182q0-32-10-45t-35-14q-18 0-37 9t-42 26v206h-44v-267h34l7 28q48-37 94-37m240 285q-30 0-53-7t-42-19l14-32q33 23 81 23 26 0 42-12t16-34q0-12-8-21t-20-15-33-13q-26-10-43-18t-28-23-11-38q0-37 26-57t68-19q48 0 85 24l-13 33q-32-23-71-23-23 0-37 10t-14 29q0 18 15 28t45 20q27 10 43 18t28 24 12 40q0 37-28 59t-74 23" />
</svg>