<svg id="fnt-Mate" viewBox="0 0 1074 1000" xmlns="http://www.w3.org/2000/svg"><path id="mate" class="f" d="M20 667q-5 0-6-7t-1-8l42-11 16-298-41-11q0-2 1-9t6-6q0 0 17 0t63 2l106 256 115-256q46-2 63-2t16 0q6 0 7 6t1 9l-41 11 15 298 43 11q0 2-1 8t-7 7q0 0-13-1t-46-1l-56 2q-6 0-7-6t-1-9l47-11-10-275-127 276h-9l-116-272-11 271 47 11q0 3-1 9t-7 6l-55-2q-21 1-32 1t-14 1-3 0m513 6q-25 0-40-17t-14-40q0-19 13-35t42-29 79-15v-30q0-25-15-40t-39-15q-17 19-31 30t-22 11q-6 0-12-10t-8-19q23-11 46-20t41-11q36 0 56 19t20 54v127q0 18 21 18 6 0 15-1 5 4 5 12-19 11-36 11-16 0-27-9t-13-23q-29 15-51 23t-30 9m10-27q16 0 35-7t35-18v-67q-33 4-57 13t-36 20q-2 5-4 11t-1 12q0 14 7 25t21 11m243 27q-22 0-31-13t-10-51v-146h-31q-3 0-5-5t-2-9 0-6l42-7 13-56 19-6v65h59q0 1-1 7t-1 11-5 6h-52v159q0 14 5 20t14 6q9 0 19-5t19-9q6 6 8 15-13 11-29 17t-31 7m198 0q-50 0-79-30t-29-81q0-40 15-69t41-45 64-15q36 0 56 29t21 82q-32 6-62 9t-63 3q-16 0-33-2 0 46 20 70t58 25q31 0 63-16 7 6 9 15-15 11-37 18t-44 7m-68-137q58-1 115-11 2-9 2-17 0-25-14-38t-37-13q-7 0-13 0t-11 2q-35 23-42 77" />
</svg>