<svg id="fnt-Matemasie" viewBox="0 0 2844 1000" xmlns="http://www.w3.org/2000/svg"><path id="matemasie" class="f" d="M149 674q-6 0-14-4t-17-12q-13-12-31-35t-35-55-29-71-11-85q0-50 15-84t40-51 57-17q23 0 43 11t35 39 17 78q1 25 2 38t1 19 0 12 0 19 0 36q0 16 1 26t14 10q13 0 13-10t2-26q0-10 0-19t0-21 0-32 3-51q3-50 17-79t34-39 44-11q31 0 56 17t40 51 15 84q0 45-11 85t-28 71-35 55-32 35q-9 8-17 12t-14 4q-14 0-20-13t-3-29q1-5 5-17t8-30 7-36 3-35q0-21-5-32t-13-11q-7 0-11 6t-5 16-2 17-1 12q0 56-12 78t-38 22-39-22-12-78q0-4 0-12t-3-17-5-16-10-6q-8 0-13 11t-6 32q0 17 3 35t7 36 8 30 5 17q4 16-2 29t-21 13m570 0q-20 0-31-31-4-8-10-8-5 0-8 2t-5 6q-12 15-23 23t-27 8q-25 0-48-15t-41-39-28-59-11-70q1-35 14-65t38-48 59-18q25 0 43 11 8 5 13 10t9 11q3 4 5 7t7 2 6-3 4-6q8-14 19-23t27-9q26 0 37 22t11 64q0 21-3 47t-7 51-9 48-9 37q-6 20-12 32t-20 13m-79-66q17 0 26-11t6-36q-6-42-42-42-20 0-30 10t-10 24q0 10 5 23t16 23 29 9m287 66q-17 0-34-5t-33-16-29-37-20-66-7-101q0-61 7-96t26-51 52-15q39 0 54 28t0 77q-3 11 2 18t18 5q33-5 49 5t16 30q0 23-15 34t-40 5q-10-3-20-7t-19-6-17 2-13 19q-4 11-6 27t-2 34 5 33 14 25 26 10q10 0 19-4t21-10q9-6 18-6t15 7 6 15q0 8-6 18t-20 17q-22 11-67 11m276 0q-77 0-115-43t-37-120q0-31 6-59t21-48 40-33 61-11q48 0 80 16t49 46 16 64q0 20-9 39t-29 35-49 26-71 10q-11 0-15 3t-4 8q0 12 10 16t23 5 23-1q12-1 22-5t22-11q9-6 19-5t16 13q5 11-2 24t-20 19q-11 5-23 8t-34 4m-27-123q10 0 18-7t12-16 5-17q0-28-31-28-13 0-20 6t-9 15-2 19q0 14 7 21t20 7m382 123q-10 0-16-7t-7-19-1-23q0-17-1-36t-5-35-13-25-25-10q-18 0-27 11t-11 30-5 38-6 39q-4 19-11 26t-11 9-8 2q-11 0-18-12t-13-27q-5-14-10-37t-10-49-7-51-2-44q0-49 17-72t46-22q17 0 32 7t24 23q2 4 4 7t6 3q4 0 7-3t10-9q14-13 26-21t30-7q20 0 37 10t26 23q2 3 4 6t6 3 7-3 10-9q14-13 27-22t31-8q24 0 45 14t35 44 13 78q0 33-7 64t-17 58-24 40-25 16q-9 0-14-11t-5-38q0-16-1-35t-5-34-12-27-25-10q-15 0-22 8t-10 21-6 26q-5 23-14 46t-21 38-28 16m495 0q-20 0-31-31-4-8-10-8-5 0-8 2t-5 6q-12 15-23 23t-27 8q-25 0-48-15t-41-39-28-59-11-70q1-35 14-65t38-48 59-18q25 0 43 11 8 5 13 10t9 11q3 4 5 7t7 2 6-3 4-6q8-14 19-23t27-9q26 0 37 22t11 64q0 21-3 47t-7 51-9 48-9 37q-6 20-12 32t-20 13m-79-66q17 0 26-11t6-36q-6-42-42-42-20 0-30 10t-10 24q0 10 5 23t16 23 29 9m293 66q-32 0-50-4t-32-9q-15-7-20-17t-6-16q0-9 6-15t15-8 18 5q20 13 40 14t36 1q15 0 28-6t13-16q0-7-8-9t-27-2q-66 0-105-25t-39-81q0-36 17-65t49-45 81-16q54 0 84 22t30 64q0 54-51 54-12 0-28-2t-29-5-22-2q-13 0-19 6t-5 15q0 11 8 16t30 5q49 0 72 18t23 51q0 32-30 52t-79 20m213-307q-26 0-41-15t-16-40 16-40 41-14 41 14 15 40-15 40-41 15m0 307q-15 0-23-10t-13-24q-4-11-9-29t-9-41-8-45-3-43q0-44 17-65t48-20 47 20 17 65q0 20-3 43t-8 45-9 41-8 29q-6 16-14 25t-22 9m242 0q-77 0-115-43t-37-120q0-31 6-59t21-48 40-33 61-11q48 0 80 16t49 46 16 64q0 20-9 39t-29 35-49 26-71 10q-11 0-15 3t-4 8q0 12 10 16t23 5 23-1q12-1 22-5t22-11q9-6 19-5t16 13q5 11-2 24t-20 19q-11 5-23 8t-34 4m-27-123q10 0 18-7t12-16 5-17q0-28-31-28-13 0-20 6t-9 15-2 19q0 14 7 21t20 7" />
</svg>