<svg id="fnt-Maven Pro" viewBox="0 0 2364 1000" xmlns="http://www.w3.org/2000/svg"><path id="maven-pro" class="f" d="M79 667h-36v-334h39l123 190-24 5 130-195h39v334h-36v-298h16l-137 193-127-189 13-18v312m440 7q-17 0-34-3t-31-12-23-24-8-37q0-31 11-50t33-27 48-8q20 0 35 3t27 7 21 11l7 33q-11-9-33-15t-48-6q-31 0-48 12t-17 35q0 18 10 29t26 16 32 4q33 0 49-5t17-21v-115q0-29-17-42t-48-14q-20 0-43 6t-38 18v-36q16-10 42-15t50-5q17 0 31 3t25 9 18 16 12 23 5 29v121q0 26-16 39t-41 17-54 4m300-7h-36l-106-250h39l92 219-8 2 89-221h36l-106 250m249 7q-35 0-61-15t-40-44-14-73q0-65 29-97t80-32q40 0 64 18t35 48 10 69h-200l2-33h175l-14 5q-2-37-19-56t-53-18q-24 0-41 9t-24 31-8 62q0 46 21 69t60 24q19 0 34-3t29-7 23-11v37q-18 8-40 13t-48 4m171-7v-230q12-6 24-11t26-7 27-5 28-1q37 0 58 10t31 32 10 49v163h-36v-163q0-9-2-19t-9-19-20-15-36-6q-15 0-32 3t-33 7v212h-36m550-128h-82v128h-36v-334h118q56 0 86 27t30 76-30 77-86 26m-82-171v137h78q28 0 44-6t26-17 11-22 3-24-3-24-11-22-26-16-44-6h-78m304 299h-36v-230q6-2 23-8t41-11 51-5q4 0 8 1t8 2v32q-13-2-26-2t-23 1-23 4-23 4v212m237 7q-58 0-87-35t-28-96q0-65 30-98t84-32q41 0 66 16t38 45 12 69q0 61-30 96t-85 35m0-33q30 0 47-13t24-36 8-49q0-30-8-52t-25-33-46-12q-30 0-47 13t-25 34-7 50q0 44 18 71t61 27" />
</svg>