<svg id="fnt-McLaren" viewBox="0 0 2242 1000" xmlns="http://www.w3.org/2000/svg"><path id="mclaren" class="f" d="M377 314l66 363-50 10-49-306-81 265-61 7-91-257-44 280-52-7 68-356h51l98 281 88-278 57-2m371 169l0 1-40 24-1-1q-6-13-15-23t-21-16-24-11-26-4q-20 0-38 8t-30 21-21 30-8 38q0 20 8 38t21 30 30 21 38 8q13 0 25-4t23-9 20-16 15-19l1-2 43 24-1 2q-9 16-23 28t-30 22-35 14-38 5q-28 0-54-11t-46-29-32-45-12-57q0-18 5-36t14-33 22-30 29-23 35-15 39-5q21 0 40 5t36 15 29 23 22 32m324 137l2 52-266 19-1-372 50-2-1 320 216-17m286 70l-47-8 3-34q-30 19-59 27t-53 9q-18 0-34-5t-29-14-20-24-8-34 6-35 16-28 24-20 30-14 33-8 35-3q16 0 30 1t25 4q-3-13-8-24t-12-22-17-15-25-6q-10 0-22 3t-27 10-32 20-37 33l-30-36q24-22 45-36t41-22 35-10 29-3q22 0 40 7t31 21 22 32 15 38 9 43 2 44q0 24-2 50t-9 59m-41-97q1-12 1-24t-1-25q-12-4-25-6t-27-2q-22 0-42 5t-36 15-22 24-3 32q3 15 13 21t24 6q14 0 31-5t32-12 31-15 24-14m348-82l-49 18q0-12-2-21t-4-15-7-10-7-7q-8-6-19-6-7 1-15 6t-15 12-17 17-15 19-15 20-12 18q0 18 1 36t1 33 1 27 1 20l-53 7q-1-42-2-76t-2-61-2-48-1-35q-1-35-2-52l56-1q0 15 0 31t1 28q0 15 0 30 7-12 17-25t23-25 28-21 33-11q19-1 36 8 6 4 13 10t13 17 9 24 6 33m157 133q13 0 26-4t23-12 19-19 11-26l47 9q-6 22-19 40t-29 31-36 20-42 8q-32 0-57-10t-42-28-26-43-9-56q0-30 10-57t29-46 42-31 53-11q25 0 48 10t40 27 28 41 14 52l-211 31q2 18 9 31t17 24 25 14 30 5m-80-119l147-18-1-4q-9-25-26-38t-40-14q-10 0-22 4t-24 12-21 23-13 35m319 153l-53 7q-1-42-2-76t-3-61-1-48-1-35q-1-35-2-52l56-1 1 71q8-14 18-27t22-22 26-15 28-7q19-1 33 3t23 13 16 18 10 22 6 23 2 20q1 42 0 85t-1 88l-50-2q2-39 3-79t0-79q0-4-1-11t-2-15-6-16-10-13-14-9-20-1q-19 3-39 28t-43 74q1 39 2 63t1 35q1 14 1 19" />
</svg>