<svg id="fnt-Mea Culpa" viewBox="0 0 1994 1000" xmlns="http://www.w3.org/2000/svg"><path id="mea-culpa" class="f" d="M-24 776q-22 0-42-6t-31-19-12-37q0-8 1-16 1-3 4-3 3 0 3 3t0 5-1 5q0 22 13 35t31 20 42 7q24 0 47-7 24-8 45-23t42-34q-35-9-61-31t-40-55-14-68q0-32 11-63 14-38 40-74t69-64 106-48 153-22q10-1 25-1t29 0q10-2 17-2 8 0 15 2 1 0 1 3 1 0 1 2 0 3-4 3-18 1-29 13t-22 31q-7 13-11 31t-4 38q14 11 21 26t7 33q0 3-3 3-4 0-4-4 1-14-5-27t-16-23q-2 35-3 75t-11 78q14-1 26-3 18-30 38-64t40-69 42-69 46-60q28-31 55-45t51-14q26 0 43 17t18 47q0 33-26 77t-86 95q-39 32-89 54-20 39-32 70t-11 53q0 14 6 22t20 9q15 0 34-15t39-40 33-56q2-3 4-3 3 0 2 4-15 30-34 58t-40 46-47 18q-25 0-35-16t-10-38q0-21 6-46t16-47q-17 5-34 9t-35 8q-22 30-44 55t-44 38-40 13q-4 0-4-3 0-2 2-3 21-15 34-40t20-54h-13q-18 0-37-3t-36-8q-21 41-49 78t-60 66q31 0 58-15t34-45q1-2 4-2 4 0 3 4-6 23-23 38t-39 21-45 6q-29 24-61 40t-69 22q-10 2-20 3t-21 1m456-221v1q18-4 34-9t34-10q16-34 38-68t44-66 43-58 33-44q2-3 4-3 4 0 4 4 0 3-2 4-16 22-37 55t-41 74-37 81q18-9 35-20t33-23q41-33 67-66t38-61 12-50q0-18-9-29t-24-11q-17 0-41 13t-53 42q-23 24-46 54t-45 64-43 66-41 60m-308 145q32-33 58-74t48-79q-32-14-51-36t-18-51q3-34 21-55t47-30 59-10q23 0 47 5 22-29 42-50t39-31q-5 0-10-1t-11 0q-45 0-90 7t-89 23-80 39-65 58-44 78q-11 33-11 64 0 35 12 65t38 50 58 28m253-315q3-11 6-22t9-20q8-13 21-29t30-23l-9-1q-18 9-38 32t-40 54q12 4 21 9m-142 153l28-51q17-32 34-60t34-51q-9-2-18-3t-18-1q-27 0-52 9t-42 28-18 51q-2 25 12 45t40 33m102 25h15q8-37 11-76t8-68l5-28q-5-2-11-5t-12-5q-17 28-33 61t-33 68l-19 41q16 5 33 8t36 4m-2 84q17-6 35-28t38-52q-6 0-12 1t-12 1q-7 22-19 41t-30 37m325 25q-22 0-31-15t-9-34q0-11 3-22t6-21q5-13 15-29t25-26 32-11q14 0 19 8t6 19q0 2 0 4t-1 4q-1 14-10 28t-23 24-29 10q-9 0-16-5-4 17-4 31 0 12 4 19t13 8q11 0 25-10t32-31 36-62q0 0 1 0 1 0 3 1t1 2q-25 56-52 82t-46 26m1-69q11 0 21-8t19-21 14-26q2-5 2-12 0-7-3-12t-7-4q-9 0-20 11t-19 26-14 28q-1 4-3 7t-2 8q6 3 12 3m95 66q-17 0-24-9t-6-24q0-14 5-30t10-26q16-33 44-51t60-18q4 0 8 0t8 1q10 2 10 3t-7 2-11 1q-24 0-44 13t-32 33-21 40-7 36q0 10 3 16t10 6q7 0 16-10t17-23 16-27 10-20l22-45q8-2 17-5t17-6q-9 14-17 30t-15 32q-6 11-12 27t-6 28v2q0 4 1 8t6 5q5 0 14-7t12-10q16-16 27-35t22-40q1-1 2-1 4 0 3 4 0 0-3 5t-2 5q-10 17-19 33t-23 31q-8 8-19 17t-23 9q-11 0-16-9t-4-20q0-7 1-14t3-11q-4 9-13 22t-19 22-21 10m372 34q-30 0-55-13t-38-36-14-57q0-4 0-8t1-8q-22-21-32-45t-10-48q0-24 8-46t22-39l0-1-4-8q-11-18-11-37t10-34 30-24 45-9q23 0 50 8t56 27q5 4 11 8t11 8q19-11 37-20t37-16q26-10 47-14t38-4q31 0 46 13t16 34q0 18-12 39t-33 42-56 39q-16 9-33 15 1 5 2 9t1 10q1 4 1 8t0 8q0 28-13 51t-34 39-50 25-57 9q-22 0-44-5t-43-16q0 42 20 64t55 23q18 0 41-7t47-21q23-14 44-31t37-36 27-34q1-2 3-2 1 0 2 1t1 4q-17 29-46 57t-63 49q-25 14-50 21t-48 8m165-241q8-4 16-7t14-8q46-25 70-57t24-56q0-17-12-28t-36-11q-16 0-37 5t-47 17q-32 14-63 36 24 21 43 49t28 60m-214-10q23-29 54-56t64-48l-15-11q-26-17-51-25t-46-7q-32 0-54 15t-21 40q0 14 9 32 28-28 61-28 7 0 13 1t13 5q2 0 2 2 0 2-1 2t-4 0q-9-3-21-3-33 0-59 28l1 2q22 32 55 51m113 28q49 0 94-16-9-31-29-58t-45-47q-30 22-57 49t-48 57q20 8 42 11t43 4m-167 81q2-9 4-19t7-19q12-32 36-63-17-9-31-22t-26-28l-2 2q-22 28-22 66 0 21 8 42t26 41m131 55q36 0 67-13t50-39 19-59q0-6-1-11t-1-12l-2-10q-47 16-99 16-23 0-45-4t-42-10q-20 30-31 64-4 14-7 27t-4 24q2 1 4 2t4 3q21 11 44 17t44 5m231 53q-20 0-20-21 0-17 16-51 4-9 10-21t10-25 4-19q0-7-5-7-6 0-12 8t-11 16-7 15q-8 15-17 32t-19 30h-1q-1 0-3-2t-1-1q10-13 19-30t16-31q5-11 11-22t15-19 20-8q18 0 18 15 0 9-6 25t-16 41q-9 21-13 35t-4 22q0 10 6 10 7 0 23-13 13-12 26-30t27-48q4-8 8-21t7-21 4-10q8-2 19-5t18-7q-5 5-14 23t-19 39-17 44q-8 24-8 38 0 12 7 12 4 0 9-3t13-9q6-6 12-13t11-16q8-11 16-25t18-34q1-2 2-2 1 0 2 1t1 3q-27 53-47 79t-45 26q-9 0-14-6t-4-18q0-8 2-19t6-21q-19 32-36 48t-37 16m176 2q-10 0-17-8t-8-27q0-14 6-35t14-48 21-53 23-52 22-44 18-30q13-17 26-27t24-9q17 0 17 21 0 11-7 28t-21 41q-11 18-25 37t-28 37-27 32-21 23q0 0-4 9t-8 25-8 30-4 27q0 8 2 12t8 5q7 0 20-10 8-6 16-14t13-16 8-12q4-7 10-18t12-21 7-12q1-1 1-1 1 0 3 1t0 3q-12 25-22 42t-21 30-23 23q-6 5-13 8t-14 3m20-125q12-14 29-36t33-44 30-44 17-36 6-25q0-14-9-14-5 0-15 9t-19 28q-8 13-17 32t-18 40-17 40-13 32-7 18m-37 321q6-10 19-34t29-57 34-68 32-68q-1-2-1-4t0-3q0-12 5-22t13-14l1 0q6-15 10-27t6-22q2-8 2-14 0-8-5-8-3 0-9 4t-10 12q-9 13-15 24t-13 23-16 27q-1 1-4 1t-1-3q9-16 18-33t18-32 17-25 18-9q12 0 16 9t4 20q0 7-1 13t-2 12q4-9 12-22t19-23 22-10q16 0 22 10t7 23q0 14-5 30t-10 26q-11 23-28 39t-37 23q24 2 42-7t32-25 25-34 20-38q1-2 3-2 2 0 3 1t0 3q-10 20-21 39t-26 35-33 25-44 10q-17 0-27-4t-17-9l-4 10-4 6q-7 14-17 35t-21 45-21 47-16 37-9 20q-9 2-17 3t-15 5m144-208q15 0 28-11t23-26 16-28q2-5 5-14t6-20 3-19q0-8-3-14t-10-5q-7 0-15 8t-16 21-15 25-11 21q2 2 3 5t1 4q-2-1-4-1t-4 0l-22 46q3 8 15 8m145 10q-17 0-24-9t-6-24q0-14 5-30t10-26q16-33 44-51t60-18q4 0 8 0t8 1q10 2 10 3t-7 2-11 1q-24 0-44 13t-32 33-21 40-7 36q0 10 3 16t10 6q7 0 16-10t17-23 16-27 10-20l22-45q8-2 17-5t17-6q-9 14-17 30t-15 32q-6 11-12 27t-6 28v2q0 4 1 8t6 5q5 0 14-7t12-10q16-16 27-35t22-40q1-1 2-1 4 0 3 4 0 0-3 5t-2 5q-10 17-19 33t-23 31q-8 8-19 17t-23 9q-11 0-16-9t-4-20q0-7 1-14t3-11q-4 9-13 22t-19 22-21 10" />
</svg>