<svg id="fnt-Medula One" viewBox="0 0 1434 1000" xmlns="http://www.w3.org/2000/svg"><path id="medula-one" class="f" d="M88 375q-14 0-27 13v232l2 47q-17 2-34 2-8 0-8-8v-271q0-11-4-16t-14-4q-1-13 7-21t24-7 23 16q20-16 40-16 31 0 42 19 21-19 43-19 50 0 50 49v233q0 11 4 15t15 4q0 29-32 29-27 0-27-35v-243q0-19-19-19-16 0-26 12v233l2 47q-17 2-34 2-8 0-8-8v-267q0-19-19-19m257 95q0-10-6-16t-15-5q-18 0-18 15v72l24-18q15-12 15-48m-77 152v-156q0-49 58-49t58 55q0 22-8 40t-22 28l-48 33v46q0 21 19 21t20-24v-11l-1-24q6-1 13-1t13 2q12 3 12 11v36q0 20-16 31t-42 12q-56 0-56-50m219-2v-166h-20q-8 0-14 5t-5 14v147q0 18 15 18 7 0 14-6t10-12m0-198v-65q0-15-5-31 15-8 32-8 10 0 10 8v299q0 11 4 15t14 5q1 13-7 20t-20 7q-20 0-26-16-15 16-35 16t-31-14-12-37v-146q0-25 15-39t42-14h19m155 198v-157q0-19-4-41 15-2 33-2 8 0 8 7v198q0 11 4 15t14 5q1 13-7 20t-20 7q-20 0-26-16-15 16-35 16t-31-14-12-37v-158q0-10-4-15t-14-4q-1-13 7-20t22-7 20 8 6 26v169q0 18 15 18 7 0 14-6t10-12m78 15v-278q0-12-5-31 15-8 32-8 10 0 10 8v299q0 11 4 15t14 5q1 13-7 20t-21 7-21-9-6-28m150-76l-24 16q-17 11-17 37t16 26 25-18v-61m-19-142q56 0 56 49v159q0 11 4 15t14 5q1 13-7 20t-20 7q-21 0-26-16-15 16-36 16t-34-16-12-43q0-41 34-62l46-27v-54q0-21-20-21t-20 23v17l2 23q-7 2-14 2t-12-2q-12-3-12-12v-41q0-20 15-31t42-11m153 204v-231q0-25 17-39t46-14 46 13 16 38v231q0 25-17 39t-47 14-45-13-16-38m39-231v229q0 9 6 14t17 6 17-6 7-14v-229q0-10-7-15t-17-5-17 5-6 15m162 77v159q0 24 4 41-15 2-33 2-8 0-8-8v-198q0-10-4-15t-14-4q-1-13 6-20t24-7 23 15q16-15 35-15t31 12 12 36v160q0 11 4 15t14 5q1 13-7 20t-21 7-21-9-6-28v-167q0-17-17-17-14 0-22 16m190 3q0-10-6-16t-15-5q-19 0-19 15v72l24-18q16-12 16-48m-77 152v-156q0-49 57-49t58 55q0 22-8 40t-22 28l-48 33v46q0 21 20 21t20-24v-11l-2-24q7-1 13-1t13 2q12 3 12 11v36q0 20-16 31t-41 12q-56 0-56-50" />
</svg>