<svg id="fnt-Meie Script" viewBox="0 0 2726 1000" xmlns="http://www.w3.org/2000/svg"><path id="meie-script" class="f" d="M83 593q4 0 7 1t6 3 4 5 2 9q0 8-4 13t-8 8-8 7-4 6q0 3 2 5t6 3 7 1 6 0q12 0 22-1t19-4 19-7 21-9q7-3 17-9t20-14 22-16 22-17 19-16 15-14l103-101q50-50 106-87t115-61q1-1 4-1t5-1q2 0 4 1t1 2q0 4-1 7t-3 5-4 3-4 2q-9 4-22 14t-26 23-30 29-30 33-29 33-26 31q-10 13-22 27t-24 26-24 27-22 25q-4 5-7 8t-6 7-6 6-7 7q11-7 22-16t22-17 20-17 15-14l102-101q51-50 106-87t116-62q1 0 3 0t5-1q3 0 4 1t2 2q0 4-2 7t-3 5-4 3-3 2q-10 4-22 14t-27 23-29 29-31 33-28 33-26 31q-12 15-26 31t-28 31-28 30-23 27-16 23-6 17q0 10 3 13t13 3q10 0 23-3t27-9 27-10 24-11l3 6q-37 18-67 28t-51 11q-6 0-13-1t-11-4-9-10-4-15q0-9 10-24t25-34 36-43 44-49q13-14 23-26t20-22 18-20 19-20 22-23 27-27q-15 8-33 21t-37 27-35 29-30 28q-17 17-34 35t-36 37-38 36-39 33l-3 2q-12 10-26 19-10 7-21 14t-23 13q-14 8-24 12t-17 7-12 3-7 1q-2 0-4-1t-3-1-3-2-1-3q0-4 8-9t21-11q14-7 27-18t26-30q8-10 19-22t21-25 25-28 27-30q12-14 22-26t20-22 18-20 19-20 22-23 27-27q-15 8-33 21t-36 27-36 29-29 28q-24 24-50 51t-53 51-56 48-62 39q-14 7-25 11t-23 7-20 4-20 2q-12 0-21-4t-14-9-8-12-2-13q0-7 2-14t8-11 10-8 11-2m649 29l2 6q-31 14-52 22t-36 12-25 5-22 1q-8 0-16-2t-14-7-9-12-3-17q0-12 5-25t13-24 21-23 26-19 29-13 31-5q5 0 12 1t14 4 11 8 5 12q0 7-6 14t-17 15-25 15-28 14-30 12-28 11q0 2 0 4t0 3q0 10 6 16t17 6q9 0 19-1t22-4 31-10 47-19m-54-86q-6 0-14 4t-16 9-17 14-16 18-13 18-9 19q11-4 22-8t23-10 21-11 18-12 11-13 5-14q0-6-3-10t-12-4m231-78q0 4-2 7t-6 7-8 4-9 2q-4 0-7-1t-6-3-5-5-1-8q0-5 2-8t6-5 9-3 9-1q7 0 12 3t6 11m-144 170q-4 4-6 8t-2 8q0 6 4 8t11 1q7 0 16-1t23-4 29-10 36-16l2 6q-18 11-37 18t-35 13-32 6-26 2q-14 0-20-6t-6-18q0-6 4-13t13-19q9-12 19-23t21-23q7-8 14-16t14-15 12-10 8-4q2 0 6 1t6 2 6 3 2 5q0 3-3 7t-9 10l-41 45q-1 2-5 6t-7 8-9 10-8 11m266-6l3 6q-32 14-53 22t-35 12-26 5-22 1q-8 0-16-2t-13-7-10-12-3-17q0-12 5-25t14-24 20-23 26-19 29-13 31-5q5 0 13 1t14 4 11 8 4 12q0 7-6 14t-17 15-24 15-29 14-30 12-27 11q-1 2-1 4t0 3q0 10 6 16t17 6q10 0 19-1t22-4 32-10 46-19m-53-86q-7 0-15 4t-16 9-17 14-16 18-13 18-9 19q11-4 22-8t23-10 21-11 18-12 12-13 4-14q0-6-3-10t-11-4m625-69q14-16 26-28t18-21 13-14 8-9q22-24 42-41t41-30 40-18 40-7q4 0 10 1t10 2 8 6 3 11q0 18-11 36t-27 34-38 30-43 26-43 18-35 11q-13 3-29 4-12 13-24 27t-25 28-24 27-23 25q-17 17-35 32t-37 26-40 17-44 6q-26 0-41-10t-14-27q0-6 2-13t6-11 10-9 13-3q9 0 14 5t5 13q0 8-4 13t-8 8-8 7-4 6q0 5 6 8t16 2q19 0 36-5t33-17 30-25 30-32q19-22 41-46t45-51q-11-1-26-4t-27-7-22-13-8-19q0-10 5-17t13-12 18-10 21-6 20-4 18-2l1 3q-8 1-19 4t-22 10-18 15-7 18q0 9 6 15t16 10 21 5 21 2m134-101q-24 24-46 48t-44 51q6-1 13-2t13-3q9-3 21-7t25-12 28-14 28-18 25-19 22-21 14-20 5-21q0-3-1-5t-5-3-6-1-6 0q-11 0-22 3t-22 11-22 15-20 18m-24 263q0 6 3 11t8 8 11 4 15 1q21 0 46-8t59-25l2 6q-12 8-28 15t-33 14-35 9-32 3q-12 0-21-2t-17-7-11-12-4-17q0-12 6-24t14-25 21-23 26-20 27-13 26-5q8 0 16 1t12 5 8 8 3 12q0 5-3 11t-7 9-10 7-11 2q-8 0-12-3t-3-7q0-6 4-10t8-6 9-4 3-4q0-3-1-4t-5-2q-11 0-22 5t-21 14-20 18-16 20-11 21-4 17m215-142q5 0 10 3t7 6q4 5 5 12t1 15l0 12q3 1 8 2t11 1q11 0 25-4t34-14q1 0 1 1t1 2 2 3q-4 2-7 4t-6 5q-3 3-8 8t-11 11-10 12-8 10q-8 10-15 21t-13 19-8 16-4 11q0 7 4 8t11 2q7 0 17-1t22-5 29-9 37-17l2 6q-19 11-37 19t-36 12-32 7-26 2q-13 0-19-7t-6-17q0-5 2-10t8-14 13-17 20-24q0 0 3-3t6-7 7-7 7-8 5-5 3-3q-4 0-8 1t-8 1q-4 0-9-1t-9 0q-2 7-4 14t-7 13-11 13-17 13l-6-4q10-6 16-13t10-13 5-14 2-13q-6-2-12-5t-10-8-7-9-2-12q0-9 6-15t16-6m311-29q0 4-2 7t-6 7-8 4-10 2q-3 0-6-1t-6-3-5-5-2-8q0-5 3-8t6-5 8-3 9-1q8 0 13 3t6 11m-145 170q-3 4-5 8t-3 8q0 6 4 8t12 1q6 0 16-1t22-4 29-10 37-16l2 6q-19 11-37 18t-36 13-31 6-27 2q-13 0-19-6t-6-18q0-6 4-13t12-19q10-12 20-23t20-23q7-8 15-16t13-15 12-10 9-4q2 0 5 1t7 2 5 3 3 5q0 3-4 7t-8 10l-41 45q-2 2-5 6t-7 8-9 10-9 11m221-69q-19 14-37 30t-34 32q-2 3-11 13t-22 24-29 33-32 36-33 37-29 32-22 24-10 11q-3 3-6 4t-6 2q-1 0-2 0t-3-1q-5-1-8-4t-3-6q0-3 1-5t5-6l243-276q2-2 4-4t3-4q7-8 14-16t14-14 12-11 9-4q1 0 5 1t7 2 5 4 3 4q0 3-4 7t-9 10l-27 30q16-11 35-17t37-6q15 0 21 4t6 13q0 9-6 19t-13 20-17 19-17 18-13 16-6 13q0 3 2 5t3 3 4 2 5 0q13 0 27-3t27-7 26-10 25-12l3 6q-8 5-22 12t-32 13-38 10-39 5q-11 0-18-6t-7-18q0-6 4-13t10-17 14-17 15-17 14-15 11-12q1-2 4-5t2-7q0-2-1-3t-5-1q-8 0-15 1t-14 5-14 7-16 10m243-106l46 3q8-9 15-17t14-17q5-6 11-13t13-15 14-16 14-14 12-9 8-4q2 0 5 0t7 3 5 3 3 4q0 3-4 7t-9 10l-40 46q-2 2-5 5t-7 9-9 10-9 10l57 3-11 16h-63q-13 15-26 29t-24 29-23 26-19 23-15 17-8 9q-9 11-14 20t-6 14q0 6 4 8t11 1q7 0 17-1t22-4 29-10 36-16l3 6q-19 11-37 18t-36 13-32 6-26 2q-13 0-19-6t-6-18q0-7 5-17t19-25q1-2 6-8t13-15 18-21 21-25 24-27 24-28h-46l18-24" />
</svg>