<svg id="fnt-Merienda" viewBox="0 0 2300 1000" xmlns="http://www.w3.org/2000/svg"><path id="merienda" class="f" d="M209 580q-8 0-14-3t-7-6q-15-39-32-83t-35-85-37-74-38-51q4-4 9-7t11-4 9-2q14 0 25 5t21 19 24 45 32 78 47 123q14-20 31-45t35-54 34-57 29-58 16-55q10 11 14 22t3 22-5 23-11 29q-17 36-40 71t-45 70-46 70q-6 3-16 5t-14 2m-119 89q-15 0-25-2t-16-7-9-10-2-12 2-26 8-49 9-61 9-67 7-64 3-52q0-19-2-31t-5-19q20 6 29 16t13 24 3 29q0 41-6 86t-14 96-6 108q0 10 0 21t2 20m305 13q-22-7-35-18t-18-26-5-36q0-14 2-35t6-47 8-58 8-63 6-67 2-66q15 1 25 6t16 12 8 17 3 24q0 16-3 44t-8 62-10 71-9 68-3 58q0 38 7 54m193-8q-27 0-48-15t-32-44-12-63q0-37 11-69t30-55 46-37 57-13q37 0 56 19t19 54q0 26-15 47t-40 34-57 12q-16 0-30-2t-27-5l1-17h19q29 0 50-10t34-28 12-41q0-18-9-27t-23-10q-19 0-34 14t-25 37-16 49-6 50q0 44 13 66t40 22q49 0 80-49 19 3 19 14-22 35-49 51t-64 16m253-193l4 1q13-39 28-62t30-32 27-10q14 0 23 8t14 20 5 28q0 16-5 30t-17 24-29 9q-3 0-6-1t-6 0q6-9 11-24t6-26q0-8-4-13t-11-5q-11 0-24 13t-26 38-20 62-7 83q0 10 1 21t1 22q-5 0-8 0t-7 1q-21 0-33-10t-11-33q0-11 3-32t8-45 7-53 3-52q0-20-2-39t-6-36q31 12 42 34t11 51q0 5-1 12t-1 16m221 142q0 18 2 31t4 20q-19-7-31-19t-15-29-5-41q0-22 4-49t8-55 4-54q0-13 0-26t-3-25q4 0 8-1t7 0q22 0 32 10t10 33q0 15-6 45t-12 72-7 88m23-289q-6 2-13 3t-14 2-14-3-12-8-5-15q0-8 3-16t6-17q6-2 13-4t14-1q7 0 14 2t12 8 5 16q0 8-3 16t-6 17m166 340q-27 0-48-15t-32-44-12-63q0-37 11-69t30-55 46-37 57-13q37 0 56 19t19 54q0 26-15 47t-40 34-57 12q-16 0-30-2t-27-5l1-17h19q29 0 50-10t34-28 12-41q0-18-9-27t-23-10q-19 0-34 14t-25 37-16 49-6 50q0 44 13 66t40 22q49 0 80-49 19 3 19 14-22 35-49 51t-64 16m252-181l3 1q13-34 32-60t40-41 39-15q30 0 41 19t11 52q0 24-5 53t-9 58-5 59q0 24 7 35t21 20q-5 0-9 0t-9 0q-34 0-48-12t-15-46q0-15 3-35t7-40 7-43 3-40q0-33-20-33-14 0-31 14t-33 39-26 61-10 79q0 11 0 23t3 26q-5 0-9 0t-7 1q-21 0-33-10t-11-33q0-11 3-32t8-45 7-53 3-52q0-20-2-39t-6-36q31 12 42 34t11 51q0 10-1 20t-2 20m416 93l-3-1q-10 28-28 47t-38 30-42 10q-19 0-36-10t-26-33-10-56q0-41 12-76t31-59 48-38 58-14q10 0 19 2t20 4q-36 6-62 25t-41 44-23 54-8 51q0 17 5 31t14 24 26 9q21 0 38-15t28-43 21-60 14-70 8-71 4-65 2-50q0-20-1-37t-3-31q18 6 29 20t17 36 5 48q0 30-5 66t-12 77-11 83-5 88q0 35 4 70-19-7-30-21t-15-31-4-38m312-3l-4-1q-9 26-27 46t-40 33-44 12q-33 0-52-26t-19-73q0-38 11-71t29-58 44-40 54-14q8 0 18 2t21 5q-27 7-50 23t-39 38-25 50-9 58 11 47 30 16q20 0 39-16t33-44 24-63 8-73q0-13-1-27t-3-24q5-1 9-1t8 0q20 0 31 10t11 31q0 13-4 33t-8 46-9 54-3 55q0 22 3 37t12 35q-32-6-46-28t-14-63q0-4 0-6t1-3" />
</svg>