<svg id="fnt-Metamorphous" viewBox="0 0 4185 1000" xmlns="http://www.w3.org/2000/svg"><path id="metamorphous" class="f" d="M8 667v-21q22-3 27-5 10-5 12-15l71-340h18l135 298 131-298h17l68 316q6 29 15 36 5 4 13 5t20 3v21h-139v-21q26-4 32-7 9-5 9-18 0-4-1-9l-1-10-39-205-125 282h-16l-127-282-42 220q-1 4-1 9t2 8 8 6q10 4 37 6v21h-124m782-51l14 14q-34 42-101 42-64 0-100-42-35-40-35-107 0-68 38-112 39-44 99-44 46 0 72 19 25 19 25 51 0 41-40 69-47 33-141 34 8 100 90 100 51 0 79-24m-170-102q87-2 118-41 11-15 11-37 0-28-24-39-10-4-24-4t-25 5-20 14-15 20-11 25q-9 28-10 57m254 153v-21q11-2 17-4t10-6q5-7 5-37v-197h-42v-23q36-5 41-10h0q5-8 10-33t5-38l35-14v88h88v30h-88v197q0 22 3 28t9 10 13 4q13 2 49 3v23h-155m279-250q-5 8-5 18t10 23l-17 10q-29-4-42-24-4-6-4-17t8-22 24-20q34-18 85-18 84 0 104 48 6 15 6 34v153q0 28 6 34t13 7 20 3v21h-60q-18 0-41 2-48 4-74 4t-45-7-32-18q-24-22-24-55 0-37 42-67 51-38 146-40v-43q0-51-68-51-38 0-52 25m120 94v0h0l0 0m0 87v-87q-132 8-132 82 0 38 39 50 12 3 31 3t31-2 20-7 9-15 2-24m139 69v-21l6-1q23-3 28-8t6-12 1-22v-174q0-22-5-27t-14-7-22-2v-21h91v51q10-23 23-36 22-23 51-38 31 18 47 33 25 27 37 56 19-39 60-69 13-10 29-20 46 25 70 53 37 42 45 125 2 30 2 57t1 36 5 15 10 7 16 3l9 1v21h-134v-21q14-1 23-3t12-6q8-7 8-39l0-37q0-70-12-104-13-37-55-74-30 26-44 52t-17 57q-5 43-5 84t1 49 6 11q6 6 28 9l7 1v21h-134v-21q14-1 23-3t12-6q7-6 7-38v-29q0-79-8-107t-19-45-32-34q-33 21-50 47-22 34-22 82v82q0 33 4 39t12 8 20 4l6 0v21h-133m534-149q0-19 3-38t12-36 19-31 27-24q32-22 75-22 65 0 103 46 34 43 34 105 0 63-34 107-38 48-103 48-65 0-103-49-33-44-33-106m107 122q13 5 29 5t29-5 22-14 15-22 9-26q7-26 7-51t-1-40-6-29-9-25-15-21q-20-19-50-19-58 0-75 67-7 25-7 58 0 100 52 122m414-169l-14-11q14-13 14-40 0-13-12-20-11-7-32-7-47 0-47 31v185q0 11 2 18t10 11q12 7 58 8v21h-163v-20l1-1q29-3 34-8t7-12 2-19v-169q0-26-6-33t-12-9-20-4v-20h50q30 0 43-1t20-2q22-2 36-2t28 2 26 8q25 11 25 36 0 20-17 37-15 16-33 21m258 202q-45 0-76-33v107q0 24 10 30 7 5 37 8v20h-136v-20l0 0q25-3 30-7 9-7 9-31v-314q0-24-5-30t-14-8-23-3v-20h63q15 0 35-2 39-3 60-3t40 6 36 16 27 26 19 31q15 34 15 69t-8 63-23 48q-34 47-96 47m72-151q0-129-85-129-56 0-61 31-2 9-2 19v134q0 29 21 49 22 19 49 19t42-11 22-29q14-30 14-83m205-215v116q22-44 82-74 42 23 64 50 36 44 44 128 2 30 2 57t1 37 4 15 9 6 12 3 9 1 5 0v21h-133v-21q14-1 22-3t13-6q7-7 7-39v-29q0-55-3-77t-6-36-11-26q-13-23-41-46-37 22-54 45-26 34-26 84v82q0 17 1 27t6 14 12 7 24 3v21h-134v-20l0-1q15-1 23-3t12-6q7-7 7-34v-296q0-27-6-32t-14-7-22-3v-21h134v21q-14 1-22 3t-13 5q-8 6-8 34m276 211q0-19 4-38t11-36 20-31 26-24q33-22 76-22 64 0 102 46 35 43 35 105 0 63-35 107-38 48-102 48-65 0-103-49-34-44-34-106m108 122q12 5 29 5t29-5 21-14 15-22 10-26q7-26 7-51t-2-40-5-29-10-25-15-21q-19-19-50-19-58 0-75 67-6 25-6 58 0 100 52 122m362 39q-47-27-69-51-38-43-46-123-3-29-3-54t-1-33-4-14q-5-9-29-11v-21h120v21q-24 2-31 10-6 8-6 35t1 50 3 42 7 34 13 27q14 25 45 54 31-30 42-48t15-33 7-34q4-31 4-69t-1-46-4-12q-8-8-31-10v-21h119v21q-24 3-28 9t-5 15-1 34-3 54-8 51-16 40-22 32q-22 24-68 51m377-221l-13-10q9-14 9-26t-14-20-33-9-29 3-17 10q-14 12-14 32 0 24 40 45 12 6 20 9 62 28 78 41t24 26 8 30-10 34-27 27q-33 23-81 23-44 0-77-19-36-19-35-49 0-17 15-31 13-13 31-17l11 13q-9 11-9 30 0 17 18 31 19 14 49 14t48-13 18-37q0-27-45-47-14-6-22-10t-11-4-12-6-26-13-27-20q-26-23-26-51 0-36 31-57 30-20 79-20 39 0 63 15t25 38q0 14-13 25-12 10-26 13" />
</svg>