<svg id="fnt-Milonga" viewBox="0 0 1879 1000" xmlns="http://www.w3.org/2000/svg"><path id="milonga" class="f" d="M415 310v301q0 12 5 19t13 10 17 5 14 1v21q-5 0-15-1t-21-2-22-2-15 0-15 0-21 2-20 2-15 1v-21q6 0 15-1t16-5 13-10 5-19v-261l-126 317h-23l-124-317v261q0 12 5 19t13 10 17 5 14 1v21q-5 0-13-1t-18-2-18-2-14 0-13 0-18 2-18 2-14 1v-21q7 0 15-1t17-5 12-10 6-19v-301q0-16-12-24t-33-8q0-9 6-15t23-6q11 0 21 4t17 11q7-6 17-11t22-4q16 0 22 6t6 15q-27 0-39 15 5 5 10 12t9 17 8 17 6 15l93 241 95-252q6-16 12-28t13-22q-11-15-40-15 0-9 6-15t23-6q11 0 21 4t17 11q7-6 17-11t22-4q16 0 22 6t6 15q-20 0-32 8t-12 24m108 49q0-15 11-26t25-10 24 10 11 26-11 25-24 10-25-10-11-25m57 74v184q0 10 3 17t8 10 11 6 12 2v15q-6 0-13-1t-15-2-16-2-13 0-13 0-15 2-16 2-13 1v-15q14 0 24-8t11-27v-86q0-18-1-31t-4-19-10-9-18-3v-15q12 0 21-1t16-5 13-7 13-8h15m138-171v355q0 10 3 17t8 10 11 6 13 2v15q-6 0-14-1t-15-2-15-2-13 0-14 0-15 2-15 2-13 1v-15q13 0 24-8t10-27v-259q0-18-1-31t-4-19-10-9-18-3v-12q13 0 22-2t17-4 13-7 14-9h12m186 412q-25 0-47-9t-37-25-25-38-9-51q0-28 9-50t25-38 37-23 47-7q24 0 46 7t37 23 25 38 9 50-9 51-25 39-37 24-46 9m0-23q19 0 32-8t21-22 13-32 4-38q0-19-4-37t-13-30-22-20-31-8-32 7-22 20-12 31-4 37 4 38 12 32 22 22 32 8m351-78q0-33-4-56t-9-36-17-19-23-6-25 5-20 16-15 28-5 41v71q0 10 3 17t8 10 11 6 13 2v15q-6 0-14-1t-15-2-15-2-13 0-14 0-15 2-15 2-13 1v-15q13 0 24-8t10-27v-83q0-19-1-31t-4-19-10-10-18-2v-13q13 0 22-1t17-5 13-7 14-8h12v35q10-18 26-29t40-11q50 0 73 30t24 99v53q0 10 3 16t8 11 11 5 12 2v18q-6 0-11-1t-11-2-12-1-16-1q-6 0-15 1t-19 4l-5-9q4-3 6-13t2-21 1-25 1-26m218 101q-27 0-48-9t-34-26-21-38-7-50q0-31 9-54t26-36 36-22 41-6q23 0 40 6t33 28q3-11 9-17t15-9 18-3 19 0v15q-7 0-11 2t-7 15-3 35 0 64v114q0 57-29 83t-88 26q-37 0-55-8t-18-20q-13 0-18-9t-6-18q0-8 4-15t10-10 13-6 12-2q0 14 3 25t11 21 19 14 29 5q15 0 28-4t21-15 14-28 5-42v-32q-17 16-35 21t-35 5m7-23q17 0 30-8t21-21 13-32 4-38q0-19-4-37t-12-30-22-21-30-7q-20 0-33 7t-22 20-11 30-4 37q0 20 3 38t12 31 21 22 34 9m363-107v73q0 10 3 17t8 10 11 6 13 2v15q-12 0-20-2t-20-2-20 0-20 4v-27q-11 13-27 23t-39 11q-19 0-34-5t-26-15-17-23-6-29q0-16 6-29t18-22 27-13 35-5q21 0 36 4t27 10v-18q0-13-2-26t-6-24-15-17-24-6q-7 0-15 1t-14 5-11 10-4 16q0 5 1 12-7 4-16 4-14 0-21-8t-6-18 6-18 20-7q0-6 5-10t13-6 18-3 21-1q22 0 40 5t30 18 19 34 6 54m-97 107q17 0 30-11t22-24v-50q-11-6-25-10t-28-3q-20 0-35 12t-14 34q0 23 14 37t36 15" />
</svg>