<svg id="fnt-Mitr" viewBox="0 0 951 1000" xmlns="http://www.w3.org/2000/svg"><path id="mitr" class="f" d="M48 667q-10 0-14-5t-4-13v-304q0-9 4-14t15-4h27q8 0 12 2t7 8l101 232 101-232q2-6 6-8t13-2h27q10 0 14 4t5 14v304q0 9-5 13t-14 5h-22q-10 0-14-5t-5-13v-216l-85 191q-4 8-8 11t-13 4-14-4-7-11l-86-191v216q0 9-4 13t-15 5h-22m398-282q-12 0-19-7t-6-17v-10q0-10 6-17t19-7h21q12 0 19 7t7 17v10q0 10-7 17t-19 7h-21m-2 282q-10 0-15-5t-4-13v-204q0-9 4-14t15-4h26q10 0 14 4t5 14v204q0 9-5 13t-14 5h-26m218 7q-42 0-64-23t-21-65v-112h-29q-10 0-13-4t-3-13v-13q0-10 3-14t13-3h29v-28q0-10 3-20t12-23q3-6 6-8t10-1h16q9 0 13 4t4 13v63h59q10 0 13 3t3 14v13q0 10-3 13t-13 4h-59v110q0 23 8 33t27 10q12 0 20-3t17-9q3-2 6-2t6 5l14 24q2 2 2 5 0 4-5 7-31 20-74 20m137-7q-10 0-14-5t-5-13v-209q0-7 3-10t10-3h29q5 0 8 2t3 8l1 18q30-36 78-36 22 0 33 8 3 2 4 4t0 5l-9 30q-2 5-6 5l-4-1q-12-5-27-5-26 0-42 14t-17 39v131q0 9-4 13t-15 5h-26" />
</svg>