<svg id="fnt-Mochiy Pop One" viewBox="0 0 4457 1000" xmlns="http://www.w3.org/2000/svg"><path id="mochiy-pop-one" class="f" d="M112 703l-88 0q-2-49-2-95 0-82 5-148t15-113q4-22 12-42t24-33 40-12q25 0 42 12t27 31 16 35q13 39 22 78t16 74q5-26 12-55t13-54 12-43q25-78 78-78 30 0 50 21t30 61q5 18 9 53t9 81 8 105 5 121l-88-2q0-27-1-62t-4-73-5-73-5-65-5-47-5-17q0 0-5 18t-12 47-14 65-16 71-14 66-9 50l-79 2q-6-28-14-62t-17-69-17-68-16-59-12-41-5-15q-2 0-5 21t-4 59-3 84-1 96q0 23 0 43t1 32m551 5q-40 0-70-13t-49-36-29-52-9-62q0-33 11-62t33-49 49-33 61-11q34 0 64 12t51 33 34 51 13 63q0 75-42 117t-117 42m0-81q36 0 55-21t20-59q0-34-21-55t-55-21q-21 0-38 10t-27 29-10 39q0 19 7 37t25 29 44 12m345 80q-42 0-78-17t-57-51-21-78q0-51 20-89t56-60 84-21q46 0 78 18t57 60l-70 48q-14-23-28-35t-40-11q-34 0-55 23t-21 64q0 23 11 37t28 22 31 7q15 0 29-4t27-17 22-39l75 40q-15 27-33 51t-46 38-69 14m267-8l-85 2q0-30 0-78t1-106 3-123 4-129l85-1q-2 29-4 70t-3 88q34-32 79-32 30 0 50 11t33 28 19 39 9 41 3 36q0 33-1 66t-1 57 0 34l-87 1q2-20 2-45t1-53 1-52q0-81-38-81-12 0-26 6t-27 19-20 35q0 33 0 64 0 28 0 53t2 50m327-355h-86q0-5 0-10t0-10q0-16 1-34t2-31l89 2q-2 17-4 38t-2 45m-1 358h-87q-1-31-2-67t0-70q0-47 1-91t2-80l86 0q-2 23-2 56t-1 71q0 37 1 72t1 64 1 45m129 100l-75-40q28-31 54-64t51-67q-24-31-47-68t-44-71-32-62l80-35q9 24 23 52t31 57 36 55q54-87 89-172l83 33q-22 43-51 92t-60 100-67 99-71 91m523-104l-84 2q-1-16-1-32t0-32q0-74 3-143t7-132q-20 5-33 9l-20-80q25-7 52-13t53-10 49-5 37-2q15 0 38 3t47 10 45 23 34 42 14 66q0 41-18 68t-48 43-65 24-70 7q-22 0-42-2 0 24 0 47 0 32 0 59t2 48m60-356q-13 0-27 1t-27 3q-2 26-4 57t-2 64q18 1 38 1 120 0 120-71 0-28-24-41t-74-14m375 366q-40 0-70-13t-49-36-29-52-10-62q0-33 12-62t32-49 49-33 61-11q35 0 64 12t52 33 34 51 12 63q0 75-41 117t-117 42m-1-81q37 0 56-21t19-59q0-34-21-55t-55-21q-20 0-37 10t-28 29-10 39q0 19 8 37t25 29 43 12m287 175l-85 7q-3-40-5-81t-1-93q0-65 2-129t6-117l86 3q-2 11-3 24 18-12 39-17t42-6q28 0 54 9t47 27 33 49 12 71q0 41-12 71t-34 50-47 30-53 10q-51 0-89-30 1 32 3 61t5 61m68-326q-50 0-75 49-1 30-2 61 12 16 31 27t49 12q70 0 70-80 0-22-8-35t-20-21-24-10-21-3m521 224q-47 0-85-17t-67-48-43-69-15-83q0-40 12-79t37-70 62-51 89-19q54 0 93 18t65 49 38 69 13 79q0 49-15 89t-41 70-63 46-80 16m0-83q30 0 56-15t41-46 15-82q0-44-17-72t-44-41-56-14q-34 0-57 12t-37 32-20 46-6 51q0 26 10 49t27 41 40 28 48 11m332 85l-80 1q-2-44-3-82t0-74 0-73 3-79h85q-2 23-4 46 17-22 41-36t55-14q32 0 52 10t32 29 17 42 7 51 1 55q0 30-1 58t-2 46-1 22h-84q1-21 2-44t2-46 1-41q0-107-35-107-28 0-52 25t-38 62q0 5 0 10 0 24 0 50t1 49 1 40m406 5q-48 0-84-19t-57-52-20-78q0-26 9-56t29-54 53-42 80-16q34 0 57 8t38 19 22 26 11 25 3 21q0 48-41 74t-115 27q-17 0-33-2t-28-3q10 25 32 36t45 12q34 0 60-12t49-38l45 64q-16 13-36 27t-48 23-71 10m11-242q-29 0-52 15t-33 40q13 2 25 3t24 1q11 0 25-2t28-6 23-10 9-15q0-4-4-10t-14-11-31-5" />
</svg>