<svg id="fnt-Modak" viewBox="0 0 1481 1000" xmlns="http://www.w3.org/2000/svg"><path id="modak" class="f" d="M276 671q-33 0-52-11-21-11-22-32l-3-23q23-6 38-28 4-7 4-11 0-7-6-7h-1q0 1-1 1-17 36-55 36-20 0-33-9t-26-29h-1q-7 0-7 5 0 4 3 9 10 16 25 26 11 7 24 9l-2 46q-15 9-31 14t-46 4-53-12q-29-14-29-40 0-32 12-158 7-65 11-91 26-23 75-23 35 0 59 13l13 45-8 36q-1 4-1 7 0 9 9 9l24-97q10-5 26-9t35-4q35 0 53 12t20 41q1 5 2 18 22 191 22 224-27 29-78 29m216-140v42q2 2 6 2t6-3 1-9v-35q0-23-2-31t-7-8q-3 0-6 3 2 24 2 39m-91 108q-40-39-40-105t38-104 99-38 99 40q38 39 38 103t-37 102-98 37-99-35m385-145q-2-3-5-3-6 0-8 8t-2 31v25q0 6 2 9t6 3 5-2v-33q0-24 2-38m-17-145q13-15 28-23t40-7q29 0 48 16 19 18 19 47v162q0 36 17 47 0 1 0 5v4q0 35-21 54-18 17-46 17-19 0-32-8-17-9-23-25-9 0-9 8 0 3 3 8t8 8q-15 9-38 9-31 0-58-14t-42-43q-19-33-19-80 0-63 35-98t90-36q32 0 56 12 3-2 3-5 0-8-18-13t-35-5q0-25-6-40m410 149v48q0 17 4 28t14 17q0 1 0 5v4q0 35-21 54-19 17-46 17-19 0-34-9t-22-25q-8 0-8 8 0 7 8 15-16 11-48 11-45 0-72-24t-27-69 29-68q26-22 67-22 15 0 28 2 9 2 9 2 1-3 1-4 0-7-11-9t-28-2q-37 0-63 15-12-20-12-51 0-18 5-27 17-8 44-14t57-6q62 0 94 27t32 77m-127 60q-10 0-10 9 0 9 12 9 8 0 12-4t4-14q0 0-18 0m276 17l-12 5q0 16 7 35 5 17 15 31-25 25-67 25-25 0-43-13-21-15-21-39v-285q12-6 28-11t33-4q28 0 47 11 20 13 20 37v26q0 32-11 63-2 3-8 9t-9 11-3 9 6 6q19-18 30-39t20-55q3-1 7-2t14-2 13-1q38 0 59 17t21 47-19 51q-18 20-46 30 23 13 57 18 13 24 13 51t-17 45q-19 20-53 20t-55-26-26-70" />
</svg>