<svg id="fnt-Modern Antiqua" viewBox="0 0 3896 1000" xmlns="http://www.w3.org/2000/svg"><path id="modern-antiqua" class="f" d="M115 667h-120q33-7 46-34l1-2 51-343 131 296 126-296 51 343 1 2q13 27 46 34h-141q46-18 46-33 0-1 0-2l0-1-32-211-111 256-112-258-29 213 0 2q0 15 46 34m408-133q0 55 12 81 16 34 45 34 27 0 42-38 13-32 13-75v-1q0-50-19-82-16-26-38-26 0 0-1 0-23 0-38 27-16 26-16 80m-53 4q0-40 14-72 15-32 40-50 24-18 54-18 30 0 55 18 24 18 39 50t15 69q0 37-15 69t-39 50q-25 19-55 19-28 0-54-19-25-17-40-49-14-31-14-67m323-4q0 55 13 81 16 34 47 34 23 0 43-19l2-3q3-5 3-17v-146q0-8-7-18-13-19-38-19h-1q-30 0-46 27-16 26-16 80m-53 4q0-40 15-72 15-32 39-50 25-19 55-19 28 0 52 17v-68q0-6-3-9-3-3-16-5-13-3-27-6 15-7 75-28 7-3 20-6v318q0 6 3 9 4 3 15 6 20 5 28 5-15 7-75 28-41 15-70 15-1 0-2 0-29 0-55-19-25-17-39-49-15-31-15-67m293-3q0-37 14-69 15-32 40-50 24-18 54-18 28 0 54 16 18 10 32 34 11 17 12 37 0 43-39 71-33 23-77 23-1 0-35-1 6 25 16 40 17 27 45 27h1q30 0 51-26 8-11 15-29l29 8q-1 4-2 6-21 37-39 50-31 19-58 19h-1q-34 0-58-19t-40-50-14-69m160-50q0-28-15-43-12-14-35-16h0q-27 0-43 26-13 20-16 50-1 17-1 37 0 7 1 16 22 1 44 1 12 0 17-2 24-6 34-20 14-24 14-49m229 182h-141q31-6 46-35l1-1v-171q0-6-4-9-4-4-14-6-22-5-29-5 17-8 75-28 41-14 71-14 1 0 2 0 39 0 69 27 24 28 24 57 0 1 0 1 0 13-9 23-9 10-23 10t-22-9q-10-10-10-22 0-1 0-1 0-14 10-23 9-9 21-9-2-10-24-23-11-6-29-6-3 0-6 0-26 2-44 14-1 1-7 7-3 3-3 16v171l0 2q14 27 46 34m251 0h-141q30-6 46-35l0-1v-179q0-6-3-9-5-4-15-6-22-5-28-5 8-4 74-28 11-4 20-6v18l1 0q25-18 55-18 29 0 54 18 25 18 39 50t15 69v2 82q0 6 3 8 5 4 15 6 22 5 28 6-13 6-74 27-11 4-20 7v-137-1q0-55-22-82-20-26-48-26 0 0-1 0-31 0-45 23v181l1 2q13 27 46 34m413 0h-120q30-6 45-35l1-1 131-343 133 343 0 0 1 2q15 28 45 34h-141q47-14 47-31 0-1-1-3l0-2-38-96h-112l-36 96-1 2q0 1 0 3 0 15 46 31m46-286l-46 129h94l-48-129m324 286h-141q30-6 46-35l0-1v-179q0-6-3-9-5-4-15-6-22-5-28-5 8-4 75-28 10-4 20-6v18l0 0q25-18 55-18 29 0 54 18 25 18 40 50t14 69v2 82q0 6 3 8 5 4 15 6 23 5 29 6-14 6-75 27-10 4-20 7v-137-1q0-55-21-82-20-26-48-26-1 0-1 0-31 0-45 23v181l0 2q13 27 46 34m151-207l44-72q-1 6-1 12 0 16 17 16 0 0 1 0h1 39v-70q0-6-4-9-3-3-16-6-13-2-27-5 22-10 75-28 9-3 20-6v124h52 2q31-2 46-18l-43 71q1-6 1-12 0-16-17-16-1 0-1 0h-1-39v190l0 2q14 27 46 34h-141q30-6 46-35l1-1v-190h-52-2q-31 2-47 19m247-28q18-8 75-28 9-3 20-6v233l0 2q13 27 46 34h-141q30-6 46-35l0-1v-179q0-6-3-9-5-4-16-6-24-5-27-5m48-85q-9-10-9-23t9-23 23-9 22 9 9 23-9 23-22 9-23-9m183 189q0 54 16 81 16 26 47 26 25 0 38-19 6-10 7-18v-2-144q0-13-4-16l-2-4q-19-19-42-19-2 0-4 0-28 1-44 34-12 26-12 81m-53-4q0-36 14-67 15-31 40-49 26-18 58-18 28 0 69 14 59 21 75 28-6 0-29 5-9 2-15 6-3 3-3 9v276l1 2q15 29 46 34h-142q33-6 46-34l1-2v-80q-24 17-53 17-30 0-54-19-25-18-40-50-14-32-14-72m429-128h141q-30 6-46 34l0 2v179q0 6 3 8 5 4 15 6 22 5 28 6-14 6-75 27-10 4-20 7v-19l0 0q-25 19-55 19-29 0-54-19-25-18-40-50t-14-69v-1-82q0-6-3-9-6-4-15-6-22-5-29-5 14-6 75-28 10-4 20-6v136 1q0 56 21 83 20 25 48 25 1 0 1 0 31 0 45-22v-181l0-2q-13-27-46-34m231 130q0 55 12 81 16 34 43 34 4 0 8 0 20 0 39-18l2-4q4-4 4-17v-150q0-13-4-16l-2-4q-19-19-39-19-4 0-7 0-28 0-44 34-12 27-12 79m-53-2q0-36 14-67 14-31 40-49 26-18 58-18 28 0 69 14 59 21 75 28-6 0-29 5-10 2-15 6-3 3-3 9v150q0 7 3 9 5 4 15 6 23 5 28 6-16 7-74 27-41 15-70 15-32 0-58-19-25-17-39-49-14-30-14-73" />
</svg>