<svg id="fnt-Moderustic" viewBox="0 0 2618 1000" xmlns="http://www.w3.org/2000/svg"><path id="moderustic" class="f" d="M44 667v-350h45l133 261 134-261h45v350h-45v-263l-123 238h-22l-122-238v263h-45m542 10q-38 0-65-16t-40-47-14-75q0-41 14-71t40-46 65-15q62 0 93 35t31 97q0 66-31 102t-93 36m1-35q40 0 59-25t19-77q0-49-19-74t-58-24q-39 0-57 23t-19 74q0 51 19 77t56 26m285 35q-35 0-61-19t-39-49-14-70 13-69 37-46 61-17q46 0 71 35t25 97q0 67-24 102t-69 36m5-35q22 0 40-14t27-37 10-53q0-28-10-50t-28-34-40-12q-35 0-54 25t-19 72q0 47 20 75t54 28m122 25h-45v-375h45v375m173 10q-35 0-61-16t-41-45-15-75q0-66 31-100t84-34q37 0 63 16t39 48 10 77h-182q0 41 18 67t55 27q21 0 39-10t31-27l27 27q-15 20-40 32t-58 13m-70-158h133q-3-39-20-58t-45-19-46 19-22 58m247 148v-250h45v57q6-20 18-35t32-23 44-9v35q-28 0-46 10t-29 26-15 36-4 40v113h-45m201-250h45v158q0 36 17 51t45 16q29 0 45-16t16-51v-158h45v157q0 30-12 53t-37 36-57 14q-34 0-58-13t-37-36-12-54v-157m281 215l27-27q13 17 31 27t41 10q22 0 35-10t13-25q0-15-14-27t-44-19q-42-11-63-32t-21-49q0-21 11-37t30-27 46-9q32 0 56 13t39 32l-26 26q-13-16-31-26t-36-10-31 9-13 27q0 16 14 29t50 23q37 10 57 27t21 45q0 21-13 38t-34 27-49 10q-32 0-57-14t-39-31m380-2l9 34q-19 8-31 10t-21 3q-34 0-48-19t-15-57v-244h45v239q0 28 5 36t17 8q10 0 20-3t19-7m-159-178v-35h166v35h-166m236 215v-250h45v250h-45m-3-323q0-6 3-12t9-10 14-3q13 0 20 7t6 18-6 17-20 9q-8 0-14-4t-9-10-3-12m306 261l26 27q-15 20-42 32t-60 13q-54 0-84-36t-29-102q0-62 29-97t83-35q34 0 59 12t41 33l-26 26q-14-17-33-27t-39-9q-35 0-52 23t-17 74q0 51 17 77t51 26q22 0 42-10t34-27" />
</svg>