<svg id="fnt-Moirai One" viewBox="0 0 2868 1000" xmlns="http://www.w3.org/2000/svg"><path id="moirai-one" class="f" d="M170 515l-18 113q-4 21-21 34t-39 10l-30-4q-25-4-39-22t-10-43l39-260q6-34 27-53t53-18q21 0 43 11t35 38l23 48 23-51q11-24 32-35t43-11q28 0 52 18t28 54l39 259q4 25-9 43t-35 21l-30 5q-24 3-42-9t-21-35l-15-91q0-2 1-3 1-1 3 0t2 2l15 91q3 19 18 31t38 8l31-5q19-2 30-19t8-38l-39-259q-3-23-15-38t-27-22-32-7q-20 0-40 10t-30 33l-25 55q0 2-3 2-2 0-3-2l-26-52q-12-26-32-36t-40-10q-28 0-49 16t-25 50l-39 260q-3 22 9 38t35 20l30 4q19 3 34-9t19-30l18-113q1-5 4-6 3-1 6 3 12 15 27 26t34 10 32-11 25-25l17-22q2-3 4-1t0 5l-16 21q-12 15-27 27t-35 12q-20 0-36-10t-29-28m441 157h-3q-36 0-65-17t-47-44-17-63v-5q0-37 17-65t47-44 65-16h3q37 0 66 16t47 44 17 65v5q0 35-17 63t-47 44-66 17m-126-129v5q0 33 16 60t45 42 62 16h3q35 0 63-16t45-42 16-60v-5q0-35-16-62t-45-42-63-15h-3q-34 0-62 15t-45 42-16 62m355-138q-27 0-45-18t-18-45q0-28 18-46t45-18 46 18 18 46q0 27-18 45t-46 18m-57-63q0 25 16 41t41 16 42-16 16-41-16-42-42-16-41 16-16 42m77 325h-38q-19 0-32-14t-14-34v-147q0-21 14-35t37-14h27q23 0 36 14t14 35v147q0 20-13 34t-31 14m-78-195v147q0 17 12 29t28 13h38q16 0 27-13t11-29v-147q0-18-12-31t-32-12h-27q-20 0-33 12t-12 31m239 195h-28q-20 0-35-15t-14-34v-146q0-21 15-35t34-14h28q18 0 32 12 6 5 10 11t6 18q7-22 24-34t38-12q33 0 52 19t20 52q0 21-9 38t-24 26q-14 7-31 7t-33-8q-4-2-1-5 2-2 4-1 31 16 58 2 14-7 22-23t8-36q0-30-18-48t-48-17q-17 0-32 9t-22 23-8 31q0 3-3 3t-3-3v-16q0-12-4-20t-10-12q-12-10-28-10h-28q-18 0-30 12t-13 31v146q0 18 13 30t30 13h28q18 0 30-13t12-30q0-3 3-3t3 3q0 20-14 34t-34 15m322 5q-29 0-54-14t-39-40-14-67v-11q0-39 13-66t38-42 54-14q30 0 47 10t29 30q4-16 18-26t31-9h27q22 0 37 14t15 36v146q0 22-16 35t-36 13h-23q-29 0-42-18-1-2 0-3t3-2 2 2q10 15 37 15h23q19 0 32-11t14-31v-146q0-20-14-32t-32-12h-27q-17 0-29 9t-15 27q5 10 5 23 0 3-3 3t-3-3q0-11-5-20-9-20-27-32t-48-12q-44 0-72 30t-27 86v11q0 39 13 65t37 37 51 13q31 0 51-14t21-33q0-3 3-3t3 3q0 15-11 27t-28 19-39 7m306-267q-28 0-46-18t-18-45q0-28 18-46t46-18 45 18 18 46q0 27-18 45t-45 18m-58-63q0 25 16 41t42 16 41-16 16-41-16-42-41-16-42 16-16 42m78 325h-38q-19 0-33-14t-13-34v-147q0-21 14-35t37-14h27q22 0 36 14t14 35v147q0 20-13 34t-31 14m-78-195v147q0 17 11 29t29 13h38q16 0 27-13t11-29v-147q0-18-12-31t-32-12h-27q-21 0-33 12t-12 31m477 200q-57 0-101-25t-69-72-25-109q0-60 25-103t69-67 101-24q44 0 79 15t61 41 39 62 13 76q0 44-13 82t-39 65-61 43-79 16m-189-206q0 62 24 106t67 69 98 25q57 0 99-26t64-72 23-102q0-40-13-74t-37-60-59-40-77-14q-55 0-98 23t-67 65-24 100m491 201h-26q-20 0-34-15t-15-34v-145q0-21 15-36t34-14h24q19 0 33 12t16 32q7-21 27-35t47-14q24 0 42 11t29 32 10 44v114q0 20-14 34t-35 14q-3 0-3-3t3-3q18 0 31-13t12-29v-114q0-23-9-41t-27-30-39-10q-22 0-38 9t-25 24-11 33q0 3-3 3t-3-3v-17q0-19-12-32t-31-12h-24q-18 0-30 13t-13 31v145q0 18 13 30t30 13h26q18 0 30-13t13-30q0-3 3-3t3 3q0 20-14 34t-35 15m372 5q-39 0-69-16t-48-44-18-67q0-35 17-64t46-47 71-17h7q40 0 66 16t39 41 14 51q0 9-7 15t-15 7h-123q-3 0-3-3t3-3h123q7 0 11-5t5-11q0-24-13-48t-37-39-63-15h-7q-39 0-68 17t-44 44-16 61q0 37 17 64t46 42 66 15q43 0 74-15t42-48q1-2 3-2t3 1 0 3q-12 35-45 51t-77 16" />
</svg>