<svg id="fnt-Molengo" viewBox="0 0 1801 1000" xmlns="http://www.w3.org/2000/svg"><path id="molengo" class="f" d="M112 327l106 279 105-279h41l42 340h-43l-30-254-93 254h-41l-102-266-31 266h-39l42-340h43m375 225q0 24 6 42t16 27 22 14 26 5q27 0 47-19 21-21 21-69 0-47-21-69-20-18-47-18-28 0-47 18-23 22-23 69m-39 0q0-74 48-103 26-16 61-16 34 0 61 16 14 9 25 22 22 30 22 81 0 74-47 103-26 16-61 16-36 0-61-16-15-9-25-22-23-29-23-81m323 119q-51 0-51-64v-300h40v297q0 19 7 27t14 8 28-2l3 29q-25 5-41 5m176-206q-34 0-51 20-11 14-15 40h118q-2-27-16-44-14-16-36-16m72 160l11 28q-27 18-72 18-57 0-87-32t-31-87q0-70 45-102 26-17 57-17 48 0 73 33 21 28 23 74l-6 14h-153q1 41 22 63t57 23q26 0 61-15m230 42v-124q0-78-57-78-14 0-26 7-18 12-29 39-3 9-3 15v141h-40v-229h40v42q22-47 71-47 20 0 36 9t25 19q22 24 22 68v138h-39m199-202q-39 0-49 36-3 9-3 19 0 20 12 33t40 13q39 0 49-34 3-8 3-17 0-18-11-33-14-17-41-17m109 4h-33q16 21 16 46 0 40-30 64-23 18-62 18-21 0-38-4-14 11-14 25 0 19 63 19 72 0 92 35 6 11 6 24 0 30-17 51-32 40-109 40-38 0-63-16t-24-46q0-30 25-50 7-6 18-13-30-10-30-37 0-10 7-22t20-23q-27-19-28-59v-2q0-31 20-57 10-13 29-21t39-8 36 5h77v31m-132 199q-24 13-32 24-10 13-10 27t9 22q14 14 47 14 44 0 67-22 12-11 12-28 0-18-14-25-15-8-28-10-19-2-33-2t-18 0m196-116q0 24 6 42t16 27 22 14 26 5q27 0 47-19 22-21 22-69 0-47-22-69-20-18-47-18-28 0-47 18-23 22-23 69m-39 0q0-74 48-103 26-16 61-16 34 0 61 16 14 9 25 22 22 30 22 81 0 74-47 103-26 16-61 16-35 0-61-16-15-9-25-22-23-29-23-81" />
</svg>