<svg id="fnt-Molle" viewBox="0 0 1526 1000" xmlns="http://www.w3.org/2000/svg"><path id="molle" class="f" d="M281 330q-18-18-47-18-42 0-73 23-34 24-34 59 0 27 25 50-9 13-29 22-5 2-11 2t-13-3-13-10q-12-14-12-34t7-37 19-32 29-27 34-21q38-17 75-17t61 13q56 30 56 137 0 33-5 73 42-47 161-146 17-13 31-25 13-33 21-44 14-17 24-17t14 5 4 9-3 10-6 10q-8 11-18 22-24 131-24 264 0 48-39 65-18 8-39 8-31 0-54-15-8-6-13-13 26-22 78-150 20-51 37-105l-48 48q-91 92-132 148-4 29-21 61-10 19-17 25t-10 7q-23 0-49-14t-25-26q0-16 30-51 8-9 17-18 37-82 37-156 0-9-1-26t-10-37q-35 113-98 208-45 67-92 95-25 15-49 15t-40-8q-32-16-32-53 0-25 13-45 6-11 15-16 33 23 66 23 50 0 98-54 43-47 85-138 11-25 20-46m400 338l-1 0-5 0q-39 0-59-19-19-18-19-48 0-42 33-81 33-37 79-52-1-11 8-18 7-5 23-5t30 3 30 13q32 21 32 57 0 39-19 74 42-9 73-56 11-1 11 9 0 4-2 9-33 79-133 105-36 9-81 9m-5-107q0 28 23 28 20 0 41-24 21-25 21-51 0-26-26-35-43 12-56 55-3 13-3 27m374-234q27 0 27 46 0 60-73 127-28 26-59 45 3 37 28 43 8 1 18 1t23-3 25-9q27-14 45-41 11-1 11 9 0 4-5 16t-20 33-34 36q-45 37-100 37-64 0-78-55-4-17-4-38t6-43 17-42 25-42 30-38 33-33 32-26q34-23 53-23m-105 188q41-26 69-61 29-37 29-65 0-14-6-20-2-2-7-2t-13 6-18 17-19 26-16 30q-16 37-19 69m303-188q27 0 27 46 0 60-73 127-28 26-59 45 3 37 28 43 7 1 18 1t23-3 25-9q27-14 45-41 11-1 11 9 0 4-6 16t-19 33-34 36q-45 37-101 37-64 0-77-55-4-17-4-38t6-43 17-42 25-42 30-38 33-33 32-26q34-23 53-23m-105 188q41-26 69-61 29-37 29-65 0-14-6-20-2-2-7-2t-14 6-18 17-18 26-16 30q-16 37-19 69m200 56q14 25 64 25 32 0 59-15t48-45q11-1 11 9 0 11-13 31t-25 34-25 23-30 19q-35 17-74 17-77 0-100-43-9-16-9-36t7-37 19-32 29-28 37-22q42-20 86-20 31 0 43 19 4 7 4 19t-6 22-15 20-23 15-27 12q-26 9-60 13m-3-23q31-4 54-17 23-15 23-35t-18-19q-23 0-41 22-16 22-18 49" />
</svg>