<svg id="fnt-Monda" viewBox="0 0 1578 1000" xmlns="http://www.w3.org/2000/svg"><path id="monda" class="f" d="M100 667h-47v-353h45l127 206h-13l125-206h44v353h-47v-285l6 2-104 171h-37l-104-170 5-2v284m477 5q-38 0-62-11t-34-29-11-42v-105q0-23 11-42t34-29 62-11q39 0 63 11t34 29 11 42v105q0 24-11 42t-34 29-63 11m0-35q27 0 44-10t18-33v-112q0-24-18-34t-44-10q-27 0-44 10t-17 34v112q0 24 17 33t44 10m189 30v-259h46v25q11-13 30-22t47-8q32 0 51 10t28 28 9 38v188h-46v-191q0-13-7-21t-19-13-28-4q-23 0-37 6t-21 16-7 22v185h-46m290-82v-98q0-39 26-61t82-23q13 0 29 3t29 7v-114h46v368h-32l-7-17q-11 8-31 15t-39 7q-37 0-60-11t-33-32-10-44m166 36v-172q-11-5-26-8t-31-3q-27 0-45 10t-18 34v106q0 24 17 36t43 12q19 0 36-5t24-10m205 51q-29 0-47-10t-26-26-9-35q0-19 8-33t29-24 63-23q21-6 34-11t19-12 6-22q0-11-4-19t-13-14-31-5q-26 0-38 6t-15 14-3 19v11h-45v-12q0-38 26-55t77-18q34 0 54 11t29 30 9 47v110q0 21 5 27t22 5l-6 36h-9q-26 0-37-11t-18-28q-5 9-15 19t-26 16-39 7m5-34q14 0 29-6t27-16 16-22v-68q-6 5-19 14t-38 16q-30 8-44 17t-14 27q0 19 10 29t33 9" />
</svg>