<svg id="fnt-Monoton" viewBox="0 0 2770 1000" xmlns="http://www.w3.org/2000/svg"><path id="monoton" class="f" d="M314 667v-148l17-33v181h-17m35 0v-215l17-33v248h-17m35 0v-282l18-33v315h-18m13-405l-131 249-10-18 121-231h20m-40 0l-111 211-10-19 101-192h20m-229 405v-179l18 33v146h-18m-35 0v-246l18 33v213h-18m-35 0v-313l17 34v279h-17m-16-405l158 299h-20l-140-265v371h-17v-405h19m41 0l157 299h-20l-157-299h20m336 405v-371l-140 265h-20l-157-299h20l148 281 147-281h20v405h-18m199-226q-21 21-21 50t21 50 49 20 50-20 21-50-21-50-50-20-49 20m-13 112q-26-26-26-62t26-62 62-26 62 26 26 62-26 62-62 26-62-26m-12-137q-31 31-31 75t31 74 74 31 75-31 31-74-31-75-75-31-74 31m-32 137q-17-29-17-62t17-62 44-45 62-16 62 16 45 45 16 62-16 62-45 44-62 17-62-17-44-44m-23-117q-11 26-11 55t11 54 30 45 45 30 54 11 55-11 45-30 30-45 11-54-11-55-30-45-45-30-55-11-54 11-45 30-30 45m-16 116q-13-29-13-61t13-62 33-50 51-34 61-12 62 12 50 34 34 50 12 62-12 61-34 51-50 33-62 13-61-13-51-33-33-51m-17-129q-14 32-14 68t14 68 38 56 56 38 68 14 68-14 57-38 37-56 14-68-14-68-37-57-57-37-68-14-68 14-56 37-38 57m-16 143q-15-36-15-75t15-75 42-62 61-41 75-15 75 15 62 41 41 62 16 75-16 75-41 62-62 41-75 15-75-15-61-41-42-62m688-251v210l-17-32v-178h17m35 0v271l-17-30v-241h17m-242 352v-210l18 32v178h-18m-35 0v-273l18 32v241h-18m210 0l-204-352h21l203 352h-20m41 0l-203-352h20l204 352h-21m41 0l-203-352h20l186 321v-321h18v352h-21m-123 0l-187-322v322h-17v-352h21l203 352h-20m324-226q-21 21-21 50t21 50 50 20 49-20 21-50-21-50-49-20-50 20m-13 112q-25-26-25-62t25-62 63-26 62 26 25 62-25 62-62 26-63-26m-12-137q-31 31-31 75t31 74 75 31 74-31 31-74-31-75-74-31-75 31m-32 137q-17-29-17-62t17-62 45-45 62-16 61 16 45 45 17 62-17 62-45 44-61 17-62-17-45-44m-23-117q-11 26-11 55t11 54 30 45 45 30 55 11 54-11 45-30 30-45 11-54-11-55-30-45-45-30-54-11-55 11-45 30-30 45m-16 116q-13-29-13-61t13-62 34-50 50-34 62-12 61 12 50 34 34 50 13 62-13 61-34 51-50 33-61 13-62-13-50-33-34-51m-16-129q-14 32-14 68t14 68 37 56 56 38 69 14 68-14 56-38 37-56 14-68-14-68-37-57-56-37-68-14-69 14-56 37-37 57m-16 143q-16-36-16-75t16-75 41-62 61-41 76-15 75 15 61 41 42 62 15 75-15 75-42 62-61 41-75 15-76-15-61-41-41-62m472 101v-255h18v255h-18m194-334h-264v-18h264v18m0 35h-264v-18h264v18m0 35h-264v-18h264v18m-88 264v-255h18v255h-18m-35 0v-255h17v255h-17m-35 0v-255h17v255h-17m331-226q-21 21-21 50t21 50 49 20 50-20 21-50-21-50-50-20-49 20m-13 112q-25-26-25-62t25-62 62-26 63 26 25 62-25 62-63 26-62-26m-12-137q-31 31-31 75t31 74 74 31 75-31 31-74-31-75-75-31-74 31m-32 137q-17-29-17-62t17-62 45-45 61-16 62 16 45 45 17 62-17 62-45 44-62 17-61-17-45-44m-23-117q-11 26-11 55t11 54 30 45 45 30 54 11 55-11 45-30 30-45 11-54-11-55-30-45-45-30-55-11-54 11-45 30-30 45m-16 116q-13-29-13-61t13-62 34-50 50-34 61-12 62 12 50 34 34 50 13 62-13 61-34 51-50 33-62 13-61-13-50-33-34-51m-16-129q-14 32-14 68t14 68 37 56 56 38 68 14 69-14 56-38 37-56 14-68-14-68-37-57-56-37-69-14-68 14-56 37-37 57m-17 143q-15-36-15-75t15-75 42-62 61-41 75-15 76 15 61 41 41 62 16 75-16 75-41 62-61 41-76 15-75-15-61-41-42-62m688-251v210l-17-32v-178h17m36 0v271l-18-30v-241h18m-243 352v-210l18 32v178h-18m-35 0v-273l18 32v241h-18m210 0l-204-352h21l204 352h-21m41 0l-203-352h21l203 352h-21m41 0l-203-352h21l185 321v-321h18v352h-21m-123 0l-186-322v322h-18v-352h21l203 352h-20" />
</svg>