<svg id="fnt-Monofett" viewBox="0 0 2315 1000" xmlns="http://www.w3.org/2000/svg"><path id="monofett" class="f" d="M182 667h-75q-33 0-57-13t-38-34-13-46v-149q0-25 13-47t38-33 57-13h75q33 0 57 13t38 33 13 47v149q0 25-13 46t-38 34-57 13m-119-294v183h26v-174l12-2h27l11 2v104h26v-104l11-2h28l12 2v174h25v-183l-15-15-20-4h-32l-14 4-8 17-8-17-13-4h-32l-21 4-15 15m408 294h-75q-33 0-57-13t-38-34-13-46v-149q0-25 13-47t38-33 57-13h75q33 0 57 13t38 33 13 47v149q0 25-13 46t-38 34-57 13m-83-114l24 3h66l25-3 15-15 3-21v-123l-3-21-15-15-25-4h-66l-25 4-15 15-3 21v123l3 21 16 15m88-23h-62l-16-2-4-15v-117l2-13 18-3h62l17 3 3 14v117l-4 14-16 2m284 137h-75q-33 0-57-13t-38-34-13-46v-149q0-25 13-47t38-33 57-13h75q33 0 58 13t37 33 13 47v149q0 25-13 46t-37 34-58 13m-103-307v196h26v-173l19-3h58l17 2 3 15v159h26v-163l-4-20-15-16-25-3h-61l-44 6m392 307h-75q-33 0-57-13t-37-34-14-46v-149q0-25 14-47t37-33 57-13h75q33 0 58 13t37 33 13 47v149q0 25-13 46t-37 34-58 13m-83-114l24 3h66l25-3 15-15 4-21v-123l-4-21-15-15-25-4h-66l-25 4-15 15-3 21v123l3 21 16 15m88-23h-62l-16-2-4-15v-117l3-13 17-3h62l17 3 3 14v117l-4 14-16 2m284 137h-75q-33 0-57-13t-37-34-14-46v-149q0-25 14-47t37-33 57-13h75q33 0 58 13t37 33 13 47v149q0 25-13 46t-37 34-58 13m-85-313v202h26v-92h82v-26h-82v-58h96v-26h-122m374 313h-75q-33 0-57-13t-37-34-14-46v-149q0-25 14-47t37-33 57-13h75q33 0 58 13t37 33 13 47v149q0 25-13 46t-37 34-58 13m-89-122l25 3h61l29-3-6-27-23 4h-60l-15-2-4-15v-50h114v-62l-3-20-16-16-24-3h-53l-25 3-15 16-4 20v116l4 21 15 15m95-116h-88v-33l2-14 17-2h50l17 2 2 15v32m284 238h-76q-33 0-57-13t-37-34-14-46v-149q0-25 14-47t37-33 57-13h76q32 0 57 13t37 33 13 47v149q0 25-13 46t-37 34-57 13m-38-287v176h27v-176h57v-26h-141v26h57m327 287h-76q-33 0-57-13t-37-34-14-46v-149q0-25 14-47t37-33 57-13h76q33 0 57 13t37 33 13 47v149q0 25-13 46t-37 34-57 13m-38-287v176h27v-176h57v-26h-141v26h57" />
</svg>