<svg id="fnt-MonteCarlo" viewBox="0 0 2097 1000" xmlns="http://www.w3.org/2000/svg"><path id="montecarlo" class="f" d="M20 731q-5 0-15-2t-19-6-8-15q0-5 3-10 3-2 5-3t1 3q-2 7 5 14t14 9q8 2 17 2 20 0 37-11t31-26 25-31q25-38 46-78t41-79 47-76q9-12 21-27t28-29 31-22q-7 0-11-1t-15-1q-20-1-45-1-14 0-28 0t-24 1q-41 3-82 16t-70 39q-17 16-28 35t-11 39q0 21 12 30t28 10q12 0 25-5 24-8 40-30t14-49q-1-4-2-9t-4-6q-2-1-2-3t3-1q11 1 15 12t4 21q0 16-8 30t-21 25-27 16q-15 6-33 6-23 0-40-13t-17-42q0-22 10-42t27-35q33-33 77-45t91-12q36 0 72 4t71 4h13q3 0 5 1t1 4q0 3-3 3-7 0-11 2-11 4-18 13t-15 22q-9 17-11 40t-2 42q-1 26-2 55t-9 56q-5 21-16 40t-28 35q13-5 26-19t25-31 19-28q22-33 45-72t50-79 54-68q25-27 48-39t44-12q17 0 29 8t18 24q0 0 0 0t0 1q0 4-3 4t-5-1q-4-20-26-20-14 0-34 11t-47 36q-27 26-53 61t-52 73-50 71q-9 12-23 29t-30 33-34 28-32 10q-3 0-4-2t3-4q17-12 27-32t17-43q9-33 11-66t8-67q2-16 6-33t12-31q6-12 18-25t25-20q-8-2-19 6t-21 21-19 25-12 17q-24 38-44 80t-40 82-47 76q-15 20-33 37t-40 28q-12 7-26 9t-26 3m406-39q-19 0-31-12t-11-35q1-24 8-49t20-50 26-47q29-50 59-89t48-66q2-2 6-2t2 3q-20 26-41 63t-41 82q-4 7-11 24t-16 38-15 43-12 38q-1 6-2 12t-1 11q0 12 5 19t16 8q12 0 25-11t25-26q11-13 20-28t16-26q2-3 3-3 2 0 2 3 0 3-2 7-6 11-16 26t-23 30q-14 15-29 26t-30 11m137-15q-19 0-33-13t-14-37q0-16 6-34t13-30q13-25 32-43t48-18q26 0 37 14t10 36q0 8-1 17-4 25-17 48 4 5 9 8t13 3q12 0 21-6t14-17 11-18q3-5 6-5 1 0 1 2t-3 9q-8 17-20 29t-30 13q-17 0-26-12-14 23-34 38t-43 16m1-6q24 0 48-24 7-7 13-15t10-16q-6-7-9-16t-3-17q0-12 5-22t12-10q4 0 8 4t5 13q1-7 1-15 0-19-7-31t-23-11q-10 0-21 8t-20 19-16 22-10 19q-9 19-13 33t-3 26q0 16 6 24t17 9m239-1q-14 0-23-9t-8-23q0-6 3-15 7-22 22-44t25-43q4-7 4-12t-4-9-7-2q-7 0-17 5t-22 20q-7 9-17 22t-15 23q-10 17-18 34t-14 32q-5 12-12 15t-14 3-10 0q14-28 28-58t23-61q4-14 7-28t3-17v-1q0-4 4-2 6 4 9 10t2 16q0 9-2 20t-6 19q6-9 14-18t16-18q11-10 23-18t26-8q13 0 19 6t7 16q0 11-6 24-7 16-16 31t-17 30q-1 3-5 9t-5 14q-1 4-2 7t-1 8q0 5 2 9t9 5q8 0 16-6t13-12q12-13 21-28t20-32q1-2 2-2 2 0 2 4 0 3-1 5-9 16-19 32t-25 30q-6 7-15 12t-19 5m91 0q-12 0-22-7t-10-24q0-17 9-38t16-38q4-8 10-22t15-27h-23q-2 0-2-2 0-2 2-5t3-2q14 0 21-2t12-7q8-7 16-18t15-19q6-7 14-11t11-2q-3 3-8 12t-12 18-11 19-6 11h33q1 0 1 1 0 2-2 5t-4 2h-33q-9 16-21 40t-22 48q-2 5-7 18t-4 25q0 8 3 13t11 5q9 0 19-7t15-12q12-13 21-28t19-32q2-2 3-2 2 0 2 3 0 3-1 4-9 17-19 33t-25 31q-6 7-17 12t-22 5m124 1q-29 0-41-15-6-7-8-16t-3-18q0-12 3-25t8-22q7-17 18-34t28-28 36-11q13 0 20 6t8 20q0 16-10 31t-24 27-30 10q-14 0-24-10-3 8-5 18t-2 20q0 15 6 27t23 11q12 0 23-6t20-15q10-11 19-23t18-28q1-1 1-1 2 0 2 4 0 3-2 7-7 13-17 27t-21 24q-9 9-20 14t-26 6m-17-92q4 5 8 7t10 2q12 0 25-9t21-22q4-5 6-14t3-17q0-7-3-13t-10-5q-9 0-22 11t-23 29q-3 6-8 14t-7 17m239 39q-1 1-3 1-4 0-3-4 12-21 35-44t57-41 75-20q3-1 6-1t7 0q32 0 47 14t12 36q-2 30-21 55t-48 43-64 28-68 10q-36 0-67-13t-50-38-18-69q0-4 0-8t0-8q3-32 18-66t42-65 62-55 79-39 94-15q33 0 48 12t16 28q0 13-9 26t-28 23q-20 11-44 17t-45 9-37 5h0q-2 0-2-2 0-2 4-3 33-3 64-13t54-23q13-8 20-19t8-22q0-12-13-22t-40-9q-44 0-82 14t-68 39-54 55-36 64-16 65q0 5-1 9t0 9q0 39 15 63t38 34 53 11q29 0 59-10t56-28 43-41 19-52q2-20-11-33t-42-9q-40 3-72 20t-56 39-33 43m352 52q-16 0-22-10t-6-23q0-2 0-9t2-11q-7 9-17 21t-19 19q-16 13-29 13-13 0-20-10t-6-27q0-20 9-41t23-40 33-32q11-8 26-13t31-4q17 0 30 5t19 15q-11 13-22 33t-19 36q-5 11-12 27t-6 28q0 5 2 10t10 5q8 0 15-6t13-12q11-13 21-28t19-32q1-2 3-2 2 0 2 3 0 3-1 4-9 17-19 33t-25 31q-7 7-17 12t-18 5m-80-15q9 0 20-11t22-25 20-28 14-21q10-17 19-28t28-17q1 0 2 0t2 0q-5-7-15-11t-21-3q-15 0-30 8t-26 22q-12 13-23 29t-18 33-6 31q0 8 2 14t10 7m249 3q-9 7-17 10t-15 3q-13 0-21-9t-8-23q0-8 4-20 6-18 19-35t25-33q8-10 8-20 0-5-3-8t-10-4q-4-1-9-1t-10 0h-14q-3 0-5 0t-5-1q-2 13-8 28t-14 31-16 28q-2 3-3 3t-2-3q0-3 2-5 10-21 20-41t13-41q-11-6-15-22-1-3-1-5t0-4q0-9 3-16t9-6q7 0 12 14 1 3 1 7t1 9q0 4-1 8t0 6q3 1 9 2t13 0q10 0 22-1t19 0q10 0 13 4t4 10q0 7-4 16t-7 15q-7 12-13 21t-12 20q-11 16-16 29t-4 22q0 16 11 16 10 0 25-14 9-8 17-20t15-24 12-20q1-2 2-2 2 0 2 4 0 3-2 6-8 15-19 34t-27 32m66 12q-18 0-25-11t-7-26q0-17 5-36t13-38 14-33 9-19q9-19 22-43t30-49 36-48 39-39 40-22q6-2 10-2 9 0 14 5t6 16q0 8-4 20-6 18-22 39t-36 44-45 45-45 41-39 32q-4 10-8 19t-7 17q-1 5-4 14t-6 20-2 21 4 17 14 7q9 0 16-5t13-12q21-24 38-56 2-3 3-3t1 3q0 4-2 9-10 18-18 30t-22 26q-6 7-15 12t-20 5m21-135q15-14 36-33t42-40 40-43 34-40 19-33q5-13 5-20 0-13-12-13-6 0-15 4t-17 13q-12 12-29 34t-35 51-37 59-31 61m92 142q-19 0-33-13t-14-37q0-16 6-34t13-30q13-25 32-43t48-18q26 0 37 14t10 36q0 8-1 17-4 25-17 48 4 5 9 8t13 3q12 0 21-6t14-17 11-18q3-5 6-5 1 0 1 2t-3 9q-8 17-20 29t-30 13q-17 0-26-12-14 23-34 38t-43 16m1-6q24 0 48-24 7-7 13-15t10-16q-6-7-9-16t-3-17q0-12 5-22t12-10q4 0 8 4t5 13q1-7 1-15 0-19-7-31t-23-11q-10 0-21 8t-20 19-16 22-10 19q-9 19-13 33t-3 26q0 16 6 24t17 9" />
</svg>