<svg id="fnt-Moon Dance" viewBox="0 0 2022 1000" xmlns="http://www.w3.org/2000/svg"><path id="moon-dance" class="f" d="M5 688q-8 0-8-9 0-4 4-14t7-20 6-15q4-10 14-33t23-52 27-61 26-59 23-45v-4q0-10 11-10 7 0 13 6 1 1 1 4t0 5q0 5-1 9t-1 10q-2 29-4 56t-2 51q0 51 8 82t27 32q9 0 21-11t24-30 26-41 24-43 20-39 12-26l14-31q8-17 11-26t7-12 14-4h2q4 0 7 1t2 4q-11 28-19 62t-12 71-4 70q0 26 3 50t9 43q0 2 0 4 0 5-4 7t-7 2q-5 0-9-6t-7-19q-2-10-4-31t-1-52q0-64 13-127-20 41-41 78t-40 65-38 45-35 17q-16 0-26-21t-14-54-4-72q0-23 1-46t4-45q-5 12-16 37t-24 57-28 66-26 64-19 52q-2 8-10 8m422-16q-18 0-25-11t-6-28q0-18 5-34t12-33q-3-3-6-7t-3-11q0-9 10-22t23-23q5-5 14-10t19-9 15-4q21 0 28 17t5 41q2-1 7-3t11-4 6-2q2 0 5 3t2 5q0 1-1 2l-32 12q-3 16-10 36t-18 40-26 32-35 13m24-118q13 0 24-3t25-7q1-2 1-5t0-6q0-6-1-13t-5-14-11-5q-9 0-17 6t-15 16-11 17-7 13q9 1 17 1m-19 104q14 0 24-9t19-24 14-33 9-34q-15 5-34 9t-35 3q-5 14-9 31t-4 31q0 8 3 17t13 9m148 14q-19 0-25-11t-7-28q0-18 6-34t12-33q-4-3-7-7t-2-11q0-9 10-22t22-23q6-5 15-10t18-9 16-4q21 0 28 17t5 41q2-1 7-3t10-4 6-2q3 0 5 3t3 5q0 1-2 2l-31 12q-3 16-10 36t-18 40-27 32-34 13m24-118q12 0 24-3t25-7q0-2 0-5t1-6q0-6-2-13t-5-14-11-5q-8 0-16 6t-15 16-12 17-6 13q9 1 17 1m-20 104q14 0 25-9t19-24 13-33 10-34q-15 5-35 9t-35 3q-5 14-9 31t-3 31q0 8 2 17t13 9m109 18q-4 0-4-3l7-19q2-7 3-13t3-13q3-13 6-26t8-25q1-5 4-13t4-18 3-13q0-2-4-2t-3-1q3-9 6-18t6-19q1-4 8-8t10-3q7 0 7 9 0 8-4 24t-10 36-12 38-10 30q16-15 32-33t29-37 21-33q0-5 7-7t12-1q2-1 3-1 4 0 5 6t2 10q0 6-2 15t-7 13q0 4 0 8t0 9q0 6 0 19t4 29 8 26 15 11q9 0 15-5t12-12 8-11 5-5q2 0 2 3 0 7-7 17t-12 15q-6 6-13 10t-16 5q-15 0-24-11t-13-27-5-32-1-26q0-10 0-19t1-18q-8 14-19 27t-20 26q-15 17-30 37-2 3-5 8t-5 8l-1 1q-4 10-5 15t-10 11q-3 2-6 4t-8 2m368 28q-8 0-14-8t-10-18-4-16q-1-15-1-30 0-26 5-59t14-67 20-65 24-54q-3 1-6 1-2 0-4-1t-3-4q0-4 4-7t10-4 8-2q2-2 4-8t5-9 7-5q5 0 8 4t2 8q0 2 0 4t-1 4h10q24 0 52 4t54 14 50 26 39 41q9 14 14 29t5 32q0 32-15 58t-40 45-56 34-61 20-58 7q-10 0-23-1t-22-7q-1 0-6-3t-4-5q0-1 1-2t2 0q6 0 13 4 16 4 31 4 22 0 49-7t54-18 49-27 36-34q13-17 22-38t10-43q0-24-11-42t-30-31-40-21-41-12q-19-4-37-6t-38-1q-5 0-10 0t-10 1q-9 20-19 47t-18 57-17 60-11 56-4 44q0 3 0 7t0 8q1 6 2 12t6 11q3 4 6 4t5 4q1 0 1 1 0 1-3 2t-5 2m438-34q-14 0-21-10t-9-23-2-24 1-21 3-20q-5 7-14 18t-21 26-23 26-24 20-19 8q-7 0-9-7t-1-11q0-23 9-48t18-45q3-5 8-15t11-19 15-17 15-5q5-4 10-7t12-2q4 0 13 2t14 4q2-4 6-6t8-2 5 0q2-1 3-1 3 0 4 4t1 7q0 7-1 12t-4 11q-2 5-4 9t-5 8q-4 18-6 36t-1 37q0 6 0 15t5 16 12 7q12 0 22-9t16-18q1-1 3-3t3-3l2 3q0 5-5 12t-11 13-10 10q-6 5-14 8t-15 4m-112-21q3 0 7-2t5-5q24-20 42-46t32-53q1-2 3-5t2-6q1-4 2-9t1-9q0-2-5-4t-11-4-8-1q-10 0-17 8t-12 15q-6 9-14 23t-15 31-12 31-5 26q0 2 1 6t4 4m158 27q-4 0-4-3l6-19q3-7 3-13t3-13q3-13 7-26t7-25q2-5 4-13t5-18 2-13q0-2-3-2t-4-1q4-9 6-18t6-19q2-4 8-8t11-3q7 0 7 9 0 8-4 24t-11 36-12 38-9 30q16-15 32-33t29-37 21-33q0-5 7-7t11-1q2-1 3-1 5 0 6 6t1 10q0 6-1 15t-7 13q-1 4-1 8t0 9q0 6 1 19t3 29 8 26 15 11q9 0 16-5t12-12 8-11 4-5q3 0 3 3 0 7-8 17t-12 15q-5 6-13 10t-16 5q-15 0-23-11t-13-27-6-32-1-26q0-10 0-19t1-18q-8 14-18 27t-21 26q-15 17-29 37-3 3-5 8t-6 8l-1 1q-3 10-4 15t-10 11q-3 2-7 4t-7 2m226-6q-14 0-20-7t-6-20q0-4 0-7t1-7q1-8 4-23t8-31 12-33 15-26 18-13q12-3 24-9t25-6q12 0 15 8t3 18q0 11-9 16-2 2-5 3t-6 1q-3 0-3-3t1-6 1-6q0-6-3-14t-9-7q-6 0-12 4t-11 9q-7 6-16 23t-15 37-11 38-4 29q0 8 3 15t12 8q14 0 26-11t23-25 17-22h1q2 0 2 2t0 3q0 8-4 16t-10 13q-13 12-31 23t-36 10m214-114q-3 0-3-2 0-2 1-3 3-8 4-15t2-15q0-3 0-9t-2-9-6-5q-2 0-4 0t-3 1q-5 0-5-4 0-2 4-4t11-2 7-1q13 0 16 9t3 19q0 10-3 20t-12 16q-2 2-5 3t-5 1m-75 114q-14 0-20-7t-6-20q0-15 4-30t8-29l-4 1q-3-1-3-5 0-4 4-9t9-4q3-8 9-20t12-24 17-20 19-8q5 0 5 4 0 2-2 4t-3 3q-7 6-13 17t-11 22-8 20q14-2 27-3t28-1q2 0 8 0t13 1 13 2 5 4q0 2-2 3t-3 0q-7 0-13-1t-12-1q-17 0-35 3t-34 6q-5 13-10 29t-5 31q0 8 3 15t13 8q13 0 25-11t23-25 18-22h0q2 0 2 2t1 3q0 8-4 15t-10 14q-14 12-31 23t-37 10" />
</svg>