<svg id="fnt-Moul" viewBox="0 0 1509 1000" xmlns="http://www.w3.org/2000/svg"><path id="moul" class="f" d="M140 581h39v86h-164v-86h48v-217h-48v-86h210l75 187 75-187h195v86h-47v217h47v86h-203v-86h31v-145l-85 231h-71l-102-237v151m605 90q-44 0-77-16-34-16-52-48t-19-74q0-43 19-72 18-30 52-46t77-15q45 0 79 16t51 45 19 72q0 43-19 74-18 32-52 48t-78 16m0-71q16 0 24-16 8-15 8-51 0-32-8-47t-24-14q-16 0-23 14t-8 47q0 35 8 51 8 16 23 16m293 71q-79 0-79-98v-92h-31v-66l148-15v173q0 9 7 17t17 8q11 0 17-7t6-19v-91h-23v-66l140-15v193h32v74h-149v-38q-13 20-34 31t-51 11m432-78h38v74h-198v-74h43v-225h-43v-66l160-16v307" />
</svg>