<svg id="fnt-Mystery Quest" viewBox="0 0 3007 1000" xmlns="http://www.w3.org/2000/svg"><path id="mystery-quest" class="f" d="M437 758q1 11-3 24t-14 24-24 19-37 8q-20-1-39-13t-33-35-17-52 4-66q5-24 13-57t16-67 13-68 4-61-8-44-25-19q-15-1-27 8t-21 24-14 32-8 30q-4 27-7 63t-2 72q0 12 4 19t10 11 11 6 10 2l-1 8q-29 4-49 8t-32 8q-15 4-24 8l-5-10q11-6 19-13t12-20 6-27 2-36q1-15 1-34t1-40-2-40-5-36-11-25-18-9q-11 0-20 8t-15 22-12 29-8 31-5 27-2 19-1 20 0 29 2 34 7 36 13 30 21 22l0 12q-10-3-26-4t-35 0-34 4-28 9l-6-13q12-6 20-11t14-13 8-25 4-43q1-29 2-49t1-36 1-30 0-31q-1-17-4-35t-9-34-20-29-33-20l-2-10q12 1 28 2t31 1 27-1 16-5q2 3 3 13t2 22 1 26 0 28q6-20 16-35t18-23 20-14 17-4q20 0 36 17t22 47q15-40 41-62t61-18q40 6 54 48t1 120q-7 39-19 78t-23 76-18 69-2 55q3 22 12 35t19 22 21 10 18 2q11 0 20-6t16-15 10-19 4-20q0-6-3-12t-7-11-12-8-16-3-14 4-10 9-6 11-1 10q1 10 7 16t14 5q4 0 7-2t5-4q-5-2-8-6t-3-10q1-4 4-7t7-3 8 1 4 8q1 5 0 11t-4 13-10 9-17 4-16-6-9-13-3-16 1-15q4-12 16-23t35-10q10 1 18 5t14 11 10 16 4 16m159 1q-1 21-8 38t-19 28-27 16-33 7-31-6-24-17-15-24-4-27 6-25 15-18 20-11 23-3q19 0 26 12t8 27q0 8-3 17t-8 14-12 11-16 4q-4 0-8-1t-8-4-6-9-3-14q0-14 7-22t16-8q7 0 11 4t5 8-2 9-10 4q-7 0-7-5t3-9q-4 1-7 6t-4 11q0 9 5 14t11 5q5 0 9-4t7-7 5-11 2-11q0-15-10-23t-24-7q-6 1-12 4t-13 10-10 14-3 18 4 19 10 16 19 11 26 2q30-3 46-36t15-87q-1-18-1-31t-1-24-1-18 0-17q-4 13-10 27t-16 26-25 19-34 7q-15 0-26-6t-20-15-13-23-7-29q-2-20 0-39t5-39q3-25 4-43t-1-29-9-20-18-15l5-10q5 2 11 3t14 3 22 0 33-3q-3 7-7 19t-8 27-6 30-4 31-1 34 4 35 11 28 20 12 24-5 18-15 12-18 5-12 2-16 3-27 1-33 0-33q-1-15-4-24t-7-15-8-9-10-6l3-9q8 3 19 5t22 3 22 0 18-2q-13 27-19 69t-4 102q1 28 3 49t4 39 3 37 0 40m210-114q-3 10-8 22t-15 22-23 17-29 8q-12 1-22-2t-19-7-15-11-10-13q-6-13-6-26t5-23q7-12 16-16t18-4q8-1 16 1t15 6 10 11 3 15q0 7-3 13t-9 9-10 7-10 1q-6-1-14-4t-8-11 2-14 8-8q9-4 14-3t7 4 3 6 0 6q-1 4-5 6-3 2-8 2t-12-7q-1 5 1 9t5 5q3 2 8 2 11 1 17-6t5-17-9-17-26-6q-11 1-17 7t-8 13 1 17 7 15q6 7 13 11t15 6 16 0 15-3q8-4 15-13t12-21 2-28-15-31q-6-9-23-21t-35-26-37-29-25-31q-7-16-8-36t10-40 32-34 60-20q26-3 49 4t36 21 20 34-2 42q-2 6-7 14t-11 13-17 10-22 3q-8 0-18-4t-18-11-15-15-8-18q-4-20 7-33t32-15q10 0 18 4t15 9 8 14 2 14q-3 21-24 24-8 1-17-2t-13-13q-2-7-1-16t10-14q4-1 8-1t9 3 4 6 0 9q-1 4-4 5-2 2-7 2t-12-3q1 6 4 9t7 4q5 2 10 2 8-1 13-5t6-10-2-12-10-12q-10-8-23-8t-23 11q-13 16-7 31t25 25q3 2 7 4t10 2 12-2 16-8q13-9 16-23t-3-29-15-27-25-15q-16-2-28-1t-23 5-17 8-14 10q-2 3-7 9t-9 16-3 22 9 27q8 13 20 23t26 19 28 17 24 17q12 10 19 22t11 25 4 25-2 20m158 6q12 0 21-8t14-27l10 4q-1 12-9 24t-20 20-28 11-31-5q-18-8-25-21t-10-31-1-38 2-42q0-12-1-30t-1-37-2-40-3-41q-16 2-31 5t-25 7q-1-5-1-7t1-5 0-5-1-7q12-1 26-2t30-2q-1-7-1-14t-2-13q-2-23-9-36t-14-21-15-10-10-4l2-9q9 4 23 5t28 0 29-5 26-9q-5 14-9 44t-6 69q25-1 37-4-3 3-3 10t2 12q-9-1-18-1t-19-1q-2 29-2 59t1 61 4 59 7 52q4 17 13 25t21 8m41-117q1-28 12-53t29-43 40-27 46-7 37 15 18 26 6 29 0 22q-1 7-2 16t-2 17-1 16 1 13q-12-4-28-9t-35-7-39-2-41 8q0 18 3 36t11 35q6 14 14 25t18 17 20 6 20-6q8-6 13-14 3-7 3-17t-11-22l61-3q-3 9-10 24t-18 28-27 23-40 9q-24-2-43-15t-31-35-19-49-5-56m121-117q-14-1-27 7t-23 24-18 36-10 44q28-3 52-4t44 3q5-11 10-29t4-35-8-30-24-16m313 39q-1 9-2 14t-1 11 0 8 5 9q-13-4-24-5t-19-3q-9-1-16 0 5-7 6-15t3-21q1-9-1-18t-10-12q-3 0-7 0t-9 2-11 7-14 14q-11 14-20 28t-15 30-10 28-4 22q0 1-1 2 1 19 3 35t2 29q2 11 5 18t6 12 7 8 7 5l1 10q-7-2-19-4t-27 0-29 4-25 10l-2-11q14-6 25-21t15-46q1-16 3-33t2-33 0-35-6-38q-4-13-8-25-4-10-10-18t-14-11l-1-11q6 1 15 2t19 2 21 0 21-1q-2 9-5 33t-5 54q6-15 16-33t24-33 31-25 37-7q13 1 21 8t12 16 7 20 1 18m214 303q-1 21-8 38t-19 28-27 16-33 7-32-6-23-17-15-24-5-27 6-25 15-18 21-11 22-3q20 0 27 12t7 27q0 8-2 17t-8 14-12 11-16 4q-4 0-9-1t-8-4-6-9-2-14q0-14 6-22t16-8q7 0 11 4t5 8-2 9-9 4q-7 0-7-5t2-9q-4 1-7 6t-3 11q0 9 4 14t12 5q5 0 9-4t7-7 4-11 2-11q0-15-10-23t-24-7q-5 1-12 4t-12 10-10 14-4 18 4 19 11 16 18 11 26 2q31-3 47-36t15-87q-1-18-1-31t-1-24-1-18 0-17q-4 13-10 27t-17 26-24 19-34 7q-16 0-27-6t-19-15-13-23-7-29q-3-20-1-39t6-39q3-25 4-43t-1-29-9-20-19-15l6-10q5 2 11 3t14 3 21 0 34-3q-4 7-8 19t-7 27-6 30-4 31-2 34 4 35 11 28 21 12 24-5 18-15 11-18 5-12 3-16 2-27 2-33-1-33q-1-15-3-24t-7-15-8-9-10-6l3-9q8 3 18 5t22 3 22 0 19-2q-13 27-20 69t-3 102q1 28 3 49t3 39 3 37 1 40m319-97q19-1 38-14-7-11-14-19t-16-14q-7-5-17-8t-18-1q-9 1-14 6t-4 16q0 5 4 11t9 11 14 9 18 3m-6 24q-27 0-53-15t-45-42-30-64-7-82q2-39 15-74t33-60 49-41 67-13q29 1 53 14t43 38 27 57 10 75q-1 27-6 55t-16 50-25 44-34 33q6 21 13 43t17 42 22 33 30 17 29-4 18-15 10-21 2-20q0-8-4-15t-10-12-14-7-15 0-14 6-11 9-5 12 2 13 8 10 10 4 10 0 8-2q4-4 6-13t-6-14q0 4-2 8t-7 6q-5 1-10-1t-5-7 1-10 11-8q4 0 9 0t10 3 8 7 3 12-2 14-8 11-10 7-12 2-13-2-12-5-9-10-4-17 3-18 11-15 14-11 17-4q13-1 23 3t18 11 11 18 5 22q0 13-5 25t-13 24-21 16-29 5q-24-1-43-12t-36-39q-6-11-11-24t-9-27q-3-10-6-19t-7-18q-26 13-57 12m21-374q-20 1-42 16t-39 40-28 60-9 73q1 37 11 63t21 42q2-9 8-15t18-11q11-5 26-4t29 7 28 17 23 27q21-23 35-64t14-100q0-28-8-55t-19-49-30-34-38-13m378 337q3 0 7-2 3-2 5-5t5-9h7q0 5-3 11t-7 12-12 8-17 3q-32-3-38-61-4 12-10 24t-13 22-19 17-25 7q-18 0-32-8t-24-20-13-29-3-34q2-24 7-49t7-48-6-39-29-25l2-7q8 2 16 4t19 4 21 1 22-3q-6 13-11 24t-7 25-5 32-1 43 4 43 12 28 18 15 23 3q12-2 20-12t15-26 8-37 5-45 0-40-4-28-9-18-15-11l1-8q8 0 21 0t24 0 23-3 16-4q-9 17-15 41t-11 52-6 54 1 49 8 35 18 14m34-115q2-28 13-53t28-43 40-27 46-7 37 15 19 26 5 29 0 22q0 7-1 16t-3 17-1 16 1 13q-12-4-28-9t-35-7-39-2-40 8q-1 18 3 36t10 35q6 14 15 25t18 17 19 6 20-6q9-6 13-14 4-7 3-17t-10-22l61-3q-4 9-10 24t-18 28-28 23-40 9q-23-2-42-15t-32-35-19-49-5-56m122-117q-14-1-27 7t-24 24-17 36-11 44q28-3 52-4t45 3q5-11 9-29t4-35-7-30-24-16m282 228q-3 10-9 22t-15 22-22 17-29 8q-12 1-23-2t-19-7-15-11-9-13q-6-13-7-26t5-23q8-12 17-16t17-4q8-1 16 1t15 6 10 11 4 15q-1 7-4 13t-8 9-10 7-10 1q-7-1-14-4t-8-11 1-14 9-8q9-4 14-3t7 4 3 6 0 6q-2 4-5 6-3 2-8 2t-12-7q-2 5 0 9t5 5q4 2 9 2 10 1 16-6t5-17-9-17-26-6q-10 1-16 7t-8 13 0 17 8 15q6 7 13 11t15 6 16 0 14-3q8-4 16-13t12-21 1-28-14-31q-6-9-23-21t-36-26-36-29-25-31q-7-16-8-36t9-40 32-34 60-20q27-3 49 4t37 21 20 34-2 42q-2 6-7 14t-12 13-17 10-21 3q-9 0-19-4t-18-11-14-15-8-18q-4-20 7-33t32-15q10 0 18 4t14 9 9 14 2 14q-3 21-24 24-8 1-17-2t-13-13q-3-7-1-16t10-14q3-1 8-1t8 3 5 6 0 9q-1 4-4 5-3 2-7 2t-12-3q1 6 4 9t7 4q4 2 9 2 9-1 14-5t5-10-2-12-10-12q-9-8-23-8t-22 11q-13 16-7 31t25 25q3 2 7 4t9 2 13-2 16-8q13-9 15-23t-2-29-16-27-25-15q-15-2-28-1t-22 5-18 8-13 10q-3 3-8 9t-8 16-3 22 8 27q8 13 21 23t26 19 28 17 24 17q12 10 19 22t11 25 3 25-1 20m158 6q11 0 21-8t14-27l10 4q-2 12-9 24t-20 20-28 11-32-5q-17-8-25-21t-10-31 0-38 1-42q0-12 0-30t-1-37-2-40-3-41q-17 2-32 5t-25 7q0-5 0-7t1-5 0-5-1-7q12-1 26-2t29-2q0-7 0-14t-2-13q-2-23-9-36t-14-21-15-10-10-4l1-9q9 4 23 5t29 0 29-5 25-9q-5 14-8 44t-7 69q26-1 37-4-2 3-2 10t1 12q-8-1-17-1t-19-1q-2 29-2 59t0 61 4 59 7 52q4 17 14 25t21 8" />
</svg>