<svg id="o" viewBox="0 0 4539 1000" xmlns="http://www.w3.org/2000/svg">
<style>.f {display: none;}.f:target {display: block;}</style>
<path id="odibee-sans" class="f" d="M180 667h-114q-14 0-24-11t-11-26v-277q0-15 11-26t24-10h114q16 0 26 10t10 26v277q0 16-10 26t-26 11m-85-46h56q9 0 14-6t5-13v-220q0-9-5-14t-14-5h-56q-7 0-13 5t-5 14v220q0 8 5 13t13 6m293 46h-104q-16 0-26-11t-11-26v-177q0-15 11-26t26-10h57v-114l47-11v375m-76-47h29v-156h-29q-7 0-12 5t-6 13v120q0 7 6 12t12 6m153-281l-47 11v-47l47-11v47m1 328h-47v-239l47-11v250m140 0h-105v-365l47-10v125h58q15 0 25 10t11 26v177q0 15-11 26t-25 11m-58-203v156h29q7 0 13-6t5-12v-120q0-8-5-13t-13-5h-29m265 203h-104q-15 0-26-11t-11-26v-177q0-15 11-26t26-10h68q15 0 26 10t10 26v76q0 15-10 25t-26 11h-58v37q0 7 5 12t14 6h65l10 47m-94-185v36h29q8 0 13-5t5-13v-18q0-8-5-13t-13-5h-10q-8 0-14 5t-5 13m260 185h-104q-15 0-26-11t-11-26v-177q0-15 11-26t26-10h68q15 0 26 10t10 26v76q0 15-10 25t-26 11h-58v37q0 7 5 12t14 6h65l10 47m-94-185v36h29q8 0 13-5t5-13v-18q0-8-5-13t-13-5h-10q-8 0-14 5t-5 13m364 185h-114q-15 0-25-11t-11-25v-78l47 11v38q0 8 5 13t12 5h57q8 0 13-5t5-13v-88q0-7-5-13t-13-5h-85q-15 0-25-10t-11-26v-107q0-15 11-26t25-10h114q15 0 25 10t11 26v54l-47-11v-15q0-7-5-13t-13-5h-57q-7 0-12 5t-5 13v51q0 7 5 12t12 6h86q15 0 25 10t11 26v145q0 15-11 25t-25 11m202 0h-105q-15 0-26-11t-10-26v-75q0-15 10-26t26-11h39q8 0 13-5t6-13v-18q0-8-6-13t-13-5h-54l11-47h72q15 0 26 10t11 26v214m-76-47h29v-55h-29q-8 0-13 5t-5 13v19q0 7 5 12t13 6m150 47h-47v-250h104q15 0 26 10t11 26v214h-47v-185q0-8-6-13t-12-5h-29v203m230 0h-68q-15 0-26-11t-10-26v-41h46v13q0 7 6 12t13 6h10q8 0 13-6t5-12v-19q0-7-5-13t-13-5h-39q-15 0-26-11t-10-25v-76q0-15 10-26t26-10h68q15 0 26 10t10 26v42h-47v-13q0-8-5-13t-13-5h-10q-8 0-13 5t-6 13v18q0 8 6 13t13 5h39q15 0 26 11t10 26v77q0 14-11 24t-25 11" />
<path id="odor-mean-chey" class="f" d="M306 485q0 52-11 88t-32 57-49 31-60 9q-45 0-76-17t-47-57-16-103q0-89 40-133t109-43q71 0 107 39t35 129m-75 9q0-120-72-120-33 0-51 26-7 11-12 29t-6 40 1 44 6 41 12 31q19 29 52 29t52-28 18-92m228-144l5-38q29-7 55-7 26 0 44 2v300q16 2 28 8v40q-30 16-76 16-5-3-10-9t-5-13q-11 9-29 15t-34 7q-54 0-78-30t-25-95q0-76 37-106 33-27 80-27 21 0 42 5v-50q-23-6-34-18m-12 270q29 0 46-17v-134q-21-5-43-5-23 0-33 20t-11 60q0 41 10 58t31 18m405-84q0 48-17 78t-45 43-64 13q-56 0-86-29t-30-100q0-63 33-96t91-32q58 0 88 29t30 94m-169 4q0 80 48 80 25 0 36-19t12-59q0-78-49-78-24 0-35 17t-12 59m343-62q-37 0-52 15v114q41 8 56 21l-6 39h-143l-5-39q7-9 28-17v-139q-18-6-28-17l5-38q27-6 50-6 11 0 20 0t17 1v31q11-13 29-22 15-7 30-9t23 3l-1 65q-10-2-23-2m502 130v-130q0-20 3-62l1-12-5 0q-6 21-11 38t-9 29l-66 196h-67l-70-196q-4-11-9-25t-8-31l-3-11-5 0q2 22 4 41t1 33v132q18 7 27 18l-5 39h-98l-5-39q9-11 28-18v-231q-21-8-29-19l5-38h114l73 201q7 16 12 32t6 29l2 8h7q1-30 18-69l69-201h112l5 38q-8 11-28 19v229q19 7 27 17l-5 42h-114l-5-41q8-10 28-18m246 63q-60 0-91-32t-30-93q0-37 11-64t28-41q35-28 82-28 31 0 52 10t33 34 11 65q0 36-36 36h-108q2 31 16 44t45 13q17 0 32-4t23-8l7-4 15 40q-3 3-9 9-3 4-15 9t-30 9-36 5m-48-155l79-3q1-6 1-17 0-10-8-21t-28-11-30 12-14 40m179-62q0-4 0-8t1-8q46-25 100-25t76 20 23 67v107q18 3 28 8v44q-25 12-73 12-5-14-8-32-22 32-78 32-23 0-41-9t-29-25-11-39q0-33 22-53t66-19h55v-24q0-39-42-39-16 0-25 3-2 21-6 33h-49q-9-18-9-45m90 166q26 0 41-15v-41h-36q-35 0-35 27 0 13 7 21t23 8m156-165l5-38q27-6 49-6 11 0 20 0t17 1v25q12-11 33-18t40-6q33 0 52 10t28 32 8 60v96q20 8 28 17l-5 39h-115l-5-39q7-9 27-17v-99q0-27-8-36-7-7-20-9t-28 2-29 14v128q20 8 28 17l-5 39h-115l-5-39q7-9 27-17v-139q-17-6-27-17m616-74q-15-7-45-7t-48 26-19 91q0 65 18 92t53 28q53 0 96-16l18 44q-53 32-125 32t-103-41q-32-40-32-132 0-92 39-136t110-44q58 0 109 31v11q0 6-1 18t-5 24-8 21h-47q-7-14-10-42m90-31l5-38q28-7 52-7t40 2v125q13-8 32-14t36-5q50 0 68 24t19 73v101q20 8 28 17l-5 39h-115l-5-39q7-9 28-17v-99q0-27-9-36-7-7-20-9t-29 2-28 14v128q20 8 28 17l-5 39h-115l-5-39q7-9 28-17v-244q-18-6-28-17m417 321q-60 0-90-32t-30-93q0-37 10-64t29-41q35-28 81-28 31 0 53 10t32 34 11 65q0 36-35 36h-109q2 31 17 44t45 13q17 0 32-4t23-8l7-4 15 40q-3 3-9 9-4 4-16 9t-29 9-37 5m-47-155l79-3q1-6 1-17 0-10-8-21t-28-11-30 12-14 40m229 209h7q9 0 20-17t14-40l-82-194q-25-8-33-19l5-38h115l5 38q-7 8-22 15l27 75q9 24 13 47l1 7h7q5-26 14-53l27-74q-18-7-26-17l5-38h110l5 38q-9 12-33 20l-83 195q-23 55-36 71-22 30-61 30t-60-21q0-2 0-5t0-5q0-27 11-52h42q7 13 8 37" />
<path id="offside" class="f" d="M282 368v227q0 38-31 59t-87 20q-56 0-85-20t-29-59v-227q0-38 30-59t88-20q56 0 85 20t29 59m-192-5v237q0 39 74 39 38 0 58-10t20-29v-237q0-39-74-39-38 0-58 10t-20 29m282 4h35v-29q0-79 103-79h17q10 0 10 18t-10 17h-17q-63 0-63 39v34h57q10 0 10 17t-10 18h-57v316q0 20-4 36t-11 27-15 11q-4 0-10-4t-11-8-4-8q0-3 3-9t8-17 4-33v-311h-35q-10 0-10-18t10-17m192 0h35v-29q0-79 103-79h18q10 0 10 18t-10 17h-18q-63 0-63 39v34h58q10 0 10 17t-10 18h-58v316q0 20-4 36t-11 27-14 11q-5 0-11-4t-10-8-5-8q0-3 4-9t7-17 4-33v-311h-35q-10 0-10-18t10-17m373 86v-19q0-40-65-40-29 0-46 10t-16 28v11q0 17 2 26t11 14 24 9l43 11q36 9 55 18t26 23 7 39v18q0 35-28 54t-81 19q-107 0-107-79v-16q0-6 4-9t16-2q8 0 14 3t5 9v23q0 19 17 27t52 9q68 0 68-35v-26q0-15-11-24t-41-16l-44-11q-30-8-45-17t-21-25-6-44v-6q0-37 26-56t75-20q105 0 105 78v18q0 10-17 10-22 0-22-12m181-77v232q0 14 3 22t8 14 4 8q0 4-5 8t-10 8-11 4q-7 0-14-9t-11-22-4-28v-237q0-12 20-12t20 12m1-107v44q0 12-21 12-22 0-22-12v-44q0-12 21-12 22 0 22 12m320 9v317q0 38-28 59t-80 20-80-20-28-59v-149q0-39 27-59t81-20h43q10 0 10 17t-10 18h-43q-68 0-68 39v159q0 19 17 29t51 10q68 0 68-39v-322q0-11 20-11t20 11m324 159v15q0 28-7 44t-25 24-49 11l-98 10v59q0 39 65 39 38 0 56-8t18-26v-19q0-11 20-11t20 11v14q0 74-110 74-52 0-81-20t-28-59v-157q0-38 30-59t87-20q52 0 77 19t25 59m-179-4v73l94-10q28-2 36-11t9-33v-19q0-19-18-29t-52-10q-33 0-51 10t-18 29" />
<path id="oi" class="f" d="M248 684q-120 0-182-51t-61-151q0-110 62-161t183-52q129 0 189 51t60 149q0 112-63 163t-188 52m-11-240v65h30v-65h-30m283 231q-4-10-6-26t-3-33 1-33 5-26q7-3 14-9t12-20 5-35q0-22-6-35t-13-18-12-8q-5-8-7-24t-2-34 3-36 8-28q5 1 9 1t9 2q-2 31 13 53t39 32 54 4q-24-1-44-13t-33-32-12-44q0-20 10-40t33-32 62-12q62 0 91 31t29 92q0 29-5 52t-10 46-4 44q0 22 4 35t12 19 15 9q3 10 4 26t1 33-2 33-7 26q-14-1-36-3t-48-3-52-1q-24 0-49 1t-46 3-36 3" />
<path id="ojuju" class="f" d="M164 674q-44 0-75-20t-47-60-16-102q0-63 16-103t47-60 75-20q45 0 75 20t47 60 16 103q0 62-16 102t-47 60-75 20m0-35q39 0 67-16t42-49 15-82-15-83-42-49-67-16-66 16-42 49-15 83 15 82 42 49 66 16m245-274q-24 0-24-24 0-25 24-25 22 0 22 25 0 24-22 24m-92 390v-30q7 4 19 8t24 4q7 0 13-2t11-3q10-5 16-19t7-38q0-63-1-103t0-63-1-33-2-14-2-5q-2-2-7-2t-17-1q-4 0-9 0t-11 0v-29h64q-1 8-1 23t0 34 0 38 0 36 0 24q0 17 0 29t0 22 0 26 0 38q0 27-8 42t-21 22-29 6q-12 0-23-3t-22-7m264-81q-25 0-43-10t-27-29-9-43q0-23 0-39t0-29 0-26-1-31-1-42h18q0 25-1 41t-1 29 0 23 0 22 0 29q0 21 6 36t16 22 23 10 27 4q25 0 43-7t29-19 17-31 5-39q0-12 0-21t0-20-1-30-1-49h18q0 36-1 60t-1 39 0 25 0 18 0 17q0 12 0 21t0 17 1 19 1 26h-18q1-9 1-15t0-12q0-13 0-18t-4-4q-2 0-4 2t-8 11q-5 8-16 18t-26 18-42 7m236-309q-24 0-24-24 0-25 24-25 22 0 22 25 0 24-22 24m-92 390v-30q7 4 19 8t24 4q7 0 13-2t11-3q10-5 16-19t7-38q0-63-1-103t0-63-1-33-2-14-2-5q-2-2-7-2t-17-1q-4 0-9 0t-11 0v-29h64q-1 8-1 23t0 34 0 38 0 36 0 24q0 17 0 29t0 22 0 26 0 38q0 27-8 42t-21 22-29 6q-12 0-23-3t-22-7m264-81q-25 0-43-10t-27-29-9-43q0-23 0-39t0-29 0-26-1-31-1-42h18q0 25-1 41t-1 29 0 23 0 22 0 29q0 21 6 36t16 22 23 10 27 4q25 0 43-7t29-19 17-31 5-39q0-12 0-21t0-20-1-30-1-49h18q0 36-1 60t-1 39 0 25 0 18 0 17q0 12 0 21t0 17 1 19 1 26h-18q1-9 1-15t0-12q0-13 0-18t-4-4q-2 0-4 2t-8 11q-5 8-16 18t-26 18-42 7" />
<path id="old-standard-tt" class="f" d="M180 676q-42 0-75-27t-51-70-19-90 19-91 51-70 75-26 75 26 52 70 18 91-18 90-52 70-75 27m0-16q49 0 71-45t21-126q0-82-21-127t-71-44-70 44-22 127q0 81 22 126t70 45m184 7v-12h26q6 0 9-3t2-8v-310q0-6-2-9t-9-2h-26v-12h73v333q0 6 3 8t8 3h26v12h-110m233 6q-23 0-44-16t-32-43-12-61 12-61 32-44 44-15q20 0 35 12t23 31l2 0v-142q0-6-2-9t-9-2h-36v-12h83v333q0 6 3 8t8 3h26v12h-73v-37l-2-1q-9 20-24 32t-34 12m6-14q15 0 27-11t20-31 7-41v-46q0-23-7-42t-20-30-27-11q-25 0-37 27t-13 79 13 78 37 28m459 17q-21 0-42-10t-35-20q-21-16-25-16-10 0-13 22l-2 20h-11l-4-158h12q3 37 21 70t44 55 55 21q41 0 59-20t19-48q0-25-14-39t-42-25l-76-30q-39-16-58-42t-19-60q0-48 28-71t70-23q33 0 73 30 5 3 10 6t9 3q9 0 10-12l2-18h12l5 130h-12q-8-36-25-64t-40-44-48-15q-28 0-46 18t-18 51q0 22 12 35t34 21l96 39q34 13 50 38t17 53q0 26-12 50t-36 38-60 15m237-3q-22 0-37-16t-15-44v-160h-37v-14h11q23 0 35-25t13-53v-18h14v96h62v14h-62v163q0 15 6 25t21 10q35 0 35-60h9q0 33-10 57t-45 25m160 0q-26 0-46-13t-19-46q0-26 13-40t30-21 42-11l46-8v-43q0-46-46-46-17 0-31 8t-14 20q0 5 1 8 1 1 3 3t5 2q9 2 13 7t5 12q0 11-6 15t-16 5q-11 0-20-9t-9-24q0-19 10-32t27-21 33-6q33 0 57 17t24 54v123q0 25 16 25 12 0 18-15t5-35h9q0 30-9 50t-31 21q-21 0-32-13t-12-35l-2-1q-8 17-25 33t-39 16m8-18q23 0 35-18t23-45v-48l-43 10q-24 5-35 19t-11 42q0 23 10 31t21 9m170 12v-12h21q6 0 9-3t2-8v-182q0-6-2-9t-9-2h-21v-12h68v41l2 0q12-24 29-36t37-11q37 0 52 22t15 54v135q0 6 3 8t8 3h21v12h-100v-12h21q6 0 9-3t2-8v-144q0-22-9-38t-29-15q-18 0-32 12t-21 33-8 48v104q0 6 3 8t8 3h21v12h-100m363 6q-23 0-44-16t-32-43-12-61 12-61 32-44 44-15q20 0 35 12t23 31l2 0v-142q0-6-2-9t-9-2h-36v-12h83v333q0 6 3 8t8 3h26v12h-73v-37l-2-1q-9 20-24 32t-34 12m6-14q15 0 27-11t20-31 7-41v-46q0-23-7-42t-20-30-27-11q-25 0-37 27t-13 79 13 78 37 28m231 14q-26 0-46-13t-19-46q0-26 13-40t30-21 42-11l46-8v-43q0-46-46-46-17 0-31 8t-14 20q0 5 1 8 1 1 3 3t5 2q9 2 13 7t5 12q0 11-6 15t-16 5q-11 0-20-9t-9-24q0-19 10-32t27-21 33-6q33 0 57 17t24 54v123q0 25 16 25 12 0 18-15t5-35h9q0 30-9 50t-31 21q-21 0-32-13t-12-35l-2-1q-8 17-25 33t-39 16m8-18q23 0 35-18t23-45v-48l-43 10q-24 5-35 19t-11 42q0 23 10 31t21 9m170 12v-12h21q6 0 9-3t2-8v-182q0-6-2-9t-9-2h-21v-12h68v50l2 0q11-26 27-41t36-15 31 11 12 30q0 11-8 21t-19 11q-10 0-16-5t-7-14q0-11 10-18 5-3 7-6t2-6q0-5-4-8t-12-2q-15 0-30 15t-22 39-9 50v93q0 6 3 8t8 3h21v12h-100m298 6q-23 0-44-16t-32-43-12-61 12-61 32-44 44-15q20 0 35 12t23 31l2 0v-142q0-6-2-9t-9-2h-36v-12h83v333q0 6 3 8t8 3h26v12h-73v-37l-2-1q-9 20-24 32t-34 12m6-14q15 0 27-11t20-31 7-41v-46q0-23-7-42t-20-30-27-11q-25 0-37 27t-13 79 13 78 37 28m382 8v-16h48q14 0 14-14v-298q0-7-3-11t-11-3h-18q-31 0-54 32-15 21-20 51t-5 46h-14l4-143h287l4 143h-14q0-15-5-46t-19-51q-23-32-55-32h-18q-7 0-10 3t-3 11v298q0 14 13 14h48v16h-169m357 0v-16h48q14 0 14-14v-298q0-7-3-11t-11-3h-18q-31 0-54 32-15 21-20 51t-5 46h-14l4-143h287l4 143h-14q0-15-5-46t-19-51q-23-32-55-32h-18q-7 0-10 3t-3 11v298q0 14 13 14h48v16h-169" />
<path id="oldenburg" class="f" d="M63 480q0 64 39 107t104 43 106-41 41-112-41-110-104-39-104 43-41 109m7 137q-25-25-38-60t-13-69q0-62 25-107t70-69 96-25q38 0 72 13t60 36 41 59 16 77q0 88-53 143t-138 55-138-53m493-3q16 0 16 19 0 14-18 26t-42 11q-41 0-55-38-4-13-4-32v-264q0-9-2-12t-4-2l-22 3q-9 0-15-5t-7-14q0-18 27-21 17-1 27-4t19-4q19 0 19 24v272q0 34 4 43t7 13 13 2 16-6 10-8 11-3m229-10v-133q-24-18-58-18t-59 25-24 65 22 65 58 24 61-28m6 36q-27 30-74 30t-81-34-34-90 37-95 94-37q29 0 52 12v-90q0-9-2-12t-4-2l-21 3q-10 0-16-5t-7-14q0-18 27-21 18-2 27-5t19-3q19 0 19 24v269q0 33 3 45t10 16q12 8 12 19 0 20-25 20t-36-30m150-121l16 1q9 0 54 0t58-7 14-23-17-26-37-11q-36 0-59 18t-29 48m163 71q22 0 22 19 0 9-7 20t-20 20q-30 21-79 21t-85-33q-17-16-28-40t-11-52q0-56 37-94t92-37q46 0 74 23t27 55-27 49-101 17q-20 0-58-2 4 38 29 57t52 19 43-6 22-21 18-15m143 75l-46 2q-23 0-23-18 0-9 7-14t20-5h22v-159q0-15-6-15-4 0-9 2t-14 2-14-6-6-13q0-19 26-22 14-1 26-4t21-3q18 0 18 23v32q11-23 35-38t50-15q47 0 67 24t20 64v128h16q31 0 31 19 0 7-6 12t-20 6l-43-2-46 2q-24 0-24-18 0-9 8-14t20-5h21v-112q0-51-26-61-9-4-21-4-26 0-50 20t-32 51v106h16q31 0 31 19 0 7-6 12t-20 6l-43-2m331-52q24 19 58 19t59-25 25-65-22-65-58-23-61 28v116q0 8-1 15m-10 37q-12 20-34 20t-22-20q0-11 10-17t12-18 3-45v-234q0-9-2-12t-5-2l-20 3q-10 0-16-5t-6-14q0-18 26-21 18-1 27-4t19-4q19 0 19 24v138q27-25 65-25 51 0 85 33t34 91-38 95-94 37q-27 0-50-11-7-4-13-9m421-29q-24 49-81 49-19 0-35-6-44-19-44-82v-109q0-14-6-14l-18 3q-22 0-22-20 0-18 23-20 14-2 22-4l13-3q4-1 13-1t13 7 5 16v130q0 49 24 60 9 4 22 4 23 0 42-22t28-55v-81q0-9-2-12t-4-2l-18 3q-21 0-21-20 0-18 24-20 12-2 20-4l13-3q4-1 13-1t13 7 4 16v133q0 46 12 57 3 3 9 5 9 4 9 15 0 23-27 23t-39-27q-4-9-5-22m252 46l-63-2q-11 0-17 0l-10 1q-12 1-22 1-23 0-23-18 0-9 7-14t20-5h22v-159q0-15-6-15-3 0-10 2t-14 2-13-6-6-13q0-19 26-22 16-1 27-4t20-3q18 0 18 23v38q19-42 63-55 14-4 27-4 27 0 43 12t16 36-9 35-21 12q-21 0-21-19 0-4 1-6l2-6q2-6 2-12 0-14-24-14t-46 27-33 70v81h40q31 0 31 19 0 7-6 12t-21 6m333-64v-124q0-4 1-7-26-20-60-20t-58 26-24 61q0 45 22 69t58 24 61-29m11-169q12-20 34-20t22 21q0 10-9 17t-13 18-2 44v150q0 61-30 96t-81 35q-41 0-65-18t-23-44q0-19 10-33t26-13q10 0 18 7t8 13-3 11-5 6-6 5-4 6q0 9 11 15t30 6q35 0 53-23t18-65v-22q-27 24-65 24-50 0-85-34t-34-92 37-94 93-36q28 0 52 11 7 4 13 9" />
<path id="ole" class="f" d="M139 685q-57 0-87-17-38-21-38-74 0-35 28-66t64-32q50 0 50 31 0 12-10 27-9 13-22 13-6 0-15-4-11-5-11-10 0-6 6-6 2 0 8 4 7 4 12 4 8 0 14-10t6-18q0-19-38-19-30 0-48 27-15 23-15 54 0 49 25 67 11 9 29 13t42 4q45 0 76-34 31-34 31-79 0-52-44-81-38-25-93-25-34 0-59 21-27 21-27 54 0 9-5 9-2 0-2-3 0-44 33-70 30-23 75-23 58 0 97 28 43 32 43 90 0 49-38 87-37 38-87 38m191-12q-46 0-46-79 0-45 21-108 26-78 62-78 18 0 18 16 0 26-32 79-13 20-26 38t-25 33q-4 11-4 26 0 46 22 62 4 4 9 4 8 0 19-10 12-9 16-9 2 0 2 2 0 2-5 10-11 14-31 14m-23-122q10-10 23-34t31-60q10-22 10-34 0-2-1-2-12 3-32 39-27 52-31 91m114 142q-21 0-32-15-10-14-10-35 0-30 19-59 21-31 51-31 26 0 26 16 0 30-48 77-4 4-30 21v1q0 5 6 9 7 5 14 5 34 0 97-86 7-10 11-10 2 0 2 2 0 1-1 2t0 2q-13 21-23 37t-19 26q-32 38-63 38m-24-40q19-3 42-34 23-31 23-50 0-6-4-6-9 0-26 16-26 25-33 48-4 10-4 19 0 5 2 7" />
<path id="oleo-script" class="f" d="M289 356q14 20 20 42t7 49-6 58-20 61-34 54-51 38-67 15q-53 0-83-39t-29-98 21-111 61-82 88-31q32 0 56 12t37 32m-136 283q24 0 40-21t25-53q17-65 17-134 0-85-46-85-26 0-46 31-36 58-36 162 0 56 6 70 3 7 8 15 9 15 32 15m219 34q-17 0-29-12t-11-32 25-133 25-161l-3-22q39-13 73-13 5 7 5 24 0 40-26 155t-25 133 5 19l35-12 9 17q-17 14-42 25t-41 12m92-93q0-62 38-99t86-36q29 0 48 15t19 38-12 41-30 26q-35 17-65 22l-12 1q4 47 39 47 12 0 25-6t21-12l8-6 12 16q-4 6-16 15t-23 15q-29 16-63 16t-55-25-20-68m72-16q25-5 40-22t15-44-16-27q-19 0-29 32t-10 61m200 109q-35 0-54-25t-20-67q0-56 30-96t82-40l18 1q9-4 19-4 40 0 40 74 20-1 41-5l8-2 3 19q-16 7-44 13l-10 2q-10 52-39 91t-74 39m27-43q21 0 37-27t24-57q-54 0-54-40 0-16 7-30l2-5q-2-1-5-1t-4 1q-13 8-24 37t-11 68q0 54 28 54m408-61q0 48-36 76t-89 28q-35 0-58-18t-25-30q6-17 24-37t32-25q26 16 48 73 32-1 32-35 0-19-15-47t-33-52-34-55-15-53q0-38 31-60t69-22 60 16 21 38-16 43-32 35l-16 13q6 8 15 20t23 43 14 49m-38-164q7-7 12-16t6-20-12-17-29-7-28 8-11 18 7 25 14 24l8 10q5-3 15-11t18-14m184 65q-20 0-32 33t-12 72q0 60 37 60 12 0 25-6t22-11l7-6 12 15q-4 6-16 15t-23 15-27 11-32 5q-39 0-59-26t-19-68q0-60 32-97t85-37q33 0 53 15t20 38-14 38q-13 0-29-5t-25-14l7-44q-4-3-12-3m93 198h-3q-1-4-1-18t13-77 14-71q0-16-14-34l-5-6 1-7q27-7 86-7 6 13 6 36 6-9 23-24t36-15q27 0 27 47-2 3-7 8t-17 13-24 11q-1 0-9-14t-12-13q-12 4-22 15-23 103-23 134 0 11 1 15-18 7-70 7m276-192q0 21-14 72t-13 67 4 16q3 0 23-9l6-3 9 17q-5 4-12 10t-28 16-38 11-28-11-10-29 13-65 12-61q0-21-13-39l-4-6 0-7q27-7 86-7 7 7 7 28m-57-83q-10-10-10-26t13-29 32-13 28 10 10 26-14 29-32 13-27-10m75 386q-3-6-3-27t20-110 19-138q0-10-4-21t-10-16l-4-6 0-6q24-8 83-8 6 11 7 30 39-32 64-32t42 22 16 63q0 72-27 107t-67 36q-21 0-35-6l-5-2 4-20q4 1 10 1 13 0 23-12t15-30q10-37 10-69 0-45-19-45-14 0-31 12-2 35-20 122t-19 141q-27 11-69 14m361-328h48q-1 13-8 29-19-2-36-2h-9q-23 112-23 139 0 15 6 15t33-13l9 17q-44 37-82 37-18 0-29-11t-11-30 4-41 12-56 11-54q-19 2-28 3-1-6-1-16t2-17h31q4-27 4-51l0-15v-2q39-13 73-13 2 10 2 25t-8 56" />
<path id="oleo-script-swash-caps" class="f" d="M353 511l10-5q5 13 7 29-11 7-35 15t-44 9q-22 51-61 82t-96 32-88-39-30-108 32-125 92-89l10 18q-54 67-54 193 0 82 25 105 12 11 29 11 50 0 72-85-39-7-60-34t-21-73 27-85 65-38 60 34 22 87q0 33-14 81 23-1 52-15m-117-68q0-35-4-53t-19-17-28 22-13 55 15 51 41 21q8-43 8-79m134 230q-17 0-29-12t-11-32 25-133 25-161l-3-22q39-13 73-13 5 7 5 24 0 40-26 155t-25 133 5 19l35-12 9 17q-17 14-42 25t-41 12m92-93q0-62 38-99t86-36q29 0 48 15t19 38-12 41-30 26q-35 17-65 22l-12 1q4 47 39 47 12 0 25-6t21-12l8-6 12 16q-4 6-16 15t-23 15q-29 16-63 16t-55-25-20-68m72-16q25-5 40-22t15-44-16-27q-19 0-29 32t-10 61m200 109q-35 0-54-25t-20-67q0-56 30-96t82-40l18 1q9-4 19-4 40 0 40 74 20-1 41-5l8-2 3 19q-16 7-44 13l-10 2q-10 52-39 91t-74 39m27-43q21 0 37-27t24-57q-54 0-54-40 0-16 7-30l2-5q-2-1-5-1t-4 1q-13 8-24 37t-11 68q0 54 28 54m336 48q-35 0-54-17t-19-44 23-44 56-24q-5-9-39-59-21 5-40 5-42 0-66-22t-23-59q0-16 4-37l1-6q21 1 34 6-9 20-9 41t16 33 38 13q10 0 26-3-22-39-22-68 0-38 30-60t69-21 60 17 22 44-20 49-43 36q36 46 48 94 42 5 83 20-7 25-13 36-11-8-30-17t-35-10v0q0 40-31 68t-66 29m24-247q20-9 35-25t15-31-11-22-29-8-29 8-11 20q0 8 4 16t7 14 6 10 5 8 8 10m-36 210q14 0 24-13t10-27-3-23q-20 0-39 11t-20 26q0 11 8 18t20 8m294-171q-20 0-32 33t-12 72q0 60 37 60 12 0 25-6t22-11l7-6 12 15q-4 6-16 15t-23 15-27 11-32 5q-39 0-59-26t-19-68q0-60 32-97t85-37q33 0 53 15t20 38-14 38q-13 0-29-5t-25-14l7-44q-4-3-12-3m93 198h-3q-1-4-1-18t13-77 14-71q0-16-14-34l-5-6 1-7q27-7 86-7 6 13 6 36 6-9 23-24t36-15q27 0 27 47-2 3-7 8t-17 13-24 11q-1 0-9-14t-12-13q-12 4-22 15-23 103-23 134 0 11 1 15-18 7-70 7m276-192q0 21-14 72t-13 67 4 16q3 0 23-9l6-3 9 17q-5 4-12 10t-28 16-38 11-28-11-10-29 13-65 12-61q0-21-13-39l-4-6 0-7q27-7 86-7 7 7 7 28m-57-83q-10-10-10-26t13-29 32-13 28 10 10 26-14 29-32 13-27-10m75 386q-3-6-3-27t20-110 19-138q0-10-4-21t-10-16l-4-6 0-6q24-8 83-8 6 11 7 30 39-32 64-32t42 22 16 63q0 72-27 107t-67 36q-21 0-35-6l-5-2 4-20q4 1 10 1 13 0 23-12t15-30q10-37 10-69 0-45-19-45-14 0-31 12-2 35-20 122t-19 141q-27 11-69 14m361-328h48q-1 13-8 29-19-2-36-2h-9q-23 112-23 139 0 15 6 15t33-13l9 17q-44 37-82 37-18 0-29-11t-11-30 4-41 12-56 11-54q-19 2-28 3-1-6-1-16t2-17h31q4-27 4-51l0-15v-2q39-13 73-13 2 10 2 25t-8 56m268 227q-35 0-54-17t-19-44 23-44 56-24q-5-9-39-59-21 5-40 5-42 0-66-22t-23-59q0-16 4-37l1-6q21 1 34 6-9 20-9 41t16 33 38 13q10 0 26-3-22-39-22-68 0-38 30-60t69-21 60 17 22 44-20 49-43 36q36 46 48 94 42 5 83 20-7 25-13 36-11-8-30-17t-35-10v0q0 40-31 68t-66 29m24-247q20-9 35-25t15-31-11-22-29-8-29 8-11 20q0 8 4 16t7 14 6 10 5 8 8 10m-36 210q14 0 24-13t10-27-3-23q-20 0-39 11t-20 26q0 11 8 18t20 8m190-15l5-131q0-17-18-35l1-6q4-1 7-2t7-1 10-2 12-2q14-2 26-2t21 10 9 32-7 62-7 60 10 20q15 0 34-20 0-8 6-51t6-62-3-34q39-14 69-14 7 4 7 29t-9 68-8 64 8 20q19 0 41-29t24-47l-34-38q2-21 11-39t16-24l7-7q21 0 32 12t11 27q0 39-19 83t-53 75-67 31q-17 0-29-10t-15-25q-35 35-68 35-22 0-33-14t-10-33m450-166q1-1 5-13 24 0 63 14-12 41-20 86t-7 65 4 19q3 0 22-9l6-3 9 17q-5 4-12 10t-27 16-36 11q-31 0-36-28-32 28-58 28t-44-20-17-63q0-67 27-106t67-39q28 0 54 15m-57 170q12 0 27-9 3-71 23-140-15-6-25-6-18 0-31 35t-13 78 19 42m296-29q0 32-28 52t-63 20-56-15-21-27q0-7 18-23t29-19q25 19 41 59 19-2 19-18 0-23-41-65t-40-67 22-39 54-14 48 11 16 31-30 53q3 4 9 9t14 22 9 30m-48-78q21-18 21-36t-24-17q-11 0-19 4t-7 11q0 11 22 31l7 7m130-186q0-17-3-24 39-13 73-13 5 4 5 23 0 33-28 152 40-30 71-30 19 0 28 12t10 32-11 64-12 62 4 16 21-9l6-3 9 18q-4 4-12 10t-27 16-37 10-27-11-10-29 11-67 12-61-11-12q-13 0-32 11-28 121-28 157-21 8-71 8-1-9-1-15 0-22 30-147t30-170m409 336q-49 0-80-38t-30-98 21-112 61-82 87-31q18 0 32 5 36-24 75-24 18 0 33 5t24 13q-4 17-13 31-24-17-48-17t-44 9q24 25 24 71t-24 83-60 38q-22 0-35-18t-13-45q0-65 48-118-39 2-64 52t-24 121q0 104 60 104 41 0 87-51l18 14q-7 12-22 29t-29 28-37 21-47 10m107-263q0-41-18-56-22 20-36 48t-13 58q0 15 6 25t15 10q19 0 33-27t13-58m195 50q1-1 5-13 24 0 63 14-12 41-20 86t-7 65 4 19q3 0 22-9l6-3 9 17q-5 4-12 10t-27 16-36 11q-31 0-36-28-32 28-58 28t-44-20-17-63q0-67 27-106t67-39q28 0 54 15m-57 170q12 0 27-9 3-71 23-140-15-6-25-6-18 0-31 35t-13 78 19 42m133 149q-2-6-2-27t19-110 20-138q0-10-5-21t-9-16l-5-6 1-6q23-8 83-8 5 11 7 30 38-32 64-32t41 22 16 63q0 72-26 107t-67 36q-21 0-35-6l-5-2 3-20q5 1 11 1 13 0 22-12t15-30q10-37 10-69 0-45-18-45-15 0-31 12-2 35-21 122t-18 141q-27 11-70 14m408-178q0 32-28 52t-63 20-57-15-20-27q0-7 17-23t30-19q25 19 41 59 18-2 18-18 0-23-40-65t-41-67 23-39 54-14 48 11 16 31-31 53q4 4 9 9t15 22 9 30m-48-78q21-18 21-36t-24-17q-12 0-19 4t-8 11q0 11 22 31l8 7" />
<path id="onest" class="f" d="M191 671q-55 0-92-24t-56-64-19-93q0-52 19-93t56-64 92-24 91 24 56 64 19 93q0 52-19 93t-56 64-91 24m0-40q42 0 69-19t39-51 13-71q0-29-7-55t-22-45-38-30-54-11q-42 0-69 19t-41 52-13 70q0 38 13 70t40 52 70 19m266 36h-43v-264h41l2 40q9-14 23-24t31-14 33-5q38 0 60 16t31 43 9 62v146h-42v-134q0-19-3-36t-9-30-19-22-33-7q-26 0-45 14t-27 39-9 55v121m367 3q-42 0-70-18t-41-47-13-70q0-39 14-70t42-47 67-18q31 0 53 12t37 31 21 43 6 47q-1 4-1 9t-1 9h-195q2 23 11 41t27 29 44 11q13 0 26-3t24-11 15-22h44q-6 26-23 42t-39 24-48 8m-80-156h152q0-23-10-40t-26-26-38-10q-25 0-42 11t-25 27-11 38m348 156q-18 0-36-4t-34-12-26-23-14-36h43q5 14 16 22t26 12 27 3q8 0 19-1t20-5 16-11 6-21q0-10-4-16t-13-11-19-6q-24-5-51-10t-47-17q-7-4-13-10t-9-13-7-16-2-19q0-20 8-34t22-24 32-13 39-5q26 0 47 8t34 24 16 39h-39q-4-14-19-24t-40-9q-8 0-18 1t-19 5-15 11-6 20q0 11 6 18t16 12 24 8q18 3 39 7t33 8q16 5 26 14t16 21 6 29q0 24-10 39t-24 23-35 12-37 4m289-3h-28q-30 0-49-9t-26-28-8-48v-141h-43v-38h43v-78h42v78h71v38h-71v136q0 27 10 40t40 13h19v37" />
<path id="oooh-baby" class="f" d="M168 688h0q-31 0-59-12t-45-36-18-61q0-19 9-44t21-50 27-42q16-20 37-37t45-31 49-22 46-7q27 0 52 10t46 29 31 43 12 51q0 26-11 52t-31 48-41 42q-37 30-81 48t-89 19m-3-16q42 0 83-18t75-45q22-18 40-40t29-46 11-46q0-23-10-43t-28-37-39-25-45-9q-21 0-45 7t-45 20-43 30-33 35q-13 17-25 40t-20 47-7 41q0 28 13 48t37 30 52 11m316-8q-40 0-40-45 0-21 10-44t26-43 37-32 41-13q19 0 27 14t9 31q0 23-9 46t-25 43-35 31-41 12m0-16q3 0 3 0 20-3 36-14t29-29 19-37 6-40q0-11-6-18t-17-6q-14 0-31 12t-30 30-23 39-9 36q0 27 23 27m167 16q-41 0-41-45 0-21 10-44t27-43 36-32 42-13q18 0 27 14t8 31q0 23-9 46t-24 43-35 31-41 12m-1-16q3 0 4 0 19-3 36-14t28-29 19-37 7-40q0-11-7-18t-16-6q-15 0-31 12t-31 30-23 39-9 36q0 27 23 27m121 28q-8 0-8-8 0-11 7-34t20-52 26-61q8-18 17-35t16-29q74-125 92-125 7 0 7 7 0 5-7 17t-18 28-23 33-23 30-17 21q-5 7-12 19t-13 26-11 23l-19 47q8-10 20-22 28-32 59-48t52-16q11 0 18 7t7 17q0 19-25 65-26 46-26 56 0 6 6 6 14 0 31-11t34-26 34-32q2-2 6-2 7 0 7 6 0 6-7 13-33 33-57 50t-51 16q-20 0-20-18 0-7 3-14t8-17l23-46q8-17 12-28t4-18q0-8-10-8-19 0-44 14t-52 45q-16 17-29 36t-20 41l-6 17q-4 10-11 10m356 28q-8 0-8-8 0-6 4-16-9 0-9-8 0-9 15-8 18-45 91-169 19-32 40-66t42-67q-68 18-63 18-8 0-8-8 0-5 5-7 9-4 28-10t50-13q5-7 8-13t8-11q10-14 15-14 8 0 8 7 0 3-6 11t-10 17q12-2 30-6t44-3q100 0 100 46 0 18-12 34t-33 29-44 23-50 18q74 17 74 69 0 28-16 50t-43 38-58 26q-65 20-152 20-18 0-37-2-5 11-5 15 0 8-8 8m54-37q78 0 139-18 29-9 54-23t41-35 16-42q0-32-43-48-32-12-70-12-13 0-25 1-13 4-15 4-7 0-7-9 0-7 8-7 51 0 116-23 24-8 47-20t37-27 15-31q0-30-83-30-19 0-41 3t-44 7q-60 92-105 169t-74 140q4 0 10 0t24 1m329 5q-29 0-29-28 0-18 9-39t24-40 33-36 38-26 38-10q32 0 32 32 0 20-10 20-9 0-9-8 0-4 1-8t2-8q0-14-19-14-30 0-76 47-11 11-22 27t-17 31-7 30q0 13 15 13 13 0 28-8t26-16q22-17 45-45 3-4 9-11t12-14q3-3 6-3 8 0 8 8l-19 29q-19 28-19 46 0 13 13 13 10 0 23-6t20-11q16-10 34-26t33-32q2-2 6-2 8 0 8 6 0 6-7 13-20 20-36 34t-31 23q-9 6-23 12t-32 6q-25 0-25-26 0-10 3-17-46 44-85 44m239 24q-14 0-24-8t-9-22q0-5 1-7-7 16-13 16-8 0-8-9l39-102q9-24 20-50t23-50 22-43 17-30q16-28 31-43t23-15q10 0 10 10 0 6-6 6-13 0-45 55-10 17-19 33t-16 34q-11 23-23 50t-25 57q16-24 36-44 18-17 36-28t38-11q20 0 32 9t12 32q0 19-11 41t-29 43-39 38-40 28-33 10m-2-16q15 0 33-11t36-26 33-36 24-38 9-33q0-23-22-23-20 0-39 12t-37 32-33 44-29 49q5-5 9-5 7 0 7 7 0 3-3 6-1 2-2 4t-1 6q0 12 15 12m157 152q-30 0-30-36 0-30 13-59 2-5 6-5 9 0 9 8 0 2-1 5t-3 8q-3 9-5 20t-2 22q0 13 3 17t9 5q13 0 31-12t37-38q13-19 28-44t31-59q22-43 40-88-12 16-26 31t-29 28q-41 35-69 35-33 0-33-38 0-13 5-32t15-44q2-4 2-7t1-5q8-18 27-39 4-5 7-5 7 0 7 11-48 72-48 121 0 21 16 21 19 0 52-25 23-18 43-41t36-47q11-17 18-30t8-17q3-7 7-7 10 0 10 8 0 4-4 14t-9 24q-8 21-23 55t-38 82q-28 59-55 97-20 28-44 47t-42 19" />
<path id="open-sans" class="f" d="M358 488q0 41-10 75t-31 58-51 37-71 14q-42 0-73-14t-51-37-30-59-10-75q0-54 18-96t54-64 93-23q53 0 89 23t55 64 18 97m-284 0q0 45 13 78t40 52 68 18q41 0 68-18t39-52 13-78q0-69-29-108t-90-39q-42 0-69 18t-40 50-13 79m483-94q50 0 80 35t30 103q0 46-14 77t-38 47-59 16q-21 0-37-6t-28-15-19-21h-3q1 10 2 23t1 23v110h-40v-387h33l5 40h2q8-13 19-23t28-16 38-6m-7 34q-28 0-45 11t-24 32-9 54v8q0 34 8 57t25 36 46 12q25 0 41-14t25-37 8-55q0-48-18-76t-57-28m291-34q34 0 58 15t38 43 12 63v25h-184q0 48 23 72t64 25q25 0 45-5t41-13v35q-21 9-41 13t-47 5q-38 0-67-16t-44-46-16-75q0-43 14-75t41-49 63-17m-1 33q-32 0-52 22t-23 59h142q0-24-7-42t-22-28-38-11m305-33q48 0 72 24t24 74v175h-40v-172q0-33-15-50t-47-17q-44 0-62 26t-18 73v140h-41v-268h33l6 39h2q9-15 22-24t30-15 34-5m517 178q0 31-15 54t-44 34-67 12q-20 0-38-2t-34-6-26-9v-40q18 8 44 14t56 7q26 0 45-8t28-20 10-33q0-18-8-31t-27-22-51-22q-23-8-40-17t-29-22-18-28-6-37q0-29 15-49t40-32 59-10q29 0 53 5t45 14l-13 36q-19-8-41-13t-45-6-38 7-24 19-9 29q0 19 8 31t26 22 46 20q31 12 53 25t34 31 11 47m167-177q48 0 71 21t23 69v182h-29l-8-40h-2q-11 15-23 25t-29 15-39 5q-24 0-43-9t-30-26-11-44q0-40 32-61t97-24l46-2v-16q0-35-15-49t-42-14q-21 0-40 6t-36 15l-13-31q18-9 42-16t49-6m54 164v-24l-40 2q-51 1-71 16t-21 41q0 23 14 34t37 11q36 0 59-20t22-60m251-165q47 0 72 24t24 74v175h-40v-172q0-33-15-50t-47-17q-45 0-63 26t-18 73v140h-40v-268h33l6 39h2q8-15 22-24t29-15 35-5m353 199q0 26-13 43t-37 27-57 9q-28 0-48-5t-36-12v-38q16 8 39 15t46 7q35 0 51-12t15-30q0-11-6-20t-21-16-40-17q-26-10-45-20t-28-23-11-36q0-34 28-53t72-18q24 0 45 5t40 13l-14 32q-17-7-35-12t-39-5q-28 0-43 10t-15 25q0 13 7 21t23 15 40 16q25 10 43 19t29 24 10 36" />
<path id="oranienbaum" class="f" d="M255 492q0 46-10 80t-27 57-38 34-42 11-43-11-38-34-27-57-10-80 10-81 27-57 38-34 43-11 42 11 38 34 27 57 10 81m-47 0q0-52-7-86t-16-53-23-28-24-8-25 8-23 28-16 53-6 86 6 85 16 54 23 28 25 8 24-8 23-28 16-54 7-85m155 17v145l30 8v5h-100v-5l30-8v-205l-30-7v-5h70v60q6-19 15-34 8-13 20-23t27-11q6 0 11 1t9 2q4 1 8 2l-15 38q-3-2-7-4-3-1-7-3t-9-1q-13 0-23 7t-16 16q-8 10-13 22m242 110v-75q-43 0-64 19t-21 54q0 22 11 35t24 12q12 0 21-7t16-15q8-10 13-23m-37-182q-15 0-25 10t-10 27q0 4 0 7t1 6 1 5l-40 10q-1-2-1-4t-1-6 0-8q0-10 5-20t14-18 24-12 32-5q36 0 56 21t21 54v150l30 8v5h-70v-30q-5 10-14 19-7 7-18 12t-25 6q-36 0-55-17t-18-45q0-14 8-28t23-25 41-18 58-7v-30q0-37-11-52t-26-15m137 225l30-8v-205l-30-7v-5h70v30q5-10 14-19 7-7 18-13t26-6 27 6 23 15 14 23 6 31v150l30 8v5h-98v-5l28-8v-150q0-35-12-50t-26-15q-12 0-21 7t-16 16q-7 10-13 22v170l28 8v5h-98v-5m258 0l30-8v-205l-30-7v-5h70v217l30 8v5h-100v-5m72-283q0 10-8 17t-17 8-17-8-8-17 8-17 17-8 17 8 8 17m243 173h-135q0 32 4 53t13 35 17 19 21 5q13 0 24-5t21-13 14-21 8-26h8q-2 16-9 30t-17 24-25 15-29 6q-19 0-36-8t-31-24-21-39-7-51q0-30 7-53t20-39 28-23 35-8 34 8 28 23 20 39 8 53m-90-115q-8 0-15 4t-14 17-11 32-5 52h90q-1-31-6-52t-10-32-14-17-15-4m127 225l30-8v-205l-30-7v-5h70v30q5-10 14-19 7-7 18-13t26-6 27 6 23 15 14 23 6 31v150l30 8v5h-98v-5l28-8v-150q0-35-12-50t-26-15q-12 0-21 7t-16 16q-7 10-13 22v170l28 8v5h-98v-5m370-223q-11 0-20 5t-14 10q-6 7-11 15v150q6 13 13 23 7 8 16 15t21 7q9 0 17-5t16-19 12-35 5-53-5-54-12-34-18-19-20-6m8-10q18 0 34 8t30 24 20 39 8 52-8 51-20 39-28 24-31 8q-15 0-26-6t-18-12q-9-9-14-19v30h-70v-5l30-8v-325l-30-7v-5h70v137q5-7 12-12 7-5 16-9t25-4m265 190v-75q-44 0-65 19t-20 54q0 22 11 35t24 12q12 0 21-7t16-15q7-10 13-23m-38-182q-15 0-25 10t-10 27q0 4 0 7t1 6 2 5l-40 10q-1-2-2-4t-1-6 0-8q0-10 5-20t15-18 23-12 32-5q36 0 57 21t21 54v150l30 8v5h-70v-30q-6 10-14 19-7 7-18 12t-26 6q-36 0-54-17t-18-45q0-14 7-28t24-25 40-18 59-7v-30q0-37-12-52t-26-15m355 5l-30 7v205l30 8v5h-70v-30q-5 10-14 19-7 7-18 12t-25 6-28-5-22-16-15-23-5-31v-150l-30-7v-5h97v5l-27 7v150q0 36 11 50t26 15q12 0 21-7t16-15q8-10 13-23v-170l-27-7v-5h97v5m35 220l30-8v-205l-30-7v-5h70v30q5-10 14-19 7-7 18-13t26-6q19 0 31 7t20 16q9 10 14 22 6-12 15-22 8-9 20-16t27-7q15 0 28 6t22 15 15 23 5 31v150l30 8v5h-97v-5l27-8v-150q0-35-11-50t-26-15q-13 0-22 7t-15 16q-8 10-13 22v170l27 8v5h-95v-5l28-8v-150q0-35-12-50t-26-15q-12 0-21 7t-16 16q-7 10-13 22v170l28 8v5h-98v-5" />
<path id="orbit" class="f" d="M16 489q0-89 33-137t97-49 96 48 33 138-33 138-96 48-97-49-33-137m222 0q0-73-24-112t-68-39-69 39-24 112q0 73 24 112t69 39 68-39 24-112m177 178h-38v-250h199v37h-161v213m263-31v31h-37v-329h-28v-35h65v142q30-40 83-40 35 0 61 17t40 48 14 73q0 60-31 95t-84 35q-26 0-47-10t-36-27m0-93q0 44 22 70t60 26q36 0 57-26t22-70q0-48-22-76t-57-28q-38 0-60 28t-22 76m401-179h-61v-61h61v61m0 41v227h111v35h-261v-35h112v-192h-88v-35h126m330 227h41v35h-48q-47 0-72-19t-25-67v-120h-82v-35h82v-78h37v78h107v35h-107v115q0 22 6 34t20 17 41 5" />
<path id="orbitron" class="f" d="M327 667h-240q-16 0-30-8t-22-22-8-30v-240q0-17 8-31t22-21 30-8h240q17 0 30 8t22 21 8 31v240q0 16-8 30t-22 22-30 8m-240-41h240q8 0 14-6t6-13v-240q0-8-6-14t-14-6h-240q-8 0-14 6t-5 14v240q0 8 5 13t14 6m394 41h-41v-230q0-16 8-30t22-22 31-8h163v41h-163q-8 0-14 5t-6 14v230m451 0h-235v-385h41v95h194q17 0 30 8t22 22 9 30v169q0 17-9 30t-22 22-30 9m-174-41h174q8 0 14-6t6-14v-169q0-8-6-14t-14-5h-174q-8 0-14 5t-6 14v169q0 8 6 14t14 6m313 41h-41v-290h41v290m0-344h-41v-41h41v41m124 344q-17 0-31-9t-22-22-8-30v-324h41v95h126v41h-126v188q0 8 6 14t14 6h106v41h-106m185 0h-41v-230q0-16 8-30t22-22 30-8h163v41h-163q-8 0-14 5t-5 14v230m272 0q-16 0-30-9t-22-22-8-30v-169q0-16 8-30t22-22 30-8h174q17 0 31 8t22 22 8 30v169q0 17-8 30t-22 22-31 9h-174m0-41h174q8 0 14-6t6-14v-169q0-8-6-14t-14-5h-174q-8 0-14 5t-5 14v169q0 8 5 14t14 6m321 41h-41v-290h235q16 0 30 8t22 22 8 30v230h-41v-230q0-8-6-14t-13-5h-174q-8 0-14 5t-6 14v230" />
<path id="oregano" class="f" d="M327 457q0 2 0 5t0 5q0 26-7 54t-20 53-32 45-42 32q-14 7-30 10t-32 3q-12 0-23-2t-22-4q-23-6-41-20t-31-32-20-39-9-41q0-3 0-6t0-6q0-23 5-45t15-44 23-38 27-32 30-22 30-11q2-1 3-1t0 0 1 0 1 0q6 0 8 0t3 1q1 0 0 1t-2 1q0 0-1 0t0 1q0 1-1 2t-2 1 0 1 0 0 0 0-1 1q-3 2-6 4t-7 4q-18 12-31 32t-22 44-14 51-5 53q0 4 0 7t1 7q0 10 3 23t8 24 12 24 17 21 20 14 25 6q21 0 37-7t29-20 22-28 15-33 9-33 5-30q0-5 1-10t0-10q0-32-8-56t-22-41-31-26-37-10q-1 0-4 0t-6 0-5 0-2 0q-3-2-4-2l-1-1q0-2 1-3l3-1q1-1 2-1t2-1q1-1 0-1t-1-2q0-2 1-3t2-1q2-1 3-1t2 0q2 0 4 0t3-1 3-1 5-1q2 0 4 0t8-1q21 0 39 5t31 15 25 23 18 29 11 32 5 34m153 34q0 7-1 14t-3 13-5 11-6 8q-3 3-5 3t-2-1-2-2-2-2q-1 0-3 0t-3 0-3-2-2-5q0-5 1-12t1-15q0-6-2-10t-5-5q-1 0-6 3t-9 11-10 24-8 42q0 33 0 54t1 32q0 10-1 14t-2 5q-2 1-5 2t-8 2-7 2-5 0q-1 0-3-1t-4-4-4-4-2-3q0-3 0-11t0-21 1-27 0-29q0-9 1-21t1-23 2-23 2-20 1-15 1-7q0-2 2-1t3 1 4 3 2 0q0-3 3-1t6 4q1 1 2 2t3 2 2 3 1 6q0 4 0 10t2 17q2-9 6-19t9-18 13-13 17-6q6 0 12 2t10 7 7 10 2 14m177 87q0 2 1 6t0 8q0 6-2 15t-5 18-10 19-16 17-22 12-29 5q-14 0-29-5t-27-17-21-30-7-43q0-15 4-31t10-28 16-25 19-19 21-13 22-5q17 0 29 6t18 14 10 17 3 17q0 8-4 17t-11 18-21 14-32 6q-10 0-18-3t-14-7-10-9-8-10q-4 15-4 36 0 13 4 25t11 18 17 12 21 5q15 0 26-5t19-13 14-16 11-17 8-12 6-5q1 0 1 3 0 1 0 2t-1 3m-73-91q-4 0-11 2t-15 6-15 13-13 20q3-2 6-3t3-1q1 0 2 1 5 9 14 13t18 4q9 0 15-3t10-7 5-10 2-10q0-11-6-18t-15-7m193 169q15 0 29 2t26 9 19 17 7 26q0 12-5 23t-15 23-22 21-28 17-31 11-32 4q-13 0-25-3t-20-8-14-14-5-20q0-11 4-21t12-18 16-15 20-11 19-7 17-3q4 1 6 1t1 2 0 1-1 2q0 2 1 4t0 4q0 2-1 4t-3 2q-10 3-23 8t-23 14-18 17-8 19q0 4 5 6t11 2q10 0 23-3t26-7 28-13 24-16 18-19 6-23q0-6-2-9t-5-5-7-2-5 0q-18 0-36 2t-32 4-25 5-10 2q-5 0-10-3t-7-5-5-8-2-9q0-4 4-11t12-15 16-16 18-13q-8-4-15-11t-11-13-7-16-2-16q0-17 5-30t12-22 17-16 18-10 18-6 14-1q3 0 4 0t4 1q6-10 14-21t16-22 17-21 15-18 12-12 7-4q2 0 5 3t6 6 5 7 2 4-1 2-1 2q0 1 2 2t4 2q0 1 0 1t1 0q0 1-3 4t-11 8-18 16-28 27q-3 3-8 9t-9 11q7 4 14 9t12 13 9 17 3 21q0 23-7 39t-21 26-27 13-31 5q-3 0-7-1t-6 0q-6 3-13 9t-14 11-12 13-9 13q10-1 19-2t18-3 19-3 21-1m-8-156q0-5 6-17-12 4-21 11t-15 17-10 20-3 21q0 7 2 14t5 13 11 8 15 4q10 0 17-4t14-9 10-13 6-14 4-13 1-10q0-14-4-23t-12-12q-3 4-7 8t-7 8q-1 0-2 0 0 0-1-1t-2 0q0 0-1 0t-2 1q-2 0-3-2t-1-7m263 24q0 8-1 20t-4 27-5 29-1 27q0 9 1 16t4 14q2 3 2 5t-1 5-1 3 0 2 0 3-2 3-3 2-4 0q-2-2-4-2t-3 0-2 1-2 0q-4-3-9-6t-6-6q-1-1-2-5t-1-8-1-10-1-10q-8 15-17 25t-19 16-18 8-16 3q-8 0-13-2t-9-5q-12-12-17-19t-5-12q2-16 8-29t16-24 21-21 24-15 25-12 21-8q0-13-1-23t-2-14q-3-16-11-23t-18-7q-7 0-14 5t-13 14-9 20-3 24q0 3 0 6t1 6q0 2-2 3t-3 1-4 0-4 1q-1 1-2 1t-1 0-2-2-3-2-4-3-4-1-2-2-1-1q0-15 6-32t18-29 27-22 32-8q13 0 23 4t17 10 12 15 7 16 4 16 1 12m-44 67v-24q-8 3-16 7t-18 10-18 14-17 18q-9 11-13 19t-6 15 1 9 3 4q8 3 16 1t16-8 16-15 15-17 12-18 9-15m233 65q0 3-2 7t-6 3q-2 0-4-1t-2-1q-2 0-3 1t-6 1q-4 0-8-3t-6-9-3-12-1-12q0-11 1-25t2-29 2-30 1-27q0-16-3-26t-7-9q-6 1-11 9t-12 22-11 30-11 34-10 34-8 30-7 21-3 8q-2 0-3-1t-2-2-2-2-4-1q-2 0-3 1t-2 1-2 1-5 1q-5 0-9-3t-4-6q0-3 1-13t2-22 3-30 3-34 2-35 1-33q0-8 0-15t0-13q0-1 1-1 3 0 5 1t2 2 1 2 0 2q1 0 2-1t2-2 2-2 2-1h2q4 0 6-1t2-2 0-3 2-1q1 0 2 1t3 4 2 7 1 10q0 7-1 19t-1 26-2 27-1 25q3-10 7-23t9-26 10-26 13-22 15-16 15-6q14 0 22 5t13 13 7 20 2 25q0 11-1 24t-2 24-2 25-1 22q0 13 1 23t2 16m215-92q0 25-8 46t-20 35-30 22-35 8q-8 0-18-2t-18-6-18-11-16-17-11-23-3-31q0-20 4-37t13-29 17-23 20-16 19-10 15-3q4-1 3 0t-1 3-3 2 1 2q2 0 3 1t2 1l2-2q2-2 3-2t3 1 2 0 1-1q1-3 2-3t6-1q3 0 9 2t13 6 15 11 14 17 10 26 4 34m-89-72q-8 5-16 14t-15 20-11 26-4 30q0 17 3 30t9 24 14 14 19 6q9 0 19-6t17-16 11-26 5-37q0-22-6-36t-12-23-14-13-7-4q-4 0-6 0t-6-3" />
<path id="orelega-one" class="f" d="M124 364q20-5 42-5t42 5 36 12 29 20 24 25 16 29 11 32 3 33-3 34-11 31-16 30-24 25-29 19-36 13-42 5-42-5-36-13-29-19-24-25-16-30-11-31-3-34 3-33 11-32 16-29 24-25 29-20 36-12m69 40q-12-6-27-6t-27 6-21 17-14 25-8 32-3 37q0 25 4 46t14 37 23 25 32 9 32-9 23-25 14-37 4-46q0-19-2-37t-9-32-14-25-21-17m159 77v-39h75l16 30q21-35 61-35 26 0 42 16t16 43q0 16-12 27t-28 12-27-12-12-27q0-7 2-13-3-2-6-2-9 0-17 11t-17 32l-1 104h54v39h-146v-39h24v-147h-24m453 88h-158q1 14 4 25t9 18 12 12 14 7 15 1q25 0 40-9t23-31l33 11q-5 12-12 22t-16 20-21 15-26 9-31 4q-24 0-46-8t-37-24-25-37-9-48 9-49 25-37 37-24 46-9 45 9 37 24 25 37 10 49l-3 13m-157-39h86q-3-28-14-41t-29-13q-9 0-16 3t-13 9-9 17-5 25m169-127v-39h93v264h25v39h-118v-39h25v-225h-25m365 166h-157q1 14 4 25t9 18 12 12 13 7 16 1q25 0 40-9t23-31l32 11q-4 12-11 22t-16 20-21 15-27 9-30 4q-24 0-46-8t-37-24-25-37-9-48 9-49 25-37 37-24 46-9 45 9 37 24 25 37 10 49l-4 13m-156-39h86q-3-28-14-41t-29-13q-9 0-16 3t-13 9-9 17-5 25m330-132q0-16 12-28t28-11q6 0 11 2 8 2 14 6t9 8 6 11 3 12 0 13q0 7-2 15t-8 16-11 13-11 11q18 18 18 44 0 20-9 35t-23 25-34 14-42 5q-18 0-35-5-11 2-17 6t-6 8 3 7 7 3h68q52 0 75 15t23 49q0 16-4 29t-11 23-17 17-22 11-24 8-27 3-27 1q-23 0-42-5t-31-14-18-20-7-24q0-27 30-42-11-6-18-16t-7-25q0-17 9-30t26-20q-14-10-22-24t-8-34q0-15 5-28t15-20 23-14 28-8 31-2q39 0 66 13 6-8 10-14-15-1-26-12t-11-27m-36 78q-17 0-27 10t-10 29q0 18 10 29t27 10q17 0 27-10t9-29q0-19-9-29t-27-10m32 191h-69q-14 10-14 24 0 15 9 20t35 4q58 0 58-29 0-7-6-13t-13-6m310-147v108h24v39h-76l-11-26q-12 18-29 25t-46 6q-15 0-28-5t-22-15-15-21-5-28q0-25 20-42t50-17q25 0 41 5t28 15v-52q0-11-3-18t-9-11-13-6-18-2q-8 0-15 4 4 8 4 17 0 16-12 27t-27 12-28-12-11-27q0-9 3-16t9-13q5-5 10-9t13-8 18-7 22-4 29-2q20 0 38 6t31 17 20 26 8 34m-69 92v-16q-7-8-17-13t-17-4q-18 0-25 5t-7 19q0 16 6 23t23 7q9 0 20-6t17-15m361-248q20-5 42-5t42 5 36 12 29 20 24 25 16 29 11 32 3 33-3 34-11 31-16 30-24 25-29 19-36 13-42 5-42-5-35-13-30-19-24-25-16-30-11-31-3-34 3-33 11-32 16-29 24-25 30-20 35-12m69 40q-12-6-27-6t-27 6-20 17-15 25-8 32-3 37q0 25 5 46t13 37 23 25 32 9 32-9 23-25 14-37 4-46q0-19-2-37t-9-32-14-25-21-17m320 33q17 0 30 5t21 13 13 20 7 27 2 33v93h24v39h-117v-39h25v-98q0-19-4-30t-10-15-18-4q-10 0-21 9t-20 24l-1 114h25v39h-117v-39h24v-147h-24v-39h75l18 33q4-8 10-15t14-12 19-8 25-3m340 132h-157q1 14 4 25t9 18 12 12 13 7 16 1q25 0 40-9t23-31l32 11q-4 12-11 22t-16 20-21 15-27 9-30 4q-24 0-46-8t-37-24-25-37-9-48 9-49 25-37 37-24 46-9 45 9 37 24 25 37 10 49l-4 13m-157-39h87q-4-28-14-41t-29-13q-9 0-16 3t-13 9-9 17-6 25" />
<path id="orienta" class="f" d="M181 674q-42 0-75-20t-52-62-19-101q0-60 19-100t52-61 75-21 74 21 53 61 19 100q0 61-19 101t-53 62-74 20m0-39q43 0 69-35t27-109q0-73-27-108t-69-35q-42 0-69 35t-27 108q0 74 27 109t69 35m279 32h-48v-265h41l2 32q16-17 37-28t46-12l2 36-6 6q-23 0-42 8t-32 21v202m159-315q-14 0-24-9t-9-25q0-17 9-25t24-8q14 0 23 8t10 25q0 17-10 25t-23 9m24 315h-48v-265h48v265m207 7q-35 0-63-16t-44-47-15-77q0-46 15-77t43-47 61-16q47 0 77 30t29 89v35h-175q3 44 23 66t51 21q25 0 44-10t30-20l22 26q-16 17-41 30t-57 13m-71-161h127q0-38-16-59t-43-21q-27 0-46 20t-22 60m307 154h-48v-265h41l2 32q16-16 37-28t47-12q47 0 66 23t20 77v173h-48v-178q0-56-50-56-18 0-35 8t-32 22v204m330 7q-26 0-40-18t-14-51v-168h-38v-35h38v-55l38-10h10v65h70v35h-70v173q0 24 23 24 16 0 39-14l13 30q-15 11-34 17t-35 7m178 0q-20 0-37-10t-25-27-10-38q0-41 28-64t77-23q13 0 27 2t26 6v-31q0-26-14-41t-37-15q-42 0-55 42l-41-14q20-67 96-67 52 0 75 26t24 86v118q0 8 3 11t10 3q4 0 8-2t9-3l8 31q-8 4-18 7t-21 3q-18 0-30-9t-15-33q-15 16-38 29t-50 13m14-39q19 0 38-9t34-25v-49q-11-3-23-5t-23-2q-17 0-31 4t-24 16-9 30q0 17 11 28t27 12" />
<path id="original-surfer" class="f" d="M413 491q0 28-7 53t-21 46-31 38-40 29-47 18-52 6q-42 0-78-13t-61-39-40-60-15-78q0-28 7-53t20-46 30-38 39-29 46-18 52-7 52 6 48 18 40 29 31 38 20 46 7 54m-68 0q0-20-3-40t-10-38-17-35-25-28-32-19-40-7-41 7-32 19-25 29-17 34-10 39-3 39q0 20 3 40t9 39 16 34 25 28 32 18 43 7q22 0 41-7t32-19 25-27 17-35 9-39 3-39m113-58l69-4-3 64q6-12 15-23t18-22 22-18 23-13v81q-5-5-12-8t-14-2q-11 0-20 3t-15 10-11 15-8 18l-7 131-43 3-14-235m262-54q0 8-3 16t-9 14-14 9-17 4-17-4-14-9-9-14-3-16q0-9 3-17t9-14 14-9 17-4 17 4 14 9 9 14 3 17m-77 64l69 3-19 235-47-5-3-233m246 207q19 0 32-7t21-18 12-27 3-30l-3-56q0-10-6-20t-14-18-20-13-22-5q-19 0-34 8t-24 21-15 30-5 34q0 17 4 35t14 32 23 24 34 10m-24 141q-22 0-37-9t-24-21-16-31-8-36l67-4q-2 6-2 13t-1 14q0 9 2 19t7 19 12 13 20 5q12 0 21-6t16-18 11-24 8-29 4-29 3-26q-16 16-36 25t-46 9-46-10-36-28-23-39-8-46q0-24 8-45t23-39 35-26 45-10q10 0 20 1t19 5 19 7 17 11l-2-23 61-6q3 31 4 62t1 61q0 18 0 38t-3 40-6 40-11 38-17 34-24 27-34 17-43 7m275-412q0 8-3 16t-9 14-14 9-17 4-17-4-14-9-9-14-3-16q0-9 3-17t9-14 14-9 17-4 17 4 14 9 9 14 3 17m-77 64l69 3-19 235-47-5-3-233m119-5l67-5-3 44q7-12 16-22t20-18 24-10 28-2q23 4 39 14t26 28 14 38 5 48q0 15-3 30t-6 32-10 31-10 28l-61-6q1 0 4-6t6-15 8-22 7-28 6-31 2-33q0-19-3-33t-10-24-17-15-25-5q-13 0-23 7t-18 18-13 25-9 28l-6 131-46 4-9-231m505 229l-61-3 6-26q-9 8-19 14t-21 10-22 7-20 2q-16 0-33-5t-30-14-23-23-9-32q0-24 9-41t22-29 34-17 41-6q11 0 22 2t21 5 20 9 17 13q0-13-3-28t-9-26-16-20-25-8q-23 0-38 11t-22 34l-63-7q6-15 16-27t25-19 29-12 31-4q24 0 43 7t33 19 24 28 17 35 9 39 3 41q0 18-2 35t-6 36m-48-72q0-6 1-11t1-11q-2-12-8-21t-17-15-21-9-23-3q-12 0-23 4t-19 12-13 18-5 24q0 13 4 24t12 19 18 12 23 5q12 0 23-4t21-9 16-15 10-20m101-313l70-6-12 392-46 4-12-390m420 402q-28 0-53-7t-46-22-36-35-26-49l85-5q2 45 25 69t67 23q17 0 34-3t30-12 22-22 8-33q0-14-5-24t-14-16-21-11-24-6-24-4-23-2q-16-1-34-4t-36-7-33-13-28-19-19-28-7-37q0-20 7-37t18-29 28-23 33-15 35-9 36-3q17 0 36 2t38 8 37 13 32 20 24 28 12 37l-81 16q1-9 1-18 0-23-9-38t-24-25-33-13-39-4q-17 0-34 4t-30 14-22 22-9 33q0 12 7 22t18 16 25 11 28 7 27 4 21 3q16 1 33 4t34 9 31 13 27 20 18 27 7 35q0 21-9 37t-22 29-31 22-37 14-39 8-36 3m395-247l68 4-15 226-43 4-2-55q-6 14-14 25t-20 20-24 13-29 5q-24 0-43-10t-31-27-19-40-7-52q0-30 5-52t10-38q6-18 15-30l69 6q-12 14-21 34-8 17-15 43t-6 58q0 20 5 35t13 23 20 14 28 5q12 0 22-7t18-19 13-25 9-28l-6-132m118-4l69-4-3 64q6-12 15-23t19-22 21-18 23-13v81q-5-5-11-8t-14-2q-12 0-21 3t-15 10-11 15-8 18l-7 131-43 3-14-235m331 29v18h-83q1 21 5 46t7 49 10 47 10 41l-59 16q-6-19-11-43t-8-47-6-49-2-44q0-4 0-8t1-8h-34v-18h35q2-17 5-34t9-35 14-33 20-27 25-19 33-7q15 0 30 4t28 11 25 20 20 30l-64 28q0-6-1-14t-3-17-5-17-9-14-11-10-15-4q-11 0-18 8t-14 20-9 28-5 31-2 27-1 20v4h83m156 136q-19 0-38-5t-34-16q0 10 1 20t3 19 7 18 9 14 15 10 20 4q11 0 20-4t17-11 12-16 6-20l60 13q-7 15-20 26t-28 17-33 9-32 3q-28 0-50-8t-37-24-23-38-8-50q0-27 9-51t26-42 40-28 51-11q21 0 41 5t36 16 26 27 10 40q0 23-9 39t-24 25-34 15-39 4m-10-153q-11 0-20 5t-15 12-12 18-8 21-4 22-3 21q10 16 25 26t36 10q13 0 23-6t17-15 11-22 4-23-4-24-10-22-17-16-23-7m159-12l69-4-3 64q6-12 15-23t18-22 22-18 23-13v81q-5-5-12-8t-14-2q-11 0-20 3t-15 10-11 15-8 18l-7 131-43 3-14-235" />
<path id="oswald" class="f" d="M135 671q-41 0-65-16t-35-46-11-69v-154q0-40 11-69t35-44 65-15 65 16 35 44 11 68v154q0 40-11 69t-35 46-65 16m0-44q23 0 34-10t16-26 4-39v-177q0-23-4-39t-16-25-34-9-34 9-16 25-4 39v177q0 23 4 39t16 26 34 10m229 44q-36 0-57-23t-25-58l45-14q4 28 13 41t28 14q15 0 22-8t8-22q0-13-6-23t-18-20l-49-43q-15-13-26-29t-10-41q0-23 9-39t26-24 40-8q36 0 55 22t22 54l-38 13q-2-15-6-26t-12-18-19-6q-13 0-21 9t-8 21q0 7 3 14t12 15l51 47q10 9 19 20t16 25 6 33q0 24-10 41t-28 24-42 9m201-4h-48l-46-289h44l30 213 38-213h41l39 212 30-212h44l-48 289h-45l-40-204-39 204m253 4q-17 0-30-10t-20-25-8-32q0-27 9-46t25-31 36-22 44-19v-20q0-18-2-29t-8-18-19-5q-11 0-18 5t-9 14-3 22v14l-53-2q1-48 22-71t65-22q43 0 61 23t18 68v132q0 14 0 26t2 23 3 21h-49q-2-8-4-21t-3-22q-5 17-20 32t-39 15m21-46q8 0 15-5t13-10 7-9v-82q-12 7-23 14t-20 14-13 18-4 22q0 18 6 28t19 10m199 42h-54v-405h54v405m123 4q-37 0-55-27t-18-91v-56q0-33 6-61t20-45 45-17q15 0 27 6t21 16v-134h54v405h-54v-19q-9 10-21 16t-25 7m13-42q8 0 16-3t17-8v-190q-7-5-15-9t-19-3q-18 0-25 17t-6 43v82q0 20 2 36t9 25 21 10" />
<path id="outfit" class="f" d="M199 672q-37 0-69-14t-56-39-37-57-13-69q0-38 13-70t37-57 55-38 69-13 69 13 56 38 37 57 14 70q0 37-14 70t-37 57-56 38-68 14m-1-45q38 0 66-18t45-47 16-69q0-29-9-54t-27-42-40-28-51-9q-37 0-65 17t-45 47-16 69q0 29 9 53t26 43 40 28 51 10m328 45q-29 0-53-14t-36-36-13-55v-138h45v136q0 20 7 34t20 22 30 7q27 0 42-17t15-46v-136h45v138q0 31-13 55t-36 36-53 14m244-5h-45v-337h45v337m58-197h-162v-41h162v41m114 197h-45v-273q0-27 12-47t31-31 48-11q20 0 35 7t28 20l-30 29q-6-7-14-11t-20-3q-21 0-33 12t-12 35v273m76-197h-179v-41h179v41m90 197h-45v-238h45v238m-22-285q-13 0-21-9t-8-20q0-12 8-21t21-8 20 8 8 21q0 12-8 20t-20 9m170 285h-45v-337h45v337m59-197h-162v-41h162v41" />
<path id="over-the-rainbow" class="f" d="M46 650q-24-25-30-55t-3-61 12-63 13-58q2-11 3-26t2-32 4-33 8-28q1-1 4-5t4-4q34-20 61-15t46 26 32 57 16 75 0 80-17 75-35 57-52 27q-12 1-21 2t-16-1-15-6-16-12m26-18q24 17 43 15t32-17 23-41 13-55 5-63-1-60-9-51-13-32q-18-24-31-32t-24-5-16 16-11 30-5 37 0 38 4 32 7 19q1 2 7 6t13 10 15 13 11 14 4 13-8 12q-6 4-14 2t-15-7-16-14-13-16-11-14-7-10l-9 16v102q0 3 3 9t6 12 8 13 9 8m199-135q-1-4-6-13l-11-21q-5-11-10-20t-7-14q1-5 6-7t10-3 11 3 7 7l67 153 60-212 2-3q3-4 7-8t8-6 8 0q1 2 1 9t-1 8q-1 4-6 19t-11 32-10 32-6 19-4 16-4 29-6 35-5 36-5 28-2 16q-1 6-3 13t-7 13-10 8-14 1q-2-7-7-20t-10-30-12-35-12-35-11-30-7-20m271 161q-21-16-32-37t-19-47q-3 2-9 5t-12 5-12 3-8-1-2-7 10-14q0-1 6-6t11-11 10-11 6-6q6-12 7-27t1-30 2-32 7-29q4-8 13-20t22-22 24-19 22-11 13 5 0 24q-6 22-17 42t-22 40-23 39-15 40q-2 11-2 26t3 31 12 27 21 17q16 6 31 3t31-11 28-21 26-25 21-26 15-21l9 9q3 3-4 16t-22 31-34 36-41 30-41 15-36-10m-17-212q0 2 0 8t-1 13 1 13 0 8q16-26 30-57t21-61q-11 4-20 12t-15 19-10 22-6 23m220 3v212q-8 16-14 17t-9-11-5-31-3-45-1-51 2-52 3-45 4-33 5-13 5 13q16-11 34-22t37-17 39-10 38 4q2 6 1 15t-9 10q-8-1-21-1t-27 2-28 6-26 12-18 17-7 23m547 183q-11-18-17-40t-8-47-2-47 1-43q-7-2-16 1t-18 7-20 10-19 8-16 1-12-10q-4-8 1-13t15-8 23-4 25-3 20-5 9-10l17-186q0-4 5-7t8-2 9 2 3 7v161q7 1 13 0t13-4 13-4 13 0q2 5-1 10t-8 7l-9 5q-6 4-12 8t-13 7-9 5q0 6 0 23t-1 36 1 36 0 24q2 23 9 42t19 30 28 10 38-15q3 11 0 20t-13 14-21 7-25-2-24-10-19-21m146 35l-18-17q5-52 3-100t-8-94-14-95-14-102q0-1-1-4t0-8 0-8 1-4h17q1 8 4 27t8 42 9 49 8 49 8 42 5 28q0 1 2 5t2 8 2 7 3 5q1-4 6-13t10-21 10-20 7-14q8-14 20-26t24-14 21 5 11 35q1 7 2 20t1 30 2 35 2 35 2 30 0 20q6 7 8 16t1 17q-10 4-17 0t-12-11-8-16-6-15q1-19 2-40t-1-44-3-44-6-41q-9-5-17 3t-14 24-12 37-11 45-11 47-10 43-9 32-9 15m262-9q-20-16-32-37t-19-47q-3 2-8 5t-12 5-12 3-9-1-1-7 9-14q1-1 6-6t11-11 11-11 5-6q6-12 7-27t1-30 2-32 8-29q3-8 12-20t22-22 24-19 22-11 13 5 0 24q-6 22-17 42t-22 40-23 39-14 40q-3 11-3 26t4 31 11 27 21 17q16 6 32 3t30-11 29-21 25-25 21-26 16-21l8 9q3 3-4 16t-22 31-34 36-40 30-41 15-37-10m-16-212q-1 2-1 8t0 13 0 13 1 8q15-26 29-57t21-61q-11 4-20 12t-15 19-10 22-5 23m513 212q0-8-1-26t-1-41-2-47-2-48-1-40-1-27q0-3 0-10t0-15 0-15 0-10q-5 2-13 10t-18 16-19 15-17 9q-12-6-11-17t11-21 27-24 37-23 42-21 41-15 34-8 22 2q14 15 13 36t-9 44-23 50-27 50-23 46-8 36 14 23 46 3q17-4 35-12t35-20 32-22 25-22q17 5 19 13t-6 19-26 21-39 22-44 19-45 12-38 4-25-8q0 3 0 10t-2 16-5 15-10 10q-5 2-10-1t-7-8m25-287l1 180 90-201q-3-11-11-16t-19-4-21 5-20 10-14 13-6 13m255 287q-10-20-10-41t2-43q0-7 2-21t5-30 5-35 5-35 5-30 3-19q4-21 9-35t12-22 21-8 34 6q2 0 5 4t4 4q1 7 3 20t6 30 7 35 8 35 6 30 4 20q7 34 18 48t23 14 25-8 26-19 24-16 19-2q0 9-4 18t-11 16-13 14-14 11q-27 18-46 19t-31-8-20-26-14-33-12-29-13-16q-2 6-6 21t-10 34-11 33-6 22q-1 2-5 9t-8 15-11 16-12 11-13 3-11-12m25-144q-1 6-1 22t0 33 0 33 1 22q18-26 31-60t21-71 6-74-15-66q-8 15-16 38t-12 47-9 44-6 32m219 127q-1-2-3-7t-3-13-2-13-1-9v-238q0-4 4-6t10-3 11 1 5 0v263q0 8 5 14t13 8 15 4 13-1q7 11 0 17t-20 6-27-4-20-19m-17-364q0-15 11-19t23 1v26q-2 1-5 1t-8 0-8 0-5-1q-2 0-5-4t-3-4m131 381q1-6 1-22v-66q0-16-1-22 0-3-1-13t-3-23-4-27-4-28-3-23-2-13q-1-7 0-15t2-12 8-8 16 1q0 11 1 25t4 29 5 29 7 27q6-18 12-32t14-25 18-23 23-21q17-15 29-12t19 17 12 36 9 46 8 49 11 41 15 25 25 1q4 13 1 19t-11 7-18-4-20-13-18-19-11-24q-1-9-3-29t-4-43-9-45-18-35l-34 33q-1 2-7 18t-12 35-14 41-9 34q-1 4-2 16t-3 26-2 26-1 16q-5 9-13 9t-13-9m278 4q-2-7 4-15t16-17 24-18 26-17 22-16 13-14q8-15 13-34t7-38-1-33-9-20-20 1-32 31q-6 7-13 24t-16 38-17 43-17 35-16 20-14-8q0-3 0-12t0-17 0-18 0-12q-1-33-3-65t-5-63-4-62-5-64q-1-14 1-19t5-4 8 10 9 17 7 23 4 23q0 6 0 19t2 29 2 33 2 33 1 29 1 19q11-8 19-20t14-23 15-23 20-19q31-20 52-22t31 10 13 31-4 46-19 52-31 51-44 41-53 24l-4-4q-3-4-4-5m218-21q-12-18-15-40t0-47 8-49 9-48 5-44-7-34q-4-8-10-8t-15 2-15 1-13-9q0-2 3-5t5-4q44-6 74 9t47 44 24 64 5 72-12 66-23 47-32 15-38-32m25-17q1 2 3 4t6 5 5 6 3 2q18-10 27-28t10-39-2-45-10-45-16-41-17-30q-1 6-2 19t-3 30-4 35-3 36-3 30-2 19q-1 5 0 11t2 12 3 11 3 8m267 17q-7-11-12-32t-10-43-8-41q-3-19-4-27-1 8-6 26t-11 36-17 40-22 34-26 19-28-3q-1-1-2-4t-3-7-2-8-1-7v-203q-8-14-9-23t2-14 8-6 11 0 9 6 4 12v203l9 25q24-16 38-40t23-52 11-56 4-55q2-1 6-1t8 0 7 3 4 6l34 178 17 34q11-8 17-27t9-46 2-59 0-62 1-60 4-48 12-31 23-6q9 3 9 11t-5 17-10 16-7 7v229q0 10-4 23t-11 24-15 22-19 13-20-2-20-21" />
<path id="overlock" class="f" d="M332 501q0 78-42 124t-112 47-112-47-41-124 41-125 112-46 112 46 42 125m-67-92q-13-22-35-35t-52-13q-51 0-82 35t-30 90q0 59 25 105 12 23 34 37t52 13q54 0 83-36t30-94-25-102m275 20q19 0 19 19 0 34-25 102t-51 99q-9 11-16 15t-14 4-15-1q-12-58-38-131t-45-91q15-13 27-13t20 17q11 24 31 83t31 99q20-27 41-84t21-100q0-8-2-15 8-3 16-3m170 0q35 0 56 20t22 43-7 36-18 20-32 12q-32 6-96 6 4 36 21 57t53 21 50-26q20 8 20 22t-23 23-51 9q-47 0-77-30t-30-90 33-91 79-32m-2 28q-30 0-52 20t-22 64q72 0 95-11 10-4 17-13t8-23-14-26-32-11m135 183l1-89q0-71-3-117 8-1 17-1 21 0 21 19 0 1 0 6t0 11q10-15 26-28t31-12q27 0 27 20 0 9-10 22-11-9-24-9t-28 11-23 29q-1 17-1 74t10 88q-9 4-22 4t-17-6-5-22m158 2l1-143v-58q0-118-4-144 8-2 18-2 23 0 23 19 0 2-1 27-3 91-3 147v78q0 66 10 98-9 4-21 4t-18-6-5-20m314-91q0 55-30 88t-79 33-79-33-30-88 30-89 79-33 79 33 30 89m-109 93q35 0 54-24t20-64-20-70-55-29-54 24-19 65 20 69 54 29m262 0q15 0 30-7t22-19q20 8 20 20 0 16-23 25t-51 9q-45 0-76-30t-30-89q0-31 10-56t26-39q34-29 74-29 25 0 48 12t23 32q0 18-24 22-5-18-21-28t-34-10q-28 0-48 25t-19 70 20 68 53 24m126-2l1-143v-58q0-118-4-144 8-2 17-2 23 0 23 19 0 2 0 23-3 77-3 126 35-34 76-34 33 0 50 18t17 46-19 50-52 26q26 44 39 58t29 14q8 0 13-2 5 9 5 16t-11 12-20 5q-19 0-36-18t-28-38-19-31-10-17q-13-2-13-11 0-5 3-12 16 4 25 4 28 0 43-16t15-33-11-31-27-12-37 10-32 26v73q0 66 9 98-9 4-21 4t-17-6-5-20" />
<path id="overlock-sc" class="f" d="M178 672q-70 0-112-47t-41-124q0-78 41-125t112-46q70 0 112 46t42 125q0 78-42 124t-112 47m112-162q0-28-7-53t-18-48-35-35-52-13q-51 0-82 35t-30 90q0 29 6 56t19 49 34 37 52 13q54 0 83-36t30-95m267-103q8-2 19-2 12 0 17 4t4 17q0 42-28 113t-60 108q-11 14-18 17t-21 4q-6 0-11-1-13-63-44-144t-54-101q16-14 33-14 7 0 12 4t12 17q14 31 35 92t33 105q27-34 50-96t23-108q0-9-2-15m132 30q1 12 1 77h32q34 0 48-1 2 4 2 11 0 10-5 13t-13 5q-10 0-28 0h-36q0 81 3 97 18 1 29 1 66 0 87-9 3 9 3 19 0 8-4 12-7 5-68 5-12 0-38 0t-28 0q-12-1-17-6t-4-16q0-7 1-31t0-37v-77q0-57-6-89 49-4 92-4 60 0 68 6 4 4 4 12 0 10-4 19-24-8-75-8-19 0-44 1m337 195q11 11 24 11 2 0 10-1 4 7 4 13 0 15-33 15-14 0-28-11t-26-31-19-34-16-35q-10-2-10-10 0-5 4-15 11 3 19 3 23 0 37-15t15-38q0-29-16-41t-49-11q-3 0-30 1 2 23 2 79v77q0 52 7 76-8 3-22 3t-18-5-5-17q0-6 1-31t0-38v-78q0-55-5-90 27-4 63-4 112 0 112 78 0 31-18 51t-47 26q30 58 44 72m97-52v-81q0-52-3-91 8-1 19-1 23 0 23 15 0 2-1 16t-1 33-1 38v35q0 79 3 95 17 1 26 1 63 0 81-9 3 10 3 19 0 8-3 12-8 5-65 5-11 0-36 0t-27 0q-11-1-15-6t-4-16q0-6 0-29t1-36m285 90q-58 0-92-36t-35-96q0-61 35-97t92-36q59 0 93 36t35 97q0 60-35 96t-93 36m88-125q0-29-8-53t-29-42-50-18q-41 0-65 27t-23 67q0 30 8 56t28 43 51 18q42 0 65-27t23-71m281 65q19 8 19 23 0 15-23 26t-59 11q-59 0-94-36t-36-96q0-63 35-98t97-35q32 0 54 12t22 30q0 19-27 23-7-18-24-28t-34-10q-36 0-60 28t-23 70q0 48 23 81t66 32q19 0 36-8t28-25m154-83q42 70 67 100 15 16 31 16 5 0 10-1 3 5 3 12 0 8-8 12t-19 5q-24 0-42-20-8-9-19-23t-17-25-19-29-16-24l-4 2v36q0 52 8 77-7 3-22 3-13 0-18-5t-5-17q0-6 1-31t0-38v-78q0-52-3-90 9-2 19-2 24 0 24 15 0 2-1 16t-2 34-1 42q31-22 61-53t37-53q25 3 25 17 0 11-28 42t-62 60m433-127q-9-16-31-27t-45-11q-26 0-43 14t-17 41q0 21 12 34t32 18 42 13 41 16 32 27 13 49q0 26-10 45t-27 31-37 16-42 6q-39 0-69-14t-29-33q0-7 4-12t8-8 13-7q10 19 34 30t51 12q28 0 48-15t20-44q0-23-18-37t-43-21-51-15-43-29-17-54q0-46 30-70t77-25q35 0 64 12t29 33q0 20-28 25m315 200q22 9 22 24 0 18-28 33t-71 15q-70 0-113-48t-42-123q0-80 42-126t115-45q39 0 66 16t26 39q0 20-28 25-10-25-30-37t-44-12q-47 0-77 37t-29 93q0 64 30 107t84 43q24 0 44-10t33-31" />
<path id="overpass" class="f" d="M183 673q-42 0-70-16t-46-42-25-59-8-64 8-65 25-58 46-42 70-16q41 0 70 16t45 42 25 58 8 65-8 64-25 59-45 42-70 16m0-41q29 0 48-13t32-34 18-45 5-48q0-26-5-51t-18-45-32-33-48-12q-29 0-49 13t-32 34-17 45-6 49q0 25 6 50t17 45 32 33 49 12m328 35h-36l-94-256h44l61 171q2 6 4 12t4 13q2-7 4-13t4-12l59-171h44l-94 256m250 6q-35 0-60-18t-40-47-13-69q0-43 14-72t40-46 59-16q29 0 53 13t38 40 15 69q0 6-1 14t-1 16h-173q3 23 12 40t23 28 35 10q16 0 30-6t26-18l26 29q-15 14-36 23t-47 10m-69-154h131q0-22-8-39t-20-27-34-10q-28 0-48 18t-21 58m283 148h-43v-256h43v34q9-20 24-30t37-10q23 0 39 13l-6 41q-9-6-18-8t-19-3q-17 0-30 9t-20 26-7 40v144m195 81l-44 20v-357h44v22q27-28 65-28 33 0 56 16t37 47 13 71-13 71-37 46-56 17q-20 0-36-8t-29-22v105m60-116q32 0 49-24t17-69q0-44-18-69t-48-25q-20 0-35 9t-25 26v118q13 17 28 26t32 8m253 41q-42 0-66-23t-23-63q0-26 11-45t34-29 50-11q19 0 35 4t31 13v-18q0-30-13-44t-42-14q-19 0-38 7t-37 19l-12-37q19-13 43-20t49-7q46 0 68 23t23 69v170h-41v-24q-15 14-34 22t-38 8m6-38q18 0 35-9t31-25v-44q-13-8-29-12t-31-5q-28 0-44 13t-16 34q0 22 14 35t40 13m258 38q-27 0-52-12t-40-31l31-27q13 15 30 23t32 8q23 0 35-9t13-24q0-10-6-18t-19-15-34-15q-42-16-61-35t-18-45q0-30 24-49t62-19q26 0 48 10t38 29l-30 25q-23-25-56-25-20 0-32 8t-11 21q0 12 13 22t47 22q27 10 44 22t25 27 8 34q0 34-24 53t-67 20m235 0q-27 0-52-12t-41-31l31-27q14 15 30 23t33 8q22 0 35-9t12-24q0-10-6-18t-18-15-34-15q-43-16-61-35t-18-45q0-30 23-49t63-19q26 0 48 10t38 29l-30 25q-23-25-57-25-20 0-31 8t-11 21q0 12 12 22t47 22q28 10 45 22t25 27 8 34q0 34-25 53t-66 20" />
<path id="overpass-mono" class="f" d="M154 673q-32 0-55-16t-36-42-20-58-6-65 6-66 20-58 36-42 55-15 55 15 36 42 20 58 7 66-7 65-20 58-36 42-55 16m0-38q21 0 35-13t23-33 13-47 4-50q0-28-4-54t-13-46-23-32-35-12q-20 0-35 13t-23 34-13 46-4 51q0 27 4 53t13 46 23 32 35 12m325 32h-33l-97-256h42l64 172q2 6 4 12t4 14q2-7 5-14t4-12l63-172h41l-97 256m296 6q-36 0-63-18t-39-49-14-67q0-43 14-72t41-46 61-16q29 0 53 13t39 40 14 70q0 5 0 12t-1 15h-189v-36h150q-1-30-11-47t-26-24-29-7q-39 0-57 25t-18 66q0 48 20 76t57 27q15 0 30-4t29-17l23 27q-16 14-37 23t-47 9m345-6h-170v-37h53v-183h-53v-36h92v57l-3-7q8-17 24-30t37-19 41-7q19 0 33 4t22 8v88h-41v-76l13 20q-6-2-14-3t-14-1q-26 0-47 9t-35 24-13 40v112h75v37m205 81l-41 20v-357h41v22q12-11 28-19t41-9q35 0 60 17t38 46 14 71q0 42-15 72t-39 46-56 16q-28 0-44-9t-27-22v106m66-113q35 0 54-25t19-71q0-44-20-70t-55-27q-21 0-38 10t-26 26v121q12 15 28 26t38 10m286 38q-26 0-47-10t-32-29-12-48q0-29 14-48t36-27 48-9q18 0 35 4t35 13v-20q0-24-8-36t-20-18-27-4q-21 0-43 8t-38 19l-12-35q17-10 42-19t55-9q14 0 30 4t29 13 22 28 8 45v172h-38v-24q-15 13-34 21t-43 9m6-36q24 0 42-11t29-25v-45q-12-8-30-13t-35-6q-26 0-45 12t-20 37q0 23 15 37t44 14m318 36q-29 0-53-13t-42-32l28-25q12 13 30 24t40 10q21 0 35-9t14-25q0-14-9-23t-24-16-32-14q-21-8-40-18t-29-24-11-37q0-20 12-35t31-23 46-8q28 0 51 11t38 28l-27 23q-10-9-26-18t-38-8q-21 0-35 8t-13 22q0 12 9 20t22 14 29 12q20 7 40 17t32 26 13 41q0 33-25 52t-66 20m308 0q-29 0-53-13t-42-32l28-25q12 13 30 24t40 10q21 0 35-9t14-25q0-14-9-23t-24-16-32-14q-21-8-40-18t-29-24-11-37q0-20 12-35t31-23 46-8q28 0 51 11t38 28l-27 23q-10-9-26-18t-38-8q-21 0-35 8t-13 22q0 12 9 20t22 14 29 12q20 7 40 17t32 26 13 41q0 33-25 52t-66 20m550-6h-38v-350h45l53 211q3 13 5 21t2 16q1-9 3-16t5-21l53-211h44v350h-38v-224q0-5 0-14t1-18q-2 9-4 17t-3 15l-57 224h-7l-57-224q-2-8-4-16t-4-16q1 8 1 18t0 14v224m375 6q-36 0-62-16t-42-46-15-72q0-42 15-72t42-46 62-16q36 0 63 16t42 46 14 72q0 41-14 71t-42 47-63 16m0-38q37 0 57-26t20-70q0-45-19-71t-58-26q-38 0-57 26t-20 71q0 45 20 70t57 26m247 32h-41v-256h41v48l-7-9q6-14 17-24t26-15 33-6q31 0 52 12t32 37 11 67v146h-41v-153q0-40-17-56t-43-16q-18 0-33 7t-22 22-8 42v154m369 6q-36 0-62-16t-42-46-15-72q0-42 15-72t42-46 62-16q36 0 63 16t42 46 14 72q0 41-14 71t-42 47-63 16m0-38q37 0 57-26t20-70q0-45-19-71t-58-26q-38 0-57 26t-20 71q0 45 20 70t57 26" />
<path id="ovo" class="f" d="M24 501q0-36 14-67t38-54 54-34 67-13 67 13 52 36q47 49 47 124 0 71-48 118-49 49-124 49-73 0-120-49-47-49-47-123m42-14q0 32 11 63t29 53q41 49 103 49 48 0 79-36 32-37 32-97 0-72-39-119-38-46-96-46-48 0-83 36-36 38-36 97m536-46l29-3q10 0 10 6 0 6-10 9t-13 6-9 8q-8 9-20 36l-74 163q-3 7-6 7-5 0-8-7l-82-182q-7-15-11-20-6-8-17-10t-11-10q0-2 3-4t7-2l38 3q15 0 23-1 14-2 23-2 17 0 17 7 0 8-20 9-15 0-15 10 0 8 5 19l58 128 51-117q9-22 9-29t-4-9-13-2-14-3-4-6q0-7 17-7l41 3m47 117q0-23 8-46t25-39q34-37 85-37 56 0 87 34 28 31 28 80 0 50-33 86-34 37-85 37-57 0-87-34-28-31-28-81m41-10q0 24 7 45t18 34q23 28 57 28 31 0 50-24 20-26 20-66 0-53-24-83-23-28-58-28-31 0-50 25-20 25-20 69" />
<path id="oxanium" class="f" d="M40 590v-192q0-76 77-76h117q76 0 76 76v192q0 77-76 77h-117q-77 0-77-77m42-196v201q0 34 34 34h118q34 0 34-34v-201q0-34-34-34h-118q-34 0-34 34m287 273l-4-8 92-125-88-120 3-7h37l71 98 71-98h37l4 7-88 120 91 125-3 8h-37l-75-104-74 104h-37m474 0h-131q-76 0-76-76t76-75h91v-39q0-35-35-35h-107v-20l20-15h87q75 0 75 75v185m-167-84v14q0 35 35 35h92v-84h-92q-35 0-35 35m285 84h-40v-260h140q75 0 75 75v185h-40v-190q0-35-35-35h-100v225m295-309h-44v-47h44v47m-2 309h-40v-260h40v260m78-75v-185h40v190q0 35 35 35h100v-225h40v260h-140q-75 0-75-75m335 75h-40v-260h295q75 0 75 75v185h-40v-190q0-35-35-35h-90v225h-40v-225h-125v225" />
<path id="oxygen" class="f" d="M72 486q0 70 32 109t95 40 94-39 31-110q0-71-31-110t-94-40-94 40-33 110m298 0q0 41-12 76t-32 58-54 38-73 14q-55 0-94-23t-58-65-20-98q0-87 46-137t126-50q80 0 125 51t46 136m35 181l98-137-95-131h47l71 102 72-102h47l-95 132 97 136h-45l-75-108-76 108h-46m357-2l-106-266h43l84 223 76-223h43q-109 298-112 307-17 43-41 62t-63 20q-12 0-25-2l-2-35q14 1 20 1 28 0 42-10t26-38q10-25 15-39m276-33q21 0 37-8t24-20 13-29 4-34v-20q0-20-4-36t-13-30-25-20-35-7q-17 0-31 6t-23 17-15 24-9 28-3 28q0 15 3 28t10 28 15 23 23 16 29 6m-17 157h-45l-4-37h50q20 0 36-3t25-9 17-15 10-21 4-26 1-32v-23q-14 21-34 32t-49 11q-23 0-42-8t-33-21-23-30-13-36-4-37q0-30 7-55t21-44 37-31 53-11q27 0 46 10t35 31v-35h40v248q0 17-1 30t-4 29-9 27-15 22-25 18-34 12-47 4m358-341q-18-21-50-21t-51 22-23 60h141q0-39-17-61m-42 224q-58 0-92-37t-33-101q0-63 32-101t86-40q50 0 79 34t29 91q0 3 0 11t0 11h-184q1 46 23 71t62 26q42 0 85-23l6 33q-40 25-93 25m199-5h-41v-268h34l5 38q16-20 40-32t51-12q46 0 69 26t22 80v168h-41q0-161 0-173-1-34-14-50t-43-16q-31 0-52 15t-28 40q-2 16-2 37v147" />
<path id="oxygen-mono" class="f" d="M190 354q-17-20-40-20t-40 20-24 54-8 77 8 76 24 54 40 20 40-20 24-54 8-76-8-77-24-54m13 303q-23 16-53 16t-54-16-37-41q-29-53-29-132 0-97 38-148 14-18 35-29t47-10 47 10q38 20 56 68t17 109q0 79-29 132-14 26-38 41m219-127l-83-131h50l64 103 64-103h46l-82 130 85 138h-49l-66-107-68 107h-49l88-137m250-131l85 217 71-217h49q-75 209-88 244t-18 47-11 25-15 25-15 16-24 9-59 5l-5-37q32 0 39-2t12-3 9-5 7-6q11-11 25-56-69-158-99-236l-11-26h48m445 234v-18q-8 21-29 37t-47 15q-51 0-81-40t-29-96q0-76 38-114 27-26 74-26t74 44l1-36h46q-3 60-3 159v72q0 86-37 117-27 23-82 29-27 3-63 3l-4-34q53 0 76-6t34-14 18-21q14-23 14-71m-21-187q-8-10-21-15t-29-6-29 6q-24 10-33 37t-8 53 2 39q4 29 20 48t46 19q47 0 64-42 9-23 9-47t-2-40-7-28-12-24m204 208q-28-19-42-50t-13-72 12-71 38-51 55-19q57 0 83 38t26 96v15h-169q1 41 20 70t58 29q26-3 71-28l15 30q-32 32-87 32-39 0-67-19m-9-147h126q-5-82-58-82-59 0-68 82m383-116q84 0 84 105v171h-45v-165q0-29-3-41t-9-20q-12-16-40-16-29 0-49 17t-19 43v182h-45v-268h41l2 29q27-37 83-37m551 118l-43-143v301h-45v-364h62l52 168 52-168h61v364h-44v-301l-44 143h-51m325 130q46 0 63-47 9-25 9-51t-2-41q-4-33-21-54t-49-21q-46 0-62 47-9 26-9 54 0 49 15 81t56 32m88-209q29 39 29 102t-32 102-85 39q-29 0-51-11t-37-31q-28-38-28-101t31-101 87-38 86 39m237-39q83 0 83 105v171h-45v-165q0-29-3-41t-8-20q-13-16-41-16-29 0-48 17t-20 43v182h-45v-268h41l3 29q26-37 83-37m275 248q47 0 63-47 9-25 9-51t-2-41q-4-33-21-54t-49-21q-46 0-62 47-9 26-9 54 0 49 15 81t56 32m88-209q29 39 29 102t-32 102-85 39q-29 0-51-11t-37-31q-28-38-28-101t31-101 87-38 86 39" />
</svg>