<svg id="q" viewBox="0 0 3998 1000" xmlns="http://www.w3.org/2000/svg">
<style>.f {display: none;}.f:target {display: block;}</style>
<text id="qahiri" class="f" x="0" y="666.65" font-size="500" font-family="sans-serif" fill="#999" >[Qahiri]</text>
<path id="quando" class="f" d="M108 741q-21 0-21-21 0-21 40-33 106-29 152-72 50-46 50-129 0-44-9-70t-17-40-22-27q-29-23-73-23-85 0-110 86-8 30-8 71 0 95 49 125 12 7 28 9 6 2 8 7 4 10 2 14-7 6-26 6t-35-7-31-15-24-24-19-29q-15-34-15-72t8-67 22-52 32-40 40-28q43-22 85-22t73 12 54 36q50 50 50 132 0 120-89 182-37 26-88 41l23 9q44 17 68 17 56 0 78-27 8 0 12 6t4 15-6 21-19 20q-26 18-64 18-25 0-48-9t-37-15l-26-12q-29-12-42-12t-20 2-13 4q-6 3-16 13m357-148v-144q0-14-2-22t-9-8q-4 0-7 1l-6 2q-2 1-4-2-5-5-5-9t3-9 9-11 13-11q16-11 30-11t19 5 8 12q5 12 5 37v153q0 41 25 46 8 1 18 1t22-2 23-8q21-8 37-21v-143q0-23-9-28-3-2-9-2t-9 1-5 3-4 0-3-3q-3-4-3-8t3-9 10-11 15-11q20-12 40-12 24 0 27 34 1 9 1 20v144q0 38 3 47t7 12 10 3 10-2l8-3q3-1 5 3 5 7 2 14t-12 11-17 10q-42 19-60-1-9-10-10-31-36 27-74 38-14 3-29 3t-29-4-25-13q-22-20-22-61m486 43q-35 35-86 35-39 0-63-22-23-23-23-59 0-45 40-67 36-21 102-21h30q0-9 0-18v-18q0-33-9-46-11-16-37-16-59 0-61 43 0 7 0 11-4 4-16 4t-17-3-9-7q-8-10-8-24t8-26 24-19q29-14 69-14t59 8 32 20q20 23 20 60l-2 118q0 32 3 40t7 12 11 3 10-2l7-4q3-1 6 3t2 7-2 8-10 11-16 9q-48 23-66-10-3-7-5-16m-1-32q0-35 1-70-51 2-69 6t-26 9-13 10q-8 9-8 28t14 29 37 12q35 0 64-24m264 64q-5-1-15-1h-78q-24 0-30-9-3-3-3-7 0-10 4-15 6 2 13 2t12-6 3-23v-160q0-23-8-28-4-2-9-2t-9 1-6 3-3 0-3-3q-4-4-4-8t3-9 10-11 16-11q19-12 39-12 23 0 27 30 1 9 2 18 36-30 79-43 15-5 31-5t30 4 25 14q22 19 22 61v165q1 19 14 24 4 1 9 2t10 2 6 3q5 3 5 10 0 9-4 14-5-1-16-1h-78q-23 0-30-9-3-3-3-7 0-10 4-15 6 2 11 2t9-2 5-4q3-6 3-23v-144q0-42-24-46-8-2-19-2t-25 4-26 8q-23 11-38 26v158q0 19 13 24 4 1 10 2t9 2 7 3q4 3 4 10 0 9-4 14m426-32q-37 36-83 36-50 0-81-35-35-37-35-103 0-75 48-122 44-43 104-43 24 0 47 8v-70q0-18-4-22-5-8-18-8-5 0-11 1t-7 0-3-3q-5-8 12-20 27-20 53-20 27 0 31 30 1 9 1 19v283q0 38 3 47t7 12 10 3 10-2l8-3q3-1 5 3 5 7 2 14t-11 11-17 10q-39 18-59 1-9-9-12-27m0-36v-173q-24-19-56-19-38 0-62 28-25 30-25 82 0 82 47 102 14 6 28 6t23-3 18-5q16-8 27-18m137-68q0-30 5-54t17-41 24-31 30-21q31-16 68-16 47 0 80 35 37 38 37 100 0 82-44 128-39 39-93 39-57 0-91-40-33-38-33-99m138 99q16 0 29-7t22-21q18-28 18-73 0-48-19-83-21-39-61-39-33 0-52 25-21 26-21 74 0 59 26 93 23 31 58 31" />
<path id="quantico" class="f" d="M258 359h-163v265h163v-265m-7 408l-55-98h-93l-58-33v-288l58-34h147l58 34v288l-58 33 56 98h-55m200-98l-58-33v-219h48v209h116v-209h48v252h-36l-12-20-36 20h-70m373-105h-100v62h100v-62m-35 105h-56l-58-33v-82l58-33h91v-61h-124v-43h115l58 33v219h-13l-36-20-35 20m318-255l58 34v219h-48v-209h-116v209h-48v-253h36l12 21 36-21h70m164 46h-46v-43h46v-42l49-28v70h60v43h-60v163h60v44h-51l-58-34v-173m179-43h48v250h-48v-250m51-62h-54v-53h54v53m265 105h-139v163h139v44h-130l-58-34v-183l58-33h130v43m282-12v188l-58 33h-96l-58-33v-188l58-34h96l58 34m-48 10h-116v168h116v-168" />
<path id="quattrocento" class="f" d="M191 334q39 0 70 14t51 36 32 54 11 64q0 32-10 61t-30 53-48 39-67 17q26 0 46 6t38 12 35 12 38 6q7 0 17-2t21-8l1 1 2 4 0 2q-11 13-26 22t-34 9q-17 0-35-7t-38-16-40-15-44-7q-19 0-37 4t-25 11l-2-1-2-7 0-1q11-8 30-16t40-9q-39 0-69-14t-49-36-29-53-10-63q0-36 11-67t32-55 51-36 69-14m0 312q30 0 53-12t39-30 25-46 8-55q0-30-9-56t-25-46-40-30-54-10q-29 0-52 10t-38 30-24 45-7 56q0 34 9 60t25 45 39 29 51 10m407-21l-2-1q-13 21-33 34t-50 14q-14 0-28-3t-24-11-19-20-12-31q-2-13-2-28t0-28q0-7-1-18t0-23 0-22 0-14q0-6-2-10t-4-6q-5-6-13-7t-15-1l-2-2v-7l2-2h9q8 0 21 0t23-2l17-2 3 4q-1 2-1 7t-1 12-1 11 0 9q0 8 0 18t-1 21 0 20 0 16q0 11 0 25t4 24q5 23 20 35t36 11q16 0 29-6t22-15 16-20 9-18v-65q0-11-1-18t0-13-1-10 0-9q-1-6-3-10t-3-6q-5-6-13-7t-15-1l-2-2v-7l2-2h9q8 0 21 0t22-2l18-2 3 4q-1 2-2 7t-1 12 0 11 0 9q0 4-1 7t0 9 0 11 0 18v56q0 11 0 18t0 12 1 9 0 10q1 11 3 16t5 8q4 4 11 5t16 1l2 2 1 7-1 2q-9-1-19-2t-21 0q-19 0-34 1l-3-5q1-6 3-17t3-21m248 43l-3-5q2-5 2-16t3-21l-1-1q-6 9-15 17t-20 15-23 11-26 4q-15 0-27-5t-20-15-12-21-4-25q0-18 8-32t23-23q13-8 30-13t35-7 30-3 18-1h7q0-18-2-29t-4-18q-5-15-19-22t-32-6q-8 0-18 1t-17 6-14 11-7 19l-2 1h-11l-5-37 2-3q2-3 10-6t19-7 24-6 26-2q18 0 34 5t26 14 18 24 7 33q0 21-1 37t0 30-1 27 0 29q1 11 2 16t5 8q4 4 12 5t16 1l2 2 0 7 0 2q-9-1-20-2t-20 0q-19 0-35 1m-3-59q2-2 3-6t3-8l2-50h-4q-20 0-40 2t-36 9-26 18-10 29q0 19 11 30t29 12q10 0 21-4t19-9 17-11 11-12m237-151l-3 2h-65q0 33 0 60t0 48-1 34 0 15q0 20 8 26t17 7q9 0 20-4t18-7l5 4-5 14q-11 8-26 11t-25 4q-25 0-36-14t-10-36q0-4 0-18t1-35 1-49 1-60h-36l-2-2v-10l2-2 36-7q0-17-1-36t-2-35l4-3 7-1q4 0 13-2t12-3l5 2q-2 7-3 16t-2 20-1 21 0 21l65-3 3 2v20m163 0l-3 2h-65q0 33 0 60t0 48-1 34 0 15q0 20 8 26t17 7q9 0 20-4t18-7l5 4-5 14q-11 8-26 11t-25 4q-25 0-36-14t-10-36q0-4 0-18t1-35 1-49 1-60h-36l-2-2v-10l2-2 36-7q0-17-1-36t-2-35l4-3 7-1q4 0 13-2t12-3l5 2q-2 7-3 16t-2 20-1 21 0 21l65-3 3 2v20m99 31l2 1q5-10 11-20t14-20 18-15 24-6q9 0 20 3t15 7l4 5-6 38h-16q-2-7-8-13t-19-5q-13 0-23 7t-19 18-12 23-4 23v44q0 11 0 18t1 11 0 8 1 7l0 5q1 7 2 14t6 10q2 2 7 3t10 2 10 0 8 1l3 2 1 7-1 2q-4 0-12-1t-16-1-16 0-11 0h-12q-4 0-11 0t-15 0-16 1-10 1l-1-2 1-7 2-2q8 0 15-1t12-5q4-3 5-9t3-15l0-5q1-5 1-12t0-26v-61q0-11 0-18t0-13-1-10 0-9q-1-6-3-10t-4-6q-5-6-12-7t-16-1l-2-2v-7l2-2h9q9 0 22 0t22-2l18-2 3 4q-3 11-5 24t-1 26m260-60q29 0 52 10t39 28 24 40 8 46q0 23-7 45t-23 38-39 26-53 10q-32 0-55-10t-39-28-23-39-7-44q0-25 8-47t24-39 39-26 52-10m0 224q21 0 37-9t27-22 15-32 6-37q0-18-6-36t-17-34-27-24-37-9q-22 0-38 9t-26 23-15 32-5 36q0 18 6 36t17 33 27 24 36 10m370-163h-11l-2-1q0-12-7-19t-16-11-20-6-19-1q-23 0-40 8t-27 22-17 31-5 37q0 19 6 36t18 31 30 22 43 8q17 0 37-6t36-13l5 5-7 14q-6 4-15 8t-19 8-24 7-25 2q-25 0-47-9t-39-24-27-38-10-49q0-28 10-50t28-39 40-25 50-9q24 0 45 6t33 12l1 5-5 38m270 30l-3 12-8 4q-27 0-56 0t-56 1h-59q0 3 0 6t0 7q0 19 5 36t17 30 31 21 45 8q15 0 33-4t33-11l5 3v9l-5 5q-12 10-34 17t-49 8q-27 0-49-9t-37-24-25-38-8-49q0-28 9-50t24-39 37-25 46-9q13 0 29 4t32 13 27 27 16 47m-103-68q-16 0-29 5t-23 14-16 20-8 25h19q27 0 53-1t53-2q7 0 9-3t2-7q0-3 0-6t-2-5q-5-19-20-30t-38-10m210 27l1 1q13-22 34-36t51-15q14 0 28 4t25 13 20 21 10 32q2 13 2 27t0 29q0 18 0 36t1 37q1 11 2 16t5 8q4 4 12 5t16 1l1 2 1 7-1 2q-8-1-19-2t-20 0q-19 0-35 1l-3-5q2-6 3-17t1-18q1-21 2-42t0-33q0-12-1-25t-3-24q-5-23-20-35t-36-11q-17 0-31 7t-24 17-16 21-6 20v56q0 11 0 18t0 12 1 9 1 10q1 10 2 15t6 9 11 5 15 1l2 2 1 7-1 2q-3 0-10-1t-15-1-15 0-11 0h-7q-3 0-11 0t-15 0-15 1-10 1l-1-2 1-7 2-2q8 0 15-1t12-5q4-3 5-9t3-15q0-8 1-17t0-26v-61q0-11 0-18t0-13-1-10 0-9q-1-6-3-10t-4-6q-5-6-12-7t-16-1l-2-2v-7l2-2h9q9 0 22 0t22-2l18-2 3 4q-3 7-4 18t-1 22m367-21l-2 2h-65q0 33-1 60t0 48 0 34 0 15q0 20 7 26t18 7q8 0 19-4t19-7l4 4-4 14q-12 8-26 11t-25 4q-26 0-36-14t-11-36q0-4 1-18t1-35 1-49 0-60h-36l-2-2v-10l2-2 36-7q0-17-1-36t-1-35l3-3 7-1q4 0 13-2t13-3l4 2q-1 7-2 16t-2 20-1 21 0 21l65-3 2 2v20m158-29q30 0 53 10t38 28 24 40 9 46q0 23-8 45t-23 38-38 26-54 10q-31 0-55-10t-39-28-22-39-8-44q0-25 9-47t24-39 38-26 52-10m1 224q21 0 37-9t26-22 16-32 5-37q0-18-6-36t-16-34-27-24-37-9q-22 0-38 9t-26 23-15 32-5 36q0 18 5 36t17 33 27 24 37 10" />
<path id="quattrocento-sans" class="f" d="M190 334q39 0 69 14t51 36 31 54 10 64q0 32-10 62t-29 53-48 38-67 17q17 2 34 8t34 13 34 12 37 5q20 0 42-9l-9 32q-10 5-19 6t-18 2q-21 0-41-7t-39-16-37-15-34-7q-12 0-29 5t-32 16l-7-24q13-10 28-15t30-6q-36-2-62-17t-45-37-26-51-9-61q0-36 11-67t31-55 51-36 68-14m-1 306q32 0 55-11t38-29 21-44 7-54q0-30-7-55t-22-42-38-28-55-10q-32 0-54 10t-36 28-21 42-6 55q0 68 30 103t88 35m224-203h35v152q0 15 4 26t10 16 15 9 19 3q13 0 25-4t23-11 18-18 13-26v-147h35v230h-28l-4-43h-2q-6 21-29 35t-56 14q-16 0-30-4t-25-14-17-24-6-38v-156m448 230h-27l-4-41h-2q-6 9-16 18t-23 15-26 10-28 4q-33 0-50-20t-16-48q0-28 14-45t36-26 44-11 41-2h22v-6q0-19-5-29t-15-17q-9-6-19-8t-25-2q-21 0-37 5t-31 15l-8-30q33-20 80-20 18 0 35 3t29 12q14 9 23 25t8 41v157m-116-24q21 0 44-13t37-37v-47h-4q-21 0-41 2t-38 7-27 17-10 31 10 30 29 10m202-22v-161h-38v-18l39-5 8-70h26v70h54v23h-54v160q0 16 5 21t15 5q11 0 20-4t16-8l7 26q-8 4-22 8t-30 4q-16 0-25-4t-14-12-6-17-1-18m157 0v-161h-39v-18l40-5 7-70h27v70h54v23h-54v160q0 16 4 21t15 5q12 0 21-4t16-8l7 26q-9 4-23 8t-30 4q-16 0-25-4t-13-12-6-17-1-18m280-180l-10 33q-8-5-16-8t-16-2q-10 0-19 5t-16 15-14 22-8 26v135h-35v-230h27l4 50h2q4-11 9-22t14-18 19-13 24-5q10 0 20 3t15 9m140-12q31 0 53 10t36 28 21 39 7 47-7 46-21 38-36 26-51 10q-30 0-53-10t-36-27-22-39-7-46 7-47 21-39 37-26 51-10m2 217q20 0 34-7t25-21 14-29 5-35q0-19-5-37t-15-31-25-21-36-8q-21 0-35 8t-24 20-14 29-5 35q0 19 5 37t14 31 25 21 37 8m366-197l-9 30q-11-9-33-16t-43-6q-22 0-37 7t-25 20-15 29-4 34q0 19 5 37t16 32 27 21 37 8q20 0 41-8t35-22l7 33q-14 9-38 17t-52 8q-29 0-51-10t-36-27-21-39-7-47q0-24 6-46t22-39 37-26 54-10q24 0 47 6t37 14m161-20q44 0 68 22t24 63q0 9-1 17t-3 13h-169v5q0 19 5 37t15 31 25 21 37 8q12 0 23-3t22-7 20-9 16-10l6 29q-7 4-16 8t-21 9-26 7-28 3q-28 0-50-10t-36-27-22-38-7-46q0-25 7-47t23-39 37-27 51-10m-1 28q-33 0-52 17t-24 44h136q1-3 1-5t0-4q0-13-5-23t-14-16-19-10-23-3m353 210h-35v-152q0-30-13-43t-35-13q-12 0-25 4t-22 11-19 19-12 26v148h-35v-230h27l4 43h2q7-21 29-36t56-15q16 0 30 4t25 14 17 25 6 38v157m87-46v-161h-39v-18l40-5 7-70h27v70h54v23h-54v160q0 16 4 21t15 5q12 0 21-4t16-8l7 26q-9 4-23 8t-30 4q-16 0-25-4t-13-12-6-17-1-18m247-192q30 0 52 10t36 28 21 39 7 47-7 46-20 38-36 26-51 10q-31 0-53-10t-37-27-21-39-7-46 7-47 21-39 36-26 52-10m1 217q20 0 35-7t24-21 15-29 4-35q0-19-5-37t-14-31-26-21-36-8q-20 0-35 8t-24 20-14 29-4 35q0 19 4 37t15 31 25 21 36 8m331-230q0 13 4 21t15 15 26 12 38 13q19 6 37 14t32 19 23 28 8 41q0 25-10 43t-26 29-38 17-45 5q-32 0-60-8t-49-20l11-36q9 6 19 12t20 10 25 6 31 3q23 0 39-4t26-12 14-17 5-21q0-17-8-29t-21-20-28-15-30-10q-22-7-39-15t-30-19-19-26-7-34q0-23 8-39t23-25 34-15 42-5q27 0 52 6t42 13l-10 39q-8-7-19-12t-23-8-23-4-21-1q-32 0-50 12t-18 37m419 251h-28l-4-41h-2q-6 9-16 18t-22 15-27 10-28 4q-33 0-49-20t-17-48q0-28 15-45t35-26 44-11 41-2h23v-6q0-19-6-29t-15-17q-8-6-18-8t-26-2q-21 0-37 5t-31 15l-8-30q34-20 80-20 19 0 35 3t29 12q15 9 23 25t9 41v157m-116-24q20 0 43-13t38-37v-47h-5q-20 0-41 2t-37 7-27 17-11 31 11 30 29 10m388 24h-35v-152q0-30-14-43t-34-13q-13 0-25 4t-23 11-18 19-13 26v148h-35v-230h28l4 43h2q6-21 29-36t56-15q16 0 30 4t25 14 16 25 7 38v157m143-210q-24 0-35 9t-10 24q0 5 1 10t6 10 11 9 20 7l35 8q21 5 34 12t20 17 9 18 2 18q0 15-6 29t-18 23-29 16-38 6q-26 0-49-8t-36-17l9-33q18 17 40 24t40 8q25 0 38-13t13-25q0-5-1-11t-4-11-10-12-20-8l-48-12q-17-4-27-10t-17-15-8-16-3-18q0-30 23-49t61-18q19 0 42 5t38 16l-10 30q-10-9-30-16t-43-7" />
<path id="questrial" class="f" d="M298 745q-24 0-47-9t-41-27-29-39q-48-1-85-24t-56-61-20-84q0-35 12-66t34-54 53-36 69-13 68 13 53 36 35 54 12 66q0 42-18 77t-48 59-71 31q5 9 15 19t26 19 39 7q18 0 32-6t28-16l20 27q-17 14-37 20t-44 7m-110-111q40 0 69-18t45-48 16-67q0-37-16-67t-45-48-69-18q-40 0-70 18t-45 48-16 67q0 37 16 67t45 48 70 18m317 37q-25 0-48-13t-38-36-14-60v-145h38v144q0 34 19 55t51 21q21 0 38-10t27-27 10-39v-144h38v250h-38v-39q-13 18-33 30t-50 13m297 0q-38 0-67-18t-44-46-16-65q0-36 15-66t43-46 66-17q39 0 66 17t43 46 15 66v15h-209q3 22 14 40t30 29 44 11q27 0 45-12t28-30h41q-13 33-42 54t-72 22m-88-149h170q-5-32-27-54t-58-21-58 21-27 54m346 149q-34 0-58-12t-36-30-14-41h39q1 13 8 24t23 19 39 8q7 0 18-2t21-5 18-12 7-21q0-15-12-24t-31-13-41-9-40-12-31-21-12-36q0-34 25-53t73-18q33 0 54 10t31 26 13 35h-38q-2-16-16-28t-45-11q-59 0-59 36 0 15 12 23t31 12 40 9 40 12 31 21 12 38q0 36-28 55t-74 20m215-4h-38v-217h-51v-33h51v-90h38v90h57v33h-57v217m136 0h-38v-250h38v61q2-6 7-17t17-22 28-19 40-7h2v37h-4q-28 0-49 15t-31 40-10 52v110m174-292h-41v-49h41v49m-2 292h-37v-250h37v250m171 4q-37 0-64-18t-42-46-15-65q0-36 15-66t42-46 64-17q31 0 53 12t36 32v-40h38v250h-38v-40q-14 20-36 32t-53 12m5-34q28 0 47-13t29-35 10-47q0-26-10-48t-29-34-47-13q-28 0-48 13t-30 34-11 48q0 25 11 47t30 35 48 13m224 30h-37v-350h37v350" />
<path id="quicksand" class="f" d="M383 695q6 0 10 3t4 10q0 9-9 17t-23 14-30 11-30 4q-29 0-49-7t-35-15-31-15-37-6q-9 0-16 3t-12 5-12 3q-6 0-11-4t-4-11q0-9 9-13l86-31 46 2-80 27 7-7q21 0 37 6t32 14 32 14 39 7q20 0 32-6t21-10q8-5 13-10t11-5m-24-203q0 39-12 72t-35 57-53 37-67 14-68-14-53-37-35-57-12-72 12-73 35-57 53-37 68-13 67 13 53 37 35 57 12 73m-32 0q0-45-17-79t-48-52-70-19q-40 0-71 19t-48 52-17 79 17 78 48 53 71 19q40 0 70-19t48-53 17-78m291-79q7 0 11 4t4 11v141q0 49-28 75t-75 26q-47 0-75-26t-28-75v-141q0-6 4-11t11-4 11 4 4 11v141q0 36 19 54t54 19q34 0 54-19t19-54v-141q0-6 4-11t11-4m123 9v230q0 6-5 10t-10 5q-7 0-11-5t-4-10v-230q0-6 4-11t11-4 10 4 5 11m-15-49q-11 0-16-5t-5-13v-5q0-9 5-14t16-5q10 0 15 5t5 14v5q0 9-5 13t-15 5m205 32q24 0 44 5t32 15 13 19q0 5-4 10t-9 5-10-3-8-7-10-8q-7-3-19-5t-27-3q-28 0-51 14t-35 38-13 53q0 30 12 54t35 38 51 14q20 0 31-4t19-8q10-5 14-11t11-5q7 0 10 4t3 10q0 8-12 17t-32 17-47 8q-37 0-66-18t-44-48-15-68q0-36 16-66t44-49 67-18m165 262q-7 0-11-5t-4-10v-340q0-6 4-11t11-4 10 4 5 11v340q0 6-5 10t-10 5m170-257q5 0 10 5t4 10q0 7-5 12l-168 143-2-36 150-129q5-5 11-5m4 257q-7 0-11-6l-114-121 22-20 113 120q5 5 5 12 0 7-6 11t-9 4m58-41q-4-6-4-12t7-9q4-3 9-3t10 5q13 18 32 28t46 11q14 0 28-5t23-14 9-25q0-15-9-25t-24-15-30-9q-17-5-33-11t-28-14-20-21-7-31q0-21 11-37t31-25 45-9q13 0 27 3t29 11 25 21q4 4 4 10t-5 10q-4 3-9 3t-9-4q-12-13-28-20t-36-7q-14 0-27 4t-21 15-9 25q1 14 10 23t25 15 34 11q16 4 31 10t26 13 18 21 7 32q0 22-13 38t-32 24-46 9q-27 0-52-11t-45-35m463-215q6 0 10 5t5 11v225q0 6-5 10t-10 5q-7 0-11-5t-4-10v-60l8-4q0 14-8 29t-21 27-32 20-39 8q-34 0-61-18t-42-48-15-68q0-39 16-69t42-47 60-17q21 0 40 8t33 20 21 30 8 35l-10-8v-63q0-7 4-11t11-5m-104 233q26 0 47-14t32-38 12-54q0-30-12-53t-32-38-47-14q-26 0-47 14t-33 37-11 54q0 30 11 54t33 38 47 14m318-239q33 0 52 13t29 36 9 51v147q0 6-5 10t-10 5q-7 0-11-5t-4-10v-146q0-20-7-36t-21-27-39-10q-21 0-41 10t-31 27-12 36v146q0 6-4 10t-11 5q-7 0-11-5t-4-10v-224q0-6 4-11t11-4 11 4 4 11v42l-11 18q1-16 10-31t24-27 32-18 36-7m378-108q6 0 10 4t5 11v340q0 6-5 10t-10 5q-7 0-11-5t-4-10v-60l8-7q0 14-7 29t-22 29-32 21-39 8q-33 0-60-18t-42-47-16-69q0-38 16-68t42-48 60-17q20 0 39 8t32 20 23 30 8 35l-10-8v-178q0-6 4-11t11-4m-104 347q27 0 47-14t32-38 12-54q0-30-12-54t-32-37-47-14q-26 0-47 14t-33 37-11 54 11 54 33 38 47 14" />
<path id="quintessential" class="f" d="M455 690q-19 10-33 16t-25 9q-12 3-20 4-15 0-34-7t-38-15-39-19-33-17q-17 5-34 8t-32 3q-14 0-31-4t-33-14-32-22-27-31-18-39-7-47q0-31 6-56t18-45 25-36 30-26 33-19 32-12 28-7 22-2q18 0 36 4t36 12 33 20 27 32 19 42 7 55q0 29-7 53t-19 44-28 35-34 28q16 10 33 20t32 19 34 14 35 5q8 0 18-1t20-4m-129-198q0-40-12-69t-30-48-46-27-54-9q-17 0-33 3t-29 10-25 18-20 28-12 41-5 53q0 27 7 49t18 39 26 29 32 20 35 12 34 4q22 0 43-9t36-27 25-47 10-70m351 91v21q-11 10-19 17t-12 11q-6 5-9 8-4 4-10 9t-13 11-15 8-14 4q-10-1-14-18t-5-47v-23q-8 11-16 20t-13 16q-7 7-13 13-12 12-23 20t-19 12-16 6-12 1q-5-1-9-5t-7-12-4-20-2-31 1-38 2-35 2-31 2-24q1-12-3-19t-11-8q-5 0-11 3t-14 9q6-6 14-13t16-16 18-12 16-5q6 0 9 3t4 7 2 10 0 8q0 18-1 35t-3 34-3 34-1 34q0 11 1 22t4 19 8 13 13 4q10-1 20-9t19-20 17-27 11-32q1-2 2-4 0-3 1-5t2-6q1-24 4-47t6-46l47-34q-9 45-14 86t-5 82q0 19 2 31t5 18 8 8 10 0q5-2 11-9 6-5 14-14t20-27m-279-121l2-1-2 1m404 129l-6 20q-4 4-10 10t-13 13-15 14-15 12-15 9-12 2q-8-1-12-12t-4-35q0-5 1-15t1-23 1-29 2-31 2-32 2-28q1-9-3-13t-10-3q-5 0-11 2t-10 7q10-10 17-16t13-11q6-5 11-8 6-3 12-4t10 3 7 9 2 13q0 6-1 17t-2 27-2 32-3 33-2 28-1 20q0 14 3 22t12 9q6 0 13-5t16-12 13-14 9-11m-82-326l40-34q1 12 0 21t-3 16q-2 8-4 14-3 5-9 12-5 6-14 14t-23 16q4-9 7-20t4-19q2-10 2-20m159 161q1 5 2 13t0 20q0 7 0 16t-1 18q7-10 16-21t17-21 19-18 21-14 22-6 22 2q7 2 11 6t6 9 3 13 1 16q0 19-1 38t-3 36-4 37-1 36q0 12 2 19t7 8q6 0 12-4 6-4 14-12t17-22l-2 19q-7 7-15 17t-18 20-20 15-18 5q-9-1-15-11t-6-29q0-10 1-24t2-28 3-31 2-29 3-25 1-19-1-14-6-10-9-7-11-2q-6 0-14 3t-15 11q-3 3-9 10t-11 17-13 24-13 34q0 6-1 11t0 10q0 12-1 25-1 11-2 25t-2 29l-39 34q3-59 5-98t3-61q2-26 3-40 1-17-5-23t-12-7q-6 0-13 3t-13 10q6-7 14-15t16-14 17-11 17-5q5 0 9 3t6 9m344 160l-5 25q-5 4-13 11t-16 15-18 15-18 12-19 7-16-1q-5-2-9-5t-5-10-4-16-1-24q0-44 2-85t4-81q-10 1-20 3t-15 6q15-14 24-26t13-20l3-45 42-35-5 88q6 0 10 0t9 0q22 0 40-4t35-10q-16 13-30 20t-27 13-22 7-17 3q-2 44-4 71t-2 42q-1 17-1 26 0 12 2 21t7 15 11 9 14 0q6-2 14-8 7-4 16-14t21-25m-155-127l2-1-2 1m313 110v27q-13 14-24 25t-19 19q-10 9-18 15-21 17-37 17-9 0-16-4t-11-13-7-17-5-19-2-19-1-14q0-17 4-36t11-38 18-36 24-31 30-22 35-8q5 0 8 2t6 5 3 7 1 8q0 11-5 22t-13 21-19 20-22 19-22 17-21 14v5q0 6 1 15t2 18 4 19 7 16 10 12 13 5q4 0 7-2t8-3q6-5 14-14 7-8 16-21t20-31m-46-117q-2-4-7-5t-10 1-10 5-9 11q-5 10-10 28t-9 42q8-5 16-11t16-13 14-14 10-15 4-15-5-14m204-29q-1 3-6 8-3 3-11 10t-20 15q0-4-1-7t-3-4q-2-2-5-2-16-3-25 0-2 1-3 4t-1 10q0 13 5 24t12 20 17 17 16 17 13 18 5 21q0 10-4 20t-13 19q-7 8-15 15t-17 15-17 13-18 10q-15 5-29 5-9 0-16-3t-8-8q-1-4 2-11t10-13 13-12 10-9q-1 12 5 17t19 6q7 0 14-1t14-4 10-8 4-10q-1-14-6-25t-13-21-16-20-16-20-13-21-5-24q0-6 1-11t5-10q5-8 15-17t21-17 22-13 18-6q8-1 14 0t10 3 5 5 1 5m156 0q-1 3-6 8-3 3-11 10t-20 15q0-4-1-7t-3-4q-2-2-5-2-16-3-25 0-2 1-3 4t-1 10q0 13 5 24t12 20 17 17 16 17 13 18 5 21q0 10-4 20t-13 19q-7 8-15 15t-17 15-17 13-18 10q-15 5-29 5-9 0-16-3t-8-8q-1-4 2-11t10-13 13-12 10-9q-1 12 5 17t19 6q7 0 14-1t14-4 10-8 4-10q-1-14-6-25t-13-21-16-20-16-20-13-21-5-24q0-6 1-11t5-10q5-8 15-17t21-17 22-13 18-6q8-1 14 0t10 3 5 5 1 5m169 146v27q-13 14-24 25t-19 19q-10 9-18 15-21 17-37 17-9 0-16-4t-11-13-7-17-5-19-2-19-1-14q0-17 4-36t11-38 18-36 24-31 30-22 35-8q5 0 8 2t6 5 3 7 1 8q0 11-5 22t-13 21-19 20-22 19-22 17-21 14v5q0 6 1 15t2 18 4 19 7 16 10 12 13 5q4 0 7-2t8-3q6-5 14-14 7-8 16-21t20-31m-46-117q-3-4-7-5t-10 1-10 5-9 11q-5 10-11 28t-8 42q8-5 16-11t16-13 14-14 10-15 4-15-5-14m146-26q2 5 2 13t1 20q0 7 0 16t-1 18q7-10 15-21t18-21 19-18 20-14 22-6 23 2q6 2 10 6t7 9 3 13 1 16q0 19-2 38t-3 36-3 37-2 36q0 12 2 19t8 8q5 0 12-4 5-4 13-12t17-22l-2 19q-6 7-15 17t-18 20-19 15-18 5q-10-1-15-11t-6-29q0-10 0-24t2-28 3-31 3-29 2-25 2-19-2-14-5-10-9-7-11-2q-7 0-14 3t-15 11q-4 3-9 10t-11 17-13 24-13 34q-1 6-1 11t0 10q-1 12-2 25-1 11-2 25t-2 29l-38 34q2-59 4-98t4-61q1-26 2-40 1-17-4-23t-13-7q-6 0-12 3t-13 10q6-7 13-15t16-14 17-11 17-5q6 0 9 3t6 9m345 160l-5 25q-6 4-13 11t-16 15-18 15-19 12-18 7-17-1q-5-2-8-5t-6-10-3-16-2-24q0-44 2-85t5-81q-11 1-20 3t-16 6q16-14 24-26t14-20l3-45 42-35-5 88q5 0 10 0t9 0q21 0 39-4t35-10q-15 13-30 20t-26 13-22 7-17 3q-3 44-4 71t-2 42q-1 17-1 26-1 12 1 21t7 15 11 9 14 0q6-2 14-8 7-4 17-14t21-25m-155-127l1-1-1 1m296 132l-6 20q-4 4-10 10t-13 13-15 14-15 12-15 9-12 2q-9-1-12-12t-4-35q0-5 1-15t1-23 1-29 2-31 2-32 2-28q1-9-3-13t-10-3q-5 0-11 2t-10 7q10-10 17-16t13-11q6-5 11-8 6-3 12-4t10 3 7 9 2 13q0 6-1 17t-2 27-2 32-3 33-2 28-1 20q0 14 3 22t12 9q6 0 13-5t15-12 14-14 9-11m-82-326l40-34q1 12 0 21t-3 16q-2 8-4 14-3 5-9 12-5 6-14 14t-23 16q4-9 7-20t4-19q2-10 2-20m323 319v19q-3 4-6 8t-8 10q-5 5-10 11-6 8-13 15t-15 13-14 9-12 3q-10 0-14-12t-4-35q0-13 0-27t3-31q-6 8-11 15t-8 13q-5 6-9 11-13 16-25 28t-22 21-18 12-12 5-11-3-12-13-9-27-4-46 6-49 15-38 20-27 22-20q23-18 44-28t41-11q6 0 13 0 5 1 12 2t12 3l7-5q-1 6-3 18t-3 26-3 32-2 33-3 33-1 28-1 22 0 13q2 14 7 19t14-1q4-3 9-10 5-5 12-14t16-25m-89-79l5-57q-23-3-38-3-16 0-27 5t-21 14-13 20-9 24-4 26-1 25q0 4 1 11t1 15 4 16 5 15 8 11 10 5q7 0 16-7t22-24q7-10 15-24 6-13 13-30t13-42m232 70l-5 28q-5 6-11 14t-12 15-15 16-15 13-17 9-17 3q-8-1-12-7t-8-15-3-22 0-25q0-7 1-24t2-39 3-51 3-55 3-55 3-49 2-37 0-20q0-14-2-21t-10-7q-8 0-24 7 11-9 19-16t13-11q6-4 10-7 7-6 16-6 7 0 13 5t4 18q0 4-1 20t-2 37-2 50-2 57-3 58-2 54-2 44-1 29q0 14 2 24t4 15 7 9 9 3q6 0 11-3t11-9 10-12 9-14 6-13 5-10" />
<path id="qwigley" class="f" d="M354 766q-41 0-93-31-8-5-28-20t-52-40q-36 18-70 18-35 0-58-23-23-22-23-59 0-54 48-98 49-45 107-45 22 0 24 9-5-3-19-3-24 0-61 26-19 12-35 27t-29 33q-27 34-27 59 0 54 65 54 26 0 58-12-49-35-82-35-19 0-30 9-1 0-1-1 0-7 13-12 14-6 23-6 31 0 87 40 51-23 87-67 35-44 35-86 0-33-22-51t-58-18q-51 0-112 32t-82 70q-3 0-3-4 0-5 15-22 35-39 82-63t94-25q38 0 72 30 33 29 33 67 0 36-35 80-35 44-86 71 31 22 54 37t39 23q33 15 63 15 31 0 31-23 0-25-37-48-8-5-19-10t-24-9q-14-4-20-6t-5-1q0-1 5-1 52 0 81 26 29 26 29 62 0 31-34 31m-45-96q-8 0-14-7t-5-16q0-32 63-108 4-5 6-7t5-1q3 0 3 3l-1 1q-5 8-13 23t-19 36q-9 19-14 33t-5 19q0 10 4 10 8 0 44-46 20-25 30-40t14-23q1-1 15-1 13 0 14 4-2 0-2 45 0 63 16 63 13 0 27-31 14-31 14-59 0-36-21-42 2-5 17-5 31 0 31 45 0 37-21 68t-49 31q-19 0-30-24t-10-61q0-14 2-21-22 34-38 57t-25 33q-18 21-38 21m285-178q-11 0-18-6 9-6 20-17t22-25q1 0 1 3l-2 14q-3 16-9 23t-14 8m-48 182q-19 0-19-27 0-42 30-110 0-2 2-7t5-7q3-4 9-4 18 0 19 7-8 13-15 30t-14 38q-8 22-11 36t-3 23q0 12 6 12 5 0 12-5 5-5 7-7t5-3q2 0 2 2 0 5-15 14t-20 8m-81 221q-35 0-58-19t-23-54q0-34 38-69 38-33 96-54 55-20 111-20 25 0 43 5 2-6 2-11 0-17-4-24-19 18-35 18t-28-16q-12-16-12-33 0-35 38-72 0-29 6-39 7-10 24-10 18 0 38 33 36 7 36 27 0 8-6 12t-6 0q5-4 5-8 0-15-24-15 1 2 1 4t0 6q0 48-29 85 7 14 7 37 0 3 0 5t0 5q20 8 34 22 14 13 14 25 0 13-6 13-2 0-3-3 4-6 4-11 0-10-13-21t-30-15q-6 50-38 97-33 46-81 73-49 27-101 27m177-357v1q16-11 31-11h4q-6-17-21-17-14 0-14 27m30 91q18-27 18-58 0-14-4-25-9 3-25 12-15 8-15 11t26 60m-38 32q18 0 33-25l-26-62q-10 11-19 29t-8 32q0 26 20 26m-178 213q36 0 69-13t66-42q62-55 79-124-6-1-14-2t-19-1q-47 0-93 12-46 13-79 32t-52 41q-10 11-15 23t-5 23q0 21 16 36t47 15m300-203q-24 0-24-40 0-25 16-84 16-59 41-108 25-51 44-51 11 0 22 7t11 16q0 36-106 160-4 19-7 35t-2 30q0 27 12 27l8-2q3 0 3 2 0 8-18 8m7-113q91-118 91-148 0-6-4-6-15 0-43 53t-44 101m71 114q-43 0-43-39 0-31 30-74 31-44 59-44 12 0 21 8t10 19q0 18-24 37-23 19-45 19-5 0-5-2l2-3q57-18 57-59 0-6-4-6-5 0-20 12-12 10-23 23t-19 27q-18 30-18 51 0 20 15 20 18 0 40-19 7-6 15-15t17-18q19-20 20-20 3 0 3 2t-1 5q-53 76-87 76m18 218q-33 0-33-33 0-39 56-102 59-67 129-106 0 0 0 0 0 3-5 9-169 140-169 203 0 24 19 24 33 0 78-63 24-33 44-69t35-74q16-40 24-70t9-55q0-18-6-24-67 69-93 117-8 21-15 21-15 0-15-9 0-3 5-18t15-41l14-39q7-20 7-40v-2q0-6-1-6-1-1-7-1t-5-3q0-4 8-4 32 0 32 24 0 11-30 85 17-24 51-60 34-36 42-36 0 4-4 8 22 2 24 10 1 7 1 12t1 10q0 48-33 127-37 86-89 145t-89 60" />
<path id="qwitcher-grypen" class="f" d="M292 711q-13 0-29-4t-27-8q-6-2-12-5t-12-2v-1q-13-4-26-9t-27-7q-17-4-32-3t-29-3-27-17q-2-3-5-7t-4-7q-8-3-18-6t-20-3q-4 0-10 2t-5 7q0 2 1 4t2 5h-1q-1 0-1-1-7-7-7-18 0-13 14-13 12 0 22 4t22 9h0l1-1v-1q0-4 1-7t2-5h1v1q2 4 3 9t4 9q6 4 17 7t17 6q3 1 10 3t16 6 15 6 9 2q8-3 15-6t15-7q5-2 13-8t12-6l1-1q21-17 42-34t37-41q1-1 2-4t4-2q1-6 5-10t6-9q5-9 8-21t4-21q0-17-10-27t-23-14-28-4q-23 0-50 7t-47 18q-13 7-31 19t-34 28-27 32-10 34q0 15 7 22t19 10 24 3q5 0 11-1t12 0q5-2 18-6t27-8 26-10 10-10h2q-1 5-5 8t-7 7q-16 14-37 20t-41 6q-11 0-26-2t-28-8-18-18q-3-5-5-12t-2-13q0-5 1-10t3-9l5-5q0-3 4-10t10-15 13-15 9-8q0 0 1-1t1 0q2-3 5-5t7-2q0-2 2-4t3-2q5-5 8-7t5-3 10-5q12-6 24-11t26-9q1 0 6-2t8-2 5-2l3 1 5-2h4q2-2 5-2t5 1q3 0 7-1t10-1q7 0 14 0t13 1q4 0 8 1t8 2q16 5 30 16t18 28q2 6 2 14 0 16-8 32t-19 30-22 24q-2 2-5 3t-5 4q-6 5-11 11t-12 10q-18 14-39 24t-40 21q-3 1-5 2t-4 1q22 7 43 14t44 11q5 1 10 2t11 1q7 1 14 1t14 0q4 0 9-1t8-1q4-2 8-5t4-7q0-7-6-13t-10-11-5-7v0q10 7 16 10t8 9 2 20q0 3-4 7t-9 8-8 3q-2 0-3-1t-4 0q-3 2-8 3t-8 1m-165-42q2-1 6-2t4-2q-7-3-19-8t-25-9-19-4q2 11 11 16t21 7 21 2m203 4q-3 0-4-1t-4-2q-12-7-12-21 0-11 5-23t11-24 10-20 5-9q0 1 0 0t0 0l-4 1q0-1-1-1t0 0q1-2 3-4t3-3q4-4 7-11t10-7q3 0 10 2t7 6q0 1-5 7t-11 12-7 9q-5 8-12 22t-12 28-5 24q0 2 1 4t1 4h1q11-6 19-16t15-19 15-19 15-18q3-4 9-14t9-11q2-1 4-1t5 0q4 0 7 3t3 6q0 3-5 10t-5 10q-4 8-6 19t-2 20q0 5 1 11t7 9v-1h2v0q8-2 16-10t16-16 12-15q2-3 3-5t2-6q5-3 5-8 0-2-1-2 0-3 2-5t3-6q3-6 5-14t2-14q0-3-1-8t-4-5q-3 0-5 1t-5 1-2-3q2-1 5-3t5-2q9 1 15 4t8 14q0 1 1 3t0 3q0 5-3 11t-3 15l-2 1q0 1-2 5t-1 6q-4 2-7 6t-3 9q-6 4-8 9t-6 10q-7 6-10 12-7 5-16 12t-17 7q-3 0-5-1-13-4-18-11t-5-21q0-9 1-17t4-17q-4 1-10 8t-10 17-8 12q-6 11-15 20-5 5-7 8t-9 8q-3 1-6 3t-6 2m233-131q-2 0-5-2t-3-5q0-1 3-5t8-7 5-5q4 1 4 5 0 2-2 6t-5 9-5 4m-53 130q-2 0-3-1t-3-2q-3-3-5-5t-1-7q0-16 7-31t14-28q1-1 1-2t-1-2q0-5 4-11t9-11 8-8q3 0 9 1t6 5q0 0-5 6t-6 7q-7 10-16 23t-15 29-6 27q6-1 12-7t11-11h0v1q0 2-2 4t-3 3q-2 4-6 12t-9 8m86 32q-2 0-8-3t-7-5q-4-4-5-10t-1-10q0-17 7-38t16-35q1-2 4-8t6-11 3-6l-9 3-3 0v0q-5 4-13 5t-13 4l-15 8h-1q-2 0-4-3t-1-3 6-4 13-5 14-4 9-3q7-1 12-3h1v-1q3 0 7-2 10-14 19-28t21-25l11-10q4-4 6-6t7-5q4 0 10 3t6 7q0 2-5 5t-9 7-7 5l-4 1q-6 5-11 10t-10 11q-3 3-5 7t-5 7v2q-1 0-4 2t-2 4q9 0 18 1t16 8q-5-1-10-3t-10-1q-10 0-19 3 0 0-3 5t-6 8-3 5q-2 2-6 10t-9 15-4 8q0 2-1 6t-3 7l0 0v1q0 3-2 6t-2 6q-5 14-5 28 0 4 1 10t6 9q1 0 5 1t4 2q0 2-3 2m71-128q-1 0-1 0t1 0m21 96q-9 0-19-4t-15-13q-2-4-2-11 0-9 2-15t4-11 6-13q1-1 4-5t7-7 5-5l5-7q1-2 3-3t4-1q4-7 11-12 3-2 12-6t11-4q3 0 5 1t4 1l1 0q1 3 4 5t4 7q0 1-2 5t-4 8-4 4q1-3 2-6t1-6q0-2-2-5t-4-3q-6 0-15 6t-16 14-11 12q-8 9-15 18t-10 20q-1 4-2 7t-1 8q1 2 1 3t1 4q3 4 7 6t8 2q9 0 17-4t12-3q3-3 7-5t7-3q2 0 6-4t7-4q11-6 21-13t20-14q2-2 6-6t7-4q0 0 0-1 2 1 2 3 0 5-8 10t-12 8q-1 2-3 4t-4 3l0 1q-4 2-10 6t-6 5q-4 1-6 2t-6 5q-4 2-8 6t-8 3q0 1-1 1t0 0q0 3-4 3t-5 2q-5 3-10 4t-11 1m109 8q-5 0-9-2t-4-7q0-9 4-23t9-29 8-26 4-16v-1h-2q-6 0-13-4t-6-11 5-11 10-9q2-1 3-3t4-1l4-2v1q0 0-4 4t-5 6q-2 3-5 10t-2 10q0 3 2 4t4 0 5-2 4-1q0 0 3-5t3-6v-2q2-4 4-10t6-9v-1q2-5 7-15t10-20 11-20 9-13q0-1 4-6t5-7q5-7 15-17t21-19 18-11l7-3q7 2 13 6t5 12q0 9-6 22t-14 25-13 20q-4 5-8 9t-8 10q-3 2-6 5t-5 6q-3 3-10 10t-17 14-17 13-11 7l0 0q-4 4-8 5t-7 4q-2 2-5 8t-4 13-4 10q-2 6-3 12t-4 11l-3 11q0 2-2 8t-2 12 0 5q1 0 9-10t21-24 25-28 24-24 15-10h2q7 0 11 1t3 12q-6 18-15 36t-8 38q0 3 0 8t3 10 6 4q7 0 14-7t14-15 12-13v6q-1 1-2 3t-2 4q-3 5-11 13t-12 12q-1 1-4 2t-5 0q-3 0-5-1t-4-2q-17-8-17-27 0-9 0-17t4-17q2-9 4-17t4-17l-16 15q-3 2-5 5t-4 6q-2 4-6 6t-6 6q-5 5-9 10t-8 11q-3 3-7 7t-6 7q-2 3-5 8t-8 12-6 6m29-119h1q36-22 67-55t47-71q1-3 0-5t0-5q0-1-3-1t-4 0q-3 2-9 4t-8 5q-1 1-2 2t0 2l-7 6q-1 1-3 2t-3 3q-2 2-4 3t-3 4-4 4-4 3q-1 1-6 7t-9 12-10 14-5 8q0 0-1 2t-2 2q0 2-1 2l0 2h-1q-1 2-4 7t-5 5q0 0 0 0t1 0v1q0 0-3 6t-6 12-6 12-3 7m150 108q-13 0-25-8t-13-22q0-2 0-5t1-4q0-3-5-6t-4-5q0 0 1 0 2 0 4 0t4 1q2 0 4-1 1-1 4-9t10-19 16-23 24-16q3-1 6-3t7-1q5 0 11 4t7 11q0 3-2 6t-3 6l-2 1q-2 3-6 7t-3 6q0 0-1 0t0 1l-2 0q-3 2-5 5t-4 5q-10 6-19 12t-20 11q-2 1-4 2t-4 2q-2 3-3 7t-1 8q0 6 3 13t11 8q1 0 1-1t2 0q3 0 5 0t6-1l3-2h1q2 0 9-4t15-8 8-5q1-1 2-2t1-1q9-7 18-13t17-14v1h1q-1 2-4 5t-5 5q-5 10-17 19t-22 15q-4 3-7 5t-7 5q-8 2-14 2m-20-55v0q4 0 8-3t6-4l0 1v-1q10-4 18-12t17-16h1q0-3 4-7t5-6q1-1 2-3t1-3q-2-1-5-1-2 1-6 3t-7 3q0 0-5 4t-10 7-6 6q-3 2-8 9t-10 13-5 10m100 62q-3 0-6-2t-4-5q0 0 0-2t1-2l24-56q4-9 8-21t6-23 1-20q-3 0-6 1t-7 1q-1 0-1-2t1-3 5-1q1 0 5 0 6 0 13 0t8 7q0 3-3 12t-8 20-9 22-5 15q-3 5-3 7h2q4-6 9-12t9-11q3-2 9-10t13-16 13-12q1 0 4-3t4-2q2 0 3-1t4 0 2 0 3 1 7 2 9 5 5 4q0 5-4 7t-6 5q-3 4-8 9t-5 12l0 2-1 1t0-1-1 0l0 0q0-10 5-19t5-19q0-2-2-2-4 0-10 4t-11 8-6 5q-1 2-6 6t-6 6q-4 3-7 7t-5 8q-1 1-2 2t-3 2q-2 3-5 6-1 2-2 4t-2 4l-3 1q-2 4-5 7t-5 7q-2 3-4 7t-3 7q-3 4-7 9t-3 11h0q-2 1-4 1m252 87q-20 0-30-9t-10-29q0-5 1-10t3-11h1v1h1v1q-2 2-2 6 0 8 4 14t4 14q0 1 1 1 4 6 10 12t14 7q6 0 11-3t11-4q33-18 52-48t32-64q1-2 2-7t4-9 2-5h-1q6-13 10-28t8-28v-3l0 0v-1q-23 22-47 42t-51 36q-11 6-22 11t-25 6q-9 0-19-6t-16-14-6-19q0-2 1-8t3-11 3-6l-1-3q3-4 4-9t8-5l0 1q1-3 0-6 9-22 21-35t29-29q2-3 4-6t5-5q10-11 23-20t25-17q4-2 7-5t7-5q6-4 12-7t13-5q3-2 9-5t12-6 9-3v1l1-1q2-1 7-2t11-3 7-1q5 0 10 0t10 2 5 9q0 8-4 14t-8 14q0 1-1 2t-1 2q-1 0-1 0t-2 1q0 1-1 3t-2 2v0h0v-1q3-4 4-12t2-13q0-4-2-9t-7-5l-1 1q-17 0-34 7t-34 18-29 20q-3 3-7 5t-6 6l-4 5q-2 2-4 4t-4 3q-4 4-8 7t-8 8q-14 14-26 30t-21 33q-8 16-14 27t-5 31q0 12 7 16t19 4q0 0 4-2t9-3 5-1q8-3 21-11t26-17 20-15q12-10 22-21t22-20q3-3 5-6t5-4q2-2 7-9t12-13 7-7q3-1 5-1t7 1 11 4 5 5q-6 1-11 5t-11 5v0q0-1 0-1t1-1q0 0-1 0t0 0v-1h-1v1h0q-1 1-1 2t1 2 1 2h1q-1 2-5 9t-6 13-5 7q0 6-2 10t-5 10q-1 3-2 6t-1 5q-2 7-6 14t-6 13q-1 5-2 9 0 4-3 7t-3 9q-5 5-8 12t-6 13q-9 18-24 37t-32 33-41 13m166-87q-3 0-6-2t-4-5q0 0 0-2t1-2l24-56q3-9 7-21t6-23 2-20q-3 0-7 1t-6 1q-1 0-1-2t1-3 5-1q1 0 4 0 6 0 14 0t8 7q0 3-4 12t-8 20-8 22-6 15q-2 5-2 7h1q4-6 9-12t10-11q3-2 9-10t12-16 13-12q1 0 5-3t4-2q1 0 3-1t3 0 3 0 3 1 6 2 10 5 4 4q0 5-3 7t-6 5q-4 4-8 9t-5 12l-1 2 0 1t-1-1 0 0l-1 0q0-10 5-19t5-19q0-2-2-2-3 0-9 4t-11 8-6 5q-1 2-6 6t-7 6q-3 3-6 7t-6 8q0 1-2 2t-2 2q-2 3-5 6-1 2-2 4t-3 4l-2 1q-2 4-5 7t-6 7q-2 3-3 7t-4 7q-3 4-6 9t-3 11h-1q-2 1-3 1m62 142q-10 0-14-6t-4-15q0-10 4-21t10-19q4-7 9-14t9-14q13-16 31-34t36-29q12-9 25-15t26-13v1l1-1q4-2 10-5t11-2q3-1 3-2 3-3 4-10t4-13 3-10q2-3 3-6 0-1 0-3t0-3q1-5 2-10t2-11q-4 1-10 8t-9 10q-5 5-10 10t-11 10q-5 4-13 13t-17 17-19 15-15 6q-6 0-13-5t-9-9l1-1q-1-1-1-5 0-8 4-19t11-20 11-17q2-2 3-3t4-4q4-5 8-10t12-5q3 0 10 3t7 6q0 1-1 1t-3 0-2-1q-5 0-14 10t-18 23-16 25-6 18q0 3 3 3 5 0 10-3t10-7h1q22-16 42-34t40-36q4-3 6-6t7-6q4 0 9 2t6 8q0 2-1 4t-1 5q-1 5-3 10t-2 10q-1 3-2 6t-3 6q0 3-1 6t-1 6q-1 2-4 7t-2 7 2 2 4 0q10 0 15 4t6 5q-1 0-3 0t-2 1q-1-2-3-3t-4 0q-3 0-9 1t-10 5-5 8q-2 1-7 8t-6 10q0 1 0 3t-1 2q0 2-3 4t-3 8q-3 1-7 6t-3 7l-2 1v1l1 1q-1 0-3 1t-1 3q-2 1-5 6t-5 5v2l-3 2v2q-2 1-7 7t-6 6v2q-1 1-1 2-2 0-4 2t-3 3l0 1q0 1-2 2t-2 3h-1q-1 2-5 6t-6 6q-2 2-4 5t-4 5q-4 4-8 7t-9 7l-5 5q-3 3-6 4t-5 4q-8 6-18 12t-20 7m-4-4q2 0 4-1t4-1l1 0v0q2-1 9-5t13-9 7-5q6-4 11-9t10-10q6-5 11-11t10-10q3-4 6-8t6-8q4-5 8-11t9-10q5-6 9-12t8-12l12-18q1-2 1-4t2-3q2-3 5-9t7-10 3-8q0-1-1-1-1 1-9 3t-14 6-7 4q-2 0-10 6t-18 12-11 8q-9 7-18 15t-17 16q-3 3-5 6t-4 6q-2 2-7 8t-6 8q-2 1-7 7t-9 15-9 16-6 11v2q-2 2-2 7t-1 9q0 2 1 6t4 4m204-23q0 0-2 0t-2-1q-6 0-10-6t-5-12-1-12q0-4 1-9t1-9q2-2 3-6t1-7q2-7 5-13t5-11q1-3 2-4v-2q3-3 4-6t2-7q3-6 6-11t6-10q4-7 8-13t7-13q2-2 5-6t3-5q5-9 13-22t14-21l0-1 1-2q1-4 5-10t3-10v-1h0q-5 0-14 3t-18 9-16 10-6 10q0 3 2 5t4 3v1q0 0 0 0-5-1-13-4t-9-8q0-5 8-11t18-11 20-9 14-4q1-1 6-2t9-1 5-1q4-5 8-9t8-10h1l0-1 3 1 0-1q4 0 9 5t5 8q0 4-5 5t-4 5q0 2 6 5t13 9 7 19q0 4-1 7t0 7l-1 1q0 0 0 0t0 1q2 0 3-1t4 0q2 0 8 2t8 3q2 1 2 3t3 3v0l-2 1q-3-1-5-3t-5-1q-2 0-5 1t-4 2q-7 2-13 5t-8 12q-2 2-3 2t-1 4q-3 3-6 7t-5 7-6 7-6 6q-2 2-4 4t-3 4-6 4-11 5-7 3q-5 0-10-5t-4-10q0-11 10-22t23-19 22-13q2-1 10-4t9-4q3-3 4-9t1-11q0-9-4-16t-15-7q-7 0-13 5-3 2-8 7t-9 12-7 10q-15 22-28 44t-24 46q-1 1-2 2t-1 2q0 1-3 7t-5 13-3 8q0 1-1 2t-1 2q-1 3-2 6t-2 7q-2 8-5 18t-2 19q0 2 0 5t2 6q1 2 4 4t4 2-2 1m61-124q2 0 4-2 11-7 18-12t13-11 15-18q1-1 2-2t1-3q0-1-1-2-7 5-14 9t-14 9q-4 4-8 8t-9 9q0 1-4 7t-5 7q1 1 2 1m139 2q-12 0-25-8t-12-22q0-2 0-5t0-4q0-3-4-6t-5-5q1 0 2 0 2 0 4 0t4 1q1 0 3-1 1-1 4-9t10-19 17-23 24-16q3-1 6-3t6-1q6 0 12 4t6 11q0 3-1 6t-3 6l-3 1q-1 3-5 7t-4 6q0 0 0 0t0 1l-2 0q-3 2-5 5t-5 5q-9 6-19 12t-19 11q-2 1-5 2t-4 2q-2 3-3 7t0 8q0 6 3 13t10 8q1 0 2-1t1 0q3 0 6 0t6-1l3-2h0q3 0 10-4t14-8 9-5q1-1 1-2t2-1q8-7 17-13t17-14v1h1q0 2-4 5t-4 5q-6 10-18 19t-22 15q-3 3-7 5t-7 5q-7 2-14 2m-19-55v0q4 0 7-3t6-4l1 1v-1q9-4 18-12t16-16h1q0-3 5-7t4-6q1-1 2-3t1-3q-1-1-4-1-3 1-7 3t-7 3q0 0-5 4t-9 7-7 6q-2 2-8 9t-10 13-4 10m108 46q-3 0-7-3t-4-6q0-10 5-23t12-28 15-28 12-21q3-5 4-10t6-9q4 1 9 3t5 7q0 4-5 9t-7 8q-11 12-20 27t-15 29q-2 3-3 6t-2 5-2 5-2 5q0 1 1 2t2 2q4-4 12-14t19-21 18-18 11-10q1 0 2-1t2 0q8 0 13 7t4 15q0 8-1 15t-2 15q0 6 3 16t10 9q2-1 5-2t4-1q2 0 2 2 0 3-3 4t-5 2q-7 0-15-7t-10-14q-2-7-3-15t-1-15q0-4 1-11t1-8q-3 0-8 4t-10 9-6 7q-1 1-3 2t-3 3q-2 2-5 5t-5 6q-1 1-4 4t-4 4q-3 5-7 9t-7 10q-1 1-2 3t-3 4q-1 2-4 2" />
</svg>