<svg id="v" viewBox="0 0 4546 1000" xmlns="http://www.w3.org/2000/svg">
<style>.f {display: none;}.f:target {display: block;}</style>
<path id="vt323" class="f" d="M180 427q2 8 2 20 0 11-2 20 2 8 2 20 0 11-2 20h-15q2 8 2 20 0 11-2 20h-15q2 8 2 20 0 11-2 20h-10q2 8 2 20 0 11-2 20h-20q2 8 2 20 0 11-2 20h-40q-2-9-2-20 0-12 2-20h-20q-2-9-2-20 0-12 2-20h-10q-2-9-2-20 0-12 2-20h-15q-2-9-2-20 0-12 2-20h-15q-2-9-2-20 0-12 2-20-2-9-2-20 0-12 2-20-2-9-2-20 0-12 2-20h40q2 8 2 20 0 11-2 20 2 8 2 20 0 11-2 20 2 8 2 20 0 11-2 20h15q2 8 2 20 0 11-2 20h15q2 8 2 20 0 11-2 20h20q-2-9-2-20 0-12 2-20h15q-2-9-2-20 0-12 2-20h15q-2-9-2-20 0-12 2-20-2-9-2-20 0-12 2-20-2-9-2-20 0-12 2-20h40q2 8 2 20 0 11-2 20m202-20q0 11-2 20h-60q2 8 2 20 0 11-2 20 2 8 2 20 0 11-2 20 2 8 2 20 0 11-2 20 2 8 2 20 0 11-2 20 2 8 2 20 0 11-2 20 2 8 2 20 0 11-2 20h-40q-2-9-2-20 0-12 2-20-2-9-2-20 0-12 2-20-2-9-2-20 0-12 2-20-2-9-2-20 0-12 2-20-2-9-2-20 0-12 2-20-2-9-2-20 0-12 2-20h-60q-2-9-2-20 0-12 2-20h160q2 8 2 20m190 80q0 11-2 20h-20q2 8 2 20 0 11-2 20h20q2 8 2 20 0 11-2 20 2 8 2 20 0 11-2 20h-20q2 8 2 20 0 11-2 20h-100q-2-9-2-20 0-12 2-20h-20q-2-9-2-20 0-12 2-20h40q2 8 2 20 0 11-2 20h60q-2-9-2-20 0-12 2-20-2-9-2-20 0-12 2-20h-50q-2-9-2-20 0-12 2-20h50q-2-9-2-20 0-12 2-20-2-9-2-20 0-12 2-20h-60q2 8 2 20 0 11-2 20h-40q-2-9-2-20 0-12 2-20h20q-2-9-2-20 0-12 2-20h100q2 8 2 20 0 11-2 20h20q2 8 2 20 0 11-2 20 2 8 2 20m200 0q0 11-2 20h-25q2 8 2 20 0 11-2 20h-25q2 8 2 20 0 11-2 20h-25q2 8 2 20 0 11-2 20h75q2 8 2 20 0 11-2 20h-140q-2-9-2-20 0-12 2-20h25q-2-9-2-20 0-12 2-20h25q-2-9-2-20 0-12 2-20h25q-2-9-2-20 0-12 2-20h25q-2-9-2-20 0-12 2-20-2-9-2-20 0-12 2-20h-70q2 8 2 20 0 11-2 20h-30q-2-9-2-20 0-12 2-20h20q-2-9-2-20 0-12 2-20h100q2 8 2 20 0 11-2 20h20q2 8 2 20 0 11-2 20 2 8 2 20m200 0q0 11-2 20h-20q2 8 2 20 0 11-2 20h20q2 8 2 20 0 11-2 20 2 8 2 20 0 11-2 20h-20q2 8 2 20 0 11-2 20h-100q-2-9-2-20 0-12 2-20h-20q-2-9-2-20 0-12 2-20h40q2 8 2 20 0 11-2 20h60q-2-9-2-20 0-12 2-20-2-9-2-20 0-12 2-20h-50q-2-9-2-20 0-12 2-20h50q-2-9-2-20 0-12 2-20-2-9-2-20 0-12 2-20h-60q2 8 2 20 0 11-2 20h-40q-2-9-2-20 0-12 2-20h20q-2-9-2-20 0-12 2-20h100q2 8 2 20 0 11-2 20h20q2 8 2 20 0 11-2 20 2 8 2 20" />
<path id="vampiro-one" class="f" d="M87 601q113-99 203-264l54 53q-73 137-183 240-34 32-69 56l-52-49q19-13 30-22l-51-45q31-98 82-175-17 8-56 29l-25-57q50-29 74-38t42-16l56 59q-76 119-105 229m415 77l-38-43q-40 31-91 45l-62-57q0-40 12-78t35-68 58-51 81-24l33 50q6-9 25-33l49 42q-49 65-82 138l-1 1q29-7 68-26t49-23l11 50q-29 22-98 56-27 13-49 21m-121-70q53-14 97-71 13-28 20-71-52 5-85 46-32 40-32 96m512-136l-7 25q41-32 90-59l61 48q-16 66-53 114 48-16 113-49l10 50q-20 14-62 35-72 35-100 44l-62-44q62-74 73-121-52 26-99 59-24 55-60 106l-58-39q24-32 41-62 26-49 32-77-48 22-88 51-14 9-30 20-22 53-39 107l-60-38q17-58 53-130 33-64 68-109l51 37q-18 24-32 50 45-37 97-65l61 47m327-37l-26 50q33-30 87-60l61 47q-4 40-13 69t-30 50q54-17 103-40l10 50q-63 36-177 64-35 9-70 15l-47-42q-43 97-64 171l-57-39q62-185 173-372l50 37m-75 145l-21 44q54-8 79-18 36-17 57-72 7-17 10-35-51 27-94 58-14 10-31 23m376-196q-12-12-12-29t12-29 29-12 28 12 12 29-12 28-28 12-29-11m-76 220q51-16 123-53l10 50q-48 32-117 62-23 10-45 17l-57-53q24-67 88-167 19-30 37-52l49 36q-36 50-71 121-10 21-17 39m139-161q24-33 60-68l47 36q-6 23-10 34 65-7 93-14t50-13l14 60q-21 6-43 10-35 55-58 116 83-29 123-53l11 50q-46 30-121 62-24 10-46 17l-53-53q33-74 70-128-35 3-62 4-8 15-43 75l-37 23-48-28q42-45 56-63t25-31q-14-16-28-36m478 195l-24-28q-48 56-127 70l-71-59q0-48 19-95 24-59 79-96 38-25 83-31l79 68q-8 54-29 94 36-2 82-10l11 50q-65 27-102 37m-155-26q57-13 95-70 16-25 23-47t8-36q-41 5-77 43-46 46-49 110m750-206l-22 68q-53-48-99-76-51 27-91 90-41 66-46 133 79-21 134-106 19-29 33-66l69 25q-34 94-88 145-58 56-151 74l-74-68q15-154 127-248 39-33 91-58 67 34 117 87m115 87q50-40 103-68l61 47q-17 71-58 128 50-17 113-49l11 50q-21 14-63 35-72 35-99 44l-62-44q30-36 50-71t26-62q-64 30-122 70-23 55-39 107l-59-38q17-58 53-130 32-64 68-109l50 37q-17 23-33 53m317 77q-23 0-37-3-8 19-10 48 86-5 166-38 27-11 52-26l11 50q-47 30-110 52-68 24-128 27l-62-57q0-69 38-126 27-40 61-63t66-33l84 70q-12 52-47 76t-84 23m-16-48q29 0 51-16 25-19 25-53-51 27-76 69" />
<path id="varela" class="f" d="M175 620l121-302h49l-144 349h-54l-144-349h49l121 302h2m216-153v-41q44-19 93-19t77 29 26 69v162h-40l-5-32h-2q-36 37-92 37-34 0-58-21t-24-56 29-57 86-22h61v-4q0-33-17-48t-56-14-75 17h-3m151 127v-42h-55q-75 0-75 40t53 40q22 0 42-11t35-27m263-187h4v43h-4q-30 0-55 12t-40 32v173h-46v-255h40l6 32v7h1q36-44 94-44m277 132v16h-193q4 35 26 55t66 19 83-25h3v44q-42 24-99 24t-91-35-34-94 30-98 89-38 89 38 31 94m-193-21h147q-2-36-24-54t-50-19-49 19-24 54m258-216h45v365h-45v-365m133 165v-41q43-19 93-19t76 29 27 69v162h-40l-6-32h-1q-36 37-93 37-34 0-58-21t-23-56 29-57 86-22h60v-4q0-33-16-48t-56-14-75 17h-3m150 127v-42h-54q-76 0-76 40t53 40q22 0 43-11t34-27" />
<path id="varela-round" class="f" d="M179 669h-11q-20 0-31-23l-123-299q-2-4-2-9 0-10 6-16t17-7q15 0 21 16l118 293 117-293q7-16 22-16 10 0 16 7t6 16q0 5-1 9l-124 299q-10 23-31 23m273 3q-22 0-41-9t-30-26-11-40q0-36 28-59t87-22h61v-4q0-34-17-48t-50-14q-21 0-37 3t-30 9q-4 1-6 1-8 0-13-6t-6-13q0-14 13-19 18-8 39-13t48-5q36 0 59 14t34 37 11 47v142q0 9-7 16t-16 6-16-6-6-16v-13q-14 14-36 26t-58 12m17-40q23 0 44-12t33-26v-42h-55q-35 0-55 9t-20 31q0 16 11 28t42 12m221 37q-9 0-16-6t-6-16v-215q0-9 6-16t16-7 16 7 7 16v22q14-18 33-33t46-14h2q10 0 16 6t6 16-6 16-17 6h-2q-25 0-45 12t-33 32v152q0 9-7 16t-16 6m283 3q-61 0-95-35t-34-98q0-34 12-64t39-49 68-19q39 0 65 17t40 47 14 62q0 9-6 16t-17 6h-169q4 34 25 54t62 20q23 0 38-4t30-11q4-2 9-2 8 0 14 5t6 14q0 6-4 11t-9 8q-17 9-36 15t-52 7m-83-154h147q-1-26-13-42t-28-23-33-8-32 8-28 23-13 42m275 151q-10 0-16-6t-7-16v-325q0-10 7-16t16-7q10 0 16 7t7 16v325q0 9-7 16t-16 6m167 3q-22 0-41-9t-30-26-11-40q0-36 28-59t87-22h61v-4q0-34-17-48t-50-14q-21 0-37 3t-30 9q-4 1-6 1-8 0-13-6t-6-13q0-14 13-19 18-8 39-13t48-5q36 0 59 14t34 37 11 47v142q0 9-7 16t-16 6-16-6-6-16v-13q-14 14-36 26t-58 12m17-40q23 0 44-12t33-26v-42h-55q-35 0-55 9t-20 31q0 16 11 28t42 12m360 37q-9 0-16-6t-6-16v-306q0-10 6-17t16-6h117q47 0 77 13t44 36 15 52-17 54-49 37q21 5 34 19t18 33 9 34 2 28v23q0 9-7 16t-16 6q-10 0-17-6t-6-16v-15q0-13-2-30t-8-33-23-28-44-10h-104v116q0 9-7 16t-16 6m23-308v127h91q42 0 67-17t26-48q0-19-8-33t-30-22-58-7h-88m414 311q-38 0-67-17t-45-47-16-69 16-69 45-47 67-16 67 16 45 47 16 69-16 69-45 47-67 17m0-42q19 0 38-9t32-29 13-53-13-53-32-29-38-9-38 9-32 29-12 53 12 53 32 29 38 9m279 42q-29 0-49-14t-30-35-11-49v-142q0-10 7-16t16-7 16 7 7 16v137q0 28 13 44t42 17q27 0 47-15t35-33v-150q0-10 6-16t17-7 16 7 6 16v214q0 10-6 16t-16 7-17-7-6-16v-20q-16 17-38 31t-55 15m240-3q-10 0-16-6t-7-16v-215q0-10 7-16t16-7 16 7 7 16v21q16-18 37-32t56-14q28 0 48 13t31 35 10 50v142q0 9-7 16t-16 6-16-6-6-16v-137q0-29-13-45t-42-16q-27 0-47 14t-35 34v150q0 9-7 16t-16 6m387 3q-30 0-58-16t-45-45-18-72 18-72 45-45 58-15q27 0 48 10t38 28v-123q0-10 6-16t17-7 16 7 6 16v325q0 9-6 16t-16 6-17-6-6-16v-13q-17 18-38 28t-48 10m7-43q24 0 44-11t35-26v-105q-15-16-35-27t-44-11q-36 0-59 23t-23 67q0 44 23 67t59 23" />
<path id="varta" class="f" d="M150 667h-46l-105-329h42l53 180q9 29 16 54t17 55h2q9-29 16-55t15-54l54-180h40l-104 329m205 6q-31 0-52-18t-21-51q0-40 36-63t115-27q0-19-5-33t-15-23-32-8q-21 0-41 7t-33 17l-15-27q16-11 41-20t54-9q45 0 64 26t20 73v150h-32l-3-30h-1q-18 15-36 25t-44 11m11-31q18 0 33-9t34-25v-69q-43 2-67 11t-35 22-11 29q0 22 13 31t33 10m222 25h-38v-243h32l3 44h2q12-23 30-36t38-14q8 0 14 1t12 4l-7 34q-7-2-12-3t-12-1q-15 0-32 12t-30 44v158m208 6q-38 0-53-22t-15-58v-138h-36v-29l38-2 4-68h33v68h66v31h-66v139q0 22 8 35t30 12q6 0 14-2t14-4l7 29q-10 3-21 6t-23 3m153 0q-32 0-52-18t-21-51q0-40 36-63t114-27q0-19-4-33t-16-23-31-8q-22 0-41 7t-33 17l-16-27q17-11 42-20t54-9q44 0 64 26t19 73v150h-31l-4-30h-1q-17 15-36 25t-43 11m10-31q18 0 34-9t33-25v-69q-42 2-67 11t-35 22-10 29q0 22 13 31t32 10" />
<path id="vast-shadow" class="f" d="M222 667l-152-265h-58v-39h195v39h-71l116 214 117-214h-70v-39h183v39h-55l-152 265h-53m18 17h47l150-265h63v-44h10v53h-67l-150 265h-47l-6-9m14-101l-88-164h59v-44h9v53h-52l78 145-6 10m61-155v-9h31l-5 9h-26m-287 0v-9l35 9h5-40m508 122q0-23 10-45t28-41 46-29 64-11q11 0 24 1t26 6 26 10 23 16v-26h105v42h-54v157h54v37h-105v-32q-10 9-22 17t-26 12-28 7-29 3q-35 0-61-10t-45-27-27-40-9-47m316 65v-125h53v-40h10v49h-54v116h-9m-263-67q0 20 8 36t19 28 30 18 37 6q11 0 23-2t23-7 21-12 17-17 11-23 5-28q0-17-8-33t-22-27-32-19-38-6-37 6-30 17-19 27-8 36m17 1q0-15 6-28t16-22 24-15 31-5q13 0 23 2t18 7 13 9 6 7q-13-7-27-12t-33-4q-15 0-27 5t-21 13-14 20-5 24q0 12 3 22t9 19 15 16 24 12q-16-2-27-9t-19-16-11-20-4-25m191 135h108v-40h10v49h-118v-9m-229-28q10 8 23 15t27 11 30 7 31 2q27 0 50-7t42-18v11q-18 11-42 17t-50 6q-18 0-35-2t-32-9-26-14-18-19m416 11v-67h50q7 10 19 17t28 13 35 7 38 2q17 0 28-2t19-7 10-10 3-13q0-15-24-26t-75-16q-34-4-57-10t-37-16-20-21-6-26q0-13 8-25t23-22 41-15 56-6q11 0 22 1t21 4 20 7 17 9v-14h53v66h-53q-3-7-11-14t-20-12-25-8-25-3q-16 0-29 2t-24 6-16 10-6 12q0 6 5 12t15 9 28 8 44 7q36 5 60 11t39 17 22 23 7 31q0 12-8 24t-22 21-36 15-48 6q-18 0-33-1t-30-5-27-8-26-12v19h-53m231-143v-10h58v-72h10v82h-68m-150-34q1-3 6-6t13-4 18-4 19-1q8 0 17 1t17 4 15 5 10 8q-6-3-14-4t-16-3-16-1-13-1q-20 0-34 2t-22 4m-67 48q7 9 17 16t23 12 31 9 41 7q21 2 37 5t26 6 16 8 8 10q-5-4-12-6t-17-5-25-4-37-5q-46-6-73-18t-35-35m-2 146h58v-11q7 4 18 7t23 5 28 4 30 2q30 0 54-7t42-18 26-26 9-32q0-6-1-12t-2-11-5-10-8-11q26 15 26 44 0 20-10 37t-29 29-44 19-59 7q-12 0-24-1t-24-3-21-4-19-7v9h-68v-10m401-105v-106h-54v-42h54v-49l52-22v71h122v42h-122v116q0 18 12 27t31 9h69v42h-69q-20 0-37-5t-30-14-21-27-7-42m70-163v-43l10-4v47h-10m0 183v-112h121v-45h10v54h-122v113q-8-2-9-10m-109-100v-9h29v9h-29m38 147q7 11 17 18t22 12 26 6 31 2h87v-48h9v57h-98q-18 0-34-2t-27-8-20-15-13-22m429 21v-88h50q32 29 69 43t77 13q18 0 33-3t25-10 17-14 6-17q0-11-7-20t-22-16-38-13-57-9q-39-4-66-12t-44-22-25-28-8-33q0-16 9-31t28-27 45-19 64-7q21 0 38 3t32 9 28 14 23 16v-33h55v88h-55q-7-13-19-23t-27-18-33-12-38-5q-21 0-37 4t-26 10-16 13-5 14q0 10 4 18t17 15 33 12 53 10q45 5 75 14t49 20 26 29 8 36q0 15-9 30t-25 28-42 20-60 8q-22 0-42-3t-38-8-36-14-34-18v36h-55m292-190v-9h58v-93h10v102h-68m-196-44q0-5 5-9t15-7 22-5 27-2q22 0 41 7t31 18q-7-3-15-6t-18-5-19-3-20-2q-26 0-44 5t-25 9m-79 63q8 11 19 20t27 15 37 11 49 8q28 3 48 7t32 7 20 9 9 12q-7-4-15-7t-20-6-31-6-48-7q-30-3-53-10t-39-14-25-18-10-21m-2 188h57v-24q30 15 62 23t71 8q29 0 57-6t49-19 34-32 13-45q0-16-3-29t-13-26q6 4 10 10t9 14 5 15 2 16q0 26-13 47t-35 35-52 22-64 7q-38 0-68-6t-53-19v18h-68v-9m414-17v-37h53v-265h-53v-39h106v142q7-9 18-17t24-14 28-10 33-3q25 0 46 7t35 22 23 38 8 54v85h53v37h-147v-37h41v-64q0-20-2-35t-5-25q-4-11-11-19t-15-12-19-8-21-2q-12 0-25 5t-24 12-23 19-17 23v106h41v37h-147m123-233v-95h10v89q-2 1-5 3t-5 3m-109-42v-10h29v10h-29m324 223v-68q0-22-3-40t-10-33-16-26-22-17q16 4 28 14t19 25 11 35 3 43v67h-10m-215 0v-85q7-11 15-20t18-15 21-9 21-4q17 0 28 7t15 16q-7-6-18-10t-26-3q-9 0-19 3t-18 9-16 13-11 15v83h-10m118 69h151v-40h10v49h-161v-9m-227 0h151v-40h10v49h-161v-9m428-134q0-23 10-45t28-41 46-29 64-11q11 0 24 1t26 6 26 10 22 16v-26h105v42h-53v157h53v37h-105v-32q-9 9-21 17t-26 12-28 7-29 3q-35 0-62-10t-44-27-27-40-9-47m315 65v-125h54v-40h10v49h-54v116h-10m-262-67q0 20 7 36t20 28 29 18 37 6q12 0 24-2t23-7 21-12 17-17 11-23 4-28q0-17-8-33t-21-27-32-19-38-6-37 6-30 17-20 27-7 36m17 1q0-15 6-28t16-22 24-15 31-5q13 0 23 2t18 7 12 9 7 7q-13-7-27-12t-33-4q-15 0-28 5t-21 13-13 20-5 24q0 12 3 22t8 19 16 16 23 12q-15-2-27-9t-18-16-11-20-4-25m191 135h108v-40h10v49h-118v-9m-229-28q10 8 22 15t27 11 30 7 31 2q27 0 51-7t42-18v11q-18 11-42 17t-50 6q-18 0-35-2t-32-9-26-14-18-19m405-104q0-23 10-45t28-39 46-29 64-10q11 0 24 1t26 6 26 10 23 16v-97h-54v-39h106v304h42v37h-94v-31q-19 18-46 28t-59 10q-30 0-56-8t-45-23-30-38-11-53m317 63v-276h9v276h-9m-109-223v-10h28v10h-28m-155 158q0 20 7 36t18 27 30 17 39 6q11 0 23-2t23-7 21-12 17-17 11-23 5-28q0-17-8-32t-22-26-32-16-38-7q-19 0-36 7t-30 17-20 26-8 34m17 0q0-14 6-26t15-21 25-14 31-5q25 0 42 7t23 19q-13-9-29-13t-36-4q-15 0-27 5t-21 12-14 19-5 22q0 46 52 68-15-2-26-8t-19-15-12-21-5-25m191 134h97v-40h10v49h-107v-9m-229-28q10 8 23 15t27 11 30 7 31 2q27 0 50-7t42-18v11q-18 11-42 17t-50 6q-40 0-68-11t-43-33m381-103q0-27 12-51t32-41 49-27 63-10q37 0 65 9t48 27 30 41 10 51q0 26-11 49t-32 38-50 26-65 9q-34 0-62-10t-47-27-31-39-11-45m38 102q24 18 53 27t65 9q33 0 64-9t55-27 38-44 14-59q0-17-4-33t-13-33-20-28-26-23q16 8 30 19t23 28 15 33 5 37q0 24-7 44t-19 37-29 29-36 21-43 13-46 4q-20 0-37-3t-34-8-27-15-21-19m16-103q0 18 8 34t20 27 32 17 40 6q23 0 42-6t32-18 20-26 8-34q0-19-8-35t-20-28-32-20-40-7q-24 0-42 7t-32 19-20 28-8 36m17 1q0-16 7-29t17-24 26-15 35-6q12 0 23 2t21 8 16 12 12 16q-16-15-33-22t-40-7q-16 0-29 5t-24 14-15 21-6 25q0 11 3 20t9 18 17 15 27 11q-15-1-27-6t-20-14-14-20-5-24m459 114l-104-199h-51v-37h162v37h-50l75 153 86-153h-50v-37h163v37h-49l83 155 72-155h-50v-37h155v37h-52l-99 199h-59l-84-159-89 159h-59m249 17h55l99-199h56v-40h10v49h-60l-99 199h-57l-4-9m-35-199h34v-40h10v49h-28l43 82-5 11-54-102m-178 101l-49-101h38v-40h10v49h-33l40 82-6 10m263-92v-9h20l-4 9h-16m-219 0v-9h18l-5 9h-13m-221 0v-9h36l5 9h-41m156 190h56l82-146 6 10-82 145h-59l-3-9" />
<path id="vazirmatn" class="f" d="M144 667l12-54 105-302h51l-132 356h-36m-137-356h51l104 302 13 54h-37l-131-356m490 310v-136q0-23-14-37t-41-14q-17 0-30 6t-20 15-7 21h-46q0-19 13-37t37-30 55-11q29 0 51 9t35 30 12 49v123q0 13 3 28t7 26v4h-47q-4-8-6-21t-2-25m-44-115h52l1 32h-46q-39 0-60 12t-21 37q0 19 13 32t38 13q20 0 36-9t26-21 10-25l19 22q-2 10-9 22t-20 24-30 19-39 8q-27 0-47-11t-31-28-11-40q0-42 32-64t87-23m165 124h192v37h-192v-37m185-228v32l-175 233h-27v-34l173-231h29m-200 0h180v38h-180v-38m262 0h46v265h-46v-265m-3-70q0-11 7-18t19-8q13 0 20 8t7 18q0 11-7 18t-20 8q-13 0-19-8t-7-18m165 70l1 42v223h-45v-265h44m84-1l0 42q-6-1-11-2t-11 0q-21 0-36 9t-22 23-10 34l-12 7q0-31 8-58t27-42 47-16q5 0 11 1t9 2m84 1l3 53v212h-46v-265h43m-7 123l-21-1q0-37 13-65t35-45 59-16q38 0 62 21t24 72v176h-45v-174q0-21-7-33t-20-19-30-5q-20 0-33 7t-22 19-11 29-4 34m171-25l-30 9q1-29 13-55t35-41 57-15q28 0 48 10t30 31 11 54v174h-46v-174q0-23-7-35t-19-17-30-5q-15 0-26 5t-20 14-12 20-4 25m388 121v-136q0-23-14-37t-42-14q-17 0-30 6t-20 15-7 21h-45q0-19 13-37t36-30 56-11q29 0 51 9t34 30 13 49v123q0 13 2 28t7 26v4h-47q-3-8-5-21t-2-25m-45-115h53l0 32h-46q-38 0-59 12t-21 37q0 19 12 32t38 13q21 0 37-9t25-21 10-25l20 22q-2 10-10 22t-20 24-30 19-38 8q-27 0-47-11t-32-28-11-40q0-42 32-64t87-23m129-104h143v35h-143v-35m48 199v-263h45v263q0 14 4 20t11 10 14 2q6 0 12-1t10-2l0 37q-6 1-14 3t-21 2q-17 0-31-7t-22-22-8-42m190-199l3 57v208h-45v-265h42m-8 123l-19-1q1-37 14-65t38-45 56-16q26 0 45 9t29 31 10 56v173h-45v-174q0-21-6-33t-18-19-29-5q-17 0-30 7t-24 19-15 29-6 34" />
<path id="vesper-libre" class="f" d="M178 617l85-257-44-8 4-23h111l-4 23-31 9-113 306-36 8-124-314-33-9 5-23h129l-3 22-41 10 95 256m240 21q11 0 24-4t25-7 16-7l6 9q-8 9-22 19t-31 18-34 7q-28 0-50-12t-36-38-14-67q0-35 14-65t40-46 57-16q24 0 42 10t26 28 9 39q0 17-5 33-1 5-3 7t-7 2h-131q2 23 12 44t25 33 37 13m-29-181q-18 0-24 6-7 7-13 25t-8 41l106-8q0-20-8-35t-22-21-31-8m248-7q-16 2-32 7t-27 12q-8 6-8 17 0 20 24 32 7 4 14 6t18 6q15 4 24 8t17 8q12 8 19 20t7 30q0 25-12 42t-31 26-45 9q-20 0-35-4t-25-9-21-14l11-54 26 6 9 47q21 0 42-3t33-11q9-6 9-20 0-9-4-17t-14-14q-6-4-14-7t-20-7q-2 0-9-3t-12-5-11-5q-16-9-26-24t-9-34q0-22 12-37t33-22 45-7q27 0 46 10 17 11 17 24 0 7-4 14t-12 11-13 4q-8 0-15-4l-7-38m163 302l61 12-4 19h-139l3-22 36-12v-272l-38-19 2-11 67-15 8 33q17-11 28-18t26-13 28-5q25 0 44 14t28 39 10 61q0 33-13 63t-37 48q-11 8-24 14t-27 5q-18 0-34-7t-25-19v105m-1-273q1 7 1 17v112q13 16 33 23t41 7q15 0 22-4 5-2 10-12t8-26 3-33q0-33-10-57t-27-37q-7-5-16-5-10 0-30 4t-35 11m314 159q11 0 24-4t25-7 16-7l6 9q-8 9-22 19t-31 18-34 7q-28 0-50-12t-36-38-13-67q0-35 13-65t40-46 57-16q24 0 42 10t26 28 10 39q0 17-6 33-1 5-3 7t-7 2h-131q2 23 12 44t26 33 36 13m-29-181q-18 0-24 6-7 7-13 25t-8 41l106-8q0-20-8-35t-22-21-31-8m174 20l-38-19 2-11 67-15 11 49q16-28 30-40t30-11q6 0 13 2t13 5q6 3 10 8t4 13q0 7-4 15t-12 14-13 5q-5 0-9-1t-8-2l-5-27q-11 4-24 14t-24 19v141l63 11-4 20h-142l4-22 36-12v-156m521 152l32-46 18 5-18 79h-255l4-21 44-14v-270l-46-13 4-20h138l-4 21-45 13v279l128-13m144-249q-3 2-13 2-10 0-19-2t-12-6q-3-3-3-13 0-10 3-19t6-12q3-3 13-3t19 3 12 6q3 3 3 12 0 9-3 19t-6 13m-76 266l36-10v-159l-38-19 2-11 80-16v205l40 11-5 20h-118l3-21m207-5l-50 32-11-15 23-43v-263l-38-19 2-11 79-15v158q18-15 40-26t40-10q29 0 47 16t26 42 7 56q0 27-8 52t-25 42q-14 16-30 26t-39 10q-20 0-35-7t-28-25m5-33q13 16 33 23t40 7q16 0 24-4 6-3 11-16t7-30 3-32q0-28-9-52t-25-36q-7-4-16-4-9 0-31 5t-37 9v130m234-131l-38-19 3-11 66-15 11 49q17-28 30-40t31-11q6 0 13 2t12 5q7 3 11 8t4 13q0 7-5 15t-11 14-14 5q-4 0-9-1t-8-2l-5-27q-10 4-24 14t-23 19v141l62 11-4 20h-142l4-22 36-12v-156m281 161q11 0 25-4t24-7 16-7l6 9q-8 9-22 19t-31 18-33 7q-28 0-51-12t-36-38-13-67q0-35 14-65t39-46 57-16q25 0 42 10t27 28 9 39q0 17-5 33-2 5-4 7t-6 2h-132q2 23 12 44t26 33 36 13m-28-181q-19 0-25 6-7 7-13 25t-8 41l106-8q0-20-8-35t-22-21-30-8" />
<path id="viaoda-libre" class="f" d="M200 297h104v12q-14-4-23-4-15 0-21 12-4 7-6 14l-79 312v1l-6 23h-30l-98-340q-2-10-10-16t-18-5q-8 0-18 3v-12h121v12q-10-3-18-3t-12 4-5 10q0 4 1 7l87 297 67-285 4-12q1-3 1-8 0-14-18-14-10 0-23 4v-12m123 104q-9 0-15-6t-6-14 6-14 15-5 15 5 7 14q0 9-6 14t-16 6m-44 258q9 3 13 3 9 0 11-7t3-18v-178q-8 2-16 2-4 0-11-1v-13h5q0 3 3 6t9 2q7 0 13-5t13-17h15v204q0 13 2 19t10 6q4 0 13-3v8h-83v-8m184 13q-28 0-47-18t-19-49q0-23 15-39t34-22q10-3 22-6t18-4q25-5 37-9t15-12q0-36-14-60t-45-24q-20 0-30 14t-10 39q0 6 3 9t11 3q6 0 10-3t4-6h4v14h-65q0-18 10-36t29-29 41-11q30 0 48 13t26 33 8 39v108q0 38 16 38 5 0 9-7t5-14h5q0 19-12 29t-25 10q-17 0-23-15t-5-42v-23q0 7-7 26t-23 37-45 17m11-14q17 0 32-14t23-32 8-31v-57q0 2-5 3t-12 3q-33 9-48 14-23 9-34 24t-11 34q0 22 12 39t35 17m258 14q-53 0-76-34t-23-91q0-52 23-88t76-36 76 36 24 88q0 57-23 91t-77 34m0-6q34 0 50-33t15-86q0-49-16-84t-49-34-49 34-15 84q0 53 15 86t49 33m233 6q-47 0-67-38t-21-96q0-31 10-57t30-42 48-16q24 0 42 14t28 37h8l0-131v-50q-7 2-16 2-3 0-10-1v-13h4q0 3 4 6t9 2q7 0 15-7t14-15h7v380q1 15 12 15 6 0 13-3v8h-43l-11-37h-9q-21 42-67 42m9-9q36 0 49-33t14-84q0-24-7-51t-21-47-36-19q-31 0-46 34t-15 82q0 50 15 84t47 34m222 9q-28 0-47-18t-19-49q0-23 15-39t34-22q10-3 22-6t18-4q25-5 37-9t15-12q0-36-14-60t-45-24q-20 0-30 14t-10 39q0 6 3 9t11 3q6 0 10-3t4-6h4v14h-65q0-18 10-36t29-29 41-11q30 0 48 13t26 33 8 39v108q0 38 16 38 5 0 9-7t5-14h5q0 19-12 29t-25 10q-17 0-23-15t-5-42v-23q0 7-7 26t-23 37-45 17m11-14q17 0 32-14t23-32 8-31v-57q0 2-5 3t-12 3q-33 9-48 14-23 9-34 24t-11 34q0 22 12 39t35 17m475-104h10q-7 6-10 20t-2 42v51h-199v-13q9 3 17 3 10 0 15-5t5-15v-310q0-10-5-16t-15-5q-8 0-17 3v-12h112v12q-9-3-17-3-10 0-15 5t-5 16v277q0 30 10 44t35 14q28 0 42-8t18-20 8-33q2-16 4-27t9-20m74-153q-9 0-15-6t-6-14 6-14 15-5 15 5 6 14q0 9-6 14t-15 6m-44 258q8 3 12 3 9 0 12-7t2-18v-178q-7 2-16 2-3 0-10-1v-13h4q0 3 4 6t9 2q7 0 12-5t14-17h14v204q0 13 2 19t11 6q4 0 12-3v8h-82v-8m107-378h5q0 3 3 6t9 2q8 0 14-6t14-16h9l0 207h8q11-23 28-37t42-14q28 0 48 16t30 42 10 57q0 58-21 96t-67 38-67-42h-9l-11 37h-18v-374q-8 2-16 2-4 0-11-1v-13m60 265q0 51 14 84t49 33q33 0 47-34t15-84q0-49-15-82t-46-34q-21 0-36 19t-21 47-7 51m324-81q0 6-2 14t-3 9q-4 13-4 17 0 10 15 10v5q-21 0-30-10t-8-27q0-8 1-16 3-14 3-22 0-9-3-12t-10-3q-15 0-23 30t-8 72v105q0 13 2 19t11 6q4 0 12-3v8h-82v-8q8 3 12 3 9 0 12-7t2-18v-178q-7 2-16 2-3 0-10-1v-13h4q0 3 4 6t9 2q7 0 13-5t13-17h5l0 41h5q6-26 17-39t23-12q17 0 26 13t10 29m125 207q-47 0-71-32t-23-93q0-32 10-60t31-46 52-18q51 0 72 31t22 74q0 7-1 19l-1 5h-150q2 112 62 112 27 0 40-17t13-37q0-9-4-13t-11-4q-5 0-9 3t-3 7h-5v-14h64q1 19-10 38t-31 32-47 13m45-128q9 0 10-2t3-8q0-6 0-17 0-38-14-63t-47-25q-32 0-44 32t-12 83h104" />
<path id="vibes" class="f" d="M10 339q0-1 2-3l12-6q2-2 3 0 17 33 40 115t45 188q31-68 50-151t19-155q0-2 3-2h14q2 0 2 2 0 81-23 174t-60 164q0 2-2 2l-15-3q-1 0-2-4-22-110-46-199t-42-122m223 66q5-1 7-6t3-9q0-6-5-11t-10-5q-6 0-9 4t-4 10q0 8 5 13t13 4m-12 262q1-14 1-124 0-112-1-121h19q1 10 1 122 0 111-1 123h-19m156-241q34 0 63 13t46 38 17 50q0 39-22 71t-58 51-69 19q-28 0-51-13t-34-41-11-68v-221h19v151q16-24 42-37t58-13m-97 96q-2 19-2 32 0 48 22 71t57 24q30 0 59-17t49-44 20-62q0-22-15-41t-39-30-53-12q-24 0-45 11t-36 28-17 40m382 142q-19 3-36 3-16 0-33-3 21 16 44 29t37 19l-5 16q-16-4-44-21t-53-39-39-40q-17-22-17-57 0-35 18-70t50-57 72-22q27 0 50 17t37 46 14 63q0 29-11 53t-33 42-51 21m-5-224q-34 0-62 19t-45 49-16 60q0 35 24 57t71 22q13 0 32-2 22-3 40-18t28-35 11-45q0-28-12-53t-30-39-41-15m233-13l-12 15q-10-8-22-8-14 0-24 10t-10 25q0 18 13 32t37 34q23 18 35 31t14 30q1 8 1 11 0 27-17 43t-45 17q-38 0-62-25t-23-63h19q0 31 18 50t48 19q20 0 31-11t12-30q0-5-1-8-1-12-11-22t-31-27q-18-15-29-25t-20-25-8-31q0-23 16-39t37-15q18 0 34 12" />
<path id="vibur" class="f" d="M98 289q5 0 10 3 9 6 10 16-10 79-16 125-14 112-14 127 0 62 32 62 58 0 104-55 39-47 60-120-44-2-71-23-32-25-32-70 1-30 25-52 21-18 47-18 34 0 57 22 25 25 25 67 0 10-1 31 5-1 10-3 14-5 33-17 14-9 23-9 4 0 8 3 9 5 9 15 0 16-24 30-29 16-68 22 0 0-1 0-22 85-67 143-61 79-145 79-12 0-21-3-42-16-42-99 0-45 11-116 11-72 13-99-24 15-38 23-24 15-29 15-5 0-10-3-10-6-10-17 1-10 12-18 1 0 2-1 84-57 98-60m123 71q0 12 5 22 15 27 67 27 4-21 4-37 0-11-3-21-9-25-34-25-12 0-22 5-17 10-17 29m224 117q0 8-3 31-7 69-7 86 0 11 4 21 7 15 19 15 2 0 5-1 7-1 20-11 13-10 21-10 4 0 7 2 7 5 7 13-1 13-19 27-23 15-47 15-21 0-35-14-20-22-20-70 0-16 6-64 3-22 4-32 1-3 1-5 4-24 20-24 3 0 5 0 12 3 12 21m-28-64q0-4 2-8 5-9 16-9 4 0 8 2 9 4 9 15 0 5-2 9-4 9-15 9-5 0-9-2-9-5-9-16m167-120q2 0 5 0 42 3 42 49 0 50-42 111-28 40-59 65 2 16 5 30 17 83 62 83 17 0 33-10 28-19 45-64-12-2-22-7-26-14-26-46 0-16 12-28 13-13 31-13 18 0 30 9 17 14 17 37 0 10 0 10 4-2 10-5 10-6 16-6 4 0 7 2 8 4 8 14 0 5-4 10-11 14-44 21-11 40-34 70-34 42-76 42-61-1-89-76-19-52-19-124 0-4 0-11 4-51 20-94 25-69 72-69m-53 143q-2 20-3 38 15-15 31-37 39-54 39-92 0-2-1-4-4-11-13-11-20 0-33 26-12 25-20 80m142 60q-2 0-5 1-8 3-8 11 1 14 24 16 0-1 0-5 1-5 1-7 0-1-1-3-1-13-11-13m160 39q2-15 5-56 0-2 1-4 3-15 18-16 1 0 2 0 13 2 13 21 0 5-1 15 0 4 0 6-5 66-5 84 0 6 1 13 4 31 22 31 2 0 5-1 7-2 21-11 13-10 21-10 3 0 6 2 8 4 8 14 0 1 0 2-2 12-21 24-22 16-45 16-30-1-43-28-21 26-59 27-9 0-16-2-43-13-43-94 0-40 8-79 1-2 1-4 8-27 22-27 17 0 18 19 0 4-2 17-9 55-9 79 0 51 26 52 33-1 46-90m209 72q0 1 0 1 8 23 21 23 7-1 24-11 15-10 23-10 4 0 7 2 7 5 7 11-1 14-20 28-22 16-46 16-16 0-28-8-27-20-27-80 0-11 1-24 2-25 4-31-17 9-34 9-2 0-6-1-2 0-3 0 0 0-5 3-17 10-27 10-3 0-6-2-7-4-7-11 0-1 0-3 1-4 7-10 3-2 4-3-15-14-15-38 0-11 5-20 11-18 34-18 12 0 23 6 18 11 18 30 0 12-4 21 4-2 13-8 18-13 26-13 10 0 17 6 4 3 4 7 0 2-1 5-1 2-1 3-12 43-12 74 0 13 3 30 1 4 1 6m-77-128q0-1-1-3-2-6-9-6-1 0-3 0-7 2-7 9 1 12 13 18 7-8 7-18" />
<path id="victor-mono" class="f" d="M169 667h-38l-112-400h40l91 331 91-331h40l-112 400m313 0h-37v-298l23 23h-86v-34h100v309m88 0h-213v-35h213v35m-117-366q-19 0-27-7t-7-25q0-18 7-25t27-7q19 0 26 7t8 25q0 18-8 25t-26 7m306 373q-46 0-73-16t-39-51-11-95q0-60 11-95t39-51 75-15q26 0 44 5t33 18 29 35l-31 19q-11-17-21-26t-23-13-31-4q-33 0-53 12t-27 39-8 76q0 48 8 76t26 39 52 12q19 0 31-4t24-13 22-26l31 19q-14 22-29 35t-34 18-45 6m324 0q-34 0-54-12t-29-37-8-66v-169h-62v-35h62v-88h37v88h104v35h-104v169q0 44 12 62t42 18q18 0 28-3t16-9 10-19l35 12q-7 20-17 32t-28 17-44 5m267 0q-42 0-67-16t-36-51-10-95q0-60 10-95t36-51 67-15q43 0 68 15t35 51 11 95q0 60-11 95t-35 51-68 16m0-35q30 0 46-12t24-39 7-76q0-49-7-76t-24-39-46-12q-29 0-46 12t-23 39-7 76q0 48 7 76t23 39 46 12m244 28h-37v-309h37v47q6-14 18-26t28-20 36-8q26 0 43 6t29 21 22 40l-34 15q-6-19-14-29t-18-15-28-4q-23 0-39 10t-25 27-14 36-4 37v172m568 0h-38l7-400h36l83 215 83-215h37l7 400h-38l-5-304-67 178h-34l-66-178-5 304m388 7q-42 0-67-16t-36-51-10-95q0-60 10-95t36-51 67-15q43 0 68 15t35 51 11 95q0 60-11 95t-35 51-68 16m0-35q30 0 46-12t24-39 7-76q0-49-7-76t-24-39-46-12q-29 0-46 12t-23 39-7 76q0 48 7 76t23 39 46 12m231 28h-38v-309h38v22q13-15 32-22t51-7q38 0 60 11t30 37 9 72v196h-37v-196q0-33-6-52t-19-26-37-8q-33 0-51 7t-25 23-7 50v202m369 7q-42 0-67-16t-36-51-10-95q0-60 10-95t36-51 67-15q43 0 68 15t35 51 11 95q0 60-11 95t-35 51-68 16m0-35q30 0 46-12t24-39 7-76q0-49-7-76t-24-39-46-12q-29 0-46 12t-23 39-7 76q0 48 7 76t23 39 46 12" />
<path id="vidaloka" class="f" d="M27 332l-37-3v-11h136v11l-33 3 97 247h1l85-247-33-3v-11h78v11l-30 3-116 340h-11l-137-340m334 109h-30v-10l51-5 35-9 4 7v230l25 3v10h-110v-10l25-3v-213m-3-111q0-7 2-13t7-10 10-7 13-2 12 2 11 7 7 11 2 12-2 12-7 11-10 7-13 2-13-2-10-7-7-10-2-13m122 220q0-21 4-41t13-37 21-30 30-20 40-8q10 0 22 3t20 10v-89h-30v-10l51-6 35-9 4 7v334l25 3v10h-81l-3-35h-1q-14 24-29 33t-37 9q-6 0-12-1t-15-5-16-9-15-15-13-23-9-30-4-41m63-2q0 105 43 105 18 0 31-20t13-45v-149q-14-11-31-11-11 0-20 5t-15 11-10 18-6 21-3 23-2 22 0 20m205 66q0-12 4-23t12-22 21-18 31-12 41-4q12 0 22 1v-34q0-16 0-26t-3-21-7-16-13-10-20-3q-35 0-52 28v1q4-1 8-1 12 0 20 8t7 22q0 13-9 22t-22 8q-14 0-22-9t-9-23q0-29 27-49t61-19q24 0 41 5t28 14 16 23 7 29 2 38v131l25 3v10h-77l-7-39h-1q-12 23-29 35t-41 11q-29 0-45-18t-16-42m59-5q0 19 7 31t22 12q16 0 30-21t13-50v-34q-9-1-15-1-13 0-23 3t-16 9-10 13-5 14-3 13 0 11m209-271h-30v-10l51-6 34-9 4 7v334l26 3v10h-111v-10l26-3v-316m119 208q0-37 14-67t40-48 58-17q27 0 49 11t34 30 20 41 7 48q0 36-13 66t-39 47-58 17q-29 0-51-10t-35-28-20-41-6-49m62-3q0 27 3 48t8 38 15 25 23 9q49 0 49-117 0-30-2-51t-8-38-15-24-24-8q-13 0-23 9t-15 25-8 37-3 47m190-205l0-10 51-6 34-9 5 7v334l25 3v10h-110v-10l25-3v-317l-30 1m164 316l-74-115v-6l95-99-28-2v-10h73v10l-27 2-70 75 98 145 25 3v10h-112v-10l20-3m107-40q0-12 4-23t12-22 21-18 31-12 41-4q12 0 23 1v-34q0-16-1-26t-3-21-7-16-13-10-20-3q-35 0-52 28v1q4-1 8-1 13 0 20 8t7 22q0 13-9 22t-22 8q-14 0-22-9t-9-23q0-29 27-49t61-19q24 0 42 5t27 14 16 23 8 29 1 38v131l26 3v10h-78l-7-39h0q-12 23-29 35t-42 11q-29 0-45-18t-16-42m59-5q0 19 7 31t22 12q16 0 30-21t14-50v-34q-10-1-16-1-13 0-23 3t-16 9-9 13-6 14-2 13-1 11" />
<path id="viga" class="f" d="M217 311h72l-112 336q-9 23-32 23-24 0-33-23l-110-336h72l71 232 72-232m143-39q24 0 31 7t7 31-8 30-30 8-31-8-7-30 7-31 31-7m32 120v275h-65v-275h65m144-9h69l65-4v275q0 47-27 72t-79 26q-41 0-71-16-16-8-26-24t-9-38l60-3q0 14 10 20t34 6 33-12 9-35l3-43-70 38q-58 0-78-39-18-35-18-85 0-59 9-84 10-27 27-39 23-15 59-15m19 193l50-25v-109h-50q-28 0-38 19t-11 53 11 48 38 14m384-197v288h-44l-20-35-69 38q-58 0-78-42-10-21-14-45t-4-49 1-38 2-29 6-27 11-23 17-18q22-16 58-16h69l65-4m-115 222l50-25v-134h-50q-27 0-38 21t-11 62 10 59 39 17" />
<path id="vina-sans" class="f" d="M145 667h-85l-45-343v-7h75l9 250h7l9-250h75v7l-45 343m141-365h-75v-22h75v22m0 365h-75v-350h75v350m141-355q23 0 37 11t21 32 6 44v268h-74v-273q0-5-4-9t-9-4q-5 0-9 4t-4 9v273h-75v-350h60v17h5q4-8 17-15t29-7m168 360q-24 0-42-12t-27-32-10-44v-49q0-24 12-44t32-32 44-11h13v-64q0-6-4-10t-9-3q-5 0-9 3t-4 10v51h-75v-36q0-24 12-44t32-32 44-11q24 0 44 11t31 32 12 44v268h-52v-18h-5q-5 11-17 17t-22 6m9-70q5 0 9-4t4-9v-71h-13q-5 0-9 3t-4 10v58q0 6 4 9t9 4m305 70q-24 0-44-12t-32-32-12-44v-40h75v43q0 5 3 9t10 4 9-4 4-9q0-5-1-8t-4-9l-60-98q-7-11-15-23t-15-25-6-23v-2q0-24 12-44t32-32 44-11q24 0 44 11t31 32 12 44v36h-74v-39q0-5-4-9t-9-4q-5 0-9 4t-4 9q0 4 1 6t4 7l62 98q11 19 22 37t11 38v2q0 25-12 44t-31 32-44 12m186 0q-24 0-42-12t-27-32-10-44v-49q0-24 12-44t32-32 44-11h13v-64q0-6-4-10t-9-3q-5 0-9 3t-4 10v51h-75v-36q0-24 12-44t32-32 44-11q24 0 44 11t31 32 12 44v268h-52v-18h-5q-5 11-17 17t-22 6m9-70q5 0 9-4t4-9v-71h-13q-5 0-9 3t-4 10v58q0 6 4 9t9 4m228-290q23 0 37 11t21 32 6 44v268h-74v-273q0-5-4-9t-9-4q-5 0-9 4t-4 9v273h-75v-350h60v17h5q4-8 17-15t29-7m177 360q-24 0-44-12t-32-32-12-44v-40h75v43q0 5 3 9t10 4 9-4 4-9q0-5-1-8t-4-9l-60-98q-7-11-15-23t-15-25-6-23v-2q0-24 12-44t32-32 44-11q24 0 44 11t31 32 12 44v36h-74v-39q0-5-4-9t-9-4q-5 0-9 4t-4 9q0 4 1 6t4 7l62 98q11 19 22 37t11 38v2q0 25-12 44t-31 32-44 12" />
<path id="voces" class="f" d="M306 317h-50l-80 226q-8 23-15 49t-8 33h-9q-2-7-8-33t-12-49l-72-226h-50l113 350h65l126-350m248 221q0 64-30 99t-91 36q-61 0-91-36t-30-99 30-100 91-35q61 0 91 35t30 100m-121 101q68 0 68-101t-68-101q-36 0-52 27t-16 74 16 73 52 28m295-1q30 0 60-9l10 31q-12 5-31 9t-39 4q-61 0-93-34t-31-101 31-101 93-34q20 0 39 4t31 9l-10 29q-27-8-60-8-36 0-54 27t-17 74 17 73 54 27m221-235q-56 0-85 37t-29 98q0 62 30 98t88 37q50 0 94-20l-10-30q-22 8-40 11t-38 3q-71 0-71-88h169v-19q0-127-108-127m-61 115q2-39 14-60t46-21q34 0 46 21t13 60h-119m409 76q0 40-27 59t-68 20q-46 0-93-23l13-31q23 9 39 14t36 6q23 0 37-9t15-29q0-14-8-22t-33-19l-31-12q-26-10-41-27t-15-43q0-35 26-55t67-20q35 0 77 16l-11 31q-35-13-68-13-46 0-46 35 0 14 10 21t34 19l34 15q27 12 40 27t13 40" />
<path id="volkhov" class="f" d="M41 351l-45-11v-23h152v23l-41 8 85 240 80-237-39-11v-23h120v23l-46 11-110 319h-39l-117-319m426 58q55 0 91 37t36 95q0 58-36 96t-91 37-92-37-36-96q0-57 36-95t92-37m0 28q-31 0-48 28t-17 76 17 77 48 29 47-30 17-76q0-47-17-76t-47-28m301 230h-145v-22l42-10v-328h-42v-21l80-19h22v368l43 10v22m156 0h-135v-22l42-10v-328h-42v-21l80-19h22v368l33 10v22m64 0l-88-121 91-99-33-9v-21h113v21l-44 10-70 76 83 112 41 9v22h-93m244 0h-135v-22l42-10v-328h-42v-21l80-19h22v174q38-32 81-32 39 0 61 22t23 57v147l42 10v22h-134v-22l32-10v-138q0-51-43-51-30 0-62 23v166l33 10v22m329-258q55 0 91 37t36 95q0 58-36 96t-91 37-92-37-36-96q0-57 36-95t92-37m0 28q-31 0-48 28t-17 76 17 77 48 29 47-30 17-76q0-47-17-76t-47-28m176 11l-34-10v-21h133v21l-35 8 62 147 58-145-35-10v-21h103v21l-40 11-87 221h-30l-95-222" />
<path id="vollkorn" class="f" d="M161 670q-18-49-36-96t-35-90-32-78q-11-24-17-36t-11-16-15-5q-1-6-2-12t0-10q5 1 12 1t15 0 17 1 16 0q16 0 31-1t30-1q0 5-1 10t-2 12q-16 1-24 5t-7 15 11 35q14 32 27 65t25 66 26 70h-7q14-32 27-64t26-65 25-66q10-28 6-44t-26-17q-2-6-2-12t-1-10q8 1 14 1t14 0 15 1q11 0 25-1t26-1q0 6-1 11t-2 11q-15 3-24 18t-19 41q-25 64-51 129t-53 131q-5 1-10 1t-10 1m315 1q-34 0-59-15t-40-41-14-63q0-34 15-61t40-42 58-16q36 0 61 15t39 42 13 62q0 34-14 61t-40 43-59 15m4-24q30 0 45-25t14-64q0-31-9-54t-25-35-34-12q-29 0-43 24t-14 61q0 33 8 57t23 36 35 12m147 21q0-5 1-11t2-10q20 0 27-10t7-34v-224q0-12-2-20t-10-11-25-4q0-6 1-10t3-9q8 0 21-2t27-7 19-8q5 2 8 6t3 14v275q0 25 7 34t23 10q1 5 2 11t0 10q-8 0-18-1t-19 0-19 0-20 0-20 0-18 1m150 0q0-5 0-11t2-10q20 0 27-10t8-34v-224q0-12-3-20t-10-11-25-4q0-6 1-10t4-9q7 0 21-2t27-7 19-8q4 2 7 6t4 14v275q0 25 6 34t23 10q2 5 2 11t1 10q-9 0-18-1t-20 0-19 0-20 0-19 0-18 1m149 0q0-5 1-11t2-10q20 0 27-10t7-34v-224q0-12-2-20t-10-11-25-4q0-6 1-10t3-9q8 0 21-2t27-7 19-8q5 2 8 6t3 14v275q0 25 7 34t23 10q1 5 2 11t0 10q-13-1-27-1t-29 0q-10 0-20 0t-20 0-18 1m178 3q-8-13-20-29t-26-33-29-34-28-29l44-41q17-15 25-25t7-15q0-4-4-6t-10-2q-2-5-3-10t0-10q11 0 20 0t17 1 15 0q8 0 21-1t26 0q0 5-1 10t-3 11q-9 0-19 3t-19 9-23 18l-55 50-1-16q18 18 36 39t45 53q10 12 17 18t15 9 20 4q0 7-1 12t-2 10q-12 0-22 0t-21 1-21 3m210 0q-34 0-60-15t-39-41-14-63q0-34 14-61t40-42 59-16q35 0 60 15t39 42 14 62q0 34-15 61t-39 43-59 15m4-24q30 0 44-25t15-64q0-31-10-54t-24-35-34-12q-29 0-44 24t-14 61q0 33 8 57t24 36 35 12m229-94v40q0 22 5 33t14 15 26 6q1 4 2 9t0 12q-7 0-18-1t-21 0-24 0q-17 0-37 0t-29 1q0-7 1-12t2-9q13-1 21-5t10-13 3-26v-50h45m-8-40l8 7v40h-45v-56l45-49q0 17-3 31t-5 27m8 32l-11-29q6-14 9-23t6-15q11-17 26-29t35-11q19 0 34 12-1 8-2 18t-1 21 0 20q-5 1-13 3t-16 1q-1-24-8-31t-16-8q-9 0-19 10t-17 26-7 35m0-90l-45 105v-56q0-12-2-19t-11-12-24-4q0-6 1-10t3-9q16-1 36-6t31-11q5 2 8 6t3 16m210 0l-45 105v-56q0-12-3-19t-10-12-25-4q0-6 1-10t4-9q15-1 35-6t32-11q4 2 7 6t4 16m148 62v86q0 26 7 35t22 9q2 4 2 9t1 12q-11-1-25-1t-30 0q-10 0-21 0t-21 0-17 1q0-7 0-12t2-9q18 0 26-10t9-34v-76q0-35-13-48t-34-13q-13 0-26 8t-22 27-8 49v53q0 25 7 34t27 10q2 4 2 9t1 12q-7 0-17-1t-21 0-22 0q-10 0-21 0t-21 0-17 1q0-7 0-12t2-9q20 0 27-10t8-34v-99l45-49q0 6-1 14t-3 16q2-3 3-6t5-7q8-12 27-24t45-12q19 0 35 7t27 26 10 48" />
<path id="vollkorn-sc" class="f" d="M280 329q29 0 51-2 0 12-3 22-14 3-23 17t-20 42q-49 127-104 260-9 2-20 2-58-157-103-264-12-27-17-38t-11-14-15-5q-2-10-2-22 19 2 60 2 32 0 61-2 0 10-3 22-17 1-24 4t-7 14q0 11 11 37 34 80 75 192 43-99 74-186 7-20 7-33 0-13-6-20t-21-8q-3-10-3-22 22 2 43 2m224 342q-43 0-76-16t-52-45-18-67q0-38 18-68t52-46 77-16q43 0 76 16t51 45 18 68q0 38-18 67t-52 46-76 16m7-23q40 0 64-27t24-72q0-32-13-58t-37-40-52-15q-40 0-64 27t-23 72q0 34 13 59t36 40 52 14m326-4q23 0 37-5t22-15 16-28q13 2 22 11-9 23-14 60l-88 0q-72 0-116 1 0-16 2-23 12-1 19-4t9-11 3-24v-131q0-15-3-22t-9-11-19-4q-2-8-2-22 36 1 56 1 20 0 55-1 0 15-2 22-18 1-24 8t-6 29v130q0 16 3 24t11 12 25 3h3m276 0q23 0 37-5t22-15 16-28q13 2 22 11-9 23-14 60l-88 0q-72 0-116 1 0-16 2-23 12-1 19-4t9-11 3-24v-131q0-15-3-22t-9-11-19-4q-2-8-2-22 36 1 56 1 20 0 55-1 0 15-2 22-18 1-24 8t-6 29v130q0 16 3 24t11 12 25 3h3m351-39q15 16 33 28t36 12q0 14-3 22-43 0-69 3-18-24-51-59t-64-63v60q0 22 6 29t25 8q2 8 2 23-34-1-55-1-25 0-56 1 0-16 2-23 13-1 19-4t9-10 2-23v-133q0-15-2-22t-9-11-19-4q-2-7-2-22 32 1 56 1 20 0 55-1 0 15-2 22-18 1-25 8t-6 29v61l78-64q21-17 21-25 0-8-15-9-2-8-2-22 20 1 46 1 23 0 47-1 0 14-3 22-15 1-28 7t-35 23l-67 57q32 31 76 80m260 66q-43 0-76-16t-51-45-18-67q0-38 18-68t51-46 77-16q43 0 76 16t51 45 19 68q0 38-19 67t-51 46-77 16m7-23q41 0 64-27t24-72q0-32-13-58t-36-40-52-15q-41 0-64 27t-24 72q0 34 13 59t36 40 52 14m410-40q14 20 28 28t35 10q0 14-2 21-42 0-72 3-3-6-13-21l-23-36q-18-31-49-51l-16 1-14-1v46q0 16 2 24t8 11 18 4q2 6 2 21-18-1-54-1-27 0-55 1 0-14 3-21 12-1 18-4t9-11 3-22v-136q0-21-6-28t-24-8q-3-8-3-22 19 1 55 1l36-1q26-1 40-1 48 0 72 19t25 47-19 48-51 25q12 8 20 17t27 37m-107-70q36 0 59-13t23-37q0-51-70-51-16 0-31 3v96q10 2 19 2m474-121q19 0 42-1 0 15-2 22-11 1-16 6t-8 15-2 32v176q-7 3-21 3l-179-198v120q0 21 2 32t10 16 19 5q2 8 2 23-27-1-44-1-24 0-46 1 0-15 3-23 12-1 18-5t9-16 3-32v-146l0-1q-4-3-9-5t-21-2q-3-9-3-22 18 1 35 1 16 0 32-1l166 186v-111q0-21-3-32t-9-15-19-6q-2-11-2-22 25 1 43 1m315 254q-29 0-52-8t-49-24q4-28 4-71 12-3 27-3 2 40 20 61t57 21q33 0 48-14t16-38q0-19-10-33t-24-22-41-21q-30-14-48-26t-31-31-12-48q0-42 27-66t73-24q25 0 47 6t37 16q0 45 3 66-11 5-28 5-7-41-21-56t-38-15q-27 0-42 13t-15 37q0 19 10 33t25 23 41 22q30 14 47 26t31 30 12 45q0 26-12 48t-38 35-64 13m317 0q-46 0-82-22t-57-62-20-92q0-55 23-93t62-58 82-20q31 0 57 6t54 20q-5 26-5 78-11 4-27 4-2-50-20-69t-55-18q-40 0-67 19t-39 50-12 68q0 45 15 81t44 57 68 21q24 0 49-8t46-22q3 3 6 7t3 9q-30 23-59 34t-66 10" />
<path id="voltaire" class="f" d="M118 676h-3l-114-398h50l55 208 10 59h1l10-59 55-208h50l-114 398m228-5q-41 0-68-33t-28-101 28-101 68-33 68 33 28 101-28 101-68 33m0-42q13 0 24-9t18-28 7-55-7-55-18-28-24-9q-13 0-24 9t-18 28-7 55 7 55 18 28 24 9m181 38h-44v-389h44v389m157-39v43q-35 0-54-9t-28-28-8-46v-140h-20v-41h20v-86h44v86h42v41h-42v141q0 12 3 21t13 14 30 4m103 43q-36 0-55-24t-20-60q0-39 30-64t92-25v-5q0-25-8-37t-33-12q-14 0-30 5t-25 11l-17-39q14-8 34-13t44-5q41 0 60 21t19 67v180h-28l-12-27q-7 11-20 19t-31 8m13-40q11 0 21-6t13-14v-74h-4q-37 0-55 14t-18 37q0 18 9 31t34 12m156-268q-15 0-24-9t-8-21q0-13 8-22t24-9q14 0 23 9t9 22q0 12-9 21t-23 9m20 304h-44v-260h44v260m110 0h-46v-264h29l9 26q15-12 33-19t37-7v48q-20 0-35 4t-27 12v200m198 4q-30 0-53-16t-37-46-14-74q0-44 14-73t37-44 48-15q31 0 51 19t27 53-2 80h-129q3 28 13 45t23 23 27 7q13 0 26-4t19-9l17 37q-11 7-30 12t-37 5m-6-226q-20 0-34 18t-18 52h88q2-28-3-43t-13-21-20-6" />
<path id="vujahday-script" class="f" d="M69 686q-6 0-9-3-3-3-5-11t-1-16q0-4 0-8t1-6q4-16 6-23t3-10 1-4 0-3q0-1 0-4t0-6q1-6 4-16t6-20 4-14v-1l21-60q2-11 8-24t6-29q0-7-1-11t-3-11q0-5-2-8t-2-8q0-3 1-4 2-7 8-11t13-3q2 0 3 0t4 1q5 1 7 5t7 6 5 17q0 10-2 24t-6 27-7 25-7 16q-15 21-23 46t-14 49-10 45q-1 7-1 9 0 2 0 2t2 3q0 1 2 5t3 5q22-22 40-43t35-41 38-43 46-47q2-2 8-7t9-7q1-1 2-4t4-4q38-35 69-58t56-39 41-27q11-7 23-12t18-5q5 0 5 4 0 2-3 7-3 2-9 6t-13 8-8 6-8 6-13 6-8 5q-9 8-27 20t-37 26-38 28-30 25q-33 32-55 56t-37 41-25 30-21 23-23 21q-2 1-7 8t-10 14-8 10v-1q-3 3-9 6t-9 6q-2 1-8 3t-10 2m188-13q-6 0-10-4t-4-11q0-2 0-4t1-4q2-10 8-26t15-33 18-33q8-13 16-22t13-16q4-5 4-9t2-6q2-6 6-8t8-4q8-3 16-7t14-3q3 0 6 5t2 1v0q1 1 1 4 0 6-6 11t-20 22q-15 15-25 28t-17 24h0q-13 20-18 34t-8 25q-1 2 0 3t2 1q2 0 4 0 8-3 18-11t22-17 18-15q3-3 5-4t4-2q2-2 3-4t4-4q18-15 34-33t29-30 16-18q7-6 15-6 12 0 15 12 2 7-3 10t-7 7q-2 3-8 11t-14 20-13 21-10 17q-3 5-4 8t-3 6v0q0 1-1 5t-1 6q-2 4-2 7t1 2q0 1 3-1t5-4q1-1 4-2t4-1l5-2q0 0 7-5t14-8 7-5q6-3 6-3t3-1 11-7q9-6 14-6 3 0 3 3 0 2-3 6t-11 9q-13 8-28 19t-28 17q-4 3-9 6t-9 7l-1 0q-1 0-5 4t-4 4q-2 2-3 5t-5 5h1q-2 1-5 1t-4 0q-7 0-8-1-1-1-3-2t-3-3q-1-4-1-7 0-9 5-22t13-27q6-12 9-19t5-12 3-9q-7 6-14 13t-18 16q-1 1-4 2t-4 2l-13 13q-15 13-27 25t-27 20v0q0 0-1 1t-2 3v0q-2 1-4 1t-2 0q-3 2-6 3t-6 3q-6 3-10 3m311-219h-1q-5 0-6-4t-2-6q0-2 0-5t-1-6q0-4 1-8t5-5q21-11 32-11 8 0 10 4t3 12q0 2 0 4t-1 4q-1 7-9 9t-14 5q-4 2-9 4t-8 3m-229 400q-17 0-27-12t-14-26-4-27q3-12 4-19t9-16q4-4 6-4 2 0 2 5t0 11q0 8 0 20t1 24 7 20 16 9q19 0 33-10t27-25 23-32q4-6 9-11t8-10q4-6 6-13t6-11q16-22 26-48t23-51q0-2 0-5t0-4q0-19 7-37t14-35q6-15 7-25t1-15 6-10q8-6 17-6 12 0 14 8 1 2 1 4t0 5q0 4-1 8-3 3-3 6 0 1 0 1t1 3-1 4-4 8q-2 5-3 8t-3 6q0 4-2 14t-10 21-12 25-6 25-11 26q-6 17-14 33t-19 34q-12 16-26 37t-32 41-38 33-44 13m230-181q-6 0-10-4t-4-11q0-2 0-4t1-4q4-16 13-39t25-48 40-50q17-18 37-26t43-7h0q17 0 23 8t5 18q0 11-3 17l0 0q-2 2-5 2-3 0-5-2t-2-5q0-5-2-9t-4-6q-1-1-3-1t-4 0h-1q-1 0-3-1t-3-1q-19 0-47 27-28 28-42 48t-20 35-7 27q-1 4 2 4 6 0 14-5t17-12 18-15 13-11q3-3 5-4t4-2q2-2 3-4t4-4q18-15 29-25t17-14 11-10q6-6 14-6 12 0 15 12 2 7-4 10t-8 6q-4 5-8 15t-12 23q-5 9-8 19t-2 15l8-5q7-3 14-6t13-5q3-2 6-2 4 0 4 3 0 4-6 8-15 11-23 15t-18 14q-2 2-9 9t-8 9q-2 1-5 1t-4 0q-7 0-8-1-1-1-3-2t-3-3q-1-4-1-7 0-9 5-22t13-27q6-12 9-19t5-12 3-9q-7 6-14 13t-18 16q-1 1-4 2t-3 3l-14 12q-14 11-25 21t-22 18-28 17q-6 3-10 3m212-6q-5-2-5-11 0-5 2-12t5-17v2q1 0 2-4t1-4q0-3 4-7t3-4v0q1-2 0-3t1-4q5-11 9-16t7-12v1q1 0 1-4t3-6v1q0-2 2-4t2-2q5-8 6-12t4-8 8-11h0q2-2 5-8t7-11 4-2v1q0 1 4-5t9-15 10-16 6-8v0q1-1 4-7t4-5h-1q5-8 7-13t4-8 8-12l18-22q2-3 6-9t8-8q7-4 17-7t18-3q6 0 9 2t5 7q-1 7-6 17t-15 19q-6 5-14 7t-12 7h0q-5 8-14 19t-12 16q-4 5-9 9t-8 9q-7 10-11 17t-7 14-11 15q-14 16-19 25t-6 21q2-3 4-5 11-11 31-24t41-25h1q0 0 5-3t10-6 10-7 3-2h-1q6-4 19-8 23-8 39-8 11 0 16 4 5 4 5 12 0 6-3 15v-1q-1 0-2 3t-4 7q0 2-3 6t-3 4v0q-3 6-5 8t-6 8q-5 6-12 17t-14 24-9 24q-1 3-5 9t-3 8v0q0 1 2 3t3 2q1 2 1 5 0 5-4 9t-13 5q-6 0-8-3t-4-7v-5l-2 1h-1q-2 0-4-3v0q0-2-1-6t0-6q0-3 3-10t6-15 5-10q2-6 10-17t17-22 14-18q2-5 3-9t1-6q0-6-3-9t-8-3q-2 0-7 1t-10 3q-2 0-8 4t-10 6-3 3h0q-4 3-7 4t-8 6q-2 1-8 5t-13 8-8 6q-25 17-47 37t-39 43q-2 2-3 7t-2 7q-2 4-4 5t-3 2q-4 5-8 6t-6 2m248 6q-6 0-10-4t-4-11q0-2 0-4t1-4q5-16 14-39t25-48 39-50q7-7 20-13t25-11 17-8-3-2h0q1-1 3-2t4 0q4 0 7 1t7 2h1q12 0 18 4t8 12 2 13q0 1 0 3t-1 3q6-10 12-22t10-19 5-10v1q0 2 2-2t2-4q7-12 8-20t10-20h0q1-2 5-9t9-13 6-9q6-5 19-11t25-6q6 0 10 3t5 8q0 8-4 13t-11 9-15 13q-6 7-19 27t-32 47q-17 25-26 38t-13 19-4 9l0 0q-5 5-9 15t-12 23q-4 8-5 12t-3 13q-2 4-3 7t1 2q0 1 3-1t6-4q1-1 4-2t4-1l0 0q5-2 6-2h1q1 0 3-1t8-5q4-2 6-2 4 0 4 3 0 4-6 8-14 11-23 15t-18 14l0 0q-1 0-5 4t-4 4q-2 2-4 5t-4 5h0q-2 1-4 1t-4 0q-7 0-9-1-1-1-3-2t-2-3q-1-4-1-7 0-9 4-22t13-27q7-12 10-19t4-12 4-9q-7 6-15 13t-17 16q-2 1-5 2t-4 2l-12 13q-16 13-28 25t-26 20v0q-1 0-2 1t-2 3v0q-2 1-3 1t-3 0q-3 2-6 3t-5 3q-6 3-11 3m25-32q1 0 4 0 7-3 18-11t21-17 19-15q2-3 4-4t4-2q3-2 4-4t3-4q18-15 29-25t17-14 11-10q2-1 4-4t4-6h-1q-3 0-5-2t-3-5q0-5-2-9t-4-6q0-1-2-1t-5 0h0q-2 0-3-1t-3-1q-19 0-47 27-29 28-43 48t-19 35-8 27q0 2 0 3t3 1m191 32q-6 0-10-4t-4-11q0-2 0-4t1-4q4-16 13-39t25-48 40-50q17-18 37-26t43-7h0q17 0 23 8t5 18q0 11-3 17l0 0q-2 2-5 2-3 0-5-2t-2-5q0-5-2-9t-4-6q-1-1-3-1t-4 0h-1q-1 0-3-1t-3-1q-19 0-47 27-28 28-42 48t-20 35-7 27q-1 4 2 4 6 0 14-5t17-12 18-15 13-11q3-3 5-4t4-2q2-2 3-4t4-4q18-15 29-25t17-14 11-10q6-6 14-6 12 0 15 12 2 7-4 10t-8 6q-4 5-8 15t-12 23q-5 9-8 19t-2 15l8-5q7-3 14-6t13-5q3-2 6-2 4 0 4 3 0 4-6 8-15 11-23 15t-18 14q-2 2-9 9t-8 9q-2 1-5 1t-4 0q-7 0-8-1-1-1-3-2t-3-3q-1-4-1-7 0-9 5-22t13-27q6-12 9-19t5-12 3-9q-7 6-14 13t-18 16q-1 1-4 2t-3 3l-14 12q-14 11-25 21t-22 18-28 17q-6 3-10 3m176 181q-17 0-27-12t-14-26-4-27q3-12 4-19t9-16q4-4 6-4 2 0 2 5t0 11q0 8 0 20t1 24 7 20 16 9q19 0 33-10t27-25 23-32q4-6 9-11t8-10q4-6 6-13t6-11q16-22 27-48t26-51q2-6 7-17t10-24 8-17q4-12 5-14v-1q-5 4-6 5t-2 2-9 8l-1 0q-1 0-6 4t-10 9-7 5q-3 2-10 9t-9 8q-13 12-25 21t-27 18q0 0-1 2t-2 2h-1q-1 1-3 1t-2 1l-12 5q-6 3-11 3-5 0-9-4t-4-11q0-1 0-4t1-4q4-15 11-35t22-43q3-6 4-8t1-4v-2q0-1 0-2t3-5q4-6 4-9t2-6q2-6 6-9t8-3q8-4 16-7t14-3q7 0 9 6 0 2 0 3t0 3q0 9-5 16t-16 15q-4 4-6 6t-5 5-7 11h0q-13 19-19 33t-7 25q-1 2 0 3t2 1q2 1 4 0 8-3 18-11t22-17 20-15q2-2 5-4t4-2q3-2 4-4t4-4q20-15 31-28t16-21 11-12q6-5 11-5 5 0 8 4t4 8q1 4 1 8 0 6-2 10-3 5-3 8t-2 9q-3 5-6 12t-6 11q-4 11-11 26t-16 28-13 22-5 9q-6 17-15 36t-20 36q-12 16-26 37t-32 41-38 33-44 13m476-151q-9 0-16-1-12-3-12-12 0-7 7-15t20-11q4 0 2 4t-4 7-3 8q0 3 5 3 2 0 3 0t4-1q7-1 18-3t22-2 18-3q11-3 22-9t19-9q2 0 4 0t4 0 4-1q5-3 9-6t8-6q6-6 10-12t4-12q0-7-4-14-5-9-24-18t-42-17q-4-1-8-5t-7-4q-1 0-3-1t-2 0q-4 0-7 1t-8 0q-7 0-13-5t-12-6q-39-14-39-40 0-15 11-33v1q2-3 5-3t5-2q3-4 3-10t3-8q7-9 15-18 18-20 41-38t45-33 41-19q20-7 48-15t55-7q23 0 40 9t21 31q1 4 1 7t0 6q0 20-10 36t-22 28-18 21q-2 3-5 5t-7 6q-2 2-6 5t-8 6-10 8-11 7q-1 1-4 1-5 0-9-4t-4-8q0-3 2-8t8-10l1 0q0 0 7-2t15-7q3-3 7-8t10-12q1-1 3-5t4-7q6-8 10-19t10-20v0q2-4 2-8 0-8-4-18t-8-18-13-6q-21 3-45 6t-41 9q-14 5-29 13t-29 18q-3 3-7 3t-6 3q-3 3-7 8t-7 7q-26 23-43 47t-17 43q0 13 8 22t26 14q17 5 37 12t40 16 32 18 18 18q3 7 3 13 0 15-14 29t-35 24-46 19-49 13-42 4m278-29q-1 0-6-2t-10-5-7-2h0q-7 0-10-4t-3-10-2-10q-2-6-2-13 0-22 15-52t41-59q18-20 37-32t33-13q8-1 17 4t12 5h0q14 0 19 9t5 18q0 8-3 15-4 5-11 5-10 0-13-6-3-8-13-12t-18-5-18 8-20 18q-30 31-42 58t-12 43q0 2 0 4t1 3v1q0 3 6 7t15 3q13-2 22-5t23-11q1 0 5-2t9-6 6-2q5-3 6-3t3-2 10-6q9-6 14-6 4 0 4 2 0 2-4 6t-11 10q-10 6-16 10t-11 6-11 10l-1 0q-1 0-5 2t-8 4-5 2q-2 2-10 5t-17 7-14 3m132-7q-5-1-5-11 0-16 10-35 3-4 5-7t2-8q0-3 3-10t7-13 7-13 3-6q1-3 2-6t1-3q5-8 12-19t18-25h-1q7-12 13-20t11-13q16-16 36-16 13 0 13 11 0 9-12 19-4 4-9 8t-9 8q-4 4-11 13t-16 22q-1 1-6 7t-8 12-6 12 2 4q7-10 34-29 12-8 19-16t15-13q3-1 6-3t6-6h1q13-7 29-16t32-19q2-1 4 0 23-8 31-8t9 7q0 2-2 8t-4 11-9 6h-22q-17 6-36 13t-38 22h-1q-73 49-110 103 0 2-2 6t-3 8q-8 13-21 15m320-213h-1q-4 0-6-4t-1-6q-1-2-1-5t-1-6q0-4 1-8t5-5q12-6 20-8t13-3q7 0 10 5t2 11q0 2 0 4t0 4q-2 7-10 9t-14 5q-3 2-8 4t-9 3m-110 215q-2 0-3-3-1-4-3-7t-1-9q0-7 3-20t11-41q7-20 12-33t12-24v0q1-2 4-4t4-3h0q1-1 0-3t0-4q0-6 3-10t8-7q4-4 13-9t20-7q1 0 3 0t3 0q8 0 13 3t6 8q1 1 2 2t1 4-2 5-7 8q-2 3-7 6t-9 8q-5 5-9 11t-9 11q-3 5-7 9t-8 9q-2 2-3 7t-5 9q-3 5-8 7t-6 7v0q-3 4-6 10t-6 12q-5 10-6 14t-2 8q0 3 1 4t1 5q-2 4-6 11t-7 6m19 138q-6 0-7-4v1q-1-4-2-6t-1-6q0-4 1-11t7-17q3-8 10-20t13-24q3-9 12-27t22-39 23-43 21-36 12-21v1q1-2 4-4t5-3q0-2 0-5t1-5v0q2-5 5-8t7-6q4-4 13-9t22-7h-1q2-1 5-1 7 0 7 6 0 2-2 5t-2 6q0 2-2 3t-1 4q15-11 35-22t43-18q21-6 33-6 12 0 19 6 13 10 13 29 0 4-1 9t-2 11q-1 4-2 7t-3 9q-7 14-19 27t-27 27q-2 2-3 4t-3 6q-3 2-8 5t-6 4q-14 11-36 24t-53 21h0q-9 1-20 3t-21 2q-11 0-20-4t-11-14q-6 12-13 24t-9 15q-2 2-6 10t-7 15-6 12h0q-3 4-4 10t-3 13q-4 10-5 16t-1 9-1 8q-2 4-11 9t-14 5m124-146q9 0 21-3 17-4 29-7t21-10q8-5 16-12 2-2 8-7t7-8q5-4 9-8t8-8q3-4 9-12t13-17 12-20 4-19q0-9-6-13-3-2-7-4t-7-1q-7 0-18 4-11 3-16 4t-9 2-13 6q-2 2-9 8t-8 6h0q-4 2-12 8t-12 9q-3 2-8 6t-7 6q-10 8-16 19t-16 22q-1 0-4 7t-7 15-4 8q-2 2-2 6 0 2 1 4t1 4q2 2 8 3t14 2m212 9q-5 0-6-4-2-5-5-10t-1-15q0 0 2-6t4-10q3-6 5-12t6-17q2-5 5-15t8-19v0q8-13 16-27t17-26q-3 2-7 3-6 2-12 4t-11 3q-7 0-9-5t-2-5v-1q0-5 0-12t8-10h0q1 0 3 0t3 1q2-1 5-3t7-2h0q9 0 18-1t16-2q3-4 6-8t2-4q0-3 3-8t5-6q1-3 4-6t4-4v-1q0-1 0-3v-4q0-3 1-6t3-4q3-4 5-9t9-9q5-3 9-3 7 0 10 6t6 9q0 2 5 4t5 6q0 4-6 10-2 2-7 7t-9 10q-4 3-13 16 8 0 17-2t17-2q3 0 9-2t11-1q2 0 3 2t2 5q-2 3-9 5t-9 3q-2 0-10 2t-18 3-12 2q-3-1-6 3t-7 4q-3 4-6 6t-6 5q-6 10-11 16t-6 10q-3 3-7 9t-9 13-7 9q-2 3-7 10t-7 10q-3 3-4 6t-4 8v-1q-3 5-6 12t-4 14q0 2-1 5t0 6q0 6 1 11t1 10q0 7-6 12t-11 5m171-199v0t0 1l0-1" />
</svg>