<svg id="x" viewBox="0 0 2224 1000" xmlns="http://www.w3.org/2000/svg">
<style>.f {display: none;}.f:target {display: block;}</style>
<path id="xanh-mono" class="f" d="M90 667h-82v-17h36l63-165-66-171h-36v-17h107v17h-35l50 131 51-131h-28v-17h79v17h-35l-59 152 71 184h36v17h-110v-17h38l-55-144-55 144h30v17m252 5q-27 0-43-17t-16-41q0-22 11-37t29-25 33-17l51-24v-48q0-25-15-39t-39-14q-22 0-36 11t-19 20q11 12 17 19t6 17q0 8-6 16t-17 7q-11 0-18-8t-6-19 6-25 17-27 30-21 43-8q26 0 42 10t22 27 7 34v162q0 21 15 21 9 0 15-8t7-15l9 3q-1 10-7 20t-15 18-22 8q-15 0-26-10t-10-31q-4 9-13 18t-22 16-30 7m-28-69q0 19 12 33t32 14q13 0 23-6t17-14 9-15v-92l-47 24q-12 5-22 12t-18 17-6 27m319 64h-126v-14l42-4v-226h-51v-12l51-7 22-12h12v40h2q4-9 12-18t22-16 30-6q24 0 38 15t15 45v198h42v17h-76v-212q0-40-35-40-14 0-25 6t-16 16-9 19v193l50 4v14m250 0h-126v-17h42v-327h-51v-12l51-7 22-12h12v140h2q4-9 12-18t22-16 30-6q24 0 38 15t15 45v198h42v17h-76v-212q0-40-35-40-14 0-25 6t-16 16-9 19v194h30v0h20v17m447 0h-79v-17h30v-336h-30v-17h49l72 312 73-312h56v17h-32v336h32v17h-93v-17h27v-246l-61 263h-15l-61-263v246h32v17m295 5q-25 0-43-12t-31-32-18-45-6-51q0-27 6-52t18-45 31-32 43-11 44 11 30 32 19 45 6 52q0 26-6 51t-19 45-30 32-44 12m0-16q32 0 48-27t16-72v-50q0-47-16-73t-48-26-47 26-16 73v50q0 46 16 72t47 27m258 11h-126v-14l42-4v-226h-51v-12l51-7 22-12h12v40h2q4-9 12-18t22-16 30-6q24 0 38 15t15 45v198h42v17h-76v-212q0-40-35-40-14 0-25 6t-16 16-9 19v193l50 4v14m242 5q-25 0-43-12t-31-32-18-45-6-51q0-27 6-52t18-45 31-32 43-11 44 11 30 32 19 45 6 52q0 26-6 51t-19 45-30 32-44 12m0-16q32 0 48-27t16-72v-50q0-47-16-73t-48-26-47 26-16 73v50q0 46 16 72t47 27" />
</svg>