<svg id="y" viewBox="0 0 7594 1000" xmlns="http://www.w3.org/2000/svg">
<style>.f {display: none;}.f:target {display: block;}</style>
<path id="yaldevi" class="f" d="M153 667h-38v-145l-114-239h41l62 131q11 23 19 45t18 43h-11q9-23 18-44t20-43l63-132h40l-118 239v145m279-58l11 3q-8 20-22 33t-30 20-33 7q-24 0-43-10t-30-29-11-47q0-37 32-60t87-24q13 0 26 1t24 3v27q-13-2-24-3t-26-1q-30 0-47 8t-26 20-7 29q0 27 14 41t39 14q13 0 28-7t24-23 10-40v-105q0-30-15-44t-39-13q-17 0-36 6t-38 18l-14-28q21-14 46-21t47-7q25 0 44 10t31 28 12 49v139q0 21 5 30t21 10q2 0 4 0t5-1l1 28q-5 1-10 2t-9 0q-27 0-39-15t-12-48m121 3v-358h37v354q0 17 6 25t18 8q5 0 11-1t13-4l1 30q-8 3-16 4t-16 2q-24 0-39-15t-15-45m292-358h36v358q0 18 5 25t20 5l1 28q-20 4-34-1t-20-18-7-35v-23h15q-12 40-37 60t-56 19q-29 0-52-17t-36-47-13-72q0-33 8-63t24-50 38-34 51-12q23 0 44 6t39 17l-25 22q-13-7-29-11t-27-3q-27 0-46 16t-28 45-10 65q0 35 10 59t25 36 34 12q19 0 34-9t26-30 10-50v-298m224 418q-36 0-64-17t-43-51-15-81q0-44 14-77t40-51 59-18q37 0 59 17t33 49 10 73v14h-194l0-29 157-1q0-18-4-34t-11-30-20-21-31-8q-34 0-54 32t-19 86q0 56 24 86t64 30q18 0 35-5t36-14l11 26q-22 12-44 18t-43 6m225-44l88-246h37l-104 285h-33l-102-285h39l86 246h-11m208 39h-37v-285h37v285m-18-338q-12 0-19-8t-8-21q0-13 8-21t19-8q11 0 19 8t7 21-7 21-19 8" />
<path id="yanone-kaffeesatz" class="f" d="M180 317l-76 233-23-1-78-226q-1-3 1-5t12-1 33 0l20 68q4 12 8 28t8 31 6 28 3 18q0-6 3-18t6-28 8-31 8-28l17-61q1-4 3-5t12-2 29 0m-108 350v-171h41v163q0 4-2 5t-10 2-29 1m196 5q-14 0-27-3t-22-10-16-22-6-41 5-43 15-25 22-11 24-3q8 0 19 1t18 5q0 0 0-7t0-16 0-16q0-12-4-19t-10-9-17-2q-19 0-37 3t-29 8q-4-6-5-12t-1-11q0-4 1-8t5-6q6-4 27-9t49-4q32 0 47 13t15 48v26q0 29-1 57t0 54-2 45q-10 6-28 11t-42 6m4-34q8 0 16-3t10-6q1-8 1-22t1-29 0-29q-5-3-12-4t-11-1q-8 0-15 2t-12 7-8 15-3 27q0 13 2 22t7 13 11 6 13 2m110 29v-238q10-5 23-9t28-6 28-2q26 0 42 6t22 22 6 39v180q0 4-2 5t-10 2-30 1v-176q0-24-5-34t-24-10q-9 0-19 2t-19 7v203q0 4-2 5t-10 2-28 1m260 5q-19 0-34-5t-24-18-15-40-5-67q0-69 22-100t61-30q26 0 43 11t26 39 9 78q0 70-21 101t-62 31m1-35q11 0 19-8t14-28 5-60q0-40-4-61t-12-27-20-7q-11 0-19 8t-14 29-4 60q0 30 2 49t7 29 11 13 15 3m118 30v-238q10-5 23-9t28-6 28-2q26 0 42 6t22 22 6 39v180q0 4-2 5t-10 2-30 1v-176q0-24-5-34t-24-10q-9 0-19 2t-19 7v203q0 4-2 5t-10 2-28 1m263 5q-17 0-32-5t-26-17-16-36-6-59q0-47 8-76t20-43 28-19 33-5q31 0 47 20t16 60q0 17-1 34t-5 31q-17 4-38 5t-40 2-31 1-12 0l0-33t10 0 23 0 28-1 24-4q2-7 2-15t1-15q-1-27-7-39t-22-11q-8 0-16 5t-14 16-9 33-3 52q0 24 2 39t9 24 14 12 22 4q15 0 29-4t27-11q3 6 3 13t1 14q0 8-9 14t-26 10-34 4m331-4q-7 0-14-1t-14-1q-5-29-11-53t-12-44-15-35-18-26q-7-7-15-11t-15-6v-7l89-165q7-2 14-2t12-1q22 0 16 12l-80 140q30 22 50 70t30 120q0 5-3 7t-14 3m-146-1v-342q0-4 2-6t10-2 29 0v342q0 4-1 5t-11 2-29 1m260 5q-14 0-27-3t-23-10-16-22-6-41 6-43 15-25 21-11 25-3q8 0 18 1t19 5q0 0 0-7t0-16 0-16q0-12-4-19t-11-9-16-2q-20 0-38 3t-29 8q-3-6-4-12t-1-11q0-4 1-8t4-6q7-4 27-9t49-4q33 0 47 13t15 48v26q0 29 0 57t-1 54-2 45q-10 6-27 11t-42 6m4-34q8 0 15-3t11-6q1-8 1-22t0-29 1-29q-5-3-12-4t-12-1q-8 0-15 2t-11 7-8 15-3 27q0 13 2 22t7 13 10 6 14 2m160 29h-33v-216h-34q0-16 0-23t3-9 7-2h24v-31q0-29 8-46t20-27 27-13 29-3q23 0 35 6t12 15q0 5-2 11t-3 11q-9-4-18-5t-17-1q-10 0-19 2t-16 6-11 15-4 26v34h45q0 16-1 23t-2 9-6 2h-36v208q0 0-2 4t-6 4m127 0h-32v-216h-35q0-16 1-23t2-9 8-2h24v-31q0-29 7-46t21-27 27-13 29-3q23 0 34 6t12 15q0 5-1 11t-3 11q-9-4-18-5t-18-1q-10 0-19 2t-16 6-11 15-4 26v34h45q0 16 0 23t-3 9-5 2h-37v208q0 0-1 4t-7 4m149 5q-17 0-32-5t-25-17-17-36-5-59q0-47 7-76t20-43 29-19 32-5q32 0 48 20t16 60q0 17-2 34t-4 31q-17 4-38 5t-40 2-32 1-12 0l1-33t9 0 23 0 28-1 25-4q1-7 2-15t0-15q0-27-6-39t-22-11q-9 0-17 5t-13 16-10 33-3 52q0 24 3 39t8 24 15 12 21 4q15 0 30-4t27-11q2 6 3 13t1 14q0 8-10 14t-25 10-35 4m180 0q-17 0-32-5t-25-17-17-36-5-59q0-47 7-76t20-43 29-19 32-5q32 0 48 20t16 60q0 17-2 34t-4 31q-17 4-38 5t-40 2-32 1-12 0l1-33t9 0 23 0 28-1 25-4q1-7 2-15t0-15q0-27-6-39t-22-11q-9 0-17 5t-13 16-10 33-3 52q0 24 3 39t8 24 15 12 21 4q15 0 30-4t27-11q2 6 3 13t1 14q0 8-10 14t-25 10-35 4m162 0q-27 0-44-7t-17-19q0-4 1-11t6-12q11 6 23 9t27 3q19 0 29-8t11-23q0-10-4-19t-16-20l-48-41q-17-14-23-28t-6-25q0-18 9-31t27-21 46-7q26 0 39 5t18 11 6 12q0 10-9 20-11-7-23-10t-26-3q-18 0-29 6t-11 18q0 7 4 14t16 17l47 38q16 15 23 29t6 33q0 33-22 51t-60 19m182 0q-14 0-27-3t-22-10-16-22-6-41 5-43 15-25 22-11 24-3q8 0 19 1t18 5q0 0 0-7t0-16 0-16q0-12-4-19t-10-9-17-2q-19 0-37 3t-29 8q-4-6-5-12t-1-11q0-4 1-8t5-6q6-4 27-9t49-4q32 0 47 13t15 48v26q0 29-1 57t0 54-2 45q-10 6-28 11t-42 6m4-34q8 0 16-3t10-6q1-8 1-22t1-29 0-29q-5-3-12-4t-11-1q-8 0-15 2t-12 7-8 15-3 27q0 13 2 22t7 13 11 6 13 2m178 34q-21 0-31-10t-13-26-3-39v-145h-34q0-16 0-24t2-9 6-2h26v-76q0-8 3-11t12-3 25 0v90h51q0 15 0 23t-2 9-6 3h-43v145q0 11 1 20t4 14 13 6q9 0 15-2t14-6q1 4 2 9t1 12q0 9-7 13t-16 7-20 2m195-5h-123t-4-5-3-15q0-5 1-8t2-8l98-180h-52q-14 0-26 1t-19 1q-1-6-2-11t0-8q0-9 3-13t10-4h127t2 3 3 9q0 3-1 8t-4 12l-94 180h44q21 0 33-2t19-3q1 3 1 9t1 9q-1 12-4 18t-12 7" />
<path id="yantramanav" class="f" d="M158 554v113h-43v-116l-111-204h50l83 162 84-162h49l-112 207m202 118q-37 0-57-19t-19-53 27-53 75-19h47v-24q0-21-13-33t-34-12-35 11-14 25h-41l0-1q-2-27 25-48t67-21 64 21 25 59v114q0 28 6 48h-45q-5-23-5-36-13 19-32 30t-41 11m-33-71h0q0 16 10 25t31 9 40-11 25-28v-39h-48q-26 0-42 13t-16 31m213 66v-238h38l3 35q25-40 71-40 39 0 60 23t20 70v150h-43v-150q0-31-12-44t-38-13q-19 0-33 8t-23 25v174h-43m269-238v-57h44v57h45v33h-45v144q0 30 25 30 8 0 16-3l6 30q-12 9-33 9-28 0-43-17t-15-49v-144h-38v-33h38m185 68v170h-43v-238h39l4 35q21-40 59-40 9 0 16 3l-6 40-22-1q-33 0-47 31m179 175q-37 0-57-19t-19-53 27-53 75-19h47v-24q0-21-13-33t-34-12-35 11-14 25h-41l0-1q-2-27 25-48t67-21 64 21 25 59v114q0 28 6 48h-45q-5-23-5-36-13 19-32 30t-41 11m-33-71h0q0 16 10 25t31 9 40-11 25-28v-39h-48q-26 0-42 13t-16 31m256-110v176h-43v-238h38l4 31q24-36 72-36t65 44q25-44 73-44 37 0 58 26t20 75v142h-43v-143q0-34-12-49t-35-15-37 15-16 39v153h-44v-143q0-33-12-49t-36-15q-38 0-52 31m417 181q-37 0-56-19t-20-53 28-53 75-19h47v-24q0-21-13-33t-35-12-35 11-13 25h-41l-1-1q-1-27 25-48t67-21 65 21 24 59v114q0 28 6 48h-44q-5-23-5-36-13 19-32 30t-42 11m-32-71h0q0 16 10 25t31 9 40-11 25-28v-39h-48q-26 0-42 13t-16 31m212 66v-238h39l3 35q25-40 70-40 40 0 60 23t21 70v150h-43v-150q0-31-12-44t-38-13q-19 0-33 8t-24 25v174h-43m324 5q-37 0-57-19t-20-53 28-53 75-19h47v-24q0-21-13-33t-35-12-35 11-13 25h-41l-1-1q-1-27 25-48t67-21 65 21 24 59v114q0 28 6 48h-44q-5-23-5-36-13 19-32 30t-41 11m-33-71h0q0 16 10 25t31 9 40-11 25-28v-39h-48q-26 0-42 13t-16 31m187-172h45l56 168 4 16h1l4-16 55-168h44l-87 238h-33l-89-238" />
<path id="yarndings-12" class="f" d="M49 310l93 175 93-175h48l-119 218v139h-45v-137l-119-220h49m378 84q49 0 73 22t23 68v183h-32l-8-38h-2q-12 14-24 24t-28 14-38 5q-24 0-44-9t-30-26-11-45q0-40 32-62t97-23l45-2v-16q0-33-14-46t-41-13q-21 0-40 6t-36 14l-13-33q17-9 41-16t50-7m53 142l-40 1q-50 2-69 16t-19 40q0 22 13 33t36 10q34 0 56-19t23-57v-24m251-142q8 0 16 0t16 3l-6 40q-6-1-14-2t-15-1q-15 0-29 6t-25 18-18 29-6 37v143h-44v-268h36l5 49h2q9-15 21-28t27-19 34-7m211 0q48 0 72 23t25 75v175h-44v-172q0-32-14-48t-46-16q-44 0-61 25t-17 72v139h-44v-268h35l7 36h2q9-14 22-23t30-14 33-4m275 278q-50 0-80-35t-30-104 30-104 80-35q21 0 37 5t27 14 19 20h3q0-6-2-19t-1-20v-107h44v380h-35l-7-36h-2q-8 11-19 20t-28 15-36 6m7-37q42 0 59-23t18-70v-8q0-50-17-77t-61-27q-35 0-53 28t-18 76q0 48 18 75t54 26m205-236h44v268h-44v-268m23-101q10 0 17 7t8 21q0 14-8 21t-17 7q-11 0-19-7t-7-21q0-14 7-21t19-7m235 96q48 0 73 23t24 75v175h-43v-172q0-32-15-48t-45-16q-45 0-62 25t-17 72v139h-44v-268h36l6 36h3q9-14 22-23t29-14 33-4m275 0q27 0 48 10t36 30h3l6-35h35v272q0 38-13 64t-40 39-67 13q-29 0-54-5t-43-12v-41q19 10 45 16t54 5q35 0 54-20t20-55v-11q0-6 1-17t1-16h-2q-14 21-35 31t-48 10q-52 0-82-37t-29-102q0-64 29-102t81-37m6 37q-22 0-38 12t-24 35-8 56q0 49 18 75t53 27q21 0 35-6t24-16 14-29 5-41v-11q0-36-9-59t-25-33-45-10m381 162q0 26-13 43t-37 27-57 9q-28 0-48-5t-36-12v-40q16 8 39 14t46 7q34 0 49-11t15-28q0-10-6-18t-20-16-40-18q-26-10-45-20t-28-24-10-36q0-34 27-53t73-18q25 0 46 4t40 14l-15 35q-17-7-36-12t-38-5q-27 0-41 8t-14 24q0 11 6 19t22 15 41 17q25 10 43 20t28 24 9 36m330-283v357h-43v-250q0-14 0-24t1-19 1-18q-8 8-14 13t-17 14l-38 31-23-29 97-75h36m369 317v40h-236v-37l93-94q27-27 46-48t28-42 9-44q0-29-17-45t-46-15q-26 0-46 9t-40 25l-23-29q14-12 30-22t37-15 42-5q34 0 58 11t37 33 13 51q0 28-11 52t-32 48-48 51l-75 74v2h181" />
<path id="yarndings-12-charted" class="f" d="M49 310l93 175 93-175h48l-119 218v139h-45v-137l-119-220h49m378 84q49 0 73 22t23 68v183h-32l-8-38h-2q-12 14-24 24t-28 14-38 5q-24 0-44-9t-30-26-11-45q0-40 32-62t97-23l45-2v-16q0-33-14-46t-41-13q-21 0-40 6t-36 14l-13-33q17-9 41-16t50-7m53 142l-40 1q-50 2-69 16t-19 40q0 22 13 33t36 10q34 0 56-19t23-57v-24m251-142q8 0 16 0t16 3l-6 40q-6-1-14-2t-15-1q-15 0-29 6t-25 18-18 29-6 37v143h-44v-268h36l5 49h2q9-15 21-28t27-19 34-7m211 0q48 0 72 23t25 75v175h-44v-172q0-32-14-48t-46-16q-44 0-61 25t-17 72v139h-44v-268h35l7 36h2q9-14 22-23t30-14 33-4m275 278q-50 0-80-35t-30-104 30-104 80-35q21 0 37 5t27 14 19 20h3q0-6-2-19t-1-20v-107h44v380h-35l-7-36h-2q-8 11-19 20t-28 15-36 6m7-37q42 0 59-23t18-70v-8q0-50-17-77t-61-27q-35 0-53 28t-18 76q0 48 18 75t54 26m205-236h44v268h-44v-268m23-101q10 0 17 7t8 21q0 14-8 21t-17 7q-11 0-19-7t-7-21q0-14 7-21t19-7m235 96q48 0 73 23t24 75v175h-43v-172q0-32-15-48t-45-16q-45 0-62 25t-17 72v139h-44v-268h36l6 36h3q9-14 22-23t29-14 33-4m275 0q27 0 48 10t36 30h3l6-35h35v272q0 38-13 64t-40 39-67 13q-29 0-54-5t-43-12v-41q19 10 45 16t54 5q35 0 54-20t20-55v-11q0-6 1-17t1-16h-2q-14 21-35 31t-48 10q-52 0-82-37t-29-102q0-64 29-102t81-37m6 37q-22 0-38 12t-24 35-8 56q0 49 18 75t53 27q21 0 35-6t24-16 14-29 5-41v-11q0-36-9-59t-25-33-45-10m381 162q0 26-13 43t-37 27-57 9q-28 0-48-5t-36-12v-40q16 8 39 14t46 7q34 0 49-11t15-28q0-10-6-18t-20-16-40-18q-26-10-45-20t-28-24-10-36q0-34 27-53t73-18q25 0 46 4t40 14l-15 35q-17-7-36-12t-38-5q-27 0-41 8t-14 24q0 11 6 19t22 15 41 17q25 10 43 20t28 24 9 36m330-283v357h-43v-250q0-14 0-24t1-19 1-18q-8 8-14 13t-17 14l-38 31-23-29 97-75h36m369 317v40h-236v-37l93-94q27-27 46-48t28-42 9-44q0-29-17-45t-46-15q-26 0-46 9t-40 25l-23-29q14-12 30-22t37-15 42-5q34 0 58 11t37 33 13 51q0 28-11 52t-32 48-48 51l-75 74v2h181m357-283q-28 0-51 10t-39 28-25 46-8 60q0 44 13 77t41 50 69 17q23 0 44-4t41-10v39q-20 8-41 11t-51 4q-54 0-91-23t-55-64-18-97q0-41 11-74t33-58 54-38 74-13q27 0 53 5t45 16l-18 38q-16-8-37-14t-44-6m201-57v111q0 10-1 20t-1 18h3q8-14 21-23t29-14 33-5q33 0 54 10t33 32 11 56v175h-43v-172q0-32-15-48t-45-16q-30 0-47 11t-25 33-7 53v139h-44v-380h44m367 107q49 0 72 22t24 68v183h-32l-9-38h-2q-11 14-24 24t-28 14-38 5q-24 0-43-9t-30-26-11-45q0-40 31-62t97-23l46-2v-16q0-33-15-46t-41-13q-21 0-40 6t-35 14l-14-33q18-9 42-16t50-7m52 142l-39 1q-50 2-70 16t-19 40q0 22 14 33t35 10q34 0 57-19t22-57v-24m252-142q7 0 16 0t15 3l-5 40q-7-1-15-2t-14-1q-16 0-30 6t-25 18-17 29-6 37v143h-44v-268h36l5 49h2q8-15 20-28t28-19 34-7m171 242q10 0 20-2t17-4v34q-7 3-20 5t-25 3q-21 0-39-8t-28-25-11-50v-156h-38v-21l38-18 18-57h26v62h77v34h-77v155q0 24 11 36t31 12m194-242q35 0 59 15t38 42 14 64v26h-184q1 46 23 69t63 24q25 0 45-5t41-13v38q-21 9-41 13t-47 5q-38 0-68-16t-45-46-16-75q0-44 14-76t42-48 62-17m0 36q-32 0-50 20t-22 56h137q0-23-7-40t-22-27-36-9m274 242q-50 0-80-35t-30-104 30-104 80-35q21 0 37 5t27 14 19 20h3q0-6-2-19t-1-20v-107h44v380h-35l-7-36h-2q-8 11-19 20t-28 15-36 6m7-37q42 0 59-23t18-70v-8q0-50-17-77t-61-27q-35 0-53 28t-18 76q0 48 18 75t54 26" />
<path id="yarndings-20" class="f" d="M49 310l93 175 93-175h48l-119 218v139h-45v-137l-119-220h49m378 84q49 0 73 22t23 68v183h-32l-8-38h-2q-12 14-24 24t-28 14-38 5q-24 0-44-9t-30-26-11-45q0-40 32-62t97-23l45-2v-16q0-33-14-46t-41-13q-21 0-40 6t-36 14l-13-33q17-9 41-16t50-7m53 142l-40 1q-50 2-69 16t-19 40q0 22 13 33t36 10q34 0 56-19t23-57v-24m251-142q8 0 16 0t16 3l-6 40q-6-1-14-2t-15-1q-15 0-29 6t-25 18-18 29-6 37v143h-44v-268h36l5 49h2q9-15 21-28t27-19 34-7m211 0q48 0 72 23t25 75v175h-44v-172q0-32-14-48t-46-16q-44 0-61 25t-17 72v139h-44v-268h35l7 36h2q9-14 22-23t30-14 33-4m275 278q-50 0-80-35t-30-104 30-104 80-35q21 0 37 5t27 14 19 20h3q0-6-2-19t-1-20v-107h44v380h-35l-7-36h-2q-8 11-19 20t-28 15-36 6m7-37q42 0 59-23t18-70v-8q0-50-17-77t-61-27q-35 0-53 28t-18 76q0 48 18 75t54 26m205-236h44v268h-44v-268m23-101q10 0 17 7t8 21q0 14-8 21t-17 7q-11 0-19-7t-7-21q0-14 7-21t19-7m235 96q48 0 73 23t24 75v175h-43v-172q0-32-15-48t-45-16q-45 0-62 25t-17 72v139h-44v-268h36l6 36h3q9-14 22-23t29-14 33-4m275 0q27 0 48 10t36 30h3l6-35h35v272q0 38-13 64t-40 39-67 13q-29 0-54-5t-43-12v-41q19 10 45 16t54 5q35 0 54-20t20-55v-11q0-6 1-17t1-16h-2q-14 21-35 31t-48 10q-52 0-82-37t-29-102q0-64 29-102t81-37m6 37q-22 0-38 12t-24 35-8 56q0 49 18 75t53 27q21 0 35-6t24-16 14-29 5-41v-11q0-36-9-59t-25-33-45-10m381 162q0 26-13 43t-37 27-57 9q-28 0-48-5t-36-12v-40q16 8 39 14t46 7q34 0 49-11t15-28q0-10-6-18t-20-16-40-18q-26-10-45-20t-28-24-10-36q0-34 27-53t73-18q25 0 46 4t40 14l-15 35q-17-7-36-12t-38-5q-27 0-41 8t-14 24q0 11 6 19t22 15 41 17q25 10 43 20t28 24 9 36m413 34v40h-236v-37l93-94q27-27 46-48t28-42 9-44q0-29-17-45t-46-15q-26 0-46 9t-40 25l-23-29q14-12 30-22t37-15 42-5q34 0 58 11t37 33 13 51q0 28-11 52t-32 48-48 51l-75 74v2h181m287-139q0 43-6 77t-21 58-37 36-55 13q-40 0-66-22t-39-64-13-98q0-58 12-99t38-63 68-22q40 0 67 22t39 63 13 99m-193 0q0 49 7 81t24 49 43 16 43-16 24-49 8-81-8-82-24-48-43-16-43 16-24 48-7 82" />
<path id="yarndings-20-charted" class="f" d="M49 310l93 175 93-175h48l-119 218v139h-45v-137l-119-220h49m378 84q49 0 73 22t23 68v183h-32l-8-38h-2q-12 14-24 24t-28 14-38 5q-24 0-44-9t-30-26-11-45q0-40 32-62t97-23l45-2v-16q0-33-14-46t-41-13q-21 0-40 6t-36 14l-13-33q17-9 41-16t50-7m53 142l-40 1q-50 2-69 16t-19 40q0 22 13 33t36 10q34 0 56-19t23-57v-24m251-142q8 0 16 0t16 3l-6 40q-6-1-14-2t-15-1q-15 0-29 6t-25 18-18 29-6 37v143h-44v-268h36l5 49h2q9-15 21-28t27-19 34-7m211 0q48 0 72 23t25 75v175h-44v-172q0-32-14-48t-46-16q-44 0-61 25t-17 72v139h-44v-268h35l7 36h2q9-14 22-23t30-14 33-4m275 278q-50 0-80-35t-30-104 30-104 80-35q21 0 37 5t27 14 19 20h3q0-6-2-19t-1-20v-107h44v380h-35l-7-36h-2q-8 11-19 20t-28 15-36 6m7-37q42 0 59-23t18-70v-8q0-50-17-77t-61-27q-35 0-53 28t-18 76q0 48 18 75t54 26m205-236h44v268h-44v-268m23-101q10 0 17 7t8 21q0 14-8 21t-17 7q-11 0-19-7t-7-21q0-14 7-21t19-7m235 96q48 0 73 23t24 75v175h-43v-172q0-32-15-48t-45-16q-45 0-62 25t-17 72v139h-44v-268h36l6 36h3q9-14 22-23t29-14 33-4m275 0q27 0 48 10t36 30h3l6-35h35v272q0 38-13 64t-40 39-67 13q-29 0-54-5t-43-12v-41q19 10 45 16t54 5q35 0 54-20t20-55v-11q0-6 1-17t1-16h-2q-14 21-35 31t-48 10q-52 0-82-37t-29-102q0-64 29-102t81-37m6 37q-22 0-38 12t-24 35-8 56q0 49 18 75t53 27q21 0 35-6t24-16 14-29 5-41v-11q0-36-9-59t-25-33-45-10m381 162q0 26-13 43t-37 27-57 9q-28 0-48-5t-36-12v-40q16 8 39 14t46 7q34 0 49-11t15-28q0-10-6-18t-20-16-40-18q-26-10-45-20t-28-24-10-36q0-34 27-53t73-18q25 0 46 4t40 14l-15 35q-17-7-36-12t-38-5q-27 0-41 8t-14 24q0 11 6 19t22 15 41 17q25 10 43 20t28 24 9 36m413 34v40h-236v-37l93-94q27-27 46-48t28-42 9-44q0-29-17-45t-46-15q-26 0-46 9t-40 25l-23-29q14-12 30-22t37-15 42-5q34 0 58 11t37 33 13 51q0 28-11 52t-32 48-48 51l-75 74v2h181m287-139q0 43-6 77t-21 58-37 36-55 13q-40 0-66-22t-39-64-13-98q0-58 12-99t38-63 68-22q40 0 67 22t39 63 13 99m-193 0q0 49 7 81t24 49 43 16 43-16 24-49 8-81-8-82-24-48-43-16-43 16-24 48-7 82m549-144q-28 0-51 10t-39 28-25 46-8 60q0 44 13 77t41 50 69 17q23 0 44-4t41-10v39q-20 8-41 11t-51 4q-54 0-91-23t-55-64-18-97q0-41 11-74t33-58 54-38 74-13q27 0 53 5t45 16l-18 38q-16-8-37-14t-44-6m201-57v111q0 10-1 20t-1 18h3q8-14 21-23t29-14 33-5q33 0 54 10t33 32 11 56v175h-43v-172q0-32-15-48t-45-16q-30 0-47 11t-25 33-7 53v139h-44v-380h44m367 107q49 0 72 22t24 68v183h-32l-9-38h-2q-11 14-24 24t-28 14-38 5q-24 0-43-9t-30-26-11-45q0-40 31-62t97-23l46-2v-16q0-33-15-46t-41-13q-21 0-40 6t-35 14l-14-33q18-9 42-16t50-7m52 142l-39 1q-50 2-70 16t-19 40q0 22 14 33t35 10q34 0 57-19t22-57v-24m252-142q7 0 16 0t15 3l-5 40q-7-1-15-2t-14-1q-16 0-30 6t-25 18-17 29-6 37v143h-44v-268h36l5 49h2q8-15 20-28t28-19 34-7m171 242q10 0 20-2t17-4v34q-7 3-20 5t-25 3q-21 0-39-8t-28-25-11-50v-156h-38v-21l38-18 18-57h26v62h77v34h-77v155q0 24 11 36t31 12m194-242q35 0 59 15t38 42 14 64v26h-184q1 46 23 69t63 24q25 0 45-5t41-13v38q-21 9-41 13t-47 5q-38 0-68-16t-45-46-16-75q0-44 14-76t42-48 62-17m0 36q-32 0-50 20t-22 56h137q0-23-7-40t-22-27-36-9m274 242q-50 0-80-35t-30-104 30-104 80-35q21 0 37 5t27 14 19 20h3q0-6-2-19t-1-20v-107h44v380h-35l-7-36h-2q-8 11-19 20t-28 15-36 6m7-37q42 0 59-23t18-70v-8q0-50-17-77t-61-27q-35 0-53 28t-18 76q0 48 18 75t54 26" />
<path id="yatra-one" class="f" d="M0 333l63 15 86 135 82-149 69 14-108 197 1 136-70-14v-138l-123-196m349 158h0l-27-45q35-9 77-17t54-8 44 33 45 49q4 6 4 40t-2 79 0 59l-62-14 0-26q-40 41-66 41-24-1-61-46t-37-64q0-16 21-29t51-20 54-11 40-6l1-13q0-24-26-26-24-2-101 21h0l-1 1h0-1l0 0h-1 0l-1 1h0-1l0 0h-1 0-1l0 1h-1 0l-1 0m25 126q4 7 17 9t37-7 55-31l1-44q-132 39-110 73m246-154h-26l-15-35h41v-54l61 14v40h61l15 35h-76v63q0 6 0 17 0 13 0 27t1 25 5 22 8 16 15 8 21-3 31-15l13 15q-29 27-48 37-15 9-42-3t-46-31-19-35v-143m197-35l63 14v37q36-58 62-58 12 0 42 13t49 26l-34 50q-31-23-54-25t-36 9-29 36v151l-63-14v-239m268 63h0l-27-45q35-9 77-17t54-8 44 33 45 49q4 6 4 40t-2 79 0 59l-62-14 0-26q-40 41-66 41-24-1-61-46t-37-64q0-16 21-29t51-20 54-11 40-6l1-13q0-24-26-26-24-2-101 21h0l-1 1h0-1l0 0h-1 0l-1 1h0-1l0 0h-1 0-1l0 1h-1 0l-1 0m25 126q4 7 17 9t37-7 55-31l1-44q-132 39-110 73m635-236q-50-33-99 3-39 30-57 87-20 63 4 108 11 23 34 37 50 30 99-7 39-31 56-88 19-63-7-108-11-20-30-32m78 24q19 19 29 44t9 51-9 54-22 50-34 41-43 28-50 8-53-16q-4-3-15-8t-14-8-13-8-14-9-14-11-17-13-18-17q-18-18-27-42t-8-51 9-53 22-50 34-43 41-29 47-11 49 13q65 35 111 80m95 23l65 14v20q44-41 78-39 16 1 56 39t43 53q2 13 2 166l-62-14q3-171-3-181-9-17-30-11t-43 25-41 41v140l-65-14v-239m349 139l114-77q-36-23-62-17t-38 31-14 63m51 20l-39 28q14 17 31 21t37-5 32-17 31-23l10 10q9 10 19 21l10 10q-44 32-74 42t-59 0q-43-16-81-58-23-25-26-59t8-64 38-50 57-21q20 0 59 26t65 50q0 2-40 31t-78 58" />
<path id="yellowtail" class="f" d="M397 327l14 1 9-1q4 0 10 4t5 6q-1 5-58 98-176 290-194 327 9-10 20-19t12-9 3 1 2 4-2 4-16 19-19 24-11 16-9 11-9 4q-15 0-25-13t-10-22q0-17 73-133t128-195q-128 151-204 198-27 17-43 17-8 0-16-5t-12-11-3-26 15-52 41-73q43-69 80-118-32 29-53 29-10 0-13-3t-8-8-5-14 2-11 5-6q8-9 11-10t6-1 3 1-2 3-3 3 3 2 7-2 10-5 13-6 16-10 17-9 17-12 16-11q9-5 15-3t9 3 6 2 5 3q7 5 7 13t-7 16-31 45-54 82-54 86-23 51q0 4 2 4t14-10q66-50 167-158 83-89 98-110 5-6 9-9t14-2m119 157q0 16-13 28t-30 13q-5 0-7-3t-2-7 1-8q-9 3-19 9t-27 18-15 18q0 2 5 2t18-4 17-4 6 1q3 1 7 7t3 9-6 9-14 8-11 4q-52 29-52 40 0 19 33 19 21 0 42-13 17-12 32-23t18-15 6-2q6 0 6 14t-2 19-10 11q-52 42-98 42-25 0-40-7-28-12-28-38 0-33 47-51-9-4-12-10t-3-21 14-30 32-27q43-23 77-23 8 0 16 4t9 11m193-184q11 0 20 7t9 21-15 43-36 59-48 65q-43 54-82 97 0 3-2 11t-2 16 8 15 18 6 24-8 22-17q24-25 30-25t6 18v4q0 10-4 14-20 26-46 38t-48 12-35-14-12-38q0-48 25-112t58-110q72-102 110-102m-11 41q0-4-3-4-8 0-45 49t-52 78-31 73q29-34 80-107t51-89m140-41q11 0 20 7t9 21-15 43-36 59-48 65q-43 54-82 97 0 3-2 11t-2 16 8 15 18 6 24-8 21-17q25-25 31-25t6 18v4q0 10-4 14-20 26-46 38t-49 12-35-14-11-38q0-48 25-112t58-110q72-102 110-102m-11 41q0-4-3-4-8 0-45 49t-52 78-31 73q29-34 80-107t51-89m103 140q7 0 15 6t8 20-10 36-26 43-37 42-42 33-42 12-30-12-12-33 11-46 26-46 36-35q39-32 69-32 14 0 21 7 2 2 2 4v1q4 0 11 0m-25 32h-1q-9 0-9-12-18 5-37 20t-35 35q-31 40-32 67 0 14 10 14t30-13 39-38 29-42 10-24-4-7m296-28l-3-11q0-10 7-16t17-6q21 0 21 26 0 19-19 52t-43 64-54 54-44 23-21-9-7-16 1-14q3-24 13-46-26 34-56 61t-50 28q-10 0-16-6t-6-20 17-53 32-62q-5 3-9 3t-10-4-5-8 4-8 28-25 33-20 18 3 8 10-34 70-34 69q0 0 1 0 5 0 51-52t72-86q4-6 11-6l2 0 14-2q3 0 6 2t3 5-9 17-28 59-19 61q0 5 3 5 9 0 38-34t48-64 19-44m180-131l11-2 10 3q2 0 4 2t2 4-5 10-12 20-8 12q19-2 27-2t11 1 7 6 7 8 3 8-6 8-14 5q-56 5-62 6-20 30-56 94t-37 80q-1 7-1 12 0 10 10 10t22-8 22-17q28-24 30-24 6 0 6 22 0 12-11 21-25 21-41 32t-34 11q-4 0-7-1-19-3-29-14t-9-29 11-44 27-54q26-48 53-89l-10 1q-28 3-33 3h-2q-7 0-14-3t-6-7 3-8 5-6q1-5 12-12t17-7 11 0 12-1 10 0l22-1q20-31 28-40t9-9 5-1m137 127q18 0 18 13 0 7-3 10t-13 21-23 46-17 48q0 2 0 6 0 14 7 14t17-7 18-15 15-16 9-10 5-1q4 0 5 7t1 15-1 10q-7 14-31 34t-44 19-29-12-9-26 5-26q-21 27-47 45t-43 18-27-10q-13-12-13-34t10-45 26-41 35-33q41-32 75-32 13 0 21 5t11 11q6-9 10-12t12-2m-33 27q-41 0-86 47-16 16-29 39t-14 32 5 9q7 0 38-27t42-40q11-14 44-60m209-109q0 13-13 28t-27 14-14-15 12-28 28-13q6 0 10 3t4 11m-39 213q0 7-2 10-12 25-38 40t-45 15-34-13-14-27 14-39 27-47 13-24-5-7-5-8 10-13 25-22 22-10 14 7 6 12-58 106q-1 1-4 6t-5 8-4 8q-5 10-5 17 0 8 11 8t23-8 21-17q23-24 26-24 7 0 7 22m184-312q12 0 20 7t9 21-15 43-36 59-48 65q-43 54-82 97 0 3-2 11t-2 16 8 15 18 6 24-8 22-17q24-25 30-25t6 18v4q0 10-4 14-20 26-46 38t-48 12-35-14-12-38q0-48 25-112t58-110q72-102 110-102m-11 41q0-4-3-4-8 0-44 49t-53 78-31 73q29-34 80-107t51-89" />
<path id="yeon-sung" class="f" d="M101 574v-72q-7-12-16-29t-18-32-18-32-16-24q-4-5-8-10t-7-9-5-7 0-6q2-4 9-4t14 2 15 7 12 7q7 7 15 18t17 25 17 25 13 22q3-6 12-18t18-25 19-24 16-20q7-8 17-14t19-8 17-3 11 4q1 2-1 5t-6 8-8 9-6 7q-7 11-19 27t-23 33-23 35-18 29q0 7 0 21t-1 32-1 33-1 24q-1 9-3 20t-10 21q-3 4-8 8t-11 7-12 3-10-2q-3-2-3-6t1-8 3-8 2-6q3-19 4-38t1-27m259 98q-26 0-45-12t-31-29-17-39-1-43q3-23 12-42t25-32 35-20 44-5q20 2 33 11t22 20 13 23 5 18q5 4 8 10t4 9q-2 8-21 12-7 1-25 3t-38 4-39 3-30 1q-1 9 0 21t6 23 15 18 27 8q11 1 24-1t18-5q19-6 27-10t12 0q3 3-1 13t-18 23q-15 11-33 15t-31 3m51-151q-1-8-6-16t-11-13-15-9-19-1q-9 2-17 7t-12 13-9 16-5 17q27-4 49-8t45-6m70 43q0-24 8-45t25-38 38-27 49-9q22 0 40 9t31 26 20 36 8 43q0 22-9 44t-23 40-36 28-46 11q-24 0-44-9t-33-25-21-37-7-47m119-76q-17 0-31 6t-24 17-17 25-5 30q0 13 4 25t14 24 20 17 27 6 28-7 23-19 15-26 6-30q0-12-4-24t-12-22-19-16-25-6m187-1v1q3-5 9-9t12-7 15-5 13-1q41 0 61 26t21 81q0 13-1 26t-2 26 1 27 7 25q1 3 3 7t3 7 2 7-3 5q-2 2-6 1t-8-1-9-3-6-3q-9-6-15-17t-7-25-3-28-1-28q0-16-1-31t-6-26-13-20-21-9q-10-1-22 1t-21 13q0 27-1 54t-1 56q-1 15-4 27t-9 21-12 15-12 5q-4 0-5-10t-1-23 1-27 1-21q0-30 0-63t-1-70q-7-4-13-11t-8-15q0-2 0-5t0-6 2-6 4-2 6 1 6 2q4 2 9 4t10 4 9 5 8 4q5 4 7 8t2 13m326-56q0-22 8-39t22-29 33-17 41-5q24 1 42 8t29 18q4 3 8 9t7 11 3 12-4 8q-3 3-8 3t-10-2-9-3-7-4q-11-9-25-14t-26-6q-15 0-26 3t-20 9-11 14-4 16q0 14 11 24t24 16q14 6 29 12t30 14 29 17 23 20 17 27 6 35q0 16-7 31t-20 28-32 21-42 8q-18 1-37-3t-35-13-28-24-14-34q-1-8 0-14t5-12 6-7 8-3 7 4 6 8 4 10 3 6q5 12 13 20t18 13 21 7 19 2q11-1 22-4t18-10 13-16 5-20q0-13-10-25t-25-23-32-19-34-15q-28-11-46-30t-18-43m303 91v27q0 16 0 30t5 25 11 19 21 9q9 1 18-1t17-6q2 0 7-3t11-4l7-2v-151q-7-4-12-11t-7-15q-1-2-1-5t1-6 1-6 4-2 6 1 7 2q7 3 17 8t18 9q4 4 6 8t3 13v170q0 7 1 13t5 12q3 7 5 13t-1 8q-1 2-5 2t-8-1-9-2-7-3q-12-6-19-17-1-2-2-4t-1-3l-7 6q-10 10-26 17t-34 7q-34 0-55-25t-22-79q0-11 0-25t0-27-1-28-5-25q-1-3-3-7t-3-7-1-7 3-5q2-2 6-2t8 2 9 3 6 3q8 5 13 12t8 18 4 20 1 22m250-35v1q3-5 8-9t13-7 14-5 14-1q40 0 61 26t21 81q0 13-2 26t-1 26 1 27 6 25q2 3 3 7t4 7 1 7-2 5q-2 2-6 1t-9-1-9-3-6-3q-9-6-14-17t-8-25-3-28 0-28q0-16-2-31t-6-26-13-20-21-9q-9-1-22 1t-21 13q0 27 0 54t-2 56q0 15-4 27t-9 21-11 15-13 5q-4 0-5-10t-1-23 1-27 1-21q0-30 1-63t-2-70q-7-4-13-11t-7-15q-1-2-1-5t1-6 1-6 4-2 6 1 7 2q3 2 8 4t10 4 10 5 8 4q4 4 6 8t3 13m299 196l-78-17q-15-3-23-8t-12-11-4-11-1-6q0-7 4-15t9-13 11-12 12-7q-15-11-25-26t-10-29q0-11 5-25t15-25 29-19 44-9q10 0 19 3t18 9q6-12 18-21t29-13q3-1 10-2t9 2 2 6 0 10-2 9-2 6q-3 2-8 5t-12 7-13 5-12 4q9 9 12 22t3 25q-1 15-8 28t-17 22-26 15-33 5q-6 0-8-1-7 0-14 3t-12 8-8 9-3 8q0 5 7 8t15 4l71 10q22 3 36 10t23 18 11 20 3 20q0 18-7 33t-20 27-33 17-49 7-48-7-30-18-17-21-4-21q-1-11 4-23t11-19q5-6 10-10t9-2 2 7-2 14q-1 6-2 11t3 14q0 2 2 7t9 11 19 9 34 5q24 0 37-5t21-11 9-13 2-12q0-8-9-17t-35-14m-42-116q22-2 35-14t13-27q0-17-12-27t-32-9q-7 0-14 1t-14 5-11 10-4 16q-1 7 3 11t9 9q11 7 19 13t8 12" />
<path id="yeseva-one" class="f" d="M98 667v-8l30-7v-115l-103-205-25-8v-7h63q26 0 41 11t26 31l74 148 76-168-37-15v-7h95v7l-40 15-88 193v120l30 7v8h-142m360 7q-64 0-100-35t-35-97q0-41 15-71t43-46 64-16 63 14 42 36 15 50q0 13-2 22l-3 8q-21 5-46 8-53 7-106 7 0 58 16 83t44 25q19 0 36-10t26-24 10-31h13q0 20-12 38t-34 28-49 11m-50-132q32 0 52-3 8 0 18-2 0-3 2-11 3-13 3-27 0-41-11-61t-27-19q-37 0-37 123m312 132q-31 0-55-13-12-7-20-14-8 11-17 17-5 3-10 5h-13v-85h20q7 21 19 39 27 39 66 39 21 0 32-11t11-29q0-17-15-28t-46-28q-27-13-44-24t-29-27-11-38q0-30 25-49t80-19q26 0 49 14 11 7 19 14 6-9 17-17 9-5 10-6h13v85h-20q-8-21-19-38-25-39-59-39-14 0-23 10t-10 25q0 19 16 31t49 30q26 13 42 23t27 26 11 35q0 72-115 72m288 0q-64 0-100-35t-35-97q0-41 15-71t43-46 64-16 63 14 42 36 15 50q0 13-2 22l-3 8q-21 5-46 8-53 7-106 7 0 58 16 83t44 25q19 0 36-10t26-24 10-31h13q0 20-12 38t-34 28-49 11m-50-132q32 0 52-3 8 0 18-2 0-3 2-11 3-13 3-27 0-41-11-61t-27-19q-37 0-37 123m315 130l-125-240-25-8v-7h62q26 0 41 10t27 32l59 116 56-136-38-15v-7h93v7l-40 15-95 233h-15m237 2q-44 0-68-19t-24-48q0-20 8-39 4-9 9-16 21-5 45-9 54-9 95-11v-15q0-56-13-77t-42-21q-10 0-18 3l-7 2v75l-6 2q-8 1-14 1-17 0-27-11t-10-27q0-23 23-39t69-16q39 0 67 14t43 38 15 56v135l30 7v8h-45q-30 0-46-19-7-7-11-19-7 13-17 23-22 22-56 22m20-17q19 0 34-20 5-8 11-20v-73q-23 0-44 3-15 2-21 2-2 6-5 15-5 19-5 38 0 28 9 41t21 14m490 17q-49 0-86-21t-56-62-20-99 20-99 56-63 86-21 86 21 57 63 20 99-20 99-57 62-86 21m0-10q20 0 36-16t28-55 11-101-11-101-28-55-36-17-36 17-28 55-11 101 11 101 28 55 36 16m205 3v-8l30-7v-220l-30-8v-7h45q30 0 47 19 6 7 11 18 7-13 16-22 23-23 56-23 28 0 50 12t35 31 13 40v160l30 7v8h-65q-45 0-45-45v-130q0-32-12-49t-26-16q-19 0-34 20-6 8-11 20v185l30 7v8h-140m468 7q-64 0-100-35t-35-97q0-41 15-71t43-46 64-16 63 14 42 36 15 50q0 13-2 22l-3 8q-21 5-46 8-53 7-106 7 0 58 16 83t44 25q19 0 36-10t26-24 10-31h13q0 20-12 38t-34 28-49 11m-50-132q32 0 52-3 8 0 18-2 0-3 2-11 3-13 3-27 0-41-11-61t-27-19q-37 0-37 123" />
<path id="yesteryear" class="f" d="M144 912q-8-8-14-15t-14-14-13-14-15-15q10-30 22-61t26-64 32-72 41-82q-11 16-21 29t-17 21q-8 9-15 17-19 18-34 31t-25 21-20 12-15 5q-6 0-11-4t-12-9-10-11-8-10q-7-8-7-21t-1-30q0-28 5-59t13-62 21-62 28-59 34-54 37-44q5 5 12 12t13 14 13 15 10 12q-20 19-38 43t-34 50-27 56-20 58-13 59-4 57q27-13 49-33t42-42 34-49 28-51 23-51 18-47 14-41 11-30q3 3 7 9t9 11 10 13 9 12 7 9 5 6q-13 30-26 61t-26 65-27 73-30 89-35 110-41 136m318-317l12 12q-23 22-42 36t-38 24-35 13-32 4q-7 0-15-5t-15-11-11-15-5-13q0-20 5-37t15-30 21-24 24-17 25-10 23-3q7 0 15 4t13 11 10 13 4 12q0 9-7 17t-20 18-30 18-39 19q-1 6-1 12 0 7 3 10t12 3q17 0 31-6t27-14 26-19 24-22m-74-49q-5 0-11 5t-12 14-11 19-9 23q9-6 18-12t15-14 11-15 4-15q0-2-1-4t-4-1m69 53q6-5 13-12t14-15 14-17 10-20q1-6 3-12t5-11 5-9 4-3q3 1 9 6t11 10 11 10 4 6q-3 11-3 20t2 18 3 18 1 23q0 8-2 18t-9 18q12-7 25-16t21-17q12-10 22-19l11 12q-8 7-18 16t-19 17-21 15-21 14-19 9-18 4q-7 0-16-4t-16-8-13-10-7-9q0-1 1-3t3-3 2-3 2-1q2 0 6 2t15 2q6 0 10-3t6-8 4-11 1-13q0-10-1-20t-2-19q-4 5-9 10t-11 11-11 10-10 9l-12-12m186 81q-4 0-11-4t-13-9-11-11-4-10q0-8 4-24t10-36 15-43 17-46h-34 0q-1 0-1 0 0-2 2-5t2-5 4-6 4-3l32-2q7-16 13-30t11-24q1-3 2-6t4-6 7-7 12-6q5-3 13-6t15-6 14-5 8-1q3 0 3 1v0q0 0-1 1-1 3-5 11t-10 20-12 28-15 34l59-2q2 0 1 3t-3 6-7 8-6 7q0 0-2 1t-3 0h-49q-8 21-16 43t-15 41-10 36-4 27q0 2 2 2 2 0 8-3t12-8 14-11 15-12 12-10 8-7q3 2 6 5t5 7q-5 5-13 13t-18 15-19 17-20 14-18 10-14 4m248-85l12 12q-22 22-42 36t-38 24-35 13-32 4q-6 0-14-5t-15-11-12-15-5-13q0-20 6-37t14-30 21-24 24-17 25-10 23-3q8 0 15 4t14 11 10 13 3 12q0 9-6 17t-20 18-31 18-39 19q-1 6-1 12 0 7 4 10t12 3q16 0 30-6t28-14 25-19 24-22m-74-49q-4 0-10 5t-12 14-11 19-10 23q9-6 18-12t16-14 11-15 4-15q0-2-2-4t-4-1m185 20q-3 9-8 21t-9 24-8 21-3 14q0 2 2 2 3 0 8-4t12-8 15-11 14-12 13-11 8-7q3 2 6 5t5 7q-5 5-13 13t-18 15-19 17-20 14-18 10-14 4q-3 0-9-2t-11-7-8-8-4-9q4-17 7-29t7-21 6-14 3-8q-3-1-5-3t-6-2q-4 4-8 8t-10 10-10 9-9 8l-11-12q6-6 15-15t17-17q-6-4-11-7t-8-6q-4-3-7-6-2-1-2-3 0-3 2-8t6-10 7-12 7-11 6-8 3-3q0 0 3 1t6 3 6 4 3 3q1 1 1 5t0 10q10 5 20 11t18 12q10 6 19 13 3 2 4 4t0 6m241 28l11 12q-22 20-45 37t-47 34q-3 11-7 22t-11 26q-7 16-16 32t-19 29-21 24-21 20-20 13-18 4q-4 0-10-3t-10-7-9-10-4-9q0-16 9-31t22-29 35-30 42-32q7-19 14-39t13-40q-11 13-20 23t-18 17-15 11-9 7q-2 1-5 2t-5 0q-4 0-10-3t-10-7-8-9-4-10q0-5 4-17t9-29 14-38 18-44q0-2 1-1t1 0q5 0 13 3t15 7 14 7 5 5q0 1-3 8t-8 15-8 19-8 20-7 17-2 12q0 1 1 1 2 0 7-5t15-14 19-24 23-35q5-17 8-26t4-10q1 0 7 4t13 9 13 10 5 7q0 1 0 2t-1 3q-6 17-10 30t-7 26-6 21-5 19q18-14 36-27t36-29m-216 226q5 0 13-8t16-22 19-29 16-32q-9 8-21 17t-21 20-17 24-7 27q0 3 2 3m371-225l12 12q-22 22-42 36t-38 24-34 13-33 4q-6 0-14-5t-15-11-12-15-4-13q0-20 5-37t15-30 20-24 24-17 25-10 23-3q8 0 15 4t14 11 10 13 4 12q0 9-7 17t-20 18-31 18-39 19q-1 6-1 12 0 7 4 10t12 3q16 0 30-6t28-14 25-19 24-22m-74-49q-4 0-10 5t-12 14-11 19-10 23q10-6 18-12t16-14 11-15 4-15q0-2-2-4t-4-1m212 99q0 2 1 2 3 0 8-4t11-8 14-11 15-12 12-10 8-8q3 2 6 6t6 7q-6 5-14 13t-18 16-19 16-20 15-18 10-15 4q-4 0-9-2t-10-4-7-8-3-9q0-2 0-5t0-7 2-11 4-16q-8 9-18 18t-23 17-24 15-23 11q-1 0-2 0t-1 0q-3 0-7-2t-7-7-7-9-3-10q0-2 1-10t7-21 17-29 29-33q9-8 20-16 10-6 22-13t25-10q0 0 1-1t1 1q3 1 7 3t8 4 7 5 4 4q0 0 0 0l-1 1q-11 6-20 13t-18 13q-8 8-16 15-18 18-25 31t-6 18q0 4 3 4t9-3 11-7 15-11 16-14q8-6 15-13 6-6 13-14t11-15q0 0 0 0t1 0q3 2 6 6t6 10 5 10 3 8q-6 12-9 21t-5 16-2 12 0 8m180-79q-4 9-8 21t-10 24-7 21-3 14q0 2 1 2 3 0 9-4t12-8 14-11 15-12 12-11 9-7q2 2 5 5t6 7q-5 5-13 13t-18 15-19 17-20 14-18 10-14 4q-4 0-9-2t-11-7-9-8-4-9q4-17 8-29t7-21 5-14 4-8q-3-1-6-3t-5-2q-4 4-9 8t-9 10-10 9-9 8l-12-12q7-6 16-15t17-17q-6-4-11-7t-8-6q-4-3-8-6-1-1-1-3 0-3 2-8t5-10 7-12 7-11 6-8 3-3q1 0 4 1t6 3 6 4 3 3q0 1 1 5t0 10q10 5 20 11t18 12q10 6 18 13 4 2 4 4t1 6" />
<path id="yomogi" class="f" d="M229 325q-30 90-96 198l0 123q-1 17-11 16-10 0-10-16v-125q-69-114-95-194-4-15 7-20 10-4 14 9 24 76 83 175 60-90 87-177 5-13 16-10 10 4 5 21m157 102q29-1 52 18 24 19 35 54 11 35 2 76-9 42-39 68-31 26-70 21-40-4-63-28-23-23-30-62-7-37 6-76 12-38 41-56 28-19 66-15m7 20q-39-3-62 13-24 15-33 47-10 32-5 62 2 16 8 28t15 23q17 19 50 22 32 3 59-18 25-21 31-55t-3-64-26-42q-7-5-16-10t-18-6m147-18l0 64q5-24 17-38 13-12 30-12 9 1 15 4t12 11q10 15 15 45 2-13 6-25t11-19q13-17 38-14 27 3 40 38 15 36 9 173 0 11-11 12-11 0-10-18 5-103-6-141-12-39-28-40-16-1-26 30-6 16-10 55t-4 103q-12 21-22-3-1-56-2-93t-5-55q-6-37-24-37-18 0-29 39-12 40-13 82-1 21-2 37t0 29q-11 22-22 4l-1-227q1-17 11-17 11 1 11 13m346-2q29-1 52 18 24 19 35 54 11 35 2 76-9 42-39 68-31 26-70 21-40-4-63-28-23-23-30-62-7-37 6-76 12-38 41-56 28-19 66-15m7 20q-39-3-62 13-24 15-33 47-10 32-5 62 2 16 8 28t15 23q17 19 50 22 32 3 59-18 25-21 31-55t-3-64-26-42q-7-5-16-10t-18-6m297 12q1-14 9-15 8 0 10 13 2 53 1 98t-5 83q-10 77-59 91-50 13-86-25-9-12-3-19t16 3q29 31 68 19t43-92q-16 14-34 20-20 5-43 2-24-3-45-23-21-22-26-58-5-36 11-69 16-33 42-43 27-12 52-8 26 4 49 23m-11 33q-12-23-25-30-12-5-27-6-15 0-32 9-16 9-28 34-12 25-8 53 4 29 18 43 15 17 37 20 20 3 39-6 18-9 24-23 7-14 10-43 2-27-8-51m209-112q-17 12-35 0t-17-31 15-28q14-10 32-3 18 7 21 28 2 22-16 34m-10 60l2 214q-4 16-16 15-12-1-10-15l-2-214q1-16 13-16 12 1 13 16" />
<path id="young-serif" class="f" d="M260 292h125q7 0 7 7v15q0 8-7 8-17 0-33 11t-30 37l-77 130q-2 4-2 10v79q0 20 7 34t26 14h4q7 0 7 7v15q0 8-7 8h-154q-8 0-8-8v-15q0-7 8-7h3q19 0 26-14t8-34v-77q0-4-3-9l-90-133q-17-25-29-37t-28-11q-8 0-8-8v-15q0-7 8-7h173q8 0 8 7v15q0 8-8 8-13 0-24 5t-11 18q0 11 9 25l58 93 54-93q11-20 11-32 0-16-23-16-7 0-7-8v-15q0-7 7-7m208 118q28 0 52 11t42 31 27 43 10 49q0 37-17 66t-46 46-62 17q-29 0-53-11t-42-30-27-43-10-50q0-37 17-66t46-46 63-17m21 223q10 0 21-5t20-18 9-34q0-18-7-39t-18-41-28-33-34-12q-20 0-35 15t-15 42q0 17 6 38t19 41 28 33 34 13m400-209v142q0 13 1 25t8 22 20 10q4 1 5 2t1 5v16q0 7-7 7-25 0-41 3t-28 7-23 9q-2 1-4 1h-1q-1 0-1-1t1-16 7-47q-7 14-20 29t-30 25-41 10q-27 0-44-8t-25-22-13-31-3-35v-83q0-20-9-34t-28-13h-2q-7 0-7-8v-15q0-7 7-7h102q7 0 7 7v156q0 13 3 24t10 18 23 7q13 0 25-6t22-16 14-20v-93q0-20-9-34t-27-13h-1q-8 0-8-8v-15q0-7 8-7h100q8 0 8 7m335 80v85q0 28 9 38t23 10h4q8 0 8 7v15q0 8-8 8h-133q-7 0-7-8v-15q0-7 7-7h4q10 0 17-10t6-38v-85q0-24-7-37t-29-13q-12 0-25 6t-22 16-14 21v92q0 20 9 34t23 14h1q8 0 8 7v15q0 8-8 8h-140q-8 0-8-8v-15q0-7 8-7h1q18 0 27-14t9-34v-63q0-13-2-26t-8-21-20-10q-5-1-5-7v-17q0-5 7-6 36-6 61-17t36-19q3-2 4-2h1q1 0 1 1t-1 4l-8 62q7-12 18-25t29-23 39-10q27 0 44 8t26 22 12 30 3 34m268-94l36-8q2-1 4-1 3 0 3 8 0 24-10 38t-26 13q12 20 12 46 0 27-13 48t-38 35-59 13q-35 0-60-14-7 5-7 12t6 13 21 8 46 5q22 1 43 5t37 11 26 22 10 36q0 21-11 35t-29 23-40 12-44 4q-31 0-57-6t-41-20-16-35q0-16 9-28t21-19q-25-16-25-45 0-17 8-29t23-18q-30-27-30-68 0-26 13-48t38-35 59-13q21 0 38 5t31 15q3 1 4 1t3 1q4 0 7-3t2-10v-2q0-6 6-7m-91 30q-19 0-30 11t-15 25-4 30 4 30 15 26 30 10 29-10 13-26 4-30-4-30-13-25-29-11m-2 300q37 0 57-7t20-19q0-16-21-21t-59-7q-27-2-47-6-14 9-14 26 0 8 6 15t19 13 39 6m589-344l-17 9q-2 1-3 1t-3 1q-4 0-9-6-32-40-63-57t-64-18q-20 0-34 11t-14 33q0 18 11 30t30 20 37 13q29 8 56 18t51 24 36 33 13 48q0 34-17 61t-50 41-78 15q-23 0-43-6t-38-14q-4-2-7-2-5 0-5 5 0 1 1 5 2 4 2 6 0 6-9 6h-25q-9 0-12-7l-61-114q-2-4-2-6 0-5 6-8l22-13q1-1 3-1t3-1q5 0 8 6 34 52 75 77t85 25q32 0 50-15t17-37q0-22-11-35t-34-21-59-19q-24-7-48-17t-44-24-31-34-12-47q0-33 17-54t45-32 65-10q28 0 47 7t30 13q9 5 12 5 2 0 2-3 0-3-1-7t-1-10q0-7 9-7h18q9 0 12 8l35 90q1 2 2 3t0 4q0 4-5 7m270 118l-145 63q8 21 27 38t48 16q16 0 33-9t31-28q1-2 4-2t5 1 15 9q2 1 2 4 0 3-3 8-14 26-38 43t-63 16q-41 0-71-18t-47-49-16-67q0-34 10-59t28-40 38-23 43-7q25 0 44 10t32 25 20 31 7 32q0 4-4 6m-151 32l80-40q0-24-11-40t-29-15q-21 0-33 16t-12 41q0 7 1 18t4 20m291-77q14-29 38-44t50-15q24 0 40 13t17 39q0 11-2 19t-11 13l-47 19q-3 1-5 1-4 0-4-5 0-1 1-4 3-7 3-14t1-11q0-14-7-20t-16-6q-12 0-22 7t-17 17-11 19v92q0 20 9 34t27 14h1q8 0 8 7v15q0 8-8 8h-145q-8 0-8-8v-15q0-7 8-7h1q18 0 27-14t9-34v-63q0-13-2-26t-7-21-20-10q-6-1-6-7v-17q0-5 7-6 36-6 62-18t37-19q1-1 2-1h1q1 0 1 1 0 1-1 8t-3 17-4 22-4 20m307 168h1q8 0 8 7v15q0 8-9 8h-141q-9 0-9-8v-15q0-7 8-7h1q18 0 27-14t9-34v-53q0-11-2-23t-8-20-20-10q-6 0-6-6v-17q0-3 2-5t6-2q39-13 60-27t32-24q1-1 2-1h1q1 0 1 1v187q0 20 9 34t28 14m-70-340q13 0 25 12t13 25-13 25-25 13q-12 0-25-13-13-12-13-25 0-12 13-25t25-12m149 120v-4q0-23 6-48t18-48 34-36 55-14q40 0 59 15t20 38q0 13-5 25-2 3-5 6t-8 3q-9 2-21 5t-22 5-11 2q-3 0-3-5 0-2 1-5 10-19 10-33t-8-22-16-7q-12 0-21 11-9 11-13 31t-3 48v33h67q8 0 8 7v22q0 7-8 7h-67v136q0 20 9 34t28 14q8 0 8 7v15q0 8-8 8h-141q-7 0-7-8v-15q0-7 7-7 19 0 28-14t9-34v-85q0-14-2-27t-9-22-26-8q-7 0-7-8v-15q0-7 7-7h37" />
<path id="yrsa" class="f" d="M150 569h-28l-89-154q-3-6-11-9l-23-5v-19h111v19l-33 7 73 133h-14l69-133-34-7v-19h93v19l-22 5q-4 1-7 3t-5 6l-80 154m51 98h-131v-19l35-6q10-2 10-11v-78h41v78q0 9 10 11l35 6v19m148-148l-2-13q7-12 18-24t27-20 32-8q5 0 12 1t13 4q1 15-1 34t-4 36h-19l-5-29q-2-6-5-8t-8-3q-14 0-30 7t-28 23m2-59l5 46v127q0 11 11 12l36 4v18h-118v-19l22-3q10-2 10-12v-135q0-11-10-13l-25-3v-18q15-4 31-7t32-3l6 6m135 196q-2-15-2-29t2-27h21l8 28q2 11 8 15 5 3 15 6t23 4q19 0 29-9t10-24q0-11-7-19t-19-13-30-13q-25-10-40-23t-16-38q0-30 21-45t56-15q16 0 33 3t28 9q1 13 0 27t-4 26h-19l-6-25q-2-5-4-8t-6-6-11-5-15-2q-16-1-26 7t-11 23q0 12 7 20t18 12 23 9q17 7 32 15t24 20 9 32q0 29-22 45t-59 16q-21 0-40-5t-30-11m247 15q-25 0-42-13t-17-38q0-21 12-33t31-18 38-7l49-4v19l-43 4q-22 2-34 10t-11 26q0 13 7 21t24 7q16 0 32-7t25-19l5 10q-11 18-31 30t-45 12m-43-164l-10-9q8-21 30-32t52-11q36 0 54 18t18 56v103q0 11 11 12l21 2v17q-5 2-16 4t-19 3q-15 0-24-9t-11-25v-102q0-28-11-39t-34-11q-17 0-33 5t-28 18" />
<path id="ysabeau" class="f" d="M171 521l-24 22-133-205h45l112 183m6 146h-38v-147h38v147m126-329l-133 203-20-20 113-183h40m104 333q-15 0-29-3t-24-7-19-10l10-28q12 11 29 18t35 7q20 0 32-11t12-24q0-12-8-20t-20-13-26-10-26-11-20-18-8-27q0-20 10-33t26-19 36-7q15 0 31 4t27 11l-10 27q-9-10-24-15t-26-4q-18 0-29 8t-10 21q0 12 8 19t20 12 26 10 26 12 21 18 8 29q0 13-6 24t-15 21-24 14-33 5m284-1q-19 0-30-14t-11-40l2-94q1-16-3-26t-11-14-17-5q-10 0-22 5t-21 16-11 27l-33-4q3-14 11-26t22-21 28-14 32-4q30 0 44 16t14 46l-1 105q0 11 3 17t11 6q6 0 11-3t10-7l11 16q-6 8-17 13t-22 5m-111 0q-22 0-36-13t-14-33q0-12 5-23t17-19 34-14l83-22 3 18-77 24q-19 6-26 14t-6 17q0 12 9 18t20 7q15 0 33-10t40-25l6 12q-22 20-44 34t-47 15m277 0q-25 0-49-7t-34-19l33-18q10 10 26 15t34 6q23 0 39-11t24-29 8-41q0-26-8-45t-24-28-35-10q-19 0-39 11t-33 37l-12-16q11-18 26-31t32-20 38-7q20 0 36 6t29 20 20 31 7 42q0 30-14 56t-39 42-65 16m-50-44l-33 18v-330l33-6v318m312 45q-29 0-52-12t-35-35-13-54q0-34 14-60t39-40 55-14q37 0 55 21t19 57q0 4-1 9t0 9h-30v-18q0-27-11-41t-34-13q-22 0-39 10t-25 30-9 46q0 36 20 57t54 21q17 0 32-6t30-19l13 18q-14 13-28 20t-27 11-27 3m76-119h-157l5-22h152v22m214 118q-19 0-30-14t-10-40l2-94q0-16-4-26t-10-14-17-5q-11 0-23 5t-21 16-10 27l-33-4q2-14 11-26t21-21 29-14 31-4q30 0 44 16t14 46l-1 105q0 11 4 17t11 6q5 0 11-3t9-7l12 16q-7 8-17 13t-23 5m-110 0q-23 0-37-13t-14-33q0-12 5-23t17-19 35-14l83-22 2 18-77 24q-19 6-25 14t-6 17q0 12 8 18t21 7q15 0 33-10t40-25l5 12q-21 20-44 34t-46 15m261-1q-31 0-51-21t-19-57v-128l34-6v123q0 30 13 47t37 17q13 0 27-6t25-16 21-29l12 12q-11 22-27 36t-35 21-37 7m113-5l-29 6-6-51v-156l35-6v207" />
<path id="ysabeau-infant" class="f" d="M171 521l-24 22-133-205h45l112 183m6 146h-38v-147h38v147m126-329l-133 203-20-20 113-183h40m104 333q-15 0-29-3t-24-7-19-10l10-28q12 11 29 18t35 7q20 0 32-11t12-24q0-12-8-20t-20-13-26-10-26-11-20-18-8-27q0-20 10-33t26-19 36-7q15 0 31 4t27 11l-10 27q-9-10-24-15t-26-4q-18 0-29 8t-10 21q0 12 8 19t20 12 26 10 26 12 21 18 8 29q0 13-6 24t-15 21-24 14-33 5m215-1q-29 0-50-14t-34-36-12-52q0-32 14-57t39-40 54-15q18 0 32 6t27 17 18 28l-9 16q-10-21-27-31t-37-11q-21 0-38 11t-27 29-9 44q0 23 8 41t23 29 36 10q19 0 37-10t33-33l14 8q-11 20-25 33t-31 20-36 7m109-6l-28 6-6-47v-117l6-43 28-6v207m163 6q-25 0-48-7t-35-19l34-18q10 10 26 15t33 6q24 0 40-11t24-29 8-41q0-26-9-45t-23-28-36-10q-18 0-38 11t-34 37l-12-16q12-18 26-31t33-20 38-7q19 0 36 6t29 20 19 31 7 42q0 30-13 56t-40 42-65 16m-49-44l-34 18v-330l34-6v318m312 45q-30 0-52-12t-36-35-12-54q0-34 14-60t38-40 55-14q37 0 56 21t18 57q0 4 0 9t-1 9h-29v-18q0-27-11-41t-35-13q-22 0-38 10t-26 30-9 46q0 36 21 57t53 21q17 0 33-6t30-19l12 18q-13 13-27 20t-27 11-27 3m76-119h-157l4-22h153v22m145 118q-29 0-50-14t-34-36-12-52q0-32 14-57t39-40 54-15q18 0 32 6t27 17 18 28l-9 16q-10-21-27-31t-37-11q-21 0-38 11t-27 29-9 44q0 23 8 41t23 29 36 10q19 0 37-10t33-33l14 8q-11 20-25 33t-31 20-36 7m109-6l-28 6-6-47v-117l6-43 28-6v207m148 5q-31 0-51-21t-19-57v-128l34-6v123q0 30 13 47t37 17q13 0 27-6t25-16 21-29l12 12q-11 22-27 36t-35 21-37 7m113-5l-29 6-6-51v-156l35-6v207m258 3h-38v-329h38v329m284 0h-34v-120q0-31-13-48t-39-16q-13 0-27 5t-27 16-22 29l-11-12q11-22 28-37t36-21 37-6q22 0 38 9t25 27 9 42v132m-153 0h-34v-204l28-6 6 49v161m283 0h-34v-214q0-47 15-79t40-47 61-16q15 0 29 4t26 12l-14 26q-11-8-24-13t-28-4q-23 0-37 10t-21 27-10 35-3 36v223m80-179l-156 0 2-23 157-2-3 25m121 182q-29 0-51-14t-33-36-12-52q0-32 14-57t38-40 54-15q18 0 33 6t26 17 19 28l-10 16q-10-21-26-31t-37-11q-22 0-39 11t-26 29-10 44q0 23 8 41t24 29 36 10q18 0 37-10t32-33l14 8q-11 20-25 33t-30 20-36 7m109-6l-29 6-5-47v-117l5-43 29-6v207m264 3h-34v-120q0-31-13-48t-39-16q-13 0-27 5t-27 16-22 29l-11-12q11-22 28-37t36-21 37-6q22 0 38 9t25 27 9 42v132m-153 0h-34v-204l28-6 6 49v161m309 3q-18 0-32-7t-23-22-8-34v-137l12-54 23-5v190q0 22 10 33t27 11q11 0 22-4t22-13l10 17q-14 13-31 19t-32 6m53-207l-1 25-157 0 3-23 155-2" />
<path id="ysabeau-office" class="f" d="M171 521l-24 22-133-205h45l112 183m6 146h-38v-147h38v147m126-329l-133 203-20-20 113-183h40m104 333q-15 0-29-3t-24-7-19-10l10-28q12 11 29 18t35 7q20 0 32-11t12-24q0-12-8-20t-20-13-26-10-26-11-20-18-8-27q0-20 10-33t26-19 36-7q15 0 31 4t27 11l-10 27q-9-10-24-15t-26-4q-18 0-29 8t-10 21q0 12 8 19t20 12 26 10 26 12 21 18 8 29q0 13-6 24t-15 21-24 14-33 5m284-1q-19 0-30-14t-11-40l2-94q1-16-3-26t-11-14-17-5q-10 0-22 5t-21 16-11 27l-33-4q3-14 11-26t22-21 28-14 32-4q30 0 44 16t14 46l-1 105q0 11 3 17t11 6q6 0 11-3t10-7l11 16q-6 8-17 13t-22 5m-111 0q-22 0-36-13t-14-33q0-12 5-23t17-19 34-14l83-22 3 18-77 24q-19 6-26 14t-6 17q0 12 9 18t20 7q15 0 33-10t40-25l6 12q-22 20-44 34t-47 15m277 0q-25 0-49-7t-34-19l33-18q10 10 26 15t34 6q23 0 39-11t24-29 8-41q0-26-8-45t-24-28-35-10q-19 0-39 11t-33 37l-12-16q11-18 26-31t32-20 38-7q20 0 36 6t29 20 20 31 7 42q0 30-14 56t-39 42-65 16m-50-44l-33 18v-330l33-6v318m312 45q-29 0-52-12t-35-35-13-54q0-34 14-60t39-40 55-14q37 0 55 21t19 57q0 4-1 9t0 9h-30v-18q0-27-11-41t-34-13q-22 0-39 10t-25 30-9 46q0 36 20 57t54 21q17 0 32-6t30-19l13 18q-14 13-28 20t-27 11-27 3m76-119h-157l5-22h152v22m214 118q-19 0-30-14t-10-40l2-94q0-16-4-26t-10-14-17-5q-11 0-23 5t-21 16-10 27l-33-4q2-14 11-26t21-21 29-14 31-4q30 0 44 16t14 46l-1 105q0 11 4 17t11 6q5 0 11-3t9-7l12 16q-7 8-17 13t-23 5m-110 0q-23 0-37-13t-14-33q0-12 5-23t17-19 35-14l83-22 2 18-77 24q-19 6-25 14t-6 17q0 12 8 18t21 7q15 0 33-10t40-25l5 12q-21 20-44 34t-46 15m261-1q-31 0-51-21t-19-57v-128l34-6v123q0 30 13 47t37 17q13 0 27-6t25-16 21-29l12 12q-11 22-27 36t-35 21-37 7m113-5l-29 6-6-51v-156l35-6v207m357 7q-48 0-86-21t-59-60-22-86q0-38 13-70t37-54 55-35 68-12q48 0 85 22t59 59 22 87q0 38-14 69t-36 54-55 35-67 12m6-27q38 0 66-17t44-49 16-72q0-44-17-77t-48-51-68-18q-37 0-65 18t-44 48-16 72q0 44 17 77t48 51 67 18m285 23h-34v-214q0-47 15-79t40-47 61-16q15 0 29 4t26 12l-14 26q-11-8-24-13t-28-4q-23 0-37 10t-21 27-10 35-3 36v223m80-179l-156 0 2-23 157-2-3 25m95 179h-34v-214q0-47 14-79t41-47 60-16q16 0 30 4t26 12l-15 26q-10-8-24-13t-27-4q-23 0-37 10t-22 27-10 35-2 36v223m80-179l-157 0 3-23 156-2-2 25m85 179h-34v-205l34-5v210m-17-268q-10 0-17-7t-7-17 7-17 17-6q11 0 18 6t6 17-6 17-18 7m191 272q-30 0-54-14t-37-37-14-54q0-32 15-57t39-39 57-15q21 0 38 7t31 19l-15 27q-12-13-27-20t-31-7q-22 0-38 11t-24 29-8 42q0 24 10 43t27 28 40 10q16 0 31-6t27-18l11 20q-11 11-24 18t-27 10-27 3m216 0q-29 0-52-12t-35-35-13-54q0-34 14-60t39-40 55-14q37 0 55 21t19 57q0 4-1 9t0 9h-30v-18q0-27-11-41t-34-13q-22 0-39 10t-25 30-9 46q0 36 20 57t54 21q17 0 32-6t30-19l13 18q-14 13-28 20t-27 11-27 3m76-119h-157l5-22h152v22" />
<path id="ysabeau-sc" class="f" d="M171 521l-24 22-133-205h45l112 183m6 146h-38v-147h38v147m126-329l-133 203-20-20 113-183h40m182 270q0-14-10-23t-25-15-33-12-32-14-25-19-10-31q0-28 22-46t61-17q24 0 45 6t33 16l-14 26q-14-11-32-17t-35-6q-24 0-36 11t-11 24q0 12 9 21t25 14 33 13 32 15 25 21 10 31q0 28-24 46t-66 18q-29 0-51-9t-37-21l14-26q16 14 36 22t43 8q26 0 39-10t14-26m105 59h-36l99-233h40l100 233h-36l-90-219h10l-87 219m149-82h-135l9-25h114l12 25m213 82h-99v-233h94q34 0 54 15t20 41q0 18-10 33t-27 23-41 9l6-20q28 0 48 7t32 23 11 35q0 20-11 35t-29 23-48 9m-67-207v180h68q27 0 40-11t14-29q0-20-16-31t-50-11h-65v-26h71q21 0 32-10t11-26q0-15-11-26t-36-10h-58m257 207h-34v-233h34v233m140 0h-163v-27h163v27m-30-104h-133v-26h133v26m20-103h-153v-26h153v26m81 207h-36l99-233h40l100 233h-36l-90-219h10l-87 219m149-82h-135l9-25h114l12 25m210 85q-31 0-54-13t-36-35-13-53v-135h35v130q0 37 20 58t53 22q32 0 50-21t18-56v-133h35v127q0 33-14 57t-37 38-57 14m468-83q0-18-9-30t-23-22-31-17-34-16-31-19-23-26-8-35q0-28 13-48t36-30 52-11q21 0 43 5t39 16l-13 33q-15-12-36-19t-39-7q-21 0-35 7t-20 19-6 26q0 16 8 27t23 20 32 16 34 16 31 21 23 27 9 38q0 30-14 51t-39 32-55 11-58-10-44-24l19-31q18 17 42 27t48 9q31 0 48-15t18-41m260 84q-50 0-89-21t-59-58-21-86q0-39 13-71t36-55 56-35 69-12q28 0 53 7t48 21l-17 32q-22-16-44-24t-48-8q-38 0-67 17t-44 49-16 73q0 43 18 76t48 50 67 18q28 0 51-9t41-26l16 29q-25 16-52 25t-59 8" />
<path id="yuji-boku" class="f" d="M378 335q4 13-2 26t-14 25q-3 4-5 7t-4 8q-9 16-18 32t-22 27q-3 9-10 19t-16 15q-13 25-33 42t-41 34q-6 16-8 35t-5 39-13 31q-6 3-10 1t-7-4q-2-1-5-2t-4-2q0-14 2-32t4-36 4-34q0-4 1-7t3-6q-8-11-20-16t-20-13q-26-25-45-59t-34-71-34-71q3-2 9-1t9 7q17 23 35 47t34 50q16 26 33 51t34 49q4-2 6-6t3-9q7 0 13-3t10-7q4-3 8-6t6-1q7-10 18-19t23-18 19-21q22-20 45-43t41-47q1-1 2-4 1-3 3-5t5-2m309 142q3 11 1 24t-3 27q-2 9-3 18t-1 19q0 2-1 6t-2 7q-2 8-4 15t3 9q-1 6-3 18t-3 24-5 18q-7-1-13 0t-7 7q-12-5-17-16t-5-25q-1-9 1-21t6-24q3-17 5-32t-3-19q-7 5-10 13t-8 14-14 10q0 9-6 19t-14 19-14 19-7 19q-12 8-22 17t-27 14q-4-3-13-5t-14 1q-6-2-10-6t-11-6q-12-18-17-40t-3-46 6-42q1-6 5-11t5-12q5-14 9-30t12-28 21-17q-2 21-6 40t-7 39q-7 33-11 63t4 56q10 2 24-7t30-23 32-34 30-38 24-34 14-23q2-13 4-21t9-18q13-4 24 2t14 17q1 3 1 6t0 5q0 3-1 6t1 7m291 80q-3 7-10 11t-15 8-12 10q1 2 0 6t-4 10q-4 9-7 21t-1 24q-3 4-4 14t-3 18-7 11q-5 2-6 3t0 5q1 3 0 6t-14 6q2 7-1 8t-9 1q-6 0-13 2t-13 10q-9 6-26 8t-35 1-28-1q-8-5-11-12t-11-9q3-24 17-47t34-43 42-37 42-28 33-17q4-13 9-29t9-30q2-9 3-18t4-16 11-11q5 12 5 28t-3 32-4 26q0 3-1 5t0 4q6 6 15 12t14 8m-72 39q-18 7-39 23t-39 38-29 45q8 3 14 2t12-2q4-1 8-2t10 0q9-7 19-13t16-12 9-16q9-8 12-26t7-37m90-237q3 10 0 20t-9 17q-8 8-15 7t-15-3q-3-1-8-3t-8-1q-1-5-4-10t-3-8q-1-13 6-21t18-10 21 1q5 2 7 7t10 4m168 255q-4 9-5 20t3 16q-7 7-20 9t-24 4-22 4q-6-1-12-4t-10-5q-4-8-5-22t2-30 8-32q0-1 3-12t8-24 9-26 6-15q2-9 6-16t9-13 5-16q6-2 7-6t4-7q4 9 2 19t-3 19q0 2-1 4t0 4q1 3-3 15t-8 26q-4 13-9 27t-6 25-1 17q-1 4-2 12t-2 11q5 4 14 3t21-2 19-4q2 0 4-1t3 0m37-239q-1 3-2 7t-2 9q-2 0-5 4t-12 8-24 4q-6-3-10-9t-7-11q2-22 10-34t31-4q5-1 9 4t8 12 4 10m481 142q1 8-1 13t-7 11q-2 3-8 9t-9 8q-8 7-23 14t-33 4q0 5-1 10t0 10q0 17-2 31t-11 24q-10 2-17 7t-16 7q-18 3-38 5t-39 0-31-11q2-6-2-10t-9-8q-1 0-1 0 0-3 3-2t6-2q4 2 3 7 1 0 1 0 12 1 28 1t31 0 30-6q15-5 25-17t7-32q0-4-2-8t-2-8q-4-5-12-5t-9-3q-5 2-10 3t-9 3q-2-3-5-4t-6 2q-7-1-10-7t-3-14-4-13q5-9 10-20t13-20 18-13q7-2 13-2t12 2q4 0 7 1t7 0q7 13 11 30t7 32q1 1 8-1t15-3 10-3q10-4 12-14t7-19q-5-10-7-20t-3-18-7-17q-2-2-3-4t-4-4q0-7-4-15t-8-14q-4-7-8-14t-2-14q-7-7-13-17t-13-15q-19 21-39 49t-32 55q-5 12-11 24t-13 22q2 2 1 4-1 1-1 2t0 3q-3 3-9 14t-14 26-11 25-2 15q-1 1-4 4-3 2-5 5t0 6q-5 4-6 10t-3 10-7 10q-1 0 0 3 3 3 1 4-6 2-10 8t-7 11-12 9q-1 0-1-2 0-1-1-2 0-4 0-8t2-6 2-6 0-6q2-3 6-12t9-21 7-21 2-12q14-26 27-56t25-61q5-13 11-26t11-25q2 0 5-6t6-14 6-14 5-10q3-5 13-15t24-17 24-8q3 0 11 0t11 2q9 10 15 23t14 29q8 18 19 35t18 35q8 16 14 34t7 34m-121 34q0-5-1-16t-8-17q-3 1-9 5t-9 12 3 13q2 0 5 1t5 3q2 0 5 0 2 0 5 0t4-1m412-26q0 0-2 3-2 4-7 11t-7 16-3 14q-2 0-6 4t-6 9-3 7q-7 8-13 17t-14 18-18 12q-3 4-8 9t-11 4q-4 7-14 10t-18 4-11 7q-5-1-9-1t-7 2q-2 1-4 2t-4 1q-15-5-25-10t-16-18q2-3 1-7t-2-7q-1-5-2-10t2-6q-5-17-3-32t6-32q3-8 5-18t3-20q3-1 5-1 4-22 18-41t27-36q4 0 7-2t7-2q9-3 17-5t13 8q3-1 12-1t18 2 14 3q6 3 15 8t17 12 13 11q4 4 6 10t3 11q3 0 4 8t1 16-1 10m-39-18q-3-2-8-5t-7-7-2-10q-4 0-6-1t-3-2q-1-1-1-1-7-5-18-8t-23-4-23-5q-15 17-27 44t-16 59-3 58q3 1 5 1t6 0q2 0 4 0t5 1q1 3 4 5t4-2q6-4 17-12t20-13q1 0 4 0 5-1 11-1t8-4q-1-1-4-1-2-1-3-2t-1-3q6-2 14-10t15-18 11-9q0-5 2-9t5-7 5-9-1-8q5-2 6-5t0-7q-1-3 0-5m-101-41q-1-1-1-3t-3-1q-13 17-19 34t-14 40q1 1 2 3 0 1 1 1t3-2q2-11 8-24t13-26 10-22m432 48q-7 2-15 14t-17 29-25 27q7 9 17 20t21 23 18 20q-8 9-16 11t-15-1q-9-3-20-11t-20-18-18-13q-5 5-14 14t-21 17-21 15-18 4q-5 4-16 5t-22-3-19-12-6-21q3-1 4-4t5-3q-3-8-3-15t3-14q1-4 2-10t2-11q2 0 5-9t7-25 10-31 12-33q2 1 6-7t9-19 10-24 7-21q14-22 28-45t31-43q5 0 10-2t9-4q0 5-1 8t-3 5-3 6-1 9q-1 3-5 12t-9 20-11 15q-7 17-12 29t-11 22-10 21-10 27q-1 3-3 6t-2 5q-3 6-6 13t0 15q8-2 10-3t9-3q1-3 0-5t-3-3q-3-2-3-5 13-9 29-16t29-10q12-4 26-5t26 1 17 12q7 0 10 8t7 16m-113 76q-7-10-18-19t-19-19-12-22q-2 1-4 4t-4 8 4 5q-9 20-14 38t-11 42q1 1 4 1 3 1 6 2t2 5q8 1 19-6t22-16 19-17q2-2 3-3t3-3m73-80q-11-3-26-1t-30 8-22 11q4 4 9 12t12 14 14 10q6-4 12-11t11-15 13-6q-1-2 1-5t3-6q2-4 4-7t-1-4m363-33q3 11 1 24t-3 27q-2 9-3 18t-1 19q0 2-1 6t-2 7q-2 8-4 15t3 9q-1 6-3 18t-3 24-5 18q-7-1-13 0t-7 7q-12-5-17-16t-5-25q-1-9 1-21t6-24q3-17 5-32t-3-19q-7 5-10 13t-8 14-14 10q0 9-6 19t-14 19-14 19-7 19q-12 8-22 17t-27 14q-4-3-13-5t-14 1q-6-2-10-6t-11-6q-12-18-17-40t-3-46 6-42q1-6 5-11t5-12q5-14 9-30t12-28 21-17q-2 21-6 40t-7 39q-7 33-11 63t4 56q10 2 24-7t30-23 32-34 30-38 24-34 14-23q2-13 4-21t9-18q13-4 24 2t14 17q1 3 1 6t0 5q0 3-1 6t1 7" />
<path id="yuji-hentaigana-akari" class="f" d="M243 752q-53 0-75-45-2-5-3-15t2-20 9-17 15-4q9 2 9 10t-1 16q-1 5-2 11t1 10q4 18 18 25t31 4 33-12 22-26q8-16 11-37t6-42q2-13 3-26t5-25q-10 4-21 15t-18 15q-20 13-43 18t-47 4-41-13-28-32-7-51q1-15 4-30t9-30q2-8 4-16t4-17q1-2 1-5t2-4q3-14 6-30t3-29-6-23q-10-14-27-16t-33 5q-12 5-22 15t-18 25-10 29 2 28q4 13 12 19t20 12q5 3 12 7t13 8q-6 13-20 15t-27-6-27-22q-13-18-15-40t7-44 23-40q16-19 36-30t42-11 45 18q19 15 22 37t-3 49-14 52l0 1q-5 17-10 34t-6 31q-5 41 14 62t57 16q42-5 73-33t45-73q8-24 11-49t8-50q2-20 5-41t8-42q2-9 11-11t10 2q8 17 5 37t-7 41v1q-1 7-3 15t-2 16q-4 22-7 44t-8 42q-4 27-9 55t-9 59q-5 28-10 55t-15 50-31 36-54 13m337-63q-24-1-46-13t-35-35-14-56q0-19 2-38t7-38q0-1 0-2 4-22 6-42t0-38q-2-16-7-21t-17-3q0 0-1 0-4 1-10 0t-8-5q-4-5-2-12t8-7q15-6 29-3t25 15 12 27q3 19 0 42t-7 46v1q0 1 0 2-4 24-7 47t0 44 13 37q12 16 29 21t36 4 37-12 29-24q11-13 22-34t14-39q1-5 1-11t-1-13v0q0-5 0-10t0-9q0-8 1-17t1-19q1-7 1-14t1-13q1-4 1-7t0-7q0-1 0-3 0-5 0-14t1-19 6-15 13-4q9 2 10 21t-2 61q-1 3-1 6t0 6q0 8-1 15t-1 15q-1 11-2 20t0 19q0 26 1 53t8 45 17 23q1 1 2 1t5 1h3q6 0 13 1t8 11q0 10-7 12t-17 2-19-5-11-6q-12-8-18-26t-10-34q-5 4-8 8t-6 10q-8 11-12 15-19 19-43 28t-49 9m403-27q-15 15-37 22t-43 4-42-11-32-25-14-39q-2-34 21-63 16-21 27-27t26-1q2 10-1 16t-14 13q-7 5-10 7-22 25-20 53 1 27 21 41t56 9q23-2 36-15t21-33 10-45 4-53 4-54 9-48q-8-3-21-3t-29 1h-1-13q-2 0-5 0t-4 0q-4 0-8 0t-8 0q-62-3-36-48l3-1q15-3 17 14 0 3 1 4t1 3q21 1 52 1t62 0q19 0 32 0t17 0h4q20-1 29 1t10 9q2 9-5 12t-17 4-20 0h-1q-21-2-27 0-11 23-14 51t-4 60q-1 28-4 54t-9 48-24 39m245 9q-16 12-33 12t-31-7-27-21-17-26q-7-18-8-30t6-18l1-1q11 0 16 5t8 21q1 4 2 7t2 5q4 11 12 20t19 15 21 3 19-13q-14-13-25-35t-17-50-7-57 2-57 14-51 26-37q14-13 26-13t21 9 17 22 11 29 5 30q2 33-1 69t-11 70-21 60-30 39m4-53q13-21 20-51t11-63 1-69q0-6-3-18t-6-23-8-18-12-2q-17 10-27 33t-12 54 1 60 13 56 22 41m267 65q-3-12 2-20t12-14q1 0 1-1 7-7 10-12 20-33 30-74t16-89q-6-4-15-5t-19 0q-12 0-25-2t-20-11q-7-9-6-18t6-15 11-7 11 4 5 21q12 3 26 3t26-2q4-47-6-79t-30-36q-4-2-13 0-16 2-26-4-4-12 2-17t16-7 21 0 14 2q18 6 28 21t16 35 8 42 4 41q22 3 49 4t53 0 53-2q4 0 7 0t7 0q7-46 15-77t24-49 42-25q13 5 13 11t-6 13-14 13l0 0q-23 19-31 47t-12 63q4 5 12 6t25 0q13-1 25-1t13 11q2 9-4 12t-17 4-20 0q-2 0-3 0-9-1-17-1t-12 1q-3 34 1 71t10 72q1 5 1 10t2 11q1 2 1 3t0 5q4 21 2 31t-12 11q-7 0-12-7t-7-25-7-50q-1-9-3-27t-5-37-3-38-2-27q-22-3-49-4t-54 0-52 2q-4 0-7 0t-6 0q-7 31-14 64t-18 63-26 56q-9 15-16 23t-14 9-17-2m574-6q-31-1-60-12t-47-32-21-51q-4-48 43-83 0 0-1-1t-1-1q-2-1-4-3t-5-4q-12-8-22-19t-12-29q-2-22 11-41t37-30 54-13q24-1 48 4t45 15 33 23q5 5 9 14t6 19-2 18-18 10h-2q-6-5-8-9t1-11q2-7 1-10-2-10-13-19t-28-14-34-10-30-3q-17 0-35 6t-32 16-16 23 9 28q11 12 34 20t53 11q3 0 7-1t7 0q21-4 31 5l0 2q-2 15-13 19t-41 0q0 0-1 0-5-1-10-2t-9 0q-27 1-46 18t-19 42q-1 27 13 45t38 25 51 9q33 1 62-10t44-29q0-1 1-3t3-7q7-14 11-20t10-5q11-1 13 8t-6 26q-8 16-19 27-20 20-52 30t-68 9m202 45q-23 8-37 6t-16-12q-1-13 38-18 11-2 21-8t14-15q9-14 12-36t2-48-2-53q0-3 0-5-3-39-3-77t10-62q16-40 43-28 4 8 3 12t-11 14q-4 4-7 7t-3 9q1 8 10 18t20 20q13 13 32 34t38 45 38 47 30 40q-2-111 17-183t57-102q11-9 21 1 1 4 1 6t-1 4q0 3-4 7t-10 13q-18 21-29 53t-17 71-7 80 2 81q1 2 1 4t1 5q2 18 1 26t-10 14q-8-1-13-5t-12-18q-1-3-3-5t-2-3q-29-48-71-102t-93-108q-6 21-5 48t3 56q2 27 2 53t-4 49-17 38q-2 2-8 7t-14 11-18 9m458-31q-20-1-35-11t-23-25-8-33 10-34q0 0 1-1 2-4 8-11t12-9 15 4q5 4 2 11t-11 19q-10 13-10 17-3 23 14 36t45 10q17-2 33-12t26-25q14-21 17-51t4-63q1-27 2-55t10-53q-5 0-10-1t-10 0q-5-1-10-1t-11 0q-1 0-3 0-26-2-54-3t-51 2-37 14-11 30q2 17 20 27t43 10q6-1 12-3t10-3q13-5 20-5t12 4l0 1q1 13-8 20t-21 9-19 4q-18 1-37-4t-33-15-21-23q-10-21-7-38t16-29 31-18 37-8q32-3 71-3t80 0 80 2q7 0 13 0t13 1q1 0 4 0 9 0 18 1t10 11q2 18-43 15-2-1-8-1t-13 0-10 0q-11-1-20-1t-14 1q-9 2-14 13t-6 24-3 25q0 8 0 16t-1 16q0 4 0 8t0 8q-1 37-5 71t-19 60q-8 12-23 24t-35 20-45 5m290-12q-8-2-10-11t-1-19 2-16q0-2 0-3 4-36 14-65t21-55q-4-1-7-2t-8 0q-12-2-25-5t-15-17q-2-11 2-19t12-7q7 0 10 5t4 14q2 1 6 1 10 2 20 3t18-2q6-3 17-18t25-30q19-22 57-47t87-41q4-2 10 0t10 7q0 13-2 26t-5 26q0 2-1 5t0 4q-3 16-5 35t-1 33q3 2 8 2t16-1q16-1 23 1t8 10q1 8-4 11t-13 4-16 0h-1-1q-6-1-12-1t-10 1q-4 23-3 51t7 59q1 4 2 8t2 9q5 18 6 27t-4 14l-1 1q-10 3-15-2t-8-13-4-16q0 0 0-1-1-2-1-4t0-4q-6-24-8-57t-1-68q-13-1-32-3t-40-1-40 0q-8 1-16 1t-15 0q-11 15-21 36t-16 47-9 50q0 3 0 10 0 6-1 13t-4 11-11 3m85-199q17 2 39 2t43 0 38-3q1-8 2-18t4-20q2-16 4-31t2-30q-42 15-75 42t-57 58m356 191q-16 12-33 12t-32-7-26-21-17-26q-8-18-9-30t6-18l1-1q12 0 16 5t9 21q1 4 1 7t2 5q5 11 13 20t18 15 21 3 19-13q-14-13-24-35t-17-50-8-57 2-57 14-51 26-37q14-13 26-13t22 9 16 22 11 29 5 30q3 33 0 69t-11 70-21 60-30 39m4-53q12-21 20-51t11-63 1-69q-1-6-3-18t-6-23-9-18-11-2q-18 10-27 33t-13 54 1 60 13 56 23 41m240 91q-10-1-20-5t-16-8q-12-11-16-24t1-25 20-14l1 0q5 5 5 10t1 12q0 0 0 1-1 3-1 6t1 5q4 11 16 15t30 1q19-5 29-21t14-38 7-45q0-3 0-6t1-5 1-6 1-6q-2 1-4 3t-3 5q-1 1-3 2t-1 2q-11 11-27 20t-35 14-38 2-36-15q-49-36-44-104 3-37 24-66t53-47q31-16 68-17t76 19q48 25 42 52l-6 3q-12 0-19-6t-12-12q-3-4-6-6t-5-5q-27-17-64-17-35 0-63 15t-45 42-16 60q0 38 21 59t57 20q17-1 33-10t28-22 22-28 12-27q2-8 2-15v-6q0-19 5-27t15-5q9 3 9 11t-1 16q0 3 0 4-1 13-3 27t-4 30q-1 8-2 15t-2 15q0 4-1 8t-1 8q-3 24-8 49t-15 46-29 33-49 8m209-30q-8-2-10-11t-1-19 2-16q0-2 0-3 4-36 14-65t21-55q-4-1-7-2t-8 0q-12-2-25-5t-15-17q-2-11 2-19t12-7q7 0 10 5t4 14q2 1 6 1 10 2 20 3t18-2q6-3 17-18t25-30q19-22 57-47t87-41q4-2 10 0t10 7q0 13-2 26t-5 26q0 2-1 5t0 4q-3 16-5 35t-1 33q3 2 8 2t16-1q16-1 23 1t8 10q1 8-4 11t-13 4-16 0h-1-1q-6-1-12-1t-10 1q-4 23-3 51t7 59q1 4 2 8t2 9q5 18 6 27t-4 14l-1 1q-10 3-15-2t-8-13-4-16q0 0 0-1-1-2-1-4t0-4q-6-24-8-57t-1-68q-13-1-32-3t-40-1-40 0q-8 1-16 1t-15 0q-11 15-21 36t-16 47-9 50q0 3 0 10 0 6-1 13t-4 11-11 3m85-199q17 2 39 2t43 0 38-3q1-8 2-18t4-20q2-16 4-31t2-30q-42 15-75 42t-57 58m259 242q-23 8-38 6t-15-12q-2-13 37-18 12-2 21-8t15-15q9-14 11-36t2-48-2-53q0-3 0-5-2-39-3-77t11-62q16-40 43-28 4 8 3 12t-11 14q-4 4-7 7t-3 9q0 8 10 18t19 20q14 13 32 34t38 45 38 47 30 40q-2-111 17-183t58-102q10-9 21 1 0 4 0 6t0 4q-1 3-4 7t-11 13q-17 21-29 53t-17 71-6 80 2 81q0 2 0 4t1 5q3 18 1 26t-9 14q-9-1-13-5t-12-18q-2-3-3-5t-2-3q-29-48-71-102t-94-108q-5 21-5 48t3 56q2 27 3 53t-4 49-18 38q-1 2-7 7t-15 11-17 9m375-43q-8-2-10-11t-1-19 2-16q0-2 0-3 4-36 14-65t21-55q-4-1-7-2t-8 0q-12-2-25-5t-15-17q-2-11 2-19t12-7q7 0 10 5t4 14q2 1 6 1 10 2 20 3t18-2q6-3 17-18t25-30q19-22 57-47t87-41q4-2 10 0t10 7q0 13-2 26t-5 26q0 2-1 5t0 4q-3 16-5 35t-1 33q3 2 8 2t16-1q16-1 23 1t8 10q1 8-4 11t-13 4-16 0h-1-1q-6-1-12-1t-10 1q-4 23-3 51t7 59q1 4 2 8t2 9q5 18 6 27t-4 14l-1 1q-10 3-15-2t-8-13-4-16q0 0 0-1-1-2-1-4t0-4q-6-24-8-57t-1-68q-13-1-32-3t-40-1-40 0q-8 1-16 1t-15 0q-11 15-21 36t-16 47-9 50q0 3 0 10 0 6-1 13t-4 11-11 3m85-199q17 2 39 2t43 0 38-3q1-8 2-18t4-20q2-16 4-31t2-30q-42 15-75 42t-57 58m417 203q-8-2-10-11t-2-20 3-19q0-4 0-6 5-44 17-79t26-68q-5-1-10-2t-10-1q-10-1-20-3t-17-6-10-15q-3-14 2-22t13-7q7 0 12 6t5 18q2 1 5 1 12 2 25 4t24-3q6-3 14-13t18-21q5-7 8-10t6-6q37-37 81-61t96-45q4-1 11 0t10 7q0 15-2 30t-5 32q-4 21-7 43t0 43q4 3 10 3t20 0q12-1 23-1t13 11q1 9-5 12t-15 4-19 0q0 0-1 0-8-1-16-1t-13 1q-9 57 5 135 1 5 2 10t3 11q6 22 6 32t-4 15q-11 4-18-2t-9-14-4-19q0 0 0-1-1-2-1-5t-1-4q-6-30-9-71t-1-82q-16-2-39-4t-49-1-49 0q-9 1-19 1t-18 0q-14 17-26 44t-20 58-10 61q0 3 0 6t0 6q0 8-1 15t-5 12-13 2m99-235q22 3 48 4t54 0 48-4q2-19 5-39 3-20 5-40t2-37q-54 19-94 49t-68 67m522 225q-15-9-22-24t-8-33-1-35q0-24-2-44t-15-29q-18-15-35-2-9 6-14 7t-11-1q-9-7-9-16t7-15 18-9q48-47 89-73t86-35q19 9 12 17t-33 15q-3 1-5 2-4 2-6 2-27 12-56 33t-49 42q8 3 17 9t18 17q12 15 14 37t1 42q0 18 1 34t7 26 22 13q10 2 24-2t30-10q14-6 21-6t15 8q-1 12-8 17t-22 10q-26 8-47 10t-39-7m-221 7l-1-1q-4-7-2-14t12-18q6-7 7-9 14-22 24-52t15-64 3-71q-2-17-6-32t-13-23-23-7q-9 2-14 0t-8-4h0q-3-11 3-17t18-7 22 2 21 12q14 13 21 35t7 49-3 54-9 52-13 41q-8 20-12 30t-8 17q-13 19-22 25t-19 2m383-1q-7-2-9-11t-2-19 2-16q1-2 1-3 4-36 13-65t21-55q-3-1-7-2t-7 0q-13-2-25-5t-16-17q-2-11 2-19t12-7q7 0 11 5t4 14q2 1 6 1 9 2 19 3t19-2q5-3 16-18t25-30q19-22 57-47t88-41q4-2 9 0t10 7q0 13-2 26t-4 26q-1 2-1 5t-1 4q-2 16-5 35t0 33q2 2 7 2t17-1q16-1 22 1t8 10q2 8-3 11t-14 4-16 0h0-1q-7-1-13-1t-10 1q-3 23-2 51t6 59q1 4 2 8t2 9q6 18 6 27t-4 14l0 1q-10 3-16-2t-8-13-4-16q0 0 0-1 0-2-1-4t0-4q-5-24-8-57t-1-68q-13-1-32-3t-40-1-40 0q-8 1-16 1t-15 0q-11 15-21 36t-16 47-8 50q-1 3-1 10 0 6-1 13t-4 11-11 3m85-199q18 2 39 2t43 0 39-3q1-8 2-18t3-20q3-16 5-31t1-30q-41 15-75 42t-57 58m554 227q-50-13-89-38t-71-56q-2-2-4-4t-4-3q-11-10-21-21t-12-26q3-7 8-10t23-3q2 0 6 0t6-1q14-4 30-10t32-16 27-22 14-28-4-35q-7-15-24-26t-41-16-48-6-46 7-35 20q-11 11-18 26t-7 31q0 11 2 17t7 13q9 16 10 22t-4 11q-21 2-33-21t-7-57q3-26 18-46t41-34 58-15q26-1 53 3t51 15 39 29 16 44q1 29-10 49t-31 34-43 22-48 16q30 36 70 65t96 43q17 4 24 8t8 8q2 8-2 12t-11 3-14-1-11-2q-1-1-1-1m-221-20q-9 0-13-12t-2-38q0-3 0-13t1-25 0-29-1-25 0-14q0-28 0-53t4-40q1-4 5-5t5-2q11 2 13 13t1 38v155q1 28-2 39t-11 11m364-16q-16 12-33 12t-31-7-27-21-17-26q-7-18-8-30t6-18l1-1q11 0 16 5t8 21q1 4 2 7t2 5q4 11 12 20t19 15 21 3 19-13q-14-13-25-35t-17-50-7-57 2-57 14-51 26-37q14-13 26-13t21 9 17 22 11 29 5 30q2 33-1 69t-11 70-21 60-30 39m4-53q13-21 20-51t11-63 1-69q0-6-3-18t-6-23-8-18-12-2q-17 10-27 33t-12 54 1 60 13 56 22 41" />
<path id="yuji-hentaigana-akebono" class="f" d="M243 752q-53 0-75-45-2-5-3-15t2-20 9-17 15-4q9 2 9 10t-1 16q-1 5-2 11t1 10q4 18 18 25t31 4 33-12 22-26q8-16 11-37t6-42q2-13 3-26t5-25q-10 4-21 15t-18 15q-20 13-43 18t-47 4-41-13-28-32-7-51q1-15 4-30t9-30q2-8 4-16t4-17q1-2 1-5t2-4q3-14 6-30t3-29-6-23q-10-14-27-16t-33 5q-12 5-22 15t-18 25-10 29 2 28q4 13 12 19t20 12q5 3 12 7t13 8q-6 13-20 15t-27-6-27-22q-13-18-15-40t7-44 23-40q16-19 36-30t42-11 45 18q19 15 22 37t-3 49-14 52l0 1q-5 17-10 34t-6 31q-5 41 14 62t57 16q42-5 73-33t45-73q8-24 11-49t8-50q2-20 5-41t8-42q2-9 11-11t10 2q8 17 5 37t-7 41v1q-1 7-3 15t-2 16q-4 22-7 44t-8 42q-4 27-9 55t-9 59q-5 28-10 55t-15 50-31 36-54 13m337-63q-24-1-46-13t-35-35-14-56q0-19 2-38t7-38q0-1 0-2 4-22 6-42t0-38q-2-16-7-21t-17-3q0 0-1 0-4 1-10 0t-8-5q-4-5-2-12t8-7q15-6 29-3t25 15 12 27q3 19 0 42t-7 46v1q0 1 0 2-4 24-7 47t0 44 13 37q12 16 29 21t36 4 37-12 29-24q11-13 22-34t14-39q1-5 1-11t-1-13v0q0-5 0-10t0-9q0-8 1-17t1-19q1-7 1-14t1-13q1-4 1-7t0-7q0-1 0-3 0-5 0-14t1-19 6-15 13-4q9 2 10 21t-2 61q-1 3-1 6t0 6q0 8-1 15t-1 15q-1 11-2 20t0 19q0 26 1 53t8 45 17 23q1 1 2 1t5 1h3q6 0 13 1t8 11q0 10-7 12t-17 2-19-5-11-6q-12-8-18-26t-10-34q-5 4-8 8t-6 10q-8 11-12 15-19 19-43 28t-49 9m403-27q-15 15-37 22t-43 4-42-11-32-25-14-39q-2-34 21-63 16-21 27-27t26-1q2 10-1 16t-14 13q-7 5-10 7-22 25-20 53 1 27 21 41t56 9q23-2 36-15t21-33 10-45 4-53 4-54 9-48q-8-3-21-3t-29 1h-1-13q-2 0-5 0t-4 0q-4 0-8 0t-8 0q-62-3-36-48l3-1q15-3 17 14 0 3 1 4t1 3q21 1 52 1t62 0q19 0 32 0t17 0h4q20-1 29 1t10 9q2 9-5 12t-17 4-20 0h-1q-21-2-27 0-11 23-14 51t-4 60q-1 28-4 54t-9 48-24 39m245 9q-16 12-33 12t-31-7-27-21-17-26q-7-18-8-30t6-18l1-1q11 0 16 5t8 21q1 4 2 7t2 5q4 11 12 20t19 15 21 3 19-13q-14-13-25-35t-17-50-7-57 2-57 14-51 26-37q14-13 26-13t21 9 17 22 11 29 5 30q2 33-1 69t-11 70-21 60-30 39m4-53q13-21 20-51t11-63 1-69q0-6-3-18t-6-23-8-18-12-2q-17 10-27 33t-12 54 1 60 13 56 22 41m267 65q-3-12 2-20t12-14q1 0 1-1 7-7 10-12 20-33 30-74t16-89q-6-4-15-5t-19 0q-12 0-25-2t-20-11q-7-9-6-18t6-15 11-7 11 4 5 21q12 3 26 3t26-2q4-47-6-79t-30-36q-4-2-13 0-16 2-26-4-4-12 2-17t16-7 21 0 14 2q18 6 28 21t16 35 8 42 4 41q22 3 49 4t53 0 53-2q4 0 7 0t7 0q7-46 15-77t24-49 42-25q13 5 13 11t-6 13-14 13l0 0q-23 19-31 47t-12 63q4 5 12 6t25 0q13-1 25-1t13 11q2 9-4 12t-17 4-20 0q-2 0-3 0-9-1-17-1t-12 1q-3 34 1 71t10 72q1 5 1 10t2 11q1 2 1 3t0 5q4 21 2 31t-12 11q-7 0-12-7t-7-25-7-50q-1-9-3-27t-5-37-3-38-2-27q-22-3-49-4t-54 0-52 2q-4 0-7 0t-6 0q-7 31-14 64t-18 63-26 56q-9 15-16 23t-14 9-17-2m574-6q-31-1-60-12t-47-32-21-51q-4-48 43-83 0 0-1-1t-1-1q-2-1-4-3t-5-4q-12-8-22-19t-12-29q-2-22 11-41t37-30 54-13q24-1 48 4t45 15 33 23q5 5 9 14t6 19-2 18-18 10h-2q-6-5-8-9t1-11q2-7 1-10-2-10-13-19t-28-14-34-10-30-3q-17 0-35 6t-32 16-16 23 9 28q11 12 34 20t53 11q3 0 7-1t7 0q21-4 31 5l0 2q-2 15-13 19t-41 0q0 0-1 0-5-1-10-2t-9 0q-27 1-46 18t-19 42q-1 27 13 45t38 25 51 9q33 1 62-10t44-29q0-1 1-3t3-7q7-14 11-20t10-5q11-1 13 8t-6 26q-8 16-19 27-20 20-52 30t-68 9m202 45q-23 8-37 6t-16-12q-1-13 38-18 11-2 21-8t14-15q9-14 12-36t2-48-2-53q0-3 0-5-3-39-3-77t10-62q16-40 43-28 4 8 3 12t-11 14q-4 4-7 7t-3 9q1 8 10 18t20 20q13 13 32 34t38 45 38 47 30 40q-2-111 17-183t57-102q11-9 21 1 1 4 1 6t-1 4q0 3-4 7t-10 13q-18 21-29 53t-17 71-7 80 2 81q1 2 1 4t1 5q2 18 1 26t-10 14q-8-1-13-5t-12-18q-1-3-3-5t-2-3q-29-48-71-102t-93-108q-6 21-5 48t3 56q2 27 2 53t-4 49-17 38q-2 2-8 7t-14 11-18 9m458-31q-20-1-35-11t-23-25-8-33 10-34q0 0 1-1 2-4 8-11t12-9 15 4q5 4 2 11t-11 19q-10 13-10 17-3 23 14 36t45 10q17-2 33-12t26-25q14-21 17-51t4-63q1-27 2-55t10-53q-5 0-10-1t-10 0q-5-1-10-1t-11 0q-1 0-3 0-26-2-54-3t-51 2-37 14-11 30q2 17 20 27t43 10q6-1 12-3t10-3q13-5 20-5t12 4l0 1q1 13-8 20t-21 9-19 4q-18 1-37-4t-33-15-21-23q-10-21-7-38t16-29 31-18 37-8q32-3 71-3t80 0 80 2q7 0 13 0t13 1q1 0 4 0 9 0 18 1t10 11q2 18-43 15-2-1-8-1t-13 0-10 0q-11-1-20-1t-14 1q-9 2-14 13t-6 24-3 25q0 8 0 16t-1 16q0 4 0 8t0 8q-1 37-5 71t-19 60q-8 12-23 24t-35 20-45 5m290-12q-8-2-10-11t-1-19 2-16q0-2 0-3 4-36 14-65t21-55q-4-1-7-2t-8 0q-12-2-25-5t-15-17q-2-11 2-19t12-7q7 0 10 5t4 14q2 1 6 1 10 2 20 3t18-2q6-3 17-18t25-30q19-22 57-47t87-41q4-2 10 0t10 7q0 13-2 26t-5 26q0 2-1 5t0 4q-3 16-5 35t-1 33q3 2 8 2t16-1q16-1 23 1t8 10q1 8-4 11t-13 4-16 0h-1-1q-6-1-12-1t-10 1q-4 23-3 51t7 59q1 4 2 8t2 9q5 18 6 27t-4 14l-1 1q-10 3-15-2t-8-13-4-16q0 0 0-1-1-2-1-4t0-4q-6-24-8-57t-1-68q-13-1-32-3t-40-1-40 0q-8 1-16 1t-15 0q-11 15-21 36t-16 47-9 50q0 3 0 10 0 6-1 13t-4 11-11 3m85-199q17 2 39 2t43 0 38-3q1-8 2-18t4-20q2-16 4-31t2-30q-42 15-75 42t-57 58m356 191q-16 12-33 12t-32-7-26-21-17-26q-8-18-9-30t6-18l1-1q12 0 16 5t9 21q1 4 1 7t2 5q5 11 13 20t18 15 21 3 19-13q-14-13-24-35t-17-50-8-57 2-57 14-51 26-37q14-13 26-13t22 9 16 22 11 29 5 30q3 33 0 69t-11 70-21 60-30 39m4-53q12-21 20-51t11-63 1-69q-1-6-3-18t-6-23-9-18-11-2q-18 10-27 33t-13 54 1 60 13 56 23 41m240 91q-10-1-20-5t-16-8q-12-11-16-24t1-25 20-14l1 0q5 5 5 10t1 12q0 0 0 1-1 3-1 6t1 5q4 11 16 15t30 1q19-5 29-21t14-38 7-45q0-3 0-6t1-5 1-6 1-6q-2 1-4 3t-3 5q-1 1-3 2t-1 2q-11 11-27 20t-35 14-38 2-36-15q-49-36-44-104 3-37 24-66t53-47q31-16 68-17t76 19q48 25 42 52l-6 3q-12 0-19-6t-12-12q-3-4-6-6t-5-5q-27-17-64-17-35 0-63 15t-45 42-16 60q0 38 21 59t57 20q17-1 33-10t28-22 22-28 12-27q2-8 2-15v-6q0-19 5-27t15-5q9 3 9 11t-1 16q0 3 0 4-1 13-3 27t-4 30q-1 8-2 15t-2 15q0 4-1 8t-1 8q-3 24-8 49t-15 46-29 33-49 8m209-30q-8-2-10-11t-1-19 2-16q0-2 0-3 4-36 14-65t21-55q-4-1-7-2t-8 0q-12-2-25-5t-15-17q-2-11 2-19t12-7q7 0 10 5t4 14q2 1 6 1 10 2 20 3t18-2q6-3 17-18t25-30q19-22 57-47t87-41q4-2 10 0t10 7q0 13-2 26t-5 26q0 2-1 5t0 4q-3 16-5 35t-1 33q3 2 8 2t16-1q16-1 23 1t8 10q1 8-4 11t-13 4-16 0h-1-1q-6-1-12-1t-10 1q-4 23-3 51t7 59q1 4 2 8t2 9q5 18 6 27t-4 14l-1 1q-10 3-15-2t-8-13-4-16q0 0 0-1-1-2-1-4t0-4q-6-24-8-57t-1-68q-13-1-32-3t-40-1-40 0q-8 1-16 1t-15 0q-11 15-21 36t-16 47-9 50q0 3 0 10 0 6-1 13t-4 11-11 3m85-199q17 2 39 2t43 0 38-3q1-8 2-18t4-20q2-16 4-31t2-30q-42 15-75 42t-57 58m259 242q-23 8-38 6t-15-12q-2-13 37-18 12-2 21-8t15-15q9-14 11-36t2-48-2-53q0-3 0-5-2-39-3-77t11-62q16-40 43-28 4 8 3 12t-11 14q-4 4-7 7t-3 9q0 8 10 18t19 20q14 13 32 34t38 45 38 47 30 40q-2-111 17-183t58-102q10-9 21 1 0 4 0 6t0 4q-1 3-4 7t-11 13q-17 21-29 53t-17 71-6 80 2 81q0 2 0 4t1 5q3 18 1 26t-9 14q-9-1-13-5t-12-18q-2-3-3-5t-2-3q-29-48-71-102t-94-108q-5 21-5 48t3 56q2 27 3 53t-4 49-18 38q-1 2-7 7t-15 11-17 9m375-43q-8-2-10-11t-1-19 2-16q0-2 0-3 4-36 14-65t21-55q-4-1-7-2t-8 0q-12-2-25-5t-15-17q-2-11 2-19t12-7q7 0 10 5t4 14q2 1 6 1 10 2 20 3t18-2q6-3 17-18t25-30q19-22 57-47t87-41q4-2 10 0t10 7q0 13-2 26t-5 26q0 2-1 5t0 4q-3 16-5 35t-1 33q3 2 8 2t16-1q16-1 23 1t8 10q1 8-4 11t-13 4-16 0h-1-1q-6-1-12-1t-10 1q-4 23-3 51t7 59q1 4 2 8t2 9q5 18 6 27t-4 14l-1 1q-10 3-15-2t-8-13-4-16q0 0 0-1-1-2-1-4t0-4q-6-24-8-57t-1-68q-13-1-32-3t-40-1-40 0q-8 1-16 1t-15 0q-11 15-21 36t-16 47-9 50q0 3 0 10 0 6-1 13t-4 11-11 3m85-199q17 2 39 2t43 0 38-3q1-8 2-18t4-20q2-16 4-31t2-30q-42 15-75 42t-57 58m417 203q-8-2-10-11t-2-20 3-19q0-4 0-6 5-44 17-79t26-68q-5-1-10-2t-10-1q-10-1-20-3t-17-6-10-15q-3-14 2-22t13-7q7 0 12 6t5 18q2 1 5 1 12 2 25 4t24-3q6-3 14-13t18-21q5-7 8-10t6-6q37-37 81-61t96-45q4-1 11 0t10 7q0 15-2 30t-5 32q-4 21-7 43t0 43q4 3 10 3t20 0q12-1 23-1t13 11q1 9-5 12t-15 4-19 0q0 0-1 0-8-1-16-1t-13 1q-9 57 5 135 1 5 2 10t3 11q6 22 6 32t-4 15q-11 4-18-2t-9-14-4-19q0 0 0-1-1-2-1-5t-1-4q-6-30-9-71t-1-82q-16-2-39-4t-49-1-49 0q-9 1-19 1t-18 0q-14 17-26 44t-20 58-10 61q0 3 0 6t0 6q0 8-1 15t-5 12-13 2m99-235q22 3 48 4t54 0 48-4q2-19 5-39 3-20 5-40t2-37q-54 19-94 49t-68 67m522 225q-15-9-22-24t-8-33-1-35q0-24-2-44t-15-29q-18-15-35-2-9 6-14 7t-11-1q-9-7-9-16t7-15 18-9q48-47 89-73t86-35q19 9 12 17t-33 15q-3 1-5 2-4 2-6 2-27 12-56 33t-49 42q8 3 17 9t18 17q12 15 14 37t1 42q0 18 1 34t7 26 22 13q10 2 24-2t30-10q14-6 21-6t15 8q-1 12-8 17t-22 10q-26 8-47 10t-39-7m-221 7l-1-1q-4-7-2-14t12-18q6-7 7-9 14-22 24-52t15-64 3-71q-2-17-6-32t-13-23-23-7q-9 2-14 0t-8-4h0q-3-11 3-17t18-7 22 2 21 12q14 13 21 35t7 49-3 54-9 52-13 41q-8 20-12 30t-8 17q-13 19-22 25t-19 2m499-3q-31-1-60-12t-47-32-21-51q-4-48 43-83 0 0-1-1t-1-1q-2-1-4-3t-5-4q-12-8-22-19t-12-29q-2-22 11-41t37-30 54-13q24-1 48 4t45 15 33 23q5 5 9 14t6 19-2 18-18 10h-2q-6-5-8-9t1-11q2-7 1-10-2-10-13-19t-28-14-34-10-30-3q-17 0-35 6t-32 16-16 23 9 28q11 12 34 20t53 11q3 0 7-1t7 0q21-4 31 5l0 2q-2 15-13 19t-41 0q0 0-1 0-5-1-10-2t-9 0q-27 1-46 18t-19 42q-1 27 13 45t38 25 51 9q33 1 62-10t44-29q0-1 1-3t3-7q7-14 11-20t10-5q11-1 13 8t-6 26q-8 16-19 27-20 20-52 30t-68 9m230-14q-1 0-3-1t-3 0q-10-1-16-4t-3-12q0-10 13-10t34 1q2 0 3 0t3 1q69 5 116-8t65-42q6-8 9-24t-2-29q-4-10-14-19t-22-14-24-5q-5 0-11 2t-11 4q-8 4-16 6t-19 2q-15-2-21-11t-3-21l1-1q9-8 23 2 1 1 3 2t5 2q18 1 32-8t23-24 7-31-18-28q-13-9-40-14t-52-4q-15 1-29 6t-23 12-11 16 10 20q0-1 0-2t1-3q0-5 2-10t11-4q8 0 11 10t1 32q0 5 0 7v121q0 3 0 6t0 6q1 23-2 32t-10 9q-10 0-13-19t0-57v-9q0-29 0-44t-1-24-1-17l-7-5q-8-6-16-13t-12-17-1-27q4-17 19-29t39-19 54-5q23 1 44 7t39 19 26 30 4 42q-1 6-4 14t-8 14q18 9 33 20t24 27 7 42q-2 14-10 29t-19 27-21 19q-15 10-37 16t-50 9-55 3-54-3m436 31q-30-2-55-16t-43-37-27-50q-14-38-10-81t28-78q4-7 14-18t21-20 25-14 24 5q0 0 2-1 10-5 18-9t21-6 29 0q39 4 67 28t42 62 11 85q-3 34-17 63t-36 48-52 31-62 8m-3-27q31 4 56-6t44-27 28-41 13-49q3-40-7-72t-33-52-53-24q-25-3-45 6t-29 28-6 40q3 11 12 22t21 18q2 1 3 1 2 1 4 1t4 2q7 2 15 6t10 16l-1 3q-16 14-51-7-8-5-18-14t-16-19q-9-17-10-38t9-45q-28 15-41 42t-14 61 11 63q11 33 35 57t59 28m233 55q-23 8-37 6t-16-12q-1-13 38-18 11-2 21-8t14-15q9-14 12-36t2-48-2-53q0-3 0-5-3-39-3-77t10-62q16-40 43-28 4 8 3 12t-11 14q-4 4-7 7t-3 9q1 8 10 18t20 20q13 13 32 34t38 45 38 47 30 40q-2-111 17-183t57-102q11-9 21 1 1 4 1 6t-1 4q0 3-4 7t-10 13q-18 21-29 53t-17 71-7 80 2 81q1 2 1 4t1 5q2 18 1 26t-10 14q-8-1-13-5t-12-18q-1-3-3-5t-2-3q-29-48-71-102t-93-108q-6 21-5 48t3 56q2 27 2 53t-4 49-17 38q-2 2-8 7t-14 11-18 9m493-28q-30-2-55-16t-42-37-28-50q-14-38-10-81t28-78q5-7 14-18t22-20 24-14 24 5q1 0 2-1 10-5 19-9t20-6 30 0q38 4 66 28t42 62 11 85q-2 34-16 63t-37 48-52 31-62 8m-3-27q32 4 57-6t43-27 29-41 12-49q4-40-7-72t-32-52-54-24q-24-3-44 6t-30 28-5 40q2 11 11 22t22 18q2 1 2 1 3 1 4 1t4 2q8 2 16 6t10 16l-2 3q-16 14-50-7-9-5-18-14t-16-19q-10-17-11-38t9-45q-27 15-41 42t-13 61 10 63q12 33 35 57t59 28" />
<path id="yuji-mai" class="f" d="M418 399q-9 21-19 29t-13 10q-5-4-10-8t-13-6q-3-7 0-13t6-11q3-5 5-11t-1-12q-20-2-35 1t-28 13q-21 14-37 29t-34 34q-11 31-12 60t3 69q1 9 0 21t-2 21q19 9 30 25 1 7-1 16t-9 10q-4 0-10 0t-10 1q-18 1-37 1t-29-5q-6-8-4-22t11-22q5-1 8-3t9-4q0-13 0-27t0-27q1-34-1-68t-8-63-25-53q-6-9-18-17t-24-14-24-7q-14-2-23 4t-10 16 7 19q9 1 10-5t1-12q-1-3-1-7t2-5q14 1 20 9t6 19q-1 11-8 22t-19 16-25-2q-1-1-2-2t-2-2q-12-10-22-22t-6-33q2-18 16-33t30-19q25-7 49 0t44 16q1 5 8 13t17 20 20 31 14 46q12-13 25-30t27-33 32-29q21-15 47-21t58 8q5 7 8 19t6 26 3 24m305 244q1 9-3 12t-9 5q-11 0-23-3t-19-10-8-21q-15 9-27 20t-24 18-30 10q-13 1-25-5t-19-13q-14-14-23-39t-9-50q1-22 7-45t12-40q2-7 3-15t1-13q0-4-2-10t-5-9-11-3q-5 1-8 8t-7 10q4 9 0 15t-12 8-17 1-13-9q2-16 10-31t20-24q5-4 15-9t16-3q11 1 24 8t22 17 10 24q0 8-2 18t-5 19q-1 3-1 4-1 3-2 5t-1 6q-7 22-12 47t-3 47 20 41q15 6 29 1t27-15 22-25q7-11 10-19t3-17-1-20q0-2 0-4t0-4q-1-5 0-12t1-16q1-16 2-32t-3-22q0-14 3-26t9-21q9-4 18-5t16 5q0 1 0 3t0 4q1 8 0 17t-5 12q3 20 2 40t-2 43q-2 17-3 35t0 35q0 6 1 15t3 13q3 6 8 8t11 6 9 10m212-217q0 17 0 35t0 38q1 44 1 90t-7 83q-6 11-13 21t-19 17-30 15-50 12q-16-6-26-15t-18-22q-3-8-2-23t13-26q3 0 5-1t6-1q7-1 13-2t11 2q6 7 7 16t-2 19-7 13q0 5 4 6t5 4q39-7 54-32t18-64q1-17 0-41t-2-47q-1-12-2-23t0-18q0-9-1-18t-2-15q0-2-2-4t-3-5q-3-5-6-10t-1-12q5-4 12-6t12-2q11 3 17 8t15 8m9-101q6 17 2 28t-12 18-18 9q-20 1-29-8t-13-15q-1-3-2-4 1-2 1-6 1-10 4-21t13-11q5-7 11-7t13 0q3 1 6 1t5-1q6 3 10 8t9 9m191 329q-6 9-18 14t-25 5-25-3-18-14-4-25q6 0 8-4t9-4q6-4 8-10t3-14q1-16-1-38t-2-44q-1-8-1-15t-1-14q-1-9-2-16t-4-15q-2-12-4-22t1-22q18-3 29 7t16 27 4 31q-1 6-4 8 1 13 1 26t1 27q-1 24 0 47t7 42q11 0 16 4t6 11 0 11m-22-320q2 17-4 30t-17 18q-8 2-18 0t-18-7-11-12q-5-12-1-26t15-21 26-6q9 1 14 8t14 16m651 5q0 5-2 9t-2 8q-11-1-16 1t-12 5q-1 1-2 1-3 13-3 25t-1 26q0 7 0 14t-1 15q0 6-1 13t-1 14q-1 11-2 22t0 23q1 26 4 52t4 50q6 6 12 10t15 8q0 2 0 4t1 4q1 4 1 6-5 5-11 9t-10 10q-9 2-23 3t-28-2-24-11-9-24q5-9 12-13t22-4q3-38 2-82t-3-85-4-75q0-2 0-4t0-3q-15 7-29 14t-24 19q-8 8-17 20t-14 25q-2 3-2 7t-1 8q-1 3-4 5t-4 7q-3 11-2 22t2 25q3 18 3 35t-13 30q-16 2-26 0t-22-7q0-3-2-7t-3-7q-3-5-6-10t-1-12q1-4 5-11t8-13q1-3 1-7t1-5q2-5 7-10t5-10q1-7-2-18t-7-23-8-20q-10-22-22-36t-26-27q-7-6-20-10t-27-4-22 7-6 22q4-2 5-4t7-4q12 1 19 3t11 7 10 11q1 36 0 79t-3 81q0 10-2 27t-4 27q-1 6-10 12t-15 12q-17 16-41 26t-51 19q-3-4-9-5t-9-4q1-25 8-47t21-36 39-19q7 6 13 10t9 14q-9 8-20 15t-20 15-9 27q22-4 35-18t20-32q8-22 9-50t0-55-4-50q0-6-1-11t-1-10q-3 0-5 0t-3 0q-3 0-7 0t-9-1q-17-12-17-32t11-38q10-16 27-26t38-8q10 5 22 6t25 6q10 13 25 22t27 20q1 3 0 3t-1-1q-3-1-3 1 4 12 10 21t12 18 8 23q11-16 19-32t23-28q19-18 44-29t50-22q16 2 30 5t27 14m301 317q-6 11-19 13t-27-2-22-14-9-26q-2 2-4 3t-4 4q-16 12-34 23t-41 10q-10-1-21-3t-20-9q-12-10-18-28t-4-38 12-35q27-20 60-34t69-23q0-2 0-5t1-5q1-8 2-19t-2-21-12-13q-5-3-14-3t-13 0q-14 1-30 11t-20 25q-3 2-6 4t-6 5q-4 4-10 8t-12 3q-14 0-24-11t-6-22q4-10 13-18t20-12 22-11 19-10q17-5 40-6t48 6q6 4 12 12t10 18 7 16 5 10q1 12-1 27t-3 29q-2 21-3 43t1 41 13 35q9 2 18 7t13 15m-81-84q1-5 1-12t0-12q-1-5-1-9t0-9q-12 2-29 9t-35 15-29 17q-8 7-10 22t1 26q10 11 22 9t24-5q4-2 8-3t9-2q6-9 15-15t15-12 9-19m237 82q-6 9-18 14t-25 5-25-3-18-14-4-25q6 0 8-4t9-4q6-4 8-10t3-14q1-16-1-38t-2-44q-1-8-1-15t-1-14q-1-9-2-16t-4-15q-2-12-4-22t1-22q18-3 29 7t16 27 4 31q-1 6-4 8 1 13 1 26t1 27q-1 24 0 47t7 42q11 0 16 4t6 11 0 11m-22-320q2 17-4 30t-17 18q-8 2-18 0t-18-7-11-12q-5-12-1-26t15-21 26-6q9 1 14 8t14 16" />
<path id="yuji-syuku" class="f" d="M344 358q-17 1-29 7t-20 16q-11 12-20 28t-17 31q-4 8-10 16-6 9-12 15t-12 15q-5 8-11 16t-12 13q2 12 2 26t-1 31q0 17 0 33t3 28q2 2 4 1t4-3q4 5 11 8t12 6q6 3 8 9t-6 12q-12-1-24-1t-25 0q-15 0-30 0t-31-3q-1-13 6-18t16-10q4-2 9-5t7-6q0-4 0-12t1-17q0-13 0-28t0-28-1-21q-1-10-9-20t-15-19q-6-9-13-19t-13-19q-9-14-18-28t-17-27q-1-4-5-5t-6-3q0-4-1-8t-2-5q-3-1-7-1t-6 0q-4 0-9-1t-9-1q-1-1-1-3t-3-2q-2-7 0-10t5-5q2-2 2-2 10 1 22 1t24-2q6 0 12-1t12 0q15-1 26 3t15 16q-7 5-18 6t-22 2q10 18 23 37t28 39q9 10 17 21t15 21q8-11 15-21t15-21q13-19 26-38t25-38q-4-1-11 0t-14 1q-4 0-8 0t-7 1q-8-4-6-14t8-13q10 1 21 0t22-1q6 0 13-1t12 0q15 0 26 4t14 17m308 299q-2 7-10 10t-16 3q-4 0-9-1t-10 0q-4 0-8 0t-6 0q-8-4-9-11t1-16q0-3 0-7t0-7q-6 3-11 7t-11 9q-11 9-24 17t-32 8q-10-1-17-5t-17-5q-15-18-19-42t-5-51q0-10 0-22t1-22q0-15 0-30t0-30q-2 0-5 0t-5 1q-5 1-11 1t-8-4q1-8 6-13t13-7q4-1 8-2t9 0q4 0 9 0t8 2q13 3 18 9-8 27-10 61t-1 71q0 12 2 25t5 22 12 13q11 5 24 3t23-8 18-14q9-10 14-25t6-33 1-36-1-37q0-6-1-12t0-11q-2 0-6 0-6 1-13 0t-10-8q1-3 2-6t2-7q8-1 16-4t15-3q8-2 14-2 3 0 6 1t5 1q8 3 14 9-7 2-7 9t-4 13q1 21 1 48t1 55q0 6-1 11t0 11q-1 13-1 25t7 20q8 3 14 7t13 9m205-212q-9 14-10 41t-1 59q0 5 0 10t1 10q2 34 2 68t-5 61q-4 18-13 31t-22 18q-4 1-14 2t-23 1-20-2q-8-2-14-8t-14-9q-3-8-5-19t1-22q10-12 18-11t15 8q7 8 13 20t8 22q15 0 27-8t14-23q4-24 2-60t-3-73q-1-27-3-51t0-43q-3-1-6-1t-7 3-9 2-12 0q-2-4-4-10t-2-11q11-7 27-10 12-3 25-3t24 3q3 0 5 2t5 3m-7-57q-6 11-18 11t-21-5-10-16q-1-15 8-22t19-6q11 1 19 11t3 27m232 267q0 5-10 7t-23 3-25 1q-3 0-7 0t-6 1q-1 0-6-1-5-2-10-3t-11 2q-6-3-6-7t2-8q1-1 2-3t0-4q9-4 17-7t14-10q0-30-1-55t0-51 1-56q-5-2-11-2t-10 0q-3 0-5 0t-5 0q0-2-1-4t-2-4q-2-3-3-5t4-7q5 0 10-1t11-1q13-2 26-3t24 2v1q0 25-1 55t-2 60-2 55q0 1 0 4-1 3-1 6t1 6q1 5 7 8t12 6q6 3 11 6t6 9m-31-290q6 12 2 21t-14 13-26-1q-9-12-7-23t9-18q8-7 19-6t17 14m456 237q-6 22-22 37t-38 24-48 6-52-10q-5 1-8 3t-7 7q-4 4-9 6t-12-4q-6-9-8-24t-1-31 4-32 7-23q12 4 16 13t6 19q2 11 4 22t11 19q8 9 20 12t25 4q17 0 33-6t28-16 16-22q3-21-1-34t-14-22q-12-11-29-18t-33-16q-6-4-12-9t-11-9q-7-4-15-7t-13-6q-12-7-20-19t-12-26q-2-7-3-15t-1-15q0-16 5-32t16-28q20-9 44-14t50-4 48 10q2-1 3-2t3-4q3-3 6-6t10 2q3 12 3 30t-1 34-6 26q-11-1-15-8t-5-16-1-21q0-1 0-2-11-10-29-16t-37-6q-15 0-29 4t-21 14q-7 7-10 18t0 25q1 5 5 12t8 11l3 3q12 11 30 20t38 19 37 22q17 11 29 25t16 33-1 43m331-148q-2 7-8 8t-13 3-12 7q-5 5-6 9t-4 13q-6 15-16 36t-21 45-24 49-23 47-18 39q-4 9-9 18t-13 14q-12 8-31 5-10-2-15-8t-15-12q-1-10 3-17t11-10q8-4 18-3t16 10q9-5 17-18t15-28 10-24q-1-4-5-6t-6-5q-14-42-31-81t-32-79q-9 0-17 0t-13-4q-4-4-3-6t2-4q1-1 2-3t1-4q2 0 5-1t6 0q9-1 21-2t24-1q16 1 28 4t18 11q-8 4-17 7t-18 6q11 33 24 64t25 64q19-28 32-61t27-66q-2-2-6-2t-9 0q-4 0-8 0t-6-2q0-2-1-4t0-4q-1-4-1-7t5-6q5 0 10-1t10 0q21 0 38 1t33 9m308 203q-3 7-10 10t-16 3q-5 0-10-1t-9 0q-4 0-8 0t-7 0q-7-4-8-11t0-16q0-3 0-7t1-7q-6 3-12 7t-10 9q-11 9-24 17t-32 8q-11-1-17-5t-18-5q-14-18-19-42t-5-51q0-10 0-22t1-22q1-15 1-30t-1-30q-2 0-4 0t-5 1q-6 1-11 1t-8-4q0-8 5-13t14-7q4-1 8-2t8 0q5 0 9 0t9 2q12 3 17 9-8 27-10 61t-1 71q1 12 2 25t6 22 11 13q12 5 24 3t24-8 17-14q10-10 14-25t7-33 1-36-2-37q0-6 0-12t-1-11q-2 0-6 0-6 1-12 0t-10-8q1-3 2-6t1-7q9-1 17-4t15-3q7-2 14-2 3 0 5 1t6 1q7 3 13 9-6 2-7 9t-3 13q1 21 1 48t0 55q0 6 0 11t-1 11q-1 13-1 25t8 20q7 3 14 7t13 9m321-8q-1 8-7 11t-13 4q-6 1-12 1t-11 0q-3-1-5-1t-4 0q-17-28-34-55t-35-56q-11 7-19 16t-17 18q0 6 0 12t0 10q0 6 0 11t-1 11q7 8 19 12t22 9q-2 7-11 10t-20 3-17-2q-12 2-27 4t-27-3q-3-4-2-6t2-4q1-2 1-3t1-4q5-5 12-7t15-4q2-45 1-94t-3-99v-3q0-19-1-37t-1-37q-5 0-8 1t-6 2q-4 2-8 3t-8-1q-2-3-2-6t2-8q1-2 1-4t1-3q12-3 24-7t22-3q7 0 12 2t11 10q-5 18-6 40t-1 48q1 27 1 55t1 55q22-16 43-40t39-47q-3 0-13-1t-20-2q1-6 1-11t2-9q1-1 2-2 9 2 19 1t20-1q4 0 8-1t8 0q7 0 13 1t11 2q3 1 6 3t6 4q-3 8-13 10t-18 6q-15 15-28 33t-27 34q8 17 20 35t22 33 17 31q11 4 22 8t18 12m314 8q-3 7-10 10t-16 3q-5 0-10-1t-9 0q-4 0-8 0t-7 0q-7-4-8-11t0-16q0-3 0-7t1-7q-6 3-12 7t-10 9q-11 9-24 17t-32 8q-11-1-17-5t-18-5q-14-18-19-42t-5-51q0-10 0-22t1-22q1-15 1-30t-1-30q-2 0-4 0t-5 1q-6 1-11 1t-8-4q0-8 5-13t14-7q4-1 8-2t8 0q5 0 9 0t9 2q12 3 17 9-8 27-10 61t-1 71q1 12 2 25t6 22 11 13q12 5 24 3t24-8 17-14q10-10 14-25t7-33 1-36-2-37q0-6 0-12t-1-11q-2 0-6 0-6 1-12 0t-10-8q1-3 2-6t1-7q9-1 17-4t15-3q7-2 14-2 3 0 5 1t6 1q7 3 13 9-6 2-7 9t-3 13q1 21 1 48t0 55q0 6 0 11t-1 11q-1 13-1 25t8 20q7 3 14 7t13 9" />
<path id="yusei-magic" class="f" d="M182 519v131q0 7-5 12t-12 5h-30q-7 0-12-5t-5-12v-126l-88-207q-5-11-5-19 0-11 18-11h20q5 0 10 2t7 7l68 171 71-171q3-5 7-7t11-2h20q18 0 18 11 0 5-5 19l-88 202m327-90v221q0 7-5 12t-12 5h-25q-6 0-11-4t-5-10q-16 9-36 14t-43 5q-35 0-56-11t-29-38-12-74-2-119q0-8 5-13t12-5h25q7 0 12 5t5 13q0 56 1 94t5 62 9 35 11 16 14 5q23 0 40-11t28-31 10-44v-127q0-7 5-12t12-5h25q7 0 12 5t5 12m42 186q-2-3-2-6 0-6 6-10t12-4h29q12 0 16 14 4 14 18 23t44 9q32 0 44-11t12-33q0-22-16-35t-47-12q-42 1-67-8t-35-24-11-34q0-36 32-57t90-20q64 0 98 27 13 11 13 20 0 5-4 7l-8 7q-5 3-10 3-5 0-8-2-21-16-41-24t-40-8q-28 0-43 13t-15 34q0 19 11 28t38 8q34 0 63 9t47 26 17 42q0 21-15 38t-43 27-62 9q-46 0-79-16t-44-40m487 18q-15 16-39 27t-52 12q-62 0-96-36t-34-96q0-38 15-68t44-48 64-17q38 0 66 16t44 44 16 64q0 7-5 12t-11 4h-179q2 45 23 70t53 25q16 0 26-9t19-24q5-11 17-8l18 4q16 4 16 18 0 6-5 10m-98-196q-14 0-28 10t-25 29-14 41h129q-3-35-20-58t-42-22m220-118v29q0 7-5 12t-12 5h-30q-7 0-12-5t-5-12v-29q0-7 5-12t12-5h30q7 0 12 5t5 12m0 110v221q0 7-5 12t-12 5h-30q-7 0-12-5t-5-12v-221q0-7 5-12t12-5h30q7 0 12 5t5 12m512-26l-86 192q-5 10-11 10t-11-10l-89-193v248q0 17-16 17h-22q-17 0-17-17v-347q0-16 17-16h19q13 0 19 12l99 206 98-206q5-12 19-12h19q17 0 17 16v347q0 17-17 17h-22q-16 0-16-17v-247m192 269q-32 0-54-17t-34-46-12-68q0-37 14-68t38-48 58-18q43 0 71 18t43 47 14 62q0 2 0 4 3 33 8 60t9 46q0 1 0 4 0 15-15 17l-29 4q-14 1-17-12-2-8-4-16-17 14-39 22t-51 9m0-30q25 0 41-17t24-41 8-51q0 0 0-1t0-1q0-3 0-6 0-2 0-4-2-22-9-42t-21-31-33-11q-11 0-21 15t-18 39-7 50 6 49 14 37 16 15m212 87q-5-6-5-12 0-13 15-18l16-5q1-1 4-1 8 0 13 8 13 19 22 25t23 6q27 0 42-12t15-36v-35q-13 11-29 17t-36 6q-36 0-63-18t-42-49-15-69q0-38 14-67t38-46 61-16q23 0 41 5t31 16q1-7 5-12t12-4h25q7 0 12 5t5 12v255q0 23-15 40t-42 28-59 10q-54 0-88-33m80-88q15 0 30-10t25-34 10-58q0-54-19-78t-53-24q-12 0-25 11t-21 33-8 55q0 30 6 54t20 37 35 14m238-322v29q0 7-5 12t-12 5h-30q-7 0-12-5t-5-12v-29q0-7 5-12t12-5h30q7 0 12 5t5 12m0 110v221q0 7-5 12t-12 5h-30q-7 0-12-5t-5-12v-221q0-7 5-12t12-5h30q7 0 12 5t5 12m288 51q1 4 1 7 0 6-5 10t-12 6l-27 2q-6 1-11-3t-6-9q-7-25-23-41t-36-15q-17 0-30 14t-22 37-8 52q0 48 17 75t50 27q22 0 35-17t20-47q4-14 18-13l28 2q7 1 12 5t5 11q0 2-1 5-11 38-42 61t-75 23q-62 0-97-36t-34-96q0-38 16-68t43-48 65-17q27 0 51 10t41 26 27 37" />
</svg>