<svg id="z" viewBox="0 0 5368 1000" xmlns="http://www.w3.org/2000/svg">
<style>.f {display: none;}.f:target {display: block;}</style>
<path id="zcool-kuaile" class="f" d="M37 662l-19-40 233-246-218-17 4-48 267 23 15 39-224 236 260-22 4 47-322 28m391 7l-26-26 34-317 26-21 258 38-7 47-233-34-28 263 279-30 5 47-308 33m644-5l-255-3-23-25 22-282 22-21 221-23 26 23 11 307-24 24m-229-50l205 3-9-258-178 19-18 236m591 50l-255-3-23-25 22-282 22-21 221-23 26 23 11 307-24 24m-229-50l205 3-9-258-178 19-18 236m573 51l-235-6-23-27 36-323 47 5-33 298 210 7-2 46m216 8l-47-6 48-367 47 6-48 367m190-6l-139-146 3-35 147-116 29 37-127 100 121 127-34 33m315-13l-54-32-158 26-28-25 12-202 47 3-10 172 126-20 10-155 48 4-11 163 42 26-24 40m347 10l-50-14-9-11-207 33-27-28 29-115 23-18h158l-11-78-180 44-11-45 205-51 29 20 28 208 35 10-12 45m-238-44l166-27-5-34h-146l-15 61m308-190l-15-56 45-13 15 56-45 13m19 233l-47-6 25-198 47 5-25 199m336 2l-235-6-22-27 35-323 47 5-32 298 209 7-2 46m250 8l-194-36-19-27 24-178 21-20 147-12 23 13 42 84-16 33-156 33-10-46 126-27-21-41-112 8-18 138 172 32-9 46" />
<path id="zcool-qingke-huangyou" class="f" d="M224 651q0 20-20 20h-159q-20 0-20-20v-25q0-14 7-25l132-221q3-7 3-12 0-5-4-9t-13-3h-105q-20 0-20-20v-6q0-20 20-20h159q20 0 20 20v27q0 14-7 25l-131 220q-3 6-3 11 0 6 4 9t13 4h104q20 0 20 20v5m222-200q-20 0-20-20v-54q0-20-20-20h-67q-20 0-20 20v229q0 20 20 20h67q20 0 20-20v-49q0-20 20-20h6q20 0 20 20v63q0 15-10 25l-17 16q-10 10-24 10h-96q-15 0-25-10l-16-16q-10-10-10-25v-257q0-15 10-25l16-16q10-10 25-10h96q14 0 24 10l17 16q10 10 10 25v68q0 20-20 20h-6m274 169q0 15-10 25l-16 16q-10 10-25 10h-96q-15 0-25-10l-16-16q-10-10-10-25v-258q0-14 10-25l16-16q10-10 24-10h97q15 0 25 11l16 16q10 10 10 24v258m-66 6q20 0 20-20v-229q0-20-20-20h-67q-20 0-20 20v229q0 20 20 20h67m314-6q0 15-10 25l-16 16q-10 10-25 10h-96q-15 0-25-10l-16-16q-10-10-10-25v-258q0-14 10-25l16-16q10-10 24-10h97q15 0 25 11l16 16q10 10 10 24v258m-66 6q20 0 20-20v-229q0-20-20-20h-67q-20 0-20 20v229q0 20 20 20h67m293 0q20 0 20 20v5q0 20-20 20h-127q-14 0-24-10l-16-16q-10-10-10-25v-288q0-20 20-20h5q20 0 20 20v274q0 20 20 20h112m332 45q20 0 20 20v5q0 20-20 20h-57q-15 0-25-10l-16-16q-10-10-10-24 0-8-4-12t-12-4h-2q-15 0-25-10l-16-16q-10-10-10-24v-237q0-15 10-25l16-16q10-10 25-10h96q14 0 24 10l16 16q10 10 10 25v237q0 14-10 24l-16 16q-10 10-24 10h-12q-10 0-15 3t-5 8 5 7 15 3l42 0m-45-66q20 0 20-20v-208q0-20-20-20h-67q-20 0-20 20v208q0 20 20 20h67m128-247q7-7 15-7t16 7 7 16-7 15-16 8-15-8-8-15 8-16m-7 86q0-20 20-20h5q20 0 20 20v207q0 20-20 20h-5q-20 0-20-20v-207m151 208q0 20-20 20h-6q-20 0-20-20v-177q0-14 10-24l17-17q10-10 24-10h62q15 0 25 11l16 16q10 10 10 24v177q0 20-20 20h-5q-20 0-20-20v-162q0-20-20-20h-33q-20 0-20 20v162m270 19q20 0 20-20v-12q0-20-20-20h-46q-15 0-25-10l-16-16q-10-10-10-24v-94q0-14 10-24l16-17q10-10 25-10h92q20 0 20 20v221q0 8-3 13t-8 12l-16 16q-10 10-24 10h-88q-20 0-20-20v-5q0-20 20-20h73m-52-117q0 20 20 20h32q20 0 20-20v-64q0-20-20-20h-32q-20 0-20 20v64m371 97q0 20-20 20h-6q-20 0-20-20v-29q0-8-2-14t-9-11l-71-58q-6-6-13-6-5 0-9 5t-3 12v101q0 20-20 20h-5q-20 0-20-20v-320q0-20 20-20h5q20 0 20 20v109q0 8 3 13t8 5q6 0 14-8l72-73q10-11 10-25v-21q0-20 20-20h6q20 0 20 20v39q0 15-10 25l-84 86q-7 6-7 14 0 8 8 14l81 66q7 5 9 11t3 14v51m207-93q0 20-20 20h-77q-20 0-20 20v7q0 20 20 20h77q20 0 20 20v6q0 20-20 20h-92q-14 0-24-11l-16-16q-10-10-10-24v-145q0-15 10-25l16-16q10-10 24-10h62q14 0 24 10l16 16q10 10 10 25v83m-117-40q0 20 20 20h32q20 0 20-20v-29q0-20-20-20h-32q-20 0-20 20v29m410-187q0-20 20-20h5q20 0 20 20v320q0 20-20 20h-5q-20 0-20-20v-130q0-20-20-20h-67q-20 0-20 20v130q0 20-20 20h-6q-20 0-20-20v-320q0-20 20-20h6q20 0 20 20v104q0 20 20 20h67q20 0 20-20v-104m218 113q0-20 20-20h5q20 0 20 20v176q0 15-10 25l-16 16q-10 10-24 10h-62q-14 0-24-10l-17-16q-10-10-10-25v-176q0-20 20-20h6q20 0 20 20v162q0 20 20 20h32q20 0 20-20v-162m151 227q-14 0-24-10l-17-17q-10-10-10-24v-58q0-8 3-14t8-11l16-16q10-10 24-10h48q20 0 20-20v-1q0-20-20-20h-77q-20 0-20-20v-6q0-20 20-20h91q15 0 25 10l16 17q10 10 10 24v176q0 20-20 20h-93m68-99q0-20-20-20h-33q-20 0-20 20v38q0 20 20 20h33q20 0 20-20v-38m151 80q0 20-20 20h-6q-20 0-20-20v-177q0-14 10-24l17-17q10-10 24-10h62q15 0 25 11l16 16q10 10 10 24v177q0 20-20 20h-5q-20 0-20-20v-162q0-20-20-20h-33q-20 0-20 20v162m270 19q20 0 20-20v-12q0-20-20-20h-46q-15 0-25-10l-16-16q-10-10-10-24v-94q0-14 10-24l16-17q10-10 25-10h92q20 0 20 20v221q0 8-3 13t-8 12l-16 16q-10 10-24 10h-88q-20 0-20-20v-5q0-20 20-20h73m-52-117q0 20 20 20h32q20 0 20-20v-64q0-20-20-20h-32q-20 0-20 20v64m163-242q16 0 24 14l57 100q8 14 11 14 4 0 11-14l57-100q7-14 24-14h3q8 0 12 4t5 9-3 11l-79 138q-7 11-7 25v153q0 20-20 20h-5q-20 0-20-20v-153q0-14-7-25l-80-138q-3-5-3-11 0-6 4-9t13-4h3m378 138q10 11 10 25v145q0 15-10 25l-16 16q-10 10-25 10h-62q-14 0-24-10l-17-16q-10-10-10-25v-145q0-14 10-24l17-17q10-10 24-10h62q15 0 25 10l16 16m-36 40q0-20-20-20h-32q-20 0-20 20v116q0 20 20 20h32q20 0 20-20v-116m218-46q0-20 20-20h6q20 0 20 20v176q0 15-10 25l-16 16q-10 10-25 10h-61q-15 0-25-10l-16-16q-10-10-10-25v-176q0-20 20-20h5q20 0 20 20v162q0 20 20 20h32q20 0 20-20v-162" />
<path id="zcool-xiaowei" class="f" d="M12 657l208-300h-120q-63 0-63 57h-10v-37q0-40 43-40h217l-212 310h205v20h-268v-10m452 20q-47 0-82-23t-54-61-19-86q0-49 20-91t57-65 78-24q40 0 70 11t45 29q8 10 10 27t2 48h-10q-9-49-35-72t-67-23q-54 0-87 38t-33 122q0 39 12 73t40 55 68 22q36 0 63-18t49-52l10 7q-23 45-57 64t-80 19m333 0q-46 0-82-23t-54-63-19-89 19-89 54-63 82-23 82 23 54 63 19 89-19 89-54 63-82 23m0-20q33 0 56-19t37-54 12-82-12-83-37-53-56-19-56 19-36 53-13 83 13 82 36 54 56 19m356 20q-46 0-82-23t-54-63-19-89 19-89 54-63 82-23 82 23 54 63 19 89-19 89-54 63-82 23m0-20q33 0 56-19t37-54 12-82-12-83-37-53-56-19-56 19-36 53-13 83 13 82 36 54 56 19m228-260q0-26-7-38t-28-12h-10v-10h45q18 0 27 4t14 18 4 38v250h177v20h-222v-270m496 107l-70-102q-12-18-21-28t-23-18-36-9v-10h60q22 0 37 14t33 41l50 75 100-130h25l-112 147 80 118q15 23 33 38t39 17v10h-52q-22 0-38-16t-32-39l-60-90-113 145h-25l125-163m251-102q-12 0-20-10t-8-22q0-11 6-17t17-6q11 0 19 10t9 22q0 11-7 17t-16 6m-19 90q0-26-7-38t-28-12h-10v-10h45q18 0 27 4t14 18 4 38v175h-45v-175m171 180q-16 0-32-7t-29-22-11-41q0-38 35-54t92-16h15q0-49-13-67t-39-18q-23 0-36 9t-19 33h-23q0-17 2-27t11-18q9-9 29-13t46-4q40 0 64 21t23 84v135h-25l-17-23h-3q-9 12-26 20t-44 8m23-23q16 0 27-8t20-22v-67h-15q-37 0-58 13t-22 37q0 23 14 35t34 12m258 23q-34 0-59-17t-38-44-13-62 13-62 38-44 59-16 59 16 38 44 13 62-13 62-38 44-59 17m0-20q19 0 33-14t22-37 8-52-8-52-22-37-33-13-33 13-22 37-7 52 7 52 22 37 33 14m141-257q-10-29-21-40t-34-12v-10q3 0 7-1t10 0q28 0 50 12t36 51l67 193 53-158-12-35q-10-29-21-40t-34-12v-10q3 0 7-1t10 0q28 0 50 12t36 51l67 193 85-251h22l-115 335h-10l-74-211-72 211h-10l-97-277m492 277q-34 0-58-17t-35-44-12-62q0-34 12-62t34-44 54-16q50 0 75 28t25 82l-1 20h-152q0 42 18 68t50 27q23 0 39-10t31-30l10 7q-17 28-39 40t-51 13m47-135q0-44-13-67t-39-23q-15 0-27 11t-19 33-7 46h105m132-135q-12 0-20-10t-8-22q0-11 6-17t17-6q11 0 19 10t9 22q0 11-7 17t-16 6m-19 90q0-26-7-38t-28-12h-10v-10h45q18 0 27 4t14 18 4 38v175h-45v-175" />
<path id="zen-antique" class="f" d="M301 667q-1 0-7 0-12-1-44-2t-85 0l-132 2q-10 0-12-6t4-15q5-9 18-30t32-50 39-60 42-64 38-57 29-44 15-21h-102q-25 0-42 12t-27 30-16 32q-1 2-3 4t-5 1q-4 0-5-3t-1-4q0-2 1-12t1-23 1-24 1-17q0-13 13-13 3 0 14 1t35 0 66 1h129q9 0 11 6t-2 14q-2 3-11 17t-25 37-32 50-38 57-37 58-34 51-25 38-13 18h134q20 0 34-10t22-23 13-28 8-22q2-5 9-5 4 0 4 2t1 5q0 2 0 13t-1 27-2 27 0 17q-1 13-13 13m174 6q-57 0-89-31t-32-89q0-37 14-66t41-46 63-17q27 0 47 11t33 27 19 37 7 39q0 8-10 8h-155q-1 38 6 59t24 30 37 9q26 0 46-11t33-28q6-6 13-2t2 12q-10 15-23 28t-31 21-45 9m-61-147h104q1-24-4-43t-14-30-29-11q-24 0-38 23t-19 61m207 141q-8 0-8-9 0-8 8-8 17 0 23-7t6-26v-144q0-10-1-16t-8-6q-4-1-11-2t-10-1q-7-1-7-8 0-8 7-8 2 0 12-1t22-1 23 0 14 0q12 1 12 13v28q7-11 19-22t28-18 37-7q18 0 34 7t25 24 9 45v116q0 19 6 27t18 7q8 0 8 8 0 9-8 9-3 0-12-1t-20-1-19 0q-9 0-19 0t-20 1-12 1q-8 0-8-9 0-8 8-8 15 0 20-7t4-26v-110q0-28-10-40t-30-12q-14 0-27 9t-22 23-8 32v97q0 19 6 27t16 7q8 0 8 8 0 9-8 9-5 0-21-1t-28-1q-8 0-20 0t-22 1-14 1m436 0q-6 0-6-7 0-8 6-8 18 0 28-6t18-24q4-8 11-27t18-45 22-57 23-60 21-56 17-44 9-25 6-8 11-2 12 2 6 8q4 10 12 33t21 52 24 61 24 63 21 55 15 39q9 23 19 32t20 9q7 0 7 8 0 7-7 7-5 0-20-1t-42 0q-21 0-41 0t-24 1q-7 0-7-7 0-8 7-8 16 0 22-5t6-13-2-12q-1-1-4-10t-7-22-9-25-7-22h-135q-3 10-8 25t-9 30-3 24q0 18 9 24t26 6q6 0 6 8 0 7-6 7-5 0-19-1t-36 0q-19 0-34 0t-21 1m165-305l-64 165h122l-58-165m229 305q-7 0-7-9 0-8 7-8 17 0 23-7t7-26v-144q0-10-2-16t-8-6q-3-1-10-2t-11-1q-7-1-7-8 0-8 8-8 1 0 11-1t23-1 23 0 13 0q13 1 13 13v28q7-11 18-22t29-18 36-7q19 0 34 7t25 24 10 45v116q0 19 5 27t19 7q7 0 7 8 0 9-7 9-4 0-13-1t-19-1-20 0q-8 0-19 0t-19 1-13 1q-7 0-7-9 0-8 7-8 16 0 20-7t5-26v-110q0-28-11-40t-29-12q-14 0-28 9t-21 23-8 32v97q0 19 5 27t17 7q8 0 8 8 0 9-8 9-6 0-21-1t-28-1q-9 0-21 0t-22 1-14 1m378 6q-22 0-38-10t-16-38v-175h-35q-8 0-8-8v-2q0-3 2-5t6-3q29-10 45-30t20-57q0-8 8-8h8q3 0 6 2t2 6v85h61q8 0 8 8v4q0 8-8 8h-61v158q0 27 29 27 13 0 24-8t16-18q4-8 13-3 3 2 3 5t-1 7q-9 22-30 38t-54 17m120-6q-8 0-8-8 0-9 8-9 19 0 25-8t7-26v-142q0-14-3-19t-10-5q-3 0-12-1t-11-1q-7-2-7-9 0-8 7-8 2 0 13 0t24 0 26-1 14 0q13 0 13 12v174q0 18 6 26t22 8q7 0 7 9 0 8-7 8-4 0-14-1t-21-1-21 0q-8 0-21 0t-23 1-14 1m55-291q-15 0-26-11t-10-25 10-26 26-10 25 10 11 26-11 25-25 11m240 394q-8 0-8-8 0-8 8-8 19 0 26-8t6-26v-79q-5 5-14 13t-23 13-32 6q-26 0-50-11t-37-38-15-73q0-35 10-59t27-39 37-22 39-7q25 0 40 8t24 17 14 15q7-9 13-19t12-15q2-3 8-2t5 8q-1 5-2 26t-2 57v202q0 18 8 25t27 8q8 0 8 8 0 8-8 8-3 0-15 0t-25-1-22 0q-8 0-21 0t-23 1-15 0m-26-116q13 0 26-8t24-26 9-45v-49q0-43-16-63t-39-20q-29 0-44 24t-14 84q0 41 6 64t19 31 29 8m281 19q-35 0-58-18t-22-58v-123q0-12-2-17t-10-7q-4-1-10-2t-9-1q-7-1-7-8 0-8 7-8 2 0 12-1t23 0 24 0 14 0q12 0 12 13v146q0 26 13 38t34 12q27 0 39-17t13-39v-109q0-12-2-17t-10-7q-4-1-10-2t-9-1q-7-1-7-8 0-8 7-8 2 0 12-1t23 0 24 0 14 0q12 0 12 13v180q0 14 3 18t9 6q4 0 6 1t6 2q7 0 7 8 0 8-8 8-1 0-10 0t-20 0-20 0-12 1q-12 0-13-12 0-4 0-13t-2-13q-1 0-5 7t-13 15-22 15-33 7m312 0q-57 0-89-31t-32-89q0-37 14-66t41-46 63-17q27 0 47 11t33 27 19 37 7 39q0 8-10 8h-155q-1 38 6 59t24 30 37 9q26 0 46-11t33-28q6-6 13-2t2 12q-10 15-23 28t-31 21-45 9m-61-147h104q1-24-4-43t-14-30-29-11q-24 0-38 23t-19 61" />
<path id="zen-antique-soft" class="f" d="M301 667q-1 0-7 0-12-1-44-2t-85 0l-132 2q-10 0-12-6t4-15q5-9 18-30t32-49 39-61 41-62 36-57 28-41 13-18q3-4 1-6t-6-2h-91q-25 0-42 12t-27 30-16 32q-1 2-3 4t-5 1q-4 0-5-3t-1-4q0-2 1-12t1-23 1-24 1-17q0-13 13-13 3 0 14 1t35 0 66 1h129q9 0 11 6t-2 14q-2 3-11 17t-24 37-33 50-37 56-37 57-32 49-24 36-11 16q-2 3-1 5t5 3h124q20 0 34-10t22-23 13-28 8-22q2-5 9-5 4 0 4 2t1 5q0 2 0 13t-1 27-2 27 0 17q-1 13-13 13m174 6q-57 0-89-31t-32-89q0-37 14-66t41-46 63-17q27 0 47 11t33 27 19 37 7 39q0 8-10 8h-148q-7 0-7 8 0 35 8 54t23 28 36 8q26 0 46-11t33-28q6-6 13-2t2 12q-10 15-23 28t-31 21-45 9m-52-147h85q10 0 10-9 0-33-11-54t-36-21q-23 0-36 20t-20 56q-1 8 8 8m198 141q-8 0-8-9 0-8 8-8 17 0 23-7t6-26v-144q0-10-1-16t-8-6q-4-1-11-2t-10-1q-7-1-7-8 0-8 7-8 2 0 12-1t22-1 23 0 14 0q12 1 12 13v20q0 2 2 2t3-1q10-16 31-28t48-12q18 0 34 7t25 24 9 45v116q0 19 6 27t18 7q8 0 8 8 0 9-8 9-3 0-12-1t-20-1-19 0q-9 0-19 0t-20 1-12 1q-8 0-8-9 0-8 8-8 15 0 20-7t4-26v-110q0-28-10-40t-30-12q-14 0-27 9t-22 23-8 32v97q0 19 6 27t16 7q8 0 8 8 0 9-8 9-5 0-21-1t-28-1q-8 0-20 0t-22 1-14 1m436 0q-6 0-6-7 0-8 6-8 18 0 28-6t18-24q4-8 11-27t18-45 22-57 23-60 21-56 17-44 9-25 6-8 11-2 12 2 6 8q4 10 12 33t21 52 24 61 24 63 21 55 15 39q9 23 19 32t20 9q7 0 7 8 0 7-7 7-5 0-20-1t-42 0q-21 0-41 0t-24 1q-7 0-7-7 0-8 7-8 16 0 22-5t6-13-2-12q-1-1-3-9t-7-19-7-23-7-20q-2-6-4-7t-6-1h-123q-2 0-4 1t-2 4q-3 10-8 24t-8 28-3 22q0 18 9 24t26 6q6 0 6 8 0 7-6 7-5 0-19-1t-36 0q-19 0-34 0t-21 1m108-140h108q2 0 4-1t1-6q-4-12-10-29t-13-36-13-37-11-30-6-18q-1-2-3-3t-3 2q-1 4-6 17t-14 33-15 40-15 36-8 24q-2 8 4 8m286 140q-7 0-7-9 0-8 7-8 17 0 23-7t7-26v-144q0-10-2-16t-8-6q-3-1-10-2t-11-1q-7-1-7-8 0-8 8-8 1 0 11-1t23-1 23 0 13 0q13 1 13 13v20q0 2 1 2t3-1q11-16 32-28t47-12q19 0 34 7t25 24 10 45v116q0 19 5 27t19 7q7 0 7 8 0 9-7 9-4 0-13-1t-19-1-20 0q-8 0-19 0t-19 1-13 1q-7 0-7-9 0-8 7-8 16 0 20-7t5-26v-110q0-28-11-40t-29-12q-14 0-28 9t-21 23-8 32v97q0 19 5 27t17 7q8 0 8 8 0 9-8 9-6 0-21-1t-28-1q-9 0-21 0t-22 1-14 1m378 6q-22 0-38-10t-16-38v-171q0-4-4-4h-31q-8 0-8-8v-2q0-3 2-5t6-3q29-10 45-30t20-57q0-8 8-8h8q3 0 6 2t2 6v81q0 4 4 4h57q8 0 8 8v4q0 8-8 8h-57q-4 0-4 4v154q0 27 29 27 13 0 24-8t16-18q4-8 13-3 3 2 3 5t-1 7q-9 22-30 38t-54 17m120-6q-8 0-8-8 0-9 8-9 19 0 25-8t7-26v-142q0-14-3-19t-10-5q-3 0-12-1t-11-1q-7-2-7-9 0-8 7-8 2 0 13 0t24 0 26-1 14 0q13 0 13 12v174q0 18 6 26t22 8q7 0 7 9 0 8-7 8-4 0-14-1t-21-1-21 0q-8 0-21 0t-23 1-14 1m55-291q-15 0-26-11t-10-25 10-26 26-10 25 10 11 26-11 25-25 11m240 394q-8 0-8-8 0-8 8-8 19 0 26-8t6-26v-73q0-4-2-4t-4 2q-5 5-13 11t-20 12-30 5q-26 0-50-11t-37-38-15-73q0-35 10-59t27-39 37-22 39-7q19 0 32 6t24 13 14 13q8 9 14 1 3-4 9-13t10-14q2-3 8-2t5 8q-1 5-2 26t-2 57v202q0 18 8 25t27 8q8 0 8 8 0 8-8 8-3 0-15 0t-25-1-22 0q-8 0-21 0t-23 1-15 0m-26-116q13 0 26-8t24-26 9-45v-49q0-43-16-63t-39-20q-29 0-44 24t-14 84q0 41 6 64t19 31 29 8m281 19q-35 0-58-18t-22-58v-123q0-12-2-17t-10-7q-4-1-10-2t-9-1q-7-1-7-8 0-8 7-8 2 0 12-1t23 0 24 0 14 0q12 0 12 13v146q0 26 13 38t34 12q27 0 39-17t13-39v-109q0-12-2-17t-10-7q-4-1-10-2t-9-1q-7-1-7-8 0-8 7-8 2 0 12-1t23 0 24 0 14 0q12 0 12 13v180q0 14 3 18t9 6q4 0 6 1t6 2q7 0 7 8 0 8-8 8-1 0-10 0t-20 0-20 0-12 1q-12 0-13-12 0-3 0-9t-1-9q0-4-2-4t-4 3q-4 5-12 14t-23 16-33 7m312 0q-57 0-89-31t-32-89q0-37 14-66t41-46 63-17q27 0 47 11t33 27 19 37 7 39q0 8-10 8h-148q-7 0-7 8 0 35 8 54t23 28 36 8q26 0 46-11t33-28q6-6 13-2t2 12q-10 15-23 28t-31 21-45 9m-52-147h85q10 0 10-9 0-33-11-54t-36-21q-23 0-36 20t-20 56q-1 8 8 8m486 147q-23 0-44-6t-35-12-21-9q-5-3-10-2t-10 5q0 0 0 0-1 0-3 2t-10 10q-5 5-10 3t-4-8v-97q0-6 6-7t9 3q9 28 29 50t46 34 59 13q26 0 42-11t25-27 8-32q0-21-12-35t-32-21-43-14-47-13-43-19-32-30-12-47q0-35 17-58t45-35 60-12q17 0 34 3t31 9 22 10q12 7 19 0 5-5 7-7t3-1q4-4 9-2t4 9v85q0 7-6 8t-9-5q-11-24-28-45t-38-34-48-13q-21 0-38 9t-26 24-9 34q0 21 12 33t32 20 44 13 49 12 44 19 32 30 12 51q0 35-17 61t-46 38-67 14m278 0q-36 0-62-17t-41-44-15-64 15-64 41-44 62-16 62 16 41 44 15 64-15 64-41 44-62 17m0-17q31 0 45-30t14-78q0-47-14-77t-45-30-45 30-14 77q0 48 14 78t45 30m162 11q-8 0-8-9 0-8 8-8 21 0 30-7t10-26v-163q0-4-5-4h-36q-8 0-8-8v-4q0-8 8-8h36q5 0 5-4v-17q0-39 12-63t31-37 39-11q25 0 43 11t19 34q0 15-8 23t-25 9q-12 0-20-8t-5-26q2-10-3-16t-12-4q-8 2-13 17t-5 50v38q0 4 5 4h55q3 0 5 2t3 6v4q0 8-8 8h-55q-5 0-5 4v163q0 18 10 26t38 7q7 0 7 8 0 9-7 9-4 0-17-1t-28-1-30 0q-12 0-26 0t-26 1-14 1m291 6q-22 0-38-10t-16-38v-171q0-4-4-4h-31q-8 0-8-8v-2q0-3 2-5t6-3q29-10 45-30t20-57q0-8 8-8h8q3 0 6 2t2 6v81q0 4 4 4h57q8 0 8 8v4q0 8-8 8h-57q-4 0-4 4v154q0 27 29 27 13 0 24-8t16-18q4-8 13-3 3 2 3 5t-1 7q-9 22-30 38t-54 17" />
<path id="zen-dots" class="f" d="M399 667h-384v-61l269-231h-257v-65h373v61l-269 231h268v65m378 2h-203q-67 0-104-33t-38-98q0-65 38-98t104-33h125q44 0 67 20t24 60q0 78-91 78h-189q11 47 64 47h203v57m-81-205h-122q-51 0-63 44h185q10 0 15-6t6-17q0-21-21-21m211 203h-72v-258h224q44 0 64 22t21 57v179h-73v-170q0-30-30-30h-134v200m691 0h-219v-358h59l160 0q97 0 150 45t54 134-54 133-150 46m-6-293h-133v228h133q63 0 96-28t32-86q0-60-32-87t-96-27m477 295h-93q-67 0-104-33t-38-98q0-65 38-98t104-33h93q67 0 104 33t38 98q0 65-38 98t-104 33m-93-57h93q32 0 49-18t18-56q0-38-18-56t-49-18h-93q-32 0-50 18t-17 56q0 38 17 56t50 18m533 55h-109q-44 0-64-22t-21-57v-121h-74v-58h74v-79h73v79h107v58h-107v112q0 30 30 30h91v58m287 2h-258v-57h245q21 0 21-24 0-23-21-23h-159q-44 0-67-20t-23-58q0-39 23-60t67-20h228v57h-224q-22 0-22 21 0 11 6 17t16 6h168q39 0 59 20t21 59q0 39-21 60t-59 22" />
<path id="zen-kaku-gothic-antique" class="f" d="M253 667h-229v-30l190-291h-183v-29h220v29l-190 291h192v30m158 5q-32 0-58-15t-39-44-14-66q0-38 14-66t39-44 57-15q33 0 55 16t35 42 12 54v10h-182q-1 45 21 73t61 28q28 0 47-15t31-42l25 15q-32 69-104 69m-79-154h150q-2-19-12-35t-25-26-35-9q-30 0-51 18t-27 52m274 149h-31v-240h29l1 34q11-17 30-28t44-12q39 0 62 25t24 70v151h-30v-147q0-35-17-52t-43-18q-20 0-36 9t-25 23-8 33v152m409 0h-31v-350h31v153l168-153h42l-182 164 192 186h-42l-178-177v177m316 4q-35 1-57-16t-22-48q0-24 16-42t42-28 52-10q37 0 59 17v-41q0-33-14-44t-45-10q-20 0-45 7t-41 19l-15-24q20-13 47-21t54-9q45 0 67 18t21 64v133q0 9 5 10t24-2v22q-5 2-14 3t-16 2q-17 0-22-7t-6-26q-15 17-41 25t-49 8m1-27q24-1 45-8t33-20 11-32q-1-16-17-24t-40-7q-20 0-39 7t-31 19-12 29q0 18 14 27t36 9m233 23h-31v-361h31v219l109-98h42l-124 109 129 131h-39l-117-121v121m289 5q-38 0-62-24t-23-70v-151h30v147q0 35 16 52t44 18q30 0 49-19t19-47v-151h31v239h-29l-1-33q-10 16-30 28t-44 11m467 1q-47 0-84-23t-57-64-21-95 21-95 57-64 84-23q37 0 66 13t52 36l-21 23q-36-41-97-41-39 0-68 19t-46 53-17 79q0 45 17 79t46 54 68 19q28 0 48-5t38-17v-104h-75v-29h106v152q-16 11-45 22t-72 11m285-1q-32 0-57-16t-39-44-15-65 15-66 39-44 57-16q33 0 58 16t39 44 15 66-15 65-39 44-58 16m0-28q24 0 42-12t29-34 10-51-10-52-29-33-42-12q-35 0-58 26t-22 71q0 44 22 70t58 27m266 28q-32 0-48-13t-16-49v-155h-52v-28h52v-88h30v88h73v28h-73v150q0 23 9 31t30 8q8 0 18-2t16-6v30q-7 2-18 4t-21 2m125-5h-30v-361h30v155q11-17 30-28t44-12q38 0 62 25t23 70v151h-30v-147q0-35-17-52t-43-18q-20 0-36 9t-24 23-9 33v152m272 0h-30v-240h30v240m-15-292q-9 0-16-7t-7-16q0-10 7-16t16-7 16 7 7 16q0 10-7 16t-16 7m195 297q-32 0-57-16t-40-44-14-65 14-66 40-44 57-15q25 0 47 10t37 30l-24 18q-22-30-60-30-35 0-58 26t-23 71 23 70 58 27q38 0 60-30l24 18q-32 40-84 40m291-5h-34l141-350h27l140 350h-34l-42-106h-156l-42 106m120-307l-68 172h135l-67-172m231 307h-31v-240h29l1 34q11-17 30-28t44-12q39 0 62 25t24 70v151h-30v-147q0-35-17-52t-43-18q-20 0-36 9t-25 23-8 33v152m317 5q-32 0-48-13t-16-49v-155h-52v-28h52v-88h30v88h73v28h-73v150q0 23 9 31t30 8q8 0 18-2t16-6v30q-7 2-18 4t-21 2m133-5h-30v-240h30v240m-15-292q-9 0-16-7t-7-16q0-10 7-16t16-7 16 7 7 16q0 10-7 16t-16 7m307 396h-31v-147q-12 22-33 35t-48 13q-32 0-57-16t-40-44-14-65 14-66 40-44 57-16q27 0 49 13t34 37l1-44h28v344m-111-127q23 0 41-12t29-34 11-51-11-52-29-33-41-12-42 12-29 33-11 52 11 51 29 34 42 12m266 28q-38 0-61-24t-24-70v-151h30v147q0 35 17 52t43 18q31 0 50-19t19-47v-151h30v239h-28l-1-33q-11 16-30 28t-45 11m277 0q-33 0-58-15t-40-44-14-66q0-38 14-66t40-44 57-15q32 0 55 16t35 42 12 54v10h-182q-1 45 21 73t60 28q28 0 47-15t31-42l25 15q-32 69-103 69m-79-154h150q-3-19-13-35t-25-26-34-9q-31 0-52 18t-26 52" />
<path id="zen-kaku-gothic-new" class="f" d="M253 667h-229v-30l190-291h-183v-29h220v29l-190 291h192v30m158 5q-32 0-58-15t-39-44-14-66q0-38 14-66t39-44 57-15q33 0 55 16t35 42 12 54v10h-182q-1 45 21 73t61 28q28 0 47-15t31-42l25 15q-32 69-104 69m-79-154h150q-2-19-12-35t-25-26-35-9q-30 0-51 18t-27 52m274 149h-31v-240h29l1 34q11-17 30-28t44-12q39 0 62 25t24 70v151h-30v-147q0-35-17-52t-43-18q-20 0-36 9t-25 23-8 33v152m409 0h-31v-350h31v153l168-153h42l-182 164 192 186h-42l-178-177v177m316 4q-35 1-57-16t-22-48q0-24 16-42t42-28 52-10q37 0 59 17v-41q0-33-14-44t-45-10q-20 0-45 7t-41 19l-15-24q20-13 47-21t54-9q45 0 67 18t21 64v133q0 9 5 10t24-2v22q-5 2-14 3t-16 2q-17 0-22-7t-6-26q-15 17-41 25t-49 8m1-27q24-1 45-8t33-20 11-32q-1-16-17-24t-40-7q-20 0-39 7t-31 19-12 29q0 18 14 27t36 9m233 23h-31v-361h31v219l109-98h42l-124 109 129 131h-39l-117-121v121m289 5q-38 0-62-24t-23-70v-151h30v147q0 35 16 52t44 18q30 0 49-19t19-47v-151h31v239h-29l-1-33q-10 16-30 28t-44 11m467 1q-47 0-84-23t-57-64-21-95 21-95 57-64 84-23q37 0 66 13t52 36l-21 23q-36-41-97-41-39 0-68 19t-46 53-17 79q0 45 17 79t46 54 68 19q28 0 48-5t38-17v-104h-75v-29h106v152q-16 11-45 22t-72 11m285-1q-32 0-57-16t-39-44-15-65 15-66 39-44 57-16q33 0 58 16t39 44 15 66-15 65-39 44-58 16m0-28q24 0 42-12t29-34 10-51-10-52-29-33-42-12q-35 0-58 26t-22 71q0 44 22 70t58 27m266 28q-32 0-48-13t-16-49v-155h-52v-28h52v-88h30v88h73v28h-73v150q0 23 9 31t30 8q8 0 18-2t16-6v30q-7 2-18 4t-21 2m125-5h-30v-361h30v155q11-17 30-28t44-12q38 0 62 25t23 70v151h-30v-147q0-35-17-52t-43-18q-20 0-36 9t-24 23-9 33v152m272 0h-30v-240h30v240m-15-292q-9 0-16-7t-7-16q0-10 7-16t16-7 16 7 7 16q0 10-7 16t-16 7m195 297q-32 0-57-16t-40-44-14-65 14-66 40-44 57-15q25 0 47 10t37 30l-24 18q-22-30-60-30-35 0-58 26t-23 71 23 70 58 27q38 0 60-30l24 18q-32 40-84 40m320-5h-30v-350h30l198 295v-295h31v350h-30l-199-298v298m406 5q-33 0-58-15t-40-44-14-66q0-38 14-66t40-44 57-15q32 0 55 16t35 42 12 54v10h-182q-1 45 21 73t60 28q28 0 47-15t31-42l25 15q-32 69-103 69m-79-154h150q-3-19-13-35t-25-26-34-9q-31 0-52 18t-26 52m309 149h-24l-75-240h30l58 191 56-191h25l56 191 58-191h30l-75 240h-25l-56-191-58 191" />
<path id="zen-kurenaido" class="f" d="M223 667h-187q-7 0-10-7-2-2-2-6 0-4 2-6 48-82 80-137t52-89 30-51 14-23 4-6h-157q-5 0-8-4t-4-9 4-9 8-3h179q7 0 10 6 2 2 2 6 0 3-2 7-48 82-80 137t-53 88-30 51-13 24-4 6h165q6 0 9 3t4 9q0 5-4 9t-9 4m155 6q-42 0-67-29t-24-79q0-51 24-80t67-29q37 0 62 26t28 69v1q0 5-4 8-3 4-8 4h-145q0 38 16 62t51 23q18 0 34-8t24-20q3-4 8-5t9 2q4 3 5 8t-2 9q-12 17-33 28t-45 10m-66-133h130q-5-28-22-44t-42-15q-27 0-44 15t-22 44m224 133q-5 0-9-3t-3-8v-194q0-5 3-9t9-3 8 3 4 9v16q11-13 27-20t35-8q34 0 54 23t20 62v120q0 5-4 8t-8 4-8-4-4-8v-120q0-12-3-26t-15-24-32-10q-29 0-46 16t-16 45v120q0 5-4 8t-8 3m361 0q-5 0-9-3t-3-9v-339q0-5 3-9t9-4q6 0 9 4t4 9v186l181-194q3-4 8-4t9 4q4 3 4 8t-4 9l-117 126 127 197q3 4 2 9t-5 8q-5 3-10 2t-8-5l-123-192-64 69v116q0 5-4 9t-9 3m347 0q-34 0-54-22t-20-62v-120q0-5 3-8t9-4 8 4 4 8v120q0 11 3 25t14 25 33 11q30 0 46-16t16-46v-119q0-5 4-9t8-4 8 4 4 9v193q0 5-4 8t-8 3-8-3-4-8v-16q-11 13-27 20t-35 7m155 0q-5 0-9-3t-3-8v-193q0-5 3-9t9-3 8 3 3 9v12q8-9 21-16t26-8q18-3 36 2t32 18 20 33q1 5-1 9t-7 6q-5 1-10-2t-5-7q-4-14-14-23t-23-11-24-1q-22 2-36 16t-15 43v122q0 4-3 8t-8 3m280 0q-43 0-67-29t-25-79q0-51 25-80t67-29q37 0 62 26t27 69v1q0 5-3 8-3 4-9 4h-145q0 38 16 62t52 23q18 0 33-8t25-20q3-4 7-5t9 2q4 3 5 8t-2 9q-12 17-33 28t-44 10m-66-133h129q-5-28-22-44t-41-15q-27 0-44 15t-22 44m223 133q-5 0-8-3t-3-8v-194q0-5 3-9t8-3 9 3 3 9v16q12-13 28-20t34-8q35 0 54 23t20 62v120q0 5-3 8t-8 4-9-4-3-8v-120q0-12-4-26t-14-24-33-10q-29 0-45 16t-17 45v120q0 5-3 8t-9 3m360 1q-5 0-8-4t-4-8v-4l-61 12q-23 5-39 3t-27-10q-8-7-13-17t-6-22q-3-29 13-48t49-24l84-14v-14q0-10-3-22t-13-16q-8-5-21-5-31 0-76 28-5 2-9 1t-7-5q-3-5-2-10t5-6q30-18 52-25t37-7q11 0 18 2t14 6q14 8 22 23t7 36v138q0 5-3 8t-9 4m-77-28l65-12v-72l-80 13q-20 4-30 12t-11 17-1 18q1 15 9 21 12 9 48 3m209 28q-5 0-9-4t-3-8v-174h-57q-5 0-9-4t-3-9 3-8 9-3h69q5 0 9 3t3 8v187q0 5-3 8t-9 4m-6-301q-7 0-12-4t-4-9v-31q0-5 4-9t12-4 11 4 4 9v31q0 5-4 9t-11 4m248 301q-5 0-8-4t-3-8v-21q-12 15-28 23t-38 9q-43 0-67-29t-25-79q0-51 25-80t67-29q21 0 38 9t28 24v-176q0-5 3-8t8-4 9 4 3 8v349q0 5-3 8t-9 4m-77-25q32 0 49-22t17-62q0-40-17-62t-49-22-50 22-18 62q0 40 18 62t50 22m242 24q-43 0-67-29t-25-79q0-51 25-80t67-29q42 0 66 29t25 80q0 50-25 79t-66 29m0-24q32 0 50-22t17-62q0-40-17-62t-50-22q-32 0-50 22t-18 62q0 40 18 62t50 22" />
<path id="zen-loop" class="f" d="M142 667h-129q-5 0-5-5 0-2 1-5l121-325h-112q-5 0-5-5 0-5 5-5h119q5 0 5 4 0 1-1 4l-121 326h122q5 0 5 5 0 6-5 6m81 2q-17 0-31-16t-20-43-7-63 7-63 20-43 30-15q15 0 26 12t18 35 6 51q0 8-8 8h-88q0 8 0 15 0 32 6 57t16 40 25 15q13 0 22-11t15-29q1-5 5-5 4 0 5 3t0 6q-7 21-19 34t-28 12m-1-233q-17 0-30 24t-15 62h85q-1-37-12-61t-28-25m100 231q-5 0-5-5v-229q0-5 5-5 6 0 6 5v20q10-15 21-21t25-6q42 0 42 55v181q0 5-6 5-5 0-5-5v-181q0-24-8-35t-23-10q-15 0-27 9t-19 24v193q0 5-6 5m392 0h-118q-5 0-5-5v-335q0-5 5-5 5 0 5 5v329h113q5 0 5 5 0 6-5 6m87 2q-17 0-30-15t-20-43-7-64 7-63 20-43 30-15 30 15 20 43 8 63-8 63-20 43-30 16m0-10q14 0 24-15t17-40 6-57-6-57-17-39-24-15q-13 0-23 15t-17 39-6 57 6 57 17 40 23 15m160 10q-17 0-30-15t-20-43-7-64 7-63 20-43 30-15 29 15 21 43 7 63-7 63-21 43-29 16m0-10q13 0 24-15t16-40 6-57-6-57-16-39-24-15q-13 0-24 15t-16 39-6 57 6 57 16 40 24 15m154 10q-21 0-36-22v108q0 5-5 5-5 0-5-5v-305q-9 4-17 11-1 1-3 1-6 0-6-5 0-3 2-4 12-9 24-16v-28q0-5 5-5 5 0 5 5v24q17-7 31-7 30 0 44 32t14 89q0 36-6 63t-18 43-29 16m-5-233q-13 0-31 8v186q7 14 17 21t19 8q14 0 23-15t14-40 5-57q0-52-11-81t-36-30" />
<path id="zen-maru-gothic" class="f" d="M236 667h-196q-16 0-16-15v-4q0-10 6-20l184-282h-167q-16 0-16-15t16-14h188q16 0 16 14v4q0 10-6 20l-184 282h175q17 0 17 15 0 15-17 15m175 5q-32 0-58-15t-39-44-14-66q0-38 14-66t39-44 57-15q33 0 55 16t35 40 12 50q0 9-4 13t-12 3h-166q-1 45 21 73t61 28q47 0 70-43 10-13 20-7 13 9 4 23-32 54-95 54m-79-154h150q-2-19-12-35t-25-26-35-9q-30 0-51 18t-27 52m259 149q-16 0-16-17v-206q0-17 15-17t14 11l1 23q11-17 30-28t44-12q39 0 62 25t24 70v134q0 17-15 17t-15-17v-130q0-35-17-52t-43-18q-20 0-36 9t-25 23-8 33v135q0 17-15 17m409 0q-16 0-16-17v-317q0-16 18-16 13 0 20 11l113 169 113-169q4-7 9-9t12-2q17 0 17 16v317q0 17-16 17-16 0-16-17v-280l-104 158q-6 11-15 11-9 0-15-11l-105-158v280q0 17-15 17m429 4q-35 1-57-16t-22-48q0-24 16-42t42-28 52-10q37 0 59 17v-41q0-33-14-44t-45-10q-17 0-37 5t-35 13q-15 6-22-4-7-13 8-20 19-10 42-16t44-6q45 0 67 18t21 64v133q0 6 3 8t10 1q7 0 11 2t5 8q0 12-13 14-4 1-8 2t-9 0q-17 0-22-7t-6-26q-15 17-41 25t-49 8m1-27q24-1 45-8t33-20 11-32q-1-16-17-24t-40-7q-20 0-39 7t-31 19-12 29q0 18 14 27t36 9m218 23q-16 0-16-17v-206q0-17 16-17 6 0 10 3t5 11v28q10-21 31-35t49-13q13 0 20 4t8 13q0 7-5 11t-10 3q-3 0-8-1t-8 0q-21 0-39 9t-28 26-10 37v127q0 17-15 17m253 5q-38 0-61-24t-24-70v-134q0-17 15-17t15 17v130q0 35 17 52t43 18q31 0 50-19t19-47v-134q0-17 15-17 15 0 15 17v206q0 16-14 16-14 0-14-11l-1-22q-11 16-30 28t-45 11m468 1q-47 0-84-23t-58-64-21-95 21-95 58-64 84-23q31 0 58 10t47 28q13 11 2 23-9 10-23 0-34-30-84-30-39 0-69 19t-46 53-16 79q0 45 16 79t46 54 69 19q27 0 47-5t39-17v-104h-59q-16 0-16-15 0-14 16-14h73q17 0 17 16v123q0 14-7 18-16 9-43 19t-67 9m285-1q-32 0-57-16t-40-44-14-65 14-66 40-44 57-16q32 0 57 16t40 44 14 66-14 65-40 44-57 16m0-28q23 0 41-12t29-34 11-51-11-52-29-33-41-12q-35 0-58 26t-23 71q0 44 23 70t58 27m265 28q-32 0-48-13t-16-49v-155h-35q-17 0-17-14 0-14 17-14h35v-71q0-17 15-17t15 17v71h57q16 0 16 14 0 14-16 14h-57v150q0 23 10 31t29 8q3 0 5 0t6 0q10-1 16 0t7 11q0 11-12 14t-27 3m111-5q-16 0-16-17v-328q0-16 16-16 15 0 15 16v139q10-17 29-28t44-12q39 0 62 25t24 70v134q0 17-15 17t-15-17v-130q0-35-17-52t-43-18q-20 0-36 9t-25 23-8 33v135q0 17-15 17m272 0q-15 0-15-17v-206q0-17 15-17t15 17v206q0 17-15 17m0-292q-10 0-17-7t-7-16q0-10 7-16t17-7 16 7 6 16q0 10-6 16t-16 7m194 297q-32 0-57-16t-39-44-15-65 15-66 39-44 57-15q43 0 73 28 6 5 6 11t-6 10q-6 4-11 4t-11-6q-22-19-51-19-35 0-58 26t-22 71 22 70 58 27q30 0 50-19 6-5 11-6t12 3q5 5 6 10t-6 12q-30 28-73 28" />
<path id="zen-old-mincho" class="f" d="M297 667q-1 0-7 0-12 0-45-1t-85 0l-135 1q-10 0-12-7t5-14q8-9 23-30t36-48 42-59 43-62 39-55 29-42 13-20q3-4 1-6t-6-3h-106q-25 0-42 10t-27 26-16 29q-2 4-5 5t-5 0q-6 0-6-7 0-2 0-11t1-21 1-23 1-13q1-12 13-12 3 0 14 0t35 0 67 1h129q9 0 11 6t-2 14q-2 2-12 16t-25 37-36 50-40 57-40 57-35 50-26 36-11 16q-2 2-1 4t5 2l139-1q20 0 34-7t22-19 14-24 9-22q1-4 3-5t6 0q7 1 7 7 0 2-1 12t-1 23-1 25-1 16q0 12-13 12m170 6q-32 0-57-15t-38-39-14-56q0-22 8-43t22-38 34-26 42-10q25 0 42 10t29 27 17 34 6 32q0 8-9 8h-135q-5 0-6 1t-2 6q0 33 9 52t24 27 33 8q18 0 31-7t23-15 14-15q5-7 12-2 6 4 2 11-5 9-16 20t-29 21-42 9m-51-136h83q10 0 10-8 0-14-4-30t-14-26-28-11q-15 0-26 10t-17 26-10 33q-2 6 6 6m188 130q-7 0-7-8t7-8q15 0 19-6t5-19v-134q0-8-1-14t-8-6q-4-1-9-2t-7-1q-7-1-7-8 0-3 2-6t5-2q2 0 9-1t16 0 18 0 10 0q12 0 12 12v18q0 1 1 1t3-1q10-13 26-25t36-11q16 0 31 5t23 21 10 43v110q0 14 4 20t15 6q7 0 7 8t-7 8q-5 0-17-1t-23 0q-12 0-23 0t-17 1q-7 0-7-8t7-8q14 0 17-6t3-19v-105q0-25-10-36t-26-11q-13 0-25 8t-20 21-7 30v92q0 14 3 20t14 6q7 0 7 8t-7 8q-5 0-15-1t-23 0-26 0-18 1m549 6q-33 0-61-13t-51-38-34-59-12-77q0-43 13-78t35-59 50-38 60-13 59 13 51 38 35 59 13 78q0 42-12 77t-35 59-50 38-61 13m0-18q27 0 51-16t38-52 15-101-15-102-38-53-51-15q-27 0-51 15t-39 53-14 102 14 101 39 52 51 16m214 12q-7 0-7-8t7-8q18 0 22-6t5-19v-281q0-12-3-17t-9-4q-3-1-9-2t-9-1q-7-1-7-8 0-3 2-6t5-2q2 0 10-1t19 0 19 0 11 0q12 0 12 12v309q0 14 4 20t21 6q7 0 7 8t-7 8q-5 0-20-1t-26 0q-12 0-27 0t-20 1m226 6q-20 0-41-11t-35-35-14-63q0-30 9-52t22-37 29-22 28-7q23 0 37 8t23 16q3 3 4 2t2-4v-123q0-10-4-15t-11-6q-4-1-11-2t-10-1q-7-1-7-8 0-3 2-6t5-2q2 0 11-1t20 0 22 0 12 0q12 0 12 12v309q0 12 2 16t9 6q3 1 7 1t7 2q6 0 6 8 0 8-7 8-1 0-9 0t-17 0-18 0-10 1q-12 0-12-11v-12q0-3-1-4t-4 3q-4 4-12 11t-19 13-27 6m10-19q12 0 24-9t21-25 9-38v-56q0-16-7-30t-18-22-29-9q-30 0-42 28t-13 74q0 29 5 46t14 26 18 12 18 3m300 13q-7 0-7-8 0-4 1-6t6-3q17 0 28-15t10-52v-228q0-23-10-29t-26-6q-4 0-6-2t-1-6q0-3 1-6t6-2q4 0 22 0t56 1q9 0 14 3t7 10q1 3 7 18t13 39 18 49 19 53 18 48 12 36 6 14q1 3 3 2t2-2q1-3 6-17t13-37 17-48 18-52 17-48 13-36 6-17q3-8 8-12t14-3q37 0 53-1t20 0 5 2 2 6q0 3-2 6t-5 2q-15 0-24 6t-9 24v268q0 20 8 26t23 6q3 0 5 3t2 6q0 8-7 8-5 0-20-1t-38 0-38 0-20 1q-7 0-7-8 0-4 2-6t5-3q19 0 30-5t11-27v-279q0-3-3-3t-3 2q0 2-7 19t-15 44-21 59-23 65-21 60-16 46-7 21q-2 5-7 5t-6-4q0-2-7-19t-17-45-23-59-24-64-23-58-16-43-6-16q-1-2-3-2t-2 3v233q0 26 6 40t16 21 21 6q3 0 5 3t2 6q0 8-7 8-5 0-17-1t-33 0q-26 0-36 0t-14 1m438 0q-7 0-7-8t7-8q17 0 22-6t4-20v-132q0-12-2-17t-9-4q-4-1-10-2t-9-1q-6-1-6-8 0-3 2-6t5-2q1 0 9-1t19 0 19 0 12 0q11 0 11 12v161q0 14 4 20t19 6q7 0 7 8t-7 8q-5 0-18-1t-25 0q-12 0-27 0t-20 1m43-287q-11 0-19-8t-8-19q0-12 8-20t19-8 20 8 8 20q0 11-8 19t-20 8m97 287q-7 0-7-8t7-8q15 0 20-6t4-19v-134q0-8-1-14t-8-6q-3-1-8-2t-8-1q-6-1-6-8 0-3 1-6t6-2q1 0 8-1t17 0 17 0 11 0q11 0 11 12v18q0 1 1 1t4-1q9-13 25-25t37-11q16 0 30 5t24 21 9 43v110q0 14 4 20t15 6q7 0 7 8t-7 8q-5 0-16-1t-23 0q-12 0-24 0t-16 1q-7 0-7-8t7-8q14 0 16-6t3-19v-105q0-25-9-36t-27-11q-13 0-25 8t-19 21-8 30v92q0 14 4 20t14 6q7 0 7 8t-7 8q-5 0-16-1t-22 0-26 0-19 1m354 6q-26 0-50-12t-39-36-16-62q0-31 14-58t39-43 59-16q18 0 35 6t27 17 11 28q0 12-9 22t-20 11q-11 0-19-7t-8-17q0-14 14-24 6-5-1-11t-27-6q-9 0-20 4t-23 16-17 31-7 47q0 40 19 64t46 24q19 0 33-9t22-19 13-19q3-8 11-4 7 3 5 10-4 11-15 26t-29 26-48 11m118-6q-3 0-5-3t-2-5q0-4 2-6t5-3q18 0 22-5t5-19v-281q0-12-3-17t-9-4q-3-1-9-2t-9-1q-7-1-7-8 0-3 2-6t5-2q2 0 10-1t19 0 19 0 11 0q12 0 12 12v165q0 2 1 2t3-1q11-14 26-25t37-11q16 0 30 6t23 22 9 49v102q0 14 3 20t12 5q4 0 5 3t2 6q0 3-2 5t-5 3q-5 0-15-1t-21 0q-12 0-23 0t-17 1q-3 0-5-3t-2-5q0-4 2-6t5-3q14 0 17-5t3-19v-99q0-29-9-42t-28-13q-12 0-24 8t-20 20-7 29v96q0 14 4 20t16 5q4 0 5 3t2 6q0 3-2 5t-5 3q-5 0-17-1t-24 0-27 0-20 1m354 6q-29 0-53-16t-37-41-14-57 14-57 37-41 53-15q29 0 52 15t38 41 14 57-14 57-38 41-52 16m0-16q28 0 42-27t14-71-14-71-42-27q-28 0-42 27t-14 71 14 71 42 27" />
<path id="zen-tokyo-zoo" class="f" d="M100 667h-18l250-402h17l-249 402m-77 0h-18l250-402h17l-249 402m38 0h-17l249-402h18l-250 402m164-387h-184v-15h193l-9 15m-21 33h-163v-15h173l-10 15m-20 33h-143v-15h152l-9 15m129 255h-154l9-15h145v15m0 33h-175l10-15h165v15m0 33h-195l9-15h186v15m204 0h-120v-201h120v15h-105v18h105v15h-105v28h89v15h-89v18h89v15h-89v29h105v15h-105v18h105v15m-138 0h-15v-201h15v201m182 0h-15v-201h15v201m167 0h-15v-201h15v201m-48-26v-30l-86-120v31l86 119m-86 26h-15v-201h15l86 119v-119h15v201h-15l-86-120v120m609-387h-310v-15h310v15m0 33h-310v-15h310v15m0 33h-310v-15h310v15m-114 321h-15v-305h15v305m-66 0h-15v-305h15v305m33 0h-15v-305h15v305m329-101q0-26-12-46t-34-32-47-12-48 12-34 32-12 46q0 26 12 46t34 33 48 12 47-12 34-33 12-46m-33 0q0-25-17-41t-43-16-44 16-17 41q0 25 17 41t44 17 43-17 17-41m-60 73q-22 0-39-10t-27-26-10-37 10-37 27-26 39-9 38 9 27 26 10 37-10 37-27 26-38 10m0 33q-31 0-55-14t-39-38-15-54q0-30 15-54t39-37 55-14 55 14 39 37 14 54q0 30-14 54t-39 38-55 14m309-5h-20l-92-115 49-86h18l-49 84 12 15 58-99h17l-65 111 72 90m-118 0h-15v-201h15v107l75 94h-19l-56-70v70m-33 0h-15v-201h15v201m291-98h-19l-71-103h19l41 60 42-60h18l-50 74 10 16 62-90h19l-71 103m-41 0h-18l-71-103h18l71 103m35 98h-15v-86h15v86m-33 0h-15v-86h15v86m312-101q0-26-13-46t-33-32-48-12-48 12-33 32-12 46q0 26 12 46t33 33 48 12 48-12 33-33 13-46m-33 0q0-25-18-41t-43-16-43 16-17 41q0 25 17 41t43 17 43-17 18-41m-61 73q-21 0-38-10t-27-26-10-37 10-37 27-26 38-9 39 9 27 26 10 37-10 37-27 26-39 10m0 33q-30 0-55-14t-39-38-14-54q0-30 14-54t39-37 55-14 55 14 39 37 15 54q0 30-15 54t-39 38-55 14m363-5h-17l249-402h18l-250 402m-77 0h-17l249-402h18l-250 402m39 0h-18l250-402h17l-249 402m163-387h-183v-15h192l-9 15m-20 33h-163v-15h172l-9 15m-21 33h-142v-15h152l-10 15m130 255h-155l10-15h145v15m0 33h-175l9-15h166v15m0 33h-195l9-15h186v15m248-101q0-26-13-46t-33-32-48-12-48 12-33 32-12 46q0 26 12 46t33 33 48 12 48-12 33-33 13-46m-33 0q0-25-18-41t-43-16-43 16-17 41q0 25 17 41t43 17 43-17 18-41m-61 73q-21 0-38-10t-27-26-10-37 10-37 27-26 38-9 39 9 27 26 10 37-10 37-27 26-39 10m0 33q-30 0-55-14t-39-38-14-54q0-30 14-54t39-37 55-14 55 14 39 37 15 54q0 30-15 54t-39 38-55 14m341-106q0-26-13-46t-33-32-48-12-48 12-33 32-12 46q0 26 12 46t33 33 48 12 48-12 33-33 13-46m-33 0q0-25-18-41t-43-16-43 16-17 41q0 25 17 41t43 17 43-17 18-41m-61 73q-21 0-38-10t-27-26-10-37 10-37 27-26 38-9 39 9 27 26 10 37-10 37-27 26-39 10m0 33q-30 0-55-14t-39-38-14-54q0-30 14-54t39-37 55-14 55 14 39 37 15 54q0 30-15 54t-39 38-55 14" />
<path id="zeyada" class="f" d="M85 626q0-17 11-36t26-36 34-37 34-38 26-38 10-40q0-14-7-22t-19-10-23-4-24-1q-8 0-19 1t-21 2-21 4-20 6q-1 1-4 3t-8 4-8 4-5 1q-1 1-3 1t-4 1-6 0-4 0q-1 0-4 0t-5 0-5-1-3-1q-4-1-4-3t-1-5q0-6 10-11t25-9 33-7 36-4 31-2 19-1q15 0 30 2t28 9 20 18 8 29q0 21-11 40t-26 39-34 36-35 36-26 35-10 35q0 6 1 12t8 8q1 0 3 0t5 0 4 0 3 0q8 0 14-1t11-2 12-3 17-8q3-1 10-4t17-7 19-9 20-9 16-8 11-5h18q0 3-1 5t-4 4l-132 64q-1 0-4 0t-7 1-8 2-7 1h-7q-18 0-29-11t-11-30m242-27l-12 7q-3 2-5 1t-3-3-1-5 0-4q0-9 2-12t6-3 9-2 8-9q6-12 11-26t11-25 17-19 29-7q3 0 7 0t7 2 5 4 2 7q0 10-5 18t-12 15-17 12-16 12-12 11-5 13v46q0 6 4 9t9 5 11 3 9 1q12 0 24-4t22-11 21-14 19-14q3-2 5-5t4-5 5-4 7-3q0 0 0 2t0 2q0 4-1 7t-3 6q-11 12-23 23t-26 19-29 13-32 5-26-5-15-14-7-22-4-27m51-69q0-1-2 0t-4 3-3 4 0 2q3 0 6-3t3-6m72 358q-3-18-5-39t-3-47q0-4 0-15t1-22 3-26 5-25 7-21 9-13v4q0 14-2 29t-4 28-5 29-2 29q0 6 1 17t2 24 4 28 8 25 12 18 16 7q13 0 26-8t25-22 22-30 19-34 15-33 8-26q3-16 6-34t6-37 4-37 2-37q0-1 0-3t0-5-1-5 0-4q-6 7-14 17t-16 16-19 14-22 5q-9 0-16-6t-11-14-6-19-2-17q-1-5-1-16t-1-25-2-24 0-16l-5-5q-3 2-9 6t-11 8-12 6-10 2q-6 0-10-4t-4-9q0-2 5-7t12-9 16-9 17-9 15-7 10-2q2 0 7 0t4 5v115q0 3 1 8t3 12 5 10 8 4q2 0 6-2t8-3 7-4 4-4q17-15 31-33t21-39q0-2 1-7t3-11 3-12 1-9q0-3 1-7t1-9 3-7 8-3q8 0 8 4t1 11q0 6-1 12t-2 13-2 12 1 13q-6 91-23 164t-41 121-50 75-49 23q-8 0-16-3t-15-10-12-14-8-16m350-281q-8 9-17 19t-21 18-22 14-25 5q-26 0-26-25 0-10 9-27t22-35 30-36 33-29 31-14 22 8q0 13-2 26t-3 27-4 25-2 26q0 3 0 9t3 12 5 11 7 5q12 0 20-3t13-7 10-10 8-11 11-10 15-8q0 0 0 2t0 2q0 12-7 24t-19 22-25 15-27 5q-11 0-18-6t-11-15-6-20-4-19m9-64q4-16 3-22t-7-4-15 8-20 17-21 22-20 23-16 20-7 13q-3 11-1 17t7 8 10 1 10-5q8-7 21-20t25-26 20-28 11-24m188 94h-55q-9 0-15-6t-11-14-6-18-2-16q0-15 5-31t15-31 22-27 27-19q5-3 10-3t8 0 5-3 2-11v-81q0-4 4-8t9-5q2 0 4 3t2 5 2 6 0 5q0 55-1 109t-1 110q3 0 7-2t9-3 8-4 8-3q0 0 0 2t1 2q0 7-5 11t-11 8-11 7-8 9q0 1-1 6t-2 14-4 13-8 5q-6 0-9-4t-1-9 1-10 2-7m-72-54q0 16 10 27t26 10q4 0 8 0t10 0 9-3 6-6q-1-13-1-25t2-24 2-24 1-25q0-6-2-9t-9-4q-13 0-24 9t-20 21-14 28-4 25m256 24q-8 9-17 19t-21 18-23 14-24 5q-26 0-26-25 0-10 8-27t23-35 30-36 33-29 31-14 22 8q0 13-2 26t-4 27-3 25-2 26q0 3 0 9t3 12 4 11 8 5q12 0 19-3t14-7 9-10 9-11 11-10 15-8q0 0 0 2t0 2q0 12-7 24t-19 22-25 15-27 5q-12 0-18-6t-11-15-6-20-4-19m8-64q5-16 4-22t-7-4-15 8-20 17-22 22-20 23-15 20-7 13q-3 11-1 17t7 8 10 1 10-5q8-7 21-20t24-26 21-28 10-24" />
<path id="zhi-mang-xing" class="f" d="M146 306l15 0q52 0 69 43 3 9 3 17 0 24-21 45t-60 56-55 49q-38 36-38 59 0 14 19 14 37 0 118-14l4 0q7 0 7 6t-3 15q-13 43-98 43-29 0-47-7t-29-30q-6-13-6-28 0-29 25-58t71-79 59-64 13-19q0-8-36-8-18 0-53 3-29 17-74 17-12 0-18-4t-6-18 4-23 19-16 49-18 41-12 9 3 6 13l4 8q3 7 9 7m242 266q0 39-14 60-11 14-19 14t-16-8q-28-32-28-78 0-15 3-31 6-27 6-35t-1-8q-3 0-39 137-5 14-10 14-13 0-32-46-10-22-10-53 0-35 4-59t6-30 3-19 4-16q6-25 8-36-12 0-12-7 0-4 3-8 27-43 39-77 2-8 8-8 8 0 12 15t4 27q0 29-19 47-23 139-23 146t2 7 7-9 17-36 19-38q11-19 28-19 27 0 27 51 0 41-19 103 0 2 0 4 0 6 5 6t18-15 16-14 3 19m106-274q0 16-14 45t-26 43q-2 3-6 3-13 0-13-20t18-56q3-8 4-16t1-9 1-2 0-2 1-2 1-2 1-1q1-1 8-1t15 6 9 14m5 222q6-9 8-9t3 13 2 33-10 44-28 39q-11 8-20 8t-14-4-10-12q-8-12-15-31t-7-41 3-45 4-30-8-20-8-15 1-5 5-6 5-4 7-5q11-10 21-10t16 7 7 22-7 61q-10 57-10 65t5 9q10 0 50-64m469-39q2 0 2 5t0 11q-8 95-48 139-13 15-42 16-36-13-36-64 0-9 2-23t33-193q-44 89-56 217-2 15-3 22-2 16-13 16-16 0-33-23-6-8-6-20t0-27 3-32 3-28 5-32 5-28 5-31 6-29q-8 8-14 23t-9 24-7 22-6 23-6 23-4 20q-4 13-12 49t-10 44-4 15-2 8-2 7q-4 7-13 7t-15-7-8-11-6-13-3-14 3-17 7-31 6-24 5-22 5-24 5-23 4-24 4-22 4-24q5-33 6-46v-4q0-9-4-9t-13 14-12 22-5 20q-7 70-36 113-4 5-11 5t-16-8-8-16q0-51 34-118 14-26 22-76 14 20 17 27t7 6q2 0 9-6t21-6 22 7 11 16 3 27q3-2 11-9 16-14 28-14t22 13 9 27q6-7 22-34 11-18 30-18 32 0 32 28 0 13-12 72t-18 97-5 73v9q16-14 32-35t23-34 24-41q4-7 6-7m121 95q-41 73-63 73-15 0-28-19-3-5-7-16t-10-19-6-25 6-27q41-81 87-111 6-4 14-4t20 9q7 7 8 12 3 11 3 13 17 6 17 22 0 11-6 50t-7 58q0 10 7 10 8 0 29-28t24-28q5 0 5 17l-1 24q0 14-13 38t-32 25q-12 0-19-8-2-3-7-10-16-23-21-56m4-116q-63 58-80 132 51-44 80-132m262 71q0 24-3 42t-18 48-30 31q-7 0-13-7-29-36-29-68 0-9 6-43 9-51 9-57t-2-6-3 4q-13 23-21 52t-11 50-5 56q0 12-7 12-3 0-10-5-27-23-27-63 0-17 3-47t4-42q6-69 14-69 4 0 6 9t2 22 1 23 4 10 8-16 16-33 24-16 22 6q21 11 21 46 0 12-3 29t-5 38-2 24 2 3q4 0 20-20t22-20q5 0 5 7m67 188l1-6q0-4 3-5t5-3 5-3q7-5 11-5t8 1 5 2q5 0 5-21 3-48 10-114-15 23-38 48t-38 26-23-12q-16-24-16-54 0-45 47-98 17-18 25-26t26-24 31-16 22 10 7 22-6 35q4 3 4 7t-1 10q-22 141-25 185t-3 70l1 26q0 7-4 11t-9 4-18-10-24-9l-12 1q-6 0-6-6l7-46m59-238q3-6 3-11t-4-6q-2 0-4 1-29 15-52 39t-33 53q-2 6-2 11 0 10 7 10 4 0 9-3 23-16 44-41t32-53m376-178q9 8 9 18t-9 37-17 26q-6 0-9-39-30 43-57 100 0 78 8 109 8 28 23 48 14-10 37-50 6-9 9-9 6 0 6 27t-16 60q-8 17-26 17-5 0-17-4t-25-15-20-29q-11-28-16-67-24 59-35 84t-22 25q-5 0-14-5-15-8-20-23t-5-36q0-8 5-8t13 8l8 8q2 0 4-7 49-106 59-126 0-36-3-70-5-55-15-55-3 0-8 9t-16 33-18 37-16 13-17-9-8-21 15-42 27-42q1-9 3-24 4 2 7 15 11-8 24-8t25 5q39 14 41 53 1 18 1 27 30-50 51-81 7-9 11-9t9 3 8 10 6 7m111-5q0 16-14 45t-26 43q-2 3-6 3-13 0-13-20t18-56q3-8 4-16t1-9 1-2 0-2 1-2 1-2 1-1q1-1 8-1t15 6 9 14m5 222q6-9 8-9t3 13 2 33-10 44-28 39q-11 8-20 8t-14-4-10-12q-8-12-15-31t-7-41 3-45 4-30-8-20-8-15 1-5 5-6 5-4 7-5q11-10 21-10t16 7 7 22-7 61q-10 57-10 65t5 9q10 0 50-64m188 11q0 24-2 42t-18 48-31 31q-6 0-12-7-30-36-30-68 0-9 7-43 9-51 9-57t-2-6-4 4q-13 23-21 52t-10 50-6 56q0 12-6 12-3 0-10-5-27-23-27-63 0-17 3-47t4-42q5-69 13-69 5 0 7 9t2 22 0 23 4 10 9-16 16-33 23-16 22 6q22 11 22 46 0 12-3 29t-6 38-2 24 2 3q4 0 20-20t23-20q4 0 4 7m67 188l1-6q0-4 3-5t5-3 5-3q7-5 12-5t8 1 4 2q6 0 6-21 2-48 9-114-14 23-38 48t-37 26-23-12q-17-24-17-54 0-45 48-98 16-18 24-26t26-24 32-16 21 10 8 22-6 35q4 3 4 7t-1 10q-23 141-26 185t-2 70l0 26q0 7-3 11t-9 4-19-10-24-9l-11 1q-6 0-6-6l6-46m60-238q2-6 2-11t-4-6q-1 0-3 1-30 15-52 39t-34 53q-2 6-2 11 0 10 8 10 4 0 9-3 23-16 43-41t33-53" />
<path id="zilla-slab" class="f" d="M270 570l-13 97h-240l-1-22 192-270v-1h-140l-14 66-31-4 13-94h224l1 20-193 271v2h157l14-69 31 4m109-183h-38v-46h38v46m40 251v29h-113v-29h39v-165h-40v-29h75v194h39m133 0v29h-113v-29h39v-287h-40v-28h75v315h39m133 0v29h-113v-29h39v-287h-40v-28h75v315h39m42-125l8-52q18-11 37-16t42-5q79 0 79 74v106q0 24 19 24 9 0 15-3l1 23q-14 8-29 8-40 0-41-45v-1q-10 18-30 32t-46 14q-22 0-45-14t-22-49q0-42 33-55t71-13q10 0 20 0t19 2v-20q0-24-10-39t-40-15q-25 0-43 9l-9 38-29-3m131 70v-17q-9 0-20-1t-21-1q-25 0-46 7t-20 34q0 22 14 30t28 8q23 0 43-16t22-44m437-7q0 47-34 71t-82 25q-68 0-105-27l7-64 30 3-2 41q17 9 33 12t35 3q32 0 55-14t23-47q0-37-25-48t-56-18q-23-5-45-13t-38-25-15-48q0-46 31-68t73-22q27 0 54 7t43 20l3 64-30 3-5-48q-15-8-31-11t-31-3q-30 0-49 14t-19 40q0 30 23 41t50 17q22 5 46 12t43 27 18 56m144 62v29h-113v-29h39v-287h-39v-28h74v315h39m43-125l8-52q17-11 37-16t41-5q80 0 80 74v106q0 24 19 24 8 0 15-3l0 23q-13 8-29 8-39 0-40-45v-1q-11 18-30 32t-46 14q-22 0-45-14t-23-49q0-42 33-55t71-13q10 0 20 0t20 2v-20q0-24-11-39t-40-15q-24 0-43 9l-8 38-29-3m131 70v-17q-10 0-20-1t-22-1q-25 0-45 7t-20 34q0 22 13 30t28 8q23 0 43-16t23-44m326-33q0 29-10 57t-32 46-57 19q-56 0-78-42l-5 37h-35q2-15 4-32t3-33v-251h-39v-28h74v167q10-20 28-35t51-15q42 0 69 28t27 82m-37 3q0-41-20-62t-47-21q-32 0-51 23t-20 48v34q0 28 19 47t49 20q37 0 53-27t17-62" />
<path id="zilla-slab-highlight" class="f" d="M293 773h-299v-565h299v565m-278-128l1 22h240l13-97-31-4-14 69h-157v-2l193-271-1-20h-224l-13 94 31 4 14-66h140v1l-192 270m417 128h-151v-565h151v565m-55-432h-38v46h38v-46m-74 297v29h113v-29h-39v-194h-75v29h40v165h-39m260 135h-143v-565h143v565m-128-135v29h113v-29h-39v-315h-75v28h40v287h-39m259 135h-143v-565h143v565m-128-135v29h113v-29h-39v-315h-75v28h40v287h-39m367 135h-251v-565h251v565m-206-312l-8 52 29 3 9-38q18-9 43-9 30 0 40 15t10 39v20q-9-1-19-2t-20 0q-38 0-71 13t-33 55q0 36 22 49t45 14q27 0 46-14t30-32v1q1 45 41 45 15 0 29-8l-1-23q-6 3-15 3-19 0-19-24v-106q0-74-79-74-22 0-42 5t-37 16m123 105v17q-2 28-22 44t-43 16q-15 0-28-8t-14-30q0-26 20-34t46-7q11 0 21 1t20 1m472 207h-276v-565h276v565m-26-197q0-37-18-56t-43-27-46-12q-28-7-50-17t-23-41q0-26 19-40t49-14q15 0 31 3t31 11l5 48 30-3-3-64q-15-12-43-20t-54-7q-42 0-73 22t-31 68q0 32 15 48t38 25 45 13q30 7 56 18t25 48q0 33-23 47t-55 14q-18 0-35-3t-33-12l2-41-30-3-7 64q37 27 105 27 49 0 82-25t34-71m157 197h-143v-565h143v565m-128-135v29h113v-29h-39v-315h-74v28h39v287h-39m368 135h-252v-565h252v565m-206-312l-8 52 29 3 8-38q19-9 43-9 30 0 40 15t11 39v20q-9-1-20-2t-20 0q-37 0-71 13t-33 55q0 36 23 49t45 14q27 0 46-14t30-32v1q1 45 40 45 16 0 29-8l0-23q-7 3-15 3-19 0-19-24v-106q0-74-80-74-22 0-41 5t-37 16m123 105v17q-2 28-23 44t-43 16q-14 0-28-8t-13-30q0-26 20-34t45-7q11 0 22 1t20 1m346 207h-275v-565h275v565m-23-223q0-53-27-82t-68-28q-32 0-51 15t-29 35v-167h-73v28h38v251q0 16-2 33t-5 32h35q1-2 3-19t2-18q22 42 78 42 35 0 57-19t32-46 10-57m-37 3q0 35-16 62t-53 27q-29 0-49-20t-20-47v-34q1-24 20-48t51-23q28 0 48 21t19 62m561 220h-388v-565h388v565m-145-138v32h118v-32h-41v-261h41v-32h-118v32h41v112h-181v-112h41v-32h-118v32h41v261h-41v32h118v-32h-41v-118h181v118h-41m283 138h-150v-565h150v565m-55-432h-38v46h38v-46m-73 297v29h113v-29h-39v-194h-75v29h40v165h-39m234 135h-118v-565h285v565h-155q50-2 77-33t28-81v-186h36v-29h-72v35q-22-39-75-39-52 0-76 38t-24 83q0 53 28 81t68 28q31 0 50-15t29-34v36q0 42-20 64t-52 22q-23 0-44-12t-29-37l-28 14q8 32 34 48t58 17m81-241v39q-1 25-21 46t-51 22q-27 0-46-20t-19-60q0-35 16-62t55-27q27 0 47 17t19 45m364 241h-290v-565h290v565m-123-135v29h113v-29h-38v-114q0-44-22-64t-55-20q-53 0-78 44v-161h-74v28h39v287h-39v29h113v-29h-39v-105q1-24 19-44t48-20q23 0 37 15t15 51v103h-39m254 135h-143v-565h143v565m-128-135v29h113v-29h-39v-315h-75v28h40v287h-39m266 135h-150v-565h150v565m-55-432h-38v46h38v-46m-73 297v29h113v-29h-39v-194h-75v29h40v165h-39m234 135h-118v-565h285v565h-155q50-2 77-33t28-81v-186h36v-29h-72v35q-22-39-75-39-52 0-76 38t-24 83q0 53 28 81t68 28q31 0 50-15t29-34v36q0 42-20 64t-52 22q-23 0-44-12t-29-37l-28 14q8 32 34 48t58 17m81-241v39q-1 25-21 46t-51 22q-27 0-46-20t-19-60q0-35 16-62t55-27q27 0 47 17t19 45m364 241h-290v-565h290v565m-123-135v29h113v-29h-38v-114q0-44-22-64t-55-20q-53 0-78 44v-161h-74v28h39v287h-39v29h113v-29h-39v-105q1-24 19-44t48-20q23 0 37 15t15 51v103h-39m306 135h-195v-565h195v565m-13-166l-27-9q-5 27-14 35t-22 8q-20 0-28-12t-8-32v-125h87v-28h-87v-71h-35v71h-36v28h36v129q0 33 17 52t50 19q57 0 67-65" />
</svg>