<svg id="fnt-Eagle Lake" viewBox="0 0 3055 1000" xmlns="http://www.w3.org/2000/svg"><path id="eagle-lake" class="f" d="M317 362q6-5 5-9t-3-7q-4-4-10-7-12-6-30-8t-39-3q-30 0-56 6t-47 19-33 40-17 64q15 0 30 0t29 0q17 0 39-1t43-2 44-2 39-2 29-1 14 1q3 2 1 5t-7 7-13 10-16 9-17 8-16 6q6-9 2-13t-19-4q-8 0-13 0t-14 1-19 1-29 2-44 4-64 4q1 39 14 67t34 45 52 27 66 13q21 1 42-2 9-1 18-4t20-5 19-9 17-12q-18 15-38 28t-40 21-43 15-42 5q-19 0-40-3t-40-11-39-19-31-29-21-42-5-55q1-37 13-67t32-56 45-44 55-31 61-19 62-7q14 0 25 1t21 3 16 4 10 4q11 5 11 11 0 4-4 9t-10 8-14 9-14 7-13 6-8 4m446 267q-10 10-22 19t-23 14-24 10-20 4q-5 1-13 0t-16-4-13-12-5-22v-29q-13 13-28 25t-31 22-32 15-32 5q-20 0-35-9t-25-23-16-32-5-34q0-13 2-26t5-24 7-20 9-15q8-11 20-21t28-19 31-17 33-13 32-8 29-3q14 0 32 2t42 5q-1 28-1 50t-2 38 0 31-1 27q0 14 0 26t2 24 10 16 22 7q9 0 19-3t21-6m-136-175q-14-4-31-5t-32-2q-8 0-15 1t-14 1-11 2-7 2q-4 2-10 11t-11 21-9 28-4 32q0 16 5 32t13 29 22 20 30 8q16 0 28-5t21-14 15-21 10-26q0-10 0-22t0-25 0-30 0-37m420-33q-1 31-1 56t-1 44-1 34 0 25q0 25 0 35-1 27-1 48t-2 36-8 29-17 23q-19 18-39 36t-43 33-46 23-50 9q-15 0-32-4t-32-14-24-22-9-30q0-14 8-27t24-24q10-7 21-15 11-7 25-17t32-22q-18-1-32-11t-23-23-15-30-4-34q0-13 2-25t5-24 7-20 8-15q9-12 21-23t28-19 31-16 33-12 31-8 27-3q14 0 33 2t44 5m-66 34q-15-3-31-5t-32-1q-21 0-36 4t-25 15-15 30-6 49q0 16 5 32t14 28 22 21 29 8q17 0 29-5t21-14 15-21 9-25q0-21 0-49t1-67m-172 269q-13 12-13 26 0 11 6 19t15 15 21 10 23 7 22 4 17 2q17 0 30-3t21-9q9-6 14-23t9-42 4-55 2-64q-12 12-26 24t-28 20-29 15-30 7q-15 11-26 20t-18 14q-8 7-14 13m487-102q-24 17-41 27t-29 18-22 9-21 2q-9 0-18-4t-16-17-11-33-4-55q0-33 1-69t1-72 2-72 0-65q0-30-9-46t-27-17q-6 0-13 2t-14 5q9-7 20-14t21-13 22-9 22-4q14 0 22 7t12 17 5 22 0 23q0 15 0 37t-1 47-1 53-1 53-1 49-1 42q0 24 4 41t11 29 18 16 22 6q23 0 47-15m134-130l179-58q-28 13-52 24t-42 18q-21 9-39 15-11 5-24 10t-28 9-30 9-29 9v5q0 25 8 45t22 34 34 21 43 8q13 0 25-2t24-5 21-8 17-10q-19 16-38 27t-40 19-38 10-37 3q-18 1-35-5t-32-18-24-31-12-42q-1-9-1-17t1-15q-8 3-15 5t-12 6q7-5 15-9t13-8q5-19 15-37t24-32 32-27 36-21 39-13 38-4q12 0 20 3t12 13q1 10-7 21-4 5-10 11t-16 11-24 13-33 13m-14 1q10-5 19-10t13-11 5-12-5-14q-4-5-10-7t-14-2q-6 0-12 1t-10 4q-3 1-8 7t-11 15-10 21-7 27q16-6 28-10t22-9m614 133q-27 17-53 27t-52 16-53 7-56 0q-10-1-17-1t-12-3-7-10-3-18q0-6 0-21t0-36 1-46 0-50 1-50 0-44 1-33 0-17q1-5-2-8t-5-5-9-2-10-1q-8 0-18 2t-19 4q12-8 25-15t24-12 25-8 26-3q6 0 10 0t9 2 6 4 2 6q0 9-1 46 0 16 0 39t-1 57-1 77 0 101q23 3 43 4t38 1q26 0 46-1t33-4q17-2 29-5m363 3q-10 10-22 19t-24 14-23 10-21 4q-5 1-13 0t-15-4-13-12-5-22v-29q-14 13-29 25t-30 22-32 15-32 5q-20 0-35-9t-26-23-15-32-5-34q0-13 2-26t5-24 7-20 8-15q8-11 21-21t27-19 32-17 33-13 32-8 29-3q13 0 32 2t42 5q-1 28-2 50t-1 38-1 31 0 27q0 14 0 26t2 24 9 16 23 7q9 0 19-3t21-6m-136-175q-15-4-31-5t-32-2q-8 0-16 1t-13 1-11 2-7 2q-4 2-10 11t-12 21-9 28-3 32q0 16 4 32t14 29 22 20 30 8q15 0 28-5t21-14 15-21 10-26q0-10 0-22t0-25 0-30 0-37m226 186l-58 42q1-64 2-114t1-90 1-69 1-50q1-48 1-68 0-30-9-46t-28-17q-6 0-13 2t-14 5q10-7 20-14t22-13 22-9 22-4q9 0 16 3t12 10 7 14 3 16 1 16 1 16l-6 209q13-15 30-28t35-22 36-13 34-3q10 1 18 6t14 11 10 16 3 20q0 17-8 31t-20 24-28 17-29 10q6 7 15 16t19 20 22 20 22 18 23 12 21 5q19 0 39-12-17 12-31 22t-25 16-23 10-25 2q-15-1-28-9t-26-20-24-25-22-23q-4-5-10-9-4-4-11-8t-14-5q8-7 17-12t16-10q8-5 16-8 8-4 17-9t17-11 13-15 5-19q0-9-3-18t-9-16-13-10-17-4-18 3-14 6q-5 2-13 15t-15 36-13 56-7 78m263-15l-3 2 3-2m129-133l179-58q-28 13-52 24t-43 18q-21 9-39 15-11 5-24 10t-28 9-29 9-30 9v5q0 25 8 45t22 34 34 21 44 8q12 0 25-2t23-5 21-8 17-10q-18 16-38 27t-39 19-39 10-37 3q-18 1-35-5t-31-18-24-31-13-42q-1-9-1-17t2-15q-9 3-16 5t-11 6q7-5 14-9t14-8q4-19 14-37t24-32 32-27 37-21 38-13 38-4q12 0 21 3t11 13q2 10-7 21-4 5-10 11t-16 11-24 13-32 13m-15 1q11-5 19-10t13-11 5-12-5-14q-4-5-10-7t-13-2q-7 0-13 1t-10 4q-3 1-8 7t-10 15-10 21-7 27q15-6 27-10t22-9" />
</svg>