<svg id="fnt-East Sea Dokdo" viewBox="0 0 2272 1000" xmlns="http://www.w3.org/2000/svg"><path id="east-sea-dokdo" class="f" d="M130 575q-1 0-3 0t-4 1h-1l-2-1q-1 0-4 1t-3 2l-6 3-5-1-7 2-6-1q-1 0-4 2t-5 2l-5 1-8 22q-1 4-3 8t-1 6v6l2 3h2q2 0 4 0t5 1h12q18 2 24 2h2q1 0 6 0t5 1 2-1 4 0 4 0 3 0l23 4q1 0 4 0t7 1 6 2 3 2q0 5-6 9t-7 5h-1q-11 3-20 3t-19 0h-20q-3-1-6-1t-7 0q-4 0-18 1t-25 2l-9 2q-3-1-7-2t-6-3l-13-14-2-5v-9l4-8q0-1 1-5l2-3q1-3 2-5t2-5l1 2q1-2 1-4v-1l-2 1-1-1q0-3 1-7t2-9q1 1 2 1 1 0 3-2t3-2l-3 0q0-5 3-9t2-8q-3 0-4 1t-3 3-2 3-3 3v-3q0 0 1-5t3-11 6-13 7-10l1 2q2-2 3-5t1-4v-2l-2 5-2-1 2-6 1 1q1 0 3 0 0 0 1-5t2-8q-1 3-3 5t-2 4h-1q0-2 2-6t1-5l2-11v-5l-10-8-5-4q-1-1-2-4t0-3q0-4 4-4h29q2 0 6-1l7-2 12 1q8-1 15-1t16-1h51q3 0 8 3t6 7-2 3-2 2l1 3q0 1-6 1t-8 1h-9q-6 0-10 2t-7 4-6 3-6 2q0 2-3 3t-7 2-7 2-6 4q-4 4-7 8t-7 10q-4 6-8 12 0 2 2 2-1 5-4 6t-3 8q12 0 23-1t23 0h14q2 0 4 0t4 1l6 3v2l4-2-1 5-2 7q-1 0-2 1t-3 2-4 3-7 1q-3 0-7-1t-6 0m-95 14h-5q-1 1-1 2v2q3-3 6-3v-1m241 62q9 2 9 3l0 5q0 5 2 9 1 2 2 3 0 1-5 1t-10 1-11 0-9 1h-4q-11 0-18-4t-12-12l-2-1-1-6q-1-4-2-8t-1-7q0-3 2-6t4-4 3-2-1-1q0-3 3-7t8-8 9-8 8-5l4 1q1 0 5-2t7-2l7-5q3 0 3-3l20-9q0-1 1-3t2-1l-4-16q0-1-2-1 0 0 0 0t-1 0h-1q-2 0-9 1t-12 3-12 2-5 1q-1 1-2 1-3 0-6-3t-6-6l-5-2-2-2q0-1-1-2t-1-1l-1-2q0-3 8-5t21-3 27-3 26 0h2q7 0 11 2t8 5 5 7 4 7v9q0 5 0 8t1 7-1 6-2 9q0 2 1 4t1 4v0l1 4-4 4 3 4-4 4q0 1-1 3t0 2l0 1-1 8 4 1 0 3-3 1 1 2-1 4q-2 4-3 13t-2 12q0 1-4 1t-7 1-7 0-3 0q-4 0-8-2t-5-7-2-8-1-7q0-9 3-14t3-15q-1-4-1-8t-3-4q-1 1-3 2t-2 2q0-1-2-1-1 0-5 2t-7 3-8 4-3 3q-6 4-11 6t-9 6l-1 8q0 0 0 2t-1 3l1 1 2-2 1 3q4 0 7 0t5 1q1 0 1-1t1 0q2 0 6 3t7 2q1 0 1 0m156 28q-2 0-5 0t-6-1-6-1-4-1l-12-5q-1 0-4-1t-10-4l-6-8q0-4 5-8t9-6q0 0 2 1t5 1 5 1 3 1q4 0 12-1t14-1 13-2 5-3l3-13q0-5-4-9t-8-3q-2 0-3 1l-13-3h-5q-4 0-13-2t-17-5-14-9-6-13q0-4 1-6t3-6l-1-1q0-2 1-5t3-6 3-6 2-5l18-19q1-1 2-1t1-1l12-7h2t3-1l14-3h4l1 1q3 1 5 1t7 0h8q1 0 3 3t3 3q4 3 8 5t6 4 4 5 2 10q0 1-3 2t-3 2h-9q-1 0-3 1t-4 1-4 1-2 0h-19q-1 3-6 3t-7 3q-7 4-8 8t-3 12q8 5 18 7t14 2l14 4q13 4 18 11t8 15l1 6v4q0 2 0 4t-1 11l-3 8-1 1q-6 7-10 11t-13 6q0 0-1 1t-4 2-8 2-16 1m-52-96q0 4 4 6t8 2l-2-5v-1q0-4 1-4t0-5q-2 0-2-2 0-1 1-3t2-3v3q2 0 2-3t0-4q0-2-1-2l-1 2v-6h-1q0 1-2 3t-2 4q-1 4-2 7t-1 7q-1 3-3 2t-1 2m38-46h-1q-8 0-14 7t-8 15v0q4 0 5-5t3-7q1-1 3-2t4-2 5-3 3-3m247 9h1l-1 2 0-2-12 5q-1 0-2 0t-1-1l-2 1q-4 0-11 1t-12 1-10 1-4 4v0l1 1q-1 1-2 1t0 1 1 3q0 2-2 2t-1 4q0 2 3 2-3 2-3 7 0 4 1 4l2 5q-4 4-4 7 0 2 1 3 0 4-1 6t0 1 0 1 0 2l0 0q0 4-2 10t-2 7h-1v2h2q-1 1-2 1t-1 2q0 0 1 1h3l-3 16 2 1q3 1 8 1 5-1 8-3t8-2h1q2 0 5 0t5 0h24q0 0 2 0t4 2 4 2 2 1q0 3-3 6t-6 5l-22 7-29 3q-4 0-11 4t-14 4v-2l-16-2q-5-4-8-5t-4-1-2-1-4-3q0-1 0-6t0-10 1-9 2-5l1 21 2 3q0-7 0-21t2-32l0 1q-1 0-1-2t0-6q0-5 0-5h1l1 5 4-28h-2v-5-3q-3 1-7 1t-7 2l-11 1-4-1-2 1-2-1q-4 0-9-7t-6-14q0-3 6-5t15-3 17-3 15-3q1-4 2-12t1-14 0-10 1-2q0-1 1-4t2-7 2-7 1-4q0-1 0-2 0-1 1-4t1-4l1 0q3 0 10 2t13 5 12 8 5 10-5 13-5 16l-3 12q13 0 27-2t22-1q4 0 6 2t3 7l-5 14m-107 69l1 14-3 1q0-1 0-7t2-8m23 30h-3l-2 6v5l5-11m0-10q-2 0-2 3t2 2q2 0 2-2t-2-3m229 8q5-2 12-2 14 0 26 2t22 3l4-3 13-1q1 1 2 1 2 0 3-2t2-1q5 0 11-2t9-5q3-12 5-23t1-20l-3-6q0-3-4-4t-4-1l-6-2q-4 0-8-2t-7-3-9-3-14-1h-4q-2 0-2-2-4-4-9-5t-8-6q-1 0-3-4t-3-9-2-9-1-6q2 0 2-3 0-1 0-2t0-2 1-3l2-1q2-2 1-4t2-3v5l1-1 11-36 16-16 9-6 9 4q4 0 8-2t9-1q7 0 17 2t18 6 16 8 10 6q0 3-1 3t-1 1q0 2 0 2t1 3-3 3-4 2l-29-2h-2q-2 0-8-1t-7 0q-8 0-14 4t-10 11-7 15-2 17q0 2 2 3t5 2 5 2 4 0l2 1q3 2 4 3t4 1h2l6 0 8 3q1 0 4 0h5q8 3 16 7t13 9 9 16 4 25q0 5-1 9t-2 9l0 1q-1 1-4 5t-3 4l-2 5-3 2-19 26q-7 1-13 3t-11 2q-1 0-4-1-4 1-8 1t-7 0q-5 0-17-1t-27-3-26-3-19-3q0-2 1-2t2-2q0-1-1-1h0q-1 0-2-1 1 0 3-1t3-1l-2-4 1-1q1-1 1-2t1-1q0-2-1-2t-1-3m35-149q0 1-2 6t-1 7q-2 0-2-2 0 0 2-5t3-6m3-13q0 1 1 1h1l-4 7q-1 0-1-1 0-1 1-4t2-3m201 131l0-1q3 0 5-2t3-3 2-3 3-1q7 0 12-6t6-24v-10q0-2-2-4t-3-2q0 0-3 2t-7 3-7 5-5 5v5q-1 8-4 18t-3 18h3m72-19v3l-7 8-3 2q-5 2-10 5t-10 4l-2 2h-3q-3 0-4 2t-3 3q-6 1-7 2t-2 1q1 1 1 1 0 1-2 1t-4 1-3 0-1 1h-3q-1 1-8 2t-10 3l3 12q2 1 6 2t9 1 9 1 6 0q7 0 13-1t15 0q7 0 13 1t13 5v4q0 2-1 5t-1 5l-2 1q-1 0-4 1t-8 2-10 1-7 1q-10 0-20 0t-19 1q-8 0-17-3t-16-7-14-11-7-14l2-4q0-1 0-4t1-7v-4h4l0-1q0-3 1-3 0-1-1-2t-1-1q0-1 2-2l0-6q0-2 0-5t3-6l1-1q0-2-2-4 2-1 2-3t2-3q0 0 0 0t1 1l2 1q0 0 0 0h2q1 0 1-1 0-3-2-5t-2-4q0-1 0-1 0-1 0-2t-1-1l2 0q3-8 6-12t9-8l2-1q7-5 14-10t15-6 18 2 19 2q12 6 14 7t3 1l-1 5 4 3 2 3-4 5 3 4-3 4q-1 1-1 3t0 2l1 1 0 2-1 6 4 1v3l-2 2 1 1m1-17h1q1 0 1 1 0 2-2 2-1 0-1-2 0-1 1-1m2 7q0 2-1 2t-1-2q0-1 0-1t2 1m95 68q9 2 9 3l0 5q0 5 2 9 1 2 2 3 0 1-5 1t-10 1-11 0-9 1h-4q-11 0-18-4t-12-12l-2-1-1-6q-1-4-2-8t-1-7q0-3 2-6t4-4 3-2-1-1q0-3 3-7t8-8 9-8 8-5l4 1q1 0 5-2t7-2l7-5q3 0 3-3l20-9q0-1 1-3t2-1l-4-16q0-1-2-1 0 0 0 0t-1 0h-1q-2 0-9 1t-12 3-12 2-5 1q-1 1-2 1-3 0-6-3t-6-6l-5-2-2-2q0-1-1-2t-1-1l-1-2q0-3 8-5t21-3 27-3 26 0h2q7 0 11 2t8 5 5 7 4 7v9q0 5 0 8t1 7-1 6-2 9q0 2 1 4t1 4v0l1 4-4 4 3 4-4 4q0 1-1 3t0 2l0 1-1 8 4 1 0 3-3 1 1 2-1 4q-2 4-3 13t-2 12q0 1-4 1t-7 1-7 0-3 0q-4 0-8-2t-5-7-2-8-1-7q0-9 3-14t3-15q-1-4-1-8t-3-4q-1 1-3 2t-2 2q0-1-2-1-1 0-5 2t-7 3-8 4-3 3q-6 4-11 6t-9 6l-1 8q0 0 0 2t-1 3l1 1 2-2 1 3q4 0 7 0t5 1q1 0 1-1t1 0q2 0 6 3t7 2q1 0 1 0m203-69q0-1 1-4t1-6 1-7 1-4l1-6q0-2 2-4t2-4l3 2q0-1-1-1t0-2q0-2 0-3t1-3l1-4q0 0 0-1t0-2q0-2 0-4t0-2q-2 0-3 0l-1 1q0-2 1-8t2-13 4-16 5-17q2-1 3-5t3-8 5-6 10-3q1 0 6 2t13 1q5 0 8 1t4 7q0 3-1 5l-3 24q8-5 12-8t13-6l13-6q1 1 1 2t3 1l4 2q13 5 23 15t17 24q1 3 1 5t1 6l0 1q2 2 2 6t4 9l1 1q3 0 3 3t-1 3l3-1q0 1 0 1t0 3q0 1 0 2t-1 1v2l2-1q2 2 2 7t2 8q-1 0-1 1v2h2q-1 3-5 7t-3 7v1q0 1-1 0t-2 1q-3 3-7 7t-7 7-5 7-2 4q-4 4-9 10t-9 12-6 10-3 5l-1-1q-1 1-3 3t-5 5-4 5-4 2q-1 1-4 1t-2 1q0 1 1 2h-5l-2-2q-1 1-2 0t0 1q-2 0-5-2t-5-1q-11 0-20-1t-19-1h-6q0 2-4 2l-2 0q-1 0-1 1v1h-5l-2 1q-1-4-2-5-1 2-3 2h-4l-2-2q0 0 0 0t-1 0h-1q-5-2-7-6t-2-3l-1-3v-1q0-1 1-2t0-3q0-2 0-3t-1-1q0 0 0-1t1-4 1-9 1-16l1-5q1-5 1-5 0-2-1-2 3-4 3-9t0-10m45 53v2q1 0 1 1t0 2q4 0 7 0t8 1q3 0 7-1h17q0 0 3-4t8-9 8-11 8-10l10-12q3-3 3-5t5-9l3-4-5-7q-1-1-4-10t-6-19-8-19-9-12h-1q-1 0-2-3t-2-3-1 0-2 2q-12 9-19 11t-10 7q-4 7-6 16t-4 17q0 1-1 2t0 1l1 1-3 4q0 1 1 2v0q0 2-1 3t-1 2q0 2 2 5t2 5l1 0-2 1q1 1 1 3v1l-2 1 1 3q0 1-1 2t0 2l-1-1q-1 1-1 2 0 1 1 1l-1 5-1 1v2l2 3q-2 0-2 3l1 3q0 2-3 5t-2 5h1q-1 1-1 3t0 3q0 5 0 6m-20-100h-2l-2 3q0 2-2 5t-1 5v8h3l2-4q0-2 1-5t1-4v-8m-17 32l-2 4q-1 0-1 1v7l3-2v-10m4-12h-3q-1 1-1 3t0 3v2l2-2 2-6m7-34v-1q0-1-1-1t-1 1q0 2 1 2 1 0 1-1m177 96l2-4q0-1 0-2t1-1l2-2q0-7 4-17t11-15l4-2q1 0 1-2t1-3l2-2q4-6 9-12t9-10 9-7 7-3q1 0 2 1t4 1l6 7q2 1 3 4l2 4v8l1 2q1 1 2 1t1 2l6 4q1 2 3 5t5 6l7 8q1 1 2 5t2 9 1 8 1 5v4l-5 11 0 4-5 5-8 6q-2 2-6 2t-7 2l-4 2q-3 2-5 2-1 0-1-1t-1 0l-6 1q-2 2-8 2-4 0-6-1l-11-3-12-4q-7-2-11-3t-8-10q-1-3-2-5t-2-4l-2-8m42 1l1 12 2 1q4-1 10-2t8-2l5-4 4-4 1-5-6-23-8-3-2 1q-1 0-3 3t-4 8-5 10-3 8m-15-30l-3-2q-2 3-6 9t-3 12q0 2 0 3l1-3 8-14q2-3 3-5m109 69l0-6 3-2h-3v-3q0 0 1-1l2 2 8-10q0-1 0-1t-2-2q-1 2-2 2t-5 0q0-1 0-2 0-4 1-7t2-5h-1q-1 0-2-2-1 0-2 1t-1 1q0-2 2-6t3-5l-2-7q0-1 0-3t0-5 0-5 0-5l1-2q0-7-1-8t-1-2q0-1 2-3-1-1-1-1 0-1 1-3t1-3l-1-1q1-4 2-10t1-12 0-12 2-8q0-12 2-20t3-18q0-5 1-12t1-13 1-11 1-5h3l9-5h5q3 0 4 3t5 5l8 7 3 3q0 1 0 2t0 3l-2 9q0 3 1 12t2 12q-1 1-1 1l1 13q0 1-1 2t-1 4q0 1 0 2 0 2-1 2t-2 1l1 0h2q0 1-1 3t-1 2q2 1 3 6t0 9l1 1q0 1-1 1t0 1 1 2q0 3-2 3t-1 4q0 2 3 2-3 3-3 2 0 1 2 2l1 5q-3 4-3 7v1q3-1 5-4t4-4l10-5-1-1q3 0 6-2t6-3 5-4 3-1q0-1 0-2t0-1l1-1 22-18 5-5q1 0 3-3t4-4l1-1h-2l6-6q0 0 0-1 0-2 2-4t3-2q1 0 1 1t1 1l3-1q0 0 1 1t3 2 1-1 2 0q1 0 3 2t4 5 3 6 1 5l-1 4-3 3q-5 4-10 8t-9 7l-19 21-4 3q3 4 5 11t3 8l4 14q2 8 8 16t11 18l-2 7 6 4 5 7-2 5 5 3-1 6q0 1 0 3t2 2l1 2q2 9 7 21t9 23 8 18 4 8v-5q-1-1-1-6t-1-5l2-1q2 6 3 10t1 5 1 4 0 3q0 2 0 3l-3 5-5 3-5 5-6-1-4 1-1 4q-2 1-4 0t-5 1l-1-2q-1-3-4-10t-6-14-7-15-5-9l-5-5-3-7-2-1-4-8q-4-7-5-11t-1-6q0-1 1-2l-3-6-2-6q-10-25-17-35t-7-12v-1h2v-1q0-1-1-4t-1-3v-1q0-1 0-2t1-1h-1l-3-4q-1-1-2-5t-2-5l-2-3q-5 5-11 7t-10 7l-9 3v42l2 1q-1 3-1 5t1 2l-1 2q-1 1-1 3 0 2 1 4t1 5v2l-1 1 2 3q0 0-1 1t-1 1v-1q-3 1-3 1l5 1q-3 3-6 3-2-1-2-2t-3 0q-5 0-11 1t-10 3q-10-2-13-6t-3-7q0-2 0-3v-1q0-2 2-2t1-4q0-2-5-2m166 22l5 5-2 3-4-6t-2-4l3 2m-157-48q3 0 3-2t1-8q-1 0-2 1t-1 3q0 0 0 0t1 1q0 1-1 2t-1 2q0 1 0 1m170 78l2-1 1 3-1 2-3-1 1-3m-21-44q1 0 1 0 2 0 2 2 0 1-2 1-2 0-2-2 0 0 1-1m19 38h1q1 0 1 1 0 1-1 1t-2 1-1-1q0-1 2-2m-15-32q0 1 0 1v1 0q-2 0-2-2h1q0 0 1 0m8 23l3-1 1 2-4-1m-166-75l0-2h-1l-1 1q0 0 2 1m0 9l1 1v-2q0 0-1 1m300 38h-1q-7 3-17 5t-18 2q-5 0-13-1t-15-3-14-6-5-9q0-2-1-5t0-4q1-14 2-21t2-11 3-7 5-10q0-1 1-2t2-1l4-2h2q0 2-1 3t0 2v1q2-1 3-3t3-4l23-19h-8q2-2 6-4t10-5 10-4 6-3q7-6 13-8t13-8q1-9 3-19t3-22 5-21 6-19q1-1 3-2t4 0q1 0 2 1t2 0l5-1h1q3 0 8 2t10 5 7 6 4 5-2 3l2 1q-1 0-3 1t-3 4-4 4-1 4q0 4-2 10t-3 12-3 11-2 7l2 2q0 4-2 8t-2 8q0 1-1 3t-1 5-3 11-4 21q-2 2-2 9t0 10l-1 4q0 1 0 3t1 6q-2 0-3 1t-1 4v3l2-6q1 2 1 5t1 3l-1 4v4q0 1-1 1t0 1v1h-2v6h3l1 2-1 6 1 1q0 1 0 3t1 3l-1 1v4l-10 5-22 3q-4 0-8-5t-4-5m-47-23q3 2 8 2t11 1 11 1 9 2q1 0 3 1t3 1q1 0 1-2v-5q0-1 1-7t1-15v-4h-1q0-1 1-2t0-3v-15l2-2v-13q-2 0-8 3t-13 5-12 6-6 4q-6 8-8 14t-3 11v3q0 1 0 2t0 1l1 4q0 1-1 3t0 4m-2-67q0 1-3 4t-4 4v-1q0-3 2-5t5-2m-10 5l1 3q0 1-1 3t-3 3v-4l3-5m14-11q1 0 1 1 0 2-1 4t-3 2q0 0 0-1 0-1 1-3t2-3m148 47l2-4q0-1 0-2t1-1l2-2q0-7 4-17t11-15l4-2q1 0 1-2t1-3l2-2q4-6 9-12t9-10 9-7 7-3q1 0 2 1t4 1l6 7q2 1 3 4l2 4v8l1 2q1 1 2 1t1 2l6 4q1 2 3 5t5 6l7 8q1 1 2 5t2 9 1 8 1 5v4l-5 11 0 4-5 5-8 6q-2 2-6 2t-7 2l-4 2q-3 2-5 2-1 0-1-1t-1 0l-6 1q-2 2-8 2-4 0-6-1l-11-3-12-4q-7-2-11-3t-8-10q-1-3-2-5t-2-4l-2-8m42 1l1 12 2 1q4-1 10-2t8-2l5-4 4-4 1-5-6-23-8-3-2 1q-1 0-3 3t-4 8-5 10-3 8m-15-30l-3-2q-2 3-6 9t-3 12q0 2 0 3l1-3 8-14q2-3 3-5" />
</svg>