<svg id="fnt-Edu AU VIC WA NT Hand" viewBox="0 0 5561 1000" xmlns="http://www.w3.org/2000/svg"><path id="edu-au-vic-wa-nt-hand" class="f" d="M306 667h-244q-9 0-12-4t-1-12l76-432q1-8 5-12t14-5h233q10 0 13 5t3 9q0 6-3 9t-13 3h-223l-31 175h191q9 0 12 4t3 10q0 5-3 9t-12 4h-196l-37 210h225q10 0 13 3t3 8q0 6-4 11t-12 5m117 3q-29 0-43-28t-4-78q8-45 27-78t46-51 62-19h53l36-203q1-7 6-9t10-2q7 1 11 5t2 11l-77 436q-1 7-4 10t-9 3q-5 0-9-2t-6-6-1-9l17-98q-26 55-56 86t-61 32m6-27q16 0 32-15t33-39 31-54 29-59l6-34h-46q-28 0-50 15t-36 43-21 63q-6 37 0 58t22 22m280 28q-37 0-54-24t-10-65l27-153q1-3 3-8t14-5q9 0 11 5t2 9l-27 153q-4 26 5 44t31 17q21 0 43-21t51-65l22-127q1-3 3-9t15-6q9 0 11 5t1 9l-38 220q-1 6-4 10t-6 5-11 2q-7 0-9-4t-1-12l9-51q-24 39-44 55t-44 16m262-3q-5 0-9-2t-4-6 3-10l225-433q4-8 7-12t12-4q8 0 11 3t3 8l38 441q0 7-2 11t-11 4q-10 0-13-5t-3-10l-18-223h-105l-113 221q-5 10-8 14t-13 3m200-366l-52 101h89l-7-96v-72l-30 67m213 369q-31 0-44-31t-1-101l56-318q1-5 3-10t7-6 9-3q7 1 10 5t2 11l-57 321q-3 18-5 36t-2 35 7 25 21 9q27 0 59-26t63-73 62-110 52-138l14-80q1-6 5-10t12-5q9 0 12 4t2 11l-77 436q-1 7-6 10t-10 4q-7 0-12-4t-3-13l41-232q-33 86-72 142t-77 84-71 27m475-3q-8 0-11-6t-5-11l-24-434q0-8 2-12t11-4q11 0 14 5t3 9l19 399 192-397q4-9 9-12t14-4q7 0 10 5t-1 13l-214 432q-4 8-7 13t-12 4m266-1h-68q-9 0-12-4t-3-9q0-7 3-10t12-4h21l72-412h-15q-9 0-12-4t-3-9q0-6 3-9t12-4h65q10 0 12 4t3 9q0 5-3 9t-12 4h-20l-72 412h17q9 0 12 4t3 10q0 5-3 9t-12 4m246 1q-26 0-51-14t-43-42-26-68 3-94q5-31 14-66t24-66 38-59 56-42 78-16q34 0 65 15t57 43q5 4 6 10t-4 10q-3 4-8 5t-12-6q-25-26-52-38t-52-13q-40 0-68 15t-48 39-33 54-20 59-12 55q-8 47-3 83t19 60 33 37 40 12q37 0 66-19t60-48q12-10 16-17t12-7q6 0 9 2t5 8q0 3-3 10t-15 20q-31 35-68 56t-83 22m376 0q-8 0-12-5t-5-12l-24-434q0-8 2-12t11-4q11 0 14 5t3 9l19 398 192-397q2-3 6-9t13-6q11 0 14 5t4 9l20 396 191-394q4-8 9-12t11-4q6 0 10 2t4 6-2 10l-213 432q-4 9-8 13t-10 4q-9 0-12-2t-4-9l-20-406-194 400q-2 6-7 11t-12 6m404 0q-5 0-9-2t-4-6 3-10l225-433q4-8 7-12t12-4q8 0 11 3t3 8l38 441q0 7-2 11t-11 4q-10 0-13-5t-3-10l-18-223h-105l-113 221q-5 10-8 14t-13 3m200-366l-52 101h89l-7-96v-72l-30 67m266 365q-8 0-11-4t-2-12l76-432q2-8 5-12t13-5q9 0 13 4t7 9l140 389 69-385q1-8 5-12t13-5q8 0 10 5t0 14l-76 430q-1 6-3 11t-11 5q-7 0-11-3t-6-8l-145-396-69 389q-1 7-4 12t-13 6m487 0q-9 0-12-4t-2-12l74-423h-127q-10 0-13-3t-3-10q0-6 3-9t13-4h282q9 0 12 4t3 9q0 6-3 10t-12 3h-126l-74 423q0 6-3 11t-12 5m309 0q-8 0-11-4t-2-12l76-432q1-8 5-12t14-5q7 0 10 5t1 14l-32 182h215l33-188q1-5 4-9t12-4q9 0 12 5t1 12l-76 434q-1 5-4 9t-12 5q-10 0-13-5t-1-11l39-221h-215l-39 221q-1 6-4 11t-13 5m405 4q-17 0-29-13t-18-37 1-58q9-46 29-78t47-51 55-18h80q6 0 7 6t0 15l-38 216q-1 2-4 8t-14 6q-10 0-12-5t0-8l18-105q-17 35-38 62t-42 44-42 16m6-27q17 0 39-22t46-62 45-87l5-31h-54q-20 0-42 15t-37 41-23 63q-7 37 1 60t20 23m224 23q-9 0-11-5t-1-8l39-221q1-6 3-9t7-6 10-2q8 0 10 4t0 12l-9 50q24-36 46-53t49-17q25 0 41 13t21 33 2 43l-27 153q0 3-3 8t-14 5q-9 0-11-5t-2-9l27-153q3-13 1-27t-11-24-26-11q-22 0-46 22t-54 65l-23 128q0 3-3 8t-15 6m305 3q-29 0-42-28t-5-78q9-45 27-78t46-51 62-19h53l37-203q1-7 5-9t10-2q7 1 11 5t3 11l-77 436q-1 7-5 10t-9 3q-4 0-8-2t-7-6-1-9l18-98q-27 55-57 86t-61 32m6-27q16 0 33-15t32-39 32-54 28-59l6-34h-46q-28 0-50 15t-36 43-21 63q-6 37 0 58t22 22" />
</svg>