<svg id="fnt-Edu TAS Beginner" viewBox="0 0 3465 1000" xmlns="http://www.w3.org/2000/svg"><path id="edu-tas-beginner" class="f" d="M23 667q-8 0-11-6t-1-11l88-355q2-7 5-11t14-3q10 0 11 6t-1 14l-87 350q-1 5-5 10t-13 6m177 0h-176l7-27h169q7 0 11 3t4 9q0 6-4 10t-11 5m-9-183h-124l7-27h117q7 0 11 3t4 10q0 6-4 10t-11 4m85-177h-165l7-26h158q7 0 11 3t5 10-5 10-11 3m154 360q-15 0-23-11t-10-29 5-46l72-286q2-8 7-11t13-3q8 0 10 4t0 12l-73 291q-6 24-5 38t7 14q5 0 14-10t24-29q8-10 12-15t10-4 9 3 3 10q0 5-3 10t-11 16q-18 23-33 34t-28 12m-95 0q-29 0-42-28t-2-74q9-33 24-57t36-38 44-14q18 0 27 13t11 35-6 55q-8 33-22 57t-32 38-38 13m7-27q21 0 39-24t28-63q9-35 3-52t-24-18q-21 0-39 24t-28 63q-8 35-3 52t24 18m229 27q-14 0-23-6t-13-17-1-31 8-45l24-94q2-8 7-12t13-3q8 0 10 4t0 12l-24 96q-6 24-8 39t2 22 12 7 19-8 25-23 26-30 21-33 12-29l-14 68q-14 24-30 42t-34 30-32 11m88 0q-9 0-11-7t1-14l43-172q2-8 7-12t13-3q8 0 10 4t0 12l-43 173q-2 8-5 13t-15 6m342 0q-8 0-12-6t-1-13l88-353h31l-90 358q0 5-4 9t-12 5m195-360h-210q-9 0-13-4t-3-9q0-5 3-9t13-4h210q9 0 12 4t3 9q0 5-3 9t-12 4m-62 360q-5 0-8-3t-4-7 3-10l218-353q4-5 7-9t12-4q6 0 10 3t4 9l4 359q0 7-3 11t-12 4q-6 0-9-2t-4-5-1-6l-3-331 9 2-202 328q-5 8-9 11t-12 3m230-194h-114l15-27h98l1 27m177 194q-40 0-66-26t-31-71q-1-13 14-14 7-1 11 2t5 9q3 33 22 53t47 19q30 0 52-20t31-54q8-37-5-58t-51-30q-46-13-66-37t-10-61q7-28 27-51t47-35 55-12q31 0 50 19t30 57q1 4-2 10t-9 6q-6 1-11-1t-7-8q-10-28-22-42t-32-14q-20 0-41 10t-36 28-20 40q-6 21 7 37t46 24q54 14 73 43t6 79q-7 30-24 52t-39 34-51 12m407-205l6-20q63 5 99-8t42-42q7-27-4-46t-35-29-64-10l-6-26q51-1 85 13t48 39 5 62q-9 41-54 56t-122 11m-55 205l16-26q51 0 86-8t56-22 26-36q7-29-7-51t-44-36-78-16l6-21q84 6 124 40t27 90q-11 43-64 64t-148 22q-7-1-11-7t-2-13l87-352q3-8 7-12t12-2q8 0 11 5t0 14l-87 351q-2 9-7 12t-10 4m305 0q-20 0-32-13t-16-36 4-53q8-33 23-57t36-38 44-14q19 0 31 11t12 27q0 19-18 39t-50 37-70 31l6-33q29-8 52-20t37-26 13-26q0-5-5-9t-14-4q-14 0-27 11t-24 31-16 45q-9 35-3 52t23 18 40-17 52-50q4-5 10-6t12 4q4 4 4 9t-3 12q-33 37-62 56t-59 19m206 0q-30 0-43-28t-1-74q8-33 23-57t36-38 44-14q18 0 28 13t11 35-7 55q-8 33-22 57t-32 38-37 13m6-27q22 0 40-24t28-63q8-35 2-52t-23-18q-22 0-40 24t-27 63q-9 35-3 52t23 18m-23 205q-21 0-38-12t-29-34q-3-5-1-9t5-7 7-3q6-1 9 0t6 5q10 16 21 25t22 8q12 0 20-10t13-29l77-309q1-4 6-8t11-3q7 0 11 4t2 9l-77 309q-8 32-24 48t-41 16m169-178q-10 0-11-7t0-14l44-172q2-8 6-12t14-3q7 0 9 4t1 12l-44 173q-2 8-5 13t-14 6m69-260q-7 0-12-6t-5-12 4-12 13-5q7 0 13 4t6 13q0 6-6 12t-13 6m154 260q-10 0-11-7t0-14l23-91q7-24 8-40t-2-24-12-7-20 8-26 23-27 32-23 33-13 30l14-67q14-25 32-44t37-31 33-12q15 0 23 6t12 19 2 31-8 46l-23 90q-2 8-5 13t-14 6m-132 0q-10 0-11-7t0-14l44-172q2-8 7-12t13-3q7 0 9 4t1 12l-43 173q-2 8-6 13t-14 6m348 0q-10 0-11-7t0-14l23-91q7-24 8-40t-2-24-12-7-20 8-26 23-27 32-23 33-13 30l14-67q14-25 32-44t37-31 33-12q15 0 23 6t12 19 2 31-8 46l-23 90q-2 8-5 13t-14 6m-132 0q-10 0-11-7t0-14l44-172q2-8 7-12t13-3q7 0 9 4t1 12l-43 173q-2 8-6 13t-14 6m263 0q-19 0-32-13t-16-36 4-53q9-33 24-57t36-38 44-14q18 0 30 11t13 27q0 19-19 39t-49 37-71 31l6-33q30-8 53-20t36-26 14-26q0-5-6-9t-14-4q-14 0-27 11t-23 31-17 45q-8 35-3 52t24 18 39-17 52-50q4-5 11-6t11 4q5 4 5 9t-4 12q-32 37-62 56t-59 19m159 0q-10 0-11-7t0-14l44-172q2-8 7-12t13-3q7 0 9 5t1 11l-43 173q-2 8-6 13t-14 6m29-57l14-67q14-25 31-44t35-31 33-12q27 0 37 38 1 6-3 10t-9 6q-7 2-12-1t-7-9q-3-16-13-16-8 0-20 8t-26 23-26 32-21 33-13 30" />
</svg>