<svg id="fnt-Electrolize" viewBox="0 0 2357 1000" xmlns="http://www.w3.org/2000/svg"><path id="electrolize" class="f" d="M92 632h182v35h-224v-350h224v35h-182v120h154v35h-154v125m252-2v-333h42v307q0 12 1 14t7 7q7 5 8 8t1 14v20h-15q-9 0-12-1t-11-6l-11-8q-7-5-9-8t-1-14m310-8l30 25-12 10q-9 7-13 8t-12 2h-133q-12 0-24-10l-12-10q-12-10-12-25v-160q0-15 12-25l12-10q12-10 24-10h116q10 0 24 10l13 10q12 9 12 25v102h-171v47q0 8 0 10t6 6 7 4 11 1h97q9 0 12-2t13-8m-146-90h129v-60q0-7-1-10t-5-5-7-5-12 0h-80q-9 0-11 0t-7 5-6 5 0 10v60m431-70v20h-42v-10q0-7-1-10t-5-5-7-5-12 0h-67q-9 0-11 0t-7 5-6 5 0 10v139q0 8 0 10t6 6 7 4 11 1h67q9 0 12-1t7-4 5-6 1-10v-9h42v20q0 15-12 25l-12 10q-12 10-24 10h-104q-12 0-24-10l-12-10q-12-10-12-25v-160q0-15 12-25l12-10q12-10 24-10h104q12 0 24 10l12 10q12 10 12 25m73-115h42v70h64q6 5 7 7t2 15v13h-73v159q0 8 0 10t6 6 7 4 11 1h46q6 5 7 7t2 15v13h-73q-12 0-24-10l-12-10q-12-10-12-25v-170h-24q-7-5-8-8t-1-14v-13h33v-70m173 94v-24h18q9 0 12 1t9 6q8 7 8 13h2q0-6 11-13 9-5 12-6t13-1h46q12 0 24 10l12 10-30 25-6-5q-5-4-7-5t-12 0h-21q-9 0-13 1t-12 6-10 8-2 10v190h-42v-195q0-7-1-10t-5-5-5-6-1-10m258-24h120q12 0 24 10l12 10q12 10 12 25v160q0 15-12 25l-12 10q-12 10-24 10h-120q-12 0-24-10l-12-10q-12-10-12-25v-160q0-15 12-25l12-10q12-10 24-10m126 194v-139q0-7-1-10t-5-5-7-5-12 0h-83q-9 0-11 0t-7 5-6 5 0 10v139q0 8 0 10t6 6 7 4 11 1h83q9 0 12-1t7-4 5-6 1-10m105 19v-333h42v307q0 12 1 14t7 7q6 5 7 8t2 14v20h-15q-10 0-13-1t-10-6l-11-8q-8-5-9-8t-1-14m165-213v250h-42v-250h42m5-78v4q0 9-1 12t-5 6q-4 4-18 4h-3q-11 0-13-1t-6-3q-4-4-5-6t0-12v-4q0-10 0-12t5-6q3-3 6-4t13 0h2q15 0 20 4 3 3 4 6t1 12m95 290v3h138q6 5 7 7t2 15v13h-192v-37l130-168q6-6 10-8v-2h-129q-7-5-8-8t-1-14v-13h185v38l-131 166q-6 7-11 8m387-7l30 25-12 10q-9 7-12 8t-12 2h-134q-12 0-24-10l-12-10q-12-10-12-25v-160q0-15 12-25l12-10q12-10 24-10h117q10 0 24 10l12 10q12 9 12 25v102h-171v47q0 8 1 10t5 6 7 4 12 1h97q9 0 12-2t12-8m-146-90h129v-60q0-7-1-10t-5-5-7-5-11 0h-80q-9 0-12 0t-7 5-5 5-1 10v60" />
</svg>