<svg id="fnt-Encode Sans SC" viewBox="0 0 3681 1000" xmlns="http://www.w3.org/2000/svg"><path id="encode-sans-sc" class="f" d="M274 667h-232v-370h229v34h-188v301h191v35m-27-173h-179v-34h179v34m125 173h-38v-298h41l176 251h-8v-251h38v298h-41l-176-251h8v251m422 3q-45 0-78-15t-50-48-18-89q0-53 18-86t51-50 81-17q18 0 35 2t33 7v33q-16-4-33-6t-33-2q-36 0-60 12t-37 38-13 69q0 45 13 71t37 37 58 11q17 0 33-3t35-8v34q-16 5-34 8t-38 2m233 0q-41 0-71-16t-47-49-16-87q0-53 17-87t46-50 71-16 70 16 47 50 17 87q0 53-17 87t-47 49-70 16m0-32q28 0 49-12t32-38 12-69q0-45-12-71t-32-38-49-12-49 12-32 37-12 70q0 44 12 71t32 38 49 12m277 31q-18 0-37-1t-40-3v-291q13-2 28-4t29-3 28-1q80 0 121 37t40 115q0 53-19 86t-56 49-94 16m9-33q40 0 66-12t40-38 13-68q0-42-13-68t-39-39-65-12q-12 0-25 1t-22 3v231q10 1 21 2t24 0m429 31h-202v-298h200v32h-160v234h162v32m-23-137h-154v-31h154v31m279 141q-22 0-46-3t-46-12v-35q16 6 32 9t31 5 29 2q46 0 68-17t22-51q0-28-17-43t-56-26l-20-5q-47-12-71-36t-23-65q0-47 33-75t98-27q22 0 43 3t38 8v35q-19-6-39-9t-41-3q-31 0-52 8t-30 23-9 35q0 27 15 42t53 25l20 5q34 9 56 23t33 33 10 46q0 34-15 57t-45 36-71 12m198-4h-40l112-298h57l112 298h-41l-103-280h6l-103 280m179-93h-158l10-32h139l9 32m150 93h-38v-298h41l176 251h-8v-251h38v298h-41l-176-251h8v251m355 3q-19 0-40-3t-39-8v-34q14 4 27 7t28 4 25 2q26 0 42-6t25-17 8-28q0-14-6-23t-18-17-36-12l-16-3q-44-10-65-30t-20-53q0-25 13-43t38-30 66-11q18 0 36 3t33 6v33q-17-4-34-7t-34-2q-28 0-45 6t-25 17-8 26q0 21 12 33t46 19l16 3q31 7 50 18t27 27 9 38q0 26-13 45t-38 30-64 10m372 1q-22 0-46-3t-45-12v-35q15 6 31 9t31 5 29 2q46 0 68-17t22-51q0-28-16-43t-57-26l-20-5q-47-12-71-36t-23-65q0-47 33-75t99-27q21 0 42 3t38 8v35q-19-6-39-9t-40-3q-32 0-52 8t-30 23-10 35q0 27 15 42t53 25l20 5q34 9 56 23t33 33 11 46q0 34-16 57t-45 36-71 12m344 0q-38 0-69-10t-53-32-34-59-12-88q0-67 21-109t59-61 92-20q21 0 41 3t39 8v35q-20-6-39-8t-40-3q-42 0-71 15t-44 49-15 90q0 59 15 93t44 48 69 14q20 0 40-3t41-11v36q-19 6-40 10t-44 3" />
</svg>