<svg id="fnt-Engagement" viewBox="0 0 1507 1000" xmlns="http://www.w3.org/2000/svg"><path id="engagement" class="f" d="M156 319q24 0 42 6t29 14 18 16 8 12q1 2 1 4t0 3q0 3-1 4t-3 4q-2 3-4 4t-3 1-4 2-3 4q-4 7-11 7-5 0-8-3t-9-6-12-9-15-8-23-7-31-2q-19 0-34 6t-27 18q-11 10-17 21t-5 23q0 12 8 22 6 8 17 15t25 13 26 12 21 9q7 3 10 6t2 7q0 3-2 7t-1 8q0 2 1 4t0 3q0 4-2 7t-6 5-9 4-10 3q-7 2-18 7t-21 11-18 17-7 25q0 10 4 18t12 15 18 10 24 4q30 0 54-13t39-35q3-5 8-14t10-23q1-3 3-4t4-2q2 0 3 1t1 3-2 8-6 15-10 18-12 19q-8 13-20 23t-25 19-29 13-32 4q-15 0-31-4t-28-13-20-21-8-31 7-31 17-22 22-14 22-9 17-6 6-4q0-2-3-4t-9-4-13-5-15-7q-13-7-22-14t-17-16-11-19-3-23q0-17 5-34t15-30 22-27 29-21 34-14 36-5m255 255q1 0 2 1t1 3 0 4q-8 22-14 38t-13 28-13 16-16 6q-10 0-16-5t-10-12-5-17-1-19q0-7 0-13t1-12 0-11 0-7q0-5-1-7t-4-2q-2 0-3 2t-3 5q-1 3-3 10t-6 17-7 20-6 19q-4 11-8 17t-6 11-7 5-5 1q-3 0-5-1t-5-3-4-6-1-10q-1-12-1-27t0-28q0-7 0-13t0-11q0-7 0-10t-2-3q-3 0-5 5t-6 16q-1 4-3 5t-3 2q-2 0-3-1t-1-4q0-2 1-5t3-9 4-9 3-8q2-6 5-12t7-11 9-8 10-3q7 0 12 8t6 23q0 13 0 24t1 20 0 13 1 5q0 0 2-4t4-12 6-16 7-18 8-18 9-16q4-7 9-10t11-4q9 0 13 10t4 28q0 5 0 11t-1 13 0 15-1 12q0 10 1 17t2 9 4 5 3 1q5 0 9-4t8-12 7-17 8-21q2-6 7-6m72-66q6 0 9 3t6 5 3 8 1 9q0 7-2 16t-7 16-11 12-15 5q-5 0-5-4 0-2 1-7t2-14q0-2 0-5t-1-6-3-4-5-2q-6 0-11 5t-8 14-6 18-2 18q0 9 2 15t5 10 7 5 7 2q10 0 17-6t13-11 8-12 6-6q2 0 3 5t0 10q0 4-1 13t-1 20-1 23-1 24-2 20-1 14q-1 21-2 36t-2 25-3 17-2 11q-1 4-4 6t-5 3-6 2-4 2q-6 5-10 8t-7 3q-2 0-3-2t-2-5q0-1 1-4t0-4q0-1 1-3t1-5 1-10 3-16 3-26 5-37q0-5 1-15t2-20 3-23 2-23q0-1-1-1t-2 2-3 5-4 6-7 8-10 6-11 3q-6 0-11-4t-9-9-7-15-2-19q0-21 7-39t22-38q7-9 15-16t16-12 15-7 12-3m180 74q-8 22-14 38t-13 28-13 16-16 6q-6 0-10-4t-7-9-4-9-2-6q0 0-1-1t0-1-1 0-1 2q-1 1-4 6t-8 10-11 8-13 4q-5 0-11-4t-9-9-6-15-2-19q0-21 6-39t22-38q7-9 16-16t16-12 15-7 12-3q3 0 7 2t6 4 4 8 2 11q0 7-3 16t-6 16-11 12-15 5q-5 0-5-4 0-2 1-9t1-11q0-2 0-5t-1-6-3-5-5-2q-6 0-11 6t-8 15-5 18-2 16q0 10 2 16t3 10 6 5 7 2q8 0 14-6t11-12 8-12 5-6q2 0 3 6 1 11 3 18t3 11 4 5 4 2q3 0 7-4t7-12 8-17 8-21q3-6 6-6t4 5q0 1 0 3m69-74q6 0 9 3t6 5 3 8 1 9q0 7-2 16t-7 16-11 12-15 5q-6 0-6-4 0-2 2-7t2-14q0-2 0-5t-2-6-2-4-5-2q-6 0-11 5t-9 14-5 18-2 18q0 9 2 15t5 10 6 5 8 2q10 0 17-6t13-11 8-12 5-6q3 0 3 5t1 10q0 4-1 13t-1 20-1 23-2 24-1 20-1 14q-1 21-2 36t-3 25-2 17-2 11q-1 4-4 6t-5 3-6 2-4 2q-7 5-10 8t-7 3q-2 0-3-2t-2-5q0-1 0-4t1-4q0-1 1-3t0-5 2-10 2-16 4-26 4-37q1-5 2-15t2-20 3-23 2-23q0-1-1-1t-2 2-3 5-5 6-7 8-9 6-11 3q-6 0-11-4t-10-9-6-15-2-19q0-21 6-39t22-38q8-9 16-16t16-12 15-7 12-3m163 66q2 0 3 1t1 3-1 4q-3 10-8 19t-8 16q-4 8-8 15-5 8-12 15t-13 13-16 9-18 3q-7 0-16-2t-15-9-12-19-5-29q0-8 2-17t4-16 6-15 8-12q6-9 13-16t14-14 14-9 13-3q9 0 16 7t7 20q0 12-6 24t-14 24-19 22-18 17q4 11 11 16t14 5q11 0 19-7t16-18 12-21 10-20q1-3 3-4t3-2m-95 12q0 14 2 25 5-5 10-11t9-13 7-13 3-13q0-10-5-15t-8-6q-2 0-5 3t-6 9-5 14-2 20m322-12q4 0 4 4 0 1-1 4-6 16-11 30t-10 24q-2 7-6 13t-8 11-10 7-13 3q-4 0-9-1t-9-5-6-9-4-15q0-5-1-11t0-12q0-13 1-25t1-18q0-5-2-7t-4-2q-2 0-4 2t-2 5q-1 3-4 10t-5 16-7 19-6 18q-4 11-7 17t-6 10-6 5-6 2q-2 0-5-1t-5-4-4-6-2-9q0-4 0-8t0-8q0-9 0-18t1-17 0-14 1-10q0-5-2-7t-4-2q-2 0-3 2t-3 4q-1 3-4 11t-5 17-7 19-6 19q-4 11-7 17t-7 10-6 5-5 1q-3 0-5-1t-5-3-4-6-2-9q0-8 0-14t0-12q0-9 0-18t1-21q0-11 1-21t3-17 4-13 2-6q2-2 4-4t4-2 3 1 2 1q1 0 4-1t5-3q2-1 3-2t4-2q3 0 3 7 0 2-1 8t-1 12q-1 10-1 20t-2 20-1 15 0 9q0 3 1 3 0 0 2-4t4-13 7-17 7-19 8-17 8-14q5-7 10-11t11-3q10 0 13 13t3 38q0 11-1 23t0 23q0 1 0 1 1 0 2-4t5-13 6-17 8-19 8-18 8-13q5-7 10-10t11-4q4 0 7 3t5 7 3 12 1 15q0 4 0 11t-1 13-1 15 0 13q0 10 1 16t2 9 4 5 4 1q4 0 8-4t7-11 7-17 8-21q3-6 7-6m115 0q2 0 3 1t1 3-1 4q-4 10-8 19t-8 16q-4 8-8 15-6 8-12 15t-13 13-16 9-18 3q-7 0-16-2t-15-9-12-19-5-29q0-8 1-17t5-16 6-15 7-12q7-9 14-16t14-14 14-9 13-3q9 0 16 7t7 20q0 12-6 24t-14 24-19 22-19 17q5 11 12 16t14 5q11 0 19-7t16-18 12-21 9-20q2-3 3-4t4-2m-95 12q0 14 2 25 5-5 10-11t9-13 7-13 2-13q0-10-4-15t-8-6q-3 0-6 3t-5 9-5 14-2 20m270-12q1 0 2 1t2 3-1 4q-8 22-14 38t-13 28-13 16-15 6q-11 0-17-5t-10-12-5-17-1-19q0-7 0-13t1-12 0-11 1-7q0-5-2-7t-4-2q-2 0-3 2t-3 5q-1 3-3 10t-6 17-7 20-6 19q-4 11-8 17t-6 11-6 5-6 1q-3 0-5-1t-5-3-3-6-2-10q0-12 0-27t-1-28q0-7 1-13t0-11q0-7-1-10t-2-3q-3 0-5 5t-6 16q-1 4-3 5t-3 2q-2 0-3-1t-1-4q0-2 1-5t3-9 4-9 3-8q3-6 6-12t7-11 8-8 10-3q7 0 12 8t6 23q1 13 1 24t0 20 0 13 1 5q0 0 2-4t4-12 6-16 8-18 8-18 8-16q4-7 9-10t12-4q8 0 12 10t4 28q0 5 0 11t-1 13 0 15 0 12q0 10 0 17t3 9 3 5 3 1q5 0 9-4t8-12 7-17 8-21q2-6 7-6m93 8q-8 22-14 39t-13 27-14 17-17 6q-6 0-13-4t-12-12-9-26-4-44q0-7 1-19t1-25 2-31 3-32q-1 0-2 1t-2 0q-14 1-20 2t-7 3q-1 1-1 2t0 2-1 2-3 1q-1 0-3 0t-3-2-3-4-2-5q0-3 1-5t3-6q2-3 5-7t9-9 14-8 19-5q1-11 2-19t3-14 3-11 3-9q3-10 7-15t10-10q6-6 10-8t7-3q2 0 4 2t2 4q0 2-1 4t0 2q-1 3-2 9t-4 17-4 22-4 27q13 1 22 3t11 3q4 1 5 2t3 5q1 2 2 3t3 2 2 2 1 4q0 2-1 3t-2 3q-2 1-6 2t-11 1-15 2-18 2q-3 30-6 58t-2 50q0 11 1 21t4 16 6 10 9 4q5 0 8-4t7-11 8-17 8-22q2-6 6-6 4 0 4 5 0 0 0 1t0 2" />
</svg>