<svg id="fnt-Erica One" viewBox="0 0 2545 1000" xmlns="http://www.w3.org/2000/svg"><path id="erica-one" class="f" d="M15 667v-346h280v146h-108v20h108v31h-108v20h112v129h-284m462-144v144h-149v-296h125l5 37q1-2 3-4t8-9 16-11q25-13 63-13v159l-71-7m164-127q-38 0-56-15t-18-48 18-48 56-14q75 0 75 60 0 35-19 50t-56 15m75 271h-149v-260h149v260m297-129v119q-33 15-115 15t-118-38-35-116 40-116 120-36q36 0 63 5t36 10l9 5v132h-103v22q9 2 31 2 36 0 64-3l8-1m322-60l-3 61 13 0v113q-9 8-31 14t-42 6-31-4-17-8-8-9q-5-8-5-14-27 35-87 35-83 0-83-70 0-42 32-60t112-21q0-18-38-18-26 0-50 7t-34 13l-11 6v-131q4-4 13-9t43-14 73-9q80 0 117 27t37 85m-142 79v-20l-28 8v12q0 7 4 11t10 4 10-4 4-11m485-241h42q90 0 131 43t41 133-42 135-130 45h-42q-89 0-131-45t-41-135 41-133 131-43m7 165v58q0 6 3 10t10 4 11-4 4-10v-58q0-6-4-10t-11-4-10 4-3 10m370 27v159h-141v-296h125l5 37q2-6 9-14t15-13q22-15 59-15 49 0 73 27t25 79v195h-141v-159q0-6-5-10t-10-4-10 4-4 10m199 11q0-76 35-114t114-39 110 32 31 105l-3 39h-138v17q13 3 37 3 51 0 82-5l11-1v94q-4 2-13 6t-42 10-73 6q-80 0-116-38t-35-115m142-22v20h28v-20q0-6-4-10t-11-4-10 4-3 10" />
</svg>