<svg id="fnt-Ewert" viewBox="0 0 1838 1000" xmlns="http://www.w3.org/2000/svg"><path id="ewert" class="f" d="M309 570v90q0 18 9 23l-9 14q-13 0-28-7t-22-14q-8 8-29 14t-38 7q-36 0-59-20-21 20-47 20t-49-26-25-52l14-9q2 4 10 4 20 0 20-37h-5l-25-30v-36q21 0 29 1v-95h-14l-25-30v-70h269l25 30v122h-58l-25-30v-22h-54v29h36l25 30v58h-38l6 7v36q-8 1-13 1t-11 6-5 13v2q7 2 20 2t24-8 12-22q0-3-3-15v-16h58l25 30m-226-43q5-3 12-12h13q7 9 12 12 5-7 13-11v-26h62v-30h-62v-87h108v52h30v-94h-241v42h40v144q7 3 13 10m159 46q0 20-15 31t-37 12-40-13-17-39q0-9 7-19t24-9v-12q-9 0-14 0t-12 6-14 16q-12-2-23-17-9 13-22 17-7-10-14-16t-13-6-13 0v12q17 0 24 11t8 33-7 35-28 13l-7-1q9 26 32 26t44-23h4l2 2q24 20 58 20t65-23q5 4 19 12t22 10q-5-5-5-26v-70h-30q2 9 2 18m253-226v70h-26l20 98 16 19v-23h14l25-112h35l25 30 21 94 9 11v-23h17l21-99-21-25v-70h139l25 30v70h-32l-25 113 9 11v36q-19 0-30 17t-11 38q0 26 20 29v36q-27 0-38-3t-19-12q-5 3-12 16l-2 5h-58l-25-30-10-19-27 49h-58q-10-18-16-21-8 10-19 12t-35 3l-25-30v-36q19-3 19-29 0-12-4-23l-13-2-25-30v-36h12l-21-94h-14l-25-30v-70h139l25 30m109 177h-19q-9 12-23 22-14-9-24-22h-20v10q4 2 7 9t3 16-13 29-19 24q-7-5-19-24t-13-34 10-20v-10h-20q-8 11-22 22-14-24-40-24v13q19 2 31 23t12 43q0 34-20 38v15q23 0 34-9 5-5 10-13 12 14 23 28h40l33-57h14l31 57h40l21-28q10 16 23 20 11 2 23 2v-15q-20-4-20-38 0-21 12-43t31-23v-13q-26 0-41 24-12-9-23-22h-19v10q11 7 11 21t-13 33-19 24q-7-4-19-24t-13-34 10-20v-10m-171 3q5-4 15-16h7l-27-138h28v-42h-111v42h30l31 139q17 2 27 15m313-154h30v-42h-111v42h28l-28 138h7q10 13 16 16 10-13 27-15l31-139m-184 156q5-3 18-18h11l-23-99h-14l-21 99h12q12 15 17 18m567 41v90q0 18 9 23l-9 14q-13 0-27-7t-22-14q-9 8-29 14t-38 7q-37 0-60-20-20 20-47 20t-48-26-26-52l14-9q3 4 10 4 20 0 20-37h-5l-25-30v-36q21 0 30 1v-95h-14l-25-30v-70h268l25 30v122h-58l-25-30v-22h-53v29h35l25 30v58h-37l5 7v36q-8 1-13 1t-10 6-6 13v2q7 2 20 2t25-8 11-22q0-3-3-15v-16h58l25 30m-226-43q5-3 12-12h14q6 9 11 12 6-7 14-11v-26h61v-30h-61v-87h107v52h30v-94h-240v42h40v144q6 3 12 10m160 46q0 20-16 31t-37 12-39-13-17-39q0-9 7-19t23-9v-12q-9 0-14 0t-12 6-13 16q-12-2-23-17-9 13-23 17-6-10-14-16t-12-6-14 0v12q17 0 25 11t8 33-7 35-28 13l-7-1q9 26 31 26t44-23h5l2 2q24 20 58 20t65-23q4 4 18 12t22 10q-4-5-4-26v-70h-31q3 9 3 18m296 20v-16h-6q-20 0-25 7t-5 23v7q3-1 5-4l39 39q-3 24-17 36t-33 12-39-14q-20 14-39 14-27 0-50-26t-26-52l14-9q3 5 11 5t13-7 6-13 1-18h-6l-25-30v-36q21 0 29 1v-95h-14l-25-30v-70h180q68 0 107 39t39 101-38 90q17 26 17 60v7q3-1 5-4l14 9 25 30q-3 25-19 36t-50 12-61-30-27-74m27-66q6-3 12-12 5 0 7 1 48-22 48-92 0-24-8-42t-20-28-32-16-50-7h-162v42h40v143q8 4 13 11 5-3 12-12h13q7 9 13 12 11-14 31-16 8 0 25 0t25 0q22 2 33 16m-45-4h-26q-9 0-14 0t-12 7-13 16q-13-2-23-17-11 13-23 17-6-11-14-16t-12-7-13 0v12q32 0 32 42 0 16-2 25t-10 18-23 9l-7-2q10 25 31 25t39-16h3q18 16 39 16t32-25q-2 2-11 2t-16-5-10-12q-5-13-5-35 0-42 32-42h26q33 0 33 42v13q0 62 52 62 26 0 37-9 10-8 11-16-3 2-7 2-21 0-27-14t-7-40q0-37-29-46-10 13-22 17-7-11-14-16t-13-7-14 0m-56-27v-123h32q71 0 71 56 0 29-17 48t-54 19h-32m55-79h-16v65q50-4 50-53l0-8q-10-4-34-4m417 0h-18v94h4l25 30v36q-19 0-25 7t-6 23v7q4 0 6-4l14 9 25 30q-3 24-17 36t-34 12-38-14q-19 14-40 14t-46-24-29-54l14-9q2 5 10 5 21 0 21-38h-6l-25-30v-36q21 0 29 1v-95h-14v52h-58l-25-30v-122h288l25 30v122h-55l-25-30v-22m-108 110q5-3 12-12h13q7 9 12 12 5-7 13-11v-143h70v52h29v-94h-260v94h30v-52h68v143q7 4 13 11m17 109h3q18 16 40 16t32-25q-4 2-8 2-35 0-35-52 0-42 33-42v-12q-10 0-15 0t-12 7-14 16q-12-2-22-17-11 13-23 17-6-11-14-16t-12-7-14 0v12q33 0 33 42 0 38-16 48-8 4-19 4l-8-2q10 25 31 25t40-16" />
</svg>