<svg id="fnt-Exo" viewBox="0 0 793 1000" xmlns="http://www.w3.org/2000/svg"><path id="exo" class="f" d="M117 669q-12 0-26-3t-25-9-20-21-7-39v-224q0-22 6-36t17-23 23-12 26-3q31 0 58 1t50 1 46 2v32h-144q-19 0-31 11t-11 33v87l164 3v30l-164 3v86q0 19 6 28t17 13 21 3h142v32q-23 1-48 2t-51 2-49 1m420-2h-41l-191-267h40l192 267m-192 0h-40l100-145 15 36-75 109m192-267l-101 145-18-31 78-114 41 0m139 270q-29 0-51-6t-36-21-21-42-7-68q0-42 7-69t21-42 36-20 51-6 51 6 36 21 22 41 7 69q0 42-7 68t-22 42-36 21-51 6m0-33q19 0 33-3t24-14 14-32 5-55q0-35-5-56t-14-31-24-14-33-3q-19 0-33 3t-23 14-15 31-5 56q0 34 5 55t15 32 23 14 33 3" />
</svg>