<svg id="fnt-Expletus Sans" viewBox="0 0 3112 1000" xmlns="http://www.w3.org/2000/svg"><path id="expletus-sans" class="f" d="M259 667h-214v-364h207v36h-160v292h167v36m-24-173h-124q4-10 9-18t14-13 20-4h81v35m290 173h-52q-20-33-41-65t-42-65l-86-129h53l53 90 3 10 4-10 54-90h49l-85 127 90 132m-177 0h-48l77-113q6 8 10 18t3 21-8 22l-34 52m281 120h-46v-293q0-30-3-52t-5-34h33q7 5 10 11t8 16l1 8 4-9q15-17 35-24t36-7q35 0 60 18t37 49 13 69q0 30-10 54t-26 41-37 27-43 9q-12 0-24-2t-26-7q7-12 18-20t29-7 33-10 26-30 10-55q0-29-8-52t-23-35-37-13q-17 0-33 9t-32 28v311m296-120h-45v-379h45v379m188 5q-27 0-50-11t-38-28-24-43-9-55q0-40 15-70t42-46 66-16q25 0 45 12t32 31 15 44-5 52h-145q5-15 14-24t28-10h64q2-19-5-35t-19-25-29-9q-21 0-37 11t-25 33-9 53q0 29 10 52t28 35 41 13q17 0 33-4t37-14l12 33q-24 12-46 16t-41 5m259 0q-41 0-63-27t-22-74v-128h-46v-23l46-12v-66l44-14v249q0 25 11 43t30 17q9 0 18-2t23-5l11 31q-19 6-30 9t-22 2m48-229h-29q-12 0-20-5t-13-12-9-18h71v35m137 229q-20 0-36-8t-27-24-9-49v-183h47v188q0 17 7 29t23 11q6 0 10-2t12-2q14-4 27-1t23 14q-27 16-45 21t-32 6m145-5h-35q-12-14-16-27t-4-28v-204h47v196q0 13 1 29t7 34m150 5q-19 0-41-4t-50-17l12-33q19 9 38 13t35 5q23 0 34-11t11-27q0-14-9-23t-23-16-29-14-29-16-23-24-8-34q0-16 9-32t27-25 44-10q14 0 31 2t38 11l-11 32q-16-5-30-7t-23-3q-18 0-29 8t-11 24q0 13 8 22t23 16 29 14 29 17 23 25 9 36q0 19-12 35t-31 26-41 10m361 1q-22 0-50-5t-54-18l13-32q22 10 45 14t40 5q35 0 55-18t20-44q0-21-13-36t-31-26-40-22-41-24-31-32-12-48q0-25 12-45t36-33 53-12q21 0 43 3t47 12l-13 32q-22-6-40-9t-32-2q-28 0-43 16t-15 38q0 20 12 34t31 25 41 23 41 25 32 34 12 48q0 25-14 47t-40 36-64 14m250-1q-26 0-45-10t-29-25-10-36q0-26 13-42t44-27 82-16q-1 6-5 14t-11 15-20 9q-22 4-34 10t-15 16-4 18q0 15 11 26t30 12q17 0 34-9t32-27v-94q0-30-15-48t-48-19q-14 0-27 3t-31 9l-12-31q25-10 43-14t36-3q48 0 74 28t27 79v71q0 30 2 51t6 35h-34q-7-5-11-11t-7-15l-1-9-5 9q-19 19-36 25t-34 6m411-5h-48v-188q0-18-8-29t-23-11q-6 0-10 1t-11 3q-15 3-27 0t-23-13q26-16 44-21t32-6q20 0 37 7t27 25 10 49v183m-164 0h-48v-196q0-14-2-30t-5-33h36q12 14 15 27t4 28v204m317 5q-19 0-41-4t-50-17l12-33q19 9 38 13t35 5q23 0 34-11t11-27q0-14-9-23t-23-16-29-14-29-16-23-24-8-34q0-16 9-32t27-25 44-10q14 0 31 2t38 11l-11 32q-16-5-30-7t-23-3q-18 0-29 8t-11 24q0 13 8 22t23 16 29 14 29 17 23 25 9 36q0 19-12 35t-31 26-41 10" />
</svg>