<svg id="fnt-Explora" viewBox="0 0 937 1000" xmlns="http://www.w3.org/2000/svg"><path id="explora" class="f" d="M107 668q-28 0-55 0t-38 0q-3 0-3-4t3-14 12-30q10-23 21-48t20-48q-7 0-15 1t-14 1h0q0-1 4-4t8-3h19q10-25 19-50t18-50q2-5 2-8 0-5-3-6t-9-1-12 0-11 0q-1 0-1-1 0-3 3-3 7 0 21 1t24 0q10 0 20 0t21 0q20-1 40-1t39 0q3 0 2 1t-1 3q-5 11-9 23t-7 24q-1 1-3 1 0 0 1-6t4-13 3-11q2-10-9-14t-30-4q-4 0-9 0t-8 0q-9 0-18 0t-16 2q-9 1-13 5t-7 11q-7 14-19 40t-25 57q5 0 10 0t10-1q20 0 40-1t40 0q2 0 1 2t-1 2q-5 12-7 19t-4 13q0 1-3 2t-2-1q2-2 3-7t2-10q0-7-6-11t-23-3h-31q-8 0-15 0t-15 0q-13 29-24 58t-18 50q-1 5-2 9t-1 7q0 7 5 10t17 5q7 0 19 1t26 0q10 0 19 0t17-1q16-1 30-4t21-8q2-1 8-11t8-22q0-1 2-1t2 2q-2 8-6 19t-7 20-7 9q-8 1-30 2t-47 0m181 4q-4 0-5-5-2-7-4-30 0-11-1-21t-1-21q-11 12-25 27t-24 28-14 20q0 1-2 1-4 0-5-5-1-2-1-3t0-3q0-4 2-7 4-4 16-14t26-23 27-25q-1-14-1-27t0-27q0-7-1-13t-4-10q-5-8-14-8h-20q-2 0-1-1t1-1q4 0 14 0t20 0 12-2q0 0 0 0t1 0q4 0 2 4-3 8-4 31 0 6 0 12t0 12q0 6 0 12t0 12q13-15 26-30t23-31q5-7 9-14t5-13q1-4 3-4t3 2 3 3q1 3 1 5 0 3-2 5t-2 5q-1 3-6 9t-12 12q-14 14-26 27t-25 28q1 23 5 44 1 6 2 11t3 9q3 8 11 8 2 0 5 0t5-2l15-9h1t0 0 0 0q0 3-3 4-6 4-17 9t-18 8q-1 1-3 1m-63 137q-20 0-30-7t-12-16-2-14q0-13 3-23t9-18q1-3 2-2t1 3q-4 4-7 12t-2 14q0 44 43 44 21 0 38-12t30-32 23-40 17-36l5-12h-21q-2 0-1-2t2-1q8 0 11-4t10-3q2 0 4 0 7-16 15-38t17-42 14-39 5-26q0-6-2-7t-8-2h-20q-2 0-1-1t1-1q10 0 23 0t19-1q4 0 5-1t2 0q4 0 2 4-11 23-21 47t-19 48q12-17 26-37t29-35 26-23q7-4 12-4 11 0 11 16 0 18-8 38t-18 41-25 34-23 23q-13 8-28 12t-29 4q-5 10-9 20t-10 20q-7 15-18 32t-25 32-30 25-36 10m142-145q10 0 20-3t17-6q20-15 38-42t27-61q3-13 3-23 0-17-9-17-4 0-10 5-10 7-25 25t-30 40q-14 21-23 39t-19 42q4 1 11 1m115 8q-4 0-4-5 0-4 4-16t10-28q10-25 23-56t25-60q9-22 18-44t17-44q1-3 1-4 0-6-4-7t-7-2q-5-1-9-1t-10 0q-2 0-2-1t2-1h22q8 0 15 0t9-2q6-1 3 3-6 11-11 21t-10 23l-28 65q-12 27-22 52t-18 45-11 32q0 4-1 7t-1 7q0 6 4 6 4 0 9-3t11-6 7-5q9-7 17-15t15-18q2-3 3-3 1 0 1 1 0 2-2 4-14 17-32 33t-40 21q-2 1-4 1m92 1q-15 0-15-18 0-12 5-29t14-34q1-1 2-4t3-4q-4-7-4-16 0-17 11-33t27-26 32-10 23 8 6 19q0 14-6 31t-12 31q-10 21-25 41t-30 31-31 13m9-7q13-1 26-12t24-28 21-36q5-11 9-27t5-29q0-13-6-22t-18-9q-17 0-30 11t-20 27-7 32v4q8-13 21-29t25-26 24-10q1 0 1 1t-1 1q-9-1-19 7t-20 20-17 25-12 22q2 6 7 10l6 3q1 1 0 1t-2 0q-4-2-8-5t-5-6q-17 36-17 57 0 18 13 18m97 7q-2 0-3-3t-2-3-1-3 0-2q0-3 1-5t3-5q5-10 12-27t14-36 13-36 7-29q0-1 0-3t0-3q0-5-2-8t-8-4h-21q-1 0-1-1t1-1q4 0 14 0t20 0 12-2q1 0 1 0t1 0q4 0 2 4l-6 14-17 46q6-11 15-27t21-26 27-12q8 0 12 4t5 13q0 4-1 9t-3 11q0 1-1 3t-1 3q0 2-2 2t-1-1q3-5 4-9t1-10q0-16-18-16-11 0-22 10t-20 24-17 29-10 23q-7 19-14 36t-12 37q-2 4-3 4m105 0q-9 0-9-15 0-16 6-35t18-39 25-38 29-28q9-7 19-11 6-2 12-3t14 0h35q2 0 1 1t-1 1q-8 0-13 6t-8 12q-4 8-12 24t-14 36-13 37-5 30q0 4 1 8 1 3 5 3 4 0 10-3t10-6 6-5q8-7 15-15t14-18q2-3 3-3 1 0 1 1t-1 4q-13 17-30 33t-38 21q-1 1-3 1-6 0-6-8 0-7 3-19t8-26 9-28 9-23 4-12q-9 16-21 33t-24 32-20 26q-3 3-10 9t-15 11-14 6m10-10q4 0 12-5 6-3 16-15 11-12 25-32t29-43 25-45q3-6 3-8 0-5-13-5-22 0-41 14t-33 36-22 46-8 43q0 14 7 14" />
</svg>