<svg id="fnt-Taviraj" viewBox="0 0 1535 1000" xmlns="http://www.w3.org/2000/svg"><path id="taviraj" class="f" d="M95 667v-13h14q30 0 30-18v-299h-70q-20 0-28 25t-8 51h-14v-96h288v96h-13q-2-27-10-51t-27-25h-69v299q0 18 29 18h14v13h-136m281 5q-31 0-48-15t-17-38q0-37 38-60t118-35v-26q0-25-16-38t-43-13q-19 0-35 7t-16 16q0 3 1 8t1 7q0 7-4 13t-15 5q-8 0-14-6t-6-18q0-25 29-39t69-13q46 0 71 20t25 55v136q0 16 11 16 7 0 18-4v8q-7 7-19 10t-23 4q-14 0-24-6t-10-18v-15q-20 22-44 30t-47 9m23-20q18 0 38-12t30-28v-71q-53 10-82 30t-28 44q0 18 11 27t31 10m267 15l-74-199q-5-14-11-19t-17-4h-8v-13h105v13h-8q-20 0-20 10 0 1 1 5l59 166 58-165q1-4 1-5 0-11-20-11h-8v-13h91v13h-12q-17 0-22 13l-77 209h-38m225-281q-13 0-21-8t-8-19q0-13 8-20t21-8q12 0 20 8t8 20q0 12-8 19t-20 8m-56 281v-13h10q12 0 19-4t7-12v-168q0-11-10-11-3 0-8 1t-7 3l-3-12 63-22h12v209q0 8 7 12t20 4h9v13h-119m297-240q14 0 24 5t11 16q0 10-5 15t-13 5q-6 0-9-2t-6-6q-3-3-6-5t-9-2q-13 0-25 10t-19 27-8 42v106q0 8 7 12t20 4h8v13h-118v-13h9q12 0 19-4t8-12v-168q0-10-10-10-5 0-15 4l-3-11 64-23h11v46q7-21 25-35t40-14m118 245q-31 0-48-15t-17-38q0-37 38-60t118-35v-26q0-25-16-38t-43-13q-19 0-35 7t-16 16q0 3 1 8t1 7q0 7-4 13t-15 5q-8 0-14-6t-6-18q0-25 29-39t69-13q46 0 71 20t25 55v136q0 16 11 16 7 0 18-4v8q-7 7-19 10t-23 4q-14 0-24-6t-10-18v-15q-20 22-44 30t-47 9m23-20q18 0 38-12t30-28v-71q-53 10-82 30t-28 44q0 18 11 27t31 10m232-266q-12 0-20-8t-8-19q0-13 8-20t20-8q13 0 21 8t8 20q0 12-8 19t-21 8m-67 347l-2-11q22-9 32-24t13-32 3-48v-148q0-5-3-8t-7-2-15 4l-4-11 63-23h13v186q0 50-21 79t-72 38" />
</svg>