<svg id="fnt-Telex" viewBox="0 0 1146 1000" xmlns="http://www.w3.org/2000/svg"><path id="telex" class="f" d="M110 667v-314h-110v-40h261v40h-103v314h-48m140-129q0-63 31-98t89-35q57 0 82 34t25 97v8h-179q1 44 20 67t56 23q20 0 39-5t41-15l13 32q-25 13-48 19t-47 6q-58 0-90-35t-32-98m120-96q-29 0-47 17t-23 50h128q-4-34-18-51t-40-16m169 225v-380h46v380h-46m112-129q0-63 32-98t89-35q56 0 81 34t26 97v8h-180q1 44 21 67t56 23q20 0 38-5t41-15l14 32q-26 13-49 19t-47 6q-58 0-90-35t-32-98m121-96q-30 0-48 17t-23 50h128q-3-34-17-51t-40-16m130 225l94-133-87-124h54l62 87 62-87h50l-87 123 95 134h-55l-69-97-68 97h-51" />
</svg>