<svg id="fnt-Tenali Ramakrishna" viewBox="0 0 3346 1000" xmlns="http://www.w3.org/2000/svg"><path id="tenali-ramakrishna" class="f" d="M177 422v25q-30-5-49-5h-20q-1 7-1 14v162q0 26 4 49h-42q4-23 4-49v-162q0-7-1-14h-20q-19 0-49 5v-25h174m175 187h2v32q-25 29-67 29t-67-29-23-63 22-64q24-29 65-29t65 32q15 24 15 60l-1 10h-131q2 29 15 43 15 19 44 19 38 0 61-40m-120-42h99q0-28-11-42-15-20-38-20t-35 20q-13 15-15 42m219 100h-42q4-24 4-49v-76q0-24-4-49l42-8q-2 7-4 22 18-22 52-22t56 26q15 18 15 50v57q0 26 5 49h-42q4-24 4-49v-57q0-25-7-35-12-21-39-21t-38 21q-8 10-8 35v57q0 26 6 49m338-133v84q0 21 5 49h-42q1-4 2-9t1-9q-19 21-50 21-39 0-63-29t-23-63 22-64q24-29 61-29t52 20q0-6-2-12l42-8q-5 28-5 49m-46-9q-15-20-38-20t-36 20q-15 18-15 52t15 53q13 19 36 19t37-18 15-54-14-52m149 142h-42q4-24 4-49v-143q0-23-4-48l42-8q-5 22-5 48v151q0 26 5 49m97 0h-42q4-24 4-49v-76q0-24-4-49l42-8q-5 22-5 49v84q0 26 5 49m-21-205q-9 0-15-6t-6-15 6-16q7-6 15-6t15 6 6 15-6 15-15 7m263-20h-18q-2 22-2 28v77h20q24 0 38-14 14-14 14-38t-13-38q-17-15-39-15m48 181l-36-56-12 1h-20v50q0 26 6 49h-42q4-24 4-49v-148q0-23-4-48h56q40 0 63 21 25 20 25 52 0 32-25 52-5 4-9 7t-10 5l46 70q14 20 30 38h-48q-13-30-24-44m260-89v84q0 21 4 49h-42q2-4 2-9t1-9q-19 21-49 21-40 0-63-29t-24-63 23-64q24-29 60-29t52 20q0-6-2-12l42-8q-4 28-4 49m-47-9q-15-20-38-20t-36 20q-15 18-15 52t15 53q13 19 36 19t38-18 14-54-14-52m303-20q-42 0-42 56v57q0 26 6 49h-43q5-24 5-49v-57q0-26-8-36-11-20-35-20t-35 20q-7 11-7 36v57q0 26 5 49h-42q4-24 4-49v-76q0-24-4-49l42-8q-2 7-3 22 19-22 51-22t50 27q22-27 59-27t57 26q15 20 15 50v57q0 26 5 49h-42q5-23 5-49v-57q0-24-7-36-13-20-36-20m295 29v84q0 21 5 49h-42q1-4 1-9t1-9q-18 21-49 21-39 0-63-29t-24-63 23-64q24-29 61-29t52 20q0-6-2-12l42-8q-5 28-5 49m-47-9q-14-20-37-20t-37 20q-14 18-14 52t14 53q14 19 37 19t37-18 14-54-14-52m150 142h-42q4-24 4-49v-143q0-23-4-48l42-8q-6 22-6 48v97l40-37q19-17 32-39h42q-20 16-37 32l-49 46 75 71q22 19 39 30h-59q-11-19-33-38l-44-40-6 6v23q0 26 6 49m206 0h-42q4-24 4-49v-76q0-24-4-49l42-8q-2 7-4 22 18-22 44-22 14 0 28 7v37h-2q-13-24-33-24t-31 21q-8 10-8 35v57q0 26 6 49m141 0h-42q4-24 4-49v-76q0-24-4-49l42-8q-5 22-5 49v84q0 26 5 49m-21-205q-9 0-15-6t-6-15 5-16q8-6 16-6t14 6 7 15-6 15-15 7m156 66h-2q-10-23-30-23-8 0-16 5t-7 15 17 21l30 18q30 18 30 46t-19 44-43 16q-28-1-34-5-15-10-21-16v-42h1q16 42 54 42 14 0 24-9 9-9 9-24t-17-25l-26-16q-33-20-33-48 0-19 16-32 12-10 32-10t35 10v33m105 139h-42q4-24 4-49v-143q0-23-4-48l42-8q-5 22-5 48v41q18-23 53-23t56 26q15 18 15 50v57q0 26 5 49h-42q5-24 5-49v-57q0-25-8-35-12-21-38-21t-39 21q-7 10-7 35v57q0 26 5 49m221 0h-42q4-24 4-49v-76q0-24-4-49l42-8q-2 7-3 22 17-22 52-22t55 26q16 18 16 50v57q0 26 4 49h-42q5-24 5-49v-57q0-25-7-35-12-21-39-21t-39 21q-7 10-7 35v57q0 26 5 49m339-133v84q0 21 5 49h-42q1-4 1-9t1-9q-18 21-49 21-39 0-63-29t-24-63 23-64q24-29 61-29t52 20q0-6-2-12l42-8q-5 28-5 49m-47-9q-14-20-37-20t-37 20q-14 18-14 52t14 53q14 19 37 19t37-18 14-54-14-52" />
</svg>