<svg id="fnt-Tenor Sans" viewBox="0 0 2588 1000" xmlns="http://www.w3.org/2000/svg"><path id="tenor-sans" class="f" d="M144 667h46v-323h134v-27h-314v27h134v323m177-114h190v-11q0-33-10-58t-26-40-37-24-46-8q-25 0-47 8t-37 26-25 40-9 54q0 25 7 49t24 42 40 30 57 12q32 0 59-12t47-32l-16-16q-10 9-20 17t-18 12-20 8-23 3q-14 0-30-5t-29-15-22-30-9-50m146-20h-146q0-20 4-39t13-33 22-24 32-8q36 0 55 27t20 77m275 134h43v-162q0-9-2-25t-10-31-26-27-51-11q-14 0-32 6t-36 24l-8 8h-2v-32h-42v250h42v-155q0-19 6-33t15-24 21-14 26-4q21 0 32 8t17 19 6 22 1 16v165m368-125q0 26-9 50t-26 42-40 28-53 11q-30 0-55-11t-41-29-26-42-9-49q0-26 9-50t26-41 41-29 55-11q29 0 53 11t40 29 26 41 9 50m-47 0q0-35-8-57t-19-33-27-17-28-4-28 4-27 17-20 33-7 57q0 35 7 56t20 34 27 16 28 5 28-5 27-16 19-34 8-56m155-125h-43v250h43v-151q0-21 4-35t13-23 16-13 18-4q11 0 21 7t14 14l17-31q-4-6-11-10t-12-6-12-3-7-1q-21 0-35 12t-23 34h-3v-40m336 161h-34q1 22 11 39t28 30 42 19 52 7q29 0 52-7t40-20 26-32 9-41q0-31-16-51t-39-33-50-22-51-19-38-23-16-34q0-12 5-23t16-18 25-13 35-4q32 0 55 13t27 44h34q-3-19-14-34t-26-25-37-15-42-5q-23 0-44 6t-36 17-25 29-9 40q0 30 15 48t37 30 50 20 49 19 38 27 15 41q0 33-24 48t-63 15q-32 0-51-9t-29-19-13-24-4-21m392-167q36 0 56 10t29 27 11 38 2 44v137h-41v-25q-14 14-37 22t-45 9q-21 0-38-8t-27-19-17-27-5-31q0-16 6-32t18-29 29-20 40-8 43 8 33 25v-21q0-41-12-61t-45-20q-14 0-24 3t-19 10-15 15-14 21l-26-26q7-7 14-15t19-13 27-10 38-4m57 195v-38q-2-6-7-14t-12-16-18-13-25-5-27 6-20 15-13 22-4 26q0 16 5 27t15 20 20 13 21 4q10 0 19-4t19-10 16-14 11-19m287 61h43v-162q0-9-2-25t-10-31-26-27-51-11q-14 0-32 6t-36 24l-8 8h-2v-32h-42v250h42v-155q0-19 6-33t15-24 21-14 26-4q21 0 32 8t17 19 6 22 1 16v165m255-193h29q0-14-7-25t-20-20-28-13-35-5q-17 0-33 5t-26 13-18 22-6 31q0 24 11 38t27 23 36 13 36 12 27 16 11 26q0 7-2 14t-8 14-17 10-26 5q-20 0-34-7t-23-15-12-17-4-15h-32q0 14 6 27t20 24 32 16 45 7q46 0 69-21t24-53q0-24-12-38t-28-24-37-14-36-11-29-15-11-24q0-6 3-14t8-13 16-11 25-4 26 4 19 11 11 14 3 14" />
</svg>