<svg id="fnt-Thasadith" viewBox="0 0 1903 1000" xmlns="http://www.w3.org/2000/svg"><path id="thasadith" class="f" d="M238 317q1 3 1 6 0 5-4 7t-10 3h-89v318q0 18-13 18-3 0-6-2v-334h-102q-2-3-2-6 0-5 4-8t11-2h210m60 352q-3 0-7-2v-345q0-17 12-17 3 0 7 2v156q10-25 31-41t50-15q39 0 61 25t23 67v152q0 18-12 18-3 0-6-2v-168q0-35-18-56t-48-21q-24 0-43 14t-28 40-10 59v116q0 18-12 18m312 3q-36 0-57-21t-21-57q0-36 24-58t64-21q23 0 41 7t29 18v-38q0-37-20-59t-51-21q-38 0-69 32-10 0-10-9 0-6 11-15t30-16 40-7q39 0 63 26t24 69v149q0 18-12 18-3 0-6-2v-32q-14 17-35 27t-45 10m-2-15q20 0 39-9t31-23 12-34v-17q0-21-22-33t-51-11q-30 0-48 18t-18 47q0 28 15 45t42 17m231 15q-23 0-42-7t-29-16-11-15q0-9 10-9 14 15 32 23t39 9q29 0 46-15t17-40q0-22-15-36t-53-27q-39-13-56-29t-16-40q0-29 20-46t54-17q22 0 39 6t28 16 10 15q0 9-10 9-14-16-30-24t-36-7q-26 0-41 12t-15 34q0 19 16 32t54 26q38 14 54 31t16 44q0 33-21 52t-60 19m202 0q-36 0-57-21t-21-57q0-36 24-58t64-21q23 0 41 7t29 18v-38q0-37-20-59t-51-21q-38 0-69 32-10 0-10-9 0-6 11-15t30-16 40-7q39 0 63 26t24 69v149q0 18-12 18-3 0-6-2v-32q-14 17-35 27t-45 10m-2-15q20 0 39-9t31-23 12-34v-17q0-21-22-33t-51-11q-30 0-48 18t-18 47q0 28 15 45t42 17m251 15q-45 0-72-34t-27-92q0-42 14-73t38-49 58-17q26 0 45 9t33 26v-120q0-17 12-17 3 0 6 2v344q0 18-12 18-3 0-6-2v-48q-15 25-37 39t-52 14m0-15q26 0 46-14t31-36 12-53v-58q0-34-23-54t-55-20q-42 0-67 33t-24 91q0 52 21 81t59 30m195-296q-6 0-10-4t-3-9 3-10 10-4 10 4 4 10-4 9-10 4m-2 308q-3 0-7-2v-240q0-17 12-17 3 0 7 2v239q0 18-12 18m176-30q8 0 8 8 0 9-11 15t-26 7q-20 0-31-13t-10-34v-195h-37q-1-3-1-6 0-4 3-7t11-2h24v-48q0-17 12-17 3 0 6 2v63h59q1 3 1 5 0 5-4 7t-10 3h-46v193q0 16 6 25t19 9q18 0 27-15m66 30q-3 0-7-2v-345q0-17 12-17 3 0 7 2v156q10-25 31-41t50-15q39 0 61 25t23 67v152q0 18-12 18-3 0-6-2v-168q0-35-18-56t-48-21q-24 0-43 14t-28 40-10 59v116q0 18-12 18" />
</svg>