<svg id="fnt-The Nautigal" viewBox="0 0 2066 1000" xmlns="http://www.w3.org/2000/svg"><path id="the-nautigal" class="f" d="M439 462q-2 0-2-1 0-1 4-3 11-7 21-20t10-28q0-12-9-19t-22-11-26-5-21-1q-44 0-86 9t-81 22-81 23-84 15q-20 2-32-11t-11-30q0-7 10-16t25-17 33-16 35-11 30-5h1q3 0 5 1t3 1q0 2-8 3-8 2-23 6t-32 11-33 14-25 16-10 15q0 7 14 11t35 4q38 0 77-9t80-22 80-21 79-9q19 0 37 3 8 1 16 2t14 6q7 3 11 9t3 18q2 4 6 11t4 17q0 6-4 11t-13 10l-11 4q-3 1-8 6t-7 6q-2 1-4 1m-244 236q-14 0-20-12t-6-22q0-19 11-45t28-54 37-56 38-49 31-34q-3-4-3-7 0-6 6-12t14-11 11-8q7 1 16 4t8 11-8 16-13 12q-4 4-8 7t-7 6-6 5-5 5q-12 13-30 33t-36 43-35 49-26 48-10 44q0 8 3 15t12 9q1 1 2 1t0 0q0 2-4 2m208 8q-14 0-18-9t-4-15q0-12 6-29t15-35 17-32q6-10 6-16 0-4-3-4-4 0-14 8t-20 20-18 22-15 23-12 21q-2 4-6 4t-7-4-3-14q0-5 4-21t12-39 17-46 21-45q14-27 31-52t34-46 32-32 25-12q8 0 11 3t4 9 7 8q-2 13-12 32t-30 40q-27 29-54 63t-50 67q-2 3-4 3t1-3q17-30 38-57t43-54 42-55q6-8 9-14t2-9q0-6-5-6-12 0-28 17-16 18-35 42t-33 47q-8 12-18 30t-20 39-16 38-6 25q0 5 3 5 2 0 4-2t4-3q12-12 26-27t28-29 25-26q6 2 10 2t10 2q5 2 5 8 0 4-2 9t-5 10q-11 19-24 36t-24 35-16 41q0 2-1 5t0 6q0 13 8 13 4 0 9-5l14-12q-4 9-9 14t-11 6m95-33q-13 0-25-10t-11-28q0-15 8-33t21-33 27-27 27-11q2 2 5 3t5 2l13 3q11 3 11 14 0 7-4 14t-13 13q-4 3-10 6t-10 6l-23 12q-10 6-18 12t-12 13q0 0-1 0t-1-1q4-9 14-18t21-15q5-4 10-7t10-6 10-8 8-7q4-4 6-8t2-7q0-9-11-9-7 0-16 6-11 7-21 17t-19 23q-10 13-17 30t-7 28 6 16 16 5q13 0 24-6 9-5 16-13t13-14q4-5 9-12t7-10q1-1 2 0t0 1q-2 4-7 11t-13 20q-11 13-22 21t-30 7m354 18q-8 0-17-5t-8-17q0-6 10-22t26-37 32-45q10-13 26-34t34-45 36-46 30-42q6-10 10-19t4-15q0-10-8-15t-29-5q-16 0-44 4t-63 14-69 21q-30 10-58 22t-51 25-38 25q-3 4-6 8t-3 9q0 4 3 7t11 3q7 0 7 3 0 1-3 2t-5 0q-22-7-31-16t-9-19q0-7 15-18t40-22 58-24 67-21q44-13 88-22t79-8q34 0 54 9t21 31q0 10-10 26t-26 38-35 45-37 45-34 41-23 31q-2 4-2 7v0q0 3 2 4t4-2q10-12 29-31t42-41 48-44 50-37q17-11 35-18t30-6q8 0 13 9t6 14q0 9-8 24t-19 33-23 40-22 42-14 42q-1 2-1 4t0 4q0 9 7 9 1 0 2 0t3-1q9-3 16-11t13-16q2-3 3-2t1 3q-3 5-6 10t-5 11q-5 8-10 12t-9 5q-3 0-10-3t-15-9q-7-5-7-18 0-11 5-25t10-27 12-25 8-16q9-15 19-34t17-37q3-7 3-11 0-8-5-11t-10-2q-14 0-36 15t-47 37-51 51-49 55-40 48-25 34q-2 2-8 2m298-19q-10 0-16-10t-5-18q0-17 11-36t26-36 35-28 33-10q5 0 10 3t11 12q1 1 3 4t0 6l-1-1q-1-2-4-4t-11-2q-11 0-26 8t-28 22-26 29-17 33q-3 8-3 14 0 8 5 8 4 0 10-4 10-8 22-21t22-26 19-25 12-17q1-2 3-2t6 0q10 0 13 3t0 7q-6 9-14 22t-12 24-5 22q0 7 6 7 5 0 12-6 6-6 14-16t16-22 14-20q2-3 3-3t0 4q-8 12-16 25t-18 25q-18 23-27 23-8 0-15-5t-7-14q0-10 4-24t8-20q-11 16-24 32t-26 26-17 11m139-4q-11 0-17-5t-4-13q1-5 3-12t5-14l12-28q-1-1-1-2t0-1q-1-2 0-4 13-20 24-33t15-14q7 0 16 10-6 8-13 17t-14 20q-7 11-15 23t-10 22q-3 9-3 14 0 7 5 7 6 0 19-13 8-9 18-23t20-26q10-14 19-27t15-19q5-7 10-7 6 0 15 11-7 10-17 25t-19 32-10 29q-1 2-1 4t0 5q0 14 7 14 4 0 10-4t11-11 9-10q16-21 30-44 3-5 4-5t1 2-1 3q-10 16-23 36t-26 32q-7 7-14 7-14 0-20-7t-7-14q0-5 2-11t3-12l14-35q-8 9-13 15t-9 12q-3 5-8 11t-9 13q-10 12-19 21t-14 9m154 6q-11 0-19-8t-7-25q0-12 5-29t15-37 18-36 18-29q-9 0-15-1t-11 1q-3 0-4-2t0-1q0-2 1-4t4-3h30q3-3 7-10t9-16 7-16 4-8q0-4-3-6-2-1-2-1-1 0-1-1t0 0q-1 0-1-1 0-2 2-3t2 0q3 0 6 1t9 5q3 1 6 2t6 3l4 3q-3 5-10 14t-12 18-10 16h90q6 0 6 2t-5 3-6 2q-6 0-18 0t-25 0-25 1-15 3q-8 2-17 16t-19 32-15 36q-2 4-6 14t-7 20-3 21q0 9 4 13t8 4q6 0 14-7t17-18q10-13 19-26t11-17q4-6 5-6 1 0 1 0t0 0q0 2-2 5t-3 7q-9 13-19 29t-22 27q-13 13-26 13m152-152q-7-3-13-10t-3-14q1-5 2-6t11-2l26-4q5-1 5 0 0 2-4 3-8 2-14 6t-10 11q-1 1-1 4t1 6 3 5 0 2-3-1m-58 152q-17 0-24-11t-7-26q0-11 3-23t9-22q-5-2-3-3 3-5 8-13t11-15q7-8 12-14t11-5q4 0 7 2t7 5q-11 12-23 30t-19 36-7 38q0 8 4 11t9 4q12 0 21-8 9-9 22-25t24-34q3-4 5-5t0 2q-4 8-12 20t-17 25-16 18-13 10-12 3m-25 150q-7 0-16-5t-14-12-6-15q0-8 9-20t22-24 26-23 20-16q29-20 60-35t62-24q4-7 8-20t7-26 3-22q-8 10-19 22t-22 24-23 19-19 8q-11 0-19-6t-8-17q0-6 3-14t8-17q6-10 17-23t25-25 28-21 25-8q6 0 13 5t10 12q2 5 1 7t0 4q-1 1-3-2-2-2-8-4t-11-1q-3 0-5 0t-5 2q-11 5-23 14t-24 21q-17 17-25 30t-7 23q0 14 12 14 7 0 15-7 14-11 26-23t20-21q9-10 15-18t10-13q8 0 9 2t2 6q0 5-2 19t-6 31-10 27q13 2 20 10t7 21q0 2 0 4t-1 4q0 3-3 3t-1-3q1-13-4-23t-21-10q-9 18-24 40t-34 44-39 41-42 30-39 11m-6-9q12 0 32-12 15-8 31-22t33-33 30-35 25-32 14-23q-14 3-34 12t-42 21-43 30-37 35q-9 11-15 24t-7 21q0 14 13 14m237-143q-10 0-16-10t-5-18q0-17 11-36t26-36 35-28 33-10q5 0 10 3t11 12q1 1 3 4t0 6l-1-1q-1-2-4-4t-11-2q-11 0-26 8t-28 22-26 29-17 33q-3 8-3 14 0 8 5 8 4 0 10-4 10-8 22-21t22-26 19-25 12-17q1-2 3-2t6 0q10 0 13 3t0 7q-6 9-14 22t-12 24-5 22q0 7 6 7 5 0 12-6 6-6 14-16t16-22 14-20q2-3 3-3t0 4q-8 12-16 25t-18 25q-18 23-27 23-8 0-15-5t-7-14q0-10 4-24t8-20q-11 16-24 32t-26 26-17 11m156 4q-13 0-22-9t-9-28q0-25 13-61t33-76q16-29 33-56t35-49 31-33 23-12q9 0 13 4t7 10 9 9q0 12-12 29t-27 38q-11 13-30 35t-38 47q-16 19-28 37t-18 29q-2 3-3 2t0-3q5-10 15-26t25-33 26-35 23-29 13-17q7-9 14-18t13-17q6-9 8-16t3-11q0-8-6-8-5 0-12 4t-15 15q-12 15-29 36t-34 48-33 54-24 57-9 54q0 12 5 17t12 5q8 0 16-4t14-11q8-9 16-20t15-21 10-14q2-3 3-3 3 0 0 4-8 14-19 28t-19 26q-8 10-19 16t-22 6" />
</svg>