<svg id="fnt-Tillana" viewBox="0 0 1380 1000" xmlns="http://www.w3.org/2000/svg"><path id="tillana" class="f" d="M142 414l4-82-90 6q-15-15-4-29 109-7 250-5 5 4 3 13t-11 18l-100-6-33 143q-3 31-12 97t-11 98q-36 3-48-15 34-129 52-238m183 69l-1-78q22-10 33-8t16 8l-19 65q-8 72-20 197-36 3-47-16 16-56 38-168m55-136q1 12-7 19t-19 8-19-8-9-19 7-18 19-8 19 8 9 18m74 50l6-124q18-10 28-12t24 4l-29 112q-12 111-33 290-37 3-48-16 34-133 52-254m123 0l6-124q17-10 28-12t24 4l-29 112q-13 111-34 290-36 3-47-16 34-133 52-254m216 193l-5-5-66 75q-38 0-59-22t-21-62 18-82 50-70 63-27q29 13 49 48l1-1q1-33 8-50 35 0 47 16l-37 73q-9 58-19 184-34 4-51-15l22-62m-113-14q0 38 28 55 46-45 88-85l17-74q-8-17-17-27t-25-22q-43 18-67 59t-24 94m285-128l-14 25 5 3q42-57 95-79 27 2 43 21t20 40l-18 45q-9 83-14 164-30 3-44-13 11-69 34-194-3-20-21-28-48 21-95 80-11 71-26 155-32 3-43-12 28-93 44-174l-10-72q21-19 49-15 3 12-5 54m329 142l-6-5-65 75q-39 0-59-22t-21-62 18-82 49-70 63-27q30 13 50 48l0-1q2-33 8-50 36 0 48 16l-38 73q-9 58-19 184-34 4-51-15l23-62m-113-14q0 38 28 55 45-45 88-85l17-74q-8-17-17-27t-26-22q-42 18-66 59t-24 94" />
</svg>