<svg id="fnt-Tilt Neon" viewBox="0 0 1909 1000" xmlns="http://www.w3.org/2000/svg"><path id="tilt-neon" class="f" d="M212 372q13 0 19-7t6-16-6-16-19-6q-5 0-20 0t-34 0-42 0-42 0-36 0q-10 0-17 4t-8 11 0 14 8 11 17 5q12 0 23 0t21 4 15 12 5 24q0 16 0 39t0 47 0 44 0 29q0 12 0 26t0 26 0 24q0 12 7 19t16 6 15-6 7-19q0-11 0-24t0-26 0-26q0-9 0-28t0-41 0-47 0-43q0-19-6-33t-17-24-25-17-30-9-31-2q-10 0-17 4t-8 11 0 14 8 11 17 5q9 0 27 0t40 0 44 0 38 0 25 0m67 275q0 13 7 19t16 6 15-6 7-19q0-12 0-22t0-19 0-22 0-27 0-30 0-27 0-21 0-19 0-22q0-13-7-19t-15-6-16 6-7 19 0 23 0 20 0 19q0 17 0 30t0 25 0 29q0 10 0 20t0 21 0 22m0-298q0 11 7 17t16 6 15-6 7-17q0-6 0-9t0-7 0-9q0-11-7-17t-15-6-16 6-7 17q0 5 0 9t0 7 0 9m116 298q0 12 6 19t16 6 16-6 7-19 0-24 0-22 0-23q0-40 0-74t0-64 0-57q0-11 0-21t0-21 0-22q0-12-7-19t-16-6-16 6-6 19q0 15 0 33t0 31q0 60 0 107t0 88q0 10 0 22t0 24 0 23m139 0q0 13 7 19t16 6 15-6 7-19q0-14 0-23t0-17 0-23q0-25 0-44t0-37 0-33 0-35q0-11 0-20t0-14 0-13 0-15q0-13-7-19t-15-7-16 7-7 19q0 7 0 18t0 22 0 22q0 28 0 48t0 37 0 32 0 32q0 13 0 22t0 19 0 22m81-184q12 0 19-7t6-16-6-16-19-6q-8 0-15 0t-14 0q-14 0-28 0t-27 0q-5 0-9 0t-8 0-10 0q-13 0-19 6t-7 16 7 16 19 7q5 0 9 0t9 0 9 0q15 0 27 0t28 0q7 0 14 0t15 0m176 184q0 12 6 18t16 7 16-7 7-18q0-12 0-22t0-19 0-21q0-17 0-32t0-29 0-28 0-28q0-8 0-14t0-11 0-9 0-8 0-7 0-5 0-3 0-1 2 2 3 4q2 3 4 6t6 8 7 11 10 14q7 11 16 23t19 27 20 28 19 27 17 25q5 8 9 14t7 11 8 11 9 13 10 14q7 10 15 15t14 7 12-2 8-9 4-16q0-7 0-15t0-14 0-14 0-14 0-14q0-13 0-33t0-43 0-44 0-36 0-27 0-21 0-21q0-13-7-20t-16-6-16 6-6 20q0 11 0 22t0 21 0 22q0 8 0 22t0 32 0 36 0 35 0 30q0 17-4 28t-7 20-4 15 7 18q7 10 15 15t14 7 12-2 8-9 4-16q0-9-6-19t-16-21-20-24-21-27q-10-15-23-34t-27-37-26-37-22-30q-6-8-12-17t-12-17-13-19-14-19q-7-10-15-15t-14-6-12 3-8 11-3 18q0 13 0 25t0 23 0 23 0 27q0 12 0 26t0 30 0 29 0 27 0 22 0 19 0 21 0 22m384-127q-13 0-19 6t-7 16 7 16 19 7q10 0 21 0t22 0 26 0 29 0q21 0 35-4t23-12 10-20-1-27q-5-28-21-48t-38-30-50-11q-35 0-62 16t-44 45-16 69q0 40 17 69t46 45 63 15q14 0 29-3t31-8 31-15q11-6 13-15t-2-17-13-10-20 3q-12 7-24 11t-23 7-22 2q-23 0-42-10t-28-28-11-46q0-26 10-45t27-30 40-10q17 0 30 6t22 18 13 28q1 5-1 7t-4 2-7 1-11 0q-16 0-34 0t-33 0-31 0m295 147q12 4 20 0t12-13-1-17-16-13q-9-3-17-7t-14-9-11-14q-7-10-11-24t-4-28q0-24 10-44t28-30 42-10 41 10 28 30 11 44q0 15-4 28t-11 24q-8 12-18 18t-24 12q-12 5-16 13t-1 17 11 13 20 0q22-8 38-19t27-29q11-16 17-36t6-41q0-37-17-67t-44-46-64-16q-36 0-64 16t-45 46-16 67q0 23 6 42t17 35q12 18 27 29t37 19m393-20q0 12 6 19t16 6 16-6 7-19 0-23 0-22 0-23q0-18 0-33t0-26q0-26-8-46t-21-34-32-20-39-7q-26 0-49 10t-39 29-26 42-9 49q0 12 0 26t0 27 0 26 0 25q0 10 5 16t11 8 13 0 12-8 4-16q0-9 0-26t0-37 0-38 0-32 0-16q0-11 0-21t0-19 0-20q0-13-7-19t-15-7-16 7-7 19q0 10 0 20t0 20 0 20q0 5 0 18t0 32 0 37 0 36 0 26q0 10 5 16t11 8 13 0 12-8 4-16q0-12 0-27t0-31 0-29 0-22q0-20 6-35t15-25 23-15 30-5q19 0 32 7t20 20 7 35q0 18 0 32t0 27q0 10 0 22t0 23 0 23" />
</svg>