<svg id="fnt-Tinos" viewBox="0 0 1105 1000" xmlns="http://www.w3.org/2000/svg"><path id="tinos" class="f" d="M228 667h-151v-13l52-7v-287h-13q-61 0-84 5l-7 51h-16v-77h288v77h-16l-7-51q-7-2-32-3t-54-1h-12v286l52 7v13m152-305q0 11-7 19t-19 8q-11 0-19-8t-8-19q0-11 8-19t19-7q11 0 19 7t7 19m-2 75v213l39 6v11h-119v-11l39-6v-196l-32-6v-11h73m126 0l2 19q19-11 40-18t35-7q30 0 45 17t15 51v151l28 6v11h-99v-11l31-6v-147q0-20-10-32t-31-11q-22 0-54 7v183l31 6v11h-99v-11l28-6v-196l-28-6v-11h66m404 114q0 121-108 121-51 0-78-31t-26-90q0-58 26-89t80-31q52 0 79 30t27 90m-44 0q0-53-16-77t-48-23q-32 0-46 22t-14 78q0 55 14 78t46 23q33 0 48-24t16-77m239 51q0 34-21 52t-64 18q-17 0-38-4t-32-8v-56h11l12 32q18 16 47 16 48 0 48-40 0-30-38-43l-21-7q-25-8-36-16t-18-21-6-29q0-30 21-47t56-18q25 0 63 8v50h-12l-10-27q-13-11-41-11-20 0-30 9t-10 27q0 14 9 23t28 16q36 12 47 18t19 14 12 18 4 26" />
</svg>