<svg id="fnt-Tiro Gurmukhi" viewBox="0 0 3443 1000" xmlns="http://www.w3.org/2000/svg"><path id="tiro-gurmukhi" class="f" d="M92 667q-1-7 0-16 25-2 35-5t13-9 3-26v-273h-36q-27 0-42 7t-25 22-18 37q-8 1-16 0 3-24 6-46t5-42q32 2 72 2t82 0q43 0 82 0t72-2q2 20 4 42t5 46q-8 1-16 0-10-23-19-37t-25-22-41-7h-35v267q0 15 1 24t5 13 16 6 29 3q1 8 0 16-11 0-26 0t-29-1-24 0q-10 0-24 0t-29 1-25 0m387 0q-14 0-29 0t-33-1q-16 0-32 1t-31 0q-2-8 0-15 17-1 25-4t10-9 3-24v-112q0-20-2-29t-9-14-27-6q-1-7 0-13 22-4 42-10t39-13l8 3q0 16-1 29t0 26v134q0 19 2 28t10 10 25 4q1 7 0 15m-100-334q0-14 10-24t25-10q14 0 24 10t10 24q0 13-10 23t-25 11q-14 0-24-10t-10-24m124 334q-2-8 0-15 17-1 25-4t10-9 3-24v-112q0-20-2-29t-10-14-26-6q-1-7 0-13 20-4 39-9t40-14l9 3v44q35-44 71-44 18 0 26 9t9 21q0 13-9 20t-21 8q-9 0-19-5t-13-16q-17 0-31 13t-13 31v108q0 19 2 28t12 10 32 4q1 7 0 15-17 0-35 0t-37-1q-18 0-33 1t-29 0m322 6q-37 0-64-16t-42-44-15-63q0-39 15-68t45-45 65-16q37 0 64 16t42 44 15 63q0 37-16 66t-44 46-65 17m-65-129q0 51 17 80t50 30q32 0 49-28t17-76q0-50-17-80t-49-30q-32 0-50 27t-17 77m552 130q-57 0-99-21t-65-61-23-96 23-97 65-65 100-23q19 0 40 3t37 7q10 3 18 5t16 2q6 0 12-2 1 22 2 46t3 49q-11 1-18 1-10-46-36-69t-71-22q-35 0-60 13t-40 35-22 50-7 62q0 47 15 84t44 57 75 21q14 0 31-3t32-9v-63q0-15-1-24t-7-13-16-6-31-3q-1-8 0-16 11 0 26 0t30 1 25 0q16 0 36 0t35-1q1 8 0 16-21 2-30 5t-11 10-2 25v16q0 24 1 40t3 23q-70 23-130 23m295-1q-33 0-51-20t-17-55v-101q0-20-2-29t-10-14-26-6q-2-7 0-13 22-3 41-6t40-9l8 4q-1 15-1 29t0 26v101q0 30 9 44t36 15q15 0 28-7t26-19v-116q0-20-2-29t-10-14-26-6q-1-7 0-13 22-3 41-6t41-9l7 4q0 15-1 29t0 26v129q0 15 2 23t10 10 27 6q1 6 0 12-21 2-41 5t-38 8l-8-4-1-35q-41 40-82 40m192-6q-2-8 0-15 17-1 25-4t10-9 3-24v-112q0-20-2-29t-10-14-26-6q-1-7 0-13 20-4 39-9t40-14l9 3v44q35-44 71-44 18 0 26 9t9 21q0 13-9 20t-21 8q-9 0-19-5t-13-16q-17 0-31 13t-13 31v108q0 19 2 28t12 10 32 4q1 7 0 15-17 0-35 0t-37-1q-18 0-33 1t-29 0m508 0q-1-8 0-15 15-1 23-4t10-9 3-24v-101q0-30-9-45t-36-15q-33 0-57 25 1 8 1 17v114q0 19 2 28t10 10 23 4q1 7 0 15-14 0-28 0t-33-1q-18 0-32 1t-26 0q-2-8 0-15 14-1 21-4t10-9 3-24v-101q0-30-9-45t-36-15q-31 0-55 26v130q0 19 2 28t10 10 24 4q1 7 0 15-14 0-29 0t-33-1q-18 0-33 1t-29 0q-2-8 0-15 17-1 25-4t10-9 3-24v-112q0-20-2-29t-10-14-26-6q-1-7 0-13 21-4 41-9t38-14l9 3v37q40-37 84-37 28 0 42 11t19 29q22-21 44-31t46-9q33 0 49 19t17 56v114q0 19 2 28t10 10 23 4q1 7 0 15-14 0-28 0t-33-1q-19 0-33 1t-27 0m244 6q-32 0-50-20t-18-55v-101q0-20-2-29t-9-14-26-6q-3-7 0-13 21-3 41-6t40-9l7 4q0 15-1 29t0 26v101q0 30 9 44t37 15q15 0 28-7t25-19v-116q0-20-2-29t-9-14-26-6q-2-7 0-13 21-3 41-6t40-9l8 4q-1 15-1 29t0 26v129q0 15 1 23t10 10 28 6q0 6 0 12-22 2-41 5t-38 8l-8-4-1-35q-42 40-83 40m189-6q-1-2-1-4t0-4 0-4 1-3q17-1 25-4t10-9 3-24v-251q0-15-3-23t-12-11-26-5q0-2 0-3t0-3q0-2 0-4t0-3q20-3 41-8t43-15l9 3q-1 11-1 25t0 31v185q6 0 10-2t6-4q1-1 4-4t11-10 21-22q13-15 21-23t8-14q0-4-7-7t-18-3q-1-2-1-4t0-4 0-4 1-4q10 0 25 1t27 0q6 0 17 0t23 0 17 0q1 2 1 4t0 4 0 3-1 4q-26 1-44 13t-34 29l-36 36 69 91q11 14 18 22t16 12 23 5q1 7 0 15-6 0-19 0t-40-1q-4 0-12 0t-15 1q0-5-6-15t-9-14q-2-3-8-11t-14-20-17-23-15-20q-6-8-11-12t-11-4v62q0 19 1 28t9 10 21 4q1 7 0 15-13 0-28 0t-30-1q-16 0-32 1t-30 0m431 0q-1-8 0-15 16-1 23-4t10-9 3-24v-101q0-30-10-45t-36-15q-15 0-28 5t-29 20v131q0 19 2 28t9 10 23 4q3 7 0 15-12 0-27 0t-34-1-33 1-29 0q-2-8 0-15 17-1 25-4t10-9 3-24v-241q0-15-1-24t-4-13q-4-6-12-8t-24-4q-1-6 0-13 20-3 41-8t43-15l9 3q-1 11-1 25t0 30v111q22-21 44-29t42-8q33 0 50 19t18 56v114q0 19 2 28t10 10 24 4q1 7 0 15-15 0-30 0t-33-1q-18 0-32 1t-28 0m270 0q-14 0-29 0t-32-1q-16 0-33 1t-31 0q-1-8 0-15 17-1 25-4t11-9 2-24v-112q0-20-1-29t-10-14-26-6q-2-7 0-13 22-4 42-10t38-13l9 3q-1 16-1 29t0 26v134q0 19 2 28t10 10 24 4q2 7 0 15m-100-334q0-14 10-24t25-10q14 0 24 10t11 24q0 13-10 23t-26 11q-14 0-24-10t-10-24" />
</svg>