<svg id="fnt-Tiro Telugu" viewBox="0 0 2695 1000" xmlns="http://www.w3.org/2000/svg"><path id="tiro-telugu" class="f" d="M92 667q-1-7 0-16 25-2 35-5t13-9 3-26v-273h-36q-27 0-42 7t-25 22-18 37q-8 1-16 0 3-24 6-46t5-42q32 2 72 2t82 0q43 0 82 0t72-2q2 20 4 42t5 46q-8 1-16 0-10-23-19-37t-25-22-41-7h-35v267q0 15 1 24t5 13 16 6 29 3q1 8 0 16-11 0-26 0t-29-1-24 0q-10 0-24 0t-29 1-25 0m387 0q-14 0-29 0t-33-1q-16 0-32 1t-31 0q-2-8 0-15 17-1 25-4t10-9 3-24v-112q0-20-2-29t-9-14-27-6q-1-7 0-13 22-4 42-10t39-13l8 3q0 16-1 29t0 26v134q0 19 2 28t10 10 25 4q1 7 0 15m-100-334q0-14 10-24t25-10q14 0 24 10t10 24q0 13-10 23t-25 11q-14 0-24-10t-10-24m124 334q-2-8 0-15 17-1 25-4t10-9 3-24v-112q0-20-2-29t-10-14-26-6q-1-7 0-13 20-4 39-9t40-14l9 3v44q35-44 71-44 18 0 26 9t9 21q0 13-9 20t-21 8q-9 0-19-5t-13-16q-17 0-31 13t-13 31v108q0 19 2 28t12 10 32 4q1 7 0 15-17 0-35 0t-37-1q-18 0-33 1t-29 0m332 6q-37 0-64-16t-42-44-15-63q0-39 15-68t45-45 65-16q37 0 64 16t42 44 15 63q0 37-16 66t-44 46-65 17m-65-129q0 51 17 80t50 30q32 0 49-28t17-76q0-50-17-80t-49-30q-32 0-50 27t-17 77m431 123q-1-7 0-16 25-2 36-5t13-9 2-26v-273h-36q-26 0-42 7t-24 22-18 37q-8 1-16 0 3-24 5-46t5-42q33 2 72 2t82 0q43 0 83 0t72-2q2 20 4 42t5 46q-9 1-17 0-9-23-19-37t-24-22-41-7h-36v267q0 15 1 24t6 13 15 6 29 3q2 8 0 16-10 0-25 0t-29-1-25 0q-9 0-24 0t-29 1-25 0m378 6q-35 0-60-17t-37-44-13-61q0-35 13-64t39-48 62-18q44 0 69 26t25 68q0 5-1 8t0 7l-158-2q0 2 0 4 0 49 23 77t63 28q34 0 67-22 5 6 7 11-42 47-99 47m-59-163l103-2q1-1 1-3t0-2q0-27-12-45t-35-18q-21 0-37 17t-20 53m314 157q-15 0-30 0t-33-1-33 1-30 0q-1-8 0-15 17-1 25-4t11-9 2-24v-251q0-15-3-23t-11-11-26-5q-2-6 0-13 20-3 41-8t43-15l8 3q0 11-1 25t0 31v262q0 19 2 28t10 10 25 4q1 7 0 15m123 6q-32 0-50-20t-18-55v-101q0-20-2-29t-9-14-26-6q-3-7 0-13 21-3 41-6t40-9l7 4q0 15-1 29t0 26v101q0 30 9 44t37 15q15 0 28-7t25-19v-116q0-20-2-29t-9-14-26-6q-2-7 0-13 21-3 41-6t40-9l8 4q-1 15-1 29t0 26v129q0 15 1 23t10 10 28 6q0 6 0 12-22 2-41 5t-38 8l-8-4-1-35q-42 40-83 40m290 121q-44 0-71-15t-27-43q0-22 15-36t37-28q-19-4-29-16t-10-26q0-27 39-55-16-10-26-27t-10-39q0-27 14-47t37-31 50-10q39 0 65 21 27-21 53-21 13 0 21 5t7 17-7 18-17 6q-9 0-16-6t-9-16q-7 2-11 4t-10 5q17 22 17 51 0 28-13 47t-36 29-49 11q-25 0-46-9-13 12-13 26 0 13 10 16t35 3q11 0 27 0t24 0q50 0 72 17t22 49q0 25-12 43t-33 32-46 19-54 6m-24-119q-27 22-27 47 0 18 10 29t28 16 36 5q17 0 35-5t32-18 13-36q0-21-15-30t-55-9q-9 0-23 0t-31 1q-2 0-3 0m39-101q22 0 34-18t12-49q0-32-12-50t-35-19q-22 0-34 17t-11 49q0 32 12 51t34 19m261 99q-33 0-51-20t-17-55v-101q0-20-2-29t-10-14-26-6q-2-7 0-13 22-3 41-6t40-9l8 4q-1 15-1 29t0 26v101q0 30 9 44t36 15q15 0 28-7t26-19v-116q0-20-2-29t-10-14-26-6q-1-7 0-13 22-3 41-6t41-9l7 4q0 15-1 29t0 26v129q0 15 2 23t10 10 27 6q1 6 0 12-21 2-41 5t-38 8l-8-4-1-35q-41 40-82 40" />
</svg>