<svg id="fnt-Tiro Devanagari Marathi" viewBox="0 0 5597 1000" xmlns="http://www.w3.org/2000/svg"><path id="tiro-devanagari-marathi" class="f" d="M92 667q-1-7 0-16 25-2 35-5t13-9 3-26v-273h-36q-27 0-42 7t-25 22-18 37q-8 1-16 0 3-24 6-46t5-42q32 2 72 2t82 0q43 0 82 0t72-2q2 20 4 42t5 46q-8 1-16 0-10-23-19-37t-25-22-41-7h-35v267q0 15 1 24t5 13 16 6 29 3q1 8 0 16-11 0-26 0t-29-1-24 0q-10 0-24 0t-29 1-25 0m387 0q-14 0-29 0t-33-1q-16 0-32 1t-31 0q-2-8 0-15 17-1 25-4t10-9 3-24v-112q0-20-2-29t-9-14-27-6q-1-7 0-13 22-4 42-10t39-13l8 3q0 16-1 29t0 26v134q0 19 2 28t10 10 25 4q1 7 0 15m-100-334q0-14 10-24t25-10q14 0 24 10t10 24q0 13-10 23t-25 11q-14 0-24-10t-10-24m124 334q-2-8 0-15 17-1 25-4t10-9 3-24v-112q0-20-2-29t-10-14-26-6q-1-7 0-13 20-4 39-9t40-14l9 3v44q35-44 71-44 18 0 26 9t9 21q0 13-9 20t-21 8q-9 0-19-5t-13-16q-17 0-31 13t-13 31v108q0 19 2 28t12 10 32 4q1 7 0 15-17 0-35 0t-37-1q-18 0-33 1t-29 0m332 6q-37 0-64-16t-42-44-15-63q0-39 15-68t45-45 65-16q37 0 64 16t42 44 15 63q0 37-16 66t-44 46-65 17m-65-129q0 51 17 80t50 30q32 0 49-28t17-76q0-50-17-80t-49-30q-32 0-50 27t-17 77m434-227q15 0 35 0t33-1q99 0 149 42t51 123q0 59-26 100t-71 64-105 22q-7 0-19 0t-26-1-22 0q-8 0-22 0t-30 1-25 0q-1-7 0-16 24-2 34-5t12-9 3-26v-232q0-21-3-30t-13-12-33-5q-1-7 0-16 11 0 25 0t29 1 24 0m26 22v266q0 12 0 21t0 14q24 7 50 7 43 0 72-21t44-56 15-80q0-70-36-112t-105-41q-13 0-24 1t-16 1m396 334q-35 0-60-17t-37-44-13-61q0-35 13-64t39-48 62-18q44 0 69 26t25 68q0 5-1 8t0 7l-158-2q0 2 0 4 0 49 23 77t63 28q34 0 67-22 5 6 7 11-42 47-99 47m-59-163l103-2q1-1 1-3t0-2q0-27-12-45t-35-18q-21 0-37 17t-20 53m397-33l-80 187-28 6-78-196q-4-11-8-17t-12-8-21-5q-1-7 0-16 14 0 30 1t31 0q15 0 32 0t28-1q2 8 0 16-17 1-23 4t-6 10q0 4 1 10t4 10 6 16 10 28 13 32 12 31 10 23q10-24 25-58t29-69q2-7 4-13t2-9q0-7-7-10t-23-5q-1-8 0-16 13 0 24 1t29 0q7 0 14 0t25-1q1 9 0 16-21 2-28 9t-15 24m224 195q-33 0-42-33-35 34-72 34-26 0-44-16t-17-42q0-66 134-83 0-12 0-24t1-27q0-17-13-27t-31-10q-13 0-22 4 0 12-5 24t-14 20-21 8q-11 0-17-6t-6-15q0-12 11-23t29-19 36-12 34-4q19 0 34 6t26 20 10 33q0 12-1 31t-1 41 0 42-1 31q0 16 14 16 9 0 28-6 2 3 2 6t2 5q-13 14-27 20t-27 6m-42-47l1-75q-46 6-63 20t-17 34q0 18 9 27t23 9q9 0 20-4t27-11m267 42q-1-8 0-15 15-1 23-4t10-9 2-24v-101q0-30-9-45t-37-15q-14 0-28 5t-29 20v131q0 19 2 28t10 10 23 4q1 7 0 15-14 0-29 0t-33-1q-16 0-31 1t-31 0q-1-8 0-15 17-1 25-4t11-9 2-24v-112q0-20-2-29t-9-14-26-6q-2-7 0-13 43-8 79-23l8 3v38q23-21 45-30t42-8q33 0 51 19t17 56v114q0 19 2 28t10 10 24 4q1 7 0 15-15 0-29 0t-33-1q-19 0-33 1t-27 0m323 5q-33 0-42-33-35 34-72 34-26 0-44-16t-17-42q0-66 134-83 0-12 0-24t1-27q0-17-13-27t-31-10q-13 0-22 4 0 12-5 24t-14 20-21 8q-11 0-17-6t-6-15q0-12 11-23t29-19 36-12 34-4q19 0 34 6t26 20 10 33q0 12-1 31t-1 41 0 42-1 31q0 16 14 16 9 0 28-6 2 3 2 6t2 5q-13 14-27 20t-27 6m-42-47l1-75q-46 6-63 20t-17 34q0 18 9 27t23 9q9 0 20-4t27-11m208 169q-44 0-71-15t-27-43q0-22 15-36t37-28q-19-4-29-16t-10-26q0-27 39-55-16-10-26-27t-10-39q0-27 14-47t37-31 50-10q39 0 65 21 27-21 53-21 13 0 21 5t7 17-7 18-17 6q-9 0-16-6t-9-16q-7 2-11 4t-10 5q17 22 17 51 0 28-13 47t-36 29-49 11q-25 0-46-9-13 12-13 26 0 13 10 16t35 3q11 0 27 0t24 0q50 0 72 17t22 49q0 25-12 43t-33 32-46 19-54 6m-24-119q-27 22-27 47 0 18 10 29t28 16 36 5q17 0 35-5t32-18 13-36q0-21-15-30t-55-9q-9 0-23 0t-31 1q-2 0-3 0m39-101q22 0 34-18t12-49q0-32-12-50t-35-19q-22 0-34 17t-11 49q0 32 12 51t34 19m339 98q-33 0-41-33-36 34-73 34-25 0-43-16t-18-42q0-66 135-83 0-12 0-24t0-27q0-17-13-27t-30-10q-13 0-22 4 0 12-5 24t-14 20-21 8q-11 0-18-6t-6-15q0-12 11-23t29-19 37-12 34-4q18 0 34 6t25 20 10 33q0 12 0 31t-1 41-1 42 0 31q0 16 14 16 9 0 27-6 2 3 3 6t1 5q-12 14-26 20t-28 6m-41-47l1-75q-46 6-64 20t-17 34q0 18 9 27t24 9q9 0 20-4t27-11m110 42q-2-8 0-15 17-1 25-4t10-9 3-24v-112q0-20-2-29t-10-14-26-6q-1-7 0-13 20-4 39-9t40-14l9 3v44q35-44 71-44 18 0 26 9t9 21q0 13-9 20t-21 8q-9 0-19-5t-13-16q-17 0-31 13t-13 31v108q0 19 2 28t12 10 32 4q1 7 0 15-17 0-35 0t-37-1q-18 0-33 1t-29 0m330 0q-14 0-29 0t-33-1q-16 0-32 1t-31 0q-2-8 0-15 17-1 25-4t10-9 3-24v-112q0-20-2-29t-9-14-27-6q-1-7 0-13 22-4 42-10t39-13l8 3q0 16-1 29t0 26v134q0 19 2 28t10 10 25 4q1 7 0 15m-100-334q0-14 10-24t25-10q14 0 24 10t10 24q0 13-10 23t-25 11q-14 0-24-10t-10-24m378-16l103 274 107-274q11 0 22 0t20 0q4 0 14 0t24 0 23-1 15 0q2 8 0 16h-1q-23 2-33 4t-13 10-2 26l4 233q0 16 1 25t5 13 15 5 28 4q2 7 0 15-4 0-15 0t-23 0-24-1-14 0-15 0-23 1-23 0-14 0q-1-7 0-15h1q22-3 32-5t12-10 2-25l-4-268-126 322q-4 2-11 2t-13 1l-119-315-8 258q0 16 2 23t12 11 33 6q2 8 0 15-5 0-17 0t-25-1-17 0q-3 0-12 0t-19 1-20 0-11 0q-1-8 0-15 23-3 33-6t13-12 3-29l10-233q1-18-2-25t-13-11-35-4q-1-8 0-16 17 0 35 1t40 0q7 0 20 0t23 0m538 355q-33 0-41-33-36 34-73 34-25 0-43-16t-18-42q0-66 135-83 0-12 0-24t0-27q0-17-13-27t-30-10q-13 0-22 4 0 12-5 24t-14 20-21 8q-11 0-18-6t-6-15q0-12 11-23t29-19 37-12 34-4q18 0 34 6t25 20 10 33q0 12 0 31t-1 41-1 42 0 31q0 16 14 16 9 0 27-6 2 3 3 6t1 5q-12 14-26 20t-28 6m-41-47l1-75q-46 6-64 20t-17 34q0 18 9 27t24 9q9 0 20-4t27-11m110 42q-2-8 0-15 17-1 25-4t10-9 3-24v-112q0-20-2-29t-10-14-26-6q-1-7 0-13 20-4 39-9t40-14l9 3v44q35-44 71-44 18 0 26 9t9 21q0 13-9 20t-21 8q-9 0-19-5t-13-16q-17 0-31 13t-13 31v108q0 19 2 28t12 10 32 4q1 7 0 15-17 0-35 0t-37-1q-18 0-33 1t-29 0m383 5q-33 0-42-33-35 34-72 34-26 0-44-16t-17-42q0-66 134-83 0-12 0-24t1-27q0-17-13-27t-31-10q-13 0-22 4 0 12-5 24t-14 20-21 8q-11 0-17-6t-6-15q0-12 11-23t29-19 36-12 34-4q19 0 34 6t26 20 10 33q0 12-1 31t-1 41 0 42-1 31q0 16 14 16 9 0 28-6 2 3 2 6t2 5q-13 14-27 20t-27 6m-42-47l1-75q-46 6-63 20t-17 34q0 18 9 27t23 9q9 0 20-4t27-11m206 48q-30 0-47-15t-18-41q0-44 1-85t1-79h-38q-1-7 0-13 50-21 75-69 4 0 8 0t7 1q-1 13-1 28t-1 30h76q2 11 0 23h-76q-1 35-1 74t0 78q0 40 42 40 18 0 33-9 5 6 6 15-30 22-67 22m238-6q-1-8 0-15 16-1 23-4t10-9 3-24v-101q0-30-10-45t-36-15q-15 0-28 5t-29 20v131q0 19 2 28t9 10 23 4q3 7 0 15-12 0-27 0t-34-1-33 1-29 0q-2-8 0-15 17-1 25-4t10-9 3-24v-241q0-15-1-24t-4-13q-4-6-12-8t-24-4q-1-6 0-13 20-3 41-8t43-15l9 3q-1 11-1 25t0 30v111q22-21 44-29t42-8q33 0 50 19t18 56v114q0 19 2 28t10 10 24 4q1 7 0 15-15 0-30 0t-33-1q-18 0-32 1t-28 0m270 0q-14 0-29 0t-32-1q-16 0-33 1t-31 0q-1-8 0-15 17-1 25-4t11-9 2-24v-112q0-20-1-29t-10-14-26-6q-2-7 0-13 22-4 42-10t38-13l9 3q-1 16-1 29t0 26v134q0 19 2 28t10 10 24 4q2 7 0 15m-100-334q0-14 10-24t25-10q14 0 24 10t11 24q0 13-10 23t-26 11q-14 0-24-10t-10-24" />
</svg>