<svg id="fnt-Titillium Web" viewBox="0 0 2716 1000" xmlns="http://www.w3.org/2000/svg"><path id="titillium-web" class="f" d="M113 355h-106v-34h250v34h-106v312h-38v-312m224 312h-38v-250h38v250m0-307h-38v-43h38v43m201 57v32h-79v120q0 43 6 56t30 14l44-3 3 31q-34 5-51 5-39 0-54-19t-15-72v-132h-36v-32h36v-77h37v77h79m84 250h-38v-250h38v250m0-307h-38v-43h38v43m112 307h-37v-359h37v359m116 0h-38v-359h38v359m112 0h-37v-250h37v250m0-307h-37v-43h37v43m228 260v-203h38v250h-38v-18q-37 23-74 23-51 0-68-27t-16-98v-130h37v130q0 54 10 73t43 18q16 0 33-5t26-9l9-4m147-156v203h-37v-250h37v17q37-22 73-22 46 0 65 25 16-10 42-18t47-7q50 0 67 26t17 97v132h-37v-131q0-52-10-72t-43-19q-16 0-34 5t-27 9l-9 5q6 16 6 73v130h-37v-129q0-54-10-74t-43-19q-16 0-33 5t-25 9l-9 5m540 203l-70-346h40l59 312h14l71-309h45l70 309h15l59-312h39l-70 346h-70l-66-296-65 296h-71m554-31l14-2 1 30q-57 8-97 8-54 0-77-32t-22-97q0-131 104-131 51 0 76 28t25 89l-2 28h-165q0 42 15 62t52 20 76-3m-144-109h130q0-46-15-65t-48-19-50 20-17 64m337-115q50 0 70 28t21 101-26 101-92 30q-21 0-70-4l-14-2v-358h37v121q38-17 74-17m-28 226q49 0 65-22t16-75-13-75-44-21q-29 0-60 11l-10 4v176q33 2 46 2" />
</svg>