<svg id="fnt-Trochut" viewBox="0 0 1377 1000" xmlns="http://www.w3.org/2000/svg"><path id="trochut" class="f" d="M287 401v16h-52v-17q0-36-16-48-9-7-18-11t-25-7v333h-55v-333q-17 4-26 7t-17 11q-16 12-16 49v16h-52v-16q0-50 42-68 35-16 96-16 101 0 128 42 11 17 11 42m125 36v100h-39v-46q0-46-43-46v222h-43v-235h43q50 0 71 37v-32h11m201 73v78q0 37-21 60t-58 24-59-24-20-60v-78q0-37 20-60t59-23 58 23 21 60m-44 98v-118q0-48-36-48t-35 48v118q0 49 35 49t36-49m213-2h13q0 18-11 40-6 11-19 18t-29 8q-34 0-54-23t-19-61v-78q0-38 19-61t54-22q18 0 31 8t19 21q9 21 9 36h-13v-4q0-19-15-36-10-10-25-10t-25 12-11 37v117q0 22 10 35t29 14 28-17 9-30v-4m230 41q9 0 15-16l10 1q0 5-3 13t-7 13q-10 14-29 14-41 0-41-50v-133q0-47-30-47-19 0-30 17t-11 41v167h-43v-345h43v139q14-34 47-34t50 21 17 58v124q0 17 12 17m210-215v198q0 17 11 17t16-16l10 2q0 4-3 12t-7 13-11 9-18 5q-35 0-40-37-15 37-50 37-30 0-48-22t-18-58v-160h44v177q0 47 29 47 20 0 31-17t11-41v-166h43m129 215q9 0 15-16l10 1q0 5-3 13t-7 13-12 9-17 5q-41 0-41-50v-176h-22v-14h22v-85h43v85h36v14h-36v185q0 16 12 16" />
</svg>