<svg id="fnt-Trykker" viewBox="0 0 1873 1000" xmlns="http://www.w3.org/2000/svg"><path id="trykker" class="f" d="M89 664l2-18 52-11v-303h-45q-27 0-37 9-9 9-20 42-15 0-21-4l9-77h273l11 77q-8 4-21 4-12-33-19-40t-16-9-22-2h-46v303l53 11 2 3-4 18h-150l-1-3m432-196q-14-16-33-16-16 0-39 32-10 13-19 31v120l61 9 1 3-2 20h-132l-1-3 2-18 32-11v-163l-34-15-2-3 2-13 65-26 4 3 4 63q21-54 56-67 7-3 22-3t29 8q-1 33-16 49m85 309q45-69 67-112l-87-216-28-7-2-3 3-20h101l2 3-3 18-27 9 62 178h2q16-38 28-70l20-57q10-28 17-52l-35-6-1-3 3-20h92l2 3-4 20-26 7-72 180q-13 32-27 62l-25 54-26 53q-14 0-27-11-5-4-9-10m255-113l2-18 32-11v-314l-39-10-2-3 2-13 74-28 4 2v265l94-85-34-7-2-3 3-20h110l1 3-2 18-35 11-82 68 103 116 34 9 1 3-3 20h-109l-2-3 3-18 25-11-81-93-24 20v73l39 9 2 3-4 20h-109l-1-3m292 0l2-18 32-11v-314l-39-10-2-3 2-13 74-28 4 2v265l94-85-34-7-2-3 3-20h110l1 3-2 18-35 11-82 68 103 116 34 9 1 3-3 20h-109l-2-3 3-18 25-11-81-93-24 20v73l39 9 2 3-4 20h-109l-1-3m476-53q13 5 14 18-38 36-75 44-9 2-17 2-51 0-83-36-32-35-32-88 0-58 38-99 17-19 40-30t46-11 39 8 27 22q22 27 22 70 0 12-2 21-3 6-101 6-32 0-68-1 0 46 30 75 26 25 59 25t63-26m-151-97h19q73 0 107-4 0-26-16-48-17-24-41-24-26 0-44 19-21 20-25 57m376-46q-13-16-32-16-16 0-39 32-10 13-19 31v120l61 9 1 3-2 20h-132l-1-3 2-18 32-11v-163l-34-15-2-3 2-13 65-26 4 3 4 63q21-54 56-67 7-3 22-3t29 8q-1 33-17 49" />
</svg>