<svg id="fnt-Turret Road" viewBox="0 0 2755 1000" xmlns="http://www.w3.org/2000/svg"><path id="turret-road" class="f" d="M295 343h-90l-35 46v278h-26v-278l-35-46h-89v-26h102l35 45 35-45h103v26m207 324h-27v-22l-29 22h-115l-53-39v-200h27v185l35 27h100l35-27v-185h27v239m220-220l-16 22-19-14h-74l-34 25v187h-27v-239h27v23l29-23h88l26 19m216 0l-16 22-19-14h-74l-35 25v187h-27v-239h27v23l30-23h88l26 19m274 107h-211v60l34 26h120l31-27 18 21-40 33h-137l-53-39v-161l52-39h138l48 39v87m-27-26v-48l-30-26h-120l-34 27v47h184m222-74h-65v213h-27v-213h-63v-26h63v-111h27v111h65v26m513-30l-58 81h-22l72 162h-30l-70-162h-134v162h-26v-350h243l25 57v50m-27-9v-35l-16-37h-199v136h171l44-64m301 214l-53 39h-128l-53-39v-162l53-39h128l53 39v162m-27-14v-135l-35-26h-110l-35 26v135l35 26h110l35-26m304 51h-26v-20l-28 21h-135l-48-40v-160l48-39h136l27 28v-28h26v238m-26-53v-119l-36-40h-118l-30 26v135l30 25h119l35-27m309 54h-27v-21l-28 21h-135l-48-39v-162l48-38h136l27 27v-137h27v349m-27-54v-121l-35-38h-118l-31 25v136l31 25h119l34-27" />
</svg>