<svg id="fnt-Ubuntu Condensed" viewBox="0 0 3467 1000" xmlns="http://www.w3.org/2000/svg"><path id="ubuntu-condensed" class="f" d="M136 674q-48 0-73-27t-24-87v-240h45v236q0 39 12 59t41 20q31 0 42-21t12-58v-236h45v240q0 58-25 86t-75 28m220-230v188q7 2 14 2t12 1q29 0 43-23t14-77q0-28-3-47t-11-31-16-16-22-5q-16 0-31 8m0-165v127q8-4 16-6t20-2q25 0 42 9t29 28 16 43 5 57q0 69-25 104t-77 34q-19 0-37-4t-32-9v-374l43-7m354 125v255q-7 3-16 5t-20 4-20 3-19 1q-20 0-37-5t-29-16-19-33-6-52v-162h43v160q0 39 11 54t36 16q8 0 16-1t17-3v-226h43m77 263v-255q19-6 40-10t40-3q19 0 35 5t27 18 18 33 6 53v159h-43v-155q0-39-10-57t-37-18q-15 0-33 5v225h-43m281-341v78h66v37h-66v145q0 27 10 37t26 11q9 0 16-2t14-6l8 34q-20 12-43 12-37 0-56-21t-18-68v-249l43-8m283 78v255q-6 3-16 5t-19 4-21 3-18 1q-21 0-38-5t-29-16-18-33-7-52v-162h43v160q0 39 12 54t36 16q8 0 16-1t16-3v-226h43m290 270q-61 0-94-45t-32-141q0-48 9-82t26-54 39-31 49-9q22 0 41 6t31 14l-14 38q-12-8-26-13t-31-5q-40 0-58 33t-18 103q0 71 19 109t62 38q20 0 33-5t25-13l12 35q-11 9-30 16t-43 6m284-138q0 31-6 56t-17 43-28 28-41 10-41-10-29-28-16-43-6-56q0-31 6-56t16-44 29-28 41-10 41 10 28 28 17 44 6 56m-45 0q0-22-3-41t-8-31-14-21-22-7q-13 0-22 7t-14 21-8 31-3 41 3 40 8 31 14 20 22 8q13 0 22-8t14-20 8-31 3-40m108 131v-255q18-6 40-10t39-3q20 0 36 5t27 18 17 33 7 53v159h-43v-155q0-39-10-57t-38-18q-14 0-32 5v225h-43m354-35v-188q-15-8-31-8-13 0-22 5t-17 16-10 31-3 47q0 54 14 77t43 23q6 0 12-1t14-2m0-226v-120l43-7v381q-14 6-32 9t-37 4q-54 0-78-34t-24-104q0-32 5-57t16-43 29-28 42-9q11 0 19 2t17 6m274 142h-124q0 19 3 35t10 27 18 19 29 6q14 0 26-4t18-7l8 34q-6 5-22 10t-36 5q-27 0-46-10t-31-28-16-43-5-55q0-72 24-106t63-33q45 0 63 33t19 94q0 6 0 11t-1 12m-81-114q-21 0-31 22t-12 57h80q0-36-8-58t-29-21m145 233v-255q19-6 40-10t40-3q19 0 35 5t27 18 18 33 6 53v159h-43v-155q0-39-10-57t-37-18q-15 0-33 5v225h-43m278-31q19 0 28-11t10-28q0-11-4-19t-10-13-15-11-17-10q-9-5-17-12t-14-16-10-20-4-26q0-32 20-52t55-20q15 0 28 3t21 9l-9 34q-9-5-18-7t-20-3q-16 0-25 9t-10 27q0 10 4 17t9 13 13 11 15 10q10 5 19 12t16 15 12 20 5 29q0 34-21 55t-59 21q-20 0-36-5t-24-10l9-36q8 4 20 9t29 5m288-88h-125q1 19 4 35t9 27 18 19 29 6q15 0 27-4t18-7l8 34q-7 5-22 10t-36 5q-28 0-47-10t-30-28-17-43-5-55q0-72 24-106t64-33q44 0 63 33t18 94q0 6 0 11t0 12m-81-114q-22 0-32 22t-11 57h79q0-36-7-58t-29-21m258 198v-188q-15-8-31-8-13 0-22 5t-17 16-10 31-3 47q0 54 14 77t43 23q6 0 12-1t14-2m0-226v-120l43-7v381q-14 6-32 9t-37 4q-54 0-78-34t-24-104q0-32 5-57t16-43 29-28 42-9q11 0 19 2t17 6" />
</svg>