<svg id="fnt-Ubuntu Sans" viewBox="0 0 2804 1000" xmlns="http://www.w3.org/2000/svg"><path id="ubuntu-sans" class="f" d="M171 674q-47 0-75-18t-41-49-12-69v-218h39v213q0 56 24 81t65 25q40 0 64-25t25-81v-213h39v218q0 38-13 69t-40 49-75 18m308-1q-22 0-40-3t-32-5-23-6v-374l37-6v143q9-6 27-13t43-7q37 0 63 17t40 48 14 70q0 42-16 72t-45 47-68 17m0-34q27 0 47-12t31-35 11-55q0-21-4-39t-14-33-26-22-38-7q-21 0-39 7t-26 14v176q7 2 21 4t37 2m298 33q-39 0-62-15t-32-42-10-62v-145h38v135q0 35 7 56t22 30 42 9q21 0 37-2t22-4v-224h37v250q-15 4-41 9t-60 5m222-5h-37v-250q15-4 40-9t60-5q41 0 63 15t32 41 9 63v145h-37v-135q0-35-7-56t-22-31-43-9q-21 0-37 2t-21 4v225m333 5q-33 0-52-11t-27-35-8-57v-236l38-7v82h101v31h-101v133q0 27 6 42t18 19 28 6q19 0 31-5t21-8l8 31q-8 4-25 10t-38 5m213 0q-39 0-62-15t-33-42-9-62v-145h37v135q0 35 7 56t23 30 42 9q21 0 37-2t21-4v-224h37v250q-15 4-40 9t-60 5m378 2q-41 0-68-9t-36-15l12-33q11 6 34 15t58 8q39 0 61-14t21-45q0-24-12-38t-31-23-42-17q-28-11-49-24t-32-30-11-44q0-30 14-51t39-31 60-10q29 0 54 7t38 16l-13 32q-14-10-35-16t-44-6q-32 0-53 13t-20 43q0 20 10 32t27 21 40 18q28 11 51 23t36 31 14 52q0 32-15 53t-43 31-65 11m261-2q-28 0-50-8t-34-26-13-47q0-29 14-47t39-25 56-8q14 0 29 2t20 5v-15q0-17-5-33t-17-26-39-10q-28 0-42 4t-22 7l-5-32q9-4 28-8t43-3q36 0 56 12t30 34 10 50v163q-11 2-38 7t-60 4m6-32q17 0 31-1t24-3v-87q-5-3-17-5t-31-3q-16 0-33 4t-28 14-11 31q0 28 18 39t47 11m210 27h-37v-250q15-4 40-9t60-5q41 0 63 15t32 41 9 63v145h-37v-135q0-35-7-56t-22-31-43-9q-21 0-37 2t-21 4v225m304 6q-34 0-53-6t-25-9l9-33q6 2 23 9t46 6q27 0 44-8t17-30q0-13-6-22t-19-15-36-16q-20-8-36-17t-27-23-10-36q0-21 11-37t31-25 48-9q26 0 44 4t26 8l-9 33q-6-4-21-9t-41-4q-21 0-36 8t-16 28q0 14 7 22t19 15 32 14q22 8 39 17t28 24 10 39q0 23-12 39t-34 25-53 8" />
</svg>