<svg id="fnt-Ubuntu" viewBox="0 0 1662 1000" xmlns="http://www.w3.org/2000/svg"><path id="ubuntu" class="f" d="M172 674q-34 0-59-10t-41-29-24-43-7-54v-218h48v212q0 52 23 76t60 23q19 0 34-6t26-17 17-31 6-45v-212h49v218q0 29-8 54t-24 43-41 29-59 10m259-395v139q8-5 25-11t40-6q28 0 50 10t37 28 22 43 8 55q0 31-9 56t-26 43-41 27-54 10q-33 0-58-5t-41-9v-372l47-8m0 183v164q7 2 19 4t32 2q38 0 60-25t23-70q0-20-4-38t-13-30-24-20-34-7q-19 0-35 6t-24 14m455-55v252q-16 4-43 9t-60 4q-30 0-51-9t-33-24-18-38-5-48v-146h46v136q0 47 15 68t51 20q7 0 15 0t15-2 13-1 8-2v-219h47m80 260v-253q16-4 42-8t61-5q31 0 52 9t32 24 18 38 5 49v146h-47v-136q0-24-3-41t-11-28-20-15-31-5q-7 0-15 1t-16 1-13 2-8 1v220h-46m330-341v81h99v39h-99v120q0 19 3 32t9 20 15 10 21 3q21 0 34-5t18-6l9 38q-7 4-25 9t-40 5q-26 0-44-7t-27-20-15-33-4-46v-232l46-8m365 81v252q-16 4-43 9t-60 4q-30 0-51-9t-33-24-18-38-5-48v-146h46v136q0 47 15 68t51 20q7 0 15 0t15-2 13-1 8-2v-219h47" />
</svg>