<svg id="fnt-Unbounded" viewBox="0 0 3441 1000" xmlns="http://www.w3.org/2000/svg"><path id="unbounded" class="f" d="M103 292v214q0 33 14 58t38 37 61 14q35 0 60-14t39-37 13-58v-214h66v216q0 50-22 87t-63 58-93 21q-53 0-94-21t-62-58-23-87v-216h66m366 184l-17-92h65l17 102v181h-65v-191m178-99q40 0 68 16t42 45 15 72v157h-65v-146q0-45-21-68t-60-22q-28 0-49 12t-32 34-11 52l-23-13q5-44 23-75t48-48 65-16m190 290v-385h65v199l-10 19v52l10 21v94h-65m39-142q10-45 32-78t54-52 72-18q41 0 73 18t50 52 18 78q0 44-18 78t-50 52-73 19q-40 0-72-19t-54-52-32-78m233 0q0-28-12-50t-32-34-47-12-50 12-40 34-29 50q11 29 29 50t40 34 50 13 47-13 32-34 12-50m277 149q-52 0-91-19t-60-52-22-78q0-44 22-78t60-52 91-18 90 18 60 52 22 78q0 44-22 78t-60 52-90 19m0-51q33 0 56-12t37-34 13-52-13-52-37-33-56-12q-33 0-57 12t-37 33-13 52 13 52 37 34 57 12m344 51q-39 0-67-16t-41-46-15-72v-156h65v146q0 44 20 67t59 23q27 0 47-12t31-35 11-51l22 12q-4 44-22 75t-46 48-64 17m191-7h-65l-16-102v-181h65v191l16 92m60-191l-17-92h65l17 102v181h-65v-191m177-99q40 0 68 16t43 45 15 72v157h-65v-146q0-45-21-68t-61-22q-27 0-48 12t-32 34-11 52l-23-13q4-44 23-75t47-48 65-16m522 290h-66l-11-108 14-33-14-39 21-205h67l-25 239 14 146m-47-142q-10 45-32 78t-54 52-72 19q-41 0-73-19t-50-52-18-78q0-44 18-78t50-52 73-18q40 0 72 18t54 52 32 78m-233 0q0 29 11 50t33 34 47 13q27 0 50-13t40-34 29-50q-11-28-29-50t-40-34-50-12q-27 0-47 12t-33 34-11 50m497 149q-49 0-88-19t-60-52-22-78q0-44 20-78t58-52 84-18 82 21 54 60 19 90h-266v-49h234l-33 18q-1-28-13-48t-32-31-46-10q-29 0-50 11t-33 32-12 50q0 31 14 54t40 35 63 13q32 0 66-11t60-28v47q-26 20-63 31t-76 12m532-7h-66l-11-108 14-33-14-39 21-205h67l-25 239 14 146m-47-142q-10 45-32 78t-54 52-72 19q-41 0-73-19t-50-52-18-78q0-44 18-78t50-52 73-18q40 0 72 18t54 52 32 78m-233 0q0 29 11 50t33 34 47 13q27 0 50-13t40-34 29-50q-11-28-29-50t-40-34-50-12q-27 0-47 12t-33 34-11 50" />
</svg>