<svg id="fnt-Uncial Antiqua" viewBox="0 0 4199 1000" xmlns="http://www.w3.org/2000/svg"><path id="uncial-antiqua" class="f" d="M264 326v-9h164v9q-13 0-22 2t-13 8-6 11-2 13v264q0 5 2 10t6 11 13 9 22 4v9h-120v-37q-9 10-20 18t-23 15-28 10-33 4q-22 0-44-5t-42-14-37-23-31-32-20-41-7-50q0-29 7-54t17-45 26-37 29-28q35-30 79-47l7 6q-1 0-8 6t-14 16-19 28-19 40-14 53-6 68q0 35 8 62t21 44 33 26 40 9q20 0 38-7t31-22 21-32 8-42v-196q0-5-2-11t-6-11-13-9-23-3m335 332v9h-137v-9q10 0 17-2t10-6 5-8 1-10v-194q0-4-1-8t-5-8-10-6-17-2v-10h137v10q-10 0-16 2t-10 5-6 7-1 9v62q8 17 20 36t29 38 36 37 47 31v-202q0-4-1-8t-5-8-10-7-17-2v-10h137v10q-10 0-16 2t-10 5-5 7-2 9v197q0 3 1 8t5 7 10 6 17 3v9h-104q-18-5-36-15t-36-24-33-28-27-27v59q0 4 1 8t5 8 10 7 17 3m495-188l-9 0q-5-11-14-20t-19-16-23-9-22-3q-22 0-39 11t-30 28-20 39-7 43q0 23 8 43t21 37 34 25 45 9q21 0 34-6t22-13 12-13 5-8l-4 29q-4 6-12 12t-20 9-26 7-30 2q-36 0-66-8t-51-23-34-40-12-55q1-29 8-51t21-38 31-28 39-17 47-10 53-3q18 0 32 1t24 0q-2 9-3 18t-1 16q0 9 2 16t4 16m169 188v9h-137v-9q10 0 17-2t10-6 5-8 1-10v-193q0-4-1-8t-5-8-10-7-17-2v-10h137v10q-9 0-16 2t-10 5-5 7-2 9v195q0 4 1 8t5 8 10 7 17 3m-106-319q0-8 3-15t8-12 13-8 14-3 15 3 12 8 8 12 3 15-3 15-8 12-12 8-15 3-14-3-13-8-8-12-3-15m291 55q18 0 33 4t27 9 21 12 14 12q7-6 16-11t18-8 18-5 17-3l3 8q-10 4-18 13-6 8-12 21t-6 34q0 13 0 26t-1 26 0 25 0 22 0 15 0 6q0 21 5 35t13 20q8 9 18 13l-3 8q-12 0-26-4t-26-10-24-16-18-21q-5 9-13 18t-18 16-26 11-34 4q-32 0-56-11t-40-30-24-42-9-46q0-18 5-36t12-35 21-31 30-26 37-17 46-6m1 255q17 0 28-8t18-19 10-24 4-22l2-92q0-6-2-13t-4-15-7-16-10-14-16-10-22-4q-18 0-33 10t-25 25-16 37-6 45q0 31 7 54t17 37 26 22 29 7m193 18v-9q9 0 16-2t10-5 5-8 2-9v-319q0-4-2-8t-5-8-10-6-16-2v-9h104v352q0 3 1 8t5 7 10 6 17 3v9h-137m695-24l4 11q-22 9-41 12t-33 3q-11 0-20-1t-15-4q-7-2-12-4-11-7-19-16t-14-21-12-23-10-23l-6-13q-24 7-46 16t-38 18-28 17-16 11q-9 10-20 17t-25 14-31 8-38 3l-2-10q23-4 41-16t29-27 22-37 15-44q4-13 11-28t15-28 21-26 27-20q-4-8-8-16t-8-17q-5-10-10-22t-12-22-16-16-24-7q-9 0-19 2t-18 5l-3-10q21-7 43-12t43-5q10 0 20 2t20 4q8 3 15 10t15 16 13 19 11 21 9 20 8 17q21 46 43 92t45 91q5 8 10 16t11 14 14 10 17 3q3 0 9-1t13-3m-186-96l-41-87q-6 10-12 21t-9 22-8 23-8 21q-3 11-8 22t-9 21q18-11 43-23t52-20m314 111v9h-137v-9q10 0 16-2t10-6 5-8 2-10v-194q0-4-2-8t-5-8-10-6-16-2v-10h137v10q-10 0-16 2t-11 5-5 7-1 9v62q8 17 20 36t28 38 37 37 47 31v-202q0-4-1-8t-5-8-10-7-17-2v-10h137v10q-10 0-16 2t-11 5-5 7-1 9v197q0 3 1 8t5 7 10 6 17 3v9h-104q-18-5-37-15t-35-24-33-28-27-27v59q0 4 1 8t5 8 10 7 17 3m337-238h-107q6-14 8-27t2-23q0-3 0-5t0-4q0-1 0-3l9-1q0 11 6 18t13 13 17 9 18 5 17 2 12 0h191q-7 14-9 27t-1 23q0 3 0 5t0 4q0 1 0 3l-9 1q-1-11-6-19t-13-13-17-8-18-5-17-2-12 0h-5q-23 1-41 11t-31 27-19 37-7 45q0 23 4 44t12 38 23 26 33 10q15 0 25-5t18-13 13-19 10-24l57 20q-9 12-20 23t-26 18-34 12-41 4q-25 0-45-5t-37-15-28-22-20-28-12-31-4-32q0-21 6-39t17-34 29-28 39-20m347 238v9h-137v-9q10 0 17-2t10-6 5-8 1-10v-193q0-4-1-8t-5-8-10-7-17-2v-10h137v10q-10 0-16 2t-10 5-6 7-1 9v195q0 4 1 8t5 8 10 7 17 3m-106-319q0-8 3-15t8-12 12-8 15-3 15 3 12 8 8 12 3 15-3 15-8 12-12 8-15 3-15-3-12-8-8-12-3-15m142 210q0-28 8-50t23-38 33-27 39-17 43-10 42-3h114v10q-11 0-18 2t-10 7-4 8-1 8v292q0 4 1 8t4 8 10 7 18 3v9h-137v-9q17 0 25-6t7-14v-85q-12 11-28 18t-34 7q-26 0-51-7t-43-21-30-39-11-61m142 113q7 0 17-4t18-10 14-15 6-19v-194h0q-10 0-22 2t-27 7-27 16-24 24-17 35-6 49q0 18 4 37t13 36 21 26 30 10m316-258v9q-10 0-17 2t-10 6-5 8-1 10v144q0 19 6 32t15 21 21 10 22 0q16-4 28-13t20-23 12-30 5-34v-107q0-4-2-8t-4-9-10-6-17-3v-9h139v9q-10 0-16 2t-10 6-5 8-1 10v193q0 4 1 8t4 8 10 7 17 3v9h-106v-50q-6 10-13 19t-17 16-22 14-28 8q-21 4-38 1t-30-9-23-17-16-24-10-27-3-30v-131q0-4-1-8t-5-7-10-6-17-3v-9h137m387-10q18 0 34 4t27 9 20 12 14 12q8-6 16-11t18-8 18-5 17-3l3 8q-10 4-18 13-6 8-12 21t-6 34q0 13 0 26t0 26 0 25-1 22 0 15 0 6q0 21 6 35t12 20q8 9 18 13l-3 8q-12 0-26-4t-26-10-24-16-18-21q-5 9-12 18t-19 16-26 11-34 4q-32 0-56-11t-40-30-24-42-8-46q0-18 4-36t13-35 21-31 29-26 37-17 46-6m1 255q17 0 28-8t18-19 10-24 5-22l2-92q-1-6-2-13t-4-15-7-16-11-14-16-10-21-4q-19 0-33 10t-26 25-16 37-6 45q0 31 7 54t18 37 25 22 29 7" />
</svg>