<svg id="fnt-Unna" viewBox="0 0 1067 1000" xmlns="http://www.w3.org/2000/svg"><path id="unna" class="f" d="M18 383v-15h109v15l-24-1h-1q-4 0-7 3t-2 7v175q0 42 23 66t65 23q24 0 44-11t30-32 11-45v-175q0-5-2-8t-7-3l-24 1v-15h80v15l-19-1h-1q-4 0-7 3t-2 7v180q0 29-15 51t-40 36-57 13q-61 0-93-27t-33-78v-174q0-5-3-8t-6-3l-19 1m542 272l18-1v13h-97v-13l23 1q6-2 6-10v-113q0-24-2-37t-9-20-22-7q-29 0-47 24t-19 65v88q0 10 7 10l23-1v13h-98v-13l19 1q6-2 6-10v-166q0-9-6-10l-19 1v-13h71q-3 7-3 17v28q11-24 30-37t45-13q36 0 51 16t16 55v122q0 10 7 10m262 0l19-1v13h-98v-13l23 1q7-2 7-10v-113q0-24-3-37t-9-20-22-7q-28 0-46 24t-19 65v88q0 10 6 10l23-1v13h-97v-13l18 1q7-2 7-10v-166q0-9-7-10l-18 1v-13h70q-2 7-2 17v28q10-24 30-37t45-13q35 0 51 16t16 55v122q0 10 6 10m225 0l19-1v13h-71q0-4 1-10t1-9l1-19q-11 21-29 31t-41 9q-31 0-48-14t-16-42q0-39 32-57t102-18v-29q0-24-11-34t-36-10q-38 0-38 21 0 4 2 9t3 10q0 9-6 13t-14 4q-10 0-16-6t-6-17q0-21 22-34t59-13q84 0 84 70v123q0 10 6 10m-104-4q22 0 38-18t17-47v-35q-47 0-68 14t-20 44q0 21 8 31t25 11" />
</svg>