<svg id="fnt-Updock" viewBox="0 0 1038 1000" xmlns="http://www.w3.org/2000/svg"><path id="updock" class="f" d="M316 718q-22 0-32-17t-14-46-3-62q0-13 1-29t5-32 4-28q-10 36-20 67t-24 55-30 37-42 13q-24 0-35-14t-10-37q0-22 7-48t17-54q8-23 13-46t5-43q0-33-16-55t-50-22q-28 0-52 15t-39 38-15 52q0 20 7 37t21 27 33 10q23 0 37-14t15-38v-5q0-4 3-4t3 9q0 27-18 43t-43 17q-23 0-40-12t-25-29-9-38q0-23 10-44t27-36 39-24 45-9q47 0 70 23t22 61q0 35-17 79-12 31-22 63t-10 55q0 17 6 27t23 10q23 0 40-16t29-44 24-65 25-79q4-12 12-25t19-20 25-8q16 0 16 8 0 4-7 4 1 0-3 0t-6 0q-28 0-38 43-6 23-9 50t-2 66q0 42 5 71t15 46q6 8 12 8 4 0 7-4t6-11q4 0 4 3 0 10-7 15t-14 6m-22 87q-10 0-19-8t-11-21q1-6 4-6 3 0 3 5 7 22 16 22 11 0 22-24 6-12 10-27t7-35q5-31 9-96 4-55 12-98 4-17 10-32t15-25 17-9q11 0 11 8 0 5-6 8-21 9-34 56-2 8-4 15t-1 13q8-30 20-43t25-13q12 0 21 10t14 26 5 35q0 23-6 45t-18 36-32 17q3 0 5 0t5 0q30 0 48-20t28-63q0-3 3-3 3 0 3 3-7 40-27 64t-55 25q-16 0-28-5t-15-18q0 24-1 44t-3 34q-11 80-53 80m83-146q9 0 17-9t13-22 9-30 3-31q0-14-2-28t-8-25-14-10q-10 0-18 11t-13 27-8 34-2 30q0 27 5 40t18 13m133 10q-19 0-30-21t-11-55q0-36 16-67 17-34 44-34 17 0 25 14 8 12 8 30l24-148q2 0 4 0t4 1q11 0 17-12 1-1 1-1 3 0 2 3-2 7-8 35t-17 79q-2 10-3 20t-3 19q-4 23-7 48t-3 45q0 16 3 26t10 11 16-8 17-27q5-12 8-25t6-21q0-4 3-4t3 4q-4 15-8 27t-7 22q-9 20-18 29t-20 9q-16 0-24-16t-8-46q-14 63-44 63m4-7q8-1 15-13t15-30 9-39q1-7 2-14t1-14q0-22-6-38t-18-16q-10 0-17 12t-13 28-8 35-2 30q0 14 2 28t7 24 13 7m172 9q-27 0-41-20t-13-60q0-19 4-34t10-28q2-27 16-45t34-17q18 0 30 12t18 32 6 42q0 19-3 35t-8 31q10-1 21-10t16-28q1-4 4-4t2 4q-5 22-17 32t-28 13q-20 45-51 45m43-51q5-15 7-32t2-35q0-20-4-39t-14-29-24-11q-14 0-24 9t-13 28q13-14 36-15 17 0 17 7 0 3-4 2-7-3-11-3-20 0-32 35-4 12-4 24 0 8 3 15 9 23 25 34t40 10m-41 44q23 0 38-38-2 1-5 1t-5 0q-23 0-39-15t-21-34q-1 6-1 12t0 12q0 16 3 30t9 23 21 9m139 4q-21 0-32-13t-15-32-4-38q0-24 8-46t21-36 32-13q30 0 30 36 0 8-2 18t-6 16-11 7q-8 0-8-9t5-15 10-10 5-12q0-22-16-22-10 0-18 9t-14 23-9 32-3 33q0 18 2 33t9 23 19 9q16 0 28-12t21-30 13-38q1-5 3-5 4 0 3 5-4 22-14 42t-23 33-34 12m59 2q-2 0-2-4 2-35 9-93 4-34 9-69t14-66 19-56 25-39 32-14q28 0 28 32 0 17-8 38t-22 41-30 35-33 20q-12 53-18 102 2-6 5-15t6-22q7-23 18-41t24-30 25-11q23 0 23 26 0 16-10 28t-25 19-30 11q7 0 12 6 8 10 11 33 1 10 2 21t2 20q1 9 4 13t9 4q9 0 17-8t13-21 10-26 6-23q1-4 3-4 3 0 3 1t0 3q-4 23-12 42t-19 32-27 12q-11 0-20-6t-12-17q-2-9-3-22t-1-24 0-16q-1-10-4-15t-12-5l-1 4q-23 79-23 98l-7 0q-5-1-8 5 0 1-2 1m43-183q14-4 28-18t27-33 20-38 8-35q0-24-15-24-14 0-26 19t-25 62q-3 11-7 28t-10 39m1 70q10 0 22-6t21-14 16-19 7-19-3-11-9-3q-9 0-20 12t-20 28-14 32" />
</svg>