<svg id="fnt-Urbanist" viewBox="0 0 1823 1000" xmlns="http://www.w3.org/2000/svg"><path id="urbanist" class="f" d="M166 673q-42 0-73-20t-47-55-16-77v-204h35v204q0 32 12 58t34 43 55 16q33 0 55-16t34-43 12-58v-204h35v204q0 31-10 59t-27 49-43 32-56 12m227-6h-35v-250h35v34q14-19 35-30t46-11q15 0 28 3l-14 35q-11-3-21-3-20 0-37 10t-27 27-10 37v148m262-257q37 0 67 17t47 48 18 66q0 28-10 52t-29 42-42 28-51 10q-31 0-53-15t-36-38v47h-35v-375h35v171q13-24 36-39t53-14m0 229q27 0 49-13t34-36 13-49q0-27-13-49t-35-35-48-13q-26 0-46 13t-30 35-10 49q0 28 11 50t29 35 46 13m379-176l-1-46h35v250h-35l-2-47q-12 24-34 39t-52 14q-28 0-52-10t-42-29-29-42-10-52q0-27 10-50t28-42 42-28 50-10q32 0 55 15t37 38m-90 176q27 0 46-13t29-35 11-49q0-28-11-50t-29-35-46-13-49 13-34 35-13 50q0 27 13 49t35 35 48 13m392-127v155h-35v-148q0-21-10-37t-27-27-37-10q-21 0-38 10t-26 27-10 37v148h-35v-250h35v34q13-19 34-30t46-11q29 0 52 13t37 37 14 52m50 155v-250h35v250h-35m17-294q-8 0-14-6t-6-14 6-14 14-6q9 0 14 6t6 14-5 14-15 6m153 298q-20 0-40-7t-34-19-21-27l31-13q4 9 14 18t25 13 28 4q15 0 29-5t21-14 9-22q0-14-9-22t-23-12-28-9q-27-7-47-16t-32-22-11-36q0-22 13-39t33-26 45-9q31 0 56 13t36 36l-28 16q-5-10-14-17t-23-12-25-5q-16 0-29 5t-23 14-8 24 8 21 23 11 32 10q22 7 42 17t33 23 12 34q0 23-14 40t-35 25-46 8m265-254v35h-59l-1 215h-35l1-215h-46v-35h46l-1-79h35l1 79h59" />
</svg>