<svg id="fnt-Oi" viewBox="0 0 798 1000" xmlns="http://www.w3.org/2000/svg"><path id="oi" class="f" d="M248 684q-120 0-182-51t-61-151q0-110 62-161t183-52q129 0 189 51t60 149q0 112-63 163t-188 52m-11-240v65h30v-65h-30m283 231q-4-10-6-26t-3-33 1-33 5-26q7-3 14-9t12-20 5-35q0-22-6-35t-13-18-12-8q-5-8-7-24t-2-34 3-36 8-28q5 1 9 1t9 2q-2 31 13 53t39 32 54 4q-24-1-44-13t-33-32-12-44q0-20 10-40t33-32 62-12q62 0 91 31t29 92q0 29-5 52t-10 46-4 44q0 22 4 35t12 19 15 9q3 10 4 26t1 33-2 33-7 26q-14-1-36-3t-48-3-52-1q-24 0-49 1t-46 3-36 3" />
</svg>