<svg id="fnt-Old Standard TT" viewBox="0 0 3691 1000" xmlns="http://www.w3.org/2000/svg"><path id="old-standard-tt" class="f" d="M180 676q-42 0-75-27t-51-70-19-90 19-91 51-70 75-26 75 26 52 70 18 91-18 90-52 70-75 27m0-16q49 0 71-45t21-126q0-82-21-127t-71-44-70 44-22 127q0 81 22 126t70 45m184 7v-12h26q6 0 9-3t2-8v-310q0-6-2-9t-9-2h-26v-12h73v333q0 6 3 8t8 3h26v12h-110m233 6q-23 0-44-16t-32-43-12-61 12-61 32-44 44-15q20 0 35 12t23 31l2 0v-142q0-6-2-9t-9-2h-36v-12h83v333q0 6 3 8t8 3h26v12h-73v-37l-2-1q-9 20-24 32t-34 12m6-14q15 0 27-11t20-31 7-41v-46q0-23-7-42t-20-30-27-11q-25 0-37 27t-13 79 13 78 37 28m459 17q-21 0-42-10t-35-20q-21-16-25-16-10 0-13 22l-2 20h-11l-4-158h12q3 37 21 70t44 55 55 21q41 0 59-20t19-48q0-25-14-39t-42-25l-76-30q-39-16-58-42t-19-60q0-48 28-71t70-23q33 0 73 30 5 3 10 6t9 3q9 0 10-12l2-18h12l5 130h-12q-8-36-25-64t-40-44-48-15q-28 0-46 18t-18 51q0 22 12 35t34 21l96 39q34 13 50 38t17 53q0 26-12 50t-36 38-60 15m237-3q-22 0-37-16t-15-44v-160h-37v-14h11q23 0 35-25t13-53v-18h14v96h62v14h-62v163q0 15 6 25t21 10q35 0 35-60h9q0 33-10 57t-45 25m160 0q-26 0-46-13t-19-46q0-26 13-40t30-21 42-11l46-8v-43q0-46-46-46-17 0-31 8t-14 20q0 5 1 8 1 1 3 3t5 2q9 2 13 7t5 12q0 11-6 15t-16 5q-11 0-20-9t-9-24q0-19 10-32t27-21 33-6q33 0 57 17t24 54v123q0 25 16 25 12 0 18-15t5-35h9q0 30-9 50t-31 21q-21 0-32-13t-12-35l-2-1q-8 17-25 33t-39 16m8-18q23 0 35-18t23-45v-48l-43 10q-24 5-35 19t-11 42q0 23 10 31t21 9m170 12v-12h21q6 0 9-3t2-8v-182q0-6-2-9t-9-2h-21v-12h68v41l2 0q12-24 29-36t37-11q37 0 52 22t15 54v135q0 6 3 8t8 3h21v12h-100v-12h21q6 0 9-3t2-8v-144q0-22-9-38t-29-15q-18 0-32 12t-21 33-8 48v104q0 6 3 8t8 3h21v12h-100m363 6q-23 0-44-16t-32-43-12-61 12-61 32-44 44-15q20 0 35 12t23 31l2 0v-142q0-6-2-9t-9-2h-36v-12h83v333q0 6 3 8t8 3h26v12h-73v-37l-2-1q-9 20-24 32t-34 12m6-14q15 0 27-11t20-31 7-41v-46q0-23-7-42t-20-30-27-11q-25 0-37 27t-13 79 13 78 37 28m231 14q-26 0-46-13t-19-46q0-26 13-40t30-21 42-11l46-8v-43q0-46-46-46-17 0-31 8t-14 20q0 5 1 8 1 1 3 3t5 2q9 2 13 7t5 12q0 11-6 15t-16 5q-11 0-20-9t-9-24q0-19 10-32t27-21 33-6q33 0 57 17t24 54v123q0 25 16 25 12 0 18-15t5-35h9q0 30-9 50t-31 21q-21 0-32-13t-12-35l-2-1q-8 17-25 33t-39 16m8-18q23 0 35-18t23-45v-48l-43 10q-24 5-35 19t-11 42q0 23 10 31t21 9m170 12v-12h21q6 0 9-3t2-8v-182q0-6-2-9t-9-2h-21v-12h68v50l2 0q11-26 27-41t36-15 31 11 12 30q0 11-8 21t-19 11q-10 0-16-5t-7-14q0-11 10-18 5-3 7-6t2-6q0-5-4-8t-12-2q-15 0-30 15t-22 39-9 50v93q0 6 3 8t8 3h21v12h-100m298 6q-23 0-44-16t-32-43-12-61 12-61 32-44 44-15q20 0 35 12t23 31l2 0v-142q0-6-2-9t-9-2h-36v-12h83v333q0 6 3 8t8 3h26v12h-73v-37l-2-1q-9 20-24 32t-34 12m6-14q15 0 27-11t20-31 7-41v-46q0-23-7-42t-20-30-27-11q-25 0-37 27t-13 79 13 78 37 28m382 8v-16h48q14 0 14-14v-298q0-7-3-11t-11-3h-18q-31 0-54 32-15 21-20 51t-5 46h-14l4-143h287l4 143h-14q0-15-5-46t-19-51q-23-32-55-32h-18q-7 0-10 3t-3 11v298q0 14 13 14h48v16h-169m357 0v-16h48q14 0 14-14v-298q0-7-3-11t-11-3h-18q-31 0-54 32-15 21-20 51t-5 46h-14l4-143h287l4 143h-14q0-15-5-46t-19-51q-23-32-55-32h-18q-7 0-10 3t-3 11v298q0 14 13 14h48v16h-169" />
</svg>