<svg id="fnt-Oldenburg" viewBox="0 0 2650 1000" xmlns="http://www.w3.org/2000/svg"><path id="oldenburg" class="f" d="M63 480q0 64 39 107t104 43 106-41 41-112-41-110-104-39-104 43-41 109m7 137q-25-25-38-60t-13-69q0-62 25-107t70-69 96-25q38 0 72 13t60 36 41 59 16 77q0 88-53 143t-138 55-138-53m493-3q16 0 16 19 0 14-18 26t-42 11q-41 0-55-38-4-13-4-32v-264q0-9-2-12t-4-2l-22 3q-9 0-15-5t-7-14q0-18 27-21 17-1 27-4t19-4q19 0 19 24v272q0 34 4 43t7 13 13 2 16-6 10-8 11-3m229-10v-133q-24-18-58-18t-59 25-24 65 22 65 58 24 61-28m6 36q-27 30-74 30t-81-34-34-90 37-95 94-37q29 0 52 12v-90q0-9-2-12t-4-2l-21 3q-10 0-16-5t-7-14q0-18 27-21 18-2 27-5t19-3q19 0 19 24v269q0 33 3 45t10 16q12 8 12 19 0 20-25 20t-36-30m150-121l16 1q9 0 54 0t58-7 14-23-17-26-37-11q-36 0-59 18t-29 48m163 71q22 0 22 19 0 9-7 20t-20 20q-30 21-79 21t-85-33q-17-16-28-40t-11-52q0-56 37-94t92-37q46 0 74 23t27 55-27 49-101 17q-20 0-58-2 4 38 29 57t52 19 43-6 22-21 18-15m143 75l-46 2q-23 0-23-18 0-9 7-14t20-5h22v-159q0-15-6-15-4 0-9 2t-14 2-14-6-6-13q0-19 26-22 14-1 26-4t21-3q18 0 18 23v32q11-23 35-38t50-15q47 0 67 24t20 64v128h16q31 0 31 19 0 7-6 12t-20 6l-43-2-46 2q-24 0-24-18 0-9 8-14t20-5h21v-112q0-51-26-61-9-4-21-4-26 0-50 20t-32 51v106h16q31 0 31 19 0 7-6 12t-20 6l-43-2m331-52q24 19 58 19t59-25 25-65-22-65-58-23-61 28v116q0 8-1 15m-10 37q-12 20-34 20t-22-20q0-11 10-17t12-18 3-45v-234q0-9-2-12t-5-2l-20 3q-10 0-16-5t-6-14q0-18 26-21 18-1 27-4t19-4q19 0 19 24v138q27-25 65-25 51 0 85 33t34 91-38 95-94 37q-27 0-50-11-7-4-13-9m421-29q-24 49-81 49-19 0-35-6-44-19-44-82v-109q0-14-6-14l-18 3q-22 0-22-20 0-18 23-20 14-2 22-4l13-3q4-1 13-1t13 7 5 16v130q0 49 24 60 9 4 22 4 23 0 42-22t28-55v-81q0-9-2-12t-4-2l-18 3q-21 0-21-20 0-18 24-20 12-2 20-4l13-3q4-1 13-1t13 7 4 16v133q0 46 12 57 3 3 9 5 9 4 9 15 0 23-27 23t-39-27q-4-9-5-22m252 46l-63-2q-11 0-17 0l-10 1q-12 1-22 1-23 0-23-18 0-9 7-14t20-5h22v-159q0-15-6-15-3 0-10 2t-14 2-13-6-6-13q0-19 26-22 16-1 27-4t20-3q18 0 18 23v38q19-42 63-55 14-4 27-4 27 0 43 12t16 36-9 35-21 12q-21 0-21-19 0-4 1-6l2-6q2-6 2-12 0-14-24-14t-46 27-33 70v81h40q31 0 31 19 0 7-6 12t-21 6m333-64v-124q0-4 1-7-26-20-60-20t-58 26-24 61q0 45 22 69t58 24 61-29m11-169q12-20 34-20t22 21q0 10-9 17t-13 18-2 44v150q0 61-30 96t-81 35q-41 0-65-18t-23-44q0-19 10-33t26-13q10 0 18 7t8 13-3 11-5 6-6 5-4 6q0 9 11 15t30 6q35 0 53-23t18-65v-22q-27 24-65 24-50 0-85-34t-34-92 37-94 93-36q28 0 52 11 7 4 13 9" />
</svg>