<svg id="fnt-Onest" viewBox="0 0 1384 1000" xmlns="http://www.w3.org/2000/svg"><path id="onest" class="f" d="M191 671q-55 0-92-24t-56-64-19-93q0-52 19-93t56-64 92-24 91 24 56 64 19 93q0 52-19 93t-56 64-91 24m0-40q42 0 69-19t39-51 13-71q0-29-7-55t-22-45-38-30-54-11q-42 0-69 19t-41 52-13 70q0 38 13 70t40 52 70 19m266 36h-43v-264h41l2 40q9-14 23-24t31-14 33-5q38 0 60 16t31 43 9 62v146h-42v-134q0-19-3-36t-9-30-19-22-33-7q-26 0-45 14t-27 39-9 55v121m367 3q-42 0-70-18t-41-47-13-70q0-39 14-70t42-47 67-18q31 0 53 12t37 31 21 43 6 47q-1 4-1 9t-1 9h-195q2 23 11 41t27 29 44 11q13 0 26-3t24-11 15-22h44q-6 26-23 42t-39 24-48 8m-80-156h152q0-23-10-40t-26-26-38-10q-25 0-42 11t-25 27-11 38m348 156q-18 0-36-4t-34-12-26-23-14-36h43q5 14 16 22t26 12 27 3q8 0 19-1t20-5 16-11 6-21q0-10-4-16t-13-11-19-6q-24-5-51-10t-47-17q-7-4-13-10t-9-13-7-16-2-19q0-20 8-34t22-24 32-13 39-5q26 0 47 8t34 24 16 39h-39q-4-14-19-24t-40-9q-8 0-18 1t-19 5-15 11-6 20q0 11 6 18t16 12 24 8q18 3 39 7t33 8q16 5 26 14t16 21 6 29q0 24-10 39t-24 23-35 12-37 4m289-3h-28q-30 0-49-9t-26-28-8-48v-141h-43v-38h43v-78h42v78h71v38h-71v136q0 27 10 40t40 13h19v37" />
</svg>