<svg id="fnt-Open Sans" viewBox="0 0 2488 1000" xmlns="http://www.w3.org/2000/svg"><path id="open-sans" class="f" d="M358 488q0 41-10 75t-31 58-51 37-71 14q-42 0-73-14t-51-37-30-59-10-75q0-54 18-96t54-64 93-23q53 0 89 23t55 64 18 97m-284 0q0 45 13 78t40 52 68 18q41 0 68-18t39-52 13-78q0-69-29-108t-90-39q-42 0-69 18t-40 50-13 79m483-94q50 0 80 35t30 103q0 46-14 77t-38 47-59 16q-21 0-37-6t-28-15-19-21h-3q1 10 2 23t1 23v110h-40v-387h33l5 40h2q8-13 19-23t28-16 38-6m-7 34q-28 0-45 11t-24 32-9 54v8q0 34 8 57t25 36 46 12q25 0 41-14t25-37 8-55q0-48-18-76t-57-28m291-34q34 0 58 15t38 43 12 63v25h-184q0 48 23 72t64 25q25 0 45-5t41-13v35q-21 9-41 13t-47 5q-38 0-67-16t-44-46-16-75q0-43 14-75t41-49 63-17m-1 33q-32 0-52 22t-23 59h142q0-24-7-42t-22-28-38-11m305-33q48 0 72 24t24 74v175h-40v-172q0-33-15-50t-47-17q-44 0-62 26t-18 73v140h-41v-268h33l6 39h2q9-15 22-24t30-15 34-5m517 178q0 31-15 54t-44 34-67 12q-20 0-38-2t-34-6-26-9v-40q18 8 44 14t56 7q26 0 45-8t28-20 10-33q0-18-8-31t-27-22-51-22q-23-8-40-17t-29-22-18-28-6-37q0-29 15-49t40-32 59-10q29 0 53 5t45 14l-13 36q-19-8-41-13t-45-6-38 7-24 19-9 29q0 19 8 31t26 22 46 20q31 12 53 25t34 31 11 47m167-177q48 0 71 21t23 69v182h-29l-8-40h-2q-11 15-23 25t-29 15-39 5q-24 0-43-9t-30-26-11-44q0-40 32-61t97-24l46-2v-16q0-35-15-49t-42-14q-21 0-40 6t-36 15l-13-31q18-9 42-16t49-6m54 164v-24l-40 2q-51 1-71 16t-21 41q0 23 14 34t37 11q36 0 59-20t22-60m251-165q47 0 72 24t24 74v175h-40v-172q0-33-15-50t-47-17q-45 0-63 26t-18 73v140h-40v-268h33l6 39h2q8-15 22-24t29-15 35-5m353 199q0 26-13 43t-37 27-57 9q-28 0-48-5t-36-12v-38q16 8 39 15t46 7q35 0 51-12t15-30q0-11-6-20t-21-16-40-17q-26-10-45-20t-28-23-11-36q0-34 28-53t72-18q24 0 45 5t40 13l-14 32q-17-7-35-12t-39-5q-28 0-43 10t-15 25q0 13 7 21t23 15 40 16q25 10 43 19t29 24 10 36" />
</svg>