<svg id="fnt-Oranienbaum" viewBox="0 0 2666 1000" xmlns="http://www.w3.org/2000/svg"><path id="oranienbaum" class="f" d="M255 492q0 46-10 80t-27 57-38 34-42 11-43-11-38-34-27-57-10-80 10-81 27-57 38-34 43-11 42 11 38 34 27 57 10 81m-47 0q0-52-7-86t-16-53-23-28-24-8-25 8-23 28-16 53-6 86 6 85 16 54 23 28 25 8 24-8 23-28 16-54 7-85m155 17v145l30 8v5h-100v-5l30-8v-205l-30-7v-5h70v60q6-19 15-34 8-13 20-23t27-11q6 0 11 1t9 2q4 1 8 2l-15 38q-3-2-7-4-3-1-7-3t-9-1q-13 0-23 7t-16 16q-8 10-13 22m242 110v-75q-43 0-64 19t-21 54q0 22 11 35t24 12q12 0 21-7t16-15q8-10 13-23m-37-182q-15 0-25 10t-10 27q0 4 0 7t1 6 1 5l-40 10q-1-2-1-4t-1-6 0-8q0-10 5-20t14-18 24-12 32-5q36 0 56 21t21 54v150l30 8v5h-70v-30q-5 10-14 19-7 7-18 12t-25 6q-36 0-55-17t-18-45q0-14 8-28t23-25 41-18 58-7v-30q0-37-11-52t-26-15m137 225l30-8v-205l-30-7v-5h70v30q5-10 14-19 7-7 18-13t26-6 27 6 23 15 14 23 6 31v150l30 8v5h-98v-5l28-8v-150q0-35-12-50t-26-15q-12 0-21 7t-16 16q-7 10-13 22v170l28 8v5h-98v-5m258 0l30-8v-205l-30-7v-5h70v217l30 8v5h-100v-5m72-283q0 10-8 17t-17 8-17-8-8-17 8-17 17-8 17 8 8 17m243 173h-135q0 32 4 53t13 35 17 19 21 5q13 0 24-5t21-13 14-21 8-26h8q-2 16-9 30t-17 24-25 15-29 6q-19 0-36-8t-31-24-21-39-7-51q0-30 7-53t20-39 28-23 35-8 34 8 28 23 20 39 8 53m-90-115q-8 0-15 4t-14 17-11 32-5 52h90q-1-31-6-52t-10-32-14-17-15-4m127 225l30-8v-205l-30-7v-5h70v30q5-10 14-19 7-7 18-13t26-6 27 6 23 15 14 23 6 31v150l30 8v5h-98v-5l28-8v-150q0-35-12-50t-26-15q-12 0-21 7t-16 16q-7 10-13 22v170l28 8v5h-98v-5m370-223q-11 0-20 5t-14 10q-6 7-11 15v150q6 13 13 23 7 8 16 15t21 7q9 0 17-5t16-19 12-35 5-53-5-54-12-34-18-19-20-6m8-10q18 0 34 8t30 24 20 39 8 52-8 51-20 39-28 24-31 8q-15 0-26-6t-18-12q-9-9-14-19v30h-70v-5l30-8v-325l-30-7v-5h70v137q5-7 12-12 7-5 16-9t25-4m265 190v-75q-44 0-65 19t-20 54q0 22 11 35t24 12q12 0 21-7t16-15q7-10 13-23m-38-182q-15 0-25 10t-10 27q0 4 0 7t1 6 2 5l-40 10q-1-2-2-4t-1-6 0-8q0-10 5-20t15-18 23-12 32-5q36 0 57 21t21 54v150l30 8v5h-70v-30q-6 10-14 19-7 7-18 12t-26 6q-36 0-54-17t-18-45q0-14 7-28t24-25 40-18 59-7v-30q0-37-12-52t-26-15m355 5l-30 7v205l30 8v5h-70v-30q-5 10-14 19-7 7-18 12t-25 6-28-5-22-16-15-23-5-31v-150l-30-7v-5h97v5l-27 7v150q0 36 11 50t26 15q12 0 21-7t16-15q8-10 13-23v-170l-27-7v-5h97v5m35 220l30-8v-205l-30-7v-5h70v30q5-10 14-19 7-7 18-13t26-6q19 0 31 7t20 16q9 10 14 22 6-12 15-22 8-9 20-16t27-7q15 0 28 6t22 15 15 23 5 31v150l30 8v5h-97v-5l27-8v-150q0-35-11-50t-26-15q-13 0-22 7t-15 16q-8 10-13 22v170l27 8v5h-95v-5l28-8v-150q0-35-12-50t-26-15q-12 0-21 7t-16 16q-7 10-13 22v170l28 8v5h-98v-5" />
</svg>