<svg id="fnt-Orbit" viewBox="0 0 1451 1000" xmlns="http://www.w3.org/2000/svg"><path id="orbit" class="f" d="M16 489q0-89 33-137t97-49 96 48 33 138-33 138-96 48-97-49-33-137m222 0q0-73-24-112t-68-39-69 39-24 112q0 73 24 112t69 39 68-39 24-112m177 178h-38v-250h199v37h-161v213m263-31v31h-37v-329h-28v-35h65v142q30-40 83-40 35 0 61 17t40 48 14 73q0 60-31 95t-84 35q-26 0-47-10t-36-27m0-93q0 44 22 70t60 26q36 0 57-26t22-70q0-48-22-76t-57-28q-38 0-60 28t-22 76m401-179h-61v-61h61v61m0 41v227h111v35h-261v-35h112v-192h-88v-35h126m330 227h41v35h-48q-47 0-72-19t-25-67v-120h-82v-35h82v-78h37v78h107v35h-107v115q0 22 6 34t20 17 41 5" />
</svg>