<svg id="fnt-Orbitron" viewBox="0 0 2228 1000" xmlns="http://www.w3.org/2000/svg"><path id="orbitron" class="f" d="M327 667h-240q-16 0-30-8t-22-22-8-30v-240q0-17 8-31t22-21 30-8h240q17 0 30 8t22 21 8 31v240q0 16-8 30t-22 22-30 8m-240-41h240q8 0 14-6t6-13v-240q0-8-6-14t-14-6h-240q-8 0-14 6t-5 14v240q0 8 5 13t14 6m394 41h-41v-230q0-16 8-30t22-22 31-8h163v41h-163q-8 0-14 5t-6 14v230m451 0h-235v-385h41v95h194q17 0 30 8t22 22 9 30v169q0 17-9 30t-22 22-30 9m-174-41h174q8 0 14-6t6-14v-169q0-8-6-14t-14-5h-174q-8 0-14 5t-6 14v169q0 8 6 14t14 6m313 41h-41v-290h41v290m0-344h-41v-41h41v41m124 344q-17 0-31-9t-22-22-8-30v-324h41v95h126v41h-126v188q0 8 6 14t14 6h106v41h-106m185 0h-41v-230q0-16 8-30t22-22 30-8h163v41h-163q-8 0-14 5t-5 14v230m272 0q-16 0-30-9t-22-22-8-30v-169q0-16 8-30t22-22 30-8h174q17 0 31 8t22 22 8 30v169q0 17-8 30t-22 22-31 9h-174m0-41h174q8 0 14-6t6-14v-169q0-8-6-14t-14-5h-174q-8 0-14 5t-5 14v169q0 8 5 14t14 6m321 41h-41v-290h235q16 0 30 8t22 22 8 30v230h-41v-230q0-8-6-14t-13-5h-174q-8 0-14 5t-6 14v230" />
</svg>