<svg id="fnt-Orelega One" viewBox="0 0 2688 1000" xmlns="http://www.w3.org/2000/svg"><path id="orelega-one" class="f" d="M124 364q20-5 42-5t42 5 36 12 29 20 24 25 16 29 11 32 3 33-3 34-11 31-16 30-24 25-29 19-36 13-42 5-42-5-36-13-29-19-24-25-16-30-11-31-3-34 3-33 11-32 16-29 24-25 29-20 36-12m69 40q-12-6-27-6t-27 6-21 17-14 25-8 32-3 37q0 25 4 46t14 37 23 25 32 9 32-9 23-25 14-37 4-46q0-19-2-37t-9-32-14-25-21-17m159 77v-39h75l16 30q21-35 61-35 26 0 42 16t16 43q0 16-12 27t-28 12-27-12-12-27q0-7 2-13-3-2-6-2-9 0-17 11t-17 32l-1 104h54v39h-146v-39h24v-147h-24m453 88h-158q1 14 4 25t9 18 12 12 14 7 15 1q25 0 40-9t23-31l33 11q-5 12-12 22t-16 20-21 15-26 9-31 4q-24 0-46-8t-37-24-25-37-9-48 9-49 25-37 37-24 46-9 45 9 37 24 25 37 10 49l-3 13m-157-39h86q-3-28-14-41t-29-13q-9 0-16 3t-13 9-9 17-5 25m169-127v-39h93v264h25v39h-118v-39h25v-225h-25m365 166h-157q1 14 4 25t9 18 12 12 13 7 16 1q25 0 40-9t23-31l32 11q-4 12-11 22t-16 20-21 15-27 9-30 4q-24 0-46-8t-37-24-25-37-9-48 9-49 25-37 37-24 46-9 45 9 37 24 25 37 10 49l-4 13m-156-39h86q-3-28-14-41t-29-13q-9 0-16 3t-13 9-9 17-5 25m330-132q0-16 12-28t28-11q6 0 11 2 8 2 14 6t9 8 6 11 3 12 0 13q0 7-2 15t-8 16-11 13-11 11q18 18 18 44 0 20-9 35t-23 25-34 14-42 5q-18 0-35-5-11 2-17 6t-6 8 3 7 7 3h68q52 0 75 15t23 49q0 16-4 29t-11 23-17 17-22 11-24 8-27 3-27 1q-23 0-42-5t-31-14-18-20-7-24q0-27 30-42-11-6-18-16t-7-25q0-17 9-30t26-20q-14-10-22-24t-8-34q0-15 5-28t15-20 23-14 28-8 31-2q39 0 66 13 6-8 10-14-15-1-26-12t-11-27m-36 78q-17 0-27 10t-10 29q0 18 10 29t27 10q17 0 27-10t9-29q0-19-9-29t-27-10m32 191h-69q-14 10-14 24 0 15 9 20t35 4q58 0 58-29 0-7-6-13t-13-6m310-147v108h24v39h-76l-11-26q-12 18-29 25t-46 6q-15 0-28-5t-22-15-15-21-5-28q0-25 20-42t50-17q25 0 41 5t28 15v-52q0-11-3-18t-9-11-13-6-18-2q-8 0-15 4 4 8 4 17 0 16-12 27t-27 12-28-12-11-27q0-9 3-16t9-13q5-5 10-9t13-8 18-7 22-4 29-2q20 0 38 6t31 17 20 26 8 34m-69 92v-16q-7-8-17-13t-17-4q-18 0-25 5t-7 19q0 16 6 23t23 7q9 0 20-6t17-15m361-248q20-5 42-5t42 5 36 12 29 20 24 25 16 29 11 32 3 33-3 34-11 31-16 30-24 25-29 19-36 13-42 5-42-5-35-13-30-19-24-25-16-30-11-31-3-34 3-33 11-32 16-29 24-25 30-20 35-12m69 40q-12-6-27-6t-27 6-20 17-15 25-8 32-3 37q0 25 5 46t13 37 23 25 32 9 32-9 23-25 14-37 4-46q0-19-2-37t-9-32-14-25-21-17m320 33q17 0 30 5t21 13 13 20 7 27 2 33v93h24v39h-117v-39h25v-98q0-19-4-30t-10-15-18-4q-10 0-21 9t-20 24l-1 114h25v39h-117v-39h24v-147h-24v-39h75l18 33q4-8 10-15t14-12 19-8 25-3m340 132h-157q1 14 4 25t9 18 12 12 13 7 16 1q25 0 40-9t23-31l32 11q-4 12-11 22t-16 20-21 15-27 9-30 4q-24 0-46-8t-37-24-25-37-9-48 9-49 25-37 37-24 46-9 45 9 37 24 25 37 10 49l-4 13m-157-39h87q-4-28-14-41t-29-13q-9 0-16 3t-13 9-9 17-6 25" />
</svg>