<svg id="fnt-Oswald" viewBox="0 0 1262 1000" xmlns="http://www.w3.org/2000/svg"><path id="oswald" class="f" d="M135 671q-41 0-65-16t-35-46-11-69v-154q0-40 11-69t35-44 65-15 65 16 35 44 11 68v154q0 40-11 69t-35 46-65 16m0-44q23 0 34-10t16-26 4-39v-177q0-23-4-39t-16-25-34-9-34 9-16 25-4 39v177q0 23 4 39t16 26 34 10m229 44q-36 0-57-23t-25-58l45-14q4 28 13 41t28 14q15 0 22-8t8-22q0-13-6-23t-18-20l-49-43q-15-13-26-29t-10-41q0-23 9-39t26-24 40-8q36 0 55 22t22 54l-38 13q-2-15-6-26t-12-18-19-6q-13 0-21 9t-8 21q0 7 3 14t12 15l51 47q10 9 19 20t16 25 6 33q0 24-10 41t-28 24-42 9m201-4h-48l-46-289h44l30 213 38-213h41l39 212 30-212h44l-48 289h-45l-40-204-39 204m253 4q-17 0-30-10t-20-25-8-32q0-27 9-46t25-31 36-22 44-19v-20q0-18-2-29t-8-18-19-5q-11 0-18 5t-9 14-3 22v14l-53-2q1-48 22-71t65-22q43 0 61 23t18 68v132q0 14 0 26t2 23 3 21h-49q-2-8-4-21t-3-22q-5 17-20 32t-39 15m21-46q8 0 15-5t13-10 7-9v-82q-12 7-23 14t-20 14-13 18-4 22q0 18 6 28t19 10m199 42h-54v-405h54v405m123 4q-37 0-55-27t-18-91v-56q0-33 6-61t20-45 45-17q15 0 27 6t21 16v-134h54v405h-54v-19q-9 10-21 16t-25 7m13-42q8 0 16-3t17-8v-190q-7-5-15-9t-19-3q-18 0-25 17t-6 43v82q0 20 2 36t9 25 21 10" />
</svg>