<svg id="fnt-Overlock" viewBox="0 0 1787 1000" xmlns="http://www.w3.org/2000/svg"><path id="overlock" class="f" d="M332 501q0 78-42 124t-112 47-112-47-41-124 41-125 112-46 112 46 42 125m-67-92q-13-22-35-35t-52-13q-51 0-82 35t-30 90q0 59 25 105 12 23 34 37t52 13q54 0 83-36t30-94-25-102m275 20q19 0 19 19 0 34-25 102t-51 99q-9 11-16 15t-14 4-15-1q-12-58-38-131t-45-91q15-13 27-13t20 17q11 24 31 83t31 99q20-27 41-84t21-100q0-8-2-15 8-3 16-3m170 0q35 0 56 20t22 43-7 36-18 20-32 12q-32 6-96 6 4 36 21 57t53 21 50-26q20 8 20 22t-23 23-51 9q-47 0-77-30t-30-90 33-91 79-32m-2 28q-30 0-52 20t-22 64q72 0 95-11 10-4 17-13t8-23-14-26-32-11m135 183l1-89q0-71-3-117 8-1 17-1 21 0 21 19 0 1 0 6t0 11q10-15 26-28t31-12q27 0 27 20 0 9-10 22-11-9-24-9t-28 11-23 29q-1 17-1 74t10 88q-9 4-22 4t-17-6-5-22m158 2l1-143v-58q0-118-4-144 8-2 18-2 23 0 23 19 0 2-1 27-3 91-3 147v78q0 66 10 98-9 4-21 4t-18-6-5-20m314-91q0 55-30 88t-79 33-79-33-30-88 30-89 79-33 79 33 30 89m-109 93q35 0 54-24t20-64-20-70-55-29-54 24-19 65 20 69 54 29m262 0q15 0 30-7t22-19q20 8 20 20 0 16-23 25t-51 9q-45 0-76-30t-30-89q0-31 10-56t26-39q34-29 74-29 25 0 48 12t23 32q0 18-24 22-5-18-21-28t-34-10q-28 0-48 25t-19 70 20 68 53 24m126-2l1-143v-58q0-118-4-144 8-2 17-2 23 0 23 19 0 2 0 23-3 77-3 126 35-34 76-34 33 0 50 18t17 46-19 50-52 26q26 44 39 58t29 14q8 0 13-2 5 9 5 16t-11 12-20 5q-19 0-36-18t-28-38-19-31-10-17q-13-2-13-11 0-5 3-12 16 4 25 4 28 0 43-16t15-33-11-31-27-12-37 10-32 26v73q0 66 9 98-9 4-21 4t-17-6-5-20" />
</svg>