<svg id="fnt-Overpass Mono" viewBox="0 0 3971 1000" xmlns="http://www.w3.org/2000/svg"><path id="overpass-mono" class="f" d="M154 673q-32 0-55-16t-36-42-20-58-6-65 6-66 20-58 36-42 55-15 55 15 36 42 20 58 7 66-7 65-20 58-36 42-55 16m0-38q21 0 35-13t23-33 13-47 4-50q0-28-4-54t-13-46-23-32-35-12q-20 0-35 13t-23 34-13 46-4 51q0 27 4 53t13 46 23 32 35 12m325 32h-33l-97-256h42l64 172q2 6 4 12t4 14q2-7 5-14t4-12l63-172h41l-97 256m296 6q-36 0-63-18t-39-49-14-67q0-43 14-72t41-46 61-16q29 0 53 13t39 40 14 70q0 5 0 12t-1 15h-189v-36h150q-1-30-11-47t-26-24-29-7q-39 0-57 25t-18 66q0 48 20 76t57 27q15 0 30-4t29-17l23 27q-16 14-37 23t-47 9m345-6h-170v-37h53v-183h-53v-36h92v57l-3-7q8-17 24-30t37-19 41-7q19 0 33 4t22 8v88h-41v-76l13 20q-6-2-14-3t-14-1q-26 0-47 9t-35 24-13 40v112h75v37m205 81l-41 20v-357h41v22q12-11 28-19t41-9q35 0 60 17t38 46 14 71q0 42-15 72t-39 46-56 16q-28 0-44-9t-27-22v106m66-113q35 0 54-25t19-71q0-44-20-70t-55-27q-21 0-38 10t-26 26v121q12 15 28 26t38 10m286 38q-26 0-47-10t-32-29-12-48q0-29 14-48t36-27 48-9q18 0 35 4t35 13v-20q0-24-8-36t-20-18-27-4q-21 0-43 8t-38 19l-12-35q17-10 42-19t55-9q14 0 30 4t29 13 22 28 8 45v172h-38v-24q-15 13-34 21t-43 9m6-36q24 0 42-11t29-25v-45q-12-8-30-13t-35-6q-26 0-45 12t-20 37q0 23 15 37t44 14m318 36q-29 0-53-13t-42-32l28-25q12 13 30 24t40 10q21 0 35-9t14-25q0-14-9-23t-24-16-32-14q-21-8-40-18t-29-24-11-37q0-20 12-35t31-23 46-8q28 0 51 11t38 28l-27 23q-10-9-26-18t-38-8q-21 0-35 8t-13 22q0 12 9 20t22 14 29 12q20 7 40 17t32 26 13 41q0 33-25 52t-66 20m308 0q-29 0-53-13t-42-32l28-25q12 13 30 24t40 10q21 0 35-9t14-25q0-14-9-23t-24-16-32-14q-21-8-40-18t-29-24-11-37q0-20 12-35t31-23 46-8q28 0 51 11t38 28l-27 23q-10-9-26-18t-38-8q-21 0-35 8t-13 22q0 12 9 20t22 14 29 12q20 7 40 17t32 26 13 41q0 33-25 52t-66 20m550-6h-38v-350h45l53 211q3 13 5 21t2 16q1-9 3-16t5-21l53-211h44v350h-38v-224q0-5 0-14t1-18q-2 9-4 17t-3 15l-57 224h-7l-57-224q-2-8-4-16t-4-16q1 8 1 18t0 14v224m375 6q-36 0-62-16t-42-46-15-72q0-42 15-72t42-46 62-16q36 0 63 16t42 46 14 72q0 41-14 71t-42 47-63 16m0-38q37 0 57-26t20-70q0-45-19-71t-58-26q-38 0-57 26t-20 71q0 45 20 70t57 26m247 32h-41v-256h41v48l-7-9q6-14 17-24t26-15 33-6q31 0 52 12t32 37 11 67v146h-41v-153q0-40-17-56t-43-16q-18 0-33 7t-22 22-8 42v154m369 6q-36 0-62-16t-42-46-15-72q0-42 15-72t42-46 62-16q36 0 63 16t42 46 14 72q0 41-14 71t-42 47-63 16m0-38q37 0 57-26t20-70q0-45-19-71t-58-26q-38 0-57 26t-20 71q0 45 20 70t57 26" />
</svg>