<svg id="fnt-Overlock SC" viewBox="0 0 2702 1000" xmlns="http://www.w3.org/2000/svg"><path id="overlock-sc" class="f" d="M178 672q-70 0-112-47t-41-124q0-78 41-125t112-46q70 0 112 46t42 125q0 78-42 124t-112 47m112-162q0-28-7-53t-18-48-35-35-52-13q-51 0-82 35t-30 90q0 29 6 56t19 49 34 37 52 13q54 0 83-36t30-95m267-103q8-2 19-2 12 0 17 4t4 17q0 42-28 113t-60 108q-11 14-18 17t-21 4q-6 0-11-1-13-63-44-144t-54-101q16-14 33-14 7 0 12 4t12 17q14 31 35 92t33 105q27-34 50-96t23-108q0-9-2-15m132 30q1 12 1 77h32q34 0 48-1 2 4 2 11 0 10-5 13t-13 5q-10 0-28 0h-36q0 81 3 97 18 1 29 1 66 0 87-9 3 9 3 19 0 8-4 12-7 5-68 5-12 0-38 0t-28 0q-12-1-17-6t-4-16q0-7 1-31t0-37v-77q0-57-6-89 49-4 92-4 60 0 68 6 4 4 4 12 0 10-4 19-24-8-75-8-19 0-44 1m337 195q11 11 24 11 2 0 10-1 4 7 4 13 0 15-33 15-14 0-28-11t-26-31-19-34-16-35q-10-2-10-10 0-5 4-15 11 3 19 3 23 0 37-15t15-38q0-29-16-41t-49-11q-3 0-30 1 2 23 2 79v77q0 52 7 76-8 3-22 3t-18-5-5-17q0-6 1-31t0-38v-78q0-55-5-90 27-4 63-4 112 0 112 78 0 31-18 51t-47 26q30 58 44 72m97-52v-81q0-52-3-91 8-1 19-1 23 0 23 15 0 2-1 16t-1 33-1 38v35q0 79 3 95 17 1 26 1 63 0 81-9 3 10 3 19 0 8-3 12-8 5-65 5-11 0-36 0t-27 0q-11-1-15-6t-4-16q0-6 0-29t1-36m285 90q-58 0-92-36t-35-96q0-61 35-97t92-36q59 0 93 36t35 97q0 60-35 96t-93 36m88-125q0-29-8-53t-29-42-50-18q-41 0-65 27t-23 67q0 30 8 56t28 43 51 18q42 0 65-27t23-71m281 65q19 8 19 23 0 15-23 26t-59 11q-59 0-94-36t-36-96q0-63 35-98t97-35q32 0 54 12t22 30q0 19-27 23-7-18-24-28t-34-10q-36 0-60 28t-23 70q0 48 23 81t66 32q19 0 36-8t28-25m154-83q42 70 67 100 15 16 31 16 5 0 10-1 3 5 3 12 0 8-8 12t-19 5q-24 0-42-20-8-9-19-23t-17-25-19-29-16-24l-4 2v36q0 52 8 77-7 3-22 3-13 0-18-5t-5-17q0-6 1-31t0-38v-78q0-52-3-90 9-2 19-2 24 0 24 15 0 2-1 16t-2 34-1 42q31-22 61-53t37-53q25 3 25 17 0 11-28 42t-62 60m433-127q-9-16-31-27t-45-11q-26 0-43 14t-17 41q0 21 12 34t32 18 42 13 41 16 32 27 13 49q0 26-10 45t-27 31-37 16-42 6q-39 0-69-14t-29-33q0-7 4-12t8-8 13-7q10 19 34 30t51 12q28 0 48-15t20-44q0-23-18-37t-43-21-51-15-43-29-17-54q0-46 30-70t77-25q35 0 64 12t29 33q0 20-28 25m315 200q22 9 22 24 0 18-28 33t-71 15q-70 0-113-48t-42-123q0-80 42-126t115-45q39 0 66 16t26 39q0 20-28 25-10-25-30-37t-44-12q-47 0-77 37t-29 93q0 64 30 107t84 43q24 0 44-10t33-31" />
</svg>