<svg id="fnt-Oxygen" viewBox="0 0 1717 1000" xmlns="http://www.w3.org/2000/svg"><path id="oxygen" class="f" d="M72 486q0 70 32 109t95 40 94-39 31-110q0-71-31-110t-94-40-94 40-33 110m298 0q0 41-12 76t-32 58-54 38-73 14q-55 0-94-23t-58-65-20-98q0-87 46-137t126-50q80 0 125 51t46 136m35 181l98-137-95-131h47l71 102 72-102h47l-95 132 97 136h-45l-75-108-76 108h-46m357-2l-106-266h43l84 223 76-223h43q-109 298-112 307-17 43-41 62t-63 20q-12 0-25-2l-2-35q14 1 20 1 28 0 42-10t26-38q10-25 15-39m276-33q21 0 37-8t24-20 13-29 4-34v-20q0-20-4-36t-13-30-25-20-35-7q-17 0-31 6t-23 17-15 24-9 28-3 28q0 15 3 28t10 28 15 23 23 16 29 6m-17 157h-45l-4-37h50q20 0 36-3t25-9 17-15 10-21 4-26 1-32v-23q-14 21-34 32t-49 11q-23 0-42-8t-33-21-23-30-13-36-4-37q0-30 7-55t21-44 37-31 53-11q27 0 46 10t35 31v-35h40v248q0 17-1 30t-4 29-9 27-15 22-25 18-34 12-47 4m358-341q-18-21-50-21t-51 22-23 60h141q0-39-17-61m-42 224q-58 0-92-37t-33-101q0-63 32-101t86-40q50 0 79 34t29 91q0 3 0 11t0 11h-184q1 46 23 71t62 26q42 0 85-23l6 33q-40 25-93 25m199-5h-41v-268h34l5 38q16-20 40-32t51-12q46 0 69 26t22 80v168h-41q0-161 0-173-1-34-14-50t-43-16q-31 0-52 15t-28 40q-2 16-2 37v147" />
</svg>