<svg id="fnt-Oxygen Mono" viewBox="0 0 3268 1000" xmlns="http://www.w3.org/2000/svg"><path id="oxygen-mono" class="f" d="M190 354q-17-20-40-20t-40 20-24 54-8 77 8 76 24 54 40 20 40-20 24-54 8-76-8-77-24-54m13 303q-23 16-53 16t-54-16-37-41q-29-53-29-132 0-97 38-148 14-18 35-29t47-10 47 10q38 20 56 68t17 109q0 79-29 132-14 26-38 41m219-127l-83-131h50l64 103 64-103h46l-82 130 85 138h-49l-66-107-68 107h-49l88-137m250-131l85 217 71-217h49q-75 209-88 244t-18 47-11 25-15 25-15 16-24 9-59 5l-5-37q32 0 39-2t12-3 9-5 7-6q11-11 25-56-69-158-99-236l-11-26h48m445 234v-18q-8 21-29 37t-47 15q-51 0-81-40t-29-96q0-76 38-114 27-26 74-26t74 44l1-36h46q-3 60-3 159v72q0 86-37 117-27 23-82 29-27 3-63 3l-4-34q53 0 76-6t34-14 18-21q14-23 14-71m-21-187q-8-10-21-15t-29-6-29 6q-24 10-33 37t-8 53 2 39q4 29 20 48t46 19q47 0 64-42 9-23 9-47t-2-40-7-28-12-24m204 208q-28-19-42-50t-13-72 12-71 38-51 55-19q57 0 83 38t26 96v15h-169q1 41 20 70t58 29q26-3 71-28l15 30q-32 32-87 32-39 0-67-19m-9-147h126q-5-82-58-82-59 0-68 82m383-116q84 0 84 105v171h-45v-165q0-29-3-41t-9-20q-12-16-40-16-29 0-49 17t-19 43v182h-45v-268h41l2 29q27-37 83-37m551 118l-43-143v301h-45v-364h62l52 168 52-168h61v364h-44v-301l-44 143h-51m325 130q46 0 63-47 9-25 9-51t-2-41q-4-33-21-54t-49-21q-46 0-62 47-9 26-9 54 0 49 15 81t56 32m88-209q29 39 29 102t-32 102-85 39q-29 0-51-11t-37-31q-28-38-28-101t31-101 87-38 86 39m237-39q83 0 83 105v171h-45v-165q0-29-3-41t-8-20q-13-16-41-16-29 0-48 17t-20 43v182h-45v-268h41l3 29q26-37 83-37m275 248q47 0 63-47 9-25 9-51t-2-41q-4-33-21-54t-49-21q-46 0-62 47-9 26-9 54 0 49 15 81t56 32m88-209q29 39 29 102t-32 102-85 39q-29 0-51-11t-37-31q-28-38-28-101t31-101 87-38 86 39" />
</svg>